0
SECTION
2
HEADER
9
$ACADVER
1
AC1009
0
ENDSEC
0
SECTION
2
TABLES
0
TABLE
2
LTYPE
70
3
0
LTYPE
2
CONTINUOUS
70
0
3
Solid line
72
65
73
0
40
0.0
0
LTYPE
2
HIDDEN
70
0
3
__ __ __ __ __
72
65
73
2
40
9.0
49
6.0
49
-3.0
0
LTYPE
2
CENTER
70
0
3
___ _ ___ _ ___
72
65
73
4
40
21.0
49
12.0
49
-3.0
49
3.0
49
-3.0
0
ENDTAB
0
TABLE
2
LAYER
70
7
0
LAYER
2
0
70
0
62
7
6
CONTINUOUS
0
LAYER
2
FRONT
70
0
62
7
6
CONTINUOUS
0
LAYER
2
FRONT_HID
70
0
62
7
6
HIDDEN
0
LAYER
2
RIGHT
70
0
62
7
6
CONTINUOUS
0
LAYER
2
RIGHT_HID
70
0
62
7
6
HIDDEN
0
LAYER
2
TOP
70
0
62
7
6
CONTINUOUS
0
LAYER
2
TOP_HID
70
0
62
7
6
HIDDEN
0
ENDTAB
0
ENDSEC
0
SECTION
2
ENTITIES
0
LINE
8
FRONT
10
0.000000
20
1.008750
30
0.0
11
0.000000
21
1.052500
31
0.0
0
LINE
8
FRONT
10
0.028868
20
1.008750
30
0.0
11
0.028868
21
1.052500
31
0.0
0
LINE
8
FRONT
10
0.028868
20
1.052500
30
0.0
11
0.000000
21
1.052500
31
0.0
0
LINE
8
FRONT
10
0.028868
20
1.008750
30
0.0
11
0.000000
21
1.008750
31
0.0
0
LINE
8
FRONT
10
0.115470
20
1.008750
30
0.0
11
0.086603
21
1.008750
31
0.0
0
LINE
8
FRONT
10
0.086602
20
1.008750
30
0.0
11
0.028868
21
1.008750
31
0.0
0
LINE
8
FRONT
10
0.115470
20
1.052500
30
0.0
11
0.086603
21
1.052500
31
0.0
0
LINE
8
FRONT
10
0.086602
20
1.052500
30
0.0
11
0.028868
21
1.052500
31
0.0
0
LINE
8
FRONT
10
0.086602
20
1.008750
30
0.0
11
0.086602
21
1.052500
31
0.0
0
LINE
8
FRONT
10
0.115470
20
1.008750
30
0.0
11
0.115470
21
1.052500
31
0.0
0
LINE
8
FRONT
10
0.088985
20
1.008750
30
0.0
11
0.088985
21
0.258750
31
0.0
0
LINE
8
FRONT
10
0.088985
20
0.258750
30
0.0
11
0.026485
21
0.258750
31
0.0
0
LINE
8
FRONT
10
0.026485
20
0.258750
30
0.0
11
0.026485
21
1.008750
31
0.0
0
LINE
8
FRONT_HID
6
HIDDEN
10
0.000000
20
1.052500
30
0.0
11
0.028867
21
1.052500
31
0.0
0
LINE
8
FRONT_HID
6
HIDDEN
10
0.028868
20
1.008750
30
0.0
11
0.028868
21
1.052500
31
0.0
0
LINE
8
FRONT_HID
6
HIDDEN
10
0.000000
20
1.008750
30
0.0
11
0.028867
21
1.008750
31
0.0
0
LINE
8
FRONT_HID
6
HIDDEN
10
0.028868
20
1.052500
30
0.0
11
0.086602
21
1.052500
31
0.0
0
LINE
8
FRONT_HID
6
HIDDEN
10
0.086602
20
1.008750
30
0.0
11
0.086602
21
1.052500
31
0.0
0
LINE
8
FRONT_HID
6
HIDDEN
10
0.028868
20
1.008750
30
0.0
11
0.086602
21
1.008750
31
0.0
0
LINE
8
FRONT_HID
6
HIDDEN
10
0.086602
20
1.008750
30
0.0
11
0.115470
21
1.008750
31
0.0
0
LINE
8
FRONT_HID
6
HIDDEN
10
0.088985
20
1.008750
30
0.0
11
0.026485
21
1.008750
31
0.0
0
LINE
8
FRONT_HID
6
HIDDEN
10
0.026485
20
1.008750
30
0.0
11
0.088985
21
1.008750
31
0.0
0
LINE
8
FRONT_HID
6
HIDDEN
10
0.086602
20
1.052500
30
0.0
11
0.115470
21
1.052500
31
0.0
0
LINE
8
FRONT_HID
6
HIDDEN
10
0.026485
20
0.258750
30
0.0
11
0.088985
21
0.258750
31
0.0
0
LINE
8
RIGHT
10
0.374220
20
1.008750
30
0.0
11
0.374220
21
1.052500
31
0.0
0
LINE
8
RIGHT
10
0.374220
20
1.008750
30
0.0
11
0.324220
21
1.008750
31
0.0
0
LINE
8
RIGHT
10
0.324220
20
1.008750
30
0.0
11
0.274220
21
1.008750
31
0.0
0
LINE
8
RIGHT
10
0.374220
20
1.052500
30
0.0
11
0.324220
21
1.052500
31
0.0
0
LINE
8
RIGHT
10
0.324220
20
1.052500
30
0.0
11
0.274220
21
1.052500
31
0.0
0
LINE
8
RIGHT
10
0.274220
20
1.008750
30
0.0
11
0.274220
21
1.052500
31
0.0
0
LINE
8
RIGHT
10
0.324220
20
1.008750
30
0.0
11
0.324220
21
1.052500
31
0.0
0
LINE
8
RIGHT
10
0.324220
20
0.258750
30
0.0
11
0.292970
21
0.258750
31
0.0
0
LINE
8
RIGHT
10
0.355470
20
0.258750
30
0.0
11
0.324220
21
0.258750
31
0.0
0
LINE
8
RIGHT
10
0.324220
20
1.008750
30
0.0
11
0.324220
21
0.258750
31
0.0
0
LINE
8
RIGHT
10
0.292970
20
0.258750
30
0.0
11
0.292970
21
1.008750
31
0.0
0
LINE
8
RIGHT
10
0.355470
20
0.258750
30
0.0
11
0.355470
21
1.008750
31
0.0
0
LINE
8
RIGHT_HID
6
HIDDEN
10
0.324220
20
1.008750
30
0.0
11
0.324220
21
1.052500
31
0.0
0
LINE
8
RIGHT_HID
6
HIDDEN
10
0.324220
20
1.052500
30
0.0
11
0.374220
21
1.052500
31
0.0
0
LINE
8
RIGHT_HID
6
HIDDEN
10
0.374220
20
1.008750
30
0.0
11
0.374220
21
1.052500
31
0.0
0
LINE
8
RIGHT_HID
6
HIDDEN
10
0.324220
20
1.008750
30
0.0
11
0.374220
21
1.008750
31
0.0
0
LINE
8
RIGHT_HID
6
HIDDEN
10
0.274220
20
1.008750
30
0.0
11
0.274220
21
1.052500
31
0.0
0
LINE
8
RIGHT_HID
6
HIDDEN
10
0.274220
20
1.052500
30
0.0
11
0.324220
21
1.052500
31
0.0
0
LINE
8
RIGHT_HID
6
HIDDEN
10
0.274220
20
1.008750
30
0.0
11
0.324220
21
1.008750
31
0.0
0
LINE
8
RIGHT_HID
6
HIDDEN
10
0.324220
20
1.008750
30
0.0
11
0.292970
21
1.008750
31
0.0
0
LINE
8
RIGHT_HID
6
HIDDEN
10
0.292970
20
1.008750
30
0.0
11
0.355470
21
1.008750
31
0.0
0
LINE
8
RIGHT_HID
6
HIDDEN
10
0.355470
20
1.008750
30
0.0
11
0.324220
21
1.008750
31
0.0
0
LINE
8
RIGHT_HID
6
HIDDEN
10
0.292970
20
0.258750
30
0.0
11
0.355470
21
0.258750
31
0.0
0
LINE
8
TOP
10
0.000000
20
0.050000
30
0.0
11
0.028867
21
0.000000
31
0.0
0
LINE
8
TOP
10
0.028868
20
0.100000
30
0.0
11
0.000000
21
0.050000
31
0.0
0
LINE
8
TOP
10
0.028868
20
0.000000
30
0.0
11
0.086602
21
0.000000
31
0.0
0
LINE
8
TOP
10
0.086602
20
0.000000
30
0.0
11
0.115470
21
0.050000
31
0.0
0
LINE
8
TOP
10
0.115470
20
0.050000
30
0.0
11
0.086603
21
0.100000
31
0.0
0
LINE
8
TOP
10
0.086602
20
0.100000
30
0.0
11
0.028868
21
0.100000
31
0.0
0
LINE
8
TOP_HID
6
HIDDEN
10
0.000000
20
0.050000
30
0.0
11
0.028867
21
0.000000
31
0.0
0
LINE
8
TOP_HID
6
HIDDEN
10
0.028868
20
0.100000
30
0.0
11
0.000000
21
0.050000
31
0.0
0
LINE
8
TOP_HID
6
HIDDEN
10
0.028868
20
0.000000
30
0.0
11
0.086602
21
0.000000
31
0.0
0
LINE
8
TOP_HID
6
HIDDEN
10
0.086602
20
0.000000
30
0.0
11
0.115470
21
0.050000
31
0.0
0
LINE
8
TOP_HID
6
HIDDEN
10
0.115470
20
0.050000
30
0.0
11
0.086603
21
0.100000
31
0.0
0
LINE
8
TOP_HID
6
HIDDEN
10
0.086602
20
0.100000
30
0.0
11
0.028868
21
0.100000
31
0.0
0
LINE
8
TOP_HID
6
HIDDEN
10
0.088985
20
0.050000
30
0.0
11
0.088830
21
0.053111
31
0.0
0
LINE
8
TOP_HID
6
HIDDEN
10
0.088830
20
0.053111
30
0.0
11
0.088365
21
0.056192
31
0.0
0
LINE
8
TOP_HID
6
HIDDEN
10
0.088365
20
0.056192
30
0.0
11
0.087597
21
0.059211
31
0.0
0
LINE
8
TOP_HID
6
HIDDEN
10
0.087597
20
0.059211
30
0.0
11
0.086531
21
0.062139
31
0.0
0
LINE
8
TOP_HID
6
HIDDEN
10
0.086531
20
0.062139
30
0.0
11
0.085179
21
0.064945
31
0.0
0
LINE
8
TOP_HID
6
HIDDEN
10
0.085179
20
0.064945
30
0.0
11
0.083555
21
0.067604
31
0.0
0
LINE
8
TOP_HID
6
HIDDEN
10
0.083555
20
0.067604
30
0.0
11
0.081674
21
0.070087
31
0.0
0
LINE
8
TOP_HID
6
HIDDEN
10
0.081674
20
0.070087
30
0.0
11
0.079555
21
0.072371
31
0.0
0
LINE
8
TOP_HID
6
HIDDEN
10
0.079555
20
0.072371
30
0.0
11
0.077219
21
0.074432
31
0.0
0
LINE
8
TOP_HID
6
HIDDEN
10
0.077219
20
0.074432
30
0.0
11
0.074690
21
0.076251
31
0.0
0
LINE
8
TOP_HID
6
HIDDEN
10
0.074690
20
0.076251
30
0.0
11
0.071992
21
0.077808
31
0.0
0
LINE
8
TOP_HID
6
HIDDEN
10
0.071992
20
0.077808
30
0.0
11
0.069152
21
0.079090
31
0.0
0
LINE
8
TOP_HID
6
HIDDEN
10
0.069152
20
0.079090
30
0.0
11
0.066199
21
0.080082
31
0.0
0
LINE
8
TOP_HID
6
HIDDEN
10
0.066199
20
0.080082
30
0.0
11
0.063162
21
0.080775
31
0.0
0
LINE
8
TOP_HID
6
HIDDEN
10
0.063162
20
0.080775
30
0.0
11
0.060070
21
0.081163
31
0.0
0
LINE
8
TOP_HID
6
HIDDEN
10
0.060070
20
0.081163
30
0.0
11
0.056956
21
0.081240
31
0.0
0
LINE
8
TOP_HID
6
HIDDEN
10
0.056956
20
0.081240
30
0.0
11
0.053849
21
0.081007
31
0.0
0
LINE
8
TOP_HID
6
HIDDEN
10
0.053849
20
0.081007
30
0.0
11
0.050781
21
0.080466
31
0.0
0
LINE
8
TOP_HID
6
HIDDEN
10
0.050781
20
0.080466
30
0.0
11
0.047782
21
0.079623
31
0.0
0
LINE
8
TOP_HID
6
HIDDEN
10
0.047782
20
0.079623
30
0.0
11
0.044882
21
0.078485
31
0.0
0
LINE
8
TOP_HID
6
HIDDEN
10
0.044882
20
0.078485
30
0.0
11
0.042110
21
0.077063
31
0.0
0
LINE
8
TOP_HID
6
HIDDEN
10
0.042110
20
0.077063
30
0.0
11
0.039493
21
0.075373
31
0.0
0
LINE
8
TOP_HID
6
HIDDEN
10
0.039493
20
0.075373
30
0.0
11
0.037057
21
0.073431
31
0.0
0
LINE
8
TOP_HID
6
HIDDEN
10
0.037057
20
0.073431
30
0.0
11
0.034827
21
0.071255
31
0.0
0
LINE
8
TOP_HID
6
HIDDEN
10
0.034827
20
0.071255
30
0.0
11
0.032825
21
0.068869
31
0.0
0
LINE
8
TOP_HID
6
HIDDEN
10
0.032825
20
0.068869
30
0.0
11
0.031070
21
0.066295
31
0.0
0
LINE
8
TOP_HID
6
HIDDEN
10
0.031070
20
0.066295
30
0.0
11
0.029580
21
0.063559
31
0.0
0
LINE
8
TOP_HID
6
HIDDEN
10
0.029580
20
0.063559
30
0.0
11
0.028370
21
0.060688
31
0.0
0
LINE
8
TOP_HID
6
HIDDEN
10
0.028370
20
0.060688
30
0.0
11
0.027451
21
0.057711
31
0.0
0
LINE
8
TOP_HID
6
HIDDEN
10
0.027451
20
0.057711
30
0.0
11
0.026834
21
0.054658
31
0.0
0
LINE
8
TOP_HID
6
HIDDEN
10
0.026834
20
0.054658
30
0.0
11
0.026524
21
0.051558
31
0.0
0
LINE
8
TOP_HID
6
HIDDEN
10
0.026524
20
0.051558
30
0.0
11
0.026524
21
0.048442
31
0.0
0
LINE
8
TOP_HID
6
HIDDEN
10
0.026524
20
0.048442
30
0.0
11
0.026834
21
0.045342
31
0.0
0
LINE
8
TOP_HID
6
HIDDEN
10
0.026834
20
0.045342
30
0.0
11
0.027451
21
0.042289
31
0.0
0
LINE
8
TOP_HID
6
HIDDEN
10
0.027451
20
0.042289
30
0.0
11
0.028370
21
0.039312
31
0.0
0
LINE
8
TOP_HID
6
HIDDEN
10
0.028370
20
0.039312
30
0.0
11
0.029580
21
0.036441
31
0.0
0
LINE
8
TOP_HID
6
HIDDEN
10
0.029580
20
0.036441
30
0.0
11
0.031070
21
0.033705
31
0.0
0
LINE
8
TOP_HID
6
HIDDEN
10
0.031070
20
0.033705
30
0.0
11
0.032825
21
0.031131
31
0.0
0
LINE
8
TOP_HID
6
HIDDEN
10
0.032825
20
0.031131
30
0.0
11
0.034827
21
0.028745
31
0.0
0
LINE
8
TOP_HID
6
HIDDEN
10
0.034827
20
0.028745
30
0.0
11
0.037057
21
0.026569
31
0.0
0
LINE
8
TOP_HID
6
HIDDEN
10
0.037057
20
0.026569
30
0.0
11
0.039493
21
0.024627
31
0.0
0
LINE
8
TOP_HID
6
HIDDEN
10
0.039493
20
0.024627
30
0.0
11
0.042110
21
0.022937
31
0.0
0
LINE
8
TOP_HID
6
HIDDEN
10
0.042110
20
0.022937
30
0.0
11
0.044882
21
0.021515
31
0.0
0
LINE
8
TOP_HID
6
HIDDEN
10
0.044882
20
0.021515
30
0.0
11
0.047782
21
0.020377
31
0.0
0
LINE
8
TOP_HID
6
HIDDEN
10
0.047782
20
0.020377
30
0.0
11
0.050781
21
0.019534
31
0.0
0
LINE
8
TOP_HID
6
HIDDEN
10
0.050781
20
0.019534
30
0.0
11
0.053849
21
0.018993
31
0.0
0
LINE
8
TOP_HID
6
HIDDEN
10
0.053849
20
0.018993
30
0.0
11
0.056956
21
0.018760
31
0.0
0
LINE
8
TOP_HID
6
HIDDEN
10
0.056956
20
0.018760
30
0.0
11
0.060070
21
0.018837
31
0.0
0
LINE
8
TOP_HID
6
HIDDEN
10
0.060070
20
0.018837
30
0.0
11
0.063162
21
0.019225
31
0.0
0
LINE
8
TOP_HID
6
HIDDEN
10
0.063162
20
0.019225
30
0.0
11
0.066199
21
0.019918
31
0.0
0
LINE
8
TOP_HID
6
HIDDEN
10
0.066199
20
0.019918
30
0.0
11
0.069152
21
0.020910
31
0.0
0
LINE
8
TOP_HID
6
HIDDEN
10
0.069152
20
0.020910
30
0.0
11
0.071992
21
0.022192
31
0.0
0
LINE
8
TOP_HID
6
HIDDEN
10
0.071992
20
0.022192
30
0.0
11
0.074690
21
0.023749
31
0.0
0
LINE
8
TOP_HID
6
HIDDEN
10
0.074690
20
0.023749
30
0.0
11
0.077219
21
0.025568
31
0.0
0
LINE
8
TOP_HID
6
HIDDEN
10
0.077219
20
0.025568
30
0.0
11
0.079555
21
0.027629
31
0.0
0
LINE
8
TOP_HID
6
HIDDEN
10
0.079555
20
0.027629
30
0.0
11
0.081674
21
0.029913
31
0.0
0
LINE
8
TOP_HID
6
HIDDEN
10
0.081674
20
0.029913
30
0.0
11
0.083555
21
0.032396
31
0.0
0
LINE
8
TOP_HID
6
HIDDEN
10
0.083555
20
0.032396
30
0.0
11
0.085179
21
0.035055
31
0.0
0
LINE
8
TOP_HID
6
HIDDEN
10
0.085179
20
0.035055
30
0.0
11
0.086531
21
0.037861
31
0.0
0
LINE
8
TOP_HID
6
HIDDEN
10
0.086531
20
0.037861
30
0.0
11
0.087597
21
0.040789
31
0.0
0
LINE
8
TOP_HID
6
HIDDEN
10
0.087597
20
0.040789
30
0.0
11
0.088365
21
0.043808
31
0.0
0
LINE
8
TOP_HID
6
HIDDEN
10
0.088365
20
0.043808
30
0.0
11
0.088830
21
0.046889
31
0.0
0
LINE
8
TOP_HID
6
HIDDEN
10
0.088830
20
0.046889
30
0.0
11
0.088985
21
0.050000
31
0.0
0
LINE
8
TOP_HID
6
HIDDEN
10
0.088985
20
0.050000
30
0.0
11
0.088830
21
0.053111
31
0.0
0
LINE
8
TOP_HID
6
HIDDEN
10
0.088830
20
0.053111
30
0.0
11
0.088365
21
0.056192
31
0.0
0
LINE
8
TOP_HID
6
HIDDEN
10
0.088365
20
0.056192
30
0.0
11
0.087597
21
0.059211
31
0.0
0
LINE
8
TOP_HID
6
HIDDEN
10
0.087597
20
0.059211
30
0.0
11
0.086531
21
0.062139
31
0.0
0
LINE
8
TOP_HID
6
HIDDEN
10
0.086531
20
0.062139
30
0.0
11
0.085179
21
0.064945
31
0.0
0
LINE
8
TOP_HID
6
HIDDEN
10
0.085179
20
0.064945
30
0.0
11
0.083555
21
0.067604
31
0.0
0
LINE
8
TOP_HID
6
HIDDEN
10
0.083555
20
0.067604
30
0.0
11
0.081674
21
0.070087
31
0.0
0
LINE
8
TOP_HID
6
HIDDEN
10
0.081674
20
0.070087
30
0.0
11
0.079555
21
0.072371
31
0.0
0
LINE
8
TOP_HID
6
HIDDEN
10
0.079555
20
0.072371
30
0.0
11
0.077219
21
0.074432
31
0.0
0
LINE
8
TOP_HID
6
HIDDEN
10
0.077219
20
0.074432
30
0.0
11
0.074690
21
0.076251
31
0.0
0
LINE
8
TOP_HID
6
HIDDEN
10
0.074690
20
0.076251
30
0.0
11
0.071992
21
0.077808
31
0.0
0
LINE
8
TOP_HID
6
HIDDEN
10
0.071992
20
0.077808
30
0.0
11
0.069152
21
0.079090
31
0.0
0
LINE
8
TOP_HID
6
HIDDEN
10
0.069152
20
0.079090
30
0.0
11
0.066199
21
0.080082
31
0.0
0
LINE
8
TOP_HID
6
HIDDEN
10
0.066199
20
0.080082
30
0.0
11
0.063162
21
0.080775
31
0.0
0
LINE
8
TOP_HID
6
HIDDEN
10
0.063162
20
0.080775
30
0.0
11
0.060070
21
0.081163
31
0.0
0
LINE
8
TOP_HID
6
HIDDEN
10
0.060070
20
0.081163
30
0.0
11
0.056956
21
0.081240
31
0.0
0
LINE
8
TOP_HID
6
HIDDEN
10
0.056956
20
0.081240
30
0.0
11
0.053849
21
0.081007
31
0.0
0
LINE
8
TOP_HID
6
HIDDEN
10
0.053849
20
0.081007
30
0.0
11
0.050781
21
0.080466
31
0.0
0
LINE
8
TOP_HID
6
HIDDEN
10
0.050781
20
0.080466
30
0.0
11
0.047782
21
0.079623
31
0.0
0
LINE
8
TOP_HID
6
HIDDEN
10
0.047782
20
0.079623
30
0.0
11
0.044882
21
0.078485
31
0.0
0
LINE
8
TOP_HID
6
HIDDEN
10
0.044882
20
0.078485
30
0.0
11
0.042110
21
0.077063
31
0.0
0
LINE
8
TOP_HID
6
HIDDEN
10
0.042110
20
0.077063
30
0.0
11
0.039493
21
0.075373
31
0.0
0
LINE
8
TOP_HID
6
HIDDEN
10
0.039493
20
0.075373
30
0.0
11
0.037057
21
0.073431
31
0.0
0
LINE
8
TOP_HID
6
HIDDEN
10
0.037057
20
0.073431
30
0.0
11
0.034827
21
0.071255
31
0.0
0
LINE
8
TOP_HID
6
HIDDEN
10
0.034827
20
0.071255
30
0.0
11
0.032825
21
0.068869
31
0.0
0
LINE
8
TOP_HID
6
HIDDEN
10
0.032825
20
0.068869
30
0.0
11
0.031070
21
0.066295
31
0.0
0
LINE
8
TOP_HID
6
HIDDEN
10
0.031070
20
0.066295
30
0.0
11
0.029580
21
0.063559
31
0.0
0
LINE
8
TOP_HID
6
HIDDEN
10
0.029580
20
0.063559
30
0.0
11
0.028370
21
0.060688
31
0.0
0
LINE
8
TOP_HID
6
HIDDEN
10
0.028370
20
0.060688
30
0.0
11
0.027451
21
0.057711
31
0.0
0
LINE
8
TOP_HID
6
HIDDEN
10
0.027451
20
0.057711
30
0.0
11
0.026834
21
0.054658
31
0.0
0
LINE
8
TOP_HID
6
HIDDEN
10
0.026834
20
0.054658
30
0.0
11
0.026524
21
0.051558
31
0.0
0
LINE
8
TOP_HID
6
HIDDEN
10
0.026524
20
0.051558
30
0.0
11
0.026524
21
0.048442
31
0.0
0
LINE
8
TOP_HID
6
HIDDEN
10
0.026524
20
0.048442
30
0.0
11
0.026834
21
0.045342
31
0.0
0
LINE
8
TOP_HID
6
HIDDEN
10
0.026834
20
0.045342
30
0.0
11
0.027451
21
0.042289
31
0.0
0
LINE
8
TOP_HID
6
HIDDEN
10
0.027451
20
0.042289
30
0.0
11
0.028370
21
0.039312
31
0.0
0
LINE
8
TOP_HID
6
HIDDEN
10
0.028370
20
0.039312
30
0.0
11
0.029580
21
0.036441
31
0.0
0
LINE
8
TOP_HID
6
HIDDEN
10
0.029580
20
0.036441
30
0.0
11
0.031070
21
0.033705
31
0.0
0
LINE
8
TOP_HID
6
HIDDEN
10
0.031070
20
0.033705
30
0.0
11
0.032825
21
0.031131
31
0.0
0
LINE
8
TOP_HID
6
HIDDEN
10
0.032825
20
0.031131
30
0.0
11
0.034827
21
0.028745
31
0.0
0
LINE
8
TOP_HID
6
HIDDEN
10
0.034827
20
0.028745
30
0.0
11
0.037057
21
0.026569
31
0.0
0
LINE
8
TOP_HID
6
HIDDEN
10
0.037057
20
0.026569
30
0.0
11
0.039493
21
0.024627
31
0.0
0
LINE
8
TOP_HID
6
HIDDEN
10
0.039493
20
0.024627
30
0.0
11
0.042110
21
0.022937
31
0.0
0
LINE
8
TOP_HID
6
HIDDEN
10
0.042110
20
0.022937
30
0.0
11
0.044882
21
0.021515
31
0.0
0
LINE
8
TOP_HID
6
HIDDEN
10
0.044882
20
0.021515
30
0.0
11
0.047782
21
0.020377
31
0.0
0
LINE
8
TOP_HID
6
HIDDEN
10
0.047782
20
0.020377
30
0.0
11
0.050781
21
0.019534
31
0.0
0
LINE
8
TOP_HID
6
HIDDEN
10
0.050781
20
0.019534
30
0.0
11
0.053849
21
0.018993
31
0.0
0
LINE
8
TOP_HID
6
HIDDEN
10
0.053849
20
0.018993
30
0.0
11
0.056956
21
0.018760
31
0.0
0
LINE
8
TOP_HID
6
HIDDEN
10
0.056956
20
0.018760
30
0.0
11
0.060070
21
0.018837
31
0.0
0
LINE
8
TOP_HID
6
HIDDEN
10
0.060070
20
0.018837
30
0.0
11
0.063162
21
0.019225
31
0.0
0
LINE
8
TOP_HID
6
HIDDEN
10
0.063162
20
0.019225
30
0.0
11
0.066199
21
0.019918
31
0.0
0
LINE
8
TOP_HID
6
HIDDEN
10
0.066199
20
0.019918
30
0.0
11
0.069152
21
0.020910
31
0.0
0
LINE
8
TOP_HID
6
HIDDEN
10
0.069152
20
0.020910
30
0.0
11
0.071992
21
0.022192
31
0.0
0
LINE
8
TOP_HID
6
HIDDEN
10
0.071992
20
0.022192
30
0.0
11
0.074690
21
0.023749
31
0.0
0
LINE
8
TOP_HID
6
HIDDEN
10
0.074690
20
0.023749
30
0.0
11
0.077219
21
0.025568
31
0.0
0
LINE
8
TOP_HID
6
HIDDEN
10
0.077219
20
0.025568
30
0.0
11
0.079555
21
0.027629
31
0.0
0
LINE
8
TOP_HID
6
HIDDEN
10
0.079555
20
0.027629
30
0.0
11
0.081674
21
0.029913
31
0.0
0
LINE
8
TOP_HID
6
HIDDEN
10
0.081674
20
0.029913
30
0.0
11
0.083555
21
0.032396
31
0.0
0
LINE
8
TOP_HID
6
HIDDEN
10
0.083555
20
0.032396
30
0.0
11
0.085179
21
0.035055
31
0.0
0
LINE
8
TOP_HID
6
HIDDEN
10
0.085179
20
0.035055
30
0.0
11
0.086531
21
0.037861
31
0.0
0
LINE
8
TOP_HID
6
HIDDEN
10
0.086531
20
0.037861
30
0.0
11
0.087597
21
0.040789
31
0.0
0
LINE
8
TOP_HID
6
HIDDEN
10
0.087597
20
0.040789
30
0.0
11
0.088365
21
0.043808
31
0.0
0
LINE
8
TOP_HID
6
HIDDEN
10
0.088365
20
0.043808
30
0.0
11
0.088830
21
0.046889
31
0.0
0
LINE
8
TOP_HID
6
HIDDEN
10
0.088830
20
0.046889
30
0.0
11
0.088985
21
0.050000
31
0.0
0
ENDSEC
0
EOF
