0
SECTION
2
HEADER
9
$ACADVER
1
AC1009
0
ENDSEC
0
SECTION
2
TABLES
0
TABLE
2
LTYPE
70
3
0
LTYPE
2
CONTINUOUS
70
0
3
Solid line
72
65
73
0
40
0.0
0
LTYPE
2
HIDDEN
70
0
3
__ __ __ __ __
72
65
73
2
40
9.0
49
6.0
49
-3.0
0
LTYPE
2
CENTER
70
0
3
___ _ ___ _ ___
72
65
73
4
40
21.0
49
12.0
49
-3.0
49
3.0
49
-3.0
0
ENDTAB
0
TABLE
2
LAYER
70
7
0
LAYER
2
0
70
0
62
7
6
CONTINUOUS
0
LAYER
2
FRONT
70
0
62
7
6
CONTINUOUS
0
LAYER
2
FRONT_HID
70
0
62
7
6
HIDDEN
0
LAYER
2
RIGHT
70
0
62
7
6
CONTINUOUS
0
LAYER
2
RIGHT_HID
70
0
62
7
6
HIDDEN
0
LAYER
2
TOP
70
0
62
7
6
CONTINUOUS
0
LAYER
2
TOP_HID
70
0
62
7
6
HIDDEN
0
ENDTAB
0
ENDSEC
0
SECTION
2
ENTITIES
0
LINE
8
FRONT
10
0.000000
20
0.300629
30
0.0
11
0.420705
21
0.300629
31
0.0
0
LINE
8
FRONT
10
0.000000
20
0.840277
30
0.0
11
0.000000
21
0.300629
31
0.0
0
LINE
8
FRONT
10
0.420705
20
0.300629
30
0.0
11
0.420705
21
0.840277
31
0.0
0
LINE
8
FRONT
10
0.420705
20
0.840277
30
0.0
11
0.420691
21
0.837827
31
0.0
0
LINE
8
FRONT
10
0.420691
20
0.837827
30
0.0
11
0.420648
21
0.835378
31
0.0
0
LINE
8
FRONT
10
0.420648
20
0.835378
30
0.0
11
0.420576
21
0.832929
31
0.0
0
LINE
8
FRONT
10
0.420576
20
0.832929
30
0.0
11
0.420477
21
0.830481
31
0.0
0
LINE
8
FRONT
10
0.420477
20
0.830481
30
0.0
11
0.420348
21
0.828035
31
0.0
0
LINE
8
FRONT
10
0.420348
20
0.828035
30
0.0
11
0.420192
21
0.825590
31
0.0
0
LINE
8
FRONT
10
0.420192
20
0.825590
30
0.0
11
0.420006
21
0.823148
31
0.0
0
LINE
8
FRONT
10
0.420006
20
0.823148
30
0.0
11
0.419793
21
0.820707
31
0.0
0
LINE
8
FRONT
10
0.419793
20
0.820707
30
0.0
11
0.419550
21
0.818269
31
0.0
0
LINE
8
FRONT
10
0.419550
20
0.818269
30
0.0
11
0.419280
21
0.815835
31
0.0
0
LINE
8
FRONT
10
0.419280
20
0.815835
30
0.0
11
0.418981
21
0.813403
31
0.0
0
LINE
8
FRONT
10
0.418981
20
0.813403
30
0.0
11
0.418654
21
0.810976
31
0.0
0
LINE
8
FRONT
10
0.418654
20
0.810976
30
0.0
11
0.418299
21
0.808552
31
0.0
0
LINE
8
FRONT
10
0.418299
20
0.808552
30
0.0
11
0.417915
21
0.806132
31
0.0
0
LINE
8
FRONT
10
0.417915
20
0.806132
30
0.0
11
0.417503
21
0.803717
31
0.0
0
LINE
8
FRONT
10
0.417503
20
0.803717
30
0.0
11
0.417064
21
0.801307
31
0.0
0
LINE
8
FRONT
10
0.417064
20
0.801307
30
0.0
11
0.416596
21
0.798903
31
0.0
0
LINE
8
FRONT
10
0.416596
20
0.798903
30
0.0
11
0.416100
21
0.796504
31
0.0
0
LINE
8
FRONT
10
0.416100
20
0.796504
30
0.0
11
0.415576
21
0.794111
31
0.0
0
LINE
8
FRONT
10
0.415576
20
0.794111
30
0.0
11
0.415025
21
0.791724
31
0.0
0
LINE
8
FRONT
10
0.415025
20
0.791724
30
0.0
11
0.414445
21
0.789344
31
0.0
0
LINE
8
FRONT
10
0.414445
20
0.789344
30
0.0
11
0.413838
21
0.786970
31
0.0
0
LINE
8
FRONT
10
0.413838
20
0.786970
30
0.0
11
0.413204
21
0.784604
31
0.0
0
LINE
8
FRONT
10
0.413204
20
0.784604
30
0.0
11
0.412542
21
0.782246
31
0.0
0
LINE
8
FRONT
10
0.412542
20
0.782246
30
0.0
11
0.411852
21
0.779895
31
0.0
0
LINE
8
FRONT
10
0.411852
20
0.779895
30
0.0
11
0.411135
21
0.777552
31
0.0
0
LINE
8
FRONT
10
0.411135
20
0.777552
30
0.0
11
0.410391
21
0.775218
31
0.0
0
LINE
8
FRONT
10
0.410391
20
0.775218
30
0.0
11
0.409620
21
0.772893
31
0.0
0
LINE
8
FRONT
10
0.409620
20
0.772893
30
0.0
11
0.408822
21
0.770577
31
0.0
0
LINE
8
FRONT
10
0.408822
20
0.770577
30
0.0
11
0.407997
21
0.768271
31
0.0
0
LINE
8
FRONT
10
0.407997
20
0.768271
30
0.0
11
0.407145
21
0.765974
31
0.0
0
LINE
8
FRONT
10
0.407145
20
0.765974
30
0.0
11
0.406266
21
0.763687
31
0.0
0
LINE
8
FRONT
10
0.406266
20
0.763687
30
0.0
11
0.405361
21
0.761411
31
0.0
0
LINE
8
FRONT
10
0.405361
20
0.761411
30
0.0
11
0.404429
21
0.759145
31
0.0
0
LINE
8
FRONT
10
0.404429
20
0.759145
30
0.0
11
0.403471
21
0.756890
31
0.0
0
LINE
8
FRONT
10
0.403471
20
0.756890
30
0.0
11
0.402487
21
0.754647
31
0.0
0
LINE
8
FRONT
10
0.402487
20
0.754647
30
0.0
11
0.401477
21
0.752415
31
0.0
0
LINE
8
FRONT
10
0.401477
20
0.752415
30
0.0
11
0.400441
21
0.750196
31
0.0
0
LINE
8
FRONT
10
0.400441
20
0.750196
30
0.0
11
0.399379
21
0.747988
31
0.0
0
LINE
8
FRONT
10
0.399379
20
0.747988
30
0.0
11
0.398291
21
0.745793
31
0.0
0
LINE
8
FRONT
10
0.398291
20
0.745793
30
0.0
11
0.397178
21
0.743611
31
0.0
0
LINE
8
FRONT
10
0.397178
20
0.743611
30
0.0
11
0.396040
21
0.741441
31
0.0
0
LINE
8
FRONT
10
0.396040
20
0.741441
30
0.0
11
0.394876
21
0.739286
31
0.0
0
LINE
8
FRONT
10
0.394876
20
0.739286
30
0.0
11
0.393687
21
0.737144
31
0.0
0
LINE
8
FRONT
10
0.393687
20
0.737144
30
0.0
11
0.392474
21
0.735016
31
0.0
0
LINE
8
FRONT
10
0.392474
20
0.735016
30
0.0
11
0.391236
21
0.732902
31
0.0
0
LINE
8
FRONT
10
0.391236
20
0.732902
30
0.0
11
0.389973
21
0.730803
31
0.0
0
LINE
8
FRONT
10
0.389973
20
0.730803
30
0.0
11
0.388686
21
0.728718
31
0.0
0
LINE
8
FRONT
10
0.388686
20
0.728718
30
0.0
11
0.387375
21
0.726649
31
0.0
0
LINE
8
FRONT
10
0.387375
20
0.726649
30
0.0
11
0.386039
21
0.724595
31
0.0
0
LINE
8
FRONT
10
0.386039
20
0.724595
30
0.0
11
0.384680
21
0.722557
31
0.0
0
LINE
8
FRONT
10
0.384680
20
0.722557
30
0.0
11
0.383297
21
0.720535
31
0.0
0
LINE
8
FRONT
10
0.383297
20
0.720535
30
0.0
11
0.381891
21
0.718529
31
0.0
0
LINE
8
FRONT
10
0.381891
20
0.718529
30
0.0
11
0.380462
21
0.716540
31
0.0
0
LINE
8
FRONT
10
0.380462
20
0.716540
30
0.0
11
0.379009
21
0.714567
31
0.0
0
LINE
8
FRONT
10
0.379009
20
0.714567
30
0.0
11
0.377534
21
0.712611
31
0.0
0
LINE
8
FRONT
10
0.377534
20
0.712611
30
0.0
11
0.376036
21
0.710673
31
0.0
0
LINE
8
FRONT
10
0.376036
20
0.710673
30
0.0
11
0.374515
21
0.708752
31
0.0
0
LINE
8
FRONT
10
0.374515
20
0.708752
30
0.0
11
0.372972
21
0.706849
31
0.0
0
LINE
8
FRONT
10
0.372972
20
0.706849
30
0.0
11
0.371408
21
0.704965
31
0.0
0
LINE
8
FRONT
10
0.371408
20
0.704965
30
0.0
11
0.369821
21
0.703098
31
0.0
0
LINE
8
FRONT
10
0.369821
20
0.703098
30
0.0
11
0.368212
21
0.701250
31
0.0
0
LINE
8
FRONT
10
0.368212
20
0.701250
30
0.0
11
0.366583
21
0.699422
31
0.0
0
LINE
8
FRONT
10
0.366583
20
0.699422
30
0.0
11
0.362785
21
0.695320
31
0.0
0
LINE
8
FRONT
10
0.362785
20
0.695320
30
0.0
11
0.358879
21
0.691321
31
0.0
0
LINE
8
FRONT
10
0.358879
20
0.691321
30
0.0
11
0.354869
21
0.687427
31
0.0
0
LINE
8
FRONT
10
0.354869
20
0.687427
30
0.0
11
0.350756
21
0.683641
31
0.0
0
LINE
8
FRONT
10
0.350756
20
0.683641
30
0.0
11
0.346545
21
0.679965
31
0.0
0
LINE
8
FRONT
10
0.346545
20
0.679965
30
0.0
11
0.342237
21
0.676403
31
0.0
0
LINE
8
FRONT
10
0.342237
20
0.676403
30
0.0
11
0.337836
21
0.672956
31
0.0
0
LINE
8
FRONT
10
0.337836
20
0.672956
30
0.0
11
0.333345
21
0.669628
31
0.0
0
LINE
8
FRONT
10
0.333345
20
0.669628
30
0.0
11
0.328767
21
0.666420
31
0.0
0
LINE
8
FRONT
10
0.328767
20
0.666420
30
0.0
11
0.324106
21
0.663335
31
0.0
0
LINE
8
FRONT
10
0.324106
20
0.663335
30
0.0
11
0.319364
21
0.660375
31
0.0
0
LINE
8
FRONT
10
0.319364
20
0.660375
30
0.0
11
0.314545
21
0.657542
31
0.0
0
LINE
8
FRONT
10
0.314545
20
0.657542
30
0.0
11
0.309653
21
0.654838
31
0.0
0
LINE
8
FRONT
10
0.309653
20
0.654838
30
0.0
11
0.304690
21
0.652265
31
0.0
0
LINE
8
FRONT
10
0.304690
20
0.652265
30
0.0
11
0.299661
21
0.649824
31
0.0
0
LINE
8
FRONT
10
0.299661
20
0.649824
30
0.0
11
0.294569
21
0.647519
31
0.0
0
LINE
8
FRONT
10
0.294569
20
0.647519
30
0.0
11
0.289417
21
0.645349
31
0.0
0
LINE
8
FRONT
10
0.289417
20
0.645349
30
0.0
11
0.284210
21
0.643317
31
0.0
0
LINE
8
FRONT
10
0.284210
20
0.643317
30
0.0
11
0.278950
21
0.641424
31
0.0
0
LINE
8
FRONT
10
0.278950
20
0.641424
30
0.0
11
0.273642
21
0.639671
31
0.0
0
LINE
8
FRONT
10
0.273642
20
0.639671
30
0.0
11
0.268289
21
0.638060
31
0.0
0
LINE
8
FRONT
10
0.268289
20
0.638060
30
0.0
11
0.262896
21
0.636592
31
0.0
0
LINE
8
FRONT
10
0.262896
20
0.636592
30
0.0
11
0.257465
21
0.635268
31
0.0
0
LINE
8
FRONT
10
0.257465
20
0.635268
30
0.0
11
0.252001
21
0.634089
31
0.0
0
LINE
8
FRONT
10
0.252001
20
0.634089
30
0.0
11
0.246507
21
0.633055
31
0.0
0
LINE
8
FRONT
10
0.246507
20
0.633055
30
0.0
11
0.240988
21
0.632167
31
0.0
0
LINE
8
FRONT
10
0.240988
20
0.632167
30
0.0
11
0.235448
21
0.631427
31
0.0
0
LINE
8
FRONT
10
0.235448
20
0.631427
30
0.0
11
0.229889
21
0.630834
31
0.0
0
LINE
8
FRONT
10
0.229889
20
0.630834
30
0.0
11
0.224317
21
0.630388
31
0.0
0
LINE
8
FRONT
10
0.224317
20
0.630388
30
0.0
11
0.218735
21
0.630092
31
0.0
0
LINE
8
FRONT
10
0.218735
20
0.630092
30
0.0
11
0.213147
21
0.629943
31
0.0
0
LINE
8
FRONT
10
0.213147
20
0.629943
30
0.0
11
0.207557
21
0.629943
31
0.0
0
LINE
8
FRONT
10
0.207557
20
0.629943
30
0.0
11
0.201970
21
0.630092
31
0.0
0
LINE
8
FRONT
10
0.201970
20
0.630092
30
0.0
11
0.196388
21
0.630388
31
0.0
0
LINE
8
FRONT
10
0.196388
20
0.630388
30
0.0
11
0.190815
21
0.630834
31
0.0
0
LINE
8
FRONT
10
0.190815
20
0.630834
30
0.0
11
0.185257
21
0.631427
31
0.0
0
LINE
8
FRONT
10
0.185257
20
0.631427
30
0.0
11
0.179716
21
0.632167
31
0.0
0
LINE
8
FRONT
10
0.179716
20
0.632167
30
0.0
11
0.174197
21
0.633055
31
0.0
0
LINE
8
FRONT
10
0.174197
20
0.633055
30
0.0
11
0.168704
21
0.634089
31
0.0
0
LINE
8
FRONT
10
0.168704
20
0.634089
30
0.0
11
0.163240
21
0.635268
31
0.0
0
LINE
8
FRONT
10
0.163240
20
0.635268
30
0.0
11
0.157809
21
0.636592
31
0.0
0
LINE
8
FRONT
10
0.157809
20
0.636592
30
0.0
11
0.152415
21
0.638060
31
0.0
0
LINE
8
FRONT
10
0.152415
20
0.638060
30
0.0
11
0.147063
21
0.639671
31
0.0
0
LINE
8
FRONT
10
0.147063
20
0.639671
30
0.0
11
0.141755
21
0.641424
31
0.0
0
LINE
8
FRONT
10
0.141755
20
0.641424
30
0.0
11
0.136495
21
0.643317
31
0.0
0
LINE
8
FRONT
10
0.136495
20
0.643317
30
0.0
11
0.131288
21
0.645349
31
0.0
0
LINE
8
FRONT
10
0.131288
20
0.645349
30
0.0
11
0.126136
21
0.647519
31
0.0
0
LINE
8
FRONT
10
0.126136
20
0.647519
30
0.0
11
0.121044
21
0.649824
31
0.0
0
LINE
8
FRONT
10
0.121044
20
0.649824
30
0.0
11
0.116015
21
0.652265
31
0.0
0
LINE
8
FRONT
10
0.116015
20
0.652265
30
0.0
11
0.111052
21
0.654838
31
0.0
0
LINE
8
FRONT
10
0.111052
20
0.654838
30
0.0
11
0.106160
21
0.657542
31
0.0
0
LINE
8
FRONT
10
0.106160
20
0.657542
30
0.0
11
0.101341
21
0.660375
31
0.0
0
LINE
8
FRONT
10
0.101341
20
0.660375
30
0.0
11
0.096599
21
0.663335
31
0.0
0
LINE
8
FRONT
10
0.096599
20
0.663335
30
0.0
11
0.091938
21
0.666420
31
0.0
0
LINE
8
FRONT
10
0.091938
20
0.666420
30
0.0
11
0.087360
21
0.669628
31
0.0
0
LINE
8
FRONT
10
0.087360
20
0.669628
30
0.0
11
0.082869
21
0.672956
31
0.0
0
LINE
8
FRONT
10
0.082869
20
0.672956
30
0.0
11
0.078468
21
0.676403
31
0.0
0
LINE
8
FRONT
10
0.078468
20
0.676403
30
0.0
11
0.074160
21
0.679965
31
0.0
0
LINE
8
FRONT
10
0.074160
20
0.679965
30
0.0
11
0.069949
21
0.683641
31
0.0
0
LINE
8
FRONT
10
0.069949
20
0.683641
30
0.0
11
0.065836
21
0.687427
31
0.0
0
LINE
8
FRONT
10
0.065836
20
0.687427
30
0.0
11
0.061826
21
0.691321
31
0.0
0
LINE
8
FRONT
10
0.061826
20
0.691321
30
0.0
11
0.057920
21
0.695320
31
0.0
0
LINE
8
FRONT
10
0.057920
20
0.695320
30
0.0
11
0.054122
21
0.699422
31
0.0
0
LINE
8
FRONT
10
0.054122
20
0.699422
30
0.0
11
0.052492
21
0.701250
31
0.0
0
LINE
8
FRONT
10
0.052492
20
0.701250
30
0.0
11
0.050884
21
0.703098
31
0.0
0
LINE
8
FRONT
10
0.050884
20
0.703098
30
0.0
11
0.049297
21
0.704965
31
0.0
0
LINE
8
FRONT
10
0.049297
20
0.704965
30
0.0
11
0.047732
21
0.706849
31
0.0
0
LINE
8
FRONT
10
0.047732
20
0.706849
30
0.0
11
0.046190
21
0.708752
31
0.0
0
LINE
8
FRONT
10
0.046190
20
0.708752
30
0.0
11
0.044669
21
0.710673
31
0.0
0
LINE
8
FRONT
10
0.044669
20
0.710673
30
0.0
11
0.043171
21
0.712611
31
0.0
0
LINE
8
FRONT
10
0.043171
20
0.712611
30
0.0
11
0.041696
21
0.714567
31
0.0
0
LINE
8
FRONT
10
0.041696
20
0.714567
30
0.0
11
0.040243
21
0.716540
31
0.0
0
LINE
8
FRONT
10
0.040243
20
0.716540
30
0.0
11
0.038814
21
0.718529
31
0.0
0
LINE
8
FRONT
10
0.038814
20
0.718529
30
0.0
11
0.037407
21
0.720535
31
0.0
0
LINE
8
FRONT
10
0.037407
20
0.720535
30
0.0
11
0.036025
21
0.722557
31
0.0
0
LINE
8
FRONT
10
0.036025
20
0.722557
30
0.0
11
0.034665
21
0.724595
31
0.0
0
LINE
8
FRONT
10
0.034665
20
0.724595
30
0.0
11
0.033330
21
0.726649
31
0.0
0
LINE
8
FRONT
10
0.033330
20
0.726649
30
0.0
11
0.032019
21
0.728718
31
0.0
0
LINE
8
FRONT
10
0.032019
20
0.728718
30
0.0
11
0.030732
21
0.730803
31
0.0
0
LINE
8
FRONT
10
0.030732
20
0.730803
30
0.0
11
0.029469
21
0.732902
31
0.0
0
LINE
8
FRONT
10
0.029469
20
0.732902
30
0.0
11
0.028231
21
0.735016
31
0.0
0
LINE
8
FRONT
10
0.028231
20
0.735016
30
0.0
11
0.027017
21
0.737144
31
0.0
0
LINE
8
FRONT
10
0.027017
20
0.737144
30
0.0
11
0.025829
21
0.739286
31
0.0
0
LINE
8
FRONT
10
0.025829
20
0.739286
30
0.0
11
0.024665
21
0.741441
31
0.0
0
LINE
8
FRONT
10
0.024665
20
0.741441
30
0.0
11
0.023527
21
0.743611
31
0.0
0
LINE
8
FRONT
10
0.023527
20
0.743611
30
0.0
11
0.022414
21
0.745793
31
0.0
0
LINE
8
FRONT
10
0.022414
20
0.745793
30
0.0
11
0.021326
21
0.747988
31
0.0
0
LINE
8
FRONT
10
0.021326
20
0.747988
30
0.0
11
0.020264
21
0.750196
31
0.0
0
LINE
8
FRONT
10
0.020264
20
0.750196
30
0.0
11
0.019228
21
0.752415
31
0.0
0
LINE
8
FRONT
10
0.019228
20
0.752415
30
0.0
11
0.018218
21
0.754647
31
0.0
0
LINE
8
FRONT
10
0.018218
20
0.754647
30
0.0
11
0.017234
21
0.756890
31
0.0
0
LINE
8
FRONT
10
0.017234
20
0.756890
30
0.0
11
0.016276
21
0.759145
31
0.0
0
LINE
8
FRONT
10
0.016276
20
0.759145
30
0.0
11
0.015344
21
0.761411
31
0.0
0
LINE
8
FRONT
10
0.015344
20
0.761411
30
0.0
11
0.014439
21
0.763687
31
0.0
0
LINE
8
FRONT
10
0.014439
20
0.763687
30
0.0
11
0.013560
21
0.765974
31
0.0
0
LINE
8
FRONT
10
0.013560
20
0.765974
30
0.0
11
0.012708
21
0.768271
31
0.0
0
LINE
8
FRONT
10
0.012708
20
0.768271
30
0.0
11
0.011883
21
0.770577
31
0.0
0
LINE
8
FRONT
10
0.011883
20
0.770577
30
0.0
11
0.011085
21
0.772893
31
0.0
0
LINE
8
FRONT
10
0.011085
20
0.772893
30
0.0
11
0.010314
21
0.775218
31
0.0
0
LINE
8
FRONT
10
0.010314
20
0.775218
30
0.0
11
0.009570
21
0.777552
31
0.0
0
LINE
8
FRONT
10
0.009570
20
0.777552
30
0.0
11
0.008853
21
0.779895
31
0.0
0
LINE
8
FRONT
10
0.008853
20
0.779895
30
0.0
11
0.008163
21
0.782246
31
0.0
0
LINE
8
FRONT
10
0.008163
20
0.782246
30
0.0
11
0.007501
21
0.784604
31
0.0
0
LINE
8
FRONT
10
0.007501
20
0.784604
30
0.0
11
0.006866
21
0.786970
31
0.0
0
LINE
8
FRONT
10
0.006866
20
0.786970
30
0.0
11
0.006259
21
0.789344
31
0.0
0
LINE
8
FRONT
10
0.006259
20
0.789344
30
0.0
11
0.005680
21
0.791724
31
0.0
0
LINE
8
FRONT
10
0.005680
20
0.791724
30
0.0
11
0.005129
21
0.794111
31
0.0
0
LINE
8
FRONT
10
0.005129
20
0.794111
30
0.0
11
0.004605
21
0.796504
31
0.0
0
LINE
8
FRONT
10
0.004605
20
0.796504
30
0.0
11
0.004109
21
0.798903
31
0.0
0
LINE
8
FRONT
10
0.004109
20
0.798903
30
0.0
11
0.003641
21
0.801307
31
0.0
0
LINE
8
FRONT
10
0.003641
20
0.801307
30
0.0
11
0.003201
21
0.803717
31
0.0
0
LINE
8
FRONT
10
0.003201
20
0.803717
30
0.0
11
0.002790
21
0.806132
31
0.0
0
LINE
8
FRONT
10
0.002790
20
0.806132
30
0.0
11
0.002406
21
0.808552
31
0.0
0
LINE
8
FRONT
10
0.002406
20
0.808552
30
0.0
11
0.002051
21
0.810976
31
0.0
0
LINE
8
FRONT
10
0.002051
20
0.810976
30
0.0
11
0.001724
21
0.813403
31
0.0
0
LINE
8
FRONT
10
0.001724
20
0.813403
30
0.0
11
0.001425
21
0.815835
31
0.0
0
LINE
8
FRONT
10
0.001425
20
0.815835
30
0.0
11
0.001154
21
0.818269
31
0.0
0
LINE
8
FRONT
10
0.001154
20
0.818269
30
0.0
11
0.000912
21
0.820707
31
0.0
0
LINE
8
FRONT
10
0.000912
20
0.820707
30
0.0
11
0.000699
21
0.823148
31
0.0
0
LINE
8
FRONT
10
0.000699
20
0.823148
30
0.0
11
0.000513
21
0.825590
31
0.0
0
LINE
8
FRONT
10
0.000513
20
0.825590
30
0.0
11
0.000357
21
0.828035
31
0.0
0
LINE
8
FRONT
10
0.000357
20
0.828035
30
0.0
11
0.000228
21
0.830481
31
0.0
0
LINE
8
FRONT
10
0.000228
20
0.830481
30
0.0
11
0.000128
21
0.832929
31
0.0
0
LINE
8
FRONT
10
0.000128
20
0.832929
30
0.0
11
0.000057
21
0.835378
31
0.0
0
LINE
8
FRONT
10
0.000057
20
0.835378
30
0.0
11
0.000014
21
0.837827
31
0.0
0
LINE
8
FRONT
10
0.000014
20
0.837827
30
0.0
11
0.000000
21
0.840277
31
0.0
0
LINE
8
FRONT
10
0.054122
20
0.699422
30
0.0
11
0.054122
21
0.354751
31
0.0
0
LINE
8
FRONT
10
0.054122
20
0.840277
30
0.0
11
0.054122
21
0.699422
31
0.0
0
LINE
8
FRONT
10
0.366583
20
0.840277
30
0.0
11
0.366389
21
0.832489
31
0.0
0
LINE
8
FRONT
10
0.366389
20
0.832489
30
0.0
11
0.365806
21
0.824721
31
0.0
0
LINE
8
FRONT
10
0.365806
20
0.824721
30
0.0
11
0.364838
21
0.816992
31
0.0
0
LINE
8
FRONT
10
0.364838
20
0.816992
30
0.0
11
0.363485
21
0.809320
31
0.0
0
LINE
8
FRONT
10
0.363485
20
0.809320
30
0.0
11
0.361752
21
0.801726
31
0.0
0
LINE
8
FRONT
10
0.361752
20
0.801726
30
0.0
11
0.359642
21
0.794227
31
0.0
0
LINE
8
FRONT
10
0.359642
20
0.794227
30
0.0
11
0.357161
21
0.786843
31
0.0
0
LINE
8
FRONT
10
0.357161
20
0.786843
30
0.0
11
0.354315
21
0.779592
31
0.0
0
LINE
8
FRONT
10
0.354315
20
0.779592
30
0.0
11
0.351111
21
0.772491
31
0.0
0
LINE
8
FRONT
10
0.351111
20
0.772491
30
0.0
11
0.347557
21
0.765559
31
0.0
0
LINE
8
FRONT
10
0.347557
20
0.765559
30
0.0
11
0.343662
21
0.758813
31
0.0
0
LINE
8
FRONT
10
0.343662
20
0.758813
30
0.0
11
0.339436
21
0.752269
31
0.0
0
LINE
8
FRONT
10
0.339436
20
0.752269
30
0.0
11
0.334889
21
0.745944
31
0.0
0
LINE
8
FRONT
10
0.334889
20
0.745944
30
0.0
11
0.330032
21
0.739854
31
0.0
0
LINE
8
FRONT
10
0.330032
20
0.739854
30
0.0
11
0.324877
21
0.734013
31
0.0
0
LINE
8
FRONT
10
0.324877
20
0.734013
30
0.0
11
0.319438
21
0.728437
31
0.0
0
LINE
8
FRONT
10
0.319438
20
0.728437
30
0.0
11
0.313728
21
0.723138
31
0.0
0
LINE
8
FRONT
10
0.313728
20
0.723138
30
0.0
11
0.307760
21
0.718131
31
0.0
0
LINE
8
FRONT
10
0.307760
20
0.718131
30
0.0
11
0.301551
21
0.713427
31
0.0
0
LINE
8
FRONT
10
0.301551
20
0.713427
30
0.0
11
0.295115
21
0.709039
31
0.0
0
LINE
8
FRONT
10
0.295115
20
0.709039
30
0.0
11
0.288468
21
0.704977
31
0.0
0
LINE
8
FRONT
10
0.288468
20
0.704977
30
0.0
11
0.281626
21
0.701252
31
0.0
0
LINE
8
FRONT
10
0.281626
20
0.701252
30
0.0
11
0.274608
21
0.697872
31
0.0
0
LINE
8
FRONT
10
0.274608
20
0.697872
30
0.0
11
0.267430
21
0.694846
31
0.0
0
LINE
8
FRONT
10
0.267430
20
0.694846
30
0.0
11
0.260110
21
0.692182
31
0.0
0
LINE
8
FRONT
10
0.260110
20
0.692182
30
0.0
11
0.252666
21
0.689886
31
0.0
0
LINE
8
FRONT
10
0.252666
20
0.689886
30
0.0
11
0.245117
21
0.687964
31
0.0
0
LINE
8
FRONT
10
0.245117
20
0.687964
30
0.0
11
0.237482
21
0.686420
31
0.0
0
LINE
8
FRONT
10
0.237482
20
0.686420
30
0.0
11
0.229779
21
0.685259
31
0.0
0
LINE
8
FRONT
10
0.229779
20
0.685259
30
0.0
11
0.222028
21
0.684483
31
0.0
0
LINE
8
FRONT
10
0.222028
20
0.684483
30
0.0
11
0.214247
21
0.684095
31
0.0
0
LINE
8
FRONT
10
0.214247
20
0.684095
30
0.0
11
0.206457
21
0.684095
31
0.0
0
LINE
8
FRONT
10
0.206457
20
0.684095
30
0.0
11
0.198677
21
0.684483
31
0.0
0
LINE
8
FRONT
10
0.198677
20
0.684483
30
0.0
11
0.190926
21
0.685259
31
0.0
0
LINE
8
FRONT
10
0.190926
20
0.685259
30
0.0
11
0.183223
21
0.686420
31
0.0
0
LINE
8
FRONT
10
0.183223
20
0.686420
30
0.0
11
0.175588
21
0.687964
31
0.0
0
LINE
8
FRONT
10
0.175588
20
0.687964
30
0.0
11
0.168039
21
0.689886
31
0.0
0
LINE
8
FRONT
10
0.168039
20
0.689886
30
0.0
11
0.160595
21
0.692182
31
0.0
0
LINE
8
FRONT
10
0.160595
20
0.692182
30
0.0
11
0.153275
21
0.694846
31
0.0
0
LINE
8
FRONT
10
0.153275
20
0.694846
30
0.0
11
0.146097
21
0.697872
31
0.0
0
LINE
8
FRONT
10
0.146097
20
0.697872
30
0.0
11
0.139078
21
0.701252
31
0.0
0
LINE
8
FRONT
10
0.139078
20
0.701252
30
0.0
11
0.132237
21
0.704977
31
0.0
0
LINE
8
FRONT
10
0.132237
20
0.704977
30
0.0
11
0.125590
21
0.709039
31
0.0
0
LINE
8
FRONT
10
0.125590
20
0.709039
30
0.0
11
0.119154
21
0.713427
31
0.0
0
LINE
8
FRONT
10
0.119154
20
0.713427
30
0.0
11
0.112944
21
0.718131
31
0.0
0
LINE
8
FRONT
10
0.112944
20
0.718131
30
0.0
11
0.106977
21
0.723138
31
0.0
0
LINE
8
FRONT
10
0.106977
20
0.723138
30
0.0
11
0.101267
21
0.728437
31
0.0
0
LINE
8
FRONT
10
0.101267
20
0.728437
30
0.0
11
0.095827
21
0.734013
31
0.0
0
LINE
8
FRONT
10
0.095827
20
0.734013
30
0.0
11
0.090673
21
0.739854
31
0.0
0
LINE
8
FRONT
10
0.090673
20
0.739854
30
0.0
11
0.085816
21
0.745944
31
0.0
0
LINE
8
FRONT
10
0.085816
20
0.745944
30
0.0
11
0.081269
21
0.752269
31
0.0
0
LINE
8
FRONT
10
0.081269
20
0.752269
30
0.0
11
0.077042
21
0.758813
31
0.0
0
LINE
8
FRONT
10
0.077042
20
0.758813
30
0.0
11
0.073148
21
0.765559
31
0.0
0
LINE
8
FRONT
10
0.073148
20
0.765559
30
0.0
11
0.069594
21
0.772491
31
0.0
0
LINE
8
FRONT
10
0.069594
20
0.772491
30
0.0
11
0.066390
21
0.779592
31
0.0
0
LINE
8
FRONT
10
0.066390
20
0.779592
30
0.0
11
0.063544
21
0.786843
31
0.0
0
LINE
8
FRONT
10
0.063544
20
0.786843
30
0.0
11
0.061063
21
0.794227
31
0.0
0
LINE
8
FRONT
10
0.061063
20
0.794227
30
0.0
11
0.058953
21
0.801726
31
0.0
0
LINE
8
FRONT
10
0.058953
20
0.801726
30
0.0
11
0.057220
21
0.809320
31
0.0
0
LINE
8
FRONT
10
0.057220
20
0.809320
30
0.0
11
0.055867
21
0.816992
31
0.0
0
LINE
8
FRONT
10
0.055867
20
0.816992
30
0.0
11
0.054898
21
0.824721
31
0.0
0
LINE
8
FRONT
10
0.054898
20
0.824721
30
0.0
11
0.054316
21
0.832489
31
0.0
0
LINE
8
FRONT
10
0.054316
20
0.832489
30
0.0
11
0.054122
21
0.840277
31
0.0
0
LINE
8
FRONT
10
0.366583
20
0.699422
30
0.0
11
0.366583
21
0.840277
31
0.0
0
LINE
8
FRONT
10
0.366583
20
0.354751
30
0.0
11
0.366583
21
0.699422
31
0.0
0
LINE
8
FRONT
10
0.054122
20
0.354751
30
0.0
11
0.366583
21
0.354751
31
0.0
0
LINE
8
FRONT
10
0.420705
20
0.687806
30
0.0
11
0.691315
21
0.687806
31
0.0
0
LINE
8
FRONT
10
0.691315
20
0.601210
30
0.0
11
0.691315
21
0.687806
31
0.0
0
LINE
8
FRONT
10
0.691315
20
0.601210
30
0.0
11
0.420705
21
0.601210
31
0.0
0
LINE
8
FRONT_HID
6
HIDDEN
10
0.000000
20
0.300629
30
0.0
11
0.420705
21
0.300629
31
0.0
0
LINE
8
FRONT_HID
6
HIDDEN
10
0.000000
20
0.840277
30
0.0
11
0.000000
21
0.300629
31
0.0
0
LINE
8
FRONT_HID
6
HIDDEN
10
0.420705
20
0.300629
30
0.0
11
0.420705
21
0.840277
31
0.0
0
LINE
8
FRONT_HID
6
HIDDEN
10
0.420705
20
0.687806
30
0.0
11
0.420705
21
0.601210
31
0.0
0
LINE
8
FRONT_HID
6
HIDDEN
10
0.420705
20
0.601210
30
0.0
11
0.420705
21
0.687806
31
0.0
0
LINE
8
FRONT_HID
6
HIDDEN
10
0.420705
20
0.840277
30
0.0
11
0.420691
21
0.837827
31
0.0
0
LINE
8
FRONT_HID
6
HIDDEN
10
0.420691
20
0.837827
30
0.0
11
0.420648
21
0.835378
31
0.0
0
LINE
8
FRONT_HID
6
HIDDEN
10
0.420648
20
0.835378
30
0.0
11
0.420576
21
0.832929
31
0.0
0
LINE
8
FRONT_HID
6
HIDDEN
10
0.420576
20
0.832929
30
0.0
11
0.420477
21
0.830481
31
0.0
0
LINE
8
FRONT_HID
6
HIDDEN
10
0.420477
20
0.830481
30
0.0
11
0.420348
21
0.828035
31
0.0
0
LINE
8
FRONT_HID
6
HIDDEN
10
0.420348
20
0.828035
30
0.0
11
0.420192
21
0.825590
31
0.0
0
LINE
8
FRONT_HID
6
HIDDEN
10
0.420192
20
0.825590
30
0.0
11
0.420006
21
0.823148
31
0.0
0
LINE
8
FRONT_HID
6
HIDDEN
10
0.420006
20
0.823148
30
0.0
11
0.419793
21
0.820707
31
0.0
0
LINE
8
FRONT_HID
6
HIDDEN
10
0.419793
20
0.820707
30
0.0
11
0.419550
21
0.818269
31
0.0
0
LINE
8
FRONT_HID
6
HIDDEN
10
0.419550
20
0.818269
30
0.0
11
0.419280
21
0.815835
31
0.0
0
LINE
8
FRONT_HID
6
HIDDEN
10
0.419280
20
0.815835
30
0.0
11
0.418981
21
0.813403
31
0.0
0
LINE
8
FRONT_HID
6
HIDDEN
10
0.418981
20
0.813403
30
0.0
11
0.418654
21
0.810976
31
0.0
0
LINE
8
FRONT_HID
6
HIDDEN
10
0.418654
20
0.810976
30
0.0
11
0.418299
21
0.808552
31
0.0
0
LINE
8
FRONT_HID
6
HIDDEN
10
0.418299
20
0.808552
30
0.0
11
0.417915
21
0.806132
31
0.0
0
LINE
8
FRONT_HID
6
HIDDEN
10
0.417915
20
0.806132
30
0.0
11
0.417503
21
0.803717
31
0.0
0
LINE
8
FRONT_HID
6
HIDDEN
10
0.417503
20
0.803717
30
0.0
11
0.417064
21
0.801307
31
0.0
0
LINE
8
FRONT_HID
6
HIDDEN
10
0.417064
20
0.801307
30
0.0
11
0.416596
21
0.798903
31
0.0
0
LINE
8
FRONT_HID
6
HIDDEN
10
0.416596
20
0.798903
30
0.0
11
0.416100
21
0.796504
31
0.0
0
LINE
8
FRONT_HID
6
HIDDEN
10
0.416100
20
0.796504
30
0.0
11
0.415576
21
0.794111
31
0.0
0
LINE
8
FRONT_HID
6
HIDDEN
10
0.415576
20
0.794111
30
0.0
11
0.415025
21
0.791724
31
0.0
0
LINE
8
FRONT_HID
6
HIDDEN
10
0.415025
20
0.791724
30
0.0
11
0.414445
21
0.789344
31
0.0
0
LINE
8
FRONT_HID
6
HIDDEN
10
0.414445
20
0.789344
30
0.0
11
0.413838
21
0.786970
31
0.0
0
LINE
8
FRONT_HID
6
HIDDEN
10
0.413838
20
0.786970
30
0.0
11
0.413204
21
0.784604
31
0.0
0
LINE
8
FRONT_HID
6
HIDDEN
10
0.413204
20
0.784604
30
0.0
11
0.412542
21
0.782246
31
0.0
0
LINE
8
FRONT_HID
6
HIDDEN
10
0.412542
20
0.782246
30
0.0
11
0.411852
21
0.779895
31
0.0
0
LINE
8
FRONT_HID
6
HIDDEN
10
0.411852
20
0.779895
30
0.0
11
0.411135
21
0.777552
31
0.0
0
LINE
8
FRONT_HID
6
HIDDEN
10
0.411135
20
0.777552
30
0.0
11
0.410391
21
0.775218
31
0.0
0
LINE
8
FRONT_HID
6
HIDDEN
10
0.410391
20
0.775218
30
0.0
11
0.409620
21
0.772893
31
0.0
0
LINE
8
FRONT_HID
6
HIDDEN
10
0.409620
20
0.772893
30
0.0
11
0.408822
21
0.770577
31
0.0
0
LINE
8
FRONT_HID
6
HIDDEN
10
0.408822
20
0.770577
30
0.0
11
0.407997
21
0.768271
31
0.0
0
LINE
8
FRONT_HID
6
HIDDEN
10
0.407997
20
0.768271
30
0.0
11
0.407145
21
0.765974
31
0.0
0
LINE
8
FRONT_HID
6
HIDDEN
10
0.407145
20
0.765974
30
0.0
11
0.406266
21
0.763687
31
0.0
0
LINE
8
FRONT_HID
6
HIDDEN
10
0.406266
20
0.763687
30
0.0
11
0.405361
21
0.761411
31
0.0
0
LINE
8
FRONT_HID
6
HIDDEN
10
0.405361
20
0.761411
30
0.0
11
0.404429
21
0.759145
31
0.0
0
LINE
8
FRONT_HID
6
HIDDEN
10
0.404429
20
0.759145
30
0.0
11
0.403471
21
0.756890
31
0.0
0
LINE
8
FRONT_HID
6
HIDDEN
10
0.403471
20
0.756890
30
0.0
11
0.402487
21
0.754647
31
0.0
0
LINE
8
FRONT_HID
6
HIDDEN
10
0.402487
20
0.754647
30
0.0
11
0.401477
21
0.752415
31
0.0
0
LINE
8
FRONT_HID
6
HIDDEN
10
0.401477
20
0.752415
30
0.0
11
0.400441
21
0.750196
31
0.0
0
LINE
8
FRONT_HID
6
HIDDEN
10
0.400441
20
0.750196
30
0.0
11
0.399379
21
0.747988
31
0.0
0
LINE
8
FRONT_HID
6
HIDDEN
10
0.399379
20
0.747988
30
0.0
11
0.398291
21
0.745793
31
0.0
0
LINE
8
FRONT_HID
6
HIDDEN
10
0.398291
20
0.745793
30
0.0
11
0.397178
21
0.743611
31
0.0
0
LINE
8
FRONT_HID
6
HIDDEN
10
0.397178
20
0.743611
30
0.0
11
0.396040
21
0.741441
31
0.0
0
LINE
8
FRONT_HID
6
HIDDEN
10
0.396040
20
0.741441
30
0.0
11
0.394876
21
0.739286
31
0.0
0
LINE
8
FRONT_HID
6
HIDDEN
10
0.394876
20
0.739286
30
0.0
11
0.393687
21
0.737144
31
0.0
0
LINE
8
FRONT_HID
6
HIDDEN
10
0.393687
20
0.737144
30
0.0
11
0.392474
21
0.735016
31
0.0
0
LINE
8
FRONT_HID
6
HIDDEN
10
0.392474
20
0.735016
30
0.0
11
0.391236
21
0.732902
31
0.0
0
LINE
8
FRONT_HID
6
HIDDEN
10
0.391236
20
0.732902
30
0.0
11
0.389973
21
0.730803
31
0.0
0
LINE
8
FRONT_HID
6
HIDDEN
10
0.389973
20
0.730803
30
0.0
11
0.388686
21
0.728718
31
0.0
0
LINE
8
FRONT_HID
6
HIDDEN
10
0.388686
20
0.728718
30
0.0
11
0.387375
21
0.726649
31
0.0
0
LINE
8
FRONT_HID
6
HIDDEN
10
0.387375
20
0.726649
30
0.0
11
0.386039
21
0.724595
31
0.0
0
LINE
8
FRONT_HID
6
HIDDEN
10
0.386039
20
0.724595
30
0.0
11
0.384680
21
0.722557
31
0.0
0
LINE
8
FRONT_HID
6
HIDDEN
10
0.384680
20
0.722557
30
0.0
11
0.383297
21
0.720535
31
0.0
0
LINE
8
FRONT_HID
6
HIDDEN
10
0.383297
20
0.720535
30
0.0
11
0.381891
21
0.718529
31
0.0
0
LINE
8
FRONT_HID
6
HIDDEN
10
0.381891
20
0.718529
30
0.0
11
0.380462
21
0.716540
31
0.0
0
LINE
8
FRONT_HID
6
HIDDEN
10
0.380462
20
0.716540
30
0.0
11
0.379009
21
0.714567
31
0.0
0
LINE
8
FRONT_HID
6
HIDDEN
10
0.379009
20
0.714567
30
0.0
11
0.377534
21
0.712611
31
0.0
0
LINE
8
FRONT_HID
6
HIDDEN
10
0.377534
20
0.712611
30
0.0
11
0.376036
21
0.710673
31
0.0
0
LINE
8
FRONT_HID
6
HIDDEN
10
0.376036
20
0.710673
30
0.0
11
0.374515
21
0.708752
31
0.0
0
LINE
8
FRONT_HID
6
HIDDEN
10
0.374515
20
0.708752
30
0.0
11
0.372972
21
0.706849
31
0.0
0
LINE
8
FRONT_HID
6
HIDDEN
10
0.372972
20
0.706849
30
0.0
11
0.371408
21
0.704965
31
0.0
0
LINE
8
FRONT_HID
6
HIDDEN
10
0.371408
20
0.704965
30
0.0
11
0.369821
21
0.703098
31
0.0
0
LINE
8
FRONT_HID
6
HIDDEN
10
0.369821
20
0.703098
30
0.0
11
0.368212
21
0.701250
31
0.0
0
LINE
8
FRONT_HID
6
HIDDEN
10
0.368212
20
0.701250
30
0.0
11
0.366583
21
0.699422
31
0.0
0
LINE
8
FRONT_HID
6
HIDDEN
10
0.366583
20
0.699422
30
0.0
11
0.362785
21
0.695320
31
0.0
0
LINE
8
FRONT_HID
6
HIDDEN
10
0.362785
20
0.695320
30
0.0
11
0.358879
21
0.691321
31
0.0
0
LINE
8
FRONT_HID
6
HIDDEN
10
0.358879
20
0.691321
30
0.0
11
0.354869
21
0.687427
31
0.0
0
LINE
8
FRONT_HID
6
HIDDEN
10
0.354869
20
0.687427
30
0.0
11
0.350756
21
0.683641
31
0.0
0
LINE
8
FRONT_HID
6
HIDDEN
10
0.350756
20
0.683641
30
0.0
11
0.346545
21
0.679965
31
0.0
0
LINE
8
FRONT_HID
6
HIDDEN
10
0.346545
20
0.679965
30
0.0
11
0.342237
21
0.676403
31
0.0
0
LINE
8
FRONT_HID
6
HIDDEN
10
0.342237
20
0.676403
30
0.0
11
0.337836
21
0.672956
31
0.0
0
LINE
8
FRONT_HID
6
HIDDEN
10
0.337836
20
0.672956
30
0.0
11
0.333345
21
0.669628
31
0.0
0
LINE
8
FRONT_HID
6
HIDDEN
10
0.333345
20
0.669628
30
0.0
11
0.328767
21
0.666420
31
0.0
0
LINE
8
FRONT_HID
6
HIDDEN
10
0.328767
20
0.666420
30
0.0
11
0.324106
21
0.663335
31
0.0
0
LINE
8
FRONT_HID
6
HIDDEN
10
0.324106
20
0.663335
30
0.0
11
0.319364
21
0.660375
31
0.0
0
LINE
8
FRONT_HID
6
HIDDEN
10
0.319364
20
0.660375
30
0.0
11
0.314545
21
0.657542
31
0.0
0
LINE
8
FRONT_HID
6
HIDDEN
10
0.314545
20
0.657542
30
0.0
11
0.309653
21
0.654838
31
0.0
0
LINE
8
FRONT_HID
6
HIDDEN
10
0.309653
20
0.654838
30
0.0
11
0.304690
21
0.652265
31
0.0
0
LINE
8
FRONT_HID
6
HIDDEN
10
0.304690
20
0.652265
30
0.0
11
0.299661
21
0.649824
31
0.0
0
LINE
8
FRONT_HID
6
HIDDEN
10
0.299661
20
0.649824
30
0.0
11
0.294569
21
0.647519
31
0.0
0
LINE
8
FRONT_HID
6
HIDDEN
10
0.294569
20
0.647519
30
0.0
11
0.289417
21
0.645349
31
0.0
0
LINE
8
FRONT_HID
6
HIDDEN
10
0.289417
20
0.645349
30
0.0
11
0.284210
21
0.643317
31
0.0
0
LINE
8
FRONT_HID
6
HIDDEN
10
0.284210
20
0.643317
30
0.0
11
0.278950
21
0.641424
31
0.0
0
LINE
8
FRONT_HID
6
HIDDEN
10
0.278950
20
0.641424
30
0.0
11
0.273642
21
0.639671
31
0.0
0
LINE
8
FRONT_HID
6
HIDDEN
10
0.273642
20
0.639671
30
0.0
11
0.268289
21
0.638060
31
0.0
0
LINE
8
FRONT_HID
6
HIDDEN
10
0.268289
20
0.638060
30
0.0
11
0.262896
21
0.636592
31
0.0
0
LINE
8
FRONT_HID
6
HIDDEN
10
0.262896
20
0.636592
30
0.0
11
0.257465
21
0.635268
31
0.0
0
LINE
8
FRONT_HID
6
HIDDEN
10
0.257465
20
0.635268
30
0.0
11
0.252001
21
0.634089
31
0.0
0
LINE
8
FRONT_HID
6
HIDDEN
10
0.252001
20
0.634089
30
0.0
11
0.246507
21
0.633055
31
0.0
0
LINE
8
FRONT_HID
6
HIDDEN
10
0.246507
20
0.633055
30
0.0
11
0.240988
21
0.632167
31
0.0
0
LINE
8
FRONT_HID
6
HIDDEN
10
0.240988
20
0.632167
30
0.0
11
0.235448
21
0.631427
31
0.0
0
LINE
8
FRONT_HID
6
HIDDEN
10
0.235448
20
0.631427
30
0.0
11
0.229889
21
0.630834
31
0.0
0
LINE
8
FRONT_HID
6
HIDDEN
10
0.229889
20
0.630834
30
0.0
11
0.224317
21
0.630388
31
0.0
0
LINE
8
FRONT_HID
6
HIDDEN
10
0.224317
20
0.630388
30
0.0
11
0.218735
21
0.630092
31
0.0
0
LINE
8
FRONT_HID
6
HIDDEN
10
0.218735
20
0.630092
30
0.0
11
0.213147
21
0.629943
31
0.0
0
LINE
8
FRONT_HID
6
HIDDEN
10
0.213147
20
0.629943
30
0.0
11
0.207557
21
0.629943
31
0.0
0
LINE
8
FRONT_HID
6
HIDDEN
10
0.207557
20
0.629943
30
0.0
11
0.201970
21
0.630092
31
0.0
0
LINE
8
FRONT_HID
6
HIDDEN
10
0.201970
20
0.630092
30
0.0
11
0.196388
21
0.630388
31
0.0
0
LINE
8
FRONT_HID
6
HIDDEN
10
0.196388
20
0.630388
30
0.0
11
0.190815
21
0.630834
31
0.0
0
LINE
8
FRONT_HID
6
HIDDEN
10
0.190815
20
0.630834
30
0.0
11
0.185257
21
0.631427
31
0.0
0
LINE
8
FRONT_HID
6
HIDDEN
10
0.185257
20
0.631427
30
0.0
11
0.179716
21
0.632167
31
0.0
0
LINE
8
FRONT_HID
6
HIDDEN
10
0.179716
20
0.632167
30
0.0
11
0.174197
21
0.633055
31
0.0
0
LINE
8
FRONT_HID
6
HIDDEN
10
0.174197
20
0.633055
30
0.0
11
0.168704
21
0.634089
31
0.0
0
LINE
8
FRONT_HID
6
HIDDEN
10
0.168704
20
0.634089
30
0.0
11
0.163240
21
0.635268
31
0.0
0
LINE
8
FRONT_HID
6
HIDDEN
10
0.163240
20
0.635268
30
0.0
11
0.157809
21
0.636592
31
0.0
0
LINE
8
FRONT_HID
6
HIDDEN
10
0.157809
20
0.636592
30
0.0
11
0.152415
21
0.638060
31
0.0
0
LINE
8
FRONT_HID
6
HIDDEN
10
0.152415
20
0.638060
30
0.0
11
0.147063
21
0.639671
31
0.0
0
LINE
8
FRONT_HID
6
HIDDEN
10
0.147063
20
0.639671
30
0.0
11
0.141755
21
0.641424
31
0.0
0
LINE
8
FRONT_HID
6
HIDDEN
10
0.141755
20
0.641424
30
0.0
11
0.136495
21
0.643317
31
0.0
0
LINE
8
FRONT_HID
6
HIDDEN
10
0.136495
20
0.643317
30
0.0
11
0.131288
21
0.645349
31
0.0
0
LINE
8
FRONT_HID
6
HIDDEN
10
0.131288
20
0.645349
30
0.0
11
0.126136
21
0.647519
31
0.0
0
LINE
8
FRONT_HID
6
HIDDEN
10
0.126136
20
0.647519
30
0.0
11
0.121044
21
0.649824
31
0.0
0
LINE
8
FRONT_HID
6
HIDDEN
10
0.121044
20
0.649824
30
0.0
11
0.116015
21
0.652265
31
0.0
0
LINE
8
FRONT_HID
6
HIDDEN
10
0.116015
20
0.652265
30
0.0
11
0.111052
21
0.654838
31
0.0
0
LINE
8
FRONT_HID
6
HIDDEN
10
0.111052
20
0.654838
30
0.0
11
0.106160
21
0.657542
31
0.0
0
LINE
8
FRONT_HID
6
HIDDEN
10
0.106160
20
0.657542
30
0.0
11
0.101341
21
0.660375
31
0.0
0
LINE
8
FRONT_HID
6
HIDDEN
10
0.101341
20
0.660375
30
0.0
11
0.096599
21
0.663335
31
0.0
0
LINE
8
FRONT_HID
6
HIDDEN
10
0.096599
20
0.663335
30
0.0
11
0.091938
21
0.666420
31
0.0
0
LINE
8
FRONT_HID
6
HIDDEN
10
0.091938
20
0.666420
30
0.0
11
0.087360
21
0.669628
31
0.0
0
LINE
8
FRONT_HID
6
HIDDEN
10
0.087360
20
0.669628
30
0.0
11
0.082869
21
0.672956
31
0.0
0
LINE
8
FRONT_HID
6
HIDDEN
10
0.082869
20
0.672956
30
0.0
11
0.078468
21
0.676403
31
0.0
0
LINE
8
FRONT_HID
6
HIDDEN
10
0.078468
20
0.676403
30
0.0
11
0.074160
21
0.679965
31
0.0
0
LINE
8
FRONT_HID
6
HIDDEN
10
0.074160
20
0.679965
30
0.0
11
0.069949
21
0.683641
31
0.0
0
LINE
8
FRONT_HID
6
HIDDEN
10
0.069949
20
0.683641
30
0.0
11
0.065836
21
0.687427
31
0.0
0
LINE
8
FRONT_HID
6
HIDDEN
10
0.065836
20
0.687427
30
0.0
11
0.061826
21
0.691321
31
0.0
0
LINE
8
FRONT_HID
6
HIDDEN
10
0.061826
20
0.691321
30
0.0
11
0.057920
21
0.695320
31
0.0
0
LINE
8
FRONT_HID
6
HIDDEN
10
0.057920
20
0.695320
30
0.0
11
0.054122
21
0.699422
31
0.0
0
LINE
8
FRONT_HID
6
HIDDEN
10
0.054122
20
0.699422
30
0.0
11
0.052492
21
0.701250
31
0.0
0
LINE
8
FRONT_HID
6
HIDDEN
10
0.052492
20
0.701250
30
0.0
11
0.050884
21
0.703098
31
0.0
0
LINE
8
FRONT_HID
6
HIDDEN
10
0.050884
20
0.703098
30
0.0
11
0.049297
21
0.704965
31
0.0
0
LINE
8
FRONT_HID
6
HIDDEN
10
0.049297
20
0.704965
30
0.0
11
0.047732
21
0.706849
31
0.0
0
LINE
8
FRONT_HID
6
HIDDEN
10
0.047732
20
0.706849
30
0.0
11
0.046190
21
0.708752
31
0.0
0
LINE
8
FRONT_HID
6
HIDDEN
10
0.046190
20
0.708752
30
0.0
11
0.044669
21
0.710673
31
0.0
0
LINE
8
FRONT_HID
6
HIDDEN
10
0.044669
20
0.710673
30
0.0
11
0.043171
21
0.712611
31
0.0
0
LINE
8
FRONT_HID
6
HIDDEN
10
0.043171
20
0.712611
30
0.0
11
0.041696
21
0.714567
31
0.0
0
LINE
8
FRONT_HID
6
HIDDEN
10
0.041696
20
0.714567
30
0.0
11
0.040243
21
0.716540
31
0.0
0
LINE
8
FRONT_HID
6
HIDDEN
10
0.040243
20
0.716540
30
0.0
11
0.038814
21
0.718529
31
0.0
0
LINE
8
FRONT_HID
6
HIDDEN
10
0.038814
20
0.718529
30
0.0
11
0.037407
21
0.720535
31
0.0
0
LINE
8
FRONT_HID
6
HIDDEN
10
0.037407
20
0.720535
30
0.0
11
0.036025
21
0.722557
31
0.0
0
LINE
8
FRONT_HID
6
HIDDEN
10
0.036025
20
0.722557
30
0.0
11
0.034665
21
0.724595
31
0.0
0
LINE
8
FRONT_HID
6
HIDDEN
10
0.034665
20
0.724595
30
0.0
11
0.033330
21
0.726649
31
0.0
0
LINE
8
FRONT_HID
6
HIDDEN
10
0.033330
20
0.726649
30
0.0
11
0.032019
21
0.728718
31
0.0
0
LINE
8
FRONT_HID
6
HIDDEN
10
0.032019
20
0.728718
30
0.0
11
0.030732
21
0.730803
31
0.0
0
LINE
8
FRONT_HID
6
HIDDEN
10
0.030732
20
0.730803
30
0.0
11
0.029469
21
0.732902
31
0.0
0
LINE
8
FRONT_HID
6
HIDDEN
10
0.029469
20
0.732902
30
0.0
11
0.028231
21
0.735016
31
0.0
0
LINE
8
FRONT_HID
6
HIDDEN
10
0.028231
20
0.735016
30
0.0
11
0.027017
21
0.737144
31
0.0
0
LINE
8
FRONT_HID
6
HIDDEN
10
0.027017
20
0.737144
30
0.0
11
0.025829
21
0.739286
31
0.0
0
LINE
8
FRONT_HID
6
HIDDEN
10
0.025829
20
0.739286
30
0.0
11
0.024665
21
0.741441
31
0.0
0
LINE
8
FRONT_HID
6
HIDDEN
10
0.024665
20
0.741441
30
0.0
11
0.023527
21
0.743611
31
0.0
0
LINE
8
FRONT_HID
6
HIDDEN
10
0.023527
20
0.743611
30
0.0
11
0.022414
21
0.745793
31
0.0
0
LINE
8
FRONT_HID
6
HIDDEN
10
0.022414
20
0.745793
30
0.0
11
0.021326
21
0.747988
31
0.0
0
LINE
8
FRONT_HID
6
HIDDEN
10
0.021326
20
0.747988
30
0.0
11
0.020264
21
0.750196
31
0.0
0
LINE
8
FRONT_HID
6
HIDDEN
10
0.020264
20
0.750196
30
0.0
11
0.019228
21
0.752415
31
0.0
0
LINE
8
FRONT_HID
6
HIDDEN
10
0.019228
20
0.752415
30
0.0
11
0.018218
21
0.754647
31
0.0
0
LINE
8
FRONT_HID
6
HIDDEN
10
0.018218
20
0.754647
30
0.0
11
0.017234
21
0.756890
31
0.0
0
LINE
8
FRONT_HID
6
HIDDEN
10
0.017234
20
0.756890
30
0.0
11
0.016276
21
0.759145
31
0.0
0
LINE
8
FRONT_HID
6
HIDDEN
10
0.016276
20
0.759145
30
0.0
11
0.015344
21
0.761411
31
0.0
0
LINE
8
FRONT_HID
6
HIDDEN
10
0.015344
20
0.761411
30
0.0
11
0.014439
21
0.763687
31
0.0
0
LINE
8
FRONT_HID
6
HIDDEN
10
0.014439
20
0.763687
30
0.0
11
0.013560
21
0.765974
31
0.0
0
LINE
8
FRONT_HID
6
HIDDEN
10
0.013560
20
0.765974
30
0.0
11
0.012708
21
0.768271
31
0.0
0
LINE
8
FRONT_HID
6
HIDDEN
10
0.012708
20
0.768271
30
0.0
11
0.011883
21
0.770577
31
0.0
0
LINE
8
FRONT_HID
6
HIDDEN
10
0.011883
20
0.770577
30
0.0
11
0.011085
21
0.772893
31
0.0
0
LINE
8
FRONT_HID
6
HIDDEN
10
0.011085
20
0.772893
30
0.0
11
0.010314
21
0.775218
31
0.0
0
LINE
8
FRONT_HID
6
HIDDEN
10
0.010314
20
0.775218
30
0.0
11
0.009570
21
0.777552
31
0.0
0
LINE
8
FRONT_HID
6
HIDDEN
10
0.009570
20
0.777552
30
0.0
11
0.008853
21
0.779895
31
0.0
0
LINE
8
FRONT_HID
6
HIDDEN
10
0.008853
20
0.779895
30
0.0
11
0.008163
21
0.782246
31
0.0
0
LINE
8
FRONT_HID
6
HIDDEN
10
0.008163
20
0.782246
30
0.0
11
0.007501
21
0.784604
31
0.0
0
LINE
8
FRONT_HID
6
HIDDEN
10
0.007501
20
0.784604
30
0.0
11
0.006866
21
0.786970
31
0.0
0
LINE
8
FRONT_HID
6
HIDDEN
10
0.006866
20
0.786970
30
0.0
11
0.006259
21
0.789344
31
0.0
0
LINE
8
FRONT_HID
6
HIDDEN
10
0.006259
20
0.789344
30
0.0
11
0.005680
21
0.791724
31
0.0
0
LINE
8
FRONT_HID
6
HIDDEN
10
0.005680
20
0.791724
30
0.0
11
0.005129
21
0.794111
31
0.0
0
LINE
8
FRONT_HID
6
HIDDEN
10
0.005129
20
0.794111
30
0.0
11
0.004605
21
0.796504
31
0.0
0
LINE
8
FRONT_HID
6
HIDDEN
10
0.004605
20
0.796504
30
0.0
11
0.004109
21
0.798903
31
0.0
0
LINE
8
FRONT_HID
6
HIDDEN
10
0.004109
20
0.798903
30
0.0
11
0.003641
21
0.801307
31
0.0
0
LINE
8
FRONT_HID
6
HIDDEN
10
0.003641
20
0.801307
30
0.0
11
0.003201
21
0.803717
31
0.0
0
LINE
8
FRONT_HID
6
HIDDEN
10
0.003201
20
0.803717
30
0.0
11
0.002790
21
0.806132
31
0.0
0
LINE
8
FRONT_HID
6
HIDDEN
10
0.002790
20
0.806132
30
0.0
11
0.002406
21
0.808552
31
0.0
0
LINE
8
FRONT_HID
6
HIDDEN
10
0.002406
20
0.808552
30
0.0
11
0.002051
21
0.810976
31
0.0
0
LINE
8
FRONT_HID
6
HIDDEN
10
0.002051
20
0.810976
30
0.0
11
0.001724
21
0.813403
31
0.0
0
LINE
8
FRONT_HID
6
HIDDEN
10
0.001724
20
0.813403
30
0.0
11
0.001425
21
0.815835
31
0.0
0
LINE
8
FRONT_HID
6
HIDDEN
10
0.001425
20
0.815835
30
0.0
11
0.001154
21
0.818269
31
0.0
0
LINE
8
FRONT_HID
6
HIDDEN
10
0.001154
20
0.818269
30
0.0
11
0.000912
21
0.820707
31
0.0
0
LINE
8
FRONT_HID
6
HIDDEN
10
0.000912
20
0.820707
30
0.0
11
0.000699
21
0.823148
31
0.0
0
LINE
8
FRONT_HID
6
HIDDEN
10
0.000699
20
0.823148
30
0.0
11
0.000513
21
0.825590
31
0.0
0
LINE
8
FRONT_HID
6
HIDDEN
10
0.000513
20
0.825590
30
0.0
11
0.000357
21
0.828035
31
0.0
0
LINE
8
FRONT_HID
6
HIDDEN
10
0.000357
20
0.828035
30
0.0
11
0.000228
21
0.830481
31
0.0
0
LINE
8
FRONT_HID
6
HIDDEN
10
0.000228
20
0.830481
30
0.0
11
0.000128
21
0.832929
31
0.0
0
LINE
8
FRONT_HID
6
HIDDEN
10
0.000128
20
0.832929
30
0.0
11
0.000057
21
0.835378
31
0.0
0
LINE
8
FRONT_HID
6
HIDDEN
10
0.000057
20
0.835378
30
0.0
11
0.000014
21
0.837827
31
0.0
0
LINE
8
FRONT_HID
6
HIDDEN
10
0.000014
20
0.837827
30
0.0
11
0.000000
21
0.840277
31
0.0
0
LINE
8
FRONT_HID
6
HIDDEN
10
0.054122
20
0.699422
30
0.0
11
0.054122
21
0.354751
31
0.0
0
LINE
8
FRONT_HID
6
HIDDEN
10
0.054122
20
0.840277
30
0.0
11
0.054122
21
0.699422
31
0.0
0
LINE
8
FRONT_HID
6
HIDDEN
10
0.366583
20
0.840277
30
0.0
11
0.366389
21
0.832489
31
0.0
0
LINE
8
FRONT_HID
6
HIDDEN
10
0.366389
20
0.832489
30
0.0
11
0.365806
21
0.824721
31
0.0
0
LINE
8
FRONT_HID
6
HIDDEN
10
0.365806
20
0.824721
30
0.0
11
0.364838
21
0.816992
31
0.0
0
LINE
8
FRONT_HID
6
HIDDEN
10
0.364838
20
0.816992
30
0.0
11
0.363485
21
0.809320
31
0.0
0
LINE
8
FRONT_HID
6
HIDDEN
10
0.363485
20
0.809320
30
0.0
11
0.361752
21
0.801726
31
0.0
0
LINE
8
FRONT_HID
6
HIDDEN
10
0.361752
20
0.801726
30
0.0
11
0.359642
21
0.794227
31
0.0
0
LINE
8
FRONT_HID
6
HIDDEN
10
0.359642
20
0.794227
30
0.0
11
0.357161
21
0.786843
31
0.0
0
LINE
8
FRONT_HID
6
HIDDEN
10
0.357161
20
0.786843
30
0.0
11
0.354315
21
0.779592
31
0.0
0
LINE
8
FRONT_HID
6
HIDDEN
10
0.354315
20
0.779592
30
0.0
11
0.351111
21
0.772491
31
0.0
0
LINE
8
FRONT_HID
6
HIDDEN
10
0.351111
20
0.772491
30
0.0
11
0.347557
21
0.765559
31
0.0
0
LINE
8
FRONT_HID
6
HIDDEN
10
0.347557
20
0.765559
30
0.0
11
0.343662
21
0.758813
31
0.0
0
LINE
8
FRONT_HID
6
HIDDEN
10
0.343662
20
0.758813
30
0.0
11
0.339436
21
0.752269
31
0.0
0
LINE
8
FRONT_HID
6
HIDDEN
10
0.339436
20
0.752269
30
0.0
11
0.334889
21
0.745944
31
0.0
0
LINE
8
FRONT_HID
6
HIDDEN
10
0.334889
20
0.745944
30
0.0
11
0.330032
21
0.739854
31
0.0
0
LINE
8
FRONT_HID
6
HIDDEN
10
0.330032
20
0.739854
30
0.0
11
0.324877
21
0.734013
31
0.0
0
LINE
8
FRONT_HID
6
HIDDEN
10
0.324877
20
0.734013
30
0.0
11
0.319438
21
0.728437
31
0.0
0
LINE
8
FRONT_HID
6
HIDDEN
10
0.319438
20
0.728437
30
0.0
11
0.313728
21
0.723138
31
0.0
0
LINE
8
FRONT_HID
6
HIDDEN
10
0.313728
20
0.723138
30
0.0
11
0.307760
21
0.718131
31
0.0
0
LINE
8
FRONT_HID
6
HIDDEN
10
0.307760
20
0.718131
30
0.0
11
0.301551
21
0.713427
31
0.0
0
LINE
8
FRONT_HID
6
HIDDEN
10
0.301551
20
0.713427
30
0.0
11
0.295115
21
0.709039
31
0.0
0
LINE
8
FRONT_HID
6
HIDDEN
10
0.295115
20
0.709039
30
0.0
11
0.288468
21
0.704977
31
0.0
0
LINE
8
FRONT_HID
6
HIDDEN
10
0.288468
20
0.704977
30
0.0
11
0.281626
21
0.701252
31
0.0
0
LINE
8
FRONT_HID
6
HIDDEN
10
0.281626
20
0.701252
30
0.0
11
0.274608
21
0.697872
31
0.0
0
LINE
8
FRONT_HID
6
HIDDEN
10
0.274608
20
0.697872
30
0.0
11
0.267430
21
0.694846
31
0.0
0
LINE
8
FRONT_HID
6
HIDDEN
10
0.267430
20
0.694846
30
0.0
11
0.260110
21
0.692182
31
0.0
0
LINE
8
FRONT_HID
6
HIDDEN
10
0.260110
20
0.692182
30
0.0
11
0.252666
21
0.689886
31
0.0
0
LINE
8
FRONT_HID
6
HIDDEN
10
0.252666
20
0.689886
30
0.0
11
0.245117
21
0.687964
31
0.0
0
LINE
8
FRONT_HID
6
HIDDEN
10
0.245117
20
0.687964
30
0.0
11
0.237482
21
0.686420
31
0.0
0
LINE
8
FRONT_HID
6
HIDDEN
10
0.237482
20
0.686420
30
0.0
11
0.229779
21
0.685259
31
0.0
0
LINE
8
FRONT_HID
6
HIDDEN
10
0.229779
20
0.685259
30
0.0
11
0.222028
21
0.684483
31
0.0
0
LINE
8
FRONT_HID
6
HIDDEN
10
0.222028
20
0.684483
30
0.0
11
0.214247
21
0.684095
31
0.0
0
LINE
8
FRONT_HID
6
HIDDEN
10
0.214247
20
0.684095
30
0.0
11
0.206457
21
0.684095
31
0.0
0
LINE
8
FRONT_HID
6
HIDDEN
10
0.206457
20
0.684095
30
0.0
11
0.198677
21
0.684483
31
0.0
0
LINE
8
FRONT_HID
6
HIDDEN
10
0.198677
20
0.684483
30
0.0
11
0.190926
21
0.685259
31
0.0
0
LINE
8
FRONT_HID
6
HIDDEN
10
0.190926
20
0.685259
30
0.0
11
0.183223
21
0.686420
31
0.0
0
LINE
8
FRONT_HID
6
HIDDEN
10
0.183223
20
0.686420
30
0.0
11
0.175588
21
0.687964
31
0.0
0
LINE
8
FRONT_HID
6
HIDDEN
10
0.175588
20
0.687964
30
0.0
11
0.168039
21
0.689886
31
0.0
0
LINE
8
FRONT_HID
6
HIDDEN
10
0.168039
20
0.689886
30
0.0
11
0.160595
21
0.692182
31
0.0
0
LINE
8
FRONT_HID
6
HIDDEN
10
0.160595
20
0.692182
30
0.0
11
0.153275
21
0.694846
31
0.0
0
LINE
8
FRONT_HID
6
HIDDEN
10
0.153275
20
0.694846
30
0.0
11
0.146097
21
0.697872
31
0.0
0
LINE
8
FRONT_HID
6
HIDDEN
10
0.146097
20
0.697872
30
0.0
11
0.139078
21
0.701252
31
0.0
0
LINE
8
FRONT_HID
6
HIDDEN
10
0.139078
20
0.701252
30
0.0
11
0.132237
21
0.704977
31
0.0
0
LINE
8
FRONT_HID
6
HIDDEN
10
0.132237
20
0.704977
30
0.0
11
0.125590
21
0.709039
31
0.0
0
LINE
8
FRONT_HID
6
HIDDEN
10
0.125590
20
0.709039
30
0.0
11
0.119154
21
0.713427
31
0.0
0
LINE
8
FRONT_HID
6
HIDDEN
10
0.119154
20
0.713427
30
0.0
11
0.112944
21
0.718131
31
0.0
0
LINE
8
FRONT_HID
6
HIDDEN
10
0.112944
20
0.718131
30
0.0
11
0.106977
21
0.723138
31
0.0
0
LINE
8
FRONT_HID
6
HIDDEN
10
0.106977
20
0.723138
30
0.0
11
0.101267
21
0.728437
31
0.0
0
LINE
8
FRONT_HID
6
HIDDEN
10
0.101267
20
0.728437
30
0.0
11
0.095827
21
0.734013
31
0.0
0
LINE
8
FRONT_HID
6
HIDDEN
10
0.095827
20
0.734013
30
0.0
11
0.090673
21
0.739854
31
0.0
0
LINE
8
FRONT_HID
6
HIDDEN
10
0.090673
20
0.739854
30
0.0
11
0.085816
21
0.745944
31
0.0
0
LINE
8
FRONT_HID
6
HIDDEN
10
0.085816
20
0.745944
30
0.0
11
0.081269
21
0.752269
31
0.0
0
LINE
8
FRONT_HID
6
HIDDEN
10
0.081269
20
0.752269
30
0.0
11
0.077042
21
0.758813
31
0.0
0
LINE
8
FRONT_HID
6
HIDDEN
10
0.077042
20
0.758813
30
0.0
11
0.073148
21
0.765559
31
0.0
0
LINE
8
FRONT_HID
6
HIDDEN
10
0.073148
20
0.765559
30
0.0
11
0.069594
21
0.772491
31
0.0
0
LINE
8
FRONT_HID
6
HIDDEN
10
0.069594
20
0.772491
30
0.0
11
0.066390
21
0.779592
31
0.0
0
LINE
8
FRONT_HID
6
HIDDEN
10
0.066390
20
0.779592
30
0.0
11
0.063544
21
0.786843
31
0.0
0
LINE
8
FRONT_HID
6
HIDDEN
10
0.063544
20
0.786843
30
0.0
11
0.061063
21
0.794227
31
0.0
0
LINE
8
FRONT_HID
6
HIDDEN
10
0.061063
20
0.794227
30
0.0
11
0.058953
21
0.801726
31
0.0
0
LINE
8
FRONT_HID
6
HIDDEN
10
0.058953
20
0.801726
30
0.0
11
0.057220
21
0.809320
31
0.0
0
LINE
8
FRONT_HID
6
HIDDEN
10
0.057220
20
0.809320
30
0.0
11
0.055867
21
0.816992
31
0.0
0
LINE
8
FRONT_HID
6
HIDDEN
10
0.055867
20
0.816992
30
0.0
11
0.054898
21
0.824721
31
0.0
0
LINE
8
FRONT_HID
6
HIDDEN
10
0.054898
20
0.824721
30
0.0
11
0.054316
21
0.832489
31
0.0
0
LINE
8
FRONT_HID
6
HIDDEN
10
0.054316
20
0.832489
30
0.0
11
0.054122
21
0.840277
31
0.0
0
LINE
8
FRONT_HID
6
HIDDEN
10
0.366583
20
0.699422
30
0.0
11
0.366583
21
0.840277
31
0.0
0
LINE
8
FRONT_HID
6
HIDDEN
10
0.366583
20
0.354751
30
0.0
11
0.366583
21
0.699422
31
0.0
0
LINE
8
FRONT_HID
6
HIDDEN
10
0.054122
20
0.354751
30
0.0
11
0.366583
21
0.354751
31
0.0
0
LINE
8
FRONT_HID
6
HIDDEN
10
0.691315
20
0.687806
30
0.0
11
0.691315
21
0.601210
31
0.0
0
LINE
8
RIGHT
10
0.829578
20
0.300629
30
0.0
11
0.991945
21
0.300629
31
0.0
0
LINE
8
RIGHT
10
0.991945
20
0.300629
30
0.0
11
0.991945
21
0.840277
31
0.0
0
LINE
8
RIGHT
10
0.829578
20
0.840277
30
0.0
11
0.991945
21
0.840277
31
0.0
0
LINE
8
RIGHT
10
0.829578
20
0.300629
30
0.0
11
0.829578
21
0.840277
31
0.0
0
LINE
8
RIGHT
10
0.910761
20
0.687806
30
0.0
11
0.915072
21
0.687591
31
0.0
0
LINE
8
RIGHT
10
0.915072
20
0.687591
30
0.0
11
0.919341
21
0.686947
31
0.0
0
LINE
8
RIGHT
10
0.919341
20
0.686947
30
0.0
11
0.923524
21
0.685882
31
0.0
0
LINE
8
RIGHT
10
0.923524
20
0.685882
30
0.0
11
0.927580
21
0.684406
31
0.0
0
LINE
8
RIGHT
10
0.927580
20
0.684406
30
0.0
11
0.931469
21
0.682533
31
0.0
0
LINE
8
RIGHT
10
0.931469
20
0.682533
30
0.0
11
0.935152
21
0.680282
31
0.0
0
LINE
8
RIGHT
10
0.935152
20
0.680282
30
0.0
11
0.938593
21
0.677676
31
0.0
0
LINE
8
RIGHT
10
0.938593
20
0.677676
30
0.0
11
0.941757
21
0.674740
31
0.0
0
LINE
8
RIGHT
10
0.941757
20
0.674740
30
0.0
11
0.944613
21
0.671504
31
0.0
0
LINE
8
RIGHT
10
0.944613
20
0.671504
30
0.0
11
0.947133
21
0.667999
31
0.0
0
LINE
8
RIGHT
10
0.947133
20
0.667999
30
0.0
11
0.949291
21
0.664261
31
0.0
0
LINE
8
RIGHT
10
0.949291
20
0.664261
30
0.0
11
0.951066
21
0.660326
31
0.0
0
LINE
8
RIGHT
10
0.951066
20
0.660326
30
0.0
11
0.952441
21
0.656235
31
0.0
0
LINE
8
RIGHT
10
0.952441
20
0.656235
30
0.0
11
0.953401
21
0.652027
31
0.0
0
LINE
8
RIGHT
10
0.953401
20
0.652027
30
0.0
11
0.953938
21
0.647744
31
0.0
0
LINE
8
RIGHT
10
0.953938
20
0.647744
30
0.0
11
0.954046
21
0.643429
31
0.0
0
LINE
8
RIGHT
10
0.954046
20
0.643429
30
0.0
11
0.953723
21
0.639124
31
0.0
0
LINE
8
RIGHT
10
0.953723
20
0.639124
30
0.0
11
0.952974
21
0.634873
31
0.0
0
LINE
8
RIGHT
10
0.952974
20
0.634873
30
0.0
11
0.951804
21
0.630718
31
0.0
0
LINE
8
RIGHT
10
0.951804
20
0.630718
30
0.0
11
0.950228
21
0.626700
31
0.0
0
LINE
8
RIGHT
10
0.950228
20
0.626700
30
0.0
11
0.948258
21
0.622859
31
0.0
0
LINE
8
RIGHT
10
0.948258
20
0.622859
30
0.0
11
0.945916
21
0.619233
31
0.0
0
LINE
8
RIGHT
10
0.945916
20
0.619233
30
0.0
11
0.943225
21
0.615859
31
0.0
0
LINE
8
RIGHT
10
0.943225
20
0.615859
30
0.0
11
0.940211
21
0.612769
31
0.0
0
LINE
8
RIGHT
10
0.940211
20
0.612769
30
0.0
11
0.936905
21
0.609994
31
0.0
0
LINE
8
RIGHT
10
0.936905
20
0.609994
30
0.0
11
0.933338
21
0.607563
31
0.0
0
LINE
8
RIGHT
10
0.933338
20
0.607563
30
0.0
11
0.929548
21
0.605498
31
0.0
0
LINE
8
RIGHT
10
0.929548
20
0.605498
30
0.0
11
0.925570
21
0.603822
31
0.0
0
LINE
8
RIGHT
10
0.925570
20
0.603822
30
0.0
11
0.921445
21
0.602549
31
0.0
0
LINE
8
RIGHT
10
0.921445
20
0.602549
30
0.0
11
0.917215
21
0.601694
31
0.0
0
LINE
8
RIGHT
10
0.917215
20
0.601694
30
0.0
11
0.912920
21
0.601264
31
0.0
0
LINE
8
RIGHT
10
0.912920
20
0.601264
30
0.0
11
0.908603
21
0.601264
31
0.0
0
LINE
8
RIGHT
10
0.908603
20
0.601264
30
0.0
11
0.904308
21
0.601694
31
0.0
0
LINE
8
RIGHT
10
0.904308
20
0.601694
30
0.0
11
0.900077
21
0.602549
31
0.0
0
LINE
8
RIGHT
10
0.900077
20
0.602549
30
0.0
11
0.895953
21
0.603822
31
0.0
0
LINE
8
RIGHT
10
0.895953
20
0.603822
30
0.0
11
0.891975
21
0.605498
31
0.0
0
LINE
8
RIGHT
10
0.891975
20
0.605498
30
0.0
11
0.888185
21
0.607563
31
0.0
0
LINE
8
RIGHT
10
0.888185
20
0.607563
30
0.0
11
0.884618
21
0.609994
31
0.0
0
LINE
8
RIGHT
10
0.884618
20
0.609994
30
0.0
11
0.881312
21
0.612769
31
0.0
0
LINE
8
RIGHT
10
0.881312
20
0.612769
30
0.0
11
0.878298
21
0.615859
31
0.0
0
LINE
8
RIGHT
10
0.878298
20
0.615859
30
0.0
11
0.875606
21
0.619233
31
0.0
0
LINE
8
RIGHT
10
0.875606
20
0.619233
30
0.0
11
0.873265
21
0.622859
31
0.0
0
LINE
8
RIGHT
10
0.873265
20
0.622859
30
0.0
11
0.871295
21
0.626700
31
0.0
0
LINE
8
RIGHT
10
0.871295
20
0.626700
30
0.0
11
0.869718
21
0.630718
31
0.0
0
LINE
8
RIGHT
10
0.869718
20
0.630718
30
0.0
11
0.868549
21
0.634873
31
0.0
0
LINE
8
RIGHT
10
0.868549
20
0.634873
30
0.0
11
0.867800
21
0.639124
31
0.0
0
LINE
8
RIGHT
10
0.867800
20
0.639124
30
0.0
11
0.867477
21
0.643429
31
0.0
0
LINE
8
RIGHT
10
0.867477
20
0.643429
30
0.0
11
0.867585
21
0.647744
31
0.0
0
LINE
8
RIGHT
10
0.867585
20
0.647744
30
0.0
11
0.868122
21
0.652027
31
0.0
0
LINE
8
RIGHT
10
0.868122
20
0.652027
30
0.0
11
0.869082
21
0.656235
31
0.0
0
LINE
8
RIGHT
10
0.869082
20
0.656235
30
0.0
11
0.870457
21
0.660326
31
0.0
0
LINE
8
RIGHT
10
0.870457
20
0.660326
30
0.0
11
0.872232
21
0.664261
31
0.0
0
LINE
8
RIGHT
10
0.872232
20
0.664261
30
0.0
11
0.874390
21
0.667999
31
0.0
0
LINE
8
RIGHT
10
0.874390
20
0.667999
30
0.0
11
0.876910
21
0.671504
31
0.0
0
LINE
8
RIGHT
10
0.876910
20
0.671504
30
0.0
11
0.879766
21
0.674740
31
0.0
0
LINE
8
RIGHT
10
0.879766
20
0.674740
30
0.0
11
0.882930
21
0.677676
31
0.0
0
LINE
8
RIGHT
10
0.882930
20
0.677676
30
0.0
11
0.886371
21
0.680282
31
0.0
0
LINE
8
RIGHT
10
0.886371
20
0.680282
30
0.0
11
0.890054
21
0.682533
31
0.0
0
LINE
8
RIGHT
10
0.890054
20
0.682533
30
0.0
11
0.893943
21
0.684406
31
0.0
0
LINE
8
RIGHT
10
0.893943
20
0.684406
30
0.0
11
0.897999
21
0.685882
31
0.0
0
LINE
8
RIGHT
10
0.897999
20
0.685882
30
0.0
11
0.902182
21
0.686947
31
0.0
0
LINE
8
RIGHT
10
0.902182
20
0.686947
30
0.0
11
0.906450
21
0.687591
31
0.0
0
LINE
8
RIGHT
10
0.906450
20
0.687591
30
0.0
11
0.910761
21
0.687806
31
0.0
0
LINE
8
RIGHT_HID
6
HIDDEN
10
0.829578
20
0.300629
30
0.0
11
0.991945
21
0.300629
31
0.0
0
LINE
8
RIGHT_HID
6
HIDDEN
10
0.829578
20
0.840277
30
0.0
11
0.991945
21
0.840277
31
0.0
0
LINE
8
RIGHT_HID
6
HIDDEN
10
0.991945
20
0.840277
30
0.0
11
0.991945
21
0.300629
31
0.0
0
LINE
8
RIGHT_HID
6
HIDDEN
10
0.829578
20
0.840277
30
0.0
11
0.829578
21
0.300629
31
0.0
0
LINE
8
RIGHT_HID
6
HIDDEN
10
0.910761
20
0.687806
30
0.0
11
0.915072
21
0.687591
31
0.0
0
LINE
8
RIGHT_HID
6
HIDDEN
10
0.915072
20
0.687591
30
0.0
11
0.919341
21
0.686947
31
0.0
0
LINE
8
RIGHT_HID
6
HIDDEN
10
0.919341
20
0.686947
30
0.0
11
0.923524
21
0.685882
31
0.0
0
LINE
8
RIGHT_HID
6
HIDDEN
10
0.923524
20
0.685882
30
0.0
11
0.927580
21
0.684406
31
0.0
0
LINE
8
RIGHT_HID
6
HIDDEN
10
0.927580
20
0.684406
30
0.0
11
0.931469
21
0.682533
31
0.0
0
LINE
8
RIGHT_HID
6
HIDDEN
10
0.931469
20
0.682533
30
0.0
11
0.935152
21
0.680282
31
0.0
0
LINE
8
RIGHT_HID
6
HIDDEN
10
0.935152
20
0.680282
30
0.0
11
0.938593
21
0.677676
31
0.0
0
LINE
8
RIGHT_HID
6
HIDDEN
10
0.938593
20
0.677676
30
0.0
11
0.941757
21
0.674740
31
0.0
0
LINE
8
RIGHT_HID
6
HIDDEN
10
0.941757
20
0.674740
30
0.0
11
0.944613
21
0.671504
31
0.0
0
LINE
8
RIGHT_HID
6
HIDDEN
10
0.944613
20
0.671504
30
0.0
11
0.947133
21
0.667999
31
0.0
0
LINE
8
RIGHT_HID
6
HIDDEN
10
0.947133
20
0.667999
30
0.0
11
0.949291
21
0.664261
31
0.0
0
LINE
8
RIGHT_HID
6
HIDDEN
10
0.949291
20
0.664261
30
0.0
11
0.951066
21
0.660326
31
0.0
0
LINE
8
RIGHT_HID
6
HIDDEN
10
0.951066
20
0.660326
30
0.0
11
0.952441
21
0.656235
31
0.0
0
LINE
8
RIGHT_HID
6
HIDDEN
10
0.952441
20
0.656235
30
0.0
11
0.953401
21
0.652027
31
0.0
0
LINE
8
RIGHT_HID
6
HIDDEN
10
0.953401
20
0.652027
30
0.0
11
0.953938
21
0.647744
31
0.0
0
LINE
8
RIGHT_HID
6
HIDDEN
10
0.953938
20
0.647744
30
0.0
11
0.954046
21
0.643429
31
0.0
0
LINE
8
RIGHT_HID
6
HIDDEN
10
0.954046
20
0.643429
30
0.0
11
0.953723
21
0.639124
31
0.0
0
LINE
8
RIGHT_HID
6
HIDDEN
10
0.953723
20
0.639124
30
0.0
11
0.952974
21
0.634873
31
0.0
0
LINE
8
RIGHT_HID
6
HIDDEN
10
0.952974
20
0.634873
30
0.0
11
0.951804
21
0.630718
31
0.0
0
LINE
8
RIGHT_HID
6
HIDDEN
10
0.951804
20
0.630718
30
0.0
11
0.950228
21
0.626700
31
0.0
0
LINE
8
RIGHT_HID
6
HIDDEN
10
0.950228
20
0.626700
30
0.0
11
0.948258
21
0.622859
31
0.0
0
LINE
8
RIGHT_HID
6
HIDDEN
10
0.948258
20
0.622859
30
0.0
11
0.945916
21
0.619233
31
0.0
0
LINE
8
RIGHT_HID
6
HIDDEN
10
0.945916
20
0.619233
30
0.0
11
0.943225
21
0.615859
31
0.0
0
LINE
8
RIGHT_HID
6
HIDDEN
10
0.943225
20
0.615859
30
0.0
11
0.940211
21
0.612769
31
0.0
0
LINE
8
RIGHT_HID
6
HIDDEN
10
0.940211
20
0.612769
30
0.0
11
0.936905
21
0.609994
31
0.0
0
LINE
8
RIGHT_HID
6
HIDDEN
10
0.936905
20
0.609994
30
0.0
11
0.933338
21
0.607563
31
0.0
0
LINE
8
RIGHT_HID
6
HIDDEN
10
0.933338
20
0.607563
30
0.0
11
0.929548
21
0.605498
31
0.0
0
LINE
8
RIGHT_HID
6
HIDDEN
10
0.929548
20
0.605498
30
0.0
11
0.925570
21
0.603822
31
0.0
0
LINE
8
RIGHT_HID
6
HIDDEN
10
0.925570
20
0.603822
30
0.0
11
0.921445
21
0.602549
31
0.0
0
LINE
8
RIGHT_HID
6
HIDDEN
10
0.921445
20
0.602549
30
0.0
11
0.917215
21
0.601694
31
0.0
0
LINE
8
RIGHT_HID
6
HIDDEN
10
0.917215
20
0.601694
30
0.0
11
0.912920
21
0.601264
31
0.0
0
LINE
8
RIGHT_HID
6
HIDDEN
10
0.912920
20
0.601264
30
0.0
11
0.908603
21
0.601264
31
0.0
0
LINE
8
RIGHT_HID
6
HIDDEN
10
0.908603
20
0.601264
30
0.0
11
0.904308
21
0.601694
31
0.0
0
LINE
8
RIGHT_HID
6
HIDDEN
10
0.904308
20
0.601694
30
0.0
11
0.900077
21
0.602549
31
0.0
0
LINE
8
RIGHT_HID
6
HIDDEN
10
0.900077
20
0.602549
30
0.0
11
0.895953
21
0.603822
31
0.0
0
LINE
8
RIGHT_HID
6
HIDDEN
10
0.895953
20
0.603822
30
0.0
11
0.891975
21
0.605498
31
0.0
0
LINE
8
RIGHT_HID
6
HIDDEN
10
0.891975
20
0.605498
30
0.0
11
0.888185
21
0.607563
31
0.0
0
LINE
8
RIGHT_HID
6
HIDDEN
10
0.888185
20
0.607563
30
0.0
11
0.884618
21
0.609994
31
0.0
0
LINE
8
RIGHT_HID
6
HIDDEN
10
0.884618
20
0.609994
30
0.0
11
0.881312
21
0.612769
31
0.0
0
LINE
8
RIGHT_HID
6
HIDDEN
10
0.881312
20
0.612769
30
0.0
11
0.878298
21
0.615859
31
0.0
0
LINE
8
RIGHT_HID
6
HIDDEN
10
0.878298
20
0.615859
30
0.0
11
0.875606
21
0.619233
31
0.0
0
LINE
8
RIGHT_HID
6
HIDDEN
10
0.875606
20
0.619233
30
0.0
11
0.873265
21
0.622859
31
0.0
0
LINE
8
RIGHT_HID
6
HIDDEN
10
0.873265
20
0.622859
30
0.0
11
0.871295
21
0.626700
31
0.0
0
LINE
8
RIGHT_HID
6
HIDDEN
10
0.871295
20
0.626700
30
0.0
11
0.869718
21
0.630718
31
0.0
0
LINE
8
RIGHT_HID
6
HIDDEN
10
0.869718
20
0.630718
30
0.0
11
0.868549
21
0.634873
31
0.0
0
LINE
8
RIGHT_HID
6
HIDDEN
10
0.868549
20
0.634873
30
0.0
11
0.867800
21
0.639124
31
0.0
0
LINE
8
RIGHT_HID
6
HIDDEN
10
0.867800
20
0.639124
30
0.0
11
0.867477
21
0.643429
31
0.0
0
LINE
8
RIGHT_HID
6
HIDDEN
10
0.867477
20
0.643429
30
0.0
11
0.867585
21
0.647744
31
0.0
0
LINE
8
RIGHT_HID
6
HIDDEN
10
0.867585
20
0.647744
30
0.0
11
0.868122
21
0.652027
31
0.0
0
LINE
8
RIGHT_HID
6
HIDDEN
10
0.868122
20
0.652027
30
0.0
11
0.869082
21
0.656235
31
0.0
0
LINE
8
RIGHT_HID
6
HIDDEN
10
0.869082
20
0.656235
30
0.0
11
0.870457
21
0.660326
31
0.0
0
LINE
8
RIGHT_HID
6
HIDDEN
10
0.870457
20
0.660326
30
0.0
11
0.872232
21
0.664261
31
0.0
0
LINE
8
RIGHT_HID
6
HIDDEN
10
0.872232
20
0.664261
30
0.0
11
0.874390
21
0.667999
31
0.0
0
LINE
8
RIGHT_HID
6
HIDDEN
10
0.874390
20
0.667999
30
0.0
11
0.876910
21
0.671504
31
0.0
0
LINE
8
RIGHT_HID
6
HIDDEN
10
0.876910
20
0.671504
30
0.0
11
0.879766
21
0.674740
31
0.0
0
LINE
8
RIGHT_HID
6
HIDDEN
10
0.879766
20
0.674740
30
0.0
11
0.882930
21
0.677676
31
0.0
0
LINE
8
RIGHT_HID
6
HIDDEN
10
0.882930
20
0.677676
30
0.0
11
0.886371
21
0.680282
31
0.0
0
LINE
8
RIGHT_HID
6
HIDDEN
10
0.886371
20
0.680282
30
0.0
11
0.890054
21
0.682533
31
0.0
0
LINE
8
RIGHT_HID
6
HIDDEN
10
0.890054
20
0.682533
30
0.0
11
0.893943
21
0.684406
31
0.0
0
LINE
8
RIGHT_HID
6
HIDDEN
10
0.893943
20
0.684406
30
0.0
11
0.897999
21
0.685882
31
0.0
0
LINE
8
RIGHT_HID
6
HIDDEN
10
0.897999
20
0.685882
30
0.0
11
0.902182
21
0.686947
31
0.0
0
LINE
8
RIGHT_HID
6
HIDDEN
10
0.902182
20
0.686947
30
0.0
11
0.906450
21
0.687591
31
0.0
0
LINE
8
RIGHT_HID
6
HIDDEN
10
0.906450
20
0.687591
30
0.0
11
0.910761
21
0.687806
31
0.0
0
LINE
8
RIGHT_HID
6
HIDDEN
10
0.829578
20
0.840277
30
0.0
11
0.829578
21
0.699422
31
0.0
0
LINE
8
RIGHT_HID
6
HIDDEN
10
0.829578
20
0.699422
30
0.0
11
0.829578
21
0.629924
31
0.0
0
LINE
8
RIGHT_HID
6
HIDDEN
10
0.829578
20
0.629924
30
0.0
11
0.829578
21
0.699422
31
0.0
0
LINE
8
RIGHT_HID
6
HIDDEN
10
0.829578
20
0.699422
30
0.0
11
0.829578
21
0.840277
31
0.0
0
LINE
8
RIGHT_HID
6
HIDDEN
10
0.829578
20
0.699422
30
0.0
11
0.829578
21
0.354751
31
0.0
0
LINE
8
RIGHT_HID
6
HIDDEN
10
0.829578
20
0.840277
30
0.0
11
0.829578
21
0.699422
31
0.0
0
LINE
8
RIGHT_HID
6
HIDDEN
10
0.829578
20
0.840277
30
0.0
11
0.829578
21
0.684047
31
0.0
0
LINE
8
RIGHT_HID
6
HIDDEN
10
0.829578
20
0.684047
30
0.0
11
0.829578
21
0.840277
31
0.0
0
LINE
8
RIGHT_HID
6
HIDDEN
10
0.829578
20
0.699422
30
0.0
11
0.829578
21
0.840277
31
0.0
0
LINE
8
RIGHT_HID
6
HIDDEN
10
0.829578
20
0.354751
30
0.0
11
0.829578
21
0.699422
31
0.0
0
LINE
8
RIGHT_HID
6
HIDDEN
10
0.991945
20
0.840277
30
0.0
11
0.991945
21
0.699422
31
0.0
0
LINE
8
RIGHT_HID
6
HIDDEN
10
0.991945
20
0.699422
30
0.0
11
0.991945
21
0.629924
31
0.0
0
LINE
8
RIGHT_HID
6
HIDDEN
10
0.991945
20
0.629924
30
0.0
11
0.991945
21
0.699422
31
0.0
0
LINE
8
RIGHT_HID
6
HIDDEN
10
0.991945
20
0.699422
30
0.0
11
0.991945
21
0.840277
31
0.0
0
LINE
8
RIGHT_HID
6
HIDDEN
10
0.991945
20
0.699422
30
0.0
11
0.991945
21
0.354751
31
0.0
0
LINE
8
RIGHT_HID
6
HIDDEN
10
0.991945
20
0.840277
30
0.0
11
0.991945
21
0.699422
31
0.0
0
LINE
8
RIGHT_HID
6
HIDDEN
10
0.991945
20
0.840277
30
0.0
11
0.991945
21
0.684047
31
0.0
0
LINE
8
RIGHT_HID
6
HIDDEN
10
0.991945
20
0.684047
30
0.0
11
0.991945
21
0.840277
31
0.0
0
LINE
8
RIGHT_HID
6
HIDDEN
10
0.991945
20
0.699422
30
0.0
11
0.991945
21
0.840277
31
0.0
0
LINE
8
RIGHT_HID
6
HIDDEN
10
0.991945
20
0.354751
30
0.0
11
0.991945
21
0.699422
31
0.0
0
LINE
8
RIGHT_HID
6
HIDDEN
10
0.829578
20
0.354751
30
0.0
11
0.991945
21
0.354751
31
0.0
0
LINE
8
RIGHT_HID
6
HIDDEN
10
0.829578
20
0.354751
30
0.0
11
0.991945
21
0.354751
31
0.0
0
LINE
8
RIGHT_HID
6
HIDDEN
10
0.829578
20
0.840277
30
0.0
11
0.991945
21
0.840277
31
0.0
0
LINE
8
RIGHT_HID
6
HIDDEN
10
0.829578
20
0.840277
30
0.0
11
0.991945
21
0.840277
31
0.0
0
LINE
8
RIGHT_HID
6
HIDDEN
10
0.991945
20
0.629924
30
0.0
11
0.829578
21
0.629924
31
0.0
0
LINE
8
RIGHT_HID
6
HIDDEN
10
0.991945
20
0.684047
30
0.0
11
0.829578
21
0.684047
31
0.0
0
LINE
8
TOP
10
0.000000
20
0.162366
30
0.0
11
0.000000
21
0.000000
31
0.0
0
LINE
8
TOP
10
0.420705
20
0.162366
30
0.0
11
0.420705
21
0.000000
31
0.0
0
LINE
8
TOP
10
0.420705
20
0.162366
30
0.0
11
0.366583
21
0.162366
31
0.0
0
LINE
8
TOP
10
0.366583
20
0.162366
30
0.0
11
0.054122
21
0.162366
31
0.0
0
LINE
8
TOP
10
0.054122
20
0.162366
30
0.0
11
0.000000
21
0.162366
31
0.0
0
LINE
8
TOP
10
0.366583
20
0.162366
30
0.0
11
0.054122
21
0.162366
31
0.0
0
LINE
8
TOP
10
0.420705
20
0.000000
30
0.0
11
0.366583
21
0.000000
31
0.0
0
LINE
8
TOP
10
0.366583
20
0.000000
30
0.0
11
0.054122
21
0.000000
31
0.0
0
LINE
8
TOP
10
0.054122
20
0.000000
30
0.0
11
0.000000
21
0.000000
31
0.0
0
LINE
8
TOP
10
0.366583
20
0.000000
30
0.0
11
0.054122
21
0.000000
31
0.0
0
LINE
8
TOP
10
0.691315
20
0.081183
30
0.0
11
0.691315
21
0.037885
31
0.0
0
LINE
8
TOP
10
0.691315
20
0.124481
30
0.0
11
0.691315
21
0.081183
31
0.0
0
LINE
8
TOP
10
0.366583
20
0.162366
30
0.0
11
0.366583
21
0.000000
31
0.0
0
LINE
8
TOP
10
0.054122
20
0.162366
30
0.0
11
0.054122
21
0.000000
31
0.0
0
LINE
8
TOP
10
0.420705
20
0.081183
30
0.0
11
0.691315
21
0.081183
31
0.0
0
LINE
8
TOP
10
0.691315
20
0.124481
30
0.0
11
0.420705
21
0.124481
31
0.0
0
LINE
8
TOP
10
0.691315
20
0.037885
30
0.0
11
0.420705
21
0.037885
31
0.0
0
LINE
8
TOP_HID
6
HIDDEN
10
0.000000
20
0.162366
30
0.0
11
0.000000
21
0.000000
31
0.0
0
LINE
8
TOP_HID
6
HIDDEN
10
0.000000
20
0.000000
30
0.0
11
0.420705
21
0.000000
31
0.0
0
LINE
8
TOP_HID
6
HIDDEN
10
0.420705
20
0.162366
30
0.0
11
0.420705
21
0.000000
31
0.0
0
LINE
8
TOP_HID
6
HIDDEN
10
0.000000
20
0.162366
30
0.0
11
0.420705
21
0.162366
31
0.0
0
LINE
8
TOP_HID
6
HIDDEN
10
0.420705
20
0.081183
30
0.0
11
0.420705
21
0.037885
31
0.0
0
LINE
8
TOP_HID
6
HIDDEN
10
0.420705
20
0.037885
30
0.0
11
0.420705
21
0.124481
31
0.0
0
LINE
8
TOP_HID
6
HIDDEN
10
0.420705
20
0.124481
30
0.0
11
0.420705
21
0.081183
31
0.0
0
LINE
8
TOP_HID
6
HIDDEN
10
0.054122
20
0.162366
30
0.0
11
0.366583
21
0.162366
31
0.0
0
LINE
8
TOP_HID
6
HIDDEN
10
0.054122
20
0.000000
30
0.0
11
0.366583
21
0.000000
31
0.0
0
LINE
8
TOP_HID
6
HIDDEN
10
0.691315
20
0.037885
30
0.0
11
0.691315
21
0.124481
31
0.0
0
LINE
8
TOP_HID
6
HIDDEN
10
0.054122
20
0.162366
30
0.0
11
0.054122
21
0.000000
31
0.0
0
LINE
8
TOP_HID
6
HIDDEN
10
0.366583
20
0.162366
30
0.0
11
0.366583
21
0.000000
31
0.0
0
ENDSEC
0
EOF
