0
SECTION
2
HEADER
9
$ACADVER
1
AC1009
0
ENDSEC
0
SECTION
2
TABLES
0
TABLE
2
LTYPE
70
3
0
LTYPE
2
CONTINUOUS
70
0
3
Solid line
72
65
73
0
40
0.0
0
LTYPE
2
HIDDEN
70
0
3
__ __ __ __ __
72
65
73
2
40
0.044748
49
0.029847
49
-0.014901
0
LTYPE
2
CENTER
70
0
3
___ _ ___ _ ___
72
65
73
4
40
0.104398
49
0.059649
49
-0.014901
49
0.014901
49
-0.014901
0
ENDTAB
0
TABLE
2
LAYER
70
6
0
LAYER
2
0
70
0
62
7
6
CONTINUOUS
0
LAYER
2
FRONT
70
0
62
7
6
CONTINUOUS
0
LAYER
2
LEFT
70
0
62
7
6
CONTINUOUS
0
LAYER
2
LEFT_HID
70
0
62
7
6
HIDDEN
0
LAYER
2
TOP
70
0
62
7
6
CONTINUOUS
0
LAYER
2
TOP_HID
70
0
62
7
6
HIDDEN
0
ENDTAB
0
ENDSEC
0
SECTION
2
ENTITIES
0
LINE
8
FRONT
10
0.000000
20
0.656846
30
0.0
11
0.002224
21
0.612292
31
0.0
0
LINE
8
FRONT
10
0.002224
20
0.612292
30
0.0
11
0.008872
21
0.568180
31
0.0
0
LINE
8
FRONT
10
0.008872
20
0.568180
30
0.0
11
0.019880
21
0.524949
31
0.0
0
LINE
8
FRONT
10
0.019880
20
0.524949
30
0.0
11
0.035138
21
0.483029
31
0.0
0
LINE
8
FRONT
10
0.035138
20
0.483029
30
0.0
11
0.054494
21
0.442836
31
0.0
0
LINE
8
FRONT
10
0.054494
20
0.442836
30
0.0
11
0.077755
21
0.404771
31
0.0
0
LINE
8
FRONT
10
0.077755
20
0.404771
30
0.0
11
0.104691
21
0.369210
31
0.0
0
LINE
8
FRONT
10
0.104691
20
0.369210
30
0.0
11
0.135034
21
0.336509
31
0.0
0
LINE
8
FRONT
10
0.135034
20
0.336509
30
0.0
11
0.168482
21
0.306991
31
0.0
0
LINE
8
FRONT
10
0.168482
20
0.306991
30
0.0
11
0.204703
21
0.280950
31
0.0
0
LINE
8
FRONT
10
0.204703
20
0.280950
30
0.0
11
0.243336
21
0.258644
31
0.0
0
LINE
8
FRONT
10
0.243336
20
0.258644
30
0.0
11
0.283999
21
0.240297
31
0.0
0
LINE
8
FRONT
10
0.283999
20
0.240297
30
0.0
11
0.326286
21
0.226089
31
0.0
0
LINE
8
FRONT
10
0.326286
20
0.226089
30
0.0
11
0.369778
21
0.216162
31
0.0
0
LINE
8
FRONT
10
0.369778
20
0.216162
30
0.0
11
0.414042
21
0.210615
31
0.0
0
LINE
8
FRONT
10
0.414042
20
0.210615
30
0.0
11
0.458638
21
0.209503
31
0.0
0
LINE
8
FRONT
10
0.458638
20
0.209503
30
0.0
11
0.503124
21
0.212837
31
0.0
0
LINE
8
FRONT
10
0.503124
20
0.212837
30
0.0
11
0.547057
21
0.220583
31
0.0
0
LINE
8
FRONT
10
0.547057
20
0.220583
30
0.0
11
0.590000
21
0.232666
31
0.0
0
LINE
8
FRONT
10
0.590000
20
0.232666
30
0.0
11
0.631526
21
0.248964
31
0.0
0
LINE
8
FRONT
10
0.631526
20
0.248964
30
0.0
11
0.671224
21
0.269315
31
0.0
0
LINE
8
FRONT
10
0.671224
20
0.269315
30
0.0
11
0.708697
21
0.293518
31
0.0
0
LINE
8
FRONT
10
0.708697
20
0.293518
30
0.0
11
0.743575
21
0.321333
31
0.0
0
LINE
8
FRONT
10
0.743575
20
0.321333
30
0.0
11
0.775510
21
0.352481
31
0.0
0
LINE
8
FRONT
10
0.775510
20
0.352481
30
0.0
11
0.804185
21
0.386655
31
0.0
0
LINE
8
FRONT
10
0.804185
20
0.386655
30
0.0
11
0.829315
21
0.423513
31
0.0
0
LINE
8
FRONT
10
0.829315
20
0.423513
30
0.0
11
0.850650
21
0.462691
31
0.0
0
LINE
8
FRONT
10
0.850650
20
0.462691
30
0.0
11
0.867978
21
0.503798
31
0.0
0
LINE
8
FRONT
10
0.867978
20
0.503798
30
0.0
11
0.881127
21
0.546427
31
0.0
0
LINE
8
FRONT
10
0.881127
20
0.546427
30
0.0
11
0.889967
21
0.590153
31
0.0
0
LINE
8
FRONT
10
0.889967
20
0.590153
30
0.0
11
0.894409
21
0.634541
31
0.0
0
LINE
8
FRONT
10
0.894409
20
0.634541
30
0.0
11
0.894409
21
0.679152
31
0.0
0
LINE
8
FRONT
10
0.894409
20
0.679152
30
0.0
11
0.889967
21
0.723540
31
0.0
0
LINE
8
FRONT
10
0.889967
20
0.723540
30
0.0
11
0.881127
21
0.767266
31
0.0
0
LINE
8
FRONT
10
0.881127
20
0.767266
30
0.0
11
0.867978
21
0.809894
31
0.0
0
LINE
8
FRONT
10
0.867978
20
0.809894
30
0.0
11
0.850650
21
0.851002
31
0.0
0
LINE
8
FRONT
10
0.850650
20
0.851002
30
0.0
11
0.829315
21
0.890180
31
0.0
0
LINE
8
FRONT
10
0.829315
20
0.890180
30
0.0
11
0.804185
21
0.927038
31
0.0
0
LINE
8
FRONT
10
0.804185
20
0.927038
30
0.0
11
0.775510
21
0.961212
31
0.0
0
LINE
8
FRONT
10
0.775510
20
0.961212
30
0.0
11
0.743575
21
0.992360
31
0.0
0
LINE
8
FRONT
10
0.743575
20
0.992360
30
0.0
11
0.708697
21
1.020174
31
0.0
0
LINE
8
FRONT
10
0.708697
20
1.020174
30
0.0
11
0.671224
21
1.044378
31
0.0
0
LINE
8
FRONT
10
0.671224
20
1.044378
30
0.0
11
0.631526
21
1.064729
31
0.0
0
LINE
8
FRONT
10
0.631526
20
1.064729
30
0.0
11
0.590000
21
1.081027
31
0.0
0
LINE
8
FRONT
10
0.590000
20
1.081027
30
0.0
11
0.547057
21
1.093110
31
0.0
0
LINE
8
FRONT
10
0.547057
20
1.093110
30
0.0
11
0.503124
21
1.100856
31
0.0
0
LINE
8
FRONT
10
0.503124
20
1.100856
30
0.0
11
0.458638
21
1.104190
31
0.0
0
LINE
8
FRONT
10
0.458638
20
1.104190
30
0.0
11
0.414042
21
1.103078
31
0.0
0
LINE
8
FRONT
10
0.414042
20
1.103078
30
0.0
11
0.369778
21
1.097531
31
0.0
0
LINE
8
FRONT
10
0.369778
20
1.097531
30
0.0
11
0.326286
21
1.087604
31
0.0
0
LINE
8
FRONT
10
0.326286
20
1.087604
30
0.0
11
0.283999
21
1.073396
31
0.0
0
LINE
8
FRONT
10
0.283999
20
1.073396
30
0.0
11
0.243336
21
1.055048
31
0.0
0
LINE
8
FRONT
10
0.243336
20
1.055048
30
0.0
11
0.204703
21
1.032743
31
0.0
0
LINE
8
FRONT
10
0.204703
20
1.032743
30
0.0
11
0.168482
21
1.006702
31
0.0
0
LINE
8
FRONT
10
0.168482
20
1.006702
30
0.0
11
0.135034
21
0.977184
31
0.0
0
LINE
8
FRONT
10
0.135034
20
0.977184
30
0.0
11
0.104691
21
0.944483
31
0.0
0
LINE
8
FRONT
10
0.104691
20
0.944483
30
0.0
11
0.077755
21
0.908922
31
0.0
0
LINE
8
FRONT
10
0.077755
20
0.908922
30
0.0
11
0.054494
21
0.870857
31
0.0
0
LINE
8
FRONT
10
0.054494
20
0.870857
30
0.0
11
0.035138
21
0.830664
31
0.0
0
LINE
8
FRONT
10
0.035138
20
0.830664
30
0.0
11
0.019880
21
0.788744
31
0.0
0
LINE
8
FRONT
10
0.019880
20
0.788744
30
0.0
11
0.008872
21
0.745513
31
0.0
0
LINE
8
FRONT
10
0.008872
20
0.745513
30
0.0
11
0.002224
21
0.701401
31
0.0
0
LINE
8
FRONT
10
0.002224
20
0.701401
30
0.0
11
0.000000
21
0.656846
31
0.0
0
LINE
8
FRONT
10
0.111057
20
0.656846
30
0.0
11
0.111362
21
0.650730
31
0.0
0
LINE
8
FRONT
10
0.111362
20
0.650730
30
0.0
11
0.112275
21
0.644675
31
0.0
0
LINE
8
FRONT
10
0.112275
20
0.644675
30
0.0
11
0.113786
21
0.638741
31
0.0
0
LINE
8
FRONT
10
0.113786
20
0.638741
30
0.0
11
0.115880
21
0.632986
31
0.0
0
LINE
8
FRONT
10
0.115880
20
0.632986
30
0.0
11
0.118538
21
0.627469
31
0.0
0
LINE
8
FRONT
10
0.118538
20
0.627469
30
0.0
11
0.121731
21
0.622243
31
0.0
0
LINE
8
FRONT
10
0.121731
20
0.622243
30
0.0
11
0.125428
21
0.617362
31
0.0
0
LINE
8
FRONT
10
0.125428
20
0.617362
30
0.0
11
0.129593
21
0.612873
31
0.0
0
LINE
8
FRONT
10
0.129593
20
0.612873
30
0.0
11
0.134185
21
0.608821
31
0.0
0
LINE
8
FRONT
10
0.134185
20
0.608821
30
0.0
11
0.139157
21
0.605246
31
0.0
0
LINE
8
FRONT
10
0.139157
20
0.605246
30
0.0
11
0.144460
21
0.602184
31
0.0
0
LINE
8
FRONT
10
0.144460
20
0.602184
30
0.0
11
0.150042
21
0.599666
31
0.0
0
LINE
8
FRONT
10
0.150042
20
0.599666
30
0.0
11
0.155847
21
0.597715
31
0.0
0
LINE
8
FRONT
10
0.155847
20
0.597715
30
0.0
11
0.161817
21
0.596353
31
0.0
0
LINE
8
FRONT
10
0.161817
20
0.596353
30
0.0
11
0.167894
21
0.595591
31
0.0
0
LINE
8
FRONT
10
0.167894
20
0.595591
30
0.0
11
0.174016
21
0.595438
31
0.0
0
LINE
8
FRONT
10
0.174016
20
0.595438
30
0.0
11
0.180122
21
0.595896
31
0.0
0
LINE
8
FRONT
10
0.180122
20
0.595896
30
0.0
11
0.186153
21
0.596959
31
0.0
0
LINE
8
FRONT
10
0.186153
20
0.596959
30
0.0
11
0.192048
21
0.598618
31
0.0
0
LINE
8
FRONT
10
0.192048
20
0.598618
30
0.0
11
0.197748
21
0.600855
31
0.0
0
LINE
8
FRONT
10
0.197748
20
0.600855
30
0.0
11
0.203198
21
0.603649
31
0.0
0
LINE
8
FRONT
10
0.203198
20
0.603649
30
0.0
11
0.208342
21
0.606971
31
0.0
0
LINE
8
FRONT
10
0.208342
20
0.606971
30
0.0
11
0.213130
21
0.610790
31
0.0
0
LINE
8
FRONT
10
0.213130
20
0.610790
30
0.0
11
0.217513
21
0.615065
31
0.0
0
LINE
8
FRONT
10
0.217513
20
0.615065
30
0.0
11
0.221450
21
0.619757
31
0.0
0
LINE
8
FRONT
10
0.221450
20
0.619757
30
0.0
11
0.224899
21
0.624816
31
0.0
0
LINE
8
FRONT
10
0.224899
20
0.624816
30
0.0
11
0.227828
21
0.630194
31
0.0
0
LINE
8
FRONT
10
0.227828
20
0.630194
30
0.0
11
0.230207
21
0.635837
31
0.0
0
LINE
8
FRONT
10
0.230207
20
0.635837
30
0.0
11
0.232012
21
0.641689
31
0.0
0
LINE
8
FRONT
10
0.232012
20
0.641689
30
0.0
11
0.233225
21
0.647691
31
0.0
0
LINE
8
FRONT
10
0.233225
20
0.647691
30
0.0
11
0.233835
21
0.653785
31
0.0
0
LINE
8
FRONT
10
0.233835
20
0.653785
30
0.0
11
0.233835
21
0.659908
31
0.0
0
LINE
8
FRONT
10
0.233835
20
0.659908
30
0.0
11
0.233225
21
0.666002
31
0.0
0
LINE
8
FRONT
10
0.233225
20
0.666002
30
0.0
11
0.232012
21
0.672004
31
0.0
0
LINE
8
FRONT
10
0.232012
20
0.672004
30
0.0
11
0.230207
21
0.677856
31
0.0
0
LINE
8
FRONT
10
0.230207
20
0.677856
30
0.0
11
0.227828
21
0.683499
31
0.0
0
LINE
8
FRONT
10
0.227828
20
0.683499
30
0.0
11
0.224899
21
0.688877
31
0.0
0
LINE
8
FRONT
10
0.224899
20
0.688877
30
0.0
11
0.221450
21
0.693936
31
0.0
0
LINE
8
FRONT
10
0.221450
20
0.693936
30
0.0
11
0.217513
21
0.698628
31
0.0
0
LINE
8
FRONT
10
0.217513
20
0.698628
30
0.0
11
0.213130
21
0.702903
31
0.0
0
LINE
8
FRONT
10
0.213130
20
0.702903
30
0.0
11
0.208342
21
0.706722
31
0.0
0
LINE
8
FRONT
10
0.208342
20
0.706722
30
0.0
11
0.203198
21
0.710044
31
0.0
0
LINE
8
FRONT
10
0.203198
20
0.710044
30
0.0
11
0.197748
21
0.712838
31
0.0
0
LINE
8
FRONT
10
0.197748
20
0.712838
30
0.0
11
0.192048
21
0.715075
31
0.0
0
LINE
8
FRONT
10
0.192048
20
0.715075
30
0.0
11
0.186153
21
0.716734
31
0.0
0
LINE
8
FRONT
10
0.186153
20
0.716734
30
0.0
11
0.180122
21
0.717797
31
0.0
0
LINE
8
FRONT
10
0.180122
20
0.717797
30
0.0
11
0.174016
21
0.718255
31
0.0
0
LINE
8
FRONT
10
0.174016
20
0.718255
30
0.0
11
0.167894
21
0.718102
31
0.0
0
LINE
8
FRONT
10
0.167894
20
0.718102
30
0.0
11
0.161817
21
0.717340
31
0.0
0
LINE
8
FRONT
10
0.161817
20
0.717340
30
0.0
11
0.155847
21
0.715978
31
0.0
0
LINE
8
FRONT
10
0.155847
20
0.715978
30
0.0
11
0.150042
21
0.714027
31
0.0
0
LINE
8
FRONT
10
0.150042
20
0.714027
30
0.0
11
0.144460
21
0.711509
31
0.0
0
LINE
8
FRONT
10
0.144460
20
0.711509
30
0.0
11
0.139157
21
0.708447
31
0.0
0
LINE
8
FRONT
10
0.139157
20
0.708447
30
0.0
11
0.134185
21
0.704872
31
0.0
0
LINE
8
FRONT
10
0.134185
20
0.704872
30
0.0
11
0.129593
21
0.700820
31
0.0
0
LINE
8
FRONT
10
0.129593
20
0.700820
30
0.0
11
0.125428
21
0.696331
31
0.0
0
LINE
8
FRONT
10
0.125428
20
0.696331
30
0.0
11
0.121731
21
0.691450
31
0.0
0
LINE
8
FRONT
10
0.121731
20
0.691450
30
0.0
11
0.118538
21
0.686224
31
0.0
0
LINE
8
FRONT
10
0.118538
20
0.686224
30
0.0
11
0.115880
21
0.680707
31
0.0
0
LINE
8
FRONT
10
0.115880
20
0.680707
30
0.0
11
0.113786
21
0.674952
31
0.0
0
LINE
8
FRONT
10
0.113786
20
0.674952
30
0.0
11
0.112275
21
0.669018
31
0.0
0
LINE
8
FRONT
10
0.112275
20
0.669018
30
0.0
11
0.111362
21
0.662963
31
0.0
0
LINE
8
FRONT
10
0.111362
20
0.662963
30
0.0
11
0.111057
21
0.656846
31
0.0
0
LINE
8
FRONT
10
0.681394
20
0.656846
30
0.0
11
0.681598
21
0.652756
31
0.0
0
LINE
8
FRONT
10
0.681598
20
0.652756
30
0.0
11
0.682208
21
0.648705
31
0.0
0
LINE
8
FRONT
10
0.682208
20
0.648705
30
0.0
11
0.683219
21
0.644736
31
0.0
0
LINE
8
FRONT
10
0.683219
20
0.644736
30
0.0
11
0.684620
21
0.640887
31
0.0
0
LINE
8
FRONT
10
0.684620
20
0.640887
30
0.0
11
0.686397
21
0.637196
31
0.0
0
LINE
8
FRONT
10
0.686397
20
0.637196
30
0.0
11
0.688533
21
0.633701
31
0.0
0
LINE
8
FRONT
10
0.688533
20
0.633701
30
0.0
11
0.691006
21
0.630436
31
0.0
0
LINE
8
FRONT
10
0.691006
20
0.630436
30
0.0
11
0.693792
21
0.627434
31
0.0
0
LINE
8
FRONT
10
0.693792
20
0.627434
30
0.0
11
0.696863
21
0.624723
31
0.0
0
LINE
8
FRONT
10
0.696863
20
0.624723
30
0.0
11
0.700189
21
0.622332
31
0.0
0
LINE
8
FRONT
10
0.700189
20
0.622332
30
0.0
11
0.703736
21
0.620284
31
0.0
0
LINE
8
FRONT
10
0.703736
20
0.620284
30
0.0
11
0.707470
21
0.618600
31
0.0
0
LINE
8
FRONT
10
0.707470
20
0.618600
30
0.0
11
0.711353
21
0.617295
31
0.0
0
LINE
8
FRONT
10
0.711353
20
0.617295
30
0.0
11
0.715346
21
0.616384
31
0.0
0
LINE
8
FRONT
10
0.715346
20
0.616384
30
0.0
11
0.719410
21
0.615874
31
0.0
0
LINE
8
FRONT
10
0.719410
20
0.615874
30
0.0
11
0.723505
21
0.615772
31
0.0
0
LINE
8
FRONT
10
0.723505
20
0.615772
30
0.0
11
0.727590
21
0.616078
31
0.0
0
LINE
8
FRONT
10
0.727590
20
0.616078
30
0.0
11
0.731623
21
0.616790
31
0.0
0
LINE
8
FRONT
10
0.731623
20
0.616790
30
0.0
11
0.735566
21
0.617899
31
0.0
0
LINE
8
FRONT
10
0.735566
20
0.617899
30
0.0
11
0.739379
21
0.619395
31
0.0
0
LINE
8
FRONT
10
0.739379
20
0.619395
30
0.0
11
0.743024
21
0.621264
31
0.0
0
LINE
8
FRONT
10
0.743024
20
0.621264
30
0.0
11
0.746465
21
0.623486
31
0.0
0
LINE
8
FRONT
10
0.746465
20
0.623486
30
0.0
11
0.749667
21
0.626040
31
0.0
0
LINE
8
FRONT
10
0.749667
20
0.626040
30
0.0
11
0.752600
21
0.628900
31
0.0
0
LINE
8
FRONT
10
0.752600
20
0.628900
30
0.0
11
0.755233
21
0.632038
31
0.0
0
LINE
8
FRONT
10
0.755233
20
0.632038
30
0.0
11
0.757540
21
0.635422
31
0.0
0
LINE
8
FRONT
10
0.757540
20
0.635422
30
0.0
11
0.759499
21
0.639019
31
0.0
0
LINE
8
FRONT
10
0.759499
20
0.639019
30
0.0
11
0.761090
21
0.642794
31
0.0
0
LINE
8
FRONT
10
0.761090
20
0.642794
30
0.0
11
0.762297
21
0.646708
31
0.0
0
LINE
8
FRONT
10
0.762297
20
0.646708
30
0.0
11
0.763109
21
0.650723
31
0.0
0
LINE
8
FRONT
10
0.763109
20
0.650723
30
0.0
11
0.763517
21
0.654798
31
0.0
0
LINE
8
FRONT
10
0.763517
20
0.654798
30
0.0
11
0.763517
21
0.658895
31
0.0
0
LINE
8
FRONT
10
0.763517
20
0.658895
30
0.0
11
0.763109
21
0.662970
31
0.0
0
LINE
8
FRONT
10
0.763109
20
0.662970
30
0.0
11
0.762297
21
0.666985
31
0.0
0
LINE
8
FRONT
10
0.762297
20
0.666985
30
0.0
11
0.761090
21
0.670899
31
0.0
0
LINE
8
FRONT
10
0.761090
20
0.670899
30
0.0
11
0.759499
21
0.674673
31
0.0
0
LINE
8
FRONT
10
0.759499
20
0.674673
30
0.0
11
0.757540
21
0.678271
31
0.0
0
LINE
8
FRONT
10
0.757540
20
0.678271
30
0.0
11
0.755233
21
0.681655
31
0.0
0
LINE
8
FRONT
10
0.755233
20
0.681655
30
0.0
11
0.752600
21
0.684793
31
0.0
0
LINE
8
FRONT
10
0.752600
20
0.684793
30
0.0
11
0.749667
21
0.687653
31
0.0
0
LINE
8
FRONT
10
0.749667
20
0.687653
30
0.0
11
0.746465
21
0.690207
31
0.0
0
LINE
8
FRONT
10
0.746465
20
0.690207
30
0.0
11
0.743024
21
0.692429
31
0.0
0
LINE
8
FRONT
10
0.743024
20
0.692429
30
0.0
11
0.739379
21
0.694298
31
0.0
0
LINE
8
FRONT
10
0.739379
20
0.694298
30
0.0
11
0.735566
21
0.695794
31
0.0
0
LINE
8
FRONT
10
0.735566
20
0.695794
30
0.0
11
0.731623
21
0.696903
31
0.0
0
LINE
8
FRONT
10
0.731623
20
0.696903
30
0.0
11
0.727590
21
0.697615
31
0.0
0
LINE
8
FRONT
10
0.727590
20
0.697615
30
0.0
11
0.723505
21
0.697921
31
0.0
0
LINE
8
FRONT
10
0.723505
20
0.697921
30
0.0
11
0.719410
21
0.697819
31
0.0
0
LINE
8
FRONT
10
0.719410
20
0.697819
30
0.0
11
0.715346
21
0.697309
31
0.0
0
LINE
8
FRONT
10
0.715346
20
0.697309
30
0.0
11
0.711353
21
0.696398
31
0.0
0
LINE
8
FRONT
10
0.711353
20
0.696398
30
0.0
11
0.707470
21
0.695093
31
0.0
0
LINE
8
FRONT
10
0.707470
20
0.695093
30
0.0
11
0.703736
21
0.693409
31
0.0
0
LINE
8
FRONT
10
0.703736
20
0.693409
30
0.0
11
0.700189
21
0.691361
31
0.0
0
LINE
8
FRONT
10
0.700189
20
0.691361
30
0.0
11
0.696863
21
0.688970
31
0.0
0
LINE
8
FRONT
10
0.696863
20
0.688970
30
0.0
11
0.693792
21
0.686259
31
0.0
0
LINE
8
FRONT
10
0.693792
20
0.686259
30
0.0
11
0.691006
21
0.683257
31
0.0
0
LINE
8
FRONT
10
0.691006
20
0.683257
30
0.0
11
0.688533
21
0.679992
31
0.0
0
LINE
8
FRONT
10
0.688533
20
0.679992
30
0.0
11
0.686397
21
0.676497
31
0.0
0
LINE
8
FRONT
10
0.686397
20
0.676497
30
0.0
11
0.684620
21
0.672806
31
0.0
0
LINE
8
FRONT
10
0.684620
20
0.672806
30
0.0
11
0.683219
21
0.668957
31
0.0
0
LINE
8
FRONT
10
0.683219
20
0.668957
30
0.0
11
0.682208
21
0.664988
31
0.0
0
LINE
8
FRONT
10
0.682208
20
0.664988
30
0.0
11
0.681598
21
0.660937
31
0.0
0
LINE
8
FRONT
10
0.681598
20
0.660937
30
0.0
11
0.681394
21
0.656846
31
0.0
0
LINE
8
LEFT
10
1.073402
20
0.656986
30
0.0
11
1.073402
21
0.209503
31
0.0
0
LINE
8
LEFT
10
1.073402
20
1.104468
30
0.0
11
1.073402
21
0.656986
31
0.0
0
LINE
8
LEFT
10
1.103912
20
0.656986
30
0.0
11
1.103912
21
0.209503
31
0.0
0
LINE
8
LEFT
10
1.103912
20
1.104468
30
0.0
11
1.103912
21
0.656986
31
0.0
0
LINE
8
LEFT
10
1.103912
20
1.104468
30
0.0
11
1.073402
21
1.104468
31
0.0
0
LINE
8
LEFT
10
1.103912
20
0.209503
30
0.0
11
1.073402
21
0.209503
31
0.0
0
LINE
8
LEFT_HID
6
HIDDEN
10
1.073402
20
0.209503
30
0.0
11
1.073402
21
1.104468
31
0.0
0
LINE
8
LEFT_HID
6
HIDDEN
10
1.103912
20
0.209503
30
0.0
11
1.103912
21
1.104468
31
0.0
0
LINE
8
LEFT_HID
6
HIDDEN
10
1.073402
20
0.656986
30
0.0
11
1.073402
21
0.595558
31
0.0
0
LINE
8
LEFT_HID
6
HIDDEN
10
1.073402
20
0.595558
30
0.0
11
1.073402
21
0.718413
31
0.0
0
LINE
8
LEFT_HID
6
HIDDEN
10
1.073402
20
0.718413
30
0.0
11
1.073402
21
0.656986
31
0.0
0
LINE
8
LEFT_HID
6
HIDDEN
10
1.103912
20
0.656986
30
0.0
11
1.103912
21
0.595558
31
0.0
0
LINE
8
LEFT_HID
6
HIDDEN
10
1.103912
20
0.595558
30
0.0
11
1.103912
21
0.718413
31
0.0
0
LINE
8
LEFT_HID
6
HIDDEN
10
1.103912
20
0.718413
30
0.0
11
1.103912
21
0.656986
31
0.0
0
LINE
8
LEFT_HID
6
HIDDEN
10
1.073402
20
0.656986
30
0.0
11
1.073402
21
0.615899
31
0.0
0
LINE
8
LEFT_HID
6
HIDDEN
10
1.073402
20
0.615899
30
0.0
11
1.073402
21
0.698073
31
0.0
0
LINE
8
LEFT_HID
6
HIDDEN
10
1.073402
20
0.698073
30
0.0
11
1.073402
21
0.656986
31
0.0
0
LINE
8
LEFT_HID
6
HIDDEN
10
1.103912
20
0.656986
30
0.0
11
1.103912
21
0.615899
31
0.0
0
LINE
8
LEFT_HID
6
HIDDEN
10
1.103912
20
0.615899
30
0.0
11
1.103912
21
0.698073
31
0.0
0
LINE
8
LEFT_HID
6
HIDDEN
10
1.103912
20
0.698073
30
0.0
11
1.103912
21
0.656986
31
0.0
0
LINE
8
LEFT_HID
6
HIDDEN
10
1.103912
20
0.718413
30
0.0
11
1.073402
21
0.718413
31
0.0
0
LINE
8
LEFT_HID
6
HIDDEN
10
1.103912
20
0.595558
30
0.0
11
1.073402
21
0.595558
31
0.0
0
LINE
8
LEFT_HID
6
HIDDEN
10
1.103912
20
0.698073
30
0.0
11
1.073402
21
0.698073
31
0.0
0
LINE
8
LEFT_HID
6
HIDDEN
10
1.103912
20
0.615899
30
0.0
11
1.073402
21
0.615899
31
0.0
0
LINE
8
TOP
10
0.894965
20
0.030510
30
0.0
11
0.000000
21
0.030510
31
0.0
0
LINE
8
TOP
10
0.000000
20
0.030510
30
0.0
11
0.000000
21
0.000000
31
0.0
0
LINE
8
TOP
10
0.894965
20
0.000000
30
0.0
11
0.000000
21
0.000000
31
0.0
0
LINE
8
TOP
10
0.894965
20
0.000000
30
0.0
11
0.894965
21
0.030510
31
0.0
0
LINE
8
TOP_HID
6
HIDDEN
10
0.111057
20
0.030510
30
0.0
11
0.233911
21
0.030510
31
0.0
0
LINE
8
TOP_HID
6
HIDDEN
10
0.233911
20
0.030510
30
0.0
11
0.111057
21
0.030510
31
0.0
0
LINE
8
TOP_HID
6
HIDDEN
10
0.111057
20
0.030510
30
0.0
11
0.111057
21
0.000000
31
0.0
0
LINE
8
TOP_HID
6
HIDDEN
10
0.111057
20
0.000000
30
0.0
11
0.233911
21
0.000000
31
0.0
0
LINE
8
TOP_HID
6
HIDDEN
10
0.233911
20
0.000000
30
0.0
11
0.111057
21
0.000000
31
0.0
0
LINE
8
TOP_HID
6
HIDDEN
10
0.681394
20
0.030510
30
0.0
11
0.763568
21
0.030510
31
0.0
0
LINE
8
TOP_HID
6
HIDDEN
10
0.763568
20
0.030510
30
0.0
11
0.681394
21
0.030510
31
0.0
0
LINE
8
TOP_HID
6
HIDDEN
10
0.681394
20
0.030510
30
0.0
11
0.681394
21
0.000000
31
0.0
0
LINE
8
TOP_HID
6
HIDDEN
10
0.681394
20
0.000000
30
0.0
11
0.763568
21
0.000000
31
0.0
0
LINE
8
TOP_HID
6
HIDDEN
10
0.763568
20
0.000000
30
0.0
11
0.681394
21
0.000000
31
0.0
0
LINE
8
TOP_HID
6
HIDDEN
10
0.233911
20
0.000000
30
0.0
11
0.233911
21
0.030510
31
0.0
0
LINE
8
TOP_HID
6
HIDDEN
10
0.763568
20
0.000000
30
0.0
11
0.763568
21
0.030510
31
0.0
0
ENDSEC
0
EOF
