0
SECTION
2
HEADER
9
$ACADVER
1
AC1009
0
ENDSEC
0
SECTION
2
TABLES
0
TABLE
2
LTYPE
70
3
0
LTYPE
2
CONTINUOUS
70
0
3
Solid line
72
65
73
0
40
0.0
0
LTYPE
2
HIDDEN
70
0
3
__ __ __ __ __
72
65
73
2
40
0.063975
49
0.042671
49
-0.021304
0
LTYPE
2
CENTER
70
0
3
___ _ ___ _ ___
72
65
73
4
40
0.149253
49
0.085278
49
-0.021304
49
0.021304
49
-0.021304
0
ENDTAB
0
TABLE
2
LAYER
70
6
0
LAYER
2
0
70
0
62
7
6
CONTINUOUS
0
LAYER
2
FRONT
70
0
62
7
6
CONTINUOUS
0
LAYER
2
LEFT
70
0
62
7
6
CONTINUOUS
0
LAYER
2
LEFT_HID
70
0
62
7
6
HIDDEN
0
LAYER
2
TOP
70
0
62
7
6
CONTINUOUS
0
LAYER
2
TOP_HID
70
0
62
7
6
HIDDEN
0
ENDTAB
0
ENDSEC
0
SECTION
2
ENTITIES
0
LINE
8
FRONT
10
0.000000
20
1.645447
30
0.0
11
0.003179
21
1.581749
31
0.0
0
LINE
8
FRONT
10
0.003179
20
1.581749
30
0.0
11
0.012685
21
1.518684
31
0.0
0
LINE
8
FRONT
10
0.012685
20
1.518684
30
0.0
11
0.028422
21
1.456878
31
0.0
0
LINE
8
FRONT
10
0.028422
20
1.456878
30
0.0
11
0.050235
21
1.396947
31
0.0
0
LINE
8
FRONT
10
0.050235
20
1.396947
30
0.0
11
0.077907
21
1.339485
31
0.0
0
LINE
8
FRONT
10
0.077907
20
1.339485
30
0.0
11
0.111163
21
1.285065
31
0.0
0
LINE
8
FRONT
10
0.111163
20
1.285065
30
0.0
11
0.149672
21
1.234226
31
0.0
0
LINE
8
FRONT
10
0.149672
20
1.234226
30
0.0
11
0.193052
21
1.187473
31
0.0
0
LINE
8
FRONT
10
0.193052
20
1.187473
30
0.0
11
0.240871
21
1.145273
31
0.0
0
LINE
8
FRONT
10
0.240871
20
1.145273
30
0.0
11
0.292655
21
1.108043
31
0.0
0
LINE
8
FRONT
10
0.292655
20
1.108043
30
0.0
11
0.347888
21
1.076154
31
0.0
0
LINE
8
FRONT
10
0.347888
20
1.076154
30
0.0
11
0.406021
21
1.049923
31
0.0
0
LINE
8
FRONT
10
0.406021
20
1.049923
30
0.0
11
0.466478
21
1.029611
31
0.0
0
LINE
8
FRONT
10
0.466478
20
1.029611
30
0.0
11
0.528656
21
1.015419
31
0.0
0
LINE
8
FRONT
10
0.528656
20
1.015419
30
0.0
11
0.591939
21
1.007489
31
0.0
0
LINE
8
FRONT
10
0.591939
20
1.007489
30
0.0
11
0.655696
21
1.005899
31
0.0
0
LINE
8
FRONT
10
0.655696
20
1.005899
30
0.0
11
0.719296
21
1.010665
31
0.0
0
LINE
8
FRONT
10
0.719296
20
1.010665
30
0.0
11
0.782104
21
1.021740
31
0.0
0
LINE
8
FRONT
10
0.782104
20
1.021740
30
0.0
11
0.843498
21
1.039013
31
0.0
0
LINE
8
FRONT
10
0.843498
20
1.039013
30
0.0
11
0.902867
21
1.062314
31
0.0
0
LINE
8
FRONT
10
0.902867
20
1.062314
30
0.0
11
0.959621
21
1.091410
31
0.0
0
LINE
8
FRONT
10
0.959621
20
1.091410
30
0.0
11
1.013195
21
1.126012
31
0.0
0
LINE
8
FRONT
10
1.013195
20
1.126012
30
0.0
11
1.063059
21
1.165777
31
0.0
0
LINE
8
FRONT
10
1.063059
20
1.165777
30
0.0
11
1.108715
21
1.210308
31
0.0
0
LINE
8
FRONT
10
1.108715
20
1.210308
30
0.0
11
1.149710
21
1.259165
31
0.0
0
LINE
8
FRONT
10
1.149710
20
1.259165
30
0.0
11
1.185637
21
1.311860
31
0.0
0
LINE
8
FRONT
10
1.185637
20
1.311860
30
0.0
11
1.216139
21
1.367871
31
0.0
0
LINE
8
FRONT
10
1.216139
20
1.367871
30
0.0
11
1.240913
21
1.426641
31
0.0
0
LINE
8
FRONT
10
1.240913
20
1.426641
30
0.0
11
1.259711
21
1.487585
31
0.0
0
LINE
8
FRONT
10
1.259711
20
1.487585
30
0.0
11
1.272349
21
1.550098
31
0.0
0
LINE
8
FRONT
10
1.272349
20
1.550098
30
0.0
11
1.278699
21
1.613558
31
0.0
0
LINE
8
FRONT
10
1.278699
20
1.613558
30
0.0
11
1.278699
21
1.677336
31
0.0
0
LINE
8
FRONT
10
1.278699
20
1.677336
30
0.0
11
1.272349
21
1.740796
31
0.0
0
LINE
8
FRONT
10
1.272349
20
1.740796
30
0.0
11
1.259711
21
1.803309
31
0.0
0
LINE
8
FRONT
10
1.259711
20
1.803309
30
0.0
11
1.240913
21
1.864253
31
0.0
0
LINE
8
FRONT
10
1.240913
20
1.864253
30
0.0
11
1.216139
21
1.923023
31
0.0
0
LINE
8
FRONT
10
1.216139
20
1.923023
30
0.0
11
1.185637
21
1.979034
31
0.0
0
LINE
8
FRONT
10
1.185637
20
1.979034
30
0.0
11
1.149710
21
2.031729
31
0.0
0
LINE
8
FRONT
10
1.149710
20
2.031729
30
0.0
11
1.108715
21
2.080585
31
0.0
0
LINE
8
FRONT
10
1.108715
20
2.080585
30
0.0
11
1.063059
21
2.125117
31
0.0
0
LINE
8
FRONT
10
1.063059
20
2.125117
30
0.0
11
1.013195
21
2.164882
31
0.0
0
LINE
8
FRONT
10
1.013195
20
2.164882
30
0.0
11
0.959621
21
2.199484
31
0.0
0
LINE
8
FRONT
10
0.959621
20
2.199484
30
0.0
11
0.902867
21
2.228580
31
0.0
0
LINE
8
FRONT
10
0.902867
20
2.228580
30
0.0
11
0.843498
21
2.251881
31
0.0
0
LINE
8
FRONT
10
0.843498
20
2.251881
30
0.0
11
0.782104
21
2.269154
31
0.0
0
LINE
8
FRONT
10
0.782104
20
2.269154
30
0.0
11
0.719296
21
2.280229
31
0.0
0
LINE
8
FRONT
10
0.719296
20
2.280229
30
0.0
11
0.655696
21
2.284995
31
0.0
0
LINE
8
FRONT
10
0.655696
20
2.284995
30
0.0
11
0.591939
21
2.283405
31
0.0
0
LINE
8
FRONT
10
0.591939
20
2.283405
30
0.0
11
0.528656
21
2.275475
31
0.0
0
LINE
8
FRONT
10
0.528656
20
2.275475
30
0.0
11
0.466478
21
2.261283
31
0.0
0
LINE
8
FRONT
10
0.466478
20
2.261283
30
0.0
11
0.406021
21
2.240971
31
0.0
0
LINE
8
FRONT
10
0.406021
20
2.240971
30
0.0
11
0.347888
21
2.214740
31
0.0
0
LINE
8
FRONT
10
0.347888
20
2.214740
30
0.0
11
0.292655
21
2.182851
31
0.0
0
LINE
8
FRONT
10
0.292655
20
2.182851
30
0.0
11
0.240871
21
2.145621
31
0.0
0
LINE
8
FRONT
10
0.240871
20
2.145621
30
0.0
11
0.193052
21
2.103421
31
0.0
0
LINE
8
FRONT
10
0.193052
20
2.103421
30
0.0
11
0.149672
21
2.056668
31
0.0
0
LINE
8
FRONT
10
0.149672
20
2.056668
30
0.0
11
0.111163
21
2.005829
31
0.0
0
LINE
8
FRONT
10
0.111163
20
2.005829
30
0.0
11
0.077907
21
1.951409
31
0.0
0
LINE
8
FRONT
10
0.077907
20
1.951409
30
0.0
11
0.050235
21
1.893947
31
0.0
0
LINE
8
FRONT
10
0.050235
20
1.893947
30
0.0
11
0.028422
21
1.834016
31
0.0
0
LINE
8
FRONT
10
0.028422
20
1.834016
30
0.0
11
0.012685
21
1.772210
31
0.0
0
LINE
8
FRONT
10
0.012685
20
1.772210
30
0.0
11
0.003179
21
1.709145
31
0.0
0
LINE
8
FRONT
10
0.003179
20
1.709145
30
0.0
11
0.000000
21
1.645447
31
0.0
0
LINE
8
FRONT
10
0.245945
20
1.392400
30
0.0
11
1.033549
21
1.392400
31
0.0
0
LINE
8
FRONT
10
1.033549
20
1.392400
30
0.0
11
1.033549
21
1.898494
31
0.0
0
LINE
8
FRONT
10
1.033549
20
1.898494
30
0.0
11
0.245945
21
1.898494
31
0.0
0
LINE
8
FRONT
10
0.245945
20
1.898494
30
0.0
11
0.245945
21
1.392400
31
0.0
0
LINE
8
LEFT
10
1.534598
20
1.645646
30
0.0
11
1.534598
21
1.005899
31
0.0
0
LINE
8
LEFT
10
1.534598
20
2.285393
30
0.0
11
1.534598
21
1.645646
31
0.0
0
LINE
8
LEFT
10
2.284598
20
1.645646
30
0.0
11
2.284598
21
1.005899
31
0.0
0
LINE
8
LEFT
10
2.284598
20
2.285393
30
0.0
11
2.284598
21
1.645646
31
0.0
0
LINE
8
LEFT
10
2.284598
20
2.285393
30
0.0
11
1.534598
21
2.285393
31
0.0
0
LINE
8
LEFT
10
2.284598
20
1.005899
30
0.0
11
1.534598
21
1.005899
31
0.0
0
LINE
8
LEFT_HID
6
HIDDEN
10
1.534598
20
1.005899
30
0.0
11
1.534598
21
2.285393
31
0.0
0
LINE
8
LEFT_HID
6
HIDDEN
10
2.284598
20
1.005899
30
0.0
11
2.284598
21
2.285393
31
0.0
0
LINE
8
LEFT_HID
6
HIDDEN
10
1.534598
20
1.392598
30
0.0
11
2.284598
21
1.392598
31
0.0
0
LINE
8
LEFT_HID
6
HIDDEN
10
1.534598
20
1.392598
30
0.0
11
2.284598
21
1.392598
31
0.0
0
LINE
8
LEFT_HID
6
HIDDEN
10
2.284598
20
1.392598
30
0.0
11
2.284598
21
1.898693
31
0.0
0
LINE
8
LEFT_HID
6
HIDDEN
10
1.534598
20
1.898693
30
0.0
11
2.284598
21
1.898693
31
0.0
0
LINE
8
LEFT_HID
6
HIDDEN
10
1.534598
20
1.392598
30
0.0
11
1.534598
21
1.898693
31
0.0
0
LINE
8
LEFT_HID
6
HIDDEN
10
1.534598
20
1.898693
30
0.0
11
2.284598
21
1.898693
31
0.0
0
LINE
8
LEFT_HID
6
HIDDEN
10
2.284598
20
1.898693
30
0.0
11
2.284598
21
1.392598
31
0.0
0
LINE
8
LEFT_HID
6
HIDDEN
10
1.534598
20
1.898693
30
0.0
11
1.534598
21
1.392598
31
0.0
0
LINE
8
TOP
10
1.279494
20
0.750000
30
0.0
11
0.000000
21
0.750000
31
0.0
0
LINE
8
TOP
10
0.000000
20
0.750000
30
0.0
11
0.000000
21
0.000000
31
0.0
0
LINE
8
TOP
10
1.279494
20
0.000000
30
0.0
11
0.000000
21
0.000000
31
0.0
0
LINE
8
TOP
10
1.279494
20
0.000000
30
0.0
11
1.279494
21
0.750000
31
0.0
0
LINE
8
TOP_HID
6
HIDDEN
10
0.245945
20
0.750000
30
0.0
11
0.245945
21
0.000000
31
0.0
0
LINE
8
TOP_HID
6
HIDDEN
10
0.245945
20
0.000000
30
0.0
11
1.033549
21
0.000000
31
0.0
0
LINE
8
TOP_HID
6
HIDDEN
10
1.033549
20
0.750000
30
0.0
11
1.033549
21
0.000000
31
0.0
0
LINE
8
TOP_HID
6
HIDDEN
10
0.245945
20
0.750000
30
0.0
11
1.033549
21
0.750000
31
0.0
0
LINE
8
TOP_HID
6
HIDDEN
10
1.033549
20
0.750000
30
0.0
11
1.033549
21
0.000000
31
0.0
0
LINE
8
TOP_HID
6
HIDDEN
10
1.033549
20
0.000000
30
0.0
11
0.245945
21
0.000000
31
0.0
0
LINE
8
TOP_HID
6
HIDDEN
10
0.245945
20
0.750000
30
0.0
11
0.245945
21
0.000000
31
0.0
0
LINE
8
TOP_HID
6
HIDDEN
10
1.033549
20
0.750000
30
0.0
11
0.245945
21
0.750000
31
0.0
0
ENDSEC
0
EOF
