0
SECTION
2
HEADER
9
$ACADVER
1
AC1009
0
ENDSEC
0
SECTION
2
TABLES
0
TABLE
2
LTYPE
70
3
0
LTYPE
2
CONTINUOUS
70
0
3
Solid line
72
65
73
0
40
0.0
0
LTYPE
2
HIDDEN
70
0
3
__ __ __ __ __
72
65
73
2
40
0.062017
49
0.041365
49
-0.020652
0
LTYPE
2
CENTER
70
0
3
___ _ ___ _ ___
72
65
73
4
40
0.144686
49
0.082669
49
-0.020652
49
0.020652
49
-0.020652
0
ENDTAB
0
TABLE
2
LAYER
70
6
0
LAYER
2
0
70
0
62
7
6
CONTINUOUS
0
LAYER
2
FRONT
70
0
62
7
6
CONTINUOUS
0
LAYER
2
LEFT
70
0
62
7
6
CONTINUOUS
0
LAYER
2
LEFT_HID
70
0
62
7
6
HIDDEN
0
LAYER
2
TOP
70
0
62
7
6
CONTINUOUS
0
LAYER
2
TOP_HID
70
0
62
7
6
HIDDEN
0
ENDTAB
0
ENDSEC
0
SECTION
2
ENTITIES
0
LINE
8
FRONT
10
0.160259
20
1.901283
30
0.0
11
0.139130
21
1.873326
31
0.0
0
LINE
8
FRONT
10
0.139130
20
1.873326
30
0.0
11
0.119348
21
1.844398
31
0.0
0
LINE
8
FRONT
10
0.119348
20
1.844398
30
0.0
11
0.100960
21
1.814566
31
0.0
0
LINE
8
FRONT
10
0.100960
20
1.814566
30
0.0
11
0.084005
21
1.783896
31
0.0
0
LINE
8
FRONT
10
0.084005
20
1.783896
30
0.0
11
0.068522
21
1.752458
31
0.0
0
LINE
8
FRONT
10
0.068522
20
1.752458
30
0.0
11
0.054545
21
1.720322
31
0.0
0
LINE
8
FRONT
10
0.054545
20
1.720322
30
0.0
11
0.042107
21
1.687559
31
0.0
0
LINE
8
FRONT
10
0.042107
20
1.687559
30
0.0
11
0.031234
21
1.654244
31
0.0
0
LINE
8
FRONT
10
0.031234
20
1.654244
30
0.0
11
0.021952
21
1.620452
31
0.0
0
LINE
8
FRONT
10
0.021952
20
1.620452
30
0.0
11
0.014282
21
1.586257
31
0.0
0
LINE
8
FRONT
10
0.014282
20
1.586257
30
0.0
11
0.008239
21
1.551738
31
0.0
0
LINE
8
FRONT
10
0.008239
20
1.551738
30
0.0
11
0.003839
21
1.516971
31
0.0
0
LINE
8
FRONT
10
0.003839
20
1.516971
30
0.0
11
0.001090
21
1.482035
31
0.0
0
LINE
8
FRONT
10
0.001090
20
1.482035
30
0.0
11
0.000000
21
1.447008
31
0.0
0
LINE
8
FRONT
10
0.000000
20
1.447008
30
0.0
11
0.000570
21
1.411968
31
0.0
0
LINE
8
FRONT
10
0.000570
20
1.411968
30
0.0
11
0.002799
21
1.376995
31
0.0
0
LINE
8
FRONT
10
0.002799
20
1.376995
30
0.0
11
0.006683
21
1.342167
31
0.0
0
LINE
8
FRONT
10
0.006683
20
1.342167
30
0.0
11
0.012212
21
1.307561
31
0.0
0
LINE
8
FRONT
10
0.012212
20
1.307561
30
0.0
11
0.019374
21
1.273257
31
0.0
0
LINE
8
FRONT
10
0.019374
20
1.273257
30
0.0
11
0.028153
21
1.239330
31
0.0
0
LINE
8
FRONT
10
0.028153
20
1.239330
30
0.0
11
0.038529
21
1.205857
31
0.0
0
LINE
8
FRONT
10
0.038529
20
1.205857
30
0.0
11
0.050480
21
1.172914
31
0.0
0
LINE
8
FRONT
10
0.050480
20
1.172914
30
0.0
11
0.063977
21
1.140573
31
0.0
0
LINE
8
FRONT
10
0.063977
20
1.140573
30
0.0
11
0.078992
21
1.108908
31
0.0
0
LINE
8
FRONT
10
0.078992
20
1.108908
30
0.0
11
0.095489
21
1.077990
31
0.0
0
LINE
8
FRONT
10
0.095489
20
1.077990
30
0.0
11
0.113433
21
1.047888
31
0.0
0
LINE
8
FRONT
10
0.113433
20
1.047888
30
0.0
11
0.132782
21
1.018670
31
0.0
0
LINE
8
FRONT
10
0.132782
20
1.018670
30
0.0
11
0.153494
21
0.990402
31
0.0
0
LINE
8
FRONT
10
0.153494
20
0.990402
30
0.0
11
0.175522
21
0.963146
31
0.0
0
LINE
8
FRONT
10
0.175522
20
0.963146
30
0.0
11
0.198816
21
0.936964
31
0.0
0
LINE
8
FRONT
10
0.198816
20
0.936964
30
0.0
11
0.223324
21
0.911916
31
0.0
0
LINE
8
FRONT
10
0.223324
20
0.911916
30
0.0
11
0.248991
21
0.888056
31
0.0
0
LINE
8
FRONT
10
0.248991
20
0.888056
30
0.0
11
0.275760
21
0.865439
31
0.0
0
LINE
8
FRONT
10
0.275760
20
0.865439
30
0.0
11
0.303570
21
0.844115
31
0.0
0
LINE
8
FRONT
10
0.303570
20
0.844115
30
0.0
11
0.332359
21
0.824133
31
0.0
0
LINE
8
FRONT
10
0.332359
20
0.824133
30
0.0
11
0.362062
21
0.805537
31
0.0
0
LINE
8
FRONT
10
0.362062
20
0.805537
30
0.0
11
0.392613
21
0.788369
31
0.0
0
LINE
8
FRONT
10
0.392613
20
0.788369
30
0.0
11
0.423943
21
0.772667
31
0.0
0
LINE
8
FRONT
10
0.423943
20
0.772667
30
0.0
11
0.455981
21
0.758467
31
0.0
0
LINE
8
FRONT
10
0.455981
20
0.758467
30
0.0
11
0.488656
21
0.745801
31
0.0
0
LINE
8
FRONT
10
0.488656
20
0.745801
30
0.0
11
0.521895
21
0.734697
31
0.0
0
LINE
8
FRONT
10
0.521895
20
0.734697
30
0.0
11
0.555622
21
0.725180
31
0.0
0
LINE
8
FRONT
10
0.555622
20
0.725180
30
0.0
11
0.589762
21
0.717271
31
0.0
0
LINE
8
FRONT
10
0.589762
20
0.717271
30
0.0
11
0.624238
21
0.710988
31
0.0
0
LINE
8
FRONT
10
0.624238
20
0.710988
30
0.0
11
0.658974
21
0.706346
31
0.0
0
LINE
8
FRONT
10
0.658974
20
0.706346
30
0.0
11
0.693890
21
0.703354
31
0.0
0
LINE
8
FRONT
10
0.693890
20
0.703354
30
0.0
11
0.728909
21
0.702020
31
0.0
0
LINE
8
FRONT
10
0.728909
20
0.702020
30
0.0
11
0.763951
21
0.702346
31
0.0
0
LINE
8
FRONT
10
0.763951
20
0.702346
30
0.0
11
0.798939
21
0.704332
31
0.0
0
LINE
8
FRONT
10
0.798939
20
0.704332
30
0.0
11
0.833794
21
0.707972
31
0.0
0
LINE
8
FRONT
10
0.833794
20
0.707972
30
0.0
11
0.868437
21
0.713260
31
0.0
0
LINE
8
FRONT
10
0.868437
20
0.713260
30
0.0
11
0.902790
21
0.720183
31
0.0
0
LINE
8
FRONT
10
0.902790
20
0.720183
30
0.0
11
0.936777
21
0.728726
31
0.0
0
LINE
8
FRONT
10
0.936777
20
0.728726
30
0.0
11
0.970321
21
0.738869
31
0.0
0
LINE
8
FRONT
10
0.970321
20
0.738869
30
0.0
11
1.003348
21
0.750590
31
0.0
0
LINE
8
FRONT
10
1.003348
20
0.750590
30
0.0
11
1.035781
21
0.763862
31
0.0
0
LINE
8
FRONT
10
1.035781
20
0.763862
30
0.0
11
1.067550
21
0.778655
31
0.0
0
LINE
8
FRONT
10
1.067550
20
0.778655
30
0.0
11
1.098582
21
0.794937
31
0.0
0
LINE
8
FRONT
10
1.098582
20
0.794937
30
0.0
11
1.128808
21
0.812670
31
0.0
0
LINE
8
FRONT
10
1.128808
20
0.812670
30
0.0
11
1.158160
21
0.831816
31
0.0
0
LINE
8
FRONT
10
1.158160
20
0.831816
30
0.0
11
1.186572
21
0.852330
31
0.0
0
LINE
8
FRONT
10
1.186572
20
0.852330
30
0.0
11
1.213981
21
0.874168
31
0.0
0
LINE
8
FRONT
10
1.213981
20
0.874168
30
0.0
11
1.240324
21
0.897279
31
0.0
0
LINE
8
FRONT
10
1.240324
20
0.897279
30
0.0
11
1.215985
21
1.901283
31
0.0
0
LINE
8
FRONT
10
1.215985
20
1.901283
30
0.0
11
0.160259
21
1.901283
31
0.0
0
LINE
8
LEFT
10
1.488393
20
1.901360
30
0.0
11
1.488393
21
0.702020
31
0.0
0
LINE
8
LEFT
10
1.942344
20
1.901360
30
0.0
11
1.942344
21
0.702020
31
0.0
0
LINE
8
LEFT
10
1.488393
20
1.901360
30
0.0
11
1.942344
21
1.901360
31
0.0
0
LINE
8
LEFT
10
1.942344
20
0.702020
30
0.0
11
1.488393
21
0.702020
31
0.0
0
LINE
8
LEFT_HID
6
HIDDEN
10
1.488393
20
0.702020
30
0.0
11
1.488393
21
0.897355
31
0.0
0
LINE
8
LEFT_HID
6
HIDDEN
10
1.488393
20
0.897355
30
0.0
11
1.942344
21
0.897355
31
0.0
0
LINE
8
LEFT_HID
6
HIDDEN
10
1.942344
20
0.702020
30
0.0
11
1.942344
21
0.897355
31
0.0
0
LINE
8
LEFT_HID
6
HIDDEN
10
1.942344
20
0.897355
30
0.0
11
1.942344
21
1.901360
31
0.0
0
LINE
8
LEFT_HID
6
HIDDEN
10
1.488393
20
0.897355
30
0.0
11
1.488393
21
1.901360
31
0.0
0
LINE
8
TOP
10
0.160279
20
0.453951
30
0.0
11
0.000000
21
0.453951
31
0.0
0
LINE
8
TOP
10
1.240345
20
0.453951
30
0.0
11
1.240345
21
0.000000
31
0.0
0
LINE
8
TOP
10
0.160279
20
0.000000
30
0.0
11
0.000000
21
0.000000
31
0.0
0
LINE
8
TOP
10
0.160279
20
0.453951
30
0.0
11
0.160279
21
0.000000
31
0.0
0
LINE
8
TOP
10
1.240345
20
0.000000
30
0.0
11
1.216005
21
0.000000
31
0.0
0
LINE
8
TOP
10
1.216005
20
0.453951
30
0.0
11
1.216005
21
0.000000
31
0.0
0
LINE
8
TOP
10
1.240345
20
0.453951
30
0.0
11
1.216005
21
0.453951
31
0.0
0
LINE
8
TOP
10
1.216005
20
0.000000
30
0.0
11
0.160279
21
0.000000
31
0.0
0
LINE
8
TOP
10
1.216005
20
0.453951
30
0.0
11
0.160279
21
0.453951
31
0.0
0
LINE
8
TOP
10
0.000000
20
0.000000
30
0.0
11
0.000000
21
0.453951
31
0.0
0
LINE
8
TOP_HID
6
HIDDEN
10
0.000000
20
0.453951
30
0.0
11
1.240345
21
0.453951
31
0.0
0
LINE
8
TOP_HID
6
HIDDEN
10
0.000000
20
0.000000
30
0.0
11
1.240345
21
0.000000
31
0.0
0
ENDSEC
0
EOF
