0
SECTION
2
HEADER
9
$ACADVER
1
AC1009
0
ENDSEC
0
SECTION
2
TABLES
0
TABLE
2
LTYPE
70
3
0
LTYPE
2
CONTINUOUS
70
0
3
Solid line
72
65
73
0
40
0.0
0
LTYPE
2
HIDDEN
70
0
3
__ __ __ __ __
72
65
73
2
40
0.037500
49
0.025013
49
-0.012488
0
LTYPE
2
CENTER
70
0
3
___ _ ___ _ ___
72
65
73
4
40
0.087488
49
0.049988
49
-0.012488
49
0.012488
49
-0.012488
0
ENDTAB
0
TABLE
2
LAYER
70
5
0
LAYER
2
0
70
0
62
7
6
CONTINUOUS
0
LAYER
2
FRONT
70
0
62
7
6
CONTINUOUS
0
LAYER
2
LEFT
70
0
62
7
6
CONTINUOUS
0
LAYER
2
LEFT_HID
70
0
62
7
6
HIDDEN
0
LAYER
2
TOP
70
0
62
7
6
CONTINUOUS
0
ENDTAB
0
ENDSEC
0
SECTION
2
ENTITIES
0
LINE
8
FRONT
10
0.180000
20
0.329944
30
0.0
11
0.000000
21
0.329944
31
0.0
0
LINE
8
FRONT
10
0.180000
20
0.329944
30
0.0
11
0.180000
21
1.079944
31
0.0
0
LINE
8
FRONT
10
0.180000
20
1.079944
30
0.0
11
0.000000
21
1.079944
31
0.0
0
LINE
8
FRONT
10
0.000000
20
1.079944
30
0.0
11
0.000000
21
0.329944
31
0.0
0
LINE
8
LEFT
10
0.330000
20
0.329944
30
0.0
11
0.510000
21
0.329944
31
0.0
0
LINE
8
LEFT
10
0.330000
20
1.079944
30
0.0
11
0.510000
21
1.079944
31
0.0
0
LINE
8
LEFT
10
0.330000
20
1.079944
30
0.0
11
0.330000
21
0.329944
31
0.0
0
LINE
8
LEFT
10
0.510000
20
1.079944
30
0.0
11
0.510000
21
0.329944
31
0.0
0
LINE
8
LEFT_HID
6
HIDDEN
10
0.420000
20
0.329944
30
0.0
11
0.330000
21
0.329944
31
0.0
0
LINE
8
LEFT_HID
6
HIDDEN
10
0.510000
20
0.329944
30
0.0
11
0.420000
21
0.329944
31
0.0
0
LINE
8
LEFT_HID
6
HIDDEN
10
0.420000
20
1.079944
30
0.0
11
0.330000
21
1.079944
31
0.0
0
LINE
8
LEFT_HID
6
HIDDEN
10
0.510000
20
1.079944
30
0.0
11
0.420000
21
1.079944
31
0.0
0
LINE
8
TOP
10
0.179888
20
0.089972
30
0.0
11
0.179441
21
0.098933
31
0.0
0
LINE
8
TOP
10
0.179441
20
0.098933
30
0.0
11
0.178104
21
0.107805
31
0.0
0
LINE
8
TOP
10
0.178104
20
0.107805
30
0.0
11
0.175890
21
0.116500
31
0.0
0
LINE
8
TOP
10
0.175890
20
0.116500
30
0.0
11
0.172821
21
0.124931
31
0.0
0
LINE
8
TOP
10
0.172821
20
0.124931
30
0.0
11
0.168928
21
0.133015
31
0.0
0
LINE
8
TOP
10
0.168928
20
0.133015
30
0.0
11
0.164250
21
0.140671
31
0.0
0
LINE
8
TOP
10
0.164250
20
0.140671
30
0.0
11
0.158832
21
0.147823
31
0.0
0
LINE
8
TOP
10
0.158832
20
0.147823
30
0.0
11
0.152729
21
0.154400
31
0.0
0
LINE
8
TOP
10
0.152729
20
0.154400
30
0.0
11
0.146002
21
0.160337
31
0.0
0
LINE
8
TOP
10
0.146002
20
0.160337
30
0.0
11
0.138717
21
0.165574
31
0.0
0
LINE
8
TOP
10
0.138717
20
0.165574
30
0.0
11
0.130947
21
0.170060
31
0.0
0
LINE
8
TOP
10
0.130947
20
0.170060
30
0.0
11
0.122769
21
0.173751
31
0.0
0
LINE
8
TOP
10
0.122769
20
0.173751
30
0.0
11
0.114264
21
0.176608
31
0.0
0
LINE
8
TOP
10
0.114264
20
0.176608
30
0.0
11
0.105516
21
0.178605
31
0.0
0
LINE
8
TOP
10
0.105516
20
0.178605
30
0.0
11
0.096614
21
0.179720
31
0.0
0
LINE
8
TOP
10
0.096614
20
0.179720
30
0.0
11
0.087644
21
0.179944
31
0.0
0
LINE
8
TOP
10
0.087644
20
0.179944
30
0.0
11
0.078697
21
0.179274
31
0.0
0
LINE
8
TOP
10
0.078697
20
0.179274
30
0.0
11
0.069861
21
0.177716
31
0.0
0
LINE
8
TOP
10
0.069861
20
0.177716
30
0.0
11
0.061224
21
0.175285
31
0.0
0
LINE
8
TOP
10
0.061224
20
0.175285
30
0.0
11
0.052872
21
0.172008
31
0.0
0
LINE
8
TOP
10
0.052872
20
0.172008
30
0.0
11
0.044888
21
0.167914
31
0.0
0
LINE
8
TOP
10
0.044888
20
0.167914
30
0.0
11
0.037351
21
0.163046
31
0.0
0
LINE
8
TOP
10
0.037351
20
0.163046
30
0.0
11
0.030336
21
0.157452
31
0.0
0
LINE
8
TOP
10
0.030336
20
0.157452
30
0.0
11
0.023913
21
0.151188
31
0.0
0
LINE
8
TOP
10
0.023913
20
0.151188
30
0.0
11
0.018146
21
0.144314
31
0.0
0
LINE
8
TOP
10
0.018146
20
0.144314
30
0.0
11
0.013092
21
0.136901
31
0.0
0
LINE
8
TOP
10
0.013092
20
0.136901
30
0.0
11
0.008801
21
0.129022
31
0.0
0
LINE
8
TOP
10
0.008801
20
0.129022
30
0.0
11
0.005316
21
0.120754
31
0.0
0
LINE
8
TOP
10
0.005316
20
0.120754
30
0.0
11
0.002671
21
0.112180
31
0.0
0
LINE
8
TOP
10
0.002671
20
0.112180
30
0.0
11
0.000893
21
0.103386
31
0.0
0
LINE
8
TOP
10
0.000893
20
0.103386
30
0.0
11
0.000000
21
0.094458
31
0.0
0
LINE
8
TOP
10
0.000000
20
0.094458
30
0.0
11
0.000000
21
0.085486
31
0.0
0
LINE
8
TOP
10
0.000000
20
0.085486
30
0.0
11
0.000893
21
0.076558
31
0.0
0
LINE
8
TOP
10
0.000893
20
0.076558
30
0.0
11
0.002671
21
0.067764
31
0.0
0
LINE
8
TOP
10
0.002671
20
0.067764
30
0.0
11
0.005316
21
0.059190
31
0.0
0
LINE
8
TOP
10
0.005316
20
0.059190
30
0.0
11
0.008801
21
0.050922
31
0.0
0
LINE
8
TOP
10
0.008801
20
0.050922
30
0.0
11
0.013092
21
0.043043
31
0.0
0
LINE
8
TOP
10
0.013092
20
0.043043
30
0.0
11
0.018146
21
0.035630
31
0.0
0
LINE
8
TOP
10
0.018146
20
0.035630
30
0.0
11
0.023913
21
0.028756
31
0.0
0
LINE
8
TOP
10
0.023913
20
0.028756
30
0.0
11
0.030336
21
0.022492
31
0.0
0
LINE
8
TOP
10
0.030336
20
0.022492
30
0.0
11
0.037351
21
0.016898
31
0.0
0
LINE
8
TOP
10
0.037351
20
0.016898
30
0.0
11
0.044888
21
0.012030
31
0.0
0
LINE
8
TOP
10
0.044888
20
0.012030
30
0.0
11
0.052872
21
0.007936
31
0.0
0
LINE
8
TOP
10
0.052872
20
0.007936
30
0.0
11
0.061224
21
0.004659
31
0.0
0
LINE
8
TOP
10
0.061224
20
0.004659
30
0.0
11
0.069861
21
0.002229
31
0.0
0
LINE
8
TOP
10
0.069861
20
0.002229
30
0.0
11
0.078697
21
0.000670
31
0.0
0
LINE
8
TOP
10
0.078697
20
0.000670
30
0.0
11
0.087644
21
0.000000
31
0.0
0
LINE
8
TOP
10
0.087644
20
0.000000
30
0.0
11
0.096614
21
0.000224
31
0.0
0
LINE
8
TOP
10
0.096614
20
0.000224
30
0.0
11
0.105516
21
0.001339
31
0.0
0
LINE
8
TOP
10
0.105516
20
0.001339
30
0.0
11
0.114264
21
0.003336
31
0.0
0
LINE
8
TOP
10
0.114264
20
0.003336
30
0.0
11
0.122769
21
0.006193
31
0.0
0
LINE
8
TOP
10
0.122769
20
0.006193
30
0.0
11
0.130947
21
0.009884
31
0.0
0
LINE
8
TOP
10
0.130947
20
0.009884
30
0.0
11
0.138717
21
0.014370
31
0.0
0
LINE
8
TOP
10
0.138717
20
0.014370
30
0.0
11
0.146002
21
0.019607
31
0.0
0
LINE
8
TOP
10
0.146002
20
0.019607
30
0.0
11
0.152729
21
0.025544
31
0.0
0
LINE
8
TOP
10
0.152729
20
0.025544
30
0.0
11
0.158832
21
0.032121
31
0.0
0
LINE
8
TOP
10
0.158832
20
0.032121
30
0.0
11
0.164250
21
0.039273
31
0.0
0
LINE
8
TOP
10
0.164250
20
0.039273
30
0.0
11
0.168928
21
0.046929
31
0.0
0
LINE
8
TOP
10
0.168928
20
0.046929
30
0.0
11
0.172821
21
0.055013
31
0.0
0
LINE
8
TOP
10
0.172821
20
0.055013
30
0.0
11
0.175890
21
0.063444
31
0.0
0
LINE
8
TOP
10
0.175890
20
0.063444
30
0.0
11
0.178104
21
0.072139
31
0.0
0
LINE
8
TOP
10
0.178104
20
0.072139
30
0.0
11
0.179441
21
0.081011
31
0.0
0
LINE
8
TOP
10
0.179441
20
0.081011
30
0.0
11
0.179888
21
0.089972
31
0.0
0
ENDSEC
0
EOF
