0
SECTION
2
HEADER
9
$ACADVER
1
AC1009
0
ENDSEC
0
SECTION
2
TABLES
0
TABLE
2
LTYPE
70
3
0
LTYPE
2
CONTINUOUS
70
0
3
Solid line
72
65
73
0
40
0.0
0
LTYPE
2
HIDDEN
70
0
3
__ __ __ __ __
72
65
73
2
40
0.074603
49
0.049760
49
-0.024843
0
LTYPE
2
CENTER
70
0
3
___ _ ___ _ ___
72
65
73
4
40
0.174049
49
0.099446
49
-0.024843
49
0.024843
49
-0.024843
0
ENDTAB
0
TABLE
2
LAYER
70
6
0
LAYER
2
0
70
0
62
7
6
CONTINUOUS
0
LAYER
2
FRONT
70
0
62
7
6
CONTINUOUS
0
LAYER
2
FRONT_HID
70
0
62
7
6
HIDDEN
0
LAYER
2
LEFT
70
0
62
7
6
CONTINUOUS
0
LAYER
2
LEFT_HID
70
0
62
7
6
HIDDEN
0
LAYER
2
TOP
70
0
62
7
6
CONTINUOUS
0
ENDTAB
0
ENDSEC
0
SECTION
2
ENTITIES
0
LINE
8
FRONT
10
1.342857
20
1.790476
30
0.0
11
1.342857
21
1.827837
31
0.0
0
LINE
8
FRONT
10
1.342857
20
1.827837
30
0.0
11
0.000000
21
1.827837
31
0.0
0
LINE
8
FRONT
10
0.000000
20
1.790476
30
0.0
11
0.000000
21
1.827837
31
0.0
0
LINE
8
FRONT
10
1.342857
20
1.790476
30
0.0
11
0.000000
21
1.790476
31
0.0
0
LINE
8
FRONT_HID
6
HIDDEN
10
0.539095
20
1.790476
30
0.0
11
0.539095
21
1.827837
31
0.0
0
LINE
8
FRONT_HID
6
HIDDEN
10
0.539095
20
1.827837
30
0.0
11
0.800618
21
1.827837
31
0.0
0
LINE
8
FRONT_HID
6
HIDDEN
10
0.800618
20
1.790476
30
0.0
11
0.800618
21
1.827837
31
0.0
0
LINE
8
FRONT_HID
6
HIDDEN
10
0.539095
20
1.790476
30
0.0
11
0.800618
21
1.790476
31
0.0
0
LINE
8
FRONT_HID
6
HIDDEN
10
0.800618
20
1.790476
30
0.0
11
0.800618
21
1.827837
31
0.0
0
LINE
8
FRONT_HID
6
HIDDEN
10
0.800618
20
1.827837
30
0.0
11
0.539095
21
1.827837
31
0.0
0
LINE
8
FRONT_HID
6
HIDDEN
10
0.539095
20
1.790476
30
0.0
11
0.539095
21
1.827837
31
0.0
0
LINE
8
FRONT_HID
6
HIDDEN
10
0.800618
20
1.790476
30
0.0
11
0.539095
21
1.790476
31
0.0
0
LINE
8
LEFT
10
3.133333
20
1.790476
30
0.0
11
3.133333
21
1.827837
31
0.0
0
LINE
8
LEFT
10
1.641270
20
1.790476
30
0.0
11
1.641270
21
1.827837
31
0.0
0
LINE
8
LEFT
10
1.641270
20
1.827837
30
0.0
11
3.133333
21
1.827837
31
0.0
0
LINE
8
LEFT
10
1.641270
20
1.790476
30
0.0
11
3.133333
21
1.790476
31
0.0
0
LINE
8
LEFT_HID
6
HIDDEN
10
2.430327
20
1.790476
30
0.0
11
2.430327
21
1.827837
31
0.0
0
LINE
8
LEFT_HID
6
HIDDEN
10
2.430327
20
1.790476
30
0.0
11
2.430327
21
1.827837
31
0.0
0
LINE
8
LEFT_HID
6
HIDDEN
10
2.430327
20
1.827837
30
0.0
11
2.336339
21
1.827837
31
0.0
0
LINE
8
LEFT_HID
6
HIDDEN
10
2.336339
20
1.790476
30
0.0
11
2.336339
21
1.827837
31
0.0
0
LINE
8
LEFT_HID
6
HIDDEN
10
2.430327
20
1.790476
30
0.0
11
2.336339
21
1.790476
31
0.0
0
LINE
8
LEFT_HID
6
HIDDEN
10
2.336339
20
1.790476
30
0.0
11
2.336339
21
1.827837
31
0.0
0
LINE
8
LEFT_HID
6
HIDDEN
10
2.336339
20
1.827837
30
0.0
11
2.430327
21
1.827837
31
0.0
0
LINE
8
LEFT_HID
6
HIDDEN
10
2.336339
20
1.790476
30
0.0
11
2.430327
21
1.790476
31
0.0
0
LINE
8
TOP
10
0.000000
20
0.000000
30
0.0
11
1.342857
21
0.000000
31
0.0
0
LINE
8
TOP
10
1.342857
20
0.000000
30
0.0
11
1.342857
21
1.492064
31
0.0
0
LINE
8
TOP
10
1.342857
20
1.492064
30
0.0
11
0.000000
21
1.492064
31
0.0
0
LINE
8
TOP
10
0.000000
20
1.492064
30
0.0
11
0.000000
21
0.000000
31
0.0
0
LINE
8
TOP
10
0.539095
20
0.703006
30
0.0
11
0.800618
21
0.703006
31
0.0
0
LINE
8
TOP
10
0.800618
20
0.703006
30
0.0
11
0.800618
21
0.796994
31
0.0
0
LINE
8
TOP
10
0.800618
20
0.796994
30
0.0
11
0.539095
21
0.796994
31
0.0
0
LINE
8
TOP
10
0.539095
20
0.796994
30
0.0
11
0.539095
21
0.703006
31
0.0
0
ENDSEC
0
EOF
