0
SECTION
2
HEADER
9
$ACADVER
1
AC1009
0
ENDSEC
0
SECTION
2
TABLES
0
TABLE
2
LTYPE
70
3
0
LTYPE
2
CONTINUOUS
70
0
3
Solid line
72
65
73
0
40
0.0
0
LTYPE
2
HIDDEN
70
0
3
__ __ __ __ __
72
65
73
2
40
0.037500
49
0.025013
49
-0.012488
0
LTYPE
2
CENTER
70
0
3
___ _ ___ _ ___
72
65
73
4
40
0.087488
49
0.049988
49
-0.012488
49
0.012488
49
-0.012488
0
ENDTAB
0
TABLE
2
LAYER
70
6
0
LAYER
2
0
70
0
62
7
6
CONTINUOUS
0
LAYER
2
FRONT
70
0
62
7
6
CONTINUOUS
0
LAYER
2
FRONT_HID
70
0
62
7
6
HIDDEN
0
LAYER
2
LEFT
70
0
62
7
6
CONTINUOUS
0
LAYER
2
LEFT_HID
70
0
62
7
6
HIDDEN
0
LAYER
2
TOP
70
0
62
7
6
CONTINUOUS
0
ENDTAB
0
ENDSEC
0
SECTION
2
ENTITIES
0
LINE
8
FRONT
10
0.750000
20
0.471429
30
0.0
11
0.750000
21
0.557143
31
0.0
0
LINE
8
FRONT
10
0.750000
20
0.557143
30
0.0
11
0.000000
21
0.557143
31
0.0
0
LINE
8
FRONT
10
0.000000
20
0.471429
30
0.0
11
0.000000
21
0.557143
31
0.0
0
LINE
8
FRONT
10
0.750000
20
0.471429
30
0.0
11
0.000000
21
0.471429
31
0.0
0
LINE
8
FRONT_HID
6
HIDDEN
10
0.300000
20
0.471429
30
0.0
11
0.214286
21
0.471429
31
0.0
0
LINE
8
FRONT_HID
6
HIDDEN
10
0.214286
20
0.471429
30
0.0
11
0.300000
21
0.471429
31
0.0
0
LINE
8
FRONT_HID
6
HIDDEN
10
0.300000
20
0.471429
30
0.0
11
0.300000
21
0.557143
31
0.0
0
LINE
8
FRONT_HID
6
HIDDEN
10
0.300000
20
0.557143
30
0.0
11
0.214286
21
0.557143
31
0.0
0
LINE
8
FRONT_HID
6
HIDDEN
10
0.214286
20
0.557143
30
0.0
11
0.300000
21
0.557143
31
0.0
0
LINE
8
FRONT_HID
6
HIDDEN
10
0.214286
20
0.557143
30
0.0
11
0.214286
21
0.471429
31
0.0
0
LINE
8
LEFT
10
1.221429
20
0.471429
30
0.0
11
1.221429
21
0.557143
31
0.0
0
LINE
8
LEFT
10
0.900000
20
0.471429
30
0.0
11
0.900000
21
0.557143
31
0.0
0
LINE
8
LEFT
10
0.900000
20
0.557143
30
0.0
11
1.221429
21
0.557143
31
0.0
0
LINE
8
LEFT
10
0.900000
20
0.471429
30
0.0
11
1.221429
21
0.471429
31
0.0
0
LINE
8
LEFT_HID
6
HIDDEN
10
1.060714
20
0.471429
30
0.0
11
1.017857
21
0.471429
31
0.0
0
LINE
8
LEFT_HID
6
HIDDEN
10
1.017857
20
0.471429
30
0.0
11
1.103571
21
0.471429
31
0.0
0
LINE
8
LEFT_HID
6
HIDDEN
10
1.103571
20
0.471429
30
0.0
11
1.060714
21
0.471429
31
0.0
0
LINE
8
LEFT_HID
6
HIDDEN
10
1.060714
20
0.557143
30
0.0
11
1.017857
21
0.557143
31
0.0
0
LINE
8
LEFT_HID
6
HIDDEN
10
1.017857
20
0.557143
30
0.0
11
1.103571
21
0.557143
31
0.0
0
LINE
8
LEFT_HID
6
HIDDEN
10
1.103571
20
0.557143
30
0.0
11
1.060714
21
0.557143
31
0.0
0
LINE
8
LEFT_HID
6
HIDDEN
10
1.017857
20
0.557143
30
0.0
11
1.017857
21
0.471429
31
0.0
0
LINE
8
LEFT_HID
6
HIDDEN
10
1.103571
20
0.557143
30
0.0
11
1.103571
21
0.471429
31
0.0
0
LINE
8
TOP
10
0.000000
20
0.000000
30
0.0
11
0.750000
21
0.000000
31
0.0
0
LINE
8
TOP
10
0.750000
20
0.000000
30
0.0
11
0.750000
21
0.321429
31
0.0
0
LINE
8
TOP
10
0.750000
20
0.321429
30
0.0
11
0.000000
21
0.321429
31
0.0
0
LINE
8
TOP
10
0.000000
20
0.321429
30
0.0
11
0.000000
21
0.000000
31
0.0
0
LINE
8
TOP
10
0.300000
20
0.160714
30
0.0
11
0.299787
21
0.164981
31
0.0
0
LINE
8
TOP
10
0.299787
20
0.164981
30
0.0
11
0.299150
21
0.169206
31
0.0
0
LINE
8
TOP
10
0.299150
20
0.169206
30
0.0
11
0.298096
21
0.173347
31
0.0
0
LINE
8
TOP
10
0.298096
20
0.173347
30
0.0
11
0.296635
21
0.177361
31
0.0
0
LINE
8
TOP
10
0.296635
20
0.177361
30
0.0
11
0.294781
21
0.181211
31
0.0
0
LINE
8
TOP
10
0.294781
20
0.181211
30
0.0
11
0.292553
21
0.184857
31
0.0
0
LINE
8
TOP
10
0.292553
20
0.184857
30
0.0
11
0.289973
21
0.188262
31
0.0
0
LINE
8
TOP
10
0.289973
20
0.188262
30
0.0
11
0.287067
21
0.191394
31
0.0
0
LINE
8
TOP
10
0.287067
20
0.191394
30
0.0
11
0.283864
21
0.194221
31
0.0
0
LINE
8
TOP
10
0.283864
20
0.194221
30
0.0
11
0.280395
21
0.196715
31
0.0
0
LINE
8
TOP
10
0.280395
20
0.196715
30
0.0
11
0.276695
21
0.198852
31
0.0
0
LINE
8
TOP
10
0.276695
20
0.198852
30
0.0
11
0.272800
21
0.200609
31
0.0
0
LINE
8
TOP
10
0.272800
20
0.200609
30
0.0
11
0.268750
21
0.201970
31
0.0
0
LINE
8
TOP
10
0.268750
20
0.201970
30
0.0
11
0.264585
21
0.202920
31
0.0
0
LINE
8
TOP
10
0.264585
20
0.202920
30
0.0
11
0.260346
21
0.203452
31
0.0
0
LINE
8
TOP
10
0.260346
20
0.203452
30
0.0
11
0.256074
21
0.203558
31
0.0
0
LINE
8
TOP
10
0.256074
20
0.203558
30
0.0
11
0.251814
21
0.203239
31
0.0
0
LINE
8
TOP
10
0.251814
20
0.203239
30
0.0
11
0.247606
21
0.202497
31
0.0
0
LINE
8
TOP
10
0.247606
20
0.202497
30
0.0
11
0.243493
21
0.201340
31
0.0
0
LINE
8
TOP
10
0.243493
20
0.201340
30
0.0
11
0.239516
21
0.199779
31
0.0
0
LINE
8
TOP
10
0.239516
20
0.199779
30
0.0
11
0.235714
21
0.197830
31
0.0
0
LINE
8
TOP
10
0.235714
20
0.197830
30
0.0
11
0.232125
21
0.195512
31
0.0
0
LINE
8
TOP
10
0.232125
20
0.195512
30
0.0
11
0.228785
21
0.192848
31
0.0
0
LINE
8
TOP
10
0.228785
20
0.192848
30
0.0
11
0.225726
21
0.189865
31
0.0
0
LINE
8
TOP
10
0.225726
20
0.189865
30
0.0
11
0.222980
21
0.186592
31
0.0
0
LINE
8
TOP
10
0.222980
20
0.186592
30
0.0
11
0.220573
21
0.183062
31
0.0
0
LINE
8
TOP
10
0.220573
20
0.183062
30
0.0
11
0.218530
21
0.179309
31
0.0
0
LINE
8
TOP
10
0.218530
20
0.179309
30
0.0
11
0.216870
21
0.175372
31
0.0
0
LINE
8
TOP
10
0.216870
20
0.175372
30
0.0
11
0.215611
21
0.171290
31
0.0
0
LINE
8
TOP
10
0.215611
20
0.171290
30
0.0
11
0.214764
21
0.167102
31
0.0
0
LINE
8
TOP
10
0.214764
20
0.167102
30
0.0
11
0.214339
21
0.162851
31
0.0
0
LINE
8
TOP
10
0.214339
20
0.162851
30
0.0
11
0.214339
21
0.158578
31
0.0
0
LINE
8
TOP
10
0.214339
20
0.158578
30
0.0
11
0.214764
21
0.154327
31
0.0
0
LINE
8
TOP
10
0.214764
20
0.154327
30
0.0
11
0.215611
21
0.150139
31
0.0
0
LINE
8
TOP
10
0.215611
20
0.150139
30
0.0
11
0.216870
21
0.146056
31
0.0
0
LINE
8
TOP
10
0.216870
20
0.146056
30
0.0
11
0.218530
21
0.142119
31
0.0
0
LINE
8
TOP
10
0.218530
20
0.142119
30
0.0
11
0.220573
21
0.138367
31
0.0
0
LINE
8
TOP
10
0.220573
20
0.138367
30
0.0
11
0.222980
21
0.134837
31
0.0
0
LINE
8
TOP
10
0.222980
20
0.134837
30
0.0
11
0.225726
21
0.131564
31
0.0
0
LINE
8
TOP
10
0.225726
20
0.131564
30
0.0
11
0.228785
21
0.128581
31
0.0
0
LINE
8
TOP
10
0.228785
20
0.128581
30
0.0
11
0.232125
21
0.125917
31
0.0
0
LINE
8
TOP
10
0.232125
20
0.125917
30
0.0
11
0.235714
21
0.123599
31
0.0
0
LINE
8
TOP
10
0.235714
20
0.123599
30
0.0
11
0.239516
21
0.121650
31
0.0
0
LINE
8
TOP
10
0.239516
20
0.121650
30
0.0
11
0.243493
21
0.120089
31
0.0
0
LINE
8
TOP
10
0.243493
20
0.120089
30
0.0
11
0.247606
21
0.118932
31
0.0
0
LINE
8
TOP
10
0.247606
20
0.118932
30
0.0
11
0.251814
21
0.118190
31
0.0
0
LINE
8
TOP
10
0.251814
20
0.118190
30
0.0
11
0.256074
21
0.117870
31
0.0
0
LINE
8
TOP
10
0.256074
20
0.117870
30
0.0
11
0.260346
21
0.117977
31
0.0
0
LINE
8
TOP
10
0.260346
20
0.117977
30
0.0
11
0.264585
21
0.118508
31
0.0
0
LINE
8
TOP
10
0.264585
20
0.118508
30
0.0
11
0.268750
21
0.119459
31
0.0
0
LINE
8
TOP
10
0.268750
20
0.119459
30
0.0
11
0.272800
21
0.120820
31
0.0
0
LINE
8
TOP
10
0.272800
20
0.120820
30
0.0
11
0.276695
21
0.122577
31
0.0
0
LINE
8
TOP
10
0.276695
20
0.122577
30
0.0
11
0.280395
21
0.124713
31
0.0
0
LINE
8
TOP
10
0.280395
20
0.124713
30
0.0
11
0.283864
21
0.127207
31
0.0
0
LINE
8
TOP
10
0.283864
20
0.127207
30
0.0
11
0.287067
21
0.130034
31
0.0
0
LINE
8
TOP
10
0.287067
20
0.130034
30
0.0
11
0.289973
21
0.133166
31
0.0
0
LINE
8
TOP
10
0.289973
20
0.133166
30
0.0
11
0.292553
21
0.136572
31
0.0
0
LINE
8
TOP
10
0.292553
20
0.136572
30
0.0
11
0.294781
21
0.140218
31
0.0
0
LINE
8
TOP
10
0.294781
20
0.140218
30
0.0
11
0.296635
21
0.144067
31
0.0
0
LINE
8
TOP
10
0.296635
20
0.144067
30
0.0
11
0.298096
21
0.148082
31
0.0
0
LINE
8
TOP
10
0.298096
20
0.148082
30
0.0
11
0.299150
21
0.152222
31
0.0
0
LINE
8
TOP
10
0.299150
20
0.152222
30
0.0
11
0.299787
21
0.156447
31
0.0
0
LINE
8
TOP
10
0.299787
20
0.156447
30
0.0
11
0.300000
21
0.160714
31
0.0
0
ENDSEC
0
EOF
