0
SECTION
2
HEADER
9
$ACADVER
1
AC1009
0
ENDSEC
0
SECTION
2
TABLES
0
TABLE
2
LTYPE
70
3
0
LTYPE
2
CONTINUOUS
70
0
3
Solid line
72
65
73
0
40
0.0
0
LTYPE
2
HIDDEN
70
0
3
__ __ __ __ __
72
65
73
2
40
0.055613
49
0.037094
49
-0.018519
0
LTYPE
2
CENTER
70
0
3
___ _ ___ _ ___
72
65
73
4
40
0.129744
49
0.074131
49
-0.018519
49
0.018519
49
-0.018519
0
ENDTAB
0
TABLE
2
LAYER
70
7
0
LAYER
2
0
70
0
62
7
6
CONTINUOUS
0
LAYER
2
FRONT
70
0
62
7
6
CONTINUOUS
0
LAYER
2
FRONT_HID
70
0
62
7
6
HIDDEN
0
LAYER
2
LEFT
70
0
62
7
6
CONTINUOUS
0
LAYER
2
LEFT_HID
70
0
62
7
6
HIDDEN
0
LAYER
2
TOP
70
0
62
7
6
CONTINUOUS
0
LAYER
2
TOP_HID
70
0
62
7
6
HIDDEN
0
ENDTAB
0
ENDSEC
0
SECTION
2
ENTITIES
0
LINE
8
FRONT
10
0.000000
20
1.207316
30
0.0
11
0.000000
21
1.569566
31
0.0
0
LINE
8
FRONT
10
0.362250
20
1.207316
30
0.0
11
0.000000
21
1.207316
31
0.0
0
LINE
8
FRONT
10
0.362250
20
1.569566
30
0.0
11
0.000000
21
1.569566
31
0.0
0
LINE
8
FRONT
10
0.362250
20
1.207316
30
0.0
11
0.362250
21
1.569566
31
0.0
0
LINE
8
FRONT
10
0.068625
20
1.207316
30
0.0
11
0.068625
21
0.457316
31
0.0
0
LINE
8
FRONT
10
0.103125
20
1.207316
30
0.0
11
0.103125
21
0.457316
31
0.0
0
LINE
8
FRONT
10
0.068625
20
0.457316
30
0.0
11
0.103125
21
0.457316
31
0.0
0
LINE
8
FRONT
10
0.163875
20
1.207316
30
0.0
11
0.163875
21
0.457316
31
0.0
0
LINE
8
FRONT
10
0.163875
20
0.457316
30
0.0
11
0.198375
21
0.457316
31
0.0
0
LINE
8
FRONT
10
0.198375
20
1.207316
30
0.0
11
0.198375
21
0.457316
31
0.0
0
LINE
8
FRONT
10
0.259125
20
1.207316
30
0.0
11
0.259125
21
0.457316
31
0.0
0
LINE
8
FRONT
10
0.259125
20
0.457316
30
0.0
11
0.293625
21
0.457316
31
0.0
0
LINE
8
FRONT
10
0.293625
20
1.207316
30
0.0
11
0.293625
21
0.457316
31
0.0
0
LINE
8
FRONT_HID
6
HIDDEN
10
0.000000
20
1.569566
30
0.0
11
0.008333
21
1.569566
31
0.0
0
LINE
8
FRONT_HID
6
HIDDEN
10
0.008333
20
1.207316
30
0.0
11
0.008333
21
1.569566
31
0.0
0
LINE
8
FRONT_HID
6
HIDDEN
10
0.000000
20
1.207316
30
0.0
11
0.008333
21
1.207316
31
0.0
0
LINE
8
FRONT_HID
6
HIDDEN
10
0.008333
20
1.569566
30
0.0
11
0.353917
21
1.569566
31
0.0
0
LINE
8
FRONT_HID
6
HIDDEN
10
0.353917
20
1.207316
30
0.0
11
0.353917
21
1.569566
31
0.0
0
LINE
8
FRONT_HID
6
HIDDEN
10
0.008333
20
1.207316
30
0.0
11
0.353917
21
1.207316
31
0.0
0
LINE
8
FRONT_HID
6
HIDDEN
10
0.353917
20
1.207316
30
0.0
11
0.362250
21
1.207316
31
0.0
0
LINE
8
FRONT_HID
6
HIDDEN
10
0.068625
20
1.207316
30
0.0
11
0.103125
21
1.207316
31
0.0
0
LINE
8
FRONT_HID
6
HIDDEN
10
0.103125
20
1.207316
30
0.0
11
0.068625
21
1.207316
31
0.0
0
LINE
8
FRONT_HID
6
HIDDEN
10
0.163875
20
1.207316
30
0.0
11
0.198375
21
1.207316
31
0.0
0
LINE
8
FRONT_HID
6
HIDDEN
10
0.198375
20
1.207316
30
0.0
11
0.163875
21
1.207316
31
0.0
0
LINE
8
FRONT_HID
6
HIDDEN
10
0.259125
20
1.207316
30
0.0
11
0.293625
21
1.207316
31
0.0
0
LINE
8
FRONT_HID
6
HIDDEN
10
0.293625
20
1.207316
30
0.0
11
0.259125
21
1.207316
31
0.0
0
LINE
8
FRONT_HID
6
HIDDEN
10
0.353917
20
1.569566
30
0.0
11
0.362250
21
1.569566
31
0.0
0
LINE
8
LEFT
10
0.724357
20
1.207316
30
0.0
11
0.724357
21
1.569566
31
0.0
0
LINE
8
LEFT
10
0.724357
20
1.569566
30
0.0
11
0.819607
21
1.569566
31
0.0
0
LINE
8
LEFT
10
0.819607
20
1.207316
30
0.0
11
0.819607
21
1.569566
31
0.0
0
LINE
8
LEFT
10
0.724357
20
1.207316
30
0.0
11
0.819607
21
1.207316
31
0.0
0
LINE
8
LEFT
10
0.584700
20
1.207316
30
0.0
11
0.724357
21
1.207316
31
0.0
0
LINE
8
LEFT
10
0.584700
20
1.569566
30
0.0
11
0.724357
21
1.569566
31
0.0
0
LINE
8
LEFT
10
0.741607
20
1.207316
30
0.0
11
0.741607
21
0.457316
31
0.0
0
LINE
8
LEFT
10
0.741607
20
0.457316
30
0.0
11
0.707107
21
0.457316
31
0.0
0
LINE
8
LEFT
10
0.707107
20
1.207316
30
0.0
11
0.707107
21
0.457316
31
0.0
0
LINE
8
LEFT
10
0.584700
20
1.569566
30
0.0
11
0.584700
21
1.207316
31
0.0
0
LINE
8
LEFT_HID
6
HIDDEN
10
0.741607
20
1.207316
30
0.0
11
0.707107
21
1.207316
31
0.0
0
LINE
8
LEFT_HID
6
HIDDEN
10
0.707107
20
1.207316
30
0.0
11
0.741607
21
1.207316
31
0.0
0
LINE
8
LEFT_HID
6
HIDDEN
10
0.741607
20
1.207316
30
0.0
11
0.707107
21
1.207316
31
0.0
0
LINE
8
LEFT_HID
6
HIDDEN
10
0.707107
20
1.207316
30
0.0
11
0.741607
21
1.207316
31
0.0
0
LINE
8
LEFT_HID
6
HIDDEN
10
0.741607
20
1.207316
30
0.0
11
0.707107
21
1.207316
31
0.0
0
LINE
8
LEFT_HID
6
HIDDEN
10
0.707107
20
1.207316
30
0.0
11
0.741607
21
1.207316
31
0.0
0
LINE
8
TOP
10
0.000000
20
0.095250
30
0.0
11
0.008333
21
0.000000
31
0.0
0
LINE
8
TOP
10
0.362250
20
0.095250
30
0.0
11
0.360107
21
0.102760
31
0.0
0
LINE
8
TOP
10
0.360107
20
0.102760
30
0.0
11
0.357653
21
0.110174
31
0.0
0
LINE
8
TOP
10
0.357653
20
0.110174
30
0.0
11
0.354891
21
0.117480
31
0.0
0
LINE
8
TOP
10
0.354891
20
0.117480
30
0.0
11
0.351828
21
0.124664
31
0.0
0
LINE
8
TOP
10
0.351828
20
0.124664
30
0.0
11
0.348468
21
0.131713
31
0.0
0
LINE
8
TOP
10
0.348468
20
0.131713
30
0.0
11
0.344816
21
0.138617
31
0.0
0
LINE
8
TOP
10
0.344816
20
0.138617
30
0.0
11
0.340880
21
0.145363
31
0.0
0
LINE
8
TOP
10
0.340880
20
0.145363
30
0.0
11
0.336667
21
0.151938
31
0.0
0
LINE
8
TOP
10
0.336667
20
0.151938
30
0.0
11
0.332182
21
0.158332
31
0.0
0
LINE
8
TOP
10
0.332182
20
0.158332
30
0.0
11
0.327435
21
0.164534
31
0.0
0
LINE
8
TOP
10
0.327435
20
0.164534
30
0.0
11
0.322434
21
0.170532
31
0.0
0
LINE
8
TOP
10
0.322434
20
0.170532
30
0.0
11
0.317187
21
0.176317
31
0.0
0
LINE
8
TOP
10
0.317187
20
0.176317
30
0.0
11
0.311703
21
0.181878
31
0.0
0
LINE
8
TOP
10
0.311703
20
0.181878
30
0.0
11
0.305992
21
0.187205
31
0.0
0
LINE
8
TOP
10
0.305992
20
0.187205
30
0.0
11
0.300064
21
0.192290
31
0.0
0
LINE
8
TOP
10
0.300064
20
0.192290
30
0.0
11
0.293930
21
0.197123
31
0.0
0
LINE
8
TOP
10
0.293930
20
0.197123
30
0.0
11
0.287599
21
0.201696
31
0.0
0
LINE
8
TOP
10
0.287599
20
0.201696
30
0.0
11
0.281083
21
0.206001
31
0.0
0
LINE
8
TOP
10
0.281083
20
0.206001
30
0.0
11
0.274393
21
0.210031
31
0.0
0
LINE
8
TOP
10
0.274393
20
0.210031
30
0.0
11
0.267541
21
0.213778
31
0.0
0
LINE
8
TOP
10
0.267541
20
0.213778
30
0.0
11
0.260538
21
0.217236
31
0.0
0
LINE
8
TOP
10
0.260538
20
0.217236
30
0.0
11
0.253398
21
0.220400
31
0.0
0
LINE
8
TOP
10
0.253398
20
0.220400
30
0.0
11
0.246132
21
0.223263
31
0.0
0
LINE
8
TOP
10
0.246132
20
0.223263
30
0.0
11
0.238753
21
0.225820
31
0.0
0
LINE
8
TOP
10
0.238753
20
0.225820
30
0.0
11
0.231273
21
0.228068
31
0.0
0
LINE
8
TOP
10
0.231273
20
0.228068
30
0.0
11
0.223707
21
0.230002
31
0.0
0
LINE
8
TOP
10
0.223707
20
0.230002
30
0.0
11
0.216066
21
0.231618
31
0.0
0
LINE
8
TOP
10
0.216066
20
0.231618
30
0.0
11
0.208364
21
0.232915
31
0.0
0
LINE
8
TOP
10
0.208364
20
0.232915
30
0.0
11
0.200616
21
0.233890
31
0.0
0
LINE
8
TOP
10
0.200616
20
0.233890
30
0.0
11
0.192833
21
0.234540
31
0.0
0
LINE
8
TOP
10
0.192833
20
0.234540
30
0.0
11
0.185030
21
0.234866
31
0.0
0
LINE
8
TOP
10
0.185030
20
0.234866
30
0.0
11
0.177220
21
0.234866
31
0.0
0
LINE
8
TOP
10
0.177220
20
0.234866
30
0.0
11
0.169417
21
0.234540
31
0.0
0
LINE
8
TOP
10
0.169417
20
0.234540
30
0.0
11
0.161634
21
0.233890
31
0.0
0
LINE
8
TOP
10
0.161634
20
0.233890
30
0.0
11
0.153886
21
0.232915
31
0.0
0
LINE
8
TOP
10
0.153886
20
0.232915
30
0.0
11
0.146184
21
0.231618
31
0.0
0
LINE
8
TOP
10
0.146184
20
0.231618
30
0.0
11
0.138543
21
0.230002
31
0.0
0
LINE
8
TOP
10
0.138543
20
0.230002
30
0.0
11
0.130977
21
0.228068
31
0.0
0
LINE
8
TOP
10
0.130977
20
0.228068
30
0.0
11
0.123497
21
0.225820
31
0.0
0
LINE
8
TOP
10
0.123497
20
0.225820
30
0.0
11
0.116118
21
0.223263
31
0.0
0
LINE
8
TOP
10
0.116118
20
0.223263
30
0.0
11
0.108852
21
0.220400
31
0.0
0
LINE
8
TOP
10
0.108852
20
0.220400
30
0.0
11
0.101712
21
0.217236
31
0.0
0
LINE
8
TOP
10
0.101712
20
0.217236
30
0.0
11
0.094709
21
0.213778
31
0.0
0
LINE
8
TOP
10
0.094709
20
0.213778
30
0.0
11
0.087857
21
0.210031
31
0.0
0
LINE
8
TOP
10
0.087857
20
0.210031
30
0.0
11
0.081167
21
0.206001
31
0.0
0
LINE
8
TOP
10
0.081167
20
0.206001
30
0.0
11
0.074651
21
0.201696
31
0.0
0
LINE
8
TOP
10
0.074651
20
0.201696
30
0.0
11
0.068320
21
0.197123
31
0.0
0
LINE
8
TOP
10
0.068320
20
0.197123
30
0.0
11
0.062186
21
0.192290
31
0.0
0
LINE
8
TOP
10
0.062186
20
0.192290
30
0.0
11
0.056258
21
0.187205
31
0.0
0
LINE
8
TOP
10
0.056258
20
0.187205
30
0.0
11
0.050547
21
0.181878
31
0.0
0
LINE
8
TOP
10
0.050547
20
0.181878
30
0.0
11
0.045063
21
0.176317
31
0.0
0
LINE
8
TOP
10
0.045063
20
0.176317
30
0.0
11
0.039816
21
0.170532
31
0.0
0
LINE
8
TOP
10
0.039816
20
0.170532
30
0.0
11
0.034815
21
0.164534
31
0.0
0
LINE
8
TOP
10
0.034815
20
0.164534
30
0.0
11
0.030068
21
0.158332
31
0.0
0
LINE
8
TOP
10
0.030068
20
0.158332
30
0.0
11
0.025583
21
0.151938
31
0.0
0
LINE
8
TOP
10
0.025583
20
0.151938
30
0.0
11
0.021370
21
0.145363
31
0.0
0
LINE
8
TOP
10
0.021370
20
0.145363
30
0.0
11
0.017434
21
0.138617
31
0.0
0
LINE
8
TOP
10
0.017434
20
0.138617
30
0.0
11
0.013782
21
0.131713
31
0.0
0
LINE
8
TOP
10
0.013782
20
0.131713
30
0.0
11
0.010422
21
0.124664
31
0.0
0
LINE
8
TOP
10
0.010422
20
0.124664
30
0.0
11
0.007359
21
0.117480
31
0.0
0
LINE
8
TOP
10
0.007359
20
0.117480
30
0.0
11
0.004597
21
0.110174
31
0.0
0
LINE
8
TOP
10
0.004597
20
0.110174
30
0.0
11
0.002143
21
0.102760
31
0.0
0
LINE
8
TOP
10
0.002143
20
0.102760
30
0.0
11
0.000000
21
0.095250
31
0.0
0
LINE
8
TOP
10
0.008333
20
0.000000
30
0.0
11
0.353917
21
0.000000
31
0.0
0
LINE
8
TOP
10
0.353917
20
0.000000
30
0.0
11
0.362250
21
0.095250
31
0.0
0
LINE
8
TOP_HID
6
HIDDEN
10
0.068625
20
0.078000
30
0.0
11
0.068625
21
0.112500
31
0.0
0
LINE
8
TOP_HID
6
HIDDEN
10
0.068625
20
0.112500
30
0.0
11
0.103125
21
0.112500
31
0.0
0
LINE
8
TOP_HID
6
HIDDEN
10
0.103125
20
0.112500
30
0.0
11
0.103125
21
0.078000
31
0.0
0
LINE
8
TOP_HID
6
HIDDEN
10
0.103125
20
0.078000
30
0.0
11
0.068625
21
0.078000
31
0.0
0
LINE
8
TOP_HID
6
HIDDEN
10
0.163875
20
0.078000
30
0.0
11
0.163875
21
0.112500
31
0.0
0
LINE
8
TOP_HID
6
HIDDEN
10
0.163875
20
0.112500
30
0.0
11
0.198375
21
0.112500
31
0.0
0
LINE
8
TOP_HID
6
HIDDEN
10
0.198375
20
0.112500
30
0.0
11
0.198375
21
0.078000
31
0.0
0
LINE
8
TOP_HID
6
HIDDEN
10
0.198375
20
0.078000
30
0.0
11
0.163875
21
0.078000
31
0.0
0
LINE
8
TOP_HID
6
HIDDEN
10
0.259125
20
0.078000
30
0.0
11
0.259125
21
0.112500
31
0.0
0
LINE
8
TOP_HID
6
HIDDEN
10
0.259125
20
0.112500
30
0.0
11
0.293625
21
0.112500
31
0.0
0
LINE
8
TOP_HID
6
HIDDEN
10
0.293625
20
0.112500
30
0.0
11
0.293625
21
0.078000
31
0.0
0
LINE
8
TOP_HID
6
HIDDEN
10
0.293625
20
0.078000
30
0.0
11
0.259125
21
0.078000
31
0.0
0
LINE
8
TOP_HID
6
HIDDEN
10
0.068625
20
0.078000
30
0.0
11
0.068625
21
0.112500
31
0.0
0
LINE
8
TOP_HID
6
HIDDEN
10
0.103125
20
0.078000
30
0.0
11
0.068625
21
0.078000
31
0.0
0
LINE
8
TOP_HID
6
HIDDEN
10
0.103125
20
0.112500
30
0.0
11
0.103125
21
0.078000
31
0.0
0
LINE
8
TOP_HID
6
HIDDEN
10
0.068625
20
0.112500
30
0.0
11
0.103125
21
0.112500
31
0.0
0
LINE
8
TOP_HID
6
HIDDEN
10
0.163875
20
0.078000
30
0.0
11
0.163875
21
0.112500
31
0.0
0
LINE
8
TOP_HID
6
HIDDEN
10
0.198375
20
0.078000
30
0.0
11
0.163875
21
0.078000
31
0.0
0
LINE
8
TOP_HID
6
HIDDEN
10
0.163875
20
0.112500
30
0.0
11
0.198375
21
0.112500
31
0.0
0
LINE
8
TOP_HID
6
HIDDEN
10
0.198375
20
0.112500
30
0.0
11
0.198375
21
0.078000
31
0.0
0
LINE
8
TOP_HID
6
HIDDEN
10
0.259125
20
0.078000
30
0.0
11
0.259125
21
0.112500
31
0.0
0
LINE
8
TOP_HID
6
HIDDEN
10
0.293625
20
0.078000
30
0.0
11
0.259125
21
0.078000
31
0.0
0
LINE
8
TOP_HID
6
HIDDEN
10
0.259125
20
0.112500
30
0.0
11
0.293625
21
0.112500
31
0.0
0
LINE
8
TOP_HID
6
HIDDEN
10
0.293625
20
0.112500
30
0.0
11
0.293625
21
0.078000
31
0.0
0
ENDSEC
0
EOF
