0
SECTION
2
HEADER
9
$ACADVER
1
AC1009
0
ENDSEC
0
SECTION
2
TABLES
0
TABLE
2
LTYPE
70
3
0
LTYPE
2
CONTINUOUS
70
0
3
Solid line
72
65
73
0
40
0.0
0
LTYPE
2
HIDDEN
70
0
3
__ __ __ __ __
72
65
73
2
40
0.040881
49
0.027268
49
-0.013613
0
LTYPE
2
CENTER
70
0
3
___ _ ___ _ ___
72
65
73
4
40
0.095375
49
0.054494
49
-0.013613
49
0.013613
49
-0.013613
0
ENDTAB
0
TABLE
2
LAYER
70
6
0
LAYER
2
0
70
0
62
7
6
CONTINUOUS
0
LAYER
2
FRONT
70
0
62
7
6
CONTINUOUS
0
LAYER
2
FRONT_HID
70
0
62
7
6
HIDDEN
0
LAYER
2
LEFT
70
0
62
7
6
CONTINUOUS
0
LAYER
2
TOP
70
0
62
7
6
CONTINUOUS
0
LAYER
2
TOP_HID
70
0
62
7
6
HIDDEN
0
ENDTAB
0
ENDSEC
0
SECTION
2
ENTITIES
0
LINE
8
FRONT
10
0.000000
20
0.186235
30
0.0
11
0.000000
21
0.197591
31
0.0
0
LINE
8
FRONT
10
0.056779
20
0.186235
30
0.0
11
0.056779
21
0.197591
31
0.0
0
LINE
8
FRONT
10
0.056779
20
0.197591
30
0.0
11
0.056779
21
0.992498
31
0.0
0
LINE
8
FRONT
10
0.000000
20
0.197591
30
0.0
11
0.000000
21
0.992498
31
0.0
0
LINE
8
FRONT
10
0.000000
20
0.992498
30
0.0
11
0.000000
21
1.003853
31
0.0
0
LINE
8
FRONT
10
0.056779
20
0.992498
30
0.0
11
0.056779
21
1.003853
31
0.0
0
LINE
8
FRONT
10
0.000000
20
0.197591
30
0.0
11
0.056779
21
0.197591
31
0.0
0
LINE
8
FRONT
10
0.000000
20
0.992498
30
0.0
11
0.056779
21
0.992498
31
0.0
0
LINE
8
FRONT
10
0.056779
20
0.186235
30
0.0
11
0.000000
21
0.186235
31
0.0
0
LINE
8
FRONT
10
0.056779
20
1.003853
30
0.0
11
0.000000
21
1.003853
31
0.0
0
LINE
8
FRONT_HID
6
HIDDEN
10
0.000000
20
0.203269
30
0.0
11
0.000000
21
0.191913
31
0.0
0
LINE
8
FRONT_HID
6
HIDDEN
10
0.000000
20
0.191913
30
0.0
11
0.000000
21
0.203269
31
0.0
0
LINE
8
FRONT_HID
6
HIDDEN
10
0.000000
20
0.203269
30
0.0
11
0.056779
21
0.203269
31
0.0
0
LINE
8
FRONT_HID
6
HIDDEN
10
0.056779
20
0.203269
30
0.0
11
0.056779
21
0.191913
31
0.0
0
LINE
8
FRONT_HID
6
HIDDEN
10
0.056779
20
0.191913
30
0.0
11
0.056779
21
0.203269
31
0.0
0
LINE
8
FRONT_HID
6
HIDDEN
10
0.000000
20
0.998175
30
0.0
11
0.000000
21
0.986820
31
0.0
0
LINE
8
FRONT_HID
6
HIDDEN
10
0.000000
20
0.986820
30
0.0
11
0.000000
21
0.998175
31
0.0
0
LINE
8
FRONT_HID
6
HIDDEN
10
0.000000
20
0.998175
30
0.0
11
0.056779
21
0.998175
31
0.0
0
LINE
8
FRONT_HID
6
HIDDEN
10
0.056779
20
0.998175
30
0.0
11
0.056779
21
0.986820
31
0.0
0
LINE
8
FRONT_HID
6
HIDDEN
10
0.056779
20
0.986820
30
0.0
11
0.056779
21
0.998175
31
0.0
0
LINE
8
FRONT_HID
6
HIDDEN
10
0.056779
20
0.191913
30
0.0
11
0.000000
21
0.191913
31
0.0
0
LINE
8
FRONT_HID
6
HIDDEN
10
0.056779
20
0.986820
30
0.0
11
0.000000
21
0.986820
31
0.0
0
LINE
8
LEFT
10
0.243014
20
0.197588
30
0.0
11
0.243000
21
0.197021
31
0.0
0
LINE
8
LEFT
10
0.243000
20
0.197021
30
0.0
11
0.242958
21
0.196457
31
0.0
0
LINE
8
LEFT
10
0.242958
20
0.196457
30
0.0
11
0.242887
21
0.195895
31
0.0
0
LINE
8
LEFT
10
0.242887
20
0.195895
30
0.0
11
0.242789
21
0.195337
31
0.0
0
LINE
8
LEFT
10
0.242789
20
0.195337
30
0.0
11
0.242663
21
0.194785
31
0.0
0
LINE
8
LEFT
10
0.242663
20
0.194785
30
0.0
11
0.242510
21
0.194240
31
0.0
0
LINE
8
LEFT
10
0.242510
20
0.194240
30
0.0
11
0.242329
21
0.193704
31
0.0
0
LINE
8
LEFT
10
0.242329
20
0.193704
30
0.0
11
0.242123
21
0.193177
31
0.0
0
LINE
8
LEFT
10
0.242123
20
0.193177
30
0.0
11
0.241890
21
0.192660
31
0.0
0
LINE
8
LEFT
10
0.241890
20
0.192660
30
0.0
11
0.241631
21
0.192157
31
0.0
0
LINE
8
LEFT
10
0.241631
20
0.192157
30
0.0
11
0.241348
21
0.191666
31
0.0
0
LINE
8
LEFT
10
0.241348
20
0.191666
30
0.0
11
0.241041
21
0.191191
31
0.0
0
LINE
8
LEFT
10
0.241041
20
0.191191
30
0.0
11
0.240711
21
0.190731
31
0.0
0
LINE
8
LEFT
10
0.240711
20
0.190731
30
0.0
11
0.240358
21
0.190288
31
0.0
0
LINE
8
LEFT
10
0.240358
20
0.190288
30
0.0
11
0.239983
21
0.189864
31
0.0
0
LINE
8
LEFT
10
0.239983
20
0.189864
30
0.0
11
0.239588
21
0.189458
31
0.0
0
LINE
8
LEFT
10
0.239588
20
0.189458
30
0.0
11
0.239172
21
0.189073
31
0.0
0
LINE
8
LEFT
10
0.239172
20
0.189073
30
0.0
11
0.238739
21
0.188709
31
0.0
0
LINE
8
LEFT
10
0.238739
20
0.188709
30
0.0
11
0.238287
21
0.188367
31
0.0
0
LINE
8
LEFT
10
0.238287
20
0.188367
30
0.0
11
0.237820
21
0.188048
31
0.0
0
LINE
8
LEFT
10
0.237820
20
0.188048
30
0.0
11
0.237336
21
0.187753
31
0.0
0
LINE
8
LEFT
10
0.237336
20
0.187753
30
0.0
11
0.236839
21
0.187482
31
0.0
0
LINE
8
LEFT
10
0.236839
20
0.187482
30
0.0
11
0.236329
21
0.187237
31
0.0
0
LINE
8
LEFT
10
0.236329
20
0.187237
30
0.0
11
0.235807
21
0.187017
31
0.0
0
LINE
8
LEFT
10
0.235807
20
0.187017
30
0.0
11
0.235275
21
0.186823
31
0.0
0
LINE
8
LEFT
10
0.235275
20
0.186823
30
0.0
11
0.234734
21
0.186656
31
0.0
0
LINE
8
LEFT
10
0.234734
20
0.186656
30
0.0
11
0.234185
21
0.186516
31
0.0
0
LINE
8
LEFT
10
0.234185
20
0.186516
30
0.0
11
0.233630
21
0.186404
31
0.0
0
LINE
8
LEFT
10
0.233630
20
0.186404
30
0.0
11
0.233070
21
0.186320
31
0.0
0
LINE
8
LEFT
10
0.233070
20
0.186320
30
0.0
11
0.232507
21
0.186263
31
0.0
0
LINE
8
LEFT
10
0.232507
20
0.186263
30
0.0
11
0.231942
21
0.186235
31
0.0
0
LINE
8
LEFT
10
0.231942
20
0.186235
30
0.0
11
0.231375
21
0.186235
31
0.0
0
LINE
8
LEFT
10
0.231375
20
0.186235
30
0.0
11
0.230810
21
0.186263
31
0.0
0
LINE
8
LEFT
10
0.230810
20
0.186263
30
0.0
11
0.230246
21
0.186320
31
0.0
0
LINE
8
LEFT
10
0.230246
20
0.186320
30
0.0
11
0.229687
21
0.186404
31
0.0
0
LINE
8
LEFT
10
0.229687
20
0.186404
30
0.0
11
0.229132
21
0.186516
31
0.0
0
LINE
8
LEFT
10
0.229132
20
0.186516
30
0.0
11
0.228583
21
0.186656
31
0.0
0
LINE
8
LEFT
10
0.228583
20
0.186656
30
0.0
11
0.228042
21
0.186823
31
0.0
0
LINE
8
LEFT
10
0.228042
20
0.186823
30
0.0
11
0.227510
21
0.187017
31
0.0
0
LINE
8
LEFT
10
0.227510
20
0.187017
30
0.0
11
0.226988
21
0.187237
31
0.0
0
LINE
8
LEFT
10
0.226988
20
0.187237
30
0.0
11
0.226478
21
0.187482
31
0.0
0
LINE
8
LEFT
10
0.226478
20
0.187482
30
0.0
11
0.225981
21
0.187753
31
0.0
0
LINE
8
LEFT
10
0.225981
20
0.187753
30
0.0
11
0.225497
21
0.188048
31
0.0
0
LINE
8
LEFT
10
0.225497
20
0.188048
30
0.0
11
0.225030
21
0.188367
31
0.0
0
LINE
8
LEFT
10
0.225030
20
0.188367
30
0.0
11
0.224578
21
0.188709
31
0.0
0
LINE
8
LEFT
10
0.224578
20
0.188709
30
0.0
11
0.224144
21
0.189073
31
0.0
0
LINE
8
LEFT
10
0.224144
20
0.189073
30
0.0
11
0.223729
21
0.189458
31
0.0
0
LINE
8
LEFT
10
0.223729
20
0.189458
30
0.0
11
0.223334
21
0.189864
31
0.0
0
LINE
8
LEFT
10
0.223334
20
0.189864
30
0.0
11
0.222959
21
0.190288
31
0.0
0
LINE
8
LEFT
10
0.222959
20
0.190288
30
0.0
11
0.222606
21
0.190731
31
0.0
0
LINE
8
LEFT
10
0.222606
20
0.190731
30
0.0
11
0.222276
21
0.191191
31
0.0
0
LINE
8
LEFT
10
0.222276
20
0.191191
30
0.0
11
0.221969
21
0.191666
31
0.0
0
LINE
8
LEFT
10
0.221969
20
0.191666
30
0.0
11
0.221686
21
0.192157
31
0.0
0
LINE
8
LEFT
10
0.221686
20
0.192157
30
0.0
11
0.221427
21
0.192660
31
0.0
0
LINE
8
LEFT
10
0.221427
20
0.192660
30
0.0
11
0.221194
21
0.193177
31
0.0
0
LINE
8
LEFT
10
0.221194
20
0.193177
30
0.0
11
0.220988
21
0.193704
31
0.0
0
LINE
8
LEFT
10
0.220988
20
0.193704
30
0.0
11
0.220807
21
0.194240
31
0.0
0
LINE
8
LEFT
10
0.220807
20
0.194240
30
0.0
11
0.220654
21
0.194785
31
0.0
0
LINE
8
LEFT
10
0.220654
20
0.194785
30
0.0
11
0.220528
21
0.195337
31
0.0
0
LINE
8
LEFT
10
0.220528
20
0.195337
30
0.0
11
0.220430
21
0.195895
31
0.0
0
LINE
8
LEFT
10
0.220430
20
0.195895
30
0.0
11
0.220359
21
0.196457
31
0.0
0
LINE
8
LEFT
10
0.220359
20
0.196457
30
0.0
11
0.220317
21
0.197021
31
0.0
0
LINE
8
LEFT
10
0.220317
20
0.197021
30
0.0
11
0.220303
21
0.197588
31
0.0
0
LINE
8
LEFT
10
0.220303
20
0.197588
30
0.0
11
0.220303
21
0.992494
31
0.0
0
LINE
8
LEFT
10
0.220303
20
0.992494
30
0.0
11
0.220317
21
0.993060
31
0.0
0
LINE
8
LEFT
10
0.220317
20
0.993060
30
0.0
11
0.220359
21
0.993625
31
0.0
0
LINE
8
LEFT
10
0.220359
20
0.993625
30
0.0
11
0.220430
21
0.994187
31
0.0
0
LINE
8
LEFT
10
0.220430
20
0.994187
30
0.0
11
0.220528
21
0.994744
31
0.0
0
LINE
8
LEFT
10
0.220528
20
0.994744
30
0.0
11
0.220654
21
0.995296
31
0.0
0
LINE
8
LEFT
10
0.220654
20
0.995296
30
0.0
11
0.220807
21
0.995841
31
0.0
0
LINE
8
LEFT
10
0.220807
20
0.995841
30
0.0
11
0.220988
21
0.996378
31
0.0
0
LINE
8
LEFT
10
0.220988
20
0.996378
30
0.0
11
0.221194
21
0.996905
31
0.0
0
LINE
8
LEFT
10
0.221194
20
0.996905
30
0.0
11
0.221427
21
0.997421
31
0.0
0
LINE
8
LEFT
10
0.221427
20
0.997421
30
0.0
11
0.221686
21
0.997925
31
0.0
0
LINE
8
LEFT
10
0.221686
20
0.997925
30
0.0
11
0.221969
21
0.998415
31
0.0
0
LINE
8
LEFT
10
0.221969
20
0.998415
30
0.0
11
0.222276
21
0.998891
31
0.0
0
LINE
8
LEFT
10
0.222276
20
0.998891
30
0.0
11
0.222606
21
0.999351
31
0.0
0
LINE
8
LEFT
10
0.222606
20
0.999351
30
0.0
11
0.222959
21
0.999793
31
0.0
0
LINE
8
LEFT
10
0.222959
20
0.999793
30
0.0
11
0.223334
21
1.000218
31
0.0
0
LINE
8
LEFT
10
0.223334
20
1.000218
30
0.0
11
0.223729
21
1.000623
31
0.0
0
LINE
8
LEFT
10
0.223729
20
1.000623
30
0.0
11
0.224144
21
1.001008
31
0.0
0
LINE
8
LEFT
10
0.224144
20
1.001008
30
0.0
11
0.224578
21
1.001372
31
0.0
0
LINE
8
LEFT
10
0.224578
20
1.001372
30
0.0
11
0.225030
21
1.001714
31
0.0
0
LINE
8
LEFT
10
0.225030
20
1.001714
30
0.0
11
0.225497
21
1.002033
31
0.0
0
LINE
8
LEFT
10
0.225497
20
1.002033
30
0.0
11
0.225981
21
1.002328
31
0.0
0
LINE
8
LEFT
10
0.225981
20
1.002328
30
0.0
11
0.226478
21
1.002599
31
0.0
0
LINE
8
LEFT
10
0.226478
20
1.002599
30
0.0
11
0.226988
21
1.002845
31
0.0
0
LINE
8
LEFT
10
0.226988
20
1.002845
30
0.0
11
0.227510
21
1.003065
31
0.0
0
LINE
8
LEFT
10
0.227510
20
1.003065
30
0.0
11
0.228042
21
1.003259
31
0.0
0
LINE
8
LEFT
10
0.228042
20
1.003259
30
0.0
11
0.228583
21
1.003425
31
0.0
0
LINE
8
LEFT
10
0.228583
20
1.003425
30
0.0
11
0.229132
21
1.003565
31
0.0
0
LINE
8
LEFT
10
0.229132
20
1.003565
30
0.0
11
0.229687
21
1.003677
31
0.0
0
LINE
8
LEFT
10
0.229687
20
1.003677
30
0.0
11
0.230246
21
1.003762
31
0.0
0
LINE
8
LEFT
10
0.230246
20
1.003762
30
0.0
11
0.230810
21
1.003818
31
0.0
0
LINE
8
LEFT
10
0.230810
20
1.003818
30
0.0
11
0.231375
21
1.003846
31
0.0
0
LINE
8
LEFT
10
0.231375
20
1.003846
30
0.0
11
0.231942
21
1.003846
31
0.0
0
LINE
8
LEFT
10
0.231942
20
1.003846
30
0.0
11
0.232507
21
1.003818
31
0.0
0
LINE
8
LEFT
10
0.232507
20
1.003818
30
0.0
11
0.233070
21
1.003762
31
0.0
0
LINE
8
LEFT
10
0.233070
20
1.003762
30
0.0
11
0.233630
21
1.003677
31
0.0
0
LINE
8
LEFT
10
0.233630
20
1.003677
30
0.0
11
0.234185
21
1.003565
31
0.0
0
LINE
8
LEFT
10
0.234185
20
1.003565
30
0.0
11
0.234734
21
1.003425
31
0.0
0
LINE
8
LEFT
10
0.234734
20
1.003425
30
0.0
11
0.235275
21
1.003259
31
0.0
0
LINE
8
LEFT
10
0.235275
20
1.003259
30
0.0
11
0.235807
21
1.003065
31
0.0
0
LINE
8
LEFT
10
0.235807
20
1.003065
30
0.0
11
0.236329
21
1.002845
31
0.0
0
LINE
8
LEFT
10
0.236329
20
1.002845
30
0.0
11
0.236839
21
1.002599
31
0.0
0
LINE
8
LEFT
10
0.236839
20
1.002599
30
0.0
11
0.237336
21
1.002328
31
0.0
0
LINE
8
LEFT
10
0.237336
20
1.002328
30
0.0
11
0.237820
21
1.002033
31
0.0
0
LINE
8
LEFT
10
0.237820
20
1.002033
30
0.0
11
0.238287
21
1.001714
31
0.0
0
LINE
8
LEFT
10
0.238287
20
1.001714
30
0.0
11
0.238739
21
1.001372
31
0.0
0
LINE
8
LEFT
10
0.238739
20
1.001372
30
0.0
11
0.239172
21
1.001008
31
0.0
0
LINE
8
LEFT
10
0.239172
20
1.001008
30
0.0
11
0.239588
21
1.000623
31
0.0
0
LINE
8
LEFT
10
0.239588
20
1.000623
30
0.0
11
0.239983
21
1.000218
31
0.0
0
LINE
8
LEFT
10
0.239983
20
1.000218
30
0.0
11
0.240358
21
0.999793
31
0.0
0
LINE
8
LEFT
10
0.240358
20
0.999793
30
0.0
11
0.240711
21
0.999351
31
0.0
0
LINE
8
LEFT
10
0.240711
20
0.999351
30
0.0
11
0.241041
21
0.998891
31
0.0
0
LINE
8
LEFT
10
0.241041
20
0.998891
30
0.0
11
0.241348
21
0.998415
31
0.0
0
LINE
8
LEFT
10
0.241348
20
0.998415
30
0.0
11
0.241631
21
0.997925
31
0.0
0
LINE
8
LEFT
10
0.241631
20
0.997925
30
0.0
11
0.241890
21
0.997421
31
0.0
0
LINE
8
LEFT
10
0.241890
20
0.997421
30
0.0
11
0.242123
21
0.996905
31
0.0
0
LINE
8
LEFT
10
0.242123
20
0.996905
30
0.0
11
0.242329
21
0.996378
31
0.0
0
LINE
8
LEFT
10
0.242329
20
0.996378
30
0.0
11
0.242510
21
0.995841
31
0.0
0
LINE
8
LEFT
10
0.242510
20
0.995841
30
0.0
11
0.242663
21
0.995296
31
0.0
0
LINE
8
LEFT
10
0.242663
20
0.995296
30
0.0
11
0.242789
21
0.994744
31
0.0
0
LINE
8
LEFT
10
0.242789
20
0.994744
30
0.0
11
0.242887
21
0.994187
31
0.0
0
LINE
8
LEFT
10
0.242887
20
0.994187
30
0.0
11
0.242958
21
0.993625
31
0.0
0
LINE
8
LEFT
10
0.242958
20
0.993625
30
0.0
11
0.243000
21
0.993060
31
0.0
0
LINE
8
LEFT
10
0.243000
20
0.993060
30
0.0
11
0.243014
21
0.992494
31
0.0
0
LINE
8
LEFT
10
0.243014
20
0.992494
30
0.0
11
0.243014
21
0.197588
31
0.0
0
LINE
8
LEFT
10
0.231658
20
0.203265
30
0.0
11
0.232224
21
0.203237
31
0.0
0
LINE
8
LEFT
10
0.232224
20
0.203237
30
0.0
11
0.232784
21
0.203153
31
0.0
0
LINE
8
LEFT
10
0.232784
20
0.203153
30
0.0
11
0.233332
21
0.203013
31
0.0
0
LINE
8
LEFT
10
0.233332
20
0.203013
30
0.0
11
0.233864
21
0.202820
31
0.0
0
LINE
8
LEFT
10
0.233864
20
0.202820
30
0.0
11
0.234374
21
0.202574
31
0.0
0
LINE
8
LEFT
10
0.234374
20
0.202574
30
0.0
11
0.234857
21
0.202279
31
0.0
0
LINE
8
LEFT
10
0.234857
20
0.202279
30
0.0
11
0.235308
21
0.201937
31
0.0
0
LINE
8
LEFT
10
0.235308
20
0.201937
30
0.0
11
0.235723
21
0.201552
31
0.0
0
LINE
8
LEFT
10
0.235723
20
0.201552
30
0.0
11
0.236098
21
0.201128
31
0.0
0
LINE
8
LEFT
10
0.236098
20
0.201128
30
0.0
11
0.236428
21
0.200668
31
0.0
0
LINE
8
LEFT
10
0.236428
20
0.200668
30
0.0
11
0.236711
21
0.200178
31
0.0
0
LINE
8
LEFT
10
0.236711
20
0.200178
30
0.0
11
0.236944
21
0.199662
31
0.0
0
LINE
8
LEFT
10
0.236944
20
0.199662
30
0.0
11
0.237124
21
0.199125
31
0.0
0
LINE
8
LEFT
10
0.237124
20
0.199125
30
0.0
11
0.237250
21
0.198573
31
0.0
0
LINE
8
LEFT
10
0.237250
20
0.198573
30
0.0
11
0.237321
21
0.198012
31
0.0
0
LINE
8
LEFT
10
0.237321
20
0.198012
30
0.0
11
0.237335
21
0.197446
31
0.0
0
LINE
8
LEFT
10
0.237335
20
0.197446
30
0.0
11
0.237292
21
0.196882
31
0.0
0
LINE
8
LEFT
10
0.237292
20
0.196882
30
0.0
11
0.237194
21
0.196324
31
0.0
0
LINE
8
LEFT
10
0.237194
20
0.196324
30
0.0
11
0.237041
21
0.195779
31
0.0
0
LINE
8
LEFT
10
0.237041
20
0.195779
30
0.0
11
0.236834
21
0.195252
31
0.0
0
LINE
8
LEFT
10
0.236834
20
0.195252
30
0.0
11
0.236576
21
0.194749
31
0.0
0
LINE
8
LEFT
10
0.236576
20
0.194749
30
0.0
11
0.236269
21
0.194273
31
0.0
0
LINE
8
LEFT
10
0.236269
20
0.194273
30
0.0
11
0.235916
21
0.193831
31
0.0
0
LINE
8
LEFT
10
0.235916
20
0.193831
30
0.0
11
0.235520
21
0.193425
31
0.0
0
LINE
8
LEFT
10
0.235520
20
0.193425
30
0.0
11
0.235087
21
0.193061
31
0.0
0
LINE
8
LEFT
10
0.235087
20
0.193061
30
0.0
11
0.234619
21
0.192743
31
0.0
0
LINE
8
LEFT
10
0.234619
20
0.192743
30
0.0
11
0.234122
21
0.192472
31
0.0
0
LINE
8
LEFT
10
0.234122
20
0.192472
30
0.0
11
0.233600
21
0.192252
31
0.0
0
LINE
8
LEFT
10
0.233600
20
0.192252
30
0.0
11
0.233060
21
0.192085
31
0.0
0
LINE
8
LEFT
10
0.233060
20
0.192085
30
0.0
11
0.232505
21
0.191973
31
0.0
0
LINE
8
LEFT
10
0.232505
20
0.191973
30
0.0
11
0.231941
21
0.191917
31
0.0
0
LINE
8
LEFT
10
0.231941
20
0.191917
30
0.0
11
0.231375
21
0.191917
31
0.0
0
LINE
8
LEFT
10
0.231375
20
0.191917
30
0.0
11
0.230812
21
0.191973
31
0.0
0
LINE
8
LEFT
10
0.230812
20
0.191973
30
0.0
11
0.230257
21
0.192085
31
0.0
0
LINE
8
LEFT
10
0.230257
20
0.192085
30
0.0
11
0.229717
21
0.192252
31
0.0
0
LINE
8
LEFT
10
0.229717
20
0.192252
30
0.0
11
0.229195
21
0.192472
31
0.0
0
LINE
8
LEFT
10
0.229195
20
0.192472
30
0.0
11
0.228698
21
0.192743
31
0.0
0
LINE
8
LEFT
10
0.228698
20
0.192743
30
0.0
11
0.228230
21
0.193061
31
0.0
0
LINE
8
LEFT
10
0.228230
20
0.193061
30
0.0
11
0.227797
21
0.193425
31
0.0
0
LINE
8
LEFT
10
0.227797
20
0.193425
30
0.0
11
0.227401
21
0.193831
31
0.0
0
LINE
8
LEFT
10
0.227401
20
0.193831
30
0.0
11
0.227048
21
0.194273
31
0.0
0
LINE
8
LEFT
10
0.227048
20
0.194273
30
0.0
11
0.226741
21
0.194749
31
0.0
0
LINE
8
LEFT
10
0.226741
20
0.194749
30
0.0
11
0.226483
21
0.195252
31
0.0
0
LINE
8
LEFT
10
0.226483
20
0.195252
30
0.0
11
0.226276
21
0.195779
31
0.0
0
LINE
8
LEFT
10
0.226276
20
0.195779
30
0.0
11
0.226123
21
0.196324
31
0.0
0
LINE
8
LEFT
10
0.226123
20
0.196324
30
0.0
11
0.226025
21
0.196882
31
0.0
0
LINE
8
LEFT
10
0.226025
20
0.196882
30
0.0
11
0.225982
21
0.197446
31
0.0
0
LINE
8
LEFT
10
0.225982
20
0.197446
30
0.0
11
0.225996
21
0.198012
31
0.0
0
LINE
8
LEFT
10
0.225996
20
0.198012
30
0.0
11
0.226067
21
0.198573
31
0.0
0
LINE
8
LEFT
10
0.226067
20
0.198573
30
0.0
11
0.226193
21
0.199125
31
0.0
0
LINE
8
LEFT
10
0.226193
20
0.199125
30
0.0
11
0.226373
21
0.199662
31
0.0
0
LINE
8
LEFT
10
0.226373
20
0.199662
30
0.0
11
0.226606
21
0.200178
31
0.0
0
LINE
8
LEFT
10
0.226606
20
0.200178
30
0.0
11
0.226889
21
0.200668
31
0.0
0
LINE
8
LEFT
10
0.226889
20
0.200668
30
0.0
11
0.227219
21
0.201128
31
0.0
0
LINE
8
LEFT
10
0.227219
20
0.201128
30
0.0
11
0.227594
21
0.201552
31
0.0
0
LINE
8
LEFT
10
0.227594
20
0.201552
30
0.0
11
0.228009
21
0.201937
31
0.0
0
LINE
8
LEFT
10
0.228009
20
0.201937
30
0.0
11
0.228460
21
0.202279
31
0.0
0
LINE
8
LEFT
10
0.228460
20
0.202279
30
0.0
11
0.228943
21
0.202574
31
0.0
0
LINE
8
LEFT
10
0.228943
20
0.202574
30
0.0
11
0.229453
21
0.202820
31
0.0
0
LINE
8
LEFT
10
0.229453
20
0.202820
30
0.0
11
0.229985
21
0.203013
31
0.0
0
LINE
8
LEFT
10
0.229985
20
0.203013
30
0.0
11
0.230533
21
0.203153
31
0.0
0
LINE
8
LEFT
10
0.230533
20
0.203153
30
0.0
11
0.231093
21
0.203237
31
0.0
0
LINE
8
LEFT
10
0.231093
20
0.203237
30
0.0
11
0.231658
21
0.203265
31
0.0
0
LINE
8
LEFT
10
0.231658
20
0.998172
30
0.0
11
0.232224
21
0.998144
31
0.0
0
LINE
8
LEFT
10
0.232224
20
0.998144
30
0.0
11
0.232784
21
0.998059
31
0.0
0
LINE
8
LEFT
10
0.232784
20
0.998059
30
0.0
11
0.233332
21
0.997920
31
0.0
0
LINE
8
LEFT
10
0.233332
20
0.997920
30
0.0
11
0.233864
21
0.997726
31
0.0
0
LINE
8
LEFT
10
0.233864
20
0.997726
30
0.0
11
0.234374
21
0.997481
31
0.0
0
LINE
8
LEFT
10
0.234374
20
0.997481
30
0.0
11
0.234857
21
0.997185
31
0.0
0
LINE
8
LEFT
10
0.234857
20
0.997185
30
0.0
11
0.235308
21
0.996844
31
0.0
0
LINE
8
LEFT
10
0.235308
20
0.996844
30
0.0
11
0.235723
21
0.996459
31
0.0
0
LINE
8
LEFT
10
0.235723
20
0.996459
30
0.0
11
0.236098
21
0.996034
31
0.0
0
LINE
8
LEFT
10
0.236098
20
0.996034
30
0.0
11
0.236428
21
0.995575
31
0.0
0
LINE
8
LEFT
10
0.236428
20
0.995575
30
0.0
11
0.236711
21
0.995084
31
0.0
0
LINE
8
LEFT
10
0.236711
20
0.995084
30
0.0
11
0.236944
21
0.994568
31
0.0
0
LINE
8
LEFT
10
0.236944
20
0.994568
30
0.0
11
0.237124
21
0.994032
31
0.0
0
LINE
8
LEFT
10
0.237124
20
0.994032
30
0.0
11
0.237250
21
0.993480
31
0.0
0
LINE
8
LEFT
10
0.237250
20
0.993480
30
0.0
11
0.237321
21
0.992918
31
0.0
0
LINE
8
LEFT
10
0.237321
20
0.992918
30
0.0
11
0.237335
21
0.992352
31
0.0
0
LINE
8
LEFT
10
0.237335
20
0.992352
30
0.0
11
0.237292
21
0.991788
31
0.0
0
LINE
8
LEFT
10
0.237292
20
0.991788
30
0.0
11
0.237194
21
0.991231
31
0.0
0
LINE
8
LEFT
10
0.237194
20
0.991231
30
0.0
11
0.237041
21
0.990686
31
0.0
0
LINE
8
LEFT
10
0.237041
20
0.990686
30
0.0
11
0.236834
21
0.990159
31
0.0
0
LINE
8
LEFT
10
0.236834
20
0.990159
30
0.0
11
0.236576
21
0.989655
31
0.0
0
LINE
8
LEFT
10
0.236576
20
0.989655
30
0.0
11
0.236269
21
0.989180
31
0.0
0
LINE
8
LEFT
10
0.236269
20
0.989180
30
0.0
11
0.235916
21
0.988737
31
0.0
0
LINE
8
LEFT
10
0.235916
20
0.988737
30
0.0
11
0.235520
21
0.988332
31
0.0
0
LINE
8
LEFT
10
0.235520
20
0.988332
30
0.0
11
0.235087
21
0.987968
31
0.0
0
LINE
8
LEFT
10
0.235087
20
0.987968
30
0.0
11
0.234619
21
0.987649
31
0.0
0
LINE
8
LEFT
10
0.234619
20
0.987649
30
0.0
11
0.234122
21
0.987378
31
0.0
0
LINE
8
LEFT
10
0.234122
20
0.987378
30
0.0
11
0.233600
21
0.987159
31
0.0
0
LINE
8
LEFT
10
0.233600
20
0.987159
30
0.0
11
0.233060
21
0.986992
31
0.0
0
LINE
8
LEFT
10
0.233060
20
0.986992
30
0.0
11
0.232505
21
0.986880
31
0.0
0
LINE
8
LEFT
10
0.232505
20
0.986880
30
0.0
11
0.231941
21
0.986823
31
0.0
0
LINE
8
LEFT
10
0.231941
20
0.986823
30
0.0
11
0.231375
21
0.986823
31
0.0
0
LINE
8
LEFT
10
0.231375
20
0.986823
30
0.0
11
0.230812
21
0.986880
31
0.0
0
LINE
8
LEFT
10
0.230812
20
0.986880
30
0.0
11
0.230257
21
0.986992
31
0.0
0
LINE
8
LEFT
10
0.230257
20
0.986992
30
0.0
11
0.229717
21
0.987159
31
0.0
0
LINE
8
LEFT
10
0.229717
20
0.987159
30
0.0
11
0.229195
21
0.987378
31
0.0
0
LINE
8
LEFT
10
0.229195
20
0.987378
30
0.0
11
0.228698
21
0.987649
31
0.0
0
LINE
8
LEFT
10
0.228698
20
0.987649
30
0.0
11
0.228230
21
0.987968
31
0.0
0
LINE
8
LEFT
10
0.228230
20
0.987968
30
0.0
11
0.227797
21
0.988332
31
0.0
0
LINE
8
LEFT
10
0.227797
20
0.988332
30
0.0
11
0.227401
21
0.988737
31
0.0
0
LINE
8
LEFT
10
0.227401
20
0.988737
30
0.0
11
0.227048
21
0.989180
31
0.0
0
LINE
8
LEFT
10
0.227048
20
0.989180
30
0.0
11
0.226741
21
0.989655
31
0.0
0
LINE
8
LEFT
10
0.226741
20
0.989655
30
0.0
11
0.226483
21
0.990159
31
0.0
0
LINE
8
LEFT
10
0.226483
20
0.990159
30
0.0
11
0.226276
21
0.990686
31
0.0
0
LINE
8
LEFT
10
0.226276
20
0.990686
30
0.0
11
0.226123
21
0.991231
31
0.0
0
LINE
8
LEFT
10
0.226123
20
0.991231
30
0.0
11
0.226025
21
0.991788
31
0.0
0
LINE
8
LEFT
10
0.226025
20
0.991788
30
0.0
11
0.225982
21
0.992352
31
0.0
0
LINE
8
LEFT
10
0.225982
20
0.992352
30
0.0
11
0.225996
21
0.992918
31
0.0
0
LINE
8
LEFT
10
0.225996
20
0.992918
30
0.0
11
0.226067
21
0.993480
31
0.0
0
LINE
8
LEFT
10
0.226067
20
0.993480
30
0.0
11
0.226193
21
0.994032
31
0.0
0
LINE
8
LEFT
10
0.226193
20
0.994032
30
0.0
11
0.226373
21
0.994568
31
0.0
0
LINE
8
LEFT
10
0.226373
20
0.994568
30
0.0
11
0.226606
21
0.995084
31
0.0
0
LINE
8
LEFT
10
0.226606
20
0.995084
30
0.0
11
0.226889
21
0.995575
31
0.0
0
LINE
8
LEFT
10
0.226889
20
0.995575
30
0.0
11
0.227219
21
0.996034
31
0.0
0
LINE
8
LEFT
10
0.227219
20
0.996034
30
0.0
11
0.227594
21
0.996459
31
0.0
0
LINE
8
LEFT
10
0.227594
20
0.996459
30
0.0
11
0.228009
21
0.996844
31
0.0
0
LINE
8
LEFT
10
0.228009
20
0.996844
30
0.0
11
0.228460
21
0.997185
31
0.0
0
LINE
8
LEFT
10
0.228460
20
0.997185
30
0.0
11
0.228943
21
0.997481
31
0.0
0
LINE
8
LEFT
10
0.228943
20
0.997481
30
0.0
11
0.229453
21
0.997726
31
0.0
0
LINE
8
LEFT
10
0.229453
20
0.997726
30
0.0
11
0.229985
21
0.997920
31
0.0
0
LINE
8
LEFT
10
0.229985
20
0.997920
30
0.0
11
0.230533
21
0.998059
31
0.0
0
LINE
8
LEFT
10
0.230533
20
0.998059
30
0.0
11
0.231093
21
0.998144
31
0.0
0
LINE
8
LEFT
10
0.231093
20
0.998144
30
0.0
11
0.231658
21
0.998172
31
0.0
0
LINE
8
TOP
10
0.000000
20
0.022712
30
0.0
11
0.056779
21
0.022712
31
0.0
0
LINE
8
TOP
10
0.000000
20
0.022712
30
0.0
11
0.000000
21
0.000000
31
0.0
0
LINE
8
TOP
10
0.000000
20
0.000000
30
0.0
11
0.056779
21
0.000000
31
0.0
0
LINE
8
TOP
10
0.056779
20
0.022712
30
0.0
11
0.056779
21
0.000000
31
0.0
0
LINE
8
TOP_HID
6
HIDDEN
10
0.000000
20
0.011356
30
0.0
11
0.000000
21
0.005678
31
0.0
0
LINE
8
TOP_HID
6
HIDDEN
10
0.000000
20
0.005678
30
0.0
11
0.000000
21
0.017034
31
0.0
0
LINE
8
TOP_HID
6
HIDDEN
10
0.000000
20
0.017034
30
0.0
11
0.000000
21
0.011356
31
0.0
0
LINE
8
TOP_HID
6
HIDDEN
10
0.056779
20
0.011356
30
0.0
11
0.056779
21
0.005678
31
0.0
0
LINE
8
TOP_HID
6
HIDDEN
10
0.056779
20
0.005678
30
0.0
11
0.056779
21
0.017034
31
0.0
0
LINE
8
TOP_HID
6
HIDDEN
10
0.056779
20
0.017034
30
0.0
11
0.056779
21
0.011356
31
0.0
0
LINE
8
TOP_HID
6
HIDDEN
10
0.000000
20
0.011356
30
0.0
11
0.000000
21
0.005678
31
0.0
0
LINE
8
TOP_HID
6
HIDDEN
10
0.000000
20
0.005678
30
0.0
11
0.000000
21
0.017034
31
0.0
0
LINE
8
TOP_HID
6
HIDDEN
10
0.000000
20
0.017034
30
0.0
11
0.000000
21
0.011356
31
0.0
0
LINE
8
TOP_HID
6
HIDDEN
10
0.056779
20
0.011356
30
0.0
11
0.056779
21
0.005678
31
0.0
0
LINE
8
TOP_HID
6
HIDDEN
10
0.056779
20
0.005678
30
0.0
11
0.056779
21
0.017034
31
0.0
0
LINE
8
TOP_HID
6
HIDDEN
10
0.056779
20
0.017034
30
0.0
11
0.056779
21
0.011356
31
0.0
0
LINE
8
TOP_HID
6
HIDDEN
10
0.056779
20
0.017034
30
0.0
11
0.000000
21
0.017034
31
0.0
0
LINE
8
TOP_HID
6
HIDDEN
10
0.056779
20
0.005678
30
0.0
11
0.000000
21
0.005678
31
0.0
0
LINE
8
TOP_HID
6
HIDDEN
10
0.056779
20
0.017034
30
0.0
11
0.000000
21
0.017034
31
0.0
0
LINE
8
TOP_HID
6
HIDDEN
10
0.056779
20
0.005678
30
0.0
11
0.000000
21
0.005678
31
0.0
0
ENDSEC
0
EOF
