0
SECTION
2
HEADER
9
$ACADVER
1
AC1009
0
ENDSEC
0
SECTION
2
TABLES
0
TABLE
2
LTYPE
70
3
0
LTYPE
2
CONTINUOUS
70
0
3
Solid line
72
65
73
0
40
0.0
0
LTYPE
2
HIDDEN
70
0
3
__ __ __ __ __
72
65
73
2
40
0.075000
49
0.050025
49
-0.024975
0
LTYPE
2
CENTER
70
0
3
___ _ ___ _ ___
72
65
73
4
40
0.174975
49
0.099975
49
-0.024975
49
0.024975
49
-0.024975
0
ENDTAB
0
TABLE
2
LAYER
70
7
0
LAYER
2
0
70
0
62
7
6
CONTINUOUS
0
LAYER
2
FRONT
70
0
62
7
6
CONTINUOUS
0
LAYER
2
FRONT_HID
70
0
62
7
6
HIDDEN
0
LAYER
2
LEFT
70
0
62
7
6
CONTINUOUS
0
LAYER
2
LEFT_HID
70
0
62
7
6
HIDDEN
0
LAYER
2
TOP
70
0
62
7
6
CONTINUOUS
0
LAYER
2
TOP_HID
70
0
62
7
6
HIDDEN
0
ENDTAB
0
ENDSEC
0
SECTION
2
ENTITIES
0
LINE
8
FRONT
10
1.500000
20
1.799534
30
0.0
11
0.000000
21
1.799534
31
0.0
0
LINE
8
FRONT
10
1.500000
20
1.799534
30
0.0
11
1.500000
21
2.163170
31
0.0
0
LINE
8
FRONT
10
1.500000
20
2.163170
30
0.0
11
0.000000
21
2.163170
31
0.0
0
LINE
8
FRONT
10
0.795455
20
2.163170
30
0.0
11
0.795455
21
2.276807
31
0.0
0
LINE
8
FRONT
10
0.795455
20
2.276807
30
0.0
11
0.704545
21
2.276807
31
0.0
0
LINE
8
FRONT
10
1.477273
20
2.163170
30
0.0
11
1.477273
21
2.276807
31
0.0
0
LINE
8
FRONT
10
1.477273
20
2.276807
30
0.0
11
1.386364
21
2.276807
31
0.0
0
LINE
8
FRONT
10
0.000000
20
2.163170
30
0.0
11
0.000000
21
1.799534
31
0.0
0
LINE
8
FRONT
10
0.704545
20
2.276807
30
0.0
11
0.704545
21
2.163170
31
0.0
0
LINE
8
FRONT
10
1.386364
20
2.276807
30
0.0
11
1.386364
21
2.163170
31
0.0
0
LINE
8
FRONT_HID
6
HIDDEN
10
0.700000
20
1.799534
30
0.0
11
0.800000
21
1.799534
31
0.0
0
LINE
8
FRONT_HID
6
HIDDEN
10
0.800000
20
1.799534
30
0.0
11
0.700000
21
1.799534
31
0.0
0
LINE
8
FRONT_HID
6
HIDDEN
10
0.700000
20
1.799534
30
0.0
11
0.800000
21
1.799534
31
0.0
0
LINE
8
FRONT_HID
6
HIDDEN
10
0.800000
20
1.799534
30
0.0
11
0.700000
21
1.799534
31
0.0
0
LINE
8
FRONT_HID
6
HIDDEN
10
1.381818
20
1.799534
30
0.0
11
1.481818
21
1.799534
31
0.0
0
LINE
8
FRONT_HID
6
HIDDEN
10
1.481818
20
1.799534
30
0.0
11
1.381818
21
1.799534
31
0.0
0
LINE
8
FRONT_HID
6
HIDDEN
10
0.795455
20
2.163170
30
0.0
11
0.704545
21
2.163170
31
0.0
0
LINE
8
FRONT_HID
6
HIDDEN
10
0.704545
20
2.163170
30
0.0
11
0.795455
21
2.163170
31
0.0
0
LINE
8
FRONT_HID
6
HIDDEN
10
0.795455
20
2.163170
30
0.0
11
0.704545
21
2.163170
31
0.0
0
LINE
8
FRONT_HID
6
HIDDEN
10
0.704545
20
2.163170
30
0.0
11
0.795455
21
2.163170
31
0.0
0
LINE
8
FRONT_HID
6
HIDDEN
10
1.477273
20
2.163170
30
0.0
11
1.386364
21
2.163170
31
0.0
0
LINE
8
FRONT_HID
6
HIDDEN
10
1.386364
20
2.163170
30
0.0
11
1.477273
21
2.163170
31
0.0
0
LINE
8
FRONT_HID
6
HIDDEN
10
0.700000
20
1.799534
30
0.0
11
0.700000
21
1.913170
31
0.0
0
LINE
8
FRONT_HID
6
HIDDEN
10
0.700000
20
1.913170
30
0.0
11
0.800000
21
1.913170
31
0.0
0
LINE
8
FRONT_HID
6
HIDDEN
10
0.800000
20
1.913170
30
0.0
11
0.700000
21
1.913170
31
0.0
0
LINE
8
FRONT_HID
6
HIDDEN
10
0.700000
20
1.799534
30
0.0
11
0.700000
21
1.913170
31
0.0
0
LINE
8
FRONT_HID
6
HIDDEN
10
0.700000
20
1.913170
30
0.0
11
0.800000
21
1.913170
31
0.0
0
LINE
8
FRONT_HID
6
HIDDEN
10
0.800000
20
1.913170
30
0.0
11
0.700000
21
1.913170
31
0.0
0
LINE
8
FRONT_HID
6
HIDDEN
10
1.381818
20
1.799534
30
0.0
11
1.381818
21
1.913170
31
0.0
0
LINE
8
FRONT_HID
6
HIDDEN
10
1.381818
20
1.913170
30
0.0
11
1.481818
21
1.913170
31
0.0
0
LINE
8
FRONT_HID
6
HIDDEN
10
1.481818
20
1.913170
30
0.0
11
1.381818
21
1.913170
31
0.0
0
LINE
8
FRONT_HID
6
HIDDEN
10
0.800000
20
1.913170
30
0.0
11
0.800000
21
1.799534
31
0.0
0
LINE
8
FRONT_HID
6
HIDDEN
10
0.800000
20
1.913170
30
0.0
11
0.800000
21
1.799534
31
0.0
0
LINE
8
FRONT_HID
6
HIDDEN
10
1.481818
20
1.913170
30
0.0
11
1.481818
21
1.799534
31
0.0
0
LINE
8
LEFT
10
1.800000
20
1.799534
30
0.0
11
3.300000
21
1.799534
31
0.0
0
LINE
8
LEFT
10
1.800000
20
2.163170
30
0.0
11
3.300000
21
2.163170
31
0.0
0
LINE
8
LEFT
10
3.186364
20
2.276807
30
0.0
11
3.277273
21
2.276807
31
0.0
0
LINE
8
LEFT
10
1.822727
20
2.276807
30
0.0
11
1.913636
21
2.276807
31
0.0
0
LINE
8
LEFT
10
2.504545
20
2.276807
30
0.0
11
2.595455
21
2.276807
31
0.0
0
LINE
8
LEFT
10
1.800000
20
2.163170
30
0.0
11
1.800000
21
1.799534
31
0.0
0
LINE
8
LEFT
10
3.300000
20
2.163170
30
0.0
11
3.300000
21
1.799534
31
0.0
0
LINE
8
LEFT
10
3.186364
20
2.276807
30
0.0
11
3.186364
21
2.163170
31
0.0
0
LINE
8
LEFT
10
3.277273
20
2.276807
30
0.0
11
3.277273
21
2.163170
31
0.0
0
LINE
8
LEFT
10
1.822727
20
2.276807
30
0.0
11
1.822727
21
2.163170
31
0.0
0
LINE
8
LEFT
10
1.913636
20
2.276807
30
0.0
11
1.913636
21
2.163170
31
0.0
0
LINE
8
LEFT
10
2.504545
20
2.276807
30
0.0
11
2.504545
21
2.163170
31
0.0
0
LINE
8
LEFT
10
2.595455
20
2.276807
30
0.0
11
2.595455
21
2.163170
31
0.0
0
LINE
8
LEFT_HID
6
HIDDEN
10
2.550000
20
1.799534
30
0.0
11
1.800000
21
1.799534
31
0.0
0
LINE
8
LEFT_HID
6
HIDDEN
10
3.300000
20
1.799534
30
0.0
11
2.550000
21
1.799534
31
0.0
0
LINE
8
LEFT_HID
6
HIDDEN
10
2.550000
20
2.163170
30
0.0
11
1.800000
21
2.163170
31
0.0
0
LINE
8
LEFT_HID
6
HIDDEN
10
3.300000
20
2.163170
30
0.0
11
2.550000
21
2.163170
31
0.0
0
LINE
8
LEFT_HID
6
HIDDEN
10
3.236364
20
1.799534
30
0.0
11
3.186364
21
1.799534
31
0.0
0
LINE
8
LEFT_HID
6
HIDDEN
10
3.186364
20
1.799534
30
0.0
11
3.286364
21
1.799534
31
0.0
0
LINE
8
LEFT_HID
6
HIDDEN
10
3.286364
20
1.799534
30
0.0
11
3.236364
21
1.799534
31
0.0
0
LINE
8
LEFT_HID
6
HIDDEN
10
1.872727
20
1.799534
30
0.0
11
1.822727
21
1.799534
31
0.0
0
LINE
8
LEFT_HID
6
HIDDEN
10
1.822727
20
1.799534
30
0.0
11
1.922727
21
1.799534
31
0.0
0
LINE
8
LEFT_HID
6
HIDDEN
10
1.922727
20
1.799534
30
0.0
11
1.872727
21
1.799534
31
0.0
0
LINE
8
LEFT_HID
6
HIDDEN
10
2.554545
20
1.799534
30
0.0
11
2.504545
21
1.799534
31
0.0
0
LINE
8
LEFT_HID
6
HIDDEN
10
2.504545
20
1.799534
30
0.0
11
2.604545
21
1.799534
31
0.0
0
LINE
8
LEFT_HID
6
HIDDEN
10
2.604545
20
1.799534
30
0.0
11
2.554545
21
1.799534
31
0.0
0
LINE
8
LEFT_HID
6
HIDDEN
10
3.231818
20
2.163170
30
0.0
11
3.186364
21
2.163170
31
0.0
0
LINE
8
LEFT_HID
6
HIDDEN
10
3.186364
20
2.163170
30
0.0
11
3.277273
21
2.163170
31
0.0
0
LINE
8
LEFT_HID
6
HIDDEN
10
3.277273
20
2.163170
30
0.0
11
3.231818
21
2.163170
31
0.0
0
LINE
8
LEFT_HID
6
HIDDEN
10
1.868182
20
2.163170
30
0.0
11
1.822727
21
2.163170
31
0.0
0
LINE
8
LEFT_HID
6
HIDDEN
10
1.822727
20
2.163170
30
0.0
11
1.913636
21
2.163170
31
0.0
0
LINE
8
LEFT_HID
6
HIDDEN
10
1.913636
20
2.163170
30
0.0
11
1.868182
21
2.163170
31
0.0
0
LINE
8
LEFT_HID
6
HIDDEN
10
2.550000
20
2.163170
30
0.0
11
2.504545
21
2.163170
31
0.0
0
LINE
8
LEFT_HID
6
HIDDEN
10
2.504545
20
2.163170
30
0.0
11
2.595455
21
2.163170
31
0.0
0
LINE
8
LEFT_HID
6
HIDDEN
10
2.595455
20
2.163170
30
0.0
11
2.550000
21
2.163170
31
0.0
0
LINE
8
LEFT_HID
6
HIDDEN
10
3.236364
20
1.913170
30
0.0
11
3.186364
21
1.913170
31
0.0
0
LINE
8
LEFT_HID
6
HIDDEN
10
3.186364
20
1.913170
30
0.0
11
3.286364
21
1.913170
31
0.0
0
LINE
8
LEFT_HID
6
HIDDEN
10
3.286364
20
1.913170
30
0.0
11
3.236364
21
1.913170
31
0.0
0
LINE
8
LEFT_HID
6
HIDDEN
10
1.872727
20
1.913170
30
0.0
11
1.822727
21
1.913170
31
0.0
0
LINE
8
LEFT_HID
6
HIDDEN
10
1.822727
20
1.913170
30
0.0
11
1.922727
21
1.913170
31
0.0
0
LINE
8
LEFT_HID
6
HIDDEN
10
1.922727
20
1.913170
30
0.0
11
1.872727
21
1.913170
31
0.0
0
LINE
8
LEFT_HID
6
HIDDEN
10
2.554545
20
1.913170
30
0.0
11
2.504545
21
1.913170
31
0.0
0
LINE
8
LEFT_HID
6
HIDDEN
10
2.504545
20
1.913170
30
0.0
11
2.604545
21
1.913170
31
0.0
0
LINE
8
LEFT_HID
6
HIDDEN
10
2.604545
20
1.913170
30
0.0
11
2.554545
21
1.913170
31
0.0
0
LINE
8
LEFT_HID
6
HIDDEN
10
3.231818
20
2.276807
30
0.0
11
3.186364
21
2.276807
31
0.0
0
LINE
8
LEFT_HID
6
HIDDEN
10
3.277273
20
2.276807
30
0.0
11
3.231818
21
2.276807
31
0.0
0
LINE
8
LEFT_HID
6
HIDDEN
10
1.868182
20
2.276807
30
0.0
11
1.822727
21
2.276807
31
0.0
0
LINE
8
LEFT_HID
6
HIDDEN
10
1.913636
20
2.276807
30
0.0
11
1.868182
21
2.276807
31
0.0
0
LINE
8
LEFT_HID
6
HIDDEN
10
2.550000
20
2.276807
30
0.0
11
2.504545
21
2.276807
31
0.0
0
LINE
8
LEFT_HID
6
HIDDEN
10
2.595455
20
2.276807
30
0.0
11
2.550000
21
2.276807
31
0.0
0
LINE
8
LEFT_HID
6
HIDDEN
10
3.186364
20
1.913170
30
0.0
11
3.186364
21
1.799534
31
0.0
0
LINE
8
LEFT_HID
6
HIDDEN
10
3.286364
20
1.913170
30
0.0
11
3.286364
21
1.799534
31
0.0
0
LINE
8
LEFT_HID
6
HIDDEN
10
1.822727
20
1.913170
30
0.0
11
1.822727
21
1.799534
31
0.0
0
LINE
8
LEFT_HID
6
HIDDEN
10
1.922727
20
1.913170
30
0.0
11
1.922727
21
1.799534
31
0.0
0
LINE
8
LEFT_HID
6
HIDDEN
10
2.504545
20
1.913170
30
0.0
11
2.504545
21
1.799534
31
0.0
0
LINE
8
LEFT_HID
6
HIDDEN
10
2.604545
20
1.913170
30
0.0
11
2.604545
21
1.799534
31
0.0
0
LINE
8
TOP
10
1.499068
20
0.749767
30
0.0
11
1.495341
21
0.824443
31
0.0
0
LINE
8
TOP
10
1.495341
20
0.824443
30
0.0
11
1.484197
21
0.898376
31
0.0
0
LINE
8
TOP
10
1.484197
20
0.898376
30
0.0
11
1.465747
21
0.970833
31
0.0
0
LINE
8
TOP
10
1.465747
20
0.970833
30
0.0
11
1.440175
21
1.041093
31
0.0
0
LINE
8
TOP
10
1.440175
20
1.041093
30
0.0
11
1.407734
21
1.108457
31
0.0
0
LINE
8
TOP
10
1.407734
20
1.108457
30
0.0
11
1.368747
21
1.172257
31
0.0
0
LINE
8
TOP
10
1.368747
20
1.172257
30
0.0
11
1.323601
21
1.231858
31
0.0
0
LINE
8
TOP
10
1.323601
20
1.231858
30
0.0
11
1.272745
21
1.286667
31
0.0
0
LINE
8
TOP
10
1.272745
20
1.286667
30
0.0
11
1.216685
21
1.336140
31
0.0
0
LINE
8
TOP
10
1.216685
20
1.336140
30
0.0
11
1.155977
21
1.379786
31
0.0
0
LINE
8
TOP
10
1.155977
20
1.379786
30
0.0
11
1.091226
21
1.417171
31
0.0
0
LINE
8
TOP
10
1.091226
20
1.417171
30
0.0
11
1.023073
21
1.447922
31
0.0
0
LINE
8
TOP
10
1.023073
20
1.447922
30
0.0
11
0.952198
21
1.471735
31
0.0
0
LINE
8
TOP
10
0.952198
20
1.471735
30
0.0
11
0.879304
21
1.488373
31
0.0
0
LINE
8
TOP
10
0.879304
20
1.488373
30
0.0
11
0.805115
21
1.497670
31
0.0
0
LINE
8
TOP
10
0.805115
20
1.497670
30
0.0
11
0.730370
21
1.499534
31
0.0
0
LINE
8
TOP
10
0.730370
20
1.499534
30
0.0
11
0.655810
21
1.493946
31
0.0
0
LINE
8
TOP
10
0.655810
20
1.493946
30
0.0
11
0.582177
21
1.480963
31
0.0
0
LINE
8
TOP
10
0.582177
20
1.480963
30
0.0
11
0.510203
21
1.460712
31
0.0
0
LINE
8
TOP
10
0.510203
20
1.460712
30
0.0
11
0.440602
21
1.433396
31
0.0
0
LINE
8
TOP
10
0.440602
20
1.433396
30
0.0
11
0.374068
21
1.399286
31
0.0
0
LINE
8
TOP
10
0.374068
20
1.399286
30
0.0
11
0.311260
21
1.358720
31
0.0
0
LINE
8
TOP
10
0.311260
20
1.358720
30
0.0
11
0.252803
21
1.312103
31
0.0
0
LINE
8
TOP
10
0.252803
20
1.312103
30
0.0
11
0.199279
21
1.259896
31
0.0
0
LINE
8
TOP
10
0.199279
20
1.259896
30
0.0
11
0.151218
21
1.202620
31
0.0
0
LINE
8
TOP
10
0.151218
20
1.202620
30
0.0
11
0.109100
21
1.140843
31
0.0
0
LINE
8
TOP
10
0.109100
20
1.140843
30
0.0
11
0.073341
21
1.075180
31
0.0
0
LINE
8
TOP
10
0.073341
20
1.075180
30
0.0
11
0.044298
21
1.006282
31
0.0
0
LINE
8
TOP
10
0.044298
20
1.006282
30
0.0
11
0.022260
21
0.934835
31
0.0
0
LINE
8
TOP
10
0.022260
20
0.934835
30
0.0
11
0.007445
21
0.861549
31
0.0
0
LINE
8
TOP
10
0.007445
20
0.861549
30
0.0
11
0.000000
21
0.787151
31
0.0
0
LINE
8
TOP
10
0.000000
20
0.787151
30
0.0
11
0.000000
21
0.712382
31
0.0
0
LINE
8
TOP
10
0.000000
20
0.712382
30
0.0
11
0.007445
21
0.637985
31
0.0
0
LINE
8
TOP
10
0.007445
20
0.637985
30
0.0
11
0.022260
21
0.564699
31
0.0
0
LINE
8
TOP
10
0.022260
20
0.564699
30
0.0
11
0.044298
21
0.493252
31
0.0
0
LINE
8
TOP
10
0.044298
20
0.493252
30
0.0
11
0.073341
21
0.424354
31
0.0
0
LINE
8
TOP
10
0.073341
20
0.424354
30
0.0
11
0.109100
21
0.358690
31
0.0
0
LINE
8
TOP
10
0.109100
20
0.358690
30
0.0
11
0.151218
21
0.296914
31
0.0
0
LINE
8
TOP
10
0.151218
20
0.296914
30
0.0
11
0.199279
21
0.239637
31
0.0
0
LINE
8
TOP
10
0.199279
20
0.239637
30
0.0
11
0.252803
21
0.187431
31
0.0
0
LINE
8
TOP
10
0.252803
20
0.187431
30
0.0
11
0.311260
21
0.140813
31
0.0
0
LINE
8
TOP
10
0.311260
20
0.140813
30
0.0
11
0.374068
21
0.100248
31
0.0
0
LINE
8
TOP
10
0.374068
20
0.100248
30
0.0
11
0.440602
21
0.066137
31
0.0
0
LINE
8
TOP
10
0.440602
20
0.066137
30
0.0
11
0.510203
21
0.038821
31
0.0
0
LINE
8
TOP
10
0.510203
20
0.038821
30
0.0
11
0.582177
21
0.018571
31
0.0
0
LINE
8
TOP
10
0.582177
20
0.018571
30
0.0
11
0.655810
21
0.005587
31
0.0
0
LINE
8
TOP
10
0.655810
20
0.005587
30
0.0
11
0.730370
21
0.000000
31
0.0
0
LINE
8
TOP
10
0.730370
20
0.000000
30
0.0
11
0.805115
21
0.001864
31
0.0
0
LINE
8
TOP
10
0.805115
20
0.001864
30
0.0
11
0.879304
21
0.011161
31
0.0
0
LINE
8
TOP
10
0.879304
20
0.011161
30
0.0
11
0.952198
21
0.027799
31
0.0
0
LINE
8
TOP
10
0.952198
20
0.027799
30
0.0
11
1.023073
21
0.051612
31
0.0
0
LINE
8
TOP
10
1.023073
20
0.051612
30
0.0
11
1.091226
21
0.082363
31
0.0
0
LINE
8
TOP
10
1.091226
20
0.082363
30
0.0
11
1.155977
21
0.119747
31
0.0
0
LINE
8
TOP
10
1.155977
20
0.119747
30
0.0
11
1.216685
21
0.163393
31
0.0
0
LINE
8
TOP
10
1.216685
20
0.163393
30
0.0
11
1.272745
21
0.212867
31
0.0
0
LINE
8
TOP
10
1.272745
20
0.212867
30
0.0
11
1.323601
21
0.267676
31
0.0
0
LINE
8
TOP
10
1.323601
20
0.267676
30
0.0
11
1.368747
21
0.327277
31
0.0
0
LINE
8
TOP
10
1.368747
20
0.327277
30
0.0
11
1.407734
21
0.391076
31
0.0
0
LINE
8
TOP
10
1.407734
20
0.391076
30
0.0
11
1.440175
21
0.458441
31
0.0
0
LINE
8
TOP
10
1.440175
20
0.458441
30
0.0
11
1.465747
21
0.528701
31
0.0
0
LINE
8
TOP
10
1.465747
20
0.528701
30
0.0
11
1.484197
21
0.601157
31
0.0
0
LINE
8
TOP
10
1.484197
20
0.601157
30
0.0
11
1.495341
21
0.675091
31
0.0
0
LINE
8
TOP
10
1.495341
20
0.675091
30
0.0
11
1.499068
21
0.749767
31
0.0
0
LINE
8
TOP
10
0.794522
20
0.067949
30
0.0
11
0.794296
21
0.072475
31
0.0
0
LINE
8
TOP
10
0.794296
20
0.072475
30
0.0
11
0.793621
21
0.076955
31
0.0
0
LINE
8
TOP
10
0.793621
20
0.076955
30
0.0
11
0.792503
21
0.081347
31
0.0
0
LINE
8
TOP
10
0.792503
20
0.081347
30
0.0
11
0.790953
21
0.085605
31
0.0
0
LINE
8
TOP
10
0.790953
20
0.085605
30
0.0
11
0.788987
21
0.089688
31
0.0
0
LINE
8
TOP
10
0.788987
20
0.089688
30
0.0
11
0.786624
21
0.093554
31
0.0
0
LINE
8
TOP
10
0.786624
20
0.093554
30
0.0
11
0.783888
21
0.097166
31
0.0
0
LINE
8
TOP
10
0.783888
20
0.097166
30
0.0
11
0.780806
21
0.100488
31
0.0
0
LINE
8
TOP
10
0.780806
20
0.100488
30
0.0
11
0.777408
21
0.103486
31
0.0
0
LINE
8
TOP
10
0.777408
20
0.103486
30
0.0
11
0.773729
21
0.106132
31
0.0
0
LINE
8
TOP
10
0.773729
20
0.106132
30
0.0
11
0.769805
21
0.108397
31
0.0
0
LINE
8
TOP
10
0.769805
20
0.108397
30
0.0
11
0.765674
21
0.110261
31
0.0
0
LINE
8
TOP
10
0.765674
20
0.110261
30
0.0
11
0.761379
21
0.111704
31
0.0
0
LINE
8
TOP
10
0.761379
20
0.111704
30
0.0
11
0.756961
21
0.112713
31
0.0
0
LINE
8
TOP
10
0.756961
20
0.112713
30
0.0
11
0.752465
21
0.113276
31
0.0
0
LINE
8
TOP
10
0.752465
20
0.113276
30
0.0
11
0.747934
21
0.113389
31
0.0
0
LINE
8
TOP
10
0.747934
20
0.113389
30
0.0
11
0.743416
21
0.113050
31
0.0
0
LINE
8
TOP
10
0.743416
20
0.113050
30
0.0
11
0.738953
21
0.112264
31
0.0
0
LINE
8
TOP
10
0.738953
20
0.112264
30
0.0
11
0.734591
21
0.111036
31
0.0
0
LINE
8
TOP
10
0.734591
20
0.111036
30
0.0
11
0.730373
21
0.109381
31
0.0
0
LINE
8
TOP
10
0.730373
20
0.109381
30
0.0
11
0.726340
21
0.107313
31
0.0
0
LINE
8
TOP
10
0.726340
20
0.107313
30
0.0
11
0.722534
21
0.104855
31
0.0
0
LINE
8
TOP
10
0.722534
20
0.104855
30
0.0
11
0.718991
21
0.102030
31
0.0
0
LINE
8
TOP
10
0.718991
20
0.102030
30
0.0
11
0.715747
21
0.098866
31
0.0
0
LINE
8
TOP
10
0.715747
20
0.098866
30
0.0
11
0.712834
21
0.095394
31
0.0
0
LINE
8
TOP
10
0.712834
20
0.095394
30
0.0
11
0.710282
21
0.091650
31
0.0
0
LINE
8
TOP
10
0.710282
20
0.091650
30
0.0
11
0.708115
21
0.087671
31
0.0
0
LINE
8
TOP
10
0.708115
20
0.087671
30
0.0
11
0.706354
21
0.083495
31
0.0
0
LINE
8
TOP
10
0.706354
20
0.083495
30
0.0
11
0.705019
21
0.079165
31
0.0
0
LINE
8
TOP
10
0.705019
20
0.079165
30
0.0
11
0.704121
21
0.074723
31
0.0
0
LINE
8
TOP
10
0.704121
20
0.074723
30
0.0
11
0.703670
21
0.070214
31
0.0
0
LINE
8
TOP
10
0.703670
20
0.070214
30
0.0
11
0.703670
21
0.065683
31
0.0
0
LINE
8
TOP
10
0.703670
20
0.065683
30
0.0
11
0.704121
21
0.061174
31
0.0
0
LINE
8
TOP
10
0.704121
20
0.061174
30
0.0
11
0.705019
21
0.056732
31
0.0
0
LINE
8
TOP
10
0.705019
20
0.056732
30
0.0
11
0.706354
21
0.052402
31
0.0
0
LINE
8
TOP
10
0.706354
20
0.052402
30
0.0
11
0.708115
21
0.048227
31
0.0
0
LINE
8
TOP
10
0.708115
20
0.048227
30
0.0
11
0.710282
21
0.044247
31
0.0
0
LINE
8
TOP
10
0.710282
20
0.044247
30
0.0
11
0.712834
21
0.040503
31
0.0
0
LINE
8
TOP
10
0.712834
20
0.040503
30
0.0
11
0.715747
21
0.037032
31
0.0
0
LINE
8
TOP
10
0.715747
20
0.037032
30
0.0
11
0.718991
21
0.033868
31
0.0
0
LINE
8
TOP
10
0.718991
20
0.033868
30
0.0
11
0.722534
21
0.031042
31
0.0
0
LINE
8
TOP
10
0.722534
20
0.031042
30
0.0
11
0.726340
21
0.028584
31
0.0
0
LINE
8
TOP
10
0.726340
20
0.028584
30
0.0
11
0.730373
21
0.026517
31
0.0
0
LINE
8
TOP
10
0.730373
20
0.026517
30
0.0
11
0.734591
21
0.024861
31
0.0
0
LINE
8
TOP
10
0.734591
20
0.024861
30
0.0
11
0.738953
21
0.023634
31
0.0
0
LINE
8
TOP
10
0.738953
20
0.023634
30
0.0
11
0.743416
21
0.022847
31
0.0
0
LINE
8
TOP
10
0.743416
20
0.022847
30
0.0
11
0.747934
21
0.022508
31
0.0
0
LINE
8
TOP
10
0.747934
20
0.022508
30
0.0
11
0.752465
21
0.022621
31
0.0
0
LINE
8
TOP
10
0.752465
20
0.022621
30
0.0
11
0.756961
21
0.023185
31
0.0
0
LINE
8
TOP
10
0.756961
20
0.023185
30
0.0
11
0.761379
21
0.024193
31
0.0
0
LINE
8
TOP
10
0.761379
20
0.024193
30
0.0
11
0.765674
21
0.025636
31
0.0
0
LINE
8
TOP
10
0.765674
20
0.025636
30
0.0
11
0.769805
21
0.027500
31
0.0
0
LINE
8
TOP
10
0.769805
20
0.027500
30
0.0
11
0.773729
21
0.029766
31
0.0
0
LINE
8
TOP
10
0.773729
20
0.029766
30
0.0
11
0.777408
21
0.032411
31
0.0
0
LINE
8
TOP
10
0.777408
20
0.032411
30
0.0
11
0.780806
21
0.035409
31
0.0
0
LINE
8
TOP
10
0.780806
20
0.035409
30
0.0
11
0.783888
21
0.038731
31
0.0
0
LINE
8
TOP
10
0.783888
20
0.038731
30
0.0
11
0.786624
21
0.042343
31
0.0
0
LINE
8
TOP
10
0.786624
20
0.042343
30
0.0
11
0.788987
21
0.046210
31
0.0
0
LINE
8
TOP
10
0.788987
20
0.046210
30
0.0
11
0.790953
21
0.050293
31
0.0
0
LINE
8
TOP
10
0.790953
20
0.050293
30
0.0
11
0.792503
21
0.054551
31
0.0
0
LINE
8
TOP
10
0.792503
20
0.054551
30
0.0
11
0.793621
21
0.058942
31
0.0
0
LINE
8
TOP
10
0.793621
20
0.058942
30
0.0
11
0.794296
21
0.063423
31
0.0
0
LINE
8
TOP
10
0.794296
20
0.063423
30
0.0
11
0.794522
21
0.067949
31
0.0
0
LINE
8
TOP
10
0.794522
20
1.431585
30
0.0
11
0.794296
21
1.436111
31
0.0
0
LINE
8
TOP
10
0.794296
20
1.436111
30
0.0
11
0.793621
21
1.440592
31
0.0
0
LINE
8
TOP
10
0.793621
20
1.440592
30
0.0
11
0.792503
21
1.444983
31
0.0
0
LINE
8
TOP
10
0.792503
20
1.444983
30
0.0
11
0.790953
21
1.449241
31
0.0
0
LINE
8
TOP
10
0.790953
20
1.449241
30
0.0
11
0.788987
21
1.453324
31
0.0
0
LINE
8
TOP
10
0.788987
20
1.453324
30
0.0
11
0.786624
21
1.457191
31
0.0
0
LINE
8
TOP
10
0.786624
20
1.457191
30
0.0
11
0.783888
21
1.460803
31
0.0
0
LINE
8
TOP
10
0.783888
20
1.460803
30
0.0
11
0.780806
21
1.464124
31
0.0
0
LINE
8
TOP
10
0.780806
20
1.464124
30
0.0
11
0.777408
21
1.467123
31
0.0
0
LINE
8
TOP
10
0.777408
20
1.467123
30
0.0
11
0.773729
21
1.469768
31
0.0
0
LINE
8
TOP
10
0.773729
20
1.469768
30
0.0
11
0.769805
21
1.472034
31
0.0
0
LINE
8
TOP
10
0.769805
20
1.472034
30
0.0
11
0.765674
21
1.473898
31
0.0
0
LINE
8
TOP
10
0.765674
20
1.473898
30
0.0
11
0.761379
21
1.475341
31
0.0
0
LINE
8
TOP
10
0.761379
20
1.475341
30
0.0
11
0.756961
21
1.476349
31
0.0
0
LINE
8
TOP
10
0.756961
20
1.476349
30
0.0
11
0.752465
21
1.476913
31
0.0
0
LINE
8
TOP
10
0.752465
20
1.476913
30
0.0
11
0.747934
21
1.477025
31
0.0
0
LINE
8
TOP
10
0.747934
20
1.477025
30
0.0
11
0.743416
21
1.476687
31
0.0
0
LINE
8
TOP
10
0.743416
20
1.476687
30
0.0
11
0.738953
21
1.475900
31
0.0
0
LINE
8
TOP
10
0.738953
20
1.475900
30
0.0
11
0.734591
21
1.474673
31
0.0
0
LINE
8
TOP
10
0.734591
20
1.474673
30
0.0
11
0.730373
21
1.473017
31
0.0
0
LINE
8
TOP
10
0.730373
20
1.473017
30
0.0
11
0.726340
21
1.470950
31
0.0
0
LINE
8
TOP
10
0.726340
20
1.470950
30
0.0
11
0.722534
21
1.468491
31
0.0
0
LINE
8
TOP
10
0.722534
20
1.468491
30
0.0
11
0.718991
21
1.465666
31
0.0
0
LINE
8
TOP
10
0.718991
20
1.465666
30
0.0
11
0.715747
21
1.462502
31
0.0
0
LINE
8
TOP
10
0.715747
20
1.462502
30
0.0
11
0.712834
21
1.459031
31
0.0
0
LINE
8
TOP
10
0.712834
20
1.459031
30
0.0
11
0.710282
21
1.455287
31
0.0
0
LINE
8
TOP
10
0.710282
20
1.455287
30
0.0
11
0.708115
21
1.451307
31
0.0
0
LINE
8
TOP
10
0.708115
20
1.451307
30
0.0
11
0.706354
21
1.447131
31
0.0
0
LINE
8
TOP
10
0.706354
20
1.447131
30
0.0
11
0.705019
21
1.442801
31
0.0
0
LINE
8
TOP
10
0.705019
20
1.442801
30
0.0
11
0.704121
21
1.438360
31
0.0
0
LINE
8
TOP
10
0.704121
20
1.438360
30
0.0
11
0.703670
21
1.433851
31
0.0
0
LINE
8
TOP
10
0.703670
20
1.433851
30
0.0
11
0.703670
21
1.429319
31
0.0
0
LINE
8
TOP
10
0.703670
20
1.429319
30
0.0
11
0.704121
21
1.424810
31
0.0
0
LINE
8
TOP
10
0.704121
20
1.424810
30
0.0
11
0.705019
21
1.420369
31
0.0
0
LINE
8
TOP
10
0.705019
20
1.420369
30
0.0
11
0.706354
21
1.416039
31
0.0
0
LINE
8
TOP
10
0.706354
20
1.416039
30
0.0
11
0.708115
21
1.411863
31
0.0
0
LINE
8
TOP
10
0.708115
20
1.411863
30
0.0
11
0.710282
21
1.407883
31
0.0
0
LINE
8
TOP
10
0.710282
20
1.407883
30
0.0
11
0.712834
21
1.404139
31
0.0
0
LINE
8
TOP
10
0.712834
20
1.404139
30
0.0
11
0.715747
21
1.400668
31
0.0
0
LINE
8
TOP
10
0.715747
20
1.400668
30
0.0
11
0.718991
21
1.397504
31
0.0
0
LINE
8
TOP
10
0.718991
20
1.397504
30
0.0
11
0.722534
21
1.394679
31
0.0
0
LINE
8
TOP
10
0.722534
20
1.394679
30
0.0
11
0.726340
21
1.392220
31
0.0
0
LINE
8
TOP
10
0.726340
20
1.392220
30
0.0
11
0.730373
21
1.390153
31
0.0
0
LINE
8
TOP
10
0.730373
20
1.390153
30
0.0
11
0.734591
21
1.388497
31
0.0
0
LINE
8
TOP
10
0.734591
20
1.388497
30
0.0
11
0.738953
21
1.387270
31
0.0
0
LINE
8
TOP
10
0.738953
20
1.387270
30
0.0
11
0.743416
21
1.386483
31
0.0
0
LINE
8
TOP
10
0.743416
20
1.386483
30
0.0
11
0.747934
21
1.386145
31
0.0
0
LINE
8
TOP
10
0.747934
20
1.386145
30
0.0
11
0.752465
21
1.386258
31
0.0
0
LINE
8
TOP
10
0.752465
20
1.386258
30
0.0
11
0.756961
21
1.386821
31
0.0
0
LINE
8
TOP
10
0.756961
20
1.386821
30
0.0
11
0.761379
21
1.387829
31
0.0
0
LINE
8
TOP
10
0.761379
20
1.387829
30
0.0
11
0.765674
21
1.389273
31
0.0
0
LINE
8
TOP
10
0.765674
20
1.389273
30
0.0
11
0.769805
21
1.391136
31
0.0
0
LINE
8
TOP
10
0.769805
20
1.391136
30
0.0
11
0.773729
21
1.393402
31
0.0
0
LINE
8
TOP
10
0.773729
20
1.393402
30
0.0
11
0.777408
21
1.396047
31
0.0
0
LINE
8
TOP
10
0.777408
20
1.396047
30
0.0
11
0.780806
21
1.399046
31
0.0
0
LINE
8
TOP
10
0.780806
20
1.399046
30
0.0
11
0.783888
21
1.402367
31
0.0
0
LINE
8
TOP
10
0.783888
20
1.402367
30
0.0
11
0.786624
21
1.405980
31
0.0
0
LINE
8
TOP
10
0.786624
20
1.405980
30
0.0
11
0.788987
21
1.409846
31
0.0
0
LINE
8
TOP
10
0.788987
20
1.409846
30
0.0
11
0.790953
21
1.413929
31
0.0
0
LINE
8
TOP
10
0.790953
20
1.413929
30
0.0
11
0.792503
21
1.418187
31
0.0
0
LINE
8
TOP
10
0.792503
20
1.418187
30
0.0
11
0.793621
21
1.422578
31
0.0
0
LINE
8
TOP
10
0.793621
20
1.422578
30
0.0
11
0.794296
21
1.427059
31
0.0
0
LINE
8
TOP
10
0.794296
20
1.427059
30
0.0
11
0.794522
21
1.431585
31
0.0
0
LINE
8
TOP
10
1.476340
20
0.749767
30
0.0
11
1.476115
21
0.754293
31
0.0
0
LINE
8
TOP
10
1.476115
20
0.754293
30
0.0
11
1.475439
21
0.758774
31
0.0
0
LINE
8
TOP
10
1.475439
20
0.758774
30
0.0
11
1.474321
21
0.763165
31
0.0
0
LINE
8
TOP
10
1.474321
20
0.763165
30
0.0
11
1.472771
21
0.767423
31
0.0
0
LINE
8
TOP
10
1.472771
20
0.767423
30
0.0
11
1.470805
21
0.771506
31
0.0
0
LINE
8
TOP
10
1.470805
20
0.771506
30
0.0
11
1.468442
21
0.775372
31
0.0
0
LINE
8
TOP
10
1.468442
20
0.775372
30
0.0
11
1.465706
21
0.778985
31
0.0
0
LINE
8
TOP
10
1.465706
20
0.778985
30
0.0
11
1.462624
21
0.782306
31
0.0
0
LINE
8
TOP
10
1.462624
20
0.782306
30
0.0
11
1.459226
21
0.785305
31
0.0
0
LINE
8
TOP
10
1.459226
20
0.785305
30
0.0
11
1.455547
21
0.787950
31
0.0
0
LINE
8
TOP
10
1.455547
20
0.787950
30
0.0
11
1.451623
21
0.790216
31
0.0
0
LINE
8
TOP
10
1.451623
20
0.790216
30
0.0
11
1.447492
21
0.792079
31
0.0
0
LINE
8
TOP
10
1.447492
20
0.792079
30
0.0
11
1.443197
21
0.793523
31
0.0
0
LINE
8
TOP
10
1.443197
20
0.793523
30
0.0
11
1.438779
21
0.794531
31
0.0
0
LINE
8
TOP
10
1.438779
20
0.794531
30
0.0
11
1.434283
21
0.795094
31
0.0
0
LINE
8
TOP
10
1.434283
20
0.795094
30
0.0
11
1.429753
21
0.795207
31
0.0
0
LINE
8
TOP
10
1.429753
20
0.795207
30
0.0
11
1.425234
21
0.794869
31
0.0
0
LINE
8
TOP
10
1.425234
20
0.794869
30
0.0
11
1.420771
21
0.794082
31
0.0
0
LINE
8
TOP
10
1.420771
20
0.794082
30
0.0
11
1.416409
21
0.792854
31
0.0
0
LINE
8
TOP
10
1.416409
20
0.792854
30
0.0
11
1.412191
21
0.791199
31
0.0
0
LINE
8
TOP
10
1.412191
20
0.791199
30
0.0
11
1.408159
21
0.789132
31
0.0
0
LINE
8
TOP
10
1.408159
20
0.789132
30
0.0
11
1.404352
21
0.786673
31
0.0
0
LINE
8
TOP
10
1.404352
20
0.786673
30
0.0
11
1.400809
21
0.783848
31
0.0
0
LINE
8
TOP
10
1.400809
20
0.783848
30
0.0
11
1.397565
21
0.780684
31
0.0
0
LINE
8
TOP
10
1.397565
20
0.780684
30
0.0
11
1.394653
21
0.777213
31
0.0
0
LINE
8
TOP
10
1.394653
20
0.777213
30
0.0
11
1.392100
21
0.773468
31
0.0
0
LINE
8
TOP
10
1.392100
20
0.773468
30
0.0
11
1.389933
21
0.769489
31
0.0
0
LINE
8
TOP
10
1.389933
20
0.769489
30
0.0
11
1.388173
21
0.765313
31
0.0
0
LINE
8
TOP
10
1.388173
20
0.765313
30
0.0
11
1.386837
21
0.760983
31
0.0
0
LINE
8
TOP
10
1.386837
20
0.760983
30
0.0
11
1.385939
21
0.756542
31
0.0
0
LINE
8
TOP
10
1.385939
20
0.756542
30
0.0
11
1.385488
21
0.752033
31
0.0
0
LINE
8
TOP
10
1.385488
20
0.752033
30
0.0
11
1.385488
21
0.747501
31
0.0
0
LINE
8
TOP
10
1.385488
20
0.747501
30
0.0
11
1.385939
21
0.742992
31
0.0
0
LINE
8
TOP
10
1.385939
20
0.742992
30
0.0
11
1.386837
21
0.738551
31
0.0
0
LINE
8
TOP
10
1.386837
20
0.738551
30
0.0
11
1.388173
21
0.734221
31
0.0
0
LINE
8
TOP
10
1.388173
20
0.734221
30
0.0
11
1.389933
21
0.730045
31
0.0
0
LINE
8
TOP
10
1.389933
20
0.730045
30
0.0
11
1.392100
21
0.726065
31
0.0
0
LINE
8
TOP
10
1.392100
20
0.726065
30
0.0
11
1.394653
21
0.722321
31
0.0
0
LINE
8
TOP
10
1.394653
20
0.722321
30
0.0
11
1.397565
21
0.718850
31
0.0
0
LINE
8
TOP
10
1.397565
20
0.718850
30
0.0
11
1.400809
21
0.715686
31
0.0
0
LINE
8
TOP
10
1.400809
20
0.715686
30
0.0
11
1.404352
21
0.712861
31
0.0
0
LINE
8
TOP
10
1.404352
20
0.712861
30
0.0
11
1.408159
21
0.710402
31
0.0
0
LINE
8
TOP
10
1.408159
20
0.710402
30
0.0
11
1.412191
21
0.708335
31
0.0
0
LINE
8
TOP
10
1.412191
20
0.708335
30
0.0
11
1.416409
21
0.706679
31
0.0
0
LINE
8
TOP
10
1.416409
20
0.706679
30
0.0
11
1.420771
21
0.705452
31
0.0
0
LINE
8
TOP
10
1.420771
20
0.705452
30
0.0
11
1.425234
21
0.704665
31
0.0
0
LINE
8
TOP
10
1.425234
20
0.704665
30
0.0
11
1.429753
21
0.704326
31
0.0
0
LINE
8
TOP
10
1.429753
20
0.704326
30
0.0
11
1.434283
21
0.704439
31
0.0
0
LINE
8
TOP
10
1.434283
20
0.704439
30
0.0
11
1.438779
21
0.705003
31
0.0
0
LINE
8
TOP
10
1.438779
20
0.705003
30
0.0
11
1.443197
21
0.706011
31
0.0
0
LINE
8
TOP
10
1.443197
20
0.706011
30
0.0
11
1.447492
21
0.707454
31
0.0
0
LINE
8
TOP
10
1.447492
20
0.707454
30
0.0
11
1.451623
21
0.709318
31
0.0
0
LINE
8
TOP
10
1.451623
20
0.709318
30
0.0
11
1.455547
21
0.711584
31
0.0
0
LINE
8
TOP
10
1.455547
20
0.711584
30
0.0
11
1.459226
21
0.714229
31
0.0
0
LINE
8
TOP
10
1.459226
20
0.714229
30
0.0
11
1.462624
21
0.717227
31
0.0
0
LINE
8
TOP
10
1.462624
20
0.717227
30
0.0
11
1.465706
21
0.720549
31
0.0
0
LINE
8
TOP
10
1.465706
20
0.720549
30
0.0
11
1.468442
21
0.724161
31
0.0
0
LINE
8
TOP
10
1.468442
20
0.724161
30
0.0
11
1.470805
21
0.728028
31
0.0
0
LINE
8
TOP
10
1.470805
20
0.728028
30
0.0
11
1.472771
21
0.732111
31
0.0
0
LINE
8
TOP
10
1.472771
20
0.732111
30
0.0
11
1.474321
21
0.736369
31
0.0
0
LINE
8
TOP
10
1.474321
20
0.736369
30
0.0
11
1.475439
21
0.740760
31
0.0
0
LINE
8
TOP
10
1.475439
20
0.740760
30
0.0
11
1.476115
21
0.745241
31
0.0
0
LINE
8
TOP
10
1.476115
20
0.745241
30
0.0
11
1.476340
21
0.749767
31
0.0
0
LINE
8
TOP_HID
6
HIDDEN
10
0.699068
20
0.063403
30
0.0
11
0.699316
21
0.068382
31
0.0
0
LINE
8
TOP_HID
6
HIDDEN
10
0.699316
20
0.068382
30
0.0
11
0.700059
21
0.073311
31
0.0
0
LINE
8
TOP_HID
6
HIDDEN
10
0.700059
20
0.073311
30
0.0
11
0.701289
21
0.078141
31
0.0
0
LINE
8
TOP_HID
6
HIDDEN
10
0.701289
20
0.078141
30
0.0
11
0.702994
21
0.082825
31
0.0
0
LINE
8
TOP_HID
6
HIDDEN
10
0.702994
20
0.082825
30
0.0
11
0.705157
21
0.087316
31
0.0
0
LINE
8
TOP_HID
6
HIDDEN
10
0.705157
20
0.087316
30
0.0
11
0.707756
21
0.091569
31
0.0
0
LINE
8
TOP_HID
6
HIDDEN
10
0.707756
20
0.091569
30
0.0
11
0.710765
21
0.095543
31
0.0
0
LINE
8
TOP_HID
6
HIDDEN
10
0.710765
20
0.095543
30
0.0
11
0.714156
21
0.099197
31
0.0
0
LINE
8
TOP_HID
6
HIDDEN
10
0.714156
20
0.099197
30
0.0
11
0.717893
21
0.102495
31
0.0
0
LINE
8
TOP_HID
6
HIDDEN
10
0.717893
20
0.102495
30
0.0
11
0.721940
21
0.105405
31
0.0
0
LINE
8
TOP_HID
6
HIDDEN
10
0.721940
20
0.105405
30
0.0
11
0.726257
21
0.107897
31
0.0
0
LINE
8
TOP_HID
6
HIDDEN
10
0.726257
20
0.107897
30
0.0
11
0.730801
21
0.109947
31
0.0
0
LINE
8
TOP_HID
6
HIDDEN
10
0.730801
20
0.109947
30
0.0
11
0.735526
21
0.111534
31
0.0
0
LINE
8
TOP_HID
6
HIDDEN
10
0.735526
20
0.111534
30
0.0
11
0.740385
21
0.112644
31
0.0
0
LINE
8
TOP_HID
6
HIDDEN
10
0.740385
20
0.112644
30
0.0
11
0.745331
21
0.113263
31
0.0
0
LINE
8
TOP_HID
6
HIDDEN
10
0.745331
20
0.113263
30
0.0
11
0.750314
21
0.113388
31
0.0
0
LINE
8
TOP_HID
6
HIDDEN
10
0.750314
20
0.113388
30
0.0
11
0.755285
21
0.113015
31
0.0
0
LINE
8
TOP_HID
6
HIDDEN
10
0.755285
20
0.113015
30
0.0
11
0.760194
21
0.112150
31
0.0
0
LINE
8
TOP_HID
6
HIDDEN
10
0.760194
20
0.112150
30
0.0
11
0.764992
21
0.110800
31
0.0
0
LINE
8
TOP_HID
6
HIDDEN
10
0.764992
20
0.110800
30
0.0
11
0.769632
21
0.108979
31
0.0
0
LINE
8
TOP_HID
6
HIDDEN
10
0.769632
20
0.108979
30
0.0
11
0.774068
21
0.106705
31
0.0
0
LINE
8
TOP_HID
6
HIDDEN
10
0.774068
20
0.106705
30
0.0
11
0.778255
21
0.104000
31
0.0
0
LINE
8
TOP_HID
6
HIDDEN
10
0.778255
20
0.104000
30
0.0
11
0.782152
21
0.100892
31
0.0
0
LINE
8
TOP_HID
6
HIDDEN
10
0.782152
20
0.100892
30
0.0
11
0.785720
21
0.097412
31
0.0
0
LINE
8
TOP_HID
6
HIDDEN
10
0.785720
20
0.097412
30
0.0
11
0.788924
21
0.093593
31
0.0
0
LINE
8
TOP_HID
6
HIDDEN
10
0.788924
20
0.093593
30
0.0
11
0.791732
21
0.089475
31
0.0
0
LINE
8
TOP_HID
6
HIDDEN
10
0.791732
20
0.089475
30
0.0
11
0.794116
21
0.085097
31
0.0
0
LINE
8
TOP_HID
6
HIDDEN
10
0.794116
20
0.085097
30
0.0
11
0.796052
21
0.080504
31
0.0
0
LINE
8
TOP_HID
6
HIDDEN
10
0.796052
20
0.080504
30
0.0
11
0.797522
21
0.075741
31
0.0
0
LINE
8
TOP_HID
6
HIDDEN
10
0.797522
20
0.075741
30
0.0
11
0.798509
21
0.070855
31
0.0
0
LINE
8
TOP_HID
6
HIDDEN
10
0.798509
20
0.070855
30
0.0
11
0.799006
21
0.065896
31
0.0
0
LINE
8
TOP_HID
6
HIDDEN
10
0.799006
20
0.065896
30
0.0
11
0.799006
21
0.060911
31
0.0
0
LINE
8
TOP_HID
6
HIDDEN
10
0.799006
20
0.060911
30
0.0
11
0.798509
21
0.055951
31
0.0
0
LINE
8
TOP_HID
6
HIDDEN
10
0.798509
20
0.055951
30
0.0
11
0.797522
21
0.051065
31
0.0
0
LINE
8
TOP_HID
6
HIDDEN
10
0.797522
20
0.051065
30
0.0
11
0.796052
21
0.046302
31
0.0
0
LINE
8
TOP_HID
6
HIDDEN
10
0.796052
20
0.046302
30
0.0
11
0.794116
21
0.041709
31
0.0
0
LINE
8
TOP_HID
6
HIDDEN
10
0.794116
20
0.041709
30
0.0
11
0.791732
21
0.037331
31
0.0
0
LINE
8
TOP_HID
6
HIDDEN
10
0.791732
20
0.037331
30
0.0
11
0.788924
21
0.033213
31
0.0
0
LINE
8
TOP_HID
6
HIDDEN
10
0.788924
20
0.033213
30
0.0
11
0.785720
21
0.029395
31
0.0
0
LINE
8
TOP_HID
6
HIDDEN
10
0.785720
20
0.029395
30
0.0
11
0.782152
21
0.025914
31
0.0
0
LINE
8
TOP_HID
6
HIDDEN
10
0.782152
20
0.025914
30
0.0
11
0.778255
21
0.022806
31
0.0
0
LINE
8
TOP_HID
6
HIDDEN
10
0.778255
20
0.022806
30
0.0
11
0.774068
21
0.020102
31
0.0
0
LINE
8
TOP_HID
6
HIDDEN
10
0.774068
20
0.020102
30
0.0
11
0.769632
21
0.017828
31
0.0
0
LINE
8
TOP_HID
6
HIDDEN
10
0.769632
20
0.017828
30
0.0
11
0.764992
21
0.016007
31
0.0
0
LINE
8
TOP_HID
6
HIDDEN
10
0.764992
20
0.016007
30
0.0
11
0.760194
21
0.014657
31
0.0
0
LINE
8
TOP_HID
6
HIDDEN
10
0.760194
20
0.014657
30
0.0
11
0.755285
21
0.013791
31
0.0
0
LINE
8
TOP_HID
6
HIDDEN
10
0.755285
20
0.013791
30
0.0
11
0.750314
21
0.013419
31
0.0
0
LINE
8
TOP_HID
6
HIDDEN
10
0.750314
20
0.013419
30
0.0
11
0.745331
21
0.013543
31
0.0
0
LINE
8
TOP_HID
6
HIDDEN
10
0.745331
20
0.013543
30
0.0
11
0.740385
21
0.014163
31
0.0
0
LINE
8
TOP_HID
6
HIDDEN
10
0.740385
20
0.014163
30
0.0
11
0.735526
21
0.015272
31
0.0
0
LINE
8
TOP_HID
6
HIDDEN
10
0.735526
20
0.015272
30
0.0
11
0.730801
21
0.016860
31
0.0
0
LINE
8
TOP_HID
6
HIDDEN
10
0.730801
20
0.016860
30
0.0
11
0.726257
21
0.018910
31
0.0
0
LINE
8
TOP_HID
6
HIDDEN
10
0.726257
20
0.018910
30
0.0
11
0.721940
21
0.021402
31
0.0
0
LINE
8
TOP_HID
6
HIDDEN
10
0.721940
20
0.021402
30
0.0
11
0.717893
21
0.024312
31
0.0
0
LINE
8
TOP_HID
6
HIDDEN
10
0.717893
20
0.024312
30
0.0
11
0.714156
21
0.027610
31
0.0
0
LINE
8
TOP_HID
6
HIDDEN
10
0.714156
20
0.027610
30
0.0
11
0.710765
21
0.031264
31
0.0
0
LINE
8
TOP_HID
6
HIDDEN
10
0.710765
20
0.031264
30
0.0
11
0.707756
21
0.035237
31
0.0
0
LINE
8
TOP_HID
6
HIDDEN
10
0.707756
20
0.035237
30
0.0
11
0.705157
21
0.039491
31
0.0
0
LINE
8
TOP_HID
6
HIDDEN
10
0.705157
20
0.039491
30
0.0
11
0.702994
21
0.043982
31
0.0
0
LINE
8
TOP_HID
6
HIDDEN
10
0.702994
20
0.043982
30
0.0
11
0.701289
21
0.048665
31
0.0
0
LINE
8
TOP_HID
6
HIDDEN
10
0.701289
20
0.048665
30
0.0
11
0.700059
21
0.053496
31
0.0
0
LINE
8
TOP_HID
6
HIDDEN
10
0.700059
20
0.053496
30
0.0
11
0.699316
21
0.058425
31
0.0
0
LINE
8
TOP_HID
6
HIDDEN
10
0.699316
20
0.058425
30
0.0
11
0.699068
21
0.063403
31
0.0
0
LINE
8
TOP_HID
6
HIDDEN
10
0.699068
20
1.427040
30
0.0
11
0.699316
21
1.432018
31
0.0
0
LINE
8
TOP_HID
6
HIDDEN
10
0.699316
20
1.432018
30
0.0
11
0.700059
21
1.436947
31
0.0
0
LINE
8
TOP_HID
6
HIDDEN
10
0.700059
20
1.436947
30
0.0
11
0.701289
21
1.441777
31
0.0
0
LINE
8
TOP_HID
6
HIDDEN
10
0.701289
20
1.441777
30
0.0
11
0.702994
21
1.446461
31
0.0
0
LINE
8
TOP_HID
6
HIDDEN
10
0.702994
20
1.446461
30
0.0
11
0.705157
21
1.450952
31
0.0
0
LINE
8
TOP_HID
6
HIDDEN
10
0.705157
20
1.450952
30
0.0
11
0.707756
21
1.455206
31
0.0
0
LINE
8
TOP_HID
6
HIDDEN
10
0.707756
20
1.455206
30
0.0
11
0.710765
21
1.459179
31
0.0
0
LINE
8
TOP_HID
6
HIDDEN
10
0.710765
20
1.459179
30
0.0
11
0.714156
21
1.462833
31
0.0
0
LINE
8
TOP_HID
6
HIDDEN
10
0.714156
20
1.462833
30
0.0
11
0.717893
21
1.466131
31
0.0
0
LINE
8
TOP_HID
6
HIDDEN
10
0.717893
20
1.466131
30
0.0
11
0.721940
21
1.469041
31
0.0
0
LINE
8
TOP_HID
6
HIDDEN
10
0.721940
20
1.469041
30
0.0
11
0.726257
21
1.471533
31
0.0
0
LINE
8
TOP_HID
6
HIDDEN
10
0.726257
20
1.471533
30
0.0
11
0.730801
21
1.473583
31
0.0
0
LINE
8
TOP_HID
6
HIDDEN
10
0.730801
20
1.473583
30
0.0
11
0.735526
21
1.475171
31
0.0
0
LINE
8
TOP_HID
6
HIDDEN
10
0.735526
20
1.475171
30
0.0
11
0.740385
21
1.476280
31
0.0
0
LINE
8
TOP_HID
6
HIDDEN
10
0.740385
20
1.476280
30
0.0
11
0.745331
21
1.476900
31
0.0
0
LINE
8
TOP_HID
6
HIDDEN
10
0.745331
20
1.476900
30
0.0
11
0.750314
21
1.477024
31
0.0
0
LINE
8
TOP_HID
6
HIDDEN
10
0.750314
20
1.477024
30
0.0
11
0.755285
21
1.476652
31
0.0
0
LINE
8
TOP_HID
6
HIDDEN
10
0.755285
20
1.476652
30
0.0
11
0.760194
21
1.475786
31
0.0
0
LINE
8
TOP_HID
6
HIDDEN
10
0.760194
20
1.475786
30
0.0
11
0.764992
21
1.474436
31
0.0
0
LINE
8
TOP_HID
6
HIDDEN
10
0.764992
20
1.474436
30
0.0
11
0.769632
21
1.472615
31
0.0
0
LINE
8
TOP_HID
6
HIDDEN
10
0.769632
20
1.472615
30
0.0
11
0.774068
21
1.470341
31
0.0
0
LINE
8
TOP_HID
6
HIDDEN
10
0.774068
20
1.470341
30
0.0
11
0.778255
21
1.467637
31
0.0
0
LINE
8
TOP_HID
6
HIDDEN
10
0.778255
20
1.467637
30
0.0
11
0.782152
21
1.464529
31
0.0
0
LINE
8
TOP_HID
6
HIDDEN
10
0.782152
20
1.464529
30
0.0
11
0.785720
21
1.461048
31
0.0
0
LINE
8
TOP_HID
6
HIDDEN
10
0.785720
20
1.461048
30
0.0
11
0.788924
21
1.457230
31
0.0
0
LINE
8
TOP_HID
6
HIDDEN
10
0.788924
20
1.457230
30
0.0
11
0.791732
21
1.453111
31
0.0
0
LINE
8
TOP_HID
6
HIDDEN
10
0.791732
20
1.453111
30
0.0
11
0.794116
21
1.448734
31
0.0
0
LINE
8
TOP_HID
6
HIDDEN
10
0.794116
20
1.448734
30
0.0
11
0.796052
21
1.444141
31
0.0
0
LINE
8
TOP_HID
6
HIDDEN
10
0.796052
20
1.444141
30
0.0
11
0.797522
21
1.439377
31
0.0
0
LINE
8
TOP_HID
6
HIDDEN
10
0.797522
20
1.439377
30
0.0
11
0.798509
21
1.434492
31
0.0
0
LINE
8
TOP_HID
6
HIDDEN
10
0.798509
20
1.434492
30
0.0
11
0.799006
21
1.429532
31
0.0
0
LINE
8
TOP_HID
6
HIDDEN
10
0.799006
20
1.429532
30
0.0
11
0.799006
21
1.424547
31
0.0
0
LINE
8
TOP_HID
6
HIDDEN
10
0.799006
20
1.424547
30
0.0
11
0.798509
21
1.419588
31
0.0
0
LINE
8
TOP_HID
6
HIDDEN
10
0.798509
20
1.419588
30
0.0
11
0.797522
21
1.414702
31
0.0
0
LINE
8
TOP_HID
6
HIDDEN
10
0.797522
20
1.414702
30
0.0
11
0.796052
21
1.409939
31
0.0
0
LINE
8
TOP_HID
6
HIDDEN
10
0.796052
20
1.409939
30
0.0
11
0.794116
21
1.405345
31
0.0
0
LINE
8
TOP_HID
6
HIDDEN
10
0.794116
20
1.405345
30
0.0
11
0.791732
21
1.400968
31
0.0
0
LINE
8
TOP_HID
6
HIDDEN
10
0.791732
20
1.400968
30
0.0
11
0.788924
21
1.396849
31
0.0
0
LINE
8
TOP_HID
6
HIDDEN
10
0.788924
20
1.396849
30
0.0
11
0.785720
21
1.393031
31
0.0
0
LINE
8
TOP_HID
6
HIDDEN
10
0.785720
20
1.393031
30
0.0
11
0.782152
21
1.389551
31
0.0
0
LINE
8
TOP_HID
6
HIDDEN
10
0.782152
20
1.389551
30
0.0
11
0.778255
21
1.386443
31
0.0
0
LINE
8
TOP_HID
6
HIDDEN
10
0.778255
20
1.386443
30
0.0
11
0.774068
21
1.383738
31
0.0
0
LINE
8
TOP_HID
6
HIDDEN
10
0.774068
20
1.383738
30
0.0
11
0.769632
21
1.381464
31
0.0
0
LINE
8
TOP_HID
6
HIDDEN
10
0.769632
20
1.381464
30
0.0
11
0.764992
21
1.379643
31
0.0
0
LINE
8
TOP_HID
6
HIDDEN
10
0.764992
20
1.379643
30
0.0
11
0.760194
21
1.378293
31
0.0
0
LINE
8
TOP_HID
6
HIDDEN
10
0.760194
20
1.378293
30
0.0
11
0.755285
21
1.377428
31
0.0
0
LINE
8
TOP_HID
6
HIDDEN
10
0.755285
20
1.377428
30
0.0
11
0.750314
21
1.377055
31
0.0
0
LINE
8
TOP_HID
6
HIDDEN
10
0.750314
20
1.377055
30
0.0
11
0.745331
21
1.377179
31
0.0
0
LINE
8
TOP_HID
6
HIDDEN
10
0.745331
20
1.377179
30
0.0
11
0.740385
21
1.377799
31
0.0
0
LINE
8
TOP_HID
6
HIDDEN
10
0.740385
20
1.377799
30
0.0
11
0.735526
21
1.378908
31
0.0
0
LINE
8
TOP_HID
6
HIDDEN
10
0.735526
20
1.378908
30
0.0
11
0.730801
21
1.380496
31
0.0
0
LINE
8
TOP_HID
6
HIDDEN
10
0.730801
20
1.380496
30
0.0
11
0.726257
21
1.382546
31
0.0
0
LINE
8
TOP_HID
6
HIDDEN
10
0.726257
20
1.382546
30
0.0
11
0.721940
21
1.385038
31
0.0
0
LINE
8
TOP_HID
6
HIDDEN
10
0.721940
20
1.385038
30
0.0
11
0.717893
21
1.387948
31
0.0
0
LINE
8
TOP_HID
6
HIDDEN
10
0.717893
20
1.387948
30
0.0
11
0.714156
21
1.391246
31
0.0
0
LINE
8
TOP_HID
6
HIDDEN
10
0.714156
20
1.391246
30
0.0
11
0.710765
21
1.394900
31
0.0
0
LINE
8
TOP_HID
6
HIDDEN
10
0.710765
20
1.394900
30
0.0
11
0.707756
21
1.398874
31
0.0
0
LINE
8
TOP_HID
6
HIDDEN
10
0.707756
20
1.398874
30
0.0
11
0.705157
21
1.403127
31
0.0
0
LINE
8
TOP_HID
6
HIDDEN
10
0.705157
20
1.403127
30
0.0
11
0.702994
21
1.407618
31
0.0
0
LINE
8
TOP_HID
6
HIDDEN
10
0.702994
20
1.407618
30
0.0
11
0.701289
21
1.412302
31
0.0
0
LINE
8
TOP_HID
6
HIDDEN
10
0.701289
20
1.412302
30
0.0
11
0.700059
21
1.417132
31
0.0
0
LINE
8
TOP_HID
6
HIDDEN
10
0.700059
20
1.417132
30
0.0
11
0.699316
21
1.422061
31
0.0
0
LINE
8
TOP_HID
6
HIDDEN
10
0.699316
20
1.422061
30
0.0
11
0.699068
21
1.427040
31
0.0
0
LINE
8
TOP_HID
6
HIDDEN
10
1.380886
20
0.745221
30
0.0
11
1.381134
21
0.750200
31
0.0
0
LINE
8
TOP_HID
6
HIDDEN
10
1.381134
20
0.750200
30
0.0
11
1.381877
21
0.755129
31
0.0
0
LINE
8
TOP_HID
6
HIDDEN
10
1.381877
20
0.755129
30
0.0
11
1.383107
21
0.759959
31
0.0
0
LINE
8
TOP_HID
6
HIDDEN
10
1.383107
20
0.759959
30
0.0
11
1.384812
21
0.764643
31
0.0
0
LINE
8
TOP_HID
6
HIDDEN
10
1.384812
20
0.764643
30
0.0
11
1.386975
21
0.769134
31
0.0
0
LINE
8
TOP_HID
6
HIDDEN
10
1.386975
20
0.769134
30
0.0
11
1.389574
21
0.773387
31
0.0
0
LINE
8
TOP_HID
6
HIDDEN
10
1.389574
20
0.773387
30
0.0
11
1.392584
21
0.777361
31
0.0
0
LINE
8
TOP_HID
6
HIDDEN
10
1.392584
20
0.777361
30
0.0
11
1.395974
21
0.781015
31
0.0
0
LINE
8
TOP_HID
6
HIDDEN
10
1.395974
20
0.781015
30
0.0
11
1.399711
21
0.784313
31
0.0
0
LINE
8
TOP_HID
6
HIDDEN
10
1.399711
20
0.784313
30
0.0
11
1.403759
21
0.787223
31
0.0
0
LINE
8
TOP_HID
6
HIDDEN
10
1.403759
20
0.787223
30
0.0
11
1.408075
21
0.789715
31
0.0
0
LINE
8
TOP_HID
6
HIDDEN
10
1.408075
20
0.789715
30
0.0
11
1.412619
21
0.791765
31
0.0
0
LINE
8
TOP_HID
6
HIDDEN
10
1.412619
20
0.791765
30
0.0
11
1.417344
21
0.793353
31
0.0
0
LINE
8
TOP_HID
6
HIDDEN
10
1.417344
20
0.793353
30
0.0
11
1.422203
21
0.794462
31
0.0
0
LINE
8
TOP_HID
6
HIDDEN
10
1.422203
20
0.794462
30
0.0
11
1.427149
21
0.795082
31
0.0
0
LINE
8
TOP_HID
6
HIDDEN
10
1.427149
20
0.795082
30
0.0
11
1.432132
21
0.795206
31
0.0
0
LINE
8
TOP_HID
6
HIDDEN
10
1.432132
20
0.795206
30
0.0
11
1.437103
21
0.794833
31
0.0
0
LINE
8
TOP_HID
6
HIDDEN
10
1.437103
20
0.794833
30
0.0
11
1.442012
21
0.793968
31
0.0
0
LINE
8
TOP_HID
6
HIDDEN
10
1.442012
20
0.793968
30
0.0
11
1.446810
21
0.792618
31
0.0
0
LINE
8
TOP_HID
6
HIDDEN
10
1.446810
20
0.792618
30
0.0
11
1.451450
21
0.790797
31
0.0
0
LINE
8
TOP_HID
6
HIDDEN
10
1.451450
20
0.790797
30
0.0
11
1.455886
21
0.788523
31
0.0
0
LINE
8
TOP_HID
6
HIDDEN
10
1.455886
20
0.788523
30
0.0
11
1.460073
21
0.785818
31
0.0
0
LINE
8
TOP_HID
6
HIDDEN
10
1.460073
20
0.785818
30
0.0
11
1.463970
21
0.782710
31
0.0
0
LINE
8
TOP_HID
6
HIDDEN
10
1.463970
20
0.782710
30
0.0
11
1.467538
21
0.779230
31
0.0
0
LINE
8
TOP_HID
6
HIDDEN
10
1.467538
20
0.779230
30
0.0
11
1.470742
21
0.775412
31
0.0
0
LINE
8
TOP_HID
6
HIDDEN
10
1.470742
20
0.775412
30
0.0
11
1.473550
21
0.771293
31
0.0
0
LINE
8
TOP_HID
6
HIDDEN
10
1.473550
20
0.771293
30
0.0
11
1.475934
21
0.766916
31
0.0
0
LINE
8
TOP_HID
6
HIDDEN
10
1.475934
20
0.766916
30
0.0
11
1.477871
21
0.762322
31
0.0
0
LINE
8
TOP_HID
6
HIDDEN
10
1.477871
20
0.762322
30
0.0
11
1.479340
21
0.757559
31
0.0
0
LINE
8
TOP_HID
6
HIDDEN
10
1.479340
20
0.757559
30
0.0
11
1.480327
21
0.752674
31
0.0
0
LINE
8
TOP_HID
6
HIDDEN
10
1.480327
20
0.752674
30
0.0
11
1.480824
21
0.747714
31
0.0
0
LINE
8
TOP_HID
6
HIDDEN
10
1.480824
20
0.747714
30
0.0
11
1.480824
21
0.742729
31
0.0
0
LINE
8
TOP_HID
6
HIDDEN
10
1.480824
20
0.742729
30
0.0
11
1.480327
21
0.737769
31
0.0
0
LINE
8
TOP_HID
6
HIDDEN
10
1.480327
20
0.737769
30
0.0
11
1.479340
21
0.732884
31
0.0
0
LINE
8
TOP_HID
6
HIDDEN
10
1.479340
20
0.732884
30
0.0
11
1.477871
21
0.728120
31
0.0
0
LINE
8
TOP_HID
6
HIDDEN
10
1.477871
20
0.728120
30
0.0
11
1.475934
21
0.723527
31
0.0
0
LINE
8
TOP_HID
6
HIDDEN
10
1.475934
20
0.723527
30
0.0
11
1.473550
21
0.719150
31
0.0
0
LINE
8
TOP_HID
6
HIDDEN
10
1.473550
20
0.719150
30
0.0
11
1.470742
21
0.715031
31
0.0
0
LINE
8
TOP_HID
6
HIDDEN
10
1.470742
20
0.715031
30
0.0
11
1.467538
21
0.711213
31
0.0
0
LINE
8
TOP_HID
6
HIDDEN
10
1.467538
20
0.711213
30
0.0
11
1.463970
21
0.707732
31
0.0
0
LINE
8
TOP_HID
6
HIDDEN
10
1.463970
20
0.707732
30
0.0
11
1.460073
21
0.704625
31
0.0
0
LINE
8
TOP_HID
6
HIDDEN
10
1.460073
20
0.704625
30
0.0
11
1.455886
21
0.701920
31
0.0
0
LINE
8
TOP_HID
6
HIDDEN
10
1.455886
20
0.701920
30
0.0
11
1.451450
21
0.699646
31
0.0
0
LINE
8
TOP_HID
6
HIDDEN
10
1.451450
20
0.699646
30
0.0
11
1.446810
21
0.697825
31
0.0
0
LINE
8
TOP_HID
6
HIDDEN
10
1.446810
20
0.697825
30
0.0
11
1.442012
21
0.696475
31
0.0
0
LINE
8
TOP_HID
6
HIDDEN
10
1.442012
20
0.696475
30
0.0
11
1.437103
21
0.695609
31
0.0
0
LINE
8
TOP_HID
6
HIDDEN
10
1.437103
20
0.695609
30
0.0
11
1.432132
21
0.695237
31
0.0
0
LINE
8
TOP_HID
6
HIDDEN
10
1.432132
20
0.695237
30
0.0
11
1.427149
21
0.695361
31
0.0
0
LINE
8
TOP_HID
6
HIDDEN
10
1.427149
20
0.695361
30
0.0
11
1.422203
21
0.695981
31
0.0
0
LINE
8
TOP_HID
6
HIDDEN
10
1.422203
20
0.695981
30
0.0
11
1.417344
21
0.697090
31
0.0
0
LINE
8
TOP_HID
6
HIDDEN
10
1.417344
20
0.697090
30
0.0
11
1.412619
21
0.698678
31
0.0
0
LINE
8
TOP_HID
6
HIDDEN
10
1.412619
20
0.698678
30
0.0
11
1.408075
21
0.700728
31
0.0
0
LINE
8
TOP_HID
6
HIDDEN
10
1.408075
20
0.700728
30
0.0
11
1.403759
21
0.703220
31
0.0
0
LINE
8
TOP_HID
6
HIDDEN
10
1.403759
20
0.703220
30
0.0
11
1.399711
21
0.706130
31
0.0
0
LINE
8
TOP_HID
6
HIDDEN
10
1.399711
20
0.706130
30
0.0
11
1.395974
21
0.709428
31
0.0
0
LINE
8
TOP_HID
6
HIDDEN
10
1.395974
20
0.709428
30
0.0
11
1.392584
21
0.713082
31
0.0
0
LINE
8
TOP_HID
6
HIDDEN
10
1.392584
20
0.713082
30
0.0
11
1.389574
21
0.717055
31
0.0
0
LINE
8
TOP_HID
6
HIDDEN
10
1.389574
20
0.717055
30
0.0
11
1.386975
21
0.721309
31
0.0
0
LINE
8
TOP_HID
6
HIDDEN
10
1.386975
20
0.721309
30
0.0
11
1.384812
21
0.725800
31
0.0
0
LINE
8
TOP_HID
6
HIDDEN
10
1.384812
20
0.725800
30
0.0
11
1.383107
21
0.730484
31
0.0
0
LINE
8
TOP_HID
6
HIDDEN
10
1.383107
20
0.730484
30
0.0
11
1.381877
21
0.735314
31
0.0
0
LINE
8
TOP_HID
6
HIDDEN
10
1.381877
20
0.735314
30
0.0
11
1.381134
21
0.740243
31
0.0
0
LINE
8
TOP_HID
6
HIDDEN
10
1.381134
20
0.740243
30
0.0
11
1.380886
21
0.745221
31
0.0
0
LINE
8
TOP_HID
6
HIDDEN
10
0.699068
20
0.063403
30
0.0
11
0.699316
21
0.068382
31
0.0
0
LINE
8
TOP_HID
6
HIDDEN
10
0.699316
20
0.068382
30
0.0
11
0.700059
21
0.073311
31
0.0
0
LINE
8
TOP_HID
6
HIDDEN
10
0.700059
20
0.073311
30
0.0
11
0.701289
21
0.078141
31
0.0
0
LINE
8
TOP_HID
6
HIDDEN
10
0.701289
20
0.078141
30
0.0
11
0.702994
21
0.082825
31
0.0
0
LINE
8
TOP_HID
6
HIDDEN
10
0.702994
20
0.082825
30
0.0
11
0.705157
21
0.087316
31
0.0
0
LINE
8
TOP_HID
6
HIDDEN
10
0.705157
20
0.087316
30
0.0
11
0.707756
21
0.091569
31
0.0
0
LINE
8
TOP_HID
6
HIDDEN
10
0.707756
20
0.091569
30
0.0
11
0.710765
21
0.095543
31
0.0
0
LINE
8
TOP_HID
6
HIDDEN
10
0.710765
20
0.095543
30
0.0
11
0.714156
21
0.099197
31
0.0
0
LINE
8
TOP_HID
6
HIDDEN
10
0.714156
20
0.099197
30
0.0
11
0.717893
21
0.102495
31
0.0
0
LINE
8
TOP_HID
6
HIDDEN
10
0.717893
20
0.102495
30
0.0
11
0.721940
21
0.105405
31
0.0
0
LINE
8
TOP_HID
6
HIDDEN
10
0.721940
20
0.105405
30
0.0
11
0.726257
21
0.107897
31
0.0
0
LINE
8
TOP_HID
6
HIDDEN
10
0.726257
20
0.107897
30
0.0
11
0.730801
21
0.109947
31
0.0
0
LINE
8
TOP_HID
6
HIDDEN
10
0.730801
20
0.109947
30
0.0
11
0.735526
21
0.111534
31
0.0
0
LINE
8
TOP_HID
6
HIDDEN
10
0.735526
20
0.111534
30
0.0
11
0.740385
21
0.112644
31
0.0
0
LINE
8
TOP_HID
6
HIDDEN
10
0.740385
20
0.112644
30
0.0
11
0.745331
21
0.113263
31
0.0
0
LINE
8
TOP_HID
6
HIDDEN
10
0.745331
20
0.113263
30
0.0
11
0.750314
21
0.113388
31
0.0
0
LINE
8
TOP_HID
6
HIDDEN
10
0.750314
20
0.113388
30
0.0
11
0.755285
21
0.113015
31
0.0
0
LINE
8
TOP_HID
6
HIDDEN
10
0.755285
20
0.113015
30
0.0
11
0.760194
21
0.112150
31
0.0
0
LINE
8
TOP_HID
6
HIDDEN
10
0.760194
20
0.112150
30
0.0
11
0.764992
21
0.110800
31
0.0
0
LINE
8
TOP_HID
6
HIDDEN
10
0.764992
20
0.110800
30
0.0
11
0.769632
21
0.108979
31
0.0
0
LINE
8
TOP_HID
6
HIDDEN
10
0.769632
20
0.108979
30
0.0
11
0.774068
21
0.106705
31
0.0
0
LINE
8
TOP_HID
6
HIDDEN
10
0.774068
20
0.106705
30
0.0
11
0.778255
21
0.104000
31
0.0
0
LINE
8
TOP_HID
6
HIDDEN
10
0.778255
20
0.104000
30
0.0
11
0.782152
21
0.100892
31
0.0
0
LINE
8
TOP_HID
6
HIDDEN
10
0.782152
20
0.100892
30
0.0
11
0.785720
21
0.097412
31
0.0
0
LINE
8
TOP_HID
6
HIDDEN
10
0.785720
20
0.097412
30
0.0
11
0.788924
21
0.093593
31
0.0
0
LINE
8
TOP_HID
6
HIDDEN
10
0.788924
20
0.093593
30
0.0
11
0.791732
21
0.089475
31
0.0
0
LINE
8
TOP_HID
6
HIDDEN
10
0.791732
20
0.089475
30
0.0
11
0.794116
21
0.085097
31
0.0
0
LINE
8
TOP_HID
6
HIDDEN
10
0.794116
20
0.085097
30
0.0
11
0.796052
21
0.080504
31
0.0
0
LINE
8
TOP_HID
6
HIDDEN
10
0.796052
20
0.080504
30
0.0
11
0.797522
21
0.075741
31
0.0
0
LINE
8
TOP_HID
6
HIDDEN
10
0.797522
20
0.075741
30
0.0
11
0.798509
21
0.070855
31
0.0
0
LINE
8
TOP_HID
6
HIDDEN
10
0.798509
20
0.070855
30
0.0
11
0.799006
21
0.065896
31
0.0
0
LINE
8
TOP_HID
6
HIDDEN
10
0.799006
20
0.065896
30
0.0
11
0.799006
21
0.060911
31
0.0
0
LINE
8
TOP_HID
6
HIDDEN
10
0.799006
20
0.060911
30
0.0
11
0.798509
21
0.055951
31
0.0
0
LINE
8
TOP_HID
6
HIDDEN
10
0.798509
20
0.055951
30
0.0
11
0.797522
21
0.051065
31
0.0
0
LINE
8
TOP_HID
6
HIDDEN
10
0.797522
20
0.051065
30
0.0
11
0.796052
21
0.046302
31
0.0
0
LINE
8
TOP_HID
6
HIDDEN
10
0.796052
20
0.046302
30
0.0
11
0.794116
21
0.041709
31
0.0
0
LINE
8
TOP_HID
6
HIDDEN
10
0.794116
20
0.041709
30
0.0
11
0.791732
21
0.037331
31
0.0
0
LINE
8
TOP_HID
6
HIDDEN
10
0.791732
20
0.037331
30
0.0
11
0.788924
21
0.033213
31
0.0
0
LINE
8
TOP_HID
6
HIDDEN
10
0.788924
20
0.033213
30
0.0
11
0.785720
21
0.029395
31
0.0
0
LINE
8
TOP_HID
6
HIDDEN
10
0.785720
20
0.029395
30
0.0
11
0.782152
21
0.025914
31
0.0
0
LINE
8
TOP_HID
6
HIDDEN
10
0.782152
20
0.025914
30
0.0
11
0.778255
21
0.022806
31
0.0
0
LINE
8
TOP_HID
6
HIDDEN
10
0.778255
20
0.022806
30
0.0
11
0.774068
21
0.020102
31
0.0
0
LINE
8
TOP_HID
6
HIDDEN
10
0.774068
20
0.020102
30
0.0
11
0.769632
21
0.017828
31
0.0
0
LINE
8
TOP_HID
6
HIDDEN
10
0.769632
20
0.017828
30
0.0
11
0.764992
21
0.016007
31
0.0
0
LINE
8
TOP_HID
6
HIDDEN
10
0.764992
20
0.016007
30
0.0
11
0.760194
21
0.014657
31
0.0
0
LINE
8
TOP_HID
6
HIDDEN
10
0.760194
20
0.014657
30
0.0
11
0.755285
21
0.013791
31
0.0
0
LINE
8
TOP_HID
6
HIDDEN
10
0.755285
20
0.013791
30
0.0
11
0.750314
21
0.013419
31
0.0
0
LINE
8
TOP_HID
6
HIDDEN
10
0.750314
20
0.013419
30
0.0
11
0.745331
21
0.013543
31
0.0
0
LINE
8
TOP_HID
6
HIDDEN
10
0.745331
20
0.013543
30
0.0
11
0.740385
21
0.014163
31
0.0
0
LINE
8
TOP_HID
6
HIDDEN
10
0.740385
20
0.014163
30
0.0
11
0.735526
21
0.015272
31
0.0
0
LINE
8
TOP_HID
6
HIDDEN
10
0.735526
20
0.015272
30
0.0
11
0.730801
21
0.016860
31
0.0
0
LINE
8
TOP_HID
6
HIDDEN
10
0.730801
20
0.016860
30
0.0
11
0.726257
21
0.018910
31
0.0
0
LINE
8
TOP_HID
6
HIDDEN
10
0.726257
20
0.018910
30
0.0
11
0.721940
21
0.021402
31
0.0
0
LINE
8
TOP_HID
6
HIDDEN
10
0.721940
20
0.021402
30
0.0
11
0.717893
21
0.024312
31
0.0
0
LINE
8
TOP_HID
6
HIDDEN
10
0.717893
20
0.024312
30
0.0
11
0.714156
21
0.027610
31
0.0
0
LINE
8
TOP_HID
6
HIDDEN
10
0.714156
20
0.027610
30
0.0
11
0.710765
21
0.031264
31
0.0
0
LINE
8
TOP_HID
6
HIDDEN
10
0.710765
20
0.031264
30
0.0
11
0.707756
21
0.035237
31
0.0
0
LINE
8
TOP_HID
6
HIDDEN
10
0.707756
20
0.035237
30
0.0
11
0.705157
21
0.039491
31
0.0
0
LINE
8
TOP_HID
6
HIDDEN
10
0.705157
20
0.039491
30
0.0
11
0.702994
21
0.043982
31
0.0
0
LINE
8
TOP_HID
6
HIDDEN
10
0.702994
20
0.043982
30
0.0
11
0.701289
21
0.048665
31
0.0
0
LINE
8
TOP_HID
6
HIDDEN
10
0.701289
20
0.048665
30
0.0
11
0.700059
21
0.053496
31
0.0
0
LINE
8
TOP_HID
6
HIDDEN
10
0.700059
20
0.053496
30
0.0
11
0.699316
21
0.058425
31
0.0
0
LINE
8
TOP_HID
6
HIDDEN
10
0.699316
20
0.058425
30
0.0
11
0.699068
21
0.063403
31
0.0
0
LINE
8
TOP_HID
6
HIDDEN
10
0.699068
20
1.427040
30
0.0
11
0.699316
21
1.432018
31
0.0
0
LINE
8
TOP_HID
6
HIDDEN
10
0.699316
20
1.432018
30
0.0
11
0.700059
21
1.436947
31
0.0
0
LINE
8
TOP_HID
6
HIDDEN
10
0.700059
20
1.436947
30
0.0
11
0.701289
21
1.441777
31
0.0
0
LINE
8
TOP_HID
6
HIDDEN
10
0.701289
20
1.441777
30
0.0
11
0.702994
21
1.446461
31
0.0
0
LINE
8
TOP_HID
6
HIDDEN
10
0.702994
20
1.446461
30
0.0
11
0.705157
21
1.450952
31
0.0
0
LINE
8
TOP_HID
6
HIDDEN
10
0.705157
20
1.450952
30
0.0
11
0.707756
21
1.455206
31
0.0
0
LINE
8
TOP_HID
6
HIDDEN
10
0.707756
20
1.455206
30
0.0
11
0.710765
21
1.459179
31
0.0
0
LINE
8
TOP_HID
6
HIDDEN
10
0.710765
20
1.459179
30
0.0
11
0.714156
21
1.462833
31
0.0
0
LINE
8
TOP_HID
6
HIDDEN
10
0.714156
20
1.462833
30
0.0
11
0.717893
21
1.466131
31
0.0
0
LINE
8
TOP_HID
6
HIDDEN
10
0.717893
20
1.466131
30
0.0
11
0.721940
21
1.469041
31
0.0
0
LINE
8
TOP_HID
6
HIDDEN
10
0.721940
20
1.469041
30
0.0
11
0.726257
21
1.471533
31
0.0
0
LINE
8
TOP_HID
6
HIDDEN
10
0.726257
20
1.471533
30
0.0
11
0.730801
21
1.473583
31
0.0
0
LINE
8
TOP_HID
6
HIDDEN
10
0.730801
20
1.473583
30
0.0
11
0.735526
21
1.475171
31
0.0
0
LINE
8
TOP_HID
6
HIDDEN
10
0.735526
20
1.475171
30
0.0
11
0.740385
21
1.476280
31
0.0
0
LINE
8
TOP_HID
6
HIDDEN
10
0.740385
20
1.476280
30
0.0
11
0.745331
21
1.476900
31
0.0
0
LINE
8
TOP_HID
6
HIDDEN
10
0.745331
20
1.476900
30
0.0
11
0.750314
21
1.477024
31
0.0
0
LINE
8
TOP_HID
6
HIDDEN
10
0.750314
20
1.477024
30
0.0
11
0.755285
21
1.476652
31
0.0
0
LINE
8
TOP_HID
6
HIDDEN
10
0.755285
20
1.476652
30
0.0
11
0.760194
21
1.475786
31
0.0
0
LINE
8
TOP_HID
6
HIDDEN
10
0.760194
20
1.475786
30
0.0
11
0.764992
21
1.474436
31
0.0
0
LINE
8
TOP_HID
6
HIDDEN
10
0.764992
20
1.474436
30
0.0
11
0.769632
21
1.472615
31
0.0
0
LINE
8
TOP_HID
6
HIDDEN
10
0.769632
20
1.472615
30
0.0
11
0.774068
21
1.470341
31
0.0
0
LINE
8
TOP_HID
6
HIDDEN
10
0.774068
20
1.470341
30
0.0
11
0.778255
21
1.467637
31
0.0
0
LINE
8
TOP_HID
6
HIDDEN
10
0.778255
20
1.467637
30
0.0
11
0.782152
21
1.464529
31
0.0
0
LINE
8
TOP_HID
6
HIDDEN
10
0.782152
20
1.464529
30
0.0
11
0.785720
21
1.461048
31
0.0
0
LINE
8
TOP_HID
6
HIDDEN
10
0.785720
20
1.461048
30
0.0
11
0.788924
21
1.457230
31
0.0
0
LINE
8
TOP_HID
6
HIDDEN
10
0.788924
20
1.457230
30
0.0
11
0.791732
21
1.453111
31
0.0
0
LINE
8
TOP_HID
6
HIDDEN
10
0.791732
20
1.453111
30
0.0
11
0.794116
21
1.448734
31
0.0
0
LINE
8
TOP_HID
6
HIDDEN
10
0.794116
20
1.448734
30
0.0
11
0.796052
21
1.444141
31
0.0
0
LINE
8
TOP_HID
6
HIDDEN
10
0.796052
20
1.444141
30
0.0
11
0.797522
21
1.439377
31
0.0
0
LINE
8
TOP_HID
6
HIDDEN
10
0.797522
20
1.439377
30
0.0
11
0.798509
21
1.434492
31
0.0
0
LINE
8
TOP_HID
6
HIDDEN
10
0.798509
20
1.434492
30
0.0
11
0.799006
21
1.429532
31
0.0
0
LINE
8
TOP_HID
6
HIDDEN
10
0.799006
20
1.429532
30
0.0
11
0.799006
21
1.424547
31
0.0
0
LINE
8
TOP_HID
6
HIDDEN
10
0.799006
20
1.424547
30
0.0
11
0.798509
21
1.419588
31
0.0
0
LINE
8
TOP_HID
6
HIDDEN
10
0.798509
20
1.419588
30
0.0
11
0.797522
21
1.414702
31
0.0
0
LINE
8
TOP_HID
6
HIDDEN
10
0.797522
20
1.414702
30
0.0
11
0.796052
21
1.409939
31
0.0
0
LINE
8
TOP_HID
6
HIDDEN
10
0.796052
20
1.409939
30
0.0
11
0.794116
21
1.405345
31
0.0
0
LINE
8
TOP_HID
6
HIDDEN
10
0.794116
20
1.405345
30
0.0
11
0.791732
21
1.400968
31
0.0
0
LINE
8
TOP_HID
6
HIDDEN
10
0.791732
20
1.400968
30
0.0
11
0.788924
21
1.396849
31
0.0
0
LINE
8
TOP_HID
6
HIDDEN
10
0.788924
20
1.396849
30
0.0
11
0.785720
21
1.393031
31
0.0
0
LINE
8
TOP_HID
6
HIDDEN
10
0.785720
20
1.393031
30
0.0
11
0.782152
21
1.389551
31
0.0
0
LINE
8
TOP_HID
6
HIDDEN
10
0.782152
20
1.389551
30
0.0
11
0.778255
21
1.386443
31
0.0
0
LINE
8
TOP_HID
6
HIDDEN
10
0.778255
20
1.386443
30
0.0
11
0.774068
21
1.383738
31
0.0
0
LINE
8
TOP_HID
6
HIDDEN
10
0.774068
20
1.383738
30
0.0
11
0.769632
21
1.381464
31
0.0
0
LINE
8
TOP_HID
6
HIDDEN
10
0.769632
20
1.381464
30
0.0
11
0.764992
21
1.379643
31
0.0
0
LINE
8
TOP_HID
6
HIDDEN
10
0.764992
20
1.379643
30
0.0
11
0.760194
21
1.378293
31
0.0
0
LINE
8
TOP_HID
6
HIDDEN
10
0.760194
20
1.378293
30
0.0
11
0.755285
21
1.377428
31
0.0
0
LINE
8
TOP_HID
6
HIDDEN
10
0.755285
20
1.377428
30
0.0
11
0.750314
21
1.377055
31
0.0
0
LINE
8
TOP_HID
6
HIDDEN
10
0.750314
20
1.377055
30
0.0
11
0.745331
21
1.377179
31
0.0
0
LINE
8
TOP_HID
6
HIDDEN
10
0.745331
20
1.377179
30
0.0
11
0.740385
21
1.377799
31
0.0
0
LINE
8
TOP_HID
6
HIDDEN
10
0.740385
20
1.377799
30
0.0
11
0.735526
21
1.378908
31
0.0
0
LINE
8
TOP_HID
6
HIDDEN
10
0.735526
20
1.378908
30
0.0
11
0.730801
21
1.380496
31
0.0
0
LINE
8
TOP_HID
6
HIDDEN
10
0.730801
20
1.380496
30
0.0
11
0.726257
21
1.382546
31
0.0
0
LINE
8
TOP_HID
6
HIDDEN
10
0.726257
20
1.382546
30
0.0
11
0.721940
21
1.385038
31
0.0
0
LINE
8
TOP_HID
6
HIDDEN
10
0.721940
20
1.385038
30
0.0
11
0.717893
21
1.387948
31
0.0
0
LINE
8
TOP_HID
6
HIDDEN
10
0.717893
20
1.387948
30
0.0
11
0.714156
21
1.391246
31
0.0
0
LINE
8
TOP_HID
6
HIDDEN
10
0.714156
20
1.391246
30
0.0
11
0.710765
21
1.394900
31
0.0
0
LINE
8
TOP_HID
6
HIDDEN
10
0.710765
20
1.394900
30
0.0
11
0.707756
21
1.398874
31
0.0
0
LINE
8
TOP_HID
6
HIDDEN
10
0.707756
20
1.398874
30
0.0
11
0.705157
21
1.403127
31
0.0
0
LINE
8
TOP_HID
6
HIDDEN
10
0.705157
20
1.403127
30
0.0
11
0.702994
21
1.407618
31
0.0
0
LINE
8
TOP_HID
6
HIDDEN
10
0.702994
20
1.407618
30
0.0
11
0.701289
21
1.412302
31
0.0
0
LINE
8
TOP_HID
6
HIDDEN
10
0.701289
20
1.412302
30
0.0
11
0.700059
21
1.417132
31
0.0
0
LINE
8
TOP_HID
6
HIDDEN
10
0.700059
20
1.417132
30
0.0
11
0.699316
21
1.422061
31
0.0
0
LINE
8
TOP_HID
6
HIDDEN
10
0.699316
20
1.422061
30
0.0
11
0.699068
21
1.427040
31
0.0
0
LINE
8
TOP_HID
6
HIDDEN
10
1.380886
20
0.745221
30
0.0
11
1.381134
21
0.750200
31
0.0
0
LINE
8
TOP_HID
6
HIDDEN
10
1.381134
20
0.750200
30
0.0
11
1.381877
21
0.755129
31
0.0
0
LINE
8
TOP_HID
6
HIDDEN
10
1.381877
20
0.755129
30
0.0
11
1.383107
21
0.759959
31
0.0
0
LINE
8
TOP_HID
6
HIDDEN
10
1.383107
20
0.759959
30
0.0
11
1.384812
21
0.764643
31
0.0
0
LINE
8
TOP_HID
6
HIDDEN
10
1.384812
20
0.764643
30
0.0
11
1.386975
21
0.769134
31
0.0
0
LINE
8
TOP_HID
6
HIDDEN
10
1.386975
20
0.769134
30
0.0
11
1.389574
21
0.773387
31
0.0
0
LINE
8
TOP_HID
6
HIDDEN
10
1.389574
20
0.773387
30
0.0
11
1.392584
21
0.777361
31
0.0
0
LINE
8
TOP_HID
6
HIDDEN
10
1.392584
20
0.777361
30
0.0
11
1.395974
21
0.781015
31
0.0
0
LINE
8
TOP_HID
6
HIDDEN
10
1.395974
20
0.781015
30
0.0
11
1.399711
21
0.784313
31
0.0
0
LINE
8
TOP_HID
6
HIDDEN
10
1.399711
20
0.784313
30
0.0
11
1.403759
21
0.787223
31
0.0
0
LINE
8
TOP_HID
6
HIDDEN
10
1.403759
20
0.787223
30
0.0
11
1.408075
21
0.789715
31
0.0
0
LINE
8
TOP_HID
6
HIDDEN
10
1.408075
20
0.789715
30
0.0
11
1.412619
21
0.791765
31
0.0
0
LINE
8
TOP_HID
6
HIDDEN
10
1.412619
20
0.791765
30
0.0
11
1.417344
21
0.793353
31
0.0
0
LINE
8
TOP_HID
6
HIDDEN
10
1.417344
20
0.793353
30
0.0
11
1.422203
21
0.794462
31
0.0
0
LINE
8
TOP_HID
6
HIDDEN
10
1.422203
20
0.794462
30
0.0
11
1.427149
21
0.795082
31
0.0
0
LINE
8
TOP_HID
6
HIDDEN
10
1.427149
20
0.795082
30
0.0
11
1.432132
21
0.795206
31
0.0
0
LINE
8
TOP_HID
6
HIDDEN
10
1.432132
20
0.795206
30
0.0
11
1.437103
21
0.794833
31
0.0
0
LINE
8
TOP_HID
6
HIDDEN
10
1.437103
20
0.794833
30
0.0
11
1.442012
21
0.793968
31
0.0
0
LINE
8
TOP_HID
6
HIDDEN
10
1.442012
20
0.793968
30
0.0
11
1.446810
21
0.792618
31
0.0
0
LINE
8
TOP_HID
6
HIDDEN
10
1.446810
20
0.792618
30
0.0
11
1.451450
21
0.790797
31
0.0
0
LINE
8
TOP_HID
6
HIDDEN
10
1.451450
20
0.790797
30
0.0
11
1.455886
21
0.788523
31
0.0
0
LINE
8
TOP_HID
6
HIDDEN
10
1.455886
20
0.788523
30
0.0
11
1.460073
21
0.785818
31
0.0
0
LINE
8
TOP_HID
6
HIDDEN
10
1.460073
20
0.785818
30
0.0
11
1.463970
21
0.782710
31
0.0
0
LINE
8
TOP_HID
6
HIDDEN
10
1.463970
20
0.782710
30
0.0
11
1.467538
21
0.779230
31
0.0
0
LINE
8
TOP_HID
6
HIDDEN
10
1.467538
20
0.779230
30
0.0
11
1.470742
21
0.775412
31
0.0
0
LINE
8
TOP_HID
6
HIDDEN
10
1.470742
20
0.775412
30
0.0
11
1.473550
21
0.771293
31
0.0
0
LINE
8
TOP_HID
6
HIDDEN
10
1.473550
20
0.771293
30
0.0
11
1.475934
21
0.766916
31
0.0
0
LINE
8
TOP_HID
6
HIDDEN
10
1.475934
20
0.766916
30
0.0
11
1.477871
21
0.762322
31
0.0
0
LINE
8
TOP_HID
6
HIDDEN
10
1.477871
20
0.762322
30
0.0
11
1.479340
21
0.757559
31
0.0
0
LINE
8
TOP_HID
6
HIDDEN
10
1.479340
20
0.757559
30
0.0
11
1.480327
21
0.752674
31
0.0
0
LINE
8
TOP_HID
6
HIDDEN
10
1.480327
20
0.752674
30
0.0
11
1.480824
21
0.747714
31
0.0
0
LINE
8
TOP_HID
6
HIDDEN
10
1.480824
20
0.747714
30
0.0
11
1.480824
21
0.742729
31
0.0
0
LINE
8
TOP_HID
6
HIDDEN
10
1.480824
20
0.742729
30
0.0
11
1.480327
21
0.737769
31
0.0
0
LINE
8
TOP_HID
6
HIDDEN
10
1.480327
20
0.737769
30
0.0
11
1.479340
21
0.732884
31
0.0
0
LINE
8
TOP_HID
6
HIDDEN
10
1.479340
20
0.732884
30
0.0
11
1.477871
21
0.728120
31
0.0
0
LINE
8
TOP_HID
6
HIDDEN
10
1.477871
20
0.728120
30
0.0
11
1.475934
21
0.723527
31
0.0
0
LINE
8
TOP_HID
6
HIDDEN
10
1.475934
20
0.723527
30
0.0
11
1.473550
21
0.719150
31
0.0
0
LINE
8
TOP_HID
6
HIDDEN
10
1.473550
20
0.719150
30
0.0
11
1.470742
21
0.715031
31
0.0
0
LINE
8
TOP_HID
6
HIDDEN
10
1.470742
20
0.715031
30
0.0
11
1.467538
21
0.711213
31
0.0
0
LINE
8
TOP_HID
6
HIDDEN
10
1.467538
20
0.711213
30
0.0
11
1.463970
21
0.707732
31
0.0
0
LINE
8
TOP_HID
6
HIDDEN
10
1.463970
20
0.707732
30
0.0
11
1.460073
21
0.704625
31
0.0
0
LINE
8
TOP_HID
6
HIDDEN
10
1.460073
20
0.704625
30
0.0
11
1.455886
21
0.701920
31
0.0
0
LINE
8
TOP_HID
6
HIDDEN
10
1.455886
20
0.701920
30
0.0
11
1.451450
21
0.699646
31
0.0
0
LINE
8
TOP_HID
6
HIDDEN
10
1.451450
20
0.699646
30
0.0
11
1.446810
21
0.697825
31
0.0
0
LINE
8
TOP_HID
6
HIDDEN
10
1.446810
20
0.697825
30
0.0
11
1.442012
21
0.696475
31
0.0
0
LINE
8
TOP_HID
6
HIDDEN
10
1.442012
20
0.696475
30
0.0
11
1.437103
21
0.695609
31
0.0
0
LINE
8
TOP_HID
6
HIDDEN
10
1.437103
20
0.695609
30
0.0
11
1.432132
21
0.695237
31
0.0
0
LINE
8
TOP_HID
6
HIDDEN
10
1.432132
20
0.695237
30
0.0
11
1.427149
21
0.695361
31
0.0
0
LINE
8
TOP_HID
6
HIDDEN
10
1.427149
20
0.695361
30
0.0
11
1.422203
21
0.695981
31
0.0
0
LINE
8
TOP_HID
6
HIDDEN
10
1.422203
20
0.695981
30
0.0
11
1.417344
21
0.697090
31
0.0
0
LINE
8
TOP_HID
6
HIDDEN
10
1.417344
20
0.697090
30
0.0
11
1.412619
21
0.698678
31
0.0
0
LINE
8
TOP_HID
6
HIDDEN
10
1.412619
20
0.698678
30
0.0
11
1.408075
21
0.700728
31
0.0
0
LINE
8
TOP_HID
6
HIDDEN
10
1.408075
20
0.700728
30
0.0
11
1.403759
21
0.703220
31
0.0
0
LINE
8
TOP_HID
6
HIDDEN
10
1.403759
20
0.703220
30
0.0
11
1.399711
21
0.706130
31
0.0
0
LINE
8
TOP_HID
6
HIDDEN
10
1.399711
20
0.706130
30
0.0
11
1.395974
21
0.709428
31
0.0
0
LINE
8
TOP_HID
6
HIDDEN
10
1.395974
20
0.709428
30
0.0
11
1.392584
21
0.713082
31
0.0
0
LINE
8
TOP_HID
6
HIDDEN
10
1.392584
20
0.713082
30
0.0
11
1.389574
21
0.717055
31
0.0
0
LINE
8
TOP_HID
6
HIDDEN
10
1.389574
20
0.717055
30
0.0
11
1.386975
21
0.721309
31
0.0
0
LINE
8
TOP_HID
6
HIDDEN
10
1.386975
20
0.721309
30
0.0
11
1.384812
21
0.725800
31
0.0
0
LINE
8
TOP_HID
6
HIDDEN
10
1.384812
20
0.725800
30
0.0
11
1.383107
21
0.730484
31
0.0
0
LINE
8
TOP_HID
6
HIDDEN
10
1.383107
20
0.730484
30
0.0
11
1.381877
21
0.735314
31
0.0
0
LINE
8
TOP_HID
6
HIDDEN
10
1.381877
20
0.735314
30
0.0
11
1.381134
21
0.740243
31
0.0
0
LINE
8
TOP_HID
6
HIDDEN
10
1.381134
20
0.740243
30
0.0
11
1.380886
21
0.745221
31
0.0
0
ENDSEC
0
EOF
