0
SECTION
2
HEADER
9
$ACADVER
1
AC1009
0
ENDSEC
0
SECTION
2
TABLES
0
TABLE
2
LTYPE
70
3
0
LTYPE
2
CONTINUOUS
70
0
3
Solid line
72
65
73
0
40
0.0
0
LTYPE
2
HIDDEN
70
0
3
__ __ __ __ __
72
65
73
2
40
0.075000
49
0.050025
49
-0.024975
0
LTYPE
2
CENTER
70
0
3
___ _ ___ _ ___
72
65
73
4
40
0.174975
49
0.099975
49
-0.024975
49
0.024975
49
-0.024975
0
ENDTAB
0
TABLE
2
LAYER
70
4
0
LAYER
2
0
70
0
62
7
6
CONTINUOUS
0
LAYER
2
FRONT
70
0
62
7
6
CONTINUOUS
0
LAYER
2
LEFT
70
0
62
7
6
CONTINUOUS
0
LAYER
2
TOP
70
0
62
7
6
CONTINUOUS
0
ENDTAB
0
ENDSEC
0
SECTION
2
ENTITIES
0
LINE
8
FRONT
10
0.000000
20
1.022222
30
0.0
11
0.000000
21
1.438889
31
0.0
0
LINE
8
FRONT
10
1.500000
20
1.022222
30
0.0
11
1.500000
21
1.438889
31
0.0
0
LINE
8
FRONT
10
1.500000
20
1.022222
30
0.0
11
1.500000
21
1.438889
31
0.0
0
LINE
8
FRONT
10
1.500000
20
1.022222
30
0.0
11
1.444444
21
1.022222
31
0.0
0
LINE
8
FRONT
10
1.500000
20
1.438889
30
0.0
11
1.444444
21
1.438889
31
0.0
0
LINE
8
FRONT
10
1.444444
20
1.438889
30
0.0
11
0.055556
21
1.438889
31
0.0
0
LINE
8
FRONT
10
1.444444
20
1.022222
30
0.0
11
0.055556
21
1.022222
31
0.0
0
LINE
8
FRONT
10
0.055556
20
1.022222
30
0.0
11
0.000000
21
1.022222
31
0.0
0
LINE
8
FRONT
10
0.000000
20
1.022222
30
0.0
11
0.000000
21
1.438889
31
0.0
0
LINE
8
FRONT
10
0.055556
20
1.438889
30
0.0
11
0.000000
21
1.438889
31
0.0
0
LINE
8
FRONT
10
1.444444
20
1.022222
30
0.0
11
1.444444
21
1.438889
31
0.0
0
LINE
8
FRONT
10
0.055556
20
1.022222
30
0.0
11
0.055556
21
1.438889
31
0.0
0
LINE
8
LEFT
10
2.466667
20
1.022222
30
0.0
11
2.522222
21
1.022222
31
0.0
0
LINE
8
LEFT
10
2.522222
20
1.022222
30
0.0
11
2.522222
21
1.438889
31
0.0
0
LINE
8
LEFT
10
2.466667
20
1.438889
30
0.0
11
2.522222
21
1.438889
31
0.0
0
LINE
8
LEFT
10
1.800000
20
1.022222
30
0.0
11
1.800000
21
1.438889
31
0.0
0
LINE
8
LEFT
10
1.800000
20
1.022222
30
0.0
11
1.855556
21
1.022222
31
0.0
0
LINE
8
LEFT
10
1.800000
20
1.438889
30
0.0
11
1.855556
21
1.438889
31
0.0
0
LINE
8
LEFT
10
1.855556
20
1.438889
30
0.0
11
2.466667
21
1.438889
31
0.0
0
LINE
8
LEFT
10
1.855556
20
1.022222
30
0.0
11
2.466667
21
1.022222
31
0.0
0
LINE
8
LEFT
10
2.466667
20
1.022222
30
0.0
11
2.466667
21
1.438889
31
0.0
0
LINE
8
LEFT
10
1.855556
20
1.022222
30
0.0
11
1.855556
21
1.438889
31
0.0
0
LINE
8
TOP
10
0.000000
20
0.055556
30
0.0
11
0.000017
21
0.054171
31
0.0
0
LINE
8
TOP
10
0.000017
20
0.054171
30
0.0
11
0.000069
21
0.052786
31
0.0
0
LINE
8
TOP
10
0.000069
20
0.052786
30
0.0
11
0.000155
21
0.051404
31
0.0
0
LINE
8
TOP
10
0.000155
20
0.051404
30
0.0
11
0.000276
21
0.050024
31
0.0
0
LINE
8
TOP
10
0.000276
20
0.050024
30
0.0
11
0.000431
21
0.048648
31
0.0
0
LINE
8
TOP
10
0.000431
20
0.048648
30
0.0
11
0.000621
21
0.047275
31
0.0
0
LINE
8
TOP
10
0.000621
20
0.047275
30
0.0
11
0.000844
21
0.045908
31
0.0
0
LINE
8
TOP
10
0.000844
20
0.045908
30
0.0
11
0.001102
21
0.044547
31
0.0
0
LINE
8
TOP
10
0.001102
20
0.044547
30
0.0
11
0.001393
21
0.043193
31
0.0
0
LINE
8
TOP
10
0.001393
20
0.043193
30
0.0
11
0.001718
21
0.041847
31
0.0
0
LINE
8
TOP
10
0.001718
20
0.041847
30
0.0
11
0.002076
21
0.040509
31
0.0
0
LINE
8
TOP
10
0.002076
20
0.040509
30
0.0
11
0.002468
21
0.039180
31
0.0
0
LINE
8
TOP
10
0.002468
20
0.039180
30
0.0
11
0.002893
21
0.037862
31
0.0
0
LINE
8
TOP
10
0.002893
20
0.037862
30
0.0
11
0.003350
21
0.036554
31
0.0
0
LINE
8
TOP
10
0.003350
20
0.036554
30
0.0
11
0.003840
21
0.035259
31
0.0
0
LINE
8
TOP
10
0.003840
20
0.035259
30
0.0
11
0.004362
21
0.033976
31
0.0
0
LINE
8
TOP
10
0.004362
20
0.033976
30
0.0
11
0.004916
21
0.032706
31
0.0
0
LINE
8
TOP
10
0.004916
20
0.032706
30
0.0
11
0.005502
21
0.031451
31
0.0
0
LINE
8
TOP
10
0.005502
20
0.031451
30
0.0
11
0.006118
21
0.030211
31
0.0
0
LINE
8
TOP
10
0.006118
20
0.030211
30
0.0
11
0.006765
21
0.028986
31
0.0
0
LINE
8
TOP
10
0.006765
20
0.028986
30
0.0
11
0.007443
21
0.027778
31
0.0
0
LINE
8
TOP
10
0.007443
20
0.027778
30
0.0
11
0.008151
21
0.026587
31
0.0
0
LINE
8
TOP
10
0.008151
20
0.026587
30
0.0
11
0.008887
21
0.025414
31
0.0
0
LINE
8
TOP
10
0.008887
20
0.025414
30
0.0
11
0.009653
21
0.024260
31
0.0
0
LINE
8
TOP
10
0.009653
20
0.024260
30
0.0
11
0.010448
21
0.023125
31
0.0
0
LINE
8
TOP
10
0.010448
20
0.023125
30
0.0
11
0.011270
21
0.022011
31
0.0
0
LINE
8
TOP
10
0.011270
20
0.022011
30
0.0
11
0.012120
21
0.020917
31
0.0
0
LINE
8
TOP
10
0.012120
20
0.020917
30
0.0
11
0.012998
21
0.019845
31
0.0
0
LINE
8
TOP
10
0.012998
20
0.019845
30
0.0
11
0.013901
21
0.018795
31
0.0
0
LINE
8
TOP
10
0.013901
20
0.018795
30
0.0
11
0.014830
21
0.017768
31
0.0
0
LINE
8
TOP
10
0.014830
20
0.017768
30
0.0
11
0.015785
21
0.016765
31
0.0
0
LINE
8
TOP
10
0.015785
20
0.016765
30
0.0
11
0.016765
21
0.015785
31
0.0
0
LINE
8
TOP
10
0.016765
20
0.015785
30
0.0
11
0.017768
21
0.014830
31
0.0
0
LINE
8
TOP
10
0.017768
20
0.014830
30
0.0
11
0.018795
21
0.013901
31
0.0
0
LINE
8
TOP
10
0.018795
20
0.013901
30
0.0
11
0.019845
21
0.012998
31
0.0
0
LINE
8
TOP
10
0.019845
20
0.012998
30
0.0
11
0.020917
21
0.012120
31
0.0
0
LINE
8
TOP
10
0.020917
20
0.012120
30
0.0
11
0.022011
21
0.011270
31
0.0
0
LINE
8
TOP
10
0.022011
20
0.011270
30
0.0
11
0.023125
21
0.010448
31
0.0
0
LINE
8
TOP
10
0.023125
20
0.010448
30
0.0
11
0.024260
21
0.009653
31
0.0
0
LINE
8
TOP
10
0.024260
20
0.009653
30
0.0
11
0.025414
21
0.008887
31
0.0
0
LINE
8
TOP
10
0.025414
20
0.008887
30
0.0
11
0.026587
21
0.008151
31
0.0
0
LINE
8
TOP
10
0.026587
20
0.008151
30
0.0
11
0.027778
21
0.007443
31
0.0
0
LINE
8
TOP
10
0.027778
20
0.007443
30
0.0
11
0.028986
21
0.006765
31
0.0
0
LINE
8
TOP
10
0.028986
20
0.006765
30
0.0
11
0.030211
21
0.006118
31
0.0
0
LINE
8
TOP
10
0.030211
20
0.006118
30
0.0
11
0.031451
21
0.005502
31
0.0
0
LINE
8
TOP
10
0.031451
20
0.005502
30
0.0
11
0.032706
21
0.004916
31
0.0
0
LINE
8
TOP
10
0.032706
20
0.004916
30
0.0
11
0.033976
21
0.004362
31
0.0
0
LINE
8
TOP
10
0.033976
20
0.004362
30
0.0
11
0.035259
21
0.003840
31
0.0
0
LINE
8
TOP
10
0.035259
20
0.003840
30
0.0
11
0.036554
21
0.003350
31
0.0
0
LINE
8
TOP
10
0.036554
20
0.003350
30
0.0
11
0.037862
21
0.002893
31
0.0
0
LINE
8
TOP
10
0.037862
20
0.002893
30
0.0
11
0.039180
21
0.002468
31
0.0
0
LINE
8
TOP
10
0.039180
20
0.002468
30
0.0
11
0.040509
21
0.002076
31
0.0
0
LINE
8
TOP
10
0.040509
20
0.002076
30
0.0
11
0.041847
21
0.001718
31
0.0
0
LINE
8
TOP
10
0.041847
20
0.001718
30
0.0
11
0.043193
21
0.001393
31
0.0
0
LINE
8
TOP
10
0.043193
20
0.001393
30
0.0
11
0.044547
21
0.001102
31
0.0
0
LINE
8
TOP
10
0.044547
20
0.001102
30
0.0
11
0.045908
21
0.000844
31
0.0
0
LINE
8
TOP
10
0.045908
20
0.000844
30
0.0
11
0.047275
21
0.000621
31
0.0
0
LINE
8
TOP
10
0.047275
20
0.000621
30
0.0
11
0.048648
21
0.000431
31
0.0
0
LINE
8
TOP
10
0.048648
20
0.000431
30
0.0
11
0.050024
21
0.000276
31
0.0
0
LINE
8
TOP
10
0.050024
20
0.000276
30
0.0
11
0.051404
21
0.000155
31
0.0
0
LINE
8
TOP
10
0.051404
20
0.000155
30
0.0
11
0.052786
21
0.000069
31
0.0
0
LINE
8
TOP
10
0.052786
20
0.000069
30
0.0
11
0.054171
21
0.000017
31
0.0
0
LINE
8
TOP
10
0.054171
20
0.000017
30
0.0
11
0.055556
21
0.000000
31
0.0
0
LINE
8
TOP
10
0.055556
20
0.000000
30
0.0
11
1.444444
21
0.000000
31
0.0
0
LINE
8
TOP
10
1.444444
20
0.000000
30
0.0
11
1.445829
21
0.000017
31
0.0
0
LINE
8
TOP
10
1.445829
20
0.000017
30
0.0
11
1.447214
21
0.000069
31
0.0
0
LINE
8
TOP
10
1.447214
20
0.000069
30
0.0
11
1.448596
21
0.000155
31
0.0
0
LINE
8
TOP
10
1.448596
20
0.000155
30
0.0
11
1.449976
21
0.000276
31
0.0
0
LINE
8
TOP
10
1.449976
20
0.000276
30
0.0
11
1.451352
21
0.000431
31
0.0
0
LINE
8
TOP
10
1.451352
20
0.000431
30
0.0
11
1.452725
21
0.000621
31
0.0
0
LINE
8
TOP
10
1.452725
20
0.000621
30
0.0
11
1.454092
21
0.000844
31
0.0
0
LINE
8
TOP
10
1.454092
20
0.000844
30
0.0
11
1.455453
21
0.001102
31
0.0
0
LINE
8
TOP
10
1.455453
20
0.001102
30
0.0
11
1.456807
21
0.001393
31
0.0
0
LINE
8
TOP
10
1.456807
20
0.001393
30
0.0
11
1.458153
21
0.001718
31
0.0
0
LINE
8
TOP
10
1.458153
20
0.001718
30
0.0
11
1.459491
21
0.002076
31
0.0
0
LINE
8
TOP
10
1.459491
20
0.002076
30
0.0
11
1.460820
21
0.002468
31
0.0
0
LINE
8
TOP
10
1.460820
20
0.002468
30
0.0
11
1.462138
21
0.002893
31
0.0
0
LINE
8
TOP
10
1.462138
20
0.002893
30
0.0
11
1.463446
21
0.003350
31
0.0
0
LINE
8
TOP
10
1.463446
20
0.003350
30
0.0
11
1.464741
21
0.003840
31
0.0
0
LINE
8
TOP
10
1.464741
20
0.003840
30
0.0
11
1.466024
21
0.004362
31
0.0
0
LINE
8
TOP
10
1.466024
20
0.004362
30
0.0
11
1.467294
21
0.004916
31
0.0
0
LINE
8
TOP
10
1.467294
20
0.004916
30
0.0
11
1.468549
21
0.005502
31
0.0
0
LINE
8
TOP
10
1.468549
20
0.005502
30
0.0
11
1.469789
21
0.006118
31
0.0
0
LINE
8
TOP
10
1.469789
20
0.006118
30
0.0
11
1.471014
21
0.006765
31
0.0
0
LINE
8
TOP
10
1.471014
20
0.006765
30
0.0
11
1.472222
21
0.007443
31
0.0
0
LINE
8
TOP
10
1.472222
20
0.007443
30
0.0
11
1.473413
21
0.008151
31
0.0
0
LINE
8
TOP
10
1.473413
20
0.008151
30
0.0
11
1.474586
21
0.008887
31
0.0
0
LINE
8
TOP
10
1.474586
20
0.008887
30
0.0
11
1.475740
21
0.009653
31
0.0
0
LINE
8
TOP
10
1.475740
20
0.009653
30
0.0
11
1.476875
21
0.010448
31
0.0
0
LINE
8
TOP
10
1.476875
20
0.010448
30
0.0
11
1.477989
21
0.011270
31
0.0
0
LINE
8
TOP
10
1.477989
20
0.011270
30
0.0
11
1.479083
21
0.012120
31
0.0
0
LINE
8
TOP
10
1.479083
20
0.012120
30
0.0
11
1.480155
21
0.012998
31
0.0
0
LINE
8
TOP
10
1.480155
20
0.012998
30
0.0
11
1.481205
21
0.013901
31
0.0
0
LINE
8
TOP
10
1.481205
20
0.013901
30
0.0
11
1.482232
21
0.014830
31
0.0
0
LINE
8
TOP
10
1.482232
20
0.014830
30
0.0
11
1.483235
21
0.015785
31
0.0
0
LINE
8
TOP
10
1.483235
20
0.015785
30
0.0
11
1.484215
21
0.016765
31
0.0
0
LINE
8
TOP
10
1.484215
20
0.016765
30
0.0
11
1.485170
21
0.017768
31
0.0
0
LINE
8
TOP
10
1.485170
20
0.017768
30
0.0
11
1.486099
21
0.018795
31
0.0
0
LINE
8
TOP
10
1.486099
20
0.018795
30
0.0
11
1.487002
21
0.019845
31
0.0
0
LINE
8
TOP
10
1.487002
20
0.019845
30
0.0
11
1.487880
21
0.020917
31
0.0
0
LINE
8
TOP
10
1.487880
20
0.020917
30
0.0
11
1.488730
21
0.022011
31
0.0
0
LINE
8
TOP
10
1.488730
20
0.022011
30
0.0
11
1.489552
21
0.023125
31
0.0
0
LINE
8
TOP
10
1.489552
20
0.023125
30
0.0
11
1.490347
21
0.024260
31
0.0
0
LINE
8
TOP
10
1.490347
20
0.024260
30
0.0
11
1.491113
21
0.025414
31
0.0
0
LINE
8
TOP
10
1.491113
20
0.025414
30
0.0
11
1.491849
21
0.026587
31
0.0
0
LINE
8
TOP
10
1.491849
20
0.026587
30
0.0
11
1.492557
21
0.027778
31
0.0
0
LINE
8
TOP
10
1.492557
20
0.027778
30
0.0
11
1.493235
21
0.028986
31
0.0
0
LINE
8
TOP
10
1.493235
20
0.028986
30
0.0
11
1.493882
21
0.030211
31
0.0
0
LINE
8
TOP
10
1.493882
20
0.030211
30
0.0
11
1.494498
21
0.031451
31
0.0
0
LINE
8
TOP
10
1.494498
20
0.031451
30
0.0
11
1.495084
21
0.032706
31
0.0
0
LINE
8
TOP
10
1.495084
20
0.032706
30
0.0
11
1.495638
21
0.033976
31
0.0
0
LINE
8
TOP
10
1.495638
20
0.033976
30
0.0
11
1.496160
21
0.035259
31
0.0
0
LINE
8
TOP
10
1.496160
20
0.035259
30
0.0
11
1.496650
21
0.036554
31
0.0
0
LINE
8
TOP
10
1.496650
20
0.036554
30
0.0
11
1.497107
21
0.037862
31
0.0
0
LINE
8
TOP
10
1.497107
20
0.037862
30
0.0
11
1.497532
21
0.039180
31
0.0
0
LINE
8
TOP
10
1.497532
20
0.039180
30
0.0
11
1.497924
21
0.040509
31
0.0
0
LINE
8
TOP
10
1.497924
20
0.040509
30
0.0
11
1.498282
21
0.041847
31
0.0
0
LINE
8
TOP
10
1.498282
20
0.041847
30
0.0
11
1.498607
21
0.043193
31
0.0
0
LINE
8
TOP
10
1.498607
20
0.043193
30
0.0
11
1.498898
21
0.044547
31
0.0
0
LINE
8
TOP
10
1.498898
20
0.044547
30
0.0
11
1.499156
21
0.045908
31
0.0
0
LINE
8
TOP
10
1.499156
20
0.045908
30
0.0
11
1.499379
21
0.047275
31
0.0
0
LINE
8
TOP
10
1.499379
20
0.047275
30
0.0
11
1.499569
21
0.048648
31
0.0
0
LINE
8
TOP
10
1.499569
20
0.048648
30
0.0
11
1.499724
21
0.050024
31
0.0
0
LINE
8
TOP
10
1.499724
20
0.050024
30
0.0
11
1.499845
21
0.051404
31
0.0
0
LINE
8
TOP
10
1.499845
20
0.051404
30
0.0
11
1.499931
21
0.052786
31
0.0
0
LINE
8
TOP
10
1.499931
20
0.052786
30
0.0
11
1.499983
21
0.054171
31
0.0
0
LINE
8
TOP
10
1.499983
20
0.054171
30
0.0
11
1.500000
21
0.055556
31
0.0
0
LINE
8
TOP
10
1.500000
20
0.055556
30
0.0
11
1.500000
21
0.666667
31
0.0
0
LINE
8
TOP
10
1.500000
20
0.666667
30
0.0
11
1.499983
21
0.668052
31
0.0
0
LINE
8
TOP
10
1.499983
20
0.668052
30
0.0
11
1.499931
21
0.669436
31
0.0
0
LINE
8
TOP
10
1.499931
20
0.669436
30
0.0
11
1.499845
21
0.670818
31
0.0
0
LINE
8
TOP
10
1.499845
20
0.670818
30
0.0
11
1.499724
21
0.672198
31
0.0
0
LINE
8
TOP
10
1.499724
20
0.672198
30
0.0
11
1.499569
21
0.673575
31
0.0
0
LINE
8
TOP
10
1.499569
20
0.673575
30
0.0
11
1.499379
21
0.674947
31
0.0
0
LINE
8
TOP
10
1.499379
20
0.674947
30
0.0
11
1.499156
21
0.676314
31
0.0
0
LINE
8
TOP
10
1.499156
20
0.676314
30
0.0
11
1.498898
21
0.677675
31
0.0
0
LINE
8
TOP
10
1.498898
20
0.677675
30
0.0
11
1.498607
21
0.679029
31
0.0
0
LINE
8
TOP
10
1.498607
20
0.679029
30
0.0
11
1.498282
21
0.680375
31
0.0
0
LINE
8
TOP
10
1.498282
20
0.680375
30
0.0
11
1.497924
21
0.681713
31
0.0
0
LINE
8
TOP
10
1.497924
20
0.681713
30
0.0
11
1.497532
21
0.683042
31
0.0
0
LINE
8
TOP
10
1.497532
20
0.683042
30
0.0
11
1.497107
21
0.684360
31
0.0
0
LINE
8
TOP
10
1.497107
20
0.684360
30
0.0
11
1.496650
21
0.685668
31
0.0
0
LINE
8
TOP
10
1.496650
20
0.685668
30
0.0
11
1.496160
21
0.686963
31
0.0
0
LINE
8
TOP
10
1.496160
20
0.686963
30
0.0
11
1.495638
21
0.688246
31
0.0
0
LINE
8
TOP
10
1.495638
20
0.688246
30
0.0
11
1.495084
21
0.689516
31
0.0
0
LINE
8
TOP
10
1.495084
20
0.689516
30
0.0
11
1.494498
21
0.690771
31
0.0
0
LINE
8
TOP
10
1.494498
20
0.690771
30
0.0
11
1.493882
21
0.692012
31
0.0
0
LINE
8
TOP
10
1.493882
20
0.692012
30
0.0
11
1.493235
21
0.693236
31
0.0
0
LINE
8
TOP
10
1.493235
20
0.693236
30
0.0
11
1.492557
21
0.694444
31
0.0
0
LINE
8
TOP
10
1.492557
20
0.694444
30
0.0
11
1.491849
21
0.695635
31
0.0
0
LINE
8
TOP
10
1.491849
20
0.695635
30
0.0
11
1.491113
21
0.696808
31
0.0
0
LINE
8
TOP
10
1.491113
20
0.696808
30
0.0
11
1.490347
21
0.697962
31
0.0
0
LINE
8
TOP
10
1.490347
20
0.697962
30
0.0
11
1.489552
21
0.699097
31
0.0
0
LINE
8
TOP
10
1.489552
20
0.699097
30
0.0
11
1.488730
21
0.700211
31
0.0
0
LINE
8
TOP
10
1.488730
20
0.700211
30
0.0
11
1.487880
21
0.701305
31
0.0
0
LINE
8
TOP
10
1.487880
20
0.701305
30
0.0
11
1.487002
21
0.702377
31
0.0
0
LINE
8
TOP
10
1.487002
20
0.702377
30
0.0
11
1.486099
21
0.703427
31
0.0
0
LINE
8
TOP
10
1.486099
20
0.703427
30
0.0
11
1.485170
21
0.704454
31
0.0
0
LINE
8
TOP
10
1.485170
20
0.704454
30
0.0
11
1.484215
21
0.705458
31
0.0
0
LINE
8
TOP
10
1.484215
20
0.705458
30
0.0
11
1.483235
21
0.706437
31
0.0
0
LINE
8
TOP
10
1.483235
20
0.706437
30
0.0
11
1.482232
21
0.707392
31
0.0
0
LINE
8
TOP
10
1.482232
20
0.707392
30
0.0
11
1.481205
21
0.708321
31
0.0
0
LINE
8
TOP
10
1.481205
20
0.708321
30
0.0
11
1.480155
21
0.709225
31
0.0
0
LINE
8
TOP
10
1.480155
20
0.709225
30
0.0
11
1.479083
21
0.710102
31
0.0
0
LINE
8
TOP
10
1.479083
20
0.710102
30
0.0
11
1.477989
21
0.710952
31
0.0
0
LINE
8
TOP
10
1.477989
20
0.710952
30
0.0
11
1.476875
21
0.711774
31
0.0
0
LINE
8
TOP
10
1.476875
20
0.711774
30
0.0
11
1.475740
21
0.712569
31
0.0
0
LINE
8
TOP
10
1.475740
20
0.712569
30
0.0
11
1.474586
21
0.713335
31
0.0
0
LINE
8
TOP
10
1.474586
20
0.713335
30
0.0
11
1.473413
21
0.714072
31
0.0
0
LINE
8
TOP
10
1.473413
20
0.714072
30
0.0
11
1.472222
21
0.714779
31
0.0
0
LINE
8
TOP
10
1.472222
20
0.714779
30
0.0
11
1.471014
21
0.715457
31
0.0
0
LINE
8
TOP
10
1.471014
20
0.715457
30
0.0
11
1.469789
21
0.716104
31
0.0
0
LINE
8
TOP
10
1.469789
20
0.716104
30
0.0
11
1.468549
21
0.716720
31
0.0
0
LINE
8
TOP
10
1.468549
20
0.716720
30
0.0
11
1.467294
21
0.717306
31
0.0
0
LINE
8
TOP
10
1.467294
20
0.717306
30
0.0
11
1.466024
21
0.717860
31
0.0
0
LINE
8
TOP
10
1.466024
20
0.717860
30
0.0
11
1.464741
21
0.718382
31
0.0
0
LINE
8
TOP
10
1.464741
20
0.718382
30
0.0
11
1.463446
21
0.718872
31
0.0
0
LINE
8
TOP
10
1.463446
20
0.718872
30
0.0
11
1.462138
21
0.719329
31
0.0
0
LINE
8
TOP
10
1.462138
20
0.719329
30
0.0
11
1.460820
21
0.719754
31
0.0
0
LINE
8
TOP
10
1.460820
20
0.719754
30
0.0
11
1.459491
21
0.720146
31
0.0
0
LINE
8
TOP
10
1.459491
20
0.720146
30
0.0
11
1.458153
21
0.720504
31
0.0
0
LINE
8
TOP
10
1.458153
20
0.720504
30
0.0
11
1.456807
21
0.720829
31
0.0
0
LINE
8
TOP
10
1.456807
20
0.720829
30
0.0
11
1.455453
21
0.721121
31
0.0
0
LINE
8
TOP
10
1.455453
20
0.721121
30
0.0
11
1.454092
21
0.721378
31
0.0
0
LINE
8
TOP
10
1.454092
20
0.721378
30
0.0
11
1.452725
21
0.721602
31
0.0
0
LINE
8
TOP
10
1.452725
20
0.721602
30
0.0
11
1.451352
21
0.721791
31
0.0
0
LINE
8
TOP
10
1.451352
20
0.721791
30
0.0
11
1.449976
21
0.721946
31
0.0
0
LINE
8
TOP
10
1.449976
20
0.721946
30
0.0
11
1.448596
21
0.722067
31
0.0
0
LINE
8
TOP
10
1.448596
20
0.722067
30
0.0
11
1.447214
21
0.722153
31
0.0
0
LINE
8
TOP
10
1.447214
20
0.722153
30
0.0
11
1.445829
21
0.722205
31
0.0
0
LINE
8
TOP
10
1.445829
20
0.722205
30
0.0
11
1.444444
21
0.722222
31
0.0
0
LINE
8
TOP
10
1.444444
20
0.722222
30
0.0
11
0.055556
21
0.722222
31
0.0
0
LINE
8
TOP
10
0.055556
20
0.722222
30
0.0
11
0.054171
21
0.722205
31
0.0
0
LINE
8
TOP
10
0.054171
20
0.722205
30
0.0
11
0.052786
21
0.722153
31
0.0
0
LINE
8
TOP
10
0.052786
20
0.722153
30
0.0
11
0.051404
21
0.722067
31
0.0
0
LINE
8
TOP
10
0.051404
20
0.722067
30
0.0
11
0.050024
21
0.721946
31
0.0
0
LINE
8
TOP
10
0.050024
20
0.721946
30
0.0
11
0.048648
21
0.721791
31
0.0
0
LINE
8
TOP
10
0.048648
20
0.721791
30
0.0
11
0.047275
21
0.721602
31
0.0
0
LINE
8
TOP
10
0.047275
20
0.721602
30
0.0
11
0.045908
21
0.721378
31
0.0
0
LINE
8
TOP
10
0.045908
20
0.721378
30
0.0
11
0.044547
21
0.721121
31
0.0
0
LINE
8
TOP
10
0.044547
20
0.721121
30
0.0
11
0.043193
21
0.720829
31
0.0
0
LINE
8
TOP
10
0.043193
20
0.720829
30
0.0
11
0.041847
21
0.720504
31
0.0
0
LINE
8
TOP
10
0.041847
20
0.720504
30
0.0
11
0.040509
21
0.720146
31
0.0
0
LINE
8
TOP
10
0.040509
20
0.720146
30
0.0
11
0.039180
21
0.719754
31
0.0
0
LINE
8
TOP
10
0.039180
20
0.719754
30
0.0
11
0.037862
21
0.719329
31
0.0
0
LINE
8
TOP
10
0.037862
20
0.719329
30
0.0
11
0.036554
21
0.718872
31
0.0
0
LINE
8
TOP
10
0.036554
20
0.718872
30
0.0
11
0.035259
21
0.718382
31
0.0
0
LINE
8
TOP
10
0.035259
20
0.718382
30
0.0
11
0.033976
21
0.717860
31
0.0
0
LINE
8
TOP
10
0.033976
20
0.717860
30
0.0
11
0.032706
21
0.717306
31
0.0
0
LINE
8
TOP
10
0.032706
20
0.717306
30
0.0
11
0.031451
21
0.716720
31
0.0
0
LINE
8
TOP
10
0.031451
20
0.716720
30
0.0
11
0.030211
21
0.716104
31
0.0
0
LINE
8
TOP
10
0.030211
20
0.716104
30
0.0
11
0.028986
21
0.715457
31
0.0
0
LINE
8
TOP
10
0.028986
20
0.715457
30
0.0
11
0.027778
21
0.714779
31
0.0
0
LINE
8
TOP
10
0.027778
20
0.714779
30
0.0
11
0.026587
21
0.714072
31
0.0
0
LINE
8
TOP
10
0.026587
20
0.714072
30
0.0
11
0.025414
21
0.713335
31
0.0
0
LINE
8
TOP
10
0.025414
20
0.713335
30
0.0
11
0.024260
21
0.712569
31
0.0
0
LINE
8
TOP
10
0.024260
20
0.712569
30
0.0
11
0.023125
21
0.711774
31
0.0
0
LINE
8
TOP
10
0.023125
20
0.711774
30
0.0
11
0.022011
21
0.710952
31
0.0
0
LINE
8
TOP
10
0.022011
20
0.710952
30
0.0
11
0.020917
21
0.710102
31
0.0
0
LINE
8
TOP
10
0.020917
20
0.710102
30
0.0
11
0.019845
21
0.709225
31
0.0
0
LINE
8
TOP
10
0.019845
20
0.709225
30
0.0
11
0.018795
21
0.708321
31
0.0
0
LINE
8
TOP
10
0.018795
20
0.708321
30
0.0
11
0.017768
21
0.707392
31
0.0
0
LINE
8
TOP
10
0.017768
20
0.707392
30
0.0
11
0.016765
21
0.706437
31
0.0
0
LINE
8
TOP
10
0.016765
20
0.706437
30
0.0
11
0.015785
21
0.705458
31
0.0
0
LINE
8
TOP
10
0.015785
20
0.705458
30
0.0
11
0.014830
21
0.704454
31
0.0
0
LINE
8
TOP
10
0.014830
20
0.704454
30
0.0
11
0.013901
21
0.703427
31
0.0
0
LINE
8
TOP
10
0.013901
20
0.703427
30
0.0
11
0.012998
21
0.702377
31
0.0
0
LINE
8
TOP
10
0.012998
20
0.702377
30
0.0
11
0.012120
21
0.701305
31
0.0
0
LINE
8
TOP
10
0.012120
20
0.701305
30
0.0
11
0.011270
21
0.700211
31
0.0
0
LINE
8
TOP
10
0.011270
20
0.700211
30
0.0
11
0.010448
21
0.699097
31
0.0
0
LINE
8
TOP
10
0.010448
20
0.699097
30
0.0
11
0.009653
21
0.697962
31
0.0
0
LINE
8
TOP
10
0.009653
20
0.697962
30
0.0
11
0.008887
21
0.696808
31
0.0
0
LINE
8
TOP
10
0.008887
20
0.696808
30
0.0
11
0.008151
21
0.695635
31
0.0
0
LINE
8
TOP
10
0.008151
20
0.695635
30
0.0
11
0.007443
21
0.694444
31
0.0
0
LINE
8
TOP
10
0.007443
20
0.694444
30
0.0
11
0.006765
21
0.693236
31
0.0
0
LINE
8
TOP
10
0.006765
20
0.693236
30
0.0
11
0.006118
21
0.692012
31
0.0
0
LINE
8
TOP
10
0.006118
20
0.692012
30
0.0
11
0.005502
21
0.690771
31
0.0
0
LINE
8
TOP
10
0.005502
20
0.690771
30
0.0
11
0.004916
21
0.689516
31
0.0
0
LINE
8
TOP
10
0.004916
20
0.689516
30
0.0
11
0.004362
21
0.688246
31
0.0
0
LINE
8
TOP
10
0.004362
20
0.688246
30
0.0
11
0.003840
21
0.686963
31
0.0
0
LINE
8
TOP
10
0.003840
20
0.686963
30
0.0
11
0.003350
21
0.685668
31
0.0
0
LINE
8
TOP
10
0.003350
20
0.685668
30
0.0
11
0.002893
21
0.684360
31
0.0
0
LINE
8
TOP
10
0.002893
20
0.684360
30
0.0
11
0.002468
21
0.683042
31
0.0
0
LINE
8
TOP
10
0.002468
20
0.683042
30
0.0
11
0.002076
21
0.681713
31
0.0
0
LINE
8
TOP
10
0.002076
20
0.681713
30
0.0
11
0.001718
21
0.680375
31
0.0
0
LINE
8
TOP
10
0.001718
20
0.680375
30
0.0
11
0.001393
21
0.679029
31
0.0
0
LINE
8
TOP
10
0.001393
20
0.679029
30
0.0
11
0.001102
21
0.677675
31
0.0
0
LINE
8
TOP
10
0.001102
20
0.677675
30
0.0
11
0.000844
21
0.676314
31
0.0
0
LINE
8
TOP
10
0.000844
20
0.676314
30
0.0
11
0.000621
21
0.674947
31
0.0
0
LINE
8
TOP
10
0.000621
20
0.674947
30
0.0
11
0.000431
21
0.673575
31
0.0
0
LINE
8
TOP
10
0.000431
20
0.673575
30
0.0
11
0.000276
21
0.672198
31
0.0
0
LINE
8
TOP
10
0.000276
20
0.672198
30
0.0
11
0.000155
21
0.670818
31
0.0
0
LINE
8
TOP
10
0.000155
20
0.670818
30
0.0
11
0.000069
21
0.669436
31
0.0
0
LINE
8
TOP
10
0.000069
20
0.669436
30
0.0
11
0.000017
21
0.668052
31
0.0
0
LINE
8
TOP
10
0.000017
20
0.668052
30
0.0
11
0.000000
21
0.666667
31
0.0
0
LINE
8
TOP
10
0.000000
20
0.666667
30
0.0
11
0.000000
21
0.055556
31
0.0
0
ENDSEC
0
EOF
