0
SECTION
2
HEADER
9
$ACADVER
1
AC1009
0
ENDSEC
0
SECTION
2
TABLES
0
TABLE
2
LTYPE
70
3
0
LTYPE
2
CONTINUOUS
70
0
3
Solid line
72
65
73
0
40
0.0
0
LTYPE
2
HIDDEN
70
0
3
__ __ __ __ __
72
65
73
2
40
0.053070
49
0.035398
49
-0.017672
0
LTYPE
2
CENTER
70
0
3
___ _ ___ _ ___
72
65
73
4
40
0.123813
49
0.070742
49
-0.017672
49
0.017672
49
-0.017672
0
ENDTAB
0
TABLE
2
LAYER
70
6
0
LAYER
2
0
70
0
62
7
6
CONTINUOUS
0
LAYER
2
FRONT
70
0
62
7
6
CONTINUOUS
0
LAYER
2
LEFT
70
0
62
7
6
CONTINUOUS
0
LAYER
2
LEFT_HID
70
0
62
7
6
HIDDEN
0
LAYER
2
TOP
70
0
62
7
6
CONTINUOUS
0
LAYER
2
TOP_HID
70
0
62
7
6
HIDDEN
0
ENDTAB
0
ENDSEC
0
SECTION
2
ENTITIES
0
LINE
8
FRONT
10
0.000000
20
0.402706
30
0.0
11
0.392241
21
0.402706
31
0.0
0
LINE
8
FRONT
10
0.000000
20
1.464107
30
0.0
11
0.000000
21
0.402706
31
0.0
0
LINE
8
FRONT
10
0.392241
20
0.402706
30
0.0
11
0.392241
21
1.464107
31
0.0
0
LINE
8
FRONT
10
0.392241
20
1.464107
30
0.0
11
0.000000
21
1.464107
31
0.0
0
LINE
8
FRONT
10
0.095422
20
1.152705
30
0.0
11
0.095430
21
1.151503
31
0.0
0
LINE
8
FRONT
10
0.095430
20
1.151503
30
0.0
11
0.095453
21
1.150301
31
0.0
0
LINE
8
FRONT
10
0.095453
20
1.150301
30
0.0
11
0.095491
21
1.149100
31
0.0
0
LINE
8
FRONT
10
0.095491
20
1.149100
30
0.0
11
0.095544
21
1.147899
31
0.0
0
LINE
8
FRONT
10
0.095544
20
1.147899
30
0.0
11
0.095612
21
1.146699
31
0.0
0
LINE
8
FRONT
10
0.095612
20
1.146699
30
0.0
11
0.095696
21
1.145500
31
0.0
0
LINE
8
FRONT
10
0.095696
20
1.145500
30
0.0
11
0.095794
21
1.144302
31
0.0
0
LINE
8
FRONT
10
0.095794
20
1.144302
30
0.0
11
0.095908
21
1.143105
31
0.0
0
LINE
8
FRONT
10
0.095908
20
1.143105
30
0.0
11
0.096036
21
1.141910
31
0.0
0
LINE
8
FRONT
10
0.096036
20
1.141910
30
0.0
11
0.096180
21
1.140716
31
0.0
0
LINE
8
FRONT
10
0.096180
20
1.140716
30
0.0
11
0.096339
21
1.139525
31
0.0
0
LINE
8
FRONT
10
0.096339
20
1.139525
30
0.0
11
0.096513
21
1.138335
31
0.0
0
LINE
8
FRONT
10
0.096513
20
1.138335
30
0.0
11
0.096702
21
1.137148
31
0.0
0
LINE
8
FRONT
10
0.096702
20
1.137148
30
0.0
11
0.096906
21
1.135964
31
0.0
0
LINE
8
FRONT
10
0.096906
20
1.135964
30
0.0
11
0.097125
21
1.134782
31
0.0
0
LINE
8
FRONT
10
0.097125
20
1.134782
30
0.0
11
0.097359
21
1.133602
31
0.0
0
LINE
8
FRONT
10
0.097359
20
1.133602
30
0.0
11
0.097607
21
1.132426
31
0.0
0
LINE
8
FRONT
10
0.097607
20
1.132426
30
0.0
11
0.097871
21
1.131253
31
0.0
0
LINE
8
FRONT
10
0.097871
20
1.131253
30
0.0
11
0.098149
21
1.130084
31
0.0
0
LINE
8
FRONT
10
0.098149
20
1.130084
30
0.0
11
0.098442
21
1.128918
31
0.0
0
LINE
8
FRONT
10
0.098442
20
1.128918
30
0.0
11
0.098749
21
1.127756
31
0.0
0
LINE
8
FRONT
10
0.098749
20
1.127756
30
0.0
11
0.099072
21
1.126598
31
0.0
0
LINE
8
FRONT
10
0.099072
20
1.126598
30
0.0
11
0.099409
21
1.125444
31
0.0
0
LINE
8
FRONT
10
0.099409
20
1.125444
30
0.0
11
0.099760
21
1.124295
31
0.0
0
LINE
8
FRONT
10
0.099760
20
1.124295
30
0.0
11
0.100126
21
1.123150
31
0.0
0
LINE
8
FRONT
10
0.100126
20
1.123150
30
0.0
11
0.100506
21
1.122009
31
0.0
0
LINE
8
FRONT
10
0.100506
20
1.122009
30
0.0
11
0.100901
21
1.120874
31
0.0
0
LINE
8
FRONT
10
0.100901
20
1.120874
30
0.0
11
0.101310
21
1.119743
31
0.0
0
LINE
8
FRONT
10
0.101310
20
1.119743
30
0.0
11
0.101733
21
1.118618
31
0.0
0
LINE
8
FRONT
10
0.101733
20
1.118618
30
0.0
11
0.102171
21
1.117499
31
0.0
0
LINE
8
FRONT
10
0.102171
20
1.117499
30
0.0
11
0.102622
21
1.116385
31
0.0
0
LINE
8
FRONT
10
0.102622
20
1.116385
30
0.0
11
0.103088
21
1.115276
31
0.0
0
LINE
8
FRONT
10
0.103088
20
1.115276
30
0.0
11
0.103567
21
1.114174
31
0.0
0
LINE
8
FRONT
10
0.103567
20
1.114174
30
0.0
11
0.104061
21
1.113078
31
0.0
0
LINE
8
FRONT
10
0.104061
20
1.113078
30
0.0
11
0.104568
21
1.111988
31
0.0
0
LINE
8
FRONT
10
0.104568
20
1.111988
30
0.0
11
0.105089
21
1.110905
31
0.0
0
LINE
8
FRONT
10
0.105089
20
1.110905
30
0.0
11
0.105624
21
1.109828
31
0.0
0
LINE
8
FRONT
10
0.105624
20
1.109828
30
0.0
11
0.106172
21
1.108758
31
0.0
0
LINE
8
FRONT
10
0.106172
20
1.108758
30
0.0
11
0.106733
21
1.107695
31
0.0
0
LINE
8
FRONT
10
0.106733
20
1.107695
30
0.0
11
0.107308
21
1.106640
31
0.0
0
LINE
8
FRONT
10
0.107308
20
1.106640
30
0.0
11
0.107896
21
1.105591
31
0.0
0
LINE
8
FRONT
10
0.107896
20
1.105591
30
0.0
11
0.108498
21
1.104550
31
0.0
0
LINE
8
FRONT
10
0.108498
20
1.104550
30
0.0
11
0.109112
21
1.103517
31
0.0
0
LINE
8
FRONT
10
0.109112
20
1.103517
30
0.0
11
0.109740
21
1.102492
31
0.0
0
LINE
8
FRONT
10
0.109740
20
1.102492
30
0.0
11
0.110380
21
1.101475
31
0.0
0
LINE
8
FRONT
10
0.110380
20
1.101475
30
0.0
11
0.111033
21
1.100466
31
0.0
0
LINE
8
FRONT
10
0.111033
20
1.100466
30
0.0
11
0.111699
21
1.099465
31
0.0
0
LINE
8
FRONT
10
0.111699
20
1.099465
30
0.0
11
0.112378
21
1.098472
31
0.0
0
LINE
8
FRONT
10
0.112378
20
1.098472
30
0.0
11
0.113069
21
1.097489
31
0.0
0
LINE
8
FRONT
10
0.113069
20
1.097489
30
0.0
11
0.113772
21
1.096514
31
0.0
0
LINE
8
FRONT
10
0.113772
20
1.096514
30
0.0
11
0.114487
21
1.095548
31
0.0
0
LINE
8
FRONT
10
0.114487
20
1.095548
30
0.0
11
0.115215
21
1.094591
31
0.0
0
LINE
8
FRONT
10
0.115215
20
1.094591
30
0.0
11
0.115955
21
1.093644
31
0.0
0
LINE
8
FRONT
10
0.115955
20
1.093644
30
0.0
11
0.116706
21
1.092705
31
0.0
0
LINE
8
FRONT
10
0.116706
20
1.092705
30
0.0
11
0.117470
21
1.091777
31
0.0
0
LINE
8
FRONT
10
0.117470
20
1.091777
30
0.0
11
0.118245
21
1.090858
31
0.0
0
LINE
8
FRONT
10
0.118245
20
1.090858
30
0.0
11
0.119031
21
1.089949
31
0.0
0
LINE
8
FRONT
10
0.119031
20
1.089949
30
0.0
11
0.119829
21
1.089050
31
0.0
0
LINE
8
FRONT
10
0.119829
20
1.089050
30
0.0
11
0.120639
21
1.088161
31
0.0
0
LINE
8
FRONT
10
0.120639
20
1.088161
30
0.0
11
0.121459
21
1.087283
31
0.0
0
LINE
8
FRONT
10
0.121459
20
1.087283
30
0.0
11
0.122291
21
1.086414
31
0.0
0
LINE
8
FRONT
10
0.122291
20
1.086414
30
0.0
11
0.123133
21
1.085557
31
0.0
0
LINE
8
FRONT
10
0.123133
20
1.085557
30
0.0
11
0.123986
21
1.084710
31
0.0
0
LINE
8
FRONT
10
0.257284
20
1.084710
30
0.0
11
0.258979
21
1.086414
31
0.0
0
LINE
8
FRONT
10
0.258979
20
1.086414
30
0.0
11
0.260631
21
1.088161
31
0.0
0
LINE
8
FRONT
10
0.260631
20
1.088161
30
0.0
11
0.262239
21
1.089949
31
0.0
0
LINE
8
FRONT
10
0.262239
20
1.089949
30
0.0
11
0.263800
21
1.091777
31
0.0
0
LINE
8
FRONT
10
0.263800
20
1.091777
30
0.0
11
0.265315
21
1.093644
31
0.0
0
LINE
8
FRONT
10
0.265315
20
1.093644
30
0.0
11
0.266783
21
1.095548
31
0.0
0
LINE
8
FRONT
10
0.266783
20
1.095548
30
0.0
11
0.268201
21
1.097489
31
0.0
0
LINE
8
FRONT
10
0.268201
20
1.097489
30
0.0
11
0.269571
21
1.099465
31
0.0
0
LINE
8
FRONT
10
0.269571
20
1.099465
30
0.0
11
0.270890
21
1.101475
31
0.0
0
LINE
8
FRONT
10
0.270890
20
1.101475
30
0.0
11
0.272158
21
1.103517
31
0.0
0
LINE
8
FRONT
10
0.272158
20
1.103517
30
0.0
11
0.273374
21
1.105591
31
0.0
0
LINE
8
FRONT
10
0.273374
20
1.105591
30
0.0
11
0.274537
21
1.107695
31
0.0
0
LINE
8
FRONT
10
0.274537
20
1.107695
30
0.0
11
0.275647
21
1.109828
31
0.0
0
LINE
8
FRONT
10
0.275647
20
1.109828
30
0.0
11
0.276702
21
1.111988
31
0.0
0
LINE
8
FRONT
10
0.276702
20
1.111988
30
0.0
11
0.277703
21
1.114174
31
0.0
0
LINE
8
FRONT
10
0.277703
20
1.114174
30
0.0
11
0.278648
21
1.116385
31
0.0
0
LINE
8
FRONT
10
0.278648
20
1.116385
30
0.0
11
0.279537
21
1.118618
31
0.0
0
LINE
8
FRONT
10
0.279537
20
1.118618
30
0.0
11
0.280369
21
1.120874
31
0.0
0
LINE
8
FRONT
10
0.280369
20
1.120874
30
0.0
11
0.281144
21
1.123150
31
0.0
0
LINE
8
FRONT
10
0.281144
20
1.123150
30
0.0
11
0.281861
21
1.125444
31
0.0
0
LINE
8
FRONT
10
0.281861
20
1.125444
30
0.0
11
0.282521
21
1.127756
31
0.0
0
LINE
8
FRONT
10
0.282521
20
1.127756
30
0.0
11
0.283121
21
1.130084
31
0.0
0
LINE
8
FRONT
10
0.283121
20
1.130084
30
0.0
11
0.283663
21
1.132426
31
0.0
0
LINE
8
FRONT
10
0.283663
20
1.132426
30
0.0
11
0.284145
21
1.134782
31
0.0
0
LINE
8
FRONT
10
0.284145
20
1.134782
30
0.0
11
0.284568
21
1.137148
31
0.0
0
LINE
8
FRONT
10
0.284568
20
1.137148
30
0.0
11
0.284931
21
1.139525
31
0.0
0
LINE
8
FRONT
10
0.284931
20
1.139525
30
0.0
11
0.285234
21
1.141910
31
0.0
0
LINE
8
FRONT
10
0.285234
20
1.141910
30
0.0
11
0.285476
21
1.144302
31
0.0
0
LINE
8
FRONT
10
0.285476
20
1.144302
30
0.0
11
0.285658
21
1.146699
31
0.0
0
LINE
8
FRONT
10
0.285658
20
1.146699
30
0.0
11
0.285779
21
1.149100
31
0.0
0
LINE
8
FRONT
10
0.285779
20
1.149100
30
0.0
11
0.285840
21
1.151503
31
0.0
0
LINE
8
FRONT
10
0.285840
20
1.151503
30
0.0
11
0.285840
21
1.153907
31
0.0
0
LINE
8
FRONT
10
0.285840
20
1.153907
30
0.0
11
0.285779
21
1.156311
31
0.0
0
LINE
8
FRONT
10
0.285779
20
1.156311
30
0.0
11
0.285658
21
1.158712
31
0.0
0
LINE
8
FRONT
10
0.285658
20
1.158712
30
0.0
11
0.285476
21
1.161109
31
0.0
0
LINE
8
FRONT
10
0.285476
20
1.161109
30
0.0
11
0.285234
21
1.163501
31
0.0
0
LINE
8
FRONT
10
0.285234
20
1.163501
30
0.0
11
0.284931
21
1.165886
31
0.0
0
LINE
8
FRONT
10
0.284931
20
1.165886
30
0.0
11
0.284568
21
1.168262
31
0.0
0
LINE
8
FRONT
10
0.284568
20
1.168262
30
0.0
11
0.284145
21
1.170629
31
0.0
0
LINE
8
FRONT
10
0.284145
20
1.170629
30
0.0
11
0.283663
21
1.172984
31
0.0
0
LINE
8
FRONT
10
0.283663
20
1.172984
30
0.0
11
0.283121
21
1.175327
31
0.0
0
LINE
8
FRONT
10
0.283121
20
1.175327
30
0.0
11
0.282521
21
1.177655
31
0.0
0
LINE
8
FRONT
10
0.282521
20
1.177655
30
0.0
11
0.281861
21
1.179967
31
0.0
0
LINE
8
FRONT
10
0.281861
20
1.179967
30
0.0
11
0.281144
21
1.182261
31
0.0
0
LINE
8
FRONT
10
0.281144
20
1.182261
30
0.0
11
0.280369
21
1.184537
31
0.0
0
LINE
8
FRONT
10
0.280369
20
1.184537
30
0.0
11
0.279537
21
1.186792
31
0.0
0
LINE
8
FRONT
10
0.279537
20
1.186792
30
0.0
11
0.278648
21
1.189026
31
0.0
0
LINE
8
FRONT
10
0.278648
20
1.189026
30
0.0
11
0.277703
21
1.191237
31
0.0
0
LINE
8
FRONT
10
0.277703
20
1.191237
30
0.0
11
0.276702
21
1.193423
31
0.0
0
LINE
8
FRONT
10
0.276702
20
1.193423
30
0.0
11
0.275647
21
1.195583
31
0.0
0
LINE
8
FRONT
10
0.275647
20
1.195583
30
0.0
11
0.274537
21
1.197715
31
0.0
0
LINE
8
FRONT
10
0.274537
20
1.197715
30
0.0
11
0.273374
21
1.199819
31
0.0
0
LINE
8
FRONT
10
0.273374
20
1.199819
30
0.0
11
0.272158
21
1.201893
31
0.0
0
LINE
8
FRONT
10
0.272158
20
1.201893
30
0.0
11
0.270890
21
1.203936
31
0.0
0
LINE
8
FRONT
10
0.270890
20
1.203936
30
0.0
11
0.269571
21
1.205946
31
0.0
0
LINE
8
FRONT
10
0.269571
20
1.205946
30
0.0
11
0.268201
21
1.207922
31
0.0
0
LINE
8
FRONT
10
0.268201
20
1.207922
30
0.0
11
0.266783
21
1.209863
31
0.0
0
LINE
8
FRONT
10
0.266783
20
1.209863
30
0.0
11
0.265315
21
1.211767
31
0.0
0
LINE
8
FRONT
10
0.265315
20
1.211767
30
0.0
11
0.263800
21
1.213634
31
0.0
0
LINE
8
FRONT
10
0.263800
20
1.213634
30
0.0
11
0.262239
21
1.215462
31
0.0
0
LINE
8
FRONT
10
0.262239
20
1.215462
30
0.0
11
0.260631
21
1.217250
31
0.0
0
LINE
8
FRONT
10
0.260631
20
1.217250
30
0.0
11
0.258979
21
1.218996
31
0.0
0
LINE
8
FRONT
10
0.258979
20
1.218996
30
0.0
11
0.257284
21
1.220701
31
0.0
0
LINE
8
FRONT
10
0.123986
20
1.220701
30
0.0
11
0.123133
21
1.219854
31
0.0
0
LINE
8
FRONT
10
0.123133
20
1.219854
30
0.0
11
0.122291
21
1.218996
31
0.0
0
LINE
8
FRONT
10
0.122291
20
1.218996
30
0.0
11
0.121459
21
1.218128
31
0.0
0
LINE
8
FRONT
10
0.121459
20
1.218128
30
0.0
11
0.120639
21
1.217250
31
0.0
0
LINE
8
FRONT
10
0.120639
20
1.217250
30
0.0
11
0.119829
21
1.216361
31
0.0
0
LINE
8
FRONT
10
0.119829
20
1.216361
30
0.0
11
0.119031
21
1.215462
31
0.0
0
LINE
8
FRONT
10
0.119031
20
1.215462
30
0.0
11
0.118245
21
1.214553
31
0.0
0
LINE
8
FRONT
10
0.118245
20
1.214553
30
0.0
11
0.117470
21
1.213634
31
0.0
0
LINE
8
FRONT
10
0.117470
20
1.213634
30
0.0
11
0.116706
21
1.212705
31
0.0
0
LINE
8
FRONT
10
0.116706
20
1.212705
30
0.0
11
0.115955
21
1.211767
31
0.0
0
LINE
8
FRONT
10
0.115955
20
1.211767
30
0.0
11
0.115215
21
1.210820
31
0.0
0
LINE
8
FRONT
10
0.115215
20
1.210820
30
0.0
11
0.114487
21
1.209863
31
0.0
0
LINE
8
FRONT
10
0.114487
20
1.209863
30
0.0
11
0.113772
21
1.208897
31
0.0
0
LINE
8
FRONT
10
0.113772
20
1.208897
30
0.0
11
0.113069
21
1.207922
31
0.0
0
LINE
8
FRONT
10
0.113069
20
1.207922
30
0.0
11
0.112378
21
1.206938
31
0.0
0
LINE
8
FRONT
10
0.112378
20
1.206938
30
0.0
11
0.111699
21
1.205946
31
0.0
0
LINE
8
FRONT
10
0.111699
20
1.205946
30
0.0
11
0.111033
21
1.204945
31
0.0
0
LINE
8
FRONT
10
0.111033
20
1.204945
30
0.0
11
0.110380
21
1.203936
31
0.0
0
LINE
8
FRONT
10
0.110380
20
1.203936
30
0.0
11
0.109740
21
1.202919
31
0.0
0
LINE
8
FRONT
10
0.109740
20
1.202919
30
0.0
11
0.109112
21
1.201893
31
0.0
0
LINE
8
FRONT
10
0.109112
20
1.201893
30
0.0
11
0.108498
21
1.200860
31
0.0
0
LINE
8
FRONT
10
0.108498
20
1.200860
30
0.0
11
0.107896
21
1.199819
31
0.0
0
LINE
8
FRONT
10
0.107896
20
1.199819
30
0.0
11
0.107308
21
1.198771
31
0.0
0
LINE
8
FRONT
10
0.107308
20
1.198771
30
0.0
11
0.106733
21
1.197715
31
0.0
0
LINE
8
FRONT
10
0.106733
20
1.197715
30
0.0
11
0.106172
21
1.196653
31
0.0
0
LINE
8
FRONT
10
0.106172
20
1.196653
30
0.0
11
0.105624
21
1.195583
31
0.0
0
LINE
8
FRONT
10
0.105624
20
1.195583
30
0.0
11
0.105089
21
1.194506
31
0.0
0
LINE
8
FRONT
10
0.105089
20
1.194506
30
0.0
11
0.104568
21
1.193423
31
0.0
0
LINE
8
FRONT
10
0.104568
20
1.193423
30
0.0
11
0.104061
21
1.192333
31
0.0
0
LINE
8
FRONT
10
0.104061
20
1.192333
30
0.0
11
0.103567
21
1.191237
31
0.0
0
LINE
8
FRONT
10
0.103567
20
1.191237
30
0.0
11
0.103088
21
1.190134
31
0.0
0
LINE
8
FRONT
10
0.103088
20
1.190134
30
0.0
11
0.102622
21
1.189026
31
0.0
0
LINE
8
FRONT
10
0.102622
20
1.189026
30
0.0
11
0.102171
21
1.187912
31
0.0
0
LINE
8
FRONT
10
0.102171
20
1.187912
30
0.0
11
0.101733
21
1.186792
31
0.0
0
LINE
8
FRONT
10
0.101733
20
1.186792
30
0.0
11
0.101310
21
1.185667
31
0.0
0
LINE
8
FRONT
10
0.101310
20
1.185667
30
0.0
11
0.100901
21
1.184537
31
0.0
0
LINE
8
FRONT
10
0.100901
20
1.184537
30
0.0
11
0.100506
21
1.183401
31
0.0
0
LINE
8
FRONT
10
0.100506
20
1.183401
30
0.0
11
0.100126
21
1.182261
31
0.0
0
LINE
8
FRONT
10
0.100126
20
1.182261
30
0.0
11
0.099760
21
1.181116
31
0.0
0
LINE
8
FRONT
10
0.099760
20
1.181116
30
0.0
11
0.099409
21
1.179967
31
0.0
0
LINE
8
FRONT
10
0.099409
20
1.179967
30
0.0
11
0.099072
21
1.178813
31
0.0
0
LINE
8
FRONT
10
0.099072
20
1.178813
30
0.0
11
0.098749
21
1.177655
31
0.0
0
LINE
8
FRONT
10
0.098749
20
1.177655
30
0.0
11
0.098442
21
1.176493
31
0.0
0
LINE
8
FRONT
10
0.098442
20
1.176493
30
0.0
11
0.098149
21
1.175327
31
0.0
0
LINE
8
FRONT
10
0.098149
20
1.175327
30
0.0
11
0.097871
21
1.174157
31
0.0
0
LINE
8
FRONT
10
0.097871
20
1.174157
30
0.0
11
0.097607
21
1.172984
31
0.0
0
LINE
8
FRONT
10
0.097607
20
1.172984
30
0.0
11
0.097359
21
1.171808
31
0.0
0
LINE
8
FRONT
10
0.097359
20
1.171808
30
0.0
11
0.097125
21
1.170629
31
0.0
0
LINE
8
FRONT
10
0.097125
20
1.170629
30
0.0
11
0.096906
21
1.169447
31
0.0
0
LINE
8
FRONT
10
0.096906
20
1.169447
30
0.0
11
0.096702
21
1.168262
31
0.0
0
LINE
8
FRONT
10
0.096702
20
1.168262
30
0.0
11
0.096513
21
1.167075
31
0.0
0
LINE
8
FRONT
10
0.096513
20
1.167075
30
0.0
11
0.096339
21
1.165886
31
0.0
0
LINE
8
FRONT
10
0.096339
20
1.165886
30
0.0
11
0.096180
21
1.164694
31
0.0
0
LINE
8
FRONT
10
0.096180
20
1.164694
30
0.0
11
0.096036
21
1.163501
31
0.0
0
LINE
8
FRONT
10
0.096036
20
1.163501
30
0.0
11
0.095908
21
1.162306
31
0.0
0
LINE
8
FRONT
10
0.095908
20
1.162306
30
0.0
11
0.095794
21
1.161109
31
0.0
0
LINE
8
FRONT
10
0.095794
20
1.161109
30
0.0
11
0.095696
21
1.159911
31
0.0
0
LINE
8
FRONT
10
0.095696
20
1.159911
30
0.0
11
0.095612
21
1.158712
31
0.0
0
LINE
8
FRONT
10
0.095612
20
1.158712
30
0.0
11
0.095544
21
1.157512
31
0.0
0
LINE
8
FRONT
10
0.095544
20
1.157512
30
0.0
11
0.095491
21
1.156311
31
0.0
0
LINE
8
FRONT
10
0.095491
20
1.156311
30
0.0
11
0.095453
21
1.155109
31
0.0
0
LINE
8
FRONT
10
0.095453
20
1.155109
30
0.0
11
0.095430
21
1.153907
31
0.0
0
LINE
8
FRONT
10
0.095430
20
1.153907
30
0.0
11
0.095422
21
1.152705
31
0.0
0
LINE
8
FRONT
10
0.257284
20
1.084710
30
0.0
11
0.123986
21
1.084710
31
0.0
0
LINE
8
FRONT
10
0.123986
20
1.220701
30
0.0
11
0.257284
21
1.220701
31
0.0
0
LINE
8
LEFT
10
0.604522
20
0.402706
30
0.0
11
0.794947
21
0.402706
31
0.0
0
LINE
8
LEFT
10
0.604522
20
1.464107
30
0.0
11
0.794947
21
1.464107
31
0.0
0
LINE
8
LEFT
10
0.794947
20
1.464107
30
0.0
11
0.794947
21
0.402706
31
0.0
0
LINE
8
LEFT
10
0.604522
20
1.464107
30
0.0
11
0.604522
21
0.402706
31
0.0
0
LINE
8
LEFT_HID
6
HIDDEN
10
0.604522
20
1.152705
30
0.0
11
0.604522
21
1.084710
31
0.0
0
LINE
8
LEFT_HID
6
HIDDEN
10
0.604522
20
1.084710
30
0.0
11
0.604522
21
1.083846
31
0.0
0
LINE
8
LEFT_HID
6
HIDDEN
10
0.604522
20
1.083846
30
0.0
11
0.604522
21
1.082982
31
0.0
0
LINE
8
LEFT_HID
6
HIDDEN
10
0.604522
20
1.082982
30
0.0
11
0.604522
21
1.082118
31
0.0
0
LINE
8
LEFT_HID
6
HIDDEN
10
0.604522
20
1.082118
30
0.0
11
0.604522
21
1.081254
31
0.0
0
LINE
8
LEFT_HID
6
HIDDEN
10
0.604522
20
1.081254
30
0.0
11
0.604522
21
1.080390
31
0.0
0
LINE
8
LEFT_HID
6
HIDDEN
10
0.604522
20
1.080390
30
0.0
11
0.604522
21
1.079526
31
0.0
0
LINE
8
LEFT_HID
6
HIDDEN
10
0.604522
20
1.079526
30
0.0
11
0.604522
21
1.078662
31
0.0
0
LINE
8
LEFT_HID
6
HIDDEN
10
0.604522
20
1.078662
30
0.0
11
0.604522
21
1.077798
31
0.0
0
LINE
8
LEFT_HID
6
HIDDEN
10
0.604522
20
1.077798
30
0.0
11
0.604522
21
1.076934
31
0.0
0
LINE
8
LEFT_HID
6
HIDDEN
10
0.604522
20
1.076934
30
0.0
11
0.604522
21
1.076070
31
0.0
0
LINE
8
LEFT_HID
6
HIDDEN
10
0.604522
20
1.076070
30
0.0
11
0.604522
21
1.075206
31
0.0
0
LINE
8
LEFT_HID
6
HIDDEN
10
0.604522
20
1.075206
30
0.0
11
0.604522
21
1.074342
31
0.0
0
LINE
8
LEFT_HID
6
HIDDEN
10
0.604522
20
1.074342
30
0.0
11
0.604522
21
1.073478
31
0.0
0
LINE
8
LEFT_HID
6
HIDDEN
10
0.604522
20
1.073478
30
0.0
11
0.604522
21
1.072614
31
0.0
0
LINE
8
LEFT_HID
6
HIDDEN
10
0.604522
20
1.072614
30
0.0
11
0.604522
21
1.071749
31
0.0
0
LINE
8
LEFT_HID
6
HIDDEN
10
0.604522
20
1.071749
30
0.0
11
0.604522
21
1.070885
31
0.0
0
LINE
8
LEFT_HID
6
HIDDEN
10
0.604522
20
1.070885
30
0.0
11
0.604522
21
1.070021
31
0.0
0
LINE
8
LEFT_HID
6
HIDDEN
10
0.604522
20
1.070021
30
0.0
11
0.604522
21
1.069157
31
0.0
0
LINE
8
LEFT_HID
6
HIDDEN
10
0.604522
20
1.069157
30
0.0
11
0.604522
21
1.068293
31
0.0
0
LINE
8
LEFT_HID
6
HIDDEN
10
0.604522
20
1.068293
30
0.0
11
0.604522
21
1.067429
31
0.0
0
LINE
8
LEFT_HID
6
HIDDEN
10
0.604522
20
1.067429
30
0.0
11
0.604522
21
1.066565
31
0.0
0
LINE
8
LEFT_HID
6
HIDDEN
10
0.604522
20
1.066565
30
0.0
11
0.604522
21
1.065701
31
0.0
0
LINE
8
LEFT_HID
6
HIDDEN
10
0.604522
20
1.065701
30
0.0
11
0.604522
21
1.064837
31
0.0
0
LINE
8
LEFT_HID
6
HIDDEN
10
0.604522
20
1.064837
30
0.0
11
0.604522
21
1.063973
31
0.0
0
LINE
8
LEFT_HID
6
HIDDEN
10
0.604522
20
1.063973
30
0.0
11
0.604522
21
1.063109
31
0.0
0
LINE
8
LEFT_HID
6
HIDDEN
10
0.604522
20
1.063109
30
0.0
11
0.604522
21
1.062245
31
0.0
0
LINE
8
LEFT_HID
6
HIDDEN
10
0.604522
20
1.062245
30
0.0
11
0.604522
21
1.061381
31
0.0
0
LINE
8
LEFT_HID
6
HIDDEN
10
0.604522
20
1.061381
30
0.0
11
0.604522
21
1.060517
31
0.0
0
LINE
8
LEFT_HID
6
HIDDEN
10
0.604522
20
1.060517
30
0.0
11
0.604522
21
1.059653
31
0.0
0
LINE
8
LEFT_HID
6
HIDDEN
10
0.604522
20
1.059653
30
0.0
11
0.604522
21
1.058789
31
0.0
0
LINE
8
LEFT_HID
6
HIDDEN
10
0.604522
20
1.058789
30
0.0
11
0.604522
21
1.057925
31
0.0
0
LINE
8
LEFT_HID
6
HIDDEN
10
0.604522
20
1.057925
30
0.0
11
0.604522
21
1.058789
31
0.0
0
LINE
8
LEFT_HID
6
HIDDEN
10
0.604522
20
1.058789
30
0.0
11
0.604522
21
1.059653
31
0.0
0
LINE
8
LEFT_HID
6
HIDDEN
10
0.604522
20
1.059653
30
0.0
11
0.604522
21
1.060517
31
0.0
0
LINE
8
LEFT_HID
6
HIDDEN
10
0.604522
20
1.060517
30
0.0
11
0.604522
21
1.061381
31
0.0
0
LINE
8
LEFT_HID
6
HIDDEN
10
0.604522
20
1.061381
30
0.0
11
0.604522
21
1.062245
31
0.0
0
LINE
8
LEFT_HID
6
HIDDEN
10
0.604522
20
1.062245
30
0.0
11
0.604522
21
1.063109
31
0.0
0
LINE
8
LEFT_HID
6
HIDDEN
10
0.604522
20
1.063109
30
0.0
11
0.604522
21
1.063973
31
0.0
0
LINE
8
LEFT_HID
6
HIDDEN
10
0.604522
20
1.063973
30
0.0
11
0.604522
21
1.064837
31
0.0
0
LINE
8
LEFT_HID
6
HIDDEN
10
0.604522
20
1.064837
30
0.0
11
0.604522
21
1.065701
31
0.0
0
LINE
8
LEFT_HID
6
HIDDEN
10
0.604522
20
1.065701
30
0.0
11
0.604522
21
1.066565
31
0.0
0
LINE
8
LEFT_HID
6
HIDDEN
10
0.604522
20
1.066565
30
0.0
11
0.604522
21
1.067429
31
0.0
0
LINE
8
LEFT_HID
6
HIDDEN
10
0.604522
20
1.067429
30
0.0
11
0.604522
21
1.068293
31
0.0
0
LINE
8
LEFT_HID
6
HIDDEN
10
0.604522
20
1.068293
30
0.0
11
0.604522
21
1.069157
31
0.0
0
LINE
8
LEFT_HID
6
HIDDEN
10
0.604522
20
1.069157
30
0.0
11
0.604522
21
1.070021
31
0.0
0
LINE
8
LEFT_HID
6
HIDDEN
10
0.604522
20
1.070021
30
0.0
11
0.604522
21
1.070885
31
0.0
0
LINE
8
LEFT_HID
6
HIDDEN
10
0.604522
20
1.070885
30
0.0
11
0.604522
21
1.071749
31
0.0
0
LINE
8
LEFT_HID
6
HIDDEN
10
0.604522
20
1.071749
30
0.0
11
0.604522
21
1.072614
31
0.0
0
LINE
8
LEFT_HID
6
HIDDEN
10
0.604522
20
1.072614
30
0.0
11
0.604522
21
1.073478
31
0.0
0
LINE
8
LEFT_HID
6
HIDDEN
10
0.604522
20
1.073478
30
0.0
11
0.604522
21
1.074342
31
0.0
0
LINE
8
LEFT_HID
6
HIDDEN
10
0.604522
20
1.074342
30
0.0
11
0.604522
21
1.075206
31
0.0
0
LINE
8
LEFT_HID
6
HIDDEN
10
0.604522
20
1.075206
30
0.0
11
0.604522
21
1.076070
31
0.0
0
LINE
8
LEFT_HID
6
HIDDEN
10
0.604522
20
1.076070
30
0.0
11
0.604522
21
1.076934
31
0.0
0
LINE
8
LEFT_HID
6
HIDDEN
10
0.604522
20
1.076934
30
0.0
11
0.604522
21
1.077798
31
0.0
0
LINE
8
LEFT_HID
6
HIDDEN
10
0.604522
20
1.077798
30
0.0
11
0.604522
21
1.078662
31
0.0
0
LINE
8
LEFT_HID
6
HIDDEN
10
0.604522
20
1.078662
30
0.0
11
0.604522
21
1.079526
31
0.0
0
LINE
8
LEFT_HID
6
HIDDEN
10
0.604522
20
1.079526
30
0.0
11
0.604522
21
1.080390
31
0.0
0
LINE
8
LEFT_HID
6
HIDDEN
10
0.604522
20
1.080390
30
0.0
11
0.604522
21
1.081254
31
0.0
0
LINE
8
LEFT_HID
6
HIDDEN
10
0.604522
20
1.081254
30
0.0
11
0.604522
21
1.082118
31
0.0
0
LINE
8
LEFT_HID
6
HIDDEN
10
0.604522
20
1.082118
30
0.0
11
0.604522
21
1.082982
31
0.0
0
LINE
8
LEFT_HID
6
HIDDEN
10
0.604522
20
1.082982
30
0.0
11
0.604522
21
1.083846
31
0.0
0
LINE
8
LEFT_HID
6
HIDDEN
10
0.604522
20
1.083846
30
0.0
11
0.604522
21
1.084710
31
0.0
0
LINE
8
LEFT_HID
6
HIDDEN
10
0.604522
20
1.084710
30
0.0
11
0.604522
21
1.220701
31
0.0
0
LINE
8
LEFT_HID
6
HIDDEN
10
0.604522
20
1.220701
30
0.0
11
0.604522
21
1.221565
31
0.0
0
LINE
8
LEFT_HID
6
HIDDEN
10
0.604522
20
1.221565
30
0.0
11
0.604522
21
1.222429
31
0.0
0
LINE
8
LEFT_HID
6
HIDDEN
10
0.604522
20
1.222429
30
0.0
11
0.604522
21
1.223293
31
0.0
0
LINE
8
LEFT_HID
6
HIDDEN
10
0.604522
20
1.223293
30
0.0
11
0.604522
21
1.224157
31
0.0
0
LINE
8
LEFT_HID
6
HIDDEN
10
0.604522
20
1.224157
30
0.0
11
0.604522
21
1.225021
31
0.0
0
LINE
8
LEFT_HID
6
HIDDEN
10
0.604522
20
1.225021
30
0.0
11
0.604522
21
1.225885
31
0.0
0
LINE
8
LEFT_HID
6
HIDDEN
10
0.604522
20
1.225885
30
0.0
11
0.604522
21
1.226749
31
0.0
0
LINE
8
LEFT_HID
6
HIDDEN
10
0.604522
20
1.226749
30
0.0
11
0.604522
21
1.227613
31
0.0
0
LINE
8
LEFT_HID
6
HIDDEN
10
0.604522
20
1.227613
30
0.0
11
0.604522
21
1.228477
31
0.0
0
LINE
8
LEFT_HID
6
HIDDEN
10
0.604522
20
1.228477
30
0.0
11
0.604522
21
1.229341
31
0.0
0
LINE
8
LEFT_HID
6
HIDDEN
10
0.604522
20
1.229341
30
0.0
11
0.604522
21
1.230205
31
0.0
0
LINE
8
LEFT_HID
6
HIDDEN
10
0.604522
20
1.230205
30
0.0
11
0.604522
21
1.231069
31
0.0
0
LINE
8
LEFT_HID
6
HIDDEN
10
0.604522
20
1.231069
30
0.0
11
0.604522
21
1.231933
31
0.0
0
LINE
8
LEFT_HID
6
HIDDEN
10
0.604522
20
1.231933
30
0.0
11
0.604522
21
1.232797
31
0.0
0
LINE
8
LEFT_HID
6
HIDDEN
10
0.604522
20
1.232797
30
0.0
11
0.604522
21
1.233661
31
0.0
0
LINE
8
LEFT_HID
6
HIDDEN
10
0.604522
20
1.233661
30
0.0
11
0.604522
21
1.234525
31
0.0
0
LINE
8
LEFT_HID
6
HIDDEN
10
0.604522
20
1.234525
30
0.0
11
0.604522
21
1.235389
31
0.0
0
LINE
8
LEFT_HID
6
HIDDEN
10
0.604522
20
1.235389
30
0.0
11
0.604522
21
1.236253
31
0.0
0
LINE
8
LEFT_HID
6
HIDDEN
10
0.604522
20
1.236253
30
0.0
11
0.604522
21
1.237117
31
0.0
0
LINE
8
LEFT_HID
6
HIDDEN
10
0.604522
20
1.237117
30
0.0
11
0.604522
21
1.237981
31
0.0
0
LINE
8
LEFT_HID
6
HIDDEN
10
0.604522
20
1.237981
30
0.0
11
0.604522
21
1.238845
31
0.0
0
LINE
8
LEFT_HID
6
HIDDEN
10
0.604522
20
1.238845
30
0.0
11
0.604522
21
1.239710
31
0.0
0
LINE
8
LEFT_HID
6
HIDDEN
10
0.604522
20
1.239710
30
0.0
11
0.604522
21
1.240574
31
0.0
0
LINE
8
LEFT_HID
6
HIDDEN
10
0.604522
20
1.240574
30
0.0
11
0.604522
21
1.241438
31
0.0
0
LINE
8
LEFT_HID
6
HIDDEN
10
0.604522
20
1.241438
30
0.0
11
0.604522
21
1.242302
31
0.0
0
LINE
8
LEFT_HID
6
HIDDEN
10
0.604522
20
1.242302
30
0.0
11
0.604522
21
1.243166
31
0.0
0
LINE
8
LEFT_HID
6
HIDDEN
10
0.604522
20
1.243166
30
0.0
11
0.604522
21
1.244030
31
0.0
0
LINE
8
LEFT_HID
6
HIDDEN
10
0.604522
20
1.244030
30
0.0
11
0.604522
21
1.244894
31
0.0
0
LINE
8
LEFT_HID
6
HIDDEN
10
0.604522
20
1.244894
30
0.0
11
0.604522
21
1.245758
31
0.0
0
LINE
8
LEFT_HID
6
HIDDEN
10
0.604522
20
1.245758
30
0.0
11
0.604522
21
1.246622
31
0.0
0
LINE
8
LEFT_HID
6
HIDDEN
10
0.604522
20
1.246622
30
0.0
11
0.604522
21
1.247486
31
0.0
0
LINE
8
LEFT_HID
6
HIDDEN
10
0.604522
20
1.247486
30
0.0
11
0.604522
21
1.246622
31
0.0
0
LINE
8
LEFT_HID
6
HIDDEN
10
0.604522
20
1.246622
30
0.0
11
0.604522
21
1.245758
31
0.0
0
LINE
8
LEFT_HID
6
HIDDEN
10
0.604522
20
1.245758
30
0.0
11
0.604522
21
1.244894
31
0.0
0
LINE
8
LEFT_HID
6
HIDDEN
10
0.604522
20
1.244894
30
0.0
11
0.604522
21
1.244030
31
0.0
0
LINE
8
LEFT_HID
6
HIDDEN
10
0.604522
20
1.244030
30
0.0
11
0.604522
21
1.243166
31
0.0
0
LINE
8
LEFT_HID
6
HIDDEN
10
0.604522
20
1.243166
30
0.0
11
0.604522
21
1.242302
31
0.0
0
LINE
8
LEFT_HID
6
HIDDEN
10
0.604522
20
1.242302
30
0.0
11
0.604522
21
1.241438
31
0.0
0
LINE
8
LEFT_HID
6
HIDDEN
10
0.604522
20
1.241438
30
0.0
11
0.604522
21
1.240574
31
0.0
0
LINE
8
LEFT_HID
6
HIDDEN
10
0.604522
20
1.240574
30
0.0
11
0.604522
21
1.239710
31
0.0
0
LINE
8
LEFT_HID
6
HIDDEN
10
0.604522
20
1.239710
30
0.0
11
0.604522
21
1.238845
31
0.0
0
LINE
8
LEFT_HID
6
HIDDEN
10
0.604522
20
1.238845
30
0.0
11
0.604522
21
1.237981
31
0.0
0
LINE
8
LEFT_HID
6
HIDDEN
10
0.604522
20
1.237981
30
0.0
11
0.604522
21
1.237117
31
0.0
0
LINE
8
LEFT_HID
6
HIDDEN
10
0.604522
20
1.237117
30
0.0
11
0.604522
21
1.236253
31
0.0
0
LINE
8
LEFT_HID
6
HIDDEN
10
0.604522
20
1.236253
30
0.0
11
0.604522
21
1.235389
31
0.0
0
LINE
8
LEFT_HID
6
HIDDEN
10
0.604522
20
1.235389
30
0.0
11
0.604522
21
1.234525
31
0.0
0
LINE
8
LEFT_HID
6
HIDDEN
10
0.604522
20
1.234525
30
0.0
11
0.604522
21
1.233661
31
0.0
0
LINE
8
LEFT_HID
6
HIDDEN
10
0.604522
20
1.233661
30
0.0
11
0.604522
21
1.232797
31
0.0
0
LINE
8
LEFT_HID
6
HIDDEN
10
0.604522
20
1.232797
30
0.0
11
0.604522
21
1.231933
31
0.0
0
LINE
8
LEFT_HID
6
HIDDEN
10
0.604522
20
1.231933
30
0.0
11
0.604522
21
1.231069
31
0.0
0
LINE
8
LEFT_HID
6
HIDDEN
10
0.604522
20
1.231069
30
0.0
11
0.604522
21
1.230205
31
0.0
0
LINE
8
LEFT_HID
6
HIDDEN
10
0.604522
20
1.230205
30
0.0
11
0.604522
21
1.229341
31
0.0
0
LINE
8
LEFT_HID
6
HIDDEN
10
0.604522
20
1.229341
30
0.0
11
0.604522
21
1.228477
31
0.0
0
LINE
8
LEFT_HID
6
HIDDEN
10
0.604522
20
1.228477
30
0.0
11
0.604522
21
1.227613
31
0.0
0
LINE
8
LEFT_HID
6
HIDDEN
10
0.604522
20
1.227613
30
0.0
11
0.604522
21
1.226749
31
0.0
0
LINE
8
LEFT_HID
6
HIDDEN
10
0.604522
20
1.226749
30
0.0
11
0.604522
21
1.225885
31
0.0
0
LINE
8
LEFT_HID
6
HIDDEN
10
0.604522
20
1.225885
30
0.0
11
0.604522
21
1.225021
31
0.0
0
LINE
8
LEFT_HID
6
HIDDEN
10
0.604522
20
1.225021
30
0.0
11
0.604522
21
1.224157
31
0.0
0
LINE
8
LEFT_HID
6
HIDDEN
10
0.604522
20
1.224157
30
0.0
11
0.604522
21
1.223293
31
0.0
0
LINE
8
LEFT_HID
6
HIDDEN
10
0.604522
20
1.223293
30
0.0
11
0.604522
21
1.222429
31
0.0
0
LINE
8
LEFT_HID
6
HIDDEN
10
0.604522
20
1.222429
30
0.0
11
0.604522
21
1.221565
31
0.0
0
LINE
8
LEFT_HID
6
HIDDEN
10
0.604522
20
1.221565
30
0.0
11
0.604522
21
1.220701
31
0.0
0
LINE
8
LEFT_HID
6
HIDDEN
10
0.604522
20
1.220701
30
0.0
11
0.604522
21
1.152705
31
0.0
0
LINE
8
LEFT_HID
6
HIDDEN
10
0.794947
20
1.152705
30
0.0
11
0.794947
21
1.084710
31
0.0
0
LINE
8
LEFT_HID
6
HIDDEN
10
0.794947
20
1.084710
30
0.0
11
0.794947
21
1.083846
31
0.0
0
LINE
8
LEFT_HID
6
HIDDEN
10
0.794947
20
1.083846
30
0.0
11
0.794947
21
1.082982
31
0.0
0
LINE
8
LEFT_HID
6
HIDDEN
10
0.794947
20
1.082982
30
0.0
11
0.794947
21
1.082118
31
0.0
0
LINE
8
LEFT_HID
6
HIDDEN
10
0.794947
20
1.082118
30
0.0
11
0.794947
21
1.081254
31
0.0
0
LINE
8
LEFT_HID
6
HIDDEN
10
0.794947
20
1.081254
30
0.0
11
0.794947
21
1.080390
31
0.0
0
LINE
8
LEFT_HID
6
HIDDEN
10
0.794947
20
1.080390
30
0.0
11
0.794947
21
1.079526
31
0.0
0
LINE
8
LEFT_HID
6
HIDDEN
10
0.794947
20
1.079526
30
0.0
11
0.794947
21
1.078662
31
0.0
0
LINE
8
LEFT_HID
6
HIDDEN
10
0.794947
20
1.078662
30
0.0
11
0.794947
21
1.077798
31
0.0
0
LINE
8
LEFT_HID
6
HIDDEN
10
0.794947
20
1.077798
30
0.0
11
0.794947
21
1.076934
31
0.0
0
LINE
8
LEFT_HID
6
HIDDEN
10
0.794947
20
1.076934
30
0.0
11
0.794947
21
1.076070
31
0.0
0
LINE
8
LEFT_HID
6
HIDDEN
10
0.794947
20
1.076070
30
0.0
11
0.794947
21
1.075206
31
0.0
0
LINE
8
LEFT_HID
6
HIDDEN
10
0.794947
20
1.075206
30
0.0
11
0.794947
21
1.074342
31
0.0
0
LINE
8
LEFT_HID
6
HIDDEN
10
0.794947
20
1.074342
30
0.0
11
0.794947
21
1.073478
31
0.0
0
LINE
8
LEFT_HID
6
HIDDEN
10
0.794947
20
1.073478
30
0.0
11
0.794947
21
1.072614
31
0.0
0
LINE
8
LEFT_HID
6
HIDDEN
10
0.794947
20
1.072614
30
0.0
11
0.794947
21
1.071749
31
0.0
0
LINE
8
LEFT_HID
6
HIDDEN
10
0.794947
20
1.071749
30
0.0
11
0.794947
21
1.070885
31
0.0
0
LINE
8
LEFT_HID
6
HIDDEN
10
0.794947
20
1.070885
30
0.0
11
0.794947
21
1.070021
31
0.0
0
LINE
8
LEFT_HID
6
HIDDEN
10
0.794947
20
1.070021
30
0.0
11
0.794947
21
1.069157
31
0.0
0
LINE
8
LEFT_HID
6
HIDDEN
10
0.794947
20
1.069157
30
0.0
11
0.794947
21
1.068293
31
0.0
0
LINE
8
LEFT_HID
6
HIDDEN
10
0.794947
20
1.068293
30
0.0
11
0.794947
21
1.067429
31
0.0
0
LINE
8
LEFT_HID
6
HIDDEN
10
0.794947
20
1.067429
30
0.0
11
0.794947
21
1.066565
31
0.0
0
LINE
8
LEFT_HID
6
HIDDEN
10
0.794947
20
1.066565
30
0.0
11
0.794947
21
1.065701
31
0.0
0
LINE
8
LEFT_HID
6
HIDDEN
10
0.794947
20
1.065701
30
0.0
11
0.794947
21
1.064837
31
0.0
0
LINE
8
LEFT_HID
6
HIDDEN
10
0.794947
20
1.064837
30
0.0
11
0.794947
21
1.063973
31
0.0
0
LINE
8
LEFT_HID
6
HIDDEN
10
0.794947
20
1.063973
30
0.0
11
0.794947
21
1.063109
31
0.0
0
LINE
8
LEFT_HID
6
HIDDEN
10
0.794947
20
1.063109
30
0.0
11
0.794947
21
1.062245
31
0.0
0
LINE
8
LEFT_HID
6
HIDDEN
10
0.794947
20
1.062245
30
0.0
11
0.794947
21
1.061381
31
0.0
0
LINE
8
LEFT_HID
6
HIDDEN
10
0.794947
20
1.061381
30
0.0
11
0.794947
21
1.060517
31
0.0
0
LINE
8
LEFT_HID
6
HIDDEN
10
0.794947
20
1.060517
30
0.0
11
0.794947
21
1.059653
31
0.0
0
LINE
8
LEFT_HID
6
HIDDEN
10
0.794947
20
1.059653
30
0.0
11
0.794947
21
1.058789
31
0.0
0
LINE
8
LEFT_HID
6
HIDDEN
10
0.794947
20
1.058789
30
0.0
11
0.794947
21
1.057925
31
0.0
0
LINE
8
LEFT_HID
6
HIDDEN
10
0.794947
20
1.057925
30
0.0
11
0.794947
21
1.058789
31
0.0
0
LINE
8
LEFT_HID
6
HIDDEN
10
0.794947
20
1.058789
30
0.0
11
0.794947
21
1.059653
31
0.0
0
LINE
8
LEFT_HID
6
HIDDEN
10
0.794947
20
1.059653
30
0.0
11
0.794947
21
1.060517
31
0.0
0
LINE
8
LEFT_HID
6
HIDDEN
10
0.794947
20
1.060517
30
0.0
11
0.794947
21
1.061381
31
0.0
0
LINE
8
LEFT_HID
6
HIDDEN
10
0.794947
20
1.061381
30
0.0
11
0.794947
21
1.062245
31
0.0
0
LINE
8
LEFT_HID
6
HIDDEN
10
0.794947
20
1.062245
30
0.0
11
0.794947
21
1.063109
31
0.0
0
LINE
8
LEFT_HID
6
HIDDEN
10
0.794947
20
1.063109
30
0.0
11
0.794947
21
1.063973
31
0.0
0
LINE
8
LEFT_HID
6
HIDDEN
10
0.794947
20
1.063973
30
0.0
11
0.794947
21
1.064837
31
0.0
0
LINE
8
LEFT_HID
6
HIDDEN
10
0.794947
20
1.064837
30
0.0
11
0.794947
21
1.065701
31
0.0
0
LINE
8
LEFT_HID
6
HIDDEN
10
0.794947
20
1.065701
30
0.0
11
0.794947
21
1.066565
31
0.0
0
LINE
8
LEFT_HID
6
HIDDEN
10
0.794947
20
1.066565
30
0.0
11
0.794947
21
1.067429
31
0.0
0
LINE
8
LEFT_HID
6
HIDDEN
10
0.794947
20
1.067429
30
0.0
11
0.794947
21
1.068293
31
0.0
0
LINE
8
LEFT_HID
6
HIDDEN
10
0.794947
20
1.068293
30
0.0
11
0.794947
21
1.069157
31
0.0
0
LINE
8
LEFT_HID
6
HIDDEN
10
0.794947
20
1.069157
30
0.0
11
0.794947
21
1.070021
31
0.0
0
LINE
8
LEFT_HID
6
HIDDEN
10
0.794947
20
1.070021
30
0.0
11
0.794947
21
1.070885
31
0.0
0
LINE
8
LEFT_HID
6
HIDDEN
10
0.794947
20
1.070885
30
0.0
11
0.794947
21
1.071749
31
0.0
0
LINE
8
LEFT_HID
6
HIDDEN
10
0.794947
20
1.071749
30
0.0
11
0.794947
21
1.072614
31
0.0
0
LINE
8
LEFT_HID
6
HIDDEN
10
0.794947
20
1.072614
30
0.0
11
0.794947
21
1.073478
31
0.0
0
LINE
8
LEFT_HID
6
HIDDEN
10
0.794947
20
1.073478
30
0.0
11
0.794947
21
1.074342
31
0.0
0
LINE
8
LEFT_HID
6
HIDDEN
10
0.794947
20
1.074342
30
0.0
11
0.794947
21
1.075206
31
0.0
0
LINE
8
LEFT_HID
6
HIDDEN
10
0.794947
20
1.075206
30
0.0
11
0.794947
21
1.076070
31
0.0
0
LINE
8
LEFT_HID
6
HIDDEN
10
0.794947
20
1.076070
30
0.0
11
0.794947
21
1.076934
31
0.0
0
LINE
8
LEFT_HID
6
HIDDEN
10
0.794947
20
1.076934
30
0.0
11
0.794947
21
1.077798
31
0.0
0
LINE
8
LEFT_HID
6
HIDDEN
10
0.794947
20
1.077798
30
0.0
11
0.794947
21
1.078662
31
0.0
0
LINE
8
LEFT_HID
6
HIDDEN
10
0.794947
20
1.078662
30
0.0
11
0.794947
21
1.079526
31
0.0
0
LINE
8
LEFT_HID
6
HIDDEN
10
0.794947
20
1.079526
30
0.0
11
0.794947
21
1.080390
31
0.0
0
LINE
8
LEFT_HID
6
HIDDEN
10
0.794947
20
1.080390
30
0.0
11
0.794947
21
1.081254
31
0.0
0
LINE
8
LEFT_HID
6
HIDDEN
10
0.794947
20
1.081254
30
0.0
11
0.794947
21
1.082118
31
0.0
0
LINE
8
LEFT_HID
6
HIDDEN
10
0.794947
20
1.082118
30
0.0
11
0.794947
21
1.082982
31
0.0
0
LINE
8
LEFT_HID
6
HIDDEN
10
0.794947
20
1.082982
30
0.0
11
0.794947
21
1.083846
31
0.0
0
LINE
8
LEFT_HID
6
HIDDEN
10
0.794947
20
1.083846
30
0.0
11
0.794947
21
1.084710
31
0.0
0
LINE
8
LEFT_HID
6
HIDDEN
10
0.794947
20
1.084710
30
0.0
11
0.794947
21
1.220701
31
0.0
0
LINE
8
LEFT_HID
6
HIDDEN
10
0.794947
20
1.220701
30
0.0
11
0.794947
21
1.221565
31
0.0
0
LINE
8
LEFT_HID
6
HIDDEN
10
0.794947
20
1.221565
30
0.0
11
0.794947
21
1.222429
31
0.0
0
LINE
8
LEFT_HID
6
HIDDEN
10
0.794947
20
1.222429
30
0.0
11
0.794947
21
1.223293
31
0.0
0
LINE
8
LEFT_HID
6
HIDDEN
10
0.794947
20
1.223293
30
0.0
11
0.794947
21
1.224157
31
0.0
0
LINE
8
LEFT_HID
6
HIDDEN
10
0.794947
20
1.224157
30
0.0
11
0.794947
21
1.225021
31
0.0
0
LINE
8
LEFT_HID
6
HIDDEN
10
0.794947
20
1.225021
30
0.0
11
0.794947
21
1.225885
31
0.0
0
LINE
8
LEFT_HID
6
HIDDEN
10
0.794947
20
1.225885
30
0.0
11
0.794947
21
1.226749
31
0.0
0
LINE
8
LEFT_HID
6
HIDDEN
10
0.794947
20
1.226749
30
0.0
11
0.794947
21
1.227613
31
0.0
0
LINE
8
LEFT_HID
6
HIDDEN
10
0.794947
20
1.227613
30
0.0
11
0.794947
21
1.228477
31
0.0
0
LINE
8
LEFT_HID
6
HIDDEN
10
0.794947
20
1.228477
30
0.0
11
0.794947
21
1.229341
31
0.0
0
LINE
8
LEFT_HID
6
HIDDEN
10
0.794947
20
1.229341
30
0.0
11
0.794947
21
1.230205
31
0.0
0
LINE
8
LEFT_HID
6
HIDDEN
10
0.794947
20
1.230205
30
0.0
11
0.794947
21
1.231069
31
0.0
0
LINE
8
LEFT_HID
6
HIDDEN
10
0.794947
20
1.231069
30
0.0
11
0.794947
21
1.231933
31
0.0
0
LINE
8
LEFT_HID
6
HIDDEN
10
0.794947
20
1.231933
30
0.0
11
0.794947
21
1.232797
31
0.0
0
LINE
8
LEFT_HID
6
HIDDEN
10
0.794947
20
1.232797
30
0.0
11
0.794947
21
1.233661
31
0.0
0
LINE
8
LEFT_HID
6
HIDDEN
10
0.794947
20
1.233661
30
0.0
11
0.794947
21
1.234525
31
0.0
0
LINE
8
LEFT_HID
6
HIDDEN
10
0.794947
20
1.234525
30
0.0
11
0.794947
21
1.235389
31
0.0
0
LINE
8
LEFT_HID
6
HIDDEN
10
0.794947
20
1.235389
30
0.0
11
0.794947
21
1.236253
31
0.0
0
LINE
8
LEFT_HID
6
HIDDEN
10
0.794947
20
1.236253
30
0.0
11
0.794947
21
1.237117
31
0.0
0
LINE
8
LEFT_HID
6
HIDDEN
10
0.794947
20
1.237117
30
0.0
11
0.794947
21
1.237981
31
0.0
0
LINE
8
LEFT_HID
6
HIDDEN
10
0.794947
20
1.237981
30
0.0
11
0.794947
21
1.238845
31
0.0
0
LINE
8
LEFT_HID
6
HIDDEN
10
0.794947
20
1.238845
30
0.0
11
0.794947
21
1.239710
31
0.0
0
LINE
8
LEFT_HID
6
HIDDEN
10
0.794947
20
1.239710
30
0.0
11
0.794947
21
1.240574
31
0.0
0
LINE
8
LEFT_HID
6
HIDDEN
10
0.794947
20
1.240574
30
0.0
11
0.794947
21
1.241438
31
0.0
0
LINE
8
LEFT_HID
6
HIDDEN
10
0.794947
20
1.241438
30
0.0
11
0.794947
21
1.242302
31
0.0
0
LINE
8
LEFT_HID
6
HIDDEN
10
0.794947
20
1.242302
30
0.0
11
0.794947
21
1.243166
31
0.0
0
LINE
8
LEFT_HID
6
HIDDEN
10
0.794947
20
1.243166
30
0.0
11
0.794947
21
1.244030
31
0.0
0
LINE
8
LEFT_HID
6
HIDDEN
10
0.794947
20
1.244030
30
0.0
11
0.794947
21
1.244894
31
0.0
0
LINE
8
LEFT_HID
6
HIDDEN
10
0.794947
20
1.244894
30
0.0
11
0.794947
21
1.245758
31
0.0
0
LINE
8
LEFT_HID
6
HIDDEN
10
0.794947
20
1.245758
30
0.0
11
0.794947
21
1.246622
31
0.0
0
LINE
8
LEFT_HID
6
HIDDEN
10
0.794947
20
1.246622
30
0.0
11
0.794947
21
1.247486
31
0.0
0
LINE
8
LEFT_HID
6
HIDDEN
10
0.794947
20
1.247486
30
0.0
11
0.794947
21
1.246622
31
0.0
0
LINE
8
LEFT_HID
6
HIDDEN
10
0.794947
20
1.246622
30
0.0
11
0.794947
21
1.245758
31
0.0
0
LINE
8
LEFT_HID
6
HIDDEN
10
0.794947
20
1.245758
30
0.0
11
0.794947
21
1.244894
31
0.0
0
LINE
8
LEFT_HID
6
HIDDEN
10
0.794947
20
1.244894
30
0.0
11
0.794947
21
1.244030
31
0.0
0
LINE
8
LEFT_HID
6
HIDDEN
10
0.794947
20
1.244030
30
0.0
11
0.794947
21
1.243166
31
0.0
0
LINE
8
LEFT_HID
6
HIDDEN
10
0.794947
20
1.243166
30
0.0
11
0.794947
21
1.242302
31
0.0
0
LINE
8
LEFT_HID
6
HIDDEN
10
0.794947
20
1.242302
30
0.0
11
0.794947
21
1.241438
31
0.0
0
LINE
8
LEFT_HID
6
HIDDEN
10
0.794947
20
1.241438
30
0.0
11
0.794947
21
1.240574
31
0.0
0
LINE
8
LEFT_HID
6
HIDDEN
10
0.794947
20
1.240574
30
0.0
11
0.794947
21
1.239710
31
0.0
0
LINE
8
LEFT_HID
6
HIDDEN
10
0.794947
20
1.239710
30
0.0
11
0.794947
21
1.238845
31
0.0
0
LINE
8
LEFT_HID
6
HIDDEN
10
0.794947
20
1.238845
30
0.0
11
0.794947
21
1.237981
31
0.0
0
LINE
8
LEFT_HID
6
HIDDEN
10
0.794947
20
1.237981
30
0.0
11
0.794947
21
1.237117
31
0.0
0
LINE
8
LEFT_HID
6
HIDDEN
10
0.794947
20
1.237117
30
0.0
11
0.794947
21
1.236253
31
0.0
0
LINE
8
LEFT_HID
6
HIDDEN
10
0.794947
20
1.236253
30
0.0
11
0.794947
21
1.235389
31
0.0
0
LINE
8
LEFT_HID
6
HIDDEN
10
0.794947
20
1.235389
30
0.0
11
0.794947
21
1.234525
31
0.0
0
LINE
8
LEFT_HID
6
HIDDEN
10
0.794947
20
1.234525
30
0.0
11
0.794947
21
1.233661
31
0.0
0
LINE
8
LEFT_HID
6
HIDDEN
10
0.794947
20
1.233661
30
0.0
11
0.794947
21
1.232797
31
0.0
0
LINE
8
LEFT_HID
6
HIDDEN
10
0.794947
20
1.232797
30
0.0
11
0.794947
21
1.231933
31
0.0
0
LINE
8
LEFT_HID
6
HIDDEN
10
0.794947
20
1.231933
30
0.0
11
0.794947
21
1.231069
31
0.0
0
LINE
8
LEFT_HID
6
HIDDEN
10
0.794947
20
1.231069
30
0.0
11
0.794947
21
1.230205
31
0.0
0
LINE
8
LEFT_HID
6
HIDDEN
10
0.794947
20
1.230205
30
0.0
11
0.794947
21
1.229341
31
0.0
0
LINE
8
LEFT_HID
6
HIDDEN
10
0.794947
20
1.229341
30
0.0
11
0.794947
21
1.228477
31
0.0
0
LINE
8
LEFT_HID
6
HIDDEN
10
0.794947
20
1.228477
30
0.0
11
0.794947
21
1.227613
31
0.0
0
LINE
8
LEFT_HID
6
HIDDEN
10
0.794947
20
1.227613
30
0.0
11
0.794947
21
1.226749
31
0.0
0
LINE
8
LEFT_HID
6
HIDDEN
10
0.794947
20
1.226749
30
0.0
11
0.794947
21
1.225885
31
0.0
0
LINE
8
LEFT_HID
6
HIDDEN
10
0.794947
20
1.225885
30
0.0
11
0.794947
21
1.225021
31
0.0
0
LINE
8
LEFT_HID
6
HIDDEN
10
0.794947
20
1.225021
30
0.0
11
0.794947
21
1.224157
31
0.0
0
LINE
8
LEFT_HID
6
HIDDEN
10
0.794947
20
1.224157
30
0.0
11
0.794947
21
1.223293
31
0.0
0
LINE
8
LEFT_HID
6
HIDDEN
10
0.794947
20
1.223293
30
0.0
11
0.794947
21
1.222429
31
0.0
0
LINE
8
LEFT_HID
6
HIDDEN
10
0.794947
20
1.222429
30
0.0
11
0.794947
21
1.221565
31
0.0
0
LINE
8
LEFT_HID
6
HIDDEN
10
0.794947
20
1.221565
30
0.0
11
0.794947
21
1.220701
31
0.0
0
LINE
8
LEFT_HID
6
HIDDEN
10
0.794947
20
1.220701
30
0.0
11
0.794947
21
1.152705
31
0.0
0
LINE
8
LEFT_HID
6
HIDDEN
10
0.604522
20
1.084710
30
0.0
11
0.794947
21
1.084710
31
0.0
0
LINE
8
LEFT_HID
6
HIDDEN
10
0.604522
20
1.220701
30
0.0
11
0.794947
21
1.220701
31
0.0
0
LINE
8
LEFT_HID
6
HIDDEN
10
0.604522
20
1.084710
30
0.0
11
0.794947
21
1.084710
31
0.0
0
LINE
8
LEFT_HID
6
HIDDEN
10
0.604522
20
1.220701
30
0.0
11
0.794947
21
1.220701
31
0.0
0
LINE
8
TOP
10
0.000000
20
0.190425
30
0.0
11
0.000000
21
0.000000
31
0.0
0
LINE
8
TOP
10
0.392241
20
0.190425
30
0.0
11
0.392241
21
0.000000
31
0.0
0
LINE
8
TOP
10
0.392241
20
0.190425
30
0.0
11
0.000000
21
0.190425
31
0.0
0
LINE
8
TOP
10
0.392241
20
0.000000
30
0.0
11
0.000000
21
0.000000
31
0.0
0
LINE
8
TOP_HID
6
HIDDEN
10
0.095422
20
0.190425
30
0.0
11
0.123986
21
0.190425
31
0.0
0
LINE
8
TOP_HID
6
HIDDEN
10
0.123986
20
0.190425
30
0.0
11
0.257284
21
0.190425
31
0.0
0
LINE
8
TOP_HID
6
HIDDEN
10
0.257284
20
0.190425
30
0.0
11
0.285848
21
0.190425
31
0.0
0
LINE
8
TOP_HID
6
HIDDEN
10
0.285848
20
0.190425
30
0.0
11
0.257284
21
0.190425
31
0.0
0
LINE
8
TOP_HID
6
HIDDEN
10
0.257284
20
0.190425
30
0.0
11
0.123986
21
0.190425
31
0.0
0
LINE
8
TOP_HID
6
HIDDEN
10
0.123986
20
0.190425
30
0.0
11
0.095422
21
0.190425
31
0.0
0
LINE
8
TOP_HID
6
HIDDEN
10
0.095422
20
0.000000
30
0.0
11
0.123986
21
0.000000
31
0.0
0
LINE
8
TOP_HID
6
HIDDEN
10
0.123986
20
0.000000
30
0.0
11
0.257284
21
0.000000
31
0.0
0
LINE
8
TOP_HID
6
HIDDEN
10
0.257284
20
0.000000
30
0.0
11
0.285848
21
0.000000
31
0.0
0
LINE
8
TOP_HID
6
HIDDEN
10
0.285848
20
0.000000
30
0.0
11
0.257284
21
0.000000
31
0.0
0
LINE
8
TOP_HID
6
HIDDEN
10
0.257284
20
0.000000
30
0.0
11
0.123986
21
0.000000
31
0.0
0
LINE
8
TOP_HID
6
HIDDEN
10
0.123986
20
0.000000
30
0.0
11
0.095422
21
0.000000
31
0.0
0
LINE
8
TOP_HID
6
HIDDEN
10
0.123986
20
0.190425
30
0.0
11
0.123986
21
0.000000
31
0.0
0
LINE
8
TOP_HID
6
HIDDEN
10
0.095422
20
0.190425
30
0.0
11
0.095422
21
0.000000
31
0.0
0
LINE
8
TOP_HID
6
HIDDEN
10
0.257284
20
0.190425
30
0.0
11
0.123986
21
0.190425
31
0.0
0
LINE
8
TOP_HID
6
HIDDEN
10
0.257284
20
0.190425
30
0.0
11
0.257284
21
0.000000
31
0.0
0
LINE
8
TOP_HID
6
HIDDEN
10
0.257284
20
0.190425
30
0.0
11
0.257284
21
0.000000
31
0.0
0
LINE
8
TOP_HID
6
HIDDEN
10
0.123986
20
0.190425
30
0.0
11
0.257284
21
0.190425
31
0.0
0
LINE
8
TOP_HID
6
HIDDEN
10
0.123986
20
0.190425
30
0.0
11
0.123986
21
0.000000
31
0.0
0
LINE
8
TOP_HID
6
HIDDEN
10
0.257284
20
0.000000
30
0.0
11
0.123986
21
0.000000
31
0.0
0
LINE
8
TOP_HID
6
HIDDEN
10
0.123986
20
0.000000
30
0.0
11
0.257284
21
0.000000
31
0.0
0
LINE
8
TOP_HID
6
HIDDEN
10
0.285848
20
0.000000
30
0.0
11
0.285848
21
0.190425
31
0.0
0
ENDSEC
0
EOF
