0
SECTION
2
HEADER
9
$ACADVER
1
AC1009
0
ENDSEC
0
SECTION
2
TABLES
0
TABLE
2
LTYPE
70
3
0
LTYPE
2
CONTINUOUS
70
0
3
Solid line
72
65
73
0
40
0.0
0
LTYPE
2
HIDDEN
70
0
3
__ __ __ __ __
72
65
73
2
40
0.059519
49
0.039699
49
-0.019820
0
LTYPE
2
CENTER
70
0
3
___ _ ___ _ ___
72
65
73
4
40
0.138857
49
0.079338
49
-0.019820
49
0.019820
49
-0.019820
0
ENDTAB
0
TABLE
2
LAYER
70
6
0
LAYER
2
0
70
0
62
7
6
CONTINUOUS
0
LAYER
2
FRONT
70
0
62
7
6
CONTINUOUS
0
LAYER
2
LEFT
70
0
62
7
6
CONTINUOUS
0
LAYER
2
LEFT_HID
70
0
62
7
6
HIDDEN
0
LAYER
2
TOP
70
0
62
7
6
CONTINUOUS
0
LAYER
2
TOP_HID
70
0
62
7
6
HIDDEN
0
ENDTAB
0
ENDSEC
0
SECTION
2
ENTITIES
0
LINE
8
FRONT
10
0.775125
20
1.289995
30
0.0
11
0.775435
21
1.298270
31
0.0
0
LINE
8
FRONT
10
0.775435
20
1.298270
30
0.0
11
0.776362
21
1.306499
31
0.0
0
LINE
8
FRONT
10
0.776362
20
1.306499
30
0.0
11
0.777901
21
1.314635
31
0.0
0
LINE
8
FRONT
10
0.777901
20
1.314635
30
0.0
11
0.780045
21
1.322634
31
0.0
0
LINE
8
FRONT
10
0.780045
20
1.322634
30
0.0
11
0.782780
21
1.330450
31
0.0
0
LINE
8
FRONT
10
0.782780
20
1.330450
30
0.0
11
0.786091
21
1.338040
31
0.0
0
LINE
8
FRONT
10
0.786091
20
1.338040
30
0.0
11
0.789960
21
1.345361
31
0.0
0
LINE
8
FRONT
10
0.789960
20
1.345361
30
0.0
11
0.794366
21
1.352373
31
0.0
0
LINE
8
FRONT
10
0.794366
20
1.352373
30
0.0
11
0.799283
21
1.359036
31
0.0
0
LINE
8
FRONT
10
0.799283
20
1.359036
30
0.0
11
0.804685
21
1.365312
31
0.0
0
LINE
8
FRONT
10
0.804685
20
1.365312
30
0.0
11
0.810540
21
1.371168
31
0.0
0
LINE
8
FRONT
10
0.810540
20
1.371168
30
0.0
11
0.816817
21
1.376569
31
0.0
0
LINE
8
FRONT
10
0.816817
20
1.376569
30
0.0
11
0.823480
21
1.381486
31
0.0
0
LINE
8
FRONT
10
0.823480
20
1.381486
30
0.0
11
0.830491
21
1.385892
31
0.0
0
LINE
8
FRONT
10
0.830491
20
1.385892
30
0.0
11
0.837812
21
1.389761
31
0.0
0
LINE
8
FRONT
10
0.837812
20
1.389761
30
0.0
11
0.845402
21
1.393073
31
0.0
0
LINE
8
FRONT
10
0.845402
20
1.393073
30
0.0
11
0.853218
21
1.395808
31
0.0
0
LINE
8
FRONT
10
0.853218
20
1.395808
30
0.0
11
0.861217
21
1.397951
31
0.0
0
LINE
8
FRONT
10
0.861217
20
1.397951
30
0.0
11
0.869353
21
1.399491
31
0.0
0
LINE
8
FRONT
10
0.869353
20
1.399491
30
0.0
11
0.877582
21
1.400418
31
0.0
0
LINE
8
FRONT
10
0.877582
20
1.400418
30
0.0
11
0.885857
21
1.400727
31
0.0
0
LINE
8
FRONT
10
0.885857
20
1.400727
30
0.0
11
0.894132
21
1.400418
31
0.0
0
LINE
8
FRONT
10
0.894132
20
1.400418
30
0.0
11
0.902361
21
1.399491
31
0.0
0
LINE
8
FRONT
10
0.902361
20
1.399491
30
0.0
11
0.910497
21
1.397951
31
0.0
0
LINE
8
FRONT
10
0.910497
20
1.397951
30
0.0
11
0.918496
21
1.395808
31
0.0
0
LINE
8
FRONT
10
0.918496
20
1.395808
30
0.0
11
0.926312
21
1.393073
31
0.0
0
LINE
8
FRONT
10
0.926312
20
1.393073
30
0.0
11
0.933902
21
1.389761
31
0.0
0
LINE
8
FRONT
10
0.933902
20
1.389761
30
0.0
11
0.941223
21
1.385892
31
0.0
0
LINE
8
FRONT
10
0.941223
20
1.385892
30
0.0
11
0.948235
21
1.381486
31
0.0
0
LINE
8
FRONT
10
0.948235
20
1.381486
30
0.0
11
0.954898
21
1.376569
31
0.0
0
LINE
8
FRONT
10
0.954898
20
1.376569
30
0.0
11
0.961174
21
1.371168
31
0.0
0
LINE
8
FRONT
10
0.961174
20
1.371168
30
0.0
11
0.967030
21
1.365312
31
0.0
0
LINE
8
FRONT
10
0.967030
20
1.365312
30
0.0
11
0.972431
21
1.359036
31
0.0
0
LINE
8
FRONT
10
0.972431
20
1.359036
30
0.0
11
0.977348
21
1.352373
31
0.0
0
LINE
8
FRONT
10
0.977348
20
1.352373
30
0.0
11
0.981754
21
1.345361
31
0.0
0
LINE
8
FRONT
10
0.981754
20
1.345361
30
0.0
11
0.985623
21
1.338040
31
0.0
0
LINE
8
FRONT
10
0.985623
20
1.338040
30
0.0
11
0.988935
21
1.330450
31
0.0
0
LINE
8
FRONT
10
0.988935
20
1.330450
30
0.0
11
0.991670
21
1.322634
31
0.0
0
LINE
8
FRONT
10
0.991670
20
1.322634
30
0.0
11
0.993813
21
1.314635
31
0.0
0
LINE
8
FRONT
10
0.993813
20
1.314635
30
0.0
11
0.995353
21
1.306499
31
0.0
0
LINE
8
FRONT
10
0.995353
20
1.306499
30
0.0
11
0.996280
21
1.298270
31
0.0
0
LINE
8
FRONT
10
0.996280
20
1.298270
30
0.0
11
0.996589
21
1.289995
31
0.0
0
LINE
8
FRONT
10
0.996589
20
1.289995
30
0.0
11
0.996280
21
1.281720
31
0.0
0
LINE
8
FRONT
10
0.996280
20
1.281720
30
0.0
11
0.995353
21
1.273491
31
0.0
0
LINE
8
FRONT
10
0.995353
20
1.273491
30
0.0
11
0.993813
21
1.265355
31
0.0
0
LINE
8
FRONT
10
0.993813
20
1.265355
30
0.0
11
0.991670
21
1.257356
31
0.0
0
LINE
8
FRONT
10
0.991670
20
1.257356
30
0.0
11
0.988935
21
1.249540
31
0.0
0
LINE
8
FRONT
10
0.988935
20
1.249540
30
0.0
11
0.985623
21
1.241950
31
0.0
0
LINE
8
FRONT
10
0.985623
20
1.241950
30
0.0
11
0.981754
21
1.234629
31
0.0
0
LINE
8
FRONT
10
0.981754
20
1.234629
30
0.0
11
0.977348
21
1.227617
31
0.0
0
LINE
8
FRONT
10
0.977348
20
1.227617
30
0.0
11
0.972431
21
1.220955
31
0.0
0
LINE
8
FRONT
10
0.972431
20
1.220955
30
0.0
11
0.967030
21
1.214678
31
0.0
0
LINE
8
FRONT
10
0.967030
20
1.214678
30
0.0
11
0.961174
21
1.208823
31
0.0
0
LINE
8
FRONT
10
0.961174
20
1.208823
30
0.0
11
0.954898
21
1.203421
31
0.0
0
LINE
8
FRONT
10
0.954898
20
1.203421
30
0.0
11
0.948235
21
1.198504
31
0.0
0
LINE
8
FRONT
10
0.948235
20
1.198504
30
0.0
11
0.941223
21
1.194098
31
0.0
0
LINE
8
FRONT
10
0.941223
20
1.194098
30
0.0
11
0.933902
21
1.190229
31
0.0
0
LINE
8
FRONT
10
0.933902
20
1.190229
30
0.0
11
0.926312
21
1.186917
31
0.0
0
LINE
8
FRONT
10
0.926312
20
1.186917
30
0.0
11
0.918496
21
1.184183
31
0.0
0
LINE
8
FRONT
10
0.918496
20
1.184183
30
0.0
11
0.910497
21
1.182039
31
0.0
0
LINE
8
FRONT
10
0.910497
20
1.182039
30
0.0
11
0.902361
21
1.180500
31
0.0
0
LINE
8
FRONT
10
0.902361
20
1.180500
30
0.0
11
0.894132
21
1.179573
31
0.0
0
LINE
8
FRONT
10
0.894132
20
1.179573
30
0.0
11
0.885857
21
1.179263
31
0.0
0
LINE
8
FRONT
10
0.885857
20
1.179263
30
0.0
11
0.883097
21
1.179297
31
0.0
0
LINE
8
FRONT
10
0.883097
20
1.179297
30
0.0
11
0.880338
21
1.179401
31
0.0
0
LINE
8
FRONT
10
0.880338
20
1.179401
30
0.0
11
0.877582
21
1.179573
31
0.0
0
LINE
8
FRONT
10
0.877582
20
1.179573
30
0.0
11
0.874832
21
1.179813
31
0.0
0
LINE
8
FRONT
10
0.874832
20
1.179813
30
0.0
11
0.872088
21
1.180122
31
0.0
0
LINE
8
FRONT
10
0.872088
20
1.180122
30
0.0
11
0.869353
21
1.180500
31
0.0
0
LINE
8
FRONT
10
0.869353
20
1.180500
30
0.0
11
0.866629
21
1.180945
31
0.0
0
LINE
8
FRONT
10
0.866629
20
1.180945
30
0.0
11
0.863916
21
1.181459
31
0.0
0
LINE
8
FRONT
10
0.863916
20
1.181459
30
0.0
11
0.861217
21
1.182039
31
0.0
0
LINE
8
FRONT
10
0.861217
20
1.182039
30
0.0
11
0.858533
21
1.182687
31
0.0
0
LINE
8
FRONT
10
0.858533
20
1.182687
30
0.0
11
0.855866
21
1.183402
31
0.0
0
LINE
8
FRONT
10
0.855866
20
1.183402
30
0.0
11
0.853218
21
1.184183
31
0.0
0
LINE
8
FRONT
10
0.853218
20
1.184183
30
0.0
11
0.850590
21
1.185029
31
0.0
0
LINE
8
FRONT
10
0.850590
20
1.185029
30
0.0
11
0.847985
21
1.185941
31
0.0
0
LINE
8
FRONT
10
0.847985
20
1.185941
30
0.0
11
0.845402
21
1.186917
31
0.0
0
LINE
8
FRONT
10
0.845402
20
1.186917
30
0.0
11
0.842845
21
1.187958
31
0.0
0
LINE
8
FRONT
10
0.842845
20
1.187958
30
0.0
11
0.840315
21
1.189062
31
0.0
0
LINE
8
FRONT
10
0.840315
20
1.189062
30
0.0
11
0.837812
21
1.190229
31
0.0
0
LINE
8
FRONT
10
0.837812
20
1.190229
30
0.0
11
0.835340
21
1.191458
31
0.0
0
LINE
8
FRONT
10
0.835340
20
1.191458
30
0.0
11
0.832899
21
1.192748
31
0.0
0
LINE
8
FRONT
10
0.832899
20
1.192748
30
0.0
11
0.830491
21
1.194098
31
0.0
0
LINE
8
FRONT
10
0.830491
20
1.194098
30
0.0
11
0.828118
21
1.195508
31
0.0
0
LINE
8
FRONT
10
0.828118
20
1.195508
30
0.0
11
0.825780
21
1.196977
31
0.0
0
LINE
8
FRONT
10
0.825780
20
1.196977
30
0.0
11
0.823480
21
1.198504
31
0.0
0
LINE
8
FRONT
10
0.823480
20
1.198504
30
0.0
11
0.821218
21
1.200087
31
0.0
0
LINE
8
FRONT
10
0.821218
20
1.200087
30
0.0
11
0.818997
21
1.201727
31
0.0
0
LINE
8
FRONT
10
0.818997
20
1.201727
30
0.0
11
0.816817
21
1.203421
31
0.0
0
LINE
8
FRONT
10
0.816817
20
1.203421
30
0.0
11
0.814680
21
1.205169
31
0.0
0
LINE
8
FRONT
10
0.814680
20
1.205169
30
0.0
11
0.812587
21
1.206970
31
0.0
0
LINE
8
FRONT
10
0.812587
20
1.206970
30
0.0
11
0.810540
21
1.208823
31
0.0
0
LINE
8
FRONT
10
0.810540
20
1.208823
30
0.0
11
0.808540
21
1.210726
31
0.0
0
LINE
8
FRONT
10
0.808540
20
1.210726
30
0.0
11
0.806588
21
1.212678
31
0.0
0
LINE
8
FRONT
10
0.806588
20
1.212678
30
0.0
11
0.804685
21
1.214678
31
0.0
0
LINE
8
FRONT
10
0.804685
20
1.214678
30
0.0
11
0.802832
21
1.216725
31
0.0
0
LINE
8
FRONT
10
0.802832
20
1.216725
30
0.0
11
0.801031
21
1.218818
31
0.0
0
LINE
8
FRONT
10
0.801031
20
1.218818
30
0.0
11
0.799283
21
1.220955
31
0.0
0
LINE
8
FRONT
10
0.799283
20
1.220955
30
0.0
11
0.797589
21
1.223135
31
0.0
0
LINE
8
FRONT
10
0.797589
20
1.223135
30
0.0
11
0.795950
21
1.225356
31
0.0
0
LINE
8
FRONT
10
0.795950
20
1.225356
30
0.0
11
0.794366
21
1.227617
31
0.0
0
LINE
8
FRONT
10
0.794366
20
1.227617
30
0.0
11
0.792839
21
1.229918
31
0.0
0
LINE
8
FRONT
10
0.792839
20
1.229918
30
0.0
11
0.791370
21
1.232255
31
0.0
0
LINE
8
FRONT
10
0.791370
20
1.232255
30
0.0
11
0.789960
21
1.234629
31
0.0
0
LINE
8
FRONT
10
0.789960
20
1.234629
30
0.0
11
0.788610
21
1.237037
31
0.0
0
LINE
8
FRONT
10
0.788610
20
1.237037
30
0.0
11
0.787320
21
1.239478
31
0.0
0
LINE
8
FRONT
10
0.787320
20
1.239478
30
0.0
11
0.786091
21
1.241950
31
0.0
0
LINE
8
FRONT
10
0.786091
20
1.241950
30
0.0
11
0.784924
21
1.244452
31
0.0
0
LINE
8
FRONT
10
0.784924
20
1.244452
30
0.0
11
0.783820
21
1.246983
31
0.0
0
LINE
8
FRONT
10
0.783820
20
1.246983
30
0.0
11
0.782780
21
1.249540
31
0.0
0
LINE
8
FRONT
10
0.782780
20
1.249540
30
0.0
11
0.781803
21
1.252123
31
0.0
0
LINE
8
FRONT
10
0.781803
20
1.252123
30
0.0
11
0.780891
21
1.254728
31
0.0
0
LINE
8
FRONT
10
0.780891
20
1.254728
30
0.0
11
0.780045
21
1.257356
31
0.0
0
LINE
8
FRONT
10
0.780045
20
1.257356
30
0.0
11
0.779264
21
1.260004
31
0.0
0
LINE
8
FRONT
10
0.779264
20
1.260004
30
0.0
11
0.778549
21
1.262671
31
0.0
0
LINE
8
FRONT
10
0.778549
20
1.262671
30
0.0
11
0.777901
21
1.265355
31
0.0
0
LINE
8
FRONT
10
0.777901
20
1.265355
30
0.0
11
0.777321
21
1.268054
31
0.0
0
LINE
8
FRONT
10
0.777321
20
1.268054
30
0.0
11
0.776807
21
1.270767
31
0.0
0
LINE
8
FRONT
10
0.776807
20
1.270767
30
0.0
11
0.776362
21
1.273491
31
0.0
0
LINE
8
FRONT
10
0.776362
20
1.273491
30
0.0
11
0.775984
21
1.276226
31
0.0
0
LINE
8
FRONT
10
0.775984
20
1.276226
30
0.0
11
0.775675
21
1.278970
31
0.0
0
LINE
8
FRONT
10
0.775675
20
1.278970
30
0.0
11
0.775435
21
1.281720
31
0.0
0
LINE
8
FRONT
10
0.775435
20
1.281720
30
0.0
11
0.775263
21
1.284476
31
0.0
0
LINE
8
FRONT
10
0.775263
20
1.284476
30
0.0
11
0.775159
21
1.287235
31
0.0
0
LINE
8
FRONT
10
0.775159
20
1.287235
30
0.0
11
0.775125
21
1.289995
31
0.0
0
LINE
8
FRONT
10
0.885857
20
1.096214
30
0.0
11
0.900338
21
1.096756
31
0.0
0
LINE
8
FRONT
10
0.900338
20
1.096756
30
0.0
11
0.914739
21
1.098378
31
0.0
0
LINE
8
FRONT
10
0.914739
20
1.098378
30
0.0
11
0.928978
21
1.101072
31
0.0
0
LINE
8
FRONT
10
0.928978
20
1.101072
30
0.0
11
0.942975
21
1.104823
31
0.0
0
LINE
8
FRONT
10
0.942975
20
1.104823
30
0.0
11
0.956653
21
1.109609
31
0.0
0
LINE
8
FRONT
10
0.956653
20
1.109609
30
0.0
11
0.969936
21
1.115404
31
0.0
0
LINE
8
FRONT
10
0.969936
20
1.115404
30
0.0
11
0.982748
21
1.122176
31
0.0
0
LINE
8
FRONT
10
0.982748
20
1.122176
30
0.0
11
0.995018
21
1.129886
31
0.0
0
LINE
8
FRONT
10
0.995018
20
1.129886
30
0.0
11
1.006678
21
1.138491
31
0.0
0
LINE
8
FRONT
10
1.006678
20
1.138491
30
0.0
11
1.017662
21
1.147943
31
0.0
0
LINE
8
FRONT
10
1.017662
20
1.147943
30
0.0
11
1.027909
21
1.158190
31
0.0
0
LINE
8
FRONT
10
1.027909
20
1.158190
30
0.0
11
1.037361
21
1.169174
31
0.0
0
LINE
8
FRONT
10
1.037361
20
1.169174
30
0.0
11
1.045967
21
1.180834
31
0.0
0
LINE
8
FRONT
10
1.045967
20
1.180834
30
0.0
11
1.053677
21
1.193105
31
0.0
0
LINE
8
FRONT
10
1.053677
20
1.193105
30
0.0
11
1.060448
21
1.205917
31
0.0
0
LINE
8
FRONT
10
1.060448
20
1.205917
30
0.0
11
1.066243
21
1.219199
31
0.0
0
LINE
8
FRONT
10
1.066243
20
1.219199
30
0.0
11
1.071029
21
1.232877
31
0.0
0
LINE
8
FRONT
10
1.071029
20
1.232877
30
0.0
11
1.074780
21
1.246875
31
0.0
0
LINE
8
FRONT
10
1.074780
20
1.246875
30
0.0
11
1.077474
21
1.261114
31
0.0
0
LINE
8
FRONT
10
1.077474
20
1.261114
30
0.0
11
1.079097
21
1.275514
31
0.0
0
LINE
8
FRONT
10
1.079097
20
1.275514
30
0.0
11
1.079638
21
1.289995
31
0.0
0
LINE
8
FRONT
10
1.079638
20
1.289995
30
0.0
11
1.079097
21
1.304476
31
0.0
0
LINE
8
FRONT
10
1.079097
20
1.304476
30
0.0
11
1.077474
21
1.318877
31
0.0
0
LINE
8
FRONT
10
1.077474
20
1.318877
30
0.0
11
1.074780
21
1.333116
31
0.0
0
LINE
8
FRONT
10
1.074780
20
1.333116
30
0.0
11
1.071029
21
1.347113
31
0.0
0
LINE
8
FRONT
10
1.071029
20
1.347113
30
0.0
11
1.066243
21
1.360791
31
0.0
0
LINE
8
FRONT
10
1.066243
20
1.360791
30
0.0
11
1.060448
21
1.374074
31
0.0
0
LINE
8
FRONT
10
1.060448
20
1.374074
30
0.0
11
1.053677
21
1.386886
31
0.0
0
LINE
8
FRONT
10
1.053677
20
1.386886
30
0.0
11
1.045967
21
1.399156
31
0.0
0
LINE
8
FRONT
10
1.045967
20
1.399156
30
0.0
11
1.037361
21
1.410816
31
0.0
0
LINE
8
FRONT
10
1.037361
20
1.410816
30
0.0
11
1.027909
21
1.421800
31
0.0
0
LINE
8
FRONT
10
1.027909
20
1.421800
30
0.0
11
1.017662
21
1.432047
31
0.0
0
LINE
8
FRONT
10
1.017662
20
1.432047
30
0.0
11
1.006678
21
1.441499
31
0.0
0
LINE
8
FRONT
10
1.006678
20
1.441499
30
0.0
11
0.995018
21
1.450105
31
0.0
0
LINE
8
FRONT
10
0.995018
20
1.450105
30
0.0
11
0.982748
21
1.457815
31
0.0
0
LINE
8
FRONT
10
0.982748
20
1.457815
30
0.0
11
0.969936
21
1.464586
31
0.0
0
LINE
8
FRONT
10
0.969936
20
1.464586
30
0.0
11
0.956653
21
1.470381
31
0.0
0
LINE
8
FRONT
10
0.956653
20
1.470381
30
0.0
11
0.942975
21
1.475167
31
0.0
0
LINE
8
FRONT
10
0.942975
20
1.475167
30
0.0
11
0.928978
21
1.478918
31
0.0
0
LINE
8
FRONT
10
0.928978
20
1.478918
30
0.0
11
0.914739
21
1.481612
31
0.0
0
LINE
8
FRONT
10
0.914739
20
1.481612
30
0.0
11
0.900338
21
1.483235
31
0.0
0
LINE
8
FRONT
10
0.900338
20
1.483235
30
0.0
11
0.885857
21
1.483776
31
0.0
0
LINE
8
FRONT
10
0.885857
20
1.483776
30
0.0
11
0.871376
21
1.483235
31
0.0
0
LINE
8
FRONT
10
0.871376
20
1.483235
30
0.0
11
0.856976
21
1.481612
31
0.0
0
LINE
8
FRONT
10
0.856976
20
1.481612
30
0.0
11
0.842737
21
1.478918
31
0.0
0
LINE
8
FRONT
10
0.842737
20
1.478918
30
0.0
11
0.828739
21
1.475167
31
0.0
0
LINE
8
FRONT
10
0.828739
20
1.475167
30
0.0
11
0.815061
21
1.470381
31
0.0
0
LINE
8
FRONT
10
0.815061
20
1.470381
30
0.0
11
0.801779
21
1.464586
31
0.0
0
LINE
8
FRONT
10
0.801779
20
1.464586
30
0.0
11
0.788967
21
1.457815
31
0.0
0
LINE
8
FRONT
10
0.788967
20
1.457815
30
0.0
11
0.776696
21
1.450105
31
0.0
0
LINE
8
FRONT
10
0.776696
20
1.450105
30
0.0
11
0.765037
21
1.441499
31
0.0
0
LINE
8
FRONT
10
0.765037
20
1.441499
30
0.0
11
0.754052
21
1.432047
31
0.0
0
LINE
8
FRONT
10
0.754052
20
1.432047
30
0.0
11
0.743805
21
1.421800
31
0.0
0
LINE
8
FRONT
10
0.743805
20
1.421800
30
0.0
11
0.734353
21
1.410816
31
0.0
0
LINE
8
FRONT
10
0.734353
20
1.410816
30
0.0
11
0.725748
21
1.399156
31
0.0
0
LINE
8
FRONT
10
0.725748
20
1.399156
30
0.0
11
0.718038
21
1.386886
31
0.0
0
LINE
8
FRONT
10
0.718038
20
1.386886
30
0.0
11
0.711266
21
1.374074
31
0.0
0
LINE
8
FRONT
10
0.711266
20
1.374074
30
0.0
11
0.705471
21
1.360791
31
0.0
0
LINE
8
FRONT
10
0.705471
20
1.360791
30
0.0
11
0.700685
21
1.347113
31
0.0
0
LINE
8
FRONT
10
0.700685
20
1.347113
30
0.0
11
0.696934
21
1.333116
31
0.0
0
LINE
8
FRONT
10
0.696934
20
1.333116
30
0.0
11
0.694240
21
1.318877
31
0.0
0
LINE
8
FRONT
10
0.694240
20
1.318877
30
0.0
11
0.692618
21
1.304476
31
0.0
0
LINE
8
FRONT
10
0.692618
20
1.304476
30
0.0
11
0.692076
21
1.289995
31
0.0
0
LINE
8
FRONT
10
0.099085
20
1.228697
30
0.0
11
0.116490
21
1.226419
31
0.0
0
LINE
8
FRONT
10
0.116490
20
1.226419
30
0.0
11
0.133843
21
1.223773
31
0.0
0
LINE
8
FRONT
10
0.133843
20
1.223773
30
0.0
11
0.151136
21
1.220761
31
0.0
0
LINE
8
FRONT
10
0.151136
20
1.220761
30
0.0
11
0.168362
21
1.217384
31
0.0
0
LINE
8
FRONT
10
0.168362
20
1.217384
30
0.0
11
0.185512
21
1.213644
31
0.0
0
LINE
8
FRONT
10
0.185512
20
1.213644
30
0.0
11
0.202580
21
1.209543
31
0.0
0
LINE
8
FRONT
10
0.202580
20
1.209543
30
0.0
11
0.219557
21
1.205081
31
0.0
0
LINE
8
FRONT
10
0.219557
20
1.205081
30
0.0
11
0.236436
21
1.200262
31
0.0
0
LINE
8
FRONT
10
0.236436
20
1.200262
30
0.0
11
0.253209
21
1.195087
31
0.0
0
LINE
8
FRONT
10
0.253209
20
1.195087
30
0.0
11
0.269869
21
1.189559
31
0.0
0
LINE
8
FRONT
10
0.269869
20
1.189559
30
0.0
11
0.286409
21
1.183680
31
0.0
0
LINE
8
FRONT
10
0.286409
20
1.183680
30
0.0
11
0.302821
21
1.177452
31
0.0
0
LINE
8
FRONT
10
0.302821
20
1.177452
30
0.0
11
0.319097
21
1.170879
31
0.0
0
LINE
8
FRONT
10
0.319097
20
1.170879
30
0.0
11
0.335231
21
1.163964
31
0.0
0
LINE
8
FRONT
10
0.335231
20
1.163964
30
0.0
11
0.351215
21
1.156709
31
0.0
0
LINE
8
FRONT
10
0.351215
20
1.156709
30
0.0
11
0.367042
21
1.149118
31
0.0
0
LINE
8
FRONT
10
0.367042
20
1.149118
30
0.0
11
0.382706
21
1.141194
31
0.0
0
LINE
8
FRONT
10
0.382706
20
1.141194
30
0.0
11
0.398198
21
1.132941
31
0.0
0
LINE
8
FRONT
10
0.398198
20
1.132941
30
0.0
11
0.413512
21
1.124362
31
0.0
0
LINE
8
FRONT
10
0.413512
20
1.124362
30
0.0
11
0.428642
21
1.115462
31
0.0
0
LINE
8
FRONT
10
0.428642
20
1.115462
30
0.0
11
0.443580
21
1.106244
31
0.0
0
LINE
8
FRONT
10
0.443580
20
1.106244
30
0.0
11
0.458320
21
1.096712
31
0.0
0
LINE
8
FRONT
10
0.458320
20
1.096712
30
0.0
11
0.472855
21
1.086870
31
0.0
0
LINE
8
FRONT
10
0.472855
20
1.086870
30
0.0
11
0.487179
21
1.076724
31
0.0
0
LINE
8
FRONT
10
0.487179
20
1.076724
30
0.0
11
0.501285
21
1.066277
31
0.0
0
LINE
8
FRONT
10
0.501285
20
1.066277
30
0.0
11
0.515168
21
1.055535
31
0.0
0
LINE
8
FRONT
10
0.515168
20
1.055535
30
0.0
11
0.528820
21
1.044501
31
0.0
0
LINE
8
FRONT
10
0.528820
20
1.044501
30
0.0
11
0.542236
21
1.033181
31
0.0
0
LINE
8
FRONT
10
0.542236
20
1.033181
30
0.0
11
0.555410
21
1.021581
31
0.0
0
LINE
8
FRONT
10
0.555410
20
1.021581
30
0.0
11
0.568335
21
1.009704
31
0.0
0
LINE
8
FRONT
10
0.568335
20
1.009704
30
0.0
11
0.581007
21
0.997557
31
0.0
0
LINE
8
FRONT
10
0.581007
20
0.997557
30
0.0
11
0.593419
21
0.985145
31
0.0
0
LINE
8
FRONT
10
0.593419
20
0.985145
30
0.0
11
0.605566
21
0.972473
31
0.0
0
LINE
8
FRONT
10
0.605566
20
0.972473
30
0.0
11
0.617443
21
0.959548
31
0.0
0
LINE
8
FRONT
10
0.617443
20
0.959548
30
0.0
11
0.629044
21
0.946374
31
0.0
0
LINE
8
FRONT
10
0.629044
20
0.946374
30
0.0
11
0.640363
21
0.932958
31
0.0
0
LINE
8
FRONT
10
0.640363
20
0.932958
30
0.0
11
0.651397
21
0.919306
31
0.0
0
LINE
8
FRONT
10
0.651397
20
0.919306
30
0.0
11
0.662139
21
0.905423
31
0.0
0
LINE
8
FRONT
10
0.662139
20
0.905423
30
0.0
11
0.672586
21
0.891317
31
0.0
0
LINE
8
FRONT
10
0.672586
20
0.891317
30
0.0
11
0.682733
21
0.876993
31
0.0
0
LINE
8
FRONT
10
0.682733
20
0.876993
30
0.0
11
0.692574
21
0.862458
31
0.0
0
LINE
8
FRONT
10
0.692574
20
0.862458
30
0.0
11
0.702106
21
0.847718
31
0.0
0
LINE
8
FRONT
10
0.702106
20
0.847718
30
0.0
11
0.711324
21
0.832780
31
0.0
0
LINE
8
FRONT
10
0.711324
20
0.832780
30
0.0
11
0.720225
21
0.817650
31
0.0
0
LINE
8
FRONT
10
0.720225
20
0.817650
30
0.0
11
0.728803
21
0.802336
31
0.0
0
LINE
8
FRONT
10
0.728803
20
0.802336
30
0.0
11
0.737056
21
0.786843
31
0.0
0
LINE
8
FRONT
10
0.737056
20
0.786843
30
0.0
11
0.744980
21
0.771180
31
0.0
0
LINE
8
FRONT
10
0.744980
20
0.771180
30
0.0
11
0.752571
21
0.755353
31
0.0
0
LINE
8
FRONT
10
0.752571
20
0.755353
30
0.0
11
0.759826
21
0.739369
31
0.0
0
LINE
8
FRONT
10
0.759826
20
0.739369
30
0.0
11
0.766742
21
0.723235
31
0.0
0
LINE
8
FRONT
10
0.766742
20
0.723235
30
0.0
11
0.773314
21
0.706959
31
0.0
0
LINE
8
FRONT
10
0.773314
20
0.706959
30
0.0
11
0.779542
21
0.690547
31
0.0
0
LINE
8
FRONT
10
0.779542
20
0.690547
30
0.0
11
0.785421
21
0.674007
31
0.0
0
LINE
8
FRONT
10
0.785421
20
0.674007
30
0.0
11
0.790949
21
0.657347
31
0.0
0
LINE
8
FRONT
10
0.790949
20
0.657347
30
0.0
11
0.796124
21
0.640574
31
0.0
0
LINE
8
FRONT
10
0.796124
20
0.640574
30
0.0
11
0.800943
21
0.623695
31
0.0
0
LINE
8
FRONT
10
0.800943
20
0.623695
30
0.0
11
0.805405
21
0.606718
31
0.0
0
LINE
8
FRONT
10
0.805405
20
0.606718
30
0.0
11
0.809506
21
0.589650
31
0.0
0
LINE
8
FRONT
10
0.809506
20
0.589650
30
0.0
11
0.813246
21
0.572500
31
0.0
0
LINE
8
FRONT
10
0.813246
20
0.572500
30
0.0
11
0.816623
21
0.555274
31
0.0
0
LINE
8
FRONT
10
0.816623
20
0.555274
30
0.0
11
0.819635
21
0.537981
31
0.0
0
LINE
8
FRONT
10
0.819635
20
0.537981
30
0.0
11
0.822281
21
0.520628
31
0.0
0
LINE
8
FRONT
10
0.822281
20
0.520628
30
0.0
11
0.824559
21
0.503223
31
0.0
0
LINE
8
FRONT
10
0.885857
20
0.404138
30
0.0
11
0.885857
21
1.096214
31
0.0
0
LINE
8
FRONT
10
0.692076
20
1.289995
30
0.0
11
0.000000
21
1.289995
31
0.0
0
LINE
8
FRONT
10
0.000000
20
1.289995
30
0.0
11
0.000000
21
1.234629
31
0.0
0
LINE
8
FRONT
10
0.824559
20
0.503223
30
0.0
11
0.824746
21
0.501658
31
0.0
0
LINE
8
FRONT
10
0.824746
20
0.501658
30
0.0
11
0.824929
21
0.500092
31
0.0
0
LINE
8
FRONT
10
0.824929
20
0.500092
30
0.0
11
0.825110
21
0.498526
31
0.0
0
LINE
8
FRONT
10
0.825110
20
0.498526
30
0.0
11
0.825288
21
0.496959
31
0.0
0
LINE
8
FRONT
10
0.825288
20
0.496959
30
0.0
11
0.825462
21
0.495392
31
0.0
0
LINE
8
FRONT
10
0.825462
20
0.495392
30
0.0
11
0.825634
21
0.493825
31
0.0
0
LINE
8
FRONT
10
0.825634
20
0.493825
30
0.0
11
0.825803
21
0.492258
31
0.0
0
LINE
8
FRONT
10
0.825803
20
0.492258
30
0.0
11
0.825969
21
0.490690
31
0.0
0
LINE
8
FRONT
10
0.825969
20
0.490690
30
0.0
11
0.826132
21
0.489122
31
0.0
0
LINE
8
FRONT
10
0.826132
20
0.489122
30
0.0
11
0.826291
21
0.487553
31
0.0
0
LINE
8
FRONT
10
0.826291
20
0.487553
30
0.0
11
0.826448
21
0.485985
31
0.0
0
LINE
8
FRONT
10
0.826448
20
0.485985
30
0.0
11
0.826602
21
0.484416
31
0.0
0
LINE
8
FRONT
10
0.826602
20
0.484416
30
0.0
11
0.826753
21
0.482846
31
0.0
0
LINE
8
FRONT
10
0.826753
20
0.482846
30
0.0
11
0.826901
21
0.481277
31
0.0
0
LINE
8
FRONT
10
0.826901
20
0.481277
30
0.0
11
0.827046
21
0.479707
31
0.0
0
LINE
8
FRONT
10
0.827046
20
0.479707
30
0.0
11
0.827188
21
0.478137
31
0.0
0
LINE
8
FRONT
10
0.827188
20
0.478137
30
0.0
11
0.827327
21
0.476566
31
0.0
0
LINE
8
FRONT
10
0.827327
20
0.476566
30
0.0
11
0.827463
21
0.474996
31
0.0
0
LINE
8
FRONT
10
0.827463
20
0.474996
30
0.0
11
0.827596
21
0.473425
31
0.0
0
LINE
8
FRONT
10
0.827596
20
0.473425
30
0.0
11
0.827726
21
0.471854
31
0.0
0
LINE
8
FRONT
10
0.827726
20
0.471854
30
0.0
11
0.827853
21
0.470282
31
0.0
0
LINE
8
FRONT
10
0.827853
20
0.470282
30
0.0
11
0.827977
21
0.468711
31
0.0
0
LINE
8
FRONT
10
0.827977
20
0.468711
30
0.0
11
0.828098
21
0.467139
31
0.0
0
LINE
8
FRONT
10
0.828098
20
0.467139
30
0.0
11
0.828216
21
0.465567
31
0.0
0
LINE
8
FRONT
10
0.828216
20
0.465567
30
0.0
11
0.828331
21
0.463994
31
0.0
0
LINE
8
FRONT
10
0.828331
20
0.463994
30
0.0
11
0.828443
21
0.462422
31
0.0
0
LINE
8
FRONT
10
0.828443
20
0.462422
30
0.0
11
0.828553
21
0.460849
31
0.0
0
LINE
8
FRONT
10
0.828553
20
0.460849
30
0.0
11
0.828659
21
0.459276
31
0.0
0
LINE
8
FRONT
10
0.828659
20
0.459276
30
0.0
11
0.828762
21
0.457703
31
0.0
0
LINE
8
FRONT
10
0.828762
20
0.457703
30
0.0
11
0.828862
21
0.456130
31
0.0
0
LINE
8
FRONT
10
0.828862
20
0.456130
30
0.0
11
0.828959
21
0.454556
31
0.0
0
LINE
8
FRONT
10
0.828959
20
0.454556
30
0.0
11
0.829054
21
0.452982
31
0.0
0
LINE
8
FRONT
10
0.829054
20
0.452982
30
0.0
11
0.829145
21
0.451408
31
0.0
0
LINE
8
FRONT
10
0.829145
20
0.451408
30
0.0
11
0.829233
21
0.449834
31
0.0
0
LINE
8
FRONT
10
0.829233
20
0.449834
30
0.0
11
0.829318
21
0.448260
31
0.0
0
LINE
8
FRONT
10
0.829318
20
0.448260
30
0.0
11
0.829401
21
0.446686
31
0.0
0
LINE
8
FRONT
10
0.829401
20
0.446686
30
0.0
11
0.829480
21
0.445111
31
0.0
0
LINE
8
FRONT
10
0.829480
20
0.445111
30
0.0
11
0.829556
21
0.443537
31
0.0
0
LINE
8
FRONT
10
0.829556
20
0.443537
30
0.0
11
0.829629
21
0.441962
31
0.0
0
LINE
8
FRONT
10
0.829629
20
0.441962
30
0.0
11
0.829700
21
0.440387
31
0.0
0
LINE
8
FRONT
10
0.829700
20
0.440387
30
0.0
11
0.829767
21
0.438812
31
0.0
0
LINE
8
FRONT
10
0.829767
20
0.438812
30
0.0
11
0.829831
21
0.437236
31
0.0
0
LINE
8
FRONT
10
0.829831
20
0.437236
30
0.0
11
0.829893
21
0.435661
31
0.0
0
LINE
8
FRONT
10
0.829893
20
0.435661
30
0.0
11
0.829951
21
0.434086
31
0.0
0
LINE
8
FRONT
10
0.829951
20
0.434086
30
0.0
11
0.830006
21
0.432510
31
0.0
0
LINE
8
FRONT
10
0.830006
20
0.432510
30
0.0
11
0.830059
21
0.430934
31
0.0
0
LINE
8
FRONT
10
0.830059
20
0.430934
30
0.0
11
0.830108
21
0.429359
31
0.0
0
LINE
8
FRONT
10
0.830108
20
0.429359
30
0.0
11
0.830154
21
0.427783
31
0.0
0
LINE
8
FRONT
10
0.830154
20
0.427783
30
0.0
11
0.830198
21
0.426207
31
0.0
0
LINE
8
FRONT
10
0.830198
20
0.426207
30
0.0
11
0.830238
21
0.424631
31
0.0
0
LINE
8
FRONT
10
0.830238
20
0.424631
30
0.0
11
0.830276
21
0.423055
31
0.0
0
LINE
8
FRONT
10
0.830276
20
0.423055
30
0.0
11
0.830310
21
0.421479
31
0.0
0
LINE
8
FRONT
10
0.830310
20
0.421479
30
0.0
11
0.830341
21
0.419902
31
0.0
0
LINE
8
FRONT
10
0.830341
20
0.419902
30
0.0
11
0.830370
21
0.418326
31
0.0
0
LINE
8
FRONT
10
0.830370
20
0.418326
30
0.0
11
0.830395
21
0.416750
31
0.0
0
LINE
8
FRONT
10
0.830395
20
0.416750
30
0.0
11
0.830418
21
0.415173
31
0.0
0
LINE
8
FRONT
10
0.830418
20
0.415173
30
0.0
11
0.830437
21
0.413597
31
0.0
0
LINE
8
FRONT
10
0.830437
20
0.413597
30
0.0
11
0.830454
21
0.412020
31
0.0
0
LINE
8
FRONT
10
0.830454
20
0.412020
30
0.0
11
0.830467
21
0.410444
31
0.0
0
LINE
8
FRONT
10
0.830467
20
0.410444
30
0.0
11
0.830478
21
0.408868
31
0.0
0
LINE
8
FRONT
10
0.830478
20
0.408868
30
0.0
11
0.830485
21
0.407291
31
0.0
0
LINE
8
FRONT
10
0.830485
20
0.407291
30
0.0
11
0.830490
21
0.405714
31
0.0
0
LINE
8
FRONT
10
0.830490
20
0.405714
30
0.0
11
0.830491
21
0.404138
31
0.0
0
LINE
8
FRONT
10
0.664393
20
0.404138
30
0.0
11
0.664531
21
0.398618
31
0.0
0
LINE
8
FRONT
10
0.664531
20
0.398618
30
0.0
11
0.664943
21
0.393113
31
0.0
0
LINE
8
FRONT
10
0.664943
20
0.393113
30
0.0
11
0.665630
21
0.387634
31
0.0
0
LINE
8
FRONT
10
0.665630
20
0.387634
30
0.0
11
0.666588
21
0.382197
31
0.0
0
LINE
8
FRONT
10
0.666588
20
0.382197
30
0.0
11
0.667817
21
0.376814
31
0.0
0
LINE
8
FRONT
10
0.667817
20
0.376814
30
0.0
11
0.669312
21
0.371499
31
0.0
0
LINE
8
FRONT
10
0.669312
20
0.371499
30
0.0
11
0.671071
21
0.366265
31
0.0
0
LINE
8
FRONT
10
0.671071
20
0.366265
30
0.0
11
0.673088
21
0.361126
31
0.0
0
LINE
8
FRONT
10
0.673088
20
0.361126
30
0.0
11
0.675359
21
0.356093
31
0.0
0
LINE
8
FRONT
10
0.675359
20
0.356093
30
0.0
11
0.677878
21
0.351180
31
0.0
0
LINE
8
FRONT
10
0.677878
20
0.351180
30
0.0
11
0.680638
21
0.346398
31
0.0
0
LINE
8
FRONT
10
0.680638
20
0.346398
30
0.0
11
0.683634
21
0.341760
31
0.0
0
LINE
8
FRONT
10
0.683634
20
0.341760
30
0.0
11
0.686857
21
0.337277
31
0.0
0
LINE
8
FRONT
10
0.686857
20
0.337277
30
0.0
11
0.690299
21
0.332961
31
0.0
0
LINE
8
FRONT
10
0.690299
20
0.332961
30
0.0
11
0.693953
21
0.328821
31
0.0
0
LINE
8
FRONT
10
0.693953
20
0.328821
30
0.0
11
0.697808
21
0.324868
31
0.0
0
LINE
8
FRONT
10
0.697808
20
0.324868
30
0.0
11
0.701855
21
0.321113
31
0.0
0
LINE
8
FRONT
10
0.701855
20
0.321113
30
0.0
11
0.706085
21
0.317564
31
0.0
0
LINE
8
FRONT
10
0.706085
20
0.317564
30
0.0
11
0.710486
21
0.314230
31
0.0
0
LINE
8
FRONT
10
0.710486
20
0.314230
30
0.0
11
0.715048
21
0.311120
31
0.0
0
LINE
8
FRONT
10
0.715048
20
0.311120
30
0.0
11
0.719759
21
0.308241
31
0.0
0
LINE
8
FRONT
10
0.719759
20
0.308241
30
0.0
11
0.724608
21
0.305601
31
0.0
0
LINE
8
FRONT
10
0.724608
20
0.305601
30
0.0
11
0.729582
21
0.303205
31
0.0
0
LINE
8
FRONT
10
0.729582
20
0.303205
30
0.0
11
0.734670
21
0.301060
31
0.0
0
LINE
8
FRONT
10
0.734670
20
0.301060
30
0.0
11
0.739858
21
0.299172
31
0.0
0
LINE
8
FRONT
10
0.739858
20
0.299172
30
0.0
11
0.745134
21
0.297544
31
0.0
0
LINE
8
FRONT
10
0.745134
20
0.297544
30
0.0
11
0.750485
21
0.296182
31
0.0
0
LINE
8
FRONT
10
0.750485
20
0.296182
30
0.0
11
0.755897
21
0.295088
31
0.0
0
LINE
8
FRONT
10
0.755897
20
0.295088
30
0.0
11
0.761356
21
0.294265
31
0.0
0
LINE
8
FRONT
10
0.761356
20
0.294265
30
0.0
11
0.766850
21
0.293715
31
0.0
0
LINE
8
FRONT
10
0.766850
20
0.293715
30
0.0
11
0.772364
21
0.293440
31
0.0
0
LINE
8
FRONT
10
0.772364
20
0.293440
30
0.0
11
0.777886
21
0.293440
31
0.0
0
LINE
8
FRONT
10
0.777886
20
0.293440
30
0.0
11
0.783400
21
0.293715
31
0.0
0
LINE
8
FRONT
10
0.783400
20
0.293715
30
0.0
11
0.788894
21
0.294265
31
0.0
0
LINE
8
FRONT
10
0.788894
20
0.294265
30
0.0
11
0.794353
21
0.295088
31
0.0
0
LINE
8
FRONT
10
0.794353
20
0.295088
30
0.0
11
0.799765
21
0.296182
31
0.0
0
LINE
8
FRONT
10
0.799765
20
0.296182
30
0.0
11
0.805116
21
0.297544
31
0.0
0
LINE
8
FRONT
10
0.805116
20
0.297544
30
0.0
11
0.810392
21
0.299172
31
0.0
0
LINE
8
FRONT
10
0.810392
20
0.299172
30
0.0
11
0.815580
21
0.301060
31
0.0
0
LINE
8
FRONT
10
0.815580
20
0.301060
30
0.0
11
0.820668
21
0.303205
31
0.0
0
LINE
8
FRONT
10
0.820668
20
0.303205
30
0.0
11
0.825642
21
0.305601
31
0.0
0
LINE
8
FRONT
10
0.825642
20
0.305601
30
0.0
11
0.830491
21
0.308241
31
0.0
0
LINE
8
FRONT
10
0.830491
20
0.308241
30
0.0
11
0.835202
21
0.311120
31
0.0
0
LINE
8
FRONT
10
0.835202
20
0.311120
30
0.0
11
0.839764
21
0.314230
31
0.0
0
LINE
8
FRONT
10
0.839764
20
0.314230
30
0.0
11
0.844165
21
0.317564
31
0.0
0
LINE
8
FRONT
10
0.844165
20
0.317564
30
0.0
11
0.848395
21
0.321113
31
0.0
0
LINE
8
FRONT
10
0.848395
20
0.321113
30
0.0
11
0.852442
21
0.324868
31
0.0
0
LINE
8
FRONT
10
0.852442
20
0.324868
30
0.0
11
0.856297
21
0.328821
31
0.0
0
LINE
8
FRONT
10
0.856297
20
0.328821
30
0.0
11
0.859951
21
0.332961
31
0.0
0
LINE
8
FRONT
10
0.859951
20
0.332961
30
0.0
11
0.863393
21
0.337277
31
0.0
0
LINE
8
FRONT
10
0.863393
20
0.337277
30
0.0
11
0.866616
21
0.341760
31
0.0
0
LINE
8
FRONT
10
0.866616
20
0.341760
30
0.0
11
0.869612
21
0.346398
31
0.0
0
LINE
8
FRONT
10
0.869612
20
0.346398
30
0.0
11
0.872372
21
0.351180
31
0.0
0
LINE
8
FRONT
10
0.872372
20
0.351180
30
0.0
11
0.874891
21
0.356093
31
0.0
0
LINE
8
FRONT
10
0.874891
20
0.356093
30
0.0
11
0.877162
21
0.361126
31
0.0
0
LINE
8
FRONT
10
0.877162
20
0.361126
30
0.0
11
0.879179
21
0.366265
31
0.0
0
LINE
8
FRONT
10
0.879179
20
0.366265
30
0.0
11
0.880938
21
0.371499
31
0.0
0
LINE
8
FRONT
10
0.880938
20
0.371499
30
0.0
11
0.882433
21
0.376814
31
0.0
0
LINE
8
FRONT
10
0.882433
20
0.376814
30
0.0
11
0.883662
21
0.382197
31
0.0
0
LINE
8
FRONT
10
0.883662
20
0.382197
30
0.0
11
0.884620
21
0.387634
31
0.0
0
LINE
8
FRONT
10
0.884620
20
0.387634
30
0.0
11
0.885307
21
0.393113
31
0.0
0
LINE
8
FRONT
10
0.885307
20
0.393113
30
0.0
11
0.885720
21
0.398618
31
0.0
0
LINE
8
FRONT
10
0.885720
20
0.398618
30
0.0
11
0.885857
21
0.404138
31
0.0
0
LINE
8
FRONT
10
0.092218
20
1.117965
30
0.0
11
0.093226
21
1.119509
31
0.0
0
LINE
8
FRONT
10
0.093226
20
1.119509
30
0.0
11
0.094209
21
1.121071
31
0.0
0
LINE
8
FRONT
10
0.094209
20
1.121071
30
0.0
11
0.095165
21
1.122648
31
0.0
0
LINE
8
FRONT
10
0.095165
20
1.122648
30
0.0
11
0.096095
21
1.124241
31
0.0
0
LINE
8
FRONT
10
0.096095
20
1.124241
30
0.0
11
0.096998
21
1.125849
31
0.0
0
LINE
8
FRONT
10
0.096998
20
1.125849
30
0.0
11
0.097874
21
1.127472
31
0.0
0
LINE
8
FRONT
10
0.097874
20
1.127472
30
0.0
11
0.098723
21
1.129110
31
0.0
0
LINE
8
FRONT
10
0.098723
20
1.129110
30
0.0
11
0.099545
21
1.130761
31
0.0
0
LINE
8
FRONT
10
0.099545
20
1.130761
30
0.0
11
0.100339
21
1.132426
31
0.0
0
LINE
8
FRONT
10
0.100339
20
1.132426
30
0.0
11
0.101105
21
1.134104
31
0.0
0
LINE
8
FRONT
10
0.101105
20
1.134104
30
0.0
11
0.101843
21
1.135794
31
0.0
0
LINE
8
FRONT
10
0.101843
20
1.135794
30
0.0
11
0.102553
21
1.137496
31
0.0
0
LINE
8
FRONT
10
0.102553
20
1.137496
30
0.0
11
0.103235
21
1.139210
31
0.0
0
LINE
8
FRONT
10
0.103235
20
1.139210
30
0.0
11
0.103887
21
1.140935
31
0.0
0
LINE
8
FRONT
10
0.103887
20
1.140935
30
0.0
11
0.104511
21
1.142671
31
0.0
0
LINE
8
FRONT
10
0.104511
20
1.142671
30
0.0
11
0.105106
21
1.144417
31
0.0
0
LINE
8
FRONT
10
0.105106
20
1.144417
30
0.0
11
0.105672
21
1.146172
31
0.0
0
LINE
8
FRONT
10
0.105672
20
1.146172
30
0.0
11
0.106209
21
1.147937
31
0.0
0
LINE
8
FRONT
10
0.106209
20
1.147937
30
0.0
11
0.106716
21
1.149711
31
0.0
0
LINE
8
FRONT
10
0.106716
20
1.149711
30
0.0
11
0.107193
21
1.151492
31
0.0
0
LINE
8
FRONT
10
0.107193
20
1.151492
30
0.0
11
0.107641
21
1.153282
31
0.0
0
LINE
8
FRONT
10
0.107641
20
1.153282
30
0.0
11
0.108059
21
1.155078
31
0.0
0
LINE
8
FRONT
10
0.108059
20
1.155078
30
0.0
11
0.108447
21
1.156881
31
0.0
0
LINE
8
FRONT
10
0.108447
20
1.156881
30
0.0
11
0.108804
21
1.158691
31
0.0
0
LINE
8
FRONT
10
0.108804
20
1.158691
30
0.0
11
0.109132
21
1.160506
31
0.0
0
LINE
8
FRONT
10
0.109132
20
1.160506
30
0.0
11
0.109429
21
1.162326
31
0.0
0
LINE
8
FRONT
10
0.109429
20
1.162326
30
0.0
11
0.109696
21
1.164151
31
0.0
0
LINE
8
FRONT
10
0.109696
20
1.164151
30
0.0
11
0.109933
21
1.165981
31
0.0
0
LINE
8
FRONT
10
0.109933
20
1.165981
30
0.0
11
0.110139
21
1.167814
31
0.0
0
LINE
8
FRONT
10
0.110139
20
1.167814
30
0.0
11
0.110314
21
1.169650
31
0.0
0
LINE
8
FRONT
10
0.110314
20
1.169650
30
0.0
11
0.110459
21
1.171489
31
0.0
0
LINE
8
FRONT
10
0.110459
20
1.171489
30
0.0
11
0.110573
21
1.173330
31
0.0
0
LINE
8
FRONT
10
0.110573
20
1.173330
30
0.0
11
0.110657
21
1.175172
31
0.0
0
LINE
8
FRONT
10
0.110657
20
1.175172
30
0.0
11
0.110709
21
1.177016
31
0.0
0
LINE
8
FRONT
10
0.110709
20
1.177016
30
0.0
11
0.110731
21
1.178860
31
0.0
0
LINE
8
FRONT
10
0.110731
20
1.178860
30
0.0
11
0.110723
21
1.180705
31
0.0
0
LINE
8
FRONT
10
0.110723
20
1.180705
30
0.0
11
0.110683
21
1.182549
31
0.0
0
LINE
8
FRONT
10
0.110683
20
1.182549
30
0.0
11
0.110613
21
1.184392
31
0.0
0
LINE
8
FRONT
10
0.110613
20
1.184392
30
0.0
11
0.110513
21
1.186234
31
0.0
0
LINE
8
FRONT
10
0.110513
20
1.186234
30
0.0
11
0.110381
21
1.188073
31
0.0
0
LINE
8
FRONT
10
0.110381
20
1.188073
30
0.0
11
0.110219
21
1.189911
31
0.0
0
LINE
8
FRONT
10
0.110219
20
1.189911
30
0.0
11
0.110026
21
1.191745
31
0.0
0
LINE
8
FRONT
10
0.110026
20
1.191745
30
0.0
11
0.109803
21
1.193576
31
0.0
0
LINE
8
FRONT
10
0.109803
20
1.193576
30
0.0
11
0.109550
21
1.195403
31
0.0
0
LINE
8
FRONT
10
0.109550
20
1.195403
30
0.0
11
0.109266
21
1.197226
31
0.0
0
LINE
8
FRONT
10
0.109266
20
1.197226
30
0.0
11
0.108951
21
1.199043
31
0.0
0
LINE
8
FRONT
10
0.108951
20
1.199043
30
0.0
11
0.108607
21
1.200855
31
0.0
0
LINE
8
FRONT
10
0.108607
20
1.200855
30
0.0
11
0.108232
21
1.202661
31
0.0
0
LINE
8
FRONT
10
0.108232
20
1.202661
30
0.0
11
0.107827
21
1.204461
31
0.0
0
LINE
8
FRONT
10
0.107827
20
1.204461
30
0.0
11
0.107392
21
1.206253
31
0.0
0
LINE
8
FRONT
10
0.107392
20
1.206253
30
0.0
11
0.106928
21
1.208038
31
0.0
0
LINE
8
FRONT
10
0.106928
20
1.208038
30
0.0
11
0.106434
21
1.209815
31
0.0
0
LINE
8
FRONT
10
0.106434
20
1.209815
30
0.0
11
0.105910
21
1.211584
31
0.0
0
LINE
8
FRONT
10
0.105910
20
1.211584
30
0.0
11
0.105357
21
1.213344
31
0.0
0
LINE
8
FRONT
10
0.105357
20
1.213344
30
0.0
11
0.104775
21
1.215094
31
0.0
0
LINE
8
FRONT
10
0.104775
20
1.215094
30
0.0
11
0.104163
21
1.216834
31
0.0
0
LINE
8
FRONT
10
0.104163
20
1.216834
30
0.0
11
0.103523
21
1.218564
31
0.0
0
LINE
8
FRONT
10
0.103523
20
1.218564
30
0.0
11
0.102854
21
1.220283
31
0.0
0
LINE
8
FRONT
10
0.102854
20
1.220283
30
0.0
11
0.102157
21
1.221990
31
0.0
0
LINE
8
FRONT
10
0.102157
20
1.221990
30
0.0
11
0.101431
21
1.223686
31
0.0
0
LINE
8
FRONT
10
0.101431
20
1.223686
30
0.0
11
0.100677
21
1.225369
31
0.0
0
LINE
8
FRONT
10
0.100677
20
1.225369
30
0.0
11
0.099895
21
1.227040
31
0.0
0
LINE
8
FRONT
10
0.099895
20
1.227040
30
0.0
11
0.099085
21
1.228697
31
0.0
0
LINE
8
FRONT
10
0.000000
20
1.234629
30
0.0
11
0.002760
21
1.234560
31
0.0
0
LINE
8
FRONT
10
0.002760
20
1.234560
30
0.0
11
0.005513
21
1.234354
31
0.0
0
LINE
8
FRONT
10
0.005513
20
1.234354
30
0.0
11
0.008252
21
1.234011
31
0.0
0
LINE
8
FRONT
10
0.008252
20
1.234011
30
0.0
11
0.010971
21
1.233531
31
0.0
0
LINE
8
FRONT
10
0.010971
20
1.233531
30
0.0
11
0.013662
21
1.232917
31
0.0
0
LINE
8
FRONT
10
0.013662
20
1.232917
30
0.0
11
0.016319
21
1.232169
31
0.0
0
LINE
8
FRONT
10
0.016319
20
1.232169
30
0.0
11
0.018936
21
1.231290
31
0.0
0
LINE
8
FRONT
10
0.018936
20
1.231290
30
0.0
11
0.021506
21
1.230282
31
0.0
0
LINE
8
FRONT
10
0.021506
20
1.230282
30
0.0
11
0.024022
21
1.229146
31
0.0
0
LINE
8
FRONT
10
0.024022
20
1.229146
30
0.0
11
0.026479
21
1.227887
31
0.0
0
LINE
8
FRONT
10
0.026479
20
1.227887
30
0.0
11
0.028870
21
1.226506
31
0.0
0
LINE
8
FRONT
10
0.028870
20
1.226506
30
0.0
11
0.031189
21
1.225009
31
0.0
0
LINE
8
FRONT
10
0.031189
20
1.225009
30
0.0
11
0.033430
21
1.223397
31
0.0
0
LINE
8
FRONT
10
0.033430
20
1.223397
30
0.0
11
0.035589
21
1.221676
31
0.0
0
LINE
8
FRONT
10
0.035589
20
1.221676
30
0.0
11
0.037658
21
1.219849
31
0.0
0
LINE
8
FRONT
10
0.037658
20
1.219849
30
0.0
11
0.039635
21
1.217922
31
0.0
0
LINE
8
FRONT
10
0.039635
20
1.217922
30
0.0
11
0.041512
21
1.215898
31
0.0
0
LINE
8
FRONT
10
0.041512
20
1.215898
30
0.0
11
0.043287
21
1.213783
31
0.0
0
LINE
8
FRONT
10
0.043287
20
1.213783
30
0.0
11
0.044954
21
1.211583
31
0.0
0
LINE
8
FRONT
10
0.044954
20
1.211583
30
0.0
11
0.046509
21
1.209302
31
0.0
0
LINE
8
FRONT
10
0.046509
20
1.209302
30
0.0
11
0.047948
21
1.206946
31
0.0
0
LINE
8
FRONT
10
0.047948
20
1.206946
30
0.0
11
0.049269
21
1.204522
31
0.0
0
LINE
8
FRONT
10
0.049269
20
1.204522
30
0.0
11
0.050467
21
1.202034
31
0.0
0
LINE
8
FRONT
10
0.050467
20
1.202034
30
0.0
11
0.051539
21
1.199490
31
0.0
0
LINE
8
FRONT
10
0.051539
20
1.199490
30
0.0
11
0.052483
21
1.196896
31
0.0
0
LINE
8
FRONT
10
0.052483
20
1.196896
30
0.0
11
0.053297
21
1.194258
31
0.0
0
LINE
8
FRONT
10
0.053297
20
1.194258
30
0.0
11
0.053978
21
1.191583
31
0.0
0
LINE
8
FRONT
10
0.053978
20
1.191583
30
0.0
11
0.054525
21
1.188877
31
0.0
0
LINE
8
FRONT
10
0.054525
20
1.188877
30
0.0
11
0.054936
21
1.186147
31
0.0
0
LINE
8
FRONT
10
0.054936
20
1.186147
30
0.0
11
0.055211
21
1.183401
31
0.0
0
LINE
8
FRONT
10
0.055211
20
1.183401
30
0.0
11
0.055349
21
1.180643
31
0.0
0
LINE
8
FRONT
10
0.055349
20
1.180643
30
0.0
11
0.055349
21
1.177883
31
0.0
0
LINE
8
FRONT
10
0.055349
20
1.177883
30
0.0
11
0.055211
21
1.175125
31
0.0
0
LINE
8
FRONT
10
0.055211
20
1.175125
30
0.0
11
0.054936
21
1.172379
31
0.0
0
LINE
8
FRONT
10
0.054936
20
1.172379
30
0.0
11
0.054525
21
1.169649
31
0.0
0
LINE
8
FRONT
10
0.054525
20
1.169649
30
0.0
11
0.053978
21
1.166943
31
0.0
0
LINE
8
FRONT
10
0.053978
20
1.166943
30
0.0
11
0.053297
21
1.164268
31
0.0
0
LINE
8
FRONT
10
0.053297
20
1.164268
30
0.0
11
0.052483
21
1.161630
31
0.0
0
LINE
8
FRONT
10
0.052483
20
1.161630
30
0.0
11
0.051539
21
1.159035
31
0.0
0
LINE
8
FRONT
10
0.051539
20
1.159035
30
0.0
11
0.050467
21
1.156492
31
0.0
0
LINE
8
FRONT
10
0.050467
20
1.156492
30
0.0
11
0.049269
21
1.154004
31
0.0
0
LINE
8
FRONT
10
0.049269
20
1.154004
30
0.0
11
0.047948
21
1.151580
31
0.0
0
LINE
8
FRONT
10
0.047948
20
1.151580
30
0.0
11
0.046509
21
1.149224
31
0.0
0
LINE
8
FRONT
10
0.046509
20
1.149224
30
0.0
11
0.044954
21
1.146943
31
0.0
0
LINE
8
FRONT
10
0.044954
20
1.146943
30
0.0
11
0.043287
21
1.144743
31
0.0
0
LINE
8
FRONT
10
0.043287
20
1.144743
30
0.0
11
0.041512
21
1.142628
31
0.0
0
LINE
8
FRONT
10
0.041512
20
1.142628
30
0.0
11
0.039635
21
1.140604
31
0.0
0
LINE
8
FRONT
10
0.039635
20
1.140604
30
0.0
11
0.037658
21
1.138677
31
0.0
0
LINE
8
FRONT
10
0.037658
20
1.138677
30
0.0
11
0.035589
21
1.136850
31
0.0
0
LINE
8
FRONT
10
0.035589
20
1.136850
30
0.0
11
0.033430
21
1.135129
31
0.0
0
LINE
8
FRONT
10
0.033430
20
1.135129
30
0.0
11
0.031189
21
1.133517
31
0.0
0
LINE
8
FRONT
10
0.031189
20
1.133517
30
0.0
11
0.028870
21
1.132020
31
0.0
0
LINE
8
FRONT
10
0.028870
20
1.132020
30
0.0
11
0.026479
21
1.130639
31
0.0
0
LINE
8
FRONT
10
0.026479
20
1.130639
30
0.0
11
0.024022
21
1.129380
31
0.0
0
LINE
8
FRONT
10
0.024022
20
1.129380
30
0.0
11
0.021506
21
1.128244
31
0.0
0
LINE
8
FRONT
10
0.021506
20
1.128244
30
0.0
11
0.018936
21
1.127236
31
0.0
0
LINE
8
FRONT
10
0.018936
20
1.127236
30
0.0
11
0.016319
21
1.126357
31
0.0
0
LINE
8
FRONT
10
0.016319
20
1.126357
30
0.0
11
0.013662
21
1.125609
31
0.0
0
LINE
8
FRONT
10
0.013662
20
1.125609
30
0.0
11
0.010971
21
1.124995
31
0.0
0
LINE
8
FRONT
10
0.010971
20
1.124995
30
0.0
11
0.008252
21
1.124515
31
0.0
0
LINE
8
FRONT
10
0.008252
20
1.124515
30
0.0
11
0.005513
21
1.124172
31
0.0
0
LINE
8
FRONT
10
0.005513
20
1.124172
30
0.0
11
0.002760
21
1.123966
31
0.0
0
LINE
8
FRONT
10
0.002760
20
1.123966
30
0.0
11
0.000000
21
1.123897
31
0.0
0
LINE
8
FRONT
10
0.830491
20
0.404138
30
0.0
11
0.830422
21
0.401378
31
0.0
0
LINE
8
FRONT
10
0.830422
20
0.401378
30
0.0
11
0.830216
21
0.398625
31
0.0
0
LINE
8
FRONT
10
0.830216
20
0.398625
30
0.0
11
0.829873
21
0.395886
31
0.0
0
LINE
8
FRONT
10
0.829873
20
0.395886
30
0.0
11
0.829393
21
0.393167
31
0.0
0
LINE
8
FRONT
10
0.829393
20
0.393167
30
0.0
11
0.828779
21
0.390476
31
0.0
0
LINE
8
FRONT
10
0.828779
20
0.390476
30
0.0
11
0.828031
21
0.387818
31
0.0
0
LINE
8
FRONT
10
0.828031
20
0.387818
30
0.0
11
0.827152
21
0.385202
31
0.0
0
LINE
8
FRONT
10
0.827152
20
0.385202
30
0.0
11
0.826144
21
0.382632
31
0.0
0
LINE
8
FRONT
10
0.826144
20
0.382632
30
0.0
11
0.825008
21
0.380115
31
0.0
0
LINE
8
FRONT
10
0.825008
20
0.380115
30
0.0
11
0.823749
21
0.377659
31
0.0
0
LINE
8
FRONT
10
0.823749
20
0.377659
30
0.0
11
0.822368
21
0.375268
31
0.0
0
LINE
8
FRONT
10
0.822368
20
0.375268
30
0.0
11
0.820871
21
0.372949
31
0.0
0
LINE
8
FRONT
10
0.820871
20
0.372949
30
0.0
11
0.819259
21
0.370708
31
0.0
0
LINE
8
FRONT
10
0.819259
20
0.370708
30
0.0
11
0.817538
21
0.368549
31
0.0
0
LINE
8
FRONT
10
0.817538
20
0.368549
30
0.0
11
0.815711
21
0.366479
31
0.0
0
LINE
8
FRONT
10
0.815711
20
0.366479
30
0.0
11
0.813784
21
0.364503
31
0.0
0
LINE
8
FRONT
10
0.813784
20
0.364503
30
0.0
11
0.811760
21
0.362625
31
0.0
0
LINE
8
FRONT
10
0.811760
20
0.362625
30
0.0
11
0.809645
21
0.360851
31
0.0
0
LINE
8
FRONT
10
0.809645
20
0.360851
30
0.0
11
0.807445
21
0.359184
31
0.0
0
LINE
8
FRONT
10
0.807445
20
0.359184
30
0.0
11
0.805164
21
0.357629
31
0.0
0
LINE
8
FRONT
10
0.805164
20
0.357629
30
0.0
11
0.802808
21
0.356190
31
0.0
0
LINE
8
FRONT
10
0.802808
20
0.356190
30
0.0
11
0.800384
21
0.354869
31
0.0
0
LINE
8
FRONT
10
0.800384
20
0.354869
30
0.0
11
0.797896
21
0.353671
31
0.0
0
LINE
8
FRONT
10
0.797896
20
0.353671
30
0.0
11
0.795353
21
0.352599
31
0.0
0
LINE
8
FRONT
10
0.795353
20
0.352599
30
0.0
11
0.792758
21
0.351655
31
0.0
0
LINE
8
FRONT
10
0.792758
20
0.351655
30
0.0
11
0.790120
21
0.350841
31
0.0
0
LINE
8
FRONT
10
0.790120
20
0.350841
30
0.0
11
0.787445
21
0.350160
31
0.0
0
LINE
8
FRONT
10
0.787445
20
0.350160
30
0.0
11
0.784739
21
0.349613
31
0.0
0
LINE
8
FRONT
10
0.784739
20
0.349613
30
0.0
11
0.782009
21
0.349202
31
0.0
0
LINE
8
FRONT
10
0.782009
20
0.349202
30
0.0
11
0.779263
21
0.348927
31
0.0
0
LINE
8
FRONT
10
0.779263
20
0.348927
30
0.0
11
0.776505
21
0.348789
31
0.0
0
LINE
8
FRONT
10
0.776505
20
0.348789
30
0.0
11
0.773745
21
0.348789
31
0.0
0
LINE
8
FRONT
10
0.773745
20
0.348789
30
0.0
11
0.770988
21
0.348927
31
0.0
0
LINE
8
FRONT
10
0.770988
20
0.348927
30
0.0
11
0.768241
21
0.349202
31
0.0
0
LINE
8
FRONT
10
0.768241
20
0.349202
30
0.0
11
0.765511
21
0.349613
31
0.0
0
LINE
8
FRONT
10
0.765511
20
0.349613
30
0.0
11
0.762805
21
0.350160
31
0.0
0
LINE
8
FRONT
10
0.762805
20
0.350160
30
0.0
11
0.760130
21
0.350841
31
0.0
0
LINE
8
FRONT
10
0.760130
20
0.350841
30
0.0
11
0.757492
21
0.351655
31
0.0
0
LINE
8
FRONT
10
0.757492
20
0.351655
30
0.0
11
0.754898
21
0.352599
31
0.0
0
LINE
8
FRONT
10
0.754898
20
0.352599
30
0.0
11
0.752354
21
0.353671
31
0.0
0
LINE
8
FRONT
10
0.752354
20
0.353671
30
0.0
11
0.749866
21
0.354869
31
0.0
0
LINE
8
FRONT
10
0.749866
20
0.354869
30
0.0
11
0.747442
21
0.356190
31
0.0
0
LINE
8
FRONT
10
0.747442
20
0.356190
30
0.0
11
0.745086
21
0.357629
31
0.0
0
LINE
8
FRONT
10
0.745086
20
0.357629
30
0.0
11
0.742805
21
0.359184
31
0.0
0
LINE
8
FRONT
10
0.742805
20
0.359184
30
0.0
11
0.740605
21
0.360851
31
0.0
0
LINE
8
FRONT
10
0.740605
20
0.360851
30
0.0
11
0.738490
21
0.362625
31
0.0
0
LINE
8
FRONT
10
0.738490
20
0.362625
30
0.0
11
0.736466
21
0.364503
31
0.0
0
LINE
8
FRONT
10
0.736466
20
0.364503
30
0.0
11
0.734539
21
0.366479
31
0.0
0
LINE
8
FRONT
10
0.734539
20
0.366479
30
0.0
11
0.732712
21
0.368549
31
0.0
0
LINE
8
FRONT
10
0.732712
20
0.368549
30
0.0
11
0.730991
21
0.370708
31
0.0
0
LINE
8
FRONT
10
0.730991
20
0.370708
30
0.0
11
0.729379
21
0.372949
31
0.0
0
LINE
8
FRONT
10
0.729379
20
0.372949
30
0.0
11
0.727882
21
0.375268
31
0.0
0
LINE
8
FRONT
10
0.727882
20
0.375268
30
0.0
11
0.726501
21
0.377659
31
0.0
0
LINE
8
FRONT
10
0.726501
20
0.377659
30
0.0
11
0.725242
21
0.380115
31
0.0
0
LINE
8
FRONT
10
0.725242
20
0.380115
30
0.0
11
0.724107
21
0.382632
31
0.0
0
LINE
8
FRONT
10
0.724107
20
0.382632
30
0.0
11
0.723098
21
0.385202
31
0.0
0
LINE
8
FRONT
10
0.723098
20
0.385202
30
0.0
11
0.722219
21
0.387818
31
0.0
0
LINE
8
FRONT
10
0.722219
20
0.387818
30
0.0
11
0.721471
21
0.390476
31
0.0
0
LINE
8
FRONT
10
0.721471
20
0.390476
30
0.0
11
0.720857
21
0.393167
31
0.0
0
LINE
8
FRONT
10
0.720857
20
0.393167
30
0.0
11
0.720377
21
0.395886
31
0.0
0
LINE
8
FRONT
10
0.720377
20
0.395886
30
0.0
11
0.720034
21
0.398625
31
0.0
0
LINE
8
FRONT
10
0.720034
20
0.398625
30
0.0
11
0.719828
21
0.401378
31
0.0
0
LINE
8
FRONT
10
0.719828
20
0.401378
30
0.0
11
0.719759
21
0.404138
31
0.0
0
LINE
8
FRONT
10
0.000000
20
1.068531
30
0.0
11
0.016564
21
1.068324
31
0.0
0
LINE
8
FRONT
10
0.016564
20
1.068324
30
0.0
11
0.033117
21
1.067705
31
0.0
0
LINE
8
FRONT
10
0.033117
20
1.067705
30
0.0
11
0.049650
21
1.066673
31
0.0
0
LINE
8
FRONT
10
0.049650
20
1.066673
30
0.0
11
0.066152
21
1.065229
31
0.0
0
LINE
8
FRONT
10
0.066152
20
1.065229
30
0.0
11
0.082613
21
1.063375
31
0.0
0
LINE
8
FRONT
10
0.082613
20
1.063375
30
0.0
11
0.099023
21
1.061110
31
0.0
0
LINE
8
FRONT
10
0.099023
20
1.061110
30
0.0
11
0.115371
21
1.058437
31
0.0
0
LINE
8
FRONT
10
0.115371
20
1.058437
30
0.0
11
0.131647
21
1.055358
31
0.0
0
LINE
8
FRONT
10
0.131647
20
1.055358
30
0.0
11
0.147841
21
1.051873
31
0.0
0
LINE
8
FRONT
10
0.147841
20
1.051873
30
0.0
11
0.163944
21
1.047986
31
0.0
0
LINE
8
FRONT
10
0.163944
20
1.047986
30
0.0
11
0.179944
21
1.043699
31
0.0
0
LINE
8
FRONT
10
0.179944
20
1.043699
30
0.0
11
0.195833
21
1.039014
31
0.0
0
LINE
8
FRONT
10
0.195833
20
1.039014
30
0.0
11
0.211600
21
1.033934
31
0.0
0
LINE
8
FRONT
10
0.211600
20
1.033934
30
0.0
11
0.227236
21
1.028463
31
0.0
0
LINE
8
FRONT
10
0.227236
20
1.028463
30
0.0
11
0.242730
21
1.022604
31
0.0
0
LINE
8
FRONT
10
0.242730
20
1.022604
30
0.0
11
0.258073
21
1.016360
31
0.0
0
LINE
8
FRONT
10
0.258073
20
1.016360
30
0.0
11
0.273256
21
1.009736
31
0.0
0
LINE
8
FRONT
10
0.273256
20
1.009736
30
0.0
11
0.288269
21
1.002735
31
0.0
0
LINE
8
FRONT
10
0.288269
20
1.002735
30
0.0
11
0.303103
21
0.995362
31
0.0
0
LINE
8
FRONT
10
0.303103
20
0.995362
30
0.0
11
0.317749
21
0.987622
31
0.0
0
LINE
8
FRONT
10
0.317749
20
0.987622
30
0.0
11
0.332196
21
0.979519
31
0.0
0
LINE
8
FRONT
10
0.332196
20
0.979519
30
0.0
11
0.346438
21
0.971058
31
0.0
0
LINE
8
FRONT
10
0.346438
20
0.971058
30
0.0
11
0.360464
21
0.962245
31
0.0
0
LINE
8
FRONT
10
0.360464
20
0.962245
30
0.0
11
0.374266
21
0.953085
31
0.0
0
LINE
8
FRONT
10
0.374266
20
0.953085
30
0.0
11
0.387835
21
0.943584
31
0.0
0
LINE
8
FRONT
10
0.387835
20
0.943584
30
0.0
11
0.401163
21
0.933747
31
0.0
0
LINE
8
FRONT
10
0.401163
20
0.933747
30
0.0
11
0.414242
21
0.923581
31
0.0
0
LINE
8
FRONT
10
0.414242
20
0.923581
30
0.0
11
0.427064
21
0.913092
31
0.0
0
LINE
8
FRONT
10
0.427064
20
0.913092
30
0.0
11
0.439619
21
0.902287
31
0.0
0
LINE
8
FRONT
10
0.439619
20
0.902287
30
0.0
11
0.451902
21
0.891172
31
0.0
0
LINE
8
FRONT
10
0.451902
20
0.891172
30
0.0
11
0.463904
21
0.879755
31
0.0
0
LINE
8
FRONT
10
0.463904
20
0.879755
30
0.0
11
0.475617
21
0.868042
31
0.0
0
LINE
8
FRONT
10
0.475617
20
0.868042
30
0.0
11
0.487034
21
0.856040
31
0.0
0
LINE
8
FRONT
10
0.487034
20
0.856040
30
0.0
11
0.498149
21
0.843757
31
0.0
0
LINE
8
FRONT
10
0.498149
20
0.843757
30
0.0
11
0.508954
21
0.831201
31
0.0
0
LINE
8
FRONT
10
0.508954
20
0.831201
30
0.0
11
0.519443
21
0.818380
31
0.0
0
LINE
8
FRONT
10
0.519443
20
0.818380
30
0.0
11
0.529609
21
0.805301
31
0.0
0
LINE
8
FRONT
10
0.529609
20
0.805301
30
0.0
11
0.539446
21
0.791973
31
0.0
0
LINE
8
FRONT
10
0.539446
20
0.791973
30
0.0
11
0.548947
21
0.778404
31
0.0
0
LINE
8
FRONT
10
0.548947
20
0.778404
30
0.0
11
0.558107
21
0.764602
31
0.0
0
LINE
8
FRONT
10
0.558107
20
0.764602
30
0.0
11
0.566920
21
0.750576
31
0.0
0
LINE
8
FRONT
10
0.566920
20
0.750576
30
0.0
11
0.575381
21
0.736334
31
0.0
0
LINE
8
FRONT
10
0.575381
20
0.736334
30
0.0
11
0.583484
21
0.721886
31
0.0
0
LINE
8
FRONT
10
0.583484
20
0.721886
30
0.0
11
0.591225
21
0.707241
31
0.0
0
LINE
8
FRONT
10
0.591225
20
0.707241
30
0.0
11
0.598597
21
0.692407
31
0.0
0
LINE
8
FRONT
10
0.598597
20
0.692407
30
0.0
11
0.605598
21
0.677394
31
0.0
0
LINE
8
FRONT
10
0.605598
20
0.677394
30
0.0
11
0.612222
21
0.662211
31
0.0
0
LINE
8
FRONT
10
0.612222
20
0.662211
30
0.0
11
0.618466
21
0.646868
31
0.0
0
LINE
8
FRONT
10
0.618466
20
0.646868
30
0.0
11
0.624325
21
0.631374
31
0.0
0
LINE
8
FRONT
10
0.624325
20
0.631374
30
0.0
11
0.629796
21
0.615738
31
0.0
0
LINE
8
FRONT
10
0.629796
20
0.615738
30
0.0
11
0.634876
21
0.599971
31
0.0
0
LINE
8
FRONT
10
0.634876
20
0.599971
30
0.0
11
0.639561
21
0.584082
31
0.0
0
LINE
8
FRONT
10
0.639561
20
0.584082
30
0.0
11
0.643848
21
0.568082
31
0.0
0
LINE
8
FRONT
10
0.643848
20
0.568082
30
0.0
11
0.647735
21
0.551979
31
0.0
0
LINE
8
FRONT
10
0.647735
20
0.551979
30
0.0
11
0.651220
21
0.535785
31
0.0
0
LINE
8
FRONT
10
0.651220
20
0.535785
30
0.0
11
0.654299
21
0.519509
31
0.0
0
LINE
8
FRONT
10
0.654299
20
0.519509
30
0.0
11
0.656972
21
0.503161
31
0.0
0
LINE
8
FRONT
10
0.656972
20
0.503161
30
0.0
11
0.659237
21
0.486751
31
0.0
0
LINE
8
FRONT
10
0.659237
20
0.486751
30
0.0
11
0.661091
21
0.470290
31
0.0
0
LINE
8
FRONT
10
0.661091
20
0.470290
30
0.0
11
0.662535
21
0.453788
31
0.0
0
LINE
8
FRONT
10
0.662535
20
0.453788
30
0.0
11
0.663567
21
0.437255
31
0.0
0
LINE
8
FRONT
10
0.663567
20
0.437255
30
0.0
11
0.664186
21
0.420702
31
0.0
0
LINE
8
FRONT
10
0.664186
20
0.420702
30
0.0
11
0.664393
21
0.404138
31
0.0
0
LINE
8
FRONT
10
0.000000
20
1.123897
30
0.0
11
0.000000
21
1.068531
31
0.0
0
LINE
8
FRONT
10
0.713827
20
0.496356
30
0.0
11
0.711749
21
0.511221
31
0.0
0
LINE
8
FRONT
10
0.711749
20
0.511221
30
0.0
11
0.709361
21
0.526040
31
0.0
0
LINE
8
FRONT
10
0.709361
20
0.526040
30
0.0
11
0.706665
21
0.540806
31
0.0
0
LINE
8
FRONT
10
0.706665
20
0.540806
30
0.0
11
0.703661
21
0.555513
31
0.0
0
LINE
8
FRONT
10
0.703661
20
0.555513
30
0.0
11
0.700351
21
0.570153
31
0.0
0
LINE
8
FRONT
10
0.700351
20
0.570153
30
0.0
11
0.696737
21
0.584722
31
0.0
0
LINE
8
FRONT
10
0.696737
20
0.584722
30
0.0
11
0.692820
21
0.599212
31
0.0
0
LINE
8
FRONT
10
0.692820
20
0.599212
30
0.0
11
0.688601
21
0.613617
31
0.0
0
LINE
8
FRONT
10
0.688601
20
0.613617
30
0.0
11
0.684083
21
0.627931
31
0.0
0
LINE
8
FRONT
10
0.684083
20
0.627931
30
0.0
11
0.679268
21
0.642147
31
0.0
0
LINE
8
FRONT
10
0.679268
20
0.642147
30
0.0
11
0.674157
21
0.656260
31
0.0
0
LINE
8
FRONT
10
0.674157
20
0.656260
30
0.0
11
0.668753
21
0.670264
31
0.0
0
LINE
8
FRONT
10
0.668753
20
0.670264
30
0.0
11
0.663058
21
0.684151
31
0.0
0
LINE
8
FRONT
10
0.663058
20
0.684151
30
0.0
11
0.657074
21
0.697917
31
0.0
0
LINE
8
FRONT
10
0.657074
20
0.697917
30
0.0
11
0.650805
21
0.711556
31
0.0
0
LINE
8
FRONT
10
0.650805
20
0.711556
30
0.0
11
0.644253
21
0.725060
31
0.0
0
LINE
8
FRONT
10
0.644253
20
0.725060
30
0.0
11
0.637421
21
0.738425
31
0.0
0
LINE
8
FRONT
10
0.637421
20
0.738425
30
0.0
11
0.630311
21
0.751645
31
0.0
0
LINE
8
FRONT
10
0.630311
20
0.751645
30
0.0
11
0.622927
21
0.764713
31
0.0
0
LINE
8
FRONT
10
0.622927
20
0.764713
30
0.0
11
0.615273
21
0.777625
31
0.0
0
LINE
8
FRONT
10
0.615273
20
0.777625
30
0.0
11
0.607351
21
0.790374
31
0.0
0
LINE
8
FRONT
10
0.607351
20
0.790374
30
0.0
11
0.599164
21
0.802955
31
0.0
0
LINE
8
FRONT
10
0.599164
20
0.802955
30
0.0
11
0.590718
21
0.815363
31
0.0
0
LINE
8
FRONT
10
0.590718
20
0.815363
30
0.0
11
0.582014
21
0.827592
31
0.0
0
LINE
8
FRONT
10
0.582014
20
0.827592
30
0.0
11
0.573057
21
0.839636
31
0.0
0
LINE
8
FRONT
10
0.573057
20
0.839636
30
0.0
11
0.563851
21
0.851492
31
0.0
0
LINE
8
FRONT
10
0.563851
20
0.851492
30
0.0
11
0.554399
21
0.863152
31
0.0
0
LINE
8
FRONT
10
0.554399
20
0.863152
30
0.0
11
0.544707
21
0.874614
31
0.0
0
LINE
8
FRONT
10
0.544707
20
0.874614
30
0.0
11
0.534778
21
0.885870
31
0.0
0
LINE
8
FRONT
10
0.534778
20
0.885870
30
0.0
11
0.524616
21
0.896917
31
0.0
0
LINE
8
FRONT
10
0.524616
20
0.896917
30
0.0
11
0.514226
21
0.907750
31
0.0
0
LINE
8
FRONT
10
0.514226
20
0.907750
30
0.0
11
0.503612
21
0.918364
31
0.0
0
LINE
8
FRONT
10
0.503612
20
0.918364
30
0.0
11
0.492779
21
0.928754
31
0.0
0
LINE
8
FRONT
10
0.492779
20
0.928754
30
0.0
11
0.481732
21
0.938916
31
0.0
0
LINE
8
FRONT
10
0.481732
20
0.938916
30
0.0
11
0.470476
21
0.948845
31
0.0
0
LINE
8
FRONT
10
0.470476
20
0.948845
30
0.0
11
0.459014
21
0.958537
31
0.0
0
LINE
8
FRONT
10
0.459014
20
0.958537
30
0.0
11
0.447354
21
0.967989
31
0.0
0
LINE
8
FRONT
10
0.447354
20
0.967989
30
0.0
11
0.435498
21
0.977195
31
0.0
0
LINE
8
FRONT
10
0.435498
20
0.977195
30
0.0
11
0.423454
21
0.986152
31
0.0
0
LINE
8
FRONT
10
0.423454
20
0.986152
30
0.0
11
0.411225
21
0.994855
31
0.0
0
LINE
8
FRONT
10
0.411225
20
0.994855
30
0.0
11
0.398817
21
1.003302
31
0.0
0
LINE
8
FRONT
10
0.398817
20
1.003302
30
0.0
11
0.386236
21
1.011489
31
0.0
0
LINE
8
FRONT
10
0.386236
20
1.011489
30
0.0
11
0.373487
21
1.019411
31
0.0
0
LINE
8
FRONT
10
0.373487
20
1.019411
30
0.0
11
0.360575
21
1.027065
31
0.0
0
LINE
8
FRONT
10
0.360575
20
1.027065
30
0.0
11
0.347507
21
1.034449
31
0.0
0
LINE
8
FRONT
10
0.347507
20
1.034449
30
0.0
11
0.334287
21
1.041559
31
0.0
0
LINE
8
FRONT
10
0.334287
20
1.041559
30
0.0
11
0.320922
21
1.048391
31
0.0
0
LINE
8
FRONT
10
0.320922
20
1.048391
30
0.0
11
0.307418
21
1.054943
31
0.0
0
LINE
8
FRONT
10
0.307418
20
1.054943
30
0.0
11
0.293780
21
1.061212
31
0.0
0
LINE
8
FRONT
10
0.293780
20
1.061212
30
0.0
11
0.280014
21
1.067196
31
0.0
0
LINE
8
FRONT
10
0.280014
20
1.067196
30
0.0
11
0.266126
21
1.072891
31
0.0
0
LINE
8
FRONT
10
0.266126
20
1.072891
30
0.0
11
0.252122
21
1.078295
31
0.0
0
LINE
8
FRONT
10
0.252122
20
1.078295
30
0.0
11
0.238009
21
1.083406
31
0.0
0
LINE
8
FRONT
10
0.238009
20
1.083406
30
0.0
11
0.223793
21
1.088221
31
0.0
0
LINE
8
FRONT
10
0.223793
20
1.088221
30
0.0
11
0.209479
21
1.092739
31
0.0
0
LINE
8
FRONT
10
0.209479
20
1.092739
30
0.0
11
0.195074
21
1.096958
31
0.0
0
LINE
8
FRONT
10
0.195074
20
1.096958
30
0.0
11
0.180584
21
1.100875
31
0.0
0
LINE
8
FRONT
10
0.180584
20
1.100875
30
0.0
11
0.166015
21
1.104489
31
0.0
0
LINE
8
FRONT
10
0.166015
20
1.104489
30
0.0
11
0.151375
21
1.107799
31
0.0
0
LINE
8
FRONT
10
0.151375
20
1.107799
30
0.0
11
0.136668
21
1.110803
31
0.0
0
LINE
8
FRONT
10
0.136668
20
1.110803
30
0.0
11
0.121902
21
1.113499
31
0.0
0
LINE
8
FRONT
10
0.121902
20
1.113499
30
0.0
11
0.107083
21
1.115887
31
0.0
0
LINE
8
FRONT
10
0.107083
20
1.115887
30
0.0
11
0.092218
21
1.117965
31
0.0
0
LINE
8
FRONT
10
0.719759
20
0.404138
30
0.0
11
0.719757
21
0.405606
31
0.0
0
LINE
8
FRONT
10
0.719757
20
0.405606
30
0.0
11
0.719753
21
0.407074
31
0.0
0
LINE
8
FRONT
10
0.719753
20
0.407074
30
0.0
11
0.719746
21
0.408541
31
0.0
0
LINE
8
FRONT
10
0.719746
20
0.408541
30
0.0
11
0.719735
21
0.410009
31
0.0
0
LINE
8
FRONT
10
0.719735
20
0.410009
30
0.0
11
0.719722
21
0.411477
31
0.0
0
LINE
8
FRONT
10
0.719722
20
0.411477
30
0.0
11
0.719705
21
0.412945
31
0.0
0
LINE
8
FRONT
10
0.719705
20
0.412945
30
0.0
11
0.719686
21
0.414412
31
0.0
0
LINE
8
FRONT
10
0.719686
20
0.414412
30
0.0
11
0.719663
21
0.415880
31
0.0
0
LINE
8
FRONT
10
0.719663
20
0.415880
30
0.0
11
0.719638
21
0.417347
31
0.0
0
LINE
8
FRONT
10
0.719638
20
0.417347
30
0.0
11
0.719609
21
0.418815
31
0.0
0
LINE
8
FRONT
10
0.719609
20
0.418815
30
0.0
11
0.719578
21
0.420283
31
0.0
0
LINE
8
FRONT
10
0.719578
20
0.420283
30
0.0
11
0.719543
21
0.421750
31
0.0
0
LINE
8
FRONT
10
0.719543
20
0.421750
30
0.0
11
0.719506
21
0.423217
31
0.0
0
LINE
8
FRONT
10
0.719506
20
0.423217
30
0.0
11
0.719466
21
0.424685
31
0.0
0
LINE
8
FRONT
10
0.719466
20
0.424685
30
0.0
11
0.719422
21
0.426152
31
0.0
0
LINE
8
FRONT
10
0.719422
20
0.426152
30
0.0
11
0.719376
21
0.427619
31
0.0
0
LINE
8
FRONT
10
0.719376
20
0.427619
30
0.0
11
0.719326
21
0.429086
31
0.0
0
LINE
8
FRONT
10
0.719326
20
0.429086
30
0.0
11
0.719274
21
0.430553
31
0.0
0
LINE
8
FRONT
10
0.719274
20
0.430553
30
0.0
11
0.719219
21
0.432019
31
0.0
0
LINE
8
FRONT
10
0.719219
20
0.432019
30
0.0
11
0.719160
21
0.433486
31
0.0
0
LINE
8
FRONT
10
0.719160
20
0.433486
30
0.0
11
0.719099
21
0.434953
31
0.0
0
LINE
8
FRONT
10
0.719099
20
0.434953
30
0.0
11
0.719035
21
0.436419
31
0.0
0
LINE
8
FRONT
10
0.719035
20
0.436419
30
0.0
11
0.718967
21
0.437885
31
0.0
0
LINE
8
FRONT
10
0.718967
20
0.437885
30
0.0
11
0.718897
21
0.439351
31
0.0
0
LINE
8
FRONT
10
0.718897
20
0.439351
30
0.0
11
0.718824
21
0.440817
31
0.0
0
LINE
8
FRONT
10
0.718824
20
0.440817
30
0.0
11
0.718747
21
0.442283
31
0.0
0
LINE
8
FRONT
10
0.718747
20
0.442283
30
0.0
11
0.718668
21
0.443749
31
0.0
0
LINE
8
FRONT
10
0.718668
20
0.443749
30
0.0
11
0.718586
21
0.445214
31
0.0
0
LINE
8
FRONT
10
0.718586
20
0.445214
30
0.0
11
0.718501
21
0.446680
31
0.0
0
LINE
8
FRONT
10
0.718501
20
0.446680
30
0.0
11
0.718412
21
0.448145
31
0.0
0
LINE
8
FRONT
10
0.718412
20
0.448145
30
0.0
11
0.718321
21
0.449610
31
0.0
0
LINE
8
FRONT
10
0.718321
20
0.449610
30
0.0
11
0.718227
21
0.451075
31
0.0
0
LINE
8
FRONT
10
0.718227
20
0.451075
30
0.0
11
0.718130
21
0.452539
31
0.0
0
LINE
8
FRONT
10
0.718130
20
0.452539
30
0.0
11
0.718030
21
0.454004
31
0.0
0
LINE
8
FRONT
10
0.718030
20
0.454004
30
0.0
11
0.717926
21
0.455468
31
0.0
0
LINE
8
FRONT
10
0.717926
20
0.455468
30
0.0
11
0.717820
21
0.456932
31
0.0
0
LINE
8
FRONT
10
0.717820
20
0.456932
30
0.0
11
0.717711
21
0.458395
31
0.0
0
LINE
8
FRONT
10
0.717711
20
0.458395
30
0.0
11
0.717599
21
0.459859
31
0.0
0
LINE
8
FRONT
10
0.717599
20
0.459859
30
0.0
11
0.717484
21
0.461322
31
0.0
0
LINE
8
FRONT
10
0.717484
20
0.461322
30
0.0
11
0.717366
21
0.462785
31
0.0
0
LINE
8
FRONT
10
0.717366
20
0.462785
30
0.0
11
0.717245
21
0.464248
31
0.0
0
LINE
8
FRONT
10
0.717245
20
0.464248
30
0.0
11
0.717120
21
0.465711
31
0.0
0
LINE
8
FRONT
10
0.717120
20
0.465711
30
0.0
11
0.716993
21
0.467173
31
0.0
0
LINE
8
FRONT
10
0.716993
20
0.467173
30
0.0
11
0.716863
21
0.468635
31
0.0
0
LINE
8
FRONT
10
0.716863
20
0.468635
30
0.0
11
0.716730
21
0.470097
31
0.0
0
LINE
8
FRONT
10
0.716730
20
0.470097
30
0.0
11
0.716594
21
0.471558
31
0.0
0
LINE
8
FRONT
10
0.716594
20
0.471558
30
0.0
11
0.716455
21
0.473020
31
0.0
0
LINE
8
FRONT
10
0.716455
20
0.473020
30
0.0
11
0.716313
21
0.474480
31
0.0
0
LINE
8
FRONT
10
0.716313
20
0.474480
30
0.0
11
0.716169
21
0.475941
31
0.0
0
LINE
8
FRONT
10
0.716169
20
0.475941
30
0.0
11
0.716021
21
0.477401
31
0.0
0
LINE
8
FRONT
10
0.716021
20
0.477401
30
0.0
11
0.715870
21
0.478861
31
0.0
0
LINE
8
FRONT
10
0.715870
20
0.478861
30
0.0
11
0.715716
21
0.480321
31
0.0
0
LINE
8
FRONT
10
0.715716
20
0.480321
30
0.0
11
0.715559
21
0.481781
31
0.0
0
LINE
8
FRONT
10
0.715559
20
0.481781
30
0.0
11
0.715399
21
0.483240
31
0.0
0
LINE
8
FRONT
10
0.715399
20
0.483240
30
0.0
11
0.715236
21
0.484698
31
0.0
0
LINE
8
FRONT
10
0.715236
20
0.484698
30
0.0
11
0.715071
21
0.486157
31
0.0
0
LINE
8
FRONT
10
0.715071
20
0.486157
30
0.0
11
0.714902
21
0.487615
31
0.0
0
LINE
8
FRONT
10
0.714902
20
0.487615
30
0.0
11
0.714730
21
0.489073
31
0.0
0
LINE
8
FRONT
10
0.714730
20
0.489073
30
0.0
11
0.714555
21
0.490530
31
0.0
0
LINE
8
FRONT
10
0.714555
20
0.490530
30
0.0
11
0.714378
21
0.491987
31
0.0
0
LINE
8
FRONT
10
0.714378
20
0.491987
30
0.0
11
0.714197
21
0.493444
31
0.0
0
LINE
8
FRONT
10
0.714197
20
0.493444
30
0.0
11
0.714014
21
0.494900
31
0.0
0
LINE
8
FRONT
10
0.714014
20
0.494900
30
0.0
11
0.713827
21
0.496356
31
0.0
0
LINE
8
LEFT
10
1.317713
20
1.483811
30
0.0
11
1.317713
21
1.290030
31
0.0
0
LINE
8
LEFT
10
1.373079
20
1.483811
30
0.0
11
1.373079
21
1.290030
31
0.0
0
LINE
8
LEFT
10
1.317713
20
1.290030
30
0.0
11
1.373079
21
1.290030
31
0.0
0
LINE
8
LEFT
10
1.317713
20
1.290030
30
0.0
11
1.317713
21
1.234663
31
0.0
0
LINE
8
LEFT
10
1.373079
20
1.290030
30
0.0
11
1.373079
21
1.234663
31
0.0
0
LINE
8
LEFT
10
1.317713
20
0.404172
30
0.0
11
1.317713
21
0.293440
31
0.0
0
LINE
8
LEFT
10
1.373079
20
0.404172
30
0.0
11
1.373079
21
0.293440
31
0.0
0
LINE
8
LEFT
10
1.317713
20
1.234663
30
0.0
11
1.373079
21
1.234663
31
0.0
0
LINE
8
LEFT
10
1.317713
20
1.234663
30
0.0
11
1.317713
21
1.123931
31
0.0
0
LINE
8
LEFT
10
1.373079
20
1.234663
30
0.0
11
1.373079
21
1.123931
31
0.0
0
LINE
8
LEFT
10
1.317713
20
1.068565
30
0.0
11
1.373079
21
1.068565
31
0.0
0
LINE
8
LEFT
10
1.373079
20
1.068565
30
0.0
11
1.373079
21
0.404172
31
0.0
0
LINE
8
LEFT
10
1.317713
20
1.068565
30
0.0
11
1.317713
21
0.404172
31
0.0
0
LINE
8
LEFT
10
1.317713
20
1.123931
30
0.0
11
1.373079
21
1.123931
31
0.0
0
LINE
8
LEFT
10
1.317713
20
1.123931
30
0.0
11
1.317713
21
1.068565
31
0.0
0
LINE
8
LEFT
10
1.373079
20
1.123931
30
0.0
11
1.373079
21
1.068565
31
0.0
0
LINE
8
LEFT
10
1.317713
20
0.404172
30
0.0
11
1.373079
21
0.404172
31
0.0
0
LINE
8
LEFT
10
1.373079
20
1.483811
30
0.0
11
1.317713
21
1.483811
31
0.0
0
LINE
8
LEFT
10
1.373079
20
0.293440
30
0.0
11
1.317713
21
0.293440
31
0.0
0
LINE
8
LEFT_HID
6
HIDDEN
10
1.373079
20
1.290030
30
0.0
11
1.373079
21
1.400762
31
0.0
0
LINE
8
LEFT_HID
6
HIDDEN
10
1.373079
20
1.400762
30
0.0
11
1.373079
21
1.179297
31
0.0
0
LINE
8
LEFT_HID
6
HIDDEN
10
1.317713
20
1.179297
30
0.0
11
1.373079
21
1.179297
31
0.0
0
LINE
8
LEFT_HID
6
HIDDEN
10
1.317713
20
1.290030
30
0.0
11
1.317713
21
1.400762
31
0.0
0
LINE
8
LEFT_HID
6
HIDDEN
10
1.317713
20
1.400762
30
0.0
11
1.317713
21
1.179297
31
0.0
0
LINE
8
LEFT_HID
6
HIDDEN
10
1.373079
20
1.179297
30
0.0
11
1.373079
21
1.290030
31
0.0
0
LINE
8
LEFT_HID
6
HIDDEN
10
1.317713
20
1.179297
30
0.0
11
1.317713
21
1.290030
31
0.0
0
LINE
8
LEFT_HID
6
HIDDEN
10
1.317713
20
1.096248
30
0.0
11
1.317713
21
1.179297
31
0.0
0
LINE
8
LEFT_HID
6
HIDDEN
10
1.317713
20
1.096248
30
0.0
11
1.317713
21
1.483811
31
0.0
0
LINE
8
LEFT_HID
6
HIDDEN
10
1.373079
20
1.096248
30
0.0
11
1.373079
21
1.179297
31
0.0
0
LINE
8
LEFT_HID
6
HIDDEN
10
1.373079
20
1.096248
30
0.0
11
1.373079
21
1.483811
31
0.0
0
LINE
8
LEFT_HID
6
HIDDEN
10
1.317713
20
1.096248
30
0.0
11
1.317713
21
1.290030
31
0.0
0
LINE
8
LEFT_HID
6
HIDDEN
10
1.373079
20
1.096248
30
0.0
11
1.373079
21
1.290030
31
0.0
0
LINE
8
LEFT_HID
6
HIDDEN
10
1.317713
20
1.096248
30
0.0
11
1.373079
21
1.096248
31
0.0
0
LINE
8
LEFT_HID
6
HIDDEN
10
1.317713
20
1.290030
30
0.0
11
1.317713
21
1.228731
31
0.0
0
LINE
8
LEFT_HID
6
HIDDEN
10
1.317713
20
1.228731
30
0.0
11
1.317713
21
0.503258
31
0.0
0
LINE
8
LEFT_HID
6
HIDDEN
10
1.317713
20
0.503258
30
0.0
11
1.317713
21
0.404172
31
0.0
0
LINE
8
LEFT_HID
6
HIDDEN
10
1.317713
20
0.404172
30
0.0
11
1.317713
21
1.096248
31
0.0
0
LINE
8
LEFT_HID
6
HIDDEN
10
1.373079
20
1.290030
30
0.0
11
1.373079
21
1.228731
31
0.0
0
LINE
8
LEFT_HID
6
HIDDEN
10
1.373079
20
1.228731
30
0.0
11
1.373079
21
0.503258
31
0.0
0
LINE
8
LEFT_HID
6
HIDDEN
10
1.373079
20
0.503258
30
0.0
11
1.373079
21
0.404172
31
0.0
0
LINE
8
LEFT_HID
6
HIDDEN
10
1.373079
20
0.404172
30
0.0
11
1.373079
21
1.096248
31
0.0
0
LINE
8
LEFT_HID
6
HIDDEN
10
1.317713
20
1.234663
30
0.0
11
1.317713
21
1.228731
31
0.0
0
LINE
8
LEFT_HID
6
HIDDEN
10
1.317713
20
1.228731
30
0.0
11
1.373079
21
1.228731
31
0.0
0
LINE
8
LEFT_HID
6
HIDDEN
10
1.317713
20
0.503258
30
0.0
11
1.317713
21
0.404172
31
0.0
0
LINE
8
LEFT_HID
6
HIDDEN
10
1.373079
20
1.234663
30
0.0
11
1.373079
21
1.228731
31
0.0
0
LINE
8
LEFT_HID
6
HIDDEN
10
1.373079
20
0.503258
30
0.0
11
1.373079
21
0.404172
31
0.0
0
LINE
8
LEFT_HID
6
HIDDEN
10
1.317713
20
1.117999
30
0.0
11
1.317713
21
1.123931
31
0.0
0
LINE
8
LEFT_HID
6
HIDDEN
10
1.317713
20
1.117999
30
0.0
11
1.317713
21
1.228731
31
0.0
0
LINE
8
LEFT_HID
6
HIDDEN
10
1.373079
20
1.117999
30
0.0
11
1.373079
21
1.228731
31
0.0
0
LINE
8
LEFT_HID
6
HIDDEN
10
1.317713
20
1.117999
30
0.0
11
1.373079
21
1.117999
31
0.0
0
LINE
8
LEFT_HID
6
HIDDEN
10
1.317713
20
0.404172
30
0.0
11
1.317713
21
0.348806
31
0.0
0
LINE
8
LEFT_HID
6
HIDDEN
10
1.317713
20
0.348806
30
0.0
11
1.317713
21
0.404172
31
0.0
0
LINE
8
LEFT_HID
6
HIDDEN
10
1.373079
20
1.117999
30
0.0
11
1.373079
21
1.123931
31
0.0
0
LINE
8
LEFT_HID
6
HIDDEN
10
1.373079
20
0.404172
30
0.0
11
1.373079
21
0.348806
31
0.0
0
LINE
8
LEFT_HID
6
HIDDEN
10
1.373079
20
0.348806
30
0.0
11
1.373079
21
0.404172
31
0.0
0
LINE
8
LEFT_HID
6
HIDDEN
10
1.317713
20
1.117999
30
0.0
11
1.317713
21
1.068565
31
0.0
0
LINE
8
LEFT_HID
6
HIDDEN
10
1.317713
20
0.496390
30
0.0
11
1.317713
21
1.117999
31
0.0
0
LINE
8
LEFT_HID
6
HIDDEN
10
1.373079
20
0.496390
30
0.0
11
1.373079
21
1.117999
31
0.0
0
LINE
8
LEFT_HID
6
HIDDEN
10
1.317713
20
0.404172
30
0.0
11
1.317713
21
0.496390
31
0.0
0
LINE
8
LEFT_HID
6
HIDDEN
10
1.317713
20
0.404172
30
0.0
11
1.317713
21
0.496390
31
0.0
0
LINE
8
LEFT_HID
6
HIDDEN
10
1.373079
20
1.117999
30
0.0
11
1.373079
21
1.068565
31
0.0
0
LINE
8
LEFT_HID
6
HIDDEN
10
1.373079
20
0.404172
30
0.0
11
1.373079
21
0.496390
31
0.0
0
LINE
8
LEFT_HID
6
HIDDEN
10
1.373079
20
0.404172
30
0.0
11
1.373079
21
0.496390
31
0.0
0
LINE
8
LEFT_HID
6
HIDDEN
10
1.317713
20
0.503258
30
0.0
11
1.373079
21
0.503258
31
0.0
0
LINE
8
LEFT_HID
6
HIDDEN
10
1.317713
20
0.496390
30
0.0
11
1.373079
21
0.496390
31
0.0
0
LINE
8
LEFT_HID
6
HIDDEN
10
1.373079
20
1.400762
30
0.0
11
1.317713
21
1.400762
31
0.0
0
LINE
8
LEFT_HID
6
HIDDEN
10
1.373079
20
0.348806
30
0.0
11
1.317713
21
0.348806
31
0.0
0
LINE
8
TOP
10
1.079638
20
0.055366
30
0.0
11
0.692076
21
0.055366
31
0.0
0
LINE
8
TOP
10
1.079638
20
0.000000
30
0.0
11
0.692076
21
0.000000
31
0.0
0
LINE
8
TOP
10
0.692076
20
0.055366
30
0.0
11
0.692076
21
0.000000
31
0.0
0
LINE
8
TOP
10
0.692076
20
0.055366
30
0.0
11
0.000000
21
0.055366
31
0.0
0
LINE
8
TOP
10
0.692076
20
0.000000
30
0.0
11
0.000000
21
0.000000
31
0.0
0
LINE
8
TOP
10
0.000000
20
0.055366
30
0.0
11
0.000000
21
0.000000
31
0.0
0
LINE
8
TOP
10
1.079638
20
0.000000
30
0.0
11
1.079638
21
0.055366
31
0.0
0
LINE
8
TOP_HID
6
HIDDEN
10
0.775125
20
0.055366
30
0.0
11
0.775125
21
0.000000
31
0.0
0
LINE
8
TOP_HID
6
HIDDEN
10
0.775125
20
0.000000
30
0.0
11
0.996589
21
0.000000
31
0.0
0
LINE
8
TOP_HID
6
HIDDEN
10
0.996589
20
0.000000
30
0.0
11
0.885857
21
0.000000
31
0.0
0
LINE
8
TOP_HID
6
HIDDEN
10
0.775125
20
0.055366
30
0.0
11
0.996589
21
0.055366
31
0.0
0
LINE
8
TOP_HID
6
HIDDEN
10
0.996589
20
0.055366
30
0.0
11
0.885857
21
0.055366
31
0.0
0
LINE
8
TOP_HID
6
HIDDEN
10
0.885857
20
0.000000
30
0.0
11
0.775125
21
0.000000
31
0.0
0
LINE
8
TOP_HID
6
HIDDEN
10
0.885857
20
0.055366
30
0.0
11
0.775125
21
0.055366
31
0.0
0
LINE
8
TOP_HID
6
HIDDEN
10
0.775125
20
0.055366
30
0.0
11
0.692076
21
0.055366
31
0.0
0
LINE
8
TOP_HID
6
HIDDEN
10
0.885857
20
0.055366
30
0.0
11
1.079638
21
0.055366
31
0.0
0
LINE
8
TOP_HID
6
HIDDEN
10
0.775125
20
0.000000
30
0.0
11
0.692076
21
0.000000
31
0.0
0
LINE
8
TOP_HID
6
HIDDEN
10
0.885857
20
0.000000
30
0.0
11
1.079638
21
0.000000
31
0.0
0
LINE
8
TOP_HID
6
HIDDEN
10
0.885857
20
0.055366
30
0.0
11
0.692076
21
0.055366
31
0.0
0
LINE
8
TOP_HID
6
HIDDEN
10
0.885857
20
0.000000
30
0.0
11
0.692076
21
0.000000
31
0.0
0
LINE
8
TOP_HID
6
HIDDEN
10
0.885857
20
0.055366
30
0.0
11
0.885857
21
0.000000
31
0.0
0
LINE
8
TOP_HID
6
HIDDEN
10
0.000000
20
0.055366
30
0.0
11
0.099085
21
0.055366
31
0.0
0
LINE
8
TOP_HID
6
HIDDEN
10
0.099085
20
0.055366
30
0.0
11
0.824559
21
0.055366
31
0.0
0
LINE
8
TOP_HID
6
HIDDEN
10
0.824559
20
0.055366
30
0.0
11
0.885857
21
0.055366
31
0.0
0
LINE
8
TOP_HID
6
HIDDEN
10
0.000000
20
0.000000
30
0.0
11
0.099085
21
0.000000
31
0.0
0
LINE
8
TOP_HID
6
HIDDEN
10
0.099085
20
0.000000
30
0.0
11
0.824559
21
0.000000
31
0.0
0
LINE
8
TOP_HID
6
HIDDEN
10
0.824559
20
0.000000
30
0.0
11
0.885857
21
0.000000
31
0.0
0
LINE
8
TOP_HID
6
HIDDEN
10
0.885857
20
0.055366
30
0.0
11
0.885857
21
0.000000
31
0.0
0
LINE
8
TOP_HID
6
HIDDEN
10
0.000000
20
0.055366
30
0.0
11
0.099085
21
0.055366
31
0.0
0
LINE
8
TOP_HID
6
HIDDEN
10
0.099085
20
0.055366
30
0.0
11
0.099085
21
0.000000
31
0.0
0
LINE
8
TOP_HID
6
HIDDEN
10
0.824559
20
0.055366
30
0.0
11
0.830491
21
0.055366
31
0.0
0
LINE
8
TOP_HID
6
HIDDEN
10
0.885857
20
0.055366
30
0.0
11
0.830491
21
0.055366
31
0.0
0
LINE
8
TOP_HID
6
HIDDEN
10
0.000000
20
0.000000
30
0.0
11
0.099085
21
0.000000
31
0.0
0
LINE
8
TOP_HID
6
HIDDEN
10
0.824559
20
0.000000
30
0.0
11
0.830491
21
0.000000
31
0.0
0
LINE
8
TOP_HID
6
HIDDEN
10
0.885857
20
0.000000
30
0.0
11
0.830491
21
0.000000
31
0.0
0
LINE
8
TOP_HID
6
HIDDEN
10
0.664393
20
0.055366
30
0.0
11
0.885857
21
0.055366
31
0.0
0
LINE
8
TOP_HID
6
HIDDEN
10
0.664393
20
0.000000
30
0.0
11
0.885857
21
0.000000
31
0.0
0
LINE
8
TOP_HID
6
HIDDEN
10
0.664393
20
0.055366
30
0.0
11
0.664393
21
0.000000
31
0.0
0
LINE
8
TOP_HID
6
HIDDEN
10
0.092218
20
0.055366
30
0.0
11
0.000000
21
0.055366
31
0.0
0
LINE
8
TOP_HID
6
HIDDEN
10
0.092218
20
0.055366
30
0.0
11
0.110732
21
0.055366
31
0.0
0
LINE
8
TOP_HID
6
HIDDEN
10
0.110732
20
0.055366
30
0.0
11
0.099085
21
0.055366
31
0.0
0
LINE
8
TOP_HID
6
HIDDEN
10
0.000000
20
0.055366
30
0.0
11
0.055366
21
0.055366
31
0.0
0
LINE
8
TOP_HID
6
HIDDEN
10
0.055366
20
0.055366
30
0.0
11
0.000000
21
0.055366
31
0.0
0
LINE
8
TOP_HID
6
HIDDEN
10
0.092218
20
0.000000
30
0.0
11
0.110732
21
0.000000
31
0.0
0
LINE
8
TOP_HID
6
HIDDEN
10
0.110732
20
0.000000
30
0.0
11
0.099085
21
0.000000
31
0.0
0
LINE
8
TOP_HID
6
HIDDEN
10
0.092218
20
0.055366
30
0.0
11
0.092218
21
0.000000
31
0.0
0
LINE
8
TOP_HID
6
HIDDEN
10
0.830491
20
0.055366
30
0.0
11
0.830491
21
0.000000
31
0.0
0
LINE
8
TOP_HID
6
HIDDEN
10
0.830491
20
0.055366
30
0.0
11
0.719759
21
0.055366
31
0.0
0
LINE
8
TOP_HID
6
HIDDEN
10
0.664393
20
0.055366
30
0.0
11
0.719759
21
0.055366
31
0.0
0
LINE
8
TOP_HID
6
HIDDEN
10
0.092218
20
0.000000
30
0.0
11
0.000000
21
0.000000
31
0.0
0
LINE
8
TOP_HID
6
HIDDEN
10
0.000000
20
0.000000
30
0.0
11
0.055366
21
0.000000
31
0.0
0
LINE
8
TOP_HID
6
HIDDEN
10
0.055366
20
0.000000
30
0.0
11
0.000000
21
0.000000
31
0.0
0
LINE
8
TOP_HID
6
HIDDEN
10
0.830491
20
0.000000
30
0.0
11
0.719759
21
0.000000
31
0.0
0
LINE
8
TOP_HID
6
HIDDEN
10
0.664393
20
0.000000
30
0.0
11
0.719759
21
0.000000
31
0.0
0
LINE
8
TOP_HID
6
HIDDEN
10
0.000000
20
0.000000
30
0.0
11
0.664393
21
0.000000
31
0.0
0
LINE
8
TOP_HID
6
HIDDEN
10
0.000000
20
0.055366
30
0.0
11
0.664393
21
0.055366
31
0.0
0
LINE
8
TOP_HID
6
HIDDEN
10
0.092218
20
0.055366
30
0.0
11
0.000000
21
0.055366
31
0.0
0
LINE
8
TOP_HID
6
HIDDEN
10
0.713827
20
0.055366
30
0.0
11
0.092218
21
0.055366
31
0.0
0
LINE
8
TOP_HID
6
HIDDEN
10
0.713827
20
0.000000
30
0.0
11
0.092218
21
0.000000
31
0.0
0
LINE
8
TOP_HID
6
HIDDEN
10
0.719759
20
0.055366
30
0.0
11
0.719759
21
0.000000
31
0.0
0
LINE
8
TOP_HID
6
HIDDEN
10
0.719759
20
0.055366
30
0.0
11
0.713827
21
0.055366
31
0.0
0
LINE
8
TOP_HID
6
HIDDEN
10
0.664393
20
0.055366
30
0.0
11
0.713827
21
0.055366
31
0.0
0
LINE
8
TOP_HID
6
HIDDEN
10
0.092218
20
0.000000
30
0.0
11
0.000000
21
0.000000
31
0.0
0
LINE
8
TOP_HID
6
HIDDEN
10
0.719759
20
0.000000
30
0.0
11
0.713827
21
0.000000
31
0.0
0
LINE
8
TOP_HID
6
HIDDEN
10
0.664393
20
0.000000
30
0.0
11
0.713827
21
0.000000
31
0.0
0
LINE
8
TOP_HID
6
HIDDEN
10
0.824559
20
0.055366
30
0.0
11
0.824559
21
0.000000
31
0.0
0
LINE
8
TOP_HID
6
HIDDEN
10
0.713827
20
0.055366
30
0.0
11
0.713827
21
0.000000
31
0.0
0
LINE
8
TOP_HID
6
HIDDEN
10
0.996589
20
0.000000
30
0.0
11
0.996589
21
0.055366
31
0.0
0
LINE
8
TOP_HID
6
HIDDEN
10
0.110732
20
0.000000
30
0.0
11
0.110732
21
0.055366
31
0.0
0
LINE
8
TOP_HID
6
HIDDEN
10
0.055366
20
0.000000
30
0.0
11
0.055366
21
0.055366
31
0.0
0
ENDSEC
0
EOF
