0
SECTION
2
HEADER
9
$ACADVER
1
AC1009
0
ENDSEC
0
SECTION
2
TABLES
0
TABLE
2
LTYPE
70
3
0
LTYPE
2
CONTINUOUS
70
0
3
Solid line
72
65
73
0
40
0.0
0
LTYPE
2
HIDDEN
70
0
3
__ __ __ __ __
72
65
73
2
40
0.037500
49
0.025013
49
-0.012488
0
LTYPE
2
CENTER
70
0
3
___ _ ___ _ ___
72
65
73
4
40
0.087488
49
0.049988
49
-0.012488
49
0.012488
49
-0.012488
0
ENDTAB
0
TABLE
2
LAYER
70
7
0
LAYER
2
0
70
0
62
7
6
CONTINUOUS
0
LAYER
2
FRONT
70
0
62
7
6
CONTINUOUS
0
LAYER
2
FRONT_HID
70
0
62
7
6
HIDDEN
0
LAYER
2
LEFT
70
0
62
7
6
CONTINUOUS
0
LAYER
2
LEFT_HID
70
0
62
7
6
HIDDEN
0
LAYER
2
TOP
70
0
62
7
6
CONTINUOUS
0
LAYER
2
TOP_HID
70
0
62
7
6
HIDDEN
0
ENDTAB
0
ENDSEC
0
SECTION
2
ENTITIES
0
LINE
8
FRONT
10
0.000000
20
0.753485
30
0.0
11
0.000000
21
1.503485
31
0.0
0
LINE
8
FRONT
10
0.460988
20
1.503485
30
0.0
11
0.460988
21
1.253485
31
0.0
0
LINE
8
FRONT
10
0.460988
20
0.753485
30
0.0
11
0.460988
21
1.503485
31
0.0
0
LINE
8
FRONT
10
0.460988
20
0.753485
30
0.0
11
0.000000
21
0.753485
31
0.0
0
LINE
8
FRONT
10
0.460988
20
1.503485
30
0.0
11
0.000000
21
1.503485
31
0.0
0
LINE
8
FRONT_HID
6
HIDDEN
10
0.000000
20
1.503485
30
0.0
11
0.000000
21
1.253485
31
0.0
0
LINE
8
FRONT_HID
6
HIDDEN
10
0.000000
20
1.503485
30
0.0
11
0.000000
21
1.253485
31
0.0
0
LINE
8
FRONT_HID
6
HIDDEN
10
0.411744
20
0.753485
30
0.0
11
0.049244
21
0.753485
31
0.0
0
LINE
8
FRONT_HID
6
HIDDEN
10
0.049244
20
0.753485
30
0.0
11
0.411744
21
0.753485
31
0.0
0
LINE
8
FRONT_HID
6
HIDDEN
10
0.128436
20
0.753485
30
0.0
11
0.332552
21
0.753485
31
0.0
0
LINE
8
FRONT_HID
6
HIDDEN
10
0.332552
20
0.753485
30
0.0
11
0.128436
21
0.753485
31
0.0
0
LINE
8
FRONT_HID
6
HIDDEN
10
0.000000
20
1.503485
30
0.0
11
0.024130
21
1.503485
31
0.0
0
LINE
8
FRONT_HID
6
HIDDEN
10
0.436858
20
1.503485
30
0.0
11
0.460988
21
1.503485
31
0.0
0
LINE
8
FRONT_HID
6
HIDDEN
10
0.412728
20
1.503485
30
0.0
11
0.436858
21
1.503485
31
0.0
0
LINE
8
FRONT_HID
6
HIDDEN
10
0.436858
20
1.503485
30
0.0
11
0.412728
21
1.503485
31
0.0
0
LINE
8
FRONT_HID
6
HIDDEN
10
0.460988
20
1.503485
30
0.0
11
0.436858
21
1.503485
31
0.0
0
LINE
8
FRONT_HID
6
HIDDEN
10
0.024130
20
1.503485
30
0.0
11
0.000000
21
1.503485
31
0.0
0
LINE
8
FRONT_HID
6
HIDDEN
10
0.048260
20
1.503485
30
0.0
11
0.024130
21
1.503485
31
0.0
0
LINE
8
FRONT_HID
6
HIDDEN
10
0.024130
20
1.503485
30
0.0
11
0.048260
21
1.503485
31
0.0
0
LINE
8
FRONT_HID
6
HIDDEN
10
0.128436
20
1.503485
30
0.0
11
0.332552
21
1.503485
31
0.0
0
LINE
8
FRONT_HID
6
HIDDEN
10
0.332552
20
1.503485
30
0.0
11
0.128436
21
1.503485
31
0.0
0
LINE
8
FRONT_HID
6
HIDDEN
10
0.411744
20
1.503485
30
0.0
11
0.049244
21
1.503485
31
0.0
0
LINE
8
FRONT_HID
6
HIDDEN
10
0.049244
20
1.503485
30
0.0
11
0.411744
21
1.503485
31
0.0
0
LINE
8
FRONT_HID
6
HIDDEN
10
0.230494
20
1.503485
30
0.0
11
0.239935
21
1.503485
31
0.0
0
LINE
8
FRONT_HID
6
HIDDEN
10
0.239935
20
1.503485
30
0.0
11
0.230494
21
1.503485
31
0.0
0
LINE
8
FRONT_HID
6
HIDDEN
10
0.000000
20
1.253485
30
0.0
11
0.024130
21
1.253485
31
0.0
0
LINE
8
FRONT_HID
6
HIDDEN
10
0.024130
20
1.503485
30
0.0
11
0.024130
21
1.253485
31
0.0
0
LINE
8
FRONT_HID
6
HIDDEN
10
0.024130
20
1.253485
30
0.0
11
0.048260
21
1.253485
31
0.0
0
LINE
8
FRONT_HID
6
HIDDEN
10
0.048260
20
1.253485
30
0.0
11
0.024130
21
1.253485
31
0.0
0
LINE
8
FRONT_HID
6
HIDDEN
10
0.024130
20
1.253485
30
0.0
11
0.000000
21
1.253485
31
0.0
0
LINE
8
FRONT_HID
6
HIDDEN
10
0.024130
20
1.503485
30
0.0
11
0.024130
21
1.253485
31
0.0
0
LINE
8
FRONT_HID
6
HIDDEN
10
0.460988
20
1.253485
30
0.0
11
0.436858
21
1.253485
31
0.0
0
LINE
8
FRONT_HID
6
HIDDEN
10
0.436858
20
1.503485
30
0.0
11
0.436858
21
1.253485
31
0.0
0
LINE
8
FRONT_HID
6
HIDDEN
10
0.412728
20
1.253485
30
0.0
11
0.436858
21
1.253485
31
0.0
0
LINE
8
FRONT_HID
6
HIDDEN
10
0.436858
20
1.253485
30
0.0
11
0.460988
21
1.253485
31
0.0
0
LINE
8
FRONT_HID
6
HIDDEN
10
0.436858
20
1.253485
30
0.0
11
0.412728
21
1.253485
31
0.0
0
LINE
8
FRONT_HID
6
HIDDEN
10
0.436858
20
1.503485
30
0.0
11
0.436858
21
1.253485
31
0.0
0
LINE
8
FRONT_HID
6
HIDDEN
10
0.411744
20
0.753485
30
0.0
11
0.411744
21
1.503485
31
0.0
0
LINE
8
FRONT_HID
6
HIDDEN
10
0.128436
20
0.753485
30
0.0
11
0.128436
21
1.503485
31
0.0
0
LINE
8
FRONT_HID
6
HIDDEN
10
0.332552
20
0.753485
30
0.0
11
0.332552
21
1.503485
31
0.0
0
LINE
8
FRONT_HID
6
HIDDEN
10
0.332552
20
0.753485
30
0.0
11
0.332552
21
1.503485
31
0.0
0
LINE
8
FRONT_HID
6
HIDDEN
10
0.128436
20
0.753485
30
0.0
11
0.128436
21
1.503485
31
0.0
0
LINE
8
FRONT_HID
6
HIDDEN
10
0.024130
20
1.503485
30
0.0
11
0.024130
21
1.253485
31
0.0
0
LINE
8
FRONT_HID
6
HIDDEN
10
0.048260
20
1.503485
30
0.0
11
0.048260
21
1.253485
31
0.0
0
LINE
8
FRONT_HID
6
HIDDEN
10
0.048260
20
1.503485
30
0.0
11
0.048260
21
1.253485
31
0.0
0
LINE
8
FRONT_HID
6
HIDDEN
10
0.048260
20
1.503485
30
0.0
11
0.048260
21
1.253485
31
0.0
0
LINE
8
FRONT_HID
6
HIDDEN
10
0.048260
20
1.503485
30
0.0
11
0.048260
21
1.253485
31
0.0
0
LINE
8
FRONT_HID
6
HIDDEN
10
0.048260
20
1.503485
30
0.0
11
0.048260
21
1.253485
31
0.0
0
LINE
8
FRONT_HID
6
HIDDEN
10
0.024130
20
1.503485
30
0.0
11
0.024130
21
1.253485
31
0.0
0
LINE
8
FRONT_HID
6
HIDDEN
10
0.024130
20
1.503485
30
0.0
11
0.024130
21
1.253485
31
0.0
0
LINE
8
FRONT_HID
6
HIDDEN
10
0.436858
20
1.503485
30
0.0
11
0.436858
21
1.253485
31
0.0
0
LINE
8
FRONT_HID
6
HIDDEN
10
0.436858
20
1.503485
30
0.0
11
0.436858
21
1.253485
31
0.0
0
LINE
8
FRONT_HID
6
HIDDEN
10
0.412728
20
1.503485
30
0.0
11
0.412728
21
1.253485
31
0.0
0
LINE
8
FRONT_HID
6
HIDDEN
10
0.412728
20
1.503485
30
0.0
11
0.412728
21
1.253485
31
0.0
0
LINE
8
FRONT_HID
6
HIDDEN
10
0.412728
20
1.503485
30
0.0
11
0.412728
21
1.253485
31
0.0
0
LINE
8
FRONT_HID
6
HIDDEN
10
0.436858
20
1.503485
30
0.0
11
0.436858
21
1.253485
31
0.0
0
LINE
8
FRONT_HID
6
HIDDEN
10
0.230494
20
1.503485
30
0.0
11
0.230494
21
1.253485
31
0.0
0
LINE
8
FRONT_HID
6
HIDDEN
10
0.230494
20
1.253485
30
0.0
11
0.239935
21
1.253485
31
0.0
0
LINE
8
FRONT_HID
6
HIDDEN
10
0.239935
20
1.253485
30
0.0
11
0.230494
21
1.253485
31
0.0
0
LINE
8
FRONT_HID
6
HIDDEN
10
0.230494
20
1.503485
30
0.0
11
0.230494
21
1.253485
31
0.0
0
LINE
8
FRONT_HID
6
HIDDEN
10
0.049244
20
1.503485
30
0.0
11
0.049244
21
0.753485
31
0.0
0
LINE
8
FRONT_HID
6
HIDDEN
10
0.239935
20
1.253485
30
0.0
11
0.239935
21
1.503485
31
0.0
0
LINE
8
LEFT
10
1.214545
20
0.753485
30
0.0
11
1.214545
21
1.503485
31
0.0
0
LINE
8
LEFT
10
0.841482
20
0.753485
30
0.0
11
1.214545
21
0.753485
31
0.0
0
LINE
8
LEFT
10
0.841482
20
1.503485
30
0.0
11
1.078982
21
1.503485
31
0.0
0
LINE
8
LEFT
10
1.078982
20
1.503485
30
0.0
11
1.078982
21
1.253485
31
0.0
0
LINE
8
LEFT
10
1.078982
20
1.253485
30
0.0
11
1.158295
21
1.253485
31
0.0
0
LINE
8
LEFT
10
1.158295
20
1.503485
30
0.0
11
1.158295
21
1.253485
31
0.0
0
LINE
8
LEFT
10
1.158295
20
1.503485
30
0.0
11
1.214545
21
1.503485
31
0.0
0
LINE
8
LEFT
10
0.610988
20
0.753485
30
0.0
11
0.841482
21
0.753485
31
0.0
0
LINE
8
LEFT
10
0.610988
20
1.503485
30
0.0
11
0.841482
21
1.503485
31
0.0
0
LINE
8
LEFT
10
1.158295
20
1.503485
30
0.0
11
1.078982
21
1.503485
31
0.0
0
LINE
8
LEFT
10
1.158295
20
1.253485
30
0.0
11
1.078982
21
1.253485
31
0.0
0
LINE
8
LEFT
10
0.841482
20
0.753485
30
0.0
11
0.841482
21
1.503485
31
0.0
0
LINE
8
LEFT
10
0.610988
20
1.503485
30
0.0
11
0.610988
21
0.753485
31
0.0
0
LINE
8
LEFT_HID
6
HIDDEN
10
0.841482
20
0.753485
30
0.0
11
0.660232
21
0.753485
31
0.0
0
LINE
8
LEFT_HID
6
HIDDEN
10
0.660232
20
0.753485
30
0.0
11
1.022732
21
0.753485
31
0.0
0
LINE
8
LEFT_HID
6
HIDDEN
10
1.022732
20
0.753485
30
0.0
11
0.841482
21
0.753485
31
0.0
0
LINE
8
LEFT_HID
6
HIDDEN
10
1.170795
20
0.753485
30
0.0
11
1.066482
21
0.753485
31
0.0
0
LINE
8
LEFT_HID
6
HIDDEN
10
1.066482
20
0.753485
30
0.0
11
1.170795
21
0.753485
31
0.0
0
LINE
8
LEFT_HID
6
HIDDEN
10
1.183295
20
1.503485
30
0.0
11
1.158295
21
1.503485
31
0.0
0
LINE
8
LEFT_HID
6
HIDDEN
10
1.066482
20
1.503485
30
0.0
11
1.183295
21
1.503485
31
0.0
0
LINE
8
LEFT_HID
6
HIDDEN
10
1.053982
20
1.503485
30
0.0
11
1.066482
21
1.503485
31
0.0
0
LINE
8
LEFT_HID
6
HIDDEN
10
1.066482
20
1.503485
30
0.0
11
1.053982
21
1.503485
31
0.0
0
LINE
8
LEFT_HID
6
HIDDEN
10
1.078982
20
1.503485
30
0.0
11
1.066482
21
1.503485
31
0.0
0
LINE
8
LEFT_HID
6
HIDDEN
10
1.066482
20
1.503485
30
0.0
11
1.078982
21
1.503485
31
0.0
0
LINE
8
LEFT_HID
6
HIDDEN
10
1.053982
20
1.503485
30
0.0
11
1.066482
21
1.503485
31
0.0
0
LINE
8
LEFT_HID
6
HIDDEN
10
1.066482
20
1.503485
30
0.0
11
1.053982
21
1.503485
31
0.0
0
LINE
8
LEFT_HID
6
HIDDEN
10
1.078982
20
1.503485
30
0.0
11
1.066482
21
1.503485
31
0.0
0
LINE
8
LEFT_HID
6
HIDDEN
10
1.183295
20
1.503485
30
0.0
11
1.158295
21
1.503485
31
0.0
0
LINE
8
LEFT_HID
6
HIDDEN
10
1.158295
20
1.503485
30
0.0
11
1.183295
21
1.503485
31
0.0
0
LINE
8
LEFT_HID
6
HIDDEN
10
1.066482
20
1.503485
30
0.0
11
1.170795
21
1.503485
31
0.0
0
LINE
8
LEFT_HID
6
HIDDEN
10
1.170795
20
1.503485
30
0.0
11
1.066482
21
1.503485
31
0.0
0
LINE
8
LEFT_HID
6
HIDDEN
10
0.841482
20
1.503485
30
0.0
11
0.660232
21
1.503485
31
0.0
0
LINE
8
LEFT_HID
6
HIDDEN
10
0.660232
20
1.503485
30
0.0
11
1.022732
21
1.503485
31
0.0
0
LINE
8
LEFT_HID
6
HIDDEN
10
1.022732
20
1.503485
30
0.0
11
0.841482
21
1.503485
31
0.0
0
LINE
8
LEFT_HID
6
HIDDEN
10
0.645054
20
1.503485
30
0.0
11
0.626172
21
1.503485
31
0.0
0
LINE
8
LEFT_HID
6
HIDDEN
10
0.626172
20
1.503485
30
0.0
11
0.645054
21
1.503485
31
0.0
0
LINE
8
LEFT_HID
6
HIDDEN
10
1.158295
20
1.253485
30
0.0
11
1.183295
21
1.253485
31
0.0
0
LINE
8
LEFT_HID
6
HIDDEN
10
1.183295
20
1.253485
30
0.0
11
1.158295
21
1.253485
31
0.0
0
LINE
8
LEFT_HID
6
HIDDEN
10
1.078982
20
1.253485
30
0.0
11
1.066482
21
1.253485
31
0.0
0
LINE
8
LEFT_HID
6
HIDDEN
10
1.066482
20
1.253485
30
0.0
11
1.053982
21
1.253485
31
0.0
0
LINE
8
LEFT_HID
6
HIDDEN
10
1.053982
20
1.253485
30
0.0
11
1.066482
21
1.253485
31
0.0
0
LINE
8
LEFT_HID
6
HIDDEN
10
1.066482
20
1.253485
30
0.0
11
1.078982
21
1.253485
31
0.0
0
LINE
8
LEFT_HID
6
HIDDEN
10
1.183295
20
1.253485
30
0.0
11
1.158295
21
1.253485
31
0.0
0
LINE
8
LEFT_HID
6
HIDDEN
10
1.078982
20
1.253485
30
0.0
11
1.066482
21
1.253485
31
0.0
0
LINE
8
LEFT_HID
6
HIDDEN
10
1.066482
20
1.253485
30
0.0
11
1.053982
21
1.253485
31
0.0
0
LINE
8
LEFT_HID
6
HIDDEN
10
1.053982
20
1.253485
30
0.0
11
1.066482
21
1.253485
31
0.0
0
LINE
8
LEFT_HID
6
HIDDEN
10
1.066482
20
1.253485
30
0.0
11
1.183295
21
1.253485
31
0.0
0
LINE
8
LEFT_HID
6
HIDDEN
10
1.170795
20
0.753485
30
0.0
11
1.170795
21
1.503485
31
0.0
0
LINE
8
LEFT_HID
6
HIDDEN
10
1.170795
20
0.753485
30
0.0
11
1.170795
21
1.503485
31
0.0
0
LINE
8
LEFT_HID
6
HIDDEN
10
1.066482
20
0.753485
30
0.0
11
1.066482
21
1.503485
31
0.0
0
LINE
8
LEFT_HID
6
HIDDEN
10
1.066482
20
0.753485
30
0.0
11
1.066482
21
1.503485
31
0.0
0
LINE
8
LEFT_HID
6
HIDDEN
10
1.183295
20
1.503485
30
0.0
11
1.183295
21
1.253485
31
0.0
0
LINE
8
LEFT_HID
6
HIDDEN
10
1.183295
20
1.503485
30
0.0
11
1.183295
21
1.253485
31
0.0
0
LINE
8
LEFT_HID
6
HIDDEN
10
1.053982
20
1.503485
30
0.0
11
1.053982
21
1.253485
31
0.0
0
LINE
8
LEFT_HID
6
HIDDEN
10
1.053982
20
1.503485
30
0.0
11
1.053982
21
1.253485
31
0.0
0
LINE
8
LEFT_HID
6
HIDDEN
10
1.053982
20
1.503485
30
0.0
11
1.053982
21
1.253485
31
0.0
0
LINE
8
LEFT_HID
6
HIDDEN
10
1.053982
20
1.503485
30
0.0
11
1.053982
21
1.253485
31
0.0
0
LINE
8
LEFT_HID
6
HIDDEN
10
1.183295
20
1.503485
30
0.0
11
1.183295
21
1.253485
31
0.0
0
LINE
8
LEFT_HID
6
HIDDEN
10
1.183295
20
1.503485
30
0.0
11
1.183295
21
1.253485
31
0.0
0
LINE
8
LEFT_HID
6
HIDDEN
10
0.645054
20
1.503485
30
0.0
11
0.645054
21
1.253485
31
0.0
0
LINE
8
LEFT_HID
6
HIDDEN
10
0.645054
20
1.253485
30
0.0
11
0.626172
21
1.253485
31
0.0
0
LINE
8
LEFT_HID
6
HIDDEN
10
0.626172
20
1.503485
30
0.0
11
0.626172
21
1.253485
31
0.0
0
LINE
8
LEFT_HID
6
HIDDEN
10
0.626172
20
1.253485
30
0.0
11
0.645054
21
1.253485
31
0.0
0
LINE
8
LEFT_HID
6
HIDDEN
10
0.660232
20
1.503485
30
0.0
11
0.660232
21
0.753485
31
0.0
0
LINE
8
LEFT_HID
6
HIDDEN
10
1.022732
20
1.503485
30
0.0
11
1.022732
21
0.753485
31
0.0
0
LINE
8
TOP
10
0.000000
20
0.000000
30
0.0
11
0.460988
21
0.000000
31
0.0
0
LINE
8
TOP
10
0.000000
20
0.373063
30
0.0
11
0.000000
21
0.135563
31
0.0
0
LINE
8
TOP
10
0.000000
20
0.135563
30
0.0
11
0.000000
21
0.056250
31
0.0
0
LINE
8
TOP
10
0.000000
20
0.056250
30
0.0
11
0.000000
21
0.000000
31
0.0
0
LINE
8
TOP
10
0.460988
20
0.000000
30
0.0
11
0.460988
21
0.056250
31
0.0
0
LINE
8
TOP
10
0.460988
20
0.056250
30
0.0
11
0.460988
21
0.135563
31
0.0
0
LINE
8
TOP
10
0.460988
20
0.135563
30
0.0
11
0.460988
21
0.373063
31
0.0
0
LINE
8
TOP
10
0.000000
20
0.056250
30
0.0
11
0.024130
21
0.056250
31
0.0
0
LINE
8
TOP
10
0.436858
20
0.056250
30
0.0
11
0.460988
21
0.056250
31
0.0
0
LINE
8
TOP
10
0.436858
20
0.031250
30
0.0
11
0.436858
21
0.056250
31
0.0
0
LINE
8
TOP
10
0.412728
20
0.031250
30
0.0
11
0.436858
21
0.031250
31
0.0
0
LINE
8
TOP
10
0.412728
20
0.148063
30
0.0
11
0.412728
21
0.031250
31
0.0
0
LINE
8
TOP
10
0.412728
20
0.160563
30
0.0
11
0.412728
21
0.148063
31
0.0
0
LINE
8
TOP
10
0.436858
20
0.160563
30
0.0
11
0.412728
21
0.160563
31
0.0
0
LINE
8
TOP
10
0.436858
20
0.148063
30
0.0
11
0.436858
21
0.160563
31
0.0
0
LINE
8
TOP
10
0.436858
20
0.135563
30
0.0
11
0.436858
21
0.148063
31
0.0
0
LINE
8
TOP
10
0.460988
20
0.135563
30
0.0
11
0.436858
21
0.135563
31
0.0
0
LINE
8
TOP
10
0.460988
20
0.373063
30
0.0
11
0.460701
21
0.384552
31
0.0
0
LINE
8
TOP
10
0.460701
20
0.384552
30
0.0
11
0.459843
21
0.396012
31
0.0
0
LINE
8
TOP
10
0.459843
20
0.396012
30
0.0
11
0.458414
21
0.407416
31
0.0
0
LINE
8
TOP
10
0.458414
20
0.407416
30
0.0
11
0.456418
21
0.418734
31
0.0
0
LINE
8
TOP
10
0.456418
20
0.418734
30
0.0
11
0.453860
21
0.429939
31
0.0
0
LINE
8
TOP
10
0.453860
20
0.429939
30
0.0
11
0.450748
21
0.441002
31
0.0
0
LINE
8
TOP
10
0.450748
20
0.441002
30
0.0
11
0.447088
21
0.451896
31
0.0
0
LINE
8
TOP
10
0.447088
20
0.451896
30
0.0
11
0.442889
21
0.462594
31
0.0
0
LINE
8
TOP
10
0.442889
20
0.462594
30
0.0
11
0.438162
21
0.473070
31
0.0
0
LINE
8
TOP
10
0.438162
20
0.473070
30
0.0
11
0.432919
21
0.483297
31
0.0
0
LINE
8
TOP
10
0.432919
20
0.483297
30
0.0
11
0.427172
21
0.493250
31
0.0
0
LINE
8
TOP
10
0.427172
20
0.493250
30
0.0
11
0.420937
21
0.502904
31
0.0
0
LINE
8
TOP
10
0.420937
20
0.502904
30
0.0
11
0.414228
21
0.512236
31
0.0
0
LINE
8
TOP
10
0.414228
20
0.512236
30
0.0
11
0.407063
21
0.521221
31
0.0
0
LINE
8
TOP
10
0.407063
20
0.521221
30
0.0
11
0.399458
21
0.529838
31
0.0
0
LINE
8
TOP
10
0.399458
20
0.529838
30
0.0
11
0.391433
21
0.538066
31
0.0
0
LINE
8
TOP
10
0.391433
20
0.538066
30
0.0
11
0.383009
21
0.545883
31
0.0
0
LINE
8
TOP
10
0.383009
20
0.545883
30
0.0
11
0.374205
21
0.553270
31
0.0
0
LINE
8
TOP
10
0.374205
20
0.553270
30
0.0
11
0.365043
21
0.560209
31
0.0
0
LINE
8
TOP
10
0.365043
20
0.560209
30
0.0
11
0.355548
21
0.566684
31
0.0
0
LINE
8
TOP
10
0.355548
20
0.566684
30
0.0
11
0.345741
21
0.572676
31
0.0
0
LINE
8
TOP
10
0.345741
20
0.572676
30
0.0
11
0.335648
21
0.578173
31
0.0
0
LINE
8
TOP
10
0.335648
20
0.578173
30
0.0
11
0.325293
21
0.583159
31
0.0
0
LINE
8
TOP
10
0.325293
20
0.583159
30
0.0
11
0.314703
21
0.587623
31
0.0
0
LINE
8
TOP
10
0.314703
20
0.587623
30
0.0
11
0.303903
21
0.591554
31
0.0
0
LINE
8
TOP
10
0.303903
20
0.591554
30
0.0
11
0.292921
21
0.594942
31
0.0
0
LINE
8
TOP
10
0.292921
20
0.594942
30
0.0
11
0.281784
21
0.597778
31
0.0
0
LINE
8
TOP
10
0.281784
20
0.597778
30
0.0
11
0.270519
21
0.600055
31
0.0
0
LINE
8
TOP
10
0.270519
20
0.600055
30
0.0
11
0.259154
21
0.601768
31
0.0
0
LINE
8
TOP
10
0.259154
20
0.601768
30
0.0
11
0.247719
21
0.602912
31
0.0
0
LINE
8
TOP
10
0.247719
20
0.602912
30
0.0
11
0.236240
21
0.603485
31
0.0
0
LINE
8
TOP
10
0.236240
20
0.603485
30
0.0
11
0.224748
21
0.603485
31
0.0
0
LINE
8
TOP
10
0.224748
20
0.603485
30
0.0
11
0.213269
21
0.602912
31
0.0
0
LINE
8
TOP
10
0.213269
20
0.602912
30
0.0
11
0.201834
21
0.601768
31
0.0
0
LINE
8
TOP
10
0.201834
20
0.601768
30
0.0
11
0.190469
21
0.600055
31
0.0
0
LINE
8
TOP
10
0.190469
20
0.600055
30
0.0
11
0.179204
21
0.597778
31
0.0
0
LINE
8
TOP
10
0.179204
20
0.597778
30
0.0
11
0.168067
21
0.594942
31
0.0
0
LINE
8
TOP
10
0.168067
20
0.594942
30
0.0
11
0.157085
21
0.591554
31
0.0
0
LINE
8
TOP
10
0.157085
20
0.591554
30
0.0
11
0.146285
21
0.587623
31
0.0
0
LINE
8
TOP
10
0.146285
20
0.587623
30
0.0
11
0.135695
21
0.583159
31
0.0
0
LINE
8
TOP
10
0.135695
20
0.583159
30
0.0
11
0.125340
21
0.578173
31
0.0
0
LINE
8
TOP
10
0.125340
20
0.578173
30
0.0
11
0.115247
21
0.572676
31
0.0
0
LINE
8
TOP
10
0.115247
20
0.572676
30
0.0
11
0.105440
21
0.566684
31
0.0
0
LINE
8
TOP
10
0.105440
20
0.566684
30
0.0
11
0.095945
21
0.560209
31
0.0
0
LINE
8
TOP
10
0.095945
20
0.560209
30
0.0
11
0.086783
21
0.553270
31
0.0
0
LINE
8
TOP
10
0.086783
20
0.553270
30
0.0
11
0.077979
21
0.545883
31
0.0
0
LINE
8
TOP
10
0.077979
20
0.545883
30
0.0
11
0.069555
21
0.538066
31
0.0
0
LINE
8
TOP
10
0.069555
20
0.538066
30
0.0
11
0.061530
21
0.529838
31
0.0
0
LINE
8
TOP
10
0.061530
20
0.529838
30
0.0
11
0.053925
21
0.521221
31
0.0
0
LINE
8
TOP
10
0.053925
20
0.521221
30
0.0
11
0.046760
21
0.512236
31
0.0
0
LINE
8
TOP
10
0.046760
20
0.512236
30
0.0
11
0.040051
21
0.502904
31
0.0
0
LINE
8
TOP
10
0.040051
20
0.502904
30
0.0
11
0.033816
21
0.493250
31
0.0
0
LINE
8
TOP
10
0.033816
20
0.493250
30
0.0
11
0.028069
21
0.483297
31
0.0
0
LINE
8
TOP
10
0.028069
20
0.483297
30
0.0
11
0.022826
21
0.473070
31
0.0
0
LINE
8
TOP
10
0.022826
20
0.473070
30
0.0
11
0.018099
21
0.462594
31
0.0
0
LINE
8
TOP
10
0.018099
20
0.462594
30
0.0
11
0.013900
21
0.451896
31
0.0
0
LINE
8
TOP
10
0.013900
20
0.451896
30
0.0
11
0.010240
21
0.441002
31
0.0
0
LINE
8
TOP
10
0.010240
20
0.441002
30
0.0
11
0.007127
21
0.429939
31
0.0
0
LINE
8
TOP
10
0.007127
20
0.429939
30
0.0
11
0.004570
21
0.418734
31
0.0
0
LINE
8
TOP
10
0.004570
20
0.418734
30
0.0
11
0.002574
21
0.407416
31
0.0
0
LINE
8
TOP
10
0.002574
20
0.407416
30
0.0
11
0.001145
21
0.396012
31
0.0
0
LINE
8
TOP
10
0.001145
20
0.396012
30
0.0
11
0.000287
21
0.384552
31
0.0
0
LINE
8
TOP
10
0.000287
20
0.384552
30
0.0
11
0.000000
21
0.373063
31
0.0
0
LINE
8
TOP
10
0.024130
20
0.135563
30
0.0
11
0.000000
21
0.135563
31
0.0
0
LINE
8
TOP
10
0.024130
20
0.148063
30
0.0
11
0.024130
21
0.135563
31
0.0
0
LINE
8
TOP
10
0.024130
20
0.160563
30
0.0
11
0.024130
21
0.148063
31
0.0
0
LINE
8
TOP
10
0.048260
20
0.160563
30
0.0
11
0.024130
21
0.160563
31
0.0
0
LINE
8
TOP
10
0.048260
20
0.148063
30
0.0
11
0.048260
21
0.160563
31
0.0
0
LINE
8
TOP
10
0.048260
20
0.135563
30
0.0
11
0.048260
21
0.148063
31
0.0
0
LINE
8
TOP
10
0.048260
20
0.056250
30
0.0
11
0.048260
21
0.135563
31
0.0
0
LINE
8
TOP
10
0.048260
20
0.031250
30
0.0
11
0.048260
21
0.056250
31
0.0
0
LINE
8
TOP
10
0.024130
20
0.031250
30
0.0
11
0.048260
21
0.031250
31
0.0
0
LINE
8
TOP
10
0.024130
20
0.056250
30
0.0
11
0.024130
21
0.031250
31
0.0
0
LINE
8
TOP
10
0.128436
20
0.043750
30
0.0
11
0.332552
21
0.043750
31
0.0
0
LINE
8
TOP
10
0.128436
20
0.148063
30
0.0
11
0.128436
21
0.043750
31
0.0
0
LINE
8
TOP
10
0.332552
20
0.148063
30
0.0
11
0.128436
21
0.148063
31
0.0
0
LINE
8
TOP
10
0.332552
20
0.043750
30
0.0
11
0.332552
21
0.148063
31
0.0
0
LINE
8
TOP
10
0.411744
20
0.373063
30
0.0
11
0.410843
21
0.391109
31
0.0
0
LINE
8
TOP
10
0.410843
20
0.391109
30
0.0
11
0.408150
21
0.408977
31
0.0
0
LINE
8
TOP
10
0.408150
20
0.408977
30
0.0
11
0.403692
21
0.426487
31
0.0
0
LINE
8
TOP
10
0.403692
20
0.426487
30
0.0
11
0.397512
21
0.443466
31
0.0
0
LINE
8
TOP
10
0.397512
20
0.443466
30
0.0
11
0.389672
21
0.459746
31
0.0
0
LINE
8
TOP
10
0.389672
20
0.459746
30
0.0
11
0.380250
21
0.475164
31
0.0
0
LINE
8
TOP
10
0.380250
20
0.475164
30
0.0
11
0.369340
21
0.489568
31
0.0
0
LINE
8
TOP
10
0.369340
20
0.489568
30
0.0
11
0.357049
21
0.502813
31
0.0
0
LINE
8
TOP
10
0.357049
20
0.502813
30
0.0
11
0.343502
21
0.514770
31
0.0
0
LINE
8
TOP
10
0.343502
20
0.514770
30
0.0
11
0.328831
21
0.525317
31
0.0
0
LINE
8
TOP
10
0.328831
20
0.525317
30
0.0
11
0.313182
21
0.534352
31
0.0
0
LINE
8
TOP
10
0.313182
20
0.534352
30
0.0
11
0.296712
21
0.541783
31
0.0
0
LINE
8
TOP
10
0.296712
20
0.541783
30
0.0
11
0.279584
21
0.547538
31
0.0
0
LINE
8
TOP
10
0.279584
20
0.547538
30
0.0
11
0.261968
21
0.551559
31
0.0
0
LINE
8
TOP
10
0.261968
20
0.551559
30
0.0
11
0.244039
21
0.553806
31
0.0
0
LINE
8
TOP
10
0.244039
20
0.553806
30
0.0
11
0.225975
21
0.554256
31
0.0
0
LINE
8
TOP
10
0.225975
20
0.554256
30
0.0
11
0.207957
21
0.552906
31
0.0
0
LINE
8
TOP
10
0.207957
20
0.552906
30
0.0
11
0.190162
21
0.549768
31
0.0
0
LINE
8
TOP
10
0.190162
20
0.549768
30
0.0
11
0.172768
21
0.544874
31
0.0
0
LINE
8
TOP
10
0.172768
20
0.544874
30
0.0
11
0.155948
21
0.538273
31
0.0
0
LINE
8
TOP
10
0.155948
20
0.538273
30
0.0
11
0.139869
21
0.530030
31
0.0
0
LINE
8
TOP
10
0.139869
20
0.530030
30
0.0
11
0.124690
21
0.520226
31
0.0
0
LINE
8
TOP
10
0.124690
20
0.520226
30
0.0
11
0.110563
21
0.508960
31
0.0
0
LINE
8
TOP
10
0.110563
20
0.508960
30
0.0
11
0.097628
21
0.496344
31
0.0
0
LINE
8
TOP
10
0.097628
20
0.496344
30
0.0
11
0.086014
21
0.482502
31
0.0
0
LINE
8
TOP
10
0.086014
20
0.482502
30
0.0
11
0.075835
21
0.467573
31
0.0
0
LINE
8
TOP
10
0.075835
20
0.467573
30
0.0
11
0.067193
21
0.451704
31
0.0
0
LINE
8
TOP
10
0.067193
20
0.451704
30
0.0
11
0.060175
21
0.435054
31
0.0
0
LINE
8
TOP
10
0.060175
20
0.435054
30
0.0
11
0.054849
21
0.417787
31
0.0
0
LINE
8
TOP
10
0.054849
20
0.417787
30
0.0
11
0.051268
21
0.400077
31
0.0
0
LINE
8
TOP
10
0.051268
20
0.400077
30
0.0
11
0.049469
21
0.382097
31
0.0
0
LINE
8
TOP
10
0.049469
20
0.382097
30
0.0
11
0.049469
21
0.364028
31
0.0
0
LINE
8
TOP
10
0.049469
20
0.364028
30
0.0
11
0.051268
21
0.346049
31
0.0
0
LINE
8
TOP
10
0.051268
20
0.346049
30
0.0
11
0.054849
21
0.328338
31
0.0
0
LINE
8
TOP
10
0.054849
20
0.328338
30
0.0
11
0.060175
21
0.311071
31
0.0
0
LINE
8
TOP
10
0.060175
20
0.311071
30
0.0
11
0.067193
21
0.294421
31
0.0
0
LINE
8
TOP
10
0.067193
20
0.294421
30
0.0
11
0.075835
21
0.278552
31
0.0
0
LINE
8
TOP
10
0.075835
20
0.278552
30
0.0
11
0.086014
21
0.263623
31
0.0
0
LINE
8
TOP
10
0.086014
20
0.263623
30
0.0
11
0.097628
21
0.249781
31
0.0
0
LINE
8
TOP
10
0.097628
20
0.249781
30
0.0
11
0.110563
21
0.237165
31
0.0
0
LINE
8
TOP
10
0.110563
20
0.237165
30
0.0
11
0.124690
21
0.225899
31
0.0
0
LINE
8
TOP
10
0.124690
20
0.225899
30
0.0
11
0.139869
21
0.216095
31
0.0
0
LINE
8
TOP
10
0.139869
20
0.216095
30
0.0
11
0.155948
21
0.207852
31
0.0
0
LINE
8
TOP
10
0.155948
20
0.207852
30
0.0
11
0.172768
21
0.201251
31
0.0
0
LINE
8
TOP
10
0.172768
20
0.201251
30
0.0
11
0.190162
21
0.196357
31
0.0
0
LINE
8
TOP
10
0.190162
20
0.196357
30
0.0
11
0.207957
21
0.193219
31
0.0
0
LINE
8
TOP
10
0.207957
20
0.193219
30
0.0
11
0.225975
21
0.191869
31
0.0
0
LINE
8
TOP
10
0.225975
20
0.191869
30
0.0
11
0.244039
21
0.192319
31
0.0
0
LINE
8
TOP
10
0.244039
20
0.192319
30
0.0
11
0.261968
21
0.194566
31
0.0
0
LINE
8
TOP
10
0.261968
20
0.194566
30
0.0
11
0.279584
21
0.198587
31
0.0
0
LINE
8
TOP
10
0.279584
20
0.198587
30
0.0
11
0.296712
21
0.204342
31
0.0
0
LINE
8
TOP
10
0.296712
20
0.204342
30
0.0
11
0.313182
21
0.211773
31
0.0
0
LINE
8
TOP
10
0.313182
20
0.211773
30
0.0
11
0.328831
21
0.220808
31
0.0
0
LINE
8
TOP
10
0.328831
20
0.220808
30
0.0
11
0.343502
21
0.231356
31
0.0
0
LINE
8
TOP
10
0.343502
20
0.231356
30
0.0
11
0.357049
21
0.243312
31
0.0
0
LINE
8
TOP
10
0.357049
20
0.243312
30
0.0
11
0.369340
21
0.256557
31
0.0
0
LINE
8
TOP
10
0.369340
20
0.256557
30
0.0
11
0.380250
21
0.270961
31
0.0
0
LINE
8
TOP
10
0.380250
20
0.270961
30
0.0
11
0.389672
21
0.286379
31
0.0
0
LINE
8
TOP
10
0.389672
20
0.286379
30
0.0
11
0.397512
21
0.302659
31
0.0
0
LINE
8
TOP
10
0.397512
20
0.302659
30
0.0
11
0.403692
21
0.319638
31
0.0
0
LINE
8
TOP
10
0.403692
20
0.319638
30
0.0
11
0.408150
21
0.337149
31
0.0
0
LINE
8
TOP
10
0.408150
20
0.337149
30
0.0
11
0.410843
21
0.355016
31
0.0
0
LINE
8
TOP
10
0.410843
20
0.355016
30
0.0
11
0.411744
21
0.373063
31
0.0
0
LINE
8
TOP
10
0.230494
20
0.569491
30
0.0
11
0.230965
21
0.569502
31
0.0
0
LINE
8
TOP
10
0.230965
20
0.569502
30
0.0
11
0.231434
21
0.569537
31
0.0
0
LINE
8
TOP
10
0.231434
20
0.569537
30
0.0
11
0.231901
21
0.569596
31
0.0
0
LINE
8
TOP
10
0.231901
20
0.569596
30
0.0
11
0.232365
21
0.569678
31
0.0
0
LINE
8
TOP
10
0.232365
20
0.569678
30
0.0
11
0.232824
21
0.569782
31
0.0
0
LINE
8
TOP
10
0.232824
20
0.569782
30
0.0
11
0.233277
21
0.569910
31
0.0
0
LINE
8
TOP
10
0.233277
20
0.569910
30
0.0
11
0.233723
21
0.570060
31
0.0
0
LINE
8
TOP
10
0.233723
20
0.570060
30
0.0
11
0.234161
21
0.570232
31
0.0
0
LINE
8
TOP
10
0.234161
20
0.570232
30
0.0
11
0.234590
21
0.570426
31
0.0
0
LINE
8
TOP
10
0.234590
20
0.570426
30
0.0
11
0.235009
21
0.570640
31
0.0
0
LINE
8
TOP
10
0.235009
20
0.570640
30
0.0
11
0.235417
21
0.570876
31
0.0
0
LINE
8
TOP
10
0.235417
20
0.570876
30
0.0
11
0.235812
21
0.571131
31
0.0
0
LINE
8
TOP
10
0.235812
20
0.571131
30
0.0
11
0.236195
21
0.571406
31
0.0
0
LINE
8
TOP
10
0.236195
20
0.571406
30
0.0
11
0.236563
21
0.571699
31
0.0
0
LINE
8
TOP
10
0.236563
20
0.571699
30
0.0
11
0.236916
21
0.572011
31
0.0
0
LINE
8
TOP
10
0.236916
20
0.572011
30
0.0
11
0.237253
21
0.572340
31
0.0
0
LINE
8
TOP
10
0.237253
20
0.572340
30
0.0
11
0.237573
21
0.572685
31
0.0
0
LINE
8
TOP
10
0.237573
20
0.572685
30
0.0
11
0.237875
21
0.573045
31
0.0
0
LINE
8
TOP
10
0.237875
20
0.573045
30
0.0
11
0.238160
21
0.573420
31
0.0
0
LINE
8
TOP
10
0.238160
20
0.573420
30
0.0
11
0.238425
21
0.573809
31
0.0
0
LINE
8
TOP
10
0.238425
20
0.573809
30
0.0
11
0.238670
21
0.574211
31
0.0
0
LINE
8
TOP
10
0.238670
20
0.574211
30
0.0
11
0.238895
21
0.574624
31
0.0
0
LINE
8
TOP
10
0.238895
20
0.574624
30
0.0
11
0.239100
21
0.575049
31
0.0
0
LINE
8
TOP
10
0.239100
20
0.575049
30
0.0
11
0.239282
21
0.575482
31
0.0
0
LINE
8
TOP
10
0.239282
20
0.575482
30
0.0
11
0.239443
21
0.575925
31
0.0
0
LINE
8
TOP
10
0.239443
20
0.575925
30
0.0
11
0.239582
21
0.576375
31
0.0
0
LINE
8
TOP
10
0.239582
20
0.576375
30
0.0
11
0.239698
21
0.576831
31
0.0
0
LINE
8
TOP
10
0.239698
20
0.576831
30
0.0
11
0.239792
21
0.577292
31
0.0
0
LINE
8
TOP
10
0.239792
20
0.577292
30
0.0
11
0.239862
21
0.577758
31
0.0
0
LINE
8
TOP
10
0.239862
20
0.577758
30
0.0
11
0.239909
21
0.578226
31
0.0
0
LINE
8
TOP
10
0.239909
20
0.578226
30
0.0
11
0.239932
21
0.578696
31
0.0
0
LINE
8
TOP
10
0.239932
20
0.578696
30
0.0
11
0.239932
21
0.579167
31
0.0
0
LINE
8
TOP
10
0.239932
20
0.579167
30
0.0
11
0.239909
21
0.579637
31
0.0
0
LINE
8
TOP
10
0.239909
20
0.579637
30
0.0
11
0.239862
21
0.580106
31
0.0
0
LINE
8
TOP
10
0.239862
20
0.580106
30
0.0
11
0.239792
21
0.580571
31
0.0
0
LINE
8
TOP
10
0.239792
20
0.580571
30
0.0
11
0.239698
21
0.581032
31
0.0
0
LINE
8
TOP
10
0.239698
20
0.581032
30
0.0
11
0.239582
21
0.581489
31
0.0
0
LINE
8
TOP
10
0.239582
20
0.581489
30
0.0
11
0.239443
21
0.581938
31
0.0
0
LINE
8
TOP
10
0.239443
20
0.581938
30
0.0
11
0.239282
21
0.582381
31
0.0
0
LINE
8
TOP
10
0.239282
20
0.582381
30
0.0
11
0.239100
21
0.582815
31
0.0
0
LINE
8
TOP
10
0.239100
20
0.582815
30
0.0
11
0.238895
21
0.583239
31
0.0
0
LINE
8
TOP
10
0.238895
20
0.583239
30
0.0
11
0.238670
21
0.583652
31
0.0
0
LINE
8
TOP
10
0.238670
20
0.583652
30
0.0
11
0.238425
21
0.584054
31
0.0
0
LINE
8
TOP
10
0.238425
20
0.584054
30
0.0
11
0.238160
21
0.584443
31
0.0
0
LINE
8
TOP
10
0.238160
20
0.584443
30
0.0
11
0.237875
21
0.584818
31
0.0
0
LINE
8
TOP
10
0.237875
20
0.584818
30
0.0
11
0.237573
21
0.585179
31
0.0
0
LINE
8
TOP
10
0.237573
20
0.585179
30
0.0
11
0.237253
21
0.585524
31
0.0
0
LINE
8
TOP
10
0.237253
20
0.585524
30
0.0
11
0.236916
21
0.585852
31
0.0
0
LINE
8
TOP
10
0.236916
20
0.585852
30
0.0
11
0.236563
21
0.586164
31
0.0
0
LINE
8
TOP
10
0.236563
20
0.586164
30
0.0
11
0.236195
21
0.586457
31
0.0
0
LINE
8
TOP
10
0.236195
20
0.586457
30
0.0
11
0.235812
21
0.586732
31
0.0
0
LINE
8
TOP
10
0.235812
20
0.586732
30
0.0
11
0.235417
21
0.586988
31
0.0
0
LINE
8
TOP
10
0.235417
20
0.586988
30
0.0
11
0.235009
21
0.587223
31
0.0
0
LINE
8
TOP
10
0.235009
20
0.587223
30
0.0
11
0.234590
21
0.587438
31
0.0
0
LINE
8
TOP
10
0.234590
20
0.587438
30
0.0
11
0.234161
21
0.587631
31
0.0
0
LINE
8
TOP
10
0.234161
20
0.587631
30
0.0
11
0.233723
21
0.587803
31
0.0
0
LINE
8
TOP
10
0.233723
20
0.587803
30
0.0
11
0.233277
21
0.587953
31
0.0
0
LINE
8
TOP
10
0.233277
20
0.587953
30
0.0
11
0.232824
21
0.588081
31
0.0
0
LINE
8
TOP
10
0.232824
20
0.588081
30
0.0
11
0.232365
21
0.588185
31
0.0
0
LINE
8
TOP
10
0.232365
20
0.588185
30
0.0
11
0.231901
21
0.588267
31
0.0
0
LINE
8
TOP
10
0.231901
20
0.588267
30
0.0
11
0.231434
21
0.588326
31
0.0
0
LINE
8
TOP
10
0.231434
20
0.588326
30
0.0
11
0.230965
21
0.588361
31
0.0
0
LINE
8
TOP
10
0.230965
20
0.588361
30
0.0
11
0.230494
21
0.588373
31
0.0
0
LINE
8
TOP
10
0.230494
20
0.588373
30
0.0
11
0.230494
21
0.569491
31
0.0
0
LINE
8
TOP_HID
6
HIDDEN
10
0.000000
20
0.373063
30
0.0
11
0.000000
21
0.000000
31
0.0
0
LINE
8
TOP_HID
6
HIDDEN
10
0.460988
20
0.000000
30
0.0
11
0.460988
21
0.373063
31
0.0
0
ENDSEC
0
EOF
