0
SECTION
2
HEADER
9
$ACADVER
1
AC1009
0
ENDSEC
0
SECTION
2
TABLES
0
TABLE
2
LTYPE
70
3
0
LTYPE
2
CONTINUOUS
70
0
3
Solid line
72
65
73
0
40
0.0
0
LTYPE
2
HIDDEN
70
0
3
__ __ __ __ __
72
65
73
2
40
0.075000
49
0.050025
49
-0.024975
0
LTYPE
2
CENTER
70
0
3
___ _ ___ _ ___
72
65
73
4
40
0.174975
49
0.099975
49
-0.024975
49
0.024975
49
-0.024975
0
ENDTAB
0
TABLE
2
LAYER
70
6
0
LAYER
2
0
70
0
62
7
6
CONTINUOUS
0
LAYER
2
FRONT
70
0
62
7
6
CONTINUOUS
0
LAYER
2
FRONT_HID
70
0
62
7
6
HIDDEN
0
LAYER
2
LEFT
70
0
62
7
6
CONTINUOUS
0
LAYER
2
LEFT_HID
70
0
62
7
6
HIDDEN
0
LAYER
2
TOP
70
0
62
7
6
CONTINUOUS
0
ENDTAB
0
ENDSEC
0
SECTION
2
ENTITIES
0
LINE
8
FRONT
10
1.500000
20
1.799534
30
0.0
11
0.000000
21
1.799534
31
0.0
0
LINE
8
FRONT
10
1.500000
20
1.799534
30
0.0
11
1.500000
21
1.840443
31
0.0
0
LINE
8
FRONT
10
1.500000
20
1.840443
30
0.0
11
0.000000
21
1.840443
31
0.0
0
LINE
8
FRONT
10
0.000000
20
1.840443
30
0.0
11
0.000000
21
1.799534
31
0.0
0
LINE
8
FRONT_HID
6
HIDDEN
10
1.218017
20
1.799534
30
0.0
11
0.263471
21
1.799534
31
0.0
0
LINE
8
FRONT_HID
6
HIDDEN
10
0.263471
20
1.799534
30
0.0
11
1.218017
21
1.799534
31
0.0
0
LINE
8
FRONT_HID
6
HIDDEN
10
1.218017
20
1.799534
30
0.0
11
1.218017
21
1.840443
31
0.0
0
LINE
8
FRONT_HID
6
HIDDEN
10
1.218017
20
1.840443
30
0.0
11
0.263471
21
1.840443
31
0.0
0
LINE
8
FRONT_HID
6
HIDDEN
10
0.263471
20
1.840443
30
0.0
11
1.218017
21
1.840443
31
0.0
0
LINE
8
FRONT_HID
6
HIDDEN
10
0.263471
20
1.840443
30
0.0
11
0.263471
21
1.799534
31
0.0
0
LINE
8
LEFT
10
1.800000
20
1.799534
30
0.0
11
3.300000
21
1.799534
31
0.0
0
LINE
8
LEFT
10
1.800000
20
1.840443
30
0.0
11
3.300000
21
1.840443
31
0.0
0
LINE
8
LEFT
10
1.800000
20
1.840443
30
0.0
11
1.800000
21
1.799534
31
0.0
0
LINE
8
LEFT
10
3.300000
20
1.840443
30
0.0
11
3.300000
21
1.799534
31
0.0
0
LINE
8
LEFT_HID
6
HIDDEN
10
2.550000
20
1.799534
30
0.0
11
1.800000
21
1.799534
31
0.0
0
LINE
8
LEFT_HID
6
HIDDEN
10
3.300000
20
1.799534
30
0.0
11
2.550000
21
1.799534
31
0.0
0
LINE
8
LEFT_HID
6
HIDDEN
10
2.550000
20
1.840443
30
0.0
11
1.800000
21
1.840443
31
0.0
0
LINE
8
LEFT_HID
6
HIDDEN
10
3.300000
20
1.840443
30
0.0
11
2.550000
21
1.840443
31
0.0
0
LINE
8
LEFT_HID
6
HIDDEN
10
2.541792
20
1.799534
30
0.0
11
2.064519
21
1.799534
31
0.0
0
LINE
8
LEFT_HID
6
HIDDEN
10
2.064519
20
1.799534
30
0.0
11
3.019065
21
1.799534
31
0.0
0
LINE
8
LEFT_HID
6
HIDDEN
10
3.019065
20
1.799534
30
0.0
11
2.541792
21
1.799534
31
0.0
0
LINE
8
LEFT_HID
6
HIDDEN
10
2.541792
20
1.840443
30
0.0
11
2.064519
21
1.840443
31
0.0
0
LINE
8
LEFT_HID
6
HIDDEN
10
2.064519
20
1.840443
30
0.0
11
3.019065
21
1.840443
31
0.0
0
LINE
8
LEFT_HID
6
HIDDEN
10
3.019065
20
1.840443
30
0.0
11
2.541792
21
1.840443
31
0.0
0
LINE
8
LEFT_HID
6
HIDDEN
10
2.064519
20
1.840443
30
0.0
11
2.064519
21
1.799534
31
0.0
0
LINE
8
LEFT_HID
6
HIDDEN
10
3.019065
20
1.840443
30
0.0
11
3.019065
21
1.799534
31
0.0
0
LINE
8
TOP
10
1.499068
20
0.749767
30
0.0
11
1.495341
21
0.824443
31
0.0
0
LINE
8
TOP
10
1.495341
20
0.824443
30
0.0
11
1.484197
21
0.898376
31
0.0
0
LINE
8
TOP
10
1.484197
20
0.898376
30
0.0
11
1.465747
21
0.970833
31
0.0
0
LINE
8
TOP
10
1.465747
20
0.970833
30
0.0
11
1.440175
21
1.041093
31
0.0
0
LINE
8
TOP
10
1.440175
20
1.041093
30
0.0
11
1.407734
21
1.108457
31
0.0
0
LINE
8
TOP
10
1.407734
20
1.108457
30
0.0
11
1.368747
21
1.172257
31
0.0
0
LINE
8
TOP
10
1.368747
20
1.172257
30
0.0
11
1.323601
21
1.231858
31
0.0
0
LINE
8
TOP
10
1.323601
20
1.231858
30
0.0
11
1.272745
21
1.286667
31
0.0
0
LINE
8
TOP
10
1.272745
20
1.286667
30
0.0
11
1.216685
21
1.336140
31
0.0
0
LINE
8
TOP
10
1.216685
20
1.336140
30
0.0
11
1.155977
21
1.379786
31
0.0
0
LINE
8
TOP
10
1.155977
20
1.379786
30
0.0
11
1.091226
21
1.417171
31
0.0
0
LINE
8
TOP
10
1.091226
20
1.417171
30
0.0
11
1.023073
21
1.447922
31
0.0
0
LINE
8
TOP
10
1.023073
20
1.447922
30
0.0
11
0.952198
21
1.471735
31
0.0
0
LINE
8
TOP
10
0.952198
20
1.471735
30
0.0
11
0.879304
21
1.488373
31
0.0
0
LINE
8
TOP
10
0.879304
20
1.488373
30
0.0
11
0.805115
21
1.497670
31
0.0
0
LINE
8
TOP
10
0.805115
20
1.497670
30
0.0
11
0.730370
21
1.499534
31
0.0
0
LINE
8
TOP
10
0.730370
20
1.499534
30
0.0
11
0.655810
21
1.493946
31
0.0
0
LINE
8
TOP
10
0.655810
20
1.493946
30
0.0
11
0.582177
21
1.480963
31
0.0
0
LINE
8
TOP
10
0.582177
20
1.480963
30
0.0
11
0.510203
21
1.460712
31
0.0
0
LINE
8
TOP
10
0.510203
20
1.460712
30
0.0
11
0.440602
21
1.433396
31
0.0
0
LINE
8
TOP
10
0.440602
20
1.433396
30
0.0
11
0.374068
21
1.399286
31
0.0
0
LINE
8
TOP
10
0.374068
20
1.399286
30
0.0
11
0.311260
21
1.358720
31
0.0
0
LINE
8
TOP
10
0.311260
20
1.358720
30
0.0
11
0.252803
21
1.312103
31
0.0
0
LINE
8
TOP
10
0.252803
20
1.312103
30
0.0
11
0.199279
21
1.259896
31
0.0
0
LINE
8
TOP
10
0.199279
20
1.259896
30
0.0
11
0.151218
21
1.202620
31
0.0
0
LINE
8
TOP
10
0.151218
20
1.202620
30
0.0
11
0.109100
21
1.140843
31
0.0
0
LINE
8
TOP
10
0.109100
20
1.140843
30
0.0
11
0.073341
21
1.075180
31
0.0
0
LINE
8
TOP
10
0.073341
20
1.075180
30
0.0
11
0.044298
21
1.006282
31
0.0
0
LINE
8
TOP
10
0.044298
20
1.006282
30
0.0
11
0.022260
21
0.934835
31
0.0
0
LINE
8
TOP
10
0.022260
20
0.934835
30
0.0
11
0.007445
21
0.861549
31
0.0
0
LINE
8
TOP
10
0.007445
20
0.861549
30
0.0
11
0.000000
21
0.787151
31
0.0
0
LINE
8
TOP
10
0.000000
20
0.787151
30
0.0
11
0.000000
21
0.712382
31
0.0
0
LINE
8
TOP
10
0.000000
20
0.712382
30
0.0
11
0.007445
21
0.637985
31
0.0
0
LINE
8
TOP
10
0.007445
20
0.637985
30
0.0
11
0.022260
21
0.564699
31
0.0
0
LINE
8
TOP
10
0.022260
20
0.564699
30
0.0
11
0.044298
21
0.493252
31
0.0
0
LINE
8
TOP
10
0.044298
20
0.493252
30
0.0
11
0.073341
21
0.424354
31
0.0
0
LINE
8
TOP
10
0.073341
20
0.424354
30
0.0
11
0.109100
21
0.358690
31
0.0
0
LINE
8
TOP
10
0.109100
20
0.358690
30
0.0
11
0.151218
21
0.296914
31
0.0
0
LINE
8
TOP
10
0.151218
20
0.296914
30
0.0
11
0.199279
21
0.239637
31
0.0
0
LINE
8
TOP
10
0.199279
20
0.239637
30
0.0
11
0.252803
21
0.187431
31
0.0
0
LINE
8
TOP
10
0.252803
20
0.187431
30
0.0
11
0.311260
21
0.140813
31
0.0
0
LINE
8
TOP
10
0.311260
20
0.140813
30
0.0
11
0.374068
21
0.100248
31
0.0
0
LINE
8
TOP
10
0.374068
20
0.100248
30
0.0
11
0.440602
21
0.066137
31
0.0
0
LINE
8
TOP
10
0.440602
20
0.066137
30
0.0
11
0.510203
21
0.038821
31
0.0
0
LINE
8
TOP
10
0.510203
20
0.038821
30
0.0
11
0.582177
21
0.018571
31
0.0
0
LINE
8
TOP
10
0.582177
20
0.018571
30
0.0
11
0.655810
21
0.005587
31
0.0
0
LINE
8
TOP
10
0.655810
20
0.005587
30
0.0
11
0.730370
21
0.000000
31
0.0
0
LINE
8
TOP
10
0.730370
20
0.000000
30
0.0
11
0.805115
21
0.001864
31
0.0
0
LINE
8
TOP
10
0.805115
20
0.001864
30
0.0
11
0.879304
21
0.011161
31
0.0
0
LINE
8
TOP
10
0.879304
20
0.011161
30
0.0
11
0.952198
21
0.027799
31
0.0
0
LINE
8
TOP
10
0.952198
20
0.027799
30
0.0
11
1.023073
21
0.051612
31
0.0
0
LINE
8
TOP
10
1.023073
20
0.051612
30
0.0
11
1.091226
21
0.082363
31
0.0
0
LINE
8
TOP
10
1.091226
20
0.082363
30
0.0
11
1.155977
21
0.119747
31
0.0
0
LINE
8
TOP
10
1.155977
20
0.119747
30
0.0
11
1.216685
21
0.163393
31
0.0
0
LINE
8
TOP
10
1.216685
20
0.163393
30
0.0
11
1.272745
21
0.212867
31
0.0
0
LINE
8
TOP
10
1.272745
20
0.212867
30
0.0
11
1.323601
21
0.267676
31
0.0
0
LINE
8
TOP
10
1.323601
20
0.267676
30
0.0
11
1.368747
21
0.327277
31
0.0
0
LINE
8
TOP
10
1.368747
20
0.327277
30
0.0
11
1.407734
21
0.391076
31
0.0
0
LINE
8
TOP
10
1.407734
20
0.391076
30
0.0
11
1.440175
21
0.458441
31
0.0
0
LINE
8
TOP
10
1.440175
20
0.458441
30
0.0
11
1.465747
21
0.528701
31
0.0
0
LINE
8
TOP
10
1.465747
20
0.528701
30
0.0
11
1.484197
21
0.601157
31
0.0
0
LINE
8
TOP
10
1.484197
20
0.601157
30
0.0
11
1.495341
21
0.675091
31
0.0
0
LINE
8
TOP
10
1.495341
20
0.675091
30
0.0
11
1.499068
21
0.749767
31
0.0
0
LINE
8
TOP
10
1.217084
20
0.757975
30
0.0
11
1.214713
21
0.805496
31
0.0
0
LINE
8
TOP
10
1.214713
20
0.805496
30
0.0
11
1.207621
21
0.852545
31
0.0
0
LINE
8
TOP
10
1.207621
20
0.852545
30
0.0
11
1.195880
21
0.898653
31
0.0
0
LINE
8
TOP
10
1.195880
20
0.898653
30
0.0
11
1.179607
21
0.943364
31
0.0
0
LINE
8
TOP
10
1.179607
20
0.943364
30
0.0
11
1.158963
21
0.986232
31
0.0
0
LINE
8
TOP
10
1.158963
20
0.986232
30
0.0
11
1.134153
21
1.026832
31
0.0
0
LINE
8
TOP
10
1.134153
20
1.026832
30
0.0
11
1.105424
21
1.064760
31
0.0
0
LINE
8
TOP
10
1.105424
20
1.064760
30
0.0
11
1.073061
21
1.099638
31
0.0
0
LINE
8
TOP
10
1.073061
20
1.099638
30
0.0
11
1.037386
21
1.131122
31
0.0
0
LINE
8
TOP
10
1.037386
20
1.131122
30
0.0
11
0.998754
21
1.158896
31
0.0
0
LINE
8
TOP
10
0.998754
20
1.158896
30
0.0
11
0.957549
21
1.182686
31
0.0
0
LINE
8
TOP
10
0.957549
20
1.182686
30
0.0
11
0.914179
21
1.202255
31
0.0
0
LINE
8
TOP
10
0.914179
20
1.202255
30
0.0
11
0.869076
21
1.217409
31
0.0
0
LINE
8
TOP
10
0.869076
20
1.217409
30
0.0
11
0.822689
21
1.227997
31
0.0
0
LINE
8
TOP
10
0.822689
20
1.227997
30
0.0
11
0.775478
21
1.233913
31
0.0
0
LINE
8
TOP
10
0.775478
20
1.233913
30
0.0
11
0.727913
21
1.235099
31
0.0
0
LINE
8
TOP
10
0.727913
20
1.235099
30
0.0
11
0.680466
21
1.231543
31
0.0
0
LINE
8
TOP
10
0.680466
20
1.231543
30
0.0
11
0.633608
21
1.223281
31
0.0
0
LINE
8
TOP
10
0.633608
20
1.223281
30
0.0
11
0.587807
21
1.210395
31
0.0
0
LINE
8
TOP
10
0.587807
20
1.210395
30
0.0
11
0.543515
21
1.193012
31
0.0
0
LINE
8
TOP
10
0.543515
20
1.193012
30
0.0
11
0.501175
21
1.171305
31
0.0
0
LINE
8
TOP
10
0.501175
20
1.171305
30
0.0
11
0.461207
21
1.145491
31
0.0
0
LINE
8
TOP
10
0.461207
20
1.145491
30
0.0
11
0.424007
21
1.115825
31
0.0
0
LINE
8
TOP
10
0.424007
20
1.115825
30
0.0
11
0.389946
21
1.082603
31
0.0
0
LINE
8
TOP
10
0.389946
20
1.082603
30
0.0
11
0.359362
21
1.046154
31
0.0
0
LINE
8
TOP
10
0.359362
20
1.046154
30
0.0
11
0.332559
21
1.006842
31
0.0
0
LINE
8
TOP
10
0.332559
20
1.006842
30
0.0
11
0.309804
21
0.965056
31
0.0
0
LINE
8
TOP
10
0.309804
20
0.965056
30
0.0
11
0.291322
21
0.921212
31
0.0
0
LINE
8
TOP
10
0.291322
20
0.921212
30
0.0
11
0.277297
21
0.875745
31
0.0
0
LINE
8
TOP
10
0.277297
20
0.875745
30
0.0
11
0.267870
21
0.829109
31
0.0
0
LINE
8
TOP
10
0.267870
20
0.829109
30
0.0
11
0.263132
21
0.781765
31
0.0
0
LINE
8
TOP
10
0.263132
20
0.781765
30
0.0
11
0.263132
21
0.734185
31
0.0
0
LINE
8
TOP
10
0.263132
20
0.734185
30
0.0
11
0.267870
21
0.686841
31
0.0
0
LINE
8
TOP
10
0.267870
20
0.686841
30
0.0
11
0.277297
21
0.640204
31
0.0
0
LINE
8
TOP
10
0.277297
20
0.640204
30
0.0
11
0.291322
21
0.594738
31
0.0
0
LINE
8
TOP
10
0.291322
20
0.594738
30
0.0
11
0.309804
21
0.550894
31
0.0
0
LINE
8
TOP
10
0.309804
20
0.550894
30
0.0
11
0.332559
21
0.509108
31
0.0
0
LINE
8
TOP
10
0.332559
20
0.509108
30
0.0
11
0.359362
21
0.469795
31
0.0
0
LINE
8
TOP
10
0.359362
20
0.469795
30
0.0
11
0.389946
21
0.433347
31
0.0
0
LINE
8
TOP
10
0.389946
20
0.433347
30
0.0
11
0.424007
21
0.400125
31
0.0
0
LINE
8
TOP
10
0.424007
20
0.400125
30
0.0
11
0.461207
21
0.370459
31
0.0
0
LINE
8
TOP
10
0.461207
20
0.370459
30
0.0
11
0.501175
21
0.344644
31
0.0
0
LINE
8
TOP
10
0.501175
20
0.344644
30
0.0
11
0.543515
21
0.322938
31
0.0
0
LINE
8
TOP
10
0.543515
20
0.322938
30
0.0
11
0.587807
21
0.305555
31
0.0
0
LINE
8
TOP
10
0.587807
20
0.305555
30
0.0
11
0.633608
21
0.292668
31
0.0
0
LINE
8
TOP
10
0.633608
20
0.292668
30
0.0
11
0.680466
21
0.284406
31
0.0
0
LINE
8
TOP
10
0.680466
20
0.284406
30
0.0
11
0.727913
21
0.280850
31
0.0
0
LINE
8
TOP
10
0.727913
20
0.280850
30
0.0
11
0.775478
21
0.282037
31
0.0
0
LINE
8
TOP
10
0.775478
20
0.282037
30
0.0
11
0.822689
21
0.287953
31
0.0
0
LINE
8
TOP
10
0.822689
20
0.287953
30
0.0
11
0.869076
21
0.298540
31
0.0
0
LINE
8
TOP
10
0.869076
20
0.298540
30
0.0
11
0.914179
21
0.313694
31
0.0
0
LINE
8
TOP
10
0.914179
20
0.313694
30
0.0
11
0.957549
21
0.333263
31
0.0
0
LINE
8
TOP
10
0.957549
20
0.333263
30
0.0
11
0.998754
21
0.357053
31
0.0
0
LINE
8
TOP
10
0.998754
20
0.357053
30
0.0
11
1.037386
21
0.384828
31
0.0
0
LINE
8
TOP
10
1.037386
20
0.384828
30
0.0
11
1.073061
21
0.416311
31
0.0
0
LINE
8
TOP
10
1.073061
20
0.416311
30
0.0
11
1.105424
21
0.451190
31
0.0
0
LINE
8
TOP
10
1.105424
20
0.451190
30
0.0
11
1.134153
21
0.489117
31
0.0
0
LINE
8
TOP
10
1.134153
20
0.489117
30
0.0
11
1.158963
21
0.529717
31
0.0
0
LINE
8
TOP
10
1.158963
20
0.529717
30
0.0
11
1.179607
21
0.572585
31
0.0
0
LINE
8
TOP
10
1.179607
20
0.572585
30
0.0
11
1.195880
21
0.617296
31
0.0
0
LINE
8
TOP
10
1.195880
20
0.617296
30
0.0
11
1.207621
21
0.663405
31
0.0
0
LINE
8
TOP
10
1.207621
20
0.663405
30
0.0
11
1.214713
21
0.710454
31
0.0
0
LINE
8
TOP
10
1.214713
20
0.710454
30
0.0
11
1.217084
21
0.757975
31
0.0
0
ENDSEC
0
EOF
