0
SECTION
2
HEADER
9
$ACADVER
1
AC1009
0
ENDSEC
0
SECTION
2
TABLES
0
TABLE
2
LTYPE
70
3
0
LTYPE
2
CONTINUOUS
70
0
3
Solid line
72
65
73
0
40
0.0
0
LTYPE
2
HIDDEN
70
0
3
__ __ __ __ __
72
65
73
2
40
0.034934
49
0.023301
49
-0.011633
0
LTYPE
2
CENTER
70
0
3
___ _ ___ _ ___
72
65
73
4
40
0.081502
49
0.046568
49
-0.011633
49
0.011633
49
-0.011633
0
ENDTAB
0
TABLE
2
LAYER
70
6
0
LAYER
2
0
70
0
62
7
6
CONTINUOUS
0
LAYER
2
FRONT
70
0
62
7
6
CONTINUOUS
0
LAYER
2
FRONT_HID
70
0
62
7
6
HIDDEN
0
LAYER
2
LEFT
70
0
62
7
6
CONTINUOUS
0
LAYER
2
LEFT_HID
70
0
62
7
6
HIDDEN
0
LAYER
2
TOP
70
0
62
7
6
CONTINUOUS
0
ENDTAB
0
ENDSEC
0
SECTION
2
ENTITIES
0
LINE
8
FRONT
10
0.698690
20
0.838211
30
0.0
11
0.000000
21
0.838211
31
0.0
0
LINE
8
FRONT
10
0.698690
20
0.838211
30
0.0
11
0.698690
21
1.449564
31
0.0
0
LINE
8
FRONT
10
0.698690
20
1.449564
30
0.0
11
0.000000
21
1.449564
31
0.0
0
LINE
8
FRONT
10
0.000000
20
1.449564
30
0.0
11
0.000000
21
0.838211
31
0.0
0
LINE
8
FRONT_HID
6
HIDDEN
10
0.545668
20
0.838211
30
0.0
11
0.153022
21
0.838211
31
0.0
0
LINE
8
FRONT_HID
6
HIDDEN
10
0.153022
20
0.838211
30
0.0
11
0.545668
21
0.838211
31
0.0
0
LINE
8
FRONT_HID
6
HIDDEN
10
0.545668
20
0.838211
30
0.0
11
0.545668
21
1.449564
31
0.0
0
LINE
8
FRONT_HID
6
HIDDEN
10
0.545668
20
1.449564
30
0.0
11
0.153022
21
1.449564
31
0.0
0
LINE
8
FRONT_HID
6
HIDDEN
10
0.153022
20
1.449564
30
0.0
11
0.545668
21
1.449564
31
0.0
0
LINE
8
FRONT_HID
6
HIDDEN
10
0.153022
20
1.449564
30
0.0
11
0.153022
21
0.838211
31
0.0
0
LINE
8
LEFT
10
0.838428
20
0.838211
30
0.0
11
1.537118
21
0.838211
31
0.0
0
LINE
8
LEFT
10
0.838428
20
1.449564
30
0.0
11
1.537118
21
1.449564
31
0.0
0
LINE
8
LEFT
10
0.838428
20
1.449564
30
0.0
11
0.838428
21
0.838211
31
0.0
0
LINE
8
LEFT
10
1.537118
20
1.449564
30
0.0
11
1.537118
21
0.838211
31
0.0
0
LINE
8
LEFT_HID
6
HIDDEN
10
1.187773
20
0.838211
30
0.0
11
0.838428
21
0.838211
31
0.0
0
LINE
8
LEFT_HID
6
HIDDEN
10
1.537118
20
0.838211
30
0.0
11
1.187773
21
0.838211
31
0.0
0
LINE
8
LEFT_HID
6
HIDDEN
10
1.187773
20
1.449564
30
0.0
11
0.838428
21
1.449564
31
0.0
0
LINE
8
LEFT_HID
6
HIDDEN
10
1.537118
20
1.449564
30
0.0
11
1.187773
21
1.449564
31
0.0
0
LINE
8
LEFT_HID
6
HIDDEN
10
1.187773
20
0.838211
30
0.0
11
0.991450
21
0.838211
31
0.0
0
LINE
8
LEFT_HID
6
HIDDEN
10
0.991450
20
0.838211
30
0.0
11
1.384096
21
0.838211
31
0.0
0
LINE
8
LEFT_HID
6
HIDDEN
10
1.384096
20
0.838211
30
0.0
11
1.187773
21
0.838211
31
0.0
0
LINE
8
LEFT_HID
6
HIDDEN
10
1.187773
20
1.449564
30
0.0
11
0.991450
21
1.449564
31
0.0
0
LINE
8
LEFT_HID
6
HIDDEN
10
0.991450
20
1.449564
30
0.0
11
1.384096
21
1.449564
31
0.0
0
LINE
8
LEFT_HID
6
HIDDEN
10
1.384096
20
1.449564
30
0.0
11
1.187773
21
1.449564
31
0.0
0
LINE
8
LEFT_HID
6
HIDDEN
10
0.991450
20
1.449564
30
0.0
11
0.991450
21
0.838211
31
0.0
0
LINE
8
LEFT_HID
6
HIDDEN
10
1.384096
20
1.449564
30
0.0
11
1.384096
21
0.838211
31
0.0
0
LINE
8
TOP
10
0.698256
20
0.349236
30
0.0
11
0.696520
21
0.384020
31
0.0
0
LINE
8
TOP
10
0.696520
20
0.384020
30
0.0
11
0.691329
21
0.418458
31
0.0
0
LINE
8
TOP
10
0.691329
20
0.418458
30
0.0
11
0.682735
21
0.452208
31
0.0
0
LINE
8
TOP
10
0.682735
20
0.452208
30
0.0
11
0.670824
21
0.484934
31
0.0
0
LINE
8
TOP
10
0.670824
20
0.484934
30
0.0
11
0.655713
21
0.516312
31
0.0
0
LINE
8
TOP
10
0.655713
20
0.516312
30
0.0
11
0.637553
21
0.546029
31
0.0
0
LINE
8
TOP
10
0.637553
20
0.546029
30
0.0
11
0.616524
21
0.573791
31
0.0
0
LINE
8
TOP
10
0.616524
20
0.573791
30
0.0
11
0.592836
21
0.599321
31
0.0
0
LINE
8
TOP
10
0.592836
20
0.599321
30
0.0
11
0.566724
21
0.622365
31
0.0
0
LINE
8
TOP
10
0.566724
20
0.622365
30
0.0
11
0.538447
21
0.642695
31
0.0
0
LINE
8
TOP
10
0.538447
20
0.642695
30
0.0
11
0.508286
21
0.660109
31
0.0
0
LINE
8
TOP
10
0.508286
20
0.660109
30
0.0
11
0.476541
21
0.674432
31
0.0
0
LINE
8
TOP
10
0.476541
20
0.674432
30
0.0
11
0.443527
21
0.685524
31
0.0
0
LINE
8
TOP
10
0.443527
20
0.685524
30
0.0
11
0.409574
21
0.693274
31
0.0
0
LINE
8
TOP
10
0.409574
20
0.693274
30
0.0
11
0.375017
21
0.697605
31
0.0
0
LINE
8
TOP
10
0.375017
20
0.697605
30
0.0
11
0.340201
21
0.698473
31
0.0
0
LINE
8
TOP
10
0.340201
20
0.698473
30
0.0
11
0.305472
21
0.695870
31
0.0
0
LINE
8
TOP
10
0.305472
20
0.695870
30
0.0
11
0.271174
21
0.689823
31
0.0
0
LINE
8
TOP
10
0.271174
20
0.689823
30
0.0
11
0.237649
21
0.680390
31
0.0
0
LINE
8
TOP
10
0.237649
20
0.680390
30
0.0
11
0.205230
21
0.667666
31
0.0
0
LINE
8
TOP
10
0.205230
20
0.667666
30
0.0
11
0.174238
21
0.651778
31
0.0
0
LINE
8
TOP
10
0.174238
20
0.651778
30
0.0
11
0.144983
21
0.632883
31
0.0
0
LINE
8
TOP
10
0.144983
20
0.632883
30
0.0
11
0.117754
21
0.611169
31
0.0
0
LINE
8
TOP
10
0.117754
20
0.611169
30
0.0
11
0.092823
21
0.586851
31
0.0
0
LINE
8
TOP
10
0.092823
20
0.586851
30
0.0
11
0.070436
21
0.560172
31
0.0
0
LINE
8
TOP
10
0.070436
20
0.560172
30
0.0
11
0.050818
21
0.531397
31
0.0
0
LINE
8
TOP
10
0.050818
20
0.531397
30
0.0
11
0.034162
21
0.500812
31
0.0
0
LINE
8
TOP
10
0.034162
20
0.500812
30
0.0
11
0.020634
21
0.468719
31
0.0
0
LINE
8
TOP
10
0.020634
20
0.468719
30
0.0
11
0.010368
21
0.435440
31
0.0
0
LINE
8
TOP
10
0.010368
20
0.435440
30
0.0
11
0.003468
21
0.401304
31
0.0
0
LINE
8
TOP
10
0.003468
20
0.401304
30
0.0
11
0.000000
21
0.366650
31
0.0
0
LINE
8
TOP
10
0.000000
20
0.366650
30
0.0
11
0.000000
21
0.331823
31
0.0
0
LINE
8
TOP
10
0.000000
20
0.331823
30
0.0
11
0.003468
21
0.297169
31
0.0
0
LINE
8
TOP
10
0.003468
20
0.297169
30
0.0
11
0.010368
21
0.263033
31
0.0
0
LINE
8
TOP
10
0.010368
20
0.263033
30
0.0
11
0.020634
21
0.229753
31
0.0
0
LINE
8
TOP
10
0.020634
20
0.229753
30
0.0
11
0.034162
21
0.197661
31
0.0
0
LINE
8
TOP
10
0.034162
20
0.197661
30
0.0
11
0.050818
21
0.167076
31
0.0
0
LINE
8
TOP
10
0.050818
20
0.167076
30
0.0
11
0.070436
21
0.138300
31
0.0
0
LINE
8
TOP
10
0.070436
20
0.138300
30
0.0
11
0.092823
21
0.111621
31
0.0
0
LINE
8
TOP
10
0.092823
20
0.111621
30
0.0
11
0.117754
21
0.087304
31
0.0
0
LINE
8
TOP
10
0.117754
20
0.087304
30
0.0
11
0.144983
21
0.065590
31
0.0
0
LINE
8
TOP
10
0.144983
20
0.065590
30
0.0
11
0.174238
21
0.046695
31
0.0
0
LINE
8
TOP
10
0.174238
20
0.046695
30
0.0
11
0.205230
21
0.030806
31
0.0
0
LINE
8
TOP
10
0.205230
20
0.030806
30
0.0
11
0.237649
21
0.018083
31
0.0
0
LINE
8
TOP
10
0.237649
20
0.018083
30
0.0
11
0.271174
21
0.008650
31
0.0
0
LINE
8
TOP
10
0.271174
20
0.008650
30
0.0
11
0.305472
21
0.002603
31
0.0
0
LINE
8
TOP
10
0.305472
20
0.002603
30
0.0
11
0.340201
21
0.000000
31
0.0
0
LINE
8
TOP
10
0.340201
20
0.000000
30
0.0
11
0.375017
21
0.000868
31
0.0
0
LINE
8
TOP
10
0.375017
20
0.000868
30
0.0
11
0.409574
21
0.005199
31
0.0
0
LINE
8
TOP
10
0.409574
20
0.005199
30
0.0
11
0.443527
21
0.012948
31
0.0
0
LINE
8
TOP
10
0.443527
20
0.012948
30
0.0
11
0.476541
21
0.024040
31
0.0
0
LINE
8
TOP
10
0.476541
20
0.024040
30
0.0
11
0.508286
21
0.038364
31
0.0
0
LINE
8
TOP
10
0.508286
20
0.038364
30
0.0
11
0.538447
21
0.055778
31
0.0
0
LINE
8
TOP
10
0.538447
20
0.055778
30
0.0
11
0.566724
21
0.076107
31
0.0
0
LINE
8
TOP
10
0.566724
20
0.076107
30
0.0
11
0.592836
21
0.099152
31
0.0
0
LINE
8
TOP
10
0.592836
20
0.099152
30
0.0
11
0.616524
21
0.124682
31
0.0
0
LINE
8
TOP
10
0.616524
20
0.124682
30
0.0
11
0.637553
21
0.152443
31
0.0
0
LINE
8
TOP
10
0.637553
20
0.152443
30
0.0
11
0.655713
21
0.182161
31
0.0
0
LINE
8
TOP
10
0.655713
20
0.182161
30
0.0
11
0.670824
21
0.213539
31
0.0
0
LINE
8
TOP
10
0.670824
20
0.213539
30
0.0
11
0.682735
21
0.246265
31
0.0
0
LINE
8
TOP
10
0.682735
20
0.246265
30
0.0
11
0.691329
21
0.280015
31
0.0
0
LINE
8
TOP
10
0.691329
20
0.280015
30
0.0
11
0.696520
21
0.314453
31
0.0
0
LINE
8
TOP
10
0.696520
20
0.314453
30
0.0
11
0.698256
21
0.349236
31
0.0
0
LINE
8
TOP
10
0.545234
20
0.349236
30
0.0
11
0.544258
21
0.368784
31
0.0
0
LINE
8
TOP
10
0.544258
20
0.368784
30
0.0
11
0.541341
21
0.388137
31
0.0
0
LINE
8
TOP
10
0.541341
20
0.388137
30
0.0
11
0.536512
21
0.407104
31
0.0
0
LINE
8
TOP
10
0.536512
20
0.407104
30
0.0
11
0.529818
21
0.425495
31
0.0
0
LINE
8
TOP
10
0.529818
20
0.425495
30
0.0
11
0.521326
21
0.443129
31
0.0
0
LINE
8
TOP
10
0.521326
20
0.443129
30
0.0
11
0.511121
21
0.459829
31
0.0
0
LINE
8
TOP
10
0.511121
20
0.459829
30
0.0
11
0.499303
21
0.475430
31
0.0
0
LINE
8
TOP
10
0.499303
20
0.475430
30
0.0
11
0.485991
21
0.489778
31
0.0
0
LINE
8
TOP
10
0.485991
20
0.489778
30
0.0
11
0.471316
21
0.502728
31
0.0
0
LINE
8
TOP
10
0.471316
20
0.502728
30
0.0
11
0.455425
21
0.514153
31
0.0
0
LINE
8
TOP
10
0.455425
20
0.514153
30
0.0
11
0.438475
21
0.523939
31
0.0
0
LINE
8
TOP
10
0.438475
20
0.523939
30
0.0
11
0.420636
21
0.531988
31
0.0
0
LINE
8
TOP
10
0.420636
20
0.531988
30
0.0
11
0.402083
21
0.538222
31
0.0
0
LINE
8
TOP
10
0.402083
20
0.538222
30
0.0
11
0.383002
21
0.542577
31
0.0
0
LINE
8
TOP
10
0.383002
20
0.542577
30
0.0
11
0.363582
21
0.545011
31
0.0
0
LINE
8
TOP
10
0.363582
20
0.545011
30
0.0
11
0.344016
21
0.545499
31
0.0
0
LINE
8
TOP
10
0.344016
20
0.545499
30
0.0
11
0.324499
21
0.544036
31
0.0
0
LINE
8
TOP
10
0.324499
20
0.544036
30
0.0
11
0.305225
21
0.540637
31
0.0
0
LINE
8
TOP
10
0.305225
20
0.540637
30
0.0
11
0.286384
21
0.535336
31
0.0
0
LINE
8
TOP
10
0.286384
20
0.535336
30
0.0
11
0.268166
21
0.528186
31
0.0
0
LINE
8
TOP
10
0.268166
20
0.528186
30
0.0
11
0.250749
21
0.519257
31
0.0
0
LINE
8
TOP
10
0.250749
20
0.519257
30
0.0
11
0.234308
21
0.508639
31
0.0
0
LINE
8
TOP
10
0.234308
20
0.508639
30
0.0
11
0.219006
21
0.496436
31
0.0
0
LINE
8
TOP
10
0.219006
20
0.496436
30
0.0
11
0.204996
21
0.482770
31
0.0
0
LINE
8
TOP
10
0.204996
20
0.482770
30
0.0
11
0.192415
21
0.467777
31
0.0
0
LINE
8
TOP
10
0.192415
20
0.467777
30
0.0
11
0.181390
21
0.451606
31
0.0
0
LINE
8
TOP
10
0.181390
20
0.451606
30
0.0
11
0.172030
21
0.434418
31
0.0
0
LINE
8
TOP
10
0.172030
20
0.434418
30
0.0
11
0.164427
21
0.416383
31
0.0
0
LINE
8
TOP
10
0.164427
20
0.416383
30
0.0
11
0.158658
21
0.397681
31
0.0
0
LINE
8
TOP
10
0.158658
20
0.397681
30
0.0
11
0.154780
21
0.378497
31
0.0
0
LINE
8
TOP
10
0.154780
20
0.378497
30
0.0
11
0.152832
21
0.359022
31
0.0
0
LINE
8
TOP
10
0.152832
20
0.359022
30
0.0
11
0.152832
21
0.339450
31
0.0
0
LINE
8
TOP
10
0.152832
20
0.339450
30
0.0
11
0.154780
21
0.319976
31
0.0
0
LINE
8
TOP
10
0.154780
20
0.319976
30
0.0
11
0.158658
21
0.300792
31
0.0
0
LINE
8
TOP
10
0.158658
20
0.300792
30
0.0
11
0.164427
21
0.282090
31
0.0
0
LINE
8
TOP
10
0.164427
20
0.282090
30
0.0
11
0.172030
21
0.264055
31
0.0
0
LINE
8
TOP
10
0.172030
20
0.264055
30
0.0
11
0.181390
21
0.246867
31
0.0
0
LINE
8
TOP
10
0.181390
20
0.246867
30
0.0
11
0.192415
21
0.230696
31
0.0
0
LINE
8
TOP
10
0.192415
20
0.230696
30
0.0
11
0.204996
21
0.215703
31
0.0
0
LINE
8
TOP
10
0.204996
20
0.215703
30
0.0
11
0.219006
21
0.202037
31
0.0
0
LINE
8
TOP
10
0.219006
20
0.202037
30
0.0
11
0.234308
21
0.189834
31
0.0
0
LINE
8
TOP
10
0.234308
20
0.189834
30
0.0
11
0.250749
21
0.179216
31
0.0
0
LINE
8
TOP
10
0.250749
20
0.179216
30
0.0
11
0.268166
21
0.170287
31
0.0
0
LINE
8
TOP
10
0.268166
20
0.170287
30
0.0
11
0.286384
21
0.163136
31
0.0
0
LINE
8
TOP
10
0.286384
20
0.163136
30
0.0
11
0.305225
21
0.157835
31
0.0
0
LINE
8
TOP
10
0.305225
20
0.157835
30
0.0
11
0.324499
21
0.154437
31
0.0
0
LINE
8
TOP
10
0.324499
20
0.154437
30
0.0
11
0.344016
21
0.152974
31
0.0
0
LINE
8
TOP
10
0.344016
20
0.152974
30
0.0
11
0.363582
21
0.153462
31
0.0
0
LINE
8
TOP
10
0.363582
20
0.153462
30
0.0
11
0.383002
21
0.155896
31
0.0
0
LINE
8
TOP
10
0.383002
20
0.155896
30
0.0
11
0.402083
21
0.160251
31
0.0
0
LINE
8
TOP
10
0.402083
20
0.160251
30
0.0
11
0.420636
21
0.166484
31
0.0
0
LINE
8
TOP
10
0.420636
20
0.166484
30
0.0
11
0.438475
21
0.174534
31
0.0
0
LINE
8
TOP
10
0.438475
20
0.174534
30
0.0
11
0.455425
21
0.184320
31
0.0
0
LINE
8
TOP
10
0.455425
20
0.184320
30
0.0
11
0.471316
21
0.195745
31
0.0
0
LINE
8
TOP
10
0.471316
20
0.195745
30
0.0
11
0.485991
21
0.208695
31
0.0
0
LINE
8
TOP
10
0.485991
20
0.208695
30
0.0
11
0.499303
21
0.223042
31
0.0
0
LINE
8
TOP
10
0.499303
20
0.223042
30
0.0
11
0.511121
21
0.238644
31
0.0
0
LINE
8
TOP
10
0.511121
20
0.238644
30
0.0
11
0.521326
21
0.255344
31
0.0
0
LINE
8
TOP
10
0.521326
20
0.255344
30
0.0
11
0.529818
21
0.272978
31
0.0
0
LINE
8
TOP
10
0.529818
20
0.272978
30
0.0
11
0.536512
21
0.291369
31
0.0
0
LINE
8
TOP
10
0.536512
20
0.291369
30
0.0
11
0.541341
21
0.310336
31
0.0
0
LINE
8
TOP
10
0.541341
20
0.310336
30
0.0
11
0.544258
21
0.329689
31
0.0
0
LINE
8
TOP
10
0.544258
20
0.329689
30
0.0
11
0.545234
21
0.349236
31
0.0
0
ENDSEC
0
EOF
