0
SECTION
2
HEADER
9
$ACADVER
1
AC1009
0
ENDSEC
0
SECTION
2
TABLES
0
TABLE
2
LTYPE
70
3
0
LTYPE
2
CONTINUOUS
70
0
3
Solid line
72
65
73
0
40
0.0
0
LTYPE
2
HIDDEN
70
0
3
__ __ __ __ __
72
65
73
2
40
0.037500
49
0.025013
49
-0.012488
0
LTYPE
2
CENTER
70
0
3
___ _ ___ _ ___
72
65
73
4
40
0.087488
49
0.049988
49
-0.012488
49
0.012488
49
-0.012488
0
ENDTAB
0
TABLE
2
LAYER
70
6
0
LAYER
2
0
70
0
62
7
6
CONTINUOUS
0
LAYER
2
FRONT
70
0
62
7
6
CONTINUOUS
0
LAYER
2
FRONT_HID
70
0
62
7
6
HIDDEN
0
LAYER
2
LEFT
70
0
62
7
6
CONTINUOUS
0
LAYER
2
LEFT_HID
70
0
62
7
6
HIDDEN
0
LAYER
2
TOP
70
0
62
7
6
CONTINUOUS
0
ENDTAB
0
ENDSEC
0
SECTION
2
ENTITIES
0
LINE
8
FRONT
10
0.000000
20
0.900000
30
0.0
11
0.000000
21
1.000000
31
0.0
0
LINE
8
FRONT
10
0.500000
20
0.900000
30
0.0
11
0.500000
21
1.000000
31
0.0
0
LINE
8
FRONT
10
0.500000
20
0.900000
30
0.0
11
0.000000
21
0.900000
31
0.0
0
LINE
8
FRONT
10
0.500000
20
1.000000
30
0.0
11
0.000000
21
1.000000
31
0.0
0
LINE
8
FRONT
10
0.400000
20
1.000000
30
0.0
11
0.400000
21
1.650000
31
0.0
0
LINE
8
FRONT
10
0.400000
20
1.650000
30
0.0
11
0.100000
21
1.650000
31
0.0
0
LINE
8
FRONT
10
0.100000
20
1.650000
30
0.0
11
0.100000
21
1.000000
31
0.0
0
LINE
8
FRONT_HID
6
HIDDEN
10
0.400000
20
0.900000
30
0.0
11
0.390476
21
0.900000
31
0.0
0
LINE
8
FRONT_HID
6
HIDDEN
10
0.390476
20
0.900000
30
0.0
11
0.380952
21
0.900000
31
0.0
0
LINE
8
FRONT_HID
6
HIDDEN
10
0.380952
20
0.900000
30
0.0
11
0.371429
21
0.900000
31
0.0
0
LINE
8
FRONT_HID
6
HIDDEN
10
0.371429
20
0.900000
30
0.0
11
0.361905
21
0.900000
31
0.0
0
LINE
8
FRONT_HID
6
HIDDEN
10
0.361905
20
0.900000
30
0.0
11
0.352381
21
0.900000
31
0.0
0
LINE
8
FRONT_HID
6
HIDDEN
10
0.352381
20
0.900000
30
0.0
11
0.342857
21
0.900000
31
0.0
0
LINE
8
FRONT_HID
6
HIDDEN
10
0.342857
20
0.900000
30
0.0
11
0.333333
21
0.900000
31
0.0
0
LINE
8
FRONT_HID
6
HIDDEN
10
0.333333
20
0.900000
30
0.0
11
0.323810
21
0.900000
31
0.0
0
LINE
8
FRONT_HID
6
HIDDEN
10
0.323810
20
0.900000
30
0.0
11
0.314286
21
0.900000
31
0.0
0
LINE
8
FRONT_HID
6
HIDDEN
10
0.314286
20
0.900000
30
0.0
11
0.304762
21
0.900000
31
0.0
0
LINE
8
FRONT_HID
6
HIDDEN
10
0.304762
20
0.900000
30
0.0
11
0.295238
21
0.900000
31
0.0
0
LINE
8
FRONT_HID
6
HIDDEN
10
0.295238
20
0.900000
30
0.0
11
0.285714
21
0.900000
31
0.0
0
LINE
8
FRONT_HID
6
HIDDEN
10
0.285714
20
0.900000
30
0.0
11
0.276190
21
0.900000
31
0.0
0
LINE
8
FRONT_HID
6
HIDDEN
10
0.276190
20
0.900000
30
0.0
11
0.266667
21
0.900000
31
0.0
0
LINE
8
FRONT_HID
6
HIDDEN
10
0.266667
20
0.900000
30
0.0
11
0.257143
21
0.900000
31
0.0
0
LINE
8
FRONT_HID
6
HIDDEN
10
0.257143
20
0.900000
30
0.0
11
0.247619
21
0.900000
31
0.0
0
LINE
8
FRONT_HID
6
HIDDEN
10
0.247619
20
0.900000
30
0.0
11
0.238095
21
0.900000
31
0.0
0
LINE
8
FRONT_HID
6
HIDDEN
10
0.238095
20
0.900000
30
0.0
11
0.228571
21
0.900000
31
0.0
0
LINE
8
FRONT_HID
6
HIDDEN
10
0.228571
20
0.900000
30
0.0
11
0.219048
21
0.900000
31
0.0
0
LINE
8
FRONT_HID
6
HIDDEN
10
0.219048
20
0.900000
30
0.0
11
0.209524
21
0.900000
31
0.0
0
LINE
8
FRONT_HID
6
HIDDEN
10
0.209524
20
0.900000
30
0.0
11
0.200000
21
0.900000
31
0.0
0
LINE
8
FRONT_HID
6
HIDDEN
10
0.200000
20
0.900000
30
0.0
11
0.190476
21
0.900000
31
0.0
0
LINE
8
FRONT_HID
6
HIDDEN
10
0.190476
20
0.900000
30
0.0
11
0.180952
21
0.900000
31
0.0
0
LINE
8
FRONT_HID
6
HIDDEN
10
0.180952
20
0.900000
30
0.0
11
0.171429
21
0.900000
31
0.0
0
LINE
8
FRONT_HID
6
HIDDEN
10
0.171429
20
0.900000
30
0.0
11
0.161905
21
0.900000
31
0.0
0
LINE
8
FRONT_HID
6
HIDDEN
10
0.161905
20
0.900000
30
0.0
11
0.152381
21
0.900000
31
0.0
0
LINE
8
FRONT_HID
6
HIDDEN
10
0.152381
20
0.900000
30
0.0
11
0.142857
21
0.900000
31
0.0
0
LINE
8
FRONT_HID
6
HIDDEN
10
0.142857
20
0.900000
30
0.0
11
0.133333
21
0.900000
31
0.0
0
LINE
8
FRONT_HID
6
HIDDEN
10
0.133333
20
0.900000
30
0.0
11
0.123810
21
0.900000
31
0.0
0
LINE
8
FRONT_HID
6
HIDDEN
10
0.123810
20
0.900000
30
0.0
11
0.114286
21
0.900000
31
0.0
0
LINE
8
FRONT_HID
6
HIDDEN
10
0.114286
20
0.900000
30
0.0
11
0.104762
21
0.900000
31
0.0
0
LINE
8
FRONT_HID
6
HIDDEN
10
0.104762
20
0.900000
30
0.0
11
0.114286
21
0.900000
31
0.0
0
LINE
8
FRONT_HID
6
HIDDEN
10
0.114286
20
0.900000
30
0.0
11
0.123810
21
0.900000
31
0.0
0
LINE
8
FRONT_HID
6
HIDDEN
10
0.123810
20
0.900000
30
0.0
11
0.133333
21
0.900000
31
0.0
0
LINE
8
FRONT_HID
6
HIDDEN
10
0.133333
20
0.900000
30
0.0
11
0.142857
21
0.900000
31
0.0
0
LINE
8
FRONT_HID
6
HIDDEN
10
0.142857
20
0.900000
30
0.0
11
0.152381
21
0.900000
31
0.0
0
LINE
8
FRONT_HID
6
HIDDEN
10
0.152381
20
0.900000
30
0.0
11
0.161905
21
0.900000
31
0.0
0
LINE
8
FRONT_HID
6
HIDDEN
10
0.161905
20
0.900000
30
0.0
11
0.171429
21
0.900000
31
0.0
0
LINE
8
FRONT_HID
6
HIDDEN
10
0.171429
20
0.900000
30
0.0
11
0.180952
21
0.900000
31
0.0
0
LINE
8
FRONT_HID
6
HIDDEN
10
0.180952
20
0.900000
30
0.0
11
0.190476
21
0.900000
31
0.0
0
LINE
8
FRONT_HID
6
HIDDEN
10
0.190476
20
0.900000
30
0.0
11
0.200000
21
0.900000
31
0.0
0
LINE
8
FRONT_HID
6
HIDDEN
10
0.200000
20
0.900000
30
0.0
11
0.209524
21
0.900000
31
0.0
0
LINE
8
FRONT_HID
6
HIDDEN
10
0.209524
20
0.900000
30
0.0
11
0.219048
21
0.900000
31
0.0
0
LINE
8
FRONT_HID
6
HIDDEN
10
0.219048
20
0.900000
30
0.0
11
0.228571
21
0.900000
31
0.0
0
LINE
8
FRONT_HID
6
HIDDEN
10
0.228571
20
0.900000
30
0.0
11
0.238095
21
0.900000
31
0.0
0
LINE
8
FRONT_HID
6
HIDDEN
10
0.238095
20
0.900000
30
0.0
11
0.247619
21
0.900000
31
0.0
0
LINE
8
FRONT_HID
6
HIDDEN
10
0.247619
20
0.900000
30
0.0
11
0.257143
21
0.900000
31
0.0
0
LINE
8
FRONT_HID
6
HIDDEN
10
0.257143
20
0.900000
30
0.0
11
0.266667
21
0.900000
31
0.0
0
LINE
8
FRONT_HID
6
HIDDEN
10
0.266667
20
0.900000
30
0.0
11
0.276190
21
0.900000
31
0.0
0
LINE
8
FRONT_HID
6
HIDDEN
10
0.276190
20
0.900000
30
0.0
11
0.285714
21
0.900000
31
0.0
0
LINE
8
FRONT_HID
6
HIDDEN
10
0.285714
20
0.900000
30
0.0
11
0.295238
21
0.900000
31
0.0
0
LINE
8
FRONT_HID
6
HIDDEN
10
0.295238
20
0.900000
30
0.0
11
0.304762
21
0.900000
31
0.0
0
LINE
8
FRONT_HID
6
HIDDEN
10
0.304762
20
0.900000
30
0.0
11
0.314286
21
0.900000
31
0.0
0
LINE
8
FRONT_HID
6
HIDDEN
10
0.314286
20
0.900000
30
0.0
11
0.323810
21
0.900000
31
0.0
0
LINE
8
FRONT_HID
6
HIDDEN
10
0.323810
20
0.900000
30
0.0
11
0.333333
21
0.900000
31
0.0
0
LINE
8
FRONT_HID
6
HIDDEN
10
0.333333
20
0.900000
30
0.0
11
0.342857
21
0.900000
31
0.0
0
LINE
8
FRONT_HID
6
HIDDEN
10
0.342857
20
0.900000
30
0.0
11
0.352381
21
0.900000
31
0.0
0
LINE
8
FRONT_HID
6
HIDDEN
10
0.352381
20
0.900000
30
0.0
11
0.361905
21
0.900000
31
0.0
0
LINE
8
FRONT_HID
6
HIDDEN
10
0.361905
20
0.900000
30
0.0
11
0.371429
21
0.900000
31
0.0
0
LINE
8
FRONT_HID
6
HIDDEN
10
0.371429
20
0.900000
30
0.0
11
0.380952
21
0.900000
31
0.0
0
LINE
8
FRONT_HID
6
HIDDEN
10
0.380952
20
0.900000
30
0.0
11
0.390476
21
0.900000
31
0.0
0
LINE
8
FRONT_HID
6
HIDDEN
10
0.390476
20
0.900000
30
0.0
11
0.400000
21
0.900000
31
0.0
0
LINE
8
FRONT_HID
6
HIDDEN
10
0.330000
20
0.900000
30
0.0
11
0.170000
21
0.900000
31
0.0
0
LINE
8
FRONT_HID
6
HIDDEN
10
0.170000
20
0.900000
30
0.0
11
0.330000
21
0.900000
31
0.0
0
LINE
8
FRONT_HID
6
HIDDEN
10
0.400000
20
1.000000
30
0.0
11
0.100000
21
1.000000
31
0.0
0
LINE
8
FRONT_HID
6
HIDDEN
10
0.100000
20
1.000000
30
0.0
11
0.400000
21
1.000000
31
0.0
0
LINE
8
FRONT_HID
6
HIDDEN
10
0.330000
20
1.000000
30
0.0
11
0.170000
21
1.000000
31
0.0
0
LINE
8
FRONT_HID
6
HIDDEN
10
0.170000
20
1.000000
30
0.0
11
0.330000
21
1.000000
31
0.0
0
LINE
8
FRONT_HID
6
HIDDEN
10
0.330000
20
0.900000
30
0.0
11
0.330000
21
1.000000
31
0.0
0
LINE
8
FRONT_HID
6
HIDDEN
10
0.170000
20
1.000000
30
0.0
11
0.170000
21
0.900000
31
0.0
0
LINE
8
LEFT
10
1.400000
20
0.900000
30
0.0
11
1.400000
21
1.000000
31
0.0
0
LINE
8
LEFT
10
0.650000
20
0.900000
30
0.0
11
0.650000
21
1.000000
31
0.0
0
LINE
8
LEFT
10
0.650000
20
1.000000
30
0.0
11
1.400000
21
1.000000
31
0.0
0
LINE
8
LEFT
10
0.650000
20
0.900000
30
0.0
11
1.400000
21
0.900000
31
0.0
0
LINE
8
LEFT
10
1.050000
20
1.650000
30
0.0
11
1.350000
21
1.650000
31
0.0
0
LINE
8
LEFT
10
1.050000
20
1.650000
30
0.0
11
1.050000
21
1.000000
31
0.0
0
LINE
8
LEFT
10
1.350000
20
1.650000
30
0.0
11
1.350000
21
1.000000
31
0.0
0
LINE
8
LEFT_HID
6
HIDDEN
10
1.200000
20
0.900000
30
0.0
11
1.190715
21
0.900000
31
0.0
0
LINE
8
LEFT_HID
6
HIDDEN
10
1.190715
20
0.900000
30
0.0
11
1.181430
21
0.900000
31
0.0
0
LINE
8
LEFT_HID
6
HIDDEN
10
1.181430
20
0.900000
30
0.0
11
1.172145
21
0.900000
31
0.0
0
LINE
8
LEFT_HID
6
HIDDEN
10
1.172145
20
0.900000
30
0.0
11
1.162860
21
0.900000
31
0.0
0
LINE
8
LEFT_HID
6
HIDDEN
10
1.162860
20
0.900000
30
0.0
11
1.153575
21
0.900000
31
0.0
0
LINE
8
LEFT_HID
6
HIDDEN
10
1.153575
20
0.900000
30
0.0
11
1.144290
21
0.900000
31
0.0
0
LINE
8
LEFT_HID
6
HIDDEN
10
1.144290
20
0.900000
30
0.0
11
1.135005
21
0.900000
31
0.0
0
LINE
8
LEFT_HID
6
HIDDEN
10
1.135005
20
0.900000
30
0.0
11
1.125720
21
0.900000
31
0.0
0
LINE
8
LEFT_HID
6
HIDDEN
10
1.125720
20
0.900000
30
0.0
11
1.116435
21
0.900000
31
0.0
0
LINE
8
LEFT_HID
6
HIDDEN
10
1.116435
20
0.900000
30
0.0
11
1.107150
21
0.900000
31
0.0
0
LINE
8
LEFT_HID
6
HIDDEN
10
1.107150
20
0.900000
30
0.0
11
1.097865
21
0.900000
31
0.0
0
LINE
8
LEFT_HID
6
HIDDEN
10
1.097865
20
0.900000
30
0.0
11
1.088580
21
0.900000
31
0.0
0
LINE
8
LEFT_HID
6
HIDDEN
10
1.088580
20
0.900000
30
0.0
11
1.079295
21
0.900000
31
0.0
0
LINE
8
LEFT_HID
6
HIDDEN
10
1.079295
20
0.900000
30
0.0
11
1.070010
21
0.900000
31
0.0
0
LINE
8
LEFT_HID
6
HIDDEN
10
1.070010
20
0.900000
30
0.0
11
1.060725
21
0.900000
31
0.0
0
LINE
8
LEFT_HID
6
HIDDEN
10
1.060725
20
0.900000
30
0.0
11
1.056082
21
0.900000
31
0.0
0
LINE
8
LEFT_HID
6
HIDDEN
10
1.056082
20
0.900000
30
0.0
11
1.065367
21
0.900000
31
0.0
0
LINE
8
LEFT_HID
6
HIDDEN
10
1.065367
20
0.900000
30
0.0
11
1.074652
21
0.900000
31
0.0
0
LINE
8
LEFT_HID
6
HIDDEN
10
1.074652
20
0.900000
30
0.0
11
1.083937
21
0.900000
31
0.0
0
LINE
8
LEFT_HID
6
HIDDEN
10
1.083937
20
0.900000
30
0.0
11
1.093222
21
0.900000
31
0.0
0
LINE
8
LEFT_HID
6
HIDDEN
10
1.093222
20
0.900000
30
0.0
11
1.102507
21
0.900000
31
0.0
0
LINE
8
LEFT_HID
6
HIDDEN
10
1.102507
20
0.900000
30
0.0
11
1.111792
21
0.900000
31
0.0
0
LINE
8
LEFT_HID
6
HIDDEN
10
1.111792
20
0.900000
30
0.0
11
1.121077
21
0.900000
31
0.0
0
LINE
8
LEFT_HID
6
HIDDEN
10
1.121077
20
0.900000
30
0.0
11
1.130362
21
0.900000
31
0.0
0
LINE
8
LEFT_HID
6
HIDDEN
10
1.130362
20
0.900000
30
0.0
11
1.139647
21
0.900000
31
0.0
0
LINE
8
LEFT_HID
6
HIDDEN
10
1.139647
20
0.900000
30
0.0
11
1.148932
21
0.900000
31
0.0
0
LINE
8
LEFT_HID
6
HIDDEN
10
1.148932
20
0.900000
30
0.0
11
1.158217
21
0.900000
31
0.0
0
LINE
8
LEFT_HID
6
HIDDEN
10
1.158217
20
0.900000
30
0.0
11
1.167502
21
0.900000
31
0.0
0
LINE
8
LEFT_HID
6
HIDDEN
10
1.167502
20
0.900000
30
0.0
11
1.176787
21
0.900000
31
0.0
0
LINE
8
LEFT_HID
6
HIDDEN
10
1.176787
20
0.900000
30
0.0
11
1.186072
21
0.900000
31
0.0
0
LINE
8
LEFT_HID
6
HIDDEN
10
1.186072
20
0.900000
30
0.0
11
1.195357
21
0.900000
31
0.0
0
LINE
8
LEFT_HID
6
HIDDEN
10
1.195357
20
0.900000
30
0.0
11
1.204643
21
0.900000
31
0.0
0
LINE
8
LEFT_HID
6
HIDDEN
10
1.204643
20
0.900000
30
0.0
11
1.213928
21
0.900000
31
0.0
0
LINE
8
LEFT_HID
6
HIDDEN
10
1.213928
20
0.900000
30
0.0
11
1.223213
21
0.900000
31
0.0
0
LINE
8
LEFT_HID
6
HIDDEN
10
1.223213
20
0.900000
30
0.0
11
1.232498
21
0.900000
31
0.0
0
LINE
8
LEFT_HID
6
HIDDEN
10
1.232498
20
0.900000
30
0.0
11
1.241783
21
0.900000
31
0.0
0
LINE
8
LEFT_HID
6
HIDDEN
10
1.241783
20
0.900000
30
0.0
11
1.251068
21
0.900000
31
0.0
0
LINE
8
LEFT_HID
6
HIDDEN
10
1.251068
20
0.900000
30
0.0
11
1.260353
21
0.900000
31
0.0
0
LINE
8
LEFT_HID
6
HIDDEN
10
1.260353
20
0.900000
30
0.0
11
1.269638
21
0.900000
31
0.0
0
LINE
8
LEFT_HID
6
HIDDEN
10
1.269638
20
0.900000
30
0.0
11
1.278923
21
0.900000
31
0.0
0
LINE
8
LEFT_HID
6
HIDDEN
10
1.278923
20
0.900000
30
0.0
11
1.288208
21
0.900000
31
0.0
0
LINE
8
LEFT_HID
6
HIDDEN
10
1.288208
20
0.900000
30
0.0
11
1.297493
21
0.900000
31
0.0
0
LINE
8
LEFT_HID
6
HIDDEN
10
1.297493
20
0.900000
30
0.0
11
1.306778
21
0.900000
31
0.0
0
LINE
8
LEFT_HID
6
HIDDEN
10
1.306778
20
0.900000
30
0.0
11
1.316063
21
0.900000
31
0.0
0
LINE
8
LEFT_HID
6
HIDDEN
10
1.316063
20
0.900000
30
0.0
11
1.325348
21
0.900000
31
0.0
0
LINE
8
LEFT_HID
6
HIDDEN
10
1.325348
20
0.900000
30
0.0
11
1.334633
21
0.900000
31
0.0
0
LINE
8
LEFT_HID
6
HIDDEN
10
1.334633
20
0.900000
30
0.0
11
1.343918
21
0.900000
31
0.0
0
LINE
8
LEFT_HID
6
HIDDEN
10
1.343918
20
0.900000
30
0.0
11
1.339275
21
0.900000
31
0.0
0
LINE
8
LEFT_HID
6
HIDDEN
10
1.339275
20
0.900000
30
0.0
11
1.329990
21
0.900000
31
0.0
0
LINE
8
LEFT_HID
6
HIDDEN
10
1.329990
20
0.900000
30
0.0
11
1.320705
21
0.900000
31
0.0
0
LINE
8
LEFT_HID
6
HIDDEN
10
1.320705
20
0.900000
30
0.0
11
1.311420
21
0.900000
31
0.0
0
LINE
8
LEFT_HID
6
HIDDEN
10
1.311420
20
0.900000
30
0.0
11
1.302135
21
0.900000
31
0.0
0
LINE
8
LEFT_HID
6
HIDDEN
10
1.302135
20
0.900000
30
0.0
11
1.292850
21
0.900000
31
0.0
0
LINE
8
LEFT_HID
6
HIDDEN
10
1.292850
20
0.900000
30
0.0
11
1.283565
21
0.900000
31
0.0
0
LINE
8
LEFT_HID
6
HIDDEN
10
1.283565
20
0.900000
30
0.0
11
1.274280
21
0.900000
31
0.0
0
LINE
8
LEFT_HID
6
HIDDEN
10
1.274280
20
0.900000
30
0.0
11
1.264995
21
0.900000
31
0.0
0
LINE
8
LEFT_HID
6
HIDDEN
10
1.264995
20
0.900000
30
0.0
11
1.255710
21
0.900000
31
0.0
0
LINE
8
LEFT_HID
6
HIDDEN
10
1.255710
20
0.900000
30
0.0
11
1.246425
21
0.900000
31
0.0
0
LINE
8
LEFT_HID
6
HIDDEN
10
1.246425
20
0.900000
30
0.0
11
1.237140
21
0.900000
31
0.0
0
LINE
8
LEFT_HID
6
HIDDEN
10
1.237140
20
0.900000
30
0.0
11
1.227855
21
0.900000
31
0.0
0
LINE
8
LEFT_HID
6
HIDDEN
10
1.227855
20
0.900000
30
0.0
11
1.218570
21
0.900000
31
0.0
0
LINE
8
LEFT_HID
6
HIDDEN
10
1.218570
20
0.900000
30
0.0
11
1.209285
21
0.900000
31
0.0
0
LINE
8
LEFT_HID
6
HIDDEN
10
1.209285
20
0.900000
30
0.0
11
1.200000
21
0.900000
31
0.0
0
LINE
8
LEFT_HID
6
HIDDEN
10
0.800000
20
0.900000
30
0.0
11
0.720000
21
0.900000
31
0.0
0
LINE
8
LEFT_HID
6
HIDDEN
10
0.720000
20
0.900000
30
0.0
11
0.880000
21
0.900000
31
0.0
0
LINE
8
LEFT_HID
6
HIDDEN
10
0.880000
20
0.900000
30
0.0
11
0.800000
21
0.900000
31
0.0
0
LINE
8
LEFT_HID
6
HIDDEN
10
1.200000
20
1.000000
30
0.0
11
1.050000
21
1.000000
31
0.0
0
LINE
8
LEFT_HID
6
HIDDEN
10
1.050000
20
1.000000
30
0.0
11
1.350000
21
1.000000
31
0.0
0
LINE
8
LEFT_HID
6
HIDDEN
10
1.350000
20
1.000000
30
0.0
11
1.200000
21
1.000000
31
0.0
0
LINE
8
LEFT_HID
6
HIDDEN
10
0.800000
20
1.000000
30
0.0
11
0.720000
21
1.000000
31
0.0
0
LINE
8
LEFT_HID
6
HIDDEN
10
0.720000
20
1.000000
30
0.0
11
0.880000
21
1.000000
31
0.0
0
LINE
8
LEFT_HID
6
HIDDEN
10
0.880000
20
1.000000
30
0.0
11
0.800000
21
1.000000
31
0.0
0
LINE
8
LEFT_HID
6
HIDDEN
10
1.200000
20
1.650000
30
0.0
11
1.050000
21
1.650000
31
0.0
0
LINE
8
LEFT_HID
6
HIDDEN
10
1.350000
20
1.650000
30
0.0
11
1.200000
21
1.650000
31
0.0
0
LINE
8
LEFT_HID
6
HIDDEN
10
0.720000
20
1.000000
30
0.0
11
0.720000
21
0.900000
31
0.0
0
LINE
8
LEFT_HID
6
HIDDEN
10
0.880000
20
1.000000
30
0.0
11
0.880000
21
0.900000
31
0.0
0
LINE
8
TOP
10
0.000000
20
0.000000
30
0.0
11
0.500000
21
0.000000
31
0.0
0
LINE
8
TOP
10
0.000000
20
0.750000
30
0.0
11
0.000000
21
0.000000
31
0.0
0
LINE
8
TOP
10
0.500000
20
0.000000
30
0.0
11
0.500000
21
0.750000
31
0.0
0
LINE
8
TOP
10
0.500000
20
0.750000
30
0.0
11
0.000000
21
0.750000
31
0.0
0
LINE
8
TOP
10
0.330000
20
0.600000
30
0.0
11
0.329602
21
0.607965
31
0.0
0
LINE
8
TOP
10
0.329602
20
0.607965
30
0.0
11
0.328414
21
0.615852
31
0.0
0
LINE
8
TOP
10
0.328414
20
0.615852
30
0.0
11
0.326446
21
0.623580
31
0.0
0
LINE
8
TOP
10
0.326446
20
0.623580
30
0.0
11
0.323718
21
0.631075
31
0.0
0
LINE
8
TOP
10
0.323718
20
0.631075
30
0.0
11
0.320258
21
0.638260
31
0.0
0
LINE
8
TOP
10
0.320258
20
0.638260
30
0.0
11
0.316099
21
0.645066
31
0.0
0
LINE
8
TOP
10
0.316099
20
0.645066
30
0.0
11
0.311284
21
0.651423
31
0.0
0
LINE
8
TOP
10
0.311284
20
0.651423
30
0.0
11
0.305859
21
0.657269
31
0.0
0
LINE
8
TOP
10
0.305859
20
0.657269
30
0.0
11
0.299879
21
0.662547
31
0.0
0
LINE
8
TOP
10
0.299879
20
0.662547
30
0.0
11
0.293404
21
0.667202
31
0.0
0
LINE
8
TOP
10
0.293404
20
0.667202
30
0.0
11
0.286497
21
0.671190
31
0.0
0
LINE
8
TOP
10
0.286497
20
0.671190
30
0.0
11
0.279227
21
0.674470
31
0.0
0
LINE
8
TOP
10
0.279227
20
0.674470
30
0.0
11
0.271667
21
0.677010
31
0.0
0
LINE
8
TOP
10
0.271667
20
0.677010
30
0.0
11
0.263892
21
0.678785
31
0.0
0
LINE
8
TOP
10
0.263892
20
0.678785
30
0.0
11
0.255978
21
0.679776
31
0.0
0
LINE
8
TOP
10
0.255978
20
0.679776
30
0.0
11
0.248006
21
0.679975
31
0.0
0
LINE
8
TOP
10
0.248006
20
0.679975
30
0.0
11
0.240053
21
0.679379
31
0.0
0
LINE
8
TOP
10
0.240053
20
0.679379
30
0.0
11
0.232198
21
0.677994
31
0.0
0
LINE
8
TOP
10
0.232198
20
0.677994
30
0.0
11
0.224521
21
0.675834
31
0.0
0
LINE
8
TOP
10
0.224521
20
0.675834
30
0.0
11
0.217097
21
0.672920
31
0.0
0
LINE
8
TOP
10
0.217097
20
0.672920
30
0.0
11
0.210000
21
0.669282
31
0.0
0
LINE
8
TOP
10
0.210000
20
0.669282
30
0.0
11
0.203301
21
0.664955
31
0.0
0
LINE
8
TOP
10
0.203301
20
0.664955
30
0.0
11
0.197065
21
0.659982
31
0.0
0
LINE
8
TOP
10
0.197065
20
0.659982
30
0.0
11
0.191356
21
0.654414
31
0.0
0
LINE
8
TOP
10
0.191356
20
0.654414
30
0.0
11
0.186229
21
0.648304
31
0.0
0
LINE
8
TOP
10
0.186229
20
0.648304
30
0.0
11
0.181737
21
0.641715
31
0.0
0
LINE
8
TOP
10
0.181737
20
0.641715
30
0.0
11
0.177922
21
0.634711
31
0.0
0
LINE
8
TOP
10
0.177922
20
0.634711
30
0.0
11
0.174825
21
0.627362
31
0.0
0
LINE
8
TOP
10
0.174825
20
0.627362
30
0.0
11
0.172474
21
0.619741
31
0.0
0
LINE
8
TOP
10
0.172474
20
0.619741
30
0.0
11
0.170894
21
0.611923
31
0.0
0
LINE
8
TOP
10
0.170894
20
0.611923
30
0.0
11
0.170099
21
0.603988
31
0.0
0
LINE
8
TOP
10
0.170099
20
0.603988
30
0.0
11
0.170099
21
0.596012
31
0.0
0
LINE
8
TOP
10
0.170099
20
0.596012
30
0.0
11
0.170894
21
0.588077
31
0.0
0
LINE
8
TOP
10
0.170894
20
0.588077
30
0.0
11
0.172474
21
0.580259
31
0.0
0
LINE
8
TOP
10
0.172474
20
0.580259
30
0.0
11
0.174825
21
0.572638
31
0.0
0
LINE
8
TOP
10
0.174825
20
0.572638
30
0.0
11
0.177922
21
0.565289
31
0.0
0
LINE
8
TOP
10
0.177922
20
0.565289
30
0.0
11
0.181737
21
0.558285
31
0.0
0
LINE
8
TOP
10
0.181737
20
0.558285
30
0.0
11
0.186229
21
0.551696
31
0.0
0
LINE
8
TOP
10
0.186229
20
0.551696
30
0.0
11
0.191356
21
0.545586
31
0.0
0
LINE
8
TOP
10
0.191356
20
0.545586
30
0.0
11
0.197065
21
0.540018
31
0.0
0
LINE
8
TOP
10
0.197065
20
0.540018
30
0.0
11
0.203301
21
0.535045
31
0.0
0
LINE
8
TOP
10
0.203301
20
0.535045
30
0.0
11
0.210000
21
0.530718
31
0.0
0
LINE
8
TOP
10
0.210000
20
0.530718
30
0.0
11
0.217097
21
0.527080
31
0.0
0
LINE
8
TOP
10
0.217097
20
0.527080
30
0.0
11
0.224521
21
0.524166
31
0.0
0
LINE
8
TOP
10
0.224521
20
0.524166
30
0.0
11
0.232198
21
0.522006
31
0.0
0
LINE
8
TOP
10
0.232198
20
0.522006
30
0.0
11
0.240053
21
0.520621
31
0.0
0
LINE
8
TOP
10
0.240053
20
0.520621
30
0.0
11
0.248006
21
0.520025
31
0.0
0
LINE
8
TOP
10
0.248006
20
0.520025
30
0.0
11
0.255978
21
0.520224
31
0.0
0
LINE
8
TOP
10
0.255978
20
0.520224
30
0.0
11
0.263892
21
0.521215
31
0.0
0
LINE
8
TOP
10
0.263892
20
0.521215
30
0.0
11
0.271667
21
0.522990
31
0.0
0
LINE
8
TOP
10
0.271667
20
0.522990
30
0.0
11
0.279227
21
0.525530
31
0.0
0
LINE
8
TOP
10
0.279227
20
0.525530
30
0.0
11
0.286497
21
0.528810
31
0.0
0
LINE
8
TOP
10
0.286497
20
0.528810
30
0.0
11
0.293404
21
0.532798
31
0.0
0
LINE
8
TOP
10
0.293404
20
0.532798
30
0.0
11
0.299879
21
0.537453
31
0.0
0
LINE
8
TOP
10
0.299879
20
0.537453
30
0.0
11
0.305859
21
0.542731
31
0.0
0
LINE
8
TOP
10
0.305859
20
0.542731
30
0.0
11
0.311284
21
0.548577
31
0.0
0
LINE
8
TOP
10
0.311284
20
0.548577
30
0.0
11
0.316099
21
0.554934
31
0.0
0
LINE
8
TOP
10
0.316099
20
0.554934
30
0.0
11
0.320258
21
0.561740
31
0.0
0
LINE
8
TOP
10
0.320258
20
0.561740
30
0.0
11
0.323718
21
0.568925
31
0.0
0
LINE
8
TOP
10
0.323718
20
0.568925
30
0.0
11
0.326446
21
0.576420
31
0.0
0
LINE
8
TOP
10
0.326446
20
0.576420
30
0.0
11
0.328414
21
0.584148
31
0.0
0
LINE
8
TOP
10
0.328414
20
0.584148
30
0.0
11
0.329602
21
0.592035
31
0.0
0
LINE
8
TOP
10
0.329602
20
0.592035
30
0.0
11
0.330000
21
0.600000
31
0.0
0
LINE
8
TOP
10
0.400000
20
0.200000
30
0.0
11
0.399255
21
0.214935
31
0.0
0
LINE
8
TOP
10
0.399255
20
0.214935
30
0.0
11
0.397026
21
0.229722
31
0.0
0
LINE
8
TOP
10
0.397026
20
0.229722
30
0.0
11
0.393336
21
0.244213
31
0.0
0
LINE
8
TOP
10
0.393336
20
0.244213
30
0.0
11
0.388221
21
0.258265
31
0.0
0
LINE
8
TOP
10
0.388221
20
0.258265
30
0.0
11
0.381733
21
0.271738
31
0.0
0
LINE
8
TOP
10
0.381733
20
0.271738
30
0.0
11
0.373936
21
0.284498
31
0.0
0
LINE
8
TOP
10
0.373936
20
0.284498
30
0.0
11
0.364907
21
0.296418
31
0.0
0
LINE
8
TOP
10
0.364907
20
0.296418
30
0.0
11
0.354736
21
0.307380
31
0.0
0
LINE
8
TOP
10
0.354736
20
0.307380
30
0.0
11
0.343523
21
0.317275
31
0.0
0
LINE
8
TOP
10
0.343523
20
0.317275
30
0.0
11
0.331382
21
0.326004
31
0.0
0
LINE
8
TOP
10
0.331382
20
0.326004
30
0.0
11
0.318432
21
0.333481
31
0.0
0
LINE
8
TOP
10
0.318432
20
0.333481
30
0.0
11
0.304801
21
0.339631
31
0.0
0
LINE
8
TOP
10
0.304801
20
0.339631
30
0.0
11
0.290626
21
0.344394
31
0.0
0
LINE
8
TOP
10
0.290626
20
0.344394
30
0.0
11
0.276047
21
0.347721
31
0.0
0
LINE
8
TOP
10
0.276047
20
0.347721
30
0.0
11
0.261210
21
0.349581
31
0.0
0
LINE
8
TOP
10
0.261210
20
0.349581
30
0.0
11
0.246260
21
0.349953
31
0.0
0
LINE
8
TOP
10
0.246260
20
0.349953
30
0.0
11
0.231348
21
0.348836
31
0.0
0
LINE
8
TOP
10
0.231348
20
0.348836
30
0.0
11
0.216622
21
0.346239
31
0.0
0
LINE
8
TOP
10
0.216622
20
0.346239
30
0.0
11
0.202227
21
0.342189
31
0.0
0
LINE
8
TOP
10
0.202227
20
0.342189
30
0.0
11
0.188307
21
0.336726
31
0.0
0
LINE
8
TOP
10
0.188307
20
0.336726
30
0.0
11
0.175000
21
0.329904
31
0.0
0
LINE
8
TOP
10
0.175000
20
0.329904
30
0.0
11
0.162438
21
0.321791
31
0.0
0
LINE
8
TOP
10
0.162438
20
0.321791
30
0.0
11
0.150747
21
0.312467
31
0.0
0
LINE
8
TOP
10
0.150747
20
0.312467
30
0.0
11
0.140042
21
0.302026
31
0.0
0
LINE
8
TOP
10
0.140042
20
0.302026
30
0.0
11
0.130430
21
0.290571
31
0.0
0
LINE
8
TOP
10
0.130430
20
0.290571
30
0.0
11
0.122006
21
0.278215
31
0.0
0
LINE
8
TOP
10
0.122006
20
0.278215
30
0.0
11
0.114855
21
0.265083
31
0.0
0
LINE
8
TOP
10
0.114855
20
0.265083
30
0.0
11
0.109046
21
0.251303
31
0.0
0
LINE
8
TOP
10
0.109046
20
0.251303
30
0.0
11
0.104638
21
0.237014
31
0.0
0
LINE
8
TOP
10
0.104638
20
0.237014
30
0.0
11
0.101675
21
0.222356
31
0.0
0
LINE
8
TOP
10
0.101675
20
0.222356
30
0.0
11
0.100186
21
0.207477
31
0.0
0
LINE
8
TOP
10
0.100186
20
0.207477
30
0.0
11
0.100186
21
0.192523
31
0.0
0
LINE
8
TOP
10
0.100186
20
0.192523
30
0.0
11
0.101675
21
0.177644
31
0.0
0
LINE
8
TOP
10
0.101675
20
0.177644
30
0.0
11
0.104638
21
0.162986
31
0.0
0
LINE
8
TOP
10
0.104638
20
0.162986
30
0.0
11
0.109046
21
0.148697
31
0.0
0
LINE
8
TOP
10
0.109046
20
0.148697
30
0.0
11
0.114855
21
0.134917
31
0.0
0
LINE
8
TOP
10
0.114855
20
0.134917
30
0.0
11
0.122006
21
0.121785
31
0.0
0
LINE
8
TOP
10
0.122006
20
0.121785
30
0.0
11
0.130430
21
0.109429
31
0.0
0
LINE
8
TOP
10
0.130430
20
0.109429
30
0.0
11
0.140042
21
0.097974
31
0.0
0
LINE
8
TOP
10
0.140042
20
0.097974
30
0.0
11
0.150747
21
0.087533
31
0.0
0
LINE
8
TOP
10
0.150747
20
0.087533
30
0.0
11
0.162438
21
0.078209
31
0.0
0
LINE
8
TOP
10
0.162438
20
0.078209
30
0.0
11
0.175000
21
0.070096
31
0.0
0
LINE
8
TOP
10
0.175000
20
0.070096
30
0.0
11
0.188307
21
0.063274
31
0.0
0
LINE
8
TOP
10
0.188307
20
0.063274
30
0.0
11
0.202227
21
0.057811
31
0.0
0
LINE
8
TOP
10
0.202227
20
0.057811
30
0.0
11
0.216622
21
0.053761
31
0.0
0
LINE
8
TOP
10
0.216622
20
0.053761
30
0.0
11
0.231348
21
0.051164
31
0.0
0
LINE
8
TOP
10
0.231348
20
0.051164
30
0.0
11
0.246260
21
0.050047
31
0.0
0
LINE
8
TOP
10
0.246260
20
0.050047
30
0.0
11
0.261210
21
0.050419
31
0.0
0
LINE
8
TOP
10
0.261210
20
0.050419
30
0.0
11
0.276047
21
0.052279
31
0.0
0
LINE
8
TOP
10
0.276047
20
0.052279
30
0.0
11
0.290626
21
0.055606
31
0.0
0
LINE
8
TOP
10
0.290626
20
0.055606
30
0.0
11
0.304801
21
0.060369
31
0.0
0
LINE
8
TOP
10
0.304801
20
0.060369
30
0.0
11
0.318432
21
0.066519
31
0.0
0
LINE
8
TOP
10
0.318432
20
0.066519
30
0.0
11
0.331382
21
0.073996
31
0.0
0
LINE
8
TOP
10
0.331382
20
0.073996
30
0.0
11
0.343523
21
0.082725
31
0.0
0
LINE
8
TOP
10
0.343523
20
0.082725
30
0.0
11
0.354736
21
0.092620
31
0.0
0
LINE
8
TOP
10
0.354736
20
0.092620
30
0.0
11
0.364907
21
0.103582
31
0.0
0
LINE
8
TOP
10
0.364907
20
0.103582
30
0.0
11
0.373936
21
0.115502
31
0.0
0
LINE
8
TOP
10
0.373936
20
0.115502
30
0.0
11
0.381733
21
0.128262
31
0.0
0
LINE
8
TOP
10
0.381733
20
0.128262
30
0.0
11
0.388221
21
0.141735
31
0.0
0
LINE
8
TOP
10
0.388221
20
0.141735
30
0.0
11
0.393336
21
0.155787
31
0.0
0
LINE
8
TOP
10
0.393336
20
0.155787
30
0.0
11
0.397026
21
0.170278
31
0.0
0
LINE
8
TOP
10
0.397026
20
0.170278
30
0.0
11
0.399255
21
0.185065
31
0.0
0
LINE
8
TOP
10
0.399255
20
0.185065
30
0.0
11
0.400000
21
0.200000
31
0.0
0
ENDSEC
0
EOF
