0
SECTION
2
HEADER
9
$ACADVER
1
AC1009
0
ENDSEC
0
SECTION
2
TABLES
0
TABLE
2
LTYPE
70
3
0
LTYPE
2
CONTINUOUS
70
0
3
Solid line
72
65
73
0
40
0.0
0
LTYPE
2
HIDDEN
70
0
3
__ __ __ __ __
72
65
73
2
40
0.042614
49
0.028423
49
-0.014190
0
LTYPE
2
CENTER
70
0
3
___ _ ___ _ ___
72
65
73
4
40
0.099418
49
0.056804
49
-0.014190
49
0.014190
49
-0.014190
0
ENDTAB
0
TABLE
2
LAYER
70
6
0
LAYER
2
0
70
0
62
7
6
CONTINUOUS
0
LAYER
2
FRONT
70
0
62
7
6
CONTINUOUS
0
LAYER
2
FRONT_HID
70
0
62
7
6
HIDDEN
0
LAYER
2
LEFT
70
0
62
7
6
CONTINUOUS
0
LAYER
2
LEFT_HID
70
0
62
7
6
HIDDEN
0
LAYER
2
TOP
70
0
62
7
6
CONTINUOUS
0
ENDTAB
0
ENDSEC
0
SECTION
2
ENTITIES
0
LINE
8
FRONT
10
0.852273
20
1.022462
30
0.0
11
0.000000
21
1.022462
31
0.0
0
LINE
8
FRONT
10
0.852273
20
1.022462
30
0.0
11
0.852273
21
1.772462
31
0.0
0
LINE
8
FRONT
10
0.852273
20
1.772462
30
0.0
11
0.000000
21
1.772462
31
0.0
0
LINE
8
FRONT
10
0.000000
20
1.772462
30
0.0
11
0.000000
21
1.022462
31
0.0
0
LINE
8
FRONT_HID
6
HIDDEN
10
0.826705
20
1.772462
30
0.0
11
0.025568
21
1.772462
31
0.0
0
LINE
8
FRONT_HID
6
HIDDEN
10
0.025568
20
1.772462
30
0.0
11
0.826705
21
1.772462
31
0.0
0
LINE
8
FRONT_HID
6
HIDDEN
10
0.826705
20
1.772462
30
0.0
11
0.826705
21
1.073599
31
0.0
0
LINE
8
FRONT_HID
6
HIDDEN
10
0.826705
20
1.073599
30
0.0
11
0.025568
21
1.073599
31
0.0
0
LINE
8
FRONT_HID
6
HIDDEN
10
0.025568
20
1.073599
30
0.0
11
0.826705
21
1.073599
31
0.0
0
LINE
8
FRONT_HID
6
HIDDEN
10
0.025568
20
1.073599
30
0.0
11
0.025568
21
1.772462
31
0.0
0
LINE
8
LEFT
10
1.022727
20
1.022462
30
0.0
11
1.875000
21
1.022462
31
0.0
0
LINE
8
LEFT
10
1.022727
20
1.772462
30
0.0
11
1.875000
21
1.772462
31
0.0
0
LINE
8
LEFT
10
1.022727
20
1.772462
30
0.0
11
1.022727
21
1.022462
31
0.0
0
LINE
8
LEFT
10
1.875000
20
1.772462
30
0.0
11
1.875000
21
1.022462
31
0.0
0
LINE
8
LEFT_HID
6
HIDDEN
10
1.448864
20
1.022462
30
0.0
11
1.022727
21
1.022462
31
0.0
0
LINE
8
LEFT_HID
6
HIDDEN
10
1.875000
20
1.022462
30
0.0
11
1.448864
21
1.022462
31
0.0
0
LINE
8
LEFT_HID
6
HIDDEN
10
1.448864
20
1.772462
30
0.0
11
1.022727
21
1.772462
31
0.0
0
LINE
8
LEFT_HID
6
HIDDEN
10
1.875000
20
1.772462
30
0.0
11
1.448864
21
1.772462
31
0.0
0
LINE
8
LEFT_HID
6
HIDDEN
10
1.448864
20
1.772462
30
0.0
11
1.048295
21
1.772462
31
0.0
0
LINE
8
LEFT_HID
6
HIDDEN
10
1.048295
20
1.772462
30
0.0
11
1.849432
21
1.772462
31
0.0
0
LINE
8
LEFT_HID
6
HIDDEN
10
1.849432
20
1.772462
30
0.0
11
1.448864
21
1.772462
31
0.0
0
LINE
8
LEFT_HID
6
HIDDEN
10
1.448864
20
1.073599
30
0.0
11
1.048295
21
1.073599
31
0.0
0
LINE
8
LEFT_HID
6
HIDDEN
10
1.048295
20
1.073599
30
0.0
11
1.849432
21
1.073599
31
0.0
0
LINE
8
LEFT_HID
6
HIDDEN
10
1.849432
20
1.073599
30
0.0
11
1.448864
21
1.073599
31
0.0
0
LINE
8
LEFT_HID
6
HIDDEN
10
1.849432
20
1.073599
30
0.0
11
1.849432
21
1.772462
31
0.0
0
LINE
8
LEFT_HID
6
HIDDEN
10
1.048295
20
1.073599
30
0.0
11
1.048295
21
1.772462
31
0.0
0
LINE
8
TOP
10
0.851743
20
0.426004
30
0.0
11
0.849625
21
0.468433
31
0.0
0
LINE
8
TOP
10
0.849625
20
0.468433
30
0.0
11
0.843294
21
0.510441
31
0.0
0
LINE
8
TOP
10
0.843294
20
0.510441
30
0.0
11
0.832811
21
0.551610
31
0.0
0
LINE
8
TOP
10
0.832811
20
0.551610
30
0.0
11
0.818281
21
0.591530
31
0.0
0
LINE
8
TOP
10
0.818281
20
0.591530
30
0.0
11
0.799849
21
0.629805
31
0.0
0
LINE
8
TOP
10
0.799849
20
0.629805
30
0.0
11
0.777697
21
0.666055
31
0.0
0
LINE
8
TOP
10
0.777697
20
0.666055
30
0.0
11
0.752046
21
0.699919
31
0.0
0
LINE
8
TOP
10
0.752046
20
0.699919
30
0.0
11
0.723151
21
0.731061
31
0.0
0
LINE
8
TOP
10
0.723151
20
0.731061
30
0.0
11
0.691298
21
0.759171
31
0.0
0
LINE
8
TOP
10
0.691298
20
0.759171
30
0.0
11
0.656805
21
0.783970
31
0.0
0
LINE
8
TOP
10
0.656805
20
0.783970
30
0.0
11
0.620015
21
0.805211
31
0.0
0
LINE
8
TOP
10
0.620015
20
0.805211
30
0.0
11
0.581292
21
0.822683
31
0.0
0
LINE
8
TOP
10
0.581292
20
0.822683
30
0.0
11
0.541022
21
0.836213
31
0.0
0
LINE
8
TOP
10
0.541022
20
0.836213
30
0.0
11
0.499604
21
0.845666
31
0.0
0
LINE
8
TOP
10
0.499604
20
0.845666
30
0.0
11
0.457452
21
0.850949
31
0.0
0
LINE
8
TOP
10
0.457452
20
0.850949
30
0.0
11
0.414983
21
0.852008
31
0.0
0
LINE
8
TOP
10
0.414983
20
0.852008
30
0.0
11
0.372619
21
0.848833
31
0.0
0
LINE
8
TOP
10
0.372619
20
0.848833
30
0.0
11
0.330782
21
0.841456
31
0.0
0
LINE
8
TOP
10
0.330782
20
0.841456
30
0.0
11
0.289888
21
0.829950
31
0.0
0
LINE
8
TOP
10
0.289888
20
0.829950
30
0.0
11
0.250342
21
0.814430
31
0.0
0
LINE
8
TOP
10
0.250342
20
0.814430
30
0.0
11
0.212538
21
0.795049
31
0.0
0
LINE
8
TOP
10
0.212538
20
0.795049
30
0.0
11
0.176852
21
0.772000
31
0.0
0
LINE
8
TOP
10
0.176852
20
0.772000
30
0.0
11
0.143638
21
0.745513
31
0.0
0
LINE
8
TOP
10
0.143638
20
0.745513
30
0.0
11
0.113227
21
0.715850
31
0.0
0
LINE
8
TOP
10
0.113227
20
0.715850
30
0.0
11
0.085919
21
0.683307
31
0.0
0
LINE
8
TOP
10
0.085919
20
0.683307
30
0.0
11
0.061988
21
0.648206
31
0.0
0
LINE
8
TOP
10
0.061988
20
0.648206
30
0.0
11
0.041671
21
0.610898
31
0.0
0
LINE
8
TOP
10
0.041671
20
0.610898
30
0.0
11
0.025169
21
0.571751
31
0.0
0
LINE
8
TOP
10
0.025169
20
0.571751
30
0.0
11
0.012648
21
0.531156
31
0.0
0
LINE
8
TOP
10
0.012648
20
0.531156
30
0.0
11
0.004230
21
0.489516
31
0.0
0
LINE
8
TOP
10
0.004230
20
0.489516
30
0.0
11
0.000000
21
0.447245
31
0.0
0
LINE
8
TOP
10
0.000000
20
0.447245
30
0.0
11
0.000000
21
0.404763
31
0.0
0
LINE
8
TOP
10
0.000000
20
0.404763
30
0.0
11
0.004230
21
0.362492
31
0.0
0
LINE
8
TOP
10
0.004230
20
0.362492
30
0.0
11
0.012648
21
0.320852
31
0.0
0
LINE
8
TOP
10
0.012648
20
0.320852
30
0.0
11
0.025169
21
0.280257
31
0.0
0
LINE
8
TOP
10
0.025169
20
0.280257
30
0.0
11
0.041671
21
0.241110
31
0.0
0
LINE
8
TOP
10
0.041671
20
0.241110
30
0.0
11
0.061988
21
0.203801
31
0.0
0
LINE
8
TOP
10
0.061988
20
0.203801
30
0.0
11
0.085919
21
0.168701
31
0.0
0
LINE
8
TOP
10
0.085919
20
0.168701
30
0.0
11
0.113227
21
0.136158
31
0.0
0
LINE
8
TOP
10
0.113227
20
0.136158
30
0.0
11
0.143638
21
0.106495
31
0.0
0
LINE
8
TOP
10
0.143638
20
0.106495
30
0.0
11
0.176852
21
0.080008
31
0.0
0
LINE
8
TOP
10
0.176852
20
0.080008
30
0.0
11
0.212538
21
0.056959
31
0.0
0
LINE
8
TOP
10
0.212538
20
0.056959
30
0.0
11
0.250342
21
0.037578
31
0.0
0
LINE
8
TOP
10
0.250342
20
0.037578
30
0.0
11
0.289888
21
0.022058
31
0.0
0
LINE
8
TOP
10
0.289888
20
0.022058
30
0.0
11
0.330782
21
0.010552
31
0.0
0
LINE
8
TOP
10
0.330782
20
0.010552
30
0.0
11
0.372619
21
0.003175
31
0.0
0
LINE
8
TOP
10
0.372619
20
0.003175
30
0.0
11
0.414983
21
0.000000
31
0.0
0
LINE
8
TOP
10
0.414983
20
0.000000
30
0.0
11
0.457452
21
0.001059
31
0.0
0
LINE
8
TOP
10
0.457452
20
0.001059
30
0.0
11
0.499604
21
0.006342
31
0.0
0
LINE
8
TOP
10
0.499604
20
0.006342
30
0.0
11
0.541022
21
0.015795
31
0.0
0
LINE
8
TOP
10
0.541022
20
0.015795
30
0.0
11
0.581292
21
0.029325
31
0.0
0
LINE
8
TOP
10
0.581292
20
0.029325
30
0.0
11
0.620015
21
0.046797
31
0.0
0
LINE
8
TOP
10
0.620015
20
0.046797
30
0.0
11
0.656805
21
0.068038
31
0.0
0
LINE
8
TOP
10
0.656805
20
0.068038
30
0.0
11
0.691298
21
0.092837
31
0.0
0
LINE
8
TOP
10
0.691298
20
0.092837
30
0.0
11
0.723151
21
0.120947
31
0.0
0
LINE
8
TOP
10
0.723151
20
0.120947
30
0.0
11
0.752046
21
0.152089
31
0.0
0
LINE
8
TOP
10
0.752046
20
0.152089
30
0.0
11
0.777697
21
0.185953
31
0.0
0
LINE
8
TOP
10
0.777697
20
0.185953
30
0.0
11
0.799849
21
0.222203
31
0.0
0
LINE
8
TOP
10
0.799849
20
0.222203
30
0.0
11
0.818281
21
0.260478
31
0.0
0
LINE
8
TOP
10
0.818281
20
0.260478
30
0.0
11
0.832811
21
0.300398
31
0.0
0
LINE
8
TOP
10
0.832811
20
0.300398
30
0.0
11
0.843294
21
0.341567
31
0.0
0
LINE
8
TOP
10
0.843294
20
0.341567
30
0.0
11
0.849625
21
0.383574
31
0.0
0
LINE
8
TOP
10
0.849625
20
0.383574
30
0.0
11
0.851743
21
0.426004
31
0.0
0
LINE
8
TOP
10
0.826175
20
0.426004
30
0.0
11
0.824184
21
0.465888
31
0.0
0
LINE
8
TOP
10
0.824184
20
0.465888
30
0.0
11
0.818233
21
0.505375
31
0.0
0
LINE
8
TOP
10
0.818233
20
0.505375
30
0.0
11
0.808379
21
0.544073
31
0.0
0
LINE
8
TOP
10
0.808379
20
0.544073
30
0.0
11
0.794721
21
0.581599
31
0.0
0
LINE
8
TOP
10
0.794721
20
0.581599
30
0.0
11
0.777394
21
0.617577
31
0.0
0
LINE
8
TOP
10
0.777394
20
0.617577
30
0.0
11
0.756572
21
0.651652
31
0.0
0
LINE
8
TOP
10
0.756572
20
0.651652
30
0.0
11
0.732460
21
0.683484
31
0.0
0
LINE
8
TOP
10
0.732460
20
0.683484
30
0.0
11
0.705298
21
0.712757
31
0.0
0
LINE
8
TOP
10
0.705298
20
0.712757
30
0.0
11
0.675357
21
0.739181
31
0.0
0
LINE
8
TOP
10
0.675357
20
0.739181
30
0.0
11
0.642933
21
0.762492
31
0.0
0
LINE
8
TOP
10
0.642933
20
0.762492
30
0.0
11
0.608350
21
0.782458
31
0.0
0
LINE
8
TOP
10
0.608350
20
0.782458
30
0.0
11
0.571951
21
0.798882
31
0.0
0
LINE
8
TOP
10
0.571951
20
0.798882
30
0.0
11
0.534097
21
0.811601
31
0.0
0
LINE
8
TOP
10
0.534097
20
0.811601
30
0.0
11
0.495165
21
0.820487
31
0.0
0
LINE
8
TOP
10
0.495165
20
0.820487
30
0.0
11
0.455541
21
0.825452
31
0.0
0
LINE
8
TOP
10
0.455541
20
0.825452
30
0.0
11
0.415620
21
0.826448
31
0.0
0
LINE
8
TOP
10
0.415620
20
0.826448
30
0.0
11
0.375799
21
0.823463
31
0.0
0
LINE
8
TOP
10
0.375799
20
0.823463
30
0.0
11
0.336472
21
0.816529
31
0.0
0
LINE
8
TOP
10
0.336472
20
0.816529
30
0.0
11
0.298031
21
0.805713
31
0.0
0
LINE
8
TOP
10
0.298031
20
0.805713
30
0.0
11
0.260858
21
0.791124
31
0.0
0
LINE
8
TOP
10
0.260858
20
0.791124
30
0.0
11
0.225323
21
0.772906
31
0.0
0
LINE
8
TOP
10
0.225323
20
0.772906
30
0.0
11
0.191778
21
0.751240
31
0.0
0
LINE
8
TOP
10
0.191778
20
0.751240
30
0.0
11
0.160556
21
0.726342
31
0.0
0
LINE
8
TOP
10
0.160556
20
0.726342
30
0.0
11
0.131969
21
0.698459
31
0.0
0
LINE
8
TOP
10
0.131969
20
0.698459
30
0.0
11
0.106301
21
0.667869
31
0.0
0
LINE
8
TOP
10
0.106301
20
0.667869
30
0.0
11
0.083805
21
0.634874
31
0.0
0
LINE
8
TOP
10
0.083805
20
0.634874
30
0.0
11
0.064707
21
0.599804
31
0.0
0
LINE
8
TOP
10
0.064707
20
0.599804
30
0.0
11
0.049196
21
0.563006
31
0.0
0
LINE
8
TOP
10
0.049196
20
0.563006
30
0.0
11
0.037425
21
0.524847
31
0.0
0
LINE
8
TOP
10
0.037425
20
0.524847
30
0.0
11
0.029512
21
0.485706
31
0.0
0
LINE
8
TOP
10
0.029512
20
0.485706
30
0.0
11
0.025536
21
0.445971
31
0.0
0
LINE
8
TOP
10
0.025536
20
0.445971
30
0.0
11
0.025536
21
0.406037
31
0.0
0
LINE
8
TOP
10
0.025536
20
0.406037
30
0.0
11
0.029512
21
0.366302
31
0.0
0
LINE
8
TOP
10
0.029512
20
0.366302
30
0.0
11
0.037425
21
0.327161
31
0.0
0
LINE
8
TOP
10
0.037425
20
0.327161
30
0.0
11
0.049196
21
0.289002
31
0.0
0
LINE
8
TOP
10
0.049196
20
0.289002
30
0.0
11
0.064707
21
0.252204
31
0.0
0
LINE
8
TOP
10
0.064707
20
0.252204
30
0.0
11
0.083805
21
0.217134
31
0.0
0
LINE
8
TOP
10
0.083805
20
0.217134
30
0.0
11
0.106301
21
0.184139
31
0.0
0
LINE
8
TOP
10
0.106301
20
0.184139
30
0.0
11
0.131969
21
0.153548
31
0.0
0
LINE
8
TOP
10
0.131969
20
0.153548
30
0.0
11
0.160556
21
0.125665
31
0.0
0
LINE
8
TOP
10
0.160556
20
0.125665
30
0.0
11
0.191778
21
0.100767
31
0.0
0
LINE
8
TOP
10
0.191778
20
0.100767
30
0.0
11
0.225323
21
0.079102
31
0.0
0
LINE
8
TOP
10
0.225323
20
0.079102
30
0.0
11
0.260858
21
0.060884
31
0.0
0
LINE
8
TOP
10
0.260858
20
0.060884
30
0.0
11
0.298031
21
0.046294
31
0.0
0
LINE
8
TOP
10
0.298031
20
0.046294
30
0.0
11
0.336472
21
0.035479
31
0.0
0
LINE
8
TOP
10
0.336472
20
0.035479
30
0.0
11
0.375799
21
0.028544
31
0.0
0
LINE
8
TOP
10
0.375799
20
0.028544
30
0.0
11
0.415620
21
0.025560
31
0.0
0
LINE
8
TOP
10
0.415620
20
0.025560
30
0.0
11
0.455541
21
0.026556
31
0.0
0
LINE
8
TOP
10
0.455541
20
0.026556
30
0.0
11
0.495165
21
0.031521
31
0.0
0
LINE
8
TOP
10
0.495165
20
0.031521
30
0.0
11
0.534097
21
0.040407
31
0.0
0
LINE
8
TOP
10
0.534097
20
0.040407
30
0.0
11
0.571951
21
0.053126
31
0.0
0
LINE
8
TOP
10
0.571951
20
0.053126
30
0.0
11
0.608350
21
0.069550
31
0.0
0
LINE
8
TOP
10
0.608350
20
0.069550
30
0.0
11
0.642933
21
0.089516
31
0.0
0
LINE
8
TOP
10
0.642933
20
0.089516
30
0.0
11
0.675357
21
0.112827
31
0.0
0
LINE
8
TOP
10
0.675357
20
0.112827
30
0.0
11
0.705298
21
0.139250
31
0.0
0
LINE
8
TOP
10
0.705298
20
0.139250
30
0.0
11
0.732460
21
0.168524
31
0.0
0
LINE
8
TOP
10
0.732460
20
0.168524
30
0.0
11
0.756572
21
0.200356
31
0.0
0
LINE
8
TOP
10
0.756572
20
0.200356
30
0.0
11
0.777394
21
0.234431
31
0.0
0
LINE
8
TOP
10
0.777394
20
0.234431
30
0.0
11
0.794721
21
0.270409
31
0.0
0
LINE
8
TOP
10
0.794721
20
0.270409
30
0.0
11
0.808379
21
0.307934
31
0.0
0
LINE
8
TOP
10
0.808379
20
0.307934
30
0.0
11
0.818233
21
0.346633
31
0.0
0
LINE
8
TOP
10
0.818233
20
0.346633
30
0.0
11
0.824184
21
0.386120
31
0.0
0
LINE
8
TOP
10
0.824184
20
0.386120
30
0.0
11
0.826175
21
0.426004
31
0.0
0
ENDSEC
0
EOF
