0
SECTION
2
HEADER
9
$ACADVER
1
AC1009
0
ENDSEC
0
SECTION
2
TABLES
0
TABLE
2
LTYPE
70
3
0
LTYPE
2
CONTINUOUS
70
0
3
Solid line
72
65
73
0
40
0.0
0
LTYPE
2
HIDDEN
70
0
3
__ __ __ __ __
72
65
73
2
40
0.066850
49
0.044589
49
-0.022261
0
LTYPE
2
CENTER
70
0
3
___ _ ___ _ ___
72
65
73
4
40
0.155961
49
0.089111
49
-0.022261
49
0.022261
49
-0.022261
0
ENDTAB
0
TABLE
2
LAYER
70
6
0
LAYER
2
0
70
0
62
7
6
CONTINUOUS
0
LAYER
2
FRONT
70
0
62
7
6
CONTINUOUS
0
LAYER
2
FRONT_HID
70
0
62
7
6
HIDDEN
0
LAYER
2
LEFT
70
0
62
7
6
CONTINUOUS
0
LAYER
2
LEFT_HID
70
0
62
7
6
HIDDEN
0
LAYER
2
TOP
70
0
62
7
6
CONTINUOUS
0
ENDTAB
0
ENDSEC
0
SECTION
2
ENTITIES
0
LINE
8
FRONT
10
1.203302
20
1.604403
30
0.0
11
1.203302
21
1.637881
31
0.0
0
LINE
8
FRONT
10
1.203302
20
1.637881
30
0.0
11
0.000000
21
1.637881
31
0.0
0
LINE
8
FRONT
10
0.000000
20
1.604403
30
0.0
11
0.000000
21
1.637881
31
0.0
0
LINE
8
FRONT
10
1.203302
20
1.604403
30
0.0
11
0.000000
21
1.604403
31
0.0
0
LINE
8
FRONT_HID
6
HIDDEN
10
0.965108
20
1.604403
30
0.0
11
0.965108
21
1.637881
31
0.0
0
LINE
8
FRONT_HID
6
HIDDEN
10
0.965108
20
1.637881
30
0.0
11
1.012482
21
1.637881
31
0.0
0
LINE
8
FRONT_HID
6
HIDDEN
10
1.012482
20
1.604403
30
0.0
11
1.012482
21
1.637881
31
0.0
0
LINE
8
FRONT_HID
6
HIDDEN
10
0.965108
20
1.604403
30
0.0
11
1.012482
21
1.604403
31
0.0
0
LINE
8
FRONT_HID
6
HIDDEN
10
1.012482
20
1.604403
30
0.0
11
1.012482
21
1.637881
31
0.0
0
LINE
8
FRONT_HID
6
HIDDEN
10
1.012482
20
1.637881
30
0.0
11
0.965108
21
1.637881
31
0.0
0
LINE
8
FRONT_HID
6
HIDDEN
10
0.965108
20
1.604403
30
0.0
11
0.965108
21
1.637881
31
0.0
0
LINE
8
FRONT_HID
6
HIDDEN
10
1.012482
20
1.604403
30
0.0
11
0.965108
21
1.604403
31
0.0
0
LINE
8
LEFT
10
2.807706
20
1.604403
30
0.0
11
2.807706
21
1.637881
31
0.0
0
LINE
8
LEFT
10
1.470703
20
1.604403
30
0.0
11
1.470703
21
1.637881
31
0.0
0
LINE
8
LEFT
10
1.470703
20
1.637881
30
0.0
11
2.807706
21
1.637881
31
0.0
0
LINE
8
LEFT
10
1.470703
20
1.604403
30
0.0
11
2.807706
21
1.604403
31
0.0
0
LINE
8
LEFT_HID
6
HIDDEN
10
2.517244
20
1.604403
30
0.0
11
2.517244
21
1.637881
31
0.0
0
LINE
8
LEFT_HID
6
HIDDEN
10
2.517244
20
1.604403
30
0.0
11
2.517244
21
1.637881
31
0.0
0
LINE
8
LEFT_HID
6
HIDDEN
10
2.517244
20
1.637881
30
0.0
11
1.780313
21
1.637881
31
0.0
0
LINE
8
LEFT_HID
6
HIDDEN
10
1.780313
20
1.604403
30
0.0
11
1.780313
21
1.637881
31
0.0
0
LINE
8
LEFT_HID
6
HIDDEN
10
2.517244
20
1.604403
30
0.0
11
1.780313
21
1.604403
31
0.0
0
LINE
8
LEFT_HID
6
HIDDEN
10
1.780313
20
1.604403
30
0.0
11
1.780313
21
1.637881
31
0.0
0
LINE
8
LEFT_HID
6
HIDDEN
10
1.780313
20
1.637881
30
0.0
11
2.517244
21
1.637881
31
0.0
0
LINE
8
LEFT_HID
6
HIDDEN
10
1.780313
20
1.604403
30
0.0
11
2.517244
21
1.604403
31
0.0
0
LINE
8
TOP
10
0.000000
20
0.000000
30
0.0
11
1.203302
21
0.000000
31
0.0
0
LINE
8
TOP
10
1.203302
20
0.000000
30
0.0
11
1.203302
21
1.337003
31
0.0
0
LINE
8
TOP
10
1.203302
20
1.337003
30
0.0
11
0.000000
21
1.337003
31
0.0
0
LINE
8
TOP
10
0.000000
20
1.337003
30
0.0
11
0.000000
21
0.000000
31
0.0
0
LINE
8
TOP
10
0.965108
20
0.290462
30
0.0
11
1.012482
21
0.290462
31
0.0
0
LINE
8
TOP
10
1.012482
20
0.290462
30
0.0
11
1.012482
21
1.027392
31
0.0
0
LINE
8
TOP
10
1.012482
20
1.027392
30
0.0
11
0.965108
21
1.027392
31
0.0
0
LINE
8
TOP
10
0.965108
20
1.027392
30
0.0
11
0.965108
21
0.290462
31
0.0
0
ENDSEC
0
EOF
