0
SECTION
2
HEADER
9
$ACADVER
1
AC1009
0
ENDSEC
0
SECTION
2
TABLES
0
TABLE
2
LTYPE
70
3
0
LTYPE
2
CONTINUOUS
70
0
3
Solid line
72
65
73
0
40
0.0
0
LTYPE
2
HIDDEN
70
0
3
__ __ __ __ __
72
65
73
2
40
0.037500
49
0.025013
49
-0.012488
0
LTYPE
2
CENTER
70
0
3
___ _ ___ _ ___
72
65
73
4
40
0.087488
49
0.049988
49
-0.012488
49
0.012488
49
-0.012488
0
ENDTAB
0
TABLE
2
LAYER
70
5
0
LAYER
2
0
70
0
62
7
6
CONTINUOUS
0
LAYER
2
FRONT
70
0
62
7
6
CONTINUOUS
0
LAYER
2
LEFT
70
0
62
7
6
CONTINUOUS
0
LAYER
2
LEFT_HID
70
0
62
7
6
HIDDEN
0
LAYER
2
TOP
70
0
62
7
6
CONTINUOUS
0
ENDTAB
0
ENDSEC
0
SECTION
2
ENTITIES
0
LINE
8
FRONT
10
0.017501
20
0.167495
30
0.0
11
0.000000
21
0.167495
31
0.0
0
LINE
8
FRONT
10
0.017501
20
0.167495
30
0.0
11
0.017501
21
0.917495
31
0.0
0
LINE
8
FRONT
10
0.017501
20
0.917495
30
0.0
11
0.000000
21
0.917495
31
0.0
0
LINE
8
FRONT
10
0.000000
20
0.917495
30
0.0
11
0.000000
21
0.167495
31
0.0
0
LINE
8
LEFT
10
0.167501
20
0.167495
30
0.0
11
0.185002
21
0.167495
31
0.0
0
LINE
8
LEFT
10
0.167501
20
0.917495
30
0.0
11
0.185002
21
0.917495
31
0.0
0
LINE
8
LEFT
10
0.167501
20
0.917495
30
0.0
11
0.167501
21
0.167495
31
0.0
0
LINE
8
LEFT
10
0.185002
20
0.917495
30
0.0
11
0.185002
21
0.167495
31
0.0
0
LINE
8
LEFT_HID
6
HIDDEN
10
0.176251
20
0.167495
30
0.0
11
0.167501
21
0.167495
31
0.0
0
LINE
8
LEFT_HID
6
HIDDEN
10
0.185002
20
0.167495
30
0.0
11
0.176251
21
0.167495
31
0.0
0
LINE
8
LEFT_HID
6
HIDDEN
10
0.176251
20
0.917495
30
0.0
11
0.167501
21
0.917495
31
0.0
0
LINE
8
LEFT_HID
6
HIDDEN
10
0.185002
20
0.917495
30
0.0
11
0.176251
21
0.917495
31
0.0
0
LINE
8
TOP
10
0.017490
20
0.008748
30
0.0
11
0.017447
21
0.009619
31
0.0
0
LINE
8
TOP
10
0.017447
20
0.009619
30
0.0
11
0.017317
21
0.010482
31
0.0
0
LINE
8
TOP
10
0.017317
20
0.010482
30
0.0
11
0.017101
21
0.011327
31
0.0
0
LINE
8
TOP
10
0.017101
20
0.011327
30
0.0
11
0.016803
21
0.012147
31
0.0
0
LINE
8
TOP
10
0.016803
20
0.012147
30
0.0
11
0.016424
21
0.012933
31
0.0
0
LINE
8
TOP
10
0.016424
20
0.012933
30
0.0
11
0.015970
21
0.013677
31
0.0
0
LINE
8
TOP
10
0.015970
20
0.013677
30
0.0
11
0.015443
21
0.014372
31
0.0
0
LINE
8
TOP
10
0.015443
20
0.014372
30
0.0
11
0.014849
21
0.015012
31
0.0
0
LINE
8
TOP
10
0.014849
20
0.015012
30
0.0
11
0.014195
21
0.015589
31
0.0
0
LINE
8
TOP
10
0.014195
20
0.015589
30
0.0
11
0.013487
21
0.016098
31
0.0
0
LINE
8
TOP
10
0.013487
20
0.016098
30
0.0
11
0.012732
21
0.016534
31
0.0
0
LINE
8
TOP
10
0.012732
20
0.016534
30
0.0
11
0.011936
21
0.016893
31
0.0
0
LINE
8
TOP
10
0.011936
20
0.016893
30
0.0
11
0.011110
21
0.017171
31
0.0
0
LINE
8
TOP
10
0.011110
20
0.017171
30
0.0
11
0.010259
21
0.017365
31
0.0
0
LINE
8
TOP
10
0.010259
20
0.017365
30
0.0
11
0.009393
21
0.017474
31
0.0
0
LINE
8
TOP
10
0.009393
20
0.017474
30
0.0
11
0.008521
21
0.017495
31
0.0
0
LINE
8
TOP
10
0.008521
20
0.017495
30
0.0
11
0.007651
21
0.017430
31
0.0
0
LINE
8
TOP
10
0.007651
20
0.017430
30
0.0
11
0.006792
21
0.017279
31
0.0
0
LINE
8
TOP
10
0.006792
20
0.017279
30
0.0
11
0.005953
21
0.017043
31
0.0
0
LINE
8
TOP
10
0.005953
20
0.017043
30
0.0
11
0.005141
21
0.016724
31
0.0
0
LINE
8
TOP
10
0.005141
20
0.016724
30
0.0
11
0.004364
21
0.016326
31
0.0
0
LINE
8
TOP
10
0.004364
20
0.016326
30
0.0
11
0.003632
21
0.015853
31
0.0
0
LINE
8
TOP
10
0.003632
20
0.015853
30
0.0
11
0.002950
21
0.015309
31
0.0
0
LINE
8
TOP
10
0.002950
20
0.015309
30
0.0
11
0.002325
21
0.014700
31
0.0
0
LINE
8
TOP
10
0.002325
20
0.014700
30
0.0
11
0.001764
21
0.014031
31
0.0
0
LINE
8
TOP
10
0.001764
20
0.014031
30
0.0
11
0.001273
21
0.013311
31
0.0
0
LINE
8
TOP
10
0.001273
20
0.013311
30
0.0
11
0.000856
21
0.012544
31
0.0
0
LINE
8
TOP
10
0.000856
20
0.012544
30
0.0
11
0.000517
21
0.011741
31
0.0
0
LINE
8
TOP
10
0.000517
20
0.011741
30
0.0
11
0.000260
21
0.010907
31
0.0
0
LINE
8
TOP
10
0.000260
20
0.010907
30
0.0
11
0.000087
21
0.010052
31
0.0
0
LINE
8
TOP
10
0.000087
20
0.010052
30
0.0
11
0.000000
21
0.009184
31
0.0
0
LINE
8
TOP
10
0.000000
20
0.009184
30
0.0
11
0.000000
21
0.008312
31
0.0
0
LINE
8
TOP
10
0.000000
20
0.008312
30
0.0
11
0.000087
21
0.007444
31
0.0
0
LINE
8
TOP
10
0.000087
20
0.007444
30
0.0
11
0.000260
21
0.006588
31
0.0
0
LINE
8
TOP
10
0.000260
20
0.006588
30
0.0
11
0.000517
21
0.005755
31
0.0
0
LINE
8
TOP
10
0.000517
20
0.005755
30
0.0
11
0.000856
21
0.004951
31
0.0
0
LINE
8
TOP
10
0.000856
20
0.004951
30
0.0
11
0.001273
21
0.004185
31
0.0
0
LINE
8
TOP
10
0.001273
20
0.004185
30
0.0
11
0.001764
21
0.003464
31
0.0
0
LINE
8
TOP
10
0.001764
20
0.003464
30
0.0
11
0.002325
21
0.002796
31
0.0
0
LINE
8
TOP
10
0.002325
20
0.002796
30
0.0
11
0.002950
21
0.002187
31
0.0
0
LINE
8
TOP
10
0.002950
20
0.002187
30
0.0
11
0.003632
21
0.001643
31
0.0
0
LINE
8
TOP
10
0.003632
20
0.001643
30
0.0
11
0.004364
21
0.001170
31
0.0
0
LINE
8
TOP
10
0.004364
20
0.001170
30
0.0
11
0.005141
21
0.000772
31
0.0
0
LINE
8
TOP
10
0.005141
20
0.000772
30
0.0
11
0.005953
21
0.000453
31
0.0
0
LINE
8
TOP
10
0.005953
20
0.000453
30
0.0
11
0.006792
21
0.000217
31
0.0
0
LINE
8
TOP
10
0.006792
20
0.000217
30
0.0
11
0.007651
21
0.000065
31
0.0
0
LINE
8
TOP
10
0.007651
20
0.000065
30
0.0
11
0.008521
21
0.000000
31
0.0
0
LINE
8
TOP
10
0.008521
20
0.000000
30
0.0
11
0.009393
21
0.000022
31
0.0
0
LINE
8
TOP
10
0.009393
20
0.000022
30
0.0
11
0.010259
21
0.000130
31
0.0
0
LINE
8
TOP
10
0.010259
20
0.000130
30
0.0
11
0.011110
21
0.000324
31
0.0
0
LINE
8
TOP
10
0.011110
20
0.000324
30
0.0
11
0.011936
21
0.000602
31
0.0
0
LINE
8
TOP
10
0.011936
20
0.000602
30
0.0
11
0.012732
21
0.000961
31
0.0
0
LINE
8
TOP
10
0.012732
20
0.000961
30
0.0
11
0.013487
21
0.001397
31
0.0
0
LINE
8
TOP
10
0.013487
20
0.001397
30
0.0
11
0.014195
21
0.001906
31
0.0
0
LINE
8
TOP
10
0.014195
20
0.001906
30
0.0
11
0.014849
21
0.002484
31
0.0
0
LINE
8
TOP
10
0.014849
20
0.002484
30
0.0
11
0.015443
21
0.003123
31
0.0
0
LINE
8
TOP
10
0.015443
20
0.003123
30
0.0
11
0.015970
21
0.003818
31
0.0
0
LINE
8
TOP
10
0.015970
20
0.003818
30
0.0
11
0.016424
21
0.004563
31
0.0
0
LINE
8
TOP
10
0.016424
20
0.004563
30
0.0
11
0.016803
21
0.005349
31
0.0
0
LINE
8
TOP
10
0.016803
20
0.005349
30
0.0
11
0.017101
21
0.006168
31
0.0
0
LINE
8
TOP
10
0.017101
20
0.006168
30
0.0
11
0.017317
21
0.007014
31
0.0
0
LINE
8
TOP
10
0.017317
20
0.007014
30
0.0
11
0.017447
21
0.007876
31
0.0
0
LINE
8
TOP
10
0.017447
20
0.007876
30
0.0
11
0.017490
21
0.008748
31
0.0
0
ENDSEC
0
EOF
