0
SECTION
2
HEADER
9
$ACADVER
1
AC1009
0
ENDSEC
0
SECTION
2
TABLES
0
TABLE
2
LTYPE
70
3
0
LTYPE
2
CONTINUOUS
70
0
3
Solid line
72
65
73
0
40
0.0
0
LTYPE
2
HIDDEN
70
0
3
__ __ __ __ __
72
65
73
2
40
0.039468
49
0.026325
49
-0.013143
0
LTYPE
2
CENTER
70
0
3
___ _ ___ _ ___
72
65
73
4
40
0.092079
49
0.052611
49
-0.013143
49
0.013143
49
-0.013143
0
ENDTAB
0
TABLE
2
LAYER
70
6
0
LAYER
2
0
70
0
62
7
6
CONTINUOUS
0
LAYER
2
FRONT
70
0
62
7
6
CONTINUOUS
0
LAYER
2
LEFT
70
0
62
7
6
CONTINUOUS
0
LAYER
2
LEFT_HID
70
0
62
7
6
HIDDEN
0
LAYER
2
TOP
70
0
62
7
6
CONTINUOUS
0
LAYER
2
TOP_HID
70
0
62
7
6
HIDDEN
0
ENDTAB
0
ENDSEC
0
SECTION
2
ENTITIES
0
LINE
8
FRONT
10
0.000000
20
0.234402
30
0.0
11
0.000008
21
0.233748
31
0.0
0
LINE
8
FRONT
10
0.000008
20
0.233748
30
0.0
11
0.000033
21
0.233094
31
0.0
0
LINE
8
FRONT
10
0.000033
20
0.233094
30
0.0
11
0.000073
21
0.232441
31
0.0
0
LINE
8
FRONT
10
0.000073
20
0.232441
30
0.0
11
0.000130
21
0.231790
31
0.0
0
LINE
8
FRONT
10
0.000130
20
0.231790
30
0.0
11
0.000204
21
0.231140
31
0.0
0
LINE
8
FRONT
10
0.000204
20
0.231140
30
0.0
11
0.000293
21
0.230492
31
0.0
0
LINE
8
FRONT
10
0.000293
20
0.230492
30
0.0
11
0.000399
21
0.229846
31
0.0
0
LINE
8
FRONT
10
0.000399
20
0.229846
30
0.0
11
0.000520
21
0.229203
31
0.0
0
LINE
8
FRONT
10
0.000520
20
0.229203
30
0.0
11
0.000658
21
0.228564
31
0.0
0
LINE
8
FRONT
10
0.000658
20
0.228564
30
0.0
11
0.000811
21
0.227928
31
0.0
0
LINE
8
FRONT
10
0.000811
20
0.227928
30
0.0
11
0.000981
21
0.227296
31
0.0
0
LINE
8
FRONT
10
0.000981
20
0.227296
30
0.0
11
0.001166
21
0.226668
31
0.0
0
LINE
8
FRONT
10
0.001166
20
0.226668
30
0.0
11
0.001366
21
0.226046
31
0.0
0
LINE
8
FRONT
10
0.001366
20
0.226046
30
0.0
11
0.001582
21
0.225428
31
0.0
0
LINE
8
FRONT
10
0.001582
20
0.225428
30
0.0
11
0.001814
21
0.224816
31
0.0
0
LINE
8
FRONT
10
0.001814
20
0.224816
30
0.0
11
0.002060
21
0.224210
31
0.0
0
LINE
8
FRONT
10
0.002060
20
0.224210
30
0.0
11
0.002322
21
0.223611
31
0.0
0
LINE
8
FRONT
10
0.002322
20
0.223611
30
0.0
11
0.002598
21
0.223018
31
0.0
0
LINE
8
FRONT
10
0.002598
20
0.223018
30
0.0
11
0.002890
21
0.222432
31
0.0
0
LINE
8
FRONT
10
0.002890
20
0.222432
30
0.0
11
0.003195
21
0.221853
31
0.0
0
LINE
8
FRONT
10
0.003195
20
0.221853
30
0.0
11
0.003515
21
0.221283
31
0.0
0
LINE
8
FRONT
10
0.003515
20
0.221283
30
0.0
11
0.003850
21
0.220720
31
0.0
0
LINE
8
FRONT
10
0.003850
20
0.220720
30
0.0
11
0.004198
21
0.220166
31
0.0
0
LINE
8
FRONT
10
0.004198
20
0.220166
30
0.0
11
0.004559
21
0.219621
31
0.0
0
LINE
8
FRONT
10
0.004559
20
0.219621
30
0.0
11
0.004935
21
0.219085
31
0.0
0
LINE
8
FRONT
10
0.004935
20
0.219085
30
0.0
11
0.005323
21
0.218559
31
0.0
0
LINE
8
FRONT
10
0.005323
20
0.218559
30
0.0
11
0.005725
21
0.218043
31
0.0
0
LINE
8
FRONT
10
0.005725
20
0.218043
30
0.0
11
0.006139
21
0.217536
31
0.0
0
LINE
8
FRONT
10
0.006139
20
0.217536
30
0.0
11
0.006566
21
0.217040
31
0.0
0
LINE
8
FRONT
10
0.006566
20
0.217040
30
0.0
11
0.007004
21
0.216555
31
0.0
0
LINE
8
FRONT
10
0.007004
20
0.216555
30
0.0
11
0.007455
21
0.216081
31
0.0
0
LINE
8
FRONT
10
0.007455
20
0.216081
30
0.0
11
0.007918
21
0.215619
31
0.0
0
LINE
8
FRONT
10
0.007918
20
0.215619
30
0.0
11
0.008392
21
0.215168
31
0.0
0
LINE
8
FRONT
10
0.008392
20
0.215168
30
0.0
11
0.008877
21
0.214729
31
0.0
0
LINE
8
FRONT
10
0.008877
20
0.214729
30
0.0
11
0.009373
21
0.214302
31
0.0
0
LINE
8
FRONT
10
0.009373
20
0.214302
30
0.0
11
0.009879
21
0.213888
31
0.0
0
LINE
8
FRONT
10
0.009879
20
0.213888
30
0.0
11
0.010396
21
0.213486
31
0.0
0
LINE
8
FRONT
10
0.010396
20
0.213486
30
0.0
11
0.010922
21
0.213098
31
0.0
0
LINE
8
FRONT
10
0.010922
20
0.213098
30
0.0
11
0.011458
21
0.212723
31
0.0
0
LINE
8
FRONT
10
0.011458
20
0.212723
30
0.0
11
0.012003
21
0.212361
31
0.0
0
LINE
8
FRONT
10
0.012003
20
0.212361
30
0.0
11
0.012557
21
0.212013
31
0.0
0
LINE
8
FRONT
10
0.012557
20
0.212013
30
0.0
11
0.013120
21
0.211679
31
0.0
0
LINE
8
FRONT
10
0.013120
20
0.211679
30
0.0
11
0.013690
21
0.211359
31
0.0
0
LINE
8
FRONT
10
0.013690
20
0.211359
30
0.0
11
0.014269
21
0.211053
31
0.0
0
LINE
8
FRONT
10
0.014269
20
0.211053
30
0.0
11
0.014854
21
0.210762
31
0.0
0
LINE
8
FRONT
10
0.014854
20
0.210762
30
0.0
11
0.015447
21
0.210485
31
0.0
0
LINE
8
FRONT
10
0.015447
20
0.210485
30
0.0
11
0.016047
21
0.210224
31
0.0
0
LINE
8
FRONT
10
0.016047
20
0.210224
30
0.0
11
0.016653
21
0.209977
31
0.0
0
LINE
8
FRONT
10
0.016653
20
0.209977
30
0.0
11
0.017265
21
0.209746
31
0.0
0
LINE
8
FRONT
10
0.017265
20
0.209746
30
0.0
11
0.017882
21
0.209530
31
0.0
0
LINE
8
FRONT
10
0.017882
20
0.209530
30
0.0
11
0.018505
21
0.209329
31
0.0
0
LINE
8
FRONT
10
0.018505
20
0.209329
30
0.0
11
0.019132
21
0.209144
31
0.0
0
LINE
8
FRONT
10
0.019132
20
0.209144
30
0.0
11
0.019764
21
0.208975
31
0.0
0
LINE
8
FRONT
10
0.019764
20
0.208975
30
0.0
11
0.020400
21
0.208821
31
0.0
0
LINE
8
FRONT
10
0.020400
20
0.208821
30
0.0
11
0.021040
21
0.208684
31
0.0
0
LINE
8
FRONT
10
0.021040
20
0.208684
30
0.0
11
0.021683
21
0.208562
31
0.0
0
LINE
8
FRONT
10
0.021683
20
0.208562
30
0.0
11
0.022328
21
0.208456
31
0.0
0
LINE
8
FRONT
10
0.022328
20
0.208456
30
0.0
11
0.022976
21
0.208367
31
0.0
0
LINE
8
FRONT
10
0.022976
20
0.208367
30
0.0
11
0.023626
21
0.208294
31
0.0
0
LINE
8
FRONT
10
0.023626
20
0.208294
30
0.0
11
0.024278
21
0.208237
31
0.0
0
LINE
8
FRONT
10
0.024278
20
0.208237
30
0.0
11
0.024931
21
0.208196
31
0.0
0
LINE
8
FRONT
10
0.024931
20
0.208196
30
0.0
11
0.025585
21
0.208171
31
0.0
0
LINE
8
FRONT
10
0.025585
20
0.208171
30
0.0
11
0.026239
21
0.208163
31
0.0
0
LINE
8
FRONT
10
0.026239
20
0.208163
30
0.0
11
0.091837
21
0.208163
31
0.0
0
LINE
8
FRONT
10
0.091837
20
0.208163
30
0.0
11
0.091837
21
0.168805
31
0.0
0
LINE
8
FRONT
10
0.091837
20
0.168805
30
0.0
11
0.142128
21
0.168805
31
0.0
0
LINE
8
FRONT
10
0.142128
20
0.168805
30
0.0
11
0.142782
21
0.168813
31
0.0
0
LINE
8
FRONT
10
0.142782
20
0.168813
30
0.0
11
0.143436
21
0.168837
31
0.0
0
LINE
8
FRONT
10
0.143436
20
0.168837
30
0.0
11
0.144089
21
0.168878
31
0.0
0
LINE
8
FRONT
10
0.144089
20
0.168878
30
0.0
11
0.144741
21
0.168935
31
0.0
0
LINE
8
FRONT
10
0.144741
20
0.168935
30
0.0
11
0.145391
21
0.169008
31
0.0
0
LINE
8
FRONT
10
0.145391
20
0.169008
30
0.0
11
0.146039
21
0.169098
31
0.0
0
LINE
8
FRONT
10
0.146039
20
0.169098
30
0.0
11
0.146685
21
0.169203
31
0.0
0
LINE
8
FRONT
10
0.146685
20
0.169203
30
0.0
11
0.147327
21
0.169325
31
0.0
0
LINE
8
FRONT
10
0.147327
20
0.169325
30
0.0
11
0.147967
21
0.169463
31
0.0
0
LINE
8
FRONT
10
0.147967
20
0.169463
30
0.0
11
0.148603
21
0.169616
31
0.0
0
LINE
8
FRONT
10
0.148603
20
0.169616
30
0.0
11
0.149235
21
0.169785
31
0.0
0
LINE
8
FRONT
10
0.149235
20
0.169785
30
0.0
11
0.149862
21
0.169970
31
0.0
0
LINE
8
FRONT
10
0.149862
20
0.169970
30
0.0
11
0.150485
21
0.170171
31
0.0
0
LINE
8
FRONT
10
0.150485
20
0.170171
30
0.0
11
0.151103
21
0.170387
31
0.0
0
LINE
8
FRONT
10
0.151103
20
0.170387
30
0.0
11
0.151714
21
0.170618
31
0.0
0
LINE
8
FRONT
10
0.151714
20
0.170618
30
0.0
11
0.152320
21
0.170865
31
0.0
0
LINE
8
FRONT
10
0.152320
20
0.170865
30
0.0
11
0.152920
21
0.171127
31
0.0
0
LINE
8
FRONT
10
0.152920
20
0.171127
30
0.0
11
0.153513
21
0.171403
31
0.0
0
LINE
8
FRONT
10
0.153513
20
0.171403
30
0.0
11
0.154099
21
0.171694
31
0.0
0
LINE
8
FRONT
10
0.154099
20
0.171694
30
0.0
11
0.154677
21
0.172000
31
0.0
0
LINE
8
FRONT
10
0.154677
20
0.172000
30
0.0
11
0.155248
21
0.172320
31
0.0
0
LINE
8
FRONT
10
0.155248
20
0.172320
30
0.0
11
0.155810
21
0.172654
31
0.0
0
LINE
8
FRONT
10
0.155810
20
0.172654
30
0.0
11
0.156364
21
0.173002
31
0.0
0
LINE
8
FRONT
10
0.156364
20
0.173002
30
0.0
11
0.156909
21
0.173364
31
0.0
0
LINE
8
FRONT
10
0.156909
20
0.173364
30
0.0
11
0.157445
21
0.173739
31
0.0
0
LINE
8
FRONT
10
0.157445
20
0.173739
30
0.0
11
0.157972
21
0.174128
31
0.0
0
LINE
8
FRONT
10
0.157972
20
0.174128
30
0.0
11
0.158488
21
0.174529
31
0.0
0
LINE
8
FRONT
10
0.158488
20
0.174529
30
0.0
11
0.158994
21
0.174943
31
0.0
0
LINE
8
FRONT
10
0.158994
20
0.174943
30
0.0
11
0.159490
21
0.175370
31
0.0
0
LINE
8
FRONT
10
0.159490
20
0.175370
30
0.0
11
0.159975
21
0.175809
31
0.0
0
LINE
8
FRONT
10
0.159975
20
0.175809
30
0.0
11
0.160449
21
0.176260
31
0.0
0
LINE
8
FRONT
10
0.160449
20
0.176260
30
0.0
11
0.160912
21
0.176723
31
0.0
0
LINE
8
FRONT
10
0.160912
20
0.176723
30
0.0
11
0.161363
21
0.177197
31
0.0
0
LINE
8
FRONT
10
0.161363
20
0.177197
30
0.0
11
0.161802
21
0.177682
31
0.0
0
LINE
8
FRONT
10
0.161802
20
0.177682
30
0.0
11
0.162229
21
0.178178
31
0.0
0
LINE
8
FRONT
10
0.162229
20
0.178178
30
0.0
11
0.162643
21
0.178684
31
0.0
0
LINE
8
FRONT
10
0.162643
20
0.178684
30
0.0
11
0.163044
21
0.179200
31
0.0
0
LINE
8
FRONT
10
0.163044
20
0.179200
30
0.0
11
0.163433
21
0.179727
31
0.0
0
LINE
8
FRONT
10
0.163433
20
0.179727
30
0.0
11
0.163808
21
0.180263
31
0.0
0
LINE
8
FRONT
10
0.163808
20
0.180263
30
0.0
11
0.164170
21
0.180808
31
0.0
0
LINE
8
FRONT
10
0.164170
20
0.180808
30
0.0
11
0.164518
21
0.181362
31
0.0
0
LINE
8
FRONT
10
0.164518
20
0.181362
30
0.0
11
0.164852
21
0.181924
31
0.0
0
LINE
8
FRONT
10
0.164852
20
0.181924
30
0.0
11
0.165172
21
0.182495
31
0.0
0
LINE
8
FRONT
10
0.165172
20
0.182495
30
0.0
11
0.165478
21
0.183073
31
0.0
0
LINE
8
FRONT
10
0.165478
20
0.183073
30
0.0
11
0.165769
21
0.183659
31
0.0
0
LINE
8
FRONT
10
0.165769
20
0.183659
30
0.0
11
0.166045
21
0.184252
31
0.0
0
LINE
8
FRONT
10
0.166045
20
0.184252
30
0.0
11
0.166307
21
0.184852
31
0.0
0
LINE
8
FRONT
10
0.166307
20
0.184852
30
0.0
11
0.166554
21
0.185458
31
0.0
0
LINE
8
FRONT
10
0.166554
20
0.185458
30
0.0
11
0.166785
21
0.186069
31
0.0
0
LINE
8
FRONT
10
0.166785
20
0.186069
30
0.0
11
0.167001
21
0.186687
31
0.0
0
LINE
8
FRONT
10
0.167001
20
0.186687
30
0.0
11
0.167202
21
0.187310
31
0.0
0
LINE
8
FRONT
10
0.167202
20
0.187310
30
0.0
11
0.167387
21
0.187937
31
0.0
0
LINE
8
FRONT
10
0.167387
20
0.187937
30
0.0
11
0.167556
21
0.188569
31
0.0
0
LINE
8
FRONT
10
0.167556
20
0.188569
30
0.0
11
0.167709
21
0.189205
31
0.0
0
LINE
8
FRONT
10
0.167709
20
0.189205
30
0.0
11
0.167847
21
0.189845
31
0.0
0
LINE
8
FRONT
10
0.167847
20
0.189845
30
0.0
11
0.167969
21
0.190487
31
0.0
0
LINE
8
FRONT
10
0.167969
20
0.190487
30
0.0
11
0.168074
21
0.191133
31
0.0
0
LINE
8
FRONT
10
0.168074
20
0.191133
30
0.0
11
0.168164
21
0.191781
31
0.0
0
LINE
8
FRONT
10
0.168164
20
0.191781
30
0.0
11
0.168237
21
0.192431
31
0.0
0
LINE
8
FRONT
10
0.168237
20
0.192431
30
0.0
11
0.168294
21
0.193083
31
0.0
0
LINE
8
FRONT
10
0.168294
20
0.193083
30
0.0
11
0.168335
21
0.193736
31
0.0
0
LINE
8
FRONT
10
0.168335
20
0.193736
30
0.0
11
0.168359
21
0.194390
31
0.0
0
LINE
8
FRONT
10
0.168359
20
0.194390
30
0.0
11
0.168367
21
0.195044
31
0.0
0
LINE
8
FRONT
10
0.168367
20
0.195044
30
0.0
11
0.168367
21
0.824781
31
0.0
0
LINE
8
FRONT
10
0.168367
20
0.824781
30
0.0
11
0.168359
21
0.825435
31
0.0
0
LINE
8
FRONT
10
0.168359
20
0.825435
30
0.0
11
0.168335
21
0.826089
31
0.0
0
LINE
8
FRONT
10
0.168335
20
0.826089
30
0.0
11
0.168294
21
0.826742
31
0.0
0
LINE
8
FRONT
10
0.168294
20
0.826742
30
0.0
11
0.168237
21
0.827394
31
0.0
0
LINE
8
FRONT
10
0.168237
20
0.827394
30
0.0
11
0.168164
21
0.828044
31
0.0
0
LINE
8
FRONT
10
0.168164
20
0.828044
30
0.0
11
0.168074
21
0.828692
31
0.0
0
LINE
8
FRONT
10
0.168074
20
0.828692
30
0.0
11
0.167969
21
0.829338
31
0.0
0
LINE
8
FRONT
10
0.167969
20
0.829338
30
0.0
11
0.167847
21
0.829981
31
0.0
0
LINE
8
FRONT
10
0.167847
20
0.829981
30
0.0
11
0.167709
21
0.830620
31
0.0
0
LINE
8
FRONT
10
0.167709
20
0.830620
30
0.0
11
0.167556
21
0.831256
31
0.0
0
LINE
8
FRONT
10
0.167556
20
0.831256
30
0.0
11
0.167387
21
0.831888
31
0.0
0
LINE
8
FRONT
10
0.167387
20
0.831888
30
0.0
11
0.167202
21
0.832515
31
0.0
0
LINE
8
FRONT
10
0.167202
20
0.832515
30
0.0
11
0.167001
21
0.833138
31
0.0
0
LINE
8
FRONT
10
0.167001
20
0.833138
30
0.0
11
0.166785
21
0.833756
31
0.0
0
LINE
8
FRONT
10
0.166785
20
0.833756
30
0.0
11
0.166554
21
0.834368
31
0.0
0
LINE
8
FRONT
10
0.166554
20
0.834368
30
0.0
11
0.166307
21
0.834974
31
0.0
0
LINE
8
FRONT
10
0.166307
20
0.834974
30
0.0
11
0.166045
21
0.835573
31
0.0
0
LINE
8
FRONT
10
0.166045
20
0.835573
30
0.0
11
0.165769
21
0.836166
31
0.0
0
LINE
8
FRONT
10
0.165769
20
0.836166
30
0.0
11
0.165478
21
0.836752
31
0.0
0
LINE
8
FRONT
10
0.165478
20
0.836752
30
0.0
11
0.165172
21
0.837330
31
0.0
0
LINE
8
FRONT
10
0.165172
20
0.837330
30
0.0
11
0.164852
21
0.837901
31
0.0
0
LINE
8
FRONT
10
0.164852
20
0.837901
30
0.0
11
0.164518
21
0.838463
31
0.0
0
LINE
8
FRONT
10
0.164518
20
0.838463
30
0.0
11
0.164170
21
0.839017
31
0.0
0
LINE
8
FRONT
10
0.164170
20
0.839017
30
0.0
11
0.163808
21
0.839562
31
0.0
0
LINE
8
FRONT
10
0.163808
20
0.839562
30
0.0
11
0.163433
21
0.840098
31
0.0
0
LINE
8
FRONT
10
0.163433
20
0.840098
30
0.0
11
0.163044
21
0.840625
31
0.0
0
LINE
8
FRONT
10
0.163044
20
0.840625
30
0.0
11
0.162643
21
0.841141
31
0.0
0
LINE
8
FRONT
10
0.162643
20
0.841141
30
0.0
11
0.162229
21
0.841647
31
0.0
0
LINE
8
FRONT
10
0.162229
20
0.841647
30
0.0
11
0.161802
21
0.842143
31
0.0
0
LINE
8
FRONT
10
0.161802
20
0.842143
30
0.0
11
0.161363
21
0.842628
31
0.0
0
LINE
8
FRONT
10
0.161363
20
0.842628
30
0.0
11
0.160912
21
0.843102
31
0.0
0
LINE
8
FRONT
10
0.160912
20
0.843102
30
0.0
11
0.160449
21
0.843565
31
0.0
0
LINE
8
FRONT
10
0.160449
20
0.843565
30
0.0
11
0.159975
21
0.844016
31
0.0
0
LINE
8
FRONT
10
0.159975
20
0.844016
30
0.0
11
0.159490
21
0.844455
31
0.0
0
LINE
8
FRONT
10
0.159490
20
0.844455
30
0.0
11
0.158994
21
0.844882
31
0.0
0
LINE
8
FRONT
10
0.158994
20
0.844882
30
0.0
11
0.158488
21
0.845296
31
0.0
0
LINE
8
FRONT
10
0.158488
20
0.845296
30
0.0
11
0.157972
21
0.845697
31
0.0
0
LINE
8
FRONT
10
0.157972
20
0.845697
30
0.0
11
0.157445
21
0.846086
31
0.0
0
LINE
8
FRONT
10
0.157445
20
0.846086
30
0.0
11
0.156909
21
0.846461
31
0.0
0
LINE
8
FRONT
10
0.156909
20
0.846461
30
0.0
11
0.156364
21
0.846823
31
0.0
0
LINE
8
FRONT
10
0.156364
20
0.846823
30
0.0
11
0.155810
21
0.847171
31
0.0
0
LINE
8
FRONT
10
0.155810
20
0.847171
30
0.0
11
0.155248
21
0.847505
31
0.0
0
LINE
8
FRONT
10
0.155248
20
0.847505
30
0.0
11
0.154677
21
0.847825
31
0.0
0
LINE
8
FRONT
10
0.154677
20
0.847825
30
0.0
11
0.154099
21
0.848131
31
0.0
0
LINE
8
FRONT
10
0.154099
20
0.848131
30
0.0
11
0.153513
21
0.848422
31
0.0
0
LINE
8
FRONT
10
0.153513
20
0.848422
30
0.0
11
0.152920
21
0.848698
31
0.0
0
LINE
8
FRONT
10
0.152920
20
0.848698
30
0.0
11
0.152320
21
0.848960
31
0.0
0
LINE
8
FRONT
10
0.152320
20
0.848960
30
0.0
11
0.151714
21
0.849207
31
0.0
0
LINE
8
FRONT
10
0.151714
20
0.849207
30
0.0
11
0.151103
21
0.849438
31
0.0
0
LINE
8
FRONT
10
0.151103
20
0.849438
30
0.0
11
0.150485
21
0.849654
31
0.0
0
LINE
8
FRONT
10
0.150485
20
0.849654
30
0.0
11
0.149862
21
0.849855
31
0.0
0
LINE
8
FRONT
10
0.149862
20
0.849855
30
0.0
11
0.149235
21
0.850040
31
0.0
0
LINE
8
FRONT
10
0.149235
20
0.850040
30
0.0
11
0.148603
21
0.850209
31
0.0
0
LINE
8
FRONT
10
0.148603
20
0.850209
30
0.0
11
0.147967
21
0.850363
31
0.0
0
LINE
8
FRONT
10
0.147967
20
0.850363
30
0.0
11
0.147327
21
0.850500
31
0.0
0
LINE
8
FRONT
10
0.147327
20
0.850500
30
0.0
11
0.146685
21
0.850622
31
0.0
0
LINE
8
FRONT
10
0.146685
20
0.850622
30
0.0
11
0.146039
21
0.850727
31
0.0
0
LINE
8
FRONT
10
0.146039
20
0.850727
30
0.0
11
0.145391
21
0.850817
31
0.0
0
LINE
8
FRONT
10
0.145391
20
0.850817
30
0.0
11
0.144741
21
0.850890
31
0.0
0
LINE
8
FRONT
10
0.144741
20
0.850890
30
0.0
11
0.144089
21
0.850947
31
0.0
0
LINE
8
FRONT
10
0.144089
20
0.850947
30
0.0
11
0.143436
21
0.850988
31
0.0
0
LINE
8
FRONT
10
0.143436
20
0.850988
30
0.0
11
0.142782
21
0.851012
31
0.0
0
LINE
8
FRONT
10
0.142782
20
0.851012
30
0.0
11
0.142128
21
0.851020
31
0.0
0
LINE
8
FRONT
10
0.142128
20
0.851020
30
0.0
11
0.087464
21
0.851020
31
0.0
0
LINE
8
FRONT
10
0.087464
20
0.851020
30
0.0
11
0.087464
21
0.958163
31
0.0
0
LINE
8
FRONT
10
0.087464
20
0.958163
30
0.0
11
0.026239
21
0.958163
31
0.0
0
LINE
8
FRONT
10
0.026239
20
0.958163
30
0.0
11
0.025585
21
0.958155
31
0.0
0
LINE
8
FRONT
10
0.025585
20
0.958155
30
0.0
11
0.024931
21
0.958131
31
0.0
0
LINE
8
FRONT
10
0.024931
20
0.958131
30
0.0
11
0.024278
21
0.958090
31
0.0
0
LINE
8
FRONT
10
0.024278
20
0.958090
30
0.0
11
0.023626
21
0.958033
31
0.0
0
LINE
8
FRONT
10
0.023626
20
0.958033
30
0.0
11
0.022976
21
0.957960
31
0.0
0
LINE
8
FRONT
10
0.022976
20
0.957960
30
0.0
11
0.022328
21
0.957870
31
0.0
0
LINE
8
FRONT
10
0.022328
20
0.957870
30
0.0
11
0.021683
21
0.957765
31
0.0
0
LINE
8
FRONT
10
0.021683
20
0.957765
30
0.0
11
0.021040
21
0.957643
31
0.0
0
LINE
8
FRONT
10
0.021040
20
0.957643
30
0.0
11
0.020400
21
0.957505
31
0.0
0
LINE
8
FRONT
10
0.020400
20
0.957505
30
0.0
11
0.019764
21
0.957352
31
0.0
0
LINE
8
FRONT
10
0.019764
20
0.957352
30
0.0
11
0.019132
21
0.957183
31
0.0
0
LINE
8
FRONT
10
0.019132
20
0.957183
30
0.0
11
0.018505
21
0.956998
31
0.0
0
LINE
8
FRONT
10
0.018505
20
0.956998
30
0.0
11
0.017882
21
0.956797
31
0.0
0
LINE
8
FRONT
10
0.017882
20
0.956797
30
0.0
11
0.017265
21
0.956581
31
0.0
0
LINE
8
FRONT
10
0.017265
20
0.956581
30
0.0
11
0.016653
21
0.956349
31
0.0
0
LINE
8
FRONT
10
0.016653
20
0.956349
30
0.0
11
0.016047
21
0.956103
31
0.0
0
LINE
8
FRONT
10
0.016047
20
0.956103
30
0.0
11
0.015447
21
0.955841
31
0.0
0
LINE
8
FRONT
10
0.015447
20
0.955841
30
0.0
11
0.014854
21
0.955565
31
0.0
0
LINE
8
FRONT
10
0.014854
20
0.955565
30
0.0
11
0.014269
21
0.955274
31
0.0
0
LINE
8
FRONT
10
0.014269
20
0.955274
30
0.0
11
0.013690
21
0.954968
31
0.0
0
LINE
8
FRONT
10
0.013690
20
0.954968
30
0.0
11
0.013120
21
0.954648
31
0.0
0
LINE
8
FRONT
10
0.013120
20
0.954648
30
0.0
11
0.012557
21
0.954314
31
0.0
0
LINE
8
FRONT
10
0.012557
20
0.954314
30
0.0
11
0.012003
21
0.953966
31
0.0
0
LINE
8
FRONT
10
0.012003
20
0.953966
30
0.0
11
0.011458
21
0.953604
31
0.0
0
LINE
8
FRONT
10
0.011458
20
0.953604
30
0.0
11
0.010922
21
0.953229
31
0.0
0
LINE
8
FRONT
10
0.010922
20
0.953229
30
0.0
11
0.010396
21
0.952840
31
0.0
0
LINE
8
FRONT
10
0.010396
20
0.952840
30
0.0
11
0.009879
21
0.952439
31
0.0
0
LINE
8
FRONT
10
0.009879
20
0.952439
30
0.0
11
0.009373
21
0.952024
31
0.0
0
LINE
8
FRONT
10
0.009373
20
0.952024
30
0.0
11
0.008877
21
0.951598
31
0.0
0
LINE
8
FRONT
10
0.008877
20
0.951598
30
0.0
11
0.008392
21
0.951159
31
0.0
0
LINE
8
FRONT
10
0.008392
20
0.951159
30
0.0
11
0.007918
21
0.950708
31
0.0
0
LINE
8
FRONT
10
0.007918
20
0.950708
30
0.0
11
0.007455
21
0.950245
31
0.0
0
LINE
8
FRONT
10
0.007455
20
0.950245
30
0.0
11
0.007004
21
0.949771
31
0.0
0
LINE
8
FRONT
10
0.007004
20
0.949771
30
0.0
11
0.006566
21
0.949286
31
0.0
0
LINE
8
FRONT
10
0.006566
20
0.949286
30
0.0
11
0.006139
21
0.948790
31
0.0
0
LINE
8
FRONT
10
0.006139
20
0.948790
30
0.0
11
0.005725
21
0.948284
31
0.0
0
LINE
8
FRONT
10
0.005725
20
0.948284
30
0.0
11
0.005323
21
0.947767
31
0.0
0
LINE
8
FRONT
10
0.005323
20
0.947767
30
0.0
11
0.004935
21
0.947241
31
0.0
0
LINE
8
FRONT
10
0.004935
20
0.947241
30
0.0
11
0.004559
21
0.946705
31
0.0
0
LINE
8
FRONT
10
0.004559
20
0.946705
30
0.0
11
0.004198
21
0.946160
31
0.0
0
LINE
8
FRONT
10
0.004198
20
0.946160
30
0.0
11
0.003850
21
0.945606
31
0.0
0
LINE
8
FRONT
10
0.003850
20
0.945606
30
0.0
11
0.003515
21
0.945044
31
0.0
0
LINE
8
FRONT
10
0.003515
20
0.945044
30
0.0
11
0.003195
21
0.944473
31
0.0
0
LINE
8
FRONT
10
0.003195
20
0.944473
30
0.0
11
0.002890
21
0.943895
31
0.0
0
LINE
8
FRONT
10
0.002890
20
0.943895
30
0.0
11
0.002598
21
0.943309
31
0.0
0
LINE
8
FRONT
10
0.002598
20
0.943309
30
0.0
11
0.002322
21
0.942716
31
0.0
0
LINE
8
FRONT
10
0.002322
20
0.942716
30
0.0
11
0.002060
21
0.942116
31
0.0
0
LINE
8
FRONT
10
0.002060
20
0.942116
30
0.0
11
0.001814
21
0.941510
31
0.0
0
LINE
8
FRONT
10
0.001814
20
0.941510
30
0.0
11
0.001582
21
0.940898
31
0.0
0
LINE
8
FRONT
10
0.001582
20
0.940898
30
0.0
11
0.001366
21
0.940281
31
0.0
0
LINE
8
FRONT
10
0.001366
20
0.940281
30
0.0
11
0.001166
21
0.939658
31
0.0
0
LINE
8
FRONT
10
0.001166
20
0.939658
30
0.0
11
0.000981
21
0.939031
31
0.0
0
LINE
8
FRONT
10
0.000981
20
0.939031
30
0.0
11
0.000811
21
0.938399
31
0.0
0
LINE
8
FRONT
10
0.000811
20
0.938399
30
0.0
11
0.000658
21
0.937763
31
0.0
0
LINE
8
FRONT
10
0.000658
20
0.937763
30
0.0
11
0.000520
21
0.937123
31
0.0
0
LINE
8
FRONT
10
0.000520
20
0.937123
30
0.0
11
0.000399
21
0.936481
31
0.0
0
LINE
8
FRONT
10
0.000399
20
0.936481
30
0.0
11
0.000293
21
0.935835
31
0.0
0
LINE
8
FRONT
10
0.000293
20
0.935835
30
0.0
11
0.000204
21
0.935187
31
0.0
0
LINE
8
FRONT
10
0.000204
20
0.935187
30
0.0
11
0.000130
21
0.934537
31
0.0
0
LINE
8
FRONT
10
0.000130
20
0.934537
30
0.0
11
0.000073
21
0.933885
31
0.0
0
LINE
8
FRONT
10
0.000073
20
0.933885
30
0.0
11
0.000033
21
0.933232
31
0.0
0
LINE
8
FRONT
10
0.000033
20
0.933232
30
0.0
11
0.000008
21
0.932578
31
0.0
0
LINE
8
FRONT
10
0.000008
20
0.932578
30
0.0
11
0.000000
21
0.931924
31
0.0
0
LINE
8
FRONT
10
0.000000
20
0.931924
30
0.0
11
0.000000
21
0.234402
31
0.0
0
LINE
8
FRONT
10
0.028426
20
0.249708
30
0.0
11
0.028502
21
0.248184
31
0.0
0
LINE
8
FRONT
10
0.028502
20
0.248184
30
0.0
11
0.028729
21
0.246676
31
0.0
0
LINE
8
FRONT
10
0.028729
20
0.246676
30
0.0
11
0.029106
21
0.245197
31
0.0
0
LINE
8
FRONT
10
0.029106
20
0.245197
30
0.0
11
0.029628
21
0.243763
31
0.0
0
LINE
8
FRONT
10
0.029628
20
0.243763
30
0.0
11
0.030290
21
0.242388
31
0.0
0
LINE
8
FRONT
10
0.030290
20
0.242388
30
0.0
11
0.031085
21
0.241086
31
0.0
0
LINE
8
FRONT
10
0.031085
20
0.241086
30
0.0
11
0.032007
21
0.239870
31
0.0
0
LINE
8
FRONT
10
0.032007
20
0.239870
30
0.0
11
0.033044
21
0.238751
31
0.0
0
LINE
8
FRONT
10
0.033044
20
0.238751
30
0.0
11
0.034189
21
0.237742
31
0.0
0
LINE
8
FRONT
10
0.034189
20
0.237742
30
0.0
11
0.035427
21
0.236851
31
0.0
0
LINE
8
FRONT
10
0.035427
20
0.236851
30
0.0
11
0.036749
21
0.236088
31
0.0
0
LINE
8
FRONT
10
0.036749
20
0.236088
30
0.0
11
0.038140
21
0.235460
31
0.0
0
LINE
8
FRONT
10
0.038140
20
0.235460
30
0.0
11
0.039586
21
0.234974
31
0.0
0
LINE
8
FRONT
10
0.039586
20
0.234974
30
0.0
11
0.041074
21
0.234635
31
0.0
0
LINE
8
FRONT
10
0.041074
20
0.234635
30
0.0
11
0.042588
21
0.234445
31
0.0
0
LINE
8
FRONT
10
0.042588
20
0.234445
30
0.0
11
0.044113
21
0.234407
31
0.0
0
LINE
8
FRONT
10
0.044113
20
0.234407
30
0.0
11
0.045635
21
0.234521
31
0.0
0
LINE
8
FRONT
10
0.045635
20
0.234521
30
0.0
11
0.047138
21
0.234786
31
0.0
0
LINE
8
FRONT
10
0.047138
20
0.234786
30
0.0
11
0.048607
21
0.235199
31
0.0
0
LINE
8
FRONT
10
0.048607
20
0.235199
30
0.0
11
0.050027
21
0.235757
31
0.0
0
LINE
8
FRONT
10
0.050027
20
0.235757
30
0.0
11
0.051385
21
0.236453
31
0.0
0
LINE
8
FRONT
10
0.051385
20
0.236453
30
0.0
11
0.052667
21
0.237281
31
0.0
0
LINE
8
FRONT
10
0.052667
20
0.237281
30
0.0
11
0.053860
21
0.238232
31
0.0
0
LINE
8
FRONT
10
0.053860
20
0.238232
30
0.0
11
0.054952
21
0.239298
31
0.0
0
LINE
8
FRONT
10
0.054952
20
0.239298
30
0.0
11
0.055933
21
0.240467
31
0.0
0
LINE
8
FRONT
10
0.055933
20
0.240467
30
0.0
11
0.056792
21
0.241727
31
0.0
0
LINE
8
FRONT
10
0.056792
20
0.241727
30
0.0
11
0.057522
21
0.243067
31
0.0
0
LINE
8
FRONT
10
0.057522
20
0.243067
30
0.0
11
0.058115
21
0.244473
31
0.0
0
LINE
8
FRONT
10
0.058115
20
0.244473
30
0.0
11
0.058565
21
0.245932
31
0.0
0
LINE
8
FRONT
10
0.058565
20
0.245932
30
0.0
11
0.058867
21
0.247427
31
0.0
0
LINE
8
FRONT
10
0.058867
20
0.247427
30
0.0
11
0.059019
21
0.248946
31
0.0
0
LINE
8
FRONT
10
0.059019
20
0.248946
30
0.0
11
0.059019
21
0.250471
31
0.0
0
LINE
8
FRONT
10
0.059019
20
0.250471
30
0.0
11
0.058867
21
0.251990
31
0.0
0
LINE
8
FRONT
10
0.058867
20
0.251990
30
0.0
11
0.058565
21
0.253485
31
0.0
0
LINE
8
FRONT
10
0.058565
20
0.253485
30
0.0
11
0.058115
21
0.254943
31
0.0
0
LINE
8
FRONT
10
0.058115
20
0.254943
30
0.0
11
0.057522
21
0.256350
31
0.0
0
LINE
8
FRONT
10
0.057522
20
0.256350
30
0.0
11
0.056792
21
0.257690
31
0.0
0
LINE
8
FRONT
10
0.056792
20
0.257690
30
0.0
11
0.055933
21
0.258950
31
0.0
0
LINE
8
FRONT
10
0.055933
20
0.258950
30
0.0
11
0.054952
21
0.260119
31
0.0
0
LINE
8
FRONT
10
0.054952
20
0.260119
30
0.0
11
0.053860
21
0.261185
31
0.0
0
LINE
8
FRONT
10
0.053860
20
0.261185
30
0.0
11
0.052667
21
0.262136
31
0.0
0
LINE
8
FRONT
10
0.052667
20
0.262136
30
0.0
11
0.051385
21
0.262964
31
0.0
0
LINE
8
FRONT
10
0.051385
20
0.262964
30
0.0
11
0.050027
21
0.263660
31
0.0
0
LINE
8
FRONT
10
0.050027
20
0.263660
30
0.0
11
0.048607
21
0.264218
31
0.0
0
LINE
8
FRONT
10
0.048607
20
0.264218
30
0.0
11
0.047138
21
0.264631
31
0.0
0
LINE
8
FRONT
10
0.047138
20
0.264631
30
0.0
11
0.045635
21
0.264896
31
0.0
0
LINE
8
FRONT
10
0.045635
20
0.264896
30
0.0
11
0.044113
21
0.265010
31
0.0
0
LINE
8
FRONT
10
0.044113
20
0.265010
30
0.0
11
0.042588
21
0.264972
31
0.0
0
LINE
8
FRONT
10
0.042588
20
0.264972
30
0.0
11
0.041074
21
0.264782
31
0.0
0
LINE
8
FRONT
10
0.041074
20
0.264782
30
0.0
11
0.039586
21
0.264442
31
0.0
0
LINE
8
FRONT
10
0.039586
20
0.264442
30
0.0
11
0.038140
21
0.263957
31
0.0
0
LINE
8
FRONT
10
0.038140
20
0.263957
30
0.0
11
0.036749
21
0.263329
31
0.0
0
LINE
8
FRONT
10
0.036749
20
0.263329
30
0.0
11
0.035427
21
0.262566
31
0.0
0
LINE
8
FRONT
10
0.035427
20
0.262566
30
0.0
11
0.034189
21
0.261675
31
0.0
0
LINE
8
FRONT
10
0.034189
20
0.261675
30
0.0
11
0.033044
21
0.260666
31
0.0
0
LINE
8
FRONT
10
0.033044
20
0.260666
30
0.0
11
0.032007
21
0.259547
31
0.0
0
LINE
8
FRONT
10
0.032007
20
0.259547
30
0.0
11
0.031085
21
0.258331
31
0.0
0
LINE
8
FRONT
10
0.031085
20
0.258331
30
0.0
11
0.030290
21
0.257029
31
0.0
0
LINE
8
FRONT
10
0.030290
20
0.257029
30
0.0
11
0.029628
21
0.255654
31
0.0
0
LINE
8
FRONT
10
0.029628
20
0.255654
30
0.0
11
0.029106
21
0.254220
31
0.0
0
LINE
8
FRONT
10
0.029106
20
0.254220
30
0.0
11
0.028729
21
0.252741
31
0.0
0
LINE
8
FRONT
10
0.028729
20
0.252741
30
0.0
11
0.028502
21
0.251232
31
0.0
0
LINE
8
FRONT
10
0.028502
20
0.251232
30
0.0
11
0.028426
21
0.249708
31
0.0
0
LINE
8
FRONT
10
0.028426
20
0.539431
30
0.0
11
0.028502
21
0.537907
31
0.0
0
LINE
8
FRONT
10
0.028502
20
0.537907
30
0.0
11
0.028729
21
0.536399
31
0.0
0
LINE
8
FRONT
10
0.028729
20
0.536399
30
0.0
11
0.029106
21
0.534920
31
0.0
0
LINE
8
FRONT
10
0.029106
20
0.534920
30
0.0
11
0.029628
21
0.533486
31
0.0
0
LINE
8
FRONT
10
0.029628
20
0.533486
30
0.0
11
0.030290
21
0.532111
31
0.0
0
LINE
8
FRONT
10
0.030290
20
0.532111
30
0.0
11
0.031085
21
0.530809
31
0.0
0
LINE
8
FRONT
10
0.031085
20
0.530809
30
0.0
11
0.032007
21
0.529593
31
0.0
0
LINE
8
FRONT
10
0.032007
20
0.529593
30
0.0
11
0.033044
21
0.528474
31
0.0
0
LINE
8
FRONT
10
0.033044
20
0.528474
30
0.0
11
0.034189
21
0.527465
31
0.0
0
LINE
8
FRONT
10
0.034189
20
0.527465
30
0.0
11
0.035427
21
0.526574
31
0.0
0
LINE
8
FRONT
10
0.035427
20
0.526574
30
0.0
11
0.036749
21
0.525811
31
0.0
0
LINE
8
FRONT
10
0.036749
20
0.525811
30
0.0
11
0.038140
21
0.525183
31
0.0
0
LINE
8
FRONT
10
0.038140
20
0.525183
30
0.0
11
0.039586
21
0.524697
31
0.0
0
LINE
8
FRONT
10
0.039586
20
0.524697
30
0.0
11
0.041074
21
0.524358
31
0.0
0
LINE
8
FRONT
10
0.041074
20
0.524358
30
0.0
11
0.042588
21
0.524168
31
0.0
0
LINE
8
FRONT
10
0.042588
20
0.524168
30
0.0
11
0.044113
21
0.524130
31
0.0
0
LINE
8
FRONT
10
0.044113
20
0.524130
30
0.0
11
0.045635
21
0.524244
31
0.0
0
LINE
8
FRONT
10
0.045635
20
0.524244
30
0.0
11
0.047138
21
0.524509
31
0.0
0
LINE
8
FRONT
10
0.047138
20
0.524509
30
0.0
11
0.048607
21
0.524922
31
0.0
0
LINE
8
FRONT
10
0.048607
20
0.524922
30
0.0
11
0.050027
21
0.525480
31
0.0
0
LINE
8
FRONT
10
0.050027
20
0.525480
30
0.0
11
0.051385
21
0.526176
31
0.0
0
LINE
8
FRONT
10
0.051385
20
0.526176
30
0.0
11
0.052667
21
0.527004
31
0.0
0
LINE
8
FRONT
10
0.052667
20
0.527004
30
0.0
11
0.053860
21
0.527955
31
0.0
0
LINE
8
FRONT
10
0.053860
20
0.527955
30
0.0
11
0.054952
21
0.529021
31
0.0
0
LINE
8
FRONT
10
0.054952
20
0.529021
30
0.0
11
0.055933
21
0.530190
31
0.0
0
LINE
8
FRONT
10
0.055933
20
0.530190
30
0.0
11
0.056792
21
0.531450
31
0.0
0
LINE
8
FRONT
10
0.056792
20
0.531450
30
0.0
11
0.057522
21
0.532790
31
0.0
0
LINE
8
FRONT
10
0.057522
20
0.532790
30
0.0
11
0.058115
21
0.534196
31
0.0
0
LINE
8
FRONT
10
0.058115
20
0.534196
30
0.0
11
0.058565
21
0.535655
31
0.0
0
LINE
8
FRONT
10
0.058565
20
0.535655
30
0.0
11
0.058867
21
0.537150
31
0.0
0
LINE
8
FRONT
10
0.058867
20
0.537150
30
0.0
11
0.059019
21
0.538669
31
0.0
0
LINE
8
FRONT
10
0.059019
20
0.538669
30
0.0
11
0.059019
21
0.540194
31
0.0
0
LINE
8
FRONT
10
0.059019
20
0.540194
30
0.0
11
0.058867
21
0.541713
31
0.0
0
LINE
8
FRONT
10
0.058867
20
0.541713
30
0.0
11
0.058565
21
0.543208
31
0.0
0
LINE
8
FRONT
10
0.058565
20
0.543208
30
0.0
11
0.058115
21
0.544666
31
0.0
0
LINE
8
FRONT
10
0.058115
20
0.544666
30
0.0
11
0.057522
21
0.546073
31
0.0
0
LINE
8
FRONT
10
0.057522
20
0.546073
30
0.0
11
0.056792
21
0.547413
31
0.0
0
LINE
8
FRONT
10
0.056792
20
0.547413
30
0.0
11
0.055933
21
0.548673
31
0.0
0
LINE
8
FRONT
10
0.055933
20
0.548673
30
0.0
11
0.054952
21
0.549842
31
0.0
0
LINE
8
FRONT
10
0.054952
20
0.549842
30
0.0
11
0.053860
21
0.550908
31
0.0
0
LINE
8
FRONT
10
0.053860
20
0.550908
30
0.0
11
0.052667
21
0.551859
31
0.0
0
LINE
8
FRONT
10
0.052667
20
0.551859
30
0.0
11
0.051385
21
0.552687
31
0.0
0
LINE
8
FRONT
10
0.051385
20
0.552687
30
0.0
11
0.050027
21
0.553383
31
0.0
0
LINE
8
FRONT
10
0.050027
20
0.553383
30
0.0
11
0.048607
21
0.553941
31
0.0
0
LINE
8
FRONT
10
0.048607
20
0.553941
30
0.0
11
0.047138
21
0.554354
31
0.0
0
LINE
8
FRONT
10
0.047138
20
0.554354
30
0.0
11
0.045635
21
0.554619
31
0.0
0
LINE
8
FRONT
10
0.045635
20
0.554619
30
0.0
11
0.044113
21
0.554733
31
0.0
0
LINE
8
FRONT
10
0.044113
20
0.554733
30
0.0
11
0.042588
21
0.554695
31
0.0
0
LINE
8
FRONT
10
0.042588
20
0.554695
30
0.0
11
0.041074
21
0.554505
31
0.0
0
LINE
8
FRONT
10
0.041074
20
0.554505
30
0.0
11
0.039586
21
0.554166
31
0.0
0
LINE
8
FRONT
10
0.039586
20
0.554166
30
0.0
11
0.038140
21
0.553680
31
0.0
0
LINE
8
FRONT
10
0.038140
20
0.553680
30
0.0
11
0.036749
21
0.553052
31
0.0
0
LINE
8
FRONT
10
0.036749
20
0.553052
30
0.0
11
0.035427
21
0.552289
31
0.0
0
LINE
8
FRONT
10
0.035427
20
0.552289
30
0.0
11
0.034189
21
0.551398
31
0.0
0
LINE
8
FRONT
10
0.034189
20
0.551398
30
0.0
11
0.033044
21
0.550389
31
0.0
0
LINE
8
FRONT
10
0.033044
20
0.550389
30
0.0
11
0.032007
21
0.549270
31
0.0
0
LINE
8
FRONT
10
0.032007
20
0.549270
30
0.0
11
0.031085
21
0.548054
31
0.0
0
LINE
8
FRONT
10
0.031085
20
0.548054
30
0.0
11
0.030290
21
0.546752
31
0.0
0
LINE
8
FRONT
10
0.030290
20
0.546752
30
0.0
11
0.029628
21
0.545377
31
0.0
0
LINE
8
FRONT
10
0.029628
20
0.545377
30
0.0
11
0.029106
21
0.543943
31
0.0
0
LINE
8
FRONT
10
0.029106
20
0.543943
30
0.0
11
0.028729
21
0.542464
31
0.0
0
LINE
8
FRONT
10
0.028729
20
0.542464
30
0.0
11
0.028502
21
0.540955
31
0.0
0
LINE
8
FRONT
10
0.028502
20
0.540955
30
0.0
11
0.028426
21
0.539431
31
0.0
0
LINE
8
FRONT
10
0.028426
20
0.829155
30
0.0
11
0.028502
21
0.827631
31
0.0
0
LINE
8
FRONT
10
0.028502
20
0.827631
30
0.0
11
0.028729
21
0.826122
31
0.0
0
LINE
8
FRONT
10
0.028729
20
0.826122
30
0.0
11
0.029106
21
0.824643
31
0.0
0
LINE
8
FRONT
10
0.029106
20
0.824643
30
0.0
11
0.029628
21
0.823209
31
0.0
0
LINE
8
FRONT
10
0.029628
20
0.823209
30
0.0
11
0.030290
21
0.821834
31
0.0
0
LINE
8
FRONT
10
0.030290
20
0.821834
30
0.0
11
0.031085
21
0.820532
31
0.0
0
LINE
8
FRONT
10
0.031085
20
0.820532
30
0.0
11
0.032007
21
0.819316
31
0.0
0
LINE
8
FRONT
10
0.032007
20
0.819316
30
0.0
11
0.033044
21
0.818197
31
0.0
0
LINE
8
FRONT
10
0.033044
20
0.818197
30
0.0
11
0.034189
21
0.817188
31
0.0
0
LINE
8
FRONT
10
0.034189
20
0.817188
30
0.0
11
0.035427
21
0.816297
31
0.0
0
LINE
8
FRONT
10
0.035427
20
0.816297
30
0.0
11
0.036749
21
0.815534
31
0.0
0
LINE
8
FRONT
10
0.036749
20
0.815534
30
0.0
11
0.038140
21
0.814906
31
0.0
0
LINE
8
FRONT
10
0.038140
20
0.814906
30
0.0
11
0.039586
21
0.814420
31
0.0
0
LINE
8
FRONT
10
0.039586
20
0.814420
30
0.0
11
0.041074
21
0.814081
31
0.0
0
LINE
8
FRONT
10
0.041074
20
0.814081
30
0.0
11
0.042588
21
0.813891
31
0.0
0
LINE
8
FRONT
10
0.042588
20
0.813891
30
0.0
11
0.044113
21
0.813853
31
0.0
0
LINE
8
FRONT
10
0.044113
20
0.813853
30
0.0
11
0.045635
21
0.813967
31
0.0
0
LINE
8
FRONT
10
0.045635
20
0.813967
30
0.0
11
0.047138
21
0.814232
31
0.0
0
LINE
8
FRONT
10
0.047138
20
0.814232
30
0.0
11
0.048607
21
0.814645
31
0.0
0
LINE
8
FRONT
10
0.048607
20
0.814645
30
0.0
11
0.050027
21
0.815203
31
0.0
0
LINE
8
FRONT
10
0.050027
20
0.815203
30
0.0
11
0.051385
21
0.815899
31
0.0
0
LINE
8
FRONT
10
0.051385
20
0.815899
30
0.0
11
0.052667
21
0.816727
31
0.0
0
LINE
8
FRONT
10
0.052667
20
0.816727
30
0.0
11
0.053860
21
0.817678
31
0.0
0
LINE
8
FRONT
10
0.053860
20
0.817678
30
0.0
11
0.054952
21
0.818744
31
0.0
0
LINE
8
FRONT
10
0.054952
20
0.818744
30
0.0
11
0.055933
21
0.819913
31
0.0
0
LINE
8
FRONT
10
0.055933
20
0.819913
30
0.0
11
0.056792
21
0.821173
31
0.0
0
LINE
8
FRONT
10
0.056792
20
0.821173
30
0.0
11
0.057522
21
0.822513
31
0.0
0
LINE
8
FRONT
10
0.057522
20
0.822513
30
0.0
11
0.058115
21
0.823920
31
0.0
0
LINE
8
FRONT
10
0.058115
20
0.823920
30
0.0
11
0.058565
21
0.825378
31
0.0
0
LINE
8
FRONT
10
0.058565
20
0.825378
30
0.0
11
0.058867
21
0.826873
31
0.0
0
LINE
8
FRONT
10
0.058867
20
0.826873
30
0.0
11
0.059019
21
0.828392
31
0.0
0
LINE
8
FRONT
10
0.059019
20
0.828392
30
0.0
11
0.059019
21
0.829917
31
0.0
0
LINE
8
FRONT
10
0.059019
20
0.829917
30
0.0
11
0.058867
21
0.831436
31
0.0
0
LINE
8
FRONT
10
0.058867
20
0.831436
30
0.0
11
0.058565
21
0.832931
31
0.0
0
LINE
8
FRONT
10
0.058565
20
0.832931
30
0.0
11
0.058115
21
0.834390
31
0.0
0
LINE
8
FRONT
10
0.058115
20
0.834390
30
0.0
11
0.057522
21
0.835796
31
0.0
0
LINE
8
FRONT
10
0.057522
20
0.835796
30
0.0
11
0.056792
21
0.837136
31
0.0
0
LINE
8
FRONT
10
0.056792
20
0.837136
30
0.0
11
0.055933
21
0.838396
31
0.0
0
LINE
8
FRONT
10
0.055933
20
0.838396
30
0.0
11
0.054952
21
0.839565
31
0.0
0
LINE
8
FRONT
10
0.054952
20
0.839565
30
0.0
11
0.053860
21
0.840631
31
0.0
0
LINE
8
FRONT
10
0.053860
20
0.840631
30
0.0
11
0.052667
21
0.841582
31
0.0
0
LINE
8
FRONT
10
0.052667
20
0.841582
30
0.0
11
0.051385
21
0.842410
31
0.0
0
LINE
8
FRONT
10
0.051385
20
0.842410
30
0.0
11
0.050027
21
0.843106
31
0.0
0
LINE
8
FRONT
10
0.050027
20
0.843106
30
0.0
11
0.048607
21
0.843664
31
0.0
0
LINE
8
FRONT
10
0.048607
20
0.843664
30
0.0
11
0.047138
21
0.844077
31
0.0
0
LINE
8
FRONT
10
0.047138
20
0.844077
30
0.0
11
0.045635
21
0.844342
31
0.0
0
LINE
8
FRONT
10
0.045635
20
0.844342
30
0.0
11
0.044113
21
0.844456
31
0.0
0
LINE
8
FRONT
10
0.044113
20
0.844456
30
0.0
11
0.042588
21
0.844418
31
0.0
0
LINE
8
FRONT
10
0.042588
20
0.844418
30
0.0
11
0.041074
21
0.844228
31
0.0
0
LINE
8
FRONT
10
0.041074
20
0.844228
30
0.0
11
0.039586
21
0.843889
31
0.0
0
LINE
8
FRONT
10
0.039586
20
0.843889
30
0.0
11
0.038140
21
0.843403
31
0.0
0
LINE
8
FRONT
10
0.038140
20
0.843403
30
0.0
11
0.036749
21
0.842775
31
0.0
0
LINE
8
FRONT
10
0.036749
20
0.842775
30
0.0
11
0.035427
21
0.842012
31
0.0
0
LINE
8
FRONT
10
0.035427
20
0.842012
30
0.0
11
0.034189
21
0.841121
31
0.0
0
LINE
8
FRONT
10
0.034189
20
0.841121
30
0.0
11
0.033044
21
0.840112
31
0.0
0
LINE
8
FRONT
10
0.033044
20
0.840112
30
0.0
11
0.032007
21
0.838993
31
0.0
0
LINE
8
FRONT
10
0.032007
20
0.838993
30
0.0
11
0.031085
21
0.837777
31
0.0
0
LINE
8
FRONT
10
0.031085
20
0.837777
30
0.0
11
0.030290
21
0.836475
31
0.0
0
LINE
8
FRONT
10
0.030290
20
0.836475
30
0.0
11
0.029628
21
0.835100
31
0.0
0
LINE
8
FRONT
10
0.029628
20
0.835100
30
0.0
11
0.029106
21
0.833666
31
0.0
0
LINE
8
FRONT
10
0.029106
20
0.833666
30
0.0
11
0.028729
21
0.832187
31
0.0
0
LINE
8
FRONT
10
0.028729
20
0.832187
30
0.0
11
0.028502
21
0.830679
31
0.0
0
LINE
8
FRONT
10
0.028502
20
0.830679
30
0.0
11
0.028426
21
0.829155
31
0.0
0
LINE
8
FRONT
10
0.028426
20
0.914431
30
0.0
11
0.028502
21
0.912907
31
0.0
0
LINE
8
FRONT
10
0.028502
20
0.912907
30
0.0
11
0.028729
21
0.911399
31
0.0
0
LINE
8
FRONT
10
0.028729
20
0.911399
30
0.0
11
0.029106
21
0.909920
31
0.0
0
LINE
8
FRONT
10
0.029106
20
0.909920
30
0.0
11
0.029628
21
0.908486
31
0.0
0
LINE
8
FRONT
10
0.029628
20
0.908486
30
0.0
11
0.030290
21
0.907111
31
0.0
0
LINE
8
FRONT
10
0.030290
20
0.907111
30
0.0
11
0.031085
21
0.905809
31
0.0
0
LINE
8
FRONT
10
0.031085
20
0.905809
30
0.0
11
0.032007
21
0.904593
31
0.0
0
LINE
8
FRONT
10
0.032007
20
0.904593
30
0.0
11
0.033044
21
0.903474
31
0.0
0
LINE
8
FRONT
10
0.033044
20
0.903474
30
0.0
11
0.034189
21
0.902465
31
0.0
0
LINE
8
FRONT
10
0.034189
20
0.902465
30
0.0
11
0.035427
21
0.901574
31
0.0
0
LINE
8
FRONT
10
0.035427
20
0.901574
30
0.0
11
0.036749
21
0.900811
31
0.0
0
LINE
8
FRONT
10
0.036749
20
0.900811
30
0.0
11
0.038140
21
0.900183
31
0.0
0
LINE
8
FRONT
10
0.038140
20
0.900183
30
0.0
11
0.039586
21
0.899697
31
0.0
0
LINE
8
FRONT
10
0.039586
20
0.899697
30
0.0
11
0.041074
21
0.899358
31
0.0
0
LINE
8
FRONT
10
0.041074
20
0.899358
30
0.0
11
0.042588
21
0.899168
31
0.0
0
LINE
8
FRONT
10
0.042588
20
0.899168
30
0.0
11
0.044113
21
0.899130
31
0.0
0
LINE
8
FRONT
10
0.044113
20
0.899130
30
0.0
11
0.045635
21
0.899244
31
0.0
0
LINE
8
FRONT
10
0.045635
20
0.899244
30
0.0
11
0.047138
21
0.899509
31
0.0
0
LINE
8
FRONT
10
0.047138
20
0.899509
30
0.0
11
0.048607
21
0.899922
31
0.0
0
LINE
8
FRONT
10
0.048607
20
0.899922
30
0.0
11
0.050027
21
0.900480
31
0.0
0
LINE
8
FRONT
10
0.050027
20
0.900480
30
0.0
11
0.051385
21
0.901176
31
0.0
0
LINE
8
FRONT
10
0.051385
20
0.901176
30
0.0
11
0.052667
21
0.902004
31
0.0
0
LINE
8
FRONT
10
0.052667
20
0.902004
30
0.0
11
0.053860
21
0.902955
31
0.0
0
LINE
8
FRONT
10
0.053860
20
0.902955
30
0.0
11
0.054952
21
0.904021
31
0.0
0
LINE
8
FRONT
10
0.054952
20
0.904021
30
0.0
11
0.055933
21
0.905190
31
0.0
0
LINE
8
FRONT
10
0.055933
20
0.905190
30
0.0
11
0.056792
21
0.906450
31
0.0
0
LINE
8
FRONT
10
0.056792
20
0.906450
30
0.0
11
0.057522
21
0.907790
31
0.0
0
LINE
8
FRONT
10
0.057522
20
0.907790
30
0.0
11
0.058115
21
0.909196
31
0.0
0
LINE
8
FRONT
10
0.058115
20
0.909196
30
0.0
11
0.058565
21
0.910655
31
0.0
0
LINE
8
FRONT
10
0.058565
20
0.910655
30
0.0
11
0.058867
21
0.912150
31
0.0
0
LINE
8
FRONT
10
0.058867
20
0.912150
30
0.0
11
0.059019
21
0.913669
31
0.0
0
LINE
8
FRONT
10
0.059019
20
0.913669
30
0.0
11
0.059019
21
0.915194
31
0.0
0
LINE
8
FRONT
10
0.059019
20
0.915194
30
0.0
11
0.058867
21
0.916713
31
0.0
0
LINE
8
FRONT
10
0.058867
20
0.916713
30
0.0
11
0.058565
21
0.918208
31
0.0
0
LINE
8
FRONT
10
0.058565
20
0.918208
30
0.0
11
0.058115
21
0.919666
31
0.0
0
LINE
8
FRONT
10
0.058115
20
0.919666
30
0.0
11
0.057522
21
0.921073
31
0.0
0
LINE
8
FRONT
10
0.057522
20
0.921073
30
0.0
11
0.056792
21
0.922413
31
0.0
0
LINE
8
FRONT
10
0.056792
20
0.922413
30
0.0
11
0.055933
21
0.923673
31
0.0
0
LINE
8
FRONT
10
0.055933
20
0.923673
30
0.0
11
0.054952
21
0.924842
31
0.0
0
LINE
8
FRONT
10
0.054952
20
0.924842
30
0.0
11
0.053860
21
0.925908
31
0.0
0
LINE
8
FRONT
10
0.053860
20
0.925908
30
0.0
11
0.052667
21
0.926859
31
0.0
0
LINE
8
FRONT
10
0.052667
20
0.926859
30
0.0
11
0.051385
21
0.927687
31
0.0
0
LINE
8
FRONT
10
0.051385
20
0.927687
30
0.0
11
0.050027
21
0.928383
31
0.0
0
LINE
8
FRONT
10
0.050027
20
0.928383
30
0.0
11
0.048607
21
0.928941
31
0.0
0
LINE
8
FRONT
10
0.048607
20
0.928941
30
0.0
11
0.047138
21
0.929354
31
0.0
0
LINE
8
FRONT
10
0.047138
20
0.929354
30
0.0
11
0.045635
21
0.929619
31
0.0
0
LINE
8
FRONT
10
0.045635
20
0.929619
30
0.0
11
0.044113
21
0.929733
31
0.0
0
LINE
8
FRONT
10
0.044113
20
0.929733
30
0.0
11
0.042588
21
0.929695
31
0.0
0
LINE
8
FRONT
10
0.042588
20
0.929695
30
0.0
11
0.041074
21
0.929505
31
0.0
0
LINE
8
FRONT
10
0.041074
20
0.929505
30
0.0
11
0.039586
21
0.929166
31
0.0
0
LINE
8
FRONT
10
0.039586
20
0.929166
30
0.0
11
0.038140
21
0.928680
31
0.0
0
LINE
8
FRONT
10
0.038140
20
0.928680
30
0.0
11
0.036749
21
0.928052
31
0.0
0
LINE
8
FRONT
10
0.036749
20
0.928052
30
0.0
11
0.035427
21
0.927289
31
0.0
0
LINE
8
FRONT
10
0.035427
20
0.927289
30
0.0
11
0.034189
21
0.926398
31
0.0
0
LINE
8
FRONT
10
0.034189
20
0.926398
30
0.0
11
0.033044
21
0.925389
31
0.0
0
LINE
8
FRONT
10
0.033044
20
0.925389
30
0.0
11
0.032007
21
0.924270
31
0.0
0
LINE
8
FRONT
10
0.032007
20
0.924270
30
0.0
11
0.031085
21
0.923054
31
0.0
0
LINE
8
FRONT
10
0.031085
20
0.923054
30
0.0
11
0.030290
21
0.921752
31
0.0
0
LINE
8
FRONT
10
0.030290
20
0.921752
30
0.0
11
0.029628
21
0.920377
31
0.0
0
LINE
8
FRONT
10
0.029628
20
0.920377
30
0.0
11
0.029106
21
0.918943
31
0.0
0
LINE
8
FRONT
10
0.029106
20
0.918943
30
0.0
11
0.028729
21
0.917464
31
0.0
0
LINE
8
FRONT
10
0.028729
20
0.917464
30
0.0
11
0.028502
21
0.915955
31
0.0
0
LINE
8
FRONT
10
0.028502
20
0.915955
30
0.0
11
0.028426
21
0.914431
31
0.0
0
LINE
8
LEFT
10
0.326239
20
0.234402
30
0.0
11
0.326239
21
0.208163
31
0.0
0
LINE
8
LEFT
10
0.326239
20
0.208163
30
0.0
11
0.337172
21
0.208163
31
0.0
0
LINE
8
LEFT
10
0.337172
20
0.234402
30
0.0
11
0.337172
21
0.208163
31
0.0
0
LINE
8
LEFT
10
0.337172
20
0.208163
30
0.0
11
0.337172
21
0.168805
31
0.0
0
LINE
8
LEFT
10
0.326239
20
0.168805
30
0.0
11
0.337172
21
0.168805
31
0.0
0
LINE
8
LEFT
10
0.326239
20
0.208163
30
0.0
11
0.326239
21
0.168805
31
0.0
0
LINE
8
LEFT
10
0.326239
20
0.958163
30
0.0
11
0.337172
21
0.958163
31
0.0
0
LINE
8
LEFT
10
0.326239
20
0.958163
30
0.0
11
0.326239
21
0.931924
31
0.0
0
LINE
8
LEFT
10
0.337172
20
0.958163
30
0.0
11
0.337172
21
0.931924
31
0.0
0
LINE
8
LEFT
10
0.337172
20
0.931924
30
0.0
11
0.337172
21
0.234402
31
0.0
0
LINE
8
LEFT
10
0.326239
20
0.931924
30
0.0
11
0.326239
21
0.234402
31
0.0
0
LINE
8
LEFT
10
0.326239
20
0.234402
30
0.0
11
0.337172
21
0.234402
31
0.0
0
LINE
8
LEFT
10
0.326239
20
0.931924
30
0.0
11
0.337172
21
0.931924
31
0.0
0
LINE
8
LEFT_HID
6
HIDDEN
10
0.326239
20
0.168805
30
0.0
11
0.326239
21
0.195044
31
0.0
0
LINE
8
LEFT_HID
6
HIDDEN
10
0.337172
20
0.168805
30
0.0
11
0.337172
21
0.195044
31
0.0
0
LINE
8
LEFT_HID
6
HIDDEN
10
0.337172
20
0.195044
30
0.0
11
0.337172
21
0.824781
31
0.0
0
LINE
8
LEFT_HID
6
HIDDEN
10
0.326239
20
0.195044
30
0.0
11
0.326239
21
0.824781
31
0.0
0
LINE
8
LEFT_HID
6
HIDDEN
10
0.326239
20
0.824781
30
0.0
11
0.326239
21
0.851020
31
0.0
0
LINE
8
LEFT_HID
6
HIDDEN
10
0.326239
20
0.851020
30
0.0
11
0.337172
21
0.851020
31
0.0
0
LINE
8
LEFT_HID
6
HIDDEN
10
0.337172
20
0.824781
30
0.0
11
0.337172
21
0.851020
31
0.0
0
LINE
8
LEFT_HID
6
HIDDEN
10
0.326239
20
0.851020
30
0.0
11
0.337172
21
0.851020
31
0.0
0
LINE
8
LEFT_HID
6
HIDDEN
10
0.337172
20
0.851020
30
0.0
11
0.337172
21
0.958163
31
0.0
0
LINE
8
LEFT_HID
6
HIDDEN
10
0.326239
20
0.851020
30
0.0
11
0.326239
21
0.958163
31
0.0
0
LINE
8
LEFT_HID
6
HIDDEN
10
0.326239
20
0.249708
30
0.0
11
0.326239
21
0.234402
31
0.0
0
LINE
8
LEFT_HID
6
HIDDEN
10
0.326239
20
0.234402
30
0.0
11
0.326239
21
0.265015
31
0.0
0
LINE
8
LEFT_HID
6
HIDDEN
10
0.326239
20
0.265015
30
0.0
11
0.326239
21
0.249708
31
0.0
0
LINE
8
LEFT_HID
6
HIDDEN
10
0.337172
20
0.249708
30
0.0
11
0.337172
21
0.234402
31
0.0
0
LINE
8
LEFT_HID
6
HIDDEN
10
0.337172
20
0.234402
30
0.0
11
0.337172
21
0.265015
31
0.0
0
LINE
8
LEFT_HID
6
HIDDEN
10
0.337172
20
0.265015
30
0.0
11
0.337172
21
0.249708
31
0.0
0
LINE
8
LEFT_HID
6
HIDDEN
10
0.326239
20
0.539431
30
0.0
11
0.326239
21
0.524125
31
0.0
0
LINE
8
LEFT_HID
6
HIDDEN
10
0.326239
20
0.524125
30
0.0
11
0.326239
21
0.554738
31
0.0
0
LINE
8
LEFT_HID
6
HIDDEN
10
0.326239
20
0.554738
30
0.0
11
0.326239
21
0.539431
31
0.0
0
LINE
8
LEFT_HID
6
HIDDEN
10
0.337172
20
0.539431
30
0.0
11
0.337172
21
0.524125
31
0.0
0
LINE
8
LEFT_HID
6
HIDDEN
10
0.337172
20
0.524125
30
0.0
11
0.337172
21
0.554738
31
0.0
0
LINE
8
LEFT_HID
6
HIDDEN
10
0.337172
20
0.554738
30
0.0
11
0.337172
21
0.539431
31
0.0
0
LINE
8
LEFT_HID
6
HIDDEN
10
0.326239
20
0.829155
30
0.0
11
0.326239
21
0.813848
31
0.0
0
LINE
8
LEFT_HID
6
HIDDEN
10
0.326239
20
0.813848
30
0.0
11
0.326239
21
0.844461
31
0.0
0
LINE
8
LEFT_HID
6
HIDDEN
10
0.326239
20
0.844461
30
0.0
11
0.326239
21
0.829155
31
0.0
0
LINE
8
LEFT_HID
6
HIDDEN
10
0.337172
20
0.829155
30
0.0
11
0.337172
21
0.813848
31
0.0
0
LINE
8
LEFT_HID
6
HIDDEN
10
0.337172
20
0.813848
30
0.0
11
0.337172
21
0.844461
31
0.0
0
LINE
8
LEFT_HID
6
HIDDEN
10
0.337172
20
0.844461
30
0.0
11
0.337172
21
0.829155
31
0.0
0
LINE
8
LEFT_HID
6
HIDDEN
10
0.326239
20
0.914431
30
0.0
11
0.326239
21
0.899125
31
0.0
0
LINE
8
LEFT_HID
6
HIDDEN
10
0.326239
20
0.899125
30
0.0
11
0.326239
21
0.929738
31
0.0
0
LINE
8
LEFT_HID
6
HIDDEN
10
0.326239
20
0.929738
30
0.0
11
0.326239
21
0.914431
31
0.0
0
LINE
8
LEFT_HID
6
HIDDEN
10
0.337172
20
0.914431
30
0.0
11
0.337172
21
0.899125
31
0.0
0
LINE
8
LEFT_HID
6
HIDDEN
10
0.337172
20
0.899125
30
0.0
11
0.337172
21
0.929738
31
0.0
0
LINE
8
LEFT_HID
6
HIDDEN
10
0.337172
20
0.929738
30
0.0
11
0.337172
21
0.914431
31
0.0
0
LINE
8
LEFT_HID
6
HIDDEN
10
0.326239
20
0.195044
30
0.0
11
0.337172
21
0.195044
31
0.0
0
LINE
8
LEFT_HID
6
HIDDEN
10
0.326239
20
0.824781
30
0.0
11
0.337172
21
0.824781
31
0.0
0
LINE
8
LEFT_HID
6
HIDDEN
10
0.337172
20
0.265015
30
0.0
11
0.326239
21
0.265015
31
0.0
0
LINE
8
LEFT_HID
6
HIDDEN
10
0.337172
20
0.554738
30
0.0
11
0.326239
21
0.554738
31
0.0
0
LINE
8
LEFT_HID
6
HIDDEN
10
0.337172
20
0.524125
30
0.0
11
0.326239
21
0.524125
31
0.0
0
LINE
8
LEFT_HID
6
HIDDEN
10
0.337172
20
0.844461
30
0.0
11
0.326239
21
0.844461
31
0.0
0
LINE
8
LEFT_HID
6
HIDDEN
10
0.337172
20
0.813848
30
0.0
11
0.326239
21
0.813848
31
0.0
0
LINE
8
LEFT_HID
6
HIDDEN
10
0.337172
20
0.929738
30
0.0
11
0.326239
21
0.929738
31
0.0
0
LINE
8
LEFT_HID
6
HIDDEN
10
0.337172
20
0.899125
30
0.0
11
0.326239
21
0.899125
31
0.0
0
LINE
8
TOP
10
0.168367
20
0.010933
30
0.0
11
0.168367
21
0.000000
31
0.0
0
LINE
8
TOP
10
0.168367
20
0.010933
30
0.0
11
0.168367
21
0.000000
31
0.0
0
LINE
8
TOP
10
0.168367
20
0.010933
30
0.0
11
0.142128
21
0.010933
31
0.0
0
LINE
8
TOP
10
0.168367
20
0.000000
30
0.0
11
0.142128
21
0.000000
31
0.0
0
LINE
8
TOP
10
0.142128
20
0.000000
30
0.0
11
0.087464
21
0.000000
31
0.0
0
LINE
8
TOP
10
0.142128
20
0.010933
30
0.0
11
0.087464
21
0.010933
31
0.0
0
LINE
8
TOP
10
0.087464
20
0.010933
30
0.0
11
0.087464
21
0.000000
31
0.0
0
LINE
8
TOP
10
0.087464
20
0.000000
30
0.0
11
0.026239
21
0.000000
31
0.0
0
LINE
8
TOP
10
0.087464
20
0.010933
30
0.0
11
0.026239
21
0.010933
31
0.0
0
LINE
8
TOP
10
0.026239
20
0.010933
30
0.0
11
0.000000
21
0.010933
31
0.0
0
LINE
8
TOP
10
0.000000
20
0.010933
30
0.0
11
0.000000
21
0.000000
31
0.0
0
LINE
8
TOP
10
0.026239
20
0.000000
30
0.0
11
0.000000
21
0.000000
31
0.0
0
LINE
8
TOP
10
0.142128
20
0.010933
30
0.0
11
0.142128
21
0.000000
31
0.0
0
LINE
8
TOP
10
0.026239
20
0.010933
30
0.0
11
0.026239
21
0.000000
31
0.0
0
LINE
8
TOP_HID
6
HIDDEN
10
0.026239
20
0.000000
30
0.0
11
0.091837
21
0.000000
31
0.0
0
LINE
8
TOP_HID
6
HIDDEN
10
0.091837
20
0.010933
30
0.0
11
0.091837
21
0.000000
31
0.0
0
LINE
8
TOP_HID
6
HIDDEN
10
0.026239
20
0.010933
30
0.0
11
0.091837
21
0.010933
31
0.0
0
LINE
8
TOP_HID
6
HIDDEN
10
0.091837
20
0.010933
30
0.0
11
0.091837
21
0.000000
31
0.0
0
LINE
8
TOP_HID
6
HIDDEN
10
0.091837
20
0.000000
30
0.0
11
0.142128
21
0.000000
31
0.0
0
LINE
8
TOP_HID
6
HIDDEN
10
0.091837
20
0.010933
30
0.0
11
0.142128
21
0.010933
31
0.0
0
LINE
8
TOP_HID
6
HIDDEN
10
0.028426
20
0.010933
30
0.0
11
0.059038
21
0.010933
31
0.0
0
LINE
8
TOP_HID
6
HIDDEN
10
0.059038
20
0.010933
30
0.0
11
0.028426
21
0.010933
31
0.0
0
LINE
8
TOP_HID
6
HIDDEN
10
0.028426
20
0.010933
30
0.0
11
0.028426
21
0.000000
31
0.0
0
LINE
8
TOP_HID
6
HIDDEN
10
0.028426
20
0.000000
30
0.0
11
0.059038
21
0.000000
31
0.0
0
LINE
8
TOP_HID
6
HIDDEN
10
0.059038
20
0.000000
30
0.0
11
0.028426
21
0.000000
31
0.0
0
LINE
8
TOP_HID
6
HIDDEN
10
0.028426
20
0.010933
30
0.0
11
0.059038
21
0.010933
31
0.0
0
LINE
8
TOP_HID
6
HIDDEN
10
0.059038
20
0.010933
30
0.0
11
0.028426
21
0.010933
31
0.0
0
LINE
8
TOP_HID
6
HIDDEN
10
0.028426
20
0.010933
30
0.0
11
0.028426
21
0.000000
31
0.0
0
LINE
8
TOP_HID
6
HIDDEN
10
0.028426
20
0.000000
30
0.0
11
0.059038
21
0.000000
31
0.0
0
LINE
8
TOP_HID
6
HIDDEN
10
0.059038
20
0.000000
30
0.0
11
0.028426
21
0.000000
31
0.0
0
LINE
8
TOP_HID
6
HIDDEN
10
0.028426
20
0.010933
30
0.0
11
0.059038
21
0.010933
31
0.0
0
LINE
8
TOP_HID
6
HIDDEN
10
0.059038
20
0.010933
30
0.0
11
0.028426
21
0.010933
31
0.0
0
LINE
8
TOP_HID
6
HIDDEN
10
0.028426
20
0.010933
30
0.0
11
0.028426
21
0.000000
31
0.0
0
LINE
8
TOP_HID
6
HIDDEN
10
0.028426
20
0.000000
30
0.0
11
0.059038
21
0.000000
31
0.0
0
LINE
8
TOP_HID
6
HIDDEN
10
0.059038
20
0.000000
30
0.0
11
0.028426
21
0.000000
31
0.0
0
LINE
8
TOP_HID
6
HIDDEN
10
0.028426
20
0.010933
30
0.0
11
0.059038
21
0.010933
31
0.0
0
LINE
8
TOP_HID
6
HIDDEN
10
0.059038
20
0.010933
30
0.0
11
0.028426
21
0.010933
31
0.0
0
LINE
8
TOP_HID
6
HIDDEN
10
0.028426
20
0.010933
30
0.0
11
0.028426
21
0.000000
31
0.0
0
LINE
8
TOP_HID
6
HIDDEN
10
0.028426
20
0.000000
30
0.0
11
0.059038
21
0.000000
31
0.0
0
LINE
8
TOP_HID
6
HIDDEN
10
0.059038
20
0.000000
30
0.0
11
0.028426
21
0.000000
31
0.0
0
LINE
8
TOP_HID
6
HIDDEN
10
0.059038
20
0.000000
30
0.0
11
0.059038
21
0.010933
31
0.0
0
LINE
8
TOP_HID
6
HIDDEN
10
0.059038
20
0.000000
30
0.0
11
0.059038
21
0.010933
31
0.0
0
LINE
8
TOP_HID
6
HIDDEN
10
0.059038
20
0.000000
30
0.0
11
0.059038
21
0.010933
31
0.0
0
LINE
8
TOP_HID
6
HIDDEN
10
0.059038
20
0.000000
30
0.0
11
0.059038
21
0.010933
31
0.0
0
ENDSEC
0
EOF
