0
SECTION
2
HEADER
9
$ACADVER
1
AC1009
0
ENDSEC
0
SECTION
2
TABLES
0
TABLE
2
LTYPE
70
3
0
LTYPE
2
CONTINUOUS
70
0
3
Solid line
72
65
73
0
40
0.0
0
LTYPE
2
HIDDEN
70
0
3
__ __ __ __ __
72
65
73
2
40
0.037500
49
0.025013
49
-0.012488
0
LTYPE
2
CENTER
70
0
3
___ _ ___ _ ___
72
65
73
4
40
0.087488
49
0.049988
49
-0.012488
49
0.012488
49
-0.012488
0
ENDTAB
0
TABLE
2
LAYER
70
5
0
LAYER
2
0
70
0
62
7
6
CONTINUOUS
0
LAYER
2
FRONT
70
0
62
7
6
CONTINUOUS
0
LAYER
2
LEFT
70
0
62
7
6
CONTINUOUS
0
LAYER
2
LEFT_HID
70
0
62
7
6
HIDDEN
0
LAYER
2
TOP
70
0
62
7
6
CONTINUOUS
0
ENDTAB
0
ENDSEC
0
SECTION
2
ENTITIES
0
LINE
8
FRONT
10
0.000000
20
0.913666
30
0.0
11
0.000068
21
0.912305
31
0.0
0
LINE
8
FRONT
10
0.000068
20
0.912305
30
0.0
11
0.000271
21
0.910958
31
0.0
0
LINE
8
FRONT
10
0.000271
20
0.910958
30
0.0
11
0.000607
21
0.909637
31
0.0
0
LINE
8
FRONT
10
0.000607
20
0.909637
30
0.0
11
0.001073
21
0.908356
31
0.0
0
LINE
8
FRONT
10
0.001073
20
0.908356
30
0.0
11
0.001665
21
0.907128
31
0.0
0
LINE
8
FRONT
10
0.001665
20
0.907128
30
0.0
11
0.002375
21
0.905965
31
0.0
0
LINE
8
FRONT
10
0.002375
20
0.905965
30
0.0
11
0.003198
21
0.904879
31
0.0
0
LINE
8
FRONT
10
0.003198
20
0.904879
30
0.0
11
0.004125
21
0.903880
31
0.0
0
LINE
8
FRONT
10
0.004125
20
0.903880
30
0.0
11
0.005147
21
0.902978
31
0.0
0
LINE
8
FRONT
10
0.005147
20
0.902978
30
0.0
11
0.006254
21
0.902183
31
0.0
0
LINE
8
FRONT
10
0.006254
20
0.902183
30
0.0
11
0.007434
21
0.901501
31
0.0
0
LINE
8
FRONT
10
0.007434
20
0.901501
30
0.0
11
0.008676
21
0.900941
31
0.0
0
LINE
8
FRONT
10
0.008676
20
0.900941
30
0.0
11
0.009968
21
0.900507
31
0.0
0
LINE
8
FRONT
10
0.009968
20
0.900507
30
0.0
11
0.011297
21
0.900203
31
0.0
0
LINE
8
FRONT
10
0.011297
20
0.900203
30
0.0
11
0.012649
21
0.900034
31
0.0
0
LINE
8
FRONT
10
0.012649
20
0.900034
30
0.0
11
0.014011
21
0.900000
31
0.0
0
LINE
8
FRONT
10
0.014011
20
0.900000
30
0.0
11
0.015370
21
0.900102
31
0.0
0
LINE
8
FRONT
10
0.015370
20
0.900102
30
0.0
11
0.016713
21
0.900338
31
0.0
0
LINE
8
FRONT
10
0.016713
20
0.900338
30
0.0
11
0.018024
21
0.900708
31
0.0
0
LINE
8
FRONT
10
0.018024
20
0.900708
30
0.0
11
0.019293
21
0.901206
31
0.0
0
LINE
8
FRONT
10
0.019293
20
0.901206
30
0.0
11
0.020506
21
0.901827
31
0.0
0
LINE
8
FRONT
10
0.020506
20
0.901827
30
0.0
11
0.021651
21
0.902567
31
0.0
0
LINE
8
FRONT
10
0.021651
20
0.902567
30
0.0
11
0.022716
21
0.903416
31
0.0
0
LINE
8
FRONT
10
0.022716
20
0.903416
30
0.0
11
0.023692
21
0.904368
31
0.0
0
LINE
8
FRONT
10
0.023692
20
0.904368
30
0.0
11
0.024568
21
0.905412
31
0.0
0
LINE
8
FRONT
10
0.024568
20
0.905412
30
0.0
11
0.025335
21
0.906538
31
0.0
0
LINE
8
FRONT
10
0.025335
20
0.906538
30
0.0
11
0.025987
21
0.907735
31
0.0
0
LINE
8
FRONT
10
0.025987
20
0.907735
30
0.0
11
0.026517
21
0.908991
31
0.0
0
LINE
8
FRONT
10
0.026517
20
0.908991
30
0.0
11
0.026918
21
0.910293
31
0.0
0
LINE
8
FRONT
10
0.026918
20
0.910293
30
0.0
11
0.027188
21
0.911629
31
0.0
0
LINE
8
FRONT
10
0.027188
20
0.911629
30
0.0
11
0.027324
21
0.912985
31
0.0
0
LINE
8
FRONT
10
0.027324
20
0.912985
30
0.0
11
0.027324
21
0.914348
31
0.0
0
LINE
8
FRONT
10
0.027324
20
0.914348
30
0.0
11
0.027188
21
0.915704
31
0.0
0
LINE
8
FRONT
10
0.027188
20
0.915704
30
0.0
11
0.026918
21
0.917040
31
0.0
0
LINE
8
FRONT
10
0.026918
20
0.917040
30
0.0
11
0.026517
21
0.918342
31
0.0
0
LINE
8
FRONT
10
0.026517
20
0.918342
30
0.0
11
0.025987
21
0.919598
31
0.0
0
LINE
8
FRONT
10
0.025987
20
0.919598
30
0.0
11
0.025335
21
0.920795
31
0.0
0
LINE
8
FRONT
10
0.025335
20
0.920795
30
0.0
11
0.024568
21
0.921921
31
0.0
0
LINE
8
FRONT
10
0.024568
20
0.921921
30
0.0
11
0.023692
21
0.922965
31
0.0
0
LINE
8
FRONT
10
0.023692
20
0.922965
30
0.0
11
0.022716
21
0.923916
31
0.0
0
LINE
8
FRONT
10
0.022716
20
0.923916
30
0.0
11
0.021651
21
0.924766
31
0.0
0
LINE
8
FRONT
10
0.021651
20
0.924766
30
0.0
11
0.020506
21
0.925505
31
0.0
0
LINE
8
FRONT
10
0.020506
20
0.925505
30
0.0
11
0.019293
21
0.926127
31
0.0
0
LINE
8
FRONT
10
0.019293
20
0.926127
30
0.0
11
0.018024
21
0.926625
31
0.0
0
LINE
8
FRONT
10
0.018024
20
0.926625
30
0.0
11
0.016713
21
0.926994
31
0.0
0
LINE
8
FRONT
10
0.016713
20
0.926994
30
0.0
11
0.015370
21
0.927231
31
0.0
0
LINE
8
FRONT
10
0.015370
20
0.927231
30
0.0
11
0.014011
21
0.927333
31
0.0
0
LINE
8
FRONT
10
0.014011
20
0.927333
30
0.0
11
0.012649
21
0.927299
31
0.0
0
LINE
8
FRONT
10
0.012649
20
0.927299
30
0.0
11
0.011297
21
0.927129
31
0.0
0
LINE
8
FRONT
10
0.011297
20
0.927129
30
0.0
11
0.009968
21
0.926826
31
0.0
0
LINE
8
FRONT
10
0.009968
20
0.926826
30
0.0
11
0.008676
21
0.926392
31
0.0
0
LINE
8
FRONT
10
0.008676
20
0.926392
30
0.0
11
0.007434
21
0.925831
31
0.0
0
LINE
8
FRONT
10
0.007434
20
0.925831
30
0.0
11
0.006254
21
0.925150
31
0.0
0
LINE
8
FRONT
10
0.006254
20
0.925150
30
0.0
11
0.005147
21
0.924354
31
0.0
0
LINE
8
FRONT
10
0.005147
20
0.924354
30
0.0
11
0.004125
21
0.923453
31
0.0
0
LINE
8
FRONT
10
0.004125
20
0.923453
30
0.0
11
0.003198
21
0.922454
31
0.0
0
LINE
8
FRONT
10
0.003198
20
0.922454
30
0.0
11
0.002375
21
0.921367
31
0.0
0
LINE
8
FRONT
10
0.002375
20
0.921367
30
0.0
11
0.001665
21
0.920204
31
0.0
0
LINE
8
FRONT
10
0.001665
20
0.920204
30
0.0
11
0.001073
21
0.918976
31
0.0
0
LINE
8
FRONT
10
0.001073
20
0.918976
30
0.0
11
0.000607
21
0.917696
31
0.0
0
LINE
8
FRONT
10
0.000607
20
0.917696
30
0.0
11
0.000271
21
0.916375
31
0.0
0
LINE
8
FRONT
10
0.000271
20
0.916375
30
0.0
11
0.000068
21
0.915027
31
0.0
0
LINE
8
FRONT
10
0.000068
20
0.915027
30
0.0
11
0.000000
21
0.913666
31
0.0
0
LINE
8
LEFT
10
0.177324
20
0.913671
30
0.0
11
0.177324
21
0.900000
31
0.0
0
LINE
8
LEFT
10
0.177324
20
0.927341
30
0.0
11
0.177324
21
0.913671
31
0.0
0
LINE
8
LEFT
10
0.927324
20
0.913671
30
0.0
11
0.927324
21
0.900000
31
0.0
0
LINE
8
LEFT
10
0.927324
20
0.927341
30
0.0
11
0.927324
21
0.913671
31
0.0
0
LINE
8
LEFT
10
0.927324
20
0.927341
30
0.0
11
0.177324
21
0.927341
31
0.0
0
LINE
8
LEFT
10
0.927324
20
0.900000
30
0.0
11
0.177324
21
0.900000
31
0.0
0
LINE
8
LEFT_HID
6
HIDDEN
10
0.177324
20
0.900000
30
0.0
11
0.177324
21
0.927341
31
0.0
0
LINE
8
LEFT_HID
6
HIDDEN
10
0.927324
20
0.900000
30
0.0
11
0.927324
21
0.927341
31
0.0
0
LINE
8
TOP
10
0.027341
20
0.750000
30
0.0
11
0.000000
21
0.750000
31
0.0
0
LINE
8
TOP
10
0.000000
20
0.750000
30
0.0
11
0.000000
21
0.000000
31
0.0
0
LINE
8
TOP
10
0.027341
20
0.000000
30
0.0
11
0.000000
21
0.000000
31
0.0
0
LINE
8
TOP
10
0.027341
20
0.000000
30
0.0
11
0.027341
21
0.750000
31
0.0
0
ENDSEC
0
EOF
