0
SECTION
2
HEADER
9
$ACADVER
1
AC1009
0
ENDSEC
0
SECTION
2
TABLES
0
TABLE
2
LTYPE
70
3
0
LTYPE
2
CONTINUOUS
70
0
3
Solid line
72
65
73
0
40
0.0
0
LTYPE
2
HIDDEN
70
0
3
__ __ __ __ __
72
65
73
2
40
0.075000
49
0.050025
49
-0.024975
0
LTYPE
2
CENTER
70
0
3
___ _ ___ _ ___
72
65
73
4
40
0.174975
49
0.099975
49
-0.024975
49
0.024975
49
-0.024975
0
ENDTAB
0
TABLE
2
LAYER
70
6
0
LAYER
2
0
70
0
62
7
6
CONTINUOUS
0
LAYER
2
FRONT
70
0
62
7
6
CONTINUOUS
0
LAYER
2
FRONT_HID
70
0
62
7
6
HIDDEN
0
LAYER
2
LEFT
70
0
62
7
6
CONTINUOUS
0
LAYER
2
LEFT_HID
70
0
62
7
6
HIDDEN
0
LAYER
2
TOP
70
0
62
7
6
CONTINUOUS
0
ENDTAB
0
ENDSEC
0
SECTION
2
ENTITIES
0
LINE
8
FRONT
10
1.500000
20
1.799534
30
0.0
11
0.000000
21
1.799534
31
0.0
0
LINE
8
FRONT
10
1.500000
20
1.799534
30
0.0
11
1.500000
21
1.841200
31
0.0
0
LINE
8
FRONT
10
1.500000
20
1.841200
30
0.0
11
0.000000
21
1.841200
31
0.0
0
LINE
8
FRONT
10
0.000000
20
1.841200
30
0.0
11
0.000000
21
1.799534
31
0.0
0
LINE
8
FRONT_HID
6
HIDDEN
10
1.166667
20
1.799534
30
0.0
11
0.333333
21
1.799534
31
0.0
0
LINE
8
FRONT_HID
6
HIDDEN
10
0.333333
20
1.799534
30
0.0
11
1.166667
21
1.799534
31
0.0
0
LINE
8
FRONT_HID
6
HIDDEN
10
1.166667
20
1.799534
30
0.0
11
1.166667
21
1.841200
31
0.0
0
LINE
8
FRONT_HID
6
HIDDEN
10
1.166667
20
1.841200
30
0.0
11
0.333333
21
1.841200
31
0.0
0
LINE
8
FRONT_HID
6
HIDDEN
10
0.333333
20
1.841200
30
0.0
11
1.166667
21
1.841200
31
0.0
0
LINE
8
FRONT_HID
6
HIDDEN
10
0.333333
20
1.841200
30
0.0
11
0.333333
21
1.799534
31
0.0
0
LINE
8
LEFT
10
1.800000
20
1.799534
30
0.0
11
3.300000
21
1.799534
31
0.0
0
LINE
8
LEFT
10
1.800000
20
1.841200
30
0.0
11
3.300000
21
1.841200
31
0.0
0
LINE
8
LEFT
10
1.800000
20
1.841200
30
0.0
11
1.800000
21
1.799534
31
0.0
0
LINE
8
LEFT
10
3.300000
20
1.841200
30
0.0
11
3.300000
21
1.799534
31
0.0
0
LINE
8
LEFT_HID
6
HIDDEN
10
2.550000
20
1.799534
30
0.0
11
1.800000
21
1.799534
31
0.0
0
LINE
8
LEFT_HID
6
HIDDEN
10
3.300000
20
1.799534
30
0.0
11
2.550000
21
1.799534
31
0.0
0
LINE
8
LEFT_HID
6
HIDDEN
10
2.550000
20
1.841200
30
0.0
11
1.800000
21
1.841200
31
0.0
0
LINE
8
LEFT_HID
6
HIDDEN
10
3.300000
20
1.841200
30
0.0
11
2.550000
21
1.841200
31
0.0
0
LINE
8
LEFT_HID
6
HIDDEN
10
2.550000
20
1.799534
30
0.0
11
2.133333
21
1.799534
31
0.0
0
LINE
8
LEFT_HID
6
HIDDEN
10
2.133333
20
1.799534
30
0.0
11
2.966667
21
1.799534
31
0.0
0
LINE
8
LEFT_HID
6
HIDDEN
10
2.966667
20
1.799534
30
0.0
11
2.550000
21
1.799534
31
0.0
0
LINE
8
LEFT_HID
6
HIDDEN
10
2.550000
20
1.841200
30
0.0
11
2.133333
21
1.841200
31
0.0
0
LINE
8
LEFT_HID
6
HIDDEN
10
2.133333
20
1.841200
30
0.0
11
2.966667
21
1.841200
31
0.0
0
LINE
8
LEFT_HID
6
HIDDEN
10
2.966667
20
1.841200
30
0.0
11
2.550000
21
1.841200
31
0.0
0
LINE
8
LEFT_HID
6
HIDDEN
10
2.133333
20
1.841200
30
0.0
11
2.133333
21
1.799534
31
0.0
0
LINE
8
LEFT_HID
6
HIDDEN
10
2.966667
20
1.841200
30
0.0
11
2.966667
21
1.799534
31
0.0
0
LINE
8
TOP
10
1.499068
20
0.749767
30
0.0
11
1.495341
21
0.824443
31
0.0
0
LINE
8
TOP
10
1.495341
20
0.824443
30
0.0
11
1.484197
21
0.898376
31
0.0
0
LINE
8
TOP
10
1.484197
20
0.898376
30
0.0
11
1.465747
21
0.970833
31
0.0
0
LINE
8
TOP
10
1.465747
20
0.970833
30
0.0
11
1.440175
21
1.041093
31
0.0
0
LINE
8
TOP
10
1.440175
20
1.041093
30
0.0
11
1.407734
21
1.108457
31
0.0
0
LINE
8
TOP
10
1.407734
20
1.108457
30
0.0
11
1.368747
21
1.172257
31
0.0
0
LINE
8
TOP
10
1.368747
20
1.172257
30
0.0
11
1.323601
21
1.231858
31
0.0
0
LINE
8
TOP
10
1.323601
20
1.231858
30
0.0
11
1.272745
21
1.286667
31
0.0
0
LINE
8
TOP
10
1.272745
20
1.286667
30
0.0
11
1.216685
21
1.336140
31
0.0
0
LINE
8
TOP
10
1.216685
20
1.336140
30
0.0
11
1.155977
21
1.379786
31
0.0
0
LINE
8
TOP
10
1.155977
20
1.379786
30
0.0
11
1.091226
21
1.417171
31
0.0
0
LINE
8
TOP
10
1.091226
20
1.417171
30
0.0
11
1.023073
21
1.447922
31
0.0
0
LINE
8
TOP
10
1.023073
20
1.447922
30
0.0
11
0.952198
21
1.471735
31
0.0
0
LINE
8
TOP
10
0.952198
20
1.471735
30
0.0
11
0.879304
21
1.488373
31
0.0
0
LINE
8
TOP
10
0.879304
20
1.488373
30
0.0
11
0.805115
21
1.497670
31
0.0
0
LINE
8
TOP
10
0.805115
20
1.497670
30
0.0
11
0.730370
21
1.499534
31
0.0
0
LINE
8
TOP
10
0.730370
20
1.499534
30
0.0
11
0.655810
21
1.493946
31
0.0
0
LINE
8
TOP
10
0.655810
20
1.493946
30
0.0
11
0.582177
21
1.480963
31
0.0
0
LINE
8
TOP
10
0.582177
20
1.480963
30
0.0
11
0.510203
21
1.460712
31
0.0
0
LINE
8
TOP
10
0.510203
20
1.460712
30
0.0
11
0.440602
21
1.433396
31
0.0
0
LINE
8
TOP
10
0.440602
20
1.433396
30
0.0
11
0.374068
21
1.399286
31
0.0
0
LINE
8
TOP
10
0.374068
20
1.399286
30
0.0
11
0.311260
21
1.358720
31
0.0
0
LINE
8
TOP
10
0.311260
20
1.358720
30
0.0
11
0.252803
21
1.312103
31
0.0
0
LINE
8
TOP
10
0.252803
20
1.312103
30
0.0
11
0.199279
21
1.259896
31
0.0
0
LINE
8
TOP
10
0.199279
20
1.259896
30
0.0
11
0.151218
21
1.202620
31
0.0
0
LINE
8
TOP
10
0.151218
20
1.202620
30
0.0
11
0.109100
21
1.140843
31
0.0
0
LINE
8
TOP
10
0.109100
20
1.140843
30
0.0
11
0.073341
21
1.075180
31
0.0
0
LINE
8
TOP
10
0.073341
20
1.075180
30
0.0
11
0.044298
21
1.006282
31
0.0
0
LINE
8
TOP
10
0.044298
20
1.006282
30
0.0
11
0.022260
21
0.934835
31
0.0
0
LINE
8
TOP
10
0.022260
20
0.934835
30
0.0
11
0.007445
21
0.861549
31
0.0
0
LINE
8
TOP
10
0.007445
20
0.861549
30
0.0
11
0.000000
21
0.787151
31
0.0
0
LINE
8
TOP
10
0.000000
20
0.787151
30
0.0
11
0.000000
21
0.712382
31
0.0
0
LINE
8
TOP
10
0.000000
20
0.712382
30
0.0
11
0.007445
21
0.637985
31
0.0
0
LINE
8
TOP
10
0.007445
20
0.637985
30
0.0
11
0.022260
21
0.564699
31
0.0
0
LINE
8
TOP
10
0.022260
20
0.564699
30
0.0
11
0.044298
21
0.493252
31
0.0
0
LINE
8
TOP
10
0.044298
20
0.493252
30
0.0
11
0.073341
21
0.424354
31
0.0
0
LINE
8
TOP
10
0.073341
20
0.424354
30
0.0
11
0.109100
21
0.358690
31
0.0
0
LINE
8
TOP
10
0.109100
20
0.358690
30
0.0
11
0.151218
21
0.296914
31
0.0
0
LINE
8
TOP
10
0.151218
20
0.296914
30
0.0
11
0.199279
21
0.239637
31
0.0
0
LINE
8
TOP
10
0.199279
20
0.239637
30
0.0
11
0.252803
21
0.187431
31
0.0
0
LINE
8
TOP
10
0.252803
20
0.187431
30
0.0
11
0.311260
21
0.140813
31
0.0
0
LINE
8
TOP
10
0.311260
20
0.140813
30
0.0
11
0.374068
21
0.100248
31
0.0
0
LINE
8
TOP
10
0.374068
20
0.100248
30
0.0
11
0.440602
21
0.066137
31
0.0
0
LINE
8
TOP
10
0.440602
20
0.066137
30
0.0
11
0.510203
21
0.038821
31
0.0
0
LINE
8
TOP
10
0.510203
20
0.038821
30
0.0
11
0.582177
21
0.018571
31
0.0
0
LINE
8
TOP
10
0.582177
20
0.018571
30
0.0
11
0.655810
21
0.005587
31
0.0
0
LINE
8
TOP
10
0.655810
20
0.005587
30
0.0
11
0.730370
21
0.000000
31
0.0
0
LINE
8
TOP
10
0.730370
20
0.000000
30
0.0
11
0.805115
21
0.001864
31
0.0
0
LINE
8
TOP
10
0.805115
20
0.001864
30
0.0
11
0.879304
21
0.011161
31
0.0
0
LINE
8
TOP
10
0.879304
20
0.011161
30
0.0
11
0.952198
21
0.027799
31
0.0
0
LINE
8
TOP
10
0.952198
20
0.027799
30
0.0
11
1.023073
21
0.051612
31
0.0
0
LINE
8
TOP
10
1.023073
20
0.051612
30
0.0
11
1.091226
21
0.082363
31
0.0
0
LINE
8
TOP
10
1.091226
20
0.082363
30
0.0
11
1.155977
21
0.119747
31
0.0
0
LINE
8
TOP
10
1.155977
20
0.119747
30
0.0
11
1.216685
21
0.163393
31
0.0
0
LINE
8
TOP
10
1.216685
20
0.163393
30
0.0
11
1.272745
21
0.212867
31
0.0
0
LINE
8
TOP
10
1.272745
20
0.212867
30
0.0
11
1.323601
21
0.267676
31
0.0
0
LINE
8
TOP
10
1.323601
20
0.267676
30
0.0
11
1.368747
21
0.327277
31
0.0
0
LINE
8
TOP
10
1.368747
20
0.327277
30
0.0
11
1.407734
21
0.391076
31
0.0
0
LINE
8
TOP
10
1.407734
20
0.391076
30
0.0
11
1.440175
21
0.458441
31
0.0
0
LINE
8
TOP
10
1.440175
20
0.458441
30
0.0
11
1.465747
21
0.528701
31
0.0
0
LINE
8
TOP
10
1.465747
20
0.528701
30
0.0
11
1.484197
21
0.601157
31
0.0
0
LINE
8
TOP
10
1.484197
20
0.601157
30
0.0
11
1.495341
21
0.675091
31
0.0
0
LINE
8
TOP
10
1.495341
20
0.675091
30
0.0
11
1.499068
21
0.749767
31
0.0
0
LINE
8
TOP
10
1.165734
20
0.749767
30
0.0
11
1.163664
21
0.791253
31
0.0
0
LINE
8
TOP
10
1.163664
20
0.791253
30
0.0
11
1.157473
21
0.832328
31
0.0
0
LINE
8
TOP
10
1.157473
20
0.832328
30
0.0
11
1.147223
21
0.872582
31
0.0
0
LINE
8
TOP
10
1.147223
20
0.872582
30
0.0
11
1.133016
21
0.911615
31
0.0
0
LINE
8
TOP
10
1.133016
20
0.911615
30
0.0
11
1.114993
21
0.949039
31
0.0
0
LINE
8
TOP
10
1.114993
20
0.949039
30
0.0
11
1.093334
21
0.984484
31
0.0
0
LINE
8
TOP
10
1.093334
20
0.984484
30
0.0
11
1.068253
21
1.017595
31
0.0
0
LINE
8
TOP
10
1.068253
20
1.017595
30
0.0
11
1.040000
21
1.048045
31
0.0
0
LINE
8
TOP
10
1.040000
20
1.048045
30
0.0
11
1.008855
21
1.075530
31
0.0
0
LINE
8
TOP
10
1.008855
20
1.075530
30
0.0
11
0.975129
21
1.099778
31
0.0
0
LINE
8
TOP
10
0.975129
20
1.099778
30
0.0
11
0.939155
21
1.120547
31
0.0
0
LINE
8
TOP
10
0.939155
20
1.120547
30
0.0
11
0.901293
21
1.137631
31
0.0
0
LINE
8
TOP
10
0.901293
20
1.137631
30
0.0
11
0.861918
21
1.150860
31
0.0
0
LINE
8
TOP
10
0.861918
20
1.150860
30
0.0
11
0.821421
21
1.160103
31
0.0
0
LINE
8
TOP
10
0.821421
20
1.160103
30
0.0
11
0.780205
21
1.165268
31
0.0
0
LINE
8
TOP
10
0.780205
20
1.165268
30
0.0
11
0.738680
21
1.166304
31
0.0
0
LINE
8
TOP
10
0.738680
20
1.166304
30
0.0
11
0.697258
21
1.163200
31
0.0
0
LINE
8
TOP
10
0.697258
20
1.163200
30
0.0
11
0.656351
21
1.155987
31
0.0
0
LINE
8
TOP
10
0.656351
20
1.155987
30
0.0
11
0.616365
21
1.144737
31
0.0
0
LINE
8
TOP
10
0.616365
20
1.144737
30
0.0
11
0.577698
21
1.129561
31
0.0
0
LINE
8
TOP
10
0.577698
20
1.129561
30
0.0
11
0.540734
21
1.110611
31
0.0
0
LINE
8
TOP
10
0.540734
20
1.110611
30
0.0
11
0.505841
21
1.088074
31
0.0
0
LINE
8
TOP
10
0.505841
20
1.088074
30
0.0
11
0.473365
21
1.062176
31
0.0
0
LINE
8
TOP
10
0.473365
20
1.062176
30
0.0
11
0.443629
21
1.033172
31
0.0
0
LINE
8
TOP
10
0.443629
20
1.033172
30
0.0
11
0.416929
21
1.001352
31
0.0
0
LINE
8
TOP
10
0.416929
20
1.001352
30
0.0
11
0.393530
21
0.967032
31
0.0
0
LINE
8
TOP
10
0.393530
20
0.967032
30
0.0
11
0.373664
21
0.930552
31
0.0
0
LINE
8
TOP
10
0.373664
20
0.930552
30
0.0
11
0.357529
21
0.892275
31
0.0
0
LINE
8
TOP
10
0.357529
20
0.892275
30
0.0
11
0.345285
21
0.852582
31
0.0
0
LINE
8
TOP
10
0.345285
20
0.852582
30
0.0
11
0.337055
21
0.811868
31
0.0
0
LINE
8
TOP
10
0.337055
20
0.811868
30
0.0
11
0.332919
21
0.770536
31
0.0
0
LINE
8
TOP
10
0.332919
20
0.770536
30
0.0
11
0.332919
21
0.728998
31
0.0
0
LINE
8
TOP
10
0.332919
20
0.728998
30
0.0
11
0.337055
21
0.687666
31
0.0
0
LINE
8
TOP
10
0.337055
20
0.687666
30
0.0
11
0.345285
21
0.646951
31
0.0
0
LINE
8
TOP
10
0.345285
20
0.646951
30
0.0
11
0.357529
21
0.607258
31
0.0
0
LINE
8
TOP
10
0.357529
20
0.607258
30
0.0
11
0.373664
21
0.568982
31
0.0
0
LINE
8
TOP
10
0.373664
20
0.568982
30
0.0
11
0.393530
21
0.532502
31
0.0
0
LINE
8
TOP
10
0.393530
20
0.532502
30
0.0
11
0.416929
21
0.498182
31
0.0
0
LINE
8
TOP
10
0.416929
20
0.498182
30
0.0
11
0.443629
21
0.466362
31
0.0
0
LINE
8
TOP
10
0.443629
20
0.466362
30
0.0
11
0.473365
21
0.437358
31
0.0
0
LINE
8
TOP
10
0.473365
20
0.437358
30
0.0
11
0.505841
21
0.411459
31
0.0
0
LINE
8
TOP
10
0.505841
20
0.411459
30
0.0
11
0.540734
21
0.388923
31
0.0
0
LINE
8
TOP
10
0.540734
20
0.388923
30
0.0
11
0.577698
21
0.369973
31
0.0
0
LINE
8
TOP
10
0.577698
20
0.369973
30
0.0
11
0.616365
21
0.354797
31
0.0
0
LINE
8
TOP
10
0.616365
20
0.354797
30
0.0
11
0.656351
21
0.343547
31
0.0
0
LINE
8
TOP
10
0.656351
20
0.343547
30
0.0
11
0.697258
21
0.336334
31
0.0
0
LINE
8
TOP
10
0.697258
20
0.336334
30
0.0
11
0.738680
21
0.333230
31
0.0
0
LINE
8
TOP
10
0.738680
20
0.333230
30
0.0
11
0.780205
21
0.334265
31
0.0
0
LINE
8
TOP
10
0.780205
20
0.334265
30
0.0
11
0.821421
21
0.339430
31
0.0
0
LINE
8
TOP
10
0.821421
20
0.339430
30
0.0
11
0.861918
21
0.348673
31
0.0
0
LINE
8
TOP
10
0.861918
20
0.348673
30
0.0
11
0.901293
21
0.361903
31
0.0
0
LINE
8
TOP
10
0.901293
20
0.361903
30
0.0
11
0.939155
21
0.378987
31
0.0
0
LINE
8
TOP
10
0.939155
20
0.378987
30
0.0
11
0.975129
21
0.399756
31
0.0
0
LINE
8
TOP
10
0.975129
20
0.399756
30
0.0
11
1.008855
21
0.424004
31
0.0
0
LINE
8
TOP
10
1.008855
20
0.424004
30
0.0
11
1.040000
21
0.451489
31
0.0
0
LINE
8
TOP
10
1.040000
20
0.451489
30
0.0
11
1.068253
21
0.481939
31
0.0
0
LINE
8
TOP
10
1.068253
20
0.481939
30
0.0
11
1.093334
21
0.515050
31
0.0
0
LINE
8
TOP
10
1.093334
20
0.515050
30
0.0
11
1.114993
21
0.550494
31
0.0
0
LINE
8
TOP
10
1.114993
20
0.550494
30
0.0
11
1.133016
21
0.587919
31
0.0
0
LINE
8
TOP
10
1.133016
20
0.587919
30
0.0
11
1.147223
21
0.626952
31
0.0
0
LINE
8
TOP
10
1.147223
20
0.626952
30
0.0
11
1.157473
21
0.667206
31
0.0
0
LINE
8
TOP
10
1.157473
20
0.667206
30
0.0
11
1.163664
21
0.708280
31
0.0
0
LINE
8
TOP
10
1.163664
20
0.708280
30
0.0
11
1.165734
21
0.749767
31
0.0
0
ENDSEC
0
EOF
