0
SECTION
2
HEADER
9
$ACADVER
1
AC1009
0
ENDSEC
0
SECTION
2
TABLES
0
TABLE
2
LTYPE
70
3
0
LTYPE
2
CONTINUOUS
70
0
3
Solid line
72
65
73
0
40
0.0
0
LTYPE
2
HIDDEN
70
0
3
__ __ __ __ __
72
65
73
2
40
0.037500
49
0.025013
49
-0.012488
0
LTYPE
2
CENTER
70
0
3
___ _ ___ _ ___
72
65
73
4
40
0.087488
49
0.049988
49
-0.012488
49
0.012488
49
-0.012488
0
ENDTAB
0
TABLE
2
LAYER
70
5
0
LAYER
2
0
70
0
62
7
6
CONTINUOUS
0
LAYER
2
FRONT
70
0
62
7
6
CONTINUOUS
0
LAYER
2
LEFT
70
0
62
7
6
CONTINUOUS
0
LAYER
2
TOP
70
0
62
7
6
CONTINUOUS
0
LAYER
2
TOP_HID
70
0
62
7
6
HIDDEN
0
ENDTAB
0
ENDSEC
0
SECTION
2
ENTITIES
0
LINE
8
FRONT
10
0.000000
20
0.196875
30
0.0
11
0.000000
21
0.243750
31
0.0
0
LINE
8
FRONT
10
0.000000
20
0.243750
30
0.0
11
0.750000
21
0.243750
31
0.0
0
LINE
8
FRONT
10
0.750000
20
0.196875
30
0.0
11
0.750000
21
0.243750
31
0.0
0
LINE
8
FRONT
10
0.750000
20
0.196875
30
0.0
11
0.000000
21
0.196875
31
0.0
0
LINE
8
LEFT
10
0.923430
20
0.243721
30
0.0
11
0.925764
21
0.243604
31
0.0
0
LINE
8
LEFT
10
0.925764
20
0.243604
30
0.0
11
0.928074
21
0.243256
31
0.0
0
LINE
8
LEFT
10
0.928074
20
0.243256
30
0.0
11
0.930339
21
0.242680
31
0.0
0
LINE
8
LEFT
10
0.930339
20
0.242680
30
0.0
11
0.932534
21
0.241880
31
0.0
0
LINE
8
LEFT
10
0.932534
20
0.241880
30
0.0
11
0.934639
21
0.240867
31
0.0
0
LINE
8
LEFT
10
0.934639
20
0.240867
30
0.0
11
0.936633
21
0.239648
31
0.0
0
LINE
8
LEFT
10
0.936633
20
0.239648
30
0.0
11
0.938496
21
0.238238
31
0.0
0
LINE
8
LEFT
10
0.938496
20
0.238238
30
0.0
11
0.940208
21
0.236648
31
0.0
0
LINE
8
LEFT
10
0.940208
20
0.236648
30
0.0
11
0.941754
21
0.234896
31
0.0
0
LINE
8
LEFT
10
0.941754
20
0.234896
30
0.0
11
0.943118
21
0.232999
31
0.0
0
LINE
8
LEFT
10
0.943118
20
0.232999
30
0.0
11
0.944287
21
0.230976
31
0.0
0
LINE
8
LEFT
10
0.944287
20
0.230976
30
0.0
11
0.945248
21
0.228846
31
0.0
0
LINE
8
LEFT
10
0.945248
20
0.228846
30
0.0
11
0.945992
21
0.226631
31
0.0
0
LINE
8
LEFT
10
0.945992
20
0.226631
30
0.0
11
0.946512
21
0.224353
31
0.0
0
LINE
8
LEFT
10
0.946512
20
0.224353
30
0.0
11
0.946802
21
0.222035
31
0.0
0
LINE
8
LEFT
10
0.946802
20
0.222035
30
0.0
11
0.946860
21
0.219699
31
0.0
0
LINE
8
LEFT
10
0.946860
20
0.219699
30
0.0
11
0.946686
21
0.217369
31
0.0
0
LINE
8
LEFT
10
0.946686
20
0.217369
30
0.0
11
0.946280
21
0.215068
31
0.0
0
LINE
8
LEFT
10
0.946280
20
0.215068
30
0.0
11
0.945647
21
0.212819
31
0.0
0
LINE
8
LEFT
10
0.945647
20
0.212819
30
0.0
11
0.944794
21
0.210644
31
0.0
0
LINE
8
LEFT
10
0.944794
20
0.210644
30
0.0
11
0.943728
21
0.208565
31
0.0
0
LINE
8
LEFT
10
0.943728
20
0.208565
30
0.0
11
0.942460
21
0.206602
31
0.0
0
LINE
8
LEFT
10
0.942460
20
0.206602
30
0.0
11
0.941003
21
0.204775
31
0.0
0
LINE
8
LEFT
10
0.941003
20
0.204775
30
0.0
11
0.939372
21
0.203102
31
0.0
0
LINE
8
LEFT
10
0.939372
20
0.203102
30
0.0
11
0.937582
21
0.201601
31
0.0
0
LINE
8
LEFT
10
0.937582
20
0.201601
30
0.0
11
0.935651
21
0.200284
31
0.0
0
LINE
8
LEFT
10
0.935651
20
0.200284
30
0.0
11
0.933599
21
0.199167
31
0.0
0
LINE
8
LEFT
10
0.933599
20
0.199167
30
0.0
11
0.931446
21
0.198259
31
0.0
0
LINE
8
LEFT
10
0.931446
20
0.198259
30
0.0
11
0.929214
21
0.197571
31
0.0
0
LINE
8
LEFT
10
0.929214
20
0.197571
30
0.0
11
0.926923
21
0.197108
31
0.0
0
LINE
8
LEFT
10
0.926923
20
0.197108
30
0.0
11
0.924598
21
0.196875
31
0.0
0
LINE
8
LEFT
10
0.924598
20
0.196875
30
0.0
11
0.922262
21
0.196875
31
0.0
0
LINE
8
LEFT
10
0.922262
20
0.196875
30
0.0
11
0.919937
21
0.197108
31
0.0
0
LINE
8
LEFT
10
0.919937
20
0.197108
30
0.0
11
0.917647
21
0.197571
31
0.0
0
LINE
8
LEFT
10
0.917647
20
0.197571
30
0.0
11
0.915414
21
0.198259
31
0.0
0
LINE
8
LEFT
10
0.915414
20
0.198259
30
0.0
11
0.913261
21
0.199167
31
0.0
0
LINE
8
LEFT
10
0.913261
20
0.199167
30
0.0
11
0.911209
21
0.200284
31
0.0
0
LINE
8
LEFT
10
0.911209
20
0.200284
30
0.0
11
0.909279
21
0.201601
31
0.0
0
LINE
8
LEFT
10
0.909279
20
0.201601
30
0.0
11
0.907489
21
0.203102
31
0.0
0
LINE
8
LEFT
10
0.907489
20
0.203102
30
0.0
11
0.905857
21
0.204775
31
0.0
0
LINE
8
LEFT
10
0.905857
20
0.204775
30
0.0
11
0.904400
21
0.206602
31
0.0
0
LINE
8
LEFT
10
0.904400
20
0.206602
30
0.0
11
0.903133
21
0.208565
31
0.0
0
LINE
8
LEFT
10
0.903133
20
0.208565
30
0.0
11
0.902067
21
0.210644
31
0.0
0
LINE
8
LEFT
10
0.902067
20
0.210644
30
0.0
11
0.901213
21
0.212819
31
0.0
0
LINE
8
LEFT
10
0.901213
20
0.212819
30
0.0
11
0.900580
21
0.215068
31
0.0
0
LINE
8
LEFT
10
0.900580
20
0.215068
30
0.0
11
0.900175
21
0.217369
31
0.0
0
LINE
8
LEFT
10
0.900175
20
0.217369
30
0.0
11
0.900000
21
0.219699
31
0.0
0
LINE
8
LEFT
10
0.900000
20
0.219699
30
0.0
11
0.900058
21
0.222035
31
0.0
0
LINE
8
LEFT
10
0.900058
20
0.222035
30
0.0
11
0.900349
21
0.224353
31
0.0
0
LINE
8
LEFT
10
0.900349
20
0.224353
30
0.0
11
0.900869
21
0.226631
31
0.0
0
LINE
8
LEFT
10
0.900869
20
0.226631
30
0.0
11
0.901613
21
0.228846
31
0.0
0
LINE
8
LEFT
10
0.901613
20
0.228846
30
0.0
11
0.902574
21
0.230976
31
0.0
0
LINE
8
LEFT
10
0.902574
20
0.230976
30
0.0
11
0.903742
21
0.232999
31
0.0
0
LINE
8
LEFT
10
0.903742
20
0.232999
30
0.0
11
0.905106
21
0.234896
31
0.0
0
LINE
8
LEFT
10
0.905106
20
0.234896
30
0.0
11
0.906652
21
0.236648
31
0.0
0
LINE
8
LEFT
10
0.906652
20
0.236648
30
0.0
11
0.908365
21
0.238238
31
0.0
0
LINE
8
LEFT
10
0.908365
20
0.238238
30
0.0
11
0.910227
21
0.239648
31
0.0
0
LINE
8
LEFT
10
0.910227
20
0.239648
30
0.0
11
0.912221
21
0.240867
31
0.0
0
LINE
8
LEFT
10
0.912221
20
0.240867
30
0.0
11
0.914326
21
0.241880
31
0.0
0
LINE
8
LEFT
10
0.914326
20
0.241880
30
0.0
11
0.916522
21
0.242680
31
0.0
0
LINE
8
LEFT
10
0.916522
20
0.242680
30
0.0
11
0.918786
21
0.243256
31
0.0
0
LINE
8
LEFT
10
0.918786
20
0.243256
30
0.0
11
0.921097
21
0.243604
31
0.0
0
LINE
8
LEFT
10
0.921097
20
0.243604
30
0.0
11
0.923430
21
0.243721
31
0.0
0
LINE
8
TOP
10
0.000000
20
0.023438
30
0.0
11
0.000000
21
0.000000
31
0.0
0
LINE
8
TOP
10
0.000000
20
0.046875
30
0.0
11
0.000000
21
0.023438
31
0.0
0
LINE
8
TOP
10
0.750000
20
0.023438
30
0.0
11
0.750000
21
0.000000
31
0.0
0
LINE
8
TOP
10
0.750000
20
0.046875
30
0.0
11
0.750000
21
0.023438
31
0.0
0
LINE
8
TOP
10
0.750000
20
0.046875
30
0.0
11
0.000000
21
0.046875
31
0.0
0
LINE
8
TOP
10
0.750000
20
0.000000
30
0.0
11
0.000000
21
0.000000
31
0.0
0
LINE
8
TOP_HID
6
HIDDEN
10
0.000000
20
0.000000
30
0.0
11
0.000000
21
0.046875
31
0.0
0
LINE
8
TOP_HID
6
HIDDEN
10
0.750000
20
0.000000
30
0.0
11
0.750000
21
0.046875
31
0.0
0
ENDSEC
0
EOF
