0
SECTION
2
HEADER
9
$ACADVER
1
AC1009
0
ENDSEC
0
SECTION
2
TABLES
0
TABLE
2
LTYPE
70
3
0
LTYPE
2
CONTINUOUS
70
0
3
Solid line
72
65
73
0
40
0.0
0
LTYPE
2
HIDDEN
70
0
3
__ __ __ __ __
72
65
73
2
40
0.037500
49
0.025013
49
-0.012488
0
LTYPE
2
CENTER
70
0
3
___ _ ___ _ ___
72
65
73
4
40
0.087488
49
0.049988
49
-0.012488
49
0.012488
49
-0.012488
0
ENDTAB
0
TABLE
2
LAYER
70
6
0
LAYER
2
0
70
0
62
7
6
CONTINUOUS
0
LAYER
2
FRONT
70
0
62
7
6
CONTINUOUS
0
LAYER
2
FRONT_HID
70
0
62
7
6
HIDDEN
0
LAYER
2
LEFT
70
0
62
7
6
CONTINUOUS
0
LAYER
2
LEFT_HID
70
0
62
7
6
HIDDEN
0
LAYER
2
TOP
70
0
62
7
6
CONTINUOUS
0
ENDTAB
0
ENDSEC
0
SECTION
2
ENTITIES
0
LINE
8
FRONT
10
0.668750
20
0.818542
30
0.0
11
0.000000
21
0.818542
31
0.0
0
LINE
8
FRONT
10
0.668750
20
0.818542
30
0.0
11
0.668750
21
1.568542
31
0.0
0
LINE
8
FRONT
10
0.668750
20
1.568542
30
0.0
11
0.000000
21
1.568542
31
0.0
0
LINE
8
FRONT
10
0.000000
20
1.568542
30
0.0
11
0.000000
21
0.818542
31
0.0
0
LINE
8
FRONT_HID
6
HIDDEN
10
0.643750
20
0.818542
30
0.0
11
0.025000
21
0.818542
31
0.0
0
LINE
8
FRONT_HID
6
HIDDEN
10
0.025000
20
0.818542
30
0.0
11
0.643750
21
0.818542
31
0.0
0
LINE
8
FRONT_HID
6
HIDDEN
10
0.643750
20
0.818542
30
0.0
11
0.643750
21
1.568542
31
0.0
0
LINE
8
FRONT_HID
6
HIDDEN
10
0.643750
20
1.568542
30
0.0
11
0.025000
21
1.568542
31
0.0
0
LINE
8
FRONT_HID
6
HIDDEN
10
0.025000
20
1.568542
30
0.0
11
0.643750
21
1.568542
31
0.0
0
LINE
8
FRONT_HID
6
HIDDEN
10
0.025000
20
1.568542
30
0.0
11
0.025000
21
0.818542
31
0.0
0
LINE
8
LEFT
10
0.818750
20
0.818542
30
0.0
11
1.487500
21
0.818542
31
0.0
0
LINE
8
LEFT
10
0.818750
20
1.568542
30
0.0
11
1.487500
21
1.568542
31
0.0
0
LINE
8
LEFT
10
0.818750
20
1.568542
30
0.0
11
0.818750
21
0.818542
31
0.0
0
LINE
8
LEFT
10
1.487500
20
1.568542
30
0.0
11
1.487500
21
0.818542
31
0.0
0
LINE
8
LEFT_HID
6
HIDDEN
10
1.153125
20
0.818542
30
0.0
11
0.818750
21
0.818542
31
0.0
0
LINE
8
LEFT_HID
6
HIDDEN
10
1.487500
20
0.818542
30
0.0
11
1.153125
21
0.818542
31
0.0
0
LINE
8
LEFT_HID
6
HIDDEN
10
1.153125
20
1.568542
30
0.0
11
0.818750
21
1.568542
31
0.0
0
LINE
8
LEFT_HID
6
HIDDEN
10
1.487500
20
1.568542
30
0.0
11
1.153125
21
1.568542
31
0.0
0
LINE
8
LEFT_HID
6
HIDDEN
10
1.153125
20
0.818542
30
0.0
11
0.843750
21
0.818542
31
0.0
0
LINE
8
LEFT_HID
6
HIDDEN
10
0.843750
20
0.818542
30
0.0
11
1.462500
21
0.818542
31
0.0
0
LINE
8
LEFT_HID
6
HIDDEN
10
1.462500
20
0.818542
30
0.0
11
1.153125
21
0.818542
31
0.0
0
LINE
8
LEFT_HID
6
HIDDEN
10
1.153125
20
1.568542
30
0.0
11
0.843750
21
1.568542
31
0.0
0
LINE
8
LEFT_HID
6
HIDDEN
10
0.843750
20
1.568542
30
0.0
11
1.462500
21
1.568542
31
0.0
0
LINE
8
LEFT_HID
6
HIDDEN
10
1.462500
20
1.568542
30
0.0
11
1.153125
21
1.568542
31
0.0
0
LINE
8
LEFT_HID
6
HIDDEN
10
0.843750
20
1.568542
30
0.0
11
0.843750
21
0.818542
31
0.0
0
LINE
8
LEFT_HID
6
HIDDEN
10
1.462500
20
1.568542
30
0.0
11
1.462500
21
0.818542
31
0.0
0
LINE
8
TOP
10
0.668334
20
0.334271
30
0.0
11
0.666673
21
0.367564
31
0.0
0
LINE
8
TOP
10
0.666673
20
0.367564
30
0.0
11
0.661705
21
0.400526
31
0.0
0
LINE
8
TOP
10
0.661705
20
0.400526
30
0.0
11
0.653479
21
0.432830
31
0.0
0
LINE
8
TOP
10
0.653479
20
0.432830
30
0.0
11
0.642078
21
0.464154
31
0.0
0
LINE
8
TOP
10
0.642078
20
0.464154
30
0.0
11
0.627615
21
0.494187
31
0.0
0
LINE
8
TOP
10
0.627615
20
0.494187
30
0.0
11
0.610233
21
0.522631
31
0.0
0
LINE
8
TOP
10
0.610233
20
0.522631
30
0.0
11
0.590105
21
0.549203
31
0.0
0
LINE
8
TOP
10
0.590105
20
0.549203
30
0.0
11
0.567432
21
0.573639
31
0.0
0
LINE
8
TOP
10
0.567432
20
0.573639
30
0.0
11
0.542439
21
0.595696
31
0.0
0
LINE
8
TOP
10
0.542439
20
0.595696
30
0.0
11
0.515373
21
0.615155
31
0.0
0
LINE
8
TOP
10
0.515373
20
0.615155
30
0.0
11
0.486505
21
0.631822
31
0.0
0
LINE
8
TOP
10
0.486505
20
0.631822
30
0.0
11
0.456120
21
0.645532
31
0.0
0
LINE
8
TOP
10
0.456120
20
0.645532
30
0.0
11
0.424522
21
0.656149
31
0.0
0
LINE
8
TOP
10
0.424522
20
0.656149
30
0.0
11
0.392023
21
0.663566
31
0.0
0
LINE
8
TOP
10
0.392023
20
0.663566
30
0.0
11
0.358947
21
0.667711
31
0.0
0
LINE
8
TOP
10
0.358947
20
0.667711
30
0.0
11
0.325623
21
0.668542
31
0.0
0
LINE
8
TOP
10
0.325623
20
0.668542
30
0.0
11
0.292382
21
0.666051
31
0.0
0
LINE
8
TOP
10
0.292382
20
0.666051
30
0.0
11
0.259554
21
0.660263
31
0.0
0
LINE
8
TOP
10
0.259554
20
0.660263
30
0.0
11
0.227465
21
0.651234
31
0.0
0
LINE
8
TOP
10
0.227465
20
0.651234
30
0.0
11
0.196435
21
0.639056
31
0.0
0
LINE
8
TOP
10
0.196435
20
0.639056
30
0.0
11
0.166772
21
0.623848
31
0.0
0
LINE
8
TOP
10
0.166772
20
0.623848
30
0.0
11
0.138770
21
0.605763
31
0.0
0
LINE
8
TOP
10
0.138770
20
0.605763
30
0.0
11
0.112708
21
0.584979
31
0.0
0
LINE
8
TOP
10
0.112708
20
0.584979
30
0.0
11
0.088845
21
0.561704
31
0.0
0
LINE
8
TOP
10
0.088845
20
0.561704
30
0.0
11
0.067418
21
0.536168
31
0.0
0
LINE
8
TOP
10
0.067418
20
0.536168
30
0.0
11
0.048640
21
0.508626
31
0.0
0
LINE
8
TOP
10
0.048640
20
0.508626
30
0.0
11
0.032698
21
0.479351
31
0.0
0
LINE
8
TOP
10
0.032698
20
0.479351
30
0.0
11
0.019750
21
0.448634
31
0.0
0
LINE
8
TOP
10
0.019750
20
0.448634
30
0.0
11
0.009924
21
0.416781
31
0.0
0
LINE
8
TOP
10
0.009924
20
0.416781
30
0.0
11
0.003319
21
0.384107
31
0.0
0
LINE
8
TOP
10
0.003319
20
0.384107
30
0.0
11
0.000000
21
0.350938
31
0.0
0
LINE
8
TOP
10
0.000000
20
0.350938
30
0.0
11
0.000000
21
0.317604
31
0.0
0
LINE
8
TOP
10
0.000000
20
0.317604
30
0.0
11
0.003319
21
0.284435
31
0.0
0
LINE
8
TOP
10
0.003319
20
0.284435
30
0.0
11
0.009924
21
0.251762
31
0.0
0
LINE
8
TOP
10
0.009924
20
0.251762
30
0.0
11
0.019750
21
0.219908
31
0.0
0
LINE
8
TOP
10
0.019750
20
0.219908
30
0.0
11
0.032698
21
0.189191
31
0.0
0
LINE
8
TOP
10
0.032698
20
0.189191
30
0.0
11
0.048640
21
0.159916
31
0.0
0
LINE
8
TOP
10
0.048640
20
0.159916
30
0.0
11
0.067418
21
0.132374
31
0.0
0
LINE
8
TOP
10
0.067418
20
0.132374
30
0.0
11
0.088845
21
0.106838
31
0.0
0
LINE
8
TOP
10
0.088845
20
0.106838
30
0.0
11
0.112708
21
0.083563
31
0.0
0
LINE
8
TOP
10
0.112708
20
0.083563
30
0.0
11
0.138770
21
0.062779
31
0.0
0
LINE
8
TOP
10
0.138770
20
0.062779
30
0.0
11
0.166772
21
0.044694
31
0.0
0
LINE
8
TOP
10
0.166772
20
0.044694
30
0.0
11
0.196435
21
0.029486
31
0.0
0
LINE
8
TOP
10
0.196435
20
0.029486
30
0.0
11
0.227465
21
0.017308
31
0.0
0
LINE
8
TOP
10
0.227465
20
0.017308
30
0.0
11
0.259554
21
0.008280
31
0.0
0
LINE
8
TOP
10
0.259554
20
0.008280
30
0.0
11
0.292382
21
0.002491
31
0.0
0
LINE
8
TOP
10
0.292382
20
0.002491
30
0.0
11
0.325623
21
0.000000
31
0.0
0
LINE
8
TOP
10
0.325623
20
0.000000
30
0.0
11
0.358947
21
0.000831
31
0.0
0
LINE
8
TOP
10
0.358947
20
0.000831
30
0.0
11
0.392023
21
0.004976
31
0.0
0
LINE
8
TOP
10
0.392023
20
0.004976
30
0.0
11
0.424522
21
0.012394
31
0.0
0
LINE
8
TOP
10
0.424522
20
0.012394
30
0.0
11
0.456120
21
0.023010
31
0.0
0
LINE
8
TOP
10
0.456120
20
0.023010
30
0.0
11
0.486505
21
0.036720
31
0.0
0
LINE
8
TOP
10
0.486505
20
0.036720
30
0.0
11
0.515373
21
0.053387
31
0.0
0
LINE
8
TOP
10
0.515373
20
0.053387
30
0.0
11
0.542439
21
0.072846
31
0.0
0
LINE
8
TOP
10
0.542439
20
0.072846
30
0.0
11
0.567432
21
0.094903
31
0.0
0
LINE
8
TOP
10
0.567432
20
0.094903
30
0.0
11
0.590105
21
0.119339
31
0.0
0
LINE
8
TOP
10
0.590105
20
0.119339
30
0.0
11
0.610233
21
0.145911
31
0.0
0
LINE
8
TOP
10
0.610233
20
0.145911
30
0.0
11
0.627615
21
0.174355
31
0.0
0
LINE
8
TOP
10
0.627615
20
0.174355
30
0.0
11
0.642078
21
0.204388
31
0.0
0
LINE
8
TOP
10
0.642078
20
0.204388
30
0.0
11
0.653479
21
0.235712
31
0.0
0
LINE
8
TOP
10
0.653479
20
0.235712
30
0.0
11
0.661705
21
0.268016
31
0.0
0
LINE
8
TOP
10
0.661705
20
0.268016
30
0.0
11
0.666673
21
0.300978
31
0.0
0
LINE
8
TOP
10
0.666673
20
0.300978
30
0.0
11
0.668334
21
0.334271
31
0.0
0
LINE
8
TOP
10
0.643334
20
0.334271
30
0.0
11
0.641797
21
0.365075
31
0.0
0
LINE
8
TOP
10
0.641797
20
0.365075
30
0.0
11
0.637200
21
0.395573
31
0.0
0
LINE
8
TOP
10
0.637200
20
0.395573
30
0.0
11
0.629590
21
0.425461
31
0.0
0
LINE
8
TOP
10
0.629590
20
0.425461
30
0.0
11
0.619041
21
0.454443
31
0.0
0
LINE
8
TOP
10
0.619041
20
0.454443
30
0.0
11
0.605659
21
0.482231
31
0.0
0
LINE
8
TOP
10
0.605659
20
0.482231
30
0.0
11
0.589577
21
0.508548
31
0.0
0
LINE
8
TOP
10
0.589577
20
0.508548
30
0.0
11
0.570954
21
0.533133
31
0.0
0
LINE
8
TOP
10
0.570954
20
0.533133
30
0.0
11
0.549976
21
0.555742
31
0.0
0
LINE
8
TOP
10
0.549976
20
0.555742
30
0.0
11
0.526852
21
0.576150
31
0.0
0
LINE
8
TOP
10
0.526852
20
0.576150
30
0.0
11
0.501810
21
0.594154
31
0.0
0
LINE
8
TOP
10
0.501810
20
0.594154
30
0.0
11
0.475100
21
0.609575
31
0.0
0
LINE
8
TOP
10
0.475100
20
0.609575
30
0.0
11
0.446987
21
0.622260
31
0.0
0
LINE
8
TOP
10
0.446987
20
0.622260
30
0.0
11
0.417751
21
0.632083
31
0.0
0
LINE
8
TOP
10
0.417751
20
0.632083
30
0.0
11
0.387682
21
0.638946
31
0.0
0
LINE
8
TOP
10
0.387682
20
0.638946
30
0.0
11
0.357079
21
0.642781
31
0.0
0
LINE
8
TOP
10
0.357079
20
0.642781
30
0.0
11
0.326246
21
0.643550
31
0.0
0
LINE
8
TOP
10
0.326246
20
0.643550
30
0.0
11
0.295491
21
0.641245
31
0.0
0
LINE
8
TOP
10
0.295491
20
0.641245
30
0.0
11
0.265117
21
0.635889
31
0.0
0
LINE
8
TOP
10
0.265117
20
0.635889
30
0.0
11
0.235428
21
0.627536
31
0.0
0
LINE
8
TOP
10
0.235428
20
0.627536
30
0.0
11
0.206717
21
0.616268
31
0.0
0
LINE
8
TOP
10
0.206717
20
0.616268
30
0.0
11
0.179272
21
0.602198
31
0.0
0
LINE
8
TOP
10
0.179272
20
0.602198
30
0.0
11
0.153364
21
0.585464
31
0.0
0
LINE
8
TOP
10
0.153364
20
0.585464
30
0.0
11
0.129250
21
0.566235
31
0.0
0
LINE
8
TOP
10
0.129250
20
0.566235
30
0.0
11
0.107171
21
0.544700
31
0.0
0
LINE
8
TOP
10
0.107171
20
0.544700
30
0.0
11
0.087346
21
0.521073
31
0.0
0
LINE
8
TOP
10
0.087346
20
0.521073
30
0.0
11
0.069972
21
0.495590
31
0.0
0
LINE
8
TOP
10
0.069972
20
0.495590
30
0.0
11
0.055222
21
0.468504
31
0.0
0
LINE
8
TOP
10
0.055222
20
0.468504
30
0.0
11
0.043242
21
0.440084
31
0.0
0
LINE
8
TOP
10
0.043242
20
0.440084
30
0.0
11
0.034151
21
0.410612
31
0.0
0
LINE
8
TOP
10
0.034151
20
0.410612
30
0.0
11
0.028040
21
0.380381
31
0.0
0
LINE
8
TOP
10
0.028040
20
0.380381
30
0.0
11
0.024969
21
0.349692
31
0.0
0
LINE
8
TOP
10
0.024969
20
0.349692
30
0.0
11
0.024969
21
0.318850
31
0.0
0
LINE
8
TOP
10
0.024969
20
0.318850
30
0.0
11
0.028040
21
0.288161
31
0.0
0
LINE
8
TOP
10
0.028040
20
0.288161
30
0.0
11
0.034151
21
0.257931
31
0.0
0
LINE
8
TOP
10
0.034151
20
0.257931
30
0.0
11
0.043242
21
0.228459
31
0.0
0
LINE
8
TOP
10
0.043242
20
0.228459
30
0.0
11
0.055222
21
0.200038
31
0.0
0
LINE
8
TOP
10
0.055222
20
0.200038
30
0.0
11
0.069972
21
0.172952
31
0.0
0
LINE
8
TOP
10
0.069972
20
0.172952
30
0.0
11
0.087346
21
0.147469
31
0.0
0
LINE
8
TOP
10
0.087346
20
0.147469
30
0.0
11
0.107171
21
0.123843
31
0.0
0
LINE
8
TOP
10
0.107171
20
0.123843
30
0.0
11
0.129250
21
0.102308
31
0.0
0
LINE
8
TOP
10
0.129250
20
0.102308
30
0.0
11
0.153364
21
0.083078
31
0.0
0
LINE
8
TOP
10
0.153364
20
0.083078
30
0.0
11
0.179272
21
0.066344
31
0.0
0
LINE
8
TOP
10
0.179272
20
0.066344
30
0.0
11
0.206717
21
0.052274
31
0.0
0
LINE
8
TOP
10
0.206717
20
0.052274
30
0.0
11
0.235428
21
0.041006
31
0.0
0
LINE
8
TOP
10
0.235428
20
0.041006
30
0.0
11
0.265117
21
0.032653
31
0.0
0
LINE
8
TOP
10
0.265117
20
0.032653
30
0.0
11
0.295491
21
0.027297
31
0.0
0
LINE
8
TOP
10
0.295491
20
0.027297
30
0.0
11
0.326246
21
0.024992
31
0.0
0
LINE
8
TOP
10
0.326246
20
0.024992
30
0.0
11
0.357079
21
0.025761
31
0.0
0
LINE
8
TOP
10
0.357079
20
0.025761
30
0.0
11
0.387682
21
0.029596
31
0.0
0
LINE
8
TOP
10
0.387682
20
0.029596
30
0.0
11
0.417751
21
0.036459
31
0.0
0
LINE
8
TOP
10
0.417751
20
0.036459
30
0.0
11
0.446987
21
0.046282
31
0.0
0
LINE
8
TOP
10
0.446987
20
0.046282
30
0.0
11
0.475100
21
0.058967
31
0.0
0
LINE
8
TOP
10
0.475100
20
0.058967
30
0.0
11
0.501810
21
0.074388
31
0.0
0
LINE
8
TOP
10
0.501810
20
0.074388
30
0.0
11
0.526852
21
0.092392
31
0.0
0
LINE
8
TOP
10
0.526852
20
0.092392
30
0.0
11
0.549976
21
0.112800
31
0.0
0
LINE
8
TOP
10
0.549976
20
0.112800
30
0.0
11
0.570954
21
0.135409
31
0.0
0
LINE
8
TOP
10
0.570954
20
0.135409
30
0.0
11
0.589577
21
0.159994
31
0.0
0
LINE
8
TOP
10
0.589577
20
0.159994
30
0.0
11
0.605659
21
0.186311
31
0.0
0
LINE
8
TOP
10
0.605659
20
0.186311
30
0.0
11
0.619041
21
0.214099
31
0.0
0
LINE
8
TOP
10
0.619041
20
0.214099
30
0.0
11
0.629590
21
0.243081
31
0.0
0
LINE
8
TOP
10
0.629590
20
0.243081
30
0.0
11
0.637200
21
0.272970
31
0.0
0
LINE
8
TOP
10
0.637200
20
0.272970
30
0.0
11
0.641797
21
0.303467
31
0.0
0
LINE
8
TOP
10
0.641797
20
0.303467
30
0.0
11
0.643334
21
0.334271
31
0.0
0
ENDSEC
0
EOF
