0
SECTION
2
HEADER
9
$ACADVER
1
AC1009
0
ENDSEC
0
SECTION
2
TABLES
0
TABLE
2
LTYPE
70
3
0
LTYPE
2
CONTINUOUS
70
0
3
Solid line
72
65
73
0
40
0.0
0
LTYPE
2
HIDDEN
70
0
3
__ __ __ __ __
72
65
73
2
40
0.075000
49
0.050025
49
-0.024975
0
LTYPE
2
CENTER
70
0
3
___ _ ___ _ ___
72
65
73
4
40
0.174975
49
0.099975
49
-0.024975
49
0.024975
49
-0.024975
0
ENDTAB
0
TABLE
2
LAYER
70
7
0
LAYER
2
0
70
0
62
7
6
CONTINUOUS
0
LAYER
2
FRONT
70
0
62
7
6
CONTINUOUS
0
LAYER
2
FRONT_HID
70
0
62
7
6
HIDDEN
0
LAYER
2
LEFT
70
0
62
7
6
CONTINUOUS
0
LAYER
2
LEFT_HID
70
0
62
7
6
HIDDEN
0
LAYER
2
TOP
70
0
62
7
6
CONTINUOUS
0
LAYER
2
TOP_HID
70
0
62
7
6
HIDDEN
0
ENDTAB
0
ENDSEC
0
SECTION
2
ENTITIES
0
LINE
8
FRONT
10
0.374883
20
0.675000
30
0.0
11
1.124883
21
0.675000
31
0.0
0
LINE
8
FRONT
10
0.374883
20
1.425000
30
0.0
11
0.356191
21
1.424534
31
0.0
0
LINE
8
FRONT
10
0.356191
20
1.424534
30
0.0
11
0.337546
21
1.423137
31
0.0
0
LINE
8
FRONT
10
0.337546
20
1.423137
30
0.0
11
0.318993
21
1.420812
31
0.0
0
LINE
8
FRONT
10
0.318993
20
1.420812
30
0.0
11
0.300579
21
1.417565
31
0.0
0
LINE
8
FRONT
10
0.300579
20
1.417565
30
0.0
11
0.282349
21
1.413404
31
0.0
0
LINE
8
FRONT
10
0.282349
20
1.413404
30
0.0
11
0.264350
21
1.408340
31
0.0
0
LINE
8
FRONT
10
0.264350
20
1.408340
30
0.0
11
0.246626
21
1.402385
31
0.0
0
LINE
8
FRONT
10
0.246626
20
1.402385
30
0.0
11
0.229220
21
1.395554
31
0.0
0
LINE
8
FRONT
10
0.229220
20
1.395554
30
0.0
11
0.212177
21
1.387863
31
0.0
0
LINE
8
FRONT
10
0.212177
20
1.387863
30
0.0
11
0.195538
21
1.379333
31
0.0
0
LINE
8
FRONT
10
0.195538
20
1.379333
30
0.0
11
0.179345
21
1.369984
31
0.0
0
LINE
8
FRONT
10
0.179345
20
1.369984
30
0.0
11
0.163638
21
1.359840
31
0.0
0
LINE
8
FRONT
10
0.163638
20
1.359840
30
0.0
11
0.148457
21
1.348925
31
0.0
0
LINE
8
FRONT
10
0.148457
20
1.348925
30
0.0
11
0.133838
21
1.337267
31
0.0
0
LINE
8
FRONT
10
0.133838
20
1.337267
30
0.0
11
0.119819
21
1.324894
31
0.0
0
LINE
8
FRONT
10
0.119819
20
1.324894
30
0.0
11
0.106433
21
1.311839
31
0.0
0
LINE
8
FRONT
10
0.106433
20
1.311839
30
0.0
11
0.093715
21
1.298132
31
0.0
0
LINE
8
FRONT
10
0.093715
20
1.298132
30
0.0
11
0.081697
21
1.283809
31
0.0
0
LINE
8
FRONT
10
0.081697
20
1.283809
30
0.0
11
0.070407
21
1.268904
31
0.0
0
LINE
8
FRONT
10
0.070407
20
1.268904
30
0.0
11
0.059874
21
1.253455
31
0.0
0
LINE
8
FRONT
10
0.059874
20
1.253455
30
0.0
11
0.050124
21
1.237500
31
0.0
0
LINE
8
FRONT
10
0.050124
20
1.237500
30
0.0
11
0.041182
21
1.221079
31
0.0
0
LINE
8
FRONT
10
0.041182
20
1.221079
30
0.0
11
0.033069
21
1.204233
31
0.0
0
LINE
8
FRONT
10
0.033069
20
1.204233
30
0.0
11
0.025806
21
1.187003
31
0.0
0
LINE
8
FRONT
10
0.025806
20
1.187003
30
0.0
11
0.019411
21
1.169432
31
0.0
0
LINE
8
FRONT
10
0.019411
20
1.169432
30
0.0
11
0.013899
21
1.151565
31
0.0
0
LINE
8
FRONT
10
0.013899
20
1.151565
30
0.0
11
0.009285
21
1.133445
31
0.0
0
LINE
8
FRONT
10
0.009285
20
1.133445
30
0.0
11
0.005581
21
1.115118
31
0.0
0
LINE
8
FRONT
10
0.005581
20
1.115118
30
0.0
11
0.002794
21
1.096629
31
0.0
0
LINE
8
FRONT
10
0.002794
20
1.096629
30
0.0
11
0.000932
21
1.078024
31
0.0
0
LINE
8
FRONT
10
0.000932
20
1.078024
30
0.0
11
0.000000
21
1.059349
31
0.0
0
LINE
8
FRONT
10
0.000000
20
1.059349
30
0.0
11
0.000000
21
1.040651
31
0.0
0
LINE
8
FRONT
10
0.000000
20
1.040651
30
0.0
11
0.000932
21
1.021976
31
0.0
0
LINE
8
FRONT
10
0.000932
20
1.021976
30
0.0
11
0.002794
21
1.003371
31
0.0
0
LINE
8
FRONT
10
0.002794
20
1.003371
30
0.0
11
0.005581
21
0.984882
31
0.0
0
LINE
8
FRONT
10
0.005581
20
0.984882
30
0.0
11
0.009285
21
0.966555
31
0.0
0
LINE
8
FRONT
10
0.009285
20
0.966555
30
0.0
11
0.013899
21
0.948435
31
0.0
0
LINE
8
FRONT
10
0.013899
20
0.948435
30
0.0
11
0.019411
21
0.930568
31
0.0
0
LINE
8
FRONT
10
0.019411
20
0.930568
30
0.0
11
0.025806
21
0.912997
31
0.0
0
LINE
8
FRONT
10
0.025806
20
0.912997
30
0.0
11
0.033069
21
0.895767
31
0.0
0
LINE
8
FRONT
10
0.033069
20
0.895767
30
0.0
11
0.041182
21
0.878921
31
0.0
0
LINE
8
FRONT
10
0.041182
20
0.878921
30
0.0
11
0.050124
21
0.862500
31
0.0
0
LINE
8
FRONT
10
0.050124
20
0.862500
30
0.0
11
0.059874
21
0.846545
31
0.0
0
LINE
8
FRONT
10
0.059874
20
0.846545
30
0.0
11
0.070407
21
0.831096
31
0.0
0
LINE
8
FRONT
10
0.070407
20
0.831096
30
0.0
11
0.081697
21
0.816191
31
0.0
0
LINE
8
FRONT
10
0.081697
20
0.816191
30
0.0
11
0.093715
21
0.801868
31
0.0
0
LINE
8
FRONT
10
0.093715
20
0.801868
30
0.0
11
0.106433
21
0.788161
31
0.0
0
LINE
8
FRONT
10
0.106433
20
0.788161
30
0.0
11
0.119819
21
0.775106
31
0.0
0
LINE
8
FRONT
10
0.119819
20
0.775106
30
0.0
11
0.133838
21
0.762733
31
0.0
0
LINE
8
FRONT
10
0.133838
20
0.762733
30
0.0
11
0.148457
21
0.751075
31
0.0
0
LINE
8
FRONT
10
0.148457
20
0.751075
30
0.0
11
0.163638
21
0.740160
31
0.0
0
LINE
8
FRONT
10
0.163638
20
0.740160
30
0.0
11
0.179345
21
0.730016
31
0.0
0
LINE
8
FRONT
10
0.179345
20
0.730016
30
0.0
11
0.195538
21
0.720667
31
0.0
0
LINE
8
FRONT
10
0.195538
20
0.720667
30
0.0
11
0.212177
21
0.712137
31
0.0
0
LINE
8
FRONT
10
0.212177
20
0.712137
30
0.0
11
0.229220
21
0.704446
31
0.0
0
LINE
8
FRONT
10
0.229220
20
0.704446
30
0.0
11
0.246626
21
0.697615
31
0.0
0
LINE
8
FRONT
10
0.246626
20
0.697615
30
0.0
11
0.264350
21
0.691660
31
0.0
0
LINE
8
FRONT
10
0.264350
20
0.691660
30
0.0
11
0.282349
21
0.686596
31
0.0
0
LINE
8
FRONT
10
0.282349
20
0.686596
30
0.0
11
0.300579
21
0.682435
31
0.0
0
LINE
8
FRONT
10
0.300579
20
0.682435
30
0.0
11
0.318993
21
0.679188
31
0.0
0
LINE
8
FRONT
10
0.318993
20
0.679188
30
0.0
11
0.337546
21
0.676863
31
0.0
0
LINE
8
FRONT
10
0.337546
20
0.676863
30
0.0
11
0.356191
21
0.675466
31
0.0
0
LINE
8
FRONT
10
0.356191
20
0.675466
30
0.0
11
0.374883
21
0.675000
31
0.0
0
LINE
8
FRONT
10
1.124883
20
0.675000
30
0.0
11
1.143576
21
0.675466
31
0.0
0
LINE
8
FRONT
10
1.143576
20
0.675466
30
0.0
11
1.162221
21
0.676863
31
0.0
0
LINE
8
FRONT
10
1.162221
20
0.676863
30
0.0
11
1.180774
21
0.679188
31
0.0
0
LINE
8
FRONT
10
1.180774
20
0.679188
30
0.0
11
1.199188
21
0.682435
31
0.0
0
LINE
8
FRONT
10
1.199188
20
0.682435
30
0.0
11
1.217417
21
0.686596
31
0.0
0
LINE
8
FRONT
10
1.217417
20
0.686596
30
0.0
11
1.235417
21
0.691660
31
0.0
0
LINE
8
FRONT
10
1.235417
20
0.691660
30
0.0
11
1.253141
21
0.697615
31
0.0
0
LINE
8
FRONT
10
1.253141
20
0.697615
30
0.0
11
1.270546
21
0.704446
31
0.0
0
LINE
8
FRONT
10
1.270546
20
0.704446
30
0.0
11
1.287590
21
0.712137
31
0.0
0
LINE
8
FRONT
10
1.287590
20
0.712137
30
0.0
11
1.304229
21
0.720667
31
0.0
0
LINE
8
FRONT
10
1.304229
20
0.720667
30
0.0
11
1.320422
21
0.730016
31
0.0
0
LINE
8
FRONT
10
1.320422
20
0.730016
30
0.0
11
1.336128
21
0.740160
31
0.0
0
LINE
8
FRONT
10
1.336128
20
0.740160
30
0.0
11
1.351310
21
0.751075
31
0.0
0
LINE
8
FRONT
10
1.351310
20
0.751075
30
0.0
11
1.365929
21
0.762733
31
0.0
0
LINE
8
FRONT
10
1.365929
20
0.762733
30
0.0
11
1.379948
21
0.775106
31
0.0
0
LINE
8
FRONT
10
1.379948
20
0.775106
30
0.0
11
1.393334
21
0.788161
31
0.0
0
LINE
8
FRONT
10
1.393334
20
0.788161
30
0.0
11
1.406051
21
0.801868
31
0.0
0
LINE
8
FRONT
10
1.406051
20
0.801868
30
0.0
11
1.418070
21
0.816191
31
0.0
0
LINE
8
FRONT
10
1.418070
20
0.816191
30
0.0
11
1.429360
21
0.831096
31
0.0
0
LINE
8
FRONT
10
1.429360
20
0.831096
30
0.0
11
1.439893
21
0.846545
31
0.0
0
LINE
8
FRONT
10
1.439893
20
0.846545
30
0.0
11
1.449643
21
0.862500
31
0.0
0
LINE
8
FRONT
10
1.449643
20
0.862500
30
0.0
11
1.458585
21
0.878921
31
0.0
0
LINE
8
FRONT
10
1.458585
20
0.878921
30
0.0
11
1.466698
21
0.895767
31
0.0
0
LINE
8
FRONT
10
1.466698
20
0.895767
30
0.0
11
1.473961
21
0.912997
31
0.0
0
LINE
8
FRONT
10
1.473961
20
0.912997
30
0.0
11
1.480356
21
0.930568
31
0.0
0
LINE
8
FRONT
10
1.480356
20
0.930568
30
0.0
11
1.485868
21
0.948435
31
0.0
0
LINE
8
FRONT
10
1.485868
20
0.948435
30
0.0
11
1.490481
21
0.966555
31
0.0
0
LINE
8
FRONT
10
1.490481
20
0.966555
30
0.0
11
1.494186
21
0.984882
31
0.0
0
LINE
8
FRONT
10
1.494186
20
0.984882
30
0.0
11
1.496973
21
1.003371
31
0.0
0
LINE
8
FRONT
10
1.496973
20
1.003371
30
0.0
11
1.498835
21
1.021976
31
0.0
0
LINE
8
FRONT
10
1.498835
20
1.021976
30
0.0
11
1.499767
21
1.040651
31
0.0
0
LINE
8
FRONT
10
1.499767
20
1.040651
30
0.0
11
1.499767
21
1.059349
31
0.0
0
LINE
8
FRONT
10
1.499767
20
1.059349
30
0.0
11
1.498835
21
1.078024
31
0.0
0
LINE
8
FRONT
10
1.498835
20
1.078024
30
0.0
11
1.496973
21
1.096629
31
0.0
0
LINE
8
FRONT
10
1.496973
20
1.096629
30
0.0
11
1.494186
21
1.115118
31
0.0
0
LINE
8
FRONT
10
1.494186
20
1.115118
30
0.0
11
1.490481
21
1.133445
31
0.0
0
LINE
8
FRONT
10
1.490481
20
1.133445
30
0.0
11
1.485868
21
1.151565
31
0.0
0
LINE
8
FRONT
10
1.485868
20
1.151565
30
0.0
11
1.480356
21
1.169432
31
0.0
0
LINE
8
FRONT
10
1.480356
20
1.169432
30
0.0
11
1.473961
21
1.187003
31
0.0
0
LINE
8
FRONT
10
1.473961
20
1.187003
30
0.0
11
1.466698
21
1.204233
31
0.0
0
LINE
8
FRONT
10
1.466698
20
1.204233
30
0.0
11
1.458585
21
1.221079
31
0.0
0
LINE
8
FRONT
10
1.458585
20
1.221079
30
0.0
11
1.449643
21
1.237500
31
0.0
0
LINE
8
FRONT
10
1.449643
20
1.237500
30
0.0
11
1.439893
21
1.253455
31
0.0
0
LINE
8
FRONT
10
1.439893
20
1.253455
30
0.0
11
1.429360
21
1.268904
31
0.0
0
LINE
8
FRONT
10
1.429360
20
1.268904
30
0.0
11
1.418070
21
1.283809
31
0.0
0
LINE
8
FRONT
10
1.418070
20
1.283809
30
0.0
11
1.406051
21
1.298132
31
0.0
0
LINE
8
FRONT
10
1.406051
20
1.298132
30
0.0
11
1.393334
21
1.311839
31
0.0
0
LINE
8
FRONT
10
1.393334
20
1.311839
30
0.0
11
1.379948
21
1.324894
31
0.0
0
LINE
8
FRONT
10
1.379948
20
1.324894
30
0.0
11
1.365929
21
1.337267
31
0.0
0
LINE
8
FRONT
10
1.365929
20
1.337267
30
0.0
11
1.351310
21
1.348925
31
0.0
0
LINE
8
FRONT
10
1.351310
20
1.348925
30
0.0
11
1.336128
21
1.359840
31
0.0
0
LINE
8
FRONT
10
1.336128
20
1.359840
30
0.0
11
1.320422
21
1.369984
31
0.0
0
LINE
8
FRONT
10
1.320422
20
1.369984
30
0.0
11
1.304229
21
1.379333
31
0.0
0
LINE
8
FRONT
10
1.304229
20
1.379333
30
0.0
11
1.287590
21
1.387863
31
0.0
0
LINE
8
FRONT
10
1.287590
20
1.387863
30
0.0
11
1.270546
21
1.395554
31
0.0
0
LINE
8
FRONT
10
1.270546
20
1.395554
30
0.0
11
1.253141
21
1.402385
31
0.0
0
LINE
8
FRONT
10
1.253141
20
1.402385
30
0.0
11
1.235417
21
1.408340
31
0.0
0
LINE
8
FRONT
10
1.235417
20
1.408340
30
0.0
11
1.217417
21
1.413404
31
0.0
0
LINE
8
FRONT
10
1.217417
20
1.413404
30
0.0
11
1.199188
21
1.417565
31
0.0
0
LINE
8
FRONT
10
1.199188
20
1.417565
30
0.0
11
1.180774
21
1.420812
31
0.0
0
LINE
8
FRONT
10
1.180774
20
1.420812
30
0.0
11
1.162221
21
1.423137
31
0.0
0
LINE
8
FRONT
10
1.162221
20
1.423137
30
0.0
11
1.143576
21
1.424534
31
0.0
0
LINE
8
FRONT
10
1.143576
20
1.424534
30
0.0
11
1.124883
21
1.425000
31
0.0
0
LINE
8
FRONT
10
1.124883
20
1.425000
30
0.0
11
0.374883
21
1.425000
31
0.0
0
LINE
8
FRONT
10
0.187383
20
1.050000
30
0.0
11
0.188315
21
1.031331
31
0.0
0
LINE
8
FRONT
10
0.188315
20
1.031331
30
0.0
11
0.191101
21
1.012848
31
0.0
0
LINE
8
FRONT
10
0.191101
20
1.012848
30
0.0
11
0.195714
21
0.994733
31
0.0
0
LINE
8
FRONT
10
0.195714
20
0.994733
30
0.0
11
0.202107
21
0.977168
31
0.0
0
LINE
8
FRONT
10
0.202107
20
0.977168
30
0.0
11
0.210217
21
0.960327
31
0.0
0
LINE
8
FRONT
10
0.210217
20
0.960327
30
0.0
11
0.219964
21
0.944377
31
0.0
0
LINE
8
FRONT
10
0.219964
20
0.944377
30
0.0
11
0.231250
21
0.929477
31
0.0
0
LINE
8
FRONT
10
0.231250
20
0.929477
30
0.0
11
0.243964
21
0.915775
31
0.0
0
LINE
8
FRONT
10
0.243964
20
0.915775
30
0.0
11
0.257979
21
0.903407
31
0.0
0
LINE
8
FRONT
10
0.257979
20
0.903407
30
0.0
11
0.273156
21
0.892495
31
0.0
0
LINE
8
FRONT
10
0.273156
20
0.892495
30
0.0
11
0.289344
21
0.883149
31
0.0
0
LINE
8
FRONT
10
0.289344
20
0.883149
30
0.0
11
0.306382
21
0.875461
31
0.0
0
LINE
8
FRONT
10
0.306382
20
0.875461
30
0.0
11
0.324101
21
0.869508
31
0.0
0
LINE
8
FRONT
10
0.324101
20
0.869508
30
0.0
11
0.342324
21
0.865349
31
0.0
0
LINE
8
FRONT
10
0.342324
20
0.865349
30
0.0
11
0.360872
21
0.863024
31
0.0
0
LINE
8
FRONT
10
0.360872
20
0.863024
30
0.0
11
0.379558
21
0.862558
31
0.0
0
LINE
8
FRONT
10
0.379558
20
0.862558
30
0.0
11
0.398198
21
0.863955
31
0.0
0
LINE
8
FRONT
10
0.398198
20
0.863955
30
0.0
11
0.416606
21
0.867201
31
0.0
0
LINE
8
FRONT
10
0.416606
20
0.867201
30
0.0
11
0.434600
21
0.872264
31
0.0
0
LINE
8
FRONT
10
0.434600
20
0.872264
30
0.0
11
0.452000
21
0.879093
31
0.0
0
LINE
8
FRONT
10
0.452000
20
0.879093
30
0.0
11
0.468633
21
0.887620
31
0.0
0
LINE
8
FRONT
10
0.468633
20
0.887620
30
0.0
11
0.484335
21
0.897762
31
0.0
0
LINE
8
FRONT
10
0.484335
20
0.897762
30
0.0
11
0.498950
21
0.909416
31
0.0
0
LINE
8
FRONT
10
0.498950
20
0.909416
30
0.0
11
0.512331
21
0.922468
31
0.0
0
LINE
8
FRONT
10
0.512331
20
0.922468
30
0.0
11
0.524346
21
0.936787
31
0.0
0
LINE
8
FRONT
10
0.524346
20
0.936787
30
0.0
11
0.534875
21
0.952231
31
0.0
0
LINE
8
FRONT
10
0.534875
20
0.952231
30
0.0
11
0.543815
21
0.968647
31
0.0
0
LINE
8
FRONT
10
0.543815
20
0.968647
30
0.0
11
0.551076
21
0.985871
31
0.0
0
LINE
8
FRONT
10
0.551076
20
0.985871
30
0.0
11
0.556585
21
1.003733
31
0.0
0
LINE
8
FRONT
10
0.556585
20
1.003733
30
0.0
11
0.560289
21
1.022055
31
0.0
0
LINE
8
FRONT
10
0.560289
20
1.022055
30
0.0
11
0.562150
21
1.040654
31
0.0
0
LINE
8
FRONT
10
0.562150
20
1.040654
30
0.0
11
0.562150
21
1.059346
31
0.0
0
LINE
8
FRONT
10
0.562150
20
1.059346
30
0.0
11
0.560289
21
1.077945
31
0.0
0
LINE
8
FRONT
10
0.560289
20
1.077945
30
0.0
11
0.556585
21
1.096267
31
0.0
0
LINE
8
FRONT
10
0.556585
20
1.096267
30
0.0
11
0.551076
21
1.114129
31
0.0
0
LINE
8
FRONT
10
0.551076
20
1.114129
30
0.0
11
0.543815
21
1.131353
31
0.0
0
LINE
8
FRONT
10
0.543815
20
1.131353
30
0.0
11
0.534875
21
1.147769
31
0.0
0
LINE
8
FRONT
10
0.534875
20
1.147769
30
0.0
11
0.524346
21
1.163213
31
0.0
0
LINE
8
FRONT
10
0.524346
20
1.163213
30
0.0
11
0.512331
21
1.177532
31
0.0
0
LINE
8
FRONT
10
0.512331
20
1.177532
30
0.0
11
0.498950
21
1.190584
31
0.0
0
LINE
8
FRONT
10
0.498950
20
1.190584
30
0.0
11
0.484335
21
1.202238
31
0.0
0
LINE
8
FRONT
10
0.484335
20
1.202238
30
0.0
11
0.468633
21
1.212380
31
0.0
0
LINE
8
FRONT
10
0.468633
20
1.212380
30
0.0
11
0.452000
21
1.220907
31
0.0
0
LINE
8
FRONT
10
0.452000
20
1.220907
30
0.0
11
0.434600
21
1.227736
31
0.0
0
LINE
8
FRONT
10
0.434600
20
1.227736
30
0.0
11
0.416606
21
1.232799
31
0.0
0
LINE
8
FRONT
10
0.416606
20
1.232799
30
0.0
11
0.398198
21
1.236045
31
0.0
0
LINE
8
FRONT
10
0.398198
20
1.236045
30
0.0
11
0.379558
21
1.237442
31
0.0
0
LINE
8
FRONT
10
0.379558
20
1.237442
30
0.0
11
0.360872
21
1.236976
31
0.0
0
LINE
8
FRONT
10
0.360872
20
1.236976
30
0.0
11
0.342324
21
1.234651
31
0.0
0
LINE
8
FRONT
10
0.342324
20
1.234651
30
0.0
11
0.324101
21
1.230492
31
0.0
0
LINE
8
FRONT
10
0.324101
20
1.230492
30
0.0
11
0.306382
21
1.224539
31
0.0
0
LINE
8
FRONT
10
0.306382
20
1.224539
30
0.0
11
0.289344
21
1.216851
31
0.0
0
LINE
8
FRONT
10
0.289344
20
1.216851
30
0.0
11
0.273156
21
1.207505
31
0.0
0
LINE
8
FRONT
10
0.273156
20
1.207505
30
0.0
11
0.257979
21
1.196593
31
0.0
0
LINE
8
FRONT
10
0.257979
20
1.196593
30
0.0
11
0.243964
21
1.184225
31
0.0
0
LINE
8
FRONT
10
0.243964
20
1.184225
30
0.0
11
0.231250
21
1.170523
31
0.0
0
LINE
8
FRONT
10
0.231250
20
1.170523
30
0.0
11
0.219964
21
1.155623
31
0.0
0
LINE
8
FRONT
10
0.219964
20
1.155623
30
0.0
11
0.210217
21
1.139673
31
0.0
0
LINE
8
FRONT
10
0.210217
20
1.139673
30
0.0
11
0.202107
21
1.122832
31
0.0
0
LINE
8
FRONT
10
0.202107
20
1.122832
30
0.0
11
0.195714
21
1.105267
31
0.0
0
LINE
8
FRONT
10
0.195714
20
1.105267
30
0.0
11
0.191101
21
1.087152
31
0.0
0
LINE
8
FRONT
10
0.191101
20
1.087152
30
0.0
11
0.188315
21
1.068669
31
0.0
0
LINE
8
FRONT
10
0.188315
20
1.068669
30
0.0
11
0.187383
21
1.050000
31
0.0
0
LINE
8
FRONT
10
0.999883
20
1.050000
30
0.0
11
1.000505
21
1.037554
31
0.0
0
LINE
8
FRONT
10
1.000505
20
1.037554
30
0.0
11
1.002362
21
1.025232
31
0.0
0
LINE
8
FRONT
10
1.002362
20
1.025232
30
0.0
11
1.005437
21
1.013156
31
0.0
0
LINE
8
FRONT
10
1.005437
20
1.013156
30
0.0
11
1.009699
21
1.001446
31
0.0
0
LINE
8
FRONT
10
1.009699
20
1.001446
30
0.0
11
1.015106
21
0.990218
31
0.0
0
LINE
8
FRONT
10
1.015106
20
0.990218
30
0.0
11
1.021604
21
0.979585
31
0.0
0
LINE
8
FRONT
10
1.021604
20
0.979585
30
0.0
11
1.029128
21
0.969652
31
0.0
0
LINE
8
FRONT
10
1.029128
20
0.969652
30
0.0
11
1.037604
21
0.960517
31
0.0
0
LINE
8
FRONT
10
1.037604
20
0.960517
30
0.0
11
1.046947
21
0.952271
31
0.0
0
LINE
8
FRONT
10
1.046947
20
0.952271
30
0.0
11
1.057065
21
0.944997
31
0.0
0
LINE
8
FRONT
10
1.057065
20
0.944997
30
0.0
11
1.067857
21
0.938766
31
0.0
0
LINE
8
FRONT
10
1.067857
20
0.938766
30
0.0
11
1.079216
21
0.933641
31
0.0
0
LINE
8
FRONT
10
1.079216
20
0.933641
30
0.0
11
1.091028
21
0.929672
31
0.0
0
LINE
8
FRONT
10
1.091028
20
0.929672
30
0.0
11
1.103177
21
0.926899
31
0.0
0
LINE
8
FRONT
10
1.103177
20
0.926899
30
0.0
11
1.115542
21
0.925350
31
0.0
0
LINE
8
FRONT
10
1.115542
20
0.925350
30
0.0
11
1.128000
21
0.925039
31
0.0
0
LINE
8
FRONT
10
1.128000
20
0.925039
30
0.0
11
1.140426
21
0.925970
31
0.0
0
LINE
8
FRONT
10
1.140426
20
0.925970
30
0.0
11
1.152699
21
0.928134
31
0.0
0
LINE
8
FRONT
10
1.152699
20
0.928134
30
0.0
11
1.164694
21
0.931509
31
0.0
0
LINE
8
FRONT
10
1.164694
20
0.931509
30
0.0
11
1.176294
21
0.936062
31
0.0
0
LINE
8
FRONT
10
1.176294
20
0.936062
30
0.0
11
1.187383
21
0.941747
31
0.0
0
LINE
8
FRONT
10
1.187383
20
0.941747
30
0.0
11
1.197851
21
0.948508
31
0.0
0
LINE
8
FRONT
10
1.197851
20
0.948508
30
0.0
11
1.207594
21
0.956277
31
0.0
0
LINE
8
FRONT
10
1.207594
20
0.956277
30
0.0
11
1.216515
21
0.964978
31
0.0
0
LINE
8
FRONT
10
1.216515
20
0.964978
30
0.0
11
1.224525
21
0.974524
31
0.0
0
LINE
8
FRONT
10
1.224525
20
0.974524
30
0.0
11
1.231545
21
0.984821
31
0.0
0
LINE
8
FRONT
10
1.231545
20
0.984821
30
0.0
11
1.237505
21
0.995765
31
0.0
0
LINE
8
FRONT
10
1.237505
20
0.995765
30
0.0
11
1.242345
21
1.007247
31
0.0
0
LINE
8
FRONT
10
1.242345
20
1.007247
30
0.0
11
1.246018
21
1.019155
31
0.0
0
LINE
8
FRONT
10
1.246018
20
1.019155
30
0.0
11
1.248487
21
1.031370
31
0.0
0
LINE
8
FRONT
10
1.248487
20
1.031370
30
0.0
11
1.249728
21
1.043769
31
0.0
0
LINE
8
FRONT
10
1.249728
20
1.043769
30
0.0
11
1.249728
21
1.056231
31
0.0
0
LINE
8
FRONT
10
1.249728
20
1.056231
30
0.0
11
1.248487
21
1.068630
31
0.0
0
LINE
8
FRONT
10
1.248487
20
1.068630
30
0.0
11
1.246018
21
1.080845
31
0.0
0
LINE
8
FRONT
10
1.246018
20
1.080845
30
0.0
11
1.242345
21
1.092753
31
0.0
0
LINE
8
FRONT
10
1.242345
20
1.092753
30
0.0
11
1.237505
21
1.104235
31
0.0
0
LINE
8
FRONT
10
1.237505
20
1.104235
30
0.0
11
1.231545
21
1.115179
31
0.0
0
LINE
8
FRONT
10
1.231545
20
1.115179
30
0.0
11
1.224525
21
1.125476
31
0.0
0
LINE
8
FRONT
10
1.224525
20
1.125476
30
0.0
11
1.216515
21
1.135022
31
0.0
0
LINE
8
FRONT
10
1.216515
20
1.135022
30
0.0
11
1.207594
21
1.143723
31
0.0
0
LINE
8
FRONT
10
1.207594
20
1.143723
30
0.0
11
1.197851
21
1.151492
31
0.0
0
LINE
8
FRONT
10
1.197851
20
1.151492
30
0.0
11
1.187383
21
1.158253
31
0.0
0
LINE
8
FRONT
10
1.187383
20
1.158253
30
0.0
11
1.176294
21
1.163938
31
0.0
0
LINE
8
FRONT
10
1.176294
20
1.163938
30
0.0
11
1.164694
21
1.168491
31
0.0
0
LINE
8
FRONT
10
1.164694
20
1.168491
30
0.0
11
1.152699
21
1.171866
31
0.0
0
LINE
8
FRONT
10
1.152699
20
1.171866
30
0.0
11
1.140426
21
1.174030
31
0.0
0
LINE
8
FRONT
10
1.140426
20
1.174030
30
0.0
11
1.128000
21
1.174961
31
0.0
0
LINE
8
FRONT
10
1.128000
20
1.174961
30
0.0
11
1.115542
21
1.174650
31
0.0
0
LINE
8
FRONT
10
1.115542
20
1.174650
30
0.0
11
1.103177
21
1.173101
31
0.0
0
LINE
8
FRONT
10
1.103177
20
1.173101
30
0.0
11
1.091028
21
1.170328
31
0.0
0
LINE
8
FRONT
10
1.091028
20
1.170328
30
0.0
11
1.079216
21
1.166359
31
0.0
0
LINE
8
FRONT
10
1.079216
20
1.166359
30
0.0
11
1.067857
21
1.161234
31
0.0
0
LINE
8
FRONT
10
1.067857
20
1.161234
30
0.0
11
1.057065
21
1.155003
31
0.0
0
LINE
8
FRONT
10
1.057065
20
1.155003
30
0.0
11
1.046947
21
1.147729
31
0.0
0
LINE
8
FRONT
10
1.046947
20
1.147729
30
0.0
11
1.037604
21
1.139483
31
0.0
0
LINE
8
FRONT
10
1.037604
20
1.139483
30
0.0
11
1.029128
21
1.130348
31
0.0
0
LINE
8
FRONT
10
1.029128
20
1.130348
30
0.0
11
1.021604
21
1.120415
31
0.0
0
LINE
8
FRONT
10
1.021604
20
1.120415
30
0.0
11
1.015106
21
1.109782
31
0.0
0
LINE
8
FRONT
10
1.015106
20
1.109782
30
0.0
11
1.009699
21
1.098554
31
0.0
0
LINE
8
FRONT
10
1.009699
20
1.098554
30
0.0
11
1.005437
21
1.086844
31
0.0
0
LINE
8
FRONT
10
1.005437
20
1.086844
30
0.0
11
1.002362
21
1.074768
31
0.0
0
LINE
8
FRONT
10
1.002362
20
1.074768
30
0.0
11
1.000505
21
1.062446
31
0.0
0
LINE
8
FRONT
10
1.000505
20
1.062446
30
0.0
11
0.999883
21
1.050000
31
0.0
0
LINE
8
FRONT_HID
6
HIDDEN
10
0.797383
20
0.675000
30
0.0
11
0.702383
21
0.675000
31
0.0
0
LINE
8
FRONT_HID
6
HIDDEN
10
0.702383
20
0.675000
30
0.0
11
0.797383
21
0.675000
31
0.0
0
LINE
8
FRONT_HID
6
HIDDEN
10
0.797383
20
1.425000
30
0.0
11
0.797383
21
0.675000
31
0.0
0
LINE
8
FRONT_HID
6
HIDDEN
10
0.797383
20
1.425000
30
0.0
11
0.702383
21
1.425000
31
0.0
0
LINE
8
FRONT_HID
6
HIDDEN
10
0.702383
20
1.425000
30
0.0
11
0.797383
21
1.425000
31
0.0
0
LINE
8
FRONT_HID
6
HIDDEN
10
0.702383
20
0.675000
30
0.0
11
0.702383
21
1.425000
31
0.0
0
LINE
8
LEFT
10
1.799767
20
0.675000
30
0.0
11
2.174767
21
0.675000
31
0.0
0
LINE
8
LEFT
10
1.799767
20
1.425000
30
0.0
11
1.799767
21
0.675000
31
0.0
0
LINE
8
LEFT
10
2.174767
20
1.425000
30
0.0
11
2.174767
21
0.675000
31
0.0
0
LINE
8
LEFT
10
1.799767
20
1.425000
30
0.0
11
2.174767
21
1.425000
31
0.0
0
LINE
8
LEFT_HID
6
HIDDEN
10
1.987267
20
0.675000
30
0.0
11
1.939767
21
0.675000
31
0.0
0
LINE
8
LEFT_HID
6
HIDDEN
10
1.939767
20
0.675000
30
0.0
11
2.034767
21
0.675000
31
0.0
0
LINE
8
LEFT_HID
6
HIDDEN
10
2.034767
20
0.675000
30
0.0
11
1.987267
21
0.675000
31
0.0
0
LINE
8
LEFT_HID
6
HIDDEN
10
1.799767
20
1.050000
30
0.0
11
1.799767
21
0.862500
31
0.0
0
LINE
8
LEFT_HID
6
HIDDEN
10
1.799767
20
0.862500
30
0.0
11
1.799767
21
1.237500
31
0.0
0
LINE
8
LEFT_HID
6
HIDDEN
10
1.799767
20
1.237500
30
0.0
11
1.799767
21
1.050000
31
0.0
0
LINE
8
LEFT_HID
6
HIDDEN
10
1.799767
20
1.050000
30
0.0
11
1.799767
21
0.925000
31
0.0
0
LINE
8
LEFT_HID
6
HIDDEN
10
1.799767
20
0.925000
30
0.0
11
1.799767
21
1.175000
31
0.0
0
LINE
8
LEFT_HID
6
HIDDEN
10
1.799767
20
1.175000
30
0.0
11
1.799767
21
1.050000
31
0.0
0
LINE
8
LEFT_HID
6
HIDDEN
10
2.174767
20
1.050000
30
0.0
11
2.174767
21
0.862500
31
0.0
0
LINE
8
LEFT_HID
6
HIDDEN
10
2.174767
20
0.862500
30
0.0
11
2.174767
21
1.237500
31
0.0
0
LINE
8
LEFT_HID
6
HIDDEN
10
2.174767
20
1.237500
30
0.0
11
2.174767
21
1.050000
31
0.0
0
LINE
8
LEFT_HID
6
HIDDEN
10
2.174767
20
1.050000
30
0.0
11
2.174767
21
0.925000
31
0.0
0
LINE
8
LEFT_HID
6
HIDDEN
10
2.174767
20
0.925000
30
0.0
11
2.174767
21
1.175000
31
0.0
0
LINE
8
LEFT_HID
6
HIDDEN
10
2.174767
20
1.175000
30
0.0
11
2.174767
21
1.050000
31
0.0
0
LINE
8
LEFT_HID
6
HIDDEN
10
1.987267
20
1.425000
30
0.0
11
1.939767
21
1.425000
31
0.0
0
LINE
8
LEFT_HID
6
HIDDEN
10
1.939767
20
1.425000
30
0.0
11
2.034767
21
1.425000
31
0.0
0
LINE
8
LEFT_HID
6
HIDDEN
10
2.034767
20
1.425000
30
0.0
11
1.987267
21
1.425000
31
0.0
0
LINE
8
LEFT_HID
6
HIDDEN
10
2.034767
20
0.675000
30
0.0
11
2.034767
21
1.425000
31
0.0
0
LINE
8
LEFT_HID
6
HIDDEN
10
1.939767
20
0.675000
30
0.0
11
1.939767
21
1.425000
31
0.0
0
LINE
8
LEFT_HID
6
HIDDEN
10
2.174767
20
1.237500
30
0.0
11
1.799767
21
1.237500
31
0.0
0
LINE
8
LEFT_HID
6
HIDDEN
10
2.174767
20
0.862500
30
0.0
11
1.799767
21
0.862500
31
0.0
0
LINE
8
LEFT_HID
6
HIDDEN
10
2.174767
20
1.175000
30
0.0
11
1.799767
21
1.175000
31
0.0
0
LINE
8
LEFT_HID
6
HIDDEN
10
2.174767
20
0.925000
30
0.0
11
1.799767
21
0.925000
31
0.0
0
LINE
8
TOP
10
0.375000
20
0.375000
30
0.0
11
0.000000
21
0.375000
31
0.0
0
LINE
8
TOP
10
0.375000
20
0.000000
30
0.0
11
0.000000
21
0.000000
31
0.0
0
LINE
8
TOP
10
1.500000
20
0.375000
30
0.0
11
1.125000
21
0.375000
31
0.0
0
LINE
8
TOP
10
1.125000
20
0.375000
30
0.0
11
0.375000
21
0.375000
31
0.0
0
LINE
8
TOP
10
1.500000
20
0.000000
30
0.0
11
1.125000
21
0.000000
31
0.0
0
LINE
8
TOP
10
1.125000
20
0.000000
30
0.0
11
0.375000
21
0.000000
31
0.0
0
LINE
8
TOP
10
0.797500
20
0.187500
30
0.0
11
0.797264
21
0.192229
31
0.0
0
LINE
8
TOP
10
0.797264
20
0.192229
30
0.0
11
0.796558
21
0.196912
31
0.0
0
LINE
8
TOP
10
0.796558
20
0.196912
30
0.0
11
0.795390
21
0.201501
31
0.0
0
LINE
8
TOP
10
0.795390
20
0.201501
30
0.0
11
0.793770
21
0.205951
31
0.0
0
LINE
8
TOP
10
0.793770
20
0.205951
30
0.0
11
0.791716
21
0.210217
31
0.0
0
LINE
8
TOP
10
0.791716
20
0.210217
30
0.0
11
0.789246
21
0.214258
31
0.0
0
LINE
8
TOP
10
0.789246
20
0.214258
30
0.0
11
0.786387
21
0.218032
31
0.0
0
LINE
8
TOP
10
0.786387
20
0.218032
30
0.0
11
0.783166
21
0.221504
31
0.0
0
LINE
8
TOP
10
0.783166
20
0.221504
30
0.0
11
0.779616
21
0.224637
31
0.0
0
LINE
8
TOP
10
0.779616
20
0.224637
30
0.0
11
0.775771
21
0.227401
31
0.0
0
LINE
8
TOP
10
0.775771
20
0.227401
30
0.0
11
0.771670
21
0.229769
31
0.0
0
LINE
8
TOP
10
0.771670
20
0.229769
30
0.0
11
0.767354
21
0.231717
31
0.0
0
LINE
8
TOP
10
0.767354
20
0.231717
30
0.0
11
0.762865
21
0.233225
31
0.0
0
LINE
8
TOP
10
0.762865
20
0.233225
30
0.0
11
0.758248
21
0.234278
31
0.0
0
LINE
8
TOP
10
0.758248
20
0.234278
30
0.0
11
0.753550
21
0.234867
31
0.0
0
LINE
8
TOP
10
0.753550
20
0.234867
30
0.0
11
0.748816
21
0.234985
31
0.0
0
LINE
8
TOP
10
0.748816
20
0.234985
30
0.0
11
0.744094
21
0.234631
31
0.0
0
LINE
8
TOP
10
0.744094
20
0.234631
30
0.0
11
0.739430
21
0.233809
31
0.0
0
LINE
8
TOP
10
0.739430
20
0.233809
30
0.0
11
0.734872
21
0.232527
31
0.0
0
LINE
8
TOP
10
0.734872
20
0.232527
30
0.0
11
0.730464
21
0.230797
31
0.0
0
LINE
8
TOP
10
0.730464
20
0.230797
30
0.0
11
0.726250
21
0.228636
31
0.0
0
LINE
8
TOP
10
0.726250
20
0.228636
30
0.0
11
0.722272
21
0.226067
31
0.0
0
LINE
8
TOP
10
0.722272
20
0.226067
30
0.0
11
0.718570
21
0.223115
31
0.0
0
LINE
8
TOP
10
0.718570
20
0.223115
30
0.0
11
0.715180
21
0.219808
31
0.0
0
LINE
8
TOP
10
0.715180
20
0.219808
30
0.0
11
0.712136
21
0.216181
31
0.0
0
LINE
8
TOP
10
0.712136
20
0.216181
30
0.0
11
0.709469
21
0.212268
31
0.0
0
LINE
8
TOP
10
0.709469
20
0.212268
30
0.0
11
0.707204
21
0.208109
31
0.0
0
LINE
8
TOP
10
0.707204
20
0.208109
30
0.0
11
0.705365
21
0.203746
31
0.0
0
LINE
8
TOP
10
0.705365
20
0.203746
30
0.0
11
0.703969
21
0.199221
31
0.0
0
LINE
8
TOP
10
0.703969
20
0.199221
30
0.0
11
0.703031
21
0.194580
31
0.0
0
LINE
8
TOP
10
0.703031
20
0.194580
30
0.0
11
0.702559
21
0.189868
31
0.0
0
LINE
8
TOP
10
0.702559
20
0.189868
30
0.0
11
0.702559
21
0.185132
31
0.0
0
LINE
8
TOP
10
0.702559
20
0.185132
30
0.0
11
0.703031
21
0.180420
31
0.0
0
LINE
8
TOP
10
0.703031
20
0.180420
30
0.0
11
0.703969
21
0.175779
31
0.0
0
LINE
8
TOP
10
0.703969
20
0.175779
30
0.0
11
0.705365
21
0.171254
31
0.0
0
LINE
8
TOP
10
0.705365
20
0.171254
30
0.0
11
0.707204
21
0.166891
31
0.0
0
LINE
8
TOP
10
0.707204
20
0.166891
30
0.0
11
0.709469
21
0.162732
31
0.0
0
LINE
8
TOP
10
0.709469
20
0.162732
30
0.0
11
0.712136
21
0.158819
31
0.0
0
LINE
8
TOP
10
0.712136
20
0.158819
30
0.0
11
0.715180
21
0.155192
31
0.0
0
LINE
8
TOP
10
0.715180
20
0.155192
30
0.0
11
0.718570
21
0.151885
31
0.0
0
LINE
8
TOP
10
0.718570
20
0.151885
30
0.0
11
0.722272
21
0.148933
31
0.0
0
LINE
8
TOP
10
0.722272
20
0.148933
30
0.0
11
0.726250
21
0.146364
31
0.0
0
LINE
8
TOP
10
0.726250
20
0.146364
30
0.0
11
0.730464
21
0.144203
31
0.0
0
LINE
8
TOP
10
0.730464
20
0.144203
30
0.0
11
0.734872
21
0.142473
31
0.0
0
LINE
8
TOP
10
0.734872
20
0.142473
30
0.0
11
0.739430
21
0.141191
31
0.0
0
LINE
8
TOP
10
0.739430
20
0.141191
30
0.0
11
0.744094
21
0.140369
31
0.0
0
LINE
8
TOP
10
0.744094
20
0.140369
30
0.0
11
0.748816
21
0.140015
31
0.0
0
LINE
8
TOP
10
0.748816
20
0.140015
30
0.0
11
0.753550
21
0.140133
31
0.0
0
LINE
8
TOP
10
0.753550
20
0.140133
30
0.0
11
0.758248
21
0.140722
31
0.0
0
LINE
8
TOP
10
0.758248
20
0.140722
30
0.0
11
0.762865
21
0.141775
31
0.0
0
LINE
8
TOP
10
0.762865
20
0.141775
30
0.0
11
0.767354
21
0.143283
31
0.0
0
LINE
8
TOP
10
0.767354
20
0.143283
30
0.0
11
0.771670
21
0.145231
31
0.0
0
LINE
8
TOP
10
0.771670
20
0.145231
30
0.0
11
0.775771
21
0.147599
31
0.0
0
LINE
8
TOP
10
0.775771
20
0.147599
30
0.0
11
0.779616
21
0.150363
31
0.0
0
LINE
8
TOP
10
0.779616
20
0.150363
30
0.0
11
0.783166
21
0.153496
31
0.0
0
LINE
8
TOP
10
0.783166
20
0.153496
30
0.0
11
0.786387
21
0.156968
31
0.0
0
LINE
8
TOP
10
0.786387
20
0.156968
30
0.0
11
0.789246
21
0.160742
31
0.0
0
LINE
8
TOP
10
0.789246
20
0.160742
30
0.0
11
0.791716
21
0.164783
31
0.0
0
LINE
8
TOP
10
0.791716
20
0.164783
30
0.0
11
0.793770
21
0.169049
31
0.0
0
LINE
8
TOP
10
0.793770
20
0.169049
30
0.0
11
0.795390
21
0.173499
31
0.0
0
LINE
8
TOP
10
0.795390
20
0.173499
30
0.0
11
0.796558
21
0.178088
31
0.0
0
LINE
8
TOP
10
0.796558
20
0.178088
30
0.0
11
0.797264
21
0.182771
31
0.0
0
LINE
8
TOP
10
0.797264
20
0.182771
30
0.0
11
0.797500
21
0.187500
31
0.0
0
LINE
8
TOP
10
0.375000
20
0.375000
30
0.0
11
0.375000
21
0.000000
31
0.0
0
LINE
8
TOP
10
1.125000
20
0.375000
30
0.0
11
1.125000
21
0.000000
31
0.0
0
LINE
8
TOP
10
0.000000
20
0.000000
30
0.0
11
0.000000
21
0.375000
31
0.0
0
LINE
8
TOP
10
1.500000
20
0.000000
30
0.0
11
1.500000
21
0.375000
31
0.0
0
LINE
8
TOP_HID
6
HIDDEN
10
0.187500
20
0.375000
30
0.0
11
0.562500
21
0.375000
31
0.0
0
LINE
8
TOP_HID
6
HIDDEN
10
0.562500
20
0.375000
30
0.0
11
0.187500
21
0.375000
31
0.0
0
LINE
8
TOP_HID
6
HIDDEN
10
1.000000
20
0.375000
30
0.0
11
1.250000
21
0.375000
31
0.0
0
LINE
8
TOP_HID
6
HIDDEN
10
1.250000
20
0.375000
30
0.0
11
1.000000
21
0.375000
31
0.0
0
LINE
8
TOP_HID
6
HIDDEN
10
0.187500
20
0.000000
30
0.0
11
0.562500
21
0.000000
31
0.0
0
LINE
8
TOP_HID
6
HIDDEN
10
0.562500
20
0.000000
30
0.0
11
0.187500
21
0.000000
31
0.0
0
LINE
8
TOP_HID
6
HIDDEN
10
1.000000
20
0.000000
30
0.0
11
1.250000
21
0.000000
31
0.0
0
LINE
8
TOP_HID
6
HIDDEN
10
1.250000
20
0.000000
30
0.0
11
1.000000
21
0.000000
31
0.0
0
LINE
8
TOP_HID
6
HIDDEN
10
0.187500
20
0.375000
30
0.0
11
0.187500
21
0.000000
31
0.0
0
LINE
8
TOP_HID
6
HIDDEN
10
1.000000
20
0.375000
30
0.0
11
1.000000
21
0.000000
31
0.0
0
LINE
8
TOP_HID
6
HIDDEN
10
0.562500
20
0.000000
30
0.0
11
0.562500
21
0.375000
31
0.0
0
LINE
8
TOP_HID
6
HIDDEN
10
1.250000
20
0.000000
30
0.0
11
1.250000
21
0.375000
31
0.0
0
ENDSEC
0
EOF
