0
SECTION
2
HEADER
9
$ACADVER
1
AC1009
0
ENDSEC
0
SECTION
2
TABLES
0
TABLE
2
LTYPE
70
3
0
LTYPE
2
CONTINUOUS
70
0
3
Solid line
72
65
73
0
40
0.0
0
LTYPE
2
HIDDEN
70
0
3
__ __ __ __ __
72
65
73
2
40
0.061979
49
0.041340
49
-0.020639
0
LTYPE
2
CENTER
70
0
3
___ _ ___ _ ___
72
65
73
4
40
0.144597
49
0.082618
49
-0.020639
49
0.020639
49
-0.020639
0
ENDTAB
0
TABLE
2
LAYER
70
6
0
LAYER
2
0
70
0
62
7
6
CONTINUOUS
0
LAYER
2
FRONT
70
0
62
7
6
CONTINUOUS
0
LAYER
2
LEFT
70
0
62
7
6
CONTINUOUS
0
LAYER
2
LEFT_HID
70
0
62
7
6
HIDDEN
0
LAYER
2
TOP
70
0
62
7
6
CONTINUOUS
0
LAYER
2
TOP_HID
70
0
62
7
6
HIDDEN
0
ENDTAB
0
ENDSEC
0
SECTION
2
ENTITIES
0
LINE
8
FRONT
10
0.000000
20
0.904167
30
0.0
11
1.239583
21
0.904167
31
0.0
0
LINE
8
FRONT
10
0.000000
20
2.029167
30
0.0
11
0.000000
21
0.904167
31
0.0
0
LINE
8
FRONT
10
1.239583
20
0.904167
30
0.0
11
1.239583
21
2.029167
31
0.0
0
LINE
8
FRONT
10
1.239583
20
2.029167
30
0.0
11
0.781250
21
2.029167
31
0.0
0
LINE
8
FRONT
10
0.781250
20
2.029167
30
0.0
11
0.781250
21
1.227083
31
0.0
0
LINE
8
FRONT
10
0.781250
20
1.227083
30
0.0
11
0.458333
21
1.227083
31
0.0
0
LINE
8
FRONT
10
0.458333
20
1.227083
30
0.0
11
0.458333
21
2.029167
31
0.0
0
LINE
8
FRONT
10
0.458333
20
2.029167
30
0.0
11
0.000000
21
2.029167
31
0.0
0
LINE
8
LEFT
10
1.815625
20
0.904167
30
0.0
11
2.143750
21
0.904167
31
0.0
0
LINE
8
LEFT
10
1.815625
20
2.029167
30
0.0
11
2.143750
21
2.029167
31
0.0
0
LINE
8
LEFT
10
2.143750
20
2.029167
30
0.0
11
2.143750
21
0.904167
31
0.0
0
LINE
8
LEFT
10
1.815625
20
0.904167
30
0.0
11
1.487500
21
0.904167
31
0.0
0
LINE
8
LEFT
10
1.815625
20
2.029167
30
0.0
11
1.487500
21
2.029167
31
0.0
0
LINE
8
LEFT
10
1.487500
20
2.029167
30
0.0
11
1.487500
21
0.904167
31
0.0
0
LINE
8
LEFT_HID
6
HIDDEN
10
2.143750
20
2.029167
30
0.0
11
2.143750
21
1.227083
31
0.0
0
LINE
8
LEFT_HID
6
HIDDEN
10
2.143750
20
1.227083
30
0.0
11
2.143750
21
2.029167
31
0.0
0
LINE
8
LEFT_HID
6
HIDDEN
10
1.487500
20
2.029167
30
0.0
11
1.487500
21
1.227083
31
0.0
0
LINE
8
LEFT_HID
6
HIDDEN
10
1.487500
20
1.227083
30
0.0
11
1.487500
21
2.029167
31
0.0
0
LINE
8
LEFT_HID
6
HIDDEN
10
1.815625
20
1.227083
30
0.0
11
2.143750
21
1.227083
31
0.0
0
LINE
8
LEFT_HID
6
HIDDEN
10
1.815625
20
1.227083
30
0.0
11
2.143750
21
1.227083
31
0.0
0
LINE
8
LEFT_HID
6
HIDDEN
10
1.815625
20
1.227083
30
0.0
11
1.487500
21
1.227083
31
0.0
0
LINE
8
LEFT_HID
6
HIDDEN
10
1.815625
20
1.227083
30
0.0
11
1.487500
21
1.227083
31
0.0
0
LINE
8
TOP
10
0.000000
20
0.328125
30
0.0
11
0.000000
21
0.000000
31
0.0
0
LINE
8
TOP
10
1.239583
20
0.328125
30
0.0
11
1.239583
21
0.000000
31
0.0
0
LINE
8
TOP
10
1.239583
20
0.000000
30
0.0
11
0.781250
21
0.000000
31
0.0
0
LINE
8
TOP
10
0.781250
20
0.000000
30
0.0
11
0.458333
21
0.000000
31
0.0
0
LINE
8
TOP
10
0.458333
20
0.000000
30
0.0
11
0.000000
21
0.000000
31
0.0
0
LINE
8
TOP
10
0.458333
20
0.328125
30
0.0
11
0.458333
21
0.000000
31
0.0
0
LINE
8
TOP
10
0.000000
20
0.328125
30
0.0
11
0.000000
21
0.656250
31
0.0
0
LINE
8
TOP
10
0.781250
20
0.328125
30
0.0
11
0.781250
21
0.000000
31
0.0
0
LINE
8
TOP
10
1.239583
20
0.328125
30
0.0
11
1.239583
21
0.656250
31
0.0
0
LINE
8
TOP
10
1.239583
20
0.656250
30
0.0
11
0.781250
21
0.656250
31
0.0
0
LINE
8
TOP
10
0.781250
20
0.656250
30
0.0
11
0.458333
21
0.656250
31
0.0
0
LINE
8
TOP
10
0.458333
20
0.656250
30
0.0
11
0.000000
21
0.656250
31
0.0
0
LINE
8
TOP
10
0.458333
20
0.328125
30
0.0
11
0.458333
21
0.656250
31
0.0
0
LINE
8
TOP
10
0.781250
20
0.328125
30
0.0
11
0.781250
21
0.656250
31
0.0
0
LINE
8
TOP_HID
6
HIDDEN
10
0.000000
20
0.000000
30
0.0
11
1.239583
21
0.000000
31
0.0
0
LINE
8
TOP_HID
6
HIDDEN
10
0.000000
20
0.656250
30
0.0
11
1.239583
21
0.656250
31
0.0
0
ENDSEC
0
EOF
