0
SECTION
2
HEADER
9
$ACADVER
1
AC1009
0
ENDSEC
0
SECTION
2
TABLES
0
TABLE
2
LTYPE
70
3
0
LTYPE
2
CONTINUOUS
70
0
3
Solid line
72
65
73
0
40
0.0
0
LTYPE
2
HIDDEN
70
0
3
__ __ __ __ __
72
65
73
2
40
0.048000
49
0.032016
49
-0.015984
0
LTYPE
2
CENTER
70
0
3
___ _ ___ _ ___
72
65
73
4
40
0.111984
49
0.063984
49
-0.015984
49
0.015984
49
-0.015984
0
ENDTAB
0
TABLE
2
LAYER
70
7
0
LAYER
2
0
70
0
62
7
6
CONTINUOUS
0
LAYER
2
FRONT
70
0
62
7
6
CONTINUOUS
0
LAYER
2
FRONT_HID
70
0
62
7
6
HIDDEN
0
LAYER
2
LEFT
70
0
62
7
6
CONTINUOUS
0
LAYER
2
LEFT_HID
70
0
62
7
6
HIDDEN
0
LAYER
2
TOP
70
0
62
7
6
CONTINUOUS
0
LAYER
2
TOP_HID
70
0
62
7
6
HIDDEN
0
ENDTAB
0
ENDSEC
0
SECTION
2
ENTITIES
0
LINE
8
FRONT
10
0.750000
20
1.182000
30
0.0
11
0.750000
21
2.082000
31
0.0
0
LINE
8
FRONT
10
0.000000
20
1.152000
30
0.0
11
0.000000
21
2.112000
31
0.0
0
LINE
8
FRONT
10
0.150000
20
2.082000
30
0.0
11
0.750000
21
2.082000
31
0.0
0
LINE
8
FRONT
10
0.000000
20
2.112000
30
0.0
11
0.150000
21
2.112000
31
0.0
0
LINE
8
FRONT
10
0.150000
20
1.152000
30
0.0
11
0.150000
21
2.112000
31
0.0
0
LINE
8
FRONT
10
0.750000
20
1.182000
30
0.0
11
0.150000
21
1.182000
31
0.0
0
LINE
8
FRONT
10
0.150000
20
1.152000
30
0.0
11
0.000000
21
1.152000
31
0.0
0
LINE
8
FRONT_HID
6
HIDDEN
10
0.000000
20
1.980000
30
0.0
11
0.000000
21
1.284000
31
0.0
0
LINE
8
FRONT_HID
6
HIDDEN
10
0.000000
20
1.284000
30
0.0
11
0.000000
21
1.980000
31
0.0
0
LINE
8
FRONT_HID
6
HIDDEN
10
0.000000
20
1.980000
30
0.0
11
0.750000
21
1.980000
31
0.0
0
LINE
8
FRONT_HID
6
HIDDEN
10
0.750000
20
1.980000
30
0.0
11
0.750000
21
1.284000
31
0.0
0
LINE
8
FRONT_HID
6
HIDDEN
10
0.750000
20
1.284000
30
0.0
11
0.750000
21
1.980000
31
0.0
0
LINE
8
FRONT_HID
6
HIDDEN
10
0.000000
20
2.040000
30
0.0
11
0.000000
21
2.014095
31
0.0
0
LINE
8
FRONT_HID
6
HIDDEN
10
0.000000
20
2.014095
30
0.0
11
0.000000
21
1.988190
31
0.0
0
LINE
8
FRONT_HID
6
HIDDEN
10
0.000000
20
1.988190
30
0.0
11
0.000000
21
1.962286
31
0.0
0
LINE
8
FRONT_HID
6
HIDDEN
10
0.000000
20
1.962286
30
0.0
11
0.000000
21
1.936381
31
0.0
0
LINE
8
FRONT_HID
6
HIDDEN
10
0.000000
20
1.936381
30
0.0
11
0.000000
21
1.910476
31
0.0
0
LINE
8
FRONT_HID
6
HIDDEN
10
0.000000
20
1.910476
30
0.0
11
0.000000
21
1.884571
31
0.0
0
LINE
8
FRONT_HID
6
HIDDEN
10
0.000000
20
1.884571
30
0.0
11
0.000000
21
1.858667
31
0.0
0
LINE
8
FRONT_HID
6
HIDDEN
10
0.000000
20
1.858667
30
0.0
11
0.000000
21
1.832762
31
0.0
0
LINE
8
FRONT_HID
6
HIDDEN
10
0.000000
20
1.832762
30
0.0
11
0.000000
21
1.806857
31
0.0
0
LINE
8
FRONT_HID
6
HIDDEN
10
0.000000
20
1.806857
30
0.0
11
0.000000
21
1.780952
31
0.0
0
LINE
8
FRONT_HID
6
HIDDEN
10
0.000000
20
1.780952
30
0.0
11
0.000000
21
1.755048
31
0.0
0
LINE
8
FRONT_HID
6
HIDDEN
10
0.000000
20
1.755048
30
0.0
11
0.000000
21
1.729143
31
0.0
0
LINE
8
FRONT_HID
6
HIDDEN
10
0.000000
20
1.729143
30
0.0
11
0.000000
21
1.703238
31
0.0
0
LINE
8
FRONT_HID
6
HIDDEN
10
0.000000
20
1.703238
30
0.0
11
0.000000
21
1.677333
31
0.0
0
LINE
8
FRONT_HID
6
HIDDEN
10
0.000000
20
1.677333
30
0.0
11
0.000000
21
1.651429
31
0.0
0
LINE
8
FRONT_HID
6
HIDDEN
10
0.000000
20
1.651429
30
0.0
11
0.000000
21
1.625524
31
0.0
0
LINE
8
FRONT_HID
6
HIDDEN
10
0.000000
20
1.625524
30
0.0
11
0.000000
21
1.599619
31
0.0
0
LINE
8
FRONT_HID
6
HIDDEN
10
0.000000
20
1.599619
30
0.0
11
0.000000
21
1.573714
31
0.0
0
LINE
8
FRONT_HID
6
HIDDEN
10
0.000000
20
1.573714
30
0.0
11
0.000000
21
1.547810
31
0.0
0
LINE
8
FRONT_HID
6
HIDDEN
10
0.000000
20
1.547810
30
0.0
11
0.000000
21
1.521905
31
0.0
0
LINE
8
FRONT_HID
6
HIDDEN
10
0.000000
20
1.521905
30
0.0
11
0.000000
21
1.496000
31
0.0
0
LINE
8
FRONT_HID
6
HIDDEN
10
0.000000
20
1.496000
30
0.0
11
0.000000
21
1.470095
31
0.0
0
LINE
8
FRONT_HID
6
HIDDEN
10
0.000000
20
1.470095
30
0.0
11
0.000000
21
1.444190
31
0.0
0
LINE
8
FRONT_HID
6
HIDDEN
10
0.000000
20
1.444190
30
0.0
11
0.000000
21
1.418286
31
0.0
0
LINE
8
FRONT_HID
6
HIDDEN
10
0.000000
20
1.418286
30
0.0
11
0.000000
21
1.392381
31
0.0
0
LINE
8
FRONT_HID
6
HIDDEN
10
0.000000
20
1.392381
30
0.0
11
0.000000
21
1.366476
31
0.0
0
LINE
8
FRONT_HID
6
HIDDEN
10
0.000000
20
1.366476
30
0.0
11
0.000000
21
1.340571
31
0.0
0
LINE
8
FRONT_HID
6
HIDDEN
10
0.000000
20
1.340571
30
0.0
11
0.000000
21
1.314667
31
0.0
0
LINE
8
FRONT_HID
6
HIDDEN
10
0.000000
20
1.314667
30
0.0
11
0.000000
21
1.288762
31
0.0
0
LINE
8
FRONT_HID
6
HIDDEN
10
0.000000
20
1.288762
30
0.0
11
0.000000
21
1.262857
31
0.0
0
LINE
8
FRONT_HID
6
HIDDEN
10
0.000000
20
1.262857
30
0.0
11
0.000000
21
1.236952
31
0.0
0
LINE
8
FRONT_HID
6
HIDDEN
10
0.000000
20
1.236952
30
0.0
11
0.000000
21
1.262857
31
0.0
0
LINE
8
FRONT_HID
6
HIDDEN
10
0.000000
20
1.262857
30
0.0
11
0.000000
21
1.288762
31
0.0
0
LINE
8
FRONT_HID
6
HIDDEN
10
0.000000
20
1.288762
30
0.0
11
0.000000
21
1.314667
31
0.0
0
LINE
8
FRONT_HID
6
HIDDEN
10
0.000000
20
1.314667
30
0.0
11
0.000000
21
1.340571
31
0.0
0
LINE
8
FRONT_HID
6
HIDDEN
10
0.000000
20
1.340571
30
0.0
11
0.000000
21
1.366476
31
0.0
0
LINE
8
FRONT_HID
6
HIDDEN
10
0.000000
20
1.366476
30
0.0
11
0.000000
21
1.392381
31
0.0
0
LINE
8
FRONT_HID
6
HIDDEN
10
0.000000
20
1.392381
30
0.0
11
0.000000
21
1.418286
31
0.0
0
LINE
8
FRONT_HID
6
HIDDEN
10
0.000000
20
1.418286
30
0.0
11
0.000000
21
1.444190
31
0.0
0
LINE
8
FRONT_HID
6
HIDDEN
10
0.000000
20
1.444190
30
0.0
11
0.000000
21
1.470095
31
0.0
0
LINE
8
FRONT_HID
6
HIDDEN
10
0.000000
20
1.470095
30
0.0
11
0.000000
21
1.496000
31
0.0
0
LINE
8
FRONT_HID
6
HIDDEN
10
0.000000
20
1.496000
30
0.0
11
0.000000
21
1.521905
31
0.0
0
LINE
8
FRONT_HID
6
HIDDEN
10
0.000000
20
1.521905
30
0.0
11
0.000000
21
1.547810
31
0.0
0
LINE
8
FRONT_HID
6
HIDDEN
10
0.000000
20
1.547810
30
0.0
11
0.000000
21
1.573714
31
0.0
0
LINE
8
FRONT_HID
6
HIDDEN
10
0.000000
20
1.573714
30
0.0
11
0.000000
21
1.599619
31
0.0
0
LINE
8
FRONT_HID
6
HIDDEN
10
0.000000
20
1.599619
30
0.0
11
0.000000
21
1.625524
31
0.0
0
LINE
8
FRONT_HID
6
HIDDEN
10
0.000000
20
1.625524
30
0.0
11
0.000000
21
1.651429
31
0.0
0
LINE
8
FRONT_HID
6
HIDDEN
10
0.000000
20
1.651429
30
0.0
11
0.000000
21
1.677333
31
0.0
0
LINE
8
FRONT_HID
6
HIDDEN
10
0.000000
20
1.677333
30
0.0
11
0.000000
21
1.703238
31
0.0
0
LINE
8
FRONT_HID
6
HIDDEN
10
0.000000
20
1.703238
30
0.0
11
0.000000
21
1.729143
31
0.0
0
LINE
8
FRONT_HID
6
HIDDEN
10
0.000000
20
1.729143
30
0.0
11
0.000000
21
1.755048
31
0.0
0
LINE
8
FRONT_HID
6
HIDDEN
10
0.000000
20
1.755048
30
0.0
11
0.000000
21
1.780952
31
0.0
0
LINE
8
FRONT_HID
6
HIDDEN
10
0.000000
20
1.780952
30
0.0
11
0.000000
21
1.806857
31
0.0
0
LINE
8
FRONT_HID
6
HIDDEN
10
0.000000
20
1.806857
30
0.0
11
0.000000
21
1.832762
31
0.0
0
LINE
8
FRONT_HID
6
HIDDEN
10
0.000000
20
1.832762
30
0.0
11
0.000000
21
1.858667
31
0.0
0
LINE
8
FRONT_HID
6
HIDDEN
10
0.000000
20
1.858667
30
0.0
11
0.000000
21
1.884571
31
0.0
0
LINE
8
FRONT_HID
6
HIDDEN
10
0.000000
20
1.884571
30
0.0
11
0.000000
21
1.910476
31
0.0
0
LINE
8
FRONT_HID
6
HIDDEN
10
0.000000
20
1.910476
30
0.0
11
0.000000
21
1.936381
31
0.0
0
LINE
8
FRONT_HID
6
HIDDEN
10
0.000000
20
1.936381
30
0.0
11
0.000000
21
1.962286
31
0.0
0
LINE
8
FRONT_HID
6
HIDDEN
10
0.000000
20
1.962286
30
0.0
11
0.000000
21
1.988190
31
0.0
0
LINE
8
FRONT_HID
6
HIDDEN
10
0.000000
20
1.988190
30
0.0
11
0.000000
21
2.014095
31
0.0
0
LINE
8
FRONT_HID
6
HIDDEN
10
0.000000
20
2.014095
30
0.0
11
0.000000
21
2.040000
31
0.0
0
LINE
8
FRONT_HID
6
HIDDEN
10
0.750000
20
2.040000
30
0.0
11
0.750000
21
2.014095
31
0.0
0
LINE
8
FRONT_HID
6
HIDDEN
10
0.750000
20
2.014095
30
0.0
11
0.750000
21
1.988190
31
0.0
0
LINE
8
FRONT_HID
6
HIDDEN
10
0.750000
20
1.988190
30
0.0
11
0.750000
21
1.962286
31
0.0
0
LINE
8
FRONT_HID
6
HIDDEN
10
0.750000
20
1.962286
30
0.0
11
0.750000
21
1.936381
31
0.0
0
LINE
8
FRONT_HID
6
HIDDEN
10
0.750000
20
1.936381
30
0.0
11
0.750000
21
1.910476
31
0.0
0
LINE
8
FRONT_HID
6
HIDDEN
10
0.750000
20
1.910476
30
0.0
11
0.750000
21
1.884571
31
0.0
0
LINE
8
FRONT_HID
6
HIDDEN
10
0.750000
20
1.884571
30
0.0
11
0.750000
21
1.858667
31
0.0
0
LINE
8
FRONT_HID
6
HIDDEN
10
0.750000
20
1.858667
30
0.0
11
0.750000
21
1.832762
31
0.0
0
LINE
8
FRONT_HID
6
HIDDEN
10
0.750000
20
1.832762
30
0.0
11
0.750000
21
1.806857
31
0.0
0
LINE
8
FRONT_HID
6
HIDDEN
10
0.750000
20
1.806857
30
0.0
11
0.750000
21
1.780952
31
0.0
0
LINE
8
FRONT_HID
6
HIDDEN
10
0.750000
20
1.780952
30
0.0
11
0.750000
21
1.755048
31
0.0
0
LINE
8
FRONT_HID
6
HIDDEN
10
0.750000
20
1.755048
30
0.0
11
0.750000
21
1.729143
31
0.0
0
LINE
8
FRONT_HID
6
HIDDEN
10
0.750000
20
1.729143
30
0.0
11
0.750000
21
1.703238
31
0.0
0
LINE
8
FRONT_HID
6
HIDDEN
10
0.750000
20
1.703238
30
0.0
11
0.750000
21
1.677333
31
0.0
0
LINE
8
FRONT_HID
6
HIDDEN
10
0.750000
20
1.677333
30
0.0
11
0.750000
21
1.651429
31
0.0
0
LINE
8
FRONT_HID
6
HIDDEN
10
0.750000
20
1.651429
30
0.0
11
0.750000
21
1.625524
31
0.0
0
LINE
8
FRONT_HID
6
HIDDEN
10
0.750000
20
1.625524
30
0.0
11
0.750000
21
1.599619
31
0.0
0
LINE
8
FRONT_HID
6
HIDDEN
10
0.750000
20
1.599619
30
0.0
11
0.750000
21
1.573714
31
0.0
0
LINE
8
FRONT_HID
6
HIDDEN
10
0.750000
20
1.573714
30
0.0
11
0.750000
21
1.547810
31
0.0
0
LINE
8
FRONT_HID
6
HIDDEN
10
0.750000
20
1.547810
30
0.0
11
0.750000
21
1.521905
31
0.0
0
LINE
8
FRONT_HID
6
HIDDEN
10
0.750000
20
1.521905
30
0.0
11
0.750000
21
1.496000
31
0.0
0
LINE
8
FRONT_HID
6
HIDDEN
10
0.750000
20
1.496000
30
0.0
11
0.750000
21
1.470095
31
0.0
0
LINE
8
FRONT_HID
6
HIDDEN
10
0.750000
20
1.470095
30
0.0
11
0.750000
21
1.444190
31
0.0
0
LINE
8
FRONT_HID
6
HIDDEN
10
0.750000
20
1.444190
30
0.0
11
0.750000
21
1.418286
31
0.0
0
LINE
8
FRONT_HID
6
HIDDEN
10
0.750000
20
1.418286
30
0.0
11
0.750000
21
1.392381
31
0.0
0
LINE
8
FRONT_HID
6
HIDDEN
10
0.750000
20
1.392381
30
0.0
11
0.750000
21
1.366476
31
0.0
0
LINE
8
FRONT_HID
6
HIDDEN
10
0.750000
20
1.366476
30
0.0
11
0.750000
21
1.340571
31
0.0
0
LINE
8
FRONT_HID
6
HIDDEN
10
0.750000
20
1.340571
30
0.0
11
0.750000
21
1.314667
31
0.0
0
LINE
8
FRONT_HID
6
HIDDEN
10
0.750000
20
1.314667
30
0.0
11
0.750000
21
1.288762
31
0.0
0
LINE
8
FRONT_HID
6
HIDDEN
10
0.750000
20
1.288762
30
0.0
11
0.750000
21
1.262857
31
0.0
0
LINE
8
FRONT_HID
6
HIDDEN
10
0.750000
20
1.262857
30
0.0
11
0.750000
21
1.236952
31
0.0
0
LINE
8
FRONT_HID
6
HIDDEN
10
0.750000
20
1.236952
30
0.0
11
0.750000
21
1.262857
31
0.0
0
LINE
8
FRONT_HID
6
HIDDEN
10
0.750000
20
1.262857
30
0.0
11
0.750000
21
1.288762
31
0.0
0
LINE
8
FRONT_HID
6
HIDDEN
10
0.750000
20
1.288762
30
0.0
11
0.750000
21
1.314667
31
0.0
0
LINE
8
FRONT_HID
6
HIDDEN
10
0.750000
20
1.314667
30
0.0
11
0.750000
21
1.340571
31
0.0
0
LINE
8
FRONT_HID
6
HIDDEN
10
0.750000
20
1.340571
30
0.0
11
0.750000
21
1.366476
31
0.0
0
LINE
8
FRONT_HID
6
HIDDEN
10
0.750000
20
1.366476
30
0.0
11
0.750000
21
1.392381
31
0.0
0
LINE
8
FRONT_HID
6
HIDDEN
10
0.750000
20
1.392381
30
0.0
11
0.750000
21
1.418286
31
0.0
0
LINE
8
FRONT_HID
6
HIDDEN
10
0.750000
20
1.418286
30
0.0
11
0.750000
21
1.444190
31
0.0
0
LINE
8
FRONT_HID
6
HIDDEN
10
0.750000
20
1.444190
30
0.0
11
0.750000
21
1.470095
31
0.0
0
LINE
8
FRONT_HID
6
HIDDEN
10
0.750000
20
1.470095
30
0.0
11
0.750000
21
1.496000
31
0.0
0
LINE
8
FRONT_HID
6
HIDDEN
10
0.750000
20
1.496000
30
0.0
11
0.750000
21
1.521905
31
0.0
0
LINE
8
FRONT_HID
6
HIDDEN
10
0.750000
20
1.521905
30
0.0
11
0.750000
21
1.547810
31
0.0
0
LINE
8
FRONT_HID
6
HIDDEN
10
0.750000
20
1.547810
30
0.0
11
0.750000
21
1.573714
31
0.0
0
LINE
8
FRONT_HID
6
HIDDEN
10
0.750000
20
1.573714
30
0.0
11
0.750000
21
1.599619
31
0.0
0
LINE
8
FRONT_HID
6
HIDDEN
10
0.750000
20
1.599619
30
0.0
11
0.750000
21
1.625524
31
0.0
0
LINE
8
FRONT_HID
6
HIDDEN
10
0.750000
20
1.625524
30
0.0
11
0.750000
21
1.651429
31
0.0
0
LINE
8
FRONT_HID
6
HIDDEN
10
0.750000
20
1.651429
30
0.0
11
0.750000
21
1.677333
31
0.0
0
LINE
8
FRONT_HID
6
HIDDEN
10
0.750000
20
1.677333
30
0.0
11
0.750000
21
1.703238
31
0.0
0
LINE
8
FRONT_HID
6
HIDDEN
10
0.750000
20
1.703238
30
0.0
11
0.750000
21
1.729143
31
0.0
0
LINE
8
FRONT_HID
6
HIDDEN
10
0.750000
20
1.729143
30
0.0
11
0.750000
21
1.755048
31
0.0
0
LINE
8
FRONT_HID
6
HIDDEN
10
0.750000
20
1.755048
30
0.0
11
0.750000
21
1.780952
31
0.0
0
LINE
8
FRONT_HID
6
HIDDEN
10
0.750000
20
1.780952
30
0.0
11
0.750000
21
1.806857
31
0.0
0
LINE
8
FRONT_HID
6
HIDDEN
10
0.750000
20
1.806857
30
0.0
11
0.750000
21
1.832762
31
0.0
0
LINE
8
FRONT_HID
6
HIDDEN
10
0.750000
20
1.832762
30
0.0
11
0.750000
21
1.858667
31
0.0
0
LINE
8
FRONT_HID
6
HIDDEN
10
0.750000
20
1.858667
30
0.0
11
0.750000
21
1.884571
31
0.0
0
LINE
8
FRONT_HID
6
HIDDEN
10
0.750000
20
1.884571
30
0.0
11
0.750000
21
1.910476
31
0.0
0
LINE
8
FRONT_HID
6
HIDDEN
10
0.750000
20
1.910476
30
0.0
11
0.750000
21
1.936381
31
0.0
0
LINE
8
FRONT_HID
6
HIDDEN
10
0.750000
20
1.936381
30
0.0
11
0.750000
21
1.962286
31
0.0
0
LINE
8
FRONT_HID
6
HIDDEN
10
0.750000
20
1.962286
30
0.0
11
0.750000
21
1.988190
31
0.0
0
LINE
8
FRONT_HID
6
HIDDEN
10
0.750000
20
1.988190
30
0.0
11
0.750000
21
2.014095
31
0.0
0
LINE
8
FRONT_HID
6
HIDDEN
10
0.750000
20
2.014095
30
0.0
11
0.750000
21
2.040000
31
0.0
0
LINE
8
FRONT_HID
6
HIDDEN
10
0.000000
20
2.082000
30
0.0
11
0.000000
21
2.053429
31
0.0
0
LINE
8
FRONT_HID
6
HIDDEN
10
0.000000
20
2.053429
30
0.0
11
0.000000
21
2.024857
31
0.0
0
LINE
8
FRONT_HID
6
HIDDEN
10
0.000000
20
2.024857
30
0.0
11
0.000000
21
1.996286
31
0.0
0
LINE
8
FRONT_HID
6
HIDDEN
10
0.000000
20
1.996286
30
0.0
11
0.000000
21
1.967714
31
0.0
0
LINE
8
FRONT_HID
6
HIDDEN
10
0.000000
20
1.967714
30
0.0
11
0.000000
21
1.939143
31
0.0
0
LINE
8
FRONT_HID
6
HIDDEN
10
0.000000
20
1.939143
30
0.0
11
0.000000
21
1.910571
31
0.0
0
LINE
8
FRONT_HID
6
HIDDEN
10
0.000000
20
1.910571
30
0.0
11
0.000000
21
1.882000
31
0.0
0
LINE
8
FRONT_HID
6
HIDDEN
10
0.000000
20
1.882000
30
0.0
11
0.000000
21
1.853429
31
0.0
0
LINE
8
FRONT_HID
6
HIDDEN
10
0.000000
20
1.853429
30
0.0
11
0.000000
21
1.824857
31
0.0
0
LINE
8
FRONT_HID
6
HIDDEN
10
0.000000
20
1.824857
30
0.0
11
0.000000
21
1.796286
31
0.0
0
LINE
8
FRONT_HID
6
HIDDEN
10
0.000000
20
1.796286
30
0.0
11
0.000000
21
1.767714
31
0.0
0
LINE
8
FRONT_HID
6
HIDDEN
10
0.000000
20
1.767714
30
0.0
11
0.000000
21
1.739143
31
0.0
0
LINE
8
FRONT_HID
6
HIDDEN
10
0.000000
20
1.739143
30
0.0
11
0.000000
21
1.710571
31
0.0
0
LINE
8
FRONT_HID
6
HIDDEN
10
0.000000
20
1.710571
30
0.0
11
0.000000
21
1.682000
31
0.0
0
LINE
8
FRONT_HID
6
HIDDEN
10
0.000000
20
1.682000
30
0.0
11
0.000000
21
1.653429
31
0.0
0
LINE
8
FRONT_HID
6
HIDDEN
10
0.000000
20
1.653429
30
0.0
11
0.000000
21
1.624857
31
0.0
0
LINE
8
FRONT_HID
6
HIDDEN
10
0.000000
20
1.624857
30
0.0
11
0.000000
21
1.596286
31
0.0
0
LINE
8
FRONT_HID
6
HIDDEN
10
0.000000
20
1.596286
30
0.0
11
0.000000
21
1.567714
31
0.0
0
LINE
8
FRONT_HID
6
HIDDEN
10
0.000000
20
1.567714
30
0.0
11
0.000000
21
1.539143
31
0.0
0
LINE
8
FRONT_HID
6
HIDDEN
10
0.000000
20
1.539143
30
0.0
11
0.000000
21
1.510571
31
0.0
0
LINE
8
FRONT_HID
6
HIDDEN
10
0.000000
20
1.510571
30
0.0
11
0.000000
21
1.482000
31
0.0
0
LINE
8
FRONT_HID
6
HIDDEN
10
0.000000
20
1.482000
30
0.0
11
0.000000
21
1.453429
31
0.0
0
LINE
8
FRONT_HID
6
HIDDEN
10
0.000000
20
1.453429
30
0.0
11
0.000000
21
1.424857
31
0.0
0
LINE
8
FRONT_HID
6
HIDDEN
10
0.000000
20
1.424857
30
0.0
11
0.000000
21
1.396286
31
0.0
0
LINE
8
FRONT_HID
6
HIDDEN
10
0.000000
20
1.396286
30
0.0
11
0.000000
21
1.367714
31
0.0
0
LINE
8
FRONT_HID
6
HIDDEN
10
0.000000
20
1.367714
30
0.0
11
0.000000
21
1.339143
31
0.0
0
LINE
8
FRONT_HID
6
HIDDEN
10
0.000000
20
1.339143
30
0.0
11
0.000000
21
1.310571
31
0.0
0
LINE
8
FRONT_HID
6
HIDDEN
10
0.000000
20
1.310571
30
0.0
11
0.000000
21
1.282000
31
0.0
0
LINE
8
FRONT_HID
6
HIDDEN
10
0.000000
20
1.282000
30
0.0
11
0.000000
21
1.253429
31
0.0
0
LINE
8
FRONT_HID
6
HIDDEN
10
0.000000
20
1.253429
30
0.0
11
0.000000
21
1.224857
31
0.0
0
LINE
8
FRONT_HID
6
HIDDEN
10
0.000000
20
1.224857
30
0.0
11
0.000000
21
1.196286
31
0.0
0
LINE
8
FRONT_HID
6
HIDDEN
10
0.000000
20
1.196286
30
0.0
11
0.000000
21
1.224857
31
0.0
0
LINE
8
FRONT_HID
6
HIDDEN
10
0.000000
20
1.224857
30
0.0
11
0.000000
21
1.253429
31
0.0
0
LINE
8
FRONT_HID
6
HIDDEN
10
0.000000
20
1.253429
30
0.0
11
0.000000
21
1.282000
31
0.0
0
LINE
8
FRONT_HID
6
HIDDEN
10
0.000000
20
1.282000
30
0.0
11
0.000000
21
1.310571
31
0.0
0
LINE
8
FRONT_HID
6
HIDDEN
10
0.000000
20
1.310571
30
0.0
11
0.000000
21
1.339143
31
0.0
0
LINE
8
FRONT_HID
6
HIDDEN
10
0.000000
20
1.339143
30
0.0
11
0.000000
21
1.367714
31
0.0
0
LINE
8
FRONT_HID
6
HIDDEN
10
0.000000
20
1.367714
30
0.0
11
0.000000
21
1.396286
31
0.0
0
LINE
8
FRONT_HID
6
HIDDEN
10
0.000000
20
1.396286
30
0.0
11
0.000000
21
1.424857
31
0.0
0
LINE
8
FRONT_HID
6
HIDDEN
10
0.000000
20
1.424857
30
0.0
11
0.000000
21
1.453429
31
0.0
0
LINE
8
FRONT_HID
6
HIDDEN
10
0.000000
20
1.453429
30
0.0
11
0.000000
21
1.482000
31
0.0
0
LINE
8
FRONT_HID
6
HIDDEN
10
0.000000
20
1.482000
30
0.0
11
0.000000
21
1.510571
31
0.0
0
LINE
8
FRONT_HID
6
HIDDEN
10
0.000000
20
1.510571
30
0.0
11
0.000000
21
1.539143
31
0.0
0
LINE
8
FRONT_HID
6
HIDDEN
10
0.000000
20
1.539143
30
0.0
11
0.000000
21
1.567714
31
0.0
0
LINE
8
FRONT_HID
6
HIDDEN
10
0.000000
20
1.567714
30
0.0
11
0.000000
21
1.596286
31
0.0
0
LINE
8
FRONT_HID
6
HIDDEN
10
0.000000
20
1.596286
30
0.0
11
0.000000
21
1.624857
31
0.0
0
LINE
8
FRONT_HID
6
HIDDEN
10
0.000000
20
1.624857
30
0.0
11
0.000000
21
1.653429
31
0.0
0
LINE
8
FRONT_HID
6
HIDDEN
10
0.000000
20
1.653429
30
0.0
11
0.000000
21
1.682000
31
0.0
0
LINE
8
FRONT_HID
6
HIDDEN
10
0.000000
20
1.682000
30
0.0
11
0.000000
21
1.710571
31
0.0
0
LINE
8
FRONT_HID
6
HIDDEN
10
0.000000
20
1.710571
30
0.0
11
0.000000
21
1.739143
31
0.0
0
LINE
8
FRONT_HID
6
HIDDEN
10
0.000000
20
1.739143
30
0.0
11
0.000000
21
1.767714
31
0.0
0
LINE
8
FRONT_HID
6
HIDDEN
10
0.000000
20
1.767714
30
0.0
11
0.000000
21
1.796286
31
0.0
0
LINE
8
FRONT_HID
6
HIDDEN
10
0.000000
20
1.796286
30
0.0
11
0.000000
21
1.824857
31
0.0
0
LINE
8
FRONT_HID
6
HIDDEN
10
0.000000
20
1.824857
30
0.0
11
0.000000
21
1.853429
31
0.0
0
LINE
8
FRONT_HID
6
HIDDEN
10
0.000000
20
1.853429
30
0.0
11
0.000000
21
1.882000
31
0.0
0
LINE
8
FRONT_HID
6
HIDDEN
10
0.000000
20
1.882000
30
0.0
11
0.000000
21
1.910571
31
0.0
0
LINE
8
FRONT_HID
6
HIDDEN
10
0.000000
20
1.910571
30
0.0
11
0.000000
21
1.939143
31
0.0
0
LINE
8
FRONT_HID
6
HIDDEN
10
0.000000
20
1.939143
30
0.0
11
0.000000
21
1.967714
31
0.0
0
LINE
8
FRONT_HID
6
HIDDEN
10
0.000000
20
1.967714
30
0.0
11
0.000000
21
1.996286
31
0.0
0
LINE
8
FRONT_HID
6
HIDDEN
10
0.000000
20
1.996286
30
0.0
11
0.000000
21
2.024857
31
0.0
0
LINE
8
FRONT_HID
6
HIDDEN
10
0.000000
20
2.024857
30
0.0
11
0.000000
21
2.053429
31
0.0
0
LINE
8
FRONT_HID
6
HIDDEN
10
0.000000
20
2.053429
30
0.0
11
0.000000
21
2.082000
31
0.0
0
LINE
8
FRONT_HID
6
HIDDEN
10
0.150000
20
2.082000
30
0.0
11
0.150000
21
1.182000
31
0.0
0
LINE
8
FRONT_HID
6
HIDDEN
10
0.150000
20
1.182000
30
0.0
11
0.150000
21
2.082000
31
0.0
0
LINE
8
FRONT_HID
6
HIDDEN
10
0.750000
20
1.284000
30
0.0
11
0.000000
21
1.284000
31
0.0
0
LINE
8
LEFT
10
1.421851
20
1.979403
30
0.0
11
1.456500
21
1.977674
31
0.0
0
LINE
8
LEFT
10
1.456500
20
1.977674
30
0.0
11
1.490806
21
1.972503
31
0.0
0
LINE
8
LEFT
10
1.490806
20
1.972503
30
0.0
11
1.524426
21
1.963943
31
0.0
0
LINE
8
LEFT
10
1.524426
20
1.963943
30
0.0
11
1.557026
21
1.952077
31
0.0
0
LINE
8
LEFT
10
1.557026
20
1.952077
30
0.0
11
1.588283
21
1.937024
31
0.0
0
LINE
8
LEFT
10
1.588283
20
1.937024
30
0.0
11
1.617886
21
1.918934
31
0.0
0
LINE
8
LEFT
10
1.617886
20
1.918934
30
0.0
11
1.645541
21
1.897987
31
0.0
0
LINE
8
LEFT
10
1.645541
20
1.897987
30
0.0
11
1.670972
21
1.874390
31
0.0
0
LINE
8
LEFT
10
1.670972
20
1.874390
30
0.0
11
1.693928
21
1.848378
31
0.0
0
LINE
8
LEFT
10
1.693928
20
1.848378
30
0.0
11
1.714180
21
1.820209
31
0.0
0
LINE
8
LEFT
10
1.714180
20
1.820209
30
0.0
11
1.731526
21
1.790165
31
0.0
0
LINE
8
LEFT
10
1.731526
20
1.790165
30
0.0
11
1.745795
21
1.758542
31
0.0
0
LINE
8
LEFT
10
1.745795
20
1.758542
30
0.0
11
1.756844
21
1.725656
31
0.0
0
LINE
8
LEFT
10
1.756844
20
1.725656
30
0.0
11
1.764564
21
1.691833
31
0.0
0
LINE
8
LEFT
10
1.764564
20
1.691833
30
0.0
11
1.768878
21
1.657409
31
0.0
0
LINE
8
LEFT
10
1.768878
20
1.657409
30
0.0
11
1.769743
21
1.622727
31
0.0
0
LINE
8
LEFT
10
1.769743
20
1.622727
30
0.0
11
1.767150
21
1.588132
31
0.0
0
LINE
8
LEFT
10
1.767150
20
1.588132
30
0.0
11
1.761126
21
1.553966
31
0.0
0
LINE
8
LEFT
10
1.761126
20
1.553966
30
0.0
11
1.751730
21
1.520570
31
0.0
0
LINE
8
LEFT
10
1.751730
20
1.520570
30
0.0
11
1.739055
21
1.488275
31
0.0
0
LINE
8
LEFT
10
1.739055
20
1.488275
30
0.0
11
1.723228
21
1.457403
31
0.0
0
LINE
8
LEFT
10
1.723228
20
1.457403
30
0.0
11
1.704405
21
1.428261
31
0.0
0
LINE
8
LEFT
10
1.704405
20
1.428261
30
0.0
11
1.682775
21
1.401137
31
0.0
0
LINE
8
LEFT
10
1.682775
20
1.401137
30
0.0
11
1.658551
21
1.376301
31
0.0
0
LINE
8
LEFT
10
1.658551
20
1.376301
30
0.0
11
1.631975
21
1.354001
31
0.0
0
LINE
8
LEFT
10
1.631975
20
1.354001
30
0.0
11
1.603310
21
1.334458
31
0.0
0
LINE
8
LEFT
10
1.603310
20
1.334458
30
0.0
11
1.572842
21
1.317866
31
0.0
0
LINE
8
LEFT
10
1.572842
20
1.317866
30
0.0
11
1.540874
21
1.304390
31
0.0
0
LINE
8
LEFT
10
1.540874
20
1.304390
30
0.0
11
1.507722
21
1.294164
31
0.0
0
LINE
8
LEFT
10
1.507722
20
1.294164
30
0.0
11
1.473718
21
1.287290
31
0.0
0
LINE
8
LEFT
10
1.473718
20
1.287290
30
0.0
11
1.439197
21
1.283836
31
0.0
0
LINE
8
LEFT
10
1.439197
20
1.283836
30
0.0
11
1.404504
21
1.283836
31
0.0
0
LINE
8
LEFT
10
1.404504
20
1.283836
30
0.0
11
1.369984
21
1.287290
31
0.0
0
LINE
8
LEFT
10
1.369984
20
1.287290
30
0.0
11
1.335979
21
1.294164
31
0.0
0
LINE
8
LEFT
10
1.335979
20
1.294164
30
0.0
11
1.302828
21
1.304390
31
0.0
0
LINE
8
LEFT
10
1.302828
20
1.304390
30
0.0
11
1.270859
21
1.317866
31
0.0
0
LINE
8
LEFT
10
1.270859
20
1.317866
30
0.0
11
1.240391
21
1.334458
31
0.0
0
LINE
8
LEFT
10
1.240391
20
1.334458
30
0.0
11
1.211727
21
1.354001
31
0.0
0
LINE
8
LEFT
10
1.211727
20
1.354001
30
0.0
11
1.185151
21
1.376301
31
0.0
0
LINE
8
LEFT
10
1.185151
20
1.376301
30
0.0
11
1.160927
21
1.401137
31
0.0
0
LINE
8
LEFT
10
1.160927
20
1.401137
30
0.0
11
1.139296
21
1.428261
31
0.0
0
LINE
8
LEFT
10
1.139296
20
1.428261
30
0.0
11
1.120474
21
1.457403
31
0.0
0
LINE
8
LEFT
10
1.120474
20
1.457403
30
0.0
11
1.104647
21
1.488275
31
0.0
0
LINE
8
LEFT
10
1.104647
20
1.488275
30
0.0
11
1.091972
21
1.520570
31
0.0
0
LINE
8
LEFT
10
1.091972
20
1.520570
30
0.0
11
1.082576
21
1.553966
31
0.0
0
LINE
8
LEFT
10
1.082576
20
1.553966
30
0.0
11
1.076552
21
1.588132
31
0.0
0
LINE
8
LEFT
10
1.076552
20
1.588132
30
0.0
11
1.073959
21
1.622727
31
0.0
0
LINE
8
LEFT
10
1.073959
20
1.622727
30
0.0
11
1.074824
21
1.657409
31
0.0
0
LINE
8
LEFT
10
1.074824
20
1.657409
30
0.0
11
1.079138
21
1.691833
31
0.0
0
LINE
8
LEFT
10
1.079138
20
1.691833
30
0.0
11
1.086858
21
1.725656
31
0.0
0
LINE
8
LEFT
10
1.086858
20
1.725656
30
0.0
11
1.097907
21
1.758542
31
0.0
0
LINE
8
LEFT
10
1.097907
20
1.758542
30
0.0
11
1.112175
21
1.790165
31
0.0
0
LINE
8
LEFT
10
1.112175
20
1.790165
30
0.0
11
1.129522
21
1.820209
31
0.0
0
LINE
8
LEFT
10
1.129522
20
1.820209
30
0.0
11
1.149773
21
1.848378
31
0.0
0
LINE
8
LEFT
10
1.149773
20
1.848378
30
0.0
11
1.172729
21
1.874390
31
0.0
0
LINE
8
LEFT
10
1.172729
20
1.874390
30
0.0
11
1.198161
21
1.897987
31
0.0
0
LINE
8
LEFT
10
1.198161
20
1.897987
30
0.0
11
1.225815
21
1.918934
31
0.0
0
LINE
8
LEFT
10
1.225815
20
1.918934
30
0.0
11
1.255418
21
1.937024
31
0.0
0
LINE
8
LEFT
10
1.255418
20
1.937024
30
0.0
11
1.286675
21
1.952077
31
0.0
0
LINE
8
LEFT
10
1.286675
20
1.952077
30
0.0
11
1.319276
21
1.963943
31
0.0
0
LINE
8
LEFT
10
1.319276
20
1.963943
30
0.0
11
1.352896
21
1.972503
31
0.0
0
LINE
8
LEFT
10
1.352896
20
1.972503
30
0.0
11
1.387201
21
1.977674
31
0.0
0
LINE
8
LEFT
10
1.387201
20
1.977674
30
0.0
11
1.421851
21
1.979403
31
0.0
0
LINE
8
LEFT
10
1.421851
20
2.111403
30
0.0
11
1.469643
21
2.109018
31
0.0
0
LINE
8
LEFT
10
1.469643
20
2.109018
30
0.0
11
1.516961
21
2.101886
31
0.0
0
LINE
8
LEFT
10
1.516961
20
2.101886
30
0.0
11
1.563333
21
2.090078
31
0.0
0
LINE
8
LEFT
10
1.563333
20
2.090078
30
0.0
11
1.608300
21
2.073712
31
0.0
0
LINE
8
LEFT
10
1.608300
20
2.073712
30
0.0
11
1.651413
21
2.052950
31
0.0
0
LINE
8
LEFT
10
1.651413
20
2.052950
30
0.0
11
1.692244
21
2.027998
31
0.0
0
LINE
8
LEFT
10
1.692244
20
2.027998
30
0.0
11
1.730389
21
1.999105
31
0.0
0
LINE
8
LEFT
10
1.730389
20
1.999105
30
0.0
11
1.765467
21
1.966557
31
0.0
0
LINE
8
LEFT
10
1.765467
20
1.966557
30
0.0
11
1.797130
21
1.930678
31
0.0
0
LINE
8
LEFT
10
1.797130
20
1.930678
30
0.0
11
1.825063
21
1.891826
31
0.0
0
LINE
8
LEFT
10
1.825063
20
1.891826
30
0.0
11
1.848989
21
1.850384
31
0.0
0
LINE
8
LEFT
10
1.848989
20
1.850384
30
0.0
11
1.868670
21
1.806767
31
0.0
0
LINE
8
LEFT
10
1.868670
20
1.806767
30
0.0
11
1.883910
21
1.761407
31
0.0
0
LINE
8
LEFT
10
1.883910
20
1.761407
30
0.0
11
1.894559
21
1.714754
31
0.0
0
LINE
8
LEFT
10
1.894559
20
1.714754
30
0.0
11
1.900509
21
1.667274
31
0.0
0
LINE
8
LEFT
10
1.900509
20
1.667274
30
0.0
11
1.901702
21
1.619437
31
0.0
0
LINE
8
LEFT
10
1.901702
20
1.619437
30
0.0
11
1.898126
21
1.571718
31
0.0
0
LINE
8
LEFT
10
1.898126
20
1.571718
30
0.0
11
1.889816
21
1.524593
31
0.0
0
LINE
8
LEFT
10
1.889816
20
1.524593
30
0.0
11
1.876856
21
1.478530
31
0.0
0
LINE
8
LEFT
10
1.876856
20
1.478530
30
0.0
11
1.859374
21
1.433986
31
0.0
0
LINE
8
LEFT
10
1.859374
20
1.433986
30
0.0
11
1.837543
21
1.391403
31
0.0
0
LINE
8
LEFT
10
1.837543
20
1.391403
30
0.0
11
1.811581
21
1.351206
31
0.0
0
LINE
8
LEFT
10
1.811581
20
1.351206
30
0.0
11
1.781746
21
1.313794
31
0.0
0
LINE
8
LEFT
10
1.781746
20
1.313794
30
0.0
11
1.748334
21
1.279538
31
0.0
0
LINE
8
LEFT
10
1.748334
20
1.279538
30
0.0
11
1.711677
21
1.248780
31
0.0
0
LINE
8
LEFT
10
1.711677
20
1.248780
30
0.0
11
1.672140
21
1.221824
31
0.0
0
LINE
8
LEFT
10
1.672140
20
1.221824
30
0.0
11
1.630115
21
1.198938
31
0.0
0
LINE
8
LEFT
10
1.630115
20
1.198938
30
0.0
11
1.586020
21
1.180351
31
0.0
0
LINE
8
LEFT
10
1.586020
20
1.180351
30
0.0
11
1.540294
21
1.166246
31
0.0
0
LINE
8
LEFT
10
1.540294
20
1.166246
30
0.0
11
1.493391
21
1.156765
31
0.0
0
LINE
8
LEFT
10
1.493391
20
1.156765
30
0.0
11
1.445777
21
1.152000
31
0.0
0
LINE
8
LEFT
10
1.445777
20
1.152000
30
0.0
11
1.397925
21
1.152000
31
0.0
0
LINE
8
LEFT
10
1.397925
20
1.152000
30
0.0
11
1.350311
21
1.156765
31
0.0
0
LINE
8
LEFT
10
1.350311
20
1.156765
30
0.0
11
1.303407
21
1.166246
31
0.0
0
LINE
8
LEFT
10
1.303407
20
1.166246
30
0.0
11
1.257681
21
1.180351
31
0.0
0
LINE
8
LEFT
10
1.257681
20
1.180351
30
0.0
11
1.213587
21
1.198938
31
0.0
0
LINE
8
LEFT
10
1.213587
20
1.198938
30
0.0
11
1.171562
21
1.221824
31
0.0
0
LINE
8
LEFT
10
1.171562
20
1.221824
30
0.0
11
1.132025
21
1.248780
31
0.0
0
LINE
8
LEFT
10
1.132025
20
1.248780
30
0.0
11
1.095368
21
1.279538
31
0.0
0
LINE
8
LEFT
10
1.095368
20
1.279538
30
0.0
11
1.061956
21
1.313794
31
0.0
0
LINE
8
LEFT
10
1.061956
20
1.313794
30
0.0
11
1.032121
21
1.351206
31
0.0
0
LINE
8
LEFT
10
1.032121
20
1.351206
30
0.0
11
1.006159
21
1.391403
31
0.0
0
LINE
8
LEFT
10
1.006159
20
1.391403
30
0.0
11
0.984328
21
1.433986
31
0.0
0
LINE
8
LEFT
10
0.984328
20
1.433986
30
0.0
11
0.966846
21
1.478530
31
0.0
0
LINE
8
LEFT
10
0.966846
20
1.478530
30
0.0
11
0.953885
21
1.524593
31
0.0
0
LINE
8
LEFT
10
0.953885
20
1.524593
30
0.0
11
0.945576
21
1.571718
31
0.0
0
LINE
8
LEFT
10
0.945576
20
1.571718
30
0.0
11
0.942000
21
1.619437
31
0.0
0
LINE
8
LEFT
10
0.942000
20
1.619437
30
0.0
11
0.943193
21
1.667274
31
0.0
0
LINE
8
LEFT
10
0.943193
20
1.667274
30
0.0
11
0.949143
21
1.714754
31
0.0
0
LINE
8
LEFT
10
0.949143
20
1.714754
30
0.0
11
0.959791
21
1.761407
31
0.0
0
LINE
8
LEFT
10
0.959791
20
1.761407
30
0.0
11
0.975031
21
1.806767
31
0.0
0
LINE
8
LEFT
10
0.975031
20
1.806767
30
0.0
11
0.994712
21
1.850384
31
0.0
0
LINE
8
LEFT
10
0.994712
20
1.850384
30
0.0
11
1.018638
21
1.891826
31
0.0
0
LINE
8
LEFT
10
1.018638
20
1.891826
30
0.0
11
1.046572
21
1.930678
31
0.0
0
LINE
8
LEFT
10
1.046572
20
1.930678
30
0.0
11
1.078235
21
1.966557
31
0.0
0
LINE
8
LEFT
10
1.078235
20
1.966557
30
0.0
11
1.113313
21
1.999105
31
0.0
0
LINE
8
LEFT
10
1.113313
20
1.999105
30
0.0
11
1.151457
21
2.027998
31
0.0
0
LINE
8
LEFT
10
1.151457
20
2.027998
30
0.0
11
1.192289
21
2.052950
31
0.0
0
LINE
8
LEFT
10
1.192289
20
2.052950
30
0.0
11
1.235402
21
2.073712
31
0.0
0
LINE
8
LEFT
10
1.235402
20
2.073712
30
0.0
11
1.280368
21
2.090078
31
0.0
0
LINE
8
LEFT
10
1.280368
20
2.090078
30
0.0
11
1.326741
21
2.101886
31
0.0
0
LINE
8
LEFT
10
1.326741
20
2.101886
30
0.0
11
1.374058
21
2.109018
31
0.0
0
LINE
8
LEFT
10
1.374058
20
2.109018
30
0.0
11
1.421851
21
2.111403
31
0.0
0
LINE
8
LEFT_HID
6
HIDDEN
10
1.421851
20
2.081403
30
0.0
11
1.466656
21
2.079167
31
0.0
0
LINE
8
LEFT_HID
6
HIDDEN
10
1.466656
20
2.079167
30
0.0
11
1.511017
21
2.072481
31
0.0
0
LINE
8
LEFT_HID
6
HIDDEN
10
1.511017
20
2.072481
30
0.0
11
1.554491
21
2.061411
31
0.0
0
LINE
8
LEFT_HID
6
HIDDEN
10
1.554491
20
2.061411
30
0.0
11
1.596646
21
2.046068
31
0.0
0
LINE
8
LEFT_HID
6
HIDDEN
10
1.596646
20
2.046068
30
0.0
11
1.637065
21
2.026603
31
0.0
0
LINE
8
LEFT_HID
6
HIDDEN
10
1.637065
20
2.026603
30
0.0
11
1.675345
21
2.003211
31
0.0
0
LINE
8
LEFT_HID
6
HIDDEN
10
1.675345
20
2.003211
30
0.0
11
1.711105
21
1.976123
31
0.0
0
LINE
8
LEFT_HID
6
HIDDEN
10
1.711105
20
1.976123
30
0.0
11
1.743991
21
1.945610
31
0.0
0
LINE
8
LEFT_HID
6
HIDDEN
10
1.743991
20
1.945610
30
0.0
11
1.773675
21
1.911974
31
0.0
0
LINE
8
LEFT_HID
6
HIDDEN
10
1.773675
20
1.911974
30
0.0
11
1.799862
21
1.875549
31
0.0
0
LINE
8
LEFT_HID
6
HIDDEN
10
1.799862
20
1.875549
30
0.0
11
1.822293
21
1.836698
31
0.0
0
LINE
8
LEFT_HID
6
HIDDEN
10
1.822293
20
1.836698
30
0.0
11
1.840744
21
1.795807
31
0.0
0
LINE
8
LEFT_HID
6
HIDDEN
10
1.840744
20
1.795807
30
0.0
11
1.855032
21
1.753282
31
0.0
0
LINE
8
LEFT_HID
6
HIDDEN
10
1.855032
20
1.753282
30
0.0
11
1.865014
21
1.709545
31
0.0
0
LINE
8
LEFT_HID
6
HIDDEN
10
1.865014
20
1.709545
30
0.0
11
1.870593
21
1.665032
31
0.0
0
LINE
8
LEFT_HID
6
HIDDEN
10
1.870593
20
1.665032
30
0.0
11
1.871711
21
1.620185
31
0.0
0
LINE
8
LEFT_HID
6
HIDDEN
10
1.871711
20
1.620185
30
0.0
11
1.868358
21
1.575449
31
0.0
0
LINE
8
LEFT_HID
6
HIDDEN
10
1.868358
20
1.575449
30
0.0
11
1.860568
21
1.531269
31
0.0
0
LINE
8
LEFT_HID
6
HIDDEN
10
1.860568
20
1.531269
30
0.0
11
1.848418
21
1.488084
31
0.0
0
LINE
8
LEFT_HID
6
HIDDEN
10
1.848418
20
1.488084
30
0.0
11
1.832028
21
1.446324
31
0.0
0
LINE
8
LEFT_HID
6
HIDDEN
10
1.832028
20
1.446324
30
0.0
11
1.811562
21
1.406403
31
0.0
0
LINE
8
LEFT_HID
6
HIDDEN
10
1.811562
20
1.406403
30
0.0
11
1.787223
21
1.368719
31
0.0
0
LINE
8
LEFT_HID
6
HIDDEN
10
1.787223
20
1.368719
30
0.0
11
1.759252
21
1.333645
31
0.0
0
LINE
8
LEFT_HID
6
HIDDEN
10
1.759252
20
1.333645
30
0.0
11
1.727929
21
1.301530
31
0.0
0
LINE
8
LEFT_HID
6
HIDDEN
10
1.727929
20
1.301530
30
0.0
11
1.693563
21
1.272694
31
0.0
0
LINE
8
LEFT_HID
6
HIDDEN
10
1.693563
20
1.272694
30
0.0
11
1.656497
21
1.247422
31
0.0
0
LINE
8
LEFT_HID
6
HIDDEN
10
1.656497
20
1.247422
30
0.0
11
1.617098
21
1.225967
31
0.0
0
LINE
8
LEFT_HID
6
HIDDEN
10
1.617098
20
1.225967
30
0.0
11
1.575760
21
1.208542
31
0.0
0
LINE
8
LEFT_HID
6
HIDDEN
10
1.575760
20
1.208542
30
0.0
11
1.532892
21
1.195319
31
0.0
0
LINE
8
LEFT_HID
6
HIDDEN
10
1.532892
20
1.195319
30
0.0
11
1.488920
21
1.186429
31
0.0
0
LINE
8
LEFT_HID
6
HIDDEN
10
1.488920
20
1.186429
30
0.0
11
1.444281
21
1.181963
31
0.0
0
LINE
8
LEFT_HID
6
HIDDEN
10
1.444281
20
1.181963
30
0.0
11
1.399420
21
1.181963
31
0.0
0
LINE
8
LEFT_HID
6
HIDDEN
10
1.399420
20
1.181963
30
0.0
11
1.354782
21
1.186429
31
0.0
0
LINE
8
LEFT_HID
6
HIDDEN
10
1.354782
20
1.186429
30
0.0
11
1.310810
21
1.195319
31
0.0
0
LINE
8
LEFT_HID
6
HIDDEN
10
1.310810
20
1.195319
30
0.0
11
1.267942
21
1.208542
31
0.0
0
LINE
8
LEFT_HID
6
HIDDEN
10
1.267942
20
1.208542
30
0.0
11
1.226603
21
1.225967
31
0.0
0
LINE
8
LEFT_HID
6
HIDDEN
10
1.226603
20
1.225967
30
0.0
11
1.187205
21
1.247422
31
0.0
0
LINE
8
LEFT_HID
6
HIDDEN
10
1.187205
20
1.247422
30
0.0
11
1.150139
21
1.272694
31
0.0
0
LINE
8
LEFT_HID
6
HIDDEN
10
1.150139
20
1.272694
30
0.0
11
1.115773
21
1.301530
31
0.0
0
LINE
8
LEFT_HID
6
HIDDEN
10
1.115773
20
1.301530
30
0.0
11
1.084449
21
1.333645
31
0.0
0
LINE
8
LEFT_HID
6
HIDDEN
10
1.084449
20
1.333645
30
0.0
11
1.056479
21
1.368719
31
0.0
0
LINE
8
LEFT_HID
6
HIDDEN
10
1.056479
20
1.368719
30
0.0
11
1.032139
21
1.406403
31
0.0
0
LINE
8
LEFT_HID
6
HIDDEN
10
1.032139
20
1.406403
30
0.0
11
1.011673
21
1.446324
31
0.0
0
LINE
8
LEFT_HID
6
HIDDEN
10
1.011673
20
1.446324
30
0.0
11
0.995284
21
1.488084
31
0.0
0
LINE
8
LEFT_HID
6
HIDDEN
10
0.995284
20
1.488084
30
0.0
11
0.983133
21
1.531269
31
0.0
0
LINE
8
LEFT_HID
6
HIDDEN
10
0.983133
20
1.531269
30
0.0
11
0.975343
21
1.575449
31
0.0
0
LINE
8
LEFT_HID
6
HIDDEN
10
0.975343
20
1.575449
30
0.0
11
0.971991
21
1.620185
31
0.0
0
LINE
8
LEFT_HID
6
HIDDEN
10
0.971991
20
1.620185
30
0.0
11
0.973109
21
1.665032
31
0.0
0
LINE
8
LEFT_HID
6
HIDDEN
10
0.973109
20
1.665032
30
0.0
11
0.978687
21
1.709545
31
0.0
0
LINE
8
LEFT_HID
6
HIDDEN
10
0.978687
20
1.709545
30
0.0
11
0.988670
21
1.753282
31
0.0
0
LINE
8
LEFT_HID
6
HIDDEN
10
0.988670
20
1.753282
30
0.0
11
1.002958
21
1.795807
31
0.0
0
LINE
8
LEFT_HID
6
HIDDEN
10
1.002958
20
1.795807
30
0.0
11
1.021408
21
1.836698
31
0.0
0
LINE
8
LEFT_HID
6
HIDDEN
10
1.021408
20
1.836698
30
0.0
11
1.043839
21
1.875549
31
0.0
0
LINE
8
LEFT_HID
6
HIDDEN
10
1.043839
20
1.875549
30
0.0
11
1.070027
21
1.911974
31
0.0
0
LINE
8
LEFT_HID
6
HIDDEN
10
1.070027
20
1.911974
30
0.0
11
1.099711
21
1.945610
31
0.0
0
LINE
8
LEFT_HID
6
HIDDEN
10
1.099711
20
1.945610
30
0.0
11
1.132596
21
1.976123
31
0.0
0
LINE
8
LEFT_HID
6
HIDDEN
10
1.132596
20
1.976123
30
0.0
11
1.168357
21
2.003211
31
0.0
0
LINE
8
LEFT_HID
6
HIDDEN
10
1.168357
20
2.003211
30
0.0
11
1.206637
21
2.026603
31
0.0
0
LINE
8
LEFT_HID
6
HIDDEN
10
1.206637
20
2.026603
30
0.0
11
1.247055
21
2.046068
31
0.0
0
LINE
8
LEFT_HID
6
HIDDEN
10
1.247055
20
2.046068
30
0.0
11
1.289211
21
2.061411
31
0.0
0
LINE
8
LEFT_HID
6
HIDDEN
10
1.289211
20
2.061411
30
0.0
11
1.332685
21
2.072481
31
0.0
0
LINE
8
LEFT_HID
6
HIDDEN
10
1.332685
20
2.072481
30
0.0
11
1.377045
21
2.079167
31
0.0
0
LINE
8
LEFT_HID
6
HIDDEN
10
1.377045
20
2.079167
30
0.0
11
1.421851
21
2.081403
31
0.0
0
LINE
8
LEFT_HID
6
HIDDEN
10
1.421851
20
2.081403
30
0.0
11
1.377045
21
2.079167
31
0.0
0
LINE
8
LEFT_HID
6
HIDDEN
10
1.377045
20
2.079167
30
0.0
11
1.332685
21
2.072481
31
0.0
0
LINE
8
LEFT_HID
6
HIDDEN
10
1.332685
20
2.072481
30
0.0
11
1.289211
21
2.061411
31
0.0
0
LINE
8
LEFT_HID
6
HIDDEN
10
1.289211
20
2.061411
30
0.0
11
1.247055
21
2.046068
31
0.0
0
LINE
8
LEFT_HID
6
HIDDEN
10
1.247055
20
2.046068
30
0.0
11
1.206637
21
2.026603
31
0.0
0
LINE
8
LEFT_HID
6
HIDDEN
10
1.206637
20
2.026603
30
0.0
11
1.168357
21
2.003211
31
0.0
0
LINE
8
LEFT_HID
6
HIDDEN
10
1.168357
20
2.003211
30
0.0
11
1.132596
21
1.976123
31
0.0
0
LINE
8
LEFT_HID
6
HIDDEN
10
1.132596
20
1.976123
30
0.0
11
1.099711
21
1.945610
31
0.0
0
LINE
8
LEFT_HID
6
HIDDEN
10
1.099711
20
1.945610
30
0.0
11
1.070027
21
1.911974
31
0.0
0
LINE
8
LEFT_HID
6
HIDDEN
10
1.070027
20
1.911974
30
0.0
11
1.043839
21
1.875549
31
0.0
0
LINE
8
LEFT_HID
6
HIDDEN
10
1.043839
20
1.875549
30
0.0
11
1.021408
21
1.836698
31
0.0
0
LINE
8
LEFT_HID
6
HIDDEN
10
1.021408
20
1.836698
30
0.0
11
1.002958
21
1.795807
31
0.0
0
LINE
8
LEFT_HID
6
HIDDEN
10
1.002958
20
1.795807
30
0.0
11
0.988670
21
1.753282
31
0.0
0
LINE
8
LEFT_HID
6
HIDDEN
10
0.988670
20
1.753282
30
0.0
11
0.978687
21
1.709545
31
0.0
0
LINE
8
LEFT_HID
6
HIDDEN
10
0.978687
20
1.709545
30
0.0
11
0.973109
21
1.665032
31
0.0
0
LINE
8
LEFT_HID
6
HIDDEN
10
0.973109
20
1.665032
30
0.0
11
0.971991
21
1.620185
31
0.0
0
LINE
8
LEFT_HID
6
HIDDEN
10
0.971991
20
1.620185
30
0.0
11
0.975343
21
1.575449
31
0.0
0
LINE
8
LEFT_HID
6
HIDDEN
10
0.975343
20
1.575449
30
0.0
11
0.983133
21
1.531269
31
0.0
0
LINE
8
LEFT_HID
6
HIDDEN
10
0.983133
20
1.531269
30
0.0
11
0.995284
21
1.488084
31
0.0
0
LINE
8
LEFT_HID
6
HIDDEN
10
0.995284
20
1.488084
30
0.0
11
1.011673
21
1.446324
31
0.0
0
LINE
8
LEFT_HID
6
HIDDEN
10
1.011673
20
1.446324
30
0.0
11
1.032139
21
1.406403
31
0.0
0
LINE
8
LEFT_HID
6
HIDDEN
10
1.032139
20
1.406403
30
0.0
11
1.056479
21
1.368719
31
0.0
0
LINE
8
LEFT_HID
6
HIDDEN
10
1.056479
20
1.368719
30
0.0
11
1.084449
21
1.333645
31
0.0
0
LINE
8
LEFT_HID
6
HIDDEN
10
1.084449
20
1.333645
30
0.0
11
1.115773
21
1.301530
31
0.0
0
LINE
8
LEFT_HID
6
HIDDEN
10
1.115773
20
1.301530
30
0.0
11
1.150139
21
1.272694
31
0.0
0
LINE
8
LEFT_HID
6
HIDDEN
10
1.150139
20
1.272694
30
0.0
11
1.187205
21
1.247422
31
0.0
0
LINE
8
LEFT_HID
6
HIDDEN
10
1.187205
20
1.247422
30
0.0
11
1.226603
21
1.225967
31
0.0
0
LINE
8
LEFT_HID
6
HIDDEN
10
1.226603
20
1.225967
30
0.0
11
1.267942
21
1.208542
31
0.0
0
LINE
8
LEFT_HID
6
HIDDEN
10
1.267942
20
1.208542
30
0.0
11
1.310810
21
1.195319
31
0.0
0
LINE
8
LEFT_HID
6
HIDDEN
10
1.310810
20
1.195319
30
0.0
11
1.354782
21
1.186429
31
0.0
0
LINE
8
LEFT_HID
6
HIDDEN
10
1.354782
20
1.186429
30
0.0
11
1.399420
21
1.181963
31
0.0
0
LINE
8
LEFT_HID
6
HIDDEN
10
1.399420
20
1.181963
30
0.0
11
1.444281
21
1.181963
31
0.0
0
LINE
8
LEFT_HID
6
HIDDEN
10
1.444281
20
1.181963
30
0.0
11
1.488920
21
1.186429
31
0.0
0
LINE
8
LEFT_HID
6
HIDDEN
10
1.488920
20
1.186429
30
0.0
11
1.532892
21
1.195319
31
0.0
0
LINE
8
LEFT_HID
6
HIDDEN
10
1.532892
20
1.195319
30
0.0
11
1.575760
21
1.208542
31
0.0
0
LINE
8
LEFT_HID
6
HIDDEN
10
1.575760
20
1.208542
30
0.0
11
1.617098
21
1.225967
31
0.0
0
LINE
8
LEFT_HID
6
HIDDEN
10
1.617098
20
1.225967
30
0.0
11
1.656497
21
1.247422
31
0.0
0
LINE
8
LEFT_HID
6
HIDDEN
10
1.656497
20
1.247422
30
0.0
11
1.693563
21
1.272694
31
0.0
0
LINE
8
LEFT_HID
6
HIDDEN
10
1.693563
20
1.272694
30
0.0
11
1.727929
21
1.301530
31
0.0
0
LINE
8
LEFT_HID
6
HIDDEN
10
1.727929
20
1.301530
30
0.0
11
1.759252
21
1.333645
31
0.0
0
LINE
8
LEFT_HID
6
HIDDEN
10
1.759252
20
1.333645
30
0.0
11
1.787223
21
1.368719
31
0.0
0
LINE
8
LEFT_HID
6
HIDDEN
10
1.787223
20
1.368719
30
0.0
11
1.811562
21
1.406403
31
0.0
0
LINE
8
LEFT_HID
6
HIDDEN
10
1.811562
20
1.406403
30
0.0
11
1.832028
21
1.446324
31
0.0
0
LINE
8
LEFT_HID
6
HIDDEN
10
1.832028
20
1.446324
30
0.0
11
1.848418
21
1.488084
31
0.0
0
LINE
8
LEFT_HID
6
HIDDEN
10
1.848418
20
1.488084
30
0.0
11
1.860568
21
1.531269
31
0.0
0
LINE
8
LEFT_HID
6
HIDDEN
10
1.860568
20
1.531269
30
0.0
11
1.868358
21
1.575449
31
0.0
0
LINE
8
LEFT_HID
6
HIDDEN
10
1.868358
20
1.575449
30
0.0
11
1.871711
21
1.620185
31
0.0
0
LINE
8
LEFT_HID
6
HIDDEN
10
1.871711
20
1.620185
30
0.0
11
1.870593
21
1.665032
31
0.0
0
LINE
8
LEFT_HID
6
HIDDEN
10
1.870593
20
1.665032
30
0.0
11
1.865014
21
1.709545
31
0.0
0
LINE
8
LEFT_HID
6
HIDDEN
10
1.865014
20
1.709545
30
0.0
11
1.855032
21
1.753282
31
0.0
0
LINE
8
LEFT_HID
6
HIDDEN
10
1.855032
20
1.753282
30
0.0
11
1.840744
21
1.795807
31
0.0
0
LINE
8
LEFT_HID
6
HIDDEN
10
1.840744
20
1.795807
30
0.0
11
1.822293
21
1.836698
31
0.0
0
LINE
8
LEFT_HID
6
HIDDEN
10
1.822293
20
1.836698
30
0.0
11
1.799862
21
1.875549
31
0.0
0
LINE
8
LEFT_HID
6
HIDDEN
10
1.799862
20
1.875549
30
0.0
11
1.773675
21
1.911974
31
0.0
0
LINE
8
LEFT_HID
6
HIDDEN
10
1.773675
20
1.911974
30
0.0
11
1.743991
21
1.945610
31
0.0
0
LINE
8
LEFT_HID
6
HIDDEN
10
1.743991
20
1.945610
30
0.0
11
1.711105
21
1.976123
31
0.0
0
LINE
8
LEFT_HID
6
HIDDEN
10
1.711105
20
1.976123
30
0.0
11
1.675345
21
2.003211
31
0.0
0
LINE
8
LEFT_HID
6
HIDDEN
10
1.675345
20
2.003211
30
0.0
11
1.637065
21
2.026603
31
0.0
0
LINE
8
LEFT_HID
6
HIDDEN
10
1.637065
20
2.026603
30
0.0
11
1.596646
21
2.046068
31
0.0
0
LINE
8
LEFT_HID
6
HIDDEN
10
1.596646
20
2.046068
30
0.0
11
1.554491
21
2.061411
31
0.0
0
LINE
8
LEFT_HID
6
HIDDEN
10
1.554491
20
2.061411
30
0.0
11
1.511017
21
2.072481
31
0.0
0
LINE
8
LEFT_HID
6
HIDDEN
10
1.511017
20
2.072481
30
0.0
11
1.466656
21
2.079167
31
0.0
0
LINE
8
LEFT_HID
6
HIDDEN
10
1.466656
20
2.079167
30
0.0
11
1.421851
21
2.081403
31
0.0
0
LINE
8
TOP
10
0.750000
20
0.480000
30
0.0
11
0.750000
21
0.030000
31
0.0
0
LINE
8
TOP
10
0.750000
20
0.930000
30
0.0
11
0.750000
21
0.480000
31
0.0
0
LINE
8
TOP
10
0.000000
20
0.480000
30
0.0
11
0.000000
21
0.000000
31
0.0
0
LINE
8
TOP
10
0.000000
20
0.960000
30
0.0
11
0.000000
21
0.480000
31
0.0
0
LINE
8
TOP
10
0.150000
20
0.480000
30
0.0
11
0.150000
21
0.000000
31
0.0
0
LINE
8
TOP
10
0.150000
20
0.960000
30
0.0
11
0.150000
21
0.480000
31
0.0
0
LINE
8
TOP
10
0.750000
20
0.930000
30
0.0
11
0.150000
21
0.930000
31
0.0
0
LINE
8
TOP
10
0.750000
20
0.030000
30
0.0
11
0.150000
21
0.030000
31
0.0
0
LINE
8
TOP
10
0.150000
20
0.960000
30
0.0
11
0.000000
21
0.960000
31
0.0
0
LINE
8
TOP
10
0.150000
20
0.000000
30
0.0
11
0.000000
21
0.000000
31
0.0
0
LINE
8
TOP_HID
6
HIDDEN
10
0.000000
20
0.480000
30
0.0
11
0.000000
21
0.132000
31
0.0
0
LINE
8
TOP_HID
6
HIDDEN
10
0.000000
20
0.132000
30
0.0
11
0.000000
21
0.828000
31
0.0
0
LINE
8
TOP_HID
6
HIDDEN
10
0.000000
20
0.828000
30
0.0
11
0.000000
21
0.480000
31
0.0
0
LINE
8
TOP_HID
6
HIDDEN
10
0.750000
20
0.480000
30
0.0
11
0.750000
21
0.132000
31
0.0
0
LINE
8
TOP_HID
6
HIDDEN
10
0.750000
20
0.132000
30
0.0
11
0.750000
21
0.828000
31
0.0
0
LINE
8
TOP_HID
6
HIDDEN
10
0.750000
20
0.828000
30
0.0
11
0.750000
21
0.480000
31
0.0
0
LINE
8
TOP_HID
6
HIDDEN
10
0.000000
20
0.480000
30
0.0
11
0.000000
21
0.454745
31
0.0
0
LINE
8
TOP_HID
6
HIDDEN
10
0.000000
20
0.454745
30
0.0
11
0.000000
21
0.429489
31
0.0
0
LINE
8
TOP_HID
6
HIDDEN
10
0.000000
20
0.429489
30
0.0
11
0.000000
21
0.404234
31
0.0
0
LINE
8
TOP_HID
6
HIDDEN
10
0.000000
20
0.404234
30
0.0
11
0.000000
21
0.378979
31
0.0
0
LINE
8
TOP_HID
6
HIDDEN
10
0.000000
20
0.378979
30
0.0
11
0.000000
21
0.353724
31
0.0
0
LINE
8
TOP_HID
6
HIDDEN
10
0.000000
20
0.353724
30
0.0
11
0.000000
21
0.328468
31
0.0
0
LINE
8
TOP_HID
6
HIDDEN
10
0.000000
20
0.328468
30
0.0
11
0.000000
21
0.303213
31
0.0
0
LINE
8
TOP_HID
6
HIDDEN
10
0.000000
20
0.303213
30
0.0
11
0.000000
21
0.277958
31
0.0
0
LINE
8
TOP_HID
6
HIDDEN
10
0.000000
20
0.277958
30
0.0
11
0.000000
21
0.252703
31
0.0
0
LINE
8
TOP_HID
6
HIDDEN
10
0.000000
20
0.252703
30
0.0
11
0.000000
21
0.227447
31
0.0
0
LINE
8
TOP_HID
6
HIDDEN
10
0.000000
20
0.227447
30
0.0
11
0.000000
21
0.202192
31
0.0
0
LINE
8
TOP_HID
6
HIDDEN
10
0.000000
20
0.202192
30
0.0
11
0.000000
21
0.176937
31
0.0
0
LINE
8
TOP_HID
6
HIDDEN
10
0.000000
20
0.176937
30
0.0
11
0.000000
21
0.151681
31
0.0
0
LINE
8
TOP_HID
6
HIDDEN
10
0.000000
20
0.151681
30
0.0
11
0.000000
21
0.126426
31
0.0
0
LINE
8
TOP_HID
6
HIDDEN
10
0.000000
20
0.126426
30
0.0
11
0.000000
21
0.101171
31
0.0
0
LINE
8
TOP_HID
6
HIDDEN
10
0.000000
20
0.101171
30
0.0
11
0.000000
21
0.088543
31
0.0
0
LINE
8
TOP_HID
6
HIDDEN
10
0.000000
20
0.088543
30
0.0
11
0.000000
21
0.113799
31
0.0
0
LINE
8
TOP_HID
6
HIDDEN
10
0.000000
20
0.113799
30
0.0
11
0.000000
21
0.139054
31
0.0
0
LINE
8
TOP_HID
6
HIDDEN
10
0.000000
20
0.139054
30
0.0
11
0.000000
21
0.164309
31
0.0
0
LINE
8
TOP_HID
6
HIDDEN
10
0.000000
20
0.164309
30
0.0
11
0.000000
21
0.189564
31
0.0
0
LINE
8
TOP_HID
6
HIDDEN
10
0.000000
20
0.189564
30
0.0
11
0.000000
21
0.214820
31
0.0
0
LINE
8
TOP_HID
6
HIDDEN
10
0.000000
20
0.214820
30
0.0
11
0.000000
21
0.240075
31
0.0
0
LINE
8
TOP_HID
6
HIDDEN
10
0.000000
20
0.240075
30
0.0
11
0.000000
21
0.265330
31
0.0
0
LINE
8
TOP_HID
6
HIDDEN
10
0.000000
20
0.265330
30
0.0
11
0.000000
21
0.290585
31
0.0
0
LINE
8
TOP_HID
6
HIDDEN
10
0.000000
20
0.290585
30
0.0
11
0.000000
21
0.315841
31
0.0
0
LINE
8
TOP_HID
6
HIDDEN
10
0.000000
20
0.315841
30
0.0
11
0.000000
21
0.341096
31
0.0
0
LINE
8
TOP_HID
6
HIDDEN
10
0.000000
20
0.341096
30
0.0
11
0.000000
21
0.366351
31
0.0
0
LINE
8
TOP_HID
6
HIDDEN
10
0.000000
20
0.366351
30
0.0
11
0.000000
21
0.391607
31
0.0
0
LINE
8
TOP_HID
6
HIDDEN
10
0.000000
20
0.391607
30
0.0
11
0.000000
21
0.416862
31
0.0
0
LINE
8
TOP_HID
6
HIDDEN
10
0.000000
20
0.416862
30
0.0
11
0.000000
21
0.442117
31
0.0
0
LINE
8
TOP_HID
6
HIDDEN
10
0.000000
20
0.442117
30
0.0
11
0.000000
21
0.467372
31
0.0
0
LINE
8
TOP_HID
6
HIDDEN
10
0.000000
20
0.467372
30
0.0
11
0.000000
21
0.492628
31
0.0
0
LINE
8
TOP_HID
6
HIDDEN
10
0.000000
20
0.492628
30
0.0
11
0.000000
21
0.517883
31
0.0
0
LINE
8
TOP_HID
6
HIDDEN
10
0.000000
20
0.517883
30
0.0
11
0.000000
21
0.543138
31
0.0
0
LINE
8
TOP_HID
6
HIDDEN
10
0.000000
20
0.543138
30
0.0
11
0.000000
21
0.568393
31
0.0
0
LINE
8
TOP_HID
6
HIDDEN
10
0.000000
20
0.568393
30
0.0
11
0.000000
21
0.593649
31
0.0
0
LINE
8
TOP_HID
6
HIDDEN
10
0.000000
20
0.593649
30
0.0
11
0.000000
21
0.618904
31
0.0
0
LINE
8
TOP_HID
6
HIDDEN
10
0.000000
20
0.618904
30
0.0
11
0.000000
21
0.644159
31
0.0
0
LINE
8
TOP_HID
6
HIDDEN
10
0.000000
20
0.644159
30
0.0
11
0.000000
21
0.669415
31
0.0
0
LINE
8
TOP_HID
6
HIDDEN
10
0.000000
20
0.669415
30
0.0
11
0.000000
21
0.694670
31
0.0
0
LINE
8
TOP_HID
6
HIDDEN
10
0.000000
20
0.694670
30
0.0
11
0.000000
21
0.719925
31
0.0
0
LINE
8
TOP_HID
6
HIDDEN
10
0.000000
20
0.719925
30
0.0
11
0.000000
21
0.745180
31
0.0
0
LINE
8
TOP_HID
6
HIDDEN
10
0.000000
20
0.745180
30
0.0
11
0.000000
21
0.770436
31
0.0
0
LINE
8
TOP_HID
6
HIDDEN
10
0.000000
20
0.770436
30
0.0
11
0.000000
21
0.795691
31
0.0
0
LINE
8
TOP_HID
6
HIDDEN
10
0.000000
20
0.795691
30
0.0
11
0.000000
21
0.820946
31
0.0
0
LINE
8
TOP_HID
6
HIDDEN
10
0.000000
20
0.820946
30
0.0
11
0.000000
21
0.846201
31
0.0
0
LINE
8
TOP_HID
6
HIDDEN
10
0.000000
20
0.846201
30
0.0
11
0.000000
21
0.871457
31
0.0
0
LINE
8
TOP_HID
6
HIDDEN
10
0.000000
20
0.871457
30
0.0
11
0.000000
21
0.858829
31
0.0
0
LINE
8
TOP_HID
6
HIDDEN
10
0.000000
20
0.858829
30
0.0
11
0.000000
21
0.833574
31
0.0
0
LINE
8
TOP_HID
6
HIDDEN
10
0.000000
20
0.833574
30
0.0
11
0.000000
21
0.808319
31
0.0
0
LINE
8
TOP_HID
6
HIDDEN
10
0.000000
20
0.808319
30
0.0
11
0.000000
21
0.783063
31
0.0
0
LINE
8
TOP_HID
6
HIDDEN
10
0.000000
20
0.783063
30
0.0
11
0.000000
21
0.757808
31
0.0
0
LINE
8
TOP_HID
6
HIDDEN
10
0.000000
20
0.757808
30
0.0
11
0.000000
21
0.732553
31
0.0
0
LINE
8
TOP_HID
6
HIDDEN
10
0.000000
20
0.732553
30
0.0
11
0.000000
21
0.707297
31
0.0
0
LINE
8
TOP_HID
6
HIDDEN
10
0.000000
20
0.707297
30
0.0
11
0.000000
21
0.682042
31
0.0
0
LINE
8
TOP_HID
6
HIDDEN
10
0.000000
20
0.682042
30
0.0
11
0.000000
21
0.656787
31
0.0
0
LINE
8
TOP_HID
6
HIDDEN
10
0.000000
20
0.656787
30
0.0
11
0.000000
21
0.631532
31
0.0
0
LINE
8
TOP_HID
6
HIDDEN
10
0.000000
20
0.631532
30
0.0
11
0.000000
21
0.606276
31
0.0
0
LINE
8
TOP_HID
6
HIDDEN
10
0.000000
20
0.606276
30
0.0
11
0.000000
21
0.581021
31
0.0
0
LINE
8
TOP_HID
6
HIDDEN
10
0.000000
20
0.581021
30
0.0
11
0.000000
21
0.555766
31
0.0
0
LINE
8
TOP_HID
6
HIDDEN
10
0.000000
20
0.555766
30
0.0
11
0.000000
21
0.530511
31
0.0
0
LINE
8
TOP_HID
6
HIDDEN
10
0.000000
20
0.530511
30
0.0
11
0.000000
21
0.505255
31
0.0
0
LINE
8
TOP_HID
6
HIDDEN
10
0.000000
20
0.505255
30
0.0
11
0.000000
21
0.480000
31
0.0
0
LINE
8
TOP_HID
6
HIDDEN
10
0.750000
20
0.480000
30
0.0
11
0.750000
21
0.454745
31
0.0
0
LINE
8
TOP_HID
6
HIDDEN
10
0.750000
20
0.454745
30
0.0
11
0.750000
21
0.429489
31
0.0
0
LINE
8
TOP_HID
6
HIDDEN
10
0.750000
20
0.429489
30
0.0
11
0.750000
21
0.404234
31
0.0
0
LINE
8
TOP_HID
6
HIDDEN
10
0.750000
20
0.404234
30
0.0
11
0.750000
21
0.378979
31
0.0
0
LINE
8
TOP_HID
6
HIDDEN
10
0.750000
20
0.378979
30
0.0
11
0.750000
21
0.353724
31
0.0
0
LINE
8
TOP_HID
6
HIDDEN
10
0.750000
20
0.353724
30
0.0
11
0.750000
21
0.328468
31
0.0
0
LINE
8
TOP_HID
6
HIDDEN
10
0.750000
20
0.328468
30
0.0
11
0.750000
21
0.303213
31
0.0
0
LINE
8
TOP_HID
6
HIDDEN
10
0.750000
20
0.303213
30
0.0
11
0.750000
21
0.277958
31
0.0
0
LINE
8
TOP_HID
6
HIDDEN
10
0.750000
20
0.277958
30
0.0
11
0.750000
21
0.252703
31
0.0
0
LINE
8
TOP_HID
6
HIDDEN
10
0.750000
20
0.252703
30
0.0
11
0.750000
21
0.227447
31
0.0
0
LINE
8
TOP_HID
6
HIDDEN
10
0.750000
20
0.227447
30
0.0
11
0.750000
21
0.202192
31
0.0
0
LINE
8
TOP_HID
6
HIDDEN
10
0.750000
20
0.202192
30
0.0
11
0.750000
21
0.176937
31
0.0
0
LINE
8
TOP_HID
6
HIDDEN
10
0.750000
20
0.176937
30
0.0
11
0.750000
21
0.151681
31
0.0
0
LINE
8
TOP_HID
6
HIDDEN
10
0.750000
20
0.151681
30
0.0
11
0.750000
21
0.126426
31
0.0
0
LINE
8
TOP_HID
6
HIDDEN
10
0.750000
20
0.126426
30
0.0
11
0.750000
21
0.101171
31
0.0
0
LINE
8
TOP_HID
6
HIDDEN
10
0.750000
20
0.101171
30
0.0
11
0.750000
21
0.088543
31
0.0
0
LINE
8
TOP_HID
6
HIDDEN
10
0.750000
20
0.088543
30
0.0
11
0.750000
21
0.113799
31
0.0
0
LINE
8
TOP_HID
6
HIDDEN
10
0.750000
20
0.113799
30
0.0
11
0.750000
21
0.139054
31
0.0
0
LINE
8
TOP_HID
6
HIDDEN
10
0.750000
20
0.139054
30
0.0
11
0.750000
21
0.164309
31
0.0
0
LINE
8
TOP_HID
6
HIDDEN
10
0.750000
20
0.164309
30
0.0
11
0.750000
21
0.189564
31
0.0
0
LINE
8
TOP_HID
6
HIDDEN
10
0.750000
20
0.189564
30
0.0
11
0.750000
21
0.214820
31
0.0
0
LINE
8
TOP_HID
6
HIDDEN
10
0.750000
20
0.214820
30
0.0
11
0.750000
21
0.240075
31
0.0
0
LINE
8
TOP_HID
6
HIDDEN
10
0.750000
20
0.240075
30
0.0
11
0.750000
21
0.265330
31
0.0
0
LINE
8
TOP_HID
6
HIDDEN
10
0.750000
20
0.265330
30
0.0
11
0.750000
21
0.290585
31
0.0
0
LINE
8
TOP_HID
6
HIDDEN
10
0.750000
20
0.290585
30
0.0
11
0.750000
21
0.315841
31
0.0
0
LINE
8
TOP_HID
6
HIDDEN
10
0.750000
20
0.315841
30
0.0
11
0.750000
21
0.341096
31
0.0
0
LINE
8
TOP_HID
6
HIDDEN
10
0.750000
20
0.341096
30
0.0
11
0.750000
21
0.366351
31
0.0
0
LINE
8
TOP_HID
6
HIDDEN
10
0.750000
20
0.366351
30
0.0
11
0.750000
21
0.391607
31
0.0
0
LINE
8
TOP_HID
6
HIDDEN
10
0.750000
20
0.391607
30
0.0
11
0.750000
21
0.416862
31
0.0
0
LINE
8
TOP_HID
6
HIDDEN
10
0.750000
20
0.416862
30
0.0
11
0.750000
21
0.442117
31
0.0
0
LINE
8
TOP_HID
6
HIDDEN
10
0.750000
20
0.442117
30
0.0
11
0.750000
21
0.467372
31
0.0
0
LINE
8
TOP_HID
6
HIDDEN
10
0.750000
20
0.467372
30
0.0
11
0.750000
21
0.492628
31
0.0
0
LINE
8
TOP_HID
6
HIDDEN
10
0.750000
20
0.492628
30
0.0
11
0.750000
21
0.517883
31
0.0
0
LINE
8
TOP_HID
6
HIDDEN
10
0.750000
20
0.517883
30
0.0
11
0.750000
21
0.543138
31
0.0
0
LINE
8
TOP_HID
6
HIDDEN
10
0.750000
20
0.543138
30
0.0
11
0.750000
21
0.568393
31
0.0
0
LINE
8
TOP_HID
6
HIDDEN
10
0.750000
20
0.568393
30
0.0
11
0.750000
21
0.593649
31
0.0
0
LINE
8
TOP_HID
6
HIDDEN
10
0.750000
20
0.593649
30
0.0
11
0.750000
21
0.618904
31
0.0
0
LINE
8
TOP_HID
6
HIDDEN
10
0.750000
20
0.618904
30
0.0
11
0.750000
21
0.644159
31
0.0
0
LINE
8
TOP_HID
6
HIDDEN
10
0.750000
20
0.644159
30
0.0
11
0.750000
21
0.669415
31
0.0
0
LINE
8
TOP_HID
6
HIDDEN
10
0.750000
20
0.669415
30
0.0
11
0.750000
21
0.694670
31
0.0
0
LINE
8
TOP_HID
6
HIDDEN
10
0.750000
20
0.694670
30
0.0
11
0.750000
21
0.719925
31
0.0
0
LINE
8
TOP_HID
6
HIDDEN
10
0.750000
20
0.719925
30
0.0
11
0.750000
21
0.745180
31
0.0
0
LINE
8
TOP_HID
6
HIDDEN
10
0.750000
20
0.745180
30
0.0
11
0.750000
21
0.770436
31
0.0
0
LINE
8
TOP_HID
6
HIDDEN
10
0.750000
20
0.770436
30
0.0
11
0.750000
21
0.795691
31
0.0
0
LINE
8
TOP_HID
6
HIDDEN
10
0.750000
20
0.795691
30
0.0
11
0.750000
21
0.820946
31
0.0
0
LINE
8
TOP_HID
6
HIDDEN
10
0.750000
20
0.820946
30
0.0
11
0.750000
21
0.846201
31
0.0
0
LINE
8
TOP_HID
6
HIDDEN
10
0.750000
20
0.846201
30
0.0
11
0.750000
21
0.871457
31
0.0
0
LINE
8
TOP_HID
6
HIDDEN
10
0.750000
20
0.871457
30
0.0
11
0.750000
21
0.858829
31
0.0
0
LINE
8
TOP_HID
6
HIDDEN
10
0.750000
20
0.858829
30
0.0
11
0.750000
21
0.833574
31
0.0
0
LINE
8
TOP_HID
6
HIDDEN
10
0.750000
20
0.833574
30
0.0
11
0.750000
21
0.808319
31
0.0
0
LINE
8
TOP_HID
6
HIDDEN
10
0.750000
20
0.808319
30
0.0
11
0.750000
21
0.783063
31
0.0
0
LINE
8
TOP_HID
6
HIDDEN
10
0.750000
20
0.783063
30
0.0
11
0.750000
21
0.757808
31
0.0
0
LINE
8
TOP_HID
6
HIDDEN
10
0.750000
20
0.757808
30
0.0
11
0.750000
21
0.732553
31
0.0
0
LINE
8
TOP_HID
6
HIDDEN
10
0.750000
20
0.732553
30
0.0
11
0.750000
21
0.707297
31
0.0
0
LINE
8
TOP_HID
6
HIDDEN
10
0.750000
20
0.707297
30
0.0
11
0.750000
21
0.682042
31
0.0
0
LINE
8
TOP_HID
6
HIDDEN
10
0.750000
20
0.682042
30
0.0
11
0.750000
21
0.656787
31
0.0
0
LINE
8
TOP_HID
6
HIDDEN
10
0.750000
20
0.656787
30
0.0
11
0.750000
21
0.631532
31
0.0
0
LINE
8
TOP_HID
6
HIDDEN
10
0.750000
20
0.631532
30
0.0
11
0.750000
21
0.606276
31
0.0
0
LINE
8
TOP_HID
6
HIDDEN
10
0.750000
20
0.606276
30
0.0
11
0.750000
21
0.581021
31
0.0
0
LINE
8
TOP_HID
6
HIDDEN
10
0.750000
20
0.581021
30
0.0
11
0.750000
21
0.555766
31
0.0
0
LINE
8
TOP_HID
6
HIDDEN
10
0.750000
20
0.555766
30
0.0
11
0.750000
21
0.530511
31
0.0
0
LINE
8
TOP_HID
6
HIDDEN
10
0.750000
20
0.530511
30
0.0
11
0.750000
21
0.505255
31
0.0
0
LINE
8
TOP_HID
6
HIDDEN
10
0.750000
20
0.505255
30
0.0
11
0.750000
21
0.480000
31
0.0
0
LINE
8
TOP_HID
6
HIDDEN
10
0.000000
20
0.480000
30
0.0
11
0.000000
21
0.452145
31
0.0
0
LINE
8
TOP_HID
6
HIDDEN
10
0.000000
20
0.452145
30
0.0
11
0.000000
21
0.424290
31
0.0
0
LINE
8
TOP_HID
6
HIDDEN
10
0.000000
20
0.424290
30
0.0
11
0.000000
21
0.396435
31
0.0
0
LINE
8
TOP_HID
6
HIDDEN
10
0.000000
20
0.396435
30
0.0
11
0.000000
21
0.368580
31
0.0
0
LINE
8
TOP_HID
6
HIDDEN
10
0.000000
20
0.368580
30
0.0
11
0.000000
21
0.340725
31
0.0
0
LINE
8
TOP_HID
6
HIDDEN
10
0.000000
20
0.340725
30
0.0
11
0.000000
21
0.312870
31
0.0
0
LINE
8
TOP_HID
6
HIDDEN
10
0.000000
20
0.312870
30
0.0
11
0.000000
21
0.285014
31
0.0
0
LINE
8
TOP_HID
6
HIDDEN
10
0.000000
20
0.285014
30
0.0
11
0.000000
21
0.257159
31
0.0
0
LINE
8
TOP_HID
6
HIDDEN
10
0.000000
20
0.257159
30
0.0
11
0.000000
21
0.229304
31
0.0
0
LINE
8
TOP_HID
6
HIDDEN
10
0.000000
20
0.229304
30
0.0
11
0.000000
21
0.201449
31
0.0
0
LINE
8
TOP_HID
6
HIDDEN
10
0.000000
20
0.201449
30
0.0
11
0.000000
21
0.173594
31
0.0
0
LINE
8
TOP_HID
6
HIDDEN
10
0.000000
20
0.173594
30
0.0
11
0.000000
21
0.145739
31
0.0
0
LINE
8
TOP_HID
6
HIDDEN
10
0.000000
20
0.145739
30
0.0
11
0.000000
21
0.117884
31
0.0
0
LINE
8
TOP_HID
6
HIDDEN
10
0.000000
20
0.117884
30
0.0
11
0.000000
21
0.090029
31
0.0
0
LINE
8
TOP_HID
6
HIDDEN
10
0.000000
20
0.090029
30
0.0
11
0.000000
21
0.062174
31
0.0
0
LINE
8
TOP_HID
6
HIDDEN
10
0.000000
20
0.062174
30
0.0
11
0.000000
21
0.048246
31
0.0
0
LINE
8
TOP_HID
6
HIDDEN
10
0.000000
20
0.048246
30
0.0
11
0.000000
21
0.076101
31
0.0
0
LINE
8
TOP_HID
6
HIDDEN
10
0.000000
20
0.076101
30
0.0
11
0.000000
21
0.103956
31
0.0
0
LINE
8
TOP_HID
6
HIDDEN
10
0.000000
20
0.103956
30
0.0
11
0.000000
21
0.131811
31
0.0
0
LINE
8
TOP_HID
6
HIDDEN
10
0.000000
20
0.131811
30
0.0
11
0.000000
21
0.159667
31
0.0
0
LINE
8
TOP_HID
6
HIDDEN
10
0.000000
20
0.159667
30
0.0
11
0.000000
21
0.187522
31
0.0
0
LINE
8
TOP_HID
6
HIDDEN
10
0.000000
20
0.187522
30
0.0
11
0.000000
21
0.215377
31
0.0
0
LINE
8
TOP_HID
6
HIDDEN
10
0.000000
20
0.215377
30
0.0
11
0.000000
21
0.243232
31
0.0
0
LINE
8
TOP_HID
6
HIDDEN
10
0.000000
20
0.243232
30
0.0
11
0.000000
21
0.271087
31
0.0
0
LINE
8
TOP_HID
6
HIDDEN
10
0.000000
20
0.271087
30
0.0
11
0.000000
21
0.298942
31
0.0
0
LINE
8
TOP_HID
6
HIDDEN
10
0.000000
20
0.298942
30
0.0
11
0.000000
21
0.326797
31
0.0
0
LINE
8
TOP_HID
6
HIDDEN
10
0.000000
20
0.326797
30
0.0
11
0.000000
21
0.354652
31
0.0
0
LINE
8
TOP_HID
6
HIDDEN
10
0.000000
20
0.354652
30
0.0
11
0.000000
21
0.382507
31
0.0
0
LINE
8
TOP_HID
6
HIDDEN
10
0.000000
20
0.382507
30
0.0
11
0.000000
21
0.410362
31
0.0
0
LINE
8
TOP_HID
6
HIDDEN
10
0.000000
20
0.410362
30
0.0
11
0.000000
21
0.438217
31
0.0
0
LINE
8
TOP_HID
6
HIDDEN
10
0.000000
20
0.438217
30
0.0
11
0.000000
21
0.466072
31
0.0
0
LINE
8
TOP_HID
6
HIDDEN
10
0.000000
20
0.466072
30
0.0
11
0.000000
21
0.493928
31
0.0
0
LINE
8
TOP_HID
6
HIDDEN
10
0.000000
20
0.493928
30
0.0
11
0.000000
21
0.521783
31
0.0
0
LINE
8
TOP_HID
6
HIDDEN
10
0.000000
20
0.521783
30
0.0
11
0.000000
21
0.549638
31
0.0
0
LINE
8
TOP_HID
6
HIDDEN
10
0.000000
20
0.549638
30
0.0
11
0.000000
21
0.577493
31
0.0
0
LINE
8
TOP_HID
6
HIDDEN
10
0.000000
20
0.577493
30
0.0
11
0.000000
21
0.605348
31
0.0
0
LINE
8
TOP_HID
6
HIDDEN
10
0.000000
20
0.605348
30
0.0
11
0.000000
21
0.633203
31
0.0
0
LINE
8
TOP_HID
6
HIDDEN
10
0.000000
20
0.633203
30
0.0
11
0.000000
21
0.661058
31
0.0
0
LINE
8
TOP_HID
6
HIDDEN
10
0.000000
20
0.661058
30
0.0
11
0.000000
21
0.688913
31
0.0
0
LINE
8
TOP_HID
6
HIDDEN
10
0.000000
20
0.688913
30
0.0
11
0.000000
21
0.716768
31
0.0
0
LINE
8
TOP_HID
6
HIDDEN
10
0.000000
20
0.716768
30
0.0
11
0.000000
21
0.744623
31
0.0
0
LINE
8
TOP_HID
6
HIDDEN
10
0.000000
20
0.744623
30
0.0
11
0.000000
21
0.772478
31
0.0
0
LINE
8
TOP_HID
6
HIDDEN
10
0.000000
20
0.772478
30
0.0
11
0.000000
21
0.800333
31
0.0
0
LINE
8
TOP_HID
6
HIDDEN
10
0.000000
20
0.800333
30
0.0
11
0.000000
21
0.828189
31
0.0
0
LINE
8
TOP_HID
6
HIDDEN
10
0.000000
20
0.828189
30
0.0
11
0.000000
21
0.856044
31
0.0
0
LINE
8
TOP_HID
6
HIDDEN
10
0.000000
20
0.856044
30
0.0
11
0.000000
21
0.883899
31
0.0
0
LINE
8
TOP_HID
6
HIDDEN
10
0.000000
20
0.883899
30
0.0
11
0.000000
21
0.911754
31
0.0
0
LINE
8
TOP_HID
6
HIDDEN
10
0.000000
20
0.911754
30
0.0
11
0.000000
21
0.897826
31
0.0
0
LINE
8
TOP_HID
6
HIDDEN
10
0.000000
20
0.897826
30
0.0
11
0.000000
21
0.869971
31
0.0
0
LINE
8
TOP_HID
6
HIDDEN
10
0.000000
20
0.869971
30
0.0
11
0.000000
21
0.842116
31
0.0
0
LINE
8
TOP_HID
6
HIDDEN
10
0.000000
20
0.842116
30
0.0
11
0.000000
21
0.814261
31
0.0
0
LINE
8
TOP_HID
6
HIDDEN
10
0.000000
20
0.814261
30
0.0
11
0.000000
21
0.786406
31
0.0
0
LINE
8
TOP_HID
6
HIDDEN
10
0.000000
20
0.786406
30
0.0
11
0.000000
21
0.758551
31
0.0
0
LINE
8
TOP_HID
6
HIDDEN
10
0.000000
20
0.758551
30
0.0
11
0.000000
21
0.730696
31
0.0
0
LINE
8
TOP_HID
6
HIDDEN
10
0.000000
20
0.730696
30
0.0
11
0.000000
21
0.702841
31
0.0
0
LINE
8
TOP_HID
6
HIDDEN
10
0.000000
20
0.702841
30
0.0
11
0.000000
21
0.674986
31
0.0
0
LINE
8
TOP_HID
6
HIDDEN
10
0.000000
20
0.674986
30
0.0
11
0.000000
21
0.647130
31
0.0
0
LINE
8
TOP_HID
6
HIDDEN
10
0.000000
20
0.647130
30
0.0
11
0.000000
21
0.619275
31
0.0
0
LINE
8
TOP_HID
6
HIDDEN
10
0.000000
20
0.619275
30
0.0
11
0.000000
21
0.591420
31
0.0
0
LINE
8
TOP_HID
6
HIDDEN
10
0.000000
20
0.591420
30
0.0
11
0.000000
21
0.563565
31
0.0
0
LINE
8
TOP_HID
6
HIDDEN
10
0.000000
20
0.563565
30
0.0
11
0.000000
21
0.535710
31
0.0
0
LINE
8
TOP_HID
6
HIDDEN
10
0.000000
20
0.535710
30
0.0
11
0.000000
21
0.507855
31
0.0
0
LINE
8
TOP_HID
6
HIDDEN
10
0.000000
20
0.507855
30
0.0
11
0.000000
21
0.480000
31
0.0
0
LINE
8
TOP_HID
6
HIDDEN
10
0.750000
20
0.030000
30
0.0
11
0.750000
21
0.930000
31
0.0
0
LINE
8
TOP_HID
6
HIDDEN
10
0.000000
20
0.000000
30
0.0
11
0.000000
21
0.960000
31
0.0
0
LINE
8
TOP_HID
6
HIDDEN
10
0.150000
20
0.480000
30
0.0
11
0.150000
21
0.930000
31
0.0
0
LINE
8
TOP_HID
6
HIDDEN
10
0.150000
20
0.930000
30
0.0
11
0.150000
21
0.030000
31
0.0
0
LINE
8
TOP_HID
6
HIDDEN
10
0.150000
20
0.030000
30
0.0
11
0.150000
21
0.480000
31
0.0
0
LINE
8
TOP_HID
6
HIDDEN
10
0.150000
20
0.000000
30
0.0
11
0.150000
21
0.960000
31
0.0
0
LINE
8
TOP_HID
6
HIDDEN
10
0.750000
20
0.828000
30
0.0
11
0.000000
21
0.828000
31
0.0
0
LINE
8
TOP_HID
6
HIDDEN
10
0.750000
20
0.132000
30
0.0
11
0.000000
21
0.132000
31
0.0
0
ENDSEC
0
EOF
