0
SECTION
2
HEADER
9
$ACADVER
1
AC1009
0
ENDSEC
0
SECTION
2
TABLES
0
TABLE
2
LTYPE
70
3
0
LTYPE
2
CONTINUOUS
70
0
3
Solid line
72
65
73
0
40
0.0
0
LTYPE
2
HIDDEN
70
0
3
__ __ __ __ __
72
65
73
2
40
0.075000
49
0.050025
49
-0.024975
0
LTYPE
2
CENTER
70
0
3
___ _ ___ _ ___
72
65
73
4
40
0.174975
49
0.099975
49
-0.024975
49
0.024975
49
-0.024975
0
ENDTAB
0
TABLE
2
LAYER
70
5
0
LAYER
2
0
70
0
62
7
6
CONTINUOUS
0
LAYER
2
FRONT
70
0
62
7
6
CONTINUOUS
0
LAYER
2
LEFT
70
0
62
7
6
CONTINUOUS
0
LAYER
2
LEFT_HID
70
0
62
7
6
HIDDEN
0
LAYER
2
TOP
70
0
62
7
6
CONTINUOUS
0
ENDTAB
0
ENDSEC
0
SECTION
2
ENTITIES
0
LINE
8
FRONT
10
0.090000
20
1.139972
30
0.0
11
0.090000
21
1.889972
31
0.0
0
LINE
8
FRONT
10
0.090000
20
1.889972
30
0.0
11
0.000000
21
1.889972
31
0.0
0
LINE
8
FRONT
10
0.090000
20
1.139972
30
0.0
11
0.090000
21
0.389972
31
0.0
0
LINE
8
FRONT
10
0.090000
20
0.389972
30
0.0
11
0.000000
21
0.389972
31
0.0
0
LINE
8
FRONT
10
0.000000
20
1.889972
30
0.0
11
0.000000
21
1.139972
31
0.0
0
LINE
8
FRONT
10
0.000000
20
0.389972
30
0.0
11
0.000000
21
1.139972
31
0.0
0
LINE
8
LEFT
10
0.390000
20
1.889972
30
0.0
11
0.480000
21
1.889972
31
0.0
0
LINE
8
LEFT
10
0.390000
20
0.389972
30
0.0
11
0.480000
21
0.389972
31
0.0
0
LINE
8
LEFT
10
0.390000
20
1.889972
30
0.0
11
0.390000
21
1.139972
31
0.0
0
LINE
8
LEFT
10
0.480000
20
1.889972
30
0.0
11
0.480000
21
1.139972
31
0.0
0
LINE
8
LEFT
10
0.480000
20
0.389972
30
0.0
11
0.480000
21
1.139972
31
0.0
0
LINE
8
LEFT
10
0.390000
20
0.389972
30
0.0
11
0.390000
21
1.139972
31
0.0
0
LINE
8
LEFT_HID
6
HIDDEN
10
0.435000
20
1.889972
30
0.0
11
0.390000
21
1.889972
31
0.0
0
LINE
8
LEFT_HID
6
HIDDEN
10
0.480000
20
1.889972
30
0.0
11
0.435000
21
1.889972
31
0.0
0
LINE
8
LEFT_HID
6
HIDDEN
10
0.435000
20
0.389972
30
0.0
11
0.390000
21
0.389972
31
0.0
0
LINE
8
LEFT_HID
6
HIDDEN
10
0.480000
20
0.389972
30
0.0
11
0.435000
21
0.389972
31
0.0
0
LINE
8
TOP
10
0.089944
20
0.044986
30
0.0
11
0.089720
21
0.049467
31
0.0
0
LINE
8
TOP
10
0.089720
20
0.049467
30
0.0
11
0.089052
21
0.053903
31
0.0
0
LINE
8
TOP
10
0.089052
20
0.053903
30
0.0
11
0.087945
21
0.058250
31
0.0
0
LINE
8
TOP
10
0.087945
20
0.058250
30
0.0
11
0.086410
21
0.062466
31
0.0
0
LINE
8
TOP
10
0.086410
20
0.062466
30
0.0
11
0.084464
21
0.066507
31
0.0
0
LINE
8
TOP
10
0.084464
20
0.066507
30
0.0
11
0.082125
21
0.070335
31
0.0
0
LINE
8
TOP
10
0.082125
20
0.070335
30
0.0
11
0.079416
21
0.073911
31
0.0
0
LINE
8
TOP
10
0.079416
20
0.073911
30
0.0
11
0.076365
21
0.077200
31
0.0
0
LINE
8
TOP
10
0.076365
20
0.077200
30
0.0
11
0.073001
21
0.080168
31
0.0
0
LINE
8
TOP
10
0.073001
20
0.080168
30
0.0
11
0.069359
21
0.082787
31
0.0
0
LINE
8
TOP
10
0.069359
20
0.082787
30
0.0
11
0.065474
21
0.085030
31
0.0
0
LINE
8
TOP
10
0.065474
20
0.085030
30
0.0
11
0.061384
21
0.086875
31
0.0
0
LINE
8
TOP
10
0.061384
20
0.086875
30
0.0
11
0.057132
21
0.088304
31
0.0
0
LINE
8
TOP
10
0.057132
20
0.088304
30
0.0
11
0.052758
21
0.089302
31
0.0
0
LINE
8
TOP
10
0.052758
20
0.089302
30
0.0
11
0.048307
21
0.089860
31
0.0
0
LINE
8
TOP
10
0.048307
20
0.089860
30
0.0
11
0.043822
21
0.089972
31
0.0
0
LINE
8
TOP
10
0.043822
20
0.089972
30
0.0
11
0.039349
21
0.089637
31
0.0
0
LINE
8
TOP
10
0.039349
20
0.089637
30
0.0
11
0.034931
21
0.088858
31
0.0
0
LINE
8
TOP
10
0.034931
20
0.088858
30
0.0
11
0.030612
21
0.087643
31
0.0
0
LINE
8
TOP
10
0.030612
20
0.087643
30
0.0
11
0.026436
21
0.086004
31
0.0
0
LINE
8
TOP
10
0.026436
20
0.086004
30
0.0
11
0.022444
21
0.083957
31
0.0
0
LINE
8
TOP
10
0.022444
20
0.083957
30
0.0
11
0.018676
21
0.081523
31
0.0
0
LINE
8
TOP
10
0.018676
20
0.081523
30
0.0
11
0.015168
21
0.078726
31
0.0
0
LINE
8
TOP
10
0.015168
20
0.078726
30
0.0
11
0.011957
21
0.075594
31
0.0
0
LINE
8
TOP
10
0.011957
20
0.075594
30
0.0
11
0.009073
21
0.072157
31
0.0
0
LINE
8
TOP
10
0.009073
20
0.072157
30
0.0
11
0.006546
21
0.068451
31
0.0
0
LINE
8
TOP
10
0.006546
20
0.068451
30
0.0
11
0.004400
21
0.064511
31
0.0
0
LINE
8
TOP
10
0.004400
20
0.064511
30
0.0
11
0.002658
21
0.060377
31
0.0
0
LINE
8
TOP
10
0.002658
20
0.060377
30
0.0
11
0.001336
21
0.056090
31
0.0
0
LINE
8
TOP
10
0.001336
20
0.056090
30
0.0
11
0.000447
21
0.051693
31
0.0
0
LINE
8
TOP
10
0.000447
20
0.051693
30
0.0
11
0.000000
21
0.047229
31
0.0
0
LINE
8
TOP
10
0.000000
20
0.047229
30
0.0
11
0.000000
21
0.042743
31
0.0
0
LINE
8
TOP
10
0.000000
20
0.042743
30
0.0
11
0.000447
21
0.038279
31
0.0
0
LINE
8
TOP
10
0.000447
20
0.038279
30
0.0
11
0.001336
21
0.033882
31
0.0
0
LINE
8
TOP
10
0.001336
20
0.033882
30
0.0
11
0.002658
21
0.029595
31
0.0
0
LINE
8
TOP
10
0.002658
20
0.029595
30
0.0
11
0.004400
21
0.025461
31
0.0
0
LINE
8
TOP
10
0.004400
20
0.025461
30
0.0
11
0.006546
21
0.021521
31
0.0
0
LINE
8
TOP
10
0.006546
20
0.021521
30
0.0
11
0.009073
21
0.017815
31
0.0
0
LINE
8
TOP
10
0.009073
20
0.017815
30
0.0
11
0.011957
21
0.014378
31
0.0
0
LINE
8
TOP
10
0.011957
20
0.014378
30
0.0
11
0.015168
21
0.011246
31
0.0
0
LINE
8
TOP
10
0.015168
20
0.011246
30
0.0
11
0.018676
21
0.008449
31
0.0
0
LINE
8
TOP
10
0.018676
20
0.008449
30
0.0
11
0.022444
21
0.006015
31
0.0
0
LINE
8
TOP
10
0.022444
20
0.006015
30
0.0
11
0.026436
21
0.003968
31
0.0
0
LINE
8
TOP
10
0.026436
20
0.003968
30
0.0
11
0.030612
21
0.002329
31
0.0
0
LINE
8
TOP
10
0.030612
20
0.002329
30
0.0
11
0.034931
21
0.001114
31
0.0
0
LINE
8
TOP
10
0.034931
20
0.001114
30
0.0
11
0.039349
21
0.000335
31
0.0
0
LINE
8
TOP
10
0.039349
20
0.000335
30
0.0
11
0.043822
21
0.000000
31
0.0
0
LINE
8
TOP
10
0.043822
20
0.000000
30
0.0
11
0.048307
21
0.000112
31
0.0
0
LINE
8
TOP
10
0.048307
20
0.000112
30
0.0
11
0.052758
21
0.000670
31
0.0
0
LINE
8
TOP
10
0.052758
20
0.000670
30
0.0
11
0.057132
21
0.001668
31
0.0
0
LINE
8
TOP
10
0.057132
20
0.001668
30
0.0
11
0.061384
21
0.003097
31
0.0
0
LINE
8
TOP
10
0.061384
20
0.003097
30
0.0
11
0.065474
21
0.004942
31
0.0
0
LINE
8
TOP
10
0.065474
20
0.004942
30
0.0
11
0.069359
21
0.007185
31
0.0
0
LINE
8
TOP
10
0.069359
20
0.007185
30
0.0
11
0.073001
21
0.009804
31
0.0
0
LINE
8
TOP
10
0.073001
20
0.009804
30
0.0
11
0.076365
21
0.012772
31
0.0
0
LINE
8
TOP
10
0.076365
20
0.012772
30
0.0
11
0.079416
21
0.016061
31
0.0
0
LINE
8
TOP
10
0.079416
20
0.016061
30
0.0
11
0.082125
21
0.019637
31
0.0
0
LINE
8
TOP
10
0.082125
20
0.019637
30
0.0
11
0.084464
21
0.023465
31
0.0
0
LINE
8
TOP
10
0.084464
20
0.023465
30
0.0
11
0.086410
21
0.027506
31
0.0
0
LINE
8
TOP
10
0.086410
20
0.027506
30
0.0
11
0.087945
21
0.031722
31
0.0
0
LINE
8
TOP
10
0.087945
20
0.031722
30
0.0
11
0.089052
21
0.036069
31
0.0
0
LINE
8
TOP
10
0.089052
20
0.036069
30
0.0
11
0.089720
21
0.040505
31
0.0
0
LINE
8
TOP
10
0.089720
20
0.040505
30
0.0
11
0.089944
21
0.044986
31
0.0
0
ENDSEC
0
EOF
