0
SECTION
2
HEADER
9
$ACADVER
1
AC1009
0
ENDSEC
0
SECTION
2
TABLES
0
TABLE
2
LTYPE
70
3
0
LTYPE
2
CONTINUOUS
70
0
3
Solid line
72
65
73
0
40
0.0
0
LTYPE
2
HIDDEN
70
0
3
__ __ __ __ __
72
65
73
2
40
0.075000
49
0.050025
49
-0.024975
0
LTYPE
2
CENTER
70
0
3
___ _ ___ _ ___
72
65
73
4
40
0.174975
49
0.099975
49
-0.024975
49
0.024975
49
-0.024975
0
ENDTAB
0
TABLE
2
LAYER
70
6
0
LAYER
2
0
70
0
62
7
6
CONTINUOUS
0
LAYER
2
FRONT
70
0
62
7
6
CONTINUOUS
0
LAYER
2
LEFT
70
0
62
7
6
CONTINUOUS
0
LAYER
2
LEFT_HID
70
0
62
7
6
HIDDEN
0
LAYER
2
TOP
70
0
62
7
6
CONTINUOUS
0
LAYER
2
TOP_HID
70
0
62
7
6
HIDDEN
0
ENDTAB
0
ENDSEC
0
SECTION
2
ENTITIES
0
LINE
8
FRONT
10
0.000000
20
0.475935
30
0.0
11
0.000108
21
0.471621
31
0.0
0
LINE
8
FRONT
10
0.000108
20
0.471621
30
0.0
11
0.000430
21
0.467318
31
0.0
0
LINE
8
FRONT
10
0.000430
20
0.467318
30
0.0
11
0.000967
21
0.463037
31
0.0
0
LINE
8
FRONT
10
0.000967
20
0.463037
30
0.0
11
0.001716
21
0.458787
31
0.0
0
LINE
8
FRONT
10
0.001716
20
0.458787
30
0.0
11
0.002676
21
0.454581
31
0.0
0
LINE
8
FRONT
10
0.002676
20
0.454581
30
0.0
11
0.003845
21
0.450427
31
0.0
0
LINE
8
FRONT
10
0.003845
20
0.450427
30
0.0
11
0.005219
21
0.446337
31
0.0
0
LINE
8
FRONT
10
0.005219
20
0.446337
30
0.0
11
0.006795
21
0.442320
31
0.0
0
LINE
8
FRONT
10
0.006795
20
0.442320
30
0.0
11
0.008570
21
0.438387
31
0.0
0
LINE
8
FRONT
10
0.008570
20
0.438387
30
0.0
11
0.010539
21
0.434547
31
0.0
0
LINE
8
FRONT
10
0.010539
20
0.434547
30
0.0
11
0.012696
21
0.430810
31
0.0
0
LINE
8
FRONT
10
0.012696
20
0.430810
30
0.0
11
0.015037
21
0.427186
31
0.0
0
LINE
8
FRONT
10
0.015037
20
0.427186
30
0.0
11
0.017556
21
0.423682
31
0.0
0
LINE
8
FRONT
10
0.017556
20
0.423682
30
0.0
11
0.020246
21
0.420309
31
0.0
0
LINE
8
FRONT
10
0.020246
20
0.420309
30
0.0
11
0.023101
21
0.417074
31
0.0
0
LINE
8
FRONT
10
0.023101
20
0.417074
30
0.0
11
0.026114
21
0.413985
31
0.0
0
LINE
8
FRONT
10
0.026114
20
0.413985
30
0.0
11
0.029277
21
0.411050
31
0.0
0
LINE
8
FRONT
10
0.029277
20
0.411050
30
0.0
11
0.032583
21
0.408276
31
0.0
0
LINE
8
FRONT
10
0.032583
20
0.408276
30
0.0
11
0.036022
21
0.405671
31
0.0
0
LINE
8
FRONT
10
0.036022
20
0.405671
30
0.0
11
0.039587
21
0.403240
31
0.0
0
LINE
8
FRONT
10
0.039587
20
0.403240
30
0.0
11
0.043269
21
0.400990
31
0.0
0
LINE
8
FRONT
10
0.043269
20
0.400990
30
0.0
11
0.047059
21
0.398927
31
0.0
0
LINE
8
FRONT
10
0.047059
20
0.398927
30
0.0
11
0.050946
21
0.397054
31
0.0
0
LINE
8
FRONT
10
0.050946
20
0.397054
30
0.0
11
0.054922
21
0.395378
31
0.0
0
LINE
8
FRONT
10
0.054922
20
0.395378
30
0.0
11
0.058977
21
0.393902
31
0.0
0
LINE
8
FRONT
10
0.058977
20
0.393902
30
0.0
11
0.063100
21
0.392631
31
0.0
0
LINE
8
FRONT
10
0.063100
20
0.392631
30
0.0
11
0.067282
21
0.391566
31
0.0
0
LINE
8
FRONT
10
0.067282
20
0.391566
30
0.0
11
0.071511
21
0.390711
31
0.0
0
LINE
8
FRONT
10
0.071511
20
0.390711
30
0.0
11
0.075778
21
0.390068
31
0.0
0
LINE
8
FRONT
10
0.075778
20
0.390068
30
0.0
11
0.080071
21
0.389638
31
0.0
0
LINE
8
FRONT
10
0.080071
20
0.389638
30
0.0
11
0.084381
21
0.389423
31
0.0
0
LINE
8
FRONT
10
0.084381
20
0.389423
30
0.0
11
0.088696
21
0.389423
31
0.0
0
LINE
8
FRONT
10
0.088696
20
0.389423
30
0.0
11
0.093005
21
0.389638
31
0.0
0
LINE
8
FRONT
10
0.093005
20
0.389638
30
0.0
11
0.097299
21
0.390068
31
0.0
0
LINE
8
FRONT
10
0.097299
20
0.390068
30
0.0
11
0.101566
21
0.390711
31
0.0
0
LINE
8
FRONT
10
0.101566
20
0.390711
30
0.0
11
0.105795
21
0.391566
31
0.0
0
LINE
8
FRONT
10
0.105795
20
0.391566
30
0.0
11
0.109977
21
0.392631
31
0.0
0
LINE
8
FRONT
10
0.109977
20
0.392631
30
0.0
11
0.114100
21
0.393902
31
0.0
0
LINE
8
FRONT
10
0.114100
20
0.393902
30
0.0
11
0.118155
21
0.395378
31
0.0
0
LINE
8
FRONT
10
0.118155
20
0.395378
30
0.0
11
0.122131
21
0.397054
31
0.0
0
LINE
8
FRONT
10
0.122131
20
0.397054
30
0.0
11
0.126018
21
0.398927
31
0.0
0
LINE
8
FRONT
10
0.126018
20
0.398927
30
0.0
11
0.129808
21
0.400990
31
0.0
0
LINE
8
FRONT
10
0.129808
20
0.400990
30
0.0
11
0.133490
21
0.403240
31
0.0
0
LINE
8
FRONT
10
0.133490
20
0.403240
30
0.0
11
0.137055
21
0.405671
31
0.0
0
LINE
8
FRONT
10
0.137055
20
0.405671
30
0.0
11
0.140494
21
0.408276
31
0.0
0
LINE
8
FRONT
10
0.140494
20
0.408276
30
0.0
11
0.143800
21
0.411050
31
0.0
0
LINE
8
FRONT
10
0.143800
20
0.411050
30
0.0
11
0.146963
21
0.413985
31
0.0
0
LINE
8
FRONT
10
0.146963
20
0.413985
30
0.0
11
0.149976
21
0.417074
31
0.0
0
LINE
8
FRONT
10
0.149976
20
0.417074
30
0.0
11
0.152831
21
0.420309
31
0.0
0
LINE
8
FRONT
10
0.152831
20
0.420309
30
0.0
11
0.155521
21
0.423682
31
0.0
0
LINE
8
FRONT
10
0.155521
20
0.423682
30
0.0
11
0.158040
21
0.427186
31
0.0
0
LINE
8
FRONT
10
0.158040
20
0.427186
30
0.0
11
0.160381
21
0.430810
31
0.0
0
LINE
8
FRONT
10
0.160381
20
0.430810
30
0.0
11
0.162538
21
0.434547
31
0.0
0
LINE
8
FRONT
10
0.162538
20
0.434547
30
0.0
11
0.164507
21
0.438387
31
0.0
0
LINE
8
FRONT
10
0.164507
20
0.438387
30
0.0
11
0.166282
21
0.442320
31
0.0
0
LINE
8
FRONT
10
0.166282
20
0.442320
30
0.0
11
0.167858
21
0.446337
31
0.0
0
LINE
8
FRONT
10
0.167858
20
0.446337
30
0.0
11
0.169232
21
0.450427
31
0.0
0
LINE
8
FRONT
10
0.169232
20
0.450427
30
0.0
11
0.170401
21
0.454581
31
0.0
0
LINE
8
FRONT
10
0.170401
20
0.454581
30
0.0
11
0.171361
21
0.458787
31
0.0
0
LINE
8
FRONT
10
0.171361
20
0.458787
30
0.0
11
0.172110
21
0.463037
31
0.0
0
LINE
8
FRONT
10
0.172110
20
0.463037
30
0.0
11
0.172647
21
0.467318
31
0.0
0
LINE
8
FRONT
10
0.172647
20
0.467318
30
0.0
11
0.172969
21
0.471621
31
0.0
0
LINE
8
FRONT
10
0.172969
20
0.471621
30
0.0
11
0.173077
21
0.475935
31
0.0
0
LINE
8
FRONT
10
0.173077
20
0.475935
30
0.0
11
0.173077
21
1.139396
31
0.0
0
LINE
8
FRONT
10
0.173077
20
1.139396
30
0.0
11
0.173077
21
1.802858
31
0.0
0
LINE
8
FRONT
10
0.173077
20
1.802858
30
0.0
11
0.172969
21
1.807171
31
0.0
0
LINE
8
FRONT
10
0.172969
20
1.807171
30
0.0
11
0.172647
21
1.811474
31
0.0
0
LINE
8
FRONT
10
0.172647
20
1.811474
30
0.0
11
0.172110
21
1.815756
31
0.0
0
LINE
8
FRONT
10
0.172110
20
1.815756
30
0.0
11
0.171361
21
1.820005
31
0.0
0
LINE
8
FRONT
10
0.171361
20
1.820005
30
0.0
11
0.170401
21
1.824212
31
0.0
0
LINE
8
FRONT
10
0.170401
20
1.824212
30
0.0
11
0.169232
21
1.828365
31
0.0
0
LINE
8
FRONT
10
0.169232
20
1.828365
30
0.0
11
0.167858
21
1.832456
31
0.0
0
LINE
8
FRONT
10
0.167858
20
1.832456
30
0.0
11
0.166282
21
1.836472
31
0.0
0
LINE
8
FRONT
10
0.166282
20
1.836472
30
0.0
11
0.164507
21
1.840405
31
0.0
0
LINE
8
FRONT
10
0.164507
20
1.840405
30
0.0
11
0.162538
21
1.844245
31
0.0
0
LINE
8
FRONT
10
0.162538
20
1.844245
30
0.0
11
0.160381
21
1.847982
31
0.0
0
LINE
8
FRONT
10
0.160381
20
1.847982
30
0.0
11
0.158040
21
1.851607
31
0.0
0
LINE
8
FRONT
10
0.158040
20
1.851607
30
0.0
11
0.155521
21
1.855110
31
0.0
0
LINE
8
FRONT
10
0.155521
20
1.855110
30
0.0
11
0.152831
21
1.858484
31
0.0
0
LINE
8
FRONT
10
0.152831
20
1.858484
30
0.0
11
0.149976
21
1.861719
31
0.0
0
LINE
8
FRONT
10
0.149976
20
1.861719
30
0.0
11
0.146963
21
1.864808
31
0.0
0
LINE
8
FRONT
10
0.146963
20
1.864808
30
0.0
11
0.143800
21
1.867743
31
0.0
0
LINE
8
FRONT
10
0.143800
20
1.867743
30
0.0
11
0.140494
21
1.870516
31
0.0
0
LINE
8
FRONT
10
0.140494
20
1.870516
30
0.0
11
0.137055
21
1.873122
31
0.0
0
LINE
8
FRONT
10
0.137055
20
1.873122
30
0.0
11
0.133490
21
1.875552
31
0.0
0
LINE
8
FRONT
10
0.133490
20
1.875552
30
0.0
11
0.129808
21
1.877802
31
0.0
0
LINE
8
FRONT
10
0.129808
20
1.877802
30
0.0
11
0.126018
21
1.879866
31
0.0
0
LINE
8
FRONT
10
0.126018
20
1.879866
30
0.0
11
0.122131
21
1.881738
31
0.0
0
LINE
8
FRONT
10
0.122131
20
1.881738
30
0.0
11
0.118155
21
1.883414
31
0.0
0
LINE
8
FRONT
10
0.118155
20
1.883414
30
0.0
11
0.114100
21
1.884890
31
0.0
0
LINE
8
FRONT
10
0.114100
20
1.884890
30
0.0
11
0.109977
21
1.886162
31
0.0
0
LINE
8
FRONT
10
0.109977
20
1.886162
30
0.0
11
0.105795
21
1.887226
31
0.0
0
LINE
8
FRONT
10
0.105795
20
1.887226
30
0.0
11
0.101566
21
1.888081
31
0.0
0
LINE
8
FRONT
10
0.101566
20
1.888081
30
0.0
11
0.097299
21
1.888725
31
0.0
0
LINE
8
FRONT
10
0.097299
20
1.888725
30
0.0
11
0.093005
21
1.889154
31
0.0
0
LINE
8
FRONT
10
0.093005
20
1.889154
30
0.0
11
0.088696
21
1.889369
31
0.0
0
LINE
8
FRONT
10
0.088696
20
1.889369
30
0.0
11
0.084381
21
1.889369
31
0.0
0
LINE
8
FRONT
10
0.084381
20
1.889369
30
0.0
11
0.080071
21
1.889154
31
0.0
0
LINE
8
FRONT
10
0.080071
20
1.889154
30
0.0
11
0.075778
21
1.888725
31
0.0
0
LINE
8
FRONT
10
0.075778
20
1.888725
30
0.0
11
0.071511
21
1.888081
31
0.0
0
LINE
8
FRONT
10
0.071511
20
1.888081
30
0.0
11
0.067282
21
1.887226
31
0.0
0
LINE
8
FRONT
10
0.067282
20
1.887226
30
0.0
11
0.063100
21
1.886162
31
0.0
0
LINE
8
FRONT
10
0.063100
20
1.886162
30
0.0
11
0.058977
21
1.884890
31
0.0
0
LINE
8
FRONT
10
0.058977
20
1.884890
30
0.0
11
0.054922
21
1.883414
31
0.0
0
LINE
8
FRONT
10
0.054922
20
1.883414
30
0.0
11
0.050946
21
1.881738
31
0.0
0
LINE
8
FRONT
10
0.050946
20
1.881738
30
0.0
11
0.047059
21
1.879866
31
0.0
0
LINE
8
FRONT
10
0.047059
20
1.879866
30
0.0
11
0.043269
21
1.877802
31
0.0
0
LINE
8
FRONT
10
0.043269
20
1.877802
30
0.0
11
0.039587
21
1.875552
31
0.0
0
LINE
8
FRONT
10
0.039587
20
1.875552
30
0.0
11
0.036022
21
1.873122
31
0.0
0
LINE
8
FRONT
10
0.036022
20
1.873122
30
0.0
11
0.032583
21
1.870516
31
0.0
0
LINE
8
FRONT
10
0.032583
20
1.870516
30
0.0
11
0.029277
21
1.867743
31
0.0
0
LINE
8
FRONT
10
0.029277
20
1.867743
30
0.0
11
0.026114
21
1.864808
31
0.0
0
LINE
8
FRONT
10
0.026114
20
1.864808
30
0.0
11
0.023101
21
1.861719
31
0.0
0
LINE
8
FRONT
10
0.023101
20
1.861719
30
0.0
11
0.020246
21
1.858484
31
0.0
0
LINE
8
FRONT
10
0.020246
20
1.858484
30
0.0
11
0.017556
21
1.855110
31
0.0
0
LINE
8
FRONT
10
0.017556
20
1.855110
30
0.0
11
0.015037
21
1.851607
31
0.0
0
LINE
8
FRONT
10
0.015037
20
1.851607
30
0.0
11
0.012696
21
1.847982
31
0.0
0
LINE
8
FRONT
10
0.012696
20
1.847982
30
0.0
11
0.010539
21
1.844245
31
0.0
0
LINE
8
FRONT
10
0.010539
20
1.844245
30
0.0
11
0.008570
21
1.840405
31
0.0
0
LINE
8
FRONT
10
0.008570
20
1.840405
30
0.0
11
0.006795
21
1.836472
31
0.0
0
LINE
8
FRONT
10
0.006795
20
1.836472
30
0.0
11
0.005219
21
1.832456
31
0.0
0
LINE
8
FRONT
10
0.005219
20
1.832456
30
0.0
11
0.003845
21
1.828365
31
0.0
0
LINE
8
FRONT
10
0.003845
20
1.828365
30
0.0
11
0.002676
21
1.824212
31
0.0
0
LINE
8
FRONT
10
0.002676
20
1.824212
30
0.0
11
0.001716
21
1.820005
31
0.0
0
LINE
8
FRONT
10
0.001716
20
1.820005
30
0.0
11
0.000967
21
1.815756
31
0.0
0
LINE
8
FRONT
10
0.000967
20
1.815756
30
0.0
11
0.000430
21
1.811474
31
0.0
0
LINE
8
FRONT
10
0.000430
20
1.811474
30
0.0
11
0.000108
21
1.807171
31
0.0
0
LINE
8
FRONT
10
0.000108
20
1.807171
30
0.0
11
0.000000
21
1.802858
31
0.0
0
LINE
8
FRONT
10
0.000000
20
1.802858
30
0.0
11
0.000000
21
1.139396
31
0.0
0
LINE
8
FRONT
10
0.000000
20
1.139396
30
0.0
11
0.000000
21
0.475935
31
0.0
0
LINE
8
FRONT
10
0.043269
20
0.475935
30
0.0
11
0.043484
21
0.471626
31
0.0
0
LINE
8
FRONT
10
0.043484
20
0.471626
30
0.0
11
0.044127
21
0.467361
31
0.0
0
LINE
8
FRONT
10
0.044127
20
0.467361
30
0.0
11
0.045192
21
0.463181
31
0.0
0
LINE
8
FRONT
10
0.045192
20
0.463181
30
0.0
11
0.046667
21
0.459127
31
0.0
0
LINE
8
FRONT
10
0.046667
20
0.459127
30
0.0
11
0.048538
21
0.455241
31
0.0
0
LINE
8
FRONT
10
0.048538
20
0.455241
30
0.0
11
0.050788
21
0.451560
31
0.0
0
LINE
8
FRONT
10
0.050788
20
0.451560
30
0.0
11
0.053392
21
0.448122
31
0.0
0
LINE
8
FRONT
10
0.053392
20
0.448122
30
0.0
11
0.056326
21
0.444960
31
0.0
0
LINE
8
FRONT
10
0.056326
20
0.444960
30
0.0
11
0.059561
21
0.442105
31
0.0
0
LINE
8
FRONT
10
0.059561
20
0.442105
30
0.0
11
0.063063
21
0.439587
31
0.0
0
LINE
8
FRONT
10
0.063063
20
0.439587
30
0.0
11
0.066799
21
0.437431
31
0.0
0
LINE
8
FRONT
10
0.066799
20
0.437431
30
0.0
11
0.070730
21
0.435656
31
0.0
0
LINE
8
FRONT
10
0.070730
20
0.435656
30
0.0
11
0.074819
21
0.434283
31
0.0
0
LINE
8
FRONT
10
0.074819
20
0.434283
30
0.0
11
0.079025
21
0.433323
31
0.0
0
LINE
8
FRONT
10
0.079025
20
0.433323
30
0.0
11
0.083305
21
0.432786
31
0.0
0
LINE
8
FRONT
10
0.083305
20
0.432786
30
0.0
11
0.087617
21
0.432679
31
0.0
0
LINE
8
FRONT
10
0.087617
20
0.432679
30
0.0
11
0.091919
21
0.433001
31
0.0
0
LINE
8
FRONT
10
0.091919
20
0.433001
30
0.0
11
0.096167
21
0.433750
31
0.0
0
LINE
8
FRONT
10
0.096167
20
0.433750
30
0.0
11
0.100319
21
0.434919
31
0.0
0
LINE
8
FRONT
10
0.100319
20
0.434919
30
0.0
11
0.104335
21
0.436494
31
0.0
0
LINE
8
FRONT
10
0.104335
20
0.436494
30
0.0
11
0.108173
21
0.438462
31
0.0
0
LINE
8
FRONT
10
0.108173
20
0.438462
30
0.0
11
0.111797
21
0.440803
31
0.0
0
LINE
8
FRONT
10
0.111797
20
0.440803
30
0.0
11
0.115169
21
0.443492
31
0.0
0
LINE
8
FRONT
10
0.115169
20
0.443492
30
0.0
11
0.118257
21
0.446504
31
0.0
0
LINE
8
FRONT
10
0.118257
20
0.446504
30
0.0
11
0.121030
21
0.449808
31
0.0
0
LINE
8
FRONT
10
0.121030
20
0.449808
30
0.0
11
0.123460
21
0.453373
31
0.0
0
LINE
8
FRONT
10
0.123460
20
0.453373
30
0.0
11
0.125523
21
0.457161
31
0.0
0
LINE
8
FRONT
10
0.125523
20
0.457161
30
0.0
11
0.127198
21
0.461136
31
0.0
0
LINE
8
FRONT
10
0.127198
20
0.461136
30
0.0
11
0.128470
21
0.465258
31
0.0
0
LINE
8
FRONT
10
0.128470
20
0.465258
30
0.0
11
0.129324
21
0.469486
31
0.0
0
LINE
8
FRONT
10
0.129324
20
0.469486
30
0.0
11
0.129754
21
0.473778
31
0.0
0
LINE
8
FRONT
10
0.129754
20
0.473778
30
0.0
11
0.129754
21
0.478091
31
0.0
0
LINE
8
FRONT
10
0.129754
20
0.478091
30
0.0
11
0.129324
21
0.482384
31
0.0
0
LINE
8
FRONT
10
0.129324
20
0.482384
30
0.0
11
0.128470
21
0.486612
31
0.0
0
LINE
8
FRONT
10
0.128470
20
0.486612
30
0.0
11
0.127198
21
0.490734
31
0.0
0
LINE
8
FRONT
10
0.127198
20
0.490734
30
0.0
11
0.125523
21
0.494708
31
0.0
0
LINE
8
FRONT
10
0.125523
20
0.494708
30
0.0
11
0.123460
21
0.498497
31
0.0
0
LINE
8
FRONT
10
0.123460
20
0.498497
30
0.0
11
0.121030
21
0.502061
31
0.0
0
LINE
8
FRONT
10
0.121030
20
0.502061
30
0.0
11
0.118257
21
0.505365
31
0.0
0
LINE
8
FRONT
10
0.118257
20
0.505365
30
0.0
11
0.115169
21
0.508377
31
0.0
0
LINE
8
FRONT
10
0.115169
20
0.508377
30
0.0
11
0.111797
21
0.511067
31
0.0
0
LINE
8
FRONT
10
0.111797
20
0.511067
30
0.0
11
0.108173
21
0.513407
31
0.0
0
LINE
8
FRONT
10
0.108173
20
0.513407
30
0.0
11
0.104335
21
0.515375
31
0.0
0
LINE
8
FRONT
10
0.104335
20
0.515375
30
0.0
11
0.100319
21
0.516951
31
0.0
0
LINE
8
FRONT
10
0.100319
20
0.516951
30
0.0
11
0.096167
21
0.518119
31
0.0
0
LINE
8
FRONT
10
0.096167
20
0.518119
30
0.0
11
0.091919
21
0.518868
31
0.0
0
LINE
8
FRONT
10
0.091919
20
0.518868
30
0.0
11
0.087617
21
0.519190
31
0.0
0
LINE
8
FRONT
10
0.087617
20
0.519190
30
0.0
11
0.083305
21
0.519083
31
0.0
0
LINE
8
FRONT
10
0.083305
20
0.519083
30
0.0
11
0.079025
21
0.518547
31
0.0
0
LINE
8
FRONT
10
0.079025
20
0.518547
30
0.0
11
0.074819
21
0.517587
31
0.0
0
LINE
8
FRONT
10
0.074819
20
0.517587
30
0.0
11
0.070730
21
0.516213
31
0.0
0
LINE
8
FRONT
10
0.070730
20
0.516213
30
0.0
11
0.066799
21
0.514439
31
0.0
0
LINE
8
FRONT
10
0.066799
20
0.514439
30
0.0
11
0.063063
21
0.512282
31
0.0
0
LINE
8
FRONT
10
0.063063
20
0.512282
30
0.0
11
0.059561
21
0.509764
31
0.0
0
LINE
8
FRONT
10
0.059561
20
0.509764
30
0.0
11
0.056326
21
0.506910
31
0.0
0
LINE
8
FRONT
10
0.056326
20
0.506910
30
0.0
11
0.053392
21
0.503748
31
0.0
0
LINE
8
FRONT
10
0.053392
20
0.503748
30
0.0
11
0.050788
21
0.500309
31
0.0
0
LINE
8
FRONT
10
0.050788
20
0.500309
30
0.0
11
0.048538
21
0.496628
31
0.0
0
LINE
8
FRONT
10
0.048538
20
0.496628
30
0.0
11
0.046667
21
0.492742
31
0.0
0
LINE
8
FRONT
10
0.046667
20
0.492742
30
0.0
11
0.045192
21
0.488688
31
0.0
0
LINE
8
FRONT
10
0.045192
20
0.488688
30
0.0
11
0.044127
21
0.484508
31
0.0
0
LINE
8
FRONT
10
0.044127
20
0.484508
30
0.0
11
0.043484
21
0.480243
31
0.0
0
LINE
8
FRONT
10
0.043484
20
0.480243
30
0.0
11
0.043269
21
0.475935
31
0.0
0
LINE
8
FRONT
10
0.043269
20
1.802858
30
0.0
11
0.043484
21
1.798549
31
0.0
0
LINE
8
FRONT
10
0.043484
20
1.798549
30
0.0
11
0.044127
21
1.794284
31
0.0
0
LINE
8
FRONT
10
0.044127
20
1.794284
30
0.0
11
0.045192
21
1.790104
31
0.0
0
LINE
8
FRONT
10
0.045192
20
1.790104
30
0.0
11
0.046667
21
1.786050
31
0.0
0
LINE
8
FRONT
10
0.046667
20
1.786050
30
0.0
11
0.048538
21
1.782164
31
0.0
0
LINE
8
FRONT
10
0.048538
20
1.782164
30
0.0
11
0.050788
21
1.778483
31
0.0
0
LINE
8
FRONT
10
0.050788
20
1.778483
30
0.0
11
0.053392
21
1.775045
31
0.0
0
LINE
8
FRONT
10
0.053392
20
1.775045
30
0.0
11
0.056326
21
1.771883
31
0.0
0
LINE
8
FRONT
10
0.056326
20
1.771883
30
0.0
11
0.059561
21
1.769028
31
0.0
0
LINE
8
FRONT
10
0.059561
20
1.769028
30
0.0
11
0.063063
21
1.766510
31
0.0
0
LINE
8
FRONT
10
0.063063
20
1.766510
30
0.0
11
0.066799
21
1.764354
31
0.0
0
LINE
8
FRONT
10
0.066799
20
1.764354
30
0.0
11
0.070730
21
1.762580
31
0.0
0
LINE
8
FRONT
10
0.070730
20
1.762580
30
0.0
11
0.074819
21
1.761206
31
0.0
0
LINE
8
FRONT
10
0.074819
20
1.761206
30
0.0
11
0.079025
21
1.760246
31
0.0
0
LINE
8
FRONT
10
0.079025
20
1.760246
30
0.0
11
0.083305
21
1.759709
31
0.0
0
LINE
8
FRONT
10
0.083305
20
1.759709
30
0.0
11
0.087617
21
1.759602
31
0.0
0
LINE
8
FRONT
10
0.087617
20
1.759602
30
0.0
11
0.091919
21
1.759924
31
0.0
0
LINE
8
FRONT
10
0.091919
20
1.759924
30
0.0
11
0.096167
21
1.760673
31
0.0
0
LINE
8
FRONT
10
0.096167
20
1.760673
30
0.0
11
0.100319
21
1.761842
31
0.0
0
LINE
8
FRONT
10
0.100319
20
1.761842
30
0.0
11
0.104335
21
1.763418
31
0.0
0
LINE
8
FRONT
10
0.104335
20
1.763418
30
0.0
11
0.108173
21
1.765385
31
0.0
0
LINE
8
FRONT
10
0.108173
20
1.765385
30
0.0
11
0.111797
21
1.767726
31
0.0
0
LINE
8
FRONT
10
0.111797
20
1.767726
30
0.0
11
0.115169
21
1.770415
31
0.0
0
LINE
8
FRONT
10
0.115169
20
1.770415
30
0.0
11
0.118257
21
1.773427
31
0.0
0
LINE
8
FRONT
10
0.118257
20
1.773427
30
0.0
11
0.121030
21
1.776732
31
0.0
0
LINE
8
FRONT
10
0.121030
20
1.776732
30
0.0
11
0.123460
21
1.780296
31
0.0
0
LINE
8
FRONT
10
0.123460
20
1.780296
30
0.0
11
0.125523
21
1.784084
31
0.0
0
LINE
8
FRONT
10
0.125523
20
1.784084
30
0.0
11
0.127198
21
1.788059
31
0.0
0
LINE
8
FRONT
10
0.127198
20
1.788059
30
0.0
11
0.128470
21
1.792181
31
0.0
0
LINE
8
FRONT
10
0.128470
20
1.792181
30
0.0
11
0.129324
21
1.796409
31
0.0
0
LINE
8
FRONT
10
0.129324
20
1.796409
30
0.0
11
0.129754
21
1.800701
31
0.0
0
LINE
8
FRONT
10
0.129754
20
1.800701
30
0.0
11
0.129754
21
1.805015
31
0.0
0
LINE
8
FRONT
10
0.129754
20
1.805015
30
0.0
11
0.129324
21
1.809307
31
0.0
0
LINE
8
FRONT
10
0.129324
20
1.809307
30
0.0
11
0.128470
21
1.813535
31
0.0
0
LINE
8
FRONT
10
0.128470
20
1.813535
30
0.0
11
0.127198
21
1.817657
31
0.0
0
LINE
8
FRONT
10
0.127198
20
1.817657
30
0.0
11
0.125523
21
1.821632
31
0.0
0
LINE
8
FRONT
10
0.125523
20
1.821632
30
0.0
11
0.123460
21
1.825420
31
0.0
0
LINE
8
FRONT
10
0.123460
20
1.825420
30
0.0
11
0.121030
21
1.828984
31
0.0
0
LINE
8
FRONT
10
0.121030
20
1.828984
30
0.0
11
0.118257
21
1.832288
31
0.0
0
LINE
8
FRONT
10
0.118257
20
1.832288
30
0.0
11
0.115169
21
1.835300
31
0.0
0
LINE
8
FRONT
10
0.115169
20
1.835300
30
0.0
11
0.111797
21
1.837990
31
0.0
0
LINE
8
FRONT
10
0.111797
20
1.837990
30
0.0
11
0.108173
21
1.840330
31
0.0
0
LINE
8
FRONT
10
0.108173
20
1.840330
30
0.0
11
0.104335
21
1.842298
31
0.0
0
LINE
8
FRONT
10
0.104335
20
1.842298
30
0.0
11
0.100319
21
1.843874
31
0.0
0
LINE
8
FRONT
10
0.100319
20
1.843874
30
0.0
11
0.096167
21
1.845042
31
0.0
0
LINE
8
FRONT
10
0.096167
20
1.845042
30
0.0
11
0.091919
21
1.845791
31
0.0
0
LINE
8
FRONT
10
0.091919
20
1.845791
30
0.0
11
0.087617
21
1.846113
31
0.0
0
LINE
8
FRONT
10
0.087617
20
1.846113
30
0.0
11
0.083305
21
1.846006
31
0.0
0
LINE
8
FRONT
10
0.083305
20
1.846006
30
0.0
11
0.079025
21
1.845470
31
0.0
0
LINE
8
FRONT
10
0.079025
20
1.845470
30
0.0
11
0.074819
21
1.844510
31
0.0
0
LINE
8
FRONT
10
0.074819
20
1.844510
30
0.0
11
0.070730
21
1.843136
31
0.0
0
LINE
8
FRONT
10
0.070730
20
1.843136
30
0.0
11
0.066799
21
1.841362
31
0.0
0
LINE
8
FRONT
10
0.066799
20
1.841362
30
0.0
11
0.063063
21
1.839205
31
0.0
0
LINE
8
FRONT
10
0.063063
20
1.839205
30
0.0
11
0.059561
21
1.836687
31
0.0
0
LINE
8
FRONT
10
0.059561
20
1.836687
30
0.0
11
0.056326
21
1.833833
31
0.0
0
LINE
8
FRONT
10
0.056326
20
1.833833
30
0.0
11
0.053392
21
1.830671
31
0.0
0
LINE
8
FRONT
10
0.053392
20
1.830671
30
0.0
11
0.050788
21
1.827232
31
0.0
0
LINE
8
FRONT
10
0.050788
20
1.827232
30
0.0
11
0.048538
21
1.823551
31
0.0
0
LINE
8
FRONT
10
0.048538
20
1.823551
30
0.0
11
0.046667
21
1.819665
31
0.0
0
LINE
8
FRONT
10
0.046667
20
1.819665
30
0.0
11
0.045192
21
1.815612
31
0.0
0
LINE
8
FRONT
10
0.045192
20
1.815612
30
0.0
11
0.044127
21
1.811431
31
0.0
0
LINE
8
FRONT
10
0.044127
20
1.811431
30
0.0
11
0.043484
21
1.807166
31
0.0
0
LINE
8
FRONT
10
0.043484
20
1.807166
30
0.0
11
0.043269
21
1.802858
31
0.0
0
LINE
8
LEFT
10
0.473077
20
0.475962
30
0.0
11
0.473077
21
0.389423
31
0.0
0
LINE
8
LEFT
10
0.562500
20
0.475962
30
0.0
11
0.562500
21
0.389423
31
0.0
0
LINE
8
LEFT
10
0.473077
20
1.889423
30
0.0
11
0.473077
21
1.802885
31
0.0
0
LINE
8
LEFT
10
0.562500
20
1.889423
30
0.0
11
0.562500
21
1.802885
31
0.0
0
LINE
8
LEFT
10
0.562500
20
1.802885
30
0.0
11
0.562500
21
1.139423
31
0.0
0
LINE
8
LEFT
10
0.473077
20
1.802885
30
0.0
11
0.473077
21
1.139423
31
0.0
0
LINE
8
LEFT
10
0.562500
20
1.139423
30
0.0
11
0.562500
21
0.475962
31
0.0
0
LINE
8
LEFT
10
0.473077
20
1.139423
30
0.0
11
0.473077
21
0.475962
31
0.0
0
LINE
8
LEFT
10
0.473077
20
0.475962
30
0.0
11
0.562500
21
0.475962
31
0.0
0
LINE
8
LEFT
10
0.473077
20
1.802885
30
0.0
11
0.562500
21
1.802885
31
0.0
0
LINE
8
LEFT
10
0.562500
20
0.389423
30
0.0
11
0.473077
21
0.389423
31
0.0
0
LINE
8
LEFT
10
0.562500
20
1.889423
30
0.0
11
0.473077
21
1.889423
31
0.0
0
LINE
8
LEFT_HID
6
HIDDEN
10
0.473077
20
0.475962
30
0.0
11
0.473077
21
0.432692
31
0.0
0
LINE
8
LEFT_HID
6
HIDDEN
10
0.473077
20
0.432692
30
0.0
11
0.473077
21
0.519231
31
0.0
0
LINE
8
LEFT_HID
6
HIDDEN
10
0.473077
20
0.519231
30
0.0
11
0.473077
21
0.475962
31
0.0
0
LINE
8
LEFT_HID
6
HIDDEN
10
0.562500
20
0.475962
30
0.0
11
0.562500
21
0.432692
31
0.0
0
LINE
8
LEFT_HID
6
HIDDEN
10
0.562500
20
0.432692
30
0.0
11
0.562500
21
0.519231
31
0.0
0
LINE
8
LEFT_HID
6
HIDDEN
10
0.562500
20
0.519231
30
0.0
11
0.562500
21
0.475962
31
0.0
0
LINE
8
LEFT_HID
6
HIDDEN
10
0.473077
20
1.802885
30
0.0
11
0.473077
21
1.759615
31
0.0
0
LINE
8
LEFT_HID
6
HIDDEN
10
0.473077
20
1.759615
30
0.0
11
0.473077
21
1.846154
31
0.0
0
LINE
8
LEFT_HID
6
HIDDEN
10
0.473077
20
1.846154
30
0.0
11
0.473077
21
1.802885
31
0.0
0
LINE
8
LEFT_HID
6
HIDDEN
10
0.562500
20
1.802885
30
0.0
11
0.562500
21
1.759615
31
0.0
0
LINE
8
LEFT_HID
6
HIDDEN
10
0.562500
20
1.759615
30
0.0
11
0.562500
21
1.846154
31
0.0
0
LINE
8
LEFT_HID
6
HIDDEN
10
0.562500
20
1.846154
30
0.0
11
0.562500
21
1.802885
31
0.0
0
LINE
8
LEFT_HID
6
HIDDEN
10
0.562500
20
0.519231
30
0.0
11
0.473077
21
0.519231
31
0.0
0
LINE
8
LEFT_HID
6
HIDDEN
10
0.562500
20
0.432692
30
0.0
11
0.473077
21
0.432692
31
0.0
0
LINE
8
LEFT_HID
6
HIDDEN
10
0.562500
20
1.846154
30
0.0
11
0.473077
21
1.846154
31
0.0
0
LINE
8
LEFT_HID
6
HIDDEN
10
0.562500
20
1.759615
30
0.0
11
0.473077
21
1.759615
31
0.0
0
LINE
8
TOP
10
0.173077
20
0.089423
30
0.0
11
0.173077
21
0.000000
31
0.0
0
LINE
8
TOP
10
0.173077
20
0.089423
30
0.0
11
0.000000
21
0.089423
31
0.0
0
LINE
8
TOP
10
0.000000
20
0.089423
30
0.0
11
0.000000
21
0.000000
31
0.0
0
LINE
8
TOP
10
0.173077
20
0.000000
30
0.0
11
0.000000
21
0.000000
31
0.0
0
LINE
8
TOP_HID
6
HIDDEN
10
0.043269
20
0.089423
30
0.0
11
0.129808
21
0.089423
31
0.0
0
LINE
8
TOP_HID
6
HIDDEN
10
0.129808
20
0.089423
30
0.0
11
0.043269
21
0.089423
31
0.0
0
LINE
8
TOP_HID
6
HIDDEN
10
0.043269
20
0.089423
30
0.0
11
0.043269
21
0.000000
31
0.0
0
LINE
8
TOP_HID
6
HIDDEN
10
0.043269
20
0.000000
30
0.0
11
0.129808
21
0.000000
31
0.0
0
LINE
8
TOP_HID
6
HIDDEN
10
0.129808
20
0.000000
30
0.0
11
0.043269
21
0.000000
31
0.0
0
LINE
8
TOP_HID
6
HIDDEN
10
0.043269
20
0.089423
30
0.0
11
0.129808
21
0.089423
31
0.0
0
LINE
8
TOP_HID
6
HIDDEN
10
0.129808
20
0.089423
30
0.0
11
0.043269
21
0.089423
31
0.0
0
LINE
8
TOP_HID
6
HIDDEN
10
0.043269
20
0.089423
30
0.0
11
0.043269
21
0.000000
31
0.0
0
LINE
8
TOP_HID
6
HIDDEN
10
0.043269
20
0.000000
30
0.0
11
0.129808
21
0.000000
31
0.0
0
LINE
8
TOP_HID
6
HIDDEN
10
0.129808
20
0.000000
30
0.0
11
0.043269
21
0.000000
31
0.0
0
LINE
8
TOP_HID
6
HIDDEN
10
0.129808
20
0.000000
30
0.0
11
0.129808
21
0.089423
31
0.0
0
LINE
8
TOP_HID
6
HIDDEN
10
0.129808
20
0.000000
30
0.0
11
0.129808
21
0.089423
31
0.0
0
ENDSEC
0
EOF
