0
SECTION
2
HEADER
9
$ACADVER
1
AC1009
0
ENDSEC
0
SECTION
2
TABLES
0
TABLE
2
LTYPE
70
3
0
LTYPE
2
CONTINUOUS
70
0
3
Solid line
72
65
73
0
40
0.0
0
LTYPE
2
HIDDEN
70
0
3
__ __ __ __ __
72
65
73
2
40
0.037500
49
0.025013
49
-0.012488
0
LTYPE
2
CENTER
70
0
3
___ _ ___ _ ___
72
65
73
4
40
0.087488
49
0.049988
49
-0.012488
49
0.012488
49
-0.012488
0
ENDTAB
0
TABLE
2
LAYER
70
6
0
LAYER
2
0
70
0
62
7
6
CONTINUOUS
0
LAYER
2
FRONT
70
0
62
7
6
CONTINUOUS
0
LAYER
2
LEFT
70
0
62
7
6
CONTINUOUS
0
LAYER
2
LEFT_HID
70
0
62
7
6
HIDDEN
0
LAYER
2
TOP
70
0
62
7
6
CONTINUOUS
0
LAYER
2
TOP_HID
70
0
62
7
6
HIDDEN
0
ENDTAB
0
ENDSEC
0
SECTION
2
ENTITIES
0
LINE
8
FRONT
10
0.000000
20
0.375000
30
0.0
11
0.750000
21
0.375000
31
0.0
0
LINE
8
FRONT
10
0.750000
20
0.375000
30
0.0
11
0.750000
21
0.600000
31
0.0
0
LINE
8
FRONT
10
0.750000
20
0.600000
30
0.0
11
0.501000
21
0.600000
31
0.0
0
LINE
8
FRONT
10
0.501000
20
0.600000
30
0.0
11
0.250500
21
0.600000
31
0.0
0
LINE
8
FRONT
10
0.250500
20
0.600000
30
0.0
11
0.000000
21
0.600000
31
0.0
0
LINE
8
FRONT
10
0.000000
20
0.600000
30
0.0
11
0.000000
21
0.375000
31
0.0
0
LINE
8
FRONT
10
0.501000
20
0.600000
30
0.0
11
0.501000
21
0.807815
31
0.0
0
LINE
8
FRONT
10
0.250500
20
0.807815
30
0.0
11
0.250500
21
0.600000
31
0.0
0
LINE
8
FRONT
10
0.501000
20
0.807815
30
0.0
11
0.500844
21
0.814058
31
0.0
0
LINE
8
FRONT
10
0.500844
20
0.814058
30
0.0
11
0.500378
21
0.820286
31
0.0
0
LINE
8
FRONT
10
0.500378
20
0.820286
30
0.0
11
0.499601
21
0.826482
31
0.0
0
LINE
8
FRONT
10
0.499601
20
0.826482
30
0.0
11
0.498517
21
0.832632
31
0.0
0
LINE
8
FRONT
10
0.498517
20
0.832632
30
0.0
11
0.497127
21
0.838721
31
0.0
0
LINE
8
FRONT
10
0.497127
20
0.838721
30
0.0
11
0.495435
21
0.844733
31
0.0
0
LINE
8
FRONT
10
0.495435
20
0.844733
30
0.0
11
0.493447
21
0.850653
31
0.0
0
LINE
8
FRONT
10
0.493447
20
0.850653
30
0.0
11
0.491165
21
0.856466
31
0.0
0
LINE
8
FRONT
10
0.491165
20
0.856466
30
0.0
11
0.488596
21
0.862159
31
0.0
0
LINE
8
FRONT
10
0.488596
20
0.862159
30
0.0
11
0.485747
21
0.867716
31
0.0
0
LINE
8
FRONT
10
0.485747
20
0.867716
30
0.0
11
0.482625
21
0.873124
31
0.0
0
LINE
8
FRONT
10
0.482625
20
0.873124
30
0.0
11
0.479236
21
0.878371
31
0.0
0
LINE
8
FRONT
10
0.479236
20
0.878371
30
0.0
11
0.475591
21
0.883441
31
0.0
0
LINE
8
FRONT
10
0.475591
20
0.883441
30
0.0
11
0.471697
21
0.888324
31
0.0
0
LINE
8
FRONT
10
0.471697
20
0.888324
30
0.0
11
0.467565
21
0.893006
31
0.0
0
LINE
8
FRONT
10
0.467565
20
0.893006
30
0.0
11
0.463204
21
0.897477
31
0.0
0
LINE
8
FRONT
10
0.463204
20
0.897477
30
0.0
11
0.458626
21
0.901725
31
0.0
0
LINE
8
FRONT
10
0.458626
20
0.901725
30
0.0
11
0.453842
21
0.905739
31
0.0
0
LINE
8
FRONT
10
0.453842
20
0.905739
30
0.0
11
0.448864
21
0.909510
31
0.0
0
LINE
8
FRONT
10
0.448864
20
0.909510
30
0.0
11
0.443704
21
0.913028
31
0.0
0
LINE
8
FRONT
10
0.443704
20
0.913028
30
0.0
11
0.438375
21
0.916284
31
0.0
0
LINE
8
FRONT
10
0.438375
20
0.916284
30
0.0
11
0.432890
21
0.919271
31
0.0
0
LINE
8
FRONT
10
0.432890
20
0.919271
30
0.0
11
0.427264
21
0.921981
31
0.0
0
LINE
8
FRONT
10
0.427264
20
0.921981
30
0.0
11
0.421509
21
0.924407
31
0.0
0
LINE
8
FRONT
10
0.421509
20
0.924407
30
0.0
11
0.415640
21
0.926543
31
0.0
0
LINE
8
FRONT
10
0.415640
20
0.926543
30
0.0
11
0.409673
21
0.928383
31
0.0
0
LINE
8
FRONT
10
0.409673
20
0.928383
30
0.0
11
0.403621
21
0.929924
31
0.0
0
LINE
8
FRONT
10
0.403621
20
0.929924
30
0.0
11
0.397499
21
0.931162
31
0.0
0
LINE
8
FRONT
10
0.397499
20
0.931162
30
0.0
11
0.391324
21
0.932093
31
0.0
0
LINE
8
FRONT
10
0.391324
20
0.932093
30
0.0
11
0.385110
21
0.932714
31
0.0
0
LINE
8
FRONT
10
0.385110
20
0.932714
30
0.0
11
0.378873
21
0.933026
31
0.0
0
LINE
8
FRONT
10
0.378873
20
0.933026
30
0.0
11
0.372627
21
0.933026
31
0.0
0
LINE
8
FRONT
10
0.372627
20
0.933026
30
0.0
11
0.366390
21
0.932714
31
0.0
0
LINE
8
FRONT
10
0.366390
20
0.932714
30
0.0
11
0.360176
21
0.932093
31
0.0
0
LINE
8
FRONT
10
0.360176
20
0.932093
30
0.0
11
0.354001
21
0.931162
31
0.0
0
LINE
8
FRONT
10
0.354001
20
0.931162
30
0.0
11
0.347879
21
0.929924
31
0.0
0
LINE
8
FRONT
10
0.347879
20
0.929924
30
0.0
11
0.341827
21
0.928383
31
0.0
0
LINE
8
FRONT
10
0.341827
20
0.928383
30
0.0
11
0.335860
21
0.926543
31
0.0
0
LINE
8
FRONT
10
0.335860
20
0.926543
30
0.0
11
0.329991
21
0.924407
31
0.0
0
LINE
8
FRONT
10
0.329991
20
0.924407
30
0.0
11
0.324236
21
0.921981
31
0.0
0
LINE
8
FRONT
10
0.324236
20
0.921981
30
0.0
11
0.318610
21
0.919271
31
0.0
0
LINE
8
FRONT
10
0.318610
20
0.919271
30
0.0
11
0.313125
21
0.916284
31
0.0
0
LINE
8
FRONT
10
0.313125
20
0.916284
30
0.0
11
0.307796
21
0.913028
31
0.0
0
LINE
8
FRONT
10
0.307796
20
0.913028
30
0.0
11
0.302636
21
0.909510
31
0.0
0
LINE
8
FRONT
10
0.302636
20
0.909510
30
0.0
11
0.297658
21
0.905739
31
0.0
0
LINE
8
FRONT
10
0.297658
20
0.905739
30
0.0
11
0.292874
21
0.901725
31
0.0
0
LINE
8
FRONT
10
0.292874
20
0.901725
30
0.0
11
0.288296
21
0.897477
31
0.0
0
LINE
8
FRONT
10
0.288296
20
0.897477
30
0.0
11
0.283935
21
0.893006
31
0.0
0
LINE
8
FRONT
10
0.283935
20
0.893006
30
0.0
11
0.279803
21
0.888324
31
0.0
0
LINE
8
FRONT
10
0.279803
20
0.888324
30
0.0
11
0.275909
21
0.883441
31
0.0
0
LINE
8
FRONT
10
0.275909
20
0.883441
30
0.0
11
0.272264
21
0.878371
31
0.0
0
LINE
8
FRONT
10
0.272264
20
0.878371
30
0.0
11
0.268875
21
0.873124
31
0.0
0
LINE
8
FRONT
10
0.268875
20
0.873124
30
0.0
11
0.265753
21
0.867716
31
0.0
0
LINE
8
FRONT
10
0.265753
20
0.867716
30
0.0
11
0.262904
21
0.862159
31
0.0
0
LINE
8
FRONT
10
0.262904
20
0.862159
30
0.0
11
0.260335
21
0.856466
31
0.0
0
LINE
8
FRONT
10
0.260335
20
0.856466
30
0.0
11
0.258053
21
0.850653
31
0.0
0
LINE
8
FRONT
10
0.258053
20
0.850653
30
0.0
11
0.256065
21
0.844733
31
0.0
0
LINE
8
FRONT
10
0.256065
20
0.844733
30
0.0
11
0.254373
21
0.838721
31
0.0
0
LINE
8
FRONT
10
0.254373
20
0.838721
30
0.0
11
0.252983
21
0.832632
31
0.0
0
LINE
8
FRONT
10
0.252983
20
0.832632
30
0.0
11
0.251899
21
0.826482
31
0.0
0
LINE
8
FRONT
10
0.251899
20
0.826482
30
0.0
11
0.251122
21
0.820286
31
0.0
0
LINE
8
FRONT
10
0.251122
20
0.820286
30
0.0
11
0.250656
21
0.814058
31
0.0
0
LINE
8
FRONT
10
0.250656
20
0.814058
30
0.0
11
0.250500
21
0.807815
31
0.0
0
LINE
8
FRONT
10
0.394004
20
0.807815
30
0.0
11
0.393455
21
0.807586
31
0.0
0
LINE
8
FRONT
10
0.393455
20
0.807586
30
0.0
11
0.392902
21
0.807365
31
0.0
0
LINE
8
FRONT
10
0.392902
20
0.807365
30
0.0
11
0.392347
21
0.807151
31
0.0
0
LINE
8
FRONT
10
0.392347
20
0.807151
30
0.0
11
0.391789
21
0.806944
31
0.0
0
LINE
8
FRONT
10
0.391789
20
0.806944
30
0.0
11
0.391228
21
0.806743
31
0.0
0
LINE
8
FRONT
10
0.391228
20
0.806743
30
0.0
11
0.390665
21
0.806550
31
0.0
0
LINE
8
FRONT
10
0.390665
20
0.806550
30
0.0
11
0.390099
21
0.806365
31
0.0
0
LINE
8
FRONT
10
0.390099
20
0.806365
30
0.0
11
0.389532
21
0.806186
31
0.0
0
LINE
8
FRONT
10
0.389532
20
0.806186
30
0.0
11
0.388962
21
0.806015
31
0.0
0
LINE
8
FRONT
10
0.388962
20
0.806015
30
0.0
11
0.388389
21
0.805850
31
0.0
0
LINE
8
FRONT
10
0.388389
20
0.805850
30
0.0
11
0.387815
21
0.805694
31
0.0
0
LINE
8
FRONT
10
0.387815
20
0.805694
30
0.0
11
0.387239
21
0.805544
31
0.0
0
LINE
8
FRONT
10
0.387239
20
0.805544
30
0.0
11
0.386661
21
0.805402
31
0.0
0
LINE
8
FRONT
10
0.386661
20
0.805402
30
0.0
11
0.386081
21
0.805267
31
0.0
0
LINE
8
FRONT
10
0.386081
20
0.805267
30
0.0
11
0.385500
21
0.805139
31
0.0
0
LINE
8
FRONT
10
0.385500
20
0.805139
30
0.0
11
0.384917
21
0.805019
31
0.0
0
LINE
8
FRONT
10
0.384917
20
0.805019
30
0.0
11
0.384332
21
0.804907
31
0.0
0
LINE
8
FRONT
10
0.384332
20
0.804907
30
0.0
11
0.383747
21
0.804801
31
0.0
0
LINE
8
FRONT
10
0.383747
20
0.804801
30
0.0
11
0.383159
21
0.804704
31
0.0
0
LINE
8
FRONT
10
0.383159
20
0.804704
30
0.0
11
0.382571
21
0.804613
31
0.0
0
LINE
8
FRONT
10
0.382571
20
0.804613
30
0.0
11
0.381982
21
0.804530
31
0.0
0
LINE
8
FRONT
10
0.381982
20
0.804530
30
0.0
11
0.381391
21
0.804455
31
0.0
0
LINE
8
FRONT
10
0.381391
20
0.804455
30
0.0
11
0.380800
21
0.804387
31
0.0
0
LINE
8
FRONT
10
0.380800
20
0.804387
30
0.0
11
0.380208
21
0.804327
31
0.0
0
LINE
8
FRONT
10
0.380208
20
0.804327
30
0.0
11
0.379615
21
0.804274
31
0.0
0
LINE
8
FRONT
10
0.379615
20
0.804274
30
0.0
11
0.379021
21
0.804229
31
0.0
0
LINE
8
FRONT
10
0.379021
20
0.804229
30
0.0
11
0.378427
21
0.804191
31
0.0
0
LINE
8
FRONT
10
0.378427
20
0.804191
30
0.0
11
0.377833
21
0.804161
31
0.0
0
LINE
8
FRONT
10
0.377833
20
0.804161
30
0.0
11
0.377238
21
0.804138
31
0.0
0
LINE
8
FRONT
10
0.377238
20
0.804138
30
0.0
11
0.376643
21
0.804123
31
0.0
0
LINE
8
FRONT
10
0.376643
20
0.804123
30
0.0
11
0.376048
21
0.804115
31
0.0
0
LINE
8
FRONT
10
0.376048
20
0.804115
30
0.0
11
0.375452
21
0.804115
31
0.0
0
LINE
8
FRONT
10
0.375452
20
0.804115
30
0.0
11
0.374857
21
0.804123
31
0.0
0
LINE
8
FRONT
10
0.374857
20
0.804123
30
0.0
11
0.374262
21
0.804138
31
0.0
0
LINE
8
FRONT
10
0.374262
20
0.804138
30
0.0
11
0.373667
21
0.804161
31
0.0
0
LINE
8
FRONT
10
0.373667
20
0.804161
30
0.0
11
0.373073
21
0.804191
31
0.0
0
LINE
8
FRONT
10
0.373073
20
0.804191
30
0.0
11
0.372479
21
0.804229
31
0.0
0
LINE
8
FRONT
10
0.372479
20
0.804229
30
0.0
11
0.371885
21
0.804274
31
0.0
0
LINE
8
FRONT
10
0.371885
20
0.804274
30
0.0
11
0.371292
21
0.804327
31
0.0
0
LINE
8
FRONT
10
0.371292
20
0.804327
30
0.0
11
0.370700
21
0.804387
31
0.0
0
LINE
8
FRONT
10
0.370700
20
0.804387
30
0.0
11
0.370109
21
0.804455
31
0.0
0
LINE
8
FRONT
10
0.370109
20
0.804455
30
0.0
11
0.369518
21
0.804530
31
0.0
0
LINE
8
FRONT
10
0.369518
20
0.804530
30
0.0
11
0.368929
21
0.804613
31
0.0
0
LINE
8
FRONT
10
0.368929
20
0.804613
30
0.0
11
0.368341
21
0.804704
31
0.0
0
LINE
8
FRONT
10
0.368341
20
0.804704
30
0.0
11
0.367753
21
0.804801
31
0.0
0
LINE
8
FRONT
10
0.367753
20
0.804801
30
0.0
11
0.367168
21
0.804907
31
0.0
0
LINE
8
FRONT
10
0.367168
20
0.804907
30
0.0
11
0.366583
21
0.805019
31
0.0
0
LINE
8
FRONT
10
0.366583
20
0.805019
30
0.0
11
0.366000
21
0.805139
31
0.0
0
LINE
8
FRONT
10
0.366000
20
0.805139
30
0.0
11
0.365419
21
0.805267
31
0.0
0
LINE
8
FRONT
10
0.365419
20
0.805267
30
0.0
11
0.364839
21
0.805402
31
0.0
0
LINE
8
FRONT
10
0.364839
20
0.805402
30
0.0
11
0.364261
21
0.805544
31
0.0
0
LINE
8
FRONT
10
0.364261
20
0.805544
30
0.0
11
0.363685
21
0.805694
31
0.0
0
LINE
8
FRONT
10
0.363685
20
0.805694
30
0.0
11
0.363111
21
0.805850
31
0.0
0
LINE
8
FRONT
10
0.363111
20
0.805850
30
0.0
11
0.362538
21
0.806015
31
0.0
0
LINE
8
FRONT
10
0.362538
20
0.806015
30
0.0
11
0.361968
21
0.806186
31
0.0
0
LINE
8
FRONT
10
0.361968
20
0.806186
30
0.0
11
0.361401
21
0.806365
31
0.0
0
LINE
8
FRONT
10
0.361401
20
0.806365
30
0.0
11
0.360835
21
0.806550
31
0.0
0
LINE
8
FRONT
10
0.360835
20
0.806550
30
0.0
11
0.360272
21
0.806743
31
0.0
0
LINE
8
FRONT
10
0.360272
20
0.806743
30
0.0
11
0.359711
21
0.806944
31
0.0
0
LINE
8
FRONT
10
0.359711
20
0.806944
30
0.0
11
0.359153
21
0.807151
31
0.0
0
LINE
8
FRONT
10
0.359153
20
0.807151
30
0.0
11
0.358598
21
0.807365
31
0.0
0
LINE
8
FRONT
10
0.358598
20
0.807365
30
0.0
11
0.358045
21
0.807586
31
0.0
0
LINE
8
FRONT
10
0.358045
20
0.807586
30
0.0
11
0.357496
21
0.807815
31
0.0
0
LINE
8
FRONT
10
0.357496
20
0.807815
30
0.0
11
0.353812
21
0.809565
31
0.0
0
LINE
8
FRONT
10
0.353812
20
0.809565
30
0.0
11
0.350294
21
0.811629
31
0.0
0
LINE
8
FRONT
10
0.350294
20
0.811629
30
0.0
11
0.346969
21
0.813990
31
0.0
0
LINE
8
FRONT
10
0.346969
20
0.813990
30
0.0
11
0.343862
21
0.816632
31
0.0
0
LINE
8
FRONT
10
0.343862
20
0.816632
30
0.0
11
0.340996
21
0.819534
31
0.0
0
LINE
8
FRONT
10
0.340996
20
0.819534
30
0.0
11
0.338393
21
0.822674
31
0.0
0
LINE
8
FRONT
10
0.338393
20
0.822674
30
0.0
11
0.336074
21
0.826028
31
0.0
0
LINE
8
FRONT
10
0.336074
20
0.826028
30
0.0
11
0.334054
21
0.829572
31
0.0
0
LINE
8
FRONT
10
0.334054
20
0.829572
30
0.0
11
0.332350
21
0.833277
31
0.0
0
LINE
8
FRONT
10
0.332350
20
0.833277
30
0.0
11
0.330975
21
0.837117
31
0.0
0
LINE
8
FRONT
10
0.330975
20
0.837117
30
0.0
11
0.329938
21
0.841061
31
0.0
0
LINE
8
FRONT
10
0.329938
20
0.841061
30
0.0
11
0.329249
21
0.845081
31
0.0
0
LINE
8
FRONT
10
0.329249
20
0.845081
30
0.0
11
0.328911
21
0.849146
31
0.0
0
LINE
8
FRONT
10
0.328911
20
0.849146
30
0.0
11
0.328928
21
0.853224
31
0.0
0
LINE
8
FRONT
10
0.328928
20
0.853224
30
0.0
11
0.329300
21
0.857286
31
0.0
0
LINE
8
FRONT
10
0.329300
20
0.857286
30
0.0
11
0.330023
21
0.861299
31
0.0
0
LINE
8
FRONT
10
0.330023
20
0.861299
30
0.0
11
0.331092
21
0.865235
31
0.0
0
LINE
8
FRONT
10
0.331092
20
0.865235
30
0.0
11
0.332500
21
0.869063
31
0.0
0
LINE
8
FRONT
10
0.332500
20
0.869063
30
0.0
11
0.334234
21
0.872754
31
0.0
0
LINE
8
FRONT
10
0.334234
20
0.872754
30
0.0
11
0.336283
21
0.876281
31
0.0
0
LINE
8
FRONT
10
0.336283
20
0.876281
30
0.0
11
0.338631
21
0.879615
31
0.0
0
LINE
8
FRONT
10
0.338631
20
0.879615
30
0.0
11
0.341260
21
0.882734
31
0.0
0
LINE
8
FRONT
10
0.341260
20
0.882734
30
0.0
11
0.344150
21
0.885612
31
0.0
0
LINE
8
FRONT
10
0.344150
20
0.885612
30
0.0
11
0.347279
21
0.888227
31
0.0
0
LINE
8
FRONT
10
0.347279
20
0.888227
30
0.0
11
0.350624
21
0.890561
31
0.0
0
LINE
8
FRONT
10
0.350624
20
0.890561
30
0.0
11
0.354159
21
0.892595
31
0.0
0
LINE
8
FRONT
10
0.354159
20
0.892595
30
0.0
11
0.357857
21
0.894315
31
0.0
0
LINE
8
FRONT
10
0.357857
20
0.894315
30
0.0
11
0.361691
21
0.895706
31
0.0
0
LINE
8
FRONT
10
0.361691
20
0.895706
30
0.0
11
0.365631
21
0.896759
31
0.0
0
LINE
8
FRONT
10
0.365631
20
0.896759
30
0.0
11
0.369648
21
0.897465
31
0.0
0
LINE
8
FRONT
10
0.369648
20
0.897465
30
0.0
11
0.373711
21
0.897820
31
0.0
0
LINE
8
FRONT
10
0.373711
20
0.897820
30
0.0
11
0.377789
21
0.897820
31
0.0
0
LINE
8
FRONT
10
0.377789
20
0.897820
30
0.0
11
0.381852
21
0.897465
31
0.0
0
LINE
8
FRONT
10
0.381852
20
0.897465
30
0.0
11
0.385869
21
0.896759
31
0.0
0
LINE
8
FRONT
10
0.385869
20
0.896759
30
0.0
11
0.389809
21
0.895706
31
0.0
0
LINE
8
FRONT
10
0.389809
20
0.895706
30
0.0
11
0.393643
21
0.894315
31
0.0
0
LINE
8
FRONT
10
0.393643
20
0.894315
30
0.0
11
0.397341
21
0.892595
31
0.0
0
LINE
8
FRONT
10
0.397341
20
0.892595
30
0.0
11
0.400876
21
0.890561
31
0.0
0
LINE
8
FRONT
10
0.400876
20
0.890561
30
0.0
11
0.404221
21
0.888227
31
0.0
0
LINE
8
FRONT
10
0.404221
20
0.888227
30
0.0
11
0.407350
21
0.885612
31
0.0
0
LINE
8
FRONT
10
0.407350
20
0.885612
30
0.0
11
0.410240
21
0.882734
31
0.0
0
LINE
8
FRONT
10
0.410240
20
0.882734
30
0.0
11
0.412869
21
0.879615
31
0.0
0
LINE
8
FRONT
10
0.412869
20
0.879615
30
0.0
11
0.415217
21
0.876281
31
0.0
0
LINE
8
FRONT
10
0.415217
20
0.876281
30
0.0
11
0.417266
21
0.872754
31
0.0
0
LINE
8
FRONT
10
0.417266
20
0.872754
30
0.0
11
0.419000
21
0.869063
31
0.0
0
LINE
8
FRONT
10
0.419000
20
0.869063
30
0.0
11
0.420408
21
0.865235
31
0.0
0
LINE
8
FRONT
10
0.420408
20
0.865235
30
0.0
11
0.421477
21
0.861299
31
0.0
0
LINE
8
FRONT
10
0.421477
20
0.861299
30
0.0
11
0.422200
21
0.857286
31
0.0
0
LINE
8
FRONT
10
0.422200
20
0.857286
30
0.0
11
0.422572
21
0.853224
31
0.0
0
LINE
8
FRONT
10
0.422572
20
0.853224
30
0.0
11
0.422589
21
0.849146
31
0.0
0
LINE
8
FRONT
10
0.422589
20
0.849146
30
0.0
11
0.422251
21
0.845081
31
0.0
0
LINE
8
FRONT
10
0.422251
20
0.845081
30
0.0
11
0.421562
21
0.841061
31
0.0
0
LINE
8
FRONT
10
0.421562
20
0.841061
30
0.0
11
0.420525
21
0.837117
31
0.0
0
LINE
8
FRONT
10
0.420525
20
0.837117
30
0.0
11
0.419150
21
0.833277
31
0.0
0
LINE
8
FRONT
10
0.419150
20
0.833277
30
0.0
11
0.417446
21
0.829572
31
0.0
0
LINE
8
FRONT
10
0.417446
20
0.829572
30
0.0
11
0.415426
21
0.826028
31
0.0
0
LINE
8
FRONT
10
0.415426
20
0.826028
30
0.0
11
0.413107
21
0.822674
31
0.0
0
LINE
8
FRONT
10
0.413107
20
0.822674
30
0.0
11
0.410504
21
0.819534
31
0.0
0
LINE
8
FRONT
10
0.410504
20
0.819534
30
0.0
11
0.407638
21
0.816632
31
0.0
0
LINE
8
FRONT
10
0.407638
20
0.816632
30
0.0
11
0.404531
21
0.813990
31
0.0
0
LINE
8
FRONT
10
0.404531
20
0.813990
30
0.0
11
0.401206
21
0.811629
31
0.0
0
LINE
8
FRONT
10
0.401206
20
0.811629
30
0.0
11
0.397688
21
0.809565
31
0.0
0
LINE
8
FRONT
10
0.397688
20
0.809565
30
0.0
11
0.394004
21
0.807815
31
0.0
0
LINE
8
LEFT
10
1.012500
20
0.375000
30
0.0
11
1.065000
21
0.375000
31
0.0
0
LINE
8
LEFT
10
1.012500
20
0.375000
30
0.0
11
0.960000
21
0.375000
31
0.0
0
LINE
8
LEFT
10
1.065000
20
0.375000
30
0.0
11
1.125000
21
0.375000
31
0.0
0
LINE
8
LEFT
10
1.012500
20
0.600000
30
0.0
11
1.065000
21
0.600000
31
0.0
0
LINE
8
LEFT
10
0.960000
20
0.375000
30
0.0
11
0.900000
21
0.375000
31
0.0
0
LINE
8
LEFT
10
1.012500
20
0.600000
30
0.0
11
0.960000
21
0.600000
31
0.0
0
LINE
8
LEFT
10
1.125000
20
0.600000
30
0.0
11
1.125000
21
0.375000
31
0.0
0
LINE
8
LEFT
10
1.065000
20
0.600000
30
0.0
11
1.125000
21
0.600000
31
0.0
0
LINE
8
LEFT
10
0.900000
20
0.600000
30
0.0
11
0.900000
21
0.375000
31
0.0
0
LINE
8
LEFT
10
0.960000
20
0.600000
30
0.0
11
0.900000
21
0.600000
31
0.0
0
LINE
8
LEFT
10
1.065000
20
0.807815
30
0.0
11
1.065000
21
0.600000
31
0.0
0
LINE
8
LEFT
10
0.960000
20
0.807815
30
0.0
11
0.960000
21
0.600000
31
0.0
0
LINE
8
LEFT
10
1.065000
20
0.933065
30
0.0
11
1.065000
21
0.807815
31
0.0
0
LINE
8
LEFT
10
0.960000
20
0.933065
30
0.0
11
0.960000
21
0.807815
31
0.0
0
LINE
8
LEFT
10
1.012500
20
0.807815
30
0.0
11
1.065000
21
0.807815
31
0.0
0
LINE
8
LEFT
10
1.012500
20
0.807815
30
0.0
11
0.960000
21
0.807815
31
0.0
0
LINE
8
LEFT
10
1.065000
20
0.933065
30
0.0
11
1.012500
21
0.933065
31
0.0
0
LINE
8
LEFT
10
0.960000
20
0.933065
30
0.0
11
1.012500
21
0.933065
31
0.0
0
LINE
8
LEFT_HID
6
HIDDEN
10
1.065000
20
0.807815
30
0.0
11
1.065000
21
0.804114
31
0.0
0
LINE
8
LEFT_HID
6
HIDDEN
10
1.065000
20
0.804114
30
0.0
11
1.065000
21
0.807815
31
0.0
0
LINE
8
LEFT_HID
6
HIDDEN
10
0.960000
20
0.807815
30
0.0
11
0.960000
21
0.804114
31
0.0
0
LINE
8
LEFT_HID
6
HIDDEN
10
0.960000
20
0.804114
30
0.0
11
0.960000
21
0.807815
31
0.0
0
LINE
8
LEFT_HID
6
HIDDEN
10
1.065000
20
0.807815
30
0.0
11
1.065000
21
0.897864
31
0.0
0
LINE
8
LEFT_HID
6
HIDDEN
10
1.065000
20
0.897864
30
0.0
11
1.065000
21
0.807815
31
0.0
0
LINE
8
LEFT_HID
6
HIDDEN
10
0.960000
20
0.807815
30
0.0
11
0.960000
21
0.897864
31
0.0
0
LINE
8
LEFT_HID
6
HIDDEN
10
0.960000
20
0.897864
30
0.0
11
0.960000
21
0.807815
31
0.0
0
LINE
8
LEFT_HID
6
HIDDEN
10
1.065000
20
0.804114
30
0.0
11
1.012500
21
0.804114
31
0.0
0
LINE
8
LEFT_HID
6
HIDDEN
10
0.960000
20
0.804114
30
0.0
11
1.012500
21
0.804114
31
0.0
0
LINE
8
LEFT_HID
6
HIDDEN
10
1.065000
20
0.897864
30
0.0
11
1.012500
21
0.897864
31
0.0
0
LINE
8
LEFT_HID
6
HIDDEN
10
0.960000
20
0.897864
30
0.0
11
1.012500
21
0.897864
31
0.0
0
LINE
8
TOP
10
0.750000
20
0.112500
30
0.0
11
0.750000
21
0.060000
31
0.0
0
LINE
8
TOP
10
0.000000
20
0.112500
30
0.0
11
0.000000
21
0.060000
31
0.0
0
LINE
8
TOP
10
0.750000
20
0.112500
30
0.0
11
0.750000
21
0.165000
31
0.0
0
LINE
8
TOP
10
0.000000
20
0.112500
30
0.0
11
0.000000
21
0.165000
31
0.0
0
LINE
8
TOP
10
0.750000
20
0.060000
30
0.0
11
0.750000
21
0.000000
31
0.0
0
LINE
8
TOP
10
0.750000
20
0.000000
30
0.0
11
0.501000
21
0.000000
31
0.0
0
LINE
8
TOP
10
0.501000
20
0.000000
30
0.0
11
0.250500
21
0.000000
31
0.0
0
LINE
8
TOP
10
0.250500
20
0.000000
30
0.0
11
0.000000
21
0.000000
31
0.0
0
LINE
8
TOP
10
0.000000
20
0.060000
30
0.0
11
0.000000
21
0.000000
31
0.0
0
LINE
8
TOP
10
0.750000
20
0.165000
30
0.0
11
0.750000
21
0.225000
31
0.0
0
LINE
8
TOP
10
0.750000
20
0.225000
30
0.0
11
0.501000
21
0.225000
31
0.0
0
LINE
8
TOP
10
0.501000
20
0.225000
30
0.0
11
0.250500
21
0.225000
31
0.0
0
LINE
8
TOP
10
0.250500
20
0.225000
30
0.0
11
0.000000
21
0.225000
31
0.0
0
LINE
8
TOP
10
0.000000
20
0.165000
30
0.0
11
0.000000
21
0.225000
31
0.0
0
LINE
8
TOP
10
0.501000
20
0.112500
30
0.0
11
0.501000
21
0.060000
31
0.0
0
LINE
8
TOP
10
0.250500
20
0.112500
30
0.0
11
0.250500
21
0.060000
31
0.0
0
LINE
8
TOP
10
0.501000
20
0.112500
30
0.0
11
0.501000
21
0.165000
31
0.0
0
LINE
8
TOP
10
0.250500
20
0.112500
30
0.0
11
0.250500
21
0.165000
31
0.0
0
LINE
8
TOP
10
0.501000
20
0.060000
30
0.0
11
0.250500
21
0.060000
31
0.0
0
LINE
8
TOP
10
0.501000
20
0.165000
30
0.0
11
0.250500
21
0.165000
31
0.0
0
LINE
8
TOP_HID
6
HIDDEN
10
0.000000
20
0.000000
30
0.0
11
0.750000
21
0.000000
31
0.0
0
LINE
8
TOP_HID
6
HIDDEN
10
0.000000
20
0.225000
30
0.0
11
0.750000
21
0.225000
31
0.0
0
LINE
8
TOP_HID
6
HIDDEN
10
0.394004
20
0.060000
30
0.0
11
0.501000
21
0.060000
31
0.0
0
LINE
8
TOP_HID
6
HIDDEN
10
0.394004
20
0.060000
30
0.0
11
0.357496
21
0.060000
31
0.0
0
LINE
8
TOP_HID
6
HIDDEN
10
0.250500
20
0.060000
30
0.0
11
0.357496
21
0.060000
31
0.0
0
LINE
8
TOP_HID
6
HIDDEN
10
0.394004
20
0.165000
30
0.0
11
0.501000
21
0.165000
31
0.0
0
LINE
8
TOP_HID
6
HIDDEN
10
0.394004
20
0.165000
30
0.0
11
0.357496
21
0.165000
31
0.0
0
LINE
8
TOP_HID
6
HIDDEN
10
0.250500
20
0.165000
30
0.0
11
0.357496
21
0.165000
31
0.0
0
LINE
8
TOP_HID
6
HIDDEN
10
0.357496
20
0.060000
30
0.0
11
0.328875
21
0.060000
31
0.0
0
LINE
8
TOP_HID
6
HIDDEN
10
0.328875
20
0.060000
30
0.0
11
0.422625
21
0.060000
31
0.0
0
LINE
8
TOP_HID
6
HIDDEN
10
0.422625
20
0.060000
30
0.0
11
0.394004
21
0.060000
31
0.0
0
LINE
8
TOP_HID
6
HIDDEN
10
0.357496
20
0.165000
30
0.0
11
0.328875
21
0.165000
31
0.0
0
LINE
8
TOP_HID
6
HIDDEN
10
0.328875
20
0.165000
30
0.0
11
0.422625
21
0.165000
31
0.0
0
LINE
8
TOP_HID
6
HIDDEN
10
0.422625
20
0.165000
30
0.0
11
0.394004
21
0.165000
31
0.0
0
LINE
8
TOP_HID
6
HIDDEN
10
0.394004
20
0.112500
30
0.0
11
0.394004
21
0.060000
31
0.0
0
LINE
8
TOP_HID
6
HIDDEN
10
0.357496
20
0.112500
30
0.0
11
0.357496
21
0.060000
31
0.0
0
LINE
8
TOP_HID
6
HIDDEN
10
0.357496
20
0.112500
30
0.0
11
0.357496
21
0.165000
31
0.0
0
LINE
8
TOP_HID
6
HIDDEN
10
0.394004
20
0.112500
30
0.0
11
0.394004
21
0.165000
31
0.0
0
LINE
8
TOP_HID
6
HIDDEN
10
0.422625
20
0.060000
30
0.0
11
0.422625
21
0.112500
31
0.0
0
LINE
8
TOP_HID
6
HIDDEN
10
0.328875
20
0.060000
30
0.0
11
0.328875
21
0.112500
31
0.0
0
LINE
8
TOP_HID
6
HIDDEN
10
0.328875
20
0.165000
30
0.0
11
0.328875
21
0.112500
31
0.0
0
LINE
8
TOP_HID
6
HIDDEN
10
0.422625
20
0.165000
30
0.0
11
0.422625
21
0.112500
31
0.0
0
ENDSEC
0
EOF
