0
SECTION
2
HEADER
9
$ACADVER
1
AC1009
0
ENDSEC
0
SECTION
2
TABLES
0
TABLE
2
LTYPE
70
3
0
LTYPE
2
CONTINUOUS
70
0
3
Solid line
72
65
73
0
40
0.0
0
LTYPE
2
HIDDEN
70
0
3
__ __ __ __ __
72
65
73
2
40
0.075000
49
0.050025
49
-0.024975
0
LTYPE
2
CENTER
70
0
3
___ _ ___ _ ___
72
65
73
4
40
0.174975
49
0.099975
49
-0.024975
49
0.024975
49
-0.024975
0
ENDTAB
0
TABLE
2
LAYER
70
7
0
LAYER
2
0
70
0
62
7
6
CONTINUOUS
0
LAYER
2
FRONT
70
0
62
7
6
CONTINUOUS
0
LAYER
2
FRONT_HID
70
0
62
7
6
HIDDEN
0
LAYER
2
LEFT
70
0
62
7
6
CONTINUOUS
0
LAYER
2
LEFT_HID
70
0
62
7
6
HIDDEN
0
LAYER
2
TOP
70
0
62
7
6
CONTINUOUS
0
LAYER
2
TOP_HID
70
0
62
7
6
HIDDEN
0
ENDTAB
0
ENDSEC
0
SECTION
2
ENTITIES
0
LINE
8
FRONT
10
0.000000
20
0.904839
30
0.0
11
0.000000
21
1.509677
31
0.0
0
LINE
8
FRONT
10
1.500000
20
0.904839
30
0.0
11
0.000000
21
0.904839
31
0.0
0
LINE
8
FRONT
10
1.500000
20
1.509677
30
0.0
11
1.451613
21
1.509677
31
0.0
0
LINE
8
FRONT
10
0.048387
20
1.509677
30
0.0
11
1.451613
21
1.509677
31
0.0
0
LINE
8
FRONT
10
0.048387
20
1.509677
30
0.0
11
0.000000
21
1.509677
31
0.0
0
LINE
8
FRONT
10
1.500000
20
0.904839
30
0.0
11
1.500000
21
1.509677
31
0.0
0
LINE
8
FRONT
10
0.302419
20
1.207258
30
0.0
11
0.302840
21
1.198827
31
0.0
0
LINE
8
FRONT
10
0.302840
20
1.198827
30
0.0
11
0.304098
21
1.190480
31
0.0
0
LINE
8
FRONT
10
0.304098
20
1.190480
30
0.0
11
0.306181
21
1.182299
31
0.0
0
LINE
8
FRONT
10
0.306181
20
1.182299
30
0.0
11
0.309069
21
1.174366
31
0.0
0
LINE
8
FRONT
10
0.309069
20
1.174366
30
0.0
11
0.312731
21
1.166761
31
0.0
0
LINE
8
FRONT
10
0.312731
20
1.166761
30
0.0
11
0.317133
21
1.159558
31
0.0
0
LINE
8
FRONT
10
0.317133
20
1.159558
30
0.0
11
0.322230
21
1.152828
31
0.0
0
LINE
8
FRONT
10
0.322230
20
1.152828
30
0.0
11
0.327972
21
1.146640
31
0.0
0
LINE
8
FRONT
10
0.327972
20
1.146640
30
0.0
11
0.334301
21
1.141055
31
0.0
0
LINE
8
FRONT
10
0.334301
20
1.141055
30
0.0
11
0.341155
21
1.136127
31
0.0
0
LINE
8
FRONT
10
0.341155
20
1.136127
30
0.0
11
0.348466
21
1.131906
31
0.0
0
LINE
8
FRONT
10
0.348466
20
1.131906
30
0.0
11
0.356161
21
1.128434
31
0.0
0
LINE
8
FRONT
10
0.356161
20
1.128434
30
0.0
11
0.364163
21
1.125746
31
0.0
0
LINE
8
FRONT
10
0.364163
20
1.125746
30
0.0
11
0.372393
21
1.123867
31
0.0
0
LINE
8
FRONT
10
0.372393
20
1.123867
30
0.0
11
0.380769
21
1.122817
31
0.0
0
LINE
8
FRONT
10
0.380769
20
1.122817
30
0.0
11
0.389208
21
1.122607
31
0.0
0
LINE
8
FRONT
10
0.389208
20
1.122607
30
0.0
11
0.397626
21
1.123238
31
0.0
0
LINE
8
FRONT
10
0.397626
20
1.123238
30
0.0
11
0.405939
21
1.124704
31
0.0
0
LINE
8
FRONT
10
0.405939
20
1.124704
30
0.0
11
0.414065
21
1.126990
31
0.0
0
LINE
8
FRONT
10
0.414065
20
1.126990
30
0.0
11
0.421924
21
1.130074
31
0.0
0
LINE
8
FRONT
10
0.421924
20
1.130074
30
0.0
11
0.429435
21
1.133925
31
0.0
0
LINE
8
FRONT
10
0.429435
20
1.133925
30
0.0
11
0.436527
21
1.138505
31
0.0
0
LINE
8
FRONT
10
0.436527
20
1.138505
30
0.0
11
0.443127
21
1.143769
31
0.0
0
LINE
8
FRONT
10
0.443127
20
1.143769
30
0.0
11
0.449170
21
1.149663
31
0.0
0
LINE
8
FRONT
10
0.449170
20
1.149663
30
0.0
11
0.454596
21
1.156129
31
0.0
0
LINE
8
FRONT
10
0.454596
20
1.156129
30
0.0
11
0.459351
21
1.163104
31
0.0
0
LINE
8
FRONT
10
0.459351
20
1.163104
30
0.0
11
0.463388
21
1.170518
31
0.0
0
LINE
8
FRONT
10
0.463388
20
1.170518
30
0.0
11
0.466668
21
1.178297
31
0.0
0
LINE
8
FRONT
10
0.466668
20
1.178297
30
0.0
11
0.469156
21
1.186363
31
0.0
0
LINE
8
FRONT
10
0.469156
20
1.186363
30
0.0
11
0.470828
21
1.194638
31
0.0
0
LINE
8
FRONT
10
0.470828
20
1.194638
30
0.0
11
0.471669
21
1.203037
31
0.0
0
LINE
8
FRONT
10
0.471669
20
1.203037
30
0.0
11
0.471669
21
1.211479
31
0.0
0
LINE
8
FRONT
10
0.471669
20
1.211479
30
0.0
11
0.470828
21
1.219879
31
0.0
0
LINE
8
FRONT
10
0.470828
20
1.219879
30
0.0
11
0.469156
21
1.228153
31
0.0
0
LINE
8
FRONT
10
0.469156
20
1.228153
30
0.0
11
0.466668
21
1.236219
31
0.0
0
LINE
8
FRONT
10
0.466668
20
1.236219
30
0.0
11
0.463388
21
1.243998
31
0.0
0
LINE
8
FRONT
10
0.463388
20
1.243998
30
0.0
11
0.459351
21
1.251412
31
0.0
0
LINE
8
FRONT
10
0.459351
20
1.251412
30
0.0
11
0.454596
21
1.258387
31
0.0
0
LINE
8
FRONT
10
0.454596
20
1.258387
30
0.0
11
0.449170
21
1.264853
31
0.0
0
LINE
8
FRONT
10
0.449170
20
1.264853
30
0.0
11
0.443127
21
1.270748
31
0.0
0
LINE
8
FRONT
10
0.443127
20
1.270748
30
0.0
11
0.436527
21
1.276011
31
0.0
0
LINE
8
FRONT
10
0.436527
20
1.276011
30
0.0
11
0.429435
21
1.280591
31
0.0
0
LINE
8
FRONT
10
0.429435
20
1.280591
30
0.0
11
0.421924
21
1.284442
31
0.0
0
LINE
8
FRONT
10
0.421924
20
1.284442
30
0.0
11
0.414065
21
1.287526
31
0.0
0
LINE
8
FRONT
10
0.414065
20
1.287526
30
0.0
11
0.405939
21
1.289812
31
0.0
0
LINE
8
FRONT
10
0.405939
20
1.289812
30
0.0
11
0.397626
21
1.291278
31
0.0
0
LINE
8
FRONT
10
0.397626
20
1.291278
30
0.0
11
0.389208
21
1.291909
31
0.0
0
LINE
8
FRONT
10
0.389208
20
1.291909
30
0.0
11
0.380769
21
1.291699
31
0.0
0
LINE
8
FRONT
10
0.380769
20
1.291699
30
0.0
11
0.372393
21
1.290649
31
0.0
0
LINE
8
FRONT
10
0.372393
20
1.290649
30
0.0
11
0.364163
21
1.288771
31
0.0
0
LINE
8
FRONT
10
0.364163
20
1.288771
30
0.0
11
0.356161
21
1.286082
31
0.0
0
LINE
8
FRONT
10
0.356161
20
1.286082
30
0.0
11
0.348466
21
1.282610
31
0.0
0
LINE
8
FRONT
10
0.348466
20
1.282610
30
0.0
11
0.341155
21
1.278389
31
0.0
0
LINE
8
FRONT
10
0.341155
20
1.278389
30
0.0
11
0.334301
21
1.273462
31
0.0
0
LINE
8
FRONT
10
0.334301
20
1.273462
30
0.0
11
0.327972
21
1.267876
31
0.0
0
LINE
8
FRONT
10
0.327972
20
1.267876
30
0.0
11
0.322230
21
1.261688
31
0.0
0
LINE
8
FRONT
10
0.322230
20
1.261688
30
0.0
11
0.317133
21
1.254959
31
0.0
0
LINE
8
FRONT
10
0.317133
20
1.254959
30
0.0
11
0.312731
21
1.247755
31
0.0
0
LINE
8
FRONT
10
0.312731
20
1.247755
30
0.0
11
0.309069
21
1.240150
31
0.0
0
LINE
8
FRONT
10
0.309069
20
1.240150
30
0.0
11
0.306181
21
1.232217
31
0.0
0
LINE
8
FRONT
10
0.306181
20
1.232217
30
0.0
11
0.304098
21
1.224037
31
0.0
0
LINE
8
FRONT
10
0.304098
20
1.224037
30
0.0
11
0.302840
21
1.215689
31
0.0
0
LINE
8
FRONT
10
0.302840
20
1.215689
30
0.0
11
0.302419
21
1.207258
31
0.0
0
LINE
8
FRONT
10
0.665323
20
1.207258
30
0.0
11
0.665743
21
1.198827
31
0.0
0
LINE
8
FRONT
10
0.665743
20
1.198827
30
0.0
11
0.667002
21
1.190480
31
0.0
0
LINE
8
FRONT
10
0.667002
20
1.190480
30
0.0
11
0.669085
21
1.182299
31
0.0
0
LINE
8
FRONT
10
0.669085
20
1.182299
30
0.0
11
0.671972
21
1.174366
31
0.0
0
LINE
8
FRONT
10
0.671972
20
1.174366
30
0.0
11
0.675634
21
1.166761
31
0.0
0
LINE
8
FRONT
10
0.675634
20
1.166761
30
0.0
11
0.680036
21
1.159558
31
0.0
0
LINE
8
FRONT
10
0.680036
20
1.159558
30
0.0
11
0.685133
21
1.152828
31
0.0
0
LINE
8
FRONT
10
0.685133
20
1.152828
30
0.0
11
0.690875
21
1.146640
31
0.0
0
LINE
8
FRONT
10
0.690875
20
1.146640
30
0.0
11
0.697204
21
1.141055
31
0.0
0
LINE
8
FRONT
10
0.697204
20
1.141055
30
0.0
11
0.704059
21
1.136127
31
0.0
0
LINE
8
FRONT
10
0.704059
20
1.136127
30
0.0
11
0.711369
21
1.131906
31
0.0
0
LINE
8
FRONT
10
0.711369
20
1.131906
30
0.0
11
0.719064
21
1.128434
31
0.0
0
LINE
8
FRONT
10
0.719064
20
1.128434
30
0.0
11
0.727066
21
1.125746
31
0.0
0
LINE
8
FRONT
10
0.727066
20
1.125746
30
0.0
11
0.735296
21
1.123867
31
0.0
0
LINE
8
FRONT
10
0.735296
20
1.123867
30
0.0
11
0.743672
21
1.122817
31
0.0
0
LINE
8
FRONT
10
0.743672
20
1.122817
30
0.0
11
0.752111
21
1.122607
31
0.0
0
LINE
8
FRONT
10
0.752111
20
1.122607
30
0.0
11
0.760529
21
1.123238
31
0.0
0
LINE
8
FRONT
10
0.760529
20
1.123238
30
0.0
11
0.768842
21
1.124704
31
0.0
0
LINE
8
FRONT
10
0.768842
20
1.124704
30
0.0
11
0.776969
21
1.126990
31
0.0
0
LINE
8
FRONT
10
0.776969
20
1.126990
30
0.0
11
0.784827
21
1.130074
31
0.0
0
LINE
8
FRONT
10
0.784827
20
1.130074
30
0.0
11
0.792339
21
1.133925
31
0.0
0
LINE
8
FRONT
10
0.792339
20
1.133925
30
0.0
11
0.799430
21
1.138505
31
0.0
0
LINE
8
FRONT
10
0.799430
20
1.138505
30
0.0
11
0.806030
21
1.143769
31
0.0
0
LINE
8
FRONT
10
0.806030
20
1.143769
30
0.0
11
0.812073
21
1.149663
31
0.0
0
LINE
8
FRONT
10
0.812073
20
1.149663
30
0.0
11
0.817499
21
1.156129
31
0.0
0
LINE
8
FRONT
10
0.817499
20
1.156129
30
0.0
11
0.822254
21
1.163104
31
0.0
0
LINE
8
FRONT
10
0.822254
20
1.163104
30
0.0
11
0.826292
21
1.170518
31
0.0
0
LINE
8
FRONT
10
0.826292
20
1.170518
30
0.0
11
0.829571
21
1.178297
31
0.0
0
LINE
8
FRONT
10
0.829571
20
1.178297
30
0.0
11
0.832059
21
1.186363
31
0.0
0
LINE
8
FRONT
10
0.832059
20
1.186363
30
0.0
11
0.833732
21
1.194638
31
0.0
0
LINE
8
FRONT
10
0.833732
20
1.194638
30
0.0
11
0.834572
21
1.203037
31
0.0
0
LINE
8
FRONT
10
0.834572
20
1.203037
30
0.0
11
0.834572
21
1.211479
31
0.0
0
LINE
8
FRONT
10
0.834572
20
1.211479
30
0.0
11
0.833732
21
1.219879
31
0.0
0
LINE
8
FRONT
10
0.833732
20
1.219879
30
0.0
11
0.832059
21
1.228153
31
0.0
0
LINE
8
FRONT
10
0.832059
20
1.228153
30
0.0
11
0.829571
21
1.236219
31
0.0
0
LINE
8
FRONT
10
0.829571
20
1.236219
30
0.0
11
0.826292
21
1.243998
31
0.0
0
LINE
8
FRONT
10
0.826292
20
1.243998
30
0.0
11
0.822254
21
1.251412
31
0.0
0
LINE
8
FRONT
10
0.822254
20
1.251412
30
0.0
11
0.817499
21
1.258387
31
0.0
0
LINE
8
FRONT
10
0.817499
20
1.258387
30
0.0
11
0.812073
21
1.264853
31
0.0
0
LINE
8
FRONT
10
0.812073
20
1.264853
30
0.0
11
0.806030
21
1.270748
31
0.0
0
LINE
8
FRONT
10
0.806030
20
1.270748
30
0.0
11
0.799430
21
1.276011
31
0.0
0
LINE
8
FRONT
10
0.799430
20
1.276011
30
0.0
11
0.792339
21
1.280591
31
0.0
0
LINE
8
FRONT
10
0.792339
20
1.280591
30
0.0
11
0.784827
21
1.284442
31
0.0
0
LINE
8
FRONT
10
0.784827
20
1.284442
30
0.0
11
0.776969
21
1.287526
31
0.0
0
LINE
8
FRONT
10
0.776969
20
1.287526
30
0.0
11
0.768842
21
1.289812
31
0.0
0
LINE
8
FRONT
10
0.768842
20
1.289812
30
0.0
11
0.760529
21
1.291278
31
0.0
0
LINE
8
FRONT
10
0.760529
20
1.291278
30
0.0
11
0.752111
21
1.291909
31
0.0
0
LINE
8
FRONT
10
0.752111
20
1.291909
30
0.0
11
0.743672
21
1.291699
31
0.0
0
LINE
8
FRONT
10
0.743672
20
1.291699
30
0.0
11
0.735296
21
1.290649
31
0.0
0
LINE
8
FRONT
10
0.735296
20
1.290649
30
0.0
11
0.727066
21
1.288771
31
0.0
0
LINE
8
FRONT
10
0.727066
20
1.288771
30
0.0
11
0.719064
21
1.286082
31
0.0
0
LINE
8
FRONT
10
0.719064
20
1.286082
30
0.0
11
0.711369
21
1.282610
31
0.0
0
LINE
8
FRONT
10
0.711369
20
1.282610
30
0.0
11
0.704059
21
1.278389
31
0.0
0
LINE
8
FRONT
10
0.704059
20
1.278389
30
0.0
11
0.697204
21
1.273462
31
0.0
0
LINE
8
FRONT
10
0.697204
20
1.273462
30
0.0
11
0.690875
21
1.267876
31
0.0
0
LINE
8
FRONT
10
0.690875
20
1.267876
30
0.0
11
0.685133
21
1.261688
31
0.0
0
LINE
8
FRONT
10
0.685133
20
1.261688
30
0.0
11
0.680036
21
1.254959
31
0.0
0
LINE
8
FRONT
10
0.680036
20
1.254959
30
0.0
11
0.675634
21
1.247755
31
0.0
0
LINE
8
FRONT
10
0.675634
20
1.247755
30
0.0
11
0.671972
21
1.240150
31
0.0
0
LINE
8
FRONT
10
0.671972
20
1.240150
30
0.0
11
0.669085
21
1.232217
31
0.0
0
LINE
8
FRONT
10
0.669085
20
1.232217
30
0.0
11
0.667002
21
1.224037
31
0.0
0
LINE
8
FRONT
10
0.667002
20
1.224037
30
0.0
11
0.665743
21
1.215689
31
0.0
0
LINE
8
FRONT
10
0.665743
20
1.215689
30
0.0
11
0.665323
21
1.207258
31
0.0
0
LINE
8
FRONT
10
1.028226
20
1.207258
30
0.0
11
1.028647
21
1.198827
31
0.0
0
LINE
8
FRONT
10
1.028647
20
1.198827
30
0.0
11
1.029905
21
1.190480
31
0.0
0
LINE
8
FRONT
10
1.029905
20
1.190480
30
0.0
11
1.031988
21
1.182299
31
0.0
0
LINE
8
FRONT
10
1.031988
20
1.182299
30
0.0
11
1.034875
21
1.174366
31
0.0
0
LINE
8
FRONT
10
1.034875
20
1.174366
30
0.0
11
1.038538
21
1.166761
31
0.0
0
LINE
8
FRONT
10
1.038538
20
1.166761
30
0.0
11
1.042939
21
1.159558
31
0.0
0
LINE
8
FRONT
10
1.042939
20
1.159558
30
0.0
11
1.048037
21
1.152828
31
0.0
0
LINE
8
FRONT
10
1.048037
20
1.152828
30
0.0
11
1.053778
21
1.146640
31
0.0
0
LINE
8
FRONT
10
1.053778
20
1.146640
30
0.0
11
1.060108
21
1.141055
31
0.0
0
LINE
8
FRONT
10
1.060108
20
1.141055
30
0.0
11
1.066962
21
1.136127
31
0.0
0
LINE
8
FRONT
10
1.066962
20
1.136127
30
0.0
11
1.074272
21
1.131906
31
0.0
0
LINE
8
FRONT
10
1.074272
20
1.131906
30
0.0
11
1.081967
21
1.128434
31
0.0
0
LINE
8
FRONT
10
1.081967
20
1.128434
30
0.0
11
1.089969
21
1.125746
31
0.0
0
LINE
8
FRONT
10
1.089969
20
1.125746
30
0.0
11
1.098199
21
1.123867
31
0.0
0
LINE
8
FRONT
10
1.098199
20
1.123867
30
0.0
11
1.106575
21
1.122817
31
0.0
0
LINE
8
FRONT
10
1.106575
20
1.122817
30
0.0
11
1.115014
21
1.122607
31
0.0
0
LINE
8
FRONT
10
1.115014
20
1.122607
30
0.0
11
1.123432
21
1.123238
31
0.0
0
LINE
8
FRONT
10
1.123432
20
1.123238
30
0.0
11
1.131746
21
1.124704
31
0.0
0
LINE
8
FRONT
10
1.131746
20
1.124704
30
0.0
11
1.139872
21
1.126990
31
0.0
0
LINE
8
FRONT
10
1.139872
20
1.126990
30
0.0
11
1.147730
21
1.130074
31
0.0
0
LINE
8
FRONT
10
1.147730
20
1.130074
30
0.0
11
1.155242
21
1.133925
31
0.0
0
LINE
8
FRONT
10
1.155242
20
1.133925
30
0.0
11
1.162333
21
1.138505
31
0.0
0
LINE
8
FRONT
10
1.162333
20
1.138505
30
0.0
11
1.168933
21
1.143769
31
0.0
0
LINE
8
FRONT
10
1.168933
20
1.143769
30
0.0
11
1.174976
21
1.149663
31
0.0
0
LINE
8
FRONT
10
1.174976
20
1.149663
30
0.0
11
1.180402
21
1.156129
31
0.0
0
LINE
8
FRONT
10
1.180402
20
1.156129
30
0.0
11
1.185158
21
1.163104
31
0.0
0
LINE
8
FRONT
10
1.185158
20
1.163104
30
0.0
11
1.189195
21
1.170518
31
0.0
0
LINE
8
FRONT
10
1.189195
20
1.170518
30
0.0
11
1.192474
21
1.178297
31
0.0
0
LINE
8
FRONT
10
1.192474
20
1.178297
30
0.0
11
1.194962
21
1.186363
31
0.0
0
LINE
8
FRONT
10
1.194962
20
1.186363
30
0.0
11
1.196635
21
1.194638
31
0.0
0
LINE
8
FRONT
10
1.196635
20
1.194638
30
0.0
11
1.197475
21
1.203037
31
0.0
0
LINE
8
FRONT
10
1.197475
20
1.203037
30
0.0
11
1.197475
21
1.211479
31
0.0
0
LINE
8
FRONT
10
1.197475
20
1.211479
30
0.0
11
1.196635
21
1.219879
31
0.0
0
LINE
8
FRONT
10
1.196635
20
1.219879
30
0.0
11
1.194962
21
1.228153
31
0.0
0
LINE
8
FRONT
10
1.194962
20
1.228153
30
0.0
11
1.192474
21
1.236219
31
0.0
0
LINE
8
FRONT
10
1.192474
20
1.236219
30
0.0
11
1.189195
21
1.243998
31
0.0
0
LINE
8
FRONT
10
1.189195
20
1.243998
30
0.0
11
1.185158
21
1.251412
31
0.0
0
LINE
8
FRONT
10
1.185158
20
1.251412
30
0.0
11
1.180402
21
1.258387
31
0.0
0
LINE
8
FRONT
10
1.180402
20
1.258387
30
0.0
11
1.174976
21
1.264853
31
0.0
0
LINE
8
FRONT
10
1.174976
20
1.264853
30
0.0
11
1.168933
21
1.270748
31
0.0
0
LINE
8
FRONT
10
1.168933
20
1.270748
30
0.0
11
1.162333
21
1.276011
31
0.0
0
LINE
8
FRONT
10
1.162333
20
1.276011
30
0.0
11
1.155242
21
1.280591
31
0.0
0
LINE
8
FRONT
10
1.155242
20
1.280591
30
0.0
11
1.147730
21
1.284442
31
0.0
0
LINE
8
FRONT
10
1.147730
20
1.284442
30
0.0
11
1.139872
21
1.287526
31
0.0
0
LINE
8
FRONT
10
1.139872
20
1.287526
30
0.0
11
1.131746
21
1.289812
31
0.0
0
LINE
8
FRONT
10
1.131746
20
1.289812
30
0.0
11
1.123432
21
1.291278
31
0.0
0
LINE
8
FRONT
10
1.123432
20
1.291278
30
0.0
11
1.115014
21
1.291909
31
0.0
0
LINE
8
FRONT
10
1.115014
20
1.291909
30
0.0
11
1.106575
21
1.291699
31
0.0
0
LINE
8
FRONT
10
1.106575
20
1.291699
30
0.0
11
1.098199
21
1.290649
31
0.0
0
LINE
8
FRONT
10
1.098199
20
1.290649
30
0.0
11
1.089969
21
1.288771
31
0.0
0
LINE
8
FRONT
10
1.089969
20
1.288771
30
0.0
11
1.081967
21
1.286082
31
0.0
0
LINE
8
FRONT
10
1.081967
20
1.286082
30
0.0
11
1.074272
21
1.282610
31
0.0
0
LINE
8
FRONT
10
1.074272
20
1.282610
30
0.0
11
1.066962
21
1.278389
31
0.0
0
LINE
8
FRONT
10
1.066962
20
1.278389
30
0.0
11
1.060108
21
1.273462
31
0.0
0
LINE
8
FRONT
10
1.060108
20
1.273462
30
0.0
11
1.053778
21
1.267876
31
0.0
0
LINE
8
FRONT
10
1.053778
20
1.267876
30
0.0
11
1.048037
21
1.261688
31
0.0
0
LINE
8
FRONT
10
1.048037
20
1.261688
30
0.0
11
1.042939
21
1.254959
31
0.0
0
LINE
8
FRONT
10
1.042939
20
1.254959
30
0.0
11
1.038538
21
1.247755
31
0.0
0
LINE
8
FRONT
10
1.038538
20
1.247755
30
0.0
11
1.034875
21
1.240150
31
0.0
0
LINE
8
FRONT
10
1.034875
20
1.240150
30
0.0
11
1.031988
21
1.232217
31
0.0
0
LINE
8
FRONT
10
1.031988
20
1.232217
30
0.0
11
1.029905
21
1.224037
31
0.0
0
LINE
8
FRONT
10
1.029905
20
1.224037
30
0.0
11
1.028647
21
1.215689
31
0.0
0
LINE
8
FRONT
10
1.028647
20
1.215689
30
0.0
11
1.028226
21
1.207258
31
0.0
0
LINE
8
FRONT
10
1.451613
20
1.509677
30
0.0
11
1.451613
21
0.953226
31
0.0
0
LINE
8
FRONT
10
1.451613
20
0.953226
30
0.0
11
0.048387
21
0.953226
31
0.0
0
LINE
8
FRONT
10
0.048387
20
1.509677
30
0.0
11
0.048387
21
0.953226
31
0.0
0
LINE
8
FRONT_HID
6
HIDDEN
10
0.000000
20
1.509677
30
0.0
11
1.500000
21
1.509677
31
0.0
0
LINE
8
LEFT
10
2.404839
20
0.904839
30
0.0
11
2.404839
21
1.509677
31
0.0
0
LINE
8
LEFT
10
1.800000
20
0.904839
30
0.0
11
1.800000
21
1.509677
31
0.0
0
LINE
8
LEFT
10
1.800000
20
1.509677
30
0.0
11
2.404839
21
1.509677
31
0.0
0
LINE
8
LEFT
10
1.800000
20
0.904839
30
0.0
11
2.404839
21
0.904839
31
0.0
0
LINE
8
LEFT_HID
6
HIDDEN
10
2.404839
20
1.207258
30
0.0
11
2.404839
21
1.122581
31
0.0
0
LINE
8
LEFT_HID
6
HIDDEN
10
2.404839
20
1.122581
30
0.0
11
2.404839
21
1.291935
31
0.0
0
LINE
8
LEFT_HID
6
HIDDEN
10
2.404839
20
1.291935
30
0.0
11
2.404839
21
1.207258
31
0.0
0
LINE
8
LEFT_HID
6
HIDDEN
10
2.404839
20
1.207258
30
0.0
11
2.404839
21
1.122581
31
0.0
0
LINE
8
LEFT_HID
6
HIDDEN
10
2.404839
20
1.122581
30
0.0
11
2.404839
21
1.291935
31
0.0
0
LINE
8
LEFT_HID
6
HIDDEN
10
2.404839
20
1.291935
30
0.0
11
2.404839
21
1.207258
31
0.0
0
LINE
8
LEFT_HID
6
HIDDEN
10
2.404839
20
1.207258
30
0.0
11
2.404839
21
1.122581
31
0.0
0
LINE
8
LEFT_HID
6
HIDDEN
10
2.404839
20
1.122581
30
0.0
11
2.404839
21
1.291935
31
0.0
0
LINE
8
LEFT_HID
6
HIDDEN
10
2.404839
20
1.291935
30
0.0
11
2.404839
21
1.207258
31
0.0
0
LINE
8
LEFT_HID
6
HIDDEN
10
2.356452
20
1.509677
30
0.0
11
1.800000
21
1.509677
31
0.0
0
LINE
8
LEFT_HID
6
HIDDEN
10
1.800000
20
1.509677
30
0.0
11
2.356452
21
1.509677
31
0.0
0
LINE
8
LEFT_HID
6
HIDDEN
10
2.356452
20
1.207258
30
0.0
11
2.356452
21
1.122581
31
0.0
0
LINE
8
LEFT_HID
6
HIDDEN
10
2.356452
20
1.122581
30
0.0
11
2.356452
21
1.291935
31
0.0
0
LINE
8
LEFT_HID
6
HIDDEN
10
2.356452
20
1.291935
30
0.0
11
2.356452
21
1.207258
31
0.0
0
LINE
8
LEFT_HID
6
HIDDEN
10
2.356452
20
1.207258
30
0.0
11
2.356452
21
1.122581
31
0.0
0
LINE
8
LEFT_HID
6
HIDDEN
10
2.356452
20
1.122581
30
0.0
11
2.356452
21
1.291935
31
0.0
0
LINE
8
LEFT_HID
6
HIDDEN
10
2.356452
20
1.291935
30
0.0
11
2.356452
21
1.207258
31
0.0
0
LINE
8
LEFT_HID
6
HIDDEN
10
2.356452
20
1.207258
30
0.0
11
2.356452
21
1.122581
31
0.0
0
LINE
8
LEFT_HID
6
HIDDEN
10
2.356452
20
1.122581
30
0.0
11
2.356452
21
1.291935
31
0.0
0
LINE
8
LEFT_HID
6
HIDDEN
10
2.356452
20
1.291935
30
0.0
11
2.356452
21
1.207258
31
0.0
0
LINE
8
LEFT_HID
6
HIDDEN
10
1.800000
20
1.509677
30
0.0
11
1.800000
21
0.953226
31
0.0
0
LINE
8
LEFT_HID
6
HIDDEN
10
1.800000
20
1.509677
30
0.0
11
1.800000
21
0.953226
31
0.0
0
LINE
8
LEFT_HID
6
HIDDEN
10
1.800000
20
0.953226
30
0.0
11
2.356452
21
0.953226
31
0.0
0
LINE
8
LEFT_HID
6
HIDDEN
10
2.356452
20
1.509677
30
0.0
11
2.356452
21
0.953226
31
0.0
0
LINE
8
LEFT_HID
6
HIDDEN
10
2.356452
20
1.509677
30
0.0
11
2.356452
21
0.953226
31
0.0
0
LINE
8
LEFT_HID
6
HIDDEN
10
2.356452
20
0.953226
30
0.0
11
1.800000
21
0.953226
31
0.0
0
LINE
8
LEFT_HID
6
HIDDEN
10
2.356452
20
1.122581
30
0.0
11
2.404839
21
1.122581
31
0.0
0
LINE
8
LEFT_HID
6
HIDDEN
10
2.356452
20
1.291935
30
0.0
11
2.404839
21
1.291935
31
0.0
0
LINE
8
LEFT_HID
6
HIDDEN
10
2.356452
20
1.122581
30
0.0
11
2.404839
21
1.122581
31
0.0
0
LINE
8
LEFT_HID
6
HIDDEN
10
2.356452
20
1.291935
30
0.0
11
2.404839
21
1.291935
31
0.0
0
LINE
8
LEFT_HID
6
HIDDEN
10
2.356452
20
1.122581
30
0.0
11
2.404839
21
1.122581
31
0.0
0
LINE
8
LEFT_HID
6
HIDDEN
10
2.356452
20
1.291935
30
0.0
11
2.404839
21
1.291935
31
0.0
0
LINE
8
TOP
10
0.000000
20
0.000000
30
0.0
11
1.500000
21
0.000000
31
0.0
0
LINE
8
TOP
10
0.000000
20
0.604839
30
0.0
11
0.000000
21
0.000000
31
0.0
0
LINE
8
TOP
10
1.500000
20
0.000000
30
0.0
11
1.500000
21
0.604839
31
0.0
0
LINE
8
TOP
10
1.500000
20
0.604839
30
0.0
11
1.451613
21
0.604839
31
0.0
0
LINE
8
TOP
10
1.451613
20
0.048387
30
0.0
11
1.451613
21
0.604839
31
0.0
0
LINE
8
TOP
10
0.048387
20
0.048387
30
0.0
11
1.451613
21
0.048387
31
0.0
0
LINE
8
TOP
10
0.048387
20
0.604839
30
0.0
11
0.048387
21
0.048387
31
0.0
0
LINE
8
TOP
10
0.048387
20
0.604839
30
0.0
11
0.000000
21
0.604839
31
0.0
0
LINE
8
TOP
10
1.451613
20
0.604839
30
0.0
11
0.048387
21
0.604839
31
0.0
0
LINE
8
TOP_HID
6
HIDDEN
10
0.302419
20
0.000000
30
0.0
11
0.471774
21
0.000000
31
0.0
0
LINE
8
TOP_HID
6
HIDDEN
10
0.471774
20
0.000000
30
0.0
11
0.302419
21
0.000000
31
0.0
0
LINE
8
TOP_HID
6
HIDDEN
10
0.665323
20
0.000000
30
0.0
11
0.834677
21
0.000000
31
0.0
0
LINE
8
TOP_HID
6
HIDDEN
10
0.834677
20
0.000000
30
0.0
11
0.665323
21
0.000000
31
0.0
0
LINE
8
TOP_HID
6
HIDDEN
10
1.028226
20
0.000000
30
0.0
11
1.197581
21
0.000000
31
0.0
0
LINE
8
TOP_HID
6
HIDDEN
10
1.197581
20
0.000000
30
0.0
11
1.028226
21
0.000000
31
0.0
0
LINE
8
TOP_HID
6
HIDDEN
10
1.500000
20
0.604839
30
0.0
11
0.000000
21
0.604839
31
0.0
0
LINE
8
TOP_HID
6
HIDDEN
10
0.302419
20
0.000000
30
0.0
11
0.302419
21
0.048387
31
0.0
0
LINE
8
TOP_HID
6
HIDDEN
10
0.302419
20
0.048387
30
0.0
11
0.471774
21
0.048387
31
0.0
0
LINE
8
TOP_HID
6
HIDDEN
10
0.471774
20
0.048387
30
0.0
11
0.302419
21
0.048387
31
0.0
0
LINE
8
TOP_HID
6
HIDDEN
10
0.665323
20
0.000000
30
0.0
11
0.665323
21
0.048387
31
0.0
0
LINE
8
TOP_HID
6
HIDDEN
10
0.665323
20
0.048387
30
0.0
11
0.834677
21
0.048387
31
0.0
0
LINE
8
TOP_HID
6
HIDDEN
10
0.834677
20
0.048387
30
0.0
11
0.665323
21
0.048387
31
0.0
0
LINE
8
TOP_HID
6
HIDDEN
10
1.028226
20
0.000000
30
0.0
11
1.028226
21
0.048387
31
0.0
0
LINE
8
TOP_HID
6
HIDDEN
10
1.028226
20
0.048387
30
0.0
11
1.197581
21
0.048387
31
0.0
0
LINE
8
TOP_HID
6
HIDDEN
10
1.197581
20
0.048387
30
0.0
11
1.028226
21
0.048387
31
0.0
0
LINE
8
TOP_HID
6
HIDDEN
10
0.471774
20
0.048387
30
0.0
11
0.471774
21
0.000000
31
0.0
0
LINE
8
TOP_HID
6
HIDDEN
10
0.834677
20
0.048387
30
0.0
11
0.834677
21
0.000000
31
0.0
0
LINE
8
TOP_HID
6
HIDDEN
10
1.197581
20
0.048387
30
0.0
11
1.197581
21
0.000000
31
0.0
0
ENDSEC
0
EOF
