0
SECTION
2
HEADER
9
$ACADVER
1
AC1009
0
ENDSEC
0
SECTION
2
TABLES
0
TABLE
2
LTYPE
70
3
0
LTYPE
2
CONTINUOUS
70
0
3
Solid line
72
65
73
0
40
0.0
0
LTYPE
2
HIDDEN
70
0
3
__ __ __ __ __
72
65
73
2
40
0.039252
49
0.026181
49
-0.013071
0
LTYPE
2
CENTER
70
0
3
___ _ ___ _ ___
72
65
73
4
40
0.091576
49
0.052323
49
-0.013071
49
0.013071
49
-0.013071
0
ENDTAB
0
TABLE
2
LAYER
70
6
0
LAYER
2
0
70
0
62
7
6
CONTINUOUS
0
LAYER
2
FRONT
70
0
62
7
6
CONTINUOUS
0
LAYER
2
LEFT
70
0
62
7
6
CONTINUOUS
0
LAYER
2
LEFT_HID
70
0
62
7
6
HIDDEN
0
LAYER
2
TOP
70
0
62
7
6
CONTINUOUS
0
LAYER
2
TOP_HID
70
0
62
7
6
HIDDEN
0
ENDTAB
0
ENDSEC
0
SECTION
2
ENTITIES
0
LINE
8
FRONT
10
0.159929
20
0.794860
30
0.0
11
0.345075
21
0.794860
31
0.0
0
LINE
8
FRONT
10
0.129735
20
0.402336
30
0.0
11
0.159929
21
0.794860
31
0.0
0
LINE
8
FRONT
10
0.345075
20
0.794860
30
0.0
11
0.375270
21
0.402336
31
0.0
0
LINE
8
FRONT
10
0.336449
20
0.907009
30
0.0
11
0.168556
21
0.907009
31
0.0
0
LINE
8
FRONT
10
0.375270
20
0.402336
30
0.0
11
0.129735
21
0.402336
31
0.0
0
LINE
8
FRONT
10
0.000000
20
0.178037
30
0.0
11
0.112481
21
0.178037
31
0.0
0
LINE
8
FRONT
10
0.112481
20
0.178037
30
0.0
11
0.121108
21
0.290187
31
0.0
0
LINE
8
FRONT
10
0.168556
20
0.907009
30
0.0
11
0.056075
21
0.907009
31
0.0
0
LINE
8
FRONT
10
0.056075
20
0.907009
30
0.0
11
0.000000
21
0.178037
31
0.0
0
LINE
8
FRONT
10
0.383896
20
0.290187
30
0.0
11
0.392523
21
0.178037
31
0.0
0
LINE
8
FRONT
10
0.392523
20
0.178037
30
0.0
11
0.505004
21
0.178037
31
0.0
0
LINE
8
FRONT
10
0.496377
20
0.290187
30
0.0
11
0.481280
21
0.486449
31
0.0
0
LINE
8
FRONT
10
0.472653
20
0.598598
30
0.0
11
0.457556
21
0.794860
31
0.0
0
LINE
8
FRONT
10
0.448929
20
0.907009
30
0.0
11
0.336449
21
0.907009
31
0.0
0
LINE
8
FRONT
10
0.121108
20
0.290187
30
0.0
11
0.383896
21
0.290187
31
0.0
0
LINE
8
FRONT
10
0.505004
20
0.178037
30
0.0
11
0.785047
21
0.178037
31
0.0
0
LINE
8
FRONT
10
0.785047
20
0.178037
30
0.0
11
0.776420
21
0.290187
31
0.0
0
LINE
8
FRONT
10
0.776420
20
0.290187
30
0.0
11
0.496377
21
0.290187
31
0.0
0
LINE
8
FRONT
10
0.481280
20
0.486449
30
0.0
11
0.761323
21
0.486449
31
0.0
0
LINE
8
FRONT
10
0.761323
20
0.486449
30
0.0
11
0.752696
21
0.598598
31
0.0
0
LINE
8
FRONT
10
0.752696
20
0.598598
30
0.0
11
0.472653
21
0.598598
31
0.0
0
LINE
8
FRONT
10
0.457556
20
0.794860
30
0.0
11
0.737599
21
0.794860
31
0.0
0
LINE
8
FRONT
10
0.737599
20
0.794860
30
0.0
11
0.728972
21
0.907009
31
0.0
0
LINE
8
FRONT
10
0.728972
20
0.907009
30
0.0
11
0.448929
21
0.907009
31
0.0
0
LINE
8
LEFT
10
0.942056
20
0.907009
30
0.0
11
0.942056
21
0.178037
31
0.0
0
LINE
8
LEFT
10
0.963084
20
0.907009
30
0.0
11
0.963084
21
0.178037
31
0.0
0
LINE
8
LEFT
10
0.942056
20
0.178037
30
0.0
11
0.963084
21
0.178037
31
0.0
0
LINE
8
LEFT
10
0.942056
20
0.907009
30
0.0
11
0.963084
21
0.907009
31
0.0
0
LINE
8
LEFT_HID
6
HIDDEN
10
0.942056
20
0.794860
30
0.0
11
0.963084
21
0.794860
31
0.0
0
LINE
8
LEFT_HID
6
HIDDEN
10
0.942056
20
0.794860
30
0.0
11
0.963084
21
0.794860
31
0.0
0
LINE
8
LEFT_HID
6
HIDDEN
10
0.942056
20
0.402336
30
0.0
11
0.963084
21
0.402336
31
0.0
0
LINE
8
LEFT_HID
6
HIDDEN
10
0.963084
20
0.402336
30
0.0
11
0.963084
21
0.794860
31
0.0
0
LINE
8
LEFT_HID
6
HIDDEN
10
0.942056
20
0.402336
30
0.0
11
0.942056
21
0.794860
31
0.0
0
LINE
8
LEFT_HID
6
HIDDEN
10
0.963084
20
0.794860
30
0.0
11
0.963084
21
0.402336
31
0.0
0
LINE
8
LEFT_HID
6
HIDDEN
10
0.942056
20
0.402336
30
0.0
11
0.963084
21
0.402336
31
0.0
0
LINE
8
LEFT_HID
6
HIDDEN
10
0.942056
20
0.794860
30
0.0
11
0.942056
21
0.402336
31
0.0
0
LINE
8
LEFT_HID
6
HIDDEN
10
0.942056
20
0.907009
30
0.0
11
0.942056
21
0.794860
31
0.0
0
LINE
8
LEFT_HID
6
HIDDEN
10
0.942056
20
0.794860
30
0.0
11
0.942056
21
0.907009
31
0.0
0
LINE
8
LEFT_HID
6
HIDDEN
10
0.963084
20
0.907009
30
0.0
11
0.963084
21
0.794860
31
0.0
0
LINE
8
LEFT_HID
6
HIDDEN
10
0.963084
20
0.794860
30
0.0
11
0.963084
21
0.907009
31
0.0
0
LINE
8
LEFT_HID
6
HIDDEN
10
0.942056
20
0.178037
30
0.0
11
0.942056
21
0.290187
31
0.0
0
LINE
8
LEFT_HID
6
HIDDEN
10
0.942056
20
0.402336
30
0.0
11
0.942056
21
0.290187
31
0.0
0
LINE
8
LEFT_HID
6
HIDDEN
10
0.963084
20
0.178037
30
0.0
11
0.963084
21
0.290187
31
0.0
0
LINE
8
LEFT_HID
6
HIDDEN
10
0.963084
20
0.402336
30
0.0
11
0.963084
21
0.290187
31
0.0
0
LINE
8
LEFT_HID
6
HIDDEN
10
0.942056
20
0.290187
30
0.0
11
0.942056
21
0.402336
31
0.0
0
LINE
8
LEFT_HID
6
HIDDEN
10
0.942056
20
0.290187
30
0.0
11
0.942056
21
0.178037
31
0.0
0
LINE
8
LEFT_HID
6
HIDDEN
10
0.942056
20
0.290187
30
0.0
11
0.942056
21
0.178037
31
0.0
0
LINE
8
LEFT_HID
6
HIDDEN
10
0.942056
20
0.290187
30
0.0
11
0.942056
21
0.486449
31
0.0
0
LINE
8
LEFT_HID
6
HIDDEN
10
0.942056
20
0.598598
30
0.0
11
0.942056
21
0.486449
31
0.0
0
LINE
8
LEFT_HID
6
HIDDEN
10
0.942056
20
0.598598
30
0.0
11
0.942056
21
0.794860
31
0.0
0
LINE
8
LEFT_HID
6
HIDDEN
10
0.942056
20
0.907009
30
0.0
11
0.942056
21
0.794860
31
0.0
0
LINE
8
LEFT_HID
6
HIDDEN
10
0.963084
20
0.290187
30
0.0
11
0.963084
21
0.402336
31
0.0
0
LINE
8
LEFT_HID
6
HIDDEN
10
0.963084
20
0.290187
30
0.0
11
0.963084
21
0.178037
31
0.0
0
LINE
8
LEFT_HID
6
HIDDEN
10
0.963084
20
0.290187
30
0.0
11
0.963084
21
0.178037
31
0.0
0
LINE
8
LEFT_HID
6
HIDDEN
10
0.963084
20
0.290187
30
0.0
11
0.963084
21
0.486449
31
0.0
0
LINE
8
LEFT_HID
6
HIDDEN
10
0.963084
20
0.598598
30
0.0
11
0.963084
21
0.486449
31
0.0
0
LINE
8
LEFT_HID
6
HIDDEN
10
0.963084
20
0.598598
30
0.0
11
0.963084
21
0.794860
31
0.0
0
LINE
8
LEFT_HID
6
HIDDEN
10
0.963084
20
0.907009
30
0.0
11
0.963084
21
0.794860
31
0.0
0
LINE
8
LEFT_HID
6
HIDDEN
10
0.942056
20
0.290187
30
0.0
11
0.963084
21
0.290187
31
0.0
0
LINE
8
LEFT_HID
6
HIDDEN
10
0.942056
20
0.290187
30
0.0
11
0.963084
21
0.290187
31
0.0
0
LINE
8
LEFT_HID
6
HIDDEN
10
0.942056
20
0.178037
30
0.0
11
0.942056
21
0.290187
31
0.0
0
LINE
8
LEFT_HID
6
HIDDEN
10
0.942056
20
0.290187
30
0.0
11
0.963084
21
0.290187
31
0.0
0
LINE
8
LEFT_HID
6
HIDDEN
10
0.942056
20
0.486449
30
0.0
11
0.963084
21
0.486449
31
0.0
0
LINE
8
LEFT_HID
6
HIDDEN
10
0.942056
20
0.486449
30
0.0
11
0.942056
21
0.598598
31
0.0
0
LINE
8
LEFT_HID
6
HIDDEN
10
0.942056
20
0.598598
30
0.0
11
0.963084
21
0.598598
31
0.0
0
LINE
8
LEFT_HID
6
HIDDEN
10
0.942056
20
0.794860
30
0.0
11
0.963084
21
0.794860
31
0.0
0
LINE
8
LEFT_HID
6
HIDDEN
10
0.942056
20
0.794860
30
0.0
11
0.942056
21
0.907009
31
0.0
0
LINE
8
LEFT_HID
6
HIDDEN
10
0.963084
20
0.178037
30
0.0
11
0.963084
21
0.290187
31
0.0
0
LINE
8
LEFT_HID
6
HIDDEN
10
0.963084
20
0.486449
30
0.0
11
0.963084
21
0.598598
31
0.0
0
LINE
8
LEFT_HID
6
HIDDEN
10
0.963084
20
0.794860
30
0.0
11
0.963084
21
0.907009
31
0.0
0
LINE
8
LEFT_HID
6
HIDDEN
10
0.942056
20
0.290187
30
0.0
11
0.963084
21
0.290187
31
0.0
0
LINE
8
LEFT_HID
6
HIDDEN
10
0.942056
20
0.486449
30
0.0
11
0.963084
21
0.486449
31
0.0
0
LINE
8
LEFT_HID
6
HIDDEN
10
0.942056
20
0.598598
30
0.0
11
0.963084
21
0.598598
31
0.0
0
LINE
8
LEFT_HID
6
HIDDEN
10
0.942056
20
0.794860
30
0.0
11
0.963084
21
0.794860
31
0.0
0
LINE
8
TOP
10
0.336449
20
0.021028
30
0.0
11
0.168556
21
0.021028
31
0.0
0
LINE
8
TOP
10
0.336449
20
0.000000
30
0.0
11
0.168556
21
0.000000
31
0.0
0
LINE
8
TOP
10
0.168556
20
0.021028
30
0.0
11
0.056075
21
0.021028
31
0.0
0
LINE
8
TOP
10
0.056075
20
0.021028
30
0.0
11
0.000000
21
0.021028
31
0.0
0
LINE
8
TOP
10
0.168556
20
0.000000
30
0.0
11
0.056075
21
0.000000
31
0.0
0
LINE
8
TOP
10
0.056075
20
0.000000
30
0.0
11
0.000000
21
0.000000
31
0.0
0
LINE
8
TOP
10
0.448929
20
0.021028
30
0.0
11
0.336449
21
0.021028
31
0.0
0
LINE
8
TOP
10
0.448929
20
0.000000
30
0.0
11
0.336449
21
0.000000
31
0.0
0
LINE
8
TOP
10
0.000000
20
0.021028
30
0.0
11
0.000000
21
0.000000
31
0.0
0
LINE
8
TOP
10
0.056075
20
0.021028
30
0.0
11
0.056075
21
0.000000
31
0.0
0
LINE
8
TOP
10
0.785047
20
0.021028
30
0.0
11
0.776420
21
0.021028
31
0.0
0
LINE
8
TOP
10
0.776420
20
0.021028
30
0.0
11
0.761323
21
0.021028
31
0.0
0
LINE
8
TOP
10
0.761323
20
0.021028
30
0.0
11
0.752696
21
0.021028
31
0.0
0
LINE
8
TOP
10
0.752696
20
0.021028
30
0.0
11
0.737599
21
0.021028
31
0.0
0
LINE
8
TOP
10
0.737599
20
0.021028
30
0.0
11
0.728972
21
0.021028
31
0.0
0
LINE
8
TOP
10
0.728972
20
0.021028
30
0.0
11
0.448929
21
0.021028
31
0.0
0
LINE
8
TOP
10
0.785047
20
0.000000
30
0.0
11
0.776420
21
0.000000
31
0.0
0
LINE
8
TOP
10
0.776420
20
0.000000
30
0.0
11
0.761323
21
0.000000
31
0.0
0
LINE
8
TOP
10
0.761323
20
0.000000
30
0.0
11
0.752696
21
0.000000
31
0.0
0
LINE
8
TOP
10
0.752696
20
0.000000
30
0.0
11
0.737599
21
0.000000
31
0.0
0
LINE
8
TOP
10
0.737599
20
0.000000
30
0.0
11
0.728972
21
0.000000
31
0.0
0
LINE
8
TOP
10
0.728972
20
0.000000
30
0.0
11
0.448929
21
0.000000
31
0.0
0
LINE
8
TOP
10
0.785047
20
0.021028
30
0.0
11
0.785047
21
0.000000
31
0.0
0
LINE
8
TOP
10
0.776420
20
0.021028
30
0.0
11
0.776420
21
0.000000
31
0.0
0
LINE
8
TOP
10
0.761323
20
0.021028
30
0.0
11
0.761323
21
0.000000
31
0.0
0
LINE
8
TOP
10
0.752696
20
0.021028
30
0.0
11
0.752696
21
0.000000
31
0.0
0
LINE
8
TOP
10
0.737599
20
0.021028
30
0.0
11
0.737599
21
0.000000
31
0.0
0
LINE
8
TOP
10
0.728972
20
0.021028
30
0.0
11
0.728972
21
0.000000
31
0.0
0
LINE
8
TOP_HID
6
HIDDEN
10
0.159929
20
0.021028
30
0.0
11
0.159929
21
0.000000
31
0.0
0
LINE
8
TOP_HID
6
HIDDEN
10
0.159929
20
0.000000
30
0.0
11
0.345075
21
0.000000
31
0.0
0
LINE
8
TOP_HID
6
HIDDEN
10
0.345075
20
0.021028
30
0.0
11
0.345075
21
0.000000
31
0.0
0
LINE
8
TOP_HID
6
HIDDEN
10
0.159929
20
0.021028
30
0.0
11
0.345075
21
0.021028
31
0.0
0
LINE
8
TOP_HID
6
HIDDEN
10
0.129735
20
0.021028
30
0.0
11
0.129735
21
0.000000
31
0.0
0
LINE
8
TOP_HID
6
HIDDEN
10
0.129735
20
0.000000
30
0.0
11
0.159929
21
0.000000
31
0.0
0
LINE
8
TOP_HID
6
HIDDEN
10
0.129735
20
0.021028
30
0.0
11
0.159929
21
0.021028
31
0.0
0
LINE
8
TOP_HID
6
HIDDEN
10
0.345075
20
0.000000
30
0.0
11
0.375270
21
0.000000
31
0.0
0
LINE
8
TOP_HID
6
HIDDEN
10
0.375270
20
0.021028
30
0.0
11
0.375270
21
0.000000
31
0.0
0
LINE
8
TOP_HID
6
HIDDEN
10
0.345075
20
0.021028
30
0.0
11
0.375270
21
0.021028
31
0.0
0
LINE
8
TOP_HID
6
HIDDEN
10
0.336449
20
0.021028
30
0.0
11
0.345075
21
0.021028
31
0.0
0
LINE
8
TOP_HID
6
HIDDEN
10
0.159929
20
0.021028
30
0.0
11
0.168556
21
0.021028
31
0.0
0
LINE
8
TOP_HID
6
HIDDEN
10
0.336449
20
0.000000
30
0.0
11
0.345075
21
0.000000
31
0.0
0
LINE
8
TOP_HID
6
HIDDEN
10
0.159929
20
0.000000
30
0.0
11
0.168556
21
0.000000
31
0.0
0
LINE
8
TOP_HID
6
HIDDEN
10
0.375270
20
0.000000
30
0.0
11
0.129735
21
0.000000
31
0.0
0
LINE
8
TOP_HID
6
HIDDEN
10
0.375270
20
0.021028
30
0.0
11
0.129735
21
0.021028
31
0.0
0
LINE
8
TOP_HID
6
HIDDEN
10
0.000000
20
0.021028
30
0.0
11
0.112481
21
0.021028
31
0.0
0
LINE
8
TOP_HID
6
HIDDEN
10
0.112481
20
0.021028
30
0.0
11
0.121108
21
0.021028
31
0.0
0
LINE
8
TOP_HID
6
HIDDEN
10
0.129735
20
0.021028
30
0.0
11
0.121108
21
0.021028
31
0.0
0
LINE
8
TOP_HID
6
HIDDEN
10
0.000000
20
0.000000
30
0.0
11
0.112481
21
0.000000
31
0.0
0
LINE
8
TOP_HID
6
HIDDEN
10
0.112481
20
0.000000
30
0.0
11
0.121108
21
0.000000
31
0.0
0
LINE
8
TOP_HID
6
HIDDEN
10
0.129735
20
0.000000
30
0.0
11
0.121108
21
0.000000
31
0.0
0
LINE
8
TOP_HID
6
HIDDEN
10
0.383896
20
0.021028
30
0.0
11
0.375270
21
0.021028
31
0.0
0
LINE
8
TOP_HID
6
HIDDEN
10
0.383896
20
0.021028
30
0.0
11
0.392523
21
0.021028
31
0.0
0
LINE
8
TOP_HID
6
HIDDEN
10
0.392523
20
0.021028
30
0.0
11
0.505004
21
0.021028
31
0.0
0
LINE
8
TOP_HID
6
HIDDEN
10
0.496377
20
0.021028
30
0.0
11
0.505004
21
0.021028
31
0.0
0
LINE
8
TOP_HID
6
HIDDEN
10
0.496377
20
0.021028
30
0.0
11
0.481280
21
0.021028
31
0.0
0
LINE
8
TOP_HID
6
HIDDEN
10
0.472653
20
0.021028
30
0.0
11
0.481280
21
0.021028
31
0.0
0
LINE
8
TOP_HID
6
HIDDEN
10
0.472653
20
0.021028
30
0.0
11
0.457556
21
0.021028
31
0.0
0
LINE
8
TOP_HID
6
HIDDEN
10
0.448929
20
0.021028
30
0.0
11
0.457556
21
0.021028
31
0.0
0
LINE
8
TOP_HID
6
HIDDEN
10
0.383896
20
0.000000
30
0.0
11
0.375270
21
0.000000
31
0.0
0
LINE
8
TOP_HID
6
HIDDEN
10
0.383896
20
0.000000
30
0.0
11
0.392523
21
0.000000
31
0.0
0
LINE
8
TOP_HID
6
HIDDEN
10
0.392523
20
0.000000
30
0.0
11
0.505004
21
0.000000
31
0.0
0
LINE
8
TOP_HID
6
HIDDEN
10
0.496377
20
0.000000
30
0.0
11
0.505004
21
0.000000
31
0.0
0
LINE
8
TOP_HID
6
HIDDEN
10
0.496377
20
0.000000
30
0.0
11
0.481280
21
0.000000
31
0.0
0
LINE
8
TOP_HID
6
HIDDEN
10
0.472653
20
0.000000
30
0.0
11
0.481280
21
0.000000
31
0.0
0
LINE
8
TOP_HID
6
HIDDEN
10
0.472653
20
0.000000
30
0.0
11
0.457556
21
0.000000
31
0.0
0
LINE
8
TOP_HID
6
HIDDEN
10
0.448929
20
0.000000
30
0.0
11
0.457556
21
0.000000
31
0.0
0
LINE
8
TOP_HID
6
HIDDEN
10
0.121108
20
0.021028
30
0.0
11
0.383896
21
0.021028
31
0.0
0
LINE
8
TOP_HID
6
HIDDEN
10
0.121108
20
0.000000
30
0.0
11
0.383896
21
0.000000
31
0.0
0
LINE
8
TOP_HID
6
HIDDEN
10
0.112481
20
0.021028
30
0.0
11
0.112481
21
0.000000
31
0.0
0
LINE
8
TOP_HID
6
HIDDEN
10
0.121108
20
0.021028
30
0.0
11
0.121108
21
0.000000
31
0.0
0
LINE
8
TOP_HID
6
HIDDEN
10
0.383896
20
0.021028
30
0.0
11
0.383896
21
0.000000
31
0.0
0
LINE
8
TOP_HID
6
HIDDEN
10
0.392523
20
0.021028
30
0.0
11
0.392523
21
0.000000
31
0.0
0
LINE
8
TOP_HID
6
HIDDEN
10
0.505004
20
0.021028
30
0.0
11
0.785047
21
0.021028
31
0.0
0
LINE
8
TOP_HID
6
HIDDEN
10
0.761323
20
0.021028
30
0.0
11
0.496377
21
0.021028
31
0.0
0
LINE
8
TOP_HID
6
HIDDEN
10
0.496377
20
0.021028
30
0.0
11
0.496377
21
0.000000
31
0.0
0
LINE
8
TOP_HID
6
HIDDEN
10
0.481280
20
0.021028
30
0.0
11
0.481280
21
0.000000
31
0.0
0
LINE
8
TOP_HID
6
HIDDEN
10
0.481280
20
0.021028
30
0.0
11
0.761323
21
0.021028
31
0.0
0
LINE
8
TOP_HID
6
HIDDEN
10
0.737599
20
0.021028
30
0.0
11
0.472653
21
0.021028
31
0.0
0
LINE
8
TOP_HID
6
HIDDEN
10
0.472653
20
0.021028
30
0.0
11
0.472653
21
0.000000
31
0.0
0
LINE
8
TOP_HID
6
HIDDEN
10
0.457556
20
0.021028
30
0.0
11
0.457556
21
0.000000
31
0.0
0
LINE
8
TOP_HID
6
HIDDEN
10
0.457556
20
0.021028
30
0.0
11
0.737599
21
0.021028
31
0.0
0
LINE
8
TOP_HID
6
HIDDEN
10
0.505004
20
0.000000
30
0.0
11
0.785047
21
0.000000
31
0.0
0
LINE
8
TOP_HID
6
HIDDEN
10
0.761323
20
0.000000
30
0.0
11
0.496377
21
0.000000
31
0.0
0
LINE
8
TOP_HID
6
HIDDEN
10
0.481280
20
0.000000
30
0.0
11
0.761323
21
0.000000
31
0.0
0
LINE
8
TOP_HID
6
HIDDEN
10
0.737599
20
0.000000
30
0.0
11
0.472653
21
0.000000
31
0.0
0
LINE
8
TOP_HID
6
HIDDEN
10
0.457556
20
0.000000
30
0.0
11
0.737599
21
0.000000
31
0.0
0
ENDSEC
0
EOF
