0
SECTION
2
HEADER
9
$ACADVER
1
AC1009
0
ENDSEC
0
SECTION
2
TABLES
0
TABLE
2
LTYPE
70
3
0
LTYPE
2
CONTINUOUS
70
0
3
Solid line
72
65
73
0
40
0.0
0
LTYPE
2
HIDDEN
70
0
3
__ __ __ __ __
72
65
73
2
40
0.038527
49
0.025698
49
-0.012830
0
LTYPE
2
CENTER
70
0
3
___ _ ___ _ ___
72
65
73
4
40
0.089884
49
0.051357
49
-0.012830
49
0.012830
49
-0.012830
0
ENDTAB
0
TABLE
2
LAYER
70
6
0
LAYER
2
0
70
0
62
7
6
CONTINUOUS
0
LAYER
2
FRONT
70
0
62
7
6
CONTINUOUS
0
LAYER
2
LEFT
70
0
62
7
6
CONTINUOUS
0
LAYER
2
LEFT_HID
70
0
62
7
6
HIDDEN
0
LAYER
2
TOP
70
0
62
7
6
CONTINUOUS
0
LAYER
2
TOP_HID
70
0
62
7
6
HIDDEN
0
ENDTAB
0
ENDSEC
0
SECTION
2
ENTITIES
0
LINE
8
FRONT
10
0.011815
20
1.047907
30
0.0
11
0.012369
21
1.036808
31
0.0
0
LINE
8
FRONT
10
0.012369
20
1.036808
30
0.0
11
0.014025
21
1.025819
31
0.0
0
LINE
8
FRONT
10
0.014025
20
1.025819
30
0.0
11
0.016767
21
1.015050
31
0.0
0
LINE
8
FRONT
10
0.016767
20
1.015050
30
0.0
11
0.020568
21
1.004607
31
0.0
0
LINE
8
FRONT
10
0.020568
20
1.004607
30
0.0
11
0.025390
21
0.994595
31
0.0
0
LINE
8
FRONT
10
0.025390
20
0.994595
30
0.0
11
0.031185
21
0.985112
31
0.0
0
LINE
8
FRONT
10
0.031185
20
0.985112
30
0.0
11
0.037895
21
0.976254
31
0.0
0
LINE
8
FRONT
10
0.037895
20
0.976254
30
0.0
11
0.045453
21
0.968107
31
0.0
0
LINE
8
FRONT
10
0.045453
20
0.968107
30
0.0
11
0.053786
21
0.960754
31
0.0
0
LINE
8
FRONT
10
0.053786
20
0.960754
30
0.0
11
0.062809
21
0.954267
31
0.0
0
LINE
8
FRONT
10
0.062809
20
0.954267
30
0.0
11
0.072433
21
0.948711
31
0.0
0
LINE
8
FRONT
10
0.072433
20
0.948711
30
0.0
11
0.082562
21
0.944140
31
0.0
0
LINE
8
FRONT
10
0.082562
20
0.944140
30
0.0
11
0.093096
21
0.940601
31
0.0
0
LINE
8
FRONT
10
0.093096
20
0.940601
30
0.0
11
0.103931
21
0.938128
31
0.0
0
LINE
8
FRONT
10
0.103931
20
0.938128
30
0.0
11
0.114957
21
0.936746
31
0.0
0
LINE
8
FRONT
10
0.114957
20
0.936746
30
0.0
11
0.126067
21
0.936469
31
0.0
0
LINE
8
FRONT
10
0.126067
20
0.936469
30
0.0
11
0.137149
21
0.937299
31
0.0
0
LINE
8
FRONT
10
0.137149
20
0.937299
30
0.0
11
0.148093
21
0.939229
31
0.0
0
LINE
8
FRONT
10
0.148093
20
0.939229
30
0.0
11
0.158790
21
0.942239
31
0.0
0
LINE
8
FRONT
10
0.158790
20
0.942239
30
0.0
11
0.169135
21
0.946299
31
0.0
0
LINE
8
FRONT
10
0.169135
20
0.946299
30
0.0
11
0.179024
21
0.951369
31
0.0
0
LINE
8
FRONT
10
0.179024
20
0.951369
30
0.0
11
0.188359
21
0.957398
31
0.0
0
LINE
8
FRONT
10
0.188359
20
0.957398
30
0.0
11
0.197048
21
0.964327
31
0.0
0
LINE
8
FRONT
10
0.197048
20
0.964327
30
0.0
11
0.205003
21
0.972086
31
0.0
0
LINE
8
FRONT
10
0.205003
20
0.972086
30
0.0
11
0.212146
21
0.980599
31
0.0
0
LINE
8
FRONT
10
0.212146
20
0.980599
30
0.0
11
0.218406
21
0.989781
31
0.0
0
LINE
8
FRONT
10
0.218406
20
0.989781
30
0.0
11
0.223721
21
0.999541
31
0.0
0
LINE
8
FRONT
10
0.223721
20
0.999541
30
0.0
11
0.228038
21
1.009781
31
0.0
0
LINE
8
FRONT
10
0.228038
20
1.009781
30
0.0
11
0.231313
21
1.020400
31
0.0
0
LINE
8
FRONT
10
0.231313
20
1.020400
30
0.0
11
0.233515
21
1.031293
31
0.0
0
LINE
8
FRONT
10
0.233515
20
1.031293
30
0.0
11
0.234622
21
1.042350
31
0.0
0
LINE
8
FRONT
10
0.234622
20
1.042350
30
0.0
11
0.234622
21
1.053463
31
0.0
0
LINE
8
FRONT
10
0.234622
20
1.053463
30
0.0
11
0.233515
21
1.064521
31
0.0
0
LINE
8
FRONT
10
0.233515
20
1.064521
30
0.0
11
0.231313
21
1.075414
31
0.0
0
LINE
8
FRONT
10
0.231313
20
1.075414
30
0.0
11
0.228038
21
1.086033
31
0.0
0
LINE
8
FRONT
10
0.228038
20
1.086033
30
0.0
11
0.223721
21
1.096273
31
0.0
0
LINE
8
FRONT
10
0.223721
20
1.096273
30
0.0
11
0.218406
21
1.106033
31
0.0
0
LINE
8
FRONT
10
0.218406
20
1.106033
30
0.0
11
0.212146
21
1.115215
31
0.0
0
LINE
8
FRONT
10
0.212146
20
1.115215
30
0.0
11
0.205003
21
1.123728
31
0.0
0
LINE
8
FRONT
10
0.205003
20
1.123728
30
0.0
11
0.197048
21
1.131487
31
0.0
0
LINE
8
FRONT
10
0.197048
20
1.131487
30
0.0
11
0.188359
21
1.138416
31
0.0
0
LINE
8
FRONT
10
0.188359
20
1.138416
30
0.0
11
0.179024
21
1.144445
31
0.0
0
LINE
8
FRONT
10
0.179024
20
1.144445
30
0.0
11
0.169135
21
1.149515
31
0.0
0
LINE
8
FRONT
10
0.169135
20
1.149515
30
0.0
11
0.158790
21
1.153575
31
0.0
0
LINE
8
FRONT
10
0.158790
20
1.153575
30
0.0
11
0.148093
21
1.156585
31
0.0
0
LINE
8
FRONT
10
0.148093
20
1.156585
30
0.0
11
0.137149
21
1.158514
31
0.0
0
LINE
8
FRONT
10
0.137149
20
1.158514
30
0.0
11
0.126067
21
1.159345
31
0.0
0
LINE
8
FRONT
10
0.126067
20
1.159345
30
0.0
11
0.114957
21
1.159068
31
0.0
0
LINE
8
FRONT
10
0.114957
20
1.159068
30
0.0
11
0.103931
21
1.157686
31
0.0
0
LINE
8
FRONT
10
0.103931
20
1.157686
30
0.0
11
0.093096
21
1.155213
31
0.0
0
LINE
8
FRONT
10
0.093096
20
1.155213
30
0.0
11
0.082562
21
1.151674
31
0.0
0
LINE
8
FRONT
10
0.082562
20
1.151674
30
0.0
11
0.072433
21
1.147103
31
0.0
0
LINE
8
FRONT
10
0.072433
20
1.147103
30
0.0
11
0.062809
21
1.141547
31
0.0
0
LINE
8
FRONT
10
0.062809
20
1.141547
30
0.0
11
0.053786
21
1.135060
31
0.0
0
LINE
8
FRONT
10
0.053786
20
1.135060
30
0.0
11
0.045453
21
1.127706
31
0.0
0
LINE
8
FRONT
10
0.045453
20
1.127706
30
0.0
11
0.037895
21
1.119560
31
0.0
0
LINE
8
FRONT
10
0.037895
20
1.119560
30
0.0
11
0.031185
21
1.110702
31
0.0
0
LINE
8
FRONT
10
0.031185
20
1.110702
30
0.0
11
0.025390
21
1.101219
31
0.0
0
LINE
8
FRONT
10
0.025390
20
1.101219
30
0.0
11
0.020568
21
1.091207
31
0.0
0
LINE
8
FRONT
10
0.020568
20
1.091207
30
0.0
11
0.016767
21
1.080764
31
0.0
0
LINE
8
FRONT
10
0.016767
20
1.080764
30
0.0
11
0.014025
21
1.069995
31
0.0
0
LINE
8
FRONT
10
0.014025
20
1.069995
30
0.0
11
0.012369
21
1.059006
31
0.0
0
LINE
8
FRONT
10
0.012369
20
1.059006
30
0.0
11
0.011815
21
1.047907
31
0.0
0
LINE
8
FRONT
10
0.000000
20
1.047907
30
0.0
11
0.000613
21
1.035631
31
0.0
0
LINE
8
FRONT
10
0.000613
20
1.035631
30
0.0
11
0.002444
21
1.023478
31
0.0
0
LINE
8
FRONT
10
0.002444
20
1.023478
30
0.0
11
0.005477
21
1.011567
31
0.0
0
LINE
8
FRONT
10
0.005477
20
1.011567
30
0.0
11
0.009681
21
1.000018
31
0.0
0
LINE
8
FRONT
10
0.009681
20
1.000018
30
0.0
11
0.015014
21
0.988944
31
0.0
0
LINE
8
FRONT
10
0.015014
20
0.988944
30
0.0
11
0.021423
21
0.978456
31
0.0
0
LINE
8
FRONT
10
0.021423
20
0.978456
30
0.0
11
0.028844
21
0.968659
31
0.0
0
LINE
8
FRONT
10
0.028844
20
0.968659
30
0.0
11
0.037204
21
0.959649
31
0.0
0
LINE
8
FRONT
10
0.037204
20
0.959649
30
0.0
11
0.046419
21
0.951517
31
0.0
0
LINE
8
FRONT
10
0.046419
20
0.951517
30
0.0
11
0.056398
21
0.944342
31
0.0
0
LINE
8
FRONT
10
0.056398
20
0.944342
30
0.0
11
0.067043
21
0.938197
31
0.0
0
LINE
8
FRONT
10
0.067043
20
0.938197
30
0.0
11
0.078246
21
0.933142
31
0.0
0
LINE
8
FRONT
10
0.078246
20
0.933142
30
0.0
11
0.089896
21
0.929227
31
0.0
0
LINE
8
FRONT
10
0.089896
20
0.929227
30
0.0
11
0.101879
21
0.926492
31
0.0
0
LINE
8
FRONT
10
0.101879
20
0.926492
30
0.0
11
0.114074
21
0.924964
31
0.0
0
LINE
8
FRONT
10
0.114074
20
0.924964
30
0.0
11
0.126361
21
0.924658
31
0.0
0
LINE
8
FRONT
10
0.126361
20
0.924658
30
0.0
11
0.138618
21
0.925576
31
0.0
0
LINE
8
FRONT
10
0.138618
20
0.925576
30
0.0
11
0.150722
21
0.927710
31
0.0
0
LINE
8
FRONT
10
0.150722
20
0.927710
30
0.0
11
0.162553
21
0.931039
31
0.0
0
LINE
8
FRONT
10
0.162553
20
0.931039
30
0.0
11
0.173994
21
0.935529
31
0.0
0
LINE
8
FRONT
10
0.173994
20
0.935529
30
0.0
11
0.184932
21
0.941137
31
0.0
0
LINE
8
FRONT
10
0.184932
20
0.941137
30
0.0
11
0.195256
21
0.947805
31
0.0
0
LINE
8
FRONT
10
0.195256
20
0.947805
30
0.0
11
0.204865
21
0.955468
31
0.0
0
LINE
8
FRONT
10
0.204865
20
0.955468
30
0.0
11
0.213664
21
0.964050
31
0.0
0
LINE
8
FRONT
10
0.213664
20
0.964050
30
0.0
11
0.221564
21
0.973465
31
0.0
0
LINE
8
FRONT
10
0.221564
20
0.973465
30
0.0
11
0.228488
21
0.983620
31
0.0
0
LINE
8
FRONT
10
0.228488
20
0.983620
30
0.0
11
0.234366
21
0.994414
31
0.0
0
LINE
8
FRONT
10
0.234366
20
0.994414
30
0.0
11
0.239140
21
1.005740
31
0.0
0
LINE
8
FRONT
10
0.239140
20
1.005740
30
0.0
11
0.242763
21
1.017485
31
0.0
0
LINE
8
FRONT
10
0.242763
20
1.017485
30
0.0
11
0.245198
21
1.029532
31
0.0
0
LINE
8
FRONT
10
0.245198
20
1.029532
30
0.0
11
0.246422
21
1.041762
31
0.0
0
LINE
8
FRONT
10
0.246422
20
1.041762
30
0.0
11
0.246422
21
1.054052
31
0.0
0
LINE
8
FRONT
10
0.246422
20
1.054052
30
0.0
11
0.245198
21
1.066282
31
0.0
0
LINE
8
FRONT
10
0.245198
20
1.066282
30
0.0
11
0.242763
21
1.078329
31
0.0
0
LINE
8
FRONT
10
0.242763
20
1.078329
30
0.0
11
0.239140
21
1.090074
31
0.0
0
LINE
8
FRONT
10
0.239140
20
1.090074
30
0.0
11
0.234366
21
1.101399
31
0.0
0
LINE
8
FRONT
10
0.234366
20
1.101399
30
0.0
11
0.228488
21
1.112193
31
0.0
0
LINE
8
FRONT
10
0.228488
20
1.112193
30
0.0
11
0.221564
21
1.122349
31
0.0
0
LINE
8
FRONT
10
0.221564
20
1.122349
30
0.0
11
0.213664
21
1.131764
31
0.0
0
LINE
8
FRONT
10
0.213664
20
1.131764
30
0.0
11
0.204865
21
1.140346
31
0.0
0
LINE
8
FRONT
10
0.204865
20
1.140346
30
0.0
11
0.195256
21
1.148009
31
0.0
0
LINE
8
FRONT
10
0.195256
20
1.148009
30
0.0
11
0.184932
21
1.154677
31
0.0
0
LINE
8
FRONT
10
0.184932
20
1.154677
30
0.0
11
0.173994
21
1.160284
31
0.0
0
LINE
8
FRONT
10
0.173994
20
1.160284
30
0.0
11
0.162553
21
1.164775
31
0.0
0
LINE
8
FRONT
10
0.162553
20
1.164775
30
0.0
11
0.150722
21
1.168103
31
0.0
0
LINE
8
FRONT
10
0.150722
20
1.168103
30
0.0
11
0.138618
21
1.170238
31
0.0
0
LINE
8
FRONT
10
0.138618
20
1.170238
30
0.0
11
0.126361
21
1.171156
31
0.0
0
LINE
8
FRONT
10
0.126361
20
1.171156
30
0.0
11
0.114074
21
1.170850
31
0.0
0
LINE
8
FRONT
10
0.114074
20
1.170850
30
0.0
11
0.101879
21
1.169322
31
0.0
0
LINE
8
FRONT
10
0.101879
20
1.169322
30
0.0
11
0.089896
21
1.166587
31
0.0
0
LINE
8
FRONT
10
0.089896
20
1.166587
30
0.0
11
0.078246
21
1.162672
31
0.0
0
LINE
8
FRONT
10
0.078246
20
1.162672
30
0.0
11
0.067043
21
1.157617
31
0.0
0
LINE
8
FRONT
10
0.067043
20
1.157617
30
0.0
11
0.056398
21
1.151472
31
0.0
0
LINE
8
FRONT
10
0.056398
20
1.151472
30
0.0
11
0.046419
21
1.144297
31
0.0
0
LINE
8
FRONT
10
0.046419
20
1.144297
30
0.0
11
0.037204
21
1.136164
31
0.0
0
LINE
8
FRONT
10
0.037204
20
1.136164
30
0.0
11
0.028844
21
1.127155
31
0.0
0
LINE
8
FRONT
10
0.028844
20
1.127155
30
0.0
11
0.021423
21
1.117357
31
0.0
0
LINE
8
FRONT
10
0.021423
20
1.117357
30
0.0
11
0.015014
21
1.106870
31
0.0
0
LINE
8
FRONT
10
0.015014
20
1.106870
30
0.0
11
0.009681
21
1.095796
31
0.0
0
LINE
8
FRONT
10
0.009681
20
1.095796
30
0.0
11
0.005477
21
1.084247
31
0.0
0
LINE
8
FRONT
10
0.005477
20
1.084247
30
0.0
11
0.002444
21
1.072336
31
0.0
0
LINE
8
FRONT
10
0.002444
20
1.072336
30
0.0
11
0.000613
21
1.060182
31
0.0
0
LINE
8
FRONT
10
0.000613
20
1.060182
30
0.0
11
0.000000
21
1.047907
31
0.0
0
LINE
8
FRONT
10
0.027226
20
1.047907
30
0.0
11
0.027703
21
1.038342
31
0.0
0
LINE
8
FRONT
10
0.027703
20
1.038342
30
0.0
11
0.029131
21
1.028873
31
0.0
0
LINE
8
FRONT
10
0.029131
20
1.028873
30
0.0
11
0.031494
21
1.019592
31
0.0
0
LINE
8
FRONT
10
0.031494
20
1.019592
30
0.0
11
0.034769
21
1.010593
31
0.0
0
LINE
8
FRONT
10
0.034769
20
1.010593
30
0.0
11
0.038924
21
1.001965
31
0.0
0
LINE
8
FRONT
10
0.038924
20
1.001965
30
0.0
11
0.043918
21
0.993793
31
0.0
0
LINE
8
FRONT
10
0.043918
20
0.993793
30
0.0
11
0.049700
21
0.986160
31
0.0
0
LINE
8
FRONT
10
0.049700
20
0.986160
30
0.0
11
0.056214
21
0.979140
31
0.0
0
LINE
8
FRONT
10
0.056214
20
0.979140
30
0.0
11
0.063394
21
0.972803
31
0.0
0
LINE
8
FRONT
10
0.063394
20
0.972803
30
0.0
11
0.071170
21
0.967213
31
0.0
0
LINE
8
FRONT
10
0.071170
20
0.967213
30
0.0
11
0.079463
21
0.962424
31
0.0
0
LINE
8
FRONT
10
0.079463
20
0.962424
30
0.0
11
0.088192
21
0.958486
31
0.0
0
LINE
8
FRONT
10
0.088192
20
0.958486
30
0.0
11
0.097270
21
0.955436
31
0.0
0
LINE
8
FRONT
10
0.097270
20
0.955436
30
0.0
11
0.106607
21
0.953305
31
0.0
0
LINE
8
FRONT
10
0.106607
20
0.953305
30
0.0
11
0.116109
21
0.952114
31
0.0
0
LINE
8
FRONT
10
0.116109
20
0.952114
30
0.0
11
0.125683
21
0.951875
31
0.0
0
LINE
8
FRONT
10
0.125683
20
0.951875
30
0.0
11
0.135232
21
0.952591
31
0.0
0
LINE
8
FRONT
10
0.135232
20
0.952591
30
0.0
11
0.144663
21
0.954254
31
0.0
0
LINE
8
FRONT
10
0.144663
20
0.954254
30
0.0
11
0.153882
21
0.956847
31
0.0
0
LINE
8
FRONT
10
0.153882
20
0.956847
30
0.0
11
0.162797
21
0.960346
31
0.0
0
LINE
8
FRONT
10
0.162797
20
0.960346
30
0.0
11
0.171318
21
0.964715
31
0.0
0
LINE
8
FRONT
10
0.171318
20
0.964715
30
0.0
11
0.179363
21
0.969911
31
0.0
0
LINE
8
FRONT
10
0.179363
20
0.969911
30
0.0
11
0.186850
21
0.975882
31
0.0
0
LINE
8
FRONT
10
0.186850
20
0.975882
30
0.0
11
0.193706
21
0.982568
31
0.0
0
LINE
8
FRONT
10
0.193706
20
0.982568
30
0.0
11
0.199862
21
0.989904
31
0.0
0
LINE
8
FRONT
10
0.199862
20
0.989904
30
0.0
11
0.205256
21
0.997817
31
0.0
0
LINE
8
FRONT
10
0.205256
20
0.997817
30
0.0
11
0.209836
21
1.006227
31
0.0
0
LINE
8
FRONT
10
0.209836
20
1.006227
30
0.0
11
0.213556
21
1.015052
31
0.0
0
LINE
8
FRONT
10
0.213556
20
1.015052
30
0.0
11
0.216379
21
1.024203
31
0.0
0
LINE
8
FRONT
10
0.216379
20
1.024203
30
0.0
11
0.218276
21
1.033590
31
0.0
0
LINE
8
FRONT
10
0.218276
20
1.033590
30
0.0
11
0.219230
21
1.043119
31
0.0
0
LINE
8
FRONT
10
0.219230
20
1.043119
30
0.0
11
0.219230
21
1.052695
31
0.0
0
LINE
8
FRONT
10
0.219230
20
1.052695
30
0.0
11
0.218276
21
1.062224
31
0.0
0
LINE
8
FRONT
10
0.218276
20
1.062224
30
0.0
11
0.216379
21
1.071611
31
0.0
0
LINE
8
FRONT
10
0.216379
20
1.071611
30
0.0
11
0.213556
21
1.080762
31
0.0
0
LINE
8
FRONT
10
0.213556
20
1.080762
30
0.0
11
0.209836
21
1.089586
31
0.0
0
LINE
8
FRONT
10
0.209836
20
1.089586
30
0.0
11
0.205256
21
1.097997
31
0.0
0
LINE
8
FRONT
10
0.205256
20
1.097997
30
0.0
11
0.199862
21
1.105909
31
0.0
0
LINE
8
FRONT
10
0.199862
20
1.105909
30
0.0
11
0.193706
21
1.113245
31
0.0
0
LINE
8
FRONT
10
0.193706
20
1.113245
30
0.0
11
0.186850
21
1.119932
31
0.0
0
LINE
8
FRONT
10
0.186850
20
1.119932
30
0.0
11
0.179363
21
1.125903
31
0.0
0
LINE
8
FRONT
10
0.179363
20
1.125903
30
0.0
11
0.171318
21
1.131099
31
0.0
0
LINE
8
FRONT
10
0.171318
20
1.131099
30
0.0
11
0.162797
21
1.135468
31
0.0
0
LINE
8
FRONT
10
0.162797
20
1.135468
30
0.0
11
0.153882
21
1.138966
31
0.0
0
LINE
8
FRONT
10
0.153882
20
1.138966
30
0.0
11
0.144663
21
1.141560
31
0.0
0
LINE
8
FRONT
10
0.144663
20
1.141560
30
0.0
11
0.135232
21
1.143223
31
0.0
0
LINE
8
FRONT
10
0.135232
20
1.143223
30
0.0
11
0.125683
21
1.143939
31
0.0
0
LINE
8
FRONT
10
0.125683
20
1.143939
30
0.0
11
0.116109
21
1.143700
31
0.0
0
LINE
8
FRONT
10
0.116109
20
1.143700
30
0.0
11
0.106607
21
1.142509
31
0.0
0
LINE
8
FRONT
10
0.106607
20
1.142509
30
0.0
11
0.097270
21
1.140378
31
0.0
0
LINE
8
FRONT
10
0.097270
20
1.140378
30
0.0
11
0.088192
21
1.137328
31
0.0
0
LINE
8
FRONT
10
0.088192
20
1.137328
30
0.0
11
0.079463
21
1.133389
31
0.0
0
LINE
8
FRONT
10
0.079463
20
1.133389
30
0.0
11
0.071170
21
1.128601
31
0.0
0
LINE
8
FRONT
10
0.071170
20
1.128601
30
0.0
11
0.063394
21
1.123011
31
0.0
0
LINE
8
FRONT
10
0.063394
20
1.123011
30
0.0
11
0.056214
21
1.116674
31
0.0
0
LINE
8
FRONT
10
0.056214
20
1.116674
30
0.0
11
0.049700
21
1.109654
31
0.0
0
LINE
8
FRONT
10
0.049700
20
1.109654
30
0.0
11
0.043918
21
1.102020
31
0.0
0
LINE
8
FRONT
10
0.043918
20
1.102020
30
0.0
11
0.038924
21
1.093849
31
0.0
0
LINE
8
FRONT
10
0.038924
20
1.093849
30
0.0
11
0.034769
21
1.085221
31
0.0
0
LINE
8
FRONT
10
0.034769
20
1.085221
30
0.0
11
0.031494
21
1.076222
31
0.0
0
LINE
8
FRONT
10
0.031494
20
1.076222
30
0.0
11
0.029131
21
1.066941
31
0.0
0
LINE
8
FRONT
10
0.029131
20
1.066941
30
0.0
11
0.027703
21
1.057472
31
0.0
0
LINE
8
FRONT
10
0.027703
20
1.057472
30
0.0
11
0.027226
21
1.047907
31
0.0
0
LINE
8
FRONT
10
0.061644
20
1.047907
30
0.0
11
0.061950
21
1.041769
31
0.0
0
LINE
8
FRONT
10
0.061950
20
1.041769
30
0.0
11
0.062866
21
1.035692
31
0.0
0
LINE
8
FRONT
10
0.062866
20
1.035692
30
0.0
11
0.064382
21
1.029737
31
0.0
0
LINE
8
FRONT
10
0.064382
20
1.029737
30
0.0
11
0.066484
21
1.023962
31
0.0
0
LINE
8
FRONT
10
0.066484
20
1.023962
30
0.0
11
0.069151
21
1.018425
31
0.0
0
LINE
8
FRONT
10
0.069151
20
1.018425
30
0.0
11
0.072355
21
1.013182
31
0.0
0
LINE
8
FRONT
10
0.072355
20
1.013182
30
0.0
11
0.076066
21
1.008283
31
0.0
0
LINE
8
FRONT
10
0.076066
20
1.008283
30
0.0
11
0.080246
21
1.003778
31
0.0
0
LINE
8
FRONT
10
0.080246
20
1.003778
30
0.0
11
0.084853
21
0.999712
31
0.0
0
LINE
8
FRONT
10
0.084853
20
0.999712
30
0.0
11
0.089843
21
0.996124
31
0.0
0
LINE
8
FRONT
10
0.089843
20
0.996124
30
0.0
11
0.095165
21
0.993052
31
0.0
0
LINE
8
FRONT
10
0.095165
20
0.993052
30
0.0
11
0.100767
21
0.990524
31
0.0
0
LINE
8
FRONT
10
0.100767
20
0.990524
30
0.0
11
0.106592
21
0.988567
31
0.0
0
LINE
8
FRONT
10
0.106592
20
0.988567
30
0.0
11
0.112583
21
0.987200
31
0.0
0
LINE
8
FRONT
10
0.112583
20
0.987200
30
0.0
11
0.118681
21
0.986435
31
0.0
0
LINE
8
FRONT
10
0.118681
20
0.986435
30
0.0
11
0.124824
21
0.986282
31
0.0
0
LINE
8
FRONT
10
0.124824
20
0.986282
30
0.0
11
0.130953
21
0.986741
31
0.0
0
LINE
8
FRONT
10
0.130953
20
0.986741
30
0.0
11
0.137005
21
0.987809
31
0.0
0
LINE
8
FRONT
10
0.137005
20
0.987809
30
0.0
11
0.142920
21
0.989473
31
0.0
0
LINE
8
FRONT
10
0.142920
20
0.989473
30
0.0
11
0.148641
21
0.991718
31
0.0
0
LINE
8
FRONT
10
0.148641
20
0.991718
30
0.0
11
0.154110
21
0.994522
31
0.0
0
LINE
8
FRONT
10
0.154110
20
0.994522
30
0.0
11
0.159272
21
0.997856
31
0.0
0
LINE
8
FRONT
10
0.159272
20
0.997856
30
0.0
11
0.164077
21
1.001687
31
0.0
0
LINE
8
FRONT
10
0.164077
20
1.001687
30
0.0
11
0.168476
21
1.005978
31
0.0
0
LINE
8
FRONT
10
0.168476
20
1.005978
30
0.0
11
0.172426
21
1.010686
31
0.0
0
LINE
8
FRONT
10
0.172426
20
1.010686
30
0.0
11
0.175888
21
1.015764
31
0.0
0
LINE
8
FRONT
10
0.175888
20
1.015764
30
0.0
11
0.178827
21
1.021161
31
0.0
0
LINE
8
FRONT
10
0.178827
20
1.021161
30
0.0
11
0.181214
21
1.026823
31
0.0
0
LINE
8
FRONT
10
0.181214
20
1.026823
30
0.0
11
0.183025
21
1.032696
31
0.0
0
LINE
8
FRONT
10
0.183025
20
1.032696
30
0.0
11
0.184243
21
1.038719
31
0.0
0
LINE
8
FRONT
10
0.184243
20
1.038719
30
0.0
11
0.184855
21
1.044834
31
0.0
0
LINE
8
FRONT
10
0.184855
20
1.044834
30
0.0
11
0.184855
21
1.050980
31
0.0
0
LINE
8
FRONT
10
0.184855
20
1.050980
30
0.0
11
0.184243
21
1.057094
31
0.0
0
LINE
8
FRONT
10
0.184243
20
1.057094
30
0.0
11
0.183025
21
1.063118
31
0.0
0
LINE
8
FRONT
10
0.183025
20
1.063118
30
0.0
11
0.181214
21
1.068990
31
0.0
0
LINE
8
FRONT
10
0.181214
20
1.068990
30
0.0
11
0.178827
21
1.074653
31
0.0
0
LINE
8
FRONT
10
0.178827
20
1.074653
30
0.0
11
0.175888
21
1.080050
31
0.0
0
LINE
8
FRONT
10
0.175888
20
1.080050
30
0.0
11
0.172426
21
1.085128
31
0.0
0
LINE
8
FRONT
10
0.172426
20
1.085128
30
0.0
11
0.168476
21
1.089835
31
0.0
0
LINE
8
FRONT
10
0.168476
20
1.089835
30
0.0
11
0.164077
21
1.094126
31
0.0
0
LINE
8
FRONT
10
0.164077
20
1.094126
30
0.0
11
0.159272
21
1.097958
31
0.0
0
LINE
8
FRONT
10
0.159272
20
1.097958
30
0.0
11
0.154110
21
1.101292
31
0.0
0
LINE
8
FRONT
10
0.154110
20
1.101292
30
0.0
11
0.148641
21
1.104096
31
0.0
0
LINE
8
FRONT
10
0.148641
20
1.104096
30
0.0
11
0.142920
21
1.106341
31
0.0
0
LINE
8
FRONT
10
0.142920
20
1.106341
30
0.0
11
0.137005
21
1.108005
31
0.0
0
LINE
8
FRONT
10
0.137005
20
1.108005
30
0.0
11
0.130953
21
1.109072
31
0.0
0
LINE
8
FRONT
10
0.130953
20
1.109072
30
0.0
11
0.124824
21
1.109532
31
0.0
0
LINE
8
FRONT
10
0.124824
20
1.109532
30
0.0
11
0.118681
21
1.109378
31
0.0
0
LINE
8
FRONT
10
0.118681
20
1.109378
30
0.0
11
0.112583
21
1.108614
31
0.0
0
LINE
8
FRONT
10
0.112583
20
1.108614
30
0.0
11
0.106592
21
1.107247
31
0.0
0
LINE
8
FRONT
10
0.106592
20
1.107247
30
0.0
11
0.100767
21
1.105290
31
0.0
0
LINE
8
FRONT
10
0.100767
20
1.105290
30
0.0
11
0.095165
21
1.102762
31
0.0
0
LINE
8
FRONT
10
0.095165
20
1.102762
30
0.0
11
0.089843
21
1.099689
31
0.0
0
LINE
8
FRONT
10
0.089843
20
1.099689
30
0.0
11
0.084853
21
1.096102
31
0.0
0
LINE
8
FRONT
10
0.084853
20
1.096102
30
0.0
11
0.080246
21
1.092036
31
0.0
0
LINE
8
FRONT
10
0.080246
20
1.092036
30
0.0
11
0.076066
21
1.087531
31
0.0
0
LINE
8
FRONT
10
0.076066
20
1.087531
30
0.0
11
0.072355
21
1.082632
31
0.0
0
LINE
8
FRONT
10
0.072355
20
1.082632
30
0.0
11
0.069151
21
1.077388
31
0.0
0
LINE
8
FRONT
10
0.069151
20
1.077388
30
0.0
11
0.066484
21
1.071851
31
0.0
0
LINE
8
FRONT
10
0.066484
20
1.071851
30
0.0
11
0.064382
21
1.066077
31
0.0
0
LINE
8
FRONT
10
0.064382
20
1.066077
30
0.0
11
0.062866
21
1.060121
31
0.0
0
LINE
8
FRONT
10
0.062866
20
1.060121
30
0.0
11
0.061950
21
1.054045
31
0.0
0
LINE
8
FRONT
10
0.061950
20
1.054045
30
0.0
11
0.061644
21
1.047907
31
0.0
0
LINE
8
LEFT
10
0.400532
20
1.047945
30
0.0
11
0.400532
21
0.936473
31
0.0
0
LINE
8
LEFT
10
0.400532
20
1.159418
30
0.0
11
0.400532
21
1.047945
31
0.0
0
LINE
8
LEFT
10
1.119710
20
1.047945
30
0.0
11
1.119710
21
0.924658
31
0.0
0
LINE
8
LEFT
10
1.119710
20
1.171233
30
0.0
11
1.119710
21
1.047945
31
0.0
0
LINE
8
LEFT
10
1.171080
20
1.047945
30
0.0
11
1.171080
21
0.924658
31
0.0
0
LINE
8
LEFT
10
1.171080
20
1.171233
30
0.0
11
1.171080
21
1.047945
31
0.0
0
LINE
8
LEFT
10
0.400532
20
0.936473
30
0.0
11
1.119710
21
0.936473
31
0.0
0
LINE
8
LEFT
10
0.400532
20
1.159418
30
0.0
11
1.119710
21
1.159418
31
0.0
0
LINE
8
LEFT
10
1.171080
20
1.171233
30
0.0
11
1.119710
21
1.171233
31
0.0
0
LINE
8
LEFT
10
1.171080
20
0.924658
30
0.0
11
1.119710
21
0.924658
31
0.0
0
LINE
8
LEFT_HID
6
HIDDEN
10
0.400532
20
0.936473
30
0.0
11
0.400532
21
1.159418
31
0.0
0
LINE
8
LEFT_HID
6
HIDDEN
10
1.119710
20
1.047945
30
0.0
11
1.119710
21
0.936473
31
0.0
0
LINE
8
LEFT_HID
6
HIDDEN
10
1.119710
20
0.936473
30
0.0
11
1.119710
21
1.159418
31
0.0
0
LINE
8
LEFT_HID
6
HIDDEN
10
1.119710
20
1.159418
30
0.0
11
1.119710
21
1.047945
31
0.0
0
LINE
8
LEFT_HID
6
HIDDEN
10
1.119710
20
0.924658
30
0.0
11
1.119710
21
1.171233
31
0.0
0
LINE
8
LEFT_HID
6
HIDDEN
10
0.400532
20
1.047945
30
0.0
11
0.400532
21
0.951884
31
0.0
0
LINE
8
LEFT_HID
6
HIDDEN
10
0.400532
20
0.951884
30
0.0
11
0.400532
21
1.144007
31
0.0
0
LINE
8
LEFT_HID
6
HIDDEN
10
0.400532
20
1.144007
30
0.0
11
0.400532
21
1.047945
31
0.0
0
LINE
8
LEFT_HID
6
HIDDEN
10
1.171080
20
0.924658
30
0.0
11
1.171080
21
1.171233
31
0.0
0
LINE
8
LEFT_HID
6
HIDDEN
10
1.119710
20
1.047945
30
0.0
11
1.119710
21
0.951884
31
0.0
0
LINE
8
LEFT_HID
6
HIDDEN
10
1.119710
20
0.951884
30
0.0
11
1.119710
21
1.144007
31
0.0
0
LINE
8
LEFT_HID
6
HIDDEN
10
1.119710
20
1.144007
30
0.0
11
1.119710
21
1.047945
31
0.0
0
LINE
8
LEFT_HID
6
HIDDEN
10
1.171080
20
1.047945
30
0.0
11
1.171080
21
1.041045
31
0.0
0
LINE
8
LEFT_HID
6
HIDDEN
10
1.171080
20
1.041045
30
0.0
11
1.171080
21
1.034145
31
0.0
0
LINE
8
LEFT_HID
6
HIDDEN
10
1.171080
20
1.034145
30
0.0
11
1.171080
21
1.027245
31
0.0
0
LINE
8
LEFT_HID
6
HIDDEN
10
1.171080
20
1.027245
30
0.0
11
1.171080
21
1.020345
31
0.0
0
LINE
8
LEFT_HID
6
HIDDEN
10
1.171080
20
1.020345
30
0.0
11
1.171080
21
1.013444
31
0.0
0
LINE
8
LEFT_HID
6
HIDDEN
10
1.171080
20
1.013444
30
0.0
11
1.171080
21
1.006544
31
0.0
0
LINE
8
LEFT_HID
6
HIDDEN
10
1.171080
20
1.006544
30
0.0
11
1.171080
21
0.999644
31
0.0
0
LINE
8
LEFT_HID
6
HIDDEN
10
1.171080
20
0.999644
30
0.0
11
1.171080
21
0.992744
31
0.0
0
LINE
8
LEFT_HID
6
HIDDEN
10
1.171080
20
0.992744
30
0.0
11
1.171080
21
0.985844
31
0.0
0
LINE
8
LEFT_HID
6
HIDDEN
10
1.171080
20
0.985844
30
0.0
11
1.171080
21
0.978943
31
0.0
0
LINE
8
LEFT_HID
6
HIDDEN
10
1.171080
20
0.978943
30
0.0
11
1.171080
21
0.972043
31
0.0
0
LINE
8
LEFT_HID
6
HIDDEN
10
1.171080
20
0.972043
30
0.0
11
1.171080
21
0.965143
31
0.0
0
LINE
8
LEFT_HID
6
HIDDEN
10
1.171080
20
0.965143
30
0.0
11
1.171080
21
0.958243
31
0.0
0
LINE
8
LEFT_HID
6
HIDDEN
10
1.171080
20
0.958243
30
0.0
11
1.171080
21
0.951343
31
0.0
0
LINE
8
LEFT_HID
6
HIDDEN
10
1.171080
20
0.951343
30
0.0
11
1.171080
21
0.944443
31
0.0
0
LINE
8
LEFT_HID
6
HIDDEN
10
1.171080
20
0.944443
30
0.0
11
1.171080
21
0.940992
31
0.0
0
LINE
8
LEFT_HID
6
HIDDEN
10
1.171080
20
0.940992
30
0.0
11
1.171080
21
0.947893
31
0.0
0
LINE
8
LEFT_HID
6
HIDDEN
10
1.171080
20
0.947893
30
0.0
11
1.171080
21
0.954793
31
0.0
0
LINE
8
LEFT_HID
6
HIDDEN
10
1.171080
20
0.954793
30
0.0
11
1.171080
21
0.961693
31
0.0
0
LINE
8
LEFT_HID
6
HIDDEN
10
1.171080
20
0.961693
30
0.0
11
1.171080
21
0.968593
31
0.0
0
LINE
8
LEFT_HID
6
HIDDEN
10
1.171080
20
0.968593
30
0.0
11
1.171080
21
0.975493
31
0.0
0
LINE
8
LEFT_HID
6
HIDDEN
10
1.171080
20
0.975493
30
0.0
11
1.171080
21
0.982394
31
0.0
0
LINE
8
LEFT_HID
6
HIDDEN
10
1.171080
20
0.982394
30
0.0
11
1.171080
21
0.989294
31
0.0
0
LINE
8
LEFT_HID
6
HIDDEN
10
1.171080
20
0.989294
30
0.0
11
1.171080
21
0.996194
31
0.0
0
LINE
8
LEFT_HID
6
HIDDEN
10
1.171080
20
0.996194
30
0.0
11
1.171080
21
1.003094
31
0.0
0
LINE
8
LEFT_HID
6
HIDDEN
10
1.171080
20
1.003094
30
0.0
11
1.171080
21
1.009994
31
0.0
0
LINE
8
LEFT_HID
6
HIDDEN
10
1.171080
20
1.009994
30
0.0
11
1.171080
21
1.016894
31
0.0
0
LINE
8
LEFT_HID
6
HIDDEN
10
1.171080
20
1.016894
30
0.0
11
1.171080
21
1.023795
31
0.0
0
LINE
8
LEFT_HID
6
HIDDEN
10
1.171080
20
1.023795
30
0.0
11
1.171080
21
1.030695
31
0.0
0
LINE
8
LEFT_HID
6
HIDDEN
10
1.171080
20
1.030695
30
0.0
11
1.171080
21
1.037595
31
0.0
0
LINE
8
LEFT_HID
6
HIDDEN
10
1.171080
20
1.037595
30
0.0
11
1.171080
21
1.044495
31
0.0
0
LINE
8
LEFT_HID
6
HIDDEN
10
1.171080
20
1.044495
30
0.0
11
1.171080
21
1.051395
31
0.0
0
LINE
8
LEFT_HID
6
HIDDEN
10
1.171080
20
1.051395
30
0.0
11
1.171080
21
1.058295
31
0.0
0
LINE
8
LEFT_HID
6
HIDDEN
10
1.171080
20
1.058295
30
0.0
11
1.171080
21
1.065196
31
0.0
0
LINE
8
LEFT_HID
6
HIDDEN
10
1.171080
20
1.065196
30
0.0
11
1.171080
21
1.072096
31
0.0
0
LINE
8
LEFT_HID
6
HIDDEN
10
1.171080
20
1.072096
30
0.0
11
1.171080
21
1.078996
31
0.0
0
LINE
8
LEFT_HID
6
HIDDEN
10
1.171080
20
1.078996
30
0.0
11
1.171080
21
1.085896
31
0.0
0
LINE
8
LEFT_HID
6
HIDDEN
10
1.171080
20
1.085896
30
0.0
11
1.171080
21
1.092796
31
0.0
0
LINE
8
LEFT_HID
6
HIDDEN
10
1.171080
20
1.092796
30
0.0
11
1.171080
21
1.099697
31
0.0
0
LINE
8
LEFT_HID
6
HIDDEN
10
1.171080
20
1.099697
30
0.0
11
1.171080
21
1.106597
31
0.0
0
LINE
8
LEFT_HID
6
HIDDEN
10
1.171080
20
1.106597
30
0.0
11
1.171080
21
1.113497
31
0.0
0
LINE
8
LEFT_HID
6
HIDDEN
10
1.171080
20
1.113497
30
0.0
11
1.171080
21
1.120397
31
0.0
0
LINE
8
LEFT_HID
6
HIDDEN
10
1.171080
20
1.120397
30
0.0
11
1.171080
21
1.127297
31
0.0
0
LINE
8
LEFT_HID
6
HIDDEN
10
1.171080
20
1.127297
30
0.0
11
1.171080
21
1.134197
31
0.0
0
LINE
8
LEFT_HID
6
HIDDEN
10
1.171080
20
1.134197
30
0.0
11
1.171080
21
1.141098
31
0.0
0
LINE
8
LEFT_HID
6
HIDDEN
10
1.171080
20
1.141098
30
0.0
11
1.171080
21
1.147998
31
0.0
0
LINE
8
LEFT_HID
6
HIDDEN
10
1.171080
20
1.147998
30
0.0
11
1.171080
21
1.154898
31
0.0
0
LINE
8
LEFT_HID
6
HIDDEN
10
1.171080
20
1.154898
30
0.0
11
1.171080
21
1.151448
31
0.0
0
LINE
8
LEFT_HID
6
HIDDEN
10
1.171080
20
1.151448
30
0.0
11
1.171080
21
1.144548
31
0.0
0
LINE
8
LEFT_HID
6
HIDDEN
10
1.171080
20
1.144548
30
0.0
11
1.171080
21
1.137647
31
0.0
0
LINE
8
LEFT_HID
6
HIDDEN
10
1.171080
20
1.137647
30
0.0
11
1.171080
21
1.130747
31
0.0
0
LINE
8
LEFT_HID
6
HIDDEN
10
1.171080
20
1.130747
30
0.0
11
1.171080
21
1.123847
31
0.0
0
LINE
8
LEFT_HID
6
HIDDEN
10
1.171080
20
1.123847
30
0.0
11
1.171080
21
1.116947
31
0.0
0
LINE
8
LEFT_HID
6
HIDDEN
10
1.171080
20
1.116947
30
0.0
11
1.171080
21
1.110047
31
0.0
0
LINE
8
LEFT_HID
6
HIDDEN
10
1.171080
20
1.110047
30
0.0
11
1.171080
21
1.103147
31
0.0
0
LINE
8
LEFT_HID
6
HIDDEN
10
1.171080
20
1.103147
30
0.0
11
1.171080
21
1.096246
31
0.0
0
LINE
8
LEFT_HID
6
HIDDEN
10
1.171080
20
1.096246
30
0.0
11
1.171080
21
1.089346
31
0.0
0
LINE
8
LEFT_HID
6
HIDDEN
10
1.171080
20
1.089346
30
0.0
11
1.171080
21
1.082446
31
0.0
0
LINE
8
LEFT_HID
6
HIDDEN
10
1.171080
20
1.082446
30
0.0
11
1.171080
21
1.075546
31
0.0
0
LINE
8
LEFT_HID
6
HIDDEN
10
1.171080
20
1.075546
30
0.0
11
1.171080
21
1.068646
31
0.0
0
LINE
8
LEFT_HID
6
HIDDEN
10
1.171080
20
1.068646
30
0.0
11
1.171080
21
1.061746
31
0.0
0
LINE
8
LEFT_HID
6
HIDDEN
10
1.171080
20
1.061746
30
0.0
11
1.171080
21
1.054845
31
0.0
0
LINE
8
LEFT_HID
6
HIDDEN
10
1.171080
20
1.054845
30
0.0
11
1.171080
21
1.047945
31
0.0
0
LINE
8
LEFT_HID
6
HIDDEN
10
1.119710
20
1.047945
30
0.0
11
1.119710
21
0.986301
31
0.0
0
LINE
8
LEFT_HID
6
HIDDEN
10
1.119710
20
0.986301
30
0.0
11
1.119710
21
1.109589
31
0.0
0
LINE
8
LEFT_HID
6
HIDDEN
10
1.119710
20
1.109589
30
0.0
11
1.119710
21
1.047945
31
0.0
0
LINE
8
LEFT_HID
6
HIDDEN
10
1.171080
20
1.047945
30
0.0
11
1.171080
21
1.041999
31
0.0
0
LINE
8
LEFT_HID
6
HIDDEN
10
1.171080
20
1.041999
30
0.0
11
1.171080
21
1.036053
31
0.0
0
LINE
8
LEFT_HID
6
HIDDEN
10
1.171080
20
1.036053
30
0.0
11
1.171080
21
1.030107
31
0.0
0
LINE
8
LEFT_HID
6
HIDDEN
10
1.171080
20
1.030107
30
0.0
11
1.171080
21
1.024160
31
0.0
0
LINE
8
LEFT_HID
6
HIDDEN
10
1.171080
20
1.024160
30
0.0
11
1.171080
21
1.018214
31
0.0
0
LINE
8
LEFT_HID
6
HIDDEN
10
1.171080
20
1.018214
30
0.0
11
1.171080
21
1.012268
31
0.0
0
LINE
8
LEFT_HID
6
HIDDEN
10
1.171080
20
1.012268
30
0.0
11
1.171080
21
1.006322
31
0.0
0
LINE
8
LEFT_HID
6
HIDDEN
10
1.171080
20
1.006322
30
0.0
11
1.171080
21
1.000375
31
0.0
0
LINE
8
LEFT_HID
6
HIDDEN
10
1.171080
20
1.000375
30
0.0
11
1.171080
21
0.994429
31
0.0
0
LINE
8
LEFT_HID
6
HIDDEN
10
1.171080
20
0.994429
30
0.0
11
1.171080
21
0.988483
31
0.0
0
LINE
8
LEFT_HID
6
HIDDEN
10
1.171080
20
0.988483
30
0.0
11
1.171080
21
0.982537
31
0.0
0
LINE
8
LEFT_HID
6
HIDDEN
10
1.171080
20
0.982537
30
0.0
11
1.171080
21
0.976590
31
0.0
0
LINE
8
LEFT_HID
6
HIDDEN
10
1.171080
20
0.976590
30
0.0
11
1.171080
21
0.970644
31
0.0
0
LINE
8
LEFT_HID
6
HIDDEN
10
1.171080
20
0.970644
30
0.0
11
1.171080
21
0.964698
31
0.0
0
LINE
8
LEFT_HID
6
HIDDEN
10
1.171080
20
0.964698
30
0.0
11
1.171080
21
0.958752
31
0.0
0
LINE
8
LEFT_HID
6
HIDDEN
10
1.171080
20
0.958752
30
0.0
11
1.171080
21
0.955779
31
0.0
0
LINE
8
LEFT_HID
6
HIDDEN
10
1.171080
20
0.955779
30
0.0
11
1.171080
21
0.961725
31
0.0
0
LINE
8
LEFT_HID
6
HIDDEN
10
1.171080
20
0.961725
30
0.0
11
1.171080
21
0.967671
31
0.0
0
LINE
8
LEFT_HID
6
HIDDEN
10
1.171080
20
0.967671
30
0.0
11
1.171080
21
0.973617
31
0.0
0
LINE
8
LEFT_HID
6
HIDDEN
10
1.171080
20
0.973617
30
0.0
11
1.171080
21
0.979564
31
0.0
0
LINE
8
LEFT_HID
6
HIDDEN
10
1.171080
20
0.979564
30
0.0
11
1.171080
21
0.985510
31
0.0
0
LINE
8
LEFT_HID
6
HIDDEN
10
1.171080
20
0.985510
30
0.0
11
1.171080
21
0.991456
31
0.0
0
LINE
8
LEFT_HID
6
HIDDEN
10
1.171080
20
0.991456
30
0.0
11
1.171080
21
0.997402
31
0.0
0
LINE
8
LEFT_HID
6
HIDDEN
10
1.171080
20
0.997402
30
0.0
11
1.171080
21
1.003348
31
0.0
0
LINE
8
LEFT_HID
6
HIDDEN
10
1.171080
20
1.003348
30
0.0
11
1.171080
21
1.009295
31
0.0
0
LINE
8
LEFT_HID
6
HIDDEN
10
1.171080
20
1.009295
30
0.0
11
1.171080
21
1.015241
31
0.0
0
LINE
8
LEFT_HID
6
HIDDEN
10
1.171080
20
1.015241
30
0.0
11
1.171080
21
1.021187
31
0.0
0
LINE
8
LEFT_HID
6
HIDDEN
10
1.171080
20
1.021187
30
0.0
11
1.171080
21
1.027133
31
0.0
0
LINE
8
LEFT_HID
6
HIDDEN
10
1.171080
20
1.027133
30
0.0
11
1.171080
21
1.033080
31
0.0
0
LINE
8
LEFT_HID
6
HIDDEN
10
1.171080
20
1.033080
30
0.0
11
1.171080
21
1.039026
31
0.0
0
LINE
8
LEFT_HID
6
HIDDEN
10
1.171080
20
1.039026
30
0.0
11
1.171080
21
1.044972
31
0.0
0
LINE
8
LEFT_HID
6
HIDDEN
10
1.171080
20
1.044972
30
0.0
11
1.171080
21
1.050918
31
0.0
0
LINE
8
LEFT_HID
6
HIDDEN
10
1.171080
20
1.050918
30
0.0
11
1.171080
21
1.056865
31
0.0
0
LINE
8
LEFT_HID
6
HIDDEN
10
1.171080
20
1.056865
30
0.0
11
1.171080
21
1.062811
31
0.0
0
LINE
8
LEFT_HID
6
HIDDEN
10
1.171080
20
1.062811
30
0.0
11
1.171080
21
1.068757
31
0.0
0
LINE
8
LEFT_HID
6
HIDDEN
10
1.171080
20
1.068757
30
0.0
11
1.171080
21
1.074703
31
0.0
0
LINE
8
LEFT_HID
6
HIDDEN
10
1.171080
20
1.074703
30
0.0
11
1.171080
21
1.080649
31
0.0
0
LINE
8
LEFT_HID
6
HIDDEN
10
1.171080
20
1.080649
30
0.0
11
1.171080
21
1.086596
31
0.0
0
LINE
8
LEFT_HID
6
HIDDEN
10
1.171080
20
1.086596
30
0.0
11
1.171080
21
1.092542
31
0.0
0
LINE
8
LEFT_HID
6
HIDDEN
10
1.171080
20
1.092542
30
0.0
11
1.171080
21
1.098488
31
0.0
0
LINE
8
LEFT_HID
6
HIDDEN
10
1.171080
20
1.098488
30
0.0
11
1.171080
21
1.104434
31
0.0
0
LINE
8
LEFT_HID
6
HIDDEN
10
1.171080
20
1.104434
30
0.0
11
1.171080
21
1.110381
31
0.0
0
LINE
8
LEFT_HID
6
HIDDEN
10
1.171080
20
1.110381
30
0.0
11
1.171080
21
1.116327
31
0.0
0
LINE
8
LEFT_HID
6
HIDDEN
10
1.171080
20
1.116327
30
0.0
11
1.171080
21
1.122273
31
0.0
0
LINE
8
LEFT_HID
6
HIDDEN
10
1.171080
20
1.122273
30
0.0
11
1.171080
21
1.128219
31
0.0
0
LINE
8
LEFT_HID
6
HIDDEN
10
1.171080
20
1.128219
30
0.0
11
1.171080
21
1.134166
31
0.0
0
LINE
8
LEFT_HID
6
HIDDEN
10
1.171080
20
1.134166
30
0.0
11
1.171080
21
1.140112
31
0.0
0
LINE
8
LEFT_HID
6
HIDDEN
10
1.171080
20
1.140112
30
0.0
11
1.171080
21
1.137139
31
0.0
0
LINE
8
LEFT_HID
6
HIDDEN
10
1.171080
20
1.137139
30
0.0
11
1.171080
21
1.131192
31
0.0
0
LINE
8
LEFT_HID
6
HIDDEN
10
1.171080
20
1.131192
30
0.0
11
1.171080
21
1.125246
31
0.0
0
LINE
8
LEFT_HID
6
HIDDEN
10
1.171080
20
1.125246
30
0.0
11
1.171080
21
1.119300
31
0.0
0
LINE
8
LEFT_HID
6
HIDDEN
10
1.171080
20
1.119300
30
0.0
11
1.171080
21
1.113354
31
0.0
0
LINE
8
LEFT_HID
6
HIDDEN
10
1.171080
20
1.113354
30
0.0
11
1.171080
21
1.107408
31
0.0
0
LINE
8
LEFT_HID
6
HIDDEN
10
1.171080
20
1.107408
30
0.0
11
1.171080
21
1.101461
31
0.0
0
LINE
8
LEFT_HID
6
HIDDEN
10
1.171080
20
1.101461
30
0.0
11
1.171080
21
1.095515
31
0.0
0
LINE
8
LEFT_HID
6
HIDDEN
10
1.171080
20
1.095515
30
0.0
11
1.171080
21
1.089569
31
0.0
0
LINE
8
LEFT_HID
6
HIDDEN
10
1.171080
20
1.089569
30
0.0
11
1.171080
21
1.083623
31
0.0
0
LINE
8
LEFT_HID
6
HIDDEN
10
1.171080
20
1.083623
30
0.0
11
1.171080
21
1.077676
31
0.0
0
LINE
8
LEFT_HID
6
HIDDEN
10
1.171080
20
1.077676
30
0.0
11
1.171080
21
1.071730
31
0.0
0
LINE
8
LEFT_HID
6
HIDDEN
10
1.171080
20
1.071730
30
0.0
11
1.171080
21
1.065784
31
0.0
0
LINE
8
LEFT_HID
6
HIDDEN
10
1.171080
20
1.065784
30
0.0
11
1.171080
21
1.059838
31
0.0
0
LINE
8
LEFT_HID
6
HIDDEN
10
1.171080
20
1.059838
30
0.0
11
1.171080
21
1.053891
31
0.0
0
LINE
8
LEFT_HID
6
HIDDEN
10
1.171080
20
1.053891
30
0.0
11
1.171080
21
1.047945
31
0.0
0
LINE
8
LEFT_HID
6
HIDDEN
10
1.171080
20
1.047945
30
0.0
11
1.171080
21
0.986301
31
0.0
0
LINE
8
LEFT_HID
6
HIDDEN
10
1.171080
20
0.986301
30
0.0
11
1.171080
21
1.109589
31
0.0
0
LINE
8
LEFT_HID
6
HIDDEN
10
1.171080
20
1.109589
30
0.0
11
1.171080
21
1.047945
31
0.0
0
LINE
8
LEFT_HID
6
HIDDEN
10
0.400532
20
0.951884
30
0.0
11
1.119710
21
0.951884
31
0.0
0
LINE
8
LEFT_HID
6
HIDDEN
10
0.400532
20
1.144007
30
0.0
11
1.119710
21
1.144007
31
0.0
0
LINE
8
LEFT_HID
6
HIDDEN
10
1.171080
20
1.109589
30
0.0
11
1.119710
21
1.109589
31
0.0
0
LINE
8
LEFT_HID
6
HIDDEN
10
1.171080
20
0.986301
30
0.0
11
1.119710
21
0.986301
31
0.0
0
LINE
8
TOP
10
0.011815
20
0.051370
30
0.0
11
0.011815
21
0.770548
31
0.0
0
LINE
8
TOP
10
0.234760
20
0.770548
30
0.0
11
0.011815
21
0.770548
31
0.0
0
LINE
8
TOP
10
0.246575
20
0.051370
30
0.0
11
0.000000
21
0.051370
31
0.0
0
LINE
8
TOP
10
0.000000
20
0.051370
30
0.0
11
0.000000
21
0.000000
31
0.0
0
LINE
8
TOP
10
0.246575
20
0.000000
30
0.0
11
0.000000
21
0.000000
31
0.0
0
LINE
8
TOP
10
0.234760
20
0.770548
30
0.0
11
0.234760
21
0.051370
31
0.0
0
LINE
8
TOP
10
0.246575
20
0.000000
30
0.0
11
0.246575
21
0.051370
31
0.0
0
LINE
8
TOP_HID
6
HIDDEN
10
0.011815
20
0.051370
30
0.0
11
0.234760
21
0.051370
31
0.0
0
LINE
8
TOP_HID
6
HIDDEN
10
0.234760
20
0.051370
30
0.0
11
0.011815
21
0.051370
31
0.0
0
LINE
8
TOP_HID
6
HIDDEN
10
0.027226
20
0.770548
30
0.0
11
0.219349
21
0.770548
31
0.0
0
LINE
8
TOP_HID
6
HIDDEN
10
0.219349
20
0.770548
30
0.0
11
0.027226
21
0.770548
31
0.0
0
LINE
8
TOP_HID
6
HIDDEN
10
0.027226
20
0.051370
30
0.0
11
0.027226
21
0.770548
31
0.0
0
LINE
8
TOP_HID
6
HIDDEN
10
0.027226
20
0.051370
30
0.0
11
0.219349
21
0.051370
31
0.0
0
LINE
8
TOP_HID
6
HIDDEN
10
0.219349
20
0.051370
30
0.0
11
0.027226
21
0.051370
31
0.0
0
LINE
8
TOP_HID
6
HIDDEN
10
0.011815
20
0.000000
30
0.0
11
0.018893
21
0.000000
31
0.0
0
LINE
8
TOP_HID
6
HIDDEN
10
0.018893
20
0.000000
30
0.0
11
0.025970
21
0.000000
31
0.0
0
LINE
8
TOP_HID
6
HIDDEN
10
0.025970
20
0.000000
30
0.0
11
0.033048
21
0.000000
31
0.0
0
LINE
8
TOP_HID
6
HIDDEN
10
0.033048
20
0.000000
30
0.0
11
0.040126
21
0.000000
31
0.0
0
LINE
8
TOP_HID
6
HIDDEN
10
0.040126
20
0.000000
30
0.0
11
0.047203
21
0.000000
31
0.0
0
LINE
8
TOP_HID
6
HIDDEN
10
0.047203
20
0.000000
30
0.0
11
0.054281
21
0.000000
31
0.0
0
LINE
8
TOP_HID
6
HIDDEN
10
0.054281
20
0.000000
30
0.0
11
0.061358
21
0.000000
31
0.0
0
LINE
8
TOP_HID
6
HIDDEN
10
0.061358
20
0.000000
30
0.0
11
0.068436
21
0.000000
31
0.0
0
LINE
8
TOP_HID
6
HIDDEN
10
0.068436
20
0.000000
30
0.0
11
0.075514
21
0.000000
31
0.0
0
LINE
8
TOP_HID
6
HIDDEN
10
0.075514
20
0.000000
30
0.0
11
0.082591
21
0.000000
31
0.0
0
LINE
8
TOP_HID
6
HIDDEN
10
0.082591
20
0.000000
30
0.0
11
0.089669
21
0.000000
31
0.0
0
LINE
8
TOP_HID
6
HIDDEN
10
0.089669
20
0.000000
30
0.0
11
0.096747
21
0.000000
31
0.0
0
LINE
8
TOP_HID
6
HIDDEN
10
0.096747
20
0.000000
30
0.0
11
0.103824
21
0.000000
31
0.0
0
LINE
8
TOP_HID
6
HIDDEN
10
0.103824
20
0.000000
30
0.0
11
0.110902
21
0.000000
31
0.0
0
LINE
8
TOP_HID
6
HIDDEN
10
0.110902
20
0.000000
30
0.0
11
0.117979
21
0.000000
31
0.0
0
LINE
8
TOP_HID
6
HIDDEN
10
0.117979
20
0.000000
30
0.0
11
0.125057
21
0.000000
31
0.0
0
LINE
8
TOP_HID
6
HIDDEN
10
0.125057
20
0.000000
30
0.0
11
0.132135
21
0.000000
31
0.0
0
LINE
8
TOP_HID
6
HIDDEN
10
0.132135
20
0.000000
30
0.0
11
0.139212
21
0.000000
31
0.0
0
LINE
8
TOP_HID
6
HIDDEN
10
0.139212
20
0.000000
30
0.0
11
0.146290
21
0.000000
31
0.0
0
LINE
8
TOP_HID
6
HIDDEN
10
0.146290
20
0.000000
30
0.0
11
0.153368
21
0.000000
31
0.0
0
LINE
8
TOP_HID
6
HIDDEN
10
0.153368
20
0.000000
30
0.0
11
0.160445
21
0.000000
31
0.0
0
LINE
8
TOP_HID
6
HIDDEN
10
0.160445
20
0.000000
30
0.0
11
0.167523
21
0.000000
31
0.0
0
LINE
8
TOP_HID
6
HIDDEN
10
0.167523
20
0.000000
30
0.0
11
0.174600
21
0.000000
31
0.0
0
LINE
8
TOP_HID
6
HIDDEN
10
0.174600
20
0.000000
30
0.0
11
0.181678
21
0.000000
31
0.0
0
LINE
8
TOP_HID
6
HIDDEN
10
0.181678
20
0.000000
30
0.0
11
0.188756
21
0.000000
31
0.0
0
LINE
8
TOP_HID
6
HIDDEN
10
0.188756
20
0.000000
30
0.0
11
0.195833
21
0.000000
31
0.0
0
LINE
8
TOP_HID
6
HIDDEN
10
0.195833
20
0.000000
30
0.0
11
0.202911
21
0.000000
31
0.0
0
LINE
8
TOP_HID
6
HIDDEN
10
0.202911
20
0.000000
30
0.0
11
0.209989
21
0.000000
31
0.0
0
LINE
8
TOP_HID
6
HIDDEN
10
0.209989
20
0.000000
30
0.0
11
0.217066
21
0.000000
31
0.0
0
LINE
8
TOP_HID
6
HIDDEN
10
0.217066
20
0.000000
30
0.0
11
0.224144
21
0.000000
31
0.0
0
LINE
8
TOP_HID
6
HIDDEN
10
0.224144
20
0.000000
30
0.0
11
0.231221
21
0.000000
31
0.0
0
LINE
8
TOP_HID
6
HIDDEN
10
0.231221
20
0.000000
30
0.0
11
0.224144
21
0.000000
31
0.0
0
LINE
8
TOP_HID
6
HIDDEN
10
0.224144
20
0.000000
30
0.0
11
0.217066
21
0.000000
31
0.0
0
LINE
8
TOP_HID
6
HIDDEN
10
0.217066
20
0.000000
30
0.0
11
0.209989
21
0.000000
31
0.0
0
LINE
8
TOP_HID
6
HIDDEN
10
0.209989
20
0.000000
30
0.0
11
0.202911
21
0.000000
31
0.0
0
LINE
8
TOP_HID
6
HIDDEN
10
0.202911
20
0.000000
30
0.0
11
0.195833
21
0.000000
31
0.0
0
LINE
8
TOP_HID
6
HIDDEN
10
0.195833
20
0.000000
30
0.0
11
0.188756
21
0.000000
31
0.0
0
LINE
8
TOP_HID
6
HIDDEN
10
0.188756
20
0.000000
30
0.0
11
0.181678
21
0.000000
31
0.0
0
LINE
8
TOP_HID
6
HIDDEN
10
0.181678
20
0.000000
30
0.0
11
0.174600
21
0.000000
31
0.0
0
LINE
8
TOP_HID
6
HIDDEN
10
0.174600
20
0.000000
30
0.0
11
0.167523
21
0.000000
31
0.0
0
LINE
8
TOP_HID
6
HIDDEN
10
0.167523
20
0.000000
30
0.0
11
0.160445
21
0.000000
31
0.0
0
LINE
8
TOP_HID
6
HIDDEN
10
0.160445
20
0.000000
30
0.0
11
0.153368
21
0.000000
31
0.0
0
LINE
8
TOP_HID
6
HIDDEN
10
0.153368
20
0.000000
30
0.0
11
0.146290
21
0.000000
31
0.0
0
LINE
8
TOP_HID
6
HIDDEN
10
0.146290
20
0.000000
30
0.0
11
0.139212
21
0.000000
31
0.0
0
LINE
8
TOP_HID
6
HIDDEN
10
0.139212
20
0.000000
30
0.0
11
0.132135
21
0.000000
31
0.0
0
LINE
8
TOP_HID
6
HIDDEN
10
0.132135
20
0.000000
30
0.0
11
0.125057
21
0.000000
31
0.0
0
LINE
8
TOP_HID
6
HIDDEN
10
0.125057
20
0.000000
30
0.0
11
0.117979
21
0.000000
31
0.0
0
LINE
8
TOP_HID
6
HIDDEN
10
0.117979
20
0.000000
30
0.0
11
0.110902
21
0.000000
31
0.0
0
LINE
8
TOP_HID
6
HIDDEN
10
0.110902
20
0.000000
30
0.0
11
0.103824
21
0.000000
31
0.0
0
LINE
8
TOP_HID
6
HIDDEN
10
0.103824
20
0.000000
30
0.0
11
0.096747
21
0.000000
31
0.0
0
LINE
8
TOP_HID
6
HIDDEN
10
0.096747
20
0.000000
30
0.0
11
0.089669
21
0.000000
31
0.0
0
LINE
8
TOP_HID
6
HIDDEN
10
0.089669
20
0.000000
30
0.0
11
0.082591
21
0.000000
31
0.0
0
LINE
8
TOP_HID
6
HIDDEN
10
0.082591
20
0.000000
30
0.0
11
0.075514
21
0.000000
31
0.0
0
LINE
8
TOP_HID
6
HIDDEN
10
0.075514
20
0.000000
30
0.0
11
0.068436
21
0.000000
31
0.0
0
LINE
8
TOP_HID
6
HIDDEN
10
0.068436
20
0.000000
30
0.0
11
0.061358
21
0.000000
31
0.0
0
LINE
8
TOP_HID
6
HIDDEN
10
0.061358
20
0.000000
30
0.0
11
0.054281
21
0.000000
31
0.0
0
LINE
8
TOP_HID
6
HIDDEN
10
0.054281
20
0.000000
30
0.0
11
0.047203
21
0.000000
31
0.0
0
LINE
8
TOP_HID
6
HIDDEN
10
0.047203
20
0.000000
30
0.0
11
0.040126
21
0.000000
31
0.0
0
LINE
8
TOP_HID
6
HIDDEN
10
0.040126
20
0.000000
30
0.0
11
0.033048
21
0.000000
31
0.0
0
LINE
8
TOP_HID
6
HIDDEN
10
0.033048
20
0.000000
30
0.0
11
0.025970
21
0.000000
31
0.0
0
LINE
8
TOP_HID
6
HIDDEN
10
0.025970
20
0.000000
30
0.0
11
0.018893
21
0.000000
31
0.0
0
LINE
8
TOP_HID
6
HIDDEN
10
0.018893
20
0.000000
30
0.0
11
0.011815
21
0.000000
31
0.0
0
LINE
8
TOP_HID
6
HIDDEN
10
0.061644
20
0.051370
30
0.0
11
0.184932
21
0.051370
31
0.0
0
LINE
8
TOP_HID
6
HIDDEN
10
0.184932
20
0.051370
30
0.0
11
0.061644
21
0.051370
31
0.0
0
LINE
8
TOP_HID
6
HIDDEN
10
0.027226
20
0.000000
30
0.0
11
0.033325
21
0.000000
31
0.0
0
LINE
8
TOP_HID
6
HIDDEN
10
0.033325
20
0.000000
30
0.0
11
0.039424
21
0.000000
31
0.0
0
LINE
8
TOP_HID
6
HIDDEN
10
0.039424
20
0.000000
30
0.0
11
0.045523
21
0.000000
31
0.0
0
LINE
8
TOP_HID
6
HIDDEN
10
0.045523
20
0.000000
30
0.0
11
0.051623
21
0.000000
31
0.0
0
LINE
8
TOP_HID
6
HIDDEN
10
0.051623
20
0.000000
30
0.0
11
0.057722
21
0.000000
31
0.0
0
LINE
8
TOP_HID
6
HIDDEN
10
0.057722
20
0.000000
30
0.0
11
0.063821
21
0.000000
31
0.0
0
LINE
8
TOP_HID
6
HIDDEN
10
0.063821
20
0.000000
30
0.0
11
0.069920
21
0.000000
31
0.0
0
LINE
8
TOP_HID
6
HIDDEN
10
0.069920
20
0.000000
30
0.0
11
0.076019
21
0.000000
31
0.0
0
LINE
8
TOP_HID
6
HIDDEN
10
0.076019
20
0.000000
30
0.0
11
0.082118
21
0.000000
31
0.0
0
LINE
8
TOP_HID
6
HIDDEN
10
0.082118
20
0.000000
30
0.0
11
0.088218
21
0.000000
31
0.0
0
LINE
8
TOP_HID
6
HIDDEN
10
0.088218
20
0.000000
30
0.0
11
0.094317
21
0.000000
31
0.0
0
LINE
8
TOP_HID
6
HIDDEN
10
0.094317
20
0.000000
30
0.0
11
0.100416
21
0.000000
31
0.0
0
LINE
8
TOP_HID
6
HIDDEN
10
0.100416
20
0.000000
30
0.0
11
0.106515
21
0.000000
31
0.0
0
LINE
8
TOP_HID
6
HIDDEN
10
0.106515
20
0.000000
30
0.0
11
0.112614
21
0.000000
31
0.0
0
LINE
8
TOP_HID
6
HIDDEN
10
0.112614
20
0.000000
30
0.0
11
0.118713
21
0.000000
31
0.0
0
LINE
8
TOP_HID
6
HIDDEN
10
0.118713
20
0.000000
30
0.0
11
0.124812
21
0.000000
31
0.0
0
LINE
8
TOP_HID
6
HIDDEN
10
0.124812
20
0.000000
30
0.0
11
0.130912
21
0.000000
31
0.0
0
LINE
8
TOP_HID
6
HIDDEN
10
0.130912
20
0.000000
30
0.0
11
0.137011
21
0.000000
31
0.0
0
LINE
8
TOP_HID
6
HIDDEN
10
0.137011
20
0.000000
30
0.0
11
0.143110
21
0.000000
31
0.0
0
LINE
8
TOP_HID
6
HIDDEN
10
0.143110
20
0.000000
30
0.0
11
0.149209
21
0.000000
31
0.0
0
LINE
8
TOP_HID
6
HIDDEN
10
0.149209
20
0.000000
30
0.0
11
0.155308
21
0.000000
31
0.0
0
LINE
8
TOP_HID
6
HIDDEN
10
0.155308
20
0.000000
30
0.0
11
0.161407
21
0.000000
31
0.0
0
LINE
8
TOP_HID
6
HIDDEN
10
0.161407
20
0.000000
30
0.0
11
0.167507
21
0.000000
31
0.0
0
LINE
8
TOP_HID
6
HIDDEN
10
0.167507
20
0.000000
30
0.0
11
0.173606
21
0.000000
31
0.0
0
LINE
8
TOP_HID
6
HIDDEN
10
0.173606
20
0.000000
30
0.0
11
0.179705
21
0.000000
31
0.0
0
LINE
8
TOP_HID
6
HIDDEN
10
0.179705
20
0.000000
30
0.0
11
0.185804
21
0.000000
31
0.0
0
LINE
8
TOP_HID
6
HIDDEN
10
0.185804
20
0.000000
30
0.0
11
0.191903
21
0.000000
31
0.0
0
LINE
8
TOP_HID
6
HIDDEN
10
0.191903
20
0.000000
30
0.0
11
0.198002
21
0.000000
31
0.0
0
LINE
8
TOP_HID
6
HIDDEN
10
0.198002
20
0.000000
30
0.0
11
0.204101
21
0.000000
31
0.0
0
LINE
8
TOP_HID
6
HIDDEN
10
0.204101
20
0.000000
30
0.0
11
0.210201
21
0.000000
31
0.0
0
LINE
8
TOP_HID
6
HIDDEN
10
0.210201
20
0.000000
30
0.0
11
0.216300
21
0.000000
31
0.0
0
LINE
8
TOP_HID
6
HIDDEN
10
0.216300
20
0.000000
30
0.0
11
0.210201
21
0.000000
31
0.0
0
LINE
8
TOP_HID
6
HIDDEN
10
0.210201
20
0.000000
30
0.0
11
0.204101
21
0.000000
31
0.0
0
LINE
8
TOP_HID
6
HIDDEN
10
0.204101
20
0.000000
30
0.0
11
0.198002
21
0.000000
31
0.0
0
LINE
8
TOP_HID
6
HIDDEN
10
0.198002
20
0.000000
30
0.0
11
0.191903
21
0.000000
31
0.0
0
LINE
8
TOP_HID
6
HIDDEN
10
0.191903
20
0.000000
30
0.0
11
0.185804
21
0.000000
31
0.0
0
LINE
8
TOP_HID
6
HIDDEN
10
0.185804
20
0.000000
30
0.0
11
0.179705
21
0.000000
31
0.0
0
LINE
8
TOP_HID
6
HIDDEN
10
0.179705
20
0.000000
30
0.0
11
0.173606
21
0.000000
31
0.0
0
LINE
8
TOP_HID
6
HIDDEN
10
0.173606
20
0.000000
30
0.0
11
0.167507
21
0.000000
31
0.0
0
LINE
8
TOP_HID
6
HIDDEN
10
0.167507
20
0.000000
30
0.0
11
0.161407
21
0.000000
31
0.0
0
LINE
8
TOP_HID
6
HIDDEN
10
0.161407
20
0.000000
30
0.0
11
0.155308
21
0.000000
31
0.0
0
LINE
8
TOP_HID
6
HIDDEN
10
0.155308
20
0.000000
30
0.0
11
0.149209
21
0.000000
31
0.0
0
LINE
8
TOP_HID
6
HIDDEN
10
0.149209
20
0.000000
30
0.0
11
0.143110
21
0.000000
31
0.0
0
LINE
8
TOP_HID
6
HIDDEN
10
0.143110
20
0.000000
30
0.0
11
0.137011
21
0.000000
31
0.0
0
LINE
8
TOP_HID
6
HIDDEN
10
0.137011
20
0.000000
30
0.0
11
0.130912
21
0.000000
31
0.0
0
LINE
8
TOP_HID
6
HIDDEN
10
0.130912
20
0.000000
30
0.0
11
0.124812
21
0.000000
31
0.0
0
LINE
8
TOP_HID
6
HIDDEN
10
0.124812
20
0.000000
30
0.0
11
0.118713
21
0.000000
31
0.0
0
LINE
8
TOP_HID
6
HIDDEN
10
0.118713
20
0.000000
30
0.0
11
0.112614
21
0.000000
31
0.0
0
LINE
8
TOP_HID
6
HIDDEN
10
0.112614
20
0.000000
30
0.0
11
0.106515
21
0.000000
31
0.0
0
LINE
8
TOP_HID
6
HIDDEN
10
0.106515
20
0.000000
30
0.0
11
0.100416
21
0.000000
31
0.0
0
LINE
8
TOP_HID
6
HIDDEN
10
0.100416
20
0.000000
30
0.0
11
0.094317
21
0.000000
31
0.0
0
LINE
8
TOP_HID
6
HIDDEN
10
0.094317
20
0.000000
30
0.0
11
0.088218
21
0.000000
31
0.0
0
LINE
8
TOP_HID
6
HIDDEN
10
0.088218
20
0.000000
30
0.0
11
0.082118
21
0.000000
31
0.0
0
LINE
8
TOP_HID
6
HIDDEN
10
0.082118
20
0.000000
30
0.0
11
0.076019
21
0.000000
31
0.0
0
LINE
8
TOP_HID
6
HIDDEN
10
0.076019
20
0.000000
30
0.0
11
0.069920
21
0.000000
31
0.0
0
LINE
8
TOP_HID
6
HIDDEN
10
0.069920
20
0.000000
30
0.0
11
0.063821
21
0.000000
31
0.0
0
LINE
8
TOP_HID
6
HIDDEN
10
0.063821
20
0.000000
30
0.0
11
0.057722
21
0.000000
31
0.0
0
LINE
8
TOP_HID
6
HIDDEN
10
0.057722
20
0.000000
30
0.0
11
0.051623
21
0.000000
31
0.0
0
LINE
8
TOP_HID
6
HIDDEN
10
0.051623
20
0.000000
30
0.0
11
0.045523
21
0.000000
31
0.0
0
LINE
8
TOP_HID
6
HIDDEN
10
0.045523
20
0.000000
30
0.0
11
0.039424
21
0.000000
31
0.0
0
LINE
8
TOP_HID
6
HIDDEN
10
0.039424
20
0.000000
30
0.0
11
0.033325
21
0.000000
31
0.0
0
LINE
8
TOP_HID
6
HIDDEN
10
0.033325
20
0.000000
30
0.0
11
0.027226
21
0.000000
31
0.0
0
LINE
8
TOP_HID
6
HIDDEN
10
0.061644
20
0.051370
30
0.0
11
0.061644
21
0.000000
31
0.0
0
LINE
8
TOP_HID
6
HIDDEN
10
0.061644
20
0.000000
30
0.0
11
0.184932
21
0.000000
31
0.0
0
LINE
8
TOP_HID
6
HIDDEN
10
0.184932
20
0.000000
30
0.0
11
0.061644
21
0.000000
31
0.0
0
LINE
8
TOP_HID
6
HIDDEN
10
0.219349
20
0.770548
30
0.0
11
0.219349
21
0.051370
31
0.0
0
LINE
8
TOP_HID
6
HIDDEN
10
0.184932
20
0.000000
30
0.0
11
0.184932
21
0.051370
31
0.0
0
ENDSEC
0
EOF
