0
SECTION
2
HEADER
9
$ACADVER
1
AC1009
0
ENDSEC
0
SECTION
2
TABLES
0
TABLE
2
LTYPE
70
3
0
LTYPE
2
CONTINUOUS
70
0
3
Solid line
72
65
73
0
40
0.0
0
LTYPE
2
HIDDEN
70
0
3
__ __ __ __ __
72
65
73
2
40
0.075000
49
0.050025
49
-0.024975
0
LTYPE
2
CENTER
70
0
3
___ _ ___ _ ___
72
65
73
4
40
0.174975
49
0.099975
49
-0.024975
49
0.024975
49
-0.024975
0
ENDTAB
0
TABLE
2
LAYER
70
6
0
LAYER
2
0
70
0
62
7
6
CONTINUOUS
0
LAYER
2
FRONT
70
0
62
7
6
CONTINUOUS
0
LAYER
2
FRONT_HID
70
0
62
7
6
HIDDEN
0
LAYER
2
LEFT
70
0
62
7
6
CONTINUOUS
0
LAYER
2
LEFT_HID
70
0
62
7
6
HIDDEN
0
LAYER
2
TOP
70
0
62
7
6
CONTINUOUS
0
ENDTAB
0
ENDSEC
0
SECTION
2
ENTITIES
0
LINE
8
FRONT
10
1.500000
20
1.799534
30
0.0
11
0.000000
21
1.799534
31
0.0
0
LINE
8
FRONT
10
1.500000
20
1.799534
30
0.0
11
1.500000
21
1.898284
31
0.0
0
LINE
8
FRONT
10
1.500000
20
1.898284
30
0.0
11
0.000000
21
1.898284
31
0.0
0
LINE
8
FRONT
10
0.000000
20
1.898284
30
0.0
11
0.000000
21
1.799534
31
0.0
0
LINE
8
FRONT_HID
6
HIDDEN
10
0.202314
20
1.799534
30
0.0
11
0.145189
21
1.799534
31
0.0
0
LINE
8
FRONT_HID
6
HIDDEN
10
0.145189
20
1.799534
30
0.0
11
0.202314
21
1.799534
31
0.0
0
LINE
8
FRONT_HID
6
HIDDEN
10
0.202314
20
1.799534
30
0.0
11
0.202314
21
1.898284
31
0.0
0
LINE
8
FRONT_HID
6
HIDDEN
10
0.202314
20
1.898284
30
0.0
11
0.145189
21
1.898284
31
0.0
0
LINE
8
FRONT_HID
6
HIDDEN
10
0.145189
20
1.898284
30
0.0
11
0.202314
21
1.898284
31
0.0
0
LINE
8
FRONT_HID
6
HIDDEN
10
1.011937
20
1.799534
30
0.0
11
0.954813
21
1.799534
31
0.0
0
LINE
8
FRONT_HID
6
HIDDEN
10
0.954813
20
1.799534
30
0.0
11
1.011937
21
1.799534
31
0.0
0
LINE
8
FRONT_HID
6
HIDDEN
10
1.011937
20
1.799534
30
0.0
11
1.011937
21
1.898284
31
0.0
0
LINE
8
FRONT_HID
6
HIDDEN
10
1.011937
20
1.898284
30
0.0
11
0.954813
21
1.898284
31
0.0
0
LINE
8
FRONT_HID
6
HIDDEN
10
0.954813
20
1.898284
30
0.0
11
1.011937
21
1.898284
31
0.0
0
LINE
8
FRONT_HID
6
HIDDEN
10
1.162735
20
1.799534
30
0.0
11
1.105610
21
1.799534
31
0.0
0
LINE
8
FRONT_HID
6
HIDDEN
10
1.105610
20
1.799534
30
0.0
11
1.162735
21
1.799534
31
0.0
0
LINE
8
FRONT_HID
6
HIDDEN
10
1.162735
20
1.799534
30
0.0
11
1.162735
21
1.898284
31
0.0
0
LINE
8
FRONT_HID
6
HIDDEN
10
1.162735
20
1.898284
30
0.0
11
1.105610
21
1.898284
31
0.0
0
LINE
8
FRONT_HID
6
HIDDEN
10
1.105610
20
1.898284
30
0.0
11
1.162735
21
1.898284
31
0.0
0
LINE
8
FRONT_HID
6
HIDDEN
10
0.145189
20
1.898284
30
0.0
11
0.145189
21
1.799534
31
0.0
0
LINE
8
FRONT_HID
6
HIDDEN
10
0.954813
20
1.898284
30
0.0
11
0.954813
21
1.799534
31
0.0
0
LINE
8
FRONT_HID
6
HIDDEN
10
1.105610
20
1.898284
30
0.0
11
1.105610
21
1.799534
31
0.0
0
LINE
8
LEFT
10
1.800000
20
1.799534
30
0.0
11
3.300000
21
1.799534
31
0.0
0
LINE
8
LEFT
10
1.800000
20
1.898284
30
0.0
11
3.300000
21
1.898284
31
0.0
0
LINE
8
LEFT
10
1.800000
20
1.898284
30
0.0
11
1.800000
21
1.799534
31
0.0
0
LINE
8
LEFT
10
3.300000
20
1.898284
30
0.0
11
3.300000
21
1.799534
31
0.0
0
LINE
8
LEFT_HID
6
HIDDEN
10
2.550000
20
1.799534
30
0.0
11
1.800000
21
1.799534
31
0.0
0
LINE
8
LEFT_HID
6
HIDDEN
10
3.300000
20
1.799534
30
0.0
11
2.550000
21
1.799534
31
0.0
0
LINE
8
LEFT_HID
6
HIDDEN
10
2.550000
20
1.898284
30
0.0
11
1.800000
21
1.898284
31
0.0
0
LINE
8
LEFT_HID
6
HIDDEN
10
3.300000
20
1.898284
30
0.0
11
2.550000
21
1.898284
31
0.0
0
LINE
8
LEFT_HID
6
HIDDEN
10
2.932583
20
1.799534
30
0.0
11
2.904021
21
1.799534
31
0.0
0
LINE
8
LEFT_HID
6
HIDDEN
10
2.904021
20
1.799534
30
0.0
11
2.961146
21
1.799534
31
0.0
0
LINE
8
LEFT_HID
6
HIDDEN
10
2.961146
20
1.799534
30
0.0
11
2.932583
21
1.799534
31
0.0
0
LINE
8
LEFT_HID
6
HIDDEN
10
2.932583
20
1.898284
30
0.0
11
2.904021
21
1.898284
31
0.0
0
LINE
8
LEFT_HID
6
HIDDEN
10
2.904021
20
1.898284
30
0.0
11
2.961146
21
1.898284
31
0.0
0
LINE
8
LEFT_HID
6
HIDDEN
10
2.961146
20
1.898284
30
0.0
11
2.932583
21
1.898284
31
0.0
0
LINE
8
LEFT_HID
6
HIDDEN
10
1.905449
20
1.799534
30
0.0
11
1.876886
21
1.799534
31
0.0
0
LINE
8
LEFT_HID
6
HIDDEN
10
1.876886
20
1.799534
30
0.0
11
1.934011
21
1.799534
31
0.0
0
LINE
8
LEFT_HID
6
HIDDEN
10
1.934011
20
1.799534
30
0.0
11
1.905449
21
1.799534
31
0.0
0
LINE
8
LEFT_HID
6
HIDDEN
10
1.905449
20
1.898284
30
0.0
11
1.876886
21
1.898284
31
0.0
0
LINE
8
LEFT_HID
6
HIDDEN
10
1.876886
20
1.898284
30
0.0
11
1.934011
21
1.898284
31
0.0
0
LINE
8
LEFT_HID
6
HIDDEN
10
1.934011
20
1.898284
30
0.0
11
1.905449
21
1.898284
31
0.0
0
LINE
8
LEFT_HID
6
HIDDEN
10
3.140535
20
1.799534
30
0.0
11
3.111973
21
1.799534
31
0.0
0
LINE
8
LEFT_HID
6
HIDDEN
10
3.111973
20
1.799534
30
0.0
11
3.169098
21
1.799534
31
0.0
0
LINE
8
LEFT_HID
6
HIDDEN
10
3.169098
20
1.799534
30
0.0
11
3.140535
21
1.799534
31
0.0
0
LINE
8
LEFT_HID
6
HIDDEN
10
3.140535
20
1.898284
30
0.0
11
3.111973
21
1.898284
31
0.0
0
LINE
8
LEFT_HID
6
HIDDEN
10
3.111973
20
1.898284
30
0.0
11
3.169098
21
1.898284
31
0.0
0
LINE
8
LEFT_HID
6
HIDDEN
10
3.169098
20
1.898284
30
0.0
11
3.140535
21
1.898284
31
0.0
0
LINE
8
LEFT_HID
6
HIDDEN
10
2.904021
20
1.898284
30
0.0
11
2.904021
21
1.799534
31
0.0
0
LINE
8
LEFT_HID
6
HIDDEN
10
2.961146
20
1.898284
30
0.0
11
2.961146
21
1.799534
31
0.0
0
LINE
8
LEFT_HID
6
HIDDEN
10
1.876886
20
1.898284
30
0.0
11
1.876886
21
1.799534
31
0.0
0
LINE
8
LEFT_HID
6
HIDDEN
10
1.934011
20
1.898284
30
0.0
11
1.934011
21
1.799534
31
0.0
0
LINE
8
LEFT_HID
6
HIDDEN
10
3.111973
20
1.898284
30
0.0
11
3.111973
21
1.799534
31
0.0
0
LINE
8
LEFT_HID
6
HIDDEN
10
3.169098
20
1.898284
30
0.0
11
3.169098
21
1.799534
31
0.0
0
LINE
8
TOP
10
1.499068
20
0.749767
30
0.0
11
1.495341
21
0.824443
31
0.0
0
LINE
8
TOP
10
1.495341
20
0.824443
30
0.0
11
1.484197
21
0.898376
31
0.0
0
LINE
8
TOP
10
1.484197
20
0.898376
30
0.0
11
1.465747
21
0.970833
31
0.0
0
LINE
8
TOP
10
1.465747
20
0.970833
30
0.0
11
1.440175
21
1.041093
31
0.0
0
LINE
8
TOP
10
1.440175
20
1.041093
30
0.0
11
1.407734
21
1.108457
31
0.0
0
LINE
8
TOP
10
1.407734
20
1.108457
30
0.0
11
1.368747
21
1.172257
31
0.0
0
LINE
8
TOP
10
1.368747
20
1.172257
30
0.0
11
1.323601
21
1.231858
31
0.0
0
LINE
8
TOP
10
1.323601
20
1.231858
30
0.0
11
1.272745
21
1.286667
31
0.0
0
LINE
8
TOP
10
1.272745
20
1.286667
30
0.0
11
1.216685
21
1.336140
31
0.0
0
LINE
8
TOP
10
1.216685
20
1.336140
30
0.0
11
1.155977
21
1.379786
31
0.0
0
LINE
8
TOP
10
1.155977
20
1.379786
30
0.0
11
1.091226
21
1.417171
31
0.0
0
LINE
8
TOP
10
1.091226
20
1.417171
30
0.0
11
1.023073
21
1.447922
31
0.0
0
LINE
8
TOP
10
1.023073
20
1.447922
30
0.0
11
0.952198
21
1.471735
31
0.0
0
LINE
8
TOP
10
0.952198
20
1.471735
30
0.0
11
0.879304
21
1.488373
31
0.0
0
LINE
8
TOP
10
0.879304
20
1.488373
30
0.0
11
0.805115
21
1.497670
31
0.0
0
LINE
8
TOP
10
0.805115
20
1.497670
30
0.0
11
0.730370
21
1.499534
31
0.0
0
LINE
8
TOP
10
0.730370
20
1.499534
30
0.0
11
0.655810
21
1.493946
31
0.0
0
LINE
8
TOP
10
0.655810
20
1.493946
30
0.0
11
0.582177
21
1.480963
31
0.0
0
LINE
8
TOP
10
0.582177
20
1.480963
30
0.0
11
0.510203
21
1.460712
31
0.0
0
LINE
8
TOP
10
0.510203
20
1.460712
30
0.0
11
0.440602
21
1.433396
31
0.0
0
LINE
8
TOP
10
0.440602
20
1.433396
30
0.0
11
0.374068
21
1.399286
31
0.0
0
LINE
8
TOP
10
0.374068
20
1.399286
30
0.0
11
0.311260
21
1.358720
31
0.0
0
LINE
8
TOP
10
0.311260
20
1.358720
30
0.0
11
0.252803
21
1.312103
31
0.0
0
LINE
8
TOP
10
0.252803
20
1.312103
30
0.0
11
0.199279
21
1.259896
31
0.0
0
LINE
8
TOP
10
0.199279
20
1.259896
30
0.0
11
0.151218
21
1.202620
31
0.0
0
LINE
8
TOP
10
0.151218
20
1.202620
30
0.0
11
0.109100
21
1.140843
31
0.0
0
LINE
8
TOP
10
0.109100
20
1.140843
30
0.0
11
0.073341
21
1.075180
31
0.0
0
LINE
8
TOP
10
0.073341
20
1.075180
30
0.0
11
0.044298
21
1.006282
31
0.0
0
LINE
8
TOP
10
0.044298
20
1.006282
30
0.0
11
0.022260
21
0.934835
31
0.0
0
LINE
8
TOP
10
0.022260
20
0.934835
30
0.0
11
0.007445
21
0.861549
31
0.0
0
LINE
8
TOP
10
0.007445
20
0.861549
30
0.0
11
0.000000
21
0.787151
31
0.0
0
LINE
8
TOP
10
0.000000
20
0.787151
30
0.0
11
0.000000
21
0.712382
31
0.0
0
LINE
8
TOP
10
0.000000
20
0.712382
30
0.0
11
0.007445
21
0.637985
31
0.0
0
LINE
8
TOP
10
0.007445
20
0.637985
30
0.0
11
0.022260
21
0.564699
31
0.0
0
LINE
8
TOP
10
0.022260
20
0.564699
30
0.0
11
0.044298
21
0.493252
31
0.0
0
LINE
8
TOP
10
0.044298
20
0.493252
30
0.0
11
0.073341
21
0.424354
31
0.0
0
LINE
8
TOP
10
0.073341
20
0.424354
30
0.0
11
0.109100
21
0.358690
31
0.0
0
LINE
8
TOP
10
0.109100
20
0.358690
30
0.0
11
0.151218
21
0.296914
31
0.0
0
LINE
8
TOP
10
0.151218
20
0.296914
30
0.0
11
0.199279
21
0.239637
31
0.0
0
LINE
8
TOP
10
0.199279
20
0.239637
30
0.0
11
0.252803
21
0.187431
31
0.0
0
LINE
8
TOP
10
0.252803
20
0.187431
30
0.0
11
0.311260
21
0.140813
31
0.0
0
LINE
8
TOP
10
0.311260
20
0.140813
30
0.0
11
0.374068
21
0.100248
31
0.0
0
LINE
8
TOP
10
0.374068
20
0.100248
30
0.0
11
0.440602
21
0.066137
31
0.0
0
LINE
8
TOP
10
0.440602
20
0.066137
30
0.0
11
0.510203
21
0.038821
31
0.0
0
LINE
8
TOP
10
0.510203
20
0.038821
30
0.0
11
0.582177
21
0.018571
31
0.0
0
LINE
8
TOP
10
0.582177
20
0.018571
30
0.0
11
0.655810
21
0.005587
31
0.0
0
LINE
8
TOP
10
0.655810
20
0.005587
30
0.0
11
0.730370
21
0.000000
31
0.0
0
LINE
8
TOP
10
0.730370
20
0.000000
30
0.0
11
0.805115
21
0.001864
31
0.0
0
LINE
8
TOP
10
0.805115
20
0.001864
30
0.0
11
0.879304
21
0.011161
31
0.0
0
LINE
8
TOP
10
0.879304
20
0.011161
30
0.0
11
0.952198
21
0.027799
31
0.0
0
LINE
8
TOP
10
0.952198
20
0.027799
30
0.0
11
1.023073
21
0.051612
31
0.0
0
LINE
8
TOP
10
1.023073
20
0.051612
30
0.0
11
1.091226
21
0.082363
31
0.0
0
LINE
8
TOP
10
1.091226
20
0.082363
30
0.0
11
1.155977
21
0.119747
31
0.0
0
LINE
8
TOP
10
1.155977
20
0.119747
30
0.0
11
1.216685
21
0.163393
31
0.0
0
LINE
8
TOP
10
1.216685
20
0.163393
30
0.0
11
1.272745
21
0.212867
31
0.0
0
LINE
8
TOP
10
1.272745
20
0.212867
30
0.0
11
1.323601
21
0.267676
31
0.0
0
LINE
8
TOP
10
1.323601
20
0.267676
30
0.0
11
1.368747
21
0.327277
31
0.0
0
LINE
8
TOP
10
1.368747
20
0.327277
30
0.0
11
1.407734
21
0.391076
31
0.0
0
LINE
8
TOP
10
1.407734
20
0.391076
30
0.0
11
1.440175
21
0.458441
31
0.0
0
LINE
8
TOP
10
1.440175
20
0.458441
30
0.0
11
1.465747
21
0.528701
31
0.0
0
LINE
8
TOP
10
1.465747
20
0.528701
30
0.0
11
1.484197
21
0.601157
31
0.0
0
LINE
8
TOP
10
1.484197
20
0.601157
30
0.0
11
1.495341
21
0.675091
31
0.0
0
LINE
8
TOP
10
1.495341
20
0.675091
30
0.0
11
1.499068
21
0.749767
31
0.0
0
LINE
8
TOP
10
0.201382
20
0.367184
30
0.0
11
0.201240
21
0.370028
31
0.0
0
LINE
8
TOP
10
0.201240
20
0.370028
30
0.0
11
0.200816
21
0.372843
31
0.0
0
LINE
8
TOP
10
0.200816
20
0.372843
30
0.0
11
0.200113
21
0.375603
31
0.0
0
LINE
8
TOP
10
0.200113
20
0.375603
30
0.0
11
0.199139
21
0.378278
31
0.0
0
LINE
8
TOP
10
0.199139
20
0.378278
30
0.0
11
0.197904
21
0.380844
31
0.0
0
LINE
8
TOP
10
0.197904
20
0.380844
30
0.0
11
0.196419
21
0.383274
31
0.0
0
LINE
8
TOP
10
0.196419
20
0.383274
30
0.0
11
0.194700
21
0.385543
31
0.0
0
LINE
8
TOP
10
0.194700
20
0.385543
30
0.0
11
0.192763
21
0.387631
31
0.0
0
LINE
8
TOP
10
0.192763
20
0.387631
30
0.0
11
0.190628
21
0.389515
31
0.0
0
LINE
8
TOP
10
0.190628
20
0.389515
30
0.0
11
0.188316
21
0.391177
31
0.0
0
LINE
8
TOP
10
0.188316
20
0.391177
30
0.0
11
0.185850
21
0.392601
31
0.0
0
LINE
8
TOP
10
0.185850
20
0.392601
30
0.0
11
0.183255
21
0.393772
31
0.0
0
LINE
8
TOP
10
0.183255
20
0.393772
30
0.0
11
0.180555
21
0.394679
31
0.0
0
LINE
8
TOP
10
0.180555
20
0.394679
30
0.0
11
0.177779
21
0.395312
31
0.0
0
LINE
8
TOP
10
0.177779
20
0.395312
30
0.0
11
0.174954
21
0.395666
31
0.0
0
LINE
8
TOP
10
0.174954
20
0.395666
30
0.0
11
0.172107
21
0.395737
31
0.0
0
LINE
8
TOP
10
0.172107
20
0.395737
30
0.0
11
0.169268
21
0.395525
31
0.0
0
LINE
8
TOP
10
0.169268
20
0.395525
30
0.0
11
0.166464
21
0.395030
31
0.0
0
LINE
8
TOP
10
0.166464
20
0.395030
30
0.0
11
0.163723
21
0.394259
31
0.0
0
LINE
8
TOP
10
0.163723
20
0.394259
30
0.0
11
0.161072
21
0.393219
31
0.0
0
LINE
8
TOP
10
0.161072
20
0.393219
30
0.0
11
0.158538
21
0.391920
31
0.0
0
LINE
8
TOP
10
0.158538
20
0.391920
30
0.0
11
0.156146
21
0.390375
31
0.0
0
LINE
8
TOP
10
0.156146
20
0.390375
30
0.0
11
0.153920
21
0.388599
31
0.0
0
LINE
8
TOP
10
0.153920
20
0.388599
30
0.0
11
0.151882
21
0.386611
31
0.0
0
LINE
8
TOP
10
0.151882
20
0.386611
30
0.0
11
0.150051
21
0.384430
31
0.0
0
LINE
8
TOP
10
0.150051
20
0.384430
30
0.0
11
0.148447
21
0.382077
31
0.0
0
LINE
8
TOP
10
0.148447
20
0.382077
30
0.0
11
0.147086
21
0.379577
31
0.0
0
LINE
8
TOP
10
0.147086
20
0.379577
30
0.0
11
0.145980
21
0.376953
31
0.0
0
LINE
8
TOP
10
0.145980
20
0.376953
30
0.0
11
0.145140
21
0.374232
31
0.0
0
LINE
8
TOP
10
0.145140
20
0.374232
30
0.0
11
0.144576
21
0.371441
31
0.0
0
LINE
8
TOP
10
0.144576
20
0.371441
30
0.0
11
0.144293
21
0.368607
31
0.0
0
LINE
8
TOP
10
0.144293
20
0.368607
30
0.0
11
0.144293
21
0.365760
31
0.0
0
LINE
8
TOP
10
0.144293
20
0.365760
30
0.0
11
0.144576
21
0.362927
31
0.0
0
LINE
8
TOP
10
0.144576
20
0.362927
30
0.0
11
0.145140
21
0.360136
31
0.0
0
LINE
8
TOP
10
0.145140
20
0.360136
30
0.0
11
0.145980
21
0.357415
31
0.0
0
LINE
8
TOP
10
0.145980
20
0.357415
30
0.0
11
0.147086
21
0.354791
31
0.0
0
LINE
8
TOP
10
0.147086
20
0.354791
30
0.0
11
0.148447
21
0.352290
31
0.0
0
LINE
8
TOP
10
0.148447
20
0.352290
30
0.0
11
0.150051
21
0.349938
31
0.0
0
LINE
8
TOP
10
0.150051
20
0.349938
30
0.0
11
0.151882
21
0.347756
31
0.0
0
LINE
8
TOP
10
0.151882
20
0.347756
30
0.0
11
0.153920
21
0.345768
31
0.0
0
LINE
8
TOP
10
0.153920
20
0.345768
30
0.0
11
0.156146
21
0.343993
31
0.0
0
LINE
8
TOP
10
0.156146
20
0.343993
30
0.0
11
0.158538
21
0.342448
31
0.0
0
LINE
8
TOP
10
0.158538
20
0.342448
30
0.0
11
0.161072
21
0.341149
31
0.0
0
LINE
8
TOP
10
0.161072
20
0.341149
30
0.0
11
0.163723
21
0.340109
31
0.0
0
LINE
8
TOP
10
0.163723
20
0.340109
30
0.0
11
0.166464
21
0.339337
31
0.0
0
LINE
8
TOP
10
0.166464
20
0.339337
30
0.0
11
0.169268
21
0.338843
31
0.0
0
LINE
8
TOP
10
0.169268
20
0.338843
30
0.0
11
0.172107
21
0.338630
31
0.0
0
LINE
8
TOP
10
0.172107
20
0.338630
30
0.0
11
0.174954
21
0.338701
31
0.0
0
LINE
8
TOP
10
0.174954
20
0.338701
30
0.0
11
0.177779
21
0.339055
31
0.0
0
LINE
8
TOP
10
0.177779
20
0.339055
30
0.0
11
0.180555
21
0.339689
31
0.0
0
LINE
8
TOP
10
0.180555
20
0.339689
30
0.0
11
0.183255
21
0.340596
31
0.0
0
LINE
8
TOP
10
0.183255
20
0.340596
30
0.0
11
0.185850
21
0.341767
31
0.0
0
LINE
8
TOP
10
0.185850
20
0.341767
30
0.0
11
0.188316
21
0.343191
31
0.0
0
LINE
8
TOP
10
0.188316
20
0.343191
30
0.0
11
0.190628
21
0.344853
31
0.0
0
LINE
8
TOP
10
0.190628
20
0.344853
30
0.0
11
0.192763
21
0.346737
31
0.0
0
LINE
8
TOP
10
0.192763
20
0.346737
30
0.0
11
0.194700
21
0.348824
31
0.0
0
LINE
8
TOP
10
0.194700
20
0.348824
30
0.0
11
0.196419
21
0.351094
31
0.0
0
LINE
8
TOP
10
0.196419
20
0.351094
30
0.0
11
0.197904
21
0.353524
31
0.0
0
LINE
8
TOP
10
0.197904
20
0.353524
30
0.0
11
0.199139
21
0.356089
31
0.0
0
LINE
8
TOP
10
0.199139
20
0.356089
30
0.0
11
0.200113
21
0.358765
31
0.0
0
LINE
8
TOP
10
0.200113
20
0.358765
30
0.0
11
0.200816
21
0.361524
31
0.0
0
LINE
8
TOP
10
0.200816
20
0.361524
30
0.0
11
0.201240
21
0.364340
31
0.0
0
LINE
8
TOP
10
0.201240
20
0.364340
30
0.0
11
0.201382
21
0.367184
31
0.0
0
LINE
8
TOP
10
1.011005
20
1.394318
30
0.0
11
1.010863
21
1.397162
31
0.0
0
LINE
8
TOP
10
1.010863
20
1.397162
30
0.0
11
1.010439
21
1.399978
31
0.0
0
LINE
8
TOP
10
1.010439
20
1.399978
30
0.0
11
1.009736
21
1.402737
31
0.0
0
LINE
8
TOP
10
1.009736
20
1.402737
30
0.0
11
1.008762
21
1.405413
31
0.0
0
LINE
8
TOP
10
1.008762
20
1.405413
30
0.0
11
1.007527
21
1.407978
31
0.0
0
LINE
8
TOP
10
1.007527
20
1.407978
30
0.0
11
1.006042
21
1.410408
31
0.0
0
LINE
8
TOP
10
1.006042
20
1.410408
30
0.0
11
1.004323
21
1.412678
31
0.0
0
LINE
8
TOP
10
1.004323
20
1.412678
30
0.0
11
1.002386
21
1.414765
31
0.0
0
LINE
8
TOP
10
1.002386
20
1.414765
30
0.0
11
1.000251
21
1.416649
31
0.0
0
LINE
8
TOP
10
1.000251
20
1.416649
30
0.0
11
0.997939
21
1.418311
31
0.0
0
LINE
8
TOP
10
0.997939
20
1.418311
30
0.0
11
0.995473
21
1.419735
31
0.0
0
LINE
8
TOP
10
0.995473
20
1.419735
30
0.0
11
0.992878
21
1.420906
31
0.0
0
LINE
8
TOP
10
0.992878
20
1.420906
30
0.0
11
0.990179
21
1.421813
31
0.0
0
LINE
8
TOP
10
0.990179
20
1.421813
30
0.0
11
0.987403
21
1.422447
31
0.0
0
LINE
8
TOP
10
0.987403
20
1.422447
30
0.0
11
0.984577
21
1.422801
31
0.0
0
LINE
8
TOP
10
0.984577
20
1.422801
30
0.0
11
0.981731
21
1.422872
31
0.0
0
LINE
8
TOP
10
0.981731
20
1.422872
30
0.0
11
0.978891
21
1.422659
31
0.0
0
LINE
8
TOP
10
0.978891
20
1.422659
30
0.0
11
0.976087
21
1.422165
31
0.0
0
LINE
8
TOP
10
0.976087
20
1.422165
30
0.0
11
0.973346
21
1.421393
31
0.0
0
LINE
8
TOP
10
0.973346
20
1.421393
30
0.0
11
0.970695
21
1.420353
31
0.0
0
LINE
8
TOP
10
0.970695
20
1.420353
30
0.0
11
0.968161
21
1.419054
31
0.0
0
LINE
8
TOP
10
0.968161
20
1.419054
30
0.0
11
0.965770
21
1.417509
31
0.0
0
LINE
8
TOP
10
0.965770
20
1.417509
30
0.0
11
0.963543
21
1.415734
31
0.0
0
LINE
8
TOP
10
0.963543
20
1.415734
30
0.0
11
0.961505
21
1.413746
31
0.0
0
LINE
8
TOP
10
0.961505
20
1.413746
30
0.0
11
0.959675
21
1.411564
31
0.0
0
LINE
8
TOP
10
0.959675
20
1.411564
30
0.0
11
0.958071
21
1.409212
31
0.0
0
LINE
8
TOP
10
0.958071
20
1.409212
30
0.0
11
0.956709
21
1.406711
31
0.0
0
LINE
8
TOP
10
0.956709
20
1.406711
30
0.0
11
0.955603
21
1.404087
31
0.0
0
LINE
8
TOP
10
0.955603
20
1.404087
30
0.0
11
0.954763
21
1.401366
31
0.0
0
LINE
8
TOP
10
0.954763
20
1.401366
30
0.0
11
0.954199
21
1.398575
31
0.0
0
LINE
8
TOP
10
0.954199
20
1.398575
30
0.0
11
0.953916
21
1.395742
31
0.0
0
LINE
8
TOP
10
0.953916
20
1.395742
30
0.0
11
0.953916
21
1.392894
31
0.0
0
LINE
8
TOP
10
0.953916
20
1.392894
30
0.0
11
0.954199
21
1.390061
31
0.0
0
LINE
8
TOP
10
0.954199
20
1.390061
30
0.0
11
0.954763
21
1.387270
31
0.0
0
LINE
8
TOP
10
0.954763
20
1.387270
30
0.0
11
0.955603
21
1.384549
31
0.0
0
LINE
8
TOP
10
0.955603
20
1.384549
30
0.0
11
0.956709
21
1.381925
31
0.0
0
LINE
8
TOP
10
0.956709
20
1.381925
30
0.0
11
0.958071
21
1.379425
31
0.0
0
LINE
8
TOP
10
0.958071
20
1.379425
30
0.0
11
0.959675
21
1.377072
31
0.0
0
LINE
8
TOP
10
0.959675
20
1.377072
30
0.0
11
0.961505
21
1.374891
31
0.0
0
LINE
8
TOP
10
0.961505
20
1.374891
30
0.0
11
0.963543
21
1.372903
31
0.0
0
LINE
8
TOP
10
0.963543
20
1.372903
30
0.0
11
0.965770
21
1.371127
31
0.0
0
LINE
8
TOP
10
0.965770
20
1.371127
30
0.0
11
0.968161
21
1.369582
31
0.0
0
LINE
8
TOP
10
0.968161
20
1.369582
30
0.0
11
0.970695
21
1.368283
31
0.0
0
LINE
8
TOP
10
0.970695
20
1.368283
30
0.0
11
0.973346
21
1.367243
31
0.0
0
LINE
8
TOP
10
0.973346
20
1.367243
30
0.0
11
0.976087
21
1.366472
31
0.0
0
LINE
8
TOP
10
0.976087
20
1.366472
30
0.0
11
0.978891
21
1.365977
31
0.0
0
LINE
8
TOP
10
0.978891
20
1.365977
30
0.0
11
0.981731
21
1.365765
31
0.0
0
LINE
8
TOP
10
0.981731
20
1.365765
30
0.0
11
0.984577
21
1.365836
31
0.0
0
LINE
8
TOP
10
0.984577
20
1.365836
30
0.0
11
0.987403
21
1.366190
31
0.0
0
LINE
8
TOP
10
0.987403
20
1.366190
30
0.0
11
0.990179
21
1.366823
31
0.0
0
LINE
8
TOP
10
0.990179
20
1.366823
30
0.0
11
0.992878
21
1.367730
31
0.0
0
LINE
8
TOP
10
0.992878
20
1.367730
30
0.0
11
0.995473
21
1.368901
31
0.0
0
LINE
8
TOP
10
0.995473
20
1.368901
30
0.0
11
0.997939
21
1.370325
31
0.0
0
LINE
8
TOP
10
0.997939
20
1.370325
30
0.0
11
1.000251
21
1.371987
31
0.0
0
LINE
8
TOP
10
1.000251
20
1.371987
30
0.0
11
1.002386
21
1.373871
31
0.0
0
LINE
8
TOP
10
1.002386
20
1.373871
30
0.0
11
1.004323
21
1.375959
31
0.0
0
LINE
8
TOP
10
1.004323
20
1.375959
30
0.0
11
1.006042
21
1.378228
31
0.0
0
LINE
8
TOP
10
1.006042
20
1.378228
30
0.0
11
1.007527
21
1.380658
31
0.0
0
LINE
8
TOP
10
1.007527
20
1.380658
30
0.0
11
1.008762
21
1.383223
31
0.0
0
LINE
8
TOP
10
1.008762
20
1.383223
30
0.0
11
1.009736
21
1.385899
31
0.0
0
LINE
8
TOP
10
1.009736
20
1.385899
30
0.0
11
1.010439
21
1.388659
31
0.0
0
LINE
8
TOP
10
1.010439
20
1.388659
30
0.0
11
1.010863
21
1.391474
31
0.0
0
LINE
8
TOP
10
1.010863
20
1.391474
30
0.0
11
1.011005
21
1.394318
31
0.0
0
LINE
8
TOP
10
1.161803
20
0.159232
30
0.0
11
1.161661
21
0.162076
31
0.0
0
LINE
8
TOP
10
1.161661
20
0.162076
30
0.0
11
1.161236
21
0.164891
31
0.0
0
LINE
8
TOP
10
1.161236
20
0.164891
30
0.0
11
1.160534
21
0.167651
31
0.0
0
LINE
8
TOP
10
1.160534
20
0.167651
30
0.0
11
1.159560
21
0.170327
31
0.0
0
LINE
8
TOP
10
1.159560
20
0.170327
30
0.0
11
1.158324
21
0.172892
31
0.0
0
LINE
8
TOP
10
1.158324
20
0.172892
30
0.0
11
1.156840
21
0.175322
31
0.0
0
LINE
8
TOP
10
1.156840
20
0.175322
30
0.0
11
1.155120
21
0.177592
31
0.0
0
LINE
8
TOP
10
1.155120
20
0.177592
30
0.0
11
1.153184
21
0.179679
31
0.0
0
LINE
8
TOP
10
1.153184
20
0.179679
30
0.0
11
1.151049
21
0.181563
31
0.0
0
LINE
8
TOP
10
1.151049
20
0.181563
30
0.0
11
1.148737
21
0.183225
31
0.0
0
LINE
8
TOP
10
1.148737
20
0.183225
30
0.0
11
1.146271
21
0.184649
31
0.0
0
LINE
8
TOP
10
1.146271
20
0.184649
30
0.0
11
1.143675
21
0.185820
31
0.0
0
LINE
8
TOP
10
1.143675
20
0.185820
30
0.0
11
1.140976
21
0.186727
31
0.0
0
LINE
8
TOP
10
1.140976
20
0.186727
30
0.0
11
1.138200
21
0.187360
31
0.0
0
LINE
8
TOP
10
1.138200
20
0.187360
30
0.0
11
1.135375
21
0.187715
31
0.0
0
LINE
8
TOP
10
1.135375
20
0.187715
30
0.0
11
1.132528
21
0.187786
31
0.0
0
LINE
8
TOP
10
1.132528
20
0.187786
30
0.0
11
1.129689
21
0.187573
31
0.0
0
LINE
8
TOP
10
1.129689
20
0.187573
30
0.0
11
1.126884
21
0.187078
31
0.0
0
LINE
8
TOP
10
1.126884
20
0.187078
30
0.0
11
1.124143
21
0.186307
31
0.0
0
LINE
8
TOP
10
1.124143
20
0.186307
30
0.0
11
1.121493
21
0.185267
31
0.0
0
LINE
8
TOP
10
1.121493
20
0.185267
30
0.0
11
1.118959
21
0.183968
31
0.0
0
LINE
8
TOP
10
1.118959
20
0.183968
30
0.0
11
1.116567
21
0.182423
31
0.0
0
LINE
8
TOP
10
1.116567
20
0.182423
30
0.0
11
1.114341
21
0.180648
31
0.0
0
LINE
8
TOP
10
1.114341
20
0.180648
30
0.0
11
1.112302
21
0.178659
31
0.0
0
LINE
8
TOP
10
1.112302
20
0.178659
30
0.0
11
1.110472
21
0.176478
31
0.0
0
LINE
8
TOP
10
1.110472
20
0.176478
30
0.0
11
1.108868
21
0.174125
31
0.0
0
LINE
8
TOP
10
1.108868
20
0.174125
30
0.0
11
1.107506
21
0.171625
31
0.0
0
LINE
8
TOP
10
1.107506
20
0.171625
30
0.0
11
1.106400
21
0.169001
31
0.0
0
LINE
8
TOP
10
1.106400
20
0.169001
30
0.0
11
1.105561
21
0.166280
31
0.0
0
LINE
8
TOP
10
1.105561
20
0.166280
30
0.0
11
1.104997
21
0.163489
31
0.0
0
LINE
8
TOP
10
1.104997
20
0.163489
30
0.0
11
1.104713
21
0.160656
31
0.0
0
LINE
8
TOP
10
1.104713
20
0.160656
30
0.0
11
1.104713
21
0.157808
31
0.0
0
LINE
8
TOP
10
1.104713
20
0.157808
30
0.0
11
1.104997
21
0.154975
31
0.0
0
LINE
8
TOP
10
1.104997
20
0.154975
30
0.0
11
1.105561
21
0.152184
31
0.0
0
LINE
8
TOP
10
1.105561
20
0.152184
30
0.0
11
1.106400
21
0.149463
31
0.0
0
LINE
8
TOP
10
1.106400
20
0.149463
30
0.0
11
1.107506
21
0.146839
31
0.0
0
LINE
8
TOP
10
1.107506
20
0.146839
30
0.0
11
1.108868
21
0.144338
31
0.0
0
LINE
8
TOP
10
1.108868
20
0.144338
30
0.0
11
1.110472
21
0.141986
31
0.0
0
LINE
8
TOP
10
1.110472
20
0.141986
30
0.0
11
1.112302
21
0.139804
31
0.0
0
LINE
8
TOP
10
1.112302
20
0.139804
30
0.0
11
1.114341
21
0.137816
31
0.0
0
LINE
8
TOP
10
1.114341
20
0.137816
30
0.0
11
1.116567
21
0.136041
31
0.0
0
LINE
8
TOP
10
1.116567
20
0.136041
30
0.0
11
1.118959
21
0.134496
31
0.0
0
LINE
8
TOP
10
1.118959
20
0.134496
30
0.0
11
1.121493
21
0.133197
31
0.0
0
LINE
8
TOP
10
1.121493
20
0.133197
30
0.0
11
1.124143
21
0.132157
31
0.0
0
LINE
8
TOP
10
1.124143
20
0.132157
30
0.0
11
1.126884
21
0.131386
31
0.0
0
LINE
8
TOP
10
1.126884
20
0.131386
30
0.0
11
1.129689
21
0.130891
31
0.0
0
LINE
8
TOP
10
1.129689
20
0.130891
30
0.0
11
1.132528
21
0.130678
31
0.0
0
LINE
8
TOP
10
1.132528
20
0.130678
30
0.0
11
1.135375
21
0.130749
31
0.0
0
LINE
8
TOP
10
1.135375
20
0.130749
30
0.0
11
1.138200
21
0.131103
31
0.0
0
LINE
8
TOP
10
1.138200
20
0.131103
30
0.0
11
1.140976
21
0.131737
31
0.0
0
LINE
8
TOP
10
1.140976
20
0.131737
30
0.0
11
1.143675
21
0.132644
31
0.0
0
LINE
8
TOP
10
1.143675
20
0.132644
30
0.0
11
1.146271
21
0.133815
31
0.0
0
LINE
8
TOP
10
1.146271
20
0.133815
30
0.0
11
1.148737
21
0.135239
31
0.0
0
LINE
8
TOP
10
1.148737
20
0.135239
30
0.0
11
1.151049
21
0.136901
31
0.0
0
LINE
8
TOP
10
1.151049
20
0.136901
30
0.0
11
1.153184
21
0.138785
31
0.0
0
LINE
8
TOP
10
1.153184
20
0.138785
30
0.0
11
1.155120
21
0.140872
31
0.0
0
LINE
8
TOP
10
1.155120
20
0.140872
30
0.0
11
1.156840
21
0.143142
31
0.0
0
LINE
8
TOP
10
1.156840
20
0.143142
30
0.0
11
1.158324
21
0.145572
31
0.0
0
LINE
8
TOP
10
1.158324
20
0.145572
30
0.0
11
1.159560
21
0.148137
31
0.0
0
LINE
8
TOP
10
1.159560
20
0.148137
30
0.0
11
1.160534
21
0.150813
31
0.0
0
LINE
8
TOP
10
1.160534
20
0.150813
30
0.0
11
1.161236
21
0.153572
31
0.0
0
LINE
8
TOP
10
1.161236
20
0.153572
30
0.0
11
1.161661
21
0.156388
31
0.0
0
LINE
8
TOP
10
1.161661
20
0.156388
30
0.0
11
1.161803
21
0.159232
31
0.0
0
ENDSEC
0
EOF
