0
SECTION
2
HEADER
9
$ACADVER
1
AC1009
0
ENDSEC
0
SECTION
2
TABLES
0
TABLE
2
LTYPE
70
3
0
LTYPE
2
CONTINUOUS
70
0
3
Solid line
72
65
73
0
40
0.0
0
LTYPE
2
HIDDEN
70
0
3
__ __ __ __ __
72
65
73
2
40
0.045671
49
0.030463
49
-0.015208
0
LTYPE
2
CENTER
70
0
3
___ _ ___ _ ___
72
65
73
4
40
0.106550
49
0.060879
49
-0.015208
49
0.015208
49
-0.015208
0
ENDTAB
0
TABLE
2
LAYER
70
7
0
LAYER
2
0
70
0
62
7
6
CONTINUOUS
0
LAYER
2
FRONT
70
0
62
7
6
CONTINUOUS
0
LAYER
2
FRONT_HID
70
0
62
7
6
HIDDEN
0
LAYER
2
LEFT
70
0
62
7
6
CONTINUOUS
0
LAYER
2
LEFT_HID
70
0
62
7
6
HIDDEN
0
LAYER
2
TOP
70
0
62
7
6
CONTINUOUS
0
LAYER
2
TOP_HID
70
0
62
7
6
HIDDEN
0
ENDTAB
0
ENDSEC
0
SECTION
2
ENTITIES
0
LINE
8
FRONT
10
0.000000
20
1.096104
30
0.0
11
0.000000
21
1.232693
31
0.0
0
LINE
8
FRONT
10
0.304106
20
1.096104
30
0.0
11
0.304106
21
1.232693
31
0.0
0
LINE
8
FRONT
10
0.304106
20
1.232693
30
0.0
11
0.000000
21
1.232693
31
0.0
0
LINE
8
FRONT
10
0.304106
20
1.096104
30
0.0
11
0.000000
21
1.096104
31
0.0
0
LINE
8
FRONT
10
0.331080
20
1.203424
30
0.0
11
0.331080
21
1.178057
31
0.0
0
LINE
8
FRONT
10
0.403826
20
1.203424
30
0.0
11
0.403826
21
1.178057
31
0.0
0
LINE
8
FRONT
10
0.476573
20
1.203424
30
0.0
11
0.476573
21
1.178057
31
0.0
0
LINE
8
FRONT
10
0.549320
20
1.203424
30
0.0
11
0.549320
21
1.178057
31
0.0
0
LINE
8
FRONT
10
0.622066
20
1.203424
30
0.0
11
0.622066
21
1.178057
31
0.0
0
LINE
8
FRONT
10
0.694813
20
1.203424
30
0.0
11
0.694813
21
1.178057
31
0.0
0
LINE
8
FRONT
10
0.738292
20
1.096104
30
0.0
11
0.316513
21
1.096104
31
0.0
0
LINE
8
FRONT
10
0.316513
20
1.096104
30
0.0
11
0.304106
21
1.096104
31
0.0
0
LINE
8
FRONT
10
0.750000
20
1.232693
30
0.0
11
0.738292
21
1.232693
31
0.0
0
LINE
8
FRONT
10
0.738292
20
1.232693
30
0.0
11
0.316513
21
1.232693
31
0.0
0
LINE
8
FRONT
10
0.316513
20
1.232693
30
0.0
11
0.304106
21
1.232693
31
0.0
0
LINE
8
FRONT
10
0.316513
20
1.096104
30
0.0
11
0.316513
21
1.232693
31
0.0
0
LINE
8
FRONT
10
0.750000
20
1.096104
30
0.0
11
0.750000
21
1.232693
31
0.0
0
LINE
8
FRONT
10
0.318673
20
1.203424
30
0.0
11
0.318673
21
1.178057
31
0.0
0
LINE
8
FRONT
10
0.353792
20
1.203424
30
0.0
11
0.318673
21
1.203424
31
0.0
0
LINE
8
FRONT
10
0.318673
20
1.178057
30
0.0
11
0.353792
21
1.178057
31
0.0
0
LINE
8
FRONT
10
0.353792
20
1.178057
30
0.0
11
0.353792
21
1.203424
31
0.0
0
LINE
8
FRONT
10
0.391420
20
1.203424
30
0.0
11
0.391420
21
1.178057
31
0.0
0
LINE
8
FRONT
10
0.426539
20
1.203424
30
0.0
11
0.391420
21
1.203424
31
0.0
0
LINE
8
FRONT
10
0.391420
20
1.178057
30
0.0
11
0.426539
21
1.178057
31
0.0
0
LINE
8
FRONT
10
0.426539
20
1.178057
30
0.0
11
0.426539
21
1.203424
31
0.0
0
LINE
8
FRONT
10
0.464167
20
1.203424
30
0.0
11
0.464167
21
1.178057
31
0.0
0
LINE
8
FRONT
10
0.499286
20
1.203424
30
0.0
11
0.464167
21
1.203424
31
0.0
0
LINE
8
FRONT
10
0.464167
20
1.178057
30
0.0
11
0.499286
21
1.178057
31
0.0
0
LINE
8
FRONT
10
0.499286
20
1.178057
30
0.0
11
0.499286
21
1.203424
31
0.0
0
LINE
8
FRONT
10
0.536913
20
1.203424
30
0.0
11
0.536913
21
1.178057
31
0.0
0
LINE
8
FRONT
10
0.572032
20
1.203424
30
0.0
11
0.536913
21
1.203424
31
0.0
0
LINE
8
FRONT
10
0.536913
20
1.178057
30
0.0
11
0.572032
21
1.178057
31
0.0
0
LINE
8
FRONT
10
0.572032
20
1.178057
30
0.0
11
0.572032
21
1.203424
31
0.0
0
LINE
8
FRONT
10
0.609660
20
1.203424
30
0.0
11
0.609660
21
1.178057
31
0.0
0
LINE
8
FRONT
10
0.644779
20
1.203424
30
0.0
11
0.609660
21
1.203424
31
0.0
0
LINE
8
FRONT
10
0.609660
20
1.178057
30
0.0
11
0.644779
21
1.178057
31
0.0
0
LINE
8
FRONT
10
0.644779
20
1.178057
30
0.0
11
0.644779
21
1.203424
31
0.0
0
LINE
8
FRONT
10
0.682406
20
1.203424
30
0.0
11
0.682406
21
1.178057
31
0.0
0
LINE
8
FRONT
10
0.717525
20
1.203424
30
0.0
11
0.682406
21
1.203424
31
0.0
0
LINE
8
FRONT
10
0.717525
20
1.178057
30
0.0
11
0.717525
21
1.203424
31
0.0
0
LINE
8
FRONT
10
0.682406
20
1.178057
30
0.0
11
0.717525
21
1.178057
31
0.0
0
LINE
8
FRONT
10
0.738292
20
1.096104
30
0.0
11
0.738292
21
1.232693
31
0.0
0
LINE
8
FRONT
10
0.750000
20
1.096104
30
0.0
11
0.738292
21
1.096104
31
0.0
0
LINE
8
FRONT_HID
6
HIDDEN
10
0.000000
20
1.232693
30
0.0
11
0.311012
21
1.232693
31
0.0
0
LINE
8
FRONT_HID
6
HIDDEN
10
0.311012
20
1.096104
30
0.0
11
0.311012
21
1.232693
31
0.0
0
LINE
8
FRONT_HID
6
HIDDEN
10
0.000000
20
1.096104
30
0.0
11
0.311012
21
1.096104
31
0.0
0
LINE
8
FRONT_HID
6
HIDDEN
10
0.311012
20
1.232693
30
0.0
11
0.750000
21
1.232693
31
0.0
0
LINE
8
FRONT_HID
6
HIDDEN
10
0.311012
20
1.096104
30
0.0
11
0.750000
21
1.096104
31
0.0
0
LINE
8
FRONT_HID
6
HIDDEN
10
0.331080
20
1.178057
30
0.0
11
0.366199
21
1.178057
31
0.0
0
LINE
8
FRONT_HID
6
HIDDEN
10
0.366199
20
1.178057
30
0.0
11
0.366199
21
1.203424
31
0.0
0
LINE
8
FRONT_HID
6
HIDDEN
10
0.366199
20
1.203424
30
0.0
11
0.331080
21
1.203424
31
0.0
0
LINE
8
FRONT_HID
6
HIDDEN
10
0.403826
20
1.178057
30
0.0
11
0.438945
21
1.178057
31
0.0
0
LINE
8
FRONT_HID
6
HIDDEN
10
0.438945
20
1.178057
30
0.0
11
0.438945
21
1.203424
31
0.0
0
LINE
8
FRONT_HID
6
HIDDEN
10
0.438945
20
1.203424
30
0.0
11
0.403826
21
1.203424
31
0.0
0
LINE
8
FRONT_HID
6
HIDDEN
10
0.476573
20
1.178057
30
0.0
11
0.511692
21
1.178057
31
0.0
0
LINE
8
FRONT_HID
6
HIDDEN
10
0.511692
20
1.178057
30
0.0
11
0.511692
21
1.203424
31
0.0
0
LINE
8
FRONT_HID
6
HIDDEN
10
0.511692
20
1.203424
30
0.0
11
0.476573
21
1.203424
31
0.0
0
LINE
8
FRONT_HID
6
HIDDEN
10
0.549320
20
1.178057
30
0.0
11
0.584439
21
1.178057
31
0.0
0
LINE
8
FRONT_HID
6
HIDDEN
10
0.584439
20
1.178057
30
0.0
11
0.584439
21
1.203424
31
0.0
0
LINE
8
FRONT_HID
6
HIDDEN
10
0.584439
20
1.203424
30
0.0
11
0.549320
21
1.203424
31
0.0
0
LINE
8
FRONT_HID
6
HIDDEN
10
0.622066
20
1.178057
30
0.0
11
0.657185
21
1.178057
31
0.0
0
LINE
8
FRONT_HID
6
HIDDEN
10
0.657185
20
1.178057
30
0.0
11
0.657185
21
1.203424
31
0.0
0
LINE
8
FRONT_HID
6
HIDDEN
10
0.657185
20
1.203424
30
0.0
11
0.622066
21
1.203424
31
0.0
0
LINE
8
FRONT_HID
6
HIDDEN
10
0.694813
20
1.178057
30
0.0
11
0.729932
21
1.178057
31
0.0
0
LINE
8
FRONT_HID
6
HIDDEN
10
0.729932
20
1.178057
30
0.0
11
0.729932
21
1.203424
31
0.0
0
LINE
8
FRONT_HID
6
HIDDEN
10
0.729932
20
1.203424
30
0.0
11
0.694813
21
1.203424
31
0.0
0
LINE
8
FRONT_HID
6
HIDDEN
10
0.316513
20
1.096104
30
0.0
11
0.309015
21
1.096104
31
0.0
0
LINE
8
FRONT_HID
6
HIDDEN
10
0.309015
20
1.096104
30
0.0
11
0.022817
21
1.096104
31
0.0
0
LINE
8
FRONT_HID
6
HIDDEN
10
0.022817
20
1.096104
30
0.0
11
0.316513
21
1.096104
31
0.0
0
LINE
8
FRONT_HID
6
HIDDEN
10
0.316513
20
1.232693
30
0.0
11
0.309015
21
1.232693
31
0.0
0
LINE
8
FRONT_HID
6
HIDDEN
10
0.309015
20
1.232693
30
0.0
11
0.022817
21
1.232693
31
0.0
0
LINE
8
FRONT_HID
6
HIDDEN
10
0.022817
20
1.232693
30
0.0
11
0.316513
21
1.232693
31
0.0
0
LINE
8
FRONT_HID
6
HIDDEN
10
0.750000
20
1.096104
30
0.0
11
0.750000
21
1.181960
31
0.0
0
LINE
8
FRONT_HID
6
HIDDEN
10
0.750000
20
1.181960
30
0.0
11
0.750000
21
1.096104
31
0.0
0
LINE
8
FRONT_HID
6
HIDDEN
10
0.331080
20
1.203424
30
0.0
11
0.318673
21
1.203424
31
0.0
0
LINE
8
FRONT_HID
6
HIDDEN
10
0.331080
20
1.178057
30
0.0
11
0.318673
21
1.178057
31
0.0
0
LINE
8
FRONT_HID
6
HIDDEN
10
0.366199
20
1.203424
30
0.0
11
0.353792
21
1.203424
31
0.0
0
LINE
8
FRONT_HID
6
HIDDEN
10
0.366199
20
1.178057
30
0.0
11
0.353792
21
1.178057
31
0.0
0
LINE
8
FRONT_HID
6
HIDDEN
10
0.403826
20
1.203424
30
0.0
11
0.391420
21
1.203424
31
0.0
0
LINE
8
FRONT_HID
6
HIDDEN
10
0.403826
20
1.178057
30
0.0
11
0.391420
21
1.178057
31
0.0
0
LINE
8
FRONT_HID
6
HIDDEN
10
0.438945
20
1.203424
30
0.0
11
0.426539
21
1.203424
31
0.0
0
LINE
8
FRONT_HID
6
HIDDEN
10
0.438945
20
1.178057
30
0.0
11
0.426539
21
1.178057
31
0.0
0
LINE
8
FRONT_HID
6
HIDDEN
10
0.476573
20
1.203424
30
0.0
11
0.464167
21
1.203424
31
0.0
0
LINE
8
FRONT_HID
6
HIDDEN
10
0.476573
20
1.178057
30
0.0
11
0.464167
21
1.178057
31
0.0
0
LINE
8
FRONT_HID
6
HIDDEN
10
0.511692
20
1.203424
30
0.0
11
0.499286
21
1.203424
31
0.0
0
LINE
8
FRONT_HID
6
HIDDEN
10
0.511692
20
1.178057
30
0.0
11
0.499286
21
1.178057
31
0.0
0
LINE
8
FRONT_HID
6
HIDDEN
10
0.549320
20
1.203424
30
0.0
11
0.536913
21
1.203424
31
0.0
0
LINE
8
FRONT_HID
6
HIDDEN
10
0.549320
20
1.178057
30
0.0
11
0.536913
21
1.178057
31
0.0
0
LINE
8
FRONT_HID
6
HIDDEN
10
0.584439
20
1.203424
30
0.0
11
0.572032
21
1.203424
31
0.0
0
LINE
8
FRONT_HID
6
HIDDEN
10
0.584439
20
1.178057
30
0.0
11
0.572032
21
1.178057
31
0.0
0
LINE
8
FRONT_HID
6
HIDDEN
10
0.622066
20
1.203424
30
0.0
11
0.609660
21
1.203424
31
0.0
0
LINE
8
FRONT_HID
6
HIDDEN
10
0.622066
20
1.178057
30
0.0
11
0.609660
21
1.178057
31
0.0
0
LINE
8
FRONT_HID
6
HIDDEN
10
0.657185
20
1.203424
30
0.0
11
0.644779
21
1.203424
31
0.0
0
LINE
8
FRONT_HID
6
HIDDEN
10
0.657185
20
1.178057
30
0.0
11
0.644779
21
1.178057
31
0.0
0
LINE
8
FRONT_HID
6
HIDDEN
10
0.694813
20
1.203424
30
0.0
11
0.682406
21
1.203424
31
0.0
0
LINE
8
FRONT_HID
6
HIDDEN
10
0.694813
20
1.178057
30
0.0
11
0.682406
21
1.178057
31
0.0
0
LINE
8
FRONT_HID
6
HIDDEN
10
0.729932
20
1.203424
30
0.0
11
0.717525
21
1.203424
31
0.0
0
LINE
8
FRONT_HID
6
HIDDEN
10
0.729932
20
1.178057
30
0.0
11
0.717525
21
1.178057
31
0.0
0
LINE
8
FRONT_HID
6
HIDDEN
10
0.022817
20
1.096104
30
0.0
11
0.022817
21
1.232693
31
0.0
0
LINE
8
FRONT_HID
6
HIDDEN
10
0.309015
20
1.096104
30
0.0
11
0.309015
21
1.232693
31
0.0
0
LINE
8
FRONT_HID
6
HIDDEN
10
0.738292
20
1.181960
30
0.0
11
0.738292
21
1.096104
31
0.0
0
LINE
8
FRONT_HID
6
HIDDEN
10
0.738292
20
1.096104
30
0.0
11
0.738292
21
1.181960
31
0.0
0
LINE
8
FRONT_HID
6
HIDDEN
10
0.750000
20
1.181960
30
0.0
11
0.738292
21
1.181960
31
0.0
0
LINE
8
FRONT_HID
6
HIDDEN
10
0.750000
20
1.181960
30
0.0
11
0.738292
21
1.181960
31
0.0
0
LINE
8
LEFT
10
1.585134
20
1.096104
30
0.0
11
1.585134
21
1.232693
31
0.0
0
LINE
8
LEFT
10
1.585134
20
1.232693
30
0.0
11
1.846104
21
1.232693
31
0.0
0
LINE
8
LEFT
10
1.846104
20
1.096104
30
0.0
11
1.846104
21
1.232693
31
0.0
0
LINE
8
LEFT
10
1.585134
20
1.096104
30
0.0
11
1.846104
21
1.096104
31
0.0
0
LINE
8
LEFT
10
1.222715
20
1.096104
30
0.0
11
1.222715
21
1.232693
31
0.0
0
LINE
8
LEFT
10
1.222715
20
1.232693
30
0.0
11
1.585134
21
1.232693
31
0.0
0
LINE
8
LEFT
10
1.222715
20
1.096104
30
0.0
11
1.585134
21
1.096104
31
0.0
0
LINE
8
LEFT
10
0.932684
20
1.232693
30
0.0
11
1.222715
21
1.232693
31
0.0
0
LINE
8
LEFT
10
0.932684
20
1.096104
30
0.0
11
1.222715
21
1.096104
31
0.0
0
LINE
8
LEFT
10
0.932684
20
1.096104
30
0.0
11
0.932684
21
1.232693
31
0.0
0
LINE
8
LEFT_HID
6
HIDDEN
10
1.846104
20
1.232693
30
0.0
11
1.322938
21
1.232693
31
0.0
0
LINE
8
LEFT_HID
6
HIDDEN
10
1.322938
20
1.096104
30
0.0
11
1.322938
21
1.232693
31
0.0
0
LINE
8
LEFT_HID
6
HIDDEN
10
1.846104
20
1.096104
30
0.0
11
1.322938
21
1.096104
31
0.0
0
LINE
8
LEFT_HID
6
HIDDEN
10
1.822188
20
1.203424
30
0.0
11
1.822188
21
1.178057
31
0.0
0
LINE
8
LEFT_HID
6
HIDDEN
10
1.822188
20
1.178057
30
0.0
11
1.780334
21
1.178057
31
0.0
0
LINE
8
LEFT_HID
6
HIDDEN
10
1.780334
20
1.178057
30
0.0
11
1.780334
21
1.203424
31
0.0
0
LINE
8
LEFT_HID
6
HIDDEN
10
1.780334
20
1.203424
30
0.0
11
1.822188
21
1.203424
31
0.0
0
LINE
8
LEFT_HID
6
HIDDEN
10
1.735492
20
1.203424
30
0.0
11
1.735492
21
1.178057
31
0.0
0
LINE
8
LEFT_HID
6
HIDDEN
10
1.735492
20
1.178057
30
0.0
11
1.693638
21
1.178057
31
0.0
0
LINE
8
LEFT_HID
6
HIDDEN
10
1.693638
20
1.178057
30
0.0
11
1.693638
21
1.203424
31
0.0
0
LINE
8
LEFT_HID
6
HIDDEN
10
1.693638
20
1.203424
30
0.0
11
1.735492
21
1.203424
31
0.0
0
LINE
8
LEFT_HID
6
HIDDEN
10
1.648796
20
1.203424
30
0.0
11
1.648796
21
1.178057
31
0.0
0
LINE
8
LEFT_HID
6
HIDDEN
10
1.648796
20
1.178057
30
0.0
11
1.606942
21
1.178057
31
0.0
0
LINE
8
LEFT_HID
6
HIDDEN
10
1.606942
20
1.178057
30
0.0
11
1.606942
21
1.203424
31
0.0
0
LINE
8
LEFT_HID
6
HIDDEN
10
1.606942
20
1.203424
30
0.0
11
1.648796
21
1.203424
31
0.0
0
LINE
8
LEFT_HID
6
HIDDEN
10
1.562100
20
1.203424
30
0.0
11
1.562100
21
1.178057
31
0.0
0
LINE
8
LEFT_HID
6
HIDDEN
10
1.562100
20
1.178057
30
0.0
11
1.520246
21
1.178057
31
0.0
0
LINE
8
LEFT_HID
6
HIDDEN
10
1.520246
20
1.178057
30
0.0
11
1.520246
21
1.203424
31
0.0
0
LINE
8
LEFT_HID
6
HIDDEN
10
1.520246
20
1.203424
30
0.0
11
1.562100
21
1.203424
31
0.0
0
LINE
8
LEFT_HID
6
HIDDEN
10
1.475404
20
1.203424
30
0.0
11
1.475404
21
1.178057
31
0.0
0
LINE
8
LEFT_HID
6
HIDDEN
10
1.475404
20
1.178057
30
0.0
11
1.433550
21
1.178057
31
0.0
0
LINE
8
LEFT_HID
6
HIDDEN
10
1.433550
20
1.178057
30
0.0
11
1.433550
21
1.203424
31
0.0
0
LINE
8
LEFT_HID
6
HIDDEN
10
1.433550
20
1.203424
30
0.0
11
1.475404
21
1.203424
31
0.0
0
LINE
8
LEFT_HID
6
HIDDEN
10
1.388708
20
1.203424
30
0.0
11
1.388708
21
1.178057
31
0.0
0
LINE
8
LEFT_HID
6
HIDDEN
10
1.388708
20
1.178057
30
0.0
11
1.346854
21
1.178057
31
0.0
0
LINE
8
LEFT_HID
6
HIDDEN
10
1.346854
20
1.178057
30
0.0
11
1.346854
21
1.203424
31
0.0
0
LINE
8
LEFT_HID
6
HIDDEN
10
1.346854
20
1.203424
30
0.0
11
1.388708
21
1.203424
31
0.0
0
LINE
8
LEFT_HID
6
HIDDEN
10
1.322938
20
1.096104
30
0.0
11
1.303425
21
1.096104
31
0.0
0
LINE
8
LEFT_HID
6
HIDDEN
10
1.303425
20
1.096104
30
0.0
11
1.311695
21
1.096104
31
0.0
0
LINE
8
LEFT_HID
6
HIDDEN
10
1.311695
20
1.096104
30
0.0
11
1.823287
21
1.096104
31
0.0
0
LINE
8
LEFT_HID
6
HIDDEN
10
1.823287
20
1.096104
30
0.0
11
1.583138
21
1.096104
31
0.0
0
LINE
8
LEFT_HID
6
HIDDEN
10
1.583138
20
1.096104
30
0.0
11
1.233125
21
1.096104
31
0.0
0
LINE
8
LEFT_HID
6
HIDDEN
10
1.233125
20
1.096104
30
0.0
11
1.222715
21
1.096104
31
0.0
0
LINE
8
LEFT_HID
6
HIDDEN
10
1.322938
20
1.232693
30
0.0
11
0.932684
21
1.232693
31
0.0
0
LINE
8
LEFT_HID
6
HIDDEN
10
1.222715
20
1.232693
30
0.0
11
1.311695
21
1.232693
31
0.0
0
LINE
8
LEFT_HID
6
HIDDEN
10
1.311695
20
1.232693
30
0.0
11
1.823287
21
1.232693
31
0.0
0
LINE
8
LEFT_HID
6
HIDDEN
10
1.823287
20
1.232693
30
0.0
11
1.583138
21
1.232693
31
0.0
0
LINE
8
LEFT_HID
6
HIDDEN
10
1.583138
20
1.232693
30
0.0
11
1.233125
21
1.232693
31
0.0
0
LINE
8
LEFT_HID
6
HIDDEN
10
1.233125
20
1.232693
30
0.0
11
1.222715
21
1.232693
31
0.0
0
LINE
8
LEFT_HID
6
HIDDEN
10
1.233125
20
1.096104
30
0.0
11
1.233125
21
1.232693
31
0.0
0
LINE
8
LEFT_HID
6
HIDDEN
10
1.225375
20
1.096104
30
0.0
11
0.932684
21
1.096104
31
0.0
0
LINE
8
LEFT_HID
6
HIDDEN
10
1.225375
20
1.096104
30
0.0
11
1.225375
21
1.181960
31
0.0
0
LINE
8
LEFT_HID
6
HIDDEN
10
1.225375
20
1.181960
30
0.0
11
1.303425
21
1.181960
31
0.0
0
LINE
8
LEFT_HID
6
HIDDEN
10
1.303425
20
1.181960
30
0.0
11
1.303425
21
1.096104
31
0.0
0
LINE
8
LEFT_HID
6
HIDDEN
10
1.822188
20
1.203424
30
0.0
11
1.811777
21
1.203424
31
0.0
0
LINE
8
LEFT_HID
6
HIDDEN
10
1.811777
20
1.203424
30
0.0
11
1.811777
21
1.178057
31
0.0
0
LINE
8
LEFT_HID
6
HIDDEN
10
1.822188
20
1.178057
30
0.0
11
1.811777
21
1.178057
31
0.0
0
LINE
8
LEFT_HID
6
HIDDEN
10
1.780334
20
1.203424
30
0.0
11
1.769924
21
1.203424
31
0.0
0
LINE
8
LEFT_HID
6
HIDDEN
10
1.769924
20
1.203424
30
0.0
11
1.811777
21
1.203424
31
0.0
0
LINE
8
LEFT_HID
6
HIDDEN
10
1.811777
20
1.178057
30
0.0
11
1.769924
21
1.178057
31
0.0
0
LINE
8
LEFT_HID
6
HIDDEN
10
1.780334
20
1.178057
30
0.0
11
1.769924
21
1.178057
31
0.0
0
LINE
8
LEFT_HID
6
HIDDEN
10
1.769924
20
1.178057
30
0.0
11
1.769924
21
1.203424
31
0.0
0
LINE
8
LEFT_HID
6
HIDDEN
10
1.735492
20
1.203424
30
0.0
11
1.725081
21
1.203424
31
0.0
0
LINE
8
LEFT_HID
6
HIDDEN
10
1.725081
20
1.203424
30
0.0
11
1.725081
21
1.178057
31
0.0
0
LINE
8
LEFT_HID
6
HIDDEN
10
1.735492
20
1.178057
30
0.0
11
1.725081
21
1.178057
31
0.0
0
LINE
8
LEFT_HID
6
HIDDEN
10
1.693638
20
1.203424
30
0.0
11
1.683228
21
1.203424
31
0.0
0
LINE
8
LEFT_HID
6
HIDDEN
10
1.683228
20
1.203424
30
0.0
11
1.725081
21
1.203424
31
0.0
0
LINE
8
LEFT_HID
6
HIDDEN
10
1.725081
20
1.178057
30
0.0
11
1.683228
21
1.178057
31
0.0
0
LINE
8
LEFT_HID
6
HIDDEN
10
1.693638
20
1.178057
30
0.0
11
1.683228
21
1.178057
31
0.0
0
LINE
8
LEFT_HID
6
HIDDEN
10
1.683228
20
1.178057
30
0.0
11
1.683228
21
1.203424
31
0.0
0
LINE
8
LEFT_HID
6
HIDDEN
10
1.648796
20
1.203424
30
0.0
11
1.638385
21
1.203424
31
0.0
0
LINE
8
LEFT_HID
6
HIDDEN
10
1.638385
20
1.203424
30
0.0
11
1.638385
21
1.178057
31
0.0
0
LINE
8
LEFT_HID
6
HIDDEN
10
1.648796
20
1.178057
30
0.0
11
1.638385
21
1.178057
31
0.0
0
LINE
8
LEFT_HID
6
HIDDEN
10
1.606942
20
1.203424
30
0.0
11
1.596532
21
1.203424
31
0.0
0
LINE
8
LEFT_HID
6
HIDDEN
10
1.596532
20
1.203424
30
0.0
11
1.638385
21
1.203424
31
0.0
0
LINE
8
LEFT_HID
6
HIDDEN
10
1.638385
20
1.178057
30
0.0
11
1.596532
21
1.178057
31
0.0
0
LINE
8
LEFT_HID
6
HIDDEN
10
1.606942
20
1.178057
30
0.0
11
1.596532
21
1.178057
31
0.0
0
LINE
8
LEFT_HID
6
HIDDEN
10
1.596532
20
1.178057
30
0.0
11
1.596532
21
1.203424
31
0.0
0
LINE
8
LEFT_HID
6
HIDDEN
10
1.562100
20
1.203424
30
0.0
11
1.551689
21
1.203424
31
0.0
0
LINE
8
LEFT_HID
6
HIDDEN
10
1.551689
20
1.203424
30
0.0
11
1.551689
21
1.178057
31
0.0
0
LINE
8
LEFT_HID
6
HIDDEN
10
1.562100
20
1.178057
30
0.0
11
1.551689
21
1.178057
31
0.0
0
LINE
8
LEFT_HID
6
HIDDEN
10
1.520246
20
1.203424
30
0.0
11
1.509836
21
1.203424
31
0.0
0
LINE
8
LEFT_HID
6
HIDDEN
10
1.509836
20
1.203424
30
0.0
11
1.551689
21
1.203424
31
0.0
0
LINE
8
LEFT_HID
6
HIDDEN
10
1.551689
20
1.178057
30
0.0
11
1.509836
21
1.178057
31
0.0
0
LINE
8
LEFT_HID
6
HIDDEN
10
1.520246
20
1.178057
30
0.0
11
1.509836
21
1.178057
31
0.0
0
LINE
8
LEFT_HID
6
HIDDEN
10
1.509836
20
1.178057
30
0.0
11
1.509836
21
1.203424
31
0.0
0
LINE
8
LEFT_HID
6
HIDDEN
10
1.475404
20
1.203424
30
0.0
11
1.464993
21
1.203424
31
0.0
0
LINE
8
LEFT_HID
6
HIDDEN
10
1.464993
20
1.203424
30
0.0
11
1.464993
21
1.178057
31
0.0
0
LINE
8
LEFT_HID
6
HIDDEN
10
1.475404
20
1.178057
30
0.0
11
1.464993
21
1.178057
31
0.0
0
LINE
8
LEFT_HID
6
HIDDEN
10
1.433550
20
1.203424
30
0.0
11
1.423140
21
1.203424
31
0.0
0
LINE
8
LEFT_HID
6
HIDDEN
10
1.423140
20
1.203424
30
0.0
11
1.464993
21
1.203424
31
0.0
0
LINE
8
LEFT_HID
6
HIDDEN
10
1.464993
20
1.178057
30
0.0
11
1.423140
21
1.178057
31
0.0
0
LINE
8
LEFT_HID
6
HIDDEN
10
1.433550
20
1.178057
30
0.0
11
1.423140
21
1.178057
31
0.0
0
LINE
8
LEFT_HID
6
HIDDEN
10
1.423140
20
1.178057
30
0.0
11
1.423140
21
1.203424
31
0.0
0
LINE
8
LEFT_HID
6
HIDDEN
10
1.388708
20
1.203424
30
0.0
11
1.378297
21
1.203424
31
0.0
0
LINE
8
LEFT_HID
6
HIDDEN
10
1.378297
20
1.203424
30
0.0
11
1.378297
21
1.178057
31
0.0
0
LINE
8
LEFT_HID
6
HIDDEN
10
1.388708
20
1.178057
30
0.0
11
1.378297
21
1.178057
31
0.0
0
LINE
8
LEFT_HID
6
HIDDEN
10
1.346854
20
1.203424
30
0.0
11
1.336444
21
1.203424
31
0.0
0
LINE
8
LEFT_HID
6
HIDDEN
10
1.336444
20
1.203424
30
0.0
11
1.378297
21
1.203424
31
0.0
0
LINE
8
LEFT_HID
6
HIDDEN
10
1.346854
20
1.178057
30
0.0
11
1.336444
21
1.178057
31
0.0
0
LINE
8
LEFT_HID
6
HIDDEN
10
1.336444
20
1.178057
30
0.0
11
1.336444
21
1.203424
31
0.0
0
LINE
8
LEFT_HID
6
HIDDEN
10
1.378297
20
1.178057
30
0.0
11
1.336444
21
1.178057
31
0.0
0
LINE
8
LEFT_HID
6
HIDDEN
10
1.583138
20
1.096104
30
0.0
11
1.583138
21
1.232693
31
0.0
0
LINE
8
LEFT_HID
6
HIDDEN
10
1.823287
20
1.096104
30
0.0
11
1.823287
21
1.232693
31
0.0
0
LINE
8
LEFT_HID
6
HIDDEN
10
1.311695
20
1.096104
30
0.0
11
1.311695
21
1.232693
31
0.0
0
LINE
8
LEFT_HID
6
HIDDEN
10
1.222715
20
1.096104
30
0.0
11
1.225375
21
1.096104
31
0.0
0
LINE
8
LEFT_HID
6
HIDDEN
10
1.303425
20
1.181960
30
0.0
11
1.303425
21
1.096104
31
0.0
0
LINE
8
LEFT_HID
6
HIDDEN
10
1.225375
20
1.181960
30
0.0
11
1.303425
21
1.181960
31
0.0
0
LINE
8
LEFT_HID
6
HIDDEN
10
1.225375
20
1.096104
30
0.0
11
1.225375
21
1.181960
31
0.0
0
LINE
8
TOP
10
0.000000
20
0.260970
30
0.0
11
0.311012
21
0.000000
31
0.0
0
LINE
8
TOP
10
0.304106
20
0.623389
30
0.0
11
0.000000
21
0.260970
31
0.0
0
LINE
8
TOP
10
0.311012
20
0.000000
30
0.0
11
0.750000
21
0.523166
31
0.0
0
LINE
8
TOP
10
0.549320
20
0.284004
30
0.0
11
0.584439
21
0.325858
31
0.0
0
LINE
8
TOP
10
0.622066
20
0.370700
30
0.0
11
0.657185
21
0.412554
31
0.0
0
LINE
8
TOP
10
0.694813
20
0.457396
30
0.0
11
0.729932
21
0.499250
31
0.0
0
LINE
8
TOP
10
0.750000
20
0.523166
30
0.0
11
0.750000
21
0.913420
31
0.0
0
LINE
8
TOP
10
0.750000
20
0.913420
30
0.0
11
0.738292
21
0.913420
31
0.0
0
LINE
8
TOP
10
0.738292
20
0.913420
30
0.0
11
0.738292
21
0.534409
31
0.0
0
LINE
8
TOP
10
0.738292
20
0.534409
30
0.0
11
0.309015
21
0.022817
31
0.0
0
LINE
8
TOP
10
0.309015
20
0.022817
30
0.0
11
0.022817
21
0.262966
31
0.0
0
LINE
8
TOP
10
0.022817
20
0.262966
30
0.0
11
0.316513
21
0.612979
31
0.0
0
LINE
8
TOP
10
0.316513
20
0.612979
30
0.0
11
0.304106
21
0.623389
31
0.0
0
LINE
8
TOP_HID
6
HIDDEN
10
0.331080
20
0.023916
30
0.0
11
0.366199
21
0.065770
31
0.0
0
LINE
8
TOP_HID
6
HIDDEN
10
0.366199
20
0.065770
30
0.0
11
0.331080
21
0.023916
31
0.0
0
LINE
8
TOP_HID
6
HIDDEN
10
0.403826
20
0.110612
30
0.0
11
0.438945
21
0.152466
31
0.0
0
LINE
8
TOP_HID
6
HIDDEN
10
0.438945
20
0.152466
30
0.0
11
0.403826
21
0.110612
31
0.0
0
LINE
8
TOP_HID
6
HIDDEN
10
0.476573
20
0.197308
30
0.0
11
0.511692
21
0.239162
31
0.0
0
LINE
8
TOP_HID
6
HIDDEN
10
0.511692
20
0.239162
30
0.0
11
0.476573
21
0.197308
31
0.0
0
LINE
8
TOP_HID
6
HIDDEN
10
0.750000
20
0.523166
30
0.0
11
0.750000
21
0.542679
31
0.0
0
LINE
8
TOP_HID
6
HIDDEN
10
0.750000
20
0.542679
30
0.0
11
0.738292
21
0.542679
31
0.0
0
LINE
8
TOP_HID
6
HIDDEN
10
0.738292
20
0.542679
30
0.0
11
0.738292
21
0.534409
31
0.0
0
LINE
8
TOP_HID
6
HIDDEN
10
0.750000
20
0.620729
30
0.0
11
0.750000
21
0.913420
31
0.0
0
LINE
8
TOP_HID
6
HIDDEN
10
0.750000
20
0.620729
30
0.0
11
0.750000
21
0.542679
31
0.0
0
LINE
8
TOP_HID
6
HIDDEN
10
0.331080
20
0.023916
30
0.0
11
0.318673
21
0.034326
31
0.0
0
LINE
8
TOP_HID
6
HIDDEN
10
0.331080
20
0.023916
30
0.0
11
0.318673
21
0.034326
31
0.0
0
LINE
8
TOP_HID
6
HIDDEN
10
0.366199
20
0.065770
30
0.0
11
0.353792
21
0.076180
31
0.0
0
LINE
8
TOP_HID
6
HIDDEN
10
0.353792
20
0.076180
30
0.0
11
0.318673
21
0.034326
31
0.0
0
LINE
8
TOP_HID
6
HIDDEN
10
0.318673
20
0.034326
30
0.0
11
0.353792
21
0.076180
31
0.0
0
LINE
8
TOP_HID
6
HIDDEN
10
0.366199
20
0.065770
30
0.0
11
0.353792
21
0.076180
31
0.0
0
LINE
8
TOP_HID
6
HIDDEN
10
0.403826
20
0.110612
30
0.0
11
0.391420
21
0.121023
31
0.0
0
LINE
8
TOP_HID
6
HIDDEN
10
0.403826
20
0.110612
30
0.0
11
0.391420
21
0.121023
31
0.0
0
LINE
8
TOP_HID
6
HIDDEN
10
0.438945
20
0.152466
30
0.0
11
0.426539
21
0.162876
31
0.0
0
LINE
8
TOP_HID
6
HIDDEN
10
0.426539
20
0.162876
30
0.0
11
0.391420
21
0.121023
31
0.0
0
LINE
8
TOP_HID
6
HIDDEN
10
0.391420
20
0.121023
30
0.0
11
0.426539
21
0.162876
31
0.0
0
LINE
8
TOP_HID
6
HIDDEN
10
0.438945
20
0.152466
30
0.0
11
0.426539
21
0.162876
31
0.0
0
LINE
8
TOP_HID
6
HIDDEN
10
0.476573
20
0.197308
30
0.0
11
0.464167
21
0.207719
31
0.0
0
LINE
8
TOP_HID
6
HIDDEN
10
0.476573
20
0.197308
30
0.0
11
0.464167
21
0.207719
31
0.0
0
LINE
8
TOP_HID
6
HIDDEN
10
0.511692
20
0.239162
30
0.0
11
0.499286
21
0.249572
31
0.0
0
LINE
8
TOP_HID
6
HIDDEN
10
0.499286
20
0.249572
30
0.0
11
0.464167
21
0.207719
31
0.0
0
LINE
8
TOP_HID
6
HIDDEN
10
0.464167
20
0.207719
30
0.0
11
0.499286
21
0.249572
31
0.0
0
LINE
8
TOP_HID
6
HIDDEN
10
0.511692
20
0.239162
30
0.0
11
0.499286
21
0.249572
31
0.0
0
LINE
8
TOP_HID
6
HIDDEN
10
0.549320
20
0.284004
30
0.0
11
0.536913
21
0.294415
31
0.0
0
LINE
8
TOP_HID
6
HIDDEN
10
0.549320
20
0.284004
30
0.0
11
0.536913
21
0.294415
31
0.0
0
LINE
8
TOP_HID
6
HIDDEN
10
0.584439
20
0.325858
30
0.0
11
0.572032
21
0.336268
31
0.0
0
LINE
8
TOP_HID
6
HIDDEN
10
0.572032
20
0.336268
30
0.0
11
0.536913
21
0.294415
31
0.0
0
LINE
8
TOP_HID
6
HIDDEN
10
0.536913
20
0.294415
30
0.0
11
0.572032
21
0.336268
31
0.0
0
LINE
8
TOP_HID
6
HIDDEN
10
0.584439
20
0.325858
30
0.0
11
0.572032
21
0.336268
31
0.0
0
LINE
8
TOP_HID
6
HIDDEN
10
0.622066
20
0.370700
30
0.0
11
0.609660
21
0.381111
31
0.0
0
LINE
8
TOP_HID
6
HIDDEN
10
0.622066
20
0.370700
30
0.0
11
0.609660
21
0.381111
31
0.0
0
LINE
8
TOP_HID
6
HIDDEN
10
0.657185
20
0.412554
30
0.0
11
0.644779
21
0.422964
31
0.0
0
LINE
8
TOP_HID
6
HIDDEN
10
0.644779
20
0.422964
30
0.0
11
0.609660
21
0.381111
31
0.0
0
LINE
8
TOP_HID
6
HIDDEN
10
0.609660
20
0.381111
30
0.0
11
0.644779
21
0.422964
31
0.0
0
LINE
8
TOP_HID
6
HIDDEN
10
0.657185
20
0.412554
30
0.0
11
0.644779
21
0.422964
31
0.0
0
LINE
8
TOP_HID
6
HIDDEN
10
0.694813
20
0.457396
30
0.0
11
0.682406
21
0.467807
31
0.0
0
LINE
8
TOP_HID
6
HIDDEN
10
0.694813
20
0.457396
30
0.0
11
0.682406
21
0.467807
31
0.0
0
LINE
8
TOP_HID
6
HIDDEN
10
0.729932
20
0.499250
30
0.0
11
0.717525
21
0.509660
31
0.0
0
LINE
8
TOP_HID
6
HIDDEN
10
0.717525
20
0.509660
30
0.0
11
0.682406
21
0.467807
31
0.0
0
LINE
8
TOP_HID
6
HIDDEN
10
0.729932
20
0.499250
30
0.0
11
0.717525
21
0.509660
31
0.0
0
LINE
8
TOP_HID
6
HIDDEN
10
0.682406
20
0.467807
30
0.0
11
0.717525
21
0.509660
31
0.0
0
LINE
8
TOP_HID
6
HIDDEN
10
0.738292
20
0.913420
30
0.0
11
0.738292
21
0.620729
31
0.0
0
LINE
8
TOP_HID
6
HIDDEN
10
0.738292
20
0.620729
30
0.0
11
0.738292
21
0.542679
31
0.0
0
LINE
8
TOP_HID
6
HIDDEN
10
0.750000
20
0.542679
30
0.0
11
0.738292
21
0.542679
31
0.0
0
LINE
8
TOP_HID
6
HIDDEN
10
0.750000
20
0.620729
30
0.0
11
0.738292
21
0.620729
31
0.0
0
LINE
8
TOP_HID
6
HIDDEN
10
0.750000
20
0.620729
30
0.0
11
0.738292
21
0.620729
31
0.0
0
ENDSEC
0
EOF
