0
SECTION
2
HEADER
9
$ACADVER
1
AC1009
0
ENDSEC
0
SECTION
2
TABLES
0
TABLE
2
LTYPE
70
3
0
LTYPE
2
CONTINUOUS
70
0
3
Solid line
72
65
73
0
40
0.0
0
LTYPE
2
HIDDEN
70
0
3
__ __ __ __ __
72
65
73
2
40
0.041827
49
0.027899
49
-0.013928
0
LTYPE
2
CENTER
70
0
3
___ _ ___ _ ___
72
65
73
4
40
0.097582
49
0.055755
49
-0.013928
49
0.013928
49
-0.013928
0
ENDTAB
0
TABLE
2
LAYER
70
6
0
LAYER
2
0
70
0
62
7
6
CONTINUOUS
0
LAYER
2
FRONT
70
0
62
7
6
CONTINUOUS
0
LAYER
2
FRONT_HID
70
0
62
7
6
HIDDEN
0
LAYER
2
LEFT
70
0
62
7
6
CONTINUOUS
0
LAYER
2
LEFT_HID
70
0
62
7
6
HIDDEN
0
LAYER
2
TOP
70
0
62
7
6
CONTINUOUS
0
ENDTAB
0
ENDSEC
0
SECTION
2
ENTITIES
0
LINE
8
FRONT
10
0.000000
20
0.744231
30
0.0
11
0.000000
21
0.686538
31
0.0
0
LINE
8
FRONT
10
0.836538
20
0.744231
30
0.0
11
0.836538
21
0.686538
31
0.0
0
LINE
8
FRONT
10
0.836538
20
0.686538
30
0.0
11
0.000000
21
0.686538
31
0.0
0
LINE
8
FRONT
10
0.000000
20
0.744231
30
0.0
11
0.000000
21
0.859615
31
0.0
0
LINE
8
FRONT
10
0.836538
20
0.744231
30
0.0
11
0.836538
21
0.859615
31
0.0
0
LINE
8
FRONT
10
0.836538
20
0.859615
30
0.0
11
0.000000
21
0.859615
31
0.0
0
LINE
8
FRONT_HID
6
HIDDEN
10
0.057692
20
0.686538
30
0.0
11
0.778846
21
0.686538
31
0.0
0
LINE
8
FRONT_HID
6
HIDDEN
10
0.778846
20
0.686538
30
0.0
11
0.057692
21
0.686538
31
0.0
0
LINE
8
FRONT_HID
6
HIDDEN
10
0.057692
20
0.859615
30
0.0
11
0.778846
21
0.859615
31
0.0
0
LINE
8
FRONT_HID
6
HIDDEN
10
0.778846
20
0.859615
30
0.0
11
0.057692
21
0.859615
31
0.0
0
LINE
8
FRONT_HID
6
HIDDEN
10
0.057692
20
0.744231
30
0.0
11
0.057692
21
0.859615
31
0.0
0
LINE
8
FRONT_HID
6
HIDDEN
10
0.778846
20
0.744231
30
0.0
11
0.778846
21
0.859615
31
0.0
0
LINE
8
FRONT_HID
6
HIDDEN
10
0.057692
20
0.744231
30
0.0
11
0.778846
21
0.744231
31
0.0
0
LINE
8
FRONT_HID
6
HIDDEN
10
0.778846
20
0.744231
30
0.0
11
0.778846
21
0.859615
31
0.0
0
LINE
8
FRONT_HID
6
HIDDEN
10
0.057692
20
0.744231
30
0.0
11
0.057692
21
0.859615
31
0.0
0
LINE
8
FRONT_HID
6
HIDDEN
10
0.778846
20
0.744231
30
0.0
11
0.057692
21
0.744231
31
0.0
0
LINE
8
LEFT
10
1.523077
20
0.744231
30
0.0
11
1.523077
21
0.686538
31
0.0
0
LINE
8
LEFT
10
1.003846
20
0.744231
30
0.0
11
1.003846
21
0.686538
31
0.0
0
LINE
8
LEFT
10
1.003846
20
0.686538
30
0.0
11
1.523077
21
0.686538
31
0.0
0
LINE
8
LEFT
10
1.523077
20
0.744231
30
0.0
11
1.523077
21
0.859615
31
0.0
0
LINE
8
LEFT
10
1.003846
20
0.744231
30
0.0
11
1.003846
21
0.859615
31
0.0
0
LINE
8
LEFT
10
1.003846
20
0.859615
30
0.0
11
1.523077
21
0.859615
31
0.0
0
LINE
8
LEFT_HID
6
HIDDEN
10
1.465385
20
0.686538
30
0.0
11
1.061538
21
0.686538
31
0.0
0
LINE
8
LEFT_HID
6
HIDDEN
10
1.061538
20
0.686538
30
0.0
11
1.465385
21
0.686538
31
0.0
0
LINE
8
LEFT_HID
6
HIDDEN
10
1.465385
20
0.859615
30
0.0
11
1.061538
21
0.859615
31
0.0
0
LINE
8
LEFT_HID
6
HIDDEN
10
1.061538
20
0.859615
30
0.0
11
1.465385
21
0.859615
31
0.0
0
LINE
8
LEFT_HID
6
HIDDEN
10
1.465385
20
0.744231
30
0.0
11
1.465385
21
0.859615
31
0.0
0
LINE
8
LEFT_HID
6
HIDDEN
10
1.465385
20
0.744231
30
0.0
11
1.465385
21
0.859615
31
0.0
0
LINE
8
LEFT_HID
6
HIDDEN
10
1.061538
20
0.744231
30
0.0
11
1.061538
21
0.859615
31
0.0
0
LINE
8
LEFT_HID
6
HIDDEN
10
1.465385
20
0.744231
30
0.0
11
1.061538
21
0.744231
31
0.0
0
LINE
8
LEFT_HID
6
HIDDEN
10
1.061538
20
0.744231
30
0.0
11
1.061538
21
0.859615
31
0.0
0
LINE
8
LEFT_HID
6
HIDDEN
10
1.061538
20
0.744231
30
0.0
11
1.465385
21
0.744231
31
0.0
0
LINE
8
TOP
10
0.000000
20
0.000000
30
0.0
11
0.836538
21
0.000000
31
0.0
0
LINE
8
TOP
10
0.000000
20
0.519231
30
0.0
11
0.000000
21
0.000000
31
0.0
0
LINE
8
TOP
10
0.836538
20
0.000000
30
0.0
11
0.836538
21
0.519231
31
0.0
0
LINE
8
TOP
10
0.836538
20
0.519231
30
0.0
11
0.000000
21
0.519231
31
0.0
0
LINE
8
TOP
10
0.057692
20
0.057692
30
0.0
11
0.778846
21
0.057692
31
0.0
0
LINE
8
TOP
10
0.778846
20
0.057692
30
0.0
11
0.778846
21
0.461538
31
0.0
0
LINE
8
TOP
10
0.778846
20
0.461538
30
0.0
11
0.057692
21
0.461538
31
0.0
0
LINE
8
TOP
10
0.057692
20
0.461538
30
0.0
11
0.057692
21
0.057692
31
0.0
0
ENDSEC
0
EOF
