0
SECTION
2
HEADER
9
$ACADVER
1
AC1009
0
ENDSEC
0
SECTION
2
TABLES
0
TABLE
2
LTYPE
70
3
0
LTYPE
2
CONTINUOUS
70
0
3
Solid line
72
65
73
0
40
0.0
0
LTYPE
2
HIDDEN
70
0
3
__ __ __ __ __
72
65
73
2
40
0.058005
49
0.038690
49
-0.019316
0
LTYPE
2
CENTER
70
0
3
___ _ ___ _ ___
72
65
73
4
40
0.135327
49
0.077321
49
-0.019316
49
0.019316
49
-0.019316
0
ENDTAB
0
TABLE
2
LAYER
70
4
0
LAYER
2
0
70
0
62
7
6
CONTINUOUS
0
LAYER
2
FRONT
70
0
62
7
6
CONTINUOUS
0
LAYER
2
LEFT
70
0
62
7
6
CONTINUOUS
0
LAYER
2
TOP
70
0
62
7
6
CONTINUOUS
0
ENDTAB
0
ENDSEC
0
SECTION
2
ENTITIES
0
LINE
8
FRONT
10
0.000000
20
0.244106
30
0.0
11
1.160109
21
0.244106
31
0.0
0
LINE
8
FRONT
10
0.000000
20
0.244106
30
0.0
11
0.000000
21
0.246120
31
0.0
0
LINE
8
FRONT
10
1.160109
20
0.244106
30
0.0
11
1.160109
21
0.246120
31
0.0
0
LINE
8
FRONT
10
1.160109
20
0.246120
30
0.0
11
1.160109
21
0.286402
31
0.0
0
LINE
8
FRONT
10
0.000000
20
0.246120
30
0.0
11
0.000000
21
0.286402
31
0.0
0
LINE
8
FRONT
10
0.000000
20
0.286402
30
0.0
11
0.000000
21
0.288416
31
0.0
0
LINE
8
FRONT
10
0.000000
20
0.288416
30
0.0
11
1.160109
21
0.288416
31
0.0
0
LINE
8
FRONT
10
1.160109
20
0.286402
30
0.0
11
1.160109
21
0.288416
31
0.0
0
LINE
8
FRONT
10
0.000000
20
0.246120
30
0.0
11
1.160109
21
0.246120
31
0.0
0
LINE
8
FRONT
10
0.000000
20
0.286402
30
0.0
11
1.160109
21
0.286402
31
0.0
0
LINE
8
LEFT
10
1.404215
20
0.246120
30
0.0
11
1.404214
21
0.246070
31
0.0
0
LINE
8
LEFT
10
1.404214
20
0.246070
30
0.0
11
1.404212
21
0.246020
31
0.0
0
LINE
8
LEFT
10
1.404212
20
0.246020
30
0.0
11
1.404209
21
0.245970
31
0.0
0
LINE
8
LEFT
10
1.404209
20
0.245970
30
0.0
11
1.404205
21
0.245920
31
0.0
0
LINE
8
LEFT
10
1.404205
20
0.245920
30
0.0
11
1.404199
21
0.245870
31
0.0
0
LINE
8
LEFT
10
1.404199
20
0.245870
30
0.0
11
1.404192
21
0.245820
31
0.0
0
LINE
8
LEFT
10
1.404192
20
0.245820
30
0.0
11
1.404184
21
0.245771
31
0.0
0
LINE
8
LEFT
10
1.404184
20
0.245771
30
0.0
11
1.404175
21
0.245721
31
0.0
0
LINE
8
LEFT
10
1.404175
20
0.245721
30
0.0
11
1.404164
21
0.245672
31
0.0
0
LINE
8
LEFT
10
1.404164
20
0.245672
30
0.0
11
1.404153
21
0.245623
31
0.0
0
LINE
8
LEFT
10
1.404153
20
0.245623
30
0.0
11
1.404140
21
0.245575
31
0.0
0
LINE
8
LEFT
10
1.404140
20
0.245575
30
0.0
11
1.404125
21
0.245527
31
0.0
0
LINE
8
LEFT
10
1.404125
20
0.245527
30
0.0
11
1.404110
21
0.245479
31
0.0
0
LINE
8
LEFT
10
1.404110
20
0.245479
30
0.0
11
1.404093
21
0.245431
31
0.0
0
LINE
8
LEFT
10
1.404093
20
0.245431
30
0.0
11
1.404076
21
0.245384
31
0.0
0
LINE
8
LEFT
10
1.404076
20
0.245384
30
0.0
11
1.404057
21
0.245338
31
0.0
0
LINE
8
LEFT
10
1.404057
20
0.245338
30
0.0
11
1.404037
21
0.245292
31
0.0
0
LINE
8
LEFT
10
1.404037
20
0.245292
30
0.0
11
1.404015
21
0.245246
31
0.0
0
LINE
8
LEFT
10
1.404015
20
0.245246
30
0.0
11
1.403993
21
0.245201
31
0.0
0
LINE
8
LEFT
10
1.403993
20
0.245201
30
0.0
11
1.403970
21
0.245157
31
0.0
0
LINE
8
LEFT
10
1.403970
20
0.245157
30
0.0
11
1.403945
21
0.245113
31
0.0
0
LINE
8
LEFT
10
1.403945
20
0.245113
30
0.0
11
1.403919
21
0.245070
31
0.0
0
LINE
8
LEFT
10
1.403919
20
0.245070
30
0.0
11
1.403893
21
0.245028
31
0.0
0
LINE
8
LEFT
10
1.403893
20
0.245028
30
0.0
11
1.403865
21
0.244986
31
0.0
0
LINE
8
LEFT
10
1.403865
20
0.244986
30
0.0
11
1.403836
21
0.244945
31
0.0
0
LINE
8
LEFT
10
1.403836
20
0.244945
30
0.0
11
1.403806
21
0.244904
31
0.0
0
LINE
8
LEFT
10
1.403806
20
0.244904
30
0.0
11
1.403775
21
0.244865
31
0.0
0
LINE
8
LEFT
10
1.403775
20
0.244865
30
0.0
11
1.403744
21
0.244826
31
0.0
0
LINE
8
LEFT
10
1.403744
20
0.244826
30
0.0
11
1.403711
21
0.244788
31
0.0
0
LINE
8
LEFT
10
1.403711
20
0.244788
30
0.0
11
1.403677
21
0.244750
31
0.0
0
LINE
8
LEFT
10
1.403677
20
0.244750
30
0.0
11
1.403643
21
0.244714
31
0.0
0
LINE
8
LEFT
10
1.403643
20
0.244714
30
0.0
11
1.403607
21
0.244678
31
0.0
0
LINE
8
LEFT
10
1.403607
20
0.244678
30
0.0
11
1.403571
21
0.244644
31
0.0
0
LINE
8
LEFT
10
1.403571
20
0.244644
30
0.0
11
1.403533
21
0.244610
31
0.0
0
LINE
8
LEFT
10
1.403533
20
0.244610
30
0.0
11
1.403495
21
0.244577
31
0.0
0
LINE
8
LEFT
10
1.403495
20
0.244577
30
0.0
11
1.403457
21
0.244546
31
0.0
0
LINE
8
LEFT
10
1.403457
20
0.244546
30
0.0
11
1.403417
21
0.244515
31
0.0
0
LINE
8
LEFT
10
1.403417
20
0.244515
30
0.0
11
1.403376
21
0.244485
31
0.0
0
LINE
8
LEFT
10
1.403376
20
0.244485
30
0.0
11
1.403335
21
0.244456
31
0.0
0
LINE
8
LEFT
10
1.403335
20
0.244456
30
0.0
11
1.403294
21
0.244428
31
0.0
0
LINE
8
LEFT
10
1.403294
20
0.244428
30
0.0
11
1.403251
21
0.244402
31
0.0
0
LINE
8
LEFT
10
1.403251
20
0.244402
30
0.0
11
1.403208
21
0.244376
31
0.0
0
LINE
8
LEFT
10
1.403208
20
0.244376
30
0.0
11
1.403164
21
0.244351
31
0.0
0
LINE
8
LEFT
10
1.403164
20
0.244351
30
0.0
11
1.403120
21
0.244328
31
0.0
0
LINE
8
LEFT
10
1.403120
20
0.244328
30
0.0
11
1.403075
21
0.244306
31
0.0
0
LINE
8
LEFT
10
1.403075
20
0.244306
30
0.0
11
1.403029
21
0.244284
31
0.0
0
LINE
8
LEFT
10
1.403029
20
0.244284
30
0.0
11
1.402983
21
0.244264
31
0.0
0
LINE
8
LEFT
10
1.402983
20
0.244264
30
0.0
11
1.402937
21
0.244245
31
0.0
0
LINE
8
LEFT
10
1.402937
20
0.244245
30
0.0
11
1.402890
21
0.244228
31
0.0
0
LINE
8
LEFT
10
1.402890
20
0.244228
30
0.0
11
1.402842
21
0.244211
31
0.0
0
LINE
8
LEFT
10
1.402842
20
0.244211
30
0.0
11
1.402794
21
0.244196
31
0.0
0
LINE
8
LEFT
10
1.402794
20
0.244196
30
0.0
11
1.402746
21
0.244181
31
0.0
0
LINE
8
LEFT
10
1.402746
20
0.244181
30
0.0
11
1.402698
21
0.244168
31
0.0
0
LINE
8
LEFT
10
1.402698
20
0.244168
30
0.0
11
1.402649
21
0.244157
31
0.0
0
LINE
8
LEFT
10
1.402649
20
0.244157
30
0.0
11
1.402600
21
0.244146
31
0.0
0
LINE
8
LEFT
10
1.402600
20
0.244146
30
0.0
11
1.402551
21
0.244137
31
0.0
0
LINE
8
LEFT
10
1.402551
20
0.244137
30
0.0
11
1.402501
21
0.244129
31
0.0
0
LINE
8
LEFT
10
1.402501
20
0.244129
30
0.0
11
1.402451
21
0.244122
31
0.0
0
LINE
8
LEFT
10
1.402451
20
0.244122
30
0.0
11
1.402401
21
0.244116
31
0.0
0
LINE
8
LEFT
10
1.402401
20
0.244116
30
0.0
11
1.402351
21
0.244112
31
0.0
0
LINE
8
LEFT
10
1.402351
20
0.244112
30
0.0
11
1.402301
21
0.244109
31
0.0
0
LINE
8
LEFT
10
1.402301
20
0.244109
30
0.0
11
1.402251
21
0.244107
31
0.0
0
LINE
8
LEFT
10
1.402251
20
0.244107
30
0.0
11
1.402201
21
0.244106
31
0.0
0
LINE
8
LEFT
10
1.402201
20
0.244106
30
0.0
11
1.394144
21
0.244106
31
0.0
0
LINE
8
LEFT
10
1.394144
20
0.244106
30
0.0
11
1.394094
21
0.244107
31
0.0
0
LINE
8
LEFT
10
1.394094
20
0.244107
30
0.0
11
1.394044
21
0.244109
31
0.0
0
LINE
8
LEFT
10
1.394044
20
0.244109
30
0.0
11
1.393994
21
0.244112
31
0.0
0
LINE
8
LEFT
10
1.393994
20
0.244112
30
0.0
11
1.393944
21
0.244116
31
0.0
0
LINE
8
LEFT
10
1.393944
20
0.244116
30
0.0
11
1.393894
21
0.244122
31
0.0
0
LINE
8
LEFT
10
1.393894
20
0.244122
30
0.0
11
1.393844
21
0.244129
31
0.0
0
LINE
8
LEFT
10
1.393844
20
0.244129
30
0.0
11
1.393795
21
0.244137
31
0.0
0
LINE
8
LEFT
10
1.393795
20
0.244137
30
0.0
11
1.393745
21
0.244146
31
0.0
0
LINE
8
LEFT
10
1.393745
20
0.244146
30
0.0
11
1.393696
21
0.244157
31
0.0
0
LINE
8
LEFT
10
1.393696
20
0.244157
30
0.0
11
1.393647
21
0.244168
31
0.0
0
LINE
8
LEFT
10
1.393647
20
0.244168
30
0.0
11
1.393599
21
0.244181
31
0.0
0
LINE
8
LEFT
10
1.393599
20
0.244181
30
0.0
11
1.393551
21
0.244196
31
0.0
0
LINE
8
LEFT
10
1.393551
20
0.244196
30
0.0
11
1.393503
21
0.244211
31
0.0
0
LINE
8
LEFT
10
1.393503
20
0.244211
30
0.0
11
1.393456
21
0.244228
31
0.0
0
LINE
8
LEFT
10
1.393456
20
0.244228
30
0.0
11
1.393409
21
0.244245
31
0.0
0
LINE
8
LEFT
10
1.393409
20
0.244245
30
0.0
11
1.393362
21
0.244264
31
0.0
0
LINE
8
LEFT
10
1.393362
20
0.244264
30
0.0
11
1.393316
21
0.244284
31
0.0
0
LINE
8
LEFT
10
1.393316
20
0.244284
30
0.0
11
1.393271
21
0.244306
31
0.0
0
LINE
8
LEFT
10
1.393271
20
0.244306
30
0.0
11
1.393226
21
0.244328
31
0.0
0
LINE
8
LEFT
10
1.393226
20
0.244328
30
0.0
11
1.393181
21
0.244351
31
0.0
0
LINE
8
LEFT
10
1.393181
20
0.244351
30
0.0
11
1.393137
21
0.244376
31
0.0
0
LINE
8
LEFT
10
1.393137
20
0.244376
30
0.0
11
1.393094
21
0.244402
31
0.0
0
LINE
8
LEFT
10
1.393094
20
0.244402
30
0.0
11
1.393052
21
0.244428
31
0.0
0
LINE
8
LEFT
10
1.393052
20
0.244428
30
0.0
11
1.393010
21
0.244456
31
0.0
0
LINE
8
LEFT
10
1.393010
20
0.244456
30
0.0
11
1.392969
21
0.244485
31
0.0
0
LINE
8
LEFT
10
1.392969
20
0.244485
30
0.0
11
1.392928
21
0.244515
31
0.0
0
LINE
8
LEFT
10
1.392928
20
0.244515
30
0.0
11
1.392889
21
0.244546
31
0.0
0
LINE
8
LEFT
10
1.392889
20
0.244546
30
0.0
11
1.392850
21
0.244577
31
0.0
0
LINE
8
LEFT
10
1.392850
20
0.244577
30
0.0
11
1.392812
21
0.244610
31
0.0
0
LINE
8
LEFT
10
1.392812
20
0.244610
30
0.0
11
1.392775
21
0.244644
31
0.0
0
LINE
8
LEFT
10
1.392775
20
0.244644
30
0.0
11
1.392738
21
0.244678
31
0.0
0
LINE
8
LEFT
10
1.392738
20
0.244678
30
0.0
11
1.392703
21
0.244714
31
0.0
0
LINE
8
LEFT
10
1.392703
20
0.244714
30
0.0
11
1.392668
21
0.244750
31
0.0
0
LINE
8
LEFT
10
1.392668
20
0.244750
30
0.0
11
1.392634
21
0.244788
31
0.0
0
LINE
8
LEFT
10
1.392634
20
0.244788
30
0.0
11
1.392602
21
0.244826
31
0.0
0
LINE
8
LEFT
10
1.392602
20
0.244826
30
0.0
11
1.392570
21
0.244865
31
0.0
0
LINE
8
LEFT
10
1.392570
20
0.244865
30
0.0
11
1.392539
21
0.244904
31
0.0
0
LINE
8
LEFT
10
1.392539
20
0.244904
30
0.0
11
1.392509
21
0.244945
31
0.0
0
LINE
8
LEFT
10
1.392509
20
0.244945
30
0.0
11
1.392480
21
0.244986
31
0.0
0
LINE
8
LEFT
10
1.392480
20
0.244986
30
0.0
11
1.392453
21
0.245028
31
0.0
0
LINE
8
LEFT
10
1.392453
20
0.245028
30
0.0
11
1.392426
21
0.245070
31
0.0
0
LINE
8
LEFT
10
1.392426
20
0.245070
30
0.0
11
1.392400
21
0.245113
31
0.0
0
LINE
8
LEFT
10
1.392400
20
0.245113
30
0.0
11
1.392376
21
0.245157
31
0.0
0
LINE
8
LEFT
10
1.392376
20
0.245157
30
0.0
11
1.392352
21
0.245201
31
0.0
0
LINE
8
LEFT
10
1.392352
20
0.245201
30
0.0
11
1.392330
21
0.245246
31
0.0
0
LINE
8
LEFT
10
1.392330
20
0.245246
30
0.0
11
1.392309
21
0.245292
31
0.0
0
LINE
8
LEFT
10
1.392309
20
0.245292
30
0.0
11
1.392289
21
0.245338
31
0.0
0
LINE
8
LEFT
10
1.392289
20
0.245338
30
0.0
11
1.392270
21
0.245384
31
0.0
0
LINE
8
LEFT
10
1.392270
20
0.245384
30
0.0
11
1.392252
21
0.245431
31
0.0
0
LINE
8
LEFT
10
1.392252
20
0.245431
30
0.0
11
1.392235
21
0.245479
31
0.0
0
LINE
8
LEFT
10
1.392235
20
0.245479
30
0.0
11
1.392220
21
0.245527
31
0.0
0
LINE
8
LEFT
10
1.392220
20
0.245527
30
0.0
11
1.392206
21
0.245575
31
0.0
0
LINE
8
LEFT
10
1.392206
20
0.245575
30
0.0
11
1.392193
21
0.245623
31
0.0
0
LINE
8
LEFT
10
1.392193
20
0.245623
30
0.0
11
1.392181
21
0.245672
31
0.0
0
LINE
8
LEFT
10
1.392181
20
0.245672
30
0.0
11
1.392170
21
0.245721
31
0.0
0
LINE
8
LEFT
10
1.392170
20
0.245721
30
0.0
11
1.392161
21
0.245771
31
0.0
0
LINE
8
LEFT
10
1.392161
20
0.245771
30
0.0
11
1.392153
21
0.245820
31
0.0
0
LINE
8
LEFT
10
1.392153
20
0.245820
30
0.0
11
1.392146
21
0.245870
31
0.0
0
LINE
8
LEFT
10
1.392146
20
0.245870
30
0.0
11
1.392140
21
0.245920
31
0.0
0
LINE
8
LEFT
10
1.392140
20
0.245920
30
0.0
11
1.392136
21
0.245970
31
0.0
0
LINE
8
LEFT
10
1.392136
20
0.245970
30
0.0
11
1.392133
21
0.246020
31
0.0
0
LINE
8
LEFT
10
1.392133
20
0.246020
30
0.0
11
1.392131
21
0.246070
31
0.0
0
LINE
8
LEFT
10
1.392131
20
0.246070
30
0.0
11
1.392130
21
0.246120
31
0.0
0
LINE
8
LEFT
10
1.392130
20
0.246120
30
0.0
11
1.392130
21
0.286402
31
0.0
0
LINE
8
LEFT
10
1.392130
20
0.286402
30
0.0
11
1.392131
21
0.286452
31
0.0
0
LINE
8
LEFT
10
1.392131
20
0.286452
30
0.0
11
1.392133
21
0.286502
31
0.0
0
LINE
8
LEFT
10
1.392133
20
0.286502
30
0.0
11
1.392136
21
0.286552
31
0.0
0
LINE
8
LEFT
10
1.392136
20
0.286552
30
0.0
11
1.392140
21
0.286602
31
0.0
0
LINE
8
LEFT
10
1.392140
20
0.286602
30
0.0
11
1.392146
21
0.286652
31
0.0
0
LINE
8
LEFT
10
1.392146
20
0.286652
30
0.0
11
1.392153
21
0.286702
31
0.0
0
LINE
8
LEFT
10
1.392153
20
0.286702
30
0.0
11
1.392161
21
0.286752
31
0.0
0
LINE
8
LEFT
10
1.392161
20
0.286752
30
0.0
11
1.392170
21
0.286801
31
0.0
0
LINE
8
LEFT
10
1.392170
20
0.286801
30
0.0
11
1.392181
21
0.286850
31
0.0
0
LINE
8
LEFT
10
1.392181
20
0.286850
30
0.0
11
1.392193
21
0.286899
31
0.0
0
LINE
8
LEFT
10
1.392193
20
0.286899
30
0.0
11
1.392206
21
0.286947
31
0.0
0
LINE
8
LEFT
10
1.392206
20
0.286947
30
0.0
11
1.392220
21
0.286995
31
0.0
0
LINE
8
LEFT
10
1.392220
20
0.286995
30
0.0
11
1.392235
21
0.287043
31
0.0
0
LINE
8
LEFT
10
1.392235
20
0.287043
30
0.0
11
1.392252
21
0.287091
31
0.0
0
LINE
8
LEFT
10
1.392252
20
0.287091
30
0.0
11
1.392270
21
0.287138
31
0.0
0
LINE
8
LEFT
10
1.392270
20
0.287138
30
0.0
11
1.392289
21
0.287184
31
0.0
0
LINE
8
LEFT
10
1.392289
20
0.287184
30
0.0
11
1.392309
21
0.287230
31
0.0
0
LINE
8
LEFT
10
1.392309
20
0.287230
30
0.0
11
1.392330
21
0.287276
31
0.0
0
LINE
8
LEFT
10
1.392330
20
0.287276
30
0.0
11
1.392352
21
0.287321
31
0.0
0
LINE
8
LEFT
10
1.392352
20
0.287321
30
0.0
11
1.392376
21
0.287365
31
0.0
0
LINE
8
LEFT
10
1.392376
20
0.287365
30
0.0
11
1.392400
21
0.287409
31
0.0
0
LINE
8
LEFT
10
1.392400
20
0.287409
30
0.0
11
1.392426
21
0.287452
31
0.0
0
LINE
8
LEFT
10
1.392426
20
0.287452
30
0.0
11
1.392453
21
0.287495
31
0.0
0
LINE
8
LEFT
10
1.392453
20
0.287495
30
0.0
11
1.392480
21
0.287536
31
0.0
0
LINE
8
LEFT
10
1.392480
20
0.287536
30
0.0
11
1.392509
21
0.287578
31
0.0
0
LINE
8
LEFT
10
1.392509
20
0.287578
30
0.0
11
1.392539
21
0.287618
31
0.0
0
LINE
8
LEFT
10
1.392539
20
0.287618
30
0.0
11
1.392570
21
0.287658
31
0.0
0
LINE
8
LEFT
10
1.392570
20
0.287658
30
0.0
11
1.392602
21
0.287696
31
0.0
0
LINE
8
LEFT
10
1.392602
20
0.287696
30
0.0
11
1.392634
21
0.287735
31
0.0
0
LINE
8
LEFT
10
1.392634
20
0.287735
30
0.0
11
1.392668
21
0.287772
31
0.0
0
LINE
8
LEFT
10
1.392668
20
0.287772
30
0.0
11
1.392703
21
0.287808
31
0.0
0
LINE
8
LEFT
10
1.392703
20
0.287808
30
0.0
11
1.392738
21
0.287844
31
0.0
0
LINE
8
LEFT
10
1.392738
20
0.287844
30
0.0
11
1.392775
21
0.287878
31
0.0
0
LINE
8
LEFT
10
1.392775
20
0.287878
30
0.0
11
1.392812
21
0.287912
31
0.0
0
LINE
8
LEFT
10
1.392812
20
0.287912
30
0.0
11
1.392850
21
0.287945
31
0.0
0
LINE
8
LEFT
10
1.392850
20
0.287945
30
0.0
11
1.392889
21
0.287976
31
0.0
0
LINE
8
LEFT
10
1.392889
20
0.287976
30
0.0
11
1.392928
21
0.288007
31
0.0
0
LINE
8
LEFT
10
1.392928
20
0.288007
30
0.0
11
1.392969
21
0.288037
31
0.0
0
LINE
8
LEFT
10
1.392969
20
0.288037
30
0.0
11
1.393010
21
0.288066
31
0.0
0
LINE
8
LEFT
10
1.393010
20
0.288066
30
0.0
11
1.393052
21
0.288094
31
0.0
0
LINE
8
LEFT
10
1.393052
20
0.288094
30
0.0
11
1.393094
21
0.288120
31
0.0
0
LINE
8
LEFT
10
1.393094
20
0.288120
30
0.0
11
1.393137
21
0.288146
31
0.0
0
LINE
8
LEFT
10
1.393137
20
0.288146
30
0.0
11
1.393181
21
0.288171
31
0.0
0
LINE
8
LEFT
10
1.393181
20
0.288171
30
0.0
11
1.393226
21
0.288194
31
0.0
0
LINE
8
LEFT
10
1.393226
20
0.288194
30
0.0
11
1.393271
21
0.288216
31
0.0
0
LINE
8
LEFT
10
1.393271
20
0.288216
30
0.0
11
1.393316
21
0.288238
31
0.0
0
LINE
8
LEFT
10
1.393316
20
0.288238
30
0.0
11
1.393362
21
0.288258
31
0.0
0
LINE
8
LEFT
10
1.393362
20
0.288258
30
0.0
11
1.393409
21
0.288277
31
0.0
0
LINE
8
LEFT
10
1.393409
20
0.288277
30
0.0
11
1.393456
21
0.288294
31
0.0
0
LINE
8
LEFT
10
1.393456
20
0.288294
30
0.0
11
1.393503
21
0.288311
31
0.0
0
LINE
8
LEFT
10
1.393503
20
0.288311
30
0.0
11
1.393551
21
0.288326
31
0.0
0
LINE
8
LEFT
10
1.393551
20
0.288326
30
0.0
11
1.393599
21
0.288341
31
0.0
0
LINE
8
LEFT
10
1.393599
20
0.288341
30
0.0
11
1.393647
21
0.288354
31
0.0
0
LINE
8
LEFT
10
1.393647
20
0.288354
30
0.0
11
1.393696
21
0.288365
31
0.0
0
LINE
8
LEFT
10
1.393696
20
0.288365
30
0.0
11
1.393745
21
0.288376
31
0.0
0
LINE
8
LEFT
10
1.393745
20
0.288376
30
0.0
11
1.393795
21
0.288385
31
0.0
0
LINE
8
LEFT
10
1.393795
20
0.288385
30
0.0
11
1.393844
21
0.288393
31
0.0
0
LINE
8
LEFT
10
1.393844
20
0.288393
30
0.0
11
1.393894
21
0.288400
31
0.0
0
LINE
8
LEFT
10
1.393894
20
0.288400
30
0.0
11
1.393944
21
0.288406
31
0.0
0
LINE
8
LEFT
10
1.393944
20
0.288406
30
0.0
11
1.393994
21
0.288410
31
0.0
0
LINE
8
LEFT
10
1.393994
20
0.288410
30
0.0
11
1.394044
21
0.288413
31
0.0
0
LINE
8
LEFT
10
1.394044
20
0.288413
30
0.0
11
1.394094
21
0.288415
31
0.0
0
LINE
8
LEFT
10
1.394094
20
0.288415
30
0.0
11
1.394144
21
0.288416
31
0.0
0
LINE
8
LEFT
10
1.394144
20
0.288416
30
0.0
11
1.402201
21
0.288416
31
0.0
0
LINE
8
LEFT
10
1.402201
20
0.288416
30
0.0
11
1.402251
21
0.288415
31
0.0
0
LINE
8
LEFT
10
1.402251
20
0.288415
30
0.0
11
1.402301
21
0.288413
31
0.0
0
LINE
8
LEFT
10
1.402301
20
0.288413
30
0.0
11
1.402351
21
0.288410
31
0.0
0
LINE
8
LEFT
10
1.402351
20
0.288410
30
0.0
11
1.402401
21
0.288406
31
0.0
0
LINE
8
LEFT
10
1.402401
20
0.288406
30
0.0
11
1.402451
21
0.288400
31
0.0
0
LINE
8
LEFT
10
1.402451
20
0.288400
30
0.0
11
1.402501
21
0.288393
31
0.0
0
LINE
8
LEFT
10
1.402501
20
0.288393
30
0.0
11
1.402551
21
0.288385
31
0.0
0
LINE
8
LEFT
10
1.402551
20
0.288385
30
0.0
11
1.402600
21
0.288376
31
0.0
0
LINE
8
LEFT
10
1.402600
20
0.288376
30
0.0
11
1.402649
21
0.288365
31
0.0
0
LINE
8
LEFT
10
1.402649
20
0.288365
30
0.0
11
1.402698
21
0.288354
31
0.0
0
LINE
8
LEFT
10
1.402698
20
0.288354
30
0.0
11
1.402746
21
0.288341
31
0.0
0
LINE
8
LEFT
10
1.402746
20
0.288341
30
0.0
11
1.402794
21
0.288326
31
0.0
0
LINE
8
LEFT
10
1.402794
20
0.288326
30
0.0
11
1.402842
21
0.288311
31
0.0
0
LINE
8
LEFT
10
1.402842
20
0.288311
30
0.0
11
1.402890
21
0.288294
31
0.0
0
LINE
8
LEFT
10
1.402890
20
0.288294
30
0.0
11
1.402937
21
0.288277
31
0.0
0
LINE
8
LEFT
10
1.402937
20
0.288277
30
0.0
11
1.402983
21
0.288258
31
0.0
0
LINE
8
LEFT
10
1.402983
20
0.288258
30
0.0
11
1.403029
21
0.288238
31
0.0
0
LINE
8
LEFT
10
1.403029
20
0.288238
30
0.0
11
1.403075
21
0.288216
31
0.0
0
LINE
8
LEFT
10
1.403075
20
0.288216
30
0.0
11
1.403120
21
0.288194
31
0.0
0
LINE
8
LEFT
10
1.403120
20
0.288194
30
0.0
11
1.403164
21
0.288171
31
0.0
0
LINE
8
LEFT
10
1.403164
20
0.288171
30
0.0
11
1.403208
21
0.288146
31
0.0
0
LINE
8
LEFT
10
1.403208
20
0.288146
30
0.0
11
1.403251
21
0.288120
31
0.0
0
LINE
8
LEFT
10
1.403251
20
0.288120
30
0.0
11
1.403294
21
0.288094
31
0.0
0
LINE
8
LEFT
10
1.403294
20
0.288094
30
0.0
11
1.403335
21
0.288066
31
0.0
0
LINE
8
LEFT
10
1.403335
20
0.288066
30
0.0
11
1.403376
21
0.288037
31
0.0
0
LINE
8
LEFT
10
1.403376
20
0.288037
30
0.0
11
1.403417
21
0.288007
31
0.0
0
LINE
8
LEFT
10
1.403417
20
0.288007
30
0.0
11
1.403457
21
0.287976
31
0.0
0
LINE
8
LEFT
10
1.403457
20
0.287976
30
0.0
11
1.403495
21
0.287945
31
0.0
0
LINE
8
LEFT
10
1.403495
20
0.287945
30
0.0
11
1.403533
21
0.287912
31
0.0
0
LINE
8
LEFT
10
1.403533
20
0.287912
30
0.0
11
1.403571
21
0.287878
31
0.0
0
LINE
8
LEFT
10
1.403571
20
0.287878
30
0.0
11
1.403607
21
0.287844
31
0.0
0
LINE
8
LEFT
10
1.403607
20
0.287844
30
0.0
11
1.403643
21
0.287808
31
0.0
0
LINE
8
LEFT
10
1.403643
20
0.287808
30
0.0
11
1.403677
21
0.287772
31
0.0
0
LINE
8
LEFT
10
1.403677
20
0.287772
30
0.0
11
1.403711
21
0.287735
31
0.0
0
LINE
8
LEFT
10
1.403711
20
0.287735
30
0.0
11
1.403744
21
0.287696
31
0.0
0
LINE
8
LEFT
10
1.403744
20
0.287696
30
0.0
11
1.403775
21
0.287658
31
0.0
0
LINE
8
LEFT
10
1.403775
20
0.287658
30
0.0
11
1.403806
21
0.287618
31
0.0
0
LINE
8
LEFT
10
1.403806
20
0.287618
30
0.0
11
1.403836
21
0.287578
31
0.0
0
LINE
8
LEFT
10
1.403836
20
0.287578
30
0.0
11
1.403865
21
0.287536
31
0.0
0
LINE
8
LEFT
10
1.403865
20
0.287536
30
0.0
11
1.403893
21
0.287495
31
0.0
0
LINE
8
LEFT
10
1.403893
20
0.287495
30
0.0
11
1.403919
21
0.287452
31
0.0
0
LINE
8
LEFT
10
1.403919
20
0.287452
30
0.0
11
1.403945
21
0.287409
31
0.0
0
LINE
8
LEFT
10
1.403945
20
0.287409
30
0.0
11
1.403970
21
0.287365
31
0.0
0
LINE
8
LEFT
10
1.403970
20
0.287365
30
0.0
11
1.403993
21
0.287321
31
0.0
0
LINE
8
LEFT
10
1.403993
20
0.287321
30
0.0
11
1.404015
21
0.287276
31
0.0
0
LINE
8
LEFT
10
1.404015
20
0.287276
30
0.0
11
1.404037
21
0.287230
31
0.0
0
LINE
8
LEFT
10
1.404037
20
0.287230
30
0.0
11
1.404057
21
0.287184
31
0.0
0
LINE
8
LEFT
10
1.404057
20
0.287184
30
0.0
11
1.404076
21
0.287138
31
0.0
0
LINE
8
LEFT
10
1.404076
20
0.287138
30
0.0
11
1.404093
21
0.287091
31
0.0
0
LINE
8
LEFT
10
1.404093
20
0.287091
30
0.0
11
1.404110
21
0.287043
31
0.0
0
LINE
8
LEFT
10
1.404110
20
0.287043
30
0.0
11
1.404125
21
0.286995
31
0.0
0
LINE
8
LEFT
10
1.404125
20
0.286995
30
0.0
11
1.404140
21
0.286947
31
0.0
0
LINE
8
LEFT
10
1.404140
20
0.286947
30
0.0
11
1.404153
21
0.286899
31
0.0
0
LINE
8
LEFT
10
1.404153
20
0.286899
30
0.0
11
1.404164
21
0.286850
31
0.0
0
LINE
8
LEFT
10
1.404164
20
0.286850
30
0.0
11
1.404175
21
0.286801
31
0.0
0
LINE
8
LEFT
10
1.404175
20
0.286801
30
0.0
11
1.404184
21
0.286752
31
0.0
0
LINE
8
LEFT
10
1.404184
20
0.286752
30
0.0
11
1.404192
21
0.286702
31
0.0
0
LINE
8
LEFT
10
1.404192
20
0.286702
30
0.0
11
1.404199
21
0.286652
31
0.0
0
LINE
8
LEFT
10
1.404199
20
0.286652
30
0.0
11
1.404205
21
0.286602
31
0.0
0
LINE
8
LEFT
10
1.404205
20
0.286602
30
0.0
11
1.404209
21
0.286552
31
0.0
0
LINE
8
LEFT
10
1.404209
20
0.286552
30
0.0
11
1.404212
21
0.286502
31
0.0
0
LINE
8
LEFT
10
1.404212
20
0.286502
30
0.0
11
1.404214
21
0.286452
31
0.0
0
LINE
8
LEFT
10
1.404214
20
0.286452
30
0.0
11
1.404215
21
0.286402
31
0.0
0
LINE
8
LEFT
10
1.404215
20
0.286402
30
0.0
11
1.404215
21
0.246120
31
0.0
0
LINE
8
TOP
10
0.000000
20
0.012084
30
0.0
11
1.160109
21
0.012084
31
0.0
0
LINE
8
TOP
10
0.000000
20
0.012084
30
0.0
11
1.160109
21
0.012084
31
0.0
0
LINE
8
TOP
10
0.000000
20
0.012084
30
0.0
11
0.000000
21
0.010070
31
0.0
0
LINE
8
TOP
10
1.160109
20
0.012084
30
0.0
11
1.160109
21
0.010070
31
0.0
0
LINE
8
TOP
10
1.160109
20
0.010070
30
0.0
11
1.160109
21
0.002014
31
0.0
0
LINE
8
TOP
10
0.000000
20
0.010070
30
0.0
11
0.000000
21
0.002014
31
0.0
0
LINE
8
TOP
10
0.000000
20
0.002014
30
0.0
11
0.000000
21
0.000000
31
0.0
0
LINE
8
TOP
10
0.000000
20
0.000000
30
0.0
11
1.160109
21
0.000000
31
0.0
0
LINE
8
TOP
10
1.160109
20
0.002014
30
0.0
11
1.160109
21
0.000000
31
0.0
0
LINE
8
TOP
10
0.000000
20
0.010070
30
0.0
11
1.160109
21
0.010070
31
0.0
0
LINE
8
TOP
10
0.000000
20
0.002014
30
0.0
11
1.160109
21
0.002014
31
0.0
0
ENDSEC
0
EOF
