0
SECTION
2
HEADER
9
$ACADVER
1
AC1009
0
ENDSEC
0
SECTION
2
TABLES
0
TABLE
2
LTYPE
70
3
0
LTYPE
2
CONTINUOUS
70
0
3
Solid line
72
65
73
0
40
0.0
0
LTYPE
2
HIDDEN
70
0
3
__ __ __ __ __
72
65
73
2
40
0.037500
49
0.025013
49
-0.012488
0
LTYPE
2
CENTER
70
0
3
___ _ ___ _ ___
72
65
73
4
40
0.087488
49
0.049988
49
-0.012488
49
0.012488
49
-0.012488
0
ENDTAB
0
TABLE
2
LAYER
70
5
0
LAYER
2
0
70
0
62
7
6
CONTINUOUS
0
LAYER
2
FRONT
70
0
62
7
6
CONTINUOUS
0
LAYER
2
LEFT
70
0
62
7
6
CONTINUOUS
0
LAYER
2
LEFT_HID
70
0
62
7
6
HIDDEN
0
LAYER
2
TOP
70
0
62
7
6
CONTINUOUS
0
ENDTAB
0
ENDSEC
0
SECTION
2
ENTITIES
0
LINE
8
FRONT
10
0.029781
20
0.179772
30
0.0
11
0.000000
21
0.179772
31
0.0
0
LINE
8
FRONT
10
0.029781
20
0.179772
30
0.0
11
0.029781
21
0.929772
31
0.0
0
LINE
8
FRONT
10
0.029781
20
0.929772
30
0.0
11
0.000000
21
0.929772
31
0.0
0
LINE
8
FRONT
10
0.000000
20
0.929772
30
0.0
11
0.000000
21
0.179772
31
0.0
0
LINE
8
LEFT
10
0.179781
20
0.179772
30
0.0
11
0.209563
21
0.179772
31
0.0
0
LINE
8
LEFT
10
0.179781
20
0.929772
30
0.0
11
0.209563
21
0.929772
31
0.0
0
LINE
8
LEFT
10
0.179781
20
0.929772
30
0.0
11
0.179781
21
0.179772
31
0.0
0
LINE
8
LEFT
10
0.209563
20
0.929772
30
0.0
11
0.209563
21
0.179772
31
0.0
0
LINE
8
LEFT_HID
6
HIDDEN
10
0.194672
20
0.179772
30
0.0
11
0.179781
21
0.179772
31
0.0
0
LINE
8
LEFT_HID
6
HIDDEN
10
0.209563
20
0.179772
30
0.0
11
0.194672
21
0.179772
31
0.0
0
LINE
8
LEFT_HID
6
HIDDEN
10
0.194672
20
0.929772
30
0.0
11
0.179781
21
0.929772
31
0.0
0
LINE
8
LEFT_HID
6
HIDDEN
10
0.209563
20
0.929772
30
0.0
11
0.194672
21
0.929772
31
0.0
0
LINE
8
TOP
10
0.029763
20
0.014886
30
0.0
11
0.029689
21
0.016369
31
0.0
0
LINE
8
TOP
10
0.029689
20
0.016369
30
0.0
11
0.029468
21
0.017837
31
0.0
0
LINE
8
TOP
10
0.029468
20
0.017837
30
0.0
11
0.029101
21
0.019275
31
0.0
0
LINE
8
TOP
10
0.029101
20
0.019275
30
0.0
11
0.028593
21
0.020670
31
0.0
0
LINE
8
TOP
10
0.028593
20
0.020670
30
0.0
11
0.027949
21
0.022008
31
0.0
0
LINE
8
TOP
10
0.027949
20
0.022008
30
0.0
11
0.027175
21
0.023274
31
0.0
0
LINE
8
TOP
10
0.027175
20
0.023274
30
0.0
11
0.026279
21
0.024458
31
0.0
0
LINE
8
TOP
10
0.026279
20
0.024458
30
0.0
11
0.025269
21
0.025546
31
0.0
0
LINE
8
TOP
10
0.025269
20
0.025546
30
0.0
11
0.024156
21
0.026528
31
0.0
0
LINE
8
TOP
10
0.024156
20
0.026528
30
0.0
11
0.022951
21
0.027395
31
0.0
0
LINE
8
TOP
10
0.022951
20
0.027395
30
0.0
11
0.021665
21
0.028137
31
0.0
0
LINE
8
TOP
10
0.021665
20
0.028137
30
0.0
11
0.020312
21
0.028747
31
0.0
0
LINE
8
TOP
10
0.020312
20
0.028747
30
0.0
11
0.018905
21
0.029220
31
0.0
0
LINE
8
TOP
10
0.018905
20
0.029220
30
0.0
11
0.017458
21
0.029550
31
0.0
0
LINE
8
TOP
10
0.017458
20
0.029550
30
0.0
11
0.015985
21
0.029735
31
0.0
0
LINE
8
TOP
10
0.015985
20
0.029735
30
0.0
11
0.014501
21
0.029772
31
0.0
0
LINE
8
TOP
10
0.014501
20
0.029772
30
0.0
11
0.013021
21
0.029661
31
0.0
0
LINE
8
TOP
10
0.013021
20
0.029661
30
0.0
11
0.011559
21
0.029403
31
0.0
0
LINE
8
TOP
10
0.011559
20
0.029403
30
0.0
11
0.010130
21
0.029001
31
0.0
0
LINE
8
TOP
10
0.010130
20
0.029001
30
0.0
11
0.008748
21
0.028459
31
0.0
0
LINE
8
TOP
10
0.008748
20
0.028459
30
0.0
11
0.007427
21
0.027782
31
0.0
0
LINE
8
TOP
10
0.007427
20
0.027782
30
0.0
11
0.006180
21
0.026976
31
0.0
0
LINE
8
TOP
10
0.006180
20
0.026976
30
0.0
11
0.005019
21
0.026051
31
0.0
0
LINE
8
TOP
10
0.005019
20
0.026051
30
0.0
11
0.003957
21
0.025014
31
0.0
0
LINE
8
TOP
10
0.003957
20
0.025014
30
0.0
11
0.003002
21
0.023877
31
0.0
0
LINE
8
TOP
10
0.003002
20
0.023877
30
0.0
11
0.002166
21
0.022650
31
0.0
0
LINE
8
TOP
10
0.002166
20
0.022650
30
0.0
11
0.001456
21
0.021347
31
0.0
0
LINE
8
TOP
10
0.001456
20
0.021347
30
0.0
11
0.000880
21
0.019979
31
0.0
0
LINE
8
TOP
10
0.000880
20
0.019979
30
0.0
11
0.000442
21
0.018560
31
0.0
0
LINE
8
TOP
10
0.000442
20
0.018560
30
0.0
11
0.000148
21
0.017105
31
0.0
0
LINE
8
TOP
10
0.000148
20
0.017105
30
0.0
11
0.000000
21
0.015628
31
0.0
0
LINE
8
TOP
10
0.000000
20
0.015628
30
0.0
11
0.000000
21
0.014144
31
0.0
0
LINE
8
TOP
10
0.000000
20
0.014144
30
0.0
11
0.000148
21
0.012667
31
0.0
0
LINE
8
TOP
10
0.000148
20
0.012667
30
0.0
11
0.000442
21
0.011212
31
0.0
0
LINE
8
TOP
10
0.000442
20
0.011212
30
0.0
11
0.000880
21
0.009793
31
0.0
0
LINE
8
TOP
10
0.000880
20
0.009793
30
0.0
11
0.001456
21
0.008425
31
0.0
0
LINE
8
TOP
10
0.001456
20
0.008425
30
0.0
11
0.002166
21
0.007122
31
0.0
0
LINE
8
TOP
10
0.002166
20
0.007122
30
0.0
11
0.003002
21
0.005895
31
0.0
0
LINE
8
TOP
10
0.003002
20
0.005895
30
0.0
11
0.003957
21
0.004758
31
0.0
0
LINE
8
TOP
10
0.003957
20
0.004758
30
0.0
11
0.005019
21
0.003721
31
0.0
0
LINE
8
TOP
10
0.005019
20
0.003721
30
0.0
11
0.006180
21
0.002796
31
0.0
0
LINE
8
TOP
10
0.006180
20
0.002796
30
0.0
11
0.007427
21
0.001990
31
0.0
0
LINE
8
TOP
10
0.007427
20
0.001990
30
0.0
11
0.008748
21
0.001313
31
0.0
0
LINE
8
TOP
10
0.008748
20
0.001313
30
0.0
11
0.010130
21
0.000771
31
0.0
0
LINE
8
TOP
10
0.010130
20
0.000771
30
0.0
11
0.011559
21
0.000369
31
0.0
0
LINE
8
TOP
10
0.011559
20
0.000369
30
0.0
11
0.013021
21
0.000111
31
0.0
0
LINE
8
TOP
10
0.013021
20
0.000111
30
0.0
11
0.014501
21
0.000000
31
0.0
0
LINE
8
TOP
10
0.014501
20
0.000000
30
0.0
11
0.015985
21
0.000037
31
0.0
0
LINE
8
TOP
10
0.015985
20
0.000037
30
0.0
11
0.017458
21
0.000222
31
0.0
0
LINE
8
TOP
10
0.017458
20
0.000222
30
0.0
11
0.018905
21
0.000552
31
0.0
0
LINE
8
TOP
10
0.018905
20
0.000552
30
0.0
11
0.020312
21
0.001025
31
0.0
0
LINE
8
TOP
10
0.020312
20
0.001025
30
0.0
11
0.021665
21
0.001635
31
0.0
0
LINE
8
TOP
10
0.021665
20
0.001635
30
0.0
11
0.022951
21
0.002377
31
0.0
0
LINE
8
TOP
10
0.022951
20
0.002377
30
0.0
11
0.024156
21
0.003244
31
0.0
0
LINE
8
TOP
10
0.024156
20
0.003244
30
0.0
11
0.025269
21
0.004226
31
0.0
0
LINE
8
TOP
10
0.025269
20
0.004226
30
0.0
11
0.026279
21
0.005314
31
0.0
0
LINE
8
TOP
10
0.026279
20
0.005314
30
0.0
11
0.027175
21
0.006498
31
0.0
0
LINE
8
TOP
10
0.027175
20
0.006498
30
0.0
11
0.027949
21
0.007764
31
0.0
0
LINE
8
TOP
10
0.027949
20
0.007764
30
0.0
11
0.028593
21
0.009102
31
0.0
0
LINE
8
TOP
10
0.028593
20
0.009102
30
0.0
11
0.029101
21
0.010497
31
0.0
0
LINE
8
TOP
10
0.029101
20
0.010497
30
0.0
11
0.029468
21
0.011935
31
0.0
0
LINE
8
TOP
10
0.029468
20
0.011935
30
0.0
11
0.029689
21
0.013403
31
0.0
0
LINE
8
TOP
10
0.029689
20
0.013403
30
0.0
11
0.029763
21
0.014886
31
0.0
0
ENDSEC
0
EOF
