0
SECTION
2
HEADER
9
$ACADVER
1
AC1009
0
ENDSEC
0
SECTION
2
TABLES
0
TABLE
2
LTYPE
70
3
0
LTYPE
2
CONTINUOUS
70
0
3
Solid line
72
65
73
0
40
0.0
0
LTYPE
2
HIDDEN
70
0
3
__ __ __ __ __
72
65
73
2
40
0.075000
49
0.050025
49
-0.024975
0
LTYPE
2
CENTER
70
0
3
___ _ ___ _ ___
72
65
73
4
40
0.174975
49
0.099975
49
-0.024975
49
0.024975
49
-0.024975
0
ENDTAB
0
TABLE
2
LAYER
70
6
0
LAYER
2
0
70
0
62
7
6
CONTINUOUS
0
LAYER
2
FRONT
70
0
62
7
6
CONTINUOUS
0
LAYER
2
FRONT_HID
70
0
62
7
6
HIDDEN
0
LAYER
2
LEFT
70
0
62
7
6
CONTINUOUS
0
LAYER
2
LEFT_HID
70
0
62
7
6
HIDDEN
0
LAYER
2
TOP
70
0
62
7
6
CONTINUOUS
0
ENDTAB
0
ENDSEC
0
SECTION
2
ENTITIES
0
LINE
8
FRONT
10
0.000000
20
1.799817
30
0.0
11
0.000000
21
2.049817
31
0.0
0
LINE
8
FRONT
10
1.250000
20
1.799817
30
0.0
11
1.250000
21
2.049817
31
0.0
0
LINE
8
FRONT
10
1.250000
20
1.799817
30
0.0
11
0.000000
21
1.799817
31
0.0
0
LINE
8
FRONT
10
1.250000
20
2.049817
30
0.0
11
0.000000
21
2.049817
31
0.0
0
LINE
8
FRONT
10
1.125000
20
2.049817
30
0.0
11
1.125000
21
2.424817
31
0.0
0
LINE
8
FRONT
10
1.125000
20
2.424817
30
0.0
11
0.125000
21
2.424817
31
0.0
0
LINE
8
FRONT
10
0.125000
20
2.424817
30
0.0
11
0.125000
21
2.049817
31
0.0
0
LINE
8
FRONT_HID
6
HIDDEN
10
1.125000
20
1.799817
30
0.0
11
1.093254
21
1.799817
31
0.0
0
LINE
8
FRONT_HID
6
HIDDEN
10
1.093254
20
1.799817
30
0.0
11
1.061508
21
1.799817
31
0.0
0
LINE
8
FRONT_HID
6
HIDDEN
10
1.061508
20
1.799817
30
0.0
11
1.029762
21
1.799817
31
0.0
0
LINE
8
FRONT_HID
6
HIDDEN
10
1.029762
20
1.799817
30
0.0
11
0.998016
21
1.799817
31
0.0
0
LINE
8
FRONT_HID
6
HIDDEN
10
0.998016
20
1.799817
30
0.0
11
0.966270
21
1.799817
31
0.0
0
LINE
8
FRONT_HID
6
HIDDEN
10
0.966270
20
1.799817
30
0.0
11
0.934524
21
1.799817
31
0.0
0
LINE
8
FRONT_HID
6
HIDDEN
10
0.934524
20
1.799817
30
0.0
11
0.902778
21
1.799817
31
0.0
0
LINE
8
FRONT_HID
6
HIDDEN
10
0.902778
20
1.799817
30
0.0
11
0.871032
21
1.799817
31
0.0
0
LINE
8
FRONT_HID
6
HIDDEN
10
0.871032
20
1.799817
30
0.0
11
0.839286
21
1.799817
31
0.0
0
LINE
8
FRONT_HID
6
HIDDEN
10
0.839286
20
1.799817
30
0.0
11
0.807540
21
1.799817
31
0.0
0
LINE
8
FRONT_HID
6
HIDDEN
10
0.807540
20
1.799817
30
0.0
11
0.775794
21
1.799817
31
0.0
0
LINE
8
FRONT_HID
6
HIDDEN
10
0.775794
20
1.799817
30
0.0
11
0.744048
21
1.799817
31
0.0
0
LINE
8
FRONT_HID
6
HIDDEN
10
0.744048
20
1.799817
30
0.0
11
0.712302
21
1.799817
31
0.0
0
LINE
8
FRONT_HID
6
HIDDEN
10
0.712302
20
1.799817
30
0.0
11
0.680556
21
1.799817
31
0.0
0
LINE
8
FRONT_HID
6
HIDDEN
10
0.680556
20
1.799817
30
0.0
11
0.648810
21
1.799817
31
0.0
0
LINE
8
FRONT_HID
6
HIDDEN
10
0.648810
20
1.799817
30
0.0
11
0.617064
21
1.799817
31
0.0
0
LINE
8
FRONT_HID
6
HIDDEN
10
0.617064
20
1.799817
30
0.0
11
0.585318
21
1.799817
31
0.0
0
LINE
8
FRONT_HID
6
HIDDEN
10
0.585318
20
1.799817
30
0.0
11
0.553571
21
1.799817
31
0.0
0
LINE
8
FRONT_HID
6
HIDDEN
10
0.553571
20
1.799817
30
0.0
11
0.521825
21
1.799817
31
0.0
0
LINE
8
FRONT_HID
6
HIDDEN
10
0.521825
20
1.799817
30
0.0
11
0.490079
21
1.799817
31
0.0
0
LINE
8
FRONT_HID
6
HIDDEN
10
0.490079
20
1.799817
30
0.0
11
0.458333
21
1.799817
31
0.0
0
LINE
8
FRONT_HID
6
HIDDEN
10
0.458333
20
1.799817
30
0.0
11
0.426587
21
1.799817
31
0.0
0
LINE
8
FRONT_HID
6
HIDDEN
10
0.426587
20
1.799817
30
0.0
11
0.394841
21
1.799817
31
0.0
0
LINE
8
FRONT_HID
6
HIDDEN
10
0.394841
20
1.799817
30
0.0
11
0.363095
21
1.799817
31
0.0
0
LINE
8
FRONT_HID
6
HIDDEN
10
0.363095
20
1.799817
30
0.0
11
0.331349
21
1.799817
31
0.0
0
LINE
8
FRONT_HID
6
HIDDEN
10
0.331349
20
1.799817
30
0.0
11
0.299603
21
1.799817
31
0.0
0
LINE
8
FRONT_HID
6
HIDDEN
10
0.299603
20
1.799817
30
0.0
11
0.267857
21
1.799817
31
0.0
0
LINE
8
FRONT_HID
6
HIDDEN
10
0.267857
20
1.799817
30
0.0
11
0.236111
21
1.799817
31
0.0
0
LINE
8
FRONT_HID
6
HIDDEN
10
0.236111
20
1.799817
30
0.0
11
0.204365
21
1.799817
31
0.0
0
LINE
8
FRONT_HID
6
HIDDEN
10
0.204365
20
1.799817
30
0.0
11
0.172619
21
1.799817
31
0.0
0
LINE
8
FRONT_HID
6
HIDDEN
10
0.172619
20
1.799817
30
0.0
11
0.140873
21
1.799817
31
0.0
0
LINE
8
FRONT_HID
6
HIDDEN
10
0.140873
20
1.799817
30
0.0
11
0.172619
21
1.799817
31
0.0
0
LINE
8
FRONT_HID
6
HIDDEN
10
0.172619
20
1.799817
30
0.0
11
0.204365
21
1.799817
31
0.0
0
LINE
8
FRONT_HID
6
HIDDEN
10
0.204365
20
1.799817
30
0.0
11
0.236111
21
1.799817
31
0.0
0
LINE
8
FRONT_HID
6
HIDDEN
10
0.236111
20
1.799817
30
0.0
11
0.267857
21
1.799817
31
0.0
0
LINE
8
FRONT_HID
6
HIDDEN
10
0.267857
20
1.799817
30
0.0
11
0.299603
21
1.799817
31
0.0
0
LINE
8
FRONT_HID
6
HIDDEN
10
0.299603
20
1.799817
30
0.0
11
0.331349
21
1.799817
31
0.0
0
LINE
8
FRONT_HID
6
HIDDEN
10
0.331349
20
1.799817
30
0.0
11
0.363095
21
1.799817
31
0.0
0
LINE
8
FRONT_HID
6
HIDDEN
10
0.363095
20
1.799817
30
0.0
11
0.394841
21
1.799817
31
0.0
0
LINE
8
FRONT_HID
6
HIDDEN
10
0.394841
20
1.799817
30
0.0
11
0.426587
21
1.799817
31
0.0
0
LINE
8
FRONT_HID
6
HIDDEN
10
0.426587
20
1.799817
30
0.0
11
0.458333
21
1.799817
31
0.0
0
LINE
8
FRONT_HID
6
HIDDEN
10
0.458333
20
1.799817
30
0.0
11
0.490079
21
1.799817
31
0.0
0
LINE
8
FRONT_HID
6
HIDDEN
10
0.490079
20
1.799817
30
0.0
11
0.521825
21
1.799817
31
0.0
0
LINE
8
FRONT_HID
6
HIDDEN
10
0.521825
20
1.799817
30
0.0
11
0.553571
21
1.799817
31
0.0
0
LINE
8
FRONT_HID
6
HIDDEN
10
0.553571
20
1.799817
30
0.0
11
0.585318
21
1.799817
31
0.0
0
LINE
8
FRONT_HID
6
HIDDEN
10
0.585318
20
1.799817
30
0.0
11
0.617064
21
1.799817
31
0.0
0
LINE
8
FRONT_HID
6
HIDDEN
10
0.617064
20
1.799817
30
0.0
11
0.648810
21
1.799817
31
0.0
0
LINE
8
FRONT_HID
6
HIDDEN
10
0.648810
20
1.799817
30
0.0
11
0.680556
21
1.799817
31
0.0
0
LINE
8
FRONT_HID
6
HIDDEN
10
0.680556
20
1.799817
30
0.0
11
0.712302
21
1.799817
31
0.0
0
LINE
8
FRONT_HID
6
HIDDEN
10
0.712302
20
1.799817
30
0.0
11
0.744048
21
1.799817
31
0.0
0
LINE
8
FRONT_HID
6
HIDDEN
10
0.744048
20
1.799817
30
0.0
11
0.775794
21
1.799817
31
0.0
0
LINE
8
FRONT_HID
6
HIDDEN
10
0.775794
20
1.799817
30
0.0
11
0.807540
21
1.799817
31
0.0
0
LINE
8
FRONT_HID
6
HIDDEN
10
0.807540
20
1.799817
30
0.0
11
0.839286
21
1.799817
31
0.0
0
LINE
8
FRONT_HID
6
HIDDEN
10
0.839286
20
1.799817
30
0.0
11
0.871032
21
1.799817
31
0.0
0
LINE
8
FRONT_HID
6
HIDDEN
10
0.871032
20
1.799817
30
0.0
11
0.902778
21
1.799817
31
0.0
0
LINE
8
FRONT_HID
6
HIDDEN
10
0.902778
20
1.799817
30
0.0
11
0.934524
21
1.799817
31
0.0
0
LINE
8
FRONT_HID
6
HIDDEN
10
0.934524
20
1.799817
30
0.0
11
0.966270
21
1.799817
31
0.0
0
LINE
8
FRONT_HID
6
HIDDEN
10
0.966270
20
1.799817
30
0.0
11
0.998016
21
1.799817
31
0.0
0
LINE
8
FRONT_HID
6
HIDDEN
10
0.998016
20
1.799817
30
0.0
11
1.029762
21
1.799817
31
0.0
0
LINE
8
FRONT_HID
6
HIDDEN
10
1.029762
20
1.799817
30
0.0
11
1.061508
21
1.799817
31
0.0
0
LINE
8
FRONT_HID
6
HIDDEN
10
1.061508
20
1.799817
30
0.0
11
1.093254
21
1.799817
31
0.0
0
LINE
8
FRONT_HID
6
HIDDEN
10
1.093254
20
1.799817
30
0.0
11
1.125000
21
1.799817
31
0.0
0
LINE
8
FRONT_HID
6
HIDDEN
10
1.125000
20
2.049817
30
0.0
11
0.125000
21
2.049817
31
0.0
0
LINE
8
FRONT_HID
6
HIDDEN
10
0.125000
20
2.049817
30
0.0
11
1.125000
21
2.049817
31
0.0
0
LINE
8
FRONT_HID
6
HIDDEN
10
1.000000
20
1.799817
30
0.0
11
0.976191
21
1.799817
31
0.0
0
LINE
8
FRONT_HID
6
HIDDEN
10
0.976191
20
1.799817
30
0.0
11
0.952381
21
1.799817
31
0.0
0
LINE
8
FRONT_HID
6
HIDDEN
10
0.952381
20
1.799817
30
0.0
11
0.928571
21
1.799817
31
0.0
0
LINE
8
FRONT_HID
6
HIDDEN
10
0.928571
20
1.799817
30
0.0
11
0.904762
21
1.799817
31
0.0
0
LINE
8
FRONT_HID
6
HIDDEN
10
0.904762
20
1.799817
30
0.0
11
0.880952
21
1.799817
31
0.0
0
LINE
8
FRONT_HID
6
HIDDEN
10
0.880952
20
1.799817
30
0.0
11
0.857143
21
1.799817
31
0.0
0
LINE
8
FRONT_HID
6
HIDDEN
10
0.857143
20
1.799817
30
0.0
11
0.833333
21
1.799817
31
0.0
0
LINE
8
FRONT_HID
6
HIDDEN
10
0.833333
20
1.799817
30
0.0
11
0.809524
21
1.799817
31
0.0
0
LINE
8
FRONT_HID
6
HIDDEN
10
0.809524
20
1.799817
30
0.0
11
0.785714
21
1.799817
31
0.0
0
LINE
8
FRONT_HID
6
HIDDEN
10
0.785714
20
1.799817
30
0.0
11
0.761905
21
1.799817
31
0.0
0
LINE
8
FRONT_HID
6
HIDDEN
10
0.761905
20
1.799817
30
0.0
11
0.738095
21
1.799817
31
0.0
0
LINE
8
FRONT_HID
6
HIDDEN
10
0.738095
20
1.799817
30
0.0
11
0.714286
21
1.799817
31
0.0
0
LINE
8
FRONT_HID
6
HIDDEN
10
0.714286
20
1.799817
30
0.0
11
0.690476
21
1.799817
31
0.0
0
LINE
8
FRONT_HID
6
HIDDEN
10
0.690476
20
1.799817
30
0.0
11
0.666667
21
1.799817
31
0.0
0
LINE
8
FRONT_HID
6
HIDDEN
10
0.666667
20
1.799817
30
0.0
11
0.642857
21
1.799817
31
0.0
0
LINE
8
FRONT_HID
6
HIDDEN
10
0.642857
20
1.799817
30
0.0
11
0.619048
21
1.799817
31
0.0
0
LINE
8
FRONT_HID
6
HIDDEN
10
0.619048
20
1.799817
30
0.0
11
0.595238
21
1.799817
31
0.0
0
LINE
8
FRONT_HID
6
HIDDEN
10
0.595238
20
1.799817
30
0.0
11
0.571429
21
1.799817
31
0.0
0
LINE
8
FRONT_HID
6
HIDDEN
10
0.571429
20
1.799817
30
0.0
11
0.547619
21
1.799817
31
0.0
0
LINE
8
FRONT_HID
6
HIDDEN
10
0.547619
20
1.799817
30
0.0
11
0.523810
21
1.799817
31
0.0
0
LINE
8
FRONT_HID
6
HIDDEN
10
0.523810
20
1.799817
30
0.0
11
0.500000
21
1.799817
31
0.0
0
LINE
8
FRONT_HID
6
HIDDEN
10
0.500000
20
1.799817
30
0.0
11
0.476191
21
1.799817
31
0.0
0
LINE
8
FRONT_HID
6
HIDDEN
10
0.476191
20
1.799817
30
0.0
11
0.452381
21
1.799817
31
0.0
0
LINE
8
FRONT_HID
6
HIDDEN
10
0.452381
20
1.799817
30
0.0
11
0.428571
21
1.799817
31
0.0
0
LINE
8
FRONT_HID
6
HIDDEN
10
0.428571
20
1.799817
30
0.0
11
0.404762
21
1.799817
31
0.0
0
LINE
8
FRONT_HID
6
HIDDEN
10
0.404762
20
1.799817
30
0.0
11
0.380952
21
1.799817
31
0.0
0
LINE
8
FRONT_HID
6
HIDDEN
10
0.380952
20
1.799817
30
0.0
11
0.357143
21
1.799817
31
0.0
0
LINE
8
FRONT_HID
6
HIDDEN
10
0.357143
20
1.799817
30
0.0
11
0.333333
21
1.799817
31
0.0
0
LINE
8
FRONT_HID
6
HIDDEN
10
0.333333
20
1.799817
30
0.0
11
0.309524
21
1.799817
31
0.0
0
LINE
8
FRONT_HID
6
HIDDEN
10
0.309524
20
1.799817
30
0.0
11
0.285714
21
1.799817
31
0.0
0
LINE
8
FRONT_HID
6
HIDDEN
10
0.285714
20
1.799817
30
0.0
11
0.261905
21
1.799817
31
0.0
0
LINE
8
FRONT_HID
6
HIDDEN
10
0.261905
20
1.799817
30
0.0
11
0.285714
21
1.799817
31
0.0
0
LINE
8
FRONT_HID
6
HIDDEN
10
0.285714
20
1.799817
30
0.0
11
0.309524
21
1.799817
31
0.0
0
LINE
8
FRONT_HID
6
HIDDEN
10
0.309524
20
1.799817
30
0.0
11
0.333333
21
1.799817
31
0.0
0
LINE
8
FRONT_HID
6
HIDDEN
10
0.333333
20
1.799817
30
0.0
11
0.357143
21
1.799817
31
0.0
0
LINE
8
FRONT_HID
6
HIDDEN
10
0.357143
20
1.799817
30
0.0
11
0.380952
21
1.799817
31
0.0
0
LINE
8
FRONT_HID
6
HIDDEN
10
0.380952
20
1.799817
30
0.0
11
0.404762
21
1.799817
31
0.0
0
LINE
8
FRONT_HID
6
HIDDEN
10
0.404762
20
1.799817
30
0.0
11
0.428571
21
1.799817
31
0.0
0
LINE
8
FRONT_HID
6
HIDDEN
10
0.428571
20
1.799817
30
0.0
11
0.452381
21
1.799817
31
0.0
0
LINE
8
FRONT_HID
6
HIDDEN
10
0.452381
20
1.799817
30
0.0
11
0.476191
21
1.799817
31
0.0
0
LINE
8
FRONT_HID
6
HIDDEN
10
0.476191
20
1.799817
30
0.0
11
0.500000
21
1.799817
31
0.0
0
LINE
8
FRONT_HID
6
HIDDEN
10
0.500000
20
1.799817
30
0.0
11
0.523810
21
1.799817
31
0.0
0
LINE
8
FRONT_HID
6
HIDDEN
10
0.523810
20
1.799817
30
0.0
11
0.547619
21
1.799817
31
0.0
0
LINE
8
FRONT_HID
6
HIDDEN
10
0.547619
20
1.799817
30
0.0
11
0.571429
21
1.799817
31
0.0
0
LINE
8
FRONT_HID
6
HIDDEN
10
0.571429
20
1.799817
30
0.0
11
0.595238
21
1.799817
31
0.0
0
LINE
8
FRONT_HID
6
HIDDEN
10
0.595238
20
1.799817
30
0.0
11
0.619048
21
1.799817
31
0.0
0
LINE
8
FRONT_HID
6
HIDDEN
10
0.619048
20
1.799817
30
0.0
11
0.642857
21
1.799817
31
0.0
0
LINE
8
FRONT_HID
6
HIDDEN
10
0.642857
20
1.799817
30
0.0
11
0.666667
21
1.799817
31
0.0
0
LINE
8
FRONT_HID
6
HIDDEN
10
0.666667
20
1.799817
30
0.0
11
0.690476
21
1.799817
31
0.0
0
LINE
8
FRONT_HID
6
HIDDEN
10
0.690476
20
1.799817
30
0.0
11
0.714286
21
1.799817
31
0.0
0
LINE
8
FRONT_HID
6
HIDDEN
10
0.714286
20
1.799817
30
0.0
11
0.738095
21
1.799817
31
0.0
0
LINE
8
FRONT_HID
6
HIDDEN
10
0.738095
20
1.799817
30
0.0
11
0.761905
21
1.799817
31
0.0
0
LINE
8
FRONT_HID
6
HIDDEN
10
0.761905
20
1.799817
30
0.0
11
0.785714
21
1.799817
31
0.0
0
LINE
8
FRONT_HID
6
HIDDEN
10
0.785714
20
1.799817
30
0.0
11
0.809524
21
1.799817
31
0.0
0
LINE
8
FRONT_HID
6
HIDDEN
10
0.809524
20
1.799817
30
0.0
11
0.833333
21
1.799817
31
0.0
0
LINE
8
FRONT_HID
6
HIDDEN
10
0.833333
20
1.799817
30
0.0
11
0.857143
21
1.799817
31
0.0
0
LINE
8
FRONT_HID
6
HIDDEN
10
0.857143
20
1.799817
30
0.0
11
0.880952
21
1.799817
31
0.0
0
LINE
8
FRONT_HID
6
HIDDEN
10
0.880952
20
1.799817
30
0.0
11
0.904762
21
1.799817
31
0.0
0
LINE
8
FRONT_HID
6
HIDDEN
10
0.904762
20
1.799817
30
0.0
11
0.928571
21
1.799817
31
0.0
0
LINE
8
FRONT_HID
6
HIDDEN
10
0.928571
20
1.799817
30
0.0
11
0.952381
21
1.799817
31
0.0
0
LINE
8
FRONT_HID
6
HIDDEN
10
0.952381
20
1.799817
30
0.0
11
0.976191
21
1.799817
31
0.0
0
LINE
8
FRONT_HID
6
HIDDEN
10
0.976191
20
1.799817
30
0.0
11
1.000000
21
1.799817
31
0.0
0
LINE
8
FRONT_HID
6
HIDDEN
10
0.937500
20
1.799817
30
0.0
11
0.312500
21
1.799817
31
0.0
0
LINE
8
FRONT_HID
6
HIDDEN
10
0.312500
20
1.799817
30
0.0
11
0.937500
21
1.799817
31
0.0
0
LINE
8
FRONT_HID
6
HIDDEN
10
1.000000
20
2.424817
30
0.0
11
0.250000
21
2.424817
31
0.0
0
LINE
8
FRONT_HID
6
HIDDEN
10
0.250000
20
2.424817
30
0.0
11
1.000000
21
2.424817
31
0.0
0
LINE
8
FRONT_HID
6
HIDDEN
10
0.937500
20
1.799817
30
0.0
11
0.937500
21
2.299817
31
0.0
0
LINE
8
FRONT_HID
6
HIDDEN
10
0.937500
20
2.299817
30
0.0
11
0.312500
21
2.299817
31
0.0
0
LINE
8
FRONT_HID
6
HIDDEN
10
0.312500
20
2.299817
30
0.0
11
0.937500
21
2.299817
31
0.0
0
LINE
8
FRONT_HID
6
HIDDEN
10
1.000000
20
2.299817
30
0.0
11
1.000000
21
2.424817
31
0.0
0
LINE
8
FRONT_HID
6
HIDDEN
10
1.000000
20
2.299817
30
0.0
11
0.250000
21
2.299817
31
0.0
0
LINE
8
FRONT_HID
6
HIDDEN
10
0.250000
20
2.299817
30
0.0
11
1.000000
21
2.299817
31
0.0
0
LINE
8
FRONT_HID
6
HIDDEN
10
0.312500
20
2.299817
30
0.0
11
0.312500
21
1.799817
31
0.0
0
LINE
8
FRONT_HID
6
HIDDEN
10
0.250000
20
2.424817
30
0.0
11
0.250000
21
2.299817
31
0.0
0
LINE
8
LEFT
10
2.714578
20
1.799817
30
0.0
11
3.050000
21
1.799817
31
0.0
0
LINE
8
LEFT
10
2.714578
20
2.049817
30
0.0
11
3.050000
21
2.049817
31
0.0
0
LINE
8
LEFT
10
2.714578
20
1.799817
30
0.0
11
2.714578
21
2.049817
31
0.0
0
LINE
8
LEFT
10
1.885422
20
1.799817
30
0.0
11
1.885422
21
2.049817
31
0.0
0
LINE
8
LEFT
10
1.885422
20
2.049817
30
0.0
11
2.714578
21
2.049817
31
0.0
0
LINE
8
LEFT
10
1.885422
20
1.799817
30
0.0
11
2.714578
21
1.799817
31
0.0
0
LINE
8
LEFT
10
1.550000
20
1.799817
30
0.0
11
1.885422
21
1.799817
31
0.0
0
LINE
8
LEFT
10
1.550000
20
2.049817
30
0.0
11
1.885422
21
2.049817
31
0.0
0
LINE
8
LEFT
10
1.800000
20
2.424817
30
0.0
11
2.800000
21
2.424817
31
0.0
0
LINE
8
LEFT
10
3.050000
20
2.049817
30
0.0
11
3.050000
21
1.799817
31
0.0
0
LINE
8
LEFT
10
1.550000
20
2.049817
30
0.0
11
1.550000
21
1.799817
31
0.0
0
LINE
8
LEFT
10
1.800000
20
2.424817
30
0.0
11
1.800000
21
2.049817
31
0.0
0
LINE
8
LEFT
10
2.800000
20
2.424817
30
0.0
11
2.800000
21
2.049817
31
0.0
0
LINE
8
LEFT_HID
6
HIDDEN
10
2.300000
20
1.799817
30
0.0
11
2.269050
21
1.799817
31
0.0
0
LINE
8
LEFT_HID
6
HIDDEN
10
2.269050
20
1.799817
30
0.0
11
2.238100
21
1.799817
31
0.0
0
LINE
8
LEFT_HID
6
HIDDEN
10
2.238100
20
1.799817
30
0.0
11
2.207150
21
1.799817
31
0.0
0
LINE
8
LEFT_HID
6
HIDDEN
10
2.207150
20
1.799817
30
0.0
11
2.176200
21
1.799817
31
0.0
0
LINE
8
LEFT_HID
6
HIDDEN
10
2.176200
20
1.799817
30
0.0
11
2.145250
21
1.799817
31
0.0
0
LINE
8
LEFT_HID
6
HIDDEN
10
2.145250
20
1.799817
30
0.0
11
2.114300
21
1.799817
31
0.0
0
LINE
8
LEFT_HID
6
HIDDEN
10
2.114300
20
1.799817
30
0.0
11
2.083349
21
1.799817
31
0.0
0
LINE
8
LEFT_HID
6
HIDDEN
10
2.083349
20
1.799817
30
0.0
11
2.052399
21
1.799817
31
0.0
0
LINE
8
LEFT_HID
6
HIDDEN
10
2.052399
20
1.799817
30
0.0
11
2.021449
21
1.799817
31
0.0
0
LINE
8
LEFT_HID
6
HIDDEN
10
2.021449
20
1.799817
30
0.0
11
1.990499
21
1.799817
31
0.0
0
LINE
8
LEFT_HID
6
HIDDEN
10
1.990499
20
1.799817
30
0.0
11
1.959549
21
1.799817
31
0.0
0
LINE
8
LEFT_HID
6
HIDDEN
10
1.959549
20
1.799817
30
0.0
11
1.928599
21
1.799817
31
0.0
0
LINE
8
LEFT_HID
6
HIDDEN
10
1.928599
20
1.799817
30
0.0
11
1.897649
21
1.799817
31
0.0
0
LINE
8
LEFT_HID
6
HIDDEN
10
1.897649
20
1.799817
30
0.0
11
1.866699
21
1.799817
31
0.0
0
LINE
8
LEFT_HID
6
HIDDEN
10
1.866699
20
1.799817
30
0.0
11
1.835749
21
1.799817
31
0.0
0
LINE
8
LEFT_HID
6
HIDDEN
10
1.835749
20
1.799817
30
0.0
11
1.820274
21
1.799817
31
0.0
0
LINE
8
LEFT_HID
6
HIDDEN
10
1.820274
20
1.799817
30
0.0
11
1.851224
21
1.799817
31
0.0
0
LINE
8
LEFT_HID
6
HIDDEN
10
1.851224
20
1.799817
30
0.0
11
1.882174
21
1.799817
31
0.0
0
LINE
8
LEFT_HID
6
HIDDEN
10
1.882174
20
1.799817
30
0.0
11
1.913124
21
1.799817
31
0.0
0
LINE
8
LEFT_HID
6
HIDDEN
10
1.913124
20
1.799817
30
0.0
11
1.944074
21
1.799817
31
0.0
0
LINE
8
LEFT_HID
6
HIDDEN
10
1.944074
20
1.799817
30
0.0
11
1.975024
21
1.799817
31
0.0
0
LINE
8
LEFT_HID
6
HIDDEN
10
1.975024
20
1.799817
30
0.0
11
2.005974
21
1.799817
31
0.0
0
LINE
8
LEFT_HID
6
HIDDEN
10
2.005974
20
1.799817
30
0.0
11
2.036924
21
1.799817
31
0.0
0
LINE
8
LEFT_HID
6
HIDDEN
10
2.036924
20
1.799817
30
0.0
11
2.067874
21
1.799817
31
0.0
0
LINE
8
LEFT_HID
6
HIDDEN
10
2.067874
20
1.799817
30
0.0
11
2.098824
21
1.799817
31
0.0
0
LINE
8
LEFT_HID
6
HIDDEN
10
2.098824
20
1.799817
30
0.0
11
2.129775
21
1.799817
31
0.0
0
LINE
8
LEFT_HID
6
HIDDEN
10
2.129775
20
1.799817
30
0.0
11
2.160725
21
1.799817
31
0.0
0
LINE
8
LEFT_HID
6
HIDDEN
10
2.160725
20
1.799817
30
0.0
11
2.191675
21
1.799817
31
0.0
0
LINE
8
LEFT_HID
6
HIDDEN
10
2.191675
20
1.799817
30
0.0
11
2.222625
21
1.799817
31
0.0
0
LINE
8
LEFT_HID
6
HIDDEN
10
2.222625
20
1.799817
30
0.0
11
2.253575
21
1.799817
31
0.0
0
LINE
8
LEFT_HID
6
HIDDEN
10
2.253575
20
1.799817
30
0.0
11
2.284525
21
1.799817
31
0.0
0
LINE
8
LEFT_HID
6
HIDDEN
10
2.284525
20
1.799817
30
0.0
11
2.315475
21
1.799817
31
0.0
0
LINE
8
LEFT_HID
6
HIDDEN
10
2.315475
20
1.799817
30
0.0
11
2.346425
21
1.799817
31
0.0
0
LINE
8
LEFT_HID
6
HIDDEN
10
2.346425
20
1.799817
30
0.0
11
2.377375
21
1.799817
31
0.0
0
LINE
8
LEFT_HID
6
HIDDEN
10
2.377375
20
1.799817
30
0.0
11
2.408325
21
1.799817
31
0.0
0
LINE
8
LEFT_HID
6
HIDDEN
10
2.408325
20
1.799817
30
0.0
11
2.439276
21
1.799817
31
0.0
0
LINE
8
LEFT_HID
6
HIDDEN
10
2.439276
20
1.799817
30
0.0
11
2.470226
21
1.799817
31
0.0
0
LINE
8
LEFT_HID
6
HIDDEN
10
2.470226
20
1.799817
30
0.0
11
2.501176
21
1.799817
31
0.0
0
LINE
8
LEFT_HID
6
HIDDEN
10
2.501176
20
1.799817
30
0.0
11
2.532126
21
1.799817
31
0.0
0
LINE
8
LEFT_HID
6
HIDDEN
10
2.532126
20
1.799817
30
0.0
11
2.563076
21
1.799817
31
0.0
0
LINE
8
LEFT_HID
6
HIDDEN
10
2.563076
20
1.799817
30
0.0
11
2.594026
21
1.799817
31
0.0
0
LINE
8
LEFT_HID
6
HIDDEN
10
2.594026
20
1.799817
30
0.0
11
2.624976
21
1.799817
31
0.0
0
LINE
8
LEFT_HID
6
HIDDEN
10
2.624976
20
1.799817
30
0.0
11
2.655926
21
1.799817
31
0.0
0
LINE
8
LEFT_HID
6
HIDDEN
10
2.655926
20
1.799817
30
0.0
11
2.686876
21
1.799817
31
0.0
0
LINE
8
LEFT_HID
6
HIDDEN
10
2.686876
20
1.799817
30
0.0
11
2.717826
21
1.799817
31
0.0
0
LINE
8
LEFT_HID
6
HIDDEN
10
2.717826
20
1.799817
30
0.0
11
2.748776
21
1.799817
31
0.0
0
LINE
8
LEFT_HID
6
HIDDEN
10
2.748776
20
1.799817
30
0.0
11
2.779727
21
1.799817
31
0.0
0
LINE
8
LEFT_HID
6
HIDDEN
10
2.779727
20
1.799817
30
0.0
11
2.764251
21
1.799817
31
0.0
0
LINE
8
LEFT_HID
6
HIDDEN
10
2.764251
20
1.799817
30
0.0
11
2.733301
21
1.799817
31
0.0
0
LINE
8
LEFT_HID
6
HIDDEN
10
2.733301
20
1.799817
30
0.0
11
2.702351
21
1.799817
31
0.0
0
LINE
8
LEFT_HID
6
HIDDEN
10
2.702351
20
1.799817
30
0.0
11
2.671401
21
1.799817
31
0.0
0
LINE
8
LEFT_HID
6
HIDDEN
10
2.671401
20
1.799817
30
0.0
11
2.640451
21
1.799817
31
0.0
0
LINE
8
LEFT_HID
6
HIDDEN
10
2.640451
20
1.799817
30
0.0
11
2.609501
21
1.799817
31
0.0
0
LINE
8
LEFT_HID
6
HIDDEN
10
2.609501
20
1.799817
30
0.0
11
2.578551
21
1.799817
31
0.0
0
LINE
8
LEFT_HID
6
HIDDEN
10
2.578551
20
1.799817
30
0.0
11
2.547601
21
1.799817
31
0.0
0
LINE
8
LEFT_HID
6
HIDDEN
10
2.547601
20
1.799817
30
0.0
11
2.516651
21
1.799817
31
0.0
0
LINE
8
LEFT_HID
6
HIDDEN
10
2.516651
20
1.799817
30
0.0
11
2.485701
21
1.799817
31
0.0
0
LINE
8
LEFT_HID
6
HIDDEN
10
2.485701
20
1.799817
30
0.0
11
2.454751
21
1.799817
31
0.0
0
LINE
8
LEFT_HID
6
HIDDEN
10
2.454751
20
1.799817
30
0.0
11
2.423800
21
1.799817
31
0.0
0
LINE
8
LEFT_HID
6
HIDDEN
10
2.423800
20
1.799817
30
0.0
11
2.392850
21
1.799817
31
0.0
0
LINE
8
LEFT_HID
6
HIDDEN
10
2.392850
20
1.799817
30
0.0
11
2.361900
21
1.799817
31
0.0
0
LINE
8
LEFT_HID
6
HIDDEN
10
2.361900
20
1.799817
30
0.0
11
2.330950
21
1.799817
31
0.0
0
LINE
8
LEFT_HID
6
HIDDEN
10
2.330950
20
1.799817
30
0.0
11
2.300000
21
1.799817
31
0.0
0
LINE
8
LEFT_HID
6
HIDDEN
10
2.300000
20
2.049817
30
0.0
11
1.800000
21
2.049817
31
0.0
0
LINE
8
LEFT_HID
6
HIDDEN
10
1.800000
20
2.049817
30
0.0
11
2.800000
21
2.049817
31
0.0
0
LINE
8
LEFT_HID
6
HIDDEN
10
2.800000
20
2.049817
30
0.0
11
2.300000
21
2.049817
31
0.0
0
LINE
8
LEFT_HID
6
HIDDEN
10
2.300000
20
1.799817
30
0.0
11
2.276788
21
1.799817
31
0.0
0
LINE
8
LEFT_HID
6
HIDDEN
10
2.276788
20
1.799817
30
0.0
11
2.253575
21
1.799817
31
0.0
0
LINE
8
LEFT_HID
6
HIDDEN
10
2.253575
20
1.799817
30
0.0
11
2.230362
21
1.799817
31
0.0
0
LINE
8
LEFT_HID
6
HIDDEN
10
2.230362
20
1.799817
30
0.0
11
2.207150
21
1.799817
31
0.0
0
LINE
8
LEFT_HID
6
HIDDEN
10
2.207150
20
1.799817
30
0.0
11
2.183937
21
1.799817
31
0.0
0
LINE
8
LEFT_HID
6
HIDDEN
10
2.183937
20
1.799817
30
0.0
11
2.160725
21
1.799817
31
0.0
0
LINE
8
LEFT_HID
6
HIDDEN
10
2.160725
20
1.799817
30
0.0
11
2.137512
21
1.799817
31
0.0
0
LINE
8
LEFT_HID
6
HIDDEN
10
2.137512
20
1.799817
30
0.0
11
2.114300
21
1.799817
31
0.0
0
LINE
8
LEFT_HID
6
HIDDEN
10
2.114300
20
1.799817
30
0.0
11
2.091087
21
1.799817
31
0.0
0
LINE
8
LEFT_HID
6
HIDDEN
10
2.091087
20
1.799817
30
0.0
11
2.067874
21
1.799817
31
0.0
0
LINE
8
LEFT_HID
6
HIDDEN
10
2.067874
20
1.799817
30
0.0
11
2.044662
21
1.799817
31
0.0
0
LINE
8
LEFT_HID
6
HIDDEN
10
2.044662
20
1.799817
30
0.0
11
2.021449
21
1.799817
31
0.0
0
LINE
8
LEFT_HID
6
HIDDEN
10
2.021449
20
1.799817
30
0.0
11
1.998237
21
1.799817
31
0.0
0
LINE
8
LEFT_HID
6
HIDDEN
10
1.998237
20
1.799817
30
0.0
11
1.975024
21
1.799817
31
0.0
0
LINE
8
LEFT_HID
6
HIDDEN
10
1.975024
20
1.799817
30
0.0
11
1.951812
21
1.799817
31
0.0
0
LINE
8
LEFT_HID
6
HIDDEN
10
1.951812
20
1.799817
30
0.0
11
1.940205
21
1.799817
31
0.0
0
LINE
8
LEFT_HID
6
HIDDEN
10
1.940205
20
1.799817
30
0.0
11
1.963418
21
1.799817
31
0.0
0
LINE
8
LEFT_HID
6
HIDDEN
10
1.963418
20
1.799817
30
0.0
11
1.986630
21
1.799817
31
0.0
0
LINE
8
LEFT_HID
6
HIDDEN
10
1.986630
20
1.799817
30
0.0
11
2.009843
21
1.799817
31
0.0
0
LINE
8
LEFT_HID
6
HIDDEN
10
2.009843
20
1.799817
30
0.0
11
2.033056
21
1.799817
31
0.0
0
LINE
8
LEFT_HID
6
HIDDEN
10
2.033056
20
1.799817
30
0.0
11
2.056268
21
1.799817
31
0.0
0
LINE
8
LEFT_HID
6
HIDDEN
10
2.056268
20
1.799817
30
0.0
11
2.079481
21
1.799817
31
0.0
0
LINE
8
LEFT_HID
6
HIDDEN
10
2.079481
20
1.799817
30
0.0
11
2.102693
21
1.799817
31
0.0
0
LINE
8
LEFT_HID
6
HIDDEN
10
2.102693
20
1.799817
30
0.0
11
2.125906
21
1.799817
31
0.0
0
LINE
8
LEFT_HID
6
HIDDEN
10
2.125906
20
1.799817
30
0.0
11
2.149118
21
1.799817
31
0.0
0
LINE
8
LEFT_HID
6
HIDDEN
10
2.149118
20
1.799817
30
0.0
11
2.172331
21
1.799817
31
0.0
0
LINE
8
LEFT_HID
6
HIDDEN
10
2.172331
20
1.799817
30
0.0
11
2.195544
21
1.799817
31
0.0
0
LINE
8
LEFT_HID
6
HIDDEN
10
2.195544
20
1.799817
30
0.0
11
2.218756
21
1.799817
31
0.0
0
LINE
8
LEFT_HID
6
HIDDEN
10
2.218756
20
1.799817
30
0.0
11
2.241969
21
1.799817
31
0.0
0
LINE
8
LEFT_HID
6
HIDDEN
10
2.241969
20
1.799817
30
0.0
11
2.265181
21
1.799817
31
0.0
0
LINE
8
LEFT_HID
6
HIDDEN
10
2.265181
20
1.799817
30
0.0
11
2.288394
21
1.799817
31
0.0
0
LINE
8
LEFT_HID
6
HIDDEN
10
2.288394
20
1.799817
30
0.0
11
2.311606
21
1.799817
31
0.0
0
LINE
8
LEFT_HID
6
HIDDEN
10
2.311606
20
1.799817
30
0.0
11
2.334819
21
1.799817
31
0.0
0
LINE
8
LEFT_HID
6
HIDDEN
10
2.334819
20
1.799817
30
0.0
11
2.358032
21
1.799817
31
0.0
0
LINE
8
LEFT_HID
6
HIDDEN
10
2.358032
20
1.799817
30
0.0
11
2.381244
21
1.799817
31
0.0
0
LINE
8
LEFT_HID
6
HIDDEN
10
2.381244
20
1.799817
30
0.0
11
2.404457
21
1.799817
31
0.0
0
LINE
8
LEFT_HID
6
HIDDEN
10
2.404457
20
1.799817
30
0.0
11
2.427669
21
1.799817
31
0.0
0
LINE
8
LEFT_HID
6
HIDDEN
10
2.427669
20
1.799817
30
0.0
11
2.450882
21
1.799817
31
0.0
0
LINE
8
LEFT_HID
6
HIDDEN
10
2.450882
20
1.799817
30
0.0
11
2.474094
21
1.799817
31
0.0
0
LINE
8
LEFT_HID
6
HIDDEN
10
2.474094
20
1.799817
30
0.0
11
2.497307
21
1.799817
31
0.0
0
LINE
8
LEFT_HID
6
HIDDEN
10
2.497307
20
1.799817
30
0.0
11
2.520519
21
1.799817
31
0.0
0
LINE
8
LEFT_HID
6
HIDDEN
10
2.520519
20
1.799817
30
0.0
11
2.543732
21
1.799817
31
0.0
0
LINE
8
LEFT_HID
6
HIDDEN
10
2.543732
20
1.799817
30
0.0
11
2.566945
21
1.799817
31
0.0
0
LINE
8
LEFT_HID
6
HIDDEN
10
2.566945
20
1.799817
30
0.0
11
2.590157
21
1.799817
31
0.0
0
LINE
8
LEFT_HID
6
HIDDEN
10
2.590157
20
1.799817
30
0.0
11
2.613370
21
1.799817
31
0.0
0
LINE
8
LEFT_HID
6
HIDDEN
10
2.613370
20
1.799817
30
0.0
11
2.636582
21
1.799817
31
0.0
0
LINE
8
LEFT_HID
6
HIDDEN
10
2.636582
20
1.799817
30
0.0
11
2.659795
21
1.799817
31
0.0
0
LINE
8
LEFT_HID
6
HIDDEN
10
2.659795
20
1.799817
30
0.0
11
2.648189
21
1.799817
31
0.0
0
LINE
8
LEFT_HID
6
HIDDEN
10
2.648189
20
1.799817
30
0.0
11
2.624976
21
1.799817
31
0.0
0
LINE
8
LEFT_HID
6
HIDDEN
10
2.624976
20
1.799817
30
0.0
11
2.601763
21
1.799817
31
0.0
0
LINE
8
LEFT_HID
6
HIDDEN
10
2.601763
20
1.799817
30
0.0
11
2.578551
21
1.799817
31
0.0
0
LINE
8
LEFT_HID
6
HIDDEN
10
2.578551
20
1.799817
30
0.0
11
2.555338
21
1.799817
31
0.0
0
LINE
8
LEFT_HID
6
HIDDEN
10
2.555338
20
1.799817
30
0.0
11
2.532126
21
1.799817
31
0.0
0
LINE
8
LEFT_HID
6
HIDDEN
10
2.532126
20
1.799817
30
0.0
11
2.508913
21
1.799817
31
0.0
0
LINE
8
LEFT_HID
6
HIDDEN
10
2.508913
20
1.799817
30
0.0
11
2.485701
21
1.799817
31
0.0
0
LINE
8
LEFT_HID
6
HIDDEN
10
2.485701
20
1.799817
30
0.0
11
2.462488
21
1.799817
31
0.0
0
LINE
8
LEFT_HID
6
HIDDEN
10
2.462488
20
1.799817
30
0.0
11
2.439276
21
1.799817
31
0.0
0
LINE
8
LEFT_HID
6
HIDDEN
10
2.439276
20
1.799817
30
0.0
11
2.416063
21
1.799817
31
0.0
0
LINE
8
LEFT_HID
6
HIDDEN
10
2.416063
20
1.799817
30
0.0
11
2.392850
21
1.799817
31
0.0
0
LINE
8
LEFT_HID
6
HIDDEN
10
2.392850
20
1.799817
30
0.0
11
2.369638
21
1.799817
31
0.0
0
LINE
8
LEFT_HID
6
HIDDEN
10
2.369638
20
1.799817
30
0.0
11
2.346425
21
1.799817
31
0.0
0
LINE
8
LEFT_HID
6
HIDDEN
10
2.346425
20
1.799817
30
0.0
11
2.323213
21
1.799817
31
0.0
0
LINE
8
LEFT_HID
6
HIDDEN
10
2.323213
20
1.799817
30
0.0
11
2.300000
21
1.799817
31
0.0
0
LINE
8
LEFT_HID
6
HIDDEN
10
2.300000
20
2.424817
30
0.0
11
1.800000
21
2.424817
31
0.0
0
LINE
8
LEFT_HID
6
HIDDEN
10
2.800000
20
2.424817
30
0.0
11
2.300000
21
2.424817
31
0.0
0
LINE
8
LEFT_HID
6
HIDDEN
10
2.300000
20
1.799817
30
0.0
11
1.987500
21
1.799817
31
0.0
0
LINE
8
LEFT_HID
6
HIDDEN
10
1.987500
20
1.799817
30
0.0
11
2.612500
21
1.799817
31
0.0
0
LINE
8
LEFT_HID
6
HIDDEN
10
2.612500
20
1.799817
30
0.0
11
2.300000
21
1.799817
31
0.0
0
LINE
8
LEFT_HID
6
HIDDEN
10
2.300000
20
2.424817
30
0.0
11
1.925000
21
2.424817
31
0.0
0
LINE
8
LEFT_HID
6
HIDDEN
10
1.925000
20
2.424817
30
0.0
11
2.675000
21
2.424817
31
0.0
0
LINE
8
LEFT_HID
6
HIDDEN
10
2.675000
20
2.424817
30
0.0
11
2.300000
21
2.424817
31
0.0
0
LINE
8
LEFT_HID
6
HIDDEN
10
2.300000
20
2.299817
30
0.0
11
1.987500
21
2.299817
31
0.0
0
LINE
8
LEFT_HID
6
HIDDEN
10
1.987500
20
2.299817
30
0.0
11
2.612500
21
2.299817
31
0.0
0
LINE
8
LEFT_HID
6
HIDDEN
10
2.612500
20
2.299817
30
0.0
11
2.300000
21
2.299817
31
0.0
0
LINE
8
LEFT_HID
6
HIDDEN
10
2.300000
20
2.299817
30
0.0
11
1.925000
21
2.299817
31
0.0
0
LINE
8
LEFT_HID
6
HIDDEN
10
1.925000
20
2.299817
30
0.0
11
2.675000
21
2.299817
31
0.0
0
LINE
8
LEFT_HID
6
HIDDEN
10
2.675000
20
2.299817
30
0.0
11
2.300000
21
2.299817
31
0.0
0
LINE
8
LEFT_HID
6
HIDDEN
10
1.987500
20
2.299817
30
0.0
11
1.987500
21
1.799817
31
0.0
0
LINE
8
LEFT_HID
6
HIDDEN
10
2.612500
20
2.299817
30
0.0
11
2.612500
21
1.799817
31
0.0
0
LINE
8
LEFT_HID
6
HIDDEN
10
1.925000
20
2.424817
30
0.0
11
1.925000
21
2.299817
31
0.0
0
LINE
8
LEFT_HID
6
HIDDEN
10
2.675000
20
2.424817
30
0.0
11
2.675000
21
2.299817
31
0.0
0
LINE
8
TOP
10
0.000000
20
0.335330
30
0.0
11
0.013269
21
0.315990
31
0.0
0
LINE
8
TOP
10
0.013269
20
0.315990
30
0.0
11
0.027136
21
0.297075
31
0.0
0
LINE
8
TOP
10
0.027136
20
0.297075
30
0.0
11
0.041587
21
0.278602
31
0.0
0
LINE
8
TOP
10
0.041587
20
0.278602
30
0.0
11
0.056610
21
0.260590
31
0.0
0
LINE
8
TOP
10
0.056610
20
0.260590
30
0.0
11
0.072188
21
0.243057
31
0.0
0
LINE
8
TOP
10
0.072188
20
0.243057
30
0.0
11
0.088306
21
0.226019
31
0.0
0
LINE
8
TOP
10
0.088306
20
0.226019
30
0.0
11
0.104950
21
0.209494
31
0.0
0
LINE
8
TOP
10
0.104950
20
0.209494
30
0.0
11
0.122102
21
0.193497
31
0.0
0
LINE
8
TOP
10
0.122102
20
0.193497
30
0.0
11
0.139746
21
0.178044
31
0.0
0
LINE
8
TOP
10
0.139746
20
0.178044
30
0.0
11
0.157864
21
0.163151
31
0.0
0
LINE
8
TOP
10
0.157864
20
0.163151
30
0.0
11
0.176440
21
0.148831
31
0.0
0
LINE
8
TOP
10
0.176440
20
0.148831
30
0.0
11
0.195454
21
0.135100
31
0.0
0
LINE
8
TOP
10
0.195454
20
0.135100
30
0.0
11
0.214888
21
0.121969
31
0.0
0
LINE
8
TOP
10
0.214888
20
0.121969
30
0.0
11
0.234723
21
0.109452
31
0.0
0
LINE
8
TOP
10
0.234723
20
0.109452
30
0.0
11
0.254940
21
0.097562
31
0.0
0
LINE
8
TOP
10
0.254940
20
0.097562
30
0.0
11
0.275518
21
0.086310
31
0.0
0
LINE
8
TOP
10
0.275518
20
0.086310
30
0.0
11
0.296439
21
0.075707
31
0.0
0
LINE
8
TOP
10
0.296439
20
0.075707
30
0.0
11
0.317680
21
0.065763
31
0.0
0
LINE
8
TOP
10
0.317680
20
0.065763
30
0.0
11
0.339223
21
0.056488
31
0.0
0
LINE
8
TOP
10
0.339223
20
0.056488
30
0.0
11
0.361045
21
0.047892
31
0.0
0
LINE
8
TOP
10
0.361045
20
0.047892
30
0.0
11
0.383124
21
0.039981
31
0.0
0
LINE
8
TOP
10
0.383124
20
0.039981
30
0.0
11
0.405441
21
0.032766
31
0.0
0
LINE
8
TOP
10
0.405441
20
0.032766
30
0.0
11
0.427972
21
0.026251
31
0.0
0
LINE
8
TOP
10
0.427972
20
0.026251
30
0.0
11
0.450696
21
0.020444
31
0.0
0
LINE
8
TOP
10
0.450696
20
0.020444
30
0.0
11
0.473590
21
0.015351
31
0.0
0
LINE
8
TOP
10
0.473590
20
0.015351
30
0.0
11
0.496633
21
0.010975
31
0.0
0
LINE
8
TOP
10
0.496633
20
0.010975
30
0.0
11
0.519800
21
0.007323
31
0.0
0
LINE
8
TOP
10
0.519800
20
0.007323
30
0.0
11
0.543071
21
0.004397
31
0.0
0
LINE
8
TOP
10
0.543071
20
0.004397
30
0.0
11
0.566422
21
0.002199
31
0.0
0
LINE
8
TOP
10
0.566422
20
0.002199
30
0.0
11
0.589830
21
0.000733
31
0.0
0
LINE
8
TOP
10
0.589830
20
0.000733
30
0.0
11
0.613273
21
0.000000
31
0.0
0
LINE
8
TOP
10
0.613273
20
0.000000
30
0.0
11
0.636727
21
0.000000
31
0.0
0
LINE
8
TOP
10
0.636727
20
0.000000
30
0.0
11
0.660170
21
0.000733
31
0.0
0
LINE
8
TOP
10
0.660170
20
0.000733
30
0.0
11
0.683578
21
0.002199
31
0.0
0
LINE
8
TOP
10
0.683578
20
0.002199
30
0.0
11
0.706929
21
0.004397
31
0.0
0
LINE
8
TOP
10
0.706929
20
0.004397
30
0.0
11
0.730200
21
0.007323
31
0.0
0
LINE
8
TOP
10
0.730200
20
0.007323
30
0.0
11
0.753368
21
0.010975
31
0.0
0
LINE
8
TOP
10
0.753368
20
0.010975
30
0.0
11
0.776410
21
0.015351
31
0.0
0
LINE
8
TOP
10
0.776410
20
0.015351
30
0.0
11
0.799304
21
0.020444
31
0.0
0
LINE
8
TOP
10
0.799304
20
0.020444
30
0.0
11
0.822028
21
0.026251
31
0.0
0
LINE
8
TOP
10
0.822028
20
0.026251
30
0.0
11
0.844559
21
0.032766
31
0.0
0
LINE
8
TOP
10
0.844559
20
0.032766
30
0.0
11
0.866876
21
0.039981
31
0.0
0
LINE
8
TOP
10
0.866876
20
0.039981
30
0.0
11
0.888956
21
0.047892
31
0.0
0
LINE
8
TOP
10
0.888956
20
0.047892
30
0.0
11
0.910777
21
0.056488
31
0.0
0
LINE
8
TOP
10
0.910777
20
0.056488
30
0.0
11
0.932320
21
0.065763
31
0.0
0
LINE
8
TOP
10
0.932320
20
0.065763
30
0.0
11
0.953561
21
0.075707
31
0.0
0
LINE
8
TOP
10
0.953561
20
0.075707
30
0.0
11
0.974482
21
0.086310
31
0.0
0
LINE
8
TOP
10
0.974482
20
0.086310
30
0.0
11
0.995061
21
0.097562
31
0.0
0
LINE
8
TOP
10
0.995061
20
0.097562
30
0.0
11
1.015277
21
0.109452
31
0.0
0
LINE
8
TOP
10
1.015277
20
0.109452
30
0.0
11
1.035112
21
0.121969
31
0.0
0
LINE
8
TOP
10
1.035112
20
0.121969
30
0.0
11
1.054546
21
0.135100
31
0.0
0
LINE
8
TOP
10
1.054546
20
0.135100
30
0.0
11
1.073560
21
0.148831
31
0.0
0
LINE
8
TOP
10
1.073560
20
0.148831
30
0.0
11
1.092136
21
0.163151
31
0.0
0
LINE
8
TOP
10
1.092136
20
0.163151
30
0.0
11
1.110254
21
0.178044
31
0.0
0
LINE
8
TOP
10
1.110254
20
0.178044
30
0.0
11
1.127898
21
0.193497
31
0.0
0
LINE
8
TOP
10
1.127898
20
0.193497
30
0.0
11
1.145050
21
0.209494
31
0.0
0
LINE
8
TOP
10
1.145050
20
0.209494
30
0.0
11
1.161694
21
0.226019
31
0.0
0
LINE
8
TOP
10
1.161694
20
0.226019
30
0.0
11
1.177812
21
0.243057
31
0.0
0
LINE
8
TOP
10
1.177812
20
0.243057
30
0.0
11
1.193391
21
0.260590
31
0.0
0
LINE
8
TOP
10
1.193391
20
0.260590
30
0.0
11
1.208413
21
0.278602
31
0.0
0
LINE
8
TOP
10
1.208413
20
0.278602
30
0.0
11
1.222864
21
0.297075
31
0.0
0
LINE
8
TOP
10
1.222864
20
0.297075
30
0.0
11
1.236731
21
0.315990
31
0.0
0
LINE
8
TOP
10
1.236731
20
0.315990
30
0.0
11
1.250000
21
0.335330
31
0.0
0
LINE
8
TOP
10
0.000000
20
1.164486
30
0.0
11
0.000000
21
0.335330
31
0.0
0
LINE
8
TOP
10
1.250000
20
0.335330
30
0.0
11
1.250000
21
1.164486
31
0.0
0
LINE
8
TOP
10
1.250000
20
1.164486
30
0.0
11
1.236731
21
1.183826
31
0.0
0
LINE
8
TOP
10
1.236731
20
1.183826
30
0.0
11
1.222864
21
1.202742
31
0.0
0
LINE
8
TOP
10
1.222864
20
1.202742
30
0.0
11
1.208413
21
1.221215
31
0.0
0
LINE
8
TOP
10
1.208413
20
1.221215
30
0.0
11
1.193391
21
1.239226
31
0.0
0
LINE
8
TOP
10
1.193391
20
1.239226
30
0.0
11
1.177812
21
1.256760
31
0.0
0
LINE
8
TOP
10
1.177812
20
1.256760
30
0.0
11
1.161694
21
1.273797
31
0.0
0
LINE
8
TOP
10
1.161694
20
1.273797
30
0.0
11
1.145050
21
1.290323
31
0.0
0
LINE
8
TOP
10
1.145050
20
1.290323
30
0.0
11
1.127898
21
1.306320
31
0.0
0
LINE
8
TOP
10
1.127898
20
1.306320
30
0.0
11
1.110254
21
1.321772
31
0.0
0
LINE
8
TOP
10
1.110254
20
1.321772
30
0.0
11
1.092136
21
1.336666
31
0.0
0
LINE
8
TOP
10
1.092136
20
1.336666
30
0.0
11
1.073560
21
1.350985
31
0.0
0
LINE
8
TOP
10
1.073560
20
1.350985
30
0.0
11
1.054546
21
1.364717
31
0.0
0
LINE
8
TOP
10
1.054546
20
1.364717
30
0.0
11
1.035112
21
1.377848
31
0.0
0
LINE
8
TOP
10
1.035112
20
1.377848
30
0.0
11
1.015277
21
1.390364
31
0.0
0
LINE
8
TOP
10
1.015277
20
1.390364
30
0.0
11
0.995061
21
1.402254
31
0.0
0
LINE
8
TOP
10
0.995061
20
1.402254
30
0.0
11
0.974482
21
1.413506
31
0.0
0
LINE
8
TOP
10
0.974482
20
1.413506
30
0.0
11
0.953561
21
1.424110
31
0.0
0
LINE
8
TOP
10
0.953561
20
1.424110
30
0.0
11
0.932320
21
1.434054
31
0.0
0
LINE
8
TOP
10
0.932320
20
1.434054
30
0.0
11
0.910777
21
1.443328
31
0.0
0
LINE
8
TOP
10
0.910777
20
1.443328
30
0.0
11
0.888956
21
1.451925
31
0.0
0
LINE
8
TOP
10
0.888956
20
1.451925
30
0.0
11
0.866876
21
1.459835
31
0.0
0
LINE
8
TOP
10
0.866876
20
1.459835
30
0.0
11
0.844559
21
1.467051
31
0.0
0
LINE
8
TOP
10
0.844559
20
1.467051
30
0.0
11
0.822028
21
1.473566
31
0.0
0
LINE
8
TOP
10
0.822028
20
1.473566
30
0.0
11
0.799304
21
1.479373
31
0.0
0
LINE
8
TOP
10
0.799304
20
1.479373
30
0.0
11
0.776410
21
1.484466
31
0.0
0
LINE
8
TOP
10
0.776410
20
1.484466
30
0.0
11
0.753368
21
1.488841
31
0.0
0
LINE
8
TOP
10
0.753368
20
1.488841
30
0.0
11
0.730200
21
1.492494
31
0.0
0
LINE
8
TOP
10
0.730200
20
1.492494
30
0.0
11
0.706929
21
1.495420
31
0.0
0
LINE
8
TOP
10
0.706929
20
1.495420
30
0.0
11
0.683578
21
1.497617
31
0.0
0
LINE
8
TOP
10
0.683578
20
1.497617
30
0.0
11
0.660170
21
1.499083
31
0.0
0
LINE
8
TOP
10
0.660170
20
1.499083
30
0.0
11
0.636727
21
1.499817
31
0.0
0
LINE
8
TOP
10
0.636727
20
1.499817
30
0.0
11
0.613273
21
1.499817
31
0.0
0
LINE
8
TOP
10
0.613273
20
1.499817
30
0.0
11
0.589830
21
1.499083
31
0.0
0
LINE
8
TOP
10
0.589830
20
1.499083
30
0.0
11
0.566422
21
1.497617
31
0.0
0
LINE
8
TOP
10
0.566422
20
1.497617
30
0.0
11
0.543071
21
1.495420
31
0.0
0
LINE
8
TOP
10
0.543071
20
1.495420
30
0.0
11
0.519800
21
1.492494
31
0.0
0
LINE
8
TOP
10
0.519800
20
1.492494
30
0.0
11
0.496633
21
1.488841
31
0.0
0
LINE
8
TOP
10
0.496633
20
1.488841
30
0.0
11
0.473590
21
1.484466
31
0.0
0
LINE
8
TOP
10
0.473590
20
1.484466
30
0.0
11
0.450696
21
1.479373
31
0.0
0
LINE
8
TOP
10
0.450696
20
1.479373
30
0.0
11
0.427972
21
1.473566
31
0.0
0
LINE
8
TOP
10
0.427972
20
1.473566
30
0.0
11
0.405441
21
1.467051
31
0.0
0
LINE
8
TOP
10
0.405441
20
1.467051
30
0.0
11
0.383124
21
1.459835
31
0.0
0
LINE
8
TOP
10
0.383124
20
1.459835
30
0.0
11
0.361045
21
1.451925
31
0.0
0
LINE
8
TOP
10
0.361045
20
1.451925
30
0.0
11
0.339223
21
1.443328
31
0.0
0
LINE
8
TOP
10
0.339223
20
1.443328
30
0.0
11
0.317680
21
1.434054
31
0.0
0
LINE
8
TOP
10
0.317680
20
1.434054
30
0.0
11
0.296439
21
1.424110
31
0.0
0
LINE
8
TOP
10
0.296439
20
1.424110
30
0.0
11
0.275518
21
1.413506
31
0.0
0
LINE
8
TOP
10
0.275518
20
1.413506
30
0.0
11
0.254940
21
1.402254
31
0.0
0
LINE
8
TOP
10
0.254940
20
1.402254
30
0.0
11
0.234723
21
1.390364
31
0.0
0
LINE
8
TOP
10
0.234723
20
1.390364
30
0.0
11
0.214888
21
1.377848
31
0.0
0
LINE
8
TOP
10
0.214888
20
1.377848
30
0.0
11
0.195454
21
1.364717
31
0.0
0
LINE
8
TOP
10
0.195454
20
1.364717
30
0.0
11
0.176440
21
1.350985
31
0.0
0
LINE
8
TOP
10
0.176440
20
1.350985
30
0.0
11
0.157864
21
1.336666
31
0.0
0
LINE
8
TOP
10
0.157864
20
1.336666
30
0.0
11
0.139746
21
1.321772
31
0.0
0
LINE
8
TOP
10
0.139746
20
1.321772
30
0.0
11
0.122102
21
1.306320
31
0.0
0
LINE
8
TOP
10
0.122102
20
1.306320
30
0.0
11
0.104950
21
1.290323
31
0.0
0
LINE
8
TOP
10
0.104950
20
1.290323
30
0.0
11
0.088306
21
1.273797
31
0.0
0
LINE
8
TOP
10
0.088306
20
1.273797
30
0.0
11
0.072188
21
1.256760
31
0.0
0
LINE
8
TOP
10
0.072188
20
1.256760
30
0.0
11
0.056610
21
1.239226
31
0.0
0
LINE
8
TOP
10
0.056610
20
1.239226
30
0.0
11
0.041587
21
1.221215
31
0.0
0
LINE
8
TOP
10
0.041587
20
1.221215
30
0.0
11
0.027136
21
1.202742
31
0.0
0
LINE
8
TOP
10
0.027136
20
1.202742
30
0.0
11
0.013269
21
1.183826
31
0.0
0
LINE
8
TOP
10
0.013269
20
1.183826
30
0.0
11
0.000000
21
1.164486
31
0.0
0
LINE
8
TOP
10
1.125000
20
0.749908
30
0.0
11
1.122515
21
0.799692
31
0.0
0
LINE
8
TOP
10
1.122515
20
0.799692
30
0.0
11
1.115086
21
0.848981
31
0.0
0
LINE
8
TOP
10
1.115086
20
0.848981
30
0.0
11
1.102786
21
0.897286
31
0.0
0
LINE
8
TOP
10
1.102786
20
0.897286
30
0.0
11
1.085738
21
0.944126
31
0.0
0
LINE
8
TOP
10
1.085738
20
0.944126
30
0.0
11
1.064111
21
0.989035
31
0.0
0
LINE
8
TOP
10
1.064111
20
0.989035
30
0.0
11
1.038119
21
1.031568
31
0.0
0
LINE
8
TOP
10
1.038119
20
1.031568
30
0.0
11
1.008022
21
1.071302
31
0.0
0
LINE
8
TOP
10
1.008022
20
1.071302
30
0.0
11
0.974118
21
1.107842
31
0.0
0
LINE
8
TOP
10
0.974118
20
1.107842
30
0.0
11
0.936745
21
1.140824
31
0.0
0
LINE
8
TOP
10
0.936745
20
1.140824
30
0.0
11
0.896273
21
1.169921
31
0.0
0
LINE
8
TOP
10
0.896273
20
1.169921
30
0.0
11
0.853105
21
1.194844
31
0.0
0
LINE
8
TOP
10
0.853105
20
1.194844
30
0.0
11
0.807671
21
1.215345
31
0.0
0
LINE
8
TOP
10
0.807671
20
1.215345
30
0.0
11
0.760420
21
1.231220
31
0.0
0
LINE
8
TOP
10
0.760420
20
1.231220
30
0.0
11
0.711824
21
1.242312
31
0.0
0
LINE
8
TOP
10
0.711824
20
1.242312
30
0.0
11
0.662365
21
1.248510
31
0.0
0
LINE
8
TOP
10
0.662365
20
1.248510
30
0.0
11
0.612535
21
1.249753
31
0.0
0
LINE
8
TOP
10
0.612535
20
1.249753
30
0.0
11
0.562828
21
1.246028
31
0.0
0
LINE
8
TOP
10
0.562828
20
1.246028
30
0.0
11
0.513740
21
1.237372
31
0.0
0
LINE
8
TOP
10
0.513740
20
1.237372
30
0.0
11
0.465757
21
1.223872
31
0.0
0
LINE
8
TOP
10
0.465757
20
1.223872
30
0.0
11
0.419356
21
1.205661
31
0.0
0
LINE
8
TOP
10
0.419356
20
1.205661
30
0.0
11
0.375000
21
1.182921
31
0.0
0
LINE
8
TOP
10
0.375000
20
1.182921
30
0.0
11
0.333128
21
1.155877
31
0.0
0
LINE
8
TOP
10
0.333128
20
1.155877
30
0.0
11
0.294157
21
1.124799
31
0.0
0
LINE
8
TOP
10
0.294157
20
1.124799
30
0.0
11
0.258474
21
1.089995
31
0.0
0
LINE
8
TOP
10
0.258474
20
1.089995
30
0.0
11
0.226434
21
1.051811
31
0.0
0
LINE
8
TOP
10
0.226434
20
1.051811
30
0.0
11
0.198355
21
1.010626
31
0.0
0
LINE
8
TOP
10
0.198355
20
1.010626
30
0.0
11
0.174516
21
0.966850
31
0.0
0
LINE
8
TOP
10
0.174516
20
0.966850
30
0.0
11
0.155154
21
0.920918
31
0.0
0
LINE
8
TOP
10
0.155154
20
0.920918
30
0.0
11
0.140461
21
0.873287
31
0.0
0
LINE
8
TOP
10
0.140461
20
0.873287
30
0.0
11
0.130585
21
0.824429
31
0.0
0
LINE
8
TOP
10
0.130585
20
0.824429
30
0.0
11
0.125622
21
0.774831
31
0.0
0
LINE
8
TOP
10
0.125622
20
0.774831
30
0.0
11
0.125622
21
0.724985
31
0.0
0
LINE
8
TOP
10
0.125622
20
0.724985
30
0.0
11
0.130585
21
0.675387
31
0.0
0
LINE
8
TOP
10
0.130585
20
0.675387
30
0.0
11
0.140461
21
0.626530
31
0.0
0
LINE
8
TOP
10
0.140461
20
0.626530
30
0.0
11
0.155154
21
0.578898
31
0.0
0
LINE
8
TOP
10
0.155154
20
0.578898
30
0.0
11
0.174516
21
0.532966
31
0.0
0
LINE
8
TOP
10
0.174516
20
0.532966
30
0.0
11
0.198355
21
0.489191
31
0.0
0
LINE
8
TOP
10
0.198355
20
0.489191
30
0.0
11
0.226434
21
0.448006
31
0.0
0
LINE
8
TOP
10
0.226434
20
0.448006
30
0.0
11
0.258474
21
0.409822
31
0.0
0
LINE
8
TOP
10
0.258474
20
0.409822
30
0.0
11
0.294157
21
0.375018
31
0.0
0
LINE
8
TOP
10
0.294157
20
0.375018
30
0.0
11
0.333128
21
0.343939
31
0.0
0
LINE
8
TOP
10
0.333128
20
0.343939
30
0.0
11
0.375000
21
0.316896
31
0.0
0
LINE
8
TOP
10
0.375000
20
0.316896
30
0.0
11
0.419356
21
0.294155
31
0.0
0
LINE
8
TOP
10
0.419356
20
0.294155
30
0.0
11
0.465757
21
0.275945
31
0.0
0
LINE
8
TOP
10
0.465757
20
0.275945
30
0.0
11
0.513740
21
0.262444
31
0.0
0
LINE
8
TOP
10
0.513740
20
0.262444
30
0.0
11
0.562828
21
0.253789
31
0.0
0
LINE
8
TOP
10
0.562828
20
0.253789
30
0.0
11
0.612535
21
0.250064
31
0.0
0
LINE
8
TOP
10
0.612535
20
0.250064
30
0.0
11
0.662365
21
0.251306
31
0.0
0
LINE
8
TOP
10
0.662365
20
0.251306
30
0.0
11
0.711824
21
0.257504
31
0.0
0
LINE
8
TOP
10
0.711824
20
0.257504
30
0.0
11
0.760420
21
0.268596
31
0.0
0
LINE
8
TOP
10
0.760420
20
0.268596
30
0.0
11
0.807671
21
0.284471
31
0.0
0
LINE
8
TOP
10
0.807671
20
0.284471
30
0.0
11
0.853105
21
0.304972
31
0.0
0
LINE
8
TOP
10
0.853105
20
0.304972
30
0.0
11
0.896273
21
0.329895
31
0.0
0
LINE
8
TOP
10
0.896273
20
0.329895
30
0.0
11
0.936745
21
0.358993
31
0.0
0
LINE
8
TOP
10
0.936745
20
0.358993
30
0.0
11
0.974118
21
0.391975
31
0.0
0
LINE
8
TOP
10
0.974118
20
0.391975
30
0.0
11
1.008022
21
0.428515
31
0.0
0
LINE
8
TOP
10
1.008022
20
0.428515
30
0.0
11
1.038119
21
0.468248
31
0.0
0
LINE
8
TOP
10
1.038119
20
0.468248
30
0.0
11
1.064111
21
0.510781
31
0.0
0
LINE
8
TOP
10
1.064111
20
0.510781
30
0.0
11
1.085738
21
0.555691
31
0.0
0
LINE
8
TOP
10
1.085738
20
0.555691
30
0.0
11
1.102786
21
0.602531
31
0.0
0
LINE
8
TOP
10
1.102786
20
0.602531
30
0.0
11
1.115086
21
0.650835
31
0.0
0
LINE
8
TOP
10
1.115086
20
0.650835
30
0.0
11
1.122515
21
0.700124
31
0.0
0
LINE
8
TOP
10
1.122515
20
0.700124
30
0.0
11
1.125000
21
0.749908
31
0.0
0
LINE
8
TOP
10
1.000000
20
0.749908
30
0.0
11
0.998137
21
0.787246
31
0.0
0
LINE
8
TOP
10
0.998137
20
0.787246
30
0.0
11
0.992565
21
0.824213
31
0.0
0
LINE
8
TOP
10
0.992565
20
0.824213
30
0.0
11
0.983340
21
0.860442
31
0.0
0
LINE
8
TOP
10
0.983340
20
0.860442
30
0.0
11
0.970554
21
0.895571
31
0.0
0
LINE
8
TOP
10
0.970554
20
0.895571
30
0.0
11
0.954333
21
0.929254
31
0.0
0
LINE
8
TOP
10
0.954333
20
0.929254
30
0.0
11
0.934840
21
0.961153
31
0.0
0
LINE
8
TOP
10
0.934840
20
0.961153
30
0.0
11
0.912267
21
0.990954
31
0.0
0
LINE
8
TOP
10
0.912267
20
0.990954
30
0.0
11
0.886839
21
1.018358
31
0.0
0
LINE
8
TOP
10
0.886839
20
1.018358
30
0.0
11
0.858809
21
1.043095
31
0.0
0
LINE
8
TOP
10
0.858809
20
1.043095
30
0.0
11
0.828455
21
1.064918
31
0.0
0
LINE
8
TOP
10
0.828455
20
1.064918
30
0.0
11
0.796079
21
1.083610
31
0.0
0
LINE
8
TOP
10
0.796079
20
1.083610
30
0.0
11
0.762003
21
1.098986
31
0.0
0
LINE
8
TOP
10
0.762003
20
1.098986
30
0.0
11
0.726565
21
1.110892
31
0.0
0
LINE
8
TOP
10
0.726565
20
1.110892
30
0.0
11
0.690118
21
1.119211
31
0.0
0
LINE
8
TOP
10
0.690118
20
1.119211
30
0.0
11
0.653024
21
1.123860
31
0.0
0
LINE
8
TOP
10
0.653024
20
1.123860
30
0.0
11
0.615651
21
1.124792
31
0.0
0
LINE
8
TOP
10
0.615651
20
1.124792
30
0.0
11
0.578371
21
1.121998
31
0.0
0
LINE
8
TOP
10
0.578371
20
1.121998
30
0.0
11
0.541555
21
1.115506
31
0.0
0
LINE
8
TOP
10
0.541555
20
1.115506
30
0.0
11
0.505568
21
1.105381
31
0.0
0
LINE
8
TOP
10
0.505568
20
1.105381
30
0.0
11
0.470767
21
1.091723
31
0.0
0
LINE
8
TOP
10
0.470767
20
1.091723
30
0.0
11
0.437500
21
1.074668
31
0.0
0
LINE
8
TOP
10
0.437500
20
1.074668
30
0.0
11
0.406096
21
1.054385
31
0.0
0
LINE
8
TOP
10
0.406096
20
1.054385
30
0.0
11
0.376868
21
1.031076
31
0.0
0
LINE
8
TOP
10
0.376868
20
1.031076
30
0.0
11
0.350106
21
1.004973
31
0.0
0
LINE
8
TOP
10
0.350106
20
1.004973
30
0.0
11
0.326075
21
0.976335
31
0.0
0
LINE
8
TOP
10
0.326075
20
0.976335
30
0.0
11
0.305016
21
0.945447
31
0.0
0
LINE
8
TOP
10
0.305016
20
0.945447
30
0.0
11
0.287137
21
0.912615
31
0.0
0
LINE
8
TOP
10
0.287137
20
0.912615
30
0.0
11
0.272615
21
0.878166
31
0.0
0
LINE
8
TOP
10
0.272615
20
0.878166
30
0.0
11
0.261596
21
0.842442
31
0.0
0
LINE
8
TOP
10
0.261596
20
0.842442
30
0.0
11
0.254188
21
0.805799
31
0.0
0
LINE
8
TOP
10
0.254188
20
0.805799
30
0.0
11
0.250466
21
0.768601
31
0.0
0
LINE
8
TOP
10
0.250466
20
0.768601
30
0.0
11
0.250466
21
0.731216
31
0.0
0
LINE
8
TOP
10
0.250466
20
0.731216
30
0.0
11
0.254188
21
0.694017
31
0.0
0
LINE
8
TOP
10
0.254188
20
0.694017
30
0.0
11
0.261596
21
0.657374
31
0.0
0
LINE
8
TOP
10
0.261596
20
0.657374
30
0.0
11
0.272615
21
0.621651
31
0.0
0
LINE
8
TOP
10
0.272615
20
0.621651
30
0.0
11
0.287137
21
0.587202
31
0.0
0
LINE
8
TOP
10
0.287137
20
0.587202
30
0.0
11
0.305016
21
0.554370
31
0.0
0
LINE
8
TOP
10
0.305016
20
0.554370
30
0.0
11
0.326075
21
0.523482
31
0.0
0
LINE
8
TOP
10
0.326075
20
0.523482
30
0.0
11
0.350106
21
0.494844
31
0.0
0
LINE
8
TOP
10
0.350106
20
0.494844
30
0.0
11
0.376868
21
0.468740
31
0.0
0
LINE
8
TOP
10
0.376868
20
0.468740
30
0.0
11
0.406096
21
0.445432
31
0.0
0
LINE
8
TOP
10
0.406096
20
0.445432
30
0.0
11
0.437500
21
0.425149
31
0.0
0
LINE
8
TOP
10
0.437500
20
0.425149
30
0.0
11
0.470767
21
0.408094
31
0.0
0
LINE
8
TOP
10
0.470767
20
0.408094
30
0.0
11
0.505568
21
0.394436
31
0.0
0
LINE
8
TOP
10
0.505568
20
0.394436
30
0.0
11
0.541555
21
0.384310
31
0.0
0
LINE
8
TOP
10
0.541555
20
0.384310
30
0.0
11
0.578371
21
0.377819
31
0.0
0
LINE
8
TOP
10
0.578371
20
0.377819
30
0.0
11
0.615651
21
0.375025
31
0.0
0
LINE
8
TOP
10
0.615651
20
0.375025
30
0.0
11
0.653024
21
0.375957
31
0.0
0
LINE
8
TOP
10
0.653024
20
0.375957
30
0.0
11
0.690118
21
0.380605
31
0.0
0
LINE
8
TOP
10
0.690118
20
0.380605
30
0.0
11
0.726565
21
0.388924
31
0.0
0
LINE
8
TOP
10
0.726565
20
0.388924
30
0.0
11
0.762003
21
0.400831
31
0.0
0
LINE
8
TOP
10
0.762003
20
0.400831
30
0.0
11
0.796079
21
0.416206
31
0.0
0
LINE
8
TOP
10
0.796079
20
0.416206
30
0.0
11
0.828455
21
0.434899
31
0.0
0
LINE
8
TOP
10
0.828455
20
0.434899
30
0.0
11
0.858809
21
0.456722
31
0.0
0
LINE
8
TOP
10
0.858809
20
0.456722
30
0.0
11
0.886839
21
0.481458
31
0.0
0
LINE
8
TOP
10
0.886839
20
0.481458
30
0.0
11
0.912267
21
0.508863
31
0.0
0
LINE
8
TOP
10
0.912267
20
0.508863
30
0.0
11
0.934840
21
0.538663
31
0.0
0
LINE
8
TOP
10
0.934840
20
0.538663
30
0.0
11
0.954333
21
0.570563
31
0.0
0
LINE
8
TOP
10
0.954333
20
0.570563
30
0.0
11
0.970554
21
0.604245
31
0.0
0
LINE
8
TOP
10
0.970554
20
0.604245
30
0.0
11
0.983340
21
0.639375
31
0.0
0
LINE
8
TOP
10
0.983340
20
0.639375
30
0.0
11
0.992565
21
0.675604
31
0.0
0
LINE
8
TOP
10
0.992565
20
0.675604
30
0.0
11
0.998137
21
0.712570
31
0.0
0
LINE
8
TOP
10
0.998137
20
0.712570
30
0.0
11
1.000000
21
0.749908
31
0.0
0
LINE
8
TOP
10
0.937500
20
0.749908
30
0.0
11
0.935947
21
0.781023
31
0.0
0
LINE
8
TOP
10
0.935947
20
0.781023
30
0.0
11
0.931304
21
0.811829
31
0.0
0
LINE
8
TOP
10
0.931304
20
0.811829
30
0.0
11
0.923617
21
0.842019
31
0.0
0
LINE
8
TOP
10
0.923617
20
0.842019
30
0.0
11
0.912961
21
0.871294
31
0.0
0
LINE
8
TOP
10
0.912961
20
0.871294
30
0.0
11
0.899444
21
0.899363
31
0.0
0
LINE
8
TOP
10
0.899444
20
0.899363
30
0.0
11
0.883200
21
0.925946
31
0.0
0
LINE
8
TOP
10
0.883200
20
0.925946
30
0.0
11
0.864389
21
0.950779
31
0.0
0
LINE
8
TOP
10
0.864389
20
0.950779
30
0.0
11
0.843199
21
0.973617
31
0.0
0
LINE
8
TOP
10
0.843199
20
0.973617
30
0.0
11
0.819841
21
0.994231
31
0.0
0
LINE
8
TOP
10
0.819841
20
0.994231
30
0.0
11
0.794546
21
1.012416
31
0.0
0
LINE
8
TOP
10
0.794546
20
1.012416
30
0.0
11
0.767566
21
1.027993
31
0.0
0
LINE
8
TOP
10
0.767566
20
1.027993
30
0.0
11
0.739169
21
1.040806
31
0.0
0
LINE
8
TOP
10
0.739169
20
1.040806
30
0.0
11
0.709638
21
1.050728
31
0.0
0
LINE
8
TOP
10
0.709638
20
1.050728
30
0.0
11
0.679265
21
1.057661
31
0.0
0
LINE
8
TOP
10
0.679265
20
1.057661
30
0.0
11
0.648353
21
1.061534
31
0.0
0
LINE
8
TOP
10
0.648353
20
1.061534
30
0.0
11
0.617209
21
1.062311
31
0.0
0
LINE
8
TOP
10
0.617209
20
1.062311
30
0.0
11
0.586143
21
1.059983
31
0.0
0
LINE
8
TOP
10
0.586143
20
1.059983
30
0.0
11
0.555462
21
1.054573
31
0.0
0
LINE
8
TOP
10
0.555462
20
1.054573
30
0.0
11
0.525473
21
1.046136
31
0.0
0
LINE
8
TOP
10
0.525473
20
1.046136
30
0.0
11
0.496473
21
1.034754
31
0.0
0
LINE
8
TOP
10
0.496473
20
1.034754
30
0.0
11
0.468750
21
1.020541
31
0.0
0
LINE
8
TOP
10
0.468750
20
1.020541
30
0.0
11
0.442580
21
1.003639
31
0.0
0
LINE
8
TOP
10
0.442580
20
1.003639
30
0.0
11
0.418223
21
0.984215
31
0.0
0
LINE
8
TOP
10
0.418223
20
0.984215
30
0.0
11
0.395921
21
0.962462
31
0.0
0
LINE
8
TOP
10
0.395921
20
0.962462
30
0.0
11
0.375896
21
0.938597
31
0.0
0
LINE
8
TOP
10
0.375896
20
0.938597
30
0.0
11
0.358347
21
0.912857
31
0.0
0
LINE
8
TOP
10
0.358347
20
0.912857
30
0.0
11
0.343447
21
0.885497
31
0.0
0
LINE
8
TOP
10
0.343447
20
0.885497
30
0.0
11
0.331346
21
0.856790
31
0.0
0
LINE
8
TOP
10
0.331346
20
0.856790
30
0.0
11
0.322163
21
0.827020
31
0.0
0
LINE
8
TOP
10
0.322163
20
0.827020
30
0.0
11
0.315990
21
0.796484
31
0.0
0
LINE
8
TOP
10
0.315990
20
0.796484
30
0.0
11
0.312889
21
0.765485
31
0.0
0
LINE
8
TOP
10
0.312889
20
0.765485
30
0.0
11
0.312889
21
0.734331
31
0.0
0
LINE
8
TOP
10
0.312889
20
0.734331
30
0.0
11
0.315990
21
0.703333
31
0.0
0
LINE
8
TOP
10
0.315990
20
0.703333
30
0.0
11
0.322163
21
0.672797
31
0.0
0
LINE
8
TOP
10
0.322163
20
0.672797
30
0.0
11
0.331346
21
0.643027
31
0.0
0
LINE
8
TOP
10
0.331346
20
0.643027
30
0.0
11
0.343447
21
0.614320
31
0.0
0
LINE
8
TOP
10
0.343447
20
0.614320
30
0.0
11
0.358347
21
0.586960
31
0.0
0
LINE
8
TOP
10
0.358347
20
0.586960
30
0.0
11
0.375896
21
0.561219
31
0.0
0
LINE
8
TOP
10
0.375896
20
0.561219
30
0.0
11
0.395921
21
0.537354
31
0.0
0
LINE
8
TOP
10
0.395921
20
0.537354
30
0.0
11
0.418223
21
0.515602
31
0.0
0
LINE
8
TOP
10
0.418223
20
0.515602
30
0.0
11
0.442580
21
0.496178
31
0.0
0
LINE
8
TOP
10
0.442580
20
0.496178
30
0.0
11
0.468750
21
0.479275
31
0.0
0
LINE
8
TOP
10
0.468750
20
0.479275
30
0.0
11
0.496473
21
0.465063
31
0.0
0
LINE
8
TOP
10
0.496473
20
0.465063
30
0.0
11
0.525473
21
0.453681
31
0.0
0
LINE
8
TOP
10
0.525473
20
0.453681
30
0.0
11
0.555462
21
0.445243
31
0.0
0
LINE
8
TOP
10
0.555462
20
0.445243
30
0.0
11
0.586143
21
0.439834
31
0.0
0
LINE
8
TOP
10
0.586143
20
0.439834
30
0.0
11
0.617209
21
0.437505
31
0.0
0
LINE
8
TOP
10
0.617209
20
0.437505
30
0.0
11
0.648353
21
0.438282
31
0.0
0
LINE
8
TOP
10
0.648353
20
0.438282
30
0.0
11
0.679265
21
0.442156
31
0.0
0
LINE
8
TOP
10
0.679265
20
0.442156
30
0.0
11
0.709638
21
0.449088
31
0.0
0
LINE
8
TOP
10
0.709638
20
0.449088
30
0.0
11
0.739169
21
0.459010
31
0.0
0
LINE
8
TOP
10
0.739169
20
0.459010
30
0.0
11
0.767566
21
0.471823
31
0.0
0
LINE
8
TOP
10
0.767566
20
0.471823
30
0.0
11
0.794546
21
0.487400
31
0.0
0
LINE
8
TOP
10
0.794546
20
0.487400
30
0.0
11
0.819841
21
0.505586
31
0.0
0
LINE
8
TOP
10
0.819841
20
0.505586
30
0.0
11
0.843199
21
0.526200
31
0.0
0
LINE
8
TOP
10
0.843199
20
0.526200
30
0.0
11
0.864389
21
0.549037
31
0.0
0
LINE
8
TOP
10
0.864389
20
0.549037
30
0.0
11
0.883200
21
0.573871
31
0.0
0
LINE
8
TOP
10
0.883200
20
0.573871
30
0.0
11
0.899444
21
0.600454
31
0.0
0
LINE
8
TOP
10
0.899444
20
0.600454
30
0.0
11
0.912961
21
0.628522
31
0.0
0
LINE
8
TOP
10
0.912961
20
0.628522
30
0.0
11
0.923617
21
0.657797
31
0.0
0
LINE
8
TOP
10
0.923617
20
0.657797
30
0.0
11
0.931304
21
0.687988
31
0.0
0
LINE
8
TOP
10
0.931304
20
0.687988
30
0.0
11
0.935947
21
0.718793
31
0.0
0
LINE
8
TOP
10
0.935947
20
0.718793
30
0.0
11
0.937500
21
0.749908
31
0.0
0
ENDSEC
0
EOF
