0
SECTION
2
HEADER
9
$ACADVER
1
AC1009
0
ENDSEC
0
SECTION
2
TABLES
0
TABLE
2
LTYPE
70
3
0
LTYPE
2
CONTINUOUS
70
0
3
Solid line
72
65
73
0
40
0.0
0
LTYPE
2
HIDDEN
70
0
3
__ __ __ __ __
72
65
73
2
40
0.040385
49
0.026937
49
-0.013448
0
LTYPE
2
CENTER
70
0
3
___ _ ___ _ ___
72
65
73
4
40
0.094217
49
0.053833
49
-0.013448
49
0.013448
49
-0.013448
0
ENDTAB
0
TABLE
2
LAYER
70
6
0
LAYER
2
0
70
0
62
7
6
CONTINUOUS
0
LAYER
2
FRONT
70
0
62
7
6
CONTINUOUS
0
LAYER
2
LEFT
70
0
62
7
6
CONTINUOUS
0
LAYER
2
LEFT_HID
70
0
62
7
6
HIDDEN
0
LAYER
2
TOP
70
0
62
7
6
CONTINUOUS
0
LAYER
2
TOP_HID
70
0
62
7
6
HIDDEN
0
ENDTAB
0
ENDSEC
0
SECTION
2
ENTITIES
0
LINE
8
FRONT
10
0.038751
20
0.231923
30
0.0
11
0.038901
21
0.230585
31
0.0
0
LINE
8
FRONT
10
0.038901
20
0.230585
30
0.0
11
0.039083
21
0.229250
31
0.0
0
LINE
8
FRONT
10
0.039083
20
0.229250
30
0.0
11
0.039295
21
0.227921
31
0.0
0
LINE
8
FRONT
10
0.039295
20
0.227921
30
0.0
11
0.039539
21
0.226596
31
0.0
0
LINE
8
FRONT
10
0.039539
20
0.226596
30
0.0
11
0.039813
21
0.225278
31
0.0
0
LINE
8
FRONT
10
0.039813
20
0.225278
30
0.0
11
0.040118
21
0.223966
31
0.0
0
LINE
8
FRONT
10
0.040118
20
0.223966
30
0.0
11
0.040454
21
0.222662
31
0.0
0
LINE
8
FRONT
10
0.040454
20
0.222662
30
0.0
11
0.040820
21
0.221366
31
0.0
0
LINE
8
FRONT
10
0.040820
20
0.221366
30
0.0
11
0.041216
21
0.220079
31
0.0
0
LINE
8
FRONT
10
0.041216
20
0.220079
30
0.0
11
0.041642
21
0.218801
31
0.0
0
LINE
8
FRONT
10
0.041642
20
0.218801
30
0.0
11
0.042098
21
0.217534
31
0.0
0
LINE
8
FRONT
10
0.042098
20
0.217534
30
0.0
11
0.042583
21
0.216278
31
0.0
0
LINE
8
FRONT
10
0.042583
20
0.216278
30
0.0
11
0.043098
21
0.215033
31
0.0
0
LINE
8
FRONT
10
0.043098
20
0.215033
30
0.0
11
0.043641
21
0.213801
31
0.0
0
LINE
8
FRONT
10
0.043641
20
0.213801
30
0.0
11
0.044213
21
0.212582
31
0.0
0
LINE
8
FRONT
10
0.044213
20
0.212582
30
0.0
11
0.044813
21
0.211376
31
0.0
0
LINE
8
FRONT
10
0.044813
20
0.211376
30
0.0
11
0.045441
21
0.210185
31
0.0
0
LINE
8
FRONT
10
0.045441
20
0.210185
30
0.0
11
0.046097
21
0.209009
31
0.0
0
LINE
8
FRONT
10
0.046097
20
0.209009
30
0.0
11
0.046780
21
0.207848
31
0.0
0
LINE
8
FRONT
10
0.046780
20
0.207848
30
0.0
11
0.047491
21
0.206704
31
0.0
0
LINE
8
FRONT
10
0.047491
20
0.206704
30
0.0
11
0.048227
21
0.205576
31
0.0
0
LINE
8
FRONT
10
0.048227
20
0.205576
30
0.0
11
0.048990
21
0.204467
31
0.0
0
LINE
8
FRONT
10
0.048990
20
0.204467
30
0.0
11
0.049778
21
0.203375
31
0.0
0
LINE
8
FRONT
10
0.049778
20
0.203375
30
0.0
11
0.050592
21
0.202302
31
0.0
0
LINE
8
FRONT
10
0.050592
20
0.202302
30
0.0
11
0.051430
21
0.201248
31
0.0
0
LINE
8
FRONT
10
0.051430
20
0.201248
30
0.0
11
0.052293
21
0.200214
31
0.0
0
LINE
8
FRONT
10
0.052293
20
0.200214
30
0.0
11
0.053180
21
0.199200
31
0.0
0
LINE
8
FRONT
10
0.053180
20
0.199200
30
0.0
11
0.054090
21
0.198208
31
0.0
0
LINE
8
FRONT
10
0.054090
20
0.198208
30
0.0
11
0.055023
21
0.197237
31
0.0
0
LINE
8
FRONT
10
0.055023
20
0.197237
30
0.0
11
0.055979
21
0.196288
31
0.0
0
LINE
8
FRONT
10
0.055979
20
0.196288
30
0.0
11
0.056956
21
0.195361
31
0.0
0
LINE
8
FRONT
10
0.056956
20
0.195361
30
0.0
11
0.057955
21
0.194458
31
0.0
0
LINE
8
FRONT
10
0.057955
20
0.194458
30
0.0
11
0.058974
21
0.193578
31
0.0
0
LINE
8
FRONT
10
0.058974
20
0.193578
30
0.0
11
0.060014
21
0.192722
31
0.0
0
LINE
8
FRONT
10
0.060014
20
0.192722
30
0.0
11
0.061074
21
0.191891
31
0.0
0
LINE
8
FRONT
10
0.061074
20
0.191891
30
0.0
11
0.062152
21
0.191084
31
0.0
0
LINE
8
FRONT
10
0.062152
20
0.191084
30
0.0
11
0.063249
21
0.190304
31
0.0
0
LINE
8
FRONT
10
0.063249
20
0.190304
30
0.0
11
0.064364
21
0.189548
31
0.0
0
LINE
8
FRONT
10
0.064364
20
0.189548
30
0.0
11
0.065497
21
0.188820
31
0.0
0
LINE
8
FRONT
10
0.065497
20
0.188820
30
0.0
11
0.066646
21
0.188117
31
0.0
0
LINE
8
FRONT
10
0.066646
20
0.188117
30
0.0
11
0.067811
21
0.187442
31
0.0
0
LINE
8
FRONT
10
0.067811
20
0.187442
30
0.0
11
0.068992
21
0.186794
31
0.0
0
LINE
8
FRONT
10
0.068992
20
0.186794
30
0.0
11
0.070187
21
0.186174
31
0.0
0
LINE
8
FRONT
10
0.070187
20
0.186174
30
0.0
11
0.071397
21
0.185582
31
0.0
0
LINE
8
FRONT
10
0.071397
20
0.185582
30
0.0
11
0.072620
21
0.185018
31
0.0
0
LINE
8
FRONT
10
0.072620
20
0.185018
30
0.0
11
0.073856
21
0.184483
31
0.0
0
LINE
8
FRONT
10
0.073856
20
0.184483
30
0.0
11
0.075104
21
0.183977
31
0.0
0
LINE
8
FRONT
10
0.075104
20
0.183977
30
0.0
11
0.076363
21
0.183501
31
0.0
0
LINE
8
FRONT
10
0.076363
20
0.183501
30
0.0
11
0.077633
21
0.183054
31
0.0
0
LINE
8
FRONT
10
0.077633
20
0.183054
30
0.0
11
0.078914
21
0.182636
31
0.0
0
LINE
8
FRONT
10
0.078914
20
0.182636
30
0.0
11
0.080204
21
0.182249
31
0.0
0
LINE
8
FRONT
10
0.080204
20
0.182249
30
0.0
11
0.081502
21
0.181892
31
0.0
0
LINE
8
FRONT
10
0.081502
20
0.181892
30
0.0
11
0.082809
21
0.181565
31
0.0
0
LINE
8
FRONT
10
0.082809
20
0.181565
30
0.0
11
0.084122
21
0.181269
31
0.0
0
LINE
8
FRONT
10
0.084122
20
0.181269
30
0.0
11
0.085443
21
0.181003
31
0.0
0
LINE
8
FRONT
10
0.085443
20
0.181003
30
0.0
11
0.086769
21
0.180768
31
0.0
0
LINE
8
FRONT
10
0.086769
20
0.180768
30
0.0
11
0.088100
21
0.180565
31
0.0
0
LINE
8
FRONT
10
0.088100
20
0.180565
30
0.0
11
0.089435
21
0.180393
31
0.0
0
LINE
8
FRONT
10
0.089435
20
0.180393
30
0.0
11
0.090775
21
0.180251
31
0.0
0
LINE
8
FRONT
10
0.090775
20
0.180251
30
0.0
11
0.092117
21
0.180141
31
0.0
0
LINE
8
FRONT
10
0.092117
20
0.180141
30
0.0
11
0.093461
21
0.180063
31
0.0
0
LINE
8
FRONT
10
0.093461
20
0.180063
30
0.0
11
0.094807
21
0.180016
31
0.0
0
LINE
8
FRONT
10
0.094807
20
0.180016
30
0.0
11
0.096154
21
0.180000
31
0.0
0
LINE
8
FRONT
10
0.076923
20
0.237692
30
0.0
11
0.077019
21
0.235778
31
0.0
0
LINE
8
FRONT
10
0.077019
20
0.235778
30
0.0
11
0.077304
21
0.233882
31
0.0
0
LINE
8
FRONT
10
0.077304
20
0.233882
30
0.0
11
0.077777
21
0.232024
31
0.0
0
LINE
8
FRONT
10
0.077777
20
0.232024
30
0.0
11
0.078433
21
0.230222
31
0.0
0
LINE
8
FRONT
10
0.078433
20
0.230222
30
0.0
11
0.079265
21
0.228495
31
0.0
0
LINE
8
FRONT
10
0.079265
20
0.228495
30
0.0
11
0.080265
21
0.226859
31
0.0
0
LINE
8
FRONT
10
0.080265
20
0.226859
30
0.0
11
0.081422
21
0.225331
31
0.0
0
LINE
8
FRONT
10
0.081422
20
0.225331
30
0.0
11
0.082726
21
0.223926
31
0.0
0
LINE
8
FRONT
10
0.082726
20
0.223926
30
0.0
11
0.084164
21
0.222657
31
0.0
0
LINE
8
FRONT
10
0.084164
20
0.222657
30
0.0
11
0.085720
21
0.221538
31
0.0
0
LINE
8
FRONT
10
0.085720
20
0.221538
30
0.0
11
0.087381
21
0.220579
31
0.0
0
LINE
8
FRONT
10
0.087381
20
0.220579
30
0.0
11
0.089128
21
0.219791
31
0.0
0
LINE
8
FRONT
10
0.089128
20
0.219791
30
0.0
11
0.090945
21
0.219180
31
0.0
0
LINE
8
FRONT
10
0.090945
20
0.219180
30
0.0
11
0.092814
21
0.218754
31
0.0
0
LINE
8
FRONT
10
0.092814
20
0.218754
30
0.0
11
0.094717
21
0.218515
31
0.0
0
LINE
8
FRONT
10
0.094717
20
0.218515
30
0.0
11
0.096633
21
0.218468
31
0.0
0
LINE
8
FRONT
10
0.096633
20
0.218468
30
0.0
11
0.098545
21
0.218611
31
0.0
0
LINE
8
FRONT
10
0.098545
20
0.218611
30
0.0
11
0.100433
21
0.218944
31
0.0
0
LINE
8
FRONT
10
0.100433
20
0.218944
30
0.0
11
0.102279
21
0.219463
31
0.0
0
LINE
8
FRONT
10
0.102279
20
0.219463
30
0.0
11
0.104063
21
0.220163
31
0.0
0
LINE
8
FRONT
10
0.104063
20
0.220163
30
0.0
11
0.105769
21
0.221038
31
0.0
0
LINE
8
FRONT
10
0.105769
20
0.221038
30
0.0
11
0.107380
21
0.222078
31
0.0
0
LINE
8
FRONT
10
0.107380
20
0.222078
30
0.0
11
0.108879
21
0.223273
31
0.0
0
LINE
8
FRONT
10
0.108879
20
0.223273
30
0.0
11
0.110251
21
0.224612
31
0.0
0
LINE
8
FRONT
10
0.110251
20
0.224612
30
0.0
11
0.111483
21
0.226081
31
0.0
0
LINE
8
FRONT
10
0.111483
20
0.226081
30
0.0
11
0.112563
21
0.227665
31
0.0
0
LINE
8
FRONT
10
0.112563
20
0.227665
30
0.0
11
0.113480
21
0.229348
31
0.0
0
LINE
8
FRONT
10
0.113480
20
0.229348
30
0.0
11
0.114225
21
0.231115
31
0.0
0
LINE
8
FRONT
10
0.114225
20
0.231115
30
0.0
11
0.114790
21
0.232947
31
0.0
0
LINE
8
FRONT
10
0.114790
20
0.232947
30
0.0
11
0.115170
21
0.234826
31
0.0
0
LINE
8
FRONT
10
0.115170
20
0.234826
30
0.0
11
0.115361
21
0.236734
31
0.0
0
LINE
8
FRONT
10
0.115361
20
0.236734
30
0.0
11
0.115361
21
0.238651
31
0.0
0
LINE
8
FRONT
10
0.115361
20
0.238651
30
0.0
11
0.115170
21
0.240559
31
0.0
0
LINE
8
FRONT
10
0.115170
20
0.240559
30
0.0
11
0.114790
21
0.242438
31
0.0
0
LINE
8
FRONT
10
0.114790
20
0.242438
30
0.0
11
0.114225
21
0.244270
31
0.0
0
LINE
8
FRONT
10
0.114225
20
0.244270
30
0.0
11
0.113480
21
0.246036
31
0.0
0
LINE
8
FRONT
10
0.113480
20
0.246036
30
0.0
11
0.112563
21
0.247720
31
0.0
0
LINE
8
FRONT
10
0.112563
20
0.247720
30
0.0
11
0.111483
21
0.249304
31
0.0
0
LINE
8
FRONT
10
0.111483
20
0.249304
30
0.0
11
0.110251
21
0.250773
31
0.0
0
LINE
8
FRONT
10
0.110251
20
0.250773
30
0.0
11
0.108879
21
0.252111
31
0.0
0
LINE
8
FRONT
10
0.108879
20
0.252111
30
0.0
11
0.107380
21
0.253307
31
0.0
0
LINE
8
FRONT
10
0.107380
20
0.253307
30
0.0
11
0.105769
21
0.254347
31
0.0
0
LINE
8
FRONT
10
0.105769
20
0.254347
30
0.0
11
0.104063
21
0.255221
31
0.0
0
LINE
8
FRONT
10
0.104063
20
0.255221
30
0.0
11
0.102279
21
0.255922
31
0.0
0
LINE
8
FRONT
10
0.102279
20
0.255922
30
0.0
11
0.100433
21
0.256441
31
0.0
0
LINE
8
FRONT
10
0.100433
20
0.256441
30
0.0
11
0.098545
21
0.256774
31
0.0
0
LINE
8
FRONT
10
0.098545
20
0.256774
30
0.0
11
0.096633
21
0.256917
31
0.0
0
LINE
8
FRONT
10
0.096633
20
0.256917
30
0.0
11
0.094717
21
0.256869
31
0.0
0
LINE
8
FRONT
10
0.094717
20
0.256869
30
0.0
11
0.092814
21
0.256631
31
0.0
0
LINE
8
FRONT
10
0.092814
20
0.256631
30
0.0
11
0.090945
21
0.256204
31
0.0
0
LINE
8
FRONT
10
0.090945
20
0.256204
30
0.0
11
0.089128
21
0.255594
31
0.0
0
LINE
8
FRONT
10
0.089128
20
0.255594
30
0.0
11
0.087381
21
0.254805
31
0.0
0
LINE
8
FRONT
10
0.087381
20
0.254805
30
0.0
11
0.085720
21
0.253847
31
0.0
0
LINE
8
FRONT
10
0.085720
20
0.253847
30
0.0
11
0.084164
21
0.252728
31
0.0
0
LINE
8
FRONT
10
0.084164
20
0.252728
30
0.0
11
0.082726
21
0.251459
31
0.0
0
LINE
8
FRONT
10
0.082726
20
0.251459
30
0.0
11
0.081422
21
0.250054
31
0.0
0
LINE
8
FRONT
10
0.081422
20
0.250054
30
0.0
11
0.080265
21
0.248525
31
0.0
0
LINE
8
FRONT
10
0.080265
20
0.248525
30
0.0
11
0.079265
21
0.246889
31
0.0
0
LINE
8
FRONT
10
0.079265
20
0.246889
30
0.0
11
0.078433
21
0.245162
31
0.0
0
LINE
8
FRONT
10
0.078433
20
0.245162
30
0.0
11
0.077777
21
0.243361
31
0.0
0
LINE
8
FRONT
10
0.077777
20
0.243361
30
0.0
11
0.077304
21
0.241503
31
0.0
0
LINE
8
FRONT
10
0.077304
20
0.241503
30
0.0
11
0.077019
21
0.239607
31
0.0
0
LINE
8
FRONT
10
0.077019
20
0.239607
30
0.0
11
0.076923
21
0.237692
31
0.0
0
LINE
8
FRONT
10
0.096154
20
0.180000
30
0.0
11
0.100256
21
0.180146
31
0.0
0
LINE
8
FRONT
10
0.000482
20
0.612692
30
0.0
11
0.038751
21
0.231923
31
0.0
0
LINE
8
FRONT
10
0.100256
20
0.180146
30
0.0
11
0.367095
21
0.189646
31
0.0
0
LINE
8
FRONT
10
0.367102
20
0.285739
30
0.0
11
0.211039
21
0.291316
31
0.0
0
LINE
8
FRONT
10
0.211039
20
0.291316
30
0.0
11
0.209791
21
0.291377
31
0.0
0
LINE
8
FRONT
10
0.209791
20
0.291377
30
0.0
11
0.208545
21
0.291470
31
0.0
0
LINE
8
FRONT
10
0.208545
20
0.291470
30
0.0
11
0.207301
21
0.291595
31
0.0
0
LINE
8
FRONT
10
0.207301
20
0.291595
30
0.0
11
0.206061
21
0.291753
31
0.0
0
LINE
8
FRONT
10
0.206061
20
0.291753
30
0.0
11
0.204826
21
0.291943
31
0.0
0
LINE
8
FRONT
10
0.204826
20
0.291943
30
0.0
11
0.203596
21
0.292165
31
0.0
0
LINE
8
FRONT
10
0.203596
20
0.292165
30
0.0
11
0.202372
21
0.292419
31
0.0
0
LINE
8
FRONT
10
0.202372
20
0.292419
30
0.0
11
0.201155
21
0.292704
31
0.0
0
LINE
8
FRONT
10
0.201155
20
0.292704
30
0.0
11
0.199946
21
0.293021
31
0.0
0
LINE
8
FRONT
10
0.199946
20
0.293021
30
0.0
11
0.198746
21
0.293369
31
0.0
0
LINE
8
FRONT
10
0.198746
20
0.293369
30
0.0
11
0.197555
21
0.293748
31
0.0
0
LINE
8
FRONT
10
0.197555
20
0.293748
30
0.0
11
0.196374
21
0.294158
31
0.0
0
LINE
8
FRONT
10
0.196374
20
0.294158
30
0.0
11
0.195205
21
0.294599
31
0.0
0
LINE
8
FRONT
10
0.195205
20
0.294599
30
0.0
11
0.194047
21
0.295070
31
0.0
0
LINE
8
FRONT
10
0.194047
20
0.295070
30
0.0
11
0.192901
21
0.295570
31
0.0
0
LINE
8
FRONT
10
0.192901
20
0.295570
30
0.0
11
0.191770
21
0.296100
31
0.0
0
LINE
8
FRONT
10
0.191770
20
0.296100
30
0.0
11
0.190652
21
0.296660
31
0.0
0
LINE
8
FRONT
10
0.190652
20
0.296660
30
0.0
11
0.189549
21
0.297248
31
0.0
0
LINE
8
FRONT
10
0.189549
20
0.297248
30
0.0
11
0.188462
21
0.297864
31
0.0
0
LINE
8
FRONT
10
0.188462
20
0.297864
30
0.0
11
0.187391
21
0.298509
31
0.0
0
LINE
8
FRONT
10
0.187391
20
0.298509
30
0.0
11
0.186337
21
0.299181
31
0.0
0
LINE
8
FRONT
10
0.186337
20
0.299181
30
0.0
11
0.185301
21
0.299880
31
0.0
0
LINE
8
FRONT
10
0.185301
20
0.299880
30
0.0
11
0.184284
21
0.300606
31
0.0
0
LINE
8
FRONT
10
0.184284
20
0.300606
30
0.0
11
0.183286
21
0.301359
31
0.0
0
LINE
8
FRONT
10
0.183286
20
0.301359
30
0.0
11
0.182307
21
0.302136
31
0.0
0
LINE
8
FRONT
10
0.182307
20
0.302136
30
0.0
11
0.181350
21
0.302939
31
0.0
0
LINE
8
FRONT
10
0.181350
20
0.302939
30
0.0
11
0.180413
21
0.303767
31
0.0
0
LINE
8
FRONT
10
0.180413
20
0.303767
30
0.0
11
0.179498
21
0.304618
31
0.0
0
LINE
8
FRONT
10
0.179498
20
0.304618
30
0.0
11
0.178605
21
0.305493
31
0.0
0
LINE
8
FRONT
10
0.178605
20
0.305493
30
0.0
11
0.177736
21
0.306391
31
0.0
0
LINE
8
FRONT
10
0.177736
20
0.306391
30
0.0
11
0.176890
21
0.307311
31
0.0
0
LINE
8
FRONT
10
0.176890
20
0.307311
30
0.0
11
0.176068
21
0.308253
31
0.0
0
LINE
8
FRONT
10
0.176068
20
0.308253
30
0.0
11
0.175271
21
0.309216
31
0.0
0
LINE
8
FRONT
10
0.175271
20
0.309216
30
0.0
11
0.174499
21
0.310199
31
0.0
0
LINE
8
FRONT
10
0.174499
20
0.310199
30
0.0
11
0.173753
21
0.311202
31
0.0
0
LINE
8
FRONT
10
0.173753
20
0.311202
30
0.0
11
0.173034
21
0.312223
31
0.0
0
LINE
8
FRONT
10
0.173034
20
0.312223
30
0.0
11
0.172341
21
0.313264
31
0.0
0
LINE
8
FRONT
10
0.172341
20
0.313264
30
0.0
11
0.171675
21
0.314321
31
0.0
0
LINE
8
FRONT
10
0.171675
20
0.314321
30
0.0
11
0.171037
21
0.315396
31
0.0
0
LINE
8
FRONT
10
0.171037
20
0.315396
30
0.0
11
0.170427
21
0.316487
31
0.0
0
LINE
8
FRONT
10
0.170427
20
0.316487
30
0.0
11
0.169846
21
0.317593
31
0.0
0
LINE
8
FRONT
10
0.169846
20
0.317593
30
0.0
11
0.169293
21
0.318714
31
0.0
0
LINE
8
FRONT
10
0.169293
20
0.318714
30
0.0
11
0.168770
21
0.319850
31
0.0
0
LINE
8
FRONT
10
0.168770
20
0.319850
30
0.0
11
0.168276
21
0.320998
31
0.0
0
LINE
8
FRONT
10
0.168276
20
0.320998
30
0.0
11
0.167813
21
0.322158
31
0.0
0
LINE
8
FRONT
10
0.167813
20
0.322158
30
0.0
11
0.167379
21
0.323331
31
0.0
0
LINE
8
FRONT
10
0.167379
20
0.323331
30
0.0
11
0.166977
21
0.324514
31
0.0
0
LINE
8
FRONT
10
0.166977
20
0.324514
30
0.0
11
0.166605
21
0.325707
31
0.0
0
LINE
8
FRONT
10
0.166605
20
0.325707
30
0.0
11
0.166264
21
0.326910
31
0.0
0
LINE
8
FRONT
10
0.166264
20
0.326910
30
0.0
11
0.165954
21
0.328121
31
0.0
0
LINE
8
FRONT
10
0.165954
20
0.328121
30
0.0
11
0.165676
21
0.329339
31
0.0
0
LINE
8
FRONT
10
0.165676
20
0.329339
30
0.0
11
0.165430
21
0.330565
31
0.0
0
LINE
8
FRONT
10
0.165430
20
0.330565
30
0.0
11
0.165216
21
0.331796
31
0.0
0
LINE
8
FRONT
10
0.165216
20
0.331796
30
0.0
11
0.165033
21
0.333032
31
0.0
0
LINE
8
FRONT
10
0.165033
20
0.333032
30
0.0
11
0.164883
21
0.334273
31
0.0
0
LINE
8
FRONT
10
0.164883
20
0.334273
30
0.0
11
0.164765
21
0.335517
31
0.0
0
LINE
8
FRONT
10
0.164765
20
0.335517
30
0.0
11
0.164680
21
0.336764
31
0.0
0
LINE
8
FRONT
10
0.164680
20
0.336764
30
0.0
11
0.164626
21
0.338013
31
0.0
0
LINE
8
FRONT
10
0.164626
20
0.338013
30
0.0
11
0.164606
21
0.339263
31
0.0
0
LINE
8
FRONT
10
0.164606
20
0.339263
30
0.0
11
0.164617
21
0.340513
31
0.0
0
LINE
8
FRONT
10
0.164617
20
0.340513
30
0.0
11
0.164661
21
0.341762
31
0.0
0
LINE
8
FRONT
10
0.164661
20
0.341762
30
0.0
11
0.164738
21
0.343009
31
0.0
0
LINE
8
FRONT
10
0.164738
20
0.343009
30
0.0
11
0.164847
21
0.344254
31
0.0
0
LINE
8
FRONT
10
0.164847
20
0.344254
30
0.0
11
0.191826
21
0.612692
31
0.0
0
LINE
8
FRONT
10
0.000000
20
0.622308
30
0.0
11
0.000000
21
0.622155
31
0.0
0
LINE
8
FRONT
10
0.000000
20
0.622155
30
0.0
11
0.000000
21
0.622002
31
0.0
0
LINE
8
FRONT
10
0.000000
20
0.622002
30
0.0
11
0.000001
21
0.621849
31
0.0
0
LINE
8
FRONT
10
0.000001
20
0.621849
30
0.0
11
0.000002
21
0.621696
31
0.0
0
LINE
8
FRONT
10
0.000002
20
0.621696
30
0.0
11
0.000003
21
0.621543
31
0.0
0
LINE
8
FRONT
10
0.000003
20
0.621543
30
0.0
11
0.000004
21
0.621390
31
0.0
0
LINE
8
FRONT
10
0.000004
20
0.621390
30
0.0
11
0.000006
21
0.621238
31
0.0
0
LINE
8
FRONT
10
0.000006
20
0.621238
30
0.0
11
0.000008
21
0.621085
31
0.0
0
LINE
8
FRONT
10
0.000008
20
0.621085
30
0.0
11
0.000010
21
0.620932
31
0.0
0
LINE
8
FRONT
10
0.000010
20
0.620932
30
0.0
11
0.000012
21
0.620779
31
0.0
0
LINE
8
FRONT
10
0.000012
20
0.620779
30
0.0
11
0.000015
21
0.620626
31
0.0
0
LINE
8
FRONT
10
0.000015
20
0.620626
30
0.0
11
0.000018
21
0.620473
31
0.0
0
LINE
8
FRONT
10
0.000018
20
0.620473
30
0.0
11
0.000021
21
0.620320
31
0.0
0
LINE
8
FRONT
10
0.000021
20
0.620320
30
0.0
11
0.000024
21
0.620168
31
0.0
0
LINE
8
FRONT
10
0.000024
20
0.620168
30
0.0
11
0.000027
21
0.620015
31
0.0
0
LINE
8
FRONT
10
0.000027
20
0.620015
30
0.0
11
0.000031
21
0.619862
31
0.0
0
LINE
8
FRONT
10
0.000031
20
0.619862
30
0.0
11
0.000035
21
0.619709
31
0.0
0
LINE
8
FRONT
10
0.000035
20
0.619709
30
0.0
11
0.000039
21
0.619556
31
0.0
0
LINE
8
FRONT
10
0.000039
20
0.619556
30
0.0
11
0.000044
21
0.619403
31
0.0
0
LINE
8
FRONT
10
0.000044
20
0.619403
30
0.0
11
0.000049
21
0.619251
31
0.0
0
LINE
8
FRONT
10
0.000049
20
0.619251
30
0.0
11
0.000054
21
0.619098
31
0.0
0
LINE
8
FRONT
10
0.000054
20
0.619098
30
0.0
11
0.000059
21
0.618945
31
0.0
0
LINE
8
FRONT
10
0.000059
20
0.618945
30
0.0
11
0.000064
21
0.618792
31
0.0
0
LINE
8
FRONT
10
0.000064
20
0.618792
30
0.0
11
0.000070
21
0.618639
31
0.0
0
LINE
8
FRONT
10
0.000070
20
0.618639
30
0.0
11
0.000076
21
0.618487
31
0.0
0
LINE
8
FRONT
10
0.000076
20
0.618487
30
0.0
11
0.000082
21
0.618334
31
0.0
0
LINE
8
FRONT
10
0.000082
20
0.618334
30
0.0
11
0.000089
21
0.618181
31
0.0
0
LINE
8
FRONT
10
0.000089
20
0.618181
30
0.0
11
0.000095
21
0.618028
31
0.0
0
LINE
8
FRONT
10
0.000095
20
0.618028
30
0.0
11
0.000102
21
0.617876
31
0.0
0
LINE
8
FRONT
10
0.000102
20
0.617876
30
0.0
11
0.000109
21
0.617723
31
0.0
0
LINE
8
FRONT
10
0.000109
20
0.617723
30
0.0
11
0.000117
21
0.617570
31
0.0
0
LINE
8
FRONT
10
0.000117
20
0.617570
30
0.0
11
0.000124
21
0.617418
31
0.0
0
LINE
8
FRONT
10
0.000124
20
0.617418
30
0.0
11
0.000132
21
0.617265
31
0.0
0
LINE
8
FRONT
10
0.000132
20
0.617265
30
0.0
11
0.000140
21
0.617112
31
0.0
0
LINE
8
FRONT
10
0.000140
20
0.617112
30
0.0
11
0.000149
21
0.616960
31
0.0
0
LINE
8
FRONT
10
0.000149
20
0.616960
30
0.0
11
0.000157
21
0.616807
31
0.0
0
LINE
8
FRONT
10
0.000157
20
0.616807
30
0.0
11
0.000166
21
0.616654
31
0.0
0
LINE
8
FRONT
10
0.000166
20
0.616654
30
0.0
11
0.000175
21
0.616502
31
0.0
0
LINE
8
FRONT
10
0.000175
20
0.616502
30
0.0
11
0.000185
21
0.616349
31
0.0
0
LINE
8
FRONT
10
0.000185
20
0.616349
30
0.0
11
0.000194
21
0.616197
31
0.0
0
LINE
8
FRONT
10
0.000194
20
0.616197
30
0.0
11
0.000204
21
0.616044
31
0.0
0
LINE
8
FRONT
10
0.000204
20
0.616044
30
0.0
11
0.000214
21
0.615891
31
0.0
0
LINE
8
FRONT
10
0.000214
20
0.615891
30
0.0
11
0.000225
21
0.615739
31
0.0
0
LINE
8
FRONT
10
0.000225
20
0.615739
30
0.0
11
0.000235
21
0.615586
31
0.0
0
LINE
8
FRONT
10
0.000235
20
0.615586
30
0.0
11
0.000246
21
0.615434
31
0.0
0
LINE
8
FRONT
10
0.000246
20
0.615434
30
0.0
11
0.000257
21
0.615281
31
0.0
0
LINE
8
FRONT
10
0.000257
20
0.615281
30
0.0
11
0.000268
21
0.615129
31
0.0
0
LINE
8
FRONT
10
0.000268
20
0.615129
30
0.0
11
0.000280
21
0.614977
31
0.0
0
LINE
8
FRONT
10
0.000280
20
0.614977
30
0.0
11
0.000292
21
0.614824
31
0.0
0
LINE
8
FRONT
10
0.000292
20
0.614824
30
0.0
11
0.000304
21
0.614672
31
0.0
0
LINE
8
FRONT
10
0.000304
20
0.614672
30
0.0
11
0.000316
21
0.614519
31
0.0
0
LINE
8
FRONT
10
0.000316
20
0.614519
30
0.0
11
0.000328
21
0.614367
31
0.0
0
LINE
8
FRONT
10
0.000328
20
0.614367
30
0.0
11
0.000341
21
0.614215
31
0.0
0
LINE
8
FRONT
10
0.000341
20
0.614215
30
0.0
11
0.000354
21
0.614062
31
0.0
0
LINE
8
FRONT
10
0.000354
20
0.614062
30
0.0
11
0.000367
21
0.613910
31
0.0
0
LINE
8
FRONT
10
0.000367
20
0.613910
30
0.0
11
0.000381
21
0.613758
31
0.0
0
LINE
8
FRONT
10
0.000381
20
0.613758
30
0.0
11
0.000395
21
0.613605
31
0.0
0
LINE
8
FRONT
10
0.000395
20
0.613605
30
0.0
11
0.000409
21
0.613453
31
0.0
0
LINE
8
FRONT
10
0.000409
20
0.613453
30
0.0
11
0.000423
21
0.613301
31
0.0
0
LINE
8
FRONT
10
0.000423
20
0.613301
30
0.0
11
0.000437
21
0.613149
31
0.0
0
LINE
8
FRONT
10
0.000437
20
0.613149
30
0.0
11
0.000452
21
0.612997
31
0.0
0
LINE
8
FRONT
10
0.000452
20
0.612997
30
0.0
11
0.000467
21
0.612844
31
0.0
0
LINE
8
FRONT
10
0.000467
20
0.612844
30
0.0
11
0.000482
21
0.612692
31
0.0
0
LINE
8
FRONT
10
0.367095
20
0.189646
30
0.0
11
0.369434
21
0.189786
31
0.0
0
LINE
8
FRONT
10
0.369434
20
0.189786
30
0.0
11
0.371763
21
0.190040
31
0.0
0
LINE
8
FRONT
10
0.371763
20
0.190040
30
0.0
11
0.374076
21
0.190408
31
0.0
0
LINE
8
FRONT
10
0.374076
20
0.190408
30
0.0
11
0.376370
21
0.190887
31
0.0
0
LINE
8
FRONT
10
0.376370
20
0.190887
30
0.0
11
0.378637
21
0.191478
31
0.0
0
LINE
8
FRONT
10
0.378637
20
0.191478
30
0.0
11
0.380872
21
0.192178
31
0.0
0
LINE
8
FRONT
10
0.380872
20
0.192178
30
0.0
11
0.383071
21
0.192987
31
0.0
0
LINE
8
FRONT
10
0.383071
20
0.192987
30
0.0
11
0.385228
21
0.193902
31
0.0
0
LINE
8
FRONT
10
0.385228
20
0.193902
30
0.0
11
0.387338
21
0.194920
31
0.0
0
LINE
8
FRONT
10
0.387338
20
0.194920
30
0.0
11
0.389395
21
0.196040
31
0.0
0
LINE
8
FRONT
10
0.389395
20
0.196040
30
0.0
11
0.391396
21
0.197260
31
0.0
0
LINE
8
FRONT
10
0.391396
20
0.197260
30
0.0
11
0.393335
21
0.198575
31
0.0
0
LINE
8
FRONT
10
0.393335
20
0.198575
30
0.0
11
0.395207
21
0.199983
31
0.0
0
LINE
8
FRONT
10
0.395207
20
0.199983
30
0.0
11
0.397009
21
0.201480
31
0.0
0
LINE
8
FRONT
10
0.397009
20
0.201480
30
0.0
11
0.398735
21
0.203064
31
0.0
0
LINE
8
FRONT
10
0.398735
20
0.203064
30
0.0
11
0.400383
21
0.204730
31
0.0
0
LINE
8
FRONT
10
0.400383
20
0.204730
30
0.0
11
0.401947
21
0.206474
31
0.0
0
LINE
8
FRONT
10
0.401947
20
0.206474
30
0.0
11
0.403424
21
0.208292
31
0.0
0
LINE
8
FRONT
10
0.403424
20
0.208292
30
0.0
11
0.404811
21
0.210180
31
0.0
0
LINE
8
FRONT
10
0.404811
20
0.210180
30
0.0
11
0.406105
21
0.212133
31
0.0
0
LINE
8
FRONT
10
0.406105
20
0.212133
30
0.0
11
0.407302
21
0.214148
31
0.0
0
LINE
8
FRONT
10
0.407302
20
0.214148
30
0.0
11
0.408399
21
0.216217
31
0.0
0
LINE
8
FRONT
10
0.408399
20
0.216217
30
0.0
11
0.409394
21
0.218338
31
0.0
0
LINE
8
FRONT
10
0.409394
20
0.218338
30
0.0
11
0.410284
21
0.220505
31
0.0
0
LINE
8
FRONT
10
0.410284
20
0.220505
30
0.0
11
0.411068
21
0.222713
31
0.0
0
LINE
8
FRONT
10
0.411068
20
0.222713
30
0.0
11
0.411744
21
0.224956
31
0.0
0
LINE
8
FRONT
10
0.411744
20
0.224956
30
0.0
11
0.412309
21
0.227230
31
0.0
0
LINE
8
FRONT
10
0.412309
20
0.227230
30
0.0
11
0.412763
21
0.229528
31
0.0
0
LINE
8
FRONT
10
0.412763
20
0.229528
30
0.0
11
0.413105
21
0.231846
31
0.0
0
LINE
8
FRONT
10
0.413105
20
0.231846
30
0.0
11
0.413333
21
0.234178
31
0.0
0
LINE
8
FRONT
10
0.413333
20
0.234178
30
0.0
11
0.413447
21
0.236518
31
0.0
0
LINE
8
FRONT
10
0.413447
20
0.236518
30
0.0
11
0.413447
21
0.238860
31
0.0
0
LINE
8
FRONT
10
0.413447
20
0.238860
30
0.0
11
0.413333
21
0.241200
31
0.0
0
LINE
8
FRONT
10
0.413333
20
0.241200
30
0.0
11
0.413106
21
0.243532
31
0.0
0
LINE
8
FRONT
10
0.413106
20
0.243532
30
0.0
11
0.412764
21
0.245850
31
0.0
0
LINE
8
FRONT
10
0.412764
20
0.245850
30
0.0
11
0.412311
21
0.248148
31
0.0
0
LINE
8
FRONT
10
0.412311
20
0.248148
30
0.0
11
0.411746
21
0.250422
31
0.0
0
LINE
8
FRONT
10
0.411746
20
0.250422
30
0.0
11
0.411070
21
0.252665
31
0.0
0
LINE
8
FRONT
10
0.411070
20
0.252665
30
0.0
11
0.410287
21
0.254873
31
0.0
0
LINE
8
FRONT
10
0.410287
20
0.254873
30
0.0
11
0.409397
21
0.257040
31
0.0
0
LINE
8
FRONT
10
0.409397
20
0.257040
30
0.0
11
0.408402
21
0.259161
31
0.0
0
LINE
8
FRONT
10
0.408402
20
0.259161
30
0.0
11
0.407305
21
0.261231
31
0.0
0
LINE
8
FRONT
10
0.407305
20
0.261231
30
0.0
11
0.406108
21
0.263246
31
0.0
0
LINE
8
FRONT
10
0.406108
20
0.263246
30
0.0
11
0.404815
21
0.265199
31
0.0
0
LINE
8
FRONT
10
0.404815
20
0.265199
30
0.0
11
0.403428
21
0.267087
31
0.0
0
LINE
8
FRONT
10
0.403428
20
0.267087
30
0.0
11
0.401951
21
0.268906
31
0.0
0
LINE
8
FRONT
10
0.401951
20
0.268906
30
0.0
11
0.400387
21
0.270650
31
0.0
0
LINE
8
FRONT
10
0.400387
20
0.270650
30
0.0
11
0.398740
21
0.272316
31
0.0
0
LINE
8
FRONT
10
0.398740
20
0.272316
30
0.0
11
0.397014
21
0.273900
31
0.0
0
LINE
8
FRONT
10
0.397014
20
0.273900
30
0.0
11
0.395212
21
0.275398
31
0.0
0
LINE
8
FRONT
10
0.395212
20
0.275398
30
0.0
11
0.393340
21
0.276806
31
0.0
0
LINE
8
FRONT
10
0.393340
20
0.276806
30
0.0
11
0.391401
21
0.278121
31
0.0
0
LINE
8
FRONT
10
0.391401
20
0.278121
30
0.0
11
0.389401
21
0.279341
31
0.0
0
LINE
8
FRONT
10
0.389401
20
0.279341
30
0.0
11
0.387344
21
0.280461
31
0.0
0
LINE
8
FRONT
10
0.387344
20
0.280461
30
0.0
11
0.385234
21
0.281480
31
0.0
0
LINE
8
FRONT
10
0.385234
20
0.281480
30
0.0
11
0.383077
21
0.282395
31
0.0
0
LINE
8
FRONT
10
0.383077
20
0.282395
30
0.0
11
0.380879
21
0.283204
31
0.0
0
LINE
8
FRONT
10
0.380879
20
0.283204
30
0.0
11
0.378643
21
0.283905
31
0.0
0
LINE
8
FRONT
10
0.378643
20
0.283905
30
0.0
11
0.376376
21
0.284496
31
0.0
0
LINE
8
FRONT
10
0.376376
20
0.284496
30
0.0
11
0.374083
21
0.284976
31
0.0
0
LINE
8
FRONT
10
0.374083
20
0.284976
30
0.0
11
0.371769
21
0.285343
31
0.0
0
LINE
8
FRONT
10
0.371769
20
0.285343
30
0.0
11
0.369440
21
0.285598
31
0.0
0
LINE
8
FRONT
10
0.369440
20
0.285598
30
0.0
11
0.367102
21
0.285739
31
0.0
0
LINE
8
FRONT
10
0.346154
20
0.237692
30
0.0
11
0.346249
21
0.235778
31
0.0
0
LINE
8
FRONT
10
0.346249
20
0.235778
30
0.0
11
0.346535
21
0.233882
31
0.0
0
LINE
8
FRONT
10
0.346535
20
0.233882
30
0.0
11
0.347008
21
0.232024
31
0.0
0
LINE
8
FRONT
10
0.347008
20
0.232024
30
0.0
11
0.347664
21
0.230222
31
0.0
0
LINE
8
FRONT
10
0.347664
20
0.230222
30
0.0
11
0.348496
21
0.228495
31
0.0
0
LINE
8
FRONT
10
0.348496
20
0.228495
30
0.0
11
0.349495
21
0.226859
31
0.0
0
LINE
8
FRONT
10
0.349495
20
0.226859
30
0.0
11
0.350653
21
0.225331
31
0.0
0
LINE
8
FRONT
10
0.350653
20
0.225331
30
0.0
11
0.351957
21
0.223926
31
0.0
0
LINE
8
FRONT
10
0.351957
20
0.223926
30
0.0
11
0.353394
21
0.222657
31
0.0
0
LINE
8
FRONT
10
0.353394
20
0.222657
30
0.0
11
0.354951
21
0.221538
31
0.0
0
LINE
8
FRONT
10
0.354951
20
0.221538
30
0.0
11
0.356611
21
0.220579
31
0.0
0
LINE
8
FRONT
10
0.356611
20
0.220579
30
0.0
11
0.358359
21
0.219791
31
0.0
0
LINE
8
FRONT
10
0.358359
20
0.219791
30
0.0
11
0.360176
21
0.219180
31
0.0
0
LINE
8
FRONT
10
0.360176
20
0.219180
30
0.0
11
0.362045
21
0.218754
31
0.0
0
LINE
8
FRONT
10
0.362045
20
0.218754
30
0.0
11
0.363947
21
0.218515
31
0.0
0
LINE
8
FRONT
10
0.363947
20
0.218515
30
0.0
11
0.365864
21
0.218468
31
0.0
0
LINE
8
FRONT
10
0.365864
20
0.218468
30
0.0
11
0.367776
21
0.218611
31
0.0
0
LINE
8
FRONT
10
0.367776
20
0.218611
30
0.0
11
0.369664
21
0.218944
31
0.0
0
LINE
8
FRONT
10
0.369664
20
0.218944
30
0.0
11
0.371509
21
0.219463
31
0.0
0
LINE
8
FRONT
10
0.371509
20
0.219463
30
0.0
11
0.373294
21
0.220163
31
0.0
0
LINE
8
FRONT
10
0.373294
20
0.220163
30
0.0
11
0.375000
21
0.221038
31
0.0
0
LINE
8
FRONT
10
0.375000
20
0.221038
30
0.0
11
0.376610
21
0.222078
31
0.0
0
LINE
8
FRONT
10
0.376610
20
0.222078
30
0.0
11
0.378109
21
0.223273
31
0.0
0
LINE
8
FRONT
10
0.378109
20
0.223273
30
0.0
11
0.379482
21
0.224612
31
0.0
0
LINE
8
FRONT
10
0.379482
20
0.224612
30
0.0
11
0.380714
21
0.226081
31
0.0
0
LINE
8
FRONT
10
0.380714
20
0.226081
30
0.0
11
0.381794
21
0.227665
31
0.0
0
LINE
8
FRONT
10
0.381794
20
0.227665
30
0.0
11
0.382711
21
0.229348
31
0.0
0
LINE
8
FRONT
10
0.382711
20
0.229348
30
0.0
11
0.383456
21
0.231115
31
0.0
0
LINE
8
FRONT
10
0.383456
20
0.231115
30
0.0
11
0.384021
21
0.232947
31
0.0
0
LINE
8
FRONT
10
0.384021
20
0.232947
30
0.0
11
0.384401
21
0.234826
31
0.0
0
LINE
8
FRONT
10
0.384401
20
0.234826
30
0.0
11
0.384591
21
0.236734
31
0.0
0
LINE
8
FRONT
10
0.384591
20
0.236734
30
0.0
11
0.384591
21
0.238651
31
0.0
0
LINE
8
FRONT
10
0.384591
20
0.238651
30
0.0
11
0.384401
21
0.240559
31
0.0
0
LINE
8
FRONT
10
0.384401
20
0.240559
30
0.0
11
0.384021
21
0.242438
31
0.0
0
LINE
8
FRONT
10
0.384021
20
0.242438
30
0.0
11
0.383456
21
0.244270
31
0.0
0
LINE
8
FRONT
10
0.383456
20
0.244270
30
0.0
11
0.382711
21
0.246036
31
0.0
0
LINE
8
FRONT
10
0.382711
20
0.246036
30
0.0
11
0.381794
21
0.247720
31
0.0
0
LINE
8
FRONT
10
0.381794
20
0.247720
30
0.0
11
0.380714
21
0.249304
31
0.0
0
LINE
8
FRONT
10
0.380714
20
0.249304
30
0.0
11
0.379482
21
0.250773
31
0.0
0
LINE
8
FRONT
10
0.379482
20
0.250773
30
0.0
11
0.378109
21
0.252111
31
0.0
0
LINE
8
FRONT
10
0.378109
20
0.252111
30
0.0
11
0.376610
21
0.253307
31
0.0
0
LINE
8
FRONT
10
0.376610
20
0.253307
30
0.0
11
0.375000
21
0.254347
31
0.0
0
LINE
8
FRONT
10
0.375000
20
0.254347
30
0.0
11
0.373294
21
0.255221
31
0.0
0
LINE
8
FRONT
10
0.373294
20
0.255221
30
0.0
11
0.371509
21
0.255922
31
0.0
0
LINE
8
FRONT
10
0.371509
20
0.255922
30
0.0
11
0.369664
21
0.256441
31
0.0
0
LINE
8
FRONT
10
0.369664
20
0.256441
30
0.0
11
0.367776
21
0.256774
31
0.0
0
LINE
8
FRONT
10
0.367776
20
0.256774
30
0.0
11
0.365864
21
0.256917
31
0.0
0
LINE
8
FRONT
10
0.365864
20
0.256917
30
0.0
11
0.363947
21
0.256869
31
0.0
0
LINE
8
FRONT
10
0.363947
20
0.256869
30
0.0
11
0.362045
21
0.256631
31
0.0
0
LINE
8
FRONT
10
0.362045
20
0.256631
30
0.0
11
0.360176
21
0.256204
31
0.0
0
LINE
8
FRONT
10
0.360176
20
0.256204
30
0.0
11
0.358359
21
0.255594
31
0.0
0
LINE
8
FRONT
10
0.358359
20
0.255594
30
0.0
11
0.356611
21
0.254805
31
0.0
0
LINE
8
FRONT
10
0.356611
20
0.254805
30
0.0
11
0.354951
21
0.253847
31
0.0
0
LINE
8
FRONT
10
0.354951
20
0.253847
30
0.0
11
0.353394
21
0.252728
31
0.0
0
LINE
8
FRONT
10
0.353394
20
0.252728
30
0.0
11
0.351957
21
0.251459
31
0.0
0
LINE
8
FRONT
10
0.351957
20
0.251459
30
0.0
11
0.350653
21
0.250054
31
0.0
0
LINE
8
FRONT
10
0.350653
20
0.250054
30
0.0
11
0.349495
21
0.248525
31
0.0
0
LINE
8
FRONT
10
0.349495
20
0.248525
30
0.0
11
0.348496
21
0.246889
31
0.0
0
LINE
8
FRONT
10
0.348496
20
0.246889
30
0.0
11
0.347664
21
0.245162
31
0.0
0
LINE
8
FRONT
10
0.347664
20
0.245162
30
0.0
11
0.347008
21
0.243361
31
0.0
0
LINE
8
FRONT
10
0.347008
20
0.243361
30
0.0
11
0.346535
21
0.241503
31
0.0
0
LINE
8
FRONT
10
0.346535
20
0.241503
30
0.0
11
0.346249
21
0.239607
31
0.0
0
LINE
8
FRONT
10
0.346249
20
0.239607
30
0.0
11
0.346154
21
0.237692
31
0.0
0
LINE
8
FRONT
10
0.191826
20
0.612692
30
0.0
11
0.191860
21
0.613035
31
0.0
0
LINE
8
FRONT
10
0.191860
20
0.613035
30
0.0
11
0.191892
21
0.613377
31
0.0
0
LINE
8
FRONT
10
0.191892
20
0.613377
30
0.0
11
0.191923
21
0.613720
31
0.0
0
LINE
8
FRONT
10
0.191923
20
0.613720
30
0.0
11
0.191954
21
0.614063
31
0.0
0
LINE
8
FRONT
10
0.191954
20
0.614063
30
0.0
11
0.191982
21
0.614406
31
0.0
0
LINE
8
FRONT
10
0.191982
20
0.614406
30
0.0
11
0.192010
21
0.614749
31
0.0
0
LINE
8
FRONT
10
0.192010
20
0.614749
30
0.0
11
0.192037
21
0.615092
31
0.0
0
LINE
8
FRONT
10
0.192037
20
0.615092
30
0.0
11
0.192062
21
0.615435
31
0.0
0
LINE
8
FRONT
10
0.192062
20
0.615435
30
0.0
11
0.192086
21
0.615779
31
0.0
0
LINE
8
FRONT
10
0.192086
20
0.615779
30
0.0
11
0.192109
21
0.616122
31
0.0
0
LINE
8
FRONT
10
0.192109
20
0.616122
30
0.0
11
0.192130
21
0.616466
31
0.0
0
LINE
8
FRONT
10
0.192130
20
0.616466
30
0.0
11
0.192150
21
0.616809
31
0.0
0
LINE
8
FRONT
10
0.192150
20
0.616809
30
0.0
11
0.192169
21
0.617153
31
0.0
0
LINE
8
FRONT
10
0.192169
20
0.617153
30
0.0
11
0.192187
21
0.617496
31
0.0
0
LINE
8
FRONT
10
0.192187
20
0.617496
30
0.0
11
0.192204
21
0.617840
31
0.0
0
LINE
8
FRONT
10
0.192204
20
0.617840
30
0.0
11
0.192219
21
0.618184
31
0.0
0
LINE
8
FRONT
10
0.192219
20
0.618184
30
0.0
11
0.192233
21
0.618528
31
0.0
0
LINE
8
FRONT
10
0.192233
20
0.618528
30
0.0
11
0.192246
21
0.618872
31
0.0
0
LINE
8
FRONT
10
0.192246
20
0.618872
30
0.0
11
0.192258
21
0.619216
31
0.0
0
LINE
8
FRONT
10
0.192258
20
0.619216
30
0.0
11
0.192268
21
0.619560
31
0.0
0
LINE
8
FRONT
10
0.192268
20
0.619560
30
0.0
11
0.192278
21
0.619904
31
0.0
0
LINE
8
FRONT
10
0.192278
20
0.619904
30
0.0
11
0.192286
21
0.620248
31
0.0
0
LINE
8
FRONT
10
0.192286
20
0.620248
30
0.0
11
0.192292
21
0.620592
31
0.0
0
LINE
8
FRONT
10
0.192292
20
0.620592
30
0.0
11
0.192298
21
0.620936
31
0.0
0
LINE
8
FRONT
10
0.192298
20
0.620936
30
0.0
11
0.192302
21
0.621280
31
0.0
0
LINE
8
FRONT
10
0.192302
20
0.621280
30
0.0
11
0.192305
21
0.621624
31
0.0
0
LINE
8
FRONT
10
0.192305
20
0.621624
30
0.0
11
0.192307
21
0.621969
31
0.0
0
LINE
8
FRONT
10
0.192307
20
0.621969
30
0.0
11
0.192308
21
0.622313
31
0.0
0
LINE
8
FRONT
10
0.192308
20
0.622313
30
0.0
11
0.192307
21
0.622657
31
0.0
0
LINE
8
FRONT
10
0.192307
20
0.622657
30
0.0
11
0.192305
21
0.623001
31
0.0
0
LINE
8
FRONT
10
0.192305
20
0.623001
30
0.0
11
0.192302
21
0.623345
31
0.0
0
LINE
8
FRONT
10
0.192302
20
0.623345
30
0.0
11
0.192298
21
0.623689
31
0.0
0
LINE
8
FRONT
10
0.192298
20
0.623689
30
0.0
11
0.192292
21
0.624033
31
0.0
0
LINE
8
FRONT
10
0.192292
20
0.624033
30
0.0
11
0.192285
21
0.624378
31
0.0
0
LINE
8
FRONT
10
0.192285
20
0.624378
30
0.0
11
0.192277
21
0.624722
31
0.0
0
LINE
8
FRONT
10
0.192277
20
0.624722
30
0.0
11
0.192268
21
0.625066
31
0.0
0
LINE
8
FRONT
10
0.192268
20
0.625066
30
0.0
11
0.192258
21
0.625410
31
0.0
0
LINE
8
FRONT
10
0.192258
20
0.625410
30
0.0
11
0.192246
21
0.625754
31
0.0
0
LINE
8
FRONT
10
0.192246
20
0.625754
30
0.0
11
0.192233
21
0.626098
31
0.0
0
LINE
8
FRONT
10
0.192233
20
0.626098
30
0.0
11
0.192219
21
0.626441
31
0.0
0
LINE
8
FRONT
10
0.192219
20
0.626441
30
0.0
11
0.192203
21
0.626785
31
0.0
0
LINE
8
FRONT
10
0.192203
20
0.626785
30
0.0
11
0.192187
21
0.627129
31
0.0
0
LINE
8
FRONT
10
0.192187
20
0.627129
30
0.0
11
0.192169
21
0.627473
31
0.0
0
LINE
8
FRONT
10
0.192169
20
0.627473
30
0.0
11
0.192150
21
0.627816
31
0.0
0
LINE
8
FRONT
10
0.192150
20
0.627816
30
0.0
11
0.192129
21
0.628160
31
0.0
0
LINE
8
FRONT
10
0.192129
20
0.628160
30
0.0
11
0.192108
21
0.628503
31
0.0
0
LINE
8
FRONT
10
0.192108
20
0.628503
30
0.0
11
0.192085
21
0.628847
31
0.0
0
LINE
8
FRONT
10
0.192085
20
0.628847
30
0.0
11
0.192061
21
0.629190
31
0.0
0
LINE
8
FRONT
10
0.192061
20
0.629190
30
0.0
11
0.192036
21
0.629533
31
0.0
0
LINE
8
FRONT
10
0.192036
20
0.629533
30
0.0
11
0.192009
21
0.629876
31
0.0
0
LINE
8
FRONT
10
0.192009
20
0.629876
30
0.0
11
0.191982
21
0.630220
31
0.0
0
LINE
8
FRONT
10
0.191982
20
0.630220
30
0.0
11
0.191953
21
0.630562
31
0.0
0
LINE
8
FRONT
10
0.191953
20
0.630562
30
0.0
11
0.191923
21
0.630905
31
0.0
0
LINE
8
FRONT
10
0.191923
20
0.630905
30
0.0
11
0.191891
21
0.631248
31
0.0
0
LINE
8
FRONT
10
0.191891
20
0.631248
30
0.0
11
0.191859
21
0.631591
31
0.0
0
LINE
8
FRONT
10
0.191859
20
0.631591
30
0.0
11
0.191825
21
0.631933
31
0.0
0
LINE
8
FRONT
10
0.191825
20
0.631933
30
0.0
11
0.191790
21
0.632276
31
0.0
0
LINE
8
FRONT
10
0.191790
20
0.632276
30
0.0
11
0.191753
21
0.632618
31
0.0
0
LINE
8
FRONT
10
0.191753
20
0.632618
30
0.0
11
0.191716
21
0.632960
31
0.0
0
LINE
8
FRONT
10
0.191716
20
0.632960
30
0.0
11
0.191677
21
0.633302
31
0.0
0
LINE
8
FRONT
10
0.191677
20
0.633302
30
0.0
11
0.191637
21
0.633644
31
0.0
0
LINE
8
FRONT
10
0.191637
20
0.633644
30
0.0
11
0.191596
21
0.633985
31
0.0
0
LINE
8
FRONT
10
0.191596
20
0.633985
30
0.0
11
0.191554
21
0.634327
31
0.0
0
LINE
8
FRONT
10
0.000754
20
0.634327
30
0.0
11
0.000730
21
0.634137
31
0.0
0
LINE
8
FRONT
10
0.000730
20
0.634137
30
0.0
11
0.000707
21
0.633947
31
0.0
0
LINE
8
FRONT
10
0.000707
20
0.633947
30
0.0
11
0.000684
21
0.633757
31
0.0
0
LINE
8
FRONT
10
0.000684
20
0.633757
30
0.0
11
0.000662
21
0.633567
31
0.0
0
LINE
8
FRONT
10
0.000662
20
0.633567
30
0.0
11
0.000639
21
0.633377
31
0.0
0
LINE
8
FRONT
10
0.000639
20
0.633377
30
0.0
11
0.000617
21
0.633187
31
0.0
0
LINE
8
FRONT
10
0.000617
20
0.633187
30
0.0
11
0.000596
21
0.632997
31
0.0
0
LINE
8
FRONT
10
0.000596
20
0.632997
30
0.0
11
0.000575
21
0.632807
31
0.0
0
LINE
8
FRONT
10
0.000575
20
0.632807
30
0.0
11
0.000554
21
0.632617
31
0.0
0
LINE
8
FRONT
10
0.000554
20
0.632617
30
0.0
11
0.000534
21
0.632427
31
0.0
0
LINE
8
FRONT
10
0.000534
20
0.632427
30
0.0
11
0.000514
21
0.632237
31
0.0
0
LINE
8
FRONT
10
0.000514
20
0.632237
30
0.0
11
0.000494
21
0.632046
31
0.0
0
LINE
8
FRONT
10
0.000494
20
0.632046
30
0.0
11
0.000475
21
0.631856
31
0.0
0
LINE
8
FRONT
10
0.000475
20
0.631856
30
0.0
11
0.000456
21
0.631666
31
0.0
0
LINE
8
FRONT
10
0.000456
20
0.631666
30
0.0
11
0.000438
21
0.631475
31
0.0
0
LINE
8
FRONT
10
0.000438
20
0.631475
30
0.0
11
0.000420
21
0.631285
31
0.0
0
LINE
8
FRONT
10
0.000420
20
0.631285
30
0.0
11
0.000402
21
0.631094
31
0.0
0
LINE
8
FRONT
10
0.000402
20
0.631094
30
0.0
11
0.000385
21
0.630904
31
0.0
0
LINE
8
FRONT
10
0.000385
20
0.630904
30
0.0
11
0.000368
21
0.630713
31
0.0
0
LINE
8
FRONT
10
0.000368
20
0.630713
30
0.0
11
0.000352
21
0.630523
31
0.0
0
LINE
8
FRONT
10
0.000352
20
0.630523
30
0.0
11
0.000335
21
0.630332
31
0.0
0
LINE
8
FRONT
10
0.000335
20
0.630332
30
0.0
11
0.000320
21
0.630142
31
0.0
0
LINE
8
FRONT
10
0.000320
20
0.630142
30
0.0
11
0.000304
21
0.629951
31
0.0
0
LINE
8
FRONT
10
0.000304
20
0.629951
30
0.0
11
0.000289
21
0.629760
31
0.0
0
LINE
8
FRONT
10
0.000289
20
0.629760
30
0.0
11
0.000275
21
0.629569
31
0.0
0
LINE
8
FRONT
10
0.000275
20
0.629569
30
0.0
11
0.000260
21
0.629379
31
0.0
0
LINE
8
FRONT
10
0.000260
20
0.629379
30
0.0
11
0.000246
21
0.629188
31
0.0
0
LINE
8
FRONT
10
0.000246
20
0.629188
30
0.0
11
0.000233
21
0.628997
31
0.0
0
LINE
8
FRONT
10
0.000233
20
0.628997
30
0.0
11
0.000220
21
0.628806
31
0.0
0
LINE
8
FRONT
10
0.000220
20
0.628806
30
0.0
11
0.000207
21
0.628615
31
0.0
0
LINE
8
FRONT
10
0.000207
20
0.628615
30
0.0
11
0.000195
21
0.628425
31
0.0
0
LINE
8
FRONT
10
0.000195
20
0.628425
30
0.0
11
0.000183
21
0.628234
31
0.0
0
LINE
8
FRONT
10
0.000183
20
0.628234
30
0.0
11
0.000171
21
0.628043
31
0.0
0
LINE
8
FRONT
10
0.000171
20
0.628043
30
0.0
11
0.000160
21
0.627852
31
0.0
0
LINE
8
FRONT
10
0.000160
20
0.627852
30
0.0
11
0.000149
21
0.627661
31
0.0
0
LINE
8
FRONT
10
0.000149
20
0.627661
30
0.0
11
0.000139
21
0.627470
31
0.0
0
LINE
8
FRONT
10
0.000139
20
0.627470
30
0.0
11
0.000129
21
0.627279
31
0.0
0
LINE
8
FRONT
10
0.000129
20
0.627279
30
0.0
11
0.000119
21
0.627088
31
0.0
0
LINE
8
FRONT
10
0.000119
20
0.627088
30
0.0
11
0.000110
21
0.626897
31
0.0
0
LINE
8
FRONT
10
0.000110
20
0.626897
30
0.0
11
0.000101
21
0.626706
31
0.0
0
LINE
8
FRONT
10
0.000101
20
0.626706
30
0.0
11
0.000092
21
0.626515
31
0.0
0
LINE
8
FRONT
10
0.000092
20
0.626515
30
0.0
11
0.000084
21
0.626323
31
0.0
0
LINE
8
FRONT
10
0.000084
20
0.626323
30
0.0
11
0.000076
21
0.626132
31
0.0
0
LINE
8
FRONT
10
0.000076
20
0.626132
30
0.0
11
0.000069
21
0.625941
31
0.0
0
LINE
8
FRONT
10
0.000069
20
0.625941
30
0.0
11
0.000062
21
0.625750
31
0.0
0
LINE
8
FRONT
10
0.000062
20
0.625750
30
0.0
11
0.000055
21
0.625559
31
0.0
0
LINE
8
FRONT
10
0.000055
20
0.625559
30
0.0
11
0.000049
21
0.625368
31
0.0
0
LINE
8
FRONT
10
0.000049
20
0.625368
30
0.0
11
0.000043
21
0.625176
31
0.0
0
LINE
8
FRONT
10
0.000043
20
0.625176
30
0.0
11
0.000037
21
0.624985
31
0.0
0
LINE
8
FRONT
10
0.000037
20
0.624985
30
0.0
11
0.000032
21
0.624794
31
0.0
0
LINE
8
FRONT
10
0.000032
20
0.624794
30
0.0
11
0.000027
21
0.624603
31
0.0
0
LINE
8
FRONT
10
0.000027
20
0.624603
30
0.0
11
0.000023
21
0.624412
31
0.0
0
LINE
8
FRONT
10
0.000023
20
0.624412
30
0.0
11
0.000019
21
0.624220
31
0.0
0
LINE
8
FRONT
10
0.000019
20
0.624220
30
0.0
11
0.000015
21
0.624029
31
0.0
0
LINE
8
FRONT
10
0.000015
20
0.624029
30
0.0
11
0.000012
21
0.623838
31
0.0
0
LINE
8
FRONT
10
0.000012
20
0.623838
30
0.0
11
0.000009
21
0.623647
31
0.0
0
LINE
8
FRONT
10
0.000009
20
0.623647
30
0.0
11
0.000007
21
0.623455
31
0.0
0
LINE
8
FRONT
10
0.000007
20
0.623455
30
0.0
11
0.000005
21
0.623264
31
0.0
0
LINE
8
FRONT
10
0.000005
20
0.623264
30
0.0
11
0.000003
21
0.623073
31
0.0
0
LINE
8
FRONT
10
0.000003
20
0.623073
30
0.0
11
0.000002
21
0.622882
31
0.0
0
LINE
8
FRONT
10
0.000002
20
0.622882
30
0.0
11
0.000001
21
0.622690
31
0.0
0
LINE
8
FRONT
10
0.000001
20
0.622690
30
0.0
11
0.000000
21
0.622499
31
0.0
0
LINE
8
FRONT
10
0.000000
20
0.622499
30
0.0
11
0.000000
21
0.622308
31
0.0
0
LINE
8
FRONT
10
0.076923
20
0.622308
30
0.0
11
0.077019
21
0.620393
31
0.0
0
LINE
8
FRONT
10
0.077019
20
0.620393
30
0.0
11
0.077304
21
0.618497
31
0.0
0
LINE
8
FRONT
10
0.077304
20
0.618497
30
0.0
11
0.077777
21
0.616639
31
0.0
0
LINE
8
FRONT
10
0.077777
20
0.616639
30
0.0
11
0.078433
21
0.614838
31
0.0
0
LINE
8
FRONT
10
0.078433
20
0.614838
30
0.0
11
0.079265
21
0.613111
31
0.0
0
LINE
8
FRONT
10
0.079265
20
0.613111
30
0.0
11
0.080265
21
0.611475
31
0.0
0
LINE
8
FRONT
10
0.080265
20
0.611475
30
0.0
11
0.081422
21
0.609946
31
0.0
0
LINE
8
FRONT
10
0.081422
20
0.609946
30
0.0
11
0.082726
21
0.608541
31
0.0
0
LINE
8
FRONT
10
0.082726
20
0.608541
30
0.0
11
0.084164
21
0.607272
31
0.0
0
LINE
8
FRONT
10
0.084164
20
0.607272
30
0.0
11
0.085720
21
0.606153
31
0.0
0
LINE
8
FRONT
10
0.085720
20
0.606153
30
0.0
11
0.087381
21
0.605195
31
0.0
0
LINE
8
FRONT
10
0.087381
20
0.605195
30
0.0
11
0.089128
21
0.604406
31
0.0
0
LINE
8
FRONT
10
0.089128
20
0.604406
30
0.0
11
0.090945
21
0.603796
31
0.0
0
LINE
8
FRONT
10
0.090945
20
0.603796
30
0.0
11
0.092814
21
0.603369
31
0.0
0
LINE
8
FRONT
10
0.092814
20
0.603369
30
0.0
11
0.094717
21
0.603131
31
0.0
0
LINE
8
FRONT
10
0.094717
20
0.603131
30
0.0
11
0.096633
21
0.603083
31
0.0
0
LINE
8
FRONT
10
0.096633
20
0.603083
30
0.0
11
0.098545
21
0.603226
31
0.0
0
LINE
8
FRONT
10
0.098545
20
0.603226
30
0.0
11
0.100433
21
0.603559
31
0.0
0
LINE
8
FRONT
10
0.100433
20
0.603559
30
0.0
11
0.102279
21
0.604078
31
0.0
0
LINE
8
FRONT
10
0.102279
20
0.604078
30
0.0
11
0.104063
21
0.604779
31
0.0
0
LINE
8
FRONT
10
0.104063
20
0.604779
30
0.0
11
0.105769
21
0.605653
31
0.0
0
LINE
8
FRONT
10
0.105769
20
0.605653
30
0.0
11
0.107380
21
0.606693
31
0.0
0
LINE
8
FRONT
10
0.107380
20
0.606693
30
0.0
11
0.108879
21
0.607889
31
0.0
0
LINE
8
FRONT
10
0.108879
20
0.607889
30
0.0
11
0.110251
21
0.609227
31
0.0
0
LINE
8
FRONT
10
0.110251
20
0.609227
30
0.0
11
0.111483
21
0.610696
31
0.0
0
LINE
8
FRONT
10
0.111483
20
0.610696
30
0.0
11
0.112563
21
0.612280
31
0.0
0
LINE
8
FRONT
10
0.112563
20
0.612280
30
0.0
11
0.113480
21
0.613964
31
0.0
0
LINE
8
FRONT
10
0.113480
20
0.613964
30
0.0
11
0.114225
21
0.615730
31
0.0
0
LINE
8
FRONT
10
0.114225
20
0.615730
30
0.0
11
0.114790
21
0.617562
31
0.0
0
LINE
8
FRONT
10
0.114790
20
0.617562
30
0.0
11
0.115170
21
0.619441
31
0.0
0
LINE
8
FRONT
10
0.115170
20
0.619441
30
0.0
11
0.115361
21
0.621349
31
0.0
0
LINE
8
FRONT
10
0.115361
20
0.621349
30
0.0
11
0.115361
21
0.623266
31
0.0
0
LINE
8
FRONT
10
0.115361
20
0.623266
30
0.0
11
0.115170
21
0.625174
31
0.0
0
LINE
8
FRONT
10
0.115170
20
0.625174
30
0.0
11
0.114790
21
0.627053
31
0.0
0
LINE
8
FRONT
10
0.114790
20
0.627053
30
0.0
11
0.114225
21
0.628885
31
0.0
0
LINE
8
FRONT
10
0.114225
20
0.628885
30
0.0
11
0.113480
21
0.630652
31
0.0
0
LINE
8
FRONT
10
0.113480
20
0.630652
30
0.0
11
0.112563
21
0.632335
31
0.0
0
LINE
8
FRONT
10
0.112563
20
0.632335
30
0.0
11
0.111483
21
0.633919
31
0.0
0
LINE
8
FRONT
10
0.111483
20
0.633919
30
0.0
11
0.110251
21
0.635388
31
0.0
0
LINE
8
FRONT
10
0.110251
20
0.635388
30
0.0
11
0.108879
21
0.636727
31
0.0
0
LINE
8
FRONT
10
0.108879
20
0.636727
30
0.0
11
0.107380
21
0.637922
31
0.0
0
LINE
8
FRONT
10
0.107380
20
0.637922
30
0.0
11
0.105769
21
0.638962
31
0.0
0
LINE
8
FRONT
10
0.105769
20
0.638962
30
0.0
11
0.104063
21
0.639837
31
0.0
0
LINE
8
FRONT
10
0.104063
20
0.639837
30
0.0
11
0.102279
21
0.640537
31
0.0
0
LINE
8
FRONT
10
0.102279
20
0.640537
30
0.0
11
0.100433
21
0.641056
31
0.0
0
LINE
8
FRONT
10
0.100433
20
0.641056
30
0.0
11
0.098545
21
0.641389
31
0.0
0
LINE
8
FRONT
10
0.098545
20
0.641389
30
0.0
11
0.096633
21
0.641532
31
0.0
0
LINE
8
FRONT
10
0.096633
20
0.641532
30
0.0
11
0.094717
21
0.641485
31
0.0
0
LINE
8
FRONT
10
0.094717
20
0.641485
30
0.0
11
0.092814
21
0.641246
31
0.0
0
LINE
8
FRONT
10
0.092814
20
0.641246
30
0.0
11
0.090945
21
0.640820
31
0.0
0
LINE
8
FRONT
10
0.090945
20
0.640820
30
0.0
11
0.089128
21
0.640209
31
0.0
0
LINE
8
FRONT
10
0.089128
20
0.640209
30
0.0
11
0.087381
21
0.639421
31
0.0
0
LINE
8
FRONT
10
0.087381
20
0.639421
30
0.0
11
0.085720
21
0.638462
31
0.0
0
LINE
8
FRONT
10
0.085720
20
0.638462
30
0.0
11
0.084164
21
0.637343
31
0.0
0
LINE
8
FRONT
10
0.084164
20
0.637343
30
0.0
11
0.082726
21
0.636074
31
0.0
0
LINE
8
FRONT
10
0.082726
20
0.636074
30
0.0
11
0.081422
21
0.634669
31
0.0
0
LINE
8
FRONT
10
0.081422
20
0.634669
30
0.0
11
0.080265
21
0.633141
31
0.0
0
LINE
8
FRONT
10
0.080265
20
0.633141
30
0.0
11
0.079265
21
0.631505
31
0.0
0
LINE
8
FRONT
10
0.079265
20
0.631505
30
0.0
11
0.078433
21
0.629778
31
0.0
0
LINE
8
FRONT
10
0.078433
20
0.629778
30
0.0
11
0.077777
21
0.627976
31
0.0
0
LINE
8
FRONT
10
0.077777
20
0.627976
30
0.0
11
0.077304
21
0.626118
31
0.0
0
LINE
8
FRONT
10
0.077304
20
0.626118
30
0.0
11
0.077019
21
0.624222
31
0.0
0
LINE
8
FRONT
10
0.077019
20
0.624222
30
0.0
11
0.076923
21
0.622308
31
0.0
0
LINE
8
FRONT
10
0.191554
20
0.634327
30
0.0
11
0.153394
21
0.937212
31
0.0
0
LINE
8
FRONT
10
0.038914
20
0.937212
30
0.0
11
0.000754
21
0.634327
31
0.0
0
LINE
8
FRONT
10
0.076923
20
0.843538
30
0.0
11
0.076971
21
0.842581
31
0.0
0
LINE
8
FRONT
10
0.076971
20
0.842581
30
0.0
11
0.077114
21
0.841633
31
0.0
0
LINE
8
FRONT
10
0.077114
20
0.841633
30
0.0
11
0.077350
21
0.840704
31
0.0
0
LINE
8
FRONT
10
0.077350
20
0.840704
30
0.0
11
0.077678
21
0.839804
31
0.0
0
LINE
8
FRONT
10
0.077678
20
0.839804
30
0.0
11
0.078094
21
0.838940
31
0.0
0
LINE
8
FRONT
10
0.078094
20
0.838940
30
0.0
11
0.078594
21
0.838122
31
0.0
0
LINE
8
FRONT
10
0.078594
20
0.838122
30
0.0
11
0.079173
21
0.837358
31
0.0
0
LINE
8
FRONT
10
0.079173
20
0.837358
30
0.0
11
0.079825
21
0.836655
31
0.0
0
LINE
8
FRONT
10
0.079825
20
0.836655
30
0.0
11
0.080543
21
0.836021
31
0.0
0
LINE
8
FRONT
10
0.080543
20
0.836021
30
0.0
11
0.081322
21
0.835461
31
0.0
0
LINE
8
FRONT
10
0.081322
20
0.835461
30
0.0
11
0.082152
21
0.834982
31
0.0
0
LINE
8
FRONT
10
0.082152
20
0.834982
30
0.0
11
0.083026
21
0.834588
31
0.0
0
LINE
8
FRONT
10
0.083026
20
0.834588
30
0.0
11
0.083934
21
0.834282
31
0.0
0
LINE
8
FRONT
10
0.083934
20
0.834282
30
0.0
11
0.084869
21
0.834069
31
0.0
0
LINE
8
FRONT
10
0.084869
20
0.834069
30
0.0
11
0.085820
21
0.833950
31
0.0
0
LINE
8
FRONT
10
0.085820
20
0.833950
30
0.0
11
0.086778
21
0.833926
31
0.0
0
LINE
8
FRONT
10
0.086778
20
0.833926
30
0.0
11
0.087734
21
0.833998
31
0.0
0
LINE
8
FRONT
10
0.087734
20
0.833998
30
0.0
11
0.088678
21
0.834164
31
0.0
0
LINE
8
FRONT
10
0.088678
20
0.834164
30
0.0
11
0.089601
21
0.834424
31
0.0
0
LINE
8
FRONT
10
0.089601
20
0.834424
30
0.0
11
0.090493
21
0.834774
31
0.0
0
LINE
8
FRONT
10
0.090493
20
0.834774
30
0.0
11
0.091346
21
0.835211
31
0.0
0
LINE
8
FRONT
10
0.091346
20
0.835211
30
0.0
11
0.092151
21
0.835731
31
0.0
0
LINE
8
FRONT
10
0.092151
20
0.835731
30
0.0
11
0.092901
21
0.836329
31
0.0
0
LINE
8
FRONT
10
0.092901
20
0.836329
30
0.0
11
0.093587
21
0.836998
31
0.0
0
LINE
8
FRONT
10
0.093587
20
0.836998
30
0.0
11
0.094203
21
0.837733
31
0.0
0
LINE
8
FRONT
10
0.094203
20
0.837733
30
0.0
11
0.094743
21
0.838525
31
0.0
0
LINE
8
FRONT
10
0.094743
20
0.838525
30
0.0
11
0.095202
21
0.839367
31
0.0
0
LINE
8
FRONT
10
0.095202
20
0.839367
30
0.0
11
0.095574
21
0.840250
31
0.0
0
LINE
8
FRONT
10
0.095574
20
0.840250
30
0.0
11
0.095857
21
0.841166
31
0.0
0
LINE
8
FRONT
10
0.095857
20
0.841166
30
0.0
11
0.096046
21
0.842105
31
0.0
0
LINE
8
FRONT
10
0.096046
20
0.842105
30
0.0
11
0.096142
21
0.843059
31
0.0
0
LINE
8
FRONT
10
0.096142
20
0.843059
30
0.0
11
0.096142
21
0.844018
31
0.0
0
LINE
8
FRONT
10
0.096142
20
0.844018
30
0.0
11
0.096046
21
0.844972
31
0.0
0
LINE
8
FRONT
10
0.096046
20
0.844972
30
0.0
11
0.095857
21
0.845911
31
0.0
0
LINE
8
FRONT
10
0.095857
20
0.845911
30
0.0
11
0.095574
21
0.846827
31
0.0
0
LINE
8
FRONT
10
0.095574
20
0.846827
30
0.0
11
0.095202
21
0.847710
31
0.0
0
LINE
8
FRONT
10
0.095202
20
0.847710
30
0.0
11
0.094743
21
0.848552
31
0.0
0
LINE
8
FRONT
10
0.094743
20
0.848552
30
0.0
11
0.094203
21
0.849344
31
0.0
0
LINE
8
FRONT
10
0.094203
20
0.849344
30
0.0
11
0.093587
21
0.850079
31
0.0
0
LINE
8
FRONT
10
0.093587
20
0.850079
30
0.0
11
0.092901
21
0.850748
31
0.0
0
LINE
8
FRONT
10
0.092901
20
0.850748
30
0.0
11
0.092151
21
0.851346
31
0.0
0
LINE
8
FRONT
10
0.092151
20
0.851346
30
0.0
11
0.091346
21
0.851866
31
0.0
0
LINE
8
FRONT
10
0.091346
20
0.851866
30
0.0
11
0.090493
21
0.852303
31
0.0
0
LINE
8
FRONT
10
0.090493
20
0.852303
30
0.0
11
0.089601
21
0.852653
31
0.0
0
LINE
8
FRONT
10
0.089601
20
0.852653
30
0.0
11
0.088678
21
0.852913
31
0.0
0
LINE
8
FRONT
10
0.088678
20
0.852913
30
0.0
11
0.087734
21
0.853079
31
0.0
0
LINE
8
FRONT
10
0.087734
20
0.853079
30
0.0
11
0.086778
21
0.853151
31
0.0
0
LINE
8
FRONT
10
0.086778
20
0.853151
30
0.0
11
0.085820
21
0.853127
31
0.0
0
LINE
8
FRONT
10
0.085820
20
0.853127
30
0.0
11
0.084869
21
0.853008
31
0.0
0
LINE
8
FRONT
10
0.084869
20
0.853008
30
0.0
11
0.083934
21
0.852794
31
0.0
0
LINE
8
FRONT
10
0.083934
20
0.852794
30
0.0
11
0.083026
21
0.852489
31
0.0
0
LINE
8
FRONT
10
0.083026
20
0.852489
30
0.0
11
0.082152
21
0.852095
31
0.0
0
LINE
8
FRONT
10
0.082152
20
0.852095
30
0.0
11
0.081322
21
0.851616
31
0.0
0
LINE
8
FRONT
10
0.081322
20
0.851616
30
0.0
11
0.080543
21
0.851056
31
0.0
0
LINE
8
FRONT
10
0.080543
20
0.851056
30
0.0
11
0.079825
21
0.850422
31
0.0
0
LINE
8
FRONT
10
0.079825
20
0.850422
30
0.0
11
0.079173
21
0.849719
31
0.0
0
LINE
8
FRONT
10
0.079173
20
0.849719
30
0.0
11
0.078594
21
0.848955
31
0.0
0
LINE
8
FRONT
10
0.078594
20
0.848955
30
0.0
11
0.078094
21
0.848137
31
0.0
0
LINE
8
FRONT
10
0.078094
20
0.848137
30
0.0
11
0.077678
21
0.847273
31
0.0
0
LINE
8
FRONT
10
0.077678
20
0.847273
30
0.0
11
0.077350
21
0.846373
31
0.0
0
LINE
8
FRONT
10
0.077350
20
0.846373
30
0.0
11
0.077114
21
0.845444
31
0.0
0
LINE
8
FRONT
10
0.077114
20
0.845444
30
0.0
11
0.076971
21
0.844496
31
0.0
0
LINE
8
FRONT
10
0.076971
20
0.844496
30
0.0
11
0.076923
21
0.843538
31
0.0
0
LINE
8
FRONT
10
0.153394
20
0.937212
30
0.0
11
0.153003
21
0.939830
31
0.0
0
LINE
8
FRONT
10
0.153003
20
0.939830
30
0.0
11
0.152492
21
0.942427
31
0.0
0
LINE
8
FRONT
10
0.152492
20
0.942427
30
0.0
11
0.151862
21
0.944998
31
0.0
0
LINE
8
FRONT
10
0.151862
20
0.944998
30
0.0
11
0.151116
21
0.947538
31
0.0
0
LINE
8
FRONT
10
0.151116
20
0.947538
30
0.0
11
0.150253
21
0.950041
31
0.0
0
LINE
8
FRONT
10
0.150253
20
0.950041
30
0.0
11
0.149277
21
0.952501
31
0.0
0
LINE
8
FRONT
10
0.149277
20
0.952501
30
0.0
11
0.148189
21
0.954914
31
0.0
0
LINE
8
FRONT
10
0.148189
20
0.954914
30
0.0
11
0.146991
21
0.957275
31
0.0
0
LINE
8
FRONT
10
0.146991
20
0.957275
30
0.0
11
0.145687
21
0.959578
31
0.0
0
LINE
8
FRONT
10
0.145687
20
0.959578
30
0.0
11
0.144278
21
0.961820
31
0.0
0
LINE
8
FRONT
10
0.144278
20
0.961820
30
0.0
11
0.142768
21
0.963994
31
0.0
0
LINE
8
FRONT
10
0.142768
20
0.963994
30
0.0
11
0.141159
21
0.966096
31
0.0
0
LINE
8
FRONT
10
0.141159
20
0.966096
30
0.0
11
0.139456
21
0.968122
31
0.0
0
LINE
8
FRONT
10
0.139456
20
0.968122
30
0.0
11
0.137662
21
0.970069
31
0.0
0
LINE
8
FRONT
10
0.137662
20
0.970069
30
0.0
11
0.135780
21
0.971931
31
0.0
0
LINE
8
FRONT
10
0.135780
20
0.971931
30
0.0
11
0.133815
21
0.973704
31
0.0
0
LINE
8
FRONT
10
0.133815
20
0.973704
30
0.0
11
0.131770
21
0.975386
31
0.0
0
LINE
8
FRONT
10
0.131770
20
0.975386
30
0.0
11
0.129651
21
0.976972
31
0.0
0
LINE
8
FRONT
10
0.129651
20
0.976972
30
0.0
11
0.127461
21
0.978459
31
0.0
0
LINE
8
FRONT
10
0.127461
20
0.978459
30
0.0
11
0.125205
21
0.979844
31
0.0
0
LINE
8
FRONT
10
0.125205
20
0.979844
30
0.0
11
0.122888
21
0.981124
31
0.0
0
LINE
8
FRONT
10
0.122888
20
0.981124
30
0.0
11
0.120515
21
0.982297
31
0.0
0
LINE
8
FRONT
10
0.120515
20
0.982297
30
0.0
11
0.118090
21
0.983359
31
0.0
0
LINE
8
FRONT
10
0.118090
20
0.983359
30
0.0
11
0.115620
21
0.984309
31
0.0
0
LINE
8
FRONT
10
0.115620
20
0.984309
30
0.0
11
0.113108
21
0.985145
31
0.0
0
LINE
8
FRONT
10
0.113108
20
0.985145
30
0.0
11
0.110560
21
0.985865
31
0.0
0
LINE
8
FRONT
10
0.110560
20
0.985865
30
0.0
11
0.107983
21
0.986467
31
0.0
0
LINE
8
FRONT
10
0.107983
20
0.986467
30
0.0
11
0.105380
21
0.986950
31
0.0
0
LINE
8
FRONT
10
0.105380
20
0.986950
30
0.0
11
0.102758
21
0.987313
31
0.0
0
LINE
8
FRONT
10
0.102758
20
0.987313
30
0.0
11
0.100122
21
0.987556
31
0.0
0
LINE
8
FRONT
10
0.100122
20
0.987556
30
0.0
11
0.097477
21
0.987677
31
0.0
0
LINE
8
FRONT
10
0.097477
20
0.987677
30
0.0
11
0.094830
21
0.987677
31
0.0
0
LINE
8
FRONT
10
0.094830
20
0.987677
30
0.0
11
0.092186
21
0.987556
31
0.0
0
LINE
8
FRONT
10
0.092186
20
0.987556
30
0.0
11
0.089550
21
0.987313
31
0.0
0
LINE
8
FRONT
10
0.089550
20
0.987313
30
0.0
11
0.086928
21
0.986950
31
0.0
0
LINE
8
FRONT
10
0.086928
20
0.986950
30
0.0
11
0.084325
21
0.986467
31
0.0
0
LINE
8
FRONT
10
0.084325
20
0.986467
30
0.0
11
0.081747
21
0.985865
31
0.0
0
LINE
8
FRONT
10
0.081747
20
0.985865
30
0.0
11
0.079200
21
0.985145
31
0.0
0
LINE
8
FRONT
10
0.079200
20
0.985145
30
0.0
11
0.076688
21
0.984309
31
0.0
0
LINE
8
FRONT
10
0.076688
20
0.984309
30
0.0
11
0.074217
21
0.983359
31
0.0
0
LINE
8
FRONT
10
0.074217
20
0.983359
30
0.0
11
0.071793
21
0.982297
31
0.0
0
LINE
8
FRONT
10
0.071793
20
0.982297
30
0.0
11
0.069420
21
0.981124
31
0.0
0
LINE
8
FRONT
10
0.069420
20
0.981124
30
0.0
11
0.067103
21
0.979844
31
0.0
0
LINE
8
FRONT
10
0.067103
20
0.979844
30
0.0
11
0.064847
21
0.978459
31
0.0
0
LINE
8
FRONT
10
0.064847
20
0.978459
30
0.0
11
0.062657
21
0.976972
31
0.0
0
LINE
8
FRONT
10
0.062657
20
0.976972
30
0.0
11
0.060537
21
0.975386
31
0.0
0
LINE
8
FRONT
10
0.060537
20
0.975386
30
0.0
11
0.058493
21
0.973704
31
0.0
0
LINE
8
FRONT
10
0.058493
20
0.973704
30
0.0
11
0.056528
21
0.971931
31
0.0
0
LINE
8
FRONT
10
0.056528
20
0.971931
30
0.0
11
0.054646
21
0.970069
31
0.0
0
LINE
8
FRONT
10
0.054646
20
0.970069
30
0.0
11
0.052852
21
0.968122
31
0.0
0
LINE
8
FRONT
10
0.052852
20
0.968122
30
0.0
11
0.051149
21
0.966096
31
0.0
0
LINE
8
FRONT
10
0.051149
20
0.966096
30
0.0
11
0.049540
21
0.963994
31
0.0
0
LINE
8
FRONT
10
0.049540
20
0.963994
30
0.0
11
0.048030
21
0.961820
31
0.0
0
LINE
8
FRONT
10
0.048030
20
0.961820
30
0.0
11
0.046621
21
0.959578
31
0.0
0
LINE
8
FRONT
10
0.046621
20
0.959578
30
0.0
11
0.045316
21
0.957275
31
0.0
0
LINE
8
FRONT
10
0.045316
20
0.957275
30
0.0
11
0.044119
21
0.954914
31
0.0
0
LINE
8
FRONT
10
0.044119
20
0.954914
30
0.0
11
0.043030
21
0.952501
31
0.0
0
LINE
8
FRONT
10
0.043030
20
0.952501
30
0.0
11
0.042054
21
0.950041
31
0.0
0
LINE
8
FRONT
10
0.042054
20
0.950041
30
0.0
11
0.041192
21
0.947538
31
0.0
0
LINE
8
FRONT
10
0.041192
20
0.947538
30
0.0
11
0.040445
21
0.944998
31
0.0
0
LINE
8
FRONT
10
0.040445
20
0.944998
30
0.0
11
0.039816
21
0.942427
31
0.0
0
LINE
8
FRONT
10
0.039816
20
0.942427
30
0.0
11
0.039305
21
0.939830
31
0.0
0
LINE
8
FRONT
10
0.039305
20
0.939830
30
0.0
11
0.038914
21
0.937212
31
0.0
0
LINE
8
FRONT
10
0.076923
20
0.930000
30
0.0
11
0.077019
21
0.928085
31
0.0
0
LINE
8
FRONT
10
0.077019
20
0.928085
30
0.0
11
0.077304
21
0.926189
31
0.0
0
LINE
8
FRONT
10
0.077304
20
0.926189
30
0.0
11
0.077777
21
0.924332
31
0.0
0
LINE
8
FRONT
10
0.077777
20
0.924332
30
0.0
11
0.078433
21
0.922530
31
0.0
0
LINE
8
FRONT
10
0.078433
20
0.922530
30
0.0
11
0.079265
21
0.920803
31
0.0
0
LINE
8
FRONT
10
0.079265
20
0.920803
30
0.0
11
0.080265
21
0.919167
31
0.0
0
LINE
8
FRONT
10
0.080265
20
0.919167
30
0.0
11
0.081422
21
0.917639
31
0.0
0
LINE
8
FRONT
10
0.081422
20
0.917639
30
0.0
11
0.082726
21
0.916233
31
0.0
0
LINE
8
FRONT
10
0.082726
20
0.916233
30
0.0
11
0.084164
21
0.914965
31
0.0
0
LINE
8
FRONT
10
0.084164
20
0.914965
30
0.0
11
0.085720
21
0.913846
31
0.0
0
LINE
8
FRONT
10
0.085720
20
0.913846
30
0.0
11
0.087381
21
0.912887
31
0.0
0
LINE
8
FRONT
10
0.087381
20
0.912887
30
0.0
11
0.089128
21
0.912099
31
0.0
0
LINE
8
FRONT
10
0.089128
20
0.912099
30
0.0
11
0.090945
21
0.911488
31
0.0
0
LINE
8
FRONT
10
0.090945
20
0.911488
30
0.0
11
0.092814
21
0.911061
31
0.0
0
LINE
8
FRONT
10
0.092814
20
0.911061
30
0.0
11
0.094717
21
0.910823
31
0.0
0
LINE
8
FRONT
10
0.094717
20
0.910823
30
0.0
11
0.096633
21
0.910775
31
0.0
0
LINE
8
FRONT
10
0.096633
20
0.910775
30
0.0
11
0.098545
21
0.910918
31
0.0
0
LINE
8
FRONT
10
0.098545
20
0.910918
30
0.0
11
0.100433
21
0.911251
31
0.0
0
LINE
8
FRONT
10
0.100433
20
0.911251
30
0.0
11
0.102279
21
0.911771
31
0.0
0
LINE
8
FRONT
10
0.102279
20
0.911771
30
0.0
11
0.104063
21
0.912471
31
0.0
0
LINE
8
FRONT
10
0.104063
20
0.912471
30
0.0
11
0.105769
21
0.913346
31
0.0
0
LINE
8
FRONT
10
0.105769
20
0.913346
30
0.0
11
0.107380
21
0.914386
31
0.0
0
LINE
8
FRONT
10
0.107380
20
0.914386
30
0.0
11
0.108879
21
0.915581
31
0.0
0
LINE
8
FRONT
10
0.108879
20
0.915581
30
0.0
11
0.110251
21
0.916920
31
0.0
0
LINE
8
FRONT
10
0.110251
20
0.916920
30
0.0
11
0.111483
21
0.918388
31
0.0
0
LINE
8
FRONT
10
0.111483
20
0.918388
30
0.0
11
0.112563
21
0.919972
31
0.0
0
LINE
8
FRONT
10
0.112563
20
0.919972
30
0.0
11
0.113480
21
0.921656
31
0.0
0
LINE
8
FRONT
10
0.113480
20
0.921656
30
0.0
11
0.114225
21
0.923423
31
0.0
0
LINE
8
FRONT
10
0.114225
20
0.923423
30
0.0
11
0.114790
21
0.925255
31
0.0
0
LINE
8
FRONT
10
0.114790
20
0.925255
30
0.0
11
0.115170
21
0.927134
31
0.0
0
LINE
8
FRONT
10
0.115170
20
0.927134
30
0.0
11
0.115361
21
0.929041
31
0.0
0
LINE
8
FRONT
10
0.115361
20
0.929041
30
0.0
11
0.115361
21
0.930959
31
0.0
0
LINE
8
FRONT
10
0.115361
20
0.930959
30
0.0
11
0.115170
21
0.932866
31
0.0
0
LINE
8
FRONT
10
0.115170
20
0.932866
30
0.0
11
0.114790
21
0.934745
31
0.0
0
LINE
8
FRONT
10
0.114790
20
0.934745
30
0.0
11
0.114225
21
0.936577
31
0.0
0
LINE
8
FRONT
10
0.114225
20
0.936577
30
0.0
11
0.113480
21
0.938344
31
0.0
0
LINE
8
FRONT
10
0.113480
20
0.938344
30
0.0
11
0.112563
21
0.940028
31
0.0
0
LINE
8
FRONT
10
0.112563
20
0.940028
30
0.0
11
0.111483
21
0.941612
31
0.0
0
LINE
8
FRONT
10
0.111483
20
0.941612
30
0.0
11
0.110251
21
0.943080
31
0.0
0
LINE
8
FRONT
10
0.110251
20
0.943080
30
0.0
11
0.108879
21
0.944419
31
0.0
0
LINE
8
FRONT
10
0.108879
20
0.944419
30
0.0
11
0.107380
21
0.945614
31
0.0
0
LINE
8
FRONT
10
0.107380
20
0.945614
30
0.0
11
0.105769
21
0.946654
31
0.0
0
LINE
8
FRONT
10
0.105769
20
0.946654
30
0.0
11
0.104063
21
0.947529
31
0.0
0
LINE
8
FRONT
10
0.104063
20
0.947529
30
0.0
11
0.102279
21
0.948229
31
0.0
0
LINE
8
FRONT
10
0.102279
20
0.948229
30
0.0
11
0.100433
21
0.948749
31
0.0
0
LINE
8
FRONT
10
0.100433
20
0.948749
30
0.0
11
0.098545
21
0.949082
31
0.0
0
LINE
8
FRONT
10
0.098545
20
0.949082
30
0.0
11
0.096633
21
0.949225
31
0.0
0
LINE
8
FRONT
10
0.096633
20
0.949225
30
0.0
11
0.094717
21
0.949177
31
0.0
0
LINE
8
FRONT
10
0.094717
20
0.949177
30
0.0
11
0.092814
21
0.948939
31
0.0
0
LINE
8
FRONT
10
0.092814
20
0.948939
30
0.0
11
0.090945
21
0.948512
31
0.0
0
LINE
8
FRONT
10
0.090945
20
0.948512
30
0.0
11
0.089128
21
0.947901
31
0.0
0
LINE
8
FRONT
10
0.089128
20
0.947901
30
0.0
11
0.087381
21
0.947113
31
0.0
0
LINE
8
FRONT
10
0.087381
20
0.947113
30
0.0
11
0.085720
21
0.946154
31
0.0
0
LINE
8
FRONT
10
0.085720
20
0.946154
30
0.0
11
0.084164
21
0.945035
31
0.0
0
LINE
8
FRONT
10
0.084164
20
0.945035
30
0.0
11
0.082726
21
0.943767
31
0.0
0
LINE
8
FRONT
10
0.082726
20
0.943767
30
0.0
11
0.081422
21
0.942361
31
0.0
0
LINE
8
FRONT
10
0.081422
20
0.942361
30
0.0
11
0.080265
21
0.940833
31
0.0
0
LINE
8
FRONT
10
0.080265
20
0.940833
30
0.0
11
0.079265
21
0.939197
31
0.0
0
LINE
8
FRONT
10
0.079265
20
0.939197
30
0.0
11
0.078433
21
0.937470
31
0.0
0
LINE
8
FRONT
10
0.078433
20
0.937470
30
0.0
11
0.077777
21
0.935668
31
0.0
0
LINE
8
FRONT
10
0.077777
20
0.935668
30
0.0
11
0.077304
21
0.933811
31
0.0
0
LINE
8
FRONT
10
0.077304
20
0.933811
30
0.0
11
0.077019
21
0.931915
31
0.0
0
LINE
8
FRONT
10
0.077019
20
0.931915
30
0.0
11
0.076923
21
0.930000
31
0.0
0
LINE
8
LEFT
10
0.574986
20
0.180000
30
0.0
11
0.593447
21
0.180000
31
0.0
0
LINE
8
LEFT
10
0.593447
20
0.231923
30
0.0
11
0.593447
21
0.180000
31
0.0
0
LINE
8
LEFT
10
0.574986
20
0.231923
30
0.0
11
0.574986
21
0.180000
31
0.0
0
LINE
8
LEFT
10
0.593447
20
0.612692
30
0.0
11
0.593447
21
0.231923
31
0.0
0
LINE
8
LEFT
10
0.574986
20
0.612692
30
0.0
11
0.574986
21
0.231923
31
0.0
0
LINE
8
LEFT
10
0.593447
20
0.622308
30
0.0
11
0.593447
21
0.612692
31
0.0
0
LINE
8
LEFT
10
0.574986
20
0.622308
30
0.0
11
0.574986
21
0.612692
31
0.0
0
LINE
8
LEFT
10
0.574986
20
0.634327
30
0.0
11
0.574986
21
0.622308
31
0.0
0
LINE
8
LEFT
10
0.593447
20
0.634327
30
0.0
11
0.593447
21
0.622308
31
0.0
0
LINE
8
LEFT
10
0.574986
20
0.937212
30
0.0
11
0.574986
21
0.634327
31
0.0
0
LINE
8
LEFT
10
0.593447
20
0.937212
30
0.0
11
0.593447
21
0.634327
31
0.0
0
LINE
8
LEFT
10
0.574986
20
0.987692
30
0.0
11
0.574986
21
0.937212
31
0.0
0
LINE
8
LEFT
10
0.593447
20
0.987692
30
0.0
11
0.593447
21
0.937212
31
0.0
0
LINE
8
LEFT
10
0.574986
20
0.231923
30
0.0
11
0.593447
21
0.231923
31
0.0
0
LINE
8
LEFT
10
0.574986
20
0.612692
30
0.0
11
0.593447
21
0.612692
31
0.0
0
LINE
8
LEFT
10
0.574986
20
0.634327
30
0.0
11
0.593447
21
0.634327
31
0.0
0
LINE
8
LEFT
10
0.574986
20
0.937212
30
0.0
11
0.593447
21
0.937212
31
0.0
0
LINE
8
LEFT
10
0.593447
20
0.987692
30
0.0
11
0.574986
21
0.987692
31
0.0
0
LINE
8
LEFT_HID
6
HIDDEN
10
0.574986
20
0.180146
30
0.0
11
0.574986
21
0.180000
31
0.0
0
LINE
8
LEFT_HID
6
HIDDEN
10
0.574986
20
0.237692
30
0.0
11
0.574986
21
0.180146
31
0.0
0
LINE
8
LEFT_HID
6
HIDDEN
10
0.574986
20
0.231923
30
0.0
11
0.574986
21
0.237692
31
0.0
0
LINE
8
LEFT_HID
6
HIDDEN
10
0.574986
20
0.237692
30
0.0
11
0.574986
21
0.218462
31
0.0
0
LINE
8
LEFT_HID
6
HIDDEN
10
0.574986
20
0.218462
30
0.0
11
0.574986
21
0.256923
31
0.0
0
LINE
8
LEFT_HID
6
HIDDEN
10
0.574986
20
0.256923
30
0.0
11
0.574986
21
0.237692
31
0.0
0
LINE
8
LEFT_HID
6
HIDDEN
10
0.574986
20
0.180000
30
0.0
11
0.574986
21
0.180146
31
0.0
0
LINE
8
LEFT_HID
6
HIDDEN
10
0.574986
20
0.180146
30
0.0
11
0.593447
21
0.180146
31
0.0
0
LINE
8
LEFT_HID
6
HIDDEN
10
0.593447
20
0.180000
30
0.0
11
0.593447
21
0.180146
31
0.0
0
LINE
8
LEFT_HID
6
HIDDEN
10
0.593447
20
0.180146
30
0.0
11
0.593447
21
0.180000
31
0.0
0
LINE
8
LEFT_HID
6
HIDDEN
10
0.593447
20
0.237692
30
0.0
11
0.593447
21
0.180146
31
0.0
0
LINE
8
LEFT_HID
6
HIDDEN
10
0.593447
20
0.231923
30
0.0
11
0.593447
21
0.237692
31
0.0
0
LINE
8
LEFT_HID
6
HIDDEN
10
0.593447
20
0.237692
30
0.0
11
0.593447
21
0.218462
31
0.0
0
LINE
8
LEFT_HID
6
HIDDEN
10
0.593447
20
0.218462
30
0.0
11
0.593447
21
0.256923
31
0.0
0
LINE
8
LEFT_HID
6
HIDDEN
10
0.593447
20
0.256923
30
0.0
11
0.593447
21
0.237692
31
0.0
0
LINE
8
LEFT_HID
6
HIDDEN
10
0.574986
20
0.180146
30
0.0
11
0.574986
21
0.189646
31
0.0
0
LINE
8
LEFT_HID
6
HIDDEN
10
0.574986
20
0.189646
30
0.0
11
0.574986
21
0.237692
31
0.0
0
LINE
8
LEFT_HID
6
HIDDEN
10
0.574986
20
0.285739
30
0.0
11
0.574986
21
0.237692
31
0.0
0
LINE
8
LEFT_HID
6
HIDDEN
10
0.574986
20
0.285739
30
0.0
11
0.574986
21
0.291316
31
0.0
0
LINE
8
LEFT_HID
6
HIDDEN
10
0.574986
20
0.291316
30
0.0
11
0.574986
21
0.344254
31
0.0
0
LINE
8
LEFT_HID
6
HIDDEN
10
0.574986
20
0.344254
30
0.0
11
0.574986
21
0.612692
31
0.0
0
LINE
8
LEFT_HID
6
HIDDEN
10
0.574986
20
0.612692
30
0.0
11
0.574986
21
0.609945
31
0.0
0
LINE
8
LEFT_HID
6
HIDDEN
10
0.574986
20
0.609945
30
0.0
11
0.574986
21
0.607198
31
0.0
0
LINE
8
LEFT_HID
6
HIDDEN
10
0.574986
20
0.607198
30
0.0
11
0.574986
21
0.604451
31
0.0
0
LINE
8
LEFT_HID
6
HIDDEN
10
0.574986
20
0.604451
30
0.0
11
0.574986
21
0.601703
31
0.0
0
LINE
8
LEFT_HID
6
HIDDEN
10
0.574986
20
0.601703
30
0.0
11
0.574986
21
0.598956
31
0.0
0
LINE
8
LEFT_HID
6
HIDDEN
10
0.574986
20
0.598956
30
0.0
11
0.574986
21
0.596209
31
0.0
0
LINE
8
LEFT_HID
6
HIDDEN
10
0.574986
20
0.596209
30
0.0
11
0.574986
21
0.593462
31
0.0
0
LINE
8
LEFT_HID
6
HIDDEN
10
0.574986
20
0.593462
30
0.0
11
0.574986
21
0.590714
31
0.0
0
LINE
8
LEFT_HID
6
HIDDEN
10
0.574986
20
0.590714
30
0.0
11
0.574986
21
0.587967
31
0.0
0
LINE
8
LEFT_HID
6
HIDDEN
10
0.574986
20
0.587967
30
0.0
11
0.574986
21
0.585220
31
0.0
0
LINE
8
LEFT_HID
6
HIDDEN
10
0.574986
20
0.585220
30
0.0
11
0.574986
21
0.582473
31
0.0
0
LINE
8
LEFT_HID
6
HIDDEN
10
0.574986
20
0.582473
30
0.0
11
0.574986
21
0.579725
31
0.0
0
LINE
8
LEFT_HID
6
HIDDEN
10
0.574986
20
0.579725
30
0.0
11
0.574986
21
0.576978
31
0.0
0
LINE
8
LEFT_HID
6
HIDDEN
10
0.574986
20
0.576978
30
0.0
11
0.574986
21
0.574231
31
0.0
0
LINE
8
LEFT_HID
6
HIDDEN
10
0.574986
20
0.574231
30
0.0
11
0.574986
21
0.571484
31
0.0
0
LINE
8
LEFT_HID
6
HIDDEN
10
0.574986
20
0.571484
30
0.0
11
0.574986
21
0.568736
31
0.0
0
LINE
8
LEFT_HID
6
HIDDEN
10
0.574986
20
0.568736
30
0.0
11
0.574986
21
0.565989
31
0.0
0
LINE
8
LEFT_HID
6
HIDDEN
10
0.574986
20
0.565989
30
0.0
11
0.574986
21
0.563242
31
0.0
0
LINE
8
LEFT_HID
6
HIDDEN
10
0.574986
20
0.563242
30
0.0
11
0.574986
21
0.560495
31
0.0
0
LINE
8
LEFT_HID
6
HIDDEN
10
0.574986
20
0.560495
30
0.0
11
0.574986
21
0.557747
31
0.0
0
LINE
8
LEFT_HID
6
HIDDEN
10
0.574986
20
0.557747
30
0.0
11
0.574986
21
0.555000
31
0.0
0
LINE
8
LEFT_HID
6
HIDDEN
10
0.574986
20
0.555000
30
0.0
11
0.574986
21
0.552253
31
0.0
0
LINE
8
LEFT_HID
6
HIDDEN
10
0.574986
20
0.552253
30
0.0
11
0.574986
21
0.549505
31
0.0
0
LINE
8
LEFT_HID
6
HIDDEN
10
0.574986
20
0.549505
30
0.0
11
0.574986
21
0.546758
31
0.0
0
LINE
8
LEFT_HID
6
HIDDEN
10
0.574986
20
0.546758
30
0.0
11
0.574986
21
0.544011
31
0.0
0
LINE
8
LEFT_HID
6
HIDDEN
10
0.574986
20
0.544011
30
0.0
11
0.574986
21
0.541264
31
0.0
0
LINE
8
LEFT_HID
6
HIDDEN
10
0.574986
20
0.541264
30
0.0
11
0.574986
21
0.538516
31
0.0
0
LINE
8
LEFT_HID
6
HIDDEN
10
0.574986
20
0.538516
30
0.0
11
0.574986
21
0.535769
31
0.0
0
LINE
8
LEFT_HID
6
HIDDEN
10
0.574986
20
0.535769
30
0.0
11
0.574986
21
0.533022
31
0.0
0
LINE
8
LEFT_HID
6
HIDDEN
10
0.574986
20
0.533022
30
0.0
11
0.574986
21
0.530275
31
0.0
0
LINE
8
LEFT_HID
6
HIDDEN
10
0.574986
20
0.530275
30
0.0
11
0.574986
21
0.527527
31
0.0
0
LINE
8
LEFT_HID
6
HIDDEN
10
0.574986
20
0.527527
30
0.0
11
0.574986
21
0.530275
31
0.0
0
LINE
8
LEFT_HID
6
HIDDEN
10
0.574986
20
0.530275
30
0.0
11
0.574986
21
0.533022
31
0.0
0
LINE
8
LEFT_HID
6
HIDDEN
10
0.574986
20
0.533022
30
0.0
11
0.574986
21
0.535769
31
0.0
0
LINE
8
LEFT_HID
6
HIDDEN
10
0.574986
20
0.535769
30
0.0
11
0.574986
21
0.538516
31
0.0
0
LINE
8
LEFT_HID
6
HIDDEN
10
0.574986
20
0.538516
30
0.0
11
0.574986
21
0.541264
31
0.0
0
LINE
8
LEFT_HID
6
HIDDEN
10
0.574986
20
0.541264
30
0.0
11
0.574986
21
0.544011
31
0.0
0
LINE
8
LEFT_HID
6
HIDDEN
10
0.574986
20
0.544011
30
0.0
11
0.574986
21
0.546758
31
0.0
0
LINE
8
LEFT_HID
6
HIDDEN
10
0.574986
20
0.546758
30
0.0
11
0.574986
21
0.549505
31
0.0
0
LINE
8
LEFT_HID
6
HIDDEN
10
0.574986
20
0.549505
30
0.0
11
0.574986
21
0.552253
31
0.0
0
LINE
8
LEFT_HID
6
HIDDEN
10
0.574986
20
0.552253
30
0.0
11
0.574986
21
0.555000
31
0.0
0
LINE
8
LEFT_HID
6
HIDDEN
10
0.574986
20
0.555000
30
0.0
11
0.574986
21
0.557747
31
0.0
0
LINE
8
LEFT_HID
6
HIDDEN
10
0.574986
20
0.557747
30
0.0
11
0.574986
21
0.560495
31
0.0
0
LINE
8
LEFT_HID
6
HIDDEN
10
0.574986
20
0.560495
30
0.0
11
0.574986
21
0.563242
31
0.0
0
LINE
8
LEFT_HID
6
HIDDEN
10
0.574986
20
0.563242
30
0.0
11
0.574986
21
0.565989
31
0.0
0
LINE
8
LEFT_HID
6
HIDDEN
10
0.574986
20
0.565989
30
0.0
11
0.574986
21
0.568736
31
0.0
0
LINE
8
LEFT_HID
6
HIDDEN
10
0.574986
20
0.568736
30
0.0
11
0.574986
21
0.571484
31
0.0
0
LINE
8
LEFT_HID
6
HIDDEN
10
0.574986
20
0.571484
30
0.0
11
0.574986
21
0.574231
31
0.0
0
LINE
8
LEFT_HID
6
HIDDEN
10
0.574986
20
0.574231
30
0.0
11
0.574986
21
0.576978
31
0.0
0
LINE
8
LEFT_HID
6
HIDDEN
10
0.574986
20
0.576978
30
0.0
11
0.574986
21
0.579725
31
0.0
0
LINE
8
LEFT_HID
6
HIDDEN
10
0.574986
20
0.579725
30
0.0
11
0.574986
21
0.582473
31
0.0
0
LINE
8
LEFT_HID
6
HIDDEN
10
0.574986
20
0.582473
30
0.0
11
0.574986
21
0.585220
31
0.0
0
LINE
8
LEFT_HID
6
HIDDEN
10
0.574986
20
0.585220
30
0.0
11
0.574986
21
0.587967
31
0.0
0
LINE
8
LEFT_HID
6
HIDDEN
10
0.574986
20
0.587967
30
0.0
11
0.574986
21
0.590714
31
0.0
0
LINE
8
LEFT_HID
6
HIDDEN
10
0.574986
20
0.590714
30
0.0
11
0.574986
21
0.593462
31
0.0
0
LINE
8
LEFT_HID
6
HIDDEN
10
0.574986
20
0.593462
30
0.0
11
0.574986
21
0.596209
31
0.0
0
LINE
8
LEFT_HID
6
HIDDEN
10
0.574986
20
0.596209
30
0.0
11
0.574986
21
0.598956
31
0.0
0
LINE
8
LEFT_HID
6
HIDDEN
10
0.574986
20
0.598956
30
0.0
11
0.574986
21
0.601703
31
0.0
0
LINE
8
LEFT_HID
6
HIDDEN
10
0.574986
20
0.601703
30
0.0
11
0.574986
21
0.604451
31
0.0
0
LINE
8
LEFT_HID
6
HIDDEN
10
0.574986
20
0.604451
30
0.0
11
0.574986
21
0.607198
31
0.0
0
LINE
8
LEFT_HID
6
HIDDEN
10
0.574986
20
0.607198
30
0.0
11
0.574986
21
0.609945
31
0.0
0
LINE
8
LEFT_HID
6
HIDDEN
10
0.574986
20
0.609945
30
0.0
11
0.574986
21
0.612692
31
0.0
0
LINE
8
LEFT_HID
6
HIDDEN
10
0.593447
20
0.180146
30
0.0
11
0.593447
21
0.189646
31
0.0
0
LINE
8
LEFT_HID
6
HIDDEN
10
0.593447
20
0.189646
30
0.0
11
0.593447
21
0.237692
31
0.0
0
LINE
8
LEFT_HID
6
HIDDEN
10
0.593447
20
0.285739
30
0.0
11
0.593447
21
0.237692
31
0.0
0
LINE
8
LEFT_HID
6
HIDDEN
10
0.593447
20
0.285739
30
0.0
11
0.593447
21
0.291316
31
0.0
0
LINE
8
LEFT_HID
6
HIDDEN
10
0.593447
20
0.291316
30
0.0
11
0.593447
21
0.344254
31
0.0
0
LINE
8
LEFT_HID
6
HIDDEN
10
0.593447
20
0.344254
30
0.0
11
0.593447
21
0.612692
31
0.0
0
LINE
8
LEFT_HID
6
HIDDEN
10
0.593447
20
0.612692
30
0.0
11
0.593447
21
0.609945
31
0.0
0
LINE
8
LEFT_HID
6
HIDDEN
10
0.593447
20
0.609945
30
0.0
11
0.593447
21
0.607198
31
0.0
0
LINE
8
LEFT_HID
6
HIDDEN
10
0.593447
20
0.607198
30
0.0
11
0.593447
21
0.604451
31
0.0
0
LINE
8
LEFT_HID
6
HIDDEN
10
0.593447
20
0.604451
30
0.0
11
0.593447
21
0.601703
31
0.0
0
LINE
8
LEFT_HID
6
HIDDEN
10
0.593447
20
0.601703
30
0.0
11
0.593447
21
0.598956
31
0.0
0
LINE
8
LEFT_HID
6
HIDDEN
10
0.593447
20
0.598956
30
0.0
11
0.593447
21
0.596209
31
0.0
0
LINE
8
LEFT_HID
6
HIDDEN
10
0.593447
20
0.596209
30
0.0
11
0.593447
21
0.593462
31
0.0
0
LINE
8
LEFT_HID
6
HIDDEN
10
0.593447
20
0.593462
30
0.0
11
0.593447
21
0.590714
31
0.0
0
LINE
8
LEFT_HID
6
HIDDEN
10
0.593447
20
0.590714
30
0.0
11
0.593447
21
0.587967
31
0.0
0
LINE
8
LEFT_HID
6
HIDDEN
10
0.593447
20
0.587967
30
0.0
11
0.593447
21
0.585220
31
0.0
0
LINE
8
LEFT_HID
6
HIDDEN
10
0.593447
20
0.585220
30
0.0
11
0.593447
21
0.582473
31
0.0
0
LINE
8
LEFT_HID
6
HIDDEN
10
0.593447
20
0.582473
30
0.0
11
0.593447
21
0.579725
31
0.0
0
LINE
8
LEFT_HID
6
HIDDEN
10
0.593447
20
0.579725
30
0.0
11
0.593447
21
0.576978
31
0.0
0
LINE
8
LEFT_HID
6
HIDDEN
10
0.593447
20
0.576978
30
0.0
11
0.593447
21
0.574231
31
0.0
0
LINE
8
LEFT_HID
6
HIDDEN
10
0.593447
20
0.574231
30
0.0
11
0.593447
21
0.571484
31
0.0
0
LINE
8
LEFT_HID
6
HIDDEN
10
0.593447
20
0.571484
30
0.0
11
0.593447
21
0.568736
31
0.0
0
LINE
8
LEFT_HID
6
HIDDEN
10
0.593447
20
0.568736
30
0.0
11
0.593447
21
0.565989
31
0.0
0
LINE
8
LEFT_HID
6
HIDDEN
10
0.593447
20
0.565989
30
0.0
11
0.593447
21
0.563242
31
0.0
0
LINE
8
LEFT_HID
6
HIDDEN
10
0.593447
20
0.563242
30
0.0
11
0.593447
21
0.560495
31
0.0
0
LINE
8
LEFT_HID
6
HIDDEN
10
0.593447
20
0.560495
30
0.0
11
0.593447
21
0.557747
31
0.0
0
LINE
8
LEFT_HID
6
HIDDEN
10
0.593447
20
0.557747
30
0.0
11
0.593447
21
0.555000
31
0.0
0
LINE
8
LEFT_HID
6
HIDDEN
10
0.593447
20
0.555000
30
0.0
11
0.593447
21
0.552253
31
0.0
0
LINE
8
LEFT_HID
6
HIDDEN
10
0.593447
20
0.552253
30
0.0
11
0.593447
21
0.549505
31
0.0
0
LINE
8
LEFT_HID
6
HIDDEN
10
0.593447
20
0.549505
30
0.0
11
0.593447
21
0.546758
31
0.0
0
LINE
8
LEFT_HID
6
HIDDEN
10
0.593447
20
0.546758
30
0.0
11
0.593447
21
0.544011
31
0.0
0
LINE
8
LEFT_HID
6
HIDDEN
10
0.593447
20
0.544011
30
0.0
11
0.593447
21
0.541264
31
0.0
0
LINE
8
LEFT_HID
6
HIDDEN
10
0.593447
20
0.541264
30
0.0
11
0.593447
21
0.538516
31
0.0
0
LINE
8
LEFT_HID
6
HIDDEN
10
0.593447
20
0.538516
30
0.0
11
0.593447
21
0.535769
31
0.0
0
LINE
8
LEFT_HID
6
HIDDEN
10
0.593447
20
0.535769
30
0.0
11
0.593447
21
0.533022
31
0.0
0
LINE
8
LEFT_HID
6
HIDDEN
10
0.593447
20
0.533022
30
0.0
11
0.593447
21
0.530275
31
0.0
0
LINE
8
LEFT_HID
6
HIDDEN
10
0.593447
20
0.530275
30
0.0
11
0.593447
21
0.527527
31
0.0
0
LINE
8
LEFT_HID
6
HIDDEN
10
0.593447
20
0.527527
30
0.0
11
0.593447
21
0.530275
31
0.0
0
LINE
8
LEFT_HID
6
HIDDEN
10
0.593447
20
0.530275
30
0.0
11
0.593447
21
0.533022
31
0.0
0
LINE
8
LEFT_HID
6
HIDDEN
10
0.593447
20
0.533022
30
0.0
11
0.593447
21
0.535769
31
0.0
0
LINE
8
LEFT_HID
6
HIDDEN
10
0.593447
20
0.535769
30
0.0
11
0.593447
21
0.538516
31
0.0
0
LINE
8
LEFT_HID
6
HIDDEN
10
0.593447
20
0.538516
30
0.0
11
0.593447
21
0.541264
31
0.0
0
LINE
8
LEFT_HID
6
HIDDEN
10
0.593447
20
0.541264
30
0.0
11
0.593447
21
0.544011
31
0.0
0
LINE
8
LEFT_HID
6
HIDDEN
10
0.593447
20
0.544011
30
0.0
11
0.593447
21
0.546758
31
0.0
0
LINE
8
LEFT_HID
6
HIDDEN
10
0.593447
20
0.546758
30
0.0
11
0.593447
21
0.549505
31
0.0
0
LINE
8
LEFT_HID
6
HIDDEN
10
0.593447
20
0.549505
30
0.0
11
0.593447
21
0.552253
31
0.0
0
LINE
8
LEFT_HID
6
HIDDEN
10
0.593447
20
0.552253
30
0.0
11
0.593447
21
0.555000
31
0.0
0
LINE
8
LEFT_HID
6
HIDDEN
10
0.593447
20
0.555000
30
0.0
11
0.593447
21
0.557747
31
0.0
0
LINE
8
LEFT_HID
6
HIDDEN
10
0.593447
20
0.557747
30
0.0
11
0.593447
21
0.560495
31
0.0
0
LINE
8
LEFT_HID
6
HIDDEN
10
0.593447
20
0.560495
30
0.0
11
0.593447
21
0.563242
31
0.0
0
LINE
8
LEFT_HID
6
HIDDEN
10
0.593447
20
0.563242
30
0.0
11
0.593447
21
0.565989
31
0.0
0
LINE
8
LEFT_HID
6
HIDDEN
10
0.593447
20
0.565989
30
0.0
11
0.593447
21
0.568736
31
0.0
0
LINE
8
LEFT_HID
6
HIDDEN
10
0.593447
20
0.568736
30
0.0
11
0.593447
21
0.571484
31
0.0
0
LINE
8
LEFT_HID
6
HIDDEN
10
0.593447
20
0.571484
30
0.0
11
0.593447
21
0.574231
31
0.0
0
LINE
8
LEFT_HID
6
HIDDEN
10
0.593447
20
0.574231
30
0.0
11
0.593447
21
0.576978
31
0.0
0
LINE
8
LEFT_HID
6
HIDDEN
10
0.593447
20
0.576978
30
0.0
11
0.593447
21
0.579725
31
0.0
0
LINE
8
LEFT_HID
6
HIDDEN
10
0.593447
20
0.579725
30
0.0
11
0.593447
21
0.582473
31
0.0
0
LINE
8
LEFT_HID
6
HIDDEN
10
0.593447
20
0.582473
30
0.0
11
0.593447
21
0.585220
31
0.0
0
LINE
8
LEFT_HID
6
HIDDEN
10
0.593447
20
0.585220
30
0.0
11
0.593447
21
0.587967
31
0.0
0
LINE
8
LEFT_HID
6
HIDDEN
10
0.593447
20
0.587967
30
0.0
11
0.593447
21
0.590714
31
0.0
0
LINE
8
LEFT_HID
6
HIDDEN
10
0.593447
20
0.590714
30
0.0
11
0.593447
21
0.593462
31
0.0
0
LINE
8
LEFT_HID
6
HIDDEN
10
0.593447
20
0.593462
30
0.0
11
0.593447
21
0.596209
31
0.0
0
LINE
8
LEFT_HID
6
HIDDEN
10
0.593447
20
0.596209
30
0.0
11
0.593447
21
0.598956
31
0.0
0
LINE
8
LEFT_HID
6
HIDDEN
10
0.593447
20
0.598956
30
0.0
11
0.593447
21
0.601703
31
0.0
0
LINE
8
LEFT_HID
6
HIDDEN
10
0.593447
20
0.601703
30
0.0
11
0.593447
21
0.604451
31
0.0
0
LINE
8
LEFT_HID
6
HIDDEN
10
0.593447
20
0.604451
30
0.0
11
0.593447
21
0.607198
31
0.0
0
LINE
8
LEFT_HID
6
HIDDEN
10
0.593447
20
0.607198
30
0.0
11
0.593447
21
0.609945
31
0.0
0
LINE
8
LEFT_HID
6
HIDDEN
10
0.593447
20
0.609945
30
0.0
11
0.593447
21
0.612692
31
0.0
0
LINE
8
LEFT_HID
6
HIDDEN
10
0.574986
20
0.189646
30
0.0
11
0.574986
21
0.285739
31
0.0
0
LINE
8
LEFT_HID
6
HIDDEN
10
0.574986
20
0.237692
30
0.0
11
0.574986
21
0.218462
31
0.0
0
LINE
8
LEFT_HID
6
HIDDEN
10
0.574986
20
0.218462
30
0.0
11
0.574986
21
0.256923
31
0.0
0
LINE
8
LEFT_HID
6
HIDDEN
10
0.574986
20
0.256923
30
0.0
11
0.574986
21
0.237692
31
0.0
0
LINE
8
LEFT_HID
6
HIDDEN
10
0.574986
20
0.612692
30
0.0
11
0.574986
21
0.634327
31
0.0
0
LINE
8
LEFT_HID
6
HIDDEN
10
0.574986
20
0.634327
30
0.0
11
0.574986
21
0.636998
31
0.0
0
LINE
8
LEFT_HID
6
HIDDEN
10
0.574986
20
0.636998
30
0.0
11
0.574986
21
0.639669
31
0.0
0
LINE
8
LEFT_HID
6
HIDDEN
10
0.574986
20
0.639669
30
0.0
11
0.574986
21
0.642340
31
0.0
0
LINE
8
LEFT_HID
6
HIDDEN
10
0.574986
20
0.642340
30
0.0
11
0.574986
21
0.645011
31
0.0
0
LINE
8
LEFT_HID
6
HIDDEN
10
0.574986
20
0.645011
30
0.0
11
0.574986
21
0.647682
31
0.0
0
LINE
8
LEFT_HID
6
HIDDEN
10
0.574986
20
0.647682
30
0.0
11
0.574986
21
0.650353
31
0.0
0
LINE
8
LEFT_HID
6
HIDDEN
10
0.574986
20
0.650353
30
0.0
11
0.574986
21
0.653023
31
0.0
0
LINE
8
LEFT_HID
6
HIDDEN
10
0.574986
20
0.653023
30
0.0
11
0.574986
21
0.655694
31
0.0
0
LINE
8
LEFT_HID
6
HIDDEN
10
0.574986
20
0.655694
30
0.0
11
0.574986
21
0.658365
31
0.0
0
LINE
8
LEFT_HID
6
HIDDEN
10
0.574986
20
0.658365
30
0.0
11
0.574986
21
0.661036
31
0.0
0
LINE
8
LEFT_HID
6
HIDDEN
10
0.574986
20
0.661036
30
0.0
11
0.574986
21
0.663707
31
0.0
0
LINE
8
LEFT_HID
6
HIDDEN
10
0.574986
20
0.663707
30
0.0
11
0.574986
21
0.666378
31
0.0
0
LINE
8
LEFT_HID
6
HIDDEN
10
0.574986
20
0.666378
30
0.0
11
0.574986
21
0.669049
31
0.0
0
LINE
8
LEFT_HID
6
HIDDEN
10
0.574986
20
0.669049
30
0.0
11
0.574986
21
0.671720
31
0.0
0
LINE
8
LEFT_HID
6
HIDDEN
10
0.574986
20
0.671720
30
0.0
11
0.574986
21
0.674391
31
0.0
0
LINE
8
LEFT_HID
6
HIDDEN
10
0.574986
20
0.674391
30
0.0
11
0.574986
21
0.677062
31
0.0
0
LINE
8
LEFT_HID
6
HIDDEN
10
0.574986
20
0.677062
30
0.0
11
0.574986
21
0.679733
31
0.0
0
LINE
8
LEFT_HID
6
HIDDEN
10
0.574986
20
0.679733
30
0.0
11
0.574986
21
0.682404
31
0.0
0
LINE
8
LEFT_HID
6
HIDDEN
10
0.574986
20
0.682404
30
0.0
11
0.574986
21
0.685075
31
0.0
0
LINE
8
LEFT_HID
6
HIDDEN
10
0.574986
20
0.685075
30
0.0
11
0.574986
21
0.687746
31
0.0
0
LINE
8
LEFT_HID
6
HIDDEN
10
0.574986
20
0.687746
30
0.0
11
0.574986
21
0.690417
31
0.0
0
LINE
8
LEFT_HID
6
HIDDEN
10
0.574986
20
0.690417
30
0.0
11
0.574986
21
0.693088
31
0.0
0
LINE
8
LEFT_HID
6
HIDDEN
10
0.574986
20
0.693088
30
0.0
11
0.574986
21
0.695759
31
0.0
0
LINE
8
LEFT_HID
6
HIDDEN
10
0.574986
20
0.695759
30
0.0
11
0.574986
21
0.698429
31
0.0
0
LINE
8
LEFT_HID
6
HIDDEN
10
0.574986
20
0.698429
30
0.0
11
0.574986
21
0.701100
31
0.0
0
LINE
8
LEFT_HID
6
HIDDEN
10
0.574986
20
0.701100
30
0.0
11
0.574986
21
0.703771
31
0.0
0
LINE
8
LEFT_HID
6
HIDDEN
10
0.574986
20
0.703771
30
0.0
11
0.574986
21
0.706442
31
0.0
0
LINE
8
LEFT_HID
6
HIDDEN
10
0.574986
20
0.706442
30
0.0
11
0.574986
21
0.709113
31
0.0
0
LINE
8
LEFT_HID
6
HIDDEN
10
0.574986
20
0.709113
30
0.0
11
0.574986
21
0.711784
31
0.0
0
LINE
8
LEFT_HID
6
HIDDEN
10
0.574986
20
0.711784
30
0.0
11
0.574986
21
0.714455
31
0.0
0
LINE
8
LEFT_HID
6
HIDDEN
10
0.574986
20
0.714455
30
0.0
11
0.574986
21
0.717126
31
0.0
0
LINE
8
LEFT_HID
6
HIDDEN
10
0.574986
20
0.717126
30
0.0
11
0.574986
21
0.714455
31
0.0
0
LINE
8
LEFT_HID
6
HIDDEN
10
0.574986
20
0.714455
30
0.0
11
0.574986
21
0.711784
31
0.0
0
LINE
8
LEFT_HID
6
HIDDEN
10
0.574986
20
0.711784
30
0.0
11
0.574986
21
0.709113
31
0.0
0
LINE
8
LEFT_HID
6
HIDDEN
10
0.574986
20
0.709113
30
0.0
11
0.574986
21
0.706442
31
0.0
0
LINE
8
LEFT_HID
6
HIDDEN
10
0.574986
20
0.706442
30
0.0
11
0.574986
21
0.703771
31
0.0
0
LINE
8
LEFT_HID
6
HIDDEN
10
0.574986
20
0.703771
30
0.0
11
0.574986
21
0.701100
31
0.0
0
LINE
8
LEFT_HID
6
HIDDEN
10
0.574986
20
0.701100
30
0.0
11
0.574986
21
0.698429
31
0.0
0
LINE
8
LEFT_HID
6
HIDDEN
10
0.574986
20
0.698429
30
0.0
11
0.574986
21
0.695759
31
0.0
0
LINE
8
LEFT_HID
6
HIDDEN
10
0.574986
20
0.695759
30
0.0
11
0.574986
21
0.693088
31
0.0
0
LINE
8
LEFT_HID
6
HIDDEN
10
0.574986
20
0.693088
30
0.0
11
0.574986
21
0.690417
31
0.0
0
LINE
8
LEFT_HID
6
HIDDEN
10
0.574986
20
0.690417
30
0.0
11
0.574986
21
0.687746
31
0.0
0
LINE
8
LEFT_HID
6
HIDDEN
10
0.574986
20
0.687746
30
0.0
11
0.574986
21
0.685075
31
0.0
0
LINE
8
LEFT_HID
6
HIDDEN
10
0.574986
20
0.685075
30
0.0
11
0.574986
21
0.682404
31
0.0
0
LINE
8
LEFT_HID
6
HIDDEN
10
0.574986
20
0.682404
30
0.0
11
0.574986
21
0.679733
31
0.0
0
LINE
8
LEFT_HID
6
HIDDEN
10
0.574986
20
0.679733
30
0.0
11
0.574986
21
0.677062
31
0.0
0
LINE
8
LEFT_HID
6
HIDDEN
10
0.574986
20
0.677062
30
0.0
11
0.574986
21
0.674391
31
0.0
0
LINE
8
LEFT_HID
6
HIDDEN
10
0.574986
20
0.674391
30
0.0
11
0.574986
21
0.671720
31
0.0
0
LINE
8
LEFT_HID
6
HIDDEN
10
0.574986
20
0.671720
30
0.0
11
0.574986
21
0.669049
31
0.0
0
LINE
8
LEFT_HID
6
HIDDEN
10
0.574986
20
0.669049
30
0.0
11
0.574986
21
0.666378
31
0.0
0
LINE
8
LEFT_HID
6
HIDDEN
10
0.574986
20
0.666378
30
0.0
11
0.574986
21
0.663707
31
0.0
0
LINE
8
LEFT_HID
6
HIDDEN
10
0.574986
20
0.663707
30
0.0
11
0.574986
21
0.661036
31
0.0
0
LINE
8
LEFT_HID
6
HIDDEN
10
0.574986
20
0.661036
30
0.0
11
0.574986
21
0.658365
31
0.0
0
LINE
8
LEFT_HID
6
HIDDEN
10
0.574986
20
0.658365
30
0.0
11
0.574986
21
0.655694
31
0.0
0
LINE
8
LEFT_HID
6
HIDDEN
10
0.574986
20
0.655694
30
0.0
11
0.574986
21
0.653023
31
0.0
0
LINE
8
LEFT_HID
6
HIDDEN
10
0.574986
20
0.653023
30
0.0
11
0.574986
21
0.650353
31
0.0
0
LINE
8
LEFT_HID
6
HIDDEN
10
0.574986
20
0.650353
30
0.0
11
0.574986
21
0.647682
31
0.0
0
LINE
8
LEFT_HID
6
HIDDEN
10
0.574986
20
0.647682
30
0.0
11
0.574986
21
0.645011
31
0.0
0
LINE
8
LEFT_HID
6
HIDDEN
10
0.574986
20
0.645011
30
0.0
11
0.574986
21
0.642340
31
0.0
0
LINE
8
LEFT_HID
6
HIDDEN
10
0.574986
20
0.642340
30
0.0
11
0.574986
21
0.639669
31
0.0
0
LINE
8
LEFT_HID
6
HIDDEN
10
0.574986
20
0.639669
30
0.0
11
0.574986
21
0.636998
31
0.0
0
LINE
8
LEFT_HID
6
HIDDEN
10
0.574986
20
0.636998
30
0.0
11
0.574986
21
0.634327
31
0.0
0
LINE
8
LEFT_HID
6
HIDDEN
10
0.574986
20
0.622308
30
0.0
11
0.574986
21
0.603077
31
0.0
0
LINE
8
LEFT_HID
6
HIDDEN
10
0.574986
20
0.603077
30
0.0
11
0.574986
21
0.641538
31
0.0
0
LINE
8
LEFT_HID
6
HIDDEN
10
0.574986
20
0.641538
30
0.0
11
0.574986
21
0.622308
31
0.0
0
LINE
8
LEFT_HID
6
HIDDEN
10
0.593447
20
0.189646
30
0.0
11
0.593447
21
0.285739
31
0.0
0
LINE
8
LEFT_HID
6
HIDDEN
10
0.593447
20
0.237692
30
0.0
11
0.593447
21
0.218462
31
0.0
0
LINE
8
LEFT_HID
6
HIDDEN
10
0.593447
20
0.218462
30
0.0
11
0.593447
21
0.256923
31
0.0
0
LINE
8
LEFT_HID
6
HIDDEN
10
0.593447
20
0.256923
30
0.0
11
0.593447
21
0.237692
31
0.0
0
LINE
8
LEFT_HID
6
HIDDEN
10
0.593447
20
0.612692
30
0.0
11
0.593447
21
0.634327
31
0.0
0
LINE
8
LEFT_HID
6
HIDDEN
10
0.593447
20
0.634327
30
0.0
11
0.593447
21
0.636998
31
0.0
0
LINE
8
LEFT_HID
6
HIDDEN
10
0.593447
20
0.636998
30
0.0
11
0.593447
21
0.639669
31
0.0
0
LINE
8
LEFT_HID
6
HIDDEN
10
0.593447
20
0.639669
30
0.0
11
0.593447
21
0.642340
31
0.0
0
LINE
8
LEFT_HID
6
HIDDEN
10
0.593447
20
0.642340
30
0.0
11
0.593447
21
0.645011
31
0.0
0
LINE
8
LEFT_HID
6
HIDDEN
10
0.593447
20
0.645011
30
0.0
11
0.593447
21
0.647682
31
0.0
0
LINE
8
LEFT_HID
6
HIDDEN
10
0.593447
20
0.647682
30
0.0
11
0.593447
21
0.650353
31
0.0
0
LINE
8
LEFT_HID
6
HIDDEN
10
0.593447
20
0.650353
30
0.0
11
0.593447
21
0.653023
31
0.0
0
LINE
8
LEFT_HID
6
HIDDEN
10
0.593447
20
0.653023
30
0.0
11
0.593447
21
0.655694
31
0.0
0
LINE
8
LEFT_HID
6
HIDDEN
10
0.593447
20
0.655694
30
0.0
11
0.593447
21
0.658365
31
0.0
0
LINE
8
LEFT_HID
6
HIDDEN
10
0.593447
20
0.658365
30
0.0
11
0.593447
21
0.661036
31
0.0
0
LINE
8
LEFT_HID
6
HIDDEN
10
0.593447
20
0.661036
30
0.0
11
0.593447
21
0.663707
31
0.0
0
LINE
8
LEFT_HID
6
HIDDEN
10
0.593447
20
0.663707
30
0.0
11
0.593447
21
0.666378
31
0.0
0
LINE
8
LEFT_HID
6
HIDDEN
10
0.593447
20
0.666378
30
0.0
11
0.593447
21
0.669049
31
0.0
0
LINE
8
LEFT_HID
6
HIDDEN
10
0.593447
20
0.669049
30
0.0
11
0.593447
21
0.671720
31
0.0
0
LINE
8
LEFT_HID
6
HIDDEN
10
0.593447
20
0.671720
30
0.0
11
0.593447
21
0.674391
31
0.0
0
LINE
8
LEFT_HID
6
HIDDEN
10
0.593447
20
0.674391
30
0.0
11
0.593447
21
0.677062
31
0.0
0
LINE
8
LEFT_HID
6
HIDDEN
10
0.593447
20
0.677062
30
0.0
11
0.593447
21
0.679733
31
0.0
0
LINE
8
LEFT_HID
6
HIDDEN
10
0.593447
20
0.679733
30
0.0
11
0.593447
21
0.682404
31
0.0
0
LINE
8
LEFT_HID
6
HIDDEN
10
0.593447
20
0.682404
30
0.0
11
0.593447
21
0.685075
31
0.0
0
LINE
8
LEFT_HID
6
HIDDEN
10
0.593447
20
0.685075
30
0.0
11
0.593447
21
0.687746
31
0.0
0
LINE
8
LEFT_HID
6
HIDDEN
10
0.593447
20
0.687746
30
0.0
11
0.593447
21
0.690417
31
0.0
0
LINE
8
LEFT_HID
6
HIDDEN
10
0.593447
20
0.690417
30
0.0
11
0.593447
21
0.693088
31
0.0
0
LINE
8
LEFT_HID
6
HIDDEN
10
0.593447
20
0.693088
30
0.0
11
0.593447
21
0.695759
31
0.0
0
LINE
8
LEFT_HID
6
HIDDEN
10
0.593447
20
0.695759
30
0.0
11
0.593447
21
0.698429
31
0.0
0
LINE
8
LEFT_HID
6
HIDDEN
10
0.593447
20
0.698429
30
0.0
11
0.593447
21
0.701100
31
0.0
0
LINE
8
LEFT_HID
6
HIDDEN
10
0.593447
20
0.701100
30
0.0
11
0.593447
21
0.703771
31
0.0
0
LINE
8
LEFT_HID
6
HIDDEN
10
0.593447
20
0.703771
30
0.0
11
0.593447
21
0.706442
31
0.0
0
LINE
8
LEFT_HID
6
HIDDEN
10
0.593447
20
0.706442
30
0.0
11
0.593447
21
0.709113
31
0.0
0
LINE
8
LEFT_HID
6
HIDDEN
10
0.593447
20
0.709113
30
0.0
11
0.593447
21
0.711784
31
0.0
0
LINE
8
LEFT_HID
6
HIDDEN
10
0.593447
20
0.711784
30
0.0
11
0.593447
21
0.714455
31
0.0
0
LINE
8
LEFT_HID
6
HIDDEN
10
0.593447
20
0.714455
30
0.0
11
0.593447
21
0.717126
31
0.0
0
LINE
8
LEFT_HID
6
HIDDEN
10
0.593447
20
0.717126
30
0.0
11
0.593447
21
0.714455
31
0.0
0
LINE
8
LEFT_HID
6
HIDDEN
10
0.593447
20
0.714455
30
0.0
11
0.593447
21
0.711784
31
0.0
0
LINE
8
LEFT_HID
6
HIDDEN
10
0.593447
20
0.711784
30
0.0
11
0.593447
21
0.709113
31
0.0
0
LINE
8
LEFT_HID
6
HIDDEN
10
0.593447
20
0.709113
30
0.0
11
0.593447
21
0.706442
31
0.0
0
LINE
8
LEFT_HID
6
HIDDEN
10
0.593447
20
0.706442
30
0.0
11
0.593447
21
0.703771
31
0.0
0
LINE
8
LEFT_HID
6
HIDDEN
10
0.593447
20
0.703771
30
0.0
11
0.593447
21
0.701100
31
0.0
0
LINE
8
LEFT_HID
6
HIDDEN
10
0.593447
20
0.701100
30
0.0
11
0.593447
21
0.698429
31
0.0
0
LINE
8
LEFT_HID
6
HIDDEN
10
0.593447
20
0.698429
30
0.0
11
0.593447
21
0.695759
31
0.0
0
LINE
8
LEFT_HID
6
HIDDEN
10
0.593447
20
0.695759
30
0.0
11
0.593447
21
0.693088
31
0.0
0
LINE
8
LEFT_HID
6
HIDDEN
10
0.593447
20
0.693088
30
0.0
11
0.593447
21
0.690417
31
0.0
0
LINE
8
LEFT_HID
6
HIDDEN
10
0.593447
20
0.690417
30
0.0
11
0.593447
21
0.687746
31
0.0
0
LINE
8
LEFT_HID
6
HIDDEN
10
0.593447
20
0.687746
30
0.0
11
0.593447
21
0.685075
31
0.0
0
LINE
8
LEFT_HID
6
HIDDEN
10
0.593447
20
0.685075
30
0.0
11
0.593447
21
0.682404
31
0.0
0
LINE
8
LEFT_HID
6
HIDDEN
10
0.593447
20
0.682404
30
0.0
11
0.593447
21
0.679733
31
0.0
0
LINE
8
LEFT_HID
6
HIDDEN
10
0.593447
20
0.679733
30
0.0
11
0.593447
21
0.677062
31
0.0
0
LINE
8
LEFT_HID
6
HIDDEN
10
0.593447
20
0.677062
30
0.0
11
0.593447
21
0.674391
31
0.0
0
LINE
8
LEFT_HID
6
HIDDEN
10
0.593447
20
0.674391
30
0.0
11
0.593447
21
0.671720
31
0.0
0
LINE
8
LEFT_HID
6
HIDDEN
10
0.593447
20
0.671720
30
0.0
11
0.593447
21
0.669049
31
0.0
0
LINE
8
LEFT_HID
6
HIDDEN
10
0.593447
20
0.669049
30
0.0
11
0.593447
21
0.666378
31
0.0
0
LINE
8
LEFT_HID
6
HIDDEN
10
0.593447
20
0.666378
30
0.0
11
0.593447
21
0.663707
31
0.0
0
LINE
8
LEFT_HID
6
HIDDEN
10
0.593447
20
0.663707
30
0.0
11
0.593447
21
0.661036
31
0.0
0
LINE
8
LEFT_HID
6
HIDDEN
10
0.593447
20
0.661036
30
0.0
11
0.593447
21
0.658365
31
0.0
0
LINE
8
LEFT_HID
6
HIDDEN
10
0.593447
20
0.658365
30
0.0
11
0.593447
21
0.655694
31
0.0
0
LINE
8
LEFT_HID
6
HIDDEN
10
0.593447
20
0.655694
30
0.0
11
0.593447
21
0.653023
31
0.0
0
LINE
8
LEFT_HID
6
HIDDEN
10
0.593447
20
0.653023
30
0.0
11
0.593447
21
0.650353
31
0.0
0
LINE
8
LEFT_HID
6
HIDDEN
10
0.593447
20
0.650353
30
0.0
11
0.593447
21
0.647682
31
0.0
0
LINE
8
LEFT_HID
6
HIDDEN
10
0.593447
20
0.647682
30
0.0
11
0.593447
21
0.645011
31
0.0
0
LINE
8
LEFT_HID
6
HIDDEN
10
0.593447
20
0.645011
30
0.0
11
0.593447
21
0.642340
31
0.0
0
LINE
8
LEFT_HID
6
HIDDEN
10
0.593447
20
0.642340
30
0.0
11
0.593447
21
0.639669
31
0.0
0
LINE
8
LEFT_HID
6
HIDDEN
10
0.593447
20
0.639669
30
0.0
11
0.593447
21
0.636998
31
0.0
0
LINE
8
LEFT_HID
6
HIDDEN
10
0.593447
20
0.636998
30
0.0
11
0.593447
21
0.634327
31
0.0
0
LINE
8
LEFT_HID
6
HIDDEN
10
0.593447
20
0.622308
30
0.0
11
0.593447
21
0.603077
31
0.0
0
LINE
8
LEFT_HID
6
HIDDEN
10
0.593447
20
0.603077
30
0.0
11
0.593447
21
0.641538
31
0.0
0
LINE
8
LEFT_HID
6
HIDDEN
10
0.593447
20
0.641538
30
0.0
11
0.593447
21
0.622308
31
0.0
0
LINE
8
LEFT_HID
6
HIDDEN
10
0.574986
20
0.930000
30
0.0
11
0.574986
21
0.937212
31
0.0
0
LINE
8
LEFT_HID
6
HIDDEN
10
0.574986
20
0.937212
30
0.0
11
0.574986
21
0.930000
31
0.0
0
LINE
8
LEFT_HID
6
HIDDEN
10
0.574986
20
0.843538
30
0.0
11
0.574986
21
0.833923
31
0.0
0
LINE
8
LEFT_HID
6
HIDDEN
10
0.574986
20
0.833923
30
0.0
11
0.574986
21
0.853154
31
0.0
0
LINE
8
LEFT_HID
6
HIDDEN
10
0.574986
20
0.853154
30
0.0
11
0.574986
21
0.843538
31
0.0
0
LINE
8
LEFT_HID
6
HIDDEN
10
0.593447
20
0.930000
30
0.0
11
0.593447
21
0.937212
31
0.0
0
LINE
8
LEFT_HID
6
HIDDEN
10
0.593447
20
0.937212
30
0.0
11
0.593447
21
0.930000
31
0.0
0
LINE
8
LEFT_HID
6
HIDDEN
10
0.593447
20
0.843538
30
0.0
11
0.593447
21
0.833923
31
0.0
0
LINE
8
LEFT_HID
6
HIDDEN
10
0.593447
20
0.833923
30
0.0
11
0.593447
21
0.853154
31
0.0
0
LINE
8
LEFT_HID
6
HIDDEN
10
0.593447
20
0.853154
30
0.0
11
0.593447
21
0.843538
31
0.0
0
LINE
8
LEFT_HID
6
HIDDEN
10
0.574986
20
0.930000
30
0.0
11
0.574986
21
0.910769
31
0.0
0
LINE
8
LEFT_HID
6
HIDDEN
10
0.574986
20
0.910769
30
0.0
11
0.574986
21
0.949231
31
0.0
0
LINE
8
LEFT_HID
6
HIDDEN
10
0.574986
20
0.949231
30
0.0
11
0.574986
21
0.930000
31
0.0
0
LINE
8
LEFT_HID
6
HIDDEN
10
0.593447
20
0.930000
30
0.0
11
0.593447
21
0.910769
31
0.0
0
LINE
8
LEFT_HID
6
HIDDEN
10
0.593447
20
0.910769
30
0.0
11
0.593447
21
0.949231
31
0.0
0
LINE
8
LEFT_HID
6
HIDDEN
10
0.593447
20
0.949231
30
0.0
11
0.593447
21
0.930000
31
0.0
0
LINE
8
LEFT_HID
6
HIDDEN
10
0.574986
20
0.189646
30
0.0
11
0.593447
21
0.189646
31
0.0
0
LINE
8
LEFT_HID
6
HIDDEN
10
0.574986
20
0.285739
30
0.0
11
0.593447
21
0.285739
31
0.0
0
LINE
8
LEFT_HID
6
HIDDEN
10
0.574986
20
0.291316
30
0.0
11
0.593447
21
0.291316
31
0.0
0
LINE
8
LEFT_HID
6
HIDDEN
10
0.574986
20
0.344254
30
0.0
11
0.593447
21
0.344254
31
0.0
0
LINE
8
LEFT_HID
6
HIDDEN
10
0.593447
20
0.256923
30
0.0
11
0.574986
21
0.256923
31
0.0
0
LINE
8
LEFT_HID
6
HIDDEN
10
0.593447
20
0.218462
30
0.0
11
0.574986
21
0.218462
31
0.0
0
LINE
8
LEFT_HID
6
HIDDEN
10
0.593447
20
0.256923
30
0.0
11
0.574986
21
0.256923
31
0.0
0
LINE
8
LEFT_HID
6
HIDDEN
10
0.593447
20
0.218462
30
0.0
11
0.574986
21
0.218462
31
0.0
0
LINE
8
LEFT_HID
6
HIDDEN
10
0.593447
20
0.641538
30
0.0
11
0.574986
21
0.641538
31
0.0
0
LINE
8
LEFT_HID
6
HIDDEN
10
0.593447
20
0.603077
30
0.0
11
0.574986
21
0.603077
31
0.0
0
LINE
8
LEFT_HID
6
HIDDEN
10
0.593447
20
0.853154
30
0.0
11
0.574986
21
0.853154
31
0.0
0
LINE
8
LEFT_HID
6
HIDDEN
10
0.593447
20
0.833923
30
0.0
11
0.574986
21
0.833923
31
0.0
0
LINE
8
LEFT_HID
6
HIDDEN
10
0.593447
20
0.949231
30
0.0
11
0.574986
21
0.949231
31
0.0
0
LINE
8
LEFT_HID
6
HIDDEN
10
0.593447
20
0.910769
30
0.0
11
0.574986
21
0.910769
31
0.0
0
LINE
8
TOP
10
0.367102
20
0.018462
30
0.0
11
0.211039
21
0.018462
31
0.0
0
LINE
8
TOP
10
0.211039
20
0.018462
30
0.0
11
0.192308
21
0.018462
31
0.0
0
LINE
8
TOP
10
0.367102
20
0.000000
30
0.0
11
0.211039
21
0.000000
31
0.0
0
LINE
8
TOP
10
0.211039
20
0.000000
30
0.0
11
0.192308
21
0.000000
31
0.0
0
LINE
8
TOP
10
0.000000
20
0.018462
30
0.0
11
0.000000
21
0.000000
31
0.0
0
LINE
8
TOP
10
0.413462
20
0.018462
30
0.0
11
0.367102
21
0.018462
31
0.0
0
LINE
8
TOP
10
0.192308
20
0.018462
30
0.0
11
0.191554
21
0.018462
31
0.0
0
LINE
8
TOP
10
0.000754
20
0.018462
30
0.0
11
0.000000
21
0.018462
31
0.0
0
LINE
8
TOP
10
0.413462
20
0.000000
30
0.0
11
0.367102
21
0.000000
31
0.0
0
LINE
8
TOP
10
0.192308
20
0.000000
30
0.0
11
0.191554
21
0.000000
31
0.0
0
LINE
8
TOP
10
0.000754
20
0.000000
30
0.0
11
0.000000
21
0.000000
31
0.0
0
LINE
8
TOP
10
0.191554
20
0.018462
30
0.0
11
0.153394
21
0.018462
31
0.0
0
LINE
8
TOP
10
0.038914
20
0.018462
30
0.0
11
0.000754
21
0.018462
31
0.0
0
LINE
8
TOP
10
0.191554
20
0.000000
30
0.0
11
0.153394
21
0.000000
31
0.0
0
LINE
8
TOP
10
0.038914
20
0.000000
30
0.0
11
0.000754
21
0.000000
31
0.0
0
LINE
8
TOP
10
0.153394
20
0.018462
30
0.0
11
0.038914
21
0.018462
31
0.0
0
LINE
8
TOP
10
0.153394
20
0.000000
30
0.0
11
0.038914
21
0.000000
31
0.0
0
LINE
8
TOP
10
0.367102
20
0.018462
30
0.0
11
0.367102
21
0.000000
31
0.0
0
LINE
8
TOP
10
0.211039
20
0.018462
30
0.0
11
0.211039
21
0.000000
31
0.0
0
LINE
8
TOP
10
0.000754
20
0.018462
30
0.0
11
0.000754
21
0.000000
31
0.0
0
LINE
8
TOP
10
0.191554
20
0.018462
30
0.0
11
0.191554
21
0.000000
31
0.0
0
LINE
8
TOP
10
0.038914
20
0.018462
30
0.0
11
0.038914
21
0.000000
31
0.0
0
LINE
8
TOP
10
0.153394
20
0.018462
30
0.0
11
0.153394
21
0.000000
31
0.0
0
LINE
8
TOP
10
0.413462
20
0.000000
30
0.0
11
0.413462
21
0.018462
31
0.0
0
LINE
8
TOP
10
0.192308
20
0.000000
30
0.0
11
0.192308
21
0.018462
31
0.0
0
LINE
8
TOP_HID
6
HIDDEN
10
0.038751
20
0.000000
30
0.0
11
0.096154
21
0.000000
31
0.0
0
LINE
8
TOP_HID
6
HIDDEN
10
0.038751
20
0.018462
30
0.0
11
0.096154
21
0.018462
31
0.0
0
LINE
8
TOP_HID
6
HIDDEN
10
0.100256
20
0.018462
30
0.0
11
0.096154
21
0.018462
31
0.0
0
LINE
8
TOP_HID
6
HIDDEN
10
0.153846
20
0.018462
30
0.0
11
0.100256
21
0.018462
31
0.0
0
LINE
8
TOP_HID
6
HIDDEN
10
0.038751
20
0.018462
30
0.0
11
0.153846
21
0.018462
31
0.0
0
LINE
8
TOP_HID
6
HIDDEN
10
0.076923
20
0.018462
30
0.0
11
0.115385
21
0.018462
31
0.0
0
LINE
8
TOP_HID
6
HIDDEN
10
0.115385
20
0.018462
30
0.0
11
0.076923
21
0.018462
31
0.0
0
LINE
8
TOP_HID
6
HIDDEN
10
0.096154
20
0.018462
30
0.0
11
0.100256
21
0.018462
31
0.0
0
LINE
8
TOP_HID
6
HIDDEN
10
0.100256
20
0.018462
30
0.0
11
0.100256
21
0.000000
31
0.0
0
LINE
8
TOP_HID
6
HIDDEN
10
0.096154
20
0.000000
30
0.0
11
0.100256
21
0.000000
31
0.0
0
LINE
8
TOP_HID
6
HIDDEN
10
0.100256
20
0.000000
30
0.0
11
0.096154
21
0.000000
31
0.0
0
LINE
8
TOP_HID
6
HIDDEN
10
0.153846
20
0.000000
30
0.0
11
0.100256
21
0.000000
31
0.0
0
LINE
8
TOP_HID
6
HIDDEN
10
0.038751
20
0.000000
30
0.0
11
0.153846
21
0.000000
31
0.0
0
LINE
8
TOP_HID
6
HIDDEN
10
0.076923
20
0.000000
30
0.0
11
0.115385
21
0.000000
31
0.0
0
LINE
8
TOP_HID
6
HIDDEN
10
0.115385
20
0.000000
30
0.0
11
0.076923
21
0.000000
31
0.0
0
LINE
8
TOP_HID
6
HIDDEN
10
0.000482
20
0.000000
30
0.0
11
0.038751
21
0.000000
31
0.0
0
LINE
8
TOP_HID
6
HIDDEN
10
0.000482
20
0.018462
30
0.0
11
0.038751
21
0.018462
31
0.0
0
LINE
8
TOP_HID
6
HIDDEN
10
0.100256
20
0.018462
30
0.0
11
0.367095
21
0.018462
31
0.0
0
LINE
8
TOP_HID
6
HIDDEN
10
0.367095
20
0.018462
30
0.0
11
0.317308
21
0.018462
31
0.0
0
LINE
8
TOP_HID
6
HIDDEN
10
0.317308
20
0.018462
30
0.0
11
0.153846
21
0.018462
31
0.0
0
LINE
8
TOP_HID
6
HIDDEN
10
0.367102
20
0.018462
30
0.0
11
0.317308
21
0.018462
31
0.0
0
LINE
8
TOP_HID
6
HIDDEN
10
0.192308
20
0.018462
30
0.0
11
0.164605
21
0.018462
31
0.0
0
LINE
8
TOP_HID
6
HIDDEN
10
0.164605
20
0.018462
30
0.0
11
0.164847
21
0.018462
31
0.0
0
LINE
8
TOP_HID
6
HIDDEN
10
0.164847
20
0.018462
30
0.0
11
0.191826
21
0.018462
31
0.0
0
LINE
8
TOP_HID
6
HIDDEN
10
0.191826
20
0.018462
30
0.0
11
0.000482
21
0.018462
31
0.0
0
LINE
8
TOP_HID
6
HIDDEN
10
0.076923
20
0.018462
30
0.0
11
0.076923
21
0.000000
31
0.0
0
LINE
8
TOP_HID
6
HIDDEN
10
0.100256
20
0.000000
30
0.0
11
0.367095
21
0.000000
31
0.0
0
LINE
8
TOP_HID
6
HIDDEN
10
0.367095
20
0.000000
30
0.0
11
0.317308
21
0.000000
31
0.0
0
LINE
8
TOP_HID
6
HIDDEN
10
0.317308
20
0.000000
30
0.0
11
0.153846
21
0.000000
31
0.0
0
LINE
8
TOP_HID
6
HIDDEN
10
0.367102
20
0.000000
30
0.0
11
0.317308
21
0.000000
31
0.0
0
LINE
8
TOP_HID
6
HIDDEN
10
0.192308
20
0.000000
30
0.0
11
0.164605
21
0.000000
31
0.0
0
LINE
8
TOP_HID
6
HIDDEN
10
0.164605
20
0.000000
30
0.0
11
0.164847
21
0.000000
31
0.0
0
LINE
8
TOP_HID
6
HIDDEN
10
0.164847
20
0.000000
30
0.0
11
0.191826
21
0.000000
31
0.0
0
LINE
8
TOP_HID
6
HIDDEN
10
0.191826
20
0.000000
30
0.0
11
0.000482
21
0.000000
31
0.0
0
LINE
8
TOP_HID
6
HIDDEN
10
0.000000
20
0.000000
30
0.0
11
0.000482
21
0.000000
31
0.0
0
LINE
8
TOP_HID
6
HIDDEN
10
0.000000
20
0.018462
30
0.0
11
0.000482
21
0.018462
31
0.0
0
LINE
8
TOP_HID
6
HIDDEN
10
0.367095
20
0.018462
30
0.0
11
0.413462
21
0.018462
31
0.0
0
LINE
8
TOP_HID
6
HIDDEN
10
0.346154
20
0.018462
30
0.0
11
0.384615
21
0.018462
31
0.0
0
LINE
8
TOP_HID
6
HIDDEN
10
0.384615
20
0.018462
30
0.0
11
0.346154
21
0.018462
31
0.0
0
LINE
8
TOP_HID
6
HIDDEN
10
0.191826
20
0.018462
30
0.0
11
0.192308
21
0.018462
31
0.0
0
LINE
8
TOP_HID
6
HIDDEN
10
0.000754
20
0.018462
30
0.0
11
0.191554
21
0.018462
31
0.0
0
LINE
8
TOP_HID
6
HIDDEN
10
0.076923
20
0.018462
30
0.0
11
0.115385
21
0.018462
31
0.0
0
LINE
8
TOP_HID
6
HIDDEN
10
0.115385
20
0.018462
30
0.0
11
0.076923
21
0.018462
31
0.0
0
LINE
8
TOP_HID
6
HIDDEN
10
0.367095
20
0.000000
30
0.0
11
0.413462
21
0.000000
31
0.0
0
LINE
8
TOP_HID
6
HIDDEN
10
0.346154
20
0.000000
30
0.0
11
0.384615
21
0.000000
31
0.0
0
LINE
8
TOP_HID
6
HIDDEN
10
0.384615
20
0.000000
30
0.0
11
0.346154
21
0.000000
31
0.0
0
LINE
8
TOP_HID
6
HIDDEN
10
0.191826
20
0.000000
30
0.0
11
0.192308
21
0.000000
31
0.0
0
LINE
8
TOP_HID
6
HIDDEN
10
0.000754
20
0.000000
30
0.0
11
0.191554
21
0.000000
31
0.0
0
LINE
8
TOP_HID
6
HIDDEN
10
0.076923
20
0.000000
30
0.0
11
0.115385
21
0.000000
31
0.0
0
LINE
8
TOP_HID
6
HIDDEN
10
0.115385
20
0.000000
30
0.0
11
0.076923
21
0.000000
31
0.0
0
LINE
8
TOP_HID
6
HIDDEN
10
0.346154
20
0.018462
30
0.0
11
0.346154
21
0.000000
31
0.0
0
LINE
8
TOP_HID
6
HIDDEN
10
0.038462
20
0.018462
30
0.0
11
0.153394
21
0.018462
31
0.0
0
LINE
8
TOP_HID
6
HIDDEN
10
0.038914
20
0.018462
30
0.0
11
0.038462
21
0.018462
31
0.0
0
LINE
8
TOP_HID
6
HIDDEN
10
0.076923
20
0.018462
30
0.0
11
0.096154
21
0.018462
31
0.0
0
LINE
8
TOP_HID
6
HIDDEN
10
0.096154
20
0.018462
30
0.0
11
0.076923
21
0.018462
31
0.0
0
LINE
8
TOP_HID
6
HIDDEN
10
0.076923
20
0.018462
30
0.0
11
0.076923
21
0.000000
31
0.0
0
LINE
8
TOP_HID
6
HIDDEN
10
0.038462
20
0.000000
30
0.0
11
0.153394
21
0.000000
31
0.0
0
LINE
8
TOP_HID
6
HIDDEN
10
0.038914
20
0.000000
30
0.0
11
0.038462
21
0.000000
31
0.0
0
LINE
8
TOP_HID
6
HIDDEN
10
0.076923
20
0.000000
30
0.0
11
0.096154
21
0.000000
31
0.0
0
LINE
8
TOP_HID
6
HIDDEN
10
0.096154
20
0.000000
30
0.0
11
0.076923
21
0.000000
31
0.0
0
LINE
8
TOP_HID
6
HIDDEN
10
0.076923
20
0.018462
30
0.0
11
0.115385
21
0.018462
31
0.0
0
LINE
8
TOP_HID
6
HIDDEN
10
0.115385
20
0.018462
30
0.0
11
0.076923
21
0.018462
31
0.0
0
LINE
8
TOP_HID
6
HIDDEN
10
0.076923
20
0.018462
30
0.0
11
0.076923
21
0.000000
31
0.0
0
LINE
8
TOP_HID
6
HIDDEN
10
0.076923
20
0.000000
30
0.0
11
0.115385
21
0.000000
31
0.0
0
LINE
8
TOP_HID
6
HIDDEN
10
0.115385
20
0.000000
30
0.0
11
0.076923
21
0.000000
31
0.0
0
LINE
8
TOP_HID
6
HIDDEN
10
0.076923
20
0.018462
30
0.0
11
0.076923
21
0.000000
31
0.0
0
LINE
8
TOP_HID
6
HIDDEN
10
0.096154
20
0.018462
30
0.0
11
0.096154
21
0.000000
31
0.0
0
LINE
8
TOP_HID
6
HIDDEN
10
0.038751
20
0.018462
30
0.0
11
0.038751
21
0.000000
31
0.0
0
LINE
8
TOP_HID
6
HIDDEN
10
0.000482
20
0.018462
30
0.0
11
0.000482
21
0.000000
31
0.0
0
LINE
8
TOP_HID
6
HIDDEN
10
0.367095
20
0.018462
30
0.0
11
0.367095
21
0.000000
31
0.0
0
LINE
8
TOP_HID
6
HIDDEN
10
0.164847
20
0.018462
30
0.0
11
0.164847
21
0.000000
31
0.0
0
LINE
8
TOP_HID
6
HIDDEN
10
0.191826
20
0.018462
30
0.0
11
0.191826
21
0.000000
31
0.0
0
LINE
8
TOP_HID
6
HIDDEN
10
0.115385
20
0.000000
30
0.0
11
0.115385
21
0.018462
31
0.0
0
LINE
8
TOP_HID
6
HIDDEN
10
0.164605
20
0.000000
30
0.0
11
0.164605
21
0.018462
31
0.0
0
LINE
8
TOP_HID
6
HIDDEN
10
0.384615
20
0.000000
30
0.0
11
0.384615
21
0.018462
31
0.0
0
LINE
8
TOP_HID
6
HIDDEN
10
0.115385
20
0.000000
30
0.0
11
0.115385
21
0.018462
31
0.0
0
LINE
8
TOP_HID
6
HIDDEN
10
0.096154
20
0.000000
30
0.0
11
0.096154
21
0.018462
31
0.0
0
LINE
8
TOP_HID
6
HIDDEN
10
0.115385
20
0.000000
30
0.0
11
0.115385
21
0.018462
31
0.0
0
ENDSEC
0
EOF
