0
SECTION
2
HEADER
9
$ACADVER
1
AC1009
0
ENDSEC
0
SECTION
2
TABLES
0
TABLE
2
LTYPE
70
3
0
LTYPE
2
CONTINUOUS
70
0
3
Solid line
72
65
73
0
40
0.0
0
LTYPE
2
HIDDEN
70
0
3
__ __ __ __ __
72
65
73
2
40
0.072826
49
0.048575
49
-0.024251
0
LTYPE
2
CENTER
70
0
3
___ _ ___ _ ___
72
65
73
4
40
0.169902
49
0.097076
49
-0.024251
49
0.024251
49
-0.024251
0
ENDTAB
0
TABLE
2
LAYER
70
6
0
LAYER
2
0
70
0
62
7
6
CONTINUOUS
0
LAYER
2
FRONT
70
0
62
7
6
CONTINUOUS
0
LAYER
2
FRONT_HID
70
0
62
7
6
HIDDEN
0
LAYER
2
LEFT
70
0
62
7
6
CONTINUOUS
0
LAYER
2
LEFT_HID
70
0
62
7
6
HIDDEN
0
LAYER
2
TOP
70
0
62
7
6
CONTINUOUS
0
ENDTAB
0
ENDSEC
0
SECTION
2
ENTITIES
0
LINE
8
FRONT
10
0.000000
20
1.125995
30
0.0
11
0.000000
21
1.103588
31
0.0
0
LINE
8
FRONT
10
1.456511
20
1.125995
30
0.0
11
1.456511
21
1.103588
31
0.0
0
LINE
8
FRONT
10
1.456511
20
1.125995
30
0.0
11
0.000000
21
1.125995
31
0.0
0
LINE
8
FRONT
10
1.456511
20
1.103588
30
0.0
11
0.000000
21
1.103588
31
0.0
0
LINE
8
FRONT_HID
6
HIDDEN
10
0.129713
20
1.125995
30
0.0
11
0.157723
21
1.125995
31
0.0
0
LINE
8
FRONT_HID
6
HIDDEN
10
0.178395
20
1.125995
30
0.0
11
0.100369
21
1.125995
31
0.0
0
LINE
8
FRONT_HID
6
HIDDEN
10
0.100369
20
1.125995
30
0.0
11
0.129713
21
1.125995
31
0.0
0
LINE
8
FRONT_HID
6
HIDDEN
10
0.206405
20
1.125995
30
0.0
11
0.178395
21
1.125995
31
0.0
0
LINE
8
FRONT_HID
6
HIDDEN
10
0.157723
20
1.125995
30
0.0
11
0.235749
21
1.125995
31
0.0
0
LINE
8
FRONT_HID
6
HIDDEN
10
0.235749
20
1.125995
30
0.0
11
0.206405
21
1.125995
31
0.0
0
LINE
8
FRONT_HID
6
HIDDEN
10
0.129713
20
1.114791
30
0.0
11
0.157723
21
1.114791
31
0.0
0
LINE
8
FRONT_HID
6
HIDDEN
10
0.157723
20
1.114791
30
0.0
11
0.235749
21
1.114791
31
0.0
0
LINE
8
FRONT_HID
6
HIDDEN
10
0.235749
20
1.114791
30
0.0
11
0.206405
21
1.114791
31
0.0
0
LINE
8
FRONT_HID
6
HIDDEN
10
0.206405
20
1.114791
30
0.0
11
0.178395
21
1.114791
31
0.0
0
LINE
8
FRONT_HID
6
HIDDEN
10
0.178395
20
1.114791
30
0.0
11
0.100369
21
1.114791
31
0.0
0
LINE
8
FRONT_HID
6
HIDDEN
10
0.100369
20
1.114791
30
0.0
11
0.129713
21
1.114791
31
0.0
0
LINE
8
FRONT_HID
6
HIDDEN
10
0.157723
20
1.125995
30
0.0
11
0.157723
21
1.114791
31
0.0
0
LINE
8
FRONT_HID
6
HIDDEN
10
0.129713
20
1.125995
30
0.0
11
0.129713
21
1.114791
31
0.0
0
LINE
8
FRONT_HID
6
HIDDEN
10
0.206405
20
1.125995
30
0.0
11
0.206405
21
1.114791
31
0.0
0
LINE
8
FRONT_HID
6
HIDDEN
10
0.178395
20
1.125995
30
0.0
11
0.178395
21
1.114791
31
0.0
0
LINE
8
FRONT_HID
6
HIDDEN
10
0.235749
20
1.114791
30
0.0
11
0.235749
21
1.125995
31
0.0
0
LINE
8
FRONT_HID
6
HIDDEN
10
0.100369
20
1.114791
30
0.0
11
0.100369
21
1.125995
31
0.0
0
LINE
8
LEFT
10
2.560099
20
1.125995
30
0.0
11
2.560099
21
1.103588
31
0.0
0
LINE
8
LEFT
10
1.747814
20
1.125995
30
0.0
11
1.747814
21
1.103588
31
0.0
0
LINE
8
LEFT
10
1.747814
20
1.103588
30
0.0
11
2.560099
21
1.103588
31
0.0
0
LINE
8
LEFT
10
1.747814
20
1.125995
30
0.0
11
2.560099
21
1.125995
31
0.0
0
LINE
8
LEFT_HID
6
HIDDEN
10
1.935510
20
1.125995
30
0.0
11
1.963617
21
1.125995
31
0.0
0
LINE
8
LEFT_HID
6
HIDDEN
10
1.886996
20
1.125995
30
0.0
11
1.857519
21
1.125995
31
0.0
0
LINE
8
LEFT_HID
6
HIDDEN
10
1.857519
20
1.125995
30
0.0
11
1.935510
21
1.125995
31
0.0
0
LINE
8
LEFT_HID
6
HIDDEN
10
1.915103
20
1.125995
30
0.0
11
1.886996
21
1.125995
31
0.0
0
LINE
8
LEFT_HID
6
HIDDEN
10
1.963617
20
1.125995
30
0.0
11
1.993094
21
1.125995
31
0.0
0
LINE
8
LEFT_HID
6
HIDDEN
10
1.993094
20
1.125995
30
0.0
11
1.915103
21
1.125995
31
0.0
0
LINE
8
LEFT_HID
6
HIDDEN
10
1.935510
20
1.114791
30
0.0
11
1.963617
21
1.114791
31
0.0
0
LINE
8
LEFT_HID
6
HIDDEN
10
1.963617
20
1.114791
30
0.0
11
1.993094
21
1.114791
31
0.0
0
LINE
8
LEFT_HID
6
HIDDEN
10
1.993094
20
1.114791
30
0.0
11
1.915103
21
1.114791
31
0.0
0
LINE
8
LEFT_HID
6
HIDDEN
10
1.915103
20
1.114791
30
0.0
11
1.886996
21
1.114791
31
0.0
0
LINE
8
LEFT_HID
6
HIDDEN
10
1.886996
20
1.114791
30
0.0
11
1.857519
21
1.114791
31
0.0
0
LINE
8
LEFT_HID
6
HIDDEN
10
1.857519
20
1.114791
30
0.0
11
1.935510
21
1.114791
31
0.0
0
LINE
8
LEFT_HID
6
HIDDEN
10
1.963617
20
1.125995
30
0.0
11
1.963617
21
1.114791
31
0.0
0
LINE
8
LEFT_HID
6
HIDDEN
10
1.935510
20
1.125995
30
0.0
11
1.935510
21
1.114791
31
0.0
0
LINE
8
LEFT_HID
6
HIDDEN
10
1.915103
20
1.125995
30
0.0
11
1.915103
21
1.114791
31
0.0
0
LINE
8
LEFT_HID
6
HIDDEN
10
1.886996
20
1.125995
30
0.0
11
1.886996
21
1.114791
31
0.0
0
LINE
8
LEFT_HID
6
HIDDEN
10
1.993094
20
1.114791
30
0.0
11
1.993094
21
1.125995
31
0.0
0
LINE
8
LEFT_HID
6
HIDDEN
10
1.857519
20
1.114791
30
0.0
11
1.857519
21
1.125995
31
0.0
0
LINE
8
TOP
10
0.000000
20
0.000000
30
0.0
11
1.456511
21
0.000000
31
0.0
0
LINE
8
TOP
10
0.000000
20
0.812285
30
0.0
11
0.000000
21
0.000000
31
0.0
0
LINE
8
TOP
10
1.456511
20
0.000000
30
0.0
11
1.456511
21
0.812285
31
0.0
0
LINE
8
TOP
10
1.456511
20
0.812285
30
0.0
11
0.000000
21
0.812285
31
0.0
0
LINE
8
TOP
10
0.129713
20
0.624589
30
0.0
11
0.130348
21
0.624412
31
0.0
0
LINE
8
TOP
10
0.130348
20
0.624412
30
0.0
11
0.130980
21
0.624224
31
0.0
0
LINE
8
TOP
10
0.130980
20
0.624224
30
0.0
11
0.131610
21
0.624026
31
0.0
0
LINE
8
TOP
10
0.131610
20
0.624026
30
0.0
11
0.132235
21
0.623817
31
0.0
0
LINE
8
TOP
10
0.132235
20
0.623817
30
0.0
11
0.132858
21
0.623598
31
0.0
0
LINE
8
TOP
10
0.132858
20
0.623598
30
0.0
11
0.133476
21
0.623369
31
0.0
0
LINE
8
TOP
10
0.133476
20
0.623369
30
0.0
11
0.134091
21
0.623130
31
0.0
0
LINE
8
TOP
10
0.134091
20
0.623130
30
0.0
11
0.134701
21
0.622880
31
0.0
0
LINE
8
TOP
10
0.134701
20
0.622880
30
0.0
11
0.135307
21
0.622620
31
0.0
0
LINE
8
TOP
10
0.135307
20
0.622620
30
0.0
11
0.135909
21
0.622350
31
0.0
0
LINE
8
TOP
10
0.135909
20
0.622350
30
0.0
11
0.136506
21
0.622071
31
0.0
0
LINE
8
TOP
10
0.136506
20
0.622071
30
0.0
11
0.137099
21
0.621781
31
0.0
0
LINE
8
TOP
10
0.137099
20
0.621781
30
0.0
11
0.137687
21
0.621482
31
0.0
0
LINE
8
TOP
10
0.137687
20
0.621482
30
0.0
11
0.138269
21
0.621172
31
0.0
0
LINE
8
TOP
10
0.138269
20
0.621172
30
0.0
11
0.138847
21
0.620853
31
0.0
0
LINE
8
TOP
10
0.138847
20
0.620853
30
0.0
11
0.139419
21
0.620525
31
0.0
0
LINE
8
TOP
10
0.139419
20
0.620525
30
0.0
11
0.139985
21
0.620187
31
0.0
0
LINE
8
TOP
10
0.139985
20
0.620187
30
0.0
11
0.140546
21
0.619840
31
0.0
0
LINE
8
TOP
10
0.140546
20
0.619840
30
0.0
11
0.141101
21
0.619484
31
0.0
0
LINE
8
TOP
10
0.141101
20
0.619484
30
0.0
11
0.141650
21
0.619118
31
0.0
0
LINE
8
TOP
10
0.141650
20
0.619118
30
0.0
11
0.142193
21
0.618743
31
0.0
0
LINE
8
TOP
10
0.142193
20
0.618743
30
0.0
11
0.142729
21
0.618359
31
0.0
0
LINE
8
TOP
10
0.142729
20
0.618359
30
0.0
11
0.143259
21
0.617967
31
0.0
0
LINE
8
TOP
10
0.143259
20
0.617967
30
0.0
11
0.143782
21
0.617565
31
0.0
0
LINE
8
TOP
10
0.143782
20
0.617565
30
0.0
11
0.144299
21
0.617155
31
0.0
0
LINE
8
TOP
10
0.144299
20
0.617155
30
0.0
11
0.144809
21
0.616737
31
0.0
0
LINE
8
TOP
10
0.144809
20
0.616737
30
0.0
11
0.145312
21
0.616310
31
0.0
0
LINE
8
TOP
10
0.145312
20
0.616310
30
0.0
11
0.145807
21
0.615875
31
0.0
0
LINE
8
TOP
10
0.145807
20
0.615875
30
0.0
11
0.146295
21
0.615431
31
0.0
0
LINE
8
TOP
10
0.146295
20
0.615431
30
0.0
11
0.146776
21
0.614980
31
0.0
0
LINE
8
TOP
10
0.146776
20
0.614980
30
0.0
11
0.147250
21
0.614521
31
0.0
0
LINE
8
TOP
10
0.147250
20
0.614521
30
0.0
11
0.147715
21
0.614053
31
0.0
0
LINE
8
TOP
10
0.147715
20
0.614053
30
0.0
11
0.148173
21
0.613578
31
0.0
0
LINE
8
TOP
10
0.148173
20
0.613578
30
0.0
11
0.148623
21
0.613096
31
0.0
0
LINE
8
TOP
10
0.148623
20
0.613096
30
0.0
11
0.149064
21
0.612606
31
0.0
0
LINE
8
TOP
10
0.149064
20
0.612606
30
0.0
11
0.149498
21
0.612109
31
0.0
0
LINE
8
TOP
10
0.149498
20
0.612109
30
0.0
11
0.149923
21
0.611605
31
0.0
0
LINE
8
TOP
10
0.149923
20
0.611605
30
0.0
11
0.150340
21
0.611094
31
0.0
0
LINE
8
TOP
10
0.150340
20
0.611094
30
0.0
11
0.150748
21
0.610576
31
0.0
0
LINE
8
TOP
10
0.150748
20
0.610576
30
0.0
11
0.151148
21
0.610051
31
0.0
0
LINE
8
TOP
10
0.151148
20
0.610051
30
0.0
11
0.151538
21
0.609519
31
0.0
0
LINE
8
TOP
10
0.151538
20
0.609519
30
0.0
11
0.151920
21
0.608982
31
0.0
0
LINE
8
TOP
10
0.151920
20
0.608982
30
0.0
11
0.152293
21
0.608438
31
0.0
0
LINE
8
TOP
10
0.152293
20
0.608438
30
0.0
11
0.152657
21
0.607887
31
0.0
0
LINE
8
TOP
10
0.152657
20
0.607887
30
0.0
11
0.153011
21
0.607331
31
0.0
0
LINE
8
TOP
10
0.153011
20
0.607331
30
0.0
11
0.153357
21
0.606769
31
0.0
0
LINE
8
TOP
10
0.153357
20
0.606769
30
0.0
11
0.153693
21
0.606202
31
0.0
0
LINE
8
TOP
10
0.153693
20
0.606202
30
0.0
11
0.154019
21
0.605628
31
0.0
0
LINE
8
TOP
10
0.154019
20
0.605628
30
0.0
11
0.154336
21
0.605050
31
0.0
0
LINE
8
TOP
10
0.154336
20
0.605050
30
0.0
11
0.154643
21
0.604466
31
0.0
0
LINE
8
TOP
10
0.154643
20
0.604466
30
0.0
11
0.154941
21
0.603878
31
0.0
0
LINE
8
TOP
10
0.154941
20
0.603878
30
0.0
11
0.155228
21
0.603284
31
0.0
0
LINE
8
TOP
10
0.155228
20
0.603284
30
0.0
11
0.155506
21
0.602686
31
0.0
0
LINE
8
TOP
10
0.155506
20
0.602686
30
0.0
11
0.155774
21
0.602083
31
0.0
0
LINE
8
TOP
10
0.155774
20
0.602083
30
0.0
11
0.156031
21
0.601476
31
0.0
0
LINE
8
TOP
10
0.156031
20
0.601476
30
0.0
11
0.156279
21
0.600865
31
0.0
0
LINE
8
TOP
10
0.156279
20
0.600865
30
0.0
11
0.156516
21
0.600249
31
0.0
0
LINE
8
TOP
10
0.156516
20
0.600249
30
0.0
11
0.156743
21
0.599630
31
0.0
0
LINE
8
TOP
10
0.156743
20
0.599630
30
0.0
11
0.156960
21
0.599007
31
0.0
0
LINE
8
TOP
10
0.156960
20
0.599007
30
0.0
11
0.157166
21
0.598381
31
0.0
0
LINE
8
TOP
10
0.157166
20
0.598381
30
0.0
11
0.157362
21
0.597751
31
0.0
0
LINE
8
TOP
10
0.157362
20
0.597751
30
0.0
11
0.157548
21
0.597118
31
0.0
0
LINE
8
TOP
10
0.157548
20
0.597118
30
0.0
11
0.157723
21
0.596482
31
0.0
0
LINE
8
TOP
10
0.178395
20
0.673103
30
0.0
11
0.177633
21
0.675628
31
0.0
0
LINE
8
TOP
10
0.177633
20
0.675628
30
0.0
11
0.176704
21
0.678097
31
0.0
0
LINE
8
TOP
10
0.176704
20
0.678097
30
0.0
11
0.175613
21
0.680499
31
0.0
0
LINE
8
TOP
10
0.175613
20
0.680499
30
0.0
11
0.174365
21
0.682823
31
0.0
0
LINE
8
TOP
10
0.174365
20
0.682823
30
0.0
11
0.172966
21
0.685059
31
0.0
0
LINE
8
TOP
10
0.172966
20
0.685059
30
0.0
11
0.171421
21
0.687197
31
0.0
0
LINE
8
TOP
10
0.171421
20
0.687197
30
0.0
11
0.169737
21
0.689228
31
0.0
0
LINE
8
TOP
10
0.169737
20
0.689228
30
0.0
11
0.167922
21
0.691142
31
0.0
0
LINE
8
TOP
10
0.167922
20
0.691142
30
0.0
11
0.165984
21
0.692931
31
0.0
0
LINE
8
TOP
10
0.165984
20
0.692931
30
0.0
11
0.163932
21
0.694588
31
0.0
0
LINE
8
TOP
10
0.163932
20
0.694588
30
0.0
11
0.161774
21
0.696105
31
0.0
0
LINE
8
TOP
10
0.161774
20
0.696105
30
0.0
11
0.159519
21
0.697475
31
0.0
0
LINE
8
TOP
10
0.159519
20
0.697475
30
0.0
11
0.157179
21
0.698692
31
0.0
0
LINE
8
TOP
10
0.157179
20
0.698692
30
0.0
11
0.154763
21
0.699751
31
0.0
0
LINE
8
TOP
10
0.154763
20
0.699751
30
0.0
11
0.152282
21
0.700647
31
0.0
0
LINE
8
TOP
10
0.152282
20
0.700647
30
0.0
11
0.149747
21
0.701377
31
0.0
0
LINE
8
TOP
10
0.149747
20
0.701377
30
0.0
11
0.147170
21
0.701936
31
0.0
0
LINE
8
TOP
10
0.147170
20
0.701936
30
0.0
11
0.144560
21
0.702323
31
0.0
0
LINE
8
TOP
10
0.144560
20
0.702323
30
0.0
11
0.141931
21
0.702535
31
0.0
0
LINE
8
TOP
10
0.141931
20
0.702535
30
0.0
11
0.139293
21
0.702573
31
0.0
0
LINE
8
TOP
10
0.139293
20
0.702573
30
0.0
11
0.136659
21
0.702435
31
0.0
0
LINE
8
TOP
10
0.136659
20
0.702435
30
0.0
11
0.134040
21
0.702122
31
0.0
0
LINE
8
TOP
10
0.134040
20
0.702122
30
0.0
11
0.131447
21
0.701636
31
0.0
0
LINE
8
TOP
10
0.131447
20
0.701636
30
0.0
11
0.128893
21
0.700979
31
0.0
0
LINE
8
TOP
10
0.128893
20
0.700979
30
0.0
11
0.126387
21
0.700154
31
0.0
0
LINE
8
TOP
10
0.126387
20
0.700154
30
0.0
11
0.123942
21
0.699164
31
0.0
0
LINE
8
TOP
10
0.123942
20
0.699164
30
0.0
11
0.121568
21
0.698014
31
0.0
0
LINE
8
TOP
10
0.121568
20
0.698014
30
0.0
11
0.119276
21
0.696708
31
0.0
0
LINE
8
TOP
10
0.119276
20
0.696708
30
0.0
11
0.117076
21
0.695253
31
0.0
0
LINE
8
TOP
10
0.117076
20
0.695253
30
0.0
11
0.114977
21
0.693656
31
0.0
0
LINE
8
TOP
10
0.114977
20
0.693656
30
0.0
11
0.112989
21
0.691922
31
0.0
0
LINE
8
TOP
10
0.112989
20
0.691922
30
0.0
11
0.111121
21
0.690060
31
0.0
0
LINE
8
TOP
10
0.111121
20
0.690060
30
0.0
11
0.109380
21
0.688078
31
0.0
0
LINE
8
TOP
10
0.109380
20
0.688078
30
0.0
11
0.107775
21
0.685985
31
0.0
0
LINE
8
TOP
10
0.107775
20
0.685985
30
0.0
11
0.106312
21
0.683789
31
0.0
0
LINE
8
TOP
10
0.106312
20
0.683789
30
0.0
11
0.104999
21
0.681502
31
0.0
0
LINE
8
TOP
10
0.104999
20
0.681502
30
0.0
11
0.103841
21
0.679132
31
0.0
0
LINE
8
TOP
10
0.103841
20
0.679132
30
0.0
11
0.102842
21
0.676690
31
0.0
0
LINE
8
TOP
10
0.102842
20
0.676690
30
0.0
11
0.102008
21
0.674188
31
0.0
0
LINE
8
TOP
10
0.102008
20
0.674188
30
0.0
11
0.101342
21
0.671635
31
0.0
0
LINE
8
TOP
10
0.101342
20
0.671635
30
0.0
11
0.100847
21
0.669044
31
0.0
0
LINE
8
TOP
10
0.100847
20
0.669044
30
0.0
11
0.100526
21
0.666426
31
0.0
0
LINE
8
TOP
10
0.100526
20
0.666426
30
0.0
11
0.100379
21
0.663793
31
0.0
0
LINE
8
TOP
10
0.100379
20
0.663793
30
0.0
11
0.100407
21
0.661155
31
0.0
0
LINE
8
TOP
10
0.100407
20
0.661155
30
0.0
11
0.100610
21
0.658525
31
0.0
0
LINE
8
TOP
10
0.100610
20
0.658525
30
0.0
11
0.100988
21
0.655914
31
0.0
0
LINE
8
TOP
10
0.100988
20
0.655914
30
0.0
11
0.101539
21
0.653334
31
0.0
0
LINE
8
TOP
10
0.101539
20
0.653334
30
0.0
11
0.102259
21
0.650797
31
0.0
0
LINE
8
TOP
10
0.102259
20
0.650797
30
0.0
11
0.103147
21
0.648313
31
0.0
0
LINE
8
TOP
10
0.103147
20
0.648313
30
0.0
11
0.104197
21
0.645893
31
0.0
0
LINE
8
TOP
10
0.104197
20
0.645893
30
0.0
11
0.105407
21
0.643549
31
0.0
0
LINE
8
TOP
10
0.105407
20
0.643549
30
0.0
11
0.106769
21
0.641290
31
0.0
0
LINE
8
TOP
10
0.106769
20
0.641290
30
0.0
11
0.108278
21
0.639127
31
0.0
0
LINE
8
TOP
10
0.108278
20
0.639127
30
0.0
11
0.109928
21
0.637068
31
0.0
0
LINE
8
TOP
10
0.109928
20
0.637068
30
0.0
11
0.111710
21
0.635124
31
0.0
0
LINE
8
TOP
10
0.111710
20
0.635124
30
0.0
11
0.113618
21
0.633303
31
0.0
0
LINE
8
TOP
10
0.113618
20
0.633303
30
0.0
11
0.115643
21
0.631612
31
0.0
0
LINE
8
TOP
10
0.115643
20
0.631612
30
0.0
11
0.117776
21
0.630060
31
0.0
0
LINE
8
TOP
10
0.117776
20
0.630060
30
0.0
11
0.120007
21
0.628652
31
0.0
0
LINE
8
TOP
10
0.120007
20
0.628652
30
0.0
11
0.122327
21
0.627396
31
0.0
0
LINE
8
TOP
10
0.122327
20
0.627396
30
0.0
11
0.124725
21
0.626297
31
0.0
0
LINE
8
TOP
10
0.124725
20
0.626297
30
0.0
11
0.127190
21
0.625360
31
0.0
0
LINE
8
TOP
10
0.127190
20
0.625360
30
0.0
11
0.129713
21
0.624589
31
0.0
0
LINE
8
TOP
10
0.206405
20
0.644996
30
0.0
11
0.205770
21
0.645173
31
0.0
0
LINE
8
TOP
10
0.205770
20
0.645173
30
0.0
11
0.205138
21
0.645361
31
0.0
0
LINE
8
TOP
10
0.205138
20
0.645361
30
0.0
11
0.204509
21
0.645559
31
0.0
0
LINE
8
TOP
10
0.204509
20
0.645559
30
0.0
11
0.203883
21
0.645768
31
0.0
0
LINE
8
TOP
10
0.203883
20
0.645768
30
0.0
11
0.203261
21
0.645987
31
0.0
0
LINE
8
TOP
10
0.203261
20
0.645987
30
0.0
11
0.202642
21
0.646216
31
0.0
0
LINE
8
TOP
10
0.202642
20
0.646216
30
0.0
11
0.202028
21
0.646455
31
0.0
0
LINE
8
TOP
10
0.202028
20
0.646455
30
0.0
11
0.201417
21
0.646705
31
0.0
0
LINE
8
TOP
10
0.201417
20
0.646705
30
0.0
11
0.200811
21
0.646965
31
0.0
0
LINE
8
TOP
10
0.200811
20
0.646965
30
0.0
11
0.200209
21
0.647235
31
0.0
0
LINE
8
TOP
10
0.200209
20
0.647235
30
0.0
11
0.199612
21
0.647514
31
0.0
0
LINE
8
TOP
10
0.199612
20
0.647514
30
0.0
11
0.199019
21
0.647804
31
0.0
0
LINE
8
TOP
10
0.199019
20
0.647804
30
0.0
11
0.198431
21
0.648103
31
0.0
0
LINE
8
TOP
10
0.198431
20
0.648103
30
0.0
11
0.197849
21
0.648413
31
0.0
0
LINE
8
TOP
10
0.197849
20
0.648413
30
0.0
11
0.197272
21
0.648732
31
0.0
0
LINE
8
TOP
10
0.197272
20
0.648732
30
0.0
11
0.196699
21
0.649060
31
0.0
0
LINE
8
TOP
10
0.196699
20
0.649060
30
0.0
11
0.196133
21
0.649398
31
0.0
0
LINE
8
TOP
10
0.196133
20
0.649398
30
0.0
11
0.195572
21
0.649745
31
0.0
0
LINE
8
TOP
10
0.195572
20
0.649745
30
0.0
11
0.195017
21
0.650102
31
0.0
0
LINE
8
TOP
10
0.195017
20
0.650102
30
0.0
11
0.194468
21
0.650467
31
0.0
0
LINE
8
TOP
10
0.194468
20
0.650467
30
0.0
11
0.193926
21
0.650842
31
0.0
0
LINE
8
TOP
10
0.193926
20
0.650842
30
0.0
11
0.193389
21
0.651226
31
0.0
0
LINE
8
TOP
10
0.193389
20
0.651226
30
0.0
11
0.192859
21
0.651618
31
0.0
0
LINE
8
TOP
10
0.192859
20
0.651618
30
0.0
11
0.192336
21
0.652020
31
0.0
0
LINE
8
TOP
10
0.192336
20
0.652020
30
0.0
11
0.191819
21
0.652430
31
0.0
0
LINE
8
TOP
10
0.191819
20
0.652430
30
0.0
11
0.191309
21
0.652848
31
0.0
0
LINE
8
TOP
10
0.191309
20
0.652848
30
0.0
11
0.190807
21
0.653275
31
0.0
0
LINE
8
TOP
10
0.190807
20
0.653275
30
0.0
11
0.190311
21
0.653710
31
0.0
0
LINE
8
TOP
10
0.190311
20
0.653710
30
0.0
11
0.189823
21
0.654154
31
0.0
0
LINE
8
TOP
10
0.189823
20
0.654154
30
0.0
11
0.189342
21
0.654605
31
0.0
0
LINE
8
TOP
10
0.189342
20
0.654605
30
0.0
11
0.188869
21
0.655064
31
0.0
0
LINE
8
TOP
10
0.188869
20
0.655064
30
0.0
11
0.188403
21
0.655532
31
0.0
0
LINE
8
TOP
10
0.188403
20
0.655532
30
0.0
11
0.187945
21
0.656007
31
0.0
0
LINE
8
TOP
10
0.187945
20
0.656007
30
0.0
11
0.187495
21
0.656489
31
0.0
0
LINE
8
TOP
10
0.187495
20
0.656489
30
0.0
11
0.187054
21
0.656979
31
0.0
0
LINE
8
TOP
10
0.187054
20
0.656979
30
0.0
11
0.186620
21
0.657476
31
0.0
0
LINE
8
TOP
10
0.186620
20
0.657476
30
0.0
11
0.186195
21
0.657980
31
0.0
0
LINE
8
TOP
10
0.186195
20
0.657980
30
0.0
11
0.185778
21
0.658491
31
0.0
0
LINE
8
TOP
10
0.185778
20
0.658491
30
0.0
11
0.185370
21
0.659009
31
0.0
0
LINE
8
TOP
10
0.185370
20
0.659009
30
0.0
11
0.184971
21
0.659534
31
0.0
0
LINE
8
TOP
10
0.184971
20
0.659534
30
0.0
11
0.184580
21
0.660066
31
0.0
0
LINE
8
TOP
10
0.184580
20
0.660066
30
0.0
11
0.184198
21
0.660603
31
0.0
0
LINE
8
TOP
10
0.184198
20
0.660603
30
0.0
11
0.183825
21
0.661147
31
0.0
0
LINE
8
TOP
10
0.183825
20
0.661147
30
0.0
11
0.183461
21
0.661698
31
0.0
0
LINE
8
TOP
10
0.183461
20
0.661698
30
0.0
11
0.183107
21
0.662254
31
0.0
0
LINE
8
TOP
10
0.183107
20
0.662254
30
0.0
11
0.182761
21
0.662816
31
0.0
0
LINE
8
TOP
10
0.182761
20
0.662816
30
0.0
11
0.182426
21
0.663383
31
0.0
0
LINE
8
TOP
10
0.182426
20
0.663383
30
0.0
11
0.182099
21
0.663956
31
0.0
0
LINE
8
TOP
10
0.182099
20
0.663956
30
0.0
11
0.181782
21
0.664535
31
0.0
0
LINE
8
TOP
10
0.181782
20
0.664535
30
0.0
11
0.181475
21
0.665119
31
0.0
0
LINE
8
TOP
10
0.181475
20
0.665119
30
0.0
11
0.181178
21
0.665707
31
0.0
0
LINE
8
TOP
10
0.181178
20
0.665707
30
0.0
11
0.180890
21
0.666301
31
0.0
0
LINE
8
TOP
10
0.180890
20
0.666301
30
0.0
11
0.180612
21
0.666899
31
0.0
0
LINE
8
TOP
10
0.180612
20
0.666899
30
0.0
11
0.180345
21
0.667502
31
0.0
0
LINE
8
TOP
10
0.180345
20
0.667502
30
0.0
11
0.180087
21
0.668109
31
0.0
0
LINE
8
TOP
10
0.180087
20
0.668109
30
0.0
11
0.179839
21
0.668720
31
0.0
0
LINE
8
TOP
10
0.179839
20
0.668720
30
0.0
11
0.179602
21
0.669336
31
0.0
0
LINE
8
TOP
10
0.179602
20
0.669336
30
0.0
11
0.179375
21
0.669955
31
0.0
0
LINE
8
TOP
10
0.179375
20
0.669955
30
0.0
11
0.179158
21
0.670578
31
0.0
0
LINE
8
TOP
10
0.179158
20
0.670578
30
0.0
11
0.178952
21
0.671204
31
0.0
0
LINE
8
TOP
10
0.178952
20
0.671204
30
0.0
11
0.178756
21
0.671834
31
0.0
0
LINE
8
TOP
10
0.178756
20
0.671834
30
0.0
11
0.178570
21
0.672467
31
0.0
0
LINE
8
TOP
10
0.178570
20
0.672467
30
0.0
11
0.178395
21
0.673103
31
0.0
0
LINE
8
TOP
10
0.157723
20
0.596482
30
0.0
11
0.158485
21
0.593957
31
0.0
0
LINE
8
TOP
10
0.158485
20
0.593957
30
0.0
11
0.159414
21
0.591488
31
0.0
0
LINE
8
TOP
10
0.159414
20
0.591488
30
0.0
11
0.160505
21
0.589086
31
0.0
0
LINE
8
TOP
10
0.160505
20
0.589086
30
0.0
11
0.161753
21
0.586762
31
0.0
0
LINE
8
TOP
10
0.161753
20
0.586762
30
0.0
11
0.163152
21
0.584526
31
0.0
0
LINE
8
TOP
10
0.163152
20
0.584526
30
0.0
11
0.164697
21
0.582388
31
0.0
0
LINE
8
TOP
10
0.164697
20
0.582388
30
0.0
11
0.166381
21
0.580357
31
0.0
0
LINE
8
TOP
10
0.166381
20
0.580357
30
0.0
11
0.168196
21
0.578443
31
0.0
0
LINE
8
TOP
10
0.168196
20
0.578443
30
0.0
11
0.170134
21
0.576654
31
0.0
0
LINE
8
TOP
10
0.170134
20
0.576654
30
0.0
11
0.172186
21
0.574997
31
0.0
0
LINE
8
TOP
10
0.172186
20
0.574997
30
0.0
11
0.174345
21
0.573480
31
0.0
0
LINE
8
TOP
10
0.174345
20
0.573480
30
0.0
11
0.176599
21
0.572110
31
0.0
0
LINE
8
TOP
10
0.176599
20
0.572110
30
0.0
11
0.178939
21
0.570893
31
0.0
0
LINE
8
TOP
10
0.178939
20
0.570893
30
0.0
11
0.181355
21
0.569834
31
0.0
0
LINE
8
TOP
10
0.181355
20
0.569834
30
0.0
11
0.183836
21
0.568938
31
0.0
0
LINE
8
TOP
10
0.183836
20
0.568938
30
0.0
11
0.186371
21
0.568208
31
0.0
0
LINE
8
TOP
10
0.186371
20
0.568208
30
0.0
11
0.188949
21
0.567649
31
0.0
0
LINE
8
TOP
10
0.188949
20
0.567649
30
0.0
11
0.191558
21
0.567262
31
0.0
0
LINE
8
TOP
10
0.191558
20
0.567262
30
0.0
11
0.194187
21
0.567050
31
0.0
0
LINE
8
TOP
10
0.194187
20
0.567050
30
0.0
11
0.196825
21
0.567012
31
0.0
0
LINE
8
TOP
10
0.196825
20
0.567012
30
0.0
11
0.199459
21
0.567150
31
0.0
0
LINE
8
TOP
10
0.199459
20
0.567150
30
0.0
11
0.202078
21
0.567463
31
0.0
0
LINE
8
TOP
10
0.202078
20
0.567463
30
0.0
11
0.204671
21
0.567949
31
0.0
0
LINE
8
TOP
10
0.204671
20
0.567949
30
0.0
11
0.207225
21
0.568606
31
0.0
0
LINE
8
TOP
10
0.207225
20
0.568606
30
0.0
11
0.209731
21
0.569431
31
0.0
0
LINE
8
TOP
10
0.209731
20
0.569431
30
0.0
11
0.212176
21
0.570421
31
0.0
0
LINE
8
TOP
10
0.212176
20
0.570421
30
0.0
11
0.214550
21
0.571571
31
0.0
0
LINE
8
TOP
10
0.214550
20
0.571571
30
0.0
11
0.216842
21
0.572877
31
0.0
0
LINE
8
TOP
10
0.216842
20
0.572877
30
0.0
11
0.219042
21
0.574332
31
0.0
0
LINE
8
TOP
10
0.219042
20
0.574332
30
0.0
11
0.221141
21
0.575929
31
0.0
0
LINE
8
TOP
10
0.221141
20
0.575929
30
0.0
11
0.223129
21
0.577663
31
0.0
0
LINE
8
TOP
10
0.223129
20
0.577663
30
0.0
11
0.224997
21
0.579525
31
0.0
0
LINE
8
TOP
10
0.224997
20
0.579525
30
0.0
11
0.226738
21
0.581507
31
0.0
0
LINE
8
TOP
10
0.226738
20
0.581507
30
0.0
11
0.228343
21
0.583601
31
0.0
0
LINE
8
TOP
10
0.228343
20
0.583601
30
0.0
11
0.229806
21
0.585796
31
0.0
0
LINE
8
TOP
10
0.229806
20
0.585796
30
0.0
11
0.231119
21
0.588083
31
0.0
0
LINE
8
TOP
10
0.231119
20
0.588083
30
0.0
11
0.232277
21
0.590453
31
0.0
0
LINE
8
TOP
10
0.232277
20
0.590453
30
0.0
11
0.233276
21
0.592895
31
0.0
0
LINE
8
TOP
10
0.233276
20
0.592895
30
0.0
11
0.234110
21
0.595397
31
0.0
0
LINE
8
TOP
10
0.234110
20
0.595397
30
0.0
11
0.234776
21
0.597950
31
0.0
0
LINE
8
TOP
10
0.234776
20
0.597950
30
0.0
11
0.235271
21
0.600541
31
0.0
0
LINE
8
TOP
10
0.235271
20
0.600541
30
0.0
11
0.235592
21
0.603159
31
0.0
0
LINE
8
TOP
10
0.235592
20
0.603159
30
0.0
11
0.235739
21
0.605793
31
0.0
0
LINE
8
TOP
10
0.235739
20
0.605793
30
0.0
11
0.235711
21
0.608430
31
0.0
0
LINE
8
TOP
10
0.235711
20
0.608430
30
0.0
11
0.235508
21
0.611060
31
0.0
0
LINE
8
TOP
10
0.235508
20
0.611060
30
0.0
11
0.235130
21
0.613671
31
0.0
0
LINE
8
TOP
10
0.235130
20
0.613671
30
0.0
11
0.234579
21
0.616251
31
0.0
0
LINE
8
TOP
10
0.234579
20
0.616251
30
0.0
11
0.233859
21
0.618788
31
0.0
0
LINE
8
TOP
10
0.233859
20
0.618788
30
0.0
11
0.232971
21
0.621272
31
0.0
0
LINE
8
TOP
10
0.232971
20
0.621272
30
0.0
11
0.231921
21
0.623692
31
0.0
0
LINE
8
TOP
10
0.231921
20
0.623692
30
0.0
11
0.230712
21
0.626036
31
0.0
0
LINE
8
TOP
10
0.230712
20
0.626036
30
0.0
11
0.229349
21
0.628295
31
0.0
0
LINE
8
TOP
10
0.229349
20
0.628295
30
0.0
11
0.227840
21
0.630458
31
0.0
0
LINE
8
TOP
10
0.227840
20
0.630458
30
0.0
11
0.226190
21
0.632517
31
0.0
0
LINE
8
TOP
10
0.226190
20
0.632517
30
0.0
11
0.224408
21
0.634461
31
0.0
0
LINE
8
TOP
10
0.224408
20
0.634461
30
0.0
11
0.222500
21
0.636282
31
0.0
0
LINE
8
TOP
10
0.222500
20
0.636282
30
0.0
11
0.220475
21
0.637973
31
0.0
0
LINE
8
TOP
10
0.220475
20
0.637973
30
0.0
11
0.218342
21
0.639525
31
0.0
0
LINE
8
TOP
10
0.218342
20
0.639525
30
0.0
11
0.216111
21
0.640933
31
0.0
0
LINE
8
TOP
10
0.216111
20
0.640933
30
0.0
11
0.213791
21
0.642189
31
0.0
0
LINE
8
TOP
10
0.213791
20
0.642189
30
0.0
11
0.211394
21
0.643288
31
0.0
0
LINE
8
TOP
10
0.211394
20
0.643288
30
0.0
11
0.208928
21
0.644225
31
0.0
0
LINE
8
TOP
10
0.208928
20
0.644225
30
0.0
11
0.206405
21
0.644996
31
0.0
0
ENDSEC
0
EOF
