0
SECTION
2
HEADER
9
$ACADVER
1
AC1009
0
ENDSEC
0
SECTION
2
TABLES
0
TABLE
2
LTYPE
70
3
0
LTYPE
2
CONTINUOUS
70
0
3
Solid line
72
65
73
0
40
0.0
0
LTYPE
2
HIDDEN
70
0
3
__ __ __ __ __
72
65
73
2
40
0.073100
49
0.048758
49
-0.024342
0
LTYPE
2
CENTER
70
0
3
___ _ ___ _ ___
72
65
73
4
40
0.170542
49
0.097442
49
-0.024342
49
0.024342
49
-0.024342
0
ENDTAB
0
TABLE
2
LAYER
70
6
0
LAYER
2
0
70
0
62
7
6
CONTINUOUS
0
LAYER
2
FRONT
70
0
62
7
6
CONTINUOUS
0
LAYER
2
FRONT_HID
70
0
62
7
6
HIDDEN
0
LAYER
2
LEFT
70
0
62
7
6
CONTINUOUS
0
LAYER
2
LEFT_HID
70
0
62
7
6
HIDDEN
0
LAYER
2
TOP
70
0
62
7
6
CONTINUOUS
0
ENDTAB
0
ENDSEC
0
SECTION
2
ENTITIES
0
LINE
8
FRONT
10
0.000000
20
1.032041
30
0.0
11
0.000000
21
1.713859
31
0.0
0
LINE
8
FRONT
10
1.461994
20
1.032041
30
0.0
11
1.461994
21
1.713859
31
0.0
0
LINE
8
FRONT
10
1.461994
20
1.713859
30
0.0
11
1.394848
21
1.713859
31
0.0
0
LINE
8
FRONT
10
1.394848
20
1.032041
30
0.0
11
1.394848
21
1.713859
31
0.0
0
LINE
8
FRONT
10
1.461994
20
1.032041
30
0.0
11
1.394848
21
1.032041
31
0.0
0
LINE
8
FRONT
10
1.394848
20
1.713859
30
0.0
11
1.276452
21
1.713859
31
0.0
0
LINE
8
FRONT
10
1.276452
20
1.032041
30
0.0
11
1.276452
21
1.713859
31
0.0
0
LINE
8
FRONT
10
1.394848
20
1.032041
30
0.0
11
1.276452
21
1.032041
31
0.0
0
LINE
8
FRONT
10
1.276452
20
1.713859
30
0.0
11
0.730997
21
1.713859
31
0.0
0
LINE
8
FRONT
10
1.276452
20
1.032041
30
0.0
11
0.730997
21
1.032041
31
0.0
0
LINE
8
FRONT
10
0.730997
20
1.713859
30
0.0
11
0.185542
21
1.713859
31
0.0
0
LINE
8
FRONT
10
0.185542
20
1.032041
30
0.0
11
0.185542
21
1.713859
31
0.0
0
LINE
8
FRONT
10
0.730997
20
1.032041
30
0.0
11
0.185542
21
1.032041
31
0.0
0
LINE
8
FRONT
10
0.185542
20
1.713859
30
0.0
11
0.067146
21
1.713859
31
0.0
0
LINE
8
FRONT
10
0.067146
20
1.032041
30
0.0
11
0.067146
21
1.713859
31
0.0
0
LINE
8
FRONT
10
0.185542
20
1.032041
30
0.0
11
0.067146
21
1.032041
31
0.0
0
LINE
8
FRONT
10
0.067146
20
1.713859
30
0.0
11
0.000000
21
1.713859
31
0.0
0
LINE
8
FRONT
10
0.067146
20
1.032041
30
0.0
11
0.000000
21
1.032041
31
0.0
0
LINE
8
FRONT_HID
6
HIDDEN
10
0.000000
20
1.713859
30
0.0
11
0.128331
21
1.713859
31
0.0
0
LINE
8
FRONT_HID
6
HIDDEN
10
0.128331
20
1.032041
30
0.0
11
0.128331
21
1.713859
31
0.0
0
LINE
8
FRONT_HID
6
HIDDEN
10
0.000000
20
1.032041
30
0.0
11
0.128331
21
1.032041
31
0.0
0
LINE
8
FRONT_HID
6
HIDDEN
10
0.128331
20
1.713859
30
0.0
11
0.730997
21
1.713859
31
0.0
0
LINE
8
FRONT_HID
6
HIDDEN
10
0.128331
20
1.032041
30
0.0
11
0.730997
21
1.032041
31
0.0
0
LINE
8
FRONT_HID
6
HIDDEN
10
0.730997
20
1.713859
30
0.0
11
1.333663
21
1.713859
31
0.0
0
LINE
8
FRONT_HID
6
HIDDEN
10
1.333663
20
1.032041
30
0.0
11
1.333663
21
1.713859
31
0.0
0
LINE
8
FRONT_HID
6
HIDDEN
10
0.730997
20
1.032041
30
0.0
11
1.333663
21
1.032041
31
0.0
0
LINE
8
FRONT_HID
6
HIDDEN
10
1.333663
20
1.713859
30
0.0
11
1.461994
21
1.713859
31
0.0
0
LINE
8
FRONT_HID
6
HIDDEN
10
1.333663
20
1.032041
30
0.0
11
1.461994
21
1.032041
31
0.0
0
LINE
8
LEFT
10
1.766233
20
1.032041
30
0.0
11
1.766233
21
1.713859
31
0.0
0
LINE
8
LEFT
10
1.766233
20
1.713859
30
0.0
11
2.494035
21
1.713859
31
0.0
0
LINE
8
LEFT
10
2.494035
20
1.032041
30
0.0
11
2.494035
21
1.713859
31
0.0
0
LINE
8
LEFT
10
1.766233
20
1.032041
30
0.0
11
2.494035
21
1.032041
31
0.0
0
LINE
8
LEFT
10
1.754393
20
1.032041
30
0.0
11
1.754393
21
1.713859
31
0.0
0
LINE
8
LEFT
10
1.754393
20
1.713859
30
0.0
11
1.766233
21
1.713859
31
0.0
0
LINE
8
LEFT
10
1.754393
20
1.032041
30
0.0
11
1.766233
21
1.032041
31
0.0
0
LINE
8
LEFT_HID
6
HIDDEN
10
1.754393
20
1.713859
30
0.0
11
2.425853
21
1.713859
31
0.0
0
LINE
8
LEFT_HID
6
HIDDEN
10
2.425853
20
1.032041
30
0.0
11
2.425853
21
1.713859
31
0.0
0
LINE
8
LEFT_HID
6
HIDDEN
10
1.754393
20
1.032041
30
0.0
11
2.425853
21
1.032041
31
0.0
0
LINE
8
LEFT_HID
6
HIDDEN
10
2.425853
20
1.032041
30
0.0
11
2.425853
21
1.713859
31
0.0
0
LINE
8
LEFT_HID
6
HIDDEN
10
2.425853
20
1.032041
30
0.0
11
2.425853
21
1.713859
31
0.0
0
LINE
8
LEFT_HID
6
HIDDEN
10
2.425853
20
1.713859
30
0.0
11
1.754393
21
1.713859
31
0.0
0
LINE
8
LEFT_HID
6
HIDDEN
10
2.425853
20
1.032041
30
0.0
11
1.754393
21
1.032041
31
0.0
0
LINE
8
TOP
10
0.000000
20
0.727802
30
0.0
11
0.128331
21
0.000000
31
0.0
0
LINE
8
TOP
10
0.128331
20
0.000000
30
0.0
11
0.730997
21
0.000000
31
0.0
0
LINE
8
TOP
10
0.730997
20
0.000000
30
0.0
11
1.333663
21
0.000000
31
0.0
0
LINE
8
TOP
10
1.333663
20
0.000000
30
0.0
11
1.461994
21
0.727802
31
0.0
0
LINE
8
TOP
10
1.461994
20
0.727802
30
0.0
11
1.394848
21
0.739642
31
0.0
0
LINE
8
TOP
10
1.394848
20
0.739642
30
0.0
11
1.276452
21
0.068182
31
0.0
0
LINE
8
TOP
10
1.276452
20
0.068182
30
0.0
11
0.730997
21
0.068182
31
0.0
0
LINE
8
TOP
10
0.730997
20
0.068182
30
0.0
11
0.185542
21
0.068182
31
0.0
0
LINE
8
TOP
10
0.185542
20
0.068182
30
0.0
11
0.067146
21
0.739642
31
0.0
0
LINE
8
TOP
10
0.067146
20
0.739642
30
0.0
11
0.000000
21
0.727802
31
0.0
0
ENDSEC
0
EOF
