0
SECTION
2
HEADER
9
$ACADVER
1
AC1009
0
ENDSEC
0
SECTION
2
TABLES
0
TABLE
2
LTYPE
70
3
0
LTYPE
2
CONTINUOUS
70
0
3
Solid line
72
65
73
0
40
0.0
0
LTYPE
2
HIDDEN
70
0
3
__ __ __ __ __
72
65
73
2
40
0.037500
49
0.025013
49
-0.012488
0
LTYPE
2
CENTER
70
0
3
___ _ ___ _ ___
72
65
73
4
40
0.087488
49
0.049988
49
-0.012488
49
0.012488
49
-0.012488
0
ENDTAB
0
TABLE
2
LAYER
70
4
0
LAYER
2
0
70
0
62
7
6
CONTINUOUS
0
LAYER
2
FRONT
70
0
62
7
6
CONTINUOUS
0
LAYER
2
LEFT
70
0
62
7
6
CONTINUOUS
0
LAYER
2
TOP
70
0
62
7
6
CONTINUOUS
0
ENDTAB
0
ENDSEC
0
SECTION
2
ENTITIES
0
LINE
8
FRONT
10
0.000000
20
0.150333
30
0.0
11
0.000000
21
0.150167
31
0.0
0
LINE
8
FRONT
10
0.000000
20
0.150167
30
0.0
11
0.000000
21
0.150333
31
0.0
0
LINE
8
FRONT
10
0.000000
20
0.150333
30
0.0
11
0.750000
21
0.150333
31
0.0
0
LINE
8
FRONT
10
0.750000
20
0.150333
30
0.0
11
0.750000
21
0.150167
31
0.0
0
LINE
8
FRONT
10
0.750000
20
0.150167
30
0.0
11
0.750000
21
0.150333
31
0.0
0
LINE
8
FRONT
10
0.750000
20
0.150167
30
0.0
11
0.000000
21
0.150167
31
0.0
0
LINE
8
LEFT
10
0.900083
20
0.150333
30
0.0
11
0.900092
21
0.150333
31
0.0
0
LINE
8
LEFT
10
0.900092
20
0.150333
30
0.0
11
0.900100
21
0.150332
31
0.0
0
LINE
8
LEFT
10
0.900100
20
0.150332
30
0.0
11
0.900108
21
0.150329
31
0.0
0
LINE
8
LEFT
10
0.900108
20
0.150329
30
0.0
11
0.900116
21
0.150327
31
0.0
0
LINE
8
LEFT
10
0.900116
20
0.150327
30
0.0
11
0.900123
21
0.150323
31
0.0
0
LINE
8
LEFT
10
0.900123
20
0.150323
30
0.0
11
0.900130
21
0.150319
31
0.0
0
LINE
8
LEFT
10
0.900130
20
0.150319
30
0.0
11
0.900137
21
0.150314
31
0.0
0
LINE
8
LEFT
10
0.900137
20
0.150314
30
0.0
11
0.900143
21
0.150308
31
0.0
0
LINE
8
LEFT
10
0.900143
20
0.150308
30
0.0
11
0.900148
21
0.150302
31
0.0
0
LINE
8
LEFT
10
0.900148
20
0.150302
30
0.0
11
0.900153
21
0.150295
31
0.0
0
LINE
8
LEFT
10
0.900153
20
0.150295
30
0.0
11
0.900157
21
0.150288
31
0.0
0
LINE
8
LEFT
10
0.900157
20
0.150288
30
0.0
11
0.900161
21
0.150280
31
0.0
0
LINE
8
LEFT
10
0.900161
20
0.150280
30
0.0
11
0.900164
21
0.150272
31
0.0
0
LINE
8
LEFT
10
0.900164
20
0.150272
30
0.0
11
0.900165
21
0.150264
31
0.0
0
LINE
8
LEFT
10
0.900165
20
0.150264
30
0.0
11
0.900166
21
0.150256
31
0.0
0
LINE
8
LEFT
10
0.900166
20
0.150256
30
0.0
11
0.900167
21
0.150248
31
0.0
0
LINE
8
LEFT
10
0.900167
20
0.150248
30
0.0
11
0.900166
21
0.150240
31
0.0
0
LINE
8
LEFT
10
0.900166
20
0.150240
30
0.0
11
0.900165
21
0.150231
31
0.0
0
LINE
8
LEFT
10
0.900165
20
0.150231
30
0.0
11
0.900162
21
0.150223
31
0.0
0
LINE
8
LEFT
10
0.900162
20
0.150223
30
0.0
11
0.900159
21
0.150216
31
0.0
0
LINE
8
LEFT
10
0.900159
20
0.150216
30
0.0
11
0.900155
21
0.150208
31
0.0
0
LINE
8
LEFT
10
0.900155
20
0.150208
30
0.0
11
0.900151
21
0.150201
31
0.0
0
LINE
8
LEFT
10
0.900151
20
0.150201
30
0.0
11
0.900146
21
0.150195
31
0.0
0
LINE
8
LEFT
10
0.900146
20
0.150195
30
0.0
11
0.900140
21
0.150189
31
0.0
0
LINE
8
LEFT
10
0.900140
20
0.150189
30
0.0
11
0.900134
21
0.150183
31
0.0
0
LINE
8
LEFT
10
0.900134
20
0.150183
30
0.0
11
0.900127
21
0.150179
31
0.0
0
LINE
8
LEFT
10
0.900127
20
0.150179
30
0.0
11
0.900119
21
0.150175
31
0.0
0
LINE
8
LEFT
10
0.900119
20
0.150175
30
0.0
11
0.900112
21
0.150172
31
0.0
0
LINE
8
LEFT
10
0.900112
20
0.150172
30
0.0
11
0.900104
21
0.150169
31
0.0
0
LINE
8
LEFT
10
0.900104
20
0.150169
30
0.0
11
0.900096
21
0.150167
31
0.0
0
LINE
8
LEFT
10
0.900096
20
0.150167
30
0.0
11
0.900087
21
0.150167
31
0.0
0
LINE
8
LEFT
10
0.900087
20
0.150167
30
0.0
11
0.900079
21
0.150167
31
0.0
0
LINE
8
LEFT
10
0.900079
20
0.150167
30
0.0
11
0.900071
21
0.150167
31
0.0
0
LINE
8
LEFT
10
0.900071
20
0.150167
30
0.0
11
0.900063
21
0.150169
31
0.0
0
LINE
8
LEFT
10
0.900063
20
0.150169
30
0.0
11
0.900055
21
0.150172
31
0.0
0
LINE
8
LEFT
10
0.900055
20
0.150172
30
0.0
11
0.900047
21
0.150175
31
0.0
0
LINE
8
LEFT
10
0.900047
20
0.150175
30
0.0
11
0.900040
21
0.150179
31
0.0
0
LINE
8
LEFT
10
0.900040
20
0.150179
30
0.0
11
0.900033
21
0.150183
31
0.0
0
LINE
8
LEFT
10
0.900033
20
0.150183
30
0.0
11
0.900027
21
0.150189
31
0.0
0
LINE
8
LEFT
10
0.900027
20
0.150189
30
0.0
11
0.900021
21
0.150195
31
0.0
0
LINE
8
LEFT
10
0.900021
20
0.150195
30
0.0
11
0.900016
21
0.150201
31
0.0
0
LINE
8
LEFT
10
0.900016
20
0.150201
30
0.0
11
0.900011
21
0.150208
31
0.0
0
LINE
8
LEFT
10
0.900011
20
0.150208
30
0.0
11
0.900007
21
0.150216
31
0.0
0
LINE
8
LEFT
10
0.900007
20
0.150216
30
0.0
11
0.900004
21
0.150223
31
0.0
0
LINE
8
LEFT
10
0.900004
20
0.150223
30
0.0
11
0.900002
21
0.150231
31
0.0
0
LINE
8
LEFT
10
0.900002
20
0.150231
30
0.0
11
0.900001
21
0.150240
31
0.0
0
LINE
8
LEFT
10
0.900001
20
0.150240
30
0.0
11
0.900000
21
0.150248
31
0.0
0
LINE
8
LEFT
10
0.900000
20
0.150248
30
0.0
11
0.900000
21
0.150256
31
0.0
0
LINE
8
LEFT
10
0.900000
20
0.150256
30
0.0
11
0.900001
21
0.150264
31
0.0
0
LINE
8
LEFT
10
0.900001
20
0.150264
30
0.0
11
0.900003
21
0.150272
31
0.0
0
LINE
8
LEFT
10
0.900003
20
0.150272
30
0.0
11
0.900006
21
0.150280
31
0.0
0
LINE
8
LEFT
10
0.900006
20
0.150280
30
0.0
11
0.900009
21
0.150288
31
0.0
0
LINE
8
LEFT
10
0.900009
20
0.150288
30
0.0
11
0.900013
21
0.150295
31
0.0
0
LINE
8
LEFT
10
0.900013
20
0.150295
30
0.0
11
0.900018
21
0.150302
31
0.0
0
LINE
8
LEFT
10
0.900018
20
0.150302
30
0.0
11
0.900024
21
0.150308
31
0.0
0
LINE
8
LEFT
10
0.900024
20
0.150308
30
0.0
11
0.900030
21
0.150314
31
0.0
0
LINE
8
LEFT
10
0.900030
20
0.150314
30
0.0
11
0.900036
21
0.150319
31
0.0
0
LINE
8
LEFT
10
0.900036
20
0.150319
30
0.0
11
0.900043
21
0.150323
31
0.0
0
LINE
8
LEFT
10
0.900043
20
0.150323
30
0.0
11
0.900051
21
0.150327
31
0.0
0
LINE
8
LEFT
10
0.900051
20
0.150327
30
0.0
11
0.900059
21
0.150329
31
0.0
0
LINE
8
LEFT
10
0.900059
20
0.150329
30
0.0
11
0.900067
21
0.150332
31
0.0
0
LINE
8
LEFT
10
0.900067
20
0.150332
30
0.0
11
0.900075
21
0.150333
31
0.0
0
LINE
8
LEFT
10
0.900075
20
0.150333
30
0.0
11
0.900083
21
0.150333
31
0.0
0
LINE
8
TOP
10
0.000000
20
0.000083
30
0.0
11
0.000000
21
0.000000
31
0.0
0
LINE
8
TOP
10
0.000000
20
0.000000
30
0.0
11
0.000000
21
0.000167
31
0.0
0
LINE
8
TOP
10
0.000000
20
0.000167
30
0.0
11
0.000000
21
0.000083
31
0.0
0
LINE
8
TOP
10
0.750000
20
0.000083
30
0.0
11
0.750000
21
0.000000
31
0.0
0
LINE
8
TOP
10
0.750000
20
0.000000
30
0.0
11
0.750000
21
0.000167
31
0.0
0
LINE
8
TOP
10
0.750000
20
0.000167
30
0.0
11
0.750000
21
0.000083
31
0.0
0
LINE
8
TOP
10
0.750000
20
0.000167
30
0.0
11
0.000000
21
0.000167
31
0.0
0
LINE
8
TOP
10
0.750000
20
0.000000
30
0.0
11
0.000000
21
0.000000
31
0.0
0
ENDSEC
0
EOF
