0
SECTION
2
HEADER
9
$ACADVER
1
AC1009
0
ENDSEC
0
SECTION
2
TABLES
0
TABLE
2
LTYPE
70
3
0
LTYPE
2
CONTINUOUS
70
0
3
Solid line
72
65
73
0
40
0.0
0
LTYPE
2
HIDDEN
70
0
3
__ __ __ __ __
72
65
73
2
40
0.037500
49
0.025013
49
-0.012488
0
LTYPE
2
CENTER
70
0
3
___ _ ___ _ ___
72
65
73
4
40
0.087488
49
0.049988
49
-0.012488
49
0.012488
49
-0.012488
0
ENDTAB
0
TABLE
2
LAYER
70
7
0
LAYER
2
0
70
0
62
7
6
CONTINUOUS
0
LAYER
2
FRONT
70
0
62
7
6
CONTINUOUS
0
LAYER
2
FRONT_HID
70
0
62
7
6
HIDDEN
0
LAYER
2
LEFT
70
0
62
7
6
CONTINUOUS
0
LAYER
2
LEFT_HID
70
0
62
7
6
HIDDEN
0
LAYER
2
TOP
70
0
62
7
6
CONTINUOUS
0
LAYER
2
TOP_HID
70
0
62
7
6
HIDDEN
0
ENDTAB
0
ENDSEC
0
SECTION
2
ENTITIES
0
LINE
8
FRONT
10
0.000000
20
0.171090
30
0.0
11
0.000000
21
0.358590
31
0.0
0
LINE
8
FRONT
10
0.244788
20
0.171090
30
0.0
11
0.000000
21
0.171090
31
0.0
0
LINE
8
FRONT
10
0.256137
20
0.171090
30
0.0
11
0.256137
21
0.921090
31
0.0
0
LINE
8
FRONT
10
0.256137
20
0.921090
30
0.0
11
0.240512
21
0.921090
31
0.0
0
LINE
8
FRONT
10
0.256137
20
0.171090
30
0.0
11
0.244788
21
0.171090
31
0.0
0
LINE
8
FRONT
10
0.244788
20
0.358590
30
0.0
11
0.000000
21
0.358590
31
0.0
0
LINE
8
FRONT
10
0.244788
20
0.171090
30
0.0
11
0.244788
21
0.358590
31
0.0
0
LINE
8
FRONT
10
0.240512
20
0.921090
30
0.0
11
0.240512
21
0.358590
31
0.0
0
LINE
8
FRONT_HID
6
HIDDEN
10
0.000000
20
0.171090
30
0.0
11
0.240853
21
0.171090
31
0.0
0
LINE
8
FRONT_HID
6
HIDDEN
10
0.000000
20
0.358590
30
0.0
11
0.240853
21
0.358590
31
0.0
0
LINE
8
FRONT_HID
6
HIDDEN
10
0.240853
20
0.358590
30
0.0
11
0.240853
21
0.171090
31
0.0
0
LINE
8
FRONT_HID
6
HIDDEN
10
0.240516
20
0.171090
30
0.0
11
0.240853
21
0.171090
31
0.0
0
LINE
8
FRONT_HID
6
HIDDEN
10
0.240516
20
0.171090
30
0.0
11
0.237965
21
0.171090
31
0.0
0
LINE
8
FRONT_HID
6
HIDDEN
10
0.237965
20
0.171090
30
0.0
11
0.244788
21
0.171090
31
0.0
0
LINE
8
FRONT_HID
6
HIDDEN
10
0.240516
20
0.358590
30
0.0
11
0.240516
21
0.171090
31
0.0
0
LINE
8
FRONT_HID
6
HIDDEN
10
0.240853
20
0.358590
30
0.0
11
0.240516
21
0.358590
31
0.0
0
LINE
8
FRONT_HID
6
HIDDEN
10
0.240853
20
0.171090
30
0.0
11
0.256137
21
0.171090
31
0.0
0
LINE
8
FRONT_HID
6
HIDDEN
10
0.244788
20
0.171090
30
0.0
11
0.240512
21
0.171090
31
0.0
0
LINE
8
FRONT_HID
6
HIDDEN
10
0.240512
20
0.171090
30
0.0
11
0.240512
21
0.171090
31
0.0
0
LINE
8
FRONT_HID
6
HIDDEN
10
0.240516
20
0.358590
30
0.0
11
0.237965
21
0.358590
31
0.0
0
LINE
8
FRONT_HID
6
HIDDEN
10
0.237965
20
0.358590
30
0.0
11
0.244788
21
0.358590
31
0.0
0
LINE
8
FRONT_HID
6
HIDDEN
10
0.240853
20
0.171090
30
0.0
11
0.245778
21
0.171090
31
0.0
0
LINE
8
FRONT_HID
6
HIDDEN
10
0.245778
20
0.171090
30
0.0
11
0.240516
21
0.171090
31
0.0
0
LINE
8
FRONT_HID
6
HIDDEN
10
0.240512
20
0.358590
30
0.0
11
0.240512
21
0.171090
31
0.0
0
LINE
8
FRONT_HID
6
HIDDEN
10
0.237965
20
0.358590
30
0.0
11
0.237965
21
0.171090
31
0.0
0
LINE
8
LEFT
10
0.421699
20
0.171090
30
0.0
11
0.421699
21
0.358590
31
0.0
0
LINE
8
LEFT
10
0.406137
20
0.171090
30
0.0
11
0.421699
21
0.171090
31
0.0
0
LINE
8
LEFT
10
0.421699
20
0.171090
30
0.0
11
0.427227
21
0.171090
31
0.0
0
LINE
8
LEFT
10
0.411602
20
0.921090
30
0.0
11
0.427227
21
0.921090
31
0.0
0
LINE
8
LEFT
10
0.406137
20
0.358590
30
0.0
11
0.421699
21
0.358590
31
0.0
0
LINE
8
LEFT
10
0.406137
20
0.171090
30
0.0
11
0.406137
21
0.358590
31
0.0
0
LINE
8
LEFT
10
0.411602
20
0.921090
30
0.0
11
0.411602
21
0.358590
31
0.0
0
LINE
8
LEFT
10
0.427227
20
0.921090
30
0.0
11
0.427227
21
0.171090
31
0.0
0
LINE
8
LEFT_HID
6
HIDDEN
10
0.419661
20
0.171090
30
0.0
11
0.421699
21
0.171090
31
0.0
0
LINE
8
LEFT_HID
6
HIDDEN
10
0.419661
20
0.171090
30
0.0
11
0.406137
21
0.171090
31
0.0
0
LINE
8
LEFT_HID
6
HIDDEN
10
0.419661
20
0.358590
30
0.0
11
0.419661
21
0.171090
31
0.0
0
LINE
8
LEFT_HID
6
HIDDEN
10
0.421699
20
0.358590
30
0.0
11
0.419661
21
0.358590
31
0.0
0
LINE
8
LEFT_HID
6
HIDDEN
10
0.427227
20
0.171090
30
0.0
11
0.419415
21
0.171090
31
0.0
0
LINE
8
LEFT_HID
6
HIDDEN
10
0.419415
20
0.921090
30
0.0
11
0.411602
21
0.921090
31
0.0
0
LINE
8
LEFT_HID
6
HIDDEN
10
0.427227
20
0.921090
30
0.0
11
0.419415
21
0.921090
31
0.0
0
LINE
8
LEFT_HID
6
HIDDEN
10
0.419415
20
0.171090
30
0.0
11
0.411602
21
0.171090
31
0.0
0
LINE
8
LEFT_HID
6
HIDDEN
10
0.411602
20
0.171090
30
0.0
11
0.419661
21
0.171090
31
0.0
0
LINE
8
LEFT_HID
6
HIDDEN
10
0.419661
20
0.358590
30
0.0
11
0.406137
21
0.358590
31
0.0
0
LINE
8
LEFT_HID
6
HIDDEN
10
0.421699
20
0.171090
30
0.0
11
0.419661
21
0.171090
31
0.0
0
LINE
8
LEFT_HID
6
HIDDEN
10
0.411602
20
0.358590
30
0.0
11
0.411602
21
0.171090
31
0.0
0
LINE
8
TOP
10
0.000000
20
0.005528
30
0.0
11
0.240853
21
0.005528
31
0.0
0
LINE
8
TOP
10
0.256137
20
0.007812
30
0.0
11
0.256098
21
0.008590
31
0.0
0
LINE
8
TOP
10
0.256098
20
0.008590
30
0.0
11
0.255982
21
0.009360
31
0.0
0
LINE
8
TOP
10
0.255982
20
0.009360
30
0.0
11
0.255790
21
0.010115
31
0.0
0
LINE
8
TOP
10
0.255790
20
0.010115
30
0.0
11
0.255523
21
0.010847
31
0.0
0
LINE
8
TOP
10
0.255523
20
0.010847
30
0.0
11
0.255185
21
0.011548
31
0.0
0
LINE
8
TOP
10
0.255185
20
0.011548
30
0.0
11
0.254779
21
0.012213
31
0.0
0
LINE
8
TOP
10
0.254779
20
0.012213
30
0.0
11
0.254309
21
0.012834
31
0.0
0
LINE
8
TOP
10
0.254309
20
0.012834
30
0.0
11
0.253779
21
0.013405
31
0.0
0
LINE
8
TOP
10
0.253779
20
0.013405
30
0.0
11
0.253195
21
0.013920
31
0.0
0
LINE
8
TOP
10
0.253195
20
0.013920
30
0.0
11
0.252563
21
0.014375
31
0.0
0
LINE
8
TOP
10
0.252563
20
0.014375
30
0.0
11
0.251888
21
0.014764
31
0.0
0
LINE
8
TOP
10
0.251888
20
0.014764
30
0.0
11
0.251178
21
0.015085
31
0.0
0
LINE
8
TOP
10
0.251178
20
0.015085
30
0.0
11
0.250440
21
0.015333
31
0.0
0
LINE
8
TOP
10
0.250440
20
0.015333
30
0.0
11
0.249681
21
0.015506
31
0.0
0
LINE
8
TOP
10
0.249681
20
0.015506
30
0.0
11
0.248908
21
0.015603
31
0.0
0
LINE
8
TOP
10
0.248908
20
0.015603
30
0.0
11
0.248129
21
0.015622
31
0.0
0
LINE
8
TOP
10
0.248129
20
0.015622
30
0.0
11
0.247353
21
0.015564
31
0.0
0
LINE
8
TOP
10
0.247353
20
0.015564
30
0.0
11
0.246586
21
0.015429
31
0.0
0
LINE
8
TOP
10
0.246586
20
0.015429
30
0.0
11
0.245836
21
0.015218
31
0.0
0
LINE
8
TOP
10
0.245836
20
0.015218
30
0.0
11
0.245111
21
0.014933
31
0.0
0
LINE
8
TOP
10
0.245111
20
0.014933
30
0.0
11
0.244418
21
0.014578
31
0.0
0
LINE
8
TOP
10
0.244418
20
0.014578
30
0.0
11
0.243764
21
0.014155
31
0.0
0
LINE
8
TOP
10
0.243764
20
0.014155
30
0.0
11
0.243155
21
0.013670
31
0.0
0
LINE
8
TOP
10
0.243155
20
0.013670
30
0.0
11
0.242597
21
0.013126
31
0.0
0
LINE
8
TOP
10
0.242597
20
0.013126
30
0.0
11
0.242097
21
0.012529
31
0.0
0
LINE
8
TOP
10
0.242097
20
0.012529
30
0.0
11
0.241658
21
0.011886
31
0.0
0
LINE
8
TOP
10
0.241658
20
0.011886
30
0.0
11
0.241285
21
0.011202
31
0.0
0
LINE
8
TOP
10
0.241285
20
0.011202
30
0.0
11
0.240983
21
0.010484
31
0.0
0
LINE
8
TOP
10
0.240983
20
0.010484
30
0.0
11
0.240753
21
0.009740
31
0.0
0
LINE
8
TOP
10
0.240753
20
0.009740
30
0.0
11
0.240599
21
0.008977
31
0.0
0
LINE
8
TOP
10
0.240599
20
0.008977
30
0.0
11
0.240521
21
0.008202
31
0.0
0
LINE
8
TOP
10
0.240521
20
0.008202
30
0.0
11
0.240521
21
0.007423
31
0.0
0
LINE
8
TOP
10
0.240521
20
0.007423
30
0.0
11
0.240599
21
0.006648
31
0.0
0
LINE
8
TOP
10
0.240599
20
0.006648
30
0.0
11
0.240753
21
0.005884
31
0.0
0
LINE
8
TOP
10
0.240753
20
0.005884
30
0.0
11
0.240983
21
0.005140
31
0.0
0
LINE
8
TOP
10
0.240983
20
0.005140
30
0.0
11
0.241285
21
0.004422
31
0.0
0
LINE
8
TOP
10
0.241285
20
0.004422
30
0.0
11
0.241658
21
0.003738
31
0.0
0
LINE
8
TOP
10
0.241658
20
0.003738
30
0.0
11
0.242097
21
0.003095
31
0.0
0
LINE
8
TOP
10
0.242097
20
0.003095
30
0.0
11
0.242597
21
0.002498
31
0.0
0
LINE
8
TOP
10
0.242597
20
0.002498
30
0.0
11
0.243155
21
0.001954
31
0.0
0
LINE
8
TOP
10
0.243155
20
0.001954
30
0.0
11
0.243764
21
0.001469
31
0.0
0
LINE
8
TOP
10
0.243764
20
0.001469
30
0.0
11
0.244418
21
0.001046
31
0.0
0
LINE
8
TOP
10
0.244418
20
0.001046
30
0.0
11
0.245111
21
0.000691
31
0.0
0
LINE
8
TOP
10
0.245111
20
0.000691
30
0.0
11
0.245836
21
0.000406
31
0.0
0
LINE
8
TOP
10
0.245836
20
0.000406
30
0.0
11
0.246586
21
0.000196
31
0.0
0
LINE
8
TOP
10
0.246586
20
0.000196
30
0.0
11
0.247353
21
0.000060
31
0.0
0
LINE
8
TOP
10
0.247353
20
0.000060
30
0.0
11
0.248129
21
0.000002
31
0.0
0
LINE
8
TOP
10
0.248129
20
0.000002
30
0.0
11
0.248908
21
0.000021
31
0.0
0
LINE
8
TOP
10
0.248908
20
0.000021
30
0.0
11
0.249681
21
0.000118
31
0.0
0
LINE
8
TOP
10
0.249681
20
0.000118
30
0.0
11
0.250440
21
0.000292
31
0.0
0
LINE
8
TOP
10
0.250440
20
0.000292
30
0.0
11
0.251178
21
0.000540
31
0.0
0
LINE
8
TOP
10
0.251178
20
0.000540
30
0.0
11
0.251888
21
0.000860
31
0.0
0
LINE
8
TOP
10
0.251888
20
0.000860
30
0.0
11
0.252563
21
0.001249
31
0.0
0
LINE
8
TOP
10
0.252563
20
0.001249
30
0.0
11
0.253195
21
0.001704
31
0.0
0
LINE
8
TOP
10
0.253195
20
0.001704
30
0.0
11
0.253779
21
0.002219
31
0.0
0
LINE
8
TOP
10
0.253779
20
0.002219
30
0.0
11
0.254309
21
0.002790
31
0.0
0
LINE
8
TOP
10
0.254309
20
0.002790
30
0.0
11
0.254779
21
0.003411
31
0.0
0
LINE
8
TOP
10
0.254779
20
0.003411
30
0.0
11
0.255185
21
0.004076
31
0.0
0
LINE
8
TOP
10
0.255185
20
0.004076
30
0.0
11
0.255523
21
0.004777
31
0.0
0
LINE
8
TOP
10
0.255523
20
0.004777
30
0.0
11
0.255790
21
0.005509
31
0.0
0
LINE
8
TOP
10
0.255790
20
0.005509
30
0.0
11
0.255982
21
0.006264
31
0.0
0
LINE
8
TOP
10
0.255982
20
0.006264
30
0.0
11
0.256098
21
0.007034
31
0.0
0
LINE
8
TOP
10
0.256098
20
0.007034
30
0.0
11
0.256137
21
0.007812
31
0.0
0
LINE
8
TOP
10
0.244788
20
0.021090
30
0.0
11
0.000000
21
0.005528
31
0.0
0
LINE
8
TOP
10
0.240516
20
0.007566
30
0.0
11
0.240311
21
0.007760
31
0.0
0
LINE
8
TOP
10
0.240311
20
0.007760
30
0.0
11
0.240113
21
0.007961
31
0.0
0
LINE
8
TOP
10
0.240113
20
0.007961
30
0.0
11
0.239922
21
0.008169
31
0.0
0
LINE
8
TOP
10
0.239922
20
0.008169
30
0.0
11
0.239739
21
0.008384
31
0.0
0
LINE
8
TOP
10
0.239739
20
0.008384
30
0.0
11
0.239564
21
0.008605
31
0.0
0
LINE
8
TOP
10
0.239564
20
0.008605
30
0.0
11
0.239397
21
0.008832
31
0.0
0
LINE
8
TOP
10
0.239397
20
0.008832
30
0.0
11
0.239238
21
0.009066
31
0.0
0
LINE
8
TOP
10
0.239238
20
0.009066
30
0.0
11
0.239088
21
0.009305
31
0.0
0
LINE
8
TOP
10
0.239088
20
0.009305
30
0.0
11
0.238947
21
0.009549
31
0.0
0
LINE
8
TOP
10
0.238947
20
0.009549
30
0.0
11
0.238814
21
0.009798
31
0.0
0
LINE
8
TOP
10
0.238814
20
0.009798
30
0.0
11
0.238691
21
0.010052
31
0.0
0
LINE
8
TOP
10
0.238691
20
0.010052
30
0.0
11
0.238577
21
0.010310
31
0.0
0
LINE
8
TOP
10
0.238577
20
0.010310
30
0.0
11
0.238472
21
0.010572
31
0.0
0
LINE
8
TOP
10
0.238472
20
0.010572
30
0.0
11
0.238377
21
0.010838
31
0.0
0
LINE
8
TOP
10
0.238377
20
0.010838
30
0.0
11
0.238291
21
0.011106
31
0.0
0
LINE
8
TOP
10
0.238291
20
0.011106
30
0.0
11
0.238216
21
0.011378
31
0.0
0
LINE
8
TOP
10
0.238216
20
0.011378
30
0.0
11
0.238150
21
0.011653
31
0.0
0
LINE
8
TOP
10
0.238150
20
0.011653
30
0.0
11
0.238094
21
0.011929
31
0.0
0
LINE
8
TOP
10
0.238094
20
0.011929
30
0.0
11
0.238048
21
0.012208
31
0.0
0
LINE
8
TOP
10
0.238048
20
0.012208
30
0.0
11
0.238012
21
0.012487
31
0.0
0
LINE
8
TOP
10
0.238012
20
0.012487
30
0.0
11
0.237986
21
0.012769
31
0.0
0
LINE
8
TOP
10
0.237986
20
0.012769
30
0.0
11
0.237971
21
0.013050
31
0.0
0
LINE
8
TOP
10
0.237971
20
0.013050
30
0.0
11
0.237965
21
0.013332
31
0.0
0
LINE
8
TOP
10
0.237965
20
0.013332
30
0.0
11
0.237970
21
0.013615
31
0.0
0
LINE
8
TOP
10
0.237970
20
0.013615
30
0.0
11
0.237985
21
0.013896
31
0.0
0
LINE
8
TOP
10
0.237985
20
0.013896
30
0.0
11
0.238010
21
0.014177
31
0.0
0
LINE
8
TOP
10
0.238010
20
0.014177
30
0.0
11
0.238045
21
0.014457
31
0.0
0
LINE
8
TOP
10
0.238045
20
0.014457
30
0.0
11
0.238091
21
0.014736
31
0.0
0
LINE
8
TOP
10
0.238091
20
0.014736
30
0.0
11
0.238146
21
0.015013
31
0.0
0
LINE
8
TOP
10
0.238146
20
0.015013
30
0.0
11
0.238212
21
0.015287
31
0.0
0
LINE
8
TOP
10
0.238212
20
0.015287
30
0.0
11
0.238287
21
0.015559
31
0.0
0
LINE
8
TOP
10
0.238287
20
0.015559
30
0.0
11
0.238372
21
0.015828
31
0.0
0
LINE
8
TOP
10
0.238372
20
0.015828
30
0.0
11
0.238467
21
0.016094
31
0.0
0
LINE
8
TOP
10
0.238467
20
0.016094
30
0.0
11
0.238571
21
0.016356
31
0.0
0
LINE
8
TOP
10
0.238571
20
0.016356
30
0.0
11
0.238684
21
0.016614
31
0.0
0
LINE
8
TOP
10
0.238684
20
0.016614
30
0.0
11
0.238807
21
0.016868
31
0.0
0
LINE
8
TOP
10
0.238807
20
0.016868
30
0.0
11
0.238939
21
0.017118
31
0.0
0
LINE
8
TOP
10
0.238939
20
0.017118
30
0.0
11
0.239080
21
0.017362
31
0.0
0
LINE
8
TOP
10
0.239080
20
0.017362
30
0.0
11
0.239230
21
0.017602
31
0.0
0
LINE
8
TOP
10
0.239230
20
0.017602
30
0.0
11
0.239388
21
0.017835
31
0.0
0
LINE
8
TOP
10
0.239388
20
0.017835
30
0.0
11
0.239554
21
0.018063
31
0.0
0
LINE
8
TOP
10
0.239554
20
0.018063
30
0.0
11
0.239729
21
0.018285
31
0.0
0
LINE
8
TOP
10
0.239729
20
0.018285
30
0.0
11
0.239911
21
0.018500
31
0.0
0
LINE
8
TOP
10
0.239911
20
0.018500
30
0.0
11
0.240102
21
0.018708
31
0.0
0
LINE
8
TOP
10
0.240102
20
0.018708
30
0.0
11
0.240299
21
0.018910
31
0.0
0
LINE
8
TOP
10
0.240299
20
0.018910
30
0.0
11
0.240504
21
0.019104
31
0.0
0
LINE
8
TOP
10
0.240504
20
0.019104
30
0.0
11
0.240715
21
0.019291
31
0.0
0
LINE
8
TOP
10
0.240715
20
0.019291
30
0.0
11
0.240934
21
0.019470
31
0.0
0
LINE
8
TOP
10
0.240934
20
0.019470
30
0.0
11
0.241158
21
0.019641
31
0.0
0
LINE
8
TOP
10
0.241158
20
0.019641
30
0.0
11
0.241389
21
0.019803
31
0.0
0
LINE
8
TOP
10
0.241389
20
0.019803
30
0.0
11
0.241625
21
0.019958
31
0.0
0
LINE
8
TOP
10
0.241625
20
0.019958
30
0.0
11
0.241867
21
0.020103
31
0.0
0
LINE
8
TOP
10
0.241867
20
0.020103
30
0.0
11
0.242113
21
0.020240
31
0.0
0
LINE
8
TOP
10
0.242113
20
0.020240
30
0.0
11
0.242365
21
0.020368
31
0.0
0
LINE
8
TOP
10
0.242365
20
0.020368
30
0.0
11
0.242621
21
0.020487
31
0.0
0
LINE
8
TOP
10
0.242621
20
0.020487
30
0.0
11
0.242881
21
0.020596
31
0.0
0
LINE
8
TOP
10
0.242881
20
0.020596
30
0.0
11
0.243145
21
0.020696
31
0.0
0
LINE
8
TOP
10
0.243145
20
0.020696
30
0.0
11
0.243412
21
0.020786
31
0.0
0
LINE
8
TOP
10
0.243412
20
0.020786
30
0.0
11
0.243683
21
0.020867
31
0.0
0
LINE
8
TOP
10
0.243683
20
0.020867
30
0.0
11
0.243956
21
0.020937
31
0.0
0
LINE
8
TOP
10
0.243956
20
0.020937
30
0.0
11
0.244232
21
0.020998
31
0.0
0
LINE
8
TOP
10
0.244232
20
0.020998
30
0.0
11
0.244509
21
0.021049
31
0.0
0
LINE
8
TOP
10
0.244509
20
0.021049
30
0.0
11
0.244788
21
0.021090
31
0.0
0
LINE
8
TOP_HID
6
HIDDEN
10
0.240853
20
0.005528
30
0.0
11
0.240516
21
0.007566
31
0.0
0
LINE
8
TOP_HID
6
HIDDEN
10
0.240853
20
0.005528
30
0.0
11
0.240964
21
0.005193
31
0.0
0
LINE
8
TOP_HID
6
HIDDEN
10
0.240964
20
0.005193
30
0.0
11
0.241090
21
0.004863
31
0.0
0
LINE
8
TOP_HID
6
HIDDEN
10
0.241090
20
0.004863
30
0.0
11
0.241230
21
0.004540
31
0.0
0
LINE
8
TOP_HID
6
HIDDEN
10
0.241230
20
0.004540
30
0.0
11
0.241385
21
0.004223
31
0.0
0
LINE
8
TOP_HID
6
HIDDEN
10
0.241385
20
0.004223
30
0.0
11
0.241554
21
0.003913
31
0.0
0
LINE
8
TOP_HID
6
HIDDEN
10
0.241554
20
0.003913
30
0.0
11
0.241737
21
0.003612
31
0.0
0
LINE
8
TOP_HID
6
HIDDEN
10
0.241737
20
0.003612
30
0.0
11
0.241933
21
0.003319
31
0.0
0
LINE
8
TOP_HID
6
HIDDEN
10
0.241933
20
0.003319
30
0.0
11
0.242143
21
0.003035
31
0.0
0
LINE
8
TOP_HID
6
HIDDEN
10
0.242143
20
0.003035
30
0.0
11
0.242365
21
0.002760
31
0.0
0
LINE
8
TOP_HID
6
HIDDEN
10
0.242365
20
0.002760
30
0.0
11
0.242599
21
0.002497
31
0.0
0
LINE
8
TOP_HID
6
HIDDEN
10
0.242599
20
0.002497
30
0.0
11
0.242845
21
0.002244
31
0.0
0
LINE
8
TOP_HID
6
HIDDEN
10
0.242845
20
0.002244
30
0.0
11
0.243102
21
0.002002
31
0.0
0
LINE
8
TOP_HID
6
HIDDEN
10
0.243102
20
0.002002
30
0.0
11
0.243369
21
0.001772
31
0.0
0
LINE
8
TOP_HID
6
HIDDEN
10
0.243369
20
0.001772
30
0.0
11
0.243647
21
0.001555
31
0.0
0
LINE
8
TOP_HID
6
HIDDEN
10
0.243647
20
0.001555
30
0.0
11
0.243934
21
0.001350
31
0.0
0
LINE
8
TOP_HID
6
HIDDEN
10
0.243934
20
0.001350
30
0.0
11
0.244230
21
0.001158
31
0.0
0
LINE
8
TOP_HID
6
HIDDEN
10
0.244230
20
0.001158
30
0.0
11
0.244535
21
0.000980
31
0.0
0
LINE
8
TOP_HID
6
HIDDEN
10
0.244535
20
0.000980
30
0.0
11
0.244847
21
0.000816
31
0.0
0
LINE
8
TOP_HID
6
HIDDEN
10
0.244847
20
0.000816
30
0.0
11
0.245167
21
0.000666
31
0.0
0
LINE
8
TOP_HID
6
HIDDEN
10
0.245167
20
0.000666
30
0.0
11
0.245492
21
0.000531
31
0.0
0
LINE
8
TOP_HID
6
HIDDEN
10
0.245492
20
0.000531
30
0.0
11
0.245824
21
0.000411
31
0.0
0
LINE
8
TOP_HID
6
HIDDEN
10
0.245824
20
0.000411
30
0.0
11
0.246161
21
0.000305
31
0.0
0
LINE
8
TOP_HID
6
HIDDEN
10
0.246161
20
0.000305
30
0.0
11
0.246502
21
0.000215
31
0.0
0
LINE
8
TOP_HID
6
HIDDEN
10
0.246502
20
0.000215
30
0.0
11
0.246846
21
0.000141
31
0.0
0
LINE
8
TOP_HID
6
HIDDEN
10
0.246846
20
0.000141
30
0.0
11
0.247194
21
0.000082
31
0.0
0
LINE
8
TOP_HID
6
HIDDEN
10
0.247194
20
0.000082
30
0.0
11
0.247544
21
0.000039
31
0.0
0
LINE
8
TOP_HID
6
HIDDEN
10
0.247544
20
0.000039
30
0.0
11
0.247896
21
0.000011
31
0.0
0
LINE
8
TOP_HID
6
HIDDEN
10
0.247896
20
0.000011
30
0.0
11
0.248249
21
0.000000
31
0.0
0
LINE
8
TOP_HID
6
HIDDEN
10
0.248249
20
0.000000
30
0.0
11
0.248601
21
0.000005
31
0.0
0
LINE
8
TOP_HID
6
HIDDEN
10
0.248601
20
0.000005
30
0.0
11
0.248953
21
0.000025
31
0.0
0
LINE
8
TOP_HID
6
HIDDEN
10
0.248953
20
0.000025
30
0.0
11
0.249304
21
0.000061
31
0.0
0
LINE
8
TOP_HID
6
HIDDEN
10
0.249304
20
0.000061
30
0.0
11
0.249653
21
0.000114
31
0.0
0
LINE
8
TOP_HID
6
HIDDEN
10
0.249653
20
0.000114
30
0.0
11
0.249999
21
0.000181
31
0.0
0
LINE
8
TOP_HID
6
HIDDEN
10
0.249999
20
0.000181
30
0.0
11
0.250342
21
0.000265
31
0.0
0
LINE
8
TOP_HID
6
HIDDEN
10
0.250342
20
0.000265
30
0.0
11
0.250681
21
0.000364
31
0.0
0
LINE
8
TOP_HID
6
HIDDEN
10
0.250681
20
0.000364
30
0.0
11
0.251015
21
0.000477
31
0.0
0
LINE
8
TOP_HID
6
HIDDEN
10
0.251015
20
0.000477
30
0.0
11
0.251343
21
0.000606
31
0.0
0
LINE
8
TOP_HID
6
HIDDEN
10
0.251343
20
0.000606
30
0.0
11
0.251665
21
0.000750
31
0.0
0
LINE
8
TOP_HID
6
HIDDEN
10
0.251665
20
0.000750
30
0.0
11
0.251981
21
0.000908
31
0.0
0
LINE
8
TOP_HID
6
HIDDEN
10
0.251981
20
0.000908
30
0.0
11
0.252289
21
0.001080
31
0.0
0
LINE
8
TOP_HID
6
HIDDEN
10
0.252289
20
0.001080
30
0.0
11
0.252588
21
0.001266
31
0.0
0
LINE
8
TOP_HID
6
HIDDEN
10
0.252588
20
0.001266
30
0.0
11
0.252880
21
0.001465
31
0.0
0
LINE
8
TOP_HID
6
HIDDEN
10
0.252880
20
0.001465
30
0.0
11
0.253161
21
0.001677
31
0.0
0
LINE
8
TOP_HID
6
HIDDEN
10
0.253161
20
0.001677
30
0.0
11
0.253433
21
0.001902
31
0.0
0
LINE
8
TOP_HID
6
HIDDEN
10
0.253433
20
0.001902
30
0.0
11
0.253695
21
0.002138
31
0.0
0
LINE
8
TOP_HID
6
HIDDEN
10
0.253695
20
0.002138
30
0.0
11
0.253946
21
0.002387
31
0.0
0
LINE
8
TOP_HID
6
HIDDEN
10
0.253946
20
0.002387
30
0.0
11
0.254185
21
0.002646
31
0.0
0
LINE
8
TOP_HID
6
HIDDEN
10
0.254185
20
0.002646
30
0.0
11
0.254412
21
0.002916
31
0.0
0
LINE
8
TOP_HID
6
HIDDEN
10
0.254412
20
0.002916
30
0.0
11
0.254627
21
0.003196
31
0.0
0
LINE
8
TOP_HID
6
HIDDEN
10
0.254627
20
0.003196
30
0.0
11
0.254829
21
0.003485
31
0.0
0
LINE
8
TOP_HID
6
HIDDEN
10
0.254829
20
0.003485
30
0.0
11
0.255018
21
0.003783
31
0.0
0
LINE
8
TOP_HID
6
HIDDEN
10
0.255018
20
0.003783
30
0.0
11
0.255193
21
0.004089
31
0.0
0
LINE
8
TOP_HID
6
HIDDEN
10
0.255193
20
0.004089
30
0.0
11
0.255354
21
0.004403
31
0.0
0
LINE
8
TOP_HID
6
HIDDEN
10
0.255354
20
0.004403
30
0.0
11
0.255500
21
0.004724
31
0.0
0
LINE
8
TOP_HID
6
HIDDEN
10
0.255500
20
0.004724
30
0.0
11
0.255632
21
0.005051
31
0.0
0
LINE
8
TOP_HID
6
HIDDEN
10
0.255632
20
0.005051
30
0.0
11
0.255750
21
0.005384
31
0.0
0
LINE
8
TOP_HID
6
HIDDEN
10
0.255750
20
0.005384
30
0.0
11
0.255852
21
0.005721
31
0.0
0
LINE
8
TOP_HID
6
HIDDEN
10
0.255852
20
0.005721
30
0.0
11
0.255938
21
0.006063
31
0.0
0
LINE
8
TOP_HID
6
HIDDEN
10
0.255938
20
0.006063
30
0.0
11
0.256010
21
0.006409
31
0.0
0
LINE
8
TOP_HID
6
HIDDEN
10
0.256010
20
0.006409
30
0.0
11
0.256065
21
0.006757
31
0.0
0
LINE
8
TOP_HID
6
HIDDEN
10
0.256065
20
0.006757
30
0.0
11
0.256105
21
0.007108
31
0.0
0
LINE
8
TOP_HID
6
HIDDEN
10
0.256105
20
0.007108
30
0.0
11
0.256129
21
0.007459
31
0.0
0
LINE
8
TOP_HID
6
HIDDEN
10
0.256129
20
0.007459
30
0.0
11
0.256137
21
0.007812
31
0.0
0
LINE
8
TOP_HID
6
HIDDEN
10
0.256137
20
0.007812
30
0.0
11
0.256127
21
0.008205
31
0.0
0
LINE
8
TOP_HID
6
HIDDEN
10
0.256127
20
0.008205
30
0.0
11
0.256097
21
0.008598
31
0.0
0
LINE
8
TOP_HID
6
HIDDEN
10
0.256097
20
0.008598
30
0.0
11
0.256048
21
0.008988
31
0.0
0
LINE
8
TOP_HID
6
HIDDEN
10
0.256048
20
0.008988
30
0.0
11
0.255979
21
0.009375
31
0.0
0
LINE
8
TOP_HID
6
HIDDEN
10
0.255979
20
0.009375
30
0.0
11
0.255890
21
0.009759
31
0.0
0
LINE
8
TOP_HID
6
HIDDEN
10
0.255890
20
0.009759
30
0.0
11
0.255783
21
0.010137
31
0.0
0
LINE
8
TOP_HID
6
HIDDEN
10
0.255783
20
0.010137
30
0.0
11
0.255656
21
0.010510
31
0.0
0
LINE
8
TOP_HID
6
HIDDEN
10
0.255656
20
0.010510
30
0.0
11
0.255511
21
0.010876
31
0.0
0
LINE
8
TOP_HID
6
HIDDEN
10
0.255511
20
0.010876
30
0.0
11
0.255348
21
0.011234
31
0.0
0
LINE
8
TOP_HID
6
HIDDEN
10
0.255348
20
0.011234
30
0.0
11
0.255167
21
0.011583
31
0.0
0
LINE
8
TOP_HID
6
HIDDEN
10
0.255167
20
0.011583
30
0.0
11
0.254968
21
0.011922
31
0.0
0
LINE
8
TOP_HID
6
HIDDEN
10
0.254968
20
0.011922
30
0.0
11
0.254753
21
0.012252
31
0.0
0
LINE
8
TOP_HID
6
HIDDEN
10
0.254753
20
0.012252
30
0.0
11
0.254521
21
0.012570
31
0.0
0
LINE
8
TOP_HID
6
HIDDEN
10
0.254521
20
0.012570
30
0.0
11
0.254274
21
0.012876
31
0.0
0
LINE
8
TOP_HID
6
HIDDEN
10
0.254274
20
0.012876
30
0.0
11
0.254011
21
0.013169
31
0.0
0
LINE
8
TOP_HID
6
HIDDEN
10
0.254011
20
0.013169
30
0.0
11
0.253734
21
0.013448
31
0.0
0
LINE
8
TOP_HID
6
HIDDEN
10
0.253734
20
0.013448
30
0.0
11
0.253444
21
0.013714
31
0.0
0
LINE
8
TOP_HID
6
HIDDEN
10
0.253444
20
0.013714
30
0.0
11
0.253140
21
0.013964
31
0.0
0
LINE
8
TOP_HID
6
HIDDEN
10
0.253140
20
0.013964
30
0.0
11
0.252824
21
0.014198
31
0.0
0
LINE
8
TOP_HID
6
HIDDEN
10
0.252824
20
0.014198
30
0.0
11
0.252497
21
0.014417
31
0.0
0
LINE
8
TOP_HID
6
HIDDEN
10
0.252497
20
0.014417
30
0.0
11
0.252159
21
0.014619
31
0.0
0
LINE
8
TOP_HID
6
HIDDEN
10
0.252159
20
0.014619
30
0.0
11
0.251812
21
0.014803
31
0.0
0
LINE
8
TOP_HID
6
HIDDEN
10
0.251812
20
0.014803
30
0.0
11
0.251455
21
0.014970
31
0.0
0
LINE
8
TOP_HID
6
HIDDEN
10
0.251455
20
0.014970
30
0.0
11
0.251091
21
0.015118
31
0.0
0
LINE
8
TOP_HID
6
HIDDEN
10
0.251091
20
0.015118
30
0.0
11
0.250720
21
0.015248
31
0.0
0
LINE
8
TOP_HID
6
HIDDEN
10
0.250720
20
0.015248
30
0.0
11
0.250342
21
0.015360
31
0.0
0
LINE
8
TOP_HID
6
HIDDEN
10
0.250342
20
0.015360
30
0.0
11
0.249960
21
0.015452
31
0.0
0
LINE
8
TOP_HID
6
HIDDEN
10
0.249960
20
0.015452
30
0.0
11
0.249573
21
0.015524
31
0.0
0
LINE
8
TOP_HID
6
HIDDEN
10
0.249573
20
0.015524
30
0.0
11
0.249183
21
0.015577
31
0.0
0
LINE
8
TOP_HID
6
HIDDEN
10
0.249183
20
0.015577
30
0.0
11
0.248791
21
0.015611
31
0.0
0
LINE
8
TOP_HID
6
HIDDEN
10
0.248791
20
0.015611
30
0.0
11
0.248398
21
0.015624
31
0.0
0
LINE
8
TOP_HID
6
HIDDEN
10
0.248398
20
0.015624
30
0.0
11
0.248004
21
0.015618
31
0.0
0
LINE
8
TOP_HID
6
HIDDEN
10
0.248004
20
0.015618
30
0.0
11
0.247612
21
0.015592
31
0.0
0
LINE
8
TOP_HID
6
HIDDEN
10
0.247612
20
0.015592
30
0.0
11
0.247221
21
0.015546
31
0.0
0
LINE
8
TOP_HID
6
HIDDEN
10
0.247221
20
0.015546
30
0.0
11
0.246833
21
0.015481
31
0.0
0
LINE
8
TOP_HID
6
HIDDEN
10
0.246833
20
0.015481
30
0.0
11
0.246449
21
0.015396
31
0.0
0
LINE
8
TOP_HID
6
HIDDEN
10
0.246449
20
0.015396
30
0.0
11
0.246069
21
0.015292
31
0.0
0
LINE
8
TOP_HID
6
HIDDEN
10
0.246069
20
0.015292
30
0.0
11
0.245696
21
0.015169
31
0.0
0
LINE
8
TOP_HID
6
HIDDEN
10
0.245696
20
0.015169
30
0.0
11
0.245329
21
0.015027
31
0.0
0
LINE
8
TOP_HID
6
HIDDEN
10
0.245329
20
0.015027
30
0.0
11
0.244969
21
0.014868
31
0.0
0
LINE
8
TOP_HID
6
HIDDEN
10
0.244969
20
0.014868
30
0.0
11
0.244618
21
0.014690
31
0.0
0
LINE
8
TOP_HID
6
HIDDEN
10
0.244618
20
0.014690
30
0.0
11
0.244277
21
0.014494
31
0.0
0
LINE
8
TOP_HID
6
HIDDEN
10
0.244277
20
0.014494
30
0.0
11
0.243945
21
0.014282
31
0.0
0
LINE
8
TOP_HID
6
HIDDEN
10
0.243945
20
0.014282
30
0.0
11
0.243625
21
0.014053
31
0.0
0
LINE
8
TOP_HID
6
HIDDEN
10
0.243625
20
0.014053
30
0.0
11
0.243317
21
0.013809
31
0.0
0
LINE
8
TOP_HID
6
HIDDEN
10
0.243317
20
0.013809
30
0.0
11
0.243021
21
0.013549
31
0.0
0
LINE
8
TOP_HID
6
HIDDEN
10
0.243021
20
0.013549
30
0.0
11
0.242739
21
0.013275
31
0.0
0
LINE
8
TOP_HID
6
HIDDEN
10
0.242739
20
0.013275
30
0.0
11
0.242471
21
0.012987
31
0.0
0
LINE
8
TOP_HID
6
HIDDEN
10
0.242471
20
0.012987
30
0.0
11
0.242218
21
0.012686
31
0.0
0
LINE
8
TOP_HID
6
HIDDEN
10
0.242218
20
0.012686
30
0.0
11
0.241981
21
0.012372
31
0.0
0
LINE
8
TOP_HID
6
HIDDEN
10
0.241981
20
0.012372
30
0.0
11
0.241759
21
0.012047
31
0.0
0
LINE
8
TOP_HID
6
HIDDEN
10
0.241759
20
0.012047
30
0.0
11
0.241554
21
0.011711
31
0.0
0
LINE
8
TOP_HID
6
HIDDEN
10
0.241554
20
0.011711
30
0.0
11
0.241366
21
0.011365
31
0.0
0
LINE
8
TOP_HID
6
HIDDEN
10
0.241366
20
0.011365
30
0.0
11
0.241196
21
0.011010
31
0.0
0
LINE
8
TOP_HID
6
HIDDEN
10
0.241196
20
0.011010
30
0.0
11
0.241044
21
0.010647
31
0.0
0
LINE
8
TOP_HID
6
HIDDEN
10
0.241044
20
0.010647
30
0.0
11
0.240911
21
0.010277
31
0.0
0
LINE
8
TOP_HID
6
HIDDEN
10
0.240911
20
0.010277
30
0.0
11
0.240796
21
0.009901
31
0.0
0
LINE
8
TOP_HID
6
HIDDEN
10
0.240796
20
0.009901
30
0.0
11
0.240701
21
0.009519
31
0.0
0
LINE
8
TOP_HID
6
HIDDEN
10
0.240701
20
0.009519
30
0.0
11
0.240624
21
0.009133
31
0.0
0
LINE
8
TOP_HID
6
HIDDEN
10
0.240624
20
0.009133
30
0.0
11
0.240568
21
0.008744
31
0.0
0
LINE
8
TOP_HID
6
HIDDEN
10
0.240568
20
0.008744
30
0.0
11
0.240530
21
0.008352
31
0.0
0
LINE
8
TOP_HID
6
HIDDEN
10
0.240530
20
0.008352
30
0.0
11
0.240513
21
0.007959
31
0.0
0
LINE
8
TOP_HID
6
HIDDEN
10
0.240513
20
0.007959
30
0.0
11
0.240516
21
0.007566
31
0.0
0
ENDSEC
0
EOF
