0
SECTION
2
HEADER
9
$ACADVER
1
AC1009
0
ENDSEC
0
SECTION
2
TABLES
0
TABLE
2
LTYPE
70
3
0
LTYPE
2
CONTINUOUS
70
0
3
Solid line
72
65
73
0
40
0.0
0
LTYPE
2
HIDDEN
70
0
3
__ __ __ __ __
72
65
73
2
40
0.042416
49
0.028292
49
-0.014125
0
LTYPE
2
CENTER
70
0
3
___ _ ___ _ ___
72
65
73
4
40
0.098957
49
0.056541
49
-0.014125
49
0.014125
49
-0.014125
0
ENDTAB
0
TABLE
2
LAYER
70
6
0
LAYER
2
0
70
0
62
7
6
CONTINUOUS
0
LAYER
2
FRONT
70
0
62
7
6
CONTINUOUS
0
LAYER
2
LEFT
70
0
62
7
6
CONTINUOUS
0
LAYER
2
LEFT_HID
70
0
62
7
6
HIDDEN
0
LAYER
2
TOP
70
0
62
7
6
CONTINUOUS
0
LAYER
2
TOP_HID
70
0
62
7
6
HIDDEN
0
ENDTAB
0
ENDSEC
0
SECTION
2
ENTITIES
0
LINE
8
FRONT
10
0.000000
20
0.288659
30
0.0
11
0.054166
21
0.259800
31
0.0
0
LINE
8
FRONT
10
0.054166
20
0.259800
30
0.0
11
0.076438
21
0.251920
31
0.0
0
LINE
8
FRONT
10
0.076438
20
0.251920
30
0.0
11
0.099115
21
0.245293
31
0.0
0
LINE
8
FRONT
10
0.099115
20
0.245293
30
0.0
11
0.122126
21
0.239939
31
0.0
0
LINE
8
FRONT
10
0.122126
20
0.239939
30
0.0
11
0.145399
21
0.235875
31
0.0
0
LINE
8
FRONT
10
0.145399
20
0.235875
30
0.0
11
0.168862
21
0.233112
31
0.0
0
LINE
8
FRONT
10
0.168862
20
0.233112
30
0.0
11
0.192443
21
0.231660
31
0.0
0
LINE
8
FRONT
10
0.192443
20
0.231660
30
0.0
11
0.216068
21
0.231523
31
0.0
0
LINE
8
FRONT
10
0.216068
20
0.231523
30
0.0
11
0.239664
21
0.232702
31
0.0
0
LINE
8
FRONT
10
0.239664
20
0.232702
30
0.0
11
0.263157
21
0.235193
31
0.0
0
LINE
8
FRONT
10
0.263157
20
0.235193
30
0.0
11
0.286476
21
0.238988
31
0.0
0
LINE
8
FRONT
10
0.286476
20
0.238988
30
0.0
11
0.309547
21
0.244075
31
0.0
0
LINE
8
FRONT
10
0.309547
20
0.244075
30
0.0
11
0.332299
21
0.250439
31
0.0
0
LINE
8
FRONT
10
0.332299
20
0.250439
30
0.0
11
0.354661
21
0.258060
31
0.0
0
LINE
8
FRONT
10
0.354661
20
0.258060
30
0.0
11
0.376565
21
0.266914
31
0.0
0
LINE
8
FRONT
10
0.376565
20
0.266914
30
0.0
11
0.397941
21
0.276974
31
0.0
0
LINE
8
FRONT
10
0.397941
20
0.276974
30
0.0
11
0.418725
21
0.288208
31
0.0
0
LINE
8
FRONT
10
0.418725
20
0.288208
30
0.0
11
0.438850
21
0.300583
31
0.0
0
LINE
8
FRONT
10
0.438850
20
0.300583
30
0.0
11
0.458256
21
0.314058
31
0.0
0
LINE
8
FRONT
10
0.458256
20
0.314058
30
0.0
11
0.476880
21
0.328593
31
0.0
0
LINE
8
FRONT
10
0.476880
20
0.328593
30
0.0
11
0.494667
21
0.344143
31
0.0
0
LINE
8
FRONT
10
0.494667
20
0.344143
30
0.0
11
0.511561
21
0.360658
31
0.0
0
LINE
8
FRONT
10
0.511561
20
0.360658
30
0.0
11
0.527508
21
0.378089
31
0.0
0
LINE
8
FRONT
10
0.527508
20
0.378089
30
0.0
11
0.542461
21
0.396381
31
0.0
0
LINE
8
FRONT
10
0.542461
20
0.396381
30
0.0
11
0.556372
21
0.415476
31
0.0
0
LINE
8
FRONT
10
0.556372
20
0.415476
30
0.0
11
0.569198
21
0.435317
31
0.0
0
LINE
8
FRONT
10
0.569198
20
0.435317
30
0.0
11
0.580899
21
0.455841
31
0.0
0
LINE
8
FRONT
10
0.580899
20
0.455841
30
0.0
11
0.591440
21
0.476984
31
0.0
0
LINE
8
FRONT
10
0.591440
20
0.476984
30
0.0
11
0.600787
21
0.498682
31
0.0
0
LINE
8
FRONT
10
0.600787
20
0.498682
30
0.0
11
0.608912
21
0.520866
31
0.0
0
LINE
8
FRONT
10
0.608912
20
0.520866
30
0.0
11
0.615788
21
0.543469
31
0.0
0
LINE
8
FRONT
10
0.615788
20
0.543469
30
0.0
11
0.621396
21
0.566419
31
0.0
0
LINE
8
FRONT
10
0.621396
20
0.566419
30
0.0
11
0.625717
21
0.589646
31
0.0
0
LINE
8
FRONT
10
0.625717
20
0.589646
30
0.0
11
0.628738
21
0.613077
31
0.0
0
LINE
8
FRONT
10
0.628738
20
0.613077
30
0.0
11
0.630450
21
0.636640
31
0.0
0
LINE
8
FRONT
10
0.630450
20
0.636640
30
0.0
11
0.630848
21
0.660262
31
0.0
0
LINE
8
FRONT
10
0.630848
20
0.660262
30
0.0
11
0.629929
21
0.683870
31
0.0
0
LINE
8
FRONT
10
0.629929
20
0.683870
30
0.0
11
0.627698
21
0.707390
31
0.0
0
LINE
8
FRONT
10
0.627698
20
0.707390
30
0.0
11
0.624161
21
0.730749
31
0.0
0
LINE
8
FRONT
10
0.624161
20
0.730749
30
0.0
11
0.619328
21
0.753874
31
0.0
0
LINE
8
FRONT
10
0.619328
20
0.753874
30
0.0
11
0.613215
21
0.776695
31
0.0
0
LINE
8
FRONT
10
0.613215
20
0.776695
30
0.0
11
0.605842
21
0.799141
31
0.0
0
LINE
8
FRONT
10
0.605842
20
0.799141
30
0.0
11
0.597230
21
0.821140
31
0.0
0
LINE
8
FRONT
10
0.597230
20
0.821140
30
0.0
11
0.587406
21
0.842626
31
0.0
0
LINE
8
FRONT
10
0.587406
20
0.842626
30
0.0
11
0.576402
21
0.863532
31
0.0
0
LINE
8
FRONT
10
0.576402
20
0.863532
30
0.0
11
0.564250
21
0.883793
31
0.0
0
LINE
8
FRONT
10
0.564250
20
0.883793
30
0.0
11
0.550990
21
0.903346
31
0.0
0
LINE
8
FRONT
10
0.550990
20
0.903346
30
0.0
11
0.536661
21
0.922130
31
0.0
0
LINE
8
FRONT
10
0.536661
20
0.922130
30
0.0
11
0.521308
21
0.940087
31
0.0
0
LINE
8
FRONT
10
0.521308
20
0.940087
30
0.0
11
0.504980
21
0.957162
31
0.0
0
LINE
8
FRONT
10
0.504980
20
0.957162
30
0.0
11
0.487726
21
0.973301
31
0.0
0
LINE
8
FRONT
10
0.487726
20
0.973301
30
0.0
11
0.469601
21
0.988454
31
0.0
0
LINE
8
FRONT
10
0.469601
20
0.988454
30
0.0
11
0.450660
21
1.002575
31
0.0
0
LINE
8
FRONT
10
0.450660
20
1.002575
30
0.0
11
0.430962
21
1.015619
31
0.0
0
LINE
8
FRONT
10
0.430962
20
1.015619
30
0.0
11
0.410568
21
1.027546
31
0.0
0
LINE
8
FRONT
10
0.410568
20
1.027546
30
0.0
11
0.389542
21
1.038320
31
0.0
0
LINE
8
FRONT
10
0.389542
20
1.038320
30
0.0
11
0.367949
21
1.047905
31
0.0
0
LINE
8
FRONT
10
0.367949
20
1.047905
30
0.0
11
0.345856
21
1.056274
31
0.0
0
LINE
8
FRONT
10
0.345856
20
1.056274
30
0.0
11
0.323331
21
1.063400
31
0.0
0
LINE
8
FRONT
10
0.323331
20
1.063400
30
0.0
11
0.300444
21
1.069260
31
0.0
0
LINE
8
FRONT
10
0.300444
20
1.069260
30
0.0
11
0.277266
21
1.073837
31
0.0
0
LINE
8
FRONT
10
0.277266
20
1.073837
30
0.0
11
0.253869
21
1.077117
31
0.0
0
LINE
8
FRONT
10
0.253869
20
1.077117
30
0.0
11
0.230326
21
1.079089
31
0.0
0
LINE
8
FRONT
10
0.230326
20
1.079089
30
0.0
11
0.206710
21
1.079747
31
0.0
0
LINE
8
FRONT
10
0.206710
20
1.079747
30
0.0
11
0.065945
21
1.079747
31
0.0
0
LINE
8
FRONT
10
0.114863
20
1.048818
30
0.0
11
0.115241
21
1.048004
31
0.0
0
LINE
8
FRONT
10
0.115241
20
1.048004
30
0.0
11
0.115606
21
1.047184
31
0.0
0
LINE
8
FRONT
10
0.115606
20
1.047184
30
0.0
11
0.115957
21
1.046358
31
0.0
0
LINE
8
FRONT
10
0.115957
20
1.046358
30
0.0
11
0.116294
21
1.045527
31
0.0
0
LINE
8
FRONT
10
0.116294
20
1.045527
30
0.0
11
0.116617
21
1.044690
31
0.0
0
LINE
8
FRONT
10
0.116617
20
1.044690
30
0.0
11
0.116927
21
1.043848
31
0.0
0
LINE
8
FRONT
10
0.116927
20
1.043848
30
0.0
11
0.117222
21
1.043001
31
0.0
0
LINE
8
FRONT
10
0.117222
20
1.043001
30
0.0
11
0.117503
21
1.042149
31
0.0
0
LINE
8
FRONT
10
0.117503
20
1.042149
30
0.0
11
0.117770
21
1.041292
31
0.0
0
LINE
8
FRONT
10
0.117770
20
1.041292
30
0.0
11
0.118023
21
1.040431
31
0.0
0
LINE
8
FRONT
10
0.118023
20
1.040431
30
0.0
11
0.118262
21
1.039566
31
0.0
0
LINE
8
FRONT
10
0.118262
20
1.039566
30
0.0
11
0.118486
21
1.038697
31
0.0
0
LINE
8
FRONT
10
0.118486
20
1.038697
30
0.0
11
0.118696
21
1.037825
31
0.0
0
LINE
8
FRONT
10
0.118696
20
1.037825
30
0.0
11
0.118892
21
1.036949
31
0.0
0
LINE
8
FRONT
10
0.118892
20
1.036949
30
0.0
11
0.119072
21
1.036070
31
0.0
0
LINE
8
FRONT
10
0.119072
20
1.036070
30
0.0
11
0.119239
21
1.035189
31
0.0
0
LINE
8
FRONT
10
0.119239
20
1.035189
30
0.0
11
0.119390
21
1.034304
31
0.0
0
LINE
8
FRONT
10
0.119390
20
1.034304
30
0.0
11
0.119527
21
1.033418
31
0.0
0
LINE
8
FRONT
10
0.119527
20
1.033418
30
0.0
11
0.119649
21
1.032529
31
0.0
0
LINE
8
FRONT
10
0.119649
20
1.032529
30
0.0
11
0.119757
21
1.031638
31
0.0
0
LINE
8
FRONT
10
0.119757
20
1.031638
30
0.0
11
0.119850
21
1.030746
31
0.0
0
LINE
8
FRONT
10
0.119850
20
1.030746
30
0.0
11
0.119928
21
1.029852
31
0.0
0
LINE
8
FRONT
10
0.119928
20
1.029852
30
0.0
11
0.119991
21
1.028957
31
0.0
0
LINE
8
FRONT
10
0.119991
20
1.028957
30
0.0
11
0.120039
21
1.028061
31
0.0
0
LINE
8
FRONT
10
0.120039
20
1.028061
30
0.0
11
0.120072
21
1.027164
31
0.0
0
LINE
8
FRONT
10
0.120072
20
1.027164
30
0.0
11
0.120091
21
1.026267
31
0.0
0
LINE
8
FRONT
10
0.120091
20
1.026267
30
0.0
11
0.120095
21
1.025370
31
0.0
0
LINE
8
FRONT
10
0.120095
20
1.025370
30
0.0
11
0.120083
21
1.024473
31
0.0
0
LINE
8
FRONT
10
0.120083
20
1.024473
30
0.0
11
0.120057
21
1.023576
31
0.0
0
LINE
8
FRONT
10
0.120057
20
1.023576
30
0.0
11
0.120016
21
1.022679
31
0.0
0
LINE
8
FRONT
10
0.120016
20
1.022679
30
0.0
11
0.119961
21
1.021784
31
0.0
0
LINE
8
FRONT
10
0.119961
20
1.021784
30
0.0
11
0.119890
21
1.020889
31
0.0
0
LINE
8
FRONT
10
0.119890
20
1.020889
30
0.0
11
0.119805
21
1.019996
31
0.0
0
LINE
8
FRONT
10
0.119805
20
1.019996
30
0.0
11
0.119704
21
1.019105
31
0.0
0
LINE
8
FRONT
10
0.119704
20
1.019105
30
0.0
11
0.119589
21
1.018215
31
0.0
0
LINE
8
FRONT
10
0.119589
20
1.018215
30
0.0
11
0.119460
21
1.017327
31
0.0
0
LINE
8
FRONT
10
0.119460
20
1.017327
30
0.0
11
0.119315
21
1.016441
31
0.0
0
LINE
8
FRONT
10
0.119315
20
1.016441
30
0.0
11
0.119156
21
1.015558
31
0.0
0
LINE
8
FRONT
10
0.119156
20
1.015558
30
0.0
11
0.118983
21
1.014678
31
0.0
0
LINE
8
FRONT
10
0.118983
20
1.014678
30
0.0
11
0.118795
21
1.013801
31
0.0
0
LINE
8
FRONT
10
0.118795
20
1.013801
30
0.0
11
0.118592
21
1.012927
31
0.0
0
LINE
8
FRONT
10
0.118592
20
1.012927
30
0.0
11
0.118375
21
1.012056
31
0.0
0
LINE
8
FRONT
10
0.118375
20
1.012056
30
0.0
11
0.118143
21
1.011189
31
0.0
0
LINE
8
FRONT
10
0.118143
20
1.011189
30
0.0
11
0.117897
21
1.010326
31
0.0
0
LINE
8
FRONT
10
0.117897
20
1.010326
30
0.0
11
0.117637
21
1.009468
31
0.0
0
LINE
8
FRONT
10
0.117637
20
1.009468
30
0.0
11
0.117363
21
1.008613
31
0.0
0
LINE
8
FRONT
10
0.117363
20
1.008613
30
0.0
11
0.117074
21
1.007764
31
0.0
0
LINE
8
FRONT
10
0.117074
20
1.007764
30
0.0
11
0.116772
21
1.006919
31
0.0
0
LINE
8
FRONT
10
0.116772
20
1.006919
30
0.0
11
0.116455
21
1.006079
31
0.0
0
LINE
8
FRONT
10
0.116455
20
1.006079
30
0.0
11
0.116125
21
1.005245
31
0.0
0
LINE
8
FRONT
10
0.116125
20
1.005245
30
0.0
11
0.115781
21
1.004416
31
0.0
0
LINE
8
FRONT
10
0.115781
20
1.004416
30
0.0
11
0.115423
21
1.003594
31
0.0
0
LINE
8
FRONT
10
0.115423
20
1.003594
30
0.0
11
0.115052
21
1.002777
31
0.0
0
LINE
8
FRONT
10
0.115052
20
1.002777
30
0.0
11
0.114667
21
1.001966
31
0.0
0
LINE
8
FRONT
10
0.114667
20
1.001966
30
0.0
11
0.114269
21
1.001162
31
0.0
0
LINE
8
FRONT
10
0.114269
20
1.001162
30
0.0
11
0.113857
21
1.000365
31
0.0
0
LINE
8
FRONT
10
0.113857
20
1.000365
30
0.0
11
0.113433
21
0.999575
31
0.0
0
LINE
8
FRONT
10
0.113433
20
0.999575
30
0.0
11
0.112995
21
0.998791
31
0.0
0
LINE
8
FRONT
10
0.112995
20
0.998791
30
0.0
11
0.112544
21
0.998015
31
0.0
0
LINE
8
FRONT
10
0.112544
20
0.998015
30
0.0
11
0.112081
21
0.997247
31
0.0
0
LINE
8
FRONT
10
0.112081
20
0.997247
30
0.0
11
0.111605
21
0.996487
31
0.0
0
LINE
8
FRONT
10
0.111605
20
0.996487
30
0.0
11
0.111116
21
0.995734
31
0.0
0
LINE
8
FRONT
10
0.111116
20
0.995734
30
0.0
11
0.110615
21
0.994990
31
0.0
0
LINE
8
FRONT
10
0.065945
20
1.079747
30
0.0
11
0.066914
21
1.079738
31
0.0
0
LINE
8
FRONT
10
0.066914
20
1.079738
30
0.0
11
0.067883
21
1.079712
31
0.0
0
LINE
8
FRONT
10
0.067883
20
1.079712
30
0.0
11
0.068851
21
1.079669
31
0.0
0
LINE
8
FRONT
10
0.068851
20
1.079669
30
0.0
11
0.069818
21
1.079608
31
0.0
0
LINE
8
FRONT
10
0.069818
20
1.079608
30
0.0
11
0.070785
21
1.079530
31
0.0
0
LINE
8
FRONT
10
0.070785
20
1.079530
30
0.0
11
0.071749
21
1.079435
31
0.0
0
LINE
8
FRONT
10
0.071749
20
1.079435
30
0.0
11
0.072712
21
1.079322
31
0.0
0
LINE
8
FRONT
10
0.072712
20
1.079322
30
0.0
11
0.073672
21
1.079193
31
0.0
0
LINE
8
FRONT
10
0.073672
20
1.079193
30
0.0
11
0.074630
21
1.079046
31
0.0
0
LINE
8
FRONT
10
0.074630
20
1.079046
30
0.0
11
0.075585
21
1.078882
31
0.0
0
LINE
8
FRONT
10
0.075585
20
1.078882
30
0.0
11
0.076537
21
1.078701
31
0.0
0
LINE
8
FRONT
10
0.076537
20
1.078701
30
0.0
11
0.077486
21
1.078503
31
0.0
0
LINE
8
FRONT
10
0.077486
20
1.078503
30
0.0
11
0.078431
21
1.078288
31
0.0
0
LINE
8
FRONT
10
0.078431
20
1.078288
30
0.0
11
0.079372
21
1.078056
31
0.0
0
LINE
8
FRONT
10
0.079372
20
1.078056
30
0.0
11
0.080309
21
1.077807
31
0.0
0
LINE
8
FRONT
10
0.080309
20
1.077807
30
0.0
11
0.081241
21
1.077541
31
0.0
0
LINE
8
FRONT
10
0.081241
20
1.077541
30
0.0
11
0.082168
21
1.077259
31
0.0
0
LINE
8
FRONT
10
0.082168
20
1.077259
30
0.0
11
0.083090
21
1.076961
31
0.0
0
LINE
8
FRONT
10
0.083090
20
1.076961
30
0.0
11
0.084007
21
1.076646
31
0.0
0
LINE
8
FRONT
10
0.084007
20
1.076646
30
0.0
11
0.084918
21
1.076314
31
0.0
0
LINE
8
FRONT
10
0.084918
20
1.076314
30
0.0
11
0.085822
21
1.075967
31
0.0
0
LINE
8
FRONT
10
0.085822
20
1.075967
30
0.0
11
0.086721
21
1.075603
31
0.0
0
LINE
8
FRONT
10
0.086721
20
1.075603
30
0.0
11
0.087612
21
1.075223
31
0.0
0
LINE
8
FRONT
10
0.087612
20
1.075223
30
0.0
11
0.088497
21
1.074827
31
0.0
0
LINE
8
FRONT
10
0.088497
20
1.074827
30
0.0
11
0.089374
21
1.074416
31
0.0
0
LINE
8
FRONT
10
0.089374
20
1.074416
30
0.0
11
0.090244
21
1.073989
31
0.0
0
LINE
8
FRONT
10
0.090244
20
1.073989
30
0.0
11
0.091107
21
1.073546
31
0.0
0
LINE
8
FRONT
10
0.091107
20
1.073546
30
0.0
11
0.091961
21
1.073088
31
0.0
0
LINE
8
FRONT
10
0.091961
20
1.073088
30
0.0
11
0.092807
21
1.072615
31
0.0
0
LINE
8
FRONT
10
0.092807
20
1.072615
30
0.0
11
0.093644
21
1.072126
31
0.0
0
LINE
8
FRONT
10
0.093644
20
1.072126
30
0.0
11
0.094472
21
1.071623
31
0.0
0
LINE
8
FRONT
10
0.094472
20
1.071623
30
0.0
11
0.095291
21
1.071105
31
0.0
0
LINE
8
FRONT
10
0.095291
20
1.071105
30
0.0
11
0.096101
21
1.070573
31
0.0
0
LINE
8
FRONT
10
0.096101
20
1.070573
30
0.0
11
0.096901
21
1.070026
31
0.0
0
LINE
8
FRONT
10
0.096901
20
1.070026
30
0.0
11
0.097691
21
1.069465
31
0.0
0
LINE
8
FRONT
10
0.097691
20
1.069465
30
0.0
11
0.098471
21
1.068889
31
0.0
0
LINE
8
FRONT
10
0.098471
20
1.068889
30
0.0
11
0.099241
21
1.068300
31
0.0
0
LINE
8
FRONT
10
0.099241
20
1.068300
30
0.0
11
0.100000
21
1.067698
31
0.0
0
LINE
8
FRONT
10
0.100000
20
1.067698
30
0.0
11
0.100748
21
1.067081
31
0.0
0
LINE
8
FRONT
10
0.100748
20
1.067081
30
0.0
11
0.101485
21
1.066452
31
0.0
0
LINE
8
FRONT
10
0.101485
20
1.066452
30
0.0
11
0.102210
21
1.065809
31
0.0
0
LINE
8
FRONT
10
0.102210
20
1.065809
30
0.0
11
0.102924
21
1.065154
31
0.0
0
LINE
8
FRONT
10
0.102924
20
1.065154
30
0.0
11
0.103626
21
1.064486
31
0.0
0
LINE
8
FRONT
10
0.103626
20
1.064486
30
0.0
11
0.104316
21
1.063805
31
0.0
0
LINE
8
FRONT
10
0.104316
20
1.063805
30
0.0
11
0.104994
21
1.063112
31
0.0
0
LINE
8
FRONT
10
0.104994
20
1.063112
30
0.0
11
0.105659
21
1.062407
31
0.0
0
LINE
8
FRONT
10
0.105659
20
1.062407
30
0.0
11
0.106312
21
1.061690
31
0.0
0
LINE
8
FRONT
10
0.106312
20
1.061690
30
0.0
11
0.106951
21
1.060962
31
0.0
0
LINE
8
FRONT
10
0.106951
20
1.060962
30
0.0
11
0.107578
21
1.060223
31
0.0
0
LINE
8
FRONT
10
0.107578
20
1.060223
30
0.0
11
0.108191
21
1.059472
31
0.0
0
LINE
8
FRONT
10
0.108191
20
1.059472
30
0.0
11
0.108790
21
1.058710
31
0.0
0
LINE
8
FRONT
10
0.108790
20
1.058710
30
0.0
11
0.109376
21
1.057938
31
0.0
0
LINE
8
FRONT
10
0.109376
20
1.057938
30
0.0
11
0.109948
21
1.057156
31
0.0
0
LINE
8
FRONT
10
0.109948
20
1.057156
30
0.0
11
0.110506
21
1.056363
31
0.0
0
LINE
8
FRONT
10
0.110506
20
1.056363
30
0.0
11
0.111049
21
1.055561
31
0.0
0
LINE
8
FRONT
10
0.111049
20
1.055561
30
0.0
11
0.111578
21
1.054749
31
0.0
0
LINE
8
FRONT
10
0.111578
20
1.054749
30
0.0
11
0.112093
21
1.053927
31
0.0
0
LINE
8
FRONT
10
0.112093
20
1.053927
30
0.0
11
0.112592
21
1.053097
31
0.0
0
LINE
8
FRONT
10
0.112592
20
1.053097
30
0.0
11
0.113077
21
1.052258
31
0.0
0
LINE
8
FRONT
10
0.113077
20
1.052258
30
0.0
11
0.113547
21
1.051410
31
0.0
0
LINE
8
FRONT
10
0.113547
20
1.051410
30
0.0
11
0.114001
21
1.050554
31
0.0
0
LINE
8
FRONT
10
0.114001
20
1.050554
30
0.0
11
0.114440
21
1.049690
31
0.0
0
LINE
8
FRONT
10
0.114440
20
1.049690
30
0.0
11
0.114863
21
1.048818
31
0.0
0
LINE
8
FRONT
10
0.110615
20
0.994990
30
0.0
11
0.110139
21
0.994305
31
0.0
0
LINE
8
FRONT
10
0.110139
20
0.994305
30
0.0
11
0.109652
21
0.993629
31
0.0
0
LINE
8
FRONT
10
0.109652
20
0.993629
30
0.0
11
0.109154
21
0.992960
31
0.0
0
LINE
8
FRONT
10
0.109154
20
0.992960
30
0.0
11
0.108646
21
0.992298
31
0.0
0
LINE
8
FRONT
10
0.108646
20
0.992298
30
0.0
11
0.108129
21
0.991645
31
0.0
0
LINE
8
FRONT
10
0.108129
20
0.991645
30
0.0
11
0.107601
21
0.990999
31
0.0
0
LINE
8
FRONT
10
0.107601
20
0.990999
30
0.0
11
0.107063
21
0.990362
31
0.0
0
LINE
8
FRONT
10
0.107063
20
0.990362
30
0.0
11
0.106516
21
0.989733
31
0.0
0
LINE
8
FRONT
10
0.106516
20
0.989733
30
0.0
11
0.105959
21
0.989112
31
0.0
0
LINE
8
FRONT
10
0.105959
20
0.989112
30
0.0
11
0.105392
21
0.988501
31
0.0
0
LINE
8
FRONT
10
0.105392
20
0.988501
30
0.0
11
0.104816
21
0.987898
31
0.0
0
LINE
8
FRONT
10
0.104816
20
0.987898
30
0.0
11
0.104231
21
0.987303
31
0.0
0
LINE
8
FRONT
10
0.104231
20
0.987303
30
0.0
11
0.103637
21
0.986719
31
0.0
0
LINE
8
FRONT
10
0.103637
20
0.986719
30
0.0
11
0.103034
21
0.986143
31
0.0
0
LINE
8
FRONT
10
0.103034
20
0.986143
30
0.0
11
0.102422
21
0.985576
31
0.0
0
LINE
8
FRONT
10
0.102422
20
0.985576
30
0.0
11
0.101802
21
0.985019
31
0.0
0
LINE
8
FRONT
10
0.101802
20
0.985019
30
0.0
11
0.101173
21
0.984472
31
0.0
0
LINE
8
FRONT
10
0.101173
20
0.984472
30
0.0
11
0.100535
21
0.983935
31
0.0
0
LINE
8
FRONT
10
0.100535
20
0.983935
30
0.0
11
0.099890
21
0.983407
31
0.0
0
LINE
8
FRONT
10
0.099890
20
0.983407
30
0.0
11
0.099236
21
0.982889
31
0.0
0
LINE
8
FRONT
10
0.099236
20
0.982889
30
0.0
11
0.098574
21
0.982382
31
0.0
0
LINE
8
FRONT
10
0.098574
20
0.982382
30
0.0
11
0.097905
21
0.981884
31
0.0
0
LINE
8
FRONT
10
0.097905
20
0.981884
30
0.0
11
0.097228
21
0.981398
31
0.0
0
LINE
8
FRONT
10
0.097228
20
0.981398
30
0.0
11
0.096544
21
0.980921
31
0.0
0
LINE
8
FRONT
10
0.096544
20
0.980921
30
0.0
11
0.095852
21
0.980455
31
0.0
0
LINE
8
FRONT
10
0.095852
20
0.980455
30
0.0
11
0.095154
21
0.980000
31
0.0
0
LINE
8
FRONT
10
0.095154
20
0.980000
30
0.0
11
0.094448
21
0.979556
31
0.0
0
LINE
8
FRONT
10
0.094448
20
0.979556
30
0.0
11
0.093736
21
0.979122
31
0.0
0
LINE
8
FRONT
10
0.093736
20
0.979122
30
0.0
11
0.093017
21
0.978700
31
0.0
0
LINE
8
FRONT
10
0.093017
20
0.978700
30
0.0
11
0.092292
21
0.978289
31
0.0
0
LINE
8
FRONT
10
0.092292
20
0.978289
30
0.0
11
0.091560
21
0.977889
31
0.0
0
LINE
8
FRONT
10
0.091560
20
0.977889
30
0.0
11
0.090823
21
0.977500
31
0.0
0
LINE
8
FRONT
10
0.090823
20
0.977500
30
0.0
11
0.090079
21
0.977122
31
0.0
0
LINE
8
FRONT
10
0.090079
20
0.977122
30
0.0
11
0.089330
21
0.976757
31
0.0
0
LINE
8
FRONT
10
0.089330
20
0.976757
30
0.0
11
0.088575
21
0.976402
31
0.0
0
LINE
8
FRONT
10
0.088575
20
0.976402
30
0.0
11
0.087815
21
0.976060
31
0.0
0
LINE
8
FRONT
10
0.087815
20
0.976060
30
0.0
11
0.087050
21
0.975729
31
0.0
0
LINE
8
FRONT
10
0.087050
20
0.975729
30
0.0
11
0.086279
21
0.975410
31
0.0
0
LINE
8
FRONT
10
0.086279
20
0.975410
30
0.0
11
0.085504
21
0.975103
31
0.0
0
LINE
8
FRONT
10
0.085504
20
0.975103
30
0.0
11
0.084724
21
0.974807
31
0.0
0
LINE
8
FRONT
10
0.084724
20
0.974807
30
0.0
11
0.083940
21
0.974524
31
0.0
0
LINE
8
FRONT
10
0.083940
20
0.974524
30
0.0
11
0.083151
21
0.974253
31
0.0
0
LINE
8
FRONT
10
0.083151
20
0.974253
30
0.0
11
0.082359
21
0.973994
31
0.0
0
LINE
8
FRONT
10
0.082359
20
0.973994
30
0.0
11
0.081562
21
0.973748
31
0.0
0
LINE
8
FRONT
10
0.081562
20
0.973748
30
0.0
11
0.080762
21
0.973513
31
0.0
0
LINE
8
FRONT
10
0.080762
20
0.973513
30
0.0
11
0.079958
21
0.973291
31
0.0
0
LINE
8
FRONT
10
0.079958
20
0.973291
30
0.0
11
0.079151
21
0.973082
31
0.0
0
LINE
8
FRONT
10
0.079151
20
0.973082
30
0.0
11
0.078341
21
0.972885
31
0.0
0
LINE
8
FRONT
10
0.078341
20
0.972885
30
0.0
11
0.077528
21
0.972700
31
0.0
0
LINE
8
FRONT
10
0.077528
20
0.972700
30
0.0
11
0.076712
21
0.972528
31
0.0
0
LINE
8
FRONT
10
0.076712
20
0.972528
30
0.0
11
0.075894
21
0.972369
31
0.0
0
LINE
8
FRONT
10
0.075894
20
0.972369
30
0.0
11
0.075073
21
0.972222
31
0.0
0
LINE
8
FRONT
10
0.075073
20
0.972222
30
0.0
11
0.074250
21
0.972087
31
0.0
0
LINE
8
FRONT
10
0.074250
20
0.972087
30
0.0
11
0.073425
21
0.971966
31
0.0
0
LINE
8
FRONT
10
0.073425
20
0.971966
30
0.0
11
0.072599
21
0.971857
31
0.0
0
LINE
8
FRONT
10
0.072599
20
0.971857
30
0.0
11
0.071770
21
0.971761
31
0.0
0
LINE
8
FRONT
10
0.071770
20
0.971761
30
0.0
11
0.070941
21
0.971678
31
0.0
0
LINE
8
FRONT
10
0.070941
20
0.971678
30
0.0
11
0.070110
21
0.971607
31
0.0
0
LINE
8
FRONT
10
0.070110
20
0.971607
30
0.0
11
0.069278
21
0.971549
31
0.0
0
LINE
8
FRONT
10
0.069278
20
0.971549
30
0.0
11
0.068446
21
0.971505
31
0.0
0
LINE
8
FRONT
10
0.068446
20
0.971505
30
0.0
11
0.067612
21
0.971472
31
0.0
0
LINE
8
FRONT
10
0.067612
20
0.971472
30
0.0
11
0.066779
21
0.971453
31
0.0
0
LINE
8
FRONT
10
0.066779
20
0.971453
30
0.0
11
0.065945
21
0.971447
31
0.0
0
LINE
8
FRONT
10
0.065945
20
0.971447
30
0.0
11
0.093011
21
0.971447
31
0.0
0
LINE
8
FRONT
10
0.093011
20
0.971447
30
0.0
11
0.166729
21
0.971447
31
0.0
0
LINE
8
FRONT
10
0.110615
20
0.994990
30
0.0
11
0.093011
21
1.002376
31
0.0
0
LINE
8
FRONT
10
0.166729
20
0.971447
30
0.0
11
0.110615
21
0.994990
31
0.0
0
LINE
8
FRONT
10
0.093011
20
1.002376
30
0.0
11
0.065945
21
1.002376
31
0.0
0
LINE
8
FRONT
10
0.065945
20
1.002376
30
0.0
11
0.067102
21
1.002405
31
0.0
0
LINE
8
FRONT
10
0.067102
20
1.002405
30
0.0
11
0.068257
21
1.002491
31
0.0
0
LINE
8
FRONT
10
0.068257
20
1.002491
30
0.0
11
0.069406
21
1.002635
31
0.0
0
LINE
8
FRONT
10
0.069406
20
1.002635
30
0.0
11
0.070546
21
1.002836
31
0.0
0
LINE
8
FRONT
10
0.070546
20
1.002836
30
0.0
11
0.071675
21
1.003094
31
0.0
0
LINE
8
FRONT
10
0.071675
20
1.003094
30
0.0
11
0.072790
21
1.003407
31
0.0
0
LINE
8
FRONT
10
0.072790
20
1.003407
30
0.0
11
0.073887
21
1.003776
31
0.0
0
LINE
8
FRONT
10
0.073887
20
1.003776
30
0.0
11
0.074965
21
1.004199
31
0.0
0
LINE
8
FRONT
10
0.074965
20
1.004199
30
0.0
11
0.076020
21
1.004675
31
0.0
0
LINE
8
FRONT
10
0.076020
20
1.004675
30
0.0
11
0.077051
21
1.005204
31
0.0
0
LINE
8
FRONT
10
0.077051
20
1.005204
30
0.0
11
0.078053
21
1.005782
31
0.0
0
LINE
8
FRONT
10
0.078053
20
1.005782
30
0.0
11
0.079026
21
1.006411
31
0.0
0
LINE
8
FRONT
10
0.079026
20
1.006411
30
0.0
11
0.079966
21
1.007087
31
0.0
0
LINE
8
FRONT
10
0.079966
20
1.007087
30
0.0
11
0.080871
21
1.007808
31
0.0
0
LINE
8
FRONT
10
0.080871
20
1.007808
30
0.0
11
0.081739
21
1.008575
31
0.0
0
LINE
8
FRONT
10
0.081739
20
1.008575
30
0.0
11
0.082568
21
1.009383
31
0.0
0
LINE
8
FRONT
10
0.082568
20
1.009383
30
0.0
11
0.083356
21
1.010232
31
0.0
0
LINE
8
FRONT
10
0.083356
20
1.010232
30
0.0
11
0.084100
21
1.011119
31
0.0
0
LINE
8
FRONT
10
0.084100
20
1.011119
30
0.0
11
0.084799
21
1.012042
31
0.0
0
LINE
8
FRONT
10
0.084799
20
1.012042
30
0.0
11
0.085451
21
1.012998
31
0.0
0
LINE
8
FRONT
10
0.085451
20
1.012998
30
0.0
11
0.086055
21
1.013986
31
0.0
0
LINE
8
FRONT
10
0.086055
20
1.013986
30
0.0
11
0.086609
21
1.015003
31
0.0
0
LINE
8
FRONT
10
0.086609
20
1.015003
30
0.0
11
0.087111
21
1.016046
31
0.0
0
LINE
8
FRONT
10
0.087111
20
1.016046
30
0.0
11
0.087561
21
1.017113
31
0.0
0
LINE
8
FRONT
10
0.087561
20
1.017113
30
0.0
11
0.087957
21
1.018201
31
0.0
0
LINE
8
FRONT
10
0.087957
20
1.018201
30
0.0
11
0.088298
21
1.019308
31
0.0
0
LINE
8
FRONT
10
0.088298
20
1.019308
30
0.0
11
0.088584
21
1.020430
31
0.0
0
LINE
8
FRONT
10
0.088584
20
1.020430
30
0.0
11
0.088813
21
1.021565
31
0.0
0
LINE
8
FRONT
10
0.088813
20
1.021565
30
0.0
11
0.088986
21
1.022709
31
0.0
0
LINE
8
FRONT
10
0.088986
20
1.022709
30
0.0
11
0.089101
21
1.023861
31
0.0
0
LINE
8
FRONT
10
0.089101
20
1.023861
30
0.0
11
0.089159
21
1.025018
31
0.0
0
LINE
8
FRONT
10
0.089159
20
1.025018
30
0.0
11
0.089159
21
1.026176
31
0.0
0
LINE
8
FRONT
10
0.089159
20
1.026176
30
0.0
11
0.089101
21
1.027332
31
0.0
0
LINE
8
FRONT
10
0.089101
20
1.027332
30
0.0
11
0.088986
21
1.028484
31
0.0
0
LINE
8
FRONT
10
0.088986
20
1.028484
30
0.0
11
0.088813
21
1.029629
31
0.0
0
LINE
8
FRONT
10
0.088813
20
1.029629
30
0.0
11
0.088584
21
1.030764
31
0.0
0
LINE
8
FRONT
10
0.088584
20
1.030764
30
0.0
11
0.088298
21
1.031886
31
0.0
0
LINE
8
FRONT
10
0.088298
20
1.031886
30
0.0
11
0.087957
21
1.032992
31
0.0
0
LINE
8
FRONT
10
0.087957
20
1.032992
30
0.0
11
0.087561
21
1.034080
31
0.0
0
LINE
8
FRONT
10
0.087561
20
1.034080
30
0.0
11
0.087111
21
1.035147
31
0.0
0
LINE
8
FRONT
10
0.087111
20
1.035147
30
0.0
11
0.086609
21
1.036190
31
0.0
0
LINE
8
FRONT
10
0.086609
20
1.036190
30
0.0
11
0.086055
21
1.037207
31
0.0
0
LINE
8
FRONT
10
0.086055
20
1.037207
30
0.0
11
0.085451
21
1.038195
31
0.0
0
LINE
8
FRONT
10
0.085451
20
1.038195
30
0.0
11
0.084799
21
1.039152
31
0.0
0
LINE
8
FRONT
10
0.084799
20
1.039152
30
0.0
11
0.084100
21
1.040075
31
0.0
0
LINE
8
FRONT
10
0.084100
20
1.040075
30
0.0
11
0.083356
21
1.040962
31
0.0
0
LINE
8
FRONT
10
0.083356
20
1.040962
30
0.0
11
0.082568
21
1.041811
31
0.0
0
LINE
8
FRONT
10
0.082568
20
1.041811
30
0.0
11
0.081739
21
1.042619
31
0.0
0
LINE
8
FRONT
10
0.081739
20
1.042619
30
0.0
11
0.080871
21
1.043385
31
0.0
0
LINE
8
FRONT
10
0.080871
20
1.043385
30
0.0
11
0.079966
21
1.044107
31
0.0
0
LINE
8
FRONT
10
0.079966
20
1.044107
30
0.0
11
0.079026
21
1.044783
31
0.0
0
LINE
8
FRONT
10
0.079026
20
1.044783
30
0.0
11
0.078053
21
1.045411
31
0.0
0
LINE
8
FRONT
10
0.078053
20
1.045411
30
0.0
11
0.077051
21
1.045990
31
0.0
0
LINE
8
FRONT
10
0.077051
20
1.045990
30
0.0
11
0.076020
21
1.046518
31
0.0
0
LINE
8
FRONT
10
0.076020
20
1.046518
30
0.0
11
0.074965
21
1.046994
31
0.0
0
LINE
8
FRONT
10
0.074965
20
1.046994
30
0.0
11
0.073887
21
1.047417
31
0.0
0
LINE
8
FRONT
10
0.073887
20
1.047417
30
0.0
11
0.072790
21
1.047786
31
0.0
0
LINE
8
FRONT
10
0.072790
20
1.047786
30
0.0
11
0.071675
21
1.048100
31
0.0
0
LINE
8
FRONT
10
0.071675
20
1.048100
30
0.0
11
0.070546
21
1.048357
31
0.0
0
LINE
8
FRONT
10
0.070546
20
1.048357
30
0.0
11
0.069406
21
1.048559
31
0.0
0
LINE
8
FRONT
10
0.069406
20
1.048559
30
0.0
11
0.068257
21
1.048702
31
0.0
0
LINE
8
FRONT
10
0.068257
20
1.048702
30
0.0
11
0.067102
21
1.048789
31
0.0
0
LINE
8
FRONT
10
0.067102
20
1.048789
30
0.0
11
0.065945
21
1.048818
31
0.0
0
LINE
8
FRONT
10
0.065945
20
1.048818
30
0.0
11
0.114863
21
1.048818
31
0.0
0
LINE
8
FRONT
10
0.114863
20
1.048818
30
0.0
11
0.206710
21
1.048818
31
0.0
0
LINE
8
FRONT
10
0.206710
20
1.048818
30
0.0
11
0.228604
21
1.048208
31
0.0
0
LINE
8
FRONT
10
0.228604
20
1.048208
30
0.0
11
0.250431
21
1.046380
31
0.0
0
LINE
8
FRONT
10
0.250431
20
1.046380
30
0.0
11
0.272121
21
1.043339
31
0.0
0
LINE
8
FRONT
10
0.272121
20
1.043339
30
0.0
11
0.293609
21
1.039096
31
0.0
0
LINE
8
FRONT
10
0.293609
20
1.039096
30
0.0
11
0.314827
21
1.033663
31
0.0
0
LINE
8
FRONT
10
0.314827
20
1.033663
30
0.0
11
0.335710
21
1.027057
31
0.0
0
LINE
8
FRONT
10
0.335710
20
1.027057
30
0.0
11
0.356192
21
1.019298
31
0.0
0
LINE
8
FRONT
10
0.356192
20
1.019298
30
0.0
11
0.376211
21
1.010411
31
0.0
0
LINE
8
FRONT
10
0.376211
20
1.010411
30
0.0
11
0.395704
21
1.000424
31
0.0
0
LINE
8
FRONT
10
0.395704
20
1.000424
30
0.0
11
0.414610
21
0.989366
31
0.0
0
LINE
8
FRONT
10
0.414610
20
0.989366
30
0.0
11
0.432872
21
0.977273
31
0.0
0
LINE
8
FRONT
10
0.432872
20
0.977273
30
0.0
11
0.450432
21
0.964182
31
0.0
0
LINE
8
FRONT
10
0.450432
20
0.964182
30
0.0
11
0.467235
21
0.950134
31
0.0
0
LINE
8
FRONT
10
0.467235
20
0.950134
30
0.0
11
0.483231
21
0.935172
31
0.0
0
LINE
8
FRONT
10
0.483231
20
0.935172
30
0.0
11
0.498369
21
0.919342
31
0.0
0
LINE
8
FRONT
10
0.498369
20
0.919342
30
0.0
11
0.512602
21
0.902694
31
0.0
0
LINE
8
FRONT
10
0.512602
20
0.902694
30
0.0
11
0.525886
21
0.885280
31
0.0
0
LINE
8
FRONT
10
0.525886
20
0.885280
30
0.0
11
0.538179
21
0.867153
31
0.0
0
LINE
8
FRONT
10
0.538179
20
0.867153
30
0.0
11
0.549445
21
0.848369
31
0.0
0
LINE
8
FRONT
10
0.549445
20
0.848369
30
0.0
11
0.559647
21
0.828988
31
0.0
0
LINE
8
FRONT
10
0.559647
20
0.828988
30
0.0
11
0.568754
21
0.809068
31
0.0
0
LINE
8
FRONT
10
0.568754
20
0.809068
30
0.0
11
0.576738
21
0.788673
31
0.0
0
LINE
8
FRONT
10
0.576738
20
0.788673
30
0.0
11
0.583574
21
0.767864
31
0.0
0
LINE
8
FRONT
10
0.583574
20
0.767864
30
0.0
11
0.589241
21
0.746707
31
0.0
0
LINE
8
FRONT
10
0.589241
20
0.746707
30
0.0
11
0.593721
21
0.725268
31
0.0
0
LINE
8
FRONT
10
0.593721
20
0.725268
30
0.0
11
0.597001
21
0.703612
31
0.0
0
LINE
8
FRONT
10
0.597001
20
0.703612
30
0.0
11
0.599069
21
0.681807
31
0.0
0
LINE
8
FRONT
10
0.599069
20
0.681807
30
0.0
11
0.599921
21
0.659921
31
0.0
0
LINE
8
FRONT
10
0.599921
20
0.659921
30
0.0
11
0.599552
21
0.638022
31
0.0
0
LINE
8
FRONT
10
0.599552
20
0.638022
30
0.0
11
0.597965
21
0.616177
31
0.0
0
LINE
8
FRONT
10
0.597965
20
0.616177
30
0.0
11
0.595164
21
0.594454
31
0.0
0
LINE
8
FRONT
10
0.595164
20
0.594454
30
0.0
11
0.591158
21
0.572921
31
0.0
0
LINE
8
FRONT
10
0.591158
20
0.572921
30
0.0
11
0.585959
21
0.551644
31
0.0
0
LINE
8
FRONT
10
0.585959
20
0.551644
30
0.0
11
0.579584
21
0.530690
31
0.0
0
LINE
8
FRONT
10
0.579584
20
0.530690
30
0.0
11
0.572052
21
0.510123
31
0.0
0
LINE
8
FRONT
10
0.572052
20
0.510123
30
0.0
11
0.563386
21
0.490007
31
0.0
0
LINE
8
FRONT
10
0.563386
20
0.490007
30
0.0
11
0.553614
21
0.470406
31
0.0
0
LINE
8
FRONT
10
0.553614
20
0.470406
30
0.0
11
0.542766
21
0.451378
31
0.0
0
LINE
8
FRONT
10
0.542766
20
0.451378
30
0.0
11
0.530875
21
0.432984
31
0.0
0
LINE
8
FRONT
10
0.530875
20
0.432984
30
0.0
11
0.517979
21
0.415281
31
0.0
0
LINE
8
FRONT
10
0.517979
20
0.415281
30
0.0
11
0.504117
21
0.398323
31
0.0
0
LINE
8
FRONT
10
0.504117
20
0.398323
30
0.0
11
0.489332
21
0.382164
31
0.0
0
LINE
8
FRONT
10
0.489332
20
0.382164
30
0.0
11
0.473670
21
0.366852
31
0.0
0
LINE
8
FRONT
10
0.473670
20
0.366852
30
0.0
11
0.457180
21
0.352436
31
0.0
0
LINE
8
FRONT
10
0.457180
20
0.352436
30
0.0
11
0.439913
21
0.338961
31
0.0
0
LINE
8
FRONT
10
0.439913
20
0.338961
30
0.0
11
0.421923
21
0.326468
31
0.0
0
LINE
8
FRONT
10
0.421923
20
0.326468
30
0.0
11
0.403265
21
0.314996
31
0.0
0
LINE
8
FRONT
10
0.403265
20
0.314996
30
0.0
11
0.383997
21
0.304581
31
0.0
0
LINE
8
FRONT
10
0.383997
20
0.304581
30
0.0
11
0.364180
21
0.295255
31
0.0
0
LINE
8
FRONT
10
0.364180
20
0.295255
30
0.0
11
0.343873
21
0.287046
31
0.0
0
LINE
8
FRONT
10
0.343873
20
0.287046
30
0.0
11
0.323141
21
0.279981
31
0.0
0
LINE
8
FRONT
10
0.323141
20
0.279981
30
0.0
11
0.302048
21
0.274081
31
0.0
0
LINE
8
FRONT
10
0.302048
20
0.274081
30
0.0
11
0.280660
21
0.269365
31
0.0
0
LINE
8
FRONT
10
0.280660
20
0.269365
30
0.0
11
0.259041
21
0.265847
31
0.0
0
LINE
8
FRONT
10
0.259041
20
0.265847
30
0.0
11
0.237261
21
0.263537
31
0.0
0
LINE
8
FRONT
10
0.237261
20
0.263537
30
0.0
11
0.215385
21
0.262445
31
0.0
0
LINE
8
FRONT
10
0.215385
20
0.262445
30
0.0
11
0.193483
21
0.262571
31
0.0
0
LINE
8
FRONT
10
0.193483
20
0.262571
30
0.0
11
0.171622
21
0.263918
31
0.0
0
LINE
8
FRONT
10
0.171622
20
0.263918
30
0.0
11
0.149870
21
0.266479
31
0.0
0
LINE
8
FRONT
10
0.149870
20
0.266479
30
0.0
11
0.128293
21
0.270247
31
0.0
0
LINE
8
FRONT
10
0.128293
20
0.270247
30
0.0
11
0.106961
21
0.275211
31
0.0
0
LINE
8
FRONT
10
0.106961
20
0.275211
30
0.0
11
0.085937
21
0.281354
31
0.0
0
LINE
8
FRONT
10
0.085937
20
0.281354
30
0.0
11
0.065289
21
0.288659
31
0.0
0
LINE
8
FRONT
10
0.065289
20
0.288659
30
0.0
11
0.000000
21
0.288659
31
0.0
0
LINE
8
LEFT
10
0.800513
20
0.288762
30
0.0
11
0.862371
21
0.288762
31
0.0
0
LINE
8
LEFT
10
0.862371
20
0.288762
30
0.0
11
0.862371
21
0.259903
31
0.0
0
LINE
8
LEFT
10
0.800513
20
0.259903
30
0.0
11
0.862371
21
0.259903
31
0.0
0
LINE
8
LEFT
10
0.800513
20
0.288762
30
0.0
11
0.800513
21
0.259903
31
0.0
0
LINE
8
LEFT
10
0.800513
20
0.259903
30
0.0
11
0.800513
21
0.231523
31
0.0
0
LINE
8
LEFT
10
0.800513
20
1.079850
30
0.0
11
0.862371
21
1.079850
31
0.0
0
LINE
8
LEFT
10
0.862371
20
0.259903
30
0.0
11
0.862371
21
0.231523
31
0.0
0
LINE
8
LEFT
10
0.800513
20
1.079850
30
0.0
11
0.862371
21
1.079850
31
0.0
0
LINE
8
LEFT
10
0.862371
20
1.079850
30
0.0
11
0.862371
21
1.048921
31
0.0
0
LINE
8
LEFT
10
0.862371
20
1.048921
30
0.0
11
0.862371
21
0.995093
31
0.0
0
LINE
8
LEFT
10
0.862371
20
0.995093
30
0.0
11
0.862371
21
0.971550
31
0.0
0
LINE
8
LEFT
10
0.800513
20
0.971550
30
0.0
11
0.862371
21
0.971550
31
0.0
0
LINE
8
LEFT
10
0.800513
20
1.079850
30
0.0
11
0.800513
21
1.048921
31
0.0
0
LINE
8
LEFT
10
0.800513
20
1.048921
30
0.0
11
0.800513
21
0.995093
31
0.0
0
LINE
8
LEFT
10
0.800513
20
0.995093
30
0.0
11
0.800513
21
0.971550
31
0.0
0
LINE
8
LEFT
10
0.800513
20
1.002479
30
0.0
11
0.862371
21
1.002479
31
0.0
0
LINE
8
LEFT
10
0.800513
20
1.002479
30
0.0
11
0.800513
21
1.048921
31
0.0
0
LINE
8
LEFT
10
0.800513
20
1.048921
30
0.0
11
0.862371
21
1.048921
31
0.0
0
LINE
8
LEFT
10
0.862371
20
1.002479
30
0.0
11
0.862371
21
1.048921
31
0.0
0
LINE
8
LEFT
10
0.862371
20
0.971550
30
0.0
11
0.862371
21
0.288762
31
0.0
0
LINE
8
LEFT
10
0.800513
20
0.971550
30
0.0
11
0.800513
21
0.288762
31
0.0
0
LINE
8
LEFT
10
0.862371
20
0.231523
30
0.0
11
0.800513
21
0.231523
31
0.0
0
LINE
8
LEFT_HID
6
HIDDEN
10
0.800513
20
0.231523
30
0.0
11
0.800513
21
1.079850
31
0.0
0
LINE
8
LEFT_HID
6
HIDDEN
10
0.862371
20
0.231523
30
0.0
11
0.862371
21
1.079850
31
0.0
0
LINE
8
LEFT_HID
6
HIDDEN
10
0.862371
20
0.995093
30
0.0
11
0.862371
21
1.002479
31
0.0
0
LINE
8
LEFT_HID
6
HIDDEN
10
0.800513
20
0.995093
30
0.0
11
0.800513
21
1.002479
31
0.0
0
LINE
8
LEFT_HID
6
HIDDEN
10
0.862371
20
1.048921
30
0.0
11
0.862371
21
0.971550
31
0.0
0
LINE
8
LEFT_HID
6
HIDDEN
10
0.862371
20
0.288762
30
0.0
11
0.862371
21
0.262452
31
0.0
0
LINE
8
LEFT_HID
6
HIDDEN
10
0.862371
20
0.262452
30
0.0
11
0.862371
21
0.288762
31
0.0
0
LINE
8
LEFT_HID
6
HIDDEN
10
0.800513
20
1.048921
30
0.0
11
0.800513
21
0.971550
31
0.0
0
LINE
8
LEFT_HID
6
HIDDEN
10
0.800513
20
0.288762
30
0.0
11
0.800513
21
0.262452
31
0.0
0
LINE
8
LEFT_HID
6
HIDDEN
10
0.800513
20
0.262452
30
0.0
11
0.800513
21
0.288762
31
0.0
0
LINE
8
LEFT_HID
6
HIDDEN
10
0.862371
20
0.262452
30
0.0
11
0.800513
21
0.262452
31
0.0
0
LINE
8
TOP
10
0.000000
20
0.061858
30
0.0
11
0.000000
21
0.000000
31
0.0
0
LINE
8
TOP
10
0.630874
20
0.061858
30
0.0
11
0.206710
21
0.061858
31
0.0
0
LINE
8
TOP
10
0.630874
20
0.000000
30
0.0
11
0.206710
21
0.000000
31
0.0
0
LINE
8
TOP
10
0.206710
20
0.000000
30
0.0
11
0.065945
21
0.000000
31
0.0
0
LINE
8
TOP
10
0.065945
20
0.061858
30
0.0
11
0.065945
21
0.000000
31
0.0
0
LINE
8
TOP
10
0.206710
20
0.061858
30
0.0
11
0.065945
21
0.061858
31
0.0
0
LINE
8
TOP
10
0.065945
20
0.000000
30
0.0
11
0.065289
21
0.000000
31
0.0
0
LINE
8
TOP
10
0.065289
20
0.061858
30
0.0
11
0.065289
21
0.000000
31
0.0
0
LINE
8
TOP
10
0.065945
20
0.061858
30
0.0
11
0.065289
21
0.061858
31
0.0
0
LINE
8
TOP
10
0.065289
20
0.000000
30
0.0
11
0.000000
21
0.000000
31
0.0
0
LINE
8
TOP
10
0.065289
20
0.061858
30
0.0
11
0.000000
21
0.061858
31
0.0
0
LINE
8
TOP
10
0.206710
20
0.061858
30
0.0
11
0.206710
21
0.000000
31
0.0
0
LINE
8
TOP
10
0.630874
20
0.000000
30
0.0
11
0.630874
21
0.061858
31
0.0
0
LINE
8
TOP_HID
6
HIDDEN
10
0.000000
20
0.000000
30
0.0
11
0.054166
21
0.000000
31
0.0
0
LINE
8
TOP_HID
6
HIDDEN
10
0.054166
20
0.061858
30
0.0
11
0.054166
21
0.000000
31
0.0
0
LINE
8
TOP_HID
6
HIDDEN
10
0.000000
20
0.061858
30
0.0
11
0.054166
21
0.061858
31
0.0
0
LINE
8
TOP_HID
6
HIDDEN
10
0.054166
20
0.061858
30
0.0
11
0.630874
21
0.061858
31
0.0
0
LINE
8
TOP_HID
6
HIDDEN
10
0.054166
20
0.000000
30
0.0
11
0.630874
21
0.000000
31
0.0
0
LINE
8
TOP_HID
6
HIDDEN
10
0.065945
20
0.000000
30
0.0
11
0.114863
21
0.000000
31
0.0
0
LINE
8
TOP_HID
6
HIDDEN
10
0.114863
20
0.000000
30
0.0
11
0.120095
21
0.000000
31
0.0
0
LINE
8
TOP_HID
6
HIDDEN
10
0.120095
20
0.000000
30
0.0
11
0.110615
21
0.000000
31
0.0
0
LINE
8
TOP_HID
6
HIDDEN
10
0.110615
20
0.000000
30
0.0
11
0.065945
21
0.000000
31
0.0
0
LINE
8
TOP_HID
6
HIDDEN
10
0.065945
20
0.061858
30
0.0
11
0.114863
21
0.061858
31
0.0
0
LINE
8
TOP_HID
6
HIDDEN
10
0.114863
20
0.061858
30
0.0
11
0.120095
21
0.061858
31
0.0
0
LINE
8
TOP_HID
6
HIDDEN
10
0.120095
20
0.061858
30
0.0
11
0.110615
21
0.061858
31
0.0
0
LINE
8
TOP_HID
6
HIDDEN
10
0.110615
20
0.061858
30
0.0
11
0.065945
21
0.061858
31
0.0
0
LINE
8
TOP_HID
6
HIDDEN
10
0.065945
20
0.000000
30
0.0
11
0.093011
21
0.000000
31
0.0
0
LINE
8
TOP_HID
6
HIDDEN
10
0.065945
20
0.061858
30
0.0
11
0.093011
21
0.061858
31
0.0
0
LINE
8
TOP_HID
6
HIDDEN
10
0.093011
20
0.000000
30
0.0
11
0.166729
21
0.000000
31
0.0
0
LINE
8
TOP_HID
6
HIDDEN
10
0.166729
20
0.061858
30
0.0
11
0.166729
21
0.000000
31
0.0
0
LINE
8
TOP_HID
6
HIDDEN
10
0.093011
20
0.061858
30
0.0
11
0.166729
21
0.061858
31
0.0
0
LINE
8
TOP_HID
6
HIDDEN
10
0.166729
20
0.000000
30
0.0
11
0.110615
21
0.000000
31
0.0
0
LINE
8
TOP_HID
6
HIDDEN
10
0.110615
20
0.000000
30
0.0
11
0.093011
21
0.000000
31
0.0
0
LINE
8
TOP_HID
6
HIDDEN
10
0.093011
20
0.061858
30
0.0
11
0.093011
21
0.000000
31
0.0
0
LINE
8
TOP_HID
6
HIDDEN
10
0.166729
20
0.061858
30
0.0
11
0.110615
21
0.061858
31
0.0
0
LINE
8
TOP_HID
6
HIDDEN
10
0.110615
20
0.061858
30
0.0
11
0.093011
21
0.061858
31
0.0
0
LINE
8
TOP_HID
6
HIDDEN
10
0.093011
20
0.000000
30
0.0
11
0.065945
21
0.000000
31
0.0
0
LINE
8
TOP_HID
6
HIDDEN
10
0.093011
20
0.061858
30
0.0
11
0.065945
21
0.061858
31
0.0
0
LINE
8
TOP_HID
6
HIDDEN
10
0.065945
20
0.061858
30
0.0
11
0.089166
21
0.061858
31
0.0
0
LINE
8
TOP_HID
6
HIDDEN
10
0.089166
20
0.061858
30
0.0
11
0.065945
21
0.061858
31
0.0
0
LINE
8
TOP_HID
6
HIDDEN
10
0.065945
20
0.000000
30
0.0
11
0.089166
21
0.000000
31
0.0
0
LINE
8
TOP_HID
6
HIDDEN
10
0.089166
20
0.000000
30
0.0
11
0.065945
21
0.000000
31
0.0
0
LINE
8
TOP_HID
6
HIDDEN
10
0.065945
20
0.000000
30
0.0
11
0.114863
21
0.000000
31
0.0
0
LINE
8
TOP_HID
6
HIDDEN
10
0.114863
20
0.000000
30
0.0
11
0.206710
21
0.000000
31
0.0
0
LINE
8
TOP_HID
6
HIDDEN
10
0.065945
20
0.061858
30
0.0
11
0.114863
21
0.061858
31
0.0
0
LINE
8
TOP_HID
6
HIDDEN
10
0.114863
20
0.061858
30
0.0
11
0.206710
21
0.061858
31
0.0
0
LINE
8
TOP_HID
6
HIDDEN
10
0.206710
20
0.000000
30
0.0
11
0.599945
21
0.000000
31
0.0
0
LINE
8
TOP_HID
6
HIDDEN
10
0.599945
20
0.000000
30
0.0
11
0.065945
21
0.000000
31
0.0
0
LINE
8
TOP_HID
6
HIDDEN
10
0.206710
20
0.061858
30
0.0
11
0.599945
21
0.061858
31
0.0
0
LINE
8
TOP_HID
6
HIDDEN
10
0.599945
20
0.061858
30
0.0
11
0.065945
21
0.061858
31
0.0
0
LINE
8
TOP_HID
6
HIDDEN
10
0.120095
20
0.000000
30
0.0
11
0.120095
21
0.061858
31
0.0
0
LINE
8
TOP_HID
6
HIDDEN
10
0.089166
20
0.000000
30
0.0
11
0.089166
21
0.061858
31
0.0
0
LINE
8
TOP_HID
6
HIDDEN
10
0.599945
20
0.000000
30
0.0
11
0.599945
21
0.061858
31
0.0
0
ENDSEC
0
EOF
