0
SECTION
2
HEADER
9
$ACADVER
1
AC1009
0
ENDSEC
0
SECTION
2
TABLES
0
TABLE
2
LTYPE
70
3
0
LTYPE
2
CONTINUOUS
70
0
3
Solid line
72
65
73
0
40
0.0
0
LTYPE
2
HIDDEN
70
0
3
__ __ __ __ __
72
65
73
2
40
0.037500
49
0.025012
49
-0.012487
0
LTYPE
2
CENTER
70
0
3
___ _ ___ _ ___
72
65
73
4
40
0.087487
49
0.049987
49
-0.012487
49
0.012487
49
-0.012487
0
ENDTAB
0
TABLE
2
LAYER
70
6
0
LAYER
2
0
70
0
62
7
6
CONTINUOUS
0
LAYER
2
FRONT
70
0
62
7
6
CONTINUOUS
0
LAYER
2
LEFT
70
0
62
7
6
CONTINUOUS
0
LAYER
2
LEFT_HID
70
0
62
7
6
HIDDEN
0
LAYER
2
TOP
70
0
62
7
6
CONTINUOUS
0
LAYER
2
TOP_HID
70
0
62
7
6
HIDDEN
0
ENDTAB
0
ENDSEC
0
SECTION
2
ENTITIES
0
LINE
8
FRONT
10
0.000000
20
0.218571
30
0.0
11
0.750000
21
0.218571
31
0.0
0
LINE
8
FRONT
10
0.750000
20
0.218571
30
0.0
11
0.750000
21
0.518571
31
0.0
0
LINE
8
FRONT
10
0.750000
20
0.518571
30
0.0
11
0.000000
21
0.518571
31
0.0
0
LINE
8
FRONT
10
0.000000
20
0.518571
30
0.0
11
0.000000
21
0.218571
31
0.0
0
LINE
8
FRONT
10
0.175714
20
0.411429
30
0.0
11
0.175906
21
0.407588
31
0.0
0
LINE
8
FRONT
10
0.175906
20
0.407588
30
0.0
11
0.176479
21
0.403786
31
0.0
0
LINE
8
FRONT
10
0.176479
20
0.403786
30
0.0
11
0.177428
21
0.400059
31
0.0
0
LINE
8
FRONT
10
0.177428
20
0.400059
30
0.0
11
0.178743
21
0.396446
31
0.0
0
LINE
8
FRONT
10
0.178743
20
0.396446
30
0.0
11
0.180411
21
0.392982
31
0.0
0
LINE
8
FRONT
10
0.180411
20
0.392982
30
0.0
11
0.182417
21
0.389701
31
0.0
0
LINE
8
FRONT
10
0.182417
20
0.389701
30
0.0
11
0.184738
21
0.386635
31
0.0
0
LINE
8
FRONT
10
0.184738
20
0.386635
30
0.0
11
0.187354
21
0.383817
31
0.0
0
LINE
8
FRONT
10
0.187354
20
0.383817
30
0.0
11
0.190237
21
0.381272
31
0.0
0
LINE
8
FRONT
10
0.190237
20
0.381272
30
0.0
11
0.193359
21
0.379028
31
0.0
0
LINE
8
FRONT
10
0.193359
20
0.379028
30
0.0
11
0.196689
21
0.377105
31
0.0
0
LINE
8
FRONT
10
0.196689
20
0.377105
30
0.0
11
0.200194
21
0.375523
31
0.0
0
LINE
8
FRONT
10
0.200194
20
0.375523
30
0.0
11
0.203839
21
0.374299
31
0.0
0
LINE
8
FRONT
10
0.203839
20
0.374299
30
0.0
11
0.207588
21
0.373443
31
0.0
0
LINE
8
FRONT
10
0.207588
20
0.373443
30
0.0
11
0.211403
21
0.372965
31
0.0
0
LINE
8
FRONT
10
0.211403
20
0.372965
30
0.0
11
0.215247
21
0.372869
31
0.0
0
LINE
8
FRONT
10
0.215247
20
0.372869
30
0.0
11
0.219082
21
0.373156
31
0.0
0
LINE
8
FRONT
10
0.219082
20
0.373156
30
0.0
11
0.222869
21
0.373824
31
0.0
0
LINE
8
FRONT
10
0.222869
20
0.373824
30
0.0
11
0.226570
21
0.374866
31
0.0
0
LINE
8
FRONT
10
0.226570
20
0.374866
30
0.0
11
0.230150
21
0.376270
31
0.0
0
LINE
8
FRONT
10
0.230150
20
0.376270
30
0.0
11
0.233571
21
0.378025
31
0.0
0
LINE
8
FRONT
10
0.233571
20
0.378025
30
0.0
11
0.236802
21
0.380111
31
0.0
0
LINE
8
FRONT
10
0.236802
20
0.380111
30
0.0
11
0.239808
21
0.382508
31
0.0
0
LINE
8
FRONT
10
0.239808
20
0.382508
30
0.0
11
0.242561
21
0.385193
31
0.0
0
LINE
8
FRONT
10
0.242561
20
0.385193
30
0.0
11
0.245032
21
0.388139
31
0.0
0
LINE
8
FRONT
10
0.245032
20
0.388139
30
0.0
11
0.247198
21
0.391316
31
0.0
0
LINE
8
FRONT
10
0.247198
20
0.391316
30
0.0
11
0.249037
21
0.394693
31
0.0
0
LINE
8
FRONT
10
0.249037
20
0.394693
30
0.0
11
0.250531
21
0.398236
31
0.0
0
LINE
8
FRONT
10
0.250531
20
0.398236
30
0.0
11
0.251664
21
0.401911
31
0.0
0
LINE
8
FRONT
10
0.251664
20
0.401911
30
0.0
11
0.252426
21
0.405680
31
0.0
0
LINE
8
FRONT
10
0.252426
20
0.405680
30
0.0
11
0.252809
21
0.409506
31
0.0
0
LINE
8
FRONT
10
0.252809
20
0.409506
30
0.0
11
0.252809
21
0.413351
31
0.0
0
LINE
8
FRONT
10
0.252809
20
0.413351
30
0.0
11
0.252426
21
0.417177
31
0.0
0
LINE
8
FRONT
10
0.252426
20
0.417177
30
0.0
11
0.251664
21
0.420946
31
0.0
0
LINE
8
FRONT
10
0.251664
20
0.420946
30
0.0
11
0.250531
21
0.424621
31
0.0
0
LINE
8
FRONT
10
0.250531
20
0.424621
30
0.0
11
0.249037
21
0.428164
31
0.0
0
LINE
8
FRONT
10
0.249037
20
0.428164
30
0.0
11
0.247198
21
0.431541
31
0.0
0
LINE
8
FRONT
10
0.247198
20
0.431541
30
0.0
11
0.245032
21
0.434718
31
0.0
0
LINE
8
FRONT
10
0.245032
20
0.434718
30
0.0
11
0.242561
21
0.437664
31
0.0
0
LINE
8
FRONT
10
0.242561
20
0.437664
30
0.0
11
0.239808
21
0.440349
31
0.0
0
LINE
8
FRONT
10
0.239808
20
0.440349
30
0.0
11
0.236802
21
0.442746
31
0.0
0
LINE
8
FRONT
10
0.236802
20
0.442746
30
0.0
11
0.233571
21
0.444832
31
0.0
0
LINE
8
FRONT
10
0.233571
20
0.444832
30
0.0
11
0.230150
21
0.446587
31
0.0
0
LINE
8
FRONT
10
0.230150
20
0.446587
30
0.0
11
0.226570
21
0.447991
31
0.0
0
LINE
8
FRONT
10
0.226570
20
0.447991
30
0.0
11
0.222869
21
0.449033
31
0.0
0
LINE
8
FRONT
10
0.222869
20
0.449033
30
0.0
11
0.219082
21
0.449701
31
0.0
0
LINE
8
FRONT
10
0.219082
20
0.449701
30
0.0
11
0.215247
21
0.449988
31
0.0
0
LINE
8
FRONT
10
0.215247
20
0.449988
30
0.0
11
0.211403
21
0.449892
31
0.0
0
LINE
8
FRONT
10
0.211403
20
0.449892
30
0.0
11
0.207588
21
0.449414
31
0.0
0
LINE
8
FRONT
10
0.207588
20
0.449414
30
0.0
11
0.203839
21
0.448558
31
0.0
0
LINE
8
FRONT
10
0.203839
20
0.448558
30
0.0
11
0.200194
21
0.447334
31
0.0
0
LINE
8
FRONT
10
0.200194
20
0.447334
30
0.0
11
0.196689
21
0.445752
31
0.0
0
LINE
8
FRONT
10
0.196689
20
0.445752
30
0.0
11
0.193359
21
0.443830
31
0.0
0
LINE
8
FRONT
10
0.193359
20
0.443830
30
0.0
11
0.190237
21
0.441585
31
0.0
0
LINE
8
FRONT
10
0.190237
20
0.441585
30
0.0
11
0.187354
21
0.439041
31
0.0
0
LINE
8
FRONT
10
0.187354
20
0.439041
30
0.0
11
0.184738
21
0.436222
31
0.0
0
LINE
8
FRONT
10
0.184738
20
0.436222
30
0.0
11
0.182417
21
0.433157
31
0.0
0
LINE
8
FRONT
10
0.182417
20
0.433157
30
0.0
11
0.180411
21
0.429876
31
0.0
0
LINE
8
FRONT
10
0.180411
20
0.429876
30
0.0
11
0.178743
21
0.426411
31
0.0
0
LINE
8
FRONT
10
0.178743
20
0.426411
30
0.0
11
0.177428
21
0.422798
31
0.0
0
LINE
8
FRONT
10
0.177428
20
0.422798
30
0.0
11
0.176479
21
0.419071
31
0.0
0
LINE
8
FRONT
10
0.176479
20
0.419071
30
0.0
11
0.175906
21
0.415269
31
0.0
0
LINE
8
FRONT
10
0.175906
20
0.415269
30
0.0
11
0.175714
21
0.411429
31
0.0
0
LINE
8
FRONT
10
0.390000
20
0.411429
30
0.0
11
0.390192
21
0.407588
31
0.0
0
LINE
8
FRONT
10
0.390192
20
0.407588
30
0.0
11
0.390765
21
0.403786
31
0.0
0
LINE
8
FRONT
10
0.390765
20
0.403786
30
0.0
11
0.391714
21
0.400059
31
0.0
0
LINE
8
FRONT
10
0.391714
20
0.400059
30
0.0
11
0.393029
21
0.396446
31
0.0
0
LINE
8
FRONT
10
0.393029
20
0.396446
30
0.0
11
0.394697
21
0.392982
31
0.0
0
LINE
8
FRONT
10
0.394697
20
0.392982
30
0.0
11
0.396702
21
0.389701
31
0.0
0
LINE
8
FRONT
10
0.396702
20
0.389701
30
0.0
11
0.399024
21
0.386635
31
0.0
0
LINE
8
FRONT
10
0.399024
20
0.386635
30
0.0
11
0.401639
21
0.383817
31
0.0
0
LINE
8
FRONT
10
0.401639
20
0.383817
30
0.0
11
0.404523
21
0.381272
31
0.0
0
LINE
8
FRONT
10
0.404523
20
0.381272
30
0.0
11
0.407645
21
0.379028
31
0.0
0
LINE
8
FRONT
10
0.407645
20
0.379028
30
0.0
11
0.410975
21
0.377105
31
0.0
0
LINE
8
FRONT
10
0.410975
20
0.377105
30
0.0
11
0.414480
21
0.375523
31
0.0
0
LINE
8
FRONT
10
0.414480
20
0.375523
30
0.0
11
0.418125
21
0.374299
31
0.0
0
LINE
8
FRONT
10
0.418125
20
0.374299
30
0.0
11
0.421874
21
0.373443
31
0.0
0
LINE
8
FRONT
10
0.421874
20
0.373443
30
0.0
11
0.425689
21
0.372965
31
0.0
0
LINE
8
FRONT
10
0.425689
20
0.372965
30
0.0
11
0.429533
21
0.372869
31
0.0
0
LINE
8
FRONT
10
0.429533
20
0.372869
30
0.0
11
0.433368
21
0.373156
31
0.0
0
LINE
8
FRONT
10
0.433368
20
0.373156
30
0.0
11
0.437154
21
0.373824
31
0.0
0
LINE
8
FRONT
10
0.437154
20
0.373824
30
0.0
11
0.440856
21
0.374866
31
0.0
0
LINE
8
FRONT
10
0.440856
20
0.374866
30
0.0
11
0.444435
21
0.376270
31
0.0
0
LINE
8
FRONT
10
0.444435
20
0.376270
30
0.0
11
0.447857
21
0.378025
31
0.0
0
LINE
8
FRONT
10
0.447857
20
0.378025
30
0.0
11
0.451087
21
0.380111
31
0.0
0
LINE
8
FRONT
10
0.451087
20
0.380111
30
0.0
11
0.454094
21
0.382508
31
0.0
0
LINE
8
FRONT
10
0.454094
20
0.382508
30
0.0
11
0.456846
21
0.385193
31
0.0
0
LINE
8
FRONT
10
0.456846
20
0.385193
30
0.0
11
0.459318
21
0.388139
31
0.0
0
LINE
8
FRONT
10
0.459318
20
0.388139
30
0.0
11
0.461484
21
0.391316
31
0.0
0
LINE
8
FRONT
10
0.461484
20
0.391316
30
0.0
11
0.463323
21
0.394693
31
0.0
0
LINE
8
FRONT
10
0.463323
20
0.394693
30
0.0
11
0.464817
21
0.398236
31
0.0
0
LINE
8
FRONT
10
0.464817
20
0.398236
30
0.0
11
0.465950
21
0.401911
31
0.0
0
LINE
8
FRONT
10
0.465950
20
0.401911
30
0.0
11
0.466712
21
0.405680
31
0.0
0
LINE
8
FRONT
10
0.466712
20
0.405680
30
0.0
11
0.467095
21
0.409506
31
0.0
0
LINE
8
FRONT
10
0.467095
20
0.409506
30
0.0
11
0.467095
21
0.413351
31
0.0
0
LINE
8
FRONT
10
0.467095
20
0.413351
30
0.0
11
0.466712
21
0.417177
31
0.0
0
LINE
8
FRONT
10
0.466712
20
0.417177
30
0.0
11
0.465950
21
0.420946
31
0.0
0
LINE
8
FRONT
10
0.465950
20
0.420946
30
0.0
11
0.464817
21
0.424621
31
0.0
0
LINE
8
FRONT
10
0.464817
20
0.424621
30
0.0
11
0.463323
21
0.428164
31
0.0
0
LINE
8
FRONT
10
0.463323
20
0.428164
30
0.0
11
0.461484
21
0.431541
31
0.0
0
LINE
8
FRONT
10
0.461484
20
0.431541
30
0.0
11
0.459318
21
0.434718
31
0.0
0
LINE
8
FRONT
10
0.459318
20
0.434718
30
0.0
11
0.456846
21
0.437664
31
0.0
0
LINE
8
FRONT
10
0.456846
20
0.437664
30
0.0
11
0.454094
21
0.440349
31
0.0
0
LINE
8
FRONT
10
0.454094
20
0.440349
30
0.0
11
0.451087
21
0.442746
31
0.0
0
LINE
8
FRONT
10
0.451087
20
0.442746
30
0.0
11
0.447857
21
0.444832
31
0.0
0
LINE
8
FRONT
10
0.447857
20
0.444832
30
0.0
11
0.444435
21
0.446587
31
0.0
0
LINE
8
FRONT
10
0.444435
20
0.446587
30
0.0
11
0.440856
21
0.447991
31
0.0
0
LINE
8
FRONT
10
0.440856
20
0.447991
30
0.0
11
0.437154
21
0.449033
31
0.0
0
LINE
8
FRONT
10
0.437154
20
0.449033
30
0.0
11
0.433368
21
0.449701
31
0.0
0
LINE
8
FRONT
10
0.433368
20
0.449701
30
0.0
11
0.429533
21
0.449988
31
0.0
0
LINE
8
FRONT
10
0.429533
20
0.449988
30
0.0
11
0.425689
21
0.449892
31
0.0
0
LINE
8
FRONT
10
0.425689
20
0.449892
30
0.0
11
0.421874
21
0.449414
31
0.0
0
LINE
8
FRONT
10
0.421874
20
0.449414
30
0.0
11
0.418125
21
0.448558
31
0.0
0
LINE
8
FRONT
10
0.418125
20
0.448558
30
0.0
11
0.414480
21
0.447334
31
0.0
0
LINE
8
FRONT
10
0.414480
20
0.447334
30
0.0
11
0.410975
21
0.445752
31
0.0
0
LINE
8
FRONT
10
0.410975
20
0.445752
30
0.0
11
0.407645
21
0.443830
31
0.0
0
LINE
8
FRONT
10
0.407645
20
0.443830
30
0.0
11
0.404523
21
0.441585
31
0.0
0
LINE
8
FRONT
10
0.404523
20
0.441585
30
0.0
11
0.401639
21
0.439041
31
0.0
0
LINE
8
FRONT
10
0.401639
20
0.439041
30
0.0
11
0.399024
21
0.436222
31
0.0
0
LINE
8
FRONT
10
0.399024
20
0.436222
30
0.0
11
0.396702
21
0.433157
31
0.0
0
LINE
8
FRONT
10
0.396702
20
0.433157
30
0.0
11
0.394697
21
0.429876
31
0.0
0
LINE
8
FRONT
10
0.394697
20
0.429876
30
0.0
11
0.393029
21
0.426411
31
0.0
0
LINE
8
FRONT
10
0.393029
20
0.426411
30
0.0
11
0.391714
21
0.422798
31
0.0
0
LINE
8
FRONT
10
0.391714
20
0.422798
30
0.0
11
0.390765
21
0.419071
31
0.0
0
LINE
8
FRONT
10
0.390765
20
0.419071
30
0.0
11
0.390192
21
0.415269
31
0.0
0
LINE
8
FRONT
10
0.390192
20
0.415269
30
0.0
11
0.390000
21
0.411429
31
0.0
0
LINE
8
FRONT
10
0.604286
20
0.411429
30
0.0
11
0.604477
21
0.407588
31
0.0
0
LINE
8
FRONT
10
0.604477
20
0.407588
30
0.0
11
0.605050
21
0.403786
31
0.0
0
LINE
8
FRONT
10
0.605050
20
0.403786
30
0.0
11
0.605999
21
0.400059
31
0.0
0
LINE
8
FRONT
10
0.605999
20
0.400059
30
0.0
11
0.607314
21
0.396446
31
0.0
0
LINE
8
FRONT
10
0.607314
20
0.396446
30
0.0
11
0.608983
21
0.392982
31
0.0
0
LINE
8
FRONT
10
0.608983
20
0.392982
30
0.0
11
0.610988
21
0.389701
31
0.0
0
LINE
8
FRONT
10
0.610988
20
0.389701
30
0.0
11
0.613310
21
0.386635
31
0.0
0
LINE
8
FRONT
10
0.613310
20
0.386635
30
0.0
11
0.615925
21
0.383817
31
0.0
0
LINE
8
FRONT
10
0.615925
20
0.383817
30
0.0
11
0.618808
21
0.381272
31
0.0
0
LINE
8
FRONT
10
0.618808
20
0.381272
30
0.0
11
0.621930
21
0.379028
31
0.0
0
LINE
8
FRONT
10
0.621930
20
0.379028
30
0.0
11
0.625260
21
0.377105
31
0.0
0
LINE
8
FRONT
10
0.625260
20
0.377105
30
0.0
11
0.628765
21
0.375523
31
0.0
0
LINE
8
FRONT
10
0.628765
20
0.375523
30
0.0
11
0.632410
21
0.374299
31
0.0
0
LINE
8
FRONT
10
0.632410
20
0.374299
30
0.0
11
0.636159
21
0.373443
31
0.0
0
LINE
8
FRONT
10
0.636159
20
0.373443
30
0.0
11
0.639975
21
0.372965
31
0.0
0
LINE
8
FRONT
10
0.639975
20
0.372965
30
0.0
11
0.643819
21
0.372869
31
0.0
0
LINE
8
FRONT
10
0.643819
20
0.372869
30
0.0
11
0.647653
21
0.373156
31
0.0
0
LINE
8
FRONT
10
0.647653
20
0.373156
30
0.0
11
0.651440
21
0.373824
31
0.0
0
LINE
8
FRONT
10
0.651440
20
0.373824
30
0.0
11
0.655142
21
0.374866
31
0.0
0
LINE
8
FRONT
10
0.655142
20
0.374866
30
0.0
11
0.658721
21
0.376270
31
0.0
0
LINE
8
FRONT
10
0.658721
20
0.376270
30
0.0
11
0.662143
21
0.378025
31
0.0
0
LINE
8
FRONT
10
0.662143
20
0.378025
30
0.0
11
0.665373
21
0.380111
31
0.0
0
LINE
8
FRONT
10
0.665373
20
0.380111
30
0.0
11
0.668379
21
0.382508
31
0.0
0
LINE
8
FRONT
10
0.668379
20
0.382508
30
0.0
11
0.671132
21
0.385193
31
0.0
0
LINE
8
FRONT
10
0.671132
20
0.385193
30
0.0
11
0.673604
21
0.388139
31
0.0
0
LINE
8
FRONT
10
0.673604
20
0.388139
30
0.0
11
0.675770
21
0.391316
31
0.0
0
LINE
8
FRONT
10
0.675770
20
0.391316
30
0.0
11
0.677609
21
0.394693
31
0.0
0
LINE
8
FRONT
10
0.677609
20
0.394693
30
0.0
11
0.679102
21
0.398236
31
0.0
0
LINE
8
FRONT
10
0.679102
20
0.398236
30
0.0
11
0.680236
21
0.401911
31
0.0
0
LINE
8
FRONT
10
0.680236
20
0.401911
30
0.0
11
0.680998
21
0.405680
31
0.0
0
LINE
8
FRONT
10
0.680998
20
0.405680
30
0.0
11
0.681381
21
0.409506
31
0.0
0
LINE
8
FRONT
10
0.681381
20
0.409506
30
0.0
11
0.681381
21
0.413351
31
0.0
0
LINE
8
FRONT
10
0.681381
20
0.413351
30
0.0
11
0.680998
21
0.417177
31
0.0
0
LINE
8
FRONT
10
0.680998
20
0.417177
30
0.0
11
0.680236
21
0.420946
31
0.0
0
LINE
8
FRONT
10
0.680236
20
0.420946
30
0.0
11
0.679102
21
0.424621
31
0.0
0
LINE
8
FRONT
10
0.679102
20
0.424621
30
0.0
11
0.677609
21
0.428164
31
0.0
0
LINE
8
FRONT
10
0.677609
20
0.428164
30
0.0
11
0.675770
21
0.431541
31
0.0
0
LINE
8
FRONT
10
0.675770
20
0.431541
30
0.0
11
0.673604
21
0.434718
31
0.0
0
LINE
8
FRONT
10
0.673604
20
0.434718
30
0.0
11
0.671132
21
0.437664
31
0.0
0
LINE
8
FRONT
10
0.671132
20
0.437664
30
0.0
11
0.668379
21
0.440349
31
0.0
0
LINE
8
FRONT
10
0.668379
20
0.440349
30
0.0
11
0.665373
21
0.442746
31
0.0
0
LINE
8
FRONT
10
0.665373
20
0.442746
30
0.0
11
0.662143
21
0.444832
31
0.0
0
LINE
8
FRONT
10
0.662143
20
0.444832
30
0.0
11
0.658721
21
0.446587
31
0.0
0
LINE
8
FRONT
10
0.658721
20
0.446587
30
0.0
11
0.655142
21
0.447991
31
0.0
0
LINE
8
FRONT
10
0.655142
20
0.447991
30
0.0
11
0.651440
21
0.449033
31
0.0
0
LINE
8
FRONT
10
0.651440
20
0.449033
30
0.0
11
0.647653
21
0.449701
31
0.0
0
LINE
8
FRONT
10
0.647653
20
0.449701
30
0.0
11
0.643819
21
0.449988
31
0.0
0
LINE
8
FRONT
10
0.643819
20
0.449988
30
0.0
11
0.639975
21
0.449892
31
0.0
0
LINE
8
FRONT
10
0.639975
20
0.449892
30
0.0
11
0.636159
21
0.449414
31
0.0
0
LINE
8
FRONT
10
0.636159
20
0.449414
30
0.0
11
0.632410
21
0.448558
31
0.0
0
LINE
8
FRONT
10
0.632410
20
0.448558
30
0.0
11
0.628765
21
0.447334
31
0.0
0
LINE
8
FRONT
10
0.628765
20
0.447334
30
0.0
11
0.625260
21
0.445752
31
0.0
0
LINE
8
FRONT
10
0.625260
20
0.445752
30
0.0
11
0.621930
21
0.443830
31
0.0
0
LINE
8
FRONT
10
0.621930
20
0.443830
30
0.0
11
0.618808
21
0.441585
31
0.0
0
LINE
8
FRONT
10
0.618808
20
0.441585
30
0.0
11
0.615925
21
0.439041
31
0.0
0
LINE
8
FRONT
10
0.615925
20
0.439041
30
0.0
11
0.613310
21
0.436222
31
0.0
0
LINE
8
FRONT
10
0.613310
20
0.436222
30
0.0
11
0.610988
21
0.433157
31
0.0
0
LINE
8
FRONT
10
0.610988
20
0.433157
30
0.0
11
0.608983
21
0.429876
31
0.0
0
LINE
8
FRONT
10
0.608983
20
0.429876
30
0.0
11
0.607314
21
0.426411
31
0.0
0
LINE
8
FRONT
10
0.607314
20
0.426411
30
0.0
11
0.605999
21
0.422798
31
0.0
0
LINE
8
FRONT
10
0.605999
20
0.422798
30
0.0
11
0.605050
21
0.419071
31
0.0
0
LINE
8
FRONT
10
0.605050
20
0.419071
30
0.0
11
0.604477
21
0.415269
31
0.0
0
LINE
8
FRONT
10
0.604477
20
0.415269
30
0.0
11
0.604286
21
0.411429
31
0.0
0
LINE
8
LEFT
10
0.968571
20
0.218571
30
0.0
11
0.900000
21
0.218571
31
0.0
0
LINE
8
LEFT
10
0.968571
20
0.518571
30
0.0
11
0.900000
21
0.518571
31
0.0
0
LINE
8
LEFT
10
0.900000
20
0.518571
30
0.0
11
0.900000
21
0.218571
31
0.0
0
LINE
8
LEFT
10
0.968571
20
0.518571
30
0.0
11
0.968571
21
0.218571
31
0.0
0
LINE
8
LEFT_HID
6
HIDDEN
10
0.900000
20
0.411429
30
0.0
11
0.900000
21
0.372857
31
0.0
0
LINE
8
LEFT_HID
6
HIDDEN
10
0.900000
20
0.372857
30
0.0
11
0.900000
21
0.450000
31
0.0
0
LINE
8
LEFT_HID
6
HIDDEN
10
0.900000
20
0.450000
30
0.0
11
0.900000
21
0.411429
31
0.0
0
LINE
8
LEFT_HID
6
HIDDEN
10
0.968571
20
0.411429
30
0.0
11
0.968571
21
0.372857
31
0.0
0
LINE
8
LEFT_HID
6
HIDDEN
10
0.968571
20
0.372857
30
0.0
11
0.968571
21
0.450000
31
0.0
0
LINE
8
LEFT_HID
6
HIDDEN
10
0.968571
20
0.450000
30
0.0
11
0.968571
21
0.411429
31
0.0
0
LINE
8
LEFT_HID
6
HIDDEN
10
0.900000
20
0.411429
30
0.0
11
0.900000
21
0.372857
31
0.0
0
LINE
8
LEFT_HID
6
HIDDEN
10
0.900000
20
0.372857
30
0.0
11
0.900000
21
0.450000
31
0.0
0
LINE
8
LEFT_HID
6
HIDDEN
10
0.900000
20
0.450000
30
0.0
11
0.900000
21
0.411429
31
0.0
0
LINE
8
LEFT_HID
6
HIDDEN
10
0.968571
20
0.411429
30
0.0
11
0.968571
21
0.372857
31
0.0
0
LINE
8
LEFT_HID
6
HIDDEN
10
0.968571
20
0.372857
30
0.0
11
0.968571
21
0.450000
31
0.0
0
LINE
8
LEFT_HID
6
HIDDEN
10
0.968571
20
0.450000
30
0.0
11
0.968571
21
0.411429
31
0.0
0
LINE
8
LEFT_HID
6
HIDDEN
10
0.900000
20
0.411429
30
0.0
11
0.900000
21
0.372857
31
0.0
0
LINE
8
LEFT_HID
6
HIDDEN
10
0.900000
20
0.372857
30
0.0
11
0.900000
21
0.450000
31
0.0
0
LINE
8
LEFT_HID
6
HIDDEN
10
0.900000
20
0.450000
30
0.0
11
0.900000
21
0.411429
31
0.0
0
LINE
8
LEFT_HID
6
HIDDEN
10
0.968571
20
0.411429
30
0.0
11
0.968571
21
0.372857
31
0.0
0
LINE
8
LEFT_HID
6
HIDDEN
10
0.968571
20
0.372857
30
0.0
11
0.968571
21
0.450000
31
0.0
0
LINE
8
LEFT_HID
6
HIDDEN
10
0.968571
20
0.450000
30
0.0
11
0.968571
21
0.411429
31
0.0
0
LINE
8
LEFT_HID
6
HIDDEN
10
0.900000
20
0.372857
30
0.0
11
0.968571
21
0.372857
31
0.0
0
LINE
8
LEFT_HID
6
HIDDEN
10
0.900000
20
0.450000
30
0.0
11
0.968571
21
0.450000
31
0.0
0
LINE
8
LEFT_HID
6
HIDDEN
10
0.900000
20
0.372857
30
0.0
11
0.968571
21
0.372857
31
0.0
0
LINE
8
LEFT_HID
6
HIDDEN
10
0.900000
20
0.450000
30
0.0
11
0.968571
21
0.450000
31
0.0
0
LINE
8
LEFT_HID
6
HIDDEN
10
0.900000
20
0.372857
30
0.0
11
0.968571
21
0.372857
31
0.0
0
LINE
8
LEFT_HID
6
HIDDEN
10
0.900000
20
0.450000
30
0.0
11
0.968571
21
0.450000
31
0.0
0
LINE
8
TOP
10
0.750000
20
0.000000
30
0.0
11
0.750000
21
0.068571
31
0.0
0
LINE
8
TOP
10
0.750000
20
0.068571
30
0.0
11
0.000000
21
0.068571
31
0.0
0
LINE
8
TOP
10
0.000000
20
0.000000
30
0.0
11
0.000000
21
0.068571
31
0.0
0
LINE
8
TOP
10
0.750000
20
0.000000
30
0.0
11
0.000000
21
0.000000
31
0.0
0
LINE
8
TOP_HID
6
HIDDEN
10
0.175714
20
0.000000
30
0.0
11
0.175714
21
0.068571
31
0.0
0
LINE
8
TOP_HID
6
HIDDEN
10
0.175714
20
0.068571
30
0.0
11
0.252857
21
0.068571
31
0.0
0
LINE
8
TOP_HID
6
HIDDEN
10
0.252857
20
0.068571
30
0.0
11
0.175714
21
0.068571
31
0.0
0
LINE
8
TOP_HID
6
HIDDEN
10
0.175714
20
0.000000
30
0.0
11
0.252857
21
0.000000
31
0.0
0
LINE
8
TOP_HID
6
HIDDEN
10
0.252857
20
0.000000
30
0.0
11
0.175714
21
0.000000
31
0.0
0
LINE
8
TOP_HID
6
HIDDEN
10
0.390000
20
0.000000
30
0.0
11
0.390000
21
0.068571
31
0.0
0
LINE
8
TOP_HID
6
HIDDEN
10
0.390000
20
0.068571
30
0.0
11
0.467143
21
0.068571
31
0.0
0
LINE
8
TOP_HID
6
HIDDEN
10
0.467143
20
0.068571
30
0.0
11
0.390000
21
0.068571
31
0.0
0
LINE
8
TOP_HID
6
HIDDEN
10
0.390000
20
0.000000
30
0.0
11
0.467143
21
0.000000
31
0.0
0
LINE
8
TOP_HID
6
HIDDEN
10
0.467143
20
0.000000
30
0.0
11
0.390000
21
0.000000
31
0.0
0
LINE
8
TOP_HID
6
HIDDEN
10
0.604286
20
0.000000
30
0.0
11
0.604286
21
0.068571
31
0.0
0
LINE
8
TOP_HID
6
HIDDEN
10
0.604286
20
0.068571
30
0.0
11
0.681429
21
0.068571
31
0.0
0
LINE
8
TOP_HID
6
HIDDEN
10
0.681429
20
0.068571
30
0.0
11
0.604286
21
0.068571
31
0.0
0
LINE
8
TOP_HID
6
HIDDEN
10
0.604286
20
0.000000
30
0.0
11
0.681429
21
0.000000
31
0.0
0
LINE
8
TOP_HID
6
HIDDEN
10
0.681429
20
0.000000
30
0.0
11
0.604286
21
0.000000
31
0.0
0
LINE
8
TOP_HID
6
HIDDEN
10
0.252857
20
0.068571
30
0.0
11
0.252857
21
0.000000
31
0.0
0
LINE
8
TOP_HID
6
HIDDEN
10
0.467143
20
0.068571
30
0.0
11
0.467143
21
0.000000
31
0.0
0
LINE
8
TOP_HID
6
HIDDEN
10
0.681429
20
0.068571
30
0.0
11
0.681429
21
0.000000
31
0.0
0
ENDSEC
0
EOF
