0
SECTION
2
HEADER
9
$ACADVER
1
AC1009
0
ENDSEC
0
SECTION
2
TABLES
0
TABLE
2
LTYPE
70
3
0
LTYPE
2
CONTINUOUS
70
0
3
Solid line
72
65
73
0
40
0.0
0
LTYPE
2
HIDDEN
70
0
3
__ __ __ __ __
72
65
73
2
40
0.075000
49
0.050025
49
-0.024975
0
LTYPE
2
CENTER
70
0
3
___ _ ___ _ ___
72
65
73
4
40
0.174975
49
0.099975
49
-0.024975
49
0.024975
49
-0.024975
0
ENDTAB
0
TABLE
2
LAYER
70
6
0
LAYER
2
0
70
0
62
7
6
CONTINUOUS
0
LAYER
2
FRONT
70
0
62
7
6
CONTINUOUS
0
LAYER
2
FRONT_HID
70
0
62
7
6
HIDDEN
0
LAYER
2
LEFT
70
0
62
7
6
CONTINUOUS
0
LAYER
2
LEFT_HID
70
0
62
7
6
HIDDEN
0
LAYER
2
TOP
70
0
62
7
6
CONTINUOUS
0
ENDTAB
0
ENDSEC
0
SECTION
2
ENTITIES
0
LINE
8
FRONT
10
1.500000
20
1.799534
30
0.0
11
0.000000
21
1.799534
31
0.0
0
LINE
8
FRONT
10
1.500000
20
1.799534
30
0.0
11
1.500000
21
2.299534
31
0.0
0
LINE
8
FRONT
10
1.500000
20
2.299534
30
0.0
11
0.000000
21
2.299534
31
0.0
0
LINE
8
FRONT
10
0.000000
20
2.299534
30
0.0
11
0.000000
21
1.799534
31
0.0
0
LINE
8
FRONT_HID
6
HIDDEN
10
1.250000
20
1.799534
30
0.0
11
0.250000
21
1.799534
31
0.0
0
LINE
8
FRONT_HID
6
HIDDEN
10
0.250000
20
1.799534
30
0.0
11
1.250000
21
1.799534
31
0.0
0
LINE
8
FRONT_HID
6
HIDDEN
10
1.250000
20
1.799534
30
0.0
11
1.250000
21
2.299534
31
0.0
0
LINE
8
FRONT_HID
6
HIDDEN
10
1.250000
20
2.299534
30
0.0
11
0.250000
21
2.299534
31
0.0
0
LINE
8
FRONT_HID
6
HIDDEN
10
0.250000
20
2.299534
30
0.0
11
1.250000
21
2.299534
31
0.0
0
LINE
8
FRONT_HID
6
HIDDEN
10
0.250000
20
2.299534
30
0.0
11
0.250000
21
1.799534
31
0.0
0
LINE
8
LEFT
10
1.800000
20
1.799534
30
0.0
11
3.300000
21
1.799534
31
0.0
0
LINE
8
LEFT
10
1.800000
20
2.299534
30
0.0
11
3.300000
21
2.299534
31
0.0
0
LINE
8
LEFT
10
1.800000
20
2.299534
30
0.0
11
1.800000
21
1.799534
31
0.0
0
LINE
8
LEFT
10
3.300000
20
2.299534
30
0.0
11
3.300000
21
1.799534
31
0.0
0
LINE
8
LEFT_HID
6
HIDDEN
10
2.550000
20
1.799534
30
0.0
11
1.800000
21
1.799534
31
0.0
0
LINE
8
LEFT_HID
6
HIDDEN
10
3.300000
20
1.799534
30
0.0
11
2.550000
21
1.799534
31
0.0
0
LINE
8
LEFT_HID
6
HIDDEN
10
2.550000
20
2.299534
30
0.0
11
1.800000
21
2.299534
31
0.0
0
LINE
8
LEFT_HID
6
HIDDEN
10
3.300000
20
2.299534
30
0.0
11
2.550000
21
2.299534
31
0.0
0
LINE
8
LEFT_HID
6
HIDDEN
10
2.550000
20
1.799534
30
0.0
11
2.050000
21
1.799534
31
0.0
0
LINE
8
LEFT_HID
6
HIDDEN
10
2.050000
20
1.799534
30
0.0
11
3.050000
21
1.799534
31
0.0
0
LINE
8
LEFT_HID
6
HIDDEN
10
3.050000
20
1.799534
30
0.0
11
2.550000
21
1.799534
31
0.0
0
LINE
8
LEFT_HID
6
HIDDEN
10
2.550000
20
2.299534
30
0.0
11
2.050000
21
2.299534
31
0.0
0
LINE
8
LEFT_HID
6
HIDDEN
10
2.050000
20
2.299534
30
0.0
11
3.050000
21
2.299534
31
0.0
0
LINE
8
LEFT_HID
6
HIDDEN
10
3.050000
20
2.299534
30
0.0
11
2.550000
21
2.299534
31
0.0
0
LINE
8
LEFT_HID
6
HIDDEN
10
2.050000
20
2.299534
30
0.0
11
2.050000
21
1.799534
31
0.0
0
LINE
8
LEFT_HID
6
HIDDEN
10
3.050000
20
2.299534
30
0.0
11
3.050000
21
1.799534
31
0.0
0
LINE
8
TOP
10
1.499068
20
0.749767
30
0.0
11
1.495341
21
0.824443
31
0.0
0
LINE
8
TOP
10
1.495341
20
0.824443
30
0.0
11
1.484197
21
0.898376
31
0.0
0
LINE
8
TOP
10
1.484197
20
0.898376
30
0.0
11
1.465747
21
0.970833
31
0.0
0
LINE
8
TOP
10
1.465747
20
0.970833
30
0.0
11
1.440175
21
1.041093
31
0.0
0
LINE
8
TOP
10
1.440175
20
1.041093
30
0.0
11
1.407734
21
1.108457
31
0.0
0
LINE
8
TOP
10
1.407734
20
1.108457
30
0.0
11
1.368747
21
1.172257
31
0.0
0
LINE
8
TOP
10
1.368747
20
1.172257
30
0.0
11
1.323601
21
1.231858
31
0.0
0
LINE
8
TOP
10
1.323601
20
1.231858
30
0.0
11
1.272745
21
1.286667
31
0.0
0
LINE
8
TOP
10
1.272745
20
1.286667
30
0.0
11
1.216685
21
1.336140
31
0.0
0
LINE
8
TOP
10
1.216685
20
1.336140
30
0.0
11
1.155977
21
1.379786
31
0.0
0
LINE
8
TOP
10
1.155977
20
1.379786
30
0.0
11
1.091226
21
1.417171
31
0.0
0
LINE
8
TOP
10
1.091226
20
1.417171
30
0.0
11
1.023073
21
1.447922
31
0.0
0
LINE
8
TOP
10
1.023073
20
1.447922
30
0.0
11
0.952198
21
1.471735
31
0.0
0
LINE
8
TOP
10
0.952198
20
1.471735
30
0.0
11
0.879304
21
1.488373
31
0.0
0
LINE
8
TOP
10
0.879304
20
1.488373
30
0.0
11
0.805115
21
1.497670
31
0.0
0
LINE
8
TOP
10
0.805115
20
1.497670
30
0.0
11
0.730370
21
1.499534
31
0.0
0
LINE
8
TOP
10
0.730370
20
1.499534
30
0.0
11
0.655810
21
1.493946
31
0.0
0
LINE
8
TOP
10
0.655810
20
1.493946
30
0.0
11
0.582177
21
1.480963
31
0.0
0
LINE
8
TOP
10
0.582177
20
1.480963
30
0.0
11
0.510203
21
1.460712
31
0.0
0
LINE
8
TOP
10
0.510203
20
1.460712
30
0.0
11
0.440602
21
1.433396
31
0.0
0
LINE
8
TOP
10
0.440602
20
1.433396
30
0.0
11
0.374068
21
1.399286
31
0.0
0
LINE
8
TOP
10
0.374068
20
1.399286
30
0.0
11
0.311260
21
1.358720
31
0.0
0
LINE
8
TOP
10
0.311260
20
1.358720
30
0.0
11
0.252803
21
1.312103
31
0.0
0
LINE
8
TOP
10
0.252803
20
1.312103
30
0.0
11
0.199279
21
1.259896
31
0.0
0
LINE
8
TOP
10
0.199279
20
1.259896
30
0.0
11
0.151218
21
1.202620
31
0.0
0
LINE
8
TOP
10
0.151218
20
1.202620
30
0.0
11
0.109100
21
1.140843
31
0.0
0
LINE
8
TOP
10
0.109100
20
1.140843
30
0.0
11
0.073341
21
1.075180
31
0.0
0
LINE
8
TOP
10
0.073341
20
1.075180
30
0.0
11
0.044298
21
1.006282
31
0.0
0
LINE
8
TOP
10
0.044298
20
1.006282
30
0.0
11
0.022260
21
0.934835
31
0.0
0
LINE
8
TOP
10
0.022260
20
0.934835
30
0.0
11
0.007445
21
0.861549
31
0.0
0
LINE
8
TOP
10
0.007445
20
0.861549
30
0.0
11
0.000000
21
0.787151
31
0.0
0
LINE
8
TOP
10
0.000000
20
0.787151
30
0.0
11
0.000000
21
0.712382
31
0.0
0
LINE
8
TOP
10
0.000000
20
0.712382
30
0.0
11
0.007445
21
0.637985
31
0.0
0
LINE
8
TOP
10
0.007445
20
0.637985
30
0.0
11
0.022260
21
0.564699
31
0.0
0
LINE
8
TOP
10
0.022260
20
0.564699
30
0.0
11
0.044298
21
0.493252
31
0.0
0
LINE
8
TOP
10
0.044298
20
0.493252
30
0.0
11
0.073341
21
0.424354
31
0.0
0
LINE
8
TOP
10
0.073341
20
0.424354
30
0.0
11
0.109100
21
0.358690
31
0.0
0
LINE
8
TOP
10
0.109100
20
0.358690
30
0.0
11
0.151218
21
0.296914
31
0.0
0
LINE
8
TOP
10
0.151218
20
0.296914
30
0.0
11
0.199279
21
0.239637
31
0.0
0
LINE
8
TOP
10
0.199279
20
0.239637
30
0.0
11
0.252803
21
0.187431
31
0.0
0
LINE
8
TOP
10
0.252803
20
0.187431
30
0.0
11
0.311260
21
0.140813
31
0.0
0
LINE
8
TOP
10
0.311260
20
0.140813
30
0.0
11
0.374068
21
0.100248
31
0.0
0
LINE
8
TOP
10
0.374068
20
0.100248
30
0.0
11
0.440602
21
0.066137
31
0.0
0
LINE
8
TOP
10
0.440602
20
0.066137
30
0.0
11
0.510203
21
0.038821
31
0.0
0
LINE
8
TOP
10
0.510203
20
0.038821
30
0.0
11
0.582177
21
0.018571
31
0.0
0
LINE
8
TOP
10
0.582177
20
0.018571
30
0.0
11
0.655810
21
0.005587
31
0.0
0
LINE
8
TOP
10
0.655810
20
0.005587
30
0.0
11
0.730370
21
0.000000
31
0.0
0
LINE
8
TOP
10
0.730370
20
0.000000
30
0.0
11
0.805115
21
0.001864
31
0.0
0
LINE
8
TOP
10
0.805115
20
0.001864
30
0.0
11
0.879304
21
0.011161
31
0.0
0
LINE
8
TOP
10
0.879304
20
0.011161
30
0.0
11
0.952198
21
0.027799
31
0.0
0
LINE
8
TOP
10
0.952198
20
0.027799
30
0.0
11
1.023073
21
0.051612
31
0.0
0
LINE
8
TOP
10
1.023073
20
0.051612
30
0.0
11
1.091226
21
0.082363
31
0.0
0
LINE
8
TOP
10
1.091226
20
0.082363
30
0.0
11
1.155977
21
0.119747
31
0.0
0
LINE
8
TOP
10
1.155977
20
0.119747
30
0.0
11
1.216685
21
0.163393
31
0.0
0
LINE
8
TOP
10
1.216685
20
0.163393
30
0.0
11
1.272745
21
0.212867
31
0.0
0
LINE
8
TOP
10
1.272745
20
0.212867
30
0.0
11
1.323601
21
0.267676
31
0.0
0
LINE
8
TOP
10
1.323601
20
0.267676
30
0.0
11
1.368747
21
0.327277
31
0.0
0
LINE
8
TOP
10
1.368747
20
0.327277
30
0.0
11
1.407734
21
0.391076
31
0.0
0
LINE
8
TOP
10
1.407734
20
0.391076
30
0.0
11
1.440175
21
0.458441
31
0.0
0
LINE
8
TOP
10
1.440175
20
0.458441
30
0.0
11
1.465747
21
0.528701
31
0.0
0
LINE
8
TOP
10
1.465747
20
0.528701
30
0.0
11
1.484197
21
0.601157
31
0.0
0
LINE
8
TOP
10
1.484197
20
0.601157
30
0.0
11
1.495341
21
0.675091
31
0.0
0
LINE
8
TOP
10
1.495341
20
0.675091
30
0.0
11
1.499068
21
0.749767
31
0.0
0
LINE
8
TOP
10
1.249068
20
0.749767
30
0.0
11
1.246583
21
0.799551
31
0.0
0
LINE
8
TOP
10
1.246583
20
0.799551
30
0.0
11
1.239154
21
0.848840
31
0.0
0
LINE
8
TOP
10
1.239154
20
0.848840
30
0.0
11
1.226854
21
0.897144
31
0.0
0
LINE
8
TOP
10
1.226854
20
0.897144
30
0.0
11
1.209806
21
0.943984
31
0.0
0
LINE
8
TOP
10
1.209806
20
0.943984
30
0.0
11
1.188178
21
0.988894
31
0.0
0
LINE
8
TOP
10
1.188178
20
0.988894
30
0.0
11
1.162187
21
1.031427
31
0.0
0
LINE
8
TOP
10
1.162187
20
1.031427
30
0.0
11
1.132090
21
1.071161
31
0.0
0
LINE
8
TOP
10
1.132090
20
1.071161
30
0.0
11
1.098186
21
1.107700
31
0.0
0
LINE
8
TOP
10
1.098186
20
1.107700
30
0.0
11
1.060813
21
1.140683
31
0.0
0
LINE
8
TOP
10
1.060813
20
1.140683
30
0.0
11
1.020341
21
1.169780
31
0.0
0
LINE
8
TOP
10
1.020341
20
1.169780
30
0.0
11
0.977173
21
1.194703
31
0.0
0
LINE
8
TOP
10
0.977173
20
1.194703
30
0.0
11
0.931738
21
1.215204
31
0.0
0
LINE
8
TOP
10
0.931738
20
1.215204
30
0.0
11
0.884488
21
1.231079
31
0.0
0
LINE
8
TOP
10
0.884488
20
1.231079
30
0.0
11
0.835892
21
1.242171
31
0.0
0
LINE
8
TOP
10
0.835892
20
1.242171
30
0.0
11
0.786433
21
1.248369
31
0.0
0
LINE
8
TOP
10
0.786433
20
1.248369
30
0.0
11
0.736602
21
1.249611
31
0.0
0
LINE
8
TOP
10
0.736602
20
1.249611
30
0.0
11
0.686896
21
1.245886
31
0.0
0
LINE
8
TOP
10
0.686896
20
1.245886
30
0.0
11
0.637807
21
1.237231
31
0.0
0
LINE
8
TOP
10
0.637807
20
1.237231
30
0.0
11
0.589824
21
1.223731
31
0.0
0
LINE
8
TOP
10
0.589824
20
1.223731
30
0.0
11
0.543424
21
1.205520
31
0.0
0
LINE
8
TOP
10
0.543424
20
1.205520
30
0.0
11
0.499068
21
1.182780
31
0.0
0
LINE
8
TOP
10
0.499068
20
1.182780
30
0.0
11
0.457196
21
1.155736
31
0.0
0
LINE
8
TOP
10
0.457196
20
1.155736
30
0.0
11
0.418225
21
1.124657
31
0.0
0
LINE
8
TOP
10
0.418225
20
1.124657
30
0.0
11
0.382542
21
1.089853
31
0.0
0
LINE
8
TOP
10
0.382542
20
1.089853
30
0.0
11
0.350501
21
1.051669
31
0.0
0
LINE
8
TOP
10
0.350501
20
1.051669
30
0.0
11
0.322422
21
1.010484
31
0.0
0
LINE
8
TOP
10
0.322422
20
1.010484
30
0.0
11
0.298583
21
0.966709
31
0.0
0
LINE
8
TOP
10
0.298583
20
0.966709
30
0.0
11
0.279221
21
0.920777
31
0.0
0
LINE
8
TOP
10
0.279221
20
0.920777
30
0.0
11
0.264529
21
0.873146
31
0.0
0
LINE
8
TOP
10
0.264529
20
0.873146
30
0.0
11
0.254652
21
0.824288
31
0.0
0
LINE
8
TOP
10
0.254652
20
0.824288
30
0.0
11
0.249689
21
0.774690
31
0.0
0
LINE
8
TOP
10
0.249689
20
0.774690
30
0.0
11
0.249689
21
0.724844
31
0.0
0
LINE
8
TOP
10
0.249689
20
0.724844
30
0.0
11
0.254652
21
0.675246
31
0.0
0
LINE
8
TOP
10
0.254652
20
0.675246
30
0.0
11
0.264529
21
0.626388
31
0.0
0
LINE
8
TOP
10
0.264529
20
0.626388
30
0.0
11
0.279221
21
0.578757
31
0.0
0
LINE
8
TOP
10
0.279221
20
0.578757
30
0.0
11
0.298583
21
0.532825
31
0.0
0
LINE
8
TOP
10
0.298583
20
0.532825
30
0.0
11
0.322422
21
0.489049
31
0.0
0
LINE
8
TOP
10
0.322422
20
0.489049
30
0.0
11
0.350501
21
0.447865
31
0.0
0
LINE
8
TOP
10
0.350501
20
0.447865
30
0.0
11
0.382542
21
0.409681
31
0.0
0
LINE
8
TOP
10
0.382542
20
0.409681
30
0.0
11
0.418225
21
0.374876
31
0.0
0
LINE
8
TOP
10
0.418225
20
0.374876
30
0.0
11
0.457196
21
0.343798
31
0.0
0
LINE
8
TOP
10
0.457196
20
0.343798
30
0.0
11
0.499068
21
0.316754
31
0.0
0
LINE
8
TOP
10
0.499068
20
0.316754
30
0.0
11
0.543424
21
0.294014
31
0.0
0
LINE
8
TOP
10
0.543424
20
0.294014
30
0.0
11
0.589824
21
0.275803
31
0.0
0
LINE
8
TOP
10
0.589824
20
0.275803
30
0.0
11
0.637807
21
0.262303
31
0.0
0
LINE
8
TOP
10
0.637807
20
0.262303
30
0.0
11
0.686896
21
0.253647
31
0.0
0
LINE
8
TOP
10
0.686896
20
0.253647
30
0.0
11
0.736602
21
0.249922
31
0.0
0
LINE
8
TOP
10
0.736602
20
0.249922
30
0.0
11
0.786433
21
0.251165
31
0.0
0
LINE
8
TOP
10
0.786433
20
0.251165
30
0.0
11
0.835892
21
0.257363
31
0.0
0
LINE
8
TOP
10
0.835892
20
0.257363
30
0.0
11
0.884488
21
0.268455
31
0.0
0
LINE
8
TOP
10
0.884488
20
0.268455
30
0.0
11
0.931738
21
0.284330
31
0.0
0
LINE
8
TOP
10
0.931738
20
0.284330
30
0.0
11
0.977173
21
0.304831
31
0.0
0
LINE
8
TOP
10
0.977173
20
0.304831
30
0.0
11
1.020341
21
0.329754
31
0.0
0
LINE
8
TOP
10
1.020341
20
0.329754
30
0.0
11
1.060813
21
0.358851
31
0.0
0
LINE
8
TOP
10
1.060813
20
0.358851
30
0.0
11
1.098186
21
0.391833
31
0.0
0
LINE
8
TOP
10
1.098186
20
0.391833
30
0.0
11
1.132090
21
0.428373
31
0.0
0
LINE
8
TOP
10
1.132090
20
0.428373
30
0.0
11
1.162187
21
0.468107
31
0.0
0
LINE
8
TOP
10
1.162187
20
0.468107
30
0.0
11
1.188178
21
0.510640
31
0.0
0
LINE
8
TOP
10
1.188178
20
0.510640
30
0.0
11
1.209806
21
0.555549
31
0.0
0
LINE
8
TOP
10
1.209806
20
0.555549
30
0.0
11
1.226854
21
0.602389
31
0.0
0
LINE
8
TOP
10
1.226854
20
0.602389
30
0.0
11
1.239154
21
0.650694
31
0.0
0
LINE
8
TOP
10
1.239154
20
0.650694
30
0.0
11
1.246583
21
0.699983
31
0.0
0
LINE
8
TOP
10
1.246583
20
0.699983
30
0.0
11
1.249068
21
0.749767
31
0.0
0
ENDSEC
0
EOF
