0
SECTION
2
HEADER
9
$ACADVER
1
AC1009
0
ENDSEC
0
SECTION
2
TABLES
0
TABLE
2
LTYPE
70
3
0
LTYPE
2
CONTINUOUS
70
0
3
Solid line
72
65
73
0
40
0.0
0
LTYPE
2
HIDDEN
70
0
3
__ __ __ __ __
72
65
73
2
40
0.069469
49
0.046336
49
-0.023133
0
LTYPE
2
CENTER
70
0
3
___ _ ___ _ ___
72
65
73
4
40
0.162071
49
0.092602
49
-0.023133
49
0.023133
49
-0.023133
0
ENDTAB
0
TABLE
2
LAYER
70
6
0
LAYER
2
0
70
0
62
7
6
CONTINUOUS
0
LAYER
2
FRONT
70
0
62
7
6
CONTINUOUS
0
LAYER
2
LEFT
70
0
62
7
6
CONTINUOUS
0
LAYER
2
LEFT_HID
70
0
62
7
6
HIDDEN
0
LAYER
2
TOP
70
0
62
7
6
CONTINUOUS
0
LAYER
2
TOP_HID
70
0
62
7
6
HIDDEN
0
ENDTAB
0
ENDSEC
0
SECTION
2
ENTITIES
0
LINE
8
FRONT
10
0.000000
20
0.451549
30
0.0
11
0.173673
21
0.451549
31
0.0
0
LINE
8
FRONT
10
0.173673
20
0.451549
30
0.0
11
0.173673
21
0.608246
31
0.0
0
LINE
8
FRONT
10
0.173673
20
0.608246
30
0.0
11
1.215709
21
0.608246
31
0.0
0
LINE
8
FRONT
10
1.215709
20
0.608246
30
0.0
11
1.215709
21
0.451549
31
0.0
0
LINE
8
FRONT
10
1.215709
20
0.451549
30
0.0
11
1.389382
21
0.451549
31
0.0
0
LINE
8
FRONT
10
1.389382
20
0.451549
30
0.0
11
1.389382
21
0.885731
31
0.0
0
LINE
8
FRONT
10
1.389382
20
0.885731
30
0.0
11
1.042037
21
0.885731
31
0.0
0
LINE
8
FRONT
10
1.042037
20
0.885731
30
0.0
11
1.042037
21
1.319913
31
0.0
0
LINE
8
FRONT
10
1.042037
20
1.319913
30
0.0
11
0.347346
21
1.319913
31
0.0
0
LINE
8
FRONT
10
0.347346
20
1.319913
30
0.0
11
0.347346
21
0.885731
31
0.0
0
LINE
8
FRONT
10
0.347346
20
0.885731
30
0.0
11
0.000000
21
0.885731
31
0.0
0
LINE
8
FRONT
10
0.000000
20
0.885731
30
0.0
11
0.000000
21
0.451549
31
0.0
0
LINE
8
LEFT
10
1.667258
20
0.451549
30
0.0
11
1.840931
21
0.451549
31
0.0
0
LINE
8
LEFT
10
1.667258
20
1.319913
30
0.0
11
1.840931
21
1.319913
31
0.0
0
LINE
8
LEFT
10
1.840931
20
1.319913
30
0.0
11
1.840931
21
0.885731
31
0.0
0
LINE
8
LEFT
10
1.667258
20
1.319913
30
0.0
11
1.667258
21
0.885731
31
0.0
0
LINE
8
LEFT
10
1.667258
20
0.885731
30
0.0
11
1.840931
21
0.885731
31
0.0
0
LINE
8
LEFT
10
1.840931
20
0.885731
30
0.0
11
1.840931
21
0.451549
31
0.0
0
LINE
8
LEFT
10
1.667258
20
0.885731
30
0.0
11
1.667258
21
0.451549
31
0.0
0
LINE
8
LEFT_HID
6
HIDDEN
10
1.840931
20
0.451549
30
0.0
11
1.840931
21
0.608246
31
0.0
0
LINE
8
LEFT_HID
6
HIDDEN
10
1.667258
20
0.608246
30
0.0
11
1.840931
21
0.608246
31
0.0
0
LINE
8
LEFT_HID
6
HIDDEN
10
1.667258
20
0.451549
30
0.0
11
1.667258
21
0.608246
31
0.0
0
LINE
8
LEFT_HID
6
HIDDEN
10
1.667258
20
0.608246
30
0.0
11
1.840931
21
0.608246
31
0.0
0
LINE
8
LEFT_HID
6
HIDDEN
10
1.840931
20
0.608246
30
0.0
11
1.840931
21
0.451549
31
0.0
0
LINE
8
LEFT_HID
6
HIDDEN
10
1.667258
20
0.608246
30
0.0
11
1.667258
21
0.451549
31
0.0
0
LINE
8
TOP
10
1.389382
20
0.173673
30
0.0
11
1.389382
21
0.000000
31
0.0
0
LINE
8
TOP
10
1.389382
20
0.000000
30
0.0
11
1.042037
21
0.000000
31
0.0
0
LINE
8
TOP
10
1.389382
20
0.173673
30
0.0
11
1.042037
21
0.173673
31
0.0
0
LINE
8
TOP
10
1.042037
20
0.173673
30
0.0
11
1.042037
21
0.000000
31
0.0
0
LINE
8
TOP
10
1.042037
20
0.000000
30
0.0
11
0.347346
21
0.000000
31
0.0
0
LINE
8
TOP
10
0.347346
20
0.173673
30
0.0
11
0.347346
21
0.000000
31
0.0
0
LINE
8
TOP
10
1.042037
20
0.173673
30
0.0
11
0.347346
21
0.173673
31
0.0
0
LINE
8
TOP
10
0.347346
20
0.000000
30
0.0
11
0.000000
21
0.000000
31
0.0
0
LINE
8
TOP
10
0.000000
20
0.173673
30
0.0
11
0.000000
21
0.000000
31
0.0
0
LINE
8
TOP
10
0.347346
20
0.173673
30
0.0
11
0.000000
21
0.173673
31
0.0
0
LINE
8
TOP_HID
6
HIDDEN
10
0.000000
20
0.000000
30
0.0
11
0.173673
21
0.000000
31
0.0
0
LINE
8
TOP_HID
6
HIDDEN
10
0.173673
20
0.173673
30
0.0
11
0.173673
21
0.000000
31
0.0
0
LINE
8
TOP_HID
6
HIDDEN
10
0.000000
20
0.173673
30
0.0
11
0.173673
21
0.173673
31
0.0
0
LINE
8
TOP_HID
6
HIDDEN
10
0.173673
20
0.173673
30
0.0
11
0.173673
21
0.000000
31
0.0
0
LINE
8
TOP_HID
6
HIDDEN
10
0.173673
20
0.000000
30
0.0
11
1.215709
21
0.000000
31
0.0
0
LINE
8
TOP_HID
6
HIDDEN
10
1.215709
20
0.173673
30
0.0
11
1.215709
21
0.000000
31
0.0
0
LINE
8
TOP_HID
6
HIDDEN
10
0.173673
20
0.173673
30
0.0
11
1.215709
21
0.173673
31
0.0
0
LINE
8
TOP_HID
6
HIDDEN
10
1.215709
20
0.173673
30
0.0
11
1.215709
21
0.000000
31
0.0
0
LINE
8
TOP_HID
6
HIDDEN
10
1.215709
20
0.000000
30
0.0
11
1.389382
21
0.000000
31
0.0
0
LINE
8
TOP_HID
6
HIDDEN
10
1.215709
20
0.173673
30
0.0
11
1.389382
21
0.173673
31
0.0
0
ENDSEC
0
EOF
