0
SECTION
2
HEADER
9
$ACADVER
1
AC1009
0
ENDSEC
0
SECTION
2
TABLES
0
TABLE
2
LTYPE
70
3
0
LTYPE
2
CONTINUOUS
70
0
3
Solid line
72
65
73
0
40
0.0
0
LTYPE
2
HIDDEN
70
0
3
__ __ __ __ __
72
65
73
2
40
0.073442
49
0.048986
49
-0.024456
0
LTYPE
2
CENTER
70
0
3
___ _ ___ _ ___
72
65
73
4
40
0.171341
49
0.097898
49
-0.024456
49
0.024456
49
-0.024456
0
ENDTAB
0
TABLE
2
LAYER
70
7
0
LAYER
2
0
70
0
62
7
6
CONTINUOUS
0
LAYER
2
FRONT
70
0
62
7
6
CONTINUOUS
0
LAYER
2
FRONT_HID
70
0
62
7
6
HIDDEN
0
LAYER
2
LEFT
70
0
62
7
6
CONTINUOUS
0
LAYER
2
LEFT_HID
70
0
62
7
6
HIDDEN
0
LAYER
2
TOP
70
0
62
7
6
CONTINUOUS
0
LAYER
2
TOP_HID
70
0
62
7
6
HIDDEN
0
ENDTAB
0
ENDSEC
0
SECTION
2
ENTITIES
0
LINE
8
FRONT
10
0.367097
20
0.660979
30
0.0
11
1.101518
21
0.660979
31
0.0
0
LINE
8
FRONT
10
0.367097
20
1.395401
30
0.0
11
0.348793
21
1.394944
31
0.0
0
LINE
8
FRONT
10
0.348793
20
1.394944
30
0.0
11
0.330534
21
1.393576
31
0.0
0
LINE
8
FRONT
10
0.330534
20
1.393576
30
0.0
11
0.312367
21
1.391299
31
0.0
0
LINE
8
FRONT
10
0.312367
20
1.391299
30
0.0
11
0.294335
21
1.388120
31
0.0
0
LINE
8
FRONT
10
0.294335
20
1.388120
30
0.0
11
0.276485
21
1.384045
31
0.0
0
LINE
8
FRONT
10
0.276485
20
1.384045
30
0.0
11
0.258859
21
1.379086
31
0.0
0
LINE
8
FRONT
10
0.258859
20
1.379086
30
0.0
11
0.241503
21
1.373255
31
0.0
0
LINE
8
FRONT
10
0.241503
20
1.373255
30
0.0
11
0.224459
21
1.366566
31
0.0
0
LINE
8
FRONT
10
0.224459
20
1.366566
30
0.0
11
0.207770
21
1.359035
31
0.0
0
LINE
8
FRONT
10
0.207770
20
1.359035
30
0.0
11
0.191477
21
1.350682
31
0.0
0
LINE
8
FRONT
10
0.191477
20
1.350682
30
0.0
11
0.175620
21
1.341527
31
0.0
0
LINE
8
FRONT
10
0.175620
20
1.341527
30
0.0
11
0.160239
21
1.331594
31
0.0
0
LINE
8
FRONT
10
0.160239
20
1.331594
30
0.0
11
0.145373
21
1.320905
31
0.0
0
LINE
8
FRONT
10
0.145373
20
1.320905
30
0.0
11
0.131058
21
1.309490
31
0.0
0
LINE
8
FRONT
10
0.131058
20
1.309490
30
0.0
11
0.117330
21
1.297374
31
0.0
0
LINE
8
FRONT
10
0.117330
20
1.297374
30
0.0
11
0.104223
21
1.284590
31
0.0
0
LINE
8
FRONT
10
0.104223
20
1.284590
30
0.0
11
0.091769
21
1.271168
31
0.0
0
LINE
8
FRONT
10
0.091769
20
1.271168
30
0.0
11
0.080000
21
1.257142
31
0.0
0
LINE
8
FRONT
10
0.080000
20
1.257142
30
0.0
11
0.068944
21
1.242547
31
0.0
0
LINE
8
FRONT
10
0.068944
20
1.242547
30
0.0
11
0.058630
21
1.227419
31
0.0
0
LINE
8
FRONT
10
0.058630
20
1.227419
30
0.0
11
0.049083
21
1.211795
31
0.0
0
LINE
8
FRONT
10
0.049083
20
1.211795
30
0.0
11
0.040326
21
1.195715
31
0.0
0
LINE
8
FRONT
10
0.040326
20
1.195715
30
0.0
11
0.032382
21
1.179219
31
0.0
0
LINE
8
FRONT
10
0.032382
20
1.179219
30
0.0
11
0.025270
21
1.162347
31
0.0
0
LINE
8
FRONT
10
0.025270
20
1.162347
30
0.0
11
0.019007
21
1.145142
31
0.0
0
LINE
8
FRONT
10
0.019007
20
1.145142
30
0.0
11
0.013611
21
1.127645
31
0.0
0
LINE
8
FRONT
10
0.013611
20
1.127645
30
0.0
11
0.009093
21
1.109902
31
0.0
0
LINE
8
FRONT
10
0.009093
20
1.109902
30
0.0
11
0.005465
21
1.091955
31
0.0
0
LINE
8
FRONT
10
0.005465
20
1.091955
30
0.0
11
0.002736
21
1.073850
31
0.0
0
LINE
8
FRONT
10
0.002736
20
1.073850
30
0.0
11
0.000913
21
1.055632
31
0.0
0
LINE
8
FRONT
10
0.000913
20
1.055632
30
0.0
11
0.000000
21
1.037345
31
0.0
0
LINE
8
FRONT
10
0.000000
20
1.037345
30
0.0
11
0.000000
21
1.019035
31
0.0
0
LINE
8
FRONT
10
0.000000
20
1.019035
30
0.0
11
0.000913
21
1.000748
31
0.0
0
LINE
8
FRONT
10
0.000913
20
1.000748
30
0.0
11
0.002736
21
0.982530
31
0.0
0
LINE
8
FRONT
10
0.002736
20
0.982530
30
0.0
11
0.005465
21
0.964424
31
0.0
0
LINE
8
FRONT
10
0.005465
20
0.964424
30
0.0
11
0.009093
21
0.946478
31
0.0
0
LINE
8
FRONT
10
0.009093
20
0.946478
30
0.0
11
0.013611
21
0.928734
31
0.0
0
LINE
8
FRONT
10
0.013611
20
0.928734
30
0.0
11
0.019007
21
0.911238
31
0.0
0
LINE
8
FRONT
10
0.019007
20
0.911238
30
0.0
11
0.025270
21
0.894033
31
0.0
0
LINE
8
FRONT
10
0.025270
20
0.894033
30
0.0
11
0.032382
21
0.877161
31
0.0
0
LINE
8
FRONT
10
0.032382
20
0.877161
30
0.0
11
0.040326
21
0.860664
31
0.0
0
LINE
8
FRONT
10
0.040326
20
0.860664
30
0.0
11
0.049083
21
0.844585
31
0.0
0
LINE
8
FRONT
10
0.049083
20
0.844585
30
0.0
11
0.058630
21
0.828961
31
0.0
0
LINE
8
FRONT
10
0.058630
20
0.828961
30
0.0
11
0.068944
21
0.813833
31
0.0
0
LINE
8
FRONT
10
0.068944
20
0.813833
30
0.0
11
0.080000
21
0.799238
31
0.0
0
LINE
8
FRONT
10
0.080000
20
0.799238
30
0.0
11
0.091769
21
0.785212
31
0.0
0
LINE
8
FRONT
10
0.091769
20
0.785212
30
0.0
11
0.104223
21
0.771790
31
0.0
0
LINE
8
FRONT
10
0.104223
20
0.771790
30
0.0
11
0.117330
21
0.759005
31
0.0
0
LINE
8
FRONT
10
0.117330
20
0.759005
30
0.0
11
0.131058
21
0.746890
31
0.0
0
LINE
8
FRONT
10
0.131058
20
0.746890
30
0.0
11
0.145373
21
0.735474
31
0.0
0
LINE
8
FRONT
10
0.145373
20
0.735474
30
0.0
11
0.160239
21
0.724786
31
0.0
0
LINE
8
FRONT
10
0.160239
20
0.724786
30
0.0
11
0.175620
21
0.714852
31
0.0
0
LINE
8
FRONT
10
0.175620
20
0.714852
30
0.0
11
0.191477
21
0.705698
31
0.0
0
LINE
8
FRONT
10
0.191477
20
0.705698
30
0.0
11
0.207770
21
0.697345
31
0.0
0
LINE
8
FRONT
10
0.207770
20
0.697345
30
0.0
11
0.224459
21
0.689814
31
0.0
0
LINE
8
FRONT
10
0.224459
20
0.689814
30
0.0
11
0.241503
21
0.683125
31
0.0
0
LINE
8
FRONT
10
0.241503
20
0.683125
30
0.0
11
0.258859
21
0.677293
31
0.0
0
LINE
8
FRONT
10
0.258859
20
0.677293
30
0.0
11
0.276485
21
0.672334
31
0.0
0
LINE
8
FRONT
10
0.276485
20
0.672334
30
0.0
11
0.294335
21
0.668260
31
0.0
0
LINE
8
FRONT
10
0.294335
20
0.668260
30
0.0
11
0.312367
21
0.665081
31
0.0
0
LINE
8
FRONT
10
0.312367
20
0.665081
30
0.0
11
0.330534
21
0.662804
31
0.0
0
LINE
8
FRONT
10
0.330534
20
0.662804
30
0.0
11
0.348793
21
0.661436
31
0.0
0
LINE
8
FRONT
10
0.348793
20
0.661436
30
0.0
11
0.367097
21
0.660979
31
0.0
0
LINE
8
FRONT
10
1.101518
20
0.660979
30
0.0
11
1.119822
21
0.661436
31
0.0
0
LINE
8
FRONT
10
1.119822
20
0.661436
30
0.0
11
1.138080
21
0.662804
31
0.0
0
LINE
8
FRONT
10
1.138080
20
0.662804
30
0.0
11
1.156248
21
0.665081
31
0.0
0
LINE
8
FRONT
10
1.156248
20
0.665081
30
0.0
11
1.174279
21
0.668260
31
0.0
0
LINE
8
FRONT
10
1.174279
20
0.668260
30
0.0
11
1.192130
21
0.672334
31
0.0
0
LINE
8
FRONT
10
1.192130
20
0.672334
30
0.0
11
1.209755
21
0.677293
31
0.0
0
LINE
8
FRONT
10
1.209755
20
0.677293
30
0.0
11
1.227111
21
0.683125
31
0.0
0
LINE
8
FRONT
10
1.227111
20
0.683125
30
0.0
11
1.244155
21
0.689814
31
0.0
0
LINE
8
FRONT
10
1.244155
20
0.689814
30
0.0
11
1.260845
21
0.697345
31
0.0
0
LINE
8
FRONT
10
1.260845
20
0.697345
30
0.0
11
1.277138
21
0.705698
31
0.0
0
LINE
8
FRONT
10
1.277138
20
0.705698
30
0.0
11
1.292994
21
0.714852
31
0.0
0
LINE
8
FRONT
10
1.292994
20
0.714852
30
0.0
11
1.308375
21
0.724786
31
0.0
0
LINE
8
FRONT
10
1.308375
20
0.724786
30
0.0
11
1.323241
21
0.735474
31
0.0
0
LINE
8
FRONT
10
1.323241
20
0.735474
30
0.0
11
1.337556
21
0.746890
31
0.0
0
LINE
8
FRONT
10
1.337556
20
0.746890
30
0.0
11
1.351285
21
0.759005
31
0.0
0
LINE
8
FRONT
10
1.351285
20
0.759005
30
0.0
11
1.364392
21
0.771790
31
0.0
0
LINE
8
FRONT
10
1.364392
20
0.771790
30
0.0
11
1.376846
21
0.785212
31
0.0
0
LINE
8
FRONT
10
1.376846
20
0.785212
30
0.0
11
1.388615
21
0.799238
31
0.0
0
LINE
8
FRONT
10
1.388615
20
0.799238
30
0.0
11
1.399670
21
0.813833
31
0.0
0
LINE
8
FRONT
10
1.399670
20
0.813833
30
0.0
11
1.409984
21
0.828961
31
0.0
0
LINE
8
FRONT
10
1.409984
20
0.828961
30
0.0
11
1.419532
21
0.844585
31
0.0
0
LINE
8
FRONT
10
1.419532
20
0.844585
30
0.0
11
1.428288
21
0.860664
31
0.0
0
LINE
8
FRONT
10
1.428288
20
0.860664
30
0.0
11
1.436233
21
0.877161
31
0.0
0
LINE
8
FRONT
10
1.436233
20
0.877161
30
0.0
11
1.443345
21
0.894033
31
0.0
0
LINE
8
FRONT
10
1.443345
20
0.894033
30
0.0
11
1.449607
21
0.911238
31
0.0
0
LINE
8
FRONT
10
1.449607
20
0.911238
30
0.0
11
1.455004
21
0.928734
31
0.0
0
LINE
8
FRONT
10
1.455004
20
0.928734
30
0.0
11
1.459522
21
0.946478
31
0.0
0
LINE
8
FRONT
10
1.459522
20
0.946478
30
0.0
11
1.463150
21
0.964424
31
0.0
0
LINE
8
FRONT
10
1.463150
20
0.964424
30
0.0
11
1.465879
21
0.982530
31
0.0
0
LINE
8
FRONT
10
1.465879
20
0.982530
30
0.0
11
1.467702
21
1.000748
31
0.0
0
LINE
8
FRONT
10
1.467702
20
1.000748
30
0.0
11
1.468614
21
1.019035
31
0.0
0
LINE
8
FRONT
10
1.468614
20
1.019035
30
0.0
11
1.468614
21
1.037345
31
0.0
0
LINE
8
FRONT
10
1.468614
20
1.037345
30
0.0
11
1.467702
21
1.055632
31
0.0
0
LINE
8
FRONT
10
1.467702
20
1.055632
30
0.0
11
1.465879
21
1.073850
31
0.0
0
LINE
8
FRONT
10
1.465879
20
1.073850
30
0.0
11
1.463150
21
1.091955
31
0.0
0
LINE
8
FRONT
10
1.463150
20
1.091955
30
0.0
11
1.459522
21
1.109902
31
0.0
0
LINE
8
FRONT
10
1.459522
20
1.109902
30
0.0
11
1.455004
21
1.127645
31
0.0
0
LINE
8
FRONT
10
1.455004
20
1.127645
30
0.0
11
1.449607
21
1.145142
31
0.0
0
LINE
8
FRONT
10
1.449607
20
1.145142
30
0.0
11
1.443345
21
1.162347
31
0.0
0
LINE
8
FRONT
10
1.443345
20
1.162347
30
0.0
11
1.436233
21
1.179219
31
0.0
0
LINE
8
FRONT
10
1.436233
20
1.179219
30
0.0
11
1.428288
21
1.195715
31
0.0
0
LINE
8
FRONT
10
1.428288
20
1.195715
30
0.0
11
1.419532
21
1.211795
31
0.0
0
LINE
8
FRONT
10
1.419532
20
1.211795
30
0.0
11
1.409984
21
1.227419
31
0.0
0
LINE
8
FRONT
10
1.409984
20
1.227419
30
0.0
11
1.399670
21
1.242547
31
0.0
0
LINE
8
FRONT
10
1.399670
20
1.242547
30
0.0
11
1.388615
21
1.257142
31
0.0
0
LINE
8
FRONT
10
1.388615
20
1.257142
30
0.0
11
1.376846
21
1.271168
31
0.0
0
LINE
8
FRONT
10
1.376846
20
1.271168
30
0.0
11
1.364392
21
1.284590
31
0.0
0
LINE
8
FRONT
10
1.364392
20
1.284590
30
0.0
11
1.351285
21
1.297374
31
0.0
0
LINE
8
FRONT
10
1.351285
20
1.297374
30
0.0
11
1.337556
21
1.309490
31
0.0
0
LINE
8
FRONT
10
1.337556
20
1.309490
30
0.0
11
1.323241
21
1.320905
31
0.0
0
LINE
8
FRONT
10
1.323241
20
1.320905
30
0.0
11
1.308375
21
1.331594
31
0.0
0
LINE
8
FRONT
10
1.308375
20
1.331594
30
0.0
11
1.292994
21
1.341527
31
0.0
0
LINE
8
FRONT
10
1.292994
20
1.341527
30
0.0
11
1.277138
21
1.350682
31
0.0
0
LINE
8
FRONT
10
1.277138
20
1.350682
30
0.0
11
1.260845
21
1.359035
31
0.0
0
LINE
8
FRONT
10
1.260845
20
1.359035
30
0.0
11
1.244155
21
1.366566
31
0.0
0
LINE
8
FRONT
10
1.244155
20
1.366566
30
0.0
11
1.227111
21
1.373255
31
0.0
0
LINE
8
FRONT
10
1.227111
20
1.373255
30
0.0
11
1.209755
21
1.379086
31
0.0
0
LINE
8
FRONT
10
1.209755
20
1.379086
30
0.0
11
1.192130
21
1.384045
31
0.0
0
LINE
8
FRONT
10
1.192130
20
1.384045
30
0.0
11
1.174279
21
1.388120
31
0.0
0
LINE
8
FRONT
10
1.174279
20
1.388120
30
0.0
11
1.156248
21
1.391299
31
0.0
0
LINE
8
FRONT
10
1.156248
20
1.391299
30
0.0
11
1.138080
21
1.393576
31
0.0
0
LINE
8
FRONT
10
1.138080
20
1.393576
30
0.0
11
1.119822
21
1.394944
31
0.0
0
LINE
8
FRONT
10
1.119822
20
1.394944
30
0.0
11
1.101518
21
1.395401
31
0.0
0
LINE
8
FRONT
10
1.101518
20
1.395401
30
0.0
11
0.367097
21
1.395401
31
0.0
0
LINE
8
FRONT
10
0.183491
20
1.028190
30
0.0
11
0.184404
21
1.009909
31
0.0
0
LINE
8
FRONT
10
0.184404
20
1.009909
30
0.0
11
0.187132
21
0.991809
31
0.0
0
LINE
8
FRONT
10
0.187132
20
0.991809
30
0.0
11
0.191648
21
0.974071
31
0.0
0
LINE
8
FRONT
10
0.191648
20
0.974071
30
0.0
11
0.197909
21
0.956871
31
0.0
0
LINE
8
FRONT
10
0.197909
20
0.956871
30
0.0
11
0.205850
21
0.940380
31
0.0
0
LINE
8
FRONT
10
0.205850
20
0.940380
30
0.0
11
0.215395
21
0.924761
31
0.0
0
LINE
8
FRONT
10
0.215395
20
0.924761
30
0.0
11
0.226447
21
0.910171
31
0.0
0
LINE
8
FRONT
10
0.226447
20
0.910171
30
0.0
11
0.238897
21
0.896753
31
0.0
0
LINE
8
FRONT
10
0.238897
20
0.896753
30
0.0
11
0.252620
21
0.884641
31
0.0
0
LINE
8
FRONT
10
0.252620
20
0.884641
30
0.0
11
0.267482
21
0.873957
31
0.0
0
LINE
8
FRONT
10
0.267482
20
0.873957
30
0.0
11
0.283334
21
0.864805
31
0.0
0
LINE
8
FRONT
10
0.283334
20
0.864805
30
0.0
11
0.300018
21
0.857277
31
0.0
0
LINE
8
FRONT
10
0.300018
20
0.857277
30
0.0
11
0.317369
21
0.851447
31
0.0
0
LINE
8
FRONT
10
0.317369
20
0.851447
30
0.0
11
0.335214
21
0.847374
31
0.0
0
LINE
8
FRONT
10
0.335214
20
0.847374
30
0.0
11
0.353376
21
0.845098
31
0.0
0
LINE
8
FRONT
10
0.353376
20
0.845098
30
0.0
11
0.371674
21
0.844642
31
0.0
0
LINE
8
FRONT
10
0.371674
20
0.844642
30
0.0
11
0.389927
21
0.846009
31
0.0
0
LINE
8
FRONT
10
0.389927
20
0.846009
30
0.0
11
0.407953
21
0.849188
31
0.0
0
LINE
8
FRONT
10
0.407953
20
0.849188
30
0.0
11
0.425572
21
0.854145
31
0.0
0
LINE
8
FRONT
10
0.425572
20
0.854145
30
0.0
11
0.442611
21
0.860833
31
0.0
0
LINE
8
FRONT
10
0.442611
20
0.860833
30
0.0
11
0.458899
21
0.869183
31
0.0
0
LINE
8
FRONT
10
0.458899
20
0.869183
30
0.0
11
0.474275
21
0.879114
31
0.0
0
LINE
8
FRONT
10
0.474275
20
0.879114
30
0.0
11
0.488586
21
0.890526
31
0.0
0
LINE
8
FRONT
10
0.488586
20
0.890526
30
0.0
11
0.501689
21
0.903307
31
0.0
0
LINE
8
FRONT
10
0.501689
20
0.903307
30
0.0
11
0.513454
21
0.917328
31
0.0
0
LINE
8
FRONT
10
0.513454
20
0.917328
30
0.0
11
0.523765
21
0.932452
31
0.0
0
LINE
8
FRONT
10
0.523765
20
0.932452
30
0.0
11
0.532519
21
0.948527
31
0.0
0
LINE
8
FRONT
10
0.532519
20
0.948527
30
0.0
11
0.539629
21
0.965393
31
0.0
0
LINE
8
FRONT
10
0.539629
20
0.965393
30
0.0
11
0.545024
21
0.982884
31
0.0
0
LINE
8
FRONT
10
0.545024
20
0.982884
30
0.0
11
0.548651
21
1.000825
31
0.0
0
LINE
8
FRONT
10
0.548651
20
1.000825
30
0.0
11
0.550474
21
1.019038
31
0.0
0
LINE
8
FRONT
10
0.550474
20
1.019038
30
0.0
11
0.550474
21
1.037342
31
0.0
0
LINE
8
FRONT
10
0.550474
20
1.037342
30
0.0
11
0.548651
21
1.055555
31
0.0
0
LINE
8
FRONT
10
0.548651
20
1.055555
30
0.0
11
0.545024
21
1.073496
31
0.0
0
LINE
8
FRONT
10
0.545024
20
1.073496
30
0.0
11
0.539629
21
1.090987
31
0.0
0
LINE
8
FRONT
10
0.539629
20
1.090987
30
0.0
11
0.532519
21
1.107853
31
0.0
0
LINE
8
FRONT
10
0.532519
20
1.107853
30
0.0
11
0.523765
21
1.123928
31
0.0
0
LINE
8
FRONT
10
0.523765
20
1.123928
30
0.0
11
0.513454
21
1.139052
31
0.0
0
LINE
8
FRONT
10
0.513454
20
1.139052
30
0.0
11
0.501689
21
1.153073
31
0.0
0
LINE
8
FRONT
10
0.501689
20
1.153073
30
0.0
11
0.488586
21
1.165854
31
0.0
0
LINE
8
FRONT
10
0.488586
20
1.165854
30
0.0
11
0.474275
21
1.177266
31
0.0
0
LINE
8
FRONT
10
0.474275
20
1.177266
30
0.0
11
0.458899
21
1.187197
31
0.0
0
LINE
8
FRONT
10
0.458899
20
1.187197
30
0.0
11
0.442611
21
1.195547
31
0.0
0
LINE
8
FRONT
10
0.442611
20
1.195547
30
0.0
11
0.425572
21
1.202234
31
0.0
0
LINE
8
FRONT
10
0.425572
20
1.202234
30
0.0
11
0.407953
21
1.207192
31
0.0
0
LINE
8
FRONT
10
0.407953
20
1.207192
30
0.0
11
0.389927
21
1.210370
31
0.0
0
LINE
8
FRONT
10
0.389927
20
1.210370
30
0.0
11
0.371674
21
1.211738
31
0.0
0
LINE
8
FRONT
10
0.371674
20
1.211738
30
0.0
11
0.353376
21
1.211282
31
0.0
0
LINE
8
FRONT
10
0.353376
20
1.211282
30
0.0
11
0.335214
21
1.209006
31
0.0
0
LINE
8
FRONT
10
0.335214
20
1.209006
30
0.0
11
0.317369
21
1.204933
31
0.0
0
LINE
8
FRONT
10
0.317369
20
1.204933
30
0.0
11
0.300018
21
1.199103
31
0.0
0
LINE
8
FRONT
10
0.300018
20
1.199103
30
0.0
11
0.283334
21
1.191575
31
0.0
0
LINE
8
FRONT
10
0.283334
20
1.191575
30
0.0
11
0.267482
21
1.182423
31
0.0
0
LINE
8
FRONT
10
0.267482
20
1.182423
30
0.0
11
0.252620
21
1.171738
31
0.0
0
LINE
8
FRONT
10
0.252620
20
1.171738
30
0.0
11
0.238897
21
1.159627
31
0.0
0
LINE
8
FRONT
10
0.238897
20
1.159627
30
0.0
11
0.226447
21
1.146209
31
0.0
0
LINE
8
FRONT
10
0.226447
20
1.146209
30
0.0
11
0.215395
21
1.131618
31
0.0
0
LINE
8
FRONT
10
0.215395
20
1.131618
30
0.0
11
0.205850
21
1.116000
31
0.0
0
LINE
8
FRONT
10
0.205850
20
1.116000
30
0.0
11
0.197909
21
1.099509
31
0.0
0
LINE
8
FRONT
10
0.197909
20
1.099509
30
0.0
11
0.191648
21
1.082309
31
0.0
0
LINE
8
FRONT
10
0.191648
20
1.082309
30
0.0
11
0.187132
21
1.064571
31
0.0
0
LINE
8
FRONT
10
0.187132
20
1.064571
30
0.0
11
0.184404
21
1.046471
31
0.0
0
LINE
8
FRONT
10
0.184404
20
1.046471
30
0.0
11
0.183491
21
1.028190
31
0.0
0
LINE
8
FRONT
10
0.979114
20
1.028190
30
0.0
11
0.979723
21
1.016002
31
0.0
0
LINE
8
FRONT
10
0.979723
20
1.016002
30
0.0
11
0.981541
21
1.003936
31
0.0
0
LINE
8
FRONT
10
0.981541
20
1.003936
30
0.0
11
0.984552
21
0.992111
31
0.0
0
LINE
8
FRONT
10
0.984552
20
0.992111
30
0.0
11
0.988726
21
0.980644
31
0.0
0
LINE
8
FRONT
10
0.988726
20
0.980644
30
0.0
11
0.994020
21
0.969650
31
0.0
0
LINE
8
FRONT
10
0.994020
20
0.969650
30
0.0
11
1.000383
21
0.959238
31
0.0
0
LINE
8
FRONT
10
1.000383
20
0.959238
30
0.0
11
1.007751
21
0.949510
31
0.0
0
LINE
8
FRONT
10
1.007751
20
0.949510
30
0.0
11
1.016051
21
0.940565
31
0.0
0
LINE
8
FRONT
10
1.016051
20
0.940565
30
0.0
11
1.025201
21
0.932491
31
0.0
0
LINE
8
FRONT
10
1.025201
20
0.932491
30
0.0
11
1.035108
21
0.925368
31
0.0
0
LINE
8
FRONT
10
1.035108
20
0.925368
30
0.0
11
1.045676
21
0.919266
31
0.0
0
LINE
8
FRONT
10
1.045676
20
0.919266
30
0.0
11
1.056799
21
0.914248
31
0.0
0
LINE
8
FRONT
10
1.056799
20
0.914248
30
0.0
11
1.068366
21
0.910361
31
0.0
0
LINE
8
FRONT
10
1.068366
20
0.910361
30
0.0
11
1.080263
21
0.907646
31
0.0
0
LINE
8
FRONT
10
1.080263
20
0.907646
30
0.0
11
1.092371
21
0.906129
31
0.0
0
LINE
8
FRONT
10
1.092371
20
0.906129
30
0.0
11
1.104570
21
0.905824
31
0.0
0
LINE
8
FRONT
10
1.104570
20
0.905824
30
0.0
11
1.116738
21
0.906736
31
0.0
0
LINE
8
FRONT
10
1.116738
20
0.906736
30
0.0
11
1.128755
21
0.908855
31
0.0
0
LINE
8
FRONT
10
1.128755
20
0.908855
30
0.0
11
1.140502
21
0.912160
31
0.0
0
LINE
8
FRONT
10
1.140502
20
0.912160
30
0.0
11
1.151861
21
0.916618
31
0.0
0
LINE
8
FRONT
10
1.151861
20
0.916618
30
0.0
11
1.162720
21
0.922185
31
0.0
0
LINE
8
FRONT
10
1.162720
20
0.922185
30
0.0
11
1.172970
21
0.928806
31
0.0
0
LINE
8
FRONT
10
1.172970
20
0.928806
30
0.0
11
1.182511
21
0.936414
31
0.0
0
LINE
8
FRONT
10
1.182511
20
0.936414
30
0.0
11
1.191246
21
0.944934
31
0.0
0
LINE
8
FRONT
10
1.191246
20
0.944934
30
0.0
11
1.199090
21
0.954282
31
0.0
0
LINE
8
FRONT
10
1.199090
20
0.954282
30
0.0
11
1.205964
21
0.964364
31
0.0
0
LINE
8
FRONT
10
1.205964
20
0.964364
30
0.0
11
1.211800
21
0.975081
31
0.0
0
LINE
8
FRONT
10
1.211800
20
0.975081
30
0.0
11
1.216540
21
0.986325
31
0.0
0
LINE
8
FRONT
10
1.216540
20
0.986325
30
0.0
11
1.220136
21
0.997986
31
0.0
0
LINE
8
FRONT
10
1.220136
20
0.997986
30
0.0
11
1.222554
21
1.009947
31
0.0
0
LINE
8
FRONT
10
1.222554
20
1.009947
30
0.0
11
1.223769
21
1.022089
31
0.0
0
LINE
8
FRONT
10
1.223769
20
1.022089
30
0.0
11
1.223769
21
1.034291
31
0.0
0
LINE
8
FRONT
10
1.223769
20
1.034291
30
0.0
11
1.222554
21
1.046433
31
0.0
0
LINE
8
FRONT
10
1.222554
20
1.046433
30
0.0
11
1.220136
21
1.058394
31
0.0
0
LINE
8
FRONT
10
1.220136
20
1.058394
30
0.0
11
1.216540
21
1.070054
31
0.0
0
LINE
8
FRONT
10
1.216540
20
1.070054
30
0.0
11
1.211800
21
1.081299
31
0.0
0
LINE
8
FRONT
10
1.211800
20
1.081299
30
0.0
11
1.205964
21
1.092015
31
0.0
0
LINE
8
FRONT
10
1.205964
20
1.092015
30
0.0
11
1.199090
21
1.102098
31
0.0
0
LINE
8
FRONT
10
1.199090
20
1.102098
30
0.0
11
1.191246
21
1.111445
31
0.0
0
LINE
8
FRONT
10
1.191246
20
1.111445
30
0.0
11
1.182511
21
1.119966
31
0.0
0
LINE
8
FRONT
10
1.182511
20
1.119966
30
0.0
11
1.172970
21
1.127574
31
0.0
0
LINE
8
FRONT
10
1.172970
20
1.127574
30
0.0
11
1.162720
21
1.134194
31
0.0
0
LINE
8
FRONT
10
1.162720
20
1.134194
30
0.0
11
1.151861
21
1.139761
31
0.0
0
LINE
8
FRONT
10
1.151861
20
1.139761
30
0.0
11
1.140502
21
1.144220
31
0.0
0
LINE
8
FRONT
10
1.140502
20
1.144220
30
0.0
11
1.128755
21
1.147525
31
0.0
0
LINE
8
FRONT
10
1.128755
20
1.147525
30
0.0
11
1.116738
21
1.149644
31
0.0
0
LINE
8
FRONT
10
1.116738
20
1.149644
30
0.0
11
1.104570
21
1.150555
31
0.0
0
LINE
8
FRONT
10
1.104570
20
1.150555
30
0.0
11
1.092371
21
1.150251
31
0.0
0
LINE
8
FRONT
10
1.092371
20
1.150251
30
0.0
11
1.080263
21
1.148734
31
0.0
0
LINE
8
FRONT
10
1.080263
20
1.148734
30
0.0
11
1.068366
21
1.146019
31
0.0
0
LINE
8
FRONT
10
1.068366
20
1.146019
30
0.0
11
1.056799
21
1.142132
31
0.0
0
LINE
8
FRONT
10
1.056799
20
1.142132
30
0.0
11
1.045676
21
1.137113
31
0.0
0
LINE
8
FRONT
10
1.045676
20
1.137113
30
0.0
11
1.035108
21
1.131012
31
0.0
0
LINE
8
FRONT
10
1.035108
20
1.131012
30
0.0
11
1.025201
21
1.123889
31
0.0
0
LINE
8
FRONT
10
1.025201
20
1.123889
30
0.0
11
1.016051
21
1.115815
31
0.0
0
LINE
8
FRONT
10
1.016051
20
1.115815
30
0.0
11
1.007751
21
1.106869
31
0.0
0
LINE
8
FRONT
10
1.007751
20
1.106869
30
0.0
11
1.000383
21
1.097142
31
0.0
0
LINE
8
FRONT
10
1.000383
20
1.097142
30
0.0
11
0.994020
21
1.086730
31
0.0
0
LINE
8
FRONT
10
0.994020
20
1.086730
30
0.0
11
0.988726
21
1.075736
31
0.0
0
LINE
8
FRONT
10
0.988726
20
1.075736
30
0.0
11
0.984552
21
1.064269
31
0.0
0
LINE
8
FRONT
10
0.984552
20
1.064269
30
0.0
11
0.981541
21
1.052444
31
0.0
0
LINE
8
FRONT
10
0.981541
20
1.052444
30
0.0
11
0.979723
21
1.040377
31
0.0
0
LINE
8
FRONT
10
0.979723
20
1.040377
30
0.0
11
0.979114
21
1.028190
31
0.0
0
LINE
8
FRONT_HID
6
HIDDEN
10
0.780821
20
1.395401
30
0.0
11
0.687794
21
1.395401
31
0.0
0
LINE
8
FRONT_HID
6
HIDDEN
10
0.687794
20
1.395401
30
0.0
11
0.780821
21
1.395401
31
0.0
0
LINE
8
FRONT_HID
6
HIDDEN
10
0.780821
20
1.395401
30
0.0
11
0.780821
21
1.028190
31
0.0
0
LINE
8
FRONT_HID
6
HIDDEN
10
0.780821
20
1.028190
30
0.0
11
0.687794
21
1.028190
31
0.0
0
LINE
8
FRONT_HID
6
HIDDEN
10
0.687794
20
1.028190
30
0.0
11
0.780821
21
1.028190
31
0.0
0
LINE
8
FRONT_HID
6
HIDDEN
10
0.687794
20
1.028190
30
0.0
11
0.687794
21
1.395401
31
0.0
0
LINE
8
LEFT
10
2.129594
20
0.660979
30
0.0
11
1.762383
21
0.660979
31
0.0
0
LINE
8
LEFT
10
2.129594
20
0.660979
30
0.0
11
1.762383
21
0.660979
31
0.0
0
LINE
8
LEFT
10
2.129594
20
1.395401
30
0.0
11
1.762383
21
1.395401
31
0.0
0
LINE
8
LEFT
10
1.762383
20
1.395401
30
0.0
11
1.762383
21
0.660979
31
0.0
0
LINE
8
LEFT
10
2.129594
20
1.395401
30
0.0
11
2.129594
21
0.660979
31
0.0
0
LINE
8
LEFT
10
2.129594
20
1.395401
30
0.0
11
1.992502
21
1.395401
31
0.0
0
LINE
8
LEFT
10
1.899475
20
1.395401
30
0.0
11
1.762383
21
1.395401
31
0.0
0
LINE
8
LEFT
10
1.899475
20
1.395401
30
0.0
11
1.992502
21
1.395401
31
0.0
0
LINE
8
LEFT_HID
6
HIDDEN
10
2.129594
20
1.028190
30
0.0
11
2.129594
21
0.844585
31
0.0
0
LINE
8
LEFT_HID
6
HIDDEN
10
2.129594
20
0.844585
30
0.0
11
2.129594
21
1.211795
31
0.0
0
LINE
8
LEFT_HID
6
HIDDEN
10
2.129594
20
1.211795
30
0.0
11
2.129594
21
1.028190
31
0.0
0
LINE
8
LEFT_HID
6
HIDDEN
10
2.129594
20
1.028190
30
0.0
11
2.129594
21
0.905786
31
0.0
0
LINE
8
LEFT_HID
6
HIDDEN
10
2.129594
20
0.905786
30
0.0
11
2.129594
21
1.150593
31
0.0
0
LINE
8
LEFT_HID
6
HIDDEN
10
2.129594
20
1.150593
30
0.0
11
2.129594
21
1.028190
31
0.0
0
LINE
8
LEFT_HID
6
HIDDEN
10
1.762383
20
1.028190
30
0.0
11
1.762383
21
0.844585
31
0.0
0
LINE
8
LEFT_HID
6
HIDDEN
10
1.762383
20
0.844585
30
0.0
11
1.762383
21
1.211795
31
0.0
0
LINE
8
LEFT_HID
6
HIDDEN
10
1.762383
20
1.211795
30
0.0
11
1.762383
21
1.028190
31
0.0
0
LINE
8
LEFT_HID
6
HIDDEN
10
1.762383
20
1.028190
30
0.0
11
1.762383
21
0.905786
31
0.0
0
LINE
8
LEFT_HID
6
HIDDEN
10
1.762383
20
0.905786
30
0.0
11
1.762383
21
1.150593
31
0.0
0
LINE
8
LEFT_HID
6
HIDDEN
10
1.762383
20
1.150593
30
0.0
11
1.762383
21
1.028190
31
0.0
0
LINE
8
LEFT_HID
6
HIDDEN
10
1.945988
20
1.395401
30
0.0
11
1.899475
21
1.395401
31
0.0
0
LINE
8
LEFT_HID
6
HIDDEN
10
1.992502
20
1.395401
30
0.0
11
1.945988
21
1.395401
31
0.0
0
LINE
8
LEFT_HID
6
HIDDEN
10
1.945988
20
1.028190
30
0.0
11
1.899475
21
1.028190
31
0.0
0
LINE
8
LEFT_HID
6
HIDDEN
10
1.899475
20
1.028190
30
0.0
11
1.992502
21
1.028190
31
0.0
0
LINE
8
LEFT_HID
6
HIDDEN
10
1.992502
20
1.028190
30
0.0
11
1.945988
21
1.028190
31
0.0
0
LINE
8
LEFT_HID
6
HIDDEN
10
1.762383
20
0.844585
30
0.0
11
2.129594
21
0.844585
31
0.0
0
LINE
8
LEFT_HID
6
HIDDEN
10
1.762383
20
1.211795
30
0.0
11
2.129594
21
1.211795
31
0.0
0
LINE
8
LEFT_HID
6
HIDDEN
10
1.762383
20
0.905786
30
0.0
11
2.129594
21
0.905786
31
0.0
0
LINE
8
LEFT_HID
6
HIDDEN
10
1.762383
20
1.150593
30
0.0
11
2.129594
21
1.150593
31
0.0
0
LINE
8
LEFT_HID
6
HIDDEN
10
1.992502
20
1.028190
30
0.0
11
1.992502
21
1.395401
31
0.0
0
LINE
8
LEFT_HID
6
HIDDEN
10
1.899475
20
1.028190
30
0.0
11
1.899475
21
1.395401
31
0.0
0
LINE
8
TOP
10
0.367211
20
0.367211
30
0.0
11
0.000000
21
0.367211
31
0.0
0
LINE
8
TOP
10
0.367211
20
0.000000
30
0.0
11
0.000000
21
0.000000
31
0.0
0
LINE
8
TOP
10
1.468843
20
0.367211
30
0.0
11
1.101632
21
0.367211
31
0.0
0
LINE
8
TOP
10
1.468843
20
0.000000
30
0.0
11
1.101632
21
0.000000
31
0.0
0
LINE
8
TOP
10
1.101632
20
0.000000
30
0.0
11
0.367211
21
0.000000
31
0.0
0
LINE
8
TOP
10
1.101632
20
0.367211
30
0.0
11
0.367211
21
0.367211
31
0.0
0
LINE
8
TOP
10
0.780935
20
0.183605
30
0.0
11
0.780704
21
0.188237
31
0.0
0
LINE
8
TOP
10
0.780704
20
0.188237
30
0.0
11
0.780012
21
0.192822
31
0.0
0
LINE
8
TOP
10
0.780012
20
0.192822
30
0.0
11
0.778868
21
0.197315
31
0.0
0
LINE
8
TOP
10
0.778868
20
0.197315
30
0.0
11
0.777282
21
0.201673
31
0.0
0
LINE
8
TOP
10
0.777282
20
0.201673
30
0.0
11
0.775270
21
0.205851
31
0.0
0
LINE
8
TOP
10
0.775270
20
0.205851
30
0.0
11
0.772852
21
0.209807
31
0.0
0
LINE
8
TOP
10
0.772852
20
0.209807
30
0.0
11
0.770053
21
0.213504
31
0.0
0
LINE
8
TOP
10
0.770053
20
0.213504
30
0.0
11
0.766899
21
0.216903
31
0.0
0
LINE
8
TOP
10
0.766899
20
0.216903
30
0.0
11
0.763422
21
0.219971
31
0.0
0
LINE
8
TOP
10
0.763422
20
0.219971
30
0.0
11
0.759657
21
0.222678
31
0.0
0
LINE
8
TOP
10
0.759657
20
0.222678
30
0.0
11
0.755641
21
0.224996
31
0.0
0
LINE
8
TOP
10
0.755641
20
0.224996
30
0.0
11
0.751415
21
0.226903
31
0.0
0
LINE
8
TOP
10
0.751415
20
0.226903
30
0.0
11
0.747019
21
0.228380
31
0.0
0
LINE
8
TOP
10
0.747019
20
0.228380
30
0.0
11
0.742498
21
0.229412
31
0.0
0
LINE
8
TOP
10
0.742498
20
0.229412
30
0.0
11
0.737897
21
0.229989
31
0.0
0
LINE
8
TOP
10
0.737897
20
0.229989
30
0.0
11
0.733262
21
0.230104
31
0.0
0
LINE
8
TOP
10
0.733262
20
0.230104
30
0.0
11
0.728638
21
0.229758
31
0.0
0
LINE
8
TOP
10
0.728638
20
0.229758
30
0.0
11
0.724071
21
0.228953
31
0.0
0
LINE
8
TOP
10
0.724071
20
0.228953
30
0.0
11
0.719607
21
0.227697
31
0.0
0
LINE
8
TOP
10
0.719607
20
0.227697
30
0.0
11
0.715291
21
0.226003
31
0.0
0
LINE
8
TOP
10
0.715291
20
0.226003
30
0.0
11
0.711165
21
0.223887
31
0.0
0
LINE
8
TOP
10
0.711165
20
0.223887
30
0.0
11
0.707269
21
0.221371
31
0.0
0
LINE
8
TOP
10
0.707269
20
0.221371
30
0.0
11
0.703644
21
0.218480
31
0.0
0
LINE
8
TOP
10
0.703644
20
0.218480
30
0.0
11
0.700325
21
0.215242
31
0.0
0
LINE
8
TOP
10
0.700325
20
0.215242
30
0.0
11
0.697344
21
0.211690
31
0.0
0
LINE
8
TOP
10
0.697344
20
0.211690
30
0.0
11
0.694732
21
0.207859
31
0.0
0
LINE
8
TOP
10
0.694732
20
0.207859
30
0.0
11
0.692514
21
0.203787
31
0.0
0
LINE
8
TOP
10
0.692514
20
0.203787
30
0.0
11
0.690713
21
0.199514
31
0.0
0
LINE
8
TOP
10
0.690713
20
0.199514
30
0.0
11
0.689346
21
0.195083
31
0.0
0
LINE
8
TOP
10
0.689346
20
0.195083
30
0.0
11
0.688428
21
0.190538
31
0.0
0
LINE
8
TOP
10
0.688428
20
0.190538
30
0.0
11
0.687966
21
0.185924
31
0.0
0
LINE
8
TOP
10
0.687966
20
0.185924
30
0.0
11
0.687966
21
0.181287
31
0.0
0
LINE
8
TOP
10
0.687966
20
0.181287
30
0.0
11
0.688428
21
0.176673
31
0.0
0
LINE
8
TOP
10
0.688428
20
0.176673
30
0.0
11
0.689346
21
0.172128
31
0.0
0
LINE
8
TOP
10
0.689346
20
0.172128
30
0.0
11
0.690713
21
0.167697
31
0.0
0
LINE
8
TOP
10
0.690713
20
0.167697
30
0.0
11
0.692514
21
0.163424
31
0.0
0
LINE
8
TOP
10
0.692514
20
0.163424
30
0.0
11
0.694732
21
0.159352
31
0.0
0
LINE
8
TOP
10
0.694732
20
0.159352
30
0.0
11
0.697344
21
0.155520
31
0.0
0
LINE
8
TOP
10
0.697344
20
0.155520
30
0.0
11
0.700325
21
0.151968
31
0.0
0
LINE
8
TOP
10
0.700325
20
0.151968
30
0.0
11
0.703644
21
0.148731
31
0.0
0
LINE
8
TOP
10
0.703644
20
0.148731
30
0.0
11
0.707269
21
0.145839
31
0.0
0
LINE
8
TOP
10
0.707269
20
0.145839
30
0.0
11
0.711165
21
0.143324
31
0.0
0
LINE
8
TOP
10
0.711165
20
0.143324
30
0.0
11
0.715291
21
0.141208
31
0.0
0
LINE
8
TOP
10
0.715291
20
0.141208
30
0.0
11
0.719607
21
0.139514
31
0.0
0
LINE
8
TOP
10
0.719607
20
0.139514
30
0.0
11
0.724071
21
0.138258
31
0.0
0
LINE
8
TOP
10
0.724071
20
0.138258
30
0.0
11
0.728638
21
0.137453
31
0.0
0
LINE
8
TOP
10
0.728638
20
0.137453
30
0.0
11
0.733262
21
0.137106
31
0.0
0
LINE
8
TOP
10
0.733262
20
0.137106
30
0.0
11
0.737897
21
0.137222
31
0.0
0
LINE
8
TOP
10
0.737897
20
0.137222
30
0.0
11
0.742498
21
0.137799
31
0.0
0
LINE
8
TOP
10
0.742498
20
0.137799
30
0.0
11
0.747019
21
0.138830
31
0.0
0
LINE
8
TOP
10
0.747019
20
0.138830
30
0.0
11
0.751415
21
0.140307
31
0.0
0
LINE
8
TOP
10
0.751415
20
0.140307
30
0.0
11
0.755641
21
0.142214
31
0.0
0
LINE
8
TOP
10
0.755641
20
0.142214
30
0.0
11
0.759657
21
0.144533
31
0.0
0
LINE
8
TOP
10
0.759657
20
0.144533
30
0.0
11
0.763422
21
0.147240
31
0.0
0
LINE
8
TOP
10
0.763422
20
0.147240
30
0.0
11
0.766899
21
0.150308
31
0.0
0
LINE
8
TOP
10
0.766899
20
0.150308
30
0.0
11
0.770053
21
0.153707
31
0.0
0
LINE
8
TOP
10
0.770053
20
0.153707
30
0.0
11
0.772852
21
0.157403
31
0.0
0
LINE
8
TOP
10
0.772852
20
0.157403
30
0.0
11
0.775270
21
0.161360
31
0.0
0
LINE
8
TOP
10
0.775270
20
0.161360
30
0.0
11
0.777282
21
0.165538
31
0.0
0
LINE
8
TOP
10
0.777282
20
0.165538
30
0.0
11
0.778868
21
0.169895
31
0.0
0
LINE
8
TOP
10
0.778868
20
0.169895
30
0.0
11
0.780012
21
0.174389
31
0.0
0
LINE
8
TOP
10
0.780012
20
0.174389
30
0.0
11
0.780704
21
0.178974
31
0.0
0
LINE
8
TOP
10
0.780704
20
0.178974
30
0.0
11
0.780935
21
0.183605
31
0.0
0
LINE
8
TOP
10
0.367211
20
0.000000
30
0.0
11
0.367211
21
0.367211
31
0.0
0
LINE
8
TOP
10
1.101632
20
0.000000
30
0.0
11
1.101632
21
0.367211
31
0.0
0
LINE
8
TOP
10
0.000000
20
0.367211
30
0.0
11
0.000000
21
0.000000
31
0.0
0
LINE
8
TOP
10
1.468843
20
0.367211
30
0.0
11
1.468843
21
0.000000
31
0.0
0
LINE
8
TOP_HID
6
HIDDEN
10
0.183605
20
0.000000
30
0.0
11
0.550816
21
0.000000
31
0.0
0
LINE
8
TOP_HID
6
HIDDEN
10
0.550816
20
0.000000
30
0.0
11
0.183605
21
0.000000
31
0.0
0
LINE
8
TOP_HID
6
HIDDEN
10
0.979228
20
0.000000
30
0.0
11
1.224036
21
0.000000
31
0.0
0
LINE
8
TOP_HID
6
HIDDEN
10
1.224036
20
0.000000
30
0.0
11
0.979228
21
0.000000
31
0.0
0
LINE
8
TOP_HID
6
HIDDEN
10
0.183605
20
0.367211
30
0.0
11
0.550816
21
0.367211
31
0.0
0
LINE
8
TOP_HID
6
HIDDEN
10
0.550816
20
0.367211
30
0.0
11
0.183605
21
0.367211
31
0.0
0
LINE
8
TOP_HID
6
HIDDEN
10
0.979228
20
0.367211
30
0.0
11
1.224036
21
0.367211
31
0.0
0
LINE
8
TOP_HID
6
HIDDEN
10
1.224036
20
0.367211
30
0.0
11
0.979228
21
0.367211
31
0.0
0
LINE
8
TOP_HID
6
HIDDEN
10
0.183605
20
0.000000
30
0.0
11
0.183605
21
0.367211
31
0.0
0
LINE
8
TOP_HID
6
HIDDEN
10
0.979228
20
0.000000
30
0.0
11
0.979228
21
0.367211
31
0.0
0
LINE
8
TOP_HID
6
HIDDEN
10
0.550816
20
0.367211
30
0.0
11
0.550816
21
0.000000
31
0.0
0
LINE
8
TOP_HID
6
HIDDEN
10
1.224036
20
0.367211
30
0.0
11
1.224036
21
0.000000
31
0.0
0
ENDSEC
0
EOF
