0
SECTION
2
HEADER
9
$ACADVER
1
AC1009
0
ENDSEC
0
SECTION
2
TABLES
0
TABLE
2
LTYPE
70
3
0
LTYPE
2
CONTINUOUS
70
0
3
Solid line
72
65
73
0
40
0.0
0
LTYPE
2
HIDDEN
70
0
3
__ __ __ __ __
72
65
73
2
40
0.037500
49
0.025013
49
-0.012488
0
LTYPE
2
CENTER
70
0
3
___ _ ___ _ ___
72
65
73
4
40
0.087488
49
0.049988
49
-0.012488
49
0.012488
49
-0.012488
0
ENDTAB
0
TABLE
2
LAYER
70
7
0
LAYER
2
0
70
0
62
7
6
CONTINUOUS
0
LAYER
2
FRONT
70
0
62
7
6
CONTINUOUS
0
LAYER
2
FRONT_HID
70
0
62
7
6
HIDDEN
0
LAYER
2
LEFT
70
0
62
7
6
CONTINUOUS
0
LAYER
2
LEFT_HID
70
0
62
7
6
HIDDEN
0
LAYER
2
TOP
70
0
62
7
6
CONTINUOUS
0
LAYER
2
TOP_HID
70
0
62
7
6
HIDDEN
0
ENDTAB
0
ENDSEC
0
SECTION
2
ENTITIES
0
LINE
8
FRONT
10
0.225000
20
0.900000
30
0.0
11
0.450000
21
0.900000
31
0.0
0
LINE
8
FRONT
10
0.000000
20
0.900000
30
0.0
11
0.225000
21
0.900000
31
0.0
0
LINE
8
FRONT
10
0.450000
20
0.900000
30
0.0
11
0.450000
21
1.125000
31
0.0
0
LINE
8
FRONT
10
0.375000
20
1.125000
30
0.0
11
0.374953
21
1.121260
31
0.0
0
LINE
8
FRONT
10
0.374953
20
1.121260
30
0.0
11
0.374814
21
1.117523
31
0.0
0
LINE
8
FRONT
10
0.374814
20
1.117523
30
0.0
11
0.374581
21
1.113790
31
0.0
0
LINE
8
FRONT
10
0.374581
20
1.113790
30
0.0
11
0.374255
21
1.110065
31
0.0
0
LINE
8
FRONT
10
0.374255
20
1.110065
30
0.0
11
0.373836
21
1.106348
31
0.0
0
LINE
8
FRONT
10
0.373836
20
1.106348
30
0.0
11
0.373325
21
1.102644
31
0.0
0
LINE
8
FRONT
10
0.373325
20
1.102644
30
0.0
11
0.372721
21
1.098953
31
0.0
0
LINE
8
FRONT
10
0.372721
20
1.098953
30
0.0
11
0.372026
21
1.095278
31
0.0
0
LINE
8
FRONT
10
0.372026
20
1.095278
30
0.0
11
0.371239
21
1.091622
31
0.0
0
LINE
8
FRONT
10
0.371239
20
1.091622
30
0.0
11
0.370362
21
1.087986
31
0.0
0
LINE
8
FRONT
10
0.370362
20
1.087986
30
0.0
11
0.369394
21
1.084374
31
0.0
0
LINE
8
FRONT
10
0.369394
20
1.084374
30
0.0
11
0.368336
21
1.080787
31
0.0
0
LINE
8
FRONT
10
0.368336
20
1.080787
30
0.0
11
0.367189
21
1.077227
31
0.0
0
LINE
8
FRONT
10
0.367189
20
1.077227
30
0.0
11
0.365954
21
1.073697
31
0.0
0
LINE
8
FRONT
10
0.365954
20
1.073697
30
0.0
11
0.364631
21
1.070199
31
0.0
0
LINE
8
FRONT
10
0.364631
20
1.070199
30
0.0
11
0.363221
21
1.066735
31
0.0
0
LINE
8
FRONT
10
0.363221
20
1.066735
30
0.0
11
0.361726
21
1.063307
31
0.0
0
LINE
8
FRONT
10
0.361726
20
1.063307
30
0.0
11
0.360145
21
1.059917
31
0.0
0
LINE
8
FRONT
10
0.360145
20
1.059917
30
0.0
11
0.358481
21
1.056568
31
0.0
0
LINE
8
FRONT
10
0.358481
20
1.056568
30
0.0
11
0.356733
21
1.053262
31
0.0
0
LINE
8
FRONT
10
0.356733
20
1.053262
30
0.0
11
0.354904
21
1.050000
31
0.0
0
LINE
8
FRONT
10
0.354904
20
1.050000
30
0.0
11
0.352994
21
1.046785
31
0.0
0
LINE
8
FRONT
10
0.352994
20
1.046785
30
0.0
11
0.351004
21
1.043618
31
0.0
0
LINE
8
FRONT
10
0.351004
20
1.043618
30
0.0
11
0.348936
21
1.040502
31
0.0
0
LINE
8
FRONT
10
0.348936
20
1.040502
30
0.0
11
0.346791
21
1.037438
31
0.0
0
LINE
8
FRONT
10
0.346791
20
1.037438
30
0.0
11
0.344570
21
1.034429
31
0.0
0
LINE
8
FRONT
10
0.344570
20
1.034429
30
0.0
11
0.342275
21
1.031477
31
0.0
0
LINE
8
FRONT
10
0.342275
20
1.031477
30
0.0
11
0.339907
21
1.028582
31
0.0
0
LINE
8
FRONT
10
0.339907
20
1.028582
30
0.0
11
0.337467
21
1.025747
31
0.0
0
LINE
8
FRONT
10
0.337467
20
1.025747
30
0.0
11
0.334958
21
1.022974
31
0.0
0
LINE
8
FRONT
10
0.334958
20
1.022974
30
0.0
11
0.332380
21
1.020264
31
0.0
0
LINE
8
FRONT
10
0.332380
20
1.020264
30
0.0
11
0.329736
21
1.017620
31
0.0
0
LINE
8
FRONT
10
0.329736
20
1.017620
30
0.0
11
0.327026
21
1.015042
31
0.0
0
LINE
8
FRONT
10
0.327026
20
1.015042
30
0.0
11
0.324253
21
1.012533
31
0.0
0
LINE
8
FRONT
10
0.324253
20
1.012533
30
0.0
11
0.321418
21
1.010093
31
0.0
0
LINE
8
FRONT
10
0.321418
20
1.010093
30
0.0
11
0.318523
21
1.007725
31
0.0
0
LINE
8
FRONT
10
0.318523
20
1.007725
30
0.0
11
0.315571
21
1.005430
31
0.0
0
LINE
8
FRONT
10
0.315571
20
1.005430
30
0.0
11
0.312562
21
1.003209
31
0.0
0
LINE
8
FRONT
10
0.312562
20
1.003209
30
0.0
11
0.309498
21
1.001064
31
0.0
0
LINE
8
FRONT
10
0.309498
20
1.001064
30
0.0
11
0.306382
21
0.998996
31
0.0
0
LINE
8
FRONT
10
0.306382
20
0.998996
30
0.0
11
0.303215
21
0.997006
31
0.0
0
LINE
8
FRONT
10
0.303215
20
0.997006
30
0.0
11
0.300000
21
0.995096
31
0.0
0
LINE
8
FRONT
10
0.300000
20
0.995096
30
0.0
11
0.296738
21
0.993267
31
0.0
0
LINE
8
FRONT
10
0.296738
20
0.993267
30
0.0
11
0.293432
21
0.991519
31
0.0
0
LINE
8
FRONT
10
0.293432
20
0.991519
30
0.0
11
0.290083
21
0.989855
31
0.0
0
LINE
8
FRONT
10
0.290083
20
0.989855
30
0.0
11
0.286693
21
0.988274
31
0.0
0
LINE
8
FRONT
10
0.286693
20
0.988274
30
0.0
11
0.283265
21
0.986779
31
0.0
0
LINE
8
FRONT
10
0.283265
20
0.986779
30
0.0
11
0.279801
21
0.985369
31
0.0
0
LINE
8
FRONT
10
0.279801
20
0.985369
30
0.0
11
0.276303
21
0.984046
31
0.0
0
LINE
8
FRONT
10
0.276303
20
0.984046
30
0.0
11
0.272773
21
0.982811
31
0.0
0
LINE
8
FRONT
10
0.272773
20
0.982811
30
0.0
11
0.269213
21
0.981664
31
0.0
0
LINE
8
FRONT
10
0.269213
20
0.981664
30
0.0
11
0.265626
21
0.980606
31
0.0
0
LINE
8
FRONT
10
0.265626
20
0.980606
30
0.0
11
0.262014
21
0.979638
31
0.0
0
LINE
8
FRONT
10
0.262014
20
0.979638
30
0.0
11
0.258378
21
0.978761
31
0.0
0
LINE
8
FRONT
10
0.258378
20
0.978761
30
0.0
11
0.254722
21
0.977974
31
0.0
0
LINE
8
FRONT
10
0.254722
20
0.977974
30
0.0
11
0.251047
21
0.977279
31
0.0
0
LINE
8
FRONT
10
0.251047
20
0.977279
30
0.0
11
0.247356
21
0.976675
31
0.0
0
LINE
8
FRONT
10
0.247356
20
0.976675
30
0.0
11
0.243652
21
0.976164
31
0.0
0
LINE
8
FRONT
10
0.243652
20
0.976164
30
0.0
11
0.239935
21
0.975745
31
0.0
0
LINE
8
FRONT
10
0.239935
20
0.975745
30
0.0
11
0.236210
21
0.975419
31
0.0
0
LINE
8
FRONT
10
0.236210
20
0.975419
30
0.0
11
0.232477
21
0.975186
31
0.0
0
LINE
8
FRONT
10
0.232477
20
0.975186
30
0.0
11
0.228740
21
0.975047
31
0.0
0
LINE
8
FRONT
10
0.228740
20
0.975047
30
0.0
11
0.225000
21
0.975000
31
0.0
0
LINE
8
FRONT
10
0.000000
20
1.125000
30
0.0
11
0.000000
21
0.900000
31
0.0
0
LINE
8
FRONT
10
0.225000
20
0.975000
30
0.0
11
0.221260
21
0.975047
31
0.0
0
LINE
8
FRONT
10
0.221260
20
0.975047
30
0.0
11
0.217523
21
0.975186
31
0.0
0
LINE
8
FRONT
10
0.217523
20
0.975186
30
0.0
11
0.213790
21
0.975419
31
0.0
0
LINE
8
FRONT
10
0.213790
20
0.975419
30
0.0
11
0.210065
21
0.975745
31
0.0
0
LINE
8
FRONT
10
0.210065
20
0.975745
30
0.0
11
0.206348
21
0.976164
31
0.0
0
LINE
8
FRONT
10
0.206348
20
0.976164
30
0.0
11
0.202644
21
0.976675
31
0.0
0
LINE
8
FRONT
10
0.202644
20
0.976675
30
0.0
11
0.198953
21
0.977279
31
0.0
0
LINE
8
FRONT
10
0.198953
20
0.977279
30
0.0
11
0.195278
21
0.977974
31
0.0
0
LINE
8
FRONT
10
0.195278
20
0.977974
30
0.0
11
0.191622
21
0.978761
31
0.0
0
LINE
8
FRONT
10
0.191622
20
0.978761
30
0.0
11
0.187986
21
0.979638
31
0.0
0
LINE
8
FRONT
10
0.187986
20
0.979638
30
0.0
11
0.184374
21
0.980606
31
0.0
0
LINE
8
FRONT
10
0.184374
20
0.980606
30
0.0
11
0.180787
21
0.981664
31
0.0
0
LINE
8
FRONT
10
0.180787
20
0.981664
30
0.0
11
0.177227
21
0.982811
31
0.0
0
LINE
8
FRONT
10
0.177227
20
0.982811
30
0.0
11
0.173697
21
0.984046
31
0.0
0
LINE
8
FRONT
10
0.173697
20
0.984046
30
0.0
11
0.170199
21
0.985369
31
0.0
0
LINE
8
FRONT
10
0.170199
20
0.985369
30
0.0
11
0.166735
21
0.986779
31
0.0
0
LINE
8
FRONT
10
0.166735
20
0.986779
30
0.0
11
0.163307
21
0.988274
31
0.0
0
LINE
8
FRONT
10
0.163307
20
0.988274
30
0.0
11
0.159917
21
0.989855
31
0.0
0
LINE
8
FRONT
10
0.159917
20
0.989855
30
0.0
11
0.156568
21
0.991519
31
0.0
0
LINE
8
FRONT
10
0.156568
20
0.991519
30
0.0
11
0.153262
21
0.993267
31
0.0
0
LINE
8
FRONT
10
0.153262
20
0.993267
30
0.0
11
0.150000
21
0.995096
31
0.0
0
LINE
8
FRONT
10
0.150000
20
0.995096
30
0.0
11
0.146785
21
0.997006
31
0.0
0
LINE
8
FRONT
10
0.146785
20
0.997006
30
0.0
11
0.143618
21
0.998996
31
0.0
0
LINE
8
FRONT
10
0.143618
20
0.998996
30
0.0
11
0.140502
21
1.001064
31
0.0
0
LINE
8
FRONT
10
0.140502
20
1.001064
30
0.0
11
0.137438
21
1.003209
31
0.0
0
LINE
8
FRONT
10
0.137438
20
1.003209
30
0.0
11
0.134429
21
1.005430
31
0.0
0
LINE
8
FRONT
10
0.134429
20
1.005430
30
0.0
11
0.131477
21
1.007725
31
0.0
0
LINE
8
FRONT
10
0.131477
20
1.007725
30
0.0
11
0.128582
21
1.010093
31
0.0
0
LINE
8
FRONT
10
0.128582
20
1.010093
30
0.0
11
0.125747
21
1.012533
31
0.0
0
LINE
8
FRONT
10
0.125747
20
1.012533
30
0.0
11
0.122974
21
1.015042
31
0.0
0
LINE
8
FRONT
10
0.122974
20
1.015042
30
0.0
11
0.120264
21
1.017620
31
0.0
0
LINE
8
FRONT
10
0.120264
20
1.017620
30
0.0
11
0.117620
21
1.020264
31
0.0
0
LINE
8
FRONT
10
0.117620
20
1.020264
30
0.0
11
0.115042
21
1.022974
31
0.0
0
LINE
8
FRONT
10
0.115042
20
1.022974
30
0.0
11
0.112533
21
1.025747
31
0.0
0
LINE
8
FRONT
10
0.112533
20
1.025747
30
0.0
11
0.110093
21
1.028582
31
0.0
0
LINE
8
FRONT
10
0.110093
20
1.028582
30
0.0
11
0.107725
21
1.031477
31
0.0
0
LINE
8
FRONT
10
0.107725
20
1.031477
30
0.0
11
0.105430
21
1.034429
31
0.0
0
LINE
8
FRONT
10
0.105430
20
1.034429
30
0.0
11
0.103209
21
1.037438
31
0.0
0
LINE
8
FRONT
10
0.103209
20
1.037438
30
0.0
11
0.101064
21
1.040502
31
0.0
0
LINE
8
FRONT
10
0.101064
20
1.040502
30
0.0
11
0.098996
21
1.043618
31
0.0
0
LINE
8
FRONT
10
0.098996
20
1.043618
30
0.0
11
0.097006
21
1.046785
31
0.0
0
LINE
8
FRONT
10
0.097006
20
1.046785
30
0.0
11
0.095096
21
1.050000
31
0.0
0
LINE
8
FRONT
10
0.095096
20
1.050000
30
0.0
11
0.093267
21
1.053262
31
0.0
0
LINE
8
FRONT
10
0.093267
20
1.053262
30
0.0
11
0.091519
21
1.056568
31
0.0
0
LINE
8
FRONT
10
0.091519
20
1.056568
30
0.0
11
0.089855
21
1.059917
31
0.0
0
LINE
8
FRONT
10
0.089855
20
1.059917
30
0.0
11
0.088274
21
1.063307
31
0.0
0
LINE
8
FRONT
10
0.088274
20
1.063307
30
0.0
11
0.086779
21
1.066735
31
0.0
0
LINE
8
FRONT
10
0.086779
20
1.066735
30
0.0
11
0.085369
21
1.070199
31
0.0
0
LINE
8
FRONT
10
0.085369
20
1.070199
30
0.0
11
0.084046
21
1.073697
31
0.0
0
LINE
8
FRONT
10
0.084046
20
1.073697
30
0.0
11
0.082811
21
1.077227
31
0.0
0
LINE
8
FRONT
10
0.082811
20
1.077227
30
0.0
11
0.081664
21
1.080787
31
0.0
0
LINE
8
FRONT
10
0.081664
20
1.080787
30
0.0
11
0.080606
21
1.084374
31
0.0
0
LINE
8
FRONT
10
0.080606
20
1.084374
30
0.0
11
0.079638
21
1.087986
31
0.0
0
LINE
8
FRONT
10
0.079638
20
1.087986
30
0.0
11
0.078761
21
1.091622
31
0.0
0
LINE
8
FRONT
10
0.078761
20
1.091622
30
0.0
11
0.077974
21
1.095278
31
0.0
0
LINE
8
FRONT
10
0.077974
20
1.095278
30
0.0
11
0.077279
21
1.098953
31
0.0
0
LINE
8
FRONT
10
0.077279
20
1.098953
30
0.0
11
0.076675
21
1.102644
31
0.0
0
LINE
8
FRONT
10
0.076675
20
1.102644
30
0.0
11
0.076164
21
1.106348
31
0.0
0
LINE
8
FRONT
10
0.076164
20
1.106348
30
0.0
11
0.075745
21
1.110065
31
0.0
0
LINE
8
FRONT
10
0.075745
20
1.110065
30
0.0
11
0.075419
21
1.113790
31
0.0
0
LINE
8
FRONT
10
0.075419
20
1.113790
30
0.0
11
0.075186
21
1.117523
31
0.0
0
LINE
8
FRONT
10
0.075186
20
1.117523
30
0.0
11
0.075047
21
1.121260
31
0.0
0
LINE
8
FRONT
10
0.075047
20
1.121260
30
0.0
11
0.075000
21
1.125000
31
0.0
0
LINE
8
FRONT
10
0.450000
20
1.125000
30
0.0
11
0.450000
21
1.350000
31
0.0
0
LINE
8
FRONT
10
0.225000
20
1.275000
30
0.0
11
0.228740
21
1.274953
31
0.0
0
LINE
8
FRONT
10
0.228740
20
1.274953
30
0.0
11
0.232477
21
1.274814
31
0.0
0
LINE
8
FRONT
10
0.232477
20
1.274814
30
0.0
11
0.236210
21
1.274581
31
0.0
0
LINE
8
FRONT
10
0.236210
20
1.274581
30
0.0
11
0.239935
21
1.274255
31
0.0
0
LINE
8
FRONT
10
0.239935
20
1.274255
30
0.0
11
0.243652
21
1.273836
31
0.0
0
LINE
8
FRONT
10
0.243652
20
1.273836
30
0.0
11
0.247356
21
1.273325
31
0.0
0
LINE
8
FRONT
10
0.247356
20
1.273325
30
0.0
11
0.251047
21
1.272721
31
0.0
0
LINE
8
FRONT
10
0.251047
20
1.272721
30
0.0
11
0.254722
21
1.272026
31
0.0
0
LINE
8
FRONT
10
0.254722
20
1.272026
30
0.0
11
0.258378
21
1.271239
31
0.0
0
LINE
8
FRONT
10
0.258378
20
1.271239
30
0.0
11
0.262014
21
1.270362
31
0.0
0
LINE
8
FRONT
10
0.262014
20
1.270362
30
0.0
11
0.265626
21
1.269394
31
0.0
0
LINE
8
FRONT
10
0.265626
20
1.269394
30
0.0
11
0.269213
21
1.268336
31
0.0
0
LINE
8
FRONT
10
0.269213
20
1.268336
30
0.0
11
0.272773
21
1.267189
31
0.0
0
LINE
8
FRONT
10
0.272773
20
1.267189
30
0.0
11
0.276303
21
1.265954
31
0.0
0
LINE
8
FRONT
10
0.276303
20
1.265954
30
0.0
11
0.279801
21
1.264631
31
0.0
0
LINE
8
FRONT
10
0.279801
20
1.264631
30
0.0
11
0.283265
21
1.263221
31
0.0
0
LINE
8
FRONT
10
0.283265
20
1.263221
30
0.0
11
0.286693
21
1.261726
31
0.0
0
LINE
8
FRONT
10
0.286693
20
1.261726
30
0.0
11
0.290083
21
1.260145
31
0.0
0
LINE
8
FRONT
10
0.290083
20
1.260145
30
0.0
11
0.293432
21
1.258481
31
0.0
0
LINE
8
FRONT
10
0.293432
20
1.258481
30
0.0
11
0.296738
21
1.256733
31
0.0
0
LINE
8
FRONT
10
0.296738
20
1.256733
30
0.0
11
0.300000
21
1.254904
31
0.0
0
LINE
8
FRONT
10
0.300000
20
1.254904
30
0.0
11
0.303215
21
1.252994
31
0.0
0
LINE
8
FRONT
10
0.303215
20
1.252994
30
0.0
11
0.306382
21
1.251004
31
0.0
0
LINE
8
FRONT
10
0.306382
20
1.251004
30
0.0
11
0.309498
21
1.248936
31
0.0
0
LINE
8
FRONT
10
0.309498
20
1.248936
30
0.0
11
0.312562
21
1.246791
31
0.0
0
LINE
8
FRONT
10
0.312562
20
1.246791
30
0.0
11
0.315571
21
1.244570
31
0.0
0
LINE
8
FRONT
10
0.315571
20
1.244570
30
0.0
11
0.318523
21
1.242275
31
0.0
0
LINE
8
FRONT
10
0.318523
20
1.242275
30
0.0
11
0.321418
21
1.239907
31
0.0
0
LINE
8
FRONT
10
0.321418
20
1.239907
30
0.0
11
0.324253
21
1.237467
31
0.0
0
LINE
8
FRONT
10
0.324253
20
1.237467
30
0.0
11
0.327026
21
1.234958
31
0.0
0
LINE
8
FRONT
10
0.327026
20
1.234958
30
0.0
11
0.329736
21
1.232380
31
0.0
0
LINE
8
FRONT
10
0.329736
20
1.232380
30
0.0
11
0.332380
21
1.229736
31
0.0
0
LINE
8
FRONT
10
0.332380
20
1.229736
30
0.0
11
0.334958
21
1.227026
31
0.0
0
LINE
8
FRONT
10
0.334958
20
1.227026
30
0.0
11
0.337467
21
1.224253
31
0.0
0
LINE
8
FRONT
10
0.337467
20
1.224253
30
0.0
11
0.339907
21
1.221418
31
0.0
0
LINE
8
FRONT
10
0.339907
20
1.221418
30
0.0
11
0.342275
21
1.218523
31
0.0
0
LINE
8
FRONT
10
0.342275
20
1.218523
30
0.0
11
0.344570
21
1.215571
31
0.0
0
LINE
8
FRONT
10
0.344570
20
1.215571
30
0.0
11
0.346791
21
1.212562
31
0.0
0
LINE
8
FRONT
10
0.346791
20
1.212562
30
0.0
11
0.348936
21
1.209498
31
0.0
0
LINE
8
FRONT
10
0.348936
20
1.209498
30
0.0
11
0.351004
21
1.206382
31
0.0
0
LINE
8
FRONT
10
0.351004
20
1.206382
30
0.0
11
0.352994
21
1.203215
31
0.0
0
LINE
8
FRONT
10
0.352994
20
1.203215
30
0.0
11
0.354904
21
1.200000
31
0.0
0
LINE
8
FRONT
10
0.354904
20
1.200000
30
0.0
11
0.356733
21
1.196738
31
0.0
0
LINE
8
FRONT
10
0.356733
20
1.196738
30
0.0
11
0.358481
21
1.193432
31
0.0
0
LINE
8
FRONT
10
0.358481
20
1.193432
30
0.0
11
0.360145
21
1.190083
31
0.0
0
LINE
8
FRONT
10
0.360145
20
1.190083
30
0.0
11
0.361726
21
1.186693
31
0.0
0
LINE
8
FRONT
10
0.361726
20
1.186693
30
0.0
11
0.363221
21
1.183265
31
0.0
0
LINE
8
FRONT
10
0.363221
20
1.183265
30
0.0
11
0.364631
21
1.179801
31
0.0
0
LINE
8
FRONT
10
0.364631
20
1.179801
30
0.0
11
0.365954
21
1.176303
31
0.0
0
LINE
8
FRONT
10
0.365954
20
1.176303
30
0.0
11
0.367189
21
1.172773
31
0.0
0
LINE
8
FRONT
10
0.367189
20
1.172773
30
0.0
11
0.368336
21
1.169213
31
0.0
0
LINE
8
FRONT
10
0.368336
20
1.169213
30
0.0
11
0.369394
21
1.165626
31
0.0
0
LINE
8
FRONT
10
0.369394
20
1.165626
30
0.0
11
0.370362
21
1.162014
31
0.0
0
LINE
8
FRONT
10
0.370362
20
1.162014
30
0.0
11
0.371239
21
1.158378
31
0.0
0
LINE
8
FRONT
10
0.371239
20
1.158378
30
0.0
11
0.372026
21
1.154722
31
0.0
0
LINE
8
FRONT
10
0.372026
20
1.154722
30
0.0
11
0.372721
21
1.151047
31
0.0
0
LINE
8
FRONT
10
0.372721
20
1.151047
30
0.0
11
0.373325
21
1.147356
31
0.0
0
LINE
8
FRONT
10
0.373325
20
1.147356
30
0.0
11
0.373836
21
1.143652
31
0.0
0
LINE
8
FRONT
10
0.373836
20
1.143652
30
0.0
11
0.374255
21
1.139935
31
0.0
0
LINE
8
FRONT
10
0.374255
20
1.139935
30
0.0
11
0.374581
21
1.136210
31
0.0
0
LINE
8
FRONT
10
0.374581
20
1.136210
30
0.0
11
0.374814
21
1.132477
31
0.0
0
LINE
8
FRONT
10
0.374814
20
1.132477
30
0.0
11
0.374953
21
1.128740
31
0.0
0
LINE
8
FRONT
10
0.374953
20
1.128740
30
0.0
11
0.375000
21
1.125000
31
0.0
0
LINE
8
FRONT
10
0.075000
20
1.125000
30
0.0
11
0.075047
21
1.128740
31
0.0
0
LINE
8
FRONT
10
0.075047
20
1.128740
30
0.0
11
0.075186
21
1.132477
31
0.0
0
LINE
8
FRONT
10
0.075186
20
1.132477
30
0.0
11
0.075419
21
1.136210
31
0.0
0
LINE
8
FRONT
10
0.075419
20
1.136210
30
0.0
11
0.075745
21
1.139935
31
0.0
0
LINE
8
FRONT
10
0.075745
20
1.139935
30
0.0
11
0.076164
21
1.143652
31
0.0
0
LINE
8
FRONT
10
0.076164
20
1.143652
30
0.0
11
0.076675
21
1.147356
31
0.0
0
LINE
8
FRONT
10
0.076675
20
1.147356
30
0.0
11
0.077279
21
1.151047
31
0.0
0
LINE
8
FRONT
10
0.077279
20
1.151047
30
0.0
11
0.077974
21
1.154722
31
0.0
0
LINE
8
FRONT
10
0.077974
20
1.154722
30
0.0
11
0.078761
21
1.158378
31
0.0
0
LINE
8
FRONT
10
0.078761
20
1.158378
30
0.0
11
0.079638
21
1.162014
31
0.0
0
LINE
8
FRONT
10
0.079638
20
1.162014
30
0.0
11
0.080606
21
1.165626
31
0.0
0
LINE
8
FRONT
10
0.080606
20
1.165626
30
0.0
11
0.081664
21
1.169213
31
0.0
0
LINE
8
FRONT
10
0.081664
20
1.169213
30
0.0
11
0.082811
21
1.172773
31
0.0
0
LINE
8
FRONT
10
0.082811
20
1.172773
30
0.0
11
0.084046
21
1.176303
31
0.0
0
LINE
8
FRONT
10
0.084046
20
1.176303
30
0.0
11
0.085369
21
1.179801
31
0.0
0
LINE
8
FRONT
10
0.085369
20
1.179801
30
0.0
11
0.086779
21
1.183265
31
0.0
0
LINE
8
FRONT
10
0.086779
20
1.183265
30
0.0
11
0.088274
21
1.186693
31
0.0
0
LINE
8
FRONT
10
0.088274
20
1.186693
30
0.0
11
0.089855
21
1.190083
31
0.0
0
LINE
8
FRONT
10
0.089855
20
1.190083
30
0.0
11
0.091519
21
1.193432
31
0.0
0
LINE
8
FRONT
10
0.091519
20
1.193432
30
0.0
11
0.093267
21
1.196738
31
0.0
0
LINE
8
FRONT
10
0.093267
20
1.196738
30
0.0
11
0.095096
21
1.200000
31
0.0
0
LINE
8
FRONT
10
0.095096
20
1.200000
30
0.0
11
0.097006
21
1.203215
31
0.0
0
LINE
8
FRONT
10
0.097006
20
1.203215
30
0.0
11
0.098996
21
1.206382
31
0.0
0
LINE
8
FRONT
10
0.098996
20
1.206382
30
0.0
11
0.101064
21
1.209498
31
0.0
0
LINE
8
FRONT
10
0.101064
20
1.209498
30
0.0
11
0.103209
21
1.212562
31
0.0
0
LINE
8
FRONT
10
0.103209
20
1.212562
30
0.0
11
0.105430
21
1.215571
31
0.0
0
LINE
8
FRONT
10
0.105430
20
1.215571
30
0.0
11
0.107725
21
1.218523
31
0.0
0
LINE
8
FRONT
10
0.107725
20
1.218523
30
0.0
11
0.110093
21
1.221418
31
0.0
0
LINE
8
FRONT
10
0.110093
20
1.221418
30
0.0
11
0.112533
21
1.224253
31
0.0
0
LINE
8
FRONT
10
0.112533
20
1.224253
30
0.0
11
0.115042
21
1.227026
31
0.0
0
LINE
8
FRONT
10
0.115042
20
1.227026
30
0.0
11
0.117620
21
1.229736
31
0.0
0
LINE
8
FRONT
10
0.117620
20
1.229736
30
0.0
11
0.120264
21
1.232380
31
0.0
0
LINE
8
FRONT
10
0.120264
20
1.232380
30
0.0
11
0.122974
21
1.234958
31
0.0
0
LINE
8
FRONT
10
0.122974
20
1.234958
30
0.0
11
0.125747
21
1.237467
31
0.0
0
LINE
8
FRONT
10
0.125747
20
1.237467
30
0.0
11
0.128582
21
1.239907
31
0.0
0
LINE
8
FRONT
10
0.128582
20
1.239907
30
0.0
11
0.131477
21
1.242275
31
0.0
0
LINE
8
FRONT
10
0.131477
20
1.242275
30
0.0
11
0.134429
21
1.244570
31
0.0
0
LINE
8
FRONT
10
0.134429
20
1.244570
30
0.0
11
0.137438
21
1.246791
31
0.0
0
LINE
8
FRONT
10
0.137438
20
1.246791
30
0.0
11
0.140502
21
1.248936
31
0.0
0
LINE
8
FRONT
10
0.140502
20
1.248936
30
0.0
11
0.143618
21
1.251004
31
0.0
0
LINE
8
FRONT
10
0.143618
20
1.251004
30
0.0
11
0.146785
21
1.252994
31
0.0
0
LINE
8
FRONT
10
0.146785
20
1.252994
30
0.0
11
0.150000
21
1.254904
31
0.0
0
LINE
8
FRONT
10
0.150000
20
1.254904
30
0.0
11
0.153262
21
1.256733
31
0.0
0
LINE
8
FRONT
10
0.153262
20
1.256733
30
0.0
11
0.156568
21
1.258481
31
0.0
0
LINE
8
FRONT
10
0.156568
20
1.258481
30
0.0
11
0.159917
21
1.260145
31
0.0
0
LINE
8
FRONT
10
0.159917
20
1.260145
30
0.0
11
0.163307
21
1.261726
31
0.0
0
LINE
8
FRONT
10
0.163307
20
1.261726
30
0.0
11
0.166735
21
1.263221
31
0.0
0
LINE
8
FRONT
10
0.166735
20
1.263221
30
0.0
11
0.170199
21
1.264631
31
0.0
0
LINE
8
FRONT
10
0.170199
20
1.264631
30
0.0
11
0.173697
21
1.265954
31
0.0
0
LINE
8
FRONT
10
0.173697
20
1.265954
30
0.0
11
0.177227
21
1.267189
31
0.0
0
LINE
8
FRONT
10
0.177227
20
1.267189
30
0.0
11
0.180787
21
1.268336
31
0.0
0
LINE
8
FRONT
10
0.180787
20
1.268336
30
0.0
11
0.184374
21
1.269394
31
0.0
0
LINE
8
FRONT
10
0.184374
20
1.269394
30
0.0
11
0.187986
21
1.270362
31
0.0
0
LINE
8
FRONT
10
0.187986
20
1.270362
30
0.0
11
0.191622
21
1.271239
31
0.0
0
LINE
8
FRONT
10
0.191622
20
1.271239
30
0.0
11
0.195278
21
1.272026
31
0.0
0
LINE
8
FRONT
10
0.195278
20
1.272026
30
0.0
11
0.198953
21
1.272721
31
0.0
0
LINE
8
FRONT
10
0.198953
20
1.272721
30
0.0
11
0.202644
21
1.273325
31
0.0
0
LINE
8
FRONT
10
0.202644
20
1.273325
30
0.0
11
0.206348
21
1.273836
31
0.0
0
LINE
8
FRONT
10
0.206348
20
1.273836
30
0.0
11
0.210065
21
1.274255
31
0.0
0
LINE
8
FRONT
10
0.210065
20
1.274255
30
0.0
11
0.213790
21
1.274581
31
0.0
0
LINE
8
FRONT
10
0.213790
20
1.274581
30
0.0
11
0.217523
21
1.274814
31
0.0
0
LINE
8
FRONT
10
0.217523
20
1.274814
30
0.0
11
0.221260
21
1.274953
31
0.0
0
LINE
8
FRONT
10
0.221260
20
1.274953
30
0.0
11
0.225000
21
1.275000
31
0.0
0
LINE
8
FRONT
10
0.450000
20
1.350000
30
0.0
11
0.225000
21
1.350000
31
0.0
0
LINE
8
FRONT
10
0.000000
20
1.350000
30
0.0
11
0.000000
21
1.125000
31
0.0
0
LINE
8
FRONT
10
0.225000
20
1.350000
30
0.0
11
0.000000
21
1.350000
31
0.0
0
LINE
8
FRONT_HID
6
HIDDEN
10
0.225000
20
1.013210
30
0.0
11
0.227991
21
1.012913
31
0.0
0
LINE
8
FRONT_HID
6
HIDDEN
10
0.227991
20
1.012913
30
0.0
11
0.230989
21
1.012696
31
0.0
0
LINE
8
FRONT_HID
6
HIDDEN
10
0.230989
20
1.012696
30
0.0
11
0.233991
21
1.012559
31
0.0
0
LINE
8
FRONT_HID
6
HIDDEN
10
0.233991
20
1.012559
30
0.0
11
0.236996
21
1.012502
31
0.0
0
LINE
8
FRONT_HID
6
HIDDEN
10
0.236996
20
1.012502
30
0.0
11
0.240002
21
1.012525
31
0.0
0
LINE
8
FRONT_HID
6
HIDDEN
10
0.240002
20
1.012525
30
0.0
11
0.243006
21
1.012629
31
0.0
0
LINE
8
FRONT_HID
6
HIDDEN
10
0.243006
20
1.012629
30
0.0
11
0.246006
21
1.012813
31
0.0
0
LINE
8
FRONT_HID
6
HIDDEN
10
0.246006
20
1.012813
30
0.0
11
0.249000
21
1.013077
31
0.0
0
LINE
8
FRONT_HID
6
HIDDEN
10
0.249000
20
1.013077
30
0.0
11
0.251986
21
1.013421
31
0.0
0
LINE
8
FRONT_HID
6
HIDDEN
10
0.251986
20
1.013421
30
0.0
11
0.254961
21
1.013845
31
0.0
0
LINE
8
FRONT_HID
6
HIDDEN
10
0.254961
20
1.013845
30
0.0
11
0.257925
21
1.014347
31
0.0
0
LINE
8
FRONT_HID
6
HIDDEN
10
0.257925
20
1.014347
30
0.0
11
0.260873
21
1.014929
31
0.0
0
LINE
8
FRONT_HID
6
HIDDEN
10
0.260873
20
1.014929
30
0.0
11
0.263806
21
1.015590
31
0.0
0
LINE
8
FRONT_HID
6
HIDDEN
10
0.263806
20
1.015590
30
0.0
11
0.266719
21
1.016328
31
0.0
0
LINE
8
FRONT_HID
6
HIDDEN
10
0.266719
20
1.016328
30
0.0
11
0.269612
21
1.017145
31
0.0
0
LINE
8
FRONT_HID
6
HIDDEN
10
0.269612
20
1.017145
30
0.0
11
0.272482
21
1.018038
31
0.0
0
LINE
8
FRONT_HID
6
HIDDEN
10
0.272482
20
1.018038
30
0.0
11
0.275327
21
1.019007
31
0.0
0
LINE
8
FRONT_HID
6
HIDDEN
10
0.275327
20
1.019007
30
0.0
11
0.278145
21
1.020052
31
0.0
0
LINE
8
FRONT_HID
6
HIDDEN
10
0.278145
20
1.020052
30
0.0
11
0.280934
21
1.021172
31
0.0
0
LINE
8
FRONT_HID
6
HIDDEN
10
0.280934
20
1.021172
30
0.0
11
0.283692
21
1.022367
31
0.0
0
LINE
8
FRONT_HID
6
HIDDEN
10
0.283692
20
1.022367
30
0.0
11
0.286417
21
1.023634
31
0.0
0
LINE
8
FRONT_HID
6
HIDDEN
10
0.286417
20
1.023634
30
0.0
11
0.289108
21
1.024974
31
0.0
0
LINE
8
FRONT_HID
6
HIDDEN
10
0.289108
20
1.024974
30
0.0
11
0.291762
21
1.026385
31
0.0
0
LINE
8
FRONT_HID
6
HIDDEN
10
0.291762
20
1.026385
30
0.0
11
0.294377
21
1.027866
31
0.0
0
LINE
8
FRONT_HID
6
HIDDEN
10
0.294377
20
1.027866
30
0.0
11
0.296952
21
1.029417
31
0.0
0
LINE
8
FRONT_HID
6
HIDDEN
10
0.296952
20
1.029417
30
0.0
11
0.299484
21
1.031036
31
0.0
0
LINE
8
FRONT_HID
6
HIDDEN
10
0.299484
20
1.031036
30
0.0
11
0.301972
21
1.032723
31
0.0
0
LINE
8
FRONT_HID
6
HIDDEN
10
0.301972
20
1.032723
30
0.0
11
0.304414
21
1.034475
31
0.0
0
LINE
8
FRONT_HID
6
HIDDEN
10
0.304414
20
1.034475
30
0.0
11
0.306809
21
1.036291
31
0.0
0
LINE
8
FRONT_HID
6
HIDDEN
10
0.306809
20
1.036291
30
0.0
11
0.309154
21
1.038171
31
0.0
0
LINE
8
FRONT_HID
6
HIDDEN
10
0.309154
20
1.038171
30
0.0
11
0.311448
21
1.040113
31
0.0
0
LINE
8
FRONT_HID
6
HIDDEN
10
0.311448
20
1.040113
30
0.0
11
0.313689
21
1.042116
31
0.0
0
LINE
8
FRONT_HID
6
HIDDEN
10
0.313689
20
1.042116
30
0.0
11
0.315876
21
1.044178
31
0.0
0
LINE
8
FRONT_HID
6
HIDDEN
10
0.315876
20
1.044178
30
0.0
11
0.318007
21
1.046297
31
0.0
0
LINE
8
FRONT_HID
6
HIDDEN
10
0.318007
20
1.046297
30
0.0
11
0.320081
21
1.048473
31
0.0
0
LINE
8
FRONT_HID
6
HIDDEN
10
0.320081
20
1.048473
30
0.0
11
0.322096
21
1.050703
31
0.0
0
LINE
8
FRONT_HID
6
HIDDEN
10
0.322096
20
1.050703
30
0.0
11
0.324051
21
1.052986
31
0.0
0
LINE
8
FRONT_HID
6
HIDDEN
10
0.324051
20
1.052986
30
0.0
11
0.325944
21
1.055321
31
0.0
0
LINE
8
FRONT_HID
6
HIDDEN
10
0.325944
20
1.055321
30
0.0
11
0.327774
21
1.057705
31
0.0
0
LINE
8
FRONT_HID
6
HIDDEN
10
0.327774
20
1.057705
30
0.0
11
0.329539
21
1.060138
31
0.0
0
LINE
8
FRONT_HID
6
HIDDEN
10
0.329539
20
1.060138
30
0.0
11
0.331239
21
1.062616
31
0.0
0
LINE
8
FRONT_HID
6
HIDDEN
10
0.331239
20
1.062616
30
0.0
11
0.332872
21
1.065140
31
0.0
0
LINE
8
FRONT_HID
6
HIDDEN
10
0.332872
20
1.065140
30
0.0
11
0.334437
21
1.067705
31
0.0
0
LINE
8
FRONT_HID
6
HIDDEN
10
0.334437
20
1.067705
30
0.0
11
0.335934
21
1.070312
31
0.0
0
LINE
8
FRONT_HID
6
HIDDEN
10
0.335934
20
1.070312
30
0.0
11
0.337359
21
1.072958
31
0.0
0
LINE
8
FRONT_HID
6
HIDDEN
10
0.337359
20
1.072958
30
0.0
11
0.338714
21
1.075641
31
0.0
0
LINE
8
FRONT_HID
6
HIDDEN
10
0.338714
20
1.075641
30
0.0
11
0.339997
21
1.078360
31
0.0
0
LINE
8
FRONT_HID
6
HIDDEN
10
0.339997
20
1.078360
30
0.0
11
0.341206
21
1.081111
31
0.0
0
LINE
8
FRONT_HID
6
HIDDEN
10
0.341206
20
1.081111
30
0.0
11
0.342342
21
1.083894
31
0.0
0
LINE
8
FRONT_HID
6
HIDDEN
10
0.342342
20
1.083894
30
0.0
11
0.343402
21
1.086706
31
0.0
0
LINE
8
FRONT_HID
6
HIDDEN
10
0.343402
20
1.086706
30
0.0
11
0.344388
21
1.089546
31
0.0
0
LINE
8
FRONT_HID
6
HIDDEN
10
0.344388
20
1.089546
30
0.0
11
0.345297
21
1.092411
31
0.0
0
LINE
8
FRONT_HID
6
HIDDEN
10
0.345297
20
1.092411
30
0.0
11
0.346129
21
1.095299
31
0.0
0
LINE
8
FRONT_HID
6
HIDDEN
10
0.346129
20
1.095299
30
0.0
11
0.346883
21
1.098208
31
0.0
0
LINE
8
FRONT_HID
6
HIDDEN
10
0.346883
20
1.098208
30
0.0
11
0.347560
21
1.101137
31
0.0
0
LINE
8
FRONT_HID
6
HIDDEN
10
0.347560
20
1.101137
30
0.0
11
0.348158
21
1.104082
31
0.0
0
LINE
8
FRONT_HID
6
HIDDEN
10
0.348158
20
1.104082
30
0.0
11
0.348678
21
1.107043
31
0.0
0
LINE
8
FRONT_HID
6
HIDDEN
10
0.348678
20
1.107043
30
0.0
11
0.349118
21
1.110016
31
0.0
0
LINE
8
FRONT_HID
6
HIDDEN
10
0.349118
20
1.110016
30
0.0
11
0.349478
21
1.113000
31
0.0
0
LINE
8
FRONT_HID
6
HIDDEN
10
0.349478
20
1.113000
30
0.0
11
0.349759
21
1.115992
31
0.0
0
LINE
8
FRONT_HID
6
HIDDEN
10
0.349759
20
1.115992
30
0.0
11
0.349960
21
1.118991
31
0.0
0
LINE
8
FRONT_HID
6
HIDDEN
10
0.349960
20
1.118991
30
0.0
11
0.350080
21
1.121995
31
0.0
0
LINE
8
FRONT_HID
6
HIDDEN
10
0.350080
20
1.121995
30
0.0
11
0.350120
21
1.125000
31
0.0
0
LINE
8
FRONT_HID
6
HIDDEN
10
0.125120
20
1.125000
30
0.0
11
0.125150
21
1.122396
31
0.0
0
LINE
8
FRONT_HID
6
HIDDEN
10
0.125150
20
1.122396
30
0.0
11
0.125241
21
1.119793
31
0.0
0
LINE
8
FRONT_HID
6
HIDDEN
10
0.125241
20
1.119793
30
0.0
11
0.125391
21
1.117194
31
0.0
0
LINE
8
FRONT_HID
6
HIDDEN
10
0.125391
20
1.117194
30
0.0
11
0.125602
21
1.114598
31
0.0
0
LINE
8
FRONT_HID
6
HIDDEN
10
0.125602
20
1.114598
30
0.0
11
0.125873
21
1.112008
31
0.0
0
LINE
8
FRONT_HID
6
HIDDEN
10
0.125873
20
1.112008
30
0.0
11
0.126204
21
1.109425
31
0.0
0
LINE
8
FRONT_HID
6
HIDDEN
10
0.126204
20
1.109425
30
0.0
11
0.126594
21
1.106850
31
0.0
0
LINE
8
FRONT_HID
6
HIDDEN
10
0.126594
20
1.106850
30
0.0
11
0.127044
21
1.104285
31
0.0
0
LINE
8
FRONT_HID
6
HIDDEN
10
0.127044
20
1.104285
30
0.0
11
0.127553
21
1.101731
31
0.0
0
LINE
8
FRONT_HID
6
HIDDEN
10
0.127553
20
1.101731
30
0.0
11
0.128121
21
1.099189
31
0.0
0
LINE
8
FRONT_HID
6
HIDDEN
10
0.128121
20
1.099189
30
0.0
11
0.128748
21
1.096662
31
0.0
0
LINE
8
FRONT_HID
6
HIDDEN
10
0.128748
20
1.096662
30
0.0
11
0.129433
21
1.094149
31
0.0
0
LINE
8
FRONT_HID
6
HIDDEN
10
0.129433
20
1.094149
30
0.0
11
0.130176
21
1.091653
31
0.0
0
LINE
8
FRONT_HID
6
HIDDEN
10
0.130176
20
1.091653
30
0.0
11
0.130977
21
1.089175
31
0.0
0
LINE
8
FRONT_HID
6
HIDDEN
10
0.130977
20
1.089175
30
0.0
11
0.131834
21
1.086717
31
0.0
0
LINE
8
FRONT_HID
6
HIDDEN
10
0.131834
20
1.086717
30
0.0
11
0.132749
21
1.084278
31
0.0
0
LINE
8
FRONT_HID
6
HIDDEN
10
0.132749
20
1.084278
30
0.0
11
0.133720
21
1.081862
31
0.0
0
LINE
8
FRONT_HID
6
HIDDEN
10
0.133720
20
1.081862
30
0.0
11
0.134746
21
1.079468
31
0.0
0
LINE
8
FRONT_HID
6
HIDDEN
10
0.134746
20
1.079468
30
0.0
11
0.135827
21
1.077099
31
0.0
0
LINE
8
FRONT_HID
6
HIDDEN
10
0.135827
20
1.077099
30
0.0
11
0.136963
21
1.074756
31
0.0
0
LINE
8
FRONT_HID
6
HIDDEN
10
0.136963
20
1.074756
30
0.0
11
0.138153
21
1.072439
31
0.0
0
LINE
8
FRONT_HID
6
HIDDEN
10
0.138153
20
1.072439
30
0.0
11
0.139397
21
1.070151
31
0.0
0
LINE
8
FRONT_HID
6
HIDDEN
10
0.139397
20
1.070151
30
0.0
11
0.140693
21
1.067892
31
0.0
0
LINE
8
FRONT_HID
6
HIDDEN
10
0.140693
20
1.067892
30
0.0
11
0.142040
21
1.065664
31
0.0
0
LINE
8
FRONT_HID
6
HIDDEN
10
0.142040
20
1.065664
30
0.0
11
0.143439
21
1.063468
31
0.0
0
LINE
8
FRONT_HID
6
HIDDEN
10
0.143439
20
1.063468
30
0.0
11
0.144889
21
1.061304
31
0.0
0
LINE
8
FRONT_HID
6
HIDDEN
10
0.144889
20
1.061304
30
0.0
11
0.146388
21
1.059175
31
0.0
0
LINE
8
FRONT_HID
6
HIDDEN
10
0.146388
20
1.059175
30
0.0
11
0.147936
21
1.057081
31
0.0
0
LINE
8
FRONT_HID
6
HIDDEN
10
0.147936
20
1.057081
30
0.0
11
0.149532
21
1.055023
31
0.0
0
LINE
8
FRONT_HID
6
HIDDEN
10
0.149532
20
1.055023
30
0.0
11
0.151176
21
1.053003
31
0.0
0
LINE
8
FRONT_HID
6
HIDDEN
10
0.151176
20
1.053003
30
0.0
11
0.152865
21
1.051021
31
0.0
0
LINE
8
FRONT_HID
6
HIDDEN
10
0.152865
20
1.051021
30
0.0
11
0.154601
21
1.049079
31
0.0
0
LINE
8
FRONT_HID
6
HIDDEN
10
0.154601
20
1.049079
30
0.0
11
0.156380
21
1.047178
31
0.0
0
LINE
8
FRONT_HID
6
HIDDEN
10
0.156380
20
1.047178
30
0.0
11
0.158203
21
1.045318
31
0.0
0
LINE
8
FRONT_HID
6
HIDDEN
10
0.158203
20
1.045318
30
0.0
11
0.160069
21
1.043501
31
0.0
0
LINE
8
FRONT_HID
6
HIDDEN
10
0.160069
20
1.043501
30
0.0
11
0.161976
21
1.041728
31
0.0
0
LINE
8
FRONT_HID
6
HIDDEN
10
0.161976
20
1.041728
30
0.0
11
0.163924
21
1.039999
31
0.0
0
LINE
8
FRONT_HID
6
HIDDEN
10
0.163924
20
1.039999
30
0.0
11
0.165911
21
1.038316
31
0.0
0
LINE
8
FRONT_HID
6
HIDDEN
10
0.165911
20
1.038316
30
0.0
11
0.167937
21
1.036680
31
0.0
0
LINE
8
FRONT_HID
6
HIDDEN
10
0.167937
20
1.036680
30
0.0
11
0.170000
21
1.035091
31
0.0
0
LINE
8
FRONT_HID
6
HIDDEN
10
0.170000
20
1.035091
30
0.0
11
0.172099
21
1.033549
31
0.0
0
LINE
8
FRONT_HID
6
HIDDEN
10
0.172099
20
1.033549
30
0.0
11
0.174233
21
1.032057
31
0.0
0
LINE
8
FRONT_HID
6
HIDDEN
10
0.174233
20
1.032057
30
0.0
11
0.176402
21
1.030615
31
0.0
0
LINE
8
FRONT_HID
6
HIDDEN
10
0.176402
20
1.030615
30
0.0
11
0.178603
21
1.029223
31
0.0
0
LINE
8
FRONT_HID
6
HIDDEN
10
0.178603
20
1.029223
30
0.0
11
0.180835
21
1.027883
31
0.0
0
LINE
8
FRONT_HID
6
HIDDEN
10
0.180835
20
1.027883
30
0.0
11
0.183099
21
1.026594
31
0.0
0
LINE
8
FRONT_HID
6
HIDDEN
10
0.183099
20
1.026594
30
0.0
11
0.185391
21
1.025359
31
0.0
0
LINE
8
FRONT_HID
6
HIDDEN
10
0.185391
20
1.025359
30
0.0
11
0.187711
21
1.024177
31
0.0
0
LINE
8
FRONT_HID
6
HIDDEN
10
0.187711
20
1.024177
30
0.0
11
0.190058
21
1.023048
31
0.0
0
LINE
8
FRONT_HID
6
HIDDEN
10
0.190058
20
1.023048
30
0.0
11
0.192431
21
1.021975
31
0.0
0
LINE
8
FRONT_HID
6
HIDDEN
10
0.192431
20
1.021975
30
0.0
11
0.194828
21
1.020956
31
0.0
0
LINE
8
FRONT_HID
6
HIDDEN
10
0.194828
20
1.020956
30
0.0
11
0.197248
21
1.019994
31
0.0
0
LINE
8
FRONT_HID
6
HIDDEN
10
0.197248
20
1.019994
30
0.0
11
0.199689
21
1.019087
31
0.0
0
LINE
8
FRONT_HID
6
HIDDEN
10
0.199689
20
1.019087
30
0.0
11
0.202151
21
1.018238
31
0.0
0
LINE
8
FRONT_HID
6
HIDDEN
10
0.202151
20
1.018238
30
0.0
11
0.204631
21
1.017445
31
0.0
0
LINE
8
FRONT_HID
6
HIDDEN
10
0.204631
20
1.017445
30
0.0
11
0.207130
21
1.016711
31
0.0
0
LINE
8
FRONT_HID
6
HIDDEN
10
0.207130
20
1.016711
30
0.0
11
0.209645
21
1.016034
31
0.0
0
LINE
8
FRONT_HID
6
HIDDEN
10
0.209645
20
1.016034
30
0.0
11
0.212174
21
1.015416
31
0.0
0
LINE
8
FRONT_HID
6
HIDDEN
10
0.212174
20
1.015416
30
0.0
11
0.214718
21
1.014856
31
0.0
0
LINE
8
FRONT_HID
6
HIDDEN
10
0.214718
20
1.014856
30
0.0
11
0.217273
21
1.014355
31
0.0
0
LINE
8
FRONT_HID
6
HIDDEN
10
0.217273
20
1.014355
30
0.0
11
0.219840
21
1.013914
31
0.0
0
LINE
8
FRONT_HID
6
HIDDEN
10
0.219840
20
1.013914
30
0.0
11
0.222416
21
1.013532
31
0.0
0
LINE
8
FRONT_HID
6
HIDDEN
10
0.222416
20
1.013532
30
0.0
11
0.225000
21
1.013210
31
0.0
0
LINE
8
FRONT_HID
6
HIDDEN
10
0.375000
20
1.125000
30
0.0
11
0.374255
21
1.110065
31
0.0
0
LINE
8
FRONT_HID
6
HIDDEN
10
0.374255
20
1.110065
30
0.0
11
0.372026
21
1.095278
31
0.0
0
LINE
8
FRONT_HID
6
HIDDEN
10
0.372026
20
1.095278
30
0.0
11
0.368336
21
1.080787
31
0.0
0
LINE
8
FRONT_HID
6
HIDDEN
10
0.368336
20
1.080787
30
0.0
11
0.363221
21
1.066735
31
0.0
0
LINE
8
FRONT_HID
6
HIDDEN
10
0.363221
20
1.066735
30
0.0
11
0.356733
21
1.053262
31
0.0
0
LINE
8
FRONT_HID
6
HIDDEN
10
0.356733
20
1.053262
30
0.0
11
0.348936
21
1.040502
31
0.0
0
LINE
8
FRONT_HID
6
HIDDEN
10
0.348936
20
1.040502
30
0.0
11
0.339907
21
1.028582
31
0.0
0
LINE
8
FRONT_HID
6
HIDDEN
10
0.339907
20
1.028582
30
0.0
11
0.329736
21
1.017620
31
0.0
0
LINE
8
FRONT_HID
6
HIDDEN
10
0.329736
20
1.017620
30
0.0
11
0.318523
21
1.007725
31
0.0
0
LINE
8
FRONT_HID
6
HIDDEN
10
0.318523
20
1.007725
30
0.0
11
0.306382
21
0.998996
31
0.0
0
LINE
8
FRONT_HID
6
HIDDEN
10
0.306382
20
0.998996
30
0.0
11
0.293432
21
0.991519
31
0.0
0
LINE
8
FRONT_HID
6
HIDDEN
10
0.293432
20
0.991519
30
0.0
11
0.279801
21
0.985369
31
0.0
0
LINE
8
FRONT_HID
6
HIDDEN
10
0.279801
20
0.985369
30
0.0
11
0.265626
21
0.980606
31
0.0
0
LINE
8
FRONT_HID
6
HIDDEN
10
0.265626
20
0.980606
30
0.0
11
0.251047
21
0.977279
31
0.0
0
LINE
8
FRONT_HID
6
HIDDEN
10
0.251047
20
0.977279
30
0.0
11
0.236210
21
0.975419
31
0.0
0
LINE
8
FRONT_HID
6
HIDDEN
10
0.236210
20
0.975419
30
0.0
11
0.221260
21
0.975047
31
0.0
0
LINE
8
FRONT_HID
6
HIDDEN
10
0.221260
20
0.975047
30
0.0
11
0.206348
21
0.976164
31
0.0
0
LINE
8
FRONT_HID
6
HIDDEN
10
0.206348
20
0.976164
30
0.0
11
0.191622
21
0.978761
31
0.0
0
LINE
8
FRONT_HID
6
HIDDEN
10
0.191622
20
0.978761
30
0.0
11
0.177227
21
0.982811
31
0.0
0
LINE
8
FRONT_HID
6
HIDDEN
10
0.177227
20
0.982811
30
0.0
11
0.163307
21
0.988274
31
0.0
0
LINE
8
FRONT_HID
6
HIDDEN
10
0.163307
20
0.988274
30
0.0
11
0.150000
21
0.995096
31
0.0
0
LINE
8
FRONT_HID
6
HIDDEN
10
0.150000
20
0.995096
30
0.0
11
0.137438
21
1.003209
31
0.0
0
LINE
8
FRONT_HID
6
HIDDEN
10
0.137438
20
1.003209
30
0.0
11
0.125747
21
1.012533
31
0.0
0
LINE
8
FRONT_HID
6
HIDDEN
10
0.125747
20
1.012533
30
0.0
11
0.115042
21
1.022974
31
0.0
0
LINE
8
FRONT_HID
6
HIDDEN
10
0.115042
20
1.022974
30
0.0
11
0.105430
21
1.034429
31
0.0
0
LINE
8
FRONT_HID
6
HIDDEN
10
0.105430
20
1.034429
30
0.0
11
0.097006
21
1.046785
31
0.0
0
LINE
8
FRONT_HID
6
HIDDEN
10
0.097006
20
1.046785
30
0.0
11
0.089855
21
1.059917
31
0.0
0
LINE
8
FRONT_HID
6
HIDDEN
10
0.089855
20
1.059917
30
0.0
11
0.084046
21
1.073697
31
0.0
0
LINE
8
FRONT_HID
6
HIDDEN
10
0.084046
20
1.073697
30
0.0
11
0.079638
21
1.087986
31
0.0
0
LINE
8
FRONT_HID
6
HIDDEN
10
0.079638
20
1.087986
30
0.0
11
0.076675
21
1.102644
31
0.0
0
LINE
8
FRONT_HID
6
HIDDEN
10
0.076675
20
1.102644
30
0.0
11
0.075186
21
1.117523
31
0.0
0
LINE
8
FRONT_HID
6
HIDDEN
10
0.075186
20
1.117523
30
0.0
11
0.075186
21
1.132477
31
0.0
0
LINE
8
FRONT_HID
6
HIDDEN
10
0.075186
20
1.132477
30
0.0
11
0.076675
21
1.147356
31
0.0
0
LINE
8
FRONT_HID
6
HIDDEN
10
0.076675
20
1.147356
30
0.0
11
0.079638
21
1.162014
31
0.0
0
LINE
8
FRONT_HID
6
HIDDEN
10
0.079638
20
1.162014
30
0.0
11
0.084046
21
1.176303
31
0.0
0
LINE
8
FRONT_HID
6
HIDDEN
10
0.084046
20
1.176303
30
0.0
11
0.089855
21
1.190083
31
0.0
0
LINE
8
FRONT_HID
6
HIDDEN
10
0.089855
20
1.190083
30
0.0
11
0.097006
21
1.203215
31
0.0
0
LINE
8
FRONT_HID
6
HIDDEN
10
0.097006
20
1.203215
30
0.0
11
0.105430
21
1.215571
31
0.0
0
LINE
8
FRONT_HID
6
HIDDEN
10
0.105430
20
1.215571
30
0.0
11
0.115042
21
1.227026
31
0.0
0
LINE
8
FRONT_HID
6
HIDDEN
10
0.115042
20
1.227026
30
0.0
11
0.125747
21
1.237467
31
0.0
0
LINE
8
FRONT_HID
6
HIDDEN
10
0.125747
20
1.237467
30
0.0
11
0.137438
21
1.246791
31
0.0
0
LINE
8
FRONT_HID
6
HIDDEN
10
0.137438
20
1.246791
30
0.0
11
0.150000
21
1.254904
31
0.0
0
LINE
8
FRONT_HID
6
HIDDEN
10
0.150000
20
1.254904
30
0.0
11
0.163307
21
1.261726
31
0.0
0
LINE
8
FRONT_HID
6
HIDDEN
10
0.163307
20
1.261726
30
0.0
11
0.177227
21
1.267189
31
0.0
0
LINE
8
FRONT_HID
6
HIDDEN
10
0.177227
20
1.267189
30
0.0
11
0.191622
21
1.271239
31
0.0
0
LINE
8
FRONT_HID
6
HIDDEN
10
0.191622
20
1.271239
30
0.0
11
0.206348
21
1.273836
31
0.0
0
LINE
8
FRONT_HID
6
HIDDEN
10
0.206348
20
1.273836
30
0.0
11
0.221260
21
1.274953
31
0.0
0
LINE
8
FRONT_HID
6
HIDDEN
10
0.221260
20
1.274953
30
0.0
11
0.236210
21
1.274581
31
0.0
0
LINE
8
FRONT_HID
6
HIDDEN
10
0.236210
20
1.274581
30
0.0
11
0.251047
21
1.272721
31
0.0
0
LINE
8
FRONT_HID
6
HIDDEN
10
0.251047
20
1.272721
30
0.0
11
0.265626
21
1.269394
31
0.0
0
LINE
8
FRONT_HID
6
HIDDEN
10
0.265626
20
1.269394
30
0.0
11
0.279801
21
1.264631
31
0.0
0
LINE
8
FRONT_HID
6
HIDDEN
10
0.279801
20
1.264631
30
0.0
11
0.293432
21
1.258481
31
0.0
0
LINE
8
FRONT_HID
6
HIDDEN
10
0.293432
20
1.258481
30
0.0
11
0.306382
21
1.251004
31
0.0
0
LINE
8
FRONT_HID
6
HIDDEN
10
0.306382
20
1.251004
30
0.0
11
0.318523
21
1.242275
31
0.0
0
LINE
8
FRONT_HID
6
HIDDEN
10
0.318523
20
1.242275
30
0.0
11
0.329736
21
1.232380
31
0.0
0
LINE
8
FRONT_HID
6
HIDDEN
10
0.329736
20
1.232380
30
0.0
11
0.339907
21
1.221418
31
0.0
0
LINE
8
FRONT_HID
6
HIDDEN
10
0.339907
20
1.221418
30
0.0
11
0.348936
21
1.209498
31
0.0
0
LINE
8
FRONT_HID
6
HIDDEN
10
0.348936
20
1.209498
30
0.0
11
0.356733
21
1.196738
31
0.0
0
LINE
8
FRONT_HID
6
HIDDEN
10
0.356733
20
1.196738
30
0.0
11
0.363221
21
1.183265
31
0.0
0
LINE
8
FRONT_HID
6
HIDDEN
10
0.363221
20
1.183265
30
0.0
11
0.368336
21
1.169213
31
0.0
0
LINE
8
FRONT_HID
6
HIDDEN
10
0.368336
20
1.169213
30
0.0
11
0.372026
21
1.154722
31
0.0
0
LINE
8
FRONT_HID
6
HIDDEN
10
0.372026
20
1.154722
30
0.0
11
0.374255
21
1.139935
31
0.0
0
LINE
8
FRONT_HID
6
HIDDEN
10
0.374255
20
1.139935
30
0.0
11
0.375000
21
1.125000
31
0.0
0
LINE
8
FRONT_HID
6
HIDDEN
10
0.125120
20
1.125000
30
0.0
11
0.125679
21
1.113799
31
0.0
0
LINE
8
FRONT_HID
6
HIDDEN
10
0.125679
20
1.113799
30
0.0
11
0.127351
21
1.102709
31
0.0
0
LINE
8
FRONT_HID
6
HIDDEN
10
0.127351
20
1.102709
30
0.0
11
0.130118
21
1.091840
31
0.0
0
LINE
8
FRONT_HID
6
HIDDEN
10
0.130118
20
1.091840
30
0.0
11
0.133954
21
1.081301
31
0.0
0
LINE
8
FRONT_HID
6
HIDDEN
10
0.133954
20
1.081301
30
0.0
11
0.138820
21
1.071196
31
0.0
0
LINE
8
FRONT_HID
6
HIDDEN
10
0.138820
20
1.071196
30
0.0
11
0.144668
21
1.061626
31
0.0
0
LINE
8
FRONT_HID
6
HIDDEN
10
0.144668
20
1.061626
30
0.0
11
0.151440
21
1.052686
31
0.0
0
LINE
8
FRONT_HID
6
HIDDEN
10
0.151440
20
1.052686
30
0.0
11
0.159069
21
1.044465
31
0.0
0
LINE
8
FRONT_HID
6
HIDDEN
10
0.159069
20
1.044465
30
0.0
11
0.167478
21
1.037044
31
0.0
0
LINE
8
FRONT_HID
6
HIDDEN
10
0.167478
20
1.037044
30
0.0
11
0.176584
21
1.030497
31
0.0
0
LINE
8
FRONT_HID
6
HIDDEN
10
0.176584
20
1.030497
30
0.0
11
0.186296
21
1.024889
31
0.0
0
LINE
8
FRONT_HID
6
HIDDEN
10
0.186296
20
1.024889
30
0.0
11
0.196519
21
1.020277
31
0.0
0
LINE
8
FRONT_HID
6
HIDDEN
10
0.196519
20
1.020277
30
0.0
11
0.207151
21
1.016705
31
0.0
0
LINE
8
FRONT_HID
6
HIDDEN
10
0.207151
20
1.016705
30
0.0
11
0.218085
21
1.014209
31
0.0
0
LINE
8
FRONT_HID
6
HIDDEN
10
0.218085
20
1.014209
30
0.0
11
0.229213
21
1.012815
31
0.0
0
LINE
8
FRONT_HID
6
HIDDEN
10
0.229213
20
1.012815
30
0.0
11
0.240425
21
1.012535
31
0.0
0
LINE
8
FRONT_HID
6
HIDDEN
10
0.240425
20
1.012535
30
0.0
11
0.251609
21
1.013373
31
0.0
0
LINE
8
FRONT_HID
6
HIDDEN
10
0.251609
20
1.013373
30
0.0
11
0.262654
21
1.015321
31
0.0
0
LINE
8
FRONT_HID
6
HIDDEN
10
0.262654
20
1.015321
30
0.0
11
0.273450
21
1.018358
31
0.0
0
LINE
8
FRONT_HID
6
HIDDEN
10
0.273450
20
1.018358
30
0.0
11
0.283890
21
1.022456
31
0.0
0
LINE
8
FRONT_HID
6
HIDDEN
10
0.283890
20
1.022456
30
0.0
11
0.293870
21
1.027572
31
0.0
0
LINE
8
FRONT_HID
6
HIDDEN
10
0.293870
20
1.027572
30
0.0
11
0.303291
21
1.033657
31
0.0
0
LINE
8
FRONT_HID
6
HIDDEN
10
0.303291
20
1.033657
30
0.0
11
0.312060
21
1.040650
31
0.0
0
LINE
8
FRONT_HID
6
HIDDEN
10
0.312060
20
1.040650
30
0.0
11
0.320089
21
1.048481
31
0.0
0
LINE
8
FRONT_HID
6
HIDDEN
10
0.320089
20
1.048481
30
0.0
11
0.327298
21
1.057072
31
0.0
0
LINE
8
FRONT_HID
6
HIDDEN
10
0.327298
20
1.057072
30
0.0
11
0.333615
21
1.066339
31
0.0
0
LINE
8
FRONT_HID
6
HIDDEN
10
0.333615
20
1.066339
30
0.0
11
0.338979
21
1.076188
31
0.0
0
LINE
8
FRONT_HID
6
HIDDEN
10
0.338979
20
1.076188
30
0.0
11
0.343336
21
1.086523
31
0.0
0
LINE
8
FRONT_HID
6
HIDDEN
10
0.343336
20
1.086523
30
0.0
11
0.346641
21
1.097240
31
0.0
0
LINE
8
FRONT_HID
6
HIDDEN
10
0.346641
20
1.097240
30
0.0
11
0.348864
21
1.108233
31
0.0
0
LINE
8
FRONT_HID
6
HIDDEN
10
0.348864
20
1.108233
30
0.0
11
0.349980
21
1.119392
31
0.0
0
LINE
8
FRONT_HID
6
HIDDEN
10
0.349980
20
1.119392
30
0.0
11
0.349980
21
1.130608
31
0.0
0
LINE
8
FRONT_HID
6
HIDDEN
10
0.349980
20
1.130608
30
0.0
11
0.348864
21
1.141767
31
0.0
0
LINE
8
FRONT_HID
6
HIDDEN
10
0.348864
20
1.141767
30
0.0
11
0.346641
21
1.152760
31
0.0
0
LINE
8
FRONT_HID
6
HIDDEN
10
0.346641
20
1.152760
30
0.0
11
0.343336
21
1.163477
31
0.0
0
LINE
8
FRONT_HID
6
HIDDEN
10
0.343336
20
1.163477
30
0.0
11
0.338979
21
1.173812
31
0.0
0
LINE
8
FRONT_HID
6
HIDDEN
10
0.338979
20
1.173812
30
0.0
11
0.333615
21
1.183661
31
0.0
0
LINE
8
FRONT_HID
6
HIDDEN
10
0.333615
20
1.183661
30
0.0
11
0.327298
21
1.192928
31
0.0
0
LINE
8
FRONT_HID
6
HIDDEN
10
0.327298
20
1.192928
30
0.0
11
0.320089
21
1.201519
31
0.0
0
LINE
8
FRONT_HID
6
HIDDEN
10
0.320089
20
1.201519
30
0.0
11
0.312060
21
1.209350
31
0.0
0
LINE
8
FRONT_HID
6
HIDDEN
10
0.312060
20
1.209350
30
0.0
11
0.303291
21
1.216343
31
0.0
0
LINE
8
FRONT_HID
6
HIDDEN
10
0.303291
20
1.216343
30
0.0
11
0.293870
21
1.222428
31
0.0
0
LINE
8
FRONT_HID
6
HIDDEN
10
0.293870
20
1.222428
30
0.0
11
0.283890
21
1.227544
31
0.0
0
LINE
8
FRONT_HID
6
HIDDEN
10
0.283890
20
1.227544
30
0.0
11
0.273450
21
1.231642
31
0.0
0
LINE
8
FRONT_HID
6
HIDDEN
10
0.273450
20
1.231642
30
0.0
11
0.262654
21
1.234679
31
0.0
0
LINE
8
FRONT_HID
6
HIDDEN
10
0.262654
20
1.234679
30
0.0
11
0.251609
21
1.236627
31
0.0
0
LINE
8
FRONT_HID
6
HIDDEN
10
0.251609
20
1.236627
30
0.0
11
0.240425
21
1.237465
31
0.0
0
LINE
8
FRONT_HID
6
HIDDEN
10
0.240425
20
1.237465
30
0.0
11
0.229213
21
1.237185
31
0.0
0
LINE
8
FRONT_HID
6
HIDDEN
10
0.229213
20
1.237185
30
0.0
11
0.218085
21
1.235791
31
0.0
0
LINE
8
FRONT_HID
6
HIDDEN
10
0.218085
20
1.235791
30
0.0
11
0.207151
21
1.233295
31
0.0
0
LINE
8
FRONT_HID
6
HIDDEN
10
0.207151
20
1.233295
30
0.0
11
0.196519
21
1.229723
31
0.0
0
LINE
8
FRONT_HID
6
HIDDEN
10
0.196519
20
1.229723
30
0.0
11
0.186296
21
1.225111
31
0.0
0
LINE
8
FRONT_HID
6
HIDDEN
10
0.186296
20
1.225111
30
0.0
11
0.176584
21
1.219503
31
0.0
0
LINE
8
FRONT_HID
6
HIDDEN
10
0.176584
20
1.219503
30
0.0
11
0.167478
21
1.212956
31
0.0
0
LINE
8
FRONT_HID
6
HIDDEN
10
0.167478
20
1.212956
30
0.0
11
0.159069
21
1.205535
31
0.0
0
LINE
8
FRONT_HID
6
HIDDEN
10
0.159069
20
1.205535
30
0.0
11
0.151440
21
1.197314
31
0.0
0
LINE
8
FRONT_HID
6
HIDDEN
10
0.151440
20
1.197314
30
0.0
11
0.144668
21
1.188374
31
0.0
0
LINE
8
FRONT_HID
6
HIDDEN
10
0.144668
20
1.188374
30
0.0
11
0.138820
21
1.178804
31
0.0
0
LINE
8
FRONT_HID
6
HIDDEN
10
0.138820
20
1.178804
30
0.0
11
0.133954
21
1.168699
31
0.0
0
LINE
8
FRONT_HID
6
HIDDEN
10
0.133954
20
1.168699
30
0.0
11
0.130118
21
1.158160
31
0.0
0
LINE
8
FRONT_HID
6
HIDDEN
10
0.130118
20
1.158160
30
0.0
11
0.127351
21
1.147291
31
0.0
0
LINE
8
FRONT_HID
6
HIDDEN
10
0.127351
20
1.147291
30
0.0
11
0.125679
21
1.136201
31
0.0
0
LINE
8
FRONT_HID
6
HIDDEN
10
0.125679
20
1.136201
30
0.0
11
0.125120
21
1.125000
31
0.0
0
LINE
8
FRONT_HID
6
HIDDEN
10
0.225000
20
1.236790
30
0.0
11
0.222416
21
1.236468
31
0.0
0
LINE
8
FRONT_HID
6
HIDDEN
10
0.222416
20
1.236468
30
0.0
11
0.219840
21
1.236086
31
0.0
0
LINE
8
FRONT_HID
6
HIDDEN
10
0.219840
20
1.236086
30
0.0
11
0.217273
21
1.235645
31
0.0
0
LINE
8
FRONT_HID
6
HIDDEN
10
0.217273
20
1.235645
30
0.0
11
0.214718
21
1.235144
31
0.0
0
LINE
8
FRONT_HID
6
HIDDEN
10
0.214718
20
1.235144
30
0.0
11
0.212174
21
1.234584
31
0.0
0
LINE
8
FRONT_HID
6
HIDDEN
10
0.212174
20
1.234584
30
0.0
11
0.209645
21
1.233966
31
0.0
0
LINE
8
FRONT_HID
6
HIDDEN
10
0.209645
20
1.233966
30
0.0
11
0.207130
21
1.233289
31
0.0
0
LINE
8
FRONT_HID
6
HIDDEN
10
0.207130
20
1.233289
30
0.0
11
0.204631
21
1.232555
31
0.0
0
LINE
8
FRONT_HID
6
HIDDEN
10
0.204631
20
1.232555
30
0.0
11
0.202151
21
1.231762
31
0.0
0
LINE
8
FRONT_HID
6
HIDDEN
10
0.202151
20
1.231762
30
0.0
11
0.199689
21
1.230913
31
0.0
0
LINE
8
FRONT_HID
6
HIDDEN
10
0.199689
20
1.230913
30
0.0
11
0.197248
21
1.230006
31
0.0
0
LINE
8
FRONT_HID
6
HIDDEN
10
0.197248
20
1.230006
30
0.0
11
0.194828
21
1.229044
31
0.0
0
LINE
8
FRONT_HID
6
HIDDEN
10
0.194828
20
1.229044
30
0.0
11
0.192431
21
1.228025
31
0.0
0
LINE
8
FRONT_HID
6
HIDDEN
10
0.192431
20
1.228025
30
0.0
11
0.190058
21
1.226952
31
0.0
0
LINE
8
FRONT_HID
6
HIDDEN
10
0.190058
20
1.226952
30
0.0
11
0.187711
21
1.225823
31
0.0
0
LINE
8
FRONT_HID
6
HIDDEN
10
0.187711
20
1.225823
30
0.0
11
0.185391
21
1.224641
31
0.0
0
LINE
8
FRONT_HID
6
HIDDEN
10
0.185391
20
1.224641
30
0.0
11
0.183099
21
1.223406
31
0.0
0
LINE
8
FRONT_HID
6
HIDDEN
10
0.183099
20
1.223406
30
0.0
11
0.180835
21
1.222117
31
0.0
0
LINE
8
FRONT_HID
6
HIDDEN
10
0.180835
20
1.222117
30
0.0
11
0.178603
21
1.220777
31
0.0
0
LINE
8
FRONT_HID
6
HIDDEN
10
0.178603
20
1.220777
30
0.0
11
0.176402
21
1.219385
31
0.0
0
LINE
8
FRONT_HID
6
HIDDEN
10
0.176402
20
1.219385
30
0.0
11
0.174233
21
1.217943
31
0.0
0
LINE
8
FRONT_HID
6
HIDDEN
10
0.174233
20
1.217943
30
0.0
11
0.172099
21
1.216451
31
0.0
0
LINE
8
FRONT_HID
6
HIDDEN
10
0.172099
20
1.216451
30
0.0
11
0.170000
21
1.214909
31
0.0
0
LINE
8
FRONT_HID
6
HIDDEN
10
0.170000
20
1.214909
30
0.0
11
0.167937
21
1.213320
31
0.0
0
LINE
8
FRONT_HID
6
HIDDEN
10
0.167937
20
1.213320
30
0.0
11
0.165911
21
1.211684
31
0.0
0
LINE
8
FRONT_HID
6
HIDDEN
10
0.165911
20
1.211684
30
0.0
11
0.163924
21
1.210001
31
0.0
0
LINE
8
FRONT_HID
6
HIDDEN
10
0.163924
20
1.210001
30
0.0
11
0.161976
21
1.208272
31
0.0
0
LINE
8
FRONT_HID
6
HIDDEN
10
0.161976
20
1.208272
30
0.0
11
0.160069
21
1.206499
31
0.0
0
LINE
8
FRONT_HID
6
HIDDEN
10
0.160069
20
1.206499
30
0.0
11
0.158203
21
1.204682
31
0.0
0
LINE
8
FRONT_HID
6
HIDDEN
10
0.158203
20
1.204682
30
0.0
11
0.156380
21
1.202822
31
0.0
0
LINE
8
FRONT_HID
6
HIDDEN
10
0.156380
20
1.202822
30
0.0
11
0.154601
21
1.200921
31
0.0
0
LINE
8
FRONT_HID
6
HIDDEN
10
0.154601
20
1.200921
30
0.0
11
0.152865
21
1.198979
31
0.0
0
LINE
8
FRONT_HID
6
HIDDEN
10
0.152865
20
1.198979
30
0.0
11
0.151176
21
1.196997
31
0.0
0
LINE
8
FRONT_HID
6
HIDDEN
10
0.151176
20
1.196997
30
0.0
11
0.149532
21
1.194977
31
0.0
0
LINE
8
FRONT_HID
6
HIDDEN
10
0.149532
20
1.194977
30
0.0
11
0.147936
21
1.192919
31
0.0
0
LINE
8
FRONT_HID
6
HIDDEN
10
0.147936
20
1.192919
30
0.0
11
0.146388
21
1.190825
31
0.0
0
LINE
8
FRONT_HID
6
HIDDEN
10
0.146388
20
1.190825
30
0.0
11
0.144889
21
1.188696
31
0.0
0
LINE
8
FRONT_HID
6
HIDDEN
10
0.144889
20
1.188696
30
0.0
11
0.143439
21
1.186532
31
0.0
0
LINE
8
FRONT_HID
6
HIDDEN
10
0.143439
20
1.186532
30
0.0
11
0.142040
21
1.184336
31
0.0
0
LINE
8
FRONT_HID
6
HIDDEN
10
0.142040
20
1.184336
30
0.0
11
0.140693
21
1.182108
31
0.0
0
LINE
8
FRONT_HID
6
HIDDEN
10
0.140693
20
1.182108
30
0.0
11
0.139397
21
1.179849
31
0.0
0
LINE
8
FRONT_HID
6
HIDDEN
10
0.139397
20
1.179849
30
0.0
11
0.138153
21
1.177561
31
0.0
0
LINE
8
FRONT_HID
6
HIDDEN
10
0.138153
20
1.177561
30
0.0
11
0.136963
21
1.175244
31
0.0
0
LINE
8
FRONT_HID
6
HIDDEN
10
0.136963
20
1.175244
30
0.0
11
0.135827
21
1.172901
31
0.0
0
LINE
8
FRONT_HID
6
HIDDEN
10
0.135827
20
1.172901
30
0.0
11
0.134746
21
1.170532
31
0.0
0
LINE
8
FRONT_HID
6
HIDDEN
10
0.134746
20
1.170532
30
0.0
11
0.133720
21
1.168138
31
0.0
0
LINE
8
FRONT_HID
6
HIDDEN
10
0.133720
20
1.168138
30
0.0
11
0.132749
21
1.165722
31
0.0
0
LINE
8
FRONT_HID
6
HIDDEN
10
0.132749
20
1.165722
30
0.0
11
0.131834
21
1.163283
31
0.0
0
LINE
8
FRONT_HID
6
HIDDEN
10
0.131834
20
1.163283
30
0.0
11
0.130977
21
1.160825
31
0.0
0
LINE
8
FRONT_HID
6
HIDDEN
10
0.130977
20
1.160825
30
0.0
11
0.130176
21
1.158347
31
0.0
0
LINE
8
FRONT_HID
6
HIDDEN
10
0.130176
20
1.158347
30
0.0
11
0.129433
21
1.155851
31
0.0
0
LINE
8
FRONT_HID
6
HIDDEN
10
0.129433
20
1.155851
30
0.0
11
0.128748
21
1.153338
31
0.0
0
LINE
8
FRONT_HID
6
HIDDEN
10
0.128748
20
1.153338
30
0.0
11
0.128121
21
1.150811
31
0.0
0
LINE
8
FRONT_HID
6
HIDDEN
10
0.128121
20
1.150811
30
0.0
11
0.127553
21
1.148269
31
0.0
0
LINE
8
FRONT_HID
6
HIDDEN
10
0.127553
20
1.148269
30
0.0
11
0.127044
21
1.145715
31
0.0
0
LINE
8
FRONT_HID
6
HIDDEN
10
0.127044
20
1.145715
30
0.0
11
0.126594
21
1.143150
31
0.0
0
LINE
8
FRONT_HID
6
HIDDEN
10
0.126594
20
1.143150
30
0.0
11
0.126204
21
1.140575
31
0.0
0
LINE
8
FRONT_HID
6
HIDDEN
10
0.126204
20
1.140575
30
0.0
11
0.125873
21
1.137992
31
0.0
0
LINE
8
FRONT_HID
6
HIDDEN
10
0.125873
20
1.137992
30
0.0
11
0.125602
21
1.135402
31
0.0
0
LINE
8
FRONT_HID
6
HIDDEN
10
0.125602
20
1.135402
30
0.0
11
0.125391
21
1.132806
31
0.0
0
LINE
8
FRONT_HID
6
HIDDEN
10
0.125391
20
1.132806
30
0.0
11
0.125241
21
1.130207
31
0.0
0
LINE
8
FRONT_HID
6
HIDDEN
10
0.125241
20
1.130207
30
0.0
11
0.125150
21
1.127604
31
0.0
0
LINE
8
FRONT_HID
6
HIDDEN
10
0.125150
20
1.127604
30
0.0
11
0.125120
21
1.125000
31
0.0
0
LINE
8
FRONT_HID
6
HIDDEN
10
0.350120
20
1.125000
30
0.0
11
0.350080
21
1.128005
31
0.0
0
LINE
8
FRONT_HID
6
HIDDEN
10
0.350080
20
1.128005
30
0.0
11
0.349960
21
1.131009
31
0.0
0
LINE
8
FRONT_HID
6
HIDDEN
10
0.349960
20
1.131009
30
0.0
11
0.349759
21
1.134008
31
0.0
0
LINE
8
FRONT_HID
6
HIDDEN
10
0.349759
20
1.134008
30
0.0
11
0.349478
21
1.137000
31
0.0
0
LINE
8
FRONT_HID
6
HIDDEN
10
0.349478
20
1.137000
30
0.0
11
0.349118
21
1.139984
31
0.0
0
LINE
8
FRONT_HID
6
HIDDEN
10
0.349118
20
1.139984
30
0.0
11
0.348678
21
1.142957
31
0.0
0
LINE
8
FRONT_HID
6
HIDDEN
10
0.348678
20
1.142957
30
0.0
11
0.348158
21
1.145918
31
0.0
0
LINE
8
FRONT_HID
6
HIDDEN
10
0.348158
20
1.145918
30
0.0
11
0.347560
21
1.148863
31
0.0
0
LINE
8
FRONT_HID
6
HIDDEN
10
0.347560
20
1.148863
30
0.0
11
0.346883
21
1.151792
31
0.0
0
LINE
8
FRONT_HID
6
HIDDEN
10
0.346883
20
1.151792
30
0.0
11
0.346129
21
1.154701
31
0.0
0
LINE
8
FRONT_HID
6
HIDDEN
10
0.346129
20
1.154701
30
0.0
11
0.345297
21
1.157589
31
0.0
0
LINE
8
FRONT_HID
6
HIDDEN
10
0.345297
20
1.157589
30
0.0
11
0.344388
21
1.160454
31
0.0
0
LINE
8
FRONT_HID
6
HIDDEN
10
0.344388
20
1.160454
30
0.0
11
0.343402
21
1.163294
31
0.0
0
LINE
8
FRONT_HID
6
HIDDEN
10
0.343402
20
1.163294
30
0.0
11
0.342342
21
1.166106
31
0.0
0
LINE
8
FRONT_HID
6
HIDDEN
10
0.342342
20
1.166106
30
0.0
11
0.341206
21
1.168889
31
0.0
0
LINE
8
FRONT_HID
6
HIDDEN
10
0.341206
20
1.168889
30
0.0
11
0.339997
21
1.171640
31
0.0
0
LINE
8
FRONT_HID
6
HIDDEN
10
0.339997
20
1.171640
30
0.0
11
0.338714
21
1.174359
31
0.0
0
LINE
8
FRONT_HID
6
HIDDEN
10
0.338714
20
1.174359
30
0.0
11
0.337359
21
1.177042
31
0.0
0
LINE
8
FRONT_HID
6
HIDDEN
10
0.337359
20
1.177042
30
0.0
11
0.335934
21
1.179688
31
0.0
0
LINE
8
FRONT_HID
6
HIDDEN
10
0.335934
20
1.179688
30
0.0
11
0.334437
21
1.182295
31
0.0
0
LINE
8
FRONT_HID
6
HIDDEN
10
0.334437
20
1.182295
30
0.0
11
0.332872
21
1.184860
31
0.0
0
LINE
8
FRONT_HID
6
HIDDEN
10
0.332872
20
1.184860
30
0.0
11
0.331239
21
1.187384
31
0.0
0
LINE
8
FRONT_HID
6
HIDDEN
10
0.331239
20
1.187384
30
0.0
11
0.329539
21
1.189862
31
0.0
0
LINE
8
FRONT_HID
6
HIDDEN
10
0.329539
20
1.189862
30
0.0
11
0.327774
21
1.192295
31
0.0
0
LINE
8
FRONT_HID
6
HIDDEN
10
0.327774
20
1.192295
30
0.0
11
0.325944
21
1.194679
31
0.0
0
LINE
8
FRONT_HID
6
HIDDEN
10
0.325944
20
1.194679
30
0.0
11
0.324051
21
1.197014
31
0.0
0
LINE
8
FRONT_HID
6
HIDDEN
10
0.324051
20
1.197014
30
0.0
11
0.322096
21
1.199297
31
0.0
0
LINE
8
FRONT_HID
6
HIDDEN
10
0.322096
20
1.199297
30
0.0
11
0.320081
21
1.201527
31
0.0
0
LINE
8
FRONT_HID
6
HIDDEN
10
0.320081
20
1.201527
30
0.0
11
0.318007
21
1.203703
31
0.0
0
LINE
8
FRONT_HID
6
HIDDEN
10
0.318007
20
1.203703
30
0.0
11
0.315876
21
1.205822
31
0.0
0
LINE
8
FRONT_HID
6
HIDDEN
10
0.315876
20
1.205822
30
0.0
11
0.313689
21
1.207884
31
0.0
0
LINE
8
FRONT_HID
6
HIDDEN
10
0.313689
20
1.207884
30
0.0
11
0.311448
21
1.209887
31
0.0
0
LINE
8
FRONT_HID
6
HIDDEN
10
0.311448
20
1.209887
30
0.0
11
0.309154
21
1.211829
31
0.0
0
LINE
8
FRONT_HID
6
HIDDEN
10
0.309154
20
1.211829
30
0.0
11
0.306809
21
1.213709
31
0.0
0
LINE
8
FRONT_HID
6
HIDDEN
10
0.306809
20
1.213709
30
0.0
11
0.304414
21
1.215525
31
0.0
0
LINE
8
FRONT_HID
6
HIDDEN
10
0.304414
20
1.215525
30
0.0
11
0.301972
21
1.217277
31
0.0
0
LINE
8
FRONT_HID
6
HIDDEN
10
0.301972
20
1.217277
30
0.0
11
0.299484
21
1.218964
31
0.0
0
LINE
8
FRONT_HID
6
HIDDEN
10
0.299484
20
1.218964
30
0.0
11
0.296952
21
1.220583
31
0.0
0
LINE
8
FRONT_HID
6
HIDDEN
10
0.296952
20
1.220583
30
0.0
11
0.294377
21
1.222134
31
0.0
0
LINE
8
FRONT_HID
6
HIDDEN
10
0.294377
20
1.222134
30
0.0
11
0.291762
21
1.223615
31
0.0
0
LINE
8
FRONT_HID
6
HIDDEN
10
0.291762
20
1.223615
30
0.0
11
0.289108
21
1.225026
31
0.0
0
LINE
8
FRONT_HID
6
HIDDEN
10
0.289108
20
1.225026
30
0.0
11
0.286417
21
1.226366
31
0.0
0
LINE
8
FRONT_HID
6
HIDDEN
10
0.286417
20
1.226366
30
0.0
11
0.283692
21
1.227633
31
0.0
0
LINE
8
FRONT_HID
6
HIDDEN
10
0.283692
20
1.227633
30
0.0
11
0.280934
21
1.228828
31
0.0
0
LINE
8
FRONT_HID
6
HIDDEN
10
0.280934
20
1.228828
30
0.0
11
0.278145
21
1.229948
31
0.0
0
LINE
8
FRONT_HID
6
HIDDEN
10
0.278145
20
1.229948
30
0.0
11
0.275327
21
1.230993
31
0.0
0
LINE
8
FRONT_HID
6
HIDDEN
10
0.275327
20
1.230993
30
0.0
11
0.272482
21
1.231962
31
0.0
0
LINE
8
FRONT_HID
6
HIDDEN
10
0.272482
20
1.231962
30
0.0
11
0.269612
21
1.232855
31
0.0
0
LINE
8
FRONT_HID
6
HIDDEN
10
0.269612
20
1.232855
30
0.0
11
0.266719
21
1.233672
31
0.0
0
LINE
8
FRONT_HID
6
HIDDEN
10
0.266719
20
1.233672
30
0.0
11
0.263806
21
1.234410
31
0.0
0
LINE
8
FRONT_HID
6
HIDDEN
10
0.263806
20
1.234410
30
0.0
11
0.260873
21
1.235071
31
0.0
0
LINE
8
FRONT_HID
6
HIDDEN
10
0.260873
20
1.235071
30
0.0
11
0.257925
21
1.235653
31
0.0
0
LINE
8
FRONT_HID
6
HIDDEN
10
0.257925
20
1.235653
30
0.0
11
0.254961
21
1.236155
31
0.0
0
LINE
8
FRONT_HID
6
HIDDEN
10
0.254961
20
1.236155
30
0.0
11
0.251986
21
1.236579
31
0.0
0
LINE
8
FRONT_HID
6
HIDDEN
10
0.251986
20
1.236579
30
0.0
11
0.249000
21
1.236923
31
0.0
0
LINE
8
FRONT_HID
6
HIDDEN
10
0.249000
20
1.236923
30
0.0
11
0.246006
21
1.237187
31
0.0
0
LINE
8
FRONT_HID
6
HIDDEN
10
0.246006
20
1.237187
30
0.0
11
0.243006
21
1.237371
31
0.0
0
LINE
8
FRONT_HID
6
HIDDEN
10
0.243006
20
1.237371
30
0.0
11
0.240002
21
1.237475
31
0.0
0
LINE
8
FRONT_HID
6
HIDDEN
10
0.240002
20
1.237475
30
0.0
11
0.236996
21
1.237498
31
0.0
0
LINE
8
FRONT_HID
6
HIDDEN
10
0.236996
20
1.237498
30
0.0
11
0.233991
21
1.237441
31
0.0
0
LINE
8
FRONT_HID
6
HIDDEN
10
0.233991
20
1.237441
30
0.0
11
0.230989
21
1.237304
31
0.0
0
LINE
8
FRONT_HID
6
HIDDEN
10
0.230989
20
1.237304
30
0.0
11
0.227991
21
1.237087
31
0.0
0
LINE
8
FRONT_HID
6
HIDDEN
10
0.227991
20
1.237087
30
0.0
11
0.225000
21
1.236790
31
0.0
0
LINE
8
LEFT
10
0.600000
20
0.900000
30
0.0
11
1.350000
21
0.900000
31
0.0
0
LINE
8
LEFT
10
1.350000
20
1.125000
30
0.0
11
1.350000
21
0.900000
31
0.0
0
LINE
8
LEFT
10
0.600000
20
1.125000
30
0.0
11
0.600000
21
0.900000
31
0.0
0
LINE
8
LEFT
10
0.600000
20
1.350000
30
0.0
11
1.350000
21
1.350000
31
0.0
0
LINE
8
LEFT
10
1.350000
20
1.350000
30
0.0
11
1.350000
21
1.125000
31
0.0
0
LINE
8
LEFT
10
0.600000
20
1.350000
30
0.0
11
0.600000
21
1.125000
31
0.0
0
LINE
8
LEFT_HID
6
HIDDEN
10
0.600000
20
0.900000
30
0.0
11
0.600000
21
0.975000
31
0.0
0
LINE
8
LEFT_HID
6
HIDDEN
10
0.600000
20
1.125000
30
0.0
11
0.600000
21
0.975000
31
0.0
0
LINE
8
LEFT_HID
6
HIDDEN
10
1.350000
20
0.900000
30
0.0
11
1.350000
21
1.013210
31
0.0
0
LINE
8
LEFT_HID
6
HIDDEN
10
1.350000
20
1.013210
30
0.0
11
1.350000
21
1.012500
31
0.0
0
LINE
8
LEFT_HID
6
HIDDEN
10
1.350000
20
1.012500
30
0.0
11
1.350000
21
1.125000
31
0.0
0
LINE
8
LEFT_HID
6
HIDDEN
10
0.600000
20
0.975000
30
0.0
11
0.600000
21
1.125000
31
0.0
0
LINE
8
LEFT_HID
6
HIDDEN
10
1.350000
20
1.125000
30
0.0
11
1.350000
21
1.013210
31
0.0
0
LINE
8
LEFT_HID
6
HIDDEN
10
0.780000
20
1.125000
30
0.0
11
0.780000
21
0.975000
31
0.0
0
LINE
8
LEFT_HID
6
HIDDEN
10
0.780000
20
0.975000
30
0.0
11
0.780000
21
1.275000
31
0.0
0
LINE
8
LEFT_HID
6
HIDDEN
10
0.780000
20
1.275000
30
0.0
11
0.780000
21
1.125000
31
0.0
0
LINE
8
LEFT_HID
6
HIDDEN
10
0.600000
20
1.275000
30
0.0
11
0.600000
21
1.125000
31
0.0
0
LINE
8
LEFT_HID
6
HIDDEN
10
0.600000
20
1.125000
30
0.0
11
0.600000
21
1.275000
31
0.0
0
LINE
8
LEFT_HID
6
HIDDEN
10
0.600000
20
1.275000
30
0.0
11
0.600000
21
1.350000
31
0.0
0
LINE
8
LEFT_HID
6
HIDDEN
10
1.050000
20
1.125000
30
0.0
11
1.050000
21
1.012500
31
0.0
0
LINE
8
LEFT_HID
6
HIDDEN
10
1.050000
20
1.012500
30
0.0
11
1.050000
21
1.237500
31
0.0
0
LINE
8
LEFT_HID
6
HIDDEN
10
1.050000
20
1.237500
30
0.0
11
1.050000
21
1.125000
31
0.0
0
LINE
8
LEFT_HID
6
HIDDEN
10
1.350000
20
1.236790
30
0.0
11
1.350000
21
1.125000
31
0.0
0
LINE
8
LEFT_HID
6
HIDDEN
10
1.350000
20
1.125000
30
0.0
11
1.350000
21
1.237500
31
0.0
0
LINE
8
LEFT_HID
6
HIDDEN
10
1.350000
20
1.237500
30
0.0
11
1.350000
21
1.236790
31
0.0
0
LINE
8
LEFT_HID
6
HIDDEN
10
1.350000
20
1.236790
30
0.0
11
1.350000
21
1.350000
31
0.0
0
LINE
8
LEFT_HID
6
HIDDEN
10
0.780000
20
1.275000
30
0.0
11
0.600000
21
1.275000
31
0.0
0
LINE
8
LEFT_HID
6
HIDDEN
10
0.780000
20
0.975000
30
0.0
11
0.600000
21
0.975000
31
0.0
0
LINE
8
LEFT_HID
6
HIDDEN
10
1.050000
20
1.012500
30
0.0
11
1.350000
21
1.012500
31
0.0
0
LINE
8
LEFT_HID
6
HIDDEN
10
1.050000
20
1.237500
30
0.0
11
1.350000
21
1.237500
31
0.0
0
LINE
8
TOP
10
0.450000
20
0.750000
30
0.0
11
0.450000
21
0.000000
31
0.0
0
LINE
8
TOP
10
0.450000
20
0.750000
30
0.0
11
0.225000
21
0.750000
31
0.0
0
LINE
8
TOP
10
0.450000
20
0.000000
30
0.0
11
0.225000
21
0.000000
31
0.0
0
LINE
8
TOP
10
0.000000
20
0.750000
30
0.0
11
0.000000
21
0.000000
31
0.0
0
LINE
8
TOP
10
0.225000
20
0.750000
30
0.0
11
0.000000
21
0.750000
31
0.0
0
LINE
8
TOP
10
0.225000
20
0.000000
30
0.0
11
0.000000
21
0.000000
31
0.0
0
LINE
8
TOP_HID
6
HIDDEN
10
0.375000
20
0.750000
30
0.0
11
0.450000
21
0.750000
31
0.0
0
LINE
8
TOP_HID
6
HIDDEN
10
0.375000
20
0.750000
30
0.0
11
0.225000
21
0.750000
31
0.0
0
LINE
8
TOP_HID
6
HIDDEN
10
0.350120
20
0.000000
30
0.0
11
0.450000
21
0.000000
31
0.0
0
LINE
8
TOP_HID
6
HIDDEN
10
0.225000
20
0.000000
30
0.0
11
0.350120
21
0.000000
31
0.0
0
LINE
8
TOP_HID
6
HIDDEN
10
0.225000
20
0.750000
30
0.0
11
0.075000
21
0.750000
31
0.0
0
LINE
8
TOP_HID
6
HIDDEN
10
0.000000
20
0.750000
30
0.0
11
0.075000
21
0.750000
31
0.0
0
LINE
8
TOP_HID
6
HIDDEN
10
0.125120
20
0.000000
30
0.0
11
0.225000
21
0.000000
31
0.0
0
LINE
8
TOP_HID
6
HIDDEN
10
0.000000
20
0.000000
30
0.0
11
0.125120
21
0.000000
31
0.0
0
LINE
8
TOP_HID
6
HIDDEN
10
0.375000
20
0.750000
30
0.0
11
0.375000
21
0.570000
31
0.0
0
LINE
8
TOP_HID
6
HIDDEN
10
0.375000
20
0.570000
30
0.0
11
0.075000
21
0.570000
31
0.0
0
LINE
8
TOP_HID
6
HIDDEN
10
0.075000
20
0.570000
30
0.0
11
0.375000
21
0.570000
31
0.0
0
LINE
8
TOP_HID
6
HIDDEN
10
0.225000
20
0.750000
30
0.0
11
0.375000
21
0.750000
31
0.0
0
LINE
8
TOP_HID
6
HIDDEN
10
0.075000
20
0.750000
30
0.0
11
0.225000
21
0.750000
31
0.0
0
LINE
8
TOP_HID
6
HIDDEN
10
0.125120
20
0.000000
30
0.0
11
0.125120
21
0.300000
31
0.0
0
LINE
8
TOP_HID
6
HIDDEN
10
0.125120
20
0.300000
30
0.0
11
0.350120
21
0.300000
31
0.0
0
LINE
8
TOP_HID
6
HIDDEN
10
0.350120
20
0.300000
30
0.0
11
0.125120
21
0.300000
31
0.0
0
LINE
8
TOP_HID
6
HIDDEN
10
0.225000
20
0.000000
30
0.0
11
0.125120
21
0.000000
31
0.0
0
LINE
8
TOP_HID
6
HIDDEN
10
0.350120
20
0.000000
30
0.0
11
0.225000
21
0.000000
31
0.0
0
LINE
8
TOP_HID
6
HIDDEN
10
0.075000
20
0.570000
30
0.0
11
0.075000
21
0.750000
31
0.0
0
LINE
8
TOP_HID
6
HIDDEN
10
0.350120
20
0.300000
30
0.0
11
0.350120
21
0.000000
31
0.0
0
ENDSEC
0
EOF
