0
SECTION
2
HEADER
9
$ACADVER
1
AC1009
0
ENDSEC
0
SECTION
2
TABLES
0
TABLE
2
LTYPE
70
3
0
LTYPE
2
CONTINUOUS
70
0
3
Solid line
72
65
73
0
40
0.0
0
LTYPE
2
HIDDEN
70
0
3
__ __ __ __ __
72
65
73
2
40
0.056986
49
0.038010
49
-0.018976
0
LTYPE
2
CENTER
70
0
3
___ _ ___ _ ___
72
65
73
4
40
0.132948
49
0.075962
49
-0.018976
49
0.018976
49
-0.018976
0
ENDTAB
0
TABLE
2
LAYER
70
6
0
LAYER
2
0
70
0
62
7
6
CONTINUOUS
0
LAYER
2
FRONT
70
0
62
7
6
CONTINUOUS
0
LAYER
2
FRONT_HID
70
0
62
7
6
HIDDEN
0
LAYER
2
LEFT
70
0
62
7
6
CONTINUOUS
0
LAYER
2
LEFT_HID
70
0
62
7
6
HIDDEN
0
LAYER
2
TOP
70
0
62
7
6
CONTINUOUS
0
ENDTAB
0
ENDSEC
0
SECTION
2
ENTITIES
0
LINE
8
FRONT
10
0.000000
20
1.367665
30
0.0
11
0.000000
21
1.605106
31
0.0
0
LINE
8
FRONT
10
0.064954
20
1.367665
30
0.0
11
0.000000
21
1.367665
31
0.0
0
LINE
8
FRONT
10
0.064954
20
1.605106
30
0.0
11
0.000000
21
1.605106
31
0.0
0
LINE
8
FRONT
10
0.777280
20
1.367665
30
0.0
11
0.064954
21
1.367665
31
0.0
0
LINE
8
FRONT
10
0.777280
20
1.605106
30
0.0
11
0.064954
21
1.605106
31
0.0
0
LINE
8
FRONT
10
0.829484
20
1.367665
30
0.0
11
0.829484
21
1.605106
31
0.0
0
LINE
8
FRONT
10
0.829484
20
1.367665
30
0.0
11
0.777280
21
1.367665
31
0.0
0
LINE
8
FRONT
10
0.829484
20
1.605106
30
0.0
11
0.777280
21
1.605106
31
0.0
0
LINE
8
FRONT_HID
6
HIDDEN
10
0.000000
20
1.605106
30
0.0
11
0.777280
21
1.605106
31
0.0
0
LINE
8
FRONT_HID
6
HIDDEN
10
0.000000
20
1.367665
30
0.0
11
0.777280
21
1.367665
31
0.0
0
LINE
8
FRONT_HID
6
HIDDEN
10
0.777280
20
1.367665
30
0.0
11
0.777280
21
1.605106
31
0.0
0
LINE
8
FRONT_HID
6
HIDDEN
10
0.064954
20
1.367665
30
0.0
11
0.064954
21
1.605106
31
0.0
0
LINE
8
FRONT_HID
6
HIDDEN
10
0.777280
20
1.367665
30
0.0
11
0.777280
21
1.605106
31
0.0
0
LINE
8
FRONT_HID
6
HIDDEN
10
0.064954
20
1.367665
30
0.0
11
0.064954
21
1.605106
31
0.0
0
LINE
8
LEFT
10
2.197149
20
1.367665
30
0.0
11
2.197149
21
1.605106
31
0.0
0
LINE
8
LEFT
10
2.102172
20
1.605106
30
0.0
11
2.197149
21
1.605106
31
0.0
0
LINE
8
LEFT
10
2.102172
20
1.367665
30
0.0
11
2.197149
21
1.367665
31
0.0
0
LINE
8
LEFT
10
1.057428
20
1.367665
30
0.0
11
1.057428
21
1.605106
31
0.0
0
LINE
8
LEFT
10
1.057428
20
1.605106
30
0.0
11
2.102172
21
1.605106
31
0.0
0
LINE
8
LEFT
10
1.057428
20
1.367665
30
0.0
11
2.102172
21
1.367665
31
0.0
0
LINE
8
LEFT_HID
6
HIDDEN
10
2.102172
20
1.367665
30
0.0
11
2.102172
21
1.605106
31
0.0
0
LINE
8
LEFT_HID
6
HIDDEN
10
2.102172
20
1.367665
30
0.0
11
2.102172
21
1.605106
31
0.0
0
LINE
8
LEFT_HID
6
HIDDEN
10
2.102172
20
1.367665
30
0.0
11
1.152405
21
1.367665
31
0.0
0
LINE
8
LEFT_HID
6
HIDDEN
10
1.057428
20
1.367665
30
0.0
11
1.152405
21
1.367665
31
0.0
0
LINE
8
LEFT_HID
6
HIDDEN
10
2.102172
20
1.605106
30
0.0
11
1.152405
21
1.605106
31
0.0
0
LINE
8
LEFT_HID
6
HIDDEN
10
1.057428
20
1.605106
30
0.0
11
1.152405
21
1.605106
31
0.0
0
LINE
8
LEFT_HID
6
HIDDEN
10
2.102172
20
1.605106
30
0.0
11
1.152405
21
1.605106
31
0.0
0
LINE
8
LEFT_HID
6
HIDDEN
10
2.102172
20
1.367665
30
0.0
11
1.152405
21
1.367665
31
0.0
0
LINE
8
LEFT_HID
6
HIDDEN
10
1.152405
20
1.367665
30
0.0
11
2.102172
21
1.367665
31
0.0
0
LINE
8
LEFT_HID
6
HIDDEN
10
1.152405
20
1.605106
30
0.0
11
2.102172
21
1.605106
31
0.0
0
LINE
8
LEFT_HID
6
HIDDEN
10
1.152405
20
1.367665
30
0.0
11
1.152405
21
1.605106
31
0.0
0
LINE
8
LEFT_HID
6
HIDDEN
10
1.152405
20
1.367665
30
0.0
11
1.152405
21
1.605106
31
0.0
0
LINE
8
LEFT_HID
6
HIDDEN
10
1.152405
20
1.367665
30
0.0
11
1.057428
21
1.367665
31
0.0
0
LINE
8
LEFT_HID
6
HIDDEN
10
1.152405
20
1.605106
30
0.0
11
1.057428
21
1.605106
31
0.0
0
LINE
8
LEFT_HID
6
HIDDEN
10
1.152405
20
1.605106
30
0.0
11
1.057428
21
1.605106
31
0.0
0
LINE
8
LEFT_HID
6
HIDDEN
10
1.152405
20
1.367665
30
0.0
11
1.057428
21
1.367665
31
0.0
0
LINE
8
TOP
10
0.000000
20
0.000000
30
0.0
11
0.777280
21
0.000000
31
0.0
0
LINE
8
TOP
10
0.000000
20
0.094977
30
0.0
11
0.000000
21
0.000000
31
0.0
0
LINE
8
TOP
10
0.777280
20
0.000000
30
0.0
11
0.829484
21
0.000000
31
0.0
0
LINE
8
TOP
10
0.777280
20
0.094977
30
0.0
11
0.064954
21
0.094977
31
0.0
0
LINE
8
TOP
10
0.000000
20
1.139721
30
0.0
11
0.000000
21
0.094977
31
0.0
0
LINE
8
TOP
10
0.829484
20
0.000000
30
0.0
11
0.829484
21
0.094977
31
0.0
0
LINE
8
TOP
10
0.064954
20
0.094977
30
0.0
11
0.064954
21
1.044744
31
0.0
0
LINE
8
TOP
10
0.064954
20
1.139721
30
0.0
11
0.000000
21
1.139721
31
0.0
0
LINE
8
TOP
10
0.829484
20
0.094977
30
0.0
11
0.829484
21
1.044744
31
0.0
0
LINE
8
TOP
10
0.777280
20
1.044744
30
0.0
11
0.777280
21
0.094977
31
0.0
0
LINE
8
TOP
10
0.064954
20
1.044744
30
0.0
11
0.777280
21
1.044744
31
0.0
0
LINE
8
TOP
10
0.777280
20
1.139721
30
0.0
11
0.064954
21
1.139721
31
0.0
0
LINE
8
TOP
10
0.829484
20
1.044744
30
0.0
11
0.829484
21
1.139721
31
0.0
0
LINE
8
TOP
10
0.829484
20
1.139721
30
0.0
11
0.777280
21
1.139721
31
0.0
0
ENDSEC
0
EOF
