0
SECTION
2
HEADER
9
$ACADVER
1
AC1009
0
ENDSEC
0
SECTION
2
TABLES
0
TABLE
2
LTYPE
70
3
0
LTYPE
2
CONTINUOUS
70
0
3
Solid line
72
65
73
0
40
0.0
0
LTYPE
2
HIDDEN
70
0
3
__ __ __ __ __
72
65
73
2
40
0.037500
49
0.025013
49
-0.012488
0
LTYPE
2
CENTER
70
0
3
___ _ ___ _ ___
72
65
73
4
40
0.087488
49
0.049988
49
-0.012488
49
0.012488
49
-0.012488
0
ENDTAB
0
TABLE
2
LAYER
70
5
0
LAYER
2
0
70
0
62
7
6
CONTINUOUS
0
LAYER
2
FRONT
70
0
62
7
6
CONTINUOUS
0
LAYER
2
LEFT
70
0
62
7
6
CONTINUOUS
0
LAYER
2
LEFT_HID
70
0
62
7
6
HIDDEN
0
LAYER
2
TOP
70
0
62
7
6
CONTINUOUS
0
ENDTAB
0
ENDSEC
0
SECTION
2
ENTITIES
0
LINE
8
FRONT
10
0.047842
20
0.197827
30
0.0
11
0.000000
21
0.197827
31
0.0
0
LINE
8
FRONT
10
0.047842
20
0.197827
30
0.0
11
0.047842
21
0.947827
31
0.0
0
LINE
8
FRONT
10
0.047842
20
0.947827
30
0.0
11
0.000000
21
0.947827
31
0.0
0
LINE
8
FRONT
10
0.000000
20
0.947827
30
0.0
11
0.000000
21
0.197827
31
0.0
0
LINE
8
LEFT
10
0.197842
20
0.197827
30
0.0
11
0.245684
21
0.197827
31
0.0
0
LINE
8
LEFT
10
0.197842
20
0.947827
30
0.0
11
0.245684
21
0.947827
31
0.0
0
LINE
8
LEFT
10
0.197842
20
0.947827
30
0.0
11
0.197842
21
0.197827
31
0.0
0
LINE
8
LEFT
10
0.245684
20
0.947827
30
0.0
11
0.245684
21
0.197827
31
0.0
0
LINE
8
LEFT_HID
6
HIDDEN
10
0.221763
20
0.197827
30
0.0
11
0.197842
21
0.197827
31
0.0
0
LINE
8
LEFT_HID
6
HIDDEN
10
0.245684
20
0.197827
30
0.0
11
0.221763
21
0.197827
31
0.0
0
LINE
8
LEFT_HID
6
HIDDEN
10
0.221763
20
0.947827
30
0.0
11
0.197842
21
0.947827
31
0.0
0
LINE
8
LEFT_HID
6
HIDDEN
10
0.245684
20
0.947827
30
0.0
11
0.221763
21
0.947827
31
0.0
0
LINE
8
TOP
10
0.047812
20
0.023914
30
0.0
11
0.047694
21
0.026295
31
0.0
0
LINE
8
TOP
10
0.047694
20
0.026295
30
0.0
11
0.047338
21
0.028653
31
0.0
0
LINE
8
TOP
10
0.047338
20
0.028653
30
0.0
11
0.046750
21
0.030964
31
0.0
0
LINE
8
TOP
10
0.046750
20
0.030964
30
0.0
11
0.045934
21
0.033205
31
0.0
0
LINE
8
TOP
10
0.045934
20
0.033205
30
0.0
11
0.044899
21
0.035354
31
0.0
0
LINE
8
TOP
10
0.044899
20
0.035354
30
0.0
11
0.043656
21
0.037389
31
0.0
0
LINE
8
TOP
10
0.043656
20
0.037389
30
0.0
11
0.042216
21
0.039290
31
0.0
0
LINE
8
TOP
10
0.042216
20
0.039290
30
0.0
11
0.040594
21
0.041038
31
0.0
0
LINE
8
TOP
10
0.040594
20
0.041038
30
0.0
11
0.038806
21
0.042616
31
0.0
0
LINE
8
TOP
10
0.038806
20
0.042616
30
0.0
11
0.036870
21
0.044008
31
0.0
0
LINE
8
TOP
10
0.036870
20
0.044008
30
0.0
11
0.034804
21
0.045200
31
0.0
0
LINE
8
TOP
10
0.034804
20
0.045200
30
0.0
11
0.032631
21
0.046181
31
0.0
0
LINE
8
TOP
10
0.032631
20
0.046181
30
0.0
11
0.030370
21
0.046941
31
0.0
0
LINE
8
TOP
10
0.030370
20
0.046941
30
0.0
11
0.028045
21
0.047471
31
0.0
0
LINE
8
TOP
10
0.028045
20
0.047471
30
0.0
11
0.025679
21
0.047768
31
0.0
0
LINE
8
TOP
10
0.025679
20
0.047768
30
0.0
11
0.023295
21
0.047827
31
0.0
0
LINE
8
TOP
10
0.023295
20
0.047827
30
0.0
11
0.020917
21
0.047649
31
0.0
0
LINE
8
TOP
10
0.020917
20
0.047649
30
0.0
11
0.018568
21
0.047235
31
0.0
0
LINE
8
TOP
10
0.018568
20
0.047235
30
0.0
11
0.016273
21
0.046589
31
0.0
0
LINE
8
TOP
10
0.016273
20
0.046589
30
0.0
11
0.014053
21
0.045718
31
0.0
0
LINE
8
TOP
10
0.014053
20
0.045718
30
0.0
11
0.011931
21
0.044630
31
0.0
0
LINE
8
TOP
10
0.011931
20
0.044630
30
0.0
11
0.009928
21
0.043336
31
0.0
0
LINE
8
TOP
10
0.009928
20
0.043336
30
0.0
11
0.008063
21
0.041849
31
0.0
0
LINE
8
TOP
10
0.008063
20
0.041849
30
0.0
11
0.006356
21
0.040184
31
0.0
0
LINE
8
TOP
10
0.006356
20
0.040184
30
0.0
11
0.004823
21
0.038357
31
0.0
0
LINE
8
TOP
10
0.004823
20
0.038357
30
0.0
11
0.003480
21
0.036387
31
0.0
0
LINE
8
TOP
10
0.003480
20
0.036387
30
0.0
11
0.002339
21
0.034293
31
0.0
0
LINE
8
TOP
10
0.002339
20
0.034293
30
0.0
11
0.001413
21
0.032095
31
0.0
0
LINE
8
TOP
10
0.001413
20
0.032095
30
0.0
11
0.000710
21
0.029816
31
0.0
0
LINE
8
TOP
10
0.000710
20
0.029816
30
0.0
11
0.000237
21
0.027479
31
0.0
0
LINE
8
TOP
10
0.000237
20
0.027479
30
0.0
11
0.000000
21
0.025106
31
0.0
0
LINE
8
TOP
10
0.000000
20
0.025106
30
0.0
11
0.000000
21
0.022721
31
0.0
0
LINE
8
TOP
10
0.000000
20
0.022721
30
0.0
11
0.000237
21
0.020348
31
0.0
0
LINE
8
TOP
10
0.000237
20
0.020348
30
0.0
11
0.000710
21
0.018011
31
0.0
0
LINE
8
TOP
10
0.000710
20
0.018011
30
0.0
11
0.001413
21
0.015732
31
0.0
0
LINE
8
TOP
10
0.001413
20
0.015732
30
0.0
11
0.002339
21
0.013535
31
0.0
0
LINE
8
TOP
10
0.002339
20
0.013535
30
0.0
11
0.003480
21
0.011440
31
0.0
0
LINE
8
TOP
10
0.003480
20
0.011440
30
0.0
11
0.004823
21
0.009470
31
0.0
0
LINE
8
TOP
10
0.004823
20
0.009470
30
0.0
11
0.006356
21
0.007643
31
0.0
0
LINE
8
TOP
10
0.006356
20
0.007643
30
0.0
11
0.008063
21
0.005978
31
0.0
0
LINE
8
TOP
10
0.008063
20
0.005978
30
0.0
11
0.009928
21
0.004491
31
0.0
0
LINE
8
TOP
10
0.009928
20
0.004491
30
0.0
11
0.011931
21
0.003197
31
0.0
0
LINE
8
TOP
10
0.011931
20
0.003197
30
0.0
11
0.014053
21
0.002109
31
0.0
0
LINE
8
TOP
10
0.014053
20
0.002109
30
0.0
11
0.016273
21
0.001238
31
0.0
0
LINE
8
TOP
10
0.016273
20
0.001238
30
0.0
11
0.018568
21
0.000592
31
0.0
0
LINE
8
TOP
10
0.018568
20
0.000592
30
0.0
11
0.020917
21
0.000178
31
0.0
0
LINE
8
TOP
10
0.020917
20
0.000178
30
0.0
11
0.023295
21
0.000000
31
0.0
0
LINE
8
TOP
10
0.023295
20
0.000000
30
0.0
11
0.025679
21
0.000059
31
0.0
0
LINE
8
TOP
10
0.025679
20
0.000059
30
0.0
11
0.028045
21
0.000356
31
0.0
0
LINE
8
TOP
10
0.028045
20
0.000356
30
0.0
11
0.030370
21
0.000887
31
0.0
0
LINE
8
TOP
10
0.030370
20
0.000887
30
0.0
11
0.032631
21
0.001646
31
0.0
0
LINE
8
TOP
10
0.032631
20
0.001646
30
0.0
11
0.034804
21
0.002627
31
0.0
0
LINE
8
TOP
10
0.034804
20
0.002627
30
0.0
11
0.036870
21
0.003819
31
0.0
0
LINE
8
TOP
10
0.036870
20
0.003819
30
0.0
11
0.038806
21
0.005211
31
0.0
0
LINE
8
TOP
10
0.038806
20
0.005211
30
0.0
11
0.040594
21
0.006789
31
0.0
0
LINE
8
TOP
10
0.040594
20
0.006789
30
0.0
11
0.042216
21
0.008537
31
0.0
0
LINE
8
TOP
10
0.042216
20
0.008537
30
0.0
11
0.043656
21
0.010438
31
0.0
0
LINE
8
TOP
10
0.043656
20
0.010438
30
0.0
11
0.044899
21
0.012473
31
0.0
0
LINE
8
TOP
10
0.044899
20
0.012473
30
0.0
11
0.045934
21
0.014622
31
0.0
0
LINE
8
TOP
10
0.045934
20
0.014622
30
0.0
11
0.046750
21
0.016863
31
0.0
0
LINE
8
TOP
10
0.046750
20
0.016863
30
0.0
11
0.047338
21
0.019174
31
0.0
0
LINE
8
TOP
10
0.047338
20
0.019174
30
0.0
11
0.047694
21
0.021532
31
0.0
0
LINE
8
TOP
10
0.047694
20
0.021532
30
0.0
11
0.047812
21
0.023914
31
0.0
0
ENDSEC
0
EOF
