0
SECTION
2
HEADER
9
$ACADVER
1
AC1009
0
ENDSEC
0
SECTION
2
TABLES
0
TABLE
2
LTYPE
70
3
0
LTYPE
2
CONTINUOUS
70
0
3
Solid line
72
65
73
0
40
0.0
0
LTYPE
2
HIDDEN
70
0
3
__ __ __ __ __
72
65
73
2
40
0.050040
49
0.033377
49
-0.016663
0
LTYPE
2
CENTER
70
0
3
___ _ ___ _ ___
72
65
73
4
40
0.116743
49
0.066703
49
-0.016663
49
0.016663
49
-0.016663
0
ENDTAB
0
TABLE
2
LAYER
70
6
0
LAYER
2
0
70
0
62
7
6
CONTINUOUS
0
LAYER
2
FRONT
70
0
62
7
6
CONTINUOUS
0
LAYER
2
FRONT_HID
70
0
62
7
6
HIDDEN
0
LAYER
2
LEFT
70
0
62
7
6
CONTINUOUS
0
LAYER
2
LEFT_HID
70
0
62
7
6
HIDDEN
0
LAYER
2
TOP
70
0
62
7
6
CONTINUOUS
0
ENDTAB
0
ENDSEC
0
SECTION
2
ENTITIES
0
LINE
8
FRONT
10
0.000000
20
0.867360
30
0.0
11
0.667200
21
0.867360
31
0.0
0
LINE
8
FRONT
10
0.000000
20
1.534560
30
0.0
11
0.000000
21
0.867360
31
0.0
0
LINE
8
FRONT
10
0.667200
20
0.867360
30
0.0
11
0.667200
21
1.534560
31
0.0
0
LINE
8
FRONT
10
0.667200
20
1.534560
30
0.0
11
0.000000
21
1.534560
31
0.0
0
LINE
8
FRONT
10
0.500400
20
1.534560
30
0.0
11
0.500400
21
1.868160
31
0.0
0
LINE
8
FRONT
10
0.500400
20
1.868160
30
0.0
11
0.166800
21
1.868160
31
0.0
0
LINE
8
FRONT
10
0.166800
20
1.868160
30
0.0
11
0.166800
21
1.534560
31
0.0
0
LINE
8
FRONT_HID
6
HIDDEN
10
0.500400
20
1.534560
30
0.0
11
0.166800
21
1.534560
31
0.0
0
LINE
8
FRONT_HID
6
HIDDEN
10
0.166800
20
1.534560
30
0.0
11
0.500400
21
1.534560
31
0.0
0
LINE
8
LEFT
10
0.867360
20
0.867360
30
0.0
11
1.534560
21
0.867360
31
0.0
0
LINE
8
LEFT
10
0.867360
20
1.534560
30
0.0
11
1.534560
21
1.534560
31
0.0
0
LINE
8
LEFT
10
1.534560
20
1.534560
30
0.0
11
1.534560
21
0.867360
31
0.0
0
LINE
8
LEFT
10
0.867360
20
1.534560
30
0.0
11
0.867360
21
0.867360
31
0.0
0
LINE
8
LEFT
10
1.034160
20
1.868160
30
0.0
11
1.367760
21
1.868160
31
0.0
0
LINE
8
LEFT
10
1.034160
20
1.868160
30
0.0
11
1.034160
21
1.534560
31
0.0
0
LINE
8
LEFT
10
1.367760
20
1.868160
30
0.0
11
1.367760
21
1.534560
31
0.0
0
LINE
8
LEFT_HID
6
HIDDEN
10
1.200960
20
1.534560
30
0.0
11
1.034160
21
1.534560
31
0.0
0
LINE
8
LEFT_HID
6
HIDDEN
10
1.034160
20
1.534560
30
0.0
11
1.367760
21
1.534560
31
0.0
0
LINE
8
LEFT_HID
6
HIDDEN
10
1.367760
20
1.534560
30
0.0
11
1.200960
21
1.534560
31
0.0
0
LINE
8
LEFT_HID
6
HIDDEN
10
1.200960
20
1.868160
30
0.0
11
1.034160
21
1.868160
31
0.0
0
LINE
8
LEFT_HID
6
HIDDEN
10
1.367760
20
1.868160
30
0.0
11
1.200960
21
1.868160
31
0.0
0
LINE
8
TOP
10
0.000000
20
0.667200
30
0.0
11
0.000000
21
0.000000
31
0.0
0
LINE
8
TOP
10
0.667200
20
0.667200
30
0.0
11
0.667200
21
0.000000
31
0.0
0
LINE
8
TOP
10
0.667200
20
0.667200
30
0.0
11
0.000000
21
0.667200
31
0.0
0
LINE
8
TOP
10
0.667200
20
0.000000
30
0.0
11
0.000000
21
0.000000
31
0.0
0
LINE
8
TOP
10
0.500400
20
0.333600
30
0.0
11
0.499571
21
0.350208
31
0.0
0
LINE
8
TOP
10
0.499571
20
0.350208
30
0.0
11
0.497093
21
0.366651
31
0.0
0
LINE
8
TOP
10
0.497093
20
0.366651
30
0.0
11
0.492989
21
0.382765
31
0.0
0
LINE
8
TOP
10
0.492989
20
0.382765
30
0.0
11
0.487302
21
0.398391
31
0.0
0
LINE
8
TOP
10
0.487302
20
0.398391
30
0.0
11
0.480087
21
0.413373
31
0.0
0
LINE
8
TOP
10
0.480087
20
0.413373
30
0.0
11
0.471417
21
0.427562
31
0.0
0
LINE
8
TOP
10
0.471417
20
0.427562
30
0.0
11
0.461376
21
0.440817
31
0.0
0
LINE
8
TOP
10
0.461376
20
0.440817
30
0.0
11
0.450066
21
0.453007
31
0.0
0
LINE
8
TOP
10
0.450066
20
0.453007
30
0.0
11
0.437598
21
0.464009
31
0.0
0
LINE
8
TOP
10
0.437598
20
0.464009
30
0.0
11
0.424097
21
0.473716
31
0.0
0
LINE
8
TOP
10
0.424097
20
0.473716
30
0.0
11
0.409696
21
0.482031
31
0.0
0
LINE
8
TOP
10
0.409696
20
0.482031
30
0.0
11
0.394539
21
0.488870
31
0.0
0
LINE
8
TOP
10
0.394539
20
0.488870
30
0.0
11
0.378776
21
0.494166
31
0.0
0
LINE
8
TOP
10
0.378776
20
0.494166
30
0.0
11
0.362564
21
0.497866
31
0.0
0
LINE
8
TOP
10
0.362564
20
0.497866
30
0.0
11
0.346065
21
0.499934
31
0.0
0
LINE
8
TOP
10
0.346065
20
0.499934
30
0.0
11
0.329442
21
0.500348
31
0.0
0
LINE
8
TOP
10
0.329442
20
0.500348
30
0.0
11
0.312859
21
0.499105
31
0.0
0
LINE
8
TOP
10
0.312859
20
0.499105
30
0.0
11
0.296483
21
0.496218
31
0.0
0
LINE
8
TOP
10
0.296483
20
0.496218
30
0.0
11
0.280476
21
0.491714
31
0.0
0
LINE
8
TOP
10
0.280476
20
0.491714
30
0.0
11
0.264997
21
0.485639
31
0.0
0
LINE
8
TOP
10
0.264997
20
0.485639
30
0.0
11
0.250200
21
0.478053
31
0.0
0
LINE
8
TOP
10
0.250200
20
0.478053
30
0.0
11
0.236232
21
0.469031
31
0.0
0
LINE
8
TOP
10
0.236232
20
0.469031
30
0.0
11
0.223231
21
0.458663
31
0.0
0
LINE
8
TOP
10
0.223231
20
0.458663
30
0.0
11
0.211327
21
0.447053
31
0.0
0
LINE
8
TOP
10
0.211327
20
0.447053
30
0.0
11
0.200638
21
0.434315
31
0.0
0
LINE
8
TOP
10
0.200638
20
0.434315
30
0.0
11
0.191271
21
0.420575
31
0.0
0
LINE
8
TOP
10
0.191271
20
0.420575
30
0.0
11
0.183318
21
0.405972
31
0.0
0
LINE
8
TOP
10
0.183318
20
0.405972
30
0.0
11
0.176859
21
0.390649
31
0.0
0
LINE
8
TOP
10
0.176859
20
0.390649
30
0.0
11
0.171958
21
0.374759
31
0.0
0
LINE
8
TOP
10
0.171958
20
0.374759
30
0.0
11
0.168663
21
0.358460
31
0.0
0
LINE
8
TOP
10
0.168663
20
0.358460
30
0.0
11
0.167007
21
0.341914
31
0.0
0
LINE
8
TOP
10
0.167007
20
0.341914
30
0.0
11
0.167007
21
0.325286
31
0.0
0
LINE
8
TOP
10
0.167007
20
0.325286
30
0.0
11
0.168663
21
0.308740
31
0.0
0
LINE
8
TOP
10
0.168663
20
0.308740
30
0.0
11
0.171958
21
0.292441
31
0.0
0
LINE
8
TOP
10
0.171958
20
0.292441
30
0.0
11
0.176859
21
0.276551
31
0.0
0
LINE
8
TOP
10
0.176859
20
0.276551
30
0.0
11
0.183318
21
0.261228
31
0.0
0
LINE
8
TOP
10
0.183318
20
0.261228
30
0.0
11
0.191271
21
0.246625
31
0.0
0
LINE
8
TOP
10
0.191271
20
0.246625
30
0.0
11
0.200638
21
0.232885
31
0.0
0
LINE
8
TOP
10
0.200638
20
0.232885
30
0.0
11
0.211327
21
0.220147
31
0.0
0
LINE
8
TOP
10
0.211327
20
0.220147
30
0.0
11
0.223231
21
0.208536
31
0.0
0
LINE
8
TOP
10
0.223231
20
0.208536
30
0.0
11
0.236232
21
0.198169
31
0.0
0
LINE
8
TOP
10
0.236232
20
0.198169
30
0.0
11
0.250200
21
0.189147
31
0.0
0
LINE
8
TOP
10
0.250200
20
0.189147
30
0.0
11
0.264997
21
0.181561
31
0.0
0
LINE
8
TOP
10
0.264997
20
0.181561
30
0.0
11
0.280476
21
0.175486
31
0.0
0
LINE
8
TOP
10
0.280476
20
0.175486
30
0.0
11
0.296483
21
0.170982
31
0.0
0
LINE
8
TOP
10
0.296483
20
0.170982
30
0.0
11
0.312859
21
0.168094
31
0.0
0
LINE
8
TOP
10
0.312859
20
0.168094
30
0.0
11
0.329442
21
0.166852
31
0.0
0
LINE
8
TOP
10
0.329442
20
0.166852
30
0.0
11
0.346065
21
0.167266
31
0.0
0
LINE
8
TOP
10
0.346065
20
0.167266
30
0.0
11
0.362564
21
0.169334
31
0.0
0
LINE
8
TOP
10
0.362564
20
0.169334
30
0.0
11
0.378776
21
0.173034
31
0.0
0
LINE
8
TOP
10
0.378776
20
0.173034
30
0.0
11
0.394539
21
0.178330
31
0.0
0
LINE
8
TOP
10
0.394539
20
0.178330
30
0.0
11
0.409696
21
0.185169
31
0.0
0
LINE
8
TOP
10
0.409696
20
0.185169
30
0.0
11
0.424097
21
0.193484
31
0.0
0
LINE
8
TOP
10
0.424097
20
0.193484
30
0.0
11
0.437598
21
0.203190
31
0.0
0
LINE
8
TOP
10
0.437598
20
0.203190
30
0.0
11
0.450066
21
0.214193
31
0.0
0
LINE
8
TOP
10
0.450066
20
0.214193
30
0.0
11
0.461376
21
0.226383
31
0.0
0
LINE
8
TOP
10
0.461376
20
0.226383
30
0.0
11
0.471417
21
0.239638
31
0.0
0
LINE
8
TOP
10
0.471417
20
0.239638
30
0.0
11
0.480087
21
0.253827
31
0.0
0
LINE
8
TOP
10
0.480087
20
0.253827
30
0.0
11
0.487302
21
0.268809
31
0.0
0
LINE
8
TOP
10
0.487302
20
0.268809
30
0.0
11
0.492989
21
0.284435
31
0.0
0
LINE
8
TOP
10
0.492989
20
0.284435
30
0.0
11
0.497093
21
0.300549
31
0.0
0
LINE
8
TOP
10
0.497093
20
0.300549
30
0.0
11
0.499571
21
0.316992
31
0.0
0
LINE
8
TOP
10
0.499571
20
0.316992
30
0.0
11
0.500400
21
0.333600
31
0.0
0
ENDSEC
0
EOF
