0
SECTION
2
HEADER
9
$ACADVER
1
AC1009
0
ENDSEC
0
SECTION
2
TABLES
0
TABLE
2
LTYPE
70
3
0
LTYPE
2
CONTINUOUS
70
0
3
Solid line
72
65
73
0
40
0.0
0
LTYPE
2
HIDDEN
70
0
3
__ __ __ __ __
72
65
73
2
40
0.037500
49
0.025013
49
-0.012488
0
LTYPE
2
CENTER
70
0
3
___ _ ___ _ ___
72
65
73
4
40
0.087488
49
0.049988
49
-0.012488
49
0.012488
49
-0.012488
0
ENDTAB
0
TABLE
2
LAYER
70
5
0
LAYER
2
0
70
0
62
7
6
CONTINUOUS
0
LAYER
2
FRONT
70
0
62
7
6
CONTINUOUS
0
LAYER
2
LEFT
70
0
62
7
6
CONTINUOUS
0
LAYER
2
TOP
70
0
62
7
6
CONTINUOUS
0
LAYER
2
TOP_HID
70
0
62
7
6
HIDDEN
0
ENDTAB
0
ENDSEC
0
SECTION
2
ENTITIES
0
LINE
8
FRONT
10
0.000000
20
0.340640
30
0.0
11
0.000000
21
0.531281
31
0.0
0
LINE
8
FRONT
10
0.000000
20
0.531281
30
0.0
11
0.750000
21
0.531281
31
0.0
0
LINE
8
FRONT
10
0.750000
20
0.340640
30
0.0
11
0.750000
21
0.531281
31
0.0
0
LINE
8
FRONT
10
0.750000
20
0.340640
30
0.0
11
0.000000
21
0.340640
31
0.0
0
LINE
8
LEFT
10
0.995291
20
0.531162
30
0.0
11
1.004781
21
0.530689
31
0.0
0
LINE
8
LEFT
10
1.004781
20
0.530689
30
0.0
11
1.014178
21
0.529272
31
0.0
0
LINE
8
LEFT
10
1.014178
20
0.529272
30
0.0
11
1.023387
21
0.526927
31
0.0
0
LINE
8
LEFT
10
1.023387
20
0.526927
30
0.0
11
1.032316
21
0.523677
31
0.0
0
LINE
8
LEFT
10
1.032316
20
0.523677
30
0.0
11
1.040878
21
0.519554
31
0.0
0
LINE
8
LEFT
10
1.040878
20
0.519554
30
0.0
11
1.048986
21
0.514599
31
0.0
0
LINE
8
LEFT
10
1.048986
20
0.514599
30
0.0
11
1.056561
21
0.508861
31
0.0
0
LINE
8
LEFT
10
1.056561
20
0.508861
30
0.0
11
1.063527
21
0.502398
31
0.0
0
LINE
8
LEFT
10
1.063527
20
0.502398
30
0.0
11
1.069815
21
0.495273
31
0.0
0
LINE
8
LEFT
10
1.069815
20
0.495273
30
0.0
11
1.075362
21
0.487558
31
0.0
0
LINE
8
LEFT
10
1.075362
20
0.487558
30
0.0
11
1.080113
21
0.479328
31
0.0
0
LINE
8
LEFT
10
1.080113
20
0.479328
30
0.0
11
1.084022
21
0.470666
31
0.0
0
LINE
8
LEFT
10
1.084022
20
0.470666
30
0.0
11
1.087048
21
0.461659
31
0.0
0
LINE
8
LEFT
10
1.087048
20
0.461659
30
0.0
11
1.089163
21
0.452394
31
0.0
0
LINE
8
LEFT
10
1.089163
20
0.452394
30
0.0
11
1.090344
21
0.442965
31
0.0
0
LINE
8
LEFT
10
1.090344
20
0.442965
30
0.0
11
1.090581
21
0.433466
31
0.0
0
LINE
8
LEFT
10
1.090581
20
0.433466
30
0.0
11
1.089871
21
0.423990
31
0.0
0
LINE
8
LEFT
10
1.089871
20
0.423990
30
0.0
11
1.088221
21
0.414631
31
0.0
0
LINE
8
LEFT
10
1.088221
20
0.414631
30
0.0
11
1.085647
21
0.405484
31
0.0
0
LINE
8
LEFT
10
1.085647
20
0.405484
30
0.0
11
1.082175
21
0.396638
31
0.0
0
LINE
8
LEFT
10
1.082175
20
0.396638
30
0.0
11
1.077840
21
0.388182
31
0.0
0
LINE
8
LEFT
10
1.077840
20
0.388182
30
0.0
11
1.072685
21
0.380199
31
0.0
0
LINE
8
LEFT
10
1.072685
20
0.380199
30
0.0
11
1.066760
21
0.372770
31
0.0
0
LINE
8
LEFT
10
1.066760
20
0.372770
30
0.0
11
1.060125
21
0.365967
31
0.0
0
LINE
8
LEFT
10
1.060125
20
0.365967
30
0.0
11
1.052845
21
0.359859
31
0.0
0
LINE
8
LEFT
10
1.052845
20
0.359859
30
0.0
11
1.044994
21
0.354506
31
0.0
0
LINE
8
LEFT
10
1.044994
20
0.354506
30
0.0
11
1.036648
21
0.349962
31
0.0
0
LINE
8
LEFT
10
1.036648
20
0.349962
30
0.0
11
1.027892
21
0.346270
31
0.0
0
LINE
8
LEFT
10
1.027892
20
0.346270
30
0.0
11
1.018811
21
0.343469
31
0.0
0
LINE
8
LEFT
10
1.018811
20
0.343469
30
0.0
11
1.009497
21
0.341586
31
0.0
0
LINE
8
LEFT
10
1.009497
20
0.341586
30
0.0
11
1.000042
21
0.340640
31
0.0
0
LINE
8
LEFT
10
1.000042
20
0.340640
30
0.0
11
0.990539
21
0.340640
31
0.0
0
LINE
8
LEFT
10
0.990539
20
0.340640
30
0.0
11
0.981084
21
0.341586
31
0.0
0
LINE
8
LEFT
10
0.981084
20
0.341586
30
0.0
11
0.971770
21
0.343469
31
0.0
0
LINE
8
LEFT
10
0.971770
20
0.343469
30
0.0
11
0.962689
21
0.346270
31
0.0
0
LINE
8
LEFT
10
0.962689
20
0.346270
30
0.0
11
0.953933
21
0.349962
31
0.0
0
LINE
8
LEFT
10
0.953933
20
0.349962
30
0.0
11
0.945587
21
0.354506
31
0.0
0
LINE
8
LEFT
10
0.945587
20
0.354506
30
0.0
11
0.937736
21
0.359859
31
0.0
0
LINE
8
LEFT
10
0.937736
20
0.359859
30
0.0
11
0.930456
21
0.365967
31
0.0
0
LINE
8
LEFT
10
0.930456
20
0.365967
30
0.0
11
0.923821
21
0.372770
31
0.0
0
LINE
8
LEFT
10
0.923821
20
0.372770
30
0.0
11
0.917896
21
0.380199
31
0.0
0
LINE
8
LEFT
10
0.917896
20
0.380199
30
0.0
11
0.912741
21
0.388182
31
0.0
0
LINE
8
LEFT
10
0.912741
20
0.388182
30
0.0
11
0.908406
21
0.396638
31
0.0
0
LINE
8
LEFT
10
0.908406
20
0.396638
30
0.0
11
0.904934
21
0.405484
31
0.0
0
LINE
8
LEFT
10
0.904934
20
0.405484
30
0.0
11
0.902360
21
0.414631
31
0.0
0
LINE
8
LEFT
10
0.902360
20
0.414631
30
0.0
11
0.900710
21
0.423990
31
0.0
0
LINE
8
LEFT
10
0.900710
20
0.423990
30
0.0
11
0.900000
21
0.433466
31
0.0
0
LINE
8
LEFT
10
0.900000
20
0.433466
30
0.0
11
0.900237
21
0.442965
31
0.0
0
LINE
8
LEFT
10
0.900237
20
0.442965
30
0.0
11
0.901419
21
0.452394
31
0.0
0
LINE
8
LEFT
10
0.901419
20
0.452394
30
0.0
11
0.903533
21
0.461659
31
0.0
0
LINE
8
LEFT
10
0.903533
20
0.461659
30
0.0
11
0.906559
21
0.470666
31
0.0
0
LINE
8
LEFT
10
0.906559
20
0.470666
30
0.0
11
0.910468
21
0.479328
31
0.0
0
LINE
8
LEFT
10
0.910468
20
0.479328
30
0.0
11
0.915219
21
0.487558
31
0.0
0
LINE
8
LEFT
10
0.915219
20
0.487558
30
0.0
11
0.920766
21
0.495273
31
0.0
0
LINE
8
LEFT
10
0.920766
20
0.495273
30
0.0
11
0.927054
21
0.502398
31
0.0
0
LINE
8
LEFT
10
0.927054
20
0.502398
30
0.0
11
0.934020
21
0.508861
31
0.0
0
LINE
8
LEFT
10
0.934020
20
0.508861
30
0.0
11
0.941595
21
0.514599
31
0.0
0
LINE
8
LEFT
10
0.941595
20
0.514599
30
0.0
11
0.949703
21
0.519554
31
0.0
0
LINE
8
LEFT
10
0.949703
20
0.519554
30
0.0
11
0.958265
21
0.523677
31
0.0
0
LINE
8
LEFT
10
0.958265
20
0.523677
30
0.0
11
0.967194
21
0.526927
31
0.0
0
LINE
8
LEFT
10
0.967194
20
0.526927
30
0.0
11
0.976403
21
0.529272
31
0.0
0
LINE
8
LEFT
10
0.976403
20
0.529272
30
0.0
11
0.985800
21
0.530689
31
0.0
0
LINE
8
LEFT
10
0.985800
20
0.530689
30
0.0
11
0.995291
21
0.531162
31
0.0
0
LINE
8
TOP
10
0.000000
20
0.095320
30
0.0
11
0.000000
21
0.000000
31
0.0
0
LINE
8
TOP
10
0.000000
20
0.190640
30
0.0
11
0.000000
21
0.095320
31
0.0
0
LINE
8
TOP
10
0.750000
20
0.095320
30
0.0
11
0.750000
21
0.000000
31
0.0
0
LINE
8
TOP
10
0.750000
20
0.190640
30
0.0
11
0.750000
21
0.095320
31
0.0
0
LINE
8
TOP
10
0.750000
20
0.190640
30
0.0
11
0.000000
21
0.190640
31
0.0
0
LINE
8
TOP
10
0.750000
20
0.000000
30
0.0
11
0.000000
21
0.000000
31
0.0
0
LINE
8
TOP_HID
6
HIDDEN
10
0.000000
20
0.000000
30
0.0
11
0.000000
21
0.190640
31
0.0
0
LINE
8
TOP_HID
6
HIDDEN
10
0.750000
20
0.000000
30
0.0
11
0.750000
21
0.190640
31
0.0
0
ENDSEC
0
EOF
