0
SECTION
2
HEADER
9
$ACADVER
1
AC1009
0
ENDSEC
0
SECTION
2
TABLES
0
TABLE
2
LTYPE
70
3
0
LTYPE
2
CONTINUOUS
70
0
3
Solid line
72
65
73
0
40
0.0
0
LTYPE
2
HIDDEN
70
0
3
__ __ __ __ __
72
65
73
2
40
0.068478
49
0.045675
49
-0.022803
0
LTYPE
2
CENTER
70
0
3
___ _ ___ _ ___
72
65
73
4
40
0.159760
49
0.091282
49
-0.022803
49
0.022803
49
-0.022803
0
ENDTAB
0
TABLE
2
LAYER
70
6
0
LAYER
2
0
70
0
62
7
6
CONTINUOUS
0
LAYER
2
FRONT
70
0
62
7
6
CONTINUOUS
0
LAYER
2
LEFT
70
0
62
7
6
CONTINUOUS
0
LAYER
2
LEFT_HID
70
0
62
7
6
HIDDEN
0
LAYER
2
TOP
70
0
62
7
6
CONTINUOUS
0
LAYER
2
TOP_HID
70
0
62
7
6
HIDDEN
0
ENDTAB
0
ENDSEC
0
SECTION
2
ENTITIES
0
LINE
8
FRONT
10
0.599185
20
0.306496
30
0.0
11
0.599764
21
0.306424
31
0.0
0
LINE
8
FRONT
10
0.599764
20
0.306424
30
0.0
11
0.600343
21
0.306354
31
0.0
0
LINE
8
FRONT
10
0.600343
20
0.306354
30
0.0
11
0.600923
21
0.306287
31
0.0
0
LINE
8
FRONT
10
0.600923
20
0.306287
30
0.0
11
0.601503
21
0.306221
31
0.0
0
LINE
8
FRONT
10
0.601503
20
0.306221
30
0.0
11
0.602083
21
0.306157
31
0.0
0
LINE
8
FRONT
10
0.602083
20
0.306157
30
0.0
11
0.602663
21
0.306096
31
0.0
0
LINE
8
FRONT
10
0.602663
20
0.306096
30
0.0
11
0.603244
21
0.306036
31
0.0
0
LINE
8
FRONT
10
0.603244
20
0.306036
30
0.0
11
0.603824
21
0.305979
31
0.0
0
LINE
8
FRONT
10
0.603824
20
0.305979
30
0.0
11
0.604405
21
0.305924
31
0.0
0
LINE
8
FRONT
10
0.604405
20
0.305924
30
0.0
11
0.604987
21
0.305870
31
0.0
0
LINE
8
FRONT
10
0.604987
20
0.305870
30
0.0
11
0.605568
21
0.305819
31
0.0
0
LINE
8
FRONT
10
0.605568
20
0.305819
30
0.0
11
0.606149
21
0.305770
31
0.0
0
LINE
8
FRONT
10
0.606149
20
0.305770
30
0.0
11
0.606731
21
0.305723
31
0.0
0
LINE
8
FRONT
10
0.606731
20
0.305723
30
0.0
11
0.607313
21
0.305678
31
0.0
0
LINE
8
FRONT
10
0.607313
20
0.305678
30
0.0
11
0.607895
21
0.305636
31
0.0
0
LINE
8
FRONT
10
0.607895
20
0.305636
30
0.0
11
0.608477
21
0.305595
31
0.0
0
LINE
8
FRONT
10
0.608477
20
0.305595
30
0.0
11
0.609059
21
0.305556
31
0.0
0
LINE
8
FRONT
10
0.609059
20
0.305556
30
0.0
11
0.609642
21
0.305520
31
0.0
0
LINE
8
FRONT
10
0.609642
20
0.305520
30
0.0
11
0.610224
21
0.305485
31
0.0
0
LINE
8
FRONT
10
0.610224
20
0.305485
30
0.0
11
0.610807
21
0.305453
31
0.0
0
LINE
8
FRONT
10
0.610807
20
0.305453
30
0.0
11
0.611390
21
0.305422
31
0.0
0
LINE
8
FRONT
10
0.611390
20
0.305422
30
0.0
11
0.611973
21
0.305394
31
0.0
0
LINE
8
FRONT
10
0.611973
20
0.305394
30
0.0
11
0.612556
21
0.305368
31
0.0
0
LINE
8
FRONT
10
0.612556
20
0.305368
30
0.0
11
0.613139
21
0.305344
31
0.0
0
LINE
8
FRONT
10
0.613139
20
0.305344
30
0.0
11
0.613722
21
0.305322
31
0.0
0
LINE
8
FRONT
10
0.613722
20
0.305322
30
0.0
11
0.614305
21
0.305302
31
0.0
0
LINE
8
FRONT
10
0.614305
20
0.305302
30
0.0
11
0.614889
21
0.305284
31
0.0
0
LINE
8
FRONT
10
0.614889
20
0.305284
30
0.0
11
0.615472
21
0.305269
31
0.0
0
LINE
8
FRONT
10
0.615472
20
0.305269
30
0.0
11
0.616055
21
0.305255
31
0.0
0
LINE
8
FRONT
10
0.616055
20
0.305255
30
0.0
11
0.616639
21
0.305244
31
0.0
0
LINE
8
FRONT
10
0.616639
20
0.305244
30
0.0
11
0.617222
21
0.305234
31
0.0
0
LINE
8
FRONT
10
0.617222
20
0.305234
30
0.0
11
0.617806
21
0.305227
31
0.0
0
LINE
8
FRONT
10
0.617806
20
0.305227
30
0.0
11
0.618389
21
0.305222
31
0.0
0
LINE
8
FRONT
10
0.618389
20
0.305222
30
0.0
11
0.618973
21
0.305218
31
0.0
0
LINE
8
FRONT
10
0.618973
20
0.305218
30
0.0
11
0.619557
21
0.305217
31
0.0
0
LINE
8
FRONT
10
0.619557
20
0.305217
30
0.0
11
0.620140
21
0.305218
31
0.0
0
LINE
8
FRONT
10
0.620140
20
0.305218
30
0.0
11
0.620724
21
0.305222
31
0.0
0
LINE
8
FRONT
10
0.620724
20
0.305222
30
0.0
11
0.621307
21
0.305227
31
0.0
0
LINE
8
FRONT
10
0.621307
20
0.305227
30
0.0
11
0.621891
21
0.305234
31
0.0
0
LINE
8
FRONT
10
0.621891
20
0.305234
30
0.0
11
0.622474
21
0.305243
31
0.0
0
LINE
8
FRONT
10
0.622474
20
0.305243
30
0.0
11
0.623058
21
0.305255
31
0.0
0
LINE
8
FRONT
10
0.623058
20
0.305255
30
0.0
11
0.623641
21
0.305268
31
0.0
0
LINE
8
FRONT
10
0.623641
20
0.305268
30
0.0
11
0.624225
21
0.305284
31
0.0
0
LINE
8
FRONT
10
0.624225
20
0.305284
30
0.0
11
0.624808
21
0.305302
31
0.0
0
LINE
8
FRONT
10
0.624808
20
0.305302
30
0.0
11
0.625391
21
0.305322
31
0.0
0
LINE
8
FRONT
10
0.625391
20
0.305322
30
0.0
11
0.625974
21
0.305343
31
0.0
0
LINE
8
FRONT
10
0.625974
20
0.305343
30
0.0
11
0.626557
21
0.305367
31
0.0
0
LINE
8
FRONT
10
0.626557
20
0.305367
30
0.0
11
0.627140
21
0.305393
31
0.0
0
LINE
8
FRONT
10
0.627140
20
0.305393
30
0.0
11
0.627723
21
0.305422
31
0.0
0
LINE
8
FRONT
10
0.627723
20
0.305422
30
0.0
11
0.628306
21
0.305452
31
0.0
0
LINE
8
FRONT
10
0.628306
20
0.305452
30
0.0
11
0.628889
21
0.305484
31
0.0
0
LINE
8
FRONT
10
0.628889
20
0.305484
30
0.0
11
0.629471
21
0.305519
31
0.0
0
LINE
8
FRONT
10
0.629471
20
0.305519
30
0.0
11
0.630054
21
0.305555
31
0.0
0
LINE
8
FRONT
10
0.630054
20
0.305555
30
0.0
11
0.630636
21
0.305594
31
0.0
0
LINE
8
FRONT
10
0.630636
20
0.305594
30
0.0
11
0.631218
21
0.305634
31
0.0
0
LINE
8
FRONT
10
0.631218
20
0.305634
30
0.0
11
0.631800
21
0.305677
31
0.0
0
LINE
8
FRONT
10
0.631800
20
0.305677
30
0.0
11
0.632382
21
0.305722
31
0.0
0
LINE
8
FRONT
10
0.632382
20
0.305722
30
0.0
11
0.632964
21
0.305769
31
0.0
0
LINE
8
FRONT
10
0.632964
20
0.305769
30
0.0
11
0.633545
21
0.305818
31
0.0
0
LINE
8
FRONT
10
0.633545
20
0.305818
30
0.0
11
0.634127
21
0.305869
31
0.0
0
LINE
8
FRONT
10
0.634127
20
0.305869
30
0.0
11
0.634708
21
0.305922
31
0.0
0
LINE
8
FRONT
10
0.634708
20
0.305922
30
0.0
11
0.635289
21
0.305977
31
0.0
0
LINE
8
FRONT
10
0.635289
20
0.305977
30
0.0
11
0.635870
21
0.306035
31
0.0
0
LINE
8
FRONT
10
0.635870
20
0.630487
30
0.0
11
0.635289
21
0.630544
31
0.0
0
LINE
8
FRONT
10
0.635289
20
0.630544
30
0.0
11
0.634708
21
0.630600
31
0.0
0
LINE
8
FRONT
10
0.634708
20
0.630600
30
0.0
11
0.634127
21
0.630653
31
0.0
0
LINE
8
FRONT
10
0.634127
20
0.630653
30
0.0
11
0.633545
21
0.630704
31
0.0
0
LINE
8
FRONT
10
0.633545
20
0.630704
30
0.0
11
0.632964
21
0.630753
31
0.0
0
LINE
8
FRONT
10
0.632964
20
0.630753
30
0.0
11
0.632382
21
0.630800
31
0.0
0
LINE
8
FRONT
10
0.632382
20
0.630800
30
0.0
11
0.631800
21
0.630845
31
0.0
0
LINE
8
FRONT
10
0.631800
20
0.630845
30
0.0
11
0.631218
21
0.630887
31
0.0
0
LINE
8
FRONT
10
0.631218
20
0.630887
30
0.0
11
0.630636
21
0.630928
31
0.0
0
LINE
8
FRONT
10
0.630636
20
0.630928
30
0.0
11
0.630054
21
0.630967
31
0.0
0
LINE
8
FRONT
10
0.630054
20
0.630967
30
0.0
11
0.629471
21
0.631003
31
0.0
0
LINE
8
FRONT
10
0.629471
20
0.631003
30
0.0
11
0.628889
21
0.631038
31
0.0
0
LINE
8
FRONT
10
0.628889
20
0.631038
30
0.0
11
0.628306
21
0.631070
31
0.0
0
LINE
8
FRONT
10
0.628306
20
0.631070
30
0.0
11
0.627723
21
0.631100
31
0.0
0
LINE
8
FRONT
10
0.627723
20
0.631100
30
0.0
11
0.627140
21
0.631128
31
0.0
0
LINE
8
FRONT
10
0.627140
20
0.631128
30
0.0
11
0.626557
21
0.631154
31
0.0
0
LINE
8
FRONT
10
0.626557
20
0.631154
30
0.0
11
0.625974
21
0.631178
31
0.0
0
LINE
8
FRONT
10
0.625974
20
0.631178
30
0.0
11
0.625391
21
0.631200
31
0.0
0
LINE
8
FRONT
10
0.625391
20
0.631200
30
0.0
11
0.624808
21
0.631220
31
0.0
0
LINE
8
FRONT
10
0.624808
20
0.631220
30
0.0
11
0.624225
21
0.631238
31
0.0
0
LINE
8
FRONT
10
0.624225
20
0.631238
30
0.0
11
0.623641
21
0.631253
31
0.0
0
LINE
8
FRONT
10
0.623641
20
0.631253
30
0.0
11
0.623058
21
0.631267
31
0.0
0
LINE
8
FRONT
10
0.623058
20
0.631267
30
0.0
11
0.622474
21
0.631278
31
0.0
0
LINE
8
FRONT
10
0.622474
20
0.631278
30
0.0
11
0.621891
21
0.631288
31
0.0
0
LINE
8
FRONT
10
0.621891
20
0.631288
30
0.0
11
0.621307
21
0.631295
31
0.0
0
LINE
8
FRONT
10
0.621307
20
0.631295
30
0.0
11
0.620724
21
0.631300
31
0.0
0
LINE
8
FRONT
10
0.620724
20
0.631300
30
0.0
11
0.620140
21
0.631303
31
0.0
0
LINE
8
FRONT
10
0.620140
20
0.631303
30
0.0
11
0.619557
21
0.631304
31
0.0
0
LINE
8
FRONT
10
0.619557
20
0.631304
30
0.0
11
0.618973
21
0.631303
31
0.0
0
LINE
8
FRONT
10
0.618973
20
0.631303
30
0.0
11
0.618389
21
0.631300
31
0.0
0
LINE
8
FRONT
10
0.618389
20
0.631300
30
0.0
11
0.617806
21
0.631295
31
0.0
0
LINE
8
FRONT
10
0.617806
20
0.631295
30
0.0
11
0.617222
21
0.631288
31
0.0
0
LINE
8
FRONT
10
0.617222
20
0.631288
30
0.0
11
0.616639
21
0.631278
31
0.0
0
LINE
8
FRONT
10
0.616639
20
0.631278
30
0.0
11
0.616055
21
0.631267
31
0.0
0
LINE
8
FRONT
10
0.616055
20
0.631267
30
0.0
11
0.615472
21
0.631253
31
0.0
0
LINE
8
FRONT
10
0.615472
20
0.631253
30
0.0
11
0.614889
21
0.631237
31
0.0
0
LINE
8
FRONT
10
0.614889
20
0.631237
30
0.0
11
0.614305
21
0.631219
31
0.0
0
LINE
8
FRONT
10
0.614305
20
0.631219
30
0.0
11
0.613722
21
0.631200
31
0.0
0
LINE
8
FRONT
10
0.613722
20
0.631200
30
0.0
11
0.613139
21
0.631178
31
0.0
0
LINE
8
FRONT
10
0.613139
20
0.631178
30
0.0
11
0.612556
21
0.631154
31
0.0
0
LINE
8
FRONT
10
0.612556
20
0.631154
30
0.0
11
0.611973
21
0.631127
31
0.0
0
LINE
8
FRONT
10
0.611973
20
0.631127
30
0.0
11
0.611390
21
0.631099
31
0.0
0
LINE
8
FRONT
10
0.611390
20
0.631099
30
0.0
11
0.610807
21
0.631069
31
0.0
0
LINE
8
FRONT
10
0.610807
20
0.631069
30
0.0
11
0.610225
21
0.631037
31
0.0
0
LINE
8
FRONT
10
0.610225
20
0.631037
30
0.0
11
0.609642
21
0.631002
31
0.0
0
LINE
8
FRONT
10
0.609642
20
0.631002
30
0.0
11
0.609060
21
0.630966
31
0.0
0
LINE
8
FRONT
10
0.609060
20
0.630966
30
0.0
11
0.608477
21
0.630927
31
0.0
0
LINE
8
FRONT
10
0.608477
20
0.630927
30
0.0
11
0.607895
21
0.630886
31
0.0
0
LINE
8
FRONT
10
0.607895
20
0.630886
30
0.0
11
0.607313
21
0.630843
31
0.0
0
LINE
8
FRONT
10
0.607313
20
0.630843
30
0.0
11
0.606731
21
0.630798
31
0.0
0
LINE
8
FRONT
10
0.606731
20
0.630798
30
0.0
11
0.606150
21
0.630751
31
0.0
0
LINE
8
FRONT
10
0.606150
20
0.630751
30
0.0
11
0.605568
21
0.630702
31
0.0
0
LINE
8
FRONT
10
0.605568
20
0.630702
30
0.0
11
0.604987
21
0.630651
31
0.0
0
LINE
8
FRONT
10
0.604987
20
0.630651
30
0.0
11
0.604406
21
0.630598
31
0.0
0
LINE
8
FRONT
10
0.604406
20
0.630598
30
0.0
11
0.603825
21
0.630543
31
0.0
0
LINE
8
FRONT
10
0.603825
20
0.630543
30
0.0
11
0.603244
21
0.630485
31
0.0
0
LINE
8
FRONT
10
0.603244
20
0.630485
30
0.0
11
0.602663
21
0.630426
31
0.0
0
LINE
8
FRONT
10
0.602663
20
0.630426
30
0.0
11
0.602083
21
0.630364
31
0.0
0
LINE
8
FRONT
10
0.602083
20
0.630364
30
0.0
11
0.601503
21
0.630301
31
0.0
0
LINE
8
FRONT
10
0.601503
20
0.630301
30
0.0
11
0.600923
21
0.630235
31
0.0
0
LINE
8
FRONT
10
0.600923
20
0.630235
30
0.0
11
0.600343
21
0.630167
31
0.0
0
LINE
8
FRONT
10
0.600343
20
0.630167
30
0.0
11
0.599764
21
0.630097
31
0.0
0
LINE
8
FRONT
10
0.599764
20
0.630097
30
0.0
11
0.599185
21
0.630026
31
0.0
0
LINE
8
FRONT
10
0.586957
20
0.468261
30
0.0
11
0.587119
21
0.465014
31
0.0
0
LINE
8
FRONT
10
0.587119
20
0.465014
30
0.0
11
0.587603
21
0.461800
31
0.0
0
LINE
8
FRONT
10
0.587603
20
0.461800
30
0.0
11
0.588405
21
0.458649
31
0.0
0
LINE
8
FRONT
10
0.588405
20
0.458649
30
0.0
11
0.589517
21
0.455595
31
0.0
0
LINE
8
FRONT
10
0.589517
20
0.455595
30
0.0
11
0.590928
21
0.452666
31
0.0
0
LINE
8
FRONT
10
0.590928
20
0.452666
30
0.0
11
0.592623
21
0.449892
31
0.0
0
LINE
8
FRONT
10
0.592623
20
0.449892
30
0.0
11
0.594586
21
0.447300
31
0.0
0
LINE
8
FRONT
10
0.594586
20
0.447300
30
0.0
11
0.596797
21
0.444917
31
0.0
0
LINE
8
FRONT
10
0.596797
20
0.444917
30
0.0
11
0.599234
21
0.442766
31
0.0
0
LINE
8
FRONT
10
0.599234
20
0.442766
30
0.0
11
0.601873
21
0.440869
31
0.0
0
LINE
8
FRONT
10
0.601873
20
0.440869
30
0.0
11
0.604689
21
0.439243
31
0.0
0
LINE
8
FRONT
10
0.604689
20
0.439243
30
0.0
11
0.607652
21
0.437906
31
0.0
0
LINE
8
FRONT
10
0.607652
20
0.437906
30
0.0
11
0.610733
21
0.436871
31
0.0
0
LINE
8
FRONT
10
0.610733
20
0.436871
30
0.0
11
0.613903
21
0.436148
31
0.0
0
LINE
8
FRONT
10
0.613903
20
0.436148
30
0.0
11
0.617128
21
0.435743
31
0.0
0
LINE
8
FRONT
10
0.617128
20
0.435743
30
0.0
11
0.620378
21
0.435662
31
0.0
0
LINE
8
FRONT
10
0.620378
20
0.435662
30
0.0
11
0.623620
21
0.435905
31
0.0
0
LINE
8
FRONT
10
0.623620
20
0.435905
30
0.0
11
0.626821
21
0.436470
31
0.0
0
LINE
8
FRONT
10
0.626821
20
0.436470
30
0.0
11
0.629951
21
0.437350
31
0.0
0
LINE
8
FRONT
10
0.629951
20
0.437350
30
0.0
11
0.632977
21
0.438538
31
0.0
0
LINE
8
FRONT
10
0.632977
20
0.438538
30
0.0
11
0.635870
21
0.440021
31
0.0
0
LINE
8
FRONT
10
0.635870
20
0.440021
30
0.0
11
0.638600
21
0.441785
31
0.0
0
LINE
8
FRONT
10
0.638600
20
0.441785
30
0.0
11
0.641142
21
0.443811
31
0.0
0
LINE
8
FRONT
10
0.641142
20
0.443811
30
0.0
11
0.643469
21
0.446081
31
0.0
0
LINE
8
FRONT
10
0.643469
20
0.446081
30
0.0
11
0.645559
21
0.448572
31
0.0
0
LINE
8
FRONT
10
0.645559
20
0.448572
30
0.0
11
0.647390
21
0.451258
31
0.0
0
LINE
8
FRONT
10
0.647390
20
0.451258
30
0.0
11
0.648945
21
0.454112
31
0.0
0
LINE
8
FRONT
10
0.648945
20
0.454112
30
0.0
11
0.650207
21
0.457108
31
0.0
0
LINE
8
FRONT
10
0.650207
20
0.457108
30
0.0
11
0.651166
21
0.460214
31
0.0
0
LINE
8
FRONT
10
0.651166
20
0.460214
30
0.0
11
0.651810
21
0.463401
31
0.0
0
LINE
8
FRONT
10
0.651810
20
0.463401
30
0.0
11
0.652133
21
0.466635
31
0.0
0
LINE
8
FRONT
10
0.652133
20
0.466635
30
0.0
11
0.652133
21
0.469886
31
0.0
0
LINE
8
FRONT
10
0.652133
20
0.469886
30
0.0
11
0.651810
21
0.473121
31
0.0
0
LINE
8
FRONT
10
0.651810
20
0.473121
30
0.0
11
0.651166
21
0.476307
31
0.0
0
LINE
8
FRONT
10
0.651166
20
0.476307
30
0.0
11
0.650207
21
0.479414
31
0.0
0
LINE
8
FRONT
10
0.650207
20
0.479414
30
0.0
11
0.648945
21
0.482409
31
0.0
0
LINE
8
FRONT
10
0.648945
20
0.482409
30
0.0
11
0.647390
21
0.485264
31
0.0
0
LINE
8
FRONT
10
0.647390
20
0.485264
30
0.0
11
0.645559
21
0.487950
31
0.0
0
LINE
8
FRONT
10
0.645559
20
0.487950
30
0.0
11
0.643469
21
0.490440
31
0.0
0
LINE
8
FRONT
10
0.643469
20
0.490440
30
0.0
11
0.641142
21
0.492710
31
0.0
0
LINE
8
FRONT
10
0.641142
20
0.492710
30
0.0
11
0.638600
21
0.494737
31
0.0
0
LINE
8
FRONT
10
0.638600
20
0.494737
30
0.0
11
0.635870
21
0.496501
31
0.0
0
LINE
8
FRONT
10
0.635870
20
0.496501
30
0.0
11
0.632977
21
0.497984
31
0.0
0
LINE
8
FRONT
10
0.632977
20
0.497984
30
0.0
11
0.629951
21
0.499172
31
0.0
0
LINE
8
FRONT
10
0.629951
20
0.499172
30
0.0
11
0.626821
21
0.500052
31
0.0
0
LINE
8
FRONT
10
0.626821
20
0.500052
30
0.0
11
0.623620
21
0.500616
31
0.0
0
LINE
8
FRONT
10
0.623620
20
0.500616
30
0.0
11
0.620378
21
0.500859
31
0.0
0
LINE
8
FRONT
10
0.620378
20
0.500859
30
0.0
11
0.617128
21
0.500778
31
0.0
0
LINE
8
FRONT
10
0.617128
20
0.500778
30
0.0
11
0.613903
21
0.500374
31
0.0
0
LINE
8
FRONT
10
0.613903
20
0.500374
30
0.0
11
0.610733
21
0.499651
31
0.0
0
LINE
8
FRONT
10
0.610733
20
0.499651
30
0.0
11
0.607652
21
0.498615
31
0.0
0
LINE
8
FRONT
10
0.607652
20
0.498615
30
0.0
11
0.604689
21
0.497278
31
0.0
0
LINE
8
FRONT
10
0.604689
20
0.497278
30
0.0
11
0.601873
21
0.495653
31
0.0
0
LINE
8
FRONT
10
0.601873
20
0.495653
30
0.0
11
0.599234
21
0.493755
31
0.0
0
LINE
8
FRONT
10
0.599234
20
0.493755
30
0.0
11
0.596797
21
0.491604
31
0.0
0
LINE
8
FRONT
10
0.596797
20
0.491604
30
0.0
11
0.594586
21
0.489221
31
0.0
0
LINE
8
FRONT
10
0.594586
20
0.489221
30
0.0
11
0.592623
21
0.486630
31
0.0
0
LINE
8
FRONT
10
0.592623
20
0.486630
30
0.0
11
0.590928
21
0.483856
31
0.0
0
LINE
8
FRONT
10
0.590928
20
0.483856
30
0.0
11
0.589517
21
0.480927
31
0.0
0
LINE
8
FRONT
10
0.589517
20
0.480927
30
0.0
11
0.588405
21
0.477872
31
0.0
0
LINE
8
FRONT
10
0.588405
20
0.477872
30
0.0
11
0.587603
21
0.474722
31
0.0
0
LINE
8
FRONT
10
0.587603
20
0.474722
30
0.0
11
0.587119
21
0.471508
31
0.0
0
LINE
8
FRONT
10
0.587119
20
0.471508
30
0.0
11
0.586957
21
0.468261
31
0.0
0
LINE
8
FRONT
10
0.635870
20
0.306035
30
0.0
11
1.281522
21
0.370925
31
0.0
0
LINE
8
FRONT
10
0.085598
20
0.371202
30
0.0
11
0.599185
21
0.306496
31
0.0
0
LINE
8
FRONT
10
0.599185
20
0.630026
30
0.0
11
0.085598
21
0.565320
31
0.0
0
LINE
8
FRONT
10
0.211826
20
0.435652
30
0.0
11
0.211988
21
0.432405
31
0.0
0
LINE
8
FRONT
10
0.211988
20
0.432405
30
0.0
11
0.212473
21
0.429191
31
0.0
0
LINE
8
FRONT
10
0.212473
20
0.429191
30
0.0
11
0.213275
21
0.426041
31
0.0
0
LINE
8
FRONT
10
0.213275
20
0.426041
30
0.0
11
0.214387
21
0.422986
31
0.0
0
LINE
8
FRONT
10
0.214387
20
0.422986
30
0.0
11
0.215797
21
0.420057
31
0.0
0
LINE
8
FRONT
10
0.215797
20
0.420057
30
0.0
11
0.217492
21
0.417283
31
0.0
0
LINE
8
FRONT
10
0.217492
20
0.417283
30
0.0
11
0.219455
21
0.414692
31
0.0
0
LINE
8
FRONT
10
0.219455
20
0.414692
30
0.0
11
0.221666
21
0.412309
31
0.0
0
LINE
8
FRONT
10
0.221666
20
0.412309
30
0.0
11
0.224104
21
0.410158
31
0.0
0
LINE
8
FRONT
10
0.224104
20
0.410158
30
0.0
11
0.226743
21
0.408260
31
0.0
0
LINE
8
FRONT
10
0.226743
20
0.408260
30
0.0
11
0.229558
21
0.406635
31
0.0
0
LINE
8
FRONT
10
0.229558
20
0.406635
30
0.0
11
0.232521
21
0.405298
31
0.0
0
LINE
8
FRONT
10
0.232521
20
0.405298
30
0.0
11
0.235603
21
0.404262
31
0.0
0
LINE
8
FRONT
10
0.235603
20
0.404262
30
0.0
11
0.238772
21
0.403539
31
0.0
0
LINE
8
FRONT
10
0.238772
20
0.403539
30
0.0
11
0.241998
21
0.403135
31
0.0
0
LINE
8
FRONT
10
0.241998
20
0.403135
30
0.0
11
0.245248
21
0.403054
31
0.0
0
LINE
8
FRONT
10
0.245248
20
0.403054
30
0.0
11
0.248489
21
0.403297
31
0.0
0
LINE
8
FRONT
10
0.248489
20
0.403297
30
0.0
11
0.251691
21
0.403861
31
0.0
0
LINE
8
FRONT
10
0.251691
20
0.403861
30
0.0
11
0.254820
21
0.404741
31
0.0
0
LINE
8
FRONT
10
0.254820
20
0.404741
30
0.0
11
0.257846
21
0.405929
31
0.0
0
LINE
8
FRONT
10
0.257846
20
0.405929
30
0.0
11
0.260739
21
0.407412
31
0.0
0
LINE
8
FRONT
10
0.260739
20
0.407412
30
0.0
11
0.263470
21
0.409176
31
0.0
0
LINE
8
FRONT
10
0.263470
20
0.409176
30
0.0
11
0.266011
21
0.411203
31
0.0
0
LINE
8
FRONT
10
0.266011
20
0.411203
30
0.0
11
0.268339
21
0.413473
31
0.0
0
LINE
8
FRONT
10
0.268339
20
0.413473
30
0.0
11
0.270428
21
0.415963
31
0.0
0
LINE
8
FRONT
10
0.270428
20
0.415963
30
0.0
11
0.272259
21
0.418649
31
0.0
0
LINE
8
FRONT
10
0.272259
20
0.418649
30
0.0
11
0.273814
21
0.421504
31
0.0
0
LINE
8
FRONT
10
0.273814
20
0.421504
30
0.0
11
0.275077
21
0.424499
31
0.0
0
LINE
8
FRONT
10
0.275077
20
0.424499
30
0.0
11
0.276035
21
0.427606
31
0.0
0
LINE
8
FRONT
10
0.276035
20
0.427606
30
0.0
11
0.276679
21
0.430792
31
0.0
0
LINE
8
FRONT
10
0.276679
20
0.430792
30
0.0
11
0.277003
21
0.434027
31
0.0
0
LINE
8
FRONT
10
0.277003
20
0.434027
30
0.0
11
0.277003
21
0.437278
31
0.0
0
LINE
8
FRONT
10
0.277003
20
0.437278
30
0.0
11
0.276679
21
0.440512
31
0.0
0
LINE
8
FRONT
10
0.276679
20
0.440512
30
0.0
11
0.276035
21
0.443699
31
0.0
0
LINE
8
FRONT
10
0.276035
20
0.443699
30
0.0
11
0.275077
21
0.446805
31
0.0
0
LINE
8
FRONT
10
0.275077
20
0.446805
30
0.0
11
0.273814
21
0.449801
31
0.0
0
LINE
8
FRONT
10
0.273814
20
0.449801
30
0.0
11
0.272259
21
0.452655
31
0.0
0
LINE
8
FRONT
10
0.272259
20
0.452655
30
0.0
11
0.270428
21
0.455341
31
0.0
0
LINE
8
FRONT
10
0.270428
20
0.455341
30
0.0
11
0.268339
21
0.457832
31
0.0
0
LINE
8
FRONT
10
0.268339
20
0.457832
30
0.0
11
0.266011
21
0.460102
31
0.0
0
LINE
8
FRONT
10
0.266011
20
0.460102
30
0.0
11
0.263470
21
0.462128
31
0.0
0
LINE
8
FRONT
10
0.263470
20
0.462128
30
0.0
11
0.260739
21
0.463892
31
0.0
0
LINE
8
FRONT
10
0.260739
20
0.463892
30
0.0
11
0.257846
21
0.465375
31
0.0
0
LINE
8
FRONT
10
0.257846
20
0.465375
30
0.0
11
0.254820
21
0.466563
31
0.0
0
LINE
8
FRONT
10
0.254820
20
0.466563
30
0.0
11
0.251691
21
0.467443
31
0.0
0
LINE
8
FRONT
10
0.251691
20
0.467443
30
0.0
11
0.248489
21
0.468008
31
0.0
0
LINE
8
FRONT
10
0.248489
20
0.468008
30
0.0
11
0.245248
21
0.468251
31
0.0
0
LINE
8
FRONT
10
0.245248
20
0.468251
30
0.0
11
0.241998
21
0.468170
31
0.0
0
LINE
8
FRONT
10
0.241998
20
0.468170
30
0.0
11
0.238772
21
0.467765
31
0.0
0
LINE
8
FRONT
10
0.238772
20
0.467765
30
0.0
11
0.235603
21
0.467042
31
0.0
0
LINE
8
FRONT
10
0.235603
20
0.467042
30
0.0
11
0.232521
21
0.466007
31
0.0
0
LINE
8
FRONT
10
0.232521
20
0.466007
30
0.0
11
0.229558
21
0.464670
31
0.0
0
LINE
8
FRONT
10
0.229558
20
0.464670
30
0.0
11
0.226743
21
0.463044
31
0.0
0
LINE
8
FRONT
10
0.226743
20
0.463044
30
0.0
11
0.224104
21
0.461147
31
0.0
0
LINE
8
FRONT
10
0.224104
20
0.461147
30
0.0
11
0.221666
21
0.458996
31
0.0
0
LINE
8
FRONT
10
0.221666
20
0.458996
30
0.0
11
0.219455
21
0.456613
31
0.0
0
LINE
8
FRONT
10
0.219455
20
0.456613
30
0.0
11
0.217492
21
0.454021
31
0.0
0
LINE
8
FRONT
10
0.217492
20
0.454021
30
0.0
11
0.215797
21
0.451247
31
0.0
0
LINE
8
FRONT
10
0.215797
20
0.451247
30
0.0
11
0.214387
21
0.448319
31
0.0
0
LINE
8
FRONT
10
0.214387
20
0.448319
30
0.0
11
0.213275
21
0.445264
31
0.0
0
LINE
8
FRONT
10
0.213275
20
0.445264
30
0.0
11
0.212473
21
0.442113
31
0.0
0
LINE
8
FRONT
10
0.212473
20
0.442113
30
0.0
11
0.211988
21
0.438899
31
0.0
0
LINE
8
FRONT
10
0.211988
20
0.438899
30
0.0
11
0.211826
21
0.435652
31
0.0
0
LINE
8
FRONT
10
1.369503
20
0.471755
30
0.0
11
1.353209
21
0.927694
31
0.0
0
LINE
8
FRONT
10
1.190269
20
0.927694
30
0.0
11
1.180812
21
0.663067
31
0.0
0
LINE
8
FRONT
10
1.180812
20
0.663067
30
0.0
11
1.180709
21
0.660950
31
0.0
0
LINE
8
FRONT
10
1.180709
20
0.660950
30
0.0
11
1.180551
21
0.658837
31
0.0
0
LINE
8
FRONT
10
1.180551
20
0.658837
30
0.0
11
1.180338
21
0.656728
31
0.0
0
LINE
8
FRONT
10
1.180338
20
0.656728
30
0.0
11
1.180071
21
0.654626
31
0.0
0
LINE
8
FRONT
10
1.180071
20
0.654626
30
0.0
11
1.179749
21
0.652531
31
0.0
0
LINE
8
FRONT
10
1.179749
20
0.652531
30
0.0
11
1.179373
21
0.650445
31
0.0
0
LINE
8
FRONT
10
1.179373
20
0.650445
30
0.0
11
1.178942
21
0.648370
31
0.0
0
LINE
8
FRONT
10
1.178942
20
0.648370
30
0.0
11
1.178458
21
0.646307
31
0.0
0
LINE
8
FRONT
10
1.178458
20
0.646307
30
0.0
11
1.177921
21
0.644257
31
0.0
0
LINE
8
FRONT
10
1.177921
20
0.644257
30
0.0
11
1.177331
21
0.642221
31
0.0
0
LINE
8
FRONT
10
1.177331
20
0.642221
30
0.0
11
1.176688
21
0.640202
31
0.0
0
LINE
8
FRONT
10
1.176688
20
0.640202
30
0.0
11
1.175992
21
0.638200
31
0.0
0
LINE
8
FRONT
10
1.175992
20
0.638200
30
0.0
11
1.175245
21
0.636216
31
0.0
0
LINE
8
FRONT
10
1.175245
20
0.636216
30
0.0
11
1.174447
21
0.634253
31
0.0
0
LINE
8
FRONT
10
1.174447
20
0.634253
30
0.0
11
1.173598
21
0.632311
31
0.0
0
LINE
8
FRONT
10
1.173598
20
0.632311
30
0.0
11
1.172699
21
0.630392
31
0.0
0
LINE
8
FRONT
10
1.172699
20
0.630392
30
0.0
11
1.171751
21
0.628497
31
0.0
0
LINE
8
FRONT
10
1.171751
20
0.628497
30
0.0
11
1.170754
21
0.626627
31
0.0
0
LINE
8
FRONT
10
1.170754
20
0.626627
30
0.0
11
1.169708
21
0.624783
31
0.0
0
LINE
8
FRONT
10
1.169708
20
0.624783
30
0.0
11
1.168615
21
0.622968
31
0.0
0
LINE
8
FRONT
10
1.168615
20
0.622968
30
0.0
11
1.167475
21
0.621181
31
0.0
0
LINE
8
FRONT
10
1.167475
20
0.621181
30
0.0
11
1.166290
21
0.619424
31
0.0
0
LINE
8
FRONT
10
1.166290
20
0.619424
30
0.0
11
1.165059
21
0.617699
31
0.0
0
LINE
8
FRONT
10
1.165059
20
0.617699
30
0.0
11
1.163783
21
0.616006
31
0.0
0
LINE
8
FRONT
10
1.163783
20
0.616006
30
0.0
11
1.162465
21
0.614347
31
0.0
0
LINE
8
FRONT
10
1.162465
20
0.614347
30
0.0
11
1.161103
21
0.612723
31
0.0
0
LINE
8
FRONT
10
1.161103
20
0.612723
30
0.0
11
1.159700
21
0.611135
31
0.0
0
LINE
8
FRONT
10
1.159700
20
0.611135
30
0.0
11
1.158256
21
0.609583
31
0.0
0
LINE
8
FRONT
10
1.158256
20
0.609583
30
0.0
11
1.156773
21
0.608070
31
0.0
0
LINE
8
FRONT
10
1.156773
20
0.608070
30
0.0
11
1.155250
21
0.606596
31
0.0
0
LINE
8
FRONT
10
1.155250
20
0.606596
30
0.0
11
1.153690
21
0.605161
31
0.0
0
LINE
8
FRONT
10
1.153690
20
0.605161
30
0.0
11
1.152093
21
0.603768
31
0.0
0
LINE
8
FRONT
10
1.152093
20
0.603768
30
0.0
11
1.150461
21
0.602416
31
0.0
0
LINE
8
FRONT
10
1.150461
20
0.602416
30
0.0
11
1.148794
21
0.601108
31
0.0
0
LINE
8
FRONT
10
1.148794
20
0.601108
30
0.0
11
1.147093
21
0.599843
31
0.0
0
LINE
8
FRONT
10
1.147093
20
0.599843
30
0.0
11
1.145360
21
0.598623
31
0.0
0
LINE
8
FRONT
10
1.145360
20
0.598623
30
0.0
11
1.143597
21
0.597447
31
0.0
0
LINE
8
FRONT
10
1.143597
20
0.597447
30
0.0
11
1.141803
21
0.596319
31
0.0
0
LINE
8
FRONT
10
1.141803
20
0.596319
30
0.0
11
1.139981
21
0.595237
31
0.0
0
LINE
8
FRONT
10
1.139981
20
0.595237
30
0.0
11
1.138131
21
0.594203
31
0.0
0
LINE
8
FRONT
10
1.138131
20
0.594203
30
0.0
11
1.136255
21
0.593217
31
0.0
0
LINE
8
FRONT
10
1.136255
20
0.593217
30
0.0
11
1.134354
21
0.592280
31
0.0
0
LINE
8
FRONT
10
1.134354
20
0.592280
30
0.0
11
1.132429
21
0.591393
31
0.0
0
LINE
8
FRONT
10
1.132429
20
0.591393
30
0.0
11
1.130482
21
0.590556
31
0.0
0
LINE
8
FRONT
10
1.130482
20
0.590556
30
0.0
11
1.128514
21
0.589769
31
0.0
0
LINE
8
FRONT
10
1.128514
20
0.589769
30
0.0
11
1.126526
21
0.589035
31
0.0
0
LINE
8
FRONT
10
1.126526
20
0.589035
30
0.0
11
1.124520
21
0.588352
31
0.0
0
LINE
8
FRONT
10
1.124520
20
0.588352
30
0.0
11
1.122496
21
0.587721
31
0.0
0
LINE
8
FRONT
10
1.122496
20
0.587721
30
0.0
11
1.120457
21
0.587143
31
0.0
0
LINE
8
FRONT
10
1.120457
20
0.587143
30
0.0
11
1.118404
21
0.586618
31
0.0
0
LINE
8
FRONT
10
1.118404
20
0.586618
30
0.0
11
1.116338
21
0.586147
31
0.0
0
LINE
8
FRONT
10
1.116338
20
0.586147
30
0.0
11
1.114260
21
0.585729
31
0.0
0
LINE
8
FRONT
10
1.114260
20
0.585729
30
0.0
11
1.112172
21
0.585366
31
0.0
0
LINE
8
FRONT
10
1.112172
20
0.585366
30
0.0
11
1.110076
21
0.585057
31
0.0
0
LINE
8
FRONT
10
1.110076
20
0.585057
30
0.0
11
1.107972
21
0.584802
31
0.0
0
LINE
8
FRONT
10
1.107972
20
0.584802
30
0.0
11
1.105862
21
0.584602
31
0.0
0
LINE
8
FRONT
10
1.105862
20
0.584602
30
0.0
11
1.103747
21
0.584457
31
0.0
0
LINE
8
FRONT
10
1.103747
20
0.584457
30
0.0
11
1.101630
21
0.584367
31
0.0
0
LINE
8
FRONT
10
1.101630
20
0.584367
30
0.0
11
1.099511
21
0.584331
31
0.0
0
LINE
8
FRONT
10
1.099511
20
0.584331
30
0.0
11
1.097392
21
0.584351
31
0.0
0
LINE
8
FRONT
10
1.097392
20
0.584351
30
0.0
11
1.095274
21
0.584426
31
0.0
0
LINE
8
FRONT
10
1.095274
20
0.584426
30
0.0
11
1.093158
21
0.584556
31
0.0
0
LINE
8
FRONT
10
1.093158
20
0.584556
30
0.0
11
1.091047
21
0.584740
31
0.0
0
LINE
8
FRONT
10
1.091047
20
0.584740
30
0.0
11
0.635870
21
0.630487
31
0.0
0
LINE
8
FRONT
10
1.281522
20
0.370925
30
0.0
11
1.283846
21
0.371187
31
0.0
0
LINE
8
FRONT
10
1.283846
20
0.371187
30
0.0
11
1.286163
21
0.371504
31
0.0
0
LINE
8
FRONT
10
1.286163
20
0.371504
30
0.0
11
1.288473
21
0.371877
31
0.0
0
LINE
8
FRONT
10
1.288473
20
0.371877
30
0.0
11
1.290772
21
0.372304
31
0.0
0
LINE
8
FRONT
10
1.290772
20
0.372304
30
0.0
11
1.293061
21
0.372787
31
0.0
0
LINE
8
FRONT
10
1.293061
20
0.372787
30
0.0
11
1.295337
21
0.373324
31
0.0
0
LINE
8
FRONT
10
1.295337
20
0.373324
30
0.0
11
1.297600
21
0.373915
31
0.0
0
LINE
8
FRONT
10
1.297600
20
0.373915
30
0.0
11
1.299849
21
0.374560
31
0.0
0
LINE
8
FRONT
10
1.299849
20
0.374560
30
0.0
11
1.302081
21
0.375259
31
0.0
0
LINE
8
FRONT
10
1.302081
20
0.375259
30
0.0
11
1.304296
21
0.376011
31
0.0
0
LINE
8
FRONT
10
1.304296
20
0.376011
30
0.0
11
1.306492
21
0.376816
31
0.0
0
LINE
8
FRONT
10
1.306492
20
0.376816
30
0.0
11
1.308668
21
0.377673
31
0.0
0
LINE
8
FRONT
10
1.308668
20
0.377673
30
0.0
11
1.310823
21
0.378582
31
0.0
0
LINE
8
FRONT
10
1.310823
20
0.378582
30
0.0
11
1.312956
21
0.379542
31
0.0
0
LINE
8
FRONT
10
1.312956
20
0.379542
30
0.0
11
1.315066
21
0.380552
31
0.0
0
LINE
8
FRONT
10
1.315066
20
0.380552
30
0.0
11
1.317150
21
0.381613
31
0.0
0
LINE
8
FRONT
10
1.317150
20
0.381613
30
0.0
11
1.319209
21
0.382724
31
0.0
0
LINE
8
FRONT
10
1.319209
20
0.382724
30
0.0
11
1.321240
21
0.383883
31
0.0
0
LINE
8
FRONT
10
1.321240
20
0.383883
30
0.0
11
1.323243
21
0.385091
31
0.0
0
LINE
8
FRONT
10
1.323243
20
0.385091
30
0.0
11
1.325217
21
0.386346
31
0.0
0
LINE
8
FRONT
10
1.325217
20
0.386346
30
0.0
11
1.327160
21
0.387648
31
0.0
0
LINE
8
FRONT
10
1.327160
20
0.387648
30
0.0
11
1.329072
21
0.388996
31
0.0
0
LINE
8
FRONT
10
1.329072
20
0.388996
30
0.0
11
1.330950
21
0.390389
31
0.0
0
LINE
8
FRONT
10
1.330950
20
0.390389
30
0.0
11
1.332795
21
0.391827
31
0.0
0
LINE
8
FRONT
10
1.332795
20
0.391827
30
0.0
11
1.334605
21
0.393309
31
0.0
0
LINE
8
FRONT
10
1.334605
20
0.393309
30
0.0
11
1.336379
21
0.394833
31
0.0
0
LINE
8
FRONT
10
1.336379
20
0.394833
30
0.0
11
1.338116
21
0.396400
31
0.0
0
LINE
8
FRONT
10
1.338116
20
0.396400
30
0.0
11
1.339815
21
0.398007
31
0.0
0
LINE
8
FRONT
10
1.339815
20
0.398007
30
0.0
11
1.341475
21
0.399655
31
0.0
0
LINE
8
FRONT
10
1.341475
20
0.399655
30
0.0
11
1.343096
21
0.401342
31
0.0
0
LINE
8
FRONT
10
1.343096
20
0.401342
30
0.0
11
1.344675
21
0.403067
31
0.0
0
LINE
8
FRONT
10
1.344675
20
0.403067
30
0.0
11
1.346213
21
0.404829
31
0.0
0
LINE
8
FRONT
10
1.346213
20
0.404829
30
0.0
11
1.347708
21
0.406628
31
0.0
0
LINE
8
FRONT
10
1.347708
20
0.406628
30
0.0
11
1.349160
21
0.408462
31
0.0
0
LINE
8
FRONT
10
1.349160
20
0.408462
30
0.0
11
1.350568
21
0.410330
31
0.0
0
LINE
8
FRONT
10
1.350568
20
0.410330
30
0.0
11
1.351930
21
0.412231
31
0.0
0
LINE
8
FRONT
10
1.351930
20
0.412231
30
0.0
11
1.353247
21
0.414164
31
0.0
0
LINE
8
FRONT
10
1.353247
20
0.414164
30
0.0
11
1.354517
21
0.416128
31
0.0
0
LINE
8
FRONT
10
1.354517
20
0.416128
30
0.0
11
1.355740
21
0.418122
31
0.0
0
LINE
8
FRONT
10
1.355740
20
0.418122
30
0.0
11
1.356914
21
0.420145
31
0.0
0
LINE
8
FRONT
10
1.356914
20
0.420145
30
0.0
11
1.358040
21
0.422195
31
0.0
0
LINE
8
FRONT
10
1.358040
20
0.422195
30
0.0
11
1.359117
21
0.424271
31
0.0
0
LINE
8
FRONT
10
1.359117
20
0.424271
30
0.0
11
1.360144
21
0.426373
31
0.0
0
LINE
8
FRONT
10
1.360144
20
0.426373
30
0.0
11
1.361120
21
0.428499
31
0.0
0
LINE
8
FRONT
10
1.361120
20
0.428499
30
0.0
11
1.362045
21
0.430647
31
0.0
0
LINE
8
FRONT
10
1.362045
20
0.430647
30
0.0
11
1.362918
21
0.432817
31
0.0
0
LINE
8
FRONT
10
1.362918
20
0.432817
30
0.0
11
1.363740
21
0.435007
31
0.0
0
LINE
8
FRONT
10
1.363740
20
0.435007
30
0.0
11
1.364508
21
0.437216
31
0.0
0
LINE
8
FRONT
10
1.364508
20
0.437216
30
0.0
11
1.365224
21
0.439443
31
0.0
0
LINE
8
FRONT
10
1.365224
20
0.439443
30
0.0
11
1.365886
21
0.441686
31
0.0
0
LINE
8
FRONT
10
1.365886
20
0.441686
30
0.0
11
1.366495
21
0.443944
31
0.0
0
LINE
8
FRONT
10
1.366495
20
0.443944
30
0.0
11
1.367049
21
0.446217
31
0.0
0
LINE
8
FRONT
10
1.367049
20
0.446217
30
0.0
11
1.367549
21
0.448502
31
0.0
0
LINE
8
FRONT
10
1.367549
20
0.448502
30
0.0
11
1.367994
21
0.450798
31
0.0
0
LINE
8
FRONT
10
1.367994
20
0.450798
30
0.0
11
1.368384
21
0.453104
31
0.0
0
LINE
8
FRONT
10
1.368384
20
0.453104
30
0.0
11
1.368719
21
0.455419
31
0.0
0
LINE
8
FRONT
10
1.368719
20
0.455419
30
0.0
11
1.368998
21
0.457741
31
0.0
0
LINE
8
FRONT
10
1.368998
20
0.457741
30
0.0
11
1.369222
21
0.460070
31
0.0
0
LINE
8
FRONT
10
1.369222
20
0.460070
30
0.0
11
1.369390
21
0.462403
31
0.0
0
LINE
8
FRONT
10
1.369390
20
0.462403
30
0.0
11
1.369502
21
0.464739
31
0.0
0
LINE
8
FRONT
10
1.369502
20
0.464739
30
0.0
11
1.369558
21
0.467077
31
0.0
0
LINE
8
FRONT
10
1.369558
20
0.467077
30
0.0
11
1.369558
21
0.469416
31
0.0
0
LINE
8
FRONT
10
1.369558
20
0.469416
30
0.0
11
1.369503
21
0.471755
31
0.0
0
LINE
8
FRONT
10
0.000000
20
0.468261
30
0.0
11
0.000026
21
0.466017
31
0.0
0
LINE
8
FRONT
10
0.000026
20
0.466017
30
0.0
11
0.000103
21
0.463773
31
0.0
0
LINE
8
FRONT
10
0.000103
20
0.463773
30
0.0
11
0.000232
21
0.461533
31
0.0
0
LINE
8
FRONT
10
0.000232
20
0.461533
30
0.0
11
0.000412
21
0.459295
31
0.0
0
LINE
8
FRONT
10
0.000412
20
0.459295
30
0.0
11
0.000643
21
0.457063
31
0.0
0
LINE
8
FRONT
10
0.000643
20
0.457063
30
0.0
11
0.000926
21
0.454836
31
0.0
0
LINE
8
FRONT
10
0.000926
20
0.454836
30
0.0
11
0.001259
21
0.452617
31
0.0
0
LINE
8
FRONT
10
0.001259
20
0.452617
30
0.0
11
0.001643
21
0.450405
31
0.0
0
LINE
8
FRONT
10
0.001643
20
0.450405
30
0.0
11
0.002078
21
0.448203
31
0.0
0
LINE
8
FRONT
10
0.002078
20
0.448203
30
0.0
11
0.002564
21
0.446012
31
0.0
0
LINE
8
FRONT
10
0.002564
20
0.446012
30
0.0
11
0.003099
21
0.443832
31
0.0
0
LINE
8
FRONT
10
0.003099
20
0.443832
30
0.0
11
0.003684
21
0.441666
31
0.0
0
LINE
8
FRONT
10
0.003684
20
0.441666
30
0.0
11
0.004319
21
0.439513
31
0.0
0
LINE
8
FRONT
10
0.004319
20
0.439513
30
0.0
11
0.005004
21
0.437375
31
0.0
0
LINE
8
FRONT
10
0.005004
20
0.437375
30
0.0
11
0.005737
21
0.435254
31
0.0
0
LINE
8
FRONT
10
0.005737
20
0.435254
30
0.0
11
0.006518
21
0.433150
31
0.0
0
LINE
8
FRONT
10
0.006518
20
0.433150
30
0.0
11
0.007348
21
0.431064
31
0.0
0
LINE
8
FRONT
10
0.007348
20
0.431064
30
0.0
11
0.008225
21
0.428998
31
0.0
0
LINE
8
FRONT
10
0.008225
20
0.428998
30
0.0
11
0.009149
21
0.426953
31
0.0
0
LINE
8
FRONT
10
0.009149
20
0.426953
30
0.0
11
0.010120
21
0.424929
31
0.0
0
LINE
8
FRONT
10
0.010120
20
0.424929
30
0.0
11
0.011137
21
0.422929
31
0.0
0
LINE
8
FRONT
10
0.011137
20
0.422929
30
0.0
11
0.012200
21
0.420952
31
0.0
0
LINE
8
FRONT
10
0.012200
20
0.420952
30
0.0
11
0.013308
21
0.419000
31
0.0
0
LINE
8
FRONT
10
0.013308
20
0.419000
30
0.0
11
0.014460
21
0.417074
31
0.0
0
LINE
8
FRONT
10
0.014460
20
0.417074
30
0.0
11
0.015657
21
0.415175
31
0.0
0
LINE
8
FRONT
10
0.015657
20
0.415175
30
0.0
11
0.016896
21
0.413304
31
0.0
0
LINE
8
FRONT
10
0.016896
20
0.413304
30
0.0
11
0.018178
21
0.411461
31
0.0
0
LINE
8
FRONT
10
0.018178
20
0.411461
30
0.0
11
0.019502
21
0.409649
31
0.0
0
LINE
8
FRONT
10
0.019502
20
0.409649
30
0.0
11
0.020868
21
0.407868
31
0.0
0
LINE
8
FRONT
10
0.020868
20
0.407868
30
0.0
11
0.022273
21
0.406118
31
0.0
0
LINE
8
FRONT
10
0.022273
20
0.406118
30
0.0
11
0.023719
21
0.404401
31
0.0
0
LINE
8
FRONT
10
0.023719
20
0.404401
30
0.0
11
0.025204
21
0.402718
31
0.0
0
LINE
8
FRONT
10
0.025204
20
0.402718
30
0.0
11
0.026726
21
0.401069
31
0.0
0
LINE
8
FRONT
10
0.026726
20
0.401069
30
0.0
11
0.028287
21
0.399455
31
0.0
0
LINE
8
FRONT
10
0.028287
20
0.399455
30
0.0
11
0.029883
21
0.397878
31
0.0
0
LINE
8
FRONT
10
0.029883
20
0.397878
30
0.0
11
0.031516
21
0.396338
31
0.0
0
LINE
8
FRONT
10
0.031516
20
0.396338
30
0.0
11
0.033184
21
0.394835
31
0.0
0
LINE
8
FRONT
10
0.033184
20
0.394835
30
0.0
11
0.034885
21
0.393372
31
0.0
0
LINE
8
FRONT
10
0.034885
20
0.393372
30
0.0
11
0.036620
21
0.391947
31
0.0
0
LINE
8
FRONT
10
0.036620
20
0.391947
30
0.0
11
0.038387
21
0.390563
31
0.0
0
LINE
8
FRONT
10
0.038387
20
0.390563
30
0.0
11
0.040185
21
0.389220
31
0.0
0
LINE
8
FRONT
10
0.040185
20
0.389220
30
0.0
11
0.042013
21
0.387919
31
0.0
0
LINE
8
FRONT
10
0.042013
20
0.387919
30
0.0
11
0.043871
21
0.386659
31
0.0
0
LINE
8
FRONT
10
0.043871
20
0.386659
30
0.0
11
0.045758
21
0.385443
31
0.0
0
LINE
8
FRONT
10
0.045758
20
0.385443
30
0.0
11
0.047671
21
0.384270
31
0.0
0
LINE
8
FRONT
10
0.047671
20
0.384270
30
0.0
11
0.049611
21
0.383142
31
0.0
0
LINE
8
FRONT
10
0.049611
20
0.383142
30
0.0
11
0.051577
21
0.382058
31
0.0
0
LINE
8
FRONT
10
0.051577
20
0.382058
30
0.0
11
0.053567
21
0.381020
31
0.0
0
LINE
8
FRONT
10
0.053567
20
0.381020
30
0.0
11
0.055580
21
0.380027
31
0.0
0
LINE
8
FRONT
10
0.055580
20
0.380027
30
0.0
11
0.057615
21
0.379081
31
0.0
0
LINE
8
FRONT
10
0.057615
20
0.379081
30
0.0
11
0.059672
21
0.378182
31
0.0
0
LINE
8
FRONT
10
0.059672
20
0.378182
30
0.0
11
0.061748
21
0.377330
31
0.0
0
LINE
8
FRONT
10
0.061748
20
0.377330
30
0.0
11
0.063844
21
0.376527
31
0.0
0
LINE
8
FRONT
10
0.063844
20
0.376527
30
0.0
11
0.065957
21
0.375771
31
0.0
0
LINE
8
FRONT
10
0.065957
20
0.375771
30
0.0
11
0.068088
21
0.375064
31
0.0
0
LINE
8
FRONT
10
0.068088
20
0.375064
30
0.0
11
0.070234
21
0.374407
31
0.0
0
LINE
8
FRONT
10
0.070234
20
0.374407
30
0.0
11
0.072394
21
0.373798
31
0.0
0
LINE
8
FRONT
10
0.072394
20
0.373798
30
0.0
11
0.074568
21
0.373240
31
0.0
0
LINE
8
FRONT
10
0.074568
20
0.373240
30
0.0
11
0.076754
21
0.372731
31
0.0
0
LINE
8
FRONT
10
0.076754
20
0.372731
30
0.0
11
0.078951
21
0.372273
31
0.0
0
LINE
8
FRONT
10
0.078951
20
0.372273
30
0.0
11
0.081158
21
0.371865
31
0.0
0
LINE
8
FRONT
10
0.081158
20
0.371865
30
0.0
11
0.083374
21
0.371508
31
0.0
0
LINE
8
FRONT
10
0.083374
20
0.371508
30
0.0
11
0.085598
21
0.371202
31
0.0
0
LINE
8
FRONT
10
0.085598
20
0.565320
30
0.0
11
0.083374
21
0.565014
31
0.0
0
LINE
8
FRONT
10
0.083374
20
0.565014
30
0.0
11
0.081158
21
0.564657
31
0.0
0
LINE
8
FRONT
10
0.081158
20
0.564657
30
0.0
11
0.078951
21
0.564249
31
0.0
0
LINE
8
FRONT
10
0.078951
20
0.564249
30
0.0
11
0.076754
21
0.563791
31
0.0
0
LINE
8
FRONT
10
0.076754
20
0.563791
30
0.0
11
0.074568
21
0.563282
31
0.0
0
LINE
8
FRONT
10
0.074568
20
0.563282
30
0.0
11
0.072394
21
0.562723
31
0.0
0
LINE
8
FRONT
10
0.072394
20
0.562723
30
0.0
11
0.070234
21
0.562115
31
0.0
0
LINE
8
FRONT
10
0.070234
20
0.562115
30
0.0
11
0.068088
21
0.561457
31
0.0
0
LINE
8
FRONT
10
0.068088
20
0.561457
30
0.0
11
0.065957
21
0.560751
31
0.0
0
LINE
8
FRONT
10
0.065957
20
0.560751
30
0.0
11
0.063844
21
0.559995
31
0.0
0
LINE
8
FRONT
10
0.063844
20
0.559995
30
0.0
11
0.061748
21
0.559191
31
0.0
0
LINE
8
FRONT
10
0.061748
20
0.559191
30
0.0
11
0.059672
21
0.558340
31
0.0
0
LINE
8
FRONT
10
0.059672
20
0.558340
30
0.0
11
0.057615
21
0.557441
31
0.0
0
LINE
8
FRONT
10
0.057615
20
0.557441
30
0.0
11
0.055580
21
0.556495
31
0.0
0
LINE
8
FRONT
10
0.055580
20
0.556495
30
0.0
11
0.053567
21
0.555502
31
0.0
0
LINE
8
FRONT
10
0.053567
20
0.555502
30
0.0
11
0.051577
21
0.554464
31
0.0
0
LINE
8
FRONT
10
0.051577
20
0.554464
30
0.0
11
0.049611
21
0.553380
31
0.0
0
LINE
8
FRONT
10
0.049611
20
0.553380
30
0.0
11
0.047671
21
0.552252
31
0.0
0
LINE
8
FRONT
10
0.047671
20
0.552252
30
0.0
11
0.045758
21
0.551079
31
0.0
0
LINE
8
FRONT
10
0.045758
20
0.551079
30
0.0
11
0.043871
21
0.549862
31
0.0
0
LINE
8
FRONT
10
0.043871
20
0.549862
30
0.0
11
0.042013
21
0.548603
31
0.0
0
LINE
8
FRONT
10
0.042013
20
0.548603
30
0.0
11
0.040185
21
0.547302
31
0.0
0
LINE
8
FRONT
10
0.040185
20
0.547302
30
0.0
11
0.038387
21
0.545958
31
0.0
0
LINE
8
FRONT
10
0.038387
20
0.545958
30
0.0
11
0.036620
21
0.544574
31
0.0
0
LINE
8
FRONT
10
0.036620
20
0.544574
30
0.0
11
0.034885
21
0.543150
31
0.0
0
LINE
8
FRONT
10
0.034885
20
0.543150
30
0.0
11
0.033184
21
0.541686
31
0.0
0
LINE
8
FRONT
10
0.033184
20
0.541686
30
0.0
11
0.031516
21
0.540184
31
0.0
0
LINE
8
FRONT
10
0.031516
20
0.540184
30
0.0
11
0.029883
21
0.538644
31
0.0
0
LINE
8
FRONT
10
0.029883
20
0.538644
30
0.0
11
0.028287
21
0.537066
31
0.0
0
LINE
8
FRONT
10
0.028287
20
0.537066
30
0.0
11
0.026726
21
0.535453
31
0.0
0
LINE
8
FRONT
10
0.026726
20
0.535453
30
0.0
11
0.025204
21
0.533804
31
0.0
0
LINE
8
FRONT
10
0.025204
20
0.533804
30
0.0
11
0.023719
21
0.532121
31
0.0
0
LINE
8
FRONT
10
0.023719
20
0.532121
30
0.0
11
0.022273
21
0.530404
31
0.0
0
LINE
8
FRONT
10
0.022273
20
0.530404
30
0.0
11
0.020868
21
0.528654
31
0.0
0
LINE
8
FRONT
10
0.020868
20
0.528654
30
0.0
11
0.019502
21
0.526873
31
0.0
0
LINE
8
FRONT
10
0.019502
20
0.526873
30
0.0
11
0.018178
21
0.525060
31
0.0
0
LINE
8
FRONT
10
0.018178
20
0.525060
30
0.0
11
0.016896
21
0.523218
31
0.0
0
LINE
8
FRONT
10
0.016896
20
0.523218
30
0.0
11
0.015657
21
0.521347
31
0.0
0
LINE
8
FRONT
10
0.015657
20
0.521347
30
0.0
11
0.014460
21
0.519448
31
0.0
0
LINE
8
FRONT
10
0.014460
20
0.519448
30
0.0
11
0.013308
21
0.517522
31
0.0
0
LINE
8
FRONT
10
0.013308
20
0.517522
30
0.0
11
0.012200
21
0.515570
31
0.0
0
LINE
8
FRONT
10
0.012200
20
0.515570
30
0.0
11
0.011137
21
0.513593
31
0.0
0
LINE
8
FRONT
10
0.011137
20
0.513593
30
0.0
11
0.010120
21
0.511592
31
0.0
0
LINE
8
FRONT
10
0.010120
20
0.511592
30
0.0
11
0.009149
21
0.509569
31
0.0
0
LINE
8
FRONT
10
0.009149
20
0.509569
30
0.0
11
0.008225
21
0.507523
31
0.0
0
LINE
8
FRONT
10
0.008225
20
0.507523
30
0.0
11
0.007348
21
0.505457
31
0.0
0
LINE
8
FRONT
10
0.007348
20
0.505457
30
0.0
11
0.006518
21
0.503372
31
0.0
0
LINE
8
FRONT
10
0.006518
20
0.503372
30
0.0
11
0.005737
21
0.501268
31
0.0
0
LINE
8
FRONT
10
0.005737
20
0.501268
30
0.0
11
0.005004
21
0.499146
31
0.0
0
LINE
8
FRONT
10
0.005004
20
0.499146
30
0.0
11
0.004319
21
0.497009
31
0.0
0
LINE
8
FRONT
10
0.004319
20
0.497009
30
0.0
11
0.003684
21
0.494856
31
0.0
0
LINE
8
FRONT
10
0.003684
20
0.494856
30
0.0
11
0.003099
21
0.492689
31
0.0
0
LINE
8
FRONT
10
0.003099
20
0.492689
30
0.0
11
0.002564
21
0.490510
31
0.0
0
LINE
8
FRONT
10
0.002564
20
0.490510
30
0.0
11
0.002078
21
0.488318
31
0.0
0
LINE
8
FRONT
10
0.002078
20
0.488318
30
0.0
11
0.001643
21
0.486116
31
0.0
0
LINE
8
FRONT
10
0.001643
20
0.486116
30
0.0
11
0.001259
21
0.483905
31
0.0
0
LINE
8
FRONT
10
0.001259
20
0.483905
30
0.0
11
0.000926
21
0.481685
31
0.0
0
LINE
8
FRONT
10
0.000926
20
0.481685
30
0.0
11
0.000643
21
0.479459
31
0.0
0
LINE
8
FRONT
10
0.000643
20
0.479459
30
0.0
11
0.000412
21
0.477226
31
0.0
0
LINE
8
FRONT
10
0.000412
20
0.477226
30
0.0
11
0.000232
21
0.474989
31
0.0
0
LINE
8
FRONT
10
0.000232
20
0.474989
30
0.0
11
0.000103
21
0.472748
31
0.0
0
LINE
8
FRONT
10
0.000103
20
0.472748
30
0.0
11
0.000026
21
0.470505
31
0.0
0
LINE
8
FRONT
10
0.000026
20
0.470505
30
0.0
11
0.000000
21
0.468261
31
0.0
0
LINE
8
FRONT
10
0.065217
20
0.468261
30
0.0
11
0.065379
21
0.465014
31
0.0
0
LINE
8
FRONT
10
0.065379
20
0.465014
30
0.0
11
0.065864
21
0.461800
31
0.0
0
LINE
8
FRONT
10
0.065864
20
0.461800
30
0.0
11
0.066666
21
0.458649
31
0.0
0
LINE
8
FRONT
10
0.066666
20
0.458649
30
0.0
11
0.067778
21
0.455595
31
0.0
0
LINE
8
FRONT
10
0.067778
20
0.455595
30
0.0
11
0.069188
21
0.452666
31
0.0
0
LINE
8
FRONT
10
0.069188
20
0.452666
30
0.0
11
0.070884
21
0.449892
31
0.0
0
LINE
8
FRONT
10
0.070884
20
0.449892
30
0.0
11
0.072846
21
0.447300
31
0.0
0
LINE
8
FRONT
10
0.072846
20
0.447300
30
0.0
11
0.075057
21
0.444917
31
0.0
0
LINE
8
FRONT
10
0.075057
20
0.444917
30
0.0
11
0.077495
21
0.442766
31
0.0
0
LINE
8
FRONT
10
0.077495
20
0.442766
30
0.0
11
0.080134
21
0.440869
31
0.0
0
LINE
8
FRONT
10
0.080134
20
0.440869
30
0.0
11
0.082950
21
0.439243
31
0.0
0
LINE
8
FRONT
10
0.082950
20
0.439243
30
0.0
11
0.085913
21
0.437906
31
0.0
0
LINE
8
FRONT
10
0.085913
20
0.437906
30
0.0
11
0.088994
21
0.436871
31
0.0
0
LINE
8
FRONT
10
0.088994
20
0.436871
30
0.0
11
0.092164
21
0.436148
31
0.0
0
LINE
8
FRONT
10
0.092164
20
0.436148
30
0.0
11
0.095389
21
0.435743
31
0.0
0
LINE
8
FRONT
10
0.095389
20
0.435743
30
0.0
11
0.098639
21
0.435662
31
0.0
0
LINE
8
FRONT
10
0.098639
20
0.435662
30
0.0
11
0.101881
21
0.435905
31
0.0
0
LINE
8
FRONT
10
0.101881
20
0.435905
30
0.0
11
0.105082
21
0.436470
31
0.0
0
LINE
8
FRONT
10
0.105082
20
0.436470
30
0.0
11
0.108212
21
0.437350
31
0.0
0
LINE
8
FRONT
10
0.108212
20
0.437350
30
0.0
11
0.111238
21
0.438538
31
0.0
0
LINE
8
FRONT
10
0.111238
20
0.438538
30
0.0
11
0.114130
21
0.440021
31
0.0
0
LINE
8
FRONT
10
0.114130
20
0.440021
30
0.0
11
0.116861
21
0.441785
31
0.0
0
LINE
8
FRONT
10
0.116861
20
0.441785
30
0.0
11
0.119403
21
0.443811
31
0.0
0
LINE
8
FRONT
10
0.119403
20
0.443811
30
0.0
11
0.121730
21
0.446081
31
0.0
0
LINE
8
FRONT
10
0.121730
20
0.446081
30
0.0
11
0.123820
21
0.448572
31
0.0
0
LINE
8
FRONT
10
0.123820
20
0.448572
30
0.0
11
0.125651
21
0.451258
31
0.0
0
LINE
8
FRONT
10
0.125651
20
0.451258
30
0.0
11
0.127206
21
0.454112
31
0.0
0
LINE
8
FRONT
10
0.127206
20
0.454112
30
0.0
11
0.128468
21
0.457108
31
0.0
0
LINE
8
FRONT
10
0.128468
20
0.457108
30
0.0
11
0.129426
21
0.460214
31
0.0
0
LINE
8
FRONT
10
0.129426
20
0.460214
30
0.0
11
0.130071
21
0.463401
31
0.0
0
LINE
8
FRONT
10
0.130071
20
0.463401
30
0.0
11
0.130394
21
0.466635
31
0.0
0
LINE
8
FRONT
10
0.130394
20
0.466635
30
0.0
11
0.130394
21
0.469886
31
0.0
0
LINE
8
FRONT
10
0.130394
20
0.469886
30
0.0
11
0.130071
21
0.473121
31
0.0
0
LINE
8
FRONT
10
0.130071
20
0.473121
30
0.0
11
0.129426
21
0.476307
31
0.0
0
LINE
8
FRONT
10
0.129426
20
0.476307
30
0.0
11
0.128468
21
0.479414
31
0.0
0
LINE
8
FRONT
10
0.128468
20
0.479414
30
0.0
11
0.127206
21
0.482409
31
0.0
0
LINE
8
FRONT
10
0.127206
20
0.482409
30
0.0
11
0.125651
21
0.485264
31
0.0
0
LINE
8
FRONT
10
0.125651
20
0.485264
30
0.0
11
0.123820
21
0.487950
31
0.0
0
LINE
8
FRONT
10
0.123820
20
0.487950
30
0.0
11
0.121730
21
0.490440
31
0.0
0
LINE
8
FRONT
10
0.121730
20
0.490440
30
0.0
11
0.119403
21
0.492710
31
0.0
0
LINE
8
FRONT
10
0.119403
20
0.492710
30
0.0
11
0.116861
21
0.494737
31
0.0
0
LINE
8
FRONT
10
0.116861
20
0.494737
30
0.0
11
0.114130
21
0.496501
31
0.0
0
LINE
8
FRONT
10
0.114130
20
0.496501
30
0.0
11
0.111238
21
0.497984
31
0.0
0
LINE
8
FRONT
10
0.111238
20
0.497984
30
0.0
11
0.108212
21
0.499172
31
0.0
0
LINE
8
FRONT
10
0.108212
20
0.499172
30
0.0
11
0.105082
21
0.500052
31
0.0
0
LINE
8
FRONT
10
0.105082
20
0.500052
30
0.0
11
0.101881
21
0.500616
31
0.0
0
LINE
8
FRONT
10
0.101881
20
0.500616
30
0.0
11
0.098639
21
0.500859
31
0.0
0
LINE
8
FRONT
10
0.098639
20
0.500859
30
0.0
11
0.095389
21
0.500778
31
0.0
0
LINE
8
FRONT
10
0.095389
20
0.500778
30
0.0
11
0.092164
21
0.500374
31
0.0
0
LINE
8
FRONT
10
0.092164
20
0.500374
30
0.0
11
0.088994
21
0.499651
31
0.0
0
LINE
8
FRONT
10
0.088994
20
0.499651
30
0.0
11
0.085913
21
0.498615
31
0.0
0
LINE
8
FRONT
10
0.085913
20
0.498615
30
0.0
11
0.082950
21
0.497278
31
0.0
0
LINE
8
FRONT
10
0.082950
20
0.497278
30
0.0
11
0.080134
21
0.495653
31
0.0
0
LINE
8
FRONT
10
0.080134
20
0.495653
30
0.0
11
0.077495
21
0.493755
31
0.0
0
LINE
8
FRONT
10
0.077495
20
0.493755
30
0.0
11
0.075057
21
0.491604
31
0.0
0
LINE
8
FRONT
10
0.075057
20
0.491604
30
0.0
11
0.072846
21
0.489221
31
0.0
0
LINE
8
FRONT
10
0.072846
20
0.489221
30
0.0
11
0.070884
21
0.486630
31
0.0
0
LINE
8
FRONT
10
0.070884
20
0.486630
30
0.0
11
0.069188
21
0.483856
31
0.0
0
LINE
8
FRONT
10
0.069188
20
0.483856
30
0.0
11
0.067778
21
0.480927
31
0.0
0
LINE
8
FRONT
10
0.067778
20
0.480927
30
0.0
11
0.066666
21
0.477872
31
0.0
0
LINE
8
FRONT
10
0.066666
20
0.477872
30
0.0
11
0.065864
21
0.474722
31
0.0
0
LINE
8
FRONT
10
0.065864
20
0.474722
30
0.0
11
0.065379
21
0.471508
31
0.0
0
LINE
8
FRONT
10
0.065379
20
0.471508
30
0.0
11
0.065217
21
0.468261
31
0.0
0
LINE
8
FRONT
10
1.239130
20
0.468261
30
0.0
11
1.239292
21
0.465014
31
0.0
0
LINE
8
FRONT
10
1.239292
20
0.465014
30
0.0
11
1.239777
21
0.461800
31
0.0
0
LINE
8
FRONT
10
1.239777
20
0.461800
30
0.0
11
1.240579
21
0.458649
31
0.0
0
LINE
8
FRONT
10
1.240579
20
0.458649
30
0.0
11
1.241691
21
0.455595
31
0.0
0
LINE
8
FRONT
10
1.241691
20
0.455595
30
0.0
11
1.243101
21
0.452666
31
0.0
0
LINE
8
FRONT
10
1.243101
20
0.452666
30
0.0
11
1.244797
21
0.449892
31
0.0
0
LINE
8
FRONT
10
1.244797
20
0.449892
30
0.0
11
1.246759
21
0.447300
31
0.0
0
LINE
8
FRONT
10
1.246759
20
0.447300
30
0.0
11
1.248971
21
0.444917
31
0.0
0
LINE
8
FRONT
10
1.248971
20
0.444917
30
0.0
11
1.251408
21
0.442766
31
0.0
0
LINE
8
FRONT
10
1.251408
20
0.442766
30
0.0
11
1.254047
21
0.440869
31
0.0
0
LINE
8
FRONT
10
1.254047
20
0.440869
30
0.0
11
1.256863
21
0.439243
31
0.0
0
LINE
8
FRONT
10
1.256863
20
0.439243
30
0.0
11
1.259826
21
0.437906
31
0.0
0
LINE
8
FRONT
10
1.259826
20
0.437906
30
0.0
11
1.262907
21
0.436871
31
0.0
0
LINE
8
FRONT
10
1.262907
20
0.436871
30
0.0
11
1.266077
21
0.436148
31
0.0
0
LINE
8
FRONT
10
1.266077
20
0.436148
30
0.0
11
1.269302
21
0.435743
31
0.0
0
LINE
8
FRONT
10
1.269302
20
0.435743
30
0.0
11
1.272552
21
0.435662
31
0.0
0
LINE
8
FRONT
10
1.272552
20
0.435662
30
0.0
11
1.275794
21
0.435905
31
0.0
0
LINE
8
FRONT
10
1.275794
20
0.435905
30
0.0
11
1.278995
21
0.436470
31
0.0
0
LINE
8
FRONT
10
1.278995
20
0.436470
30
0.0
11
1.282125
21
0.437350
31
0.0
0
LINE
8
FRONT
10
1.282125
20
0.437350
30
0.0
11
1.285151
21
0.438538
31
0.0
0
LINE
8
FRONT
10
1.285151
20
0.438538
30
0.0
11
1.288043
21
0.440021
31
0.0
0
LINE
8
FRONT
10
1.288043
20
0.440021
30
0.0
11
1.290774
21
0.441785
31
0.0
0
LINE
8
FRONT
10
1.290774
20
0.441785
30
0.0
11
1.293316
21
0.443811
31
0.0
0
LINE
8
FRONT
10
1.293316
20
0.443811
30
0.0
11
1.295643
21
0.446081
31
0.0
0
LINE
8
FRONT
10
1.295643
20
0.446081
30
0.0
11
1.297733
21
0.448572
31
0.0
0
LINE
8
FRONT
10
1.297733
20
0.448572
30
0.0
11
1.299564
21
0.451258
31
0.0
0
LINE
8
FRONT
10
1.299564
20
0.451258
30
0.0
11
1.301119
21
0.454112
31
0.0
0
LINE
8
FRONT
10
1.301119
20
0.454112
30
0.0
11
1.302381
21
0.457108
31
0.0
0
LINE
8
FRONT
10
1.302381
20
0.457108
30
0.0
11
1.303339
21
0.460214
31
0.0
0
LINE
8
FRONT
10
1.303339
20
0.460214
30
0.0
11
1.303984
21
0.463401
31
0.0
0
LINE
8
FRONT
10
1.303984
20
0.463401
30
0.0
11
1.304307
21
0.466635
31
0.0
0
LINE
8
FRONT
10
1.304307
20
0.466635
30
0.0
11
1.304307
21
0.469886
31
0.0
0
LINE
8
FRONT
10
1.304307
20
0.469886
30
0.0
11
1.303984
21
0.473121
31
0.0
0
LINE
8
FRONT
10
1.303984
20
0.473121
30
0.0
11
1.303339
21
0.476307
31
0.0
0
LINE
8
FRONT
10
1.303339
20
0.476307
30
0.0
11
1.302381
21
0.479414
31
0.0
0
LINE
8
FRONT
10
1.302381
20
0.479414
30
0.0
11
1.301119
21
0.482409
31
0.0
0
LINE
8
FRONT
10
1.301119
20
0.482409
30
0.0
11
1.299564
21
0.485264
31
0.0
0
LINE
8
FRONT
10
1.299564
20
0.485264
30
0.0
11
1.297733
21
0.487950
31
0.0
0
LINE
8
FRONT
10
1.297733
20
0.487950
30
0.0
11
1.295643
21
0.490440
31
0.0
0
LINE
8
FRONT
10
1.295643
20
0.490440
30
0.0
11
1.293316
21
0.492710
31
0.0
0
LINE
8
FRONT
10
1.293316
20
0.492710
30
0.0
11
1.290774
21
0.494737
31
0.0
0
LINE
8
FRONT
10
1.290774
20
0.494737
30
0.0
11
1.288043
21
0.496501
31
0.0
0
LINE
8
FRONT
10
1.288043
20
0.496501
30
0.0
11
1.285151
21
0.497984
31
0.0
0
LINE
8
FRONT
10
1.285151
20
0.497984
30
0.0
11
1.282125
21
0.499172
31
0.0
0
LINE
8
FRONT
10
1.282125
20
0.499172
30
0.0
11
1.278995
21
0.500052
31
0.0
0
LINE
8
FRONT
10
1.278995
20
0.500052
30
0.0
11
1.275794
21
0.500616
31
0.0
0
LINE
8
FRONT
10
1.275794
20
0.500616
30
0.0
11
1.272552
21
0.500859
31
0.0
0
LINE
8
FRONT
10
1.272552
20
0.500859
30
0.0
11
1.269302
21
0.500778
31
0.0
0
LINE
8
FRONT
10
1.269302
20
0.500778
30
0.0
11
1.266077
21
0.500374
31
0.0
0
LINE
8
FRONT
10
1.266077
20
0.500374
30
0.0
11
1.262907
21
0.499651
31
0.0
0
LINE
8
FRONT
10
1.262907
20
0.499651
30
0.0
11
1.259826
21
0.498615
31
0.0
0
LINE
8
FRONT
10
1.259826
20
0.498615
30
0.0
11
1.256863
21
0.497278
31
0.0
0
LINE
8
FRONT
10
1.256863
20
0.497278
30
0.0
11
1.254047
21
0.495653
31
0.0
0
LINE
8
FRONT
10
1.254047
20
0.495653
30
0.0
11
1.251408
21
0.493755
31
0.0
0
LINE
8
FRONT
10
1.251408
20
0.493755
30
0.0
11
1.248971
21
0.491604
31
0.0
0
LINE
8
FRONT
10
1.248971
20
0.491604
30
0.0
11
1.246759
21
0.489221
31
0.0
0
LINE
8
FRONT
10
1.246759
20
0.489221
30
0.0
11
1.244797
21
0.486630
31
0.0
0
LINE
8
FRONT
10
1.244797
20
0.486630
30
0.0
11
1.243101
21
0.483856
31
0.0
0
LINE
8
FRONT
10
1.243101
20
0.483856
30
0.0
11
1.241691
21
0.480927
31
0.0
0
LINE
8
FRONT
10
1.241691
20
0.480927
30
0.0
11
1.240579
21
0.477872
31
0.0
0
LINE
8
FRONT
10
1.240579
20
0.477872
30
0.0
11
1.239777
21
0.474722
31
0.0
0
LINE
8
FRONT
10
1.239777
20
0.474722
30
0.0
11
1.239292
21
0.471508
31
0.0
0
LINE
8
FRONT
10
1.239292
20
0.471508
30
0.0
11
1.239130
21
0.468261
31
0.0
0
LINE
8
FRONT
10
1.353209
20
0.927694
30
0.0
11
1.352970
21
0.931659
31
0.0
0
LINE
8
FRONT
10
1.352970
20
0.931659
30
0.0
11
1.352539
21
0.935608
31
0.0
0
LINE
8
FRONT
10
1.352539
20
0.935608
30
0.0
11
1.351916
21
0.939531
31
0.0
0
LINE
8
FRONT
10
1.351916
20
0.939531
30
0.0
11
1.351102
21
0.943419
31
0.0
0
LINE
8
FRONT
10
1.351102
20
0.943419
30
0.0
11
1.350100
21
0.947263
31
0.0
0
LINE
8
FRONT
10
1.350100
20
0.947263
30
0.0
11
1.348912
21
0.951054
31
0.0
0
LINE
8
FRONT
10
1.348912
20
0.951054
30
0.0
11
1.347540
21
0.954782
31
0.0
0
LINE
8
FRONT
10
1.347540
20
0.954782
30
0.0
11
1.345989
21
0.958439
31
0.0
0
LINE
8
FRONT
10
1.345989
20
0.958439
30
0.0
11
1.344261
21
0.962016
31
0.0
0
LINE
8
FRONT
10
1.344261
20
0.962016
30
0.0
11
1.342362
21
0.965505
31
0.0
0
LINE
8
FRONT
10
1.342362
20
0.965505
30
0.0
11
1.340294
21
0.968896
31
0.0
0
LINE
8
FRONT
10
1.340294
20
0.968896
30
0.0
11
1.338064
21
0.972184
31
0.0
0
LINE
8
FRONT
10
1.338064
20
0.972184
30
0.0
11
1.335676
21
0.975358
31
0.0
0
LINE
8
FRONT
10
1.335676
20
0.975358
30
0.0
11
1.333136
21
0.978413
31
0.0
0
LINE
8
FRONT
10
1.333136
20
0.978413
30
0.0
11
1.330451
21
0.981340
31
0.0
0
LINE
8
FRONT
10
1.330451
20
0.981340
30
0.0
11
1.327626
21
0.984133
31
0.0
0
LINE
8
FRONT
10
1.327626
20
0.984133
30
0.0
11
1.324669
21
0.986785
31
0.0
0
LINE
8
FRONT
10
1.324669
20
0.986785
30
0.0
11
1.321585
21
0.989290
31
0.0
0
LINE
8
FRONT
10
1.321585
20
0.989290
30
0.0
11
1.318384
21
0.991641
31
0.0
0
LINE
8
FRONT
10
1.318384
20
0.991641
30
0.0
11
1.315072
21
0.993834
31
0.0
0
LINE
8
FRONT
10
1.315072
20
0.993834
30
0.0
11
1.311656
21
0.995863
31
0.0
0
LINE
8
FRONT
10
1.311656
20
0.995863
30
0.0
11
1.308147
21
0.997723
31
0.0
0
LINE
8
FRONT
10
1.308147
20
0.997723
30
0.0
11
1.304550
21
0.999410
31
0.0
0
LINE
8
FRONT
10
1.304550
20
0.999410
30
0.0
11
1.300876
21
1.000920
31
0.0
0
LINE
8
FRONT
10
1.300876
20
1.000920
30
0.0
11
1.297132
21
1.002249
31
0.0
0
LINE
8
FRONT
10
1.297132
20
1.002249
30
0.0
11
1.293329
21
1.003394
31
0.0
0
LINE
8
FRONT
10
1.293329
20
1.003394
30
0.0
11
1.289474
21
1.004352
31
0.0
0
LINE
8
FRONT
10
1.289474
20
1.004352
30
0.0
11
1.285576
21
1.005121
31
0.0
0
LINE
8
FRONT
10
1.285576
20
1.005121
30
0.0
11
1.281646
21
1.005700
31
0.0
0
LINE
8
FRONT
10
1.281646
20
1.005700
30
0.0
11
1.277693
21
1.006087
31
0.0
0
LINE
8
FRONT
10
1.277693
20
1.006087
30
0.0
11
1.273725
21
1.006280
31
0.0
0
LINE
8
FRONT
10
1.273725
20
1.006280
30
0.0
11
1.269753
21
1.006280
31
0.0
0
LINE
8
FRONT
10
1.269753
20
1.006280
30
0.0
11
1.265785
21
1.006087
31
0.0
0
LINE
8
FRONT
10
1.265785
20
1.006087
30
0.0
11
1.261832
21
1.005700
31
0.0
0
LINE
8
FRONT
10
1.261832
20
1.005700
30
0.0
11
1.257902
21
1.005121
31
0.0
0
LINE
8
FRONT
10
1.257902
20
1.005121
30
0.0
11
1.254005
21
1.004352
31
0.0
0
LINE
8
FRONT
10
1.254005
20
1.004352
30
0.0
11
1.250150
21
1.003394
31
0.0
0
LINE
8
FRONT
10
1.250150
20
1.003394
30
0.0
11
1.246346
21
1.002249
31
0.0
0
LINE
8
FRONT
10
1.246346
20
1.002249
30
0.0
11
1.242602
21
1.000920
31
0.0
0
LINE
8
FRONT
10
1.242602
20
1.000920
30
0.0
11
1.238928
21
0.999410
31
0.0
0
LINE
8
FRONT
10
1.238928
20
0.999410
30
0.0
11
1.235332
21
0.997723
31
0.0
0
LINE
8
FRONT
10
1.235332
20
0.997723
30
0.0
11
1.231822
21
0.995863
31
0.0
0
LINE
8
FRONT
10
1.231822
20
0.995863
30
0.0
11
1.228407
21
0.993834
31
0.0
0
LINE
8
FRONT
10
1.228407
20
0.993834
30
0.0
11
1.225094
21
0.991641
31
0.0
0
LINE
8
FRONT
10
1.225094
20
0.991641
30
0.0
11
1.221893
21
0.989290
31
0.0
0
LINE
8
FRONT
10
1.221893
20
0.989290
30
0.0
11
1.218810
21
0.986785
31
0.0
0
LINE
8
FRONT
10
1.218810
20
0.986785
30
0.0
11
1.215852
21
0.984133
31
0.0
0
LINE
8
FRONT
10
1.215852
20
0.984133
30
0.0
11
1.213027
21
0.981340
31
0.0
0
LINE
8
FRONT
10
1.213027
20
0.981340
30
0.0
11
1.210342
21
0.978413
31
0.0
0
LINE
8
FRONT
10
1.210342
20
0.978413
30
0.0
11
1.207802
21
0.975358
31
0.0
0
LINE
8
FRONT
10
1.207802
20
0.975358
30
0.0
11
1.205415
21
0.972184
31
0.0
0
LINE
8
FRONT
10
1.205415
20
0.972184
30
0.0
11
1.203184
21
0.968896
31
0.0
0
LINE
8
FRONT
10
1.203184
20
0.968896
30
0.0
11
1.201117
21
0.965505
31
0.0
0
LINE
8
FRONT
10
1.201117
20
0.965505
30
0.0
11
1.199217
21
0.962016
31
0.0
0
LINE
8
FRONT
10
1.199217
20
0.962016
30
0.0
11
1.197489
21
0.958439
31
0.0
0
LINE
8
FRONT
10
1.197489
20
0.958439
30
0.0
11
1.195938
21
0.954782
31
0.0
0
LINE
8
FRONT
10
1.195938
20
0.954782
30
0.0
11
1.194567
21
0.951054
31
0.0
0
LINE
8
FRONT
10
1.194567
20
0.951054
30
0.0
11
1.193378
21
0.947263
31
0.0
0
LINE
8
FRONT
10
1.193378
20
0.947263
30
0.0
11
1.192376
21
0.943419
31
0.0
0
LINE
8
FRONT
10
1.192376
20
0.943419
30
0.0
11
1.191563
21
0.939531
31
0.0
0
LINE
8
FRONT
10
1.191563
20
0.939531
30
0.0
11
1.190939
21
0.935608
31
0.0
0
LINE
8
FRONT
10
1.190939
20
0.935608
30
0.0
11
1.190508
21
0.931659
31
0.0
0
LINE
8
FRONT
10
1.190508
20
0.931659
30
0.0
11
1.190269
21
0.927694
31
0.0
0
LINE
8
FRONT
10
1.239130
20
0.924783
30
0.0
11
1.239292
21
0.921536
31
0.0
0
LINE
8
FRONT
10
1.239292
20
0.921536
30
0.0
11
1.239777
21
0.918321
31
0.0
0
LINE
8
FRONT
10
1.239777
20
0.918321
30
0.0
11
1.240579
21
0.915171
31
0.0
0
LINE
8
FRONT
10
1.240579
20
0.915171
30
0.0
11
1.241691
21
0.912116
31
0.0
0
LINE
8
FRONT
10
1.241691
20
0.912116
30
0.0
11
1.243101
21
0.909187
31
0.0
0
LINE
8
FRONT
10
1.243101
20
0.909187
30
0.0
11
1.244797
21
0.906413
31
0.0
0
LINE
8
FRONT
10
1.244797
20
0.906413
30
0.0
11
1.246759
21
0.903822
31
0.0
0
LINE
8
FRONT
10
1.246759
20
0.903822
30
0.0
11
1.248971
21
0.901439
31
0.0
0
LINE
8
FRONT
10
1.248971
20
0.901439
30
0.0
11
1.251408
21
0.899288
31
0.0
0
LINE
8
FRONT
10
1.251408
20
0.899288
30
0.0
11
1.254047
21
0.897390
31
0.0
0
LINE
8
FRONT
10
1.254047
20
0.897390
30
0.0
11
1.256863
21
0.895765
31
0.0
0
LINE
8
FRONT
10
1.256863
20
0.895765
30
0.0
11
1.259826
21
0.894428
31
0.0
0
LINE
8
FRONT
10
1.259826
20
0.894428
30
0.0
11
1.262907
21
0.893393
31
0.0
0
LINE
8
FRONT
10
1.262907
20
0.893393
30
0.0
11
1.266077
21
0.892669
31
0.0
0
LINE
8
FRONT
10
1.266077
20
0.892669
30
0.0
11
1.269302
21
0.892265
31
0.0
0
LINE
8
FRONT
10
1.269302
20
0.892265
30
0.0
11
1.272552
21
0.892184
31
0.0
0
LINE
8
FRONT
10
1.272552
20
0.892184
30
0.0
11
1.275794
21
0.892427
31
0.0
0
LINE
8
FRONT
10
1.275794
20
0.892427
30
0.0
11
1.278995
21
0.892991
31
0.0
0
LINE
8
FRONT
10
1.278995
20
0.892991
30
0.0
11
1.282125
21
0.893872
31
0.0
0
LINE
8
FRONT
10
1.282125
20
0.893872
30
0.0
11
1.285151
21
0.895060
31
0.0
0
LINE
8
FRONT
10
1.285151
20
0.895060
30
0.0
11
1.288043
21
0.896543
31
0.0
0
LINE
8
FRONT
10
1.288043
20
0.896543
30
0.0
11
1.290774
21
0.898306
31
0.0
0
LINE
8
FRONT
10
1.290774
20
0.898306
30
0.0
11
1.293316
21
0.900333
31
0.0
0
LINE
8
FRONT
10
1.293316
20
0.900333
30
0.0
11
1.295643
21
0.902603
31
0.0
0
LINE
8
FRONT
10
1.295643
20
0.902603
30
0.0
11
1.297733
21
0.905093
31
0.0
0
LINE
8
FRONT
10
1.297733
20
0.905093
30
0.0
11
1.299564
21
0.907779
31
0.0
0
LINE
8
FRONT
10
1.299564
20
0.907779
30
0.0
11
1.301119
21
0.910634
31
0.0
0
LINE
8
FRONT
10
1.301119
20
0.910634
30
0.0
11
1.302381
21
0.913630
31
0.0
0
LINE
8
FRONT
10
1.302381
20
0.913630
30
0.0
11
1.303339
21
0.916736
31
0.0
0
LINE
8
FRONT
10
1.303339
20
0.916736
30
0.0
11
1.303984
21
0.919923
31
0.0
0
LINE
8
FRONT
10
1.303984
20
0.919923
30
0.0
11
1.304307
21
0.923157
31
0.0
0
LINE
8
FRONT
10
1.304307
20
0.923157
30
0.0
11
1.304307
21
0.926408
31
0.0
0
LINE
8
FRONT
10
1.304307
20
0.926408
30
0.0
11
1.303984
21
0.929643
31
0.0
0
LINE
8
FRONT
10
1.303984
20
0.929643
30
0.0
11
1.303339
21
0.932829
31
0.0
0
LINE
8
FRONT
10
1.303339
20
0.932829
30
0.0
11
1.302381
21
0.935935
31
0.0
0
LINE
8
FRONT
10
1.302381
20
0.935935
30
0.0
11
1.301119
21
0.938931
31
0.0
0
LINE
8
FRONT
10
1.301119
20
0.938931
30
0.0
11
1.299564
21
0.941786
31
0.0
0
LINE
8
FRONT
10
1.299564
20
0.941786
30
0.0
11
1.297733
21
0.944472
31
0.0
0
LINE
8
FRONT
10
1.297733
20
0.944472
30
0.0
11
1.295643
21
0.946962
31
0.0
0
LINE
8
FRONT
10
1.295643
20
0.946962
30
0.0
11
1.293316
21
0.949232
31
0.0
0
LINE
8
FRONT
10
1.293316
20
0.949232
30
0.0
11
1.290774
21
0.951259
31
0.0
0
LINE
8
FRONT
10
1.290774
20
0.951259
30
0.0
11
1.288043
21
0.953023
31
0.0
0
LINE
8
FRONT
10
1.288043
20
0.953023
30
0.0
11
1.285151
21
0.954506
31
0.0
0
LINE
8
FRONT
10
1.285151
20
0.954506
30
0.0
11
1.282125
21
0.955693
31
0.0
0
LINE
8
FRONT
10
1.282125
20
0.955693
30
0.0
11
1.278995
21
0.956574
31
0.0
0
LINE
8
FRONT
10
1.278995
20
0.956574
30
0.0
11
1.275794
21
0.957138
31
0.0
0
LINE
8
FRONT
10
1.275794
20
0.957138
30
0.0
11
1.272552
21
0.957381
31
0.0
0
LINE
8
FRONT
10
1.272552
20
0.957381
30
0.0
11
1.269302
21
0.957300
31
0.0
0
LINE
8
FRONT
10
1.269302
20
0.957300
30
0.0
11
1.266077
21
0.956896
31
0.0
0
LINE
8
FRONT
10
1.266077
20
0.956896
30
0.0
11
1.262907
21
0.956173
31
0.0
0
LINE
8
FRONT
10
1.262907
20
0.956173
30
0.0
11
1.259826
21
0.955137
31
0.0
0
LINE
8
FRONT
10
1.259826
20
0.955137
30
0.0
11
1.256863
21
0.953800
31
0.0
0
LINE
8
FRONT
10
1.256863
20
0.953800
30
0.0
11
1.254047
21
0.952175
31
0.0
0
LINE
8
FRONT
10
1.254047
20
0.952175
30
0.0
11
1.251408
21
0.950277
31
0.0
0
LINE
8
FRONT
10
1.251408
20
0.950277
30
0.0
11
1.248971
21
0.948126
31
0.0
0
LINE
8
FRONT
10
1.248971
20
0.948126
30
0.0
11
1.246759
21
0.945743
31
0.0
0
LINE
8
FRONT
10
1.246759
20
0.945743
30
0.0
11
1.244797
21
0.943152
31
0.0
0
LINE
8
FRONT
10
1.244797
20
0.943152
30
0.0
11
1.243101
21
0.940378
31
0.0
0
LINE
8
FRONT
10
1.243101
20
0.940378
30
0.0
11
1.241691
21
0.937449
31
0.0
0
LINE
8
FRONT
10
1.241691
20
0.937449
30
0.0
11
1.240579
21
0.934394
31
0.0
0
LINE
8
FRONT
10
1.240579
20
0.934394
30
0.0
11
1.239777
21
0.931244
31
0.0
0
LINE
8
FRONT
10
1.239777
20
0.931244
30
0.0
11
1.239292
21
0.928029
31
0.0
0
LINE
8
FRONT
10
1.239292
20
0.928029
30
0.0
11
1.239130
21
0.924783
31
0.0
0
LINE
8
LEFT
10
1.674776
20
0.306496
30
0.0
11
1.674776
21
0.305217
31
0.0
0
LINE
8
LEFT
10
1.643471
20
0.306496
30
0.0
11
1.643471
21
0.305217
31
0.0
0
LINE
8
LEFT
10
1.643471
20
0.631304
30
0.0
11
1.643471
21
0.630026
31
0.0
0
LINE
8
LEFT
10
1.674776
20
0.631304
30
0.0
11
1.674776
21
0.630026
31
0.0
0
LINE
8
LEFT
10
1.674776
20
0.371202
30
0.0
11
1.674776
21
0.306496
31
0.0
0
LINE
8
LEFT
10
1.643471
20
0.371202
30
0.0
11
1.643471
21
0.306496
31
0.0
0
LINE
8
LEFT
10
1.643471
20
0.630026
30
0.0
11
1.643471
21
0.565320
31
0.0
0
LINE
8
LEFT
10
1.643471
20
0.927694
30
0.0
11
1.643471
21
0.663067
31
0.0
0
LINE
8
LEFT
10
1.643471
20
0.663067
30
0.0
11
1.643471
21
0.631304
31
0.0
0
LINE
8
LEFT
10
1.674776
20
0.927694
30
0.0
11
1.674776
21
0.663067
31
0.0
0
LINE
8
LEFT
10
1.674776
20
0.663067
30
0.0
11
1.674776
21
0.631304
31
0.0
0
LINE
8
LEFT
10
1.674776
20
0.630026
30
0.0
11
1.674776
21
0.565320
31
0.0
0
LINE
8
LEFT
10
1.674776
20
0.468261
30
0.0
11
1.674776
21
0.371202
31
0.0
0
LINE
8
LEFT
10
1.643471
20
0.468261
30
0.0
11
1.643471
21
0.371202
31
0.0
0
LINE
8
LEFT
10
1.643471
20
0.565320
30
0.0
11
1.643471
21
0.468261
31
0.0
0
LINE
8
LEFT
10
1.643471
20
1.006304
30
0.0
11
1.643471
21
0.927694
31
0.0
0
LINE
8
LEFT
10
1.674776
20
1.006304
30
0.0
11
1.674776
21
0.927694
31
0.0
0
LINE
8
LEFT
10
1.674776
20
0.565320
30
0.0
11
1.674776
21
0.468261
31
0.0
0
LINE
8
LEFT
10
1.643471
20
0.306496
30
0.0
11
1.674776
21
0.306496
31
0.0
0
LINE
8
LEFT
10
1.643471
20
0.371202
30
0.0
11
1.674776
21
0.371202
31
0.0
0
LINE
8
LEFT
10
1.643471
20
0.630026
30
0.0
11
1.674776
21
0.630026
31
0.0
0
LINE
8
LEFT
10
1.643471
20
0.565320
30
0.0
11
1.674776
21
0.565320
31
0.0
0
LINE
8
LEFT
10
1.643471
20
0.927694
30
0.0
11
1.674776
21
0.927694
31
0.0
0
LINE
8
LEFT
10
1.643471
20
0.663067
30
0.0
11
1.674776
21
0.663067
31
0.0
0
LINE
8
LEFT
10
1.674776
20
0.305217
30
0.0
11
1.643471
21
0.305217
31
0.0
0
LINE
8
LEFT
10
1.674776
20
0.631304
30
0.0
11
1.643471
21
0.631304
31
0.0
0
LINE
8
LEFT
10
1.674776
20
1.006304
30
0.0
11
1.643471
21
1.006304
31
0.0
0
LINE
8
LEFT_HID
6
HIDDEN
10
1.674776
20
0.305217
30
0.0
11
1.674776
21
0.306035
31
0.0
0
LINE
8
LEFT_HID
6
HIDDEN
10
1.643471
20
0.305217
30
0.0
11
1.643471
21
0.306035
31
0.0
0
LINE
8
LEFT_HID
6
HIDDEN
10
1.643471
20
0.306496
30
0.0
11
1.643471
21
0.468261
31
0.0
0
LINE
8
LEFT_HID
6
HIDDEN
10
1.643471
20
0.630487
30
0.0
11
1.643471
21
0.306035
31
0.0
0
LINE
8
LEFT_HID
6
HIDDEN
10
1.643471
20
0.630487
30
0.0
11
1.643471
21
0.631304
31
0.0
0
LINE
8
LEFT_HID
6
HIDDEN
10
1.643471
20
0.468261
30
0.0
11
1.643471
21
0.630026
31
0.0
0
LINE
8
LEFT_HID
6
HIDDEN
10
1.643471
20
0.468261
30
0.0
11
1.643471
21
0.435652
31
0.0
0
LINE
8
LEFT_HID
6
HIDDEN
10
1.643471
20
0.435652
30
0.0
11
1.643471
21
0.500870
31
0.0
0
LINE
8
LEFT_HID
6
HIDDEN
10
1.643471
20
0.500870
30
0.0
11
1.643471
21
0.468261
31
0.0
0
LINE
8
LEFT_HID
6
HIDDEN
10
1.674776
20
0.306035
30
0.0
11
1.674776
21
0.370925
31
0.0
0
LINE
8
LEFT_HID
6
HIDDEN
10
1.643471
20
0.306035
30
0.0
11
1.643471
21
0.370925
31
0.0
0
LINE
8
LEFT_HID
6
HIDDEN
10
1.674776
20
0.306496
30
0.0
11
1.674776
21
0.468261
31
0.0
0
LINE
8
LEFT_HID
6
HIDDEN
10
1.674776
20
0.630487
30
0.0
11
1.674776
21
0.306035
31
0.0
0
LINE
8
LEFT_HID
6
HIDDEN
10
1.674776
20
0.630487
30
0.0
11
1.674776
21
0.631304
31
0.0
0
LINE
8
LEFT_HID
6
HIDDEN
10
1.674776
20
0.468261
30
0.0
11
1.674776
21
0.630026
31
0.0
0
LINE
8
LEFT_HID
6
HIDDEN
10
1.674776
20
0.468261
30
0.0
11
1.674776
21
0.435652
31
0.0
0
LINE
8
LEFT_HID
6
HIDDEN
10
1.674776
20
0.435652
30
0.0
11
1.674776
21
0.500870
31
0.0
0
LINE
8
LEFT_HID
6
HIDDEN
10
1.674776
20
0.500870
30
0.0
11
1.674776
21
0.468261
31
0.0
0
LINE
8
LEFT_HID
6
HIDDEN
10
1.643471
20
0.565320
30
0.0
11
1.643471
21
0.371202
31
0.0
0
LINE
8
LEFT_HID
6
HIDDEN
10
1.643471
20
0.435652
30
0.0
11
1.643471
21
0.403043
31
0.0
0
LINE
8
LEFT_HID
6
HIDDEN
10
1.643471
20
0.403043
30
0.0
11
1.643471
21
0.468261
31
0.0
0
LINE
8
LEFT_HID
6
HIDDEN
10
1.643471
20
0.468261
30
0.0
11
1.643471
21
0.435652
31
0.0
0
LINE
8
LEFT_HID
6
HIDDEN
10
1.643471
20
0.468261
30
0.0
11
1.643471
21
0.370925
31
0.0
0
LINE
8
LEFT_HID
6
HIDDEN
10
1.643471
20
0.471755
30
0.0
11
1.643471
21
0.468261
31
0.0
0
LINE
8
LEFT_HID
6
HIDDEN
10
1.643471
20
0.471755
30
0.0
11
1.643471
21
0.927694
31
0.0
0
LINE
8
LEFT_HID
6
HIDDEN
10
1.643471
20
0.924783
30
0.0
11
1.643471
21
0.927694
31
0.0
0
LINE
8
LEFT_HID
6
HIDDEN
10
1.643471
20
0.927694
30
0.0
11
1.643471
21
0.924783
31
0.0
0
LINE
8
LEFT_HID
6
HIDDEN
10
1.643471
20
0.631304
30
0.0
11
1.643471
21
0.584331
31
0.0
0
LINE
8
LEFT_HID
6
HIDDEN
10
1.643471
20
0.584331
30
0.0
11
1.643471
21
0.584740
31
0.0
0
LINE
8
LEFT_HID
6
HIDDEN
10
1.643471
20
0.584740
30
0.0
11
1.643471
21
0.630487
31
0.0
0
LINE
8
LEFT_HID
6
HIDDEN
10
1.674776
20
0.370925
30
0.0
11
1.674776
21
0.471755
31
0.0
0
LINE
8
LEFT_HID
6
HIDDEN
10
1.643471
20
0.370925
30
0.0
11
1.643471
21
0.471755
31
0.0
0
LINE
8
LEFT_HID
6
HIDDEN
10
1.674776
20
0.468261
30
0.0
11
1.674776
21
0.370925
31
0.0
0
LINE
8
LEFT_HID
6
HIDDEN
10
1.674776
20
0.471755
30
0.0
11
1.674776
21
0.468261
31
0.0
0
LINE
8
LEFT_HID
6
HIDDEN
10
1.674776
20
0.471755
30
0.0
11
1.674776
21
0.927694
31
0.0
0
LINE
8
LEFT_HID
6
HIDDEN
10
1.674776
20
0.924783
30
0.0
11
1.674776
21
0.927694
31
0.0
0
LINE
8
LEFT_HID
6
HIDDEN
10
1.674776
20
0.927694
30
0.0
11
1.674776
21
0.924783
31
0.0
0
LINE
8
LEFT_HID
6
HIDDEN
10
1.674776
20
0.631304
30
0.0
11
1.674776
21
0.584331
31
0.0
0
LINE
8
LEFT_HID
6
HIDDEN
10
1.674776
20
0.584331
30
0.0
11
1.674776
21
0.584740
31
0.0
0
LINE
8
LEFT_HID
6
HIDDEN
10
1.674776
20
0.584740
30
0.0
11
1.674776
21
0.630487
31
0.0
0
LINE
8
LEFT_HID
6
HIDDEN
10
1.674776
20
0.565320
30
0.0
11
1.674776
21
0.371202
31
0.0
0
LINE
8
LEFT_HID
6
HIDDEN
10
1.674776
20
0.435652
30
0.0
11
1.674776
21
0.403043
31
0.0
0
LINE
8
LEFT_HID
6
HIDDEN
10
1.674776
20
0.403043
30
0.0
11
1.674776
21
0.468261
31
0.0
0
LINE
8
LEFT_HID
6
HIDDEN
10
1.674776
20
0.468261
30
0.0
11
1.674776
21
0.435652
31
0.0
0
LINE
8
LEFT_HID
6
HIDDEN
10
1.643471
20
0.468261
30
0.0
11
1.643471
21
0.435652
31
0.0
0
LINE
8
LEFT_HID
6
HIDDEN
10
1.643471
20
0.435652
30
0.0
11
1.643471
21
0.500870
31
0.0
0
LINE
8
LEFT_HID
6
HIDDEN
10
1.643471
20
0.500870
30
0.0
11
1.643471
21
0.468261
31
0.0
0
LINE
8
LEFT_HID
6
HIDDEN
10
1.643471
20
0.468261
30
0.0
11
1.643471
21
0.435652
31
0.0
0
LINE
8
LEFT_HID
6
HIDDEN
10
1.643471
20
0.435652
30
0.0
11
1.643471
21
0.500870
31
0.0
0
LINE
8
LEFT_HID
6
HIDDEN
10
1.643471
20
0.500870
30
0.0
11
1.643471
21
0.468261
31
0.0
0
LINE
8
LEFT_HID
6
HIDDEN
10
1.643471
20
0.924783
30
0.0
11
1.643471
21
0.892174
31
0.0
0
LINE
8
LEFT_HID
6
HIDDEN
10
1.643471
20
0.892174
30
0.0
11
1.643471
21
0.957391
31
0.0
0
LINE
8
LEFT_HID
6
HIDDEN
10
1.643471
20
0.957391
30
0.0
11
1.643471
21
0.924783
31
0.0
0
LINE
8
LEFT_HID
6
HIDDEN
10
1.674776
20
0.468261
30
0.0
11
1.674776
21
0.435652
31
0.0
0
LINE
8
LEFT_HID
6
HIDDEN
10
1.674776
20
0.435652
30
0.0
11
1.674776
21
0.500870
31
0.0
0
LINE
8
LEFT_HID
6
HIDDEN
10
1.674776
20
0.500870
30
0.0
11
1.674776
21
0.468261
31
0.0
0
LINE
8
LEFT_HID
6
HIDDEN
10
1.674776
20
0.924783
30
0.0
11
1.674776
21
0.892174
31
0.0
0
LINE
8
LEFT_HID
6
HIDDEN
10
1.674776
20
0.892174
30
0.0
11
1.674776
21
0.957391
31
0.0
0
LINE
8
LEFT_HID
6
HIDDEN
10
1.674776
20
0.957391
30
0.0
11
1.674776
21
0.924783
31
0.0
0
LINE
8
LEFT_HID
6
HIDDEN
10
1.674776
20
0.468261
30
0.0
11
1.674776
21
0.435652
31
0.0
0
LINE
8
LEFT_HID
6
HIDDEN
10
1.674776
20
0.435652
30
0.0
11
1.674776
21
0.500870
31
0.0
0
LINE
8
LEFT_HID
6
HIDDEN
10
1.674776
20
0.500870
30
0.0
11
1.674776
21
0.468261
31
0.0
0
LINE
8
LEFT_HID
6
HIDDEN
10
1.643471
20
0.306035
30
0.0
11
1.674776
21
0.306035
31
0.0
0
LINE
8
LEFT_HID
6
HIDDEN
10
1.643471
20
0.370925
30
0.0
11
1.674776
21
0.370925
31
0.0
0
LINE
8
LEFT_HID
6
HIDDEN
10
1.643471
20
0.630487
30
0.0
11
1.674776
21
0.630487
31
0.0
0
LINE
8
LEFT_HID
6
HIDDEN
10
1.643471
20
0.471755
30
0.0
11
1.674776
21
0.471755
31
0.0
0
LINE
8
LEFT_HID
6
HIDDEN
10
1.643471
20
0.584740
30
0.0
11
1.674776
21
0.584740
31
0.0
0
LINE
8
LEFT_HID
6
HIDDEN
10
1.674776
20
0.500870
30
0.0
11
1.643471
21
0.500870
31
0.0
0
LINE
8
LEFT_HID
6
HIDDEN
10
1.674776
20
0.435652
30
0.0
11
1.643471
21
0.435652
31
0.0
0
LINE
8
LEFT_HID
6
HIDDEN
10
1.674776
20
0.468261
30
0.0
11
1.643471
21
0.468261
31
0.0
0
LINE
8
LEFT_HID
6
HIDDEN
10
1.674776
20
0.403043
30
0.0
11
1.643471
21
0.403043
31
0.0
0
LINE
8
LEFT_HID
6
HIDDEN
10
1.674776
20
0.584331
30
0.0
11
1.643471
21
0.584331
31
0.0
0
LINE
8
LEFT_HID
6
HIDDEN
10
1.674776
20
0.500870
30
0.0
11
1.643471
21
0.500870
31
0.0
0
LINE
8
LEFT_HID
6
HIDDEN
10
1.674776
20
0.435652
30
0.0
11
1.643471
21
0.435652
31
0.0
0
LINE
8
LEFT_HID
6
HIDDEN
10
1.674776
20
0.500870
30
0.0
11
1.643471
21
0.500870
31
0.0
0
LINE
8
LEFT_HID
6
HIDDEN
10
1.674776
20
0.435652
30
0.0
11
1.643471
21
0.435652
31
0.0
0
LINE
8
LEFT_HID
6
HIDDEN
10
1.674776
20
0.957391
30
0.0
11
1.643471
21
0.957391
31
0.0
0
LINE
8
LEFT_HID
6
HIDDEN
10
1.674776
20
0.892174
30
0.0
11
1.643471
21
0.892174
31
0.0
0
LINE
8
TOP
10
0.635870
20
0.031304
30
0.0
11
0.599185
21
0.031304
31
0.0
0
LINE
8
TOP
10
0.635870
20
0.000000
30
0.0
11
0.599185
21
0.000000
31
0.0
0
LINE
8
TOP
10
0.599185
20
0.031304
30
0.0
11
0.085598
21
0.031304
31
0.0
0
LINE
8
TOP
10
1.369503
20
0.031304
30
0.0
11
1.353209
21
0.031304
31
0.0
0
LINE
8
TOP
10
1.190269
20
0.031304
30
0.0
11
1.180812
21
0.031304
31
0.0
0
LINE
8
TOP
10
1.180812
20
0.031304
30
0.0
11
1.091047
21
0.031304
31
0.0
0
LINE
8
TOP
10
1.091047
20
0.031304
30
0.0
11
0.635870
21
0.031304
31
0.0
0
LINE
8
TOP
10
1.369565
20
0.000000
30
0.0
11
1.369503
21
0.000000
31
0.0
0
LINE
8
TOP
10
1.369565
20
0.031304
30
0.0
11
1.369503
21
0.031304
31
0.0
0
LINE
8
TOP
10
1.369503
20
0.000000
30
0.0
11
1.353209
21
0.000000
31
0.0
0
LINE
8
TOP
10
1.190269
20
0.000000
30
0.0
11
1.180812
21
0.000000
31
0.0
0
LINE
8
TOP
10
1.180812
20
0.000000
30
0.0
11
1.091047
21
0.000000
31
0.0
0
LINE
8
TOP
10
1.091047
20
0.000000
30
0.0
11
0.635870
21
0.000000
31
0.0
0
LINE
8
TOP
10
0.599185
20
0.000000
30
0.0
11
0.085598
21
0.000000
31
0.0
0
LINE
8
TOP
10
0.000000
20
0.031304
30
0.0
11
0.000000
21
0.000000
31
0.0
0
LINE
8
TOP
10
0.085598
20
0.031304
30
0.0
11
0.000000
21
0.031304
31
0.0
0
LINE
8
TOP
10
1.353209
20
0.031304
30
0.0
11
1.190269
21
0.031304
31
0.0
0
LINE
8
TOP
10
1.353209
20
0.000000
30
0.0
11
1.190269
21
0.000000
31
0.0
0
LINE
8
TOP
10
0.085598
20
0.000000
30
0.0
11
0.000000
21
0.000000
31
0.0
0
LINE
8
TOP
10
0.635870
20
0.031304
30
0.0
11
0.635870
21
0.000000
31
0.0
0
LINE
8
TOP
10
0.599185
20
0.031304
30
0.0
11
0.599185
21
0.000000
31
0.0
0
LINE
8
TOP
10
1.369503
20
0.031304
30
0.0
11
1.369503
21
0.000000
31
0.0
0
LINE
8
TOP
10
0.085598
20
0.031304
30
0.0
11
0.085598
21
0.000000
31
0.0
0
LINE
8
TOP
10
1.353209
20
0.031304
30
0.0
11
1.353209
21
0.000000
31
0.0
0
LINE
8
TOP
10
1.190269
20
0.031304
30
0.0
11
1.190269
21
0.000000
31
0.0
0
LINE
8
TOP
10
1.180812
20
0.031304
30
0.0
11
1.180812
21
0.000000
31
0.0
0
LINE
8
TOP
10
1.091047
20
0.031304
30
0.0
11
1.091047
21
0.000000
31
0.0
0
LINE
8
TOP
10
1.369565
20
0.000000
30
0.0
11
1.369565
21
0.031304
31
0.0
0
LINE
8
TOP_HID
6
HIDDEN
10
0.599185
20
0.031304
30
0.0
11
0.456522
21
0.031304
31
0.0
0
LINE
8
TOP_HID
6
HIDDEN
10
0.635870
20
0.031304
30
0.0
11
0.640528
21
0.031304
31
0.0
0
LINE
8
TOP_HID
6
HIDDEN
10
0.640528
20
0.031304
30
0.0
11
0.645186
21
0.031304
31
0.0
0
LINE
8
TOP_HID
6
HIDDEN
10
0.645186
20
0.031304
30
0.0
11
0.649845
21
0.031304
31
0.0
0
LINE
8
TOP_HID
6
HIDDEN
10
0.649845
20
0.031304
30
0.0
11
0.654503
21
0.031304
31
0.0
0
LINE
8
TOP_HID
6
HIDDEN
10
0.654503
20
0.031304
30
0.0
11
0.659161
21
0.031304
31
0.0
0
LINE
8
TOP_HID
6
HIDDEN
10
0.659161
20
0.031304
30
0.0
11
0.663820
21
0.031304
31
0.0
0
LINE
8
TOP_HID
6
HIDDEN
10
0.663820
20
0.031304
30
0.0
11
0.668478
21
0.031304
31
0.0
0
LINE
8
TOP_HID
6
HIDDEN
10
0.668478
20
0.031304
30
0.0
11
0.673137
21
0.031304
31
0.0
0
LINE
8
TOP_HID
6
HIDDEN
10
0.673137
20
0.031304
30
0.0
11
0.677795
21
0.031304
31
0.0
0
LINE
8
TOP_HID
6
HIDDEN
10
0.677795
20
0.031304
30
0.0
11
0.682453
21
0.031304
31
0.0
0
LINE
8
TOP_HID
6
HIDDEN
10
0.682453
20
0.031304
30
0.0
11
0.687112
21
0.031304
31
0.0
0
LINE
8
TOP_HID
6
HIDDEN
10
0.687112
20
0.031304
30
0.0
11
0.691770
21
0.031304
31
0.0
0
LINE
8
TOP_HID
6
HIDDEN
10
0.691770
20
0.031304
30
0.0
11
0.696429
21
0.031304
31
0.0
0
LINE
8
TOP_HID
6
HIDDEN
10
0.696429
20
0.031304
30
0.0
11
0.701087
21
0.031304
31
0.0
0
LINE
8
TOP_HID
6
HIDDEN
10
0.701087
20
0.031304
30
0.0
11
0.705745
21
0.031304
31
0.0
0
LINE
8
TOP_HID
6
HIDDEN
10
0.705745
20
0.031304
30
0.0
11
0.710404
21
0.031304
31
0.0
0
LINE
8
TOP_HID
6
HIDDEN
10
0.710404
20
0.031304
30
0.0
11
0.715062
21
0.031304
31
0.0
0
LINE
8
TOP_HID
6
HIDDEN
10
0.715062
20
0.031304
30
0.0
11
0.719720
21
0.031304
31
0.0
0
LINE
8
TOP_HID
6
HIDDEN
10
0.719720
20
0.031304
30
0.0
11
0.724379
21
0.031304
31
0.0
0
LINE
8
TOP_HID
6
HIDDEN
10
0.724379
20
0.031304
30
0.0
11
0.729037
21
0.031304
31
0.0
0
LINE
8
TOP_HID
6
HIDDEN
10
0.729037
20
0.031304
30
0.0
11
0.733696
21
0.031304
31
0.0
0
LINE
8
TOP_HID
6
HIDDEN
10
0.733696
20
0.031304
30
0.0
11
0.738354
21
0.031304
31
0.0
0
LINE
8
TOP_HID
6
HIDDEN
10
0.738354
20
0.031304
30
0.0
11
0.743012
21
0.031304
31
0.0
0
LINE
8
TOP_HID
6
HIDDEN
10
0.743012
20
0.031304
30
0.0
11
0.747671
21
0.031304
31
0.0
0
LINE
8
TOP_HID
6
HIDDEN
10
0.747671
20
0.031304
30
0.0
11
0.752329
21
0.031304
31
0.0
0
LINE
8
TOP_HID
6
HIDDEN
10
0.752329
20
0.031304
30
0.0
11
0.756988
21
0.031304
31
0.0
0
LINE
8
TOP_HID
6
HIDDEN
10
0.756988
20
0.031304
30
0.0
11
0.761646
21
0.031304
31
0.0
0
LINE
8
TOP_HID
6
HIDDEN
10
0.761646
20
0.031304
30
0.0
11
0.766304
21
0.031304
31
0.0
0
LINE
8
TOP_HID
6
HIDDEN
10
0.766304
20
0.031304
30
0.0
11
0.770963
21
0.031304
31
0.0
0
LINE
8
TOP_HID
6
HIDDEN
10
0.770963
20
0.031304
30
0.0
11
0.775621
21
0.031304
31
0.0
0
LINE
8
TOP_HID
6
HIDDEN
10
0.775621
20
0.031304
30
0.0
11
0.780280
21
0.031304
31
0.0
0
LINE
8
TOP_HID
6
HIDDEN
10
0.780280
20
0.031304
30
0.0
11
0.775621
21
0.031304
31
0.0
0
LINE
8
TOP_HID
6
HIDDEN
10
0.775621
20
0.031304
30
0.0
11
0.770963
21
0.031304
31
0.0
0
LINE
8
TOP_HID
6
HIDDEN
10
0.770963
20
0.031304
30
0.0
11
0.766304
21
0.031304
31
0.0
0
LINE
8
TOP_HID
6
HIDDEN
10
0.766304
20
0.031304
30
0.0
11
0.761646
21
0.031304
31
0.0
0
LINE
8
TOP_HID
6
HIDDEN
10
0.761646
20
0.031304
30
0.0
11
0.756988
21
0.031304
31
0.0
0
LINE
8
TOP_HID
6
HIDDEN
10
0.756988
20
0.031304
30
0.0
11
0.752329
21
0.031304
31
0.0
0
LINE
8
TOP_HID
6
HIDDEN
10
0.752329
20
0.031304
30
0.0
11
0.747671
21
0.031304
31
0.0
0
LINE
8
TOP_HID
6
HIDDEN
10
0.747671
20
0.031304
30
0.0
11
0.743012
21
0.031304
31
0.0
0
LINE
8
TOP_HID
6
HIDDEN
10
0.743012
20
0.031304
30
0.0
11
0.738354
21
0.031304
31
0.0
0
LINE
8
TOP_HID
6
HIDDEN
10
0.738354
20
0.031304
30
0.0
11
0.733696
21
0.031304
31
0.0
0
LINE
8
TOP_HID
6
HIDDEN
10
0.733696
20
0.031304
30
0.0
11
0.729037
21
0.031304
31
0.0
0
LINE
8
TOP_HID
6
HIDDEN
10
0.729037
20
0.031304
30
0.0
11
0.724379
21
0.031304
31
0.0
0
LINE
8
TOP_HID
6
HIDDEN
10
0.724379
20
0.031304
30
0.0
11
0.719720
21
0.031304
31
0.0
0
LINE
8
TOP_HID
6
HIDDEN
10
0.719720
20
0.031304
30
0.0
11
0.715062
21
0.031304
31
0.0
0
LINE
8
TOP_HID
6
HIDDEN
10
0.715062
20
0.031304
30
0.0
11
0.710404
21
0.031304
31
0.0
0
LINE
8
TOP_HID
6
HIDDEN
10
0.710404
20
0.031304
30
0.0
11
0.705745
21
0.031304
31
0.0
0
LINE
8
TOP_HID
6
HIDDEN
10
0.705745
20
0.031304
30
0.0
11
0.701087
21
0.031304
31
0.0
0
LINE
8
TOP_HID
6
HIDDEN
10
0.701087
20
0.031304
30
0.0
11
0.696429
21
0.031304
31
0.0
0
LINE
8
TOP_HID
6
HIDDEN
10
0.696429
20
0.031304
30
0.0
11
0.691770
21
0.031304
31
0.0
0
LINE
8
TOP_HID
6
HIDDEN
10
0.691770
20
0.031304
30
0.0
11
0.687112
21
0.031304
31
0.0
0
LINE
8
TOP_HID
6
HIDDEN
10
0.687112
20
0.031304
30
0.0
11
0.682453
21
0.031304
31
0.0
0
LINE
8
TOP_HID
6
HIDDEN
10
0.682453
20
0.031304
30
0.0
11
0.677795
21
0.031304
31
0.0
0
LINE
8
TOP_HID
6
HIDDEN
10
0.677795
20
0.031304
30
0.0
11
0.673137
21
0.031304
31
0.0
0
LINE
8
TOP_HID
6
HIDDEN
10
0.673137
20
0.031304
30
0.0
11
0.668478
21
0.031304
31
0.0
0
LINE
8
TOP_HID
6
HIDDEN
10
0.668478
20
0.031304
30
0.0
11
0.663820
21
0.031304
31
0.0
0
LINE
8
TOP_HID
6
HIDDEN
10
0.663820
20
0.031304
30
0.0
11
0.659161
21
0.031304
31
0.0
0
LINE
8
TOP_HID
6
HIDDEN
10
0.659161
20
0.031304
30
0.0
11
0.654503
21
0.031304
31
0.0
0
LINE
8
TOP_HID
6
HIDDEN
10
0.654503
20
0.031304
30
0.0
11
0.649845
21
0.031304
31
0.0
0
LINE
8
TOP_HID
6
HIDDEN
10
0.649845
20
0.031304
30
0.0
11
0.645186
21
0.031304
31
0.0
0
LINE
8
TOP_HID
6
HIDDEN
10
0.645186
20
0.031304
30
0.0
11
0.640528
21
0.031304
31
0.0
0
LINE
8
TOP_HID
6
HIDDEN
10
0.640528
20
0.031304
30
0.0
11
0.635870
21
0.031304
31
0.0
0
LINE
8
TOP_HID
6
HIDDEN
10
0.456522
20
0.031304
30
0.0
11
0.599185
21
0.031304
31
0.0
0
LINE
8
TOP_HID
6
HIDDEN
10
0.586957
20
0.031304
30
0.0
11
0.652174
21
0.031304
31
0.0
0
LINE
8
TOP_HID
6
HIDDEN
10
0.652174
20
0.031304
30
0.0
11
0.586957
21
0.031304
31
0.0
0
LINE
8
TOP_HID
6
HIDDEN
10
0.635870
20
0.000000
30
0.0
11
1.281522
21
0.000000
31
0.0
0
LINE
8
TOP_HID
6
HIDDEN
10
0.635870
20
0.031304
30
0.0
11
1.281522
21
0.031304
31
0.0
0
LINE
8
TOP_HID
6
HIDDEN
10
0.599185
20
0.000000
30
0.0
11
0.456522
21
0.000000
31
0.0
0
LINE
8
TOP_HID
6
HIDDEN
10
0.635870
20
0.000000
30
0.0
11
0.640528
21
0.000000
31
0.0
0
LINE
8
TOP_HID
6
HIDDEN
10
0.640528
20
0.000000
30
0.0
11
0.645186
21
0.000000
31
0.0
0
LINE
8
TOP_HID
6
HIDDEN
10
0.645186
20
0.000000
30
0.0
11
0.649845
21
0.000000
31
0.0
0
LINE
8
TOP_HID
6
HIDDEN
10
0.649845
20
0.000000
30
0.0
11
0.654503
21
0.000000
31
0.0
0
LINE
8
TOP_HID
6
HIDDEN
10
0.654503
20
0.000000
30
0.0
11
0.659161
21
0.000000
31
0.0
0
LINE
8
TOP_HID
6
HIDDEN
10
0.659161
20
0.000000
30
0.0
11
0.663820
21
0.000000
31
0.0
0
LINE
8
TOP_HID
6
HIDDEN
10
0.663820
20
0.000000
30
0.0
11
0.668478
21
0.000000
31
0.0
0
LINE
8
TOP_HID
6
HIDDEN
10
0.668478
20
0.000000
30
0.0
11
0.673137
21
0.000000
31
0.0
0
LINE
8
TOP_HID
6
HIDDEN
10
0.673137
20
0.000000
30
0.0
11
0.677795
21
0.000000
31
0.0
0
LINE
8
TOP_HID
6
HIDDEN
10
0.677795
20
0.000000
30
0.0
11
0.682453
21
0.000000
31
0.0
0
LINE
8
TOP_HID
6
HIDDEN
10
0.682453
20
0.000000
30
0.0
11
0.687112
21
0.000000
31
0.0
0
LINE
8
TOP_HID
6
HIDDEN
10
0.687112
20
0.000000
30
0.0
11
0.691770
21
0.000000
31
0.0
0
LINE
8
TOP_HID
6
HIDDEN
10
0.691770
20
0.000000
30
0.0
11
0.696429
21
0.000000
31
0.0
0
LINE
8
TOP_HID
6
HIDDEN
10
0.696429
20
0.000000
30
0.0
11
0.701087
21
0.000000
31
0.0
0
LINE
8
TOP_HID
6
HIDDEN
10
0.701087
20
0.000000
30
0.0
11
0.705745
21
0.000000
31
0.0
0
LINE
8
TOP_HID
6
HIDDEN
10
0.705745
20
0.000000
30
0.0
11
0.710404
21
0.000000
31
0.0
0
LINE
8
TOP_HID
6
HIDDEN
10
0.710404
20
0.000000
30
0.0
11
0.715062
21
0.000000
31
0.0
0
LINE
8
TOP_HID
6
HIDDEN
10
0.715062
20
0.000000
30
0.0
11
0.719720
21
0.000000
31
0.0
0
LINE
8
TOP_HID
6
HIDDEN
10
0.719720
20
0.000000
30
0.0
11
0.724379
21
0.000000
31
0.0
0
LINE
8
TOP_HID
6
HIDDEN
10
0.724379
20
0.000000
30
0.0
11
0.729037
21
0.000000
31
0.0
0
LINE
8
TOP_HID
6
HIDDEN
10
0.729037
20
0.000000
30
0.0
11
0.733696
21
0.000000
31
0.0
0
LINE
8
TOP_HID
6
HIDDEN
10
0.733696
20
0.000000
30
0.0
11
0.738354
21
0.000000
31
0.0
0
LINE
8
TOP_HID
6
HIDDEN
10
0.738354
20
0.000000
30
0.0
11
0.743012
21
0.000000
31
0.0
0
LINE
8
TOP_HID
6
HIDDEN
10
0.743012
20
0.000000
30
0.0
11
0.747671
21
0.000000
31
0.0
0
LINE
8
TOP_HID
6
HIDDEN
10
0.747671
20
0.000000
30
0.0
11
0.752329
21
0.000000
31
0.0
0
LINE
8
TOP_HID
6
HIDDEN
10
0.752329
20
0.000000
30
0.0
11
0.756988
21
0.000000
31
0.0
0
LINE
8
TOP_HID
6
HIDDEN
10
0.756988
20
0.000000
30
0.0
11
0.761646
21
0.000000
31
0.0
0
LINE
8
TOP_HID
6
HIDDEN
10
0.761646
20
0.000000
30
0.0
11
0.766304
21
0.000000
31
0.0
0
LINE
8
TOP_HID
6
HIDDEN
10
0.766304
20
0.000000
30
0.0
11
0.770963
21
0.000000
31
0.0
0
LINE
8
TOP_HID
6
HIDDEN
10
0.770963
20
0.000000
30
0.0
11
0.775621
21
0.000000
31
0.0
0
LINE
8
TOP_HID
6
HIDDEN
10
0.775621
20
0.000000
30
0.0
11
0.780280
21
0.000000
31
0.0
0
LINE
8
TOP_HID
6
HIDDEN
10
0.780280
20
0.000000
30
0.0
11
0.775621
21
0.000000
31
0.0
0
LINE
8
TOP_HID
6
HIDDEN
10
0.775621
20
0.000000
30
0.0
11
0.770963
21
0.000000
31
0.0
0
LINE
8
TOP_HID
6
HIDDEN
10
0.770963
20
0.000000
30
0.0
11
0.766304
21
0.000000
31
0.0
0
LINE
8
TOP_HID
6
HIDDEN
10
0.766304
20
0.000000
30
0.0
11
0.761646
21
0.000000
31
0.0
0
LINE
8
TOP_HID
6
HIDDEN
10
0.761646
20
0.000000
30
0.0
11
0.756988
21
0.000000
31
0.0
0
LINE
8
TOP_HID
6
HIDDEN
10
0.756988
20
0.000000
30
0.0
11
0.752329
21
0.000000
31
0.0
0
LINE
8
TOP_HID
6
HIDDEN
10
0.752329
20
0.000000
30
0.0
11
0.747671
21
0.000000
31
0.0
0
LINE
8
TOP_HID
6
HIDDEN
10
0.747671
20
0.000000
30
0.0
11
0.743012
21
0.000000
31
0.0
0
LINE
8
TOP_HID
6
HIDDEN
10
0.743012
20
0.000000
30
0.0
11
0.738354
21
0.000000
31
0.0
0
LINE
8
TOP_HID
6
HIDDEN
10
0.738354
20
0.000000
30
0.0
11
0.733696
21
0.000000
31
0.0
0
LINE
8
TOP_HID
6
HIDDEN
10
0.733696
20
0.000000
30
0.0
11
0.729037
21
0.000000
31
0.0
0
LINE
8
TOP_HID
6
HIDDEN
10
0.729037
20
0.000000
30
0.0
11
0.724379
21
0.000000
31
0.0
0
LINE
8
TOP_HID
6
HIDDEN
10
0.724379
20
0.000000
30
0.0
11
0.719720
21
0.000000
31
0.0
0
LINE
8
TOP_HID
6
HIDDEN
10
0.719720
20
0.000000
30
0.0
11
0.715062
21
0.000000
31
0.0
0
LINE
8
TOP_HID
6
HIDDEN
10
0.715062
20
0.000000
30
0.0
11
0.710404
21
0.000000
31
0.0
0
LINE
8
TOP_HID
6
HIDDEN
10
0.710404
20
0.000000
30
0.0
11
0.705745
21
0.000000
31
0.0
0
LINE
8
TOP_HID
6
HIDDEN
10
0.705745
20
0.000000
30
0.0
11
0.701087
21
0.000000
31
0.0
0
LINE
8
TOP_HID
6
HIDDEN
10
0.701087
20
0.000000
30
0.0
11
0.696429
21
0.000000
31
0.0
0
LINE
8
TOP_HID
6
HIDDEN
10
0.696429
20
0.000000
30
0.0
11
0.691770
21
0.000000
31
0.0
0
LINE
8
TOP_HID
6
HIDDEN
10
0.691770
20
0.000000
30
0.0
11
0.687112
21
0.000000
31
0.0
0
LINE
8
TOP_HID
6
HIDDEN
10
0.687112
20
0.000000
30
0.0
11
0.682453
21
0.000000
31
0.0
0
LINE
8
TOP_HID
6
HIDDEN
10
0.682453
20
0.000000
30
0.0
11
0.677795
21
0.000000
31
0.0
0
LINE
8
TOP_HID
6
HIDDEN
10
0.677795
20
0.000000
30
0.0
11
0.673137
21
0.000000
31
0.0
0
LINE
8
TOP_HID
6
HIDDEN
10
0.673137
20
0.000000
30
0.0
11
0.668478
21
0.000000
31
0.0
0
LINE
8
TOP_HID
6
HIDDEN
10
0.668478
20
0.000000
30
0.0
11
0.663820
21
0.000000
31
0.0
0
LINE
8
TOP_HID
6
HIDDEN
10
0.663820
20
0.000000
30
0.0
11
0.659161
21
0.000000
31
0.0
0
LINE
8
TOP_HID
6
HIDDEN
10
0.659161
20
0.000000
30
0.0
11
0.654503
21
0.000000
31
0.0
0
LINE
8
TOP_HID
6
HIDDEN
10
0.654503
20
0.000000
30
0.0
11
0.649845
21
0.000000
31
0.0
0
LINE
8
TOP_HID
6
HIDDEN
10
0.649845
20
0.000000
30
0.0
11
0.645186
21
0.000000
31
0.0
0
LINE
8
TOP_HID
6
HIDDEN
10
0.645186
20
0.000000
30
0.0
11
0.640528
21
0.000000
31
0.0
0
LINE
8
TOP_HID
6
HIDDEN
10
0.640528
20
0.000000
30
0.0
11
0.635870
21
0.000000
31
0.0
0
LINE
8
TOP_HID
6
HIDDEN
10
0.456522
20
0.000000
30
0.0
11
0.599185
21
0.000000
31
0.0
0
LINE
8
TOP_HID
6
HIDDEN
10
0.586957
20
0.000000
30
0.0
11
0.652174
21
0.000000
31
0.0
0
LINE
8
TOP_HID
6
HIDDEN
10
0.652174
20
0.000000
30
0.0
11
0.586957
21
0.000000
31
0.0
0
LINE
8
TOP_HID
6
HIDDEN
10
0.085598
20
0.031304
30
0.0
11
0.089092
21
0.031304
31
0.0
0
LINE
8
TOP_HID
6
HIDDEN
10
0.089092
20
0.031304
30
0.0
11
0.092585
21
0.031304
31
0.0
0
LINE
8
TOP_HID
6
HIDDEN
10
0.092585
20
0.031304
30
0.0
11
0.096079
21
0.031304
31
0.0
0
LINE
8
TOP_HID
6
HIDDEN
10
0.096079
20
0.031304
30
0.0
11
0.099573
21
0.031304
31
0.0
0
LINE
8
TOP_HID
6
HIDDEN
10
0.099573
20
0.031304
30
0.0
11
0.103067
21
0.031304
31
0.0
0
LINE
8
TOP_HID
6
HIDDEN
10
0.103067
20
0.031304
30
0.0
11
0.106561
21
0.031304
31
0.0
0
LINE
8
TOP_HID
6
HIDDEN
10
0.106561
20
0.031304
30
0.0
11
0.110054
21
0.031304
31
0.0
0
LINE
8
TOP_HID
6
HIDDEN
10
0.110054
20
0.031304
30
0.0
11
0.113548
21
0.031304
31
0.0
0
LINE
8
TOP_HID
6
HIDDEN
10
0.113548
20
0.031304
30
0.0
11
0.117042
21
0.031304
31
0.0
0
LINE
8
TOP_HID
6
HIDDEN
10
0.117042
20
0.031304
30
0.0
11
0.120536
21
0.031304
31
0.0
0
LINE
8
TOP_HID
6
HIDDEN
10
0.120536
20
0.031304
30
0.0
11
0.124029
21
0.031304
31
0.0
0
LINE
8
TOP_HID
6
HIDDEN
10
0.124029
20
0.031304
30
0.0
11
0.127523
21
0.031304
31
0.0
0
LINE
8
TOP_HID
6
HIDDEN
10
0.127523
20
0.031304
30
0.0
11
0.131017
21
0.031304
31
0.0
0
LINE
8
TOP_HID
6
HIDDEN
10
0.131017
20
0.031304
30
0.0
11
0.134511
21
0.031304
31
0.0
0
LINE
8
TOP_HID
6
HIDDEN
10
0.134511
20
0.031304
30
0.0
11
0.138005
21
0.031304
31
0.0
0
LINE
8
TOP_HID
6
HIDDEN
10
0.138005
20
0.031304
30
0.0
11
0.141498
21
0.031304
31
0.0
0
LINE
8
TOP_HID
6
HIDDEN
10
0.141498
20
0.031304
30
0.0
11
0.144992
21
0.031304
31
0.0
0
LINE
8
TOP_HID
6
HIDDEN
10
0.144992
20
0.031304
30
0.0
11
0.148486
21
0.031304
31
0.0
0
LINE
8
TOP_HID
6
HIDDEN
10
0.148486
20
0.031304
30
0.0
11
0.151980
21
0.031304
31
0.0
0
LINE
8
TOP_HID
6
HIDDEN
10
0.151980
20
0.031304
30
0.0
11
0.155474
21
0.031304
31
0.0
0
LINE
8
TOP_HID
6
HIDDEN
10
0.155474
20
0.031304
30
0.0
11
0.158967
21
0.031304
31
0.0
0
LINE
8
TOP_HID
6
HIDDEN
10
0.158967
20
0.031304
30
0.0
11
0.162461
21
0.031304
31
0.0
0
LINE
8
TOP_HID
6
HIDDEN
10
0.162461
20
0.031304
30
0.0
11
0.165955
21
0.031304
31
0.0
0
LINE
8
TOP_HID
6
HIDDEN
10
0.165955
20
0.031304
30
0.0
11
0.169449
21
0.031304
31
0.0
0
LINE
8
TOP_HID
6
HIDDEN
10
0.169449
20
0.031304
30
0.0
11
0.172943
21
0.031304
31
0.0
0
LINE
8
TOP_HID
6
HIDDEN
10
0.172943
20
0.031304
30
0.0
11
0.176436
21
0.031304
31
0.0
0
LINE
8
TOP_HID
6
HIDDEN
10
0.176436
20
0.031304
30
0.0
11
0.179930
21
0.031304
31
0.0
0
LINE
8
TOP_HID
6
HIDDEN
10
0.179930
20
0.031304
30
0.0
11
0.183424
21
0.031304
31
0.0
0
LINE
8
TOP_HID
6
HIDDEN
10
0.183424
20
0.031304
30
0.0
11
0.186918
21
0.031304
31
0.0
0
LINE
8
TOP_HID
6
HIDDEN
10
0.186918
20
0.031304
30
0.0
11
0.190411
21
0.031304
31
0.0
0
LINE
8
TOP_HID
6
HIDDEN
10
0.190411
20
0.031304
30
0.0
11
0.193905
21
0.031304
31
0.0
0
LINE
8
TOP_HID
6
HIDDEN
10
0.193905
20
0.031304
30
0.0
11
0.190411
21
0.031304
31
0.0
0
LINE
8
TOP_HID
6
HIDDEN
10
0.190411
20
0.031304
30
0.0
11
0.186918
21
0.031304
31
0.0
0
LINE
8
TOP_HID
6
HIDDEN
10
0.186918
20
0.031304
30
0.0
11
0.183424
21
0.031304
31
0.0
0
LINE
8
TOP_HID
6
HIDDEN
10
0.183424
20
0.031304
30
0.0
11
0.179930
21
0.031304
31
0.0
0
LINE
8
TOP_HID
6
HIDDEN
10
0.179930
20
0.031304
30
0.0
11
0.176436
21
0.031304
31
0.0
0
LINE
8
TOP_HID
6
HIDDEN
10
0.176436
20
0.031304
30
0.0
11
0.172943
21
0.031304
31
0.0
0
LINE
8
TOP_HID
6
HIDDEN
10
0.172943
20
0.031304
30
0.0
11
0.169449
21
0.031304
31
0.0
0
LINE
8
TOP_HID
6
HIDDEN
10
0.169449
20
0.031304
30
0.0
11
0.165955
21
0.031304
31
0.0
0
LINE
8
TOP_HID
6
HIDDEN
10
0.165955
20
0.031304
30
0.0
11
0.162461
21
0.031304
31
0.0
0
LINE
8
TOP_HID
6
HIDDEN
10
0.162461
20
0.031304
30
0.0
11
0.158967
21
0.031304
31
0.0
0
LINE
8
TOP_HID
6
HIDDEN
10
0.158967
20
0.031304
30
0.0
11
0.155474
21
0.031304
31
0.0
0
LINE
8
TOP_HID
6
HIDDEN
10
0.155474
20
0.031304
30
0.0
11
0.151980
21
0.031304
31
0.0
0
LINE
8
TOP_HID
6
HIDDEN
10
0.151980
20
0.031304
30
0.0
11
0.148486
21
0.031304
31
0.0
0
LINE
8
TOP_HID
6
HIDDEN
10
0.148486
20
0.031304
30
0.0
11
0.144992
21
0.031304
31
0.0
0
LINE
8
TOP_HID
6
HIDDEN
10
0.144992
20
0.031304
30
0.0
11
0.141498
21
0.031304
31
0.0
0
LINE
8
TOP_HID
6
HIDDEN
10
0.141498
20
0.031304
30
0.0
11
0.138005
21
0.031304
31
0.0
0
LINE
8
TOP_HID
6
HIDDEN
10
0.138005
20
0.031304
30
0.0
11
0.134511
21
0.031304
31
0.0
0
LINE
8
TOP_HID
6
HIDDEN
10
0.134511
20
0.031304
30
0.0
11
0.131017
21
0.031304
31
0.0
0
LINE
8
TOP_HID
6
HIDDEN
10
0.131017
20
0.031304
30
0.0
11
0.127523
21
0.031304
31
0.0
0
LINE
8
TOP_HID
6
HIDDEN
10
0.127523
20
0.031304
30
0.0
11
0.124029
21
0.031304
31
0.0
0
LINE
8
TOP_HID
6
HIDDEN
10
0.124029
20
0.031304
30
0.0
11
0.120536
21
0.031304
31
0.0
0
LINE
8
TOP_HID
6
HIDDEN
10
0.120536
20
0.031304
30
0.0
11
0.117042
21
0.031304
31
0.0
0
LINE
8
TOP_HID
6
HIDDEN
10
0.117042
20
0.031304
30
0.0
11
0.113548
21
0.031304
31
0.0
0
LINE
8
TOP_HID
6
HIDDEN
10
0.113548
20
0.031304
30
0.0
11
0.110054
21
0.031304
31
0.0
0
LINE
8
TOP_HID
6
HIDDEN
10
0.110054
20
0.031304
30
0.0
11
0.106561
21
0.031304
31
0.0
0
LINE
8
TOP_HID
6
HIDDEN
10
0.106561
20
0.031304
30
0.0
11
0.103067
21
0.031304
31
0.0
0
LINE
8
TOP_HID
6
HIDDEN
10
0.103067
20
0.031304
30
0.0
11
0.099573
21
0.031304
31
0.0
0
LINE
8
TOP_HID
6
HIDDEN
10
0.099573
20
0.031304
30
0.0
11
0.096079
21
0.031304
31
0.0
0
LINE
8
TOP_HID
6
HIDDEN
10
0.096079
20
0.031304
30
0.0
11
0.092585
21
0.031304
31
0.0
0
LINE
8
TOP_HID
6
HIDDEN
10
0.092585
20
0.031304
30
0.0
11
0.089092
21
0.031304
31
0.0
0
LINE
8
TOP_HID
6
HIDDEN
10
0.089092
20
0.031304
30
0.0
11
0.085598
21
0.031304
31
0.0
0
LINE
8
TOP_HID
6
HIDDEN
10
0.211826
20
0.031304
30
0.0
11
0.277043
21
0.031304
31
0.0
0
LINE
8
TOP_HID
6
HIDDEN
10
0.277043
20
0.031304
30
0.0
11
0.211826
21
0.031304
31
0.0
0
LINE
8
TOP_HID
6
HIDDEN
10
1.173913
20
0.031304
30
0.0
11
1.281522
21
0.031304
31
0.0
0
LINE
8
TOP_HID
6
HIDDEN
10
1.369503
20
0.031304
30
0.0
11
1.173913
21
0.031304
31
0.0
0
LINE
8
TOP_HID
6
HIDDEN
10
1.190217
20
0.031304
30
0.0
11
1.353209
21
0.031304
31
0.0
0
LINE
8
TOP_HID
6
HIDDEN
10
1.190269
20
0.031304
30
0.0
11
1.190217
21
0.031304
31
0.0
0
LINE
8
TOP_HID
6
HIDDEN
10
0.586957
20
0.031304
30
0.0
11
0.586957
21
0.000000
31
0.0
0
LINE
8
TOP_HID
6
HIDDEN
10
1.281522
20
0.000000
30
0.0
11
1.369565
21
0.000000
31
0.0
0
LINE
8
TOP_HID
6
HIDDEN
10
1.281522
20
0.031304
30
0.0
11
1.369565
21
0.031304
31
0.0
0
LINE
8
TOP_HID
6
HIDDEN
10
1.173913
20
0.000000
30
0.0
11
1.281522
21
0.000000
31
0.0
0
LINE
8
TOP_HID
6
HIDDEN
10
1.369503
20
0.000000
30
0.0
11
1.173913
21
0.000000
31
0.0
0
LINE
8
TOP_HID
6
HIDDEN
10
1.190217
20
0.000000
30
0.0
11
1.353209
21
0.000000
31
0.0
0
LINE
8
TOP_HID
6
HIDDEN
10
1.190269
20
0.000000
30
0.0
11
1.190217
21
0.000000
31
0.0
0
LINE
8
TOP_HID
6
HIDDEN
10
0.085598
20
0.000000
30
0.0
11
0.089092
21
0.000000
31
0.0
0
LINE
8
TOP_HID
6
HIDDEN
10
0.089092
20
0.000000
30
0.0
11
0.092585
21
0.000000
31
0.0
0
LINE
8
TOP_HID
6
HIDDEN
10
0.092585
20
0.000000
30
0.0
11
0.096079
21
0.000000
31
0.0
0
LINE
8
TOP_HID
6
HIDDEN
10
0.096079
20
0.000000
30
0.0
11
0.099573
21
0.000000
31
0.0
0
LINE
8
TOP_HID
6
HIDDEN
10
0.099573
20
0.000000
30
0.0
11
0.103067
21
0.000000
31
0.0
0
LINE
8
TOP_HID
6
HIDDEN
10
0.103067
20
0.000000
30
0.0
11
0.106561
21
0.000000
31
0.0
0
LINE
8
TOP_HID
6
HIDDEN
10
0.106561
20
0.000000
30
0.0
11
0.110054
21
0.000000
31
0.0
0
LINE
8
TOP_HID
6
HIDDEN
10
0.110054
20
0.000000
30
0.0
11
0.113548
21
0.000000
31
0.0
0
LINE
8
TOP_HID
6
HIDDEN
10
0.113548
20
0.000000
30
0.0
11
0.117042
21
0.000000
31
0.0
0
LINE
8
TOP_HID
6
HIDDEN
10
0.117042
20
0.000000
30
0.0
11
0.120536
21
0.000000
31
0.0
0
LINE
8
TOP_HID
6
HIDDEN
10
0.120536
20
0.000000
30
0.0
11
0.124029
21
0.000000
31
0.0
0
LINE
8
TOP_HID
6
HIDDEN
10
0.124029
20
0.000000
30
0.0
11
0.127523
21
0.000000
31
0.0
0
LINE
8
TOP_HID
6
HIDDEN
10
0.127523
20
0.000000
30
0.0
11
0.131017
21
0.000000
31
0.0
0
LINE
8
TOP_HID
6
HIDDEN
10
0.131017
20
0.000000
30
0.0
11
0.134511
21
0.000000
31
0.0
0
LINE
8
TOP_HID
6
HIDDEN
10
0.134511
20
0.000000
30
0.0
11
0.138005
21
0.000000
31
0.0
0
LINE
8
TOP_HID
6
HIDDEN
10
0.138005
20
0.000000
30
0.0
11
0.141498
21
0.000000
31
0.0
0
LINE
8
TOP_HID
6
HIDDEN
10
0.141498
20
0.000000
30
0.0
11
0.144992
21
0.000000
31
0.0
0
LINE
8
TOP_HID
6
HIDDEN
10
0.144992
20
0.000000
30
0.0
11
0.148486
21
0.000000
31
0.0
0
LINE
8
TOP_HID
6
HIDDEN
10
0.148486
20
0.000000
30
0.0
11
0.151980
21
0.000000
31
0.0
0
LINE
8
TOP_HID
6
HIDDEN
10
0.151980
20
0.000000
30
0.0
11
0.155474
21
0.000000
31
0.0
0
LINE
8
TOP_HID
6
HIDDEN
10
0.155474
20
0.000000
30
0.0
11
0.158967
21
0.000000
31
0.0
0
LINE
8
TOP_HID
6
HIDDEN
10
0.158967
20
0.000000
30
0.0
11
0.162461
21
0.000000
31
0.0
0
LINE
8
TOP_HID
6
HIDDEN
10
0.162461
20
0.000000
30
0.0
11
0.165955
21
0.000000
31
0.0
0
LINE
8
TOP_HID
6
HIDDEN
10
0.165955
20
0.000000
30
0.0
11
0.169449
21
0.000000
31
0.0
0
LINE
8
TOP_HID
6
HIDDEN
10
0.169449
20
0.000000
30
0.0
11
0.172943
21
0.000000
31
0.0
0
LINE
8
TOP_HID
6
HIDDEN
10
0.172943
20
0.000000
30
0.0
11
0.176436
21
0.000000
31
0.0
0
LINE
8
TOP_HID
6
HIDDEN
10
0.176436
20
0.000000
30
0.0
11
0.179930
21
0.000000
31
0.0
0
LINE
8
TOP_HID
6
HIDDEN
10
0.179930
20
0.000000
30
0.0
11
0.183424
21
0.000000
31
0.0
0
LINE
8
TOP_HID
6
HIDDEN
10
0.183424
20
0.000000
30
0.0
11
0.186918
21
0.000000
31
0.0
0
LINE
8
TOP_HID
6
HIDDEN
10
0.186918
20
0.000000
30
0.0
11
0.190411
21
0.000000
31
0.0
0
LINE
8
TOP_HID
6
HIDDEN
10
0.190411
20
0.000000
30
0.0
11
0.193905
21
0.000000
31
0.0
0
LINE
8
TOP_HID
6
HIDDEN
10
0.193905
20
0.000000
30
0.0
11
0.190411
21
0.000000
31
0.0
0
LINE
8
TOP_HID
6
HIDDEN
10
0.190411
20
0.000000
30
0.0
11
0.186918
21
0.000000
31
0.0
0
LINE
8
TOP_HID
6
HIDDEN
10
0.186918
20
0.000000
30
0.0
11
0.183424
21
0.000000
31
0.0
0
LINE
8
TOP_HID
6
HIDDEN
10
0.183424
20
0.000000
30
0.0
11
0.179930
21
0.000000
31
0.0
0
LINE
8
TOP_HID
6
HIDDEN
10
0.179930
20
0.000000
30
0.0
11
0.176436
21
0.000000
31
0.0
0
LINE
8
TOP_HID
6
HIDDEN
10
0.176436
20
0.000000
30
0.0
11
0.172943
21
0.000000
31
0.0
0
LINE
8
TOP_HID
6
HIDDEN
10
0.172943
20
0.000000
30
0.0
11
0.169449
21
0.000000
31
0.0
0
LINE
8
TOP_HID
6
HIDDEN
10
0.169449
20
0.000000
30
0.0
11
0.165955
21
0.000000
31
0.0
0
LINE
8
TOP_HID
6
HIDDEN
10
0.165955
20
0.000000
30
0.0
11
0.162461
21
0.000000
31
0.0
0
LINE
8
TOP_HID
6
HIDDEN
10
0.162461
20
0.000000
30
0.0
11
0.158967
21
0.000000
31
0.0
0
LINE
8
TOP_HID
6
HIDDEN
10
0.158967
20
0.000000
30
0.0
11
0.155474
21
0.000000
31
0.0
0
LINE
8
TOP_HID
6
HIDDEN
10
0.155474
20
0.000000
30
0.0
11
0.151980
21
0.000000
31
0.0
0
LINE
8
TOP_HID
6
HIDDEN
10
0.151980
20
0.000000
30
0.0
11
0.148486
21
0.000000
31
0.0
0
LINE
8
TOP_HID
6
HIDDEN
10
0.148486
20
0.000000
30
0.0
11
0.144992
21
0.000000
31
0.0
0
LINE
8
TOP_HID
6
HIDDEN
10
0.144992
20
0.000000
30
0.0
11
0.141498
21
0.000000
31
0.0
0
LINE
8
TOP_HID
6
HIDDEN
10
0.141498
20
0.000000
30
0.0
11
0.138005
21
0.000000
31
0.0
0
LINE
8
TOP_HID
6
HIDDEN
10
0.138005
20
0.000000
30
0.0
11
0.134511
21
0.000000
31
0.0
0
LINE
8
TOP_HID
6
HIDDEN
10
0.134511
20
0.000000
30
0.0
11
0.131017
21
0.000000
31
0.0
0
LINE
8
TOP_HID
6
HIDDEN
10
0.131017
20
0.000000
30
0.0
11
0.127523
21
0.000000
31
0.0
0
LINE
8
TOP_HID
6
HIDDEN
10
0.127523
20
0.000000
30
0.0
11
0.124029
21
0.000000
31
0.0
0
LINE
8
TOP_HID
6
HIDDEN
10
0.124029
20
0.000000
30
0.0
11
0.120536
21
0.000000
31
0.0
0
LINE
8
TOP_HID
6
HIDDEN
10
0.120536
20
0.000000
30
0.0
11
0.117042
21
0.000000
31
0.0
0
LINE
8
TOP_HID
6
HIDDEN
10
0.117042
20
0.000000
30
0.0
11
0.113548
21
0.000000
31
0.0
0
LINE
8
TOP_HID
6
HIDDEN
10
0.113548
20
0.000000
30
0.0
11
0.110054
21
0.000000
31
0.0
0
LINE
8
TOP_HID
6
HIDDEN
10
0.110054
20
0.000000
30
0.0
11
0.106561
21
0.000000
31
0.0
0
LINE
8
TOP_HID
6
HIDDEN
10
0.106561
20
0.000000
30
0.0
11
0.103067
21
0.000000
31
0.0
0
LINE
8
TOP_HID
6
HIDDEN
10
0.103067
20
0.000000
30
0.0
11
0.099573
21
0.000000
31
0.0
0
LINE
8
TOP_HID
6
HIDDEN
10
0.099573
20
0.000000
30
0.0
11
0.096079
21
0.000000
31
0.0
0
LINE
8
TOP_HID
6
HIDDEN
10
0.096079
20
0.000000
30
0.0
11
0.092585
21
0.000000
31
0.0
0
LINE
8
TOP_HID
6
HIDDEN
10
0.092585
20
0.000000
30
0.0
11
0.089092
21
0.000000
31
0.0
0
LINE
8
TOP_HID
6
HIDDEN
10
0.089092
20
0.000000
30
0.0
11
0.085598
21
0.000000
31
0.0
0
LINE
8
TOP_HID
6
HIDDEN
10
0.211826
20
0.000000
30
0.0
11
0.277043
21
0.000000
31
0.0
0
LINE
8
TOP_HID
6
HIDDEN
10
0.277043
20
0.000000
30
0.0
11
0.211826
21
0.000000
31
0.0
0
LINE
8
TOP_HID
6
HIDDEN
10
0.065217
20
0.031304
30
0.0
11
0.130435
21
0.031304
31
0.0
0
LINE
8
TOP_HID
6
HIDDEN
10
0.130435
20
0.031304
30
0.0
11
0.065217
21
0.031304
31
0.0
0
LINE
8
TOP_HID
6
HIDDEN
10
0.211826
20
0.031304
30
0.0
11
0.211826
21
0.000000
31
0.0
0
LINE
8
TOP_HID
6
HIDDEN
10
1.239130
20
0.031304
30
0.0
11
1.304348
21
0.031304
31
0.0
0
LINE
8
TOP_HID
6
HIDDEN
10
1.304348
20
0.031304
30
0.0
11
1.239130
21
0.031304
31
0.0
0
LINE
8
TOP_HID
6
HIDDEN
10
1.239130
20
0.031304
30
0.0
11
1.304348
21
0.031304
31
0.0
0
LINE
8
TOP_HID
6
HIDDEN
10
1.304348
20
0.031304
30
0.0
11
1.239130
21
0.031304
31
0.0
0
LINE
8
TOP_HID
6
HIDDEN
10
1.239130
20
0.000000
30
0.0
11
1.304348
21
0.000000
31
0.0
0
LINE
8
TOP_HID
6
HIDDEN
10
1.304348
20
0.000000
30
0.0
11
1.239130
21
0.000000
31
0.0
0
LINE
8
TOP_HID
6
HIDDEN
10
1.239130
20
0.000000
30
0.0
11
1.304348
21
0.000000
31
0.0
0
LINE
8
TOP_HID
6
HIDDEN
10
1.304348
20
0.000000
30
0.0
11
1.239130
21
0.000000
31
0.0
0
LINE
8
TOP_HID
6
HIDDEN
10
0.065217
20
0.000000
30
0.0
11
0.130435
21
0.000000
31
0.0
0
LINE
8
TOP_HID
6
HIDDEN
10
0.130435
20
0.000000
30
0.0
11
0.065217
21
0.000000
31
0.0
0
LINE
8
TOP_HID
6
HIDDEN
10
0.065217
20
0.031304
30
0.0
11
0.065217
21
0.000000
31
0.0
0
LINE
8
TOP_HID
6
HIDDEN
10
1.239130
20
0.031304
30
0.0
11
1.239130
21
0.000000
31
0.0
0
LINE
8
TOP_HID
6
HIDDEN
10
1.239130
20
0.031304
30
0.0
11
1.239130
21
0.000000
31
0.0
0
LINE
8
TOP_HID
6
HIDDEN
10
1.281522
20
0.031304
30
0.0
11
1.281522
21
0.000000
31
0.0
0
LINE
8
TOP_HID
6
HIDDEN
10
0.652174
20
0.000000
30
0.0
11
0.652174
21
0.031304
31
0.0
0
LINE
8
TOP_HID
6
HIDDEN
10
0.277043
20
0.000000
30
0.0
11
0.277043
21
0.031304
31
0.0
0
LINE
8
TOP_HID
6
HIDDEN
10
0.130435
20
0.000000
30
0.0
11
0.130435
21
0.031304
31
0.0
0
LINE
8
TOP_HID
6
HIDDEN
10
1.304348
20
0.000000
30
0.0
11
1.304348
21
0.031304
31
0.0
0
LINE
8
TOP_HID
6
HIDDEN
10
1.304348
20
0.000000
30
0.0
11
1.304348
21
0.031304
31
0.0
0
ENDSEC
0
EOF
