0
SECTION
2
HEADER
9
$ACADVER
1
AC1009
0
ENDSEC
0
SECTION
2
TABLES
0
TABLE
2
LTYPE
70
3
0
LTYPE
2
CONTINUOUS
70
0
3
Solid line
72
65
73
0
40
0.0
0
LTYPE
2
HIDDEN
70
0
3
__ __ __ __ __
72
65
73
2
40
0.075000
49
0.050025
49
-0.024975
0
LTYPE
2
CENTER
70
0
3
___ _ ___ _ ___
72
65
73
4
40
0.174975
49
0.099975
49
-0.024975
49
0.024975
49
-0.024975
0
ENDTAB
0
TABLE
2
LAYER
70
6
0
LAYER
2
0
70
0
62
7
6
CONTINUOUS
0
LAYER
2
FRONT
70
0
62
7
6
CONTINUOUS
0
LAYER
2
FRONT_HID
70
0
62
7
6
HIDDEN
0
LAYER
2
LEFT
70
0
62
7
6
CONTINUOUS
0
LAYER
2
LEFT_HID
70
0
62
7
6
HIDDEN
0
LAYER
2
TOP
70
0
62
7
6
CONTINUOUS
0
ENDTAB
0
ENDSEC
0
SECTION
2
ENTITIES
0
LINE
8
FRONT
10
1.500000
20
1.799534
30
0.0
11
0.000000
21
1.799534
31
0.0
0
LINE
8
FRONT
10
1.500000
20
1.799534
30
0.0
11
1.500000
21
2.520688
31
0.0
0
LINE
8
FRONT
10
1.500000
20
2.520688
30
0.0
11
0.000000
21
2.520688
31
0.0
0
LINE
8
FRONT
10
0.000000
20
2.520688
30
0.0
11
0.000000
21
1.799534
31
0.0
0
LINE
8
FRONT_HID
6
HIDDEN
10
1.316827
20
1.799534
30
0.0
11
0.183173
21
1.799534
31
0.0
0
LINE
8
FRONT_HID
6
HIDDEN
10
0.183173
20
1.799534
30
0.0
11
1.316827
21
1.799534
31
0.0
0
LINE
8
FRONT_HID
6
HIDDEN
10
1.316827
20
1.799534
30
0.0
11
1.316827
21
2.520688
31
0.0
0
LINE
8
FRONT_HID
6
HIDDEN
10
1.316827
20
2.520688
30
0.0
11
0.183173
21
2.520688
31
0.0
0
LINE
8
FRONT_HID
6
HIDDEN
10
0.183173
20
2.520688
30
0.0
11
1.316827
21
2.520688
31
0.0
0
LINE
8
FRONT_HID
6
HIDDEN
10
0.183173
20
2.520688
30
0.0
11
0.183173
21
1.799534
31
0.0
0
LINE
8
LEFT
10
1.800000
20
1.799534
30
0.0
11
3.300000
21
1.799534
31
0.0
0
LINE
8
LEFT
10
1.800000
20
2.520688
30
0.0
11
3.300000
21
2.520688
31
0.0
0
LINE
8
LEFT
10
1.800000
20
2.520688
30
0.0
11
1.800000
21
1.799534
31
0.0
0
LINE
8
LEFT
10
3.300000
20
2.520688
30
0.0
11
3.300000
21
1.799534
31
0.0
0
LINE
8
LEFT_HID
6
HIDDEN
10
2.550000
20
1.799534
30
0.0
11
1.800000
21
1.799534
31
0.0
0
LINE
8
LEFT_HID
6
HIDDEN
10
3.300000
20
1.799534
30
0.0
11
2.550000
21
1.799534
31
0.0
0
LINE
8
LEFT_HID
6
HIDDEN
10
2.550000
20
2.520688
30
0.0
11
1.800000
21
2.520688
31
0.0
0
LINE
8
LEFT_HID
6
HIDDEN
10
3.300000
20
2.520688
30
0.0
11
2.550000
21
2.520688
31
0.0
0
LINE
8
LEFT_HID
6
HIDDEN
10
2.550000
20
1.799534
30
0.0
11
1.983173
21
1.799534
31
0.0
0
LINE
8
LEFT_HID
6
HIDDEN
10
1.983173
20
1.799534
30
0.0
11
3.116827
21
1.799534
31
0.0
0
LINE
8
LEFT_HID
6
HIDDEN
10
3.116827
20
1.799534
30
0.0
11
2.550000
21
1.799534
31
0.0
0
LINE
8
LEFT_HID
6
HIDDEN
10
2.550000
20
2.520688
30
0.0
11
1.983173
21
2.520688
31
0.0
0
LINE
8
LEFT_HID
6
HIDDEN
10
1.983173
20
2.520688
30
0.0
11
3.116827
21
2.520688
31
0.0
0
LINE
8
LEFT_HID
6
HIDDEN
10
3.116827
20
2.520688
30
0.0
11
2.550000
21
2.520688
31
0.0
0
LINE
8
LEFT_HID
6
HIDDEN
10
1.983173
20
2.520688
30
0.0
11
1.983173
21
1.799534
31
0.0
0
LINE
8
LEFT_HID
6
HIDDEN
10
3.116827
20
2.520688
30
0.0
11
3.116827
21
1.799534
31
0.0
0
LINE
8
TOP
10
1.499068
20
0.749767
30
0.0
11
1.495341
21
0.824443
31
0.0
0
LINE
8
TOP
10
1.495341
20
0.824443
30
0.0
11
1.484197
21
0.898376
31
0.0
0
LINE
8
TOP
10
1.484197
20
0.898376
30
0.0
11
1.465747
21
0.970833
31
0.0
0
LINE
8
TOP
10
1.465747
20
0.970833
30
0.0
11
1.440175
21
1.041093
31
0.0
0
LINE
8
TOP
10
1.440175
20
1.041093
30
0.0
11
1.407734
21
1.108457
31
0.0
0
LINE
8
TOP
10
1.407734
20
1.108457
30
0.0
11
1.368747
21
1.172257
31
0.0
0
LINE
8
TOP
10
1.368747
20
1.172257
30
0.0
11
1.323601
21
1.231858
31
0.0
0
LINE
8
TOP
10
1.323601
20
1.231858
30
0.0
11
1.272745
21
1.286667
31
0.0
0
LINE
8
TOP
10
1.272745
20
1.286667
30
0.0
11
1.216685
21
1.336140
31
0.0
0
LINE
8
TOP
10
1.216685
20
1.336140
30
0.0
11
1.155977
21
1.379786
31
0.0
0
LINE
8
TOP
10
1.155977
20
1.379786
30
0.0
11
1.091226
21
1.417171
31
0.0
0
LINE
8
TOP
10
1.091226
20
1.417171
30
0.0
11
1.023073
21
1.447922
31
0.0
0
LINE
8
TOP
10
1.023073
20
1.447922
30
0.0
11
0.952198
21
1.471735
31
0.0
0
LINE
8
TOP
10
0.952198
20
1.471735
30
0.0
11
0.879304
21
1.488373
31
0.0
0
LINE
8
TOP
10
0.879304
20
1.488373
30
0.0
11
0.805115
21
1.497670
31
0.0
0
LINE
8
TOP
10
0.805115
20
1.497670
30
0.0
11
0.730370
21
1.499534
31
0.0
0
LINE
8
TOP
10
0.730370
20
1.499534
30
0.0
11
0.655810
21
1.493946
31
0.0
0
LINE
8
TOP
10
0.655810
20
1.493946
30
0.0
11
0.582177
21
1.480963
31
0.0
0
LINE
8
TOP
10
0.582177
20
1.480963
30
0.0
11
0.510203
21
1.460712
31
0.0
0
LINE
8
TOP
10
0.510203
20
1.460712
30
0.0
11
0.440602
21
1.433396
31
0.0
0
LINE
8
TOP
10
0.440602
20
1.433396
30
0.0
11
0.374068
21
1.399286
31
0.0
0
LINE
8
TOP
10
0.374068
20
1.399286
30
0.0
11
0.311260
21
1.358720
31
0.0
0
LINE
8
TOP
10
0.311260
20
1.358720
30
0.0
11
0.252803
21
1.312103
31
0.0
0
LINE
8
TOP
10
0.252803
20
1.312103
30
0.0
11
0.199279
21
1.259896
31
0.0
0
LINE
8
TOP
10
0.199279
20
1.259896
30
0.0
11
0.151218
21
1.202620
31
0.0
0
LINE
8
TOP
10
0.151218
20
1.202620
30
0.0
11
0.109100
21
1.140843
31
0.0
0
LINE
8
TOP
10
0.109100
20
1.140843
30
0.0
11
0.073341
21
1.075180
31
0.0
0
LINE
8
TOP
10
0.073341
20
1.075180
30
0.0
11
0.044298
21
1.006282
31
0.0
0
LINE
8
TOP
10
0.044298
20
1.006282
30
0.0
11
0.022260
21
0.934835
31
0.0
0
LINE
8
TOP
10
0.022260
20
0.934835
30
0.0
11
0.007445
21
0.861549
31
0.0
0
LINE
8
TOP
10
0.007445
20
0.861549
30
0.0
11
0.000000
21
0.787151
31
0.0
0
LINE
8
TOP
10
0.000000
20
0.787151
30
0.0
11
0.000000
21
0.712382
31
0.0
0
LINE
8
TOP
10
0.000000
20
0.712382
30
0.0
11
0.007445
21
0.637985
31
0.0
0
LINE
8
TOP
10
0.007445
20
0.637985
30
0.0
11
0.022260
21
0.564699
31
0.0
0
LINE
8
TOP
10
0.022260
20
0.564699
30
0.0
11
0.044298
21
0.493252
31
0.0
0
LINE
8
TOP
10
0.044298
20
0.493252
30
0.0
11
0.073341
21
0.424354
31
0.0
0
LINE
8
TOP
10
0.073341
20
0.424354
30
0.0
11
0.109100
21
0.358690
31
0.0
0
LINE
8
TOP
10
0.109100
20
0.358690
30
0.0
11
0.151218
21
0.296914
31
0.0
0
LINE
8
TOP
10
0.151218
20
0.296914
30
0.0
11
0.199279
21
0.239637
31
0.0
0
LINE
8
TOP
10
0.199279
20
0.239637
30
0.0
11
0.252803
21
0.187431
31
0.0
0
LINE
8
TOP
10
0.252803
20
0.187431
30
0.0
11
0.311260
21
0.140813
31
0.0
0
LINE
8
TOP
10
0.311260
20
0.140813
30
0.0
11
0.374068
21
0.100248
31
0.0
0
LINE
8
TOP
10
0.374068
20
0.100248
30
0.0
11
0.440602
21
0.066137
31
0.0
0
LINE
8
TOP
10
0.440602
20
0.066137
30
0.0
11
0.510203
21
0.038821
31
0.0
0
LINE
8
TOP
10
0.510203
20
0.038821
30
0.0
11
0.582177
21
0.018571
31
0.0
0
LINE
8
TOP
10
0.582177
20
0.018571
30
0.0
11
0.655810
21
0.005587
31
0.0
0
LINE
8
TOP
10
0.655810
20
0.005587
30
0.0
11
0.730370
21
0.000000
31
0.0
0
LINE
8
TOP
10
0.730370
20
0.000000
30
0.0
11
0.805115
21
0.001864
31
0.0
0
LINE
8
TOP
10
0.805115
20
0.001864
30
0.0
11
0.879304
21
0.011161
31
0.0
0
LINE
8
TOP
10
0.879304
20
0.011161
30
0.0
11
0.952198
21
0.027799
31
0.0
0
LINE
8
TOP
10
0.952198
20
0.027799
30
0.0
11
1.023073
21
0.051612
31
0.0
0
LINE
8
TOP
10
1.023073
20
0.051612
30
0.0
11
1.091226
21
0.082363
31
0.0
0
LINE
8
TOP
10
1.091226
20
0.082363
30
0.0
11
1.155977
21
0.119747
31
0.0
0
LINE
8
TOP
10
1.155977
20
0.119747
30
0.0
11
1.216685
21
0.163393
31
0.0
0
LINE
8
TOP
10
1.216685
20
0.163393
30
0.0
11
1.272745
21
0.212867
31
0.0
0
LINE
8
TOP
10
1.272745
20
0.212867
30
0.0
11
1.323601
21
0.267676
31
0.0
0
LINE
8
TOP
10
1.323601
20
0.267676
30
0.0
11
1.368747
21
0.327277
31
0.0
0
LINE
8
TOP
10
1.368747
20
0.327277
30
0.0
11
1.407734
21
0.391076
31
0.0
0
LINE
8
TOP
10
1.407734
20
0.391076
30
0.0
11
1.440175
21
0.458441
31
0.0
0
LINE
8
TOP
10
1.440175
20
0.458441
30
0.0
11
1.465747
21
0.528701
31
0.0
0
LINE
8
TOP
10
1.465747
20
0.528701
30
0.0
11
1.484197
21
0.601157
31
0.0
0
LINE
8
TOP
10
1.484197
20
0.601157
30
0.0
11
1.495341
21
0.675091
31
0.0
0
LINE
8
TOP
10
1.495341
20
0.675091
30
0.0
11
1.499068
21
0.749767
31
0.0
0
LINE
8
TOP
10
1.315895
20
0.749767
30
0.0
11
1.313078
21
0.806205
31
0.0
0
LINE
8
TOP
10
1.313078
20
0.806205
30
0.0
11
1.304656
21
0.862081
31
0.0
0
LINE
8
TOP
10
1.304656
20
0.862081
30
0.0
11
1.290712
21
0.916842
31
0.0
0
LINE
8
TOP
10
1.290712
20
0.916842
30
0.0
11
1.271385
21
0.969942
31
0.0
0
LINE
8
TOP
10
1.271385
20
0.969942
30
0.0
11
1.246867
21
1.020854
31
0.0
0
LINE
8
TOP
10
1.246867
20
1.020854
30
0.0
11
1.217402
21
1.069072
31
0.0
0
LINE
8
TOP
10
1.217402
20
1.069072
30
0.0
11
1.183282
21
1.114116
31
0.0
0
LINE
8
TOP
10
1.183282
20
1.114116
30
0.0
11
1.144847
21
1.155539
31
0.0
0
LINE
8
TOP
10
1.144847
20
1.155539
30
0.0
11
1.102478
21
1.192930
31
0.0
0
LINE
8
TOP
10
1.102478
20
1.192930
30
0.0
11
1.056598
21
1.225916
31
0.0
0
LINE
8
TOP
10
1.056598
20
1.225916
30
0.0
11
1.007660
21
1.254170
31
0.0
0
LINE
8
TOP
10
1.007660
20
1.254170
30
0.0
11
0.956153
21
1.277411
31
0.0
0
LINE
8
TOP
10
0.956153
20
1.277411
30
0.0
11
0.902587
21
1.295408
31
0.0
0
LINE
8
TOP
10
0.902587
20
1.295408
30
0.0
11
0.847496
21
1.307982
31
0.0
0
LINE
8
TOP
10
0.847496
20
1.307982
30
0.0
11
0.791427
21
1.315009
31
0.0
0
LINE
8
TOP
10
0.791427
20
1.315009
30
0.0
11
0.734936
21
1.316418
31
0.0
0
LINE
8
TOP
10
0.734936
20
1.316418
30
0.0
11
0.678586
21
1.312195
31
0.0
0
LINE
8
TOP
10
0.678586
20
1.312195
30
0.0
11
0.622937
21
1.302382
31
0.0
0
LINE
8
TOP
10
0.622937
20
1.302382
30
0.0
11
0.568541
21
1.287078
31
0.0
0
LINE
8
TOP
10
0.568541
20
1.287078
30
0.0
11
0.515939
21
1.266433
31
0.0
0
LINE
8
TOP
10
0.515939
20
1.266433
30
0.0
11
0.465654
21
1.240653
31
0.0
0
LINE
8
TOP
10
0.465654
20
1.240653
30
0.0
11
0.418186
21
1.209995
31
0.0
0
LINE
8
TOP
10
0.418186
20
1.209995
30
0.0
11
0.374006
21
1.174763
31
0.0
0
LINE
8
TOP
10
0.374006
20
1.174763
30
0.0
11
0.333554
21
1.135307
31
0.0
0
LINE
8
TOP
10
0.333554
20
1.135307
30
0.0
11
0.297232
21
1.092019
31
0.0
0
LINE
8
TOP
10
0.297232
20
1.092019
30
0.0
11
0.265399
21
1.045330
31
0.0
0
LINE
8
TOP
10
0.265399
20
1.045330
30
0.0
11
0.238374
21
0.995704
31
0.0
0
LINE
8
TOP
10
0.238374
20
0.995704
30
0.0
11
0.216425
21
0.943633
31
0.0
0
LINE
8
TOP
10
0.216425
20
0.943633
30
0.0
11
0.199769
21
0.889636
31
0.0
0
LINE
8
TOP
10
0.199769
20
0.889636
30
0.0
11
0.188572
21
0.834248
31
0.0
0
LINE
8
TOP
10
0.188572
20
0.834248
30
0.0
11
0.182945
21
0.778021
31
0.0
0
LINE
8
TOP
10
0.182945
20
0.778021
30
0.0
11
0.182945
21
0.721513
31
0.0
0
LINE
8
TOP
10
0.182945
20
0.721513
30
0.0
11
0.188572
21
0.665286
31
0.0
0
LINE
8
TOP
10
0.188572
20
0.665286
30
0.0
11
0.199769
21
0.609898
31
0.0
0
LINE
8
TOP
10
0.199769
20
0.609898
30
0.0
11
0.216425
21
0.555901
31
0.0
0
LINE
8
TOP
10
0.216425
20
0.555901
30
0.0
11
0.238374
21
0.503830
31
0.0
0
LINE
8
TOP
10
0.238374
20
0.503830
30
0.0
11
0.265399
21
0.454203
31
0.0
0
LINE
8
TOP
10
0.265399
20
0.454203
30
0.0
11
0.297232
21
0.407514
31
0.0
0
LINE
8
TOP
10
0.297232
20
0.407514
30
0.0
11
0.333554
21
0.364227
31
0.0
0
LINE
8
TOP
10
0.333554
20
0.364227
30
0.0
11
0.374006
21
0.324771
31
0.0
0
LINE
8
TOP
10
0.374006
20
0.324771
30
0.0
11
0.418186
21
0.289539
31
0.0
0
LINE
8
TOP
10
0.418186
20
0.289539
30
0.0
11
0.465654
21
0.258880
31
0.0
0
LINE
8
TOP
10
0.465654
20
0.258880
30
0.0
11
0.515939
21
0.233101
31
0.0
0
LINE
8
TOP
10
0.515939
20
0.233101
30
0.0
11
0.568541
21
0.212456
31
0.0
0
LINE
8
TOP
10
0.568541
20
0.212456
30
0.0
11
0.622937
21
0.197151
31
0.0
0
LINE
8
TOP
10
0.622937
20
0.197151
30
0.0
11
0.678586
21
0.187339
31
0.0
0
LINE
8
TOP
10
0.678586
20
0.187339
30
0.0
11
0.734936
21
0.183116
31
0.0
0
LINE
8
TOP
10
0.734936
20
0.183116
30
0.0
11
0.791427
21
0.184525
31
0.0
0
LINE
8
TOP
10
0.791427
20
0.184525
30
0.0
11
0.847496
21
0.191551
31
0.0
0
LINE
8
TOP
10
0.847496
20
0.191551
30
0.0
11
0.902587
21
0.204126
31
0.0
0
LINE
8
TOP
10
0.902587
20
0.204126
30
0.0
11
0.956153
21
0.222123
31
0.0
0
LINE
8
TOP
10
0.956153
20
0.222123
30
0.0
11
1.007660
21
0.245364
31
0.0
0
LINE
8
TOP
10
1.007660
20
0.245364
30
0.0
11
1.056598
21
0.273618
31
0.0
0
LINE
8
TOP
10
1.056598
20
0.273618
30
0.0
11
1.102478
21
0.306604
31
0.0
0
LINE
8
TOP
10
1.102478
20
0.306604
30
0.0
11
1.144847
21
0.343994
31
0.0
0
LINE
8
TOP
10
1.144847
20
0.343994
30
0.0
11
1.183282
21
0.385418
31
0.0
0
LINE
8
TOP
10
1.183282
20
0.385418
30
0.0
11
1.217402
21
0.430462
31
0.0
0
LINE
8
TOP
10
1.217402
20
0.430462
30
0.0
11
1.246867
21
0.478680
31
0.0
0
LINE
8
TOP
10
1.246867
20
0.478680
30
0.0
11
1.271385
21
0.529592
31
0.0
0
LINE
8
TOP
10
1.271385
20
0.529592
30
0.0
11
1.290712
21
0.582692
31
0.0
0
LINE
8
TOP
10
1.290712
20
0.582692
30
0.0
11
1.304656
21
0.637452
31
0.0
0
LINE
8
TOP
10
1.304656
20
0.637452
30
0.0
11
1.313078
21
0.693329
31
0.0
0
LINE
8
TOP
10
1.313078
20
0.693329
30
0.0
11
1.315895
21
0.749767
31
0.0
0
ENDSEC
0
EOF
