0
SECTION
2
HEADER
9
$ACADVER
1
AC1009
0
ENDSEC
0
SECTION
2
TABLES
0
TABLE
2
LTYPE
70
3
0
LTYPE
2
CONTINUOUS
70
0
3
Solid line
72
65
73
0
40
0.0
0
LTYPE
2
HIDDEN
70
0
3
__ __ __ __ __
72
65
73
2
40
0.073852
49
0.049259
49
-0.024593
0
LTYPE
2
CENTER
70
0
3
___ _ ___ _ ___
72
65
73
4
40
0.172296
49
0.098444
49
-0.024593
49
0.024593
49
-0.024593
0
ENDTAB
0
TABLE
2
LAYER
70
6
0
LAYER
2
0
70
0
62
7
6
CONTINUOUS
0
LAYER
2
FRONT
70
0
62
7
6
CONTINUOUS
0
LAYER
2
FRONT_HID
70
0
62
7
6
HIDDEN
0
LAYER
2
LEFT
70
0
62
7
6
CONTINUOUS
0
LAYER
2
LEFT_HID
70
0
62
7
6
HIDDEN
0
LAYER
2
TOP
70
0
62
7
6
CONTINUOUS
0
ENDTAB
0
ENDSEC
0
SECTION
2
ENTITIES
0
LINE
8
FRONT
10
1.477034
20
1.033924
30
0.0
11
1.477034
21
1.039754
31
0.0
0
LINE
8
FRONT
10
1.477034
20
1.033924
30
0.0
11
1.477034
21
1.039754
31
0.0
0
LINE
8
FRONT
10
1.477034
20
1.033924
30
0.0
11
1.469035
21
1.033924
31
0.0
0
LINE
8
FRONT
10
1.477034
20
1.039754
30
0.0
11
1.469035
21
1.039754
31
0.0
0
LINE
8
FRONT
10
1.469035
20
1.039754
30
0.0
11
1.369150
21
1.039754
31
0.0
0
LINE
8
FRONT
10
1.469035
20
1.033924
30
0.0
11
1.369150
21
1.033924
31
0.0
0
LINE
8
FRONT
10
1.369150
20
1.033924
30
0.0
11
1.325563
21
1.033924
31
0.0
0
LINE
8
FRONT
10
1.369150
20
1.039754
30
0.0
11
1.325563
21
1.039754
31
0.0
0
LINE
8
FRONT
10
1.325563
20
1.039754
30
0.0
11
0.048587
21
1.039754
31
0.0
0
LINE
8
FRONT
10
1.325563
20
1.033924
30
0.0
11
0.048587
21
1.033924
31
0.0
0
LINE
8
FRONT
10
0.048587
20
1.033924
30
0.0
11
0.000000
21
1.033924
31
0.0
0
LINE
8
FRONT
10
0.000000
20
1.033924
30
0.0
11
0.000000
21
1.039754
31
0.0
0
LINE
8
FRONT
10
0.048587
20
1.039754
30
0.0
11
0.000000
21
1.039754
31
0.0
0
LINE
8
FRONT
10
1.469035
20
1.033924
30
0.0
11
1.469035
21
1.039754
31
0.0
0
LINE
8
FRONT
10
1.369150
20
1.033924
30
0.0
11
1.369150
21
1.039754
31
0.0
0
LINE
8
FRONT
10
1.325563
20
1.033924
30
0.0
11
1.325563
21
1.039754
31
0.0
0
LINE
8
FRONT
10
0.048587
20
1.033924
30
0.0
11
0.048587
21
1.039754
31
0.0
0
LINE
8
FRONT_HID
6
HIDDEN
10
1.373201
20
1.033924
30
0.0
11
1.314800
21
1.033924
31
0.0
0
LINE
8
FRONT_HID
6
HIDDEN
10
1.314800
20
1.033924
30
0.0
11
1.373201
21
1.033924
31
0.0
0
LINE
8
FRONT_HID
6
HIDDEN
10
1.373201
20
1.033924
30
0.0
11
1.373201
21
1.039754
31
0.0
0
LINE
8
FRONT_HID
6
HIDDEN
10
1.373201
20
1.039754
30
0.0
11
1.314800
21
1.039754
31
0.0
0
LINE
8
FRONT_HID
6
HIDDEN
10
1.314800
20
1.039754
30
0.0
11
1.373201
21
1.039754
31
0.0
0
LINE
8
FRONT_HID
6
HIDDEN
10
1.373201
20
1.033924
30
0.0
11
1.314800
21
1.033924
31
0.0
0
LINE
8
FRONT_HID
6
HIDDEN
10
1.314800
20
1.033924
30
0.0
11
1.373201
21
1.033924
31
0.0
0
LINE
8
FRONT_HID
6
HIDDEN
10
1.373201
20
1.033924
30
0.0
11
1.373201
21
1.039754
31
0.0
0
LINE
8
FRONT_HID
6
HIDDEN
10
1.373201
20
1.039754
30
0.0
11
1.314800
21
1.039754
31
0.0
0
LINE
8
FRONT_HID
6
HIDDEN
10
1.314800
20
1.039754
30
0.0
11
1.373201
21
1.039754
31
0.0
0
LINE
8
FRONT_HID
6
HIDDEN
10
1.422529
20
1.033924
30
0.0
11
1.364128
21
1.033924
31
0.0
0
LINE
8
FRONT_HID
6
HIDDEN
10
1.364128
20
1.033924
30
0.0
11
1.422529
21
1.033924
31
0.0
0
LINE
8
FRONT_HID
6
HIDDEN
10
1.422529
20
1.033924
30
0.0
11
1.422529
21
1.039754
31
0.0
0
LINE
8
FRONT_HID
6
HIDDEN
10
1.422529
20
1.039754
30
0.0
11
1.364128
21
1.039754
31
0.0
0
LINE
8
FRONT_HID
6
HIDDEN
10
1.364128
20
1.039754
30
0.0
11
1.422529
21
1.039754
31
0.0
0
LINE
8
FRONT_HID
6
HIDDEN
10
1.314800
20
1.039754
30
0.0
11
1.314800
21
1.033924
31
0.0
0
LINE
8
FRONT_HID
6
HIDDEN
10
1.314800
20
1.039754
30
0.0
11
1.314800
21
1.033924
31
0.0
0
LINE
8
FRONT_HID
6
HIDDEN
10
1.364128
20
1.039754
30
0.0
11
1.364128
21
1.033924
31
0.0
0
LINE
8
LEFT
10
2.462371
20
1.033924
30
0.0
11
2.510958
21
1.033924
31
0.0
0
LINE
8
LEFT
10
2.510958
20
1.033924
30
0.0
11
2.510958
21
1.039754
31
0.0
0
LINE
8
LEFT
10
2.462371
20
1.039754
30
0.0
11
2.510958
21
1.039754
31
0.0
0
LINE
8
LEFT
10
1.772441
20
1.033924
30
0.0
11
1.772441
21
1.039754
31
0.0
0
LINE
8
LEFT
10
1.772441
20
1.033924
30
0.0
11
1.821027
21
1.033924
31
0.0
0
LINE
8
LEFT
10
1.772441
20
1.039754
30
0.0
11
1.821027
21
1.039754
31
0.0
0
LINE
8
LEFT
10
1.821027
20
1.039754
30
0.0
11
2.141699
21
1.039754
31
0.0
0
LINE
8
LEFT
10
1.821027
20
1.033924
30
0.0
11
2.141699
21
1.033924
31
0.0
0
LINE
8
LEFT
10
2.141699
20
1.039754
30
0.0
11
2.462371
21
1.039754
31
0.0
0
LINE
8
LEFT
10
2.141699
20
1.033924
30
0.0
11
2.462371
21
1.033924
31
0.0
0
LINE
8
LEFT
10
2.462371
20
1.033924
30
0.0
11
2.462371
21
1.039754
31
0.0
0
LINE
8
LEFT
10
1.821027
20
1.033924
30
0.0
11
1.821027
21
1.039754
31
0.0
0
LINE
8
LEFT_HID
6
HIDDEN
10
2.510958
20
1.033924
30
0.0
11
2.483838
21
1.033924
31
0.0
0
LINE
8
LEFT_HID
6
HIDDEN
10
2.510958
20
1.039754
30
0.0
11
2.483838
21
1.039754
31
0.0
0
LINE
8
LEFT_HID
6
HIDDEN
10
2.483838
20
1.039754
30
0.0
11
2.281027
21
1.039754
31
0.0
0
LINE
8
LEFT_HID
6
HIDDEN
10
2.483838
20
1.033924
30
0.0
11
2.281027
21
1.033924
31
0.0
0
LINE
8
LEFT_HID
6
HIDDEN
10
2.281027
20
1.033924
30
0.0
11
2.246680
21
1.033924
31
0.0
0
LINE
8
LEFT_HID
6
HIDDEN
10
2.281027
20
1.039754
30
0.0
11
2.246680
21
1.039754
31
0.0
0
LINE
8
LEFT_HID
6
HIDDEN
10
2.246680
20
1.039754
30
0.0
11
2.141699
21
1.039754
31
0.0
0
LINE
8
LEFT_HID
6
HIDDEN
10
2.246680
20
1.033924
30
0.0
11
2.141699
21
1.033924
31
0.0
0
LINE
8
LEFT_HID
6
HIDDEN
10
2.141699
20
1.039754
30
0.0
11
2.036718
21
1.039754
31
0.0
0
LINE
8
LEFT_HID
6
HIDDEN
10
2.141699
20
1.033924
30
0.0
11
2.036718
21
1.033924
31
0.0
0
LINE
8
LEFT_HID
6
HIDDEN
10
2.036718
20
1.033924
30
0.0
11
2.002371
21
1.033924
31
0.0
0
LINE
8
LEFT_HID
6
HIDDEN
10
2.036718
20
1.039754
30
0.0
11
2.002371
21
1.039754
31
0.0
0
LINE
8
LEFT_HID
6
HIDDEN
10
2.002371
20
1.039754
30
0.0
11
1.799560
21
1.039754
31
0.0
0
LINE
8
LEFT_HID
6
HIDDEN
10
2.002371
20
1.033924
30
0.0
11
1.799560
21
1.033924
31
0.0
0
LINE
8
LEFT_HID
6
HIDDEN
10
1.799560
20
1.033924
30
0.0
11
1.772441
21
1.033924
31
0.0
0
LINE
8
LEFT_HID
6
HIDDEN
10
1.799560
20
1.039754
30
0.0
11
1.772441
21
1.039754
31
0.0
0
LINE
8
LEFT_HID
6
HIDDEN
10
2.345449
20
1.033924
30
0.0
11
2.316249
21
1.033924
31
0.0
0
LINE
8
LEFT_HID
6
HIDDEN
10
2.316249
20
1.033924
30
0.0
11
2.374650
21
1.033924
31
0.0
0
LINE
8
LEFT_HID
6
HIDDEN
10
2.374650
20
1.033924
30
0.0
11
2.345449
21
1.033924
31
0.0
0
LINE
8
LEFT_HID
6
HIDDEN
10
2.345449
20
1.039754
30
0.0
11
2.316249
21
1.039754
31
0.0
0
LINE
8
LEFT_HID
6
HIDDEN
10
2.316249
20
1.039754
30
0.0
11
2.374650
21
1.039754
31
0.0
0
LINE
8
LEFT_HID
6
HIDDEN
10
2.374650
20
1.039754
30
0.0
11
2.345449
21
1.039754
31
0.0
0
LINE
8
LEFT_HID
6
HIDDEN
10
1.937949
20
1.033924
30
0.0
11
1.908748
21
1.033924
31
0.0
0
LINE
8
LEFT_HID
6
HIDDEN
10
1.908748
20
1.033924
30
0.0
11
1.967149
21
1.033924
31
0.0
0
LINE
8
LEFT_HID
6
HIDDEN
10
1.967149
20
1.033924
30
0.0
11
1.937949
21
1.033924
31
0.0
0
LINE
8
LEFT_HID
6
HIDDEN
10
1.937949
20
1.039754
30
0.0
11
1.908748
21
1.039754
31
0.0
0
LINE
8
LEFT_HID
6
HIDDEN
10
1.908748
20
1.039754
30
0.0
11
1.967149
21
1.039754
31
0.0
0
LINE
8
LEFT_HID
6
HIDDEN
10
1.967149
20
1.039754
30
0.0
11
1.937949
21
1.039754
31
0.0
0
LINE
8
LEFT_HID
6
HIDDEN
10
2.141699
20
1.033924
30
0.0
11
2.112498
21
1.033924
31
0.0
0
LINE
8
LEFT_HID
6
HIDDEN
10
2.112498
20
1.033924
30
0.0
11
2.170900
21
1.033924
31
0.0
0
LINE
8
LEFT_HID
6
HIDDEN
10
2.170900
20
1.033924
30
0.0
11
2.141699
21
1.033924
31
0.0
0
LINE
8
LEFT_HID
6
HIDDEN
10
2.141699
20
1.039754
30
0.0
11
2.112498
21
1.039754
31
0.0
0
LINE
8
LEFT_HID
6
HIDDEN
10
2.112498
20
1.039754
30
0.0
11
2.170900
21
1.039754
31
0.0
0
LINE
8
LEFT_HID
6
HIDDEN
10
2.170900
20
1.039754
30
0.0
11
2.141699
21
1.039754
31
0.0
0
LINE
8
LEFT_HID
6
HIDDEN
10
2.483838
20
1.033924
30
0.0
11
2.483838
21
1.039754
31
0.0
0
LINE
8
LEFT_HID
6
HIDDEN
10
2.281027
20
1.033924
30
0.0
11
2.281027
21
1.039754
31
0.0
0
LINE
8
LEFT_HID
6
HIDDEN
10
2.246680
20
1.033924
30
0.0
11
2.246680
21
1.039754
31
0.0
0
LINE
8
LEFT_HID
6
HIDDEN
10
2.036718
20
1.033924
30
0.0
11
2.036718
21
1.039754
31
0.0
0
LINE
8
LEFT_HID
6
HIDDEN
10
2.002371
20
1.033924
30
0.0
11
2.002371
21
1.039754
31
0.0
0
LINE
8
LEFT_HID
6
HIDDEN
10
1.799560
20
1.033924
30
0.0
11
1.799560
21
1.039754
31
0.0
0
LINE
8
LEFT_HID
6
HIDDEN
10
2.316249
20
1.039754
30
0.0
11
2.316249
21
1.033924
31
0.0
0
LINE
8
LEFT_HID
6
HIDDEN
10
2.374650
20
1.039754
30
0.0
11
2.374650
21
1.033924
31
0.0
0
LINE
8
LEFT_HID
6
HIDDEN
10
1.908748
20
1.039754
30
0.0
11
1.908748
21
1.033924
31
0.0
0
LINE
8
LEFT_HID
6
HIDDEN
10
1.967149
20
1.039754
30
0.0
11
1.967149
21
1.033924
31
0.0
0
LINE
8
LEFT_HID
6
HIDDEN
10
2.112498
20
1.039754
30
0.0
11
2.112498
21
1.033924
31
0.0
0
LINE
8
LEFT_HID
6
HIDDEN
10
2.170900
20
1.039754
30
0.0
11
2.170900
21
1.033924
31
0.0
0
LINE
8
TOP
10
0.000000
20
0.048587
30
0.0
11
0.000015
21
0.047375
31
0.0
0
LINE
8
TOP
10
0.000015
20
0.047375
30
0.0
11
0.000060
21
0.046165
31
0.0
0
LINE
8
TOP
10
0.000060
20
0.046165
30
0.0
11
0.000136
21
0.044956
31
0.0
0
LINE
8
TOP
10
0.000136
20
0.044956
30
0.0
11
0.000241
21
0.043749
31
0.0
0
LINE
8
TOP
10
0.000241
20
0.043749
30
0.0
11
0.000377
21
0.042545
31
0.0
0
LINE
8
TOP
10
0.000377
20
0.042545
30
0.0
11
0.000543
21
0.041345
31
0.0
0
LINE
8
TOP
10
0.000543
20
0.041345
30
0.0
11
0.000738
21
0.040150
31
0.0
0
LINE
8
TOP
10
0.000738
20
0.040150
30
0.0
11
0.000963
21
0.038959
31
0.0
0
LINE
8
TOP
10
0.000963
20
0.038959
30
0.0
11
0.001218
21
0.037775
31
0.0
0
LINE
8
TOP
10
0.001218
20
0.037775
30
0.0
11
0.001502
21
0.036598
31
0.0
0
LINE
8
TOP
10
0.001502
20
0.036598
30
0.0
11
0.001816
21
0.035427
31
0.0
0
LINE
8
TOP
10
0.001816
20
0.035427
30
0.0
11
0.002159
21
0.034265
31
0.0
0
LINE
8
TOP
10
0.002159
20
0.034265
30
0.0
11
0.002530
21
0.033112
31
0.0
0
LINE
8
TOP
10
0.002530
20
0.033112
30
0.0
11
0.002930
21
0.031969
31
0.0
0
LINE
8
TOP
10
0.002930
20
0.031969
30
0.0
11
0.003359
21
0.030836
31
0.0
0
LINE
8
TOP
10
0.003359
20
0.030836
30
0.0
11
0.003815
21
0.029714
31
0.0
0
LINE
8
TOP
10
0.003815
20
0.029714
30
0.0
11
0.004300
21
0.028604
31
0.0
0
LINE
8
TOP
10
0.004300
20
0.028604
30
0.0
11
0.004812
21
0.027506
31
0.0
0
LINE
8
TOP
10
0.004812
20
0.027506
30
0.0
11
0.005351
21
0.026421
31
0.0
0
LINE
8
TOP
10
0.005351
20
0.026421
30
0.0
11
0.005917
21
0.025350
31
0.0
0
LINE
8
TOP
10
0.005917
20
0.025350
30
0.0
11
0.006509
21
0.024293
31
0.0
0
LINE
8
TOP
10
0.006509
20
0.024293
30
0.0
11
0.007128
21
0.023252
31
0.0
0
LINE
8
TOP
10
0.007128
20
0.023252
30
0.0
11
0.007773
21
0.022226
31
0.0
0
LINE
8
TOP
10
0.007773
20
0.022226
30
0.0
11
0.008442
21
0.021217
31
0.0
0
LINE
8
TOP
10
0.008442
20
0.021217
30
0.0
11
0.009137
21
0.020224
31
0.0
0
LINE
8
TOP
10
0.009137
20
0.020224
30
0.0
11
0.009857
21
0.019250
31
0.0
0
LINE
8
TOP
10
0.009857
20
0.019250
30
0.0
11
0.010600
21
0.018293
31
0.0
0
LINE
8
TOP
10
0.010600
20
0.018293
30
0.0
11
0.011367
21
0.017356
31
0.0
0
LINE
8
TOP
10
0.011367
20
0.017356
30
0.0
11
0.012157
21
0.016438
31
0.0
0
LINE
8
TOP
10
0.012157
20
0.016438
30
0.0
11
0.012970
21
0.015539
31
0.0
0
LINE
8
TOP
10
0.012970
20
0.015539
30
0.0
11
0.013805
21
0.014662
31
0.0
0
LINE
8
TOP
10
0.013805
20
0.014662
30
0.0
11
0.014662
21
0.013805
31
0.0
0
LINE
8
TOP
10
0.014662
20
0.013805
30
0.0
11
0.015539
21
0.012970
31
0.0
0
LINE
8
TOP
10
0.015539
20
0.012970
30
0.0
11
0.016438
21
0.012157
31
0.0
0
LINE
8
TOP
10
0.016438
20
0.012157
30
0.0
11
0.017356
21
0.011367
31
0.0
0
LINE
8
TOP
10
0.017356
20
0.011367
30
0.0
11
0.018293
21
0.010600
31
0.0
0
LINE
8
TOP
10
0.018293
20
0.010600
30
0.0
11
0.019250
21
0.009857
31
0.0
0
LINE
8
TOP
10
0.019250
20
0.009857
30
0.0
11
0.020224
21
0.009137
31
0.0
0
LINE
8
TOP
10
0.020224
20
0.009137
30
0.0
11
0.021217
21
0.008442
31
0.0
0
LINE
8
TOP
10
0.021217
20
0.008442
30
0.0
11
0.022226
21
0.007773
31
0.0
0
LINE
8
TOP
10
0.022226
20
0.007773
30
0.0
11
0.023252
21
0.007128
31
0.0
0
LINE
8
TOP
10
0.023252
20
0.007128
30
0.0
11
0.024293
21
0.006509
31
0.0
0
LINE
8
TOP
10
0.024293
20
0.006509
30
0.0
11
0.025350
21
0.005917
31
0.0
0
LINE
8
TOP
10
0.025350
20
0.005917
30
0.0
11
0.026421
21
0.005351
31
0.0
0
LINE
8
TOP
10
0.026421
20
0.005351
30
0.0
11
0.027506
21
0.004812
31
0.0
0
LINE
8
TOP
10
0.027506
20
0.004812
30
0.0
11
0.028604
21
0.004300
31
0.0
0
LINE
8
TOP
10
0.028604
20
0.004300
30
0.0
11
0.029714
21
0.003815
31
0.0
0
LINE
8
TOP
10
0.029714
20
0.003815
30
0.0
11
0.030836
21
0.003359
31
0.0
0
LINE
8
TOP
10
0.030836
20
0.003359
30
0.0
11
0.031969
21
0.002930
31
0.0
0
LINE
8
TOP
10
0.031969
20
0.002930
30
0.0
11
0.033112
21
0.002530
31
0.0
0
LINE
8
TOP
10
0.033112
20
0.002530
30
0.0
11
0.034265
21
0.002159
31
0.0
0
LINE
8
TOP
10
0.034265
20
0.002159
30
0.0
11
0.035427
21
0.001816
31
0.0
0
LINE
8
TOP
10
0.035427
20
0.001816
30
0.0
11
0.036598
21
0.001502
31
0.0
0
LINE
8
TOP
10
0.036598
20
0.001502
30
0.0
11
0.037775
21
0.001218
31
0.0
0
LINE
8
TOP
10
0.037775
20
0.001218
30
0.0
11
0.038959
21
0.000963
31
0.0
0
LINE
8
TOP
10
0.038959
20
0.000963
30
0.0
11
0.040150
21
0.000738
31
0.0
0
LINE
8
TOP
10
0.040150
20
0.000738
30
0.0
11
0.041345
21
0.000543
31
0.0
0
LINE
8
TOP
10
0.041345
20
0.000543
30
0.0
11
0.042545
21
0.000377
31
0.0
0
LINE
8
TOP
10
0.042545
20
0.000377
30
0.0
11
0.043749
21
0.000241
31
0.0
0
LINE
8
TOP
10
0.043749
20
0.000241
30
0.0
11
0.044956
21
0.000136
31
0.0
0
LINE
8
TOP
10
0.044956
20
0.000136
30
0.0
11
0.046165
21
0.000060
31
0.0
0
LINE
8
TOP
10
0.046165
20
0.000060
30
0.0
11
0.047375
21
0.000015
31
0.0
0
LINE
8
TOP
10
0.047375
20
0.000015
30
0.0
11
0.048587
21
0.000000
31
0.0
0
LINE
8
TOP
10
0.048587
20
0.000000
30
0.0
11
1.325563
21
0.000000
31
0.0
0
LINE
8
TOP
10
1.325563
20
0.000000
30
0.0
11
1.326421
21
0.000008
31
0.0
0
LINE
8
TOP
10
1.326421
20
0.000008
30
0.0
11
1.327279
21
0.000030
31
0.0
0
LINE
8
TOP
10
1.327279
20
0.000030
30
0.0
11
1.328137
21
0.000068
31
0.0
0
LINE
8
TOP
10
1.328137
20
0.000068
30
0.0
11
1.328994
21
0.000121
31
0.0
0
LINE
8
TOP
10
1.328994
20
0.000121
30
0.0
11
1.329850
21
0.000189
31
0.0
0
LINE
8
TOP
10
1.329850
20
0.000189
30
0.0
11
1.330704
21
0.000273
31
0.0
0
LINE
8
TOP
10
1.330704
20
0.000273
30
0.0
11
1.331557
21
0.000371
31
0.0
0
LINE
8
TOP
10
1.331557
20
0.000371
30
0.0
11
1.332408
21
0.000485
31
0.0
0
LINE
8
TOP
10
1.332408
20
0.000485
30
0.0
11
1.333257
21
0.000613
31
0.0
0
LINE
8
TOP
10
1.333257
20
0.000613
30
0.0
11
1.334103
21
0.000756
31
0.0
0
LINE
8
TOP
10
1.334103
20
0.000756
30
0.0
11
1.334947
21
0.000915
31
0.0
0
LINE
8
TOP
10
1.334947
20
0.000915
30
0.0
11
1.335788
21
0.001088
31
0.0
0
LINE
8
TOP
10
1.335788
20
0.001088
30
0.0
11
1.336625
21
0.001276
31
0.0
0
LINE
8
TOP
10
1.336625
20
0.001276
30
0.0
11
1.337459
21
0.001479
31
0.0
0
LINE
8
TOP
10
1.337459
20
0.001479
30
0.0
11
1.338290
21
0.001697
31
0.0
0
LINE
8
TOP
10
1.338290
20
0.001697
30
0.0
11
1.339116
21
0.001929
31
0.0
0
LINE
8
TOP
10
1.339116
20
0.001929
30
0.0
11
1.339939
21
0.002175
31
0.0
0
LINE
8
TOP
10
1.339939
20
0.002175
30
0.0
11
1.340756
21
0.002437
31
0.0
0
LINE
8
TOP
10
1.340756
20
0.002437
30
0.0
11
1.341569
21
0.002712
31
0.0
0
LINE
8
TOP
10
1.341569
20
0.002712
30
0.0
11
1.342377
21
0.003002
31
0.0
0
LINE
8
TOP
10
1.342377
20
0.003002
30
0.0
11
1.343180
21
0.003307
31
0.0
0
LINE
8
TOP
10
1.343180
20
0.003307
30
0.0
11
1.343977
21
0.003625
31
0.0
0
LINE
8
TOP
10
1.343977
20
0.003625
30
0.0
11
1.344769
21
0.003957
31
0.0
0
LINE
8
TOP
10
1.344769
20
0.003957
30
0.0
11
1.345555
21
0.004304
31
0.0
0
LINE
8
TOP
10
1.345555
20
0.004304
30
0.0
11
1.346334
21
0.004664
31
0.0
0
LINE
8
TOP
10
1.346334
20
0.004664
30
0.0
11
1.347107
21
0.005038
31
0.0
0
LINE
8
TOP
10
1.347107
20
0.005038
30
0.0
11
1.347873
21
0.005425
31
0.0
0
LINE
8
TOP
10
1.347873
20
0.005425
30
0.0
11
1.348632
21
0.005826
31
0.0
0
LINE
8
TOP
10
1.348632
20
0.005826
30
0.0
11
1.349384
21
0.006240
31
0.0
0
LINE
8
TOP
10
1.349384
20
0.006240
30
0.0
11
1.350128
21
0.006668
31
0.0
0
LINE
8
TOP
10
1.350128
20
0.006668
30
0.0
11
1.350865
21
0.007108
31
0.0
0
LINE
8
TOP
10
1.350865
20
0.007108
30
0.0
11
1.351594
21
0.007562
31
0.0
0
LINE
8
TOP
10
1.351594
20
0.007562
30
0.0
11
1.352315
21
0.008028
31
0.0
0
LINE
8
TOP
10
1.352315
20
0.008028
30
0.0
11
1.353027
21
0.008507
31
0.0
0
LINE
8
TOP
10
1.353027
20
0.008507
30
0.0
11
1.353731
21
0.008999
31
0.0
0
LINE
8
TOP
10
1.353731
20
0.008999
30
0.0
11
1.354426
21
0.009502
31
0.0
0
LINE
8
TOP
10
1.354426
20
0.009502
30
0.0
11
1.355112
21
0.010019
31
0.0
0
LINE
8
TOP
10
1.355112
20
0.010019
30
0.0
11
1.355789
21
0.010547
31
0.0
0
LINE
8
TOP
10
1.355789
20
0.010547
30
0.0
11
1.356456
21
0.011087
31
0.0
0
LINE
8
TOP
10
1.356456
20
0.011087
30
0.0
11
1.357114
21
0.011638
31
0.0
0
LINE
8
TOP
10
1.357114
20
0.011638
30
0.0
11
1.357762
21
0.012202
31
0.0
0
LINE
8
TOP
10
1.357762
20
0.012202
30
0.0
11
1.358400
21
0.012776
31
0.0
0
LINE
8
TOP
10
1.358400
20
0.012776
30
0.0
11
1.359027
21
0.013362
31
0.0
0
LINE
8
TOP
10
1.359027
20
0.013362
30
0.0
11
1.359644
21
0.013959
31
0.0
0
LINE
8
TOP
10
1.359644
20
0.013959
30
0.0
11
1.360251
21
0.014566
31
0.0
0
LINE
8
TOP
10
1.360251
20
0.014566
30
0.0
11
1.360847
21
0.015184
31
0.0
0
LINE
8
TOP
10
1.360847
20
0.015184
30
0.0
11
1.361431
21
0.015813
31
0.0
0
LINE
8
TOP
10
1.361431
20
0.015813
30
0.0
11
1.362005
21
0.016452
31
0.0
0
LINE
8
TOP
10
1.362005
20
0.016452
30
0.0
11
1.362567
21
0.017101
31
0.0
0
LINE
8
TOP
10
1.362567
20
0.017101
30
0.0
11
1.363117
21
0.017760
31
0.0
0
LINE
8
TOP
10
1.363117
20
0.017760
30
0.0
11
1.363656
21
0.018428
31
0.0
0
LINE
8
TOP
10
1.363656
20
0.018428
30
0.0
11
1.364183
21
0.019106
31
0.0
0
LINE
8
TOP
10
1.364183
20
0.019106
30
0.0
11
1.364698
21
0.019793
31
0.0
0
LINE
8
TOP
10
1.364698
20
0.019793
30
0.0
11
1.365201
21
0.020489
31
0.0
0
LINE
8
TOP
10
1.365201
20
0.020489
30
0.0
11
1.365691
21
0.021193
31
0.0
0
LINE
8
TOP
10
1.365691
20
0.021193
30
0.0
11
1.366169
21
0.021907
31
0.0
0
LINE
8
TOP
10
1.366169
20
0.021907
30
0.0
11
1.366634
21
0.022628
31
0.0
0
LINE
8
TOP
10
1.366634
20
0.022628
30
0.0
11
1.367086
21
0.023358
31
0.0
0
LINE
8
TOP
10
1.367086
20
0.023358
30
0.0
11
1.367525
21
0.024095
31
0.0
0
LINE
8
TOP
10
1.367525
20
0.024095
30
0.0
11
1.367951
21
0.024841
31
0.0
0
LINE
8
TOP
10
1.367951
20
0.024841
30
0.0
11
1.368364
21
0.025593
31
0.0
0
LINE
8
TOP
10
1.368364
20
0.025593
30
0.0
11
1.368764
21
0.026353
31
0.0
0
LINE
8
TOP
10
1.368764
20
0.026353
30
0.0
11
1.369150
21
0.027120
31
0.0
0
LINE
8
TOP
10
1.369150
20
0.027120
30
0.0
11
1.469035
21
0.229930
31
0.0
0
LINE
8
TOP
10
1.469035
20
0.229930
30
0.0
11
1.469282
21
0.230438
31
0.0
0
LINE
8
TOP
10
1.469282
20
0.230438
30
0.0
11
1.469526
21
0.230947
31
0.0
0
LINE
8
TOP
10
1.469526
20
0.230947
30
0.0
11
1.469766
21
0.231458
31
0.0
0
LINE
8
TOP
10
1.469766
20
0.231458
30
0.0
11
1.470003
21
0.231971
31
0.0
0
LINE
8
TOP
10
1.470003
20
0.231971
30
0.0
11
1.470236
21
0.232485
31
0.0
0
LINE
8
TOP
10
1.470236
20
0.232485
30
0.0
11
1.470465
21
0.233002
31
0.0
0
LINE
8
TOP
10
1.470465
20
0.233002
30
0.0
11
1.470690
21
0.233519
31
0.0
0
LINE
8
TOP
10
1.470690
20
0.233519
30
0.0
11
1.470912
21
0.234039
31
0.0
0
LINE
8
TOP
10
1.470912
20
0.234039
30
0.0
11
1.471130
21
0.234560
31
0.0
0
LINE
8
TOP
10
1.471130
20
0.234560
30
0.0
11
1.471343
21
0.235082
31
0.0
0
LINE
8
TOP
10
1.471343
20
0.235082
30
0.0
11
1.471554
21
0.235607
31
0.0
0
LINE
8
TOP
10
1.471554
20
0.235607
30
0.0
11
1.471760
21
0.236132
31
0.0
0
LINE
8
TOP
10
1.471760
20
0.236132
30
0.0
11
1.471963
21
0.236659
31
0.0
0
LINE
8
TOP
10
1.471963
20
0.236659
30
0.0
11
1.472161
21
0.237188
31
0.0
0
LINE
8
TOP
10
1.472161
20
0.237188
30
0.0
11
1.472356
21
0.237718
31
0.0
0
LINE
8
TOP
10
1.472356
20
0.237718
30
0.0
11
1.472547
21
0.238249
31
0.0
0
LINE
8
TOP
10
1.472547
20
0.238249
30
0.0
11
1.472734
21
0.238782
31
0.0
0
LINE
8
TOP
10
1.472734
20
0.238782
30
0.0
11
1.472917
21
0.239316
31
0.0
0
LINE
8
TOP
10
1.472917
20
0.239316
30
0.0
11
1.473097
21
0.239852
31
0.0
0
LINE
8
TOP
10
1.473097
20
0.239852
30
0.0
11
1.473272
21
0.240388
31
0.0
0
LINE
8
TOP
10
1.473272
20
0.240388
30
0.0
11
1.473444
21
0.240926
31
0.0
0
LINE
8
TOP
10
1.473444
20
0.240926
30
0.0
11
1.473612
21
0.241466
31
0.0
0
LINE
8
TOP
10
1.473612
20
0.241466
30
0.0
11
1.473775
21
0.242006
31
0.0
0
LINE
8
TOP
10
1.473775
20
0.242006
30
0.0
11
1.473935
21
0.242548
31
0.0
0
LINE
8
TOP
10
1.473935
20
0.242548
30
0.0
11
1.474091
21
0.243090
31
0.0
0
LINE
8
TOP
10
1.474091
20
0.243090
30
0.0
11
1.474243
21
0.243634
31
0.0
0
LINE
8
TOP
10
1.474243
20
0.243634
30
0.0
11
1.474391
21
0.244179
31
0.0
0
LINE
8
TOP
10
1.474391
20
0.244179
30
0.0
11
1.474535
21
0.244725
31
0.0
0
LINE
8
TOP
10
1.474535
20
0.244725
30
0.0
11
1.474675
21
0.245272
31
0.0
0
LINE
8
TOP
10
1.474675
20
0.245272
30
0.0
11
1.474811
21
0.245820
31
0.0
0
LINE
8
TOP
10
1.474811
20
0.245820
30
0.0
11
1.474943
21
0.246369
31
0.0
0
LINE
8
TOP
10
1.474943
20
0.246369
30
0.0
11
1.475071
21
0.246919
31
0.0
0
LINE
8
TOP
10
1.475071
20
0.246919
30
0.0
11
1.475195
21
0.247470
31
0.0
0
LINE
8
TOP
10
1.475195
20
0.247470
30
0.0
11
1.475315
21
0.248022
31
0.0
0
LINE
8
TOP
10
1.475315
20
0.248022
30
0.0
11
1.475431
21
0.248575
31
0.0
0
LINE
8
TOP
10
1.475431
20
0.248575
30
0.0
11
1.475543
21
0.249128
31
0.0
0
LINE
8
TOP
10
1.475543
20
0.249128
30
0.0
11
1.475652
21
0.249682
31
0.0
0
LINE
8
TOP
10
1.475652
20
0.249682
30
0.0
11
1.475756
21
0.250237
31
0.0
0
LINE
8
TOP
10
1.475756
20
0.250237
30
0.0
11
1.475855
21
0.250793
31
0.0
0
LINE
8
TOP
10
1.475855
20
0.250793
30
0.0
11
1.475951
21
0.251350
31
0.0
0
LINE
8
TOP
10
1.475951
20
0.251350
30
0.0
11
1.476043
21
0.251907
31
0.0
0
LINE
8
TOP
10
1.476043
20
0.251907
30
0.0
11
1.476131
21
0.252465
31
0.0
0
LINE
8
TOP
10
1.476131
20
0.252465
30
0.0
11
1.476215
21
0.253023
31
0.0
0
LINE
8
TOP
10
1.476215
20
0.253023
30
0.0
11
1.476295
21
0.253582
31
0.0
0
LINE
8
TOP
10
1.476295
20
0.253582
30
0.0
11
1.476370
21
0.254142
31
0.0
0
LINE
8
TOP
10
1.476370
20
0.254142
30
0.0
11
1.476442
21
0.254702
31
0.0
0
LINE
8
TOP
10
1.476442
20
0.254702
30
0.0
11
1.476509
21
0.255262
31
0.0
0
LINE
8
TOP
10
1.476509
20
0.255262
30
0.0
11
1.476573
21
0.255824
31
0.0
0
LINE
8
TOP
10
1.476573
20
0.255824
30
0.0
11
1.476632
21
0.256385
31
0.0
0
LINE
8
TOP
10
1.476632
20
0.256385
30
0.0
11
1.476687
21
0.256947
31
0.0
0
LINE
8
TOP
10
1.476687
20
0.256947
30
0.0
11
1.476739
21
0.257509
31
0.0
0
LINE
8
TOP
10
1.476739
20
0.257509
30
0.0
11
1.476786
21
0.258072
31
0.0
0
LINE
8
TOP
10
1.476786
20
0.258072
30
0.0
11
1.476829
21
0.258635
31
0.0
0
LINE
8
TOP
10
1.476829
20
0.258635
30
0.0
11
1.476868
21
0.259199
31
0.0
0
LINE
8
TOP
10
1.476868
20
0.259199
30
0.0
11
1.476903
21
0.259762
31
0.0
0
LINE
8
TOP
10
1.476903
20
0.259762
30
0.0
11
1.476933
21
0.260326
31
0.0
0
LINE
8
TOP
10
1.476933
20
0.260326
30
0.0
11
1.476960
21
0.260890
31
0.0
0
LINE
8
TOP
10
1.476960
20
0.260890
30
0.0
11
1.476983
21
0.261454
31
0.0
0
LINE
8
TOP
10
1.476983
20
0.261454
30
0.0
11
1.477001
21
0.262019
31
0.0
0
LINE
8
TOP
10
1.477001
20
0.262019
30
0.0
11
1.477015
21
0.262583
31
0.0
0
LINE
8
TOP
10
1.477015
20
0.262583
30
0.0
11
1.477026
21
0.263148
31
0.0
0
LINE
8
TOP
10
1.477026
20
0.263148
30
0.0
11
1.477032
21
0.263713
31
0.0
0
LINE
8
TOP
10
1.477032
20
0.263713
30
0.0
11
1.477034
21
0.264277
31
0.0
0
LINE
8
TOP
10
1.477034
20
0.264277
30
0.0
11
1.477034
21
0.369258
31
0.0
0
LINE
8
TOP
10
1.477034
20
0.369258
30
0.0
11
1.477034
21
0.474240
31
0.0
0
LINE
8
TOP
10
1.477034
20
0.474240
30
0.0
11
1.477032
21
0.474804
31
0.0
0
LINE
8
TOP
10
1.477032
20
0.474804
30
0.0
11
1.477026
21
0.475369
31
0.0
0
LINE
8
TOP
10
1.477026
20
0.475369
30
0.0
11
1.477015
21
0.475934
31
0.0
0
LINE
8
TOP
10
1.477015
20
0.475934
30
0.0
11
1.477001
21
0.476498
31
0.0
0
LINE
8
TOP
10
1.477001
20
0.476498
30
0.0
11
1.476983
21
0.477063
31
0.0
0
LINE
8
TOP
10
1.476983
20
0.477063
30
0.0
11
1.476960
21
0.477627
31
0.0
0
LINE
8
TOP
10
1.476960
20
0.477627
30
0.0
11
1.476933
21
0.478191
31
0.0
0
LINE
8
TOP
10
1.476933
20
0.478191
30
0.0
11
1.476903
21
0.478755
31
0.0
0
LINE
8
TOP
10
1.476903
20
0.478755
30
0.0
11
1.476868
21
0.479318
31
0.0
0
LINE
8
TOP
10
1.476868
20
0.479318
30
0.0
11
1.476829
21
0.479882
31
0.0
0
LINE
8
TOP
10
1.476829
20
0.479882
30
0.0
11
1.476786
21
0.480445
31
0.0
0
LINE
8
TOP
10
1.476786
20
0.480445
30
0.0
11
1.476739
21
0.481007
31
0.0
0
LINE
8
TOP
10
1.476739
20
0.481007
30
0.0
11
1.476687
21
0.481570
31
0.0
0
LINE
8
TOP
10
1.476687
20
0.481570
30
0.0
11
1.476632
21
0.482132
31
0.0
0
LINE
8
TOP
10
1.476632
20
0.482132
30
0.0
11
1.476573
21
0.482693
31
0.0
0
LINE
8
TOP
10
1.476573
20
0.482693
30
0.0
11
1.476509
21
0.483254
31
0.0
0
LINE
8
TOP
10
1.476509
20
0.483254
30
0.0
11
1.476442
21
0.483815
31
0.0
0
LINE
8
TOP
10
1.476442
20
0.483815
30
0.0
11
1.476370
21
0.484375
31
0.0
0
LINE
8
TOP
10
1.476370
20
0.484375
30
0.0
11
1.476295
21
0.484935
31
0.0
0
LINE
8
TOP
10
1.476295
20
0.484935
30
0.0
11
1.476215
21
0.485494
31
0.0
0
LINE
8
TOP
10
1.476215
20
0.485494
30
0.0
11
1.476131
21
0.486052
31
0.0
0
LINE
8
TOP
10
1.476131
20
0.486052
30
0.0
11
1.476043
21
0.486610
31
0.0
0
LINE
8
TOP
10
1.476043
20
0.486610
30
0.0
11
1.475951
21
0.487167
31
0.0
0
LINE
8
TOP
10
1.475951
20
0.487167
30
0.0
11
1.475855
21
0.487724
31
0.0
0
LINE
8
TOP
10
1.475855
20
0.487724
30
0.0
11
1.475755
21
0.488280
31
0.0
0
LINE
8
TOP
10
1.475755
20
0.488280
30
0.0
11
1.475651
21
0.488835
31
0.0
0
LINE
8
TOP
10
1.475651
20
0.488835
30
0.0
11
1.475543
21
0.489389
31
0.0
0
LINE
8
TOP
10
1.475543
20
0.489389
30
0.0
11
1.475431
21
0.489942
31
0.0
0
LINE
8
TOP
10
1.475431
20
0.489942
30
0.0
11
1.475315
21
0.490495
31
0.0
0
LINE
8
TOP
10
1.475315
20
0.490495
30
0.0
11
1.475195
21
0.491047
31
0.0
0
LINE
8
TOP
10
1.475195
20
0.491047
30
0.0
11
1.475071
21
0.491598
31
0.0
0
LINE
8
TOP
10
1.475071
20
0.491598
30
0.0
11
1.474943
21
0.492148
31
0.0
0
LINE
8
TOP
10
1.474943
20
0.492148
30
0.0
11
1.474811
21
0.492697
31
0.0
0
LINE
8
TOP
10
1.474811
20
0.492697
30
0.0
11
1.474675
21
0.493245
31
0.0
0
LINE
8
TOP
10
1.474675
20
0.493245
30
0.0
11
1.474535
21
0.493792
31
0.0
0
LINE
8
TOP
10
1.474535
20
0.493792
30
0.0
11
1.474391
21
0.494338
31
0.0
0
LINE
8
TOP
10
1.474391
20
0.494338
30
0.0
11
1.474243
21
0.494883
31
0.0
0
LINE
8
TOP
10
1.474243
20
0.494883
30
0.0
11
1.474091
21
0.495427
31
0.0
0
LINE
8
TOP
10
1.474091
20
0.495427
30
0.0
11
1.473935
21
0.495969
31
0.0
0
LINE
8
TOP
10
1.473935
20
0.495969
30
0.0
11
1.473775
21
0.496511
31
0.0
0
LINE
8
TOP
10
1.473775
20
0.496511
30
0.0
11
1.473612
21
0.497051
31
0.0
0
LINE
8
TOP
10
1.473612
20
0.497051
30
0.0
11
1.473444
21
0.497591
31
0.0
0
LINE
8
TOP
10
1.473444
20
0.497591
30
0.0
11
1.473272
21
0.498129
31
0.0
0
LINE
8
TOP
10
1.473272
20
0.498129
30
0.0
11
1.473097
21
0.498665
31
0.0
0
LINE
8
TOP
10
1.473097
20
0.498665
30
0.0
11
1.472917
21
0.499201
31
0.0
0
LINE
8
TOP
10
1.472917
20
0.499201
30
0.0
11
1.472734
21
0.499735
31
0.0
0
LINE
8
TOP
10
1.472734
20
0.499735
30
0.0
11
1.472547
21
0.500268
31
0.0
0
LINE
8
TOP
10
1.472547
20
0.500268
30
0.0
11
1.472356
21
0.500799
31
0.0
0
LINE
8
TOP
10
1.472356
20
0.500799
30
0.0
11
1.472161
21
0.501329
31
0.0
0
LINE
8
TOP
10
1.472161
20
0.501329
30
0.0
11
1.471963
21
0.501858
31
0.0
0
LINE
8
TOP
10
1.471963
20
0.501858
30
0.0
11
1.471760
21
0.502385
31
0.0
0
LINE
8
TOP
10
1.471760
20
0.502385
30
0.0
11
1.471554
21
0.502910
31
0.0
0
LINE
8
TOP
10
1.471554
20
0.502910
30
0.0
11
1.471343
21
0.503435
31
0.0
0
LINE
8
TOP
10
1.471343
20
0.503435
30
0.0
11
1.471130
21
0.503957
31
0.0
0
LINE
8
TOP
10
1.471130
20
0.503957
30
0.0
11
1.470912
21
0.504478
31
0.0
0
LINE
8
TOP
10
1.470912
20
0.504478
30
0.0
11
1.470690
21
0.504998
31
0.0
0
LINE
8
TOP
10
1.470690
20
0.504998
30
0.0
11
1.470465
21
0.505515
31
0.0
0
LINE
8
TOP
10
1.470465
20
0.505515
30
0.0
11
1.470236
21
0.506032
31
0.0
0
LINE
8
TOP
10
1.470236
20
0.506032
30
0.0
11
1.470003
21
0.506546
31
0.0
0
LINE
8
TOP
10
1.470003
20
0.506546
30
0.0
11
1.469766
21
0.507059
31
0.0
0
LINE
8
TOP
10
1.469766
20
0.507059
30
0.0
11
1.469526
21
0.507570
31
0.0
0
LINE
8
TOP
10
1.469526
20
0.507570
30
0.0
11
1.469282
21
0.508079
31
0.0
0
LINE
8
TOP
10
1.469282
20
0.508079
30
0.0
11
1.469035
21
0.508587
31
0.0
0
LINE
8
TOP
10
1.469035
20
0.508587
30
0.0
11
1.369150
21
0.711397
31
0.0
0
LINE
8
TOP
10
1.369150
20
0.711397
30
0.0
11
1.368764
21
0.712164
31
0.0
0
LINE
8
TOP
10
1.368764
20
0.712164
30
0.0
11
1.368364
21
0.712924
31
0.0
0
LINE
8
TOP
10
1.368364
20
0.712924
30
0.0
11
1.367951
21
0.713676
31
0.0
0
LINE
8
TOP
10
1.367951
20
0.713676
30
0.0
11
1.367525
21
0.714422
31
0.0
0
LINE
8
TOP
10
1.367525
20
0.714422
30
0.0
11
1.367086
21
0.715159
31
0.0
0
LINE
8
TOP
10
1.367086
20
0.715159
30
0.0
11
1.366634
21
0.715889
31
0.0
0
LINE
8
TOP
10
1.366634
20
0.715889
30
0.0
11
1.366168
21
0.716610
31
0.0
0
LINE
8
TOP
10
1.366168
20
0.716610
30
0.0
11
1.365691
21
0.717324
31
0.0
0
LINE
8
TOP
10
1.365691
20
0.717324
30
0.0
11
1.365201
21
0.718028
31
0.0
0
LINE
8
TOP
10
1.365201
20
0.718028
30
0.0
11
1.364698
21
0.718724
31
0.0
0
LINE
8
TOP
10
1.364698
20
0.718724
30
0.0
11
1.364183
21
0.719411
31
0.0
0
LINE
8
TOP
10
1.364183
20
0.719411
30
0.0
11
1.363656
21
0.720089
31
0.0
0
LINE
8
TOP
10
1.363656
20
0.720089
30
0.0
11
1.363117
21
0.720757
31
0.0
0
LINE
8
TOP
10
1.363117
20
0.720757
30
0.0
11
1.362567
21
0.721416
31
0.0
0
LINE
8
TOP
10
1.362567
20
0.721416
30
0.0
11
1.362005
21
0.722065
31
0.0
0
LINE
8
TOP
10
1.362005
20
0.722065
30
0.0
11
1.361431
21
0.722704
31
0.0
0
LINE
8
TOP
10
1.361431
20
0.722704
30
0.0
11
1.360847
21
0.723333
31
0.0
0
LINE
8
TOP
10
1.360847
20
0.723333
30
0.0
11
1.360251
21
0.723951
31
0.0
0
LINE
8
TOP
10
1.360251
20
0.723951
30
0.0
11
1.359644
21
0.724558
31
0.0
0
LINE
8
TOP
10
1.359644
20
0.724558
30
0.0
11
1.359027
21
0.725155
31
0.0
0
LINE
8
TOP
10
1.359027
20
0.725155
30
0.0
11
1.358400
21
0.725741
31
0.0
0
LINE
8
TOP
10
1.358400
20
0.725741
30
0.0
11
1.357762
21
0.726315
31
0.0
0
LINE
8
TOP
10
1.357762
20
0.726315
30
0.0
11
1.357114
21
0.726879
31
0.0
0
LINE
8
TOP
10
1.357114
20
0.726879
30
0.0
11
1.356456
21
0.727430
31
0.0
0
LINE
8
TOP
10
1.356456
20
0.727430
30
0.0
11
1.355789
21
0.727970
31
0.0
0
LINE
8
TOP
10
1.355789
20
0.727970
30
0.0
11
1.355112
21
0.728498
31
0.0
0
LINE
8
TOP
10
1.355112
20
0.728498
30
0.0
11
1.354426
21
0.729014
31
0.0
0
LINE
8
TOP
10
1.354426
20
0.729014
30
0.0
11
1.353731
21
0.729518
31
0.0
0
LINE
8
TOP
10
1.353731
20
0.729518
30
0.0
11
1.353027
21
0.730010
31
0.0
0
LINE
8
TOP
10
1.353027
20
0.730010
30
0.0
11
1.352315
21
0.730489
31
0.0
0
LINE
8
TOP
10
1.352315
20
0.730489
30
0.0
11
1.351594
21
0.730955
31
0.0
0
LINE
8
TOP
10
1.351594
20
0.730955
30
0.0
11
1.350865
21
0.731409
31
0.0
0
LINE
8
TOP
10
1.350865
20
0.731409
30
0.0
11
1.350128
21
0.731849
31
0.0
0
LINE
8
TOP
10
1.350128
20
0.731849
30
0.0
11
1.349384
21
0.732277
31
0.0
0
LINE
8
TOP
10
1.349384
20
0.732277
30
0.0
11
1.348632
21
0.732691
31
0.0
0
LINE
8
TOP
10
1.348632
20
0.732691
30
0.0
11
1.347873
21
0.733092
31
0.0
0
LINE
8
TOP
10
1.347873
20
0.733092
30
0.0
11
1.347107
21
0.733479
31
0.0
0
LINE
8
TOP
10
1.347107
20
0.733479
30
0.0
11
1.346334
21
0.733853
31
0.0
0
LINE
8
TOP
10
1.346334
20
0.733853
30
0.0
11
1.345554
21
0.734213
31
0.0
0
LINE
8
TOP
10
1.345554
20
0.734213
30
0.0
11
1.344769
21
0.734560
31
0.0
0
LINE
8
TOP
10
1.344769
20
0.734560
30
0.0
11
1.343977
21
0.734892
31
0.0
0
LINE
8
TOP
10
1.343977
20
0.734892
30
0.0
11
1.343180
21
0.735210
31
0.0
0
LINE
8
TOP
10
1.343180
20
0.735210
30
0.0
11
1.342377
21
0.735515
31
0.0
0
LINE
8
TOP
10
1.342377
20
0.735515
30
0.0
11
1.341569
21
0.735805
31
0.0
0
LINE
8
TOP
10
1.341569
20
0.735805
30
0.0
11
1.340756
21
0.736080
31
0.0
0
LINE
8
TOP
10
1.340756
20
0.736080
30
0.0
11
1.339939
21
0.736341
31
0.0
0
LINE
8
TOP
10
1.339939
20
0.736341
30
0.0
11
1.339116
21
0.736588
31
0.0
0
LINE
8
TOP
10
1.339116
20
0.736588
30
0.0
11
1.338290
21
0.736820
31
0.0
0
LINE
8
TOP
10
1.338290
20
0.736820
30
0.0
11
1.337459
21
0.737038
31
0.0
0
LINE
8
TOP
10
1.337459
20
0.737038
30
0.0
11
1.336625
21
0.737241
31
0.0
0
LINE
8
TOP
10
1.336625
20
0.737241
30
0.0
11
1.335788
21
0.737429
31
0.0
0
LINE
8
TOP
10
1.335788
20
0.737429
30
0.0
11
1.334947
21
0.737602
31
0.0
0
LINE
8
TOP
10
1.334947
20
0.737602
30
0.0
11
1.334103
21
0.737760
31
0.0
0
LINE
8
TOP
10
1.334103
20
0.737760
30
0.0
11
1.333257
21
0.737904
31
0.0
0
LINE
8
TOP
10
1.333257
20
0.737904
30
0.0
11
1.332408
21
0.738032
31
0.0
0
LINE
8
TOP
10
1.332408
20
0.738032
30
0.0
11
1.331557
21
0.738146
31
0.0
0
LINE
8
TOP
10
1.331557
20
0.738146
30
0.0
11
1.330704
21
0.738244
31
0.0
0
LINE
8
TOP
10
1.330704
20
0.738244
30
0.0
11
1.329850
21
0.738327
31
0.0
0
LINE
8
TOP
10
1.329850
20
0.738327
30
0.0
11
1.328994
21
0.738396
31
0.0
0
LINE
8
TOP
10
1.328994
20
0.738396
30
0.0
11
1.328137
21
0.738449
31
0.0
0
LINE
8
TOP
10
1.328137
20
0.738449
30
0.0
11
1.327279
21
0.738487
31
0.0
0
LINE
8
TOP
10
1.327279
20
0.738487
30
0.0
11
1.326421
21
0.738509
31
0.0
0
LINE
8
TOP
10
1.326421
20
0.738509
30
0.0
11
1.325563
21
0.738517
31
0.0
0
LINE
8
TOP
10
1.325563
20
0.738517
30
0.0
11
0.048587
21
0.738517
31
0.0
0
LINE
8
TOP
10
0.048587
20
0.738517
30
0.0
11
0.047375
21
0.738502
31
0.0
0
LINE
8
TOP
10
0.047375
20
0.738502
30
0.0
11
0.046165
21
0.738457
31
0.0
0
LINE
8
TOP
10
0.046165
20
0.738457
30
0.0
11
0.044956
21
0.738381
31
0.0
0
LINE
8
TOP
10
0.044956
20
0.738381
30
0.0
11
0.043749
21
0.738275
31
0.0
0
LINE
8
TOP
10
0.043749
20
0.738275
30
0.0
11
0.042545
21
0.738140
31
0.0
0
LINE
8
TOP
10
0.042545
20
0.738140
30
0.0
11
0.041345
21
0.737974
31
0.0
0
LINE
8
TOP
10
0.041345
20
0.737974
30
0.0
11
0.040150
21
0.737779
31
0.0
0
LINE
8
TOP
10
0.040150
20
0.737779
30
0.0
11
0.038959
21
0.737554
31
0.0
0
LINE
8
TOP
10
0.038959
20
0.737554
30
0.0
11
0.037775
21
0.737299
31
0.0
0
LINE
8
TOP
10
0.037775
20
0.737299
30
0.0
11
0.036598
21
0.737014
31
0.0
0
LINE
8
TOP
10
0.036598
20
0.737014
30
0.0
11
0.035427
21
0.736701
31
0.0
0
LINE
8
TOP
10
0.035427
20
0.736701
30
0.0
11
0.034265
21
0.736358
31
0.0
0
LINE
8
TOP
10
0.034265
20
0.736358
30
0.0
11
0.033112
21
0.735987
31
0.0
0
LINE
8
TOP
10
0.033112
20
0.735987
30
0.0
11
0.031969
21
0.735587
31
0.0
0
LINE
8
TOP
10
0.031969
20
0.735587
30
0.0
11
0.030836
21
0.735158
31
0.0
0
LINE
8
TOP
10
0.030836
20
0.735158
30
0.0
11
0.029714
21
0.734702
31
0.0
0
LINE
8
TOP
10
0.029714
20
0.734702
30
0.0
11
0.028604
21
0.734217
31
0.0
0
LINE
8
TOP
10
0.028604
20
0.734217
30
0.0
11
0.027506
21
0.733705
31
0.0
0
LINE
8
TOP
10
0.027506
20
0.733705
30
0.0
11
0.026421
21
0.733166
31
0.0
0
LINE
8
TOP
10
0.026421
20
0.733166
30
0.0
11
0.025350
21
0.732600
31
0.0
0
LINE
8
TOP
10
0.025350
20
0.732600
30
0.0
11
0.024293
21
0.732008
31
0.0
0
LINE
8
TOP
10
0.024293
20
0.732008
30
0.0
11
0.023252
21
0.731389
31
0.0
0
LINE
8
TOP
10
0.023252
20
0.731389
30
0.0
11
0.022226
21
0.730744
31
0.0
0
LINE
8
TOP
10
0.022226
20
0.730744
30
0.0
11
0.021217
21
0.730074
31
0.0
0
LINE
8
TOP
10
0.021217
20
0.730074
30
0.0
11
0.020224
21
0.729380
31
0.0
0
LINE
8
TOP
10
0.020224
20
0.729380
30
0.0
11
0.019250
21
0.728660
31
0.0
0
LINE
8
TOP
10
0.019250
20
0.728660
30
0.0
11
0.018293
21
0.727917
31
0.0
0
LINE
8
TOP
10
0.018293
20
0.727917
30
0.0
11
0.017356
21
0.727150
31
0.0
0
LINE
8
TOP
10
0.017356
20
0.727150
30
0.0
11
0.016438
21
0.726360
31
0.0
0
LINE
8
TOP
10
0.016438
20
0.726360
30
0.0
11
0.015539
21
0.725547
31
0.0
0
LINE
8
TOP
10
0.015539
20
0.725547
30
0.0
11
0.014662
21
0.724712
31
0.0
0
LINE
8
TOP
10
0.014662
20
0.724712
30
0.0
11
0.013805
21
0.723855
31
0.0
0
LINE
8
TOP
10
0.013805
20
0.723855
30
0.0
11
0.012970
21
0.722978
31
0.0
0
LINE
8
TOP
10
0.012970
20
0.722978
30
0.0
11
0.012157
21
0.722079
31
0.0
0
LINE
8
TOP
10
0.012157
20
0.722079
30
0.0
11
0.011367
21
0.721161
31
0.0
0
LINE
8
TOP
10
0.011367
20
0.721161
30
0.0
11
0.010600
21
0.720224
31
0.0
0
LINE
8
TOP
10
0.010600
20
0.720224
30
0.0
11
0.009857
21
0.719267
31
0.0
0
LINE
8
TOP
10
0.009857
20
0.719267
30
0.0
11
0.009137
21
0.718292
31
0.0
0
LINE
8
TOP
10
0.009137
20
0.718292
30
0.0
11
0.008442
21
0.717300
31
0.0
0
LINE
8
TOP
10
0.008442
20
0.717300
30
0.0
11
0.007773
21
0.716291
31
0.0
0
LINE
8
TOP
10
0.007773
20
0.716291
30
0.0
11
0.007128
21
0.715265
31
0.0
0
LINE
8
TOP
10
0.007128
20
0.715265
30
0.0
11
0.006509
21
0.714224
31
0.0
0
LINE
8
TOP
10
0.006509
20
0.714224
30
0.0
11
0.005917
21
0.713167
31
0.0
0
LINE
8
TOP
10
0.005917
20
0.713167
30
0.0
11
0.005351
21
0.712096
31
0.0
0
LINE
8
TOP
10
0.005351
20
0.712096
30
0.0
11
0.004812
21
0.711011
31
0.0
0
LINE
8
TOP
10
0.004812
20
0.711011
30
0.0
11
0.004300
21
0.709913
31
0.0
0
LINE
8
TOP
10
0.004300
20
0.709913
30
0.0
11
0.003815
21
0.708803
31
0.0
0
LINE
8
TOP
10
0.003815
20
0.708803
30
0.0
11
0.003359
21
0.707681
31
0.0
0
LINE
8
TOP
10
0.003359
20
0.707681
30
0.0
11
0.002930
21
0.706548
31
0.0
0
LINE
8
TOP
10
0.002930
20
0.706548
30
0.0
11
0.002530
21
0.705404
31
0.0
0
LINE
8
TOP
10
0.002530
20
0.705404
30
0.0
11
0.002159
21
0.704251
31
0.0
0
LINE
8
TOP
10
0.002159
20
0.704251
30
0.0
11
0.001816
21
0.703090
31
0.0
0
LINE
8
TOP
10
0.001816
20
0.703090
30
0.0
11
0.001502
21
0.701919
31
0.0
0
LINE
8
TOP
10
0.001502
20
0.701919
30
0.0
11
0.001218
21
0.700742
31
0.0
0
LINE
8
TOP
10
0.001218
20
0.700742
30
0.0
11
0.000963
21
0.699558
31
0.0
0
LINE
8
TOP
10
0.000963
20
0.699558
30
0.0
11
0.000738
21
0.698367
31
0.0
0
LINE
8
TOP
10
0.000738
20
0.698367
30
0.0
11
0.000543
21
0.697172
31
0.0
0
LINE
8
TOP
10
0.000543
20
0.697172
30
0.0
11
0.000377
21
0.695972
31
0.0
0
LINE
8
TOP
10
0.000377
20
0.695972
30
0.0
11
0.000241
21
0.694768
31
0.0
0
LINE
8
TOP
10
0.000241
20
0.694768
30
0.0
11
0.000136
21
0.693561
31
0.0
0
LINE
8
TOP
10
0.000136
20
0.693561
30
0.0
11
0.000060
21
0.692352
31
0.0
0
LINE
8
TOP
10
0.000060
20
0.692352
30
0.0
11
0.000015
21
0.691142
31
0.0
0
LINE
8
TOP
10
0.000015
20
0.691142
30
0.0
11
0.000000
21
0.689930
31
0.0
0
LINE
8
TOP
10
0.000000
20
0.689930
30
0.0
11
0.000000
21
0.369258
31
0.0
0
LINE
8
TOP
10
0.000000
20
0.369258
30
0.0
11
0.000000
21
0.048587
31
0.0
0
LINE
8
TOP
10
1.373201
20
0.165508
30
0.0
11
1.373056
21
0.168416
31
0.0
0
LINE
8
TOP
10
1.373056
20
0.168416
30
0.0
11
1.372622
21
0.171294
31
0.0
0
LINE
8
TOP
10
1.372622
20
0.171294
30
0.0
11
1.371904
21
0.174115
31
0.0
0
LINE
8
TOP
10
1.371904
20
0.174115
30
0.0
11
1.370908
21
0.176851
31
0.0
0
LINE
8
TOP
10
1.370908
20
0.176851
30
0.0
11
1.369645
21
0.179473
31
0.0
0
LINE
8
TOP
10
1.369645
20
0.179473
30
0.0
11
1.368127
21
0.181957
31
0.0
0
LINE
8
TOP
10
1.368127
20
0.181957
30
0.0
11
1.366369
21
0.184278
31
0.0
0
LINE
8
TOP
10
1.366369
20
0.184278
30
0.0
11
1.364389
21
0.186412
31
0.0
0
LINE
8
TOP
10
1.364389
20
0.186412
30
0.0
11
1.362207
21
0.188338
31
0.0
0
LINE
8
TOP
10
1.362207
20
0.188338
30
0.0
11
1.359843
21
0.190037
31
0.0
0
LINE
8
TOP
10
1.359843
20
0.190037
30
0.0
11
1.357322
21
0.191493
31
0.0
0
LINE
8
TOP
10
1.357322
20
0.191493
30
0.0
11
1.354668
21
0.192690
31
0.0
0
LINE
8
TOP
10
1.354668
20
0.192690
30
0.0
11
1.351909
21
0.193617
31
0.0
0
LINE
8
TOP
10
1.351909
20
0.193617
30
0.0
11
1.349071
21
0.194265
31
0.0
0
LINE
8
TOP
10
1.349071
20
0.194265
30
0.0
11
1.346182
21
0.194627
31
0.0
0
LINE
8
TOP
10
1.346182
20
0.194627
30
0.0
11
1.343272
21
0.194700
31
0.0
0
LINE
8
TOP
10
1.343272
20
0.194700
30
0.0
11
1.340369
21
0.194482
31
0.0
0
LINE
8
TOP
10
1.340369
20
0.194482
30
0.0
11
1.337503
21
0.193977
31
0.0
0
LINE
8
TOP
10
1.337503
20
0.193977
30
0.0
11
1.334700
21
0.193188
31
0.0
0
LINE
8
TOP
10
1.334700
20
0.193188
30
0.0
11
1.331990
21
0.192125
31
0.0
0
LINE
8
TOP
10
1.331990
20
0.192125
30
0.0
11
1.329400
21
0.190797
31
0.0
0
LINE
8
TOP
10
1.329400
20
0.190797
30
0.0
11
1.326955
21
0.189217
31
0.0
0
LINE
8
TOP
10
1.326955
20
0.189217
30
0.0
11
1.324679
21
0.187402
31
0.0
0
LINE
8
TOP
10
1.324679
20
0.187402
30
0.0
11
1.322595
21
0.185370
31
0.0
0
LINE
8
TOP
10
1.322595
20
0.185370
30
0.0
11
1.320724
21
0.183140
31
0.0
0
LINE
8
TOP
10
1.320724
20
0.183140
30
0.0
11
1.319084
21
0.180734
31
0.0
0
LINE
8
TOP
10
1.319084
20
0.180734
30
0.0
11
1.317692
21
0.178178
31
0.0
0
LINE
8
TOP
10
1.317692
20
0.178178
30
0.0
11
1.316561
21
0.175495
31
0.0
0
LINE
8
TOP
10
1.316561
20
0.175495
30
0.0
11
1.315703
21
0.172714
31
0.0
0
LINE
8
TOP
10
1.315703
20
0.172714
30
0.0
11
1.315126
21
0.169860
31
0.0
0
LINE
8
TOP
10
1.315126
20
0.169860
30
0.0
11
1.314836
21
0.166964
31
0.0
0
LINE
8
TOP
10
1.314836
20
0.166964
30
0.0
11
1.314836
21
0.164053
31
0.0
0
LINE
8
TOP
10
1.314836
20
0.164053
30
0.0
11
1.315126
21
0.161156
31
0.0
0
LINE
8
TOP
10
1.315126
20
0.161156
30
0.0
11
1.315703
21
0.158303
31
0.0
0
LINE
8
TOP
10
1.315703
20
0.158303
30
0.0
11
1.316561
21
0.155521
31
0.0
0
LINE
8
TOP
10
1.316561
20
0.155521
30
0.0
11
1.317692
21
0.152838
31
0.0
0
LINE
8
TOP
10
1.317692
20
0.152838
30
0.0
11
1.319084
21
0.150282
31
0.0
0
LINE
8
TOP
10
1.319084
20
0.150282
30
0.0
11
1.320724
21
0.147877
31
0.0
0
LINE
8
TOP
10
1.320724
20
0.147877
30
0.0
11
1.322595
21
0.145647
31
0.0
0
LINE
8
TOP
10
1.322595
20
0.145647
30
0.0
11
1.324679
21
0.143614
31
0.0
0
LINE
8
TOP
10
1.324679
20
0.143614
30
0.0
11
1.326955
21
0.141799
31
0.0
0
LINE
8
TOP
10
1.326955
20
0.141799
30
0.0
11
1.329400
21
0.140220
31
0.0
0
LINE
8
TOP
10
1.329400
20
0.140220
30
0.0
11
1.331990
21
0.138892
31
0.0
0
LINE
8
TOP
10
1.331990
20
0.138892
30
0.0
11
1.334700
21
0.137828
31
0.0
0
LINE
8
TOP
10
1.334700
20
0.137828
30
0.0
11
1.337503
21
0.137040
31
0.0
0
LINE
8
TOP
10
1.337503
20
0.137040
30
0.0
11
1.340369
21
0.136534
31
0.0
0
LINE
8
TOP
10
1.340369
20
0.136534
30
0.0
11
1.343272
21
0.136317
31
0.0
0
LINE
8
TOP
10
1.343272
20
0.136317
30
0.0
11
1.346182
21
0.136389
31
0.0
0
LINE
8
TOP
10
1.346182
20
0.136389
30
0.0
11
1.349071
21
0.136751
31
0.0
0
LINE
8
TOP
10
1.349071
20
0.136751
30
0.0
11
1.351909
21
0.137399
31
0.0
0
LINE
8
TOP
10
1.351909
20
0.137399
30
0.0
11
1.354668
21
0.138326
31
0.0
0
LINE
8
TOP
10
1.354668
20
0.138326
30
0.0
11
1.357322
21
0.139523
31
0.0
0
LINE
8
TOP
10
1.357322
20
0.139523
30
0.0
11
1.359843
21
0.140979
31
0.0
0
LINE
8
TOP
10
1.359843
20
0.140979
30
0.0
11
1.362207
21
0.142678
31
0.0
0
LINE
8
TOP
10
1.362207
20
0.142678
30
0.0
11
1.364389
21
0.144604
31
0.0
0
LINE
8
TOP
10
1.364389
20
0.144604
30
0.0
11
1.366369
21
0.146738
31
0.0
0
LINE
8
TOP
10
1.366369
20
0.146738
30
0.0
11
1.368127
21
0.149059
31
0.0
0
LINE
8
TOP
10
1.368127
20
0.149059
30
0.0
11
1.369645
21
0.151543
31
0.0
0
LINE
8
TOP
10
1.369645
20
0.151543
30
0.0
11
1.370908
21
0.154166
31
0.0
0
LINE
8
TOP
10
1.370908
20
0.154166
30
0.0
11
1.371904
21
0.156901
31
0.0
0
LINE
8
TOP
10
1.371904
20
0.156901
30
0.0
11
1.372622
21
0.159722
31
0.0
0
LINE
8
TOP
10
1.372622
20
0.159722
30
0.0
11
1.373056
21
0.162601
31
0.0
0
LINE
8
TOP
10
1.373056
20
0.162601
30
0.0
11
1.373201
21
0.165508
31
0.0
0
LINE
8
TOP
10
1.373201
20
0.573009
30
0.0
11
1.373056
21
0.575916
31
0.0
0
LINE
8
TOP
10
1.373056
20
0.575916
30
0.0
11
1.372622
21
0.578795
31
0.0
0
LINE
8
TOP
10
1.372622
20
0.578795
30
0.0
11
1.371904
21
0.581616
31
0.0
0
LINE
8
TOP
10
1.371904
20
0.581616
30
0.0
11
1.370908
21
0.584351
31
0.0
0
LINE
8
TOP
10
1.370908
20
0.584351
30
0.0
11
1.369645
21
0.586974
31
0.0
0
LINE
8
TOP
10
1.369645
20
0.586974
30
0.0
11
1.368127
21
0.589458
31
0.0
0
LINE
8
TOP
10
1.368127
20
0.589458
30
0.0
11
1.366369
21
0.591779
31
0.0
0
LINE
8
TOP
10
1.366369
20
0.591779
30
0.0
11
1.364389
21
0.593913
31
0.0
0
LINE
8
TOP
10
1.364389
20
0.593913
30
0.0
11
1.362207
21
0.595839
31
0.0
0
LINE
8
TOP
10
1.362207
20
0.595839
30
0.0
11
1.359843
21
0.597538
31
0.0
0
LINE
8
TOP
10
1.359843
20
0.597538
30
0.0
11
1.357322
21
0.598994
31
0.0
0
LINE
8
TOP
10
1.357322
20
0.598994
30
0.0
11
1.354668
21
0.600191
31
0.0
0
LINE
8
TOP
10
1.354668
20
0.600191
30
0.0
11
1.351909
21
0.601118
31
0.0
0
LINE
8
TOP
10
1.351909
20
0.601118
30
0.0
11
1.349071
21
0.601766
31
0.0
0
LINE
8
TOP
10
1.349071
20
0.601766
30
0.0
11
1.346182
21
0.602128
31
0.0
0
LINE
8
TOP
10
1.346182
20
0.602128
30
0.0
11
1.343272
21
0.602200
31
0.0
0
LINE
8
TOP
10
1.343272
20
0.602200
30
0.0
11
1.340369
21
0.601983
31
0.0
0
LINE
8
TOP
10
1.340369
20
0.601983
30
0.0
11
1.337503
21
0.601477
31
0.0
0
LINE
8
TOP
10
1.337503
20
0.601477
30
0.0
11
1.334700
21
0.600689
31
0.0
0
LINE
8
TOP
10
1.334700
20
0.600689
30
0.0
11
1.331990
21
0.599625
31
0.0
0
LINE
8
TOP
10
1.331990
20
0.599625
30
0.0
11
1.329400
21
0.598297
31
0.0
0
LINE
8
TOP
10
1.329400
20
0.598297
30
0.0
11
1.326955
21
0.596718
31
0.0
0
LINE
8
TOP
10
1.326955
20
0.596718
30
0.0
11
1.324679
21
0.594903
31
0.0
0
LINE
8
TOP
10
1.324679
20
0.594903
30
0.0
11
1.322595
21
0.592870
31
0.0
0
LINE
8
TOP
10
1.322595
20
0.592870
30
0.0
11
1.320724
21
0.590640
31
0.0
0
LINE
8
TOP
10
1.320724
20
0.590640
30
0.0
11
1.319084
21
0.588235
31
0.0
0
LINE
8
TOP
10
1.319084
20
0.588235
30
0.0
11
1.317692
21
0.585679
31
0.0
0
LINE
8
TOP
10
1.317692
20
0.585679
30
0.0
11
1.316561
21
0.582996
31
0.0
0
LINE
8
TOP
10
1.316561
20
0.582996
30
0.0
11
1.315703
21
0.580214
31
0.0
0
LINE
8
TOP
10
1.315703
20
0.580214
30
0.0
11
1.315126
21
0.577361
31
0.0
0
LINE
8
TOP
10
1.315126
20
0.577361
30
0.0
11
1.314836
21
0.574464
31
0.0
0
LINE
8
TOP
10
1.314836
20
0.574464
30
0.0
11
1.314836
21
0.571553
31
0.0
0
LINE
8
TOP
10
1.314836
20
0.571553
30
0.0
11
1.315126
21
0.568657
31
0.0
0
LINE
8
TOP
10
1.315126
20
0.568657
30
0.0
11
1.315703
21
0.565803
31
0.0
0
LINE
8
TOP
10
1.315703
20
0.565803
30
0.0
11
1.316561
21
0.563022
31
0.0
0
LINE
8
TOP
10
1.316561
20
0.563022
30
0.0
11
1.317692
21
0.560339
31
0.0
0
LINE
8
TOP
10
1.317692
20
0.560339
30
0.0
11
1.319084
21
0.557783
31
0.0
0
LINE
8
TOP
10
1.319084
20
0.557783
30
0.0
11
1.320724
21
0.555377
31
0.0
0
LINE
8
TOP
10
1.320724
20
0.555377
30
0.0
11
1.322595
21
0.553147
31
0.0
0
LINE
8
TOP
10
1.322595
20
0.553147
30
0.0
11
1.324679
21
0.551115
31
0.0
0
LINE
8
TOP
10
1.324679
20
0.551115
30
0.0
11
1.326955
21
0.549300
31
0.0
0
LINE
8
TOP
10
1.326955
20
0.549300
30
0.0
11
1.329400
21
0.547720
31
0.0
0
LINE
8
TOP
10
1.329400
20
0.547720
30
0.0
11
1.331990
21
0.546392
31
0.0
0
LINE
8
TOP
10
1.331990
20
0.546392
30
0.0
11
1.334700
21
0.545329
31
0.0
0
LINE
8
TOP
10
1.334700
20
0.545329
30
0.0
11
1.337503
21
0.544540
31
0.0
0
LINE
8
TOP
10
1.337503
20
0.544540
30
0.0
11
1.340369
21
0.544035
31
0.0
0
LINE
8
TOP
10
1.340369
20
0.544035
30
0.0
11
1.343272
21
0.543817
31
0.0
0
LINE
8
TOP
10
1.343272
20
0.543817
30
0.0
11
1.346182
21
0.543890
31
0.0
0
LINE
8
TOP
10
1.346182
20
0.543890
30
0.0
11
1.349071
21
0.544252
31
0.0
0
LINE
8
TOP
10
1.349071
20
0.544252
30
0.0
11
1.351909
21
0.544900
31
0.0
0
LINE
8
TOP
10
1.351909
20
0.544900
30
0.0
11
1.354668
21
0.545827
31
0.0
0
LINE
8
TOP
10
1.354668
20
0.545827
30
0.0
11
1.357322
21
0.547024
31
0.0
0
LINE
8
TOP
10
1.357322
20
0.547024
30
0.0
11
1.359843
21
0.548480
31
0.0
0
LINE
8
TOP
10
1.359843
20
0.548480
30
0.0
11
1.362207
21
0.550179
31
0.0
0
LINE
8
TOP
10
1.362207
20
0.550179
30
0.0
11
1.364389
21
0.552105
31
0.0
0
LINE
8
TOP
10
1.364389
20
0.552105
30
0.0
11
1.366369
21
0.554239
31
0.0
0
LINE
8
TOP
10
1.366369
20
0.554239
30
0.0
11
1.368127
21
0.556560
31
0.0
0
LINE
8
TOP
10
1.368127
20
0.556560
30
0.0
11
1.369645
21
0.559044
31
0.0
0
LINE
8
TOP
10
1.369645
20
0.559044
30
0.0
11
1.370908
21
0.561666
31
0.0
0
LINE
8
TOP
10
1.370908
20
0.561666
30
0.0
11
1.371904
21
0.564402
31
0.0
0
LINE
8
TOP
10
1.371904
20
0.564402
30
0.0
11
1.372622
21
0.567223
31
0.0
0
LINE
8
TOP
10
1.372622
20
0.567223
30
0.0
11
1.373056
21
0.570101
31
0.0
0
LINE
8
TOP
10
1.373056
20
0.570101
30
0.0
11
1.373201
21
0.573009
31
0.0
0
LINE
8
TOP
10
1.422529
20
0.369258
30
0.0
11
1.422384
21
0.372166
31
0.0
0
LINE
8
TOP
10
1.422384
20
0.372166
30
0.0
11
1.421950
21
0.375044
31
0.0
0
LINE
8
TOP
10
1.421950
20
0.375044
30
0.0
11
1.421232
21
0.377865
31
0.0
0
LINE
8
TOP
10
1.421232
20
0.377865
30
0.0
11
1.420236
21
0.380601
31
0.0
0
LINE
8
TOP
10
1.420236
20
0.380601
30
0.0
11
1.418973
21
0.383224
31
0.0
0
LINE
8
TOP
10
1.418973
20
0.383224
30
0.0
11
1.417455
21
0.385708
31
0.0
0
LINE
8
TOP
10
1.417455
20
0.385708
30
0.0
11
1.415698
21
0.388028
31
0.0
0
LINE
8
TOP
10
1.415698
20
0.388028
30
0.0
11
1.413718
21
0.390162
31
0.0
0
LINE
8
TOP
10
1.413718
20
0.390162
30
0.0
11
1.411535
21
0.392088
31
0.0
0
LINE
8
TOP
10
1.411535
20
0.392088
30
0.0
11
1.409171
21
0.393788
31
0.0
0
LINE
8
TOP
10
1.409171
20
0.393788
30
0.0
11
1.406650
21
0.395243
31
0.0
0
LINE
8
TOP
10
1.406650
20
0.395243
30
0.0
11
1.403997
21
0.396441
31
0.0
0
LINE
8
TOP
10
1.403997
20
0.396441
30
0.0
11
1.401237
21
0.397368
31
0.0
0
LINE
8
TOP
10
1.401237
20
0.397368
30
0.0
11
1.398399
21
0.398015
31
0.0
0
LINE
8
TOP
10
1.398399
20
0.398015
30
0.0
11
1.395511
21
0.398377
31
0.0
0
LINE
8
TOP
10
1.395511
20
0.398377
30
0.0
11
1.392601
21
0.398450
31
0.0
0
LINE
8
TOP
10
1.392601
20
0.398450
30
0.0
11
1.389698
21
0.398232
31
0.0
0
LINE
8
TOP
10
1.389698
20
0.398232
30
0.0
11
1.386831
21
0.397727
31
0.0
0
LINE
8
TOP
10
1.386831
20
0.397727
30
0.0
11
1.384029
21
0.396938
31
0.0
0
LINE
8
TOP
10
1.384029
20
0.396938
30
0.0
11
1.381319
21
0.395875
31
0.0
0
LINE
8
TOP
10
1.381319
20
0.395875
30
0.0
11
1.378728
21
0.394547
31
0.0
0
LINE
8
TOP
10
1.378728
20
0.394547
30
0.0
11
1.376283
21
0.392968
31
0.0
0
LINE
8
TOP
10
1.376283
20
0.392968
30
0.0
11
1.374007
21
0.391152
31
0.0
0
LINE
8
TOP
10
1.374007
20
0.391152
30
0.0
11
1.371923
21
0.389120
31
0.0
0
LINE
8
TOP
10
1.371923
20
0.389120
30
0.0
11
1.370052
21
0.386890
31
0.0
0
LINE
8
TOP
10
1.370052
20
0.386890
30
0.0
11
1.368412
21
0.384485
31
0.0
0
LINE
8
TOP
10
1.368412
20
0.384485
30
0.0
11
1.367020
21
0.381928
31
0.0
0
LINE
8
TOP
10
1.367020
20
0.381928
30
0.0
11
1.365889
21
0.379246
31
0.0
0
LINE
8
TOP
10
1.365889
20
0.379246
30
0.0
11
1.365031
21
0.376464
31
0.0
0
LINE
8
TOP
10
1.365031
20
0.376464
30
0.0
11
1.364454
21
0.373611
31
0.0
0
LINE
8
TOP
10
1.364454
20
0.373611
30
0.0
11
1.364164
21
0.370714
31
0.0
0
LINE
8
TOP
10
1.364164
20
0.370714
30
0.0
11
1.364164
21
0.367803
31
0.0
0
LINE
8
TOP
10
1.364164
20
0.367803
30
0.0
11
1.364454
21
0.364906
31
0.0
0
LINE
8
TOP
10
1.364454
20
0.364906
30
0.0
11
1.365031
21
0.362053
31
0.0
0
LINE
8
TOP
10
1.365031
20
0.362053
30
0.0
11
1.365889
21
0.359271
31
0.0
0
LINE
8
TOP
10
1.365889
20
0.359271
30
0.0
11
1.367020
21
0.356589
31
0.0
0
LINE
8
TOP
10
1.367020
20
0.356589
30
0.0
11
1.368412
21
0.354032
31
0.0
0
LINE
8
TOP
10
1.368412
20
0.354032
30
0.0
11
1.370052
21
0.351627
31
0.0
0
LINE
8
TOP
10
1.370052
20
0.351627
30
0.0
11
1.371923
21
0.349397
31
0.0
0
LINE
8
TOP
10
1.371923
20
0.349397
30
0.0
11
1.374007
21
0.347364
31
0.0
0
LINE
8
TOP
10
1.374007
20
0.347364
30
0.0
11
1.376283
21
0.345549
31
0.0
0
LINE
8
TOP
10
1.376283
20
0.345549
30
0.0
11
1.378728
21
0.343970
31
0.0
0
LINE
8
TOP
10
1.378728
20
0.343970
30
0.0
11
1.381319
21
0.342642
31
0.0
0
LINE
8
TOP
10
1.381319
20
0.342642
30
0.0
11
1.384029
21
0.341578
31
0.0
0
LINE
8
TOP
10
1.384029
20
0.341578
30
0.0
11
1.386831
21
0.340790
31
0.0
0
LINE
8
TOP
10
1.386831
20
0.340790
30
0.0
11
1.389698
21
0.340285
31
0.0
0
LINE
8
TOP
10
1.389698
20
0.340285
30
0.0
11
1.392601
21
0.340067
31
0.0
0
LINE
8
TOP
10
1.392601
20
0.340067
30
0.0
11
1.395511
21
0.340140
31
0.0
0
LINE
8
TOP
10
1.395511
20
0.340140
30
0.0
11
1.398399
21
0.340502
31
0.0
0
LINE
8
TOP
10
1.398399
20
0.340502
30
0.0
11
1.401237
21
0.341149
31
0.0
0
LINE
8
TOP
10
1.401237
20
0.341149
30
0.0
11
1.403997
21
0.342076
31
0.0
0
LINE
8
TOP
10
1.403997
20
0.342076
30
0.0
11
1.406650
21
0.343274
31
0.0
0
LINE
8
TOP
10
1.406650
20
0.343274
30
0.0
11
1.409171
21
0.344729
31
0.0
0
LINE
8
TOP
10
1.409171
20
0.344729
30
0.0
11
1.411535
21
0.346429
31
0.0
0
LINE
8
TOP
10
1.411535
20
0.346429
30
0.0
11
1.413718
21
0.348355
31
0.0
0
LINE
8
TOP
10
1.413718
20
0.348355
30
0.0
11
1.415698
21
0.350489
31
0.0
0
LINE
8
TOP
10
1.415698
20
0.350489
30
0.0
11
1.417455
21
0.352809
31
0.0
0
LINE
8
TOP
10
1.417455
20
0.352809
30
0.0
11
1.418973
21
0.355293
31
0.0
0
LINE
8
TOP
10
1.418973
20
0.355293
30
0.0
11
1.420236
21
0.357916
31
0.0
0
LINE
8
TOP
10
1.420236
20
0.357916
30
0.0
11
1.421232
21
0.360651
31
0.0
0
LINE
8
TOP
10
1.421232
20
0.360651
30
0.0
11
1.421950
21
0.363472
31
0.0
0
LINE
8
TOP
10
1.421950
20
0.363472
30
0.0
11
1.422384
21
0.366351
31
0.0
0
LINE
8
TOP
10
1.422384
20
0.366351
30
0.0
11
1.422529
21
0.369258
31
0.0
0
ENDSEC
0
EOF
