0
SECTION
2
HEADER
9
$ACADVER
1
AC1009
0
ENDSEC
0
SECTION
2
TABLES
0
TABLE
2
LTYPE
70
3
0
LTYPE
2
CONTINUOUS
70
0
3
Solid line
72
65
73
0
40
0.0
0
LTYPE
2
HIDDEN
70
0
3
__ __ __ __ __
72
65
73
2
40
0.075000
49
0.050025
49
-0.024975
0
LTYPE
2
CENTER
70
0
3
___ _ ___ _ ___
72
65
73
4
40
0.174975
49
0.099975
49
-0.024975
49
0.024975
49
-0.024975
0
ENDTAB
0
TABLE
2
LAYER
70
6
0
LAYER
2
0
70
0
62
7
6
CONTINUOUS
0
LAYER
2
FRONT
70
0
62
7
6
CONTINUOUS
0
LAYER
2
FRONT_HID
70
0
62
7
6
HIDDEN
0
LAYER
2
LEFT
70
0
62
7
6
CONTINUOUS
0
LAYER
2
LEFT_HID
70
0
62
7
6
HIDDEN
0
LAYER
2
TOP
70
0
62
7
6
CONTINUOUS
0
ENDTAB
0
ENDSEC
0
SECTION
2
ENTITIES
0
LINE
8
FRONT
10
1.500000
20
1.799534
30
0.0
11
0.000000
21
1.799534
31
0.0
0
LINE
8
FRONT
10
1.500000
20
1.799534
30
0.0
11
1.500000
21
1.846409
31
0.0
0
LINE
8
FRONT
10
1.500000
20
1.846409
30
0.0
11
0.000000
21
1.846409
31
0.0
0
LINE
8
FRONT
10
0.834375
20
1.846409
30
0.0
11
0.834375
21
2.221409
31
0.0
0
LINE
8
FRONT
10
0.834375
20
2.221409
30
0.0
11
0.665625
21
2.221409
31
0.0
0
LINE
8
FRONT
10
0.000000
20
1.846409
30
0.0
11
0.000000
21
1.799534
31
0.0
0
LINE
8
FRONT
10
0.665625
20
2.221409
30
0.0
11
0.665625
21
1.846409
31
0.0
0
LINE
8
FRONT_HID
6
HIDDEN
10
0.834375
20
1.846409
30
0.0
11
0.665625
21
1.846409
31
0.0
0
LINE
8
FRONT_HID
6
HIDDEN
10
0.665625
20
1.846409
30
0.0
11
0.834375
21
1.846409
31
0.0
0
LINE
8
LEFT
10
1.800000
20
1.799534
30
0.0
11
3.300000
21
1.799534
31
0.0
0
LINE
8
LEFT
10
1.800000
20
1.846409
30
0.0
11
3.300000
21
1.846409
31
0.0
0
LINE
8
LEFT
10
2.465625
20
2.221409
30
0.0
11
2.634375
21
2.221409
31
0.0
0
LINE
8
LEFT
10
1.800000
20
1.846409
30
0.0
11
1.800000
21
1.799534
31
0.0
0
LINE
8
LEFT
10
3.300000
20
1.846409
30
0.0
11
3.300000
21
1.799534
31
0.0
0
LINE
8
LEFT
10
2.465625
20
2.221409
30
0.0
11
2.465625
21
1.846409
31
0.0
0
LINE
8
LEFT
10
2.634375
20
2.221409
30
0.0
11
2.634375
21
1.846409
31
0.0
0
LINE
8
LEFT_HID
6
HIDDEN
10
2.550000
20
1.799534
30
0.0
11
1.800000
21
1.799534
31
0.0
0
LINE
8
LEFT_HID
6
HIDDEN
10
3.300000
20
1.799534
30
0.0
11
2.550000
21
1.799534
31
0.0
0
LINE
8
LEFT_HID
6
HIDDEN
10
2.550000
20
1.846409
30
0.0
11
1.800000
21
1.846409
31
0.0
0
LINE
8
LEFT_HID
6
HIDDEN
10
3.300000
20
1.846409
30
0.0
11
2.550000
21
1.846409
31
0.0
0
LINE
8
LEFT_HID
6
HIDDEN
10
2.550000
20
1.846409
30
0.0
11
2.465625
21
1.846409
31
0.0
0
LINE
8
LEFT_HID
6
HIDDEN
10
2.465625
20
1.846409
30
0.0
11
2.634375
21
1.846409
31
0.0
0
LINE
8
LEFT_HID
6
HIDDEN
10
2.634375
20
1.846409
30
0.0
11
2.550000
21
1.846409
31
0.0
0
LINE
8
LEFT_HID
6
HIDDEN
10
2.550000
20
2.221409
30
0.0
11
2.465625
21
2.221409
31
0.0
0
LINE
8
LEFT_HID
6
HIDDEN
10
2.634375
20
2.221409
30
0.0
11
2.550000
21
2.221409
31
0.0
0
LINE
8
TOP
10
1.499068
20
0.749767
30
0.0
11
1.495341
21
0.824443
31
0.0
0
LINE
8
TOP
10
1.495341
20
0.824443
30
0.0
11
1.484197
21
0.898376
31
0.0
0
LINE
8
TOP
10
1.484197
20
0.898376
30
0.0
11
1.465747
21
0.970833
31
0.0
0
LINE
8
TOP
10
1.465747
20
0.970833
30
0.0
11
1.440175
21
1.041093
31
0.0
0
LINE
8
TOP
10
1.440175
20
1.041093
30
0.0
11
1.407734
21
1.108457
31
0.0
0
LINE
8
TOP
10
1.407734
20
1.108457
30
0.0
11
1.368747
21
1.172257
31
0.0
0
LINE
8
TOP
10
1.368747
20
1.172257
30
0.0
11
1.323601
21
1.231858
31
0.0
0
LINE
8
TOP
10
1.323601
20
1.231858
30
0.0
11
1.272745
21
1.286667
31
0.0
0
LINE
8
TOP
10
1.272745
20
1.286667
30
0.0
11
1.216685
21
1.336140
31
0.0
0
LINE
8
TOP
10
1.216685
20
1.336140
30
0.0
11
1.155977
21
1.379786
31
0.0
0
LINE
8
TOP
10
1.155977
20
1.379786
30
0.0
11
1.091226
21
1.417171
31
0.0
0
LINE
8
TOP
10
1.091226
20
1.417171
30
0.0
11
1.023073
21
1.447922
31
0.0
0
LINE
8
TOP
10
1.023073
20
1.447922
30
0.0
11
0.952198
21
1.471735
31
0.0
0
LINE
8
TOP
10
0.952198
20
1.471735
30
0.0
11
0.879304
21
1.488373
31
0.0
0
LINE
8
TOP
10
0.879304
20
1.488373
30
0.0
11
0.805115
21
1.497670
31
0.0
0
LINE
8
TOP
10
0.805115
20
1.497670
30
0.0
11
0.730370
21
1.499534
31
0.0
0
LINE
8
TOP
10
0.730370
20
1.499534
30
0.0
11
0.655810
21
1.493946
31
0.0
0
LINE
8
TOP
10
0.655810
20
1.493946
30
0.0
11
0.582177
21
1.480963
31
0.0
0
LINE
8
TOP
10
0.582177
20
1.480963
30
0.0
11
0.510203
21
1.460712
31
0.0
0
LINE
8
TOP
10
0.510203
20
1.460712
30
0.0
11
0.440602
21
1.433396
31
0.0
0
LINE
8
TOP
10
0.440602
20
1.433396
30
0.0
11
0.374068
21
1.399286
31
0.0
0
LINE
8
TOP
10
0.374068
20
1.399286
30
0.0
11
0.311260
21
1.358720
31
0.0
0
LINE
8
TOP
10
0.311260
20
1.358720
30
0.0
11
0.252803
21
1.312103
31
0.0
0
LINE
8
TOP
10
0.252803
20
1.312103
30
0.0
11
0.199279
21
1.259896
31
0.0
0
LINE
8
TOP
10
0.199279
20
1.259896
30
0.0
11
0.151218
21
1.202620
31
0.0
0
LINE
8
TOP
10
0.151218
20
1.202620
30
0.0
11
0.109100
21
1.140843
31
0.0
0
LINE
8
TOP
10
0.109100
20
1.140843
30
0.0
11
0.073341
21
1.075180
31
0.0
0
LINE
8
TOP
10
0.073341
20
1.075180
30
0.0
11
0.044298
21
1.006282
31
0.0
0
LINE
8
TOP
10
0.044298
20
1.006282
30
0.0
11
0.022260
21
0.934835
31
0.0
0
LINE
8
TOP
10
0.022260
20
0.934835
30
0.0
11
0.007445
21
0.861549
31
0.0
0
LINE
8
TOP
10
0.007445
20
0.861549
30
0.0
11
0.000000
21
0.787151
31
0.0
0
LINE
8
TOP
10
0.000000
20
0.787151
30
0.0
11
0.000000
21
0.712382
31
0.0
0
LINE
8
TOP
10
0.000000
20
0.712382
30
0.0
11
0.007445
21
0.637985
31
0.0
0
LINE
8
TOP
10
0.007445
20
0.637985
30
0.0
11
0.022260
21
0.564699
31
0.0
0
LINE
8
TOP
10
0.022260
20
0.564699
30
0.0
11
0.044298
21
0.493252
31
0.0
0
LINE
8
TOP
10
0.044298
20
0.493252
30
0.0
11
0.073341
21
0.424354
31
0.0
0
LINE
8
TOP
10
0.073341
20
0.424354
30
0.0
11
0.109100
21
0.358690
31
0.0
0
LINE
8
TOP
10
0.109100
20
0.358690
30
0.0
11
0.151218
21
0.296914
31
0.0
0
LINE
8
TOP
10
0.151218
20
0.296914
30
0.0
11
0.199279
21
0.239637
31
0.0
0
LINE
8
TOP
10
0.199279
20
0.239637
30
0.0
11
0.252803
21
0.187431
31
0.0
0
LINE
8
TOP
10
0.252803
20
0.187431
30
0.0
11
0.311260
21
0.140813
31
0.0
0
LINE
8
TOP
10
0.311260
20
0.140813
30
0.0
11
0.374068
21
0.100248
31
0.0
0
LINE
8
TOP
10
0.374068
20
0.100248
30
0.0
11
0.440602
21
0.066137
31
0.0
0
LINE
8
TOP
10
0.440602
20
0.066137
30
0.0
11
0.510203
21
0.038821
31
0.0
0
LINE
8
TOP
10
0.510203
20
0.038821
30
0.0
11
0.582177
21
0.018571
31
0.0
0
LINE
8
TOP
10
0.582177
20
0.018571
30
0.0
11
0.655810
21
0.005587
31
0.0
0
LINE
8
TOP
10
0.655810
20
0.005587
30
0.0
11
0.730370
21
0.000000
31
0.0
0
LINE
8
TOP
10
0.730370
20
0.000000
30
0.0
11
0.805115
21
0.001864
31
0.0
0
LINE
8
TOP
10
0.805115
20
0.001864
30
0.0
11
0.879304
21
0.011161
31
0.0
0
LINE
8
TOP
10
0.879304
20
0.011161
30
0.0
11
0.952198
21
0.027799
31
0.0
0
LINE
8
TOP
10
0.952198
20
0.027799
30
0.0
11
1.023073
21
0.051612
31
0.0
0
LINE
8
TOP
10
1.023073
20
0.051612
30
0.0
11
1.091226
21
0.082363
31
0.0
0
LINE
8
TOP
10
1.091226
20
0.082363
30
0.0
11
1.155977
21
0.119747
31
0.0
0
LINE
8
TOP
10
1.155977
20
0.119747
30
0.0
11
1.216685
21
0.163393
31
0.0
0
LINE
8
TOP
10
1.216685
20
0.163393
30
0.0
11
1.272745
21
0.212867
31
0.0
0
LINE
8
TOP
10
1.272745
20
0.212867
30
0.0
11
1.323601
21
0.267676
31
0.0
0
LINE
8
TOP
10
1.323601
20
0.267676
30
0.0
11
1.368747
21
0.327277
31
0.0
0
LINE
8
TOP
10
1.368747
20
0.327277
30
0.0
11
1.407734
21
0.391076
31
0.0
0
LINE
8
TOP
10
1.407734
20
0.391076
30
0.0
11
1.440175
21
0.458441
31
0.0
0
LINE
8
TOP
10
1.440175
20
0.458441
30
0.0
11
1.465747
21
0.528701
31
0.0
0
LINE
8
TOP
10
1.465747
20
0.528701
30
0.0
11
1.484197
21
0.601157
31
0.0
0
LINE
8
TOP
10
1.484197
20
0.601157
30
0.0
11
1.495341
21
0.675091
31
0.0
0
LINE
8
TOP
10
1.495341
20
0.675091
30
0.0
11
1.499068
21
0.749767
31
0.0
0
LINE
8
TOP
10
0.833443
20
0.749767
30
0.0
11
0.833023
21
0.758168
31
0.0
0
LINE
8
TOP
10
0.833023
20
0.758168
30
0.0
11
0.831770
21
0.766485
31
0.0
0
LINE
8
TOP
10
0.831770
20
0.766485
30
0.0
11
0.829694
21
0.774637
31
0.0
0
LINE
8
TOP
10
0.829694
20
0.774637
30
0.0
11
0.826817
21
0.782541
31
0.0
0
LINE
8
TOP
10
0.826817
20
0.782541
30
0.0
11
0.823168
21
0.790120
31
0.0
0
LINE
8
TOP
10
0.823168
20
0.790120
30
0.0
11
0.818782
21
0.797297
31
0.0
0
LINE
8
TOP
10
0.818782
20
0.797297
30
0.0
11
0.813703
21
0.804002
31
0.0
0
LINE
8
TOP
10
0.813703
20
0.804002
30
0.0
11
0.807981
21
0.810168
31
0.0
0
LINE
8
TOP
10
0.807981
20
0.810168
30
0.0
11
0.801675
21
0.815734
31
0.0
0
LINE
8
TOP
10
0.801675
20
0.815734
30
0.0
11
0.794845
21
0.820644
31
0.0
0
LINE
8
TOP
10
0.794845
20
0.820644
30
0.0
11
0.787560
21
0.824850
31
0.0
0
LINE
8
TOP
10
0.787560
20
0.824850
30
0.0
11
0.779893
21
0.828309
31
0.0
0
LINE
8
TOP
10
0.779893
20
0.828309
30
0.0
11
0.771920
21
0.830988
31
0.0
0
LINE
8
TOP
10
0.771920
20
0.830988
30
0.0
11
0.763719
21
0.832860
31
0.0
0
LINE
8
TOP
10
0.763719
20
0.832860
30
0.0
11
0.755373
21
0.833906
31
0.0
0
LINE
8
TOP
10
0.755373
20
0.833906
30
0.0
11
0.746964
21
0.834116
31
0.0
0
LINE
8
TOP
10
0.746964
20
0.834116
30
0.0
11
0.738576
21
0.833487
31
0.0
0
LINE
8
TOP
10
0.738576
20
0.833487
30
0.0
11
0.730292
21
0.832026
31
0.0
0
LINE
8
TOP
10
0.730292
20
0.832026
30
0.0
11
0.722195
21
0.829748
31
0.0
0
LINE
8
TOP
10
0.722195
20
0.829748
30
0.0
11
0.714365
21
0.826675
31
0.0
0
LINE
8
TOP
10
0.714365
20
0.826675
30
0.0
11
0.706880
21
0.822838
31
0.0
0
LINE
8
TOP
10
0.706880
20
0.822838
30
0.0
11
0.699814
21
0.818274
31
0.0
0
LINE
8
TOP
10
0.699814
20
0.818274
30
0.0
11
0.693238
21
0.813030
31
0.0
0
LINE
8
TOP
10
0.693238
20
0.813030
30
0.0
11
0.687216
21
0.807156
31
0.0
0
LINE
8
TOP
10
0.687216
20
0.807156
30
0.0
11
0.681810
21
0.800713
31
0.0
0
LINE
8
TOP
10
0.681810
20
0.800713
30
0.0
11
0.677071
21
0.793763
31
0.0
0
LINE
8
TOP
10
0.677071
20
0.793763
30
0.0
11
0.673048
21
0.786376
31
0.0
0
LINE
8
TOP
10
0.673048
20
0.786376
30
0.0
11
0.669781
21
0.778625
31
0.0
0
LINE
8
TOP
10
0.669781
20
0.778625
30
0.0
11
0.667302
21
0.770587
31
0.0
0
LINE
8
TOP
10
0.667302
20
0.770587
30
0.0
11
0.665635
21
0.762342
31
0.0
0
LINE
8
TOP
10
0.665635
20
0.762342
30
0.0
11
0.664798
21
0.753973
31
0.0
0
LINE
8
TOP
10
0.664798
20
0.753973
30
0.0
11
0.664798
21
0.745561
31
0.0
0
LINE
8
TOP
10
0.664798
20
0.745561
30
0.0
11
0.665635
21
0.737191
31
0.0
0
LINE
8
TOP
10
0.665635
20
0.737191
30
0.0
11
0.667302
21
0.728947
31
0.0
0
LINE
8
TOP
10
0.667302
20
0.728947
30
0.0
11
0.669781
21
0.720909
31
0.0
0
LINE
8
TOP
10
0.669781
20
0.720909
30
0.0
11
0.673048
21
0.713158
31
0.0
0
LINE
8
TOP
10
0.673048
20
0.713158
30
0.0
11
0.677071
21
0.705771
31
0.0
0
LINE
8
TOP
10
0.677071
20
0.705771
30
0.0
11
0.681810
21
0.698821
31
0.0
0
LINE
8
TOP
10
0.681810
20
0.698821
30
0.0
11
0.687216
21
0.692377
31
0.0
0
LINE
8
TOP
10
0.687216
20
0.692377
30
0.0
11
0.693238
21
0.686504
31
0.0
0
LINE
8
TOP
10
0.693238
20
0.686504
30
0.0
11
0.699814
21
0.681260
31
0.0
0
LINE
8
TOP
10
0.699814
20
0.681260
30
0.0
11
0.706880
21
0.676696
31
0.0
0
LINE
8
TOP
10
0.706880
20
0.676696
30
0.0
11
0.714365
21
0.672859
31
0.0
0
LINE
8
TOP
10
0.714365
20
0.672859
30
0.0
11
0.722195
21
0.669786
31
0.0
0
LINE
8
TOP
10
0.722195
20
0.669786
30
0.0
11
0.730292
21
0.667507
31
0.0
0
LINE
8
TOP
10
0.730292
20
0.667507
30
0.0
11
0.738576
21
0.666047
31
0.0
0
LINE
8
TOP
10
0.738576
20
0.666047
30
0.0
11
0.746964
21
0.665418
31
0.0
0
LINE
8
TOP
10
0.746964
20
0.665418
30
0.0
11
0.755373
21
0.665628
31
0.0
0
LINE
8
TOP
10
0.755373
20
0.665628
30
0.0
11
0.763719
21
0.666674
31
0.0
0
LINE
8
TOP
10
0.763719
20
0.666674
30
0.0
11
0.771920
21
0.668545
31
0.0
0
LINE
8
TOP
10
0.771920
20
0.668545
30
0.0
11
0.779893
21
0.671224
31
0.0
0
LINE
8
TOP
10
0.779893
20
0.671224
30
0.0
11
0.787560
21
0.674684
31
0.0
0
LINE
8
TOP
10
0.787560
20
0.674684
30
0.0
11
0.794845
21
0.678890
31
0.0
0
LINE
8
TOP
10
0.794845
20
0.678890
30
0.0
11
0.801675
21
0.683800
31
0.0
0
LINE
8
TOP
10
0.801675
20
0.683800
30
0.0
11
0.807981
21
0.689366
31
0.0
0
LINE
8
TOP
10
0.807981
20
0.689366
30
0.0
11
0.813703
21
0.695532
31
0.0
0
LINE
8
TOP
10
0.813703
20
0.695532
30
0.0
11
0.818782
21
0.702237
31
0.0
0
LINE
8
TOP
10
0.818782
20
0.702237
30
0.0
11
0.823168
21
0.709414
31
0.0
0
LINE
8
TOP
10
0.823168
20
0.709414
30
0.0
11
0.826817
21
0.716993
31
0.0
0
LINE
8
TOP
10
0.826817
20
0.716993
30
0.0
11
0.829694
21
0.724897
31
0.0
0
LINE
8
TOP
10
0.829694
20
0.724897
30
0.0
11
0.831770
21
0.733048
31
0.0
0
LINE
8
TOP
10
0.831770
20
0.733048
30
0.0
11
0.833023
21
0.741366
31
0.0
0
LINE
8
TOP
10
0.833023
20
0.741366
30
0.0
11
0.833443
21
0.749767
31
0.0
0
ENDSEC
0
EOF
