0
SECTION
2
HEADER
9
$ACADVER
1
AC1009
0
ENDSEC
0
SECTION
2
TABLES
0
TABLE
2
LTYPE
70
3
0
LTYPE
2
CONTINUOUS
70
0
3
Solid line
72
65
73
0
40
0.0
0
LTYPE
2
HIDDEN
70
0
3
__ __ __ __ __
72
65
73
2
40
0.037500
49
0.025013
49
-0.012488
0
LTYPE
2
CENTER
70
0
3
___ _ ___ _ ___
72
65
73
4
40
0.087488
49
0.049988
49
-0.012488
49
0.012488
49
-0.012488
0
ENDTAB
0
TABLE
2
LAYER
70
5
0
LAYER
2
0
70
0
62
7
6
CONTINUOUS
0
LAYER
2
FRONT
70
0
62
7
6
CONTINUOUS
0
LAYER
2
LEFT
70
0
62
7
6
CONTINUOUS
0
LAYER
2
TOP
70
0
62
7
6
CONTINUOUS
0
LAYER
2
TOP_HID
70
0
62
7
6
HIDDEN
0
ENDTAB
0
ENDSEC
0
SECTION
2
ENTITIES
0
LINE
8
FRONT
10
0.000000
20
0.384375
30
0.0
11
0.000000
21
0.618750
31
0.0
0
LINE
8
FRONT
10
0.000000
20
0.618750
30
0.0
11
0.750000
21
0.618750
31
0.0
0
LINE
8
FRONT
10
0.750000
20
0.384375
30
0.0
11
0.750000
21
0.618750
31
0.0
0
LINE
8
FRONT
10
0.750000
20
0.384375
30
0.0
11
0.000000
21
0.384375
31
0.0
0
LINE
8
LEFT
10
1.017151
20
0.618604
30
0.0
11
1.028819
21
0.618022
31
0.0
0
LINE
8
LEFT
10
1.028819
20
0.618022
30
0.0
11
1.040371
21
0.616281
31
0.0
0
LINE
8
LEFT
10
1.040371
20
0.616281
30
0.0
11
1.051693
21
0.613398
31
0.0
0
LINE
8
LEFT
10
1.051693
20
0.613398
30
0.0
11
1.062671
21
0.609402
31
0.0
0
LINE
8
LEFT
10
1.062671
20
0.609402
30
0.0
11
1.073196
21
0.604333
31
0.0
0
LINE
8
LEFT
10
1.073196
20
0.604333
30
0.0
11
1.083165
21
0.598242
31
0.0
0
LINE
8
LEFT
10
1.083165
20
0.598242
30
0.0
11
1.092478
21
0.591188
31
0.0
0
LINE
8
LEFT
10
1.092478
20
0.591188
30
0.0
11
1.101042
21
0.583241
31
0.0
0
LINE
8
LEFT
10
1.101042
20
0.583241
30
0.0
11
1.108772
21
0.574482
31
0.0
0
LINE
8
LEFT
10
1.108772
20
0.574482
30
0.0
11
1.115592
21
0.564996
31
0.0
0
LINE
8
LEFT
10
1.115592
20
0.564996
30
0.0
11
1.121433
21
0.554879
31
0.0
0
LINE
8
LEFT
10
1.121433
20
0.554879
30
0.0
11
1.126238
21
0.544230
31
0.0
0
LINE
8
LEFT
10
1.126238
20
0.544230
30
0.0
11
1.129959
21
0.533156
31
0.0
0
LINE
8
LEFT
10
1.129959
20
0.533156
30
0.0
11
1.132558
21
0.521766
31
0.0
0
LINE
8
LEFT
10
1.132558
20
0.521766
30
0.0
11
1.134011
21
0.510174
31
0.0
0
LINE
8
LEFT
10
1.134011
20
0.510174
30
0.0
11
1.134302
21
0.498495
31
0.0
0
LINE
8
LEFT
10
1.134302
20
0.498495
30
0.0
11
1.133429
21
0.486845
31
0.0
0
LINE
8
LEFT
10
1.133429
20
0.486845
30
0.0
11
1.131400
21
0.475340
31
0.0
0
LINE
8
LEFT
10
1.131400
20
0.475340
30
0.0
11
1.128236
21
0.464094
31
0.0
0
LINE
8
LEFT
10
1.128236
20
0.464094
30
0.0
11
1.123968
21
0.453219
31
0.0
0
LINE
8
LEFT
10
1.123968
20
0.453219
30
0.0
11
1.118638
21
0.442823
31
0.0
0
LINE
8
LEFT
10
1.118638
20
0.442823
30
0.0
11
1.112300
21
0.433009
31
0.0
0
LINE
8
LEFT
10
1.112300
20
0.433009
30
0.0
11
1.105016
21
0.423876
31
0.0
0
LINE
8
LEFT
10
1.105016
20
0.423876
30
0.0
11
1.096859
21
0.415512
31
0.0
0
LINE
8
LEFT
10
1.096859
20
0.415512
30
0.0
11
1.087909
21
0.408003
31
0.0
0
LINE
8
LEFT
10
1.087909
20
0.408003
30
0.0
11
1.078257
21
0.401422
31
0.0
0
LINE
8
LEFT
10
1.078257
20
0.401422
30
0.0
11
1.067997
21
0.395835
31
0.0
0
LINE
8
LEFT
10
1.067997
20
0.395835
30
0.0
11
1.057232
21
0.391297
31
0.0
0
LINE
8
LEFT
10
1.057232
20
0.391297
30
0.0
11
1.046068
21
0.387853
31
0.0
0
LINE
8
LEFT
10
1.046068
20
0.387853
30
0.0
11
1.034617
21
0.385538
31
0.0
0
LINE
8
LEFT
10
1.034617
20
0.385538
30
0.0
11
1.022992
21
0.384375
31
0.0
0
LINE
8
LEFT
10
1.022992
20
0.384375
30
0.0
11
1.011310
21
0.384375
31
0.0
0
LINE
8
LEFT
10
1.011310
20
0.384375
30
0.0
11
0.999685
21
0.385538
31
0.0
0
LINE
8
LEFT
10
0.999685
20
0.385538
30
0.0
11
0.988234
21
0.387853
31
0.0
0
LINE
8
LEFT
10
0.988234
20
0.387853
30
0.0
11
0.977071
21
0.391297
31
0.0
0
LINE
8
LEFT
10
0.977071
20
0.391297
30
0.0
11
0.966305
21
0.395835
31
0.0
0
LINE
8
LEFT
10
0.966305
20
0.395835
30
0.0
11
0.956045
21
0.401422
31
0.0
0
LINE
8
LEFT
10
0.956045
20
0.401422
30
0.0
11
0.946393
21
0.408003
31
0.0
0
LINE
8
LEFT
10
0.946393
20
0.408003
30
0.0
11
0.937443
21
0.415512
31
0.0
0
LINE
8
LEFT
10
0.937443
20
0.415512
30
0.0
11
0.929286
21
0.423876
31
0.0
0
LINE
8
LEFT
10
0.929286
20
0.423876
30
0.0
11
0.922002
21
0.433009
31
0.0
0
LINE
8
LEFT
10
0.922002
20
0.433009
30
0.0
11
0.915664
21
0.442823
31
0.0
0
LINE
8
LEFT
10
0.915664
20
0.442823
30
0.0
11
0.910334
21
0.453219
31
0.0
0
LINE
8
LEFT
10
0.910334
20
0.453219
30
0.0
11
0.906066
21
0.464094
31
0.0
0
LINE
8
LEFT
10
0.906066
20
0.464094
30
0.0
11
0.902902
21
0.475340
31
0.0
0
LINE
8
LEFT
10
0.902902
20
0.475340
30
0.0
11
0.900873
21
0.486845
31
0.0
0
LINE
8
LEFT
10
0.900873
20
0.486845
30
0.0
11
0.900000
21
0.498495
31
0.0
0
LINE
8
LEFT
10
0.900000
20
0.498495
30
0.0
11
0.900291
21
0.510174
31
0.0
0
LINE
8
LEFT
10
0.900291
20
0.510174
30
0.0
11
0.901744
21
0.521766
31
0.0
0
LINE
8
LEFT
10
0.901744
20
0.521766
30
0.0
11
0.904344
21
0.533156
31
0.0
0
LINE
8
LEFT
10
0.904344
20
0.533156
30
0.0
11
0.908064
21
0.544230
31
0.0
0
LINE
8
LEFT
10
0.908064
20
0.544230
30
0.0
11
0.912869
21
0.554879
31
0.0
0
LINE
8
LEFT
10
0.912869
20
0.554879
30
0.0
11
0.918711
21
0.564996
31
0.0
0
LINE
8
LEFT
10
0.918711
20
0.564996
30
0.0
11
0.925530
21
0.574482
31
0.0
0
LINE
8
LEFT
10
0.925530
20
0.574482
30
0.0
11
0.933260
21
0.583241
31
0.0
0
LINE
8
LEFT
10
0.933260
20
0.583241
30
0.0
11
0.941824
21
0.591188
31
0.0
0
LINE
8
LEFT
10
0.941824
20
0.591188
30
0.0
11
0.951137
21
0.598242
31
0.0
0
LINE
8
LEFT
10
0.951137
20
0.598242
30
0.0
11
0.961106
21
0.604333
31
0.0
0
LINE
8
LEFT
10
0.961106
20
0.604333
30
0.0
11
0.971631
21
0.609402
31
0.0
0
LINE
8
LEFT
10
0.971631
20
0.609402
30
0.0
11
0.982609
21
0.613398
31
0.0
0
LINE
8
LEFT
10
0.982609
20
0.613398
30
0.0
11
0.993931
21
0.616281
31
0.0
0
LINE
8
LEFT
10
0.993931
20
0.616281
30
0.0
11
1.005483
21
0.618022
31
0.0
0
LINE
8
LEFT
10
1.005483
20
0.618022
30
0.0
11
1.017151
21
0.618604
31
0.0
0
LINE
8
TOP
10
0.000000
20
0.117188
30
0.0
11
0.000000
21
0.000000
31
0.0
0
LINE
8
TOP
10
0.000000
20
0.234375
30
0.0
11
0.000000
21
0.117188
31
0.0
0
LINE
8
TOP
10
0.750000
20
0.117188
30
0.0
11
0.750000
21
0.000000
31
0.0
0
LINE
8
TOP
10
0.750000
20
0.234375
30
0.0
11
0.750000
21
0.117188
31
0.0
0
LINE
8
TOP
10
0.750000
20
0.234375
30
0.0
11
0.000000
21
0.234375
31
0.0
0
LINE
8
TOP
10
0.750000
20
0.000000
30
0.0
11
0.000000
21
0.000000
31
0.0
0
LINE
8
TOP_HID
6
HIDDEN
10
0.000000
20
0.000000
30
0.0
11
0.000000
21
0.234375
31
0.0
0
LINE
8
TOP_HID
6
HIDDEN
10
0.750000
20
0.000000
30
0.0
11
0.750000
21
0.234375
31
0.0
0
ENDSEC
0
EOF
