0
SECTION
2
HEADER
9
$ACADVER
1
AC1009
0
ENDSEC
0
SECTION
2
TABLES
0
TABLE
2
LTYPE
70
3
0
LTYPE
2
CONTINUOUS
70
0
3
Solid line
72
65
73
0
40
0.0
0
LTYPE
2
HIDDEN
70
0
3
__ __ __ __ __
72
65
73
2
40
0.075000
49
0.050025
49
-0.024975
0
LTYPE
2
CENTER
70
0
3
___ _ ___ _ ___
72
65
73
4
40
0.174975
49
0.099975
49
-0.024975
49
0.024975
49
-0.024975
0
ENDTAB
0
TABLE
2
LAYER
70
5
0
LAYER
2
0
70
0
62
7
6
CONTINUOUS
0
LAYER
2
FRONT
70
0
62
7
6
CONTINUOUS
0
LAYER
2
FRONT_HID
70
0
62
7
6
HIDDEN
0
LAYER
2
LEFT
70
0
62
7
6
CONTINUOUS
0
LAYER
2
TOP
70
0
62
7
6
CONTINUOUS
0
ENDTAB
0
ENDSEC
0
SECTION
2
ENTITIES
0
LINE
8
FRONT
10
0.914634
20
1.800000
30
0.0
11
0.914634
21
2.257317
31
0.0
0
LINE
8
FRONT
10
0.914634
20
1.800000
30
0.0
11
0.000000
21
1.800000
31
0.0
0
LINE
8
FRONT
10
0.914634
20
2.257317
30
0.0
11
0.000000
21
2.257317
31
0.0
0
LINE
8
FRONT
10
0.000000
20
1.800000
30
0.0
11
0.000000
21
2.257317
31
0.0
0
LINE
8
FRONT_HID
6
HIDDEN
10
0.567073
20
1.800000
30
0.0
11
0.567073
21
2.257317
31
0.0
0
LINE
8
FRONT_HID
6
HIDDEN
10
0.567073
20
1.800000
30
0.0
11
0.567073
21
2.257317
31
0.0
0
LINE
8
FRONT_HID
6
HIDDEN
10
0.914634
20
2.257317
30
0.0
11
0.567073
21
2.257317
31
0.0
0
LINE
8
FRONT_HID
6
HIDDEN
10
0.914634
20
1.800000
30
0.0
11
0.567073
21
1.800000
31
0.0
0
LINE
8
FRONT_HID
6
HIDDEN
10
0.567073
20
2.257317
30
0.0
11
0.914634
21
2.257317
31
0.0
0
LINE
8
FRONT_HID
6
HIDDEN
10
0.567073
20
1.800000
30
0.0
11
0.914634
21
1.800000
31
0.0
0
LINE
8
FRONT_HID
6
HIDDEN
10
0.567073
20
1.800000
30
0.0
11
0.347561
21
1.800000
31
0.0
0
LINE
8
FRONT_HID
6
HIDDEN
10
0.347561
20
1.800000
30
0.0
11
0.567073
21
1.800000
31
0.0
0
LINE
8
FRONT_HID
6
HIDDEN
10
0.567073
20
2.257317
30
0.0
11
0.347561
21
2.257317
31
0.0
0
LINE
8
FRONT_HID
6
HIDDEN
10
0.347561
20
2.257317
30
0.0
11
0.567073
21
2.257317
31
0.0
0
LINE
8
FRONT_HID
6
HIDDEN
10
0.347561
20
1.800000
30
0.0
11
0.000000
21
1.800000
31
0.0
0
LINE
8
FRONT_HID
6
HIDDEN
10
0.347561
20
2.257317
30
0.0
11
0.000000
21
2.257317
31
0.0
0
LINE
8
FRONT_HID
6
HIDDEN
10
0.000000
20
1.800000
30
0.0
11
0.347561
21
1.800000
31
0.0
0
LINE
8
FRONT_HID
6
HIDDEN
10
0.000000
20
2.257317
30
0.0
11
0.347561
21
2.257317
31
0.0
0
LINE
8
FRONT_HID
6
HIDDEN
10
0.347561
20
1.800000
30
0.0
11
0.347561
21
2.257317
31
0.0
0
LINE
8
FRONT_HID
6
HIDDEN
10
0.347561
20
1.800000
30
0.0
11
0.347561
21
2.257317
31
0.0
0
LINE
8
LEFT
10
1.397561
20
1.800000
30
0.0
11
2.531707
21
1.800000
31
0.0
0
LINE
8
LEFT
10
1.397561
20
2.257317
30
0.0
11
2.531707
21
2.257317
31
0.0
0
LINE
8
LEFT
10
2.531707
20
1.800000
30
0.0
11
2.714634
21
1.800000
31
0.0
0
LINE
8
LEFT
10
2.531707
20
2.257317
30
0.0
11
2.714634
21
2.257317
31
0.0
0
LINE
8
LEFT
10
1.214634
20
1.800000
30
0.0
11
1.397561
21
1.800000
31
0.0
0
LINE
8
LEFT
10
1.214634
20
2.257317
30
0.0
11
1.397561
21
2.257317
31
0.0
0
LINE
8
LEFT
10
2.714634
20
1.800000
30
0.0
11
2.714634
21
2.257317
31
0.0
0
LINE
8
LEFT
10
2.531707
20
1.800000
30
0.0
11
2.531707
21
2.257317
31
0.0
0
LINE
8
LEFT
10
1.214634
20
1.800000
30
0.0
11
1.214634
21
2.257317
31
0.0
0
LINE
8
LEFT
10
1.397561
20
1.800000
30
0.0
11
1.397561
21
2.257317
31
0.0
0
LINE
8
TOP
10
0.567073
20
0.182927
30
0.0
11
0.567073
21
1.317073
31
0.0
0
LINE
8
TOP
10
0.914634
20
0.182927
30
0.0
11
0.567073
21
0.182927
31
0.0
0
LINE
8
TOP
10
0.567073
20
1.317073
30
0.0
11
0.914634
21
1.317073
31
0.0
0
LINE
8
TOP
10
0.347561
20
1.317073
30
0.0
11
0.347561
21
0.182927
31
0.0
0
LINE
8
TOP
10
0.914634
20
0.000000
30
0.0
11
0.914634
21
0.182927
31
0.0
0
LINE
8
TOP
10
0.000000
20
0.000000
30
0.0
11
0.914634
21
0.000000
31
0.0
0
LINE
8
TOP
10
0.347561
20
0.182927
30
0.0
11
0.000000
21
0.182927
31
0.0
0
LINE
8
TOP
10
0.000000
20
0.182927
30
0.0
11
0.000000
21
0.000000
31
0.0
0
LINE
8
TOP
10
0.914634
20
1.317073
30
0.0
11
0.914634
21
1.500000
31
0.0
0
LINE
8
TOP
10
0.000000
20
1.317073
30
0.0
11
0.347561
21
1.317073
31
0.0
0
LINE
8
TOP
10
0.914634
20
1.500000
30
0.0
11
0.000000
21
1.500000
31
0.0
0
LINE
8
TOP
10
0.000000
20
1.500000
30
0.0
11
0.000000
21
1.317073
31
0.0
0
ENDSEC
0
EOF
