0
SECTION
2
HEADER
9
$ACADVER
1
AC1009
0
ENDSEC
0
SECTION
2
TABLES
0
TABLE
2
LTYPE
70
3
0
LTYPE
2
CONTINUOUS
70
0
3
Solid line
72
65
73
0
40
0.0
0
LTYPE
2
HIDDEN
70
0
3
__ __ __ __ __
72
65
73
2
40
0.037500
49
0.025013
49
-0.012488
0
LTYPE
2
CENTER
70
0
3
___ _ ___ _ ___
72
65
73
4
40
0.087488
49
0.049988
49
-0.012488
49
0.012488
49
-0.012488
0
ENDTAB
0
TABLE
2
LAYER
70
6
0
LAYER
2
0
70
0
62
7
6
CONTINUOUS
0
LAYER
2
FRONT
70
0
62
7
6
CONTINUOUS
0
LAYER
2
FRONT_HID
70
0
62
7
6
HIDDEN
0
LAYER
2
LEFT
70
0
62
7
6
CONTINUOUS
0
LAYER
2
LEFT_HID
70
0
62
7
6
HIDDEN
0
LAYER
2
TOP
70
0
62
7
6
CONTINUOUS
0
ENDTAB
0
ENDSEC
0
SECTION
2
ENTITIES
0
LINE
8
FRONT
10
0.000000
20
0.946860
30
0.0
11
0.000233
21
0.942193
31
0.0
0
LINE
8
FRONT
10
0.000233
20
0.942193
30
0.0
11
0.000929
21
0.937572
31
0.0
0
LINE
8
FRONT
10
0.000929
20
0.937572
30
0.0
11
0.002083
21
0.933044
31
0.0
0
LINE
8
FRONT
10
0.002083
20
0.933044
30
0.0
11
0.003681
21
0.928653
31
0.0
0
LINE
8
FRONT
10
0.003681
20
0.928653
30
0.0
11
0.005708
21
0.924442
31
0.0
0
LINE
8
FRONT
10
0.005708
20
0.924442
30
0.0
11
0.008145
21
0.920455
31
0.0
0
LINE
8
FRONT
10
0.008145
20
0.920455
30
0.0
11
0.010967
21
0.916730
31
0.0
0
LINE
8
FRONT
10
0.010967
20
0.916730
30
0.0
11
0.014145
21
0.913304
31
0.0
0
LINE
8
FRONT
10
0.014145
20
0.913304
30
0.0
11
0.017649
21
0.910212
31
0.0
0
LINE
8
FRONT
10
0.017649
20
0.910212
30
0.0
11
0.021443
21
0.907484
31
0.0
0
LINE
8
FRONT
10
0.021443
20
0.907484
30
0.0
11
0.025490
21
0.905148
31
0.0
0
LINE
8
FRONT
10
0.025490
20
0.905148
30
0.0
11
0.029750
21
0.903226
31
0.0
0
LINE
8
FRONT
10
0.029750
20
0.903226
30
0.0
11
0.034179
21
0.901737
31
0.0
0
LINE
8
FRONT
10
0.034179
20
0.901737
30
0.0
11
0.038735
21
0.900698
31
0.0
0
LINE
8
FRONT
10
0.038735
20
0.900698
30
0.0
11
0.043372
21
0.900117
31
0.0
0
LINE
8
FRONT
10
0.043372
20
0.900117
30
0.0
11
0.048044
21
0.900000
31
0.0
0
LINE
8
FRONT
10
0.048044
20
0.900000
30
0.0
11
0.052704
21
0.900349
31
0.0
0
LINE
8
FRONT
10
0.052704
20
0.900349
30
0.0
11
0.057306
21
0.901161
31
0.0
0
LINE
8
FRONT
10
0.057306
20
0.901161
30
0.0
11
0.061804
21
0.902426
31
0.0
0
LINE
8
FRONT
10
0.061804
20
0.902426
30
0.0
11
0.066154
21
0.904134
31
0.0
0
LINE
8
FRONT
10
0.066154
20
0.904134
30
0.0
11
0.070312
21
0.906265
31
0.0
0
LINE
8
FRONT
10
0.070312
20
0.906265
30
0.0
11
0.074238
21
0.908801
31
0.0
0
LINE
8
FRONT
10
0.074238
20
0.908801
30
0.0
11
0.077892
21
0.911714
31
0.0
0
LINE
8
FRONT
10
0.077892
20
0.911714
30
0.0
11
0.081237
21
0.914977
31
0.0
0
LINE
8
FRONT
10
0.081237
20
0.914977
30
0.0
11
0.084241
21
0.918557
31
0.0
0
LINE
8
FRONT
10
0.084241
20
0.918557
30
0.0
11
0.086873
21
0.922418
31
0.0
0
LINE
8
FRONT
10
0.086873
20
0.922418
30
0.0
11
0.089108
21
0.926522
31
0.0
0
LINE
8
FRONT
10
0.089108
20
0.926522
30
0.0
11
0.090923
21
0.930828
31
0.0
0
LINE
8
FRONT
10
0.090923
20
0.930828
30
0.0
11
0.092300
21
0.935294
31
0.0
0
LINE
8
FRONT
10
0.092300
20
0.935294
30
0.0
11
0.093226
21
0.939874
31
0.0
0
LINE
8
FRONT
10
0.093226
20
0.939874
30
0.0
11
0.093692
21
0.944524
31
0.0
0
LINE
8
FRONT
10
0.093692
20
0.944524
30
0.0
11
0.093692
21
0.949197
31
0.0
0
LINE
8
FRONT
10
0.093692
20
0.949197
30
0.0
11
0.093226
21
0.953847
31
0.0
0
LINE
8
FRONT
10
0.093226
20
0.953847
30
0.0
11
0.092300
21
0.958427
31
0.0
0
LINE
8
FRONT
10
0.092300
20
0.958427
30
0.0
11
0.090923
21
0.962893
31
0.0
0
LINE
8
FRONT
10
0.090923
20
0.962893
30
0.0
11
0.089108
21
0.967199
31
0.0
0
LINE
8
FRONT
10
0.089108
20
0.967199
30
0.0
11
0.086873
21
0.971303
31
0.0
0
LINE
8
FRONT
10
0.086873
20
0.971303
30
0.0
11
0.084241
21
0.975164
31
0.0
0
LINE
8
FRONT
10
0.084241
20
0.975164
30
0.0
11
0.081237
21
0.978744
31
0.0
0
LINE
8
FRONT
10
0.081237
20
0.978744
30
0.0
11
0.077892
21
0.982006
31
0.0
0
LINE
8
FRONT
10
0.077892
20
0.982006
30
0.0
11
0.074238
21
0.984920
31
0.0
0
LINE
8
FRONT
10
0.074238
20
0.984920
30
0.0
11
0.070313
21
0.987455
31
0.0
0
LINE
8
FRONT
10
0.070313
20
0.987455
30
0.0
11
0.066154
21
0.989587
31
0.0
0
LINE
8
FRONT
10
0.066154
20
0.989587
30
0.0
11
0.061804
21
0.991295
31
0.0
0
LINE
8
FRONT
10
0.061804
20
0.991295
30
0.0
11
0.057306
21
0.992560
31
0.0
0
LINE
8
FRONT
10
0.057306
20
0.992560
30
0.0
11
0.052704
21
0.993372
31
0.0
0
LINE
8
FRONT
10
0.052704
20
0.993372
30
0.0
11
0.048044
21
0.993721
31
0.0
0
LINE
8
FRONT
10
0.048044
20
0.993721
30
0.0
11
0.043372
21
0.993604
31
0.0
0
LINE
8
FRONT
10
0.043372
20
0.993604
30
0.0
11
0.038735
21
0.993023
31
0.0
0
LINE
8
FRONT
10
0.038735
20
0.993023
30
0.0
11
0.034179
21
0.991983
31
0.0
0
LINE
8
FRONT
10
0.034179
20
0.991983
30
0.0
11
0.029750
21
0.990495
31
0.0
0
LINE
8
FRONT
10
0.029750
20
0.990495
30
0.0
11
0.025490
21
0.988573
31
0.0
0
LINE
8
FRONT
10
0.025490
20
0.988573
30
0.0
11
0.021443
21
0.986237
31
0.0
0
LINE
8
FRONT
10
0.021443
20
0.986237
30
0.0
11
0.017649
21
0.983509
31
0.0
0
LINE
8
FRONT
10
0.017649
20
0.983509
30
0.0
11
0.014145
21
0.980417
31
0.0
0
LINE
8
FRONT
10
0.014145
20
0.980417
30
0.0
11
0.010967
21
0.976991
31
0.0
0
LINE
8
FRONT
10
0.010967
20
0.976991
30
0.0
11
0.008145
21
0.973266
31
0.0
0
LINE
8
FRONT
10
0.008145
20
0.973266
30
0.0
11
0.005708
21
0.969279
31
0.0
0
LINE
8
FRONT
10
0.005708
20
0.969279
30
0.0
11
0.003681
21
0.965068
31
0.0
0
LINE
8
FRONT
10
0.003681
20
0.965068
30
0.0
11
0.002083
21
0.960677
31
0.0
0
LINE
8
FRONT
10
0.002083
20
0.960677
30
0.0
11
0.000929
21
0.956149
31
0.0
0
LINE
8
FRONT
10
0.000929
20
0.956149
30
0.0
11
0.000233
21
0.951528
31
0.0
0
LINE
8
FRONT
10
0.000233
20
0.951528
30
0.0
11
0.000000
21
0.946860
31
0.0
0
LINE
8
FRONT_HID
6
HIDDEN
10
0.066154
20
0.904134
30
0.0
11
0.070313
21
0.906265
31
0.0
0
LINE
8
FRONT_HID
6
HIDDEN
10
0.070313
20
0.906265
30
0.0
11
0.074238
21
0.908801
31
0.0
0
LINE
8
LEFT
10
0.243692
20
0.946875
30
0.0
11
0.243692
21
0.900000
31
0.0
0
LINE
8
LEFT
10
0.243692
20
0.993750
30
0.0
11
0.243692
21
0.946875
31
0.0
0
LINE
8
LEFT
10
0.993692
20
0.946875
30
0.0
11
0.993692
21
0.900000
31
0.0
0
LINE
8
LEFT
10
0.993692
20
0.993750
30
0.0
11
0.993692
21
0.946875
31
0.0
0
LINE
8
LEFT
10
0.993692
20
0.993750
30
0.0
11
0.243692
21
0.993750
31
0.0
0
LINE
8
LEFT
10
0.993692
20
0.900000
30
0.0
11
0.243692
21
0.900000
31
0.0
0
LINE
8
LEFT_HID
6
HIDDEN
10
0.243692
20
0.900000
30
0.0
11
0.243692
21
0.993750
31
0.0
0
LINE
8
LEFT_HID
6
HIDDEN
10
0.993692
20
0.900000
30
0.0
11
0.993692
21
0.993750
31
0.0
0
LINE
8
TOP
10
0.093750
20
0.750000
30
0.0
11
0.000000
21
0.750000
31
0.0
0
LINE
8
TOP
10
0.000000
20
0.750000
30
0.0
11
0.000000
21
0.000000
31
0.0
0
LINE
8
TOP
10
0.093750
20
0.000000
30
0.0
11
0.000000
21
0.000000
31
0.0
0
LINE
8
TOP
10
0.093750
20
0.000000
30
0.0
11
0.093750
21
0.750000
31
0.0
0
ENDSEC
0
EOF
