0
SECTION
2
HEADER
9
$ACADVER
1
AC1009
0
ENDSEC
0
SECTION
2
TABLES
0
TABLE
2
LTYPE
70
3
0
LTYPE
2
CONTINUOUS
70
0
3
Solid line
72
65
73
0
40
0.0
0
LTYPE
2
HIDDEN
70
0
3
__ __ __ __ __
72
65
73
2
40
0.037500
49
0.025012
49
-0.012487
0
LTYPE
2
CENTER
70
0
3
___ _ ___ _ ___
72
65
73
4
40
0.087487
49
0.049987
49
-0.012487
49
0.012487
49
-0.012487
0
ENDTAB
0
TABLE
2
LAYER
70
5
0
LAYER
2
0
70
0
62
7
6
CONTINUOUS
0
LAYER
2
FRONT
70
0
62
7
6
CONTINUOUS
0
LAYER
2
LEFT
70
0
62
7
6
CONTINUOUS
0
LAYER
2
LEFT_HID
70
0
62
7
6
HIDDEN
0
LAYER
2
TOP
70
0
62
7
6
CONTINUOUS
0
ENDTAB
0
ENDSEC
0
SECTION
2
ENTITIES
0
LINE
8
FRONT
10
0.000000
20
0.907810
30
0.0
11
0.000039
21
0.907032
31
0.0
0
LINE
8
FRONT
10
0.000039
20
0.907032
30
0.0
11
0.000155
21
0.906262
31
0.0
0
LINE
8
FRONT
10
0.000155
20
0.906262
30
0.0
11
0.000347
21
0.905507
31
0.0
0
LINE
8
FRONT
10
0.000347
20
0.905507
30
0.0
11
0.000613
21
0.904775
31
0.0
0
LINE
8
FRONT
10
0.000613
20
0.904775
30
0.0
11
0.000951
21
0.904074
31
0.0
0
LINE
8
FRONT
10
0.000951
20
0.904074
30
0.0
11
0.001358
21
0.903409
31
0.0
0
LINE
8
FRONT
10
0.001358
20
0.903409
30
0.0
11
0.001828
21
0.902788
31
0.0
0
LINE
8
FRONT
10
0.001828
20
0.902788
30
0.0
11
0.002358
21
0.902217
31
0.0
0
LINE
8
FRONT
10
0.002358
20
0.902217
30
0.0
11
0.002941
21
0.901702
31
0.0
0
LINE
8
FRONT
10
0.002941
20
0.901702
30
0.0
11
0.003574
21
0.901247
31
0.0
0
LINE
8
FRONT
10
0.003574
20
0.901247
30
0.0
11
0.004248
21
0.900858
31
0.0
0
LINE
8
FRONT
10
0.004248
20
0.900858
30
0.0
11
0.004958
21
0.900538
31
0.0
0
LINE
8
FRONT
10
0.004958
20
0.900538
30
0.0
11
0.005697
21
0.900290
31
0.0
0
LINE
8
FRONT
10
0.005697
20
0.900290
30
0.0
11
0.006456
21
0.900116
31
0.0
0
LINE
8
FRONT
10
0.006456
20
0.900116
30
0.0
11
0.007229
21
0.900019
31
0.0
0
LINE
8
FRONT
10
0.007229
20
0.900019
30
0.0
11
0.008007
21
0.900000
31
0.0
0
LINE
8
FRONT
10
0.008007
20
0.900000
30
0.0
11
0.008784
21
0.900058
31
0.0
0
LINE
8
FRONT
10
0.008784
20
0.900058
30
0.0
11
0.009551
21
0.900193
31
0.0
0
LINE
8
FRONT
10
0.009551
20
0.900193
30
0.0
11
0.010301
21
0.900404
31
0.0
0
LINE
8
FRONT
10
0.010301
20
0.900404
30
0.0
11
0.011026
21
0.900689
31
0.0
0
LINE
8
FRONT
10
0.011026
20
0.900689
30
0.0
11
0.011719
21
0.901044
31
0.0
0
LINE
8
FRONT
10
0.011719
20
0.901044
30
0.0
11
0.012373
21
0.901467
31
0.0
0
LINE
8
FRONT
10
0.012373
20
0.901467
30
0.0
11
0.012982
21
0.901952
31
0.0
0
LINE
8
FRONT
10
0.012982
20
0.901952
30
0.0
11
0.013539
21
0.902496
31
0.0
0
LINE
8
FRONT
10
0.013539
20
0.902496
30
0.0
11
0.014040
21
0.903093
31
0.0
0
LINE
8
FRONT
10
0.014040
20
0.903093
30
0.0
11
0.014479
21
0.903736
31
0.0
0
LINE
8
FRONT
10
0.014479
20
0.903736
30
0.0
11
0.014851
21
0.904420
31
0.0
0
LINE
8
FRONT
10
0.014851
20
0.904420
30
0.0
11
0.015154
21
0.905138
31
0.0
0
LINE
8
FRONT
10
0.015154
20
0.905138
30
0.0
11
0.015383
21
0.905882
31
0.0
0
LINE
8
FRONT
10
0.015383
20
0.905882
30
0.0
11
0.015538
21
0.906646
31
0.0
0
LINE
8
FRONT
10
0.015538
20
0.906646
30
0.0
11
0.015615
21
0.907421
31
0.0
0
LINE
8
FRONT
10
0.015615
20
0.907421
30
0.0
11
0.015615
21
0.908199
31
0.0
0
LINE
8
FRONT
10
0.015615
20
0.908199
30
0.0
11
0.015538
21
0.908974
31
0.0
0
LINE
8
FRONT
10
0.015538
20
0.908974
30
0.0
11
0.015383
21
0.909738
31
0.0
0
LINE
8
FRONT
10
0.015383
20
0.909738
30
0.0
11
0.015154
21
0.910482
31
0.0
0
LINE
8
FRONT
10
0.015154
20
0.910482
30
0.0
11
0.014851
21
0.911200
31
0.0
0
LINE
8
FRONT
10
0.014851
20
0.911200
30
0.0
11
0.014479
21
0.911884
31
0.0
0
LINE
8
FRONT
10
0.014479
20
0.911884
30
0.0
11
0.014040
21
0.912527
31
0.0
0
LINE
8
FRONT
10
0.014040
20
0.912527
30
0.0
11
0.013539
21
0.913124
31
0.0
0
LINE
8
FRONT
10
0.013539
20
0.913124
30
0.0
11
0.012982
21
0.913668
31
0.0
0
LINE
8
FRONT
10
0.012982
20
0.913668
30
0.0
11
0.012373
21
0.914153
31
0.0
0
LINE
8
FRONT
10
0.012373
20
0.914153
30
0.0
11
0.011719
21
0.914576
31
0.0
0
LINE
8
FRONT
10
0.011719
20
0.914576
30
0.0
11
0.011026
21
0.914931
31
0.0
0
LINE
8
FRONT
10
0.011026
20
0.914931
30
0.0
11
0.010301
21
0.915216
31
0.0
0
LINE
8
FRONT
10
0.010301
20
0.915216
30
0.0
11
0.009551
21
0.915427
31
0.0
0
LINE
8
FRONT
10
0.009551
20
0.915427
30
0.0
11
0.008784
21
0.915562
31
0.0
0
LINE
8
FRONT
10
0.008784
20
0.915562
30
0.0
11
0.008007
21
0.915620
31
0.0
0
LINE
8
FRONT
10
0.008007
20
0.915620
30
0.0
11
0.007229
21
0.915601
31
0.0
0
LINE
8
FRONT
10
0.007229
20
0.915601
30
0.0
11
0.006456
21
0.915504
31
0.0
0
LINE
8
FRONT
10
0.006456
20
0.915504
30
0.0
11
0.005697
21
0.915331
31
0.0
0
LINE
8
FRONT
10
0.005697
20
0.915331
30
0.0
11
0.004958
21
0.915083
31
0.0
0
LINE
8
FRONT
10
0.004958
20
0.915083
30
0.0
11
0.004248
21
0.914762
31
0.0
0
LINE
8
FRONT
10
0.004248
20
0.914762
30
0.0
11
0.003574
21
0.914373
31
0.0
0
LINE
8
FRONT
10
0.003574
20
0.914373
30
0.0
11
0.002941
21
0.913918
31
0.0
0
LINE
8
FRONT
10
0.002941
20
0.913918
30
0.0
11
0.002358
21
0.913403
31
0.0
0
LINE
8
FRONT
10
0.002358
20
0.913403
30
0.0
11
0.001828
21
0.912832
31
0.0
0
LINE
8
FRONT
10
0.001828
20
0.912832
30
0.0
11
0.001358
21
0.912211
31
0.0
0
LINE
8
FRONT
10
0.001358
20
0.912211
30
0.0
11
0.000951
21
0.911546
31
0.0
0
LINE
8
FRONT
10
0.000951
20
0.911546
30
0.0
11
0.000613
21
0.910845
31
0.0
0
LINE
8
FRONT
10
0.000613
20
0.910845
30
0.0
11
0.000347
21
0.910113
31
0.0
0
LINE
8
FRONT
10
0.000347
20
0.910113
30
0.0
11
0.000155
21
0.909358
31
0.0
0
LINE
8
FRONT
10
0.000155
20
0.909358
30
0.0
11
0.000039
21
0.908588
31
0.0
0
LINE
8
FRONT
10
0.000039
20
0.908588
30
0.0
11
0.000000
21
0.907810
31
0.0
0
LINE
8
LEFT
10
0.165615
20
0.907812
30
0.0
11
0.165615
21
0.900000
31
0.0
0
LINE
8
LEFT
10
0.165615
20
0.915625
30
0.0
11
0.165615
21
0.907812
31
0.0
0
LINE
8
LEFT
10
0.915615
20
0.907812
30
0.0
11
0.915615
21
0.900000
31
0.0
0
LINE
8
LEFT
10
0.915615
20
0.915625
30
0.0
11
0.915615
21
0.907812
31
0.0
0
LINE
8
LEFT
10
0.915615
20
0.915625
30
0.0
11
0.165615
21
0.915625
31
0.0
0
LINE
8
LEFT
10
0.915615
20
0.900000
30
0.0
11
0.165615
21
0.900000
31
0.0
0
LINE
8
LEFT_HID
6
HIDDEN
10
0.165615
20
0.900000
30
0.0
11
0.165615
21
0.915625
31
0.0
0
LINE
8
LEFT_HID
6
HIDDEN
10
0.915615
20
0.900000
30
0.0
11
0.915615
21
0.915625
31
0.0
0
LINE
8
TOP
10
0.015625
20
0.750000
30
0.0
11
0.000000
21
0.750000
31
0.0
0
LINE
8
TOP
10
0.000000
20
0.750000
30
0.0
11
0.000000
21
0.000000
31
0.0
0
LINE
8
TOP
10
0.015625
20
0.000000
30
0.0
11
0.000000
21
0.000000
31
0.0
0
LINE
8
TOP
10
0.015625
20
0.000000
30
0.0
11
0.015625
21
0.750000
31
0.0
0
ENDSEC
0
EOF
