0
SECTION
2
HEADER
9
$ACADVER
1
AC1009
0
ENDSEC
0
SECTION
2
TABLES
0
TABLE
2
LTYPE
70
3
0
LTYPE
2
CONTINUOUS
70
0
3
Solid line
72
65
73
0
40
0.0
0
LTYPE
2
HIDDEN
70
0
3
__ __ __ __ __
72
65
73
2
40
0.075000
49
0.050025
49
-0.024975
0
LTYPE
2
CENTER
70
0
3
___ _ ___ _ ___
72
65
73
4
40
0.174975
49
0.099975
49
-0.024975
49
0.024975
49
-0.024975
0
ENDTAB
0
TABLE
2
LAYER
70
6
0
LAYER
2
0
70
0
62
7
6
CONTINUOUS
0
LAYER
2
FRONT
70
0
62
7
6
CONTINUOUS
0
LAYER
2
FRONT_HID
70
0
62
7
6
HIDDEN
0
LAYER
2
LEFT
70
0
62
7
6
CONTINUOUS
0
LAYER
2
LEFT_HID
70
0
62
7
6
HIDDEN
0
LAYER
2
TOP
70
0
62
7
6
CONTINUOUS
0
ENDTAB
0
ENDSEC
0
SECTION
2
ENTITIES
0
LINE
8
FRONT
10
1.500000
20
1.799534
30
0.0
11
0.000000
21
1.799534
31
0.0
0
LINE
8
FRONT
10
1.500000
20
1.799534
30
0.0
11
1.500000
21
1.859534
31
0.0
0
LINE
8
FRONT
10
1.500000
20
1.859534
30
0.0
11
0.000000
21
1.859534
31
0.0
0
LINE
8
FRONT
10
0.000000
20
1.859534
30
0.0
11
0.000000
21
1.799534
31
0.0
0
LINE
8
FRONT_HID
6
HIDDEN
10
1.005000
20
1.799534
30
0.0
11
0.495000
21
1.799534
31
0.0
0
LINE
8
FRONT_HID
6
HIDDEN
10
0.495000
20
1.799534
30
0.0
11
1.005000
21
1.799534
31
0.0
0
LINE
8
FRONT_HID
6
HIDDEN
10
1.005000
20
1.799534
30
0.0
11
1.005000
21
1.859534
31
0.0
0
LINE
8
FRONT_HID
6
HIDDEN
10
1.005000
20
1.859534
30
0.0
11
0.495000
21
1.859534
31
0.0
0
LINE
8
FRONT_HID
6
HIDDEN
10
0.495000
20
1.859534
30
0.0
11
1.005000
21
1.859534
31
0.0
0
LINE
8
FRONT_HID
6
HIDDEN
10
0.495000
20
1.859534
30
0.0
11
0.495000
21
1.799534
31
0.0
0
LINE
8
LEFT
10
1.800000
20
1.799534
30
0.0
11
3.300000
21
1.799534
31
0.0
0
LINE
8
LEFT
10
1.800000
20
1.859534
30
0.0
11
3.300000
21
1.859534
31
0.0
0
LINE
8
LEFT
10
1.800000
20
1.859534
30
0.0
11
1.800000
21
1.799534
31
0.0
0
LINE
8
LEFT
10
3.300000
20
1.859534
30
0.0
11
3.300000
21
1.799534
31
0.0
0
LINE
8
LEFT_HID
6
HIDDEN
10
2.550000
20
1.799534
30
0.0
11
1.800000
21
1.799534
31
0.0
0
LINE
8
LEFT_HID
6
HIDDEN
10
3.300000
20
1.799534
30
0.0
11
2.550000
21
1.799534
31
0.0
0
LINE
8
LEFT_HID
6
HIDDEN
10
2.550000
20
1.859534
30
0.0
11
1.800000
21
1.859534
31
0.0
0
LINE
8
LEFT_HID
6
HIDDEN
10
3.300000
20
1.859534
30
0.0
11
2.550000
21
1.859534
31
0.0
0
LINE
8
LEFT_HID
6
HIDDEN
10
2.550000
20
1.799534
30
0.0
11
2.295000
21
1.799534
31
0.0
0
LINE
8
LEFT_HID
6
HIDDEN
10
2.295000
20
1.799534
30
0.0
11
2.805000
21
1.799534
31
0.0
0
LINE
8
LEFT_HID
6
HIDDEN
10
2.805000
20
1.799534
30
0.0
11
2.550000
21
1.799534
31
0.0
0
LINE
8
LEFT_HID
6
HIDDEN
10
2.550000
20
1.859534
30
0.0
11
2.295000
21
1.859534
31
0.0
0
LINE
8
LEFT_HID
6
HIDDEN
10
2.295000
20
1.859534
30
0.0
11
2.805000
21
1.859534
31
0.0
0
LINE
8
LEFT_HID
6
HIDDEN
10
2.805000
20
1.859534
30
0.0
11
2.550000
21
1.859534
31
0.0
0
LINE
8
LEFT_HID
6
HIDDEN
10
2.295000
20
1.859534
30
0.0
11
2.295000
21
1.799534
31
0.0
0
LINE
8
LEFT_HID
6
HIDDEN
10
2.805000
20
1.859534
30
0.0
11
2.805000
21
1.799534
31
0.0
0
LINE
8
TOP
10
1.499068
20
0.749767
30
0.0
11
1.495341
21
0.824443
31
0.0
0
LINE
8
TOP
10
1.495341
20
0.824443
30
0.0
11
1.484197
21
0.898376
31
0.0
0
LINE
8
TOP
10
1.484197
20
0.898376
30
0.0
11
1.465747
21
0.970833
31
0.0
0
LINE
8
TOP
10
1.465747
20
0.970833
30
0.0
11
1.440175
21
1.041093
31
0.0
0
LINE
8
TOP
10
1.440175
20
1.041093
30
0.0
11
1.407734
21
1.108457
31
0.0
0
LINE
8
TOP
10
1.407734
20
1.108457
30
0.0
11
1.368747
21
1.172257
31
0.0
0
LINE
8
TOP
10
1.368747
20
1.172257
30
0.0
11
1.323601
21
1.231858
31
0.0
0
LINE
8
TOP
10
1.323601
20
1.231858
30
0.0
11
1.272745
21
1.286667
31
0.0
0
LINE
8
TOP
10
1.272745
20
1.286667
30
0.0
11
1.216685
21
1.336140
31
0.0
0
LINE
8
TOP
10
1.216685
20
1.336140
30
0.0
11
1.155977
21
1.379786
31
0.0
0
LINE
8
TOP
10
1.155977
20
1.379786
30
0.0
11
1.091226
21
1.417171
31
0.0
0
LINE
8
TOP
10
1.091226
20
1.417171
30
0.0
11
1.023073
21
1.447922
31
0.0
0
LINE
8
TOP
10
1.023073
20
1.447922
30
0.0
11
0.952198
21
1.471735
31
0.0
0
LINE
8
TOP
10
0.952198
20
1.471735
30
0.0
11
0.879304
21
1.488373
31
0.0
0
LINE
8
TOP
10
0.879304
20
1.488373
30
0.0
11
0.805115
21
1.497670
31
0.0
0
LINE
8
TOP
10
0.805115
20
1.497670
30
0.0
11
0.730370
21
1.499534
31
0.0
0
LINE
8
TOP
10
0.730370
20
1.499534
30
0.0
11
0.655810
21
1.493946
31
0.0
0
LINE
8
TOP
10
0.655810
20
1.493946
30
0.0
11
0.582177
21
1.480963
31
0.0
0
LINE
8
TOP
10
0.582177
20
1.480963
30
0.0
11
0.510203
21
1.460712
31
0.0
0
LINE
8
TOP
10
0.510203
20
1.460712
30
0.0
11
0.440602
21
1.433396
31
0.0
0
LINE
8
TOP
10
0.440602
20
1.433396
30
0.0
11
0.374068
21
1.399286
31
0.0
0
LINE
8
TOP
10
0.374068
20
1.399286
30
0.0
11
0.311260
21
1.358720
31
0.0
0
LINE
8
TOP
10
0.311260
20
1.358720
30
0.0
11
0.252803
21
1.312103
31
0.0
0
LINE
8
TOP
10
0.252803
20
1.312103
30
0.0
11
0.199279
21
1.259896
31
0.0
0
LINE
8
TOP
10
0.199279
20
1.259896
30
0.0
11
0.151218
21
1.202620
31
0.0
0
LINE
8
TOP
10
0.151218
20
1.202620
30
0.0
11
0.109100
21
1.140843
31
0.0
0
LINE
8
TOP
10
0.109100
20
1.140843
30
0.0
11
0.073341
21
1.075180
31
0.0
0
LINE
8
TOP
10
0.073341
20
1.075180
30
0.0
11
0.044298
21
1.006282
31
0.0
0
LINE
8
TOP
10
0.044298
20
1.006282
30
0.0
11
0.022260
21
0.934835
31
0.0
0
LINE
8
TOP
10
0.022260
20
0.934835
30
0.0
11
0.007445
21
0.861549
31
0.0
0
LINE
8
TOP
10
0.007445
20
0.861549
30
0.0
11
0.000000
21
0.787151
31
0.0
0
LINE
8
TOP
10
0.000000
20
0.787151
30
0.0
11
0.000000
21
0.712382
31
0.0
0
LINE
8
TOP
10
0.000000
20
0.712382
30
0.0
11
0.007445
21
0.637985
31
0.0
0
LINE
8
TOP
10
0.007445
20
0.637985
30
0.0
11
0.022260
21
0.564699
31
0.0
0
LINE
8
TOP
10
0.022260
20
0.564699
30
0.0
11
0.044298
21
0.493252
31
0.0
0
LINE
8
TOP
10
0.044298
20
0.493252
30
0.0
11
0.073341
21
0.424354
31
0.0
0
LINE
8
TOP
10
0.073341
20
0.424354
30
0.0
11
0.109100
21
0.358690
31
0.0
0
LINE
8
TOP
10
0.109100
20
0.358690
30
0.0
11
0.151218
21
0.296914
31
0.0
0
LINE
8
TOP
10
0.151218
20
0.296914
30
0.0
11
0.199279
21
0.239637
31
0.0
0
LINE
8
TOP
10
0.199279
20
0.239637
30
0.0
11
0.252803
21
0.187431
31
0.0
0
LINE
8
TOP
10
0.252803
20
0.187431
30
0.0
11
0.311260
21
0.140813
31
0.0
0
LINE
8
TOP
10
0.311260
20
0.140813
30
0.0
11
0.374068
21
0.100248
31
0.0
0
LINE
8
TOP
10
0.374068
20
0.100248
30
0.0
11
0.440602
21
0.066137
31
0.0
0
LINE
8
TOP
10
0.440602
20
0.066137
30
0.0
11
0.510203
21
0.038821
31
0.0
0
LINE
8
TOP
10
0.510203
20
0.038821
30
0.0
11
0.582177
21
0.018571
31
0.0
0
LINE
8
TOP
10
0.582177
20
0.018571
30
0.0
11
0.655810
21
0.005587
31
0.0
0
LINE
8
TOP
10
0.655810
20
0.005587
30
0.0
11
0.730370
21
0.000000
31
0.0
0
LINE
8
TOP
10
0.730370
20
0.000000
30
0.0
11
0.805115
21
0.001864
31
0.0
0
LINE
8
TOP
10
0.805115
20
0.001864
30
0.0
11
0.879304
21
0.011161
31
0.0
0
LINE
8
TOP
10
0.879304
20
0.011161
30
0.0
11
0.952198
21
0.027799
31
0.0
0
LINE
8
TOP
10
0.952198
20
0.027799
30
0.0
11
1.023073
21
0.051612
31
0.0
0
LINE
8
TOP
10
1.023073
20
0.051612
30
0.0
11
1.091226
21
0.082363
31
0.0
0
LINE
8
TOP
10
1.091226
20
0.082363
30
0.0
11
1.155977
21
0.119747
31
0.0
0
LINE
8
TOP
10
1.155977
20
0.119747
30
0.0
11
1.216685
21
0.163393
31
0.0
0
LINE
8
TOP
10
1.216685
20
0.163393
30
0.0
11
1.272745
21
0.212867
31
0.0
0
LINE
8
TOP
10
1.272745
20
0.212867
30
0.0
11
1.323601
21
0.267676
31
0.0
0
LINE
8
TOP
10
1.323601
20
0.267676
30
0.0
11
1.368747
21
0.327277
31
0.0
0
LINE
8
TOP
10
1.368747
20
0.327277
30
0.0
11
1.407734
21
0.391076
31
0.0
0
LINE
8
TOP
10
1.407734
20
0.391076
30
0.0
11
1.440175
21
0.458441
31
0.0
0
LINE
8
TOP
10
1.440175
20
0.458441
30
0.0
11
1.465747
21
0.528701
31
0.0
0
LINE
8
TOP
10
1.465747
20
0.528701
30
0.0
11
1.484197
21
0.601157
31
0.0
0
LINE
8
TOP
10
1.484197
20
0.601157
30
0.0
11
1.495341
21
0.675091
31
0.0
0
LINE
8
TOP
10
1.495341
20
0.675091
30
0.0
11
1.499068
21
0.749767
31
0.0
0
LINE
8
TOP
10
1.004068
20
0.749767
30
0.0
11
1.002801
21
0.775157
31
0.0
0
LINE
8
TOP
10
1.002801
20
0.775157
30
0.0
11
0.999012
21
0.800294
31
0.0
0
LINE
8
TOP
10
0.999012
20
0.800294
30
0.0
11
0.992739
21
0.824929
31
0.0
0
LINE
8
TOP
10
0.992739
20
0.824929
30
0.0
11
0.984044
21
0.848818
31
0.0
0
LINE
8
TOP
10
0.984044
20
0.848818
30
0.0
11
0.973014
21
0.871722
31
0.0
0
LINE
8
TOP
10
0.973014
20
0.871722
30
0.0
11
0.959759
21
0.893414
31
0.0
0
LINE
8
TOP
10
0.959759
20
0.893414
30
0.0
11
0.944409
21
0.913678
31
0.0
0
LINE
8
TOP
10
0.944409
20
0.913678
30
0.0
11
0.927118
21
0.932313
31
0.0
0
LINE
8
TOP
10
0.927118
20
0.932313
30
0.0
11
0.908058
21
0.949134
31
0.0
0
LINE
8
TOP
10
0.908058
20
0.949134
30
0.0
11
0.887417
21
0.963973
31
0.0
0
LINE
8
TOP
10
0.887417
20
0.963973
30
0.0
11
0.865401
21
0.976684
31
0.0
0
LINE
8
TOP
10
0.865401
20
0.976684
30
0.0
11
0.842230
21
0.987140
31
0.0
0
LINE
8
TOP
10
0.842230
20
0.987140
30
0.0
11
0.818132
21
0.995236
31
0.0
0
LINE
8
TOP
10
0.818132
20
0.995236
30
0.0
11
0.793348
21
1.000893
31
0.0
0
LINE
8
TOP
10
0.793348
20
1.000893
30
0.0
11
0.768124
21
1.004054
31
0.0
0
LINE
8
TOP
10
0.768124
20
1.004054
30
0.0
11
0.742710
21
1.004688
31
0.0
0
LINE
8
TOP
10
0.742710
20
1.004688
30
0.0
11
0.717360
21
1.002788
31
0.0
0
LINE
8
TOP
10
0.717360
20
1.002788
30
0.0
11
0.692325
21
0.998374
31
0.0
0
LINE
8
TOP
10
0.692325
20
0.998374
30
0.0
11
0.667854
21
0.991488
31
0.0
0
LINE
8
TOP
10
0.667854
20
0.991488
30
0.0
11
0.644189
21
0.982201
31
0.0
0
LINE
8
TOP
10
0.644189
20
0.982201
30
0.0
11
0.621568
21
0.970603
31
0.0
0
LINE
8
TOP
10
0.621568
20
0.970603
30
0.0
11
0.600213
21
0.956811
31
0.0
0
LINE
8
TOP
10
0.600213
20
0.956811
30
0.0
11
0.580338
21
0.940961
31
0.0
0
LINE
8
TOP
10
0.580338
20
0.940961
30
0.0
11
0.562139
21
0.923211
31
0.0
0
LINE
8
TOP
10
0.562139
20
0.923211
30
0.0
11
0.545799
21
0.903737
31
0.0
0
LINE
8
TOP
10
0.545799
20
0.903737
30
0.0
11
0.531479
21
0.882733
31
0.0
0
LINE
8
TOP
10
0.531479
20
0.882733
30
0.0
11
0.519321
21
0.860407
31
0.0
0
LINE
8
TOP
10
0.519321
20
0.860407
30
0.0
11
0.509446
21
0.836982
31
0.0
0
LINE
8
TOP
10
0.509446
20
0.836982
30
0.0
11
0.501953
21
0.812690
31
0.0
0
LINE
8
TOP
10
0.501953
20
0.812690
30
0.0
11
0.496916
21
0.787773
31
0.0
0
LINE
8
TOP
10
0.496916
20
0.787773
30
0.0
11
0.494385
21
0.762478
31
0.0
0
LINE
8
TOP
10
0.494385
20
0.762478
30
0.0
11
0.494385
21
0.737056
31
0.0
0
LINE
8
TOP
10
0.494385
20
0.737056
30
0.0
11
0.496916
21
0.711761
31
0.0
0
LINE
8
TOP
10
0.496916
20
0.711761
30
0.0
11
0.501953
21
0.686844
31
0.0
0
LINE
8
TOP
10
0.501953
20
0.686844
30
0.0
11
0.509446
21
0.662552
31
0.0
0
LINE
8
TOP
10
0.509446
20
0.662552
30
0.0
11
0.519321
21
0.639127
31
0.0
0
LINE
8
TOP
10
0.519321
20
0.639127
30
0.0
11
0.531479
21
0.616801
31
0.0
0
LINE
8
TOP
10
0.531479
20
0.616801
30
0.0
11
0.545799
21
0.595797
31
0.0
0
LINE
8
TOP
10
0.545799
20
0.595797
30
0.0
11
0.562139
21
0.576323
31
0.0
0
LINE
8
TOP
10
0.562139
20
0.576323
30
0.0
11
0.580338
21
0.558573
31
0.0
0
LINE
8
TOP
10
0.580338
20
0.558573
30
0.0
11
0.600213
21
0.542723
31
0.0
0
LINE
8
TOP
10
0.600213
20
0.542723
30
0.0
11
0.621568
21
0.528930
31
0.0
0
LINE
8
TOP
10
0.621568
20
0.528930
30
0.0
11
0.644189
21
0.517333
31
0.0
0
LINE
8
TOP
10
0.644189
20
0.517333
30
0.0
11
0.667854
21
0.508045
31
0.0
0
LINE
8
TOP
10
0.667854
20
0.508045
30
0.0
11
0.692325
21
0.501160
31
0.0
0
LINE
8
TOP
10
0.692325
20
0.501160
30
0.0
11
0.717360
21
0.496746
31
0.0
0
LINE
8
TOP
10
0.717360
20
0.496746
30
0.0
11
0.742710
21
0.494846
31
0.0
0
LINE
8
TOP
10
0.742710
20
0.494846
30
0.0
11
0.768124
21
0.495480
31
0.0
0
LINE
8
TOP
10
0.768124
20
0.495480
30
0.0
11
0.793348
21
0.498641
31
0.0
0
LINE
8
TOP
10
0.793348
20
0.498641
30
0.0
11
0.818132
21
0.504298
31
0.0
0
LINE
8
TOP
10
0.818132
20
0.504298
30
0.0
11
0.842230
21
0.512394
31
0.0
0
LINE
8
TOP
10
0.842230
20
0.512394
30
0.0
11
0.865401
21
0.522850
31
0.0
0
LINE
8
TOP
10
0.865401
20
0.522850
30
0.0
11
0.887417
21
0.535560
31
0.0
0
LINE
8
TOP
10
0.887417
20
0.535560
30
0.0
11
0.908058
21
0.550400
31
0.0
0
LINE
8
TOP
10
0.908058
20
0.550400
30
0.0
11
0.927118
21
0.567221
31
0.0
0
LINE
8
TOP
10
0.927118
20
0.567221
30
0.0
11
0.944409
21
0.585856
31
0.0
0
LINE
8
TOP
10
0.944409
20
0.585856
30
0.0
11
0.959759
21
0.606120
31
0.0
0
LINE
8
TOP
10
0.959759
20
0.606120
30
0.0
11
0.973014
21
0.627812
31
0.0
0
LINE
8
TOP
10
0.973014
20
0.627812
30
0.0
11
0.984044
21
0.650716
31
0.0
0
LINE
8
TOP
10
0.984044
20
0.650716
30
0.0
11
0.992739
21
0.674604
31
0.0
0
LINE
8
TOP
10
0.992739
20
0.674604
30
0.0
11
0.999012
21
0.699240
31
0.0
0
LINE
8
TOP
10
0.999012
20
0.699240
30
0.0
11
1.002801
21
0.724377
31
0.0
0
LINE
8
TOP
10
1.002801
20
0.724377
30
0.0
11
1.004068
21
0.749767
31
0.0
0
ENDSEC
0
EOF
