0
SECTION
2
HEADER
9
$ACADVER
1
AC1009
0
ENDSEC
0
SECTION
2
TABLES
0
TABLE
2
LTYPE
70
3
0
LTYPE
2
CONTINUOUS
70
0
3
Solid line
72
65
73
0
40
0.0
0
LTYPE
2
HIDDEN
70
0
3
__ __ __ __ __
72
65
73
2
40
0.065645
49
0.043785
49
-0.021860
0
LTYPE
2
CENTER
70
0
3
___ _ ___ _ ___
72
65
73
4
40
0.153150
49
0.087505
49
-0.021860
49
0.021860
49
-0.021860
0
ENDTAB
0
TABLE
2
LAYER
70
6
0
LAYER
2
0
70
0
62
7
6
CONTINUOUS
0
LAYER
2
FRONT
70
0
62
7
6
CONTINUOUS
0
LAYER
2
FRONT_HID
70
0
62
7
6
HIDDEN
0
LAYER
2
LEFT
70
0
62
7
6
CONTINUOUS
0
LAYER
2
LEFT_HID
70
0
62
7
6
HIDDEN
0
LAYER
2
TOP
70
0
62
7
6
CONTINUOUS
0
ENDTAB
0
ENDSEC
0
SECTION
2
ENTITIES
0
LINE
8
FRONT
10
0.000000
20
1.573055
30
0.0
11
0.217066
21
1.573055
31
0.0
0
LINE
8
FRONT
10
0.217066
20
1.514578
30
0.0
11
0.217066
21
1.573055
31
0.0
0
LINE
8
FRONT
10
0.000000
20
1.514578
30
0.0
11
0.217066
21
1.514578
31
0.0
0
LINE
8
FRONT
10
0.217066
20
1.573055
30
0.0
11
0.227260
21
1.573055
31
0.0
0
LINE
8
FRONT
10
0.217066
20
1.514578
30
0.0
11
0.227260
21
1.514578
31
0.0
0
LINE
8
FRONT
10
0.227260
20
1.573055
30
0.0
11
0.513057
21
1.573055
31
0.0
0
LINE
8
FRONT
10
0.513057
20
1.514578
30
0.0
11
0.513057
21
1.573055
31
0.0
0
LINE
8
FRONT
10
0.227260
20
1.514578
30
0.0
11
0.513057
21
1.514578
31
0.0
0
LINE
8
FRONT
10
0.513057
20
1.573055
30
0.0
11
1.312904
21
1.573055
31
0.0
0
LINE
8
FRONT
10
0.513057
20
1.514578
30
0.0
11
1.312904
21
1.514578
31
0.0
0
LINE
8
FRONT
10
0.000000
20
1.573055
30
0.0
11
0.000000
21
1.514578
31
0.0
0
LINE
8
FRONT
10
0.227260
20
1.573055
30
0.0
11
0.227260
21
1.514578
31
0.0
0
LINE
8
FRONT
10
1.312904
20
1.573055
30
0.0
11
1.312904
21
1.514578
31
0.0
0
LINE
8
FRONT_HID
6
HIDDEN
10
0.212737
20
1.514578
30
0.0
11
0.212737
21
1.573055
31
0.0
0
LINE
8
FRONT_HID
6
HIDDEN
10
0.212737
20
1.573055
30
0.0
11
0.000000
21
1.573055
31
0.0
0
LINE
8
FRONT_HID
6
HIDDEN
10
0.212737
20
1.514578
30
0.0
11
0.000000
21
1.514578
31
0.0
0
LINE
8
FRONT_HID
6
HIDDEN
10
0.227260
20
1.573055
30
0.0
11
0.310003
21
1.573055
31
0.0
0
LINE
8
FRONT_HID
6
HIDDEN
10
0.310003
20
1.514578
30
0.0
11
0.310003
21
1.573055
31
0.0
0
LINE
8
FRONT_HID
6
HIDDEN
10
0.227260
20
1.514578
30
0.0
11
0.310003
21
1.514578
31
0.0
0
LINE
8
FRONT_HID
6
HIDDEN
10
0.310003
20
1.573055
30
0.0
11
0.227260
21
1.573055
31
0.0
0
LINE
8
FRONT_HID
6
HIDDEN
10
0.310003
20
1.514578
30
0.0
11
0.227260
21
1.514578
31
0.0
0
LINE
8
FRONT_HID
6
HIDDEN
10
0.227260
20
1.573055
30
0.0
11
0.310003
21
1.573055
31
0.0
0
LINE
8
FRONT_HID
6
HIDDEN
10
0.310003
20
1.514578
30
0.0
11
0.310003
21
1.573055
31
0.0
0
LINE
8
FRONT_HID
6
HIDDEN
10
0.227260
20
1.514578
30
0.0
11
0.310003
21
1.514578
31
0.0
0
LINE
8
FRONT_HID
6
HIDDEN
10
0.310003
20
1.573055
30
0.0
11
0.212737
21
1.573055
31
0.0
0
LINE
8
FRONT_HID
6
HIDDEN
10
0.310003
20
1.514578
30
0.0
11
0.212737
21
1.514578
31
0.0
0
LINE
8
LEFT
10
2.372791
20
1.573055
30
0.0
11
2.016026
21
1.573055
31
0.0
0
LINE
8
LEFT
10
2.372791
20
1.514578
30
0.0
11
2.016026
21
1.514578
31
0.0
0
LINE
8
LEFT
10
2.016026
20
1.573055
30
0.0
11
1.850405
21
1.573055
31
0.0
0
LINE
8
LEFT
10
1.850405
20
1.514578
30
0.0
11
1.850405
21
1.573055
31
0.0
0
LINE
8
LEFT
10
2.016026
20
1.514578
30
0.0
11
1.850405
21
1.514578
31
0.0
0
LINE
8
LEFT
10
1.850405
20
1.573055
30
0.0
11
1.575485
21
1.573055
31
0.0
0
LINE
8
LEFT
10
1.850405
20
1.514578
30
0.0
11
1.575485
21
1.514578
31
0.0
0
LINE
8
LEFT
10
2.827504
20
1.573055
30
0.0
11
2.552583
21
1.573055
31
0.0
0
LINE
8
LEFT
10
2.552583
20
1.514578
30
0.0
11
2.552583
21
1.573055
31
0.0
0
LINE
8
LEFT
10
2.827504
20
1.514578
30
0.0
11
2.552583
21
1.514578
31
0.0
0
LINE
8
LEFT
10
2.552583
20
1.573055
30
0.0
11
2.372791
21
1.573055
31
0.0
0
LINE
8
LEFT
10
2.552583
20
1.514578
30
0.0
11
2.372791
21
1.514578
31
0.0
0
LINE
8
LEFT
10
2.016026
20
1.573055
30
0.0
11
2.016026
21
1.514578
31
0.0
0
LINE
8
LEFT
10
2.372791
20
1.573055
30
0.0
11
2.372791
21
1.514578
31
0.0
0
LINE
8
LEFT
10
1.575485
20
1.573055
30
0.0
11
1.575485
21
1.514578
31
0.0
0
LINE
8
LEFT
10
2.827504
20
1.573055
30
0.0
11
2.827504
21
1.514578
31
0.0
0
LINE
8
LEFT_HID
6
HIDDEN
10
2.369451
20
1.514578
30
0.0
11
2.369451
21
1.573055
31
0.0
0
LINE
8
LEFT_HID
6
HIDDEN
10
2.369451
20
1.573055
30
0.0
11
2.372791
21
1.573055
31
0.0
0
LINE
8
LEFT_HID
6
HIDDEN
10
2.016026
20
1.573055
30
0.0
11
2.020271
21
1.573055
31
0.0
0
LINE
8
LEFT_HID
6
HIDDEN
10
2.020271
20
1.514578
30
0.0
11
2.020271
21
1.573055
31
0.0
0
LINE
8
LEFT_HID
6
HIDDEN
10
2.369451
20
1.514578
30
0.0
11
2.372791
21
1.514578
31
0.0
0
LINE
8
LEFT_HID
6
HIDDEN
10
2.016026
20
1.514578
30
0.0
11
2.020271
21
1.514578
31
0.0
0
LINE
8
LEFT_HID
6
HIDDEN
10
2.020271
20
1.573055
30
0.0
11
2.016026
21
1.573055
31
0.0
0
LINE
8
LEFT_HID
6
HIDDEN
10
2.020271
20
1.514578
30
0.0
11
2.016026
21
1.514578
31
0.0
0
LINE
8
LEFT_HID
6
HIDDEN
10
1.575485
20
1.573055
30
0.0
11
1.690887
21
1.573055
31
0.0
0
LINE
8
LEFT_HID
6
HIDDEN
10
1.690887
20
1.514578
30
0.0
11
1.690887
21
1.573055
31
0.0
0
LINE
8
LEFT_HID
6
HIDDEN
10
1.575485
20
1.514578
30
0.0
11
1.690887
21
1.514578
31
0.0
0
LINE
8
LEFT_HID
6
HIDDEN
10
1.690887
20
1.573055
30
0.0
11
1.638590
21
1.573055
31
0.0
0
LINE
8
LEFT_HID
6
HIDDEN
10
1.638590
20
1.573055
30
0.0
11
2.764398
21
1.573055
31
0.0
0
LINE
8
LEFT_HID
6
HIDDEN
10
2.764398
20
1.573055
30
0.0
11
2.712101
21
1.573055
31
0.0
0
LINE
8
LEFT_HID
6
HIDDEN
10
2.712101
20
1.514578
30
0.0
11
2.712101
21
1.573055
31
0.0
0
LINE
8
LEFT_HID
6
HIDDEN
10
1.690887
20
1.514578
30
0.0
11
1.638590
21
1.514578
31
0.0
0
LINE
8
LEFT_HID
6
HIDDEN
10
1.638590
20
1.514578
30
0.0
11
2.764398
21
1.514578
31
0.0
0
LINE
8
LEFT_HID
6
HIDDEN
10
2.764398
20
1.514578
30
0.0
11
2.712101
21
1.514578
31
0.0
0
LINE
8
LEFT_HID
6
HIDDEN
10
2.712101
20
1.573055
30
0.0
11
2.827504
21
1.573055
31
0.0
0
LINE
8
LEFT_HID
6
HIDDEN
10
2.712101
20
1.514578
30
0.0
11
2.827504
21
1.514578
31
0.0
0
LINE
8
LEFT_HID
6
HIDDEN
10
2.372791
20
1.573055
30
0.0
11
2.369451
21
1.573055
31
0.0
0
LINE
8
LEFT_HID
6
HIDDEN
10
2.372791
20
1.514578
30
0.0
11
2.369451
21
1.514578
31
0.0
0
LINE
8
LEFT_HID
6
HIDDEN
10
1.638590
20
1.573055
30
0.0
11
1.638590
21
1.514578
31
0.0
0
LINE
8
LEFT_HID
6
HIDDEN
10
2.764398
20
1.573055
30
0.0
11
2.764398
21
1.514578
31
0.0
0
LINE
8
TOP
10
0.212715
20
0.458041
30
0.0
11
0.202791
21
0.456383
31
0.0
0
LINE
8
TOP
10
0.202791
20
0.456383
30
0.0
11
0.192789
21
0.455286
31
0.0
0
LINE
8
TOP
10
0.192789
20
0.455286
30
0.0
11
0.182741
21
0.454756
31
0.0
0
LINE
8
TOP
10
0.182741
20
0.454756
30
0.0
11
0.172680
21
0.454792
31
0.0
0
LINE
8
TOP
10
0.172680
20
0.454792
30
0.0
11
0.162636
21
0.455396
31
0.0
0
LINE
8
TOP
10
0.162636
20
0.455396
30
0.0
11
0.152643
21
0.456566
31
0.0
0
LINE
8
TOP
10
0.152643
20
0.456566
30
0.0
11
0.142731
21
0.458296
31
0.0
0
LINE
8
TOP
10
0.142731
20
0.458296
30
0.0
11
0.132933
21
0.460583
31
0.0
0
LINE
8
TOP
10
0.132933
20
0.460583
30
0.0
11
0.123279
21
0.463419
31
0.0
0
LINE
8
TOP
10
0.123279
20
0.463419
30
0.0
11
0.113800
21
0.466794
31
0.0
0
LINE
8
TOP
10
0.113800
20
0.466794
30
0.0
11
0.104527
21
0.470699
31
0.0
0
LINE
8
TOP
10
0.104527
20
0.470699
30
0.0
11
0.095489
21
0.475120
31
0.0
0
LINE
8
TOP
10
0.095489
20
0.475120
30
0.0
11
0.086714
21
0.480044
31
0.0
0
LINE
8
TOP
10
0.086714
20
0.480044
30
0.0
11
0.078231
21
0.485455
31
0.0
0
LINE
8
TOP
10
0.078231
20
0.485455
30
0.0
11
0.070067
21
0.491335
31
0.0
0
LINE
8
TOP
10
0.070067
20
0.491335
30
0.0
11
0.062247
21
0.497666
31
0.0
0
LINE
8
TOP
10
0.062247
20
0.497666
30
0.0
11
0.054797
21
0.504429
31
0.0
0
LINE
8
TOP
10
0.054797
20
0.504429
30
0.0
11
0.047739
21
0.511600
31
0.0
0
LINE
8
TOP
10
0.047739
20
0.511600
30
0.0
11
0.041097
21
0.519158
31
0.0
0
LINE
8
TOP
10
0.041097
20
0.519158
30
0.0
11
0.034892
21
0.527078
31
0.0
0
LINE
8
TOP
10
0.034892
20
0.527078
30
0.0
11
0.029144
21
0.535336
31
0.0
0
LINE
8
TOP
10
0.029144
20
0.535336
30
0.0
11
0.023870
21
0.543905
31
0.0
0
LINE
8
TOP
10
0.023870
20
0.543905
30
0.0
11
0.019087
21
0.552757
31
0.0
0
LINE
8
TOP
10
0.019087
20
0.552757
30
0.0
11
0.014812
21
0.561865
31
0.0
0
LINE
8
TOP
10
0.014812
20
0.561865
30
0.0
11
0.011056
21
0.571200
31
0.0
0
LINE
8
TOP
10
0.011056
20
0.571200
30
0.0
11
0.007833
21
0.580731
31
0.0
0
LINE
8
TOP
10
0.007833
20
0.580731
30
0.0
11
0.005153
21
0.590429
31
0.0
0
LINE
8
TOP
10
0.005153
20
0.590429
30
0.0
11
0.003023
21
0.600263
31
0.0
0
LINE
8
TOP
10
0.003023
20
0.600263
30
0.0
11
0.001452
21
0.610201
31
0.0
0
LINE
8
TOP
10
0.001452
20
0.610201
30
0.0
11
0.000443
21
0.620212
31
0.0
0
LINE
8
TOP
10
0.000443
20
0.620212
30
0.0
11
0.000000
21
0.630264
31
0.0
0
LINE
8
TOP
10
0.000000
20
0.630264
30
0.0
11
0.000125
21
0.640325
31
0.0
0
LINE
8
TOP
10
0.000125
20
0.640325
30
0.0
11
0.000816
21
0.650363
31
0.0
0
LINE
8
TOP
10
0.000816
20
0.650363
30
0.0
11
0.002073
21
0.660346
31
0.0
0
LINE
8
TOP
10
0.002073
20
0.660346
30
0.0
11
0.003891
21
0.670242
31
0.0
0
LINE
8
TOP
10
0.003891
20
0.670242
30
0.0
11
0.006263
21
0.680020
31
0.0
0
LINE
8
TOP
10
0.006263
20
0.680020
30
0.0
11
0.009183
21
0.689648
31
0.0
0
LINE
8
TOP
10
0.009183
20
0.689648
30
0.0
11
0.012642
21
0.699097
31
0.0
0
LINE
8
TOP
10
0.012642
20
0.699097
30
0.0
11
0.016627
21
0.708336
31
0.0
0
LINE
8
TOP
10
0.016627
20
0.708336
30
0.0
11
0.021127
21
0.717335
31
0.0
0
LINE
8
TOP
10
0.021127
20
0.717335
30
0.0
11
0.026128
21
0.726066
31
0.0
0
LINE
8
TOP
10
0.026128
20
0.726066
30
0.0
11
0.031612
21
0.734501
31
0.0
0
LINE
8
TOP
10
0.031612
20
0.734501
30
0.0
11
0.037564
21
0.742614
31
0.0
0
LINE
8
TOP
10
0.037564
20
0.742614
30
0.0
11
0.043964
21
0.750378
31
0.0
0
LINE
8
TOP
10
0.043964
20
0.750378
30
0.0
11
0.050791
21
0.757769
31
0.0
0
LINE
8
TOP
10
0.050791
20
0.757769
30
0.0
11
0.058024
21
0.764764
31
0.0
0
LINE
8
TOP
10
0.058024
20
0.764764
30
0.0
11
0.065640
21
0.771339
31
0.0
0
LINE
8
TOP
10
0.065640
20
0.771339
30
0.0
11
0.073614
21
0.777475
31
0.0
0
LINE
8
TOP
10
0.073614
20
0.777475
30
0.0
11
0.081922
21
0.783151
31
0.0
0
LINE
8
TOP
10
0.081922
20
0.783151
30
0.0
11
0.090536
21
0.788350
31
0.0
0
LINE
8
TOP
10
0.090536
20
0.788350
30
0.0
11
0.099430
21
0.793054
31
0.0
0
LINE
8
TOP
10
0.099430
20
0.793054
30
0.0
11
0.108575
21
0.797250
31
0.0
0
LINE
8
TOP
10
0.108575
20
0.797250
30
0.0
11
0.117942
21
0.800924
31
0.0
0
LINE
8
TOP
10
0.117942
20
0.800924
30
0.0
11
0.127502
21
0.804063
31
0.0
0
LINE
8
TOP
10
0.127502
20
0.804063
30
0.0
11
0.137223
21
0.806659
31
0.0
0
LINE
8
TOP
10
0.137223
20
0.806659
30
0.0
11
0.147075
21
0.808702
31
0.0
0
LINE
8
TOP
10
0.147075
20
0.808702
30
0.0
11
0.157026
21
0.810186
31
0.0
0
LINE
8
TOP
10
0.157026
20
0.810186
30
0.0
11
0.167046
21
0.811108
31
0.0
0
LINE
8
TOP
10
0.167046
20
0.811108
30
0.0
11
0.177101
21
0.811462
31
0.0
0
LINE
8
TOP
10
0.177101
20
0.811462
30
0.0
11
0.187161
21
0.811250
31
0.0
0
LINE
8
TOP
10
0.187161
20
0.811250
30
0.0
11
0.197192
21
0.810470
31
0.0
0
LINE
8
TOP
10
0.197192
20
0.810470
30
0.0
11
0.207164
21
0.809126
31
0.0
0
LINE
8
TOP
10
0.207164
20
0.809126
30
0.0
11
0.217043
21
0.807222
31
0.0
0
LINE
8
TOP
10
0.217043
20
0.807222
30
0.0
11
0.218046
21
0.810144
31
0.0
0
LINE
8
TOP
10
0.218046
20
0.810144
30
0.0
11
0.219064
21
0.813060
31
0.0
0
LINE
8
TOP
10
0.219064
20
0.813060
30
0.0
11
0.220099
21
0.815970
31
0.0
0
LINE
8
TOP
10
0.220099
20
0.815970
30
0.0
11
0.221149
21
0.818875
31
0.0
0
LINE
8
TOP
10
0.221149
20
0.818875
30
0.0
11
0.222215
21
0.821774
31
0.0
0
LINE
8
TOP
10
0.222215
20
0.821774
30
0.0
11
0.223298
21
0.824667
31
0.0
0
LINE
8
TOP
10
0.223298
20
0.824667
30
0.0
11
0.224396
21
0.827554
31
0.0
0
LINE
8
TOP
10
0.224396
20
0.827554
30
0.0
11
0.225510
21
0.830435
31
0.0
0
LINE
8
TOP
10
0.225510
20
0.830435
30
0.0
11
0.226639
21
0.833310
31
0.0
0
LINE
8
TOP
10
0.226639
20
0.833310
30
0.0
11
0.227785
21
0.836178
31
0.0
0
LINE
8
TOP
10
0.227785
20
0.836178
30
0.0
11
0.228946
21
0.839040
31
0.0
0
LINE
8
TOP
10
0.228946
20
0.839040
30
0.0
11
0.230123
21
0.841896
31
0.0
0
LINE
8
TOP
10
0.230123
20
0.841896
30
0.0
11
0.231315
21
0.844745
31
0.0
0
LINE
8
TOP
10
0.231315
20
0.844745
30
0.0
11
0.232523
21
0.847588
31
0.0
0
LINE
8
TOP
10
0.232523
20
0.847588
30
0.0
11
0.233747
21
0.850424
31
0.0
0
LINE
8
TOP
10
0.233747
20
0.850424
30
0.0
11
0.234986
21
0.853254
31
0.0
0
LINE
8
TOP
10
0.234986
20
0.853254
30
0.0
11
0.236241
21
0.856076
31
0.0
0
LINE
8
TOP
10
0.236241
20
0.856076
30
0.0
11
0.237511
21
0.858892
31
0.0
0
LINE
8
TOP
10
0.237511
20
0.858892
30
0.0
11
0.238797
21
0.861700
31
0.0
0
LINE
8
TOP
10
0.238797
20
0.861700
30
0.0
11
0.240098
21
0.864502
31
0.0
0
LINE
8
TOP
10
0.240098
20
0.864502
30
0.0
11
0.241415
21
0.867296
31
0.0
0
LINE
8
TOP
10
0.241415
20
0.867296
30
0.0
11
0.242746
21
0.870083
31
0.0
0
LINE
8
TOP
10
0.242746
20
0.870083
30
0.0
11
0.244093
21
0.872862
31
0.0
0
LINE
8
TOP
10
0.244093
20
0.872862
30
0.0
11
0.245455
21
0.875635
31
0.0
0
LINE
8
TOP
10
0.245455
20
0.875635
30
0.0
11
0.246833
21
0.878399
31
0.0
0
LINE
8
TOP
10
0.246833
20
0.878399
30
0.0
11
0.248225
21
0.881156
31
0.0
0
LINE
8
TOP
10
0.248225
20
0.881156
30
0.0
11
0.249633
21
0.883906
31
0.0
0
LINE
8
TOP
10
0.249633
20
0.883906
30
0.0
11
0.251056
21
0.886647
31
0.0
0
LINE
8
TOP
10
0.251056
20
0.886647
30
0.0
11
0.252494
21
0.889381
31
0.0
0
LINE
8
TOP
10
0.252494
20
0.889381
30
0.0
11
0.253946
21
0.892107
31
0.0
0
LINE
8
TOP
10
0.253946
20
0.892107
30
0.0
11
0.255414
21
0.894825
31
0.0
0
LINE
8
TOP
10
0.255414
20
0.894825
30
0.0
11
0.256897
21
0.897535
31
0.0
0
LINE
8
TOP
10
0.256897
20
0.897535
30
0.0
11
0.258394
21
0.900236
31
0.0
0
LINE
8
TOP
10
0.258394
20
0.900236
30
0.0
11
0.259906
21
0.902930
31
0.0
0
LINE
8
TOP
10
0.259906
20
0.902930
30
0.0
11
0.261433
21
0.905615
31
0.0
0
LINE
8
TOP
10
0.261433
20
0.905615
30
0.0
11
0.262975
21
0.908291
31
0.0
0
LINE
8
TOP
10
0.262975
20
0.908291
30
0.0
11
0.264531
21
0.910959
31
0.0
0
LINE
8
TOP
10
0.264531
20
0.910959
30
0.0
11
0.266102
21
0.913619
31
0.0
0
LINE
8
TOP
10
0.266102
20
0.913619
30
0.0
11
0.267688
21
0.916270
31
0.0
0
LINE
8
TOP
10
0.267688
20
0.916270
30
0.0
11
0.269288
21
0.918912
31
0.0
0
LINE
8
TOP
10
0.269288
20
0.918912
30
0.0
11
0.270902
21
0.921545
31
0.0
0
LINE
8
TOP
10
0.270902
20
0.921545
30
0.0
11
0.272531
21
0.924169
31
0.0
0
LINE
8
TOP
10
0.272531
20
0.924169
30
0.0
11
0.274175
21
0.926785
31
0.0
0
LINE
8
TOP
10
0.274175
20
0.926785
30
0.0
11
0.275832
21
0.929391
31
0.0
0
LINE
8
TOP
10
0.275832
20
0.929391
30
0.0
11
0.277504
21
0.931988
31
0.0
0
LINE
8
TOP
10
0.277504
20
0.931988
30
0.0
11
0.279190
21
0.934576
31
0.0
0
LINE
8
TOP
10
0.279190
20
0.934576
30
0.0
11
0.280891
21
0.937155
31
0.0
0
LINE
8
TOP
10
0.280891
20
0.937155
30
0.0
11
0.282605
21
0.939724
31
0.0
0
LINE
8
TOP
10
0.282605
20
0.939724
30
0.0
11
0.284334
21
0.942284
31
0.0
0
LINE
8
TOP
10
0.284334
20
0.942284
30
0.0
11
0.286076
21
0.944834
31
0.0
0
LINE
8
TOP
10
0.286076
20
0.944834
30
0.0
11
0.287833
21
0.947375
31
0.0
0
LINE
8
TOP
10
0.287833
20
0.947375
30
0.0
11
0.289603
21
0.949906
31
0.0
0
LINE
8
TOP
10
0.289603
20
0.949906
30
0.0
11
0.291387
21
0.952427
31
0.0
0
LINE
8
TOP
10
0.291387
20
0.952427
30
0.0
11
0.293186
21
0.954939
31
0.0
0
LINE
8
TOP
10
0.293186
20
0.954939
30
0.0
11
0.294997
21
0.957441
31
0.0
0
LINE
8
TOP
10
0.294997
20
0.957441
30
0.0
11
0.296823
21
0.959932
31
0.0
0
LINE
8
TOP
10
0.296823
20
0.959932
30
0.0
11
0.298662
21
0.962414
31
0.0
0
LINE
8
TOP
10
0.298662
20
0.962414
30
0.0
11
0.300515
21
0.964885
31
0.0
0
LINE
8
TOP
10
0.300515
20
0.964885
30
0.0
11
0.302381
21
0.967346
31
0.0
0
LINE
8
TOP
10
0.302381
20
0.967346
30
0.0
11
0.304261
21
0.969797
31
0.0
0
LINE
8
TOP
10
0.304261
20
0.969797
30
0.0
11
0.306154
21
0.972238
31
0.0
0
LINE
8
TOP
10
0.306154
20
0.972238
30
0.0
11
0.308061
21
0.974668
31
0.0
0
LINE
8
TOP
10
0.308061
20
0.974668
30
0.0
11
0.309981
21
0.977088
31
0.0
0
LINE
8
TOP
10
0.309981
20
0.977088
30
0.0
11
0.301682
21
0.981338
31
0.0
0
LINE
8
TOP
10
0.301682
20
0.981338
30
0.0
11
0.293675
21
0.986114
31
0.0
0
LINE
8
TOP
10
0.293675
20
0.986114
30
0.0
11
0.285993
21
0.991398
31
0.0
0
LINE
8
TOP
10
0.285993
20
0.991398
30
0.0
11
0.278669
21
0.997166
31
0.0
0
LINE
8
TOP
10
0.278669
20
0.997166
30
0.0
11
0.271731
21
1.003396
31
0.0
0
LINE
8
TOP
10
0.271731
20
1.003396
30
0.0
11
0.265211
21
1.010060
31
0.0
0
LINE
8
TOP
10
0.265211
20
1.010060
30
0.0
11
0.259134
21
1.017131
31
0.0
0
LINE
8
TOP
10
0.259134
20
1.017131
30
0.0
11
0.253526
21
1.024579
31
0.0
0
LINE
8
TOP
10
0.253526
20
1.024579
30
0.0
11
0.248411
21
1.032374
31
0.0
0
LINE
8
TOP
10
0.248411
20
1.032374
30
0.0
11
0.243809
21
1.040483
31
0.0
0
LINE
8
TOP
10
0.243809
20
1.040483
30
0.0
11
0.239741
21
1.048872
31
0.0
0
LINE
8
TOP
10
0.239741
20
1.048872
30
0.0
11
0.236223
21
1.057506
31
0.0
0
LINE
8
TOP
10
0.236223
20
1.057506
30
0.0
11
0.233269
21
1.066349
31
0.0
0
LINE
8
TOP
10
0.233269
20
1.066349
30
0.0
11
0.230892
21
1.075365
31
0.0
0
LINE
8
TOP
10
0.230892
20
1.075365
30
0.0
11
0.229102
21
1.084515
31
0.0
0
LINE
8
TOP
10
0.229102
20
1.084515
30
0.0
11
0.227906
21
1.093761
31
0.0
0
LINE
8
TOP
10
0.227906
20
1.093761
30
0.0
11
0.227310
21
1.103066
31
0.0
0
LINE
8
TOP
10
0.227310
20
1.103066
30
0.0
11
0.227316
21
1.112389
31
0.0
0
LINE
8
TOP
10
0.227316
20
1.112389
30
0.0
11
0.227923
21
1.121693
31
0.0
0
LINE
8
TOP
10
0.227923
20
1.121693
30
0.0
11
0.229130
21
1.130938
31
0.0
0
LINE
8
TOP
10
0.229130
20
1.130938
30
0.0
11
0.230931
21
1.140086
31
0.0
0
LINE
8
TOP
10
0.230931
20
1.140086
30
0.0
11
0.233318
21
1.149099
31
0.0
0
LINE
8
TOP
10
0.233318
20
1.149099
30
0.0
11
0.236283
21
1.157938
31
0.0
0
LINE
8
TOP
10
0.236283
20
1.157938
30
0.0
11
0.239811
21
1.166568
31
0.0
0
LINE
8
TOP
10
0.239811
20
1.166568
30
0.0
11
0.243890
21
1.174952
31
0.0
0
LINE
8
TOP
10
0.243890
20
1.174952
30
0.0
11
0.248501
21
1.183056
31
0.0
0
LINE
8
TOP
10
0.248501
20
1.183056
30
0.0
11
0.253626
21
1.190844
31
0.0
0
LINE
8
TOP
10
0.253626
20
1.190844
30
0.0
11
0.259242
21
1.198286
31
0.0
0
LINE
8
TOP
10
0.259242
20
1.198286
30
0.0
11
0.265328
21
1.205350
31
0.0
0
LINE
8
TOP
10
0.265328
20
1.205350
30
0.0
11
0.271856
21
1.212006
31
0.0
0
LINE
8
TOP
10
0.271856
20
1.212006
30
0.0
11
0.278801
21
1.218227
31
0.0
0
LINE
8
TOP
10
0.278801
20
1.218227
30
0.0
11
0.286132
21
1.223987
31
0.0
0
LINE
8
TOP
10
0.286132
20
1.223987
30
0.0
11
0.293821
21
1.229261
31
0.0
0
LINE
8
TOP
10
0.293821
20
1.229261
30
0.0
11
0.301833
21
1.234028
31
0.0
0
LINE
8
TOP
10
0.301833
20
1.234028
30
0.0
11
0.310137
21
1.238268
31
0.0
0
LINE
8
TOP
10
0.310137
20
1.238268
30
0.0
11
0.318697
21
1.241964
31
0.0
0
LINE
8
TOP
10
0.318697
20
1.241964
30
0.0
11
0.327477
21
1.245099
31
0.0
0
LINE
8
TOP
10
0.327477
20
1.245099
30
0.0
11
0.336442
21
1.247660
31
0.0
0
LINE
8
TOP
10
0.336442
20
1.247660
30
0.0
11
0.345553
21
1.249638
31
0.0
0
LINE
8
TOP
10
0.345553
20
1.249638
30
0.0
11
0.354773
21
1.251023
31
0.0
0
LINE
8
TOP
10
0.354773
20
1.251023
30
0.0
11
0.364064
21
1.251811
31
0.0
0
LINE
8
TOP
10
0.364064
20
1.251811
30
0.0
11
0.373385
21
1.251997
31
0.0
0
LINE
8
TOP
10
0.373385
20
1.251997
30
0.0
11
0.382699
21
1.251581
31
0.0
0
LINE
8
TOP
10
0.382699
20
1.251581
30
0.0
11
0.391967
21
1.250564
31
0.0
0
LINE
8
TOP
10
0.391967
20
1.250564
30
0.0
11
0.401150
21
1.248952
31
0.0
0
LINE
8
TOP
10
0.401150
20
1.248952
30
0.0
11
0.410210
21
1.246750
31
0.0
0
LINE
8
TOP
10
0.410210
20
1.246750
30
0.0
11
0.419109
21
1.243968
31
0.0
0
LINE
8
TOP
10
0.419109
20
1.243968
30
0.0
11
0.427809
21
1.240617
31
0.0
0
LINE
8
TOP
10
0.427809
20
1.240617
30
0.0
11
0.436276
21
1.236712
31
0.0
0
LINE
8
TOP
10
0.436276
20
1.236712
30
0.0
11
0.444472
21
1.232268
31
0.0
0
LINE
8
TOP
10
0.444472
20
1.232268
30
0.0
11
0.452365
21
1.227305
31
0.0
0
LINE
8
TOP
10
0.452365
20
1.227305
30
0.0
11
0.459920
21
1.221843
31
0.0
0
LINE
8
TOP
10
0.459920
20
1.221843
30
0.0
11
0.467108
21
1.215904
31
0.0
0
LINE
8
TOP
10
0.467108
20
1.215904
30
0.0
11
0.473897
21
1.209513
31
0.0
0
LINE
8
TOP
10
0.473897
20
1.209513
30
0.0
11
0.480259
21
1.202698
31
0.0
0
LINE
8
TOP
10
0.480259
20
1.202698
30
0.0
11
0.486168
21
1.195486
31
0.0
0
LINE
8
TOP
10
0.486168
20
1.195486
30
0.0
11
0.491599
21
1.187908
31
0.0
0
LINE
8
TOP
10
0.491599
20
1.187908
30
0.0
11
0.496530
21
1.179995
31
0.0
0
LINE
8
TOP
10
0.496530
20
1.179995
30
0.0
11
0.500940
21
1.171781
31
0.0
0
LINE
8
TOP
10
0.500940
20
1.171781
30
0.0
11
0.504811
21
1.163298
31
0.0
0
LINE
8
TOP
10
0.504811
20
1.163298
30
0.0
11
0.508125
21
1.154584
31
0.0
0
LINE
8
TOP
10
0.508125
20
1.154584
30
0.0
11
0.510871
21
1.145674
31
0.0
0
LINE
8
TOP
10
0.510871
20
1.145674
30
0.0
11
0.513035
21
1.136605
31
0.0
0
LINE
8
TOP
10
0.513035
20
1.136605
30
0.0
11
0.545998
21
1.150644
31
0.0
0
LINE
8
TOP
10
0.545998
20
1.150644
30
0.0
11
0.579787
21
1.162558
31
0.0
0
LINE
8
TOP
10
0.579787
20
1.162558
30
0.0
11
0.614266
21
1.172298
31
0.0
0
LINE
8
TOP
10
0.614266
20
1.172298
30
0.0
11
0.649294
21
1.179825
31
0.0
0
LINE
8
TOP
10
0.649294
20
1.179825
30
0.0
11
0.684731
21
1.185108
31
0.0
0
LINE
8
TOP
10
0.684731
20
1.185108
30
0.0
11
0.720431
21
1.188126
31
0.0
0
LINE
8
TOP
10
0.720431
20
1.188126
30
0.0
11
0.756251
21
1.188867
31
0.0
0
LINE
8
TOP
10
0.756251
20
1.188867
30
0.0
11
0.792046
21
1.187328
31
0.0
0
LINE
8
TOP
10
0.792046
20
1.187328
30
0.0
11
0.827671
21
1.183515
31
0.0
0
LINE
8
TOP
10
0.827671
20
1.183515
30
0.0
11
0.862981
21
1.177443
31
0.0
0
LINE
8
TOP
10
0.862981
20
1.177443
30
0.0
11
0.897832
21
1.169137
31
0.0
0
LINE
8
TOP
10
0.897832
20
1.169137
30
0.0
11
0.932085
21
1.158631
31
0.0
0
LINE
8
TOP
10
0.932085
20
1.158631
30
0.0
11
0.965601
21
1.145967
31
0.0
0
LINE
8
TOP
10
0.965601
20
1.145967
30
0.0
11
0.998242
21
1.131197
31
0.0
0
LINE
8
TOP
10
0.998242
20
1.131197
30
0.0
11
1.029878
21
1.114380
31
0.0
0
LINE
8
TOP
10
1.029878
20
1.114380
30
0.0
11
1.060380
21
1.095585
31
0.0
0
LINE
8
TOP
10
1.060380
20
1.095585
30
0.0
11
1.089625
21
1.074887
31
0.0
0
LINE
8
TOP
10
1.089625
20
1.074887
30
0.0
11
1.117493
21
1.052370
31
0.0
0
LINE
8
TOP
10
1.117493
20
1.052370
30
0.0
11
1.143873
21
1.028127
31
0.0
0
LINE
8
TOP
10
1.143873
20
1.028127
30
0.0
11
1.168657
21
1.002254
31
0.0
0
LINE
8
TOP
10
1.168657
20
1.002254
30
0.0
11
1.191745
21
0.974857
31
0.0
0
LINE
8
TOP
10
1.191745
20
0.974857
30
0.0
11
1.213043
21
0.946047
31
0.0
0
LINE
8
TOP
10
1.213043
20
0.946047
30
0.0
11
1.232466
21
0.915940
31
0.0
0
LINE
8
TOP
10
1.232466
20
0.915940
30
0.0
11
1.249933
21
0.884659
31
0.0
0
LINE
8
TOP
10
1.249933
20
0.884659
30
0.0
11
1.265376
21
0.852330
31
0.0
0
LINE
8
TOP
10
1.265376
20
0.852330
30
0.0
11
1.278730
21
0.819083
31
0.0
0
LINE
8
TOP
10
1.278730
20
0.819083
30
0.0
11
1.289942
21
0.785055
31
0.0
0
LINE
8
TOP
10
1.289942
20
0.785055
30
0.0
11
1.298967
21
0.750382
31
0.0
0
LINE
8
TOP
10
1.298967
20
0.750382
30
0.0
11
1.305768
21
0.715206
31
0.0
0
LINE
8
TOP
10
1.305768
20
0.715206
30
0.0
11
1.310317
21
0.679668
31
0.0
0
LINE
8
TOP
10
1.310317
20
0.679668
30
0.0
11
1.312597
21
0.643912
31
0.0
0
LINE
8
TOP
10
1.312597
20
0.643912
30
0.0
11
1.312597
21
0.608084
31
0.0
0
LINE
8
TOP
10
1.312597
20
0.608084
30
0.0
11
1.310317
21
0.572329
31
0.0
0
LINE
8
TOP
10
1.310317
20
0.572329
30
0.0
11
1.305768
21
0.536791
31
0.0
0
LINE
8
TOP
10
1.305768
20
0.536791
30
0.0
11
1.298967
21
0.501614
31
0.0
0
LINE
8
TOP
10
1.298967
20
0.501614
30
0.0
11
1.289942
21
0.466942
31
0.0
0
LINE
8
TOP
10
1.289942
20
0.466942
30
0.0
11
1.278730
21
0.432913
31
0.0
0
LINE
8
TOP
10
1.278730
20
0.432913
30
0.0
11
1.265376
21
0.399667
31
0.0
0
LINE
8
TOP
10
1.265376
20
0.399667
30
0.0
11
1.249933
21
0.367338
31
0.0
0
LINE
8
TOP
10
1.249933
20
0.367338
30
0.0
11
1.232466
21
0.336057
31
0.0
0
LINE
8
TOP
10
1.232466
20
0.336057
30
0.0
11
1.213043
21
0.305950
31
0.0
0
LINE
8
TOP
10
1.213043
20
0.305950
30
0.0
11
1.191745
21
0.277140
31
0.0
0
LINE
8
TOP
10
1.191745
20
0.277140
30
0.0
11
1.168657
21
0.249743
31
0.0
0
LINE
8
TOP
10
1.168657
20
0.249743
30
0.0
11
1.143873
21
0.223870
31
0.0
0
LINE
8
TOP
10
1.143873
20
0.223870
30
0.0
11
1.117493
21
0.199626
31
0.0
0
LINE
8
TOP
10
1.117493
20
0.199626
30
0.0
11
1.089625
21
0.177110
31
0.0
0
LINE
8
TOP
10
1.089625
20
0.177110
30
0.0
11
1.060380
21
0.156412
31
0.0
0
LINE
8
TOP
10
1.060380
20
0.156412
30
0.0
11
1.029878
21
0.137617
31
0.0
0
LINE
8
TOP
10
1.029878
20
0.137617
30
0.0
11
0.998242
21
0.120800
31
0.0
0
LINE
8
TOP
10
0.998242
20
0.120800
30
0.0
11
0.965601
21
0.106029
31
0.0
0
LINE
8
TOP
10
0.965601
20
0.106029
30
0.0
11
0.932085
21
0.093366
31
0.0
0
LINE
8
TOP
10
0.932085
20
0.093366
30
0.0
11
0.897832
21
0.082859
31
0.0
0
LINE
8
TOP
10
0.897832
20
0.082859
30
0.0
11
0.862981
21
0.074554
31
0.0
0
LINE
8
TOP
10
0.862981
20
0.074554
30
0.0
11
0.827671
21
0.068482
31
0.0
0
LINE
8
TOP
10
0.827671
20
0.068482
30
0.0
11
0.792046
21
0.064669
31
0.0
0
LINE
8
TOP
10
0.792046
20
0.064669
30
0.0
11
0.756251
21
0.063129
31
0.0
0
LINE
8
TOP
10
0.756251
20
0.063129
30
0.0
11
0.720431
21
0.063870
31
0.0
0
LINE
8
TOP
10
0.720431
20
0.063870
30
0.0
11
0.684731
21
0.066889
31
0.0
0
LINE
8
TOP
10
0.684731
20
0.066889
30
0.0
11
0.649294
21
0.072172
31
0.0
0
LINE
8
TOP
10
0.649294
20
0.072172
30
0.0
11
0.614266
21
0.079699
31
0.0
0
LINE
8
TOP
10
0.614266
20
0.079699
30
0.0
11
0.579787
21
0.089439
31
0.0
0
LINE
8
TOP
10
0.579787
20
0.089439
30
0.0
11
0.545998
21
0.101353
31
0.0
0
LINE
8
TOP
10
0.545998
20
0.101353
30
0.0
11
0.513035
21
0.115392
31
0.0
0
LINE
8
TOP
10
0.513035
20
0.115392
30
0.0
11
0.510871
21
0.106323
31
0.0
0
LINE
8
TOP
10
0.510871
20
0.106323
30
0.0
11
0.508125
21
0.097413
31
0.0
0
LINE
8
TOP
10
0.508125
20
0.097413
30
0.0
11
0.504811
21
0.088698
31
0.0
0
LINE
8
TOP
10
0.504811
20
0.088698
30
0.0
11
0.500940
21
0.080216
31
0.0
0
LINE
8
TOP
10
0.500940
20
0.080216
30
0.0
11
0.496530
21
0.072002
31
0.0
0
LINE
8
TOP
10
0.496530
20
0.072002
30
0.0
11
0.491599
21
0.064089
31
0.0
0
LINE
8
TOP
10
0.491599
20
0.064089
30
0.0
11
0.486168
21
0.056510
31
0.0
0
LINE
8
TOP
10
0.486168
20
0.056510
30
0.0
11
0.480259
21
0.049299
31
0.0
0
LINE
8
TOP
10
0.480259
20
0.049299
30
0.0
11
0.473897
21
0.042483
31
0.0
0
LINE
8
TOP
10
0.473897
20
0.042483
30
0.0
11
0.467108
21
0.036093
31
0.0
0
LINE
8
TOP
10
0.467108
20
0.036093
30
0.0
11
0.459920
21
0.030154
31
0.0
0
LINE
8
TOP
10
0.459920
20
0.030154
30
0.0
11
0.452365
21
0.024692
31
0.0
0
LINE
8
TOP
10
0.452365
20
0.024692
30
0.0
11
0.444472
21
0.019728
31
0.0
0
LINE
8
TOP
10
0.444472
20
0.019728
30
0.0
11
0.436276
21
0.015285
31
0.0
0
LINE
8
TOP
10
0.436276
20
0.015285
30
0.0
11
0.427809
21
0.011379
31
0.0
0
LINE
8
TOP
10
0.427809
20
0.011379
30
0.0
11
0.419109
21
0.008029
31
0.0
0
LINE
8
TOP
10
0.419109
20
0.008029
30
0.0
11
0.410210
21
0.005247
31
0.0
0
LINE
8
TOP
10
0.410210
20
0.005247
30
0.0
11
0.401150
21
0.003045
31
0.0
0
LINE
8
TOP
10
0.401150
20
0.003045
30
0.0
11
0.391967
21
0.001432
31
0.0
0
LINE
8
TOP
10
0.391967
20
0.001432
30
0.0
11
0.382699
21
0.000416
31
0.0
0
LINE
8
TOP
10
0.382699
20
0.000416
30
0.0
11
0.373385
21
0.000000
31
0.0
0
LINE
8
TOP
10
0.373385
20
0.000000
30
0.0
11
0.364064
21
0.000186
31
0.0
0
LINE
8
TOP
10
0.364064
20
0.000186
30
0.0
11
0.354773
21
0.000973
31
0.0
0
LINE
8
TOP
10
0.354773
20
0.000973
30
0.0
11
0.345553
21
0.002359
31
0.0
0
LINE
8
TOP
10
0.345553
20
0.002359
30
0.0
11
0.336442
21
0.004337
31
0.0
0
LINE
8
TOP
10
0.336442
20
0.004337
30
0.0
11
0.327477
21
0.006898
31
0.0
0
LINE
8
TOP
10
0.327477
20
0.006898
30
0.0
11
0.318697
21
0.010033
31
0.0
0
LINE
8
TOP
10
0.318697
20
0.010033
30
0.0
11
0.310137
21
0.013728
31
0.0
0
LINE
8
TOP
10
0.310137
20
0.013728
30
0.0
11
0.301833
21
0.017968
31
0.0
0
LINE
8
TOP
10
0.301833
20
0.017968
30
0.0
11
0.293821
21
0.022736
31
0.0
0
LINE
8
TOP
10
0.293821
20
0.022736
30
0.0
11
0.286132
21
0.028010
31
0.0
0
LINE
8
TOP
10
0.286132
20
0.028010
30
0.0
11
0.278801
21
0.033770
31
0.0
0
LINE
8
TOP
10
0.278801
20
0.033770
30
0.0
11
0.271856
21
0.039991
31
0.0
0
LINE
8
TOP
10
0.271856
20
0.039991
30
0.0
11
0.265328
21
0.046647
31
0.0
0
LINE
8
TOP
10
0.265328
20
0.046647
30
0.0
11
0.259242
21
0.053711
31
0.0
0
LINE
8
TOP
10
0.259242
20
0.053711
30
0.0
11
0.253626
21
0.061152
31
0.0
0
LINE
8
TOP
10
0.253626
20
0.061152
30
0.0
11
0.248501
21
0.068941
31
0.0
0
LINE
8
TOP
10
0.248501
20
0.068941
30
0.0
11
0.243890
21
0.077045
31
0.0
0
LINE
8
TOP
10
0.243890
20
0.077045
30
0.0
11
0.239811
21
0.085429
31
0.0
0
LINE
8
TOP
10
0.239811
20
0.085429
30
0.0
11
0.236283
21
0.094059
31
0.0
0
LINE
8
TOP
10
0.236283
20
0.094059
30
0.0
11
0.233318
21
0.102898
31
0.0
0
LINE
8
TOP
10
0.233318
20
0.102898
30
0.0
11
0.230931
21
0.111911
31
0.0
0
LINE
8
TOP
10
0.230931
20
0.111911
30
0.0
11
0.229130
21
0.121059
31
0.0
0
LINE
8
TOP
10
0.229130
20
0.121059
30
0.0
11
0.227923
21
0.130304
31
0.0
0
LINE
8
TOP
10
0.227923
20
0.130304
30
0.0
11
0.227316
21
0.139608
31
0.0
0
LINE
8
TOP
10
0.227316
20
0.139608
30
0.0
11
0.227310
21
0.148931
31
0.0
0
LINE
8
TOP
10
0.227310
20
0.148931
30
0.0
11
0.227906
21
0.158235
31
0.0
0
LINE
8
TOP
10
0.227906
20
0.158235
30
0.0
11
0.229102
21
0.167482
31
0.0
0
LINE
8
TOP
10
0.229102
20
0.167482
30
0.0
11
0.230892
21
0.176632
31
0.0
0
LINE
8
TOP
10
0.230892
20
0.176632
30
0.0
11
0.233269
21
0.185647
31
0.0
0
LINE
8
TOP
10
0.233269
20
0.185647
30
0.0
11
0.236223
21
0.194491
31
0.0
0
LINE
8
TOP
10
0.236223
20
0.194491
30
0.0
11
0.239741
21
0.203125
31
0.0
0
LINE
8
TOP
10
0.239741
20
0.203125
30
0.0
11
0.243809
21
0.211514
31
0.0
0
LINE
8
TOP
10
0.243809
20
0.211514
30
0.0
11
0.248411
21
0.219623
31
0.0
0
LINE
8
TOP
10
0.248411
20
0.219623
30
0.0
11
0.253526
21
0.227418
31
0.0
0
LINE
8
TOP
10
0.253526
20
0.227418
30
0.0
11
0.259134
21
0.234866
31
0.0
0
LINE
8
TOP
10
0.259134
20
0.234866
30
0.0
11
0.265211
21
0.241937
31
0.0
0
LINE
8
TOP
10
0.265211
20
0.241937
30
0.0
11
0.271731
21
0.248601
31
0.0
0
LINE
8
TOP
10
0.271731
20
0.248601
30
0.0
11
0.278669
21
0.254830
31
0.0
0
LINE
8
TOP
10
0.278669
20
0.254830
30
0.0
11
0.285993
21
0.260599
31
0.0
0
LINE
8
TOP
10
0.285993
20
0.260599
30
0.0
11
0.293675
21
0.265882
31
0.0
0
LINE
8
TOP
10
0.293675
20
0.265882
30
0.0
11
0.301682
21
0.270659
31
0.0
0
LINE
8
TOP
10
0.301682
20
0.270659
30
0.0
11
0.309981
21
0.274909
31
0.0
0
LINE
8
TOP
10
0.309981
20
0.274909
30
0.0
11
0.307924
21
0.277503
31
0.0
0
LINE
8
TOP
10
0.307924
20
0.277503
30
0.0
11
0.305882
21
0.280108
31
0.0
0
LINE
8
TOP
10
0.305882
20
0.280108
30
0.0
11
0.303855
21
0.282726
31
0.0
0
LINE
8
TOP
10
0.303855
20
0.282726
30
0.0
11
0.301844
21
0.285355
31
0.0
0
LINE
8
TOP
10
0.301844
20
0.285355
30
0.0
11
0.299849
21
0.287997
31
0.0
0
LINE
8
TOP
10
0.299849
20
0.287997
30
0.0
11
0.297869
21
0.290650
31
0.0
0
LINE
8
TOP
10
0.297869
20
0.290650
30
0.0
11
0.295905
21
0.293314
31
0.0
0
LINE
8
TOP
10
0.295905
20
0.293314
30
0.0
11
0.293956
21
0.295990
31
0.0
0
LINE
8
TOP
10
0.293956
20
0.295990
30
0.0
11
0.292023
21
0.298678
31
0.0
0
LINE
8
TOP
10
0.292023
20
0.298678
30
0.0
11
0.290106
21
0.301376
31
0.0
0
LINE
8
TOP
10
0.290106
20
0.301376
30
0.0
11
0.288205
21
0.304086
31
0.0
0
LINE
8
TOP
10
0.288205
20
0.304086
30
0.0
11
0.286320
21
0.306808
31
0.0
0
LINE
8
TOP
10
0.286320
20
0.306808
30
0.0
11
0.284451
21
0.309540
31
0.0
0
LINE
8
TOP
10
0.284451
20
0.309540
30
0.0
11
0.282598
21
0.312283
31
0.0
0
LINE
8
TOP
10
0.282598
20
0.312283
30
0.0
11
0.280761
21
0.315037
31
0.0
0
LINE
8
TOP
10
0.280761
20
0.315037
30
0.0
11
0.278941
21
0.317802
31
0.0
0
LINE
8
TOP
10
0.278941
20
0.317802
30
0.0
11
0.277137
21
0.320577
31
0.0
0
LINE
8
TOP
10
0.277137
20
0.320577
30
0.0
11
0.275349
21
0.323363
31
0.0
0
LINE
8
TOP
10
0.275349
20
0.323363
30
0.0
11
0.273577
21
0.326159
31
0.0
0
LINE
8
TOP
10
0.273577
20
0.326159
30
0.0
11
0.271822
21
0.328966
31
0.0
0
LINE
8
TOP
10
0.271822
20
0.328966
30
0.0
11
0.270084
21
0.331783
31
0.0
0
LINE
8
TOP
10
0.270084
20
0.331783
30
0.0
11
0.268362
21
0.334610
31
0.0
0
LINE
8
TOP
10
0.268362
20
0.334610
30
0.0
11
0.266656
21
0.337448
31
0.0
0
LINE
8
TOP
10
0.266656
20
0.337448
30
0.0
11
0.264968
21
0.340295
31
0.0
0
LINE
8
TOP
10
0.264968
20
0.340295
30
0.0
11
0.263296
21
0.343152
31
0.0
0
LINE
8
TOP
10
0.263296
20
0.343152
30
0.0
11
0.261641
21
0.346019
31
0.0
0
LINE
8
TOP
10
0.261641
20
0.346019
30
0.0
11
0.260003
21
0.348896
31
0.0
0
LINE
8
TOP
10
0.260003
20
0.348896
30
0.0
11
0.258382
21
0.351782
31
0.0
0
LINE
8
TOP
10
0.258382
20
0.351782
30
0.0
11
0.256778
21
0.354678
31
0.0
0
LINE
8
TOP
10
0.256778
20
0.354678
30
0.0
11
0.255191
21
0.357583
31
0.0
0
LINE
8
TOP
10
0.255191
20
0.357583
30
0.0
11
0.253621
21
0.360497
31
0.0
0
LINE
8
TOP
10
0.253621
20
0.360497
30
0.0
11
0.252068
21
0.363421
31
0.0
0
LINE
8
TOP
10
0.252068
20
0.363421
30
0.0
11
0.250533
21
0.366353
31
0.0
0
LINE
8
TOP
10
0.250533
20
0.366353
30
0.0
11
0.249014
21
0.369295
31
0.0
0
LINE
8
TOP
10
0.249014
20
0.369295
30
0.0
11
0.247513
21
0.372245
31
0.0
0
LINE
8
TOP
10
0.247513
20
0.372245
30
0.0
11
0.246030
21
0.375205
31
0.0
0
LINE
8
TOP
10
0.246030
20
0.375205
30
0.0
11
0.244564
21
0.378173
31
0.0
0
LINE
8
TOP
10
0.244564
20
0.378173
30
0.0
11
0.243115
21
0.381149
31
0.0
0
LINE
8
TOP
10
0.243115
20
0.381149
30
0.0
11
0.241684
21
0.384134
31
0.0
0
LINE
8
TOP
10
0.241684
20
0.384134
30
0.0
11
0.240270
21
0.387128
31
0.0
0
LINE
8
TOP
10
0.240270
20
0.387128
30
0.0
11
0.238874
21
0.390129
31
0.0
0
LINE
8
TOP
10
0.238874
20
0.390129
30
0.0
11
0.237496
21
0.393139
31
0.0
0
LINE
8
TOP
10
0.237496
20
0.393139
30
0.0
11
0.236136
21
0.396157
31
0.0
0
LINE
8
TOP
10
0.236136
20
0.396157
30
0.0
11
0.234793
21
0.399182
31
0.0
0
LINE
8
TOP
10
0.234793
20
0.399182
30
0.0
11
0.233468
21
0.402216
31
0.0
0
LINE
8
TOP
10
0.233468
20
0.402216
30
0.0
11
0.232161
21
0.405257
31
0.0
0
LINE
8
TOP
10
0.232161
20
0.405257
30
0.0
11
0.230872
21
0.408306
31
0.0
0
LINE
8
TOP
10
0.230872
20
0.408306
30
0.0
11
0.229600
21
0.411363
31
0.0
0
LINE
8
TOP
10
0.229600
20
0.411363
30
0.0
11
0.228347
21
0.414427
31
0.0
0
LINE
8
TOP
10
0.228347
20
0.414427
30
0.0
11
0.227112
21
0.417498
31
0.0
0
LINE
8
TOP
10
0.227112
20
0.417498
30
0.0
11
0.225895
21
0.420576
31
0.0
0
LINE
8
TOP
10
0.225895
20
0.420576
30
0.0
11
0.224696
21
0.423662
31
0.0
0
LINE
8
TOP
10
0.224696
20
0.423662
30
0.0
11
0.223515
21
0.426755
31
0.0
0
LINE
8
TOP
10
0.223515
20
0.426755
30
0.0
11
0.222353
21
0.429854
31
0.0
0
LINE
8
TOP
10
0.222353
20
0.429854
30
0.0
11
0.221208
21
0.432960
31
0.0
0
LINE
8
TOP
10
0.221208
20
0.432960
30
0.0
11
0.220082
21
0.436073
31
0.0
0
LINE
8
TOP
10
0.220082
20
0.436073
30
0.0
11
0.218974
21
0.439193
31
0.0
0
LINE
8
TOP
10
0.218974
20
0.439193
30
0.0
11
0.217885
21
0.442319
31
0.0
0
LINE
8
TOP
10
0.217885
20
0.442319
30
0.0
11
0.216814
21
0.445451
31
0.0
0
LINE
8
TOP
10
0.216814
20
0.445451
30
0.0
11
0.215761
21
0.448589
31
0.0
0
LINE
8
TOP
10
0.215761
20
0.448589
30
0.0
11
0.214727
21
0.451734
31
0.0
0
LINE
8
TOP
10
0.214727
20
0.451734
30
0.0
11
0.213712
21
0.454885
31
0.0
0
LINE
8
TOP
10
0.213712
20
0.454885
30
0.0
11
0.212715
21
0.458041
31
0.0
0
ENDSEC
0
EOF
