0
SECTION
2
HEADER
9
$ACADVER
1
AC1009
0
ENDSEC
0
SECTION
2
TABLES
0
TABLE
2
LTYPE
70
3
0
LTYPE
2
CONTINUOUS
70
0
3
Solid line
72
65
73
0
40
0.0
0
LTYPE
2
HIDDEN
70
0
3
__ __ __ __ __
72
65
73
2
40
0.010129
49
0.006756
49
-0.003373
0
LTYPE
2
CENTER
70
0
3
___ _ ___ _ ___
72
65
73
4
40
0.023631
49
0.013502
49
-0.003373
49
0.003373
49
-0.003373
0
ENDTAB
0
TABLE
2
LAYER
70
5
0
LAYER
2
0
70
0
62
7
6
CONTINUOUS
0
LAYER
2
FRONT
70
0
62
7
6
CONTINUOUS
0
LAYER
2
LEFT
70
0
62
7
6
CONTINUOUS
0
LAYER
2
LEFT_HID
70
0
62
7
6
HIDDEN
0
LAYER
2
TOP
70
0
62
7
6
CONTINUOUS
0
ENDTAB
0
ENDSEC
0
SECTION
2
ENTITIES
0
LINE
8
FRONT
10
0.202581
20
0.243034
30
0.0
11
0.000000
21
0.243034
31
0.0
0
LINE
8
FRONT
10
0.202581
20
0.243034
30
0.0
11
0.202581
21
0.387735
31
0.0
0
LINE
8
FRONT
10
0.202581
20
0.387735
30
0.0
11
0.000000
21
0.387735
31
0.0
0
LINE
8
FRONT
10
0.000000
20
0.387735
30
0.0
11
0.000000
21
0.243034
31
0.0
0
LINE
8
LEFT
10
0.243097
20
0.243034
30
0.0
11
0.445678
21
0.243034
31
0.0
0
LINE
8
LEFT
10
0.243097
20
0.387735
30
0.0
11
0.445678
21
0.387735
31
0.0
0
LINE
8
LEFT
10
0.243097
20
0.387735
30
0.0
11
0.243097
21
0.243034
31
0.0
0
LINE
8
LEFT
10
0.445678
20
0.387735
30
0.0
11
0.445678
21
0.243034
31
0.0
0
LINE
8
LEFT_HID
6
HIDDEN
10
0.344388
20
0.243034
30
0.0
11
0.243097
21
0.243034
31
0.0
0
LINE
8
LEFT_HID
6
HIDDEN
10
0.445678
20
0.243034
30
0.0
11
0.344388
21
0.243034
31
0.0
0
LINE
8
LEFT_HID
6
HIDDEN
10
0.344388
20
0.387735
30
0.0
11
0.243097
21
0.387735
31
0.0
0
LINE
8
LEFT_HID
6
HIDDEN
10
0.445678
20
0.387735
30
0.0
11
0.344388
21
0.387735
31
0.0
0
LINE
8
TOP
10
0.202455
20
0.101259
30
0.0
11
0.201952
21
0.111344
31
0.0
0
LINE
8
TOP
10
0.201952
20
0.111344
30
0.0
11
0.200447
21
0.121329
31
0.0
0
LINE
8
TOP
10
0.200447
20
0.121329
30
0.0
11
0.197955
21
0.131115
31
0.0
0
LINE
8
TOP
10
0.197955
20
0.131115
30
0.0
11
0.194501
21
0.140604
31
0.0
0
LINE
8
TOP
10
0.194501
20
0.140604
30
0.0
11
0.190120
21
0.149702
31
0.0
0
LINE
8
TOP
10
0.190120
20
0.149702
30
0.0
11
0.184855
21
0.158318
31
0.0
0
LINE
8
TOP
10
0.184855
20
0.158318
30
0.0
11
0.178758
21
0.166367
31
0.0
0
LINE
8
TOP
10
0.178758
20
0.166367
30
0.0
11
0.171889
21
0.173770
31
0.0
0
LINE
8
TOP
10
0.171889
20
0.173770
30
0.0
11
0.164318
21
0.180451
31
0.0
0
LINE
8
TOP
10
0.164318
20
0.180451
30
0.0
11
0.156119
21
0.186346
31
0.0
0
LINE
8
TOP
10
0.156119
20
0.186346
30
0.0
11
0.147374
21
0.191395
31
0.0
0
LINE
8
TOP
10
0.147374
20
0.191395
30
0.0
11
0.138170
21
0.195548
31
0.0
0
LINE
8
TOP
10
0.138170
20
0.195548
30
0.0
11
0.128598
21
0.198764
31
0.0
0
LINE
8
TOP
10
0.128598
20
0.198764
30
0.0
11
0.118754
21
0.201011
31
0.0
0
LINE
8
TOP
10
0.118754
20
0.201011
30
0.0
11
0.108734
21
0.202266
31
0.0
0
LINE
8
TOP
10
0.108734
20
0.202266
30
0.0
11
0.098639
21
0.202518
31
0.0
0
LINE
8
TOP
10
0.098639
20
0.202518
30
0.0
11
0.088570
21
0.201764
31
0.0
0
LINE
8
TOP
10
0.088570
20
0.201764
30
0.0
11
0.078625
21
0.200010
31
0.0
0
LINE
8
TOP
10
0.078625
20
0.200010
30
0.0
11
0.068905
21
0.197275
31
0.0
0
LINE
8
TOP
10
0.068905
20
0.197275
30
0.0
11
0.059505
21
0.193586
31
0.0
0
LINE
8
TOP
10
0.059505
20
0.193586
30
0.0
11
0.050519
21
0.188979
31
0.0
0
LINE
8
TOP
10
0.050519
20
0.188979
30
0.0
11
0.042037
21
0.183501
31
0.0
0
LINE
8
TOP
10
0.042037
20
0.183501
30
0.0
11
0.034142
21
0.177205
31
0.0
0
LINE
8
TOP
10
0.034142
20
0.177205
30
0.0
11
0.026913
21
0.170154
31
0.0
0
LINE
8
TOP
10
0.026913
20
0.170154
30
0.0
11
0.020423
21
0.162419
31
0.0
0
LINE
8
TOP
10
0.020423
20
0.162419
30
0.0
11
0.014734
21
0.154076
31
0.0
0
LINE
8
TOP
10
0.014734
20
0.154076
30
0.0
11
0.009905
21
0.145207
31
0.0
0
LINE
8
TOP
10
0.009905
20
0.145207
30
0.0
11
0.005983
21
0.135902
31
0.0
0
LINE
8
TOP
10
0.005983
20
0.135902
30
0.0
11
0.003006
21
0.126253
31
0.0
0
LINE
8
TOP
10
0.003006
20
0.126253
30
0.0
11
0.001005
21
0.116356
31
0.0
0
LINE
8
TOP
10
0.001005
20
0.116356
30
0.0
11
0.000000
21
0.106308
31
0.0
0
LINE
8
TOP
10
0.000000
20
0.106308
30
0.0
11
0.000000
21
0.096210
31
0.0
0
LINE
8
TOP
10
0.000000
20
0.096210
30
0.0
11
0.001005
21
0.086163
31
0.0
0
LINE
8
TOP
10
0.001005
20
0.086163
30
0.0
11
0.003006
21
0.076265
31
0.0
0
LINE
8
TOP
10
0.003006
20
0.076265
30
0.0
11
0.005983
21
0.066616
31
0.0
0
LINE
8
TOP
10
0.005983
20
0.066616
30
0.0
11
0.009905
21
0.057311
31
0.0
0
LINE
8
TOP
10
0.009905
20
0.057311
30
0.0
11
0.014734
21
0.048443
31
0.0
0
LINE
8
TOP
10
0.014734
20
0.048443
30
0.0
11
0.020423
21
0.040099
31
0.0
0
LINE
8
TOP
10
0.020423
20
0.040099
30
0.0
11
0.026913
21
0.032364
31
0.0
0
LINE
8
TOP
10
0.026913
20
0.032364
30
0.0
11
0.034142
21
0.025313
31
0.0
0
LINE
8
TOP
10
0.034142
20
0.025313
30
0.0
11
0.042037
21
0.019017
31
0.0
0
LINE
8
TOP
10
0.042037
20
0.019017
30
0.0
11
0.050519
21
0.013539
31
0.0
0
LINE
8
TOP
10
0.050519
20
0.013539
30
0.0
11
0.059505
21
0.008932
31
0.0
0
LINE
8
TOP
10
0.059505
20
0.008932
30
0.0
11
0.068905
21
0.005243
31
0.0
0
LINE
8
TOP
10
0.068905
20
0.005243
30
0.0
11
0.078625
21
0.002508
31
0.0
0
LINE
8
TOP
10
0.078625
20
0.002508
30
0.0
11
0.088570
21
0.000755
31
0.0
0
LINE
8
TOP
10
0.088570
20
0.000755
30
0.0
11
0.098639
21
0.000000
31
0.0
0
LINE
8
TOP
10
0.098639
20
0.000000
30
0.0
11
0.108734
21
0.000252
31
0.0
0
LINE
8
TOP
10
0.108734
20
0.000252
30
0.0
11
0.118754
21
0.001507
31
0.0
0
LINE
8
TOP
10
0.118754
20
0.001507
30
0.0
11
0.128598
21
0.003754
31
0.0
0
LINE
8
TOP
10
0.128598
20
0.003754
30
0.0
11
0.138170
21
0.006970
31
0.0
0
LINE
8
TOP
10
0.138170
20
0.006970
30
0.0
11
0.147374
21
0.011123
31
0.0
0
LINE
8
TOP
10
0.147374
20
0.011123
30
0.0
11
0.156119
21
0.016172
31
0.0
0
LINE
8
TOP
10
0.156119
20
0.016172
30
0.0
11
0.164318
21
0.022067
31
0.0
0
LINE
8
TOP
10
0.164318
20
0.022067
30
0.0
11
0.171889
21
0.028749
31
0.0
0
LINE
8
TOP
10
0.171889
20
0.028749
30
0.0
11
0.178758
21
0.036151
31
0.0
0
LINE
8
TOP
10
0.178758
20
0.036151
30
0.0
11
0.184855
21
0.044200
31
0.0
0
LINE
8
TOP
10
0.184855
20
0.044200
30
0.0
11
0.190120
21
0.052816
31
0.0
0
LINE
8
TOP
10
0.190120
20
0.052816
30
0.0
11
0.194501
21
0.061914
31
0.0
0
LINE
8
TOP
10
0.194501
20
0.061914
30
0.0
11
0.197955
21
0.071403
31
0.0
0
LINE
8
TOP
10
0.197955
20
0.071403
30
0.0
11
0.200447
21
0.081189
31
0.0
0
LINE
8
TOP
10
0.200447
20
0.081189
30
0.0
11
0.201952
21
0.091174
31
0.0
0
LINE
8
TOP
10
0.201952
20
0.091174
30
0.0
11
0.202455
21
0.101259
31
0.0
0
ENDSEC
0
EOF
