0
SECTION
2
HEADER
9
$ACADVER
1
AC1009
0
ENDSEC
0
SECTION
2
TABLES
0
TABLE
2
LTYPE
70
3
0
LTYPE
2
CONTINUOUS
70
0
3
Solid line
72
65
73
0
40
0.0
0
LTYPE
2
HIDDEN
70
0
3
__ __ __ __ __
72
65
73
2
40
0.037500
49
0.025013
49
-0.012488
0
LTYPE
2
CENTER
70
0
3
___ _ ___ _ ___
72
65
73
4
40
0.087488
49
0.049988
49
-0.012488
49
0.012488
49
-0.012488
0
ENDTAB
0
TABLE
2
LAYER
70
6
0
LAYER
2
0
70
0
62
7
6
CONTINUOUS
0
LAYER
2
FRONT
70
0
62
7
6
CONTINUOUS
0
LAYER
2
FRONT_HID
70
0
62
7
6
HIDDEN
0
LAYER
2
LEFT
70
0
62
7
6
CONTINUOUS
0
LAYER
2
TOP
70
0
62
7
6
CONTINUOUS
0
LAYER
2
TOP_HID
70
0
62
7
6
HIDDEN
0
ENDTAB
0
ENDSEC
0
SECTION
2
ENTITIES
0
LINE
8
FRONT
10
0.017500
20
0.608630
30
0.0
11
0.000000
21
0.608630
31
0.0
0
LINE
8
FRONT
10
0.000000
20
0.608630
30
0.0
11
0.000000
21
0.616963
31
0.0
0
LINE
8
FRONT
10
0.017500
20
0.608630
30
0.0
11
0.017500
21
0.616963
31
0.0
0
LINE
8
FRONT
10
0.000000
20
0.616963
30
0.0
11
0.000000
21
0.663590
31
0.0
0
LINE
8
FRONT
10
0.017500
20
0.616963
30
0.0
11
0.017500
21
0.663590
31
0.0
0
LINE
8
FRONT
10
0.000000
20
0.663590
30
0.0
11
0.000000
21
1.358630
31
0.0
0
LINE
8
FRONT
10
0.017500
20
1.358630
30
0.0
11
0.000000
21
1.358630
31
0.0
0
LINE
8
FRONT
10
0.017500
20
0.663590
30
0.0
11
0.017500
21
1.358630
31
0.0
0
LINE
8
FRONT
10
0.017500
20
0.663590
30
0.0
11
0.000000
21
0.663590
31
0.0
0
LINE
8
FRONT
10
0.000000
20
0.616963
30
0.0
11
0.017500
21
0.616963
31
0.0
0
LINE
8
FRONT_HID
6
HIDDEN
10
0.000000
20
0.616963
30
0.0
11
0.000000
21
0.651230
31
0.0
0
LINE
8
FRONT_HID
6
HIDDEN
10
0.017500
20
0.651230
30
0.0
11
0.000000
21
0.651230
31
0.0
0
LINE
8
FRONT_HID
6
HIDDEN
10
0.017500
20
0.616963
30
0.0
11
0.017500
21
0.651230
31
0.0
0
LINE
8
FRONT_HID
6
HIDDEN
10
0.000000
20
0.651230
30
0.0
11
0.000000
21
0.616963
31
0.0
0
LINE
8
FRONT_HID
6
HIDDEN
10
0.017500
20
0.651230
30
0.0
11
0.017500
21
0.616963
31
0.0
0
LINE
8
FRONT_HID
6
HIDDEN
10
0.000000
20
1.358630
30
0.0
11
0.000000
21
0.608630
31
0.0
0
LINE
8
FRONT_HID
6
HIDDEN
10
0.017500
20
1.358630
30
0.0
11
0.017500
21
0.608630
31
0.0
0
LINE
8
FRONT_HID
6
HIDDEN
10
0.000000
20
0.750620
30
0.0
11
0.000000
21
0.732075
31
0.0
0
LINE
8
FRONT_HID
6
HIDDEN
10
0.000000
20
1.010614
30
0.0
11
0.000000
21
0.750620
31
0.0
0
LINE
8
FRONT_HID
6
HIDDEN
10
0.000000
20
1.025296
30
0.0
11
0.000000
21
1.010614
31
0.0
0
LINE
8
FRONT_HID
6
HIDDEN
10
0.000000
20
1.008630
30
0.0
11
0.000000
21
1.025296
31
0.0
0
LINE
8
FRONT_HID
6
HIDDEN
10
0.000000
20
0.720601
30
0.0
11
0.000000
21
1.008630
31
0.0
0
LINE
8
FRONT_HID
6
HIDDEN
10
0.000000
20
0.704040
30
0.0
11
0.000000
21
0.720601
31
0.0
0
LINE
8
FRONT_HID
6
HIDDEN
10
0.000000
20
0.732075
30
0.0
11
0.000000
21
0.704040
31
0.0
0
LINE
8
FRONT_HID
6
HIDDEN
10
0.000000
20
1.127280
30
0.0
11
0.000000
21
1.108630
31
0.0
0
LINE
8
FRONT_HID
6
HIDDEN
10
0.000000
20
1.260614
30
0.0
11
0.000000
21
1.127280
31
0.0
0
LINE
8
FRONT_HID
6
HIDDEN
10
0.000000
20
1.275296
30
0.0
11
0.000000
21
1.260614
31
0.0
0
LINE
8
FRONT_HID
6
HIDDEN
10
0.000000
20
1.258630
30
0.0
11
0.000000
21
1.275296
31
0.0
0
LINE
8
FRONT_HID
6
HIDDEN
10
0.000000
20
1.125296
30
0.0
11
0.000000
21
1.258630
31
0.0
0
LINE
8
FRONT_HID
6
HIDDEN
10
0.000000
20
1.108630
30
0.0
11
0.000000
21
1.125296
31
0.0
0
LINE
8
LEFT
10
0.626120
20
0.608630
30
0.0
11
0.250161
21
0.651230
31
0.0
0
LINE
8
LEFT
10
0.250161
20
0.651230
30
0.0
11
0.249750
21
0.649233
31
0.0
0
LINE
8
LEFT
10
0.249750
20
0.649233
30
0.0
11
0.249242
21
0.647259
31
0.0
0
LINE
8
LEFT
10
0.249242
20
0.647259
30
0.0
11
0.248638
21
0.645312
31
0.0
0
LINE
8
LEFT
10
0.248638
20
0.645312
30
0.0
11
0.247940
21
0.643397
31
0.0
0
LINE
8
LEFT
10
0.247940
20
0.643397
30
0.0
11
0.247148
21
0.641519
31
0.0
0
LINE
8
LEFT
10
0.247148
20
0.641519
30
0.0
11
0.246266
21
0.639681
31
0.0
0
LINE
8
LEFT
10
0.246266
20
0.639681
30
0.0
11
0.245295
21
0.637889
31
0.0
0
LINE
8
LEFT
10
0.245295
20
0.637889
30
0.0
11
0.244237
21
0.636146
31
0.0
0
LINE
8
LEFT
10
0.244237
20
0.636146
30
0.0
11
0.243096
21
0.634458
31
0.0
0
LINE
8
LEFT
10
0.243096
20
0.634458
30
0.0
11
0.241873
21
0.632827
31
0.0
0
LINE
8
LEFT
10
0.241873
20
0.632827
30
0.0
11
0.240572
21
0.631258
31
0.0
0
LINE
8
LEFT
10
0.240572
20
0.631258
30
0.0
11
0.239196
21
0.629754
31
0.0
0
LINE
8
LEFT
10
0.239196
20
0.629754
30
0.0
11
0.237747
21
0.628319
31
0.0
0
LINE
8
LEFT
10
0.237747
20
0.628319
30
0.0
11
0.236231
21
0.626957
31
0.0
0
LINE
8
LEFT
10
0.236231
20
0.626957
30
0.0
11
0.234649
21
0.625671
31
0.0
0
LINE
8
LEFT
10
0.234649
20
0.625671
30
0.0
11
0.233007
21
0.624464
31
0.0
0
LINE
8
LEFT
10
0.233007
20
0.624464
30
0.0
11
0.231307
21
0.623338
31
0.0
0
LINE
8
LEFT
10
0.231307
20
0.623338
30
0.0
11
0.229555
21
0.622297
31
0.0
0
LINE
8
LEFT
10
0.229555
20
0.622297
30
0.0
11
0.227754
21
0.621343
31
0.0
0
LINE
8
LEFT
10
0.227754
20
0.621343
30
0.0
11
0.225908
21
0.620478
31
0.0
0
LINE
8
LEFT
10
0.225908
20
0.620478
30
0.0
11
0.224022
21
0.619705
31
0.0
0
LINE
8
LEFT
10
0.224022
20
0.619705
30
0.0
11
0.222100
21
0.619024
31
0.0
0
LINE
8
LEFT
10
0.222100
20
0.619024
30
0.0
11
0.220148
21
0.618439
31
0.0
0
LINE
8
LEFT
10
0.220148
20
0.618439
30
0.0
11
0.218169
21
0.617949
31
0.0
0
LINE
8
LEFT
10
0.218169
20
0.617949
30
0.0
11
0.216169
21
0.617557
31
0.0
0
LINE
8
LEFT
10
0.216169
20
0.617557
30
0.0
11
0.214152
21
0.617263
31
0.0
0
LINE
8
LEFT
10
0.214152
20
0.617263
30
0.0
11
0.212123
21
0.617069
31
0.0
0
LINE
8
LEFT
10
0.212123
20
0.617069
30
0.0
11
0.210086
21
0.616973
31
0.0
0
LINE
8
LEFT
10
0.210086
20
0.616973
30
0.0
11
0.208048
21
0.616978
31
0.0
0
LINE
8
LEFT
10
0.208048
20
0.616978
30
0.0
11
0.206012
21
0.617082
31
0.0
0
LINE
8
LEFT
10
0.206012
20
0.617082
30
0.0
11
0.203984
21
0.617285
31
0.0
0
LINE
8
LEFT
10
0.203984
20
0.617285
30
0.0
11
0.201968
21
0.617588
31
0.0
0
LINE
8
LEFT
10
0.201968
20
0.617588
30
0.0
11
0.199970
21
0.617988
31
0.0
0
LINE
8
LEFT
10
0.199970
20
0.617988
30
0.0
11
0.197993
21
0.618486
31
0.0
0
LINE
8
LEFT
10
0.197993
20
0.618486
30
0.0
11
0.196043
21
0.619081
31
0.0
0
LINE
8
LEFT
10
0.196043
20
0.619081
30
0.0
11
0.194124
21
0.619769
31
0.0
0
LINE
8
LEFT
10
0.194124
20
0.619769
30
0.0
11
0.192242
21
0.620551
31
0.0
0
LINE
8
LEFT
10
0.192242
20
0.620551
30
0.0
11
0.190400
21
0.621424
31
0.0
0
LINE
8
LEFT
10
0.190400
20
0.621424
30
0.0
11
0.188603
21
0.622386
31
0.0
0
LINE
8
LEFT
10
0.188603
20
0.622386
30
0.0
11
0.186855
21
0.623434
31
0.0
0
LINE
8
LEFT
10
0.186855
20
0.623434
30
0.0
11
0.185160
21
0.624567
31
0.0
0
LINE
8
LEFT
10
0.185160
20
0.624567
30
0.0
11
0.183523
21
0.625781
31
0.0
0
LINE
8
LEFT
10
0.183523
20
0.625781
30
0.0
11
0.181947
21
0.627074
31
0.0
0
LINE
8
LEFT
10
0.181947
20
0.627074
30
0.0
11
0.180436
21
0.628443
31
0.0
0
LINE
8
LEFT
10
0.180436
20
0.628443
30
0.0
11
0.178994
21
0.629884
31
0.0
0
LINE
8
LEFT
10
0.178994
20
0.629884
30
0.0
11
0.177625
21
0.631393
31
0.0
0
LINE
8
LEFT
10
0.177625
20
0.631393
30
0.0
11
0.176330
21
0.632968
31
0.0
0
LINE
8
LEFT
10
0.176330
20
0.632968
30
0.0
11
0.175115
21
0.634604
31
0.0
0
LINE
8
LEFT
10
0.175115
20
0.634604
30
0.0
11
0.173980
21
0.636298
31
0.0
0
LINE
8
LEFT
10
0.173980
20
0.636298
30
0.0
11
0.172930
21
0.638045
31
0.0
0
LINE
8
LEFT
10
0.172930
20
0.638045
30
0.0
11
0.171967
21
0.639841
31
0.0
0
LINE
8
LEFT
10
0.171967
20
0.639841
30
0.0
11
0.171092
21
0.641683
31
0.0
0
LINE
8
LEFT
10
0.171092
20
0.641683
30
0.0
11
0.170309
21
0.643565
31
0.0
0
LINE
8
LEFT
10
0.170309
20
0.643565
30
0.0
11
0.169619
21
0.645483
31
0.0
0
LINE
8
LEFT
10
0.169619
20
0.645483
30
0.0
11
0.169023
21
0.647432
31
0.0
0
LINE
8
LEFT
10
0.169023
20
0.647432
30
0.0
11
0.168524
21
0.649408
31
0.0
0
LINE
8
LEFT
10
0.168524
20
0.649408
30
0.0
11
0.168121
21
0.651407
31
0.0
0
LINE
8
LEFT
10
0.168121
20
0.651407
30
0.0
11
0.167817
21
0.653422
31
0.0
0
LINE
8
LEFT
10
0.167817
20
0.653422
30
0.0
11
0.167612
21
0.655450
31
0.0
0
LINE
8
LEFT
10
0.167612
20
0.655450
30
0.0
11
0.167506
21
0.657486
31
0.0
0
LINE
8
LEFT
10
0.167506
20
0.657486
30
0.0
11
0.167500
21
0.659524
31
0.0
0
LINE
8
LEFT
10
0.167500
20
0.659524
30
0.0
11
0.167594
21
0.661561
31
0.0
0
LINE
8
LEFT
10
0.167594
20
0.661561
30
0.0
11
0.167787
21
0.663590
31
0.0
0
LINE
8
LEFT
10
0.167787
20
0.663590
30
0.0
11
0.251120
21
1.358630
31
0.0
0
LINE
8
LEFT
10
0.251120
20
1.358630
30
0.0
11
0.626120
21
1.358630
31
0.0
0
LINE
8
LEFT
10
0.626120
20
1.358630
30
0.0
11
0.626120
21
0.608630
31
0.0
0
LINE
8
TOP
10
0.000000
20
0.458630
30
0.0
11
0.000000
21
0.458333
31
0.0
0
LINE
8
TOP
10
0.017500
20
0.458630
30
0.0
11
0.017500
21
0.458333
31
0.0
0
LINE
8
TOP
10
0.000000
20
0.458333
30
0.0
11
0.000000
21
0.375000
31
0.0
0
LINE
8
TOP
10
0.017500
20
0.375000
30
0.0
11
0.000000
21
0.375000
31
0.0
0
LINE
8
TOP
10
0.017500
20
0.458333
30
0.0
11
0.017500
21
0.375000
31
0.0
0
LINE
8
TOP
10
0.000000
20
0.375000
30
0.0
11
0.000000
21
0.000000
31
0.0
0
LINE
8
TOP
10
0.017500
20
0.000000
30
0.0
11
0.000000
21
0.000000
31
0.0
0
LINE
8
TOP
10
0.017500
20
0.375000
30
0.0
11
0.017500
21
0.000000
31
0.0
0
LINE
8
TOP
10
0.017500
20
0.458333
30
0.0
11
0.000000
21
0.458333
31
0.0
0
LINE
8
TOP
10
0.000000
20
0.458630
30
0.0
11
0.017500
21
0.458630
31
0.0
0
LINE
8
TOP_HID
6
HIDDEN
10
0.000000
20
0.000000
30
0.0
11
0.000000
21
0.375959
31
0.0
0
LINE
8
TOP_HID
6
HIDDEN
10
0.017500
20
0.375959
30
0.0
11
0.000000
21
0.375959
31
0.0
0
LINE
8
TOP_HID
6
HIDDEN
10
0.017500
20
0.000000
30
0.0
11
0.017500
21
0.375959
31
0.0
0
LINE
8
TOP_HID
6
HIDDEN
10
0.000000
20
0.375959
30
0.0
11
0.000000
21
0.458630
31
0.0
0
LINE
8
TOP_HID
6
HIDDEN
10
0.017500
20
0.375959
30
0.0
11
0.017500
21
0.458630
31
0.0
0
LINE
8
TOP_HID
6
HIDDEN
10
0.000000
20
0.097413
30
0.0
11
0.000000
21
0.112085
31
0.0
0
LINE
8
TOP_HID
6
HIDDEN
10
0.000000
20
0.128585
30
0.0
11
0.000000
21
0.097413
31
0.0
0
LINE
8
TOP_HID
6
HIDDEN
10
0.000000
20
0.145134
30
0.0
11
0.000000
21
0.128585
31
0.0
0
LINE
8
TOP_HID
6
HIDDEN
10
0.000000
20
0.361381
30
0.0
11
0.000000
21
0.145134
31
0.0
0
LINE
8
TOP_HID
6
HIDDEN
10
0.000000
20
0.378048
30
0.0
11
0.000000
21
0.361381
31
0.0
0
LINE
8
TOP_HID
6
HIDDEN
10
0.000000
20
0.359505
30
0.0
11
0.000000
21
0.378048
31
0.0
0
LINE
8
TOP_HID
6
HIDDEN
10
0.000000
20
0.112085
30
0.0
11
0.000000
21
0.359505
31
0.0
0
LINE
8
TOP_HID
6
HIDDEN
10
0.000000
20
0.142573
30
0.0
11
0.000000
21
0.159122
31
0.0
0
LINE
8
TOP_HID
6
HIDDEN
10
0.000000
20
0.158560
30
0.0
11
0.000000
21
0.142573
31
0.0
0
LINE
8
TOP_HID
6
HIDDEN
10
0.000000
20
0.175108
30
0.0
11
0.000000
21
0.158560
31
0.0
0
LINE
8
TOP_HID
6
HIDDEN
10
0.000000
20
0.361381
30
0.0
11
0.000000
21
0.175108
31
0.0
0
LINE
8
TOP_HID
6
HIDDEN
10
0.000000
20
0.378048
30
0.0
11
0.000000
21
0.361381
31
0.0
0
LINE
8
TOP_HID
6
HIDDEN
10
0.000000
20
0.361381
30
0.0
11
0.000000
21
0.378048
31
0.0
0
LINE
8
TOP_HID
6
HIDDEN
10
0.000000
20
0.159122
30
0.0
11
0.000000
21
0.361381
31
0.0
0
ENDSEC
0
EOF
