0
SECTION
2
HEADER
9
$ACADVER
1
AC1009
0
ENDSEC
0
SECTION
2
TABLES
0
TABLE
2
LTYPE
70
3
0
LTYPE
2
CONTINUOUS
70
0
3
Solid line
72
65
73
0
40
0.0
0
LTYPE
2
HIDDEN
70
0
3
__ __ __ __ __
72
65
73
2
40
9.0
49
6.0
49
-3.0
0
LTYPE
2
CENTER
70
0
3
___ _ ___ _ ___
72
65
73
4
40
21.0
49
12.0
49
-3.0
49
3.0
49
-3.0
0
ENDTAB
0
TABLE
2
LAYER
70
7
0
LAYER
2
0
70
0
62
7
6
CONTINUOUS
0
LAYER
2
FRONT
70
0
62
7
6
CONTINUOUS
0
LAYER
2
FRONT_HID
70
0
62
7
6
HIDDEN
0
LAYER
2
RIGHT
70
0
62
7
6
CONTINUOUS
0
LAYER
2
RIGHT_HID
70
0
62
7
6
HIDDEN
0
LAYER
2
TOP
70
0
62
7
6
CONTINUOUS
0
LAYER
2
TOP_HID
70
0
62
7
6
HIDDEN
0
ENDTAB
0
ENDSEC
0
SECTION
2
ENTITIES
0
LINE
8
FRONT
10
0.000000
20
0.926886
30
0.0
11
0.000000
21
1.676886
31
0.0
0
LINE
8
FRONT
10
0.805248
20
0.926886
30
0.0
11
0.805248
21
1.676886
31
0.0
0
LINE
8
FRONT
10
0.805248
20
1.676886
30
0.0
11
0.728353
21
1.676886
31
0.0
0
LINE
8
FRONT
10
0.728353
20
0.926886
30
0.0
11
0.728353
21
1.676886
31
0.0
0
LINE
8
FRONT
10
0.805248
20
0.926886
30
0.0
11
0.728353
21
0.926886
31
0.0
0
LINE
8
FRONT
10
0.728353
20
1.676886
30
0.0
11
0.527042
21
1.676886
31
0.0
0
LINE
8
FRONT
10
0.527042
20
0.926886
30
0.0
11
0.527042
21
1.676886
31
0.0
0
LINE
8
FRONT
10
0.728353
20
0.926886
30
0.0
11
0.527042
21
0.926886
31
0.0
0
LINE
8
FRONT
10
0.527042
20
1.676886
30
0.0
11
0.278206
21
1.676886
31
0.0
0
LINE
8
FRONT
10
0.278206
20
0.926886
30
0.0
11
0.278206
21
1.676886
31
0.0
0
LINE
8
FRONT
10
0.527042
20
0.926886
30
0.0
11
0.278206
21
0.926886
31
0.0
0
LINE
8
FRONT
10
0.278206
20
1.676886
30
0.0
11
0.076894
21
1.676886
31
0.0
0
LINE
8
FRONT
10
0.076894
20
0.926886
30
0.0
11
0.076894
21
1.676886
31
0.0
0
LINE
8
FRONT
10
0.278206
20
0.926886
30
0.0
11
0.076894
21
0.926886
31
0.0
0
LINE
8
FRONT
10
0.076894
20
1.676886
30
0.0
11
0.000000
21
1.676886
31
0.0
0
LINE
8
FRONT
10
0.076894
20
0.926886
30
0.0
11
0.000000
21
0.926886
31
0.0
0
LINE
8
FRONT_HID
6
HIDDEN
10
0.000000
20
1.676886
30
0.0
11
0.076894
21
1.676886
31
0.0
0
LINE
8
FRONT_HID
6
HIDDEN
10
0.076894
20
0.926886
30
0.0
11
0.076894
21
1.676886
31
0.0
0
LINE
8
FRONT_HID
6
HIDDEN
10
0.000000
20
0.926886
30
0.0
11
0.076894
21
0.926886
31
0.0
0
LINE
8
FRONT_HID
6
HIDDEN
10
0.076894
20
1.676886
30
0.0
11
0.278206
21
1.676886
31
0.0
0
LINE
8
FRONT_HID
6
HIDDEN
10
0.278206
20
0.926886
30
0.0
11
0.278206
21
1.676886
31
0.0
0
LINE
8
FRONT_HID
6
HIDDEN
10
0.076894
20
0.926886
30
0.0
11
0.278206
21
0.926886
31
0.0
0
LINE
8
FRONT_HID
6
HIDDEN
10
0.278206
20
1.676886
30
0.0
11
0.527042
21
1.676886
31
0.0
0
LINE
8
FRONT_HID
6
HIDDEN
10
0.527042
20
0.926886
30
0.0
11
0.527042
21
1.676886
31
0.0
0
LINE
8
FRONT_HID
6
HIDDEN
10
0.278206
20
0.926886
30
0.0
11
0.527042
21
0.926886
31
0.0
0
LINE
8
FRONT_HID
6
HIDDEN
10
0.527042
20
1.676886
30
0.0
11
0.728353
21
1.676886
31
0.0
0
LINE
8
FRONT_HID
6
HIDDEN
10
0.728353
20
0.926886
30
0.0
11
0.728353
21
1.676886
31
0.0
0
LINE
8
FRONT_HID
6
HIDDEN
10
0.527042
20
0.926886
30
0.0
11
0.728353
21
0.926886
31
0.0
0
LINE
8
FRONT_HID
6
HIDDEN
10
0.728353
20
1.676886
30
0.0
11
0.805248
21
1.676886
31
0.0
0
LINE
8
FRONT_HID
6
HIDDEN
10
0.728353
20
0.926886
30
0.0
11
0.805248
21
0.926886
31
0.0
0
LINE
8
RIGHT
10
1.732134
20
0.926886
30
0.0
11
1.732134
21
1.676886
31
0.0
0
LINE
8
RIGHT
10
1.732134
20
1.676886
30
0.0
11
1.585872
21
1.676886
31
0.0
0
LINE
8
RIGHT
10
1.585872
20
0.926886
30
0.0
11
1.585872
21
1.676886
31
0.0
0
LINE
8
RIGHT
10
1.732134
20
0.926886
30
0.0
11
1.585872
21
0.926886
31
0.0
0
LINE
8
RIGHT
10
1.585872
20
1.676886
30
0.0
11
1.349216
21
1.676886
31
0.0
0
LINE
8
RIGHT
10
1.349216
20
0.926886
30
0.0
11
1.349216
21
1.676886
31
0.0
0
LINE
8
RIGHT
10
1.585872
20
0.926886
30
0.0
11
1.349216
21
0.926886
31
0.0
0
LINE
8
RIGHT
10
1.349216
20
1.676886
30
0.0
11
1.112559
21
1.676886
31
0.0
0
LINE
8
RIGHT
10
1.112559
20
0.926886
30
0.0
11
1.112559
21
1.676886
31
0.0
0
LINE
8
RIGHT
10
1.349216
20
0.926886
30
0.0
11
1.112559
21
0.926886
31
0.0
0
LINE
8
RIGHT
10
1.112559
20
1.676886
30
0.0
11
0.966297
21
1.676886
31
0.0
0
LINE
8
RIGHT
10
0.966297
20
0.926886
30
0.0
11
0.966297
21
1.676886
31
0.0
0
LINE
8
RIGHT
10
1.112559
20
0.926886
30
0.0
11
0.966297
21
0.926886
31
0.0
0
LINE
8
RIGHT_HID
6
HIDDEN
10
1.349216
20
0.926886
30
0.0
11
1.349216
21
1.676886
31
0.0
0
LINE
8
RIGHT_HID
6
HIDDEN
10
1.349216
20
1.676886
30
0.0
11
1.585872
21
1.676886
31
0.0
0
LINE
8
RIGHT_HID
6
HIDDEN
10
1.585872
20
0.926886
30
0.0
11
1.585872
21
1.676886
31
0.0
0
LINE
8
RIGHT_HID
6
HIDDEN
10
1.349216
20
0.926886
30
0.0
11
1.585872
21
0.926886
31
0.0
0
LINE
8
RIGHT_HID
6
HIDDEN
10
1.585872
20
1.676886
30
0.0
11
1.732134
21
1.676886
31
0.0
0
LINE
8
RIGHT_HID
6
HIDDEN
10
1.732134
20
0.926886
30
0.0
11
1.732134
21
1.676886
31
0.0
0
LINE
8
RIGHT_HID
6
HIDDEN
10
1.585872
20
0.926886
30
0.0
11
1.732134
21
0.926886
31
0.0
0
LINE
8
RIGHT_HID
6
HIDDEN
10
0.966297
20
0.926886
30
0.0
11
0.966297
21
1.676886
31
0.0
0
LINE
8
RIGHT_HID
6
HIDDEN
10
0.966297
20
1.676886
30
0.0
11
1.112559
21
1.676886
31
0.0
0
LINE
8
RIGHT_HID
6
HIDDEN
10
1.112559
20
0.926886
30
0.0
11
1.112559
21
1.676886
31
0.0
0
LINE
8
RIGHT_HID
6
HIDDEN
10
0.966297
20
0.926886
30
0.0
11
1.112559
21
0.926886
31
0.0
0
LINE
8
RIGHT_HID
6
HIDDEN
10
1.112559
20
1.676886
30
0.0
11
1.349216
21
1.676886
31
0.0
0
LINE
8
RIGHT_HID
6
HIDDEN
10
1.112559
20
0.926886
30
0.0
11
1.349216
21
0.926886
31
0.0
0
LINE
8
TOP
10
0.000000
20
0.382918
30
0.0
11
0.076894
21
0.146262
31
0.0
0
LINE
8
TOP
10
0.076894
20
0.146262
30
0.0
11
0.278206
21
0.000000
31
0.0
0
LINE
8
TOP
10
0.278206
20
0.000000
30
0.0
11
0.527042
21
0.000000
31
0.0
0
LINE
8
TOP
10
0.527042
20
0.000000
30
0.0
11
0.728353
21
0.146262
31
0.0
0
LINE
8
TOP
10
0.728353
20
0.146262
30
0.0
11
0.805248
21
0.382918
31
0.0
0
LINE
8
TOP
10
0.805248
20
0.382918
30
0.0
11
0.728353
21
0.619575
31
0.0
0
LINE
8
TOP
10
0.728353
20
0.619575
30
0.0
11
0.527042
21
0.765836
31
0.0
0
LINE
8
TOP
10
0.527042
20
0.765836
30
0.0
11
0.278206
21
0.765836
31
0.0
0
LINE
8
TOP
10
0.278206
20
0.765836
30
0.0
11
0.076894
21
0.619575
31
0.0
0
LINE
8
TOP
10
0.076894
20
0.619575
30
0.0
11
0.000000
21
0.382918
31
0.0
0
LINE
8
TOP_HID
6
HIDDEN
10
0.000000
20
0.382918
30
0.0
11
0.076894
21
0.146262
31
0.0
0
LINE
8
TOP_HID
6
HIDDEN
10
0.076894
20
0.146262
30
0.0
11
0.278206
21
0.000000
31
0.0
0
LINE
8
TOP_HID
6
HIDDEN
10
0.278206
20
0.000000
30
0.0
11
0.527042
21
0.000000
31
0.0
0
LINE
8
TOP_HID
6
HIDDEN
10
0.527042
20
0.000000
30
0.0
11
0.728353
21
0.146262
31
0.0
0
LINE
8
TOP_HID
6
HIDDEN
10
0.728353
20
0.146262
30
0.0
11
0.805248
21
0.382918
31
0.0
0
LINE
8
TOP_HID
6
HIDDEN
10
0.805248
20
0.382918
30
0.0
11
0.728353
21
0.619575
31
0.0
0
LINE
8
TOP_HID
6
HIDDEN
10
0.728353
20
0.619575
30
0.0
11
0.527042
21
0.765836
31
0.0
0
LINE
8
TOP_HID
6
HIDDEN
10
0.527042
20
0.765836
30
0.0
11
0.278206
21
0.765836
31
0.0
0
LINE
8
TOP_HID
6
HIDDEN
10
0.278206
20
0.765836
30
0.0
11
0.076894
21
0.619575
31
0.0
0
LINE
8
TOP_HID
6
HIDDEN
10
0.076894
20
0.619575
30
0.0
11
0.000000
21
0.382918
31
0.0
0
ENDSEC
0
EOF
