0
SECTION
2
HEADER
9
$ACADVER
1
AC1009
0
ENDSEC
0
SECTION
2
TABLES
0
TABLE
2
LTYPE
70
3
0
LTYPE
2
CONTINUOUS
70
0
3
Solid line
72
65
73
0
40
0.0
0
LTYPE
2
HIDDEN
70
0
3
__ __ __ __ __
72
65
73
2
40
0.037500
49
0.025013
49
-0.012488
0
LTYPE
2
CENTER
70
0
3
___ _ ___ _ ___
72
65
73
4
40
0.087488
49
0.049988
49
-0.012488
49
0.012488
49
-0.012488
0
ENDTAB
0
TABLE
2
LAYER
70
6
0
LAYER
2
0
70
0
62
7
6
CONTINUOUS
0
LAYER
2
FRONT
70
0
62
7
6
CONTINUOUS
0
LAYER
2
FRONT_HID
70
0
62
7
6
HIDDEN
0
LAYER
2
LEFT
70
0
62
7
6
CONTINUOUS
0
LAYER
2
LEFT_HID
70
0
62
7
6
HIDDEN
0
LAYER
2
TOP
70
0
62
7
6
CONTINUOUS
0
ENDTAB
0
ENDSEC
0
SECTION
2
ENTITIES
0
LINE
8
FRONT
10
0.741279
20
0.900000
30
0.0
11
0.741279
21
0.900443
31
0.0
0
LINE
8
FRONT
10
0.741279
20
0.900443
30
0.0
11
0.531977
21
0.900443
31
0.0
0
LINE
8
FRONT
10
0.531977
20
0.900000
30
0.0
11
0.531977
21
0.900443
31
0.0
0
LINE
8
FRONT
10
0.741279
20
0.900000
30
0.0
11
0.531977
21
0.900000
31
0.0
0
LINE
8
FRONT
10
0.531977
20
0.900443
30
0.0
11
0.000000
21
0.900443
31
0.0
0
LINE
8
FRONT
10
0.000000
20
0.900000
30
0.0
11
0.000000
21
0.900443
31
0.0
0
LINE
8
FRONT
10
0.531977
20
0.900000
30
0.0
11
0.000000
21
0.900000
31
0.0
0
LINE
8
FRONT_HID
6
HIDDEN
10
0.000000
20
0.900443
30
0.0
11
0.209302
21
0.900443
31
0.0
0
LINE
8
FRONT_HID
6
HIDDEN
10
0.209302
20
0.900000
30
0.0
11
0.209302
21
0.900443
31
0.0
0
LINE
8
FRONT_HID
6
HIDDEN
10
0.000000
20
0.900000
30
0.0
11
0.209302
21
0.900000
31
0.0
0
LINE
8
FRONT_HID
6
HIDDEN
10
0.209302
20
0.900000
30
0.0
11
0.209302
21
0.900443
31
0.0
0
LINE
8
FRONT_HID
6
HIDDEN
10
0.209302
20
0.900443
30
0.0
11
0.741279
21
0.900443
31
0.0
0
LINE
8
FRONT_HID
6
HIDDEN
10
0.209302
20
0.900000
30
0.0
11
0.741279
21
0.900000
31
0.0
0
LINE
8
FRONT_HID
6
HIDDEN
10
0.003488
20
0.900000
30
0.0
11
0.003488
21
0.900443
31
0.0
0
LINE
8
FRONT_HID
6
HIDDEN
10
0.003488
20
0.900443
30
0.0
11
0.209302
21
0.900443
31
0.0
0
LINE
8
FRONT_HID
6
HIDDEN
10
0.209302
20
0.900000
30
0.0
11
0.209302
21
0.900443
31
0.0
0
LINE
8
FRONT_HID
6
HIDDEN
10
0.003488
20
0.900000
30
0.0
11
0.209302
21
0.900000
31
0.0
0
LINE
8
FRONT_HID
6
HIDDEN
10
0.209302
20
0.900000
30
0.0
11
0.209302
21
0.900443
31
0.0
0
LINE
8
FRONT_HID
6
HIDDEN
10
0.209302
20
0.900443
30
0.0
11
0.212791
21
0.900443
31
0.0
0
LINE
8
FRONT_HID
6
HIDDEN
10
0.212791
20
0.900000
30
0.0
11
0.212791
21
0.900443
31
0.0
0
LINE
8
FRONT_HID
6
HIDDEN
10
0.209302
20
0.900000
30
0.0
11
0.212791
21
0.900000
31
0.0
0
LINE
8
FRONT_HID
6
HIDDEN
10
0.212791
20
0.900000
30
0.0
11
0.212791
21
0.900443
31
0.0
0
LINE
8
FRONT_HID
6
HIDDEN
10
0.212791
20
0.900443
30
0.0
11
0.737791
21
0.900443
31
0.0
0
LINE
8
FRONT_HID
6
HIDDEN
10
0.737791
20
0.900000
30
0.0
11
0.737791
21
0.900443
31
0.0
0
LINE
8
FRONT_HID
6
HIDDEN
10
0.212791
20
0.900000
30
0.0
11
0.737791
21
0.900000
31
0.0
0
LINE
8
FRONT_HID
6
HIDDEN
10
0.737791
20
0.900000
30
0.0
11
0.737791
21
0.900443
31
0.0
0
LINE
8
FRONT_HID
6
HIDDEN
10
0.737791
20
0.900443
30
0.0
11
0.212791
21
0.900443
31
0.0
0
LINE
8
FRONT_HID
6
HIDDEN
10
0.212791
20
0.900000
30
0.0
11
0.212791
21
0.900443
31
0.0
0
LINE
8
FRONT_HID
6
HIDDEN
10
0.737791
20
0.900000
30
0.0
11
0.212791
21
0.900000
31
0.0
0
LINE
8
FRONT_HID
6
HIDDEN
10
0.212791
20
0.900000
30
0.0
11
0.212791
21
0.900443
31
0.0
0
LINE
8
FRONT_HID
6
HIDDEN
10
0.212791
20
0.900443
30
0.0
11
0.209302
21
0.900443
31
0.0
0
LINE
8
FRONT_HID
6
HIDDEN
10
0.209302
20
0.900000
30
0.0
11
0.209302
21
0.900443
31
0.0
0
LINE
8
FRONT_HID
6
HIDDEN
10
0.212791
20
0.900000
30
0.0
11
0.209302
21
0.900000
31
0.0
0
LINE
8
FRONT_HID
6
HIDDEN
10
0.209302
20
0.900000
30
0.0
11
0.209302
21
0.900443
31
0.0
0
LINE
8
FRONT_HID
6
HIDDEN
10
0.209302
20
0.900443
30
0.0
11
0.003488
21
0.900443
31
0.0
0
LINE
8
FRONT_HID
6
HIDDEN
10
0.003488
20
0.900000
30
0.0
11
0.003488
21
0.900443
31
0.0
0
LINE
8
FRONT_HID
6
HIDDEN
10
0.209302
20
0.900000
30
0.0
11
0.003488
21
0.900000
31
0.0
0
LINE
8
FRONT_HID
6
HIDDEN
10
0.003488
20
0.900000
30
0.0
11
0.003488
21
0.900443
31
0.0
0
LINE
8
FRONT_HID
6
HIDDEN
10
0.003488
20
0.900443
30
0.0
11
0.737791
21
0.900443
31
0.0
0
LINE
8
FRONT_HID
6
HIDDEN
10
0.737791
20
0.900000
30
0.0
11
0.737791
21
0.900443
31
0.0
0
LINE
8
FRONT_HID
6
HIDDEN
10
0.003488
20
0.900000
30
0.0
11
0.737791
21
0.900000
31
0.0
0
LINE
8
FRONT_HID
6
HIDDEN
10
0.737791
20
0.900000
30
0.0
11
0.737791
21
0.900443
31
0.0
0
LINE
8
FRONT_HID
6
HIDDEN
10
0.737791
20
0.900443
30
0.0
11
0.003488
21
0.900443
31
0.0
0
LINE
8
FRONT_HID
6
HIDDEN
10
0.003488
20
0.900000
30
0.0
11
0.003488
21
0.900443
31
0.0
0
LINE
8
FRONT_HID
6
HIDDEN
10
0.737791
20
0.900000
30
0.0
11
0.003488
21
0.900000
31
0.0
0
LINE
8
FRONT_HID
6
HIDDEN
10
0.003488
20
0.900000
30
0.0
11
0.003488
21
0.900443
31
0.0
0
LINE
8
FRONT_HID
6
HIDDEN
10
0.003488
20
0.900443
30
0.0
11
0.737791
21
0.900443
31
0.0
0
LINE
8
FRONT_HID
6
HIDDEN
10
0.737791
20
0.900000
30
0.0
11
0.737791
21
0.900443
31
0.0
0
LINE
8
FRONT_HID
6
HIDDEN
10
0.003488
20
0.900000
30
0.0
11
0.737791
21
0.900000
31
0.0
0
LINE
8
FRONT_HID
6
HIDDEN
10
0.737791
20
0.900000
30
0.0
11
0.737791
21
0.900443
31
0.0
0
LINE
8
FRONT_HID
6
HIDDEN
10
0.737791
20
0.900443
30
0.0
11
0.003488
21
0.900443
31
0.0
0
LINE
8
FRONT_HID
6
HIDDEN
10
0.003488
20
0.900000
30
0.0
11
0.003488
21
0.900443
31
0.0
0
LINE
8
FRONT_HID
6
HIDDEN
10
0.737791
20
0.900000
30
0.0
11
0.003488
21
0.900000
31
0.0
0
LINE
8
FRONT_HID
6
HIDDEN
10
0.535465
20
0.900000
30
0.0
11
0.535465
21
0.900443
31
0.0
0
LINE
8
FRONT_HID
6
HIDDEN
10
0.535465
20
0.900443
30
0.0
11
0.737791
21
0.900443
31
0.0
0
LINE
8
FRONT_HID
6
HIDDEN
10
0.737791
20
0.900000
30
0.0
11
0.737791
21
0.900443
31
0.0
0
LINE
8
FRONT_HID
6
HIDDEN
10
0.535465
20
0.900000
30
0.0
11
0.737791
21
0.900000
31
0.0
0
LINE
8
FRONT_HID
6
HIDDEN
10
0.737791
20
0.900000
30
0.0
11
0.737791
21
0.900443
31
0.0
0
LINE
8
FRONT_HID
6
HIDDEN
10
0.737791
20
0.900443
30
0.0
11
0.535465
21
0.900443
31
0.0
0
LINE
8
FRONT_HID
6
HIDDEN
10
0.535465
20
0.900000
30
0.0
11
0.535465
21
0.900443
31
0.0
0
LINE
8
FRONT_HID
6
HIDDEN
10
0.737791
20
0.900000
30
0.0
11
0.535465
21
0.900000
31
0.0
0
LINE
8
LEFT
10
1.587708
20
0.900000
30
0.0
11
1.587708
21
0.900443
31
0.0
0
LINE
8
LEFT
10
1.587708
20
0.900443
30
0.0
11
1.641279
21
0.900443
31
0.0
0
LINE
8
LEFT
10
1.641279
20
0.900000
30
0.0
11
1.641279
21
0.900443
31
0.0
0
LINE
8
LEFT
10
1.587708
20
0.900000
30
0.0
11
1.641279
21
0.900000
31
0.0
0
LINE
8
LEFT
10
0.891279
20
0.900000
30
0.0
11
0.891279
21
0.900443
31
0.0
0
LINE
8
LEFT
10
0.891279
20
0.900443
30
0.0
11
1.047010
21
0.900443
31
0.0
0
LINE
8
LEFT
10
0.891279
20
0.900000
30
0.0
11
1.047010
21
0.900000
31
0.0
0
LINE
8
LEFT
10
1.047010
20
0.900000
30
0.0
11
1.047010
21
0.900443
31
0.0
0
LINE
8
LEFT
10
1.047010
20
0.900443
30
0.0
11
1.587708
21
0.900443
31
0.0
0
LINE
8
LEFT
10
1.047010
20
0.900000
30
0.0
11
1.587708
21
0.900000
31
0.0
0
LINE
8
LEFT_HID
6
HIDDEN
10
1.641279
20
0.900443
30
0.0
11
0.891279
21
0.900443
31
0.0
0
LINE
8
LEFT_HID
6
HIDDEN
10
1.641279
20
0.900000
30
0.0
11
0.891279
21
0.900000
31
0.0
0
LINE
8
LEFT_HID
6
HIDDEN
10
1.584219
20
0.900000
30
0.0
11
1.584219
21
0.900443
31
0.0
0
LINE
8
LEFT_HID
6
HIDDEN
10
1.584219
20
0.900000
30
0.0
11
1.584219
21
0.900443
31
0.0
0
LINE
8
LEFT_HID
6
HIDDEN
10
1.584219
20
0.900443
30
0.0
11
1.580233
21
0.900443
31
0.0
0
LINE
8
LEFT_HID
6
HIDDEN
10
1.580233
20
0.900000
30
0.0
11
1.580233
21
0.900443
31
0.0
0
LINE
8
LEFT_HID
6
HIDDEN
10
1.584219
20
0.900000
30
0.0
11
1.580233
21
0.900000
31
0.0
0
LINE
8
LEFT_HID
6
HIDDEN
10
1.580233
20
0.900000
30
0.0
11
1.580233
21
0.900443
31
0.0
0
LINE
8
LEFT_HID
6
HIDDEN
10
1.580233
20
0.900443
30
0.0
11
1.637791
21
0.900443
31
0.0
0
LINE
8
LEFT_HID
6
HIDDEN
10
1.637791
20
0.900000
30
0.0
11
1.637791
21
0.900443
31
0.0
0
LINE
8
LEFT_HID
6
HIDDEN
10
1.580233
20
0.900000
30
0.0
11
1.637791
21
0.900000
31
0.0
0
LINE
8
LEFT_HID
6
HIDDEN
10
1.637791
20
0.900000
30
0.0
11
1.637791
21
0.900443
31
0.0
0
LINE
8
LEFT_HID
6
HIDDEN
10
1.637791
20
0.900443
30
0.0
11
1.412903
21
0.900443
31
0.0
0
LINE
8
LEFT_HID
6
HIDDEN
10
1.412903
20
0.900000
30
0.0
11
1.412903
21
0.900443
31
0.0
0
LINE
8
LEFT_HID
6
HIDDEN
10
1.637791
20
0.900000
30
0.0
11
1.412903
21
0.900000
31
0.0
0
LINE
8
LEFT_HID
6
HIDDEN
10
1.412903
20
0.900000
30
0.0
11
1.412903
21
0.900443
31
0.0
0
LINE
8
LEFT_HID
6
HIDDEN
10
1.412903
20
0.900443
30
0.0
11
1.493023
21
0.900443
31
0.0
0
LINE
8
LEFT_HID
6
HIDDEN
10
1.493023
20
0.900000
30
0.0
11
1.493023
21
0.900443
31
0.0
0
LINE
8
LEFT_HID
6
HIDDEN
10
1.412903
20
0.900000
30
0.0
11
1.493023
21
0.900000
31
0.0
0
LINE
8
LEFT_HID
6
HIDDEN
10
1.493023
20
0.900000
30
0.0
11
1.493023
21
0.900443
31
0.0
0
LINE
8
LEFT_HID
6
HIDDEN
10
1.493023
20
0.900443
30
0.0
11
1.412903
21
0.900443
31
0.0
0
LINE
8
LEFT_HID
6
HIDDEN
10
1.412903
20
0.900000
30
0.0
11
1.412903
21
0.900443
31
0.0
0
LINE
8
LEFT_HID
6
HIDDEN
10
1.493023
20
0.900000
30
0.0
11
1.412903
21
0.900000
31
0.0
0
LINE
8
LEFT_HID
6
HIDDEN
10
1.412903
20
0.900000
30
0.0
11
1.412903
21
0.900443
31
0.0
0
LINE
8
LEFT_HID
6
HIDDEN
10
1.412903
20
0.900443
30
0.0
11
1.584219
21
0.900443
31
0.0
0
LINE
8
LEFT_HID
6
HIDDEN
10
1.412903
20
0.900000
30
0.0
11
1.584219
21
0.900000
31
0.0
0
LINE
8
LEFT_HID
6
HIDDEN
10
1.409415
20
0.900000
30
0.0
11
1.409415
21
0.900443
31
0.0
0
LINE
8
LEFT_HID
6
HIDDEN
10
1.409415
20
0.900000
30
0.0
11
1.409415
21
0.900443
31
0.0
0
LINE
8
LEFT_HID
6
HIDDEN
10
1.409415
20
0.900443
30
0.0
11
1.246098
21
0.900443
31
0.0
0
LINE
8
LEFT_HID
6
HIDDEN
10
1.246098
20
0.900000
30
0.0
11
1.246098
21
0.900443
31
0.0
0
LINE
8
LEFT_HID
6
HIDDEN
10
1.409415
20
0.900000
30
0.0
11
1.246098
21
0.900000
31
0.0
0
LINE
8
LEFT_HID
6
HIDDEN
10
1.246098
20
0.900000
30
0.0
11
1.246098
21
0.900443
31
0.0
0
LINE
8
LEFT_HID
6
HIDDEN
10
1.246098
20
0.900443
30
0.0
11
1.409415
21
0.900443
31
0.0
0
LINE
8
LEFT_HID
6
HIDDEN
10
1.246098
20
0.900000
30
0.0
11
1.409415
21
0.900000
31
0.0
0
LINE
8
LEFT_HID
6
HIDDEN
10
1.242610
20
0.900000
30
0.0
11
1.242610
21
0.900443
31
0.0
0
LINE
8
LEFT_HID
6
HIDDEN
10
1.242610
20
0.900000
30
0.0
11
1.242610
21
0.900443
31
0.0
0
LINE
8
LEFT_HID
6
HIDDEN
10
1.242610
20
0.900443
30
0.0
11
1.050498
21
0.900443
31
0.0
0
LINE
8
LEFT_HID
6
HIDDEN
10
1.050498
20
0.900000
30
0.0
11
1.050498
21
0.900443
31
0.0
0
LINE
8
LEFT_HID
6
HIDDEN
10
1.242610
20
0.900000
30
0.0
11
1.050498
21
0.900000
31
0.0
0
LINE
8
LEFT_HID
6
HIDDEN
10
1.050498
20
0.900000
30
0.0
11
1.050498
21
0.900443
31
0.0
0
LINE
8
LEFT_HID
6
HIDDEN
10
1.050498
20
0.900443
30
0.0
11
1.242610
21
0.900443
31
0.0
0
LINE
8
LEFT_HID
6
HIDDEN
10
1.050498
20
0.900000
30
0.0
11
1.242610
21
0.900000
31
0.0
0
LINE
8
LEFT_HID
6
HIDDEN
10
1.047010
20
0.900443
30
0.0
11
0.894767
21
0.900443
31
0.0
0
LINE
8
LEFT_HID
6
HIDDEN
10
0.894767
20
0.900000
30
0.0
11
0.894767
21
0.900443
31
0.0
0
LINE
8
LEFT_HID
6
HIDDEN
10
1.047010
20
0.900000
30
0.0
11
0.894767
21
0.900000
31
0.0
0
LINE
8
LEFT_HID
6
HIDDEN
10
0.894767
20
0.900000
30
0.0
11
0.894767
21
0.900443
31
0.0
0
LINE
8
LEFT_HID
6
HIDDEN
10
0.894767
20
0.900443
30
0.0
11
1.047010
21
0.900443
31
0.0
0
LINE
8
LEFT_HID
6
HIDDEN
10
0.894767
20
0.900000
30
0.0
11
1.047010
21
0.900000
31
0.0
0
LINE
8
TOP
10
0.000000
20
0.053571
30
0.0
11
0.209302
21
0.053571
31
0.0
0
LINE
8
TOP
10
0.209302
20
0.053571
30
0.0
11
0.209302
21
0.000000
31
0.0
0
LINE
8
TOP
10
0.209302
20
0.000000
30
0.0
11
0.741279
21
0.000000
31
0.0
0
LINE
8
TOP
10
0.741279
20
0.000000
30
0.0
11
0.741279
21
0.750000
31
0.0
0
LINE
8
TOP
10
0.741279
20
0.750000
30
0.0
11
0.531977
21
0.750000
31
0.0
0
LINE
8
TOP
10
0.531977
20
0.750000
30
0.0
11
0.531977
21
0.594269
31
0.0
0
LINE
8
TOP
10
0.531977
20
0.594269
30
0.0
11
0.000000
21
0.594269
31
0.0
0
LINE
8
TOP
10
0.000000
20
0.594269
30
0.0
11
0.000000
21
0.053571
31
0.0
0
LINE
8
TOP
10
0.003488
20
0.057060
30
0.0
11
0.209302
21
0.057060
31
0.0
0
LINE
8
TOP
10
0.209302
20
0.057060
30
0.0
11
0.209302
21
0.061047
31
0.0
0
LINE
8
TOP
10
0.209302
20
0.061047
30
0.0
11
0.212791
21
0.061047
31
0.0
0
LINE
8
TOP
10
0.212791
20
0.061047
30
0.0
11
0.212791
21
0.003488
31
0.0
0
LINE
8
TOP
10
0.212791
20
0.003488
30
0.0
11
0.737791
21
0.003488
31
0.0
0
LINE
8
TOP
10
0.737791
20
0.003488
30
0.0
11
0.737791
21
0.228376
31
0.0
0
LINE
8
TOP
10
0.737791
20
0.228376
30
0.0
11
0.212791
21
0.228376
31
0.0
0
LINE
8
TOP
10
0.212791
20
0.228376
30
0.0
11
0.212791
21
0.148256
31
0.0
0
LINE
8
TOP
10
0.212791
20
0.148256
30
0.0
11
0.209302
21
0.148256
31
0.0
0
LINE
8
TOP
10
0.209302
20
0.148256
30
0.0
11
0.209302
21
0.228376
31
0.0
0
LINE
8
TOP
10
0.209302
20
0.228376
30
0.0
11
0.003488
21
0.228376
31
0.0
0
LINE
8
TOP
10
0.003488
20
0.228376
30
0.0
11
0.003488
21
0.057060
31
0.0
0
LINE
8
TOP
10
0.003488
20
0.231864
30
0.0
11
0.737791
21
0.231864
31
0.0
0
LINE
8
TOP
10
0.737791
20
0.231864
30
0.0
11
0.737791
21
0.395181
31
0.0
0
LINE
8
TOP
10
0.737791
20
0.395181
30
0.0
11
0.003488
21
0.395181
31
0.0
0
LINE
8
TOP
10
0.003488
20
0.395181
30
0.0
11
0.003488
21
0.231864
31
0.0
0
LINE
8
TOP
10
0.003488
20
0.398669
30
0.0
11
0.737791
21
0.398669
31
0.0
0
LINE
8
TOP
10
0.737791
20
0.398669
30
0.0
11
0.737791
21
0.590781
31
0.0
0
LINE
8
TOP
10
0.737791
20
0.590781
30
0.0
11
0.003488
21
0.590781
31
0.0
0
LINE
8
TOP
10
0.003488
20
0.590781
30
0.0
11
0.003488
21
0.398669
31
0.0
0
LINE
8
TOP
10
0.535465
20
0.594269
30
0.0
11
0.737791
21
0.594269
31
0.0
0
LINE
8
TOP
10
0.737791
20
0.594269
30
0.0
11
0.737791
21
0.746512
31
0.0
0
LINE
8
TOP
10
0.737791
20
0.746512
30
0.0
11
0.535465
21
0.746512
31
0.0
0
LINE
8
TOP
10
0.535465
20
0.746512
30
0.0
11
0.535465
21
0.594269
31
0.0
0
ENDSEC
0
EOF
