0
SECTION
2
HEADER
9
$ACADVER
1
AC1009
0
ENDSEC
0
SECTION
2
TABLES
0
TABLE
2
LTYPE
70
3
0
LTYPE
2
CONTINUOUS
70
0
3
Solid line
72
65
73
0
40
0.0
0
LTYPE
2
HIDDEN
70
0
3
__ __ __ __ __
72
65
73
2
40
0.037500
49
0.025013
49
-0.012488
0
LTYPE
2
CENTER
70
0
3
___ _ ___ _ ___
72
65
73
4
40
0.087488
49
0.049988
49
-0.012488
49
0.012488
49
-0.012488
0
ENDTAB
0
TABLE
2
LAYER
70
6
0
LAYER
2
0
70
0
62
7
6
CONTINUOUS
0
LAYER
2
FRONT
70
0
62
7
6
CONTINUOUS
0
LAYER
2
LEFT
70
0
62
7
6
CONTINUOUS
0
LAYER
2
LEFT_HID
70
0
62
7
6
HIDDEN
0
LAYER
2
TOP
70
0
62
7
6
CONTINUOUS
0
LAYER
2
TOP_HID
70
0
62
7
6
HIDDEN
0
ENDTAB
0
ENDSEC
0
SECTION
2
ENTITIES
0
LINE
8
FRONT
10
0.000000
20
0.900000
30
0.0
11
0.357293
21
0.900000
31
0.0
0
LINE
8
FRONT
10
0.000000
20
1.260000
30
0.0
11
0.000000
21
0.900000
31
0.0
0
LINE
8
FRONT
10
0.357293
20
0.900000
30
0.0
11
0.357293
21
1.260000
31
0.0
0
LINE
8
FRONT
10
0.357293
20
1.260000
30
0.0
11
0.000000
21
1.260000
31
0.0
0
LINE
8
LEFT
10
0.507293
20
0.900000
30
0.0
11
1.257293
21
0.900000
31
0.0
0
LINE
8
LEFT
10
0.507293
20
1.260000
30
0.0
11
1.257293
21
1.260000
31
0.0
0
LINE
8
LEFT
10
1.257293
20
1.260000
30
0.0
11
1.257293
21
0.900000
31
0.0
0
LINE
8
LEFT
10
0.507293
20
1.260000
30
0.0
11
0.507293
21
0.900000
31
0.0
0
LINE
8
LEFT_HID
6
HIDDEN
10
0.507293
20
1.080000
30
0.0
11
0.507293
21
1.074429
31
0.0
0
LINE
8
LEFT_HID
6
HIDDEN
10
0.507293
20
1.074429
30
0.0
11
0.507293
21
1.068858
31
0.0
0
LINE
8
LEFT_HID
6
HIDDEN
10
0.507293
20
1.068858
30
0.0
11
0.507293
21
1.063287
31
0.0
0
LINE
8
LEFT_HID
6
HIDDEN
10
0.507293
20
1.063287
30
0.0
11
0.507293
21
1.057716
31
0.0
0
LINE
8
LEFT_HID
6
HIDDEN
10
0.507293
20
1.057716
30
0.0
11
0.507293
21
1.052145
31
0.0
0
LINE
8
LEFT_HID
6
HIDDEN
10
0.507293
20
1.052145
30
0.0
11
0.507293
21
1.046574
31
0.0
0
LINE
8
LEFT_HID
6
HIDDEN
10
0.507293
20
1.046574
30
0.0
11
0.507293
21
1.041003
31
0.0
0
LINE
8
LEFT_HID
6
HIDDEN
10
0.507293
20
1.041003
30
0.0
11
0.507293
21
1.035432
31
0.0
0
LINE
8
LEFT_HID
6
HIDDEN
10
0.507293
20
1.035432
30
0.0
11
0.507293
21
1.029861
31
0.0
0
LINE
8
LEFT_HID
6
HIDDEN
10
0.507293
20
1.029861
30
0.0
11
0.507293
21
1.024290
31
0.0
0
LINE
8
LEFT_HID
6
HIDDEN
10
0.507293
20
1.024290
30
0.0
11
0.507293
21
1.018719
31
0.0
0
LINE
8
LEFT_HID
6
HIDDEN
10
0.507293
20
1.018719
30
0.0
11
0.507293
21
1.013148
31
0.0
0
LINE
8
LEFT_HID
6
HIDDEN
10
0.507293
20
1.013148
30
0.0
11
0.507293
21
1.007577
31
0.0
0
LINE
8
LEFT_HID
6
HIDDEN
10
0.507293
20
1.007577
30
0.0
11
0.507293
21
1.002006
31
0.0
0
LINE
8
LEFT_HID
6
HIDDEN
10
0.507293
20
1.002006
30
0.0
11
0.507293
21
0.996435
31
0.0
0
LINE
8
LEFT_HID
6
HIDDEN
10
0.507293
20
0.996435
30
0.0
11
0.507293
21
0.993649
31
0.0
0
LINE
8
LEFT_HID
6
HIDDEN
10
0.507293
20
0.993649
30
0.0
11
0.507293
21
0.999220
31
0.0
0
LINE
8
LEFT_HID
6
HIDDEN
10
0.507293
20
0.999220
30
0.0
11
0.507293
21
1.004791
31
0.0
0
LINE
8
LEFT_HID
6
HIDDEN
10
0.507293
20
1.004791
30
0.0
11
0.507293
21
1.010362
31
0.0
0
LINE
8
LEFT_HID
6
HIDDEN
10
0.507293
20
1.010362
30
0.0
11
0.507293
21
1.015933
31
0.0
0
LINE
8
LEFT_HID
6
HIDDEN
10
0.507293
20
1.015933
30
0.0
11
0.507293
21
1.021504
31
0.0
0
LINE
8
LEFT_HID
6
HIDDEN
10
0.507293
20
1.021504
30
0.0
11
0.507293
21
1.027075
31
0.0
0
LINE
8
LEFT_HID
6
HIDDEN
10
0.507293
20
1.027075
30
0.0
11
0.507293
21
1.032646
31
0.0
0
LINE
8
LEFT_HID
6
HIDDEN
10
0.507293
20
1.032646
30
0.0
11
0.507293
21
1.038217
31
0.0
0
LINE
8
LEFT_HID
6
HIDDEN
10
0.507293
20
1.038217
30
0.0
11
0.507293
21
1.043788
31
0.0
0
LINE
8
LEFT_HID
6
HIDDEN
10
0.507293
20
1.043788
30
0.0
11
0.507293
21
1.049359
31
0.0
0
LINE
8
LEFT_HID
6
HIDDEN
10
0.507293
20
1.049359
30
0.0
11
0.507293
21
1.054930
31
0.0
0
LINE
8
LEFT_HID
6
HIDDEN
10
0.507293
20
1.054930
30
0.0
11
0.507293
21
1.060501
31
0.0
0
LINE
8
LEFT_HID
6
HIDDEN
10
0.507293
20
1.060501
30
0.0
11
0.507293
21
1.066072
31
0.0
0
LINE
8
LEFT_HID
6
HIDDEN
10
0.507293
20
1.066072
30
0.0
11
0.507293
21
1.071643
31
0.0
0
LINE
8
LEFT_HID
6
HIDDEN
10
0.507293
20
1.071643
30
0.0
11
0.507293
21
1.077214
31
0.0
0
LINE
8
LEFT_HID
6
HIDDEN
10
0.507293
20
1.077214
30
0.0
11
0.507293
21
1.082786
31
0.0
0
LINE
8
LEFT_HID
6
HIDDEN
10
0.507293
20
1.082786
30
0.0
11
0.507293
21
1.088357
31
0.0
0
LINE
8
LEFT_HID
6
HIDDEN
10
0.507293
20
1.088357
30
0.0
11
0.507293
21
1.093928
31
0.0
0
LINE
8
LEFT_HID
6
HIDDEN
10
0.507293
20
1.093928
30
0.0
11
0.507293
21
1.099499
31
0.0
0
LINE
8
LEFT_HID
6
HIDDEN
10
0.507293
20
1.099499
30
0.0
11
0.507293
21
1.105070
31
0.0
0
LINE
8
LEFT_HID
6
HIDDEN
10
0.507293
20
1.105070
30
0.0
11
0.507293
21
1.110641
31
0.0
0
LINE
8
LEFT_HID
6
HIDDEN
10
0.507293
20
1.110641
30
0.0
11
0.507293
21
1.116212
31
0.0
0
LINE
8
LEFT_HID
6
HIDDEN
10
0.507293
20
1.116212
30
0.0
11
0.507293
21
1.121783
31
0.0
0
LINE
8
LEFT_HID
6
HIDDEN
10
0.507293
20
1.121783
30
0.0
11
0.507293
21
1.127354
31
0.0
0
LINE
8
LEFT_HID
6
HIDDEN
10
0.507293
20
1.127354
30
0.0
11
0.507293
21
1.132925
31
0.0
0
LINE
8
LEFT_HID
6
HIDDEN
10
0.507293
20
1.132925
30
0.0
11
0.507293
21
1.138496
31
0.0
0
LINE
8
LEFT_HID
6
HIDDEN
10
0.507293
20
1.138496
30
0.0
11
0.507293
21
1.144067
31
0.0
0
LINE
8
LEFT_HID
6
HIDDEN
10
0.507293
20
1.144067
30
0.0
11
0.507293
21
1.149638
31
0.0
0
LINE
8
LEFT_HID
6
HIDDEN
10
0.507293
20
1.149638
30
0.0
11
0.507293
21
1.155209
31
0.0
0
LINE
8
LEFT_HID
6
HIDDEN
10
0.507293
20
1.155209
30
0.0
11
0.507293
21
1.160780
31
0.0
0
LINE
8
LEFT_HID
6
HIDDEN
10
0.507293
20
1.160780
30
0.0
11
0.507293
21
1.166351
31
0.0
0
LINE
8
LEFT_HID
6
HIDDEN
10
0.507293
20
1.166351
30
0.0
11
0.507293
21
1.163565
31
0.0
0
LINE
8
LEFT_HID
6
HIDDEN
10
0.507293
20
1.163565
30
0.0
11
0.507293
21
1.157994
31
0.0
0
LINE
8
LEFT_HID
6
HIDDEN
10
0.507293
20
1.157994
30
0.0
11
0.507293
21
1.152423
31
0.0
0
LINE
8
LEFT_HID
6
HIDDEN
10
0.507293
20
1.152423
30
0.0
11
0.507293
21
1.146852
31
0.0
0
LINE
8
LEFT_HID
6
HIDDEN
10
0.507293
20
1.146852
30
0.0
11
0.507293
21
1.141281
31
0.0
0
LINE
8
LEFT_HID
6
HIDDEN
10
0.507293
20
1.141281
30
0.0
11
0.507293
21
1.135710
31
0.0
0
LINE
8
LEFT_HID
6
HIDDEN
10
0.507293
20
1.135710
30
0.0
11
0.507293
21
1.130139
31
0.0
0
LINE
8
LEFT_HID
6
HIDDEN
10
0.507293
20
1.130139
30
0.0
11
0.507293
21
1.124568
31
0.0
0
LINE
8
LEFT_HID
6
HIDDEN
10
0.507293
20
1.124568
30
0.0
11
0.507293
21
1.118997
31
0.0
0
LINE
8
LEFT_HID
6
HIDDEN
10
0.507293
20
1.118997
30
0.0
11
0.507293
21
1.113426
31
0.0
0
LINE
8
LEFT_HID
6
HIDDEN
10
0.507293
20
1.113426
30
0.0
11
0.507293
21
1.107855
31
0.0
0
LINE
8
LEFT_HID
6
HIDDEN
10
0.507293
20
1.107855
30
0.0
11
0.507293
21
1.102284
31
0.0
0
LINE
8
LEFT_HID
6
HIDDEN
10
0.507293
20
1.102284
30
0.0
11
0.507293
21
1.096713
31
0.0
0
LINE
8
LEFT_HID
6
HIDDEN
10
0.507293
20
1.096713
30
0.0
11
0.507293
21
1.091142
31
0.0
0
LINE
8
LEFT_HID
6
HIDDEN
10
0.507293
20
1.091142
30
0.0
11
0.507293
21
1.085571
31
0.0
0
LINE
8
LEFT_HID
6
HIDDEN
10
0.507293
20
1.085571
30
0.0
11
0.507293
21
1.080000
31
0.0
0
LINE
8
LEFT_HID
6
HIDDEN
10
1.257293
20
1.080000
30
0.0
11
1.257293
21
1.074429
31
0.0
0
LINE
8
LEFT_HID
6
HIDDEN
10
1.257293
20
1.074429
30
0.0
11
1.257293
21
1.068858
31
0.0
0
LINE
8
LEFT_HID
6
HIDDEN
10
1.257293
20
1.068858
30
0.0
11
1.257293
21
1.063287
31
0.0
0
LINE
8
LEFT_HID
6
HIDDEN
10
1.257293
20
1.063287
30
0.0
11
1.257293
21
1.057716
31
0.0
0
LINE
8
LEFT_HID
6
HIDDEN
10
1.257293
20
1.057716
30
0.0
11
1.257293
21
1.052145
31
0.0
0
LINE
8
LEFT_HID
6
HIDDEN
10
1.257293
20
1.052145
30
0.0
11
1.257293
21
1.046574
31
0.0
0
LINE
8
LEFT_HID
6
HIDDEN
10
1.257293
20
1.046574
30
0.0
11
1.257293
21
1.041003
31
0.0
0
LINE
8
LEFT_HID
6
HIDDEN
10
1.257293
20
1.041003
30
0.0
11
1.257293
21
1.035432
31
0.0
0
LINE
8
LEFT_HID
6
HIDDEN
10
1.257293
20
1.035432
30
0.0
11
1.257293
21
1.029861
31
0.0
0
LINE
8
LEFT_HID
6
HIDDEN
10
1.257293
20
1.029861
30
0.0
11
1.257293
21
1.024290
31
0.0
0
LINE
8
LEFT_HID
6
HIDDEN
10
1.257293
20
1.024290
30
0.0
11
1.257293
21
1.018719
31
0.0
0
LINE
8
LEFT_HID
6
HIDDEN
10
1.257293
20
1.018719
30
0.0
11
1.257293
21
1.013148
31
0.0
0
LINE
8
LEFT_HID
6
HIDDEN
10
1.257293
20
1.013148
30
0.0
11
1.257293
21
1.007577
31
0.0
0
LINE
8
LEFT_HID
6
HIDDEN
10
1.257293
20
1.007577
30
0.0
11
1.257293
21
1.002006
31
0.0
0
LINE
8
LEFT_HID
6
HIDDEN
10
1.257293
20
1.002006
30
0.0
11
1.257293
21
0.996435
31
0.0
0
LINE
8
LEFT_HID
6
HIDDEN
10
1.257293
20
0.996435
30
0.0
11
1.257293
21
0.993649
31
0.0
0
LINE
8
LEFT_HID
6
HIDDEN
10
1.257293
20
0.993649
30
0.0
11
1.257293
21
0.999220
31
0.0
0
LINE
8
LEFT_HID
6
HIDDEN
10
1.257293
20
0.999220
30
0.0
11
1.257293
21
1.004791
31
0.0
0
LINE
8
LEFT_HID
6
HIDDEN
10
1.257293
20
1.004791
30
0.0
11
1.257293
21
1.010362
31
0.0
0
LINE
8
LEFT_HID
6
HIDDEN
10
1.257293
20
1.010362
30
0.0
11
1.257293
21
1.015933
31
0.0
0
LINE
8
LEFT_HID
6
HIDDEN
10
1.257293
20
1.015933
30
0.0
11
1.257293
21
1.021504
31
0.0
0
LINE
8
LEFT_HID
6
HIDDEN
10
1.257293
20
1.021504
30
0.0
11
1.257293
21
1.027075
31
0.0
0
LINE
8
LEFT_HID
6
HIDDEN
10
1.257293
20
1.027075
30
0.0
11
1.257293
21
1.032646
31
0.0
0
LINE
8
LEFT_HID
6
HIDDEN
10
1.257293
20
1.032646
30
0.0
11
1.257293
21
1.038217
31
0.0
0
LINE
8
LEFT_HID
6
HIDDEN
10
1.257293
20
1.038217
30
0.0
11
1.257293
21
1.043788
31
0.0
0
LINE
8
LEFT_HID
6
HIDDEN
10
1.257293
20
1.043788
30
0.0
11
1.257293
21
1.049359
31
0.0
0
LINE
8
LEFT_HID
6
HIDDEN
10
1.257293
20
1.049359
30
0.0
11
1.257293
21
1.054930
31
0.0
0
LINE
8
LEFT_HID
6
HIDDEN
10
1.257293
20
1.054930
30
0.0
11
1.257293
21
1.060501
31
0.0
0
LINE
8
LEFT_HID
6
HIDDEN
10
1.257293
20
1.060501
30
0.0
11
1.257293
21
1.066072
31
0.0
0
LINE
8
LEFT_HID
6
HIDDEN
10
1.257293
20
1.066072
30
0.0
11
1.257293
21
1.071643
31
0.0
0
LINE
8
LEFT_HID
6
HIDDEN
10
1.257293
20
1.071643
30
0.0
11
1.257293
21
1.077214
31
0.0
0
LINE
8
LEFT_HID
6
HIDDEN
10
1.257293
20
1.077214
30
0.0
11
1.257293
21
1.082786
31
0.0
0
LINE
8
LEFT_HID
6
HIDDEN
10
1.257293
20
1.082786
30
0.0
11
1.257293
21
1.088357
31
0.0
0
LINE
8
LEFT_HID
6
HIDDEN
10
1.257293
20
1.088357
30
0.0
11
1.257293
21
1.093928
31
0.0
0
LINE
8
LEFT_HID
6
HIDDEN
10
1.257293
20
1.093928
30
0.0
11
1.257293
21
1.099499
31
0.0
0
LINE
8
LEFT_HID
6
HIDDEN
10
1.257293
20
1.099499
30
0.0
11
1.257293
21
1.105070
31
0.0
0
LINE
8
LEFT_HID
6
HIDDEN
10
1.257293
20
1.105070
30
0.0
11
1.257293
21
1.110641
31
0.0
0
LINE
8
LEFT_HID
6
HIDDEN
10
1.257293
20
1.110641
30
0.0
11
1.257293
21
1.116212
31
0.0
0
LINE
8
LEFT_HID
6
HIDDEN
10
1.257293
20
1.116212
30
0.0
11
1.257293
21
1.121783
31
0.0
0
LINE
8
LEFT_HID
6
HIDDEN
10
1.257293
20
1.121783
30
0.0
11
1.257293
21
1.127354
31
0.0
0
LINE
8
LEFT_HID
6
HIDDEN
10
1.257293
20
1.127354
30
0.0
11
1.257293
21
1.132925
31
0.0
0
LINE
8
LEFT_HID
6
HIDDEN
10
1.257293
20
1.132925
30
0.0
11
1.257293
21
1.138496
31
0.0
0
LINE
8
LEFT_HID
6
HIDDEN
10
1.257293
20
1.138496
30
0.0
11
1.257293
21
1.144067
31
0.0
0
LINE
8
LEFT_HID
6
HIDDEN
10
1.257293
20
1.144067
30
0.0
11
1.257293
21
1.149638
31
0.0
0
LINE
8
LEFT_HID
6
HIDDEN
10
1.257293
20
1.149638
30
0.0
11
1.257293
21
1.155209
31
0.0
0
LINE
8
LEFT_HID
6
HIDDEN
10
1.257293
20
1.155209
30
0.0
11
1.257293
21
1.160780
31
0.0
0
LINE
8
LEFT_HID
6
HIDDEN
10
1.257293
20
1.160780
30
0.0
11
1.257293
21
1.166351
31
0.0
0
LINE
8
LEFT_HID
6
HIDDEN
10
1.257293
20
1.166351
30
0.0
11
1.257293
21
1.163565
31
0.0
0
LINE
8
LEFT_HID
6
HIDDEN
10
1.257293
20
1.163565
30
0.0
11
1.257293
21
1.157994
31
0.0
0
LINE
8
LEFT_HID
6
HIDDEN
10
1.257293
20
1.157994
30
0.0
11
1.257293
21
1.152423
31
0.0
0
LINE
8
LEFT_HID
6
HIDDEN
10
1.257293
20
1.152423
30
0.0
11
1.257293
21
1.146852
31
0.0
0
LINE
8
LEFT_HID
6
HIDDEN
10
1.257293
20
1.146852
30
0.0
11
1.257293
21
1.141281
31
0.0
0
LINE
8
LEFT_HID
6
HIDDEN
10
1.257293
20
1.141281
30
0.0
11
1.257293
21
1.135710
31
0.0
0
LINE
8
LEFT_HID
6
HIDDEN
10
1.257293
20
1.135710
30
0.0
11
1.257293
21
1.130139
31
0.0
0
LINE
8
LEFT_HID
6
HIDDEN
10
1.257293
20
1.130139
30
0.0
11
1.257293
21
1.124568
31
0.0
0
LINE
8
LEFT_HID
6
HIDDEN
10
1.257293
20
1.124568
30
0.0
11
1.257293
21
1.118997
31
0.0
0
LINE
8
LEFT_HID
6
HIDDEN
10
1.257293
20
1.118997
30
0.0
11
1.257293
21
1.113426
31
0.0
0
LINE
8
LEFT_HID
6
HIDDEN
10
1.257293
20
1.113426
30
0.0
11
1.257293
21
1.107855
31
0.0
0
LINE
8
LEFT_HID
6
HIDDEN
10
1.257293
20
1.107855
30
0.0
11
1.257293
21
1.102284
31
0.0
0
LINE
8
LEFT_HID
6
HIDDEN
10
1.257293
20
1.102284
30
0.0
11
1.257293
21
1.096713
31
0.0
0
LINE
8
LEFT_HID
6
HIDDEN
10
1.257293
20
1.096713
30
0.0
11
1.257293
21
1.091142
31
0.0
0
LINE
8
LEFT_HID
6
HIDDEN
10
1.257293
20
1.091142
30
0.0
11
1.257293
21
1.085571
31
0.0
0
LINE
8
LEFT_HID
6
HIDDEN
10
1.257293
20
1.085571
30
0.0
11
1.257293
21
1.080000
31
0.0
0
LINE
8
TOP
10
0.000000
20
0.750000
30
0.0
11
0.000000
21
0.000000
31
0.0
0
LINE
8
TOP
10
0.357293
20
0.750000
30
0.0
11
0.357293
21
0.000000
31
0.0
0
LINE
8
TOP
10
0.357293
20
0.750000
30
0.0
11
0.000000
21
0.750000
31
0.0
0
LINE
8
TOP
10
0.357293
20
0.000000
30
0.0
11
0.000000
21
0.000000
31
0.0
0
LINE
8
TOP_HID
6
HIDDEN
10
0.087293
20
0.750000
30
0.0
11
0.093008
21
0.750000
31
0.0
0
LINE
8
TOP_HID
6
HIDDEN
10
0.093008
20
0.750000
30
0.0
11
0.098722
21
0.750000
31
0.0
0
LINE
8
TOP_HID
6
HIDDEN
10
0.098722
20
0.750000
30
0.0
11
0.104436
21
0.750000
31
0.0
0
LINE
8
TOP_HID
6
HIDDEN
10
0.104436
20
0.750000
30
0.0
11
0.110150
21
0.750000
31
0.0
0
LINE
8
TOP_HID
6
HIDDEN
10
0.110150
20
0.750000
30
0.0
11
0.115865
21
0.750000
31
0.0
0
LINE
8
TOP_HID
6
HIDDEN
10
0.115865
20
0.750000
30
0.0
11
0.121579
21
0.750000
31
0.0
0
LINE
8
TOP_HID
6
HIDDEN
10
0.121579
20
0.750000
30
0.0
11
0.127293
21
0.750000
31
0.0
0
LINE
8
TOP_HID
6
HIDDEN
10
0.127293
20
0.750000
30
0.0
11
0.133008
21
0.750000
31
0.0
0
LINE
8
TOP_HID
6
HIDDEN
10
0.133008
20
0.750000
30
0.0
11
0.138722
21
0.750000
31
0.0
0
LINE
8
TOP_HID
6
HIDDEN
10
0.138722
20
0.750000
30
0.0
11
0.144436
21
0.750000
31
0.0
0
LINE
8
TOP_HID
6
HIDDEN
10
0.144436
20
0.750000
30
0.0
11
0.150150
21
0.750000
31
0.0
0
LINE
8
TOP_HID
6
HIDDEN
10
0.150150
20
0.750000
30
0.0
11
0.155865
21
0.750000
31
0.0
0
LINE
8
TOP_HID
6
HIDDEN
10
0.155865
20
0.750000
30
0.0
11
0.161579
21
0.750000
31
0.0
0
LINE
8
TOP_HID
6
HIDDEN
10
0.161579
20
0.750000
30
0.0
11
0.167293
21
0.750000
31
0.0
0
LINE
8
TOP_HID
6
HIDDEN
10
0.167293
20
0.750000
30
0.0
11
0.173008
21
0.750000
31
0.0
0
LINE
8
TOP_HID
6
HIDDEN
10
0.173008
20
0.750000
30
0.0
11
0.178722
21
0.750000
31
0.0
0
LINE
8
TOP_HID
6
HIDDEN
10
0.178722
20
0.750000
30
0.0
11
0.184436
21
0.750000
31
0.0
0
LINE
8
TOP_HID
6
HIDDEN
10
0.184436
20
0.750000
30
0.0
11
0.190150
21
0.750000
31
0.0
0
LINE
8
TOP_HID
6
HIDDEN
10
0.190150
20
0.750000
30
0.0
11
0.195865
21
0.750000
31
0.0
0
LINE
8
TOP_HID
6
HIDDEN
10
0.195865
20
0.750000
30
0.0
11
0.201579
21
0.750000
31
0.0
0
LINE
8
TOP_HID
6
HIDDEN
10
0.201579
20
0.750000
30
0.0
11
0.207293
21
0.750000
31
0.0
0
LINE
8
TOP_HID
6
HIDDEN
10
0.207293
20
0.750000
30
0.0
11
0.213008
21
0.750000
31
0.0
0
LINE
8
TOP_HID
6
HIDDEN
10
0.213008
20
0.750000
30
0.0
11
0.218722
21
0.750000
31
0.0
0
LINE
8
TOP_HID
6
HIDDEN
10
0.218722
20
0.750000
30
0.0
11
0.224436
21
0.750000
31
0.0
0
LINE
8
TOP_HID
6
HIDDEN
10
0.224436
20
0.750000
30
0.0
11
0.230150
21
0.750000
31
0.0
0
LINE
8
TOP_HID
6
HIDDEN
10
0.230150
20
0.750000
30
0.0
11
0.235865
21
0.750000
31
0.0
0
LINE
8
TOP_HID
6
HIDDEN
10
0.235865
20
0.750000
30
0.0
11
0.241579
21
0.750000
31
0.0
0
LINE
8
TOP_HID
6
HIDDEN
10
0.241579
20
0.750000
30
0.0
11
0.247293
21
0.750000
31
0.0
0
LINE
8
TOP_HID
6
HIDDEN
10
0.247293
20
0.750000
30
0.0
11
0.253008
21
0.750000
31
0.0
0
LINE
8
TOP_HID
6
HIDDEN
10
0.253008
20
0.750000
30
0.0
11
0.258722
21
0.750000
31
0.0
0
LINE
8
TOP_HID
6
HIDDEN
10
0.258722
20
0.750000
30
0.0
11
0.264436
21
0.750000
31
0.0
0
LINE
8
TOP_HID
6
HIDDEN
10
0.264436
20
0.750000
30
0.0
11
0.258722
21
0.750000
31
0.0
0
LINE
8
TOP_HID
6
HIDDEN
10
0.258722
20
0.750000
30
0.0
11
0.253008
21
0.750000
31
0.0
0
LINE
8
TOP_HID
6
HIDDEN
10
0.253008
20
0.750000
30
0.0
11
0.247293
21
0.750000
31
0.0
0
LINE
8
TOP_HID
6
HIDDEN
10
0.247293
20
0.750000
30
0.0
11
0.241579
21
0.750000
31
0.0
0
LINE
8
TOP_HID
6
HIDDEN
10
0.241579
20
0.750000
30
0.0
11
0.235865
21
0.750000
31
0.0
0
LINE
8
TOP_HID
6
HIDDEN
10
0.235865
20
0.750000
30
0.0
11
0.230150
21
0.750000
31
0.0
0
LINE
8
TOP_HID
6
HIDDEN
10
0.230150
20
0.750000
30
0.0
11
0.224436
21
0.750000
31
0.0
0
LINE
8
TOP_HID
6
HIDDEN
10
0.224436
20
0.750000
30
0.0
11
0.218722
21
0.750000
31
0.0
0
LINE
8
TOP_HID
6
HIDDEN
10
0.218722
20
0.750000
30
0.0
11
0.213008
21
0.750000
31
0.0
0
LINE
8
TOP_HID
6
HIDDEN
10
0.213008
20
0.750000
30
0.0
11
0.207293
21
0.750000
31
0.0
0
LINE
8
TOP_HID
6
HIDDEN
10
0.207293
20
0.750000
30
0.0
11
0.201579
21
0.750000
31
0.0
0
LINE
8
TOP_HID
6
HIDDEN
10
0.201579
20
0.750000
30
0.0
11
0.195865
21
0.750000
31
0.0
0
LINE
8
TOP_HID
6
HIDDEN
10
0.195865
20
0.750000
30
0.0
11
0.190150
21
0.750000
31
0.0
0
LINE
8
TOP_HID
6
HIDDEN
10
0.190150
20
0.750000
30
0.0
11
0.184436
21
0.750000
31
0.0
0
LINE
8
TOP_HID
6
HIDDEN
10
0.184436
20
0.750000
30
0.0
11
0.178722
21
0.750000
31
0.0
0
LINE
8
TOP_HID
6
HIDDEN
10
0.178722
20
0.750000
30
0.0
11
0.173008
21
0.750000
31
0.0
0
LINE
8
TOP_HID
6
HIDDEN
10
0.173008
20
0.750000
30
0.0
11
0.167293
21
0.750000
31
0.0
0
LINE
8
TOP_HID
6
HIDDEN
10
0.167293
20
0.750000
30
0.0
11
0.161579
21
0.750000
31
0.0
0
LINE
8
TOP_HID
6
HIDDEN
10
0.161579
20
0.750000
30
0.0
11
0.155865
21
0.750000
31
0.0
0
LINE
8
TOP_HID
6
HIDDEN
10
0.155865
20
0.750000
30
0.0
11
0.150150
21
0.750000
31
0.0
0
LINE
8
TOP_HID
6
HIDDEN
10
0.150150
20
0.750000
30
0.0
11
0.144436
21
0.750000
31
0.0
0
LINE
8
TOP_HID
6
HIDDEN
10
0.144436
20
0.750000
30
0.0
11
0.138722
21
0.750000
31
0.0
0
LINE
8
TOP_HID
6
HIDDEN
10
0.138722
20
0.750000
30
0.0
11
0.133008
21
0.750000
31
0.0
0
LINE
8
TOP_HID
6
HIDDEN
10
0.133008
20
0.750000
30
0.0
11
0.127293
21
0.750000
31
0.0
0
LINE
8
TOP_HID
6
HIDDEN
10
0.127293
20
0.750000
30
0.0
11
0.121579
21
0.750000
31
0.0
0
LINE
8
TOP_HID
6
HIDDEN
10
0.121579
20
0.750000
30
0.0
11
0.115865
21
0.750000
31
0.0
0
LINE
8
TOP_HID
6
HIDDEN
10
0.115865
20
0.750000
30
0.0
11
0.110150
21
0.750000
31
0.0
0
LINE
8
TOP_HID
6
HIDDEN
10
0.110150
20
0.750000
30
0.0
11
0.104436
21
0.750000
31
0.0
0
LINE
8
TOP_HID
6
HIDDEN
10
0.104436
20
0.750000
30
0.0
11
0.098722
21
0.750000
31
0.0
0
LINE
8
TOP_HID
6
HIDDEN
10
0.098722
20
0.750000
30
0.0
11
0.093008
21
0.750000
31
0.0
0
LINE
8
TOP_HID
6
HIDDEN
10
0.093008
20
0.750000
30
0.0
11
0.087293
21
0.750000
31
0.0
0
LINE
8
TOP_HID
6
HIDDEN
10
0.087293
20
0.000000
30
0.0
11
0.093008
21
0.000000
31
0.0
0
LINE
8
TOP_HID
6
HIDDEN
10
0.093008
20
0.000000
30
0.0
11
0.098722
21
0.000000
31
0.0
0
LINE
8
TOP_HID
6
HIDDEN
10
0.098722
20
0.000000
30
0.0
11
0.104436
21
0.000000
31
0.0
0
LINE
8
TOP_HID
6
HIDDEN
10
0.104436
20
0.000000
30
0.0
11
0.110150
21
0.000000
31
0.0
0
LINE
8
TOP_HID
6
HIDDEN
10
0.110150
20
0.000000
30
0.0
11
0.115865
21
0.000000
31
0.0
0
LINE
8
TOP_HID
6
HIDDEN
10
0.115865
20
0.000000
30
0.0
11
0.121579
21
0.000000
31
0.0
0
LINE
8
TOP_HID
6
HIDDEN
10
0.121579
20
0.000000
30
0.0
11
0.127293
21
0.000000
31
0.0
0
LINE
8
TOP_HID
6
HIDDEN
10
0.127293
20
0.000000
30
0.0
11
0.133008
21
0.000000
31
0.0
0
LINE
8
TOP_HID
6
HIDDEN
10
0.133008
20
0.000000
30
0.0
11
0.138722
21
0.000000
31
0.0
0
LINE
8
TOP_HID
6
HIDDEN
10
0.138722
20
0.000000
30
0.0
11
0.144436
21
0.000000
31
0.0
0
LINE
8
TOP_HID
6
HIDDEN
10
0.144436
20
0.000000
30
0.0
11
0.150150
21
0.000000
31
0.0
0
LINE
8
TOP_HID
6
HIDDEN
10
0.150150
20
0.000000
30
0.0
11
0.155865
21
0.000000
31
0.0
0
LINE
8
TOP_HID
6
HIDDEN
10
0.155865
20
0.000000
30
0.0
11
0.161579
21
0.000000
31
0.0
0
LINE
8
TOP_HID
6
HIDDEN
10
0.161579
20
0.000000
30
0.0
11
0.167293
21
0.000000
31
0.0
0
LINE
8
TOP_HID
6
HIDDEN
10
0.167293
20
0.000000
30
0.0
11
0.173008
21
0.000000
31
0.0
0
LINE
8
TOP_HID
6
HIDDEN
10
0.173008
20
0.000000
30
0.0
11
0.178722
21
0.000000
31
0.0
0
LINE
8
TOP_HID
6
HIDDEN
10
0.178722
20
0.000000
30
0.0
11
0.184436
21
0.000000
31
0.0
0
LINE
8
TOP_HID
6
HIDDEN
10
0.184436
20
0.000000
30
0.0
11
0.190150
21
0.000000
31
0.0
0
LINE
8
TOP_HID
6
HIDDEN
10
0.190150
20
0.000000
30
0.0
11
0.195865
21
0.000000
31
0.0
0
LINE
8
TOP_HID
6
HIDDEN
10
0.195865
20
0.000000
30
0.0
11
0.201579
21
0.000000
31
0.0
0
LINE
8
TOP_HID
6
HIDDEN
10
0.201579
20
0.000000
30
0.0
11
0.207293
21
0.000000
31
0.0
0
LINE
8
TOP_HID
6
HIDDEN
10
0.207293
20
0.000000
30
0.0
11
0.213008
21
0.000000
31
0.0
0
LINE
8
TOP_HID
6
HIDDEN
10
0.213008
20
0.000000
30
0.0
11
0.218722
21
0.000000
31
0.0
0
LINE
8
TOP_HID
6
HIDDEN
10
0.218722
20
0.000000
30
0.0
11
0.224436
21
0.000000
31
0.0
0
LINE
8
TOP_HID
6
HIDDEN
10
0.224436
20
0.000000
30
0.0
11
0.230150
21
0.000000
31
0.0
0
LINE
8
TOP_HID
6
HIDDEN
10
0.230150
20
0.000000
30
0.0
11
0.235865
21
0.000000
31
0.0
0
LINE
8
TOP_HID
6
HIDDEN
10
0.235865
20
0.000000
30
0.0
11
0.241579
21
0.000000
31
0.0
0
LINE
8
TOP_HID
6
HIDDEN
10
0.241579
20
0.000000
30
0.0
11
0.247293
21
0.000000
31
0.0
0
LINE
8
TOP_HID
6
HIDDEN
10
0.247293
20
0.000000
30
0.0
11
0.253008
21
0.000000
31
0.0
0
LINE
8
TOP_HID
6
HIDDEN
10
0.253008
20
0.000000
30
0.0
11
0.258722
21
0.000000
31
0.0
0
LINE
8
TOP_HID
6
HIDDEN
10
0.258722
20
0.000000
30
0.0
11
0.264436
21
0.000000
31
0.0
0
LINE
8
TOP_HID
6
HIDDEN
10
0.264436
20
0.000000
30
0.0
11
0.258722
21
0.000000
31
0.0
0
LINE
8
TOP_HID
6
HIDDEN
10
0.258722
20
0.000000
30
0.0
11
0.253008
21
0.000000
31
0.0
0
LINE
8
TOP_HID
6
HIDDEN
10
0.253008
20
0.000000
30
0.0
11
0.247293
21
0.000000
31
0.0
0
LINE
8
TOP_HID
6
HIDDEN
10
0.247293
20
0.000000
30
0.0
11
0.241579
21
0.000000
31
0.0
0
LINE
8
TOP_HID
6
HIDDEN
10
0.241579
20
0.000000
30
0.0
11
0.235865
21
0.000000
31
0.0
0
LINE
8
TOP_HID
6
HIDDEN
10
0.235865
20
0.000000
30
0.0
11
0.230150
21
0.000000
31
0.0
0
LINE
8
TOP_HID
6
HIDDEN
10
0.230150
20
0.000000
30
0.0
11
0.224436
21
0.000000
31
0.0
0
LINE
8
TOP_HID
6
HIDDEN
10
0.224436
20
0.000000
30
0.0
11
0.218722
21
0.000000
31
0.0
0
LINE
8
TOP_HID
6
HIDDEN
10
0.218722
20
0.000000
30
0.0
11
0.213008
21
0.000000
31
0.0
0
LINE
8
TOP_HID
6
HIDDEN
10
0.213008
20
0.000000
30
0.0
11
0.207293
21
0.000000
31
0.0
0
LINE
8
TOP_HID
6
HIDDEN
10
0.207293
20
0.000000
30
0.0
11
0.201579
21
0.000000
31
0.0
0
LINE
8
TOP_HID
6
HIDDEN
10
0.201579
20
0.000000
30
0.0
11
0.195865
21
0.000000
31
0.0
0
LINE
8
TOP_HID
6
HIDDEN
10
0.195865
20
0.000000
30
0.0
11
0.190150
21
0.000000
31
0.0
0
LINE
8
TOP_HID
6
HIDDEN
10
0.190150
20
0.000000
30
0.0
11
0.184436
21
0.000000
31
0.0
0
LINE
8
TOP_HID
6
HIDDEN
10
0.184436
20
0.000000
30
0.0
11
0.178722
21
0.000000
31
0.0
0
LINE
8
TOP_HID
6
HIDDEN
10
0.178722
20
0.000000
30
0.0
11
0.173008
21
0.000000
31
0.0
0
LINE
8
TOP_HID
6
HIDDEN
10
0.173008
20
0.000000
30
0.0
11
0.167293
21
0.000000
31
0.0
0
LINE
8
TOP_HID
6
HIDDEN
10
0.167293
20
0.000000
30
0.0
11
0.161579
21
0.000000
31
0.0
0
LINE
8
TOP_HID
6
HIDDEN
10
0.161579
20
0.000000
30
0.0
11
0.155865
21
0.000000
31
0.0
0
LINE
8
TOP_HID
6
HIDDEN
10
0.155865
20
0.000000
30
0.0
11
0.150150
21
0.000000
31
0.0
0
LINE
8
TOP_HID
6
HIDDEN
10
0.150150
20
0.000000
30
0.0
11
0.144436
21
0.000000
31
0.0
0
LINE
8
TOP_HID
6
HIDDEN
10
0.144436
20
0.000000
30
0.0
11
0.138722
21
0.000000
31
0.0
0
LINE
8
TOP_HID
6
HIDDEN
10
0.138722
20
0.000000
30
0.0
11
0.133008
21
0.000000
31
0.0
0
LINE
8
TOP_HID
6
HIDDEN
10
0.133008
20
0.000000
30
0.0
11
0.127293
21
0.000000
31
0.0
0
LINE
8
TOP_HID
6
HIDDEN
10
0.127293
20
0.000000
30
0.0
11
0.121579
21
0.000000
31
0.0
0
LINE
8
TOP_HID
6
HIDDEN
10
0.121579
20
0.000000
30
0.0
11
0.115865
21
0.000000
31
0.0
0
LINE
8
TOP_HID
6
HIDDEN
10
0.115865
20
0.000000
30
0.0
11
0.110150
21
0.000000
31
0.0
0
LINE
8
TOP_HID
6
HIDDEN
10
0.110150
20
0.000000
30
0.0
11
0.104436
21
0.000000
31
0.0
0
LINE
8
TOP_HID
6
HIDDEN
10
0.104436
20
0.000000
30
0.0
11
0.098722
21
0.000000
31
0.0
0
LINE
8
TOP_HID
6
HIDDEN
10
0.098722
20
0.000000
30
0.0
11
0.093008
21
0.000000
31
0.0
0
LINE
8
TOP_HID
6
HIDDEN
10
0.093008
20
0.000000
30
0.0
11
0.087293
21
0.000000
31
0.0
0
ENDSEC
0
EOF
