0
SECTION
2
HEADER
9
$ACADVER
1
AC1009
0
ENDSEC
0
SECTION
2
TABLES
0
TABLE
2
LTYPE
70
3
0
LTYPE
2
CONTINUOUS
70
0
3
Solid line
72
65
73
0
40
0.0
0
LTYPE
2
HIDDEN
70
0
3
__ __ __ __ __
72
65
73
2
40
0.037500
49
0.025013
49
-0.012488
0
LTYPE
2
CENTER
70
0
3
___ _ ___ _ ___
72
65
73
4
40
0.087488
49
0.049988
49
-0.012488
49
0.012488
49
-0.012488
0
ENDTAB
0
TABLE
2
LAYER
70
6
0
LAYER
2
0
70
0
62
7
6
CONTINUOUS
0
LAYER
2
FRONT
70
0
62
7
6
CONTINUOUS
0
LAYER
2
FRONT_HID
70
0
62
7
6
HIDDEN
0
LAYER
2
LEFT
70
0
62
7
6
CONTINUOUS
0
LAYER
2
LEFT_HID
70
0
62
7
6
HIDDEN
0
LAYER
2
TOP
70
0
62
7
6
CONTINUOUS
0
ENDTAB
0
ENDSEC
0
SECTION
2
ENTITIES
0
LINE
8
FRONT
10
0.612500
20
0.762500
30
0.0
11
0.612500
21
1.512500
31
0.0
0
LINE
8
FRONT
10
0.612500
20
1.512500
30
0.0
11
0.068139
21
1.512500
31
0.0
0
LINE
8
FRONT
10
0.068139
20
0.762500
30
0.0
11
0.068139
21
1.512500
31
0.0
0
LINE
8
FRONT
10
0.612500
20
0.762500
30
0.0
11
0.068139
21
0.762500
31
0.0
0
LINE
8
FRONT
10
0.068139
20
1.512500
30
0.0
11
0.000000
21
1.512500
31
0.0
0
LINE
8
FRONT
10
0.000000
20
0.762500
30
0.0
11
0.000000
21
1.512500
31
0.0
0
LINE
8
FRONT
10
0.068139
20
0.762500
30
0.0
11
0.000000
21
0.762500
31
0.0
0
LINE
8
FRONT_HID
6
HIDDEN
10
0.000000
20
1.512500
30
0.0
11
0.092188
21
1.512500
31
0.0
0
LINE
8
FRONT_HID
6
HIDDEN
10
0.092188
20
0.762500
30
0.0
11
0.092188
21
1.512500
31
0.0
0
LINE
8
FRONT_HID
6
HIDDEN
10
0.000000
20
0.762500
30
0.0
11
0.092188
21
0.762500
31
0.0
0
LINE
8
FRONT_HID
6
HIDDEN
10
0.092188
20
0.762500
30
0.0
11
0.092188
21
1.512500
31
0.0
0
LINE
8
FRONT_HID
6
HIDDEN
10
0.092188
20
1.512500
30
0.0
11
0.107813
21
1.512500
31
0.0
0
LINE
8
FRONT_HID
6
HIDDEN
10
0.092188
20
0.762500
30
0.0
11
0.107813
21
0.762500
31
0.0
0
LINE
8
FRONT_HID
6
HIDDEN
10
0.107813
20
1.512500
30
0.0
11
0.429688
21
1.512500
31
0.0
0
LINE
8
FRONT_HID
6
HIDDEN
10
0.107813
20
0.762500
30
0.0
11
0.429688
21
0.762500
31
0.0
0
LINE
8
FRONT_HID
6
HIDDEN
10
0.429687
20
1.512500
30
0.0
11
0.445312
21
1.512500
31
0.0
0
LINE
8
FRONT_HID
6
HIDDEN
10
0.445312
20
0.762500
30
0.0
11
0.445312
21
1.512500
31
0.0
0
LINE
8
FRONT_HID
6
HIDDEN
10
0.429687
20
0.762500
30
0.0
11
0.445312
21
0.762500
31
0.0
0
LINE
8
FRONT_HID
6
HIDDEN
10
0.445312
20
0.762500
30
0.0
11
0.445312
21
1.512500
31
0.0
0
LINE
8
FRONT_HID
6
HIDDEN
10
0.445312
20
1.512500
30
0.0
11
0.612500
21
1.512500
31
0.0
0
LINE
8
FRONT_HID
6
HIDDEN
10
0.445312
20
0.762500
30
0.0
11
0.612500
21
0.762500
31
0.0
0
LINE
8
FRONT_HID
6
HIDDEN
10
0.107813
20
0.762500
30
0.0
11
0.107813
21
1.512500
31
0.0
0
LINE
8
FRONT_HID
6
HIDDEN
10
0.429688
20
0.762500
30
0.0
11
0.429688
21
1.512500
31
0.0
0
LINE
8
LEFT
10
1.375000
20
0.762500
30
0.0
11
1.375000
21
1.512500
31
0.0
0
LINE
8
LEFT
10
0.762500
20
0.762500
30
0.0
11
0.762500
21
1.512500
31
0.0
0
LINE
8
LEFT
10
0.762500
20
1.512500
30
0.0
11
0.812500
21
1.512500
31
0.0
0
LINE
8
LEFT
10
0.812500
20
0.762500
30
0.0
11
0.812500
21
1.512500
31
0.0
0
LINE
8
LEFT
10
0.762500
20
0.762500
30
0.0
11
0.812500
21
0.762500
31
0.0
0
LINE
8
LEFT
10
0.812500
20
1.512500
30
0.0
11
1.375000
21
1.512500
31
0.0
0
LINE
8
LEFT
10
0.812500
20
0.762500
30
0.0
11
1.375000
21
0.762500
31
0.0
0
LINE
8
LEFT_HID
6
HIDDEN
10
1.375000
20
1.512500
30
0.0
11
1.046875
21
1.512500
31
0.0
0
LINE
8
LEFT_HID
6
HIDDEN
10
1.375000
20
0.762500
30
0.0
11
1.046875
21
0.762500
31
0.0
0
LINE
8
LEFT_HID
6
HIDDEN
10
1.046875
20
1.512500
30
0.0
11
1.031250
21
1.512500
31
0.0
0
LINE
8
LEFT_HID
6
HIDDEN
10
1.031250
20
0.762500
30
0.0
11
1.031250
21
1.512500
31
0.0
0
LINE
8
LEFT_HID
6
HIDDEN
10
1.046875
20
0.762500
30
0.0
11
1.031250
21
0.762500
31
0.0
0
LINE
8
LEFT_HID
6
HIDDEN
10
1.031250
20
0.762500
30
0.0
11
1.031250
21
1.512500
31
0.0
0
LINE
8
LEFT_HID
6
HIDDEN
10
1.031250
20
1.512500
30
0.0
11
1.046875
21
1.512500
31
0.0
0
LINE
8
LEFT_HID
6
HIDDEN
10
1.031250
20
0.762500
30
0.0
11
1.046875
21
0.762500
31
0.0
0
LINE
8
LEFT_HID
6
HIDDEN
10
1.046875
20
1.512500
30
0.0
11
1.375000
21
1.512500
31
0.0
0
LINE
8
LEFT_HID
6
HIDDEN
10
1.046875
20
0.762500
30
0.0
11
1.375000
21
0.762500
31
0.0
0
LINE
8
LEFT_HID
6
HIDDEN
10
1.375000
20
1.512500
30
0.0
11
0.935000
21
1.512500
31
0.0
0
LINE
8
LEFT_HID
6
HIDDEN
10
0.935000
20
0.762500
30
0.0
11
0.935000
21
1.512500
31
0.0
0
LINE
8
LEFT_HID
6
HIDDEN
10
1.375000
20
0.762500
30
0.0
11
0.935000
21
0.762500
31
0.0
0
LINE
8
LEFT_HID
6
HIDDEN
10
0.935000
20
1.512500
30
0.0
11
0.762500
21
1.512500
31
0.0
0
LINE
8
LEFT_HID
6
HIDDEN
10
0.935000
20
0.762500
30
0.0
11
0.762500
21
0.762500
31
0.0
0
LINE
8
LEFT_HID
6
HIDDEN
10
1.046875
20
0.762500
30
0.0
11
1.046875
21
1.512500
31
0.0
0
LINE
8
LEFT_HID
6
HIDDEN
10
1.046875
20
0.762500
30
0.0
11
1.046875
21
1.512500
31
0.0
0
LINE
8
TOP
10
0.000000
20
0.000000
30
0.0
11
0.092188
21
0.000000
31
0.0
0
LINE
8
TOP
10
0.092188
20
0.000000
30
0.0
11
0.092188
21
0.328125
31
0.0
0
LINE
8
TOP
10
0.092188
20
0.328125
30
0.0
11
0.092192
21
0.328515
31
0.0
0
LINE
8
TOP
10
0.092192
20
0.328515
30
0.0
11
0.092207
21
0.328904
31
0.0
0
LINE
8
TOP
10
0.092207
20
0.328904
30
0.0
11
0.092231
21
0.329293
31
0.0
0
LINE
8
TOP
10
0.092231
20
0.329293
30
0.0
11
0.092265
21
0.329681
31
0.0
0
LINE
8
TOP
10
0.092265
20
0.329681
30
0.0
11
0.092309
21
0.330068
31
0.0
0
LINE
8
TOP
10
0.092309
20
0.330068
30
0.0
11
0.092362
21
0.330454
31
0.0
0
LINE
8
TOP
10
0.092362
20
0.330454
30
0.0
11
0.092425
21
0.330838
31
0.0
0
LINE
8
TOP
10
0.092425
20
0.330838
30
0.0
11
0.092497
21
0.331221
31
0.0
0
LINE
8
TOP
10
0.092497
20
0.331221
30
0.0
11
0.092579
21
0.331602
31
0.0
0
LINE
8
TOP
10
0.092579
20
0.331602
30
0.0
11
0.092671
21
0.331981
31
0.0
0
LINE
8
TOP
10
0.092671
20
0.331981
30
0.0
11
0.092771
21
0.332357
31
0.0
0
LINE
8
TOP
10
0.092771
20
0.332357
30
0.0
11
0.092882
21
0.332731
31
0.0
0
LINE
8
TOP
10
0.092882
20
0.332731
30
0.0
11
0.093001
21
0.333101
31
0.0
0
LINE
8
TOP
10
0.093001
20
0.333101
30
0.0
11
0.093130
21
0.333469
31
0.0
0
LINE
8
TOP
10
0.093130
20
0.333469
30
0.0
11
0.093268
21
0.333833
31
0.0
0
LINE
8
TOP
10
0.093268
20
0.333833
30
0.0
11
0.093414
21
0.334194
31
0.0
0
LINE
8
TOP
10
0.093414
20
0.334194
30
0.0
11
0.093570
21
0.334551
31
0.0
0
LINE
8
TOP
10
0.093570
20
0.334551
30
0.0
11
0.093735
21
0.334904
31
0.0
0
LINE
8
TOP
10
0.093735
20
0.334904
30
0.0
11
0.093908
21
0.335253
31
0.0
0
LINE
8
TOP
10
0.093908
20
0.335253
30
0.0
11
0.094090
21
0.335598
31
0.0
0
LINE
8
TOP
10
0.094090
20
0.335598
30
0.0
11
0.094281
21
0.335937
31
0.0
0
LINE
8
TOP
10
0.094281
20
0.335937
30
0.0
11
0.094480
21
0.336272
31
0.0
0
LINE
8
TOP
10
0.094480
20
0.336272
30
0.0
11
0.094687
21
0.336602
31
0.0
0
LINE
8
TOP
10
0.094687
20
0.336602
30
0.0
11
0.094903
21
0.336927
31
0.0
0
LINE
8
TOP
10
0.094903
20
0.336927
30
0.0
11
0.095126
21
0.337246
31
0.0
0
LINE
8
TOP
10
0.095126
20
0.337246
30
0.0
11
0.095357
21
0.337559
31
0.0
0
LINE
8
TOP
10
0.095357
20
0.337559
30
0.0
11
0.095596
21
0.337867
31
0.0
0
LINE
8
TOP
10
0.095596
20
0.337867
30
0.0
11
0.095843
21
0.338169
31
0.0
0
LINE
8
TOP
10
0.095843
20
0.338169
30
0.0
11
0.096097
21
0.338464
31
0.0
0
LINE
8
TOP
10
0.096097
20
0.338464
30
0.0
11
0.096359
21
0.338753
31
0.0
0
LINE
8
TOP
10
0.096359
20
0.338753
30
0.0
11
0.096627
21
0.339035
31
0.0
0
LINE
8
TOP
10
0.096627
20
0.339035
30
0.0
11
0.096903
21
0.339310
31
0.0
0
LINE
8
TOP
10
0.096903
20
0.339310
30
0.0
11
0.097185
21
0.339579
31
0.0
0
LINE
8
TOP
10
0.097185
20
0.339579
30
0.0
11
0.097474
21
0.339840
31
0.0
0
LINE
8
TOP
10
0.097474
20
0.339840
30
0.0
11
0.097769
21
0.340094
31
0.0
0
LINE
8
TOP
10
0.097769
20
0.340094
30
0.0
11
0.098070
21
0.340341
31
0.0
0
LINE
8
TOP
10
0.098070
20
0.340341
30
0.0
11
0.098378
21
0.340580
31
0.0
0
LINE
8
TOP
10
0.098378
20
0.340580
30
0.0
11
0.098692
21
0.340812
31
0.0
0
LINE
8
TOP
10
0.098692
20
0.340812
30
0.0
11
0.099011
21
0.341035
31
0.0
0
LINE
8
TOP
10
0.099011
20
0.341035
30
0.0
11
0.099335
21
0.341250
31
0.0
0
LINE
8
TOP
10
0.099335
20
0.341250
30
0.0
11
0.099665
21
0.341458
31
0.0
0
LINE
8
TOP
10
0.099665
20
0.341458
30
0.0
11
0.100000
21
0.341657
31
0.0
0
LINE
8
TOP
10
0.100000
20
0.341657
30
0.0
11
0.100340
21
0.341847
31
0.0
0
LINE
8
TOP
10
0.100340
20
0.341847
30
0.0
11
0.100684
21
0.342029
31
0.0
0
LINE
8
TOP
10
0.100684
20
0.342029
30
0.0
11
0.101033
21
0.342203
31
0.0
0
LINE
8
TOP
10
0.101033
20
0.342203
30
0.0
11
0.101386
21
0.342367
31
0.0
0
LINE
8
TOP
10
0.101386
20
0.342367
30
0.0
11
0.101743
21
0.342523
31
0.0
0
LINE
8
TOP
10
0.101743
20
0.342523
30
0.0
11
0.102104
21
0.342670
31
0.0
0
LINE
8
TOP
10
0.102104
20
0.342670
30
0.0
11
0.102468
21
0.342808
31
0.0
0
LINE
8
TOP
10
0.102468
20
0.342808
30
0.0
11
0.102836
21
0.342936
31
0.0
0
LINE
8
TOP
10
0.102836
20
0.342936
30
0.0
11
0.103207
21
0.343056
31
0.0
0
LINE
8
TOP
10
0.103207
20
0.343056
30
0.0
11
0.103581
21
0.343166
31
0.0
0
LINE
8
TOP
10
0.103581
20
0.343166
30
0.0
11
0.103957
21
0.343267
31
0.0
0
LINE
8
TOP
10
0.103957
20
0.343267
30
0.0
11
0.104336
21
0.343358
31
0.0
0
LINE
8
TOP
10
0.104336
20
0.343358
30
0.0
11
0.104716
21
0.343440
31
0.0
0
LINE
8
TOP
10
0.104716
20
0.343440
30
0.0
11
0.105099
21
0.343513
31
0.0
0
LINE
8
TOP
10
0.105099
20
0.343513
30
0.0
11
0.105484
21
0.343575
31
0.0
0
LINE
8
TOP
10
0.105484
20
0.343575
30
0.0
11
0.105870
21
0.343629
31
0.0
0
LINE
8
TOP
10
0.105870
20
0.343629
30
0.0
11
0.106257
21
0.343672
31
0.0
0
LINE
8
TOP
10
0.106257
20
0.343672
30
0.0
11
0.106645
21
0.343706
31
0.0
0
LINE
8
TOP
10
0.106645
20
0.343706
30
0.0
11
0.107034
21
0.343731
31
0.0
0
LINE
8
TOP
10
0.107034
20
0.343731
30
0.0
11
0.107423
21
0.343745
31
0.0
0
LINE
8
TOP
10
0.107423
20
0.343745
30
0.0
11
0.107813
21
0.343750
31
0.0
0
LINE
8
TOP
10
0.107813
20
0.343750
30
0.0
11
0.429688
21
0.343750
31
0.0
0
LINE
8
TOP
10
0.429687
20
0.343750
30
0.0
11
0.430077
21
0.343745
31
0.0
0
LINE
8
TOP
10
0.430077
20
0.343745
30
0.0
11
0.430466
21
0.343731
31
0.0
0
LINE
8
TOP
10
0.430466
20
0.343731
30
0.0
11
0.430855
21
0.343706
31
0.0
0
LINE
8
TOP
10
0.430855
20
0.343706
30
0.0
11
0.431243
21
0.343672
31
0.0
0
LINE
8
TOP
10
0.431243
20
0.343672
30
0.0
11
0.431630
21
0.343629
31
0.0
0
LINE
8
TOP
10
0.431630
20
0.343629
30
0.0
11
0.432016
21
0.343575
31
0.0
0
LINE
8
TOP
10
0.432016
20
0.343575
30
0.0
11
0.432401
21
0.343513
31
0.0
0
LINE
8
TOP
10
0.432401
20
0.343513
30
0.0
11
0.432784
21
0.343440
31
0.0
0
LINE
8
TOP
10
0.432784
20
0.343440
30
0.0
11
0.433164
21
0.343358
31
0.0
0
LINE
8
TOP
10
0.433164
20
0.343358
30
0.0
11
0.433543
21
0.343267
31
0.0
0
LINE
8
TOP
10
0.433543
20
0.343267
30
0.0
11
0.433919
21
0.343166
31
0.0
0
LINE
8
TOP
10
0.433919
20
0.343166
30
0.0
11
0.434293
21
0.343056
31
0.0
0
LINE
8
TOP
10
0.434293
20
0.343056
30
0.0
11
0.434664
21
0.342936
31
0.0
0
LINE
8
TOP
10
0.434664
20
0.342936
30
0.0
11
0.435032
21
0.342808
31
0.0
0
LINE
8
TOP
10
0.435032
20
0.342808
30
0.0
11
0.435396
21
0.342670
31
0.0
0
LINE
8
TOP
10
0.435396
20
0.342670
30
0.0
11
0.435757
21
0.342523
31
0.0
0
LINE
8
TOP
10
0.435757
20
0.342523
30
0.0
11
0.436114
21
0.342367
31
0.0
0
LINE
8
TOP
10
0.436114
20
0.342367
30
0.0
11
0.436467
21
0.342203
31
0.0
0
LINE
8
TOP
10
0.436467
20
0.342203
30
0.0
11
0.436816
21
0.342029
31
0.0
0
LINE
8
TOP
10
0.436816
20
0.342029
30
0.0
11
0.437160
21
0.341847
31
0.0
0
LINE
8
TOP
10
0.437160
20
0.341847
30
0.0
11
0.437500
21
0.341657
31
0.0
0
LINE
8
TOP
10
0.437500
20
0.341657
30
0.0
11
0.437835
21
0.341458
31
0.0
0
LINE
8
TOP
10
0.437835
20
0.341458
30
0.0
11
0.438165
21
0.341250
31
0.0
0
LINE
8
TOP
10
0.438165
20
0.341250
30
0.0
11
0.438489
21
0.341035
31
0.0
0
LINE
8
TOP
10
0.438489
20
0.341035
30
0.0
11
0.438808
21
0.340812
31
0.0
0
LINE
8
TOP
10
0.438808
20
0.340812
30
0.0
11
0.439122
21
0.340580
31
0.0
0
LINE
8
TOP
10
0.439122
20
0.340580
30
0.0
11
0.439430
21
0.340341
31
0.0
0
LINE
8
TOP
10
0.439430
20
0.340341
30
0.0
11
0.439731
21
0.340094
31
0.0
0
LINE
8
TOP
10
0.439731
20
0.340094
30
0.0
11
0.440026
21
0.339840
31
0.0
0
LINE
8
TOP
10
0.440026
20
0.339840
30
0.0
11
0.440315
21
0.339579
31
0.0
0
LINE
8
TOP
10
0.440315
20
0.339579
30
0.0
11
0.440597
21
0.339310
31
0.0
0
LINE
8
TOP
10
0.440597
20
0.339310
30
0.0
11
0.440873
21
0.339035
31
0.0
0
LINE
8
TOP
10
0.440873
20
0.339035
30
0.0
11
0.441141
21
0.338753
31
0.0
0
LINE
8
TOP
10
0.441141
20
0.338753
30
0.0
11
0.441403
21
0.338464
31
0.0
0
LINE
8
TOP
10
0.441403
20
0.338464
30
0.0
11
0.441657
21
0.338169
31
0.0
0
LINE
8
TOP
10
0.441657
20
0.338169
30
0.0
11
0.441904
21
0.337867
31
0.0
0
LINE
8
TOP
10
0.441904
20
0.337867
30
0.0
11
0.442143
21
0.337559
31
0.0
0
LINE
8
TOP
10
0.442143
20
0.337559
30
0.0
11
0.442374
21
0.337246
31
0.0
0
LINE
8
TOP
10
0.442374
20
0.337246
30
0.0
11
0.442597
21
0.336927
31
0.0
0
LINE
8
TOP
10
0.442597
20
0.336927
30
0.0
11
0.442813
21
0.336602
31
0.0
0
LINE
8
TOP
10
0.442813
20
0.336602
30
0.0
11
0.443020
21
0.336272
31
0.0
0
LINE
8
TOP
10
0.443020
20
0.336272
30
0.0
11
0.443219
21
0.335938
31
0.0
0
LINE
8
TOP
10
0.443219
20
0.335938
30
0.0
11
0.443410
21
0.335598
31
0.0
0
LINE
8
TOP
10
0.443410
20
0.335598
30
0.0
11
0.443592
21
0.335253
31
0.0
0
LINE
8
TOP
10
0.443592
20
0.335253
30
0.0
11
0.443765
21
0.334904
31
0.0
0
LINE
8
TOP
10
0.443765
20
0.334904
30
0.0
11
0.443930
21
0.334551
31
0.0
0
LINE
8
TOP
10
0.443930
20
0.334551
30
0.0
11
0.444086
21
0.334194
31
0.0
0
LINE
8
TOP
10
0.444086
20
0.334194
30
0.0
11
0.444232
21
0.333833
31
0.0
0
LINE
8
TOP
10
0.444232
20
0.333833
30
0.0
11
0.444370
21
0.333469
31
0.0
0
LINE
8
TOP
10
0.444370
20
0.333469
30
0.0
11
0.444499
21
0.333101
31
0.0
0
LINE
8
TOP
10
0.444499
20
0.333101
30
0.0
11
0.444618
21
0.332731
31
0.0
0
LINE
8
TOP
10
0.444618
20
0.332731
30
0.0
11
0.444729
21
0.332357
31
0.0
0
LINE
8
TOP
10
0.444729
20
0.332357
30
0.0
11
0.444829
21
0.331981
31
0.0
0
LINE
8
TOP
10
0.444829
20
0.331981
30
0.0
11
0.444921
21
0.331602
31
0.0
0
LINE
8
TOP
10
0.444921
20
0.331602
30
0.0
11
0.445003
21
0.331221
31
0.0
0
LINE
8
TOP
10
0.445003
20
0.331221
30
0.0
11
0.445075
21
0.330838
31
0.0
0
LINE
8
TOP
10
0.445075
20
0.330838
30
0.0
11
0.445138
21
0.330454
31
0.0
0
LINE
8
TOP
10
0.445138
20
0.330454
30
0.0
11
0.445191
21
0.330068
31
0.0
0
LINE
8
TOP
10
0.445191
20
0.330068
30
0.0
11
0.445235
21
0.329681
31
0.0
0
LINE
8
TOP
10
0.445235
20
0.329681
30
0.0
11
0.445269
21
0.329293
31
0.0
0
LINE
8
TOP
10
0.445269
20
0.329293
30
0.0
11
0.445293
21
0.328904
31
0.0
0
LINE
8
TOP
10
0.445293
20
0.328904
30
0.0
11
0.445308
21
0.328515
31
0.0
0
LINE
8
TOP
10
0.445308
20
0.328515
30
0.0
11
0.445312
21
0.328125
31
0.0
0
LINE
8
TOP
10
0.445312
20
0.328125
30
0.0
11
0.445312
21
0.000000
31
0.0
0
LINE
8
TOP
10
0.445312
20
0.000000
30
0.0
11
0.612500
21
0.000000
31
0.0
0
LINE
8
TOP
10
0.612500
20
0.000000
30
0.0
11
0.612500
21
0.440000
31
0.0
0
LINE
8
TOP
10
0.612500
20
0.440000
30
0.0
11
0.068139
21
0.612500
31
0.0
0
LINE
8
TOP
10
0.068139
20
0.612500
30
0.0
11
0.000000
21
0.562500
31
0.0
0
LINE
8
TOP
10
0.000000
20
0.562500
30
0.0
11
0.000000
21
0.000000
31
0.0
0
ENDSEC
0
EOF
