0
SECTION
2
HEADER
9
$ACADVER
1
AC1009
0
ENDSEC
0
SECTION
2
TABLES
0
TABLE
2
LTYPE
70
3
0
LTYPE
2
CONTINUOUS
70
0
3
Solid line
72
65
73
0
40
0.0
0
LTYPE
2
HIDDEN
70
0
3
__ __ __ __ __
72
65
73
2
40
0.051136
49
0.034108
49
-0.017028
0
LTYPE
2
CENTER
70
0
3
___ _ ___ _ ___
72
65
73
4
40
0.119301
49
0.068165
49
-0.017028
49
0.017028
49
-0.017028
0
ENDTAB
0
TABLE
2
LAYER
70
6
0
LAYER
2
0
70
0
62
7
6
CONTINUOUS
0
LAYER
2
FRONT
70
0
62
7
6
CONTINUOUS
0
LAYER
2
FRONT_HID
70
0
62
7
6
HIDDEN
0
LAYER
2
LEFT
70
0
62
7
6
CONTINUOUS
0
LAYER
2
LEFT_HID
70
0
62
7
6
HIDDEN
0
LAYER
2
TOP
70
0
62
7
6
CONTINUOUS
0
ENDTAB
0
ENDSEC
0
SECTION
2
ENTITIES
0
LINE
8
FRONT
10
0.000000
20
0.750000
30
0.0
11
0.000000
21
1.363636
31
0.0
0
LINE
8
FRONT
10
1.022727
20
0.750000
30
0.0
11
1.022727
21
1.363636
31
0.0
0
LINE
8
FRONT
10
1.022727
20
0.750000
30
0.0
11
0.000000
21
0.750000
31
0.0
0
LINE
8
FRONT
10
1.022727
20
1.363636
30
0.0
11
0.000000
21
1.363636
31
0.0
0
LINE
8
FRONT
10
0.596591
20
1.363636
30
0.0
11
0.596591
21
1.500000
31
0.0
0
LINE
8
FRONT
10
0.596591
20
1.500000
30
0.0
11
0.426136
21
1.500000
31
0.0
0
LINE
8
FRONT
10
0.426136
20
1.500000
30
0.0
11
0.426136
21
1.363636
31
0.0
0
LINE
8
FRONT_HID
6
HIDDEN
10
0.596591
20
1.363636
30
0.0
11
0.426136
21
1.363636
31
0.0
0
LINE
8
FRONT_HID
6
HIDDEN
10
0.426136
20
1.363636
30
0.0
11
0.596591
21
1.363636
31
0.0
0
LINE
8
LEFT
10
1.772727
20
0.750000
30
0.0
11
1.772727
21
1.363636
31
0.0
0
LINE
8
LEFT
10
1.227273
20
0.750000
30
0.0
11
1.227273
21
1.363636
31
0.0
0
LINE
8
LEFT
10
1.227273
20
1.363636
30
0.0
11
1.772727
21
1.363636
31
0.0
0
LINE
8
LEFT
10
1.227273
20
0.750000
30
0.0
11
1.772727
21
0.750000
31
0.0
0
LINE
8
LEFT
10
1.414773
20
1.500000
30
0.0
11
1.585227
21
1.500000
31
0.0
0
LINE
8
LEFT
10
1.414773
20
1.500000
30
0.0
11
1.414773
21
1.363636
31
0.0
0
LINE
8
LEFT
10
1.585227
20
1.500000
30
0.0
11
1.585227
21
1.363636
31
0.0
0
LINE
8
LEFT_HID
6
HIDDEN
10
1.500000
20
1.363636
30
0.0
11
1.414773
21
1.363636
31
0.0
0
LINE
8
LEFT_HID
6
HIDDEN
10
1.414773
20
1.363636
30
0.0
11
1.585227
21
1.363636
31
0.0
0
LINE
8
LEFT_HID
6
HIDDEN
10
1.585227
20
1.363636
30
0.0
11
1.500000
21
1.363636
31
0.0
0
LINE
8
LEFT_HID
6
HIDDEN
10
1.500000
20
1.500000
30
0.0
11
1.414773
21
1.500000
31
0.0
0
LINE
8
LEFT_HID
6
HIDDEN
10
1.585227
20
1.500000
30
0.0
11
1.500000
21
1.500000
31
0.0
0
LINE
8
TOP
10
0.000000
20
0.000000
30
0.0
11
1.022727
21
0.000000
31
0.0
0
LINE
8
TOP
10
0.000000
20
0.545455
30
0.0
11
0.000000
21
0.000000
31
0.0
0
LINE
8
TOP
10
1.022727
20
0.000000
30
0.0
11
1.022727
21
0.545455
31
0.0
0
LINE
8
TOP
10
1.022727
20
0.545455
30
0.0
11
0.000000
21
0.545455
31
0.0
0
LINE
8
TOP
10
0.596591
20
0.272727
30
0.0
11
0.596167
21
0.281213
31
0.0
0
LINE
8
TOP
10
0.596167
20
0.281213
30
0.0
11
0.594901
21
0.289615
31
0.0
0
LINE
8
TOP
10
0.594901
20
0.289615
30
0.0
11
0.592805
21
0.297848
31
0.0
0
LINE
8
TOP
10
0.592805
20
0.297848
30
0.0
11
0.589899
21
0.305833
31
0.0
0
LINE
8
TOP
10
0.589899
20
0.305833
30
0.0
11
0.586212
21
0.313488
31
0.0
0
LINE
8
TOP
10
0.586212
20
0.313488
30
0.0
11
0.581782
21
0.320738
31
0.0
0
LINE
8
TOP
10
0.581782
20
0.320738
30
0.0
11
0.576652
21
0.327510
31
0.0
0
LINE
8
TOP
10
0.576652
20
0.327510
30
0.0
11
0.570872
21
0.333739
31
0.0
0
LINE
8
TOP
10
0.570872
20
0.333739
30
0.0
11
0.564502
21
0.339361
31
0.0
0
LINE
8
TOP
10
0.564502
20
0.339361
30
0.0
11
0.557603
21
0.344320
31
0.0
0
LINE
8
TOP
10
0.557603
20
0.344320
30
0.0
11
0.550245
21
0.348569
31
0.0
0
LINE
8
TOP
10
0.550245
20
0.348569
30
0.0
11
0.542501
21
0.352063
31
0.0
0
LINE
8
TOP
10
0.542501
20
0.352063
30
0.0
11
0.534447
21
0.354769
31
0.0
0
LINE
8
TOP
10
0.534447
20
0.354769
30
0.0
11
0.526163
21
0.356660
31
0.0
0
LINE
8
TOP
10
0.526163
20
0.356660
30
0.0
11
0.517733
21
0.357716
31
0.0
0
LINE
8
TOP
10
0.517733
20
0.357716
30
0.0
11
0.509239
21
0.357928
31
0.0
0
LINE
8
TOP
10
0.509239
20
0.357928
30
0.0
11
0.500766
21
0.357293
31
0.0
0
LINE
8
TOP
10
0.500766
20
0.357293
30
0.0
11
0.492399
21
0.355818
31
0.0
0
LINE
8
TOP
10
0.492399
20
0.355818
30
0.0
11
0.484220
21
0.353517
31
0.0
0
LINE
8
TOP
10
0.484220
20
0.353517
30
0.0
11
0.476311
21
0.350412
31
0.0
0
LINE
8
TOP
10
0.476311
20
0.350412
30
0.0
11
0.468750
21
0.346536
31
0.0
0
LINE
8
TOP
10
0.468750
20
0.346536
30
0.0
11
0.461613
21
0.341927
31
0.0
0
LINE
8
TOP
10
0.461613
20
0.341927
30
0.0
11
0.454970
21
0.336629
31
0.0
0
LINE
8
TOP
10
0.454970
20
0.336629
30
0.0
11
0.448888
21
0.330697
31
0.0
0
LINE
8
TOP
10
0.448888
20
0.330697
30
0.0
11
0.443426
21
0.324188
31
0.0
0
LINE
8
TOP
10
0.443426
20
0.324188
30
0.0
11
0.438640
21
0.317168
31
0.0
0
LINE
8
TOP
10
0.438640
20
0.317168
30
0.0
11
0.434577
21
0.309706
31
0.0
0
LINE
8
TOP
10
0.434577
20
0.309706
30
0.0
11
0.431276
21
0.301877
31
0.0
0
LINE
8
TOP
10
0.431276
20
0.301877
30
0.0
11
0.428772
21
0.293758
31
0.0
0
LINE
8
TOP
10
0.428772
20
0.293758
30
0.0
11
0.427088
21
0.285430
31
0.0
0
LINE
8
TOP
10
0.427088
20
0.285430
30
0.0
11
0.426242
21
0.276976
31
0.0
0
LINE
8
TOP
10
0.426242
20
0.276976
30
0.0
11
0.426242
21
0.268479
31
0.0
0
LINE
8
TOP
10
0.426242
20
0.268479
30
0.0
11
0.427088
21
0.260025
31
0.0
0
LINE
8
TOP
10
0.427088
20
0.260025
30
0.0
11
0.428772
21
0.251697
31
0.0
0
LINE
8
TOP
10
0.428772
20
0.251697
30
0.0
11
0.431276
21
0.243578
31
0.0
0
LINE
8
TOP
10
0.431276
20
0.243578
30
0.0
11
0.434577
21
0.235749
31
0.0
0
LINE
8
TOP
10
0.434577
20
0.235749
30
0.0
11
0.438640
21
0.228287
31
0.0
0
LINE
8
TOP
10
0.438640
20
0.228287
30
0.0
11
0.443426
21
0.221267
31
0.0
0
LINE
8
TOP
10
0.443426
20
0.221267
30
0.0
11
0.448888
21
0.214758
31
0.0
0
LINE
8
TOP
10
0.448888
20
0.214758
30
0.0
11
0.454970
21
0.208825
31
0.0
0
LINE
8
TOP
10
0.454970
20
0.208825
30
0.0
11
0.461613
21
0.203528
31
0.0
0
LINE
8
TOP
10
0.461613
20
0.203528
30
0.0
11
0.468750
21
0.198918
31
0.0
0
LINE
8
TOP
10
0.468750
20
0.198918
30
0.0
11
0.476311
21
0.195042
31
0.0
0
LINE
8
TOP
10
0.476311
20
0.195042
30
0.0
11
0.484220
21
0.191938
31
0.0
0
LINE
8
TOP
10
0.484220
20
0.191938
30
0.0
11
0.492399
21
0.189637
31
0.0
0
LINE
8
TOP
10
0.492399
20
0.189637
30
0.0
11
0.500766
21
0.188161
31
0.0
0
LINE
8
TOP
10
0.500766
20
0.188161
30
0.0
11
0.509239
21
0.187526
31
0.0
0
LINE
8
TOP
10
0.509239
20
0.187526
30
0.0
11
0.517733
21
0.187738
31
0.0
0
LINE
8
TOP
10
0.517733
20
0.187738
30
0.0
11
0.526163
21
0.188795
31
0.0
0
LINE
8
TOP
10
0.526163
20
0.188795
30
0.0
11
0.534447
21
0.190685
31
0.0
0
LINE
8
TOP
10
0.534447
20
0.190685
30
0.0
11
0.542501
21
0.193391
31
0.0
0
LINE
8
TOP
10
0.542501
20
0.193391
30
0.0
11
0.550245
21
0.196886
31
0.0
0
LINE
8
TOP
10
0.550245
20
0.196886
30
0.0
11
0.557603
21
0.201134
31
0.0
0
LINE
8
TOP
10
0.557603
20
0.201134
30
0.0
11
0.564502
21
0.206094
31
0.0
0
LINE
8
TOP
10
0.564502
20
0.206094
30
0.0
11
0.570872
21
0.211716
31
0.0
0
LINE
8
TOP
10
0.570872
20
0.211716
30
0.0
11
0.576652
21
0.217944
31
0.0
0
LINE
8
TOP
10
0.576652
20
0.217944
30
0.0
11
0.581782
21
0.224717
31
0.0
0
LINE
8
TOP
10
0.581782
20
0.224717
30
0.0
11
0.586212
21
0.231967
31
0.0
0
LINE
8
TOP
10
0.586212
20
0.231967
30
0.0
11
0.589899
21
0.239622
31
0.0
0
LINE
8
TOP
10
0.589899
20
0.239622
30
0.0
11
0.592805
21
0.247606
31
0.0
0
LINE
8
TOP
10
0.592805
20
0.247606
30
0.0
11
0.594901
21
0.255840
31
0.0
0
LINE
8
TOP
10
0.594901
20
0.255840
30
0.0
11
0.596167
21
0.264241
31
0.0
0
LINE
8
TOP
10
0.596167
20
0.264241
30
0.0
11
0.596591
21
0.272727
31
0.0
0
ENDSEC
0
EOF
