0
SECTION
2
HEADER
9
$ACADVER
1
AC1009
0
ENDSEC
0
SECTION
2
TABLES
0
TABLE
2
LTYPE
70
3
0
LTYPE
2
CONTINUOUS
70
0
3
Solid line
72
65
73
0
40
0.0
0
LTYPE
2
HIDDEN
70
0
3
__ __ __ __ __
72
65
73
2
40
0.073485
49
0.049014
49
-0.024470
0
LTYPE
2
CENTER
70
0
3
___ _ ___ _ ___
72
65
73
4
40
0.171440
49
0.097955
49
-0.024470
49
0.024470
49
-0.024470
0
ENDTAB
0
TABLE
2
LAYER
70
6
0
LAYER
2
0
70
0
62
7
6
CONTINUOUS
0
LAYER
2
FRONT
70
0
62
7
6
CONTINUOUS
0
LAYER
2
FRONT_HID
70
0
62
7
6
HIDDEN
0
LAYER
2
LEFT
70
0
62
7
6
CONTINUOUS
0
LAYER
2
LEFT_HID
70
0
62
7
6
HIDDEN
0
LAYER
2
TOP
70
0
62
7
6
CONTINUOUS
0
ENDTAB
0
ENDSEC
0
SECTION
2
ENTITIES
0
LINE
8
FRONT
10
0.000000
20
1.763634
30
0.0
11
0.000000
21
1.811044
31
0.0
0
LINE
8
FRONT
10
0.272605
20
1.763634
30
0.0
11
0.272605
21
1.811044
31
0.0
0
LINE
8
FRONT
10
0.272605
20
1.763634
30
0.0
11
0.000000
21
1.763634
31
0.0
0
LINE
8
FRONT
10
0.272605
20
1.811044
30
0.0
11
0.000000
21
1.811044
31
0.0
0
LINE
8
FRONT_HID
6
HIDDEN
10
0.035557
20
1.811044
30
0.0
11
0.213343
21
1.811044
31
0.0
0
LINE
8
FRONT_HID
6
HIDDEN
10
0.213343
20
1.811044
30
0.0
11
0.035557
21
1.811044
31
0.0
0
LINE
8
FRONT_HID
6
HIDDEN
10
0.035557
20
1.811044
30
0.0
11
0.035557
21
1.775487
31
0.0
0
LINE
8
FRONT_HID
6
HIDDEN
10
0.035557
20
1.775487
30
0.0
11
0.213343
21
1.775487
31
0.0
0
LINE
8
FRONT_HID
6
HIDDEN
10
0.213343
20
1.811044
30
0.0
11
0.213343
21
1.775487
31
0.0
0
LINE
8
FRONT_HID
6
HIDDEN
10
0.213343
20
1.811044
30
0.0
11
0.213343
21
1.775487
31
0.0
0
LINE
8
FRONT_HID
6
HIDDEN
10
0.213343
20
1.775487
30
0.0
11
0.035557
21
1.775487
31
0.0
0
LINE
8
FRONT_HID
6
HIDDEN
10
0.035557
20
1.811044
30
0.0
11
0.035557
21
1.775487
31
0.0
0
LINE
8
LEFT
10
2.036239
20
1.763634
30
0.0
11
2.036239
21
1.811044
31
0.0
0
LINE
8
LEFT
10
0.566544
20
1.763634
30
0.0
11
0.566544
21
1.811044
31
0.0
0
LINE
8
LEFT
10
0.566544
20
1.811044
30
0.0
11
2.036239
21
1.811044
31
0.0
0
LINE
8
LEFT
10
0.566544
20
1.763634
30
0.0
11
2.036239
21
1.763634
31
0.0
0
LINE
8
LEFT_HID
6
HIDDEN
10
0.604471
20
1.811044
30
0.0
11
1.955643
21
1.811044
31
0.0
0
LINE
8
LEFT_HID
6
HIDDEN
10
1.955643
20
1.811044
30
0.0
11
0.604471
21
1.811044
31
0.0
0
LINE
8
LEFT_HID
6
HIDDEN
10
1.955643
20
1.811044
30
0.0
11
1.955643
21
1.775487
31
0.0
0
LINE
8
LEFT_HID
6
HIDDEN
10
1.955643
20
1.811044
30
0.0
11
1.955643
21
1.775487
31
0.0
0
LINE
8
LEFT_HID
6
HIDDEN
10
1.955643
20
1.775487
30
0.0
11
0.604471
21
1.775487
31
0.0
0
LINE
8
LEFT_HID
6
HIDDEN
10
0.604471
20
1.811044
30
0.0
11
0.604471
21
1.775487
31
0.0
0
LINE
8
LEFT_HID
6
HIDDEN
10
0.604471
20
1.811044
30
0.0
11
0.604471
21
1.775487
31
0.0
0
LINE
8
LEFT_HID
6
HIDDEN
10
0.604471
20
1.775487
30
0.0
11
1.955643
21
1.775487
31
0.0
0
LINE
8
TOP
10
0.000000
20
0.000000
30
0.0
11
0.272605
21
0.000000
31
0.0
0
LINE
8
TOP
10
0.000000
20
1.469695
30
0.0
11
0.000000
21
0.000000
31
0.0
0
LINE
8
TOP
10
0.272605
20
0.000000
30
0.0
11
0.272605
21
1.469695
31
0.0
0
LINE
8
TOP
10
0.272605
20
1.469695
30
0.0
11
0.000000
21
1.469695
31
0.0
0
LINE
8
TOP
10
0.035557
20
0.080596
30
0.0
11
0.213343
21
0.080596
31
0.0
0
LINE
8
TOP
10
0.035557
20
1.431768
30
0.0
11
0.035557
21
0.080596
31
0.0
0
LINE
8
TOP
10
0.213343
20
1.431768
30
0.0
11
0.035557
21
1.431768
31
0.0
0
LINE
8
TOP
10
0.213343
20
0.080596
30
0.0
11
0.213343
21
1.431768
31
0.0
0
ENDSEC
0
EOF
