0
SECTION
2
HEADER
9
$ACADVER
1
AC1009
0
ENDSEC
0
SECTION
2
TABLES
0
TABLE
2
LTYPE
70
3
0
LTYPE
2
CONTINUOUS
70
0
3
Solid line
72
65
73
0
40
0.0
0
LTYPE
2
HIDDEN
70
0
3
__ __ __ __ __
72
65
73
2
40
0.075000
49
0.050025
49
-0.024975
0
LTYPE
2
CENTER
70
0
3
___ _ ___ _ ___
72
65
73
4
40
0.174975
49
0.099975
49
-0.024975
49
0.024975
49
-0.024975
0
ENDTAB
0
TABLE
2
LAYER
70
6
0
LAYER
2
0
70
0
62
7
6
CONTINUOUS
0
LAYER
2
FRONT
70
0
62
7
6
CONTINUOUS
0
LAYER
2
LEFT
70
0
62
7
6
CONTINUOUS
0
LAYER
2
LEFT_HID
70
0
62
7
6
HIDDEN
0
LAYER
2
TOP
70
0
62
7
6
CONTINUOUS
0
LAYER
2
TOP_HID
70
0
62
7
6
HIDDEN
0
ENDTAB
0
ENDSEC
0
SECTION
2
ENTITIES
0
LINE
8
FRONT
10
0.051453
20
0.927081
30
0.0
11
0.344814
21
0.638324
31
0.0
0
LINE
8
FRONT
10
0.344814
20
0.638324
30
0.0
11
0.355096
21
0.628450
31
0.0
0
LINE
8
FRONT
10
0.355096
20
0.628450
30
0.0
11
0.365619
21
0.618832
31
0.0
0
LINE
8
FRONT
10
0.365619
20
0.618832
30
0.0
11
0.376376
21
0.609477
31
0.0
0
LINE
8
FRONT
10
0.376376
20
0.609477
30
0.0
11
0.387361
21
0.600391
31
0.0
0
LINE
8
FRONT
10
0.387361
20
0.600391
30
0.0
11
0.398567
21
0.591579
31
0.0
0
LINE
8
FRONT
10
0.398567
20
0.591579
30
0.0
11
0.409986
21
0.583045
31
0.0
0
LINE
8
FRONT
10
0.409986
20
0.583045
30
0.0
11
0.421613
21
0.574796
31
0.0
0
LINE
8
FRONT
10
0.421613
20
0.574796
30
0.0
11
0.433440
21
0.566837
31
0.0
0
LINE
8
FRONT
10
0.433440
20
0.566837
30
0.0
11
0.445459
21
0.559172
31
0.0
0
LINE
8
FRONT
10
0.445459
20
0.559172
30
0.0
11
0.457665
21
0.551806
31
0.0
0
LINE
8
FRONT
10
0.457665
20
0.551806
30
0.0
11
0.470048
21
0.544743
31
0.0
0
LINE
8
FRONT
10
0.470048
20
0.544743
30
0.0
11
0.482602
21
0.537988
31
0.0
0
LINE
8
FRONT
10
0.482602
20
0.537988
30
0.0
11
0.495318
21
0.531545
31
0.0
0
LINE
8
FRONT
10
0.495318
20
0.531545
30
0.0
11
0.508190
21
0.525418
31
0.0
0
LINE
8
FRONT
10
0.508190
20
0.525418
30
0.0
11
0.521209
21
0.519610
31
0.0
0
LINE
8
FRONT
10
0.521209
20
0.519610
30
0.0
11
0.534368
21
0.514125
31
0.0
0
LINE
8
FRONT
10
0.534368
20
0.514125
30
0.0
11
0.547658
21
0.508967
31
0.0
0
LINE
8
FRONT
10
0.547658
20
0.508967
30
0.0
11
0.561071
21
0.504139
31
0.0
0
LINE
8
FRONT
10
0.561071
20
0.504139
30
0.0
11
0.574599
21
0.499642
31
0.0
0
LINE
8
FRONT
10
0.574599
20
0.499642
30
0.0
11
0.588234
21
0.495482
31
0.0
0
LINE
8
FRONT
10
0.588234
20
0.495482
30
0.0
11
0.601967
21
0.491658
31
0.0
0
LINE
8
FRONT
10
0.601967
20
0.491658
30
0.0
11
0.615791
21
0.488175
31
0.0
0
LINE
8
FRONT
10
0.615791
20
0.488175
30
0.0
11
0.629696
21
0.485035
31
0.0
0
LINE
8
FRONT
10
0.629696
20
0.485035
30
0.0
11
0.643675
21
0.482238
31
0.0
0
LINE
8
FRONT
10
0.643675
20
0.482238
30
0.0
11
0.657719
21
0.479787
31
0.0
0
LINE
8
FRONT
10
0.657719
20
0.479787
30
0.0
11
0.671818
21
0.477684
31
0.0
0
LINE
8
FRONT
10
0.671818
20
0.477684
30
0.0
11
0.685966
21
0.475929
31
0.0
0
LINE
8
FRONT
10
0.685966
20
0.475929
30
0.0
11
0.700152
21
0.474524
31
0.0
0
LINE
8
FRONT
10
0.700152
20
0.474524
30
0.0
11
0.714369
21
0.473469
31
0.0
0
LINE
8
FRONT
10
0.714369
20
0.473469
30
0.0
11
0.728607
21
0.472766
31
0.0
0
LINE
8
FRONT
10
0.728607
20
0.472766
30
0.0
11
0.742858
21
0.472414
31
0.0
0
LINE
8
FRONT
10
0.742858
20
0.472414
30
0.0
11
0.757114
21
0.472414
31
0.0
0
LINE
8
FRONT
10
0.757114
20
0.472414
30
0.0
11
0.771366
21
0.472766
31
0.0
0
LINE
8
FRONT
10
0.771366
20
0.472766
30
0.0
11
0.785604
21
0.473469
31
0.0
0
LINE
8
FRONT
10
0.785604
20
0.473469
30
0.0
11
0.799821
21
0.474524
31
0.0
0
LINE
8
FRONT
10
0.799821
20
0.474524
30
0.0
11
0.814007
21
0.475929
31
0.0
0
LINE
8
FRONT
10
0.814007
20
0.475929
30
0.0
11
0.828154
21
0.477684
31
0.0
0
LINE
8
FRONT
10
0.828154
20
0.477684
30
0.0
11
0.842254
21
0.479787
31
0.0
0
LINE
8
FRONT
10
0.842254
20
0.479787
30
0.0
11
0.856297
21
0.482238
31
0.0
0
LINE
8
FRONT
10
0.856297
20
0.482238
30
0.0
11
0.870276
21
0.485035
31
0.0
0
LINE
8
FRONT
10
0.870276
20
0.485035
30
0.0
11
0.884182
21
0.488175
31
0.0
0
LINE
8
FRONT
10
0.884182
20
0.488175
30
0.0
11
0.898005
21
0.491658
31
0.0
0
LINE
8
FRONT
10
0.898005
20
0.491658
30
0.0
11
0.911739
21
0.495482
31
0.0
0
LINE
8
FRONT
10
0.911739
20
0.495482
30
0.0
11
0.925374
21
0.499642
31
0.0
0
LINE
8
FRONT
10
0.925374
20
0.499642
30
0.0
11
0.938902
21
0.504139
31
0.0
0
LINE
8
FRONT
10
0.938902
20
0.504139
30
0.0
11
0.952315
21
0.508967
31
0.0
0
LINE
8
FRONT
10
0.952315
20
0.508967
30
0.0
11
0.965605
21
0.514125
31
0.0
0
LINE
8
FRONT
10
0.965605
20
0.514125
30
0.0
11
0.978763
21
0.519610
31
0.0
0
LINE
8
FRONT
10
0.978763
20
0.519610
30
0.0
11
0.991783
21
0.525418
31
0.0
0
LINE
8
FRONT
10
0.991783
20
0.525418
30
0.0
11
1.004654
21
0.531545
31
0.0
0
LINE
8
FRONT
10
1.004654
20
0.531545
30
0.0
11
1.017371
21
0.537988
31
0.0
0
LINE
8
FRONT
10
1.017371
20
0.537988
30
0.0
11
1.029925
21
0.544743
31
0.0
0
LINE
8
FRONT
10
1.029925
20
0.544743
30
0.0
11
1.042308
21
0.551806
31
0.0
0
LINE
8
FRONT
10
1.042308
20
0.551806
30
0.0
11
1.054513
21
0.559172
31
0.0
0
LINE
8
FRONT
10
1.054513
20
0.559172
30
0.0
11
1.066533
21
0.566837
31
0.0
0
LINE
8
FRONT
10
1.066533
20
0.566837
30
0.0
11
1.078360
21
0.574796
31
0.0
0
LINE
8
FRONT
10
1.078360
20
0.574796
30
0.0
11
1.089986
21
0.583045
31
0.0
0
LINE
8
FRONT
10
1.089986
20
0.583045
30
0.0
11
1.101406
21
0.591579
31
0.0
0
LINE
8
FRONT
10
1.101406
20
0.591579
30
0.0
11
1.112612
21
0.600391
31
0.0
0
LINE
8
FRONT
10
1.112612
20
0.600391
30
0.0
11
1.123596
21
0.609477
31
0.0
0
LINE
8
FRONT
10
1.123596
20
0.609477
30
0.0
11
1.134353
21
0.618832
31
0.0
0
LINE
8
FRONT
10
1.134353
20
0.618832
30
0.0
11
1.144876
21
0.628450
31
0.0
0
LINE
8
FRONT
10
1.144876
20
0.628450
30
0.0
11
1.155159
21
0.638324
31
0.0
0
LINE
8
FRONT
10
1.155159
20
0.638324
30
0.0
11
1.448520
21
0.927081
31
0.0
0
LINE
8
FRONT
10
1.448520
20
0.927081
30
0.0
11
1.451575
21
0.930165
31
0.0
0
LINE
8
FRONT
10
1.451575
20
0.930165
30
0.0
11
1.454553
21
0.933326
31
0.0
0
LINE
8
FRONT
10
1.454553
20
0.933326
30
0.0
11
1.457449
21
0.936560
31
0.0
0
LINE
8
FRONT
10
1.457449
20
0.936560
30
0.0
11
1.460264
21
0.939867
31
0.0
0
LINE
8
FRONT
10
1.460264
20
0.939867
30
0.0
11
1.462994
21
0.943243
31
0.0
0
LINE
8
FRONT
10
1.462994
20
0.943243
30
0.0
11
1.465638
21
0.946687
31
0.0
0
LINE
8
FRONT
10
1.465638
20
0.946687
30
0.0
11
1.468195
21
0.950197
31
0.0
0
LINE
8
FRONT
10
1.468195
20
0.950197
30
0.0
11
1.470662
21
0.953769
31
0.0
0
LINE
8
FRONT
10
1.470662
20
0.953769
30
0.0
11
1.473039
21
0.957403
31
0.0
0
LINE
8
FRONT
10
1.473039
20
0.957403
30
0.0
11
1.475324
21
0.961096
31
0.0
0
LINE
8
FRONT
10
1.475324
20
0.961096
30
0.0
11
1.477514
21
0.964844
31
0.0
0
LINE
8
FRONT
10
1.477514
20
0.964844
30
0.0
11
1.479610
21
0.968647
31
0.0
0
LINE
8
FRONT
10
1.479610
20
0.968647
30
0.0
11
1.481609
21
0.972501
31
0.0
0
LINE
8
FRONT
10
1.481609
20
0.972501
30
0.0
11
1.483511
21
0.976405
31
0.0
0
LINE
8
FRONT
10
1.483511
20
0.976405
30
0.0
11
1.485314
21
0.980355
31
0.0
0
LINE
8
FRONT
10
1.485314
20
0.980355
30
0.0
11
1.487016
21
0.984349
31
0.0
0
LINE
8
FRONT
10
1.487016
20
0.984349
30
0.0
11
1.488618
21
0.988385
31
0.0
0
LINE
8
FRONT
10
1.488618
20
0.988385
30
0.0
11
1.490117
21
0.992460
31
0.0
0
LINE
8
FRONT
10
1.490117
20
0.992460
30
0.0
11
1.491513
21
0.996571
31
0.0
0
LINE
8
FRONT
10
1.491513
20
0.996571
30
0.0
11
1.492806
21
1.000717
31
0.0
0
LINE
8
FRONT
10
1.492806
20
1.000717
30
0.0
11
1.493993
21
1.004893
31
0.0
0
LINE
8
FRONT
10
1.493993
20
1.004893
30
0.0
11
1.495075
21
1.009098
31
0.0
0
LINE
8
FRONT
10
1.495075
20
1.009098
30
0.0
11
1.496051
21
1.013329
31
0.0
0
LINE
8
FRONT
10
1.496051
20
1.013329
30
0.0
11
1.496920
21
1.017583
31
0.0
0
LINE
8
FRONT
10
1.496920
20
1.017583
30
0.0
11
1.497681
21
1.021858
31
0.0
0
LINE
8
FRONT
10
1.497681
20
1.021858
30
0.0
11
1.498335
21
1.026151
31
0.0
0
LINE
8
FRONT
10
1.498335
20
1.026151
30
0.0
11
1.498880
21
1.030458
31
0.0
0
LINE
8
FRONT
10
1.498880
20
1.030458
30
0.0
11
1.499317
21
1.034778
31
0.0
0
LINE
8
FRONT
10
1.499317
20
1.034778
30
0.0
11
1.499645
21
1.039108
31
0.0
0
LINE
8
FRONT
10
1.499645
20
1.039108
30
0.0
11
1.499863
21
1.043444
31
0.0
0
LINE
8
FRONT
10
1.499863
20
1.043444
30
0.0
11
1.499973
21
1.047785
31
0.0
0
LINE
8
FRONT
10
1.499973
20
1.047785
30
0.0
11
1.499973
21
1.052127
31
0.0
0
LINE
8
FRONT
10
1.499973
20
1.052127
30
0.0
11
1.499863
21
1.056468
31
0.0
0
LINE
8
FRONT
10
1.499863
20
1.056468
30
0.0
11
1.499645
21
1.060804
31
0.0
0
LINE
8
FRONT
10
1.499645
20
1.060804
30
0.0
11
1.499317
21
1.065134
31
0.0
0
LINE
8
FRONT
10
1.499317
20
1.065134
30
0.0
11
1.498880
21
1.069454
31
0.0
0
LINE
8
FRONT
10
1.498880
20
1.069454
30
0.0
11
1.498335
21
1.073761
31
0.0
0
LINE
8
FRONT
10
1.498335
20
1.073761
30
0.0
11
1.497681
21
1.078054
31
0.0
0
LINE
8
FRONT
10
1.497681
20
1.078054
30
0.0
11
1.496920
21
1.082329
31
0.0
0
LINE
8
FRONT
10
1.496920
20
1.082329
30
0.0
11
1.496051
21
1.086583
31
0.0
0
LINE
8
FRONT
10
1.496051
20
1.086583
30
0.0
11
1.495075
21
1.090814
31
0.0
0
LINE
8
FRONT
10
1.495075
20
1.090814
30
0.0
11
1.493993
21
1.095019
31
0.0
0
LINE
8
FRONT
10
1.493993
20
1.095019
30
0.0
11
1.492806
21
1.099195
31
0.0
0
LINE
8
FRONT
10
1.492806
20
1.099195
30
0.0
11
1.491513
21
1.103341
31
0.0
0
LINE
8
FRONT
10
1.491513
20
1.103341
30
0.0
11
1.490117
21
1.107452
31
0.0
0
LINE
8
FRONT
10
1.490117
20
1.107452
30
0.0
11
1.488618
21
1.111527
31
0.0
0
LINE
8
FRONT
10
1.488618
20
1.111527
30
0.0
11
1.487016
21
1.115563
31
0.0
0
LINE
8
FRONT
10
1.487016
20
1.115563
30
0.0
11
1.485314
21
1.119557
31
0.0
0
LINE
8
FRONT
10
1.485314
20
1.119557
30
0.0
11
1.483511
21
1.123507
31
0.0
0
LINE
8
FRONT
10
1.483511
20
1.123507
30
0.0
11
1.481609
21
1.127411
31
0.0
0
LINE
8
FRONT
10
1.481609
20
1.127411
30
0.0
11
1.479610
21
1.131265
31
0.0
0
LINE
8
FRONT
10
1.479610
20
1.131265
30
0.0
11
1.477514
21
1.135068
31
0.0
0
LINE
8
FRONT
10
1.477514
20
1.135068
30
0.0
11
1.475324
21
1.138816
31
0.0
0
LINE
8
FRONT
10
1.475324
20
1.138816
30
0.0
11
1.473039
21
1.142509
31
0.0
0
LINE
8
FRONT
10
1.473039
20
1.142509
30
0.0
11
1.470662
21
1.146143
31
0.0
0
LINE
8
FRONT
10
1.470662
20
1.146143
30
0.0
11
1.468195
21
1.149715
31
0.0
0
LINE
8
FRONT
10
1.468195
20
1.149715
30
0.0
11
1.465638
21
1.153225
31
0.0
0
LINE
8
FRONT
10
1.465638
20
1.153225
30
0.0
11
1.462994
21
1.156669
31
0.0
0
LINE
8
FRONT
10
1.462994
20
1.156669
30
0.0
11
1.460264
21
1.160045
31
0.0
0
LINE
8
FRONT
10
1.460264
20
1.160045
30
0.0
11
1.457449
21
1.163352
31
0.0
0
LINE
8
FRONT
10
1.457449
20
1.163352
30
0.0
11
1.454553
21
1.166586
31
0.0
0
LINE
8
FRONT
10
1.454553
20
1.166586
30
0.0
11
1.451575
21
1.169747
31
0.0
0
LINE
8
FRONT
10
1.451575
20
1.169747
30
0.0
11
1.448520
21
1.172831
31
0.0
0
LINE
8
FRONT
10
1.448520
20
1.172831
30
0.0
11
1.155159
21
1.461588
31
0.0
0
LINE
8
FRONT
10
1.155159
20
1.461588
30
0.0
11
1.144876
21
1.471462
31
0.0
0
LINE
8
FRONT
10
1.144876
20
1.471462
30
0.0
11
1.134353
21
1.481080
31
0.0
0
LINE
8
FRONT
10
1.134353
20
1.481080
30
0.0
11
1.123596
21
1.490435
31
0.0
0
LINE
8
FRONT
10
1.123596
20
1.490435
30
0.0
11
1.112612
21
1.499521
31
0.0
0
LINE
8
FRONT
10
1.112612
20
1.499521
30
0.0
11
1.101406
21
1.508334
31
0.0
0
LINE
8
FRONT
10
1.101406
20
1.508334
30
0.0
11
1.089986
21
1.516867
31
0.0
0
LINE
8
FRONT
10
1.089986
20
1.516867
30
0.0
11
1.078360
21
1.525116
31
0.0
0
LINE
8
FRONT
10
1.078360
20
1.525116
30
0.0
11
1.066533
21
1.533075
31
0.0
0
LINE
8
FRONT
10
1.066533
20
1.533075
30
0.0
11
1.054513
21
1.540740
31
0.0
0
LINE
8
FRONT
10
1.054513
20
1.540740
30
0.0
11
1.042308
21
1.548106
31
0.0
0
LINE
8
FRONT
10
1.042308
20
1.548106
30
0.0
11
1.029925
21
1.555169
31
0.0
0
LINE
8
FRONT
10
1.029925
20
1.555169
30
0.0
11
1.017371
21
1.561924
31
0.0
0
LINE
8
FRONT
10
1.017371
20
1.561924
30
0.0
11
1.004654
21
1.568367
31
0.0
0
LINE
8
FRONT
10
1.004654
20
1.568367
30
0.0
11
0.991783
21
1.574494
31
0.0
0
LINE
8
FRONT
10
0.991783
20
1.574494
30
0.0
11
0.978763
21
1.580302
31
0.0
0
LINE
8
FRONT
10
0.978763
20
1.580302
30
0.0
11
0.965605
21
1.585787
31
0.0
0
LINE
8
FRONT
10
0.965605
20
1.585787
30
0.0
11
0.952315
21
1.590945
31
0.0
0
LINE
8
FRONT
10
0.952315
20
1.590945
30
0.0
11
0.938902
21
1.595773
31
0.0
0
LINE
8
FRONT
10
0.938902
20
1.595773
30
0.0
11
0.925374
21
1.600270
31
0.0
0
LINE
8
FRONT
10
0.925374
20
1.600270
30
0.0
11
0.911739
21
1.604430
31
0.0
0
LINE
8
FRONT
10
0.911739
20
1.604430
30
0.0
11
0.898005
21
1.608254
31
0.0
0
LINE
8
FRONT
10
0.898005
20
1.608254
30
0.0
11
0.884182
21
1.611737
31
0.0
0
LINE
8
FRONT
10
0.884182
20
1.611737
30
0.0
11
0.870276
21
1.614877
31
0.0
0
LINE
8
FRONT
10
0.870276
20
1.614877
30
0.0
11
0.856297
21
1.617674
31
0.0
0
LINE
8
FRONT
10
0.856297
20
1.617674
30
0.0
11
0.842254
21
1.620125
31
0.0
0
LINE
8
FRONT
10
0.842254
20
1.620125
30
0.0
11
0.828154
21
1.622228
31
0.0
0
LINE
8
FRONT
10
0.828154
20
1.622228
30
0.0
11
0.814007
21
1.623983
31
0.0
0
LINE
8
FRONT
10
0.814007
20
1.623983
30
0.0
11
0.799821
21
1.625388
31
0.0
0
LINE
8
FRONT
10
0.799821
20
1.625388
30
0.0
11
0.785604
21
1.626443
31
0.0
0
LINE
8
FRONT
10
0.785604
20
1.626443
30
0.0
11
0.771366
21
1.627146
31
0.0
0
LINE
8
FRONT
10
0.771366
20
1.627146
30
0.0
11
0.757114
21
1.627498
31
0.0
0
LINE
8
FRONT
10
0.757114
20
1.627498
30
0.0
11
0.742858
21
1.627498
31
0.0
0
LINE
8
FRONT
10
0.742858
20
1.627498
30
0.0
11
0.728607
21
1.627146
31
0.0
0
LINE
8
FRONT
10
0.728607
20
1.627146
30
0.0
11
0.714369
21
1.626443
31
0.0
0
LINE
8
FRONT
10
0.714369
20
1.626443
30
0.0
11
0.700152
21
1.625388
31
0.0
0
LINE
8
FRONT
10
0.700152
20
1.625388
30
0.0
11
0.685966
21
1.623983
31
0.0
0
LINE
8
FRONT
10
0.685966
20
1.623983
30
0.0
11
0.671818
21
1.622228
31
0.0
0
LINE
8
FRONT
10
0.671818
20
1.622228
30
0.0
11
0.657719
21
1.620125
31
0.0
0
LINE
8
FRONT
10
0.657719
20
1.620125
30
0.0
11
0.643675
21
1.617674
31
0.0
0
LINE
8
FRONT
10
0.643675
20
1.617674
30
0.0
11
0.629696
21
1.614877
31
0.0
0
LINE
8
FRONT
10
0.629696
20
1.614877
30
0.0
11
0.615791
21
1.611737
31
0.0
0
LINE
8
FRONT
10
0.615791
20
1.611737
30
0.0
11
0.601967
21
1.608254
31
0.0
0
LINE
8
FRONT
10
0.601967
20
1.608254
30
0.0
11
0.588234
21
1.604430
31
0.0
0
LINE
8
FRONT
10
0.588234
20
1.604430
30
0.0
11
0.574599
21
1.600270
31
0.0
0
LINE
8
FRONT
10
0.574599
20
1.600270
30
0.0
11
0.561071
21
1.595773
31
0.0
0
LINE
8
FRONT
10
0.561071
20
1.595773
30
0.0
11
0.547658
21
1.590945
31
0.0
0
LINE
8
FRONT
10
0.547658
20
1.590945
30
0.0
11
0.534368
21
1.585787
31
0.0
0
LINE
8
FRONT
10
0.534368
20
1.585787
30
0.0
11
0.521209
21
1.580302
31
0.0
0
LINE
8
FRONT
10
0.521209
20
1.580302
30
0.0
11
0.508190
21
1.574494
31
0.0
0
LINE
8
FRONT
10
0.508190
20
1.574494
30
0.0
11
0.495318
21
1.568367
31
0.0
0
LINE
8
FRONT
10
0.495318
20
1.568367
30
0.0
11
0.482602
21
1.561924
31
0.0
0
LINE
8
FRONT
10
0.482602
20
1.561924
30
0.0
11
0.470048
21
1.555169
31
0.0
0
LINE
8
FRONT
10
0.470048
20
1.555169
30
0.0
11
0.457665
21
1.548106
31
0.0
0
LINE
8
FRONT
10
0.457665
20
1.548106
30
0.0
11
0.445459
21
1.540740
31
0.0
0
LINE
8
FRONT
10
0.445459
20
1.540740
30
0.0
11
0.433440
21
1.533075
31
0.0
0
LINE
8
FRONT
10
0.433440
20
1.533075
30
0.0
11
0.421613
21
1.525116
31
0.0
0
LINE
8
FRONT
10
0.421613
20
1.525116
30
0.0
11
0.409986
21
1.516867
31
0.0
0
LINE
8
FRONT
10
0.409986
20
1.516867
30
0.0
11
0.398567
21
1.508334
31
0.0
0
LINE
8
FRONT
10
0.398567
20
1.508334
30
0.0
11
0.387361
21
1.499521
31
0.0
0
LINE
8
FRONT
10
0.387361
20
1.499521
30
0.0
11
0.376376
21
1.490435
31
0.0
0
LINE
8
FRONT
10
0.376376
20
1.490435
30
0.0
11
0.365619
21
1.481080
31
0.0
0
LINE
8
FRONT
10
0.365619
20
1.481080
30
0.0
11
0.355096
21
1.471462
31
0.0
0
LINE
8
FRONT
10
0.355096
20
1.471462
30
0.0
11
0.344814
21
1.461588
31
0.0
0
LINE
8
FRONT
10
0.344814
20
1.461588
30
0.0
11
0.051453
21
1.172831
31
0.0
0
LINE
8
FRONT
10
0.051453
20
1.172831
30
0.0
11
0.048397
21
1.169747
31
0.0
0
LINE
8
FRONT
10
0.048397
20
1.169747
30
0.0
11
0.045420
21
1.166586
31
0.0
0
LINE
8
FRONT
10
0.045420
20
1.166586
30
0.0
11
0.042523
21
1.163352
31
0.0
0
LINE
8
FRONT
10
0.042523
20
1.163352
30
0.0
11
0.039709
21
1.160045
31
0.0
0
LINE
8
FRONT
10
0.039709
20
1.160045
30
0.0
11
0.036979
21
1.156669
31
0.0
0
LINE
8
FRONT
10
0.036979
20
1.156669
30
0.0
11
0.034335
21
1.153225
31
0.0
0
LINE
8
FRONT
10
0.034335
20
1.153225
30
0.0
11
0.031778
21
1.149715
31
0.0
0
LINE
8
FRONT
10
0.031778
20
1.149715
30
0.0
11
0.029310
21
1.146143
31
0.0
0
LINE
8
FRONT
10
0.029310
20
1.146143
30
0.0
11
0.026934
21
1.142509
31
0.0
0
LINE
8
FRONT
10
0.026934
20
1.142509
30
0.0
11
0.024649
21
1.138816
31
0.0
0
LINE
8
FRONT
10
0.024649
20
1.138816
30
0.0
11
0.022458
21
1.135068
31
0.0
0
LINE
8
FRONT
10
0.022458
20
1.135068
30
0.0
11
0.020363
21
1.131265
31
0.0
0
LINE
8
FRONT
10
0.020363
20
1.131265
30
0.0
11
0.018363
21
1.127411
31
0.0
0
LINE
8
FRONT
10
0.018363
20
1.127411
30
0.0
11
0.016462
21
1.123507
31
0.0
0
LINE
8
FRONT
10
0.016462
20
1.123507
30
0.0
11
0.014659
21
1.119557
31
0.0
0
LINE
8
FRONT
10
0.014659
20
1.119557
30
0.0
11
0.012956
21
1.115563
31
0.0
0
LINE
8
FRONT
10
0.012956
20
1.115563
30
0.0
11
0.011355
21
1.111527
31
0.0
0
LINE
8
FRONT
10
0.011355
20
1.111527
30
0.0
11
0.009856
21
1.107452
31
0.0
0
LINE
8
FRONT
10
0.009856
20
1.107452
30
0.0
11
0.008459
21
1.103341
31
0.0
0
LINE
8
FRONT
10
0.008459
20
1.103341
30
0.0
11
0.007167
21
1.099195
31
0.0
0
LINE
8
FRONT
10
0.007167
20
1.099195
30
0.0
11
0.005979
21
1.095019
31
0.0
0
LINE
8
FRONT
10
0.005979
20
1.095019
30
0.0
11
0.004897
21
1.090814
31
0.0
0
LINE
8
FRONT
10
0.004897
20
1.090814
30
0.0
11
0.003922
21
1.086583
31
0.0
0
LINE
8
FRONT
10
0.003922
20
1.086583
30
0.0
11
0.003053
21
1.082329
31
0.0
0
LINE
8
FRONT
10
0.003053
20
1.082329
30
0.0
11
0.002291
21
1.078054
31
0.0
0
LINE
8
FRONT
10
0.002291
20
1.078054
30
0.0
11
0.001638
21
1.073761
31
0.0
0
LINE
8
FRONT
10
0.001638
20
1.073761
30
0.0
11
0.001092
21
1.069454
31
0.0
0
LINE
8
FRONT
10
0.001092
20
1.069454
30
0.0
11
0.000656
21
1.065134
31
0.0
0
LINE
8
FRONT
10
0.000656
20
1.065134
30
0.0
11
0.000328
21
1.060804
31
0.0
0
LINE
8
FRONT
10
0.000328
20
1.060804
30
0.0
11
0.000109
21
1.056468
31
0.0
0
LINE
8
FRONT
10
0.000109
20
1.056468
30
0.0
11
0.000000
21
1.052127
31
0.0
0
LINE
8
FRONT
10
0.000000
20
1.052127
30
0.0
11
0.000000
21
1.047785
31
0.0
0
LINE
8
FRONT
10
0.000000
20
1.047785
30
0.0
11
0.000109
21
1.043444
31
0.0
0
LINE
8
FRONT
10
0.000109
20
1.043444
30
0.0
11
0.000328
21
1.039108
31
0.0
0
LINE
8
FRONT
10
0.000328
20
1.039108
30
0.0
11
0.000656
21
1.034778
31
0.0
0
LINE
8
FRONT
10
0.000656
20
1.034778
30
0.0
11
0.001092
21
1.030458
31
0.0
0
LINE
8
FRONT
10
0.001092
20
1.030458
30
0.0
11
0.001638
21
1.026151
31
0.0
0
LINE
8
FRONT
10
0.001638
20
1.026151
30
0.0
11
0.002291
21
1.021858
31
0.0
0
LINE
8
FRONT
10
0.002291
20
1.021858
30
0.0
11
0.003053
21
1.017583
31
0.0
0
LINE
8
FRONT
10
0.003053
20
1.017583
30
0.0
11
0.003922
21
1.013329
31
0.0
0
LINE
8
FRONT
10
0.003922
20
1.013329
30
0.0
11
0.004897
21
1.009098
31
0.0
0
LINE
8
FRONT
10
0.004897
20
1.009098
30
0.0
11
0.005979
21
1.004893
31
0.0
0
LINE
8
FRONT
10
0.005979
20
1.004893
30
0.0
11
0.007167
21
1.000717
31
0.0
0
LINE
8
FRONT
10
0.007167
20
1.000717
30
0.0
11
0.008459
21
0.996571
31
0.0
0
LINE
8
FRONT
10
0.008459
20
0.996571
30
0.0
11
0.009856
21
0.992460
31
0.0
0
LINE
8
FRONT
10
0.009856
20
0.992460
30
0.0
11
0.011355
21
0.988385
31
0.0
0
LINE
8
FRONT
10
0.011355
20
0.988385
30
0.0
11
0.012956
21
0.984349
31
0.0
0
LINE
8
FRONT
10
0.012956
20
0.984349
30
0.0
11
0.014659
21
0.980355
31
0.0
0
LINE
8
FRONT
10
0.014659
20
0.980355
30
0.0
11
0.016462
21
0.976405
31
0.0
0
LINE
8
FRONT
10
0.016462
20
0.976405
30
0.0
11
0.018363
21
0.972501
31
0.0
0
LINE
8
FRONT
10
0.018363
20
0.972501
30
0.0
11
0.020363
21
0.968647
31
0.0
0
LINE
8
FRONT
10
0.020363
20
0.968647
30
0.0
11
0.022458
21
0.964844
31
0.0
0
LINE
8
FRONT
10
0.022458
20
0.964844
30
0.0
11
0.024649
21
0.961096
31
0.0
0
LINE
8
FRONT
10
0.024649
20
0.961096
30
0.0
11
0.026934
21
0.957403
31
0.0
0
LINE
8
FRONT
10
0.026934
20
0.957403
30
0.0
11
0.029310
21
0.953769
31
0.0
0
LINE
8
FRONT
10
0.029310
20
0.953769
30
0.0
11
0.031778
21
0.950197
31
0.0
0
LINE
8
FRONT
10
0.031778
20
0.950197
30
0.0
11
0.034335
21
0.946687
31
0.0
0
LINE
8
FRONT
10
0.034335
20
0.946687
30
0.0
11
0.036979
21
0.943243
31
0.0
0
LINE
8
FRONT
10
0.036979
20
0.943243
30
0.0
11
0.039709
21
0.939867
31
0.0
0
LINE
8
FRONT
10
0.039709
20
0.939867
30
0.0
11
0.042523
21
0.936560
31
0.0
0
LINE
8
FRONT
10
0.042523
20
0.936560
30
0.0
11
0.045420
21
0.933326
31
0.0
0
LINE
8
FRONT
10
0.045420
20
0.933326
30
0.0
11
0.048397
21
0.930165
31
0.0
0
LINE
8
FRONT
10
0.048397
20
0.930165
30
0.0
11
0.051453
21
0.927081
31
0.0
0
LINE
8
FRONT
10
0.099124
20
1.049956
30
0.0
11
0.099488
21
1.042660
31
0.0
0
LINE
8
FRONT
10
0.099488
20
1.042660
30
0.0
11
0.100577
21
1.035437
31
0.0
0
LINE
8
FRONT
10
0.100577
20
1.035437
30
0.0
11
0.102380
21
1.028358
31
0.0
0
LINE
8
FRONT
10
0.102380
20
1.028358
30
0.0
11
0.104878
21
1.021493
31
0.0
0
LINE
8
FRONT
10
0.104878
20
1.021493
30
0.0
11
0.108048
21
1.014912
31
0.0
0
LINE
8
FRONT
10
0.108048
20
1.014912
30
0.0
11
0.111857
21
1.008678
31
0.0
0
LINE
8
FRONT
10
0.111857
20
1.008678
30
0.0
11
0.116268
21
1.002855
31
0.0
0
LINE
8
FRONT
10
0.116268
20
1.002855
30
0.0
11
0.121236
21
0.997500
31
0.0
0
LINE
8
FRONT
10
0.121236
20
0.997500
30
0.0
11
0.126713
21
0.992667
31
0.0
0
LINE
8
FRONT
10
0.126713
20
0.992667
30
0.0
11
0.132645
21
0.988402
31
0.0
0
LINE
8
FRONT
10
0.132645
20
0.988402
30
0.0
11
0.138971
21
0.984750
31
0.0
0
LINE
8
FRONT
10
0.138971
20
0.984750
30
0.0
11
0.145629
21
0.981745
31
0.0
0
LINE
8
FRONT
10
0.145629
20
0.981745
30
0.0
11
0.152554
21
0.979419
31
0.0
0
LINE
8
FRONT
10
0.152554
20
0.979419
30
0.0
11
0.159676
21
0.977793
31
0.0
0
LINE
8
FRONT
10
0.159676
20
0.977793
30
0.0
11
0.166924
21
0.976885
31
0.0
0
LINE
8
FRONT
10
0.166924
20
0.976885
30
0.0
11
0.174227
21
0.976703
31
0.0
0
LINE
8
FRONT
10
0.174227
20
0.976703
30
0.0
11
0.181512
21
0.977249
31
0.0
0
LINE
8
FRONT
10
0.181512
20
0.977249
30
0.0
11
0.188706
21
0.978517
31
0.0
0
LINE
8
FRONT
10
0.188706
20
0.978517
30
0.0
11
0.195738
21
0.980496
31
0.0
0
LINE
8
FRONT
10
0.195738
20
0.980496
30
0.0
11
0.202538
21
0.983165
31
0.0
0
LINE
8
FRONT
10
0.202538
20
0.983165
30
0.0
11
0.209038
21
0.986497
31
0.0
0
LINE
8
FRONT
10
0.209038
20
0.986497
30
0.0
11
0.215174
21
0.990461
31
0.0
0
LINE
8
FRONT
10
0.215174
20
0.990461
30
0.0
11
0.220886
21
0.995015
31
0.0
0
LINE
8
FRONT
10
0.220886
20
0.995015
30
0.0
11
0.226115
21
1.000116
31
0.0
0
LINE
8
FRONT
10
0.226115
20
1.000116
30
0.0
11
0.230811
21
1.005712
31
0.0
0
LINE
8
FRONT
10
0.230811
20
1.005712
30
0.0
11
0.234926
21
1.011747
31
0.0
0
LINE
8
FRONT
10
0.234926
20
1.011747
30
0.0
11
0.238419
21
1.018163
31
0.0
0
LINE
8
FRONT
10
0.238419
20
1.018163
30
0.0
11
0.241257
21
1.024894
31
0.0
0
LINE
8
FRONT
10
0.241257
20
1.024894
30
0.0
11
0.243410
21
1.031875
31
0.0
0
LINE
8
FRONT
10
0.243410
20
1.031875
30
0.0
11
0.244858
21
1.039035
31
0.0
0
LINE
8
FRONT
10
0.244858
20
1.039035
30
0.0
11
0.245585
21
1.046304
31
0.0
0
LINE
8
FRONT
10
0.245585
20
1.046304
30
0.0
11
0.245585
21
1.053609
31
0.0
0
LINE
8
FRONT
10
0.245585
20
1.053609
30
0.0
11
0.244858
21
1.060877
31
0.0
0
LINE
8
FRONT
10
0.244858
20
1.060877
30
0.0
11
0.243410
21
1.068037
31
0.0
0
LINE
8
FRONT
10
0.243410
20
1.068037
30
0.0
11
0.241257
21
1.075018
31
0.0
0
LINE
8
FRONT
10
0.241257
20
1.075018
30
0.0
11
0.238419
21
1.081749
31
0.0
0
LINE
8
FRONT
10
0.238419
20
1.081749
30
0.0
11
0.234926
21
1.088165
31
0.0
0
LINE
8
FRONT
10
0.234926
20
1.088165
30
0.0
11
0.230811
21
1.094200
31
0.0
0
LINE
8
FRONT
10
0.230811
20
1.094200
30
0.0
11
0.226115
21
1.099796
31
0.0
0
LINE
8
FRONT
10
0.226115
20
1.099796
30
0.0
11
0.220886
21
1.104897
31
0.0
0
LINE
8
FRONT
10
0.220886
20
1.104897
30
0.0
11
0.215174
21
1.109451
31
0.0
0
LINE
8
FRONT
10
0.215174
20
1.109451
30
0.0
11
0.209038
21
1.113415
31
0.0
0
LINE
8
FRONT
10
0.209038
20
1.113415
30
0.0
11
0.202538
21
1.116747
31
0.0
0
LINE
8
FRONT
10
0.202538
20
1.116747
30
0.0
11
0.195738
21
1.119416
31
0.0
0
LINE
8
FRONT
10
0.195738
20
1.119416
30
0.0
11
0.188706
21
1.121395
31
0.0
0
LINE
8
FRONT
10
0.188706
20
1.121395
30
0.0
11
0.181512
21
1.122663
31
0.0
0
LINE
8
FRONT
10
0.181512
20
1.122663
30
0.0
11
0.174227
21
1.123209
31
0.0
0
LINE
8
FRONT
10
0.174227
20
1.123209
30
0.0
11
0.166924
21
1.123027
31
0.0
0
LINE
8
FRONT
10
0.166924
20
1.123027
30
0.0
11
0.159676
21
1.122119
31
0.0
0
LINE
8
FRONT
10
0.159676
20
1.122119
30
0.0
11
0.152554
21
1.120493
31
0.0
0
LINE
8
FRONT
10
0.152554
20
1.120493
30
0.0
11
0.145629
21
1.118167
31
0.0
0
LINE
8
FRONT
10
0.145629
20
1.118167
30
0.0
11
0.138971
21
1.115162
31
0.0
0
LINE
8
FRONT
10
0.138971
20
1.115162
30
0.0
11
0.132645
21
1.111510
31
0.0
0
LINE
8
FRONT
10
0.132645
20
1.111510
30
0.0
11
0.126713
21
1.107245
31
0.0
0
LINE
8
FRONT
10
0.126713
20
1.107245
30
0.0
11
0.121236
21
1.102412
31
0.0
0
LINE
8
FRONT
10
0.121236
20
1.102412
30
0.0
11
0.116268
21
1.097057
31
0.0
0
LINE
8
FRONT
10
0.116268
20
1.097057
30
0.0
11
0.111857
21
1.091234
31
0.0
0
LINE
8
FRONT
10
0.111857
20
1.091234
30
0.0
11
0.108048
21
1.085000
31
0.0
0
LINE
8
FRONT
10
0.108048
20
1.085000
30
0.0
11
0.104878
21
1.078419
31
0.0
0
LINE
8
FRONT
10
0.104878
20
1.078419
30
0.0
11
0.102380
21
1.071554
31
0.0
0
LINE
8
FRONT
10
0.102380
20
1.071554
30
0.0
11
0.100577
21
1.064475
31
0.0
0
LINE
8
FRONT
10
0.100577
20
1.064475
30
0.0
11
0.099488
21
1.057252
31
0.0
0
LINE
8
FRONT
10
0.099488
20
1.057252
30
0.0
11
0.099124
21
1.049956
31
0.0
0
LINE
8
FRONT
10
0.362055
20
1.049956
30
0.0
11
0.363983
21
1.011331
31
0.0
0
LINE
8
FRONT
10
0.363983
20
1.011331
30
0.0
11
0.369747
21
0.973089
31
0.0
0
LINE
8
FRONT
10
0.369747
20
0.973089
30
0.0
11
0.379290
21
0.935611
31
0.0
0
LINE
8
FRONT
10
0.379290
20
0.935611
30
0.0
11
0.392517
21
0.899270
31
0.0
0
LINE
8
FRONT
10
0.392517
20
0.899270
30
0.0
11
0.409297
21
0.864426
31
0.0
0
LINE
8
FRONT
10
0.409297
20
0.864426
30
0.0
11
0.429463
21
0.831427
31
0.0
0
LINE
8
FRONT
10
0.429463
20
0.831427
30
0.0
11
0.452814
21
0.800599
31
0.0
0
LINE
8
FRONT
10
0.452814
20
0.800599
30
0.0
11
0.479119
21
0.772249
31
0.0
0
LINE
8
FRONT
10
0.479119
20
0.772249
30
0.0
11
0.508115
21
0.746659
31
0.0
0
LINE
8
FRONT
10
0.508115
20
0.746659
30
0.0
11
0.539516
21
0.724084
31
0.0
0
LINE
8
FRONT
10
0.539516
20
0.724084
30
0.0
11
0.573008
21
0.704747
31
0.0
0
LINE
8
FRONT
10
0.573008
20
0.704747
30
0.0
11
0.608259
21
0.688841
31
0.0
0
LINE
8
FRONT
10
0.608259
20
0.688841
30
0.0
11
0.644919
21
0.676524
31
0.0
0
LINE
8
FRONT
10
0.644919
20
0.676524
30
0.0
11
0.682623
21
0.667919
31
0.0
0
LINE
8
FRONT
10
0.682623
20
0.667919
30
0.0
11
0.720996
21
0.663110
31
0.0
0
LINE
8
FRONT
10
0.720996
20
0.663110
30
0.0
11
0.759658
21
0.662146
31
0.0
0
LINE
8
FRONT
10
0.759658
20
0.662146
30
0.0
11
0.798223
21
0.665036
31
0.0
0
LINE
8
FRONT
10
0.798223
20
0.665036
30
0.0
11
0.836309
21
0.671751
31
0.0
0
LINE
8
FRONT
10
0.836309
20
0.671751
30
0.0
11
0.873537
21
0.682226
31
0.0
0
LINE
8
FRONT
10
0.873537
20
0.682226
30
0.0
11
0.909537
21
0.696355
31
0.0
0
LINE
8
FRONT
10
0.909537
20
0.696355
30
0.0
11
0.943952
21
0.713998
31
0.0
0
LINE
8
FRONT
10
0.943952
20
0.713998
30
0.0
11
0.976439
21
0.734980
31
0.0
0
LINE
8
FRONT
10
0.976439
20
0.734980
30
0.0
11
1.006675
21
0.759093
31
0.0
0
LINE
8
FRONT
10
1.006675
20
0.759093
30
0.0
11
1.034360
21
0.786096
31
0.0
0
LINE
8
FRONT
10
1.034360
20
0.786096
30
0.0
11
1.059219
21
0.815722
31
0.0
0
LINE
8
FRONT
10
1.059219
20
0.815722
30
0.0
11
1.081004
21
0.847675
31
0.0
0
LINE
8
FRONT
10
1.081004
20
0.847675
30
0.0
11
1.099500
21
0.881639
31
0.0
0
LINE
8
FRONT
10
1.099500
20
0.881639
30
0.0
11
1.114522
21
0.917276
31
0.0
0
LINE
8
FRONT
10
1.114522
20
0.917276
30
0.0
11
1.125921
21
0.954231
31
0.0
0
LINE
8
FRONT
10
1.125921
20
0.954231
30
0.0
11
1.133584
21
0.992138
31
0.0
0
LINE
8
FRONT
10
1.133584
20
0.992138
30
0.0
11
1.137435
21
1.030619
31
0.0
0
LINE
8
FRONT
10
1.137435
20
1.030619
30
0.0
11
1.137435
21
1.069293
31
0.0
0
LINE
8
FRONT
10
1.137435
20
1.069293
30
0.0
11
1.133584
21
1.107774
31
0.0
0
LINE
8
FRONT
10
1.133584
20
1.107774
30
0.0
11
1.125921
21
1.145681
31
0.0
0
LINE
8
FRONT
10
1.125921
20
1.145681
30
0.0
11
1.114522
21
1.182636
31
0.0
0
LINE
8
FRONT
10
1.114522
20
1.182636
30
0.0
11
1.099500
21
1.218273
31
0.0
0
LINE
8
FRONT
10
1.099500
20
1.218273
30
0.0
11
1.081004
21
1.252237
31
0.0
0
LINE
8
FRONT
10
1.081004
20
1.252237
30
0.0
11
1.059219
21
1.284190
31
0.0
0
LINE
8
FRONT
10
1.059219
20
1.284190
30
0.0
11
1.034360
21
1.313816
31
0.0
0
LINE
8
FRONT
10
1.034360
20
1.313816
30
0.0
11
1.006675
21
1.340819
31
0.0
0
LINE
8
FRONT
10
1.006675
20
1.340819
30
0.0
11
0.976439
21
1.364932
31
0.0
0
LINE
8
FRONT
10
0.976439
20
1.364932
30
0.0
11
0.943952
21
1.385914
31
0.0
0
LINE
8
FRONT
10
0.943952
20
1.385914
30
0.0
11
0.909537
21
1.403557
31
0.0
0
LINE
8
FRONT
10
0.909537
20
1.403557
30
0.0
11
0.873537
21
1.417686
31
0.0
0
LINE
8
FRONT
10
0.873537
20
1.417686
30
0.0
11
0.836309
21
1.428161
31
0.0
0
LINE
8
FRONT
10
0.836309
20
1.428161
30
0.0
11
0.798223
21
1.434876
31
0.0
0
LINE
8
FRONT
10
0.798223
20
1.434876
30
0.0
11
0.759658
21
1.437766
31
0.0
0
LINE
8
FRONT
10
0.759658
20
1.437766
30
0.0
11
0.720996
21
1.436802
31
0.0
0
LINE
8
FRONT
10
0.720996
20
1.436802
30
0.0
11
0.682623
21
1.431994
31
0.0
0
LINE
8
FRONT
10
0.682623
20
1.431994
30
0.0
11
0.644919
21
1.423388
31
0.0
0
LINE
8
FRONT
10
0.644919
20
1.423388
30
0.0
11
0.608259
21
1.411071
31
0.0
0
LINE
8
FRONT
10
0.608259
20
1.411071
30
0.0
11
0.573008
21
1.395165
31
0.0
0
LINE
8
FRONT
10
0.573008
20
1.395165
30
0.0
11
0.539516
21
1.375828
31
0.0
0
LINE
8
FRONT
10
0.539516
20
1.375828
30
0.0
11
0.508115
21
1.353253
31
0.0
0
LINE
8
FRONT
10
0.508115
20
1.353253
30
0.0
11
0.479119
21
1.327663
31
0.0
0
LINE
8
FRONT
10
0.479119
20
1.327663
30
0.0
11
0.452814
21
1.299313
31
0.0
0
LINE
8
FRONT
10
0.452814
20
1.299313
30
0.0
11
0.429463
21
1.268485
31
0.0
0
LINE
8
FRONT
10
0.429463
20
1.268485
30
0.0
11
0.409297
21
1.235486
31
0.0
0
LINE
8
FRONT
10
0.409297
20
1.235486
30
0.0
11
0.392517
21
1.200642
31
0.0
0
LINE
8
FRONT
10
0.392517
20
1.200642
30
0.0
11
0.379290
21
1.164301
31
0.0
0
LINE
8
FRONT
10
0.379290
20
1.164301
30
0.0
11
0.369747
21
1.126823
31
0.0
0
LINE
8
FRONT
10
0.369747
20
1.126823
30
0.0
11
0.363983
21
1.088581
31
0.0
0
LINE
8
FRONT
10
0.363983
20
1.088581
30
0.0
11
0.362055
21
1.049956
31
0.0
0
LINE
8
FRONT
10
1.254297
20
1.049956
30
0.0
11
1.254661
21
1.042660
31
0.0
0
LINE
8
FRONT
10
1.254661
20
1.042660
30
0.0
11
1.255750
21
1.035437
31
0.0
0
LINE
8
FRONT
10
1.255750
20
1.035437
30
0.0
11
1.257552
21
1.028358
31
0.0
0
LINE
8
FRONT
10
1.257552
20
1.028358
30
0.0
11
1.260051
21
1.021493
31
0.0
0
LINE
8
FRONT
10
1.260051
20
1.021493
30
0.0
11
1.263220
21
1.014912
31
0.0
0
LINE
8
FRONT
10
1.263220
20
1.014912
30
0.0
11
1.267029
21
1.008678
31
0.0
0
LINE
8
FRONT
10
1.267029
20
1.008678
30
0.0
11
1.271440
21
1.002855
31
0.0
0
LINE
8
FRONT
10
1.271440
20
1.002855
30
0.0
11
1.276409
21
0.997500
31
0.0
0
LINE
8
FRONT
10
1.276409
20
0.997500
30
0.0
11
1.281886
21
0.992667
31
0.0
0
LINE
8
FRONT
10
1.281886
20
0.992667
30
0.0
11
1.287817
21
0.988402
31
0.0
0
LINE
8
FRONT
10
1.287817
20
0.988402
30
0.0
11
1.294143
21
0.984750
31
0.0
0
LINE
8
FRONT
10
1.294143
20
0.984750
30
0.0
11
1.300802
21
0.981745
31
0.0
0
LINE
8
FRONT
10
1.300802
20
0.981745
30
0.0
11
1.307726
21
0.979419
31
0.0
0
LINE
8
FRONT
10
1.307726
20
0.979419
30
0.0
11
1.314848
21
0.977793
31
0.0
0
LINE
8
FRONT
10
1.314848
20
0.977793
30
0.0
11
1.322097
21
0.976885
31
0.0
0
LINE
8
FRONT
10
1.322097
20
0.976885
30
0.0
11
1.329399
21
0.976703
31
0.0
0
LINE
8
FRONT
10
1.329399
20
0.976703
30
0.0
11
1.336684
21
0.977249
31
0.0
0
LINE
8
FRONT
10
1.336684
20
0.977249
30
0.0
11
1.343878
21
0.978517
31
0.0
0
LINE
8
FRONT
10
1.343878
20
0.978517
30
0.0
11
1.350910
21
0.980496
31
0.0
0
LINE
8
FRONT
10
1.350910
20
0.980496
30
0.0
11
1.357710
21
0.983165
31
0.0
0
LINE
8
FRONT
10
1.357710
20
0.983165
30
0.0
11
1.364210
21
0.986497
31
0.0
0
LINE
8
FRONT
10
1.364210
20
0.986497
30
0.0
11
1.370347
21
0.990461
31
0.0
0
LINE
8
FRONT
10
1.370347
20
0.990461
30
0.0
11
1.376058
21
0.995015
31
0.0
0
LINE
8
FRONT
10
1.376058
20
0.995015
30
0.0
11
1.381288
21
1.000116
31
0.0
0
LINE
8
FRONT
10
1.381288
20
1.000116
30
0.0
11
1.385983
21
1.005712
31
0.0
0
LINE
8
FRONT
10
1.385983
20
1.005712
30
0.0
11
1.390098
21
1.011747
31
0.0
0
LINE
8
FRONT
10
1.390098
20
1.011747
30
0.0
11
1.393592
21
1.018163
31
0.0
0
LINE
8
FRONT
10
1.393592
20
1.018163
30
0.0
11
1.396429
21
1.024894
31
0.0
0
LINE
8
FRONT
10
1.396429
20
1.024894
30
0.0
11
1.398583
21
1.031875
31
0.0
0
LINE
8
FRONT
10
1.398583
20
1.031875
30
0.0
11
1.400030
21
1.039035
31
0.0
0
LINE
8
FRONT
10
1.400030
20
1.039035
30
0.0
11
1.400757
21
1.046304
31
0.0
0
LINE
8
FRONT
10
1.400757
20
1.046304
30
0.0
11
1.400757
21
1.053609
31
0.0
0
LINE
8
FRONT
10
1.400757
20
1.053609
30
0.0
11
1.400030
21
1.060877
31
0.0
0
LINE
8
FRONT
10
1.400030
20
1.060877
30
0.0
11
1.398583
21
1.068037
31
0.0
0
LINE
8
FRONT
10
1.398583
20
1.068037
30
0.0
11
1.396429
21
1.075018
31
0.0
0
LINE
8
FRONT
10
1.396429
20
1.075018
30
0.0
11
1.393592
21
1.081749
31
0.0
0
LINE
8
FRONT
10
1.393592
20
1.081749
30
0.0
11
1.390098
21
1.088165
31
0.0
0
LINE
8
FRONT
10
1.390098
20
1.088165
30
0.0
11
1.385983
21
1.094200
31
0.0
0
LINE
8
FRONT
10
1.385983
20
1.094200
30
0.0
11
1.381288
21
1.099796
31
0.0
0
LINE
8
FRONT
10
1.381288
20
1.099796
30
0.0
11
1.376058
21
1.104897
31
0.0
0
LINE
8
FRONT
10
1.376058
20
1.104897
30
0.0
11
1.370347
21
1.109451
31
0.0
0
LINE
8
FRONT
10
1.370347
20
1.109451
30
0.0
11
1.364210
21
1.113415
31
0.0
0
LINE
8
FRONT
10
1.364210
20
1.113415
30
0.0
11
1.357710
21
1.116747
31
0.0
0
LINE
8
FRONT
10
1.357710
20
1.116747
30
0.0
11
1.350910
21
1.119416
31
0.0
0
LINE
8
FRONT
10
1.350910
20
1.119416
30
0.0
11
1.343878
21
1.121395
31
0.0
0
LINE
8
FRONT
10
1.343878
20
1.121395
30
0.0
11
1.336684
21
1.122663
31
0.0
0
LINE
8
FRONT
10
1.336684
20
1.122663
30
0.0
11
1.329399
21
1.123209
31
0.0
0
LINE
8
FRONT
10
1.329399
20
1.123209
30
0.0
11
1.322097
21
1.123027
31
0.0
0
LINE
8
FRONT
10
1.322097
20
1.123027
30
0.0
11
1.314848
21
1.122119
31
0.0
0
LINE
8
FRONT
10
1.314848
20
1.122119
30
0.0
11
1.307726
21
1.120493
31
0.0
0
LINE
8
FRONT
10
1.307726
20
1.120493
30
0.0
11
1.300802
21
1.118167
31
0.0
0
LINE
8
FRONT
10
1.300802
20
1.118167
30
0.0
11
1.294143
21
1.115162
31
0.0
0
LINE
8
FRONT
10
1.294143
20
1.115162
30
0.0
11
1.287817
21
1.111510
31
0.0
0
LINE
8
FRONT
10
1.287817
20
1.111510
30
0.0
11
1.281886
21
1.107245
31
0.0
0
LINE
8
FRONT
10
1.281886
20
1.107245
30
0.0
11
1.276409
21
1.102412
31
0.0
0
LINE
8
FRONT
10
1.276409
20
1.102412
30
0.0
11
1.271440
21
1.097057
31
0.0
0
LINE
8
FRONT
10
1.271440
20
1.097057
30
0.0
11
1.267029
21
1.091234
31
0.0
0
LINE
8
FRONT
10
1.267029
20
1.091234
30
0.0
11
1.263220
21
1.085000
31
0.0
0
LINE
8
FRONT
10
1.263220
20
1.085000
30
0.0
11
1.260051
21
1.078419
31
0.0
0
LINE
8
FRONT
10
1.260051
20
1.078419
30
0.0
11
1.257552
21
1.071554
31
0.0
0
LINE
8
FRONT
10
1.257552
20
1.071554
30
0.0
11
1.255750
21
1.064475
31
0.0
0
LINE
8
FRONT
10
1.255750
20
1.064475
30
0.0
11
1.254661
21
1.057252
31
0.0
0
LINE
8
FRONT
10
1.254661
20
1.057252
30
0.0
11
1.254297
21
1.049956
31
0.0
0
LINE
8
LEFT
10
1.972386
20
0.927125
30
0.0
11
1.972386
21
0.638368
31
0.0
0
LINE
8
LEFT
10
1.799973
20
0.927125
30
0.0
11
1.799973
21
0.638368
31
0.0
0
LINE
8
LEFT
10
1.799973
20
0.638368
30
0.0
11
1.799973
21
0.472414
31
0.0
0
LINE
8
LEFT
10
1.972386
20
0.638368
30
0.0
11
1.972386
21
0.472414
31
0.0
0
LINE
8
LEFT
10
1.799973
20
1.627586
30
0.0
11
1.799973
21
1.461632
31
0.0
0
LINE
8
LEFT
10
1.972386
20
1.627586
30
0.0
11
1.972386
21
1.461632
31
0.0
0
LINE
8
LEFT
10
1.972386
20
1.461632
30
0.0
11
1.972386
21
1.172875
31
0.0
0
LINE
8
LEFT
10
1.799973
20
1.461632
30
0.0
11
1.799973
21
1.172875
31
0.0
0
LINE
8
LEFT
10
1.799973
20
1.172875
30
0.0
11
1.799973
21
0.927125
31
0.0
0
LINE
8
LEFT
10
1.972386
20
1.172875
30
0.0
11
1.972386
21
0.927125
31
0.0
0
LINE
8
LEFT
10
1.799973
20
0.927125
30
0.0
11
1.972386
21
0.927125
31
0.0
0
LINE
8
LEFT
10
1.799973
20
0.638368
30
0.0
11
1.972386
21
0.638368
31
0.0
0
LINE
8
LEFT
10
1.799973
20
1.461632
30
0.0
11
1.972386
21
1.461632
31
0.0
0
LINE
8
LEFT
10
1.799973
20
1.172875
30
0.0
11
1.972386
21
1.172875
31
0.0
0
LINE
8
LEFT
10
1.972386
20
0.472414
30
0.0
11
1.799973
21
0.472414
31
0.0
0
LINE
8
LEFT
10
1.972386
20
1.627586
30
0.0
11
1.799973
21
1.627586
31
0.0
0
LINE
8
LEFT_HID
6
HIDDEN
10
1.799973
20
1.050000
30
0.0
11
1.799973
21
0.976724
31
0.0
0
LINE
8
LEFT_HID
6
HIDDEN
10
1.799973
20
0.976724
30
0.0
11
1.799973
21
1.123276
31
0.0
0
LINE
8
LEFT_HID
6
HIDDEN
10
1.799973
20
1.123276
30
0.0
11
1.799973
21
1.050000
31
0.0
0
LINE
8
LEFT_HID
6
HIDDEN
10
1.972386
20
1.050000
30
0.0
11
1.972386
21
0.976724
31
0.0
0
LINE
8
LEFT_HID
6
HIDDEN
10
1.972386
20
0.976724
30
0.0
11
1.972386
21
1.123276
31
0.0
0
LINE
8
LEFT_HID
6
HIDDEN
10
1.972386
20
1.123276
30
0.0
11
1.972386
21
1.050000
31
0.0
0
LINE
8
LEFT_HID
6
HIDDEN
10
1.799973
20
1.050000
30
0.0
11
1.799973
21
0.662069
31
0.0
0
LINE
8
LEFT_HID
6
HIDDEN
10
1.799973
20
0.662069
30
0.0
11
1.799973
21
1.437931
31
0.0
0
LINE
8
LEFT_HID
6
HIDDEN
10
1.799973
20
1.437931
30
0.0
11
1.799973
21
1.050000
31
0.0
0
LINE
8
LEFT_HID
6
HIDDEN
10
1.972386
20
1.050000
30
0.0
11
1.972386
21
0.662069
31
0.0
0
LINE
8
LEFT_HID
6
HIDDEN
10
1.972386
20
0.662069
30
0.0
11
1.972386
21
1.437931
31
0.0
0
LINE
8
LEFT_HID
6
HIDDEN
10
1.972386
20
1.437931
30
0.0
11
1.972386
21
1.050000
31
0.0
0
LINE
8
LEFT_HID
6
HIDDEN
10
1.799973
20
1.050000
30
0.0
11
1.799973
21
0.976724
31
0.0
0
LINE
8
LEFT_HID
6
HIDDEN
10
1.799973
20
0.976724
30
0.0
11
1.799973
21
1.123276
31
0.0
0
LINE
8
LEFT_HID
6
HIDDEN
10
1.799973
20
1.123276
30
0.0
11
1.799973
21
1.050000
31
0.0
0
LINE
8
LEFT_HID
6
HIDDEN
10
1.972386
20
1.050000
30
0.0
11
1.972386
21
0.976724
31
0.0
0
LINE
8
LEFT_HID
6
HIDDEN
10
1.972386
20
0.976724
30
0.0
11
1.972386
21
1.123276
31
0.0
0
LINE
8
LEFT_HID
6
HIDDEN
10
1.972386
20
1.123276
30
0.0
11
1.972386
21
1.050000
31
0.0
0
LINE
8
LEFT_HID
6
HIDDEN
10
1.972386
20
1.123276
30
0.0
11
1.799973
21
1.123276
31
0.0
0
LINE
8
LEFT_HID
6
HIDDEN
10
1.972386
20
0.976724
30
0.0
11
1.799973
21
0.976724
31
0.0
0
LINE
8
LEFT_HID
6
HIDDEN
10
1.972386
20
1.437931
30
0.0
11
1.799973
21
1.437931
31
0.0
0
LINE
8
LEFT_HID
6
HIDDEN
10
1.972386
20
0.662069
30
0.0
11
1.799973
21
0.662069
31
0.0
0
LINE
8
LEFT_HID
6
HIDDEN
10
1.972386
20
1.123276
30
0.0
11
1.799973
21
1.123276
31
0.0
0
LINE
8
LEFT_HID
6
HIDDEN
10
1.972386
20
0.976724
30
0.0
11
1.799973
21
0.976724
31
0.0
0
LINE
8
TOP
10
1.500000
20
0.172414
30
0.0
11
1.448533
21
0.172414
31
0.0
0
LINE
8
TOP
10
1.500000
20
0.000000
30
0.0
11
1.448533
21
0.000000
31
0.0
0
LINE
8
TOP
10
1.448533
20
0.000000
30
0.0
11
1.155172
21
0.000000
31
0.0
0
LINE
8
TOP
10
1.448533
20
0.172414
30
0.0
11
1.155172
21
0.172414
31
0.0
0
LINE
8
TOP
10
1.155172
20
0.172414
30
0.0
11
0.344828
21
0.172414
31
0.0
0
LINE
8
TOP
10
1.155172
20
0.000000
30
0.0
11
0.344828
21
0.000000
31
0.0
0
LINE
8
TOP
10
0.344828
20
0.000000
30
0.0
11
0.051467
21
0.000000
31
0.0
0
LINE
8
TOP
10
0.344828
20
0.172414
30
0.0
11
0.051467
21
0.172414
31
0.0
0
LINE
8
TOP
10
0.051467
20
0.172414
30
0.0
11
0.000000
21
0.172414
31
0.0
0
LINE
8
TOP
10
0.051467
20
0.000000
30
0.0
11
0.000000
21
0.000000
31
0.0
0
LINE
8
TOP
10
1.448533
20
0.172414
30
0.0
11
1.448533
21
0.000000
31
0.0
0
LINE
8
TOP
10
1.155172
20
0.172414
30
0.0
11
1.155172
21
0.000000
31
0.0
0
LINE
8
TOP
10
0.344828
20
0.172414
30
0.0
11
0.344828
21
0.000000
31
0.0
0
LINE
8
TOP
10
0.051467
20
0.172414
30
0.0
11
0.051467
21
0.000000
31
0.0
0
LINE
8
TOP
10
1.500000
20
0.000000
30
0.0
11
1.500000
21
0.172414
31
0.0
0
LINE
8
TOP
10
0.000000
20
0.000000
30
0.0
11
0.000000
21
0.172414
31
0.0
0
LINE
8
TOP_HID
6
HIDDEN
10
0.099138
20
0.172414
30
0.0
11
0.245690
21
0.172414
31
0.0
0
LINE
8
TOP_HID
6
HIDDEN
10
0.245690
20
0.172414
30
0.0
11
0.099138
21
0.172414
31
0.0
0
LINE
8
TOP_HID
6
HIDDEN
10
0.099138
20
0.172414
30
0.0
11
0.099138
21
0.000000
31
0.0
0
LINE
8
TOP_HID
6
HIDDEN
10
0.099138
20
0.000000
30
0.0
11
0.245690
21
0.000000
31
0.0
0
LINE
8
TOP_HID
6
HIDDEN
10
0.245690
20
0.000000
30
0.0
11
0.099138
21
0.000000
31
0.0
0
LINE
8
TOP_HID
6
HIDDEN
10
0.362069
20
0.172414
30
0.0
11
1.137931
21
0.172414
31
0.0
0
LINE
8
TOP_HID
6
HIDDEN
10
1.137931
20
0.172414
30
0.0
11
0.362069
21
0.172414
31
0.0
0
LINE
8
TOP_HID
6
HIDDEN
10
0.362069
20
0.172414
30
0.0
11
0.362069
21
0.000000
31
0.0
0
LINE
8
TOP_HID
6
HIDDEN
10
0.362069
20
0.000000
30
0.0
11
1.137931
21
0.000000
31
0.0
0
LINE
8
TOP_HID
6
HIDDEN
10
1.137931
20
0.000000
30
0.0
11
0.362069
21
0.000000
31
0.0
0
LINE
8
TOP_HID
6
HIDDEN
10
1.254310
20
0.172414
30
0.0
11
1.400862
21
0.172414
31
0.0
0
LINE
8
TOP_HID
6
HIDDEN
10
1.400862
20
0.172414
30
0.0
11
1.254310
21
0.172414
31
0.0
0
LINE
8
TOP_HID
6
HIDDEN
10
1.254310
20
0.172414
30
0.0
11
1.254310
21
0.000000
31
0.0
0
LINE
8
TOP_HID
6
HIDDEN
10
1.254310
20
0.000000
30
0.0
11
1.400862
21
0.000000
31
0.0
0
LINE
8
TOP_HID
6
HIDDEN
10
1.400862
20
0.000000
30
0.0
11
1.254310
21
0.000000
31
0.0
0
LINE
8
TOP_HID
6
HIDDEN
10
0.245690
20
0.000000
30
0.0
11
0.245690
21
0.172414
31
0.0
0
LINE
8
TOP_HID
6
HIDDEN
10
1.137931
20
0.000000
30
0.0
11
1.137931
21
0.172414
31
0.0
0
LINE
8
TOP_HID
6
HIDDEN
10
1.400862
20
0.000000
30
0.0
11
1.400862
21
0.172414
31
0.0
0
ENDSEC
0
EOF
