0
SECTION
2
HEADER
9
$ACADVER
1
AC1009
0
ENDSEC
0
SECTION
2
TABLES
0
TABLE
2
LTYPE
70
3
0
LTYPE
2
CONTINUOUS
70
0
3
Solid line
72
65
73
0
40
0.0
0
LTYPE
2
HIDDEN
70
0
3
__ __ __ __ __
72
65
73
2
40
0.037500
49
0.025013
49
-0.012488
0
LTYPE
2
CENTER
70
0
3
___ _ ___ _ ___
72
65
73
4
40
0.087488
49
0.049988
49
-0.012488
49
0.012488
49
-0.012488
0
ENDTAB
0
TABLE
2
LAYER
70
7
0
LAYER
2
0
70
0
62
7
6
CONTINUOUS
0
LAYER
2
FRONT
70
0
62
7
6
CONTINUOUS
0
LAYER
2
FRONT_HID
70
0
62
7
6
HIDDEN
0
LAYER
2
LEFT
70
0
62
7
6
CONTINUOUS
0
LAYER
2
LEFT_HID
70
0
62
7
6
HIDDEN
0
LAYER
2
TOP
70
0
62
7
6
CONTINUOUS
0
LAYER
2
TOP_HID
70
0
62
7
6
HIDDEN
0
ENDTAB
0
ENDSEC
0
SECTION
2
ENTITIES
0
LINE
8
FRONT
10
0.000000
20
0.900000
30
0.0
11
0.750000
21
0.900000
31
0.0
0
LINE
8
FRONT
10
0.000000
20
1.650000
30
0.0
11
0.000000
21
0.900000
31
0.0
0
LINE
8
FRONT
10
0.750000
20
0.900000
30
0.0
11
0.750000
21
1.650000
31
0.0
0
LINE
8
FRONT
10
0.750000
20
1.650000
30
0.0
11
0.000000
21
1.650000
31
0.0
0
LINE
8
FRONT_HID
6
HIDDEN
10
0.239635
20
0.900000
30
0.0
11
0.458607
21
0.900000
31
0.0
0
LINE
8
FRONT_HID
6
HIDDEN
10
0.458607
20
0.900000
30
0.0
11
0.239635
21
0.900000
31
0.0
0
LINE
8
FRONT_HID
6
HIDDEN
10
0.750000
20
1.193557
30
0.0
11
0.750000
21
1.050894
31
0.0
0
LINE
8
FRONT_HID
6
HIDDEN
10
0.750000
20
1.050894
30
0.0
11
0.750000
21
1.193557
31
0.0
0
LINE
8
FRONT_HID
6
HIDDEN
10
0.750000
20
1.511545
30
0.0
11
0.750000
21
1.393119
31
0.0
0
LINE
8
FRONT_HID
6
HIDDEN
10
0.750000
20
1.393119
30
0.0
11
0.750000
21
1.511545
31
0.0
0
LINE
8
FRONT_HID
6
HIDDEN
10
0.750000
20
1.511893
30
0.0
11
0.750000
21
1.399348
31
0.0
0
LINE
8
FRONT_HID
6
HIDDEN
10
0.750000
20
1.399348
30
0.0
11
0.750000
21
1.511893
31
0.0
0
LINE
8
FRONT_HID
6
HIDDEN
10
0.239635
20
0.900000
30
0.0
11
0.239635
21
1.050894
31
0.0
0
LINE
8
FRONT_HID
6
HIDDEN
10
0.239635
20
0.900000
30
0.0
11
0.239635
21
1.050894
31
0.0
0
LINE
8
FRONT_HID
6
HIDDEN
10
0.458607
20
0.900000
30
0.0
11
0.458607
21
1.050894
31
0.0
0
LINE
8
FRONT_HID
6
HIDDEN
10
0.458607
20
1.050894
30
0.0
11
0.239635
21
1.050894
31
0.0
0
LINE
8
FRONT_HID
6
HIDDEN
10
0.458607
20
0.900000
30
0.0
11
0.458607
21
1.050894
31
0.0
0
LINE
8
FRONT_HID
6
HIDDEN
10
0.239635
20
1.050894
30
0.0
11
0.458607
21
1.050894
31
0.0
0
LINE
8
FRONT_HID
6
HIDDEN
10
0.750000
20
1.193557
30
0.0
11
0.031102
21
1.193557
31
0.0
0
LINE
8
FRONT_HID
6
HIDDEN
10
0.031102
20
1.193557
30
0.0
11
0.031102
21
1.050894
31
0.0
0
LINE
8
FRONT_HID
6
HIDDEN
10
0.750000
20
1.050894
30
0.0
11
0.031102
21
1.050894
31
0.0
0
LINE
8
FRONT_HID
6
HIDDEN
10
0.750000
20
1.193557
30
0.0
11
0.031102
21
1.193557
31
0.0
0
LINE
8
FRONT_HID
6
HIDDEN
10
0.458607
20
1.193557
30
0.0
11
0.239635
21
1.193557
31
0.0
0
LINE
8
FRONT_HID
6
HIDDEN
10
0.239635
20
1.193557
30
0.0
11
0.458607
21
1.193557
31
0.0
0
LINE
8
FRONT_HID
6
HIDDEN
10
0.750000
20
1.050894
30
0.0
11
0.031102
21
1.050894
31
0.0
0
LINE
8
FRONT_HID
6
HIDDEN
10
0.031102
20
1.050894
30
0.0
11
0.031102
21
1.193557
31
0.0
0
LINE
8
FRONT_HID
6
HIDDEN
10
0.750000
20
1.511545
30
0.0
11
0.031102
21
1.511545
31
0.0
0
LINE
8
FRONT_HID
6
HIDDEN
10
0.031102
20
1.511545
30
0.0
11
0.031102
21
1.393119
31
0.0
0
LINE
8
FRONT_HID
6
HIDDEN
10
0.750000
20
1.393119
30
0.0
11
0.031102
21
1.393119
31
0.0
0
LINE
8
FRONT_HID
6
HIDDEN
10
0.750000
20
1.511545
30
0.0
11
0.458607
21
1.511545
31
0.0
0
LINE
8
FRONT_HID
6
HIDDEN
10
0.239635
20
1.511545
30
0.0
11
0.458607
21
1.511545
31
0.0
0
LINE
8
FRONT_HID
6
HIDDEN
10
0.239635
20
1.511545
30
0.0
11
0.031102
21
1.511545
31
0.0
0
LINE
8
FRONT_HID
6
HIDDEN
10
0.239635
20
1.393119
30
0.0
11
0.031102
21
1.393119
31
0.0
0
LINE
8
FRONT_HID
6
HIDDEN
10
0.458607
20
1.393119
30
0.0
11
0.239635
21
1.393119
31
0.0
0
LINE
8
FRONT_HID
6
HIDDEN
10
0.750000
20
1.393119
30
0.0
11
0.458607
21
1.393119
31
0.0
0
LINE
8
FRONT_HID
6
HIDDEN
10
0.458607
20
1.511545
30
0.0
11
0.458607
21
1.393119
31
0.0
0
LINE
8
FRONT_HID
6
HIDDEN
10
0.750000
20
1.511893
30
0.0
11
0.458607
21
1.511893
31
0.0
0
LINE
8
FRONT_HID
6
HIDDEN
10
0.458607
20
1.399348
30
0.0
11
0.458607
21
1.511893
31
0.0
0
LINE
8
FRONT_HID
6
HIDDEN
10
0.750000
20
1.399348
30
0.0
11
0.458607
21
1.399348
31
0.0
0
LINE
8
FRONT_HID
6
HIDDEN
10
0.750000
20
1.511893
30
0.0
11
0.031102
21
1.511893
31
0.0
0
LINE
8
FRONT_HID
6
HIDDEN
10
0.239635
20
1.511893
30
0.0
11
0.031102
21
1.511893
31
0.0
0
LINE
8
FRONT_HID
6
HIDDEN
10
0.458607
20
1.511893
30
0.0
11
0.239635
21
1.511893
31
0.0
0
LINE
8
FRONT_HID
6
HIDDEN
10
0.239635
20
1.399348
30
0.0
11
0.458607
21
1.399348
31
0.0
0
LINE
8
FRONT_HID
6
HIDDEN
10
0.239635
20
1.399348
30
0.0
11
0.031102
21
1.399348
31
0.0
0
LINE
8
FRONT_HID
6
HIDDEN
10
0.750000
20
1.399348
30
0.0
11
0.031102
21
1.399348
31
0.0
0
LINE
8
FRONT_HID
6
HIDDEN
10
0.031102
20
1.399348
30
0.0
11
0.031102
21
1.511893
31
0.0
0
LINE
8
FRONT_HID
6
HIDDEN
10
0.239635
20
1.193557
30
0.0
11
0.239635
21
1.399348
31
0.0
0
LINE
8
FRONT_HID
6
HIDDEN
10
0.458607
20
1.193557
30
0.0
11
0.458607
21
1.399348
31
0.0
0
LINE
8
FRONT_HID
6
HIDDEN
10
0.239635
20
1.193557
30
0.0
11
0.239635
21
1.393119
31
0.0
0
LINE
8
FRONT_HID
6
HIDDEN
10
0.239635
20
1.393119
30
0.0
11
0.239635
21
1.511545
31
0.0
0
LINE
8
FRONT_HID
6
HIDDEN
10
0.239635
20
1.511545
30
0.0
11
0.239635
21
1.609256
31
0.0
0
LINE
8
FRONT_HID
6
HIDDEN
10
0.239635
20
1.511893
30
0.0
11
0.239635
21
1.609256
31
0.0
0
LINE
8
FRONT_HID
6
HIDDEN
10
0.239635
20
1.511893
30
0.0
11
0.239635
21
1.399348
31
0.0
0
LINE
8
FRONT_HID
6
HIDDEN
10
0.458607
20
1.193557
30
0.0
11
0.458607
21
1.393119
31
0.0
0
LINE
8
FRONT_HID
6
HIDDEN
10
0.458607
20
1.511893
30
0.0
11
0.458607
21
1.609256
31
0.0
0
LINE
8
FRONT_HID
6
HIDDEN
10
0.458607
20
1.511545
30
0.0
11
0.458607
21
1.609256
31
0.0
0
LINE
8
FRONT_HID
6
HIDDEN
10
0.031102
20
1.393119
30
0.0
11
0.031102
21
1.511545
31
0.0
0
LINE
8
FRONT_HID
6
HIDDEN
10
0.458607
20
1.609256
30
0.0
11
0.239635
21
1.609256
31
0.0
0
LINE
8
FRONT_HID
6
HIDDEN
10
0.239635
20
1.609256
30
0.0
11
0.458607
21
1.609256
31
0.0
0
LINE
8
FRONT_HID
6
HIDDEN
10
0.031102
20
1.511893
30
0.0
11
0.031102
21
1.399348
31
0.0
0
LINE
8
LEFT
10
0.900000
20
0.900000
30
0.0
11
1.650000
21
0.900000
31
0.0
0
LINE
8
LEFT
10
0.900000
20
1.650000
30
0.0
11
1.650000
21
1.650000
31
0.0
0
LINE
8
LEFT
10
1.650000
20
1.650000
30
0.0
11
1.650000
21
0.900000
31
0.0
0
LINE
8
LEFT
10
0.900000
20
1.650000
30
0.0
11
0.900000
21
0.900000
31
0.0
0
LINE
8
LEFT_HID
6
HIDDEN
10
1.394860
20
0.900000
30
0.0
11
1.120587
21
0.900000
31
0.0
0
LINE
8
LEFT_HID
6
HIDDEN
10
1.120587
20
0.900000
30
0.0
11
1.394860
21
0.900000
31
0.0
0
LINE
8
LEFT_HID
6
HIDDEN
10
1.430919
20
1.193557
30
0.0
11
1.430919
21
1.050894
31
0.0
0
LINE
8
LEFT_HID
6
HIDDEN
10
1.430919
20
1.050894
30
0.0
11
1.090628
21
1.050894
31
0.0
0
LINE
8
LEFT_HID
6
HIDDEN
10
1.090628
20
1.050894
30
0.0
11
1.090628
21
1.193557
31
0.0
0
LINE
8
LEFT_HID
6
HIDDEN
10
1.090628
20
1.193557
30
0.0
11
1.430919
21
1.193557
31
0.0
0
LINE
8
LEFT_HID
6
HIDDEN
10
1.465663
20
1.511545
30
0.0
11
1.465663
21
1.393119
31
0.0
0
LINE
8
LEFT_HID
6
HIDDEN
10
1.465663
20
1.393119
30
0.0
11
1.334049
21
1.393119
31
0.0
0
LINE
8
LEFT_HID
6
HIDDEN
10
1.334049
20
1.393119
30
0.0
11
1.334049
21
1.511545
31
0.0
0
LINE
8
LEFT_HID
6
HIDDEN
10
1.334049
20
1.511545
30
0.0
11
1.465663
21
1.511545
31
0.0
0
LINE
8
LEFT_HID
6
HIDDEN
10
1.178628
20
1.511893
30
0.0
11
1.178628
21
1.399348
31
0.0
0
LINE
8
LEFT_HID
6
HIDDEN
10
1.178628
20
1.399348
30
0.0
11
1.052794
21
1.399348
31
0.0
0
LINE
8
LEFT_HID
6
HIDDEN
10
1.052794
20
1.399348
30
0.0
11
1.052794
21
1.511893
31
0.0
0
LINE
8
LEFT_HID
6
HIDDEN
10
1.052794
20
1.511893
30
0.0
11
1.178628
21
1.511893
31
0.0
0
LINE
8
LEFT_HID
6
HIDDEN
10
1.394860
20
0.900000
30
0.0
11
1.394860
21
1.050894
31
0.0
0
LINE
8
LEFT_HID
6
HIDDEN
10
1.394860
20
1.050894
30
0.0
11
1.120587
21
1.050894
31
0.0
0
LINE
8
LEFT_HID
6
HIDDEN
10
1.120587
20
0.900000
30
0.0
11
1.120587
21
1.050894
31
0.0
0
LINE
8
LEFT_HID
6
HIDDEN
10
1.394860
20
0.900000
30
0.0
11
1.394860
21
1.050894
31
0.0
0
LINE
8
LEFT_HID
6
HIDDEN
10
1.120587
20
0.900000
30
0.0
11
1.120587
21
1.050894
31
0.0
0
LINE
8
LEFT_HID
6
HIDDEN
10
1.120587
20
1.050894
30
0.0
11
1.394860
21
1.050894
31
0.0
0
LINE
8
LEFT_HID
6
HIDDEN
10
1.430919
20
1.193557
30
0.0
11
1.430919
21
1.050894
31
0.0
0
LINE
8
LEFT_HID
6
HIDDEN
10
1.090628
20
1.193557
30
0.0
11
1.430919
21
1.193557
31
0.0
0
LINE
8
LEFT_HID
6
HIDDEN
10
1.394860
20
1.193557
30
0.0
11
1.120587
21
1.193557
31
0.0
0
LINE
8
LEFT_HID
6
HIDDEN
10
1.120587
20
1.193557
30
0.0
11
1.394860
21
1.193557
31
0.0
0
LINE
8
LEFT_HID
6
HIDDEN
10
1.090628
20
1.050894
30
0.0
11
1.090628
21
1.193557
31
0.0
0
LINE
8
LEFT_HID
6
HIDDEN
10
1.430919
20
1.050894
30
0.0
11
1.090628
21
1.050894
31
0.0
0
LINE
8
LEFT_HID
6
HIDDEN
10
1.465663
20
1.511545
30
0.0
11
1.465663
21
1.393119
31
0.0
0
LINE
8
LEFT_HID
6
HIDDEN
10
1.394860
20
1.511545
30
0.0
11
1.334049
21
1.511545
31
0.0
0
LINE
8
LEFT_HID
6
HIDDEN
10
1.334049
20
1.511545
30
0.0
11
1.394860
21
1.511545
31
0.0
0
LINE
8
LEFT_HID
6
HIDDEN
10
1.334049
20
1.511545
30
0.0
11
1.465663
21
1.511545
31
0.0
0
LINE
8
LEFT_HID
6
HIDDEN
10
1.465663
20
1.393119
30
0.0
11
1.334049
21
1.393119
31
0.0
0
LINE
8
LEFT_HID
6
HIDDEN
10
1.394860
20
1.393119
30
0.0
11
1.334049
21
1.393119
31
0.0
0
LINE
8
LEFT_HID
6
HIDDEN
10
1.334049
20
1.393119
30
0.0
11
1.394860
21
1.393119
31
0.0
0
LINE
8
LEFT_HID
6
HIDDEN
10
1.334049
20
1.511545
30
0.0
11
1.334049
21
1.393119
31
0.0
0
LINE
8
LEFT_HID
6
HIDDEN
10
1.178628
20
1.399348
30
0.0
11
1.178628
21
1.511893
31
0.0
0
LINE
8
LEFT_HID
6
HIDDEN
10
1.052794
20
1.511893
30
0.0
11
1.178628
21
1.511893
31
0.0
0
LINE
8
LEFT_HID
6
HIDDEN
10
1.120587
20
1.511893
30
0.0
11
1.178628
21
1.511893
31
0.0
0
LINE
8
LEFT_HID
6
HIDDEN
10
1.178628
20
1.511893
30
0.0
11
1.120587
21
1.511893
31
0.0
0
LINE
8
LEFT_HID
6
HIDDEN
10
1.120587
20
1.399348
30
0.0
11
1.178628
21
1.399348
31
0.0
0
LINE
8
LEFT_HID
6
HIDDEN
10
1.178628
20
1.399348
30
0.0
11
1.120587
21
1.399348
31
0.0
0
LINE
8
LEFT_HID
6
HIDDEN
10
1.178628
20
1.399348
30
0.0
11
1.052794
21
1.399348
31
0.0
0
LINE
8
LEFT_HID
6
HIDDEN
10
1.052794
20
1.399348
30
0.0
11
1.052794
21
1.511893
31
0.0
0
LINE
8
LEFT_HID
6
HIDDEN
10
1.120587
20
1.193557
30
0.0
11
1.120587
21
1.399348
31
0.0
0
LINE
8
LEFT_HID
6
HIDDEN
10
1.120587
20
1.193557
30
0.0
11
1.120587
21
1.399348
31
0.0
0
LINE
8
LEFT_HID
6
HIDDEN
10
1.394860
20
1.193557
30
0.0
11
1.394860
21
1.393119
31
0.0
0
LINE
8
LEFT_HID
6
HIDDEN
10
1.334049
20
1.393119
30
0.0
11
1.334049
21
1.511545
31
0.0
0
LINE
8
LEFT_HID
6
HIDDEN
10
1.394860
20
1.511545
30
0.0
11
1.394860
21
1.609256
31
0.0
0
LINE
8
LEFT_HID
6
HIDDEN
10
1.394860
20
1.609256
30
0.0
11
1.120587
21
1.609256
31
0.0
0
LINE
8
LEFT_HID
6
HIDDEN
10
1.120587
20
1.511893
30
0.0
11
1.120587
21
1.609256
31
0.0
0
LINE
8
LEFT_HID
6
HIDDEN
10
1.178628
20
1.511893
30
0.0
11
1.178628
21
1.399348
31
0.0
0
LINE
8
LEFT_HID
6
HIDDEN
10
1.394860
20
1.193557
30
0.0
11
1.394860
21
1.393119
31
0.0
0
LINE
8
LEFT_HID
6
HIDDEN
10
1.120587
20
1.511893
30
0.0
11
1.120587
21
1.609256
31
0.0
0
LINE
8
LEFT_HID
6
HIDDEN
10
1.120587
20
1.609256
30
0.0
11
1.394860
21
1.609256
31
0.0
0
LINE
8
LEFT_HID
6
HIDDEN
10
1.394860
20
1.511545
30
0.0
11
1.394860
21
1.609256
31
0.0
0
LINE
8
LEFT_HID
6
HIDDEN
10
1.334049
20
1.393119
30
0.0
11
1.334049
21
1.511545
31
0.0
0
LINE
8
LEFT_HID
6
HIDDEN
10
1.178628
20
1.511893
30
0.0
11
1.178628
21
1.399348
31
0.0
0
LINE
8
TOP
10
0.000000
20
0.750000
30
0.0
11
0.000000
21
0.000000
31
0.0
0
LINE
8
TOP
10
0.750000
20
0.750000
30
0.0
11
0.000000
21
0.750000
31
0.0
0
LINE
8
TOP
10
0.750000
20
0.000000
30
0.0
11
0.000000
21
0.000000
31
0.0
0
LINE
8
TOP
10
0.750000
20
0.750000
30
0.0
11
0.750000
21
0.000000
31
0.0
0
LINE
8
TOP_HID
6
HIDDEN
10
0.239635
20
0.255140
30
0.0
11
0.239635
21
0.529413
31
0.0
0
LINE
8
TOP_HID
6
HIDDEN
10
0.239635
20
0.529413
30
0.0
11
0.458607
21
0.529413
31
0.0
0
LINE
8
TOP_HID
6
HIDDEN
10
0.458607
20
0.529413
30
0.0
11
0.458607
21
0.255140
31
0.0
0
LINE
8
TOP_HID
6
HIDDEN
10
0.458607
20
0.255140
30
0.0
11
0.239635
21
0.255140
31
0.0
0
LINE
8
TOP_HID
6
HIDDEN
10
0.750000
20
0.219081
30
0.0
11
0.750000
21
0.559372
31
0.0
0
LINE
8
TOP_HID
6
HIDDEN
10
0.750000
20
0.559372
30
0.0
11
0.750000
21
0.219081
31
0.0
0
LINE
8
TOP_HID
6
HIDDEN
10
0.750000
20
0.184337
30
0.0
11
0.750000
21
0.315951
31
0.0
0
LINE
8
TOP_HID
6
HIDDEN
10
0.750000
20
0.315951
30
0.0
11
0.750000
21
0.184337
31
0.0
0
LINE
8
TOP_HID
6
HIDDEN
10
0.750000
20
0.471372
30
0.0
11
0.750000
21
0.597206
31
0.0
0
LINE
8
TOP_HID
6
HIDDEN
10
0.750000
20
0.597206
30
0.0
11
0.750000
21
0.471372
31
0.0
0
LINE
8
TOP_HID
6
HIDDEN
10
0.239635
20
0.255140
30
0.0
11
0.239635
21
0.529413
31
0.0
0
LINE
8
TOP_HID
6
HIDDEN
10
0.458607
20
0.255140
30
0.0
11
0.239635
21
0.255140
31
0.0
0
LINE
8
TOP_HID
6
HIDDEN
10
0.458607
20
0.529413
30
0.0
11
0.458607
21
0.255140
31
0.0
0
LINE
8
TOP_HID
6
HIDDEN
10
0.239635
20
0.529413
30
0.0
11
0.458607
21
0.529413
31
0.0
0
LINE
8
TOP_HID
6
HIDDEN
10
0.750000
20
0.219081
30
0.0
11
0.031102
21
0.219081
31
0.0
0
LINE
8
TOP_HID
6
HIDDEN
10
0.750000
20
0.219081
30
0.0
11
0.031102
21
0.219081
31
0.0
0
LINE
8
TOP_HID
6
HIDDEN
10
0.750000
20
0.559372
30
0.0
11
0.031102
21
0.559372
31
0.0
0
LINE
8
TOP_HID
6
HIDDEN
10
0.031102
20
0.559372
30
0.0
11
0.031102
21
0.219081
31
0.0
0
LINE
8
TOP_HID
6
HIDDEN
10
0.458607
20
0.529413
30
0.0
11
0.239635
21
0.529413
31
0.0
0
LINE
8
TOP_HID
6
HIDDEN
10
0.458607
20
0.255140
30
0.0
11
0.458607
21
0.529413
31
0.0
0
LINE
8
TOP_HID
6
HIDDEN
10
0.239635
20
0.255140
30
0.0
11
0.458607
21
0.255140
31
0.0
0
LINE
8
TOP_HID
6
HIDDEN
10
0.239635
20
0.529413
30
0.0
11
0.239635
21
0.255140
31
0.0
0
LINE
8
TOP_HID
6
HIDDEN
10
0.750000
20
0.559372
30
0.0
11
0.031102
21
0.559372
31
0.0
0
LINE
8
TOP_HID
6
HIDDEN
10
0.031102
20
0.219081
30
0.0
11
0.031102
21
0.559372
31
0.0
0
LINE
8
TOP_HID
6
HIDDEN
10
0.750000
20
0.184337
30
0.0
11
0.031102
21
0.184337
31
0.0
0
LINE
8
TOP_HID
6
HIDDEN
10
0.750000
20
0.184337
30
0.0
11
0.031102
21
0.184337
31
0.0
0
LINE
8
TOP_HID
6
HIDDEN
10
0.750000
20
0.315951
30
0.0
11
0.458607
21
0.315951
31
0.0
0
LINE
8
TOP_HID
6
HIDDEN
10
0.458607
20
0.255140
30
0.0
11
0.458607
21
0.315951
31
0.0
0
LINE
8
TOP_HID
6
HIDDEN
10
0.239635
20
0.255140
30
0.0
11
0.458607
21
0.255140
31
0.0
0
LINE
8
TOP_HID
6
HIDDEN
10
0.239635
20
0.315951
30
0.0
11
0.239635
21
0.255140
31
0.0
0
LINE
8
TOP_HID
6
HIDDEN
10
0.239635
20
0.315951
30
0.0
11
0.031102
21
0.315951
31
0.0
0
LINE
8
TOP_HID
6
HIDDEN
10
0.031102
20
0.315951
30
0.0
11
0.031102
21
0.184337
31
0.0
0
LINE
8
TOP_HID
6
HIDDEN
10
0.031102
20
0.184337
30
0.0
11
0.031102
21
0.315951
31
0.0
0
LINE
8
TOP_HID
6
HIDDEN
10
0.239635
20
0.315951
30
0.0
11
0.031102
21
0.315951
31
0.0
0
LINE
8
TOP_HID
6
HIDDEN
10
0.239635
20
0.255140
30
0.0
11
0.239635
21
0.315951
31
0.0
0
LINE
8
TOP_HID
6
HIDDEN
10
0.458607
20
0.255140
30
0.0
11
0.239635
21
0.255140
31
0.0
0
LINE
8
TOP_HID
6
HIDDEN
10
0.458607
20
0.315951
30
0.0
11
0.458607
21
0.255140
31
0.0
0
LINE
8
TOP_HID
6
HIDDEN
10
0.750000
20
0.315951
30
0.0
11
0.458607
21
0.315951
31
0.0
0
LINE
8
TOP_HID
6
HIDDEN
10
0.750000
20
0.471372
30
0.0
11
0.458607
21
0.471372
31
0.0
0
LINE
8
TOP_HID
6
HIDDEN
10
0.750000
20
0.471372
30
0.0
11
0.458607
21
0.471372
31
0.0
0
LINE
8
TOP_HID
6
HIDDEN
10
0.750000
20
0.597206
30
0.0
11
0.031102
21
0.597206
31
0.0
0
LINE
8
TOP_HID
6
HIDDEN
10
0.031102
20
0.597206
30
0.0
11
0.031102
21
0.471372
31
0.0
0
LINE
8
TOP_HID
6
HIDDEN
10
0.239635
20
0.471372
30
0.0
11
0.031102
21
0.471372
31
0.0
0
LINE
8
TOP_HID
6
HIDDEN
10
0.239635
20
0.529413
30
0.0
11
0.239635
21
0.471372
31
0.0
0
LINE
8
TOP_HID
6
HIDDEN
10
0.458607
20
0.529413
30
0.0
11
0.239635
21
0.529413
31
0.0
0
LINE
8
TOP_HID
6
HIDDEN
10
0.458607
20
0.471372
30
0.0
11
0.458607
21
0.529413
31
0.0
0
LINE
8
TOP_HID
6
HIDDEN
10
0.458607
20
0.529413
30
0.0
11
0.458607
21
0.471372
31
0.0
0
LINE
8
TOP_HID
6
HIDDEN
10
0.239635
20
0.529413
30
0.0
11
0.458607
21
0.529413
31
0.0
0
LINE
8
TOP_HID
6
HIDDEN
10
0.239635
20
0.471372
30
0.0
11
0.239635
21
0.529413
31
0.0
0
LINE
8
TOP_HID
6
HIDDEN
10
0.239635
20
0.471372
30
0.0
11
0.031102
21
0.471372
31
0.0
0
LINE
8
TOP_HID
6
HIDDEN
10
0.031102
20
0.471372
30
0.0
11
0.031102
21
0.597206
31
0.0
0
LINE
8
TOP_HID
6
HIDDEN
10
0.750000
20
0.597206
30
0.0
11
0.031102
21
0.597206
31
0.0
0
LINE
8
TOP_HID
6
HIDDEN
10
0.239635
20
0.255140
30
0.0
11
0.239635
21
0.529413
31
0.0
0
LINE
8
TOP_HID
6
HIDDEN
10
0.458607
20
0.529413
30
0.0
11
0.458607
21
0.255140
31
0.0
0
LINE
8
TOP_HID
6
HIDDEN
10
0.458607
20
0.255140
30
0.0
11
0.239635
21
0.255140
31
0.0
0
LINE
8
TOP_HID
6
HIDDEN
10
0.239635
20
0.529413
30
0.0
11
0.458607
21
0.529413
31
0.0
0
ENDSEC
0
EOF
