0
SECTION
2
HEADER
9
$ACADVER
1
AC1009
0
ENDSEC
0
SECTION
2
TABLES
0
TABLE
2
LTYPE
70
3
0
LTYPE
2
CONTINUOUS
70
0
3
Solid line
72
65
73
0
40
0.0
0
LTYPE
2
HIDDEN
70
0
3
__ __ __ __ __
72
65
73
2
40
0.037500
49
0.025013
49
-0.012488
0
LTYPE
2
CENTER
70
0
3
___ _ ___ _ ___
72
65
73
4
40
0.087488
49
0.049988
49
-0.012488
49
0.012488
49
-0.012488
0
ENDTAB
0
TABLE
2
LAYER
70
6
0
LAYER
2
0
70
0
62
7
6
CONTINUOUS
0
LAYER
2
FRONT
70
0
62
7
6
CONTINUOUS
0
LAYER
2
LEFT
70
0
62
7
6
CONTINUOUS
0
LAYER
2
LEFT_HID
70
0
62
7
6
HIDDEN
0
LAYER
2
TOP
70
0
62
7
6
CONTINUOUS
0
LAYER
2
TOP_HID
70
0
62
7
6
HIDDEN
0
ENDTAB
0
ENDSEC
0
SECTION
2
ENTITIES
0
LINE
8
FRONT
10
0.000000
20
0.937500
30
0.0
11
0.000012
21
0.936565
31
0.0
0
LINE
8
FRONT
10
0.000012
20
0.936565
30
0.0
11
0.000047
21
0.935631
31
0.0
0
LINE
8
FRONT
10
0.000047
20
0.935631
30
0.0
11
0.000105
21
0.934698
31
0.0
0
LINE
8
FRONT
10
0.000105
20
0.934698
30
0.0
11
0.000186
21
0.933766
31
0.0
0
LINE
8
FRONT
10
0.000186
20
0.933766
30
0.0
11
0.000291
21
0.932837
31
0.0
0
LINE
8
FRONT
10
0.000291
20
0.932837
30
0.0
11
0.000419
21
0.931911
31
0.0
0
LINE
8
FRONT
10
0.000419
20
0.931911
30
0.0
11
0.000570
21
0.930988
31
0.0
0
LINE
8
FRONT
10
0.000570
20
0.930988
30
0.0
11
0.000744
21
0.930070
31
0.0
0
LINE
8
FRONT
10
0.000744
20
0.930070
30
0.0
11
0.000940
21
0.929155
31
0.0
0
LINE
8
FRONT
10
0.000940
20
0.929155
30
0.0
11
0.001160
21
0.928247
31
0.0
0
LINE
8
FRONT
10
0.001160
20
0.928247
30
0.0
11
0.001402
21
0.927343
31
0.0
0
LINE
8
FRONT
10
0.001402
20
0.927343
30
0.0
11
0.001666
21
0.926447
31
0.0
0
LINE
8
FRONT
10
0.001666
20
0.926447
30
0.0
11
0.001953
21
0.925557
31
0.0
0
LINE
8
FRONT
10
0.001953
20
0.925557
30
0.0
11
0.002262
21
0.924674
31
0.0
0
LINE
8
FRONT
10
0.002262
20
0.924674
30
0.0
11
0.002592
21
0.923800
31
0.0
0
LINE
8
FRONT
10
0.002592
20
0.923800
30
0.0
11
0.002945
21
0.922934
31
0.0
0
LINE
8
FRONT
10
0.002945
20
0.922934
30
0.0
11
0.003319
21
0.922077
31
0.0
0
LINE
8
FRONT
10
0.003319
20
0.922077
30
0.0
11
0.003714
21
0.921229
31
0.0
0
LINE
8
FRONT
10
0.003714
20
0.921229
30
0.0
11
0.004130
21
0.920392
31
0.0
0
LINE
8
FRONT
10
0.004130
20
0.920392
30
0.0
11
0.004567
21
0.919565
31
0.0
0
LINE
8
FRONT
10
0.004567
20
0.919565
30
0.0
11
0.005024
21
0.918750
31
0.0
0
LINE
8
FRONT
10
0.005024
20
0.918750
30
0.0
11
0.005502
21
0.917946
31
0.0
0
LINE
8
FRONT
10
0.005502
20
0.917946
30
0.0
11
0.005999
21
0.917155
31
0.0
0
LINE
8
FRONT
10
0.005999
20
0.917155
30
0.0
11
0.006516
21
0.916375
31
0.0
0
LINE
8
FRONT
10
0.006516
20
0.916375
30
0.0
11
0.007052
21
0.915610
31
0.0
0
LINE
8
FRONT
10
0.007052
20
0.915610
30
0.0
11
0.007608
21
0.914857
31
0.0
0
LINE
8
FRONT
10
0.007608
20
0.914857
30
0.0
11
0.008181
21
0.914119
31
0.0
0
LINE
8
FRONT
10
0.008181
20
0.914119
30
0.0
11
0.008773
21
0.913395
31
0.0
0
LINE
8
FRONT
10
0.008773
20
0.913395
30
0.0
11
0.009383
21
0.912687
31
0.0
0
LINE
8
FRONT
10
0.009383
20
0.912687
30
0.0
11
0.010011
21
0.911994
31
0.0
0
LINE
8
FRONT
10
0.010011
20
0.911994
30
0.0
11
0.010655
21
0.911316
31
0.0
0
LINE
8
FRONT
10
0.010655
20
0.911316
30
0.0
11
0.011316
21
0.910655
31
0.0
0
LINE
8
FRONT
10
0.011316
20
0.910655
30
0.0
11
0.011994
21
0.910011
31
0.0
0
LINE
8
FRONT
10
0.011994
20
0.910011
30
0.0
11
0.012687
21
0.909383
31
0.0
0
LINE
8
FRONT
10
0.012687
20
0.909383
30
0.0
11
0.013395
21
0.908773
31
0.0
0
LINE
8
FRONT
10
0.013395
20
0.908773
30
0.0
11
0.014119
21
0.908181
31
0.0
0
LINE
8
FRONT
10
0.014119
20
0.908181
30
0.0
11
0.014857
21
0.907608
31
0.0
0
LINE
8
FRONT
10
0.014857
20
0.907608
30
0.0
11
0.015610
21
0.907052
31
0.0
0
LINE
8
FRONT
10
0.015610
20
0.907052
30
0.0
11
0.016375
21
0.906516
31
0.0
0
LINE
8
FRONT
10
0.016375
20
0.906516
30
0.0
11
0.017155
21
0.905999
31
0.0
0
LINE
8
FRONT
10
0.017155
20
0.905999
30
0.0
11
0.017946
21
0.905502
31
0.0
0
LINE
8
FRONT
10
0.017946
20
0.905502
30
0.0
11
0.018750
21
0.905024
31
0.0
0
LINE
8
FRONT
10
0.018750
20
0.905024
30
0.0
11
0.019565
21
0.904567
31
0.0
0
LINE
8
FRONT
10
0.019565
20
0.904567
30
0.0
11
0.020392
21
0.904130
31
0.0
0
LINE
8
FRONT
10
0.020392
20
0.904130
30
0.0
11
0.021229
21
0.903714
31
0.0
0
LINE
8
FRONT
10
0.021229
20
0.903714
30
0.0
11
0.022077
21
0.903319
31
0.0
0
LINE
8
FRONT
10
0.022077
20
0.903319
30
0.0
11
0.022934
21
0.902945
31
0.0
0
LINE
8
FRONT
10
0.022934
20
0.902945
30
0.0
11
0.023800
21
0.902592
31
0.0
0
LINE
8
FRONT
10
0.023800
20
0.902592
30
0.0
11
0.024674
21
0.902262
31
0.0
0
LINE
8
FRONT
10
0.024674
20
0.902262
30
0.0
11
0.025557
21
0.901953
31
0.0
0
LINE
8
FRONT
10
0.025557
20
0.901953
30
0.0
11
0.026447
21
0.901666
31
0.0
0
LINE
8
FRONT
10
0.026447
20
0.901666
30
0.0
11
0.027343
21
0.901402
31
0.0
0
LINE
8
FRONT
10
0.027343
20
0.901402
30
0.0
11
0.028247
21
0.901160
31
0.0
0
LINE
8
FRONT
10
0.028247
20
0.901160
30
0.0
11
0.029155
21
0.900940
31
0.0
0
LINE
8
FRONT
10
0.029155
20
0.900940
30
0.0
11
0.030070
21
0.900744
31
0.0
0
LINE
8
FRONT
10
0.030070
20
0.900744
30
0.0
11
0.030988
21
0.900570
31
0.0
0
LINE
8
FRONT
10
0.030988
20
0.900570
30
0.0
11
0.031911
21
0.900419
31
0.0
0
LINE
8
FRONT
10
0.031911
20
0.900419
30
0.0
11
0.032837
21
0.900291
31
0.0
0
LINE
8
FRONT
10
0.032837
20
0.900291
30
0.0
11
0.033766
21
0.900186
31
0.0
0
LINE
8
FRONT
10
0.033766
20
0.900186
30
0.0
11
0.034698
21
0.900105
31
0.0
0
LINE
8
FRONT
10
0.034698
20
0.900105
30
0.0
11
0.035631
21
0.900047
31
0.0
0
LINE
8
FRONT
10
0.035631
20
0.900047
30
0.0
11
0.036565
21
0.900012
31
0.0
0
LINE
8
FRONT
10
0.036565
20
0.900012
30
0.0
11
0.037500
21
0.900000
31
0.0
0
LINE
8
FRONT
10
0.037500
20
0.900000
30
0.0
11
0.262500
21
0.900000
31
0.0
0
LINE
8
FRONT
10
0.262500
20
0.900000
30
0.0
11
0.263435
21
0.900012
31
0.0
0
LINE
8
FRONT
10
0.263435
20
0.900012
30
0.0
11
0.264369
21
0.900047
31
0.0
0
LINE
8
FRONT
10
0.264369
20
0.900047
30
0.0
11
0.265302
21
0.900105
31
0.0
0
LINE
8
FRONT
10
0.265302
20
0.900105
30
0.0
11
0.266234
21
0.900186
31
0.0
0
LINE
8
FRONT
10
0.266234
20
0.900186
30
0.0
11
0.267163
21
0.900291
31
0.0
0
LINE
8
FRONT
10
0.267163
20
0.900291
30
0.0
11
0.268089
21
0.900419
31
0.0
0
LINE
8
FRONT
10
0.268089
20
0.900419
30
0.0
11
0.269012
21
0.900570
31
0.0
0
LINE
8
FRONT
10
0.269012
20
0.900570
30
0.0
11
0.269930
21
0.900744
31
0.0
0
LINE
8
FRONT
10
0.269930
20
0.900744
30
0.0
11
0.270845
21
0.900940
31
0.0
0
LINE
8
FRONT
10
0.270845
20
0.900940
30
0.0
11
0.271753
21
0.901160
31
0.0
0
LINE
8
FRONT
10
0.271753
20
0.901160
30
0.0
11
0.272657
21
0.901402
31
0.0
0
LINE
8
FRONT
10
0.272657
20
0.901402
30
0.0
11
0.273553
21
0.901666
31
0.0
0
LINE
8
FRONT
10
0.273553
20
0.901666
30
0.0
11
0.274443
21
0.901953
31
0.0
0
LINE
8
FRONT
10
0.274443
20
0.901953
30
0.0
11
0.275326
21
0.902262
31
0.0
0
LINE
8
FRONT
10
0.275326
20
0.902262
30
0.0
11
0.276200
21
0.902592
31
0.0
0
LINE
8
FRONT
10
0.276200
20
0.902592
30
0.0
11
0.277066
21
0.902945
31
0.0
0
LINE
8
FRONT
10
0.277066
20
0.902945
30
0.0
11
0.277923
21
0.903319
31
0.0
0
LINE
8
FRONT
10
0.277923
20
0.903319
30
0.0
11
0.278771
21
0.903714
31
0.0
0
LINE
8
FRONT
10
0.278771
20
0.903714
30
0.0
11
0.279608
21
0.904130
31
0.0
0
LINE
8
FRONT
10
0.279608
20
0.904130
30
0.0
11
0.280435
21
0.904567
31
0.0
0
LINE
8
FRONT
10
0.280435
20
0.904567
30
0.0
11
0.281250
21
0.905024
31
0.0
0
LINE
8
FRONT
10
0.281250
20
0.905024
30
0.0
11
0.282054
21
0.905502
31
0.0
0
LINE
8
FRONT
10
0.282054
20
0.905502
30
0.0
11
0.282845
21
0.905999
31
0.0
0
LINE
8
FRONT
10
0.282845
20
0.905999
30
0.0
11
0.283625
21
0.906516
31
0.0
0
LINE
8
FRONT
10
0.283625
20
0.906516
30
0.0
11
0.284390
21
0.907052
31
0.0
0
LINE
8
FRONT
10
0.284390
20
0.907052
30
0.0
11
0.285143
21
0.907608
31
0.0
0
LINE
8
FRONT
10
0.285143
20
0.907608
30
0.0
11
0.285881
21
0.908181
31
0.0
0
LINE
8
FRONT
10
0.285881
20
0.908181
30
0.0
11
0.286605
21
0.908773
31
0.0
0
LINE
8
FRONT
10
0.286605
20
0.908773
30
0.0
11
0.287313
21
0.909383
31
0.0
0
LINE
8
FRONT
10
0.287313
20
0.909383
30
0.0
11
0.288006
21
0.910011
31
0.0
0
LINE
8
FRONT
10
0.288006
20
0.910011
30
0.0
11
0.288684
21
0.910655
31
0.0
0
LINE
8
FRONT
10
0.288684
20
0.910655
30
0.0
11
0.289345
21
0.911316
31
0.0
0
LINE
8
FRONT
10
0.289345
20
0.911316
30
0.0
11
0.289989
21
0.911994
31
0.0
0
LINE
8
FRONT
10
0.289989
20
0.911994
30
0.0
11
0.290617
21
0.912687
31
0.0
0
LINE
8
FRONT
10
0.290617
20
0.912687
30
0.0
11
0.291227
21
0.913395
31
0.0
0
LINE
8
FRONT
10
0.291227
20
0.913395
30
0.0
11
0.291819
21
0.914119
31
0.0
0
LINE
8
FRONT
10
0.291819
20
0.914119
30
0.0
11
0.292392
21
0.914857
31
0.0
0
LINE
8
FRONT
10
0.292392
20
0.914857
30
0.0
11
0.292948
21
0.915610
31
0.0
0
LINE
8
FRONT
10
0.292948
20
0.915610
30
0.0
11
0.293484
21
0.916375
31
0.0
0
LINE
8
FRONT
10
0.293484
20
0.916375
30
0.0
11
0.294001
21
0.917155
31
0.0
0
LINE
8
FRONT
10
0.294001
20
0.917155
30
0.0
11
0.294498
21
0.917946
31
0.0
0
LINE
8
FRONT
10
0.294498
20
0.917946
30
0.0
11
0.294976
21
0.918750
31
0.0
0
LINE
8
FRONT
10
0.294976
20
0.918750
30
0.0
11
0.295433
21
0.919565
31
0.0
0
LINE
8
FRONT
10
0.295433
20
0.919565
30
0.0
11
0.295870
21
0.920392
31
0.0
0
LINE
8
FRONT
10
0.295870
20
0.920392
30
0.0
11
0.296286
21
0.921229
31
0.0
0
LINE
8
FRONT
10
0.296286
20
0.921229
30
0.0
11
0.296681
21
0.922077
31
0.0
0
LINE
8
FRONT
10
0.296681
20
0.922077
30
0.0
11
0.297055
21
0.922934
31
0.0
0
LINE
8
FRONT
10
0.297055
20
0.922934
30
0.0
11
0.297408
21
0.923800
31
0.0
0
LINE
8
FRONT
10
0.297408
20
0.923800
30
0.0
11
0.297738
21
0.924674
31
0.0
0
LINE
8
FRONT
10
0.297738
20
0.924674
30
0.0
11
0.298047
21
0.925557
31
0.0
0
LINE
8
FRONT
10
0.298047
20
0.925557
30
0.0
11
0.298334
21
0.926447
31
0.0
0
LINE
8
FRONT
10
0.298334
20
0.926447
30
0.0
11
0.298598
21
0.927343
31
0.0
0
LINE
8
FRONT
10
0.298598
20
0.927343
30
0.0
11
0.298840
21
0.928247
31
0.0
0
LINE
8
FRONT
10
0.298840
20
0.928247
30
0.0
11
0.299060
21
0.929155
31
0.0
0
LINE
8
FRONT
10
0.299060
20
0.929155
30
0.0
11
0.299256
21
0.930070
31
0.0
0
LINE
8
FRONT
10
0.299256
20
0.930070
30
0.0
11
0.299430
21
0.930988
31
0.0
0
LINE
8
FRONT
10
0.299430
20
0.930988
30
0.0
11
0.299581
21
0.931911
31
0.0
0
LINE
8
FRONT
10
0.299581
20
0.931911
30
0.0
11
0.299709
21
0.932837
31
0.0
0
LINE
8
FRONT
10
0.299709
20
0.932837
30
0.0
11
0.299814
21
0.933766
31
0.0
0
LINE
8
FRONT
10
0.299814
20
0.933766
30
0.0
11
0.299895
21
0.934698
31
0.0
0
LINE
8
FRONT
10
0.299895
20
0.934698
30
0.0
11
0.299953
21
0.935631
31
0.0
0
LINE
8
FRONT
10
0.299953
20
0.935631
30
0.0
11
0.299988
21
0.936565
31
0.0
0
LINE
8
FRONT
10
0.299988
20
0.936565
30
0.0
11
0.300000
21
0.937500
31
0.0
0
LINE
8
FRONT
10
0.300000
20
0.937500
30
0.0
11
0.300000
21
1.612500
31
0.0
0
LINE
8
FRONT
10
0.300000
20
1.612500
30
0.0
11
0.299988
21
1.613435
31
0.0
0
LINE
8
FRONT
10
0.299988
20
1.613435
30
0.0
11
0.299953
21
1.614369
31
0.0
0
LINE
8
FRONT
10
0.299953
20
1.614369
30
0.0
11
0.299895
21
1.615302
31
0.0
0
LINE
8
FRONT
10
0.299895
20
1.615302
30
0.0
11
0.299814
21
1.616234
31
0.0
0
LINE
8
FRONT
10
0.299814
20
1.616234
30
0.0
11
0.299709
21
1.617163
31
0.0
0
LINE
8
FRONT
10
0.299709
20
1.617163
30
0.0
11
0.299581
21
1.618089
31
0.0
0
LINE
8
FRONT
10
0.299581
20
1.618089
30
0.0
11
0.299430
21
1.619012
31
0.0
0
LINE
8
FRONT
10
0.299430
20
1.619012
30
0.0
11
0.299256
21
1.619930
31
0.0
0
LINE
8
FRONT
10
0.299256
20
1.619930
30
0.0
11
0.299060
21
1.620845
31
0.0
0
LINE
8
FRONT
10
0.299060
20
1.620845
30
0.0
11
0.298840
21
1.621753
31
0.0
0
LINE
8
FRONT
10
0.298840
20
1.621753
30
0.0
11
0.298598
21
1.622657
31
0.0
0
LINE
8
FRONT
10
0.298598
20
1.622657
30
0.0
11
0.298334
21
1.623553
31
0.0
0
LINE
8
FRONT
10
0.298334
20
1.623553
30
0.0
11
0.298047
21
1.624443
31
0.0
0
LINE
8
FRONT
10
0.298047
20
1.624443
30
0.0
11
0.297738
21
1.625326
31
0.0
0
LINE
8
FRONT
10
0.297738
20
1.625326
30
0.0
11
0.297408
21
1.626200
31
0.0
0
LINE
8
FRONT
10
0.297408
20
1.626200
30
0.0
11
0.297055
21
1.627066
31
0.0
0
LINE
8
FRONT
10
0.297055
20
1.627066
30
0.0
11
0.296681
21
1.627923
31
0.0
0
LINE
8
FRONT
10
0.296681
20
1.627923
30
0.0
11
0.296286
21
1.628771
31
0.0
0
LINE
8
FRONT
10
0.296286
20
1.628771
30
0.0
11
0.295870
21
1.629608
31
0.0
0
LINE
8
FRONT
10
0.295870
20
1.629608
30
0.0
11
0.295433
21
1.630435
31
0.0
0
LINE
8
FRONT
10
0.295433
20
1.630435
30
0.0
11
0.294976
21
1.631250
31
0.0
0
LINE
8
FRONT
10
0.294976
20
1.631250
30
0.0
11
0.294498
21
1.632054
31
0.0
0
LINE
8
FRONT
10
0.294498
20
1.632054
30
0.0
11
0.294001
21
1.632845
31
0.0
0
LINE
8
FRONT
10
0.294001
20
1.632845
30
0.0
11
0.293484
21
1.633625
31
0.0
0
LINE
8
FRONT
10
0.293484
20
1.633625
30
0.0
11
0.292948
21
1.634390
31
0.0
0
LINE
8
FRONT
10
0.292948
20
1.634390
30
0.0
11
0.292392
21
1.635143
31
0.0
0
LINE
8
FRONT
10
0.292392
20
1.635143
30
0.0
11
0.291819
21
1.635881
31
0.0
0
LINE
8
FRONT
10
0.291819
20
1.635881
30
0.0
11
0.291227
21
1.636605
31
0.0
0
LINE
8
FRONT
10
0.291227
20
1.636605
30
0.0
11
0.290617
21
1.637313
31
0.0
0
LINE
8
FRONT
10
0.290617
20
1.637313
30
0.0
11
0.289989
21
1.638006
31
0.0
0
LINE
8
FRONT
10
0.289989
20
1.638006
30
0.0
11
0.289345
21
1.638684
31
0.0
0
LINE
8
FRONT
10
0.289345
20
1.638684
30
0.0
11
0.288684
21
1.639345
31
0.0
0
LINE
8
FRONT
10
0.288684
20
1.639345
30
0.0
11
0.288006
21
1.639989
31
0.0
0
LINE
8
FRONT
10
0.288006
20
1.639989
30
0.0
11
0.287313
21
1.640617
31
0.0
0
LINE
8
FRONT
10
0.287313
20
1.640617
30
0.0
11
0.286605
21
1.641227
31
0.0
0
LINE
8
FRONT
10
0.286605
20
1.641227
30
0.0
11
0.285881
21
1.641819
31
0.0
0
LINE
8
FRONT
10
0.285881
20
1.641819
30
0.0
11
0.285143
21
1.642392
31
0.0
0
LINE
8
FRONT
10
0.285143
20
1.642392
30
0.0
11
0.284390
21
1.642948
31
0.0
0
LINE
8
FRONT
10
0.284390
20
1.642948
30
0.0
11
0.283625
21
1.643484
31
0.0
0
LINE
8
FRONT
10
0.283625
20
1.643484
30
0.0
11
0.282845
21
1.644001
31
0.0
0
LINE
8
FRONT
10
0.282845
20
1.644001
30
0.0
11
0.282054
21
1.644498
31
0.0
0
LINE
8
FRONT
10
0.282054
20
1.644498
30
0.0
11
0.281250
21
1.644976
31
0.0
0
LINE
8
FRONT
10
0.281250
20
1.644976
30
0.0
11
0.280435
21
1.645433
31
0.0
0
LINE
8
FRONT
10
0.280435
20
1.645433
30
0.0
11
0.279608
21
1.645870
31
0.0
0
LINE
8
FRONT
10
0.279608
20
1.645870
30
0.0
11
0.278771
21
1.646286
31
0.0
0
LINE
8
FRONT
10
0.278771
20
1.646286
30
0.0
11
0.277923
21
1.646681
31
0.0
0
LINE
8
FRONT
10
0.277923
20
1.646681
30
0.0
11
0.277066
21
1.647055
31
0.0
0
LINE
8
FRONT
10
0.277066
20
1.647055
30
0.0
11
0.276200
21
1.647408
31
0.0
0
LINE
8
FRONT
10
0.276200
20
1.647408
30
0.0
11
0.275326
21
1.647738
31
0.0
0
LINE
8
FRONT
10
0.275326
20
1.647738
30
0.0
11
0.274443
21
1.648047
31
0.0
0
LINE
8
FRONT
10
0.274443
20
1.648047
30
0.0
11
0.273553
21
1.648334
31
0.0
0
LINE
8
FRONT
10
0.273553
20
1.648334
30
0.0
11
0.272657
21
1.648598
31
0.0
0
LINE
8
FRONT
10
0.272657
20
1.648598
30
0.0
11
0.271753
21
1.648840
31
0.0
0
LINE
8
FRONT
10
0.271753
20
1.648840
30
0.0
11
0.270845
21
1.649060
31
0.0
0
LINE
8
FRONT
10
0.270845
20
1.649060
30
0.0
11
0.269930
21
1.649256
31
0.0
0
LINE
8
FRONT
10
0.269930
20
1.649256
30
0.0
11
0.269012
21
1.649430
31
0.0
0
LINE
8
FRONT
10
0.269012
20
1.649430
30
0.0
11
0.268089
21
1.649581
31
0.0
0
LINE
8
FRONT
10
0.268089
20
1.649581
30
0.0
11
0.267163
21
1.649709
31
0.0
0
LINE
8
FRONT
10
0.267163
20
1.649709
30
0.0
11
0.266234
21
1.649814
31
0.0
0
LINE
8
FRONT
10
0.266234
20
1.649814
30
0.0
11
0.265302
21
1.649895
31
0.0
0
LINE
8
FRONT
10
0.265302
20
1.649895
30
0.0
11
0.264369
21
1.649953
31
0.0
0
LINE
8
FRONT
10
0.264369
20
1.649953
30
0.0
11
0.263435
21
1.649988
31
0.0
0
LINE
8
FRONT
10
0.263435
20
1.649988
30
0.0
11
0.262500
21
1.650000
31
0.0
0
LINE
8
FRONT
10
0.262500
20
1.650000
30
0.0
11
0.037500
21
1.650000
31
0.0
0
LINE
8
FRONT
10
0.037500
20
1.650000
30
0.0
11
0.036565
21
1.649988
31
0.0
0
LINE
8
FRONT
10
0.036565
20
1.649988
30
0.0
11
0.035631
21
1.649953
31
0.0
0
LINE
8
FRONT
10
0.035631
20
1.649953
30
0.0
11
0.034698
21
1.649895
31
0.0
0
LINE
8
FRONT
10
0.034698
20
1.649895
30
0.0
11
0.033766
21
1.649814
31
0.0
0
LINE
8
FRONT
10
0.033766
20
1.649814
30
0.0
11
0.032837
21
1.649709
31
0.0
0
LINE
8
FRONT
10
0.032837
20
1.649709
30
0.0
11
0.031911
21
1.649581
31
0.0
0
LINE
8
FRONT
10
0.031911
20
1.649581
30
0.0
11
0.030988
21
1.649430
31
0.0
0
LINE
8
FRONT
10
0.030988
20
1.649430
30
0.0
11
0.030070
21
1.649256
31
0.0
0
LINE
8
FRONT
10
0.030070
20
1.649256
30
0.0
11
0.029155
21
1.649060
31
0.0
0
LINE
8
FRONT
10
0.029155
20
1.649060
30
0.0
11
0.028247
21
1.648840
31
0.0
0
LINE
8
FRONT
10
0.028247
20
1.648840
30
0.0
11
0.027343
21
1.648598
31
0.0
0
LINE
8
FRONT
10
0.027343
20
1.648598
30
0.0
11
0.026447
21
1.648334
31
0.0
0
LINE
8
FRONT
10
0.026447
20
1.648334
30
0.0
11
0.025557
21
1.648047
31
0.0
0
LINE
8
FRONT
10
0.025557
20
1.648047
30
0.0
11
0.024674
21
1.647738
31
0.0
0
LINE
8
FRONT
10
0.024674
20
1.647738
30
0.0
11
0.023800
21
1.647408
31
0.0
0
LINE
8
FRONT
10
0.023800
20
1.647408
30
0.0
11
0.022934
21
1.647055
31
0.0
0
LINE
8
FRONT
10
0.022934
20
1.647055
30
0.0
11
0.022077
21
1.646681
31
0.0
0
LINE
8
FRONT
10
0.022077
20
1.646681
30
0.0
11
0.021229
21
1.646286
31
0.0
0
LINE
8
FRONT
10
0.021229
20
1.646286
30
0.0
11
0.020392
21
1.645870
31
0.0
0
LINE
8
FRONT
10
0.020392
20
1.645870
30
0.0
11
0.019565
21
1.645433
31
0.0
0
LINE
8
FRONT
10
0.019565
20
1.645433
30
0.0
11
0.018750
21
1.644976
31
0.0
0
LINE
8
FRONT
10
0.018750
20
1.644976
30
0.0
11
0.017946
21
1.644498
31
0.0
0
LINE
8
FRONT
10
0.017946
20
1.644498
30
0.0
11
0.017155
21
1.644001
31
0.0
0
LINE
8
FRONT
10
0.017155
20
1.644001
30
0.0
11
0.016375
21
1.643484
31
0.0
0
LINE
8
FRONT
10
0.016375
20
1.643484
30
0.0
11
0.015610
21
1.642948
31
0.0
0
LINE
8
FRONT
10
0.015610
20
1.642948
30
0.0
11
0.014857
21
1.642392
31
0.0
0
LINE
8
FRONT
10
0.014857
20
1.642392
30
0.0
11
0.014119
21
1.641819
31
0.0
0
LINE
8
FRONT
10
0.014119
20
1.641819
30
0.0
11
0.013395
21
1.641227
31
0.0
0
LINE
8
FRONT
10
0.013395
20
1.641227
30
0.0
11
0.012687
21
1.640617
31
0.0
0
LINE
8
FRONT
10
0.012687
20
1.640617
30
0.0
11
0.011994
21
1.639989
31
0.0
0
LINE
8
FRONT
10
0.011994
20
1.639989
30
0.0
11
0.011316
21
1.639345
31
0.0
0
LINE
8
FRONT
10
0.011316
20
1.639345
30
0.0
11
0.010655
21
1.638684
31
0.0
0
LINE
8
FRONT
10
0.010655
20
1.638684
30
0.0
11
0.010011
21
1.638006
31
0.0
0
LINE
8
FRONT
10
0.010011
20
1.638006
30
0.0
11
0.009383
21
1.637313
31
0.0
0
LINE
8
FRONT
10
0.009383
20
1.637313
30
0.0
11
0.008773
21
1.636605
31
0.0
0
LINE
8
FRONT
10
0.008773
20
1.636605
30
0.0
11
0.008181
21
1.635881
31
0.0
0
LINE
8
FRONT
10
0.008181
20
1.635881
30
0.0
11
0.007608
21
1.635143
31
0.0
0
LINE
8
FRONT
10
0.007608
20
1.635143
30
0.0
11
0.007052
21
1.634390
31
0.0
0
LINE
8
FRONT
10
0.007052
20
1.634390
30
0.0
11
0.006516
21
1.633625
31
0.0
0
LINE
8
FRONT
10
0.006516
20
1.633625
30
0.0
11
0.005999
21
1.632845
31
0.0
0
LINE
8
FRONT
10
0.005999
20
1.632845
30
0.0
11
0.005502
21
1.632054
31
0.0
0
LINE
8
FRONT
10
0.005502
20
1.632054
30
0.0
11
0.005024
21
1.631250
31
0.0
0
LINE
8
FRONT
10
0.005024
20
1.631250
30
0.0
11
0.004567
21
1.630435
31
0.0
0
LINE
8
FRONT
10
0.004567
20
1.630435
30
0.0
11
0.004130
21
1.629608
31
0.0
0
LINE
8
FRONT
10
0.004130
20
1.629608
30
0.0
11
0.003714
21
1.628771
31
0.0
0
LINE
8
FRONT
10
0.003714
20
1.628771
30
0.0
11
0.003319
21
1.627923
31
0.0
0
LINE
8
FRONT
10
0.003319
20
1.627923
30
0.0
11
0.002945
21
1.627066
31
0.0
0
LINE
8
FRONT
10
0.002945
20
1.627066
30
0.0
11
0.002592
21
1.626200
31
0.0
0
LINE
8
FRONT
10
0.002592
20
1.626200
30
0.0
11
0.002262
21
1.625326
31
0.0
0
LINE
8
FRONT
10
0.002262
20
1.625326
30
0.0
11
0.001953
21
1.624443
31
0.0
0
LINE
8
FRONT
10
0.001953
20
1.624443
30
0.0
11
0.001666
21
1.623553
31
0.0
0
LINE
8
FRONT
10
0.001666
20
1.623553
30
0.0
11
0.001402
21
1.622657
31
0.0
0
LINE
8
FRONT
10
0.001402
20
1.622657
30
0.0
11
0.001160
21
1.621753
31
0.0
0
LINE
8
FRONT
10
0.001160
20
1.621753
30
0.0
11
0.000940
21
1.620845
31
0.0
0
LINE
8
FRONT
10
0.000940
20
1.620845
30
0.0
11
0.000744
21
1.619930
31
0.0
0
LINE
8
FRONT
10
0.000744
20
1.619930
30
0.0
11
0.000570
21
1.619012
31
0.0
0
LINE
8
FRONT
10
0.000570
20
1.619012
30
0.0
11
0.000419
21
1.618089
31
0.0
0
LINE
8
FRONT
10
0.000419
20
1.618089
30
0.0
11
0.000291
21
1.617163
31
0.0
0
LINE
8
FRONT
10
0.000291
20
1.617163
30
0.0
11
0.000186
21
1.616234
31
0.0
0
LINE
8
FRONT
10
0.000186
20
1.616234
30
0.0
11
0.000105
21
1.615302
31
0.0
0
LINE
8
FRONT
10
0.000105
20
1.615302
30
0.0
11
0.000047
21
1.614369
31
0.0
0
LINE
8
FRONT
10
0.000047
20
1.614369
30
0.0
11
0.000012
21
1.613435
31
0.0
0
LINE
8
FRONT
10
0.000012
20
1.613435
30
0.0
11
0.000000
21
1.612500
31
0.0
0
LINE
8
FRONT
10
0.000000
20
1.612500
30
0.0
11
0.000000
21
0.937500
31
0.0
0
LINE
8
FRONT
10
0.018750
20
0.937500
30
0.0
11
0.018756
21
0.937033
31
0.0
0
LINE
8
FRONT
10
0.018756
20
0.937033
30
0.0
11
0.018773
21
0.936565
31
0.0
0
LINE
8
FRONT
10
0.018773
20
0.936565
30
0.0
11
0.018802
21
0.936099
31
0.0
0
LINE
8
FRONT
10
0.018802
20
0.936099
30
0.0
11
0.018843
21
0.935633
31
0.0
0
LINE
8
FRONT
10
0.018843
20
0.935633
30
0.0
11
0.018896
21
0.935169
31
0.0
0
LINE
8
FRONT
10
0.018896
20
0.935169
30
0.0
11
0.018959
21
0.934705
31
0.0
0
LINE
8
FRONT
10
0.018959
20
0.934705
30
0.0
11
0.019035
21
0.934244
31
0.0
0
LINE
8
FRONT
10
0.019035
20
0.934244
30
0.0
11
0.019122
21
0.933785
31
0.0
0
LINE
8
FRONT
10
0.019122
20
0.933785
30
0.0
11
0.019220
21
0.933328
31
0.0
0
LINE
8
FRONT
10
0.019220
20
0.933328
30
0.0
11
0.019330
21
0.932873
31
0.0
0
LINE
8
FRONT
10
0.019330
20
0.932873
30
0.0
11
0.019451
21
0.932422
31
0.0
0
LINE
8
FRONT
10
0.019451
20
0.932422
30
0.0
11
0.019583
21
0.931973
31
0.0
0
LINE
8
FRONT
10
0.019583
20
0.931973
30
0.0
11
0.019726
21
0.931528
31
0.0
0
LINE
8
FRONT
10
0.019726
20
0.931528
30
0.0
11
0.019881
21
0.931087
31
0.0
0
LINE
8
FRONT
10
0.019881
20
0.931087
30
0.0
11
0.020046
21
0.930650
31
0.0
0
LINE
8
FRONT
10
0.020046
20
0.930650
30
0.0
11
0.020222
21
0.930217
31
0.0
0
LINE
8
FRONT
10
0.020222
20
0.930217
30
0.0
11
0.020409
21
0.929788
31
0.0
0
LINE
8
FRONT
10
0.020409
20
0.929788
30
0.0
11
0.020607
21
0.929365
31
0.0
0
LINE
8
FRONT
10
0.020607
20
0.929365
30
0.0
11
0.020815
21
0.928946
31
0.0
0
LINE
8
FRONT
10
0.020815
20
0.928946
30
0.0
11
0.021033
21
0.928533
31
0.0
0
LINE
8
FRONT
10
0.021033
20
0.928533
30
0.0
11
0.021262
21
0.928125
31
0.0
0
LINE
8
FRONT
10
0.021262
20
0.928125
30
0.0
11
0.021501
21
0.927723
31
0.0
0
LINE
8
FRONT
10
0.021501
20
0.927723
30
0.0
11
0.021750
21
0.927327
31
0.0
0
LINE
8
FRONT
10
0.021750
20
0.927327
30
0.0
11
0.022008
21
0.926938
31
0.0
0
LINE
8
FRONT
10
0.022008
20
0.926938
30
0.0
11
0.022276
21
0.926555
31
0.0
0
LINE
8
FRONT
10
0.022276
20
0.926555
30
0.0
11
0.022554
21
0.926179
31
0.0
0
LINE
8
FRONT
10
0.022554
20
0.926179
30
0.0
11
0.022841
21
0.925810
31
0.0
0
LINE
8
FRONT
10
0.022841
20
0.925810
30
0.0
11
0.023137
21
0.925448
31
0.0
0
LINE
8
FRONT
10
0.023137
20
0.925448
30
0.0
11
0.023442
21
0.925093
31
0.0
0
LINE
8
FRONT
10
0.023442
20
0.925093
30
0.0
11
0.023755
21
0.924747
31
0.0
0
LINE
8
FRONT
10
0.023755
20
0.924747
30
0.0
11
0.024077
21
0.924408
31
0.0
0
LINE
8
FRONT
10
0.024077
20
0.924408
30
0.0
11
0.024408
21
0.924077
31
0.0
0
LINE
8
FRONT
10
0.024408
20
0.924077
30
0.0
11
0.024747
21
0.923755
31
0.0
0
LINE
8
FRONT
10
0.024747
20
0.923755
30
0.0
11
0.025093
21
0.923442
31
0.0
0
LINE
8
FRONT
10
0.025093
20
0.923442
30
0.0
11
0.025448
21
0.923137
31
0.0
0
LINE
8
FRONT
10
0.025448
20
0.923137
30
0.0
11
0.025810
21
0.922841
31
0.0
0
LINE
8
FRONT
10
0.025810
20
0.922841
30
0.0
11
0.026179
21
0.922554
31
0.0
0
LINE
8
FRONT
10
0.026179
20
0.922554
30
0.0
11
0.026555
21
0.922276
31
0.0
0
LINE
8
FRONT
10
0.026555
20
0.922276
30
0.0
11
0.026938
21
0.922008
31
0.0
0
LINE
8
FRONT
10
0.026938
20
0.922008
30
0.0
11
0.027327
21
0.921750
31
0.0
0
LINE
8
FRONT
10
0.027327
20
0.921750
30
0.0
11
0.027723
21
0.921501
31
0.0
0
LINE
8
FRONT
10
0.027723
20
0.921501
30
0.0
11
0.028125
21
0.921262
31
0.0
0
LINE
8
FRONT
10
0.028125
20
0.921262
30
0.0
11
0.028533
21
0.921033
31
0.0
0
LINE
8
FRONT
10
0.028533
20
0.921033
30
0.0
11
0.028946
21
0.920815
31
0.0
0
LINE
8
FRONT
10
0.028946
20
0.920815
30
0.0
11
0.029365
21
0.920607
31
0.0
0
LINE
8
FRONT
10
0.029365
20
0.920607
30
0.0
11
0.029788
21
0.920409
31
0.0
0
LINE
8
FRONT
10
0.029788
20
0.920409
30
0.0
11
0.030217
21
0.920222
31
0.0
0
LINE
8
FRONT
10
0.030217
20
0.920222
30
0.0
11
0.030650
21
0.920046
31
0.0
0
LINE
8
FRONT
10
0.030650
20
0.920046
30
0.0
11
0.031087
21
0.919881
31
0.0
0
LINE
8
FRONT
10
0.031087
20
0.919881
30
0.0
11
0.031528
21
0.919726
31
0.0
0
LINE
8
FRONT
10
0.031528
20
0.919726
30
0.0
11
0.031973
21
0.919583
31
0.0
0
LINE
8
FRONT
10
0.031973
20
0.919583
30
0.0
11
0.032422
21
0.919451
31
0.0
0
LINE
8
FRONT
10
0.032422
20
0.919451
30
0.0
11
0.032873
21
0.919330
31
0.0
0
LINE
8
FRONT
10
0.032873
20
0.919330
30
0.0
11
0.033328
21
0.919220
31
0.0
0
LINE
8
FRONT
10
0.033328
20
0.919220
30
0.0
11
0.033785
21
0.919122
31
0.0
0
LINE
8
FRONT
10
0.033785
20
0.919122
30
0.0
11
0.034244
21
0.919035
31
0.0
0
LINE
8
FRONT
10
0.034244
20
0.919035
30
0.0
11
0.034705
21
0.918959
31
0.0
0
LINE
8
FRONT
10
0.034705
20
0.918959
30
0.0
11
0.035169
21
0.918896
31
0.0
0
LINE
8
FRONT
10
0.035169
20
0.918896
30
0.0
11
0.035633
21
0.918843
31
0.0
0
LINE
8
FRONT
10
0.035633
20
0.918843
30
0.0
11
0.036099
21
0.918802
31
0.0
0
LINE
8
FRONT
10
0.036099
20
0.918802
30
0.0
11
0.036565
21
0.918773
31
0.0
0
LINE
8
FRONT
10
0.036565
20
0.918773
30
0.0
11
0.037033
21
0.918756
31
0.0
0
LINE
8
FRONT
10
0.037033
20
0.918756
30
0.0
11
0.037500
21
0.918750
31
0.0
0
LINE
8
FRONT
10
0.037500
20
0.918750
30
0.0
11
0.262500
21
0.918750
31
0.0
0
LINE
8
FRONT
10
0.262500
20
0.918750
30
0.0
11
0.262967
21
0.918756
31
0.0
0
LINE
8
FRONT
10
0.262967
20
0.918756
30
0.0
11
0.263435
21
0.918773
31
0.0
0
LINE
8
FRONT
10
0.263435
20
0.918773
30
0.0
11
0.263901
21
0.918802
31
0.0
0
LINE
8
FRONT
10
0.263901
20
0.918802
30
0.0
11
0.264367
21
0.918843
31
0.0
0
LINE
8
FRONT
10
0.264367
20
0.918843
30
0.0
11
0.264831
21
0.918896
31
0.0
0
LINE
8
FRONT
10
0.264831
20
0.918896
30
0.0
11
0.265295
21
0.918959
31
0.0
0
LINE
8
FRONT
10
0.265295
20
0.918959
30
0.0
11
0.265756
21
0.919035
31
0.0
0
LINE
8
FRONT
10
0.265756
20
0.919035
30
0.0
11
0.266215
21
0.919122
31
0.0
0
LINE
8
FRONT
10
0.266215
20
0.919122
30
0.0
11
0.266672
21
0.919220
31
0.0
0
LINE
8
FRONT
10
0.266672
20
0.919220
30
0.0
11
0.267127
21
0.919330
31
0.0
0
LINE
8
FRONT
10
0.267127
20
0.919330
30
0.0
11
0.267578
21
0.919451
31
0.0
0
LINE
8
FRONT
10
0.267578
20
0.919451
30
0.0
11
0.268027
21
0.919583
31
0.0
0
LINE
8
FRONT
10
0.268027
20
0.919583
30
0.0
11
0.268472
21
0.919726
31
0.0
0
LINE
8
FRONT
10
0.268472
20
0.919726
30
0.0
11
0.268913
21
0.919881
31
0.0
0
LINE
8
FRONT
10
0.268913
20
0.919881
30
0.0
11
0.269350
21
0.920046
31
0.0
0
LINE
8
FRONT
10
0.269350
20
0.920046
30
0.0
11
0.269783
21
0.920222
31
0.0
0
LINE
8
FRONT
10
0.269783
20
0.920222
30
0.0
11
0.270212
21
0.920409
31
0.0
0
LINE
8
FRONT
10
0.270212
20
0.920409
30
0.0
11
0.270635
21
0.920607
31
0.0
0
LINE
8
FRONT
10
0.270635
20
0.920607
30
0.0
11
0.271054
21
0.920815
31
0.0
0
LINE
8
FRONT
10
0.271054
20
0.920815
30
0.0
11
0.271467
21
0.921033
31
0.0
0
LINE
8
FRONT
10
0.271467
20
0.921033
30
0.0
11
0.271875
21
0.921262
31
0.0
0
LINE
8
FRONT
10
0.271875
20
0.921262
30
0.0
11
0.272277
21
0.921501
31
0.0
0
LINE
8
FRONT
10
0.272277
20
0.921501
30
0.0
11
0.272673
21
0.921750
31
0.0
0
LINE
8
FRONT
10
0.272673
20
0.921750
30
0.0
11
0.273062
21
0.922008
31
0.0
0
LINE
8
FRONT
10
0.273062
20
0.922008
30
0.0
11
0.273445
21
0.922276
31
0.0
0
LINE
8
FRONT
10
0.273445
20
0.922276
30
0.0
11
0.273821
21
0.922554
31
0.0
0
LINE
8
FRONT
10
0.273821
20
0.922554
30
0.0
11
0.274190
21
0.922841
31
0.0
0
LINE
8
FRONT
10
0.274190
20
0.922841
30
0.0
11
0.274552
21
0.923137
31
0.0
0
LINE
8
FRONT
10
0.274552
20
0.923137
30
0.0
11
0.274907
21
0.923442
31
0.0
0
LINE
8
FRONT
10
0.274907
20
0.923442
30
0.0
11
0.275253
21
0.923755
31
0.0
0
LINE
8
FRONT
10
0.275253
20
0.923755
30
0.0
11
0.275592
21
0.924077
31
0.0
0
LINE
8
FRONT
10
0.275592
20
0.924077
30
0.0
11
0.275923
21
0.924408
31
0.0
0
LINE
8
FRONT
10
0.275923
20
0.924408
30
0.0
11
0.276245
21
0.924747
31
0.0
0
LINE
8
FRONT
10
0.276245
20
0.924747
30
0.0
11
0.276558
21
0.925093
31
0.0
0
LINE
8
FRONT
10
0.276558
20
0.925093
30
0.0
11
0.276863
21
0.925448
31
0.0
0
LINE
8
FRONT
10
0.276863
20
0.925448
30
0.0
11
0.277159
21
0.925810
31
0.0
0
LINE
8
FRONT
10
0.277159
20
0.925810
30
0.0
11
0.277446
21
0.926179
31
0.0
0
LINE
8
FRONT
10
0.277446
20
0.926179
30
0.0
11
0.277724
21
0.926555
31
0.0
0
LINE
8
FRONT
10
0.277724
20
0.926555
30
0.0
11
0.277992
21
0.926938
31
0.0
0
LINE
8
FRONT
10
0.277992
20
0.926938
30
0.0
11
0.278250
21
0.927327
31
0.0
0
LINE
8
FRONT
10
0.278250
20
0.927327
30
0.0
11
0.278499
21
0.927723
31
0.0
0
LINE
8
FRONT
10
0.278499
20
0.927723
30
0.0
11
0.278738
21
0.928125
31
0.0
0
LINE
8
FRONT
10
0.278738
20
0.928125
30
0.0
11
0.278967
21
0.928533
31
0.0
0
LINE
8
FRONT
10
0.278967
20
0.928533
30
0.0
11
0.279185
21
0.928946
31
0.0
0
LINE
8
FRONT
10
0.279185
20
0.928946
30
0.0
11
0.279393
21
0.929365
31
0.0
0
LINE
8
FRONT
10
0.279393
20
0.929365
30
0.0
11
0.279591
21
0.929788
31
0.0
0
LINE
8
FRONT
10
0.279591
20
0.929788
30
0.0
11
0.279778
21
0.930217
31
0.0
0
LINE
8
FRONT
10
0.279778
20
0.930217
30
0.0
11
0.279954
21
0.930650
31
0.0
0
LINE
8
FRONT
10
0.279954
20
0.930650
30
0.0
11
0.280119
21
0.931087
31
0.0
0
LINE
8
FRONT
10
0.280119
20
0.931087
30
0.0
11
0.280274
21
0.931528
31
0.0
0
LINE
8
FRONT
10
0.280274
20
0.931528
30
0.0
11
0.280417
21
0.931973
31
0.0
0
LINE
8
FRONT
10
0.280417
20
0.931973
30
0.0
11
0.280549
21
0.932422
31
0.0
0
LINE
8
FRONT
10
0.280549
20
0.932422
30
0.0
11
0.280670
21
0.932873
31
0.0
0
LINE
8
FRONT
10
0.280670
20
0.932873
30
0.0
11
0.280780
21
0.933328
31
0.0
0
LINE
8
FRONT
10
0.280780
20
0.933328
30
0.0
11
0.280878
21
0.933785
31
0.0
0
LINE
8
FRONT
10
0.280878
20
0.933785
30
0.0
11
0.280965
21
0.934244
31
0.0
0
LINE
8
FRONT
10
0.280965
20
0.934244
30
0.0
11
0.281041
21
0.934705
31
0.0
0
LINE
8
FRONT
10
0.281041
20
0.934705
30
0.0
11
0.281104
21
0.935169
31
0.0
0
LINE
8
FRONT
10
0.281104
20
0.935169
30
0.0
11
0.281157
21
0.935633
31
0.0
0
LINE
8
FRONT
10
0.281157
20
0.935633
30
0.0
11
0.281198
21
0.936099
31
0.0
0
LINE
8
FRONT
10
0.281198
20
0.936099
30
0.0
11
0.281227
21
0.936565
31
0.0
0
LINE
8
FRONT
10
0.281227
20
0.936565
30
0.0
11
0.281244
21
0.937033
31
0.0
0
LINE
8
FRONT
10
0.281244
20
0.937033
30
0.0
11
0.281250
21
0.937500
31
0.0
0
LINE
8
FRONT
10
0.281250
20
0.937500
30
0.0
11
0.281250
21
1.612500
31
0.0
0
LINE
8
FRONT
10
0.281250
20
1.612500
30
0.0
11
0.281244
21
1.612967
31
0.0
0
LINE
8
FRONT
10
0.281244
20
1.612967
30
0.0
11
0.281227
21
1.613435
31
0.0
0
LINE
8
FRONT
10
0.281227
20
1.613435
30
0.0
11
0.281198
21
1.613901
31
0.0
0
LINE
8
FRONT
10
0.281198
20
1.613901
30
0.0
11
0.281157
21
1.614367
31
0.0
0
LINE
8
FRONT
10
0.281157
20
1.614367
30
0.0
11
0.281104
21
1.614831
31
0.0
0
LINE
8
FRONT
10
0.281104
20
1.614831
30
0.0
11
0.281041
21
1.615295
31
0.0
0
LINE
8
FRONT
10
0.281041
20
1.615295
30
0.0
11
0.280965
21
1.615756
31
0.0
0
LINE
8
FRONT
10
0.280965
20
1.615756
30
0.0
11
0.280878
21
1.616215
31
0.0
0
LINE
8
FRONT
10
0.280878
20
1.616215
30
0.0
11
0.280780
21
1.616672
31
0.0
0
LINE
8
FRONT
10
0.280780
20
1.616672
30
0.0
11
0.280670
21
1.617127
31
0.0
0
LINE
8
FRONT
10
0.280670
20
1.617127
30
0.0
11
0.280549
21
1.617578
31
0.0
0
LINE
8
FRONT
10
0.280549
20
1.617578
30
0.0
11
0.280417
21
1.618027
31
0.0
0
LINE
8
FRONT
10
0.280417
20
1.618027
30
0.0
11
0.280274
21
1.618472
31
0.0
0
LINE
8
FRONT
10
0.280274
20
1.618472
30
0.0
11
0.280119
21
1.618913
31
0.0
0
LINE
8
FRONT
10
0.280119
20
1.618913
30
0.0
11
0.279954
21
1.619350
31
0.0
0
LINE
8
FRONT
10
0.279954
20
1.619350
30
0.0
11
0.279778
21
1.619783
31
0.0
0
LINE
8
FRONT
10
0.279778
20
1.619783
30
0.0
11
0.279591
21
1.620212
31
0.0
0
LINE
8
FRONT
10
0.279591
20
1.620212
30
0.0
11
0.279393
21
1.620635
31
0.0
0
LINE
8
FRONT
10
0.279393
20
1.620635
30
0.0
11
0.279185
21
1.621054
31
0.0
0
LINE
8
FRONT
10
0.279185
20
1.621054
30
0.0
11
0.278967
21
1.621467
31
0.0
0
LINE
8
FRONT
10
0.278967
20
1.621467
30
0.0
11
0.278738
21
1.621875
31
0.0
0
LINE
8
FRONT
10
0.278738
20
1.621875
30
0.0
11
0.278499
21
1.622277
31
0.0
0
LINE
8
FRONT
10
0.278499
20
1.622277
30
0.0
11
0.278250
21
1.622673
31
0.0
0
LINE
8
FRONT
10
0.278250
20
1.622673
30
0.0
11
0.277992
21
1.623062
31
0.0
0
LINE
8
FRONT
10
0.277992
20
1.623062
30
0.0
11
0.277724
21
1.623445
31
0.0
0
LINE
8
FRONT
10
0.277724
20
1.623445
30
0.0
11
0.277446
21
1.623821
31
0.0
0
LINE
8
FRONT
10
0.277446
20
1.623821
30
0.0
11
0.277159
21
1.624190
31
0.0
0
LINE
8
FRONT
10
0.277159
20
1.624190
30
0.0
11
0.276863
21
1.624552
31
0.0
0
LINE
8
FRONT
10
0.276863
20
1.624552
30
0.0
11
0.276558
21
1.624907
31
0.0
0
LINE
8
FRONT
10
0.276558
20
1.624907
30
0.0
11
0.276245
21
1.625253
31
0.0
0
LINE
8
FRONT
10
0.276245
20
1.625253
30
0.0
11
0.275923
21
1.625592
31
0.0
0
LINE
8
FRONT
10
0.275923
20
1.625592
30
0.0
11
0.275592
21
1.625923
31
0.0
0
LINE
8
FRONT
10
0.275592
20
1.625923
30
0.0
11
0.275253
21
1.626245
31
0.0
0
LINE
8
FRONT
10
0.275253
20
1.626245
30
0.0
11
0.274907
21
1.626558
31
0.0
0
LINE
8
FRONT
10
0.274907
20
1.626558
30
0.0
11
0.274552
21
1.626863
31
0.0
0
LINE
8
FRONT
10
0.274552
20
1.626863
30
0.0
11
0.274190
21
1.627159
31
0.0
0
LINE
8
FRONT
10
0.274190
20
1.627159
30
0.0
11
0.273821
21
1.627446
31
0.0
0
LINE
8
FRONT
10
0.273821
20
1.627446
30
0.0
11
0.273445
21
1.627724
31
0.0
0
LINE
8
FRONT
10
0.273445
20
1.627724
30
0.0
11
0.273062
21
1.627992
31
0.0
0
LINE
8
FRONT
10
0.273062
20
1.627992
30
0.0
11
0.272673
21
1.628250
31
0.0
0
LINE
8
FRONT
10
0.272673
20
1.628250
30
0.0
11
0.272277
21
1.628499
31
0.0
0
LINE
8
FRONT
10
0.272277
20
1.628499
30
0.0
11
0.271875
21
1.628738
31
0.0
0
LINE
8
FRONT
10
0.271875
20
1.628738
30
0.0
11
0.271467
21
1.628967
31
0.0
0
LINE
8
FRONT
10
0.271467
20
1.628967
30
0.0
11
0.271054
21
1.629185
31
0.0
0
LINE
8
FRONT
10
0.271054
20
1.629185
30
0.0
11
0.270635
21
1.629393
31
0.0
0
LINE
8
FRONT
10
0.270635
20
1.629393
30
0.0
11
0.270212
21
1.629591
31
0.0
0
LINE
8
FRONT
10
0.270212
20
1.629591
30
0.0
11
0.269783
21
1.629778
31
0.0
0
LINE
8
FRONT
10
0.269783
20
1.629778
30
0.0
11
0.269350
21
1.629954
31
0.0
0
LINE
8
FRONT
10
0.269350
20
1.629954
30
0.0
11
0.268913
21
1.630119
31
0.0
0
LINE
8
FRONT
10
0.268913
20
1.630119
30
0.0
11
0.268472
21
1.630274
31
0.0
0
LINE
8
FRONT
10
0.268472
20
1.630274
30
0.0
11
0.268027
21
1.630417
31
0.0
0
LINE
8
FRONT
10
0.268027
20
1.630417
30
0.0
11
0.267578
21
1.630549
31
0.0
0
LINE
8
FRONT
10
0.267578
20
1.630549
30
0.0
11
0.267127
21
1.630670
31
0.0
0
LINE
8
FRONT
10
0.267127
20
1.630670
30
0.0
11
0.266672
21
1.630780
31
0.0
0
LINE
8
FRONT
10
0.266672
20
1.630780
30
0.0
11
0.266215
21
1.630878
31
0.0
0
LINE
8
FRONT
10
0.266215
20
1.630878
30
0.0
11
0.265756
21
1.630965
31
0.0
0
LINE
8
FRONT
10
0.265756
20
1.630965
30
0.0
11
0.265295
21
1.631041
31
0.0
0
LINE
8
FRONT
10
0.265295
20
1.631041
30
0.0
11
0.264831
21
1.631104
31
0.0
0
LINE
8
FRONT
10
0.264831
20
1.631104
30
0.0
11
0.264367
21
1.631157
31
0.0
0
LINE
8
FRONT
10
0.264367
20
1.631157
30
0.0
11
0.263901
21
1.631198
31
0.0
0
LINE
8
FRONT
10
0.263901
20
1.631198
30
0.0
11
0.263435
21
1.631227
31
0.0
0
LINE
8
FRONT
10
0.263435
20
1.631227
30
0.0
11
0.262967
21
1.631244
31
0.0
0
LINE
8
FRONT
10
0.262967
20
1.631244
30
0.0
11
0.262500
21
1.631250
31
0.0
0
LINE
8
FRONT
10
0.262500
20
1.631250
30
0.0
11
0.037500
21
1.631250
31
0.0
0
LINE
8
FRONT
10
0.037500
20
1.631250
30
0.0
11
0.037033
21
1.631244
31
0.0
0
LINE
8
FRONT
10
0.037033
20
1.631244
30
0.0
11
0.036565
21
1.631227
31
0.0
0
LINE
8
FRONT
10
0.036565
20
1.631227
30
0.0
11
0.036099
21
1.631198
31
0.0
0
LINE
8
FRONT
10
0.036099
20
1.631198
30
0.0
11
0.035633
21
1.631157
31
0.0
0
LINE
8
FRONT
10
0.035633
20
1.631157
30
0.0
11
0.035169
21
1.631104
31
0.0
0
LINE
8
FRONT
10
0.035169
20
1.631104
30
0.0
11
0.034705
21
1.631041
31
0.0
0
LINE
8
FRONT
10
0.034705
20
1.631041
30
0.0
11
0.034244
21
1.630965
31
0.0
0
LINE
8
FRONT
10
0.034244
20
1.630965
30
0.0
11
0.033785
21
1.630878
31
0.0
0
LINE
8
FRONT
10
0.033785
20
1.630878
30
0.0
11
0.033328
21
1.630780
31
0.0
0
LINE
8
FRONT
10
0.033328
20
1.630780
30
0.0
11
0.032873
21
1.630670
31
0.0
0
LINE
8
FRONT
10
0.032873
20
1.630670
30
0.0
11
0.032422
21
1.630549
31
0.0
0
LINE
8
FRONT
10
0.032422
20
1.630549
30
0.0
11
0.031973
21
1.630417
31
0.0
0
LINE
8
FRONT
10
0.031973
20
1.630417
30
0.0
11
0.031528
21
1.630274
31
0.0
0
LINE
8
FRONT
10
0.031528
20
1.630274
30
0.0
11
0.031087
21
1.630119
31
0.0
0
LINE
8
FRONT
10
0.031087
20
1.630119
30
0.0
11
0.030650
21
1.629954
31
0.0
0
LINE
8
FRONT
10
0.030650
20
1.629954
30
0.0
11
0.030217
21
1.629778
31
0.0
0
LINE
8
FRONT
10
0.030217
20
1.629778
30
0.0
11
0.029788
21
1.629591
31
0.0
0
LINE
8
FRONT
10
0.029788
20
1.629591
30
0.0
11
0.029365
21
1.629393
31
0.0
0
LINE
8
FRONT
10
0.029365
20
1.629393
30
0.0
11
0.028946
21
1.629185
31
0.0
0
LINE
8
FRONT
10
0.028946
20
1.629185
30
0.0
11
0.028533
21
1.628967
31
0.0
0
LINE
8
FRONT
10
0.028533
20
1.628967
30
0.0
11
0.028125
21
1.628738
31
0.0
0
LINE
8
FRONT
10
0.028125
20
1.628738
30
0.0
11
0.027723
21
1.628499
31
0.0
0
LINE
8
FRONT
10
0.027723
20
1.628499
30
0.0
11
0.027327
21
1.628250
31
0.0
0
LINE
8
FRONT
10
0.027327
20
1.628250
30
0.0
11
0.026938
21
1.627992
31
0.0
0
LINE
8
FRONT
10
0.026938
20
1.627992
30
0.0
11
0.026555
21
1.627724
31
0.0
0
LINE
8
FRONT
10
0.026555
20
1.627724
30
0.0
11
0.026179
21
1.627446
31
0.0
0
LINE
8
FRONT
10
0.026179
20
1.627446
30
0.0
11
0.025810
21
1.627159
31
0.0
0
LINE
8
FRONT
10
0.025810
20
1.627159
30
0.0
11
0.025448
21
1.626863
31
0.0
0
LINE
8
FRONT
10
0.025448
20
1.626863
30
0.0
11
0.025093
21
1.626558
31
0.0
0
LINE
8
FRONT
10
0.025093
20
1.626558
30
0.0
11
0.024747
21
1.626245
31
0.0
0
LINE
8
FRONT
10
0.024747
20
1.626245
30
0.0
11
0.024408
21
1.625923
31
0.0
0
LINE
8
FRONT
10
0.024408
20
1.625923
30
0.0
11
0.024077
21
1.625592
31
0.0
0
LINE
8
FRONT
10
0.024077
20
1.625592
30
0.0
11
0.023755
21
1.625253
31
0.0
0
LINE
8
FRONT
10
0.023755
20
1.625253
30
0.0
11
0.023442
21
1.624907
31
0.0
0
LINE
8
FRONT
10
0.023442
20
1.624907
30
0.0
11
0.023137
21
1.624552
31
0.0
0
LINE
8
FRONT
10
0.023137
20
1.624552
30
0.0
11
0.022841
21
1.624190
31
0.0
0
LINE
8
FRONT
10
0.022841
20
1.624190
30
0.0
11
0.022554
21
1.623821
31
0.0
0
LINE
8
FRONT
10
0.022554
20
1.623821
30
0.0
11
0.022276
21
1.623445
31
0.0
0
LINE
8
FRONT
10
0.022276
20
1.623445
30
0.0
11
0.022008
21
1.623062
31
0.0
0
LINE
8
FRONT
10
0.022008
20
1.623062
30
0.0
11
0.021750
21
1.622673
31
0.0
0
LINE
8
FRONT
10
0.021750
20
1.622673
30
0.0
11
0.021501
21
1.622277
31
0.0
0
LINE
8
FRONT
10
0.021501
20
1.622277
30
0.0
11
0.021262
21
1.621875
31
0.0
0
LINE
8
FRONT
10
0.021262
20
1.621875
30
0.0
11
0.021033
21
1.621467
31
0.0
0
LINE
8
FRONT
10
0.021033
20
1.621467
30
0.0
11
0.020815
21
1.621054
31
0.0
0
LINE
8
FRONT
10
0.020815
20
1.621054
30
0.0
11
0.020607
21
1.620635
31
0.0
0
LINE
8
FRONT
10
0.020607
20
1.620635
30
0.0
11
0.020409
21
1.620212
31
0.0
0
LINE
8
FRONT
10
0.020409
20
1.620212
30
0.0
11
0.020222
21
1.619783
31
0.0
0
LINE
8
FRONT
10
0.020222
20
1.619783
30
0.0
11
0.020046
21
1.619350
31
0.0
0
LINE
8
FRONT
10
0.020046
20
1.619350
30
0.0
11
0.019881
21
1.618913
31
0.0
0
LINE
8
FRONT
10
0.019881
20
1.618913
30
0.0
11
0.019726
21
1.618472
31
0.0
0
LINE
8
FRONT
10
0.019726
20
1.618472
30
0.0
11
0.019583
21
1.618027
31
0.0
0
LINE
8
FRONT
10
0.019583
20
1.618027
30
0.0
11
0.019451
21
1.617578
31
0.0
0
LINE
8
FRONT
10
0.019451
20
1.617578
30
0.0
11
0.019330
21
1.617127
31
0.0
0
LINE
8
FRONT
10
0.019330
20
1.617127
30
0.0
11
0.019220
21
1.616672
31
0.0
0
LINE
8
FRONT
10
0.019220
20
1.616672
30
0.0
11
0.019122
21
1.616215
31
0.0
0
LINE
8
FRONT
10
0.019122
20
1.616215
30
0.0
11
0.019035
21
1.615756
31
0.0
0
LINE
8
FRONT
10
0.019035
20
1.615756
30
0.0
11
0.018959
21
1.615295
31
0.0
0
LINE
8
FRONT
10
0.018959
20
1.615295
30
0.0
11
0.018896
21
1.614831
31
0.0
0
LINE
8
FRONT
10
0.018896
20
1.614831
30
0.0
11
0.018843
21
1.614367
31
0.0
0
LINE
8
FRONT
10
0.018843
20
1.614367
30
0.0
11
0.018802
21
1.613901
31
0.0
0
LINE
8
FRONT
10
0.018802
20
1.613901
30
0.0
11
0.018773
21
1.613435
31
0.0
0
LINE
8
FRONT
10
0.018773
20
1.613435
30
0.0
11
0.018756
21
1.612967
31
0.0
0
LINE
8
FRONT
10
0.018756
20
1.612967
30
0.0
11
0.018750
21
1.612500
31
0.0
0
LINE
8
FRONT
10
0.018750
20
1.612500
30
0.0
11
0.018750
21
0.937500
31
0.0
0
LINE
8
LEFT
10
0.450000
20
0.937500
30
0.0
11
0.450000
21
0.900000
31
0.0
0
LINE
8
LEFT
10
0.450000
20
0.900000
30
0.0
11
1.200000
21
0.900000
31
0.0
0
LINE
8
LEFT
10
1.200000
20
0.937500
30
0.0
11
1.200000
21
0.900000
31
0.0
0
LINE
8
LEFT
10
0.450000
20
1.650000
30
0.0
11
1.200000
21
1.650000
31
0.0
0
LINE
8
LEFT
10
0.450000
20
1.650000
30
0.0
11
0.450000
21
1.612500
31
0.0
0
LINE
8
LEFT
10
1.200000
20
1.650000
30
0.0
11
1.200000
21
1.612500
31
0.0
0
LINE
8
LEFT
10
1.200000
20
1.612500
30
0.0
11
1.200000
21
0.937500
31
0.0
0
LINE
8
LEFT
10
0.450000
20
1.612500
30
0.0
11
0.450000
21
0.937500
31
0.0
0
LINE
8
LEFT
10
0.450000
20
0.937500
30
0.0
11
1.200000
21
0.937500
31
0.0
0
LINE
8
LEFT
10
0.450000
20
1.612500
30
0.0
11
1.200000
21
1.612500
31
0.0
0
LINE
8
LEFT_HID
6
HIDDEN
10
0.450000
20
0.937500
30
0.0
11
0.450000
21
0.918750
31
0.0
0
LINE
8
LEFT_HID
6
HIDDEN
10
0.450000
20
0.918750
30
0.0
11
1.200000
21
0.918750
31
0.0
0
LINE
8
LEFT_HID
6
HIDDEN
10
1.200000
20
0.937500
30
0.0
11
1.200000
21
0.918750
31
0.0
0
LINE
8
LEFT_HID
6
HIDDEN
10
0.450000
20
0.918750
30
0.0
11
1.200000
21
0.918750
31
0.0
0
LINE
8
LEFT_HID
6
HIDDEN
10
0.450000
20
0.918750
30
0.0
11
0.450000
21
0.937500
31
0.0
0
LINE
8
LEFT_HID
6
HIDDEN
10
1.200000
20
0.918750
30
0.0
11
1.200000
21
0.937500
31
0.0
0
LINE
8
LEFT_HID
6
HIDDEN
10
0.450000
20
1.612500
30
0.0
11
0.450000
21
1.631250
31
0.0
0
LINE
8
LEFT_HID
6
HIDDEN
10
0.450000
20
1.631250
30
0.0
11
1.200000
21
1.631250
31
0.0
0
LINE
8
LEFT_HID
6
HIDDEN
10
1.200000
20
1.612500
30
0.0
11
1.200000
21
1.631250
31
0.0
0
LINE
8
LEFT_HID
6
HIDDEN
10
0.450000
20
1.631250
30
0.0
11
1.200000
21
1.631250
31
0.0
0
LINE
8
LEFT_HID
6
HIDDEN
10
0.450000
20
1.631250
30
0.0
11
0.450000
21
1.612500
31
0.0
0
LINE
8
LEFT_HID
6
HIDDEN
10
1.200000
20
1.631250
30
0.0
11
1.200000
21
1.612500
31
0.0
0
LINE
8
TOP
10
0.300000
20
0.750000
30
0.0
11
0.300000
21
0.000000
31
0.0
0
LINE
8
TOP
10
0.300000
20
0.750000
30
0.0
11
0.262500
21
0.750000
31
0.0
0
LINE
8
TOP
10
0.300000
20
0.000000
30
0.0
11
0.262500
21
0.000000
31
0.0
0
LINE
8
TOP
10
0.262500
20
0.000000
30
0.0
11
0.037500
21
0.000000
31
0.0
0
LINE
8
TOP
10
0.262500
20
0.750000
30
0.0
11
0.037500
21
0.750000
31
0.0
0
LINE
8
TOP
10
0.037500
20
0.750000
30
0.0
11
0.000000
21
0.750000
31
0.0
0
LINE
8
TOP
10
0.000000
20
0.750000
30
0.0
11
0.000000
21
0.000000
31
0.0
0
LINE
8
TOP
10
0.037500
20
0.000000
30
0.0
11
0.000000
21
0.000000
31
0.0
0
LINE
8
TOP
10
0.262500
20
0.750000
30
0.0
11
0.262500
21
0.000000
31
0.0
0
LINE
8
TOP
10
0.037500
20
0.750000
30
0.0
11
0.037500
21
0.000000
31
0.0
0
LINE
8
TOP_HID
6
HIDDEN
10
0.018750
20
0.750000
30
0.0
11
0.037500
21
0.750000
31
0.0
0
LINE
8
TOP_HID
6
HIDDEN
10
0.018750
20
0.000000
30
0.0
11
0.037500
21
0.000000
31
0.0
0
LINE
8
TOP_HID
6
HIDDEN
10
0.018750
20
0.750000
30
0.0
11
0.018750
21
0.000000
31
0.0
0
LINE
8
TOP_HID
6
HIDDEN
10
0.262500
20
0.750000
30
0.0
11
0.281250
21
0.750000
31
0.0
0
LINE
8
TOP_HID
6
HIDDEN
10
0.281250
20
0.750000
30
0.0
11
0.281250
21
0.000000
31
0.0
0
LINE
8
TOP_HID
6
HIDDEN
10
0.262500
20
0.000000
30
0.0
11
0.281250
21
0.000000
31
0.0
0
LINE
8
TOP_HID
6
HIDDEN
10
0.281250
20
0.750000
30
0.0
11
0.281250
21
0.000000
31
0.0
0
LINE
8
TOP_HID
6
HIDDEN
10
0.281250
20
0.750000
30
0.0
11
0.262500
21
0.750000
31
0.0
0
LINE
8
TOP_HID
6
HIDDEN
10
0.281250
20
0.000000
30
0.0
11
0.262500
21
0.000000
31
0.0
0
LINE
8
TOP_HID
6
HIDDEN
10
0.037500
20
0.750000
30
0.0
11
0.018750
21
0.750000
31
0.0
0
LINE
8
TOP_HID
6
HIDDEN
10
0.018750
20
0.750000
30
0.0
11
0.018750
21
0.000000
31
0.0
0
LINE
8
TOP_HID
6
HIDDEN
10
0.037500
20
0.000000
30
0.0
11
0.018750
21
0.000000
31
0.0
0
ENDSEC
0
EOF
