0
SECTION
2
HEADER
9
$ACADVER
1
AC1009
0
ENDSEC
0
SECTION
2
TABLES
0
TABLE
2
LTYPE
70
3
0
LTYPE
2
CONTINUOUS
70
0
3
Solid line
72
65
73
0
40
0.0
0
LTYPE
2
HIDDEN
70
0
3
__ __ __ __ __
72
65
73
2
40
0.073839
49
0.049251
49
-0.024588
0
LTYPE
2
CENTER
70
0
3
___ _ ___ _ ___
72
65
73
4
40
0.172266
49
0.098427
49
-0.024588
49
0.024588
49
-0.024588
0
ENDTAB
0
TABLE
2
LAYER
70
6
0
LAYER
2
0
70
0
62
7
6
CONTINUOUS
0
LAYER
2
FRONT
70
0
62
7
6
CONTINUOUS
0
LAYER
2
FRONT_HID
70
0
62
7
6
HIDDEN
0
LAYER
2
LEFT
70
0
62
7
6
CONTINUOUS
0
LAYER
2
LEFT_HID
70
0
62
7
6
HIDDEN
0
LAYER
2
TOP
70
0
62
7
6
CONTINUOUS
0
ENDTAB
0
ENDSEC
0
SECTION
2
ENTITIES
0
LINE
8
FRONT
10
0.000000
20
1.772136
30
0.0
11
0.000000
21
1.776356
31
0.0
0
LINE
8
FRONT
10
0.286917
20
1.772136
30
0.0
11
0.286917
21
1.776356
31
0.0
0
LINE
8
FRONT
10
0.286917
20
1.776356
30
0.0
11
0.000000
21
1.776356
31
0.0
0
LINE
8
FRONT
10
0.286917
20
1.772136
30
0.0
11
0.000000
21
1.772136
31
0.0
0
LINE
8
FRONT_HID
6
HIDDEN
10
0.000000
20
1.776356
30
0.0
11
0.118142
21
1.776356
31
0.0
0
LINE
8
FRONT_HID
6
HIDDEN
10
0.118142
20
1.772136
30
0.0
11
0.118142
21
1.776356
31
0.0
0
LINE
8
FRONT_HID
6
HIDDEN
10
0.000000
20
1.772136
30
0.0
11
0.118142
21
1.772136
31
0.0
0
LINE
8
FRONT_HID
6
HIDDEN
10
0.118142
20
1.776356
30
0.0
11
0.286917
21
1.776356
31
0.0
0
LINE
8
FRONT_HID
6
HIDDEN
10
0.118142
20
1.772136
30
0.0
11
0.286917
21
1.772136
31
0.0
0
LINE
8
FRONT_HID
6
HIDDEN
10
0.082278
20
1.772136
30
0.0
11
0.069620
21
1.772136
31
0.0
0
LINE
8
FRONT_HID
6
HIDDEN
10
0.069620
20
1.772136
30
0.0
11
0.082278
21
1.772136
31
0.0
0
LINE
8
FRONT_HID
6
HIDDEN
10
0.082278
20
1.772136
30
0.0
11
0.082278
21
1.776356
31
0.0
0
LINE
8
FRONT_HID
6
HIDDEN
10
0.082278
20
1.776356
30
0.0
11
0.069620
21
1.776356
31
0.0
0
LINE
8
FRONT_HID
6
HIDDEN
10
0.069620
20
1.776356
30
0.0
11
0.082278
21
1.776356
31
0.0
0
LINE
8
FRONT_HID
6
HIDDEN
10
0.234175
20
1.772136
30
0.0
11
0.221517
21
1.772136
31
0.0
0
LINE
8
FRONT_HID
6
HIDDEN
10
0.221517
20
1.772136
30
0.0
11
0.234175
21
1.772136
31
0.0
0
LINE
8
FRONT_HID
6
HIDDEN
10
0.234175
20
1.772136
30
0.0
11
0.234175
21
1.776356
31
0.0
0
LINE
8
FRONT_HID
6
HIDDEN
10
0.234175
20
1.776356
30
0.0
11
0.221517
21
1.776356
31
0.0
0
LINE
8
FRONT_HID
6
HIDDEN
10
0.221517
20
1.776356
30
0.0
11
0.234175
21
1.776356
31
0.0
0
LINE
8
FRONT_HID
6
HIDDEN
10
0.069620
20
1.776356
30
0.0
11
0.069620
21
1.772136
31
0.0
0
LINE
8
FRONT_HID
6
HIDDEN
10
0.221517
20
1.776356
30
0.0
11
0.221517
21
1.772136
31
0.0
0
LINE
8
LEFT
10
0.582273
20
1.772136
30
0.0
11
0.582273
21
1.776356
31
0.0
0
LINE
8
LEFT
10
0.582273
20
1.776356
30
0.0
11
2.059053
21
1.776356
31
0.0
0
LINE
8
LEFT
10
2.059053
20
1.772136
30
0.0
11
2.059053
21
1.776356
31
0.0
0
LINE
8
LEFT
10
0.582273
20
1.772136
30
0.0
11
2.059053
21
1.772136
31
0.0
0
LINE
8
LEFT_HID
6
HIDDEN
10
0.624467
20
1.772136
30
0.0
11
0.618138
21
1.772136
31
0.0
0
LINE
8
LEFT_HID
6
HIDDEN
10
0.618138
20
1.772136
30
0.0
11
0.630796
21
1.772136
31
0.0
0
LINE
8
LEFT_HID
6
HIDDEN
10
0.630796
20
1.772136
30
0.0
11
0.624467
21
1.772136
31
0.0
0
LINE
8
LEFT_HID
6
HIDDEN
10
0.624467
20
1.776356
30
0.0
11
0.618138
21
1.776356
31
0.0
0
LINE
8
LEFT_HID
6
HIDDEN
10
0.618138
20
1.776356
30
0.0
11
0.630796
21
1.776356
31
0.0
0
LINE
8
LEFT_HID
6
HIDDEN
10
0.630796
20
1.776356
30
0.0
11
0.624467
21
1.776356
31
0.0
0
LINE
8
LEFT_HID
6
HIDDEN
10
0.624467
20
1.772136
30
0.0
11
0.618138
21
1.772136
31
0.0
0
LINE
8
LEFT_HID
6
HIDDEN
10
0.618138
20
1.772136
30
0.0
11
0.630796
21
1.772136
31
0.0
0
LINE
8
LEFT_HID
6
HIDDEN
10
0.630796
20
1.772136
30
0.0
11
0.624467
21
1.772136
31
0.0
0
LINE
8
LEFT_HID
6
HIDDEN
10
0.624467
20
1.776356
30
0.0
11
0.618138
21
1.776356
31
0.0
0
LINE
8
LEFT_HID
6
HIDDEN
10
0.618138
20
1.776356
30
0.0
11
0.630796
21
1.776356
31
0.0
0
LINE
8
LEFT_HID
6
HIDDEN
10
0.630796
20
1.776356
30
0.0
11
0.624467
21
1.776356
31
0.0
0
LINE
8
LEFT_HID
6
HIDDEN
10
0.618138
20
1.776356
30
0.0
11
0.618138
21
1.772136
31
0.0
0
LINE
8
LEFT_HID
6
HIDDEN
10
0.630796
20
1.776356
30
0.0
11
0.630796
21
1.772136
31
0.0
0
LINE
8
LEFT_HID
6
HIDDEN
10
0.618138
20
1.776356
30
0.0
11
0.618138
21
1.772136
31
0.0
0
LINE
8
LEFT_HID
6
HIDDEN
10
0.630796
20
1.776356
30
0.0
11
0.630796
21
1.772136
31
0.0
0
LINE
8
TOP
10
0.000000
20
1.476780
30
0.0
11
0.118142
21
0.000000
31
0.0
0
LINE
8
TOP
10
0.118142
20
0.000000
30
0.0
11
0.286917
21
0.000000
31
0.0
0
LINE
8
TOP
10
0.286917
20
0.000000
30
0.0
11
0.286917
21
1.476780
31
0.0
0
LINE
8
TOP
10
0.286917
20
1.476780
30
0.0
11
0.000000
21
1.476780
31
0.0
0
LINE
8
TOP
10
0.082278
20
1.434586
30
0.0
11
0.082246
21
1.435217
31
0.0
0
LINE
8
TOP
10
0.082246
20
1.435217
30
0.0
11
0.082152
21
1.435841
31
0.0
0
LINE
8
TOP
10
0.082152
20
1.435841
30
0.0
11
0.081997
21
1.436452
31
0.0
0
LINE
8
TOP
10
0.081997
20
1.436452
30
0.0
11
0.081781
21
1.437045
31
0.0
0
LINE
8
TOP
10
0.081781
20
1.437045
30
0.0
11
0.081507
21
1.437613
31
0.0
0
LINE
8
TOP
10
0.081507
20
1.437613
30
0.0
11
0.081178
21
1.438152
31
0.0
0
LINE
8
TOP
10
0.081178
20
1.438152
30
0.0
11
0.080797
21
1.438655
31
0.0
0
LINE
8
TOP
10
0.080797
20
1.438655
30
0.0
11
0.080368
21
1.439117
31
0.0
0
LINE
8
TOP
10
0.080368
20
1.439117
30
0.0
11
0.079895
21
1.439535
31
0.0
0
LINE
8
TOP
10
0.079895
20
1.439535
30
0.0
11
0.079382
21
1.439903
31
0.0
0
LINE
8
TOP
10
0.079382
20
1.439903
30
0.0
11
0.078836
21
1.440218
31
0.0
0
LINE
8
TOP
10
0.078836
20
1.440218
30
0.0
11
0.078261
21
1.440478
31
0.0
0
LINE
8
TOP
10
0.078261
20
1.440478
30
0.0
11
0.077663
21
1.440679
31
0.0
0
LINE
8
TOP
10
0.077663
20
1.440679
30
0.0
11
0.077048
21
1.440819
31
0.0
0
LINE
8
TOP
10
0.077048
20
1.440819
30
0.0
11
0.076422
21
1.440898
31
0.0
0
LINE
8
TOP
10
0.076422
20
1.440898
30
0.0
11
0.075791
21
1.440914
31
0.0
0
LINE
8
TOP
10
0.075791
20
1.440914
30
0.0
11
0.075162
21
1.440866
31
0.0
0
LINE
8
TOP
10
0.075162
20
1.440866
30
0.0
11
0.074540
21
1.440757
31
0.0
0
LINE
8
TOP
10
0.074540
20
1.440757
30
0.0
11
0.073933
21
1.440586
31
0.0
0
LINE
8
TOP
10
0.073933
20
1.440586
30
0.0
11
0.073346
21
1.440355
31
0.0
0
LINE
8
TOP
10
0.073346
20
1.440355
30
0.0
11
0.072784
21
1.440068
31
0.0
0
LINE
8
TOP
10
0.072784
20
1.440068
30
0.0
11
0.072254
21
1.439725
31
0.0
0
LINE
8
TOP
10
0.072254
20
1.439725
30
0.0
11
0.071761
21
1.439332
31
0.0
0
LINE
8
TOP
10
0.071761
20
1.439332
30
0.0
11
0.071309
21
1.438891
31
0.0
0
LINE
8
TOP
10
0.071309
20
1.438891
30
0.0
11
0.070904
21
1.438408
31
0.0
0
LINE
8
TOP
10
0.070904
20
1.438408
30
0.0
11
0.070548
21
1.437887
31
0.0
0
LINE
8
TOP
10
0.070548
20
1.437887
30
0.0
11
0.070246
21
1.437332
31
0.0
0
LINE
8
TOP
10
0.070246
20
1.437332
30
0.0
11
0.070001
21
1.436751
31
0.0
0
LINE
8
TOP
10
0.070001
20
1.436751
30
0.0
11
0.069815
21
1.436148
31
0.0
0
LINE
8
TOP
10
0.069815
20
1.436148
30
0.0
11
0.069690
21
1.435530
31
0.0
0
LINE
8
TOP
10
0.069690
20
1.435530
30
0.0
11
0.069628
21
1.434902
31
0.0
0
LINE
8
TOP
10
0.069628
20
1.434902
30
0.0
11
0.069628
21
1.434271
31
0.0
0
LINE
8
TOP
10
0.069628
20
1.434271
30
0.0
11
0.069690
21
1.433643
31
0.0
0
LINE
8
TOP
10
0.069690
20
1.433643
30
0.0
11
0.069815
21
1.433025
31
0.0
0
LINE
8
TOP
10
0.069815
20
1.433025
30
0.0
11
0.070001
21
1.432422
31
0.0
0
LINE
8
TOP
10
0.070001
20
1.432422
30
0.0
11
0.070246
21
1.431840
31
0.0
0
LINE
8
TOP
10
0.070246
20
1.431840
30
0.0
11
0.070548
21
1.431286
31
0.0
0
LINE
8
TOP
10
0.070548
20
1.431286
30
0.0
11
0.070904
21
1.430765
31
0.0
0
LINE
8
TOP
10
0.070904
20
1.430765
30
0.0
11
0.071309
21
1.430282
31
0.0
0
LINE
8
TOP
10
0.071309
20
1.430282
30
0.0
11
0.071761
21
1.429841
31
0.0
0
LINE
8
TOP
10
0.071761
20
1.429841
30
0.0
11
0.072254
21
1.429448
31
0.0
0
LINE
8
TOP
10
0.072254
20
1.429448
30
0.0
11
0.072784
21
1.429105
31
0.0
0
LINE
8
TOP
10
0.072784
20
1.429105
30
0.0
11
0.073346
21
1.428817
31
0.0
0
LINE
8
TOP
10
0.073346
20
1.428817
30
0.0
11
0.073933
21
1.428587
31
0.0
0
LINE
8
TOP
10
0.073933
20
1.428587
30
0.0
11
0.074540
21
1.428416
31
0.0
0
LINE
8
TOP
10
0.074540
20
1.428416
30
0.0
11
0.075162
21
1.428306
31
0.0
0
LINE
8
TOP
10
0.075162
20
1.428306
30
0.0
11
0.075791
21
1.428259
31
0.0
0
LINE
8
TOP
10
0.075791
20
1.428259
30
0.0
11
0.076422
21
1.428275
31
0.0
0
LINE
8
TOP
10
0.076422
20
1.428275
30
0.0
11
0.077048
21
1.428354
31
0.0
0
LINE
8
TOP
10
0.077048
20
1.428354
30
0.0
11
0.077663
21
1.428494
31
0.0
0
LINE
8
TOP
10
0.077663
20
1.428494
30
0.0
11
0.078261
21
1.428695
31
0.0
0
LINE
8
TOP
10
0.078261
20
1.428695
30
0.0
11
0.078836
21
1.428954
31
0.0
0
LINE
8
TOP
10
0.078836
20
1.428954
30
0.0
11
0.079382
21
1.429270
31
0.0
0
LINE
8
TOP
10
0.079382
20
1.429270
30
0.0
11
0.079895
21
1.429638
31
0.0
0
LINE
8
TOP
10
0.079895
20
1.429638
30
0.0
11
0.080368
21
1.430056
31
0.0
0
LINE
8
TOP
10
0.080368
20
1.430056
30
0.0
11
0.080797
21
1.430518
31
0.0
0
LINE
8
TOP
10
0.080797
20
1.430518
30
0.0
11
0.081178
21
1.431021
31
0.0
0
LINE
8
TOP
10
0.081178
20
1.431021
30
0.0
11
0.081507
21
1.431560
31
0.0
0
LINE
8
TOP
10
0.081507
20
1.431560
30
0.0
11
0.081781
21
1.432128
31
0.0
0
LINE
8
TOP
10
0.081781
20
1.432128
30
0.0
11
0.081997
21
1.432721
31
0.0
0
LINE
8
TOP
10
0.081997
20
1.432721
30
0.0
11
0.082152
21
1.433332
31
0.0
0
LINE
8
TOP
10
0.082152
20
1.433332
30
0.0
11
0.082246
21
1.433956
31
0.0
0
LINE
8
TOP
10
0.082246
20
1.433956
30
0.0
11
0.082278
21
1.434586
31
0.0
0
LINE
8
TOP
10
0.234175
20
1.434586
30
0.0
11
0.234144
21
1.435217
31
0.0
0
LINE
8
TOP
10
0.234144
20
1.435217
30
0.0
11
0.234050
21
1.435841
31
0.0
0
LINE
8
TOP
10
0.234050
20
1.435841
30
0.0
11
0.233894
21
1.436452
31
0.0
0
LINE
8
TOP
10
0.233894
20
1.436452
30
0.0
11
0.233678
21
1.437045
31
0.0
0
LINE
8
TOP
10
0.233678
20
1.437045
30
0.0
11
0.233404
21
1.437613
31
0.0
0
LINE
8
TOP
10
0.233404
20
1.437613
30
0.0
11
0.233075
21
1.438152
31
0.0
0
LINE
8
TOP
10
0.233075
20
1.438152
30
0.0
11
0.232694
21
1.438655
31
0.0
0
LINE
8
TOP
10
0.232694
20
1.438655
30
0.0
11
0.232265
21
1.439117
31
0.0
0
LINE
8
TOP
10
0.232265
20
1.439117
30
0.0
11
0.231792
21
1.439535
31
0.0
0
LINE
8
TOP
10
0.231792
20
1.439535
30
0.0
11
0.231280
21
1.439903
31
0.0
0
LINE
8
TOP
10
0.231280
20
1.439903
30
0.0
11
0.230733
21
1.440218
31
0.0
0
LINE
8
TOP
10
0.230733
20
1.440218
30
0.0
11
0.230158
21
1.440478
31
0.0
0
LINE
8
TOP
10
0.230158
20
1.440478
30
0.0
11
0.229560
21
1.440679
31
0.0
0
LINE
8
TOP
10
0.229560
20
1.440679
30
0.0
11
0.228945
21
1.440819
31
0.0
0
LINE
8
TOP
10
0.228945
20
1.440819
30
0.0
11
0.228319
21
1.440898
31
0.0
0
LINE
8
TOP
10
0.228319
20
1.440898
30
0.0
11
0.227688
21
1.440914
31
0.0
0
LINE
8
TOP
10
0.227688
20
1.440914
30
0.0
11
0.227059
21
1.440866
31
0.0
0
LINE
8
TOP
10
0.227059
20
1.440866
30
0.0
11
0.226438
21
1.440757
31
0.0
0
LINE
8
TOP
10
0.226438
20
1.440757
30
0.0
11
0.225830
21
1.440586
31
0.0
0
LINE
8
TOP
10
0.225830
20
1.440586
30
0.0
11
0.225243
21
1.440355
31
0.0
0
LINE
8
TOP
10
0.225243
20
1.440355
30
0.0
11
0.224682
21
1.440068
31
0.0
0
LINE
8
TOP
10
0.224682
20
1.440068
30
0.0
11
0.224152
21
1.439725
31
0.0
0
LINE
8
TOP
10
0.224152
20
1.439725
30
0.0
11
0.223658
21
1.439332
31
0.0
0
LINE
8
TOP
10
0.223658
20
1.439332
30
0.0
11
0.223207
21
1.438891
31
0.0
0
LINE
8
TOP
10
0.223207
20
1.438891
30
0.0
11
0.222801
21
1.438408
31
0.0
0
LINE
8
TOP
10
0.222801
20
1.438408
30
0.0
11
0.222446
21
1.437887
31
0.0
0
LINE
8
TOP
10
0.222446
20
1.437887
30
0.0
11
0.222144
21
1.437332
31
0.0
0
LINE
8
TOP
10
0.222144
20
1.437332
30
0.0
11
0.221899
21
1.436751
31
0.0
0
LINE
8
TOP
10
0.221899
20
1.436751
30
0.0
11
0.221713
21
1.436148
31
0.0
0
LINE
8
TOP
10
0.221713
20
1.436148
30
0.0
11
0.221588
21
1.435530
31
0.0
0
LINE
8
TOP
10
0.221588
20
1.435530
30
0.0
11
0.221525
21
1.434902
31
0.0
0
LINE
8
TOP
10
0.221525
20
1.434902
30
0.0
11
0.221525
21
1.434271
31
0.0
0
LINE
8
TOP
10
0.221525
20
1.434271
30
0.0
11
0.221588
21
1.433643
31
0.0
0
LINE
8
TOP
10
0.221588
20
1.433643
30
0.0
11
0.221713
21
1.433025
31
0.0
0
LINE
8
TOP
10
0.221713
20
1.433025
30
0.0
11
0.221899
21
1.432422
31
0.0
0
LINE
8
TOP
10
0.221899
20
1.432422
30
0.0
11
0.222144
21
1.431840
31
0.0
0
LINE
8
TOP
10
0.222144
20
1.431840
30
0.0
11
0.222446
21
1.431286
31
0.0
0
LINE
8
TOP
10
0.222446
20
1.431286
30
0.0
11
0.222801
21
1.430765
31
0.0
0
LINE
8
TOP
10
0.222801
20
1.430765
30
0.0
11
0.223207
21
1.430282
31
0.0
0
LINE
8
TOP
10
0.223207
20
1.430282
30
0.0
11
0.223658
21
1.429841
31
0.0
0
LINE
8
TOP
10
0.223658
20
1.429841
30
0.0
11
0.224152
21
1.429448
31
0.0
0
LINE
8
TOP
10
0.224152
20
1.429448
30
0.0
11
0.224682
21
1.429105
31
0.0
0
LINE
8
TOP
10
0.224682
20
1.429105
30
0.0
11
0.225243
21
1.428817
31
0.0
0
LINE
8
TOP
10
0.225243
20
1.428817
30
0.0
11
0.225830
21
1.428587
31
0.0
0
LINE
8
TOP
10
0.225830
20
1.428587
30
0.0
11
0.226438
21
1.428416
31
0.0
0
LINE
8
TOP
10
0.226438
20
1.428416
30
0.0
11
0.227059
21
1.428306
31
0.0
0
LINE
8
TOP
10
0.227059
20
1.428306
30
0.0
11
0.227688
21
1.428259
31
0.0
0
LINE
8
TOP
10
0.227688
20
1.428259
30
0.0
11
0.228319
21
1.428275
31
0.0
0
LINE
8
TOP
10
0.228319
20
1.428275
30
0.0
11
0.228945
21
1.428354
31
0.0
0
LINE
8
TOP
10
0.228945
20
1.428354
30
0.0
11
0.229560
21
1.428494
31
0.0
0
LINE
8
TOP
10
0.229560
20
1.428494
30
0.0
11
0.230158
21
1.428695
31
0.0
0
LINE
8
TOP
10
0.230158
20
1.428695
30
0.0
11
0.230733
21
1.428954
31
0.0
0
LINE
8
TOP
10
0.230733
20
1.428954
30
0.0
11
0.231280
21
1.429270
31
0.0
0
LINE
8
TOP
10
0.231280
20
1.429270
30
0.0
11
0.231792
21
1.429638
31
0.0
0
LINE
8
TOP
10
0.231792
20
1.429638
30
0.0
11
0.232265
21
1.430056
31
0.0
0
LINE
8
TOP
10
0.232265
20
1.430056
30
0.0
11
0.232694
21
1.430518
31
0.0
0
LINE
8
TOP
10
0.232694
20
1.430518
30
0.0
11
0.233075
21
1.431021
31
0.0
0
LINE
8
TOP
10
0.233075
20
1.431021
30
0.0
11
0.233404
21
1.431560
31
0.0
0
LINE
8
TOP
10
0.233404
20
1.431560
30
0.0
11
0.233678
21
1.432128
31
0.0
0
LINE
8
TOP
10
0.233678
20
1.432128
30
0.0
11
0.233894
21
1.432721
31
0.0
0
LINE
8
TOP
10
0.233894
20
1.432721
30
0.0
11
0.234050
21
1.433332
31
0.0
0
LINE
8
TOP
10
0.234050
20
1.433332
30
0.0
11
0.234144
21
1.433956
31
0.0
0
LINE
8
TOP
10
0.234144
20
1.433956
30
0.0
11
0.234175
21
1.434586
31
0.0
0
ENDSEC
0
EOF
