0
SECTION
2
HEADER
9
$ACADVER
1
AC1009
0
ENDSEC
0
SECTION
2
TABLES
0
TABLE
2
LTYPE
70
3
0
LTYPE
2
CONTINUOUS
70
0
3
Solid line
72
65
73
0
40
0.0
0
LTYPE
2
HIDDEN
70
0
3
__ __ __ __ __
72
65
73
2
40
0.028513
49
0.019018
49
-0.009495
0
LTYPE
2
CENTER
70
0
3
___ _ ___ _ ___
72
65
73
4
40
0.066521
49
0.038008
49
-0.009495
49
0.009495
49
-0.009495
0
ENDTAB
0
TABLE
2
LAYER
70
7
0
LAYER
2
0
70
0
62
7
6
CONTINUOUS
0
LAYER
2
FRONT
70
0
62
7
6
CONTINUOUS
0
LAYER
2
FRONT_HID
70
0
62
7
6
HIDDEN
0
LAYER
2
LEFT
70
0
62
7
6
CONTINUOUS
0
LAYER
2
LEFT_HID
70
0
62
7
6
HIDDEN
0
LAYER
2
TOP
70
0
62
7
6
CONTINUOUS
0
LAYER
2
TOP_HID
70
0
62
7
6
HIDDEN
0
ENDTAB
0
ENDSEC
0
SECTION
2
ENTITIES
0
LINE
8
FRONT
10
0.190086
20
0.494223
30
0.0
11
0.000000
21
0.494223
31
0.0
0
LINE
8
FRONT
10
0.190086
20
0.684309
30
0.0
11
0.190086
21
0.494223
31
0.0
0
LINE
8
FRONT
10
0.000000
20
0.494223
30
0.0
11
0.000000
21
0.684309
31
0.0
0
LINE
8
FRONT
10
0.190086
20
0.494223
30
0.0
11
0.380172
21
0.494223
31
0.0
0
LINE
8
FRONT
10
0.000000
20
0.684309
30
0.0
11
0.190086
21
0.684309
31
0.0
0
LINE
8
FRONT
10
0.380172
20
0.494223
30
0.0
11
0.380172
21
0.684309
31
0.0
0
LINE
8
FRONT
10
0.000000
20
1.064481
30
0.0
11
0.000000
21
0.684309
31
0.0
0
LINE
8
FRONT
10
0.190086
20
0.874395
30
0.0
11
0.190086
21
1.064481
31
0.0
0
LINE
8
FRONT
10
0.190086
20
1.064481
30
0.0
11
0.000000
21
1.064481
31
0.0
0
LINE
8
FRONT
10
0.380172
20
0.684309
30
0.0
11
0.380172
21
0.874395
31
0.0
0
LINE
8
FRONT
10
0.190086
20
0.874395
30
0.0
11
0.380172
21
0.874395
31
0.0
0
LINE
8
FRONT_HID
6
HIDDEN
10
0.000000
20
0.494223
30
0.0
11
0.380172
21
0.494223
31
0.0
0
LINE
8
FRONT_HID
6
HIDDEN
10
0.000000
20
1.064481
30
0.0
11
0.000000
21
0.494223
31
0.0
0
LINE
8
LEFT
10
0.684309
20
0.494223
30
0.0
11
0.494223
21
0.494223
31
0.0
0
LINE
8
LEFT
10
0.494223
20
0.494223
30
0.0
11
0.494223
21
0.684309
31
0.0
0
LINE
8
LEFT
10
0.684309
20
0.684309
30
0.0
11
0.494223
21
0.684309
31
0.0
0
LINE
8
LEFT
10
0.684309
20
0.494223
30
0.0
11
0.874395
21
0.494223
31
0.0
0
LINE
8
LEFT
10
0.684309
20
1.064481
30
0.0
11
0.874395
21
1.064481
31
0.0
0
LINE
8
LEFT
10
0.874395
20
1.064481
30
0.0
11
0.874395
21
0.494223
31
0.0
0
LINE
8
LEFT
10
0.684309
20
1.064481
30
0.0
11
0.684309
21
0.684309
31
0.0
0
LINE
8
LEFT_HID
6
HIDDEN
10
0.684309
20
0.684309
30
0.0
11
0.684309
21
0.494223
31
0.0
0
LINE
8
LEFT_HID
6
HIDDEN
10
0.684309
20
0.494223
30
0.0
11
0.684309
21
0.684309
31
0.0
0
LINE
8
LEFT_HID
6
HIDDEN
10
0.874395
20
0.494223
30
0.0
11
0.874395
21
0.684309
31
0.0
0
LINE
8
LEFT_HID
6
HIDDEN
10
0.874395
20
0.684309
30
0.0
11
0.874395
21
0.874395
31
0.0
0
LINE
8
LEFT_HID
6
HIDDEN
10
0.874395
20
0.874395
30
0.0
11
0.874395
21
1.064481
31
0.0
0
LINE
8
LEFT_HID
6
HIDDEN
10
0.684309
20
0.684309
30
0.0
11
0.684309
21
0.874395
31
0.0
0
LINE
8
LEFT_HID
6
HIDDEN
10
0.684309
20
0.874395
30
0.0
11
0.684309
21
1.064481
31
0.0
0
LINE
8
LEFT_HID
6
HIDDEN
10
0.684309
20
0.684309
30
0.0
11
0.684309
21
0.874395
31
0.0
0
LINE
8
LEFT_HID
6
HIDDEN
10
0.684309
20
0.874395
30
0.0
11
0.874395
21
0.874395
31
0.0
0
LINE
8
LEFT_HID
6
HIDDEN
10
0.874395
20
0.874395
30
0.0
11
0.874395
21
0.684309
31
0.0
0
LINE
8
LEFT_HID
6
HIDDEN
10
0.684309
20
0.874395
30
0.0
11
0.874395
21
0.874395
31
0.0
0
LINE
8
TOP
10
0.190086
20
0.190086
30
0.0
11
0.190086
21
0.380172
31
0.0
0
LINE
8
TOP
10
0.000000
20
0.190086
30
0.0
11
0.000000
21
0.380172
31
0.0
0
LINE
8
TOP
10
0.000000
20
0.380172
30
0.0
11
0.190086
21
0.380172
31
0.0
0
LINE
8
TOP
10
0.000000
20
0.190086
30
0.0
11
0.000000
21
0.000000
31
0.0
0
LINE
8
TOP
10
0.190086
20
0.000000
30
0.0
11
0.000000
21
0.000000
31
0.0
0
LINE
8
TOP
10
0.190086
20
0.190086
30
0.0
11
0.000000
21
0.190086
31
0.0
0
LINE
8
TOP
10
0.190086
20
0.190086
30
0.0
11
0.380172
21
0.190086
31
0.0
0
LINE
8
TOP
10
0.190086
20
0.190086
30
0.0
11
0.190086
21
0.000000
31
0.0
0
LINE
8
TOP
10
0.380172
20
0.190086
30
0.0
11
0.380172
21
0.000000
31
0.0
0
LINE
8
TOP
10
0.190086
20
0.000000
30
0.0
11
0.380172
21
0.000000
31
0.0
0
LINE
8
TOP_HID
6
HIDDEN
10
0.000000
20
0.000000
30
0.0
11
0.380172
21
0.000000
31
0.0
0
ENDSEC
0
EOF
