0
SECTION
2
HEADER
9
$ACADVER
1
AC1009
0
ENDSEC
0
SECTION
2
TABLES
0
TABLE
2
LTYPE
70
3
0
LTYPE
2
CONTINUOUS
70
0
3
Solid line
72
65
73
0
40
0.0
0
LTYPE
2
HIDDEN
70
0
3
__ __ __ __ __
72
65
73
2
40
0.075000
49
0.050025
49
-0.024975
0
LTYPE
2
CENTER
70
0
3
___ _ ___ _ ___
72
65
73
4
40
0.174975
49
0.099975
49
-0.024975
49
0.024975
49
-0.024975
0
ENDTAB
0
TABLE
2
LAYER
70
6
0
LAYER
2
0
70
0
62
7
6
CONTINUOUS
0
LAYER
2
FRONT
70
0
62
7
6
CONTINUOUS
0
LAYER
2
FRONT_HID
70
0
62
7
6
HIDDEN
0
LAYER
2
LEFT
70
0
62
7
6
CONTINUOUS
0
LAYER
2
LEFT_HID
70
0
62
7
6
HIDDEN
0
LAYER
2
TOP
70
0
62
7
6
CONTINUOUS
0
ENDTAB
0
ENDSEC
0
SECTION
2
ENTITIES
0
LINE
8
FRONT
10
0.262500
20
1.312418
30
0.0
11
0.262500
21
2.062418
31
0.0
0
LINE
8
FRONT
10
0.262500
20
2.062418
30
0.0
11
0.000000
21
2.062418
31
0.0
0
LINE
8
FRONT
10
0.262500
20
1.312418
30
0.0
11
0.262500
21
0.562418
31
0.0
0
LINE
8
FRONT
10
0.262500
20
0.562418
30
0.0
11
0.000000
21
0.562418
31
0.0
0
LINE
8
FRONT
10
0.000000
20
2.062418
30
0.0
11
0.000000
21
1.312418
31
0.0
0
LINE
8
FRONT
10
0.000000
20
0.562418
30
0.0
11
0.000000
21
1.312418
31
0.0
0
LINE
8
FRONT_HID
6
HIDDEN
10
0.224000
20
2.062418
30
0.0
11
0.038500
21
2.062418
31
0.0
0
LINE
8
FRONT_HID
6
HIDDEN
10
0.038500
20
2.062418
30
0.0
11
0.224000
21
2.062418
31
0.0
0
LINE
8
FRONT_HID
6
HIDDEN
10
0.224000
20
0.562418
30
0.0
11
0.038500
21
0.562418
31
0.0
0
LINE
8
FRONT_HID
6
HIDDEN
10
0.038500
20
0.562418
30
0.0
11
0.224000
21
0.562418
31
0.0
0
LINE
8
FRONT_HID
6
HIDDEN
10
0.224000
20
1.312418
30
0.0
11
0.224000
21
2.062418
31
0.0
0
LINE
8
FRONT_HID
6
HIDDEN
10
0.224000
20
1.312418
30
0.0
11
0.224000
21
0.562418
31
0.0
0
LINE
8
FRONT_HID
6
HIDDEN
10
0.038500
20
2.062418
30
0.0
11
0.038500
21
1.312418
31
0.0
0
LINE
8
FRONT_HID
6
HIDDEN
10
0.038500
20
0.562418
30
0.0
11
0.038500
21
1.312418
31
0.0
0
LINE
8
LEFT
10
0.562500
20
2.062418
30
0.0
11
0.825000
21
2.062418
31
0.0
0
LINE
8
LEFT
10
0.562500
20
0.562418
30
0.0
11
0.825000
21
0.562418
31
0.0
0
LINE
8
LEFT
10
0.562500
20
2.062418
30
0.0
11
0.562500
21
1.312418
31
0.0
0
LINE
8
LEFT
10
0.825000
20
2.062418
30
0.0
11
0.825000
21
1.312418
31
0.0
0
LINE
8
LEFT
10
0.825000
20
0.562418
30
0.0
11
0.825000
21
1.312418
31
0.0
0
LINE
8
LEFT
10
0.562500
20
0.562418
30
0.0
11
0.562500
21
1.312418
31
0.0
0
LINE
8
LEFT_HID
6
HIDDEN
10
0.693750
20
2.062418
30
0.0
11
0.562500
21
2.062418
31
0.0
0
LINE
8
LEFT_HID
6
HIDDEN
10
0.825000
20
2.062418
30
0.0
11
0.693750
21
2.062418
31
0.0
0
LINE
8
LEFT_HID
6
HIDDEN
10
0.693750
20
0.562418
30
0.0
11
0.562500
21
0.562418
31
0.0
0
LINE
8
LEFT_HID
6
HIDDEN
10
0.825000
20
0.562418
30
0.0
11
0.693750
21
0.562418
31
0.0
0
LINE
8
LEFT_HID
6
HIDDEN
10
0.693750
20
2.062418
30
0.0
11
0.601000
21
2.062418
31
0.0
0
LINE
8
LEFT_HID
6
HIDDEN
10
0.601000
20
2.062418
30
0.0
11
0.786500
21
2.062418
31
0.0
0
LINE
8
LEFT_HID
6
HIDDEN
10
0.786500
20
2.062418
30
0.0
11
0.693750
21
2.062418
31
0.0
0
LINE
8
LEFT_HID
6
HIDDEN
10
0.693750
20
0.562418
30
0.0
11
0.601000
21
0.562418
31
0.0
0
LINE
8
LEFT_HID
6
HIDDEN
10
0.601000
20
0.562418
30
0.0
11
0.786500
21
0.562418
31
0.0
0
LINE
8
LEFT_HID
6
HIDDEN
10
0.786500
20
0.562418
30
0.0
11
0.693750
21
0.562418
31
0.0
0
LINE
8
LEFT_HID
6
HIDDEN
10
0.601000
20
2.062418
30
0.0
11
0.601000
21
1.312418
31
0.0
0
LINE
8
LEFT_HID
6
HIDDEN
10
0.786500
20
2.062418
30
0.0
11
0.786500
21
1.312418
31
0.0
0
LINE
8
LEFT_HID
6
HIDDEN
10
0.786500
20
0.562418
30
0.0
11
0.786500
21
1.312418
31
0.0
0
LINE
8
LEFT_HID
6
HIDDEN
10
0.601000
20
0.562418
30
0.0
11
0.601000
21
1.312418
31
0.0
0
LINE
8
TOP
10
0.262337
20
0.131209
30
0.0
11
0.261685
21
0.144277
31
0.0
0
LINE
8
TOP
10
0.261685
20
0.144277
30
0.0
11
0.259734
21
0.157216
31
0.0
0
LINE
8
TOP
10
0.259734
20
0.157216
30
0.0
11
0.256506
21
0.169896
31
0.0
0
LINE
8
TOP
10
0.256506
20
0.169896
30
0.0
11
0.252031
21
0.182191
31
0.0
0
LINE
8
TOP
10
0.252031
20
0.182191
30
0.0
11
0.246353
21
0.193980
31
0.0
0
LINE
8
TOP
10
0.246353
20
0.193980
30
0.0
11
0.239531
21
0.205145
31
0.0
0
LINE
8
TOP
10
0.239531
20
0.205145
30
0.0
11
0.231630
21
0.215575
31
0.0
0
LINE
8
TOP
10
0.231630
20
0.215575
30
0.0
11
0.222730
21
0.225167
31
0.0
0
LINE
8
TOP
10
0.222730
20
0.225167
30
0.0
11
0.212920
21
0.233825
31
0.0
0
LINE
8
TOP
10
0.212920
20
0.233825
30
0.0
11
0.202296
21
0.241463
31
0.0
0
LINE
8
TOP
10
0.202296
20
0.241463
30
0.0
11
0.190964
21
0.248005
31
0.0
0
LINE
8
TOP
10
0.190964
20
0.248005
30
0.0
11
0.179038
21
0.253386
31
0.0
0
LINE
8
TOP
10
0.179038
20
0.253386
30
0.0
11
0.166635
21
0.257554
31
0.0
0
LINE
8
TOP
10
0.166635
20
0.257554
30
0.0
11
0.153878
21
0.260465
31
0.0
0
LINE
8
TOP
10
0.153878
20
0.260465
30
0.0
11
0.140895
21
0.262092
31
0.0
0
LINE
8
TOP
10
0.140895
20
0.262092
30
0.0
11
0.127815
21
0.262418
31
0.0
0
LINE
8
TOP
10
0.127815
20
0.262418
30
0.0
11
0.114767
21
0.261441
31
0.0
0
LINE
8
TOP
10
0.114767
20
0.261441
30
0.0
11
0.101881
21
0.259168
31
0.0
0
LINE
8
TOP
10
0.101881
20
0.259168
30
0.0
11
0.089285
21
0.255625
31
0.0
0
LINE
8
TOP
10
0.089285
20
0.255625
30
0.0
11
0.077105
21
0.250844
31
0.0
0
LINE
8
TOP
10
0.077105
20
0.250844
30
0.0
11
0.065462
21
0.244875
31
0.0
0
LINE
8
TOP
10
0.065462
20
0.244875
30
0.0
11
0.054470
21
0.237776
31
0.0
0
LINE
8
TOP
10
0.054470
20
0.237776
30
0.0
11
0.044241
21
0.229618
31
0.0
0
LINE
8
TOP
10
0.044241
20
0.229618
30
0.0
11
0.034874
21
0.220482
31
0.0
0
LINE
8
TOP
10
0.034874
20
0.220482
30
0.0
11
0.026463
21
0.210459
31
0.0
0
LINE
8
TOP
10
0.026463
20
0.210459
30
0.0
11
0.019092
21
0.199648
31
0.0
0
LINE
8
TOP
10
0.019092
20
0.199648
30
0.0
11
0.012835
21
0.188156
31
0.0
0
LINE
8
TOP
10
0.012835
20
0.188156
30
0.0
11
0.007752
21
0.176099
31
0.0
0
LINE
8
TOP
10
0.007752
20
0.176099
30
0.0
11
0.003895
21
0.163596
31
0.0
0
LINE
8
TOP
10
0.003895
20
0.163596
30
0.0
11
0.001303
21
0.150771
31
0.0
0
LINE
8
TOP
10
0.001303
20
0.150771
30
0.0
11
0.000000
21
0.137751
31
0.0
0
LINE
8
TOP
10
0.000000
20
0.137751
30
0.0
11
0.000000
21
0.124667
31
0.0
0
LINE
8
TOP
10
0.000000
20
0.124667
30
0.0
11
0.001303
21
0.111647
31
0.0
0
LINE
8
TOP
10
0.001303
20
0.111647
30
0.0
11
0.003895
21
0.098822
31
0.0
0
LINE
8
TOP
10
0.003895
20
0.098822
30
0.0
11
0.007752
21
0.086319
31
0.0
0
LINE
8
TOP
10
0.007752
20
0.086319
30
0.0
11
0.012835
21
0.074262
31
0.0
0
LINE
8
TOP
10
0.012835
20
0.074262
30
0.0
11
0.019092
21
0.062771
31
0.0
0
LINE
8
TOP
10
0.019092
20
0.062771
30
0.0
11
0.026463
21
0.051960
31
0.0
0
LINE
8
TOP
10
0.026463
20
0.051960
30
0.0
11
0.034874
21
0.041937
31
0.0
0
LINE
8
TOP
10
0.034874
20
0.041937
30
0.0
11
0.044241
21
0.032800
31
0.0
0
LINE
8
TOP
10
0.044241
20
0.032800
30
0.0
11
0.054470
21
0.024642
31
0.0
0
LINE
8
TOP
10
0.054470
20
0.024642
30
0.0
11
0.065462
21
0.017543
31
0.0
0
LINE
8
TOP
10
0.065462
20
0.017543
30
0.0
11
0.077105
21
0.011574
31
0.0
0
LINE
8
TOP
10
0.077105
20
0.011574
30
0.0
11
0.089285
21
0.006794
31
0.0
0
LINE
8
TOP
10
0.089285
20
0.006794
30
0.0
11
0.101881
21
0.003250
31
0.0
0
LINE
8
TOP
10
0.101881
20
0.003250
30
0.0
11
0.114767
21
0.000978
31
0.0
0
LINE
8
TOP
10
0.114767
20
0.000978
30
0.0
11
0.127815
21
0.000000
31
0.0
0
LINE
8
TOP
10
0.127815
20
0.000000
30
0.0
11
0.140895
21
0.000326
31
0.0
0
LINE
8
TOP
10
0.140895
20
0.000326
30
0.0
11
0.153878
21
0.001953
31
0.0
0
LINE
8
TOP
10
0.153878
20
0.001953
30
0.0
11
0.166635
21
0.004865
31
0.0
0
LINE
8
TOP
10
0.166635
20
0.004865
30
0.0
11
0.179038
21
0.009032
31
0.0
0
LINE
8
TOP
10
0.179038
20
0.009032
30
0.0
11
0.190964
21
0.014414
31
0.0
0
LINE
8
TOP
10
0.190964
20
0.014414
30
0.0
11
0.202296
21
0.020956
31
0.0
0
LINE
8
TOP
10
0.202296
20
0.020956
30
0.0
11
0.212920
21
0.028594
31
0.0
0
LINE
8
TOP
10
0.212920
20
0.028594
30
0.0
11
0.222730
21
0.037252
31
0.0
0
LINE
8
TOP
10
0.222730
20
0.037252
30
0.0
11
0.231630
21
0.046843
31
0.0
0
LINE
8
TOP
10
0.231630
20
0.046843
30
0.0
11
0.239531
21
0.057273
31
0.0
0
LINE
8
TOP
10
0.239531
20
0.057273
30
0.0
11
0.246353
21
0.068438
31
0.0
0
LINE
8
TOP
10
0.246353
20
0.068438
30
0.0
11
0.252031
21
0.080227
31
0.0
0
LINE
8
TOP
10
0.252031
20
0.080227
30
0.0
11
0.256506
21
0.092523
31
0.0
0
LINE
8
TOP
10
0.256506
20
0.092523
30
0.0
11
0.259734
21
0.105203
31
0.0
0
LINE
8
TOP
10
0.259734
20
0.105203
30
0.0
11
0.261685
21
0.118141
31
0.0
0
LINE
8
TOP
10
0.261685
20
0.118141
30
0.0
11
0.262337
21
0.131209
31
0.0
0
LINE
8
TOP
10
0.223837
20
0.131209
30
0.0
11
0.223376
21
0.140444
31
0.0
0
LINE
8
TOP
10
0.223376
20
0.140444
30
0.0
11
0.221998
21
0.149587
31
0.0
0
LINE
8
TOP
10
0.221998
20
0.149587
30
0.0
11
0.219716
21
0.158548
31
0.0
0
LINE
8
TOP
10
0.219716
20
0.158548
30
0.0
11
0.216554
21
0.167237
31
0.0
0
LINE
8
TOP
10
0.216554
20
0.167237
30
0.0
11
0.212542
21
0.175567
31
0.0
0
LINE
8
TOP
10
0.212542
20
0.175567
30
0.0
11
0.207720
21
0.183457
31
0.0
0
LINE
8
TOP
10
0.207720
20
0.183457
30
0.0
11
0.202137
21
0.190828
31
0.0
0
LINE
8
TOP
10
0.202137
20
0.190828
30
0.0
11
0.195848
21
0.197606
31
0.0
0
LINE
8
TOP
10
0.195848
20
0.197606
30
0.0
11
0.188916
21
0.203724
31
0.0
0
LINE
8
TOP
10
0.188916
20
0.203724
30
0.0
11
0.181408
21
0.209122
31
0.0
0
LINE
8
TOP
10
0.181408
20
0.209122
30
0.0
11
0.173400
21
0.213745
31
0.0
0
LINE
8
TOP
10
0.173400
20
0.213745
30
0.0
11
0.164972
21
0.217548
31
0.0
0
LINE
8
TOP
10
0.164972
20
0.217548
30
0.0
11
0.156207
21
0.220493
31
0.0
0
LINE
8
TOP
10
0.156207
20
0.220493
30
0.0
11
0.147193
21
0.222550
31
0.0
0
LINE
8
TOP
10
0.147193
20
0.222550
30
0.0
11
0.138018
21
0.223700
31
0.0
0
LINE
8
TOP
10
0.138018
20
0.223700
30
0.0
11
0.128775
21
0.223930
31
0.0
0
LINE
8
TOP
10
0.128775
20
0.223930
30
0.0
11
0.119554
21
0.223239
31
0.0
0
LINE
8
TOP
10
0.119554
20
0.223239
30
0.0
11
0.110448
21
0.221634
31
0.0
0
LINE
8
TOP
10
0.110448
20
0.221634
30
0.0
11
0.101547
21
0.219129
31
0.0
0
LINE
8
TOP
10
0.101547
20
0.219129
30
0.0
11
0.092940
21
0.215751
31
0.0
0
LINE
8
TOP
10
0.092940
20
0.215751
30
0.0
11
0.084712
21
0.211533
31
0.0
0
LINE
8
TOP
10
0.084712
20
0.211533
30
0.0
11
0.076945
21
0.206516
31
0.0
0
LINE
8
TOP
10
0.076945
20
0.206516
30
0.0
11
0.069715
21
0.200751
31
0.0
0
LINE
8
TOP
10
0.069715
20
0.200751
30
0.0
11
0.063096
21
0.194295
31
0.0
0
LINE
8
TOP
10
0.063096
20
0.194295
30
0.0
11
0.057153
21
0.187212
31
0.0
0
LINE
8
TOP
10
0.057153
20
0.187212
30
0.0
11
0.051944
21
0.179572
31
0.0
0
LINE
8
TOP
10
0.051944
20
0.179572
30
0.0
11
0.047522
21
0.171452
31
0.0
0
LINE
8
TOP
10
0.047522
20
0.171452
30
0.0
11
0.043930
21
0.162932
31
0.0
0
LINE
8
TOP
10
0.043930
20
0.162932
30
0.0
11
0.041205
21
0.154096
31
0.0
0
LINE
8
TOP
10
0.041205
20
0.154096
30
0.0
11
0.039373
21
0.145033
31
0.0
0
LINE
8
TOP
10
0.039373
20
0.145033
30
0.0
11
0.038452
21
0.135832
31
0.0
0
LINE
8
TOP
10
0.038452
20
0.135832
30
0.0
11
0.038452
21
0.126586
31
0.0
0
LINE
8
TOP
10
0.038452
20
0.126586
30
0.0
11
0.039373
21
0.117386
31
0.0
0
LINE
8
TOP
10
0.039373
20
0.117386
30
0.0
11
0.041205
21
0.108322
31
0.0
0
LINE
8
TOP
10
0.041205
20
0.108322
30
0.0
11
0.043930
21
0.099487
31
0.0
0
LINE
8
TOP
10
0.043930
20
0.099487
30
0.0
11
0.047522
21
0.090966
31
0.0
0
LINE
8
TOP
10
0.047522
20
0.090966
30
0.0
11
0.051944
21
0.082846
31
0.0
0
LINE
8
TOP
10
0.051944
20
0.082846
30
0.0
11
0.057153
21
0.075206
31
0.0
0
LINE
8
TOP
10
0.057153
20
0.075206
30
0.0
11
0.063096
21
0.068123
31
0.0
0
LINE
8
TOP
10
0.063096
20
0.068123
30
0.0
11
0.069715
21
0.061667
31
0.0
0
LINE
8
TOP
10
0.069715
20
0.061667
30
0.0
11
0.076945
21
0.055902
31
0.0
0
LINE
8
TOP
10
0.076945
20
0.055902
30
0.0
11
0.084712
21
0.050885
31
0.0
0
LINE
8
TOP
10
0.084712
20
0.050885
30
0.0
11
0.092940
21
0.046667
31
0.0
0
LINE
8
TOP
10
0.092940
20
0.046667
30
0.0
11
0.101547
21
0.043289
31
0.0
0
LINE
8
TOP
10
0.101547
20
0.043289
30
0.0
11
0.110448
21
0.040785
31
0.0
0
LINE
8
TOP
10
0.110448
20
0.040785
30
0.0
11
0.119554
21
0.039179
31
0.0
0
LINE
8
TOP
10
0.119554
20
0.039179
30
0.0
11
0.128775
21
0.038488
31
0.0
0
LINE
8
TOP
10
0.128775
20
0.038488
30
0.0
11
0.138018
21
0.038719
31
0.0
0
LINE
8
TOP
10
0.138018
20
0.038719
30
0.0
11
0.147193
21
0.039868
31
0.0
0
LINE
8
TOP
10
0.147193
20
0.039868
30
0.0
11
0.156207
21
0.041926
31
0.0
0
LINE
8
TOP
10
0.156207
20
0.041926
30
0.0
11
0.164972
21
0.044871
31
0.0
0
LINE
8
TOP
10
0.164972
20
0.044871
30
0.0
11
0.173400
21
0.048674
31
0.0
0
LINE
8
TOP
10
0.173400
20
0.048674
30
0.0
11
0.181408
21
0.053297
31
0.0
0
LINE
8
TOP
10
0.181408
20
0.053297
30
0.0
11
0.188916
21
0.058694
31
0.0
0
LINE
8
TOP
10
0.188916
20
0.058694
30
0.0
11
0.195848
21
0.064813
31
0.0
0
LINE
8
TOP
10
0.195848
20
0.064813
30
0.0
11
0.202137
21
0.071591
31
0.0
0
LINE
8
TOP
10
0.202137
20
0.071591
30
0.0
11
0.207720
21
0.078961
31
0.0
0
LINE
8
TOP
10
0.207720
20
0.078961
30
0.0
11
0.212542
21
0.086851
31
0.0
0
LINE
8
TOP
10
0.212542
20
0.086851
30
0.0
11
0.216554
21
0.095182
31
0.0
0
LINE
8
TOP
10
0.216554
20
0.095182
30
0.0
11
0.219716
21
0.103871
31
0.0
0
LINE
8
TOP
10
0.219716
20
0.103871
30
0.0
11
0.221998
21
0.112831
31
0.0
0
LINE
8
TOP
10
0.221998
20
0.112831
30
0.0
11
0.223376
21
0.121974
31
0.0
0
LINE
8
TOP
10
0.223376
20
0.121974
30
0.0
11
0.223837
21
0.131209
31
0.0
0
ENDSEC
0
EOF
