0
SECTION
2
HEADER
9
$ACADVER
1
AC1009
0
ENDSEC
0
SECTION
2
TABLES
0
TABLE
2
LTYPE
70
3
0
LTYPE
2
CONTINUOUS
70
0
3
Solid line
72
65
73
0
40
0.0
0
LTYPE
2
HIDDEN
70
0
3
__ __ __ __ __
72
65
73
2
40
0.075000
49
0.050025
49
-0.024975
0
LTYPE
2
CENTER
70
0
3
___ _ ___ _ ___
72
65
73
4
40
0.174975
49
0.099975
49
-0.024975
49
0.024975
49
-0.024975
0
ENDTAB
0
TABLE
2
LAYER
70
6
0
LAYER
2
0
70
0
62
7
6
CONTINUOUS
0
LAYER
2
FRONT
70
0
62
7
6
CONTINUOUS
0
LAYER
2
FRONT_HID
70
0
62
7
6
HIDDEN
0
LAYER
2
LEFT
70
0
62
7
6
CONTINUOUS
0
LAYER
2
LEFT_HID
70
0
62
7
6
HIDDEN
0
LAYER
2
TOP
70
0
62
7
6
CONTINUOUS
0
ENDTAB
0
ENDSEC
0
SECTION
2
ENTITIES
0
LINE
8
FRONT
10
1.500000
20
0.644847
30
0.0
11
1.500000
21
0.665538
31
0.0
0
LINE
8
FRONT
10
1.500000
20
0.665538
30
0.0
11
0.794140
21
0.665538
31
0.0
0
LINE
8
FRONT
10
0.794140
20
0.644847
30
0.0
11
0.794140
21
0.665538
31
0.0
0
LINE
8
FRONT
10
1.500000
20
0.644847
30
0.0
11
0.794140
21
0.644847
31
0.0
0
LINE
8
FRONT
10
0.794140
20
0.665538
30
0.0
11
0.705860
21
0.665538
31
0.0
0
LINE
8
FRONT
10
0.794140
20
0.644847
30
0.0
11
0.705860
21
0.644847
31
0.0
0
LINE
8
FRONT
10
0.705860
20
0.644847
30
0.0
11
0.705860
21
0.665538
31
0.0
0
LINE
8
FRONT
10
0.705860
20
0.665538
30
0.0
11
0.000000
21
0.665538
31
0.0
0
LINE
8
FRONT
10
0.000000
20
0.644847
30
0.0
11
0.000000
21
0.665538
31
0.0
0
LINE
8
FRONT
10
0.705860
20
0.644847
30
0.0
11
0.000000
21
0.644847
31
0.0
0
LINE
8
FRONT_HID
6
HIDDEN
10
0.000000
20
0.665538
30
0.0
11
1.500000
21
0.665538
31
0.0
0
LINE
8
FRONT_HID
6
HIDDEN
10
0.000000
20
0.644847
30
0.0
11
1.500000
21
0.644847
31
0.0
0
LINE
8
FRONT_HID
6
HIDDEN
10
0.460328
20
0.644847
30
0.0
11
0.336183
21
0.644847
31
0.0
0
LINE
8
FRONT_HID
6
HIDDEN
10
0.336183
20
0.644847
30
0.0
11
0.460328
21
0.644847
31
0.0
0
LINE
8
FRONT_HID
6
HIDDEN
10
0.460328
20
0.644847
30
0.0
11
0.460328
21
0.665538
31
0.0
0
LINE
8
FRONT_HID
6
HIDDEN
10
0.460328
20
0.665538
30
0.0
11
0.336183
21
0.665538
31
0.0
0
LINE
8
FRONT_HID
6
HIDDEN
10
0.336183
20
0.665538
30
0.0
11
0.460328
21
0.665538
31
0.0
0
LINE
8
FRONT_HID
6
HIDDEN
10
1.163817
20
0.644847
30
0.0
11
1.039672
21
0.644847
31
0.0
0
LINE
8
FRONT_HID
6
HIDDEN
10
1.039672
20
0.644847
30
0.0
11
1.163817
21
0.644847
31
0.0
0
LINE
8
FRONT_HID
6
HIDDEN
10
1.163817
20
0.644847
30
0.0
11
1.163817
21
0.665538
31
0.0
0
LINE
8
FRONT_HID
6
HIDDEN
10
1.163817
20
0.665538
30
0.0
11
1.039672
21
0.665538
31
0.0
0
LINE
8
FRONT_HID
6
HIDDEN
10
1.039672
20
0.665538
30
0.0
11
1.163817
21
0.665538
31
0.0
0
LINE
8
FRONT_HID
6
HIDDEN
10
0.336183
20
0.665538
30
0.0
11
0.336183
21
0.644847
31
0.0
0
LINE
8
FRONT_HID
6
HIDDEN
10
1.039672
20
0.665538
30
0.0
11
1.039672
21
0.644847
31
0.0
0
LINE
8
LEFT
10
2.144847
20
0.644847
30
0.0
11
2.144847
21
0.665538
31
0.0
0
LINE
8
LEFT
10
1.800000
20
0.644847
30
0.0
11
1.800000
21
0.665538
31
0.0
0
LINE
8
LEFT
10
1.800000
20
0.665538
30
0.0
11
2.144847
21
0.665538
31
0.0
0
LINE
8
LEFT
10
1.800000
20
0.644847
30
0.0
11
2.144847
21
0.644847
31
0.0
0
LINE
8
LEFT_HID
6
HIDDEN
10
1.800000
20
0.665538
30
0.0
11
1.862404
21
0.665538
31
0.0
0
LINE
8
LEFT_HID
6
HIDDEN
10
1.862404
20
0.644847
30
0.0
11
1.862404
21
0.665538
31
0.0
0
LINE
8
LEFT_HID
6
HIDDEN
10
1.800000
20
0.644847
30
0.0
11
1.862404
21
0.644847
31
0.0
0
LINE
8
LEFT_HID
6
HIDDEN
10
1.862404
20
0.644847
30
0.0
11
1.862404
21
0.665538
31
0.0
0
LINE
8
LEFT_HID
6
HIDDEN
10
1.862404
20
0.665538
30
0.0
11
1.800000
21
0.665538
31
0.0
0
LINE
8
LEFT_HID
6
HIDDEN
10
1.862404
20
0.644847
30
0.0
11
1.800000
21
0.644847
31
0.0
0
LINE
8
LEFT_HID
6
HIDDEN
10
1.972424
20
0.644847
30
0.0
11
1.910351
21
0.644847
31
0.0
0
LINE
8
LEFT_HID
6
HIDDEN
10
1.910351
20
0.644847
30
0.0
11
2.034496
21
0.644847
31
0.0
0
LINE
8
LEFT_HID
6
HIDDEN
10
2.034496
20
0.644847
30
0.0
11
1.972424
21
0.644847
31
0.0
0
LINE
8
LEFT_HID
6
HIDDEN
10
1.972424
20
0.665538
30
0.0
11
1.910351
21
0.665538
31
0.0
0
LINE
8
LEFT_HID
6
HIDDEN
10
1.910351
20
0.665538
30
0.0
11
2.034496
21
0.665538
31
0.0
0
LINE
8
LEFT_HID
6
HIDDEN
10
2.034496
20
0.665538
30
0.0
11
1.972424
21
0.665538
31
0.0
0
LINE
8
LEFT_HID
6
HIDDEN
10
1.972424
20
0.644847
30
0.0
11
1.910351
21
0.644847
31
0.0
0
LINE
8
LEFT_HID
6
HIDDEN
10
1.910351
20
0.644847
30
0.0
11
2.034496
21
0.644847
31
0.0
0
LINE
8
LEFT_HID
6
HIDDEN
10
2.034496
20
0.644847
30
0.0
11
1.972424
21
0.644847
31
0.0
0
LINE
8
LEFT_HID
6
HIDDEN
10
1.972424
20
0.665538
30
0.0
11
1.910351
21
0.665538
31
0.0
0
LINE
8
LEFT_HID
6
HIDDEN
10
1.910351
20
0.665538
30
0.0
11
2.034496
21
0.665538
31
0.0
0
LINE
8
LEFT_HID
6
HIDDEN
10
2.034496
20
0.665538
30
0.0
11
1.972424
21
0.665538
31
0.0
0
LINE
8
LEFT_HID
6
HIDDEN
10
1.910351
20
0.665538
30
0.0
11
1.910351
21
0.644847
31
0.0
0
LINE
8
LEFT_HID
6
HIDDEN
10
2.034496
20
0.665538
30
0.0
11
2.034496
21
0.644847
31
0.0
0
LINE
8
LEFT_HID
6
HIDDEN
10
1.910351
20
0.665538
30
0.0
11
1.910351
21
0.644847
31
0.0
0
LINE
8
LEFT_HID
6
HIDDEN
10
2.034496
20
0.665538
30
0.0
11
2.034496
21
0.644847
31
0.0
0
LINE
8
TOP
10
0.000000
20
0.000000
30
0.0
11
1.500000
21
0.000000
31
0.0
0
LINE
8
TOP
10
1.500000
20
0.000000
30
0.0
11
1.500000
21
0.344847
31
0.0
0
LINE
8
TOP
10
1.500000
20
0.344847
30
0.0
11
0.794140
21
0.344847
31
0.0
0
LINE
8
TOP
10
0.794140
20
0.344847
30
0.0
11
0.794140
21
0.282443
31
0.0
0
LINE
8
TOP
10
0.794140
20
0.282443
30
0.0
11
0.705860
21
0.282443
31
0.0
0
LINE
8
TOP
10
0.705860
20
0.282443
30
0.0
11
0.705860
21
0.344847
31
0.0
0
LINE
8
TOP
10
0.705860
20
0.344847
30
0.0
11
0.000000
21
0.344847
31
0.0
0
LINE
8
TOP
10
0.000000
20
0.344847
30
0.0
11
0.000000
21
0.000000
31
0.0
0
LINE
8
TOP
10
0.460328
20
0.172424
30
0.0
11
0.460020
21
0.178604
31
0.0
0
LINE
8
TOP
10
0.460020
20
0.178604
30
0.0
11
0.459097
21
0.184723
31
0.0
0
LINE
8
TOP
10
0.459097
20
0.184723
30
0.0
11
0.457570
21
0.190720
31
0.0
0
LINE
8
TOP
10
0.457570
20
0.190720
30
0.0
11
0.455454
21
0.196535
31
0.0
0
LINE
8
TOP
10
0.455454
20
0.196535
30
0.0
11
0.452769
21
0.202110
31
0.0
0
LINE
8
TOP
10
0.452769
20
0.202110
30
0.0
11
0.449542
21
0.207390
31
0.0
0
LINE
8
TOP
10
0.449542
20
0.207390
30
0.0
11
0.445806
21
0.212323
31
0.0
0
LINE
8
TOP
10
0.445806
20
0.212323
30
0.0
11
0.441597
21
0.216859
31
0.0
0
LINE
8
TOP
10
0.441597
20
0.216859
30
0.0
11
0.436957
21
0.220954
31
0.0
0
LINE
8
TOP
10
0.436957
20
0.220954
30
0.0
11
0.431933
21
0.224566
31
0.0
0
LINE
8
TOP
10
0.431933
20
0.224566
30
0.0
11
0.426574
21
0.227660
31
0.0
0
LINE
8
TOP
10
0.426574
20
0.227660
30
0.0
11
0.420933
21
0.230205
31
0.0
0
LINE
8
TOP
10
0.420933
20
0.230205
30
0.0
11
0.415067
21
0.232176
31
0.0
0
LINE
8
TOP
10
0.415067
20
0.232176
30
0.0
11
0.409034
21
0.233553
31
0.0
0
LINE
8
TOP
10
0.409034
20
0.233553
30
0.0
11
0.402894
21
0.234323
31
0.0
0
LINE
8
TOP
10
0.402894
20
0.234323
30
0.0
11
0.396708
21
0.234477
31
0.0
0
LINE
8
TOP
10
0.396708
20
0.234477
30
0.0
11
0.390537
21
0.234015
31
0.0
0
LINE
8
TOP
10
0.390537
20
0.234015
30
0.0
11
0.384443
21
0.232940
31
0.0
0
LINE
8
TOP
10
0.384443
20
0.232940
30
0.0
11
0.378486
21
0.231264
31
0.0
0
LINE
8
TOP
10
0.378486
20
0.231264
30
0.0
11
0.372726
21
0.229003
31
0.0
0
LINE
8
TOP
10
0.372726
20
0.229003
30
0.0
11
0.367219
21
0.226180
31
0.0
0
LINE
8
TOP
10
0.367219
20
0.226180
30
0.0
11
0.362021
21
0.222823
31
0.0
0
LINE
8
TOP
10
0.362021
20
0.222823
30
0.0
11
0.357183
21
0.218965
31
0.0
0
LINE
8
TOP
10
0.357183
20
0.218965
30
0.0
11
0.352753
21
0.214644
31
0.0
0
LINE
8
TOP
10
0.352753
20
0.214644
30
0.0
11
0.348776
21
0.209903
31
0.0
0
LINE
8
TOP
10
0.348776
20
0.209903
30
0.0
11
0.345290
21
0.204791
31
0.0
0
LINE
8
TOP
10
0.345290
20
0.204791
30
0.0
11
0.342330
21
0.199356
31
0.0
0
LINE
8
TOP
10
0.342330
20
0.199356
30
0.0
11
0.339927
21
0.193654
31
0.0
0
LINE
8
TOP
10
0.339927
20
0.193654
30
0.0
11
0.338103
21
0.187741
31
0.0
0
LINE
8
TOP
10
0.338103
20
0.187741
30
0.0
11
0.336876
21
0.181675
31
0.0
0
LINE
8
TOP
10
0.336876
20
0.181675
30
0.0
11
0.336260
21
0.175518
31
0.0
0
LINE
8
TOP
10
0.336260
20
0.175518
30
0.0
11
0.336260
21
0.169330
31
0.0
0
LINE
8
TOP
10
0.336260
20
0.169330
30
0.0
11
0.336876
21
0.163172
31
0.0
0
LINE
8
TOP
10
0.336876
20
0.163172
30
0.0
11
0.338103
21
0.157107
31
0.0
0
LINE
8
TOP
10
0.338103
20
0.157107
30
0.0
11
0.339927
21
0.151194
31
0.0
0
LINE
8
TOP
10
0.339927
20
0.151194
30
0.0
11
0.342330
21
0.145491
31
0.0
0
LINE
8
TOP
10
0.342330
20
0.145491
30
0.0
11
0.345290
21
0.140057
31
0.0
0
LINE
8
TOP
10
0.345290
20
0.140057
30
0.0
11
0.348776
21
0.134944
31
0.0
0
LINE
8
TOP
10
0.348776
20
0.134944
30
0.0
11
0.352753
21
0.130204
31
0.0
0
LINE
8
TOP
10
0.352753
20
0.130204
30
0.0
11
0.357183
21
0.125883
31
0.0
0
LINE
8
TOP
10
0.357183
20
0.125883
30
0.0
11
0.362021
21
0.122025
31
0.0
0
LINE
8
TOP
10
0.362021
20
0.122025
30
0.0
11
0.367219
21
0.118667
31
0.0
0
LINE
8
TOP
10
0.367219
20
0.118667
30
0.0
11
0.372726
21
0.115844
31
0.0
0
LINE
8
TOP
10
0.372726
20
0.115844
30
0.0
11
0.378486
21
0.113583
31
0.0
0
LINE
8
TOP
10
0.378486
20
0.113583
30
0.0
11
0.384443
21
0.111907
31
0.0
0
LINE
8
TOP
10
0.384443
20
0.111907
30
0.0
11
0.390537
21
0.110833
31
0.0
0
LINE
8
TOP
10
0.390537
20
0.110833
30
0.0
11
0.396708
21
0.110370
31
0.0
0
LINE
8
TOP
10
0.396708
20
0.110370
30
0.0
11
0.402894
21
0.110525
31
0.0
0
LINE
8
TOP
10
0.402894
20
0.110525
30
0.0
11
0.409034
21
0.111294
31
0.0
0
LINE
8
TOP
10
0.409034
20
0.111294
30
0.0
11
0.415067
21
0.112671
31
0.0
0
LINE
8
TOP
10
0.415067
20
0.112671
30
0.0
11
0.420933
21
0.114642
31
0.0
0
LINE
8
TOP
10
0.420933
20
0.114642
30
0.0
11
0.426574
21
0.117187
31
0.0
0
LINE
8
TOP
10
0.426574
20
0.117187
30
0.0
11
0.431933
21
0.120281
31
0.0
0
LINE
8
TOP
10
0.431933
20
0.120281
30
0.0
11
0.436957
21
0.123893
31
0.0
0
LINE
8
TOP
10
0.436957
20
0.123893
30
0.0
11
0.441597
21
0.127988
31
0.0
0
LINE
8
TOP
10
0.441597
20
0.127988
30
0.0
11
0.445806
21
0.132524
31
0.0
0
LINE
8
TOP
10
0.445806
20
0.132524
30
0.0
11
0.449542
21
0.137457
31
0.0
0
LINE
8
TOP
10
0.449542
20
0.137457
30
0.0
11
0.452769
21
0.142737
31
0.0
0
LINE
8
TOP
10
0.452769
20
0.142737
30
0.0
11
0.455454
21
0.148313
31
0.0
0
LINE
8
TOP
10
0.455454
20
0.148313
30
0.0
11
0.457570
21
0.154128
31
0.0
0
LINE
8
TOP
10
0.457570
20
0.154128
30
0.0
11
0.459097
21
0.160124
31
0.0
0
LINE
8
TOP
10
0.459097
20
0.160124
30
0.0
11
0.460020
21
0.166243
31
0.0
0
LINE
8
TOP
10
0.460020
20
0.166243
30
0.0
11
0.460328
21
0.172424
31
0.0
0
LINE
8
TOP
10
1.163817
20
0.172424
30
0.0
11
1.163508
21
0.178604
31
0.0
0
LINE
8
TOP
10
1.163508
20
0.178604
30
0.0
11
1.162586
21
0.184723
31
0.0
0
LINE
8
TOP
10
1.162586
20
0.184723
30
0.0
11
1.161059
21
0.190720
31
0.0
0
LINE
8
TOP
10
1.161059
20
0.190720
30
0.0
11
1.158943
21
0.196535
31
0.0
0
LINE
8
TOP
10
1.158943
20
0.196535
30
0.0
11
1.156258
21
0.202110
31
0.0
0
LINE
8
TOP
10
1.156258
20
0.202110
30
0.0
11
1.153031
21
0.207390
31
0.0
0
LINE
8
TOP
10
1.153031
20
0.207390
30
0.0
11
1.149295
21
0.212323
31
0.0
0
LINE
8
TOP
10
1.149295
20
0.212323
30
0.0
11
1.145086
21
0.216859
31
0.0
0
LINE
8
TOP
10
1.145086
20
0.216859
30
0.0
11
1.140446
21
0.220954
31
0.0
0
LINE
8
TOP
10
1.140446
20
0.220954
30
0.0
11
1.135422
21
0.224566
31
0.0
0
LINE
8
TOP
10
1.135422
20
0.224566
30
0.0
11
1.130063
21
0.227660
31
0.0
0
LINE
8
TOP
10
1.130063
20
0.227660
30
0.0
11
1.124422
21
0.230205
31
0.0
0
LINE
8
TOP
10
1.124422
20
0.230205
30
0.0
11
1.118556
21
0.232176
31
0.0
0
LINE
8
TOP
10
1.118556
20
0.232176
30
0.0
11
1.112523
21
0.233553
31
0.0
0
LINE
8
TOP
10
1.112523
20
0.233553
30
0.0
11
1.106383
21
0.234323
31
0.0
0
LINE
8
TOP
10
1.106383
20
0.234323
30
0.0
11
1.100197
21
0.234477
31
0.0
0
LINE
8
TOP
10
1.100197
20
0.234477
30
0.0
11
1.094026
21
0.234015
31
0.0
0
LINE
8
TOP
10
1.094026
20
0.234015
30
0.0
11
1.087932
21
0.232940
31
0.0
0
LINE
8
TOP
10
1.087932
20
0.232940
30
0.0
11
1.081975
21
0.231264
31
0.0
0
LINE
8
TOP
10
1.081975
20
0.231264
30
0.0
11
1.076215
21
0.229003
31
0.0
0
LINE
8
TOP
10
1.076215
20
0.229003
30
0.0
11
1.070708
21
0.226180
31
0.0
0
LINE
8
TOP
10
1.070708
20
0.226180
30
0.0
11
1.065510
21
0.222823
31
0.0
0
LINE
8
TOP
10
1.065510
20
0.222823
30
0.0
11
1.060672
21
0.218965
31
0.0
0
LINE
8
TOP
10
1.060672
20
0.218965
30
0.0
11
1.056242
21
0.214644
31
0.0
0
LINE
8
TOP
10
1.056242
20
0.214644
30
0.0
11
1.052264
21
0.209903
31
0.0
0
LINE
8
TOP
10
1.052264
20
0.209903
30
0.0
11
1.048778
21
0.204791
31
0.0
0
LINE
8
TOP
10
1.048778
20
0.204791
30
0.0
11
1.045819
21
0.199356
31
0.0
0
LINE
8
TOP
10
1.045819
20
0.199356
30
0.0
11
1.043415
21
0.193654
31
0.0
0
LINE
8
TOP
10
1.043415
20
0.193654
30
0.0
11
1.041591
21
0.187741
31
0.0
0
LINE
8
TOP
10
1.041591
20
0.187741
30
0.0
11
1.040365
21
0.181675
31
0.0
0
LINE
8
TOP
10
1.040365
20
0.181675
30
0.0
11
1.039749
21
0.175518
31
0.0
0
LINE
8
TOP
10
1.039749
20
0.175518
30
0.0
11
1.039749
21
0.169330
31
0.0
0
LINE
8
TOP
10
1.039749
20
0.169330
30
0.0
11
1.040365
21
0.163172
31
0.0
0
LINE
8
TOP
10
1.040365
20
0.163172
30
0.0
11
1.041591
21
0.157107
31
0.0
0
LINE
8
TOP
10
1.041591
20
0.157107
30
0.0
11
1.043415
21
0.151194
31
0.0
0
LINE
8
TOP
10
1.043415
20
0.151194
30
0.0
11
1.045819
21
0.145491
31
0.0
0
LINE
8
TOP
10
1.045819
20
0.145491
30
0.0
11
1.048778
21
0.140057
31
0.0
0
LINE
8
TOP
10
1.048778
20
0.140057
30
0.0
11
1.052264
21
0.134944
31
0.0
0
LINE
8
TOP
10
1.052264
20
0.134944
30
0.0
11
1.056242
21
0.130204
31
0.0
0
LINE
8
TOP
10
1.056242
20
0.130204
30
0.0
11
1.060672
21
0.125883
31
0.0
0
LINE
8
TOP
10
1.060672
20
0.125883
30
0.0
11
1.065510
21
0.122025
31
0.0
0
LINE
8
TOP
10
1.065510
20
0.122025
30
0.0
11
1.070708
21
0.118667
31
0.0
0
LINE
8
TOP
10
1.070708
20
0.118667
30
0.0
11
1.076215
21
0.115844
31
0.0
0
LINE
8
TOP
10
1.076215
20
0.115844
30
0.0
11
1.081975
21
0.113583
31
0.0
0
LINE
8
TOP
10
1.081975
20
0.113583
30
0.0
11
1.087932
21
0.111907
31
0.0
0
LINE
8
TOP
10
1.087932
20
0.111907
30
0.0
11
1.094026
21
0.110833
31
0.0
0
LINE
8
TOP
10
1.094026
20
0.110833
30
0.0
11
1.100197
21
0.110370
31
0.0
0
LINE
8
TOP
10
1.100197
20
0.110370
30
0.0
11
1.106383
21
0.110525
31
0.0
0
LINE
8
TOP
10
1.106383
20
0.110525
30
0.0
11
1.112523
21
0.111294
31
0.0
0
LINE
8
TOP
10
1.112523
20
0.111294
30
0.0
11
1.118556
21
0.112671
31
0.0
0
LINE
8
TOP
10
1.118556
20
0.112671
30
0.0
11
1.124422
21
0.114642
31
0.0
0
LINE
8
TOP
10
1.124422
20
0.114642
30
0.0
11
1.130063
21
0.117187
31
0.0
0
LINE
8
TOP
10
1.130063
20
0.117187
30
0.0
11
1.135422
21
0.120281
31
0.0
0
LINE
8
TOP
10
1.135422
20
0.120281
30
0.0
11
1.140446
21
0.123893
31
0.0
0
LINE
8
TOP
10
1.140446
20
0.123893
30
0.0
11
1.145086
21
0.127988
31
0.0
0
LINE
8
TOP
10
1.145086
20
0.127988
30
0.0
11
1.149295
21
0.132524
31
0.0
0
LINE
8
TOP
10
1.149295
20
0.132524
30
0.0
11
1.153031
21
0.137457
31
0.0
0
LINE
8
TOP
10
1.153031
20
0.137457
30
0.0
11
1.156258
21
0.142737
31
0.0
0
LINE
8
TOP
10
1.156258
20
0.142737
30
0.0
11
1.158943
21
0.148313
31
0.0
0
LINE
8
TOP
10
1.158943
20
0.148313
30
0.0
11
1.161059
21
0.154128
31
0.0
0
LINE
8
TOP
10
1.161059
20
0.154128
30
0.0
11
1.162586
21
0.160124
31
0.0
0
LINE
8
TOP
10
1.162586
20
0.160124
30
0.0
11
1.163508
21
0.166243
31
0.0
0
LINE
8
TOP
10
1.163508
20
0.166243
30
0.0
11
1.163817
21
0.172424
31
0.0
0
ENDSEC
0
EOF
