0
SECTION
2
HEADER
9
$ACADVER
1
AC1009
0
ENDSEC
0
SECTION
2
TABLES
0
TABLE
2
LTYPE
70
3
0
LTYPE
2
CONTINUOUS
70
0
3
Solid line
72
65
73
0
40
0.0
0
LTYPE
2
HIDDEN
70
0
3
__ __ __ __ __
72
65
73
2
40
0.056250
49
0.037519
49
-0.018731
0
LTYPE
2
CENTER
70
0
3
___ _ ___ _ ___
72
65
73
4
40
0.131231
49
0.074981
49
-0.018731
49
0.018731
49
-0.018731
0
ENDTAB
0
TABLE
2
LAYER
70
6
0
LAYER
2
0
70
0
62
7
6
CONTINUOUS
0
LAYER
2
FRONT
70
0
62
7
6
CONTINUOUS
0
LAYER
2
FRONT_HID
70
0
62
7
6
HIDDEN
0
LAYER
2
LEFT
70
0
62
7
6
CONTINUOUS
0
LAYER
2
LEFT_HID
70
0
62
7
6
HIDDEN
0
LAYER
2
TOP
70
0
62
7
6
CONTINUOUS
0
ENDTAB
0
ENDSEC
0
SECTION
2
ENTITIES
0
LINE
8
FRONT
10
0.000000
20
2.025000
30
0.0
11
0.000000
21
1.275000
31
0.0
0
LINE
8
FRONT
10
1.125000
20
2.025000
30
0.0
11
1.125000
21
1.275000
31
0.0
0
LINE
8
FRONT
10
1.125000
20
2.025000
30
0.0
11
0.000000
21
2.025000
31
0.0
0
LINE
8
FRONT
10
1.125000
20
1.275000
30
0.0
11
0.000000
21
1.275000
31
0.0
0
LINE
8
FRONT_HID
6
HIDDEN
10
0.087500
20
2.025000
30
0.0
11
1.037500
21
2.025000
31
0.0
0
LINE
8
FRONT_HID
6
HIDDEN
10
1.037500
20
2.025000
30
0.0
11
0.087500
21
2.025000
31
0.0
0
LINE
8
FRONT_HID
6
HIDDEN
10
0.087500
20
2.025000
30
0.0
11
0.087500
21
1.325000
31
0.0
0
LINE
8
FRONT_HID
6
HIDDEN
10
0.087500
20
1.325000
30
0.0
11
1.037500
21
1.325000
31
0.0
0
LINE
8
FRONT_HID
6
HIDDEN
10
1.037500
20
2.025000
30
0.0
11
1.037500
21
1.325000
31
0.0
0
LINE
8
FRONT_HID
6
HIDDEN
10
1.037500
20
2.025000
30
0.0
11
1.037500
21
1.325000
31
0.0
0
LINE
8
FRONT_HID
6
HIDDEN
10
1.037500
20
1.325000
30
0.0
11
0.087500
21
1.325000
31
0.0
0
LINE
8
FRONT_HID
6
HIDDEN
10
0.087500
20
2.025000
30
0.0
11
0.087500
21
1.325000
31
0.0
0
LINE
8
LEFT
10
2.400000
20
2.025000
30
0.0
11
2.400000
21
1.275000
31
0.0
0
LINE
8
LEFT
10
1.350000
20
2.025000
30
0.0
11
1.350000
21
1.275000
31
0.0
0
LINE
8
LEFT
10
1.350000
20
1.275000
30
0.0
11
2.400000
21
1.275000
31
0.0
0
LINE
8
LEFT
10
1.350000
20
2.025000
30
0.0
11
2.400000
21
2.025000
31
0.0
0
LINE
8
LEFT_HID
6
HIDDEN
10
1.628750
20
2.025000
30
0.0
11
2.121250
21
2.025000
31
0.0
0
LINE
8
LEFT_HID
6
HIDDEN
10
2.121250
20
2.025000
30
0.0
11
1.628750
21
2.025000
31
0.0
0
LINE
8
LEFT_HID
6
HIDDEN
10
2.121250
20
2.025000
30
0.0
11
2.121250
21
1.325000
31
0.0
0
LINE
8
LEFT_HID
6
HIDDEN
10
2.121250
20
2.025000
30
0.0
11
2.121250
21
1.325000
31
0.0
0
LINE
8
LEFT_HID
6
HIDDEN
10
2.121250
20
1.325000
30
0.0
11
1.628750
21
1.325000
31
0.0
0
LINE
8
LEFT_HID
6
HIDDEN
10
1.628750
20
2.025000
30
0.0
11
1.628750
21
1.325000
31
0.0
0
LINE
8
LEFT_HID
6
HIDDEN
10
1.628750
20
2.025000
30
0.0
11
1.628750
21
1.325000
31
0.0
0
LINE
8
LEFT_HID
6
HIDDEN
10
1.628750
20
1.325000
30
0.0
11
2.121250
21
1.325000
31
0.0
0
LINE
8
TOP
10
0.000000
20
0.000000
30
0.0
11
1.125000
21
0.000000
31
0.0
0
LINE
8
TOP
10
0.000000
20
1.050000
30
0.0
11
0.000000
21
0.000000
31
0.0
0
LINE
8
TOP
10
1.125000
20
0.000000
30
0.0
11
1.125000
21
1.050000
31
0.0
0
LINE
8
TOP
10
1.125000
20
1.050000
30
0.0
11
0.000000
21
1.050000
31
0.0
0
LINE
8
TOP
10
0.087500
20
0.278750
30
0.0
11
1.037500
21
0.278750
31
0.0
0
LINE
8
TOP
10
0.087500
20
0.771250
30
0.0
11
0.087500
21
0.278750
31
0.0
0
LINE
8
TOP
10
1.037500
20
0.771250
30
0.0
11
0.087500
21
0.771250
31
0.0
0
LINE
8
TOP
10
1.037500
20
0.278750
30
0.0
11
1.037500
21
0.771250
31
0.0
0
ENDSEC
0
EOF
