0
SECTION
2
HEADER
9
$ACADVER
1
AC1009
0
ENDSEC
0
SECTION
2
TABLES
0
TABLE
2
LTYPE
70
3
0
LTYPE
2
CONTINUOUS
70
0
3
Solid line
72
65
73
0
40
0.0
0
LTYPE
2
HIDDEN
70
0
3
__ __ __ __ __
72
65
73
2
40
0.051923
49
0.034633
49
-0.017290
0
LTYPE
2
CENTER
70
0
3
___ _ ___ _ ___
72
65
73
4
40
0.121137
49
0.069213
49
-0.017290
49
0.017290
49
-0.017290
0
ENDTAB
0
TABLE
2
LAYER
70
7
0
LAYER
2
0
70
0
62
7
6
CONTINUOUS
0
LAYER
2
FRONT
70
0
62
7
6
CONTINUOUS
0
LAYER
2
FRONT_HID
70
0
62
7
6
HIDDEN
0
LAYER
2
LEFT
70
0
62
7
6
CONTINUOUS
0
LAYER
2
LEFT_HID
70
0
62
7
6
HIDDEN
0
LAYER
2
TOP
70
0
62
7
6
CONTINUOUS
0
LAYER
2
TOP_HID
70
0
62
7
6
HIDDEN
0
ENDTAB
0
ENDSEC
0
SECTION
2
ENTITIES
0
LINE
8
FRONT
10
0.319315
20
0.582692
30
0.0
11
0.319315
21
1.303846
31
0.0
0
LINE
8
FRONT
10
0.319315
20
1.303846
30
0.0
11
0.189507
21
1.303846
31
0.0
0
LINE
8
FRONT
10
0.189507
20
0.582692
30
0.0
11
0.189507
21
1.303846
31
0.0
0
LINE
8
FRONT
10
0.189507
20
1.303846
30
0.0
11
0.057692
21
1.303846
31
0.0
0
LINE
8
FRONT
10
0.057692
20
0.582692
30
0.0
11
0.057692
21
1.303846
31
0.0
0
LINE
8
FRONT
10
0.377007
20
0.582692
30
0.0
11
0.261622
21
0.582692
31
0.0
0
LINE
8
FRONT
10
0.261622
20
0.582692
30
0.0
11
0.117391
21
0.582692
31
0.0
0
LINE
8
FRONT
10
0.117391
20
0.582692
30
0.0
11
0.000000
21
0.582692
31
0.0
0
LINE
8
FRONT
10
0.377007
20
0.553846
30
0.0
11
0.377007
21
0.582692
31
0.0
0
LINE
8
FRONT
10
0.261622
20
0.553846
30
0.0
11
0.261622
21
0.582692
31
0.0
0
LINE
8
FRONT
10
0.377007
20
0.553846
30
0.0
11
0.261622
21
0.553846
31
0.0
0
LINE
8
FRONT
10
0.117391
20
0.553846
30
0.0
11
0.117391
21
0.582692
31
0.0
0
LINE
8
FRONT
10
0.261622
20
0.553846
30
0.0
11
0.117391
21
0.553846
31
0.0
0
LINE
8
FRONT
10
0.000000
20
0.553846
30
0.0
11
0.000000
21
0.582692
31
0.0
0
LINE
8
FRONT
10
0.117391
20
0.553846
30
0.0
11
0.000000
21
0.553846
31
0.0
0
LINE
8
FRONT
10
0.261622
20
0.553846
30
0.0
11
0.261622
21
0.265385
31
0.0
0
LINE
8
FRONT
10
0.117391
20
0.553846
30
0.0
11
0.117391
21
0.265385
31
0.0
0
LINE
8
FRONT
10
0.117391
20
0.265385
30
0.0
11
0.261622
21
0.265385
31
0.0
0
LINE
8
FRONT_HID
6
HIDDEN
10
0.261622
20
0.582692
30
0.0
11
0.189507
21
0.582692
31
0.0
0
LINE
8
FRONT_HID
6
HIDDEN
10
0.319315
20
0.582692
30
0.0
11
0.261622
21
0.582692
31
0.0
0
LINE
8
FRONT_HID
6
HIDDEN
10
0.261622
20
0.582692
30
0.0
11
0.319315
21
0.582692
31
0.0
0
LINE
8
FRONT_HID
6
HIDDEN
10
0.189507
20
0.582692
30
0.0
11
0.261622
21
0.582692
31
0.0
0
LINE
8
FRONT_HID
6
HIDDEN
10
0.117391
20
0.582692
30
0.0
11
0.057692
21
0.582692
31
0.0
0
LINE
8
FRONT_HID
6
HIDDEN
10
0.189507
20
0.582692
30
0.0
11
0.117391
21
0.582692
31
0.0
0
LINE
8
FRONT_HID
6
HIDDEN
10
0.319315
20
1.303846
30
0.0
11
0.057692
21
1.303846
31
0.0
0
LINE
8
FRONT_HID
6
HIDDEN
10
0.117391
20
0.582692
30
0.0
11
0.189507
21
0.582692
31
0.0
0
LINE
8
FRONT_HID
6
HIDDEN
10
0.057692
20
0.582692
30
0.0
11
0.117391
21
0.582692
31
0.0
0
LINE
8
LEFT
10
0.602488
20
0.582692
30
0.0
11
0.602488
21
1.303846
31
0.0
0
LINE
8
LEFT
10
0.631334
20
0.582692
30
0.0
11
0.631334
21
1.303846
31
0.0
0
LINE
8
LEFT
10
0.602488
20
1.303846
30
0.0
11
0.616911
21
1.303846
31
0.0
0
LINE
8
LEFT
10
0.616911
20
0.582692
30
0.0
11
0.616911
21
1.303846
31
0.0
0
LINE
8
LEFT
10
0.616911
20
1.303846
30
0.0
11
0.631334
21
1.303846
31
0.0
0
LINE
8
LEFT
10
0.584699
20
0.582692
30
0.0
11
0.616911
21
0.582692
31
0.0
0
LINE
8
LEFT
10
0.616911
20
0.582692
30
0.0
11
0.642391
21
0.582692
31
0.0
0
LINE
8
LEFT
10
0.584699
20
0.553846
30
0.0
11
0.584699
21
0.582692
31
0.0
0
LINE
8
LEFT
10
0.642391
20
0.553846
30
0.0
11
0.642391
21
0.582692
31
0.0
0
LINE
8
LEFT
10
0.616911
20
0.553846
30
0.0
11
0.616911
21
0.582692
31
0.0
0
LINE
8
LEFT
10
0.616911
20
0.553846
30
0.0
11
0.642391
21
0.553846
31
0.0
0
LINE
8
LEFT
10
0.584699
20
0.553846
30
0.0
11
0.616911
21
0.553846
31
0.0
0
LINE
8
LEFT
10
0.599122
20
0.553846
30
0.0
11
0.599122
21
0.265385
31
0.0
0
LINE
8
LEFT
10
0.627968
20
0.553846
30
0.0
11
0.627968
21
0.265385
31
0.0
0
LINE
8
LEFT
10
0.627968
20
0.265385
30
0.0
11
0.599122
21
0.265385
31
0.0
0
LINE
8
LEFT_HID
6
HIDDEN
10
0.610501
20
0.582692
30
0.0
11
0.602488
21
0.582692
31
0.0
0
LINE
8
LEFT_HID
6
HIDDEN
10
0.616911
20
0.582692
30
0.0
11
0.610501
21
0.582692
31
0.0
0
LINE
8
LEFT_HID
6
HIDDEN
10
0.623322
20
0.582692
30
0.0
11
0.616911
21
0.582692
31
0.0
0
LINE
8
LEFT_HID
6
HIDDEN
10
0.631334
20
0.582692
30
0.0
11
0.623322
21
0.582692
31
0.0
0
LINE
8
LEFT_HID
6
HIDDEN
10
0.610379
20
0.582692
30
0.0
11
0.616911
21
0.582692
31
0.0
0
LINE
8
LEFT_HID
6
HIDDEN
10
0.602488
20
0.582692
30
0.0
11
0.610379
21
0.582692
31
0.0
0
LINE
8
LEFT_HID
6
HIDDEN
10
0.623322
20
0.582692
30
0.0
11
0.642391
21
0.582692
31
0.0
0
LINE
8
LEFT_HID
6
HIDDEN
10
0.584699
20
0.582692
30
0.0
11
0.610501
21
0.582692
31
0.0
0
LINE
8
LEFT_HID
6
HIDDEN
10
0.610379
20
0.582692
30
0.0
11
0.584699
21
0.582692
31
0.0
0
LINE
8
LEFT_HID
6
HIDDEN
10
0.623444
20
0.582692
30
0.0
11
0.631334
21
0.582692
31
0.0
0
LINE
8
LEFT_HID
6
HIDDEN
10
0.616911
20
0.582692
30
0.0
11
0.623444
21
0.582692
31
0.0
0
LINE
8
LEFT_HID
6
HIDDEN
10
0.642391
20
0.582692
30
0.0
11
0.623444
21
0.582692
31
0.0
0
LINE
8
LEFT_HID
6
HIDDEN
10
0.584699
20
0.553846
30
0.0
11
0.599122
21
0.553846
31
0.0
0
LINE
8
LEFT_HID
6
HIDDEN
10
0.599122
20
0.553846
30
0.0
11
0.627968
21
0.553846
31
0.0
0
LINE
8
LEFT_HID
6
HIDDEN
10
0.627968
20
0.553846
30
0.0
11
0.642391
21
0.553846
31
0.0
0
LINE
8
LEFT_HID
6
HIDDEN
10
0.599122
20
0.553846
30
0.0
11
0.584699
21
0.553846
31
0.0
0
LINE
8
LEFT_HID
6
HIDDEN
10
0.642391
20
0.553846
30
0.0
11
0.627968
21
0.553846
31
0.0
0
LINE
8
LEFT_HID
6
HIDDEN
10
0.627968
20
0.553846
30
0.0
11
0.599122
21
0.553846
31
0.0
0
LINE
8
TOP
10
0.319315
20
0.025480
30
0.0
11
0.189507
21
0.039903
31
0.0
0
LINE
8
TOP
10
0.189507
20
0.011057
30
0.0
11
0.319315
21
0.025480
31
0.0
0
LINE
8
TOP
10
0.189507
20
0.039903
30
0.0
11
0.057692
21
0.025480
31
0.0
0
LINE
8
TOP
10
0.261622
20
0.000000
30
0.0
11
0.377007
21
0.025480
31
0.0
0
LINE
8
TOP
10
0.377007
20
0.025480
30
0.0
11
0.261622
21
0.057692
31
0.0
0
LINE
8
TOP
10
0.261622
20
0.057692
30
0.0
11
0.117391
21
0.057692
31
0.0
0
LINE
8
TOP
10
0.057692
20
0.025480
30
0.0
11
0.189507
21
0.011057
31
0.0
0
LINE
8
TOP
10
0.117391
20
0.000000
30
0.0
11
0.261622
21
0.000000
31
0.0
0
LINE
8
TOP
10
0.117391
20
0.057692
30
0.0
11
0.000000
21
0.025480
31
0.0
0
LINE
8
TOP
10
0.000000
20
0.025480
30
0.0
11
0.117391
21
0.000000
31
0.0
0
LINE
8
TOP_HID
6
HIDDEN
10
0.261622
20
0.031890
30
0.0
11
0.189507
21
0.039903
31
0.0
0
LINE
8
TOP_HID
6
HIDDEN
10
0.319315
20
0.025480
30
0.0
11
0.261622
21
0.031890
31
0.0
0
LINE
8
TOP_HID
6
HIDDEN
10
0.261622
20
0.019070
30
0.0
11
0.319315
21
0.025480
31
0.0
0
LINE
8
TOP_HID
6
HIDDEN
10
0.189507
20
0.011057
30
0.0
11
0.261622
21
0.019070
31
0.0
0
LINE
8
TOP_HID
6
HIDDEN
10
0.117391
20
0.032012
30
0.0
11
0.057692
21
0.025480
31
0.0
0
LINE
8
TOP_HID
6
HIDDEN
10
0.189507
20
0.039903
30
0.0
11
0.117391
21
0.032012
31
0.0
0
LINE
8
TOP_HID
6
HIDDEN
10
0.117391
20
0.018948
30
0.0
11
0.189507
21
0.011057
31
0.0
0
LINE
8
TOP_HID
6
HIDDEN
10
0.057692
20
0.025480
30
0.0
11
0.117391
21
0.018948
31
0.0
0
LINE
8
TOP_HID
6
HIDDEN
10
0.261622
20
0.043269
30
0.0
11
0.261622
21
0.014423
31
0.0
0
LINE
8
TOP_HID
6
HIDDEN
10
0.117391
20
0.043269
30
0.0
11
0.261622
21
0.043269
31
0.0
0
LINE
8
TOP_HID
6
HIDDEN
10
0.261622
20
0.014423
30
0.0
11
0.117391
21
0.014423
31
0.0
0
LINE
8
TOP_HID
6
HIDDEN
10
0.117391
20
0.014423
30
0.0
11
0.117391
21
0.043269
31
0.0
0
LINE
8
TOP_HID
6
HIDDEN
10
0.261622
20
0.043269
30
0.0
11
0.261622
21
0.014423
31
0.0
0
LINE
8
TOP_HID
6
HIDDEN
10
0.117391
20
0.043269
30
0.0
11
0.261622
21
0.043269
31
0.0
0
LINE
8
TOP_HID
6
HIDDEN
10
0.261622
20
0.014423
30
0.0
11
0.117391
21
0.014423
31
0.0
0
LINE
8
TOP_HID
6
HIDDEN
10
0.117391
20
0.014423
30
0.0
11
0.117391
21
0.043269
31
0.0
0
ENDSEC
0
EOF
