0
SECTION
2
HEADER
9
$ACADVER
1
AC1009
0
ENDSEC
0
SECTION
2
TABLES
0
TABLE
2
LTYPE
70
3
0
LTYPE
2
CONTINUOUS
70
0
3
Solid line
72
65
73
0
40
0.0
0
LTYPE
2
HIDDEN
70
0
3
__ __ __ __ __
72
65
73
2
40
0.075000
49
0.050025
49
-0.024975
0
LTYPE
2
CENTER
70
0
3
___ _ ___ _ ___
72
65
73
4
40
0.174975
49
0.099975
49
-0.024975
49
0.024975
49
-0.024975
0
ENDTAB
0
TABLE
2
LAYER
70
6
0
LAYER
2
0
70
0
62
7
6
CONTINUOUS
0
LAYER
2
FRONT
70
0
62
7
6
CONTINUOUS
0
LAYER
2
FRONT_HID
70
0
62
7
6
HIDDEN
0
LAYER
2
LEFT
70
0
62
7
6
CONTINUOUS
0
LAYER
2
LEFT_HID
70
0
62
7
6
HIDDEN
0
LAYER
2
TOP
70
0
62
7
6
CONTINUOUS
0
ENDTAB
0
ENDSEC
0
SECTION
2
ENTITIES
0
LINE
8
FRONT
10
1.500000
20
1.872705
30
0.0
11
1.500000
21
1.945875
31
0.0
0
LINE
8
FRONT
10
1.500000
20
1.872705
30
0.0
11
1.500000
21
1.799534
31
0.0
0
LINE
8
FRONT
10
1.500000
20
1.799534
30
0.0
11
0.000000
21
1.799534
31
0.0
0
LINE
8
FRONT
10
1.500000
20
1.945875
30
0.0
11
1.500000
21
1.982461
31
0.0
0
LINE
8
FRONT
10
1.500000
20
1.982461
30
0.0
11
0.000000
21
1.982461
31
0.0
0
LINE
8
FRONT
10
0.000000
20
1.945875
30
0.0
11
0.000000
21
1.872705
31
0.0
0
LINE
8
FRONT
10
0.000000
20
1.799534
30
0.0
11
0.000000
21
1.872705
31
0.0
0
LINE
8
FRONT
10
0.000000
20
1.982461
30
0.0
11
0.000000
21
1.945875
31
0.0
0
LINE
8
FRONT_HID
6
HIDDEN
10
1.481707
20
1.799534
30
0.0
11
1.435250
21
1.799534
31
0.0
0
LINE
8
FRONT_HID
6
HIDDEN
10
1.435250
20
1.799534
30
0.0
11
1.388792
21
1.799534
31
0.0
0
LINE
8
FRONT_HID
6
HIDDEN
10
1.388792
20
1.799534
30
0.0
11
1.342334
21
1.799534
31
0.0
0
LINE
8
FRONT_HID
6
HIDDEN
10
1.342334
20
1.799534
30
0.0
11
1.295877
21
1.799534
31
0.0
0
LINE
8
FRONT_HID
6
HIDDEN
10
1.295877
20
1.799534
30
0.0
11
1.249419
21
1.799534
31
0.0
0
LINE
8
FRONT_HID
6
HIDDEN
10
1.249419
20
1.799534
30
0.0
11
1.202962
21
1.799534
31
0.0
0
LINE
8
FRONT_HID
6
HIDDEN
10
1.202962
20
1.799534
30
0.0
11
1.156504
21
1.799534
31
0.0
0
LINE
8
FRONT_HID
6
HIDDEN
10
1.156504
20
1.799534
30
0.0
11
1.110046
21
1.799534
31
0.0
0
LINE
8
FRONT_HID
6
HIDDEN
10
1.110046
20
1.799534
30
0.0
11
1.063589
21
1.799534
31
0.0
0
LINE
8
FRONT_HID
6
HIDDEN
10
1.063589
20
1.799534
30
0.0
11
1.017131
21
1.799534
31
0.0
0
LINE
8
FRONT_HID
6
HIDDEN
10
1.017131
20
1.799534
30
0.0
11
0.970674
21
1.799534
31
0.0
0
LINE
8
FRONT_HID
6
HIDDEN
10
0.970674
20
1.799534
30
0.0
11
0.924216
21
1.799534
31
0.0
0
LINE
8
FRONT_HID
6
HIDDEN
10
0.924216
20
1.799534
30
0.0
11
0.877758
21
1.799534
31
0.0
0
LINE
8
FRONT_HID
6
HIDDEN
10
0.877758
20
1.799534
30
0.0
11
0.831301
21
1.799534
31
0.0
0
LINE
8
FRONT_HID
6
HIDDEN
10
0.831301
20
1.799534
30
0.0
11
0.784843
21
1.799534
31
0.0
0
LINE
8
FRONT_HID
6
HIDDEN
10
0.784843
20
1.799534
30
0.0
11
0.738386
21
1.799534
31
0.0
0
LINE
8
FRONT_HID
6
HIDDEN
10
0.738386
20
1.799534
30
0.0
11
0.691928
21
1.799534
31
0.0
0
LINE
8
FRONT_HID
6
HIDDEN
10
0.691928
20
1.799534
30
0.0
11
0.645470
21
1.799534
31
0.0
0
LINE
8
FRONT_HID
6
HIDDEN
10
0.645470
20
1.799534
30
0.0
11
0.599013
21
1.799534
31
0.0
0
LINE
8
FRONT_HID
6
HIDDEN
10
0.599013
20
1.799534
30
0.0
11
0.552555
21
1.799534
31
0.0
0
LINE
8
FRONT_HID
6
HIDDEN
10
0.552555
20
1.799534
30
0.0
11
0.506098
21
1.799534
31
0.0
0
LINE
8
FRONT_HID
6
HIDDEN
10
0.506098
20
1.799534
30
0.0
11
0.459640
21
1.799534
31
0.0
0
LINE
8
FRONT_HID
6
HIDDEN
10
0.459640
20
1.799534
30
0.0
11
0.413182
21
1.799534
31
0.0
0
LINE
8
FRONT_HID
6
HIDDEN
10
0.413182
20
1.799534
30
0.0
11
0.366725
21
1.799534
31
0.0
0
LINE
8
FRONT_HID
6
HIDDEN
10
0.366725
20
1.799534
30
0.0
11
0.320267
21
1.799534
31
0.0
0
LINE
8
FRONT_HID
6
HIDDEN
10
0.320267
20
1.799534
30
0.0
11
0.273810
21
1.799534
31
0.0
0
LINE
8
FRONT_HID
6
HIDDEN
10
0.273810
20
1.799534
30
0.0
11
0.227352
21
1.799534
31
0.0
0
LINE
8
FRONT_HID
6
HIDDEN
10
0.227352
20
1.799534
30
0.0
11
0.180894
21
1.799534
31
0.0
0
LINE
8
FRONT_HID
6
HIDDEN
10
0.180894
20
1.799534
30
0.0
11
0.134437
21
1.799534
31
0.0
0
LINE
8
FRONT_HID
6
HIDDEN
10
0.134437
20
1.799534
30
0.0
11
0.087979
21
1.799534
31
0.0
0
LINE
8
FRONT_HID
6
HIDDEN
10
0.087979
20
1.799534
30
0.0
11
0.041521
21
1.799534
31
0.0
0
LINE
8
FRONT_HID
6
HIDDEN
10
0.041521
20
1.799534
30
0.0
11
0.087979
21
1.799534
31
0.0
0
LINE
8
FRONT_HID
6
HIDDEN
10
0.087979
20
1.799534
30
0.0
11
0.134437
21
1.799534
31
0.0
0
LINE
8
FRONT_HID
6
HIDDEN
10
0.134437
20
1.799534
30
0.0
11
0.180894
21
1.799534
31
0.0
0
LINE
8
FRONT_HID
6
HIDDEN
10
0.180894
20
1.799534
30
0.0
11
0.227352
21
1.799534
31
0.0
0
LINE
8
FRONT_HID
6
HIDDEN
10
0.227352
20
1.799534
30
0.0
11
0.273810
21
1.799534
31
0.0
0
LINE
8
FRONT_HID
6
HIDDEN
10
0.273810
20
1.799534
30
0.0
11
0.320267
21
1.799534
31
0.0
0
LINE
8
FRONT_HID
6
HIDDEN
10
0.320267
20
1.799534
30
0.0
11
0.366725
21
1.799534
31
0.0
0
LINE
8
FRONT_HID
6
HIDDEN
10
0.366725
20
1.799534
30
0.0
11
0.413182
21
1.799534
31
0.0
0
LINE
8
FRONT_HID
6
HIDDEN
10
0.413182
20
1.799534
30
0.0
11
0.459640
21
1.799534
31
0.0
0
LINE
8
FRONT_HID
6
HIDDEN
10
0.459640
20
1.799534
30
0.0
11
0.506098
21
1.799534
31
0.0
0
LINE
8
FRONT_HID
6
HIDDEN
10
0.506098
20
1.799534
30
0.0
11
0.552555
21
1.799534
31
0.0
0
LINE
8
FRONT_HID
6
HIDDEN
10
0.552555
20
1.799534
30
0.0
11
0.599013
21
1.799534
31
0.0
0
LINE
8
FRONT_HID
6
HIDDEN
10
0.599013
20
1.799534
30
0.0
11
0.645470
21
1.799534
31
0.0
0
LINE
8
FRONT_HID
6
HIDDEN
10
0.645470
20
1.799534
30
0.0
11
0.691928
21
1.799534
31
0.0
0
LINE
8
FRONT_HID
6
HIDDEN
10
0.691928
20
1.799534
30
0.0
11
0.738386
21
1.799534
31
0.0
0
LINE
8
FRONT_HID
6
HIDDEN
10
0.738386
20
1.799534
30
0.0
11
0.784843
21
1.799534
31
0.0
0
LINE
8
FRONT_HID
6
HIDDEN
10
0.784843
20
1.799534
30
0.0
11
0.831301
21
1.799534
31
0.0
0
LINE
8
FRONT_HID
6
HIDDEN
10
0.831301
20
1.799534
30
0.0
11
0.877758
21
1.799534
31
0.0
0
LINE
8
FRONT_HID
6
HIDDEN
10
0.877758
20
1.799534
30
0.0
11
0.924216
21
1.799534
31
0.0
0
LINE
8
FRONT_HID
6
HIDDEN
10
0.924216
20
1.799534
30
0.0
11
0.970674
21
1.799534
31
0.0
0
LINE
8
FRONT_HID
6
HIDDEN
10
0.970674
20
1.799534
30
0.0
11
1.017131
21
1.799534
31
0.0
0
LINE
8
FRONT_HID
6
HIDDEN
10
1.017131
20
1.799534
30
0.0
11
1.063589
21
1.799534
31
0.0
0
LINE
8
FRONT_HID
6
HIDDEN
10
1.063589
20
1.799534
30
0.0
11
1.110046
21
1.799534
31
0.0
0
LINE
8
FRONT_HID
6
HIDDEN
10
1.110046
20
1.799534
30
0.0
11
1.156504
21
1.799534
31
0.0
0
LINE
8
FRONT_HID
6
HIDDEN
10
1.156504
20
1.799534
30
0.0
11
1.202962
21
1.799534
31
0.0
0
LINE
8
FRONT_HID
6
HIDDEN
10
1.202962
20
1.799534
30
0.0
11
1.249419
21
1.799534
31
0.0
0
LINE
8
FRONT_HID
6
HIDDEN
10
1.249419
20
1.799534
30
0.0
11
1.295877
21
1.799534
31
0.0
0
LINE
8
FRONT_HID
6
HIDDEN
10
1.295877
20
1.799534
30
0.0
11
1.342334
21
1.799534
31
0.0
0
LINE
8
FRONT_HID
6
HIDDEN
10
1.342334
20
1.799534
30
0.0
11
1.388792
21
1.799534
31
0.0
0
LINE
8
FRONT_HID
6
HIDDEN
10
1.388792
20
1.799534
30
0.0
11
1.435250
21
1.799534
31
0.0
0
LINE
8
FRONT_HID
6
HIDDEN
10
1.435250
20
1.799534
30
0.0
11
1.481707
21
1.799534
31
0.0
0
LINE
8
FRONT_HID
6
HIDDEN
10
1.481707
20
1.982461
30
0.0
11
1.435250
21
1.982461
31
0.0
0
LINE
8
FRONT_HID
6
HIDDEN
10
1.435250
20
1.982461
30
0.0
11
1.388792
21
1.982461
31
0.0
0
LINE
8
FRONT_HID
6
HIDDEN
10
1.388792
20
1.982461
30
0.0
11
1.342334
21
1.982461
31
0.0
0
LINE
8
FRONT_HID
6
HIDDEN
10
1.342334
20
1.982461
30
0.0
11
1.295877
21
1.982461
31
0.0
0
LINE
8
FRONT_HID
6
HIDDEN
10
1.295877
20
1.982461
30
0.0
11
1.249419
21
1.982461
31
0.0
0
LINE
8
FRONT_HID
6
HIDDEN
10
1.249419
20
1.982461
30
0.0
11
1.202962
21
1.982461
31
0.0
0
LINE
8
FRONT_HID
6
HIDDEN
10
1.202962
20
1.982461
30
0.0
11
1.156504
21
1.982461
31
0.0
0
LINE
8
FRONT_HID
6
HIDDEN
10
1.156504
20
1.982461
30
0.0
11
1.110046
21
1.982461
31
0.0
0
LINE
8
FRONT_HID
6
HIDDEN
10
1.110046
20
1.982461
30
0.0
11
1.063589
21
1.982461
31
0.0
0
LINE
8
FRONT_HID
6
HIDDEN
10
1.063589
20
1.982461
30
0.0
11
1.017131
21
1.982461
31
0.0
0
LINE
8
FRONT_HID
6
HIDDEN
10
1.017131
20
1.982461
30
0.0
11
0.970674
21
1.982461
31
0.0
0
LINE
8
FRONT_HID
6
HIDDEN
10
0.970674
20
1.982461
30
0.0
11
0.924216
21
1.982461
31
0.0
0
LINE
8
FRONT_HID
6
HIDDEN
10
0.924216
20
1.982461
30
0.0
11
0.877758
21
1.982461
31
0.0
0
LINE
8
FRONT_HID
6
HIDDEN
10
0.877758
20
1.982461
30
0.0
11
0.831301
21
1.982461
31
0.0
0
LINE
8
FRONT_HID
6
HIDDEN
10
0.831301
20
1.982461
30
0.0
11
0.784843
21
1.982461
31
0.0
0
LINE
8
FRONT_HID
6
HIDDEN
10
0.784843
20
1.982461
30
0.0
11
0.738386
21
1.982461
31
0.0
0
LINE
8
FRONT_HID
6
HIDDEN
10
0.738386
20
1.982461
30
0.0
11
0.691928
21
1.982461
31
0.0
0
LINE
8
FRONT_HID
6
HIDDEN
10
0.691928
20
1.982461
30
0.0
11
0.645470
21
1.982461
31
0.0
0
LINE
8
FRONT_HID
6
HIDDEN
10
0.645470
20
1.982461
30
0.0
11
0.599013
21
1.982461
31
0.0
0
LINE
8
FRONT_HID
6
HIDDEN
10
0.599013
20
1.982461
30
0.0
11
0.552555
21
1.982461
31
0.0
0
LINE
8
FRONT_HID
6
HIDDEN
10
0.552555
20
1.982461
30
0.0
11
0.506098
21
1.982461
31
0.0
0
LINE
8
FRONT_HID
6
HIDDEN
10
0.506098
20
1.982461
30
0.0
11
0.459640
21
1.982461
31
0.0
0
LINE
8
FRONT_HID
6
HIDDEN
10
0.459640
20
1.982461
30
0.0
11
0.413182
21
1.982461
31
0.0
0
LINE
8
FRONT_HID
6
HIDDEN
10
0.413182
20
1.982461
30
0.0
11
0.366725
21
1.982461
31
0.0
0
LINE
8
FRONT_HID
6
HIDDEN
10
0.366725
20
1.982461
30
0.0
11
0.320267
21
1.982461
31
0.0
0
LINE
8
FRONT_HID
6
HIDDEN
10
0.320267
20
1.982461
30
0.0
11
0.273810
21
1.982461
31
0.0
0
LINE
8
FRONT_HID
6
HIDDEN
10
0.273810
20
1.982461
30
0.0
11
0.227352
21
1.982461
31
0.0
0
LINE
8
FRONT_HID
6
HIDDEN
10
0.227352
20
1.982461
30
0.0
11
0.180894
21
1.982461
31
0.0
0
LINE
8
FRONT_HID
6
HIDDEN
10
0.180894
20
1.982461
30
0.0
11
0.134437
21
1.982461
31
0.0
0
LINE
8
FRONT_HID
6
HIDDEN
10
0.134437
20
1.982461
30
0.0
11
0.087979
21
1.982461
31
0.0
0
LINE
8
FRONT_HID
6
HIDDEN
10
0.087979
20
1.982461
30
0.0
11
0.041521
21
1.982461
31
0.0
0
LINE
8
FRONT_HID
6
HIDDEN
10
0.041521
20
1.982461
30
0.0
11
0.087979
21
1.982461
31
0.0
0
LINE
8
FRONT_HID
6
HIDDEN
10
0.087979
20
1.982461
30
0.0
11
0.134437
21
1.982461
31
0.0
0
LINE
8
FRONT_HID
6
HIDDEN
10
0.134437
20
1.982461
30
0.0
11
0.180894
21
1.982461
31
0.0
0
LINE
8
FRONT_HID
6
HIDDEN
10
0.180894
20
1.982461
30
0.0
11
0.227352
21
1.982461
31
0.0
0
LINE
8
FRONT_HID
6
HIDDEN
10
0.227352
20
1.982461
30
0.0
11
0.273810
21
1.982461
31
0.0
0
LINE
8
FRONT_HID
6
HIDDEN
10
0.273810
20
1.982461
30
0.0
11
0.320267
21
1.982461
31
0.0
0
LINE
8
FRONT_HID
6
HIDDEN
10
0.320267
20
1.982461
30
0.0
11
0.366725
21
1.982461
31
0.0
0
LINE
8
FRONT_HID
6
HIDDEN
10
0.366725
20
1.982461
30
0.0
11
0.413182
21
1.982461
31
0.0
0
LINE
8
FRONT_HID
6
HIDDEN
10
0.413182
20
1.982461
30
0.0
11
0.459640
21
1.982461
31
0.0
0
LINE
8
FRONT_HID
6
HIDDEN
10
0.459640
20
1.982461
30
0.0
11
0.506098
21
1.982461
31
0.0
0
LINE
8
FRONT_HID
6
HIDDEN
10
0.506098
20
1.982461
30
0.0
11
0.552555
21
1.982461
31
0.0
0
LINE
8
FRONT_HID
6
HIDDEN
10
0.552555
20
1.982461
30
0.0
11
0.599013
21
1.982461
31
0.0
0
LINE
8
FRONT_HID
6
HIDDEN
10
0.599013
20
1.982461
30
0.0
11
0.645470
21
1.982461
31
0.0
0
LINE
8
FRONT_HID
6
HIDDEN
10
0.645470
20
1.982461
30
0.0
11
0.691928
21
1.982461
31
0.0
0
LINE
8
FRONT_HID
6
HIDDEN
10
0.691928
20
1.982461
30
0.0
11
0.738386
21
1.982461
31
0.0
0
LINE
8
FRONT_HID
6
HIDDEN
10
0.738386
20
1.982461
30
0.0
11
0.784843
21
1.982461
31
0.0
0
LINE
8
FRONT_HID
6
HIDDEN
10
0.784843
20
1.982461
30
0.0
11
0.831301
21
1.982461
31
0.0
0
LINE
8
FRONT_HID
6
HIDDEN
10
0.831301
20
1.982461
30
0.0
11
0.877758
21
1.982461
31
0.0
0
LINE
8
FRONT_HID
6
HIDDEN
10
0.877758
20
1.982461
30
0.0
11
0.924216
21
1.982461
31
0.0
0
LINE
8
FRONT_HID
6
HIDDEN
10
0.924216
20
1.982461
30
0.0
11
0.970674
21
1.982461
31
0.0
0
LINE
8
FRONT_HID
6
HIDDEN
10
0.970674
20
1.982461
30
0.0
11
1.017131
21
1.982461
31
0.0
0
LINE
8
FRONT_HID
6
HIDDEN
10
1.017131
20
1.982461
30
0.0
11
1.063589
21
1.982461
31
0.0
0
LINE
8
FRONT_HID
6
HIDDEN
10
1.063589
20
1.982461
30
0.0
11
1.110046
21
1.982461
31
0.0
0
LINE
8
FRONT_HID
6
HIDDEN
10
1.110046
20
1.982461
30
0.0
11
1.156504
21
1.982461
31
0.0
0
LINE
8
FRONT_HID
6
HIDDEN
10
1.156504
20
1.982461
30
0.0
11
1.202962
21
1.982461
31
0.0
0
LINE
8
FRONT_HID
6
HIDDEN
10
1.202962
20
1.982461
30
0.0
11
1.249419
21
1.982461
31
0.0
0
LINE
8
FRONT_HID
6
HIDDEN
10
1.249419
20
1.982461
30
0.0
11
1.295877
21
1.982461
31
0.0
0
LINE
8
FRONT_HID
6
HIDDEN
10
1.295877
20
1.982461
30
0.0
11
1.342334
21
1.982461
31
0.0
0
LINE
8
FRONT_HID
6
HIDDEN
10
1.342334
20
1.982461
30
0.0
11
1.388792
21
1.982461
31
0.0
0
LINE
8
FRONT_HID
6
HIDDEN
10
1.388792
20
1.982461
30
0.0
11
1.435250
21
1.982461
31
0.0
0
LINE
8
FRONT_HID
6
HIDDEN
10
1.435250
20
1.982461
30
0.0
11
1.481707
21
1.982461
31
0.0
0
LINE
8
LEFT
10
1.800000
20
1.799534
30
0.0
11
3.300000
21
1.799534
31
0.0
0
LINE
8
LEFT
10
1.800000
20
1.982461
30
0.0
11
3.300000
21
1.982461
31
0.0
0
LINE
8
LEFT
10
1.800000
20
1.945875
30
0.0
11
1.800000
21
1.872705
31
0.0
0
LINE
8
LEFT
10
3.300000
20
1.945875
30
0.0
11
3.300000
21
1.872705
31
0.0
0
LINE
8
LEFT
10
3.300000
20
1.799534
30
0.0
11
3.300000
21
1.872705
31
0.0
0
LINE
8
LEFT
10
1.800000
20
1.799534
30
0.0
11
1.800000
21
1.872705
31
0.0
0
LINE
8
LEFT
10
1.800000
20
1.982461
30
0.0
11
1.800000
21
1.945875
31
0.0
0
LINE
8
LEFT
10
3.300000
20
1.982461
30
0.0
11
3.300000
21
1.945875
31
0.0
0
LINE
8
LEFT_HID
6
HIDDEN
10
2.550000
20
1.799534
30
0.0
11
1.800000
21
1.799534
31
0.0
0
LINE
8
LEFT_HID
6
HIDDEN
10
3.300000
20
1.799534
30
0.0
11
2.550000
21
1.799534
31
0.0
0
LINE
8
LEFT_HID
6
HIDDEN
10
2.550000
20
1.982461
30
0.0
11
1.800000
21
1.982461
31
0.0
0
LINE
8
LEFT_HID
6
HIDDEN
10
3.300000
20
1.982461
30
0.0
11
2.550000
21
1.982461
31
0.0
0
LINE
8
LEFT_HID
6
HIDDEN
10
2.550000
20
1.799534
30
0.0
11
2.504707
21
1.799534
31
0.0
0
LINE
8
LEFT_HID
6
HIDDEN
10
2.504707
20
1.799534
30
0.0
11
2.459414
21
1.799534
31
0.0
0
LINE
8
LEFT_HID
6
HIDDEN
10
2.459414
20
1.799534
30
0.0
11
2.414122
21
1.799534
31
0.0
0
LINE
8
LEFT_HID
6
HIDDEN
10
2.414122
20
1.799534
30
0.0
11
2.368829
21
1.799534
31
0.0
0
LINE
8
LEFT_HID
6
HIDDEN
10
2.368829
20
1.799534
30
0.0
11
2.323536
21
1.799534
31
0.0
0
LINE
8
LEFT_HID
6
HIDDEN
10
2.323536
20
1.799534
30
0.0
11
2.278243
21
1.799534
31
0.0
0
LINE
8
LEFT_HID
6
HIDDEN
10
2.278243
20
1.799534
30
0.0
11
2.232950
21
1.799534
31
0.0
0
LINE
8
LEFT_HID
6
HIDDEN
10
2.232950
20
1.799534
30
0.0
11
2.187657
21
1.799534
31
0.0
0
LINE
8
LEFT_HID
6
HIDDEN
10
2.187657
20
1.799534
30
0.0
11
2.142365
21
1.799534
31
0.0
0
LINE
8
LEFT_HID
6
HIDDEN
10
2.142365
20
1.799534
30
0.0
11
2.097072
21
1.799534
31
0.0
0
LINE
8
LEFT_HID
6
HIDDEN
10
2.097072
20
1.799534
30
0.0
11
2.051779
21
1.799534
31
0.0
0
LINE
8
LEFT_HID
6
HIDDEN
10
2.051779
20
1.799534
30
0.0
11
2.006486
21
1.799534
31
0.0
0
LINE
8
LEFT_HID
6
HIDDEN
10
2.006486
20
1.799534
30
0.0
11
1.961193
21
1.799534
31
0.0
0
LINE
8
LEFT_HID
6
HIDDEN
10
1.961193
20
1.799534
30
0.0
11
1.915901
21
1.799534
31
0.0
0
LINE
8
LEFT_HID
6
HIDDEN
10
1.915901
20
1.799534
30
0.0
11
1.870608
21
1.799534
31
0.0
0
LINE
8
LEFT_HID
6
HIDDEN
10
1.870608
20
1.799534
30
0.0
11
1.847961
21
1.799534
31
0.0
0
LINE
8
LEFT_HID
6
HIDDEN
10
1.847961
20
1.799534
30
0.0
11
1.893254
21
1.799534
31
0.0
0
LINE
8
LEFT_HID
6
HIDDEN
10
1.893254
20
1.799534
30
0.0
11
1.938547
21
1.799534
31
0.0
0
LINE
8
LEFT_HID
6
HIDDEN
10
1.938547
20
1.799534
30
0.0
11
1.983840
21
1.799534
31
0.0
0
LINE
8
LEFT_HID
6
HIDDEN
10
1.983840
20
1.799534
30
0.0
11
2.029133
21
1.799534
31
0.0
0
LINE
8
LEFT_HID
6
HIDDEN
10
2.029133
20
1.799534
30
0.0
11
2.074425
21
1.799534
31
0.0
0
LINE
8
LEFT_HID
6
HIDDEN
10
2.074425
20
1.799534
30
0.0
11
2.119718
21
1.799534
31
0.0
0
LINE
8
LEFT_HID
6
HIDDEN
10
2.119718
20
1.799534
30
0.0
11
2.165011
21
1.799534
31
0.0
0
LINE
8
LEFT_HID
6
HIDDEN
10
2.165011
20
1.799534
30
0.0
11
2.210304
21
1.799534
31
0.0
0
LINE
8
LEFT_HID
6
HIDDEN
10
2.210304
20
1.799534
30
0.0
11
2.255597
21
1.799534
31
0.0
0
LINE
8
LEFT_HID
6
HIDDEN
10
2.255597
20
1.799534
30
0.0
11
2.300889
21
1.799534
31
0.0
0
LINE
8
LEFT_HID
6
HIDDEN
10
2.300889
20
1.799534
30
0.0
11
2.346182
21
1.799534
31
0.0
0
LINE
8
LEFT_HID
6
HIDDEN
10
2.346182
20
1.799534
30
0.0
11
2.391475
21
1.799534
31
0.0
0
LINE
8
LEFT_HID
6
HIDDEN
10
2.391475
20
1.799534
30
0.0
11
2.436768
21
1.799534
31
0.0
0
LINE
8
LEFT_HID
6
HIDDEN
10
2.436768
20
1.799534
30
0.0
11
2.482061
21
1.799534
31
0.0
0
LINE
8
LEFT_HID
6
HIDDEN
10
2.482061
20
1.799534
30
0.0
11
2.527354
21
1.799534
31
0.0
0
LINE
8
LEFT_HID
6
HIDDEN
10
2.527354
20
1.799534
30
0.0
11
2.572646
21
1.799534
31
0.0
0
LINE
8
LEFT_HID
6
HIDDEN
10
2.572646
20
1.799534
30
0.0
11
2.617939
21
1.799534
31
0.0
0
LINE
8
LEFT_HID
6
HIDDEN
10
2.617939
20
1.799534
30
0.0
11
2.663232
21
1.799534
31
0.0
0
LINE
8
LEFT_HID
6
HIDDEN
10
2.663232
20
1.799534
30
0.0
11
2.708525
21
1.799534
31
0.0
0
LINE
8
LEFT_HID
6
HIDDEN
10
2.708525
20
1.799534
30
0.0
11
2.753818
21
1.799534
31
0.0
0
LINE
8
LEFT_HID
6
HIDDEN
10
2.753818
20
1.799534
30
0.0
11
2.799111
21
1.799534
31
0.0
0
LINE
8
LEFT_HID
6
HIDDEN
10
2.799111
20
1.799534
30
0.0
11
2.844403
21
1.799534
31
0.0
0
LINE
8
LEFT_HID
6
HIDDEN
10
2.844403
20
1.799534
30
0.0
11
2.889696
21
1.799534
31
0.0
0
LINE
8
LEFT_HID
6
HIDDEN
10
2.889696
20
1.799534
30
0.0
11
2.934989
21
1.799534
31
0.0
0
LINE
8
LEFT_HID
6
HIDDEN
10
2.934989
20
1.799534
30
0.0
11
2.980282
21
1.799534
31
0.0
0
LINE
8
LEFT_HID
6
HIDDEN
10
2.980282
20
1.799534
30
0.0
11
3.025575
21
1.799534
31
0.0
0
LINE
8
LEFT_HID
6
HIDDEN
10
3.025575
20
1.799534
30
0.0
11
3.070867
21
1.799534
31
0.0
0
LINE
8
LEFT_HID
6
HIDDEN
10
3.070867
20
1.799534
30
0.0
11
3.116160
21
1.799534
31
0.0
0
LINE
8
LEFT_HID
6
HIDDEN
10
3.116160
20
1.799534
30
0.0
11
3.161453
21
1.799534
31
0.0
0
LINE
8
LEFT_HID
6
HIDDEN
10
3.161453
20
1.799534
30
0.0
11
3.206746
21
1.799534
31
0.0
0
LINE
8
LEFT_HID
6
HIDDEN
10
3.206746
20
1.799534
30
0.0
11
3.252039
21
1.799534
31
0.0
0
LINE
8
LEFT_HID
6
HIDDEN
10
3.252039
20
1.799534
30
0.0
11
3.229392
21
1.799534
31
0.0
0
LINE
8
LEFT_HID
6
HIDDEN
10
3.229392
20
1.799534
30
0.0
11
3.184099
21
1.799534
31
0.0
0
LINE
8
LEFT_HID
6
HIDDEN
10
3.184099
20
1.799534
30
0.0
11
3.138807
21
1.799534
31
0.0
0
LINE
8
LEFT_HID
6
HIDDEN
10
3.138807
20
1.799534
30
0.0
11
3.093514
21
1.799534
31
0.0
0
LINE
8
LEFT_HID
6
HIDDEN
10
3.093514
20
1.799534
30
0.0
11
3.048221
21
1.799534
31
0.0
0
LINE
8
LEFT_HID
6
HIDDEN
10
3.048221
20
1.799534
30
0.0
11
3.002928
21
1.799534
31
0.0
0
LINE
8
LEFT_HID
6
HIDDEN
10
3.002928
20
1.799534
30
0.0
11
2.957635
21
1.799534
31
0.0
0
LINE
8
LEFT_HID
6
HIDDEN
10
2.957635
20
1.799534
30
0.0
11
2.912343
21
1.799534
31
0.0
0
LINE
8
LEFT_HID
6
HIDDEN
10
2.912343
20
1.799534
30
0.0
11
2.867050
21
1.799534
31
0.0
0
LINE
8
LEFT_HID
6
HIDDEN
10
2.867050
20
1.799534
30
0.0
11
2.821757
21
1.799534
31
0.0
0
LINE
8
LEFT_HID
6
HIDDEN
10
2.821757
20
1.799534
30
0.0
11
2.776464
21
1.799534
31
0.0
0
LINE
8
LEFT_HID
6
HIDDEN
10
2.776464
20
1.799534
30
0.0
11
2.731171
21
1.799534
31
0.0
0
LINE
8
LEFT_HID
6
HIDDEN
10
2.731171
20
1.799534
30
0.0
11
2.685878
21
1.799534
31
0.0
0
LINE
8
LEFT_HID
6
HIDDEN
10
2.685878
20
1.799534
30
0.0
11
2.640586
21
1.799534
31
0.0
0
LINE
8
LEFT_HID
6
HIDDEN
10
2.640586
20
1.799534
30
0.0
11
2.595293
21
1.799534
31
0.0
0
LINE
8
LEFT_HID
6
HIDDEN
10
2.595293
20
1.799534
30
0.0
11
2.550000
21
1.799534
31
0.0
0
LINE
8
LEFT_HID
6
HIDDEN
10
2.550000
20
1.982461
30
0.0
11
2.504707
21
1.982461
31
0.0
0
LINE
8
LEFT_HID
6
HIDDEN
10
2.504707
20
1.982461
30
0.0
11
2.459414
21
1.982461
31
0.0
0
LINE
8
LEFT_HID
6
HIDDEN
10
2.459414
20
1.982461
30
0.0
11
2.414122
21
1.982461
31
0.0
0
LINE
8
LEFT_HID
6
HIDDEN
10
2.414122
20
1.982461
30
0.0
11
2.368829
21
1.982461
31
0.0
0
LINE
8
LEFT_HID
6
HIDDEN
10
2.368829
20
1.982461
30
0.0
11
2.323536
21
1.982461
31
0.0
0
LINE
8
LEFT_HID
6
HIDDEN
10
2.323536
20
1.982461
30
0.0
11
2.278243
21
1.982461
31
0.0
0
LINE
8
LEFT_HID
6
HIDDEN
10
2.278243
20
1.982461
30
0.0
11
2.232950
21
1.982461
31
0.0
0
LINE
8
LEFT_HID
6
HIDDEN
10
2.232950
20
1.982461
30
0.0
11
2.187657
21
1.982461
31
0.0
0
LINE
8
LEFT_HID
6
HIDDEN
10
2.187657
20
1.982461
30
0.0
11
2.142365
21
1.982461
31
0.0
0
LINE
8
LEFT_HID
6
HIDDEN
10
2.142365
20
1.982461
30
0.0
11
2.097072
21
1.982461
31
0.0
0
LINE
8
LEFT_HID
6
HIDDEN
10
2.097072
20
1.982461
30
0.0
11
2.051779
21
1.982461
31
0.0
0
LINE
8
LEFT_HID
6
HIDDEN
10
2.051779
20
1.982461
30
0.0
11
2.006486
21
1.982461
31
0.0
0
LINE
8
LEFT_HID
6
HIDDEN
10
2.006486
20
1.982461
30
0.0
11
1.961193
21
1.982461
31
0.0
0
LINE
8
LEFT_HID
6
HIDDEN
10
1.961193
20
1.982461
30
0.0
11
1.915901
21
1.982461
31
0.0
0
LINE
8
LEFT_HID
6
HIDDEN
10
1.915901
20
1.982461
30
0.0
11
1.870608
21
1.982461
31
0.0
0
LINE
8
LEFT_HID
6
HIDDEN
10
1.870608
20
1.982461
30
0.0
11
1.847961
21
1.982461
31
0.0
0
LINE
8
LEFT_HID
6
HIDDEN
10
1.847961
20
1.982461
30
0.0
11
1.893254
21
1.982461
31
0.0
0
LINE
8
LEFT_HID
6
HIDDEN
10
1.893254
20
1.982461
30
0.0
11
1.938547
21
1.982461
31
0.0
0
LINE
8
LEFT_HID
6
HIDDEN
10
1.938547
20
1.982461
30
0.0
11
1.983840
21
1.982461
31
0.0
0
LINE
8
LEFT_HID
6
HIDDEN
10
1.983840
20
1.982461
30
0.0
11
2.029133
21
1.982461
31
0.0
0
LINE
8
LEFT_HID
6
HIDDEN
10
2.029133
20
1.982461
30
0.0
11
2.074425
21
1.982461
31
0.0
0
LINE
8
LEFT_HID
6
HIDDEN
10
2.074425
20
1.982461
30
0.0
11
2.119718
21
1.982461
31
0.0
0
LINE
8
LEFT_HID
6
HIDDEN
10
2.119718
20
1.982461
30
0.0
11
2.165011
21
1.982461
31
0.0
0
LINE
8
LEFT_HID
6
HIDDEN
10
2.165011
20
1.982461
30
0.0
11
2.210304
21
1.982461
31
0.0
0
LINE
8
LEFT_HID
6
HIDDEN
10
2.210304
20
1.982461
30
0.0
11
2.255597
21
1.982461
31
0.0
0
LINE
8
LEFT_HID
6
HIDDEN
10
2.255597
20
1.982461
30
0.0
11
2.300889
21
1.982461
31
0.0
0
LINE
8
LEFT_HID
6
HIDDEN
10
2.300889
20
1.982461
30
0.0
11
2.346182
21
1.982461
31
0.0
0
LINE
8
LEFT_HID
6
HIDDEN
10
2.346182
20
1.982461
30
0.0
11
2.391475
21
1.982461
31
0.0
0
LINE
8
LEFT_HID
6
HIDDEN
10
2.391475
20
1.982461
30
0.0
11
2.436768
21
1.982461
31
0.0
0
LINE
8
LEFT_HID
6
HIDDEN
10
2.436768
20
1.982461
30
0.0
11
2.482061
21
1.982461
31
0.0
0
LINE
8
LEFT_HID
6
HIDDEN
10
2.482061
20
1.982461
30
0.0
11
2.527354
21
1.982461
31
0.0
0
LINE
8
LEFT_HID
6
HIDDEN
10
2.527354
20
1.982461
30
0.0
11
2.572646
21
1.982461
31
0.0
0
LINE
8
LEFT_HID
6
HIDDEN
10
2.572646
20
1.982461
30
0.0
11
2.617939
21
1.982461
31
0.0
0
LINE
8
LEFT_HID
6
HIDDEN
10
2.617939
20
1.982461
30
0.0
11
2.663232
21
1.982461
31
0.0
0
LINE
8
LEFT_HID
6
HIDDEN
10
2.663232
20
1.982461
30
0.0
11
2.708525
21
1.982461
31
0.0
0
LINE
8
LEFT_HID
6
HIDDEN
10
2.708525
20
1.982461
30
0.0
11
2.753818
21
1.982461
31
0.0
0
LINE
8
LEFT_HID
6
HIDDEN
10
2.753818
20
1.982461
30
0.0
11
2.799111
21
1.982461
31
0.0
0
LINE
8
LEFT_HID
6
HIDDEN
10
2.799111
20
1.982461
30
0.0
11
2.844403
21
1.982461
31
0.0
0
LINE
8
LEFT_HID
6
HIDDEN
10
2.844403
20
1.982461
30
0.0
11
2.889696
21
1.982461
31
0.0
0
LINE
8
LEFT_HID
6
HIDDEN
10
2.889696
20
1.982461
30
0.0
11
2.934989
21
1.982461
31
0.0
0
LINE
8
LEFT_HID
6
HIDDEN
10
2.934989
20
1.982461
30
0.0
11
2.980282
21
1.982461
31
0.0
0
LINE
8
LEFT_HID
6
HIDDEN
10
2.980282
20
1.982461
30
0.0
11
3.025575
21
1.982461
31
0.0
0
LINE
8
LEFT_HID
6
HIDDEN
10
3.025575
20
1.982461
30
0.0
11
3.070867
21
1.982461
31
0.0
0
LINE
8
LEFT_HID
6
HIDDEN
10
3.070867
20
1.982461
30
0.0
11
3.116160
21
1.982461
31
0.0
0
LINE
8
LEFT_HID
6
HIDDEN
10
3.116160
20
1.982461
30
0.0
11
3.161453
21
1.982461
31
0.0
0
LINE
8
LEFT_HID
6
HIDDEN
10
3.161453
20
1.982461
30
0.0
11
3.206746
21
1.982461
31
0.0
0
LINE
8
LEFT_HID
6
HIDDEN
10
3.206746
20
1.982461
30
0.0
11
3.252039
21
1.982461
31
0.0
0
LINE
8
LEFT_HID
6
HIDDEN
10
3.252039
20
1.982461
30
0.0
11
3.229392
21
1.982461
31
0.0
0
LINE
8
LEFT_HID
6
HIDDEN
10
3.229392
20
1.982461
30
0.0
11
3.184099
21
1.982461
31
0.0
0
LINE
8
LEFT_HID
6
HIDDEN
10
3.184099
20
1.982461
30
0.0
11
3.138807
21
1.982461
31
0.0
0
LINE
8
LEFT_HID
6
HIDDEN
10
3.138807
20
1.982461
30
0.0
11
3.093514
21
1.982461
31
0.0
0
LINE
8
LEFT_HID
6
HIDDEN
10
3.093514
20
1.982461
30
0.0
11
3.048221
21
1.982461
31
0.0
0
LINE
8
LEFT_HID
6
HIDDEN
10
3.048221
20
1.982461
30
0.0
11
3.002928
21
1.982461
31
0.0
0
LINE
8
LEFT_HID
6
HIDDEN
10
3.002928
20
1.982461
30
0.0
11
2.957635
21
1.982461
31
0.0
0
LINE
8
LEFT_HID
6
HIDDEN
10
2.957635
20
1.982461
30
0.0
11
2.912343
21
1.982461
31
0.0
0
LINE
8
LEFT_HID
6
HIDDEN
10
2.912343
20
1.982461
30
0.0
11
2.867050
21
1.982461
31
0.0
0
LINE
8
LEFT_HID
6
HIDDEN
10
2.867050
20
1.982461
30
0.0
11
2.821757
21
1.982461
31
0.0
0
LINE
8
LEFT_HID
6
HIDDEN
10
2.821757
20
1.982461
30
0.0
11
2.776464
21
1.982461
31
0.0
0
LINE
8
LEFT_HID
6
HIDDEN
10
2.776464
20
1.982461
30
0.0
11
2.731171
21
1.982461
31
0.0
0
LINE
8
LEFT_HID
6
HIDDEN
10
2.731171
20
1.982461
30
0.0
11
2.685878
21
1.982461
31
0.0
0
LINE
8
LEFT_HID
6
HIDDEN
10
2.685878
20
1.982461
30
0.0
11
2.640586
21
1.982461
31
0.0
0
LINE
8
LEFT_HID
6
HIDDEN
10
2.640586
20
1.982461
30
0.0
11
2.595293
21
1.982461
31
0.0
0
LINE
8
LEFT_HID
6
HIDDEN
10
2.595293
20
1.982461
30
0.0
11
2.550000
21
1.982461
31
0.0
0
LINE
8
TOP
10
1.499068
20
0.749767
30
0.0
11
1.495341
21
0.824443
31
0.0
0
LINE
8
TOP
10
1.495341
20
0.824443
30
0.0
11
1.484197
21
0.898376
31
0.0
0
LINE
8
TOP
10
1.484197
20
0.898376
30
0.0
11
1.465747
21
0.970833
31
0.0
0
LINE
8
TOP
10
1.465747
20
0.970833
30
0.0
11
1.440175
21
1.041093
31
0.0
0
LINE
8
TOP
10
1.440175
20
1.041093
30
0.0
11
1.407734
21
1.108457
31
0.0
0
LINE
8
TOP
10
1.407734
20
1.108457
30
0.0
11
1.368747
21
1.172257
31
0.0
0
LINE
8
TOP
10
1.368747
20
1.172257
30
0.0
11
1.323601
21
1.231858
31
0.0
0
LINE
8
TOP
10
1.323601
20
1.231858
30
0.0
11
1.272745
21
1.286667
31
0.0
0
LINE
8
TOP
10
1.272745
20
1.286667
30
0.0
11
1.216685
21
1.336140
31
0.0
0
LINE
8
TOP
10
1.216685
20
1.336140
30
0.0
11
1.155977
21
1.379786
31
0.0
0
LINE
8
TOP
10
1.155977
20
1.379786
30
0.0
11
1.091226
21
1.417171
31
0.0
0
LINE
8
TOP
10
1.091226
20
1.417171
30
0.0
11
1.023073
21
1.447922
31
0.0
0
LINE
8
TOP
10
1.023073
20
1.447922
30
0.0
11
0.952198
21
1.471735
31
0.0
0
LINE
8
TOP
10
0.952198
20
1.471735
30
0.0
11
0.879304
21
1.488373
31
0.0
0
LINE
8
TOP
10
0.879304
20
1.488373
30
0.0
11
0.805115
21
1.497670
31
0.0
0
LINE
8
TOP
10
0.805115
20
1.497670
30
0.0
11
0.730370
21
1.499534
31
0.0
0
LINE
8
TOP
10
0.730370
20
1.499534
30
0.0
11
0.655810
21
1.493946
31
0.0
0
LINE
8
TOP
10
0.655810
20
1.493946
30
0.0
11
0.582177
21
1.480963
31
0.0
0
LINE
8
TOP
10
0.582177
20
1.480963
30
0.0
11
0.510203
21
1.460712
31
0.0
0
LINE
8
TOP
10
0.510203
20
1.460712
30
0.0
11
0.440602
21
1.433396
31
0.0
0
LINE
8
TOP
10
0.440602
20
1.433396
30
0.0
11
0.374068
21
1.399286
31
0.0
0
LINE
8
TOP
10
0.374068
20
1.399286
30
0.0
11
0.311260
21
1.358720
31
0.0
0
LINE
8
TOP
10
0.311260
20
1.358720
30
0.0
11
0.252803
21
1.312103
31
0.0
0
LINE
8
TOP
10
0.252803
20
1.312103
30
0.0
11
0.199279
21
1.259896
31
0.0
0
LINE
8
TOP
10
0.199279
20
1.259896
30
0.0
11
0.151218
21
1.202620
31
0.0
0
LINE
8
TOP
10
0.151218
20
1.202620
30
0.0
11
0.109100
21
1.140843
31
0.0
0
LINE
8
TOP
10
0.109100
20
1.140843
30
0.0
11
0.073341
21
1.075180
31
0.0
0
LINE
8
TOP
10
0.073341
20
1.075180
30
0.0
11
0.044298
21
1.006282
31
0.0
0
LINE
8
TOP
10
0.044298
20
1.006282
30
0.0
11
0.022260
21
0.934835
31
0.0
0
LINE
8
TOP
10
0.022260
20
0.934835
30
0.0
11
0.007445
21
0.861549
31
0.0
0
LINE
8
TOP
10
0.007445
20
0.861549
30
0.0
11
0.000000
21
0.787151
31
0.0
0
LINE
8
TOP
10
0.000000
20
0.787151
30
0.0
11
0.000000
21
0.712382
31
0.0
0
LINE
8
TOP
10
0.000000
20
0.712382
30
0.0
11
0.007445
21
0.637985
31
0.0
0
LINE
8
TOP
10
0.007445
20
0.637985
30
0.0
11
0.022260
21
0.564699
31
0.0
0
LINE
8
TOP
10
0.022260
20
0.564699
30
0.0
11
0.044298
21
0.493252
31
0.0
0
LINE
8
TOP
10
0.044298
20
0.493252
30
0.0
11
0.073341
21
0.424354
31
0.0
0
LINE
8
TOP
10
0.073341
20
0.424354
30
0.0
11
0.109100
21
0.358690
31
0.0
0
LINE
8
TOP
10
0.109100
20
0.358690
30
0.0
11
0.151218
21
0.296914
31
0.0
0
LINE
8
TOP
10
0.151218
20
0.296914
30
0.0
11
0.199279
21
0.239637
31
0.0
0
LINE
8
TOP
10
0.199279
20
0.239637
30
0.0
11
0.252803
21
0.187431
31
0.0
0
LINE
8
TOP
10
0.252803
20
0.187431
30
0.0
11
0.311260
21
0.140813
31
0.0
0
LINE
8
TOP
10
0.311260
20
0.140813
30
0.0
11
0.374068
21
0.100248
31
0.0
0
LINE
8
TOP
10
0.374068
20
0.100248
30
0.0
11
0.440602
21
0.066137
31
0.0
0
LINE
8
TOP
10
0.440602
20
0.066137
30
0.0
11
0.510203
21
0.038821
31
0.0
0
LINE
8
TOP
10
0.510203
20
0.038821
30
0.0
11
0.582177
21
0.018571
31
0.0
0
LINE
8
TOP
10
0.582177
20
0.018571
30
0.0
11
0.655810
21
0.005587
31
0.0
0
LINE
8
TOP
10
0.655810
20
0.005587
30
0.0
11
0.730370
21
0.000000
31
0.0
0
LINE
8
TOP
10
0.730370
20
0.000000
30
0.0
11
0.805115
21
0.001864
31
0.0
0
LINE
8
TOP
10
0.805115
20
0.001864
30
0.0
11
0.879304
21
0.011161
31
0.0
0
LINE
8
TOP
10
0.879304
20
0.011161
30
0.0
11
0.952198
21
0.027799
31
0.0
0
LINE
8
TOP
10
0.952198
20
0.027799
30
0.0
11
1.023073
21
0.051612
31
0.0
0
LINE
8
TOP
10
1.023073
20
0.051612
30
0.0
11
1.091226
21
0.082363
31
0.0
0
LINE
8
TOP
10
1.091226
20
0.082363
30
0.0
11
1.155977
21
0.119747
31
0.0
0
LINE
8
TOP
10
1.155977
20
0.119747
30
0.0
11
1.216685
21
0.163393
31
0.0
0
LINE
8
TOP
10
1.216685
20
0.163393
30
0.0
11
1.272745
21
0.212867
31
0.0
0
LINE
8
TOP
10
1.272745
20
0.212867
30
0.0
11
1.323601
21
0.267676
31
0.0
0
LINE
8
TOP
10
1.323601
20
0.267676
30
0.0
11
1.368747
21
0.327277
31
0.0
0
LINE
8
TOP
10
1.368747
20
0.327277
30
0.0
11
1.407734
21
0.391076
31
0.0
0
LINE
8
TOP
10
1.407734
20
0.391076
30
0.0
11
1.440175
21
0.458441
31
0.0
0
LINE
8
TOP
10
1.440175
20
0.458441
30
0.0
11
1.465747
21
0.528701
31
0.0
0
LINE
8
TOP
10
1.465747
20
0.528701
30
0.0
11
1.484197
21
0.601157
31
0.0
0
LINE
8
TOP
10
1.484197
20
0.601157
30
0.0
11
1.495341
21
0.675091
31
0.0
0
LINE
8
TOP
10
1.495341
20
0.675091
30
0.0
11
1.499068
21
0.749767
31
0.0
0
ENDSEC
0
EOF
