0
SECTION
2
HEADER
9
$ACADVER
1
AC1009
0
ENDSEC
0
SECTION
2
TABLES
0
TABLE
2
LTYPE
70
3
0
LTYPE
2
CONTINUOUS
70
0
3
Solid line
72
65
73
0
40
0.0
0
LTYPE
2
HIDDEN
70
0
3
__ __ __ __ __
72
65
73
2
40
0.049545
49
0.033047
49
-0.016499
0
LTYPE
2
CENTER
70
0
3
___ _ ___ _ ___
72
65
73
4
40
0.115589
49
0.066044
49
-0.016499
49
0.016499
49
-0.016499
0
ENDTAB
0
TABLE
2
LAYER
70
7
0
LAYER
2
0
70
0
62
7
6
CONTINUOUS
0
LAYER
2
FRONT
70
0
62
7
6
CONTINUOUS
0
LAYER
2
FRONT_HID
70
0
62
7
6
HIDDEN
0
LAYER
2
LEFT
70
0
62
7
6
CONTINUOUS
0
LAYER
2
LEFT_HID
70
0
62
7
6
HIDDEN
0
LAYER
2
TOP
70
0
62
7
6
CONTINUOUS
0
LAYER
2
TOP_HID
70
0
62
7
6
HIDDEN
0
ENDTAB
0
ENDSEC
0
SECTION
2
ENTITIES
0
LINE
8
FRONT
10
0.000000
20
0.764005
30
0.0
11
0.620692
21
0.764005
31
0.0
0
LINE
8
FRONT
10
0.000000
20
0.904526
30
0.0
11
0.000000
21
0.764005
31
0.0
0
LINE
8
FRONT
10
0.620692
20
0.764005
30
0.0
11
0.620692
21
0.904526
31
0.0
0
LINE
8
FRONT
10
0.620692
20
0.904526
30
0.0
11
0.446823
21
0.904526
31
0.0
0
LINE
8
FRONT
10
0.446823
20
0.904526
30
0.0
11
0.173868
21
0.904526
31
0.0
0
LINE
8
FRONT
10
0.173868
20
0.904526
30
0.0
11
0.000000
21
0.904526
31
0.0
0
LINE
8
FRONT
10
0.353044
20
0.904526
30
0.0
11
0.353044
21
1.754909
31
0.0
0
LINE
8
FRONT
10
0.353044
20
1.754909
30
0.0
11
0.271481
21
1.754909
31
0.0
0
LINE
8
FRONT
10
0.271481
20
0.904526
30
0.0
11
0.271481
21
1.754909
31
0.0
0
LINE
8
FRONT_HID
6
HIDDEN
10
0.271481
20
0.904526
30
0.0
11
0.353044
21
0.904526
31
0.0
0
LINE
8
FRONT_HID
6
HIDDEN
10
0.353044
20
0.904526
30
0.0
11
0.271481
21
0.904526
31
0.0
0
LINE
8
LEFT
10
1.384697
20
0.764005
30
0.0
11
0.818873
21
0.764005
31
0.0
0
LINE
8
LEFT
10
1.384697
20
0.904526
30
0.0
11
0.818873
21
0.904526
31
0.0
0
LINE
8
LEFT
10
0.818873
20
0.904526
30
0.0
11
0.818873
21
0.764005
31
0.0
0
LINE
8
LEFT
10
1.384697
20
0.904526
30
0.0
11
1.384697
21
0.764005
31
0.0
0
LINE
8
LEFT
10
1.192532
20
0.904526
30
0.0
11
1.192532
21
1.754909
31
0.0
0
LINE
8
LEFT
10
1.007161
20
0.904526
30
0.0
11
1.007161
21
1.754909
31
0.0
0
LINE
8
LEFT
10
1.007161
20
1.754909
30
0.0
11
1.192532
21
1.754909
31
0.0
0
LINE
8
LEFT_HID
6
HIDDEN
10
1.007161
20
0.904526
30
0.0
11
1.192532
21
0.904526
31
0.0
0
LINE
8
LEFT_HID
6
HIDDEN
10
1.192532
20
0.904526
30
0.0
11
1.007161
21
0.904526
31
0.0
0
LINE
8
TOP
10
0.000000
20
0.000000
30
0.0
11
0.000000
21
0.565824
31
0.0
0
LINE
8
TOP
10
0.620692
20
0.000000
30
0.0
11
0.620692
21
0.565824
31
0.0
0
LINE
8
TOP
10
0.620692
20
0.000000
30
0.0
11
0.446823
21
0.000000
31
0.0
0
LINE
8
TOP
10
0.446823
20
0.000000
30
0.0
11
0.173868
21
0.000000
31
0.0
0
LINE
8
TOP
10
0.173868
20
0.000000
30
0.0
11
0.000000
21
0.000000
31
0.0
0
LINE
8
TOP
10
0.620692
20
0.565824
30
0.0
11
0.446823
21
0.565824
31
0.0
0
LINE
8
TOP
10
0.446823
20
0.565824
30
0.0
11
0.173868
21
0.565824
31
0.0
0
LINE
8
TOP
10
0.173868
20
0.565824
30
0.0
11
0.000000
21
0.565824
31
0.0
0
LINE
8
TOP
10
0.271481
20
0.192165
30
0.0
11
0.353044
21
0.192165
31
0.0
0
LINE
8
TOP
10
0.353044
20
0.192165
30
0.0
11
0.353044
21
0.377536
31
0.0
0
LINE
8
TOP
10
0.353044
20
0.377536
30
0.0
11
0.271481
21
0.377536
31
0.0
0
LINE
8
TOP
10
0.271481
20
0.377536
30
0.0
11
0.271481
21
0.192165
31
0.0
0
LINE
8
TOP_HID
6
HIDDEN
10
0.000000
20
0.565824
30
0.0
11
0.620692
21
0.565824
31
0.0
0
LINE
8
TOP_HID
6
HIDDEN
10
0.000000
20
0.000000
30
0.0
11
0.620692
21
0.000000
31
0.0
0
ENDSEC
0
EOF
