0
SECTION
2
HEADER
9
$ACADVER
1
AC1009
0
ENDSEC
0
SECTION
2
TABLES
0
TABLE
2
LTYPE
70
3
0
LTYPE
2
CONTINUOUS
70
0
3
Solid line
72
65
73
0
40
0.0
0
LTYPE
2
HIDDEN
70
0
3
__ __ __ __ __
72
65
73
2
40
0.075000
49
0.050025
49
-0.024975
0
LTYPE
2
CENTER
70
0
3
___ _ ___ _ ___
72
65
73
4
40
0.174975
49
0.099975
49
-0.024975
49
0.024975
49
-0.024975
0
ENDTAB
0
TABLE
2
LAYER
70
6
0
LAYER
2
0
70
0
62
7
6
CONTINUOUS
0
LAYER
2
FRONT
70
0
62
7
6
CONTINUOUS
0
LAYER
2
FRONT_HID
70
0
62
7
6
HIDDEN
0
LAYER
2
LEFT
70
0
62
7
6
CONTINUOUS
0
LAYER
2
LEFT_HID
70
0
62
7
6
HIDDEN
0
LAYER
2
TOP
70
0
62
7
6
CONTINUOUS
0
ENDTAB
0
ENDSEC
0
SECTION
2
ENTITIES
0
LINE
8
FRONT
10
1.500000
20
0.574123
30
0.0
11
1.362939
21
0.574123
31
0.0
0
LINE
8
FRONT
10
1.500000
20
0.738596
30
0.0
11
1.362939
21
0.738596
31
0.0
0
LINE
8
FRONT
10
1.362939
20
0.738596
30
0.0
11
0.137061
21
0.738596
31
0.0
0
LINE
8
FRONT
10
1.362939
20
0.574123
30
0.0
11
0.137061
21
0.574123
31
0.0
0
LINE
8
FRONT
10
0.137061
20
0.574123
30
0.0
11
0.000000
21
0.574123
31
0.0
0
LINE
8
FRONT
10
0.137061
20
0.738596
30
0.0
11
0.000000
21
0.738596
31
0.0
0
LINE
8
FRONT
10
1.362939
20
0.574123
30
0.0
11
1.362939
21
0.738596
31
0.0
0
LINE
8
FRONT
10
0.137061
20
0.574123
30
0.0
11
0.137061
21
0.738596
31
0.0
0
LINE
8
FRONT
10
1.500000
20
0.738596
30
0.0
11
1.500000
21
0.574123
31
0.0
0
LINE
8
FRONT
10
0.000000
20
0.738596
30
0.0
11
0.000000
21
0.574123
31
0.0
0
LINE
8
FRONT_HID
6
HIDDEN
10
0.233004
20
0.574123
30
0.0
11
0.041118
21
0.574123
31
0.0
0
LINE
8
FRONT_HID
6
HIDDEN
10
0.041118
20
0.574123
30
0.0
11
0.233004
21
0.574123
31
0.0
0
LINE
8
FRONT_HID
6
HIDDEN
10
0.233004
20
0.574123
30
0.0
11
0.233004
21
0.738596
31
0.0
0
LINE
8
FRONT_HID
6
HIDDEN
10
0.233004
20
0.738596
30
0.0
11
0.041118
21
0.738596
31
0.0
0
LINE
8
FRONT_HID
6
HIDDEN
10
0.041118
20
0.738596
30
0.0
11
0.233004
21
0.738596
31
0.0
0
LINE
8
FRONT_HID
6
HIDDEN
10
1.458882
20
0.574123
30
0.0
11
1.266996
21
0.574123
31
0.0
0
LINE
8
FRONT_HID
6
HIDDEN
10
1.266996
20
0.574123
30
0.0
11
1.458882
21
0.574123
31
0.0
0
LINE
8
FRONT_HID
6
HIDDEN
10
1.458882
20
0.574123
30
0.0
11
1.458882
21
0.738596
31
0.0
0
LINE
8
FRONT_HID
6
HIDDEN
10
1.458882
20
0.738596
30
0.0
11
1.266996
21
0.738596
31
0.0
0
LINE
8
FRONT_HID
6
HIDDEN
10
1.266996
20
0.738596
30
0.0
11
1.458882
21
0.738596
31
0.0
0
LINE
8
FRONT_HID
6
HIDDEN
10
0.041118
20
0.738596
30
0.0
11
0.041118
21
0.574123
31
0.0
0
LINE
8
FRONT_HID
6
HIDDEN
10
1.266996
20
0.738596
30
0.0
11
1.266996
21
0.574123
31
0.0
0
LINE
8
LEFT
10
2.074123
20
0.574123
30
0.0
11
2.074123
21
0.738596
31
0.0
0
LINE
8
LEFT
10
1.800000
20
0.574123
30
0.0
11
1.800000
21
0.738596
31
0.0
0
LINE
8
LEFT
10
1.800000
20
0.574123
30
0.0
11
2.074123
21
0.574123
31
0.0
0
LINE
8
LEFT
10
1.800000
20
0.738596
30
0.0
11
2.074123
21
0.738596
31
0.0
0
LINE
8
LEFT_HID
6
HIDDEN
10
1.937061
20
0.574123
30
0.0
11
1.841118
21
0.574123
31
0.0
0
LINE
8
LEFT_HID
6
HIDDEN
10
1.841118
20
0.574123
30
0.0
11
2.033004
21
0.574123
31
0.0
0
LINE
8
LEFT_HID
6
HIDDEN
10
2.033004
20
0.574123
30
0.0
11
1.937061
21
0.574123
31
0.0
0
LINE
8
LEFT_HID
6
HIDDEN
10
1.937061
20
0.738596
30
0.0
11
1.841118
21
0.738596
31
0.0
0
LINE
8
LEFT_HID
6
HIDDEN
10
1.841118
20
0.738596
30
0.0
11
2.033004
21
0.738596
31
0.0
0
LINE
8
LEFT_HID
6
HIDDEN
10
2.033004
20
0.738596
30
0.0
11
1.937061
21
0.738596
31
0.0
0
LINE
8
LEFT_HID
6
HIDDEN
10
1.937061
20
0.574123
30
0.0
11
1.841118
21
0.574123
31
0.0
0
LINE
8
LEFT_HID
6
HIDDEN
10
1.841118
20
0.574123
30
0.0
11
2.033004
21
0.574123
31
0.0
0
LINE
8
LEFT_HID
6
HIDDEN
10
2.033004
20
0.574123
30
0.0
11
1.937061
21
0.574123
31
0.0
0
LINE
8
LEFT_HID
6
HIDDEN
10
1.937061
20
0.738596
30
0.0
11
1.841118
21
0.738596
31
0.0
0
LINE
8
LEFT_HID
6
HIDDEN
10
1.841118
20
0.738596
30
0.0
11
2.033004
21
0.738596
31
0.0
0
LINE
8
LEFT_HID
6
HIDDEN
10
2.033004
20
0.738596
30
0.0
11
1.937061
21
0.738596
31
0.0
0
LINE
8
LEFT_HID
6
HIDDEN
10
1.841118
20
0.738596
30
0.0
11
1.841118
21
0.574123
31
0.0
0
LINE
8
LEFT_HID
6
HIDDEN
10
2.033004
20
0.738596
30
0.0
11
2.033004
21
0.574123
31
0.0
0
LINE
8
LEFT_HID
6
HIDDEN
10
1.841118
20
0.738596
30
0.0
11
1.841118
21
0.574123
31
0.0
0
LINE
8
LEFT_HID
6
HIDDEN
10
2.033004
20
0.738596
30
0.0
11
2.033004
21
0.574123
31
0.0
0
LINE
8
TOP
10
0.137019
20
0.000000
30
0.0
11
1.362896
21
0.000000
31
0.0
0
LINE
8
TOP
10
1.362896
20
0.000000
30
0.0
11
1.369728
21
0.000170
31
0.0
0
LINE
8
TOP
10
1.369728
20
0.000170
30
0.0
11
1.376543
21
0.000681
31
0.0
0
LINE
8
TOP
10
1.376543
20
0.000681
30
0.0
11
1.383324
21
0.001531
31
0.0
0
LINE
8
TOP
10
1.383324
20
0.001531
30
0.0
11
1.390054
21
0.002718
31
0.0
0
LINE
8
TOP
10
1.390054
20
0.002718
30
0.0
11
1.396717
21
0.004238
31
0.0
0
LINE
8
TOP
10
1.396717
20
0.004238
30
0.0
11
1.403296
21
0.006089
31
0.0
0
LINE
8
TOP
10
1.403296
20
0.006089
30
0.0
11
1.409774
21
0.008266
31
0.0
0
LINE
8
TOP
10
1.409774
20
0.008266
30
0.0
11
1.416135
21
0.010763
31
0.0
0
LINE
8
TOP
10
1.416135
20
0.010763
30
0.0
11
1.422365
21
0.013573
31
0.0
0
LINE
8
TOP
10
1.422365
20
0.013573
30
0.0
11
1.428446
21
0.016691
31
0.0
0
LINE
8
TOP
10
1.428446
20
0.016691
30
0.0
11
1.434365
21
0.020108
31
0.0
0
LINE
8
TOP
10
1.434365
20
0.020108
30
0.0
11
1.440105
21
0.023816
31
0.0
0
LINE
8
TOP
10
1.440105
20
0.023816
30
0.0
11
1.445654
21
0.027805
31
0.0
0
LINE
8
TOP
10
1.445654
20
0.027805
30
0.0
11
1.450997
21
0.032066
31
0.0
0
LINE
8
TOP
10
1.450997
20
0.032066
30
0.0
11
1.456121
21
0.036588
31
0.0
0
LINE
8
TOP
10
1.456121
20
0.036588
30
0.0
11
1.461014
21
0.041360
31
0.0
0
LINE
8
TOP
10
1.461014
20
0.041360
30
0.0
11
1.465662
21
0.046370
31
0.0
0
LINE
8
TOP
10
1.465662
20
0.046370
30
0.0
11
1.470055
21
0.051605
31
0.0
0
LINE
8
TOP
10
1.470055
20
0.051605
30
0.0
11
1.474181
21
0.057053
31
0.0
0
LINE
8
TOP
10
1.474181
20
0.057053
30
0.0
11
1.478031
21
0.062699
31
0.0
0
LINE
8
TOP
10
1.478031
20
0.062699
30
0.0
11
1.481595
21
0.068531
31
0.0
0
LINE
8
TOP
10
1.481595
20
0.068531
30
0.0
11
1.484863
21
0.074533
31
0.0
0
LINE
8
TOP
10
1.484863
20
0.074533
30
0.0
11
1.487828
21
0.080690
31
0.0
0
LINE
8
TOP
10
1.487828
20
0.080690
30
0.0
11
1.490483
21
0.086987
31
0.0
0
LINE
8
TOP
10
1.490483
20
0.086987
30
0.0
11
1.492820
21
0.093409
31
0.0
0
LINE
8
TOP
10
1.492820
20
0.093409
30
0.0
11
1.494835
21
0.099940
31
0.0
0
LINE
8
TOP
10
1.494835
20
0.099940
30
0.0
11
1.496521
21
0.106562
31
0.0
0
LINE
8
TOP
10
1.496521
20
0.106562
30
0.0
11
1.497875
21
0.113261
31
0.0
0
LINE
8
TOP
10
1.497875
20
0.113261
30
0.0
11
1.498894
21
0.120019
31
0.0
0
LINE
8
TOP
10
1.498894
20
0.120019
30
0.0
11
1.499574
21
0.126819
31
0.0
0
LINE
8
TOP
10
1.499574
20
0.126819
30
0.0
11
1.499915
21
0.133644
31
0.0
0
LINE
8
TOP
10
1.499915
20
0.133644
30
0.0
11
1.499915
21
0.140478
31
0.0
0
LINE
8
TOP
10
1.499915
20
0.140478
30
0.0
11
1.499574
21
0.147304
31
0.0
0
LINE
8
TOP
10
1.499574
20
0.147304
30
0.0
11
1.498894
21
0.154104
31
0.0
0
LINE
8
TOP
10
1.498894
20
0.154104
30
0.0
11
1.497875
21
0.160862
31
0.0
0
LINE
8
TOP
10
1.497875
20
0.160862
30
0.0
11
1.496521
21
0.167560
31
0.0
0
LINE
8
TOP
10
1.496521
20
0.167560
30
0.0
11
1.494835
21
0.174183
31
0.0
0
LINE
8
TOP
10
1.494835
20
0.174183
30
0.0
11
1.492820
21
0.180714
31
0.0
0
LINE
8
TOP
10
1.492820
20
0.180714
30
0.0
11
1.490483
21
0.187136
31
0.0
0
LINE
8
TOP
10
1.490483
20
0.187136
30
0.0
11
1.487828
21
0.193433
31
0.0
0
LINE
8
TOP
10
1.487828
20
0.193433
30
0.0
11
1.484863
21
0.199590
31
0.0
0
LINE
8
TOP
10
1.484863
20
0.199590
30
0.0
11
1.481595
21
0.205592
31
0.0
0
LINE
8
TOP
10
1.481595
20
0.205592
30
0.0
11
1.478031
21
0.211424
31
0.0
0
LINE
8
TOP
10
1.478031
20
0.211424
30
0.0
11
1.474181
21
0.217070
31
0.0
0
LINE
8
TOP
10
1.474181
20
0.217070
30
0.0
11
1.470055
21
0.222518
31
0.0
0
LINE
8
TOP
10
1.470055
20
0.222518
30
0.0
11
1.465662
21
0.227753
31
0.0
0
LINE
8
TOP
10
1.465662
20
0.227753
30
0.0
11
1.461014
21
0.232763
31
0.0
0
LINE
8
TOP
10
1.461014
20
0.232763
30
0.0
11
1.456121
21
0.237535
31
0.0
0
LINE
8
TOP
10
1.456121
20
0.237535
30
0.0
11
1.450997
21
0.242057
31
0.0
0
LINE
8
TOP
10
1.450997
20
0.242057
30
0.0
11
1.445654
21
0.246318
31
0.0
0
LINE
8
TOP
10
1.445654
20
0.246318
30
0.0
11
1.440105
21
0.250307
31
0.0
0
LINE
8
TOP
10
1.440105
20
0.250307
30
0.0
11
1.434365
21
0.254015
31
0.0
0
LINE
8
TOP
10
1.434365
20
0.254015
30
0.0
11
1.428446
21
0.257432
31
0.0
0
LINE
8
TOP
10
1.428446
20
0.257432
30
0.0
11
1.422365
21
0.260549
31
0.0
0
LINE
8
TOP
10
1.422365
20
0.260549
30
0.0
11
1.416135
21
0.263360
31
0.0
0
LINE
8
TOP
10
1.416135
20
0.263360
30
0.0
11
1.409774
21
0.265857
31
0.0
0
LINE
8
TOP
10
1.409774
20
0.265857
30
0.0
11
1.403296
21
0.268034
31
0.0
0
LINE
8
TOP
10
1.403296
20
0.268034
30
0.0
11
1.396717
21
0.269884
31
0.0
0
LINE
8
TOP
10
1.396717
20
0.269884
30
0.0
11
1.390054
21
0.271405
31
0.0
0
LINE
8
TOP
10
1.390054
20
0.271405
30
0.0
11
1.383324
21
0.272592
31
0.0
0
LINE
8
TOP
10
1.383324
20
0.272592
30
0.0
11
1.376543
21
0.273442
31
0.0
0
LINE
8
TOP
10
1.376543
20
0.273442
30
0.0
11
1.369728
21
0.273952
31
0.0
0
LINE
8
TOP
10
1.369728
20
0.273952
30
0.0
11
1.362896
21
0.274123
31
0.0
0
LINE
8
TOP
10
1.362896
20
0.274123
30
0.0
11
0.137019
21
0.274123
31
0.0
0
LINE
8
TOP
10
0.137019
20
0.274123
30
0.0
11
0.130187
21
0.273952
31
0.0
0
LINE
8
TOP
10
0.130187
20
0.273952
30
0.0
11
0.123372
21
0.273442
31
0.0
0
LINE
8
TOP
10
0.123372
20
0.273442
30
0.0
11
0.116591
21
0.272592
31
0.0
0
LINE
8
TOP
10
0.116591
20
0.272592
30
0.0
11
0.109861
21
0.271405
31
0.0
0
LINE
8
TOP
10
0.109861
20
0.271405
30
0.0
11
0.103198
21
0.269884
31
0.0
0
LINE
8
TOP
10
0.103198
20
0.269884
30
0.0
11
0.096619
21
0.268034
31
0.0
0
LINE
8
TOP
10
0.096619
20
0.268034
30
0.0
11
0.090141
21
0.265857
31
0.0
0
LINE
8
TOP
10
0.090141
20
0.265857
30
0.0
11
0.083779
21
0.263360
31
0.0
0
LINE
8
TOP
10
0.083779
20
0.263360
30
0.0
11
0.077550
21
0.260549
31
0.0
0
LINE
8
TOP
10
0.077550
20
0.260549
30
0.0
11
0.071469
21
0.257432
31
0.0
0
LINE
8
TOP
10
0.071469
20
0.257432
30
0.0
11
0.065550
21
0.254015
31
0.0
0
LINE
8
TOP
10
0.065550
20
0.254015
30
0.0
11
0.059809
21
0.250307
31
0.0
0
LINE
8
TOP
10
0.059809
20
0.250307
30
0.0
11
0.054261
21
0.246318
31
0.0
0
LINE
8
TOP
10
0.054261
20
0.246318
30
0.0
11
0.048917
21
0.242057
31
0.0
0
LINE
8
TOP
10
0.048917
20
0.242057
30
0.0
11
0.043793
21
0.237535
31
0.0
0
LINE
8
TOP
10
0.043793
20
0.237535
30
0.0
11
0.038901
21
0.232763
31
0.0
0
LINE
8
TOP
10
0.038901
20
0.232763
30
0.0
11
0.034253
21
0.227753
31
0.0
0
LINE
8
TOP
10
0.034253
20
0.227753
30
0.0
11
0.029860
21
0.222518
31
0.0
0
LINE
8
TOP
10
0.029860
20
0.222518
30
0.0
11
0.025733
21
0.217070
31
0.0
0
LINE
8
TOP
10
0.025733
20
0.217070
30
0.0
11
0.021884
21
0.211424
31
0.0
0
LINE
8
TOP
10
0.021884
20
0.211424
30
0.0
11
0.018320
21
0.205592
31
0.0
0
LINE
8
TOP
10
0.018320
20
0.205592
30
0.0
11
0.015052
21
0.199590
31
0.0
0
LINE
8
TOP
10
0.015052
20
0.199590
30
0.0
11
0.012087
21
0.193433
31
0.0
0
LINE
8
TOP
10
0.012087
20
0.193433
30
0.0
11
0.009432
21
0.187136
31
0.0
0
LINE
8
TOP
10
0.009432
20
0.187136
30
0.0
11
0.007095
21
0.180714
31
0.0
0
LINE
8
TOP
10
0.007095
20
0.180714
30
0.0
11
0.005080
21
0.174183
31
0.0
0
LINE
8
TOP
10
0.005080
20
0.174183
30
0.0
11
0.003394
21
0.167560
31
0.0
0
LINE
8
TOP
10
0.003394
20
0.167560
30
0.0
11
0.002040
21
0.160862
31
0.0
0
LINE
8
TOP
10
0.002040
20
0.160862
30
0.0
11
0.001021
21
0.154104
31
0.0
0
LINE
8
TOP
10
0.001021
20
0.154104
30
0.0
11
0.000341
21
0.147304
31
0.0
0
LINE
8
TOP
10
0.000341
20
0.147304
30
0.0
11
0.000000
21
0.140478
31
0.0
0
LINE
8
TOP
10
0.000000
20
0.140478
30
0.0
11
0.000000
21
0.133644
31
0.0
0
LINE
8
TOP
10
0.000000
20
0.133644
30
0.0
11
0.000341
21
0.126819
31
0.0
0
LINE
8
TOP
10
0.000341
20
0.126819
30
0.0
11
0.001021
21
0.120019
31
0.0
0
LINE
8
TOP
10
0.001021
20
0.120019
30
0.0
11
0.002040
21
0.113261
31
0.0
0
LINE
8
TOP
10
0.002040
20
0.113261
30
0.0
11
0.003394
21
0.106562
31
0.0
0
LINE
8
TOP
10
0.003394
20
0.106562
30
0.0
11
0.005080
21
0.099940
31
0.0
0
LINE
8
TOP
10
0.005080
20
0.099940
30
0.0
11
0.007095
21
0.093409
31
0.0
0
LINE
8
TOP
10
0.007095
20
0.093409
30
0.0
11
0.009432
21
0.086987
31
0.0
0
LINE
8
TOP
10
0.009432
20
0.086987
30
0.0
11
0.012087
21
0.080690
31
0.0
0
LINE
8
TOP
10
0.012087
20
0.080690
30
0.0
11
0.015052
21
0.074533
31
0.0
0
LINE
8
TOP
10
0.015052
20
0.074533
30
0.0
11
0.018320
21
0.068531
31
0.0
0
LINE
8
TOP
10
0.018320
20
0.068531
30
0.0
11
0.021884
21
0.062699
31
0.0
0
LINE
8
TOP
10
0.021884
20
0.062699
30
0.0
11
0.025733
21
0.057053
31
0.0
0
LINE
8
TOP
10
0.025733
20
0.057053
30
0.0
11
0.029860
21
0.051605
31
0.0
0
LINE
8
TOP
10
0.029860
20
0.051605
30
0.0
11
0.034253
21
0.046370
31
0.0
0
LINE
8
TOP
10
0.034253
20
0.046370
30
0.0
11
0.038901
21
0.041360
31
0.0
0
LINE
8
TOP
10
0.038901
20
0.041360
30
0.0
11
0.043793
21
0.036588
31
0.0
0
LINE
8
TOP
10
0.043793
20
0.036588
30
0.0
11
0.048917
21
0.032066
31
0.0
0
LINE
8
TOP
10
0.048917
20
0.032066
30
0.0
11
0.054261
21
0.027805
31
0.0
0
LINE
8
TOP
10
0.054261
20
0.027805
30
0.0
11
0.059809
21
0.023816
31
0.0
0
LINE
8
TOP
10
0.059809
20
0.023816
30
0.0
11
0.065550
21
0.020108
31
0.0
0
LINE
8
TOP
10
0.065550
20
0.020108
30
0.0
11
0.071469
21
0.016691
31
0.0
0
LINE
8
TOP
10
0.071469
20
0.016691
30
0.0
11
0.077550
21
0.013573
31
0.0
0
LINE
8
TOP
10
0.077550
20
0.013573
30
0.0
11
0.083779
21
0.010763
31
0.0
0
LINE
8
TOP
10
0.083779
20
0.010763
30
0.0
11
0.090141
21
0.008266
31
0.0
0
LINE
8
TOP
10
0.090141
20
0.008266
30
0.0
11
0.096619
21
0.006089
31
0.0
0
LINE
8
TOP
10
0.096619
20
0.006089
30
0.0
11
0.103198
21
0.004238
31
0.0
0
LINE
8
TOP
10
0.103198
20
0.004238
30
0.0
11
0.109861
21
0.002718
31
0.0
0
LINE
8
TOP
10
0.109861
20
0.002718
30
0.0
11
0.116591
21
0.001531
31
0.0
0
LINE
8
TOP
10
0.116591
20
0.001531
30
0.0
11
0.123372
21
0.000681
31
0.0
0
LINE
8
TOP
10
0.123372
20
0.000681
30
0.0
11
0.130187
21
0.000170
31
0.0
0
LINE
8
TOP
10
0.130187
20
0.000170
30
0.0
11
0.137019
21
0.000000
31
0.0
0
LINE
8
TOP
10
0.232962
20
0.137061
30
0.0
11
0.232485
21
0.146614
31
0.0
0
LINE
8
TOP
10
0.232485
20
0.146614
30
0.0
11
0.231059
21
0.156072
31
0.0
0
LINE
8
TOP
10
0.231059
20
0.156072
30
0.0
11
0.228699
21
0.165341
31
0.0
0
LINE
8
TOP
10
0.228699
20
0.165341
30
0.0
11
0.225428
21
0.174329
31
0.0
0
LINE
8
TOP
10
0.225428
20
0.174329
30
0.0
11
0.221278
21
0.182947
31
0.0
0
LINE
8
TOP
10
0.221278
20
0.182947
30
0.0
11
0.216291
21
0.191108
31
0.0
0
LINE
8
TOP
10
0.216291
20
0.191108
30
0.0
11
0.210515
21
0.198732
31
0.0
0
LINE
8
TOP
10
0.210515
20
0.198732
30
0.0
11
0.204010
21
0.205744
31
0.0
0
LINE
8
TOP
10
0.204010
20
0.205744
30
0.0
11
0.196838
21
0.212073
31
0.0
0
LINE
8
TOP
10
0.196838
20
0.212073
30
0.0
11
0.189072
21
0.217656
31
0.0
0
LINE
8
TOP
10
0.189072
20
0.217656
30
0.0
11
0.180789
21
0.222438
31
0.0
0
LINE
8
TOP
10
0.180789
20
0.222438
30
0.0
11
0.172071
21
0.226372
31
0.0
0
LINE
8
TOP
10
0.172071
20
0.226372
30
0.0
11
0.163004
21
0.229418
31
0.0
0
LINE
8
TOP
10
0.163004
20
0.229418
30
0.0
11
0.153679
21
0.231547
31
0.0
0
LINE
8
TOP
10
0.153679
20
0.231547
30
0.0
11
0.144189
21
0.232736
31
0.0
0
LINE
8
TOP
10
0.144189
20
0.232736
30
0.0
11
0.134627
21
0.232975
31
0.0
0
LINE
8
TOP
10
0.134627
20
0.232975
30
0.0
11
0.125089
21
0.232260
31
0.0
0
LINE
8
TOP
10
0.125089
20
0.232260
30
0.0
11
0.115669
21
0.230599
31
0.0
0
LINE
8
TOP
10
0.115669
20
0.230599
30
0.0
11
0.106462
21
0.228008
31
0.0
0
LINE
8
TOP
10
0.106462
20
0.228008
30
0.0
11
0.097559
21
0.224514
31
0.0
0
LINE
8
TOP
10
0.097559
20
0.224514
30
0.0
11
0.089047
21
0.220150
31
0.0
0
LINE
8
TOP
10
0.089047
20
0.220150
30
0.0
11
0.081013
21
0.214961
31
0.0
0
LINE
8
TOP
10
0.081013
20
0.214961
30
0.0
11
0.073535
21
0.208998
31
0.0
0
LINE
8
TOP
10
0.073535
20
0.208998
30
0.0
11
0.066688
21
0.202319
31
0.0
0
LINE
8
TOP
10
0.066688
20
0.202319
30
0.0
11
0.060540
21
0.194992
31
0.0
0
LINE
8
TOP
10
0.060540
20
0.194992
30
0.0
11
0.055152
21
0.187089
31
0.0
0
LINE
8
TOP
10
0.055152
20
0.187089
30
0.0
11
0.050577
21
0.178690
31
0.0
0
LINE
8
TOP
10
0.050577
20
0.178690
30
0.0
11
0.046862
21
0.169876
31
0.0
0
LINE
8
TOP
10
0.046862
20
0.169876
30
0.0
11
0.044043
21
0.160736
31
0.0
0
LINE
8
TOP
10
0.044043
20
0.160736
30
0.0
11
0.042147
21
0.151361
31
0.0
0
LINE
8
TOP
10
0.042147
20
0.151361
30
0.0
11
0.041195
21
0.141844
31
0.0
0
LINE
8
TOP
10
0.041195
20
0.141844
30
0.0
11
0.041195
21
0.132279
31
0.0
0
LINE
8
TOP
10
0.041195
20
0.132279
30
0.0
11
0.042147
21
0.122762
31
0.0
0
LINE
8
TOP
10
0.042147
20
0.122762
30
0.0
11
0.044043
21
0.113387
31
0.0
0
LINE
8
TOP
10
0.044043
20
0.113387
30
0.0
11
0.046862
21
0.104247
31
0.0
0
LINE
8
TOP
10
0.046862
20
0.104247
30
0.0
11
0.050577
21
0.095433
31
0.0
0
LINE
8
TOP
10
0.050577
20
0.095433
30
0.0
11
0.055152
21
0.087033
31
0.0
0
LINE
8
TOP
10
0.055152
20
0.087033
30
0.0
11
0.060540
21
0.079131
31
0.0
0
LINE
8
TOP
10
0.060540
20
0.079131
30
0.0
11
0.066688
21
0.071804
31
0.0
0
LINE
8
TOP
10
0.066688
20
0.071804
30
0.0
11
0.073535
21
0.065125
31
0.0
0
LINE
8
TOP
10
0.073535
20
0.065125
30
0.0
11
0.081013
21
0.059162
31
0.0
0
LINE
8
TOP
10
0.081013
20
0.059162
30
0.0
11
0.089047
21
0.053972
31
0.0
0
LINE
8
TOP
10
0.089047
20
0.053972
30
0.0
11
0.097559
21
0.049609
31
0.0
0
LINE
8
TOP
10
0.097559
20
0.049609
30
0.0
11
0.106462
21
0.046114
31
0.0
0
LINE
8
TOP
10
0.106462
20
0.046114
30
0.0
11
0.115669
21
0.043524
31
0.0
0
LINE
8
TOP
10
0.115669
20
0.043524
30
0.0
11
0.125089
21
0.041863
31
0.0
0
LINE
8
TOP
10
0.125089
20
0.041863
30
0.0
11
0.134627
21
0.041148
31
0.0
0
LINE
8
TOP
10
0.134627
20
0.041148
30
0.0
11
0.144189
21
0.041387
31
0.0
0
LINE
8
TOP
10
0.144189
20
0.041387
30
0.0
11
0.153679
21
0.042576
31
0.0
0
LINE
8
TOP
10
0.153679
20
0.042576
30
0.0
11
0.163004
21
0.044704
31
0.0
0
LINE
8
TOP
10
0.163004
20
0.044704
30
0.0
11
0.172071
21
0.047751
31
0.0
0
LINE
8
TOP
10
0.172071
20
0.047751
30
0.0
11
0.180789
21
0.051684
31
0.0
0
LINE
8
TOP
10
0.180789
20
0.051684
30
0.0
11
0.189072
21
0.056467
31
0.0
0
LINE
8
TOP
10
0.189072
20
0.056467
30
0.0
11
0.196838
21
0.062050
31
0.0
0
LINE
8
TOP
10
0.196838
20
0.062050
30
0.0
11
0.204010
21
0.068379
31
0.0
0
LINE
8
TOP
10
0.204010
20
0.068379
30
0.0
11
0.210515
21
0.075390
31
0.0
0
LINE
8
TOP
10
0.210515
20
0.075390
30
0.0
11
0.216291
21
0.083015
31
0.0
0
LINE
8
TOP
10
0.216291
20
0.083015
30
0.0
11
0.221278
21
0.091176
31
0.0
0
LINE
8
TOP
10
0.221278
20
0.091176
30
0.0
11
0.225428
21
0.099794
31
0.0
0
LINE
8
TOP
10
0.225428
20
0.099794
30
0.0
11
0.228699
21
0.108782
31
0.0
0
LINE
8
TOP
10
0.228699
20
0.108782
30
0.0
11
0.231059
21
0.118051
31
0.0
0
LINE
8
TOP
10
0.231059
20
0.118051
30
0.0
11
0.232485
21
0.127509
31
0.0
0
LINE
8
TOP
10
0.232485
20
0.127509
30
0.0
11
0.232962
21
0.137061
31
0.0
0
LINE
8
TOP
10
1.458839
20
0.137061
30
0.0
11
1.458362
21
0.146614
31
0.0
0
LINE
8
TOP
10
1.458362
20
0.146614
30
0.0
11
1.456937
21
0.156072
31
0.0
0
LINE
8
TOP
10
1.456937
20
0.156072
30
0.0
11
1.454577
21
0.165341
31
0.0
0
LINE
8
TOP
10
1.454577
20
0.165341
30
0.0
11
1.451305
21
0.174329
31
0.0
0
LINE
8
TOP
10
1.451305
20
0.174329
30
0.0
11
1.447155
21
0.182947
31
0.0
0
LINE
8
TOP
10
1.447155
20
0.182947
30
0.0
11
1.442168
21
0.191108
31
0.0
0
LINE
8
TOP
10
1.442168
20
0.191108
30
0.0
11
1.436393
21
0.198732
31
0.0
0
LINE
8
TOP
10
1.436393
20
0.198732
30
0.0
11
1.429887
21
0.205744
31
0.0
0
LINE
8
TOP
10
1.429887
20
0.205744
30
0.0
11
1.422715
21
0.212073
31
0.0
0
LINE
8
TOP
10
1.422715
20
0.212073
30
0.0
11
1.414950
21
0.217656
31
0.0
0
LINE
8
TOP
10
1.414950
20
0.217656
30
0.0
11
1.406666
21
0.222438
31
0.0
0
LINE
8
TOP
10
1.406666
20
0.222438
30
0.0
11
1.397948
21
0.226372
31
0.0
0
LINE
8
TOP
10
1.397948
20
0.226372
30
0.0
11
1.388881
21
0.229418
31
0.0
0
LINE
8
TOP
10
1.388881
20
0.229418
30
0.0
11
1.379556
21
0.231547
31
0.0
0
LINE
8
TOP
10
1.379556
20
0.231547
30
0.0
11
1.370066
21
0.232736
31
0.0
0
LINE
8
TOP
10
1.370066
20
0.232736
30
0.0
11
1.360504
21
0.232975
31
0.0
0
LINE
8
TOP
10
1.360504
20
0.232975
30
0.0
11
1.350966
21
0.232260
31
0.0
0
LINE
8
TOP
10
1.350966
20
0.232260
30
0.0
11
1.341547
21
0.230599
31
0.0
0
LINE
8
TOP
10
1.341547
20
0.230599
30
0.0
11
1.332339
21
0.228008
31
0.0
0
LINE
8
TOP
10
1.332339
20
0.228008
30
0.0
11
1.323436
21
0.224514
31
0.0
0
LINE
8
TOP
10
1.323436
20
0.224514
30
0.0
11
1.314925
21
0.220150
31
0.0
0
LINE
8
TOP
10
1.314925
20
0.220150
30
0.0
11
1.306890
21
0.214961
31
0.0
0
LINE
8
TOP
10
1.306890
20
0.214961
30
0.0
11
1.299412
21
0.208998
31
0.0
0
LINE
8
TOP
10
1.299412
20
0.208998
30
0.0
11
1.292565
21
0.202319
31
0.0
0
LINE
8
TOP
10
1.292565
20
0.202319
30
0.0
11
1.286417
21
0.194992
31
0.0
0
LINE
8
TOP
10
1.286417
20
0.194992
30
0.0
11
1.281029
21
0.187089
31
0.0
0
LINE
8
TOP
10
1.281029
20
0.187089
30
0.0
11
1.276454
21
0.178690
31
0.0
0
LINE
8
TOP
10
1.276454
20
0.178690
30
0.0
11
1.272739
21
0.169876
31
0.0
0
LINE
8
TOP
10
1.272739
20
0.169876
30
0.0
11
1.269920
21
0.160736
31
0.0
0
LINE
8
TOP
10
1.269920
20
0.160736
30
0.0
11
1.268025
21
0.151361
31
0.0
0
LINE
8
TOP
10
1.268025
20
0.151361
30
0.0
11
1.267072
21
0.141844
31
0.0
0
LINE
8
TOP
10
1.267072
20
0.141844
30
0.0
11
1.267072
21
0.132279
31
0.0
0
LINE
8
TOP
10
1.267072
20
0.132279
30
0.0
11
1.268025
21
0.122762
31
0.0
0
LINE
8
TOP
10
1.268025
20
0.122762
30
0.0
11
1.269920
21
0.113387
31
0.0
0
LINE
8
TOP
10
1.269920
20
0.113387
30
0.0
11
1.272739
21
0.104247
31
0.0
0
LINE
8
TOP
10
1.272739
20
0.104247
30
0.0
11
1.276454
21
0.095433
31
0.0
0
LINE
8
TOP
10
1.276454
20
0.095433
30
0.0
11
1.281029
21
0.087033
31
0.0
0
LINE
8
TOP
10
1.281029
20
0.087033
30
0.0
11
1.286417
21
0.079131
31
0.0
0
LINE
8
TOP
10
1.286417
20
0.079131
30
0.0
11
1.292565
21
0.071804
31
0.0
0
LINE
8
TOP
10
1.292565
20
0.071804
30
0.0
11
1.299412
21
0.065125
31
0.0
0
LINE
8
TOP
10
1.299412
20
0.065125
30
0.0
11
1.306890
21
0.059162
31
0.0
0
LINE
8
TOP
10
1.306890
20
0.059162
30
0.0
11
1.314925
21
0.053972
31
0.0
0
LINE
8
TOP
10
1.314925
20
0.053972
30
0.0
11
1.323436
21
0.049609
31
0.0
0
LINE
8
TOP
10
1.323436
20
0.049609
30
0.0
11
1.332339
21
0.046114
31
0.0
0
LINE
8
TOP
10
1.332339
20
0.046114
30
0.0
11
1.341547
21
0.043524
31
0.0
0
LINE
8
TOP
10
1.341547
20
0.043524
30
0.0
11
1.350966
21
0.041863
31
0.0
0
LINE
8
TOP
10
1.350966
20
0.041863
30
0.0
11
1.360504
21
0.041148
31
0.0
0
LINE
8
TOP
10
1.360504
20
0.041148
30
0.0
11
1.370066
21
0.041387
31
0.0
0
LINE
8
TOP
10
1.370066
20
0.041387
30
0.0
11
1.379556
21
0.042576
31
0.0
0
LINE
8
TOP
10
1.379556
20
0.042576
30
0.0
11
1.388881
21
0.044704
31
0.0
0
LINE
8
TOP
10
1.388881
20
0.044704
30
0.0
11
1.397948
21
0.047751
31
0.0
0
LINE
8
TOP
10
1.397948
20
0.047751
30
0.0
11
1.406666
21
0.051684
31
0.0
0
LINE
8
TOP
10
1.406666
20
0.051684
30
0.0
11
1.414950
21
0.056467
31
0.0
0
LINE
8
TOP
10
1.414950
20
0.056467
30
0.0
11
1.422715
21
0.062050
31
0.0
0
LINE
8
TOP
10
1.422715
20
0.062050
30
0.0
11
1.429887
21
0.068379
31
0.0
0
LINE
8
TOP
10
1.429887
20
0.068379
30
0.0
11
1.436393
21
0.075390
31
0.0
0
LINE
8
TOP
10
1.436393
20
0.075390
30
0.0
11
1.442168
21
0.083015
31
0.0
0
LINE
8
TOP
10
1.442168
20
0.083015
30
0.0
11
1.447155
21
0.091176
31
0.0
0
LINE
8
TOP
10
1.447155
20
0.091176
30
0.0
11
1.451305
21
0.099794
31
0.0
0
LINE
8
TOP
10
1.451305
20
0.099794
30
0.0
11
1.454577
21
0.108782
31
0.0
0
LINE
8
TOP
10
1.454577
20
0.108782
30
0.0
11
1.456937
21
0.118051
31
0.0
0
LINE
8
TOP
10
1.456937
20
0.118051
30
0.0
11
1.458362
21
0.127509
31
0.0
0
LINE
8
TOP
10
1.458362
20
0.127509
30
0.0
11
1.458839
21
0.137061
31
0.0
0
ENDSEC
0
EOF
