0
SECTION
2
HEADER
9
$ACADVER
1
AC1009
0
ENDSEC
0
SECTION
2
TABLES
0
TABLE
2
LTYPE
70
3
0
LTYPE
2
CONTINUOUS
70
0
3
Solid line
72
65
73
0
40
0.0
0
LTYPE
2
HIDDEN
70
0
3
__ __ __ __ __
72
65
73
2
40
0.043817
49
0.029226
49
-0.014591
0
LTYPE
2
CENTER
70
0
3
___ _ ___ _ ___
72
65
73
4
40
0.102225
49
0.058408
49
-0.014591
49
0.014591
49
-0.014591
0
ENDTAB
0
TABLE
2
LAYER
70
6
0
LAYER
2
0
70
0
62
7
6
CONTINUOUS
0
LAYER
2
FRONT
70
0
62
7
6
CONTINUOUS
0
LAYER
2
LEFT
70
0
62
7
6
CONTINUOUS
0
LAYER
2
LEFT_HID
70
0
62
7
6
HIDDEN
0
LAYER
2
TOP
70
0
62
7
6
CONTINUOUS
0
LAYER
2
TOP_HID
70
0
62
7
6
HIDDEN
0
ENDTAB
0
ENDSEC
0
SECTION
2
ENTITIES
0
LINE
8
FRONT
10
0.000000
20
0.256350
30
0.0
11
0.081081
21
0.256350
31
0.0
0
LINE
8
FRONT
10
0.081081
20
0.256350
30
0.0
11
0.267867
21
0.769540
31
0.0
0
LINE
8
FRONT
10
0.267867
20
0.769540
30
0.0
11
0.270153
21
0.775460
31
0.0
0
LINE
8
FRONT
10
0.270153
20
0.775460
30
0.0
11
0.272666
21
0.781286
31
0.0
0
LINE
8
FRONT
10
0.272666
20
0.781286
30
0.0
11
0.275403
21
0.787011
31
0.0
0
LINE
8
FRONT
10
0.275403
20
0.787011
30
0.0
11
0.278361
21
0.792626
31
0.0
0
LINE
8
FRONT
10
0.278361
20
0.792626
30
0.0
11
0.281534
21
0.798121
31
0.0
0
LINE
8
FRONT
10
0.281534
20
0.798121
30
0.0
11
0.284917
21
0.803490
31
0.0
0
LINE
8
FRONT
10
0.284917
20
0.803490
30
0.0
11
0.288506
21
0.808723
31
0.0
0
LINE
8
FRONT
10
0.288506
20
0.808723
30
0.0
11
0.292296
21
0.813813
31
0.0
0
LINE
8
FRONT
10
0.292296
20
0.813813
30
0.0
11
0.296280
21
0.818752
31
0.0
0
LINE
8
FRONT
10
0.296280
20
0.818752
30
0.0
11
0.300452
21
0.823533
31
0.0
0
LINE
8
FRONT
10
0.300452
20
0.823533
30
0.0
11
0.304807
21
0.828149
31
0.0
0
LINE
8
FRONT
10
0.304807
20
0.828149
30
0.0
11
0.309337
21
0.832592
31
0.0
0
LINE
8
FRONT
10
0.309337
20
0.832592
30
0.0
11
0.314037
21
0.836856
31
0.0
0
LINE
8
FRONT
10
0.314037
20
0.836856
30
0.0
11
0.318898
21
0.840935
31
0.0
0
LINE
8
FRONT
10
0.318898
20
0.840935
30
0.0
11
0.323913
21
0.844823
31
0.0
0
LINE
8
FRONT
10
0.323913
20
0.844823
30
0.0
11
0.329076
21
0.848513
31
0.0
0
LINE
8
FRONT
10
0.329076
20
0.848513
30
0.0
11
0.334378
21
0.852000
31
0.0
0
LINE
8
FRONT
10
0.334378
20
0.852000
30
0.0
11
0.339811
21
0.855279
31
0.0
0
LINE
8
FRONT
10
0.339811
20
0.855279
30
0.0
11
0.345367
21
0.858344
31
0.0
0
LINE
8
FRONT
10
0.345367
20
0.858344
30
0.0
11
0.351037
21
0.861192
31
0.0
0
LINE
8
FRONT
10
0.351037
20
0.861192
30
0.0
11
0.356814
21
0.863818
31
0.0
0
LINE
8
FRONT
10
0.356814
20
0.863818
30
0.0
11
0.362689
21
0.866218
31
0.0
0
LINE
8
FRONT
10
0.362689
20
0.866218
30
0.0
11
0.368652
21
0.868388
31
0.0
0
LINE
8
FRONT
10
0.368652
20
0.868388
30
0.0
11
0.374694
21
0.870326
31
0.0
0
LINE
8
FRONT
10
0.374694
20
0.870326
30
0.0
11
0.380808
21
0.872028
31
0.0
0
LINE
8
FRONT
10
0.380808
20
0.872028
30
0.0
11
0.386982
21
0.873491
31
0.0
0
LINE
8
FRONT
10
0.386982
20
0.873491
30
0.0
11
0.393209
21
0.874714
31
0.0
0
LINE
8
FRONT
10
0.393209
20
0.874714
30
0.0
11
0.399478
21
0.875695
31
0.0
0
LINE
8
FRONT
10
0.399478
20
0.875695
30
0.0
11
0.405781
21
0.876431
31
0.0
0
LINE
8
FRONT
10
0.405781
20
0.876431
30
0.0
11
0.412108
21
0.876923
31
0.0
0
LINE
8
FRONT
10
0.412108
20
0.876923
30
0.0
11
0.418449
21
0.877169
31
0.0
0
LINE
8
FRONT
10
0.418449
20
0.877169
30
0.0
11
0.424794
21
0.877169
31
0.0
0
LINE
8
FRONT
10
0.424794
20
0.877169
30
0.0
11
0.431135
21
0.876923
31
0.0
0
LINE
8
FRONT
10
0.431135
20
0.876923
30
0.0
11
0.437462
21
0.876431
31
0.0
0
LINE
8
FRONT
10
0.437462
20
0.876431
30
0.0
11
0.443765
21
0.875695
31
0.0
0
LINE
8
FRONT
10
0.443765
20
0.875695
30
0.0
11
0.450034
21
0.874714
31
0.0
0
LINE
8
FRONT
10
0.450034
20
0.874714
30
0.0
11
0.456261
21
0.873491
31
0.0
0
LINE
8
FRONT
10
0.456261
20
0.873491
30
0.0
11
0.462436
21
0.872028
31
0.0
0
LINE
8
FRONT
10
0.462436
20
0.872028
30
0.0
11
0.468549
21
0.870326
31
0.0
0
LINE
8
FRONT
10
0.468549
20
0.870326
30
0.0
11
0.474592
21
0.868388
31
0.0
0
LINE
8
FRONT
10
0.474592
20
0.868388
30
0.0
11
0.480555
21
0.866218
31
0.0
0
LINE
8
FRONT
10
0.480555
20
0.866218
30
0.0
11
0.486429
21
0.863818
31
0.0
0
LINE
8
FRONT
10
0.486429
20
0.863818
30
0.0
11
0.492206
21
0.861192
31
0.0
0
LINE
8
FRONT
10
0.492206
20
0.861192
30
0.0
11
0.497877
21
0.858344
31
0.0
0
LINE
8
FRONT
10
0.497877
20
0.858344
30
0.0
11
0.503433
21
0.855279
31
0.0
0
LINE
8
FRONT
10
0.503433
20
0.855279
30
0.0
11
0.508866
21
0.852000
31
0.0
0
LINE
8
FRONT
10
0.508866
20
0.852000
30
0.0
11
0.514167
21
0.848513
31
0.0
0
LINE
8
FRONT
10
0.514167
20
0.848513
30
0.0
11
0.519330
21
0.844823
31
0.0
0
LINE
8
FRONT
10
0.519330
20
0.844823
30
0.0
11
0.524346
21
0.840935
31
0.0
0
LINE
8
FRONT
10
0.524346
20
0.840935
30
0.0
11
0.529207
21
0.836856
31
0.0
0
LINE
8
FRONT
10
0.529207
20
0.836856
30
0.0
11
0.533906
21
0.832592
31
0.0
0
LINE
8
FRONT
10
0.533906
20
0.832592
30
0.0
11
0.538436
21
0.828149
31
0.0
0
LINE
8
FRONT
10
0.538436
20
0.828149
30
0.0
11
0.542791
21
0.823533
31
0.0
0
LINE
8
FRONT
10
0.542791
20
0.823533
30
0.0
11
0.546963
21
0.818752
31
0.0
0
LINE
8
FRONT
10
0.546963
20
0.818752
30
0.0
11
0.550947
21
0.813813
31
0.0
0
LINE
8
FRONT
10
0.550947
20
0.813813
30
0.0
11
0.554737
21
0.808723
31
0.0
0
LINE
8
FRONT
10
0.554737
20
0.808723
30
0.0
11
0.558326
21
0.803490
31
0.0
0
LINE
8
FRONT
10
0.558326
20
0.803490
30
0.0
11
0.561710
21
0.798121
31
0.0
0
LINE
8
FRONT
10
0.561710
20
0.798121
30
0.0
11
0.564882
21
0.792626
31
0.0
0
LINE
8
FRONT
10
0.564882
20
0.792626
30
0.0
11
0.567840
21
0.787011
31
0.0
0
LINE
8
FRONT
10
0.567840
20
0.787011
30
0.0
11
0.570577
21
0.781286
31
0.0
0
LINE
8
FRONT
10
0.570577
20
0.781286
30
0.0
11
0.573091
21
0.775460
31
0.0
0
LINE
8
FRONT
10
0.573091
20
0.775460
30
0.0
11
0.575376
21
0.769540
31
0.0
0
LINE
8
FRONT
10
0.575376
20
0.769540
30
0.0
11
0.762162
21
0.256350
31
0.0
0
LINE
8
FRONT
10
0.762162
20
0.256350
30
0.0
11
0.843243
21
0.256350
31
0.0
0
LINE
8
FRONT
10
0.843243
20
0.256350
30
0.0
11
0.559459
21
1.036039
31
0.0
0
LINE
8
FRONT
10
0.559459
20
1.036039
30
0.0
11
0.557416
21
1.041352
31
0.0
0
LINE
8
FRONT
10
0.557416
20
1.041352
30
0.0
11
0.555168
21
1.046582
31
0.0
0
LINE
8
FRONT
10
0.555168
20
1.046582
30
0.0
11
0.552719
21
1.051720
31
0.0
0
LINE
8
FRONT
10
0.552719
20
1.051720
30
0.0
11
0.550072
21
1.056759
31
0.0
0
LINE
8
FRONT
10
0.550072
20
1.056759
30
0.0
11
0.547232
21
1.061692
31
0.0
0
LINE
8
FRONT
10
0.547232
20
1.061692
30
0.0
11
0.544202
21
1.066511
31
0.0
0
LINE
8
FRONT
10
0.544202
20
1.066511
30
0.0
11
0.540987
21
1.071209
31
0.0
0
LINE
8
FRONT
10
0.540987
20
1.071209
30
0.0
11
0.537593
21
1.075778
31
0.0
0
LINE
8
FRONT
10
0.537593
20
1.075778
30
0.0
11
0.534024
21
1.080212
31
0.0
0
LINE
8
FRONT
10
0.534024
20
1.080212
30
0.0
11
0.530285
21
1.084505
31
0.0
0
LINE
8
FRONT
10
0.530285
20
1.084505
30
0.0
11
0.526382
21
1.088649
31
0.0
0
LINE
8
FRONT
10
0.526382
20
1.088649
30
0.0
11
0.522322
21
1.092638
31
0.0
0
LINE
8
FRONT
10
0.522322
20
1.092638
30
0.0
11
0.518109
21
1.096467
31
0.0
0
LINE
8
FRONT
10
0.518109
20
1.096467
30
0.0
11
0.513752
21
1.100129
31
0.0
0
LINE
8
FRONT
10
0.513752
20
1.100129
30
0.0
11
0.509255
21
1.103619
31
0.0
0
LINE
8
FRONT
10
0.509255
20
1.103619
30
0.0
11
0.504626
21
1.106932
31
0.0
0
LINE
8
FRONT
10
0.504626
20
1.106932
30
0.0
11
0.499873
21
1.110063
31
0.0
0
LINE
8
FRONT
10
0.499873
20
1.110063
30
0.0
11
0.495001
21
1.113007
31
0.0
0
LINE
8
FRONT
10
0.495001
20
1.113007
30
0.0
11
0.490018
21
1.115760
31
0.0
0
LINE
8
FRONT
10
0.490018
20
1.115760
30
0.0
11
0.484933
21
1.118317
31
0.0
0
LINE
8
FRONT
10
0.484933
20
1.118317
30
0.0
11
0.479752
21
1.120675
31
0.0
0
LINE
8
FRONT
10
0.479752
20
1.120675
30
0.0
11
0.474483
21
1.122830
31
0.0
0
LINE
8
FRONT
10
0.474483
20
1.122830
30
0.0
11
0.469135
21
1.124779
31
0.0
0
LINE
8
FRONT
10
0.469135
20
1.124779
30
0.0
11
0.463715
21
1.126519
31
0.0
0
LINE
8
FRONT
10
0.463715
20
1.126519
30
0.0
11
0.458232
21
1.128047
31
0.0
0
LINE
8
FRONT
10
0.458232
20
1.128047
30
0.0
11
0.452694
21
1.129361
31
0.0
0
LINE
8
FRONT
10
0.452694
20
1.129361
30
0.0
11
0.447108
21
1.130460
31
0.0
0
LINE
8
FRONT
10
0.447108
20
1.130460
30
0.0
11
0.441485
21
1.131340
31
0.0
0
LINE
8
FRONT
10
0.441485
20
1.131340
30
0.0
11
0.435831
21
1.132002
31
0.0
0
LINE
8
FRONT
10
0.435831
20
1.132002
30
0.0
11
0.430156
21
1.132443
31
0.0
0
LINE
8
FRONT
10
0.430156
20
1.132443
30
0.0
11
0.424468
21
1.132664
31
0.0
0
LINE
8
FRONT
10
0.424468
20
1.132664
30
0.0
11
0.418775
21
1.132664
31
0.0
0
LINE
8
FRONT
10
0.418775
20
1.132664
30
0.0
11
0.413088
21
1.132443
31
0.0
0
LINE
8
FRONT
10
0.413088
20
1.132443
30
0.0
11
0.407412
21
1.132002
31
0.0
0
LINE
8
FRONT
10
0.407412
20
1.132002
30
0.0
11
0.401759
21
1.131340
31
0.0
0
LINE
8
FRONT
10
0.401759
20
1.131340
30
0.0
11
0.396135
21
1.130460
31
0.0
0
LINE
8
FRONT
10
0.396135
20
1.130460
30
0.0
11
0.390550
21
1.129361
31
0.0
0
LINE
8
FRONT
10
0.390550
20
1.129361
30
0.0
11
0.385011
21
1.128047
31
0.0
0
LINE
8
FRONT
10
0.385011
20
1.128047
30
0.0
11
0.379528
21
1.126519
31
0.0
0
LINE
8
FRONT
10
0.379528
20
1.126519
30
0.0
11
0.374108
21
1.124779
31
0.0
0
LINE
8
FRONT
10
0.374108
20
1.124779
30
0.0
11
0.368760
21
1.122830
31
0.0
0
LINE
8
FRONT
10
0.368760
20
1.122830
30
0.0
11
0.363491
21
1.120675
31
0.0
0
LINE
8
FRONT
10
0.363491
20
1.120675
30
0.0
11
0.358310
21
1.118317
31
0.0
0
LINE
8
FRONT
10
0.358310
20
1.118317
30
0.0
11
0.353225
21
1.115760
31
0.0
0
LINE
8
FRONT
10
0.353225
20
1.115760
30
0.0
11
0.348242
21
1.113007
31
0.0
0
LINE
8
FRONT
10
0.348242
20
1.113007
30
0.0
11
0.343371
21
1.110063
31
0.0
0
LINE
8
FRONT
10
0.343371
20
1.110063
30
0.0
11
0.338617
21
1.106932
31
0.0
0
LINE
8
FRONT
10
0.338617
20
1.106932
30
0.0
11
0.333988
21
1.103619
31
0.0
0
LINE
8
FRONT
10
0.333988
20
1.103619
30
0.0
11
0.329492
21
1.100129
31
0.0
0
LINE
8
FRONT
10
0.329492
20
1.100129
30
0.0
11
0.325134
21
1.096467
31
0.0
0
LINE
8
FRONT
10
0.325134
20
1.096467
30
0.0
11
0.320922
21
1.092638
31
0.0
0
LINE
8
FRONT
10
0.320922
20
1.092638
30
0.0
11
0.316861
21
1.088649
31
0.0
0
LINE
8
FRONT
10
0.316861
20
1.088649
30
0.0
11
0.312958
21
1.084505
31
0.0
0
LINE
8
FRONT
10
0.312958
20
1.084505
30
0.0
11
0.309220
21
1.080212
31
0.0
0
LINE
8
FRONT
10
0.309220
20
1.080212
30
0.0
11
0.305650
21
1.075778
31
0.0
0
LINE
8
FRONT
10
0.305650
20
1.075778
30
0.0
11
0.302256
21
1.071209
31
0.0
0
LINE
8
FRONT
10
0.302256
20
1.071209
30
0.0
11
0.299041
21
1.066511
31
0.0
0
LINE
8
FRONT
10
0.299041
20
1.066511
30
0.0
11
0.296011
21
1.061692
31
0.0
0
LINE
8
FRONT
10
0.296011
20
1.061692
30
0.0
11
0.293171
21
1.056759
31
0.0
0
LINE
8
FRONT
10
0.293171
20
1.056759
30
0.0
11
0.290524
21
1.051720
31
0.0
0
LINE
8
FRONT
10
0.290524
20
1.051720
30
0.0
11
0.288075
21
1.046582
31
0.0
0
LINE
8
FRONT
10
0.288075
20
1.046582
30
0.0
11
0.285827
21
1.041352
31
0.0
0
LINE
8
FRONT
10
0.285827
20
1.041352
30
0.0
11
0.283784
21
1.036039
31
0.0
0
LINE
8
FRONT
10
0.283784
20
1.036039
30
0.0
11
0.000000
21
0.256350
31
0.0
0
LINE
8
FRONT
10
0.364289
20
0.986079
30
0.0
11
0.421622
21
0.928746
31
0.0
0
LINE
8
FRONT
10
0.421622
20
0.928746
30
0.0
11
0.478955
21
0.986079
31
0.0
0
LINE
8
FRONT
10
0.478955
20
0.986079
30
0.0
11
0.421622
21
1.043412
31
0.0
0
LINE
8
FRONT
10
0.421622
20
1.043412
30
0.0
11
0.364289
21
0.986079
31
0.0
0
LINE
8
LEFT
10
1.018512
20
0.256350
30
0.0
11
1.099593
21
0.256350
31
0.0
0
LINE
8
LEFT
10
1.018512
20
1.132692
30
0.0
11
1.018512
21
1.036039
31
0.0
0
LINE
8
LEFT
10
1.099593
20
1.132692
30
0.0
11
1.099593
21
1.036039
31
0.0
0
LINE
8
LEFT
10
1.099593
20
1.036039
30
0.0
11
1.099593
21
0.256350
31
0.0
0
LINE
8
LEFT
10
1.018512
20
1.036039
30
0.0
11
1.018512
21
0.256350
31
0.0
0
LINE
8
LEFT
10
1.018512
20
1.036039
30
0.0
11
1.099593
21
1.036039
31
0.0
0
LINE
8
LEFT
10
1.099593
20
1.132692
30
0.0
11
1.018512
21
1.132692
31
0.0
0
LINE
8
LEFT_HID
6
HIDDEN
10
1.099593
20
0.256350
30
0.0
11
1.099593
21
0.769540
31
0.0
0
LINE
8
LEFT_HID
6
HIDDEN
10
1.018512
20
0.256350
30
0.0
11
1.018512
21
0.769540
31
0.0
0
LINE
8
LEFT_HID
6
HIDDEN
10
1.099593
20
0.769540
30
0.0
11
1.099593
21
0.877200
31
0.0
0
LINE
8
LEFT_HID
6
HIDDEN
10
1.099593
20
0.877200
30
0.0
11
1.099593
21
0.769540
31
0.0
0
LINE
8
LEFT_HID
6
HIDDEN
10
1.018512
20
0.769540
30
0.0
11
1.018512
21
0.877200
31
0.0
0
LINE
8
LEFT_HID
6
HIDDEN
10
1.018512
20
0.877200
30
0.0
11
1.018512
21
0.769540
31
0.0
0
LINE
8
LEFT_HID
6
HIDDEN
10
1.099593
20
0.769540
30
0.0
11
1.099593
21
0.256350
31
0.0
0
LINE
8
LEFT_HID
6
HIDDEN
10
1.018512
20
0.769540
30
0.0
11
1.018512
21
0.256350
31
0.0
0
LINE
8
LEFT_HID
6
HIDDEN
10
1.018512
20
0.986079
30
0.0
11
1.099593
21
0.986079
31
0.0
0
LINE
8
LEFT_HID
6
HIDDEN
10
1.099593
20
0.986079
30
0.0
11
1.099593
21
0.928746
31
0.0
0
LINE
8
LEFT_HID
6
HIDDEN
10
1.018512
20
0.928746
30
0.0
11
1.099593
21
0.928746
31
0.0
0
LINE
8
LEFT_HID
6
HIDDEN
10
1.018512
20
0.986079
30
0.0
11
1.018512
21
0.928746
31
0.0
0
LINE
8
LEFT_HID
6
HIDDEN
10
1.099593
20
0.928746
30
0.0
11
1.099593
21
0.986079
31
0.0
0
LINE
8
LEFT_HID
6
HIDDEN
10
1.018512
20
0.986079
30
0.0
11
1.099593
21
0.986079
31
0.0
0
LINE
8
LEFT_HID
6
HIDDEN
10
1.018512
20
0.928746
30
0.0
11
1.018512
21
0.986079
31
0.0
0
LINE
8
LEFT_HID
6
HIDDEN
10
1.099593
20
0.986079
30
0.0
11
1.099593
21
1.043412
31
0.0
0
LINE
8
LEFT_HID
6
HIDDEN
10
1.018512
20
1.043412
30
0.0
11
1.099593
21
1.043412
31
0.0
0
LINE
8
LEFT_HID
6
HIDDEN
10
1.018512
20
0.986079
30
0.0
11
1.018512
21
1.043412
31
0.0
0
LINE
8
LEFT_HID
6
HIDDEN
10
1.099593
20
1.043412
30
0.0
11
1.099593
21
0.986079
31
0.0
0
LINE
8
LEFT_HID
6
HIDDEN
10
1.018512
20
1.043412
30
0.0
11
1.018512
21
0.986079
31
0.0
0
LINE
8
LEFT_HID
6
HIDDEN
10
1.018512
20
0.769540
30
0.0
11
1.099593
21
0.769540
31
0.0
0
LINE
8
LEFT_HID
6
HIDDEN
10
1.018512
20
0.769540
30
0.0
11
1.099593
21
0.769540
31
0.0
0
LINE
8
LEFT_HID
6
HIDDEN
10
1.099593
20
0.877200
30
0.0
11
1.018512
21
0.877200
31
0.0
0
LINE
8
TOP
10
0.000000
20
0.081081
30
0.0
11
0.000000
21
0.000000
31
0.0
0
LINE
8
TOP
10
0.843243
20
0.081081
30
0.0
11
0.843243
21
0.000000
31
0.0
0
LINE
8
TOP
10
0.843243
20
0.000000
30
0.0
11
0.559459
21
0.000000
31
0.0
0
LINE
8
TOP
10
0.843243
20
0.081081
30
0.0
11
0.559459
21
0.081081
31
0.0
0
LINE
8
TOP
10
0.559459
20
0.081081
30
0.0
11
0.283784
21
0.081081
31
0.0
0
LINE
8
TOP
10
0.559459
20
0.000000
30
0.0
11
0.283784
21
0.000000
31
0.0
0
LINE
8
TOP
10
0.283784
20
0.000000
30
0.0
11
0.000000
21
0.000000
31
0.0
0
LINE
8
TOP
10
0.283784
20
0.081081
30
0.0
11
0.000000
21
0.081081
31
0.0
0
LINE
8
TOP
10
0.559459
20
0.081081
30
0.0
11
0.559459
21
0.000000
31
0.0
0
LINE
8
TOP
10
0.283784
20
0.081081
30
0.0
11
0.283784
21
0.000000
31
0.0
0
LINE
8
TOP_HID
6
HIDDEN
10
0.000000
20
0.000000
30
0.0
11
0.081081
21
0.000000
31
0.0
0
LINE
8
TOP_HID
6
HIDDEN
10
0.081081
20
0.081081
30
0.0
11
0.081081
21
0.000000
31
0.0
0
LINE
8
TOP_HID
6
HIDDEN
10
0.000000
20
0.081081
30
0.0
11
0.081081
21
0.081081
31
0.0
0
LINE
8
TOP_HID
6
HIDDEN
10
0.081081
20
0.000000
30
0.0
11
0.267867
21
0.000000
31
0.0
0
LINE
8
TOP_HID
6
HIDDEN
10
0.081081
20
0.081081
30
0.0
11
0.267867
21
0.081081
31
0.0
0
LINE
8
TOP_HID
6
HIDDEN
10
0.267867
20
0.000000
30
0.0
11
0.575376
21
0.000000
31
0.0
0
LINE
8
TOP_HID
6
HIDDEN
10
0.267867
20
0.081081
30
0.0
11
0.575376
21
0.081081
31
0.0
0
LINE
8
TOP_HID
6
HIDDEN
10
0.575376
20
0.000000
30
0.0
11
0.762162
21
0.000000
31
0.0
0
LINE
8
TOP_HID
6
HIDDEN
10
0.762162
20
0.081081
30
0.0
11
0.762162
21
0.000000
31
0.0
0
LINE
8
TOP_HID
6
HIDDEN
10
0.575376
20
0.081081
30
0.0
11
0.762162
21
0.081081
31
0.0
0
LINE
8
TOP_HID
6
HIDDEN
10
0.762162
20
0.000000
30
0.0
11
0.843243
21
0.000000
31
0.0
0
LINE
8
TOP_HID
6
HIDDEN
10
0.762162
20
0.081081
30
0.0
11
0.843243
21
0.081081
31
0.0
0
LINE
8
TOP_HID
6
HIDDEN
10
0.364289
20
0.081081
30
0.0
11
0.364289
21
0.000000
31
0.0
0
LINE
8
TOP_HID
6
HIDDEN
10
0.364289
20
0.000000
30
0.0
11
0.421622
21
0.000000
31
0.0
0
LINE
8
TOP_HID
6
HIDDEN
10
0.421622
20
0.081081
30
0.0
11
0.421622
21
0.000000
31
0.0
0
LINE
8
TOP_HID
6
HIDDEN
10
0.364289
20
0.081081
30
0.0
11
0.421622
21
0.081081
31
0.0
0
LINE
8
TOP_HID
6
HIDDEN
10
0.421622
20
0.000000
30
0.0
11
0.478955
21
0.000000
31
0.0
0
LINE
8
TOP_HID
6
HIDDEN
10
0.478955
20
0.081081
30
0.0
11
0.478955
21
0.000000
31
0.0
0
LINE
8
TOP_HID
6
HIDDEN
10
0.421622
20
0.081081
30
0.0
11
0.478955
21
0.081081
31
0.0
0
LINE
8
TOP_HID
6
HIDDEN
10
0.478955
20
0.000000
30
0.0
11
0.421622
21
0.000000
31
0.0
0
LINE
8
TOP_HID
6
HIDDEN
10
0.421622
20
0.081081
30
0.0
11
0.421622
21
0.000000
31
0.0
0
LINE
8
TOP_HID
6
HIDDEN
10
0.478955
20
0.081081
30
0.0
11
0.421622
21
0.081081
31
0.0
0
LINE
8
TOP_HID
6
HIDDEN
10
0.421622
20
0.000000
30
0.0
11
0.364289
21
0.000000
31
0.0
0
LINE
8
TOP_HID
6
HIDDEN
10
0.421622
20
0.081081
30
0.0
11
0.364289
21
0.081081
31
0.0
0
LINE
8
TOP_HID
6
HIDDEN
10
0.267867
20
0.081081
30
0.0
11
0.267867
21
0.000000
31
0.0
0
LINE
8
TOP_HID
6
HIDDEN
10
0.575376
20
0.081081
30
0.0
11
0.575376
21
0.000000
31
0.0
0
ENDSEC
0
EOF
