0
SECTION
2
HEADER
9
$ACADVER
1
AC1009
0
ENDSEC
0
SECTION
2
TABLES
0
TABLE
2
LTYPE
70
3
0
LTYPE
2
CONTINUOUS
70
0
3
Solid line
72
65
73
0
40
0.0
0
LTYPE
2
HIDDEN
70
0
3
__ __ __ __ __
72
65
73
2
40
0.037500
49
0.025013
49
-0.012488
0
LTYPE
2
CENTER
70
0
3
___ _ ___ _ ___
72
65
73
4
40
0.087488
49
0.049988
49
-0.012488
49
0.012488
49
-0.012488
0
ENDTAB
0
TABLE
2
LAYER
70
7
0
LAYER
2
0
70
0
62
7
6
CONTINUOUS
0
LAYER
2
FRONT
70
0
62
7
6
CONTINUOUS
0
LAYER
2
FRONT_HID
70
0
62
7
6
HIDDEN
0
LAYER
2
LEFT
70
0
62
7
6
CONTINUOUS
0
LAYER
2
LEFT_HID
70
0
62
7
6
HIDDEN
0
LAYER
2
TOP
70
0
62
7
6
CONTINUOUS
0
LAYER
2
TOP_HID
70
0
62
7
6
HIDDEN
0
ENDTAB
0
ENDSEC
0
SECTION
2
ENTITIES
0
LINE
8
FRONT
10
0.300000
20
0.449907
30
0.0
11
0.300000
21
0.734907
31
0.0
0
LINE
8
FRONT
10
0.300000
20
0.449907
30
0.0
11
0.000000
21
0.449907
31
0.0
0
LINE
8
FRONT
10
0.300000
20
0.764907
30
0.0
11
0.299958
21
0.764483
31
0.0
0
LINE
8
FRONT
10
0.299958
20
0.764483
30
0.0
11
0.299918
21
0.764059
31
0.0
0
LINE
8
FRONT
10
0.299918
20
0.764059
30
0.0
11
0.299878
21
0.763635
31
0.0
0
LINE
8
FRONT
10
0.299878
20
0.763635
30
0.0
11
0.299840
21
0.763211
31
0.0
0
LINE
8
FRONT
10
0.299840
20
0.763211
30
0.0
11
0.299803
21
0.762787
31
0.0
0
LINE
8
FRONT
10
0.299803
20
0.762787
30
0.0
11
0.299767
21
0.762363
31
0.0
0
LINE
8
FRONT
10
0.299767
20
0.762363
30
0.0
11
0.299732
21
0.761939
31
0.0
0
LINE
8
FRONT
10
0.299732
20
0.761939
30
0.0
11
0.299699
21
0.761514
31
0.0
0
LINE
8
FRONT
10
0.299699
20
0.761514
30
0.0
11
0.299666
21
0.761090
31
0.0
0
LINE
8
FRONT
10
0.299666
20
0.761090
30
0.0
11
0.299635
21
0.760665
31
0.0
0
LINE
8
FRONT
10
0.299635
20
0.760665
30
0.0
11
0.299605
21
0.760240
31
0.0
0
LINE
8
FRONT
10
0.299605
20
0.760240
30
0.0
11
0.299577
21
0.759815
31
0.0
0
LINE
8
FRONT
10
0.299577
20
0.759815
30
0.0
11
0.299549
21
0.759391
31
0.0
0
LINE
8
FRONT
10
0.299549
20
0.759391
30
0.0
11
0.299523
21
0.758966
31
0.0
0
LINE
8
FRONT
10
0.299523
20
0.758966
30
0.0
11
0.299498
21
0.758541
31
0.0
0
LINE
8
FRONT
10
0.299498
20
0.758541
30
0.0
11
0.299474
21
0.758116
31
0.0
0
LINE
8
FRONT
10
0.299474
20
0.758116
30
0.0
11
0.299451
21
0.757690
31
0.0
0
LINE
8
FRONT
10
0.299451
20
0.757690
30
0.0
11
0.299429
21
0.757265
31
0.0
0
LINE
8
FRONT
10
0.299429
20
0.757265
30
0.0
11
0.299409
21
0.756840
31
0.0
0
LINE
8
FRONT
10
0.299409
20
0.756840
30
0.0
11
0.299390
21
0.756415
31
0.0
0
LINE
8
FRONT
10
0.299390
20
0.756415
30
0.0
11
0.299372
21
0.755989
31
0.0
0
LINE
8
FRONT
10
0.299372
20
0.755989
30
0.0
11
0.299355
21
0.755564
31
0.0
0
LINE
8
FRONT
10
0.299355
20
0.755564
30
0.0
11
0.299340
21
0.755138
31
0.0
0
LINE
8
FRONT
10
0.299340
20
0.755138
30
0.0
11
0.299325
21
0.754713
31
0.0
0
LINE
8
FRONT
10
0.299325
20
0.754713
30
0.0
11
0.299312
21
0.754287
31
0.0
0
LINE
8
FRONT
10
0.299312
20
0.754287
30
0.0
11
0.299301
21
0.753862
31
0.0
0
LINE
8
FRONT
10
0.299301
20
0.753862
30
0.0
11
0.299290
21
0.753436
31
0.0
0
LINE
8
FRONT
10
0.299290
20
0.753436
30
0.0
11
0.299280
21
0.753010
31
0.0
0
LINE
8
FRONT
10
0.299280
20
0.753010
30
0.0
11
0.299272
21
0.752585
31
0.0
0
LINE
8
FRONT
10
0.299272
20
0.752585
30
0.0
11
0.299265
21
0.752159
31
0.0
0
LINE
8
FRONT
10
0.299265
20
0.752159
30
0.0
11
0.299259
21
0.751733
31
0.0
0
LINE
8
FRONT
10
0.299259
20
0.751733
30
0.0
11
0.299255
21
0.751307
31
0.0
0
LINE
8
FRONT
10
0.299255
20
0.751307
30
0.0
11
0.299251
21
0.750882
31
0.0
0
LINE
8
FRONT
10
0.299251
20
0.750882
30
0.0
11
0.299249
21
0.750456
31
0.0
0
LINE
8
FRONT
10
0.299249
20
0.750456
30
0.0
11
0.299248
21
0.750030
31
0.0
0
LINE
8
FRONT
10
0.299248
20
0.750030
30
0.0
11
0.299248
21
0.749604
31
0.0
0
LINE
8
FRONT
10
0.299248
20
0.749604
30
0.0
11
0.299250
21
0.749179
31
0.0
0
LINE
8
FRONT
10
0.299250
20
0.749179
30
0.0
11
0.299253
21
0.748753
31
0.0
0
LINE
8
FRONT
10
0.299253
20
0.748753
30
0.0
11
0.299256
21
0.748327
31
0.0
0
LINE
8
FRONT
10
0.299256
20
0.748327
30
0.0
11
0.299262
21
0.747901
31
0.0
0
LINE
8
FRONT
10
0.299262
20
0.747901
30
0.0
11
0.299268
21
0.747476
31
0.0
0
LINE
8
FRONT
10
0.299268
20
0.747476
30
0.0
11
0.299275
21
0.747050
31
0.0
0
LINE
8
FRONT
10
0.299275
20
0.747050
30
0.0
11
0.299284
21
0.746624
31
0.0
0
LINE
8
FRONT
10
0.299284
20
0.746624
30
0.0
11
0.299294
21
0.746199
31
0.0
0
LINE
8
FRONT
10
0.299294
20
0.746199
30
0.0
11
0.299305
21
0.745773
31
0.0
0
LINE
8
FRONT
10
0.299305
20
0.745773
30
0.0
11
0.299318
21
0.745348
31
0.0
0
LINE
8
FRONT
10
0.299318
20
0.745348
30
0.0
11
0.299331
21
0.744922
31
0.0
0
LINE
8
FRONT
10
0.299331
20
0.744922
30
0.0
11
0.299346
21
0.744496
31
0.0
0
LINE
8
FRONT
10
0.299346
20
0.744496
30
0.0
11
0.299362
21
0.744071
31
0.0
0
LINE
8
FRONT
10
0.299362
20
0.744071
30
0.0
11
0.299379
21
0.743646
31
0.0
0
LINE
8
FRONT
10
0.299379
20
0.743646
30
0.0
11
0.299398
21
0.743220
31
0.0
0
LINE
8
FRONT
10
0.299398
20
0.743220
30
0.0
11
0.299417
21
0.742795
31
0.0
0
LINE
8
FRONT
10
0.299417
20
0.742795
30
0.0
11
0.299438
21
0.742370
31
0.0
0
LINE
8
FRONT
10
0.299438
20
0.742370
30
0.0
11
0.299460
21
0.741944
31
0.0
0
LINE
8
FRONT
10
0.299460
20
0.741944
30
0.0
11
0.299484
21
0.741519
31
0.0
0
LINE
8
FRONT
10
0.299484
20
0.741519
30
0.0
11
0.299508
21
0.741094
31
0.0
0
LINE
8
FRONT
10
0.299508
20
0.741094
30
0.0
11
0.299534
21
0.740669
31
0.0
0
LINE
8
FRONT
10
0.299534
20
0.740669
30
0.0
11
0.299561
21
0.740244
31
0.0
0
LINE
8
FRONT
10
0.299561
20
0.740244
30
0.0
11
0.299589
21
0.739820
31
0.0
0
LINE
8
FRONT
10
0.299589
20
0.739820
30
0.0
11
0.299618
21
0.739395
31
0.0
0
LINE
8
FRONT
10
0.299618
20
0.739395
30
0.0
11
0.299648
21
0.738970
31
0.0
0
LINE
8
FRONT
10
0.299648
20
0.738970
30
0.0
11
0.299680
21
0.738546
31
0.0
0
LINE
8
FRONT
10
0.299680
20
0.738546
30
0.0
11
0.299713
21
0.738121
31
0.0
0
LINE
8
FRONT
10
0.300000
20
0.764907
30
0.0
11
0.300000
21
1.199907
31
0.0
0
LINE
8
FRONT
10
0.300000
20
1.199907
30
0.0
11
0.000000
21
1.199907
31
0.0
0
LINE
8
FRONT
10
0.300000
20
0.734907
30
0.0
11
0.299953
21
0.735381
31
0.0
0
LINE
8
FRONT
10
0.299953
20
0.735381
30
0.0
11
0.299908
21
0.735856
31
0.0
0
LINE
8
FRONT
10
0.299908
20
0.735856
30
0.0
11
0.299864
21
0.736331
31
0.0
0
LINE
8
FRONT
10
0.299864
20
0.736331
30
0.0
11
0.299822
21
0.736806
31
0.0
0
LINE
8
FRONT
10
0.299822
20
0.736806
30
0.0
11
0.299781
21
0.737282
31
0.0
0
LINE
8
FRONT
10
0.299781
20
0.737282
30
0.0
11
0.299742
21
0.737757
31
0.0
0
LINE
8
FRONT
10
0.299742
20
0.737757
30
0.0
11
0.299704
21
0.738232
31
0.0
0
LINE
8
FRONT
10
0.299704
20
0.738232
30
0.0
11
0.299668
21
0.738708
31
0.0
0
LINE
8
FRONT
10
0.299668
20
0.738708
30
0.0
11
0.299633
21
0.739184
31
0.0
0
LINE
8
FRONT
10
0.299633
20
0.739184
30
0.0
11
0.299599
21
0.739660
31
0.0
0
LINE
8
FRONT
10
0.299599
20
0.739660
30
0.0
11
0.299568
21
0.740135
31
0.0
0
LINE
8
FRONT
10
0.299568
20
0.740135
30
0.0
11
0.299537
21
0.740612
31
0.0
0
LINE
8
FRONT
10
0.299537
20
0.740612
30
0.0
11
0.299508
21
0.741088
31
0.0
0
LINE
8
FRONT
10
0.299508
20
0.741088
30
0.0
11
0.299481
21
0.741564
31
0.0
0
LINE
8
FRONT
10
0.299481
20
0.741564
30
0.0
11
0.299455
21
0.742040
31
0.0
0
LINE
8
FRONT
10
0.299455
20
0.742040
30
0.0
11
0.299431
21
0.742516
31
0.0
0
LINE
8
FRONT
10
0.299431
20
0.742516
30
0.0
11
0.299408
21
0.742993
31
0.0
0
LINE
8
FRONT
10
0.299408
20
0.742993
30
0.0
11
0.299387
21
0.743469
31
0.0
0
LINE
8
FRONT
10
0.299387
20
0.743469
30
0.0
11
0.299367
21
0.743946
31
0.0
0
LINE
8
FRONT
10
0.299367
20
0.743946
30
0.0
11
0.299349
21
0.744423
31
0.0
0
LINE
8
FRONT
10
0.299349
20
0.744423
30
0.0
11
0.299332
21
0.744899
31
0.0
0
LINE
8
FRONT
10
0.299332
20
0.744899
30
0.0
11
0.299317
21
0.745376
31
0.0
0
LINE
8
FRONT
10
0.299317
20
0.745376
30
0.0
11
0.299303
21
0.745853
31
0.0
0
LINE
8
FRONT
10
0.299303
20
0.745853
30
0.0
11
0.299291
21
0.746330
31
0.0
0
LINE
8
FRONT
10
0.299291
20
0.746330
30
0.0
11
0.299280
21
0.746807
31
0.0
0
LINE
8
FRONT
10
0.299280
20
0.746807
30
0.0
11
0.299271
21
0.747283
31
0.0
0
LINE
8
FRONT
10
0.299271
20
0.747283
30
0.0
11
0.299264
21
0.747760
31
0.0
0
LINE
8
FRONT
10
0.299264
20
0.747760
30
0.0
11
0.299257
21
0.748237
31
0.0
0
LINE
8
FRONT
10
0.299257
20
0.748237
30
0.0
11
0.299253
21
0.748714
31
0.0
0
LINE
8
FRONT
10
0.299253
20
0.748714
30
0.0
11
0.299250
21
0.749191
31
0.0
0
LINE
8
FRONT
10
0.299250
20
0.749191
30
0.0
11
0.299248
21
0.749668
31
0.0
0
LINE
8
FRONT
10
0.299248
20
0.749668
30
0.0
11
0.299248
21
0.750145
31
0.0
0
LINE
8
FRONT
10
0.299248
20
0.750145
30
0.0
11
0.299250
21
0.750622
31
0.0
0
LINE
8
FRONT
10
0.299250
20
0.750622
30
0.0
11
0.299253
21
0.751099
31
0.0
0
LINE
8
FRONT
10
0.299253
20
0.751099
30
0.0
11
0.299257
21
0.751576
31
0.0
0
LINE
8
FRONT
10
0.299257
20
0.751576
30
0.0
11
0.299264
21
0.752053
31
0.0
0
LINE
8
FRONT
10
0.299264
20
0.752053
30
0.0
11
0.299271
21
0.752530
31
0.0
0
LINE
8
FRONT
10
0.299271
20
0.752530
30
0.0
11
0.299280
21
0.753007
31
0.0
0
LINE
8
FRONT
10
0.299280
20
0.753007
30
0.0
11
0.299291
21
0.753484
31
0.0
0
LINE
8
FRONT
10
0.299291
20
0.753484
30
0.0
11
0.299303
21
0.753961
31
0.0
0
LINE
8
FRONT
10
0.299303
20
0.753961
30
0.0
11
0.299317
21
0.754437
31
0.0
0
LINE
8
FRONT
10
0.299317
20
0.754437
30
0.0
11
0.299332
21
0.754914
31
0.0
0
LINE
8
FRONT
10
0.299332
20
0.754914
30
0.0
11
0.299349
21
0.755391
31
0.0
0
LINE
8
FRONT
10
0.299349
20
0.755391
30
0.0
11
0.299367
21
0.755867
31
0.0
0
LINE
8
FRONT
10
0.299367
20
0.755867
30
0.0
11
0.299387
21
0.756344
31
0.0
0
LINE
8
FRONT
10
0.299387
20
0.756344
30
0.0
11
0.299408
21
0.756821
31
0.0
0
LINE
8
FRONT
10
0.299408
20
0.756821
30
0.0
11
0.299431
21
0.757297
31
0.0
0
LINE
8
FRONT
10
0.299431
20
0.757297
30
0.0
11
0.299455
21
0.757773
31
0.0
0
LINE
8
FRONT
10
0.299455
20
0.757773
30
0.0
11
0.299481
21
0.758250
31
0.0
0
LINE
8
FRONT
10
0.299481
20
0.758250
30
0.0
11
0.299508
21
0.758726
31
0.0
0
LINE
8
FRONT
10
0.299508
20
0.758726
30
0.0
11
0.299537
21
0.759202
31
0.0
0
LINE
8
FRONT
10
0.299537
20
0.759202
30
0.0
11
0.299568
21
0.759678
31
0.0
0
LINE
8
FRONT
10
0.299568
20
0.759678
30
0.0
11
0.299599
21
0.760154
31
0.0
0
LINE
8
FRONT
10
0.299599
20
0.760154
30
0.0
11
0.299633
21
0.760630
31
0.0
0
LINE
8
FRONT
10
0.299633
20
0.760630
30
0.0
11
0.299668
21
0.761105
31
0.0
0
LINE
8
FRONT
10
0.299668
20
0.761105
30
0.0
11
0.299704
21
0.761581
31
0.0
0
LINE
8
FRONT
10
0.299704
20
0.761581
30
0.0
11
0.299742
21
0.762057
31
0.0
0
LINE
8
FRONT
10
0.299742
20
0.762057
30
0.0
11
0.299781
21
0.762532
31
0.0
0
LINE
8
FRONT
10
0.299781
20
0.762532
30
0.0
11
0.299822
21
0.763007
31
0.0
0
LINE
8
FRONT
10
0.299822
20
0.763007
30
0.0
11
0.299864
21
0.763482
31
0.0
0
LINE
8
FRONT
10
0.299864
20
0.763482
30
0.0
11
0.299908
21
0.763957
31
0.0
0
LINE
8
FRONT
10
0.299908
20
0.763957
30
0.0
11
0.299953
21
0.764432
31
0.0
0
LINE
8
FRONT
10
0.299953
20
0.764432
30
0.0
11
0.300000
21
0.764907
31
0.0
0
LINE
8
FRONT
10
0.000000
20
0.764907
30
0.0
11
0.000665
21
0.755000
31
0.0
0
LINE
8
FRONT
10
0.000432
20
0.740132
30
0.0
11
0.000000
21
0.734907
31
0.0
0
LINE
8
FRONT
10
0.000000
20
0.734907
30
0.0
11
0.000047
21
0.735381
31
0.0
0
LINE
8
FRONT
10
0.000047
20
0.735381
30
0.0
11
0.000092
21
0.735856
31
0.0
0
LINE
8
FRONT
10
0.000092
20
0.735856
30
0.0
11
0.000136
21
0.736331
31
0.0
0
LINE
8
FRONT
10
0.000136
20
0.736331
30
0.0
11
0.000178
21
0.736806
31
0.0
0
LINE
8
FRONT
10
0.000178
20
0.736806
30
0.0
11
0.000219
21
0.737282
31
0.0
0
LINE
8
FRONT
10
0.000219
20
0.737282
30
0.0
11
0.000258
21
0.737757
31
0.0
0
LINE
8
FRONT
10
0.000258
20
0.737757
30
0.0
11
0.000296
21
0.738232
31
0.0
0
LINE
8
FRONT
10
0.000296
20
0.738232
30
0.0
11
0.000332
21
0.738708
31
0.0
0
LINE
8
FRONT
10
0.000332
20
0.738708
30
0.0
11
0.000367
21
0.739184
31
0.0
0
LINE
8
FRONT
10
0.000367
20
0.739184
30
0.0
11
0.000401
21
0.739660
31
0.0
0
LINE
8
FRONT
10
0.000401
20
0.739660
30
0.0
11
0.000432
21
0.740135
31
0.0
0
LINE
8
FRONT
10
0.000432
20
0.740135
30
0.0
11
0.000463
21
0.740612
31
0.0
0
LINE
8
FRONT
10
0.000463
20
0.740612
30
0.0
11
0.000492
21
0.741088
31
0.0
0
LINE
8
FRONT
10
0.000492
20
0.741088
30
0.0
11
0.000519
21
0.741564
31
0.0
0
LINE
8
FRONT
10
0.000519
20
0.741564
30
0.0
11
0.000545
21
0.742040
31
0.0
0
LINE
8
FRONT
10
0.000545
20
0.742040
30
0.0
11
0.000569
21
0.742516
31
0.0
0
LINE
8
FRONT
10
0.000569
20
0.742516
30
0.0
11
0.000592
21
0.742993
31
0.0
0
LINE
8
FRONT
10
0.000592
20
0.742993
30
0.0
11
0.000613
21
0.743469
31
0.0
0
LINE
8
FRONT
10
0.000613
20
0.743469
30
0.0
11
0.000633
21
0.743946
31
0.0
0
LINE
8
FRONT
10
0.000633
20
0.743946
30
0.0
11
0.000651
21
0.744423
31
0.0
0
LINE
8
FRONT
10
0.000651
20
0.744423
30
0.0
11
0.000668
21
0.744899
31
0.0
0
LINE
8
FRONT
10
0.000668
20
0.744899
30
0.0
11
0.000683
21
0.745376
31
0.0
0
LINE
8
FRONT
10
0.000683
20
0.745376
30
0.0
11
0.000697
21
0.745853
31
0.0
0
LINE
8
FRONT
10
0.000697
20
0.745853
30
0.0
11
0.000709
21
0.746330
31
0.0
0
LINE
8
FRONT
10
0.000709
20
0.746330
30
0.0
11
0.000720
21
0.746807
31
0.0
0
LINE
8
FRONT
10
0.000720
20
0.746807
30
0.0
11
0.000729
21
0.747283
31
0.0
0
LINE
8
FRONT
10
0.000729
20
0.747283
30
0.0
11
0.000736
21
0.747760
31
0.0
0
LINE
8
FRONT
10
0.000736
20
0.747760
30
0.0
11
0.000743
21
0.748237
31
0.0
0
LINE
8
FRONT
10
0.000743
20
0.748237
30
0.0
11
0.000747
21
0.748714
31
0.0
0
LINE
8
FRONT
10
0.000747
20
0.748714
30
0.0
11
0.000750
21
0.749191
31
0.0
0
LINE
8
FRONT
10
0.000750
20
0.749191
30
0.0
11
0.000752
21
0.749668
31
0.0
0
LINE
8
FRONT
10
0.000752
20
0.749668
30
0.0
11
0.000752
21
0.750145
31
0.0
0
LINE
8
FRONT
10
0.000752
20
0.750145
30
0.0
11
0.000750
21
0.750622
31
0.0
0
LINE
8
FRONT
10
0.000750
20
0.750622
30
0.0
11
0.000747
21
0.751099
31
0.0
0
LINE
8
FRONT
10
0.000747
20
0.751099
30
0.0
11
0.000743
21
0.751576
31
0.0
0
LINE
8
FRONT
10
0.000743
20
0.751576
30
0.0
11
0.000736
21
0.752053
31
0.0
0
LINE
8
FRONT
10
0.000736
20
0.752053
30
0.0
11
0.000729
21
0.752530
31
0.0
0
LINE
8
FRONT
10
0.000729
20
0.752530
30
0.0
11
0.000720
21
0.753007
31
0.0
0
LINE
8
FRONT
10
0.000720
20
0.753007
30
0.0
11
0.000709
21
0.753484
31
0.0
0
LINE
8
FRONT
10
0.000709
20
0.753484
30
0.0
11
0.000697
21
0.753961
31
0.0
0
LINE
8
FRONT
10
0.000697
20
0.753961
30
0.0
11
0.000683
21
0.754437
31
0.0
0
LINE
8
FRONT
10
0.000683
20
0.754437
30
0.0
11
0.000668
21
0.754914
31
0.0
0
LINE
8
FRONT
10
0.000668
20
0.754914
30
0.0
11
0.000651
21
0.755391
31
0.0
0
LINE
8
FRONT
10
0.000651
20
0.755391
30
0.0
11
0.000633
21
0.755867
31
0.0
0
LINE
8
FRONT
10
0.000633
20
0.755867
30
0.0
11
0.000613
21
0.756344
31
0.0
0
LINE
8
FRONT
10
0.000613
20
0.756344
30
0.0
11
0.000592
21
0.756821
31
0.0
0
LINE
8
FRONT
10
0.000592
20
0.756821
30
0.0
11
0.000569
21
0.757297
31
0.0
0
LINE
8
FRONT
10
0.000569
20
0.757297
30
0.0
11
0.000545
21
0.757773
31
0.0
0
LINE
8
FRONT
10
0.000545
20
0.757773
30
0.0
11
0.000519
21
0.758250
31
0.0
0
LINE
8
FRONT
10
0.000519
20
0.758250
30
0.0
11
0.000492
21
0.758726
31
0.0
0
LINE
8
FRONT
10
0.000492
20
0.758726
30
0.0
11
0.000463
21
0.759202
31
0.0
0
LINE
8
FRONT
10
0.000463
20
0.759202
30
0.0
11
0.000432
21
0.759678
31
0.0
0
LINE
8
FRONT
10
0.000432
20
0.759678
30
0.0
11
0.000401
21
0.760154
31
0.0
0
LINE
8
FRONT
10
0.000401
20
0.760154
30
0.0
11
0.000367
21
0.760630
31
0.0
0
LINE
8
FRONT
10
0.000367
20
0.760630
30
0.0
11
0.000332
21
0.761105
31
0.0
0
LINE
8
FRONT
10
0.000332
20
0.761105
30
0.0
11
0.000296
21
0.761581
31
0.0
0
LINE
8
FRONT
10
0.000296
20
0.761581
30
0.0
11
0.000258
21
0.762057
31
0.0
0
LINE
8
FRONT
10
0.000258
20
0.762057
30
0.0
11
0.000219
21
0.762532
31
0.0
0
LINE
8
FRONT
10
0.000219
20
0.762532
30
0.0
11
0.000178
21
0.763007
31
0.0
0
LINE
8
FRONT
10
0.000178
20
0.763007
30
0.0
11
0.000136
21
0.763482
31
0.0
0
LINE
8
FRONT
10
0.000136
20
0.763482
30
0.0
11
0.000092
21
0.763957
31
0.0
0
LINE
8
FRONT
10
0.000092
20
0.763957
30
0.0
11
0.000047
21
0.764432
31
0.0
0
LINE
8
FRONT
10
0.000047
20
0.764432
30
0.0
11
0.000000
21
0.764907
31
0.0
0
LINE
8
FRONT
10
0.000000
20
1.199907
30
0.0
11
0.000000
21
0.764907
31
0.0
0
LINE
8
FRONT
10
0.000000
20
0.734907
30
0.0
11
0.000000
21
0.449907
31
0.0
0
LINE
8
FRONT_HID
6
HIDDEN
10
0.299713
20
0.738121
30
0.0
11
0.300000
21
0.734907
31
0.0
0
LINE
8
FRONT_HID
6
HIDDEN
10
0.000665
20
0.755000
30
0.0
11
0.000673
21
0.754764
31
0.0
0
LINE
8
FRONT_HID
6
HIDDEN
10
0.000673
20
0.754764
30
0.0
11
0.000680
21
0.754528
31
0.0
0
LINE
8
FRONT_HID
6
HIDDEN
10
0.000680
20
0.754528
30
0.0
11
0.000687
21
0.754292
31
0.0
0
LINE
8
FRONT_HID
6
HIDDEN
10
0.000687
20
0.754292
30
0.0
11
0.000694
21
0.754056
31
0.0
0
LINE
8
FRONT_HID
6
HIDDEN
10
0.000694
20
0.754056
30
0.0
11
0.000701
21
0.753820
31
0.0
0
LINE
8
FRONT_HID
6
HIDDEN
10
0.000701
20
0.753820
30
0.0
11
0.000707
21
0.753584
31
0.0
0
LINE
8
FRONT_HID
6
HIDDEN
10
0.000707
20
0.753584
30
0.0
11
0.000712
21
0.753348
31
0.0
0
LINE
8
FRONT_HID
6
HIDDEN
10
0.000712
20
0.753348
30
0.0
11
0.000717
21
0.753112
31
0.0
0
LINE
8
FRONT_HID
6
HIDDEN
10
0.000717
20
0.753112
30
0.0
11
0.000722
21
0.752876
31
0.0
0
LINE
8
FRONT_HID
6
HIDDEN
10
0.000722
20
0.752876
30
0.0
11
0.000727
21
0.752640
31
0.0
0
LINE
8
FRONT_HID
6
HIDDEN
10
0.000727
20
0.752640
30
0.0
11
0.000731
21
0.752404
31
0.0
0
LINE
8
FRONT_HID
6
HIDDEN
10
0.000731
20
0.752404
30
0.0
11
0.000735
21
0.752168
31
0.0
0
LINE
8
FRONT_HID
6
HIDDEN
10
0.000735
20
0.752168
30
0.0
11
0.000738
21
0.751932
31
0.0
0
LINE
8
FRONT_HID
6
HIDDEN
10
0.000738
20
0.751932
30
0.0
11
0.000741
21
0.751695
31
0.0
0
LINE
8
FRONT_HID
6
HIDDEN
10
0.000741
20
0.751695
30
0.0
11
0.000744
21
0.751459
31
0.0
0
LINE
8
FRONT_HID
6
HIDDEN
10
0.000744
20
0.751459
30
0.0
11
0.000746
21
0.751223
31
0.0
0
LINE
8
FRONT_HID
6
HIDDEN
10
0.000746
20
0.751223
30
0.0
11
0.000748
21
0.750987
31
0.0
0
LINE
8
FRONT_HID
6
HIDDEN
10
0.000748
20
0.750987
30
0.0
11
0.000750
21
0.750751
31
0.0
0
LINE
8
FRONT_HID
6
HIDDEN
10
0.000750
20
0.750751
30
0.0
11
0.000751
21
0.750515
31
0.0
0
LINE
8
FRONT_HID
6
HIDDEN
10
0.000751
20
0.750515
30
0.0
11
0.000751
21
0.750279
31
0.0
0
LINE
8
FRONT_HID
6
HIDDEN
10
0.000751
20
0.750279
30
0.0
11
0.000752
21
0.750043
31
0.0
0
LINE
8
FRONT_HID
6
HIDDEN
10
0.000752
20
0.750043
30
0.0
11
0.000752
21
0.749806
31
0.0
0
LINE
8
FRONT_HID
6
HIDDEN
10
0.000752
20
0.749806
30
0.0
11
0.000752
21
0.749570
31
0.0
0
LINE
8
FRONT_HID
6
HIDDEN
10
0.000752
20
0.749570
30
0.0
11
0.000751
21
0.749334
31
0.0
0
LINE
8
FRONT_HID
6
HIDDEN
10
0.000751
20
0.749334
30
0.0
11
0.000750
21
0.749098
31
0.0
0
LINE
8
FRONT_HID
6
HIDDEN
10
0.000750
20
0.749098
30
0.0
11
0.000748
21
0.748862
31
0.0
0
LINE
8
FRONT_HID
6
HIDDEN
10
0.000748
20
0.748862
30
0.0
11
0.000746
21
0.748626
31
0.0
0
LINE
8
FRONT_HID
6
HIDDEN
10
0.000746
20
0.748626
30
0.0
11
0.000744
21
0.748390
31
0.0
0
LINE
8
FRONT_HID
6
HIDDEN
10
0.000744
20
0.748390
30
0.0
11
0.000742
21
0.748154
31
0.0
0
LINE
8
FRONT_HID
6
HIDDEN
10
0.000742
20
0.748154
30
0.0
11
0.000739
21
0.747917
31
0.0
0
LINE
8
FRONT_HID
6
HIDDEN
10
0.000739
20
0.747917
30
0.0
11
0.000735
21
0.747681
31
0.0
0
LINE
8
FRONT_HID
6
HIDDEN
10
0.000735
20
0.747681
30
0.0
11
0.000732
21
0.747445
31
0.0
0
LINE
8
FRONT_HID
6
HIDDEN
10
0.000732
20
0.747445
30
0.0
11
0.000728
21
0.747209
31
0.0
0
LINE
8
FRONT_HID
6
HIDDEN
10
0.000728
20
0.747209
30
0.0
11
0.000723
21
0.746973
31
0.0
0
LINE
8
FRONT_HID
6
HIDDEN
10
0.000723
20
0.746973
30
0.0
11
0.000718
21
0.746737
31
0.0
0
LINE
8
FRONT_HID
6
HIDDEN
10
0.000718
20
0.746737
30
0.0
11
0.000713
21
0.746501
31
0.0
0
LINE
8
FRONT_HID
6
HIDDEN
10
0.000713
20
0.746501
30
0.0
11
0.000707
21
0.746265
31
0.0
0
LINE
8
FRONT_HID
6
HIDDEN
10
0.000707
20
0.746265
30
0.0
11
0.000702
21
0.746029
31
0.0
0
LINE
8
FRONT_HID
6
HIDDEN
10
0.000702
20
0.746029
30
0.0
11
0.000695
21
0.745793
31
0.0
0
LINE
8
FRONT_HID
6
HIDDEN
10
0.000695
20
0.745793
30
0.0
11
0.000689
21
0.745557
31
0.0
0
LINE
8
FRONT_HID
6
HIDDEN
10
0.000689
20
0.745557
30
0.0
11
0.000681
21
0.745321
31
0.0
0
LINE
8
FRONT_HID
6
HIDDEN
10
0.000681
20
0.745321
30
0.0
11
0.000674
21
0.745085
31
0.0
0
LINE
8
FRONT_HID
6
HIDDEN
10
0.000674
20
0.745085
30
0.0
11
0.000666
21
0.744849
31
0.0
0
LINE
8
FRONT_HID
6
HIDDEN
10
0.000666
20
0.744849
30
0.0
11
0.000658
21
0.744613
31
0.0
0
LINE
8
FRONT_HID
6
HIDDEN
10
0.000658
20
0.744613
30
0.0
11
0.000649
21
0.744377
31
0.0
0
LINE
8
FRONT_HID
6
HIDDEN
10
0.000649
20
0.744377
30
0.0
11
0.000641
21
0.744141
31
0.0
0
LINE
8
FRONT_HID
6
HIDDEN
10
0.000641
20
0.744141
30
0.0
11
0.000631
21
0.743905
31
0.0
0
LINE
8
FRONT_HID
6
HIDDEN
10
0.000631
20
0.743905
30
0.0
11
0.000622
21
0.743669
31
0.0
0
LINE
8
FRONT_HID
6
HIDDEN
10
0.000622
20
0.743669
30
0.0
11
0.000612
21
0.743433
31
0.0
0
LINE
8
FRONT_HID
6
HIDDEN
10
0.000612
20
0.743433
30
0.0
11
0.000601
21
0.743197
31
0.0
0
LINE
8
FRONT_HID
6
HIDDEN
10
0.000601
20
0.743197
30
0.0
11
0.000590
21
0.742961
31
0.0
0
LINE
8
FRONT_HID
6
HIDDEN
10
0.000590
20
0.742961
30
0.0
11
0.000579
21
0.742725
31
0.0
0
LINE
8
FRONT_HID
6
HIDDEN
10
0.000579
20
0.742725
30
0.0
11
0.000568
21
0.742489
31
0.0
0
LINE
8
FRONT_HID
6
HIDDEN
10
0.000568
20
0.742489
30
0.0
11
0.000556
21
0.742254
31
0.0
0
LINE
8
FRONT_HID
6
HIDDEN
10
0.000556
20
0.742254
30
0.0
11
0.000544
21
0.742018
31
0.0
0
LINE
8
FRONT_HID
6
HIDDEN
10
0.000544
20
0.742018
30
0.0
11
0.000531
21
0.741782
31
0.0
0
LINE
8
FRONT_HID
6
HIDDEN
10
0.000531
20
0.741782
30
0.0
11
0.000518
21
0.741546
31
0.0
0
LINE
8
FRONT_HID
6
HIDDEN
10
0.000518
20
0.741546
30
0.0
11
0.000505
21
0.741311
31
0.0
0
LINE
8
FRONT_HID
6
HIDDEN
10
0.000505
20
0.741311
30
0.0
11
0.000491
21
0.741075
31
0.0
0
LINE
8
FRONT_HID
6
HIDDEN
10
0.000491
20
0.741075
30
0.0
11
0.000477
21
0.740839
31
0.0
0
LINE
8
FRONT_HID
6
HIDDEN
10
0.000477
20
0.740839
30
0.0
11
0.000462
21
0.740603
31
0.0
0
LINE
8
FRONT_HID
6
HIDDEN
10
0.000462
20
0.740603
30
0.0
11
0.000447
21
0.740368
31
0.0
0
LINE
8
FRONT_HID
6
HIDDEN
10
0.000447
20
0.740368
30
0.0
11
0.000432
21
0.740132
31
0.0
0
LINE
8
FRONT_HID
6
HIDDEN
10
0.291000
20
0.734907
30
0.0
11
0.290950
21
0.735381
31
0.0
0
LINE
8
FRONT_HID
6
HIDDEN
10
0.290950
20
0.735381
30
0.0
11
0.290902
21
0.735856
31
0.0
0
LINE
8
FRONT_HID
6
HIDDEN
10
0.290902
20
0.735856
30
0.0
11
0.290856
21
0.736331
31
0.0
0
LINE
8
FRONT_HID
6
HIDDEN
10
0.290856
20
0.736331
30
0.0
11
0.290811
21
0.736806
31
0.0
0
LINE
8
FRONT_HID
6
HIDDEN
10
0.290811
20
0.736806
30
0.0
11
0.290767
21
0.737281
31
0.0
0
LINE
8
FRONT_HID
6
HIDDEN
10
0.290767
20
0.737281
30
0.0
11
0.290725
21
0.737756
31
0.0
0
LINE
8
FRONT_HID
6
HIDDEN
10
0.290725
20
0.737756
30
0.0
11
0.290685
21
0.738231
31
0.0
0
LINE
8
FRONT_HID
6
HIDDEN
10
0.290685
20
0.738231
30
0.0
11
0.290646
21
0.738707
31
0.0
0
LINE
8
FRONT_HID
6
HIDDEN
10
0.290646
20
0.738707
30
0.0
11
0.290609
21
0.739183
31
0.0
0
LINE
8
FRONT_HID
6
HIDDEN
10
0.290609
20
0.739183
30
0.0
11
0.290574
21
0.739658
31
0.0
0
LINE
8
FRONT_HID
6
HIDDEN
10
0.290574
20
0.739658
30
0.0
11
0.290540
21
0.740134
31
0.0
0
LINE
8
FRONT_HID
6
HIDDEN
10
0.290540
20
0.740134
30
0.0
11
0.290508
21
0.740610
31
0.0
0
LINE
8
FRONT_HID
6
HIDDEN
10
0.290508
20
0.740610
30
0.0
11
0.290477
21
0.741086
31
0.0
0
LINE
8
FRONT_HID
6
HIDDEN
10
0.290477
20
0.741086
30
0.0
11
0.290448
21
0.741563
31
0.0
0
LINE
8
FRONT_HID
6
HIDDEN
10
0.290448
20
0.741563
30
0.0
11
0.290420
21
0.742039
31
0.0
0
LINE
8
FRONT_HID
6
HIDDEN
10
0.290420
20
0.742039
30
0.0
11
0.290395
21
0.742515
31
0.0
0
LINE
8
FRONT_HID
6
HIDDEN
10
0.290395
20
0.742515
30
0.0
11
0.290370
21
0.742992
31
0.0
0
LINE
8
FRONT_HID
6
HIDDEN
10
0.290370
20
0.742992
30
0.0
11
0.290348
21
0.743468
31
0.0
0
LINE
8
FRONT_HID
6
HIDDEN
10
0.290348
20
0.743468
30
0.0
11
0.290327
21
0.743945
31
0.0
0
LINE
8
FRONT_HID
6
HIDDEN
10
0.290327
20
0.743945
30
0.0
11
0.290307
21
0.744422
31
0.0
0
LINE
8
FRONT_HID
6
HIDDEN
10
0.290307
20
0.744422
30
0.0
11
0.290289
21
0.744898
31
0.0
0
LINE
8
FRONT_HID
6
HIDDEN
10
0.290289
20
0.744898
30
0.0
11
0.290273
21
0.745375
31
0.0
0
LINE
8
FRONT_HID
6
HIDDEN
10
0.290273
20
0.745375
30
0.0
11
0.290258
21
0.745852
31
0.0
0
LINE
8
FRONT_HID
6
HIDDEN
10
0.290258
20
0.745852
30
0.0
11
0.290246
21
0.746329
31
0.0
0
LINE
8
FRONT_HID
6
HIDDEN
10
0.290246
20
0.746329
30
0.0
11
0.290234
21
0.746806
31
0.0
0
LINE
8
FRONT_HID
6
HIDDEN
10
0.290234
20
0.746806
30
0.0
11
0.290224
21
0.747283
31
0.0
0
LINE
8
FRONT_HID
6
HIDDEN
10
0.290224
20
0.747283
30
0.0
11
0.290216
21
0.747760
31
0.0
0
LINE
8
FRONT_HID
6
HIDDEN
10
0.290216
20
0.747760
30
0.0
11
0.290210
21
0.748237
31
0.0
0
LINE
8
FRONT_HID
6
HIDDEN
10
0.290210
20
0.748237
30
0.0
11
0.290205
21
0.748714
31
0.0
0
LINE
8
FRONT_HID
6
HIDDEN
10
0.290205
20
0.748714
30
0.0
11
0.290202
21
0.749191
31
0.0
0
LINE
8
FRONT_HID
6
HIDDEN
10
0.290202
20
0.749191
30
0.0
11
0.290200
21
0.749668
31
0.0
0
LINE
8
FRONT_HID
6
HIDDEN
10
0.290200
20
0.749668
30
0.0
11
0.290200
21
0.750145
31
0.0
0
LINE
8
FRONT_HID
6
HIDDEN
10
0.290200
20
0.750145
30
0.0
11
0.290202
21
0.750622
31
0.0
0
LINE
8
FRONT_HID
6
HIDDEN
10
0.290202
20
0.750622
30
0.0
11
0.290205
21
0.751099
31
0.0
0
LINE
8
FRONT_HID
6
HIDDEN
10
0.290205
20
0.751099
30
0.0
11
0.290210
21
0.751577
31
0.0
0
LINE
8
FRONT_HID
6
HIDDEN
10
0.290210
20
0.751577
30
0.0
11
0.290216
21
0.752054
31
0.0
0
LINE
8
FRONT_HID
6
HIDDEN
10
0.290216
20
0.752054
30
0.0
11
0.290224
21
0.752531
31
0.0
0
LINE
8
FRONT_HID
6
HIDDEN
10
0.290224
20
0.752531
30
0.0
11
0.290234
21
0.753008
31
0.0
0
LINE
8
FRONT_HID
6
HIDDEN
10
0.290234
20
0.753008
30
0.0
11
0.290246
21
0.753485
31
0.0
0
LINE
8
FRONT_HID
6
HIDDEN
10
0.290246
20
0.753485
30
0.0
11
0.290258
21
0.753961
31
0.0
0
LINE
8
FRONT_HID
6
HIDDEN
10
0.290258
20
0.753961
30
0.0
11
0.290273
21
0.754438
31
0.0
0
LINE
8
FRONT_HID
6
HIDDEN
10
0.290273
20
0.754438
30
0.0
11
0.290289
21
0.754915
31
0.0
0
LINE
8
FRONT_HID
6
HIDDEN
10
0.290289
20
0.754915
30
0.0
11
0.290307
21
0.755392
31
0.0
0
LINE
8
FRONT_HID
6
HIDDEN
10
0.290307
20
0.755392
30
0.0
11
0.290327
21
0.755869
31
0.0
0
LINE
8
FRONT_HID
6
HIDDEN
10
0.290327
20
0.755869
30
0.0
11
0.290348
21
0.756345
31
0.0
0
LINE
8
FRONT_HID
6
HIDDEN
10
0.290348
20
0.756345
30
0.0
11
0.290370
21
0.756822
31
0.0
0
LINE
8
FRONT_HID
6
HIDDEN
10
0.290370
20
0.756822
30
0.0
11
0.290395
21
0.757298
31
0.0
0
LINE
8
FRONT_HID
6
HIDDEN
10
0.290395
20
0.757298
30
0.0
11
0.290420
21
0.757775
31
0.0
0
LINE
8
FRONT_HID
6
HIDDEN
10
0.290420
20
0.757775
30
0.0
11
0.290448
21
0.758251
31
0.0
0
LINE
8
FRONT_HID
6
HIDDEN
10
0.290448
20
0.758251
30
0.0
11
0.290477
21
0.758727
31
0.0
0
LINE
8
FRONT_HID
6
HIDDEN
10
0.290477
20
0.758727
30
0.0
11
0.290508
21
0.759203
31
0.0
0
LINE
8
FRONT_HID
6
HIDDEN
10
0.290508
20
0.759203
30
0.0
11
0.290540
21
0.759679
31
0.0
0
LINE
8
FRONT_HID
6
HIDDEN
10
0.290540
20
0.759679
30
0.0
11
0.290574
21
0.760155
31
0.0
0
LINE
8
FRONT_HID
6
HIDDEN
10
0.290574
20
0.760155
30
0.0
11
0.290609
21
0.760631
31
0.0
0
LINE
8
FRONT_HID
6
HIDDEN
10
0.290609
20
0.760631
30
0.0
11
0.290646
21
0.761107
31
0.0
0
LINE
8
FRONT_HID
6
HIDDEN
10
0.290646
20
0.761107
30
0.0
11
0.290685
21
0.761582
31
0.0
0
LINE
8
FRONT_HID
6
HIDDEN
10
0.290685
20
0.761582
30
0.0
11
0.290725
21
0.762057
31
0.0
0
LINE
8
FRONT_HID
6
HIDDEN
10
0.290725
20
0.762057
30
0.0
11
0.290767
21
0.762533
31
0.0
0
LINE
8
FRONT_HID
6
HIDDEN
10
0.290767
20
0.762533
30
0.0
11
0.290811
21
0.763008
31
0.0
0
LINE
8
FRONT_HID
6
HIDDEN
10
0.290811
20
0.763008
30
0.0
11
0.290856
21
0.763483
31
0.0
0
LINE
8
FRONT_HID
6
HIDDEN
10
0.290856
20
0.763483
30
0.0
11
0.290902
21
0.763958
31
0.0
0
LINE
8
FRONT_HID
6
HIDDEN
10
0.290902
20
0.763958
30
0.0
11
0.290950
21
0.764432
31
0.0
0
LINE
8
FRONT_HID
6
HIDDEN
10
0.290950
20
0.764432
30
0.0
11
0.291000
21
0.764907
31
0.0
0
LINE
8
FRONT_HID
6
HIDDEN
10
0.291000
20
0.764907
30
0.0
11
0.300000
21
0.764907
31
0.0
0
LINE
8
FRONT_HID
6
HIDDEN
10
0.291000
20
0.764907
30
0.0
11
0.290950
21
0.764432
31
0.0
0
LINE
8
FRONT_HID
6
HIDDEN
10
0.290950
20
0.764432
30
0.0
11
0.290902
21
0.763958
31
0.0
0
LINE
8
FRONT_HID
6
HIDDEN
10
0.290902
20
0.763958
30
0.0
11
0.290856
21
0.763483
31
0.0
0
LINE
8
FRONT_HID
6
HIDDEN
10
0.290856
20
0.763483
30
0.0
11
0.290811
21
0.763008
31
0.0
0
LINE
8
FRONT_HID
6
HIDDEN
10
0.290811
20
0.763008
30
0.0
11
0.290767
21
0.762533
31
0.0
0
LINE
8
FRONT_HID
6
HIDDEN
10
0.290767
20
0.762533
30
0.0
11
0.290725
21
0.762057
31
0.0
0
LINE
8
FRONT_HID
6
HIDDEN
10
0.290725
20
0.762057
30
0.0
11
0.290685
21
0.761582
31
0.0
0
LINE
8
FRONT_HID
6
HIDDEN
10
0.290685
20
0.761582
30
0.0
11
0.290646
21
0.761107
31
0.0
0
LINE
8
FRONT_HID
6
HIDDEN
10
0.290646
20
0.761107
30
0.0
11
0.290609
21
0.760631
31
0.0
0
LINE
8
FRONT_HID
6
HIDDEN
10
0.290609
20
0.760631
30
0.0
11
0.290574
21
0.760155
31
0.0
0
LINE
8
FRONT_HID
6
HIDDEN
10
0.290574
20
0.760155
30
0.0
11
0.290540
21
0.759679
31
0.0
0
LINE
8
FRONT_HID
6
HIDDEN
10
0.290540
20
0.759679
30
0.0
11
0.290508
21
0.759203
31
0.0
0
LINE
8
FRONT_HID
6
HIDDEN
10
0.290508
20
0.759203
30
0.0
11
0.290477
21
0.758727
31
0.0
0
LINE
8
FRONT_HID
6
HIDDEN
10
0.290477
20
0.758727
30
0.0
11
0.290448
21
0.758251
31
0.0
0
LINE
8
FRONT_HID
6
HIDDEN
10
0.290448
20
0.758251
30
0.0
11
0.290420
21
0.757775
31
0.0
0
LINE
8
FRONT_HID
6
HIDDEN
10
0.290420
20
0.757775
30
0.0
11
0.290395
21
0.757298
31
0.0
0
LINE
8
FRONT_HID
6
HIDDEN
10
0.290395
20
0.757298
30
0.0
11
0.290370
21
0.756822
31
0.0
0
LINE
8
FRONT_HID
6
HIDDEN
10
0.290370
20
0.756822
30
0.0
11
0.290348
21
0.756345
31
0.0
0
LINE
8
FRONT_HID
6
HIDDEN
10
0.290348
20
0.756345
30
0.0
11
0.290327
21
0.755869
31
0.0
0
LINE
8
FRONT_HID
6
HIDDEN
10
0.290327
20
0.755869
30
0.0
11
0.290307
21
0.755392
31
0.0
0
LINE
8
FRONT_HID
6
HIDDEN
10
0.290307
20
0.755392
30
0.0
11
0.290289
21
0.754915
31
0.0
0
LINE
8
FRONT_HID
6
HIDDEN
10
0.290289
20
0.754915
30
0.0
11
0.290273
21
0.754438
31
0.0
0
LINE
8
FRONT_HID
6
HIDDEN
10
0.290273
20
0.754438
30
0.0
11
0.290258
21
0.753961
31
0.0
0
LINE
8
FRONT_HID
6
HIDDEN
10
0.290258
20
0.753961
30
0.0
11
0.290246
21
0.753485
31
0.0
0
LINE
8
FRONT_HID
6
HIDDEN
10
0.290246
20
0.753485
30
0.0
11
0.290234
21
0.753008
31
0.0
0
LINE
8
FRONT_HID
6
HIDDEN
10
0.290234
20
0.753008
30
0.0
11
0.290224
21
0.752531
31
0.0
0
LINE
8
FRONT_HID
6
HIDDEN
10
0.290224
20
0.752531
30
0.0
11
0.290216
21
0.752054
31
0.0
0
LINE
8
FRONT_HID
6
HIDDEN
10
0.290216
20
0.752054
30
0.0
11
0.290210
21
0.751577
31
0.0
0
LINE
8
FRONT_HID
6
HIDDEN
10
0.290210
20
0.751577
30
0.0
11
0.290205
21
0.751099
31
0.0
0
LINE
8
FRONT_HID
6
HIDDEN
10
0.290205
20
0.751099
30
0.0
11
0.290202
21
0.750622
31
0.0
0
LINE
8
FRONT_HID
6
HIDDEN
10
0.290202
20
0.750622
30
0.0
11
0.290200
21
0.750145
31
0.0
0
LINE
8
FRONT_HID
6
HIDDEN
10
0.290200
20
0.750145
30
0.0
11
0.290200
21
0.749668
31
0.0
0
LINE
8
FRONT_HID
6
HIDDEN
10
0.290200
20
0.749668
30
0.0
11
0.290202
21
0.749191
31
0.0
0
LINE
8
FRONT_HID
6
HIDDEN
10
0.290202
20
0.749191
30
0.0
11
0.290205
21
0.748714
31
0.0
0
LINE
8
FRONT_HID
6
HIDDEN
10
0.290205
20
0.748714
30
0.0
11
0.290210
21
0.748237
31
0.0
0
LINE
8
FRONT_HID
6
HIDDEN
10
0.290210
20
0.748237
30
0.0
11
0.290216
21
0.747760
31
0.0
0
LINE
8
FRONT_HID
6
HIDDEN
10
0.290216
20
0.747760
30
0.0
11
0.290224
21
0.747283
31
0.0
0
LINE
8
FRONT_HID
6
HIDDEN
10
0.290224
20
0.747283
30
0.0
11
0.290234
21
0.746806
31
0.0
0
LINE
8
FRONT_HID
6
HIDDEN
10
0.290234
20
0.746806
30
0.0
11
0.290246
21
0.746329
31
0.0
0
LINE
8
FRONT_HID
6
HIDDEN
10
0.290246
20
0.746329
30
0.0
11
0.290258
21
0.745852
31
0.0
0
LINE
8
FRONT_HID
6
HIDDEN
10
0.290258
20
0.745852
30
0.0
11
0.290273
21
0.745375
31
0.0
0
LINE
8
FRONT_HID
6
HIDDEN
10
0.290273
20
0.745375
30
0.0
11
0.290289
21
0.744898
31
0.0
0
LINE
8
FRONT_HID
6
HIDDEN
10
0.290289
20
0.744898
30
0.0
11
0.290307
21
0.744422
31
0.0
0
LINE
8
FRONT_HID
6
HIDDEN
10
0.290307
20
0.744422
30
0.0
11
0.290327
21
0.743945
31
0.0
0
LINE
8
FRONT_HID
6
HIDDEN
10
0.290327
20
0.743945
30
0.0
11
0.290348
21
0.743468
31
0.0
0
LINE
8
FRONT_HID
6
HIDDEN
10
0.290348
20
0.743468
30
0.0
11
0.290370
21
0.742992
31
0.0
0
LINE
8
FRONT_HID
6
HIDDEN
10
0.290370
20
0.742992
30
0.0
11
0.290395
21
0.742515
31
0.0
0
LINE
8
FRONT_HID
6
HIDDEN
10
0.290395
20
0.742515
30
0.0
11
0.290420
21
0.742039
31
0.0
0
LINE
8
FRONT_HID
6
HIDDEN
10
0.290420
20
0.742039
30
0.0
11
0.290448
21
0.741563
31
0.0
0
LINE
8
FRONT_HID
6
HIDDEN
10
0.290448
20
0.741563
30
0.0
11
0.290477
21
0.741086
31
0.0
0
LINE
8
FRONT_HID
6
HIDDEN
10
0.290477
20
0.741086
30
0.0
11
0.290508
21
0.740610
31
0.0
0
LINE
8
FRONT_HID
6
HIDDEN
10
0.290508
20
0.740610
30
0.0
11
0.290540
21
0.740134
31
0.0
0
LINE
8
FRONT_HID
6
HIDDEN
10
0.290540
20
0.740134
30
0.0
11
0.290574
21
0.739658
31
0.0
0
LINE
8
FRONT_HID
6
HIDDEN
10
0.290574
20
0.739658
30
0.0
11
0.290609
21
0.739183
31
0.0
0
LINE
8
FRONT_HID
6
HIDDEN
10
0.290609
20
0.739183
30
0.0
11
0.290646
21
0.738707
31
0.0
0
LINE
8
FRONT_HID
6
HIDDEN
10
0.290646
20
0.738707
30
0.0
11
0.290685
21
0.738231
31
0.0
0
LINE
8
FRONT_HID
6
HIDDEN
10
0.290685
20
0.738231
30
0.0
11
0.290725
21
0.737756
31
0.0
0
LINE
8
FRONT_HID
6
HIDDEN
10
0.290725
20
0.737756
30
0.0
11
0.290767
21
0.737281
31
0.0
0
LINE
8
FRONT_HID
6
HIDDEN
10
0.290767
20
0.737281
30
0.0
11
0.290811
21
0.736806
31
0.0
0
LINE
8
FRONT_HID
6
HIDDEN
10
0.290811
20
0.736806
30
0.0
11
0.290856
21
0.736331
31
0.0
0
LINE
8
FRONT_HID
6
HIDDEN
10
0.290856
20
0.736331
30
0.0
11
0.290902
21
0.735856
31
0.0
0
LINE
8
FRONT_HID
6
HIDDEN
10
0.290902
20
0.735856
30
0.0
11
0.290950
21
0.735381
31
0.0
0
LINE
8
FRONT_HID
6
HIDDEN
10
0.290950
20
0.735381
30
0.0
11
0.291000
21
0.734907
31
0.0
0
LINE
8
FRONT_HID
6
HIDDEN
10
0.291000
20
0.449907
30
0.0
11
0.009000
21
0.449907
31
0.0
0
LINE
8
FRONT_HID
6
HIDDEN
10
0.009000
20
0.449907
30
0.0
11
0.291000
21
0.449907
31
0.0
0
LINE
8
FRONT_HID
6
HIDDEN
10
0.291000
20
1.199907
30
0.0
11
0.009000
21
1.199907
31
0.0
0
LINE
8
FRONT_HID
6
HIDDEN
10
0.009000
20
1.199907
30
0.0
11
0.291000
21
1.199907
31
0.0
0
LINE
8
FRONT_HID
6
HIDDEN
10
0.009000
20
0.764907
30
0.0
11
0.009050
21
0.764432
31
0.0
0
LINE
8
FRONT_HID
6
HIDDEN
10
0.009050
20
0.764432
30
0.0
11
0.009098
21
0.763958
31
0.0
0
LINE
8
FRONT_HID
6
HIDDEN
10
0.009098
20
0.763958
30
0.0
11
0.009144
21
0.763483
31
0.0
0
LINE
8
FRONT_HID
6
HIDDEN
10
0.009144
20
0.763483
30
0.0
11
0.009189
21
0.763008
31
0.0
0
LINE
8
FRONT_HID
6
HIDDEN
10
0.009189
20
0.763008
30
0.0
11
0.009233
21
0.762533
31
0.0
0
LINE
8
FRONT_HID
6
HIDDEN
10
0.009233
20
0.762533
30
0.0
11
0.009275
21
0.762057
31
0.0
0
LINE
8
FRONT_HID
6
HIDDEN
10
0.009275
20
0.762057
30
0.0
11
0.009315
21
0.761582
31
0.0
0
LINE
8
FRONT_HID
6
HIDDEN
10
0.009315
20
0.761582
30
0.0
11
0.009354
21
0.761107
31
0.0
0
LINE
8
FRONT_HID
6
HIDDEN
10
0.009354
20
0.761107
30
0.0
11
0.009391
21
0.760631
31
0.0
0
LINE
8
FRONT_HID
6
HIDDEN
10
0.009391
20
0.760631
30
0.0
11
0.009426
21
0.760155
31
0.0
0
LINE
8
FRONT_HID
6
HIDDEN
10
0.009426
20
0.760155
30
0.0
11
0.009460
21
0.759679
31
0.0
0
LINE
8
FRONT_HID
6
HIDDEN
10
0.009460
20
0.759679
30
0.0
11
0.009492
21
0.759203
31
0.0
0
LINE
8
FRONT_HID
6
HIDDEN
10
0.009492
20
0.759203
30
0.0
11
0.009523
21
0.758727
31
0.0
0
LINE
8
FRONT_HID
6
HIDDEN
10
0.009523
20
0.758727
30
0.0
11
0.009552
21
0.758251
31
0.0
0
LINE
8
FRONT_HID
6
HIDDEN
10
0.009552
20
0.758251
30
0.0
11
0.009580
21
0.757775
31
0.0
0
LINE
8
FRONT_HID
6
HIDDEN
10
0.009580
20
0.757775
30
0.0
11
0.009605
21
0.757298
31
0.0
0
LINE
8
FRONT_HID
6
HIDDEN
10
0.009605
20
0.757298
30
0.0
11
0.009630
21
0.756822
31
0.0
0
LINE
8
FRONT_HID
6
HIDDEN
10
0.009630
20
0.756822
30
0.0
11
0.009652
21
0.756345
31
0.0
0
LINE
8
FRONT_HID
6
HIDDEN
10
0.009652
20
0.756345
30
0.0
11
0.009673
21
0.755869
31
0.0
0
LINE
8
FRONT_HID
6
HIDDEN
10
0.009673
20
0.755869
30
0.0
11
0.009693
21
0.755392
31
0.0
0
LINE
8
FRONT_HID
6
HIDDEN
10
0.009693
20
0.755392
30
0.0
11
0.009711
21
0.754915
31
0.0
0
LINE
8
FRONT_HID
6
HIDDEN
10
0.009711
20
0.754915
30
0.0
11
0.009727
21
0.754438
31
0.0
0
LINE
8
FRONT_HID
6
HIDDEN
10
0.009727
20
0.754438
30
0.0
11
0.009742
21
0.753961
31
0.0
0
LINE
8
FRONT_HID
6
HIDDEN
10
0.009742
20
0.753961
30
0.0
11
0.009754
21
0.753485
31
0.0
0
LINE
8
FRONT_HID
6
HIDDEN
10
0.009754
20
0.753485
30
0.0
11
0.009766
21
0.753008
31
0.0
0
LINE
8
FRONT_HID
6
HIDDEN
10
0.009766
20
0.753008
30
0.0
11
0.009776
21
0.752531
31
0.0
0
LINE
8
FRONT_HID
6
HIDDEN
10
0.009776
20
0.752531
30
0.0
11
0.009784
21
0.752054
31
0.0
0
LINE
8
FRONT_HID
6
HIDDEN
10
0.009784
20
0.752054
30
0.0
11
0.009790
21
0.751577
31
0.0
0
LINE
8
FRONT_HID
6
HIDDEN
10
0.009790
20
0.751577
30
0.0
11
0.009795
21
0.751099
31
0.0
0
LINE
8
FRONT_HID
6
HIDDEN
10
0.009795
20
0.751099
30
0.0
11
0.009798
21
0.750622
31
0.0
0
LINE
8
FRONT_HID
6
HIDDEN
10
0.009798
20
0.750622
30
0.0
11
0.009800
21
0.750145
31
0.0
0
LINE
8
FRONT_HID
6
HIDDEN
10
0.009800
20
0.750145
30
0.0
11
0.009800
21
0.749668
31
0.0
0
LINE
8
FRONT_HID
6
HIDDEN
10
0.009800
20
0.749668
30
0.0
11
0.009798
21
0.749191
31
0.0
0
LINE
8
FRONT_HID
6
HIDDEN
10
0.009798
20
0.749191
30
0.0
11
0.009795
21
0.748714
31
0.0
0
LINE
8
FRONT_HID
6
HIDDEN
10
0.009795
20
0.748714
30
0.0
11
0.009790
21
0.748237
31
0.0
0
LINE
8
FRONT_HID
6
HIDDEN
10
0.009790
20
0.748237
30
0.0
11
0.009784
21
0.747760
31
0.0
0
LINE
8
FRONT_HID
6
HIDDEN
10
0.009784
20
0.747760
30
0.0
11
0.009776
21
0.747283
31
0.0
0
LINE
8
FRONT_HID
6
HIDDEN
10
0.009776
20
0.747283
30
0.0
11
0.009766
21
0.746806
31
0.0
0
LINE
8
FRONT_HID
6
HIDDEN
10
0.009766
20
0.746806
30
0.0
11
0.009754
21
0.746329
31
0.0
0
LINE
8
FRONT_HID
6
HIDDEN
10
0.009754
20
0.746329
30
0.0
11
0.009742
21
0.745852
31
0.0
0
LINE
8
FRONT_HID
6
HIDDEN
10
0.009742
20
0.745852
30
0.0
11
0.009727
21
0.745375
31
0.0
0
LINE
8
FRONT_HID
6
HIDDEN
10
0.009727
20
0.745375
30
0.0
11
0.009711
21
0.744898
31
0.0
0
LINE
8
FRONT_HID
6
HIDDEN
10
0.009711
20
0.744898
30
0.0
11
0.009693
21
0.744422
31
0.0
0
LINE
8
FRONT_HID
6
HIDDEN
10
0.009693
20
0.744422
30
0.0
11
0.009673
21
0.743945
31
0.0
0
LINE
8
FRONT_HID
6
HIDDEN
10
0.009673
20
0.743945
30
0.0
11
0.009652
21
0.743468
31
0.0
0
LINE
8
FRONT_HID
6
HIDDEN
10
0.009652
20
0.743468
30
0.0
11
0.009630
21
0.742992
31
0.0
0
LINE
8
FRONT_HID
6
HIDDEN
10
0.009630
20
0.742992
30
0.0
11
0.009605
21
0.742515
31
0.0
0
LINE
8
FRONT_HID
6
HIDDEN
10
0.009605
20
0.742515
30
0.0
11
0.009580
21
0.742039
31
0.0
0
LINE
8
FRONT_HID
6
HIDDEN
10
0.009580
20
0.742039
30
0.0
11
0.009552
21
0.741563
31
0.0
0
LINE
8
FRONT_HID
6
HIDDEN
10
0.009552
20
0.741563
30
0.0
11
0.009523
21
0.741086
31
0.0
0
LINE
8
FRONT_HID
6
HIDDEN
10
0.009523
20
0.741086
30
0.0
11
0.009492
21
0.740610
31
0.0
0
LINE
8
FRONT_HID
6
HIDDEN
10
0.009492
20
0.740610
30
0.0
11
0.009460
21
0.740134
31
0.0
0
LINE
8
FRONT_HID
6
HIDDEN
10
0.009460
20
0.740134
30
0.0
11
0.009426
21
0.739658
31
0.0
0
LINE
8
FRONT_HID
6
HIDDEN
10
0.009426
20
0.739658
30
0.0
11
0.009391
21
0.739183
31
0.0
0
LINE
8
FRONT_HID
6
HIDDEN
10
0.009391
20
0.739183
30
0.0
11
0.009354
21
0.738707
31
0.0
0
LINE
8
FRONT_HID
6
HIDDEN
10
0.009354
20
0.738707
30
0.0
11
0.009315
21
0.738231
31
0.0
0
LINE
8
FRONT_HID
6
HIDDEN
10
0.009315
20
0.738231
30
0.0
11
0.009275
21
0.737756
31
0.0
0
LINE
8
FRONT_HID
6
HIDDEN
10
0.009275
20
0.737756
30
0.0
11
0.009233
21
0.737281
31
0.0
0
LINE
8
FRONT_HID
6
HIDDEN
10
0.009233
20
0.737281
30
0.0
11
0.009189
21
0.736806
31
0.0
0
LINE
8
FRONT_HID
6
HIDDEN
10
0.009189
20
0.736806
30
0.0
11
0.009144
21
0.736331
31
0.0
0
LINE
8
FRONT_HID
6
HIDDEN
10
0.009144
20
0.736331
30
0.0
11
0.009098
21
0.735856
31
0.0
0
LINE
8
FRONT_HID
6
HIDDEN
10
0.009098
20
0.735856
30
0.0
11
0.009050
21
0.735381
31
0.0
0
LINE
8
FRONT_HID
6
HIDDEN
10
0.009050
20
0.735381
30
0.0
11
0.009000
21
0.734907
31
0.0
0
LINE
8
FRONT_HID
6
HIDDEN
10
0.009000
20
0.734907
30
0.0
11
0.009050
21
0.735381
31
0.0
0
LINE
8
FRONT_HID
6
HIDDEN
10
0.009050
20
0.735381
30
0.0
11
0.009098
21
0.735856
31
0.0
0
LINE
8
FRONT_HID
6
HIDDEN
10
0.009098
20
0.735856
30
0.0
11
0.009144
21
0.736331
31
0.0
0
LINE
8
FRONT_HID
6
HIDDEN
10
0.009144
20
0.736331
30
0.0
11
0.009189
21
0.736806
31
0.0
0
LINE
8
FRONT_HID
6
HIDDEN
10
0.009189
20
0.736806
30
0.0
11
0.009233
21
0.737281
31
0.0
0
LINE
8
FRONT_HID
6
HIDDEN
10
0.009233
20
0.737281
30
0.0
11
0.009275
21
0.737756
31
0.0
0
LINE
8
FRONT_HID
6
HIDDEN
10
0.009275
20
0.737756
30
0.0
11
0.009315
21
0.738231
31
0.0
0
LINE
8
FRONT_HID
6
HIDDEN
10
0.009315
20
0.738231
30
0.0
11
0.009354
21
0.738707
31
0.0
0
LINE
8
FRONT_HID
6
HIDDEN
10
0.009354
20
0.738707
30
0.0
11
0.009391
21
0.739183
31
0.0
0
LINE
8
FRONT_HID
6
HIDDEN
10
0.009391
20
0.739183
30
0.0
11
0.009426
21
0.739658
31
0.0
0
LINE
8
FRONT_HID
6
HIDDEN
10
0.009426
20
0.739658
30
0.0
11
0.009460
21
0.740134
31
0.0
0
LINE
8
FRONT_HID
6
HIDDEN
10
0.009460
20
0.740134
30
0.0
11
0.009492
21
0.740610
31
0.0
0
LINE
8
FRONT_HID
6
HIDDEN
10
0.009492
20
0.740610
30
0.0
11
0.009523
21
0.741086
31
0.0
0
LINE
8
FRONT_HID
6
HIDDEN
10
0.009523
20
0.741086
30
0.0
11
0.009552
21
0.741563
31
0.0
0
LINE
8
FRONT_HID
6
HIDDEN
10
0.009552
20
0.741563
30
0.0
11
0.009580
21
0.742039
31
0.0
0
LINE
8
FRONT_HID
6
HIDDEN
10
0.009580
20
0.742039
30
0.0
11
0.009605
21
0.742515
31
0.0
0
LINE
8
FRONT_HID
6
HIDDEN
10
0.009605
20
0.742515
30
0.0
11
0.009630
21
0.742992
31
0.0
0
LINE
8
FRONT_HID
6
HIDDEN
10
0.009630
20
0.742992
30
0.0
11
0.009652
21
0.743468
31
0.0
0
LINE
8
FRONT_HID
6
HIDDEN
10
0.009652
20
0.743468
30
0.0
11
0.009673
21
0.743945
31
0.0
0
LINE
8
FRONT_HID
6
HIDDEN
10
0.009673
20
0.743945
30
0.0
11
0.009693
21
0.744422
31
0.0
0
LINE
8
FRONT_HID
6
HIDDEN
10
0.009693
20
0.744422
30
0.0
11
0.009711
21
0.744898
31
0.0
0
LINE
8
FRONT_HID
6
HIDDEN
10
0.009711
20
0.744898
30
0.0
11
0.009727
21
0.745375
31
0.0
0
LINE
8
FRONT_HID
6
HIDDEN
10
0.009727
20
0.745375
30
0.0
11
0.009742
21
0.745852
31
0.0
0
LINE
8
FRONT_HID
6
HIDDEN
10
0.009742
20
0.745852
30
0.0
11
0.009754
21
0.746329
31
0.0
0
LINE
8
FRONT_HID
6
HIDDEN
10
0.009754
20
0.746329
30
0.0
11
0.009766
21
0.746806
31
0.0
0
LINE
8
FRONT_HID
6
HIDDEN
10
0.009766
20
0.746806
30
0.0
11
0.009776
21
0.747283
31
0.0
0
LINE
8
FRONT_HID
6
HIDDEN
10
0.009776
20
0.747283
30
0.0
11
0.009784
21
0.747760
31
0.0
0
LINE
8
FRONT_HID
6
HIDDEN
10
0.009784
20
0.747760
30
0.0
11
0.009790
21
0.748237
31
0.0
0
LINE
8
FRONT_HID
6
HIDDEN
10
0.009790
20
0.748237
30
0.0
11
0.009795
21
0.748714
31
0.0
0
LINE
8
FRONT_HID
6
HIDDEN
10
0.009795
20
0.748714
30
0.0
11
0.009798
21
0.749191
31
0.0
0
LINE
8
FRONT_HID
6
HIDDEN
10
0.009798
20
0.749191
30
0.0
11
0.009800
21
0.749668
31
0.0
0
LINE
8
FRONT_HID
6
HIDDEN
10
0.009800
20
0.749668
30
0.0
11
0.009800
21
0.750145
31
0.0
0
LINE
8
FRONT_HID
6
HIDDEN
10
0.009800
20
0.750145
30
0.0
11
0.009798
21
0.750622
31
0.0
0
LINE
8
FRONT_HID
6
HIDDEN
10
0.009798
20
0.750622
30
0.0
11
0.009795
21
0.751099
31
0.0
0
LINE
8
FRONT_HID
6
HIDDEN
10
0.009795
20
0.751099
30
0.0
11
0.009790
21
0.751577
31
0.0
0
LINE
8
FRONT_HID
6
HIDDEN
10
0.009790
20
0.751577
30
0.0
11
0.009784
21
0.752054
31
0.0
0
LINE
8
FRONT_HID
6
HIDDEN
10
0.009784
20
0.752054
30
0.0
11
0.009776
21
0.752531
31
0.0
0
LINE
8
FRONT_HID
6
HIDDEN
10
0.009776
20
0.752531
30
0.0
11
0.009766
21
0.753008
31
0.0
0
LINE
8
FRONT_HID
6
HIDDEN
10
0.009766
20
0.753008
30
0.0
11
0.009754
21
0.753485
31
0.0
0
LINE
8
FRONT_HID
6
HIDDEN
10
0.009754
20
0.753485
30
0.0
11
0.009742
21
0.753961
31
0.0
0
LINE
8
FRONT_HID
6
HIDDEN
10
0.009742
20
0.753961
30
0.0
11
0.009727
21
0.754438
31
0.0
0
LINE
8
FRONT_HID
6
HIDDEN
10
0.009727
20
0.754438
30
0.0
11
0.009711
21
0.754915
31
0.0
0
LINE
8
FRONT_HID
6
HIDDEN
10
0.009711
20
0.754915
30
0.0
11
0.009693
21
0.755392
31
0.0
0
LINE
8
FRONT_HID
6
HIDDEN
10
0.009693
20
0.755392
30
0.0
11
0.009673
21
0.755869
31
0.0
0
LINE
8
FRONT_HID
6
HIDDEN
10
0.009673
20
0.755869
30
0.0
11
0.009652
21
0.756345
31
0.0
0
LINE
8
FRONT_HID
6
HIDDEN
10
0.009652
20
0.756345
30
0.0
11
0.009630
21
0.756822
31
0.0
0
LINE
8
FRONT_HID
6
HIDDEN
10
0.009630
20
0.756822
30
0.0
11
0.009605
21
0.757298
31
0.0
0
LINE
8
FRONT_HID
6
HIDDEN
10
0.009605
20
0.757298
30
0.0
11
0.009580
21
0.757775
31
0.0
0
LINE
8
FRONT_HID
6
HIDDEN
10
0.009580
20
0.757775
30
0.0
11
0.009552
21
0.758251
31
0.0
0
LINE
8
FRONT_HID
6
HIDDEN
10
0.009552
20
0.758251
30
0.0
11
0.009523
21
0.758727
31
0.0
0
LINE
8
FRONT_HID
6
HIDDEN
10
0.009523
20
0.758727
30
0.0
11
0.009492
21
0.759203
31
0.0
0
LINE
8
FRONT_HID
6
HIDDEN
10
0.009492
20
0.759203
30
0.0
11
0.009460
21
0.759679
31
0.0
0
LINE
8
FRONT_HID
6
HIDDEN
10
0.009460
20
0.759679
30
0.0
11
0.009426
21
0.760155
31
0.0
0
LINE
8
FRONT_HID
6
HIDDEN
10
0.009426
20
0.760155
30
0.0
11
0.009391
21
0.760631
31
0.0
0
LINE
8
FRONT_HID
6
HIDDEN
10
0.009391
20
0.760631
30
0.0
11
0.009354
21
0.761107
31
0.0
0
LINE
8
FRONT_HID
6
HIDDEN
10
0.009354
20
0.761107
30
0.0
11
0.009315
21
0.761582
31
0.0
0
LINE
8
FRONT_HID
6
HIDDEN
10
0.009315
20
0.761582
30
0.0
11
0.009275
21
0.762057
31
0.0
0
LINE
8
FRONT_HID
6
HIDDEN
10
0.009275
20
0.762057
30
0.0
11
0.009233
21
0.762533
31
0.0
0
LINE
8
FRONT_HID
6
HIDDEN
10
0.009233
20
0.762533
30
0.0
11
0.009189
21
0.763008
31
0.0
0
LINE
8
FRONT_HID
6
HIDDEN
10
0.009189
20
0.763008
30
0.0
11
0.009144
21
0.763483
31
0.0
0
LINE
8
FRONT_HID
6
HIDDEN
10
0.009144
20
0.763483
30
0.0
11
0.009098
21
0.763958
31
0.0
0
LINE
8
FRONT_HID
6
HIDDEN
10
0.009098
20
0.763958
30
0.0
11
0.009050
21
0.764432
31
0.0
0
LINE
8
FRONT_HID
6
HIDDEN
10
0.009050
20
0.764432
30
0.0
11
0.009000
21
0.764907
31
0.0
0
LINE
8
FRONT_HID
6
HIDDEN
10
0.009000
20
0.764907
30
0.0
11
0.000000
21
0.764907
31
0.0
0
LINE
8
FRONT_HID
6
HIDDEN
10
0.291000
20
0.449907
30
0.0
11
0.291000
21
0.734907
31
0.0
0
LINE
8
FRONT_HID
6
HIDDEN
10
0.291000
20
0.764907
30
0.0
11
0.291000
21
1.199907
31
0.0
0
LINE
8
FRONT_HID
6
HIDDEN
10
0.300000
20
0.734907
30
0.0
11
0.291000
21
0.734907
31
0.0
0
LINE
8
FRONT_HID
6
HIDDEN
10
0.000000
20
0.734907
30
0.0
11
0.009000
21
0.734907
31
0.0
0
LINE
8
FRONT_HID
6
HIDDEN
10
0.009000
20
1.199907
30
0.0
11
0.009000
21
0.764907
31
0.0
0
LINE
8
FRONT_HID
6
HIDDEN
10
0.009000
20
0.734907
30
0.0
11
0.009000
21
0.449907
31
0.0
0
LINE
8
LEFT
10
0.450000
20
0.449907
30
0.0
11
0.750000
21
0.449907
31
0.0
0
LINE
8
LEFT
10
0.610448
20
0.760670
30
0.0
11
0.610564
21
0.760556
31
0.0
0
LINE
8
LEFT
10
0.610564
20
0.760556
30
0.0
11
0.610679
21
0.760441
31
0.0
0
LINE
8
LEFT
10
0.610679
20
0.760441
30
0.0
11
0.610792
21
0.760324
31
0.0
0
LINE
8
LEFT
10
0.610792
20
0.760324
30
0.0
11
0.610905
21
0.760207
31
0.0
0
LINE
8
LEFT
10
0.610905
20
0.760207
30
0.0
11
0.611016
21
0.760088
31
0.0
0
LINE
8
LEFT
10
0.611016
20
0.760088
30
0.0
11
0.611125
21
0.759968
31
0.0
0
LINE
8
LEFT
10
0.611125
20
0.759968
30
0.0
11
0.611234
21
0.759846
31
0.0
0
LINE
8
LEFT
10
0.611234
20
0.759846
30
0.0
11
0.611341
21
0.759724
31
0.0
0
LINE
8
LEFT
10
0.611341
20
0.759724
30
0.0
11
0.611447
21
0.759601
31
0.0
0
LINE
8
LEFT
10
0.611447
20
0.759601
30
0.0
11
0.611551
21
0.759476
31
0.0
0
LINE
8
LEFT
10
0.611551
20
0.759476
30
0.0
11
0.611654
21
0.759350
31
0.0
0
LINE
8
LEFT
10
0.611654
20
0.759350
30
0.0
11
0.611756
21
0.759223
31
0.0
0
LINE
8
LEFT
10
0.611756
20
0.759223
30
0.0
11
0.611856
21
0.759095
31
0.0
0
LINE
8
LEFT
10
0.611856
20
0.759095
30
0.0
11
0.611955
21
0.758966
31
0.0
0
LINE
8
LEFT
10
0.611955
20
0.758966
30
0.0
11
0.612053
21
0.758836
31
0.0
0
LINE
8
LEFT
10
0.612053
20
0.758836
30
0.0
11
0.612149
21
0.758704
31
0.0
0
LINE
8
LEFT
10
0.612149
20
0.758704
30
0.0
11
0.612244
21
0.758572
31
0.0
0
LINE
8
LEFT
10
0.612244
20
0.758572
30
0.0
11
0.612337
21
0.758439
31
0.0
0
LINE
8
LEFT
10
0.612337
20
0.758439
30
0.0
11
0.612429
21
0.758305
31
0.0
0
LINE
8
LEFT
10
0.612429
20
0.758305
30
0.0
11
0.612519
21
0.758169
31
0.0
0
LINE
8
LEFT
10
0.612519
20
0.758169
30
0.0
11
0.612608
21
0.758033
31
0.0
0
LINE
8
LEFT
10
0.612608
20
0.758033
30
0.0
11
0.612695
21
0.757896
31
0.0
0
LINE
8
LEFT
10
0.612695
20
0.757896
30
0.0
11
0.612781
21
0.757758
31
0.0
0
LINE
8
LEFT
10
0.612781
20
0.757758
30
0.0
11
0.612866
21
0.757619
31
0.0
0
LINE
8
LEFT
10
0.612866
20
0.757619
30
0.0
11
0.612949
21
0.757479
31
0.0
0
LINE
8
LEFT
10
0.612949
20
0.757479
30
0.0
11
0.613030
21
0.757338
31
0.0
0
LINE
8
LEFT
10
0.613030
20
0.757338
30
0.0
11
0.613110
21
0.757196
31
0.0
0
LINE
8
LEFT
10
0.613110
20
0.757196
30
0.0
11
0.613188
21
0.757054
31
0.0
0
LINE
8
LEFT
10
0.613188
20
0.757054
30
0.0
11
0.613265
21
0.756910
31
0.0
0
LINE
8
LEFT
10
0.613265
20
0.756910
30
0.0
11
0.613340
21
0.756766
31
0.0
0
LINE
8
LEFT
10
0.613340
20
0.756766
30
0.0
11
0.613413
21
0.756621
31
0.0
0
LINE
8
LEFT
10
0.613413
20
0.756621
30
0.0
11
0.613486
21
0.756475
31
0.0
0
LINE
8
LEFT
10
0.613486
20
0.756475
30
0.0
11
0.613556
21
0.756328
31
0.0
0
LINE
8
LEFT
10
0.613556
20
0.756328
30
0.0
11
0.613625
21
0.756181
31
0.0
0
LINE
8
LEFT
10
0.613625
20
0.756181
30
0.0
11
0.613692
21
0.756033
31
0.0
0
LINE
8
LEFT
10
0.613692
20
0.756033
30
0.0
11
0.613758
21
0.755884
31
0.0
0
LINE
8
LEFT
10
0.613758
20
0.755884
30
0.0
11
0.613822
21
0.755734
31
0.0
0
LINE
8
LEFT
10
0.613822
20
0.755734
30
0.0
11
0.613884
21
0.755584
31
0.0
0
LINE
8
LEFT
10
0.613884
20
0.755584
30
0.0
11
0.613945
21
0.755433
31
0.0
0
LINE
8
LEFT
10
0.613945
20
0.755433
30
0.0
11
0.614004
21
0.755282
31
0.0
0
LINE
8
LEFT
10
0.614004
20
0.755282
30
0.0
11
0.614061
21
0.755130
31
0.0
0
LINE
8
LEFT
10
0.614061
20
0.755130
30
0.0
11
0.614117
21
0.754977
31
0.0
0
LINE
8
LEFT
10
0.614117
20
0.754977
30
0.0
11
0.614171
21
0.754823
31
0.0
0
LINE
8
LEFT
10
0.614171
20
0.754823
30
0.0
11
0.614224
21
0.754669
31
0.0
0
LINE
8
LEFT
10
0.614224
20
0.754669
30
0.0
11
0.614275
21
0.754515
31
0.0
0
LINE
8
LEFT
10
0.614275
20
0.754515
30
0.0
11
0.614324
21
0.754360
31
0.0
0
LINE
8
LEFT
10
0.614324
20
0.754360
30
0.0
11
0.614371
21
0.754204
31
0.0
0
LINE
8
LEFT
10
0.614371
20
0.754204
30
0.0
11
0.614417
21
0.754048
31
0.0
0
LINE
8
LEFT
10
0.614417
20
0.754048
30
0.0
11
0.614461
21
0.753892
31
0.0
0
LINE
8
LEFT
10
0.614461
20
0.753892
30
0.0
11
0.614503
21
0.753735
31
0.0
0
LINE
8
LEFT
10
0.614503
20
0.753735
30
0.0
11
0.614544
21
0.753577
31
0.0
0
LINE
8
LEFT
10
0.614544
20
0.753577
30
0.0
11
0.614583
21
0.753419
31
0.0
0
LINE
8
LEFT
10
0.614583
20
0.753419
30
0.0
11
0.614620
21
0.753261
31
0.0
0
LINE
8
LEFT
10
0.614620
20
0.753261
30
0.0
11
0.614656
21
0.753102
31
0.0
0
LINE
8
LEFT
10
0.614656
20
0.753102
30
0.0
11
0.614690
21
0.752943
31
0.0
0
LINE
8
LEFT
10
0.614690
20
0.752943
30
0.0
11
0.614722
21
0.752783
31
0.0
0
LINE
8
LEFT
10
0.614722
20
0.752783
30
0.0
11
0.614752
21
0.752624
31
0.0
0
LINE
8
LEFT
10
0.614752
20
0.752624
30
0.0
11
0.614780
21
0.752463
31
0.0
0
LINE
8
LEFT
10
0.614780
20
0.752463
30
0.0
11
0.614807
21
0.752303
31
0.0
0
LINE
8
LEFT
10
0.614807
20
0.752303
30
0.0
11
0.614832
21
0.752142
31
0.0
0
LINE
8
LEFT
10
0.614832
20
0.752142
30
0.0
11
0.614856
21
0.751981
31
0.0
0
LINE
8
LEFT
10
0.614856
20
0.751981
30
0.0
11
0.614877
21
0.751820
31
0.0
0
LINE
8
LEFT
10
0.614877
20
0.751820
30
0.0
11
0.614897
21
0.751659
31
0.0
0
LINE
8
LEFT
10
0.608948
20
0.737868
30
0.0
11
0.608948
21
0.737868
31
0.0
0
LINE
8
LEFT
10
0.608782
20
0.737746
30
0.0
11
0.608781
21
0.737746
31
0.0
0
LINE
8
LEFT
10
0.608614
20
0.737627
30
0.0
11
0.608613
21
0.737626
31
0.0
0
LINE
8
LEFT
10
0.602844
20
0.735179
30
0.0
11
0.602655
21
0.735144
31
0.0
0
LINE
8
LEFT
10
0.602653
20
0.735143
30
0.0
11
0.600165
21
0.734908
31
0.0
0
LINE
8
LEFT
10
0.450000
20
1.199907
30
0.0
11
0.750000
21
1.199907
31
0.0
0
LINE
8
LEFT
10
0.600000
20
0.734907
30
0.0
11
0.596633
21
0.735290
31
0.0
0
LINE
8
LEFT
10
0.589410
20
0.760530
30
0.0
11
0.590530
21
0.761539
31
0.0
0
LINE
8
LEFT
10
0.594588
20
0.763896
30
0.0
11
0.597122
21
0.764628
31
0.0
0
LINE
8
LEFT
10
0.600000
20
0.764907
30
0.0
11
0.601494
21
0.764832
31
0.0
0
LINE
8
LEFT
10
0.601494
20
0.764832
30
0.0
11
0.602972
21
0.764609
31
0.0
0
LINE
8
LEFT
10
0.602972
20
0.764609
30
0.0
11
0.604421
21
0.764240
31
0.0
0
LINE
8
LEFT
10
0.604421
20
0.764240
30
0.0
11
0.605827
21
0.763729
31
0.0
0
LINE
8
LEFT
10
0.605827
20
0.763729
30
0.0
11
0.607174
21
0.763080
31
0.0
0
LINE
8
LEFT
10
0.607174
20
0.763080
30
0.0
11
0.608450
21
0.762300
31
0.0
0
LINE
8
LEFT
10
0.608450
20
0.762300
30
0.0
11
0.609642
21
0.761397
31
0.0
0
LINE
8
LEFT
10
0.609642
20
0.761397
30
0.0
11
0.610738
21
0.760380
31
0.0
0
LINE
8
LEFT
10
0.610738
20
0.760380
30
0.0
11
0.611727
21
0.759259
31
0.0
0
LINE
8
LEFT
10
0.611727
20
0.759259
30
0.0
11
0.612600
21
0.758045
31
0.0
0
LINE
8
LEFT
10
0.612600
20
0.758045
30
0.0
11
0.613348
21
0.756750
31
0.0
0
LINE
8
LEFT
10
0.613348
20
0.756750
30
0.0
11
0.613963
21
0.755387
31
0.0
0
LINE
8
LEFT
10
0.613963
20
0.755387
30
0.0
11
0.614439
21
0.753969
31
0.0
0
LINE
8
LEFT
10
0.614439
20
0.753969
30
0.0
11
0.614772
21
0.752511
31
0.0
0
LINE
8
LEFT
10
0.614772
20
0.752511
30
0.0
11
0.614958
21
0.751028
31
0.0
0
LINE
8
LEFT
10
0.614958
20
0.751028
30
0.0
11
0.614995
21
0.749533
31
0.0
0
LINE
8
LEFT
10
0.614995
20
0.749533
30
0.0
11
0.614884
21
0.748042
31
0.0
0
LINE
8
LEFT
10
0.614884
20
0.748042
30
0.0
11
0.614624
21
0.746569
31
0.0
0
LINE
8
LEFT
10
0.614624
20
0.746569
30
0.0
11
0.614219
21
0.745129
31
0.0
0
LINE
8
LEFT
10
0.614219
20
0.745129
30
0.0
11
0.613673
21
0.743737
31
0.0
0
LINE
8
LEFT
10
0.613673
20
0.743737
30
0.0
11
0.612990
21
0.742407
31
0.0
0
LINE
8
LEFT
10
0.612990
20
0.742407
30
0.0
11
0.612179
21
0.741151
31
0.0
0
LINE
8
LEFT
10
0.612179
20
0.741151
30
0.0
11
0.611247
21
0.739981
31
0.0
0
LINE
8
LEFT
10
0.611247
20
0.739981
30
0.0
11
0.610203
21
0.738911
31
0.0
0
LINE
8
LEFT
10
0.610203
20
0.738911
30
0.0
11
0.609057
21
0.737950
31
0.0
0
LINE
8
LEFT
10
0.609057
20
0.737950
30
0.0
11
0.607822
21
0.737107
31
0.0
0
LINE
8
LEFT
10
0.607822
20
0.737107
30
0.0
11
0.606508
21
0.736392
31
0.0
0
LINE
8
LEFT
10
0.606508
20
0.736392
30
0.0
11
0.605130
21
0.735811
31
0.0
0
LINE
8
LEFT
10
0.605130
20
0.735811
30
0.0
11
0.603701
21
0.735371
31
0.0
0
LINE
8
LEFT
10
0.603701
20
0.735371
30
0.0
11
0.602236
21
0.735074
31
0.0
0
LINE
8
LEFT
10
0.602236
20
0.735074
30
0.0
11
0.600748
21
0.734925
31
0.0
0
LINE
8
LEFT
10
0.600748
20
0.734925
30
0.0
11
0.599252
21
0.734925
31
0.0
0
LINE
8
LEFT
10
0.599252
20
0.734925
30
0.0
11
0.597764
21
0.735074
31
0.0
0
LINE
8
LEFT
10
0.597764
20
0.735074
30
0.0
11
0.596299
21
0.735371
31
0.0
0
LINE
8
LEFT
10
0.596299
20
0.735371
30
0.0
11
0.594870
21
0.735811
31
0.0
0
LINE
8
LEFT
10
0.594870
20
0.735811
30
0.0
11
0.593492
21
0.736392
31
0.0
0
LINE
8
LEFT
10
0.593492
20
0.736392
30
0.0
11
0.592178
21
0.737107
31
0.0
0
LINE
8
LEFT
10
0.592178
20
0.737107
30
0.0
11
0.590943
21
0.737950
31
0.0
0
LINE
8
LEFT
10
0.590943
20
0.737950
30
0.0
11
0.589797
21
0.738911
31
0.0
0
LINE
8
LEFT
10
0.589797
20
0.738911
30
0.0
11
0.588753
21
0.739981
31
0.0
0
LINE
8
LEFT
10
0.588753
20
0.739981
30
0.0
11
0.587821
21
0.741151
31
0.0
0
LINE
8
LEFT
10
0.587821
20
0.741151
30
0.0
11
0.587010
21
0.742407
31
0.0
0
LINE
8
LEFT
10
0.587010
20
0.742407
30
0.0
11
0.586327
21
0.743737
31
0.0
0
LINE
8
LEFT
10
0.586327
20
0.743737
30
0.0
11
0.585781
21
0.745129
31
0.0
0
LINE
8
LEFT
10
0.585781
20
0.745129
30
0.0
11
0.585376
21
0.746569
31
0.0
0
LINE
8
LEFT
10
0.585376
20
0.746569
30
0.0
11
0.585116
21
0.748042
31
0.0
0
LINE
8
LEFT
10
0.585116
20
0.748042
30
0.0
11
0.585005
21
0.749533
31
0.0
0
LINE
8
LEFT
10
0.585005
20
0.749533
30
0.0
11
0.585042
21
0.751028
31
0.0
0
LINE
8
LEFT
10
0.585042
20
0.751028
30
0.0
11
0.585228
21
0.752511
31
0.0
0
LINE
8
LEFT
10
0.585228
20
0.752511
30
0.0
11
0.585561
21
0.753969
31
0.0
0
LINE
8
LEFT
10
0.585561
20
0.753969
30
0.0
11
0.586037
21
0.755387
31
0.0
0
LINE
8
LEFT
10
0.586037
20
0.755387
30
0.0
11
0.586652
21
0.756750
31
0.0
0
LINE
8
LEFT
10
0.586652
20
0.756750
30
0.0
11
0.587400
21
0.758045
31
0.0
0
LINE
8
LEFT
10
0.587400
20
0.758045
30
0.0
11
0.588273
21
0.759259
31
0.0
0
LINE
8
LEFT
10
0.588273
20
0.759259
30
0.0
11
0.589262
21
0.760380
31
0.0
0
LINE
8
LEFT
10
0.589262
20
0.760380
30
0.0
11
0.590358
21
0.761397
31
0.0
0
LINE
8
LEFT
10
0.590358
20
0.761397
30
0.0
11
0.591550
21
0.762300
31
0.0
0
LINE
8
LEFT
10
0.591550
20
0.762300
30
0.0
11
0.592826
21
0.763080
31
0.0
0
LINE
8
LEFT
10
0.592826
20
0.763080
30
0.0
11
0.594173
21
0.763729
31
0.0
0
LINE
8
LEFT
10
0.594173
20
0.763729
30
0.0
11
0.595579
21
0.764240
31
0.0
0
LINE
8
LEFT
10
0.595579
20
0.764240
30
0.0
11
0.597028
21
0.764609
31
0.0
0
LINE
8
LEFT
10
0.597028
20
0.764609
30
0.0
11
0.598506
21
0.764832
31
0.0
0
LINE
8
LEFT
10
0.598506
20
0.764832
30
0.0
11
0.600000
21
0.764907
31
0.0
0
LINE
8
LEFT
10
0.599703
20
0.734910
30
0.0
11
0.597137
21
0.735183
31
0.0
0
LINE
8
LEFT
10
0.610218
20
0.738925
30
0.0
11
0.609071
21
0.737960
31
0.0
0
LINE
8
LEFT
10
0.608071
20
0.737263
30
0.0
11
0.606994
21
0.736637
31
0.0
0
LINE
8
LEFT
10
0.585007
20
0.749436
30
0.0
11
0.585000
21
0.749793
31
0.0
0
LINE
8
LEFT
10
0.585000
20
0.749793
30
0.0
11
0.585002
21
0.750149
31
0.0
0
LINE
8
LEFT
10
0.585002
20
0.750149
30
0.0
11
0.585012
21
0.750505
31
0.0
0
LINE
8
LEFT
10
0.585012
20
0.750505
30
0.0
11
0.585030
21
0.750861
31
0.0
0
LINE
8
LEFT
10
0.585030
20
0.750861
30
0.0
11
0.585057
21
0.751217
31
0.0
0
LINE
8
LEFT
10
0.585057
20
0.751217
30
0.0
11
0.585093
21
0.751571
31
0.0
0
LINE
8
LEFT
10
0.585093
20
0.751571
30
0.0
11
0.585136
21
0.751925
31
0.0
0
LINE
8
LEFT
10
0.585136
20
0.751925
30
0.0
11
0.585189
21
0.752278
31
0.0
0
LINE
8
LEFT
10
0.585189
20
0.752278
30
0.0
11
0.585249
21
0.752629
31
0.0
0
LINE
8
LEFT
10
0.585249
20
0.752629
30
0.0
11
0.585318
21
0.752979
31
0.0
0
LINE
8
LEFT
10
0.585318
20
0.752979
30
0.0
11
0.585395
21
0.753327
31
0.0
0
LINE
8
LEFT
10
0.585395
20
0.753327
30
0.0
11
0.585480
21
0.753673
31
0.0
0
LINE
8
LEFT
10
0.585480
20
0.753673
30
0.0
11
0.585574
21
0.754017
31
0.0
0
LINE
8
LEFT
10
0.585574
20
0.754017
30
0.0
11
0.585676
21
0.754358
31
0.0
0
LINE
8
LEFT
10
0.585676
20
0.754358
30
0.0
11
0.585786
21
0.754697
31
0.0
0
LINE
8
LEFT
10
0.585786
20
0.754697
30
0.0
11
0.585903
21
0.755034
31
0.0
0
LINE
8
LEFT
10
0.585903
20
0.755034
30
0.0
11
0.586029
21
0.755367
31
0.0
0
LINE
8
LEFT
10
0.586029
20
0.755367
30
0.0
11
0.586163
21
0.755698
31
0.0
0
LINE
8
LEFT
10
0.586163
20
0.755698
30
0.0
11
0.586304
21
0.756025
31
0.0
0
LINE
8
LEFT
10
0.586304
20
0.756025
30
0.0
11
0.586454
21
0.756348
31
0.0
0
LINE
8
LEFT
10
0.586454
20
0.756348
30
0.0
11
0.586610
21
0.756668
31
0.0
0
LINE
8
LEFT
10
0.586610
20
0.756668
30
0.0
11
0.586775
21
0.756985
31
0.0
0
LINE
8
LEFT
10
0.586775
20
0.756985
30
0.0
11
0.586947
21
0.757297
31
0.0
0
LINE
8
LEFT
10
0.586947
20
0.757297
30
0.0
11
0.587126
21
0.757605
31
0.0
0
LINE
8
LEFT
10
0.587126
20
0.757605
30
0.0
11
0.587313
21
0.757909
31
0.0
0
LINE
8
LEFT
10
0.587313
20
0.757909
30
0.0
11
0.587506
21
0.758208
31
0.0
0
LINE
8
LEFT
10
0.587506
20
0.758208
30
0.0
11
0.587707
21
0.758502
31
0.0
0
LINE
8
LEFT
10
0.587707
20
0.758502
30
0.0
11
0.587915
21
0.758792
31
0.0
0
LINE
8
LEFT
10
0.587915
20
0.758792
30
0.0
11
0.588129
21
0.759077
31
0.0
0
LINE
8
LEFT
10
0.588129
20
0.759077
30
0.0
11
0.588351
21
0.759356
31
0.0
0
LINE
8
LEFT
10
0.588351
20
0.759356
30
0.0
11
0.588578
21
0.759630
31
0.0
0
LINE
8
LEFT
10
0.588578
20
0.759630
30
0.0
11
0.588813
21
0.759899
31
0.0
0
LINE
8
LEFT
10
0.588813
20
0.759899
30
0.0
11
0.589053
21
0.760162
31
0.0
0
LINE
8
LEFT
10
0.589053
20
0.760162
30
0.0
11
0.589300
21
0.760419
31
0.0
0
LINE
8
LEFT
10
0.589300
20
0.760419
30
0.0
11
0.589553
21
0.760670
31
0.0
0
LINE
8
LEFT
10
0.589553
20
0.760670
30
0.0
11
0.589811
21
0.760916
31
0.0
0
LINE
8
LEFT
10
0.589811
20
0.760916
30
0.0
11
0.590076
21
0.761154
31
0.0
0
LINE
8
LEFT
10
0.590076
20
0.761154
30
0.0
11
0.590346
21
0.761387
31
0.0
0
LINE
8
LEFT
10
0.590346
20
0.761387
30
0.0
11
0.590621
21
0.761613
31
0.0
0
LINE
8
LEFT
10
0.590621
20
0.761613
30
0.0
11
0.590902
21
0.761833
31
0.0
0
LINE
8
LEFT
10
0.590902
20
0.761833
30
0.0
11
0.591188
21
0.762046
31
0.0
0
LINE
8
LEFT
10
0.591188
20
0.762046
30
0.0
11
0.591479
21
0.762252
31
0.0
0
LINE
8
LEFT
10
0.591479
20
0.762252
30
0.0
11
0.591775
21
0.762451
31
0.0
0
LINE
8
LEFT
10
0.591775
20
0.762451
30
0.0
11
0.592075
21
0.762642
31
0.0
0
LINE
8
LEFT
10
0.592075
20
0.762642
30
0.0
11
0.592380
21
0.762827
31
0.0
0
LINE
8
LEFT
10
0.592380
20
0.762827
30
0.0
11
0.592689
21
0.763005
31
0.0
0
LINE
8
LEFT
10
0.592689
20
0.763005
30
0.0
11
0.593002
21
0.763175
31
0.0
0
LINE
8
LEFT
10
0.593002
20
0.763175
30
0.0
11
0.593320
21
0.763337
31
0.0
0
LINE
8
LEFT
10
0.593320
20
0.763337
30
0.0
11
0.593641
21
0.763492
31
0.0
0
LINE
8
LEFT
10
0.593641
20
0.763492
30
0.0
11
0.593965
21
0.763639
31
0.0
0
LINE
8
LEFT
10
0.593965
20
0.763639
30
0.0
11
0.594293
21
0.763779
31
0.0
0
LINE
8
LEFT
10
0.594293
20
0.763779
30
0.0
11
0.594624
21
0.763910
31
0.0
0
LINE
8
LEFT
10
0.594624
20
0.763910
30
0.0
11
0.594959
21
0.764034
31
0.0
0
LINE
8
LEFT
10
0.594959
20
0.764034
30
0.0
11
0.595296
21
0.764150
31
0.0
0
LINE
8
LEFT
10
0.595296
20
0.764150
30
0.0
11
0.595635
21
0.764258
31
0.0
0
LINE
8
LEFT
10
0.595635
20
0.764258
30
0.0
11
0.595978
21
0.764357
31
0.0
0
LINE
8
LEFT
10
0.595978
20
0.764357
30
0.0
11
0.596322
21
0.764449
31
0.0
0
LINE
8
LEFT
10
0.596322
20
0.764449
30
0.0
11
0.596669
21
0.764532
31
0.0
0
LINE
8
LEFT
10
0.596669
20
0.764532
30
0.0
11
0.597017
21
0.764607
31
0.0
0
LINE
8
LEFT
10
0.597017
20
0.764607
30
0.0
11
0.597367
21
0.764674
31
0.0
0
LINE
8
LEFT
10
0.597367
20
0.764674
30
0.0
11
0.597719
21
0.764732
31
0.0
0
LINE
8
LEFT
10
0.597719
20
0.764732
30
0.0
11
0.598072
21
0.764782
31
0.0
0
LINE
8
LEFT
10
0.598072
20
0.764782
30
0.0
11
0.598426
21
0.764824
31
0.0
0
LINE
8
LEFT
10
0.599990
20
0.764907
30
0.0
11
0.600000
21
0.764907
31
0.0
0
LINE
8
LEFT
10
0.450000
20
1.199907
30
0.0
11
0.450000
21
0.449907
31
0.0
0
LINE
8
LEFT
10
0.750000
20
1.199907
30
0.0
11
0.750000
21
0.449907
31
0.0
0
LINE
8
LEFT_HID
6
HIDDEN
10
0.600000
20
0.449907
30
0.0
11
0.450000
21
0.449907
31
0.0
0
LINE
8
LEFT_HID
6
HIDDEN
10
0.750000
20
0.449907
30
0.0
11
0.600000
21
0.449907
31
0.0
0
LINE
8
LEFT_HID
6
HIDDEN
10
0.600000
20
0.764907
30
0.0
11
0.600183
21
0.764906
31
0.0
0
LINE
8
LEFT_HID
6
HIDDEN
10
0.600183
20
0.764906
30
0.0
11
0.600367
21
0.764902
31
0.0
0
LINE
8
LEFT_HID
6
HIDDEN
10
0.600367
20
0.764902
30
0.0
11
0.600550
21
0.764897
31
0.0
0
LINE
8
LEFT_HID
6
HIDDEN
10
0.600550
20
0.764897
30
0.0
11
0.600734
21
0.764889
31
0.0
0
LINE
8
LEFT_HID
6
HIDDEN
10
0.600734
20
0.764889
30
0.0
11
0.600917
21
0.764879
31
0.0
0
LINE
8
LEFT_HID
6
HIDDEN
10
0.600917
20
0.764879
30
0.0
11
0.601100
21
0.764866
31
0.0
0
LINE
8
LEFT_HID
6
HIDDEN
10
0.601100
20
0.764866
30
0.0
11
0.601283
21
0.764852
31
0.0
0
LINE
8
LEFT_HID
6
HIDDEN
10
0.601283
20
0.764852
30
0.0
11
0.601465
21
0.764835
31
0.0
0
LINE
8
LEFT_HID
6
HIDDEN
10
0.601465
20
0.764835
30
0.0
11
0.601648
21
0.764816
31
0.0
0
LINE
8
LEFT_HID
6
HIDDEN
10
0.601648
20
0.764816
30
0.0
11
0.601830
21
0.764795
31
0.0
0
LINE
8
LEFT_HID
6
HIDDEN
10
0.601830
20
0.764795
30
0.0
11
0.602012
21
0.764771
31
0.0
0
LINE
8
LEFT_HID
6
HIDDEN
10
0.602012
20
0.764771
30
0.0
11
0.602194
21
0.764745
31
0.0
0
LINE
8
LEFT_HID
6
HIDDEN
10
0.602194
20
0.764745
30
0.0
11
0.602375
21
0.764718
31
0.0
0
LINE
8
LEFT_HID
6
HIDDEN
10
0.602375
20
0.764718
30
0.0
11
0.602556
21
0.764687
31
0.0
0
LINE
8
LEFT_HID
6
HIDDEN
10
0.602556
20
0.764687
30
0.0
11
0.602736
21
0.764655
31
0.0
0
LINE
8
LEFT_HID
6
HIDDEN
10
0.602736
20
0.764655
30
0.0
11
0.602917
21
0.764620
31
0.0
0
LINE
8
LEFT_HID
6
HIDDEN
10
0.602917
20
0.764620
30
0.0
11
0.603096
21
0.764584
31
0.0
0
LINE
8
LEFT_HID
6
HIDDEN
10
0.603096
20
0.764584
30
0.0
11
0.603276
21
0.764545
31
0.0
0
LINE
8
LEFT_HID
6
HIDDEN
10
0.603276
20
0.764545
30
0.0
11
0.603454
21
0.764504
31
0.0
0
LINE
8
LEFT_HID
6
HIDDEN
10
0.603454
20
0.764504
30
0.0
11
0.603633
21
0.764460
31
0.0
0
LINE
8
LEFT_HID
6
HIDDEN
10
0.603633
20
0.764460
30
0.0
11
0.603810
21
0.764415
31
0.0
0
LINE
8
LEFT_HID
6
HIDDEN
10
0.603810
20
0.764415
30
0.0
11
0.603988
21
0.764367
31
0.0
0
LINE
8
LEFT_HID
6
HIDDEN
10
0.603988
20
0.764367
30
0.0
11
0.604164
21
0.764317
31
0.0
0
LINE
8
LEFT_HID
6
HIDDEN
10
0.604164
20
0.764317
30
0.0
11
0.604340
21
0.764265
31
0.0
0
LINE
8
LEFT_HID
6
HIDDEN
10
0.604340
20
0.764265
30
0.0
11
0.604515
21
0.764211
31
0.0
0
LINE
8
LEFT_HID
6
HIDDEN
10
0.604515
20
0.764211
30
0.0
11
0.604690
21
0.764155
31
0.0
0
LINE
8
LEFT_HID
6
HIDDEN
10
0.604690
20
0.764155
30
0.0
11
0.604864
21
0.764096
31
0.0
0
LINE
8
LEFT_HID
6
HIDDEN
10
0.604864
20
0.764096
30
0.0
11
0.605037
21
0.764036
31
0.0
0
LINE
8
LEFT_HID
6
HIDDEN
10
0.605037
20
0.764036
30
0.0
11
0.605210
21
0.763973
31
0.0
0
LINE
8
LEFT_HID
6
HIDDEN
10
0.605210
20
0.763973
30
0.0
11
0.605381
21
0.763908
31
0.0
0
LINE
8
LEFT_HID
6
HIDDEN
10
0.605381
20
0.763908
30
0.0
11
0.605552
21
0.763841
31
0.0
0
LINE
8
LEFT_HID
6
HIDDEN
10
0.605552
20
0.763841
30
0.0
11
0.605722
21
0.763773
31
0.0
0
LINE
8
LEFT_HID
6
HIDDEN
10
0.605722
20
0.763773
30
0.0
11
0.605891
21
0.763701
31
0.0
0
LINE
8
LEFT_HID
6
HIDDEN
10
0.605891
20
0.763701
30
0.0
11
0.606059
21
0.763628
31
0.0
0
LINE
8
LEFT_HID
6
HIDDEN
10
0.606059
20
0.763628
30
0.0
11
0.606227
21
0.763553
31
0.0
0
LINE
8
LEFT_HID
6
HIDDEN
10
0.606227
20
0.763553
30
0.0
11
0.606393
21
0.763476
31
0.0
0
LINE
8
LEFT_HID
6
HIDDEN
10
0.606393
20
0.763476
30
0.0
11
0.606559
21
0.763397
31
0.0
0
LINE
8
LEFT_HID
6
HIDDEN
10
0.606559
20
0.763397
30
0.0
11
0.606723
21
0.763316
31
0.0
0
LINE
8
LEFT_HID
6
HIDDEN
10
0.606723
20
0.763316
30
0.0
11
0.606887
21
0.763232
31
0.0
0
LINE
8
LEFT_HID
6
HIDDEN
10
0.606887
20
0.763232
30
0.0
11
0.607049
21
0.763147
31
0.0
0
LINE
8
LEFT_HID
6
HIDDEN
10
0.607049
20
0.763147
30
0.0
11
0.607211
21
0.763060
31
0.0
0
LINE
8
LEFT_HID
6
HIDDEN
10
0.607211
20
0.763060
30
0.0
11
0.607371
21
0.762971
31
0.0
0
LINE
8
LEFT_HID
6
HIDDEN
10
0.607371
20
0.762971
30
0.0
11
0.607530
21
0.762880
31
0.0
0
LINE
8
LEFT_HID
6
HIDDEN
10
0.607530
20
0.762880
30
0.0
11
0.607688
21
0.762787
31
0.0
0
LINE
8
LEFT_HID
6
HIDDEN
10
0.607688
20
0.762787
30
0.0
11
0.607845
21
0.762692
31
0.0
0
LINE
8
LEFT_HID
6
HIDDEN
10
0.607845
20
0.762692
30
0.0
11
0.608001
21
0.762595
31
0.0
0
LINE
8
LEFT_HID
6
HIDDEN
10
0.608001
20
0.762595
30
0.0
11
0.608156
21
0.762496
31
0.0
0
LINE
8
LEFT_HID
6
HIDDEN
10
0.608156
20
0.762496
30
0.0
11
0.608309
21
0.762395
31
0.0
0
LINE
8
LEFT_HID
6
HIDDEN
10
0.608309
20
0.762395
30
0.0
11
0.608461
21
0.762293
31
0.0
0
LINE
8
LEFT_HID
6
HIDDEN
10
0.608461
20
0.762293
30
0.0
11
0.608612
21
0.762188
31
0.0
0
LINE
8
LEFT_HID
6
HIDDEN
10
0.608612
20
0.762188
30
0.0
11
0.608761
21
0.762082
31
0.0
0
LINE
8
LEFT_HID
6
HIDDEN
10
0.608761
20
0.762082
30
0.0
11
0.608910
21
0.761974
31
0.0
0
LINE
8
LEFT_HID
6
HIDDEN
10
0.608910
20
0.761974
30
0.0
11
0.609057
21
0.761864
31
0.0
0
LINE
8
LEFT_HID
6
HIDDEN
10
0.609057
20
0.761864
30
0.0
11
0.609202
21
0.761752
31
0.0
0
LINE
8
LEFT_HID
6
HIDDEN
10
0.609202
20
0.761752
30
0.0
11
0.609346
21
0.761639
31
0.0
0
LINE
8
LEFT_HID
6
HIDDEN
10
0.609346
20
0.761639
30
0.0
11
0.609489
21
0.761524
31
0.0
0
LINE
8
LEFT_HID
6
HIDDEN
10
0.609489
20
0.761524
30
0.0
11
0.609631
21
0.761407
31
0.0
0
LINE
8
LEFT_HID
6
HIDDEN
10
0.609631
20
0.761407
30
0.0
11
0.609770
21
0.761288
31
0.0
0
LINE
8
LEFT_HID
6
HIDDEN
10
0.609770
20
0.761288
30
0.0
11
0.609909
21
0.761168
31
0.0
0
LINE
8
LEFT_HID
6
HIDDEN
10
0.609909
20
0.761168
30
0.0
11
0.610046
21
0.761046
31
0.0
0
LINE
8
LEFT_HID
6
HIDDEN
10
0.610046
20
0.761046
30
0.0
11
0.610181
21
0.760922
31
0.0
0
LINE
8
LEFT_HID
6
HIDDEN
10
0.610181
20
0.760922
30
0.0
11
0.610315
21
0.760797
31
0.0
0
LINE
8
LEFT_HID
6
HIDDEN
10
0.610315
20
0.760797
30
0.0
11
0.610448
21
0.760670
31
0.0
0
LINE
8
LEFT_HID
6
HIDDEN
10
0.614897
20
0.751659
30
0.0
11
0.614924
21
0.751410
31
0.0
0
LINE
8
LEFT_HID
6
HIDDEN
10
0.614924
20
0.751410
30
0.0
11
0.614947
21
0.751162
31
0.0
0
LINE
8
LEFT_HID
6
HIDDEN
10
0.614947
20
0.751162
30
0.0
11
0.614966
21
0.750913
31
0.0
0
LINE
8
LEFT_HID
6
HIDDEN
10
0.614966
20
0.750913
30
0.0
11
0.614981
21
0.750664
31
0.0
0
LINE
8
LEFT_HID
6
HIDDEN
10
0.614981
20
0.750664
30
0.0
11
0.614991
21
0.750414
31
0.0
0
LINE
8
LEFT_HID
6
HIDDEN
10
0.614991
20
0.750414
30
0.0
11
0.614998
21
0.750165
31
0.0
0
LINE
8
LEFT_HID
6
HIDDEN
10
0.614998
20
0.750165
30
0.0
11
0.615000
21
0.749915
31
0.0
0
LINE
8
LEFT_HID
6
HIDDEN
10
0.615000
20
0.749915
30
0.0
11
0.614998
21
0.749665
31
0.0
0
LINE
8
LEFT_HID
6
HIDDEN
10
0.614998
20
0.749665
30
0.0
11
0.614992
21
0.749416
31
0.0
0
LINE
8
LEFT_HID
6
HIDDEN
10
0.614992
20
0.749416
30
0.0
11
0.614982
21
0.749166
31
0.0
0
LINE
8
LEFT_HID
6
HIDDEN
10
0.614982
20
0.749166
30
0.0
11
0.614967
21
0.748917
31
0.0
0
LINE
8
LEFT_HID
6
HIDDEN
10
0.614967
20
0.748917
30
0.0
11
0.614949
21
0.748668
31
0.0
0
LINE
8
LEFT_HID
6
HIDDEN
10
0.614949
20
0.748668
30
0.0
11
0.614926
21
0.748419
31
0.0
0
LINE
8
LEFT_HID
6
HIDDEN
10
0.614926
20
0.748419
30
0.0
11
0.614899
21
0.748171
31
0.0
0
LINE
8
LEFT_HID
6
HIDDEN
10
0.614899
20
0.748171
30
0.0
11
0.614868
21
0.747923
31
0.0
0
LINE
8
LEFT_HID
6
HIDDEN
10
0.614868
20
0.747923
30
0.0
11
0.614833
21
0.747676
31
0.0
0
LINE
8
LEFT_HID
6
HIDDEN
10
0.614833
20
0.747676
30
0.0
11
0.614794
21
0.747429
31
0.0
0
LINE
8
LEFT_HID
6
HIDDEN
10
0.614794
20
0.747429
30
0.0
11
0.614751
21
0.747184
31
0.0
0
LINE
8
LEFT_HID
6
HIDDEN
10
0.614751
20
0.747184
30
0.0
11
0.614703
21
0.746938
31
0.0
0
LINE
8
LEFT_HID
6
HIDDEN
10
0.614703
20
0.746938
30
0.0
11
0.614652
21
0.746694
31
0.0
0
LINE
8
LEFT_HID
6
HIDDEN
10
0.614652
20
0.746694
30
0.0
11
0.614596
21
0.746451
31
0.0
0
LINE
8
LEFT_HID
6
HIDDEN
10
0.614596
20
0.746451
30
0.0
11
0.614537
21
0.746208
31
0.0
0
LINE
8
LEFT_HID
6
HIDDEN
10
0.614537
20
0.746208
30
0.0
11
0.614473
21
0.745967
31
0.0
0
LINE
8
LEFT_HID
6
HIDDEN
10
0.614473
20
0.745967
30
0.0
11
0.614406
21
0.745726
31
0.0
0
LINE
8
LEFT_HID
6
HIDDEN
10
0.614406
20
0.745726
30
0.0
11
0.614334
21
0.745487
31
0.0
0
LINE
8
LEFT_HID
6
HIDDEN
10
0.614334
20
0.745487
30
0.0
11
0.614259
21
0.745249
31
0.0
0
LINE
8
LEFT_HID
6
HIDDEN
10
0.614259
20
0.745249
30
0.0
11
0.614179
21
0.745013
31
0.0
0
LINE
8
LEFT_HID
6
HIDDEN
10
0.614179
20
0.745013
30
0.0
11
0.614096
21
0.744777
31
0.0
0
LINE
8
LEFT_HID
6
HIDDEN
10
0.614096
20
0.744777
30
0.0
11
0.614008
21
0.744543
31
0.0
0
LINE
8
LEFT_HID
6
HIDDEN
10
0.614008
20
0.744543
30
0.0
11
0.613917
21
0.744311
31
0.0
0
LINE
8
LEFT_HID
6
HIDDEN
10
0.613917
20
0.744311
30
0.0
11
0.613822
21
0.744080
31
0.0
0
LINE
8
LEFT_HID
6
HIDDEN
10
0.613822
20
0.744080
30
0.0
11
0.613723
21
0.743851
31
0.0
0
LINE
8
LEFT_HID
6
HIDDEN
10
0.613723
20
0.743851
30
0.0
11
0.613620
21
0.743623
31
0.0
0
LINE
8
LEFT_HID
6
HIDDEN
10
0.613620
20
0.743623
30
0.0
11
0.613514
21
0.743397
31
0.0
0
LINE
8
LEFT_HID
6
HIDDEN
10
0.613514
20
0.743397
30
0.0
11
0.613404
21
0.743173
31
0.0
0
LINE
8
LEFT_HID
6
HIDDEN
10
0.613404
20
0.743173
30
0.0
11
0.613290
21
0.742951
31
0.0
0
LINE
8
LEFT_HID
6
HIDDEN
10
0.613290
20
0.742951
30
0.0
11
0.613172
21
0.742731
31
0.0
0
LINE
8
LEFT_HID
6
HIDDEN
10
0.613172
20
0.742731
30
0.0
11
0.613051
21
0.742513
31
0.0
0
LINE
8
LEFT_HID
6
HIDDEN
10
0.613051
20
0.742513
30
0.0
11
0.612926
21
0.742296
31
0.0
0
LINE
8
LEFT_HID
6
HIDDEN
10
0.612926
20
0.742296
30
0.0
11
0.612798
21
0.742082
31
0.0
0
LINE
8
LEFT_HID
6
HIDDEN
10
0.612798
20
0.742082
30
0.0
11
0.612666
21
0.741870
31
0.0
0
LINE
8
LEFT_HID
6
HIDDEN
10
0.612666
20
0.741870
30
0.0
11
0.612530
21
0.741661
31
0.0
0
LINE
8
LEFT_HID
6
HIDDEN
10
0.612530
20
0.741661
30
0.0
11
0.612391
21
0.741453
31
0.0
0
LINE
8
LEFT_HID
6
HIDDEN
10
0.612391
20
0.741453
30
0.0
11
0.612249
21
0.741248
31
0.0
0
LINE
8
LEFT_HID
6
HIDDEN
10
0.612249
20
0.741248
30
0.0
11
0.612103
21
0.741045
31
0.0
0
LINE
8
LEFT_HID
6
HIDDEN
10
0.612103
20
0.741045
30
0.0
11
0.611954
21
0.740845
31
0.0
0
LINE
8
LEFT_HID
6
HIDDEN
10
0.611954
20
0.740845
30
0.0
11
0.611801
21
0.740648
31
0.0
0
LINE
8
LEFT_HID
6
HIDDEN
10
0.611801
20
0.740648
30
0.0
11
0.611645
21
0.740452
31
0.0
0
LINE
8
LEFT_HID
6
HIDDEN
10
0.611645
20
0.740452
30
0.0
11
0.611486
21
0.740260
31
0.0
0
LINE
8
LEFT_HID
6
HIDDEN
10
0.611486
20
0.740260
30
0.0
11
0.611324
21
0.740070
31
0.0
0
LINE
8
LEFT_HID
6
HIDDEN
10
0.611324
20
0.740070
30
0.0
11
0.611159
21
0.739883
31
0.0
0
LINE
8
LEFT_HID
6
HIDDEN
10
0.611159
20
0.739883
30
0.0
11
0.610991
21
0.739699
31
0.0
0
LINE
8
LEFT_HID
6
HIDDEN
10
0.610991
20
0.739699
30
0.0
11
0.610819
21
0.739517
31
0.0
0
LINE
8
LEFT_HID
6
HIDDEN
10
0.610819
20
0.739517
30
0.0
11
0.610645
21
0.739338
31
0.0
0
LINE
8
LEFT_HID
6
HIDDEN
10
0.610645
20
0.739338
30
0.0
11
0.610467
21
0.739163
31
0.0
0
LINE
8
LEFT_HID
6
HIDDEN
10
0.610467
20
0.739163
30
0.0
11
0.610287
21
0.738990
31
0.0
0
LINE
8
LEFT_HID
6
HIDDEN
10
0.610287
20
0.738990
30
0.0
11
0.610104
21
0.738820
31
0.0
0
LINE
8
LEFT_HID
6
HIDDEN
10
0.610104
20
0.738820
30
0.0
11
0.609918
21
0.738654
31
0.0
0
LINE
8
LEFT_HID
6
HIDDEN
10
0.609918
20
0.738654
30
0.0
11
0.609729
21
0.738490
31
0.0
0
LINE
8
LEFT_HID
6
HIDDEN
10
0.609729
20
0.738490
30
0.0
11
0.609538
21
0.738330
31
0.0
0
LINE
8
LEFT_HID
6
HIDDEN
10
0.609538
20
0.738330
30
0.0
11
0.609344
21
0.738173
31
0.0
0
LINE
8
LEFT_HID
6
HIDDEN
10
0.609344
20
0.738173
30
0.0
11
0.609147
21
0.738019
31
0.0
0
LINE
8
LEFT_HID
6
HIDDEN
10
0.609147
20
0.738019
30
0.0
11
0.608948
21
0.737868
31
0.0
0
LINE
8
LEFT_HID
6
HIDDEN
10
0.608948
20
0.737868
30
0.0
11
0.608782
21
0.737746
31
0.0
0
LINE
8
LEFT_HID
6
HIDDEN
10
0.608781
20
0.737746
30
0.0
11
0.608614
21
0.737627
31
0.0
0
LINE
8
LEFT_HID
6
HIDDEN
10
0.608613
20
0.737626
30
0.0
11
0.608531
21
0.737569
31
0.0
0
LINE
8
LEFT_HID
6
HIDDEN
10
0.608531
20
0.737569
30
0.0
11
0.608448
21
0.737512
31
0.0
0
LINE
8
LEFT_HID
6
HIDDEN
10
0.608448
20
0.737512
30
0.0
11
0.608365
21
0.737456
31
0.0
0
LINE
8
LEFT_HID
6
HIDDEN
10
0.608365
20
0.737456
30
0.0
11
0.608282
21
0.737400
31
0.0
0
LINE
8
LEFT_HID
6
HIDDEN
10
0.608282
20
0.737400
30
0.0
11
0.608198
21
0.737345
31
0.0
0
LINE
8
LEFT_HID
6
HIDDEN
10
0.608198
20
0.737345
30
0.0
11
0.608114
21
0.737291
31
0.0
0
LINE
8
LEFT_HID
6
HIDDEN
10
0.608114
20
0.737291
30
0.0
11
0.608029
21
0.737237
31
0.0
0
LINE
8
LEFT_HID
6
HIDDEN
10
0.608029
20
0.737237
30
0.0
11
0.607944
21
0.737183
31
0.0
0
LINE
8
LEFT_HID
6
HIDDEN
10
0.607944
20
0.737183
30
0.0
11
0.607859
21
0.737131
31
0.0
0
LINE
8
LEFT_HID
6
HIDDEN
10
0.607859
20
0.737131
30
0.0
11
0.607774
21
0.737078
31
0.0
0
LINE
8
LEFT_HID
6
HIDDEN
10
0.607774
20
0.737078
30
0.0
11
0.607688
21
0.737027
31
0.0
0
LINE
8
LEFT_HID
6
HIDDEN
10
0.607688
20
0.737027
30
0.0
11
0.607602
21
0.736976
31
0.0
0
LINE
8
LEFT_HID
6
HIDDEN
10
0.607602
20
0.736976
30
0.0
11
0.607515
21
0.736925
31
0.0
0
LINE
8
LEFT_HID
6
HIDDEN
10
0.607515
20
0.736925
30
0.0
11
0.607428
21
0.736875
31
0.0
0
LINE
8
LEFT_HID
6
HIDDEN
10
0.607428
20
0.736875
30
0.0
11
0.607341
21
0.736826
31
0.0
0
LINE
8
LEFT_HID
6
HIDDEN
10
0.607341
20
0.736826
30
0.0
11
0.607253
21
0.736777
31
0.0
0
LINE
8
LEFT_HID
6
HIDDEN
10
0.607253
20
0.736777
30
0.0
11
0.607166
21
0.736729
31
0.0
0
LINE
8
LEFT_HID
6
HIDDEN
10
0.607166
20
0.736729
30
0.0
11
0.607077
21
0.736681
31
0.0
0
LINE
8
LEFT_HID
6
HIDDEN
10
0.607077
20
0.736681
30
0.0
11
0.606989
21
0.736634
31
0.0
0
LINE
8
LEFT_HID
6
HIDDEN
10
0.606989
20
0.736634
30
0.0
11
0.606900
21
0.736588
31
0.0
0
LINE
8
LEFT_HID
6
HIDDEN
10
0.606900
20
0.736588
30
0.0
11
0.606811
21
0.736542
31
0.0
0
LINE
8
LEFT_HID
6
HIDDEN
10
0.606811
20
0.736542
30
0.0
11
0.606722
21
0.736497
31
0.0
0
LINE
8
LEFT_HID
6
HIDDEN
10
0.606722
20
0.736497
30
0.0
11
0.606632
21
0.736452
31
0.0
0
LINE
8
LEFT_HID
6
HIDDEN
10
0.606632
20
0.736452
30
0.0
11
0.606542
21
0.736408
31
0.0
0
LINE
8
LEFT_HID
6
HIDDEN
10
0.606542
20
0.736408
30
0.0
11
0.606451
21
0.736365
31
0.0
0
LINE
8
LEFT_HID
6
HIDDEN
10
0.606451
20
0.736365
30
0.0
11
0.606361
21
0.736322
31
0.0
0
LINE
8
LEFT_HID
6
HIDDEN
10
0.606361
20
0.736322
30
0.0
11
0.606270
21
0.736280
31
0.0
0
LINE
8
LEFT_HID
6
HIDDEN
10
0.606270
20
0.736280
30
0.0
11
0.606179
21
0.736238
31
0.0
0
LINE
8
LEFT_HID
6
HIDDEN
10
0.606179
20
0.736238
30
0.0
11
0.606087
21
0.736197
31
0.0
0
LINE
8
LEFT_HID
6
HIDDEN
10
0.606087
20
0.736197
30
0.0
11
0.605996
21
0.736157
31
0.0
0
LINE
8
LEFT_HID
6
HIDDEN
10
0.605996
20
0.736157
30
0.0
11
0.605904
21
0.736117
31
0.0
0
LINE
8
LEFT_HID
6
HIDDEN
10
0.605904
20
0.736117
30
0.0
11
0.605811
21
0.736078
31
0.0
0
LINE
8
LEFT_HID
6
HIDDEN
10
0.605811
20
0.736078
30
0.0
11
0.605719
21
0.736040
31
0.0
0
LINE
8
LEFT_HID
6
HIDDEN
10
0.605719
20
0.736040
30
0.0
11
0.605626
21
0.736002
31
0.0
0
LINE
8
LEFT_HID
6
HIDDEN
10
0.605626
20
0.736002
30
0.0
11
0.605533
21
0.735965
31
0.0
0
LINE
8
LEFT_HID
6
HIDDEN
10
0.605533
20
0.735965
30
0.0
11
0.605440
21
0.735928
31
0.0
0
LINE
8
LEFT_HID
6
HIDDEN
10
0.605440
20
0.735928
30
0.0
11
0.605346
21
0.735892
31
0.0
0
LINE
8
LEFT_HID
6
HIDDEN
10
0.605346
20
0.735892
30
0.0
11
0.605253
21
0.735856
31
0.0
0
LINE
8
LEFT_HID
6
HIDDEN
10
0.605253
20
0.735856
30
0.0
11
0.605159
21
0.735822
31
0.0
0
LINE
8
LEFT_HID
6
HIDDEN
10
0.605159
20
0.735822
30
0.0
11
0.605064
21
0.735788
31
0.0
0
LINE
8
LEFT_HID
6
HIDDEN
10
0.605064
20
0.735788
30
0.0
11
0.604970
21
0.735754
31
0.0
0
LINE
8
LEFT_HID
6
HIDDEN
10
0.604970
20
0.735754
30
0.0
11
0.604875
21
0.735721
31
0.0
0
LINE
8
LEFT_HID
6
HIDDEN
10
0.604875
20
0.735721
30
0.0
11
0.604780
21
0.735689
31
0.0
0
LINE
8
LEFT_HID
6
HIDDEN
10
0.604780
20
0.735689
30
0.0
11
0.604685
21
0.735657
31
0.0
0
LINE
8
LEFT_HID
6
HIDDEN
10
0.604685
20
0.735657
30
0.0
11
0.604590
21
0.735626
31
0.0
0
LINE
8
LEFT_HID
6
HIDDEN
10
0.604590
20
0.735626
30
0.0
11
0.604494
21
0.735596
31
0.0
0
LINE
8
LEFT_HID
6
HIDDEN
10
0.604494
20
0.735596
30
0.0
11
0.604399
21
0.735566
31
0.0
0
LINE
8
LEFT_HID
6
HIDDEN
10
0.604399
20
0.735566
30
0.0
11
0.604303
21
0.735537
31
0.0
0
LINE
8
LEFT_HID
6
HIDDEN
10
0.604303
20
0.735537
30
0.0
11
0.604207
21
0.735509
31
0.0
0
LINE
8
LEFT_HID
6
HIDDEN
10
0.604207
20
0.735509
30
0.0
11
0.604111
21
0.735481
31
0.0
0
LINE
8
LEFT_HID
6
HIDDEN
10
0.604111
20
0.735481
30
0.0
11
0.604014
21
0.735454
31
0.0
0
LINE
8
LEFT_HID
6
HIDDEN
10
0.604014
20
0.735454
30
0.0
11
0.603917
21
0.735427
31
0.0
0
LINE
8
LEFT_HID
6
HIDDEN
10
0.603917
20
0.735427
30
0.0
11
0.603821
21
0.735401
31
0.0
0
LINE
8
LEFT_HID
6
HIDDEN
10
0.603821
20
0.735401
30
0.0
11
0.603724
21
0.735376
31
0.0
0
LINE
8
LEFT_HID
6
HIDDEN
10
0.603724
20
0.735376
30
0.0
11
0.603626
21
0.735352
31
0.0
0
LINE
8
LEFT_HID
6
HIDDEN
10
0.603626
20
0.735352
30
0.0
11
0.603529
21
0.735328
31
0.0
0
LINE
8
LEFT_HID
6
HIDDEN
10
0.603529
20
0.735328
30
0.0
11
0.603432
21
0.735305
31
0.0
0
LINE
8
LEFT_HID
6
HIDDEN
10
0.603432
20
0.735305
30
0.0
11
0.603334
21
0.735282
31
0.0
0
LINE
8
LEFT_HID
6
HIDDEN
10
0.603334
20
0.735282
30
0.0
11
0.603236
21
0.735260
31
0.0
0
LINE
8
LEFT_HID
6
HIDDEN
10
0.603236
20
0.735260
30
0.0
11
0.603138
21
0.735239
31
0.0
0
LINE
8
LEFT_HID
6
HIDDEN
10
0.603138
20
0.735239
30
0.0
11
0.603040
21
0.735218
31
0.0
0
LINE
8
LEFT_HID
6
HIDDEN
10
0.603040
20
0.735218
30
0.0
11
0.602942
21
0.735198
31
0.0
0
LINE
8
LEFT_HID
6
HIDDEN
10
0.602942
20
0.735198
30
0.0
11
0.602844
21
0.735179
31
0.0
0
LINE
8
LEFT_HID
6
HIDDEN
10
0.602655
20
0.735144
30
0.0
11
0.602653
21
0.735143
31
0.0
0
LINE
8
LEFT_HID
6
HIDDEN
10
0.600165
20
0.734908
30
0.0
11
0.600000
21
0.734907
31
0.0
0
LINE
8
LEFT_HID
6
HIDDEN
10
0.600000
20
1.199907
30
0.0
11
0.450000
21
1.199907
31
0.0
0
LINE
8
LEFT_HID
6
HIDDEN
10
0.750000
20
1.199907
30
0.0
11
0.600000
21
1.199907
31
0.0
0
LINE
8
LEFT_HID
6
HIDDEN
10
0.596633
20
0.735290
30
0.0
11
0.596140
21
0.735412
31
0.0
0
LINE
8
LEFT_HID
6
HIDDEN
10
0.596140
20
0.735412
30
0.0
11
0.595652
21
0.735551
31
0.0
0
LINE
8
LEFT_HID
6
HIDDEN
10
0.595652
20
0.735551
30
0.0
11
0.595169
21
0.735706
31
0.0
0
LINE
8
LEFT_HID
6
HIDDEN
10
0.595169
20
0.735706
30
0.0
11
0.594692
21
0.735877
31
0.0
0
LINE
8
LEFT_HID
6
HIDDEN
10
0.594692
20
0.735877
30
0.0
11
0.594220
21
0.736065
31
0.0
0
LINE
8
LEFT_HID
6
HIDDEN
10
0.594220
20
0.736065
30
0.0
11
0.593755
21
0.736268
31
0.0
0
LINE
8
LEFT_HID
6
HIDDEN
10
0.593755
20
0.736268
30
0.0
11
0.593297
21
0.736488
31
0.0
0
LINE
8
LEFT_HID
6
HIDDEN
10
0.593297
20
0.736488
30
0.0
11
0.592847
21
0.736722
31
0.0
0
LINE
8
LEFT_HID
6
HIDDEN
10
0.592847
20
0.736722
30
0.0
11
0.592406
21
0.736971
31
0.0
0
LINE
8
LEFT_HID
6
HIDDEN
10
0.592406
20
0.736971
30
0.0
11
0.591972
21
0.737236
31
0.0
0
LINE
8
LEFT_HID
6
HIDDEN
10
0.591972
20
0.737236
30
0.0
11
0.591548
21
0.737514
31
0.0
0
LINE
8
LEFT_HID
6
HIDDEN
10
0.591548
20
0.737514
30
0.0
11
0.591134
21
0.737807
31
0.0
0
LINE
8
LEFT_HID
6
HIDDEN
10
0.591134
20
0.737807
30
0.0
11
0.590730
21
0.738114
31
0.0
0
LINE
8
LEFT_HID
6
HIDDEN
10
0.590730
20
0.738114
30
0.0
11
0.590336
21
0.738434
31
0.0
0
LINE
8
LEFT_HID
6
HIDDEN
10
0.590336
20
0.738434
30
0.0
11
0.589954
21
0.738768
31
0.0
0
LINE
8
LEFT_HID
6
HIDDEN
10
0.589954
20
0.738768
30
0.0
11
0.589583
21
0.739114
31
0.0
0
LINE
8
LEFT_HID
6
HIDDEN
10
0.589583
20
0.739114
30
0.0
11
0.589224
21
0.739473
31
0.0
0
LINE
8
LEFT_HID
6
HIDDEN
10
0.589224
20
0.739473
30
0.0
11
0.588877
21
0.739843
31
0.0
0
LINE
8
LEFT_HID
6
HIDDEN
10
0.588877
20
0.739843
30
0.0
11
0.588543
21
0.740225
31
0.0
0
LINE
8
LEFT_HID
6
HIDDEN
10
0.588543
20
0.740225
30
0.0
11
0.588222
21
0.740618
31
0.0
0
LINE
8
LEFT_HID
6
HIDDEN
10
0.588222
20
0.740618
30
0.0
11
0.587915
21
0.741022
31
0.0
0
LINE
8
LEFT_HID
6
HIDDEN
10
0.587915
20
0.741022
30
0.0
11
0.587621
21
0.741436
31
0.0
0
LINE
8
LEFT_HID
6
HIDDEN
10
0.587621
20
0.741436
30
0.0
11
0.587341
21
0.741859
31
0.0
0
LINE
8
LEFT_HID
6
HIDDEN
10
0.587341
20
0.741859
30
0.0
11
0.587077
21
0.742292
31
0.0
0
LINE
8
LEFT_HID
6
HIDDEN
10
0.587077
20
0.742292
30
0.0
11
0.586826
21
0.742734
31
0.0
0
LINE
8
LEFT_HID
6
HIDDEN
10
0.586826
20
0.742734
30
0.0
11
0.586591
21
0.743183
31
0.0
0
LINE
8
LEFT_HID
6
HIDDEN
10
0.586591
20
0.743183
30
0.0
11
0.586372
21
0.743641
31
0.0
0
LINE
8
LEFT_HID
6
HIDDEN
10
0.586372
20
0.743641
30
0.0
11
0.586167
21
0.744105
31
0.0
0
LINE
8
LEFT_HID
6
HIDDEN
10
0.586167
20
0.744105
30
0.0
11
0.585979
21
0.744576
31
0.0
0
LINE
8
LEFT_HID
6
HIDDEN
10
0.585979
20
0.744576
30
0.0
11
0.585807
21
0.745054
31
0.0
0
LINE
8
LEFT_HID
6
HIDDEN
10
0.585807
20
0.745054
30
0.0
11
0.585651
21
0.745537
31
0.0
0
LINE
8
LEFT_HID
6
HIDDEN
10
0.585651
20
0.745537
30
0.0
11
0.585511
21
0.746024
31
0.0
0
LINE
8
LEFT_HID
6
HIDDEN
10
0.585511
20
0.746024
30
0.0
11
0.585388
21
0.746517
31
0.0
0
LINE
8
LEFT_HID
6
HIDDEN
10
0.585388
20
0.746517
30
0.0
11
0.585282
21
0.747013
31
0.0
0
LINE
8
LEFT_HID
6
HIDDEN
10
0.585282
20
0.747013
30
0.0
11
0.585192
21
0.747512
31
0.0
0
LINE
8
LEFT_HID
6
HIDDEN
10
0.585192
20
0.747512
30
0.0
11
0.585120
21
0.748015
31
0.0
0
LINE
8
LEFT_HID
6
HIDDEN
10
0.585120
20
0.748015
30
0.0
11
0.585064
21
0.748519
31
0.0
0
LINE
8
LEFT_HID
6
HIDDEN
10
0.585064
20
0.748519
30
0.0
11
0.585026
21
0.749025
31
0.0
0
LINE
8
LEFT_HID
6
HIDDEN
10
0.585026
20
0.749025
30
0.0
11
0.585005
21
0.749532
31
0.0
0
LINE
8
LEFT_HID
6
HIDDEN
10
0.585005
20
0.749532
30
0.0
11
0.585001
21
0.750039
31
0.0
0
LINE
8
LEFT_HID
6
HIDDEN
10
0.585001
20
0.750039
30
0.0
11
0.585014
21
0.750547
31
0.0
0
LINE
8
LEFT_HID
6
HIDDEN
10
0.585014
20
0.750547
30
0.0
11
0.585044
21
0.751053
31
0.0
0
LINE
8
LEFT_HID
6
HIDDEN
10
0.585044
20
0.751053
30
0.0
11
0.585091
21
0.751558
31
0.0
0
LINE
8
LEFT_HID
6
HIDDEN
10
0.585091
20
0.751558
30
0.0
11
0.585156
21
0.752062
31
0.0
0
LINE
8
LEFT_HID
6
HIDDEN
10
0.585156
20
0.752062
30
0.0
11
0.585237
21
0.752563
31
0.0
0
LINE
8
LEFT_HID
6
HIDDEN
10
0.585237
20
0.752563
30
0.0
11
0.585335
21
0.753060
31
0.0
0
LINE
8
LEFT_HID
6
HIDDEN
10
0.585335
20
0.753060
30
0.0
11
0.585450
21
0.753555
31
0.0
0
LINE
8
LEFT_HID
6
HIDDEN
10
0.585450
20
0.753555
30
0.0
11
0.585582
21
0.754045
31
0.0
0
LINE
8
LEFT_HID
6
HIDDEN
10
0.585582
20
0.754045
30
0.0
11
0.585730
21
0.754530
31
0.0
0
LINE
8
LEFT_HID
6
HIDDEN
10
0.585730
20
0.754530
30
0.0
11
0.585895
21
0.755010
31
0.0
0
LINE
8
LEFT_HID
6
HIDDEN
10
0.585895
20
0.755010
30
0.0
11
0.586075
21
0.755484
31
0.0
0
LINE
8
LEFT_HID
6
HIDDEN
10
0.586075
20
0.755484
30
0.0
11
0.586272
21
0.755952
31
0.0
0
LINE
8
LEFT_HID
6
HIDDEN
10
0.586272
20
0.755952
30
0.0
11
0.586484
21
0.756413
31
0.0
0
LINE
8
LEFT_HID
6
HIDDEN
10
0.586484
20
0.756413
30
0.0
11
0.586712
21
0.756866
31
0.0
0
LINE
8
LEFT_HID
6
HIDDEN
10
0.586712
20
0.756866
30
0.0
11
0.586955
21
0.757312
31
0.0
0
LINE
8
LEFT_HID
6
HIDDEN
10
0.586955
20
0.757312
30
0.0
11
0.587213
21
0.757749
31
0.0
0
LINE
8
LEFT_HID
6
HIDDEN
10
0.587213
20
0.757749
30
0.0
11
0.587486
21
0.758177
31
0.0
0
LINE
8
LEFT_HID
6
HIDDEN
10
0.587486
20
0.758177
30
0.0
11
0.587773
21
0.758595
31
0.0
0
LINE
8
LEFT_HID
6
HIDDEN
10
0.587773
20
0.758595
30
0.0
11
0.588074
21
0.759004
31
0.0
0
LINE
8
LEFT_HID
6
HIDDEN
10
0.588074
20
0.759004
30
0.0
11
0.588388
21
0.759402
31
0.0
0
LINE
8
LEFT_HID
6
HIDDEN
10
0.588388
20
0.759402
30
0.0
11
0.588716
21
0.759789
31
0.0
0
LINE
8
LEFT_HID
6
HIDDEN
10
0.588716
20
0.759789
30
0.0
11
0.589057
21
0.760165
31
0.0
0
LINE
8
LEFT_HID
6
HIDDEN
10
0.589057
20
0.760165
30
0.0
11
0.589410
21
0.760530
31
0.0
0
LINE
8
LEFT_HID
6
HIDDEN
10
0.590530
20
0.761539
30
0.0
11
0.594588
21
0.763896
31
0.0
0
LINE
8
LEFT_HID
6
HIDDEN
10
0.597122
20
0.764628
30
0.0
11
0.600000
21
0.764907
31
0.0
0
LINE
8
LEFT_HID
6
HIDDEN
10
0.600000
20
0.734907
30
0.0
11
0.599703
21
0.734910
31
0.0
0
LINE
8
LEFT_HID
6
HIDDEN
10
0.597137
20
0.735183
30
0.0
11
0.596451
21
0.735333
31
0.0
0
LINE
8
LEFT_HID
6
HIDDEN
10
0.596451
20
0.735333
30
0.0
11
0.595772
21
0.735515
31
0.0
0
LINE
8
LEFT_HID
6
HIDDEN
10
0.595772
20
0.735515
30
0.0
11
0.595103
21
0.735728
31
0.0
0
LINE
8
LEFT_HID
6
HIDDEN
10
0.595103
20
0.735728
30
0.0
11
0.594445
21
0.735973
31
0.0
0
LINE
8
LEFT_HID
6
HIDDEN
10
0.594445
20
0.735973
30
0.0
11
0.593799
21
0.736248
31
0.0
0
LINE
8
LEFT_HID
6
HIDDEN
10
0.593799
20
0.736248
30
0.0
11
0.593167
21
0.736554
31
0.0
0
LINE
8
LEFT_HID
6
HIDDEN
10
0.593167
20
0.736554
30
0.0
11
0.592549
21
0.736888
31
0.0
0
LINE
8
LEFT_HID
6
HIDDEN
10
0.592549
20
0.736888
30
0.0
11
0.591948
21
0.737251
31
0.0
0
LINE
8
LEFT_HID
6
HIDDEN
10
0.591948
20
0.737251
30
0.0
11
0.591365
21
0.737642
31
0.0
0
LINE
8
LEFT_HID
6
HIDDEN
10
0.591365
20
0.737642
30
0.0
11
0.590800
21
0.738059
31
0.0
0
LINE
8
LEFT_HID
6
HIDDEN
10
0.590800
20
0.738059
30
0.0
11
0.590256
21
0.738503
31
0.0
0
LINE
8
LEFT_HID
6
HIDDEN
10
0.590256
20
0.738503
30
0.0
11
0.589733
21
0.738971
31
0.0
0
LINE
8
LEFT_HID
6
HIDDEN
10
0.589733
20
0.738971
30
0.0
11
0.589232
21
0.739464
31
0.0
0
LINE
8
LEFT_HID
6
HIDDEN
10
0.589232
20
0.739464
30
0.0
11
0.588755
21
0.739979
31
0.0
0
LINE
8
LEFT_HID
6
HIDDEN
10
0.588755
20
0.739979
30
0.0
11
0.588303
21
0.740516
31
0.0
0
LINE
8
LEFT_HID
6
HIDDEN
10
0.588303
20
0.740516
30
0.0
11
0.587876
21
0.741074
31
0.0
0
LINE
8
LEFT_HID
6
HIDDEN
10
0.587876
20
0.741074
30
0.0
11
0.587476
21
0.741651
31
0.0
0
LINE
8
LEFT_HID
6
HIDDEN
10
0.587476
20
0.741651
30
0.0
11
0.587104
21
0.742246
31
0.0
0
LINE
8
LEFT_HID
6
HIDDEN
10
0.587104
20
0.742246
30
0.0
11
0.586759
21
0.742858
31
0.0
0
LINE
8
LEFT_HID
6
HIDDEN
10
0.586759
20
0.742858
30
0.0
11
0.586444
21
0.743486
31
0.0
0
LINE
8
LEFT_HID
6
HIDDEN
10
0.586444
20
0.743486
30
0.0
11
0.586158
21
0.744127
31
0.0
0
LINE
8
LEFT_HID
6
HIDDEN
10
0.586158
20
0.744127
30
0.0
11
0.585903
21
0.744781
31
0.0
0
LINE
8
LEFT_HID
6
HIDDEN
10
0.585903
20
0.744781
30
0.0
11
0.585678
21
0.745447
31
0.0
0
LINE
8
LEFT_HID
6
HIDDEN
10
0.585678
20
0.745447
30
0.0
11
0.585485
21
0.746122
31
0.0
0
LINE
8
LEFT_HID
6
HIDDEN
10
0.585485
20
0.746122
30
0.0
11
0.585324
21
0.746805
31
0.0
0
LINE
8
LEFT_HID
6
HIDDEN
10
0.585324
20
0.746805
30
0.0
11
0.585195
21
0.747495
31
0.0
0
LINE
8
LEFT_HID
6
HIDDEN
10
0.585195
20
0.747495
30
0.0
11
0.585098
21
0.748191
31
0.0
0
LINE
8
LEFT_HID
6
HIDDEN
10
0.585098
20
0.748191
30
0.0
11
0.585034
21
0.748890
31
0.0
0
LINE
8
LEFT_HID
6
HIDDEN
10
0.585034
20
0.748890
30
0.0
11
0.585003
21
0.749592
31
0.0
0
LINE
8
LEFT_HID
6
HIDDEN
10
0.585003
20
0.749592
30
0.0
11
0.585005
21
0.750294
31
0.0
0
LINE
8
LEFT_HID
6
HIDDEN
10
0.585005
20
0.750294
30
0.0
11
0.585040
21
0.750995
31
0.0
0
LINE
8
LEFT_HID
6
HIDDEN
10
0.585040
20
0.750995
30
0.0
11
0.585107
21
0.751694
31
0.0
0
LINE
8
LEFT_HID
6
HIDDEN
10
0.585107
20
0.751694
30
0.0
11
0.585207
21
0.752389
31
0.0
0
LINE
8
LEFT_HID
6
HIDDEN
10
0.585207
20
0.752389
30
0.0
11
0.585339
21
0.753079
31
0.0
0
LINE
8
LEFT_HID
6
HIDDEN
10
0.585339
20
0.753079
30
0.0
11
0.585504
21
0.753762
31
0.0
0
LINE
8
LEFT_HID
6
HIDDEN
10
0.585504
20
0.753762
30
0.0
11
0.585700
21
0.754436
31
0.0
0
LINE
8
LEFT_HID
6
HIDDEN
10
0.585700
20
0.754436
30
0.0
11
0.585928
21
0.755100
31
0.0
0
LINE
8
LEFT_HID
6
HIDDEN
10
0.585928
20
0.755100
30
0.0
11
0.586186
21
0.755753
31
0.0
0
LINE
8
LEFT_HID
6
HIDDEN
10
0.586186
20
0.755753
30
0.0
11
0.586475
21
0.756393
31
0.0
0
LINE
8
LEFT_HID
6
HIDDEN
10
0.586475
20
0.756393
30
0.0
11
0.586793
21
0.757019
31
0.0
0
LINE
8
LEFT_HID
6
HIDDEN
10
0.586793
20
0.757019
30
0.0
11
0.587141
21
0.757629
31
0.0
0
LINE
8
LEFT_HID
6
HIDDEN
10
0.587141
20
0.757629
30
0.0
11
0.587516
21
0.758223
31
0.0
0
LINE
8
LEFT_HID
6
HIDDEN
10
0.587516
20
0.758223
30
0.0
11
0.587919
21
0.758798
31
0.0
0
LINE
8
LEFT_HID
6
HIDDEN
10
0.587919
20
0.758798
30
0.0
11
0.588348
21
0.759353
31
0.0
0
LINE
8
LEFT_HID
6
HIDDEN
10
0.588348
20
0.759353
30
0.0
11
0.588803
21
0.759888
31
0.0
0
LINE
8
LEFT_HID
6
HIDDEN
10
0.588803
20
0.759888
30
0.0
11
0.589283
21
0.760401
31
0.0
0
LINE
8
LEFT_HID
6
HIDDEN
10
0.589283
20
0.760401
30
0.0
11
0.589785
21
0.760891
31
0.0
0
LINE
8
LEFT_HID
6
HIDDEN
10
0.589785
20
0.760891
30
0.0
11
0.590311
21
0.761357
31
0.0
0
LINE
8
LEFT_HID
6
HIDDEN
10
0.590311
20
0.761357
30
0.0
11
0.590857
21
0.761798
31
0.0
0
LINE
8
LEFT_HID
6
HIDDEN
10
0.590857
20
0.761798
30
0.0
11
0.591424
21
0.762213
31
0.0
0
LINE
8
LEFT_HID
6
HIDDEN
10
0.591424
20
0.762213
30
0.0
11
0.592009
21
0.762601
31
0.0
0
LINE
8
LEFT_HID
6
HIDDEN
10
0.592009
20
0.762601
30
0.0
11
0.592612
21
0.762961
31
0.0
0
LINE
8
LEFT_HID
6
HIDDEN
10
0.592612
20
0.762961
30
0.0
11
0.593231
21
0.763293
31
0.0
0
LINE
8
LEFT_HID
6
HIDDEN
10
0.593231
20
0.763293
30
0.0
11
0.593865
21
0.763595
31
0.0
0
LINE
8
LEFT_HID
6
HIDDEN
10
0.593865
20
0.763595
30
0.0
11
0.594512
21
0.763867
31
0.0
0
LINE
8
LEFT_HID
6
HIDDEN
10
0.594512
20
0.763867
30
0.0
11
0.595172
21
0.764108
31
0.0
0
LINE
8
LEFT_HID
6
HIDDEN
10
0.595172
20
0.764108
30
0.0
11
0.595842
21
0.764319
31
0.0
0
LINE
8
LEFT_HID
6
HIDDEN
10
0.595842
20
0.764319
30
0.0
11
0.596521
21
0.764498
31
0.0
0
LINE
8
LEFT_HID
6
HIDDEN
10
0.596521
20
0.764498
30
0.0
11
0.597207
21
0.764644
31
0.0
0
LINE
8
LEFT_HID
6
HIDDEN
10
0.597207
20
0.764644
30
0.0
11
0.597900
21
0.764759
31
0.0
0
LINE
8
LEFT_HID
6
HIDDEN
10
0.597900
20
0.764759
30
0.0
11
0.598598
21
0.764841
31
0.0
0
LINE
8
LEFT_HID
6
HIDDEN
10
0.598598
20
0.764841
30
0.0
11
0.599298
21
0.764890
31
0.0
0
LINE
8
LEFT_HID
6
HIDDEN
10
0.599298
20
0.764890
30
0.0
11
0.600000
21
0.764907
31
0.0
0
LINE
8
LEFT_HID
6
HIDDEN
10
0.600000
20
0.764907
30
0.0
11
0.600569
21
0.764896
31
0.0
0
LINE
8
LEFT_HID
6
HIDDEN
10
0.600569
20
0.764896
30
0.0
11
0.601138
21
0.764864
31
0.0
0
LINE
8
LEFT_HID
6
HIDDEN
10
0.601138
20
0.764864
30
0.0
11
0.601705
21
0.764810
31
0.0
0
LINE
8
LEFT_HID
6
HIDDEN
10
0.601705
20
0.764810
30
0.0
11
0.602270
21
0.764734
31
0.0
0
LINE
8
LEFT_HID
6
HIDDEN
10
0.602270
20
0.764734
30
0.0
11
0.602831
21
0.764637
31
0.0
0
LINE
8
LEFT_HID
6
HIDDEN
10
0.602831
20
0.764637
30
0.0
11
0.603388
21
0.764519
31
0.0
0
LINE
8
LEFT_HID
6
HIDDEN
10
0.603388
20
0.764519
30
0.0
11
0.603940
21
0.764380
31
0.0
0
LINE
8
LEFT_HID
6
HIDDEN
10
0.603940
20
0.764380
30
0.0
11
0.604487
21
0.764220
31
0.0
0
LINE
8
LEFT_HID
6
HIDDEN
10
0.604487
20
0.764220
30
0.0
11
0.605027
21
0.764039
31
0.0
0
LINE
8
LEFT_HID
6
HIDDEN
10
0.605027
20
0.764039
30
0.0
11
0.605560
21
0.763838
31
0.0
0
LINE
8
LEFT_HID
6
HIDDEN
10
0.605560
20
0.763838
30
0.0
11
0.606085
21
0.763617
31
0.0
0
LINE
8
LEFT_HID
6
HIDDEN
10
0.606085
20
0.763617
30
0.0
11
0.606601
21
0.763376
31
0.0
0
LINE
8
LEFT_HID
6
HIDDEN
10
0.606601
20
0.763376
30
0.0
11
0.607107
21
0.763116
31
0.0
0
LINE
8
LEFT_HID
6
HIDDEN
10
0.607107
20
0.763116
30
0.0
11
0.607604
21
0.762837
31
0.0
0
LINE
8
LEFT_HID
6
HIDDEN
10
0.607604
20
0.762837
30
0.0
11
0.608089
21
0.762539
31
0.0
0
LINE
8
LEFT_HID
6
HIDDEN
10
0.608089
20
0.762539
30
0.0
11
0.608563
21
0.762223
31
0.0
0
LINE
8
LEFT_HID
6
HIDDEN
10
0.608563
20
0.762223
30
0.0
11
0.609024
21
0.761889
31
0.0
0
LINE
8
LEFT_HID
6
HIDDEN
10
0.609024
20
0.761889
30
0.0
11
0.609472
21
0.761537
31
0.0
0
LINE
8
LEFT_HID
6
HIDDEN
10
0.609472
20
0.761537
30
0.0
11
0.609907
21
0.761169
31
0.0
0
LINE
8
LEFT_HID
6
HIDDEN
10
0.609907
20
0.761169
30
0.0
11
0.610328
21
0.760785
31
0.0
0
LINE
8
LEFT_HID
6
HIDDEN
10
0.610328
20
0.760785
30
0.0
11
0.610733
21
0.760385
31
0.0
0
LINE
8
LEFT_HID
6
HIDDEN
10
0.610733
20
0.760385
30
0.0
11
0.611123
21
0.759970
31
0.0
0
LINE
8
LEFT_HID
6
HIDDEN
10
0.611123
20
0.759970
30
0.0
11
0.611497
21
0.759541
31
0.0
0
LINE
8
LEFT_HID
6
HIDDEN
10
0.611497
20
0.759541
30
0.0
11
0.611855
21
0.759097
31
0.0
0
LINE
8
LEFT_HID
6
HIDDEN
10
0.611855
20
0.759097
30
0.0
11
0.612195
21
0.758641
31
0.0
0
LINE
8
LEFT_HID
6
HIDDEN
10
0.612195
20
0.758641
30
0.0
11
0.612518
21
0.758172
31
0.0
0
LINE
8
LEFT_HID
6
HIDDEN
10
0.612518
20
0.758172
30
0.0
11
0.612822
21
0.757690
31
0.0
0
LINE
8
LEFT_HID
6
HIDDEN
10
0.612822
20
0.757690
30
0.0
11
0.613109
21
0.757198
31
0.0
0
LINE
8
LEFT_HID
6
HIDDEN
10
0.613109
20
0.757198
30
0.0
11
0.613376
21
0.756695
31
0.0
0
LINE
8
LEFT_HID
6
HIDDEN
10
0.613376
20
0.756695
30
0.0
11
0.613624
21
0.756183
31
0.0
0
LINE
8
LEFT_HID
6
HIDDEN
10
0.613624
20
0.756183
30
0.0
11
0.613852
21
0.755661
31
0.0
0
LINE
8
LEFT_HID
6
HIDDEN
10
0.613852
20
0.755661
30
0.0
11
0.614061
21
0.755131
31
0.0
0
LINE
8
LEFT_HID
6
HIDDEN
10
0.614061
20
0.755131
30
0.0
11
0.614249
21
0.754593
31
0.0
0
LINE
8
LEFT_HID
6
HIDDEN
10
0.614249
20
0.754593
30
0.0
11
0.614417
21
0.754049
31
0.0
0
LINE
8
LEFT_HID
6
HIDDEN
10
0.614417
20
0.754049
30
0.0
11
0.614564
21
0.753499
31
0.0
0
LINE
8
LEFT_HID
6
HIDDEN
10
0.614564
20
0.753499
30
0.0
11
0.614689
21
0.752943
31
0.0
0
LINE
8
LEFT_HID
6
HIDDEN
10
0.614689
20
0.752943
30
0.0
11
0.614794
21
0.752383
31
0.0
0
LINE
8
LEFT_HID
6
HIDDEN
10
0.614794
20
0.752383
30
0.0
11
0.614877
21
0.751820
31
0.0
0
LINE
8
LEFT_HID
6
HIDDEN
10
0.614877
20
0.751820
30
0.0
11
0.614939
21
0.751254
31
0.0
0
LINE
8
LEFT_HID
6
HIDDEN
10
0.614939
20
0.751254
30
0.0
11
0.614980
21
0.750686
31
0.0
0
LINE
8
LEFT_HID
6
HIDDEN
10
0.614980
20
0.750686
30
0.0
11
0.614999
21
0.750117
31
0.0
0
LINE
8
LEFT_HID
6
HIDDEN
10
0.614999
20
0.750117
30
0.0
11
0.614996
21
0.749547
31
0.0
0
LINE
8
LEFT_HID
6
HIDDEN
10
0.614996
20
0.749547
30
0.0
11
0.614971
21
0.748978
31
0.0
0
LINE
8
LEFT_HID
6
HIDDEN
10
0.614971
20
0.748978
30
0.0
11
0.614925
21
0.748410
31
0.0
0
LINE
8
LEFT_HID
6
HIDDEN
10
0.614925
20
0.748410
30
0.0
11
0.614858
21
0.747845
31
0.0
0
LINE
8
LEFT_HID
6
HIDDEN
10
0.614858
20
0.747845
30
0.0
11
0.614769
21
0.747282
31
0.0
0
LINE
8
LEFT_HID
6
HIDDEN
10
0.614769
20
0.747282
30
0.0
11
0.614658
21
0.746724
31
0.0
0
LINE
8
LEFT_HID
6
HIDDEN
10
0.614658
20
0.746724
30
0.0
11
0.614527
21
0.746169
31
0.0
0
LINE
8
LEFT_HID
6
HIDDEN
10
0.614527
20
0.746169
30
0.0
11
0.614375
21
0.745621
31
0.0
0
LINE
8
LEFT_HID
6
HIDDEN
10
0.614375
20
0.745621
30
0.0
11
0.614202
21
0.745078
31
0.0
0
LINE
8
LEFT_HID
6
HIDDEN
10
0.614202
20
0.745078
30
0.0
11
0.614008
21
0.744542
31
0.0
0
LINE
8
LEFT_HID
6
HIDDEN
10
0.614008
20
0.744542
30
0.0
11
0.613794
21
0.744014
31
0.0
0
LINE
8
LEFT_HID
6
HIDDEN
10
0.613794
20
0.744014
30
0.0
11
0.613561
21
0.743495
31
0.0
0
LINE
8
LEFT_HID
6
HIDDEN
10
0.613561
20
0.743495
30
0.0
11
0.613307
21
0.742985
31
0.0
0
LINE
8
LEFT_HID
6
HIDDEN
10
0.613307
20
0.742985
30
0.0
11
0.613035
21
0.742485
31
0.0
0
LINE
8
LEFT_HID
6
HIDDEN
10
0.613035
20
0.742485
30
0.0
11
0.612744
21
0.741995
31
0.0
0
LINE
8
LEFT_HID
6
HIDDEN
10
0.612744
20
0.741995
30
0.0
11
0.612434
21
0.741517
31
0.0
0
LINE
8
LEFT_HID
6
HIDDEN
10
0.612434
20
0.741517
30
0.0
11
0.612107
21
0.741051
31
0.0
0
LINE
8
LEFT_HID
6
HIDDEN
10
0.612107
20
0.741051
30
0.0
11
0.611762
21
0.740598
31
0.0
0
LINE
8
LEFT_HID
6
HIDDEN
10
0.611762
20
0.740598
30
0.0
11
0.611400
21
0.740158
31
0.0
0
LINE
8
LEFT_HID
6
HIDDEN
10
0.611400
20
0.740158
30
0.0
11
0.611022
21
0.739732
31
0.0
0
LINE
8
LEFT_HID
6
HIDDEN
10
0.611022
20
0.739732
30
0.0
11
0.610628
21
0.739321
31
0.0
0
LINE
8
LEFT_HID
6
HIDDEN
10
0.610628
20
0.739321
30
0.0
11
0.610218
21
0.738925
31
0.0
0
LINE
8
LEFT_HID
6
HIDDEN
10
0.609071
20
0.737960
30
0.0
11
0.608947
21
0.737867
31
0.0
0
LINE
8
LEFT_HID
6
HIDDEN
10
0.608947
20
0.737867
30
0.0
11
0.608823
21
0.737776
31
0.0
0
LINE
8
LEFT_HID
6
HIDDEN
10
0.608823
20
0.737776
30
0.0
11
0.608697
21
0.737685
31
0.0
0
LINE
8
LEFT_HID
6
HIDDEN
10
0.608697
20
0.737685
30
0.0
11
0.608571
21
0.737596
31
0.0
0
LINE
8
LEFT_HID
6
HIDDEN
10
0.608571
20
0.737596
30
0.0
11
0.608443
21
0.737509
31
0.0
0
LINE
8
LEFT_HID
6
HIDDEN
10
0.608443
20
0.737509
30
0.0
11
0.608315
21
0.737422
31
0.0
0
LINE
8
LEFT_HID
6
HIDDEN
10
0.608315
20
0.737422
30
0.0
11
0.608186
21
0.737337
31
0.0
0
LINE
8
LEFT_HID
6
HIDDEN
10
0.608186
20
0.737337
30
0.0
11
0.608056
21
0.737254
31
0.0
0
LINE
8
LEFT_HID
6
HIDDEN
10
0.608056
20
0.737254
30
0.0
11
0.607925
21
0.737171
31
0.0
0
LINE
8
LEFT_HID
6
HIDDEN
10
0.607925
20
0.737171
30
0.0
11
0.607793
21
0.737090
31
0.0
0
LINE
8
LEFT_HID
6
HIDDEN
10
0.607793
20
0.737090
30
0.0
11
0.607661
21
0.737011
31
0.0
0
LINE
8
LEFT_HID
6
HIDDEN
10
0.607661
20
0.737011
30
0.0
11
0.607527
21
0.736932
31
0.0
0
LINE
8
LEFT_HID
6
HIDDEN
10
0.607527
20
0.736932
30
0.0
11
0.607393
21
0.736855
31
0.0
0
LINE
8
LEFT_HID
6
HIDDEN
10
0.607393
20
0.736855
30
0.0
11
0.607258
21
0.736780
31
0.0
0
LINE
8
LEFT_HID
6
HIDDEN
10
0.607258
20
0.736780
30
0.0
11
0.607123
21
0.736706
31
0.0
0
LINE
8
LEFT_HID
6
HIDDEN
10
0.607123
20
0.736706
30
0.0
11
0.606986
21
0.736633
31
0.0
0
LINE
8
LEFT_HID
6
HIDDEN
10
0.606986
20
0.736633
30
0.0
11
0.606849
21
0.736562
31
0.0
0
LINE
8
LEFT_HID
6
HIDDEN
10
0.606849
20
0.736562
30
0.0
11
0.606711
21
0.736492
31
0.0
0
LINE
8
LEFT_HID
6
HIDDEN
10
0.606711
20
0.736492
30
0.0
11
0.606572
21
0.736423
31
0.0
0
LINE
8
LEFT_HID
6
HIDDEN
10
0.606572
20
0.736423
30
0.0
11
0.606433
21
0.736356
31
0.0
0
LINE
8
LEFT_HID
6
HIDDEN
10
0.606433
20
0.736356
30
0.0
11
0.606293
21
0.736291
31
0.0
0
LINE
8
LEFT_HID
6
HIDDEN
10
0.606293
20
0.736291
30
0.0
11
0.606152
21
0.736227
31
0.0
0
LINE
8
LEFT_HID
6
HIDDEN
10
0.606152
20
0.736227
30
0.0
11
0.606011
21
0.736164
31
0.0
0
LINE
8
LEFT_HID
6
HIDDEN
10
0.606011
20
0.736164
30
0.0
11
0.605869
21
0.736103
31
0.0
0
LINE
8
LEFT_HID
6
HIDDEN
10
0.605869
20
0.736103
30
0.0
11
0.605727
21
0.736043
31
0.0
0
LINE
8
LEFT_HID
6
HIDDEN
10
0.605727
20
0.736043
30
0.0
11
0.605583
21
0.735985
31
0.0
0
LINE
8
LEFT_HID
6
HIDDEN
10
0.605583
20
0.735985
30
0.0
11
0.605440
21
0.735928
31
0.0
0
LINE
8
LEFT_HID
6
HIDDEN
10
0.605440
20
0.735928
30
0.0
11
0.605295
21
0.735872
31
0.0
0
LINE
8
LEFT_HID
6
HIDDEN
10
0.605295
20
0.735872
30
0.0
11
0.605150
21
0.735819
31
0.0
0
LINE
8
LEFT_HID
6
HIDDEN
10
0.605150
20
0.735819
30
0.0
11
0.605005
21
0.735766
31
0.0
0
LINE
8
LEFT_HID
6
HIDDEN
10
0.605005
20
0.735766
30
0.0
11
0.604859
21
0.735715
31
0.0
0
LINE
8
LEFT_HID
6
HIDDEN
10
0.604859
20
0.735715
30
0.0
11
0.604712
21
0.735666
31
0.0
0
LINE
8
LEFT_HID
6
HIDDEN
10
0.604712
20
0.735666
30
0.0
11
0.604565
21
0.735618
31
0.0
0
LINE
8
LEFT_HID
6
HIDDEN
10
0.604565
20
0.735618
30
0.0
11
0.604418
21
0.735572
31
0.0
0
LINE
8
LEFT_HID
6
HIDDEN
10
0.604418
20
0.735572
30
0.0
11
0.604270
21
0.735527
31
0.0
0
LINE
8
LEFT_HID
6
HIDDEN
10
0.604270
20
0.735527
30
0.0
11
0.604121
21
0.735484
31
0.0
0
LINE
8
LEFT_HID
6
HIDDEN
10
0.604121
20
0.735484
30
0.0
11
0.603972
21
0.735442
31
0.0
0
LINE
8
LEFT_HID
6
HIDDEN
10
0.603972
20
0.735442
30
0.0
11
0.603823
21
0.735402
31
0.0
0
LINE
8
LEFT_HID
6
HIDDEN
10
0.603823
20
0.735402
30
0.0
11
0.603673
21
0.735363
31
0.0
0
LINE
8
LEFT_HID
6
HIDDEN
10
0.603673
20
0.735363
30
0.0
11
0.603523
21
0.735326
31
0.0
0
LINE
8
LEFT_HID
6
HIDDEN
10
0.603523
20
0.735326
30
0.0
11
0.603373
21
0.735291
31
0.0
0
LINE
8
LEFT_HID
6
HIDDEN
10
0.603373
20
0.735291
30
0.0
11
0.603222
21
0.735257
31
0.0
0
LINE
8
LEFT_HID
6
HIDDEN
10
0.603222
20
0.735257
30
0.0
11
0.603071
21
0.735224
31
0.0
0
LINE
8
LEFT_HID
6
HIDDEN
10
0.603071
20
0.735224
30
0.0
11
0.602919
21
0.735194
31
0.0
0
LINE
8
LEFT_HID
6
HIDDEN
10
0.602919
20
0.735194
30
0.0
11
0.602767
21
0.735164
31
0.0
0
LINE
8
LEFT_HID
6
HIDDEN
10
0.602767
20
0.735164
30
0.0
11
0.602615
21
0.735136
31
0.0
0
LINE
8
LEFT_HID
6
HIDDEN
10
0.602615
20
0.735136
30
0.0
11
0.602463
21
0.735110
31
0.0
0
LINE
8
LEFT_HID
6
HIDDEN
10
0.602463
20
0.735110
30
0.0
11
0.602310
21
0.735086
31
0.0
0
LINE
8
LEFT_HID
6
HIDDEN
10
0.602310
20
0.735086
30
0.0
11
0.602157
21
0.735063
31
0.0
0
LINE
8
LEFT_HID
6
HIDDEN
10
0.602157
20
0.735063
30
0.0
11
0.602004
21
0.735041
31
0.0
0
LINE
8
LEFT_HID
6
HIDDEN
10
0.602004
20
0.735041
30
0.0
11
0.601851
21
0.735021
31
0.0
0
LINE
8
LEFT_HID
6
HIDDEN
10
0.601851
20
0.735021
30
0.0
11
0.601697
21
0.735003
31
0.0
0
LINE
8
LEFT_HID
6
HIDDEN
10
0.601697
20
0.735003
30
0.0
11
0.601543
21
0.734986
31
0.0
0
LINE
8
LEFT_HID
6
HIDDEN
10
0.601543
20
0.734986
30
0.0
11
0.601390
21
0.734971
31
0.0
0
LINE
8
LEFT_HID
6
HIDDEN
10
0.601390
20
0.734971
30
0.0
11
0.601236
21
0.734958
31
0.0
0
LINE
8
LEFT_HID
6
HIDDEN
10
0.601236
20
0.734958
30
0.0
11
0.601081
21
0.734946
31
0.0
0
LINE
8
LEFT_HID
6
HIDDEN
10
0.601081
20
0.734946
30
0.0
11
0.600927
21
0.734935
31
0.0
0
LINE
8
LEFT_HID
6
HIDDEN
10
0.600927
20
0.734935
30
0.0
11
0.600773
21
0.734927
31
0.0
0
LINE
8
LEFT_HID
6
HIDDEN
10
0.600773
20
0.734927
30
0.0
11
0.600618
21
0.734920
31
0.0
0
LINE
8
LEFT_HID
6
HIDDEN
10
0.600618
20
0.734920
30
0.0
11
0.600464
21
0.734914
31
0.0
0
LINE
8
LEFT_HID
6
HIDDEN
10
0.600464
20
0.734914
30
0.0
11
0.600309
21
0.734910
31
0.0
0
LINE
8
LEFT_HID
6
HIDDEN
10
0.600309
20
0.734910
30
0.0
11
0.600155
21
0.734908
31
0.0
0
LINE
8
LEFT_HID
6
HIDDEN
10
0.600155
20
0.734908
30
0.0
11
0.600000
21
0.734907
31
0.0
0
LINE
8
LEFT_HID
6
HIDDEN
10
0.600000
20
0.449907
30
0.0
11
0.459000
21
0.449907
31
0.0
0
LINE
8
LEFT_HID
6
HIDDEN
10
0.459000
20
0.449907
30
0.0
11
0.741000
21
0.449907
31
0.0
0
LINE
8
LEFT_HID
6
HIDDEN
10
0.741000
20
0.449907
30
0.0
11
0.600000
21
0.449907
31
0.0
0
LINE
8
LEFT_HID
6
HIDDEN
10
0.600000
20
1.199907
30
0.0
11
0.459000
21
1.199907
31
0.0
0
LINE
8
LEFT_HID
6
HIDDEN
10
0.459000
20
1.199907
30
0.0
11
0.741000
21
1.199907
31
0.0
0
LINE
8
LEFT_HID
6
HIDDEN
10
0.741000
20
1.199907
30
0.0
11
0.600000
21
1.199907
31
0.0
0
LINE
8
LEFT_HID
6
HIDDEN
10
0.600000
20
0.764907
30
0.0
11
0.600613
21
0.764894
31
0.0
0
LINE
8
LEFT_HID
6
HIDDEN
10
0.600613
20
0.764894
30
0.0
11
0.601224
21
0.764857
31
0.0
0
LINE
8
LEFT_HID
6
HIDDEN
10
0.601224
20
0.764857
30
0.0
11
0.601834
21
0.764794
31
0.0
0
LINE
8
LEFT_HID
6
HIDDEN
10
0.601834
20
0.764794
30
0.0
11
0.602440
21
0.764707
31
0.0
0
LINE
8
LEFT_HID
6
HIDDEN
10
0.602440
20
0.764707
30
0.0
11
0.603042
21
0.764595
31
0.0
0
LINE
8
LEFT_HID
6
HIDDEN
10
0.603042
20
0.764595
30
0.0
11
0.603640
21
0.764459
31
0.0
0
LINE
8
LEFT_HID
6
HIDDEN
10
0.603640
20
0.764459
30
0.0
11
0.604231
21
0.764298
31
0.0
0
LINE
8
LEFT_HID
6
HIDDEN
10
0.604231
20
0.764298
30
0.0
11
0.604815
21
0.764113
31
0.0
0
LINE
8
LEFT_HID
6
HIDDEN
10
0.604815
20
0.764113
30
0.0
11
0.605391
21
0.763904
31
0.0
0
LINE
8
LEFT_HID
6
HIDDEN
10
0.605391
20
0.763904
30
0.0
11
0.605958
21
0.763673
31
0.0
0
LINE
8
LEFT_HID
6
HIDDEN
10
0.605958
20
0.763673
30
0.0
11
0.606515
21
0.763418
31
0.0
0
LINE
8
LEFT_HID
6
HIDDEN
10
0.606515
20
0.763418
30
0.0
11
0.607062
21
0.763140
31
0.0
0
LINE
8
LEFT_HID
6
HIDDEN
10
0.607062
20
0.763140
30
0.0
11
0.607596
21
0.762841
31
0.0
0
LINE
8
LEFT_HID
6
HIDDEN
10
0.607596
20
0.762841
30
0.0
11
0.608118
21
0.762520
31
0.0
0
LINE
8
LEFT_HID
6
HIDDEN
10
0.608118
20
0.762520
30
0.0
11
0.608626
21
0.762178
31
0.0
0
LINE
8
LEFT_HID
6
HIDDEN
10
0.608626
20
0.762178
30
0.0
11
0.609120
21
0.761816
31
0.0
0
LINE
8
LEFT_HID
6
HIDDEN
10
0.609120
20
0.761816
30
0.0
11
0.609599
21
0.761433
31
0.0
0
LINE
8
LEFT_HID
6
HIDDEN
10
0.609599
20
0.761433
30
0.0
11
0.610062
21
0.761032
31
0.0
0
LINE
8
LEFT_HID
6
HIDDEN
10
0.610062
20
0.761032
30
0.0
11
0.610508
21
0.760611
31
0.0
0
LINE
8
LEFT_HID
6
HIDDEN
10
0.610508
20
0.760611
30
0.0
11
0.610936
21
0.760173
31
0.0
0
LINE
8
LEFT_HID
6
HIDDEN
10
0.610936
20
0.760173
30
0.0
11
0.611346
21
0.759718
31
0.0
0
LINE
8
LEFT_HID
6
HIDDEN
10
0.611346
20
0.759718
30
0.0
11
0.611737
21
0.759247
31
0.0
0
LINE
8
LEFT_HID
6
HIDDEN
10
0.611737
20
0.759247
30
0.0
11
0.612109
21
0.758760
31
0.0
0
LINE
8
LEFT_HID
6
HIDDEN
10
0.612109
20
0.758760
30
0.0
11
0.612460
21
0.758258
31
0.0
0
LINE
8
LEFT_HID
6
HIDDEN
10
0.612460
20
0.758258
30
0.0
11
0.612791
21
0.757742
31
0.0
0
LINE
8
LEFT_HID
6
HIDDEN
10
0.612791
20
0.757742
30
0.0
11
0.613100
21
0.757213
31
0.0
0
LINE
8
LEFT_HID
6
HIDDEN
10
0.613100
20
0.757213
30
0.0
11
0.613388
21
0.756672
31
0.0
0
LINE
8
LEFT_HID
6
HIDDEN
10
0.613388
20
0.756672
30
0.0
11
0.613653
21
0.756120
31
0.0
0
LINE
8
LEFT_HID
6
HIDDEN
10
0.613653
20
0.756120
30
0.0
11
0.613895
21
0.755557
31
0.0
0
LINE
8
LEFT_HID
6
HIDDEN
10
0.613895
20
0.755557
30
0.0
11
0.614114
21
0.754985
31
0.0
0
LINE
8
LEFT_HID
6
HIDDEN
10
0.614114
20
0.754985
30
0.0
11
0.614310
21
0.754404
31
0.0
0
LINE
8
LEFT_HID
6
HIDDEN
10
0.614310
20
0.754404
30
0.0
11
0.614482
21
0.753816
31
0.0
0
LINE
8
LEFT_HID
6
HIDDEN
10
0.614482
20
0.753816
30
0.0
11
0.614629
21
0.753221
31
0.0
0
LINE
8
LEFT_HID
6
HIDDEN
10
0.614629
20
0.753221
30
0.0
11
0.614752
21
0.752621
31
0.0
0
LINE
8
LEFT_HID
6
HIDDEN
10
0.614752
20
0.752621
30
0.0
11
0.614851
21
0.752017
31
0.0
0
LINE
8
LEFT_HID
6
HIDDEN
10
0.614851
20
0.752017
30
0.0
11
0.614925
21
0.751408
31
0.0
0
LINE
8
LEFT_HID
6
HIDDEN
10
0.614925
20
0.751408
30
0.0
11
0.614974
21
0.750798
31
0.0
0
LINE
8
LEFT_HID
6
HIDDEN
10
0.614974
20
0.750798
30
0.0
11
0.614997
21
0.750185
31
0.0
0
LINE
8
LEFT_HID
6
HIDDEN
10
0.614997
20
0.750185
30
0.0
11
0.614996
21
0.749573
31
0.0
0
LINE
8
LEFT_HID
6
HIDDEN
10
0.614996
20
0.749573
30
0.0
11
0.614970
21
0.748961
31
0.0
0
LINE
8
LEFT_HID
6
HIDDEN
10
0.614970
20
0.748961
30
0.0
11
0.614919
21
0.748350
31
0.0
0
LINE
8
LEFT_HID
6
HIDDEN
10
0.614919
20
0.748350
30
0.0
11
0.614843
21
0.747742
31
0.0
0
LINE
8
LEFT_HID
6
HIDDEN
10
0.614843
20
0.747742
30
0.0
11
0.614742
21
0.747138
31
0.0
0
LINE
8
LEFT_HID
6
HIDDEN
10
0.614742
20
0.747138
30
0.0
11
0.614617
21
0.746538
31
0.0
0
LINE
8
LEFT_HID
6
HIDDEN
10
0.614617
20
0.746538
30
0.0
11
0.614467
21
0.745944
31
0.0
0
LINE
8
LEFT_HID
6
HIDDEN
10
0.614467
20
0.745944
30
0.0
11
0.614293
21
0.745356
31
0.0
0
LINE
8
LEFT_HID
6
HIDDEN
10
0.614293
20
0.745356
30
0.0
11
0.614095
21
0.744777
31
0.0
0
LINE
8
LEFT_HID
6
HIDDEN
10
0.614095
20
0.744777
30
0.0
11
0.613874
21
0.744205
31
0.0
0
LINE
8
LEFT_HID
6
HIDDEN
10
0.613874
20
0.744205
30
0.0
11
0.613630
21
0.743643
31
0.0
0
LINE
8
LEFT_HID
6
HIDDEN
10
0.613630
20
0.743643
30
0.0
11
0.613363
21
0.743092
31
0.0
0
LINE
8
LEFT_HID
6
HIDDEN
10
0.613363
20
0.743092
30
0.0
11
0.613073
21
0.742552
31
0.0
0
LINE
8
LEFT_HID
6
HIDDEN
10
0.613073
20
0.742552
30
0.0
11
0.612762
21
0.742024
31
0.0
0
LINE
8
LEFT_HID
6
HIDDEN
10
0.612762
20
0.742024
30
0.0
11
0.612429
21
0.741510
31
0.0
0
LINE
8
LEFT_HID
6
HIDDEN
10
0.612429
20
0.741510
30
0.0
11
0.612076
21
0.741009
31
0.0
0
LINE
8
LEFT_HID
6
HIDDEN
10
0.612076
20
0.741009
30
0.0
11
0.611703
21
0.740523
31
0.0
0
LINE
8
LEFT_HID
6
HIDDEN
10
0.611703
20
0.740523
30
0.0
11
0.611310
21
0.740053
31
0.0
0
LINE
8
LEFT_HID
6
HIDDEN
10
0.611310
20
0.740053
30
0.0
11
0.610898
21
0.739600
31
0.0
0
LINE
8
LEFT_HID
6
HIDDEN
10
0.610898
20
0.739600
30
0.0
11
0.610468
21
0.739163
31
0.0
0
LINE
8
LEFT_HID
6
HIDDEN
10
0.610468
20
0.739163
30
0.0
11
0.610021
21
0.738745
31
0.0
0
LINE
8
LEFT_HID
6
HIDDEN
10
0.610021
20
0.738745
30
0.0
11
0.609556
21
0.738345
31
0.0
0
LINE
8
LEFT_HID
6
HIDDEN
10
0.609556
20
0.738345
30
0.0
11
0.609076
21
0.737964
31
0.0
0
LINE
8
LEFT_HID
6
HIDDEN
10
0.609076
20
0.737964
30
0.0
11
0.608581
21
0.737604
31
0.0
0
LINE
8
LEFT_HID
6
HIDDEN
10
0.608581
20
0.737604
30
0.0
11
0.608071
21
0.737263
31
0.0
0
LINE
8
LEFT_HID
6
HIDDEN
10
0.606994
20
0.736637
30
0.0
11
0.606564
21
0.736419
31
0.0
0
LINE
8
LEFT_HID
6
HIDDEN
10
0.606564
20
0.736419
30
0.0
11
0.606128
21
0.736215
31
0.0
0
LINE
8
LEFT_HID
6
HIDDEN
10
0.606128
20
0.736215
30
0.0
11
0.605685
21
0.736026
31
0.0
0
LINE
8
LEFT_HID
6
HIDDEN
10
0.605685
20
0.736026
30
0.0
11
0.605236
21
0.735850
31
0.0
0
LINE
8
LEFT_HID
6
HIDDEN
10
0.605236
20
0.735850
30
0.0
11
0.604781
21
0.735689
31
0.0
0
LINE
8
LEFT_HID
6
HIDDEN
10
0.604781
20
0.735689
30
0.0
11
0.604322
21
0.735543
31
0.0
0
LINE
8
LEFT_HID
6
HIDDEN
10
0.604322
20
0.735543
30
0.0
11
0.603858
21
0.735411
31
0.0
0
LINE
8
LEFT_HID
6
HIDDEN
10
0.603858
20
0.735411
30
0.0
11
0.603391
21
0.735295
31
0.0
0
LINE
8
LEFT_HID
6
HIDDEN
10
0.603391
20
0.735295
30
0.0
11
0.602919
21
0.735194
31
0.0
0
LINE
8
LEFT_HID
6
HIDDEN
10
0.602919
20
0.735194
30
0.0
11
0.602445
21
0.735107
31
0.0
0
LINE
8
LEFT_HID
6
HIDDEN
10
0.602445
20
0.735107
30
0.0
11
0.601968
21
0.735036
31
0.0
0
LINE
8
LEFT_HID
6
HIDDEN
10
0.601968
20
0.735036
30
0.0
11
0.601490
21
0.734981
31
0.0
0
LINE
8
LEFT_HID
6
HIDDEN
10
0.601490
20
0.734981
30
0.0
11
0.601009
21
0.734941
31
0.0
0
LINE
8
LEFT_HID
6
HIDDEN
10
0.601009
20
0.734941
30
0.0
11
0.600528
21
0.734916
31
0.0
0
LINE
8
LEFT_HID
6
HIDDEN
10
0.600528
20
0.734916
30
0.0
11
0.600046
21
0.734907
31
0.0
0
LINE
8
LEFT_HID
6
HIDDEN
10
0.600046
20
0.734907
30
0.0
11
0.599564
21
0.734913
31
0.0
0
LINE
8
LEFT_HID
6
HIDDEN
10
0.599564
20
0.734913
30
0.0
11
0.599083
21
0.734935
31
0.0
0
LINE
8
LEFT_HID
6
HIDDEN
10
0.599083
20
0.734935
30
0.0
11
0.598602
21
0.734972
31
0.0
0
LINE
8
LEFT_HID
6
HIDDEN
10
0.598602
20
0.734972
30
0.0
11
0.598123
21
0.735025
31
0.0
0
LINE
8
LEFT_HID
6
HIDDEN
10
0.598123
20
0.735025
30
0.0
11
0.597646
21
0.735093
31
0.0
0
LINE
8
LEFT_HID
6
HIDDEN
10
0.597646
20
0.735093
30
0.0
11
0.597171
21
0.735176
31
0.0
0
LINE
8
LEFT_HID
6
HIDDEN
10
0.597171
20
0.735176
30
0.0
11
0.596699
21
0.735274
31
0.0
0
LINE
8
LEFT_HID
6
HIDDEN
10
0.596699
20
0.735274
30
0.0
11
0.596231
21
0.735388
31
0.0
0
LINE
8
LEFT_HID
6
HIDDEN
10
0.596231
20
0.735388
30
0.0
11
0.595766
21
0.735517
31
0.0
0
LINE
8
LEFT_HID
6
HIDDEN
10
0.595766
20
0.735517
30
0.0
11
0.595306
21
0.735660
31
0.0
0
LINE
8
LEFT_HID
6
HIDDEN
10
0.595306
20
0.735660
30
0.0
11
0.594851
21
0.735818
31
0.0
0
LINE
8
LEFT_HID
6
HIDDEN
10
0.594851
20
0.735818
30
0.0
11
0.594401
21
0.735991
31
0.0
0
LINE
8
LEFT_HID
6
HIDDEN
10
0.594401
20
0.735991
30
0.0
11
0.593956
21
0.736178
31
0.0
0
LINE
8
LEFT_HID
6
HIDDEN
10
0.593956
20
0.736178
30
0.0
11
0.593518
21
0.736379
31
0.0
0
LINE
8
LEFT_HID
6
HIDDEN
10
0.593518
20
0.736379
30
0.0
11
0.593087
21
0.736595
31
0.0
0
LINE
8
LEFT_HID
6
HIDDEN
10
0.593087
20
0.736595
30
0.0
11
0.592663
21
0.736824
31
0.0
0
LINE
8
LEFT_HID
6
HIDDEN
10
0.592663
20
0.736824
30
0.0
11
0.592246
21
0.737066
31
0.0
0
LINE
8
LEFT_HID
6
HIDDEN
10
0.592246
20
0.737066
30
0.0
11
0.591838
21
0.737322
31
0.0
0
LINE
8
LEFT_HID
6
HIDDEN
10
0.591838
20
0.737322
30
0.0
11
0.591438
21
0.737591
31
0.0
0
LINE
8
LEFT_HID
6
HIDDEN
10
0.591438
20
0.737591
30
0.0
11
0.591046
21
0.737872
31
0.0
0
LINE
8
LEFT_HID
6
HIDDEN
10
0.591046
20
0.737872
30
0.0
11
0.590664
21
0.738166
31
0.0
0
LINE
8
LEFT_HID
6
HIDDEN
10
0.590664
20
0.738166
30
0.0
11
0.590292
21
0.738472
31
0.0
0
LINE
8
LEFT_HID
6
HIDDEN
10
0.590292
20
0.738472
30
0.0
11
0.589930
21
0.738790
31
0.0
0
LINE
8
LEFT_HID
6
HIDDEN
10
0.589930
20
0.738790
30
0.0
11
0.589578
21
0.739119
31
0.0
0
LINE
8
LEFT_HID
6
HIDDEN
10
0.589578
20
0.739119
30
0.0
11
0.589236
21
0.739459
31
0.0
0
LINE
8
LEFT_HID
6
HIDDEN
10
0.589236
20
0.739459
30
0.0
11
0.588906
21
0.739811
31
0.0
0
LINE
8
LEFT_HID
6
HIDDEN
10
0.588906
20
0.739811
30
0.0
11
0.588588
21
0.740172
31
0.0
0
LINE
8
LEFT_HID
6
HIDDEN
10
0.588588
20
0.740172
30
0.0
11
0.588281
21
0.740544
31
0.0
0
LINE
8
LEFT_HID
6
HIDDEN
10
0.588281
20
0.740544
30
0.0
11
0.587986
21
0.740925
31
0.0
0
LINE
8
LEFT_HID
6
HIDDEN
10
0.587986
20
0.740925
30
0.0
11
0.587704
21
0.741316
31
0.0
0
LINE
8
LEFT_HID
6
HIDDEN
10
0.587704
20
0.741316
30
0.0
11
0.587434
21
0.741716
31
0.0
0
LINE
8
LEFT_HID
6
HIDDEN
10
0.587434
20
0.741716
30
0.0
11
0.587177
21
0.742124
31
0.0
0
LINE
8
LEFT_HID
6
HIDDEN
10
0.587177
20
0.742124
30
0.0
11
0.586934
21
0.742540
31
0.0
0
LINE
8
LEFT_HID
6
HIDDEN
10
0.586934
20
0.742540
30
0.0
11
0.586704
21
0.742963
31
0.0
0
LINE
8
LEFT_HID
6
HIDDEN
10
0.586704
20
0.742963
30
0.0
11
0.586488
21
0.743394
31
0.0
0
LINE
8
LEFT_HID
6
HIDDEN
10
0.586488
20
0.743394
30
0.0
11
0.586285
21
0.743831
31
0.0
0
LINE
8
LEFT_HID
6
HIDDEN
10
0.586285
20
0.743831
30
0.0
11
0.586097
21
0.744275
31
0.0
0
LINE
8
LEFT_HID
6
HIDDEN
10
0.586097
20
0.744275
30
0.0
11
0.585924
21
0.744725
31
0.0
0
LINE
8
LEFT_HID
6
HIDDEN
10
0.585924
20
0.744725
30
0.0
11
0.585764
21
0.745180
31
0.0
0
LINE
8
LEFT_HID
6
HIDDEN
10
0.585764
20
0.745180
30
0.0
11
0.585620
21
0.745640
31
0.0
0
LINE
8
LEFT_HID
6
HIDDEN
10
0.585620
20
0.745640
30
0.0
11
0.585490
21
0.746104
31
0.0
0
LINE
8
LEFT_HID
6
HIDDEN
10
0.585490
20
0.746104
30
0.0
11
0.585375
21
0.746572
31
0.0
0
LINE
8
LEFT_HID
6
HIDDEN
10
0.585375
20
0.746572
30
0.0
11
0.585276
21
0.747044
31
0.0
0
LINE
8
LEFT_HID
6
HIDDEN
10
0.585276
20
0.747044
30
0.0
11
0.585191
21
0.747518
31
0.0
0
LINE
8
LEFT_HID
6
HIDDEN
10
0.585191
20
0.747518
30
0.0
11
0.585122
21
0.747995
31
0.0
0
LINE
8
LEFT_HID
6
HIDDEN
10
0.585122
20
0.747995
30
0.0
11
0.585069
21
0.748474
31
0.0
0
LINE
8
LEFT_HID
6
HIDDEN
10
0.585069
20
0.748474
30
0.0
11
0.585030
21
0.748955
31
0.0
0
LINE
8
LEFT_HID
6
HIDDEN
10
0.585030
20
0.748955
30
0.0
11
0.585007
21
0.749436
31
0.0
0
LINE
8
LEFT_HID
6
HIDDEN
10
0.598426
20
0.764824
30
0.0
11
0.599990
21
0.764907
31
0.0
0
LINE
8
LEFT_HID
6
HIDDEN
10
0.459000
20
1.199907
30
0.0
11
0.459000
21
0.449907
31
0.0
0
LINE
8
LEFT_HID
6
HIDDEN
10
0.741000
20
1.199907
30
0.0
11
0.741000
21
0.449907
31
0.0
0
LINE
8
TOP
10
0.300000
20
0.149953
30
0.0
11
0.300000
21
0.149735
31
0.0
0
LINE
8
TOP
10
0.300000
20
0.149735
30
0.0
11
0.299999
21
0.149516
31
0.0
0
LINE
8
TOP
10
0.299999
20
0.149516
30
0.0
11
0.299999
21
0.149297
31
0.0
0
LINE
8
TOP
10
0.299999
20
0.149297
30
0.0
11
0.299997
21
0.149079
31
0.0
0
LINE
8
TOP
10
0.299997
20
0.149079
30
0.0
11
0.299996
21
0.148860
31
0.0
0
LINE
8
TOP
10
0.299996
20
0.148860
30
0.0
11
0.299994
21
0.148642
31
0.0
0
LINE
8
TOP
10
0.299994
20
0.148642
30
0.0
11
0.299992
21
0.148423
31
0.0
0
LINE
8
TOP
10
0.299992
20
0.148423
30
0.0
11
0.299990
21
0.148204
31
0.0
0
LINE
8
TOP
10
0.299990
20
0.148204
30
0.0
11
0.299987
21
0.147986
31
0.0
0
LINE
8
TOP
10
0.299987
20
0.147986
30
0.0
11
0.299984
21
0.147767
31
0.0
0
LINE
8
TOP
10
0.299984
20
0.147767
30
0.0
11
0.299981
21
0.147548
31
0.0
0
LINE
8
TOP
10
0.299981
20
0.147548
30
0.0
11
0.299977
21
0.147330
31
0.0
0
LINE
8
TOP
10
0.299977
20
0.147330
30
0.0
11
0.299973
21
0.147111
31
0.0
0
LINE
8
TOP
10
0.299973
20
0.147111
30
0.0
11
0.299969
21
0.146893
31
0.0
0
LINE
8
TOP
10
0.299969
20
0.146893
30
0.0
11
0.299964
21
0.146674
31
0.0
0
LINE
8
TOP
10
0.299964
20
0.146674
30
0.0
11
0.299959
21
0.146455
31
0.0
0
LINE
8
TOP
10
0.299959
20
0.146455
30
0.0
11
0.299954
21
0.146237
31
0.0
0
LINE
8
TOP
10
0.299954
20
0.146237
30
0.0
11
0.299948
21
0.146018
31
0.0
0
LINE
8
TOP
10
0.299948
20
0.146018
30
0.0
11
0.299942
21
0.145800
31
0.0
0
LINE
8
TOP
10
0.299942
20
0.145800
30
0.0
11
0.299936
21
0.145581
31
0.0
0
LINE
8
TOP
10
0.299936
20
0.145581
30
0.0
11
0.299930
21
0.145363
31
0.0
0
LINE
8
TOP
10
0.299930
20
0.145363
30
0.0
11
0.299923
21
0.145144
31
0.0
0
LINE
8
TOP
10
0.299923
20
0.145144
30
0.0
11
0.299916
21
0.144926
31
0.0
0
LINE
8
TOP
10
0.299916
20
0.144926
30
0.0
11
0.299908
21
0.144707
31
0.0
0
LINE
8
TOP
10
0.299908
20
0.144707
30
0.0
11
0.299900
21
0.144489
31
0.0
0
LINE
8
TOP
10
0.299900
20
0.144489
30
0.0
11
0.299892
21
0.144270
31
0.0
0
LINE
8
TOP
10
0.299892
20
0.144270
30
0.0
11
0.299884
21
0.144052
31
0.0
0
LINE
8
TOP
10
0.299884
20
0.144052
30
0.0
11
0.299875
21
0.143833
31
0.0
0
LINE
8
TOP
10
0.299875
20
0.143833
30
0.0
11
0.299866
21
0.143615
31
0.0
0
LINE
8
TOP
10
0.299866
20
0.143615
30
0.0
11
0.299857
21
0.143396
31
0.0
0
LINE
8
TOP
10
0.299857
20
0.143396
30
0.0
11
0.299847
21
0.143178
31
0.0
0
LINE
8
TOP
10
0.299847
20
0.143178
30
0.0
11
0.299837
21
0.142959
31
0.0
0
LINE
8
TOP
10
0.299837
20
0.142959
30
0.0
11
0.299827
21
0.142741
31
0.0
0
LINE
8
TOP
10
0.299827
20
0.142741
30
0.0
11
0.299816
21
0.142523
31
0.0
0
LINE
8
TOP
10
0.299816
20
0.142523
30
0.0
11
0.299805
21
0.142304
31
0.0
0
LINE
8
TOP
10
0.299805
20
0.142304
30
0.0
11
0.299794
21
0.142086
31
0.0
0
LINE
8
TOP
10
0.299794
20
0.142086
30
0.0
11
0.299782
21
0.141868
31
0.0
0
LINE
8
TOP
10
0.299782
20
0.141868
30
0.0
11
0.299770
21
0.141649
31
0.0
0
LINE
8
TOP
10
0.299770
20
0.141649
30
0.0
11
0.299758
21
0.141431
31
0.0
0
LINE
8
TOP
10
0.299758
20
0.141431
30
0.0
11
0.299745
21
0.141213
31
0.0
0
LINE
8
TOP
10
0.299745
20
0.141213
30
0.0
11
0.299732
21
0.140994
31
0.0
0
LINE
8
TOP
10
0.299732
20
0.140994
30
0.0
11
0.299719
21
0.140776
31
0.0
0
LINE
8
TOP
10
0.299719
20
0.140776
30
0.0
11
0.299705
21
0.140558
31
0.0
0
LINE
8
TOP
10
0.299705
20
0.140558
30
0.0
11
0.299692
21
0.140340
31
0.0
0
LINE
8
TOP
10
0.299692
20
0.140340
30
0.0
11
0.299677
21
0.140122
31
0.0
0
LINE
8
TOP
10
0.299677
20
0.140122
30
0.0
11
0.299663
21
0.139903
31
0.0
0
LINE
8
TOP
10
0.299663
20
0.139903
30
0.0
11
0.299648
21
0.139685
31
0.0
0
LINE
8
TOP
10
0.299648
20
0.139685
30
0.0
11
0.299633
21
0.139467
31
0.0
0
LINE
8
TOP
10
0.299633
20
0.139467
30
0.0
11
0.299618
21
0.139249
31
0.0
0
LINE
8
TOP
10
0.299618
20
0.139249
30
0.0
11
0.299602
21
0.139031
31
0.0
0
LINE
8
TOP
10
0.299602
20
0.139031
30
0.0
11
0.299586
21
0.138813
31
0.0
0
LINE
8
TOP
10
0.299586
20
0.138813
30
0.0
11
0.299569
21
0.138595
31
0.0
0
LINE
8
TOP
10
0.299569
20
0.138595
30
0.0
11
0.299553
21
0.138377
31
0.0
0
LINE
8
TOP
10
0.299553
20
0.138377
30
0.0
11
0.299536
21
0.138159
31
0.0
0
LINE
8
TOP
10
0.299536
20
0.138159
30
0.0
11
0.299518
21
0.137941
31
0.0
0
LINE
8
TOP
10
0.299518
20
0.137941
30
0.0
11
0.299501
21
0.137723
31
0.0
0
LINE
8
TOP
10
0.299501
20
0.137723
30
0.0
11
0.299483
21
0.137505
31
0.0
0
LINE
8
TOP
10
0.299483
20
0.137505
30
0.0
11
0.299464
21
0.137287
31
0.0
0
LINE
8
TOP
10
0.299464
20
0.137287
30
0.0
11
0.299446
21
0.137069
31
0.0
0
LINE
8
TOP
10
0.299446
20
0.137069
30
0.0
11
0.299427
21
0.136852
31
0.0
0
LINE
8
TOP
10
0.299427
20
0.136852
30
0.0
11
0.299407
21
0.136634
31
0.0
0
LINE
8
TOP
10
0.299407
20
0.136634
30
0.0
11
0.299388
21
0.136416
31
0.0
0
LINE
8
TOP
10
0.299388
20
0.136416
30
0.0
11
0.299368
21
0.136198
31
0.0
0
LINE
8
TOP
10
0.300000
20
0.149953
30
0.0
11
0.299255
21
0.164889
31
0.0
0
LINE
8
TOP
10
0.299255
20
0.164889
30
0.0
11
0.297026
21
0.179675
31
0.0
0
LINE
8
TOP
10
0.297026
20
0.179675
30
0.0
11
0.293336
21
0.194167
31
0.0
0
LINE
8
TOP
10
0.293336
20
0.194167
30
0.0
11
0.288221
21
0.208219
31
0.0
0
LINE
8
TOP
10
0.288221
20
0.208219
30
0.0
11
0.281733
21
0.221691
31
0.0
0
LINE
8
TOP
10
0.281733
20
0.221691
30
0.0
11
0.273936
21
0.234451
31
0.0
0
LINE
8
TOP
10
0.273936
20
0.234451
30
0.0
11
0.264907
21
0.246372
31
0.0
0
LINE
8
TOP
10
0.264907
20
0.246372
30
0.0
11
0.254736
21
0.257333
31
0.0
0
LINE
8
TOP
10
0.254736
20
0.257333
30
0.0
11
0.243523
21
0.267228
31
0.0
0
LINE
8
TOP
10
0.243523
20
0.267228
30
0.0
11
0.231382
21
0.275957
31
0.0
0
LINE
8
TOP
10
0.231382
20
0.275957
30
0.0
11
0.218432
21
0.283434
31
0.0
0
LINE
8
TOP
10
0.218432
20
0.283434
30
0.0
11
0.204801
21
0.289584
31
0.0
0
LINE
8
TOP
10
0.204801
20
0.289584
30
0.0
11
0.190626
21
0.294347
31
0.0
0
LINE
8
TOP
10
0.190626
20
0.294347
30
0.0
11
0.176047
21
0.297675
31
0.0
0
LINE
8
TOP
10
0.176047
20
0.297675
30
0.0
11
0.161210
21
0.299534
31
0.0
0
LINE
8
TOP
10
0.161210
20
0.299534
30
0.0
11
0.146260
21
0.299907
31
0.0
0
LINE
8
TOP
10
0.146260
20
0.299907
30
0.0
11
0.131348
21
0.298789
31
0.0
0
LINE
8
TOP
10
0.131348
20
0.298789
30
0.0
11
0.116622
21
0.296193
31
0.0
0
LINE
8
TOP
10
0.116622
20
0.296193
30
0.0
11
0.102227
21
0.292142
31
0.0
0
LINE
8
TOP
10
0.102227
20
0.292142
30
0.0
11
0.088307
21
0.286679
31
0.0
0
LINE
8
TOP
10
0.088307
20
0.286679
30
0.0
11
0.075000
21
0.279857
31
0.0
0
LINE
8
TOP
10
0.075000
20
0.279857
30
0.0
11
0.062438
21
0.271744
31
0.0
0
LINE
8
TOP
10
0.062438
20
0.271744
30
0.0
11
0.050747
21
0.262421
31
0.0
0
LINE
8
TOP
10
0.050747
20
0.262421
30
0.0
11
0.040042
21
0.251979
31
0.0
0
LINE
8
TOP
10
0.040042
20
0.251979
30
0.0
11
0.030430
21
0.240524
31
0.0
0
LINE
8
TOP
10
0.030430
20
0.240524
30
0.0
11
0.022006
21
0.228169
31
0.0
0
LINE
8
TOP
10
0.022006
20
0.228169
30
0.0
11
0.014855
21
0.215036
31
0.0
0
LINE
8
TOP
10
0.014855
20
0.215036
30
0.0
11
0.009046
21
0.201256
31
0.0
0
LINE
8
TOP
10
0.009046
20
0.201256
30
0.0
11
0.004638
21
0.186967
31
0.0
0
LINE
8
TOP
10
0.004638
20
0.186967
30
0.0
11
0.001675
21
0.172310
31
0.0
0
LINE
8
TOP
10
0.001675
20
0.172310
30
0.0
11
0.000186
21
0.157430
31
0.0
0
LINE
8
TOP
10
0.000186
20
0.157430
30
0.0
11
0.000186
21
0.142476
31
0.0
0
LINE
8
TOP
10
0.000186
20
0.142476
30
0.0
11
0.001675
21
0.127597
31
0.0
0
LINE
8
TOP
10
0.001675
20
0.127597
30
0.0
11
0.004638
21
0.112940
31
0.0
0
LINE
8
TOP
10
0.004638
20
0.112940
30
0.0
11
0.009046
21
0.098650
31
0.0
0
LINE
8
TOP
10
0.009046
20
0.098650
30
0.0
11
0.014855
21
0.084871
31
0.0
0
LINE
8
TOP
10
0.014855
20
0.084871
30
0.0
11
0.022006
21
0.071738
31
0.0
0
LINE
8
TOP
10
0.022006
20
0.071738
30
0.0
11
0.030430
21
0.059383
31
0.0
0
LINE
8
TOP
10
0.030430
20
0.059383
30
0.0
11
0.040042
21
0.047927
31
0.0
0
LINE
8
TOP
10
0.040042
20
0.047927
30
0.0
11
0.050747
21
0.037486
31
0.0
0
LINE
8
TOP
10
0.050747
20
0.037486
30
0.0
11
0.062438
21
0.028163
31
0.0
0
LINE
8
TOP
10
0.062438
20
0.028163
30
0.0
11
0.075000
21
0.020050
31
0.0
0
LINE
8
TOP
10
0.075000
20
0.020050
30
0.0
11
0.088307
21
0.013227
31
0.0
0
LINE
8
TOP
10
0.088307
20
0.013227
30
0.0
11
0.102227
21
0.007764
31
0.0
0
LINE
8
TOP
10
0.102227
20
0.007764
30
0.0
11
0.116622
21
0.003714
31
0.0
0
LINE
8
TOP
10
0.116622
20
0.003714
30
0.0
11
0.131348
21
0.001117
31
0.0
0
LINE
8
TOP
10
0.131348
20
0.001117
30
0.0
11
0.146260
21
0.000000
31
0.0
0
LINE
8
TOP
10
0.146260
20
0.000000
30
0.0
11
0.161210
21
0.000373
31
0.0
0
LINE
8
TOP
10
0.161210
20
0.000373
30
0.0
11
0.176047
21
0.002232
31
0.0
0
LINE
8
TOP
10
0.176047
20
0.002232
30
0.0
11
0.190626
21
0.005560
31
0.0
0
LINE
8
TOP
10
0.190626
20
0.005560
30
0.0
11
0.204801
21
0.010322
31
0.0
0
LINE
8
TOP
10
0.204801
20
0.010322
30
0.0
11
0.218432
21
0.016473
31
0.0
0
LINE
8
TOP
10
0.218432
20
0.016473
30
0.0
11
0.231382
21
0.023949
31
0.0
0
LINE
8
TOP
10
0.231382
20
0.023949
30
0.0
11
0.243523
21
0.032679
31
0.0
0
LINE
8
TOP
10
0.243523
20
0.032679
30
0.0
11
0.254736
21
0.042573
31
0.0
0
LINE
8
TOP
10
0.254736
20
0.042573
30
0.0
11
0.264907
21
0.053535
31
0.0
0
LINE
8
TOP
10
0.264907
20
0.053535
30
0.0
11
0.273936
21
0.065455
31
0.0
0
LINE
8
TOP
10
0.273936
20
0.065455
30
0.0
11
0.281733
21
0.078215
31
0.0
0
LINE
8
TOP
10
0.281733
20
0.078215
30
0.0
11
0.288221
21
0.091688
31
0.0
0
LINE
8
TOP
10
0.288221
20
0.091688
30
0.0
11
0.293336
21
0.105740
31
0.0
0
LINE
8
TOP
10
0.293336
20
0.105740
30
0.0
11
0.297026
21
0.120231
31
0.0
0
LINE
8
TOP
10
0.297026
20
0.120231
30
0.0
11
0.299255
21
0.135018
31
0.0
0
LINE
8
TOP
10
0.299255
20
0.135018
30
0.0
11
0.300000
21
0.149953
31
0.0
0
LINE
8
TOP
10
0.299495
20
0.162256
30
0.0
11
0.299511
21
0.162062
31
0.0
0
LINE
8
TOP
10
0.299511
20
0.162062
30
0.0
11
0.299526
21
0.161867
31
0.0
0
LINE
8
TOP
10
0.299526
20
0.161867
30
0.0
11
0.299542
21
0.161672
31
0.0
0
LINE
8
TOP
10
0.299542
20
0.161672
30
0.0
11
0.299557
21
0.161477
31
0.0
0
LINE
8
TOP
10
0.299557
20
0.161477
30
0.0
11
0.299572
21
0.161282
31
0.0
0
LINE
8
TOP
10
0.299572
20
0.161282
30
0.0
11
0.299586
21
0.161087
31
0.0
0
LINE
8
TOP
10
0.299586
20
0.161087
30
0.0
11
0.299601
21
0.160892
31
0.0
0
LINE
8
TOP
10
0.299601
20
0.160892
30
0.0
11
0.299615
21
0.160697
31
0.0
0
LINE
8
TOP
10
0.299615
20
0.160697
30
0.0
11
0.299629
21
0.160502
31
0.0
0
LINE
8
TOP
10
0.299629
20
0.160502
30
0.0
11
0.299642
21
0.160307
31
0.0
0
LINE
8
TOP
10
0.299642
20
0.160307
30
0.0
11
0.299656
21
0.160112
31
0.0
0
LINE
8
TOP
10
0.299656
20
0.160112
30
0.0
11
0.299669
21
0.159917
31
0.0
0
LINE
8
TOP
10
0.299669
20
0.159917
30
0.0
11
0.299682
21
0.159722
31
0.0
0
LINE
8
TOP
10
0.299682
20
0.159722
30
0.0
11
0.299694
21
0.159527
31
0.0
0
LINE
8
TOP
10
0.299694
20
0.159527
30
0.0
11
0.299707
21
0.159332
31
0.0
0
LINE
8
TOP
10
0.299707
20
0.159332
30
0.0
11
0.299719
21
0.159136
31
0.0
0
LINE
8
TOP
10
0.299719
20
0.159136
30
0.0
11
0.299730
21
0.158941
31
0.0
0
LINE
8
TOP
10
0.299730
20
0.158941
30
0.0
11
0.299742
21
0.158746
31
0.0
0
LINE
8
TOP
10
0.299742
20
0.158746
30
0.0
11
0.299753
21
0.158551
31
0.0
0
LINE
8
TOP
10
0.299753
20
0.158551
30
0.0
11
0.299764
21
0.158356
31
0.0
0
LINE
8
TOP
10
0.299764
20
0.158356
30
0.0
11
0.299775
21
0.158160
31
0.0
0
LINE
8
TOP
10
0.299775
20
0.158160
30
0.0
11
0.299786
21
0.157965
31
0.0
0
LINE
8
TOP
10
0.299786
20
0.157965
30
0.0
11
0.299796
21
0.157770
31
0.0
0
LINE
8
TOP
10
0.299796
20
0.157770
30
0.0
11
0.299806
21
0.157575
31
0.0
0
LINE
8
TOP
10
0.299806
20
0.157575
30
0.0
11
0.299816
21
0.157380
31
0.0
0
LINE
8
TOP
10
0.299816
20
0.157380
30
0.0
11
0.299826
21
0.157184
31
0.0
0
LINE
8
TOP
10
0.299826
20
0.157184
30
0.0
11
0.299835
21
0.156989
31
0.0
0
LINE
8
TOP
10
0.299835
20
0.156989
30
0.0
11
0.299844
21
0.156794
31
0.0
0
LINE
8
TOP
10
0.299844
20
0.156794
30
0.0
11
0.299853
21
0.156598
31
0.0
0
LINE
8
TOP
10
0.299853
20
0.156598
30
0.0
11
0.299861
21
0.156403
31
0.0
0
LINE
8
TOP
10
0.299861
20
0.156403
30
0.0
11
0.299870
21
0.156208
31
0.0
0
LINE
8
TOP
10
0.299870
20
0.156208
30
0.0
11
0.299878
21
0.156012
31
0.0
0
LINE
8
TOP
10
0.299878
20
0.156012
30
0.0
11
0.299885
21
0.155817
31
0.0
0
LINE
8
TOP
10
0.299885
20
0.155817
30
0.0
11
0.299893
21
0.155622
31
0.0
0
LINE
8
TOP
10
0.299893
20
0.155622
30
0.0
11
0.299900
21
0.155426
31
0.0
0
LINE
8
TOP
10
0.299900
20
0.155426
30
0.0
11
0.299907
21
0.155231
31
0.0
0
LINE
8
TOP
10
0.299907
20
0.155231
30
0.0
11
0.299914
21
0.155036
31
0.0
0
LINE
8
TOP
10
0.299914
20
0.155036
30
0.0
11
0.299920
21
0.154840
31
0.0
0
LINE
8
TOP
10
0.299920
20
0.154840
30
0.0
11
0.299927
21
0.154645
31
0.0
0
LINE
8
TOP
10
0.299927
20
0.154645
30
0.0
11
0.299933
21
0.154449
31
0.0
0
LINE
8
TOP
10
0.299933
20
0.154449
30
0.0
11
0.299938
21
0.154254
31
0.0
0
LINE
8
TOP
10
0.299938
20
0.154254
30
0.0
11
0.299944
21
0.154058
31
0.0
0
LINE
8
TOP
10
0.299944
20
0.154058
30
0.0
11
0.299949
21
0.153863
31
0.0
0
LINE
8
TOP
10
0.299949
20
0.153863
30
0.0
11
0.299954
21
0.153668
31
0.0
0
LINE
8
TOP
10
0.299954
20
0.153668
30
0.0
11
0.299959
21
0.153472
31
0.0
0
LINE
8
TOP
10
0.299959
20
0.153472
30
0.0
11
0.299963
21
0.153277
31
0.0
0
LINE
8
TOP
10
0.299963
20
0.153277
30
0.0
11
0.299967
21
0.153081
31
0.0
0
LINE
8
TOP
10
0.299967
20
0.153081
30
0.0
11
0.299971
21
0.152886
31
0.0
0
LINE
8
TOP
10
0.299971
20
0.152886
30
0.0
11
0.299975
21
0.152690
31
0.0
0
LINE
8
TOP
10
0.299975
20
0.152690
30
0.0
11
0.299978
21
0.152495
31
0.0
0
LINE
8
TOP
10
0.299978
20
0.152495
30
0.0
11
0.299982
21
0.152299
31
0.0
0
LINE
8
TOP
10
0.299982
20
0.152299
30
0.0
11
0.299985
21
0.152104
31
0.0
0
LINE
8
TOP
10
0.299985
20
0.152104
30
0.0
11
0.299987
21
0.151908
31
0.0
0
LINE
8
TOP
10
0.299987
20
0.151908
30
0.0
11
0.299990
21
0.151713
31
0.0
0
LINE
8
TOP
10
0.299990
20
0.151713
30
0.0
11
0.299992
21
0.151517
31
0.0
0
LINE
8
TOP
10
0.299992
20
0.151517
30
0.0
11
0.299994
21
0.151322
31
0.0
0
LINE
8
TOP
10
0.299994
20
0.151322
30
0.0
11
0.299995
21
0.151126
31
0.0
0
LINE
8
TOP
10
0.299995
20
0.151126
30
0.0
11
0.299997
21
0.150931
31
0.0
0
LINE
8
TOP
10
0.299997
20
0.150931
30
0.0
11
0.299998
21
0.150735
31
0.0
0
LINE
8
TOP
10
0.299998
20
0.150735
30
0.0
11
0.299999
21
0.150540
31
0.0
0
LINE
8
TOP
10
0.299999
20
0.150540
30
0.0
11
0.299999
21
0.150344
31
0.0
0
LINE
8
TOP
10
0.299999
20
0.150344
30
0.0
11
0.300000
21
0.150149
31
0.0
0
LINE
8
TOP
10
0.300000
20
0.150149
30
0.0
11
0.300000
21
0.149953
31
0.0
0
LINE
8
TOP
10
0.291000
20
0.149953
30
0.0
11
0.291000
21
0.150049
31
0.0
0
LINE
8
TOP
10
0.291000
20
0.150050
30
0.0
11
0.291000
21
0.150287
31
0.0
0
LINE
8
TOP
10
0.291000
20
0.150287
30
0.0
11
0.290999
21
0.150524
31
0.0
0
LINE
8
TOP
10
0.290999
20
0.150524
30
0.0
11
0.290998
21
0.150761
31
0.0
0
LINE
8
TOP
10
0.290998
20
0.150761
30
0.0
11
0.290996
21
0.150998
31
0.0
0
LINE
8
TOP
10
0.290996
20
0.150998
30
0.0
11
0.290994
21
0.151235
31
0.0
0
LINE
8
TOP
10
0.290994
20
0.151235
30
0.0
11
0.290992
21
0.151472
31
0.0
0
LINE
8
TOP
10
0.290992
20
0.151472
30
0.0
11
0.290989
21
0.151709
31
0.0
0
LINE
8
TOP
10
0.290989
20
0.151709
30
0.0
11
0.290986
21
0.151946
31
0.0
0
LINE
8
TOP
10
0.290986
20
0.151946
30
0.0
11
0.290982
21
0.152183
31
0.0
0
LINE
8
TOP
10
0.290982
20
0.152183
30
0.0
11
0.290978
21
0.152420
31
0.0
0
LINE
8
TOP
10
0.290978
20
0.152420
30
0.0
11
0.290974
21
0.152657
31
0.0
0
LINE
8
TOP
10
0.290974
20
0.152657
30
0.0
11
0.290969
21
0.152894
31
0.0
0
LINE
8
TOP
10
0.290969
20
0.152894
30
0.0
11
0.290964
21
0.153131
31
0.0
0
LINE
8
TOP
10
0.290964
20
0.153131
30
0.0
11
0.290959
21
0.153368
31
0.0
0
LINE
8
TOP
10
0.290959
20
0.153368
30
0.0
11
0.290953
21
0.153605
31
0.0
0
LINE
8
TOP
10
0.290953
20
0.153605
30
0.0
11
0.290946
21
0.153842
31
0.0
0
LINE
8
TOP
10
0.290946
20
0.153842
30
0.0
11
0.290940
21
0.154079
31
0.0
0
LINE
8
TOP
10
0.290940
20
0.154079
30
0.0
11
0.290933
21
0.154316
31
0.0
0
LINE
8
TOP
10
0.290933
20
0.154316
30
0.0
11
0.290925
21
0.154553
31
0.0
0
LINE
8
TOP
10
0.290925
20
0.154553
30
0.0
11
0.290917
21
0.154789
31
0.0
0
LINE
8
TOP
10
0.290917
20
0.154789
30
0.0
11
0.290909
21
0.155026
31
0.0
0
LINE
8
TOP
10
0.290909
20
0.155026
30
0.0
11
0.290900
21
0.155263
31
0.0
0
LINE
8
TOP
10
0.290900
20
0.155263
30
0.0
11
0.290891
21
0.155500
31
0.0
0
LINE
8
TOP
10
0.290891
20
0.155500
30
0.0
11
0.290881
21
0.155737
31
0.0
0
LINE
8
TOP
10
0.290881
20
0.155737
30
0.0
11
0.290871
21
0.155974
31
0.0
0
LINE
8
TOP
10
0.290871
20
0.155974
30
0.0
11
0.290861
21
0.156210
31
0.0
0
LINE
8
TOP
10
0.290861
20
0.156210
30
0.0
11
0.290850
21
0.156447
31
0.0
0
LINE
8
TOP
10
0.290850
20
0.156447
30
0.0
11
0.290839
21
0.156684
31
0.0
0
LINE
8
TOP
10
0.290839
20
0.156684
30
0.0
11
0.290828
21
0.156921
31
0.0
0
LINE
8
TOP
10
0.290828
20
0.156921
30
0.0
11
0.290816
21
0.157157
31
0.0
0
LINE
8
TOP
10
0.290816
20
0.157157
30
0.0
11
0.290804
21
0.157394
31
0.0
0
LINE
8
TOP
10
0.290804
20
0.157394
30
0.0
11
0.290791
21
0.157631
31
0.0
0
LINE
8
TOP
10
0.290791
20
0.157631
30
0.0
11
0.290778
21
0.157867
31
0.0
0
LINE
8
TOP
10
0.290778
20
0.157867
30
0.0
11
0.290764
21
0.158104
31
0.0
0
LINE
8
TOP
10
0.290764
20
0.158104
30
0.0
11
0.290750
21
0.158341
31
0.0
0
LINE
8
TOP
10
0.290750
20
0.158341
30
0.0
11
0.290736
21
0.158577
31
0.0
0
LINE
8
TOP
10
0.290736
20
0.158577
30
0.0
11
0.290721
21
0.158814
31
0.0
0
LINE
8
TOP
10
0.290721
20
0.158814
30
0.0
11
0.290706
21
0.159050
31
0.0
0
LINE
8
TOP
10
0.290706
20
0.159050
30
0.0
11
0.290691
21
0.159287
31
0.0
0
LINE
8
TOP
10
0.290691
20
0.159287
30
0.0
11
0.290675
21
0.159523
31
0.0
0
LINE
8
TOP
10
0.290675
20
0.159523
30
0.0
11
0.290659
21
0.159760
31
0.0
0
LINE
8
TOP
10
0.290659
20
0.159760
30
0.0
11
0.290642
21
0.159996
31
0.0
0
LINE
8
TOP
10
0.290642
20
0.159996
30
0.0
11
0.290625
21
0.160232
31
0.0
0
LINE
8
TOP
10
0.290625
20
0.160232
30
0.0
11
0.290607
21
0.160469
31
0.0
0
LINE
8
TOP
10
0.290607
20
0.160469
30
0.0
11
0.290589
21
0.160705
31
0.0
0
LINE
8
TOP
10
0.290589
20
0.160705
30
0.0
11
0.290571
21
0.160941
31
0.0
0
LINE
8
TOP
10
0.290571
20
0.160941
30
0.0
11
0.290553
21
0.161178
31
0.0
0
LINE
8
TOP
10
0.290553
20
0.161178
30
0.0
11
0.290533
21
0.161414
31
0.0
0
LINE
8
TOP
10
0.290533
20
0.161414
30
0.0
11
0.290514
21
0.161650
31
0.0
0
LINE
8
TOP
10
0.290514
20
0.161650
30
0.0
11
0.290494
21
0.161886
31
0.0
0
LINE
8
TOP
10
0.290494
20
0.161886
30
0.0
11
0.290474
21
0.162123
31
0.0
0
LINE
8
TOP
10
0.290474
20
0.162123
30
0.0
11
0.290453
21
0.162359
31
0.0
0
LINE
8
TOP
10
0.290453
20
0.162359
30
0.0
11
0.290432
21
0.162595
31
0.0
0
LINE
8
TOP
10
0.290432
20
0.162595
30
0.0
11
0.290411
21
0.162831
31
0.0
0
LINE
8
TOP
10
0.290411
20
0.162831
30
0.0
11
0.290389
21
0.163067
31
0.0
0
LINE
8
TOP
10
0.290389
20
0.163067
30
0.0
11
0.290367
21
0.163303
31
0.0
0
LINE
8
TOP
10
0.290367
20
0.163303
30
0.0
11
0.290344
21
0.163539
31
0.0
0
LINE
8
TOP
10
0.290344
20
0.163539
30
0.0
11
0.290321
21
0.163775
31
0.0
0
LINE
8
TOP
10
0.290321
20
0.163775
30
0.0
11
0.290298
21
0.164010
31
0.0
0
LINE
8
TOP
10
0.290298
20
0.164010
30
0.0
11
0.290274
21
0.164246
31
0.0
0
LINE
8
TOP
10
0.290274
20
0.164246
30
0.0
11
0.290249
21
0.164482
31
0.0
0
LINE
8
TOP
10
0.290249
20
0.164482
30
0.0
11
0.290225
21
0.164718
31
0.0
0
LINE
8
TOP
10
0.290225
20
0.164718
30
0.0
11
0.290200
21
0.164953
31
0.0
0
LINE
8
TOP
10
0.290200
20
0.164953
30
0.0
11
0.290904
21
0.155148
31
0.0
0
LINE
8
TOP
10
0.291000
20
0.149953
30
0.0
11
0.291000
21
0.149735
31
0.0
0
LINE
8
TOP
10
0.291000
20
0.149735
30
0.0
11
0.290999
21
0.149516
31
0.0
0
LINE
8
TOP
10
0.290999
20
0.149516
30
0.0
11
0.290998
21
0.149297
31
0.0
0
LINE
8
TOP
10
0.290998
20
0.149297
30
0.0
11
0.290997
21
0.149079
31
0.0
0
LINE
8
TOP
10
0.290997
20
0.149079
30
0.0
11
0.290996
21
0.148860
31
0.0
0
LINE
8
TOP
10
0.290996
20
0.148860
30
0.0
11
0.290994
21
0.148641
31
0.0
0
LINE
8
TOP
10
0.290994
20
0.148641
30
0.0
11
0.290992
21
0.148423
31
0.0
0
LINE
8
TOP
10
0.290992
20
0.148423
30
0.0
11
0.290989
21
0.148204
31
0.0
0
LINE
8
TOP
10
0.290989
20
0.148204
30
0.0
11
0.290986
21
0.147985
31
0.0
0
LINE
8
TOP
10
0.290986
20
0.147985
30
0.0
11
0.290983
21
0.147767
31
0.0
0
LINE
8
TOP
10
0.290983
20
0.147767
30
0.0
11
0.290979
21
0.147548
31
0.0
0
LINE
8
TOP
10
0.290979
20
0.147548
30
0.0
11
0.290976
21
0.147329
31
0.0
0
LINE
8
TOP
10
0.290976
20
0.147329
30
0.0
11
0.290971
21
0.147111
31
0.0
0
LINE
8
TOP
10
0.290971
20
0.147111
30
0.0
11
0.290967
21
0.146892
31
0.0
0
LINE
8
TOP
10
0.290967
20
0.146892
30
0.0
11
0.290962
21
0.146674
31
0.0
0
LINE
8
TOP
10
0.290962
20
0.146674
30
0.0
11
0.290957
21
0.146455
31
0.0
0
LINE
8
TOP
10
0.290957
20
0.146455
30
0.0
11
0.290951
21
0.146236
31
0.0
0
LINE
8
TOP
10
0.290951
20
0.146236
30
0.0
11
0.290945
21
0.146018
31
0.0
0
LINE
8
TOP
10
0.290945
20
0.146018
30
0.0
11
0.290939
21
0.145799
31
0.0
0
LINE
8
TOP
10
0.290939
20
0.145799
30
0.0
11
0.290932
21
0.145581
31
0.0
0
LINE
8
TOP
10
0.290932
20
0.145581
30
0.0
11
0.290925
21
0.145362
31
0.0
0
LINE
8
TOP
10
0.290925
20
0.145362
30
0.0
11
0.290918
21
0.145143
31
0.0
0
LINE
8
TOP
10
0.290918
20
0.145143
30
0.0
11
0.290910
21
0.144925
31
0.0
0
LINE
8
TOP
10
0.290910
20
0.144925
30
0.0
11
0.290902
21
0.144706
31
0.0
0
LINE
8
TOP
10
0.290902
20
0.144706
30
0.0
11
0.290894
21
0.144488
31
0.0
0
LINE
8
TOP
10
0.290894
20
0.144488
30
0.0
11
0.290885
21
0.144269
31
0.0
0
LINE
8
TOP
10
0.290885
20
0.144269
30
0.0
11
0.290876
21
0.144051
31
0.0
0
LINE
8
TOP
10
0.290876
20
0.144051
30
0.0
11
0.290867
21
0.143832
31
0.0
0
LINE
8
TOP
10
0.290867
20
0.143832
30
0.0
11
0.290857
21
0.143614
31
0.0
0
LINE
8
TOP
10
0.290857
20
0.143614
30
0.0
11
0.290847
21
0.143395
31
0.0
0
LINE
8
TOP
10
0.290847
20
0.143395
30
0.0
11
0.290837
21
0.143177
31
0.0
0
LINE
8
TOP
10
0.290837
20
0.143177
30
0.0
11
0.290826
21
0.142959
31
0.0
0
LINE
8
TOP
10
0.290826
20
0.142959
30
0.0
11
0.290815
21
0.142740
31
0.0
0
LINE
8
TOP
10
0.290815
20
0.142740
30
0.0
11
0.290804
21
0.142522
31
0.0
0
LINE
8
TOP
10
0.290804
20
0.142522
30
0.0
11
0.290792
21
0.142303
31
0.0
0
LINE
8
TOP
10
0.290792
20
0.142303
30
0.0
11
0.290780
21
0.142085
31
0.0
0
LINE
8
TOP
10
0.290780
20
0.142085
30
0.0
11
0.290768
21
0.141867
31
0.0
0
LINE
8
TOP
10
0.290768
20
0.141867
30
0.0
11
0.290755
21
0.141648
31
0.0
0
LINE
8
TOP
10
0.290755
20
0.141648
30
0.0
11
0.290742
21
0.141430
31
0.0
0
LINE
8
TOP
10
0.290742
20
0.141430
30
0.0
11
0.290729
21
0.141212
31
0.0
0
LINE
8
TOP
10
0.290729
20
0.141212
30
0.0
11
0.290715
21
0.140994
31
0.0
0
LINE
8
TOP
10
0.290715
20
0.140994
30
0.0
11
0.290701
21
0.140775
31
0.0
0
LINE
8
TOP
10
0.290701
20
0.140775
30
0.0
11
0.290687
21
0.140557
31
0.0
0
LINE
8
TOP
10
0.290687
20
0.140557
30
0.0
11
0.290672
21
0.140339
31
0.0
0
LINE
8
TOP
10
0.290672
20
0.140339
30
0.0
11
0.290657
21
0.140121
31
0.0
0
LINE
8
TOP
10
0.290657
20
0.140121
30
0.0
11
0.290641
21
0.139903
31
0.0
0
LINE
8
TOP
10
0.290641
20
0.139903
30
0.0
11
0.290626
21
0.139685
31
0.0
0
LINE
8
TOP
10
0.290626
20
0.139685
30
0.0
11
0.290609
21
0.139467
31
0.0
0
LINE
8
TOP
10
0.290609
20
0.139467
30
0.0
11
0.290593
21
0.139249
31
0.0
0
LINE
8
TOP
10
0.290593
20
0.139249
30
0.0
11
0.290576
21
0.139031
31
0.0
0
LINE
8
TOP
10
0.290576
20
0.139031
30
0.0
11
0.290559
21
0.138813
31
0.0
0
LINE
8
TOP
10
0.290559
20
0.138813
30
0.0
11
0.290542
21
0.138595
31
0.0
0
LINE
8
TOP
10
0.290542
20
0.138595
30
0.0
11
0.290524
21
0.138377
31
0.0
0
LINE
8
TOP
10
0.290524
20
0.138377
30
0.0
11
0.290506
21
0.138159
31
0.0
0
LINE
8
TOP
10
0.290506
20
0.138159
30
0.0
11
0.290487
21
0.137941
31
0.0
0
LINE
8
TOP
10
0.290487
20
0.137941
30
0.0
11
0.290469
21
0.137723
31
0.0
0
LINE
8
TOP
10
0.290469
20
0.137723
30
0.0
11
0.290449
21
0.137505
31
0.0
0
LINE
8
TOP
10
0.290449
20
0.137505
30
0.0
11
0.290430
21
0.137287
31
0.0
0
LINE
8
TOP
10
0.290430
20
0.137287
30
0.0
11
0.290410
21
0.137069
31
0.0
0
LINE
8
TOP
10
0.290410
20
0.137069
30
0.0
11
0.290390
21
0.136852
31
0.0
0
LINE
8
TOP
10
0.290390
20
0.136852
30
0.0
11
0.290369
21
0.136634
31
0.0
0
LINE
8
TOP
10
0.290369
20
0.136634
30
0.0
11
0.290349
21
0.136416
31
0.0
0
LINE
8
TOP
10
0.290349
20
0.136416
30
0.0
11
0.290328
21
0.136199
31
0.0
0
LINE
8
TOP
10
0.291000
20
0.149953
30
0.0
11
0.290299
21
0.163992
31
0.0
0
LINE
8
TOP
10
0.290299
20
0.163992
30
0.0
11
0.288204
21
0.177892
31
0.0
0
LINE
8
TOP
10
0.288204
20
0.177892
30
0.0
11
0.284736
21
0.191514
31
0.0
0
LINE
8
TOP
10
0.284736
20
0.191514
30
0.0
11
0.279928
21
0.204723
31
0.0
0
LINE
8
TOP
10
0.279928
20
0.204723
30
0.0
11
0.273829
21
0.217387
31
0.0
0
LINE
8
TOP
10
0.273829
20
0.217387
30
0.0
11
0.266500
21
0.229382
31
0.0
0
LINE
8
TOP
10
0.266500
20
0.229382
30
0.0
11
0.258012
21
0.240586
31
0.0
0
LINE
8
TOP
10
0.258012
20
0.240586
30
0.0
11
0.248451
21
0.250891
31
0.0
0
LINE
8
TOP
10
0.248451
20
0.250891
30
0.0
11
0.237912
21
0.260192
31
0.0
0
LINE
8
TOP
10
0.237912
20
0.260192
30
0.0
11
0.226499
21
0.268397
31
0.0
0
LINE
8
TOP
10
0.226499
20
0.268397
30
0.0
11
0.214326
21
0.275425
31
0.0
0
LINE
8
TOP
10
0.214326
20
0.275425
30
0.0
11
0.201513
21
0.281207
31
0.0
0
LINE
8
TOP
10
0.201513
20
0.281207
30
0.0
11
0.188189
21
0.285683
31
0.0
0
LINE
8
TOP
10
0.188189
20
0.285683
30
0.0
11
0.174484
21
0.288811
31
0.0
0
LINE
8
TOP
10
0.174484
20
0.288811
30
0.0
11
0.160537
21
0.290559
31
0.0
0
LINE
8
TOP
10
0.160537
20
0.290559
30
0.0
11
0.146485
21
0.290910
31
0.0
0
LINE
8
TOP
10
0.146485
20
0.290910
30
0.0
11
0.132468
21
0.289859
31
0.0
0
LINE
8
TOP
10
0.132468
20
0.289859
30
0.0
11
0.118625
21
0.287418
31
0.0
0
LINE
8
TOP
10
0.118625
20
0.287418
30
0.0
11
0.105093
21
0.283611
31
0.0
0
LINE
8
TOP
10
0.105093
20
0.283611
30
0.0
11
0.092009
21
0.278476
31
0.0
0
LINE
8
TOP
10
0.092009
20
0.278476
30
0.0
11
0.079500
21
0.272063
31
0.0
0
LINE
8
TOP
10
0.079500
20
0.272063
30
0.0
11
0.067692
21
0.264437
31
0.0
0
LINE
8
TOP
10
0.067692
20
0.264437
30
0.0
11
0.056702
21
0.255673
31
0.0
0
LINE
8
TOP
10
0.056702
20
0.255673
30
0.0
11
0.046640
21
0.245858
31
0.0
0
LINE
8
TOP
10
0.046640
20
0.245858
30
0.0
11
0.037604
21
0.235090
31
0.0
0
LINE
8
TOP
10
0.037604
20
0.235090
30
0.0
11
0.029686
21
0.223476
31
0.0
0
LINE
8
TOP
10
0.029686
20
0.223476
30
0.0
11
0.022963
21
0.211131
31
0.0
0
LINE
8
TOP
10
0.022963
20
0.211131
30
0.0
11
0.017503
21
0.198178
31
0.0
0
LINE
8
TOP
10
0.017503
20
0.198178
30
0.0
11
0.013360
21
0.184746
31
0.0
0
LINE
8
TOP
10
0.013360
20
0.184746
30
0.0
11
0.010575
21
0.170968
31
0.0
0
LINE
8
TOP
10
0.010575
20
0.170968
30
0.0
11
0.009175
21
0.156982
31
0.0
0
LINE
8
TOP
10
0.009175
20
0.156982
30
0.0
11
0.009175
21
0.142925
31
0.0
0
LINE
8
TOP
10
0.009175
20
0.142925
30
0.0
11
0.010575
21
0.128938
31
0.0
0
LINE
8
TOP
10
0.010575
20
0.128938
30
0.0
11
0.013360
21
0.115161
31
0.0
0
LINE
8
TOP
10
0.013360
20
0.115161
30
0.0
11
0.017503
21
0.101729
31
0.0
0
LINE
8
TOP
10
0.017503
20
0.101729
30
0.0
11
0.022963
21
0.088776
31
0.0
0
LINE
8
TOP
10
0.022963
20
0.088776
30
0.0
11
0.029686
21
0.076431
31
0.0
0
LINE
8
TOP
10
0.029686
20
0.076431
30
0.0
11
0.037604
21
0.064817
31
0.0
0
LINE
8
TOP
10
0.037604
20
0.064817
30
0.0
11
0.046640
21
0.054049
31
0.0
0
LINE
8
TOP
10
0.046640
20
0.054049
30
0.0
11
0.056702
21
0.044234
31
0.0
0
LINE
8
TOP
10
0.056702
20
0.044234
30
0.0
11
0.067692
21
0.035470
31
0.0
0
LINE
8
TOP
10
0.067692
20
0.035470
30
0.0
11
0.079500
21
0.027844
31
0.0
0
LINE
8
TOP
10
0.079500
20
0.027844
30
0.0
11
0.092009
21
0.021431
31
0.0
0
LINE
8
TOP
10
0.092009
20
0.021431
30
0.0
11
0.105093
21
0.016296
31
0.0
0
LINE
8
TOP
10
0.105093
20
0.016296
30
0.0
11
0.118625
21
0.012489
31
0.0
0
LINE
8
TOP
10
0.118625
20
0.012489
30
0.0
11
0.132468
21
0.010048
31
0.0
0
LINE
8
TOP
10
0.132468
20
0.010048
30
0.0
11
0.146485
21
0.008997
31
0.0
0
LINE
8
TOP
10
0.146485
20
0.008997
30
0.0
11
0.160537
21
0.009348
31
0.0
0
LINE
8
TOP
10
0.160537
20
0.009348
30
0.0
11
0.174484
21
0.011095
31
0.0
0
LINE
8
TOP
10
0.174484
20
0.011095
30
0.0
11
0.188189
21
0.014223
31
0.0
0
LINE
8
TOP
10
0.188189
20
0.014223
30
0.0
11
0.201513
21
0.018700
31
0.0
0
LINE
8
TOP
10
0.201513
20
0.018700
30
0.0
11
0.214326
21
0.024481
31
0.0
0
LINE
8
TOP
10
0.214326
20
0.024481
30
0.0
11
0.226499
21
0.031510
31
0.0
0
LINE
8
TOP
10
0.226499
20
0.031510
30
0.0
11
0.237912
21
0.039715
31
0.0
0
LINE
8
TOP
10
0.237912
20
0.039715
30
0.0
11
0.248451
21
0.049016
31
0.0
0
LINE
8
TOP
10
0.248451
20
0.049016
30
0.0
11
0.258012
21
0.059320
31
0.0
0
LINE
8
TOP
10
0.258012
20
0.059320
30
0.0
11
0.266500
21
0.070525
31
0.0
0
LINE
8
TOP
10
0.266500
20
0.070525
30
0.0
11
0.273829
21
0.082520
31
0.0
0
LINE
8
TOP
10
0.273829
20
0.082520
30
0.0
11
0.279928
21
0.095184
31
0.0
0
LINE
8
TOP
10
0.279928
20
0.095184
30
0.0
11
0.284736
21
0.108393
31
0.0
0
LINE
8
TOP
10
0.284736
20
0.108393
30
0.0
11
0.288204
21
0.122015
31
0.0
0
LINE
8
TOP
10
0.288204
20
0.122015
30
0.0
11
0.290299
21
0.135914
31
0.0
0
LINE
8
TOP
10
0.290299
20
0.135914
30
0.0
11
0.291000
21
0.149953
31
0.0
0
LINE
8
TOP
10
0.009000
20
0.149953
30
0.0
11
0.009000
21
0.149715
31
0.0
0
LINE
8
TOP
10
0.009000
20
0.149715
30
0.0
11
0.009001
21
0.149476
31
0.0
0
LINE
8
TOP
10
0.009001
20
0.149476
30
0.0
11
0.009002
21
0.149238
31
0.0
0
LINE
8
TOP
10
0.009002
20
0.149238
30
0.0
11
0.009003
21
0.148999
31
0.0
0
LINE
8
TOP
10
0.009003
20
0.148999
30
0.0
11
0.009005
21
0.148761
31
0.0
0
LINE
8
TOP
10
0.009005
20
0.148761
30
0.0
11
0.009007
21
0.148522
31
0.0
0
LINE
8
TOP
10
0.009007
20
0.148522
30
0.0
11
0.009010
21
0.148284
31
0.0
0
LINE
8
TOP
10
0.009010
20
0.148284
30
0.0
11
0.009013
21
0.148045
31
0.0
0
LINE
8
TOP
10
0.009013
20
0.148045
30
0.0
11
0.009016
21
0.147807
31
0.0
0
LINE
8
TOP
10
0.009016
20
0.147807
30
0.0
11
0.009020
21
0.147568
31
0.0
0
LINE
8
TOP
10
0.009020
20
0.147568
30
0.0
11
0.009024
21
0.147330
31
0.0
0
LINE
8
TOP
10
0.009024
20
0.147330
30
0.0
11
0.009029
21
0.147091
31
0.0
0
LINE
8
TOP
10
0.009029
20
0.147091
30
0.0
11
0.009034
21
0.146853
31
0.0
0
LINE
8
TOP
10
0.009034
20
0.146853
30
0.0
11
0.009040
21
0.146614
31
0.0
0
LINE
8
TOP
10
0.009040
20
0.146614
30
0.0
11
0.009045
21
0.146376
31
0.0
0
LINE
8
TOP
10
0.009045
20
0.146376
30
0.0
11
0.009052
21
0.146137
31
0.0
0
LINE
8
TOP
10
0.009052
20
0.146137
30
0.0
11
0.009058
21
0.145899
31
0.0
0
LINE
8
TOP
10
0.009058
20
0.145899
30
0.0
11
0.009065
21
0.145660
31
0.0
0
LINE
8
TOP
10
0.009065
20
0.145660
30
0.0
11
0.009073
21
0.145422
31
0.0
0
LINE
8
TOP
10
0.009073
20
0.145422
30
0.0
11
0.009081
21
0.145183
31
0.0
0
LINE
8
TOP
10
0.009081
20
0.145183
30
0.0
11
0.009089
21
0.144945
31
0.0
0
LINE
8
TOP
10
0.009089
20
0.144945
30
0.0
11
0.009098
21
0.144707
31
0.0
0
LINE
8
TOP
10
0.009098
20
0.144707
30
0.0
11
0.009107
21
0.144468
31
0.0
0
LINE
8
TOP
10
0.009107
20
0.144468
30
0.0
11
0.009116
21
0.144230
31
0.0
0
LINE
8
TOP
10
0.009116
20
0.144230
30
0.0
11
0.009126
21
0.143991
31
0.0
0
LINE
8
TOP
10
0.009126
20
0.143991
30
0.0
11
0.009136
21
0.143753
31
0.0
0
LINE
8
TOP
10
0.009136
20
0.143753
30
0.0
11
0.009147
21
0.143515
31
0.0
0
LINE
8
TOP
10
0.009147
20
0.143515
30
0.0
11
0.009158
21
0.143277
31
0.0
0
LINE
8
TOP
10
0.009158
20
0.143277
30
0.0
11
0.009170
21
0.143038
31
0.0
0
LINE
8
TOP
10
0.009170
20
0.143038
30
0.0
11
0.009182
21
0.142800
31
0.0
0
LINE
8
TOP
10
0.009182
20
0.142800
30
0.0
11
0.009194
21
0.142562
31
0.0
0
LINE
8
TOP
10
0.009194
20
0.142562
30
0.0
11
0.009207
21
0.142324
31
0.0
0
LINE
8
TOP
10
0.009207
20
0.142324
30
0.0
11
0.009220
21
0.142085
31
0.0
0
LINE
8
TOP
10
0.009220
20
0.142085
30
0.0
11
0.009233
21
0.141847
31
0.0
0
LINE
8
TOP
10
0.009233
20
0.141847
30
0.0
11
0.009247
21
0.141609
31
0.0
0
LINE
8
TOP
10
0.009247
20
0.141609
30
0.0
11
0.009261
21
0.141371
31
0.0
0
LINE
8
TOP
10
0.009261
20
0.141371
30
0.0
11
0.009276
21
0.141133
31
0.0
0
LINE
8
TOP
10
0.009276
20
0.141133
30
0.0
11
0.009291
21
0.140895
31
0.0
0
LINE
8
TOP
10
0.009291
20
0.140895
30
0.0
11
0.009307
21
0.140657
31
0.0
0
LINE
8
TOP
10
0.009307
20
0.140657
30
0.0
11
0.009323
21
0.140419
31
0.0
0
LINE
8
TOP
10
0.009323
20
0.140419
30
0.0
11
0.009339
21
0.140181
31
0.0
0
LINE
8
TOP
10
0.009339
20
0.140181
30
0.0
11
0.009356
21
0.139943
31
0.0
0
LINE
8
TOP
10
0.009356
20
0.139943
30
0.0
11
0.009373
21
0.139705
31
0.0
0
LINE
8
TOP
10
0.009373
20
0.139705
30
0.0
11
0.009390
21
0.139467
31
0.0
0
LINE
8
TOP
10
0.009390
20
0.139467
30
0.0
11
0.009408
21
0.139229
31
0.0
0
LINE
8
TOP
10
0.009408
20
0.139229
30
0.0
11
0.009427
21
0.138991
31
0.0
0
LINE
8
TOP
10
0.009427
20
0.138991
30
0.0
11
0.009446
21
0.138753
31
0.0
0
LINE
8
TOP
10
0.009446
20
0.138753
30
0.0
11
0.009465
21
0.138516
31
0.0
0
LINE
8
TOP
10
0.009465
20
0.138516
30
0.0
11
0.009484
21
0.138278
31
0.0
0
LINE
8
TOP
10
0.009484
20
0.138278
30
0.0
11
0.009504
21
0.138040
31
0.0
0
LINE
8
TOP
10
0.009504
20
0.138040
30
0.0
11
0.009525
21
0.137803
31
0.0
0
LINE
8
TOP
10
0.009525
20
0.137803
30
0.0
11
0.009545
21
0.137565
31
0.0
0
LINE
8
TOP
10
0.009545
20
0.137565
30
0.0
11
0.009566
21
0.137327
31
0.0
0
LINE
8
TOP
10
0.009566
20
0.137327
30
0.0
11
0.009588
21
0.137090
31
0.0
0
LINE
8
TOP
10
0.009588
20
0.137090
30
0.0
11
0.009610
21
0.136852
31
0.0
0
LINE
8
TOP
10
0.009610
20
0.136852
30
0.0
11
0.009632
21
0.136615
31
0.0
0
LINE
8
TOP
10
0.009632
20
0.136615
30
0.0
11
0.009655
21
0.136377
31
0.0
0
LINE
8
TOP
10
0.009655
20
0.136377
30
0.0
11
0.009678
21
0.136140
31
0.0
0
LINE
8
TOP
10
0.009678
20
0.136140
30
0.0
11
0.009702
21
0.135902
31
0.0
0
LINE
8
TOP
10
0.009702
20
0.135902
30
0.0
11
0.009726
21
0.135665
31
0.0
0
LINE
8
TOP
10
0.009726
20
0.135665
30
0.0
11
0.009750
21
0.135428
31
0.0
0
LINE
8
TOP
10
0.009750
20
0.135428
30
0.0
11
0.009775
21
0.135191
31
0.0
0
LINE
8
TOP
10
0.009775
20
0.135191
30
0.0
11
0.009800
21
0.134953
31
0.0
0
LINE
8
TOP_HID
6
HIDDEN
10
0.299368
20
0.136198
30
0.0
11
0.299248
21
0.134953
31
0.0
0
LINE
8
TOP_HID
6
HIDDEN
10
0.299248
20
0.134953
30
0.0
11
0.299272
21
0.135191
31
0.0
0
LINE
8
TOP_HID
6
HIDDEN
10
0.299272
20
0.135191
30
0.0
11
0.299295
21
0.135428
31
0.0
0
LINE
8
TOP_HID
6
HIDDEN
10
0.299295
20
0.135428
30
0.0
11
0.299318
21
0.135665
31
0.0
0
LINE
8
TOP_HID
6
HIDDEN
10
0.299318
20
0.135665
30
0.0
11
0.299340
21
0.135903
31
0.0
0
LINE
8
TOP_HID
6
HIDDEN
10
0.299340
20
0.135903
30
0.0
11
0.299363
21
0.136140
31
0.0
0
LINE
8
TOP_HID
6
HIDDEN
10
0.299363
20
0.136140
30
0.0
11
0.299384
21
0.136378
31
0.0
0
LINE
8
TOP_HID
6
HIDDEN
10
0.299384
20
0.136378
30
0.0
11
0.299406
21
0.136615
31
0.0
0
LINE
8
TOP_HID
6
HIDDEN
10
0.299406
20
0.136615
30
0.0
11
0.299427
21
0.136853
31
0.0
0
LINE
8
TOP_HID
6
HIDDEN
10
0.299427
20
0.136853
30
0.0
11
0.299447
21
0.137091
31
0.0
0
LINE
8
TOP_HID
6
HIDDEN
10
0.299447
20
0.137091
30
0.0
11
0.299468
21
0.137328
31
0.0
0
LINE
8
TOP_HID
6
HIDDEN
10
0.299468
20
0.137328
30
0.0
11
0.299488
21
0.137566
31
0.0
0
LINE
8
TOP_HID
6
HIDDEN
10
0.299488
20
0.137566
30
0.0
11
0.299507
21
0.137804
31
0.0
0
LINE
8
TOP_HID
6
HIDDEN
10
0.299507
20
0.137804
30
0.0
11
0.299526
21
0.138041
31
0.0
0
LINE
8
TOP_HID
6
HIDDEN
10
0.299526
20
0.138041
30
0.0
11
0.299545
21
0.138279
31
0.0
0
LINE
8
TOP_HID
6
HIDDEN
10
0.299545
20
0.138279
30
0.0
11
0.299563
21
0.138517
31
0.0
0
LINE
8
TOP_HID
6
HIDDEN
10
0.299563
20
0.138517
30
0.0
11
0.299581
21
0.138755
31
0.0
0
LINE
8
TOP_HID
6
HIDDEN
10
0.299581
20
0.138755
30
0.0
11
0.299599
21
0.138992
31
0.0
0
LINE
8
TOP_HID
6
HIDDEN
10
0.299599
20
0.138992
30
0.0
11
0.299616
21
0.139230
31
0.0
0
LINE
8
TOP_HID
6
HIDDEN
10
0.299616
20
0.139230
30
0.0
11
0.299633
21
0.139468
31
0.0
0
LINE
8
TOP_HID
6
HIDDEN
10
0.299633
20
0.139468
30
0.0
11
0.299650
21
0.139706
31
0.0
0
LINE
8
TOP_HID
6
HIDDEN
10
0.299650
20
0.139706
30
0.0
11
0.299666
21
0.139944
31
0.0
0
LINE
8
TOP_HID
6
HIDDEN
10
0.299666
20
0.139944
30
0.0
11
0.299681
21
0.140182
31
0.0
0
LINE
8
TOP_HID
6
HIDDEN
10
0.299681
20
0.140182
30
0.0
11
0.299697
21
0.140420
31
0.0
0
LINE
8
TOP_HID
6
HIDDEN
10
0.299697
20
0.140420
30
0.0
11
0.299712
21
0.140658
31
0.0
0
LINE
8
TOP_HID
6
HIDDEN
10
0.299712
20
0.140658
30
0.0
11
0.299726
21
0.140896
31
0.0
0
LINE
8
TOP_HID
6
HIDDEN
10
0.299726
20
0.140896
30
0.0
11
0.299741
21
0.141134
31
0.0
0
LINE
8
TOP_HID
6
HIDDEN
10
0.299741
20
0.141134
30
0.0
11
0.299754
21
0.141372
31
0.0
0
LINE
8
TOP_HID
6
HIDDEN
10
0.299754
20
0.141372
30
0.0
11
0.299768
21
0.141610
31
0.0
0
LINE
8
TOP_HID
6
HIDDEN
10
0.299768
20
0.141610
30
0.0
11
0.299781
21
0.141849
31
0.0
0
LINE
8
TOP_HID
6
HIDDEN
10
0.299781
20
0.141849
30
0.0
11
0.299794
21
0.142087
31
0.0
0
LINE
8
TOP_HID
6
HIDDEN
10
0.299794
20
0.142087
30
0.0
11
0.299806
21
0.142325
31
0.0
0
LINE
8
TOP_HID
6
HIDDEN
10
0.299806
20
0.142325
30
0.0
11
0.299818
21
0.142563
31
0.0
0
LINE
8
TOP_HID
6
HIDDEN
10
0.299818
20
0.142563
30
0.0
11
0.299829
21
0.142801
31
0.0
0
LINE
8
TOP_HID
6
HIDDEN
10
0.299829
20
0.142801
30
0.0
11
0.299841
21
0.143040
31
0.0
0
LINE
8
TOP_HID
6
HIDDEN
10
0.299841
20
0.143040
30
0.0
11
0.299851
21
0.143278
31
0.0
0
LINE
8
TOP_HID
6
HIDDEN
10
0.299851
20
0.143278
30
0.0
11
0.299862
21
0.143516
31
0.0
0
LINE
8
TOP_HID
6
HIDDEN
10
0.299862
20
0.143516
30
0.0
11
0.299872
21
0.143754
31
0.0
0
LINE
8
TOP_HID
6
HIDDEN
10
0.299872
20
0.143754
30
0.0
11
0.299882
21
0.143993
31
0.0
0
LINE
8
TOP_HID
6
HIDDEN
10
0.299882
20
0.143993
30
0.0
11
0.299891
21
0.144231
31
0.0
0
LINE
8
TOP_HID
6
HIDDEN
10
0.299891
20
0.144231
30
0.0
11
0.299900
21
0.144469
31
0.0
0
LINE
8
TOP_HID
6
HIDDEN
10
0.299900
20
0.144469
30
0.0
11
0.299908
21
0.144708
31
0.0
0
LINE
8
TOP_HID
6
HIDDEN
10
0.299908
20
0.144708
30
0.0
11
0.299916
21
0.144946
31
0.0
0
LINE
8
TOP_HID
6
HIDDEN
10
0.299916
20
0.144946
30
0.0
11
0.299924
21
0.145184
31
0.0
0
LINE
8
TOP_HID
6
HIDDEN
10
0.299924
20
0.145184
30
0.0
11
0.299932
21
0.145423
31
0.0
0
LINE
8
TOP_HID
6
HIDDEN
10
0.299932
20
0.145423
30
0.0
11
0.299939
21
0.145661
31
0.0
0
LINE
8
TOP_HID
6
HIDDEN
10
0.299939
20
0.145661
30
0.0
11
0.299945
21
0.145899
31
0.0
0
LINE
8
TOP_HID
6
HIDDEN
10
0.299945
20
0.145899
30
0.0
11
0.299951
21
0.146138
31
0.0
0
LINE
8
TOP_HID
6
HIDDEN
10
0.299951
20
0.146138
30
0.0
11
0.299957
21
0.146376
31
0.0
0
LINE
8
TOP_HID
6
HIDDEN
10
0.299957
20
0.146376
30
0.0
11
0.299963
21
0.146615
31
0.0
0
LINE
8
TOP_HID
6
HIDDEN
10
0.299963
20
0.146615
30
0.0
11
0.299968
21
0.146853
31
0.0
0
LINE
8
TOP_HID
6
HIDDEN
10
0.299968
20
0.146853
30
0.0
11
0.299973
21
0.147092
31
0.0
0
LINE
8
TOP_HID
6
HIDDEN
10
0.299973
20
0.147092
30
0.0
11
0.299977
21
0.147330
31
0.0
0
LINE
8
TOP_HID
6
HIDDEN
10
0.299977
20
0.147330
30
0.0
11
0.299981
21
0.147569
31
0.0
0
LINE
8
TOP_HID
6
HIDDEN
10
0.299981
20
0.147569
30
0.0
11
0.299985
21
0.147807
31
0.0
0
LINE
8
TOP_HID
6
HIDDEN
10
0.299985
20
0.147807
30
0.0
11
0.299988
21
0.148045
31
0.0
0
LINE
8
TOP_HID
6
HIDDEN
10
0.299988
20
0.148045
30
0.0
11
0.299991
21
0.148284
31
0.0
0
LINE
8
TOP_HID
6
HIDDEN
10
0.299991
20
0.148284
30
0.0
11
0.299993
21
0.148522
31
0.0
0
LINE
8
TOP_HID
6
HIDDEN
10
0.299993
20
0.148522
30
0.0
11
0.299995
21
0.148761
31
0.0
0
LINE
8
TOP_HID
6
HIDDEN
10
0.299995
20
0.148761
30
0.0
11
0.299997
21
0.148999
31
0.0
0
LINE
8
TOP_HID
6
HIDDEN
10
0.299997
20
0.148999
30
0.0
11
0.299998
21
0.149238
31
0.0
0
LINE
8
TOP_HID
6
HIDDEN
10
0.299998
20
0.149238
30
0.0
11
0.299999
21
0.149476
31
0.0
0
LINE
8
TOP_HID
6
HIDDEN
10
0.299999
20
0.149476
30
0.0
11
0.300000
21
0.149715
31
0.0
0
LINE
8
TOP_HID
6
HIDDEN
10
0.300000
20
0.149715
30
0.0
11
0.300000
21
0.149953
31
0.0
0
LINE
8
TOP_HID
6
HIDDEN
10
0.300000
20
0.149953
30
0.0
11
0.300000
21
0.150192
31
0.0
0
LINE
8
TOP_HID
6
HIDDEN
10
0.300000
20
0.150192
30
0.0
11
0.299999
21
0.150430
31
0.0
0
LINE
8
TOP_HID
6
HIDDEN
10
0.299999
20
0.150430
30
0.0
11
0.299998
21
0.150669
31
0.0
0
LINE
8
TOP_HID
6
HIDDEN
10
0.299998
20
0.150669
30
0.0
11
0.299997
21
0.150907
31
0.0
0
LINE
8
TOP_HID
6
HIDDEN
10
0.299997
20
0.150907
30
0.0
11
0.299995
21
0.151146
31
0.0
0
LINE
8
TOP_HID
6
HIDDEN
10
0.299995
20
0.151146
30
0.0
11
0.299993
21
0.151384
31
0.0
0
LINE
8
TOP_HID
6
HIDDEN
10
0.299993
20
0.151384
30
0.0
11
0.299991
21
0.151623
31
0.0
0
LINE
8
TOP_HID
6
HIDDEN
10
0.299991
20
0.151623
30
0.0
11
0.299988
21
0.151861
31
0.0
0
LINE
8
TOP_HID
6
HIDDEN
10
0.299988
20
0.151861
30
0.0
11
0.299985
21
0.152100
31
0.0
0
LINE
8
TOP_HID
6
HIDDEN
10
0.299985
20
0.152100
30
0.0
11
0.299981
21
0.152338
31
0.0
0
LINE
8
TOP_HID
6
HIDDEN
10
0.299981
20
0.152338
30
0.0
11
0.299977
21
0.152577
31
0.0
0
LINE
8
TOP_HID
6
HIDDEN
10
0.299977
20
0.152577
30
0.0
11
0.299973
21
0.152815
31
0.0
0
LINE
8
TOP_HID
6
HIDDEN
10
0.299973
20
0.152815
30
0.0
11
0.299968
21
0.153054
31
0.0
0
LINE
8
TOP_HID
6
HIDDEN
10
0.299968
20
0.153054
30
0.0
11
0.299963
21
0.153292
31
0.0
0
LINE
8
TOP_HID
6
HIDDEN
10
0.299963
20
0.153292
30
0.0
11
0.299957
21
0.153530
31
0.0
0
LINE
8
TOP_HID
6
HIDDEN
10
0.299957
20
0.153530
30
0.0
11
0.299951
21
0.153769
31
0.0
0
LINE
8
TOP_HID
6
HIDDEN
10
0.299951
20
0.153769
30
0.0
11
0.299945
21
0.154007
31
0.0
0
LINE
8
TOP_HID
6
HIDDEN
10
0.299945
20
0.154007
30
0.0
11
0.299939
21
0.154246
31
0.0
0
LINE
8
TOP_HID
6
HIDDEN
10
0.299939
20
0.154246
30
0.0
11
0.299932
21
0.154484
31
0.0
0
LINE
8
TOP_HID
6
HIDDEN
10
0.299932
20
0.154484
30
0.0
11
0.299924
21
0.154722
31
0.0
0
LINE
8
TOP_HID
6
HIDDEN
10
0.299924
20
0.154722
30
0.0
11
0.299916
21
0.154961
31
0.0
0
LINE
8
TOP_HID
6
HIDDEN
10
0.299916
20
0.154961
30
0.0
11
0.299908
21
0.155199
31
0.0
0
LINE
8
TOP_HID
6
HIDDEN
10
0.299908
20
0.155199
30
0.0
11
0.299900
21
0.155438
31
0.0
0
LINE
8
TOP_HID
6
HIDDEN
10
0.299900
20
0.155438
30
0.0
11
0.299891
21
0.155676
31
0.0
0
LINE
8
TOP_HID
6
HIDDEN
10
0.299891
20
0.155676
30
0.0
11
0.299882
21
0.155914
31
0.0
0
LINE
8
TOP_HID
6
HIDDEN
10
0.299882
20
0.155914
30
0.0
11
0.299872
21
0.156152
31
0.0
0
LINE
8
TOP_HID
6
HIDDEN
10
0.299872
20
0.156152
30
0.0
11
0.299862
21
0.156391
31
0.0
0
LINE
8
TOP_HID
6
HIDDEN
10
0.299862
20
0.156391
30
0.0
11
0.299851
21
0.156629
31
0.0
0
LINE
8
TOP_HID
6
HIDDEN
10
0.299851
20
0.156629
30
0.0
11
0.299841
21
0.156867
31
0.0
0
LINE
8
TOP_HID
6
HIDDEN
10
0.299841
20
0.156867
30
0.0
11
0.299829
21
0.157105
31
0.0
0
LINE
8
TOP_HID
6
HIDDEN
10
0.299829
20
0.157105
30
0.0
11
0.299818
21
0.157344
31
0.0
0
LINE
8
TOP_HID
6
HIDDEN
10
0.299818
20
0.157344
30
0.0
11
0.299806
21
0.157582
31
0.0
0
LINE
8
TOP_HID
6
HIDDEN
10
0.299806
20
0.157582
30
0.0
11
0.299794
21
0.157820
31
0.0
0
LINE
8
TOP_HID
6
HIDDEN
10
0.299794
20
0.157820
30
0.0
11
0.299781
21
0.158058
31
0.0
0
LINE
8
TOP_HID
6
HIDDEN
10
0.299781
20
0.158058
30
0.0
11
0.299768
21
0.158296
31
0.0
0
LINE
8
TOP_HID
6
HIDDEN
10
0.299768
20
0.158296
30
0.0
11
0.299754
21
0.158534
31
0.0
0
LINE
8
TOP_HID
6
HIDDEN
10
0.299754
20
0.158534
30
0.0
11
0.299741
21
0.158773
31
0.0
0
LINE
8
TOP_HID
6
HIDDEN
10
0.299741
20
0.158773
30
0.0
11
0.299726
21
0.159011
31
0.0
0
LINE
8
TOP_HID
6
HIDDEN
10
0.299726
20
0.159011
30
0.0
11
0.299712
21
0.159249
31
0.0
0
LINE
8
TOP_HID
6
HIDDEN
10
0.299712
20
0.159249
30
0.0
11
0.299697
21
0.159487
31
0.0
0
LINE
8
TOP_HID
6
HIDDEN
10
0.299697
20
0.159487
30
0.0
11
0.299681
21
0.159725
31
0.0
0
LINE
8
TOP_HID
6
HIDDEN
10
0.299681
20
0.159725
30
0.0
11
0.299666
21
0.159963
31
0.0
0
LINE
8
TOP_HID
6
HIDDEN
10
0.299666
20
0.159963
30
0.0
11
0.299650
21
0.160201
31
0.0
0
LINE
8
TOP_HID
6
HIDDEN
10
0.299650
20
0.160201
30
0.0
11
0.299633
21
0.160439
31
0.0
0
LINE
8
TOP_HID
6
HIDDEN
10
0.299633
20
0.160439
30
0.0
11
0.299616
21
0.160676
31
0.0
0
LINE
8
TOP_HID
6
HIDDEN
10
0.299616
20
0.160676
30
0.0
11
0.299599
21
0.160914
31
0.0
0
LINE
8
TOP_HID
6
HIDDEN
10
0.299599
20
0.160914
30
0.0
11
0.299581
21
0.161152
31
0.0
0
LINE
8
TOP_HID
6
HIDDEN
10
0.299581
20
0.161152
30
0.0
11
0.299563
21
0.161390
31
0.0
0
LINE
8
TOP_HID
6
HIDDEN
10
0.299563
20
0.161390
30
0.0
11
0.299545
21
0.161628
31
0.0
0
LINE
8
TOP_HID
6
HIDDEN
10
0.299545
20
0.161628
30
0.0
11
0.299526
21
0.161866
31
0.0
0
LINE
8
TOP_HID
6
HIDDEN
10
0.299526
20
0.161866
30
0.0
11
0.299507
21
0.162103
31
0.0
0
LINE
8
TOP_HID
6
HIDDEN
10
0.299507
20
0.162103
30
0.0
11
0.299488
21
0.162341
31
0.0
0
LINE
8
TOP_HID
6
HIDDEN
10
0.299488
20
0.162341
30
0.0
11
0.299468
21
0.162579
31
0.0
0
LINE
8
TOP_HID
6
HIDDEN
10
0.299468
20
0.162579
30
0.0
11
0.299447
21
0.162816
31
0.0
0
LINE
8
TOP_HID
6
HIDDEN
10
0.299447
20
0.162816
30
0.0
11
0.299427
21
0.163054
31
0.0
0
LINE
8
TOP_HID
6
HIDDEN
10
0.299427
20
0.163054
30
0.0
11
0.299406
21
0.163291
31
0.0
0
LINE
8
TOP_HID
6
HIDDEN
10
0.299406
20
0.163291
30
0.0
11
0.299384
21
0.163529
31
0.0
0
LINE
8
TOP_HID
6
HIDDEN
10
0.299384
20
0.163529
30
0.0
11
0.299363
21
0.163766
31
0.0
0
LINE
8
TOP_HID
6
HIDDEN
10
0.299363
20
0.163766
30
0.0
11
0.299341
21
0.164004
31
0.0
0
LINE
8
TOP_HID
6
HIDDEN
10
0.299341
20
0.164004
30
0.0
11
0.299318
21
0.164241
31
0.0
0
LINE
8
TOP_HID
6
HIDDEN
10
0.299318
20
0.164241
30
0.0
11
0.299295
21
0.164479
31
0.0
0
LINE
8
TOP_HID
6
HIDDEN
10
0.299295
20
0.164479
30
0.0
11
0.299272
21
0.164716
31
0.0
0
LINE
8
TOP_HID
6
HIDDEN
10
0.299272
20
0.164716
30
0.0
11
0.299248
21
0.164953
31
0.0
0
LINE
8
TOP_HID
6
HIDDEN
10
0.299248
20
0.164953
30
0.0
11
0.299495
21
0.162256
31
0.0
0
LINE
8
TOP_HID
6
HIDDEN
10
0.000000
20
0.149953
30
0.0
11
0.000000
21
0.149715
31
0.0
0
LINE
8
TOP_HID
6
HIDDEN
10
0.000000
20
0.149715
30
0.0
11
0.000001
21
0.149476
31
0.0
0
LINE
8
TOP_HID
6
HIDDEN
10
0.000001
20
0.149476
30
0.0
11
0.000002
21
0.149238
31
0.0
0
LINE
8
TOP_HID
6
HIDDEN
10
0.000002
20
0.149238
30
0.0
11
0.000003
21
0.148999
31
0.0
0
LINE
8
TOP_HID
6
HIDDEN
10
0.000003
20
0.148999
30
0.0
11
0.000005
21
0.148761
31
0.0
0
LINE
8
TOP_HID
6
HIDDEN
10
0.000005
20
0.148761
30
0.0
11
0.000007
21
0.148522
31
0.0
0
LINE
8
TOP_HID
6
HIDDEN
10
0.000007
20
0.148522
30
0.0
11
0.000009
21
0.148284
31
0.0
0
LINE
8
TOP_HID
6
HIDDEN
10
0.000009
20
0.148284
30
0.0
11
0.000012
21
0.148045
31
0.0
0
LINE
8
TOP_HID
6
HIDDEN
10
0.000012
20
0.148045
30
0.0
11
0.000015
21
0.147807
31
0.0
0
LINE
8
TOP_HID
6
HIDDEN
10
0.000015
20
0.147807
30
0.0
11
0.000019
21
0.147569
31
0.0
0
LINE
8
TOP_HID
6
HIDDEN
10
0.000019
20
0.147569
30
0.0
11
0.000023
21
0.147330
31
0.0
0
LINE
8
TOP_HID
6
HIDDEN
10
0.000023
20
0.147330
30
0.0
11
0.000027
21
0.147092
31
0.0
0
LINE
8
TOP_HID
6
HIDDEN
10
0.000027
20
0.147092
30
0.0
11
0.000032
21
0.146853
31
0.0
0
LINE
8
TOP_HID
6
HIDDEN
10
0.000032
20
0.146853
30
0.0
11
0.000037
21
0.146615
31
0.0
0
LINE
8
TOP_HID
6
HIDDEN
10
0.000037
20
0.146615
30
0.0
11
0.000043
21
0.146376
31
0.0
0
LINE
8
TOP_HID
6
HIDDEN
10
0.000043
20
0.146376
30
0.0
11
0.000049
21
0.146138
31
0.0
0
LINE
8
TOP_HID
6
HIDDEN
10
0.000049
20
0.146138
30
0.0
11
0.000055
21
0.145899
31
0.0
0
LINE
8
TOP_HID
6
HIDDEN
10
0.000055
20
0.145899
30
0.0
11
0.000061
21
0.145661
31
0.0
0
LINE
8
TOP_HID
6
HIDDEN
10
0.000061
20
0.145661
30
0.0
11
0.000068
21
0.145423
31
0.0
0
LINE
8
TOP_HID
6
HIDDEN
10
0.000068
20
0.145423
30
0.0
11
0.000076
21
0.145184
31
0.0
0
LINE
8
TOP_HID
6
HIDDEN
10
0.000076
20
0.145184
30
0.0
11
0.000084
21
0.144946
31
0.0
0
LINE
8
TOP_HID
6
HIDDEN
10
0.000084
20
0.144946
30
0.0
11
0.000092
21
0.144708
31
0.0
0
LINE
8
TOP_HID
6
HIDDEN
10
0.000092
20
0.144708
30
0.0
11
0.000100
21
0.144469
31
0.0
0
LINE
8
TOP_HID
6
HIDDEN
10
0.000100
20
0.144469
30
0.0
11
0.000109
21
0.144231
31
0.0
0
LINE
8
TOP_HID
6
HIDDEN
10
0.000109
20
0.144231
30
0.0
11
0.000118
21
0.143993
31
0.0
0
LINE
8
TOP_HID
6
HIDDEN
10
0.000118
20
0.143993
30
0.0
11
0.000128
21
0.143754
31
0.0
0
LINE
8
TOP_HID
6
HIDDEN
10
0.000128
20
0.143754
30
0.0
11
0.000138
21
0.143516
31
0.0
0
LINE
8
TOP_HID
6
HIDDEN
10
0.000138
20
0.143516
30
0.0
11
0.000149
21
0.143278
31
0.0
0
LINE
8
TOP_HID
6
HIDDEN
10
0.000149
20
0.143278
30
0.0
11
0.000159
21
0.143040
31
0.0
0
LINE
8
TOP_HID
6
HIDDEN
10
0.000159
20
0.143040
30
0.0
11
0.000171
21
0.142801
31
0.0
0
LINE
8
TOP_HID
6
HIDDEN
10
0.000171
20
0.142801
30
0.0
11
0.000182
21
0.142563
31
0.0
0
LINE
8
TOP_HID
6
HIDDEN
10
0.000182
20
0.142563
30
0.0
11
0.000194
21
0.142325
31
0.0
0
LINE
8
TOP_HID
6
HIDDEN
10
0.000194
20
0.142325
30
0.0
11
0.000206
21
0.142087
31
0.0
0
LINE
8
TOP_HID
6
HIDDEN
10
0.000206
20
0.142087
30
0.0
11
0.000219
21
0.141849
31
0.0
0
LINE
8
TOP_HID
6
HIDDEN
10
0.000219
20
0.141849
30
0.0
11
0.000232
21
0.141610
31
0.0
0
LINE
8
TOP_HID
6
HIDDEN
10
0.000232
20
0.141610
30
0.0
11
0.000246
21
0.141372
31
0.0
0
LINE
8
TOP_HID
6
HIDDEN
10
0.000246
20
0.141372
30
0.0
11
0.000259
21
0.141134
31
0.0
0
LINE
8
TOP_HID
6
HIDDEN
10
0.000259
20
0.141134
30
0.0
11
0.000274
21
0.140896
31
0.0
0
LINE
8
TOP_HID
6
HIDDEN
10
0.000274
20
0.140896
30
0.0
11
0.000288
21
0.140658
31
0.0
0
LINE
8
TOP_HID
6
HIDDEN
10
0.000288
20
0.140658
30
0.0
11
0.000303
21
0.140420
31
0.0
0
LINE
8
TOP_HID
6
HIDDEN
10
0.000303
20
0.140420
30
0.0
11
0.000319
21
0.140182
31
0.0
0
LINE
8
TOP_HID
6
HIDDEN
10
0.000319
20
0.140182
30
0.0
11
0.000334
21
0.139944
31
0.0
0
LINE
8
TOP_HID
6
HIDDEN
10
0.000334
20
0.139944
30
0.0
11
0.000350
21
0.139706
31
0.0
0
LINE
8
TOP_HID
6
HIDDEN
10
0.000350
20
0.139706
30
0.0
11
0.000367
21
0.139468
31
0.0
0
LINE
8
TOP_HID
6
HIDDEN
10
0.000367
20
0.139468
30
0.0
11
0.000384
21
0.139230
31
0.0
0
LINE
8
TOP_HID
6
HIDDEN
10
0.000384
20
0.139230
30
0.0
11
0.000401
21
0.138992
31
0.0
0
LINE
8
TOP_HID
6
HIDDEN
10
0.000401
20
0.138992
30
0.0
11
0.000419
21
0.138755
31
0.0
0
LINE
8
TOP_HID
6
HIDDEN
10
0.000419
20
0.138755
30
0.0
11
0.000437
21
0.138517
31
0.0
0
LINE
8
TOP_HID
6
HIDDEN
10
0.000437
20
0.138517
30
0.0
11
0.000455
21
0.138279
31
0.0
0
LINE
8
TOP_HID
6
HIDDEN
10
0.000455
20
0.138279
30
0.0
11
0.000474
21
0.138041
31
0.0
0
LINE
8
TOP_HID
6
HIDDEN
10
0.000474
20
0.138041
30
0.0
11
0.000493
21
0.137804
31
0.0
0
LINE
8
TOP_HID
6
HIDDEN
10
0.000493
20
0.137804
30
0.0
11
0.000512
21
0.137566
31
0.0
0
LINE
8
TOP_HID
6
HIDDEN
10
0.000512
20
0.137566
30
0.0
11
0.000532
21
0.137328
31
0.0
0
LINE
8
TOP_HID
6
HIDDEN
10
0.000532
20
0.137328
30
0.0
11
0.000553
21
0.137091
31
0.0
0
LINE
8
TOP_HID
6
HIDDEN
10
0.000553
20
0.137091
30
0.0
11
0.000573
21
0.136853
31
0.0
0
LINE
8
TOP_HID
6
HIDDEN
10
0.000573
20
0.136853
30
0.0
11
0.000594
21
0.136615
31
0.0
0
LINE
8
TOP_HID
6
HIDDEN
10
0.000594
20
0.136615
30
0.0
11
0.000616
21
0.136378
31
0.0
0
LINE
8
TOP_HID
6
HIDDEN
10
0.000616
20
0.136378
30
0.0
11
0.000637
21
0.136140
31
0.0
0
LINE
8
TOP_HID
6
HIDDEN
10
0.000637
20
0.136140
30
0.0
11
0.000659
21
0.135903
31
0.0
0
LINE
8
TOP_HID
6
HIDDEN
10
0.000659
20
0.135903
30
0.0
11
0.000682
21
0.135665
31
0.0
0
LINE
8
TOP_HID
6
HIDDEN
10
0.000682
20
0.135665
30
0.0
11
0.000705
21
0.135428
31
0.0
0
LINE
8
TOP_HID
6
HIDDEN
10
0.000705
20
0.135428
30
0.0
11
0.000728
21
0.135191
31
0.0
0
LINE
8
TOP_HID
6
HIDDEN
10
0.000728
20
0.135191
30
0.0
11
0.000752
21
0.134953
31
0.0
0
LINE
8
TOP_HID
6
HIDDEN
10
0.000752
20
0.134953
30
0.0
11
0.000705
21
0.135428
31
0.0
0
LINE
8
TOP_HID
6
HIDDEN
10
0.000705
20
0.135428
30
0.0
11
0.000660
21
0.135903
31
0.0
0
LINE
8
TOP_HID
6
HIDDEN
10
0.000660
20
0.135903
30
0.0
11
0.000616
21
0.136378
31
0.0
0
LINE
8
TOP_HID
6
HIDDEN
10
0.000616
20
0.136378
30
0.0
11
0.000573
21
0.136853
31
0.0
0
LINE
8
TOP_HID
6
HIDDEN
10
0.000573
20
0.136853
30
0.0
11
0.000532
21
0.137328
31
0.0
0
LINE
8
TOP_HID
6
HIDDEN
10
0.000532
20
0.137328
30
0.0
11
0.000493
21
0.137804
31
0.0
0
LINE
8
TOP_HID
6
HIDDEN
10
0.000493
20
0.137804
30
0.0
11
0.000455
21
0.138279
31
0.0
0
LINE
8
TOP_HID
6
HIDDEN
10
0.000455
20
0.138279
30
0.0
11
0.000419
21
0.138755
31
0.0
0
LINE
8
TOP_HID
6
HIDDEN
10
0.000419
20
0.138755
30
0.0
11
0.000384
21
0.139230
31
0.0
0
LINE
8
TOP_HID
6
HIDDEN
10
0.000384
20
0.139230
30
0.0
11
0.000350
21
0.139706
31
0.0
0
LINE
8
TOP_HID
6
HIDDEN
10
0.000350
20
0.139706
30
0.0
11
0.000319
21
0.140182
31
0.0
0
LINE
8
TOP_HID
6
HIDDEN
10
0.000319
20
0.140182
30
0.0
11
0.000288
21
0.140658
31
0.0
0
LINE
8
TOP_HID
6
HIDDEN
10
0.000288
20
0.140658
30
0.0
11
0.000259
21
0.141134
31
0.0
0
LINE
8
TOP_HID
6
HIDDEN
10
0.000259
20
0.141134
30
0.0
11
0.000232
21
0.141610
31
0.0
0
LINE
8
TOP_HID
6
HIDDEN
10
0.000232
20
0.141610
30
0.0
11
0.000206
21
0.142087
31
0.0
0
LINE
8
TOP_HID
6
HIDDEN
10
0.000206
20
0.142087
30
0.0
11
0.000182
21
0.142563
31
0.0
0
LINE
8
TOP_HID
6
HIDDEN
10
0.000182
20
0.142563
30
0.0
11
0.000159
21
0.143040
31
0.0
0
LINE
8
TOP_HID
6
HIDDEN
10
0.000159
20
0.143040
30
0.0
11
0.000138
21
0.143516
31
0.0
0
LINE
8
TOP_HID
6
HIDDEN
10
0.000138
20
0.143516
30
0.0
11
0.000118
21
0.143993
31
0.0
0
LINE
8
TOP_HID
6
HIDDEN
10
0.000118
20
0.143993
30
0.0
11
0.000100
21
0.144469
31
0.0
0
LINE
8
TOP_HID
6
HIDDEN
10
0.000100
20
0.144469
30
0.0
11
0.000084
21
0.144946
31
0.0
0
LINE
8
TOP_HID
6
HIDDEN
10
0.000084
20
0.144946
30
0.0
11
0.000068
21
0.145423
31
0.0
0
LINE
8
TOP_HID
6
HIDDEN
10
0.000068
20
0.145423
30
0.0
11
0.000055
21
0.145899
31
0.0
0
LINE
8
TOP_HID
6
HIDDEN
10
0.000055
20
0.145899
30
0.0
11
0.000043
21
0.146376
31
0.0
0
LINE
8
TOP_HID
6
HIDDEN
10
0.000043
20
0.146376
30
0.0
11
0.000032
21
0.146853
31
0.0
0
LINE
8
TOP_HID
6
HIDDEN
10
0.000032
20
0.146853
30
0.0
11
0.000023
21
0.147330
31
0.0
0
LINE
8
TOP_HID
6
HIDDEN
10
0.000023
20
0.147330
30
0.0
11
0.000015
21
0.147807
31
0.0
0
LINE
8
TOP_HID
6
HIDDEN
10
0.000015
20
0.147807
30
0.0
11
0.000009
21
0.148284
31
0.0
0
LINE
8
TOP_HID
6
HIDDEN
10
0.000009
20
0.148284
30
0.0
11
0.000005
21
0.148761
31
0.0
0
LINE
8
TOP_HID
6
HIDDEN
10
0.000005
20
0.148761
30
0.0
11
0.000002
21
0.149238
31
0.0
0
LINE
8
TOP_HID
6
HIDDEN
10
0.000002
20
0.149238
30
0.0
11
0.000000
21
0.149715
31
0.0
0
LINE
8
TOP_HID
6
HIDDEN
10
0.000000
20
0.149715
30
0.0
11
0.000000
21
0.150192
31
0.0
0
LINE
8
TOP_HID
6
HIDDEN
10
0.000000
20
0.150192
30
0.0
11
0.000002
21
0.150669
31
0.0
0
LINE
8
TOP_HID
6
HIDDEN
10
0.000002
20
0.150669
30
0.0
11
0.000005
21
0.151146
31
0.0
0
LINE
8
TOP_HID
6
HIDDEN
10
0.000005
20
0.151146
30
0.0
11
0.000009
21
0.151623
31
0.0
0
LINE
8
TOP_HID
6
HIDDEN
10
0.000009
20
0.151623
30
0.0
11
0.000015
21
0.152100
31
0.0
0
LINE
8
TOP_HID
6
HIDDEN
10
0.000015
20
0.152100
30
0.0
11
0.000023
21
0.152577
31
0.0
0
LINE
8
TOP_HID
6
HIDDEN
10
0.000023
20
0.152577
30
0.0
11
0.000032
21
0.153054
31
0.0
0
LINE
8
TOP_HID
6
HIDDEN
10
0.000032
20
0.153054
30
0.0
11
0.000043
21
0.153530
31
0.0
0
LINE
8
TOP_HID
6
HIDDEN
10
0.000043
20
0.153530
30
0.0
11
0.000055
21
0.154007
31
0.0
0
LINE
8
TOP_HID
6
HIDDEN
10
0.000055
20
0.154007
30
0.0
11
0.000068
21
0.154484
31
0.0
0
LINE
8
TOP_HID
6
HIDDEN
10
0.000068
20
0.154484
30
0.0
11
0.000084
21
0.154961
31
0.0
0
LINE
8
TOP_HID
6
HIDDEN
10
0.000084
20
0.154961
30
0.0
11
0.000100
21
0.155438
31
0.0
0
LINE
8
TOP_HID
6
HIDDEN
10
0.000100
20
0.155438
30
0.0
11
0.000118
21
0.155914
31
0.0
0
LINE
8
TOP_HID
6
HIDDEN
10
0.000118
20
0.155914
30
0.0
11
0.000138
21
0.156391
31
0.0
0
LINE
8
TOP_HID
6
HIDDEN
10
0.000138
20
0.156391
30
0.0
11
0.000159
21
0.156867
31
0.0
0
LINE
8
TOP_HID
6
HIDDEN
10
0.000159
20
0.156867
30
0.0
11
0.000182
21
0.157344
31
0.0
0
LINE
8
TOP_HID
6
HIDDEN
10
0.000182
20
0.157344
30
0.0
11
0.000206
21
0.157820
31
0.0
0
LINE
8
TOP_HID
6
HIDDEN
10
0.000206
20
0.157820
30
0.0
11
0.000232
21
0.158296
31
0.0
0
LINE
8
TOP_HID
6
HIDDEN
10
0.000232
20
0.158296
30
0.0
11
0.000259
21
0.158773
31
0.0
0
LINE
8
TOP_HID
6
HIDDEN
10
0.000259
20
0.158773
30
0.0
11
0.000288
21
0.159249
31
0.0
0
LINE
8
TOP_HID
6
HIDDEN
10
0.000288
20
0.159249
30
0.0
11
0.000319
21
0.159725
31
0.0
0
LINE
8
TOP_HID
6
HIDDEN
10
0.000319
20
0.159725
30
0.0
11
0.000350
21
0.160201
31
0.0
0
LINE
8
TOP_HID
6
HIDDEN
10
0.000350
20
0.160201
30
0.0
11
0.000384
21
0.160676
31
0.0
0
LINE
8
TOP_HID
6
HIDDEN
10
0.000384
20
0.160676
30
0.0
11
0.000419
21
0.161152
31
0.0
0
LINE
8
TOP_HID
6
HIDDEN
10
0.000419
20
0.161152
30
0.0
11
0.000455
21
0.161628
31
0.0
0
LINE
8
TOP_HID
6
HIDDEN
10
0.000455
20
0.161628
30
0.0
11
0.000493
21
0.162103
31
0.0
0
LINE
8
TOP_HID
6
HIDDEN
10
0.000493
20
0.162103
30
0.0
11
0.000532
21
0.162579
31
0.0
0
LINE
8
TOP_HID
6
HIDDEN
10
0.000532
20
0.162579
30
0.0
11
0.000573
21
0.163054
31
0.0
0
LINE
8
TOP_HID
6
HIDDEN
10
0.000573
20
0.163054
30
0.0
11
0.000616
21
0.163529
31
0.0
0
LINE
8
TOP_HID
6
HIDDEN
10
0.000616
20
0.163529
30
0.0
11
0.000659
21
0.164004
31
0.0
0
LINE
8
TOP_HID
6
HIDDEN
10
0.000659
20
0.164004
30
0.0
11
0.000705
21
0.164479
31
0.0
0
LINE
8
TOP_HID
6
HIDDEN
10
0.000705
20
0.164479
30
0.0
11
0.000752
21
0.164953
31
0.0
0
LINE
8
TOP_HID
6
HIDDEN
10
0.000752
20
0.164953
30
0.0
11
0.000728
21
0.164716
31
0.0
0
LINE
8
TOP_HID
6
HIDDEN
10
0.000728
20
0.164716
30
0.0
11
0.000705
21
0.164479
31
0.0
0
LINE
8
TOP_HID
6
HIDDEN
10
0.000705
20
0.164479
30
0.0
11
0.000682
21
0.164241
31
0.0
0
LINE
8
TOP_HID
6
HIDDEN
10
0.000682
20
0.164241
30
0.0
11
0.000660
21
0.164004
31
0.0
0
LINE
8
TOP_HID
6
HIDDEN
10
0.000660
20
0.164004
30
0.0
11
0.000637
21
0.163766
31
0.0
0
LINE
8
TOP_HID
6
HIDDEN
10
0.000637
20
0.163766
30
0.0
11
0.000616
21
0.163529
31
0.0
0
LINE
8
TOP_HID
6
HIDDEN
10
0.000616
20
0.163529
30
0.0
11
0.000594
21
0.163291
31
0.0
0
LINE
8
TOP_HID
6
HIDDEN
10
0.000594
20
0.163291
30
0.0
11
0.000573
21
0.163054
31
0.0
0
LINE
8
TOP_HID
6
HIDDEN
10
0.000573
20
0.163054
30
0.0
11
0.000553
21
0.162816
31
0.0
0
LINE
8
TOP_HID
6
HIDDEN
10
0.000553
20
0.162816
30
0.0
11
0.000532
21
0.162579
31
0.0
0
LINE
8
TOP_HID
6
HIDDEN
10
0.000532
20
0.162579
30
0.0
11
0.000512
21
0.162341
31
0.0
0
LINE
8
TOP_HID
6
HIDDEN
10
0.000512
20
0.162341
30
0.0
11
0.000493
21
0.162103
31
0.0
0
LINE
8
TOP_HID
6
HIDDEN
10
0.000493
20
0.162103
30
0.0
11
0.000474
21
0.161866
31
0.0
0
LINE
8
TOP_HID
6
HIDDEN
10
0.000474
20
0.161866
30
0.0
11
0.000455
21
0.161628
31
0.0
0
LINE
8
TOP_HID
6
HIDDEN
10
0.000455
20
0.161628
30
0.0
11
0.000437
21
0.161390
31
0.0
0
LINE
8
TOP_HID
6
HIDDEN
10
0.000437
20
0.161390
30
0.0
11
0.000419
21
0.161152
31
0.0
0
LINE
8
TOP_HID
6
HIDDEN
10
0.000419
20
0.161152
30
0.0
11
0.000401
21
0.160914
31
0.0
0
LINE
8
TOP_HID
6
HIDDEN
10
0.000401
20
0.160914
30
0.0
11
0.000384
21
0.160676
31
0.0
0
LINE
8
TOP_HID
6
HIDDEN
10
0.000384
20
0.160676
30
0.0
11
0.000367
21
0.160439
31
0.0
0
LINE
8
TOP_HID
6
HIDDEN
10
0.000367
20
0.160439
30
0.0
11
0.000350
21
0.160201
31
0.0
0
LINE
8
TOP_HID
6
HIDDEN
10
0.000350
20
0.160201
30
0.0
11
0.000334
21
0.159963
31
0.0
0
LINE
8
TOP_HID
6
HIDDEN
10
0.000334
20
0.159963
30
0.0
11
0.000319
21
0.159725
31
0.0
0
LINE
8
TOP_HID
6
HIDDEN
10
0.000319
20
0.159725
30
0.0
11
0.000303
21
0.159487
31
0.0
0
LINE
8
TOP_HID
6
HIDDEN
10
0.000303
20
0.159487
30
0.0
11
0.000288
21
0.159249
31
0.0
0
LINE
8
TOP_HID
6
HIDDEN
10
0.000288
20
0.159249
30
0.0
11
0.000274
21
0.159011
31
0.0
0
LINE
8
TOP_HID
6
HIDDEN
10
0.000274
20
0.159011
30
0.0
11
0.000259
21
0.158773
31
0.0
0
LINE
8
TOP_HID
6
HIDDEN
10
0.000259
20
0.158773
30
0.0
11
0.000246
21
0.158534
31
0.0
0
LINE
8
TOP_HID
6
HIDDEN
10
0.000246
20
0.158534
30
0.0
11
0.000232
21
0.158296
31
0.0
0
LINE
8
TOP_HID
6
HIDDEN
10
0.000232
20
0.158296
30
0.0
11
0.000219
21
0.158058
31
0.0
0
LINE
8
TOP_HID
6
HIDDEN
10
0.000219
20
0.158058
30
0.0
11
0.000206
21
0.157820
31
0.0
0
LINE
8
TOP_HID
6
HIDDEN
10
0.000206
20
0.157820
30
0.0
11
0.000194
21
0.157582
31
0.0
0
LINE
8
TOP_HID
6
HIDDEN
10
0.000194
20
0.157582
30
0.0
11
0.000182
21
0.157344
31
0.0
0
LINE
8
TOP_HID
6
HIDDEN
10
0.000182
20
0.157344
30
0.0
11
0.000171
21
0.157105
31
0.0
0
LINE
8
TOP_HID
6
HIDDEN
10
0.000171
20
0.157105
30
0.0
11
0.000159
21
0.156867
31
0.0
0
LINE
8
TOP_HID
6
HIDDEN
10
0.000159
20
0.156867
30
0.0
11
0.000149
21
0.156629
31
0.0
0
LINE
8
TOP_HID
6
HIDDEN
10
0.000149
20
0.156629
30
0.0
11
0.000138
21
0.156391
31
0.0
0
LINE
8
TOP_HID
6
HIDDEN
10
0.000138
20
0.156391
30
0.0
11
0.000128
21
0.156152
31
0.0
0
LINE
8
TOP_HID
6
HIDDEN
10
0.000128
20
0.156152
30
0.0
11
0.000118
21
0.155914
31
0.0
0
LINE
8
TOP_HID
6
HIDDEN
10
0.000118
20
0.155914
30
0.0
11
0.000109
21
0.155676
31
0.0
0
LINE
8
TOP_HID
6
HIDDEN
10
0.000109
20
0.155676
30
0.0
11
0.000100
21
0.155438
31
0.0
0
LINE
8
TOP_HID
6
HIDDEN
10
0.000100
20
0.155438
30
0.0
11
0.000092
21
0.155199
31
0.0
0
LINE
8
TOP_HID
6
HIDDEN
10
0.000092
20
0.155199
30
0.0
11
0.000084
21
0.154961
31
0.0
0
LINE
8
TOP_HID
6
HIDDEN
10
0.000084
20
0.154961
30
0.0
11
0.000076
21
0.154722
31
0.0
0
LINE
8
TOP_HID
6
HIDDEN
10
0.000076
20
0.154722
30
0.0
11
0.000068
21
0.154484
31
0.0
0
LINE
8
TOP_HID
6
HIDDEN
10
0.000068
20
0.154484
30
0.0
11
0.000061
21
0.154246
31
0.0
0
LINE
8
TOP_HID
6
HIDDEN
10
0.000061
20
0.154246
30
0.0
11
0.000055
21
0.154007
31
0.0
0
LINE
8
TOP_HID
6
HIDDEN
10
0.000055
20
0.154007
30
0.0
11
0.000049
21
0.153769
31
0.0
0
LINE
8
TOP_HID
6
HIDDEN
10
0.000049
20
0.153769
30
0.0
11
0.000043
21
0.153530
31
0.0
0
LINE
8
TOP_HID
6
HIDDEN
10
0.000043
20
0.153530
30
0.0
11
0.000037
21
0.153292
31
0.0
0
LINE
8
TOP_HID
6
HIDDEN
10
0.000037
20
0.153292
30
0.0
11
0.000032
21
0.153054
31
0.0
0
LINE
8
TOP_HID
6
HIDDEN
10
0.000032
20
0.153054
30
0.0
11
0.000027
21
0.152815
31
0.0
0
LINE
8
TOP_HID
6
HIDDEN
10
0.000027
20
0.152815
30
0.0
11
0.000023
21
0.152577
31
0.0
0
LINE
8
TOP_HID
6
HIDDEN
10
0.000023
20
0.152577
30
0.0
11
0.000019
21
0.152338
31
0.0
0
LINE
8
TOP_HID
6
HIDDEN
10
0.000019
20
0.152338
30
0.0
11
0.000015
21
0.152100
31
0.0
0
LINE
8
TOP_HID
6
HIDDEN
10
0.000015
20
0.152100
30
0.0
11
0.000012
21
0.151861
31
0.0
0
LINE
8
TOP_HID
6
HIDDEN
10
0.000012
20
0.151861
30
0.0
11
0.000009
21
0.151623
31
0.0
0
LINE
8
TOP_HID
6
HIDDEN
10
0.000009
20
0.151623
30
0.0
11
0.000007
21
0.151384
31
0.0
0
LINE
8
TOP_HID
6
HIDDEN
10
0.000007
20
0.151384
30
0.0
11
0.000005
21
0.151146
31
0.0
0
LINE
8
TOP_HID
6
HIDDEN
10
0.000005
20
0.151146
30
0.0
11
0.000003
21
0.150907
31
0.0
0
LINE
8
TOP_HID
6
HIDDEN
10
0.000003
20
0.150907
30
0.0
11
0.000002
21
0.150669
31
0.0
0
LINE
8
TOP_HID
6
HIDDEN
10
0.000002
20
0.150669
30
0.0
11
0.000001
21
0.150430
31
0.0
0
LINE
8
TOP_HID
6
HIDDEN
10
0.000001
20
0.150430
30
0.0
11
0.000000
21
0.150192
31
0.0
0
LINE
8
TOP_HID
6
HIDDEN
10
0.000000
20
0.150192
30
0.0
11
0.000000
21
0.149953
31
0.0
0
LINE
8
TOP_HID
6
HIDDEN
10
0.291000
20
0.150049
30
0.0
11
0.291000
21
0.150050
31
0.0
0
LINE
8
TOP_HID
6
HIDDEN
10
0.290904
20
0.155148
30
0.0
11
0.291000
21
0.149953
31
0.0
0
LINE
8
TOP_HID
6
HIDDEN
10
0.290328
20
0.136199
30
0.0
11
0.290200
21
0.134953
31
0.0
0
LINE
8
TOP_HID
6
HIDDEN
10
0.290200
20
0.134953
30
0.0
11
0.290225
21
0.135191
31
0.0
0
LINE
8
TOP_HID
6
HIDDEN
10
0.290225
20
0.135191
30
0.0
11
0.290250
21
0.135428
31
0.0
0
LINE
8
TOP_HID
6
HIDDEN
10
0.290250
20
0.135428
30
0.0
11
0.290274
21
0.135665
31
0.0
0
LINE
8
TOP_HID
6
HIDDEN
10
0.290274
20
0.135665
30
0.0
11
0.290298
21
0.135902
31
0.0
0
LINE
8
TOP_HID
6
HIDDEN
10
0.290298
20
0.135902
30
0.0
11
0.290322
21
0.136140
31
0.0
0
LINE
8
TOP_HID
6
HIDDEN
10
0.290322
20
0.136140
30
0.0
11
0.290345
21
0.136377
31
0.0
0
LINE
8
TOP_HID
6
HIDDEN
10
0.290345
20
0.136377
30
0.0
11
0.290368
21
0.136615
31
0.0
0
LINE
8
TOP_HID
6
HIDDEN
10
0.290368
20
0.136615
30
0.0
11
0.290390
21
0.136852
31
0.0
0
LINE
8
TOP_HID
6
HIDDEN
10
0.290390
20
0.136852
30
0.0
11
0.290412
21
0.137090
31
0.0
0
LINE
8
TOP_HID
6
HIDDEN
10
0.290412
20
0.137090
30
0.0
11
0.290434
21
0.137327
31
0.0
0
LINE
8
TOP_HID
6
HIDDEN
10
0.290434
20
0.137327
30
0.0
11
0.290455
21
0.137565
31
0.0
0
LINE
8
TOP_HID
6
HIDDEN
10
0.290455
20
0.137565
30
0.0
11
0.290475
21
0.137803
31
0.0
0
LINE
8
TOP_HID
6
HIDDEN
10
0.290475
20
0.137803
30
0.0
11
0.290496
21
0.138040
31
0.0
0
LINE
8
TOP_HID
6
HIDDEN
10
0.290496
20
0.138040
30
0.0
11
0.290516
21
0.138278
31
0.0
0
LINE
8
TOP_HID
6
HIDDEN
10
0.290516
20
0.138278
30
0.0
11
0.290535
21
0.138516
31
0.0
0
LINE
8
TOP_HID
6
HIDDEN
10
0.290535
20
0.138516
30
0.0
11
0.290554
21
0.138753
31
0.0
0
LINE
8
TOP_HID
6
HIDDEN
10
0.290554
20
0.138753
30
0.0
11
0.290573
21
0.138991
31
0.0
0
LINE
8
TOP_HID
6
HIDDEN
10
0.290573
20
0.138991
30
0.0
11
0.290592
21
0.139229
31
0.0
0
LINE
8
TOP_HID
6
HIDDEN
10
0.290592
20
0.139229
30
0.0
11
0.290610
21
0.139467
31
0.0
0
LINE
8
TOP_HID
6
HIDDEN
10
0.290610
20
0.139467
30
0.0
11
0.290627
21
0.139705
31
0.0
0
LINE
8
TOP_HID
6
HIDDEN
10
0.290627
20
0.139705
30
0.0
11
0.290644
21
0.139943
31
0.0
0
LINE
8
TOP_HID
6
HIDDEN
10
0.290644
20
0.139943
30
0.0
11
0.290661
21
0.140181
31
0.0
0
LINE
8
TOP_HID
6
HIDDEN
10
0.290661
20
0.140181
30
0.0
11
0.290677
21
0.140419
31
0.0
0
LINE
8
TOP_HID
6
HIDDEN
10
0.290677
20
0.140419
30
0.0
11
0.290693
21
0.140657
31
0.0
0
LINE
8
TOP_HID
6
HIDDEN
10
0.290693
20
0.140657
30
0.0
11
0.290709
21
0.140895
31
0.0
0
LINE
8
TOP_HID
6
HIDDEN
10
0.290709
20
0.140895
30
0.0
11
0.290724
21
0.141133
31
0.0
0
LINE
8
TOP_HID
6
HIDDEN
10
0.290724
20
0.141133
30
0.0
11
0.290739
21
0.141371
31
0.0
0
LINE
8
TOP_HID
6
HIDDEN
10
0.290739
20
0.141371
30
0.0
11
0.290753
21
0.141609
31
0.0
0
LINE
8
TOP_HID
6
HIDDEN
10
0.290753
20
0.141609
30
0.0
11
0.290767
21
0.141847
31
0.0
0
LINE
8
TOP_HID
6
HIDDEN
10
0.290767
20
0.141847
30
0.0
11
0.290780
21
0.142085
31
0.0
0
LINE
8
TOP_HID
6
HIDDEN
10
0.290780
20
0.142085
30
0.0
11
0.290793
21
0.142324
31
0.0
0
LINE
8
TOP_HID
6
HIDDEN
10
0.290793
20
0.142324
30
0.0
11
0.290806
21
0.142562
31
0.0
0
LINE
8
TOP_HID
6
HIDDEN
10
0.290806
20
0.142562
30
0.0
11
0.290818
21
0.142800
31
0.0
0
LINE
8
TOP_HID
6
HIDDEN
10
0.290818
20
0.142800
30
0.0
11
0.290830
21
0.143038
31
0.0
0
LINE
8
TOP_HID
6
HIDDEN
10
0.290830
20
0.143038
30
0.0
11
0.290842
21
0.143277
31
0.0
0
LINE
8
TOP_HID
6
HIDDEN
10
0.290842
20
0.143277
30
0.0
11
0.290853
21
0.143515
31
0.0
0
LINE
8
TOP_HID
6
HIDDEN
10
0.290853
20
0.143515
30
0.0
11
0.290864
21
0.143753
31
0.0
0
LINE
8
TOP_HID
6
HIDDEN
10
0.290864
20
0.143753
30
0.0
11
0.290874
21
0.143991
31
0.0
0
LINE
8
TOP_HID
6
HIDDEN
10
0.290874
20
0.143991
30
0.0
11
0.290884
21
0.144230
31
0.0
0
LINE
8
TOP_HID
6
HIDDEN
10
0.290884
20
0.144230
30
0.0
11
0.290893
21
0.144468
31
0.0
0
LINE
8
TOP_HID
6
HIDDEN
10
0.290893
20
0.144468
30
0.0
11
0.290902
21
0.144707
31
0.0
0
LINE
8
TOP_HID
6
HIDDEN
10
0.290902
20
0.144707
30
0.0
11
0.290911
21
0.144945
31
0.0
0
LINE
8
TOP_HID
6
HIDDEN
10
0.290911
20
0.144945
30
0.0
11
0.290919
21
0.145183
31
0.0
0
LINE
8
TOP_HID
6
HIDDEN
10
0.290919
20
0.145183
30
0.0
11
0.290927
21
0.145422
31
0.0
0
LINE
8
TOP_HID
6
HIDDEN
10
0.290927
20
0.145422
30
0.0
11
0.290935
21
0.145660
31
0.0
0
LINE
8
TOP_HID
6
HIDDEN
10
0.290935
20
0.145660
30
0.0
11
0.290942
21
0.145899
31
0.0
0
LINE
8
TOP_HID
6
HIDDEN
10
0.290942
20
0.145899
30
0.0
11
0.290948
21
0.146137
31
0.0
0
LINE
8
TOP_HID
6
HIDDEN
10
0.290948
20
0.146137
30
0.0
11
0.290955
21
0.146376
31
0.0
0
LINE
8
TOP_HID
6
HIDDEN
10
0.290955
20
0.146376
30
0.0
11
0.290960
21
0.146614
31
0.0
0
LINE
8
TOP_HID
6
HIDDEN
10
0.290960
20
0.146614
30
0.0
11
0.290966
21
0.146853
31
0.0
0
LINE
8
TOP_HID
6
HIDDEN
10
0.290966
20
0.146853
30
0.0
11
0.290971
21
0.147091
31
0.0
0
LINE
8
TOP_HID
6
HIDDEN
10
0.290971
20
0.147091
30
0.0
11
0.290976
21
0.147330
31
0.0
0
LINE
8
TOP_HID
6
HIDDEN
10
0.290976
20
0.147330
30
0.0
11
0.290980
21
0.147568
31
0.0
0
LINE
8
TOP_HID
6
HIDDEN
10
0.290980
20
0.147568
30
0.0
11
0.290984
21
0.147807
31
0.0
0
LINE
8
TOP_HID
6
HIDDEN
10
0.290984
20
0.147807
30
0.0
11
0.290987
21
0.148045
31
0.0
0
LINE
8
TOP_HID
6
HIDDEN
10
0.290987
20
0.148045
30
0.0
11
0.290990
21
0.148284
31
0.0
0
LINE
8
TOP_HID
6
HIDDEN
10
0.290990
20
0.148284
30
0.0
11
0.290993
21
0.148522
31
0.0
0
LINE
8
TOP_HID
6
HIDDEN
10
0.290993
20
0.148522
30
0.0
11
0.290995
21
0.148761
31
0.0
0
LINE
8
TOP_HID
6
HIDDEN
10
0.290995
20
0.148761
30
0.0
11
0.290997
21
0.148999
31
0.0
0
LINE
8
TOP_HID
6
HIDDEN
10
0.290997
20
0.148999
30
0.0
11
0.290998
21
0.149238
31
0.0
0
LINE
8
TOP_HID
6
HIDDEN
10
0.290998
20
0.149238
30
0.0
11
0.290999
21
0.149476
31
0.0
0
LINE
8
TOP_HID
6
HIDDEN
10
0.290999
20
0.149476
30
0.0
11
0.291000
21
0.149715
31
0.0
0
LINE
8
TOP_HID
6
HIDDEN
10
0.291000
20
0.149715
30
0.0
11
0.291000
21
0.149953
31
0.0
0
LINE
8
TOP_HID
6
HIDDEN
10
0.009800
20
0.134953
30
0.0
11
0.009750
21
0.135428
31
0.0
0
LINE
8
TOP_HID
6
HIDDEN
10
0.009750
20
0.135428
30
0.0
11
0.009702
21
0.135902
31
0.0
0
LINE
8
TOP_HID
6
HIDDEN
10
0.009702
20
0.135902
30
0.0
11
0.009655
21
0.136377
31
0.0
0
LINE
8
TOP_HID
6
HIDDEN
10
0.009655
20
0.136377
30
0.0
11
0.009610
21
0.136852
31
0.0
0
LINE
8
TOP_HID
6
HIDDEN
10
0.009610
20
0.136852
30
0.0
11
0.009566
21
0.137327
31
0.0
0
LINE
8
TOP_HID
6
HIDDEN
10
0.009566
20
0.137327
30
0.0
11
0.009525
21
0.137803
31
0.0
0
LINE
8
TOP_HID
6
HIDDEN
10
0.009525
20
0.137803
30
0.0
11
0.009484
21
0.138278
31
0.0
0
LINE
8
TOP_HID
6
HIDDEN
10
0.009484
20
0.138278
30
0.0
11
0.009446
21
0.138753
31
0.0
0
LINE
8
TOP_HID
6
HIDDEN
10
0.009446
20
0.138753
30
0.0
11
0.009408
21
0.139229
31
0.0
0
LINE
8
TOP_HID
6
HIDDEN
10
0.009408
20
0.139229
30
0.0
11
0.009373
21
0.139705
31
0.0
0
LINE
8
TOP_HID
6
HIDDEN
10
0.009373
20
0.139705
30
0.0
11
0.009339
21
0.140181
31
0.0
0
LINE
8
TOP_HID
6
HIDDEN
10
0.009339
20
0.140181
30
0.0
11
0.009307
21
0.140657
31
0.0
0
LINE
8
TOP_HID
6
HIDDEN
10
0.009307
20
0.140657
30
0.0
11
0.009276
21
0.141133
31
0.0
0
LINE
8
TOP_HID
6
HIDDEN
10
0.009276
20
0.141133
30
0.0
11
0.009247
21
0.141609
31
0.0
0
LINE
8
TOP_HID
6
HIDDEN
10
0.009247
20
0.141609
30
0.0
11
0.009220
21
0.142085
31
0.0
0
LINE
8
TOP_HID
6
HIDDEN
10
0.009220
20
0.142085
30
0.0
11
0.009194
21
0.142562
31
0.0
0
LINE
8
TOP_HID
6
HIDDEN
10
0.009194
20
0.142562
30
0.0
11
0.009170
21
0.143038
31
0.0
0
LINE
8
TOP_HID
6
HIDDEN
10
0.009170
20
0.143038
30
0.0
11
0.009147
21
0.143515
31
0.0
0
LINE
8
TOP_HID
6
HIDDEN
10
0.009147
20
0.143515
30
0.0
11
0.009126
21
0.143991
31
0.0
0
LINE
8
TOP_HID
6
HIDDEN
10
0.009126
20
0.143991
30
0.0
11
0.009107
21
0.144468
31
0.0
0
LINE
8
TOP_HID
6
HIDDEN
10
0.009107
20
0.144468
30
0.0
11
0.009089
21
0.144945
31
0.0
0
LINE
8
TOP_HID
6
HIDDEN
10
0.009089
20
0.144945
30
0.0
11
0.009073
21
0.145422
31
0.0
0
LINE
8
TOP_HID
6
HIDDEN
10
0.009073
20
0.145422
30
0.0
11
0.009058
21
0.145899
31
0.0
0
LINE
8
TOP_HID
6
HIDDEN
10
0.009058
20
0.145899
30
0.0
11
0.009045
21
0.146376
31
0.0
0
LINE
8
TOP_HID
6
HIDDEN
10
0.009045
20
0.146376
30
0.0
11
0.009034
21
0.146853
31
0.0
0
LINE
8
TOP_HID
6
HIDDEN
10
0.009034
20
0.146853
30
0.0
11
0.009024
21
0.147330
31
0.0
0
LINE
8
TOP_HID
6
HIDDEN
10
0.009024
20
0.147330
30
0.0
11
0.009016
21
0.147807
31
0.0
0
LINE
8
TOP_HID
6
HIDDEN
10
0.009016
20
0.147807
30
0.0
11
0.009010
21
0.148284
31
0.0
0
LINE
8
TOP_HID
6
HIDDEN
10
0.009010
20
0.148284
30
0.0
11
0.009005
21
0.148761
31
0.0
0
LINE
8
TOP_HID
6
HIDDEN
10
0.009005
20
0.148761
30
0.0
11
0.009002
21
0.149238
31
0.0
0
LINE
8
TOP_HID
6
HIDDEN
10
0.009002
20
0.149238
30
0.0
11
0.009000
21
0.149715
31
0.0
0
LINE
8
TOP_HID
6
HIDDEN
10
0.009000
20
0.149715
30
0.0
11
0.009000
21
0.150192
31
0.0
0
LINE
8
TOP_HID
6
HIDDEN
10
0.009000
20
0.150192
30
0.0
11
0.009002
21
0.150669
31
0.0
0
LINE
8
TOP_HID
6
HIDDEN
10
0.009002
20
0.150669
30
0.0
11
0.009005
21
0.151146
31
0.0
0
LINE
8
TOP_HID
6
HIDDEN
10
0.009005
20
0.151146
30
0.0
11
0.009010
21
0.151623
31
0.0
0
LINE
8
TOP_HID
6
HIDDEN
10
0.009010
20
0.151623
30
0.0
11
0.009016
21
0.152100
31
0.0
0
LINE
8
TOP_HID
6
HIDDEN
10
0.009016
20
0.152100
30
0.0
11
0.009024
21
0.152577
31
0.0
0
LINE
8
TOP_HID
6
HIDDEN
10
0.009024
20
0.152577
30
0.0
11
0.009034
21
0.153054
31
0.0
0
LINE
8
TOP_HID
6
HIDDEN
10
0.009034
20
0.153054
30
0.0
11
0.009045
21
0.153531
31
0.0
0
LINE
8
TOP_HID
6
HIDDEN
10
0.009045
20
0.153531
30
0.0
11
0.009058
21
0.154008
31
0.0
0
LINE
8
TOP_HID
6
HIDDEN
10
0.009058
20
0.154008
30
0.0
11
0.009073
21
0.154485
31
0.0
0
LINE
8
TOP_HID
6
HIDDEN
10
0.009073
20
0.154485
30
0.0
11
0.009089
21
0.154962
31
0.0
0
LINE
8
TOP_HID
6
HIDDEN
10
0.009089
20
0.154962
30
0.0
11
0.009107
21
0.155439
31
0.0
0
LINE
8
TOP_HID
6
HIDDEN
10
0.009107
20
0.155439
30
0.0
11
0.009126
21
0.155915
31
0.0
0
LINE
8
TOP_HID
6
HIDDEN
10
0.009126
20
0.155915
30
0.0
11
0.009147
21
0.156392
31
0.0
0
LINE
8
TOP_HID
6
HIDDEN
10
0.009147
20
0.156392
30
0.0
11
0.009170
21
0.156868
31
0.0
0
LINE
8
TOP_HID
6
HIDDEN
10
0.009170
20
0.156868
30
0.0
11
0.009194
21
0.157345
31
0.0
0
LINE
8
TOP_HID
6
HIDDEN
10
0.009194
20
0.157345
30
0.0
11
0.009220
21
0.157821
31
0.0
0
LINE
8
TOP_HID
6
HIDDEN
10
0.009220
20
0.157821
30
0.0
11
0.009247
21
0.158298
31
0.0
0
LINE
8
TOP_HID
6
HIDDEN
10
0.009247
20
0.158298
30
0.0
11
0.009276
21
0.158774
31
0.0
0
LINE
8
TOP_HID
6
HIDDEN
10
0.009276
20
0.158774
30
0.0
11
0.009307
21
0.159250
31
0.0
0
LINE
8
TOP_HID
6
HIDDEN
10
0.009307
20
0.159250
30
0.0
11
0.009339
21
0.159726
31
0.0
0
LINE
8
TOP_HID
6
HIDDEN
10
0.009339
20
0.159726
30
0.0
11
0.009373
21
0.160202
31
0.0
0
LINE
8
TOP_HID
6
HIDDEN
10
0.009373
20
0.160202
30
0.0
11
0.009408
21
0.160678
31
0.0
0
LINE
8
TOP_HID
6
HIDDEN
10
0.009408
20
0.160678
30
0.0
11
0.009446
21
0.161153
31
0.0
0
LINE
8
TOP_HID
6
HIDDEN
10
0.009446
20
0.161153
30
0.0
11
0.009484
21
0.161629
31
0.0
0
LINE
8
TOP_HID
6
HIDDEN
10
0.009484
20
0.161629
30
0.0
11
0.009525
21
0.162104
31
0.0
0
LINE
8
TOP_HID
6
HIDDEN
10
0.009525
20
0.162104
30
0.0
11
0.009566
21
0.162579
31
0.0
0
LINE
8
TOP_HID
6
HIDDEN
10
0.009566
20
0.162579
30
0.0
11
0.009610
21
0.163055
31
0.0
0
LINE
8
TOP_HID
6
HIDDEN
10
0.009610
20
0.163055
30
0.0
11
0.009655
21
0.163529
31
0.0
0
LINE
8
TOP_HID
6
HIDDEN
10
0.009655
20
0.163529
30
0.0
11
0.009702
21
0.164004
31
0.0
0
LINE
8
TOP_HID
6
HIDDEN
10
0.009702
20
0.164004
30
0.0
11
0.009750
21
0.164479
31
0.0
0
LINE
8
TOP_HID
6
HIDDEN
10
0.009750
20
0.164479
30
0.0
11
0.009800
21
0.164953
31
0.0
0
LINE
8
TOP_HID
6
HIDDEN
10
0.009800
20
0.164953
30
0.0
11
0.009775
21
0.164716
31
0.0
0
LINE
8
TOP_HID
6
HIDDEN
10
0.009775
20
0.164716
30
0.0
11
0.009750
21
0.164479
31
0.0
0
LINE
8
TOP_HID
6
HIDDEN
10
0.009750
20
0.164479
30
0.0
11
0.009726
21
0.164242
31
0.0
0
LINE
8
TOP_HID
6
HIDDEN
10
0.009726
20
0.164242
30
0.0
11
0.009702
21
0.164004
31
0.0
0
LINE
8
TOP_HID
6
HIDDEN
10
0.009702
20
0.164004
30
0.0
11
0.009678
21
0.163767
31
0.0
0
LINE
8
TOP_HID
6
HIDDEN
10
0.009678
20
0.163767
30
0.0
11
0.009655
21
0.163529
31
0.0
0
LINE
8
TOP_HID
6
HIDDEN
10
0.009655
20
0.163529
30
0.0
11
0.009632
21
0.163292
31
0.0
0
LINE
8
TOP_HID
6
HIDDEN
10
0.009632
20
0.163292
30
0.0
11
0.009610
21
0.163055
31
0.0
0
LINE
8
TOP_HID
6
HIDDEN
10
0.009610
20
0.163055
30
0.0
11
0.009588
21
0.162817
31
0.0
0
LINE
8
TOP_HID
6
HIDDEN
10
0.009588
20
0.162817
30
0.0
11
0.009566
21
0.162579
31
0.0
0
LINE
8
TOP_HID
6
HIDDEN
10
0.009566
20
0.162579
30
0.0
11
0.009545
21
0.162342
31
0.0
0
LINE
8
TOP_HID
6
HIDDEN
10
0.009545
20
0.162342
30
0.0
11
0.009525
21
0.162104
31
0.0
0
LINE
8
TOP_HID
6
HIDDEN
10
0.009525
20
0.162104
30
0.0
11
0.009504
21
0.161866
31
0.0
0
LINE
8
TOP_HID
6
HIDDEN
10
0.009504
20
0.161866
30
0.0
11
0.009484
21
0.161629
31
0.0
0
LINE
8
TOP_HID
6
HIDDEN
10
0.009484
20
0.161629
30
0.0
11
0.009465
21
0.161391
31
0.0
0
LINE
8
TOP_HID
6
HIDDEN
10
0.009465
20
0.161391
30
0.0
11
0.009446
21
0.161153
31
0.0
0
LINE
8
TOP_HID
6
HIDDEN
10
0.009446
20
0.161153
30
0.0
11
0.009427
21
0.160915
31
0.0
0
LINE
8
TOP_HID
6
HIDDEN
10
0.009427
20
0.160915
30
0.0
11
0.009408
21
0.160678
31
0.0
0
LINE
8
TOP_HID
6
HIDDEN
10
0.009408
20
0.160678
30
0.0
11
0.009390
21
0.160440
31
0.0
0
LINE
8
TOP_HID
6
HIDDEN
10
0.009390
20
0.160440
30
0.0
11
0.009373
21
0.160202
31
0.0
0
LINE
8
TOP_HID
6
HIDDEN
10
0.009373
20
0.160202
30
0.0
11
0.009356
21
0.159964
31
0.0
0
LINE
8
TOP_HID
6
HIDDEN
10
0.009356
20
0.159964
30
0.0
11
0.009339
21
0.159726
31
0.0
0
LINE
8
TOP_HID
6
HIDDEN
10
0.009339
20
0.159726
30
0.0
11
0.009323
21
0.159488
31
0.0
0
LINE
8
TOP_HID
6
HIDDEN
10
0.009323
20
0.159488
30
0.0
11
0.009307
21
0.159250
31
0.0
0
LINE
8
TOP_HID
6
HIDDEN
10
0.009307
20
0.159250
30
0.0
11
0.009291
21
0.159012
31
0.0
0
LINE
8
TOP_HID
6
HIDDEN
10
0.009291
20
0.159012
30
0.0
11
0.009276
21
0.158774
31
0.0
0
LINE
8
TOP_HID
6
HIDDEN
10
0.009276
20
0.158774
30
0.0
11
0.009261
21
0.158536
31
0.0
0
LINE
8
TOP_HID
6
HIDDEN
10
0.009261
20
0.158536
30
0.0
11
0.009247
21
0.158298
31
0.0
0
LINE
8
TOP_HID
6
HIDDEN
10
0.009247
20
0.158298
30
0.0
11
0.009233
21
0.158059
31
0.0
0
LINE
8
TOP_HID
6
HIDDEN
10
0.009233
20
0.158059
30
0.0
11
0.009220
21
0.157821
31
0.0
0
LINE
8
TOP_HID
6
HIDDEN
10
0.009220
20
0.157821
30
0.0
11
0.009207
21
0.157583
31
0.0
0
LINE
8
TOP_HID
6
HIDDEN
10
0.009207
20
0.157583
30
0.0
11
0.009194
21
0.157345
31
0.0
0
LINE
8
TOP_HID
6
HIDDEN
10
0.009194
20
0.157345
30
0.0
11
0.009182
21
0.157107
31
0.0
0
LINE
8
TOP_HID
6
HIDDEN
10
0.009182
20
0.157107
30
0.0
11
0.009170
21
0.156868
31
0.0
0
LINE
8
TOP_HID
6
HIDDEN
10
0.009170
20
0.156868
30
0.0
11
0.009158
21
0.156630
31
0.0
0
LINE
8
TOP_HID
6
HIDDEN
10
0.009158
20
0.156630
30
0.0
11
0.009147
21
0.156392
31
0.0
0
LINE
8
TOP_HID
6
HIDDEN
10
0.009147
20
0.156392
30
0.0
11
0.009136
21
0.156154
31
0.0
0
LINE
8
TOP_HID
6
HIDDEN
10
0.009136
20
0.156154
30
0.0
11
0.009126
21
0.155915
31
0.0
0
LINE
8
TOP_HID
6
HIDDEN
10
0.009126
20
0.155915
30
0.0
11
0.009116
21
0.155677
31
0.0
0
LINE
8
TOP_HID
6
HIDDEN
10
0.009116
20
0.155677
30
0.0
11
0.009107
21
0.155439
31
0.0
0
LINE
8
TOP_HID
6
HIDDEN
10
0.009107
20
0.155439
30
0.0
11
0.009098
21
0.155200
31
0.0
0
LINE
8
TOP_HID
6
HIDDEN
10
0.009098
20
0.155200
30
0.0
11
0.009089
21
0.154962
31
0.0
0
LINE
8
TOP_HID
6
HIDDEN
10
0.009089
20
0.154962
30
0.0
11
0.009081
21
0.154723
31
0.0
0
LINE
8
TOP_HID
6
HIDDEN
10
0.009081
20
0.154723
30
0.0
11
0.009073
21
0.154485
31
0.0
0
LINE
8
TOP_HID
6
HIDDEN
10
0.009073
20
0.154485
30
0.0
11
0.009065
21
0.154247
31
0.0
0
LINE
8
TOP_HID
6
HIDDEN
10
0.009065
20
0.154247
30
0.0
11
0.009058
21
0.154008
31
0.0
0
LINE
8
TOP_HID
6
HIDDEN
10
0.009058
20
0.154008
30
0.0
11
0.009052
21
0.153770
31
0.0
0
LINE
8
TOP_HID
6
HIDDEN
10
0.009052
20
0.153770
30
0.0
11
0.009045
21
0.153531
31
0.0
0
LINE
8
TOP_HID
6
HIDDEN
10
0.009045
20
0.153531
30
0.0
11
0.009040
21
0.153293
31
0.0
0
LINE
8
TOP_HID
6
HIDDEN
10
0.009040
20
0.153293
30
0.0
11
0.009034
21
0.153054
31
0.0
0
LINE
8
TOP_HID
6
HIDDEN
10
0.009034
20
0.153054
30
0.0
11
0.009029
21
0.152816
31
0.0
0
LINE
8
TOP_HID
6
HIDDEN
10
0.009029
20
0.152816
30
0.0
11
0.009024
21
0.152577
31
0.0
0
LINE
8
TOP_HID
6
HIDDEN
10
0.009024
20
0.152577
30
0.0
11
0.009020
21
0.152339
31
0.0
0
LINE
8
TOP_HID
6
HIDDEN
10
0.009020
20
0.152339
30
0.0
11
0.009016
21
0.152100
31
0.0
0
LINE
8
TOP_HID
6
HIDDEN
10
0.009016
20
0.152100
30
0.0
11
0.009013
21
0.151862
31
0.0
0
LINE
8
TOP_HID
6
HIDDEN
10
0.009013
20
0.151862
30
0.0
11
0.009010
21
0.151623
31
0.0
0
LINE
8
TOP_HID
6
HIDDEN
10
0.009010
20
0.151623
30
0.0
11
0.009007
21
0.151385
31
0.0
0
LINE
8
TOP_HID
6
HIDDEN
10
0.009007
20
0.151385
30
0.0
11
0.009005
21
0.151146
31
0.0
0
LINE
8
TOP_HID
6
HIDDEN
10
0.009005
20
0.151146
30
0.0
11
0.009003
21
0.150908
31
0.0
0
LINE
8
TOP_HID
6
HIDDEN
10
0.009003
20
0.150908
30
0.0
11
0.009002
21
0.150669
31
0.0
0
LINE
8
TOP_HID
6
HIDDEN
10
0.009002
20
0.150669
30
0.0
11
0.009001
21
0.150430
31
0.0
0
LINE
8
TOP_HID
6
HIDDEN
10
0.009001
20
0.150430
30
0.0
11
0.009000
21
0.150192
31
0.0
0
LINE
8
TOP_HID
6
HIDDEN
10
0.009000
20
0.150192
30
0.0
11
0.009000
21
0.149953
31
0.0
0
LINE
8
TOP_HID
6
HIDDEN
10
0.299248
20
0.164953
30
0.0
11
0.290200
21
0.164953
31
0.0
0
LINE
8
TOP_HID
6
HIDDEN
10
0.299248
20
0.134953
30
0.0
11
0.290200
21
0.134953
31
0.0
0
LINE
8
TOP_HID
6
HIDDEN
10
0.000752
20
0.134953
30
0.0
11
0.009800
21
0.134953
31
0.0
0
LINE
8
TOP_HID
6
HIDDEN
10
0.000752
20
0.164953
30
0.0
11
0.009800
21
0.164953
31
0.0
0
ENDSEC
0
EOF
