0
SECTION
2
HEADER
9
$ACADVER
1
AC1009
0
ENDSEC
0
SECTION
2
TABLES
0
TABLE
2
LTYPE
70
3
0
LTYPE
2
CONTINUOUS
70
0
3
Solid line
72
65
73
0
40
0.0
0
LTYPE
2
HIDDEN
70
0
3
__ __ __ __ __
72
65
73
2
40
0.048047
49
0.032047
49
-0.016000
0
LTYPE
2
CENTER
70
0
3
___ _ ___ _ ___
72
65
73
4
40
0.112093
49
0.064046
49
-0.016000
49
0.016000
49
-0.016000
0
ENDTAB
0
TABLE
2
LAYER
70
7
0
LAYER
2
0
70
0
62
7
6
CONTINUOUS
0
LAYER
2
FRONT
70
0
62
7
6
CONTINUOUS
0
LAYER
2
FRONT_HID
70
0
62
7
6
HIDDEN
0
LAYER
2
LEFT
70
0
62
7
6
CONTINUOUS
0
LAYER
2
LEFT_HID
70
0
62
7
6
HIDDEN
0
LAYER
2
TOP
70
0
62
7
6
CONTINUOUS
0
LAYER
2
TOP_HID
70
0
62
7
6
HIDDEN
0
ENDTAB
0
ENDSEC
0
SECTION
2
ENTITIES
0
LINE
8
FRONT
10
0.000000
20
0.731184
30
0.0
11
0.001048
21
0.710182
31
0.0
0
LINE
8
FRONT
10
0.001048
20
0.710182
30
0.0
11
0.004182
21
0.689388
31
0.0
0
LINE
8
FRONT
10
0.004182
20
0.689388
30
0.0
11
0.009371
21
0.669010
31
0.0
0
LINE
8
FRONT
10
0.009371
20
0.669010
30
0.0
11
0.016564
21
0.649249
31
0.0
0
LINE
8
FRONT
10
0.016564
20
0.649249
30
0.0
11
0.025688
21
0.630303
31
0.0
0
LINE
8
FRONT
10
0.025688
20
0.630303
30
0.0
11
0.036653
21
0.612359
31
0.0
0
LINE
8
FRONT
10
0.036653
20
0.612359
30
0.0
11
0.049350
21
0.595596
31
0.0
0
LINE
8
FRONT
10
0.049350
20
0.595596
30
0.0
11
0.063653
21
0.580181
31
0.0
0
LINE
8
FRONT
10
0.063653
20
0.580181
30
0.0
11
0.079420
21
0.566267
31
0.0
0
LINE
8
FRONT
10
0.079420
20
0.566267
30
0.0
11
0.096494
21
0.553991
31
0.0
0
LINE
8
FRONT
10
0.096494
20
0.553991
30
0.0
11
0.114706
21
0.543477
31
0.0
0
LINE
8
FRONT
10
0.114706
20
0.543477
30
0.0
11
0.133873
21
0.534828
31
0.0
0
LINE
8
FRONT
10
0.133873
20
0.534828
30
0.0
11
0.153807
21
0.528131
31
0.0
0
LINE
8
FRONT
10
0.153807
20
0.528131
30
0.0
11
0.174309
21
0.523452
31
0.0
0
LINE
8
FRONT
10
0.174309
20
0.523452
30
0.0
11
0.195174
21
0.520837
31
0.0
0
LINE
8
FRONT
10
0.195174
20
0.520837
30
0.0
11
0.216196
21
0.520313
31
0.0
0
LINE
8
FRONT
10
0.216196
20
0.520313
30
0.0
11
0.237166
21
0.521884
31
0.0
0
LINE
8
FRONT
10
0.237166
20
0.521884
30
0.0
11
0.257876
21
0.525536
31
0.0
0
LINE
8
FRONT
10
0.257876
20
0.525536
30
0.0
11
0.278118
21
0.531231
31
0.0
0
LINE
8
FRONT
10
0.278118
20
0.531231
30
0.0
11
0.297693
21
0.538914
31
0.0
0
LINE
8
FRONT
10
0.297693
20
0.538914
30
0.0
11
0.316406
21
0.548507
31
0.0
0
LINE
8
FRONT
10
0.316406
20
0.548507
30
0.0
11
0.334071
21
0.559916
31
0.0
0
LINE
8
FRONT
10
0.334071
20
0.559916
30
0.0
11
0.350512
21
0.573027
31
0.0
0
LINE
8
FRONT
10
0.350512
20
0.573027
30
0.0
11
0.365566
21
0.587710
31
0.0
0
LINE
8
FRONT
10
0.365566
20
0.587710
30
0.0
11
0.379083
21
0.603819
31
0.0
0
LINE
8
FRONT
10
0.379083
20
0.603819
30
0.0
11
0.390929
21
0.621194
31
0.0
0
LINE
8
FRONT
10
0.390929
20
0.621194
30
0.0
11
0.400986
21
0.639662
31
0.0
0
LINE
8
FRONT
10
0.400986
20
0.639662
30
0.0
11
0.409154
21
0.659040
31
0.0
0
LINE
8
FRONT
10
0.409154
20
0.659040
30
0.0
11
0.415352
21
0.679134
31
0.0
0
LINE
8
FRONT
10
0.415352
20
0.679134
30
0.0
11
0.419519
21
0.699746
31
0.0
0
LINE
8
FRONT
10
0.419519
20
0.699746
30
0.0
11
0.421613
21
0.720670
31
0.0
0
LINE
8
FRONT
10
0.421613
20
0.720670
30
0.0
11
0.421613
21
0.741699
31
0.0
0
LINE
8
FRONT
10
0.421613
20
0.741699
30
0.0
11
0.419519
21
0.762623
31
0.0
0
LINE
8
FRONT
10
0.419519
20
0.762623
30
0.0
11
0.415352
21
0.783235
31
0.0
0
LINE
8
FRONT
10
0.415352
20
0.783235
30
0.0
11
0.409154
21
0.803329
31
0.0
0
LINE
8
FRONT
10
0.409154
20
0.803329
30
0.0
11
0.400986
21
0.822707
31
0.0
0
LINE
8
FRONT
10
0.400986
20
0.822707
30
0.0
11
0.390929
21
0.841175
31
0.0
0
LINE
8
FRONT
10
0.390929
20
0.841175
30
0.0
11
0.379083
21
0.858549
31
0.0
0
LINE
8
FRONT
10
0.379083
20
0.858549
30
0.0
11
0.365566
21
0.874658
31
0.0
0
LINE
8
FRONT
10
0.365566
20
0.874658
30
0.0
11
0.350512
21
0.889341
31
0.0
0
LINE
8
FRONT
10
0.350512
20
0.889341
30
0.0
11
0.334071
21
0.902453
31
0.0
0
LINE
8
FRONT
10
0.334071
20
0.902453
30
0.0
11
0.316406
21
0.913862
31
0.0
0
LINE
8
FRONT
10
0.316406
20
0.913862
30
0.0
11
0.297693
21
0.923455
31
0.0
0
LINE
8
FRONT
10
0.297693
20
0.923455
30
0.0
11
0.278118
21
0.931138
31
0.0
0
LINE
8
FRONT
10
0.278118
20
0.931138
30
0.0
11
0.257876
21
0.936833
31
0.0
0
LINE
8
FRONT
10
0.257876
20
0.936833
30
0.0
11
0.237166
21
0.940485
31
0.0
0
LINE
8
FRONT
10
0.237166
20
0.940485
30
0.0
11
0.216196
21
0.942056
31
0.0
0
LINE
8
FRONT
10
0.216196
20
0.942056
30
0.0
11
0.195174
21
0.941532
31
0.0
0
LINE
8
FRONT
10
0.195174
20
0.941532
30
0.0
11
0.174309
21
0.938917
31
0.0
0
LINE
8
FRONT
10
0.174309
20
0.938917
30
0.0
11
0.153807
21
0.934238
31
0.0
0
LINE
8
FRONT
10
0.153807
20
0.934238
30
0.0
11
0.133873
21
0.927541
31
0.0
0
LINE
8
FRONT
10
0.133873
20
0.927541
30
0.0
11
0.114706
21
0.918892
31
0.0
0
LINE
8
FRONT
10
0.114706
20
0.918892
30
0.0
11
0.096494
21
0.908377
31
0.0
0
LINE
8
FRONT
10
0.096494
20
0.908377
30
0.0
11
0.079420
21
0.896102
31
0.0
0
LINE
8
FRONT
10
0.079420
20
0.896102
30
0.0
11
0.063653
21
0.882188
31
0.0
0
LINE
8
FRONT
10
0.063653
20
0.882188
30
0.0
11
0.049350
21
0.866772
31
0.0
0
LINE
8
FRONT
10
0.049350
20
0.866772
30
0.0
11
0.036653
21
0.850010
31
0.0
0
LINE
8
FRONT
10
0.036653
20
0.850010
30
0.0
11
0.025688
21
0.832066
31
0.0
0
LINE
8
FRONT
10
0.025688
20
0.832066
30
0.0
11
0.016564
21
0.813120
31
0.0
0
LINE
8
FRONT
10
0.016564
20
0.813120
30
0.0
11
0.009371
21
0.793359
31
0.0
0
LINE
8
FRONT
10
0.009371
20
0.793359
30
0.0
11
0.004182
21
0.772981
31
0.0
0
LINE
8
FRONT
10
0.004182
20
0.772981
30
0.0
11
0.001048
21
0.752187
31
0.0
0
LINE
8
FRONT
10
0.001048
20
0.752187
30
0.0
11
0.000000
21
0.731184
31
0.0
0
LINE
8
FRONT
10
0.384870
20
0.850524
30
0.0
11
0.383014
21
0.853260
31
0.0
0
LINE
8
FRONT
10
0.383014
20
0.853260
30
0.0
11
0.381184
21
0.856014
31
0.0
0
LINE
8
FRONT
10
0.381184
20
0.856014
30
0.0
11
0.379383
21
0.858787
31
0.0
0
LINE
8
FRONT
10
0.379383
20
0.858787
30
0.0
11
0.377610
21
0.861577
31
0.0
0
LINE
8
FRONT
10
0.377610
20
0.861577
30
0.0
11
0.375865
21
0.864385
31
0.0
0
LINE
8
FRONT
10
0.375865
20
0.864385
30
0.0
11
0.374148
21
0.867211
31
0.0
0
LINE
8
FRONT
10
0.374148
20
0.867211
30
0.0
11
0.372460
21
0.870054
31
0.0
0
LINE
8
FRONT
10
0.372460
20
0.870054
30
0.0
11
0.370801
21
0.872913
31
0.0
0
LINE
8
FRONT
10
0.370801
20
0.872913
30
0.0
11
0.369170
21
0.875790
31
0.0
0
LINE
8
FRONT
10
0.369170
20
0.875790
30
0.0
11
0.367569
21
0.878682
31
0.0
0
LINE
8
FRONT
10
0.367569
20
0.878682
30
0.0
11
0.365997
21
0.881591
31
0.0
0
LINE
8
FRONT
10
0.365997
20
0.881591
30
0.0
11
0.364454
21
0.884515
31
0.0
0
LINE
8
FRONT
10
0.364454
20
0.884515
30
0.0
11
0.362941
21
0.887455
31
0.0
0
LINE
8
FRONT
10
0.362941
20
0.887455
30
0.0
11
0.361457
21
0.890409
31
0.0
0
LINE
8
FRONT
10
0.361457
20
0.890409
30
0.0
11
0.360003
21
0.893379
31
0.0
0
LINE
8
FRONT
10
0.360003
20
0.893379
30
0.0
11
0.358580
21
0.896363
31
0.0
0
LINE
8
FRONT
10
0.358580
20
0.896363
30
0.0
11
0.357186
21
0.899361
31
0.0
0
LINE
8
FRONT
10
0.357186
20
0.899361
30
0.0
11
0.355823
21
0.902373
31
0.0
0
LINE
8
FRONT
10
0.355823
20
0.902373
30
0.0
11
0.354490
21
0.905399
31
0.0
0
LINE
8
FRONT
10
0.354490
20
0.905399
30
0.0
11
0.353188
21
0.908438
31
0.0
0
LINE
8
FRONT
10
0.353188
20
0.908438
30
0.0
11
0.351916
21
0.911490
31
0.0
0
LINE
8
FRONT
10
0.351916
20
0.911490
30
0.0
11
0.350675
21
0.914554
31
0.0
0
LINE
8
FRONT
10
0.350675
20
0.914554
30
0.0
11
0.349465
21
0.917631
31
0.0
0
LINE
8
FRONT
10
0.349465
20
0.917631
30
0.0
11
0.348286
21
0.920720
31
0.0
0
LINE
8
FRONT
10
0.348286
20
0.920720
30
0.0
11
0.347139
21
0.923821
31
0.0
0
LINE
8
FRONT
10
0.347139
20
0.923821
30
0.0
11
0.346022
21
0.926933
31
0.0
0
LINE
8
FRONT
10
0.346022
20
0.926933
30
0.0
11
0.344938
21
0.930056
31
0.0
0
LINE
8
FRONT
10
0.344938
20
0.930056
30
0.0
11
0.343884
21
0.933190
31
0.0
0
LINE
8
FRONT
10
0.343884
20
0.933190
30
0.0
11
0.342862
21
0.936335
31
0.0
0
LINE
8
FRONT
10
0.342862
20
0.936335
30
0.0
11
0.341872
21
0.939489
31
0.0
0
LINE
8
FRONT
10
0.341872
20
0.939489
30
0.0
11
0.340914
21
0.942654
31
0.0
0
LINE
8
FRONT
10
0.340914
20
0.942654
30
0.0
11
0.339988
21
0.945828
31
0.0
0
LINE
8
FRONT
10
0.339988
20
0.945828
30
0.0
11
0.339094
21
0.949011
31
0.0
0
LINE
8
FRONT
10
0.339094
20
0.949011
30
0.0
11
0.338232
21
0.952203
31
0.0
0
LINE
8
FRONT
10
0.338232
20
0.952203
30
0.0
11
0.337402
21
0.955403
31
0.0
0
LINE
8
FRONT
10
0.337402
20
0.955403
30
0.0
11
0.336604
21
0.958612
31
0.0
0
LINE
8
FRONT
10
0.336604
20
0.958612
30
0.0
11
0.335839
21
0.961828
31
0.0
0
LINE
8
FRONT
10
0.335839
20
0.961828
30
0.0
11
0.335106
21
0.965052
31
0.0
0
LINE
8
FRONT
10
0.335106
20
0.965052
30
0.0
11
0.334406
21
0.968283
31
0.0
0
LINE
8
FRONT
10
0.334406
20
0.968283
30
0.0
11
0.333738
21
0.971521
31
0.0
0
LINE
8
FRONT
10
0.333738
20
0.971521
30
0.0
11
0.333103
21
0.974766
31
0.0
0
LINE
8
FRONT
10
0.333103
20
0.974766
30
0.0
11
0.332501
21
0.978017
31
0.0
0
LINE
8
FRONT
10
0.332501
20
0.978017
30
0.0
11
0.331931
21
0.981274
31
0.0
0
LINE
8
FRONT
10
0.331931
20
0.981274
30
0.0
11
0.331395
21
0.984536
31
0.0
0
LINE
8
FRONT
10
0.331395
20
0.984536
30
0.0
11
0.330891
21
0.987804
31
0.0
0
LINE
8
FRONT
10
0.330891
20
0.987804
30
0.0
11
0.330420
21
0.991077
31
0.0
0
LINE
8
FRONT
10
0.330420
20
0.991077
30
0.0
11
0.329982
21
0.994354
31
0.0
0
LINE
8
FRONT
10
0.329982
20
0.994354
30
0.0
11
0.329578
21
0.997635
31
0.0
0
LINE
8
FRONT
10
0.329578
20
0.997635
30
0.0
11
0.329206
21
1.000920
31
0.0
0
LINE
8
FRONT
10
0.329206
20
1.000920
30
0.0
11
0.328867
21
1.004209
31
0.0
0
LINE
8
FRONT
10
0.328867
20
1.004209
30
0.0
11
0.328562
21
1.007501
31
0.0
0
LINE
8
FRONT
10
0.328562
20
1.007501
30
0.0
11
0.328290
21
1.010796
31
0.0
0
LINE
8
FRONT
10
0.328290
20
1.010796
30
0.0
11
0.328051
21
1.014094
31
0.0
0
LINE
8
FRONT
10
0.328051
20
1.014094
30
0.0
11
0.327845
21
1.017394
31
0.0
0
LINE
8
FRONT
10
0.327845
20
1.017394
30
0.0
11
0.327672
21
1.020696
31
0.0
0
LINE
8
FRONT
10
0.327672
20
1.020696
30
0.0
11
0.327533
21
1.023999
31
0.0
0
LINE
8
FRONT
10
0.327533
20
1.023999
30
0.0
11
0.327427
21
1.027304
31
0.0
0
LINE
8
FRONT
10
0.327427
20
1.027304
30
0.0
11
0.327355
21
1.030609
31
0.0
0
LINE
8
FRONT
10
0.327355
20
1.030609
30
0.0
11
0.327315
21
1.033915
31
0.0
0
LINE
8
FRONT
10
0.327315
20
1.033915
30
0.0
11
0.327309
21
1.037221
31
0.0
0
LINE
8
FRONT
10
0.327309
20
1.037221
30
0.0
11
0.327337
21
1.040528
31
0.0
0
LINE
8
FRONT
10
0.327337
20
1.040528
30
0.0
11
0.327397
21
1.043833
31
0.0
0
LINE
8
FRONT
10
0.327397
20
1.043833
30
0.0
11
0.327491
21
1.047138
31
0.0
0
LINE
8
FRONT
10
0.289228
20
0.927055
30
0.0
11
0.288509
21
0.927356
31
0.0
0
LINE
8
FRONT
10
0.288509
20
0.927356
30
0.0
11
0.287801
21
0.927681
31
0.0
0
LINE
8
FRONT
10
0.287801
20
0.927681
30
0.0
11
0.287104
21
0.928029
31
0.0
0
LINE
8
FRONT
10
0.287104
20
0.928029
30
0.0
11
0.286419
21
0.928400
31
0.0
0
LINE
8
FRONT
10
0.286419
20
0.928400
30
0.0
11
0.285747
21
0.928794
31
0.0
0
LINE
8
FRONT
10
0.285747
20
0.928794
30
0.0
11
0.285088
21
0.929210
31
0.0
0
LINE
8
FRONT
10
0.285088
20
0.929210
30
0.0
11
0.284443
21
0.929648
31
0.0
0
LINE
8
FRONT
10
0.284443
20
0.929648
30
0.0
11
0.283813
21
0.930106
31
0.0
0
LINE
8
FRONT
10
0.283813
20
0.930106
30
0.0
11
0.283199
21
0.930586
31
0.0
0
LINE
8
FRONT
10
0.283199
20
0.930586
30
0.0
11
0.282601
21
0.931085
31
0.0
0
LINE
8
FRONT
10
0.282601
20
0.931085
30
0.0
11
0.282021
21
0.931605
31
0.0
0
LINE
8
FRONT
10
0.282021
20
0.931605
30
0.0
11
0.281457
21
0.932143
31
0.0
0
LINE
8
FRONT
10
0.281457
20
0.932143
30
0.0
11
0.280912
21
0.932700
31
0.0
0
LINE
8
FRONT
10
0.280912
20
0.932700
30
0.0
11
0.280386
21
0.933274
31
0.0
0
LINE
8
FRONT
10
0.280386
20
0.933274
30
0.0
11
0.279879
21
0.933866
31
0.0
0
LINE
8
FRONT
10
0.279879
20
0.933866
30
0.0
11
0.279392
21
0.934474
31
0.0
0
LINE
8
FRONT
10
0.279392
20
0.934474
30
0.0
11
0.278925
21
0.935098
31
0.0
0
LINE
8
FRONT
10
0.278925
20
0.935098
30
0.0
11
0.278480
21
0.935737
31
0.0
0
LINE
8
FRONT
10
0.278480
20
0.935737
30
0.0
11
0.278055
21
0.936390
31
0.0
0
LINE
8
FRONT
10
0.278055
20
0.936390
30
0.0
11
0.277653
21
0.937058
31
0.0
0
LINE
8
FRONT
10
0.277653
20
0.937058
30
0.0
11
0.277274
21
0.937738
31
0.0
0
LINE
8
FRONT
10
0.277274
20
0.937738
30
0.0
11
0.276917
21
0.938431
31
0.0
0
LINE
8
FRONT
10
0.276917
20
0.938431
30
0.0
11
0.276583
21
0.939135
31
0.0
0
LINE
8
FRONT
10
0.276583
20
0.939135
30
0.0
11
0.276273
21
0.939850
31
0.0
0
LINE
8
FRONT
10
0.276273
20
0.939850
30
0.0
11
0.275987
21
0.940574
31
0.0
0
LINE
8
FRONT
10
0.275987
20
0.940574
30
0.0
11
0.275725
21
0.941308
31
0.0
0
LINE
8
FRONT
10
0.275725
20
0.941308
30
0.0
11
0.275488
21
0.942050
31
0.0
0
LINE
8
FRONT
10
0.275488
20
0.942050
30
0.0
11
0.275275
21
0.942800
31
0.0
0
LINE
8
FRONT
10
0.275275
20
0.942800
30
0.0
11
0.275088
21
0.943556
31
0.0
0
LINE
8
FRONT
10
0.275088
20
0.943556
30
0.0
11
0.274925
21
0.944318
31
0.0
0
LINE
8
FRONT
10
0.274925
20
0.944318
30
0.0
11
0.274788
21
0.945085
31
0.0
0
LINE
8
FRONT
10
0.274788
20
0.945085
30
0.0
11
0.274677
21
0.945856
31
0.0
0
LINE
8
FRONT
10
0.274677
20
0.945856
30
0.0
11
0.274591
21
0.946631
31
0.0
0
LINE
8
FRONT
10
0.274591
20
0.946631
30
0.0
11
0.274532
21
0.947407
31
0.0
0
LINE
8
FRONT
10
0.274532
20
0.947407
30
0.0
11
0.274498
21
0.948186
31
0.0
0
LINE
8
FRONT
10
0.274498
20
0.948186
30
0.0
11
0.274490
21
0.948965
31
0.0
0
LINE
8
FRONT
10
0.274490
20
0.948965
30
0.0
11
0.274507
21
0.949744
31
0.0
0
LINE
8
FRONT
10
0.274507
20
0.949744
30
0.0
11
0.274551
21
0.950522
31
0.0
0
LINE
8
FRONT
10
0.274551
20
0.950522
30
0.0
11
0.274621
21
0.951298
31
0.0
0
LINE
8
FRONT
10
0.274621
20
0.951298
30
0.0
11
0.274716
21
0.952071
31
0.0
0
LINE
8
FRONT
10
0.274716
20
0.952071
30
0.0
11
0.274837
21
0.952841
31
0.0
0
LINE
8
FRONT
10
0.274837
20
0.952841
30
0.0
11
0.274983
21
0.953606
31
0.0
0
LINE
8
FRONT
10
0.274983
20
0.953606
30
0.0
11
0.275155
21
0.954366
31
0.0
0
LINE
8
FRONT
10
0.275155
20
0.954366
30
0.0
11
0.275352
21
0.955120
31
0.0
0
LINE
8
FRONT
10
0.275352
20
0.955120
30
0.0
11
0.275574
21
0.955867
31
0.0
0
LINE
8
FRONT
10
0.275574
20
0.955867
30
0.0
11
0.275821
21
0.956606
31
0.0
0
LINE
8
FRONT
10
0.275821
20
0.956606
30
0.0
11
0.276092
21
0.957336
31
0.0
0
LINE
8
FRONT
10
0.276092
20
0.957336
30
0.0
11
0.276387
21
0.958057
31
0.0
0
LINE
8
FRONT
10
0.276387
20
0.958057
30
0.0
11
0.276706
21
0.958768
31
0.0
0
LINE
8
FRONT
10
0.276706
20
0.958768
30
0.0
11
0.277048
21
0.959468
31
0.0
0
LINE
8
FRONT
10
0.277048
20
0.959468
30
0.0
11
0.277414
21
0.960156
31
0.0
0
LINE
8
FRONT
10
0.277414
20
0.960156
30
0.0
11
0.277802
21
0.960831
31
0.0
0
LINE
8
FRONT
10
0.277802
20
0.960831
30
0.0
11
0.278212
21
0.961494
31
0.0
0
LINE
8
FRONT
10
0.278212
20
0.961494
30
0.0
11
0.278645
21
0.962142
31
0.0
0
LINE
8
FRONT
10
0.278645
20
0.962142
30
0.0
11
0.279098
21
0.962776
31
0.0
0
LINE
8
FRONT
10
0.279098
20
0.962776
30
0.0
11
0.279572
21
0.963394
31
0.0
0
LINE
8
FRONT
10
0.279572
20
0.963394
30
0.0
11
0.280067
21
0.963996
31
0.0
0
LINE
8
FRONT
10
0.280067
20
0.963996
30
0.0
11
0.280581
21
0.964581
31
0.0
0
LINE
8
FRONT
10
0.280581
20
0.964581
30
0.0
11
0.281115
21
0.965149
31
0.0
0
LINE
8
FRONT
10
0.281115
20
0.965149
30
0.0
11
0.281667
21
0.965698
31
0.0
0
LINE
8
FRONT
10
0.281667
20
0.965698
30
0.0
11
0.282237
21
0.966230
31
0.0
0
LINE
8
FRONT
10
0.282237
20
0.966230
30
0.0
11
0.282824
21
0.966741
31
0.0
0
LINE
8
FRONT
10
0.282824
20
0.966741
30
0.0
11
0.283428
21
0.967234
31
0.0
0
LINE
8
FRONT
10
0.138447
20
0.967234
30
0.0
11
0.139051
21
0.966741
31
0.0
0
LINE
8
FRONT
10
0.139051
20
0.966741
30
0.0
11
0.139638
21
0.966230
31
0.0
0
LINE
8
FRONT
10
0.139638
20
0.966230
30
0.0
11
0.140208
21
0.965698
31
0.0
0
LINE
8
FRONT
10
0.140208
20
0.965698
30
0.0
11
0.140760
21
0.965149
31
0.0
0
LINE
8
FRONT
10
0.140760
20
0.965149
30
0.0
11
0.141294
21
0.964581
31
0.0
0
LINE
8
FRONT
10
0.141294
20
0.964581
30
0.0
11
0.141808
21
0.963996
31
0.0
0
LINE
8
FRONT
10
0.141808
20
0.963996
30
0.0
11
0.142303
21
0.963394
31
0.0
0
LINE
8
FRONT
10
0.142303
20
0.963394
30
0.0
11
0.142777
21
0.962776
31
0.0
0
LINE
8
FRONT
10
0.142777
20
0.962776
30
0.0
11
0.143230
21
0.962142
31
0.0
0
LINE
8
FRONT
10
0.143230
20
0.962142
30
0.0
11
0.143663
21
0.961494
31
0.0
0
LINE
8
FRONT
10
0.143663
20
0.961494
30
0.0
11
0.144073
21
0.960831
31
0.0
0
LINE
8
FRONT
10
0.144073
20
0.960831
30
0.0
11
0.144461
21
0.960156
31
0.0
0
LINE
8
FRONT
10
0.144461
20
0.960156
30
0.0
11
0.144827
21
0.959468
31
0.0
0
LINE
8
FRONT
10
0.144827
20
0.959468
30
0.0
11
0.145169
21
0.958768
31
0.0
0
LINE
8
FRONT
10
0.145169
20
0.958768
30
0.0
11
0.145488
21
0.958057
31
0.0
0
LINE
8
FRONT
10
0.145488
20
0.958057
30
0.0
11
0.145783
21
0.957336
31
0.0
0
LINE
8
FRONT
10
0.145783
20
0.957336
30
0.0
11
0.146054
21
0.956606
31
0.0
0
LINE
8
FRONT
10
0.146054
20
0.956606
30
0.0
11
0.146301
21
0.955867
31
0.0
0
LINE
8
FRONT
10
0.146301
20
0.955867
30
0.0
11
0.146523
21
0.955120
31
0.0
0
LINE
8
FRONT
10
0.146523
20
0.955120
30
0.0
11
0.146720
21
0.954366
31
0.0
0
LINE
8
FRONT
10
0.146720
20
0.954366
30
0.0
11
0.146892
21
0.953606
31
0.0
0
LINE
8
FRONT
10
0.146892
20
0.953606
30
0.0
11
0.147038
21
0.952841
31
0.0
0
LINE
8
FRONT
10
0.147038
20
0.952841
30
0.0
11
0.147159
21
0.952071
31
0.0
0
LINE
8
FRONT
10
0.147159
20
0.952071
30
0.0
11
0.147254
21
0.951298
31
0.0
0
LINE
8
FRONT
10
0.147254
20
0.951298
30
0.0
11
0.147324
21
0.950522
31
0.0
0
LINE
8
FRONT
10
0.147324
20
0.950522
30
0.0
11
0.147368
21
0.949744
31
0.0
0
LINE
8
FRONT
10
0.147368
20
0.949744
30
0.0
11
0.147385
21
0.948965
31
0.0
0
LINE
8
FRONT
10
0.147385
20
0.948965
30
0.0
11
0.147377
21
0.948186
31
0.0
0
LINE
8
FRONT
10
0.147377
20
0.948186
30
0.0
11
0.147343
21
0.947407
31
0.0
0
LINE
8
FRONT
10
0.147343
20
0.947407
30
0.0
11
0.147284
21
0.946631
31
0.0
0
LINE
8
FRONT
10
0.147284
20
0.946631
30
0.0
11
0.147198
21
0.945856
31
0.0
0
LINE
8
FRONT
10
0.147198
20
0.945856
30
0.0
11
0.147087
21
0.945085
31
0.0
0
LINE
8
FRONT
10
0.147087
20
0.945085
30
0.0
11
0.146950
21
0.944318
31
0.0
0
LINE
8
FRONT
10
0.146950
20
0.944318
30
0.0
11
0.146787
21
0.943556
31
0.0
0
LINE
8
FRONT
10
0.146787
20
0.943556
30
0.0
11
0.146600
21
0.942800
31
0.0
0
LINE
8
FRONT
10
0.146600
20
0.942800
30
0.0
11
0.146387
21
0.942050
31
0.0
0
LINE
8
FRONT
10
0.146387
20
0.942050
30
0.0
11
0.146150
21
0.941308
31
0.0
0
LINE
8
FRONT
10
0.146150
20
0.941308
30
0.0
11
0.145888
21
0.940574
31
0.0
0
LINE
8
FRONT
10
0.145888
20
0.940574
30
0.0
11
0.145602
21
0.939850
31
0.0
0
LINE
8
FRONT
10
0.145602
20
0.939850
30
0.0
11
0.145292
21
0.939135
31
0.0
0
LINE
8
FRONT
10
0.145292
20
0.939135
30
0.0
11
0.144958
21
0.938431
31
0.0
0
LINE
8
FRONT
10
0.144958
20
0.938431
30
0.0
11
0.144601
21
0.937738
31
0.0
0
LINE
8
FRONT
10
0.144601
20
0.937738
30
0.0
11
0.144222
21
0.937058
31
0.0
0
LINE
8
FRONT
10
0.144222
20
0.937058
30
0.0
11
0.143820
21
0.936390
31
0.0
0
LINE
8
FRONT
10
0.143820
20
0.936390
30
0.0
11
0.143395
21
0.935737
31
0.0
0
LINE
8
FRONT
10
0.143395
20
0.935737
30
0.0
11
0.142950
21
0.935098
31
0.0
0
LINE
8
FRONT
10
0.142950
20
0.935098
30
0.0
11
0.142483
21
0.934474
31
0.0
0
LINE
8
FRONT
10
0.142483
20
0.934474
30
0.0
11
0.141996
21
0.933866
31
0.0
0
LINE
8
FRONT
10
0.141996
20
0.933866
30
0.0
11
0.141489
21
0.933274
31
0.0
0
LINE
8
FRONT
10
0.141489
20
0.933274
30
0.0
11
0.140963
21
0.932700
31
0.0
0
LINE
8
FRONT
10
0.140963
20
0.932700
30
0.0
11
0.140418
21
0.932143
31
0.0
0
LINE
8
FRONT
10
0.140418
20
0.932143
30
0.0
11
0.139854
21
0.931605
31
0.0
0
LINE
8
FRONT
10
0.139854
20
0.931605
30
0.0
11
0.139274
21
0.931085
31
0.0
0
LINE
8
FRONT
10
0.139274
20
0.931085
30
0.0
11
0.138676
21
0.930586
31
0.0
0
LINE
8
FRONT
10
0.138676
20
0.930586
30
0.0
11
0.138062
21
0.930106
31
0.0
0
LINE
8
FRONT
10
0.138062
20
0.930106
30
0.0
11
0.137432
21
0.929648
31
0.0
0
LINE
8
FRONT
10
0.137432
20
0.929648
30
0.0
11
0.136787
21
0.929210
31
0.0
0
LINE
8
FRONT
10
0.136787
20
0.929210
30
0.0
11
0.136128
21
0.928794
31
0.0
0
LINE
8
FRONT
10
0.136128
20
0.928794
30
0.0
11
0.135456
21
0.928400
31
0.0
0
LINE
8
FRONT
10
0.135456
20
0.928400
30
0.0
11
0.134771
21
0.928029
31
0.0
0
LINE
8
FRONT
10
0.134771
20
0.928029
30
0.0
11
0.134074
21
0.927681
31
0.0
0
LINE
8
FRONT
10
0.134074
20
0.927681
30
0.0
11
0.133366
21
0.927356
31
0.0
0
LINE
8
FRONT
10
0.133366
20
0.927356
30
0.0
11
0.132647
21
0.927055
31
0.0
0
LINE
8
FRONT
10
0.094384
20
1.047138
30
0.0
11
0.094478
21
1.043833
31
0.0
0
LINE
8
FRONT
10
0.094478
20
1.043833
30
0.0
11
0.094538
21
1.040528
31
0.0
0
LINE
8
FRONT
10
0.094538
20
1.040528
30
0.0
11
0.094566
21
1.037221
31
0.0
0
LINE
8
FRONT
10
0.094566
20
1.037221
30
0.0
11
0.094560
21
1.033915
31
0.0
0
LINE
8
FRONT
10
0.094560
20
1.033915
30
0.0
11
0.094520
21
1.030609
31
0.0
0
LINE
8
FRONT
10
0.094520
20
1.030609
30
0.0
11
0.094448
21
1.027304
31
0.0
0
LINE
8
FRONT
10
0.094448
20
1.027304
30
0.0
11
0.094342
21
1.023999
31
0.0
0
LINE
8
FRONT
10
0.094342
20
1.023999
30
0.0
11
0.094203
21
1.020696
31
0.0
0
LINE
8
FRONT
10
0.094203
20
1.020696
30
0.0
11
0.094030
21
1.017394
31
0.0
0
LINE
8
FRONT
10
0.094030
20
1.017394
30
0.0
11
0.093824
21
1.014094
31
0.0
0
LINE
8
FRONT
10
0.093824
20
1.014094
30
0.0
11
0.093585
21
1.010796
31
0.0
0
LINE
8
FRONT
10
0.093585
20
1.010796
30
0.0
11
0.093313
21
1.007501
31
0.0
0
LINE
8
FRONT
10
0.093313
20
1.007501
30
0.0
11
0.093008
21
1.004209
31
0.0
0
LINE
8
FRONT
10
0.093008
20
1.004209
30
0.0
11
0.092669
21
1.000920
31
0.0
0
LINE
8
FRONT
10
0.092669
20
1.000920
30
0.0
11
0.092297
21
0.997635
31
0.0
0
LINE
8
FRONT
10
0.092297
20
0.997635
30
0.0
11
0.091893
21
0.994354
31
0.0
0
LINE
8
FRONT
10
0.091893
20
0.994354
30
0.0
11
0.091455
21
0.991077
31
0.0
0
LINE
8
FRONT
10
0.091455
20
0.991077
30
0.0
11
0.090984
21
0.987804
31
0.0
0
LINE
8
FRONT
10
0.090984
20
0.987804
30
0.0
11
0.090480
21
0.984536
31
0.0
0
LINE
8
FRONT
10
0.090480
20
0.984536
30
0.0
11
0.089944
21
0.981274
31
0.0
0
LINE
8
FRONT
10
0.089944
20
0.981274
30
0.0
11
0.089374
21
0.978017
31
0.0
0
LINE
8
FRONT
10
0.089374
20
0.978017
30
0.0
11
0.088772
21
0.974766
31
0.0
0
LINE
8
FRONT
10
0.088772
20
0.974766
30
0.0
11
0.088137
21
0.971521
31
0.0
0
LINE
8
FRONT
10
0.088137
20
0.971521
30
0.0
11
0.087469
21
0.968283
31
0.0
0
LINE
8
FRONT
10
0.087469
20
0.968283
30
0.0
11
0.086769
21
0.965052
31
0.0
0
LINE
8
FRONT
10
0.086769
20
0.965052
30
0.0
11
0.086036
21
0.961828
31
0.0
0
LINE
8
FRONT
10
0.086036
20
0.961828
30
0.0
11
0.085271
21
0.958612
31
0.0
0
LINE
8
FRONT
10
0.085271
20
0.958612
30
0.0
11
0.084473
21
0.955403
31
0.0
0
LINE
8
FRONT
10
0.084473
20
0.955403
30
0.0
11
0.083643
21
0.952203
31
0.0
0
LINE
8
FRONT
10
0.083643
20
0.952203
30
0.0
11
0.082781
21
0.949011
31
0.0
0
LINE
8
FRONT
10
0.082781
20
0.949011
30
0.0
11
0.081887
21
0.945828
31
0.0
0
LINE
8
FRONT
10
0.081887
20
0.945828
30
0.0
11
0.080961
21
0.942654
31
0.0
0
LINE
8
FRONT
10
0.080961
20
0.942654
30
0.0
11
0.080003
21
0.939489
31
0.0
0
LINE
8
FRONT
10
0.080003
20
0.939489
30
0.0
11
0.079013
21
0.936335
31
0.0
0
LINE
8
FRONT
10
0.079013
20
0.936335
30
0.0
11
0.077991
21
0.933190
31
0.0
0
LINE
8
FRONT
10
0.077991
20
0.933190
30
0.0
11
0.076937
21
0.930056
31
0.0
0
LINE
8
FRONT
10
0.076937
20
0.930056
30
0.0
11
0.075853
21
0.926933
31
0.0
0
LINE
8
FRONT
10
0.075853
20
0.926933
30
0.0
11
0.074736
21
0.923821
31
0.0
0
LINE
8
FRONT
10
0.074736
20
0.923821
30
0.0
11
0.073589
21
0.920720
31
0.0
0
LINE
8
FRONT
10
0.073589
20
0.920720
30
0.0
11
0.072410
21
0.917631
31
0.0
0
LINE
8
FRONT
10
0.072410
20
0.917631
30
0.0
11
0.071200
21
0.914554
31
0.0
0
LINE
8
FRONT
10
0.071200
20
0.914554
30
0.0
11
0.069959
21
0.911490
31
0.0
0
LINE
8
FRONT
10
0.069959
20
0.911490
30
0.0
11
0.068687
21
0.908438
31
0.0
0
LINE
8
FRONT
10
0.068687
20
0.908438
30
0.0
11
0.067385
21
0.905399
31
0.0
0
LINE
8
FRONT
10
0.067385
20
0.905399
30
0.0
11
0.066052
21
0.902373
31
0.0
0
LINE
8
FRONT
10
0.066052
20
0.902373
30
0.0
11
0.064689
21
0.899361
31
0.0
0
LINE
8
FRONT
10
0.064689
20
0.899361
30
0.0
11
0.063295
21
0.896363
31
0.0
0
LINE
8
FRONT
10
0.063295
20
0.896363
30
0.0
11
0.061872
21
0.893379
31
0.0
0
LINE
8
FRONT
10
0.061872
20
0.893379
30
0.0
11
0.060418
21
0.890409
31
0.0
0
LINE
8
FRONT
10
0.060418
20
0.890409
30
0.0
11
0.058934
21
0.887455
31
0.0
0
LINE
8
FRONT
10
0.058934
20
0.887455
30
0.0
11
0.057421
21
0.884515
31
0.0
0
LINE
8
FRONT
10
0.057421
20
0.884515
30
0.0
11
0.055878
21
0.881591
31
0.0
0
LINE
8
FRONT
10
0.055878
20
0.881591
30
0.0
11
0.054306
21
0.878682
31
0.0
0
LINE
8
FRONT
10
0.054306
20
0.878682
30
0.0
11
0.052705
21
0.875790
31
0.0
0
LINE
8
FRONT
10
0.052705
20
0.875790
30
0.0
11
0.051074
21
0.872913
31
0.0
0
LINE
8
FRONT
10
0.051074
20
0.872913
30
0.0
11
0.049415
21
0.870054
31
0.0
0
LINE
8
FRONT
10
0.049415
20
0.870054
30
0.0
11
0.047727
21
0.867211
31
0.0
0
LINE
8
FRONT
10
0.047727
20
0.867211
30
0.0
11
0.046010
21
0.864385
31
0.0
0
LINE
8
FRONT
10
0.046010
20
0.864385
30
0.0
11
0.044265
21
0.861577
31
0.0
0
LINE
8
FRONT
10
0.044265
20
0.861577
30
0.0
11
0.042492
21
0.858787
31
0.0
0
LINE
8
FRONT
10
0.042492
20
0.858787
30
0.0
11
0.040691
21
0.856014
31
0.0
0
LINE
8
FRONT
10
0.040691
20
0.856014
30
0.0
11
0.038861
21
0.853260
31
0.0
0
LINE
8
FRONT
10
0.038861
20
0.853260
30
0.0
11
0.037005
21
0.850524
31
0.0
0
LINE
8
FRONT
10
0.070312
20
0.731184
30
0.0
11
0.071011
21
0.717183
31
0.0
0
LINE
8
FRONT
10
0.071011
20
0.717183
30
0.0
11
0.073101
21
0.703320
31
0.0
0
LINE
8
FRONT
10
0.073101
20
0.703320
30
0.0
11
0.076560
21
0.689734
31
0.0
0
LINE
8
FRONT
10
0.076560
20
0.689734
30
0.0
11
0.081355
21
0.676561
31
0.0
0
LINE
8
FRONT
10
0.081355
20
0.676561
30
0.0
11
0.087438
21
0.663930
31
0.0
0
LINE
8
FRONT
10
0.087438
20
0.663930
30
0.0
11
0.094748
21
0.651968
31
0.0
0
LINE
8
FRONT
10
0.094748
20
0.651968
30
0.0
11
0.103213
21
0.640792
31
0.0
0
LINE
8
FRONT
10
0.103213
20
0.640792
30
0.0
11
0.112748
21
0.630516
31
0.0
0
LINE
8
FRONT
10
0.112748
20
0.630516
30
0.0
11
0.123259
21
0.621239
31
0.0
0
LINE
8
FRONT
10
0.123259
20
0.621239
30
0.0
11
0.134642
21
0.613056
31
0.0
0
LINE
8
FRONT
10
0.134642
20
0.613056
30
0.0
11
0.146783
21
0.606046
31
0.0
0
LINE
8
FRONT
10
0.146783
20
0.606046
30
0.0
11
0.159561
21
0.600280
31
0.0
0
LINE
8
FRONT
10
0.159561
20
0.600280
30
0.0
11
0.172851
21
0.595815
31
0.0
0
LINE
8
FRONT
10
0.172851
20
0.595815
30
0.0
11
0.186518
21
0.592696
31
0.0
0
LINE
8
FRONT
10
0.186518
20
0.592696
30
0.0
11
0.200429
21
0.590953
31
0.0
0
LINE
8
FRONT
10
0.200429
20
0.590953
30
0.0
11
0.214443
21
0.590603
31
0.0
0
LINE
8
FRONT
10
0.214443
20
0.590603
30
0.0
11
0.228423
21
0.591651
31
0.0
0
LINE
8
FRONT
10
0.228423
20
0.591651
30
0.0
11
0.242230
21
0.594085
31
0.0
0
LINE
8
FRONT
10
0.242230
20
0.594085
30
0.0
11
0.255725
21
0.597882
31
0.0
0
LINE
8
FRONT
10
0.255725
20
0.597882
30
0.0
11
0.268775
21
0.603004
31
0.0
0
LINE
8
FRONT
10
0.268775
20
0.603004
30
0.0
11
0.281250
21
0.609400
31
0.0
0
LINE
8
FRONT
10
0.281250
20
0.609400
30
0.0
11
0.293026
21
0.617006
31
0.0
0
LINE
8
FRONT
10
0.293026
20
0.617006
30
0.0
11
0.303987
21
0.625746
31
0.0
0
LINE
8
FRONT
10
0.303987
20
0.625746
30
0.0
11
0.314023
21
0.635535
31
0.0
0
LINE
8
FRONT
10
0.314023
20
0.635535
30
0.0
11
0.323034
21
0.646274
31
0.0
0
LINE
8
FRONT
10
0.323034
20
0.646274
30
0.0
11
0.330932
21
0.657858
31
0.0
0
LINE
8
FRONT
10
0.330932
20
0.657858
30
0.0
11
0.337636
21
0.670170
31
0.0
0
LINE
8
FRONT
10
0.337636
20
0.670170
30
0.0
11
0.343082
21
0.683088
31
0.0
0
LINE
8
FRONT
10
0.343082
20
0.683088
30
0.0
11
0.347214
21
0.696484
31
0.0
0
LINE
8
FRONT
10
0.347214
20
0.696484
30
0.0
11
0.349992
21
0.710225
31
0.0
0
LINE
8
FRONT
10
0.349992
20
0.710225
30
0.0
11
0.351388
21
0.724175
31
0.0
0
LINE
8
FRONT
10
0.351388
20
0.724175
30
0.0
11
0.351388
21
0.738194
31
0.0
0
LINE
8
FRONT
10
0.351388
20
0.738194
30
0.0
11
0.349992
21
0.752144
31
0.0
0
LINE
8
FRONT
10
0.349992
20
0.752144
30
0.0
11
0.347214
21
0.765885
31
0.0
0
LINE
8
FRONT
10
0.347214
20
0.765885
30
0.0
11
0.343082
21
0.779281
31
0.0
0
LINE
8
FRONT
10
0.343082
20
0.779281
30
0.0
11
0.337636
21
0.792199
31
0.0
0
LINE
8
FRONT
10
0.337636
20
0.792199
30
0.0
11
0.330932
21
0.804511
31
0.0
0
LINE
8
FRONT
10
0.330932
20
0.804511
30
0.0
11
0.323034
21
0.816094
31
0.0
0
LINE
8
FRONT
10
0.323034
20
0.816094
30
0.0
11
0.314023
21
0.826834
31
0.0
0
LINE
8
FRONT
10
0.314023
20
0.826834
30
0.0
11
0.303987
21
0.836622
31
0.0
0
LINE
8
FRONT
10
0.303987
20
0.836622
30
0.0
11
0.293026
21
0.845363
31
0.0
0
LINE
8
FRONT
10
0.293026
20
0.845363
30
0.0
11
0.281250
21
0.852969
31
0.0
0
LINE
8
FRONT
10
0.281250
20
0.852969
30
0.0
11
0.268775
21
0.859365
31
0.0
0
LINE
8
FRONT
10
0.268775
20
0.859365
30
0.0
11
0.255725
21
0.864487
31
0.0
0
LINE
8
FRONT
10
0.255725
20
0.864487
30
0.0
11
0.242230
21
0.868284
31
0.0
0
LINE
8
FRONT
10
0.242230
20
0.868284
30
0.0
11
0.228423
21
0.870718
31
0.0
0
LINE
8
FRONT
10
0.228423
20
0.870718
30
0.0
11
0.214443
21
0.871766
31
0.0
0
LINE
8
FRONT
10
0.214443
20
0.871766
30
0.0
11
0.200429
21
0.871416
31
0.0
0
LINE
8
FRONT
10
0.200429
20
0.871416
30
0.0
11
0.186518
21
0.869673
31
0.0
0
LINE
8
FRONT
10
0.186518
20
0.869673
30
0.0
11
0.172851
21
0.866553
31
0.0
0
LINE
8
FRONT
10
0.172851
20
0.866553
30
0.0
11
0.159561
21
0.862089
31
0.0
0
LINE
8
FRONT
10
0.159561
20
0.862089
30
0.0
11
0.146783
21
0.856323
31
0.0
0
LINE
8
FRONT
10
0.146783
20
0.856323
30
0.0
11
0.134642
21
0.849313
31
0.0
0
LINE
8
FRONT
10
0.134642
20
0.849313
30
0.0
11
0.123259
21
0.841129
31
0.0
0
LINE
8
FRONT
10
0.123259
20
0.841129
30
0.0
11
0.112748
21
0.831853
31
0.0
0
LINE
8
FRONT
10
0.112748
20
0.831853
30
0.0
11
0.103213
21
0.821576
31
0.0
0
LINE
8
FRONT
10
0.103213
20
0.821576
30
0.0
11
0.094748
21
0.810401
31
0.0
0
LINE
8
FRONT
10
0.094748
20
0.810401
30
0.0
11
0.087438
21
0.798439
31
0.0
0
LINE
8
FRONT
10
0.087438
20
0.798439
30
0.0
11
0.081355
21
0.785808
31
0.0
0
LINE
8
FRONT
10
0.081355
20
0.785808
30
0.0
11
0.076560
21
0.772634
31
0.0
0
LINE
8
FRONT
10
0.076560
20
0.772634
30
0.0
11
0.073101
21
0.759049
31
0.0
0
LINE
8
FRONT
10
0.073101
20
0.759049
30
0.0
11
0.071011
21
0.745186
31
0.0
0
LINE
8
FRONT
10
0.071011
20
0.745186
30
0.0
11
0.070312
21
0.731184
31
0.0
0
LINE
8
FRONT
10
0.283428
20
0.967234
30
0.0
11
0.284742
21
0.968283
31
0.0
0
LINE
8
FRONT
10
0.284742
20
0.968283
30
0.0
11
0.286040
21
0.969351
31
0.0
0
LINE
8
FRONT
10
0.286040
20
0.969351
30
0.0
11
0.287323
21
0.970438
31
0.0
0
LINE
8
FRONT
10
0.287323
20
0.970438
30
0.0
11
0.288590
21
0.971543
31
0.0
0
LINE
8
FRONT
10
0.288590
20
0.971543
30
0.0
11
0.289841
21
0.972666
31
0.0
0
LINE
8
FRONT
10
0.289841
20
0.972666
30
0.0
11
0.291076
21
0.973807
31
0.0
0
LINE
8
FRONT
10
0.291076
20
0.973807
30
0.0
11
0.292295
21
0.974965
31
0.0
0
LINE
8
FRONT
10
0.292295
20
0.974965
30
0.0
11
0.293496
21
0.976141
31
0.0
0
LINE
8
FRONT
10
0.293496
20
0.976141
30
0.0
11
0.294681
21
0.977334
31
0.0
0
LINE
8
FRONT
10
0.294681
20
0.977334
30
0.0
11
0.295848
21
0.978544
31
0.0
0
LINE
8
FRONT
10
0.295848
20
0.978544
30
0.0
11
0.296998
21
0.979771
31
0.0
0
LINE
8
FRONT
10
0.296998
20
0.979771
30
0.0
11
0.298131
21
0.981013
31
0.0
0
LINE
8
FRONT
10
0.298131
20
0.981013
30
0.0
11
0.299245
21
0.982272
31
0.0
0
LINE
8
FRONT
10
0.299245
20
0.982272
30
0.0
11
0.300341
21
0.983547
31
0.0
0
LINE
8
FRONT
10
0.300341
20
0.983547
30
0.0
11
0.301419
21
0.984838
31
0.0
0
LINE
8
FRONT
10
0.301419
20
0.984838
30
0.0
11
0.302478
21
0.986143
31
0.0
0
LINE
8
FRONT
10
0.302478
20
0.986143
30
0.0
11
0.303518
21
0.987464
31
0.0
0
LINE
8
FRONT
10
0.303518
20
0.987464
30
0.0
11
0.304539
21
0.988800
31
0.0
0
LINE
8
FRONT
10
0.304539
20
0.988800
30
0.0
11
0.305541
21
0.990150
31
0.0
0
LINE
8
FRONT
10
0.305541
20
0.990150
30
0.0
11
0.306524
21
0.991514
31
0.0
0
LINE
8
FRONT
10
0.306524
20
0.991514
30
0.0
11
0.307486
21
0.992892
31
0.0
0
LINE
8
FRONT
10
0.307486
20
0.992892
30
0.0
11
0.308429
21
0.994284
31
0.0
0
LINE
8
FRONT
10
0.308429
20
0.994284
30
0.0
11
0.309352
21
0.995690
31
0.0
0
LINE
8
FRONT
10
0.309352
20
0.995690
30
0.0
11
0.310255
21
0.997108
31
0.0
0
LINE
8
FRONT
10
0.310255
20
0.997108
30
0.0
11
0.311137
21
0.998539
31
0.0
0
LINE
8
FRONT
10
0.311137
20
0.998539
30
0.0
11
0.311998
21
0.999983
31
0.0
0
LINE
8
FRONT
10
0.311998
20
0.999983
30
0.0
11
0.312839
21
1.001439
31
0.0
0
LINE
8
FRONT
10
0.312839
20
1.001439
30
0.0
11
0.313659
21
1.002907
31
0.0
0
LINE
8
FRONT
10
0.313659
20
1.002907
30
0.0
11
0.314457
21
1.004386
31
0.0
0
LINE
8
FRONT
10
0.314457
20
1.004386
30
0.0
11
0.315235
21
1.005877
31
0.0
0
LINE
8
FRONT
10
0.315235
20
1.005877
30
0.0
11
0.315991
21
1.007379
31
0.0
0
LINE
8
FRONT
10
0.315991
20
1.007379
30
0.0
11
0.316725
21
1.008891
31
0.0
0
LINE
8
FRONT
10
0.316725
20
1.008891
30
0.0
11
0.317437
21
1.010414
31
0.0
0
LINE
8
FRONT
10
0.317437
20
1.010414
30
0.0
11
0.318128
21
1.011947
31
0.0
0
LINE
8
FRONT
10
0.318128
20
1.011947
30
0.0
11
0.318796
21
1.013490
31
0.0
0
LINE
8
FRONT
10
0.318796
20
1.013490
30
0.0
11
0.319442
21
1.015042
31
0.0
0
LINE
8
FRONT
10
0.319442
20
1.015042
30
0.0
11
0.320066
21
1.016603
31
0.0
0
LINE
8
FRONT
10
0.320066
20
1.016603
30
0.0
11
0.320668
21
1.018173
31
0.0
0
LINE
8
FRONT
10
0.320668
20
1.018173
30
0.0
11
0.321247
21
1.019752
31
0.0
0
LINE
8
FRONT
10
0.321247
20
1.019752
30
0.0
11
0.321803
21
1.021338
31
0.0
0
LINE
8
FRONT
10
0.321803
20
1.021338
30
0.0
11
0.322336
21
1.022933
31
0.0
0
LINE
8
FRONT
10
0.322336
20
1.022933
30
0.0
11
0.322846
21
1.024535
31
0.0
0
LINE
8
FRONT
10
0.322846
20
1.024535
30
0.0
11
0.323334
21
1.026144
31
0.0
0
LINE
8
FRONT
10
0.323334
20
1.026144
30
0.0
11
0.323798
21
1.027759
31
0.0
0
LINE
8
FRONT
10
0.323798
20
1.027759
30
0.0
11
0.324239
21
1.029382
31
0.0
0
LINE
8
FRONT
10
0.324239
20
1.029382
30
0.0
11
0.324657
21
1.031010
31
0.0
0
LINE
8
FRONT
10
0.324657
20
1.031010
30
0.0
11
0.325051
21
1.032645
31
0.0
0
LINE
8
FRONT
10
0.325051
20
1.032645
30
0.0
11
0.325422
21
1.034285
31
0.0
0
LINE
8
FRONT
10
0.325422
20
1.034285
30
0.0
11
0.325769
21
1.035930
31
0.0
0
LINE
8
FRONT
10
0.325769
20
1.035930
30
0.0
11
0.326093
21
1.037579
31
0.0
0
LINE
8
FRONT
10
0.326093
20
1.037579
30
0.0
11
0.326393
21
1.039234
31
0.0
0
LINE
8
FRONT
10
0.326393
20
1.039234
30
0.0
11
0.326669
21
1.040892
31
0.0
0
LINE
8
FRONT
10
0.326669
20
1.040892
30
0.0
11
0.326921
21
1.042554
31
0.0
0
LINE
8
FRONT
10
0.326921
20
1.042554
30
0.0
11
0.327149
21
1.044220
31
0.0
0
LINE
8
FRONT
10
0.327149
20
1.044220
30
0.0
11
0.327354
21
1.045889
31
0.0
0
LINE
8
FRONT
10
0.327354
20
1.045889
30
0.0
11
0.327535
21
1.047560
31
0.0
0
LINE
8
FRONT
10
0.327535
20
1.047560
30
0.0
11
0.327691
21
1.049234
31
0.0
0
LINE
8
FRONT
10
0.327691
20
1.049234
30
0.0
11
0.327824
21
1.050910
31
0.0
0
LINE
8
FRONT
10
0.327824
20
1.050910
30
0.0
11
0.327932
21
1.052588
31
0.0
0
LINE
8
FRONT
10
0.327932
20
1.052588
30
0.0
11
0.328016
21
1.054267
31
0.0
0
LINE
8
FRONT
10
0.328016
20
1.054267
30
0.0
11
0.328077
21
1.055947
31
0.0
0
LINE
8
FRONT
10
0.328077
20
1.055947
30
0.0
11
0.328113
21
1.057628
31
0.0
0
LINE
8
FRONT
10
0.328113
20
1.057628
30
0.0
11
0.328125
21
1.059309
31
0.0
0
LINE
8
FRONT
10
0.093750
20
1.059309
30
0.0
11
0.093762
21
1.057628
31
0.0
0
LINE
8
FRONT
10
0.093762
20
1.057628
30
0.0
11
0.093798
21
1.055947
31
0.0
0
LINE
8
FRONT
10
0.093798
20
1.055947
30
0.0
11
0.093859
21
1.054267
31
0.0
0
LINE
8
FRONT
10
0.093859
20
1.054267
30
0.0
11
0.093943
21
1.052588
31
0.0
0
LINE
8
FRONT
10
0.093943
20
1.052588
30
0.0
11
0.094051
21
1.050910
31
0.0
0
LINE
8
FRONT
10
0.094051
20
1.050910
30
0.0
11
0.094184
21
1.049234
31
0.0
0
LINE
8
FRONT
10
0.094184
20
1.049234
30
0.0
11
0.094340
21
1.047560
31
0.0
0
LINE
8
FRONT
10
0.094340
20
1.047560
30
0.0
11
0.094521
21
1.045889
31
0.0
0
LINE
8
FRONT
10
0.094521
20
1.045889
30
0.0
11
0.094726
21
1.044220
31
0.0
0
LINE
8
FRONT
10
0.094726
20
1.044220
30
0.0
11
0.094954
21
1.042554
31
0.0
0
LINE
8
FRONT
10
0.094954
20
1.042554
30
0.0
11
0.095206
21
1.040892
31
0.0
0
LINE
8
FRONT
10
0.095206
20
1.040892
30
0.0
11
0.095482
21
1.039234
31
0.0
0
LINE
8
FRONT
10
0.095482
20
1.039234
30
0.0
11
0.095782
21
1.037579
31
0.0
0
LINE
8
FRONT
10
0.095782
20
1.037579
30
0.0
11
0.096106
21
1.035930
31
0.0
0
LINE
8
FRONT
10
0.096106
20
1.035930
30
0.0
11
0.096453
21
1.034285
31
0.0
0
LINE
8
FRONT
10
0.096453
20
1.034285
30
0.0
11
0.096824
21
1.032645
31
0.0
0
LINE
8
FRONT
10
0.096824
20
1.032645
30
0.0
11
0.097218
21
1.031010
31
0.0
0
LINE
8
FRONT
10
0.097218
20
1.031010
30
0.0
11
0.097636
21
1.029382
31
0.0
0
LINE
8
FRONT
10
0.097636
20
1.029382
30
0.0
11
0.098077
21
1.027759
31
0.0
0
LINE
8
FRONT
10
0.098077
20
1.027759
30
0.0
11
0.098541
21
1.026144
31
0.0
0
LINE
8
FRONT
10
0.098541
20
1.026144
30
0.0
11
0.099029
21
1.024535
31
0.0
0
LINE
8
FRONT
10
0.099029
20
1.024535
30
0.0
11
0.099539
21
1.022933
31
0.0
0
LINE
8
FRONT
10
0.099539
20
1.022933
30
0.0
11
0.100072
21
1.021338
31
0.0
0
LINE
8
FRONT
10
0.100072
20
1.021338
30
0.0
11
0.100628
21
1.019752
31
0.0
0
LINE
8
FRONT
10
0.100628
20
1.019752
30
0.0
11
0.101207
21
1.018173
31
0.0
0
LINE
8
FRONT
10
0.101207
20
1.018173
30
0.0
11
0.101809
21
1.016603
31
0.0
0
LINE
8
FRONT
10
0.101809
20
1.016603
30
0.0
11
0.102433
21
1.015042
31
0.0
0
LINE
8
FRONT
10
0.102433
20
1.015042
30
0.0
11
0.103079
21
1.013490
31
0.0
0
LINE
8
FRONT
10
0.103079
20
1.013490
30
0.0
11
0.103747
21
1.011947
31
0.0
0
LINE
8
FRONT
10
0.103747
20
1.011947
30
0.0
11
0.104438
21
1.010414
31
0.0
0
LINE
8
FRONT
10
0.104438
20
1.010414
30
0.0
11
0.105150
21
1.008891
31
0.0
0
LINE
8
FRONT
10
0.105150
20
1.008891
30
0.0
11
0.105884
21
1.007379
31
0.0
0
LINE
8
FRONT
10
0.105884
20
1.007379
30
0.0
11
0.106640
21
1.005877
31
0.0
0
LINE
8
FRONT
10
0.106640
20
1.005877
30
0.0
11
0.107418
21
1.004386
31
0.0
0
LINE
8
FRONT
10
0.107418
20
1.004386
30
0.0
11
0.108216
21
1.002907
31
0.0
0
LINE
8
FRONT
10
0.108216
20
1.002907
30
0.0
11
0.109036
21
1.001439
31
0.0
0
LINE
8
FRONT
10
0.109036
20
1.001439
30
0.0
11
0.109877
21
0.999983
31
0.0
0
LINE
8
FRONT
10
0.109877
20
0.999983
30
0.0
11
0.110738
21
0.998539
31
0.0
0
LINE
8
FRONT
10
0.110738
20
0.998539
30
0.0
11
0.111620
21
0.997108
31
0.0
0
LINE
8
FRONT
10
0.111620
20
0.997108
30
0.0
11
0.112523
21
0.995690
31
0.0
0
LINE
8
FRONT
10
0.112523
20
0.995690
30
0.0
11
0.113446
21
0.994284
31
0.0
0
LINE
8
FRONT
10
0.113446
20
0.994284
30
0.0
11
0.114389
21
0.992892
31
0.0
0
LINE
8
FRONT
10
0.114389
20
0.992892
30
0.0
11
0.115351
21
0.991514
31
0.0
0
LINE
8
FRONT
10
0.115351
20
0.991514
30
0.0
11
0.116334
21
0.990150
31
0.0
0
LINE
8
FRONT
10
0.116334
20
0.990150
30
0.0
11
0.117336
21
0.988800
31
0.0
0
LINE
8
FRONT
10
0.117336
20
0.988800
30
0.0
11
0.118357
21
0.987464
31
0.0
0
LINE
8
FRONT
10
0.118357
20
0.987464
30
0.0
11
0.119397
21
0.986143
31
0.0
0
LINE
8
FRONT
10
0.119397
20
0.986143
30
0.0
11
0.120456
21
0.984838
31
0.0
0
LINE
8
FRONT
10
0.120456
20
0.984838
30
0.0
11
0.121534
21
0.983547
31
0.0
0
LINE
8
FRONT
10
0.121534
20
0.983547
30
0.0
11
0.122630
21
0.982272
31
0.0
0
LINE
8
FRONT
10
0.122630
20
0.982272
30
0.0
11
0.123744
21
0.981013
31
0.0
0
LINE
8
FRONT
10
0.123744
20
0.981013
30
0.0
11
0.124877
21
0.979771
31
0.0
0
LINE
8
FRONT
10
0.124877
20
0.979771
30
0.0
11
0.126027
21
0.978544
31
0.0
0
LINE
8
FRONT
10
0.126027
20
0.978544
30
0.0
11
0.127194
21
0.977334
31
0.0
0
LINE
8
FRONT
10
0.127194
20
0.977334
30
0.0
11
0.128379
21
0.976141
31
0.0
0
LINE
8
FRONT
10
0.128379
20
0.976141
30
0.0
11
0.129580
21
0.974965
31
0.0
0
LINE
8
FRONT
10
0.129580
20
0.974965
30
0.0
11
0.130799
21
0.973807
31
0.0
0
LINE
8
FRONT
10
0.130799
20
0.973807
30
0.0
11
0.132034
21
0.972666
31
0.0
0
LINE
8
FRONT
10
0.132034
20
0.972666
30
0.0
11
0.133285
21
0.971543
31
0.0
0
LINE
8
FRONT
10
0.133285
20
0.971543
30
0.0
11
0.134552
21
0.970438
31
0.0
0
LINE
8
FRONT
10
0.134552
20
0.970438
30
0.0
11
0.135835
21
0.969351
31
0.0
0
LINE
8
FRONT
10
0.135835
20
0.969351
30
0.0
11
0.137133
21
0.968283
31
0.0
0
LINE
8
FRONT
10
0.137133
20
0.968283
30
0.0
11
0.138447
21
0.967234
31
0.0
0
LINE
8
FRONT
10
0.328125
20
1.059309
30
0.0
11
0.328125
21
1.363997
31
0.0
0
LINE
8
FRONT
10
0.328125
20
1.363997
30
0.0
11
0.327979
21
1.369838
31
0.0
0
LINE
8
FRONT
10
0.327979
20
1.369838
30
0.0
11
0.327543
21
1.375665
31
0.0
0
LINE
8
FRONT
10
0.327543
20
1.375665
30
0.0
11
0.326816
21
1.381463
31
0.0
0
LINE
8
FRONT
10
0.326816
20
1.381463
30
0.0
11
0.325801
21
1.387217
31
0.0
0
LINE
8
FRONT
10
0.325801
20
1.387217
30
0.0
11
0.324501
21
1.392914
31
0.0
0
LINE
8
FRONT
10
0.324501
20
1.392914
30
0.0
11
0.322919
21
1.398539
31
0.0
0
LINE
8
FRONT
10
0.322919
20
1.398539
30
0.0
11
0.321058
21
1.404077
31
0.0
0
LINE
8
FRONT
10
0.321058
20
1.404077
30
0.0
11
0.318923
21
1.409517
31
0.0
0
LINE
8
FRONT
10
0.318923
20
1.409517
30
0.0
11
0.316520
21
1.414843
31
0.0
0
LINE
8
FRONT
10
0.316520
20
1.414843
30
0.0
11
0.313854
21
1.420042
31
0.0
0
LINE
8
FRONT
10
0.313854
20
1.420042
30
0.0
11
0.310933
21
1.425103
31
0.0
0
LINE
8
FRONT
10
0.310933
20
1.425103
30
0.0
11
0.307762
21
1.430011
31
0.0
0
LINE
8
FRONT
10
0.307762
20
1.430011
30
0.0
11
0.304351
21
1.434755
31
0.0
0
LINE
8
FRONT
10
0.304351
20
1.434755
30
0.0
11
0.300708
21
1.439324
31
0.0
0
LINE
8
FRONT
10
0.300708
20
1.439324
30
0.0
11
0.296842
21
1.443705
31
0.0
0
LINE
8
FRONT
10
0.296842
20
1.443705
30
0.0
11
0.292762
21
1.447888
31
0.0
0
LINE
8
FRONT
10
0.292762
20
1.447888
30
0.0
11
0.288479
21
1.451862
31
0.0
0
LINE
8
FRONT
10
0.288479
20
1.451862
30
0.0
11
0.284003
21
1.455618
31
0.0
0
LINE
8
FRONT
10
0.284003
20
1.455618
30
0.0
11
0.279345
21
1.459146
31
0.0
0
LINE
8
FRONT
10
0.279345
20
1.459146
30
0.0
11
0.274517
21
1.462437
31
0.0
0
LINE
8
FRONT
10
0.274517
20
1.462437
30
0.0
11
0.269531
21
1.465484
31
0.0
0
LINE
8
FRONT
10
0.269531
20
1.465484
30
0.0
11
0.264400
21
1.468279
31
0.0
0
LINE
8
FRONT
10
0.264400
20
1.468279
30
0.0
11
0.259135
21
1.470814
31
0.0
0
LINE
8
FRONT
10
0.259135
20
1.470814
30
0.0
11
0.253751
21
1.473084
31
0.0
0
LINE
8
FRONT
10
0.253751
20
1.473084
30
0.0
11
0.248260
21
1.475082
31
0.0
0
LINE
8
FRONT
10
0.248260
20
1.475082
30
0.0
11
0.242677
21
1.476804
31
0.0
0
LINE
8
FRONT
10
0.242677
20
1.476804
30
0.0
11
0.237014
21
1.478246
31
0.0
0
LINE
8
FRONT
10
0.237014
20
1.478246
30
0.0
11
0.231287
21
1.479404
31
0.0
0
LINE
8
FRONT
10
0.231287
20
1.479404
30
0.0
11
0.225509
21
1.480275
31
0.0
0
LINE
8
FRONT
10
0.225509
20
1.480275
30
0.0
11
0.219695
21
1.480857
31
0.0
0
LINE
8
FRONT
10
0.219695
20
1.480857
30
0.0
11
0.213859
21
1.481148
31
0.0
0
LINE
8
FRONT
10
0.213859
20
1.481148
30
0.0
11
0.208016
21
1.481148
31
0.0
0
LINE
8
FRONT
10
0.208016
20
1.481148
30
0.0
11
0.202180
21
1.480857
31
0.0
0
LINE
8
FRONT
10
0.202180
20
1.480857
30
0.0
11
0.196366
21
1.480275
31
0.0
0
LINE
8
FRONT
10
0.196366
20
1.480275
30
0.0
11
0.190588
21
1.479404
31
0.0
0
LINE
8
FRONT
10
0.190588
20
1.479404
30
0.0
11
0.184861
21
1.478246
31
0.0
0
LINE
8
FRONT
10
0.184861
20
1.478246
30
0.0
11
0.179198
21
1.476804
31
0.0
0
LINE
8
FRONT
10
0.179198
20
1.476804
30
0.0
11
0.173615
21
1.475082
31
0.0
0
LINE
8
FRONT
10
0.173615
20
1.475082
30
0.0
11
0.168124
21
1.473084
31
0.0
0
LINE
8
FRONT
10
0.168124
20
1.473084
30
0.0
11
0.162740
21
1.470814
31
0.0
0
LINE
8
FRONT
10
0.162740
20
1.470814
30
0.0
11
0.157475
21
1.468279
31
0.0
0
LINE
8
FRONT
10
0.157475
20
1.468279
30
0.0
11
0.152344
21
1.465484
31
0.0
0
LINE
8
FRONT
10
0.152344
20
1.465484
30
0.0
11
0.147358
21
1.462437
31
0.0
0
LINE
8
FRONT
10
0.147358
20
1.462437
30
0.0
11
0.142530
21
1.459146
31
0.0
0
LINE
8
FRONT
10
0.142530
20
1.459146
30
0.0
11
0.137872
21
1.455618
31
0.0
0
LINE
8
FRONT
10
0.137872
20
1.455618
30
0.0
11
0.133396
21
1.451862
31
0.0
0
LINE
8
FRONT
10
0.133396
20
1.451862
30
0.0
11
0.129113
21
1.447888
31
0.0
0
LINE
8
FRONT
10
0.129113
20
1.447888
30
0.0
11
0.125033
21
1.443705
31
0.0
0
LINE
8
FRONT
10
0.125033
20
1.443705
30
0.0
11
0.121167
21
1.439324
31
0.0
0
LINE
8
FRONT
10
0.121167
20
1.439324
30
0.0
11
0.117524
21
1.434755
31
0.0
0
LINE
8
FRONT
10
0.117524
20
1.434755
30
0.0
11
0.114113
21
1.430011
31
0.0
0
LINE
8
FRONT
10
0.114113
20
1.430011
30
0.0
11
0.110942
21
1.425103
31
0.0
0
LINE
8
FRONT
10
0.110942
20
1.425103
30
0.0
11
0.108021
21
1.420042
31
0.0
0
LINE
8
FRONT
10
0.108021
20
1.420042
30
0.0
11
0.105355
21
1.414843
31
0.0
0
LINE
8
FRONT
10
0.105355
20
1.414843
30
0.0
11
0.102952
21
1.409517
31
0.0
0
LINE
8
FRONT
10
0.102952
20
1.409517
30
0.0
11
0.100817
21
1.404077
31
0.0
0
LINE
8
FRONT
10
0.100817
20
1.404077
30
0.0
11
0.098956
21
1.398539
31
0.0
0
LINE
8
FRONT
10
0.098956
20
1.398539
30
0.0
11
0.097374
21
1.392914
31
0.0
0
LINE
8
FRONT
10
0.097374
20
1.392914
30
0.0
11
0.096074
21
1.387217
31
0.0
0
LINE
8
FRONT
10
0.096074
20
1.387217
30
0.0
11
0.095059
21
1.381463
31
0.0
0
LINE
8
FRONT
10
0.095059
20
1.381463
30
0.0
11
0.094332
21
1.375665
31
0.0
0
LINE
8
FRONT
10
0.094332
20
1.375665
30
0.0
11
0.093896
21
1.369838
31
0.0
0
LINE
8
FRONT
10
0.093896
20
1.369838
30
0.0
11
0.093750
21
1.363997
31
0.0
0
LINE
8
FRONT
10
0.093750
20
1.363997
30
0.0
11
0.093750
21
1.059309
31
0.0
0
LINE
8
FRONT
10
0.158203
20
1.059309
30
0.0
11
0.158269
21
1.056681
31
0.0
0
LINE
8
FRONT
10
0.158269
20
1.056681
30
0.0
11
0.158465
21
1.054059
31
0.0
0
LINE
8
FRONT
10
0.158465
20
1.054059
30
0.0
11
0.158792
21
1.051450
31
0.0
0
LINE
8
FRONT
10
0.158792
20
1.051450
30
0.0
11
0.159249
21
1.048860
31
0.0
0
LINE
8
FRONT
10
0.159249
20
1.048860
30
0.0
11
0.159834
21
1.046297
31
0.0
0
LINE
8
FRONT
10
0.159834
20
1.046297
30
0.0
11
0.160546
21
1.043766
31
0.0
0
LINE
8
FRONT
10
0.160546
20
1.043766
30
0.0
11
0.161383
21
1.041273
31
0.0
0
LINE
8
FRONT
10
0.161383
20
1.041273
30
0.0
11
0.162344
21
1.038826
31
0.0
0
LINE
8
FRONT
10
0.162344
20
1.038826
30
0.0
11
0.163425
21
1.036429
31
0.0
0
LINE
8
FRONT
10
0.163425
20
1.036429
30
0.0
11
0.164625
21
1.034089
31
0.0
0
LINE
8
FRONT
10
0.164625
20
1.034089
30
0.0
11
0.165940
21
1.031812
31
0.0
0
LINE
8
FRONT
10
0.165940
20
1.031812
30
0.0
11
0.167366
21
1.029603
31
0.0
0
LINE
8
FRONT
10
0.167366
20
1.029603
30
0.0
11
0.168901
21
1.027468
31
0.0
0
LINE
8
FRONT
10
0.168901
20
1.027468
30
0.0
11
0.170541
21
1.025412
31
0.0
0
LINE
8
FRONT
10
0.170541
20
1.025412
30
0.0
11
0.172280
21
1.023441
31
0.0
0
LINE
8
FRONT
10
0.172280
20
1.023441
30
0.0
11
0.174116
21
1.021559
31
0.0
0
LINE
8
FRONT
10
0.174116
20
1.021559
30
0.0
11
0.176044
21
1.019770
31
0.0
0
LINE
8
FRONT
10
0.176044
20
1.019770
30
0.0
11
0.178058
21
1.018080
31
0.0
0
LINE
8
FRONT
10
0.178058
20
1.018080
30
0.0
11
0.180154
21
1.016492
31
0.0
0
LINE
8
FRONT
10
0.180154
20
1.016492
30
0.0
11
0.182327
21
1.015011
31
0.0
0
LINE
8
FRONT
10
0.182327
20
1.015011
30
0.0
11
0.184570
21
1.013640
31
0.0
0
LINE
8
FRONT
10
0.184570
20
1.013640
30
0.0
11
0.186880
21
1.012383
31
0.0
0
LINE
8
FRONT
10
0.186880
20
1.012383
30
0.0
11
0.189249
21
1.011242
31
0.0
0
LINE
8
FRONT
10
0.189249
20
1.011242
30
0.0
11
0.191671
21
1.010220
31
0.0
0
LINE
8
FRONT
10
0.191671
20
1.010220
30
0.0
11
0.194142
21
1.009321
31
0.0
0
LINE
8
FRONT
10
0.194142
20
1.009321
30
0.0
11
0.196655
21
1.008546
31
0.0
0
LINE
8
FRONT
10
0.196655
20
1.008546
30
0.0
11
0.199203
21
1.007897
31
0.0
0
LINE
8
FRONT
10
0.199203
20
1.007897
30
0.0
11
0.201780
21
1.007376
31
0.0
0
LINE
8
FRONT
10
0.201780
20
1.007376
30
0.0
11
0.204380
21
1.006984
31
0.0
0
LINE
8
FRONT
10
0.204380
20
1.006984
30
0.0
11
0.206997
21
1.006723
31
0.0
0
LINE
8
FRONT
10
0.206997
20
1.006723
30
0.0
11
0.209623
21
1.006591
31
0.0
0
LINE
8
FRONT
10
0.209623
20
1.006591
30
0.0
11
0.212252
21
1.006591
31
0.0
0
LINE
8
FRONT
10
0.212252
20
1.006591
30
0.0
11
0.214878
21
1.006723
31
0.0
0
LINE
8
FRONT
10
0.214878
20
1.006723
30
0.0
11
0.217495
21
1.006984
31
0.0
0
LINE
8
FRONT
10
0.217495
20
1.006984
30
0.0
11
0.220095
21
1.007376
31
0.0
0
LINE
8
FRONT
10
0.220095
20
1.007376
30
0.0
11
0.222672
21
1.007897
31
0.0
0
LINE
8
FRONT
10
0.222672
20
1.007897
30
0.0
11
0.225220
21
1.008546
31
0.0
0
LINE
8
FRONT
10
0.225220
20
1.008546
30
0.0
11
0.227733
21
1.009321
31
0.0
0
LINE
8
FRONT
10
0.227733
20
1.009321
30
0.0
11
0.230204
21
1.010220
31
0.0
0
LINE
8
FRONT
10
0.230204
20
1.010220
30
0.0
11
0.232626
21
1.011242
31
0.0
0
LINE
8
FRONT
10
0.232626
20
1.011242
30
0.0
11
0.234995
21
1.012383
31
0.0
0
LINE
8
FRONT
10
0.234995
20
1.012383
30
0.0
11
0.237305
21
1.013640
31
0.0
0
LINE
8
FRONT
10
0.237305
20
1.013640
30
0.0
11
0.239548
21
1.015011
31
0.0
0
LINE
8
FRONT
10
0.239548
20
1.015011
30
0.0
11
0.241721
21
1.016492
31
0.0
0
LINE
8
FRONT
10
0.241721
20
1.016492
30
0.0
11
0.243817
21
1.018080
31
0.0
0
LINE
8
FRONT
10
0.243817
20
1.018080
30
0.0
11
0.245831
21
1.019770
31
0.0
0
LINE
8
FRONT
10
0.245831
20
1.019770
30
0.0
11
0.247759
21
1.021559
31
0.0
0
LINE
8
FRONT
10
0.247759
20
1.021559
30
0.0
11
0.249595
21
1.023441
31
0.0
0
LINE
8
FRONT
10
0.249595
20
1.023441
30
0.0
11
0.251334
21
1.025412
31
0.0
0
LINE
8
FRONT
10
0.251334
20
1.025412
30
0.0
11
0.252974
21
1.027468
31
0.0
0
LINE
8
FRONT
10
0.252974
20
1.027468
30
0.0
11
0.254509
21
1.029603
31
0.0
0
LINE
8
FRONT
10
0.254509
20
1.029603
30
0.0
11
0.255935
21
1.031812
31
0.0
0
LINE
8
FRONT
10
0.255935
20
1.031812
30
0.0
11
0.257250
21
1.034089
31
0.0
0
LINE
8
FRONT
10
0.257250
20
1.034089
30
0.0
11
0.258450
21
1.036429
31
0.0
0
LINE
8
FRONT
10
0.258450
20
1.036429
30
0.0
11
0.259531
21
1.038826
31
0.0
0
LINE
8
FRONT
10
0.259531
20
1.038826
30
0.0
11
0.260492
21
1.041273
31
0.0
0
LINE
8
FRONT
10
0.260492
20
1.041273
30
0.0
11
0.261329
21
1.043766
31
0.0
0
LINE
8
FRONT
10
0.261329
20
1.043766
30
0.0
11
0.262041
21
1.046297
31
0.0
0
LINE
8
FRONT
10
0.262041
20
1.046297
30
0.0
11
0.262626
21
1.048860
31
0.0
0
LINE
8
FRONT
10
0.262626
20
1.048860
30
0.0
11
0.263083
21
1.051450
31
0.0
0
LINE
8
FRONT
10
0.263083
20
1.051450
30
0.0
11
0.263410
21
1.054059
31
0.0
0
LINE
8
FRONT
10
0.263410
20
1.054059
30
0.0
11
0.263606
21
1.056681
31
0.0
0
LINE
8
FRONT
10
0.263606
20
1.056681
30
0.0
11
0.263672
21
1.059309
31
0.0
0
LINE
8
FRONT
10
0.263672
20
1.059309
30
0.0
11
0.263672
21
1.363997
31
0.0
0
LINE
8
FRONT
10
0.263672
20
1.363997
30
0.0
11
0.263606
21
1.366626
31
0.0
0
LINE
8
FRONT
10
0.263606
20
1.366626
30
0.0
11
0.263410
21
1.369248
31
0.0
0
LINE
8
FRONT
10
0.263410
20
1.369248
30
0.0
11
0.263083
21
1.371857
31
0.0
0
LINE
8
FRONT
10
0.263083
20
1.371857
30
0.0
11
0.262626
21
1.374446
31
0.0
0
LINE
8
FRONT
10
0.262626
20
1.374446
30
0.0
11
0.262041
21
1.377010
31
0.0
0
LINE
8
FRONT
10
0.262041
20
1.377010
30
0.0
11
0.261329
21
1.379541
31
0.0
0
LINE
8
FRONT
10
0.261329
20
1.379541
30
0.0
11
0.260492
21
1.382033
31
0.0
0
LINE
8
FRONT
10
0.260492
20
1.382033
30
0.0
11
0.259531
21
1.384481
31
0.0
0
LINE
8
FRONT
10
0.259531
20
1.384481
30
0.0
11
0.258450
21
1.386878
31
0.0
0
LINE
8
FRONT
10
0.258450
20
1.386878
30
0.0
11
0.257250
21
1.389217
31
0.0
0
LINE
8
FRONT
10
0.257250
20
1.389217
30
0.0
11
0.255935
21
1.391494
31
0.0
0
LINE
8
FRONT
10
0.255935
20
1.391494
30
0.0
11
0.254509
21
1.393703
31
0.0
0
LINE
8
FRONT
10
0.254509
20
1.393703
30
0.0
11
0.252974
21
1.395838
31
0.0
0
LINE
8
FRONT
10
0.252974
20
1.395838
30
0.0
11
0.251334
21
1.397894
31
0.0
0
LINE
8
FRONT
10
0.251334
20
1.397894
30
0.0
11
0.249595
21
1.399865
31
0.0
0
LINE
8
FRONT
10
0.249595
20
1.399865
30
0.0
11
0.247759
21
1.401748
31
0.0
0
LINE
8
FRONT
10
0.247759
20
1.401748
30
0.0
11
0.245831
21
1.403536
31
0.0
0
LINE
8
FRONT
10
0.245831
20
1.403536
30
0.0
11
0.243817
21
1.405226
31
0.0
0
LINE
8
FRONT
10
0.243817
20
1.405226
30
0.0
11
0.241721
21
1.406814
31
0.0
0
LINE
8
FRONT
10
0.241721
20
1.406814
30
0.0
11
0.239548
21
1.408295
31
0.0
0
LINE
8
FRONT
10
0.239548
20
1.408295
30
0.0
11
0.237305
21
1.409666
31
0.0
0
LINE
8
FRONT
10
0.237305
20
1.409666
30
0.0
11
0.234995
21
1.410924
31
0.0
0
LINE
8
FRONT
10
0.234995
20
1.410924
30
0.0
11
0.232626
21
1.412065
31
0.0
0
LINE
8
FRONT
10
0.232626
20
1.412065
30
0.0
11
0.230204
21
1.413086
31
0.0
0
LINE
8
FRONT
10
0.230204
20
1.413086
30
0.0
11
0.227733
21
1.413985
31
0.0
0
LINE
8
FRONT
10
0.227733
20
1.413985
30
0.0
11
0.225220
21
1.414760
31
0.0
0
LINE
8
FRONT
10
0.225220
20
1.414760
30
0.0
11
0.222672
21
1.415409
31
0.0
0
LINE
8
FRONT
10
0.222672
20
1.415409
30
0.0
11
0.220095
21
1.415930
31
0.0
0
LINE
8
FRONT
10
0.220095
20
1.415930
30
0.0
11
0.217495
21
1.416322
31
0.0
0
LINE
8
FRONT
10
0.217495
20
1.416322
30
0.0
11
0.214878
21
1.416584
31
0.0
0
LINE
8
FRONT
10
0.214878
20
1.416584
30
0.0
11
0.212252
21
1.416715
31
0.0
0
LINE
8
FRONT
10
0.212252
20
1.416715
30
0.0
11
0.209623
21
1.416715
31
0.0
0
LINE
8
FRONT
10
0.209623
20
1.416715
30
0.0
11
0.206997
21
1.416584
31
0.0
0
LINE
8
FRONT
10
0.206997
20
1.416584
30
0.0
11
0.204380
21
1.416322
31
0.0
0
LINE
8
FRONT
10
0.204380
20
1.416322
30
0.0
11
0.201780
21
1.415930
31
0.0
0
LINE
8
FRONT
10
0.201780
20
1.415930
30
0.0
11
0.199203
21
1.415409
31
0.0
0
LINE
8
FRONT
10
0.199203
20
1.415409
30
0.0
11
0.196655
21
1.414760
31
0.0
0
LINE
8
FRONT
10
0.196655
20
1.414760
30
0.0
11
0.194142
21
1.413985
31
0.0
0
LINE
8
FRONT
10
0.194142
20
1.413985
30
0.0
11
0.191671
21
1.413086
31
0.0
0
LINE
8
FRONT
10
0.191671
20
1.413086
30
0.0
11
0.189249
21
1.412065
31
0.0
0
LINE
8
FRONT
10
0.189249
20
1.412065
30
0.0
11
0.186880
21
1.410924
31
0.0
0
LINE
8
FRONT
10
0.186880
20
1.410924
30
0.0
11
0.184570
21
1.409666
31
0.0
0
LINE
8
FRONT
10
0.184570
20
1.409666
30
0.0
11
0.182327
21
1.408295
31
0.0
0
LINE
8
FRONT
10
0.182327
20
1.408295
30
0.0
11
0.180154
21
1.406814
31
0.0
0
LINE
8
FRONT
10
0.180154
20
1.406814
30
0.0
11
0.178058
21
1.405226
31
0.0
0
LINE
8
FRONT
10
0.178058
20
1.405226
30
0.0
11
0.176044
21
1.403536
31
0.0
0
LINE
8
FRONT
10
0.176044
20
1.403536
30
0.0
11
0.174116
21
1.401748
31
0.0
0
LINE
8
FRONT
10
0.174116
20
1.401748
30
0.0
11
0.172280
21
1.399865
31
0.0
0
LINE
8
FRONT
10
0.172280
20
1.399865
30
0.0
11
0.170541
21
1.397894
31
0.0
0
LINE
8
FRONT
10
0.170541
20
1.397894
30
0.0
11
0.168901
21
1.395838
31
0.0
0
LINE
8
FRONT
10
0.168901
20
1.395838
30
0.0
11
0.167366
21
1.393703
31
0.0
0
LINE
8
FRONT
10
0.167366
20
1.393703
30
0.0
11
0.165940
21
1.391494
31
0.0
0
LINE
8
FRONT
10
0.165940
20
1.391494
30
0.0
11
0.164625
21
1.389217
31
0.0
0
LINE
8
FRONT
10
0.164625
20
1.389217
30
0.0
11
0.163425
21
1.386878
31
0.0
0
LINE
8
FRONT
10
0.163425
20
1.386878
30
0.0
11
0.162344
21
1.384481
31
0.0
0
LINE
8
FRONT
10
0.162344
20
1.384481
30
0.0
11
0.161383
21
1.382033
31
0.0
0
LINE
8
FRONT
10
0.161383
20
1.382033
30
0.0
11
0.160546
21
1.379541
31
0.0
0
LINE
8
FRONT
10
0.160546
20
1.379541
30
0.0
11
0.159834
21
1.377010
31
0.0
0
LINE
8
FRONT
10
0.159834
20
1.377010
30
0.0
11
0.159249
21
1.374446
31
0.0
0
LINE
8
FRONT
10
0.159249
20
1.374446
30
0.0
11
0.158792
21
1.371857
31
0.0
0
LINE
8
FRONT
10
0.158792
20
1.371857
30
0.0
11
0.158465
21
1.369248
31
0.0
0
LINE
8
FRONT
10
0.158465
20
1.369248
30
0.0
11
0.158269
21
1.366626
31
0.0
0
LINE
8
FRONT
10
0.158269
20
1.366626
30
0.0
11
0.158203
21
1.363997
31
0.0
0
LINE
8
FRONT
10
0.158203
20
1.363997
30
0.0
11
0.158203
21
1.059309
31
0.0
0
LINE
8
FRONT_HID
6
HIDDEN
10
0.289228
20
0.927055
30
0.0
11
0.291056
21
0.926314
31
0.0
0
LINE
8
FRONT_HID
6
HIDDEN
10
0.291056
20
0.926314
30
0.0
11
0.292878
21
0.925556
31
0.0
0
LINE
8
FRONT_HID
6
HIDDEN
10
0.292878
20
0.925556
30
0.0
11
0.294692
21
0.924782
31
0.0
0
LINE
8
FRONT_HID
6
HIDDEN
10
0.294692
20
0.924782
30
0.0
11
0.296499
21
0.923990
31
0.0
0
LINE
8
FRONT_HID
6
HIDDEN
10
0.296499
20
0.923990
30
0.0
11
0.298298
21
0.923181
31
0.0
0
LINE
8
FRONT_HID
6
HIDDEN
10
0.298298
20
0.923181
30
0.0
11
0.300090
21
0.922356
31
0.0
0
LINE
8
FRONT_HID
6
HIDDEN
10
0.300090
20
0.922356
30
0.0
11
0.301874
21
0.921514
31
0.0
0
LINE
8
FRONT_HID
6
HIDDEN
10
0.301874
20
0.921514
30
0.0
11
0.303650
21
0.920655
31
0.0
0
LINE
8
FRONT_HID
6
HIDDEN
10
0.303650
20
0.920655
30
0.0
11
0.305418
21
0.919780
31
0.0
0
LINE
8
FRONT_HID
6
HIDDEN
10
0.305418
20
0.919780
30
0.0
11
0.307177
21
0.918888
31
0.0
0
LINE
8
FRONT_HID
6
HIDDEN
10
0.307177
20
0.918888
30
0.0
11
0.308928
21
0.917980
31
0.0
0
LINE
8
FRONT_HID
6
HIDDEN
10
0.308928
20
0.917980
30
0.0
11
0.310671
21
0.917055
31
0.0
0
LINE
8
FRONT_HID
6
HIDDEN
10
0.310671
20
0.917055
30
0.0
11
0.312405
21
0.916114
31
0.0
0
LINE
8
FRONT_HID
6
HIDDEN
10
0.312405
20
0.916114
30
0.0
11
0.314130
21
0.915157
31
0.0
0
LINE
8
FRONT_HID
6
HIDDEN
10
0.314130
20
0.915157
30
0.0
11
0.315846
21
0.914184
31
0.0
0
LINE
8
FRONT_HID
6
HIDDEN
10
0.315846
20
0.914184
30
0.0
11
0.317553
21
0.913195
31
0.0
0
LINE
8
FRONT_HID
6
HIDDEN
10
0.317553
20
0.913195
30
0.0
11
0.319250
21
0.912190
31
0.0
0
LINE
8
FRONT_HID
6
HIDDEN
10
0.319250
20
0.912190
30
0.0
11
0.320938
21
0.911169
31
0.0
0
LINE
8
FRONT_HID
6
HIDDEN
10
0.320938
20
0.911169
30
0.0
11
0.322617
21
0.910132
31
0.0
0
LINE
8
FRONT_HID
6
HIDDEN
10
0.322617
20
0.910132
30
0.0
11
0.324286
21
0.909080
31
0.0
0
LINE
8
FRONT_HID
6
HIDDEN
10
0.324286
20
0.909080
30
0.0
11
0.325944
21
0.908012
31
0.0
0
LINE
8
FRONT_HID
6
HIDDEN
10
0.325944
20
0.908012
30
0.0
11
0.327593
21
0.906929
31
0.0
0
LINE
8
FRONT_HID
6
HIDDEN
10
0.327593
20
0.906929
30
0.0
11
0.329231
21
0.905830
31
0.0
0
LINE
8
FRONT_HID
6
HIDDEN
10
0.329231
20
0.905830
30
0.0
11
0.330860
21
0.904716
31
0.0
0
LINE
8
FRONT_HID
6
HIDDEN
10
0.330860
20
0.904716
30
0.0
11
0.332477
21
0.903587
31
0.0
0
LINE
8
FRONT_HID
6
HIDDEN
10
0.332477
20
0.903587
30
0.0
11
0.334084
21
0.902443
31
0.0
0
LINE
8
FRONT_HID
6
HIDDEN
10
0.334084
20
0.902443
30
0.0
11
0.335681
21
0.901284
31
0.0
0
LINE
8
FRONT_HID
6
HIDDEN
10
0.335681
20
0.901284
30
0.0
11
0.337266
21
0.900110
31
0.0
0
LINE
8
FRONT_HID
6
HIDDEN
10
0.337266
20
0.900110
30
0.0
11
0.338840
21
0.898921
31
0.0
0
LINE
8
FRONT_HID
6
HIDDEN
10
0.338840
20
0.898921
30
0.0
11
0.340403
21
0.897717
31
0.0
0
LINE
8
FRONT_HID
6
HIDDEN
10
0.340403
20
0.897717
30
0.0
11
0.341955
21
0.896499
31
0.0
0
LINE
8
FRONT_HID
6
HIDDEN
10
0.341955
20
0.896499
30
0.0
11
0.343495
21
0.895267
31
0.0
0
LINE
8
FRONT_HID
6
HIDDEN
10
0.343495
20
0.895267
30
0.0
11
0.345024
21
0.894020
31
0.0
0
LINE
8
FRONT_HID
6
HIDDEN
10
0.345024
20
0.894020
30
0.0
11
0.346541
21
0.892759
31
0.0
0
LINE
8
FRONT_HID
6
HIDDEN
10
0.346541
20
0.892759
30
0.0
11
0.348046
21
0.891484
31
0.0
0
LINE
8
FRONT_HID
6
HIDDEN
10
0.348046
20
0.891484
30
0.0
11
0.349539
21
0.890194
31
0.0
0
LINE
8
FRONT_HID
6
HIDDEN
10
0.349539
20
0.890194
30
0.0
11
0.351020
21
0.888891
31
0.0
0
LINE
8
FRONT_HID
6
HIDDEN
10
0.351020
20
0.888891
30
0.0
11
0.352489
21
0.887574
31
0.0
0
LINE
8
FRONT_HID
6
HIDDEN
10
0.352489
20
0.887574
30
0.0
11
0.353945
21
0.886244
31
0.0
0
LINE
8
FRONT_HID
6
HIDDEN
10
0.353945
20
0.886244
30
0.0
11
0.355389
21
0.884899
31
0.0
0
LINE
8
FRONT_HID
6
HIDDEN
10
0.355389
20
0.884899
30
0.0
11
0.356821
21
0.883542
31
0.0
0
LINE
8
FRONT_HID
6
HIDDEN
10
0.356821
20
0.883542
30
0.0
11
0.358239
21
0.882171
31
0.0
0
LINE
8
FRONT_HID
6
HIDDEN
10
0.358239
20
0.882171
30
0.0
11
0.359645
21
0.880787
31
0.0
0
LINE
8
FRONT_HID
6
HIDDEN
10
0.359645
20
0.880787
30
0.0
11
0.361037
21
0.879389
31
0.0
0
LINE
8
FRONT_HID
6
HIDDEN
10
0.361037
20
0.879389
30
0.0
11
0.362417
21
0.877979
31
0.0
0
LINE
8
FRONT_HID
6
HIDDEN
10
0.362417
20
0.877979
30
0.0
11
0.363783
21
0.876556
31
0.0
0
LINE
8
FRONT_HID
6
HIDDEN
10
0.363783
20
0.876556
30
0.0
11
0.365136
21
0.875120
31
0.0
0
LINE
8
FRONT_HID
6
HIDDEN
10
0.365136
20
0.875120
30
0.0
11
0.366475
21
0.873672
31
0.0
0
LINE
8
FRONT_HID
6
HIDDEN
10
0.366475
20
0.873672
30
0.0
11
0.367801
21
0.872211
31
0.0
0
LINE
8
FRONT_HID
6
HIDDEN
10
0.367801
20
0.872211
30
0.0
11
0.369113
21
0.870738
31
0.0
0
LINE
8
FRONT_HID
6
HIDDEN
10
0.369113
20
0.870738
30
0.0
11
0.370411
21
0.869252
31
0.0
0
LINE
8
FRONT_HID
6
HIDDEN
10
0.370411
20
0.869252
30
0.0
11
0.371695
21
0.867755
31
0.0
0
LINE
8
FRONT_HID
6
HIDDEN
10
0.371695
20
0.867755
30
0.0
11
0.372966
21
0.866246
31
0.0
0
LINE
8
FRONT_HID
6
HIDDEN
10
0.372966
20
0.866246
30
0.0
11
0.374222
21
0.864724
31
0.0
0
LINE
8
FRONT_HID
6
HIDDEN
10
0.374222
20
0.864724
30
0.0
11
0.375463
21
0.863192
31
0.0
0
LINE
8
FRONT_HID
6
HIDDEN
10
0.375463
20
0.863192
30
0.0
11
0.376691
21
0.861647
31
0.0
0
LINE
8
FRONT_HID
6
HIDDEN
10
0.376691
20
0.861647
30
0.0
11
0.377904
21
0.860091
31
0.0
0
LINE
8
FRONT_HID
6
HIDDEN
10
0.377904
20
0.860091
30
0.0
11
0.379102
21
0.858524
31
0.0
0
LINE
8
FRONT_HID
6
HIDDEN
10
0.379102
20
0.858524
30
0.0
11
0.380285
21
0.856946
31
0.0
0
LINE
8
FRONT_HID
6
HIDDEN
10
0.380285
20
0.856946
30
0.0
11
0.381454
21
0.855357
31
0.0
0
LINE
8
FRONT_HID
6
HIDDEN
10
0.381454
20
0.855357
30
0.0
11
0.382608
21
0.853756
31
0.0
0
LINE
8
FRONT_HID
6
HIDDEN
10
0.382608
20
0.853756
30
0.0
11
0.383747
21
0.852146
31
0.0
0
LINE
8
FRONT_HID
6
HIDDEN
10
0.383747
20
0.852146
30
0.0
11
0.384870
21
0.850524
31
0.0
0
LINE
8
FRONT_HID
6
HIDDEN
10
0.210938
20
0.942122
30
0.0
11
0.212211
21
0.942118
31
0.0
0
LINE
8
FRONT_HID
6
HIDDEN
10
0.212211
20
0.942118
30
0.0
11
0.213484
21
0.942107
31
0.0
0
LINE
8
FRONT_HID
6
HIDDEN
10
0.213484
20
0.942107
30
0.0
11
0.214757
21
0.942087
31
0.0
0
LINE
8
FRONT_HID
6
HIDDEN
10
0.214757
20
0.942087
30
0.0
11
0.216030
21
0.942060
31
0.0
0
LINE
8
FRONT_HID
6
HIDDEN
10
0.216030
20
0.942060
30
0.0
11
0.217302
21
0.942026
31
0.0
0
LINE
8
FRONT_HID
6
HIDDEN
10
0.217302
20
0.942026
30
0.0
11
0.218575
21
0.941984
31
0.0
0
LINE
8
FRONT_HID
6
HIDDEN
10
0.218575
20
0.941984
30
0.0
11
0.219847
21
0.941934
31
0.0
0
LINE
8
FRONT_HID
6
HIDDEN
10
0.219847
20
0.941934
30
0.0
11
0.221119
21
0.941876
31
0.0
0
LINE
8
FRONT_HID
6
HIDDEN
10
0.221119
20
0.941876
30
0.0
11
0.222390
21
0.941811
31
0.0
0
LINE
8
FRONT_HID
6
HIDDEN
10
0.222390
20
0.941811
30
0.0
11
0.223661
21
0.941738
31
0.0
0
LINE
8
FRONT_HID
6
HIDDEN
10
0.223661
20
0.941738
30
0.0
11
0.224932
21
0.941657
31
0.0
0
LINE
8
FRONT_HID
6
HIDDEN
10
0.224932
20
0.941657
30
0.0
11
0.226202
21
0.941569
31
0.0
0
LINE
8
FRONT_HID
6
HIDDEN
10
0.226202
20
0.941569
30
0.0
11
0.227472
21
0.941473
31
0.0
0
LINE
8
FRONT_HID
6
HIDDEN
10
0.227472
20
0.941473
30
0.0
11
0.228741
21
0.941369
31
0.0
0
LINE
8
FRONT_HID
6
HIDDEN
10
0.228741
20
0.941369
30
0.0
11
0.230009
21
0.941258
31
0.0
0
LINE
8
FRONT_HID
6
HIDDEN
10
0.230009
20
0.941258
30
0.0
11
0.231276
21
0.941139
31
0.0
0
LINE
8
FRONT_HID
6
HIDDEN
10
0.231276
20
0.941139
30
0.0
11
0.232543
21
0.941013
31
0.0
0
LINE
8
FRONT_HID
6
HIDDEN
10
0.232543
20
0.941013
30
0.0
11
0.233809
21
0.940878
31
0.0
0
LINE
8
FRONT_HID
6
HIDDEN
10
0.233809
20
0.940878
30
0.0
11
0.235075
21
0.940736
31
0.0
0
LINE
8
FRONT_HID
6
HIDDEN
10
0.235075
20
0.940736
30
0.0
11
0.236339
21
0.940587
31
0.0
0
LINE
8
FRONT_HID
6
HIDDEN
10
0.236339
20
0.940587
30
0.0
11
0.237602
21
0.940430
31
0.0
0
LINE
8
FRONT_HID
6
HIDDEN
10
0.237602
20
0.940430
30
0.0
11
0.238865
21
0.940265
31
0.0
0
LINE
8
FRONT_HID
6
HIDDEN
10
0.238865
20
0.940265
30
0.0
11
0.240126
21
0.940093
31
0.0
0
LINE
8
FRONT_HID
6
HIDDEN
10
0.240126
20
0.940093
30
0.0
11
0.241387
21
0.939913
31
0.0
0
LINE
8
FRONT_HID
6
HIDDEN
10
0.241387
20
0.939913
30
0.0
11
0.242646
21
0.939725
31
0.0
0
LINE
8
FRONT_HID
6
HIDDEN
10
0.242646
20
0.939725
30
0.0
11
0.243904
21
0.939530
31
0.0
0
LINE
8
FRONT_HID
6
HIDDEN
10
0.243904
20
0.939530
30
0.0
11
0.245161
21
0.939327
31
0.0
0
LINE
8
FRONT_HID
6
HIDDEN
10
0.245161
20
0.939327
30
0.0
11
0.246417
21
0.939117
31
0.0
0
LINE
8
FRONT_HID
6
HIDDEN
10
0.246417
20
0.939117
30
0.0
11
0.247671
21
0.938899
31
0.0
0
LINE
8
FRONT_HID
6
HIDDEN
10
0.247671
20
0.938899
30
0.0
11
0.248924
21
0.938673
31
0.0
0
LINE
8
FRONT_HID
6
HIDDEN
10
0.248924
20
0.938673
30
0.0
11
0.250176
21
0.938440
31
0.0
0
LINE
8
FRONT_HID
6
HIDDEN
10
0.250176
20
0.938440
30
0.0
11
0.251426
21
0.938200
31
0.0
0
LINE
8
FRONT_HID
6
HIDDEN
10
0.251426
20
0.938200
30
0.0
11
0.252675
21
0.937952
31
0.0
0
LINE
8
FRONT_HID
6
HIDDEN
10
0.252675
20
0.937952
30
0.0
11
0.253922
21
0.937696
31
0.0
0
LINE
8
FRONT_HID
6
HIDDEN
10
0.253922
20
0.937696
30
0.0
11
0.255167
21
0.937433
31
0.0
0
LINE
8
FRONT_HID
6
HIDDEN
10
0.255167
20
0.937433
30
0.0
11
0.256412
21
0.937162
31
0.0
0
LINE
8
FRONT_HID
6
HIDDEN
10
0.256412
20
0.937162
30
0.0
11
0.257654
21
0.936884
31
0.0
0
LINE
8
FRONT_HID
6
HIDDEN
10
0.257654
20
0.936884
30
0.0
11
0.258895
21
0.936598
31
0.0
0
LINE
8
FRONT_HID
6
HIDDEN
10
0.258895
20
0.936598
30
0.0
11
0.260134
21
0.936305
31
0.0
0
LINE
8
FRONT_HID
6
HIDDEN
10
0.260134
20
0.936305
30
0.0
11
0.261371
21
0.936004
31
0.0
0
LINE
8
FRONT_HID
6
HIDDEN
10
0.261371
20
0.936004
30
0.0
11
0.262606
21
0.935696
31
0.0
0
LINE
8
FRONT_HID
6
HIDDEN
10
0.262606
20
0.935696
30
0.0
11
0.263839
21
0.935380
31
0.0
0
LINE
8
FRONT_HID
6
HIDDEN
10
0.263839
20
0.935380
30
0.0
11
0.265071
21
0.935057
31
0.0
0
LINE
8
FRONT_HID
6
HIDDEN
10
0.265071
20
0.935057
30
0.0
11
0.266300
21
0.934727
31
0.0
0
LINE
8
FRONT_HID
6
HIDDEN
10
0.266300
20
0.934727
30
0.0
11
0.267528
21
0.934389
31
0.0
0
LINE
8
FRONT_HID
6
HIDDEN
10
0.267528
20
0.934389
30
0.0
11
0.268753
21
0.934044
31
0.0
0
LINE
8
FRONT_HID
6
HIDDEN
10
0.268753
20
0.934044
30
0.0
11
0.269977
21
0.933691
31
0.0
0
LINE
8
FRONT_HID
6
HIDDEN
10
0.269977
20
0.933691
30
0.0
11
0.271198
21
0.933331
31
0.0
0
LINE
8
FRONT_HID
6
HIDDEN
10
0.271198
20
0.933331
30
0.0
11
0.272417
21
0.932964
31
0.0
0
LINE
8
FRONT_HID
6
HIDDEN
10
0.272417
20
0.932964
30
0.0
11
0.273634
21
0.932589
31
0.0
0
LINE
8
FRONT_HID
6
HIDDEN
10
0.273634
20
0.932589
30
0.0
11
0.274848
21
0.932207
31
0.0
0
LINE
8
FRONT_HID
6
HIDDEN
10
0.274848
20
0.932207
30
0.0
11
0.276060
21
0.931818
31
0.0
0
LINE
8
FRONT_HID
6
HIDDEN
10
0.276060
20
0.931818
30
0.0
11
0.277270
21
0.931421
31
0.0
0
LINE
8
FRONT_HID
6
HIDDEN
10
0.277270
20
0.931421
30
0.0
11
0.278478
21
0.931017
31
0.0
0
LINE
8
FRONT_HID
6
HIDDEN
10
0.278478
20
0.931017
30
0.0
11
0.279682
21
0.930606
31
0.0
0
LINE
8
FRONT_HID
6
HIDDEN
10
0.279682
20
0.930606
30
0.0
11
0.280885
21
0.930187
31
0.0
0
LINE
8
FRONT_HID
6
HIDDEN
10
0.280885
20
0.930187
30
0.0
11
0.282085
21
0.929761
31
0.0
0
LINE
8
FRONT_HID
6
HIDDEN
10
0.282085
20
0.929761
30
0.0
11
0.283282
21
0.929328
31
0.0
0
LINE
8
FRONT_HID
6
HIDDEN
10
0.283282
20
0.929328
30
0.0
11
0.284477
21
0.928888
31
0.0
0
LINE
8
FRONT_HID
6
HIDDEN
10
0.284477
20
0.928888
30
0.0
11
0.285668
21
0.928440
31
0.0
0
LINE
8
FRONT_HID
6
HIDDEN
10
0.285668
20
0.928440
30
0.0
11
0.286858
21
0.927986
31
0.0
0
LINE
8
FRONT_HID
6
HIDDEN
10
0.286858
20
0.927986
30
0.0
11
0.288044
21
0.927524
31
0.0
0
LINE
8
FRONT_HID
6
HIDDEN
10
0.288044
20
0.927524
30
0.0
11
0.289228
21
0.927055
31
0.0
0
LINE
8
FRONT_HID
6
HIDDEN
10
0.132647
20
0.927055
30
0.0
11
0.133831
21
0.927524
31
0.0
0
LINE
8
FRONT_HID
6
HIDDEN
10
0.133831
20
0.927524
30
0.0
11
0.135017
21
0.927986
31
0.0
0
LINE
8
FRONT_HID
6
HIDDEN
10
0.135017
20
0.927986
30
0.0
11
0.136207
21
0.928440
31
0.0
0
LINE
8
FRONT_HID
6
HIDDEN
10
0.136207
20
0.928440
30
0.0
11
0.137398
21
0.928888
31
0.0
0
LINE
8
FRONT_HID
6
HIDDEN
10
0.137398
20
0.928888
30
0.0
11
0.138593
21
0.929328
31
0.0
0
LINE
8
FRONT_HID
6
HIDDEN
10
0.138593
20
0.929328
30
0.0
11
0.139790
21
0.929761
31
0.0
0
LINE
8
FRONT_HID
6
HIDDEN
10
0.139790
20
0.929761
30
0.0
11
0.140990
21
0.930187
31
0.0
0
LINE
8
FRONT_HID
6
HIDDEN
10
0.140990
20
0.930187
30
0.0
11
0.142193
21
0.930606
31
0.0
0
LINE
8
FRONT_HID
6
HIDDEN
10
0.142193
20
0.930606
30
0.0
11
0.143397
21
0.931017
31
0.0
0
LINE
8
FRONT_HID
6
HIDDEN
10
0.143397
20
0.931017
30
0.0
11
0.144605
21
0.931421
31
0.0
0
LINE
8
FRONT_HID
6
HIDDEN
10
0.144605
20
0.931421
30
0.0
11
0.145815
21
0.931818
31
0.0
0
LINE
8
FRONT_HID
6
HIDDEN
10
0.145815
20
0.931818
30
0.0
11
0.147027
21
0.932207
31
0.0
0
LINE
8
FRONT_HID
6
HIDDEN
10
0.147027
20
0.932207
30
0.0
11
0.148241
21
0.932589
31
0.0
0
LINE
8
FRONT_HID
6
HIDDEN
10
0.148241
20
0.932589
30
0.0
11
0.149458
21
0.932964
31
0.0
0
LINE
8
FRONT_HID
6
HIDDEN
10
0.149458
20
0.932964
30
0.0
11
0.150677
21
0.933331
31
0.0
0
LINE
8
FRONT_HID
6
HIDDEN
10
0.150677
20
0.933331
30
0.0
11
0.151898
21
0.933691
31
0.0
0
LINE
8
FRONT_HID
6
HIDDEN
10
0.151898
20
0.933691
30
0.0
11
0.153122
21
0.934044
31
0.0
0
LINE
8
FRONT_HID
6
HIDDEN
10
0.153122
20
0.934044
30
0.0
11
0.154347
21
0.934389
31
0.0
0
LINE
8
FRONT_HID
6
HIDDEN
10
0.154347
20
0.934389
30
0.0
11
0.155575
21
0.934727
31
0.0
0
LINE
8
FRONT_HID
6
HIDDEN
10
0.155575
20
0.934727
30
0.0
11
0.156804
21
0.935057
31
0.0
0
LINE
8
FRONT_HID
6
HIDDEN
10
0.156804
20
0.935057
30
0.0
11
0.158036
21
0.935380
31
0.0
0
LINE
8
FRONT_HID
6
HIDDEN
10
0.158036
20
0.935380
30
0.0
11
0.159269
21
0.935696
31
0.0
0
LINE
8
FRONT_HID
6
HIDDEN
10
0.159269
20
0.935696
30
0.0
11
0.160504
21
0.936004
31
0.0
0
LINE
8
FRONT_HID
6
HIDDEN
10
0.160504
20
0.936004
30
0.0
11
0.161741
21
0.936305
31
0.0
0
LINE
8
FRONT_HID
6
HIDDEN
10
0.161741
20
0.936305
30
0.0
11
0.162980
21
0.936598
31
0.0
0
LINE
8
FRONT_HID
6
HIDDEN
10
0.162980
20
0.936598
30
0.0
11
0.164221
21
0.936884
31
0.0
0
LINE
8
FRONT_HID
6
HIDDEN
10
0.164221
20
0.936884
30
0.0
11
0.165463
21
0.937162
31
0.0
0
LINE
8
FRONT_HID
6
HIDDEN
10
0.165463
20
0.937162
30
0.0
11
0.166708
21
0.937433
31
0.0
0
LINE
8
FRONT_HID
6
HIDDEN
10
0.166708
20
0.937433
30
0.0
11
0.167953
21
0.937696
31
0.0
0
LINE
8
FRONT_HID
6
HIDDEN
10
0.167953
20
0.937696
30
0.0
11
0.169200
21
0.937952
31
0.0
0
LINE
8
FRONT_HID
6
HIDDEN
10
0.169200
20
0.937952
30
0.0
11
0.170449
21
0.938200
31
0.0
0
LINE
8
FRONT_HID
6
HIDDEN
10
0.170449
20
0.938200
30
0.0
11
0.171699
21
0.938440
31
0.0
0
LINE
8
FRONT_HID
6
HIDDEN
10
0.171699
20
0.938440
30
0.0
11
0.172951
21
0.938673
31
0.0
0
LINE
8
FRONT_HID
6
HIDDEN
10
0.172951
20
0.938673
30
0.0
11
0.174204
21
0.938899
31
0.0
0
LINE
8
FRONT_HID
6
HIDDEN
10
0.174204
20
0.938899
30
0.0
11
0.175458
21
0.939117
31
0.0
0
LINE
8
FRONT_HID
6
HIDDEN
10
0.175458
20
0.939117
30
0.0
11
0.176714
21
0.939327
31
0.0
0
LINE
8
FRONT_HID
6
HIDDEN
10
0.176714
20
0.939327
30
0.0
11
0.177971
21
0.939530
31
0.0
0
LINE
8
FRONT_HID
6
HIDDEN
10
0.177971
20
0.939530
30
0.0
11
0.179229
21
0.939725
31
0.0
0
LINE
8
FRONT_HID
6
HIDDEN
10
0.179229
20
0.939725
30
0.0
11
0.180488
21
0.939913
31
0.0
0
LINE
8
FRONT_HID
6
HIDDEN
10
0.180488
20
0.939913
30
0.0
11
0.181749
21
0.940093
31
0.0
0
LINE
8
FRONT_HID
6
HIDDEN
10
0.181749
20
0.940093
30
0.0
11
0.183010
21
0.940265
31
0.0
0
LINE
8
FRONT_HID
6
HIDDEN
10
0.183010
20
0.940265
30
0.0
11
0.184273
21
0.940430
31
0.0
0
LINE
8
FRONT_HID
6
HIDDEN
10
0.184273
20
0.940430
30
0.0
11
0.185536
21
0.940587
31
0.0
0
LINE
8
FRONT_HID
6
HIDDEN
10
0.185536
20
0.940587
30
0.0
11
0.186800
21
0.940736
31
0.0
0
LINE
8
FRONT_HID
6
HIDDEN
10
0.186800
20
0.940736
30
0.0
11
0.188066
21
0.940878
31
0.0
0
LINE
8
FRONT_HID
6
HIDDEN
10
0.188066
20
0.940878
30
0.0
11
0.189332
21
0.941013
31
0.0
0
LINE
8
FRONT_HID
6
HIDDEN
10
0.189332
20
0.941013
30
0.0
11
0.190599
21
0.941139
31
0.0
0
LINE
8
FRONT_HID
6
HIDDEN
10
0.190599
20
0.941139
30
0.0
11
0.191866
21
0.941258
31
0.0
0
LINE
8
FRONT_HID
6
HIDDEN
10
0.191866
20
0.941258
30
0.0
11
0.193134
21
0.941369
31
0.0
0
LINE
8
FRONT_HID
6
HIDDEN
10
0.193134
20
0.941369
30
0.0
11
0.194403
21
0.941473
31
0.0
0
LINE
8
FRONT_HID
6
HIDDEN
10
0.194403
20
0.941473
30
0.0
11
0.195673
21
0.941569
31
0.0
0
LINE
8
FRONT_HID
6
HIDDEN
10
0.195673
20
0.941569
30
0.0
11
0.196943
21
0.941657
31
0.0
0
LINE
8
FRONT_HID
6
HIDDEN
10
0.196943
20
0.941657
30
0.0
11
0.198214
21
0.941738
31
0.0
0
LINE
8
FRONT_HID
6
HIDDEN
10
0.198214
20
0.941738
30
0.0
11
0.199485
21
0.941811
31
0.0
0
LINE
8
FRONT_HID
6
HIDDEN
10
0.199485
20
0.941811
30
0.0
11
0.200756
21
0.941876
31
0.0
0
LINE
8
FRONT_HID
6
HIDDEN
10
0.200756
20
0.941876
30
0.0
11
0.202028
21
0.941934
31
0.0
0
LINE
8
FRONT_HID
6
HIDDEN
10
0.202028
20
0.941934
30
0.0
11
0.203300
21
0.941984
31
0.0
0
LINE
8
FRONT_HID
6
HIDDEN
10
0.203300
20
0.941984
30
0.0
11
0.204573
21
0.942026
31
0.0
0
LINE
8
FRONT_HID
6
HIDDEN
10
0.204573
20
0.942026
30
0.0
11
0.205845
21
0.942060
31
0.0
0
LINE
8
FRONT_HID
6
HIDDEN
10
0.205845
20
0.942060
30
0.0
11
0.207118
21
0.942087
31
0.0
0
LINE
8
FRONT_HID
6
HIDDEN
10
0.207118
20
0.942087
30
0.0
11
0.208391
21
0.942107
31
0.0
0
LINE
8
FRONT_HID
6
HIDDEN
10
0.208391
20
0.942107
30
0.0
11
0.209664
21
0.942118
31
0.0
0
LINE
8
FRONT_HID
6
HIDDEN
10
0.209664
20
0.942118
30
0.0
11
0.210938
21
0.942122
31
0.0
0
LINE
8
FRONT_HID
6
HIDDEN
10
0.037005
20
0.850524
30
0.0
11
0.038128
21
0.852146
31
0.0
0
LINE
8
FRONT_HID
6
HIDDEN
10
0.038128
20
0.852146
30
0.0
11
0.039267
21
0.853756
31
0.0
0
LINE
8
FRONT_HID
6
HIDDEN
10
0.039267
20
0.853756
30
0.0
11
0.040421
21
0.855357
31
0.0
0
LINE
8
FRONT_HID
6
HIDDEN
10
0.040421
20
0.855357
30
0.0
11
0.041590
21
0.856946
31
0.0
0
LINE
8
FRONT_HID
6
HIDDEN
10
0.041590
20
0.856946
30
0.0
11
0.042773
21
0.858524
31
0.0
0
LINE
8
FRONT_HID
6
HIDDEN
10
0.042773
20
0.858524
30
0.0
11
0.043971
21
0.860091
31
0.0
0
LINE
8
FRONT_HID
6
HIDDEN
10
0.043971
20
0.860091
30
0.0
11
0.045184
21
0.861647
31
0.0
0
LINE
8
FRONT_HID
6
HIDDEN
10
0.045184
20
0.861647
30
0.0
11
0.046412
21
0.863192
31
0.0
0
LINE
8
FRONT_HID
6
HIDDEN
10
0.046412
20
0.863192
30
0.0
11
0.047653
21
0.864724
31
0.0
0
LINE
8
FRONT_HID
6
HIDDEN
10
0.047653
20
0.864724
30
0.0
11
0.048909
21
0.866246
31
0.0
0
LINE
8
FRONT_HID
6
HIDDEN
10
0.048909
20
0.866246
30
0.0
11
0.050180
21
0.867755
31
0.0
0
LINE
8
FRONT_HID
6
HIDDEN
10
0.050180
20
0.867755
30
0.0
11
0.051464
21
0.869252
31
0.0
0
LINE
8
FRONT_HID
6
HIDDEN
10
0.051464
20
0.869252
30
0.0
11
0.052762
21
0.870738
31
0.0
0
LINE
8
FRONT_HID
6
HIDDEN
10
0.052762
20
0.870738
30
0.0
11
0.054074
21
0.872211
31
0.0
0
LINE
8
FRONT_HID
6
HIDDEN
10
0.054074
20
0.872211
30
0.0
11
0.055400
21
0.873672
31
0.0
0
LINE
8
FRONT_HID
6
HIDDEN
10
0.055400
20
0.873672
30
0.0
11
0.056739
21
0.875120
31
0.0
0
LINE
8
FRONT_HID
6
HIDDEN
10
0.056739
20
0.875120
30
0.0
11
0.058092
21
0.876556
31
0.0
0
LINE
8
FRONT_HID
6
HIDDEN
10
0.058092
20
0.876556
30
0.0
11
0.059458
21
0.877979
31
0.0
0
LINE
8
FRONT_HID
6
HIDDEN
10
0.059458
20
0.877979
30
0.0
11
0.060838
21
0.879389
31
0.0
0
LINE
8
FRONT_HID
6
HIDDEN
10
0.060838
20
0.879389
30
0.0
11
0.062230
21
0.880787
31
0.0
0
LINE
8
FRONT_HID
6
HIDDEN
10
0.062230
20
0.880787
30
0.0
11
0.063636
21
0.882171
31
0.0
0
LINE
8
FRONT_HID
6
HIDDEN
10
0.063636
20
0.882171
30
0.0
11
0.065054
21
0.883542
31
0.0
0
LINE
8
FRONT_HID
6
HIDDEN
10
0.065054
20
0.883542
30
0.0
11
0.066486
21
0.884899
31
0.0
0
LINE
8
FRONT_HID
6
HIDDEN
10
0.066486
20
0.884899
30
0.0
11
0.067930
21
0.886244
31
0.0
0
LINE
8
FRONT_HID
6
HIDDEN
10
0.067930
20
0.886244
30
0.0
11
0.069386
21
0.887574
31
0.0
0
LINE
8
FRONT_HID
6
HIDDEN
10
0.069386
20
0.887574
30
0.0
11
0.070855
21
0.888891
31
0.0
0
LINE
8
FRONT_HID
6
HIDDEN
10
0.070855
20
0.888891
30
0.0
11
0.072336
21
0.890194
31
0.0
0
LINE
8
FRONT_HID
6
HIDDEN
10
0.072336
20
0.890194
30
0.0
11
0.073829
21
0.891484
31
0.0
0
LINE
8
FRONT_HID
6
HIDDEN
10
0.073829
20
0.891484
30
0.0
11
0.075334
21
0.892759
31
0.0
0
LINE
8
FRONT_HID
6
HIDDEN
10
0.075334
20
0.892759
30
0.0
11
0.076851
21
0.894020
31
0.0
0
LINE
8
FRONT_HID
6
HIDDEN
10
0.076851
20
0.894020
30
0.0
11
0.078380
21
0.895267
31
0.0
0
LINE
8
FRONT_HID
6
HIDDEN
10
0.078380
20
0.895267
30
0.0
11
0.079920
21
0.896499
31
0.0
0
LINE
8
FRONT_HID
6
HIDDEN
10
0.079920
20
0.896499
30
0.0
11
0.081472
21
0.897717
31
0.0
0
LINE
8
FRONT_HID
6
HIDDEN
10
0.081472
20
0.897717
30
0.0
11
0.083035
21
0.898921
31
0.0
0
LINE
8
FRONT_HID
6
HIDDEN
10
0.083035
20
0.898921
30
0.0
11
0.084609
21
0.900110
31
0.0
0
LINE
8
FRONT_HID
6
HIDDEN
10
0.084609
20
0.900110
30
0.0
11
0.086194
21
0.901284
31
0.0
0
LINE
8
FRONT_HID
6
HIDDEN
10
0.086194
20
0.901284
30
0.0
11
0.087791
21
0.902443
31
0.0
0
LINE
8
FRONT_HID
6
HIDDEN
10
0.087791
20
0.902443
30
0.0
11
0.089398
21
0.903587
31
0.0
0
LINE
8
FRONT_HID
6
HIDDEN
10
0.089398
20
0.903587
30
0.0
11
0.091015
21
0.904716
31
0.0
0
LINE
8
FRONT_HID
6
HIDDEN
10
0.091015
20
0.904716
30
0.0
11
0.092644
21
0.905830
31
0.0
0
LINE
8
FRONT_HID
6
HIDDEN
10
0.092644
20
0.905830
30
0.0
11
0.094282
21
0.906929
31
0.0
0
LINE
8
FRONT_HID
6
HIDDEN
10
0.094282
20
0.906929
30
0.0
11
0.095931
21
0.908012
31
0.0
0
LINE
8
FRONT_HID
6
HIDDEN
10
0.095931
20
0.908012
30
0.0
11
0.097589
21
0.909080
31
0.0
0
LINE
8
FRONT_HID
6
HIDDEN
10
0.097589
20
0.909080
30
0.0
11
0.099258
21
0.910132
31
0.0
0
LINE
8
FRONT_HID
6
HIDDEN
10
0.099258
20
0.910132
30
0.0
11
0.100937
21
0.911169
31
0.0
0
LINE
8
FRONT_HID
6
HIDDEN
10
0.100937
20
0.911169
30
0.0
11
0.102625
21
0.912190
31
0.0
0
LINE
8
FRONT_HID
6
HIDDEN
10
0.102625
20
0.912190
30
0.0
11
0.104322
21
0.913195
31
0.0
0
LINE
8
FRONT_HID
6
HIDDEN
10
0.104322
20
0.913195
30
0.0
11
0.106029
21
0.914184
31
0.0
0
LINE
8
FRONT_HID
6
HIDDEN
10
0.106029
20
0.914184
30
0.0
11
0.107745
21
0.915157
31
0.0
0
LINE
8
FRONT_HID
6
HIDDEN
10
0.107745
20
0.915157
30
0.0
11
0.109470
21
0.916114
31
0.0
0
LINE
8
FRONT_HID
6
HIDDEN
10
0.109470
20
0.916114
30
0.0
11
0.111204
21
0.917055
31
0.0
0
LINE
8
FRONT_HID
6
HIDDEN
10
0.111204
20
0.917055
30
0.0
11
0.112947
21
0.917980
31
0.0
0
LINE
8
FRONT_HID
6
HIDDEN
10
0.112947
20
0.917980
30
0.0
11
0.114698
21
0.918888
31
0.0
0
LINE
8
FRONT_HID
6
HIDDEN
10
0.114698
20
0.918888
30
0.0
11
0.116457
21
0.919780
31
0.0
0
LINE
8
FRONT_HID
6
HIDDEN
10
0.116457
20
0.919780
30
0.0
11
0.118225
21
0.920655
31
0.0
0
LINE
8
FRONT_HID
6
HIDDEN
10
0.118225
20
0.920655
30
0.0
11
0.120001
21
0.921514
31
0.0
0
LINE
8
FRONT_HID
6
HIDDEN
10
0.120001
20
0.921514
30
0.0
11
0.121785
21
0.922356
31
0.0
0
LINE
8
FRONT_HID
6
HIDDEN
10
0.121785
20
0.922356
30
0.0
11
0.123577
21
0.923181
31
0.0
0
LINE
8
FRONT_HID
6
HIDDEN
10
0.123577
20
0.923181
30
0.0
11
0.125376
21
0.923990
31
0.0
0
LINE
8
FRONT_HID
6
HIDDEN
10
0.125376
20
0.923990
30
0.0
11
0.127183
21
0.924782
31
0.0
0
LINE
8
FRONT_HID
6
HIDDEN
10
0.127183
20
0.924782
30
0.0
11
0.128997
21
0.925556
31
0.0
0
LINE
8
FRONT_HID
6
HIDDEN
10
0.128997
20
0.925556
30
0.0
11
0.130819
21
0.926314
31
0.0
0
LINE
8
FRONT_HID
6
HIDDEN
10
0.130819
20
0.926314
30
0.0
11
0.132647
21
0.927055
31
0.0
0
LINE
8
FRONT_HID
6
HIDDEN
10
0.000000
20
0.731184
30
0.0
11
0.001048
21
0.710182
31
0.0
0
LINE
8
FRONT_HID
6
HIDDEN
10
0.001048
20
0.752187
30
0.0
11
0.000000
21
0.731184
31
0.0
0
LINE
8
FRONT_HID
6
HIDDEN
10
0.037005
20
0.850524
30
0.0
11
0.038128
21
0.852146
31
0.0
0
LINE
8
FRONT_HID
6
HIDDEN
10
0.038128
20
0.852146
30
0.0
11
0.039267
21
0.853756
31
0.0
0
LINE
8
FRONT_HID
6
HIDDEN
10
0.039267
20
0.853756
30
0.0
11
0.040421
21
0.855357
31
0.0
0
LINE
8
FRONT_HID
6
HIDDEN
10
0.040421
20
0.855357
30
0.0
11
0.041590
21
0.856946
31
0.0
0
LINE
8
FRONT_HID
6
HIDDEN
10
0.041590
20
0.856946
30
0.0
11
0.042773
21
0.858524
31
0.0
0
LINE
8
FRONT_HID
6
HIDDEN
10
0.042773
20
0.858524
30
0.0
11
0.043971
21
0.860091
31
0.0
0
LINE
8
FRONT_HID
6
HIDDEN
10
0.043971
20
0.860091
30
0.0
11
0.045184
21
0.861647
31
0.0
0
LINE
8
FRONT_HID
6
HIDDEN
10
0.045184
20
0.861647
30
0.0
11
0.046412
21
0.863192
31
0.0
0
LINE
8
FRONT_HID
6
HIDDEN
10
0.046412
20
0.863192
30
0.0
11
0.047653
21
0.864724
31
0.0
0
LINE
8
FRONT_HID
6
HIDDEN
10
0.047653
20
0.864724
30
0.0
11
0.048909
21
0.866246
31
0.0
0
LINE
8
FRONT_HID
6
HIDDEN
10
0.048909
20
0.866246
30
0.0
11
0.050180
21
0.867755
31
0.0
0
LINE
8
FRONT_HID
6
HIDDEN
10
0.050180
20
0.867755
30
0.0
11
0.051464
21
0.869252
31
0.0
0
LINE
8
FRONT_HID
6
HIDDEN
10
0.051464
20
0.869252
30
0.0
11
0.052762
21
0.870738
31
0.0
0
LINE
8
FRONT_HID
6
HIDDEN
10
0.052762
20
0.870738
30
0.0
11
0.054074
21
0.872211
31
0.0
0
LINE
8
FRONT_HID
6
HIDDEN
10
0.054074
20
0.872211
30
0.0
11
0.055400
21
0.873672
31
0.0
0
LINE
8
FRONT_HID
6
HIDDEN
10
0.055400
20
0.873672
30
0.0
11
0.056739
21
0.875120
31
0.0
0
LINE
8
FRONT_HID
6
HIDDEN
10
0.056739
20
0.875120
30
0.0
11
0.058092
21
0.876556
31
0.0
0
LINE
8
FRONT_HID
6
HIDDEN
10
0.058092
20
0.876556
30
0.0
11
0.059458
21
0.877979
31
0.0
0
LINE
8
FRONT_HID
6
HIDDEN
10
0.059458
20
0.877979
30
0.0
11
0.060838
21
0.879389
31
0.0
0
LINE
8
FRONT_HID
6
HIDDEN
10
0.060838
20
0.879389
30
0.0
11
0.062230
21
0.880787
31
0.0
0
LINE
8
FRONT_HID
6
HIDDEN
10
0.062230
20
0.880787
30
0.0
11
0.063636
21
0.882171
31
0.0
0
LINE
8
FRONT_HID
6
HIDDEN
10
0.063636
20
0.882171
30
0.0
11
0.065054
21
0.883542
31
0.0
0
LINE
8
FRONT_HID
6
HIDDEN
10
0.065054
20
0.883542
30
0.0
11
0.066486
21
0.884899
31
0.0
0
LINE
8
FRONT_HID
6
HIDDEN
10
0.066486
20
0.884899
30
0.0
11
0.067930
21
0.886244
31
0.0
0
LINE
8
FRONT_HID
6
HIDDEN
10
0.067930
20
0.886244
30
0.0
11
0.069386
21
0.887574
31
0.0
0
LINE
8
FRONT_HID
6
HIDDEN
10
0.069386
20
0.887574
30
0.0
11
0.070855
21
0.888891
31
0.0
0
LINE
8
FRONT_HID
6
HIDDEN
10
0.070855
20
0.888891
30
0.0
11
0.072336
21
0.890194
31
0.0
0
LINE
8
FRONT_HID
6
HIDDEN
10
0.072336
20
0.890194
30
0.0
11
0.073829
21
0.891484
31
0.0
0
LINE
8
FRONT_HID
6
HIDDEN
10
0.073829
20
0.891484
30
0.0
11
0.075334
21
0.892759
31
0.0
0
LINE
8
FRONT_HID
6
HIDDEN
10
0.075334
20
0.892759
30
0.0
11
0.076851
21
0.894020
31
0.0
0
LINE
8
FRONT_HID
6
HIDDEN
10
0.076851
20
0.894020
30
0.0
11
0.078380
21
0.895267
31
0.0
0
LINE
8
FRONT_HID
6
HIDDEN
10
0.078380
20
0.895267
30
0.0
11
0.079920
21
0.896499
31
0.0
0
LINE
8
FRONT_HID
6
HIDDEN
10
0.079920
20
0.896499
30
0.0
11
0.081472
21
0.897717
31
0.0
0
LINE
8
FRONT_HID
6
HIDDEN
10
0.081472
20
0.897717
30
0.0
11
0.083035
21
0.898921
31
0.0
0
LINE
8
FRONT_HID
6
HIDDEN
10
0.083035
20
0.898921
30
0.0
11
0.084609
21
0.900110
31
0.0
0
LINE
8
FRONT_HID
6
HIDDEN
10
0.084609
20
0.900110
30
0.0
11
0.086194
21
0.901284
31
0.0
0
LINE
8
FRONT_HID
6
HIDDEN
10
0.086194
20
0.901284
30
0.0
11
0.087791
21
0.902443
31
0.0
0
LINE
8
FRONT_HID
6
HIDDEN
10
0.087791
20
0.902443
30
0.0
11
0.089398
21
0.903587
31
0.0
0
LINE
8
FRONT_HID
6
HIDDEN
10
0.089398
20
0.903587
30
0.0
11
0.091015
21
0.904716
31
0.0
0
LINE
8
FRONT_HID
6
HIDDEN
10
0.091015
20
0.904716
30
0.0
11
0.092644
21
0.905830
31
0.0
0
LINE
8
FRONT_HID
6
HIDDEN
10
0.092644
20
0.905830
30
0.0
11
0.094282
21
0.906929
31
0.0
0
LINE
8
FRONT_HID
6
HIDDEN
10
0.094282
20
0.906929
30
0.0
11
0.095931
21
0.908012
31
0.0
0
LINE
8
FRONT_HID
6
HIDDEN
10
0.095931
20
0.908012
30
0.0
11
0.097589
21
0.909080
31
0.0
0
LINE
8
FRONT_HID
6
HIDDEN
10
0.097589
20
0.909080
30
0.0
11
0.099258
21
0.910132
31
0.0
0
LINE
8
FRONT_HID
6
HIDDEN
10
0.099258
20
0.910132
30
0.0
11
0.100937
21
0.911169
31
0.0
0
LINE
8
FRONT_HID
6
HIDDEN
10
0.100937
20
0.911169
30
0.0
11
0.102625
21
0.912190
31
0.0
0
LINE
8
FRONT_HID
6
HIDDEN
10
0.102625
20
0.912190
30
0.0
11
0.104322
21
0.913195
31
0.0
0
LINE
8
FRONT_HID
6
HIDDEN
10
0.104322
20
0.913195
30
0.0
11
0.106029
21
0.914184
31
0.0
0
LINE
8
FRONT_HID
6
HIDDEN
10
0.106029
20
0.914184
30
0.0
11
0.107745
21
0.915157
31
0.0
0
LINE
8
FRONT_HID
6
HIDDEN
10
0.107745
20
0.915157
30
0.0
11
0.109470
21
0.916114
31
0.0
0
LINE
8
FRONT_HID
6
HIDDEN
10
0.109470
20
0.916114
30
0.0
11
0.111204
21
0.917055
31
0.0
0
LINE
8
FRONT_HID
6
HIDDEN
10
0.111204
20
0.917055
30
0.0
11
0.112947
21
0.917980
31
0.0
0
LINE
8
FRONT_HID
6
HIDDEN
10
0.112947
20
0.917980
30
0.0
11
0.114698
21
0.918888
31
0.0
0
LINE
8
FRONT_HID
6
HIDDEN
10
0.114698
20
0.918888
30
0.0
11
0.116457
21
0.919780
31
0.0
0
LINE
8
FRONT_HID
6
HIDDEN
10
0.116457
20
0.919780
30
0.0
11
0.118225
21
0.920655
31
0.0
0
LINE
8
FRONT_HID
6
HIDDEN
10
0.118225
20
0.920655
30
0.0
11
0.120001
21
0.921514
31
0.0
0
LINE
8
FRONT_HID
6
HIDDEN
10
0.120001
20
0.921514
30
0.0
11
0.121785
21
0.922356
31
0.0
0
LINE
8
FRONT_HID
6
HIDDEN
10
0.121785
20
0.922356
30
0.0
11
0.123577
21
0.923181
31
0.0
0
LINE
8
FRONT_HID
6
HIDDEN
10
0.123577
20
0.923181
30
0.0
11
0.125376
21
0.923990
31
0.0
0
LINE
8
FRONT_HID
6
HIDDEN
10
0.125376
20
0.923990
30
0.0
11
0.127183
21
0.924782
31
0.0
0
LINE
8
FRONT_HID
6
HIDDEN
10
0.127183
20
0.924782
30
0.0
11
0.128997
21
0.925556
31
0.0
0
LINE
8
FRONT_HID
6
HIDDEN
10
0.128997
20
0.925556
30
0.0
11
0.130819
21
0.926314
31
0.0
0
LINE
8
FRONT_HID
6
HIDDEN
10
0.130819
20
0.926314
30
0.0
11
0.132647
21
0.927055
31
0.0
0
LINE
8
FRONT_HID
6
HIDDEN
10
0.132647
20
0.927055
30
0.0
11
0.133831
21
0.927524
31
0.0
0
LINE
8
FRONT_HID
6
HIDDEN
10
0.133831
20
0.927524
30
0.0
11
0.135017
21
0.927986
31
0.0
0
LINE
8
FRONT_HID
6
HIDDEN
10
0.135017
20
0.927986
30
0.0
11
0.136207
21
0.928440
31
0.0
0
LINE
8
FRONT_HID
6
HIDDEN
10
0.136207
20
0.928440
30
0.0
11
0.137398
21
0.928888
31
0.0
0
LINE
8
FRONT_HID
6
HIDDEN
10
0.137398
20
0.928888
30
0.0
11
0.138593
21
0.929328
31
0.0
0
LINE
8
FRONT_HID
6
HIDDEN
10
0.138593
20
0.929328
30
0.0
11
0.139790
21
0.929761
31
0.0
0
LINE
8
FRONT_HID
6
HIDDEN
10
0.139790
20
0.929761
30
0.0
11
0.140990
21
0.930187
31
0.0
0
LINE
8
FRONT_HID
6
HIDDEN
10
0.140990
20
0.930187
30
0.0
11
0.142193
21
0.930606
31
0.0
0
LINE
8
FRONT_HID
6
HIDDEN
10
0.142193
20
0.930606
30
0.0
11
0.143397
21
0.931017
31
0.0
0
LINE
8
FRONT_HID
6
HIDDEN
10
0.143397
20
0.931017
30
0.0
11
0.144605
21
0.931421
31
0.0
0
LINE
8
FRONT_HID
6
HIDDEN
10
0.144605
20
0.931421
30
0.0
11
0.145815
21
0.931818
31
0.0
0
LINE
8
FRONT_HID
6
HIDDEN
10
0.145815
20
0.931818
30
0.0
11
0.147027
21
0.932207
31
0.0
0
LINE
8
FRONT_HID
6
HIDDEN
10
0.147027
20
0.932207
30
0.0
11
0.148241
21
0.932589
31
0.0
0
LINE
8
FRONT_HID
6
HIDDEN
10
0.148241
20
0.932589
30
0.0
11
0.149458
21
0.932964
31
0.0
0
LINE
8
FRONT_HID
6
HIDDEN
10
0.149458
20
0.932964
30
0.0
11
0.150677
21
0.933331
31
0.0
0
LINE
8
FRONT_HID
6
HIDDEN
10
0.150677
20
0.933331
30
0.0
11
0.151898
21
0.933691
31
0.0
0
LINE
8
FRONT_HID
6
HIDDEN
10
0.151898
20
0.933691
30
0.0
11
0.153122
21
0.934044
31
0.0
0
LINE
8
FRONT_HID
6
HIDDEN
10
0.153122
20
0.934044
30
0.0
11
0.154347
21
0.934389
31
0.0
0
LINE
8
FRONT_HID
6
HIDDEN
10
0.154347
20
0.934389
30
0.0
11
0.155575
21
0.934727
31
0.0
0
LINE
8
FRONT_HID
6
HIDDEN
10
0.155575
20
0.934727
30
0.0
11
0.156804
21
0.935057
31
0.0
0
LINE
8
FRONT_HID
6
HIDDEN
10
0.156804
20
0.935057
30
0.0
11
0.158036
21
0.935380
31
0.0
0
LINE
8
FRONT_HID
6
HIDDEN
10
0.158036
20
0.935380
30
0.0
11
0.159269
21
0.935696
31
0.0
0
LINE
8
FRONT_HID
6
HIDDEN
10
0.159269
20
0.935696
30
0.0
11
0.160504
21
0.936004
31
0.0
0
LINE
8
FRONT_HID
6
HIDDEN
10
0.160504
20
0.936004
30
0.0
11
0.161741
21
0.936305
31
0.0
0
LINE
8
FRONT_HID
6
HIDDEN
10
0.161741
20
0.936305
30
0.0
11
0.162980
21
0.936598
31
0.0
0
LINE
8
FRONT_HID
6
HIDDEN
10
0.162980
20
0.936598
30
0.0
11
0.164221
21
0.936884
31
0.0
0
LINE
8
FRONT_HID
6
HIDDEN
10
0.164221
20
0.936884
30
0.0
11
0.165463
21
0.937162
31
0.0
0
LINE
8
FRONT_HID
6
HIDDEN
10
0.165463
20
0.937162
30
0.0
11
0.166708
21
0.937433
31
0.0
0
LINE
8
FRONT_HID
6
HIDDEN
10
0.166708
20
0.937433
30
0.0
11
0.167953
21
0.937696
31
0.0
0
LINE
8
FRONT_HID
6
HIDDEN
10
0.167953
20
0.937696
30
0.0
11
0.169200
21
0.937952
31
0.0
0
LINE
8
FRONT_HID
6
HIDDEN
10
0.169200
20
0.937952
30
0.0
11
0.170449
21
0.938200
31
0.0
0
LINE
8
FRONT_HID
6
HIDDEN
10
0.170449
20
0.938200
30
0.0
11
0.171699
21
0.938440
31
0.0
0
LINE
8
FRONT_HID
6
HIDDEN
10
0.171699
20
0.938440
30
0.0
11
0.172951
21
0.938673
31
0.0
0
LINE
8
FRONT_HID
6
HIDDEN
10
0.172951
20
0.938673
30
0.0
11
0.174204
21
0.938899
31
0.0
0
LINE
8
FRONT_HID
6
HIDDEN
10
0.174204
20
0.938899
30
0.0
11
0.175458
21
0.939117
31
0.0
0
LINE
8
FRONT_HID
6
HIDDEN
10
0.175458
20
0.939117
30
0.0
11
0.176714
21
0.939327
31
0.0
0
LINE
8
FRONT_HID
6
HIDDEN
10
0.176714
20
0.939327
30
0.0
11
0.177971
21
0.939530
31
0.0
0
LINE
8
FRONT_HID
6
HIDDEN
10
0.177971
20
0.939530
30
0.0
11
0.179229
21
0.939725
31
0.0
0
LINE
8
FRONT_HID
6
HIDDEN
10
0.179229
20
0.939725
30
0.0
11
0.180488
21
0.939913
31
0.0
0
LINE
8
FRONT_HID
6
HIDDEN
10
0.180488
20
0.939913
30
0.0
11
0.181749
21
0.940093
31
0.0
0
LINE
8
FRONT_HID
6
HIDDEN
10
0.181749
20
0.940093
30
0.0
11
0.183010
21
0.940265
31
0.0
0
LINE
8
FRONT_HID
6
HIDDEN
10
0.183010
20
0.940265
30
0.0
11
0.184273
21
0.940430
31
0.0
0
LINE
8
FRONT_HID
6
HIDDEN
10
0.184273
20
0.940430
30
0.0
11
0.185536
21
0.940587
31
0.0
0
LINE
8
FRONT_HID
6
HIDDEN
10
0.185536
20
0.940587
30
0.0
11
0.186800
21
0.940736
31
0.0
0
LINE
8
FRONT_HID
6
HIDDEN
10
0.186800
20
0.940736
30
0.0
11
0.188066
21
0.940878
31
0.0
0
LINE
8
FRONT_HID
6
HIDDEN
10
0.188066
20
0.940878
30
0.0
11
0.189332
21
0.941013
31
0.0
0
LINE
8
FRONT_HID
6
HIDDEN
10
0.189332
20
0.941013
30
0.0
11
0.190599
21
0.941139
31
0.0
0
LINE
8
FRONT_HID
6
HIDDEN
10
0.190599
20
0.941139
30
0.0
11
0.191866
21
0.941258
31
0.0
0
LINE
8
FRONT_HID
6
HIDDEN
10
0.191866
20
0.941258
30
0.0
11
0.193134
21
0.941369
31
0.0
0
LINE
8
FRONT_HID
6
HIDDEN
10
0.193134
20
0.941369
30
0.0
11
0.194403
21
0.941473
31
0.0
0
LINE
8
FRONT_HID
6
HIDDEN
10
0.194403
20
0.941473
30
0.0
11
0.195673
21
0.941569
31
0.0
0
LINE
8
FRONT_HID
6
HIDDEN
10
0.195673
20
0.941569
30
0.0
11
0.196943
21
0.941657
31
0.0
0
LINE
8
FRONT_HID
6
HIDDEN
10
0.196943
20
0.941657
30
0.0
11
0.198214
21
0.941738
31
0.0
0
LINE
8
FRONT_HID
6
HIDDEN
10
0.198214
20
0.941738
30
0.0
11
0.199485
21
0.941811
31
0.0
0
LINE
8
FRONT_HID
6
HIDDEN
10
0.199485
20
0.941811
30
0.0
11
0.200756
21
0.941876
31
0.0
0
LINE
8
FRONT_HID
6
HIDDEN
10
0.200756
20
0.941876
30
0.0
11
0.202028
21
0.941934
31
0.0
0
LINE
8
FRONT_HID
6
HIDDEN
10
0.202028
20
0.941934
30
0.0
11
0.203300
21
0.941984
31
0.0
0
LINE
8
FRONT_HID
6
HIDDEN
10
0.203300
20
0.941984
30
0.0
11
0.204573
21
0.942026
31
0.0
0
LINE
8
FRONT_HID
6
HIDDEN
10
0.204573
20
0.942026
30
0.0
11
0.205845
21
0.942060
31
0.0
0
LINE
8
FRONT_HID
6
HIDDEN
10
0.205845
20
0.942060
30
0.0
11
0.207118
21
0.942087
31
0.0
0
LINE
8
FRONT_HID
6
HIDDEN
10
0.207118
20
0.942087
30
0.0
11
0.208391
21
0.942107
31
0.0
0
LINE
8
FRONT_HID
6
HIDDEN
10
0.208391
20
0.942107
30
0.0
11
0.209664
21
0.942118
31
0.0
0
LINE
8
FRONT_HID
6
HIDDEN
10
0.209664
20
0.942118
30
0.0
11
0.210938
21
0.942122
31
0.0
0
LINE
8
FRONT_HID
6
HIDDEN
10
0.210938
20
0.942122
30
0.0
11
0.212211
21
0.942118
31
0.0
0
LINE
8
FRONT_HID
6
HIDDEN
10
0.212211
20
0.942118
30
0.0
11
0.213484
21
0.942107
31
0.0
0
LINE
8
FRONT_HID
6
HIDDEN
10
0.213484
20
0.942107
30
0.0
11
0.214757
21
0.942087
31
0.0
0
LINE
8
FRONT_HID
6
HIDDEN
10
0.214757
20
0.942087
30
0.0
11
0.216030
21
0.942060
31
0.0
0
LINE
8
FRONT_HID
6
HIDDEN
10
0.216030
20
0.942060
30
0.0
11
0.217302
21
0.942026
31
0.0
0
LINE
8
FRONT_HID
6
HIDDEN
10
0.217302
20
0.942026
30
0.0
11
0.218575
21
0.941984
31
0.0
0
LINE
8
FRONT_HID
6
HIDDEN
10
0.218575
20
0.941984
30
0.0
11
0.219847
21
0.941934
31
0.0
0
LINE
8
FRONT_HID
6
HIDDEN
10
0.219847
20
0.941934
30
0.0
11
0.221119
21
0.941876
31
0.0
0
LINE
8
FRONT_HID
6
HIDDEN
10
0.221119
20
0.941876
30
0.0
11
0.222390
21
0.941811
31
0.0
0
LINE
8
FRONT_HID
6
HIDDEN
10
0.222390
20
0.941811
30
0.0
11
0.223661
21
0.941738
31
0.0
0
LINE
8
FRONT_HID
6
HIDDEN
10
0.223661
20
0.941738
30
0.0
11
0.224932
21
0.941657
31
0.0
0
LINE
8
FRONT_HID
6
HIDDEN
10
0.224932
20
0.941657
30
0.0
11
0.226202
21
0.941569
31
0.0
0
LINE
8
FRONT_HID
6
HIDDEN
10
0.226202
20
0.941569
30
0.0
11
0.227472
21
0.941473
31
0.0
0
LINE
8
FRONT_HID
6
HIDDEN
10
0.227472
20
0.941473
30
0.0
11
0.228741
21
0.941369
31
0.0
0
LINE
8
FRONT_HID
6
HIDDEN
10
0.228741
20
0.941369
30
0.0
11
0.230009
21
0.941258
31
0.0
0
LINE
8
FRONT_HID
6
HIDDEN
10
0.230009
20
0.941258
30
0.0
11
0.231276
21
0.941139
31
0.0
0
LINE
8
FRONT_HID
6
HIDDEN
10
0.231276
20
0.941139
30
0.0
11
0.232543
21
0.941013
31
0.0
0
LINE
8
FRONT_HID
6
HIDDEN
10
0.232543
20
0.941013
30
0.0
11
0.233809
21
0.940878
31
0.0
0
LINE
8
FRONT_HID
6
HIDDEN
10
0.233809
20
0.940878
30
0.0
11
0.235075
21
0.940736
31
0.0
0
LINE
8
FRONT_HID
6
HIDDEN
10
0.235075
20
0.940736
30
0.0
11
0.236339
21
0.940587
31
0.0
0
LINE
8
FRONT_HID
6
HIDDEN
10
0.236339
20
0.940587
30
0.0
11
0.237602
21
0.940430
31
0.0
0
LINE
8
FRONT_HID
6
HIDDEN
10
0.237602
20
0.940430
30
0.0
11
0.238865
21
0.940265
31
0.0
0
LINE
8
FRONT_HID
6
HIDDEN
10
0.238865
20
0.940265
30
0.0
11
0.240126
21
0.940093
31
0.0
0
LINE
8
FRONT_HID
6
HIDDEN
10
0.240126
20
0.940093
30
0.0
11
0.241387
21
0.939913
31
0.0
0
LINE
8
FRONT_HID
6
HIDDEN
10
0.241387
20
0.939913
30
0.0
11
0.242646
21
0.939725
31
0.0
0
LINE
8
FRONT_HID
6
HIDDEN
10
0.242646
20
0.939725
30
0.0
11
0.243904
21
0.939530
31
0.0
0
LINE
8
FRONT_HID
6
HIDDEN
10
0.243904
20
0.939530
30
0.0
11
0.245161
21
0.939327
31
0.0
0
LINE
8
FRONT_HID
6
HIDDEN
10
0.245161
20
0.939327
30
0.0
11
0.246417
21
0.939117
31
0.0
0
LINE
8
FRONT_HID
6
HIDDEN
10
0.246417
20
0.939117
30
0.0
11
0.247671
21
0.938899
31
0.0
0
LINE
8
FRONT_HID
6
HIDDEN
10
0.247671
20
0.938899
30
0.0
11
0.248924
21
0.938673
31
0.0
0
LINE
8
FRONT_HID
6
HIDDEN
10
0.248924
20
0.938673
30
0.0
11
0.250176
21
0.938440
31
0.0
0
LINE
8
FRONT_HID
6
HIDDEN
10
0.250176
20
0.938440
30
0.0
11
0.251426
21
0.938200
31
0.0
0
LINE
8
FRONT_HID
6
HIDDEN
10
0.251426
20
0.938200
30
0.0
11
0.252675
21
0.937952
31
0.0
0
LINE
8
FRONT_HID
6
HIDDEN
10
0.252675
20
0.937952
30
0.0
11
0.253922
21
0.937696
31
0.0
0
LINE
8
FRONT_HID
6
HIDDEN
10
0.253922
20
0.937696
30
0.0
11
0.255167
21
0.937433
31
0.0
0
LINE
8
FRONT_HID
6
HIDDEN
10
0.255167
20
0.937433
30
0.0
11
0.256412
21
0.937162
31
0.0
0
LINE
8
FRONT_HID
6
HIDDEN
10
0.256412
20
0.937162
30
0.0
11
0.257654
21
0.936884
31
0.0
0
LINE
8
FRONT_HID
6
HIDDEN
10
0.257654
20
0.936884
30
0.0
11
0.258895
21
0.936598
31
0.0
0
LINE
8
FRONT_HID
6
HIDDEN
10
0.258895
20
0.936598
30
0.0
11
0.260134
21
0.936305
31
0.0
0
LINE
8
FRONT_HID
6
HIDDEN
10
0.260134
20
0.936305
30
0.0
11
0.261371
21
0.936004
31
0.0
0
LINE
8
FRONT_HID
6
HIDDEN
10
0.261371
20
0.936004
30
0.0
11
0.262606
21
0.935696
31
0.0
0
LINE
8
FRONT_HID
6
HIDDEN
10
0.262606
20
0.935696
30
0.0
11
0.263839
21
0.935380
31
0.0
0
LINE
8
FRONT_HID
6
HIDDEN
10
0.263839
20
0.935380
30
0.0
11
0.265071
21
0.935057
31
0.0
0
LINE
8
FRONT_HID
6
HIDDEN
10
0.265071
20
0.935057
30
0.0
11
0.266300
21
0.934727
31
0.0
0
LINE
8
FRONT_HID
6
HIDDEN
10
0.266300
20
0.934727
30
0.0
11
0.267528
21
0.934389
31
0.0
0
LINE
8
FRONT_HID
6
HIDDEN
10
0.267528
20
0.934389
30
0.0
11
0.268753
21
0.934044
31
0.0
0
LINE
8
FRONT_HID
6
HIDDEN
10
0.268753
20
0.934044
30
0.0
11
0.269977
21
0.933691
31
0.0
0
LINE
8
FRONT_HID
6
HIDDEN
10
0.269977
20
0.933691
30
0.0
11
0.271198
21
0.933331
31
0.0
0
LINE
8
FRONT_HID
6
HIDDEN
10
0.271198
20
0.933331
30
0.0
11
0.272417
21
0.932964
31
0.0
0
LINE
8
FRONT_HID
6
HIDDEN
10
0.272417
20
0.932964
30
0.0
11
0.273634
21
0.932589
31
0.0
0
LINE
8
FRONT_HID
6
HIDDEN
10
0.273634
20
0.932589
30
0.0
11
0.274848
21
0.932207
31
0.0
0
LINE
8
FRONT_HID
6
HIDDEN
10
0.274848
20
0.932207
30
0.0
11
0.276060
21
0.931818
31
0.0
0
LINE
8
FRONT_HID
6
HIDDEN
10
0.276060
20
0.931818
30
0.0
11
0.277270
21
0.931421
31
0.0
0
LINE
8
FRONT_HID
6
HIDDEN
10
0.277270
20
0.931421
30
0.0
11
0.278478
21
0.931017
31
0.0
0
LINE
8
FRONT_HID
6
HIDDEN
10
0.278478
20
0.931017
30
0.0
11
0.279682
21
0.930606
31
0.0
0
LINE
8
FRONT_HID
6
HIDDEN
10
0.279682
20
0.930606
30
0.0
11
0.280885
21
0.930187
31
0.0
0
LINE
8
FRONT_HID
6
HIDDEN
10
0.280885
20
0.930187
30
0.0
11
0.282085
21
0.929761
31
0.0
0
LINE
8
FRONT_HID
6
HIDDEN
10
0.282085
20
0.929761
30
0.0
11
0.283282
21
0.929328
31
0.0
0
LINE
8
FRONT_HID
6
HIDDEN
10
0.283282
20
0.929328
30
0.0
11
0.284477
21
0.928888
31
0.0
0
LINE
8
FRONT_HID
6
HIDDEN
10
0.284477
20
0.928888
30
0.0
11
0.285668
21
0.928440
31
0.0
0
LINE
8
FRONT_HID
6
HIDDEN
10
0.285668
20
0.928440
30
0.0
11
0.286858
21
0.927986
31
0.0
0
LINE
8
FRONT_HID
6
HIDDEN
10
0.286858
20
0.927986
30
0.0
11
0.288044
21
0.927524
31
0.0
0
LINE
8
FRONT_HID
6
HIDDEN
10
0.288044
20
0.927524
30
0.0
11
0.289228
21
0.927055
31
0.0
0
LINE
8
FRONT_HID
6
HIDDEN
10
0.289228
20
0.927055
30
0.0
11
0.291056
21
0.926314
31
0.0
0
LINE
8
FRONT_HID
6
HIDDEN
10
0.291056
20
0.926314
30
0.0
11
0.292878
21
0.925556
31
0.0
0
LINE
8
FRONT_HID
6
HIDDEN
10
0.292878
20
0.925556
30
0.0
11
0.294692
21
0.924782
31
0.0
0
LINE
8
FRONT_HID
6
HIDDEN
10
0.294692
20
0.924782
30
0.0
11
0.296499
21
0.923990
31
0.0
0
LINE
8
FRONT_HID
6
HIDDEN
10
0.296499
20
0.923990
30
0.0
11
0.298298
21
0.923181
31
0.0
0
LINE
8
FRONT_HID
6
HIDDEN
10
0.298298
20
0.923181
30
0.0
11
0.300090
21
0.922356
31
0.0
0
LINE
8
FRONT_HID
6
HIDDEN
10
0.300090
20
0.922356
30
0.0
11
0.301874
21
0.921514
31
0.0
0
LINE
8
FRONT_HID
6
HIDDEN
10
0.301874
20
0.921514
30
0.0
11
0.303650
21
0.920655
31
0.0
0
LINE
8
FRONT_HID
6
HIDDEN
10
0.303650
20
0.920655
30
0.0
11
0.305418
21
0.919780
31
0.0
0
LINE
8
FRONT_HID
6
HIDDEN
10
0.305418
20
0.919780
30
0.0
11
0.307177
21
0.918888
31
0.0
0
LINE
8
FRONT_HID
6
HIDDEN
10
0.307177
20
0.918888
30
0.0
11
0.308928
21
0.917980
31
0.0
0
LINE
8
FRONT_HID
6
HIDDEN
10
0.308928
20
0.917980
30
0.0
11
0.310671
21
0.917055
31
0.0
0
LINE
8
FRONT_HID
6
HIDDEN
10
0.310671
20
0.917055
30
0.0
11
0.312405
21
0.916114
31
0.0
0
LINE
8
FRONT_HID
6
HIDDEN
10
0.312405
20
0.916114
30
0.0
11
0.314130
21
0.915157
31
0.0
0
LINE
8
FRONT_HID
6
HIDDEN
10
0.314130
20
0.915157
30
0.0
11
0.315846
21
0.914184
31
0.0
0
LINE
8
FRONT_HID
6
HIDDEN
10
0.315846
20
0.914184
30
0.0
11
0.317553
21
0.913195
31
0.0
0
LINE
8
FRONT_HID
6
HIDDEN
10
0.317553
20
0.913195
30
0.0
11
0.319250
21
0.912190
31
0.0
0
LINE
8
FRONT_HID
6
HIDDEN
10
0.319250
20
0.912190
30
0.0
11
0.320938
21
0.911169
31
0.0
0
LINE
8
FRONT_HID
6
HIDDEN
10
0.320938
20
0.911169
30
0.0
11
0.322617
21
0.910132
31
0.0
0
LINE
8
FRONT_HID
6
HIDDEN
10
0.322617
20
0.910132
30
0.0
11
0.324286
21
0.909080
31
0.0
0
LINE
8
FRONT_HID
6
HIDDEN
10
0.324286
20
0.909080
30
0.0
11
0.325944
21
0.908012
31
0.0
0
LINE
8
FRONT_HID
6
HIDDEN
10
0.325944
20
0.908012
30
0.0
11
0.327593
21
0.906929
31
0.0
0
LINE
8
FRONT_HID
6
HIDDEN
10
0.327593
20
0.906929
30
0.0
11
0.329231
21
0.905830
31
0.0
0
LINE
8
FRONT_HID
6
HIDDEN
10
0.329231
20
0.905830
30
0.0
11
0.330860
21
0.904716
31
0.0
0
LINE
8
FRONT_HID
6
HIDDEN
10
0.330860
20
0.904716
30
0.0
11
0.332477
21
0.903587
31
0.0
0
LINE
8
FRONT_HID
6
HIDDEN
10
0.332477
20
0.903587
30
0.0
11
0.334084
21
0.902443
31
0.0
0
LINE
8
FRONT_HID
6
HIDDEN
10
0.334084
20
0.902443
30
0.0
11
0.335681
21
0.901284
31
0.0
0
LINE
8
FRONT_HID
6
HIDDEN
10
0.335681
20
0.901284
30
0.0
11
0.337266
21
0.900110
31
0.0
0
LINE
8
FRONT_HID
6
HIDDEN
10
0.337266
20
0.900110
30
0.0
11
0.338840
21
0.898921
31
0.0
0
LINE
8
FRONT_HID
6
HIDDEN
10
0.338840
20
0.898921
30
0.0
11
0.340403
21
0.897717
31
0.0
0
LINE
8
FRONT_HID
6
HIDDEN
10
0.340403
20
0.897717
30
0.0
11
0.341955
21
0.896499
31
0.0
0
LINE
8
FRONT_HID
6
HIDDEN
10
0.341955
20
0.896499
30
0.0
11
0.343495
21
0.895267
31
0.0
0
LINE
8
FRONT_HID
6
HIDDEN
10
0.343495
20
0.895267
30
0.0
11
0.345024
21
0.894020
31
0.0
0
LINE
8
FRONT_HID
6
HIDDEN
10
0.345024
20
0.894020
30
0.0
11
0.346541
21
0.892759
31
0.0
0
LINE
8
FRONT_HID
6
HIDDEN
10
0.346541
20
0.892759
30
0.0
11
0.348046
21
0.891484
31
0.0
0
LINE
8
FRONT_HID
6
HIDDEN
10
0.348046
20
0.891484
30
0.0
11
0.349539
21
0.890194
31
0.0
0
LINE
8
FRONT_HID
6
HIDDEN
10
0.349539
20
0.890194
30
0.0
11
0.351020
21
0.888891
31
0.0
0
LINE
8
FRONT_HID
6
HIDDEN
10
0.351020
20
0.888891
30
0.0
11
0.352489
21
0.887574
31
0.0
0
LINE
8
FRONT_HID
6
HIDDEN
10
0.352489
20
0.887574
30
0.0
11
0.353945
21
0.886244
31
0.0
0
LINE
8
FRONT_HID
6
HIDDEN
10
0.353945
20
0.886244
30
0.0
11
0.355389
21
0.884899
31
0.0
0
LINE
8
FRONT_HID
6
HIDDEN
10
0.355389
20
0.884899
30
0.0
11
0.356821
21
0.883542
31
0.0
0
LINE
8
FRONT_HID
6
HIDDEN
10
0.356821
20
0.883542
30
0.0
11
0.358239
21
0.882171
31
0.0
0
LINE
8
FRONT_HID
6
HIDDEN
10
0.358239
20
0.882171
30
0.0
11
0.359645
21
0.880787
31
0.0
0
LINE
8
FRONT_HID
6
HIDDEN
10
0.359645
20
0.880787
30
0.0
11
0.361037
21
0.879389
31
0.0
0
LINE
8
FRONT_HID
6
HIDDEN
10
0.361037
20
0.879389
30
0.0
11
0.362417
21
0.877979
31
0.0
0
LINE
8
FRONT_HID
6
HIDDEN
10
0.362417
20
0.877979
30
0.0
11
0.363783
21
0.876556
31
0.0
0
LINE
8
FRONT_HID
6
HIDDEN
10
0.363783
20
0.876556
30
0.0
11
0.365136
21
0.875120
31
0.0
0
LINE
8
FRONT_HID
6
HIDDEN
10
0.365136
20
0.875120
30
0.0
11
0.366475
21
0.873672
31
0.0
0
LINE
8
FRONT_HID
6
HIDDEN
10
0.366475
20
0.873672
30
0.0
11
0.367801
21
0.872211
31
0.0
0
LINE
8
FRONT_HID
6
HIDDEN
10
0.367801
20
0.872211
30
0.0
11
0.369113
21
0.870738
31
0.0
0
LINE
8
FRONT_HID
6
HIDDEN
10
0.369113
20
0.870738
30
0.0
11
0.370411
21
0.869252
31
0.0
0
LINE
8
FRONT_HID
6
HIDDEN
10
0.370411
20
0.869252
30
0.0
11
0.371695
21
0.867755
31
0.0
0
LINE
8
FRONT_HID
6
HIDDEN
10
0.371695
20
0.867755
30
0.0
11
0.372966
21
0.866246
31
0.0
0
LINE
8
FRONT_HID
6
HIDDEN
10
0.372966
20
0.866246
30
0.0
11
0.374222
21
0.864724
31
0.0
0
LINE
8
FRONT_HID
6
HIDDEN
10
0.374222
20
0.864724
30
0.0
11
0.375463
21
0.863192
31
0.0
0
LINE
8
FRONT_HID
6
HIDDEN
10
0.375463
20
0.863192
30
0.0
11
0.376691
21
0.861647
31
0.0
0
LINE
8
FRONT_HID
6
HIDDEN
10
0.376691
20
0.861647
30
0.0
11
0.377904
21
0.860091
31
0.0
0
LINE
8
FRONT_HID
6
HIDDEN
10
0.377904
20
0.860091
30
0.0
11
0.379102
21
0.858524
31
0.0
0
LINE
8
FRONT_HID
6
HIDDEN
10
0.379102
20
0.858524
30
0.0
11
0.380285
21
0.856946
31
0.0
0
LINE
8
FRONT_HID
6
HIDDEN
10
0.380285
20
0.856946
30
0.0
11
0.381454
21
0.855357
31
0.0
0
LINE
8
FRONT_HID
6
HIDDEN
10
0.381454
20
0.855357
30
0.0
11
0.382608
21
0.853756
31
0.0
0
LINE
8
FRONT_HID
6
HIDDEN
10
0.382608
20
0.853756
30
0.0
11
0.383747
21
0.852146
31
0.0
0
LINE
8
FRONT_HID
6
HIDDEN
10
0.383747
20
0.852146
30
0.0
11
0.384870
21
0.850524
31
0.0
0
LINE
8
FRONT_HID
6
HIDDEN
10
0.327491
20
1.047138
30
0.0
11
0.327327
21
1.045659
31
0.0
0
LINE
8
FRONT_HID
6
HIDDEN
10
0.327327
20
1.045659
30
0.0
11
0.327145
21
1.044183
31
0.0
0
LINE
8
FRONT_HID
6
HIDDEN
10
0.327145
20
1.044183
30
0.0
11
0.326943
21
1.042709
31
0.0
0
LINE
8
FRONT_HID
6
HIDDEN
10
0.326943
20
1.042709
30
0.0
11
0.326723
21
1.041238
31
0.0
0
LINE
8
FRONT_HID
6
HIDDEN
10
0.326723
20
1.041238
30
0.0
11
0.326484
21
1.039769
31
0.0
0
LINE
8
FRONT_HID
6
HIDDEN
10
0.326484
20
1.039769
30
0.0
11
0.326227
21
1.038304
31
0.0
0
LINE
8
FRONT_HID
6
HIDDEN
10
0.326227
20
1.038304
30
0.0
11
0.325951
21
1.036842
31
0.0
0
LINE
8
FRONT_HID
6
HIDDEN
10
0.325951
20
1.036842
30
0.0
11
0.325657
21
1.035384
31
0.0
0
LINE
8
FRONT_HID
6
HIDDEN
10
0.325657
20
1.035384
30
0.0
11
0.325344
21
1.033929
31
0.0
0
LINE
8
FRONT_HID
6
HIDDEN
10
0.325344
20
1.033929
30
0.0
11
0.325012
21
1.032479
31
0.0
0
LINE
8
FRONT_HID
6
HIDDEN
10
0.325012
20
1.032479
30
0.0
11
0.324662
21
1.031033
31
0.0
0
LINE
8
FRONT_HID
6
HIDDEN
10
0.324662
20
1.031033
30
0.0
11
0.324294
21
1.029592
31
0.0
0
LINE
8
FRONT_HID
6
HIDDEN
10
0.324294
20
1.029592
30
0.0
11
0.323908
21
1.028155
31
0.0
0
LINE
8
FRONT_HID
6
HIDDEN
10
0.323908
20
1.028155
30
0.0
11
0.323503
21
1.026723
31
0.0
0
LINE
8
FRONT_HID
6
HIDDEN
10
0.323503
20
1.026723
30
0.0
11
0.323081
21
1.025297
31
0.0
0
LINE
8
FRONT_HID
6
HIDDEN
10
0.323081
20
1.025297
30
0.0
11
0.322640
21
1.023876
31
0.0
0
LINE
8
FRONT_HID
6
HIDDEN
10
0.322640
20
1.023876
30
0.0
11
0.322181
21
1.022461
31
0.0
0
LINE
8
FRONT_HID
6
HIDDEN
10
0.322181
20
1.022461
30
0.0
11
0.321704
21
1.021052
31
0.0
0
LINE
8
FRONT_HID
6
HIDDEN
10
0.321704
20
1.021052
30
0.0
11
0.321210
21
1.019648
31
0.0
0
LINE
8
FRONT_HID
6
HIDDEN
10
0.321210
20
1.019648
30
0.0
11
0.320697
21
1.018252
31
0.0
0
LINE
8
FRONT_HID
6
HIDDEN
10
0.320697
20
1.018252
30
0.0
11
0.320167
21
1.016862
31
0.0
0
LINE
8
FRONT_HID
6
HIDDEN
10
0.320167
20
1.016862
30
0.0
11
0.319619
21
1.015478
31
0.0
0
LINE
8
FRONT_HID
6
HIDDEN
10
0.319619
20
1.015478
30
0.0
11
0.319054
21
1.014102
31
0.0
0
LINE
8
FRONT_HID
6
HIDDEN
10
0.319054
20
1.014102
30
0.0
11
0.318472
21
1.012733
31
0.0
0
LINE
8
FRONT_HID
6
HIDDEN
10
0.318472
20
1.012733
30
0.0
11
0.317872
21
1.011372
31
0.0
0
LINE
8
FRONT_HID
6
HIDDEN
10
0.317872
20
1.011372
30
0.0
11
0.317254
21
1.010018
31
0.0
0
LINE
8
FRONT_HID
6
HIDDEN
10
0.317254
20
1.010018
30
0.0
11
0.316620
21
1.008673
31
0.0
0
LINE
8
FRONT_HID
6
HIDDEN
10
0.316620
20
1.008673
30
0.0
11
0.315969
21
1.007335
31
0.0
0
LINE
8
FRONT_HID
6
HIDDEN
10
0.315969
20
1.007335
30
0.0
11
0.315301
21
1.006006
31
0.0
0
LINE
8
FRONT_HID
6
HIDDEN
10
0.315301
20
1.006006
30
0.0
11
0.314615
21
1.004685
31
0.0
0
LINE
8
FRONT_HID
6
HIDDEN
10
0.314615
20
1.004685
30
0.0
11
0.313914
21
1.003374
31
0.0
0
LINE
8
FRONT_HID
6
HIDDEN
10
0.313914
20
1.003374
30
0.0
11
0.313195
21
1.002071
31
0.0
0
LINE
8
FRONT_HID
6
HIDDEN
10
0.313195
20
1.002071
30
0.0
11
0.312460
21
1.000777
31
0.0
0
LINE
8
FRONT_HID
6
HIDDEN
10
0.312460
20
1.000777
30
0.0
11
0.311709
21
0.999493
31
0.0
0
LINE
8
FRONT_HID
6
HIDDEN
10
0.311709
20
0.999493
30
0.0
11
0.310942
21
0.998219
31
0.0
0
LINE
8
FRONT_HID
6
HIDDEN
10
0.310942
20
0.998219
30
0.0
11
0.310158
21
0.996954
31
0.0
0
LINE
8
FRONT_HID
6
HIDDEN
10
0.310158
20
0.996954
30
0.0
11
0.309358
21
0.995699
31
0.0
0
LINE
8
FRONT_HID
6
HIDDEN
10
0.309358
20
0.995699
30
0.0
11
0.308543
21
0.994455
31
0.0
0
LINE
8
FRONT_HID
6
HIDDEN
10
0.308543
20
0.994455
30
0.0
11
0.307712
21
0.993221
31
0.0
0
LINE
8
FRONT_HID
6
HIDDEN
10
0.307712
20
0.993221
30
0.0
11
0.306865
21
0.991998
31
0.0
0
LINE
8
FRONT_HID
6
HIDDEN
10
0.306865
20
0.991998
30
0.0
11
0.306003
21
0.990786
31
0.0
0
LINE
8
FRONT_HID
6
HIDDEN
10
0.306003
20
0.990786
30
0.0
11
0.305125
21
0.989584
31
0.0
0
LINE
8
FRONT_HID
6
HIDDEN
10
0.305125
20
0.989584
30
0.0
11
0.304232
21
0.988394
31
0.0
0
LINE
8
FRONT_HID
6
HIDDEN
10
0.304232
20
0.988394
30
0.0
11
0.303325
21
0.987216
31
0.0
0
LINE
8
FRONT_HID
6
HIDDEN
10
0.303325
20
0.987216
30
0.0
11
0.302402
21
0.986049
31
0.0
0
LINE
8
FRONT_HID
6
HIDDEN
10
0.302402
20
0.986049
30
0.0
11
0.301465
21
0.984893
31
0.0
0
LINE
8
FRONT_HID
6
HIDDEN
10
0.301465
20
0.984893
30
0.0
11
0.300513
21
0.983750
31
0.0
0
LINE
8
FRONT_HID
6
HIDDEN
10
0.300513
20
0.983750
30
0.0
11
0.299546
21
0.982619
31
0.0
0
LINE
8
FRONT_HID
6
HIDDEN
10
0.299546
20
0.982619
30
0.0
11
0.298565
21
0.981500
31
0.0
0
LINE
8
FRONT_HID
6
HIDDEN
10
0.298565
20
0.981500
30
0.0
11
0.297571
21
0.980394
31
0.0
0
LINE
8
FRONT_HID
6
HIDDEN
10
0.297571
20
0.980394
30
0.0
11
0.296562
21
0.979301
31
0.0
0
LINE
8
FRONT_HID
6
HIDDEN
10
0.296562
20
0.979301
30
0.0
11
0.295539
21
0.978220
31
0.0
0
LINE
8
FRONT_HID
6
HIDDEN
10
0.295539
20
0.978220
30
0.0
11
0.294503
21
0.977153
31
0.0
0
LINE
8
FRONT_HID
6
HIDDEN
10
0.294503
20
0.977153
30
0.0
11
0.293453
21
0.976099
31
0.0
0
LINE
8
FRONT_HID
6
HIDDEN
10
0.293453
20
0.976099
30
0.0
11
0.292390
21
0.975058
31
0.0
0
LINE
8
FRONT_HID
6
HIDDEN
10
0.292390
20
0.975058
30
0.0
11
0.291314
21
0.974030
31
0.0
0
LINE
8
FRONT_HID
6
HIDDEN
10
0.291314
20
0.974030
30
0.0
11
0.290225
21
0.973017
31
0.0
0
LINE
8
FRONT_HID
6
HIDDEN
10
0.290225
20
0.973017
30
0.0
11
0.289123
21
0.972017
31
0.0
0
LINE
8
FRONT_HID
6
HIDDEN
10
0.289123
20
0.972017
30
0.0
11
0.288009
21
0.971032
31
0.0
0
LINE
8
FRONT_HID
6
HIDDEN
10
0.288009
20
0.971032
30
0.0
11
0.286882
21
0.970061
31
0.0
0
LINE
8
FRONT_HID
6
HIDDEN
10
0.286882
20
0.970061
30
0.0
11
0.285743
21
0.969104
31
0.0
0
LINE
8
FRONT_HID
6
HIDDEN
10
0.285743
20
0.969104
30
0.0
11
0.284592
21
0.968161
31
0.0
0
LINE
8
FRONT_HID
6
HIDDEN
10
0.284592
20
0.968161
30
0.0
11
0.283428
21
0.967234
31
0.0
0
LINE
8
FRONT_HID
6
HIDDEN
10
0.138447
20
0.967234
30
0.0
11
0.137283
21
0.968161
31
0.0
0
LINE
8
FRONT_HID
6
HIDDEN
10
0.137283
20
0.968161
30
0.0
11
0.136132
21
0.969104
31
0.0
0
LINE
8
FRONT_HID
6
HIDDEN
10
0.136132
20
0.969104
30
0.0
11
0.134993
21
0.970061
31
0.0
0
LINE
8
FRONT_HID
6
HIDDEN
10
0.134993
20
0.970061
30
0.0
11
0.133866
21
0.971032
31
0.0
0
LINE
8
FRONT_HID
6
HIDDEN
10
0.133866
20
0.971032
30
0.0
11
0.132752
21
0.972017
31
0.0
0
LINE
8
FRONT_HID
6
HIDDEN
10
0.132752
20
0.972017
30
0.0
11
0.131650
21
0.973017
31
0.0
0
LINE
8
FRONT_HID
6
HIDDEN
10
0.131650
20
0.973017
30
0.0
11
0.130561
21
0.974030
31
0.0
0
LINE
8
FRONT_HID
6
HIDDEN
10
0.130561
20
0.974030
30
0.0
11
0.129485
21
0.975058
31
0.0
0
LINE
8
FRONT_HID
6
HIDDEN
10
0.129485
20
0.975058
30
0.0
11
0.128422
21
0.976099
31
0.0
0
LINE
8
FRONT_HID
6
HIDDEN
10
0.128422
20
0.976099
30
0.0
11
0.127372
21
0.977153
31
0.0
0
LINE
8
FRONT_HID
6
HIDDEN
10
0.127372
20
0.977153
30
0.0
11
0.126336
21
0.978220
31
0.0
0
LINE
8
FRONT_HID
6
HIDDEN
10
0.126336
20
0.978220
30
0.0
11
0.125313
21
0.979301
31
0.0
0
LINE
8
FRONT_HID
6
HIDDEN
10
0.125313
20
0.979301
30
0.0
11
0.124304
21
0.980394
31
0.0
0
LINE
8
FRONT_HID
6
HIDDEN
10
0.124304
20
0.980394
30
0.0
11
0.123310
21
0.981500
31
0.0
0
LINE
8
FRONT_HID
6
HIDDEN
10
0.123310
20
0.981500
30
0.0
11
0.122329
21
0.982619
31
0.0
0
LINE
8
FRONT_HID
6
HIDDEN
10
0.122329
20
0.982619
30
0.0
11
0.121362
21
0.983750
31
0.0
0
LINE
8
FRONT_HID
6
HIDDEN
10
0.121362
20
0.983750
30
0.0
11
0.120410
21
0.984893
31
0.0
0
LINE
8
FRONT_HID
6
HIDDEN
10
0.120410
20
0.984893
30
0.0
11
0.119473
21
0.986049
31
0.0
0
LINE
8
FRONT_HID
6
HIDDEN
10
0.119473
20
0.986049
30
0.0
11
0.118550
21
0.987216
31
0.0
0
LINE
8
FRONT_HID
6
HIDDEN
10
0.118550
20
0.987216
30
0.0
11
0.117643
21
0.988394
31
0.0
0
LINE
8
FRONT_HID
6
HIDDEN
10
0.117643
20
0.988394
30
0.0
11
0.116750
21
0.989584
31
0.0
0
LINE
8
FRONT_HID
6
HIDDEN
10
0.116750
20
0.989584
30
0.0
11
0.115872
21
0.990786
31
0.0
0
LINE
8
FRONT_HID
6
HIDDEN
10
0.115872
20
0.990786
30
0.0
11
0.115010
21
0.991998
31
0.0
0
LINE
8
FRONT_HID
6
HIDDEN
10
0.115010
20
0.991998
30
0.0
11
0.114163
21
0.993221
31
0.0
0
LINE
8
FRONT_HID
6
HIDDEN
10
0.114163
20
0.993221
30
0.0
11
0.113332
21
0.994455
31
0.0
0
LINE
8
FRONT_HID
6
HIDDEN
10
0.113332
20
0.994455
30
0.0
11
0.112517
21
0.995699
31
0.0
0
LINE
8
FRONT_HID
6
HIDDEN
10
0.112517
20
0.995699
30
0.0
11
0.111717
21
0.996954
31
0.0
0
LINE
8
FRONT_HID
6
HIDDEN
10
0.111717
20
0.996954
30
0.0
11
0.110933
21
0.998219
31
0.0
0
LINE
8
FRONT_HID
6
HIDDEN
10
0.110933
20
0.998219
30
0.0
11
0.110166
21
0.999493
31
0.0
0
LINE
8
FRONT_HID
6
HIDDEN
10
0.110166
20
0.999493
30
0.0
11
0.109415
21
1.000777
31
0.0
0
LINE
8
FRONT_HID
6
HIDDEN
10
0.109415
20
1.000777
30
0.0
11
0.108680
21
1.002071
31
0.0
0
LINE
8
FRONT_HID
6
HIDDEN
10
0.108680
20
1.002071
30
0.0
11
0.107961
21
1.003374
31
0.0
0
LINE
8
FRONT_HID
6
HIDDEN
10
0.107961
20
1.003374
30
0.0
11
0.107260
21
1.004685
31
0.0
0
LINE
8
FRONT_HID
6
HIDDEN
10
0.107260
20
1.004685
30
0.0
11
0.106574
21
1.006006
31
0.0
0
LINE
8
FRONT_HID
6
HIDDEN
10
0.106574
20
1.006006
30
0.0
11
0.105906
21
1.007335
31
0.0
0
LINE
8
FRONT_HID
6
HIDDEN
10
0.105906
20
1.007335
30
0.0
11
0.105255
21
1.008673
31
0.0
0
LINE
8
FRONT_HID
6
HIDDEN
10
0.105255
20
1.008673
30
0.0
11
0.104621
21
1.010018
31
0.0
0
LINE
8
FRONT_HID
6
HIDDEN
10
0.104621
20
1.010018
30
0.0
11
0.104003
21
1.011372
31
0.0
0
LINE
8
FRONT_HID
6
HIDDEN
10
0.104003
20
1.011372
30
0.0
11
0.103403
21
1.012733
31
0.0
0
LINE
8
FRONT_HID
6
HIDDEN
10
0.103403
20
1.012733
30
0.0
11
0.102821
21
1.014102
31
0.0
0
LINE
8
FRONT_HID
6
HIDDEN
10
0.102821
20
1.014102
30
0.0
11
0.102256
21
1.015478
31
0.0
0
LINE
8
FRONT_HID
6
HIDDEN
10
0.102256
20
1.015478
30
0.0
11
0.101708
21
1.016862
31
0.0
0
LINE
8
FRONT_HID
6
HIDDEN
10
0.101708
20
1.016862
30
0.0
11
0.101178
21
1.018252
31
0.0
0
LINE
8
FRONT_HID
6
HIDDEN
10
0.101178
20
1.018252
30
0.0
11
0.100665
21
1.019648
31
0.0
0
LINE
8
FRONT_HID
6
HIDDEN
10
0.100665
20
1.019648
30
0.0
11
0.100171
21
1.021052
31
0.0
0
LINE
8
FRONT_HID
6
HIDDEN
10
0.100171
20
1.021052
30
0.0
11
0.099694
21
1.022461
31
0.0
0
LINE
8
FRONT_HID
6
HIDDEN
10
0.099694
20
1.022461
30
0.0
11
0.099235
21
1.023876
31
0.0
0
LINE
8
FRONT_HID
6
HIDDEN
10
0.099235
20
1.023876
30
0.0
11
0.098794
21
1.025297
31
0.0
0
LINE
8
FRONT_HID
6
HIDDEN
10
0.098794
20
1.025297
30
0.0
11
0.098372
21
1.026723
31
0.0
0
LINE
8
FRONT_HID
6
HIDDEN
10
0.098372
20
1.026723
30
0.0
11
0.097967
21
1.028155
31
0.0
0
LINE
8
FRONT_HID
6
HIDDEN
10
0.097967
20
1.028155
30
0.0
11
0.097581
21
1.029592
31
0.0
0
LINE
8
FRONT_HID
6
HIDDEN
10
0.097581
20
1.029592
30
0.0
11
0.097213
21
1.031033
31
0.0
0
LINE
8
FRONT_HID
6
HIDDEN
10
0.097213
20
1.031033
30
0.0
11
0.096863
21
1.032479
31
0.0
0
LINE
8
FRONT_HID
6
HIDDEN
10
0.096863
20
1.032479
30
0.0
11
0.096531
21
1.033929
31
0.0
0
LINE
8
FRONT_HID
6
HIDDEN
10
0.096531
20
1.033929
30
0.0
11
0.096218
21
1.035384
31
0.0
0
LINE
8
FRONT_HID
6
HIDDEN
10
0.096218
20
1.035384
30
0.0
11
0.095924
21
1.036842
31
0.0
0
LINE
8
FRONT_HID
6
HIDDEN
10
0.095924
20
1.036842
30
0.0
11
0.095648
21
1.038304
31
0.0
0
LINE
8
FRONT_HID
6
HIDDEN
10
0.095648
20
1.038304
30
0.0
11
0.095391
21
1.039769
31
0.0
0
LINE
8
FRONT_HID
6
HIDDEN
10
0.095391
20
1.039769
30
0.0
11
0.095152
21
1.041238
31
0.0
0
LINE
8
FRONT_HID
6
HIDDEN
10
0.095152
20
1.041238
30
0.0
11
0.094932
21
1.042709
31
0.0
0
LINE
8
FRONT_HID
6
HIDDEN
10
0.094932
20
1.042709
30
0.0
11
0.094730
21
1.044183
31
0.0
0
LINE
8
FRONT_HID
6
HIDDEN
10
0.094730
20
1.044183
30
0.0
11
0.094548
21
1.045659
31
0.0
0
LINE
8
FRONT_HID
6
HIDDEN
10
0.094548
20
1.045659
30
0.0
11
0.094384
21
1.047138
31
0.0
0
LINE
8
FRONT_HID
6
HIDDEN
10
0.268775
20
0.603004
30
0.0
11
0.281250
21
0.609400
31
0.0
0
LINE
8
FRONT_HID
6
HIDDEN
10
0.281250
20
0.609400
30
0.0
11
0.293026
21
0.617006
31
0.0
0
LINE
8
FRONT_HID
6
HIDDEN
10
0.293026
20
0.845363
30
0.0
11
0.281250
21
0.852969
31
0.0
0
LINE
8
FRONT_HID
6
HIDDEN
10
0.281250
20
0.852969
30
0.0
11
0.268775
21
0.859365
31
0.0
0
LINE
8
FRONT_HID
6
HIDDEN
10
0.327491
20
1.047138
30
0.0
11
0.327327
21
1.045659
31
0.0
0
LINE
8
FRONT_HID
6
HIDDEN
10
0.327327
20
1.045659
30
0.0
11
0.327145
21
1.044183
31
0.0
0
LINE
8
FRONT_HID
6
HIDDEN
10
0.327145
20
1.044183
30
0.0
11
0.326943
21
1.042709
31
0.0
0
LINE
8
FRONT_HID
6
HIDDEN
10
0.326943
20
1.042709
30
0.0
11
0.326723
21
1.041238
31
0.0
0
LINE
8
FRONT_HID
6
HIDDEN
10
0.326723
20
1.041238
30
0.0
11
0.326484
21
1.039769
31
0.0
0
LINE
8
FRONT_HID
6
HIDDEN
10
0.326484
20
1.039769
30
0.0
11
0.326227
21
1.038304
31
0.0
0
LINE
8
FRONT_HID
6
HIDDEN
10
0.326227
20
1.038304
30
0.0
11
0.325951
21
1.036842
31
0.0
0
LINE
8
FRONT_HID
6
HIDDEN
10
0.325951
20
1.036842
30
0.0
11
0.325657
21
1.035384
31
0.0
0
LINE
8
FRONT_HID
6
HIDDEN
10
0.325657
20
1.035384
30
0.0
11
0.325344
21
1.033929
31
0.0
0
LINE
8
FRONT_HID
6
HIDDEN
10
0.325344
20
1.033929
30
0.0
11
0.325012
21
1.032479
31
0.0
0
LINE
8
FRONT_HID
6
HIDDEN
10
0.325012
20
1.032479
30
0.0
11
0.324662
21
1.031033
31
0.0
0
LINE
8
FRONT_HID
6
HIDDEN
10
0.324662
20
1.031033
30
0.0
11
0.324294
21
1.029592
31
0.0
0
LINE
8
FRONT_HID
6
HIDDEN
10
0.324294
20
1.029592
30
0.0
11
0.323908
21
1.028155
31
0.0
0
LINE
8
FRONT_HID
6
HIDDEN
10
0.323908
20
1.028155
30
0.0
11
0.323503
21
1.026723
31
0.0
0
LINE
8
FRONT_HID
6
HIDDEN
10
0.323503
20
1.026723
30
0.0
11
0.323081
21
1.025297
31
0.0
0
LINE
8
FRONT_HID
6
HIDDEN
10
0.323081
20
1.025297
30
0.0
11
0.322640
21
1.023876
31
0.0
0
LINE
8
FRONT_HID
6
HIDDEN
10
0.322640
20
1.023876
30
0.0
11
0.322181
21
1.022461
31
0.0
0
LINE
8
FRONT_HID
6
HIDDEN
10
0.322181
20
1.022461
30
0.0
11
0.321704
21
1.021052
31
0.0
0
LINE
8
FRONT_HID
6
HIDDEN
10
0.321704
20
1.021052
30
0.0
11
0.321210
21
1.019648
31
0.0
0
LINE
8
FRONT_HID
6
HIDDEN
10
0.321210
20
1.019648
30
0.0
11
0.320697
21
1.018252
31
0.0
0
LINE
8
FRONT_HID
6
HIDDEN
10
0.320697
20
1.018252
30
0.0
11
0.320167
21
1.016862
31
0.0
0
LINE
8
FRONT_HID
6
HIDDEN
10
0.320167
20
1.016862
30
0.0
11
0.319619
21
1.015478
31
0.0
0
LINE
8
FRONT_HID
6
HIDDEN
10
0.319619
20
1.015478
30
0.0
11
0.319054
21
1.014102
31
0.0
0
LINE
8
FRONT_HID
6
HIDDEN
10
0.319054
20
1.014102
30
0.0
11
0.318472
21
1.012733
31
0.0
0
LINE
8
FRONT_HID
6
HIDDEN
10
0.318472
20
1.012733
30
0.0
11
0.317872
21
1.011372
31
0.0
0
LINE
8
FRONT_HID
6
HIDDEN
10
0.317872
20
1.011372
30
0.0
11
0.317254
21
1.010018
31
0.0
0
LINE
8
FRONT_HID
6
HIDDEN
10
0.317254
20
1.010018
30
0.0
11
0.316620
21
1.008673
31
0.0
0
LINE
8
FRONT_HID
6
HIDDEN
10
0.316620
20
1.008673
30
0.0
11
0.315969
21
1.007335
31
0.0
0
LINE
8
FRONT_HID
6
HIDDEN
10
0.315969
20
1.007335
30
0.0
11
0.315301
21
1.006006
31
0.0
0
LINE
8
FRONT_HID
6
HIDDEN
10
0.315301
20
1.006006
30
0.0
11
0.314615
21
1.004685
31
0.0
0
LINE
8
FRONT_HID
6
HIDDEN
10
0.314615
20
1.004685
30
0.0
11
0.313914
21
1.003374
31
0.0
0
LINE
8
FRONT_HID
6
HIDDEN
10
0.313914
20
1.003374
30
0.0
11
0.313195
21
1.002071
31
0.0
0
LINE
8
FRONT_HID
6
HIDDEN
10
0.313195
20
1.002071
30
0.0
11
0.312460
21
1.000777
31
0.0
0
LINE
8
FRONT_HID
6
HIDDEN
10
0.312460
20
1.000777
30
0.0
11
0.311709
21
0.999493
31
0.0
0
LINE
8
FRONT_HID
6
HIDDEN
10
0.311709
20
0.999493
30
0.0
11
0.310942
21
0.998219
31
0.0
0
LINE
8
FRONT_HID
6
HIDDEN
10
0.310942
20
0.998219
30
0.0
11
0.310158
21
0.996954
31
0.0
0
LINE
8
FRONT_HID
6
HIDDEN
10
0.310158
20
0.996954
30
0.0
11
0.309358
21
0.995699
31
0.0
0
LINE
8
FRONT_HID
6
HIDDEN
10
0.309358
20
0.995699
30
0.0
11
0.308543
21
0.994455
31
0.0
0
LINE
8
FRONT_HID
6
HIDDEN
10
0.308543
20
0.994455
30
0.0
11
0.307712
21
0.993221
31
0.0
0
LINE
8
FRONT_HID
6
HIDDEN
10
0.307712
20
0.993221
30
0.0
11
0.306865
21
0.991998
31
0.0
0
LINE
8
FRONT_HID
6
HIDDEN
10
0.306865
20
0.991998
30
0.0
11
0.306003
21
0.990786
31
0.0
0
LINE
8
FRONT_HID
6
HIDDEN
10
0.306003
20
0.990786
30
0.0
11
0.305125
21
0.989584
31
0.0
0
LINE
8
FRONT_HID
6
HIDDEN
10
0.305125
20
0.989584
30
0.0
11
0.304232
21
0.988394
31
0.0
0
LINE
8
FRONT_HID
6
HIDDEN
10
0.304232
20
0.988394
30
0.0
11
0.303325
21
0.987216
31
0.0
0
LINE
8
FRONT_HID
6
HIDDEN
10
0.303325
20
0.987216
30
0.0
11
0.302402
21
0.986049
31
0.0
0
LINE
8
FRONT_HID
6
HIDDEN
10
0.302402
20
0.986049
30
0.0
11
0.301465
21
0.984893
31
0.0
0
LINE
8
FRONT_HID
6
HIDDEN
10
0.301465
20
0.984893
30
0.0
11
0.300513
21
0.983750
31
0.0
0
LINE
8
FRONT_HID
6
HIDDEN
10
0.300513
20
0.983750
30
0.0
11
0.299546
21
0.982619
31
0.0
0
LINE
8
FRONT_HID
6
HIDDEN
10
0.299546
20
0.982619
30
0.0
11
0.298565
21
0.981500
31
0.0
0
LINE
8
FRONT_HID
6
HIDDEN
10
0.298565
20
0.981500
30
0.0
11
0.297571
21
0.980394
31
0.0
0
LINE
8
FRONT_HID
6
HIDDEN
10
0.297571
20
0.980394
30
0.0
11
0.296562
21
0.979301
31
0.0
0
LINE
8
FRONT_HID
6
HIDDEN
10
0.296562
20
0.979301
30
0.0
11
0.295539
21
0.978220
31
0.0
0
LINE
8
FRONT_HID
6
HIDDEN
10
0.295539
20
0.978220
30
0.0
11
0.294503
21
0.977153
31
0.0
0
LINE
8
FRONT_HID
6
HIDDEN
10
0.294503
20
0.977153
30
0.0
11
0.293453
21
0.976099
31
0.0
0
LINE
8
FRONT_HID
6
HIDDEN
10
0.293453
20
0.976099
30
0.0
11
0.292390
21
0.975058
31
0.0
0
LINE
8
FRONT_HID
6
HIDDEN
10
0.292390
20
0.975058
30
0.0
11
0.291314
21
0.974030
31
0.0
0
LINE
8
FRONT_HID
6
HIDDEN
10
0.291314
20
0.974030
30
0.0
11
0.290225
21
0.973017
31
0.0
0
LINE
8
FRONT_HID
6
HIDDEN
10
0.290225
20
0.973017
30
0.0
11
0.289123
21
0.972017
31
0.0
0
LINE
8
FRONT_HID
6
HIDDEN
10
0.289123
20
0.972017
30
0.0
11
0.288009
21
0.971032
31
0.0
0
LINE
8
FRONT_HID
6
HIDDEN
10
0.288009
20
0.971032
30
0.0
11
0.286882
21
0.970061
31
0.0
0
LINE
8
FRONT_HID
6
HIDDEN
10
0.286882
20
0.970061
30
0.0
11
0.285743
21
0.969104
31
0.0
0
LINE
8
FRONT_HID
6
HIDDEN
10
0.285743
20
0.969104
30
0.0
11
0.284592
21
0.968161
31
0.0
0
LINE
8
FRONT_HID
6
HIDDEN
10
0.284592
20
0.968161
30
0.0
11
0.283428
21
0.967234
31
0.0
0
LINE
8
FRONT_HID
6
HIDDEN
10
0.138447
20
0.967234
30
0.0
11
0.137283
21
0.968161
31
0.0
0
LINE
8
FRONT_HID
6
HIDDEN
10
0.137283
20
0.968161
30
0.0
11
0.136132
21
0.969104
31
0.0
0
LINE
8
FRONT_HID
6
HIDDEN
10
0.136132
20
0.969104
30
0.0
11
0.134993
21
0.970061
31
0.0
0
LINE
8
FRONT_HID
6
HIDDEN
10
0.134993
20
0.970061
30
0.0
11
0.133866
21
0.971032
31
0.0
0
LINE
8
FRONT_HID
6
HIDDEN
10
0.133866
20
0.971032
30
0.0
11
0.132752
21
0.972017
31
0.0
0
LINE
8
FRONT_HID
6
HIDDEN
10
0.132752
20
0.972017
30
0.0
11
0.131650
21
0.973017
31
0.0
0
LINE
8
FRONT_HID
6
HIDDEN
10
0.131650
20
0.973017
30
0.0
11
0.130561
21
0.974030
31
0.0
0
LINE
8
FRONT_HID
6
HIDDEN
10
0.130561
20
0.974030
30
0.0
11
0.129485
21
0.975058
31
0.0
0
LINE
8
FRONT_HID
6
HIDDEN
10
0.129485
20
0.975058
30
0.0
11
0.128422
21
0.976099
31
0.0
0
LINE
8
FRONT_HID
6
HIDDEN
10
0.128422
20
0.976099
30
0.0
11
0.127372
21
0.977153
31
0.0
0
LINE
8
FRONT_HID
6
HIDDEN
10
0.127372
20
0.977153
30
0.0
11
0.126336
21
0.978220
31
0.0
0
LINE
8
FRONT_HID
6
HIDDEN
10
0.126336
20
0.978220
30
0.0
11
0.125313
21
0.979301
31
0.0
0
LINE
8
FRONT_HID
6
HIDDEN
10
0.125313
20
0.979301
30
0.0
11
0.124304
21
0.980394
31
0.0
0
LINE
8
FRONT_HID
6
HIDDEN
10
0.124304
20
0.980394
30
0.0
11
0.123310
21
0.981500
31
0.0
0
LINE
8
FRONT_HID
6
HIDDEN
10
0.123310
20
0.981500
30
0.0
11
0.122329
21
0.982619
31
0.0
0
LINE
8
FRONT_HID
6
HIDDEN
10
0.122329
20
0.982619
30
0.0
11
0.121362
21
0.983750
31
0.0
0
LINE
8
FRONT_HID
6
HIDDEN
10
0.121362
20
0.983750
30
0.0
11
0.120410
21
0.984893
31
0.0
0
LINE
8
FRONT_HID
6
HIDDEN
10
0.120410
20
0.984893
30
0.0
11
0.119473
21
0.986049
31
0.0
0
LINE
8
FRONT_HID
6
HIDDEN
10
0.119473
20
0.986049
30
0.0
11
0.118550
21
0.987216
31
0.0
0
LINE
8
FRONT_HID
6
HIDDEN
10
0.118550
20
0.987216
30
0.0
11
0.117643
21
0.988394
31
0.0
0
LINE
8
FRONT_HID
6
HIDDEN
10
0.117643
20
0.988394
30
0.0
11
0.116750
21
0.989584
31
0.0
0
LINE
8
FRONT_HID
6
HIDDEN
10
0.116750
20
0.989584
30
0.0
11
0.115872
21
0.990786
31
0.0
0
LINE
8
FRONT_HID
6
HIDDEN
10
0.115872
20
0.990786
30
0.0
11
0.115010
21
0.991998
31
0.0
0
LINE
8
FRONT_HID
6
HIDDEN
10
0.115010
20
0.991998
30
0.0
11
0.114163
21
0.993221
31
0.0
0
LINE
8
FRONT_HID
6
HIDDEN
10
0.114163
20
0.993221
30
0.0
11
0.113332
21
0.994455
31
0.0
0
LINE
8
FRONT_HID
6
HIDDEN
10
0.113332
20
0.994455
30
0.0
11
0.112517
21
0.995699
31
0.0
0
LINE
8
FRONT_HID
6
HIDDEN
10
0.112517
20
0.995699
30
0.0
11
0.111717
21
0.996954
31
0.0
0
LINE
8
FRONT_HID
6
HIDDEN
10
0.111717
20
0.996954
30
0.0
11
0.110933
21
0.998219
31
0.0
0
LINE
8
FRONT_HID
6
HIDDEN
10
0.110933
20
0.998219
30
0.0
11
0.110166
21
0.999493
31
0.0
0
LINE
8
FRONT_HID
6
HIDDEN
10
0.110166
20
0.999493
30
0.0
11
0.109415
21
1.000777
31
0.0
0
LINE
8
FRONT_HID
6
HIDDEN
10
0.109415
20
1.000777
30
0.0
11
0.108680
21
1.002071
31
0.0
0
LINE
8
FRONT_HID
6
HIDDEN
10
0.108680
20
1.002071
30
0.0
11
0.107961
21
1.003374
31
0.0
0
LINE
8
FRONT_HID
6
HIDDEN
10
0.107961
20
1.003374
30
0.0
11
0.107260
21
1.004685
31
0.0
0
LINE
8
FRONT_HID
6
HIDDEN
10
0.107260
20
1.004685
30
0.0
11
0.106574
21
1.006006
31
0.0
0
LINE
8
FRONT_HID
6
HIDDEN
10
0.106574
20
1.006006
30
0.0
11
0.105906
21
1.007335
31
0.0
0
LINE
8
FRONT_HID
6
HIDDEN
10
0.105906
20
1.007335
30
0.0
11
0.105255
21
1.008673
31
0.0
0
LINE
8
FRONT_HID
6
HIDDEN
10
0.105255
20
1.008673
30
0.0
11
0.104621
21
1.010018
31
0.0
0
LINE
8
FRONT_HID
6
HIDDEN
10
0.104621
20
1.010018
30
0.0
11
0.104003
21
1.011372
31
0.0
0
LINE
8
FRONT_HID
6
HIDDEN
10
0.104003
20
1.011372
30
0.0
11
0.103403
21
1.012733
31
0.0
0
LINE
8
FRONT_HID
6
HIDDEN
10
0.103403
20
1.012733
30
0.0
11
0.102821
21
1.014102
31
0.0
0
LINE
8
FRONT_HID
6
HIDDEN
10
0.102821
20
1.014102
30
0.0
11
0.102256
21
1.015478
31
0.0
0
LINE
8
FRONT_HID
6
HIDDEN
10
0.102256
20
1.015478
30
0.0
11
0.101708
21
1.016862
31
0.0
0
LINE
8
FRONT_HID
6
HIDDEN
10
0.101708
20
1.016862
30
0.0
11
0.101178
21
1.018252
31
0.0
0
LINE
8
FRONT_HID
6
HIDDEN
10
0.101178
20
1.018252
30
0.0
11
0.100665
21
1.019648
31
0.0
0
LINE
8
FRONT_HID
6
HIDDEN
10
0.100665
20
1.019648
30
0.0
11
0.100171
21
1.021052
31
0.0
0
LINE
8
FRONT_HID
6
HIDDEN
10
0.100171
20
1.021052
30
0.0
11
0.099694
21
1.022461
31
0.0
0
LINE
8
FRONT_HID
6
HIDDEN
10
0.099694
20
1.022461
30
0.0
11
0.099235
21
1.023876
31
0.0
0
LINE
8
FRONT_HID
6
HIDDEN
10
0.099235
20
1.023876
30
0.0
11
0.098794
21
1.025297
31
0.0
0
LINE
8
FRONT_HID
6
HIDDEN
10
0.098794
20
1.025297
30
0.0
11
0.098372
21
1.026723
31
0.0
0
LINE
8
FRONT_HID
6
HIDDEN
10
0.098372
20
1.026723
30
0.0
11
0.097967
21
1.028155
31
0.0
0
LINE
8
FRONT_HID
6
HIDDEN
10
0.097967
20
1.028155
30
0.0
11
0.097581
21
1.029592
31
0.0
0
LINE
8
FRONT_HID
6
HIDDEN
10
0.097581
20
1.029592
30
0.0
11
0.097213
21
1.031033
31
0.0
0
LINE
8
FRONT_HID
6
HIDDEN
10
0.097213
20
1.031033
30
0.0
11
0.096863
21
1.032479
31
0.0
0
LINE
8
FRONT_HID
6
HIDDEN
10
0.096863
20
1.032479
30
0.0
11
0.096531
21
1.033929
31
0.0
0
LINE
8
FRONT_HID
6
HIDDEN
10
0.096531
20
1.033929
30
0.0
11
0.096218
21
1.035384
31
0.0
0
LINE
8
FRONT_HID
6
HIDDEN
10
0.096218
20
1.035384
30
0.0
11
0.095924
21
1.036842
31
0.0
0
LINE
8
FRONT_HID
6
HIDDEN
10
0.095924
20
1.036842
30
0.0
11
0.095648
21
1.038304
31
0.0
0
LINE
8
FRONT_HID
6
HIDDEN
10
0.095648
20
1.038304
30
0.0
11
0.095391
21
1.039769
31
0.0
0
LINE
8
FRONT_HID
6
HIDDEN
10
0.095391
20
1.039769
30
0.0
11
0.095152
21
1.041238
31
0.0
0
LINE
8
FRONT_HID
6
HIDDEN
10
0.095152
20
1.041238
30
0.0
11
0.094932
21
1.042709
31
0.0
0
LINE
8
FRONT_HID
6
HIDDEN
10
0.094932
20
1.042709
30
0.0
11
0.094730
21
1.044183
31
0.0
0
LINE
8
FRONT_HID
6
HIDDEN
10
0.094730
20
1.044183
30
0.0
11
0.094548
21
1.045659
31
0.0
0
LINE
8
FRONT_HID
6
HIDDEN
10
0.094548
20
1.045659
30
0.0
11
0.094384
21
1.047138
31
0.0
0
LINE
8
FRONT_HID
6
HIDDEN
10
0.328113
20
1.057628
30
0.0
11
0.328125
21
1.059309
31
0.0
0
LINE
8
FRONT_HID
6
HIDDEN
10
0.093750
20
1.059309
30
0.0
11
0.093762
21
1.057628
31
0.0
0
LINE
8
FRONT_HID
6
HIDDEN
10
0.328125
20
1.363997
30
0.0
11
0.327979
21
1.369838
31
0.0
0
LINE
8
FRONT_HID
6
HIDDEN
10
0.093896
20
1.369838
30
0.0
11
0.093750
21
1.363997
31
0.0
0
LINE
8
LEFT
10
0.941925
20
0.731250
30
0.0
11
0.941925
21
0.520313
31
0.0
0
LINE
8
LEFT
10
0.941925
20
0.942188
30
0.0
11
0.941925
21
0.731250
31
0.0
0
LINE
8
LEFT
10
0.613800
20
0.731250
30
0.0
11
0.613800
21
0.520313
31
0.0
0
LINE
8
LEFT
10
0.613800
20
0.942188
30
0.0
11
0.613800
21
0.731250
31
0.0
0
LINE
8
LEFT
10
0.848175
20
0.967299
30
0.0
11
0.848175
21
0.927121
31
0.0
0
LINE
8
LEFT
10
0.830597
20
1.047204
30
0.0
11
0.830597
21
0.850590
31
0.0
0
LINE
8
LEFT
10
0.777863
20
1.047204
30
0.0
11
0.830597
21
1.047204
31
0.0
0
LINE
8
LEFT
10
0.707550
20
0.967299
30
0.0
11
0.707550
21
0.927121
31
0.0
0
LINE
8
LEFT
10
0.725128
20
1.047204
30
0.0
11
0.725128
21
0.850590
31
0.0
0
LINE
8
LEFT
10
0.777863
20
1.047204
30
0.0
11
0.725128
21
1.047204
31
0.0
0
LINE
8
LEFT
10
0.848175
20
1.059375
30
0.0
11
0.848175
21
0.967299
31
0.0
0
LINE
8
LEFT
10
0.848175
20
1.481250
30
0.0
11
0.848175
21
1.364063
31
0.0
0
LINE
8
LEFT
10
0.848175
20
1.364063
30
0.0
11
0.848175
21
1.059375
31
0.0
0
LINE
8
LEFT
10
0.707550
20
1.059375
30
0.0
11
0.707550
21
0.967299
31
0.0
0
LINE
8
LEFT
10
0.707550
20
1.481250
30
0.0
11
0.707550
21
1.364063
31
0.0
0
LINE
8
LEFT
10
0.707550
20
1.364063
30
0.0
11
0.707550
21
1.059375
31
0.0
0
LINE
8
LEFT
10
0.830597
20
0.927121
30
0.0
11
0.848175
21
0.927121
31
0.0
0
LINE
8
LEFT
10
0.777863
20
0.850590
30
0.0
11
0.830597
21
0.850590
31
0.0
0
LINE
8
LEFT
10
0.777863
20
0.850590
30
0.0
11
0.725128
21
0.850590
31
0.0
0
LINE
8
LEFT
10
0.725128
20
0.927121
30
0.0
11
0.707550
21
0.927121
31
0.0
0
LINE
8
LEFT
10
0.725128
20
0.927121
30
0.0
11
0.707550
21
0.927121
31
0.0
0
LINE
8
LEFT
10
0.830597
20
0.967299
30
0.0
11
0.848175
21
0.967299
31
0.0
0
LINE
8
LEFT
10
0.725128
20
0.967299
30
0.0
11
0.707550
21
0.967299
31
0.0
0
LINE
8
LEFT
10
0.777863
20
1.059375
30
0.0
11
0.848175
21
1.059375
31
0.0
0
LINE
8
LEFT
10
0.777863
20
1.059375
30
0.0
11
0.707550
21
1.059375
31
0.0
0
LINE
8
LEFT
10
0.777863
20
1.364063
30
0.0
11
0.848175
21
1.364063
31
0.0
0
LINE
8
LEFT
10
0.777863
20
1.364063
30
0.0
11
0.707550
21
1.364063
31
0.0
0
LINE
8
LEFT
10
0.941925
20
0.942188
30
0.0
11
0.848175
21
0.942188
31
0.0
0
LINE
8
LEFT
10
0.941925
20
0.520313
30
0.0
11
0.777863
21
0.520313
31
0.0
0
LINE
8
LEFT
10
0.613800
20
0.520313
30
0.0
11
0.777863
21
0.520313
31
0.0
0
LINE
8
LEFT
10
0.613800
20
0.942188
30
0.0
11
0.707550
21
0.942188
31
0.0
0
LINE
8
LEFT
10
0.848175
20
1.481250
30
0.0
11
0.777863
21
1.481250
31
0.0
0
LINE
8
LEFT
10
0.707550
20
1.481250
30
0.0
11
0.777863
21
1.481250
31
0.0
0
LINE
8
LEFT_HID
6
HIDDEN
10
0.830597
20
0.927121
30
0.0
11
0.830597
21
0.850590
31
0.0
0
LINE
8
LEFT_HID
6
HIDDEN
10
0.848175
20
0.942187
30
0.0
11
0.848175
21
0.927121
31
0.0
0
LINE
8
LEFT_HID
6
HIDDEN
10
0.848175
20
0.927121
30
0.0
11
0.848175
21
0.942187
31
0.0
0
LINE
8
LEFT_HID
6
HIDDEN
10
0.830597
20
0.850590
30
0.0
11
0.830597
21
0.927121
31
0.0
0
LINE
8
LEFT_HID
6
HIDDEN
10
0.941925
20
0.520313
30
0.0
11
0.941925
21
0.942188
31
0.0
0
LINE
8
LEFT_HID
6
HIDDEN
10
0.613800
20
0.520313
30
0.0
11
0.613800
21
0.942188
31
0.0
0
LINE
8
LEFT_HID
6
HIDDEN
10
0.725128
20
0.850590
30
0.0
11
0.725128
21
0.927121
31
0.0
0
LINE
8
LEFT_HID
6
HIDDEN
10
0.707550
20
0.927121
30
0.0
11
0.707550
21
0.942187
31
0.0
0
LINE
8
LEFT_HID
6
HIDDEN
10
0.707550
20
0.942187
30
0.0
11
0.707550
21
0.927121
31
0.0
0
LINE
8
LEFT_HID
6
HIDDEN
10
0.725128
20
0.927121
30
0.0
11
0.725128
21
0.850590
31
0.0
0
LINE
8
LEFT_HID
6
HIDDEN
10
0.830597
20
0.967299
30
0.0
11
0.830597
21
0.927121
31
0.0
0
LINE
8
LEFT_HID
6
HIDDEN
10
0.830597
20
1.047204
30
0.0
11
0.830597
21
0.967299
31
0.0
0
LINE
8
LEFT_HID
6
HIDDEN
10
0.848175
20
0.927121
30
0.0
11
0.848175
21
0.967299
31
0.0
0
LINE
8
LEFT_HID
6
HIDDEN
10
0.848175
20
0.942188
30
0.0
11
0.848175
21
0.967299
31
0.0
0
LINE
8
LEFT_HID
6
HIDDEN
10
0.848175
20
0.967299
30
0.0
11
0.848175
21
0.942188
31
0.0
0
LINE
8
LEFT_HID
6
HIDDEN
10
0.830597
20
0.927121
30
0.0
11
0.830597
21
0.967299
31
0.0
0
LINE
8
LEFT_HID
6
HIDDEN
10
0.830597
20
0.967299
30
0.0
11
0.830597
21
1.047204
31
0.0
0
LINE
8
LEFT_HID
6
HIDDEN
10
0.941925
20
0.731250
30
0.0
11
0.941925
21
0.590625
31
0.0
0
LINE
8
LEFT_HID
6
HIDDEN
10
0.941925
20
0.590625
30
0.0
11
0.941925
21
0.871875
31
0.0
0
LINE
8
LEFT_HID
6
HIDDEN
10
0.941925
20
0.871875
30
0.0
11
0.941925
21
0.731250
31
0.0
0
LINE
8
LEFT_HID
6
HIDDEN
10
0.725128
20
0.967299
30
0.0
11
0.725128
21
0.927121
31
0.0
0
LINE
8
LEFT_HID
6
HIDDEN
10
0.725128
20
1.047204
30
0.0
11
0.725128
21
0.967299
31
0.0
0
LINE
8
LEFT_HID
6
HIDDEN
10
0.707550
20
0.927121
30
0.0
11
0.707550
21
0.967299
31
0.0
0
LINE
8
LEFT_HID
6
HIDDEN
10
0.707550
20
0.942188
30
0.0
11
0.707550
21
0.967299
31
0.0
0
LINE
8
LEFT_HID
6
HIDDEN
10
0.707550
20
0.967299
30
0.0
11
0.707550
21
0.942188
31
0.0
0
LINE
8
LEFT_HID
6
HIDDEN
10
0.725128
20
0.927121
30
0.0
11
0.725128
21
0.967299
31
0.0
0
LINE
8
LEFT_HID
6
HIDDEN
10
0.725128
20
0.967299
30
0.0
11
0.725128
21
1.047204
31
0.0
0
LINE
8
LEFT_HID
6
HIDDEN
10
0.613800
20
0.731250
30
0.0
11
0.613800
21
0.590625
31
0.0
0
LINE
8
LEFT_HID
6
HIDDEN
10
0.613800
20
0.590625
30
0.0
11
0.613800
21
0.871875
31
0.0
0
LINE
8
LEFT_HID
6
HIDDEN
10
0.613800
20
0.871875
30
0.0
11
0.613800
21
0.731250
31
0.0
0
LINE
8
LEFT_HID
6
HIDDEN
10
0.848175
20
0.967299
30
0.0
11
0.848175
21
1.059375
31
0.0
0
LINE
8
LEFT_HID
6
HIDDEN
10
0.848175
20
1.364063
30
0.0
11
0.848175
21
1.481250
31
0.0
0
LINE
8
LEFT_HID
6
HIDDEN
10
0.848175
20
1.059375
30
0.0
11
0.848175
21
1.006641
31
0.0
0
LINE
8
LEFT_HID
6
HIDDEN
10
0.848175
20
1.006641
30
0.0
11
0.848175
21
1.059375
31
0.0
0
LINE
8
LEFT_HID
6
HIDDEN
10
0.848175
20
1.364063
30
0.0
11
0.848175
21
1.416797
31
0.0
0
LINE
8
LEFT_HID
6
HIDDEN
10
0.848175
20
1.416797
30
0.0
11
0.848175
21
1.364063
31
0.0
0
LINE
8
LEFT_HID
6
HIDDEN
10
0.707550
20
0.967299
30
0.0
11
0.707550
21
1.059375
31
0.0
0
LINE
8
LEFT_HID
6
HIDDEN
10
0.707550
20
1.364063
30
0.0
11
0.707550
21
1.481250
31
0.0
0
LINE
8
LEFT_HID
6
HIDDEN
10
0.707550
20
1.059375
30
0.0
11
0.707550
21
1.006641
31
0.0
0
LINE
8
LEFT_HID
6
HIDDEN
10
0.707550
20
1.006641
30
0.0
11
0.707550
21
1.059375
31
0.0
0
LINE
8
LEFT_HID
6
HIDDEN
10
0.707550
20
1.364063
30
0.0
11
0.707550
21
1.416797
31
0.0
0
LINE
8
LEFT_HID
6
HIDDEN
10
0.707550
20
1.416797
30
0.0
11
0.707550
21
1.364063
31
0.0
0
LINE
8
LEFT_HID
6
HIDDEN
10
0.941925
20
0.871875
30
0.0
11
0.777863
21
0.871875
31
0.0
0
LINE
8
LEFT_HID
6
HIDDEN
10
0.941925
20
0.590625
30
0.0
11
0.777863
21
0.590625
31
0.0
0
LINE
8
LEFT_HID
6
HIDDEN
10
0.613800
20
0.590625
30
0.0
11
0.777863
21
0.590625
31
0.0
0
LINE
8
LEFT_HID
6
HIDDEN
10
0.613800
20
0.871875
30
0.0
11
0.777863
21
0.871875
31
0.0
0
LINE
8
LEFT_HID
6
HIDDEN
10
0.848175
20
1.006641
30
0.0
11
0.777863
21
1.006641
31
0.0
0
LINE
8
LEFT_HID
6
HIDDEN
10
0.848175
20
1.416797
30
0.0
11
0.777863
21
1.416797
31
0.0
0
LINE
8
LEFT_HID
6
HIDDEN
10
0.707550
20
1.006641
30
0.0
11
0.777863
21
1.006641
31
0.0
0
LINE
8
LEFT_HID
6
HIDDEN
10
0.707550
20
1.416797
30
0.0
11
0.777863
21
1.416797
31
0.0
0
LINE
8
TOP
10
0.000000
20
0.164062
30
0.0
11
0.000000
21
0.000000
31
0.0
0
LINE
8
TOP
10
0.421875
20
0.000000
30
0.0
11
0.000000
21
0.000000
31
0.0
0
LINE
8
TOP
10
0.000000
20
0.164062
30
0.0
11
0.000000
21
0.328125
31
0.0
0
LINE
8
TOP
10
0.421875
20
0.328125
30
0.0
11
0.000000
21
0.328125
31
0.0
0
LINE
8
TOP
10
0.384870
20
0.111328
30
0.0
11
0.328125
21
0.111328
31
0.0
0
LINE
8
TOP
10
0.093750
20
0.111328
30
0.0
11
0.037005
21
0.111328
31
0.0
0
LINE
8
TOP
10
0.384870
20
0.216797
30
0.0
11
0.328125
21
0.216797
31
0.0
0
LINE
8
TOP
10
0.093750
20
0.216797
30
0.0
11
0.037005
21
0.216797
31
0.0
0
LINE
8
TOP
10
0.328125
20
0.093750
30
0.0
11
0.093750
21
0.093750
31
0.0
0
LINE
8
TOP
10
0.328125
20
0.234375
30
0.0
11
0.093750
21
0.234375
31
0.0
0
LINE
8
TOP
10
0.328125
20
0.164063
30
0.0
11
0.328125
21
0.093750
31
0.0
0
LINE
8
TOP
10
0.093750
20
0.164063
30
0.0
11
0.093750
21
0.093750
31
0.0
0
LINE
8
TOP
10
0.328125
20
0.164063
30
0.0
11
0.328125
21
0.234375
31
0.0
0
LINE
8
TOP
10
0.093750
20
0.164063
30
0.0
11
0.093750
21
0.234375
31
0.0
0
LINE
8
TOP
10
0.384870
20
0.164063
30
0.0
11
0.384870
21
0.111328
31
0.0
0
LINE
8
TOP
10
0.037005
20
0.164063
30
0.0
11
0.037005
21
0.111328
31
0.0
0
LINE
8
TOP
10
0.037005
20
0.164063
30
0.0
11
0.037005
21
0.216797
31
0.0
0
LINE
8
TOP
10
0.384870
20
0.164063
30
0.0
11
0.384870
21
0.216797
31
0.0
0
LINE
8
TOP
10
0.421875
20
0.000000
30
0.0
11
0.421875
21
0.164063
31
0.0
0
LINE
8
TOP
10
0.421875
20
0.328125
30
0.0
11
0.421875
21
0.164063
31
0.0
0
LINE
8
TOP_HID
6
HIDDEN
10
0.289228
20
0.111328
30
0.0
11
0.384870
21
0.111328
31
0.0
0
LINE
8
TOP_HID
6
HIDDEN
10
0.210938
20
0.093750
30
0.0
11
0.289228
21
0.093750
31
0.0
0
LINE
8
TOP_HID
6
HIDDEN
10
0.132647
20
0.093750
30
0.0
11
0.210938
21
0.093750
31
0.0
0
LINE
8
TOP_HID
6
HIDDEN
10
0.037005
20
0.111328
30
0.0
11
0.132647
21
0.111328
31
0.0
0
LINE
8
TOP_HID
6
HIDDEN
10
0.037005
20
0.216797
30
0.0
11
0.132647
21
0.216797
31
0.0
0
LINE
8
TOP_HID
6
HIDDEN
10
0.132647
20
0.234375
30
0.0
11
0.210938
21
0.234375
31
0.0
0
LINE
8
TOP_HID
6
HIDDEN
10
0.210938
20
0.234375
30
0.0
11
0.289228
21
0.234375
31
0.0
0
LINE
8
TOP_HID
6
HIDDEN
10
0.289228
20
0.216797
30
0.0
11
0.384870
21
0.216797
31
0.0
0
LINE
8
TOP_HID
6
HIDDEN
10
0.328125
20
0.111328
30
0.0
11
0.327308
21
0.111328
31
0.0
0
LINE
8
TOP_HID
6
HIDDEN
10
0.327308
20
0.111328
30
0.0
11
0.327491
21
0.111328
31
0.0
0
LINE
8
TOP_HID
6
HIDDEN
10
0.327491
20
0.164063
30
0.0
11
0.327491
21
0.111328
31
0.0
0
LINE
8
TOP_HID
6
HIDDEN
10
0.283428
20
0.111328
30
0.0
11
0.274489
21
0.111328
31
0.0
0
LINE
8
TOP_HID
6
HIDDEN
10
0.274489
20
0.111328
30
0.0
11
0.289228
21
0.111328
31
0.0
0
LINE
8
TOP_HID
6
HIDDEN
10
0.327491
20
0.111328
30
0.0
11
0.283428
21
0.111328
31
0.0
0
LINE
8
TOP_HID
6
HIDDEN
10
0.289228
20
0.093750
30
0.0
11
0.274489
21
0.093750
31
0.0
0
LINE
8
TOP_HID
6
HIDDEN
10
0.274489
20
0.093750
30
0.0
11
0.283428
21
0.093750
31
0.0
0
LINE
8
TOP_HID
6
HIDDEN
10
0.210938
20
0.093750
30
0.0
11
0.283428
21
0.093750
31
0.0
0
LINE
8
TOP_HID
6
HIDDEN
10
0.138447
20
0.093750
30
0.0
11
0.210938
21
0.093750
31
0.0
0
LINE
8
TOP_HID
6
HIDDEN
10
0.138447
20
0.093750
30
0.0
11
0.147386
21
0.093750
31
0.0
0
LINE
8
TOP_HID
6
HIDDEN
10
0.147386
20
0.093750
30
0.0
11
0.132647
21
0.093750
31
0.0
0
LINE
8
TOP_HID
6
HIDDEN
10
0.132647
20
0.111328
30
0.0
11
0.147386
21
0.111328
31
0.0
0
LINE
8
TOP_HID
6
HIDDEN
10
0.147386
20
0.111328
30
0.0
11
0.138447
21
0.111328
31
0.0
0
LINE
8
TOP_HID
6
HIDDEN
10
0.138447
20
0.111328
30
0.0
11
0.094384
21
0.111328
31
0.0
0
LINE
8
TOP_HID
6
HIDDEN
10
0.094384
20
0.111328
30
0.0
11
0.094567
21
0.111328
31
0.0
0
LINE
8
TOP_HID
6
HIDDEN
10
0.094567
20
0.111328
30
0.0
11
0.093750
21
0.111328
31
0.0
0
LINE
8
TOP_HID
6
HIDDEN
10
0.094384
20
0.164063
30
0.0
11
0.094384
21
0.111328
31
0.0
0
LINE
8
TOP_HID
6
HIDDEN
10
0.070313
20
0.000000
30
0.0
11
0.351563
21
0.000000
31
0.0
0
LINE
8
TOP_HID
6
HIDDEN
10
0.351563
20
0.000000
30
0.0
11
0.070313
21
0.000000
31
0.0
0
LINE
8
TOP_HID
6
HIDDEN
10
0.327491
20
0.164063
30
0.0
11
0.327491
21
0.216797
31
0.0
0
LINE
8
TOP_HID
6
HIDDEN
10
0.328125
20
0.216797
30
0.0
11
0.327308
21
0.216797
31
0.0
0
LINE
8
TOP_HID
6
HIDDEN
10
0.327308
20
0.216797
30
0.0
11
0.327491
21
0.216797
31
0.0
0
LINE
8
TOP_HID
6
HIDDEN
10
0.283428
20
0.216797
30
0.0
11
0.274489
21
0.216797
31
0.0
0
LINE
8
TOP_HID
6
HIDDEN
10
0.274489
20
0.216797
30
0.0
11
0.289228
21
0.216797
31
0.0
0
LINE
8
TOP_HID
6
HIDDEN
10
0.327491
20
0.216797
30
0.0
11
0.283428
21
0.216797
31
0.0
0
LINE
8
TOP_HID
6
HIDDEN
10
0.289228
20
0.234375
30
0.0
11
0.274489
21
0.234375
31
0.0
0
LINE
8
TOP_HID
6
HIDDEN
10
0.274489
20
0.234375
30
0.0
11
0.283428
21
0.234375
31
0.0
0
LINE
8
TOP_HID
6
HIDDEN
10
0.210938
20
0.234375
30
0.0
11
0.283428
21
0.234375
31
0.0
0
LINE
8
TOP_HID
6
HIDDEN
10
0.138447
20
0.234375
30
0.0
11
0.210938
21
0.234375
31
0.0
0
LINE
8
TOP_HID
6
HIDDEN
10
0.138447
20
0.234375
30
0.0
11
0.147386
21
0.234375
31
0.0
0
LINE
8
TOP_HID
6
HIDDEN
10
0.147386
20
0.234375
30
0.0
11
0.132647
21
0.234375
31
0.0
0
LINE
8
TOP_HID
6
HIDDEN
10
0.132647
20
0.216797
30
0.0
11
0.147386
21
0.216797
31
0.0
0
LINE
8
TOP_HID
6
HIDDEN
10
0.147386
20
0.216797
30
0.0
11
0.138447
21
0.216797
31
0.0
0
LINE
8
TOP_HID
6
HIDDEN
10
0.138447
20
0.216797
30
0.0
11
0.094384
21
0.216797
31
0.0
0
LINE
8
TOP_HID
6
HIDDEN
10
0.094384
20
0.216797
30
0.0
11
0.094567
21
0.216797
31
0.0
0
LINE
8
TOP_HID
6
HIDDEN
10
0.094567
20
0.216797
30
0.0
11
0.093750
21
0.216797
31
0.0
0
LINE
8
TOP_HID
6
HIDDEN
10
0.094384
20
0.164063
30
0.0
11
0.094384
21
0.216797
31
0.0
0
LINE
8
TOP_HID
6
HIDDEN
10
0.070312
20
0.328125
30
0.0
11
0.351562
21
0.328125
31
0.0
0
LINE
8
TOP_HID
6
HIDDEN
10
0.351562
20
0.328125
30
0.0
11
0.070312
21
0.328125
31
0.0
0
LINE
8
TOP_HID
6
HIDDEN
10
0.283428
20
0.093750
30
0.0
11
0.328125
21
0.093750
31
0.0
0
LINE
8
TOP_HID
6
HIDDEN
10
0.093750
20
0.093750
30
0.0
11
0.138447
21
0.093750
31
0.0
0
LINE
8
TOP_HID
6
HIDDEN
10
0.158203
20
0.093750
30
0.0
11
0.263672
21
0.093750
31
0.0
0
LINE
8
TOP_HID
6
HIDDEN
10
0.263672
20
0.093750
30
0.0
11
0.158203
21
0.093750
31
0.0
0
LINE
8
TOP_HID
6
HIDDEN
10
0.070313
20
0.164063
30
0.0
11
0.070313
21
0.000000
31
0.0
0
LINE
8
TOP_HID
6
HIDDEN
10
0.283428
20
0.234375
30
0.0
11
0.328125
21
0.234375
31
0.0
0
LINE
8
TOP_HID
6
HIDDEN
10
0.093750
20
0.234375
30
0.0
11
0.138447
21
0.234375
31
0.0
0
LINE
8
TOP_HID
6
HIDDEN
10
0.158203
20
0.234375
30
0.0
11
0.263672
21
0.234375
31
0.0
0
LINE
8
TOP_HID
6
HIDDEN
10
0.263672
20
0.234375
30
0.0
11
0.158203
21
0.234375
31
0.0
0
LINE
8
TOP_HID
6
HIDDEN
10
0.070313
20
0.164063
30
0.0
11
0.070313
21
0.328125
31
0.0
0
LINE
8
TOP_HID
6
HIDDEN
10
0.263672
20
0.164063
30
0.0
11
0.263672
21
0.093750
31
0.0
0
LINE
8
TOP_HID
6
HIDDEN
10
0.158203
20
0.164063
30
0.0
11
0.158203
21
0.093750
31
0.0
0
LINE
8
TOP_HID
6
HIDDEN
10
0.263672
20
0.164063
30
0.0
11
0.263672
21
0.093750
31
0.0
0
LINE
8
TOP_HID
6
HIDDEN
10
0.158203
20
0.164063
30
0.0
11
0.158203
21
0.093750
31
0.0
0
LINE
8
TOP_HID
6
HIDDEN
10
0.158203
20
0.164063
30
0.0
11
0.158203
21
0.234375
31
0.0
0
LINE
8
TOP_HID
6
HIDDEN
10
0.263672
20
0.164063
30
0.0
11
0.263672
21
0.234375
31
0.0
0
LINE
8
TOP_HID
6
HIDDEN
10
0.263672
20
0.164063
30
0.0
11
0.263672
21
0.234375
31
0.0
0
LINE
8
TOP_HID
6
HIDDEN
10
0.158203
20
0.164063
30
0.0
11
0.158203
21
0.234375
31
0.0
0
LINE
8
TOP_HID
6
HIDDEN
10
0.289228
20
0.111328
30
0.0
11
0.289228
21
0.093750
31
0.0
0
LINE
8
TOP_HID
6
HIDDEN
10
0.132647
20
0.111328
30
0.0
11
0.132647
21
0.093750
31
0.0
0
LINE
8
TOP_HID
6
HIDDEN
10
0.132647
20
0.216797
30
0.0
11
0.132647
21
0.234375
31
0.0
0
LINE
8
TOP_HID
6
HIDDEN
10
0.289228
20
0.216797
30
0.0
11
0.289228
21
0.234375
31
0.0
0
LINE
8
TOP_HID
6
HIDDEN
10
0.283428
20
0.111328
30
0.0
11
0.283428
21
0.093750
31
0.0
0
LINE
8
TOP_HID
6
HIDDEN
10
0.138447
20
0.111328
30
0.0
11
0.138447
21
0.093750
31
0.0
0
LINE
8
TOP_HID
6
HIDDEN
10
0.283428
20
0.216797
30
0.0
11
0.283428
21
0.234375
31
0.0
0
LINE
8
TOP_HID
6
HIDDEN
10
0.138447
20
0.216797
30
0.0
11
0.138447
21
0.234375
31
0.0
0
LINE
8
TOP_HID
6
HIDDEN
10
0.327308
20
0.111328
30
0.0
11
0.327308
21
0.164063
31
0.0
0
LINE
8
TOP_HID
6
HIDDEN
10
0.274489
20
0.093750
30
0.0
11
0.274489
21
0.111328
31
0.0
0
LINE
8
TOP_HID
6
HIDDEN
10
0.147386
20
0.093750
30
0.0
11
0.147386
21
0.111328
31
0.0
0
LINE
8
TOP_HID
6
HIDDEN
10
0.094567
20
0.111328
30
0.0
11
0.094567
21
0.164063
31
0.0
0
LINE
8
TOP_HID
6
HIDDEN
10
0.327308
20
0.216797
30
0.0
11
0.327308
21
0.164063
31
0.0
0
LINE
8
TOP_HID
6
HIDDEN
10
0.274489
20
0.234375
30
0.0
11
0.274489
21
0.216797
31
0.0
0
LINE
8
TOP_HID
6
HIDDEN
10
0.147386
20
0.234375
30
0.0
11
0.147386
21
0.216797
31
0.0
0
LINE
8
TOP_HID
6
HIDDEN
10
0.094567
20
0.216797
30
0.0
11
0.094567
21
0.164063
31
0.0
0
LINE
8
TOP_HID
6
HIDDEN
10
0.351563
20
0.000000
30
0.0
11
0.351563
21
0.164063
31
0.0
0
LINE
8
TOP_HID
6
HIDDEN
10
0.351562
20
0.328125
30
0.0
11
0.351563
21
0.164063
31
0.0
0
ENDSEC
0
EOF
