0
SECTION
2
HEADER
9
$ACADVER
1
AC1009
0
ENDSEC
0
SECTION
2
TABLES
0
TABLE
2
LTYPE
70
3
0
LTYPE
2
CONTINUOUS
70
0
3
Solid line
72
65
73
0
40
0.0
0
LTYPE
2
HIDDEN
70
0
3
__ __ __ __ __
72
65
73
2
40
0.021664
49
0.014450
49
-0.007214
0
LTYPE
2
CENTER
70
0
3
___ _ ___ _ ___
72
65
73
4
40
0.050543
49
0.028878
49
-0.007214
49
0.007214
49
-0.007214
0
ENDTAB
0
TABLE
2
LAYER
70
7
0
LAYER
2
0
70
0
62
7
6
CONTINUOUS
0
LAYER
2
FRONT
70
0
62
7
6
CONTINUOUS
0
LAYER
2
FRONT_HID
70
0
62
7
6
HIDDEN
0
LAYER
2
LEFT
70
0
62
7
6
CONTINUOUS
0
LAYER
2
LEFT_HID
70
0
62
7
6
HIDDEN
0
LAYER
2
TOP
70
0
62
7
6
CONTINUOUS
0
LAYER
2
TOP_HID
70
0
62
7
6
HIDDEN
0
ENDTAB
0
ENDSEC
0
SECTION
2
ENTITIES
0
LINE
8
FRONT
10
0.000000
20
0.176758
30
0.0
11
0.000000
21
0.393401
31
0.0
0
LINE
8
FRONT
10
0.433285
20
0.176758
30
0.0
11
0.000000
21
0.176758
31
0.0
0
LINE
8
FRONT
10
0.433285
20
0.393401
30
0.0
11
0.000000
21
0.393401
31
0.0
0
LINE
8
FRONT
10
0.433285
20
0.176758
30
0.0
11
0.433285
21
0.393401
31
0.0
0
LINE
8
FRONT
10
0.239751
20
0.285080
30
0.0
11
0.239636
21
0.282779
31
0.0
0
LINE
8
FRONT
10
0.239636
20
0.282779
30
0.0
11
0.239293
21
0.280501
31
0.0
0
LINE
8
FRONT
10
0.239293
20
0.280501
30
0.0
11
0.238724
21
0.278268
31
0.0
0
LINE
8
FRONT
10
0.238724
20
0.278268
30
0.0
11
0.237936
21
0.276103
31
0.0
0
LINE
8
FRONT
10
0.237936
20
0.276103
30
0.0
11
0.236937
21
0.274028
31
0.0
0
LINE
8
FRONT
10
0.236937
20
0.274028
30
0.0
11
0.235735
21
0.272062
31
0.0
0
LINE
8
FRONT
10
0.235735
20
0.272062
30
0.0
11
0.234344
21
0.270226
31
0.0
0
LINE
8
FRONT
10
0.234344
20
0.270226
30
0.0
11
0.232778
21
0.268537
31
0.0
0
LINE
8
FRONT
10
0.232778
20
0.268537
30
0.0
11
0.231050
21
0.267013
31
0.0
0
LINE
8
FRONT
10
0.231050
20
0.267013
30
0.0
11
0.229180
21
0.265668
31
0.0
0
LINE
8
FRONT
10
0.229180
20
0.265668
30
0.0
11
0.227185
21
0.264516
31
0.0
0
LINE
8
FRONT
10
0.227185
20
0.264516
30
0.0
11
0.225085
21
0.263569
31
0.0
0
LINE
8
FRONT
10
0.225085
20
0.263569
30
0.0
11
0.222901
21
0.262835
31
0.0
0
LINE
8
FRONT
10
0.222901
20
0.262835
30
0.0
11
0.220655
21
0.262322
31
0.0
0
LINE
8
FRONT
10
0.220655
20
0.262322
30
0.0
11
0.218369
21
0.262036
31
0.0
0
LINE
8
FRONT
10
0.218369
20
0.262036
30
0.0
11
0.216066
21
0.261978
31
0.0
0
LINE
8
FRONT
10
0.216066
20
0.261978
30
0.0
11
0.213769
21
0.262150
31
0.0
0
LINE
8
FRONT
10
0.213769
20
0.262150
30
0.0
11
0.211500
21
0.262551
31
0.0
0
LINE
8
FRONT
10
0.211500
20
0.262551
30
0.0
11
0.209283
21
0.263174
31
0.0
0
LINE
8
FRONT
10
0.209283
20
0.263174
30
0.0
11
0.207138
21
0.264016
31
0.0
0
LINE
8
FRONT
10
0.207138
20
0.264016
30
0.0
11
0.205088
21
0.265067
31
0.0
0
LINE
8
FRONT
10
0.205088
20
0.265067
30
0.0
11
0.203153
21
0.266317
31
0.0
0
LINE
8
FRONT
10
0.203153
20
0.266317
30
0.0
11
0.201352
21
0.267753
31
0.0
0
LINE
8
FRONT
10
0.201352
20
0.267753
30
0.0
11
0.199703
21
0.269362
31
0.0
0
LINE
8
FRONT
10
0.199703
20
0.269362
30
0.0
11
0.198222
21
0.271127
31
0.0
0
LINE
8
FRONT
10
0.198222
20
0.271127
30
0.0
11
0.196924
21
0.273030
31
0.0
0
LINE
8
FRONT
10
0.196924
20
0.273030
30
0.0
11
0.195822
21
0.275053
31
0.0
0
LINE
8
FRONT
10
0.195822
20
0.275053
30
0.0
11
0.194927
21
0.277176
31
0.0
0
LINE
8
FRONT
10
0.194927
20
0.277176
30
0.0
11
0.194248
21
0.279377
31
0.0
0
LINE
8
FRONT
10
0.194248
20
0.279377
30
0.0
11
0.193792
21
0.281635
31
0.0
0
LINE
8
FRONT
10
0.193792
20
0.281635
30
0.0
11
0.193563
21
0.283928
31
0.0
0
LINE
8
FRONT
10
0.193563
20
0.283928
30
0.0
11
0.193563
21
0.286232
31
0.0
0
LINE
8
FRONT
10
0.193563
20
0.286232
30
0.0
11
0.193792
21
0.288524
31
0.0
0
LINE
8
FRONT
10
0.193792
20
0.288524
30
0.0
11
0.194248
21
0.290782
31
0.0
0
LINE
8
FRONT
10
0.194248
20
0.290782
30
0.0
11
0.194927
21
0.292983
31
0.0
0
LINE
8
FRONT
10
0.194927
20
0.292983
30
0.0
11
0.195822
21
0.295106
31
0.0
0
LINE
8
FRONT
10
0.195822
20
0.295106
30
0.0
11
0.196924
21
0.297129
31
0.0
0
LINE
8
FRONT
10
0.196924
20
0.297129
30
0.0
11
0.198222
21
0.299033
31
0.0
0
LINE
8
FRONT
10
0.198222
20
0.299033
30
0.0
11
0.199703
21
0.300797
31
0.0
0
LINE
8
FRONT
10
0.199703
20
0.300797
30
0.0
11
0.201352
21
0.302406
31
0.0
0
LINE
8
FRONT
10
0.201352
20
0.302406
30
0.0
11
0.203153
21
0.303842
31
0.0
0
LINE
8
FRONT
10
0.203153
20
0.303842
30
0.0
11
0.205088
21
0.305092
31
0.0
0
LINE
8
FRONT
10
0.205088
20
0.305092
30
0.0
11
0.207138
21
0.306143
31
0.0
0
LINE
8
FRONT
10
0.207138
20
0.306143
30
0.0
11
0.209283
21
0.306985
31
0.0
0
LINE
8
FRONT
10
0.209283
20
0.306985
30
0.0
11
0.211500
21
0.307609
31
0.0
0
LINE
8
FRONT
10
0.211500
20
0.307609
30
0.0
11
0.213769
21
0.308009
31
0.0
0
LINE
8
FRONT
10
0.213769
20
0.308009
30
0.0
11
0.216066
21
0.308181
31
0.0
0
LINE
8
FRONT
10
0.216066
20
0.308181
30
0.0
11
0.218369
21
0.308124
31
0.0
0
LINE
8
FRONT
10
0.218369
20
0.308124
30
0.0
11
0.220655
21
0.307837
31
0.0
0
LINE
8
FRONT
10
0.220655
20
0.307837
30
0.0
11
0.222901
21
0.307324
31
0.0
0
LINE
8
FRONT
10
0.222901
20
0.307324
30
0.0
11
0.225085
21
0.306591
31
0.0
0
LINE
8
FRONT
10
0.225085
20
0.306591
30
0.0
11
0.227185
21
0.305643
31
0.0
0
LINE
8
FRONT
10
0.227185
20
0.305643
30
0.0
11
0.229180
21
0.304491
31
0.0
0
LINE
8
FRONT
10
0.229180
20
0.304491
30
0.0
11
0.231050
21
0.303147
31
0.0
0
LINE
8
FRONT
10
0.231050
20
0.303147
30
0.0
11
0.232778
21
0.301622
31
0.0
0
LINE
8
FRONT
10
0.232778
20
0.301622
30
0.0
11
0.234344
21
0.299934
31
0.0
0
LINE
8
FRONT
10
0.234344
20
0.299934
30
0.0
11
0.235735
21
0.298097
31
0.0
0
LINE
8
FRONT
10
0.235735
20
0.298097
30
0.0
11
0.236937
21
0.296131
31
0.0
0
LINE
8
FRONT
10
0.236937
20
0.296131
30
0.0
11
0.237936
21
0.294056
31
0.0
0
LINE
8
FRONT
10
0.237936
20
0.294056
30
0.0
11
0.238724
21
0.291891
31
0.0
0
LINE
8
FRONT
10
0.238724
20
0.291891
30
0.0
11
0.239293
21
0.289659
31
0.0
0
LINE
8
FRONT
10
0.239293
20
0.289659
30
0.0
11
0.239636
21
0.287381
31
0.0
0
LINE
8
FRONT
10
0.239636
20
0.287381
30
0.0
11
0.239751
21
0.285080
31
0.0
0
LINE
8
FRONT_HID
6
HIDDEN
10
0.000000
20
0.393401
30
0.0
11
0.064689
21
0.393401
31
0.0
0
LINE
8
FRONT_HID
6
HIDDEN
10
0.064689
20
0.176758
30
0.0
11
0.064689
21
0.393401
31
0.0
0
LINE
8
FRONT_HID
6
HIDDEN
10
0.000000
20
0.176758
30
0.0
11
0.064689
21
0.176758
31
0.0
0
LINE
8
FRONT_HID
6
HIDDEN
10
0.064689
20
0.393401
30
0.0
11
0.151954
21
0.393401
31
0.0
0
LINE
8
FRONT_HID
6
HIDDEN
10
0.151954
20
0.176758
30
0.0
11
0.151954
21
0.393401
31
0.0
0
LINE
8
FRONT_HID
6
HIDDEN
10
0.064689
20
0.176758
30
0.0
11
0.151954
21
0.176758
31
0.0
0
LINE
8
FRONT_HID
6
HIDDEN
10
0.151954
20
0.176758
30
0.0
11
0.281331
21
0.176758
31
0.0
0
LINE
8
FRONT_HID
6
HIDDEN
10
0.281331
20
0.176758
30
0.0
11
0.368596
21
0.176758
31
0.0
0
LINE
8
FRONT_HID
6
HIDDEN
10
0.368596
20
0.176758
30
0.0
11
0.433285
21
0.176758
31
0.0
0
LINE
8
FRONT_HID
6
HIDDEN
10
0.151954
20
0.393401
30
0.0
11
0.281331
21
0.393401
31
0.0
0
LINE
8
FRONT_HID
6
HIDDEN
10
0.281331
20
0.393401
30
0.0
11
0.368596
21
0.393401
31
0.0
0
LINE
8
FRONT_HID
6
HIDDEN
10
0.368596
20
0.393401
30
0.0
11
0.433285
21
0.393401
31
0.0
0
LINE
8
FRONT_HID
6
HIDDEN
10
0.281331
20
0.176758
30
0.0
11
0.281331
21
0.393401
31
0.0
0
LINE
8
FRONT_HID
6
HIDDEN
10
0.368596
20
0.176758
30
0.0
11
0.368596
21
0.393401
31
0.0
0
LINE
8
LEFT
10
0.610043
20
0.176758
30
0.0
11
0.610043
21
0.393401
31
0.0
0
LINE
8
LEFT
10
0.519942
20
0.176758
30
0.0
11
0.519942
21
0.393401
31
0.0
0
LINE
8
LEFT
10
0.519942
20
0.393401
30
0.0
11
0.610043
21
0.393401
31
0.0
0
LINE
8
LEFT
10
0.519942
20
0.176758
30
0.0
11
0.610043
21
0.176758
31
0.0
0
LINE
8
LEFT_HID
6
HIDDEN
10
0.610043
20
0.393401
30
0.0
11
0.580979
21
0.393401
31
0.0
0
LINE
8
LEFT_HID
6
HIDDEN
10
0.580979
20
0.393401
30
0.0
11
0.610043
21
0.393401
31
0.0
0
LINE
8
LEFT_HID
6
HIDDEN
10
0.610043
20
0.176758
30
0.0
11
0.580979
21
0.176758
31
0.0
0
LINE
8
LEFT_HID
6
HIDDEN
10
0.580979
20
0.176758
30
0.0
11
0.610043
21
0.176758
31
0.0
0
LINE
8
LEFT_HID
6
HIDDEN
10
0.610043
20
0.176758
30
0.0
11
0.580979
21
0.176758
31
0.0
0
LINE
8
LEFT_HID
6
HIDDEN
10
0.580979
20
0.176758
30
0.0
11
0.610043
21
0.176758
31
0.0
0
LINE
8
LEFT_HID
6
HIDDEN
10
0.610043
20
0.393401
30
0.0
11
0.580979
21
0.393401
31
0.0
0
LINE
8
LEFT_HID
6
HIDDEN
10
0.580979
20
0.393401
30
0.0
11
0.610043
21
0.393401
31
0.0
0
LINE
8
LEFT_HID
6
HIDDEN
10
0.519942
20
0.285080
30
0.0
11
0.519942
21
0.261971
31
0.0
0
LINE
8
LEFT_HID
6
HIDDEN
10
0.519942
20
0.261971
30
0.0
11
0.519942
21
0.308188
31
0.0
0
LINE
8
LEFT_HID
6
HIDDEN
10
0.519942
20
0.308188
30
0.0
11
0.519942
21
0.285080
31
0.0
0
LINE
8
LEFT_HID
6
HIDDEN
10
0.610043
20
0.285080
30
0.0
11
0.610043
21
0.261971
31
0.0
0
LINE
8
LEFT_HID
6
HIDDEN
10
0.610043
20
0.261971
30
0.0
11
0.610043
21
0.308188
31
0.0
0
LINE
8
LEFT_HID
6
HIDDEN
10
0.610043
20
0.308188
30
0.0
11
0.610043
21
0.285080
31
0.0
0
LINE
8
LEFT_HID
6
HIDDEN
10
0.580979
20
0.393401
30
0.0
11
0.580979
21
0.176758
31
0.0
0
LINE
8
LEFT_HID
6
HIDDEN
10
0.580979
20
0.393401
30
0.0
11
0.580979
21
0.176758
31
0.0
0
LINE
8
LEFT_HID
6
HIDDEN
10
0.610043
20
0.308188
30
0.0
11
0.519942
21
0.308188
31
0.0
0
LINE
8
LEFT_HID
6
HIDDEN
10
0.610043
20
0.261971
30
0.0
11
0.519942
21
0.261971
31
0.0
0
LINE
8
TOP
10
0.000000
20
0.000000
30
0.0
11
0.064689
21
0.000000
31
0.0
0
LINE
8
TOP
10
0.000000
20
0.090102
30
0.0
11
0.000000
21
0.000000
31
0.0
0
LINE
8
TOP
10
0.064689
20
0.000000
30
0.0
11
0.065399
21
0.001615
31
0.0
0
LINE
8
TOP
10
0.065399
20
0.001615
30
0.0
11
0.066168
21
0.003202
31
0.0
0
LINE
8
TOP
10
0.066168
20
0.003202
30
0.0
11
0.066997
21
0.004759
31
0.0
0
LINE
8
TOP
10
0.066997
20
0.004759
30
0.0
11
0.067883
21
0.006285
31
0.0
0
LINE
8
TOP
10
0.067883
20
0.006285
30
0.0
11
0.068825
21
0.007776
31
0.0
0
LINE
8
TOP
10
0.068825
20
0.007776
30
0.0
11
0.069822
21
0.009231
31
0.0
0
LINE
8
TOP
10
0.069822
20
0.009231
30
0.0
11
0.070873
21
0.010648
31
0.0
0
LINE
8
TOP
10
0.070873
20
0.010648
30
0.0
11
0.071976
21
0.012025
31
0.0
0
LINE
8
TOP
10
0.071976
20
0.012025
30
0.0
11
0.073129
21
0.013360
31
0.0
0
LINE
8
TOP
10
0.073129
20
0.013360
30
0.0
11
0.074331
21
0.014650
31
0.0
0
LINE
8
TOP
10
0.074331
20
0.014650
30
0.0
11
0.075581
21
0.015895
31
0.0
0
LINE
8
TOP
10
0.075581
20
0.015895
30
0.0
11
0.076876
21
0.017093
31
0.0
0
LINE
8
TOP
10
0.076876
20
0.017093
30
0.0
11
0.078216
21
0.018241
31
0.0
0
LINE
8
TOP
10
0.078216
20
0.018241
30
0.0
11
0.079596
21
0.019339
31
0.0
0
LINE
8
TOP
10
0.079596
20
0.019339
30
0.0
11
0.081017
21
0.020384
31
0.0
0
LINE
8
TOP
10
0.081017
20
0.020384
30
0.0
11
0.082476
21
0.021376
31
0.0
0
LINE
8
TOP
10
0.082476
20
0.021376
30
0.0
11
0.083971
21
0.022312
31
0.0
0
LINE
8
TOP
10
0.083971
20
0.022312
30
0.0
11
0.085500
21
0.023192
31
0.0
0
LINE
8
TOP
10
0.085500
20
0.023192
30
0.0
11
0.087061
21
0.024014
31
0.0
0
LINE
8
TOP
10
0.087061
20
0.024014
30
0.0
11
0.088651
21
0.024778
31
0.0
0
LINE
8
TOP
10
0.088651
20
0.024778
30
0.0
11
0.090268
21
0.025482
31
0.0
0
LINE
8
TOP
10
0.090268
20
0.025482
30
0.0
11
0.091911
21
0.026125
31
0.0
0
LINE
8
TOP
10
0.091911
20
0.026125
30
0.0
11
0.093576
21
0.026706
31
0.0
0
LINE
8
TOP
10
0.093576
20
0.026706
30
0.0
11
0.095262
21
0.027225
31
0.0
0
LINE
8
TOP
10
0.095262
20
0.027225
30
0.0
11
0.096967
21
0.027680
31
0.0
0
LINE
8
TOP
10
0.096967
20
0.027680
30
0.0
11
0.098687
21
0.028072
31
0.0
0
LINE
8
TOP
10
0.098687
20
0.028072
30
0.0
11
0.100420
21
0.028399
31
0.0
0
LINE
8
TOP
10
0.100420
20
0.028399
30
0.0
11
0.102164
21
0.028661
31
0.0
0
LINE
8
TOP
10
0.102164
20
0.028661
30
0.0
11
0.103917
21
0.028858
31
0.0
0
LINE
8
TOP
10
0.103917
20
0.028858
30
0.0
11
0.105676
21
0.028990
31
0.0
0
LINE
8
TOP
10
0.105676
20
0.028990
30
0.0
11
0.107439
21
0.029056
31
0.0
0
LINE
8
TOP
10
0.107439
20
0.029056
30
0.0
11
0.109203
21
0.029056
31
0.0
0
LINE
8
TOP
10
0.109203
20
0.029056
30
0.0
11
0.110966
21
0.028990
31
0.0
0
LINE
8
TOP
10
0.110966
20
0.028990
30
0.0
11
0.112725
21
0.028858
31
0.0
0
LINE
8
TOP
10
0.112725
20
0.028858
30
0.0
11
0.114478
21
0.028661
31
0.0
0
LINE
8
TOP
10
0.114478
20
0.028661
30
0.0
11
0.116222
21
0.028399
31
0.0
0
LINE
8
TOP
10
0.116222
20
0.028399
30
0.0
11
0.117956
21
0.028072
31
0.0
0
LINE
8
TOP
10
0.117956
20
0.028072
30
0.0
11
0.119676
21
0.027680
31
0.0
0
LINE
8
TOP
10
0.119676
20
0.027680
30
0.0
11
0.121380
21
0.027225
31
0.0
0
LINE
8
TOP
10
0.121380
20
0.027225
30
0.0
11
0.123066
21
0.026706
31
0.0
0
LINE
8
TOP
10
0.123066
20
0.026706
30
0.0
11
0.124731
21
0.026125
31
0.0
0
LINE
8
TOP
10
0.124731
20
0.026125
30
0.0
11
0.126374
21
0.025482
31
0.0
0
LINE
8
TOP
10
0.126374
20
0.025482
30
0.0
11
0.127992
21
0.024778
31
0.0
0
LINE
8
TOP
10
0.127992
20
0.024778
30
0.0
11
0.129582
21
0.024014
31
0.0
0
LINE
8
TOP
10
0.129582
20
0.024014
30
0.0
11
0.131142
21
0.023192
31
0.0
0
LINE
8
TOP
10
0.131142
20
0.023192
30
0.0
11
0.132671
21
0.022312
31
0.0
0
LINE
8
TOP
10
0.132671
20
0.022312
30
0.0
11
0.134166
21
0.021376
31
0.0
0
LINE
8
TOP
10
0.134166
20
0.021376
30
0.0
11
0.135625
21
0.020384
31
0.0
0
LINE
8
TOP
10
0.135625
20
0.020384
30
0.0
11
0.137046
21
0.019339
31
0.0
0
LINE
8
TOP
10
0.137046
20
0.019339
30
0.0
11
0.138427
21
0.018241
31
0.0
0
LINE
8
TOP
10
0.138427
20
0.018241
30
0.0
11
0.139766
21
0.017093
31
0.0
0
LINE
8
TOP
10
0.139766
20
0.017093
30
0.0
11
0.141061
21
0.015895
31
0.0
0
LINE
8
TOP
10
0.141061
20
0.015895
30
0.0
11
0.142311
21
0.014650
31
0.0
0
LINE
8
TOP
10
0.142311
20
0.014650
30
0.0
11
0.143513
21
0.013360
31
0.0
0
LINE
8
TOP
10
0.143513
20
0.013360
30
0.0
11
0.144667
21
0.012025
31
0.0
0
LINE
8
TOP
10
0.144667
20
0.012025
30
0.0
11
0.145770
21
0.010648
31
0.0
0
LINE
8
TOP
10
0.145770
20
0.010648
30
0.0
11
0.146820
21
0.009231
31
0.0
0
LINE
8
TOP
10
0.146820
20
0.009231
30
0.0
11
0.147817
21
0.007776
31
0.0
0
LINE
8
TOP
10
0.147817
20
0.007776
30
0.0
11
0.148760
21
0.006285
31
0.0
0
LINE
8
TOP
10
0.148760
20
0.006285
30
0.0
11
0.149645
21
0.004759
31
0.0
0
LINE
8
TOP
10
0.149645
20
0.004759
30
0.0
11
0.150474
21
0.003202
31
0.0
0
LINE
8
TOP
10
0.150474
20
0.003202
30
0.0
11
0.151244
21
0.001615
31
0.0
0
LINE
8
TOP
10
0.151244
20
0.001615
30
0.0
11
0.151954
21
0.000000
31
0.0
0
LINE
8
TOP
10
0.151954
20
0.000000
30
0.0
11
0.281331
21
0.000000
31
0.0
0
LINE
8
TOP
10
0.281331
20
0.000000
30
0.0
11
0.282041
21
0.001615
31
0.0
0
LINE
8
TOP
10
0.282041
20
0.001615
30
0.0
11
0.282811
21
0.003202
31
0.0
0
LINE
8
TOP
10
0.282811
20
0.003202
30
0.0
11
0.283639
21
0.004759
31
0.0
0
LINE
8
TOP
10
0.283639
20
0.004759
30
0.0
11
0.284525
21
0.006285
31
0.0
0
LINE
8
TOP
10
0.284525
20
0.006285
30
0.0
11
0.285467
21
0.007776
31
0.0
0
LINE
8
TOP
10
0.285467
20
0.007776
30
0.0
11
0.286464
21
0.009231
31
0.0
0
LINE
8
TOP
10
0.286464
20
0.009231
30
0.0
11
0.287515
21
0.010648
31
0.0
0
LINE
8
TOP
10
0.287515
20
0.010648
30
0.0
11
0.288618
21
0.012025
31
0.0
0
LINE
8
TOP
10
0.288618
20
0.012025
30
0.0
11
0.289771
21
0.013360
31
0.0
0
LINE
8
TOP
10
0.289771
20
0.013360
30
0.0
11
0.290974
21
0.014650
31
0.0
0
LINE
8
TOP
10
0.290974
20
0.014650
30
0.0
11
0.292224
21
0.015895
31
0.0
0
LINE
8
TOP
10
0.292224
20
0.015895
30
0.0
11
0.293519
21
0.017093
31
0.0
0
LINE
8
TOP
10
0.293519
20
0.017093
30
0.0
11
0.294858
21
0.018241
31
0.0
0
LINE
8
TOP
10
0.294858
20
0.018241
30
0.0
11
0.296239
21
0.019339
31
0.0
0
LINE
8
TOP
10
0.296239
20
0.019339
30
0.0
11
0.297660
21
0.020384
31
0.0
0
LINE
8
TOP
10
0.297660
20
0.020384
30
0.0
11
0.299119
21
0.021376
31
0.0
0
LINE
8
TOP
10
0.299119
20
0.021376
30
0.0
11
0.300614
21
0.022312
31
0.0
0
LINE
8
TOP
10
0.300614
20
0.022312
30
0.0
11
0.302142
21
0.023192
31
0.0
0
LINE
8
TOP
10
0.302142
20
0.023192
30
0.0
11
0.303703
21
0.024014
31
0.0
0
LINE
8
TOP
10
0.303703
20
0.024014
30
0.0
11
0.305293
21
0.024778
31
0.0
0
LINE
8
TOP
10
0.305293
20
0.024778
30
0.0
11
0.306911
21
0.025482
31
0.0
0
LINE
8
TOP
10
0.306911
20
0.025482
30
0.0
11
0.308553
21
0.026125
31
0.0
0
LINE
8
TOP
10
0.308553
20
0.026125
30
0.0
11
0.310219
21
0.026706
31
0.0
0
LINE
8
TOP
10
0.310219
20
0.026706
30
0.0
11
0.311905
21
0.027225
31
0.0
0
LINE
8
TOP
10
0.311905
20
0.027225
30
0.0
11
0.313609
21
0.027680
31
0.0
0
LINE
8
TOP
10
0.313609
20
0.027680
30
0.0
11
0.315329
21
0.028072
31
0.0
0
LINE
8
TOP
10
0.315329
20
0.028072
30
0.0
11
0.317062
21
0.028399
31
0.0
0
LINE
8
TOP
10
0.317062
20
0.028399
30
0.0
11
0.318807
21
0.028661
31
0.0
0
LINE
8
TOP
10
0.318807
20
0.028661
30
0.0
11
0.320560
21
0.028858
31
0.0
0
LINE
8
TOP
10
0.320560
20
0.028858
30
0.0
11
0.322319
21
0.028990
31
0.0
0
LINE
8
TOP
10
0.322319
20
0.028990
30
0.0
11
0.324081
21
0.029056
31
0.0
0
LINE
8
TOP
10
0.324081
20
0.029056
30
0.0
11
0.325845
21
0.029056
31
0.0
0
LINE
8
TOP
10
0.325845
20
0.029056
30
0.0
11
0.327608
21
0.028990
31
0.0
0
LINE
8
TOP
10
0.327608
20
0.028990
30
0.0
11
0.329367
21
0.028858
31
0.0
0
LINE
8
TOP
10
0.329367
20
0.028858
30
0.0
11
0.331120
21
0.028661
31
0.0
0
LINE
8
TOP
10
0.331120
20
0.028661
30
0.0
11
0.332865
21
0.028399
31
0.0
0
LINE
8
TOP
10
0.332865
20
0.028399
30
0.0
11
0.334598
21
0.028072
31
0.0
0
LINE
8
TOP
10
0.334598
20
0.028072
30
0.0
11
0.336318
21
0.027680
31
0.0
0
LINE
8
TOP
10
0.336318
20
0.027680
30
0.0
11
0.338022
21
0.027225
31
0.0
0
LINE
8
TOP
10
0.338022
20
0.027225
30
0.0
11
0.339708
21
0.026706
31
0.0
0
LINE
8
TOP
10
0.339708
20
0.026706
30
0.0
11
0.341374
21
0.026125
31
0.0
0
LINE
8
TOP
10
0.341374
20
0.026125
30
0.0
11
0.343016
21
0.025482
31
0.0
0
LINE
8
TOP
10
0.343016
20
0.025482
30
0.0
11
0.344634
21
0.024778
31
0.0
0
LINE
8
TOP
10
0.344634
20
0.024778
30
0.0
11
0.346224
21
0.024014
31
0.0
0
LINE
8
TOP
10
0.346224
20
0.024014
30
0.0
11
0.347785
21
0.023192
31
0.0
0
LINE
8
TOP
10
0.347785
20
0.023192
30
0.0
11
0.349313
21
0.022312
31
0.0
0
LINE
8
TOP
10
0.349313
20
0.022312
30
0.0
11
0.350808
21
0.021376
31
0.0
0
LINE
8
TOP
10
0.350808
20
0.021376
30
0.0
11
0.352267
21
0.020384
31
0.0
0
LINE
8
TOP
10
0.352267
20
0.020384
30
0.0
11
0.353688
21
0.019339
31
0.0
0
LINE
8
TOP
10
0.353688
20
0.019339
30
0.0
11
0.355069
21
0.018241
31
0.0
0
LINE
8
TOP
10
0.355069
20
0.018241
30
0.0
11
0.356408
21
0.017093
31
0.0
0
LINE
8
TOP
10
0.356408
20
0.017093
30
0.0
11
0.357703
21
0.015895
31
0.0
0
LINE
8
TOP
10
0.357703
20
0.015895
30
0.0
11
0.358953
21
0.014650
31
0.0
0
LINE
8
TOP
10
0.358953
20
0.014650
30
0.0
11
0.360156
21
0.013360
31
0.0
0
LINE
8
TOP
10
0.360156
20
0.013360
30
0.0
11
0.361309
21
0.012025
31
0.0
0
LINE
8
TOP
10
0.361309
20
0.012025
30
0.0
11
0.362412
21
0.010648
31
0.0
0
LINE
8
TOP
10
0.362412
20
0.010648
30
0.0
11
0.363463
21
0.009231
31
0.0
0
LINE
8
TOP
10
0.363463
20
0.009231
30
0.0
11
0.364460
21
0.007776
31
0.0
0
LINE
8
TOP
10
0.364460
20
0.007776
30
0.0
11
0.365402
21
0.006285
31
0.0
0
LINE
8
TOP
10
0.365402
20
0.006285
30
0.0
11
0.366288
21
0.004759
31
0.0
0
LINE
8
TOP
10
0.366288
20
0.004759
30
0.0
11
0.367116
21
0.003202
31
0.0
0
LINE
8
TOP
10
0.367116
20
0.003202
30
0.0
11
0.367886
21
0.001615
31
0.0
0
LINE
8
TOP
10
0.367886
20
0.001615
30
0.0
11
0.368596
21
0.000000
31
0.0
0
LINE
8
TOP
10
0.368596
20
0.000000
30
0.0
11
0.433285
21
0.000000
31
0.0
0
LINE
8
TOP
10
0.433285
20
0.000000
30
0.0
11
0.433285
21
0.090102
31
0.0
0
LINE
8
TOP
10
0.433285
20
0.090102
30
0.0
11
0.000000
21
0.090102
31
0.0
0
LINE
8
TOP_HID
6
HIDDEN
10
0.239751
20
0.090102
30
0.0
11
0.193534
21
0.090102
31
0.0
0
LINE
8
TOP_HID
6
HIDDEN
10
0.193534
20
0.090102
30
0.0
11
0.239751
21
0.090102
31
0.0
0
LINE
8
TOP_HID
6
HIDDEN
10
0.239751
20
0.000000
30
0.0
11
0.193534
21
0.000000
31
0.0
0
LINE
8
TOP_HID
6
HIDDEN
10
0.193534
20
0.000000
30
0.0
11
0.239751
21
0.000000
31
0.0
0
LINE
8
TOP_HID
6
HIDDEN
10
0.239751
20
0.090102
30
0.0
11
0.239751
21
0.000000
31
0.0
0
LINE
8
TOP_HID
6
HIDDEN
10
0.193534
20
0.000000
30
0.0
11
0.193534
21
0.090102
31
0.0
0
ENDSEC
0
EOF
