0
SECTION
2
HEADER
9
$ACADVER
1
AC1009
0
ENDSEC
0
SECTION
2
TABLES
0
TABLE
2
LTYPE
70
3
0
LTYPE
2
CONTINUOUS
70
0
3
Solid line
72
65
73
0
40
0.0
0
LTYPE
2
HIDDEN
70
0
3
__ __ __ __ __
72
65
73
2
40
0.041337
49
0.027572
49
-0.013765
0
LTYPE
2
CENTER
70
0
3
___ _ ___ _ ___
72
65
73
4
40
0.096440
49
0.055103
49
-0.013765
49
0.013765
49
-0.013765
0
ENDTAB
0
TABLE
2
LAYER
70
6
0
LAYER
2
0
70
0
62
7
6
CONTINUOUS
0
LAYER
2
FRONT
70
0
62
7
6
CONTINUOUS
0
LAYER
2
FRONT_HID
70
0
62
7
6
HIDDEN
0
LAYER
2
LEFT
70
0
62
7
6
CONTINUOUS
0
LAYER
2
LEFT_HID
70
0
62
7
6
HIDDEN
0
LAYER
2
TOP
70
0
62
7
6
CONTINUOUS
0
ENDTAB
0
ENDSEC
0
SECTION
2
ENTITIES
0
LINE
8
FRONT
10
0.000679
20
0.992093
30
0.0
11
0.000000
21
0.992093
31
0.0
0
LINE
8
FRONT
10
0.000679
20
1.035349
30
0.0
11
0.000000
21
1.035349
31
0.0
0
LINE
8
FRONT
10
0.096416
20
1.035349
30
0.0
11
0.000679
21
1.035349
31
0.0
0
LINE
8
FRONT
10
0.096416
20
0.992093
30
0.0
11
0.000679
21
0.992093
31
0.0
0
LINE
8
FRONT
10
0.384400
20
0.992093
30
0.0
11
0.349516
21
0.992093
31
0.0
0
LINE
8
FRONT
10
0.349516
20
0.992093
30
0.0
11
0.284041
21
0.992093
31
0.0
0
LINE
8
FRONT
10
0.284041
20
0.992093
30
0.0
11
0.249157
21
0.992093
31
0.0
0
LINE
8
FRONT
10
0.249157
20
0.992093
30
0.0
11
0.096416
21
0.992093
31
0.0
0
LINE
8
FRONT
10
0.384400
20
1.035349
30
0.0
11
0.349516
21
1.035349
31
0.0
0
LINE
8
FRONT
10
0.349516
20
1.035349
30
0.0
11
0.284041
21
1.035349
31
0.0
0
LINE
8
FRONT
10
0.284041
20
1.035349
30
0.0
11
0.249157
21
1.035349
31
0.0
0
LINE
8
FRONT
10
0.249157
20
1.035349
30
0.0
11
0.096416
21
1.035349
31
0.0
0
LINE
8
FRONT
10
0.249157
20
0.992093
30
0.0
11
0.249157
21
1.035349
31
0.0
0
LINE
8
FRONT
10
0.384400
20
0.992093
30
0.0
11
0.384400
21
1.035349
31
0.0
0
LINE
8
FRONT
10
0.249157
20
0.992093
30
0.0
11
0.249157
21
1.035349
31
0.0
0
LINE
8
FRONT
10
0.378227
20
1.035349
30
0.0
11
0.378227
21
1.077209
31
0.0
0
LINE
8
FRONT
10
0.273576
20
1.035349
30
0.0
11
0.273576
21
1.077209
31
0.0
0
LINE
8
FRONT
10
0.378227
20
1.077209
30
0.0
11
0.273576
21
1.077209
31
0.0
0
LINE
8
FRONT
10
0.000679
20
0.992093
30
0.0
11
0.000679
21
1.035349
31
0.0
0
LINE
8
FRONT
10
0.096416
20
0.992093
30
0.0
11
0.096416
21
1.035349
31
0.0
0
LINE
8
FRONT
10
0.349516
20
0.992093
30
0.0
11
0.349516
21
1.035349
31
0.0
0
LINE
8
FRONT
10
0.284041
20
0.992093
30
0.0
11
0.284041
21
1.035349
31
0.0
0
LINE
8
FRONT
10
0.000000
20
1.035349
30
0.0
11
0.000000
21
0.992093
31
0.0
0
LINE
8
FRONT_HID
6
HIDDEN
10
0.000000
20
0.992093
30
0.0
11
0.069767
21
0.992093
31
0.0
0
LINE
8
FRONT_HID
6
HIDDEN
10
0.000000
20
1.035349
30
0.0
11
0.069767
21
1.035349
31
0.0
0
LINE
8
FRONT_HID
6
HIDDEN
10
0.069767
20
1.035349
30
0.0
11
0.314632
21
1.035349
31
0.0
0
LINE
8
FRONT_HID
6
HIDDEN
10
0.069767
20
0.992093
30
0.0
11
0.314632
21
0.992093
31
0.0
0
LINE
8
FRONT_HID
6
HIDDEN
10
0.314632
20
0.992093
30
0.0
11
0.384400
21
0.992093
31
0.0
0
LINE
8
FRONT_HID
6
HIDDEN
10
0.040727
20
0.992093
30
0.0
11
0.108750
21
0.992093
31
0.0
0
LINE
8
FRONT_HID
6
HIDDEN
10
0.108750
20
0.992093
30
0.0
11
0.040727
21
0.992093
31
0.0
0
LINE
8
FRONT_HID
6
HIDDEN
10
0.194739
20
0.992093
30
0.0
11
0.150088
21
0.992093
31
0.0
0
LINE
8
FRONT_HID
6
HIDDEN
10
0.150088
20
0.992093
30
0.0
11
0.194739
21
0.992093
31
0.0
0
LINE
8
FRONT_HID
6
HIDDEN
10
0.347704
20
0.992093
30
0.0
11
0.304099
21
0.992093
31
0.0
0
LINE
8
FRONT_HID
6
HIDDEN
10
0.304099
20
0.992093
30
0.0
11
0.347704
21
0.992093
31
0.0
0
LINE
8
FRONT_HID
6
HIDDEN
10
0.314632
20
1.035349
30
0.0
11
0.384400
21
1.035349
31
0.0
0
LINE
8
FRONT_HID
6
HIDDEN
10
0.040727
20
1.035349
30
0.0
11
0.108750
21
1.035349
31
0.0
0
LINE
8
FRONT_HID
6
HIDDEN
10
0.108750
20
1.035349
30
0.0
11
0.040727
21
1.035349
31
0.0
0
LINE
8
FRONT_HID
6
HIDDEN
10
0.273576
20
1.035349
30
0.0
11
0.378227
21
1.035349
31
0.0
0
LINE
8
FRONT_HID
6
HIDDEN
10
0.378227
20
1.035349
30
0.0
11
0.273576
21
1.035349
31
0.0
0
LINE
8
FRONT_HID
6
HIDDEN
10
0.194739
20
1.035349
30
0.0
11
0.150088
21
1.035349
31
0.0
0
LINE
8
FRONT_HID
6
HIDDEN
10
0.150088
20
1.035349
30
0.0
11
0.194739
21
1.035349
31
0.0
0
LINE
8
FRONT_HID
6
HIDDEN
10
0.108750
20
0.992093
30
0.0
11
0.108750
21
1.035349
31
0.0
0
LINE
8
FRONT_HID
6
HIDDEN
10
0.040727
20
0.992093
30
0.0
11
0.040727
21
1.035349
31
0.0
0
LINE
8
FRONT_HID
6
HIDDEN
10
0.108750
20
0.992093
30
0.0
11
0.108750
21
1.035349
31
0.0
0
LINE
8
FRONT_HID
6
HIDDEN
10
0.040727
20
0.992093
30
0.0
11
0.040727
21
1.035349
31
0.0
0
LINE
8
FRONT_HID
6
HIDDEN
10
0.194739
20
0.992093
30
0.0
11
0.194739
21
1.035349
31
0.0
0
LINE
8
FRONT_HID
6
HIDDEN
10
0.347704
20
0.992093
30
0.0
11
0.347704
21
1.035349
31
0.0
0
LINE
8
FRONT_HID
6
HIDDEN
10
0.347704
20
1.035349
30
0.0
11
0.347704
21
1.077209
31
0.0
0
LINE
8
FRONT_HID
6
HIDDEN
10
0.347704
20
1.077209
30
0.0
11
0.304099
21
1.077209
31
0.0
0
LINE
8
FRONT_HID
6
HIDDEN
10
0.304099
20
1.077209
30
0.0
11
0.347704
21
1.077209
31
0.0
0
LINE
8
FRONT_HID
6
HIDDEN
10
0.069767
20
0.992093
30
0.0
11
0.069767
21
1.035349
31
0.0
0
LINE
8
FRONT_HID
6
HIDDEN
10
0.314632
20
0.992093
30
0.0
11
0.314632
21
1.035349
31
0.0
0
LINE
8
FRONT_HID
6
HIDDEN
10
0.150088
20
1.035349
30
0.0
11
0.150088
21
0.992093
31
0.0
0
LINE
8
FRONT_HID
6
HIDDEN
10
0.304099
20
1.035349
30
0.0
11
0.304099
21
0.992093
31
0.0
0
LINE
8
FRONT_HID
6
HIDDEN
10
0.304099
20
1.077209
30
0.0
11
0.304099
21
1.035349
31
0.0
0
LINE
8
LEFT
10
1.297016
20
0.992093
30
0.0
11
1.376493
21
0.992093
31
0.0
0
LINE
8
LEFT
10
1.376493
20
0.992093
30
0.0
11
1.376493
21
1.035349
31
0.0
0
LINE
8
LEFT
10
1.297016
20
1.035349
30
0.0
11
1.376493
21
1.035349
31
0.0
0
LINE
8
LEFT
10
0.615812
20
1.035349
30
0.0
11
1.297016
21
1.035349
31
0.0
0
LINE
8
LEFT
10
0.615812
20
0.992093
30
0.0
11
1.297016
21
0.992093
31
0.0
0
LINE
8
LEFT
10
0.549749
20
0.992093
30
0.0
11
0.615812
21
0.992093
31
0.0
0
LINE
8
LEFT
10
0.549749
20
1.035349
30
0.0
11
0.615812
21
1.035349
31
0.0
0
LINE
8
LEFT
10
1.025039
20
1.077209
30
0.0
11
1.077365
21
1.077209
31
0.0
0
LINE
8
LEFT
10
0.943063
20
1.077209
30
0.0
11
0.995388
21
1.077209
31
0.0
0
LINE
8
LEFT
10
0.995388
20
1.077209
30
0.0
11
1.025039
21
1.077209
31
0.0
0
LINE
8
LEFT
10
1.297016
20
0.992093
30
0.0
11
1.297016
21
1.035349
31
0.0
0
LINE
8
LEFT
10
0.615812
20
0.992093
30
0.0
11
0.615812
21
1.035349
31
0.0
0
LINE
8
LEFT
10
1.025039
20
1.035349
30
0.0
11
1.025039
21
1.077209
31
0.0
0
LINE
8
LEFT
10
0.995388
20
1.035349
30
0.0
11
0.995388
21
1.077209
31
0.0
0
LINE
8
LEFT
10
0.549749
20
1.035349
30
0.0
11
0.549749
21
0.992093
31
0.0
0
LINE
8
LEFT
10
1.077365
20
1.077209
30
0.0
11
1.077365
21
1.035349
31
0.0
0
LINE
8
LEFT
10
0.943063
20
1.077209
30
0.0
11
0.943063
21
1.035349
31
0.0
0
LINE
8
LEFT_HID
6
HIDDEN
10
1.376493
20
0.992093
30
0.0
11
1.306725
21
0.992093
31
0.0
0
LINE
8
LEFT_HID
6
HIDDEN
10
1.306725
20
0.992093
30
0.0
11
0.902074
21
0.992093
31
0.0
0
LINE
8
LEFT_HID
6
HIDDEN
10
0.902074
20
0.992093
30
0.0
11
0.867191
21
0.992093
31
0.0
0
LINE
8
LEFT_HID
6
HIDDEN
10
0.867191
20
0.992093
30
0.0
11
0.832307
21
0.992093
31
0.0
0
LINE
8
LEFT_HID
6
HIDDEN
10
0.832307
20
0.992093
30
0.0
11
0.626493
21
0.992093
31
0.0
0
LINE
8
LEFT_HID
6
HIDDEN
10
0.626493
20
0.992093
30
0.0
11
0.549749
21
0.992093
31
0.0
0
LINE
8
LEFT_HID
6
HIDDEN
10
1.314749
20
0.992093
30
0.0
11
1.348760
21
0.992093
31
0.0
0
LINE
8
LEFT_HID
6
HIDDEN
10
1.348760
20
0.992093
30
0.0
11
1.314749
21
0.992093
31
0.0
0
LINE
8
LEFT_HID
6
HIDDEN
10
1.314749
20
0.992093
30
0.0
11
1.282307
21
0.992093
31
0.0
0
LINE
8
LEFT_HID
6
HIDDEN
10
1.282307
20
0.992093
30
0.0
11
1.248295
21
0.992093
31
0.0
0
LINE
8
LEFT_HID
6
HIDDEN
10
1.248295
20
0.992093
30
0.0
11
1.282307
21
0.992093
31
0.0
0
LINE
8
LEFT_HID
6
HIDDEN
10
1.282307
20
0.992093
30
0.0
11
1.314749
21
0.992093
31
0.0
0
LINE
8
LEFT_HID
6
HIDDEN
10
0.626493
20
0.992093
30
0.0
11
0.604167
21
0.992093
31
0.0
0
LINE
8
LEFT_HID
6
HIDDEN
10
0.604167
20
0.992093
30
0.0
11
0.648819
21
0.992093
31
0.0
0
LINE
8
LEFT_HID
6
HIDDEN
10
0.648819
20
0.992093
30
0.0
11
0.626493
21
0.992093
31
0.0
0
LINE
8
LEFT_HID
6
HIDDEN
10
1.010214
20
0.992093
30
0.0
11
0.988412
21
0.992093
31
0.0
0
LINE
8
LEFT_HID
6
HIDDEN
10
0.988412
20
0.992093
30
0.0
11
1.032016
21
0.992093
31
0.0
0
LINE
8
LEFT_HID
6
HIDDEN
10
1.032016
20
0.992093
30
0.0
11
1.010214
21
0.992093
31
0.0
0
LINE
8
LEFT_HID
6
HIDDEN
10
1.376493
20
1.035349
30
0.0
11
1.306725
21
1.035349
31
0.0
0
LINE
8
LEFT_HID
6
HIDDEN
10
1.306725
20
1.035349
30
0.0
11
0.902074
21
1.035349
31
0.0
0
LINE
8
LEFT_HID
6
HIDDEN
10
0.902074
20
1.035349
30
0.0
11
0.867191
21
1.035349
31
0.0
0
LINE
8
LEFT_HID
6
HIDDEN
10
0.867191
20
1.035349
30
0.0
11
0.832307
21
1.035349
31
0.0
0
LINE
8
LEFT_HID
6
HIDDEN
10
0.832307
20
1.035349
30
0.0
11
0.626493
21
1.035349
31
0.0
0
LINE
8
LEFT_HID
6
HIDDEN
10
0.626493
20
1.035349
30
0.0
11
0.549749
21
1.035349
31
0.0
0
LINE
8
LEFT_HID
6
HIDDEN
10
1.314749
20
1.035349
30
0.0
11
1.348760
21
1.035349
31
0.0
0
LINE
8
LEFT_HID
6
HIDDEN
10
1.348760
20
1.035349
30
0.0
11
1.314749
21
1.035349
31
0.0
0
LINE
8
LEFT_HID
6
HIDDEN
10
1.282307
20
1.035349
30
0.0
11
1.314749
21
1.035349
31
0.0
0
LINE
8
LEFT_HID
6
HIDDEN
10
1.282307
20
1.035349
30
0.0
11
1.248295
21
1.035349
31
0.0
0
LINE
8
LEFT_HID
6
HIDDEN
10
1.248295
20
1.035349
30
0.0
11
1.282307
21
1.035349
31
0.0
0
LINE
8
LEFT_HID
6
HIDDEN
10
1.314749
20
1.035349
30
0.0
11
1.282307
21
1.035349
31
0.0
0
LINE
8
LEFT_HID
6
HIDDEN
10
1.025039
20
1.035349
30
0.0
11
1.077365
21
1.035349
31
0.0
0
LINE
8
LEFT_HID
6
HIDDEN
10
1.077365
20
1.035349
30
0.0
11
1.025039
21
1.035349
31
0.0
0
LINE
8
LEFT_HID
6
HIDDEN
10
0.995388
20
1.035349
30
0.0
11
1.025039
21
1.035349
31
0.0
0
LINE
8
LEFT_HID
6
HIDDEN
10
0.995388
20
1.035349
30
0.0
11
0.943063
21
1.035349
31
0.0
0
LINE
8
LEFT_HID
6
HIDDEN
10
0.943063
20
1.035349
30
0.0
11
0.995388
21
1.035349
31
0.0
0
LINE
8
LEFT_HID
6
HIDDEN
10
1.025039
20
1.035349
30
0.0
11
0.995388
21
1.035349
31
0.0
0
LINE
8
LEFT_HID
6
HIDDEN
10
0.626493
20
1.035349
30
0.0
11
0.604167
21
1.035349
31
0.0
0
LINE
8
LEFT_HID
6
HIDDEN
10
0.604167
20
1.035349
30
0.0
11
0.648819
21
1.035349
31
0.0
0
LINE
8
LEFT_HID
6
HIDDEN
10
0.648819
20
1.035349
30
0.0
11
0.626493
21
1.035349
31
0.0
0
LINE
8
LEFT_HID
6
HIDDEN
10
0.867191
20
0.992093
30
0.0
11
0.867191
21
1.035349
31
0.0
0
LINE
8
LEFT_HID
6
HIDDEN
10
0.867191
20
0.992093
30
0.0
11
0.867191
21
1.035349
31
0.0
0
LINE
8
LEFT_HID
6
HIDDEN
10
1.010214
20
1.077209
30
0.0
11
0.988412
21
1.077209
31
0.0
0
LINE
8
LEFT_HID
6
HIDDEN
10
0.988412
20
1.077209
30
0.0
11
1.032016
21
1.077209
31
0.0
0
LINE
8
LEFT_HID
6
HIDDEN
10
1.032016
20
1.077209
30
0.0
11
1.010214
21
1.077209
31
0.0
0
LINE
8
LEFT_HID
6
HIDDEN
10
0.626493
20
0.992093
30
0.0
11
0.626493
21
1.035349
31
0.0
0
LINE
8
LEFT_HID
6
HIDDEN
10
1.306725
20
0.992093
30
0.0
11
1.306725
21
1.035349
31
0.0
0
LINE
8
LEFT_HID
6
HIDDEN
10
0.902074
20
0.992093
30
0.0
11
0.902074
21
1.035349
31
0.0
0
LINE
8
LEFT_HID
6
HIDDEN
10
0.832307
20
0.992093
30
0.0
11
0.832307
21
1.035349
31
0.0
0
LINE
8
LEFT_HID
6
HIDDEN
10
1.314749
20
0.992093
30
0.0
11
1.314749
21
1.035349
31
0.0
0
LINE
8
LEFT_HID
6
HIDDEN
10
1.314749
20
0.992093
30
0.0
11
1.314749
21
1.035349
31
0.0
0
LINE
8
LEFT_HID
6
HIDDEN
10
1.282307
20
0.992093
30
0.0
11
1.282307
21
1.035349
31
0.0
0
LINE
8
LEFT_HID
6
HIDDEN
10
1.282307
20
0.992093
30
0.0
11
1.282307
21
1.035349
31
0.0
0
LINE
8
LEFT_HID
6
HIDDEN
10
1.348760
20
1.035349
30
0.0
11
1.348760
21
0.992093
31
0.0
0
LINE
8
LEFT_HID
6
HIDDEN
10
1.248295
20
1.035349
30
0.0
11
1.248295
21
0.992093
31
0.0
0
LINE
8
LEFT_HID
6
HIDDEN
10
0.604167
20
1.035349
30
0.0
11
0.604167
21
0.992093
31
0.0
0
LINE
8
LEFT_HID
6
HIDDEN
10
0.648819
20
1.035349
30
0.0
11
0.648819
21
0.992093
31
0.0
0
LINE
8
LEFT_HID
6
HIDDEN
10
0.988412
20
1.035349
30
0.0
11
0.988412
21
0.992093
31
0.0
0
LINE
8
LEFT_HID
6
HIDDEN
10
1.032016
20
1.035349
30
0.0
11
1.032016
21
0.992093
31
0.0
0
LINE
8
LEFT_HID
6
HIDDEN
10
0.988412
20
1.077209
30
0.0
11
0.988412
21
1.035349
31
0.0
0
LINE
8
LEFT_HID
6
HIDDEN
10
1.032016
20
1.077209
30
0.0
11
1.032016
21
1.035349
31
0.0
0
LINE
8
TOP
10
0.000678
20
0.079477
30
0.0
11
0.000440
21
0.077598
31
0.0
0
LINE
8
TOP
10
0.000440
20
0.077598
30
0.0
11
0.000253
21
0.075713
31
0.0
0
LINE
8
TOP
10
0.000253
20
0.075713
30
0.0
11
0.000118
21
0.073824
31
0.0
0
LINE
8
TOP
10
0.000118
20
0.073824
30
0.0
11
0.000033
21
0.071932
31
0.0
0
LINE
8
TOP
10
0.000033
20
0.071932
30
0.0
11
0.000000
21
0.070038
31
0.0
0
LINE
8
TOP
10
0.000000
20
0.070038
30
0.0
11
0.000018
21
0.068144
31
0.0
0
LINE
8
TOP
10
0.000018
20
0.068144
30
0.0
11
0.000088
21
0.066251
31
0.0
0
LINE
8
TOP
10
0.000088
20
0.066251
30
0.0
11
0.000209
21
0.064361
31
0.0
0
LINE
8
TOP
10
0.000209
20
0.064361
30
0.0
11
0.000382
21
0.062475
31
0.0
0
LINE
8
TOP
10
0.000382
20
0.062475
30
0.0
11
0.000605
21
0.060594
31
0.0
0
LINE
8
TOP
10
0.000605
20
0.060594
30
0.0
11
0.000880
21
0.058720
31
0.0
0
LINE
8
TOP
10
0.000880
20
0.058720
30
0.0
11
0.001205
21
0.056854
31
0.0
0
LINE
8
TOP
10
0.001205
20
0.056854
30
0.0
11
0.001581
21
0.054997
31
0.0
0
LINE
8
TOP
10
0.001581
20
0.054997
30
0.0
11
0.002007
21
0.053152
31
0.0
0
LINE
8
TOP
10
0.002007
20
0.053152
30
0.0
11
0.002483
21
0.051319
31
0.0
0
LINE
8
TOP
10
0.002483
20
0.051319
30
0.0
11
0.003009
21
0.049499
31
0.0
0
LINE
8
TOP
10
0.003009
20
0.049499
30
0.0
11
0.003583
21
0.047694
31
0.0
0
LINE
8
TOP
10
0.003583
20
0.047694
30
0.0
11
0.004207
21
0.045906
31
0.0
0
LINE
8
TOP
10
0.004207
20
0.045906
30
0.0
11
0.004879
21
0.044135
31
0.0
0
LINE
8
TOP
10
0.004879
20
0.044135
30
0.0
11
0.005599
21
0.042383
31
0.0
0
LINE
8
TOP
10
0.005599
20
0.042383
30
0.0
11
0.006366
21
0.040651
31
0.0
0
LINE
8
TOP
10
0.006366
20
0.040651
30
0.0
11
0.007179
21
0.038940
31
0.0
0
LINE
8
TOP
10
0.007179
20
0.038940
30
0.0
11
0.008039
21
0.037253
31
0.0
0
LINE
8
TOP
10
0.008039
20
0.037253
30
0.0
11
0.008945
21
0.035589
31
0.0
0
LINE
8
TOP
10
0.008945
20
0.035589
30
0.0
11
0.009895
21
0.033951
31
0.0
0
LINE
8
TOP
10
0.009895
20
0.033951
30
0.0
11
0.010889
21
0.032338
31
0.0
0
LINE
8
TOP
10
0.010889
20
0.032338
30
0.0
11
0.011927
21
0.030754
31
0.0
0
LINE
8
TOP
10
0.011927
20
0.030754
30
0.0
11
0.013007
21
0.029198
31
0.0
0
LINE
8
TOP
10
0.013007
20
0.029198
30
0.0
11
0.014130
21
0.027672
31
0.0
0
LINE
8
TOP
10
0.014130
20
0.027672
30
0.0
11
0.015293
21
0.026178
31
0.0
0
LINE
8
TOP
10
0.015293
20
0.026178
30
0.0
11
0.016496
21
0.024715
31
0.0
0
LINE
8
TOP
10
0.016496
20
0.024715
30
0.0
11
0.017739
21
0.023285
31
0.0
0
LINE
8
TOP
10
0.017739
20
0.023285
30
0.0
11
0.019020
21
0.021890
31
0.0
0
LINE
8
TOP
10
0.019020
20
0.021890
30
0.0
11
0.020338
21
0.020530
31
0.0
0
LINE
8
TOP
10
0.020338
20
0.020530
30
0.0
11
0.021693
21
0.019207
31
0.0
0
LINE
8
TOP
10
0.021693
20
0.019207
30
0.0
11
0.023083
21
0.017920
31
0.0
0
LINE
8
TOP
10
0.023083
20
0.017920
30
0.0
11
0.024508
21
0.016672
31
0.0
0
LINE
8
TOP
10
0.024508
20
0.016672
30
0.0
11
0.025966
21
0.015463
31
0.0
0
LINE
8
TOP
10
0.025966
20
0.015463
30
0.0
11
0.027456
21
0.014294
31
0.0
0
LINE
8
TOP
10
0.027456
20
0.014294
30
0.0
11
0.028978
21
0.013166
31
0.0
0
LINE
8
TOP
10
0.028978
20
0.013166
30
0.0
11
0.030529
21
0.012079
31
0.0
0
LINE
8
TOP
10
0.030529
20
0.012079
30
0.0
11
0.032110
21
0.011035
31
0.0
0
LINE
8
TOP
10
0.032110
20
0.011035
30
0.0
11
0.033718
21
0.010035
31
0.0
0
LINE
8
TOP
10
0.033718
20
0.010035
30
0.0
11
0.035353
21
0.009078
31
0.0
0
LINE
8
TOP
10
0.035353
20
0.009078
30
0.0
11
0.037013
21
0.008166
31
0.0
0
LINE
8
TOP
10
0.037013
20
0.008166
30
0.0
11
0.038697
21
0.007300
31
0.0
0
LINE
8
TOP
10
0.038697
20
0.007300
30
0.0
11
0.040405
21
0.006480
31
0.0
0
LINE
8
TOP
10
0.040405
20
0.006480
30
0.0
11
0.042133
21
0.005706
31
0.0
0
LINE
8
TOP
10
0.042133
20
0.005706
30
0.0
11
0.043883
21
0.004979
31
0.0
0
LINE
8
TOP
10
0.043883
20
0.004979
30
0.0
11
0.045651
21
0.004301
31
0.0
0
LINE
8
TOP
10
0.045651
20
0.004301
30
0.0
11
0.047437
21
0.003670
31
0.0
0
LINE
8
TOP
10
0.047437
20
0.003670
30
0.0
11
0.049240
21
0.003088
31
0.0
0
LINE
8
TOP
10
0.049240
20
0.003088
30
0.0
11
0.051057
21
0.002556
31
0.0
0
LINE
8
TOP
10
0.051057
20
0.002556
30
0.0
11
0.052889
21
0.002072
31
0.0
0
LINE
8
TOP
10
0.052889
20
0.002072
30
0.0
11
0.054733
21
0.001639
31
0.0
0
LINE
8
TOP
10
0.054733
20
0.001639
30
0.0
11
0.056587
21
0.001256
31
0.0
0
LINE
8
TOP
10
0.056587
20
0.001256
30
0.0
11
0.058452
21
0.000924
31
0.0
0
LINE
8
TOP
10
0.058452
20
0.000924
30
0.0
11
0.060325
21
0.000642
31
0.0
0
LINE
8
TOP
10
0.060325
20
0.000642
30
0.0
11
0.062205
21
0.000411
31
0.0
0
LINE
8
TOP
10
0.062205
20
0.000411
30
0.0
11
0.064091
21
0.000231
31
0.0
0
LINE
8
TOP
10
0.064091
20
0.000231
30
0.0
11
0.065980
21
0.000103
31
0.0
0
LINE
8
TOP
10
0.065980
20
0.000103
30
0.0
11
0.067873
21
0.000026
31
0.0
0
LINE
8
TOP
10
0.067873
20
0.000026
30
0.0
11
0.069767
21
0.000000
31
0.0
0
LINE
8
TOP
10
0.096415
20
0.760681
30
0.0
11
0.000678
21
0.079477
31
0.0
0
LINE
8
TOP
10
0.069767
20
0.000000
30
0.0
11
0.314632
21
0.000000
31
0.0
0
LINE
8
TOP
10
0.314632
20
0.000000
30
0.0
11
0.316371
21
0.000022
31
0.0
0
LINE
8
TOP
10
0.316371
20
0.000022
30
0.0
11
0.318110
21
0.000087
31
0.0
0
LINE
8
TOP
10
0.318110
20
0.000087
30
0.0
11
0.319846
21
0.000195
31
0.0
0
LINE
8
TOP
10
0.319846
20
0.000195
30
0.0
11
0.321579
21
0.000347
31
0.0
0
LINE
8
TOP
10
0.321579
20
0.000347
30
0.0
11
0.323307
21
0.000541
31
0.0
0
LINE
8
TOP
10
0.323307
20
0.000541
30
0.0
11
0.325030
21
0.000779
31
0.0
0
LINE
8
TOP
10
0.325030
20
0.000779
30
0.0
11
0.326747
21
0.001060
31
0.0
0
LINE
8
TOP
10
0.326747
20
0.001060
30
0.0
11
0.328456
21
0.001383
31
0.0
0
LINE
8
TOP
10
0.328456
20
0.001383
30
0.0
11
0.330157
21
0.001749
31
0.0
0
LINE
8
TOP
10
0.330157
20
0.001749
30
0.0
11
0.331848
21
0.002157
31
0.0
0
LINE
8
TOP
10
0.331848
20
0.002157
30
0.0
11
0.333528
21
0.002608
31
0.0
0
LINE
8
TOP
10
0.333528
20
0.002608
30
0.0
11
0.335196
21
0.003100
31
0.0
0
LINE
8
TOP
10
0.335196
20
0.003100
30
0.0
11
0.336852
21
0.003633
31
0.0
0
LINE
8
TOP
10
0.336852
20
0.003633
30
0.0
11
0.338494
21
0.004207
31
0.0
0
LINE
8
TOP
10
0.338494
20
0.004207
30
0.0
11
0.340121
21
0.004823
31
0.0
0
LINE
8
TOP
10
0.340121
20
0.004823
30
0.0
11
0.341732
21
0.005478
31
0.0
0
LINE
8
TOP
10
0.341732
20
0.005478
30
0.0
11
0.343326
21
0.006174
31
0.0
0
LINE
8
TOP
10
0.343326
20
0.006174
30
0.0
11
0.344903
21
0.006909
31
0.0
0
LINE
8
TOP
10
0.344903
20
0.006909
30
0.0
11
0.346461
21
0.007683
31
0.0
0
LINE
8
TOP
10
0.346461
20
0.007683
30
0.0
11
0.347998
21
0.008496
31
0.0
0
LINE
8
TOP
10
0.347998
20
0.008496
30
0.0
11
0.349516
21
0.009347
31
0.0
0
LINE
8
TOP
10
0.349516
20
0.009347
30
0.0
11
0.351011
21
0.010236
31
0.0
0
LINE
8
TOP
10
0.351011
20
0.010236
30
0.0
11
0.352484
21
0.011161
31
0.0
0
LINE
8
TOP
10
0.352484
20
0.011161
30
0.0
11
0.353933
21
0.012123
31
0.0
0
LINE
8
TOP
10
0.353933
20
0.012123
30
0.0
11
0.355358
21
0.013121
31
0.0
0
LINE
8
TOP
10
0.355358
20
0.013121
30
0.0
11
0.356758
21
0.014154
31
0.0
0
LINE
8
TOP
10
0.356758
20
0.014154
30
0.0
11
0.358131
21
0.015221
31
0.0
0
LINE
8
TOP
10
0.358131
20
0.015221
30
0.0
11
0.359478
21
0.016322
31
0.0
0
LINE
8
TOP
10
0.359478
20
0.016322
30
0.0
11
0.360796
21
0.017457
31
0.0
0
LINE
8
TOP
10
0.360796
20
0.017457
30
0.0
11
0.362086
21
0.018624
31
0.0
0
LINE
8
TOP
10
0.362086
20
0.018624
30
0.0
11
0.363346
21
0.019823
31
0.0
0
LINE
8
TOP
10
0.363346
20
0.019823
30
0.0
11
0.364576
21
0.021053
31
0.0
0
LINE
8
TOP
10
0.364576
20
0.021053
30
0.0
11
0.365775
21
0.022314
31
0.0
0
LINE
8
TOP
10
0.365775
20
0.022314
30
0.0
11
0.366942
21
0.023603
31
0.0
0
LINE
8
TOP
10
0.366942
20
0.023603
30
0.0
11
0.368077
21
0.024922
31
0.0
0
LINE
8
TOP
10
0.368077
20
0.024922
30
0.0
11
0.369178
21
0.026268
31
0.0
0
LINE
8
TOP
10
0.369178
20
0.026268
30
0.0
11
0.370246
21
0.027642
31
0.0
0
LINE
8
TOP
10
0.370246
20
0.027642
30
0.0
11
0.371279
21
0.029041
31
0.0
0
LINE
8
TOP
10
0.371279
20
0.029041
30
0.0
11
0.372277
21
0.030466
31
0.0
0
LINE
8
TOP
10
0.372277
20
0.030466
30
0.0
11
0.373238
21
0.031915
31
0.0
0
LINE
8
TOP
10
0.373238
20
0.031915
30
0.0
11
0.374164
21
0.033388
31
0.0
0
LINE
8
TOP
10
0.374164
20
0.033388
30
0.0
11
0.375052
21
0.034884
31
0.0
0
LINE
8
TOP
10
0.375052
20
0.034884
30
0.0
11
0.375903
21
0.036401
31
0.0
0
LINE
8
TOP
10
0.375903
20
0.036401
30
0.0
11
0.376716
21
0.037939
31
0.0
0
LINE
8
TOP
10
0.376716
20
0.037939
30
0.0
11
0.377490
21
0.039496
31
0.0
0
LINE
8
TOP
10
0.377490
20
0.039496
30
0.0
11
0.378225
21
0.041073
31
0.0
0
LINE
8
TOP
10
0.378225
20
0.041073
30
0.0
11
0.378921
21
0.042667
31
0.0
0
LINE
8
TOP
10
0.378921
20
0.042667
30
0.0
11
0.379577
21
0.044279
31
0.0
0
LINE
8
TOP
10
0.379577
20
0.044279
30
0.0
11
0.380192
21
0.045906
31
0.0
0
LINE
8
TOP
10
0.380192
20
0.045906
30
0.0
11
0.380766
21
0.047547
31
0.0
0
LINE
8
TOP
10
0.380766
20
0.047547
30
0.0
11
0.381300
21
0.049203
31
0.0
0
LINE
8
TOP
10
0.381300
20
0.049203
30
0.0
11
0.381792
21
0.050872
31
0.0
0
LINE
8
TOP
10
0.381792
20
0.050872
30
0.0
11
0.382242
21
0.052552
31
0.0
0
LINE
8
TOP
10
0.382242
20
0.052552
30
0.0
11
0.382650
21
0.054243
31
0.0
0
LINE
8
TOP
10
0.382650
20
0.054243
30
0.0
11
0.383016
21
0.055943
31
0.0
0
LINE
8
TOP
10
0.383016
20
0.055943
30
0.0
11
0.383339
21
0.057652
31
0.0
0
LINE
8
TOP
10
0.383339
20
0.057652
30
0.0
11
0.383620
21
0.059369
31
0.0
0
LINE
8
TOP
10
0.383620
20
0.059369
30
0.0
11
0.383858
21
0.061092
31
0.0
0
LINE
8
TOP
10
0.383858
20
0.061092
30
0.0
11
0.384053
21
0.062821
31
0.0
0
LINE
8
TOP
10
0.384053
20
0.062821
30
0.0
11
0.384204
21
0.064554
31
0.0
0
LINE
8
TOP
10
0.384204
20
0.064554
30
0.0
11
0.384313
21
0.066290
31
0.0
0
LINE
8
TOP
10
0.384313
20
0.066290
30
0.0
11
0.384378
21
0.068028
31
0.0
0
LINE
8
TOP
10
0.384378
20
0.068028
30
0.0
11
0.384399
21
0.069767
31
0.0
0
LINE
8
TOP
10
0.384399
20
0.069767
30
0.0
11
0.384399
21
0.474419
31
0.0
0
LINE
8
TOP
10
0.384399
20
0.474419
30
0.0
11
0.384389
21
0.475288
31
0.0
0
LINE
8
TOP
10
0.384389
20
0.475288
30
0.0
11
0.384356
21
0.476157
31
0.0
0
LINE
8
TOP
10
0.384356
20
0.476157
30
0.0
11
0.384302
21
0.477025
31
0.0
0
LINE
8
TOP
10
0.384302
20
0.477025
30
0.0
11
0.384226
21
0.477892
31
0.0
0
LINE
8
TOP
10
0.384226
20
0.477892
30
0.0
11
0.384129
21
0.478756
31
0.0
0
LINE
8
TOP
10
0.384129
20
0.478756
30
0.0
11
0.384010
21
0.479618
31
0.0
0
LINE
8
TOP
10
0.384010
20
0.479618
30
0.0
11
0.383869
21
0.480476
31
0.0
0
LINE
8
TOP
10
0.383869
20
0.480476
30
0.0
11
0.383708
21
0.481331
31
0.0
0
LINE
8
TOP
10
0.383708
20
0.481331
30
0.0
11
0.383525
21
0.482181
31
0.0
0
LINE
8
TOP
10
0.383525
20
0.482181
30
0.0
11
0.383321
21
0.483026
31
0.0
0
LINE
8
TOP
10
0.383321
20
0.483026
30
0.0
11
0.383096
21
0.483867
31
0.0
0
LINE
8
TOP
10
0.383096
20
0.483867
30
0.0
11
0.382850
21
0.484701
31
0.0
0
LINE
8
TOP
10
0.382850
20
0.484701
30
0.0
11
0.382583
21
0.485529
31
0.0
0
LINE
8
TOP
10
0.382583
20
0.485529
30
0.0
11
0.382296
21
0.486350
31
0.0
0
LINE
8
TOP
10
0.382296
20
0.486350
30
0.0
11
0.381988
21
0.487163
31
0.0
0
LINE
8
TOP
10
0.381988
20
0.487163
30
0.0
11
0.381660
21
0.487969
31
0.0
0
LINE
8
TOP
10
0.381660
20
0.487969
30
0.0
11
0.381312
21
0.488766
31
0.0
0
LINE
8
TOP
10
0.381312
20
0.488766
30
0.0
11
0.380945
21
0.489554
31
0.0
0
LINE
8
TOP
10
0.380945
20
0.489554
30
0.0
11
0.380558
21
0.490333
31
0.0
0
LINE
8
TOP
10
0.380558
20
0.490333
30
0.0
11
0.380151
21
0.491102
31
0.0
0
LINE
8
TOP
10
0.380151
20
0.491102
30
0.0
11
0.379726
21
0.491860
31
0.0
0
LINE
8
TOP
10
0.379726
20
0.491860
30
0.0
11
0.379282
21
0.492608
31
0.0
0
LINE
8
TOP
10
0.379282
20
0.492608
30
0.0
11
0.378819
21
0.493345
31
0.0
0
LINE
8
TOP
10
0.378819
20
0.493345
30
0.0
11
0.378338
21
0.494069
31
0.0
0
LINE
8
TOP
10
0.378338
20
0.494069
30
0.0
11
0.377839
21
0.494782
31
0.0
0
LINE
8
TOP
10
0.377839
20
0.494782
30
0.0
11
0.377323
21
0.495482
31
0.0
0
LINE
8
TOP
10
0.377323
20
0.495482
30
0.0
11
0.376789
21
0.496168
31
0.0
0
LINE
8
TOP
10
0.376789
20
0.496168
30
0.0
11
0.376238
21
0.496841
31
0.0
0
LINE
8
TOP
10
0.376238
20
0.496841
30
0.0
11
0.375671
21
0.497501
31
0.0
0
LINE
8
TOP
10
0.375671
20
0.497501
30
0.0
11
0.375087
21
0.498146
31
0.0
0
LINE
8
TOP
10
0.375087
20
0.498146
30
0.0
11
0.374488
21
0.498776
31
0.0
0
LINE
8
TOP
10
0.374488
20
0.498776
30
0.0
11
0.373873
21
0.499391
31
0.0
0
LINE
8
TOP
10
0.373873
20
0.499391
30
0.0
11
0.373243
21
0.499990
31
0.0
0
LINE
8
TOP
10
0.373243
20
0.499990
30
0.0
11
0.372598
21
0.500574
31
0.0
0
LINE
8
TOP
10
0.372598
20
0.500574
30
0.0
11
0.371938
21
0.501141
31
0.0
0
LINE
8
TOP
10
0.371938
20
0.501141
30
0.0
11
0.371265
21
0.501692
31
0.0
0
LINE
8
TOP
10
0.371265
20
0.501692
30
0.0
11
0.370579
21
0.502226
31
0.0
0
LINE
8
TOP
10
0.370579
20
0.502226
30
0.0
11
0.369879
21
0.502742
31
0.0
0
LINE
8
TOP
10
0.369879
20
0.502742
30
0.0
11
0.369166
21
0.503241
31
0.0
0
LINE
8
TOP
10
0.369166
20
0.503241
30
0.0
11
0.368442
21
0.503722
31
0.0
0
LINE
8
TOP
10
0.368442
20
0.503722
30
0.0
11
0.367705
21
0.504185
31
0.0
0
LINE
8
TOP
10
0.367705
20
0.504185
30
0.0
11
0.366958
21
0.504629
31
0.0
0
LINE
8
TOP
10
0.366958
20
0.504629
30
0.0
11
0.366199
21
0.505054
31
0.0
0
LINE
8
TOP
10
0.366199
20
0.505054
30
0.0
11
0.365430
21
0.505461
31
0.0
0
LINE
8
TOP
10
0.365430
20
0.505461
30
0.0
11
0.364651
21
0.505848
31
0.0
0
LINE
8
TOP
10
0.364651
20
0.505848
30
0.0
11
0.363863
21
0.506215
31
0.0
0
LINE
8
TOP
10
0.363863
20
0.506215
30
0.0
11
0.363066
21
0.506563
31
0.0
0
LINE
8
TOP
10
0.363066
20
0.506563
30
0.0
11
0.362260
21
0.506891
31
0.0
0
LINE
8
TOP
10
0.362260
20
0.506891
30
0.0
11
0.361447
21
0.507199
31
0.0
0
LINE
8
TOP
10
0.361447
20
0.507199
30
0.0
11
0.360626
21
0.507486
31
0.0
0
LINE
8
TOP
10
0.360626
20
0.507486
30
0.0
11
0.359798
21
0.507753
31
0.0
0
LINE
8
TOP
10
0.359798
20
0.507753
30
0.0
11
0.358964
21
0.507999
31
0.0
0
LINE
8
TOP
10
0.358964
20
0.507999
30
0.0
11
0.358123
21
0.508224
31
0.0
0
LINE
8
TOP
10
0.358123
20
0.508224
30
0.0
11
0.357278
21
0.508428
31
0.0
0
LINE
8
TOP
10
0.357278
20
0.508428
30
0.0
11
0.356428
21
0.508611
31
0.0
0
LINE
8
TOP
10
0.356428
20
0.508611
30
0.0
11
0.355573
21
0.508772
31
0.0
0
LINE
8
TOP
10
0.355573
20
0.508772
30
0.0
11
0.354715
21
0.508913
31
0.0
0
LINE
8
TOP
10
0.354715
20
0.508913
30
0.0
11
0.353853
21
0.509032
31
0.0
0
LINE
8
TOP
10
0.353853
20
0.509032
30
0.0
11
0.352989
21
0.509129
31
0.0
0
LINE
8
TOP
10
0.352989
20
0.509129
30
0.0
11
0.352123
21
0.509205
31
0.0
0
LINE
8
TOP
10
0.352123
20
0.509205
30
0.0
11
0.351254
21
0.509259
31
0.0
0
LINE
8
TOP
10
0.351254
20
0.509259
30
0.0
11
0.350385
21
0.509291
31
0.0
0
LINE
8
TOP
10
0.350385
20
0.509291
30
0.0
11
0.349516
21
0.509302
31
0.0
0
LINE
8
TOP
10
0.349516
20
0.509302
30
0.0
11
0.284041
21
0.509302
31
0.0
0
LINE
8
TOP
10
0.284041
20
0.509302
30
0.0
11
0.283171
21
0.509313
31
0.0
0
LINE
8
TOP
10
0.283171
20
0.509313
30
0.0
11
0.282302
21
0.509346
31
0.0
0
LINE
8
TOP
10
0.282302
20
0.509346
30
0.0
11
0.281434
21
0.509400
31
0.0
0
LINE
8
TOP
10
0.281434
20
0.509400
30
0.0
11
0.280567
21
0.509476
31
0.0
0
LINE
8
TOP
10
0.280567
20
0.509476
30
0.0
11
0.279703
21
0.509573
31
0.0
0
LINE
8
TOP
10
0.279703
20
0.509573
30
0.0
11
0.278841
21
0.509692
31
0.0
0
LINE
8
TOP
10
0.278841
20
0.509692
30
0.0
11
0.277983
21
0.509832
31
0.0
0
LINE
8
TOP
10
0.277983
20
0.509832
30
0.0
11
0.277129
21
0.509994
31
0.0
0
LINE
8
TOP
10
0.277129
20
0.509994
30
0.0
11
0.276278
21
0.510177
31
0.0
0
LINE
8
TOP
10
0.276278
20
0.510177
30
0.0
11
0.275433
21
0.510381
31
0.0
0
LINE
8
TOP
10
0.275433
20
0.510381
30
0.0
11
0.274593
21
0.510606
31
0.0
0
LINE
8
TOP
10
0.274593
20
0.510606
30
0.0
11
0.273758
21
0.510852
31
0.0
0
LINE
8
TOP
10
0.273758
20
0.510852
30
0.0
11
0.272931
21
0.511119
31
0.0
0
LINE
8
TOP
10
0.272931
20
0.511119
30
0.0
11
0.272110
21
0.511406
31
0.0
0
LINE
8
TOP
10
0.272110
20
0.511406
30
0.0
11
0.271296
21
0.511714
31
0.0
0
LINE
8
TOP
10
0.271296
20
0.511714
30
0.0
11
0.270491
21
0.512042
31
0.0
0
LINE
8
TOP
10
0.270491
20
0.512042
30
0.0
11
0.269693
21
0.512389
31
0.0
0
LINE
8
TOP
10
0.269693
20
0.512389
30
0.0
11
0.268905
21
0.512757
31
0.0
0
LINE
8
TOP
10
0.268905
20
0.512757
30
0.0
11
0.268126
21
0.513144
31
0.0
0
LINE
8
TOP
10
0.268126
20
0.513144
30
0.0
11
0.267357
21
0.513550
31
0.0
0
LINE
8
TOP
10
0.267357
20
0.513550
30
0.0
11
0.266599
21
0.513976
31
0.0
0
LINE
8
TOP
10
0.266599
20
0.513976
30
0.0
11
0.265851
21
0.514420
31
0.0
0
LINE
8
TOP
10
0.265851
20
0.514420
30
0.0
11
0.265115
21
0.514883
31
0.0
0
LINE
8
TOP
10
0.265115
20
0.514883
30
0.0
11
0.264390
21
0.515364
31
0.0
0
LINE
8
TOP
10
0.264390
20
0.515364
30
0.0
11
0.263677
21
0.515863
31
0.0
0
LINE
8
TOP
10
0.263677
20
0.515863
30
0.0
11
0.262978
21
0.516379
31
0.0
0
LINE
8
TOP
10
0.262978
20
0.516379
30
0.0
11
0.262291
21
0.516913
31
0.0
0
LINE
8
TOP
10
0.262291
20
0.516913
30
0.0
11
0.261618
21
0.517464
31
0.0
0
LINE
8
TOP
10
0.261618
20
0.517464
30
0.0
11
0.260959
21
0.518031
31
0.0
0
LINE
8
TOP
10
0.260959
20
0.518031
30
0.0
11
0.260314
21
0.518614
31
0.0
0
LINE
8
TOP
10
0.260314
20
0.518614
30
0.0
11
0.259683
21
0.519214
31
0.0
0
LINE
8
TOP
10
0.259683
20
0.519214
30
0.0
11
0.259068
21
0.519829
31
0.0
0
LINE
8
TOP
10
0.259068
20
0.519829
30
0.0
11
0.258469
21
0.520459
31
0.0
0
LINE
8
TOP
10
0.258469
20
0.520459
30
0.0
11
0.257885
21
0.521104
31
0.0
0
LINE
8
TOP
10
0.257885
20
0.521104
30
0.0
11
0.257318
21
0.521763
31
0.0
0
LINE
8
TOP
10
0.257318
20
0.521763
30
0.0
11
0.256767
21
0.522436
31
0.0
0
LINE
8
TOP
10
0.256767
20
0.522436
30
0.0
11
0.256234
21
0.523123
31
0.0
0
LINE
8
TOP
10
0.256234
20
0.523123
30
0.0
11
0.255717
21
0.523823
31
0.0
0
LINE
8
TOP
10
0.255717
20
0.523823
30
0.0
11
0.255218
21
0.524535
31
0.0
0
LINE
8
TOP
10
0.255218
20
0.524535
30
0.0
11
0.254737
21
0.525260
31
0.0
0
LINE
8
TOP
10
0.254737
20
0.525260
30
0.0
11
0.254275
21
0.525996
31
0.0
0
LINE
8
TOP
10
0.254275
20
0.525996
30
0.0
11
0.253830
21
0.526744
31
0.0
0
LINE
8
TOP
10
0.253830
20
0.526744
30
0.0
11
0.253405
21
0.527503
31
0.0
0
LINE
8
TOP
10
0.253405
20
0.527503
30
0.0
11
0.252999
21
0.528272
31
0.0
0
LINE
8
TOP
10
0.252999
20
0.528272
30
0.0
11
0.252611
21
0.529051
31
0.0
0
LINE
8
TOP
10
0.252611
20
0.529051
30
0.0
11
0.252244
21
0.529839
31
0.0
0
LINE
8
TOP
10
0.252244
20
0.529839
30
0.0
11
0.251896
21
0.530636
31
0.0
0
LINE
8
TOP
10
0.251896
20
0.530636
30
0.0
11
0.251568
21
0.531442
31
0.0
0
LINE
8
TOP
10
0.251568
20
0.531442
30
0.0
11
0.251261
21
0.532255
31
0.0
0
LINE
8
TOP
10
0.251261
20
0.532255
30
0.0
11
0.250973
21
0.533076
31
0.0
0
LINE
8
TOP
10
0.250973
20
0.533076
30
0.0
11
0.250707
21
0.533904
31
0.0
0
LINE
8
TOP
10
0.250707
20
0.533904
30
0.0
11
0.250461
21
0.534738
31
0.0
0
LINE
8
TOP
10
0.250461
20
0.534738
30
0.0
11
0.250236
21
0.535578
31
0.0
0
LINE
8
TOP
10
0.250236
20
0.535578
30
0.0
11
0.250031
21
0.536424
31
0.0
0
LINE
8
TOP
10
0.250031
20
0.536424
30
0.0
11
0.249849
21
0.537274
31
0.0
0
LINE
8
TOP
10
0.249849
20
0.537274
30
0.0
11
0.249687
21
0.538129
31
0.0
0
LINE
8
TOP
10
0.249687
20
0.538129
30
0.0
11
0.249546
21
0.538987
31
0.0
0
LINE
8
TOP
10
0.249546
20
0.538987
30
0.0
11
0.249428
21
0.539848
31
0.0
0
LINE
8
TOP
10
0.249428
20
0.539848
30
0.0
11
0.249330
21
0.540713
31
0.0
0
LINE
8
TOP
10
0.249330
20
0.540713
30
0.0
11
0.249254
21
0.541579
31
0.0
0
LINE
8
TOP
10
0.249254
20
0.541579
30
0.0
11
0.249200
21
0.542447
31
0.0
0
LINE
8
TOP
10
0.249200
20
0.542447
30
0.0
11
0.249168
21
0.543316
31
0.0
0
LINE
8
TOP
10
0.249168
20
0.543316
30
0.0
11
0.249157
21
0.544186
31
0.0
0
LINE
8
TOP
10
0.249157
20
0.544186
30
0.0
11
0.249157
21
0.750000
31
0.0
0
LINE
8
TOP
10
0.249157
20
0.750000
30
0.0
11
0.249070
21
0.753655
31
0.0
0
LINE
8
TOP
10
0.249070
20
0.753655
30
0.0
11
0.248809
21
0.757303
31
0.0
0
LINE
8
TOP
10
0.248809
20
0.757303
30
0.0
11
0.248374
21
0.760933
31
0.0
0
LINE
8
TOP
10
0.248374
20
0.760933
30
0.0
11
0.247767
21
0.764539
31
0.0
0
LINE
8
TOP
10
0.247767
20
0.764539
30
0.0
11
0.246989
21
0.768112
31
0.0
0
LINE
8
TOP
10
0.246989
20
0.768112
30
0.0
11
0.246042
21
0.771644
31
0.0
0
LINE
8
TOP
10
0.246042
20
0.771644
30
0.0
11
0.244927
21
0.775126
31
0.0
0
LINE
8
TOP
10
0.244927
20
0.775126
30
0.0
11
0.243648
21
0.778552
31
0.0
0
LINE
8
TOP
10
0.243648
20
0.778552
30
0.0
11
0.242207
21
0.781912
31
0.0
0
LINE
8
TOP
10
0.242207
20
0.781912
30
0.0
11
0.240608
21
0.785201
31
0.0
0
LINE
8
TOP
10
0.240608
20
0.785201
30
0.0
11
0.238854
21
0.788409
31
0.0
0
LINE
8
TOP
10
0.238854
20
0.788409
30
0.0
11
0.236949
21
0.791530
31
0.0
0
LINE
8
TOP
10
0.236949
20
0.791530
30
0.0
11
0.234897
21
0.794557
31
0.0
0
LINE
8
TOP
10
0.234897
20
0.794557
30
0.0
11
0.232704
21
0.797483
31
0.0
0
LINE
8
TOP
10
0.232704
20
0.797483
30
0.0
11
0.230374
21
0.800301
31
0.0
0
LINE
8
TOP
10
0.230374
20
0.800301
30
0.0
11
0.227912
21
0.803004
31
0.0
0
LINE
8
TOP
10
0.227912
20
0.803004
30
0.0
11
0.225325
21
0.805588
31
0.0
0
LINE
8
TOP
10
0.225325
20
0.805588
30
0.0
11
0.222617
21
0.808045
31
0.0
0
LINE
8
TOP
10
0.222617
20
0.808045
30
0.0
11
0.219795
21
0.810370
31
0.0
0
LINE
8
TOP
10
0.219795
20
0.810370
30
0.0
11
0.216866
21
0.812559
31
0.0
0
LINE
8
TOP
10
0.216866
20
0.812559
30
0.0
11
0.213835
21
0.814605
31
0.0
0
LINE
8
TOP
10
0.213835
20
0.814605
30
0.0
11
0.210711
21
0.816505
31
0.0
0
LINE
8
TOP
10
0.210711
20
0.816505
30
0.0
11
0.207500
21
0.818254
31
0.0
0
LINE
8
TOP
10
0.207500
20
0.818254
30
0.0
11
0.204209
21
0.819847
31
0.0
0
LINE
8
TOP
10
0.204209
20
0.819847
30
0.0
11
0.200846
21
0.821283
31
0.0
0
LINE
8
TOP
10
0.200846
20
0.821283
30
0.0
11
0.197418
21
0.822556
31
0.0
0
LINE
8
TOP
10
0.197418
20
0.822556
30
0.0
11
0.193934
21
0.823665
31
0.0
0
LINE
8
TOP
10
0.193934
20
0.823665
30
0.0
11
0.190401
21
0.824606
31
0.0
0
LINE
8
TOP
10
0.190401
20
0.824606
30
0.0
11
0.186827
21
0.825378
31
0.0
0
LINE
8
TOP
10
0.186827
20
0.825378
30
0.0
11
0.183220
21
0.825979
31
0.0
0
LINE
8
TOP
10
0.183220
20
0.825979
30
0.0
11
0.179588
21
0.826408
31
0.0
0
LINE
8
TOP
10
0.179588
20
0.826408
30
0.0
11
0.175941
21
0.826663
31
0.0
0
LINE
8
TOP
10
0.175941
20
0.826663
30
0.0
11
0.172285
21
0.826744
31
0.0
0
LINE
8
TOP
10
0.172285
20
0.826744
30
0.0
11
0.168630
21
0.826651
31
0.0
0
LINE
8
TOP
10
0.168630
20
0.826651
30
0.0
11
0.164983
21
0.826384
31
0.0
0
LINE
8
TOP
10
0.164983
20
0.826384
30
0.0
11
0.161353
21
0.825943
31
0.0
0
LINE
8
TOP
10
0.161353
20
0.825943
30
0.0
11
0.157748
21
0.825330
31
0.0
0
LINE
8
TOP
10
0.157748
20
0.825330
30
0.0
11
0.154177
21
0.824546
31
0.0
0
LINE
8
TOP
10
0.154177
20
0.824546
30
0.0
11
0.150647
21
0.823593
31
0.0
0
LINE
8
TOP
10
0.150647
20
0.823593
30
0.0
11
0.147166
21
0.822473
31
0.0
0
LINE
8
TOP
10
0.147166
20
0.822473
30
0.0
11
0.143743
21
0.821188
31
0.0
0
LINE
8
TOP
10
0.143743
20
0.821188
30
0.0
11
0.140384
21
0.819741
31
0.0
0
LINE
8
TOP
10
0.140384
20
0.819741
30
0.0
11
0.137099
21
0.818137
31
0.0
0
LINE
8
TOP
10
0.137099
20
0.818137
30
0.0
11
0.133893
21
0.816377
31
0.0
0
LINE
8
TOP
10
0.133893
20
0.816377
30
0.0
11
0.130775
21
0.814467
31
0.0
0
LINE
8
TOP
10
0.130775
20
0.814467
30
0.0
11
0.127752
21
0.812411
31
0.0
0
LINE
8
TOP
10
0.127752
20
0.812411
30
0.0
11
0.124830
21
0.810213
31
0.0
0
LINE
8
TOP
10
0.124830
20
0.810213
30
0.0
11
0.122016
21
0.807878
31
0.0
0
LINE
8
TOP
10
0.122016
20
0.807878
30
0.0
11
0.119316
21
0.805411
31
0.0
0
LINE
8
TOP
10
0.119316
20
0.805411
30
0.0
11
0.116737
21
0.802819
31
0.0
0
LINE
8
TOP
10
0.116737
20
0.802819
30
0.0
11
0.114284
21
0.800108
31
0.0
0
LINE
8
TOP
10
0.114284
20
0.800108
30
0.0
11
0.111964
21
0.797282
31
0.0
0
LINE
8
TOP
10
0.111964
20
0.797282
30
0.0
11
0.109780
21
0.794349
31
0.0
0
LINE
8
TOP
10
0.109780
20
0.794349
30
0.0
11
0.107739
21
0.791315
31
0.0
0
LINE
8
TOP
10
0.107739
20
0.791315
30
0.0
11
0.105844
21
0.788188
31
0.0
0
LINE
8
TOP
10
0.105844
20
0.788188
30
0.0
11
0.104101
21
0.784974
31
0.0
0
LINE
8
TOP
10
0.104101
20
0.784974
30
0.0
11
0.102512
21
0.781680
31
0.0
0
LINE
8
TOP
10
0.102512
20
0.781680
30
0.0
11
0.101083
21
0.778315
31
0.0
0
LINE
8
TOP
10
0.101083
20
0.778315
30
0.0
11
0.099815
21
0.774885
31
0.0
0
LINE
8
TOP
10
0.099815
20
0.774885
30
0.0
11
0.098712
21
0.771399
31
0.0
0
LINE
8
TOP
10
0.098712
20
0.771399
30
0.0
11
0.097777
21
0.767864
31
0.0
0
LINE
8
TOP
10
0.097777
20
0.767864
30
0.0
11
0.097010
21
0.764288
31
0.0
0
LINE
8
TOP
10
0.097010
20
0.764288
30
0.0
11
0.096415
21
0.760681
31
0.0
0
LINE
8
TOP
10
0.040727
20
0.061744
30
0.0
11
0.040769
21
0.060049
31
0.0
0
LINE
8
TOP
10
0.040769
20
0.060049
30
0.0
11
0.040896
21
0.058358
31
0.0
0
LINE
8
TOP
10
0.040896
20
0.058358
30
0.0
11
0.041107
21
0.056675
31
0.0
0
LINE
8
TOP
10
0.041107
20
0.056675
30
0.0
11
0.041401
21
0.055005
31
0.0
0
LINE
8
TOP
10
0.041401
20
0.055005
30
0.0
11
0.041778
21
0.053352
31
0.0
0
LINE
8
TOP
10
0.041778
20
0.053352
30
0.0
11
0.042238
21
0.051719
31
0.0
0
LINE
8
TOP
10
0.042238
20
0.051719
30
0.0
11
0.042778
21
0.050112
31
0.0
0
LINE
8
TOP
10
0.042778
20
0.050112
30
0.0
11
0.043397
21
0.048533
31
0.0
0
LINE
8
TOP
10
0.043397
20
0.048533
30
0.0
11
0.044095
21
0.046987
31
0.0
0
LINE
8
TOP
10
0.044095
20
0.046987
30
0.0
11
0.044869
21
0.045478
31
0.0
0
LINE
8
TOP
10
0.044869
20
0.045478
30
0.0
11
0.045716
21
0.044009
31
0.0
0
LINE
8
TOP
10
0.045716
20
0.044009
30
0.0
11
0.046637
21
0.042585
31
0.0
0
LINE
8
TOP
10
0.046637
20
0.042585
30
0.0
11
0.047626
21
0.041208
31
0.0
0
LINE
8
TOP
10
0.047626
20
0.041208
30
0.0
11
0.048684
21
0.039882
31
0.0
0
LINE
8
TOP
10
0.048684
20
0.039882
30
0.0
11
0.049806
21
0.038610
31
0.0
0
LINE
8
TOP
10
0.049806
20
0.038610
30
0.0
11
0.050990
21
0.037396
31
0.0
0
LINE
8
TOP
10
0.050990
20
0.037396
30
0.0
11
0.052233
21
0.036243
31
0.0
0
LINE
8
TOP
10
0.052233
20
0.036243
30
0.0
11
0.053532
21
0.035153
31
0.0
0
LINE
8
TOP
10
0.053532
20
0.035153
30
0.0
11
0.054884
21
0.034129
31
0.0
0
LINE
8
TOP
10
0.054884
20
0.034129
30
0.0
11
0.056285
21
0.033174
31
0.0
0
LINE
8
TOP
10
0.056285
20
0.033174
30
0.0
11
0.057732
21
0.032289
31
0.0
0
LINE
8
TOP
10
0.057732
20
0.032289
30
0.0
11
0.059222
21
0.031478
31
0.0
0
LINE
8
TOP
10
0.059222
20
0.031478
30
0.0
11
0.060750
21
0.030742
31
0.0
0
LINE
8
TOP
10
0.060750
20
0.030742
30
0.0
11
0.062312
21
0.030084
31
0.0
0
LINE
8
TOP
10
0.062312
20
0.030084
30
0.0
11
0.063906
21
0.029504
31
0.0
0
LINE
8
TOP
10
0.063906
20
0.029504
30
0.0
11
0.065527
21
0.029004
31
0.0
0
LINE
8
TOP
10
0.065527
20
0.029004
30
0.0
11
0.067170
21
0.028585
31
0.0
0
LINE
8
TOP
10
0.067170
20
0.028585
30
0.0
11
0.068832
21
0.028249
31
0.0
0
LINE
8
TOP
10
0.068832
20
0.028249
30
0.0
11
0.070509
21
0.027997
31
0.0
0
LINE
8
TOP
10
0.070509
20
0.027997
30
0.0
11
0.072197
21
0.027828
31
0.0
0
LINE
8
TOP
10
0.072197
20
0.027828
30
0.0
11
0.073890
21
0.027743
31
0.0
0
LINE
8
TOP
10
0.073890
20
0.027743
30
0.0
11
0.075586
21
0.027743
31
0.0
0
LINE
8
TOP
10
0.075586
20
0.027743
30
0.0
11
0.077280
21
0.027828
31
0.0
0
LINE
8
TOP
10
0.077280
20
0.027828
30
0.0
11
0.078967
21
0.027997
31
0.0
0
LINE
8
TOP
10
0.078967
20
0.027997
30
0.0
11
0.080644
21
0.028249
31
0.0
0
LINE
8
TOP
10
0.080644
20
0.028249
30
0.0
11
0.082307
21
0.028585
31
0.0
0
LINE
8
TOP
10
0.082307
20
0.028585
30
0.0
11
0.083950
21
0.029004
31
0.0
0
LINE
8
TOP
10
0.083950
20
0.029004
30
0.0
11
0.085571
21
0.029504
31
0.0
0
LINE
8
TOP
10
0.085571
20
0.029504
30
0.0
11
0.087164
21
0.030084
31
0.0
0
LINE
8
TOP
10
0.087164
20
0.030084
30
0.0
11
0.088727
21
0.030742
31
0.0
0
LINE
8
TOP
10
0.088727
20
0.030742
30
0.0
11
0.090255
21
0.031478
31
0.0
0
LINE
8
TOP
10
0.090255
20
0.031478
30
0.0
11
0.091744
21
0.032289
31
0.0
0
LINE
8
TOP
10
0.091744
20
0.032289
30
0.0
11
0.093191
21
0.033174
31
0.0
0
LINE
8
TOP
10
0.093191
20
0.033174
30
0.0
11
0.094592
21
0.034129
31
0.0
0
LINE
8
TOP
10
0.094592
20
0.034129
30
0.0
11
0.095944
21
0.035153
31
0.0
0
LINE
8
TOP
10
0.095944
20
0.035153
30
0.0
11
0.097243
21
0.036243
31
0.0
0
LINE
8
TOP
10
0.097243
20
0.036243
30
0.0
11
0.098486
21
0.037396
31
0.0
0
LINE
8
TOP
10
0.098486
20
0.037396
30
0.0
11
0.099671
21
0.038610
31
0.0
0
LINE
8
TOP
10
0.099671
20
0.038610
30
0.0
11
0.100793
21
0.039882
31
0.0
0
LINE
8
TOP
10
0.100793
20
0.039882
30
0.0
11
0.101850
21
0.041208
31
0.0
0
LINE
8
TOP
10
0.101850
20
0.041208
30
0.0
11
0.102840
21
0.042585
31
0.0
0
LINE
8
TOP
10
0.102840
20
0.042585
30
0.0
11
0.103760
21
0.044009
31
0.0
0
LINE
8
TOP
10
0.103760
20
0.044009
30
0.0
11
0.104608
21
0.045478
31
0.0
0
LINE
8
TOP
10
0.104608
20
0.045478
30
0.0
11
0.105382
21
0.046987
31
0.0
0
LINE
8
TOP
10
0.105382
20
0.046987
30
0.0
11
0.106079
21
0.048533
31
0.0
0
LINE
8
TOP
10
0.106079
20
0.048533
30
0.0
11
0.106699
21
0.050112
31
0.0
0
LINE
8
TOP
10
0.106699
20
0.050112
30
0.0
11
0.107239
21
0.051719
31
0.0
0
LINE
8
TOP
10
0.107239
20
0.051719
30
0.0
11
0.107698
21
0.053352
31
0.0
0
LINE
8
TOP
10
0.107698
20
0.053352
30
0.0
11
0.108076
21
0.055005
31
0.0
0
LINE
8
TOP
10
0.108076
20
0.055005
30
0.0
11
0.108370
21
0.056675
31
0.0
0
LINE
8
TOP
10
0.108370
20
0.056675
30
0.0
11
0.108581
21
0.058358
31
0.0
0
LINE
8
TOP
10
0.108581
20
0.058358
30
0.0
11
0.108708
21
0.060049
31
0.0
0
LINE
8
TOP
10
0.108708
20
0.060049
30
0.0
11
0.108750
21
0.061744
31
0.0
0
LINE
8
TOP
10
0.040727
20
0.094186
30
0.0
11
0.040727
21
0.061744
31
0.0
0
LINE
8
TOP
10
0.108750
20
0.094186
30
0.0
11
0.108708
21
0.095881
31
0.0
0
LINE
8
TOP
10
0.108708
20
0.095881
30
0.0
11
0.108581
21
0.097573
31
0.0
0
LINE
8
TOP
10
0.108581
20
0.097573
30
0.0
11
0.108370
21
0.099255
31
0.0
0
LINE
8
TOP
10
0.108370
20
0.099255
30
0.0
11
0.108076
21
0.100925
31
0.0
0
LINE
8
TOP
10
0.108076
20
0.100925
30
0.0
11
0.107698
21
0.102579
31
0.0
0
LINE
8
TOP
10
0.107698
20
0.102579
30
0.0
11
0.107239
21
0.104211
31
0.0
0
LINE
8
TOP
10
0.107239
20
0.104211
30
0.0
11
0.106699
21
0.105819
31
0.0
0
LINE
8
TOP
10
0.106699
20
0.105819
30
0.0
11
0.106079
21
0.107397
31
0.0
0
LINE
8
TOP
10
0.106079
20
0.107397
30
0.0
11
0.105382
21
0.108943
31
0.0
0
LINE
8
TOP
10
0.105382
20
0.108943
30
0.0
11
0.104608
21
0.110452
31
0.0
0
LINE
8
TOP
10
0.104608
20
0.110452
30
0.0
11
0.103760
21
0.111921
31
0.0
0
LINE
8
TOP
10
0.103760
20
0.111921
30
0.0
11
0.102840
21
0.113345
31
0.0
0
LINE
8
TOP
10
0.102840
20
0.113345
30
0.0
11
0.101850
21
0.114722
31
0.0
0
LINE
8
TOP
10
0.101850
20
0.114722
30
0.0
11
0.100793
21
0.116048
31
0.0
0
LINE
8
TOP
10
0.100793
20
0.116048
30
0.0
11
0.099671
21
0.117320
31
0.0
0
LINE
8
TOP
10
0.099671
20
0.117320
30
0.0
11
0.098486
21
0.118534
31
0.0
0
LINE
8
TOP
10
0.098486
20
0.118534
30
0.0
11
0.097243
21
0.119687
31
0.0
0
LINE
8
TOP
10
0.097243
20
0.119687
30
0.0
11
0.095944
21
0.120777
31
0.0
0
LINE
8
TOP
10
0.095944
20
0.120777
30
0.0
11
0.094592
21
0.121801
31
0.0
0
LINE
8
TOP
10
0.094592
20
0.121801
30
0.0
11
0.093191
21
0.122757
31
0.0
0
LINE
8
TOP
10
0.093191
20
0.122757
30
0.0
11
0.091744
21
0.123641
31
0.0
0
LINE
8
TOP
10
0.091744
20
0.123641
30
0.0
11
0.090255
21
0.124452
31
0.0
0
LINE
8
TOP
10
0.090255
20
0.124452
30
0.0
11
0.088727
21
0.125188
31
0.0
0
LINE
8
TOP
10
0.088727
20
0.125188
30
0.0
11
0.087164
21
0.125847
31
0.0
0
LINE
8
TOP
10
0.087164
20
0.125847
30
0.0
11
0.085571
21
0.126427
31
0.0
0
LINE
8
TOP
10
0.085571
20
0.126427
30
0.0
11
0.083950
21
0.126926
31
0.0
0
LINE
8
TOP
10
0.083950
20
0.126926
30
0.0
11
0.082307
21
0.127345
31
0.0
0
LINE
8
TOP
10
0.082307
20
0.127345
30
0.0
11
0.080644
21
0.127681
31
0.0
0
LINE
8
TOP
10
0.080644
20
0.127681
30
0.0
11
0.078967
21
0.127934
31
0.0
0
LINE
8
TOP
10
0.078967
20
0.127934
30
0.0
11
0.077280
21
0.128103
31
0.0
0
LINE
8
TOP
10
0.077280
20
0.128103
30
0.0
11
0.075586
21
0.128187
31
0.0
0
LINE
8
TOP
10
0.075586
20
0.128187
30
0.0
11
0.073890
21
0.128187
31
0.0
0
LINE
8
TOP
10
0.073890
20
0.128187
30
0.0
11
0.072197
21
0.128103
31
0.0
0
LINE
8
TOP
10
0.072197
20
0.128103
30
0.0
11
0.070509
21
0.127934
31
0.0
0
LINE
8
TOP
10
0.070509
20
0.127934
30
0.0
11
0.068832
21
0.127681
31
0.0
0
LINE
8
TOP
10
0.068832
20
0.127681
30
0.0
11
0.067170
21
0.127345
31
0.0
0
LINE
8
TOP
10
0.067170
20
0.127345
30
0.0
11
0.065527
21
0.126926
31
0.0
0
LINE
8
TOP
10
0.065527
20
0.126926
30
0.0
11
0.063906
21
0.126427
31
0.0
0
LINE
8
TOP
10
0.063906
20
0.126427
30
0.0
11
0.062312
21
0.125847
31
0.0
0
LINE
8
TOP
10
0.062312
20
0.125847
30
0.0
11
0.060750
21
0.125188
31
0.0
0
LINE
8
TOP
10
0.060750
20
0.125188
30
0.0
11
0.059222
21
0.124452
31
0.0
0
LINE
8
TOP
10
0.059222
20
0.124452
30
0.0
11
0.057732
21
0.123641
31
0.0
0
LINE
8
TOP
10
0.057732
20
0.123641
30
0.0
11
0.056285
21
0.122757
31
0.0
0
LINE
8
TOP
10
0.056285
20
0.122757
30
0.0
11
0.054884
21
0.121801
31
0.0
0
LINE
8
TOP
10
0.054884
20
0.121801
30
0.0
11
0.053532
21
0.120777
31
0.0
0
LINE
8
TOP
10
0.053532
20
0.120777
30
0.0
11
0.052233
21
0.119687
31
0.0
0
LINE
8
TOP
10
0.052233
20
0.119687
30
0.0
11
0.050990
21
0.118534
31
0.0
0
LINE
8
TOP
10
0.050990
20
0.118534
30
0.0
11
0.049806
21
0.117320
31
0.0
0
LINE
8
TOP
10
0.049806
20
0.117320
30
0.0
11
0.048684
21
0.116048
31
0.0
0
LINE
8
TOP
10
0.048684
20
0.116048
30
0.0
11
0.047626
21
0.114722
31
0.0
0
LINE
8
TOP
10
0.047626
20
0.114722
30
0.0
11
0.046637
21
0.113345
31
0.0
0
LINE
8
TOP
10
0.046637
20
0.113345
30
0.0
11
0.045716
21
0.111921
31
0.0
0
LINE
8
TOP
10
0.045716
20
0.111921
30
0.0
11
0.044869
21
0.110452
31
0.0
0
LINE
8
TOP
10
0.044869
20
0.110452
30
0.0
11
0.044095
21
0.108943
31
0.0
0
LINE
8
TOP
10
0.044095
20
0.108943
30
0.0
11
0.043397
21
0.107397
31
0.0
0
LINE
8
TOP
10
0.043397
20
0.107397
30
0.0
11
0.042778
21
0.105819
31
0.0
0
LINE
8
TOP
10
0.042778
20
0.105819
30
0.0
11
0.042238
21
0.104211
31
0.0
0
LINE
8
TOP
10
0.042238
20
0.104211
30
0.0
11
0.041778
21
0.102579
31
0.0
0
LINE
8
TOP
10
0.041778
20
0.102579
30
0.0
11
0.041401
21
0.100925
31
0.0
0
LINE
8
TOP
10
0.041401
20
0.100925
30
0.0
11
0.041107
21
0.099255
31
0.0
0
LINE
8
TOP
10
0.041107
20
0.099255
30
0.0
11
0.040896
21
0.097573
31
0.0
0
LINE
8
TOP
10
0.040896
20
0.097573
30
0.0
11
0.040769
21
0.095881
31
0.0
0
LINE
8
TOP
10
0.040769
20
0.095881
30
0.0
11
0.040727
21
0.094186
31
0.0
0
LINE
8
TOP
10
0.108750
20
0.061744
30
0.0
11
0.108750
21
0.094186
31
0.0
0
LINE
8
TOP
10
0.194738
20
0.750000
30
0.0
11
0.194627
21
0.752223
31
0.0
0
LINE
8
TOP
10
0.194627
20
0.752223
30
0.0
11
0.194296
21
0.754424
31
0.0
0
LINE
8
TOP
10
0.194296
20
0.754424
30
0.0
11
0.193746
21
0.756581
31
0.0
0
LINE
8
TOP
10
0.193746
20
0.756581
30
0.0
11
0.192985
21
0.758672
31
0.0
0
LINE
8
TOP
10
0.192985
20
0.758672
30
0.0
11
0.192019
21
0.760677
31
0.0
0
LINE
8
TOP
10
0.192019
20
0.760677
30
0.0
11
0.190859
21
0.762576
31
0.0
0
LINE
8
TOP
10
0.190859
20
0.762576
30
0.0
11
0.189515
21
0.764351
31
0.0
0
LINE
8
TOP
10
0.189515
20
0.764351
30
0.0
11
0.188001
21
0.765982
31
0.0
0
LINE
8
TOP
10
0.188001
20
0.765982
30
0.0
11
0.186332
21
0.767455
31
0.0
0
LINE
8
TOP
10
0.186332
20
0.767455
30
0.0
11
0.184525
21
0.768754
31
0.0
0
LINE
8
TOP
10
0.184525
20
0.768754
30
0.0
11
0.182598
21
0.769867
31
0.0
0
LINE
8
TOP
10
0.182598
20
0.769867
30
0.0
11
0.180569
21
0.770782
31
0.0
0
LINE
8
TOP
10
0.180569
20
0.770782
30
0.0
11
0.178459
21
0.771491
31
0.0
0
LINE
8
TOP
10
0.178459
20
0.771491
30
0.0
11
0.176289
21
0.771986
31
0.0
0
LINE
8
TOP
10
0.176289
20
0.771986
30
0.0
11
0.174081
21
0.772263
31
0.0
0
LINE
8
TOP
10
0.174081
20
0.772263
30
0.0
11
0.171856
21
0.772319
31
0.0
0
LINE
8
TOP
10
0.171856
20
0.772319
30
0.0
11
0.169637
21
0.772152
31
0.0
0
LINE
8
TOP
10
0.169637
20
0.772152
30
0.0
11
0.167445
21
0.771766
31
0.0
0
LINE
8
TOP
10
0.167445
20
0.771766
30
0.0
11
0.165302
21
0.771163
31
0.0
0
LINE
8
TOP
10
0.165302
20
0.771163
30
0.0
11
0.163230
21
0.770350
31
0.0
0
LINE
8
TOP
10
0.163230
20
0.770350
30
0.0
11
0.161250
21
0.769335
31
0.0
0
LINE
8
TOP
10
0.161250
20
0.769335
30
0.0
11
0.159380
21
0.768127
31
0.0
0
LINE
8
TOP
10
0.159380
20
0.768127
30
0.0
11
0.157640
21
0.766739
31
0.0
0
LINE
8
TOP
10
0.157640
20
0.766739
30
0.0
11
0.156047
21
0.765185
31
0.0
0
LINE
8
TOP
10
0.156047
20
0.765185
30
0.0
11
0.154616
21
0.763480
31
0.0
0
LINE
8
TOP
10
0.154616
20
0.763480
30
0.0
11
0.153362
21
0.761641
31
0.0
0
LINE
8
TOP
10
0.153362
20
0.761641
30
0.0
11
0.152298
21
0.759687
31
0.0
0
LINE
8
TOP
10
0.152298
20
0.759687
30
0.0
11
0.151433
21
0.757636
31
0.0
0
LINE
8
TOP
10
0.151433
20
0.757636
30
0.0
11
0.150777
21
0.755509
31
0.0
0
LINE
8
TOP
10
0.150777
20
0.755509
30
0.0
11
0.150336
21
0.753327
31
0.0
0
LINE
8
TOP
10
0.150336
20
0.753327
30
0.0
11
0.150115
21
0.751113
31
0.0
0
LINE
8
TOP
10
0.150115
20
0.751113
30
0.0
11
0.150115
21
0.748887
31
0.0
0
LINE
8
TOP
10
0.150115
20
0.748887
30
0.0
11
0.150336
21
0.746673
31
0.0
0
LINE
8
TOP
10
0.150336
20
0.746673
30
0.0
11
0.150777
21
0.744491
31
0.0
0
LINE
8
TOP
10
0.150777
20
0.744491
30
0.0
11
0.151433
21
0.742364
31
0.0
0
LINE
8
TOP
10
0.151433
20
0.742364
30
0.0
11
0.152298
21
0.740313
31
0.0
0
LINE
8
TOP
10
0.152298
20
0.740313
30
0.0
11
0.153362
21
0.738359
31
0.0
0
LINE
8
TOP
10
0.153362
20
0.738359
30
0.0
11
0.154616
21
0.736520
31
0.0
0
LINE
8
TOP
10
0.154616
20
0.736520
30
0.0
11
0.156047
21
0.734815
31
0.0
0
LINE
8
TOP
10
0.156047
20
0.734815
30
0.0
11
0.157640
21
0.733261
31
0.0
0
LINE
8
TOP
10
0.157640
20
0.733261
30
0.0
11
0.159380
21
0.731873
31
0.0
0
LINE
8
TOP
10
0.159380
20
0.731873
30
0.0
11
0.161250
21
0.730665
31
0.0
0
LINE
8
TOP
10
0.161250
20
0.730665
30
0.0
11
0.163230
21
0.729650
31
0.0
0
LINE
8
TOP
10
0.163230
20
0.729650
30
0.0
11
0.165302
21
0.728837
31
0.0
0
LINE
8
TOP
10
0.165302
20
0.728837
30
0.0
11
0.167445
21
0.728234
31
0.0
0
LINE
8
TOP
10
0.167445
20
0.728234
30
0.0
11
0.169637
21
0.727848
31
0.0
0
LINE
8
TOP
10
0.169637
20
0.727848
30
0.0
11
0.171856
21
0.727681
31
0.0
0
LINE
8
TOP
10
0.171856
20
0.727681
30
0.0
11
0.174081
21
0.727737
31
0.0
0
LINE
8
TOP
10
0.174081
20
0.727737
30
0.0
11
0.176289
21
0.728014
31
0.0
0
LINE
8
TOP
10
0.176289
20
0.728014
30
0.0
11
0.178459
21
0.728509
31
0.0
0
LINE
8
TOP
10
0.178459
20
0.728509
30
0.0
11
0.180569
21
0.729218
31
0.0
0
LINE
8
TOP
10
0.180569
20
0.729218
30
0.0
11
0.182598
21
0.730133
31
0.0
0
LINE
8
TOP
10
0.182598
20
0.730133
30
0.0
11
0.184525
21
0.731246
31
0.0
0
LINE
8
TOP
10
0.184525
20
0.731246
30
0.0
11
0.186332
21
0.732545
31
0.0
0
LINE
8
TOP
10
0.186332
20
0.732545
30
0.0
11
0.188001
21
0.734018
31
0.0
0
LINE
8
TOP
10
0.188001
20
0.734018
30
0.0
11
0.189515
21
0.735649
31
0.0
0
LINE
8
TOP
10
0.189515
20
0.735649
30
0.0
11
0.190859
21
0.737424
31
0.0
0
LINE
8
TOP
10
0.190859
20
0.737424
30
0.0
11
0.192019
21
0.739323
31
0.0
0
LINE
8
TOP
10
0.192019
20
0.739323
30
0.0
11
0.192985
21
0.741328
31
0.0
0
LINE
8
TOP
10
0.192985
20
0.741328
30
0.0
11
0.193746
21
0.743419
31
0.0
0
LINE
8
TOP
10
0.193746
20
0.743419
30
0.0
11
0.194296
21
0.745576
31
0.0
0
LINE
8
TOP
10
0.194296
20
0.745576
30
0.0
11
0.194627
21
0.747777
31
0.0
0
LINE
8
TOP
10
0.194627
20
0.747777
30
0.0
11
0.194738
21
0.750000
31
0.0
0
LINE
8
TOP
10
0.273575
20
0.351453
30
0.0
11
0.273641
21
0.348845
31
0.0
0
LINE
8
TOP
10
0.273641
20
0.348845
30
0.0
11
0.273835
21
0.346244
31
0.0
0
LINE
8
TOP
10
0.273835
20
0.346244
30
0.0
11
0.274160
21
0.343655
31
0.0
0
LINE
8
TOP
10
0.274160
20
0.343655
30
0.0
11
0.274613
21
0.341085
31
0.0
0
LINE
8
TOP
10
0.274613
20
0.341085
30
0.0
11
0.275194
21
0.338542
31
0.0
0
LINE
8
TOP
10
0.275194
20
0.338542
30
0.0
11
0.275900
21
0.336030
31
0.0
0
LINE
8
TOP
10
0.275900
20
0.336030
30
0.0
11
0.276731
21
0.333557
31
0.0
0
LINE
8
TOP
10
0.276731
20
0.333557
30
0.0
11
0.277684
21
0.331128
31
0.0
0
LINE
8
TOP
10
0.277684
20
0.331128
30
0.0
11
0.278757
21
0.328750
31
0.0
0
LINE
8
TOP
10
0.278757
20
0.328750
30
0.0
11
0.279948
21
0.326429
31
0.0
0
LINE
8
TOP
10
0.279948
20
0.326429
30
0.0
11
0.281252
21
0.324169
31
0.0
0
LINE
8
TOP
10
0.281252
20
0.324169
30
0.0
11
0.282668
21
0.321977
31
0.0
0
LINE
8
TOP
10
0.282668
20
0.321977
30
0.0
11
0.284191
21
0.319859
31
0.0
0
LINE
8
TOP
10
0.284191
20
0.319859
30
0.0
11
0.285817
21
0.317819
31
0.0
0
LINE
8
TOP
10
0.285817
20
0.317819
30
0.0
11
0.287544
21
0.315863
31
0.0
0
LINE
8
TOP
10
0.287544
20
0.315863
30
0.0
11
0.289365
21
0.313995
31
0.0
0
LINE
8
TOP
10
0.289365
20
0.313995
30
0.0
11
0.291278
21
0.312221
31
0.0
0
LINE
8
TOP
10
0.291278
20
0.312221
30
0.0
11
0.293277
21
0.310544
31
0.0
0
LINE
8
TOP
10
0.293277
20
0.310544
30
0.0
11
0.295356
21
0.308968
31
0.0
0
LINE
8
TOP
10
0.295356
20
0.308968
30
0.0
11
0.297512
21
0.307499
31
0.0
0
LINE
8
TOP
10
0.297512
20
0.307499
30
0.0
11
0.299738
21
0.306138
31
0.0
0
LINE
8
TOP
10
0.299738
20
0.306138
30
0.0
11
0.302030
21
0.304890
31
0.0
0
LINE
8
TOP
10
0.302030
20
0.304890
30
0.0
11
0.304380
21
0.303758
31
0.0
0
LINE
8
TOP
10
0.304380
20
0.303758
30
0.0
11
0.306784
21
0.302745
31
0.0
0
LINE
8
TOP
10
0.306784
20
0.302745
30
0.0
11
0.309236
21
0.301853
31
0.0
0
LINE
8
TOP
10
0.309236
20
0.301853
30
0.0
11
0.311729
21
0.301084
31
0.0
0
LINE
8
TOP
10
0.311729
20
0.301084
30
0.0
11
0.314258
21
0.300440
31
0.0
0
LINE
8
TOP
10
0.314258
20
0.300440
30
0.0
11
0.316815
21
0.299923
31
0.0
0
LINE
8
TOP
10
0.316815
20
0.299923
30
0.0
11
0.319395
21
0.299534
31
0.0
0
LINE
8
TOP
10
0.319395
20
0.299534
30
0.0
11
0.321991
21
0.299274
31
0.0
0
LINE
8
TOP
10
0.321991
20
0.299274
30
0.0
11
0.324597
21
0.299144
31
0.0
0
LINE
8
TOP
10
0.324597
20
0.299144
30
0.0
11
0.327206
21
0.299144
31
0.0
0
LINE
8
TOP
10
0.327206
20
0.299144
30
0.0
11
0.329811
21
0.299274
31
0.0
0
LINE
8
TOP
10
0.329811
20
0.299274
30
0.0
11
0.332407
21
0.299534
31
0.0
0
LINE
8
TOP
10
0.332407
20
0.299534
30
0.0
11
0.334987
21
0.299923
31
0.0
0
LINE
8
TOP
10
0.334987
20
0.299923
30
0.0
11
0.337545
21
0.300440
31
0.0
0
LINE
8
TOP
10
0.337545
20
0.300440
30
0.0
11
0.340073
21
0.301084
31
0.0
0
LINE
8
TOP
10
0.340073
20
0.301084
30
0.0
11
0.342566
21
0.301853
31
0.0
0
LINE
8
TOP
10
0.342566
20
0.301853
30
0.0
11
0.345018
21
0.302745
31
0.0
0
LINE
8
TOP
10
0.345018
20
0.302745
30
0.0
11
0.347422
21
0.303758
31
0.0
0
LINE
8
TOP
10
0.347422
20
0.303758
30
0.0
11
0.349773
21
0.304890
31
0.0
0
LINE
8
TOP
10
0.349773
20
0.304890
30
0.0
11
0.352064
21
0.306138
31
0.0
0
LINE
8
TOP
10
0.352064
20
0.306138
30
0.0
11
0.354290
21
0.307499
31
0.0
0
LINE
8
TOP
10
0.354290
20
0.307499
30
0.0
11
0.356446
21
0.308968
31
0.0
0
LINE
8
TOP
10
0.356446
20
0.308968
30
0.0
11
0.358526
21
0.310544
31
0.0
0
LINE
8
TOP
10
0.358526
20
0.310544
30
0.0
11
0.360524
21
0.312221
31
0.0
0
LINE
8
TOP
10
0.360524
20
0.312221
30
0.0
11
0.362437
21
0.313995
31
0.0
0
LINE
8
TOP
10
0.362437
20
0.313995
30
0.0
11
0.364258
21
0.315863
31
0.0
0
LINE
8
TOP
10
0.364258
20
0.315863
30
0.0
11
0.365985
21
0.317819
31
0.0
0
LINE
8
TOP
10
0.365985
20
0.317819
30
0.0
11
0.367611
21
0.319859
31
0.0
0
LINE
8
TOP
10
0.367611
20
0.319859
30
0.0
11
0.369134
21
0.321977
31
0.0
0
LINE
8
TOP
10
0.369134
20
0.321977
30
0.0
11
0.370550
21
0.324169
31
0.0
0
LINE
8
TOP
10
0.370550
20
0.324169
30
0.0
11
0.371855
21
0.326429
31
0.0
0
LINE
8
TOP
10
0.371855
20
0.326429
30
0.0
11
0.373045
21
0.328750
31
0.0
0
LINE
8
TOP
10
0.373045
20
0.328750
30
0.0
11
0.374118
21
0.331128
31
0.0
0
LINE
8
TOP
10
0.374118
20
0.331128
30
0.0
11
0.375071
21
0.333557
31
0.0
0
LINE
8
TOP
10
0.375071
20
0.333557
30
0.0
11
0.375902
21
0.336030
31
0.0
0
LINE
8
TOP
10
0.375902
20
0.336030
30
0.0
11
0.376609
21
0.338542
31
0.0
0
LINE
8
TOP
10
0.376609
20
0.338542
30
0.0
11
0.377189
21
0.341085
31
0.0
0
LINE
8
TOP
10
0.377189
20
0.341085
30
0.0
11
0.377642
21
0.343655
31
0.0
0
LINE
8
TOP
10
0.377642
20
0.343655
30
0.0
11
0.377967
21
0.346244
31
0.0
0
LINE
8
TOP
10
0.377967
20
0.346244
30
0.0
11
0.378162
21
0.348845
31
0.0
0
LINE
8
TOP
10
0.378162
20
0.348845
30
0.0
11
0.378227
21
0.351453
31
0.0
0
LINE
8
TOP
10
0.378227
20
0.351453
30
0.0
11
0.378227
21
0.381105
31
0.0
0
LINE
8
TOP
10
0.378227
20
0.381105
30
0.0
11
0.378162
21
0.383713
31
0.0
0
LINE
8
TOP
10
0.378162
20
0.383713
30
0.0
11
0.377967
21
0.386315
31
0.0
0
LINE
8
TOP
10
0.377967
20
0.386315
30
0.0
11
0.377642
21
0.388903
31
0.0
0
LINE
8
TOP
10
0.377642
20
0.388903
30
0.0
11
0.377189
21
0.391473
31
0.0
0
LINE
8
TOP
10
0.377189
20
0.391473
30
0.0
11
0.376609
21
0.394016
31
0.0
0
LINE
8
TOP
10
0.376609
20
0.394016
30
0.0
11
0.375902
21
0.396528
31
0.0
0
LINE
8
TOP
10
0.375902
20
0.396528
30
0.0
11
0.375071
21
0.399001
31
0.0
0
LINE
8
TOP
10
0.375071
20
0.399001
30
0.0
11
0.374118
21
0.401430
31
0.0
0
LINE
8
TOP
10
0.374118
20
0.401430
30
0.0
11
0.373045
21
0.403808
31
0.0
0
LINE
8
TOP
10
0.373045
20
0.403808
30
0.0
11
0.371855
21
0.406130
31
0.0
0
LINE
8
TOP
10
0.371855
20
0.406130
30
0.0
11
0.370550
21
0.408389
31
0.0
0
LINE
8
TOP
10
0.370550
20
0.408389
30
0.0
11
0.369134
21
0.410581
31
0.0
0
LINE
8
TOP
10
0.369134
20
0.410581
30
0.0
11
0.367611
21
0.412699
31
0.0
0
LINE
8
TOP
10
0.367611
20
0.412699
30
0.0
11
0.365985
21
0.414739
31
0.0
0
LINE
8
TOP
10
0.365985
20
0.414739
30
0.0
11
0.364258
21
0.416695
31
0.0
0
LINE
8
TOP
10
0.364258
20
0.416695
30
0.0
11
0.362437
21
0.418563
31
0.0
0
LINE
8
TOP
10
0.362437
20
0.418563
30
0.0
11
0.360524
21
0.420337
31
0.0
0
LINE
8
TOP
10
0.360524
20
0.420337
30
0.0
11
0.358526
21
0.422014
31
0.0
0
LINE
8
TOP
10
0.358526
20
0.422014
30
0.0
11
0.356446
21
0.423590
31
0.0
0
LINE
8
TOP
10
0.356446
20
0.423590
30
0.0
11
0.354290
21
0.425059
31
0.0
0
LINE
8
TOP
10
0.354290
20
0.425059
30
0.0
11
0.352064
21
0.426420
31
0.0
0
LINE
8
TOP
10
0.352064
20
0.426420
30
0.0
11
0.349773
21
0.427668
31
0.0
0
LINE
8
TOP
10
0.349773
20
0.427668
30
0.0
11
0.347422
21
0.428800
31
0.0
0
LINE
8
TOP
10
0.347422
20
0.428800
30
0.0
11
0.345018
21
0.429813
31
0.0
0
LINE
8
TOP
10
0.345018
20
0.429813
30
0.0
11
0.342566
21
0.430706
31
0.0
0
LINE
8
TOP
10
0.342566
20
0.430706
30
0.0
11
0.340073
21
0.431475
31
0.0
0
LINE
8
TOP
10
0.340073
20
0.431475
30
0.0
11
0.337545
21
0.432118
31
0.0
0
LINE
8
TOP
10
0.337545
20
0.432118
30
0.0
11
0.334987
21
0.432635
31
0.0
0
LINE
8
TOP
10
0.334987
20
0.432635
30
0.0
11
0.332407
21
0.433024
31
0.0
0
LINE
8
TOP
10
0.332407
20
0.433024
30
0.0
11
0.329811
21
0.433284
31
0.0
0
LINE
8
TOP
10
0.329811
20
0.433284
30
0.0
11
0.327206
21
0.433414
31
0.0
0
LINE
8
TOP
10
0.327206
20
0.433414
30
0.0
11
0.324597
21
0.433414
31
0.0
0
LINE
8
TOP
10
0.324597
20
0.433414
30
0.0
11
0.321991
21
0.433284
31
0.0
0
LINE
8
TOP
10
0.321991
20
0.433284
30
0.0
11
0.319395
21
0.433024
31
0.0
0
LINE
8
TOP
10
0.319395
20
0.433024
30
0.0
11
0.316815
21
0.432635
31
0.0
0
LINE
8
TOP
10
0.316815
20
0.432635
30
0.0
11
0.314258
21
0.432118
31
0.0
0
LINE
8
TOP
10
0.314258
20
0.432118
30
0.0
11
0.311729
21
0.431475
31
0.0
0
LINE
8
TOP
10
0.311729
20
0.431475
30
0.0
11
0.309236
21
0.430706
31
0.0
0
LINE
8
TOP
10
0.309236
20
0.430706
30
0.0
11
0.306784
21
0.429813
31
0.0
0
LINE
8
TOP
10
0.306784
20
0.429813
30
0.0
11
0.304380
21
0.428800
31
0.0
0
LINE
8
TOP
10
0.304380
20
0.428800
30
0.0
11
0.302030
21
0.427668
31
0.0
0
LINE
8
TOP
10
0.302030
20
0.427668
30
0.0
11
0.299738
21
0.426420
31
0.0
0
LINE
8
TOP
10
0.299738
20
0.426420
30
0.0
11
0.297512
21
0.425059
31
0.0
0
LINE
8
TOP
10
0.297512
20
0.425059
30
0.0
11
0.295356
21
0.423590
31
0.0
0
LINE
8
TOP
10
0.295356
20
0.423590
30
0.0
11
0.293277
21
0.422014
31
0.0
0
LINE
8
TOP
10
0.293277
20
0.422014
30
0.0
11
0.291278
21
0.420337
31
0.0
0
LINE
8
TOP
10
0.291278
20
0.420337
30
0.0
11
0.289365
21
0.418563
31
0.0
0
LINE
8
TOP
10
0.289365
20
0.418563
30
0.0
11
0.287544
21
0.416695
31
0.0
0
LINE
8
TOP
10
0.287544
20
0.416695
30
0.0
11
0.285817
21
0.414739
31
0.0
0
LINE
8
TOP
10
0.285817
20
0.414739
30
0.0
11
0.284191
21
0.412699
31
0.0
0
LINE
8
TOP
10
0.284191
20
0.412699
30
0.0
11
0.282668
21
0.410581
31
0.0
0
LINE
8
TOP
10
0.282668
20
0.410581
30
0.0
11
0.281252
21
0.408389
31
0.0
0
LINE
8
TOP
10
0.281252
20
0.408389
30
0.0
11
0.279948
21
0.406130
31
0.0
0
LINE
8
TOP
10
0.279948
20
0.406130
30
0.0
11
0.278757
21
0.403808
31
0.0
0
LINE
8
TOP
10
0.278757
20
0.403808
30
0.0
11
0.277684
21
0.401430
31
0.0
0
LINE
8
TOP
10
0.277684
20
0.401430
30
0.0
11
0.276731
21
0.399001
31
0.0
0
LINE
8
TOP
10
0.276731
20
0.399001
30
0.0
11
0.275900
21
0.396528
31
0.0
0
LINE
8
TOP
10
0.275900
20
0.396528
30
0.0
11
0.275194
21
0.394016
31
0.0
0
LINE
8
TOP
10
0.275194
20
0.394016
30
0.0
11
0.274613
21
0.391473
31
0.0
0
LINE
8
TOP
10
0.274613
20
0.391473
30
0.0
11
0.274160
21
0.388903
31
0.0
0
LINE
8
TOP
10
0.274160
20
0.388903
30
0.0
11
0.273835
21
0.386315
31
0.0
0
LINE
8
TOP
10
0.273835
20
0.386315
30
0.0
11
0.273641
21
0.383713
31
0.0
0
LINE
8
TOP
10
0.273641
20
0.383713
30
0.0
11
0.273575
21
0.381105
31
0.0
0
LINE
8
TOP
10
0.273575
20
0.381105
30
0.0
11
0.273575
21
0.351453
31
0.0
0
LINE
8
TOP
10
0.347703
20
0.366279
30
0.0
11
0.347595
21
0.368450
31
0.0
0
LINE
8
TOP
10
0.347595
20
0.368450
30
0.0
11
0.347271
21
0.370599
31
0.0
0
LINE
8
TOP
10
0.347271
20
0.370599
30
0.0
11
0.346735
21
0.372705
31
0.0
0
LINE
8
TOP
10
0.346735
20
0.372705
30
0.0
11
0.345991
21
0.374748
31
0.0
0
LINE
8
TOP
10
0.345991
20
0.374748
30
0.0
11
0.345048
21
0.376706
31
0.0
0
LINE
8
TOP
10
0.345048
20
0.376706
30
0.0
11
0.343915
21
0.378561
31
0.0
0
LINE
8
TOP
10
0.343915
20
0.378561
30
0.0
11
0.342603
21
0.380293
31
0.0
0
LINE
8
TOP
10
0.342603
20
0.380293
30
0.0
11
0.341124
21
0.381887
31
0.0
0
LINE
8
TOP
10
0.341124
20
0.381887
30
0.0
11
0.339495
21
0.383325
31
0.0
0
LINE
8
TOP
10
0.339495
20
0.383325
30
0.0
11
0.337730
21
0.384594
31
0.0
0
LINE
8
TOP
10
0.337730
20
0.384594
30
0.0
11
0.335848
21
0.385680
31
0.0
0
LINE
8
TOP
10
0.335848
20
0.385680
30
0.0
11
0.333866
21
0.386574
31
0.0
0
LINE
8
TOP
10
0.333866
20
0.386574
30
0.0
11
0.331806
21
0.387267
31
0.0
0
LINE
8
TOP
10
0.331806
20
0.387267
30
0.0
11
0.329687
21
0.387750
31
0.0
0
LINE
8
TOP
10
0.329687
20
0.387750
30
0.0
11
0.327530
21
0.388020
31
0.0
0
LINE
8
TOP
10
0.327530
20
0.388020
30
0.0
11
0.325358
21
0.388075
31
0.0
0
LINE
8
TOP
10
0.325358
20
0.388075
30
0.0
11
0.323190
21
0.387912
31
0.0
0
LINE
8
TOP
10
0.323190
20
0.387912
30
0.0
11
0.321050
21
0.387535
31
0.0
0
LINE
8
TOP
10
0.321050
20
0.387535
30
0.0
11
0.318957
21
0.386946
31
0.0
0
LINE
8
TOP
10
0.318957
20
0.386946
30
0.0
11
0.316934
21
0.386152
31
0.0
0
LINE
8
TOP
10
0.316934
20
0.386152
30
0.0
11
0.315000
21
0.385160
31
0.0
0
LINE
8
TOP
10
0.315000
20
0.385160
30
0.0
11
0.313174
21
0.383981
31
0.0
0
LINE
8
TOP
10
0.313174
20
0.383981
30
0.0
11
0.311475
21
0.382626
31
0.0
0
LINE
8
TOP
10
0.311475
20
0.382626
30
0.0
11
0.309919
21
0.381108
31
0.0
0
LINE
8
TOP
10
0.309919
20
0.381108
30
0.0
11
0.308522
21
0.379443
31
0.0
0
LINE
8
TOP
10
0.308522
20
0.379443
30
0.0
11
0.307297
21
0.377648
31
0.0
0
LINE
8
TOP
10
0.307297
20
0.377648
30
0.0
11
0.306258
21
0.375739
31
0.0
0
LINE
8
TOP
10
0.306258
20
0.375739
30
0.0
11
0.305414
21
0.373736
31
0.0
0
LINE
8
TOP
10
0.305414
20
0.373736
30
0.0
11
0.304773
21
0.371659
31
0.0
0
LINE
8
TOP
10
0.304773
20
0.371659
30
0.0
11
0.304342
21
0.369529
31
0.0
0
LINE
8
TOP
10
0.304342
20
0.369529
30
0.0
11
0.304126
21
0.367366
31
0.0
0
LINE
8
TOP
10
0.304126
20
0.367366
30
0.0
11
0.304126
21
0.365192
31
0.0
0
LINE
8
TOP
10
0.304126
20
0.365192
30
0.0
11
0.304342
21
0.363030
31
0.0
0
LINE
8
TOP
10
0.304342
20
0.363030
30
0.0
11
0.304773
21
0.360899
31
0.0
0
LINE
8
TOP
10
0.304773
20
0.360899
30
0.0
11
0.305414
21
0.358822
31
0.0
0
LINE
8
TOP
10
0.305414
20
0.358822
30
0.0
11
0.306258
21
0.356819
31
0.0
0
LINE
8
TOP
10
0.306258
20
0.356819
30
0.0
11
0.307297
21
0.354911
31
0.0
0
LINE
8
TOP
10
0.307297
20
0.354911
30
0.0
11
0.308522
21
0.353115
31
0.0
0
LINE
8
TOP
10
0.308522
20
0.353115
30
0.0
11
0.309919
21
0.351450
31
0.0
0
LINE
8
TOP
10
0.309919
20
0.351450
30
0.0
11
0.311475
21
0.349932
31
0.0
0
LINE
8
TOP
10
0.311475
20
0.349932
30
0.0
11
0.313174
21
0.348577
31
0.0
0
LINE
8
TOP
10
0.313174
20
0.348577
30
0.0
11
0.315000
21
0.347398
31
0.0
0
LINE
8
TOP
10
0.315000
20
0.347398
30
0.0
11
0.316934
21
0.346406
31
0.0
0
LINE
8
TOP
10
0.316934
20
0.346406
30
0.0
11
0.318957
21
0.345612
31
0.0
0
LINE
8
TOP
10
0.318957
20
0.345612
30
0.0
11
0.321050
21
0.345023
31
0.0
0
LINE
8
TOP
10
0.321050
20
0.345023
30
0.0
11
0.323190
21
0.344646
31
0.0
0
LINE
8
TOP
10
0.323190
20
0.344646
30
0.0
11
0.325358
21
0.344484
31
0.0
0
LINE
8
TOP
10
0.325358
20
0.344484
30
0.0
11
0.327530
21
0.344538
31
0.0
0
LINE
8
TOP
10
0.327530
20
0.344538
30
0.0
11
0.329687
21
0.344808
31
0.0
0
LINE
8
TOP
10
0.329687
20
0.344808
30
0.0
11
0.331806
21
0.345292
31
0.0
0
LINE
8
TOP
10
0.331806
20
0.345292
30
0.0
11
0.333866
21
0.345984
31
0.0
0
LINE
8
TOP
10
0.333866
20
0.345984
30
0.0
11
0.335848
21
0.346878
31
0.0
0
LINE
8
TOP
10
0.335848
20
0.346878
30
0.0
11
0.337730
21
0.347965
31
0.0
0
LINE
8
TOP
10
0.337730
20
0.347965
30
0.0
11
0.339495
21
0.349233
31
0.0
0
LINE
8
TOP
10
0.339495
20
0.349233
30
0.0
11
0.341124
21
0.350672
31
0.0
0
LINE
8
TOP
10
0.341124
20
0.350672
30
0.0
11
0.342603
21
0.352265
31
0.0
0
LINE
8
TOP
10
0.342603
20
0.352265
30
0.0
11
0.343915
21
0.353997
31
0.0
0
LINE
8
TOP
10
0.343915
20
0.353997
30
0.0
11
0.345048
21
0.355852
31
0.0
0
LINE
8
TOP
10
0.345048
20
0.355852
30
0.0
11
0.345991
21
0.357810
31
0.0
0
LINE
8
TOP
10
0.345991
20
0.357810
30
0.0
11
0.346735
21
0.359853
31
0.0
0
LINE
8
TOP
10
0.346735
20
0.359853
30
0.0
11
0.347271
21
0.361959
31
0.0
0
LINE
8
TOP
10
0.347271
20
0.361959
30
0.0
11
0.347595
21
0.364108
31
0.0
0
LINE
8
TOP
10
0.347595
20
0.364108
30
0.0
11
0.347703
21
0.366279
31
0.0
0
ENDSEC
0
EOF
