0
SECTION
2
HEADER
9
$ACADVER
1
AC1009
0
ENDSEC
0
SECTION
2
TABLES
0
TABLE
2
LTYPE
70
3
0
LTYPE
2
CONTINUOUS
70
0
3
Solid line
72
65
73
0
40
0.0
0
LTYPE
2
HIDDEN
70
0
3
__ __ __ __ __
72
65
73
2
40
0.068952
49
0.045991
49
-0.022961
0
LTYPE
2
CENTER
70
0
3
___ _ ___ _ ___
72
65
73
4
40
0.160864
49
0.091913
49
-0.022961
49
0.022961
49
-0.022961
0
ENDTAB
0
TABLE
2
LAYER
70
6
0
LAYER
2
0
70
0
62
7
6
CONTINUOUS
0
LAYER
2
FRONT
70
0
62
7
6
CONTINUOUS
0
LAYER
2
LEFT
70
0
62
7
6
CONTINUOUS
0
LAYER
2
LEFT_HID
70
0
62
7
6
HIDDEN
0
LAYER
2
TOP
70
0
62
7
6
CONTINUOUS
0
LAYER
2
TOP_HID
70
0
62
7
6
HIDDEN
0
ENDTAB
0
ENDSEC
0
SECTION
2
ENTITIES
0
LINE
8
FRONT
10
0.078098
20
1.296932
30
0.0
11
0.079375
21
1.295644
31
0.0
0
LINE
8
FRONT
10
0.079375
20
1.295644
30
0.0
11
0.080635
21
1.294340
31
0.0
0
LINE
8
FRONT
10
0.080635
20
1.294340
30
0.0
11
0.081879
21
1.293020
31
0.0
0
LINE
8
FRONT
10
0.081879
20
1.293020
30
0.0
11
0.083107
21
1.291685
31
0.0
0
LINE
8
FRONT
10
0.083107
20
1.291685
30
0.0
11
0.084318
21
1.290334
31
0.0
0
LINE
8
FRONT
10
0.084318
20
1.290334
30
0.0
11
0.085511
21
1.288969
31
0.0
0
LINE
8
FRONT
10
0.085511
20
1.288969
30
0.0
11
0.086688
21
1.287589
31
0.0
0
LINE
8
FRONT
10
0.086688
20
1.287589
30
0.0
11
0.087847
21
1.286194
31
0.0
0
LINE
8
FRONT
10
0.087847
20
1.286194
30
0.0
11
0.088989
21
1.284785
31
0.0
0
LINE
8
FRONT
10
0.088989
20
1.284785
30
0.0
11
0.090113
21
1.283361
31
0.0
0
LINE
8
FRONT
10
0.090113
20
1.283361
30
0.0
11
0.091219
21
1.281924
31
0.0
0
LINE
8
FRONT
10
0.091219
20
1.281924
30
0.0
11
0.092307
21
1.280473
31
0.0
0
LINE
8
FRONT
10
0.092307
20
1.280473
30
0.0
11
0.093377
21
1.279009
31
0.0
0
LINE
8
FRONT
10
0.093377
20
1.279009
30
0.0
11
0.094428
21
1.277531
31
0.0
0
LINE
8
FRONT
10
0.094428
20
1.277531
30
0.0
11
0.095461
21
1.276040
31
0.0
0
LINE
8
FRONT
10
0.095461
20
1.276040
30
0.0
11
0.096476
21
1.274537
31
0.0
0
LINE
8
FRONT
10
0.096476
20
1.274537
30
0.0
11
0.097471
21
1.273020
31
0.0
0
LINE
8
FRONT
10
0.097471
20
1.273020
30
0.0
11
0.098447
21
1.271492
31
0.0
0
LINE
8
FRONT
10
0.098447
20
1.271492
30
0.0
11
0.099405
21
1.269952
31
0.0
0
LINE
8
FRONT
10
0.099405
20
1.269952
30
0.0
11
0.100343
21
1.268399
31
0.0
0
LINE
8
FRONT
10
0.100343
20
1.268399
30
0.0
11
0.101261
21
1.266835
31
0.0
0
LINE
8
FRONT
10
0.101261
20
1.266835
30
0.0
11
0.102160
21
1.265260
31
0.0
0
LINE
8
FRONT
10
0.102160
20
1.265260
30
0.0
11
0.103039
21
1.263674
31
0.0
0
LINE
8
FRONT
10
0.103039
20
1.263674
30
0.0
11
0.103898
21
1.262076
31
0.0
0
LINE
8
FRONT
10
0.103898
20
1.262076
30
0.0
11
0.104737
21
1.260469
31
0.0
0
LINE
8
FRONT
10
0.104737
20
1.260469
30
0.0
11
0.105556
21
1.258850
31
0.0
0
LINE
8
FRONT
10
0.105556
20
1.258850
30
0.0
11
0.106355
21
1.257222
31
0.0
0
LINE
8
FRONT
10
0.106355
20
1.257222
30
0.0
11
0.107133
21
1.255584
31
0.0
0
LINE
8
FRONT
10
0.107133
20
1.255584
30
0.0
11
0.107891
21
1.253936
31
0.0
0
LINE
8
FRONT
10
0.107891
20
1.253936
30
0.0
11
0.108628
21
1.252279
31
0.0
0
LINE
8
FRONT
10
0.108628
20
1.252279
30
0.0
11
0.109344
21
1.250613
31
0.0
0
LINE
8
FRONT
10
0.109344
20
1.250613
30
0.0
11
0.110040
21
1.248938
31
0.0
0
LINE
8
FRONT
10
0.110040
20
1.248938
30
0.0
11
0.110714
21
1.247254
31
0.0
0
LINE
8
FRONT
10
0.110714
20
1.247254
30
0.0
11
0.111368
21
1.245563
31
0.0
0
LINE
8
FRONT
10
0.111368
20
1.245563
30
0.0
11
0.112000
21
1.243863
31
0.0
0
LINE
8
FRONT
10
0.112000
20
1.243863
30
0.0
11
0.112611
21
1.242155
31
0.0
0
LINE
8
FRONT
10
0.112611
20
1.242155
30
0.0
11
0.113201
21
1.240440
31
0.0
0
LINE
8
FRONT
10
0.113201
20
1.240440
30
0.0
11
0.113769
21
1.238718
31
0.0
0
LINE
8
FRONT
10
0.113769
20
1.238718
30
0.0
11
0.114315
21
1.236988
31
0.0
0
LINE
8
FRONT
10
0.114315
20
1.236988
30
0.0
11
0.114840
21
1.235252
31
0.0
0
LINE
8
FRONT
10
0.114840
20
1.235252
30
0.0
11
0.115343
21
1.233510
31
0.0
0
LINE
8
FRONT
10
0.115343
20
1.233510
30
0.0
11
0.115825
21
1.231761
31
0.0
0
LINE
8
FRONT
10
0.115825
20
1.231761
30
0.0
11
0.116284
21
1.230007
31
0.0
0
LINE
8
FRONT
10
0.116284
20
1.230007
30
0.0
11
0.116722
21
1.228247
31
0.0
0
LINE
8
FRONT
10
0.116722
20
1.228247
30
0.0
11
0.117137
21
1.226481
31
0.0
0
LINE
8
FRONT
10
0.117137
20
1.226481
30
0.0
11
0.117531
21
1.224711
31
0.0
0
LINE
8
FRONT
10
0.117531
20
1.224711
30
0.0
11
0.117902
21
1.222935
31
0.0
0
LINE
8
FRONT
10
0.117902
20
1.222935
30
0.0
11
0.118251
21
1.221156
31
0.0
0
LINE
8
FRONT
10
0.118251
20
1.221156
30
0.0
11
0.118578
21
1.219372
31
0.0
0
LINE
8
FRONT
10
0.118578
20
1.219372
30
0.0
11
0.118882
21
1.217584
31
0.0
0
LINE
8
FRONT
10
0.118882
20
1.217584
30
0.0
11
0.119164
21
1.215792
31
0.0
0
LINE
8
FRONT
10
0.119164
20
1.215792
30
0.0
11
0.119424
21
1.213997
31
0.0
0
LINE
8
FRONT
10
0.119424
20
1.213997
30
0.0
11
0.119661
21
1.212199
31
0.0
0
LINE
8
FRONT
10
0.119661
20
1.212199
30
0.0
11
0.119876
21
1.210398
31
0.0
0
LINE
8
FRONT
10
0.119876
20
1.210398
30
0.0
11
0.120068
21
1.208595
31
0.0
0
LINE
8
FRONT
10
0.120068
20
1.208595
30
0.0
11
0.120238
21
1.206789
31
0.0
0
LINE
8
FRONT
10
0.120238
20
1.206789
30
0.0
11
0.120385
21
1.204981
31
0.0
0
LINE
8
FRONT
10
0.120385
20
1.204981
30
0.0
11
0.120509
21
1.203172
31
0.0
0
LINE
8
FRONT
10
0.120509
20
1.203172
30
0.0
11
0.120611
21
1.201361
31
0.0
0
LINE
8
FRONT
10
0.120611
20
1.201361
30
0.0
11
0.120691
21
1.199549
31
0.0
0
LINE
8
FRONT
10
0.120691
20
1.199549
30
0.0
11
0.120747
21
1.197737
31
0.0
0
LINE
8
FRONT
10
0.120747
20
1.197737
30
0.0
11
0.120781
21
1.195923
31
0.0
0
LINE
8
FRONT
10
0.120781
20
1.195923
30
0.0
11
0.120793
21
1.194110
31
0.0
0
LINE
8
FRONT
10
0.120793
20
1.194110
30
0.0
11
0.120793
21
1.001568
31
0.0
0
LINE
8
FRONT
10
0.120793
20
1.001568
30
0.0
11
0.120793
21
0.517697
31
0.0
0
LINE
8
FRONT
10
0.120793
20
0.517697
30
0.0
11
0.120973
21
0.510461
31
0.0
0
LINE
8
FRONT
10
0.120973
20
0.510461
30
0.0
11
0.121514
21
0.503243
31
0.0
0
LINE
8
FRONT
10
0.121514
20
0.503243
30
0.0
11
0.122414
21
0.496062
31
0.0
0
LINE
8
FRONT
10
0.122414
20
0.496062
30
0.0
11
0.123671
21
0.488934
31
0.0
0
LINE
8
FRONT
10
0.123671
20
0.488934
30
0.0
11
0.125281
21
0.481877
31
0.0
0
LINE
8
FRONT
10
0.125281
20
0.481877
30
0.0
11
0.127242
21
0.474910
31
0.0
0
LINE
8
FRONT
10
0.127242
20
0.474910
30
0.0
11
0.129547
21
0.468049
31
0.0
0
LINE
8
FRONT
10
0.129547
20
0.468049
30
0.0
11
0.132191
21
0.461311
31
0.0
0
LINE
8
FRONT
10
0.132191
20
0.461311
30
0.0
11
0.135168
21
0.454714
31
0.0
0
LINE
8
FRONT
10
0.135168
20
0.454714
30
0.0
11
0.138470
21
0.448273
31
0.0
0
LINE
8
FRONT
10
0.138470
20
0.448273
30
0.0
11
0.142089
21
0.442005
31
0.0
0
LINE
8
FRONT
10
0.142089
20
0.442005
30
0.0
11
0.146016
21
0.435925
31
0.0
0
LINE
8
FRONT
10
0.146016
20
0.435925
30
0.0
11
0.150241
21
0.430048
31
0.0
0
LINE
8
FRONT
10
0.150241
20
0.430048
30
0.0
11
0.154754
21
0.424389
31
0.0
0
LINE
8
FRONT
10
0.154754
20
0.424389
30
0.0
11
0.159543
21
0.418962
31
0.0
0
LINE
8
FRONT
10
0.159543
20
0.418962
30
0.0
11
0.164597
21
0.413781
31
0.0
0
LINE
8
FRONT
10
0.164597
20
0.413781
30
0.0
11
0.169903
21
0.408858
31
0.0
0
LINE
8
FRONT
10
0.169903
20
0.408858
30
0.0
11
0.175447
21
0.404205
31
0.0
0
LINE
8
FRONT
10
0.175447
20
0.404205
30
0.0
11
0.181217
21
0.399835
31
0.0
0
LINE
8
FRONT
10
0.181217
20
0.399835
30
0.0
11
0.187197
21
0.395758
31
0.0
0
LINE
8
FRONT
10
0.187197
20
0.395758
30
0.0
11
0.193373
21
0.391983
31
0.0
0
LINE
8
FRONT
10
0.193373
20
0.391983
30
0.0
11
0.199730
21
0.388522
31
0.0
0
LINE
8
FRONT
10
0.199730
20
0.388522
30
0.0
11
0.206251
21
0.385381
31
0.0
0
LINE
8
FRONT
10
0.206251
20
0.385381
30
0.0
11
0.212921
21
0.382570
31
0.0
0
LINE
8
FRONT
10
0.212921
20
0.382570
30
0.0
11
0.219722
21
0.380094
31
0.0
0
LINE
8
FRONT
10
0.219722
20
0.380094
30
0.0
11
0.226638
21
0.377961
31
0.0
0
LINE
8
FRONT
10
0.226638
20
0.377961
30
0.0
11
0.233652
21
0.376175
31
0.0
0
LINE
8
FRONT
10
0.233652
20
0.376175
30
0.0
11
0.240747
21
0.374741
31
0.0
0
LINE
8
FRONT
10
0.240747
20
0.374741
30
0.0
11
0.247904
21
0.373662
31
0.0
0
LINE
8
FRONT
10
0.247904
20
0.373662
30
0.0
11
0.255106
21
0.372941
31
0.0
0
LINE
8
FRONT
10
0.255106
20
0.372941
30
0.0
11
0.262335
21
0.372581
31
0.0
0
LINE
8
FRONT
10
0.262335
20
0.372581
30
0.0
11
0.269573
21
0.372581
31
0.0
0
LINE
8
FRONT
10
0.269573
20
0.372581
30
0.0
11
0.276802
21
0.372941
31
0.0
0
LINE
8
FRONT
10
0.276802
20
0.372941
30
0.0
11
0.284004
21
0.373662
31
0.0
0
LINE
8
FRONT
10
0.284004
20
0.373662
30
0.0
11
0.291161
21
0.374741
31
0.0
0
LINE
8
FRONT
10
0.291161
20
0.374741
30
0.0
11
0.298255
21
0.376175
31
0.0
0
LINE
8
FRONT
10
0.298255
20
0.376175
30
0.0
11
0.305269
21
0.377961
31
0.0
0
LINE
8
FRONT
10
0.305269
20
0.377961
30
0.0
11
0.312186
21
0.380094
31
0.0
0
LINE
8
FRONT
10
0.312186
20
0.380094
30
0.0
11
0.318987
21
0.382570
31
0.0
0
LINE
8
FRONT
10
0.318987
20
0.382570
30
0.0
11
0.325657
21
0.385381
31
0.0
0
LINE
8
FRONT
10
0.325657
20
0.385381
30
0.0
11
0.332178
21
0.388522
31
0.0
0
LINE
8
FRONT
10
0.332178
20
0.388522
30
0.0
11
0.338535
21
0.391983
31
0.0
0
LINE
8
FRONT
10
0.338535
20
0.391983
30
0.0
11
0.344711
21
0.395758
31
0.0
0
LINE
8
FRONT
10
0.344711
20
0.395758
30
0.0
11
0.350691
21
0.399835
31
0.0
0
LINE
8
FRONT
10
0.350691
20
0.399835
30
0.0
11
0.356460
21
0.404205
31
0.0
0
LINE
8
FRONT
10
0.356460
20
0.404205
30
0.0
11
0.362005
21
0.408858
31
0.0
0
LINE
8
FRONT
10
0.362005
20
0.408858
30
0.0
11
0.367311
21
0.413781
31
0.0
0
LINE
8
FRONT
10
0.367311
20
0.413781
30
0.0
11
0.372365
21
0.418962
31
0.0
0
LINE
8
FRONT
10
0.372365
20
0.418962
30
0.0
11
0.377154
21
0.424389
31
0.0
0
LINE
8
FRONT
10
0.377154
20
0.424389
30
0.0
11
0.381667
21
0.430048
31
0.0
0
LINE
8
FRONT
10
0.381667
20
0.430048
30
0.0
11
0.385892
21
0.435925
31
0.0
0
LINE
8
FRONT
10
0.385892
20
0.435925
30
0.0
11
0.389819
21
0.442005
31
0.0
0
LINE
8
FRONT
10
0.389819
20
0.442005
30
0.0
11
0.393438
21
0.448273
31
0.0
0
LINE
8
FRONT
10
0.393438
20
0.448273
30
0.0
11
0.396740
21
0.454714
31
0.0
0
LINE
8
FRONT
10
0.396740
20
0.454714
30
0.0
11
0.399717
21
0.461311
31
0.0
0
LINE
8
FRONT
10
0.399717
20
0.461311
30
0.0
11
0.402361
21
0.468049
31
0.0
0
LINE
8
FRONT
10
0.402361
20
0.468049
30
0.0
11
0.404666
21
0.474910
31
0.0
0
LINE
8
FRONT
10
0.404666
20
0.474910
30
0.0
11
0.406626
21
0.481877
31
0.0
0
LINE
8
FRONT
10
0.406626
20
0.481877
30
0.0
11
0.408237
21
0.488934
31
0.0
0
LINE
8
FRONT
10
0.408237
20
0.488934
30
0.0
11
0.409494
21
0.496062
31
0.0
0
LINE
8
FRONT
10
0.409494
20
0.496062
30
0.0
11
0.410394
21
0.503243
31
0.0
0
LINE
8
FRONT
10
0.410394
20
0.503243
30
0.0
11
0.410935
21
0.510461
31
0.0
0
LINE
8
FRONT
10
0.410935
20
0.510461
30
0.0
11
0.411115
21
0.517697
31
0.0
0
LINE
8
FRONT
10
0.411115
20
0.517697
30
0.0
11
0.411115
21
1.001568
31
0.0
0
LINE
8
FRONT
10
0.411115
20
1.001568
30
0.0
11
0.411115
21
1.194110
31
0.0
0
LINE
8
FRONT
10
0.411115
20
1.194110
30
0.0
11
0.411127
21
1.195923
31
0.0
0
LINE
8
FRONT
10
0.411127
20
1.195923
30
0.0
11
0.411161
21
1.197737
31
0.0
0
LINE
8
FRONT
10
0.411161
20
1.197737
30
0.0
11
0.411217
21
1.199549
31
0.0
0
LINE
8
FRONT
10
0.411217
20
1.199549
30
0.0
11
0.411296
21
1.201361
31
0.0
0
LINE
8
FRONT
10
0.411296
20
1.201361
30
0.0
11
0.411398
21
1.203172
31
0.0
0
LINE
8
FRONT
10
0.411398
20
1.203172
30
0.0
11
0.411523
21
1.204981
31
0.0
0
LINE
8
FRONT
10
0.411523
20
1.204981
30
0.0
11
0.411670
21
1.206789
31
0.0
0
LINE
8
FRONT
10
0.411670
20
1.206789
30
0.0
11
0.411840
21
1.208595
31
0.0
0
LINE
8
FRONT
10
0.411840
20
1.208595
30
0.0
11
0.412032
21
1.210398
31
0.0
0
LINE
8
FRONT
10
0.412032
20
1.210398
30
0.0
11
0.412247
21
1.212199
31
0.0
0
LINE
8
FRONT
10
0.412247
20
1.212199
30
0.0
11
0.412484
21
1.213997
31
0.0
0
LINE
8
FRONT
10
0.412484
20
1.213997
30
0.0
11
0.412744
21
1.215792
31
0.0
0
LINE
8
FRONT
10
0.412744
20
1.215792
30
0.0
11
0.413026
21
1.217584
31
0.0
0
LINE
8
FRONT
10
0.413026
20
1.217584
30
0.0
11
0.413330
21
1.219372
31
0.0
0
LINE
8
FRONT
10
0.413330
20
1.219372
30
0.0
11
0.413657
21
1.221156
31
0.0
0
LINE
8
FRONT
10
0.413657
20
1.221156
30
0.0
11
0.414006
21
1.222935
31
0.0
0
LINE
8
FRONT
10
0.414006
20
1.222935
30
0.0
11
0.414377
21
1.224711
31
0.0
0
LINE
8
FRONT
10
0.414377
20
1.224711
30
0.0
11
0.414771
21
1.226481
31
0.0
0
LINE
8
FRONT
10
0.414771
20
1.226481
30
0.0
11
0.415186
21
1.228247
31
0.0
0
LINE
8
FRONT
10
0.415186
20
1.228247
30
0.0
11
0.415624
21
1.230007
31
0.0
0
LINE
8
FRONT
10
0.415624
20
1.230007
30
0.0
11
0.416083
21
1.231761
31
0.0
0
LINE
8
FRONT
10
0.416083
20
1.231761
30
0.0
11
0.416565
21
1.233510
31
0.0
0
LINE
8
FRONT
10
0.416565
20
1.233510
30
0.0
11
0.417068
21
1.235252
31
0.0
0
LINE
8
FRONT
10
0.417068
20
1.235252
30
0.0
11
0.417593
21
1.236988
31
0.0
0
LINE
8
FRONT
10
0.417593
20
1.236988
30
0.0
11
0.418139
21
1.238718
31
0.0
0
LINE
8
FRONT
10
0.418139
20
1.238718
30
0.0
11
0.418707
21
1.240440
31
0.0
0
LINE
8
FRONT
10
0.418707
20
1.240440
30
0.0
11
0.419297
21
1.242155
31
0.0
0
LINE
8
FRONT
10
0.419297
20
1.242155
30
0.0
11
0.419908
21
1.243863
31
0.0
0
LINE
8
FRONT
10
0.419908
20
1.243863
30
0.0
11
0.420540
21
1.245563
31
0.0
0
LINE
8
FRONT
10
0.420540
20
1.245563
30
0.0
11
0.421193
21
1.247254
31
0.0
0
LINE
8
FRONT
10
0.421193
20
1.247254
30
0.0
11
0.421868
21
1.248938
31
0.0
0
LINE
8
FRONT
10
0.421868
20
1.248938
30
0.0
11
0.422563
21
1.250613
31
0.0
0
LINE
8
FRONT
10
0.422563
20
1.250613
30
0.0
11
0.423280
21
1.252279
31
0.0
0
LINE
8
FRONT
10
0.423280
20
1.252279
30
0.0
11
0.424017
21
1.253936
31
0.0
0
LINE
8
FRONT
10
0.424017
20
1.253936
30
0.0
11
0.424775
21
1.255584
31
0.0
0
LINE
8
FRONT
10
0.424775
20
1.255584
30
0.0
11
0.425553
21
1.257222
31
0.0
0
LINE
8
FRONT
10
0.425553
20
1.257222
30
0.0
11
0.426352
21
1.258850
31
0.0
0
LINE
8
FRONT
10
0.426352
20
1.258850
30
0.0
11
0.427171
21
1.260469
31
0.0
0
LINE
8
FRONT
10
0.427171
20
1.260469
30
0.0
11
0.428010
21
1.262076
31
0.0
0
LINE
8
FRONT
10
0.428010
20
1.262076
30
0.0
11
0.428869
21
1.263674
31
0.0
0
LINE
8
FRONT
10
0.428869
20
1.263674
30
0.0
11
0.429748
21
1.265260
31
0.0
0
LINE
8
FRONT
10
0.429748
20
1.265260
30
0.0
11
0.430647
21
1.266835
31
0.0
0
LINE
8
FRONT
10
0.430647
20
1.266835
30
0.0
11
0.431565
21
1.268399
31
0.0
0
LINE
8
FRONT
10
0.431565
20
1.268399
30
0.0
11
0.432503
21
1.269952
31
0.0
0
LINE
8
FRONT
10
0.432503
20
1.269952
30
0.0
11
0.433460
21
1.271492
31
0.0
0
LINE
8
FRONT
10
0.433460
20
1.271492
30
0.0
11
0.434437
21
1.273020
31
0.0
0
LINE
8
FRONT
10
0.434437
20
1.273020
30
0.0
11
0.435432
21
1.274537
31
0.0
0
LINE
8
FRONT
10
0.435432
20
1.274537
30
0.0
11
0.436446
21
1.276040
31
0.0
0
LINE
8
FRONT
10
0.436446
20
1.276040
30
0.0
11
0.437479
21
1.277531
31
0.0
0
LINE
8
FRONT
10
0.437479
20
1.277531
30
0.0
11
0.438531
21
1.279009
31
0.0
0
LINE
8
FRONT
10
0.438531
20
1.279009
30
0.0
11
0.439601
21
1.280473
31
0.0
0
LINE
8
FRONT
10
0.439601
20
1.280473
30
0.0
11
0.440689
21
1.281924
31
0.0
0
LINE
8
FRONT
10
0.440689
20
1.281924
30
0.0
11
0.441795
21
1.283361
31
0.0
0
LINE
8
FRONT
10
0.441795
20
1.283361
30
0.0
11
0.442919
21
1.284785
31
0.0
0
LINE
8
FRONT
10
0.442919
20
1.284785
30
0.0
11
0.444061
21
1.286194
31
0.0
0
LINE
8
FRONT
10
0.444061
20
1.286194
30
0.0
11
0.445220
21
1.287589
31
0.0
0
LINE
8
FRONT
10
0.445220
20
1.287589
30
0.0
11
0.446397
21
1.288969
31
0.0
0
LINE
8
FRONT
10
0.446397
20
1.288969
30
0.0
11
0.447590
21
1.290334
31
0.0
0
LINE
8
FRONT
10
0.447590
20
1.290334
30
0.0
11
0.448801
21
1.291685
31
0.0
0
LINE
8
FRONT
10
0.448801
20
1.291685
30
0.0
11
0.450028
21
1.293020
31
0.0
0
LINE
8
FRONT
10
0.450028
20
1.293020
30
0.0
11
0.451272
21
1.294340
31
0.0
0
LINE
8
FRONT
10
0.451272
20
1.294340
30
0.0
11
0.452533
21
1.295644
31
0.0
0
LINE
8
FRONT
10
0.452533
20
1.295644
30
0.0
11
0.453810
21
1.296932
31
0.0
0
LINE
8
FRONT
10
0.453810
20
1.296932
30
0.0
11
0.467381
21
1.311508
31
0.0
0
LINE
8
FRONT
10
0.467381
20
1.311508
30
0.0
11
0.479824
21
1.327059
31
0.0
0
LINE
8
FRONT
10
0.479824
20
1.327059
30
0.0
11
0.491070
21
1.343497
31
0.0
0
LINE
8
FRONT
10
0.491070
20
1.343497
30
0.0
11
0.501054
21
1.360730
31
0.0
0
LINE
8
FRONT
10
0.501054
20
1.360730
30
0.0
11
0.509722
21
1.378661
31
0.0
0
LINE
8
FRONT
10
0.509722
20
1.378661
30
0.0
11
0.517025
21
1.397190
31
0.0
0
LINE
8
FRONT
10
0.517025
20
1.397190
30
0.0
11
0.522922
21
1.416214
31
0.0
0
LINE
8
FRONT
10
0.522922
20
1.416214
30
0.0
11
0.527379
21
1.435625
31
0.0
0
LINE
8
FRONT
10
0.527379
20
1.435625
30
0.0
11
0.530372
21
1.455315
31
0.0
0
LINE
8
FRONT
10
0.530372
20
1.455315
30
0.0
11
0.531885
21
1.475174
31
0.0
0
LINE
8
FRONT
10
0.531885
20
1.475174
30
0.0
11
0.531908
21
1.495090
31
0.0
0
LINE
8
FRONT
10
0.531908
20
1.495090
30
0.0
11
0.530441
21
1.514952
31
0.0
0
LINE
8
FRONT
10
0.530441
20
1.514952
30
0.0
11
0.527493
21
1.534649
31
0.0
0
LINE
8
FRONT
10
0.527493
20
1.534649
30
0.0
11
0.523081
21
1.554071
31
0.0
0
LINE
8
FRONT
10
0.523081
20
1.554071
30
0.0
11
0.517228
21
1.573108
31
0.0
0
LINE
8
FRONT
10
0.517228
20
1.573108
30
0.0
11
0.509968
21
1.591654
31
0.0
0
LINE
8
FRONT
10
0.509968
20
1.591654
30
0.0
11
0.501342
21
1.609605
31
0.0
0
LINE
8
FRONT
10
0.501342
20
1.609605
30
0.0
11
0.491397
21
1.626861
31
0.0
0
LINE
8
FRONT
10
0.491397
20
1.626861
30
0.0
11
0.480189
21
1.643324
31
0.0
0
LINE
8
FRONT
10
0.480189
20
1.643324
30
0.0
11
0.467782
21
1.658904
31
0.0
0
LINE
8
FRONT
10
0.467782
20
1.658904
30
0.0
11
0.454244
21
1.673512
31
0.0
0
LINE
8
FRONT
10
0.454244
20
1.673512
30
0.0
11
0.439652
21
1.687066
31
0.0
0
LINE
8
FRONT
10
0.439652
20
1.687066
30
0.0
11
0.424087
21
1.699492
31
0.0
0
LINE
8
FRONT
10
0.424087
20
1.699492
30
0.0
11
0.407636
21
1.710718
31
0.0
0
LINE
8
FRONT
10
0.407636
20
1.710718
30
0.0
11
0.390392
21
1.720683
31
0.0
0
LINE
8
FRONT
10
0.390392
20
1.720683
30
0.0
11
0.372450
21
1.729330
31
0.0
0
LINE
8
FRONT
10
0.372450
20
1.729330
30
0.0
11
0.353913
21
1.736612
31
0.0
0
LINE
8
FRONT
10
0.353913
20
1.736612
30
0.0
11
0.334883
21
1.742486
31
0.0
0
LINE
8
FRONT
10
0.334883
20
1.742486
30
0.0
11
0.315466
21
1.746921
31
0.0
0
LINE
8
FRONT
10
0.315466
20
1.746921
30
0.0
11
0.295773
21
1.749892
31
0.0
0
LINE
8
FRONT
10
0.295773
20
1.749892
30
0.0
11
0.275912
21
1.751381
31
0.0
0
LINE
8
FRONT
10
0.275912
20
1.751381
30
0.0
11
0.255996
21
1.751381
31
0.0
0
LINE
8
FRONT
10
0.255996
20
1.751381
30
0.0
11
0.236135
21
1.749892
31
0.0
0
LINE
8
FRONT
10
0.236135
20
1.749892
30
0.0
11
0.216442
21
1.746921
31
0.0
0
LINE
8
FRONT
10
0.216442
20
1.746921
30
0.0
11
0.197025
21
1.742486
31
0.0
0
LINE
8
FRONT
10
0.197025
20
1.742486
30
0.0
11
0.177995
21
1.736612
31
0.0
0
LINE
8
FRONT
10
0.177995
20
1.736612
30
0.0
11
0.159457
21
1.729330
31
0.0
0
LINE
8
FRONT
10
0.159457
20
1.729330
30
0.0
11
0.141516
21
1.720683
31
0.0
0
LINE
8
FRONT
10
0.141516
20
1.720683
30
0.0
11
0.124272
21
1.710718
31
0.0
0
LINE
8
FRONT
10
0.124272
20
1.710718
30
0.0
11
0.107821
21
1.699492
31
0.0
0
LINE
8
FRONT
10
0.107821
20
1.699492
30
0.0
11
0.092256
21
1.687066
31
0.0
0
LINE
8
FRONT
10
0.092256
20
1.687066
30
0.0
11
0.077664
21
1.673512
31
0.0
0
LINE
8
FRONT
10
0.077664
20
1.673512
30
0.0
11
0.064126
21
1.658904
31
0.0
0
LINE
8
FRONT
10
0.064126
20
1.658904
30
0.0
11
0.051719
21
1.643324
31
0.0
0
LINE
8
FRONT
10
0.051719
20
1.643324
30
0.0
11
0.040511
21
1.626861
31
0.0
0
LINE
8
FRONT
10
0.040511
20
1.626861
30
0.0
11
0.030566
21
1.609605
31
0.0
0
LINE
8
FRONT
10
0.030566
20
1.609605
30
0.0
11
0.021940
21
1.591654
31
0.0
0
LINE
8
FRONT
10
0.021940
20
1.591654
30
0.0
11
0.014680
21
1.573108
31
0.0
0
LINE
8
FRONT
10
0.014680
20
1.573108
30
0.0
11
0.008827
21
1.554071
31
0.0
0
LINE
8
FRONT
10
0.008827
20
1.554071
30
0.0
11
0.004414
21
1.534649
31
0.0
0
LINE
8
FRONT
10
0.004414
20
1.534649
30
0.0
11
0.001467
21
1.514952
31
0.0
0
LINE
8
FRONT
10
0.001467
20
1.514952
30
0.0
11
0.000000
21
1.495090
31
0.0
0
LINE
8
FRONT
10
0.000000
20
1.495090
30
0.0
11
0.000023
21
1.475174
31
0.0
0
LINE
8
FRONT
10
0.000023
20
1.475174
30
0.0
11
0.001535
21
1.455315
31
0.0
0
LINE
8
FRONT
10
0.001535
20
1.455315
30
0.0
11
0.004529
21
1.435625
31
0.0
0
LINE
8
FRONT
10
0.004529
20
1.435625
30
0.0
11
0.008986
21
1.416214
31
0.0
0
LINE
8
FRONT
10
0.008986
20
1.416214
30
0.0
11
0.014883
21
1.397190
31
0.0
0
LINE
8
FRONT
10
0.014883
20
1.397190
30
0.0
11
0.022185
21
1.378661
31
0.0
0
LINE
8
FRONT
10
0.022185
20
1.378661
30
0.0
11
0.030853
21
1.360730
31
0.0
0
LINE
8
FRONT
10
0.030853
20
1.360730
30
0.0
11
0.040838
21
1.343497
31
0.0
0
LINE
8
FRONT
10
0.040838
20
1.343497
30
0.0
11
0.052084
21
1.327059
31
0.0
0
LINE
8
FRONT
10
0.052084
20
1.327059
30
0.0
11
0.064527
21
1.311508
31
0.0
0
LINE
8
FRONT
10
0.064527
20
1.311508
30
0.0
11
0.078098
21
1.296932
31
0.0
0
LINE
8
FRONT
10
0.076035
20
1.485439
30
0.0
11
0.076978
21
1.466529
31
0.0
0
LINE
8
FRONT
10
0.076978
20
1.466529
30
0.0
11
0.079800
21
1.447807
31
0.0
0
LINE
8
FRONT
10
0.079800
20
1.447807
30
0.0
11
0.084472
21
1.429459
31
0.0
0
LINE
8
FRONT
10
0.084472
20
1.429459
30
0.0
11
0.090948
21
1.411667
31
0.0
0
LINE
8
FRONT
10
0.090948
20
1.411667
30
0.0
11
0.099163
21
1.394609
31
0.0
0
LINE
8
FRONT
10
0.099163
20
1.394609
30
0.0
11
0.109035
21
1.378453
31
0.0
0
LINE
8
FRONT
10
0.109035
20
1.378453
30
0.0
11
0.120467
21
1.363361
31
0.0
0
LINE
8
FRONT
10
0.120467
20
1.363361
30
0.0
11
0.133345
21
1.349482
31
0.0
0
LINE
8
FRONT
10
0.133345
20
1.349482
30
0.0
11
0.147541
21
1.336954
31
0.0
0
LINE
8
FRONT
10
0.147541
20
1.336954
30
0.0
11
0.162914
21
1.325902
31
0.0
0
LINE
8
FRONT
10
0.162914
20
1.325902
30
0.0
11
0.179311
21
1.316435
31
0.0
0
LINE
8
FRONT
10
0.179311
20
1.316435
30
0.0
11
0.196569
21
1.308648
31
0.0
0
LINE
8
FRONT
10
0.196569
20
1.308648
30
0.0
11
0.214516
21
1.302618
31
0.0
0
LINE
8
FRONT
10
0.214516
20
1.302618
30
0.0
11
0.232975
21
1.298405
31
0.0
0
LINE
8
FRONT
10
0.232975
20
1.298405
30
0.0
11
0.251761
21
1.296050
31
0.0
0
LINE
8
FRONT
10
0.251761
20
1.296050
30
0.0
11
0.270689
21
1.295578
31
0.0
0
LINE
8
FRONT
10
0.270689
20
1.295578
30
0.0
11
0.289569
21
1.296993
31
0.0
0
LINE
8
FRONT
10
0.289569
20
1.296993
30
0.0
11
0.308215
21
1.300281
31
0.0
0
LINE
8
FRONT
10
0.308215
20
1.300281
30
0.0
11
0.326441
21
1.305409
31
0.0
0
LINE
8
FRONT
10
0.326441
20
1.305409
30
0.0
11
0.344065
21
1.312326
31
0.0
0
LINE
8
FRONT
10
0.344065
20
1.312326
30
0.0
11
0.360914
21
1.320964
31
0.0
0
LINE
8
FRONT
10
0.360914
20
1.320964
30
0.0
11
0.376818
21
1.331236
31
0.0
0
LINE
8
FRONT
10
0.376818
20
1.331236
30
0.0
11
0.391621
21
1.343041
31
0.0
0
LINE
8
FRONT
10
0.391621
20
1.343041
30
0.0
11
0.405175
21
1.356261
31
0.0
0
LINE
8
FRONT
10
0.405175
20
1.356261
30
0.0
11
0.417345
21
1.370765
31
0.0
0
LINE
8
FRONT
10
0.417345
20
1.370765
30
0.0
11
0.428010
21
1.386408
31
0.0
0
LINE
8
FRONT
10
0.428010
20
1.386408
30
0.0
11
0.437065
21
1.403036
31
0.0
0
LINE
8
FRONT
10
0.437065
20
1.403036
30
0.0
11
0.444420
21
1.420483
31
0.0
0
LINE
8
FRONT
10
0.444420
20
1.420483
30
0.0
11
0.450000
21
1.438575
31
0.0
0
LINE
8
FRONT
10
0.450000
20
1.438575
30
0.0
11
0.453752
21
1.457133
31
0.0
0
LINE
8
FRONT
10
0.453752
20
1.457133
30
0.0
11
0.455637
21
1.475972
31
0.0
0
LINE
8
FRONT
10
0.455637
20
1.475972
30
0.0
11
0.455637
21
1.494905
31
0.0
0
LINE
8
FRONT
10
0.455637
20
1.494905
30
0.0
11
0.453752
21
1.513745
31
0.0
0
LINE
8
FRONT
10
0.453752
20
1.513745
30
0.0
11
0.450000
21
1.532303
31
0.0
0
LINE
8
FRONT
10
0.450000
20
1.532303
30
0.0
11
0.444420
21
1.550395
31
0.0
0
LINE
8
FRONT
10
0.444420
20
1.550395
30
0.0
11
0.437065
21
1.567842
31
0.0
0
LINE
8
FRONT
10
0.437065
20
1.567842
30
0.0
11
0.428010
21
1.584469
31
0.0
0
LINE
8
FRONT
10
0.428010
20
1.584469
30
0.0
11
0.417345
21
1.600113
31
0.0
0
LINE
8
FRONT
10
0.417345
20
1.600113
30
0.0
11
0.405175
21
1.614617
31
0.0
0
LINE
8
FRONT
10
0.405175
20
1.614617
30
0.0
11
0.391621
21
1.627837
31
0.0
0
LINE
8
FRONT
10
0.391621
20
1.627837
30
0.0
11
0.376818
21
1.639641
31
0.0
0
LINE
8
FRONT
10
0.376818
20
1.639641
30
0.0
11
0.360914
21
1.649914
31
0.0
0
LINE
8
FRONT
10
0.360914
20
1.649914
30
0.0
11
0.344065
21
1.658551
31
0.0
0
LINE
8
FRONT
10
0.344065
20
1.658551
30
0.0
11
0.326441
21
1.665469
31
0.0
0
LINE
8
FRONT
10
0.326441
20
1.665469
30
0.0
11
0.308215
21
1.670596
31
0.0
0
LINE
8
FRONT
10
0.308215
20
1.670596
30
0.0
11
0.289569
21
1.673884
31
0.0
0
LINE
8
FRONT
10
0.289569
20
1.673884
30
0.0
11
0.270689
21
1.675299
31
0.0
0
LINE
8
FRONT
10
0.270689
20
1.675299
30
0.0
11
0.251761
21
1.674827
31
0.0
0
LINE
8
FRONT
10
0.251761
20
1.674827
30
0.0
11
0.232975
21
1.672473
31
0.0
0
LINE
8
FRONT
10
0.232975
20
1.672473
30
0.0
11
0.214516
21
1.668260
31
0.0
0
LINE
8
FRONT
10
0.214516
20
1.668260
30
0.0
11
0.196569
21
1.662230
31
0.0
0
LINE
8
FRONT
10
0.196569
20
1.662230
30
0.0
11
0.179311
21
1.654443
31
0.0
0
LINE
8
FRONT
10
0.179311
20
1.654443
30
0.0
11
0.162914
21
1.644976
31
0.0
0
LINE
8
FRONT
10
0.162914
20
1.644976
30
0.0
11
0.147541
21
1.633924
31
0.0
0
LINE
8
FRONT
10
0.147541
20
1.633924
30
0.0
11
0.133345
21
1.621396
31
0.0
0
LINE
8
FRONT
10
0.133345
20
1.621396
30
0.0
11
0.120467
21
1.607517
31
0.0
0
LINE
8
FRONT
10
0.120467
20
1.607517
30
0.0
11
0.109035
21
1.592424
31
0.0
0
LINE
8
FRONT
10
0.109035
20
1.592424
30
0.0
11
0.099163
21
1.576268
31
0.0
0
LINE
8
FRONT
10
0.099163
20
1.576268
30
0.0
11
0.090948
21
1.559210
31
0.0
0
LINE
8
FRONT
10
0.090948
20
1.559210
30
0.0
11
0.084472
21
1.541418
31
0.0
0
LINE
8
FRONT
10
0.084472
20
1.541418
30
0.0
11
0.079800
21
1.523071
31
0.0
0
LINE
8
FRONT
10
0.079800
20
1.523071
30
0.0
11
0.076978
21
1.504349
31
0.0
0
LINE
8
FRONT
10
0.076978
20
1.504349
30
0.0
11
0.076035
21
1.485439
31
0.0
0
LINE
8
FRONT
10
0.198212
20
0.517697
30
0.0
11
0.198549
21
0.510952
31
0.0
0
LINE
8
FRONT
10
0.198549
20
0.510952
30
0.0
11
0.199555
21
0.504274
31
0.0
0
LINE
8
FRONT
10
0.199555
20
0.504274
30
0.0
11
0.201222
21
0.497730
31
0.0
0
LINE
8
FRONT
10
0.201222
20
0.497730
30
0.0
11
0.203531
21
0.491383
31
0.0
0
LINE
8
FRONT
10
0.203531
20
0.491383
30
0.0
11
0.206461
21
0.485299
31
0.0
0
LINE
8
FRONT
10
0.206461
20
0.485299
30
0.0
11
0.209983
21
0.479536
31
0.0
0
LINE
8
FRONT
10
0.209983
20
0.479536
30
0.0
11
0.214061
21
0.474153
31
0.0
0
LINE
8
FRONT
10
0.214061
20
0.474153
30
0.0
11
0.218654
21
0.469203
31
0.0
0
LINE
8
FRONT
10
0.218654
20
0.469203
30
0.0
11
0.223718
21
0.464734
31
0.0
0
LINE
8
FRONT
10
0.223718
20
0.464734
30
0.0
11
0.229201
21
0.460792
31
0.0
0
LINE
8
FRONT
10
0.229201
20
0.460792
30
0.0
11
0.235049
21
0.457415
31
0.0
0
LINE
8
FRONT
10
0.235049
20
0.457415
30
0.0
11
0.241205
21
0.454638
31
0.0
0
LINE
8
FRONT
10
0.241205
20
0.454638
30
0.0
11
0.247607
21
0.452487
31
0.0
0
LINE
8
FRONT
10
0.247607
20
0.452487
30
0.0
11
0.254191
21
0.450984
31
0.0
0
LINE
8
FRONT
10
0.254191
20
0.450984
30
0.0
11
0.260892
21
0.450144
31
0.0
0
LINE
8
FRONT
10
0.260892
20
0.450144
30
0.0
11
0.267643
21
0.449976
31
0.0
0
LINE
8
FRONT
10
0.267643
20
0.449976
30
0.0
11
0.274377
21
0.450481
31
0.0
0
LINE
8
FRONT
10
0.274377
20
0.450481
30
0.0
11
0.281028
21
0.451653
31
0.0
0
LINE
8
FRONT
10
0.281028
20
0.451653
30
0.0
11
0.287529
21
0.453482
31
0.0
0
LINE
8
FRONT
10
0.287529
20
0.453482
30
0.0
11
0.293815
21
0.455950
31
0.0
0
LINE
8
FRONT
10
0.293815
20
0.455950
30
0.0
11
0.299825
21
0.459031
31
0.0
0
LINE
8
FRONT
10
0.299825
20
0.459031
30
0.0
11
0.305498
21
0.462695
31
0.0
0
LINE
8
FRONT
10
0.305498
20
0.462695
30
0.0
11
0.310778
21
0.466905
31
0.0
0
LINE
8
FRONT
10
0.310778
20
0.466905
30
0.0
11
0.315612
21
0.471621
31
0.0
0
LINE
8
FRONT
10
0.315612
20
0.471621
30
0.0
11
0.319953
21
0.476794
31
0.0
0
LINE
8
FRONT
10
0.319953
20
0.476794
30
0.0
11
0.323757
21
0.482374
31
0.0
0
LINE
8
FRONT
10
0.323757
20
0.482374
30
0.0
11
0.326987
21
0.488305
31
0.0
0
LINE
8
FRONT
10
0.326987
20
0.488305
30
0.0
11
0.329611
21
0.494528
31
0.0
0
LINE
8
FRONT
10
0.329611
20
0.494528
30
0.0
11
0.331601
21
0.500981
31
0.0
0
LINE
8
FRONT
10
0.331601
20
0.500981
30
0.0
11
0.332939
21
0.507600
31
0.0
0
LINE
8
FRONT
10
0.332939
20
0.507600
30
0.0
11
0.333612
21
0.514320
31
0.0
0
LINE
8
FRONT
10
0.333612
20
0.514320
30
0.0
11
0.333612
21
0.521073
31
0.0
0
LINE
8
FRONT
10
0.333612
20
0.521073
30
0.0
11
0.332939
21
0.527793
31
0.0
0
LINE
8
FRONT
10
0.332939
20
0.527793
30
0.0
11
0.331601
21
0.534413
31
0.0
0
LINE
8
FRONT
10
0.331601
20
0.534413
30
0.0
11
0.329611
21
0.540866
31
0.0
0
LINE
8
FRONT
10
0.329611
20
0.540866
30
0.0
11
0.326987
21
0.547089
31
0.0
0
LINE
8
FRONT
10
0.326987
20
0.547089
30
0.0
11
0.323757
21
0.553020
31
0.0
0
LINE
8
FRONT
10
0.323757
20
0.553020
30
0.0
11
0.319953
21
0.558600
31
0.0
0
LINE
8
FRONT
10
0.319953
20
0.558600
30
0.0
11
0.315612
21
0.563773
31
0.0
0
LINE
8
FRONT
10
0.315612
20
0.563773
30
0.0
11
0.310778
21
0.568488
31
0.0
0
LINE
8
FRONT
10
0.310778
20
0.568488
30
0.0
11
0.305498
21
0.572699
31
0.0
0
LINE
8
FRONT
10
0.305498
20
0.572699
30
0.0
11
0.299825
21
0.576363
31
0.0
0
LINE
8
FRONT
10
0.299825
20
0.576363
30
0.0
11
0.293815
21
0.579444
31
0.0
0
LINE
8
FRONT
10
0.293815
20
0.579444
30
0.0
11
0.287529
21
0.581911
31
0.0
0
LINE
8
FRONT
10
0.287529
20
0.581911
30
0.0
11
0.281028
21
0.583740
31
0.0
0
LINE
8
FRONT
10
0.281028
20
0.583740
30
0.0
11
0.274377
21
0.584913
31
0.0
0
LINE
8
FRONT
10
0.274377
20
0.584913
30
0.0
11
0.267643
21
0.585418
31
0.0
0
LINE
8
FRONT
10
0.267643
20
0.585418
30
0.0
11
0.260892
21
0.585249
31
0.0
0
LINE
8
FRONT
10
0.260892
20
0.585249
30
0.0
11
0.254191
21
0.584410
31
0.0
0
LINE
8
FRONT
10
0.254191
20
0.584410
30
0.0
11
0.247607
21
0.582907
31
0.0
0
LINE
8
FRONT
10
0.247607
20
0.582907
30
0.0
11
0.241205
21
0.580756
31
0.0
0
LINE
8
FRONT
10
0.241205
20
0.580756
30
0.0
11
0.235049
21
0.577978
31
0.0
0
LINE
8
FRONT
10
0.235049
20
0.577978
30
0.0
11
0.229201
21
0.574602
31
0.0
0
LINE
8
FRONT
10
0.229201
20
0.574602
30
0.0
11
0.223718
21
0.570660
31
0.0
0
LINE
8
FRONT
10
0.223718
20
0.570660
30
0.0
11
0.218654
21
0.566191
31
0.0
0
LINE
8
FRONT
10
0.218654
20
0.566191
30
0.0
11
0.214061
21
0.561240
31
0.0
0
LINE
8
FRONT
10
0.214061
20
0.561240
30
0.0
11
0.209983
21
0.555857
31
0.0
0
LINE
8
FRONT
10
0.209983
20
0.555857
30
0.0
11
0.206461
21
0.550095
31
0.0
0
LINE
8
FRONT
10
0.206461
20
0.550095
30
0.0
11
0.203531
21
0.544010
31
0.0
0
LINE
8
FRONT
10
0.203531
20
0.544010
30
0.0
11
0.201222
21
0.537664
31
0.0
0
LINE
8
FRONT
10
0.201222
20
0.537664
30
0.0
11
0.199555
21
0.531120
31
0.0
0
LINE
8
FRONT
10
0.199555
20
0.531120
30
0.0
11
0.198549
21
0.524442
31
0.0
0
LINE
8
FRONT
10
0.198549
20
0.524442
30
0.0
11
0.198212
21
0.517697
31
0.0
0
LINE
8
LEFT
10
0.904488
20
1.296977
30
0.0
11
0.904488
21
1.194155
31
0.0
0
LINE
8
LEFT
10
0.807714
20
1.296977
30
0.0
11
0.807714
21
1.194155
31
0.0
0
LINE
8
LEFT
10
0.904488
20
1.194155
30
0.0
11
0.904488
21
1.001613
31
0.0
0
LINE
8
LEFT
10
0.807714
20
1.194155
30
0.0
11
0.807714
21
1.001613
31
0.0
0
LINE
8
LEFT
10
0.904488
20
1.001613
30
0.0
11
0.904488
21
0.517742
31
0.0
0
LINE
8
LEFT
10
0.807714
20
1.001613
30
0.0
11
0.807714
21
0.517742
31
0.0
0
LINE
8
LEFT
10
0.807714
20
0.517742
30
0.0
11
0.807714
21
0.372581
31
0.0
0
LINE
8
LEFT
10
0.904488
20
0.517742
30
0.0
11
0.904488
21
0.372581
31
0.0
0
LINE
8
LEFT
10
0.807714
20
1.751613
30
0.0
11
0.807714
21
1.296977
31
0.0
0
LINE
8
LEFT
10
0.904488
20
1.751613
30
0.0
11
0.904488
21
1.296977
31
0.0
0
LINE
8
LEFT
10
0.807714
20
1.296977
30
0.0
11
0.904488
21
1.296977
31
0.0
0
LINE
8
LEFT
10
0.807714
20
1.194155
30
0.0
11
0.904488
21
1.194155
31
0.0
0
LINE
8
LEFT
10
0.807714
20
0.517742
30
0.0
11
0.904488
21
0.517742
31
0.0
0
LINE
8
LEFT
10
0.904488
20
0.372581
30
0.0
11
0.807714
21
0.372581
31
0.0
0
LINE
8
LEFT
10
0.904488
20
1.751613
30
0.0
11
0.807714
21
1.751613
31
0.0
0
LINE
8
LEFT_HID
6
HIDDEN
10
0.807714
20
1.485484
30
0.0
11
0.807714
21
1.295565
31
0.0
0
LINE
8
LEFT_HID
6
HIDDEN
10
0.807714
20
1.295565
30
0.0
11
0.807714
21
1.675403
31
0.0
0
LINE
8
LEFT_HID
6
HIDDEN
10
0.807714
20
1.675403
30
0.0
11
0.807714
21
1.485484
31
0.0
0
LINE
8
LEFT_HID
6
HIDDEN
10
0.904488
20
1.485484
30
0.0
11
0.904488
21
1.295565
31
0.0
0
LINE
8
LEFT_HID
6
HIDDEN
10
0.904488
20
1.295565
30
0.0
11
0.904488
21
1.675403
31
0.0
0
LINE
8
LEFT_HID
6
HIDDEN
10
0.904488
20
1.675403
30
0.0
11
0.904488
21
1.485484
31
0.0
0
LINE
8
LEFT_HID
6
HIDDEN
10
0.807714
20
0.517742
30
0.0
11
0.807714
21
0.450000
31
0.0
0
LINE
8
LEFT_HID
6
HIDDEN
10
0.807714
20
0.450000
30
0.0
11
0.807714
21
0.585484
31
0.0
0
LINE
8
LEFT_HID
6
HIDDEN
10
0.807714
20
0.585484
30
0.0
11
0.807714
21
0.517742
31
0.0
0
LINE
8
LEFT_HID
6
HIDDEN
10
0.904488
20
0.517742
30
0.0
11
0.904488
21
0.450000
31
0.0
0
LINE
8
LEFT_HID
6
HIDDEN
10
0.904488
20
0.450000
30
0.0
11
0.904488
21
0.585484
31
0.0
0
LINE
8
LEFT_HID
6
HIDDEN
10
0.904488
20
0.585484
30
0.0
11
0.904488
21
0.517742
31
0.0
0
LINE
8
LEFT_HID
6
HIDDEN
10
0.904488
20
1.675403
30
0.0
11
0.807714
21
1.675403
31
0.0
0
LINE
8
LEFT_HID
6
HIDDEN
10
0.904488
20
1.295565
30
0.0
11
0.807714
21
1.295565
31
0.0
0
LINE
8
LEFT_HID
6
HIDDEN
10
0.904488
20
0.585484
30
0.0
11
0.807714
21
0.585484
31
0.0
0
LINE
8
LEFT_HID
6
HIDDEN
10
0.904488
20
0.450000
30
0.0
11
0.807714
21
0.450000
31
0.0
0
LINE
8
TOP
10
0.532258
20
0.096774
30
0.0
11
0.000000
21
0.096774
31
0.0
0
LINE
8
TOP
10
0.532258
20
0.000000
30
0.0
11
0.000000
21
0.000000
31
0.0
0
LINE
8
TOP
10
0.532258
20
0.000000
30
0.0
11
0.532258
21
0.096774
31
0.0
0
LINE
8
TOP
10
0.000000
20
0.000000
30
0.0
11
0.000000
21
0.096774
31
0.0
0
LINE
8
TOP_HID
6
HIDDEN
10
0.078273
20
0.000000
30
0.0
11
0.120968
21
0.000000
31
0.0
0
LINE
8
TOP_HID
6
HIDDEN
10
0.120968
20
0.096774
30
0.0
11
0.120968
21
0.000000
31
0.0
0
LINE
8
TOP_HID
6
HIDDEN
10
0.078273
20
0.096774
30
0.0
11
0.120968
21
0.096774
31
0.0
0
LINE
8
TOP_HID
6
HIDDEN
10
0.120968
20
0.096774
30
0.0
11
0.120968
21
0.000000
31
0.0
0
LINE
8
TOP_HID
6
HIDDEN
10
0.120968
20
0.096774
30
0.0
11
0.120968
21
0.000000
31
0.0
0
LINE
8
TOP_HID
6
HIDDEN
10
0.120968
20
0.096774
30
0.0
11
0.411290
21
0.096774
31
0.0
0
LINE
8
TOP_HID
6
HIDDEN
10
0.411290
20
0.096774
30
0.0
11
0.411290
21
0.000000
31
0.0
0
LINE
8
TOP_HID
6
HIDDEN
10
0.120968
20
0.000000
30
0.0
11
0.411290
21
0.000000
31
0.0
0
LINE
8
TOP_HID
6
HIDDEN
10
0.411290
20
0.096774
30
0.0
11
0.411290
21
0.000000
31
0.0
0
LINE
8
TOP_HID
6
HIDDEN
10
0.411290
20
0.096774
30
0.0
11
0.411290
21
0.000000
31
0.0
0
LINE
8
TOP_HID
6
HIDDEN
10
0.411290
20
0.000000
30
0.0
11
0.453985
21
0.000000
31
0.0
0
LINE
8
TOP_HID
6
HIDDEN
10
0.411290
20
0.096774
30
0.0
11
0.453985
21
0.096774
31
0.0
0
LINE
8
TOP_HID
6
HIDDEN
10
0.453985
20
0.096774
30
0.0
11
0.532258
21
0.096774
31
0.0
0
LINE
8
TOP_HID
6
HIDDEN
10
0.000000
20
0.096774
30
0.0
11
0.078273
21
0.096774
31
0.0
0
LINE
8
TOP_HID
6
HIDDEN
10
0.453985
20
0.000000
30
0.0
11
0.532258
21
0.000000
31
0.0
0
LINE
8
TOP_HID
6
HIDDEN
10
0.000000
20
0.000000
30
0.0
11
0.078273
21
0.000000
31
0.0
0
LINE
8
TOP_HID
6
HIDDEN
10
0.076210
20
0.096774
30
0.0
11
0.456048
21
0.096774
31
0.0
0
LINE
8
TOP_HID
6
HIDDEN
10
0.456048
20
0.096774
30
0.0
11
0.076210
21
0.096774
31
0.0
0
LINE
8
TOP_HID
6
HIDDEN
10
0.076210
20
0.096774
30
0.0
11
0.076210
21
0.000000
31
0.0
0
LINE
8
TOP_HID
6
HIDDEN
10
0.076210
20
0.000000
30
0.0
11
0.456048
21
0.000000
31
0.0
0
LINE
8
TOP_HID
6
HIDDEN
10
0.456048
20
0.000000
30
0.0
11
0.076210
21
0.000000
31
0.0
0
LINE
8
TOP_HID
6
HIDDEN
10
0.198387
20
0.096774
30
0.0
11
0.333871
21
0.096774
31
0.0
0
LINE
8
TOP_HID
6
HIDDEN
10
0.333871
20
0.096774
30
0.0
11
0.198387
21
0.096774
31
0.0
0
LINE
8
TOP_HID
6
HIDDEN
10
0.198387
20
0.096774
30
0.0
11
0.198387
21
0.000000
31
0.0
0
LINE
8
TOP_HID
6
HIDDEN
10
0.198387
20
0.000000
30
0.0
11
0.333871
21
0.000000
31
0.0
0
LINE
8
TOP_HID
6
HIDDEN
10
0.333871
20
0.000000
30
0.0
11
0.198387
21
0.000000
31
0.0
0
LINE
8
TOP_HID
6
HIDDEN
10
0.078273
20
0.096774
30
0.0
11
0.078273
21
0.000000
31
0.0
0
LINE
8
TOP_HID
6
HIDDEN
10
0.453985
20
0.096774
30
0.0
11
0.453985
21
0.000000
31
0.0
0
LINE
8
TOP_HID
6
HIDDEN
10
0.456048
20
0.000000
30
0.0
11
0.456048
21
0.096774
31
0.0
0
LINE
8
TOP_HID
6
HIDDEN
10
0.333871
20
0.000000
30
0.0
11
0.333871
21
0.096774
31
0.0
0
ENDSEC
0
EOF
