0
SECTION
2
HEADER
9
$ACADVER
1
AC1009
0
ENDSEC
0
SECTION
2
TABLES
0
TABLE
2
LTYPE
70
3
0
LTYPE
2
CONTINUOUS
70
0
3
Solid line
72
65
73
0
40
0.0
0
LTYPE
2
HIDDEN
70
0
3
__ __ __ __ __
72
65
73
2
40
0.028776
49
0.019193
49
-0.009582
0
LTYPE
2
CENTER
70
0
3
___ _ ___ _ ___
72
65
73
4
40
0.067134
49
0.038358
49
-0.009582
49
0.009582
49
-0.009582
0
ENDTAB
0
TABLE
2
LAYER
70
6
0
LAYER
2
0
70
0
62
7
6
CONTINUOUS
0
LAYER
2
FRONT
70
0
62
7
6
CONTINUOUS
0
LAYER
2
FRONT_HID
70
0
62
7
6
HIDDEN
0
LAYER
2
LEFT
70
0
62
7
6
CONTINUOUS
0
LAYER
2
LEFT_HID
70
0
62
7
6
HIDDEN
0
LAYER
2
TOP
70
0
62
7
6
CONTINUOUS
0
ENDTAB
0
ENDSEC
0
SECTION
2
ENTITIES
0
LINE
8
FRONT
10
0.000000
20
0.690619
30
0.0
11
0.000000
21
0.855983
31
0.0
0
LINE
8
FRONT
10
0.399664
20
0.690619
30
0.0
11
0.000000
21
0.690619
31
0.0
0
LINE
8
FRONT
10
0.399664
20
0.855983
30
0.0
11
0.000000
21
0.855983
31
0.0
0
LINE
8
FRONT
10
0.399664
20
0.690619
30
0.0
11
0.399664
21
0.855983
31
0.0
0
LINE
8
FRONT
10
0.575515
20
0.690619
30
0.0
11
0.399664
21
0.690619
31
0.0
0
LINE
8
FRONT
10
0.575515
20
0.855983
30
0.0
11
0.399664
21
0.855983
31
0.0
0
LINE
8
FRONT
10
0.575515
20
0.690619
30
0.0
11
0.575515
21
0.855983
31
0.0
0
LINE
8
FRONT_HID
6
HIDDEN
10
0.000000
20
0.855983
30
0.0
11
0.111906
21
0.855983
31
0.0
0
LINE
8
FRONT_HID
6
HIDDEN
10
0.111906
20
0.690619
30
0.0
11
0.111906
21
0.855983
31
0.0
0
LINE
8
FRONT_HID
6
HIDDEN
10
0.000000
20
0.690619
30
0.0
11
0.111906
21
0.690619
31
0.0
0
LINE
8
FRONT_HID
6
HIDDEN
10
0.111906
20
0.690619
30
0.0
11
0.111906
21
0.855983
31
0.0
0
LINE
8
FRONT_HID
6
HIDDEN
10
0.287758
20
0.690619
30
0.0
11
0.111906
21
0.690619
31
0.0
0
LINE
8
FRONT_HID
6
HIDDEN
10
0.287758
20
0.690619
30
0.0
11
0.399664
21
0.690619
31
0.0
0
LINE
8
FRONT_HID
6
HIDDEN
10
0.287758
20
0.855983
30
0.0
11
0.111906
21
0.855983
31
0.0
0
LINE
8
FRONT_HID
6
HIDDEN
10
0.287758
20
0.855983
30
0.0
11
0.399664
21
0.855983
31
0.0
0
LINE
8
FRONT_HID
6
HIDDEN
10
0.111906
20
0.855983
30
0.0
11
0.287758
21
0.855983
31
0.0
0
LINE
8
FRONT_HID
6
HIDDEN
10
0.287758
20
0.690619
30
0.0
11
0.287758
21
0.855983
31
0.0
0
LINE
8
FRONT_HID
6
HIDDEN
10
0.111906
20
0.690619
30
0.0
11
0.287758
21
0.690619
31
0.0
0
LINE
8
FRONT_HID
6
HIDDEN
10
0.287758
20
0.690619
30
0.0
11
0.287758
21
0.855983
31
0.0
0
LINE
8
LEFT
10
1.090282
20
0.690619
30
0.0
11
1.090282
21
0.855983
31
0.0
0
LINE
8
LEFT
10
0.690619
20
0.690619
30
0.0
11
0.690619
21
0.855983
31
0.0
0
LINE
8
LEFT
10
0.690619
20
0.855983
30
0.0
11
1.090282
21
0.855983
31
0.0
0
LINE
8
LEFT
10
0.690619
20
0.690619
30
0.0
11
1.090282
21
0.690619
31
0.0
0
LINE
8
LEFT
10
1.090282
20
0.855983
30
0.0
11
1.266134
21
0.855983
31
0.0
0
LINE
8
LEFT
10
1.266134
20
0.690619
30
0.0
11
1.266134
21
0.855983
31
0.0
0
LINE
8
LEFT
10
1.090282
20
0.690619
30
0.0
11
1.266134
21
0.690619
31
0.0
0
LINE
8
LEFT_HID
6
HIDDEN
10
1.090282
20
0.690619
30
0.0
11
0.978376
21
0.690619
31
0.0
0
LINE
8
LEFT_HID
6
HIDDEN
10
0.802524
20
0.690619
30
0.0
11
0.978376
21
0.690619
31
0.0
0
LINE
8
LEFT_HID
6
HIDDEN
10
0.802524
20
0.690619
30
0.0
11
0.690619
21
0.690619
31
0.0
0
LINE
8
LEFT_HID
6
HIDDEN
10
1.090282
20
0.855983
30
0.0
11
0.978376
21
0.855983
31
0.0
0
LINE
8
LEFT_HID
6
HIDDEN
10
0.802524
20
0.855983
30
0.0
11
0.978376
21
0.855983
31
0.0
0
LINE
8
LEFT_HID
6
HIDDEN
10
0.802524
20
0.855983
30
0.0
11
0.690619
21
0.855983
31
0.0
0
LINE
8
LEFT_HID
6
HIDDEN
10
0.978376
20
0.690619
30
0.0
11
0.978376
21
0.855983
31
0.0
0
LINE
8
LEFT_HID
6
HIDDEN
10
0.978376
20
0.690619
30
0.0
11
0.802524
21
0.690619
31
0.0
0
LINE
8
LEFT_HID
6
HIDDEN
10
0.802524
20
0.690619
30
0.0
11
0.802524
21
0.855983
31
0.0
0
LINE
8
LEFT_HID
6
HIDDEN
10
0.978376
20
0.855983
30
0.0
11
0.802524
21
0.855983
31
0.0
0
LINE
8
LEFT_HID
6
HIDDEN
10
0.978376
20
0.690619
30
0.0
11
0.978376
21
0.855983
31
0.0
0
LINE
8
LEFT_HID
6
HIDDEN
10
0.802524
20
0.690619
30
0.0
11
0.802524
21
0.855983
31
0.0
0
LINE
8
TOP
10
0.000000
20
0.175852
30
0.0
11
0.111906
21
0.175852
31
0.0
0
LINE
8
TOP
10
0.000000
20
0.575515
30
0.0
11
0.000000
21
0.175852
31
0.0
0
LINE
8
TOP
10
0.111906
20
0.175852
30
0.0
11
0.111906
21
0.000000
31
0.0
0
LINE
8
TOP
10
0.287758
20
0.175852
30
0.0
11
0.399664
21
0.175852
31
0.0
0
LINE
8
TOP
10
0.399664
20
0.175852
30
0.0
11
0.399664
21
0.287758
31
0.0
0
LINE
8
TOP
10
0.399664
20
0.463610
30
0.0
11
0.399664
21
0.575515
31
0.0
0
LINE
8
TOP
10
0.399664
20
0.575515
30
0.0
11
0.000000
21
0.575515
31
0.0
0
LINE
8
TOP
10
0.111906
20
0.000000
30
0.0
11
0.287758
21
0.000000
31
0.0
0
LINE
8
TOP
10
0.287758
20
0.000000
30
0.0
11
0.287758
21
0.175852
31
0.0
0
LINE
8
TOP
10
0.399664
20
0.287758
30
0.0
11
0.575515
21
0.287758
31
0.0
0
LINE
8
TOP
10
0.575515
20
0.287758
30
0.0
11
0.575515
21
0.463610
31
0.0
0
LINE
8
TOP
10
0.575515
20
0.463610
30
0.0
11
0.399664
21
0.463610
31
0.0
0
ENDSEC
0
EOF
