0
SECTION
2
HEADER
9
$ACADVER
1
AC1009
0
ENDSEC
0
SECTION
2
TABLES
0
TABLE
2
LTYPE
70
3
0
LTYPE
2
CONTINUOUS
70
0
3
Solid line
72
65
73
0
40
0.0
0
LTYPE
2
HIDDEN
70
0
3
__ __ __ __ __
72
65
73
2
40
0.040385
49
0.026937
49
-0.013448
0
LTYPE
2
CENTER
70
0
3
___ _ ___ _ ___
72
65
73
4
40
0.094217
49
0.053833
49
-0.013448
49
0.013448
49
-0.013448
0
ENDTAB
0
TABLE
2
LAYER
70
6
0
LAYER
2
0
70
0
62
7
6
CONTINUOUS
0
LAYER
2
FRONT
70
0
62
7
6
CONTINUOUS
0
LAYER
2
LEFT
70
0
62
7
6
CONTINUOUS
0
LAYER
2
LEFT_HID
70
0
62
7
6
HIDDEN
0
LAYER
2
TOP
70
0
62
7
6
CONTINUOUS
0
LAYER
2
TOP_HID
70
0
62
7
6
HIDDEN
0
ENDTAB
0
ENDSEC
0
SECTION
2
ENTITIES
0
LINE
8
FRONT
10
0.000482
20
0.612688
30
0.0
11
0.038751
21
0.231919
31
0.0
0
LINE
8
FRONT
10
0.000000
20
0.622304
30
0.0
11
0.000000
21
0.622151
31
0.0
0
LINE
8
FRONT
10
0.000000
20
0.622151
30
0.0
11
0.000000
21
0.621998
31
0.0
0
LINE
8
FRONT
10
0.000000
20
0.621998
30
0.0
11
0.000001
21
0.621845
31
0.0
0
LINE
8
FRONT
10
0.000001
20
0.621845
30
0.0
11
0.000002
21
0.621692
31
0.0
0
LINE
8
FRONT
10
0.000002
20
0.621692
30
0.0
11
0.000003
21
0.621539
31
0.0
0
LINE
8
FRONT
10
0.000003
20
0.621539
30
0.0
11
0.000004
21
0.621386
31
0.0
0
LINE
8
FRONT
10
0.000004
20
0.621386
30
0.0
11
0.000006
21
0.621234
31
0.0
0
LINE
8
FRONT
10
0.000006
20
0.621234
30
0.0
11
0.000008
21
0.621081
31
0.0
0
LINE
8
FRONT
10
0.000008
20
0.621081
30
0.0
11
0.000010
21
0.620928
31
0.0
0
LINE
8
FRONT
10
0.000010
20
0.620928
30
0.0
11
0.000012
21
0.620775
31
0.0
0
LINE
8
FRONT
10
0.000012
20
0.620775
30
0.0
11
0.000015
21
0.620622
31
0.0
0
LINE
8
FRONT
10
0.000015
20
0.620622
30
0.0
11
0.000018
21
0.620469
31
0.0
0
LINE
8
FRONT
10
0.000018
20
0.620469
30
0.0
11
0.000021
21
0.620316
31
0.0
0
LINE
8
FRONT
10
0.000021
20
0.620316
30
0.0
11
0.000024
21
0.620164
31
0.0
0
LINE
8
FRONT
10
0.000024
20
0.620164
30
0.0
11
0.000027
21
0.620011
31
0.0
0
LINE
8
FRONT
10
0.000027
20
0.620011
30
0.0
11
0.000031
21
0.619858
31
0.0
0
LINE
8
FRONT
10
0.000031
20
0.619858
30
0.0
11
0.000035
21
0.619705
31
0.0
0
LINE
8
FRONT
10
0.000035
20
0.619705
30
0.0
11
0.000039
21
0.619552
31
0.0
0
LINE
8
FRONT
10
0.000039
20
0.619552
30
0.0
11
0.000044
21
0.619399
31
0.0
0
LINE
8
FRONT
10
0.000044
20
0.619399
30
0.0
11
0.000049
21
0.619247
31
0.0
0
LINE
8
FRONT
10
0.000049
20
0.619247
30
0.0
11
0.000054
21
0.619094
31
0.0
0
LINE
8
FRONT
10
0.000054
20
0.619094
30
0.0
11
0.000059
21
0.618941
31
0.0
0
LINE
8
FRONT
10
0.000059
20
0.618941
30
0.0
11
0.000064
21
0.618788
31
0.0
0
LINE
8
FRONT
10
0.000064
20
0.618788
30
0.0
11
0.000070
21
0.618635
31
0.0
0
LINE
8
FRONT
10
0.000070
20
0.618635
30
0.0
11
0.000076
21
0.618483
31
0.0
0
LINE
8
FRONT
10
0.000076
20
0.618483
30
0.0
11
0.000082
21
0.618330
31
0.0
0
LINE
8
FRONT
10
0.000082
20
0.618330
30
0.0
11
0.000089
21
0.618177
31
0.0
0
LINE
8
FRONT
10
0.000089
20
0.618177
30
0.0
11
0.000095
21
0.618024
31
0.0
0
LINE
8
FRONT
10
0.000095
20
0.618024
30
0.0
11
0.000102
21
0.617872
31
0.0
0
LINE
8
FRONT
10
0.000102
20
0.617872
30
0.0
11
0.000109
21
0.617719
31
0.0
0
LINE
8
FRONT
10
0.000109
20
0.617719
30
0.0
11
0.000117
21
0.617566
31
0.0
0
LINE
8
FRONT
10
0.000117
20
0.617566
30
0.0
11
0.000124
21
0.617414
31
0.0
0
LINE
8
FRONT
10
0.000124
20
0.617414
30
0.0
11
0.000132
21
0.617261
31
0.0
0
LINE
8
FRONT
10
0.000132
20
0.617261
30
0.0
11
0.000140
21
0.617108
31
0.0
0
LINE
8
FRONT
10
0.000140
20
0.617108
30
0.0
11
0.000149
21
0.616956
31
0.0
0
LINE
8
FRONT
10
0.000149
20
0.616956
30
0.0
11
0.000157
21
0.616803
31
0.0
0
LINE
8
FRONT
10
0.000157
20
0.616803
30
0.0
11
0.000166
21
0.616650
31
0.0
0
LINE
8
FRONT
10
0.000166
20
0.616650
30
0.0
11
0.000175
21
0.616498
31
0.0
0
LINE
8
FRONT
10
0.000175
20
0.616498
30
0.0
11
0.000185
21
0.616345
31
0.0
0
LINE
8
FRONT
10
0.000185
20
0.616345
30
0.0
11
0.000194
21
0.616193
31
0.0
0
LINE
8
FRONT
10
0.000194
20
0.616193
30
0.0
11
0.000204
21
0.616040
31
0.0
0
LINE
8
FRONT
10
0.000204
20
0.616040
30
0.0
11
0.000214
21
0.615887
31
0.0
0
LINE
8
FRONT
10
0.000214
20
0.615887
30
0.0
11
0.000225
21
0.615735
31
0.0
0
LINE
8
FRONT
10
0.000225
20
0.615735
30
0.0
11
0.000235
21
0.615582
31
0.0
0
LINE
8
FRONT
10
0.000235
20
0.615582
30
0.0
11
0.000246
21
0.615430
31
0.0
0
LINE
8
FRONT
10
0.000246
20
0.615430
30
0.0
11
0.000257
21
0.615277
31
0.0
0
LINE
8
FRONT
10
0.000257
20
0.615277
30
0.0
11
0.000268
21
0.615125
31
0.0
0
LINE
8
FRONT
10
0.000268
20
0.615125
30
0.0
11
0.000280
21
0.614973
31
0.0
0
LINE
8
FRONT
10
0.000280
20
0.614973
30
0.0
11
0.000292
21
0.614820
31
0.0
0
LINE
8
FRONT
10
0.000292
20
0.614820
30
0.0
11
0.000304
21
0.614668
31
0.0
0
LINE
8
FRONT
10
0.000304
20
0.614668
30
0.0
11
0.000316
21
0.614515
31
0.0
0
LINE
8
FRONT
10
0.000316
20
0.614515
30
0.0
11
0.000328
21
0.614363
31
0.0
0
LINE
8
FRONT
10
0.000328
20
0.614363
30
0.0
11
0.000341
21
0.614211
31
0.0
0
LINE
8
FRONT
10
0.000341
20
0.614211
30
0.0
11
0.000354
21
0.614058
31
0.0
0
LINE
8
FRONT
10
0.000354
20
0.614058
30
0.0
11
0.000367
21
0.613906
31
0.0
0
LINE
8
FRONT
10
0.000367
20
0.613906
30
0.0
11
0.000381
21
0.613754
31
0.0
0
LINE
8
FRONT
10
0.000381
20
0.613754
30
0.0
11
0.000395
21
0.613601
31
0.0
0
LINE
8
FRONT
10
0.000395
20
0.613601
30
0.0
11
0.000409
21
0.613449
31
0.0
0
LINE
8
FRONT
10
0.000409
20
0.613449
30
0.0
11
0.000423
21
0.613297
31
0.0
0
LINE
8
FRONT
10
0.000423
20
0.613297
30
0.0
11
0.000437
21
0.613145
31
0.0
0
LINE
8
FRONT
10
0.000437
20
0.613145
30
0.0
11
0.000452
21
0.612993
31
0.0
0
LINE
8
FRONT
10
0.000452
20
0.612993
30
0.0
11
0.000467
21
0.612840
31
0.0
0
LINE
8
FRONT
10
0.000467
20
0.612840
30
0.0
11
0.000482
21
0.612688
31
0.0
0
LINE
8
FRONT
10
0.038751
20
0.231919
30
0.0
11
0.038905
21
0.230548
31
0.0
0
LINE
8
FRONT
10
0.038905
20
0.230548
30
0.0
11
0.039092
21
0.229182
31
0.0
0
LINE
8
FRONT
10
0.039092
20
0.229182
30
0.0
11
0.039312
21
0.227820
31
0.0
0
LINE
8
FRONT
10
0.039312
20
0.227820
30
0.0
11
0.039564
21
0.226464
31
0.0
0
LINE
8
FRONT
10
0.039564
20
0.226464
30
0.0
11
0.039849
21
0.225114
31
0.0
0
LINE
8
FRONT
10
0.039849
20
0.225114
30
0.0
11
0.040165
21
0.223771
31
0.0
0
LINE
8
FRONT
10
0.040165
20
0.223771
30
0.0
11
0.040514
21
0.222437
31
0.0
0
LINE
8
FRONT
10
0.040514
20
0.222437
30
0.0
11
0.040895
21
0.221111
31
0.0
0
LINE
8
FRONT
10
0.040895
20
0.221111
30
0.0
11
0.041307
21
0.219794
31
0.0
0
LINE
8
FRONT
10
0.041307
20
0.219794
30
0.0
11
0.041750
21
0.218488
31
0.0
0
LINE
8
FRONT
10
0.041750
20
0.218488
30
0.0
11
0.042225
21
0.217193
31
0.0
0
LINE
8
FRONT
10
0.042225
20
0.217193
30
0.0
11
0.042730
21
0.215910
31
0.0
0
LINE
8
FRONT
10
0.042730
20
0.215910
30
0.0
11
0.043266
21
0.214639
31
0.0
0
LINE
8
FRONT
10
0.043266
20
0.214639
30
0.0
11
0.043832
21
0.213381
31
0.0
0
LINE
8
FRONT
10
0.043832
20
0.213381
30
0.0
11
0.044428
21
0.212137
31
0.0
0
LINE
8
FRONT
10
0.044428
20
0.212137
30
0.0
11
0.045054
21
0.210907
31
0.0
0
LINE
8
FRONT
10
0.045054
20
0.210907
30
0.0
11
0.045709
21
0.209693
31
0.0
0
LINE
8
FRONT
10
0.045709
20
0.209693
30
0.0
11
0.046393
21
0.208495
31
0.0
0
LINE
8
FRONT
10
0.046393
20
0.208495
30
0.0
11
0.047105
21
0.207314
31
0.0
0
LINE
8
FRONT
10
0.047105
20
0.207314
30
0.0
11
0.047845
21
0.206150
31
0.0
0
LINE
8
FRONT
10
0.047845
20
0.206150
30
0.0
11
0.048613
21
0.205004
31
0.0
0
LINE
8
FRONT
10
0.048613
20
0.205004
30
0.0
11
0.049408
21
0.203877
31
0.0
0
LINE
8
FRONT
10
0.049408
20
0.203877
30
0.0
11
0.050230
21
0.202769
31
0.0
0
LINE
8
FRONT
10
0.050230
20
0.202769
30
0.0
11
0.051078
21
0.201681
31
0.0
0
LINE
8
FRONT
10
0.051078
20
0.201681
30
0.0
11
0.051951
21
0.200613
31
0.0
0
LINE
8
FRONT
10
0.051951
20
0.200613
30
0.0
11
0.052850
21
0.199567
31
0.0
0
LINE
8
FRONT
10
0.052850
20
0.199567
30
0.0
11
0.053774
21
0.198543
31
0.0
0
LINE
8
FRONT
10
0.053774
20
0.198543
30
0.0
11
0.054722
21
0.197541
31
0.0
0
LINE
8
FRONT
10
0.054722
20
0.197541
30
0.0
11
0.055694
21
0.196562
31
0.0
0
LINE
8
FRONT
10
0.055694
20
0.196562
30
0.0
11
0.056689
21
0.195606
31
0.0
0
LINE
8
FRONT
10
0.056689
20
0.195606
30
0.0
11
0.057706
21
0.194675
31
0.0
0
LINE
8
FRONT
10
0.057706
20
0.194675
30
0.0
11
0.058745
21
0.193768
31
0.0
0
LINE
8
FRONT
10
0.058745
20
0.193768
30
0.0
11
0.059806
21
0.192886
31
0.0
0
LINE
8
FRONT
10
0.059806
20
0.192886
30
0.0
11
0.060888
21
0.192030
31
0.0
0
LINE
8
FRONT
10
0.060888
20
0.192030
30
0.0
11
0.061989
21
0.191200
31
0.0
0
LINE
8
FRONT
10
0.061989
20
0.191200
30
0.0
11
0.063111
21
0.190396
31
0.0
0
LINE
8
FRONT
10
0.063111
20
0.190396
30
0.0
11
0.064251
21
0.189620
31
0.0
0
LINE
8
FRONT
10
0.064251
20
0.189620
30
0.0
11
0.065409
21
0.188871
31
0.0
0
LINE
8
FRONT
10
0.065409
20
0.188871
30
0.0
11
0.066585
21
0.188150
31
0.0
0
LINE
8
FRONT
10
0.066585
20
0.188150
30
0.0
11
0.067778
21
0.187457
31
0.0
0
LINE
8
FRONT
10
0.067778
20
0.187457
30
0.0
11
0.068987
21
0.186793
31
0.0
0
LINE
8
FRONT
10
0.068987
20
0.186793
30
0.0
11
0.070211
21
0.186158
31
0.0
0
LINE
8
FRONT
10
0.070211
20
0.186158
30
0.0
11
0.071451
21
0.185552
31
0.0
0
LINE
8
FRONT
10
0.071451
20
0.185552
30
0.0
11
0.072704
21
0.184977
31
0.0
0
LINE
8
FRONT
10
0.072704
20
0.184977
30
0.0
11
0.073971
21
0.184431
31
0.0
0
LINE
8
FRONT
10
0.073971
20
0.184431
30
0.0
11
0.075251
21
0.183916
31
0.0
0
LINE
8
FRONT
10
0.075251
20
0.183916
30
0.0
11
0.076542
21
0.183432
31
0.0
0
LINE
8
FRONT
10
0.076542
20
0.183432
30
0.0
11
0.077845
21
0.182978
31
0.0
0
LINE
8
FRONT
10
0.077845
20
0.182978
30
0.0
11
0.079158
21
0.182556
31
0.0
0
LINE
8
FRONT
10
0.079158
20
0.182556
30
0.0
11
0.080481
21
0.182166
31
0.0
0
LINE
8
FRONT
10
0.080481
20
0.182166
30
0.0
11
0.081813
21
0.181807
31
0.0
0
LINE
8
FRONT
10
0.081813
20
0.181807
30
0.0
11
0.083153
21
0.181480
31
0.0
0
LINE
8
FRONT
10
0.083153
20
0.181480
30
0.0
11
0.084501
21
0.181185
31
0.0
0
LINE
8
FRONT
10
0.084501
20
0.181185
30
0.0
11
0.085855
21
0.180923
31
0.0
0
LINE
8
FRONT
10
0.085855
20
0.180923
30
0.0
11
0.087215
21
0.180693
31
0.0
0
LINE
8
FRONT
10
0.087215
20
0.180693
30
0.0
11
0.088581
21
0.180495
31
0.0
0
LINE
8
FRONT
10
0.088581
20
0.180495
30
0.0
11
0.089950
21
0.180330
31
0.0
0
LINE
8
FRONT
10
0.089950
20
0.180330
30
0.0
11
0.091323
21
0.180199
31
0.0
0
LINE
8
FRONT
10
0.091323
20
0.180199
30
0.0
11
0.092699
21
0.180100
31
0.0
0
LINE
8
FRONT
10
0.092699
20
0.180100
30
0.0
11
0.094077
21
0.180033
31
0.0
0
LINE
8
FRONT
10
0.094077
20
0.180033
30
0.0
11
0.095456
21
0.180000
31
0.0
0
LINE
8
FRONT
10
0.095456
20
0.180000
30
0.0
11
0.096835
21
0.180000
31
0.0
0
LINE
8
FRONT
10
0.096835
20
0.180000
30
0.0
11
0.098214
21
0.180033
31
0.0
0
LINE
8
FRONT
10
0.098214
20
0.180033
30
0.0
11
0.367102
21
0.189642
31
0.0
0
LINE
8
FRONT
10
0.365385
20
0.285765
30
0.0
11
0.211033
21
0.291299
31
0.0
0
LINE
8
FRONT
10
0.211033
20
0.291299
30
0.0
11
0.209784
21
0.291360
31
0.0
0
LINE
8
FRONT
10
0.209784
20
0.291360
30
0.0
11
0.208538
21
0.291453
31
0.0
0
LINE
8
FRONT
10
0.208538
20
0.291453
30
0.0
11
0.207295
21
0.291579
31
0.0
0
LINE
8
FRONT
10
0.207295
20
0.291579
30
0.0
11
0.206055
21
0.291737
31
0.0
0
LINE
8
FRONT
10
0.206055
20
0.291737
30
0.0
11
0.204820
21
0.291927
31
0.0
0
LINE
8
FRONT
10
0.204820
20
0.291927
30
0.0
11
0.203590
21
0.292149
31
0.0
0
LINE
8
FRONT
10
0.203590
20
0.292149
30
0.0
11
0.202366
21
0.292403
31
0.0
0
LINE
8
FRONT
10
0.202366
20
0.292403
30
0.0
11
0.201149
21
0.292688
31
0.0
0
LINE
8
FRONT
10
0.201149
20
0.292688
30
0.0
11
0.199940
21
0.293005
31
0.0
0
LINE
8
FRONT
10
0.199940
20
0.293005
30
0.0
11
0.198740
21
0.293354
31
0.0
0
LINE
8
FRONT
10
0.198740
20
0.293354
30
0.0
11
0.197549
21
0.293733
31
0.0
0
LINE
8
FRONT
10
0.197549
20
0.293733
30
0.0
11
0.196369
21
0.294143
31
0.0
0
LINE
8
FRONT
10
0.196369
20
0.294143
30
0.0
11
0.195199
21
0.294584
31
0.0
0
LINE
8
FRONT
10
0.195199
20
0.294584
30
0.0
11
0.194041
21
0.295054
31
0.0
0
LINE
8
FRONT
10
0.194041
20
0.295054
30
0.0
11
0.192896
21
0.295555
31
0.0
0
LINE
8
FRONT
10
0.192896
20
0.295555
30
0.0
11
0.191765
21
0.296085
31
0.0
0
LINE
8
FRONT
10
0.191765
20
0.296085
30
0.0
11
0.190647
21
0.296645
31
0.0
0
LINE
8
FRONT
10
0.190647
20
0.296645
30
0.0
11
0.189544
21
0.297233
31
0.0
0
LINE
8
FRONT
10
0.189544
20
0.297233
30
0.0
11
0.188457
21
0.297849
31
0.0
0
LINE
8
FRONT
10
0.188457
20
0.297849
30
0.0
11
0.187387
21
0.298494
31
0.0
0
LINE
8
FRONT
10
0.187387
20
0.298494
30
0.0
11
0.186333
21
0.299166
31
0.0
0
LINE
8
FRONT
10
0.186333
20
0.299166
30
0.0
11
0.185297
21
0.299866
31
0.0
0
LINE
8
FRONT
10
0.185297
20
0.299866
30
0.0
11
0.184280
21
0.300592
31
0.0
0
LINE
8
FRONT
10
0.184280
20
0.300592
30
0.0
11
0.183282
21
0.301344
31
0.0
0
LINE
8
FRONT
10
0.183282
20
0.301344
30
0.0
11
0.182304
21
0.302121
31
0.0
0
LINE
8
FRONT
10
0.182304
20
0.302121
30
0.0
11
0.181346
21
0.302924
31
0.0
0
LINE
8
FRONT
10
0.181346
20
0.302924
30
0.0
11
0.180409
21
0.303752
31
0.0
0
LINE
8
FRONT
10
0.180409
20
0.303752
30
0.0
11
0.179494
21
0.304603
31
0.0
0
LINE
8
FRONT
10
0.179494
20
0.304603
30
0.0
11
0.178602
21
0.305478
31
0.0
0
LINE
8
FRONT
10
0.178602
20
0.305478
30
0.0
11
0.177733
21
0.306376
31
0.0
0
LINE
8
FRONT
10
0.177733
20
0.306376
30
0.0
11
0.176887
21
0.307296
31
0.0
0
LINE
8
FRONT
10
0.176887
20
0.307296
30
0.0
11
0.176065
21
0.308238
31
0.0
0
LINE
8
FRONT
10
0.176065
20
0.308238
30
0.0
11
0.175268
21
0.309201
31
0.0
0
LINE
8
FRONT
10
0.175268
20
0.309201
30
0.0
11
0.174497
21
0.310184
31
0.0
0
LINE
8
FRONT
10
0.174497
20
0.310184
30
0.0
11
0.173751
21
0.311187
31
0.0
0
LINE
8
FRONT
10
0.173751
20
0.311187
30
0.0
11
0.173031
21
0.312208
31
0.0
0
LINE
8
FRONT
10
0.173031
20
0.312208
30
0.0
11
0.172338
21
0.313248
31
0.0
0
LINE
8
FRONT
10
0.172338
20
0.313248
30
0.0
11
0.171673
21
0.314306
31
0.0
0
LINE
8
FRONT
10
0.171673
20
0.314306
30
0.0
11
0.171035
21
0.315381
31
0.0
0
LINE
8
FRONT
10
0.171035
20
0.315381
30
0.0
11
0.170425
21
0.316472
31
0.0
0
LINE
8
FRONT
10
0.170425
20
0.316472
30
0.0
11
0.169844
21
0.317578
31
0.0
0
LINE
8
FRONT
10
0.169844
20
0.317578
30
0.0
11
0.169291
21
0.318699
31
0.0
0
LINE
8
FRONT
10
0.169291
20
0.318699
30
0.0
11
0.168768
21
0.319834
31
0.0
0
LINE
8
FRONT
10
0.168768
20
0.319834
30
0.0
11
0.168274
21
0.320982
31
0.0
0
LINE
8
FRONT
10
0.168274
20
0.320982
30
0.0
11
0.167811
21
0.322143
31
0.0
0
LINE
8
FRONT
10
0.167811
20
0.322143
30
0.0
11
0.167378
21
0.323315
31
0.0
0
LINE
8
FRONT
10
0.167378
20
0.323315
30
0.0
11
0.166975
21
0.324498
31
0.0
0
LINE
8
FRONT
10
0.166975
20
0.324498
30
0.0
11
0.166603
21
0.325692
31
0.0
0
LINE
8
FRONT
10
0.166603
20
0.325692
30
0.0
11
0.166262
21
0.326894
31
0.0
0
LINE
8
FRONT
10
0.166262
20
0.326894
30
0.0
11
0.165953
21
0.328105
31
0.0
0
LINE
8
FRONT
10
0.165953
20
0.328105
30
0.0
11
0.165675
21
0.329323
31
0.0
0
LINE
8
FRONT
10
0.165675
20
0.329323
30
0.0
11
0.165429
21
0.330549
31
0.0
0
LINE
8
FRONT
10
0.165429
20
0.330549
30
0.0
11
0.165214
21
0.331780
31
0.0
0
LINE
8
FRONT
10
0.165214
20
0.331780
30
0.0
11
0.165032
21
0.333016
31
0.0
0
LINE
8
FRONT
10
0.165032
20
0.333016
30
0.0
11
0.164882
21
0.334257
31
0.0
0
LINE
8
FRONT
10
0.164882
20
0.334257
30
0.0
11
0.164764
21
0.335501
31
0.0
0
LINE
8
FRONT
10
0.164764
20
0.335501
30
0.0
11
0.164678
21
0.336748
31
0.0
0
LINE
8
FRONT
10
0.164678
20
0.336748
30
0.0
11
0.164625
21
0.337997
31
0.0
0
LINE
8
FRONT
10
0.164625
20
0.337997
30
0.0
11
0.164604
21
0.339246
31
0.0
0
LINE
8
FRONT
10
0.164604
20
0.339246
30
0.0
11
0.164616
21
0.340496
31
0.0
0
LINE
8
FRONT
10
0.164616
20
0.340496
30
0.0
11
0.164660
21
0.341745
31
0.0
0
LINE
8
FRONT
10
0.164660
20
0.341745
30
0.0
11
0.164737
21
0.342992
31
0.0
0
LINE
8
FRONT
10
0.164737
20
0.342992
30
0.0
11
0.164845
21
0.344237
31
0.0
0
LINE
8
FRONT
10
0.164845
20
0.344237
30
0.0
11
0.191826
21
0.612688
31
0.0
0
LINE
8
FRONT
10
0.191826
20
0.612688
30
0.0
11
0.191862
21
0.613059
31
0.0
0
LINE
8
FRONT
10
0.191862
20
0.613059
30
0.0
11
0.191897
21
0.613430
31
0.0
0
LINE
8
FRONT
10
0.191897
20
0.613430
30
0.0
11
0.191931
21
0.613800
31
0.0
0
LINE
8
FRONT
10
0.191931
20
0.613800
30
0.0
11
0.191963
21
0.614171
31
0.0
0
LINE
8
FRONT
10
0.191963
20
0.614171
30
0.0
11
0.191994
21
0.614542
31
0.0
0
LINE
8
FRONT
10
0.191994
20
0.614542
30
0.0
11
0.192023
21
0.614914
31
0.0
0
LINE
8
FRONT
10
0.192023
20
0.614914
30
0.0
11
0.192051
21
0.615285
31
0.0
0
LINE
8
FRONT
10
0.192051
20
0.615285
30
0.0
11
0.192078
21
0.615656
31
0.0
0
LINE
8
FRONT
10
0.192078
20
0.615656
30
0.0
11
0.192103
21
0.616028
31
0.0
0
LINE
8
FRONT
10
0.192103
20
0.616028
30
0.0
11
0.192126
21
0.616400
31
0.0
0
LINE
8
FRONT
10
0.192126
20
0.616400
30
0.0
11
0.192148
21
0.616771
31
0.0
0
LINE
8
FRONT
10
0.192148
20
0.616771
30
0.0
11
0.192169
21
0.617143
31
0.0
0
LINE
8
FRONT
10
0.192169
20
0.617143
30
0.0
11
0.192188
21
0.617515
31
0.0
0
LINE
8
FRONT
10
0.192188
20
0.617515
30
0.0
11
0.192206
21
0.617887
31
0.0
0
LINE
8
FRONT
10
0.192206
20
0.617887
30
0.0
11
0.192223
21
0.618259
31
0.0
0
LINE
8
FRONT
10
0.192223
20
0.618259
30
0.0
11
0.192238
21
0.618631
31
0.0
0
LINE
8
FRONT
10
0.192238
20
0.618631
30
0.0
11
0.192251
21
0.619003
31
0.0
0
LINE
8
FRONT
10
0.192251
20
0.619003
30
0.0
11
0.192263
21
0.619375
31
0.0
0
LINE
8
FRONT
10
0.192263
20
0.619375
30
0.0
11
0.192274
21
0.619747
31
0.0
0
LINE
8
FRONT
10
0.192274
20
0.619747
30
0.0
11
0.192283
21
0.620120
31
0.0
0
LINE
8
FRONT
10
0.192283
20
0.620120
30
0.0
11
0.192291
21
0.620492
31
0.0
0
LINE
8
FRONT
10
0.192291
20
0.620492
30
0.0
11
0.192297
21
0.620864
31
0.0
0
LINE
8
FRONT
10
0.192297
20
0.620864
30
0.0
11
0.192302
21
0.621237
31
0.0
0
LINE
8
FRONT
10
0.192302
20
0.621237
30
0.0
11
0.192305
21
0.621609
31
0.0
0
LINE
8
FRONT
10
0.192305
20
0.621609
30
0.0
11
0.192307
21
0.621981
31
0.0
0
LINE
8
FRONT
10
0.192307
20
0.621981
30
0.0
11
0.192308
21
0.622354
31
0.0
0
LINE
8
FRONT
10
0.192308
20
0.622354
30
0.0
11
0.192307
21
0.622726
31
0.0
0
LINE
8
FRONT
10
0.192307
20
0.622726
30
0.0
11
0.192304
21
0.623098
31
0.0
0
LINE
8
FRONT
10
0.192304
20
0.623098
30
0.0
11
0.192301
21
0.623471
31
0.0
0
LINE
8
FRONT
10
0.192301
20
0.623471
30
0.0
11
0.192295
21
0.623843
31
0.0
0
LINE
8
FRONT
10
0.192295
20
0.623843
30
0.0
11
0.192289
21
0.624215
31
0.0
0
LINE
8
FRONT
10
0.192289
20
0.624215
30
0.0
11
0.192281
21
0.624588
31
0.0
0
LINE
8
FRONT
10
0.192281
20
0.624588
30
0.0
11
0.192271
21
0.624960
31
0.0
0
LINE
8
FRONT
10
0.192271
20
0.624960
30
0.0
11
0.192260
21
0.625332
31
0.0
0
LINE
8
FRONT
10
0.192260
20
0.625332
30
0.0
11
0.192248
21
0.625704
31
0.0
0
LINE
8
FRONT
10
0.192248
20
0.625704
30
0.0
11
0.192234
21
0.626076
31
0.0
0
LINE
8
FRONT
10
0.192234
20
0.626076
30
0.0
11
0.192218
21
0.626448
31
0.0
0
LINE
8
FRONT
10
0.192218
20
0.626448
30
0.0
11
0.192202
21
0.626820
31
0.0
0
LINE
8
FRONT
10
0.192202
20
0.626820
30
0.0
11
0.192183
21
0.627192
31
0.0
0
LINE
8
FRONT
10
0.192183
20
0.627192
30
0.0
11
0.192164
21
0.627564
31
0.0
0
LINE
8
FRONT
10
0.192164
20
0.627564
30
0.0
11
0.192143
21
0.627936
31
0.0
0
LINE
8
FRONT
10
0.192143
20
0.627936
30
0.0
11
0.192120
21
0.628308
31
0.0
0
LINE
8
FRONT
10
0.192120
20
0.628308
30
0.0
11
0.192096
21
0.628679
31
0.0
0
LINE
8
FRONT
10
0.192096
20
0.628679
30
0.0
11
0.192071
21
0.629051
31
0.0
0
LINE
8
FRONT
10
0.192071
20
0.629051
30
0.0
11
0.192044
21
0.629422
31
0.0
0
LINE
8
FRONT
10
0.192044
20
0.629422
30
0.0
11
0.192016
21
0.629793
31
0.0
0
LINE
8
FRONT
10
0.192016
20
0.629793
30
0.0
11
0.191986
21
0.630164
31
0.0
0
LINE
8
FRONT
10
0.191986
20
0.630164
30
0.0
11
0.191955
21
0.630536
31
0.0
0
LINE
8
FRONT
10
0.191955
20
0.630536
30
0.0
11
0.191922
21
0.630906
31
0.0
0
LINE
8
FRONT
10
0.191922
20
0.630906
30
0.0
11
0.191888
21
0.631277
31
0.0
0
LINE
8
FRONT
10
0.191888
20
0.631277
30
0.0
11
0.191853
21
0.631648
31
0.0
0
LINE
8
FRONT
10
0.191853
20
0.631648
30
0.0
11
0.191816
21
0.632018
31
0.0
0
LINE
8
FRONT
10
0.191816
20
0.632018
30
0.0
11
0.191777
21
0.632389
31
0.0
0
LINE
8
FRONT
10
0.191777
20
0.632389
30
0.0
11
0.191738
21
0.632759
31
0.0
0
LINE
8
FRONT
10
0.191738
20
0.632759
30
0.0
11
0.191696
21
0.633129
31
0.0
0
LINE
8
FRONT
10
0.191696
20
0.633129
30
0.0
11
0.191654
21
0.633499
31
0.0
0
LINE
8
FRONT
10
0.191654
20
0.633499
30
0.0
11
0.191610
21
0.633869
31
0.0
0
LINE
8
FRONT
10
0.191610
20
0.633869
30
0.0
11
0.191564
21
0.634238
31
0.0
0
LINE
8
FRONT
10
0.191564
20
0.634238
30
0.0
11
0.191517
21
0.634608
31
0.0
0
LINE
8
FRONT
10
0.191517
20
0.634608
30
0.0
11
0.191469
21
0.634977
31
0.0
0
LINE
8
FRONT
10
0.191469
20
0.634977
30
0.0
11
0.191419
21
0.635346
31
0.0
0
LINE
8
FRONT
10
0.191419
20
0.635346
30
0.0
11
0.191368
21
0.635715
31
0.0
0
LINE
8
FRONT
10
0.191368
20
0.635715
30
0.0
11
0.191315
21
0.636083
31
0.0
0
LINE
8
FRONT
10
0.000548
20
0.632554
30
0.0
11
0.000531
21
0.632392
31
0.0
0
LINE
8
FRONT
10
0.000531
20
0.632392
30
0.0
11
0.000514
21
0.632230
31
0.0
0
LINE
8
FRONT
10
0.000514
20
0.632230
30
0.0
11
0.000497
21
0.632068
31
0.0
0
LINE
8
FRONT
10
0.000497
20
0.632068
30
0.0
11
0.000481
21
0.631906
31
0.0
0
LINE
8
FRONT
10
0.000481
20
0.631906
30
0.0
11
0.000464
21
0.631743
31
0.0
0
LINE
8
FRONT
10
0.000464
20
0.631743
30
0.0
11
0.000449
21
0.631581
31
0.0
0
LINE
8
FRONT
10
0.000449
20
0.631581
30
0.0
11
0.000433
21
0.631419
31
0.0
0
LINE
8
FRONT
10
0.000433
20
0.631419
30
0.0
11
0.000418
21
0.631257
31
0.0
0
LINE
8
FRONT
10
0.000418
20
0.631257
30
0.0
11
0.000403
21
0.631094
31
0.0
0
LINE
8
FRONT
10
0.000403
20
0.631094
30
0.0
11
0.000388
21
0.630932
31
0.0
0
LINE
8
FRONT
10
0.000388
20
0.630932
30
0.0
11
0.000373
21
0.630769
31
0.0
0
LINE
8
FRONT
10
0.000373
20
0.630769
30
0.0
11
0.000359
21
0.630607
31
0.0
0
LINE
8
FRONT
10
0.000359
20
0.630607
30
0.0
11
0.000345
21
0.630445
31
0.0
0
LINE
8
FRONT
10
0.000345
20
0.630445
30
0.0
11
0.000332
21
0.630282
31
0.0
0
LINE
8
FRONT
10
0.000332
20
0.630282
30
0.0
11
0.000318
21
0.630120
31
0.0
0
LINE
8
FRONT
10
0.000318
20
0.630120
30
0.0
11
0.000305
21
0.629957
31
0.0
0
LINE
8
FRONT
10
0.000305
20
0.629957
30
0.0
11
0.000292
21
0.629795
31
0.0
0
LINE
8
FRONT
10
0.000292
20
0.629795
30
0.0
11
0.000280
21
0.629632
31
0.0
0
LINE
8
FRONT
10
0.000280
20
0.629632
30
0.0
11
0.000267
21
0.629470
31
0.0
0
LINE
8
FRONT
10
0.000267
20
0.629470
30
0.0
11
0.000255
21
0.629307
31
0.0
0
LINE
8
FRONT
10
0.000255
20
0.629307
30
0.0
11
0.000244
21
0.629145
31
0.0
0
LINE
8
FRONT
10
0.000244
20
0.629145
30
0.0
11
0.000232
21
0.628982
31
0.0
0
LINE
8
FRONT
10
0.000232
20
0.628982
30
0.0
11
0.000221
21
0.628819
31
0.0
0
LINE
8
FRONT
10
0.000221
20
0.628819
30
0.0
11
0.000210
21
0.628657
31
0.0
0
LINE
8
FRONT
10
0.000210
20
0.628657
30
0.0
11
0.000199
21
0.628494
31
0.0
0
LINE
8
FRONT
10
0.000199
20
0.628494
30
0.0
11
0.000189
21
0.628331
31
0.0
0
LINE
8
FRONT
10
0.000189
20
0.628331
30
0.0
11
0.000179
21
0.628169
31
0.0
0
LINE
8
FRONT
10
0.000179
20
0.628169
30
0.0
11
0.000169
21
0.628006
31
0.0
0
LINE
8
FRONT
10
0.000169
20
0.628006
30
0.0
11
0.000160
21
0.627843
31
0.0
0
LINE
8
FRONT
10
0.000160
20
0.627843
30
0.0
11
0.000150
21
0.627680
31
0.0
0
LINE
8
FRONT
10
0.000150
20
0.627680
30
0.0
11
0.000141
21
0.627518
31
0.0
0
LINE
8
FRONT
10
0.000141
20
0.627518
30
0.0
11
0.000133
21
0.627355
31
0.0
0
LINE
8
FRONT
10
0.000133
20
0.627355
30
0.0
11
0.000124
21
0.627192
31
0.0
0
LINE
8
FRONT
10
0.000124
20
0.627192
30
0.0
11
0.000116
21
0.627029
31
0.0
0
LINE
8
FRONT
10
0.000116
20
0.627029
30
0.0
11
0.000108
21
0.626866
31
0.0
0
LINE
8
FRONT
10
0.000108
20
0.626866
30
0.0
11
0.000101
21
0.626704
31
0.0
0
LINE
8
FRONT
10
0.000101
20
0.626704
30
0.0
11
0.000093
21
0.626541
31
0.0
0
LINE
8
FRONT
10
0.000093
20
0.626541
30
0.0
11
0.000086
21
0.626378
31
0.0
0
LINE
8
FRONT
10
0.000086
20
0.626378
30
0.0
11
0.000080
21
0.626215
31
0.0
0
LINE
8
FRONT
10
0.000080
20
0.626215
30
0.0
11
0.000073
21
0.626052
31
0.0
0
LINE
8
FRONT
10
0.000073
20
0.626052
30
0.0
11
0.000067
21
0.625889
31
0.0
0
LINE
8
FRONT
10
0.000067
20
0.625889
30
0.0
11
0.000061
21
0.625726
31
0.0
0
LINE
8
FRONT
10
0.000061
20
0.625726
30
0.0
11
0.000055
21
0.625563
31
0.0
0
LINE
8
FRONT
10
0.000055
20
0.625563
30
0.0
11
0.000050
21
0.625400
31
0.0
0
LINE
8
FRONT
10
0.000050
20
0.625400
30
0.0
11
0.000045
21
0.625237
31
0.0
0
LINE
8
FRONT
10
0.000045
20
0.625237
30
0.0
11
0.000040
21
0.625075
31
0.0
0
LINE
8
FRONT
10
0.000040
20
0.625075
30
0.0
11
0.000035
21
0.624912
31
0.0
0
LINE
8
FRONT
10
0.000035
20
0.624912
30
0.0
11
0.000031
21
0.624749
31
0.0
0
LINE
8
FRONT
10
0.000031
20
0.624749
30
0.0
11
0.000027
21
0.624586
31
0.0
0
LINE
8
FRONT
10
0.000027
20
0.624586
30
0.0
11
0.000023
21
0.624423
31
0.0
0
LINE
8
FRONT
10
0.000023
20
0.624423
30
0.0
11
0.000020
21
0.624260
31
0.0
0
LINE
8
FRONT
10
0.000020
20
0.624260
30
0.0
11
0.000017
21
0.624097
31
0.0
0
LINE
8
FRONT
10
0.000017
20
0.624097
30
0.0
11
0.000014
21
0.623934
31
0.0
0
LINE
8
FRONT
10
0.000014
20
0.623934
30
0.0
11
0.000011
21
0.623771
31
0.0
0
LINE
8
FRONT
10
0.000011
20
0.623771
30
0.0
11
0.000009
21
0.623608
31
0.0
0
LINE
8
FRONT
10
0.000009
20
0.623608
30
0.0
11
0.000007
21
0.623445
31
0.0
0
LINE
8
FRONT
10
0.000007
20
0.623445
30
0.0
11
0.000005
21
0.623282
31
0.0
0
LINE
8
FRONT
10
0.000005
20
0.623282
30
0.0
11
0.000003
21
0.623119
31
0.0
0
LINE
8
FRONT
10
0.000003
20
0.623119
30
0.0
11
0.000002
21
0.622956
31
0.0
0
LINE
8
FRONT
10
0.000002
20
0.622956
30
0.0
11
0.000001
21
0.622793
31
0.0
0
LINE
8
FRONT
10
0.000001
20
0.622793
30
0.0
11
0.000001
21
0.622630
31
0.0
0
LINE
8
FRONT
10
0.000001
20
0.622630
30
0.0
11
0.000000
21
0.622467
31
0.0
0
LINE
8
FRONT
10
0.000000
20
0.622467
30
0.0
11
0.000000
21
0.622304
31
0.0
0
LINE
8
FRONT
10
0.076923
20
0.622304
30
0.0
11
0.077019
21
0.620389
31
0.0
0
LINE
8
FRONT
10
0.077019
20
0.620389
30
0.0
11
0.077304
21
0.618493
31
0.0
0
LINE
8
FRONT
10
0.077304
20
0.618493
30
0.0
11
0.077777
21
0.616635
31
0.0
0
LINE
8
FRONT
10
0.077777
20
0.616635
30
0.0
11
0.078433
21
0.614834
31
0.0
0
LINE
8
FRONT
10
0.078433
20
0.614834
30
0.0
11
0.079265
21
0.613106
31
0.0
0
LINE
8
FRONT
10
0.079265
20
0.613106
30
0.0
11
0.080265
21
0.611471
31
0.0
0
LINE
8
FRONT
10
0.080265
20
0.611471
30
0.0
11
0.081422
21
0.609942
31
0.0
0
LINE
8
FRONT
10
0.081422
20
0.609942
30
0.0
11
0.082726
21
0.608537
31
0.0
0
LINE
8
FRONT
10
0.082726
20
0.608537
30
0.0
11
0.084164
21
0.607268
31
0.0
0
LINE
8
FRONT
10
0.084164
20
0.607268
30
0.0
11
0.085720
21
0.606149
31
0.0
0
LINE
8
FRONT
10
0.085720
20
0.606149
30
0.0
11
0.087381
21
0.605191
31
0.0
0
LINE
8
FRONT
10
0.087381
20
0.605191
30
0.0
11
0.089128
21
0.604402
31
0.0
0
LINE
8
FRONT
10
0.089128
20
0.604402
30
0.0
11
0.090945
21
0.603792
31
0.0
0
LINE
8
FRONT
10
0.090945
20
0.603792
30
0.0
11
0.092814
21
0.603365
31
0.0
0
LINE
8
FRONT
10
0.092814
20
0.603365
30
0.0
11
0.094717
21
0.603127
31
0.0
0
LINE
8
FRONT
10
0.094717
20
0.603127
30
0.0
11
0.096633
21
0.603079
31
0.0
0
LINE
8
FRONT
10
0.096633
20
0.603079
30
0.0
11
0.098545
21
0.603222
31
0.0
0
LINE
8
FRONT
10
0.098545
20
0.603222
30
0.0
11
0.100433
21
0.603555
31
0.0
0
LINE
8
FRONT
10
0.100433
20
0.603555
30
0.0
11
0.102279
21
0.604074
31
0.0
0
LINE
8
FRONT
10
0.102279
20
0.604074
30
0.0
11
0.104063
21
0.604775
31
0.0
0
LINE
8
FRONT
10
0.104063
20
0.604775
30
0.0
11
0.105769
21
0.605649
31
0.0
0
LINE
8
FRONT
10
0.105769
20
0.605649
30
0.0
11
0.107380
21
0.606689
31
0.0
0
LINE
8
FRONT
10
0.107380
20
0.606689
30
0.0
11
0.108879
21
0.607885
31
0.0
0
LINE
8
FRONT
10
0.108879
20
0.607885
30
0.0
11
0.110251
21
0.609223
31
0.0
0
LINE
8
FRONT
10
0.110251
20
0.609223
30
0.0
11
0.111483
21
0.610692
31
0.0
0
LINE
8
FRONT
10
0.111483
20
0.610692
30
0.0
11
0.112563
21
0.612276
31
0.0
0
LINE
8
FRONT
10
0.112563
20
0.612276
30
0.0
11
0.113480
21
0.613960
31
0.0
0
LINE
8
FRONT
10
0.113480
20
0.613960
30
0.0
11
0.114225
21
0.615726
31
0.0
0
LINE
8
FRONT
10
0.114225
20
0.615726
30
0.0
11
0.114790
21
0.617558
31
0.0
0
LINE
8
FRONT
10
0.114790
20
0.617558
30
0.0
11
0.115170
21
0.619437
31
0.0
0
LINE
8
FRONT
10
0.115170
20
0.619437
30
0.0
11
0.115361
21
0.621345
31
0.0
0
LINE
8
FRONT
10
0.115361
20
0.621345
30
0.0
11
0.115361
21
0.623262
31
0.0
0
LINE
8
FRONT
10
0.115361
20
0.623262
30
0.0
11
0.115170
21
0.625170
31
0.0
0
LINE
8
FRONT
10
0.115170
20
0.625170
30
0.0
11
0.114790
21
0.627049
31
0.0
0
LINE
8
FRONT
10
0.114790
20
0.627049
30
0.0
11
0.114225
21
0.628881
31
0.0
0
LINE
8
FRONT
10
0.114225
20
0.628881
30
0.0
11
0.113480
21
0.630648
31
0.0
0
LINE
8
FRONT
10
0.113480
20
0.630648
30
0.0
11
0.112563
21
0.632331
31
0.0
0
LINE
8
FRONT
10
0.112563
20
0.632331
30
0.0
11
0.111483
21
0.633915
31
0.0
0
LINE
8
FRONT
10
0.111483
20
0.633915
30
0.0
11
0.110251
21
0.635384
31
0.0
0
LINE
8
FRONT
10
0.110251
20
0.635384
30
0.0
11
0.108879
21
0.636723
31
0.0
0
LINE
8
FRONT
10
0.108879
20
0.636723
30
0.0
11
0.107380
21
0.637918
31
0.0
0
LINE
8
FRONT
10
0.107380
20
0.637918
30
0.0
11
0.105769
21
0.638958
31
0.0
0
LINE
8
FRONT
10
0.105769
20
0.638958
30
0.0
11
0.104063
21
0.639833
31
0.0
0
LINE
8
FRONT
10
0.104063
20
0.639833
30
0.0
11
0.102279
21
0.640533
31
0.0
0
LINE
8
FRONT
10
0.102279
20
0.640533
30
0.0
11
0.100433
21
0.641052
31
0.0
0
LINE
8
FRONT
10
0.100433
20
0.641052
30
0.0
11
0.098545
21
0.641385
31
0.0
0
LINE
8
FRONT
10
0.098545
20
0.641385
30
0.0
11
0.096633
21
0.641528
31
0.0
0
LINE
8
FRONT
10
0.096633
20
0.641528
30
0.0
11
0.094717
21
0.641481
31
0.0
0
LINE
8
FRONT
10
0.094717
20
0.641481
30
0.0
11
0.092814
21
0.641242
31
0.0
0
LINE
8
FRONT
10
0.092814
20
0.641242
30
0.0
11
0.090945
21
0.640816
31
0.0
0
LINE
8
FRONT
10
0.090945
20
0.640816
30
0.0
11
0.089128
21
0.640205
31
0.0
0
LINE
8
FRONT
10
0.089128
20
0.640205
30
0.0
11
0.087381
21
0.639417
31
0.0
0
LINE
8
FRONT
10
0.087381
20
0.639417
30
0.0
11
0.085720
21
0.638458
31
0.0
0
LINE
8
FRONT
10
0.085720
20
0.638458
30
0.0
11
0.084164
21
0.637339
31
0.0
0
LINE
8
FRONT
10
0.084164
20
0.637339
30
0.0
11
0.082726
21
0.636070
31
0.0
0
LINE
8
FRONT
10
0.082726
20
0.636070
30
0.0
11
0.081422
21
0.634665
31
0.0
0
LINE
8
FRONT
10
0.081422
20
0.634665
30
0.0
11
0.080265
21
0.633137
31
0.0
0
LINE
8
FRONT
10
0.080265
20
0.633137
30
0.0
11
0.079265
21
0.631501
31
0.0
0
LINE
8
FRONT
10
0.079265
20
0.631501
30
0.0
11
0.078433
21
0.629774
31
0.0
0
LINE
8
FRONT
10
0.078433
20
0.629774
30
0.0
11
0.077777
21
0.627972
31
0.0
0
LINE
8
FRONT
10
0.077777
20
0.627972
30
0.0
11
0.077304
21
0.626114
31
0.0
0
LINE
8
FRONT
10
0.077304
20
0.626114
30
0.0
11
0.077019
21
0.624218
31
0.0
0
LINE
8
FRONT
10
0.077019
20
0.624218
30
0.0
11
0.076923
21
0.622304
31
0.0
0
LINE
8
FRONT
10
0.076923
20
0.237688
30
0.0
11
0.077019
21
0.235774
31
0.0
0
LINE
8
FRONT
10
0.077019
20
0.235774
30
0.0
11
0.077304
21
0.233878
31
0.0
0
LINE
8
FRONT
10
0.077304
20
0.233878
30
0.0
11
0.077777
21
0.232020
31
0.0
0
LINE
8
FRONT
10
0.077777
20
0.232020
30
0.0
11
0.078433
21
0.230218
31
0.0
0
LINE
8
FRONT
10
0.078433
20
0.230218
30
0.0
11
0.079265
21
0.228491
31
0.0
0
LINE
8
FRONT
10
0.079265
20
0.228491
30
0.0
11
0.080265
21
0.226855
31
0.0
0
LINE
8
FRONT
10
0.080265
20
0.226855
30
0.0
11
0.081422
21
0.225327
31
0.0
0
LINE
8
FRONT
10
0.081422
20
0.225327
30
0.0
11
0.082726
21
0.223922
31
0.0
0
LINE
8
FRONT
10
0.082726
20
0.223922
30
0.0
11
0.084164
21
0.222653
31
0.0
0
LINE
8
FRONT
10
0.084164
20
0.222653
30
0.0
11
0.085720
21
0.221534
31
0.0
0
LINE
8
FRONT
10
0.085720
20
0.221534
30
0.0
11
0.087381
21
0.220575
31
0.0
0
LINE
8
FRONT
10
0.087381
20
0.220575
30
0.0
11
0.089128
21
0.219787
31
0.0
0
LINE
8
FRONT
10
0.089128
20
0.219787
30
0.0
11
0.090945
21
0.219176
31
0.0
0
LINE
8
FRONT
10
0.090945
20
0.219176
30
0.0
11
0.092814
21
0.218750
31
0.0
0
LINE
8
FRONT
10
0.092814
20
0.218750
30
0.0
11
0.094717
21
0.218511
31
0.0
0
LINE
8
FRONT
10
0.094717
20
0.218511
30
0.0
11
0.096633
21
0.218463
31
0.0
0
LINE
8
FRONT
10
0.096633
20
0.218463
30
0.0
11
0.098545
21
0.218607
31
0.0
0
LINE
8
FRONT
10
0.098545
20
0.218607
30
0.0
11
0.100433
21
0.218940
31
0.0
0
LINE
8
FRONT
10
0.100433
20
0.218940
30
0.0
11
0.102279
21
0.219459
31
0.0
0
LINE
8
FRONT
10
0.102279
20
0.219459
30
0.0
11
0.104063
21
0.220159
31
0.0
0
LINE
8
FRONT
10
0.104063
20
0.220159
30
0.0
11
0.105769
21
0.221034
31
0.0
0
LINE
8
FRONT
10
0.105769
20
0.221034
30
0.0
11
0.107380
21
0.222074
31
0.0
0
LINE
8
FRONT
10
0.107380
20
0.222074
30
0.0
11
0.108879
21
0.223269
31
0.0
0
LINE
8
FRONT
10
0.108879
20
0.223269
30
0.0
11
0.110251
21
0.224608
31
0.0
0
LINE
8
FRONT
10
0.110251
20
0.224608
30
0.0
11
0.111483
21
0.226077
31
0.0
0
LINE
8
FRONT
10
0.111483
20
0.226077
30
0.0
11
0.112563
21
0.227661
31
0.0
0
LINE
8
FRONT
10
0.112563
20
0.227661
30
0.0
11
0.113480
21
0.229344
31
0.0
0
LINE
8
FRONT
10
0.113480
20
0.229344
30
0.0
11
0.114225
21
0.231111
31
0.0
0
LINE
8
FRONT
10
0.114225
20
0.231111
30
0.0
11
0.114790
21
0.232943
31
0.0
0
LINE
8
FRONT
10
0.114790
20
0.232943
30
0.0
11
0.115170
21
0.234822
31
0.0
0
LINE
8
FRONT
10
0.115170
20
0.234822
30
0.0
11
0.115361
21
0.236730
31
0.0
0
LINE
8
FRONT
10
0.115361
20
0.236730
30
0.0
11
0.115361
21
0.238647
31
0.0
0
LINE
8
FRONT
10
0.115361
20
0.238647
30
0.0
11
0.115170
21
0.240554
31
0.0
0
LINE
8
FRONT
10
0.115170
20
0.240554
30
0.0
11
0.114790
21
0.242434
31
0.0
0
LINE
8
FRONT
10
0.114790
20
0.242434
30
0.0
11
0.114225
21
0.244266
31
0.0
0
LINE
8
FRONT
10
0.114225
20
0.244266
30
0.0
11
0.113480
21
0.246032
31
0.0
0
LINE
8
FRONT
10
0.113480
20
0.246032
30
0.0
11
0.112563
21
0.247716
31
0.0
0
LINE
8
FRONT
10
0.112563
20
0.247716
30
0.0
11
0.111483
21
0.249300
31
0.0
0
LINE
8
FRONT
10
0.111483
20
0.249300
30
0.0
11
0.110251
21
0.250769
31
0.0
0
LINE
8
FRONT
10
0.110251
20
0.250769
30
0.0
11
0.108879
21
0.252107
31
0.0
0
LINE
8
FRONT
10
0.108879
20
0.252107
30
0.0
11
0.107380
21
0.253302
31
0.0
0
LINE
8
FRONT
10
0.107380
20
0.253302
30
0.0
11
0.105769
21
0.254343
31
0.0
0
LINE
8
FRONT
10
0.105769
20
0.254343
30
0.0
11
0.104063
21
0.255217
31
0.0
0
LINE
8
FRONT
10
0.104063
20
0.255217
30
0.0
11
0.102279
21
0.255918
31
0.0
0
LINE
8
FRONT
10
0.102279
20
0.255918
30
0.0
11
0.100433
21
0.256437
31
0.0
0
LINE
8
FRONT
10
0.100433
20
0.256437
30
0.0
11
0.098545
21
0.256770
31
0.0
0
LINE
8
FRONT
10
0.098545
20
0.256770
30
0.0
11
0.096633
21
0.256913
31
0.0
0
LINE
8
FRONT
10
0.096633
20
0.256913
30
0.0
11
0.094717
21
0.256865
31
0.0
0
LINE
8
FRONT
10
0.094717
20
0.256865
30
0.0
11
0.092814
21
0.256627
31
0.0
0
LINE
8
FRONT
10
0.092814
20
0.256627
30
0.0
11
0.090945
21
0.256200
31
0.0
0
LINE
8
FRONT
10
0.090945
20
0.256200
30
0.0
11
0.089128
21
0.255590
31
0.0
0
LINE
8
FRONT
10
0.089128
20
0.255590
30
0.0
11
0.087381
21
0.254801
31
0.0
0
LINE
8
FRONT
10
0.087381
20
0.254801
30
0.0
11
0.085720
21
0.253843
31
0.0
0
LINE
8
FRONT
10
0.085720
20
0.253843
30
0.0
11
0.084164
21
0.252724
31
0.0
0
LINE
8
FRONT
10
0.084164
20
0.252724
30
0.0
11
0.082726
21
0.251455
31
0.0
0
LINE
8
FRONT
10
0.082726
20
0.251455
30
0.0
11
0.081422
21
0.250050
31
0.0
0
LINE
8
FRONT
10
0.081422
20
0.250050
30
0.0
11
0.080265
21
0.248521
31
0.0
0
LINE
8
FRONT
10
0.080265
20
0.248521
30
0.0
11
0.079265
21
0.246885
31
0.0
0
LINE
8
FRONT
10
0.079265
20
0.246885
30
0.0
11
0.078433
21
0.245158
31
0.0
0
LINE
8
FRONT
10
0.078433
20
0.245158
30
0.0
11
0.077777
21
0.243357
31
0.0
0
LINE
8
FRONT
10
0.077777
20
0.243357
30
0.0
11
0.077304
21
0.241499
31
0.0
0
LINE
8
FRONT
10
0.077304
20
0.241499
30
0.0
11
0.077019
21
0.239603
31
0.0
0
LINE
8
FRONT
10
0.077019
20
0.239603
30
0.0
11
0.076923
21
0.237688
31
0.0
0
LINE
8
FRONT
10
0.367102
20
0.189642
30
0.0
11
0.369467
21
0.189785
31
0.0
0
LINE
8
FRONT
10
0.369467
20
0.189785
30
0.0
11
0.371823
21
0.190044
31
0.0
0
LINE
8
FRONT
10
0.371823
20
0.190044
30
0.0
11
0.374163
21
0.190420
31
0.0
0
LINE
8
FRONT
10
0.374163
20
0.190420
30
0.0
11
0.376482
21
0.190910
31
0.0
0
LINE
8
FRONT
10
0.376482
20
0.190910
30
0.0
11
0.378773
21
0.191513
31
0.0
0
LINE
8
FRONT
10
0.378773
20
0.191513
30
0.0
11
0.381033
21
0.192229
31
0.0
0
LINE
8
FRONT
10
0.381033
20
0.192229
30
0.0
11
0.383254
21
0.193056
31
0.0
0
LINE
8
FRONT
10
0.383254
20
0.193056
30
0.0
11
0.385432
21
0.193990
31
0.0
0
LINE
8
FRONT
10
0.385432
20
0.193990
30
0.0
11
0.387561
21
0.195031
31
0.0
0
LINE
8
FRONT
10
0.387561
20
0.195031
30
0.0
11
0.389636
21
0.196176
31
0.0
0
LINE
8
FRONT
10
0.389636
20
0.196176
30
0.0
11
0.391652
21
0.197422
31
0.0
0
LINE
8
FRONT
10
0.391652
20
0.197422
30
0.0
11
0.393605
21
0.198765
31
0.0
0
LINE
8
FRONT
10
0.393605
20
0.198765
30
0.0
11
0.395488
21
0.200203
31
0.0
0
LINE
8
FRONT
10
0.395488
20
0.200203
30
0.0
11
0.397299
21
0.201732
31
0.0
0
LINE
8
FRONT
10
0.397299
20
0.201732
30
0.0
11
0.399032
21
0.203348
31
0.0
0
LINE
8
FRONT
10
0.399032
20
0.203348
30
0.0
11
0.400684
21
0.205048
31
0.0
0
LINE
8
FRONT
10
0.400684
20
0.205048
30
0.0
11
0.402249
21
0.206827
31
0.0
0
LINE
8
FRONT
10
0.402249
20
0.206827
30
0.0
11
0.403725
21
0.208682
31
0.0
0
LINE
8
FRONT
10
0.403725
20
0.208682
30
0.0
11
0.405108
21
0.210606
31
0.0
0
LINE
8
FRONT
10
0.405108
20
0.210606
30
0.0
11
0.406394
21
0.212597
31
0.0
0
LINE
8
FRONT
10
0.406394
20
0.212597
30
0.0
11
0.407581
21
0.214648
31
0.0
0
LINE
8
FRONT
10
0.407581
20
0.214648
30
0.0
11
0.408665
21
0.216755
31
0.0
0
LINE
8
FRONT
10
0.408665
20
0.216755
30
0.0
11
0.409644
21
0.218914
31
0.0
0
LINE
8
FRONT
10
0.409644
20
0.218914
30
0.0
11
0.410516
21
0.221118
31
0.0
0
LINE
8
FRONT
10
0.410516
20
0.221118
30
0.0
11
0.411277
21
0.223362
31
0.0
0
LINE
8
FRONT
10
0.411277
20
0.223362
30
0.0
11
0.411928
21
0.225641
31
0.0
0
LINE
8
FRONT
10
0.411928
20
0.225641
30
0.0
11
0.412465
21
0.227949
31
0.0
0
LINE
8
FRONT
10
0.412465
20
0.227949
30
0.0
11
0.412887
21
0.230281
31
0.0
0
LINE
8
FRONT
10
0.412887
20
0.230281
30
0.0
11
0.413195
21
0.232631
31
0.0
0
LINE
8
FRONT
10
0.413195
20
0.232631
30
0.0
11
0.413386
21
0.234993
31
0.0
0
LINE
8
FRONT
10
0.413386
20
0.234993
30
0.0
11
0.413460
21
0.237362
31
0.0
0
LINE
8
FRONT
10
0.413460
20
0.237362
30
0.0
11
0.413418
21
0.239731
31
0.0
0
LINE
8
FRONT
10
0.413418
20
0.239731
30
0.0
11
0.413259
21
0.242096
31
0.0
0
LINE
8
FRONT
10
0.413259
20
0.242096
30
0.0
11
0.412984
21
0.244450
31
0.0
0
LINE
8
FRONT
10
0.412984
20
0.244450
30
0.0
11
0.412593
21
0.246787
31
0.0
0
LINE
8
FRONT
10
0.412593
20
0.246787
30
0.0
11
0.412087
21
0.249103
31
0.0
0
LINE
8
FRONT
10
0.412087
20
0.249103
30
0.0
11
0.411468
21
0.251390
31
0.0
0
LINE
8
FRONT
10
0.411468
20
0.251390
30
0.0
11
0.410736
21
0.253645
31
0.0
0
LINE
8
FRONT
10
0.410736
20
0.253645
30
0.0
11
0.409895
21
0.255860
31
0.0
0
LINE
8
FRONT
10
0.409895
20
0.255860
30
0.0
11
0.408945
21
0.258032
31
0.0
0
LINE
8
FRONT
10
0.408945
20
0.258032
30
0.0
11
0.407890
21
0.260153
31
0.0
0
LINE
8
FRONT
10
0.407890
20
0.260153
30
0.0
11
0.406731
21
0.262221
31
0.0
0
LINE
8
FRONT
10
0.406731
20
0.262221
30
0.0
11
0.405472
21
0.264229
31
0.0
0
LINE
8
FRONT
10
0.405472
20
0.264229
30
0.0
11
0.404115
21
0.266172
31
0.0
0
LINE
8
FRONT
10
0.404115
20
0.266172
30
0.0
11
0.402665
21
0.268046
31
0.0
0
LINE
8
FRONT
10
0.402665
20
0.268046
30
0.0
11
0.401123
21
0.269846
31
0.0
0
LINE
8
FRONT
10
0.401123
20
0.269846
30
0.0
11
0.399495
21
0.271568
31
0.0
0
LINE
8
FRONT
10
0.399495
20
0.271568
30
0.0
11
0.397784
21
0.273208
31
0.0
0
LINE
8
FRONT
10
0.397784
20
0.273208
30
0.0
11
0.395995
21
0.274761
31
0.0
0
LINE
8
FRONT
10
0.395995
20
0.274761
30
0.0
11
0.394130
21
0.276225
31
0.0
0
LINE
8
FRONT
10
0.394130
20
0.276225
30
0.0
11
0.392196
21
0.277595
31
0.0
0
LINE
8
FRONT
10
0.392196
20
0.277595
30
0.0
11
0.390197
21
0.278867
31
0.0
0
LINE
8
FRONT
10
0.390197
20
0.278867
30
0.0
11
0.388138
21
0.280040
31
0.0
0
LINE
8
FRONT
10
0.388138
20
0.280040
30
0.0
11
0.386023
21
0.281110
31
0.0
0
LINE
8
FRONT
10
0.386023
20
0.281110
30
0.0
11
0.383858
21
0.282074
31
0.0
0
LINE
8
FRONT
10
0.383858
20
0.282074
30
0.0
11
0.381648
21
0.282931
31
0.0
0
LINE
8
FRONT
10
0.381648
20
0.282931
30
0.0
11
0.379399
21
0.283677
31
0.0
0
LINE
8
FRONT
10
0.379399
20
0.283677
30
0.0
11
0.377116
21
0.284312
31
0.0
0
LINE
8
FRONT
10
0.377116
20
0.284312
30
0.0
11
0.374804
21
0.284833
31
0.0
0
LINE
8
FRONT
10
0.374804
20
0.284833
30
0.0
11
0.372469
21
0.285240
31
0.0
0
LINE
8
FRONT
10
0.372469
20
0.285240
30
0.0
11
0.370117
21
0.285532
31
0.0
0
LINE
8
FRONT
10
0.370117
20
0.285532
30
0.0
11
0.367754
21
0.285707
31
0.0
0
LINE
8
FRONT
10
0.367754
20
0.285707
30
0.0
11
0.365385
21
0.285765
31
0.0
0
LINE
8
FRONT
10
0.346154
20
0.237688
30
0.0
11
0.346249
21
0.235774
31
0.0
0
LINE
8
FRONT
10
0.346249
20
0.235774
30
0.0
11
0.346535
21
0.233878
31
0.0
0
LINE
8
FRONT
10
0.346535
20
0.233878
30
0.0
11
0.347008
21
0.232020
31
0.0
0
LINE
8
FRONT
10
0.347008
20
0.232020
30
0.0
11
0.347664
21
0.230218
31
0.0
0
LINE
8
FRONT
10
0.347664
20
0.230218
30
0.0
11
0.348496
21
0.228491
31
0.0
0
LINE
8
FRONT
10
0.348496
20
0.228491
30
0.0
11
0.349495
21
0.226855
31
0.0
0
LINE
8
FRONT
10
0.349495
20
0.226855
30
0.0
11
0.350653
21
0.225327
31
0.0
0
LINE
8
FRONT
10
0.350653
20
0.225327
30
0.0
11
0.351957
21
0.223922
31
0.0
0
LINE
8
FRONT
10
0.351957
20
0.223922
30
0.0
11
0.353394
21
0.222653
31
0.0
0
LINE
8
FRONT
10
0.353394
20
0.222653
30
0.0
11
0.354951
21
0.221534
31
0.0
0
LINE
8
FRONT
10
0.354951
20
0.221534
30
0.0
11
0.356611
21
0.220575
31
0.0
0
LINE
8
FRONT
10
0.356611
20
0.220575
30
0.0
11
0.358359
21
0.219787
31
0.0
0
LINE
8
FRONT
10
0.358359
20
0.219787
30
0.0
11
0.360176
21
0.219176
31
0.0
0
LINE
8
FRONT
10
0.360176
20
0.219176
30
0.0
11
0.362045
21
0.218750
31
0.0
0
LINE
8
FRONT
10
0.362045
20
0.218750
30
0.0
11
0.363947
21
0.218511
31
0.0
0
LINE
8
FRONT
10
0.363947
20
0.218511
30
0.0
11
0.365864
21
0.218463
31
0.0
0
LINE
8
FRONT
10
0.365864
20
0.218463
30
0.0
11
0.367776
21
0.218607
31
0.0
0
LINE
8
FRONT
10
0.367776
20
0.218607
30
0.0
11
0.369664
21
0.218940
31
0.0
0
LINE
8
FRONT
10
0.369664
20
0.218940
30
0.0
11
0.371509
21
0.219459
31
0.0
0
LINE
8
FRONT
10
0.371509
20
0.219459
30
0.0
11
0.373294
21
0.220159
31
0.0
0
LINE
8
FRONT
10
0.373294
20
0.220159
30
0.0
11
0.375000
21
0.221034
31
0.0
0
LINE
8
FRONT
10
0.375000
20
0.221034
30
0.0
11
0.376610
21
0.222074
31
0.0
0
LINE
8
FRONT
10
0.376610
20
0.222074
30
0.0
11
0.378109
21
0.223269
31
0.0
0
LINE
8
FRONT
10
0.378109
20
0.223269
30
0.0
11
0.379482
21
0.224608
31
0.0
0
LINE
8
FRONT
10
0.379482
20
0.224608
30
0.0
11
0.380714
21
0.226077
31
0.0
0
LINE
8
FRONT
10
0.380714
20
0.226077
30
0.0
11
0.381794
21
0.227661
31
0.0
0
LINE
8
FRONT
10
0.381794
20
0.227661
30
0.0
11
0.382711
21
0.229344
31
0.0
0
LINE
8
FRONT
10
0.382711
20
0.229344
30
0.0
11
0.383456
21
0.231111
31
0.0
0
LINE
8
FRONT
10
0.383456
20
0.231111
30
0.0
11
0.384021
21
0.232943
31
0.0
0
LINE
8
FRONT
10
0.384021
20
0.232943
30
0.0
11
0.384401
21
0.234822
31
0.0
0
LINE
8
FRONT
10
0.384401
20
0.234822
30
0.0
11
0.384591
21
0.236730
31
0.0
0
LINE
8
FRONT
10
0.384591
20
0.236730
30
0.0
11
0.384591
21
0.238647
31
0.0
0
LINE
8
FRONT
10
0.384591
20
0.238647
30
0.0
11
0.384401
21
0.240554
31
0.0
0
LINE
8
FRONT
10
0.384401
20
0.240554
30
0.0
11
0.384021
21
0.242434
31
0.0
0
LINE
8
FRONT
10
0.384021
20
0.242434
30
0.0
11
0.383456
21
0.244266
31
0.0
0
LINE
8
FRONT
10
0.383456
20
0.244266
30
0.0
11
0.382711
21
0.246032
31
0.0
0
LINE
8
FRONT
10
0.382711
20
0.246032
30
0.0
11
0.381794
21
0.247716
31
0.0
0
LINE
8
FRONT
10
0.381794
20
0.247716
30
0.0
11
0.380714
21
0.249300
31
0.0
0
LINE
8
FRONT
10
0.380714
20
0.249300
30
0.0
11
0.379482
21
0.250769
31
0.0
0
LINE
8
FRONT
10
0.379482
20
0.250769
30
0.0
11
0.378109
21
0.252107
31
0.0
0
LINE
8
FRONT
10
0.378109
20
0.252107
30
0.0
11
0.376610
21
0.253302
31
0.0
0
LINE
8
FRONT
10
0.376610
20
0.253302
30
0.0
11
0.375000
21
0.254343
31
0.0
0
LINE
8
FRONT
10
0.375000
20
0.254343
30
0.0
11
0.373294
21
0.255217
31
0.0
0
LINE
8
FRONT
10
0.373294
20
0.255217
30
0.0
11
0.371509
21
0.255918
31
0.0
0
LINE
8
FRONT
10
0.371509
20
0.255918
30
0.0
11
0.369664
21
0.256437
31
0.0
0
LINE
8
FRONT
10
0.369664
20
0.256437
30
0.0
11
0.367776
21
0.256770
31
0.0
0
LINE
8
FRONT
10
0.367776
20
0.256770
30
0.0
11
0.365864
21
0.256913
31
0.0
0
LINE
8
FRONT
10
0.365864
20
0.256913
30
0.0
11
0.363947
21
0.256865
31
0.0
0
LINE
8
FRONT
10
0.363947
20
0.256865
30
0.0
11
0.362045
21
0.256627
31
0.0
0
LINE
8
FRONT
10
0.362045
20
0.256627
30
0.0
11
0.360176
21
0.256200
31
0.0
0
LINE
8
FRONT
10
0.360176
20
0.256200
30
0.0
11
0.358359
21
0.255590
31
0.0
0
LINE
8
FRONT
10
0.358359
20
0.255590
30
0.0
11
0.356611
21
0.254801
31
0.0
0
LINE
8
FRONT
10
0.356611
20
0.254801
30
0.0
11
0.354951
21
0.253843
31
0.0
0
LINE
8
FRONT
10
0.354951
20
0.253843
30
0.0
11
0.353394
21
0.252724
31
0.0
0
LINE
8
FRONT
10
0.353394
20
0.252724
30
0.0
11
0.351957
21
0.251455
31
0.0
0
LINE
8
FRONT
10
0.351957
20
0.251455
30
0.0
11
0.350653
21
0.250050
31
0.0
0
LINE
8
FRONT
10
0.350653
20
0.250050
30
0.0
11
0.349495
21
0.248521
31
0.0
0
LINE
8
FRONT
10
0.349495
20
0.248521
30
0.0
11
0.348496
21
0.246885
31
0.0
0
LINE
8
FRONT
10
0.348496
20
0.246885
30
0.0
11
0.347664
21
0.245158
31
0.0
0
LINE
8
FRONT
10
0.347664
20
0.245158
30
0.0
11
0.347008
21
0.243357
31
0.0
0
LINE
8
FRONT
10
0.347008
20
0.243357
30
0.0
11
0.346535
21
0.241499
31
0.0
0
LINE
8
FRONT
10
0.346535
20
0.241499
30
0.0
11
0.346249
21
0.239603
31
0.0
0
LINE
8
FRONT
10
0.346249
20
0.239603
30
0.0
11
0.346154
21
0.237688
31
0.0
0
LINE
8
FRONT
10
0.191315
20
0.636083
30
0.0
11
0.147558
21
0.938264
31
0.0
0
LINE
8
FRONT
10
0.033098
20
0.936146
30
0.0
11
0.000548
21
0.632554
31
0.0
0
LINE
8
FRONT
10
0.052710
20
0.843534
30
0.0
11
0.052806
21
0.841620
31
0.0
0
LINE
8
FRONT
10
0.052806
20
0.841620
30
0.0
11
0.053091
21
0.839724
31
0.0
0
LINE
8
FRONT
10
0.053091
20
0.839724
30
0.0
11
0.053564
21
0.837866
31
0.0
0
LINE
8
FRONT
10
0.053564
20
0.837866
30
0.0
11
0.054220
21
0.836065
31
0.0
0
LINE
8
FRONT
10
0.054220
20
0.836065
30
0.0
11
0.055052
21
0.834337
31
0.0
0
LINE
8
FRONT
10
0.055052
20
0.834337
30
0.0
11
0.056052
21
0.832701
31
0.0
0
LINE
8
FRONT
10
0.056052
20
0.832701
30
0.0
11
0.057209
21
0.831173
31
0.0
0
LINE
8
FRONT
10
0.057209
20
0.831173
30
0.0
11
0.058513
21
0.829768
31
0.0
0
LINE
8
FRONT
10
0.058513
20
0.829768
30
0.0
11
0.059951
21
0.828499
31
0.0
0
LINE
8
FRONT
10
0.059951
20
0.828499
30
0.0
11
0.061507
21
0.827380
31
0.0
0
LINE
8
FRONT
10
0.061507
20
0.827380
30
0.0
11
0.063168
21
0.826422
31
0.0
0
LINE
8
FRONT
10
0.063168
20
0.826422
30
0.0
11
0.064915
21
0.825633
31
0.0
0
LINE
8
FRONT
10
0.064915
20
0.825633
30
0.0
11
0.066732
21
0.825022
31
0.0
0
LINE
8
FRONT
10
0.066732
20
0.825022
30
0.0
11
0.068601
21
0.824596
31
0.0
0
LINE
8
FRONT
10
0.068601
20
0.824596
30
0.0
11
0.070504
21
0.824357
31
0.0
0
LINE
8
FRONT
10
0.070504
20
0.824357
30
0.0
11
0.072420
21
0.824310
31
0.0
0
LINE
8
FRONT
10
0.072420
20
0.824310
30
0.0
11
0.074332
21
0.824453
31
0.0
0
LINE
8
FRONT
10
0.074332
20
0.824453
30
0.0
11
0.076220
21
0.824786
31
0.0
0
LINE
8
FRONT
10
0.076220
20
0.824786
30
0.0
11
0.078066
21
0.825305
31
0.0
0
LINE
8
FRONT
10
0.078066
20
0.825305
30
0.0
11
0.079850
21
0.826005
31
0.0
0
LINE
8
FRONT
10
0.079850
20
0.826005
30
0.0
11
0.081556
21
0.826880
31
0.0
0
LINE
8
FRONT
10
0.081556
20
0.826880
30
0.0
11
0.083167
21
0.827920
31
0.0
0
LINE
8
FRONT
10
0.083167
20
0.827920
30
0.0
11
0.084666
21
0.829116
31
0.0
0
LINE
8
FRONT
10
0.084666
20
0.829116
30
0.0
11
0.086038
21
0.830454
31
0.0
0
LINE
8
FRONT
10
0.086038
20
0.830454
30
0.0
11
0.087270
21
0.831923
31
0.0
0
LINE
8
FRONT
10
0.087270
20
0.831923
30
0.0
11
0.088350
21
0.833507
31
0.0
0
LINE
8
FRONT
10
0.088350
20
0.833507
30
0.0
11
0.089267
21
0.835191
31
0.0
0
LINE
8
FRONT
10
0.089267
20
0.835191
30
0.0
11
0.090012
21
0.836957
31
0.0
0
LINE
8
FRONT
10
0.090012
20
0.836957
30
0.0
11
0.090577
21
0.838789
31
0.0
0
LINE
8
FRONT
10
0.090577
20
0.838789
30
0.0
11
0.090957
21
0.840668
31
0.0
0
LINE
8
FRONT
10
0.090957
20
0.840668
30
0.0
11
0.091148
21
0.842576
31
0.0
0
LINE
8
FRONT
10
0.091148
20
0.842576
30
0.0
11
0.091148
21
0.844493
31
0.0
0
LINE
8
FRONT
10
0.091148
20
0.844493
30
0.0
11
0.090957
21
0.846401
31
0.0
0
LINE
8
FRONT
10
0.090957
20
0.846401
30
0.0
11
0.090577
21
0.848280
31
0.0
0
LINE
8
FRONT
10
0.090577
20
0.848280
30
0.0
11
0.090012
21
0.850112
31
0.0
0
LINE
8
FRONT
10
0.090012
20
0.850112
30
0.0
11
0.089267
21
0.851878
31
0.0
0
LINE
8
FRONT
10
0.089267
20
0.851878
30
0.0
11
0.088350
21
0.853562
31
0.0
0
LINE
8
FRONT
10
0.088350
20
0.853562
30
0.0
11
0.087270
21
0.855146
31
0.0
0
LINE
8
FRONT
10
0.087270
20
0.855146
30
0.0
11
0.086038
21
0.856615
31
0.0
0
LINE
8
FRONT
10
0.086038
20
0.856615
30
0.0
11
0.084666
21
0.857953
31
0.0
0
LINE
8
FRONT
10
0.084666
20
0.857953
30
0.0
11
0.083167
21
0.859149
31
0.0
0
LINE
8
FRONT
10
0.083167
20
0.859149
30
0.0
11
0.081556
21
0.860189
31
0.0
0
LINE
8
FRONT
10
0.081556
20
0.860189
30
0.0
11
0.079850
21
0.861063
31
0.0
0
LINE
8
FRONT
10
0.079850
20
0.861063
30
0.0
11
0.078066
21
0.861764
31
0.0
0
LINE
8
FRONT
10
0.078066
20
0.861764
30
0.0
11
0.076220
21
0.862283
31
0.0
0
LINE
8
FRONT
10
0.076220
20
0.862283
30
0.0
11
0.074332
21
0.862616
31
0.0
0
LINE
8
FRONT
10
0.074332
20
0.862616
30
0.0
11
0.072420
21
0.862759
31
0.0
0
LINE
8
FRONT
10
0.072420
20
0.862759
30
0.0
11
0.070504
21
0.862711
31
0.0
0
LINE
8
FRONT
10
0.070504
20
0.862711
30
0.0
11
0.068601
21
0.862473
31
0.0
0
LINE
8
FRONT
10
0.068601
20
0.862473
30
0.0
11
0.066732
21
0.862046
31
0.0
0
LINE
8
FRONT
10
0.066732
20
0.862046
30
0.0
11
0.064915
21
0.861436
31
0.0
0
LINE
8
FRONT
10
0.064915
20
0.861436
30
0.0
11
0.063168
21
0.860647
31
0.0
0
LINE
8
FRONT
10
0.063168
20
0.860647
30
0.0
11
0.061507
21
0.859689
31
0.0
0
LINE
8
FRONT
10
0.061507
20
0.859689
30
0.0
11
0.059951
21
0.858570
31
0.0
0
LINE
8
FRONT
10
0.059951
20
0.858570
30
0.0
11
0.058513
21
0.857301
31
0.0
0
LINE
8
FRONT
10
0.058513
20
0.857301
30
0.0
11
0.057209
21
0.855896
31
0.0
0
LINE
8
FRONT
10
0.057209
20
0.855896
30
0.0
11
0.056052
21
0.854368
31
0.0
0
LINE
8
FRONT
10
0.056052
20
0.854368
30
0.0
11
0.055052
21
0.852732
31
0.0
0
LINE
8
FRONT
10
0.055052
20
0.852732
30
0.0
11
0.054220
21
0.851004
31
0.0
0
LINE
8
FRONT
10
0.054220
20
0.851004
30
0.0
11
0.053564
21
0.849203
31
0.0
0
LINE
8
FRONT
10
0.053564
20
0.849203
30
0.0
11
0.053091
21
0.847345
31
0.0
0
LINE
8
FRONT
10
0.053091
20
0.847345
30
0.0
11
0.052806
21
0.845449
31
0.0
0
LINE
8
FRONT
10
0.052806
20
0.845449
30
0.0
11
0.052710
21
0.843534
31
0.0
0
LINE
8
FRONT
10
0.147558
20
0.938264
30
0.0
11
0.147119
21
0.940874
31
0.0
0
LINE
8
FRONT
10
0.147119
20
0.940874
30
0.0
11
0.146560
21
0.943462
31
0.0
0
LINE
8
FRONT
10
0.146560
20
0.943462
30
0.0
11
0.145883
21
0.946021
31
0.0
0
LINE
8
FRONT
10
0.145883
20
0.946021
30
0.0
11
0.145090
21
0.948547
31
0.0
0
LINE
8
FRONT
10
0.145090
20
0.948547
30
0.0
11
0.144181
21
0.951033
31
0.0
0
LINE
8
FRONT
10
0.144181
20
0.951033
30
0.0
11
0.143160
21
0.953475
31
0.0
0
LINE
8
FRONT
10
0.143160
20
0.953475
30
0.0
11
0.142027
21
0.955868
31
0.0
0
LINE
8
FRONT
10
0.142027
20
0.955868
30
0.0
11
0.140786
21
0.958206
31
0.0
0
LINE
8
FRONT
10
0.140786
20
0.958206
30
0.0
11
0.139439
21
0.960485
31
0.0
0
LINE
8
FRONT
10
0.139439
20
0.960485
30
0.0
11
0.137989
21
0.962699
31
0.0
0
LINE
8
FRONT
10
0.137989
20
0.962699
30
0.0
11
0.136439
21
0.964845
31
0.0
0
LINE
8
FRONT
10
0.136439
20
0.964845
30
0.0
11
0.134792
21
0.966918
31
0.0
0
LINE
8
FRONT
10
0.134792
20
0.966918
30
0.0
11
0.133051
21
0.968912
31
0.0
0
LINE
8
FRONT
10
0.133051
20
0.968912
30
0.0
11
0.131221
21
0.970825
31
0.0
0
LINE
8
FRONT
10
0.131221
20
0.970825
30
0.0
11
0.129306
21
0.972652
31
0.0
0
LINE
8
FRONT
10
0.129306
20
0.972652
30
0.0
11
0.127308
21
0.974389
31
0.0
0
LINE
8
FRONT
10
0.127308
20
0.974389
30
0.0
11
0.125233
21
0.976032
31
0.0
0
LINE
8
FRONT
10
0.125233
20
0.976032
30
0.0
11
0.123084
21
0.977579
31
0.0
0
LINE
8
FRONT
10
0.123084
20
0.977579
30
0.0
11
0.120867
21
0.979025
31
0.0
0
LINE
8
FRONT
10
0.120867
20
0.979025
30
0.0
11
0.118586
21
0.980369
31
0.0
0
LINE
8
FRONT
10
0.118586
20
0.980369
30
0.0
11
0.116246
21
0.981606
31
0.0
0
LINE
8
FRONT
10
0.116246
20
0.981606
30
0.0
11
0.113851
21
0.982734
31
0.0
0
LINE
8
FRONT
10
0.113851
20
0.982734
30
0.0
11
0.111407
21
0.983752
31
0.0
0
LINE
8
FRONT
10
0.111407
20
0.983752
30
0.0
11
0.108919
21
0.984656
31
0.0
0
LINE
8
FRONT
10
0.108919
20
0.984656
30
0.0
11
0.106393
21
0.985445
31
0.0
0
LINE
8
FRONT
10
0.106393
20
0.985445
30
0.0
11
0.103832
21
0.986117
31
0.0
0
LINE
8
FRONT
10
0.103832
20
0.986117
30
0.0
11
0.101244
21
0.986672
31
0.0
0
LINE
8
FRONT
10
0.101244
20
0.986672
30
0.0
11
0.098633
21
0.987107
31
0.0
0
LINE
8
FRONT
10
0.098633
20
0.987107
30
0.0
11
0.096004
21
0.987421
31
0.0
0
LINE
8
FRONT
10
0.096004
20
0.987421
30
0.0
11
0.093364
21
0.987615
31
0.0
0
LINE
8
FRONT
10
0.093364
20
0.987615
30
0.0
11
0.090718
21
0.987688
31
0.0
0
LINE
8
FRONT
10
0.090718
20
0.987688
30
0.0
11
0.088071
21
0.987639
31
0.0
0
LINE
8
FRONT
10
0.088071
20
0.987639
30
0.0
11
0.085429
21
0.987468
31
0.0
0
LINE
8
FRONT
10
0.085429
20
0.987468
30
0.0
11
0.082798
21
0.987177
31
0.0
0
LINE
8
FRONT
10
0.082798
20
0.987177
30
0.0
11
0.080183
21
0.986765
31
0.0
0
LINE
8
FRONT
10
0.080183
20
0.986765
30
0.0
11
0.077590
21
0.986234
31
0.0
0
LINE
8
FRONT
10
0.077590
20
0.986234
30
0.0
11
0.075024
21
0.985584
31
0.0
0
LINE
8
FRONT
10
0.075024
20
0.985584
30
0.0
11
0.072490
21
0.984818
31
0.0
0
LINE
8
FRONT
10
0.072490
20
0.984818
30
0.0
11
0.069994
21
0.983936
31
0.0
0
LINE
8
FRONT
10
0.069994
20
0.983936
30
0.0
11
0.067541
21
0.982940
31
0.0
0
LINE
8
FRONT
10
0.067541
20
0.982940
30
0.0
11
0.065137
21
0.981833
31
0.0
0
LINE
8
FRONT
10
0.065137
20
0.981833
30
0.0
11
0.062786
21
0.980617
31
0.0
0
LINE
8
FRONT
10
0.062786
20
0.980617
30
0.0
11
0.060493
21
0.979294
31
0.0
0
LINE
8
FRONT
10
0.060493
20
0.979294
30
0.0
11
0.058263
21
0.977867
31
0.0
0
LINE
8
FRONT
10
0.058263
20
0.977867
30
0.0
11
0.056101
21
0.976340
31
0.0
0
LINE
8
FRONT
10
0.056101
20
0.976340
30
0.0
11
0.054011
21
0.974715
31
0.0
0
LINE
8
FRONT
10
0.054011
20
0.974715
30
0.0
11
0.051998
21
0.972996
31
0.0
0
LINE
8
FRONT
10
0.051998
20
0.972996
30
0.0
11
0.050066
21
0.971186
31
0.0
0
LINE
8
FRONT
10
0.050066
20
0.971186
30
0.0
11
0.048219
21
0.969290
31
0.0
0
LINE
8
FRONT
10
0.048219
20
0.969290
30
0.0
11
0.046461
21
0.967310
31
0.0
0
LINE
8
FRONT
10
0.046461
20
0.967310
30
0.0
11
0.044796
21
0.965253
31
0.0
0
LINE
8
FRONT
10
0.044796
20
0.965253
30
0.0
11
0.043226
21
0.963121
31
0.0
0
LINE
8
FRONT
10
0.043226
20
0.963121
30
0.0
11
0.041757
21
0.960919
31
0.0
0
LINE
8
FRONT
10
0.041757
20
0.960919
30
0.0
11
0.040389
21
0.958652
31
0.0
0
LINE
8
FRONT
10
0.040389
20
0.958652
30
0.0
11
0.039127
21
0.956325
31
0.0
0
LINE
8
FRONT
10
0.039127
20
0.956325
30
0.0
11
0.037974
21
0.953943
31
0.0
0
LINE
8
FRONT
10
0.037974
20
0.953943
30
0.0
11
0.036930
21
0.951510
31
0.0
0
LINE
8
FRONT
10
0.036930
20
0.951510
30
0.0
11
0.036000
21
0.949032
31
0.0
0
LINE
8
FRONT
10
0.036000
20
0.949032
30
0.0
11
0.035184
21
0.946513
31
0.0
0
LINE
8
FRONT
10
0.035184
20
0.946513
30
0.0
11
0.034485
21
0.943960
31
0.0
0
LINE
8
FRONT
10
0.034485
20
0.943960
30
0.0
11
0.033903
21
0.941378
31
0.0
0
LINE
8
FRONT
10
0.033903
20
0.941378
30
0.0
11
0.033440
21
0.938771
31
0.0
0
LINE
8
FRONT
10
0.033440
20
0.938771
30
0.0
11
0.033098
21
0.936146
31
0.0
0
LINE
8
FRONT
10
0.071231
20
0.929996
30
0.0
11
0.071326
21
0.928081
31
0.0
0
LINE
8
FRONT
10
0.071326
20
0.928081
30
0.0
11
0.071612
21
0.926185
31
0.0
0
LINE
8
FRONT
10
0.071612
20
0.926185
30
0.0
11
0.072085
21
0.924328
31
0.0
0
LINE
8
FRONT
10
0.072085
20
0.924328
30
0.0
11
0.072741
21
0.922526
31
0.0
0
LINE
8
FRONT
10
0.072741
20
0.922526
30
0.0
11
0.073572
21
0.920799
31
0.0
0
LINE
8
FRONT
10
0.073572
20
0.920799
30
0.0
11
0.074572
21
0.919163
31
0.0
0
LINE
8
FRONT
10
0.074572
20
0.919163
30
0.0
11
0.075730
21
0.917635
31
0.0
0
LINE
8
FRONT
10
0.075730
20
0.917635
30
0.0
11
0.077034
21
0.916229
31
0.0
0
LINE
8
FRONT
10
0.077034
20
0.916229
30
0.0
11
0.078471
21
0.914961
31
0.0
0
LINE
8
FRONT
10
0.078471
20
0.914961
30
0.0
11
0.080028
21
0.913842
31
0.0
0
LINE
8
FRONT
10
0.080028
20
0.913842
30
0.0
11
0.081688
21
0.912883
31
0.0
0
LINE
8
FRONT
10
0.081688
20
0.912883
30
0.0
11
0.083436
21
0.912095
31
0.0
0
LINE
8
FRONT
10
0.083436
20
0.912095
30
0.0
11
0.085253
21
0.911484
31
0.0
0
LINE
8
FRONT
10
0.085253
20
0.911484
30
0.0
11
0.087122
21
0.911057
31
0.0
0
LINE
8
FRONT
10
0.087122
20
0.911057
30
0.0
11
0.089024
21
0.910819
31
0.0
0
LINE
8
FRONT
10
0.089024
20
0.910819
30
0.0
11
0.090941
21
0.910771
31
0.0
0
LINE
8
FRONT
10
0.090941
20
0.910771
30
0.0
11
0.092853
21
0.910914
31
0.0
0
LINE
8
FRONT
10
0.092853
20
0.910914
30
0.0
11
0.094741
21
0.911247
31
0.0
0
LINE
8
FRONT
10
0.094741
20
0.911247
30
0.0
11
0.096586
21
0.911767
31
0.0
0
LINE
8
FRONT
10
0.096586
20
0.911767
30
0.0
11
0.098371
21
0.912467
31
0.0
0
LINE
8
FRONT
10
0.098371
20
0.912467
30
0.0
11
0.100077
21
0.913342
31
0.0
0
LINE
8
FRONT
10
0.100077
20
0.913342
30
0.0
11
0.101687
21
0.914382
31
0.0
0
LINE
8
FRONT
10
0.101687
20
0.914382
30
0.0
11
0.103186
21
0.915577
31
0.0
0
LINE
8
FRONT
10
0.103186
20
0.915577
30
0.0
11
0.104559
21
0.916916
31
0.0
0
LINE
8
FRONT
10
0.104559
20
0.916916
30
0.0
11
0.105791
21
0.918384
31
0.0
0
LINE
8
FRONT
10
0.105791
20
0.918384
30
0.0
11
0.106871
21
0.919968
31
0.0
0
LINE
8
FRONT
10
0.106871
20
0.919968
30
0.0
11
0.107788
21
0.921652
31
0.0
0
LINE
8
FRONT
10
0.107788
20
0.921652
30
0.0
11
0.108532
21
0.923419
31
0.0
0
LINE
8
FRONT
10
0.108532
20
0.923419
30
0.0
11
0.109097
21
0.925251
31
0.0
0
LINE
8
FRONT
10
0.109097
20
0.925251
30
0.0
11
0.109477
21
0.927130
31
0.0
0
LINE
8
FRONT
10
0.109477
20
0.927130
30
0.0
11
0.109668
21
0.929037
31
0.0
0
LINE
8
FRONT
10
0.109668
20
0.929037
30
0.0
11
0.109668
21
0.930955
31
0.0
0
LINE
8
FRONT
10
0.109668
20
0.930955
30
0.0
11
0.109477
21
0.932862
31
0.0
0
LINE
8
FRONT
10
0.109477
20
0.932862
30
0.0
11
0.109097
21
0.934741
31
0.0
0
LINE
8
FRONT
10
0.109097
20
0.934741
30
0.0
11
0.108532
21
0.936573
31
0.0
0
LINE
8
FRONT
10
0.108532
20
0.936573
30
0.0
11
0.107788
21
0.938340
31
0.0
0
LINE
8
FRONT
10
0.107788
20
0.938340
30
0.0
11
0.106871
21
0.940024
31
0.0
0
LINE
8
FRONT
10
0.106871
20
0.940024
30
0.0
11
0.105791
21
0.941608
31
0.0
0
LINE
8
FRONT
10
0.105791
20
0.941608
30
0.0
11
0.104559
21
0.943076
31
0.0
0
LINE
8
FRONT
10
0.104559
20
0.943076
30
0.0
11
0.103186
21
0.944415
31
0.0
0
LINE
8
FRONT
10
0.103186
20
0.944415
30
0.0
11
0.101687
21
0.945610
31
0.0
0
LINE
8
FRONT
10
0.101687
20
0.945610
30
0.0
11
0.100077
21
0.946650
31
0.0
0
LINE
8
FRONT
10
0.100077
20
0.946650
30
0.0
11
0.098371
21
0.947525
31
0.0
0
LINE
8
FRONT
10
0.098371
20
0.947525
30
0.0
11
0.096586
21
0.948225
31
0.0
0
LINE
8
FRONT
10
0.096586
20
0.948225
30
0.0
11
0.094741
21
0.948745
31
0.0
0
LINE
8
FRONT
10
0.094741
20
0.948745
30
0.0
11
0.092853
21
0.949077
31
0.0
0
LINE
8
FRONT
10
0.092853
20
0.949077
30
0.0
11
0.090941
21
0.949221
31
0.0
0
LINE
8
FRONT
10
0.090941
20
0.949221
30
0.0
11
0.089024
21
0.949173
31
0.0
0
LINE
8
FRONT
10
0.089024
20
0.949173
30
0.0
11
0.087122
21
0.948935
31
0.0
0
LINE
8
FRONT
10
0.087122
20
0.948935
30
0.0
11
0.085253
21
0.948508
31
0.0
0
LINE
8
FRONT
10
0.085253
20
0.948508
30
0.0
11
0.083436
21
0.947897
31
0.0
0
LINE
8
FRONT
10
0.083436
20
0.947897
30
0.0
11
0.081688
21
0.947109
31
0.0
0
LINE
8
FRONT
10
0.081688
20
0.947109
30
0.0
11
0.080028
21
0.946150
31
0.0
0
LINE
8
FRONT
10
0.080028
20
0.946150
30
0.0
11
0.078471
21
0.945031
31
0.0
0
LINE
8
FRONT
10
0.078471
20
0.945031
30
0.0
11
0.077034
21
0.943763
31
0.0
0
LINE
8
FRONT
10
0.077034
20
0.943763
30
0.0
11
0.075730
21
0.942357
31
0.0
0
LINE
8
FRONT
10
0.075730
20
0.942357
30
0.0
11
0.074572
21
0.940829
31
0.0
0
LINE
8
FRONT
10
0.074572
20
0.940829
30
0.0
11
0.073572
21
0.939193
31
0.0
0
LINE
8
FRONT
10
0.073572
20
0.939193
30
0.0
11
0.072741
21
0.937466
31
0.0
0
LINE
8
FRONT
10
0.072741
20
0.937466
30
0.0
11
0.072085
21
0.935664
31
0.0
0
LINE
8
FRONT
10
0.072085
20
0.935664
30
0.0
11
0.071612
21
0.933806
31
0.0
0
LINE
8
FRONT
10
0.071612
20
0.933806
30
0.0
11
0.071326
21
0.931911
31
0.0
0
LINE
8
FRONT
10
0.071326
20
0.931911
30
0.0
11
0.071231
21
0.929996
31
0.0
0
LINE
8
LEFT
10
0.593460
20
0.612692
30
0.0
11
0.593460
21
0.231923
31
0.0
0
LINE
8
LEFT
10
0.574999
20
0.612692
30
0.0
11
0.574999
21
0.231923
31
0.0
0
LINE
8
LEFT
10
0.593460
20
0.622308
30
0.0
11
0.593460
21
0.612692
31
0.0
0
LINE
8
LEFT
10
0.574999
20
0.622308
30
0.0
11
0.574999
21
0.612692
31
0.0
0
LINE
8
LEFT
10
0.593460
20
0.231923
30
0.0
11
0.593460
21
0.180000
31
0.0
0
LINE
8
LEFT
10
0.574999
20
0.231923
30
0.0
11
0.574999
21
0.180000
31
0.0
0
LINE
8
LEFT
10
0.574999
20
0.632558
30
0.0
11
0.574999
21
0.622308
31
0.0
0
LINE
8
LEFT
10
0.593460
20
0.632558
30
0.0
11
0.593460
21
0.622308
31
0.0
0
LINE
8
LEFT
10
0.574999
20
0.936150
30
0.0
11
0.574999
21
0.632558
31
0.0
0
LINE
8
LEFT
10
0.593460
20
0.936150
30
0.0
11
0.593460
21
0.632558
31
0.0
0
LINE
8
LEFT
10
0.574999
20
0.987692
30
0.0
11
0.574999
21
0.936150
31
0.0
0
LINE
8
LEFT
10
0.593460
20
0.987692
30
0.0
11
0.593460
21
0.936150
31
0.0
0
LINE
8
LEFT
10
0.574999
20
0.612692
30
0.0
11
0.593460
21
0.612692
31
0.0
0
LINE
8
LEFT
10
0.574999
20
0.231923
30
0.0
11
0.593460
21
0.231923
31
0.0
0
LINE
8
LEFT
10
0.574999
20
0.632558
30
0.0
11
0.593460
21
0.632558
31
0.0
0
LINE
8
LEFT
10
0.574999
20
0.936150
30
0.0
11
0.593460
21
0.936150
31
0.0
0
LINE
8
LEFT
10
0.593460
20
0.180000
30
0.0
11
0.574999
21
0.180000
31
0.0
0
LINE
8
LEFT
10
0.593460
20
0.987692
30
0.0
11
0.574999
21
0.987692
31
0.0
0
LINE
8
LEFT_HID
6
HIDDEN
10
0.593460
20
0.180000
30
0.0
11
0.593460
21
0.180037
31
0.0
0
LINE
8
LEFT_HID
6
HIDDEN
10
0.574999
20
0.180000
30
0.0
11
0.574999
21
0.180037
31
0.0
0
LINE
8
LEFT_HID
6
HIDDEN
10
0.574999
20
0.237692
30
0.0
11
0.574999
21
0.231923
31
0.0
0
LINE
8
LEFT_HID
6
HIDDEN
10
0.574999
20
0.180037
30
0.0
11
0.574999
21
0.237692
31
0.0
0
LINE
8
LEFT_HID
6
HIDDEN
10
0.574999
20
0.180037
30
0.0
11
0.574999
21
0.189646
31
0.0
0
LINE
8
LEFT_HID
6
HIDDEN
10
0.574999
20
0.237692
30
0.0
11
0.574999
21
0.189646
31
0.0
0
LINE
8
LEFT_HID
6
HIDDEN
10
0.574999
20
0.285769
30
0.0
11
0.574999
21
0.237692
31
0.0
0
LINE
8
LEFT_HID
6
HIDDEN
10
0.574999
20
0.285769
30
0.0
11
0.574999
21
0.291303
31
0.0
0
LINE
8
LEFT_HID
6
HIDDEN
10
0.574999
20
0.291303
30
0.0
11
0.574999
21
0.344241
31
0.0
0
LINE
8
LEFT_HID
6
HIDDEN
10
0.574999
20
0.344241
30
0.0
11
0.574999
21
0.612692
31
0.0
0
LINE
8
LEFT_HID
6
HIDDEN
10
0.574999
20
0.612692
30
0.0
11
0.574999
21
0.609945
31
0.0
0
LINE
8
LEFT_HID
6
HIDDEN
10
0.574999
20
0.609945
30
0.0
11
0.574999
21
0.607198
31
0.0
0
LINE
8
LEFT_HID
6
HIDDEN
10
0.574999
20
0.607198
30
0.0
11
0.574999
21
0.604451
31
0.0
0
LINE
8
LEFT_HID
6
HIDDEN
10
0.574999
20
0.604451
30
0.0
11
0.574999
21
0.601703
31
0.0
0
LINE
8
LEFT_HID
6
HIDDEN
10
0.574999
20
0.601703
30
0.0
11
0.574999
21
0.598956
31
0.0
0
LINE
8
LEFT_HID
6
HIDDEN
10
0.574999
20
0.598956
30
0.0
11
0.574999
21
0.596209
31
0.0
0
LINE
8
LEFT_HID
6
HIDDEN
10
0.574999
20
0.596209
30
0.0
11
0.574999
21
0.593462
31
0.0
0
LINE
8
LEFT_HID
6
HIDDEN
10
0.574999
20
0.593462
30
0.0
11
0.574999
21
0.590714
31
0.0
0
LINE
8
LEFT_HID
6
HIDDEN
10
0.574999
20
0.590714
30
0.0
11
0.574999
21
0.587967
31
0.0
0
LINE
8
LEFT_HID
6
HIDDEN
10
0.574999
20
0.587967
30
0.0
11
0.574999
21
0.585220
31
0.0
0
LINE
8
LEFT_HID
6
HIDDEN
10
0.574999
20
0.585220
30
0.0
11
0.574999
21
0.582473
31
0.0
0
LINE
8
LEFT_HID
6
HIDDEN
10
0.574999
20
0.582473
30
0.0
11
0.574999
21
0.579725
31
0.0
0
LINE
8
LEFT_HID
6
HIDDEN
10
0.574999
20
0.579725
30
0.0
11
0.574999
21
0.576978
31
0.0
0
LINE
8
LEFT_HID
6
HIDDEN
10
0.574999
20
0.576978
30
0.0
11
0.574999
21
0.574231
31
0.0
0
LINE
8
LEFT_HID
6
HIDDEN
10
0.574999
20
0.574231
30
0.0
11
0.574999
21
0.571484
31
0.0
0
LINE
8
LEFT_HID
6
HIDDEN
10
0.574999
20
0.571484
30
0.0
11
0.574999
21
0.568736
31
0.0
0
LINE
8
LEFT_HID
6
HIDDEN
10
0.574999
20
0.568736
30
0.0
11
0.574999
21
0.565989
31
0.0
0
LINE
8
LEFT_HID
6
HIDDEN
10
0.574999
20
0.565989
30
0.0
11
0.574999
21
0.563242
31
0.0
0
LINE
8
LEFT_HID
6
HIDDEN
10
0.574999
20
0.563242
30
0.0
11
0.574999
21
0.560495
31
0.0
0
LINE
8
LEFT_HID
6
HIDDEN
10
0.574999
20
0.560495
30
0.0
11
0.574999
21
0.557747
31
0.0
0
LINE
8
LEFT_HID
6
HIDDEN
10
0.574999
20
0.557747
30
0.0
11
0.574999
21
0.555000
31
0.0
0
LINE
8
LEFT_HID
6
HIDDEN
10
0.574999
20
0.555000
30
0.0
11
0.574999
21
0.552253
31
0.0
0
LINE
8
LEFT_HID
6
HIDDEN
10
0.574999
20
0.552253
30
0.0
11
0.574999
21
0.549505
31
0.0
0
LINE
8
LEFT_HID
6
HIDDEN
10
0.574999
20
0.549505
30
0.0
11
0.574999
21
0.546758
31
0.0
0
LINE
8
LEFT_HID
6
HIDDEN
10
0.574999
20
0.546758
30
0.0
11
0.574999
21
0.544011
31
0.0
0
LINE
8
LEFT_HID
6
HIDDEN
10
0.574999
20
0.544011
30
0.0
11
0.574999
21
0.541264
31
0.0
0
LINE
8
LEFT_HID
6
HIDDEN
10
0.574999
20
0.541264
30
0.0
11
0.574999
21
0.538516
31
0.0
0
LINE
8
LEFT_HID
6
HIDDEN
10
0.574999
20
0.538516
30
0.0
11
0.574999
21
0.535769
31
0.0
0
LINE
8
LEFT_HID
6
HIDDEN
10
0.574999
20
0.535769
30
0.0
11
0.574999
21
0.533022
31
0.0
0
LINE
8
LEFT_HID
6
HIDDEN
10
0.574999
20
0.533022
30
0.0
11
0.574999
21
0.530275
31
0.0
0
LINE
8
LEFT_HID
6
HIDDEN
10
0.574999
20
0.530275
30
0.0
11
0.574999
21
0.527527
31
0.0
0
LINE
8
LEFT_HID
6
HIDDEN
10
0.574999
20
0.527527
30
0.0
11
0.574999
21
0.530275
31
0.0
0
LINE
8
LEFT_HID
6
HIDDEN
10
0.574999
20
0.530275
30
0.0
11
0.574999
21
0.533022
31
0.0
0
LINE
8
LEFT_HID
6
HIDDEN
10
0.574999
20
0.533022
30
0.0
11
0.574999
21
0.535769
31
0.0
0
LINE
8
LEFT_HID
6
HIDDEN
10
0.574999
20
0.535769
30
0.0
11
0.574999
21
0.538516
31
0.0
0
LINE
8
LEFT_HID
6
HIDDEN
10
0.574999
20
0.538516
30
0.0
11
0.574999
21
0.541264
31
0.0
0
LINE
8
LEFT_HID
6
HIDDEN
10
0.574999
20
0.541264
30
0.0
11
0.574999
21
0.544011
31
0.0
0
LINE
8
LEFT_HID
6
HIDDEN
10
0.574999
20
0.544011
30
0.0
11
0.574999
21
0.546758
31
0.0
0
LINE
8
LEFT_HID
6
HIDDEN
10
0.574999
20
0.546758
30
0.0
11
0.574999
21
0.549505
31
0.0
0
LINE
8
LEFT_HID
6
HIDDEN
10
0.574999
20
0.549505
30
0.0
11
0.574999
21
0.552253
31
0.0
0
LINE
8
LEFT_HID
6
HIDDEN
10
0.574999
20
0.552253
30
0.0
11
0.574999
21
0.555000
31
0.0
0
LINE
8
LEFT_HID
6
HIDDEN
10
0.574999
20
0.555000
30
0.0
11
0.574999
21
0.557747
31
0.0
0
LINE
8
LEFT_HID
6
HIDDEN
10
0.574999
20
0.557747
30
0.0
11
0.574999
21
0.560495
31
0.0
0
LINE
8
LEFT_HID
6
HIDDEN
10
0.574999
20
0.560495
30
0.0
11
0.574999
21
0.563242
31
0.0
0
LINE
8
LEFT_HID
6
HIDDEN
10
0.574999
20
0.563242
30
0.0
11
0.574999
21
0.565989
31
0.0
0
LINE
8
LEFT_HID
6
HIDDEN
10
0.574999
20
0.565989
30
0.0
11
0.574999
21
0.568736
31
0.0
0
LINE
8
LEFT_HID
6
HIDDEN
10
0.574999
20
0.568736
30
0.0
11
0.574999
21
0.571484
31
0.0
0
LINE
8
LEFT_HID
6
HIDDEN
10
0.574999
20
0.571484
30
0.0
11
0.574999
21
0.574231
31
0.0
0
LINE
8
LEFT_HID
6
HIDDEN
10
0.574999
20
0.574231
30
0.0
11
0.574999
21
0.576978
31
0.0
0
LINE
8
LEFT_HID
6
HIDDEN
10
0.574999
20
0.576978
30
0.0
11
0.574999
21
0.579725
31
0.0
0
LINE
8
LEFT_HID
6
HIDDEN
10
0.574999
20
0.579725
30
0.0
11
0.574999
21
0.582473
31
0.0
0
LINE
8
LEFT_HID
6
HIDDEN
10
0.574999
20
0.582473
30
0.0
11
0.574999
21
0.585220
31
0.0
0
LINE
8
LEFT_HID
6
HIDDEN
10
0.574999
20
0.585220
30
0.0
11
0.574999
21
0.587967
31
0.0
0
LINE
8
LEFT_HID
6
HIDDEN
10
0.574999
20
0.587967
30
0.0
11
0.574999
21
0.590714
31
0.0
0
LINE
8
LEFT_HID
6
HIDDEN
10
0.574999
20
0.590714
30
0.0
11
0.574999
21
0.593462
31
0.0
0
LINE
8
LEFT_HID
6
HIDDEN
10
0.574999
20
0.593462
30
0.0
11
0.574999
21
0.596209
31
0.0
0
LINE
8
LEFT_HID
6
HIDDEN
10
0.574999
20
0.596209
30
0.0
11
0.574999
21
0.598956
31
0.0
0
LINE
8
LEFT_HID
6
HIDDEN
10
0.574999
20
0.598956
30
0.0
11
0.574999
21
0.601703
31
0.0
0
LINE
8
LEFT_HID
6
HIDDEN
10
0.574999
20
0.601703
30
0.0
11
0.574999
21
0.604451
31
0.0
0
LINE
8
LEFT_HID
6
HIDDEN
10
0.574999
20
0.604451
30
0.0
11
0.574999
21
0.607198
31
0.0
0
LINE
8
LEFT_HID
6
HIDDEN
10
0.574999
20
0.607198
30
0.0
11
0.574999
21
0.609945
31
0.0
0
LINE
8
LEFT_HID
6
HIDDEN
10
0.574999
20
0.609945
30
0.0
11
0.574999
21
0.612692
31
0.0
0
LINE
8
LEFT_HID
6
HIDDEN
10
0.593460
20
0.237692
30
0.0
11
0.593460
21
0.231923
31
0.0
0
LINE
8
LEFT_HID
6
HIDDEN
10
0.593460
20
0.180037
30
0.0
11
0.593460
21
0.237692
31
0.0
0
LINE
8
LEFT_HID
6
HIDDEN
10
0.593460
20
0.180037
30
0.0
11
0.593460
21
0.189646
31
0.0
0
LINE
8
LEFT_HID
6
HIDDEN
10
0.593460
20
0.237692
30
0.0
11
0.593460
21
0.189646
31
0.0
0
LINE
8
LEFT_HID
6
HIDDEN
10
0.593460
20
0.285769
30
0.0
11
0.593460
21
0.237692
31
0.0
0
LINE
8
LEFT_HID
6
HIDDEN
10
0.593460
20
0.285769
30
0.0
11
0.593460
21
0.291303
31
0.0
0
LINE
8
LEFT_HID
6
HIDDEN
10
0.593460
20
0.291303
30
0.0
11
0.593460
21
0.344241
31
0.0
0
LINE
8
LEFT_HID
6
HIDDEN
10
0.593460
20
0.344241
30
0.0
11
0.593460
21
0.612692
31
0.0
0
LINE
8
LEFT_HID
6
HIDDEN
10
0.593460
20
0.612692
30
0.0
11
0.593460
21
0.609945
31
0.0
0
LINE
8
LEFT_HID
6
HIDDEN
10
0.593460
20
0.609945
30
0.0
11
0.593460
21
0.607198
31
0.0
0
LINE
8
LEFT_HID
6
HIDDEN
10
0.593460
20
0.607198
30
0.0
11
0.593460
21
0.604451
31
0.0
0
LINE
8
LEFT_HID
6
HIDDEN
10
0.593460
20
0.604451
30
0.0
11
0.593460
21
0.601703
31
0.0
0
LINE
8
LEFT_HID
6
HIDDEN
10
0.593460
20
0.601703
30
0.0
11
0.593460
21
0.598956
31
0.0
0
LINE
8
LEFT_HID
6
HIDDEN
10
0.593460
20
0.598956
30
0.0
11
0.593460
21
0.596209
31
0.0
0
LINE
8
LEFT_HID
6
HIDDEN
10
0.593460
20
0.596209
30
0.0
11
0.593460
21
0.593462
31
0.0
0
LINE
8
LEFT_HID
6
HIDDEN
10
0.593460
20
0.593462
30
0.0
11
0.593460
21
0.590714
31
0.0
0
LINE
8
LEFT_HID
6
HIDDEN
10
0.593460
20
0.590714
30
0.0
11
0.593460
21
0.587967
31
0.0
0
LINE
8
LEFT_HID
6
HIDDEN
10
0.593460
20
0.587967
30
0.0
11
0.593460
21
0.585220
31
0.0
0
LINE
8
LEFT_HID
6
HIDDEN
10
0.593460
20
0.585220
30
0.0
11
0.593460
21
0.582473
31
0.0
0
LINE
8
LEFT_HID
6
HIDDEN
10
0.593460
20
0.582473
30
0.0
11
0.593460
21
0.579725
31
0.0
0
LINE
8
LEFT_HID
6
HIDDEN
10
0.593460
20
0.579725
30
0.0
11
0.593460
21
0.576978
31
0.0
0
LINE
8
LEFT_HID
6
HIDDEN
10
0.593460
20
0.576978
30
0.0
11
0.593460
21
0.574231
31
0.0
0
LINE
8
LEFT_HID
6
HIDDEN
10
0.593460
20
0.574231
30
0.0
11
0.593460
21
0.571484
31
0.0
0
LINE
8
LEFT_HID
6
HIDDEN
10
0.593460
20
0.571484
30
0.0
11
0.593460
21
0.568736
31
0.0
0
LINE
8
LEFT_HID
6
HIDDEN
10
0.593460
20
0.568736
30
0.0
11
0.593460
21
0.565989
31
0.0
0
LINE
8
LEFT_HID
6
HIDDEN
10
0.593460
20
0.565989
30
0.0
11
0.593460
21
0.563242
31
0.0
0
LINE
8
LEFT_HID
6
HIDDEN
10
0.593460
20
0.563242
30
0.0
11
0.593460
21
0.560495
31
0.0
0
LINE
8
LEFT_HID
6
HIDDEN
10
0.593460
20
0.560495
30
0.0
11
0.593460
21
0.557747
31
0.0
0
LINE
8
LEFT_HID
6
HIDDEN
10
0.593460
20
0.557747
30
0.0
11
0.593460
21
0.555000
31
0.0
0
LINE
8
LEFT_HID
6
HIDDEN
10
0.593460
20
0.555000
30
0.0
11
0.593460
21
0.552253
31
0.0
0
LINE
8
LEFT_HID
6
HIDDEN
10
0.593460
20
0.552253
30
0.0
11
0.593460
21
0.549505
31
0.0
0
LINE
8
LEFT_HID
6
HIDDEN
10
0.593460
20
0.549505
30
0.0
11
0.593460
21
0.546758
31
0.0
0
LINE
8
LEFT_HID
6
HIDDEN
10
0.593460
20
0.546758
30
0.0
11
0.593460
21
0.544011
31
0.0
0
LINE
8
LEFT_HID
6
HIDDEN
10
0.593460
20
0.544011
30
0.0
11
0.593460
21
0.541264
31
0.0
0
LINE
8
LEFT_HID
6
HIDDEN
10
0.593460
20
0.541264
30
0.0
11
0.593460
21
0.538516
31
0.0
0
LINE
8
LEFT_HID
6
HIDDEN
10
0.593460
20
0.538516
30
0.0
11
0.593460
21
0.535769
31
0.0
0
LINE
8
LEFT_HID
6
HIDDEN
10
0.593460
20
0.535769
30
0.0
11
0.593460
21
0.533022
31
0.0
0
LINE
8
LEFT_HID
6
HIDDEN
10
0.593460
20
0.533022
30
0.0
11
0.593460
21
0.530275
31
0.0
0
LINE
8
LEFT_HID
6
HIDDEN
10
0.593460
20
0.530275
30
0.0
11
0.593460
21
0.527527
31
0.0
0
LINE
8
LEFT_HID
6
HIDDEN
10
0.593460
20
0.527527
30
0.0
11
0.593460
21
0.530275
31
0.0
0
LINE
8
LEFT_HID
6
HIDDEN
10
0.593460
20
0.530275
30
0.0
11
0.593460
21
0.533022
31
0.0
0
LINE
8
LEFT_HID
6
HIDDEN
10
0.593460
20
0.533022
30
0.0
11
0.593460
21
0.535769
31
0.0
0
LINE
8
LEFT_HID
6
HIDDEN
10
0.593460
20
0.535769
30
0.0
11
0.593460
21
0.538516
31
0.0
0
LINE
8
LEFT_HID
6
HIDDEN
10
0.593460
20
0.538516
30
0.0
11
0.593460
21
0.541264
31
0.0
0
LINE
8
LEFT_HID
6
HIDDEN
10
0.593460
20
0.541264
30
0.0
11
0.593460
21
0.544011
31
0.0
0
LINE
8
LEFT_HID
6
HIDDEN
10
0.593460
20
0.544011
30
0.0
11
0.593460
21
0.546758
31
0.0
0
LINE
8
LEFT_HID
6
HIDDEN
10
0.593460
20
0.546758
30
0.0
11
0.593460
21
0.549505
31
0.0
0
LINE
8
LEFT_HID
6
HIDDEN
10
0.593460
20
0.549505
30
0.0
11
0.593460
21
0.552253
31
0.0
0
LINE
8
LEFT_HID
6
HIDDEN
10
0.593460
20
0.552253
30
0.0
11
0.593460
21
0.555000
31
0.0
0
LINE
8
LEFT_HID
6
HIDDEN
10
0.593460
20
0.555000
30
0.0
11
0.593460
21
0.557747
31
0.0
0
LINE
8
LEFT_HID
6
HIDDEN
10
0.593460
20
0.557747
30
0.0
11
0.593460
21
0.560495
31
0.0
0
LINE
8
LEFT_HID
6
HIDDEN
10
0.593460
20
0.560495
30
0.0
11
0.593460
21
0.563242
31
0.0
0
LINE
8
LEFT_HID
6
HIDDEN
10
0.593460
20
0.563242
30
0.0
11
0.593460
21
0.565989
31
0.0
0
LINE
8
LEFT_HID
6
HIDDEN
10
0.593460
20
0.565989
30
0.0
11
0.593460
21
0.568736
31
0.0
0
LINE
8
LEFT_HID
6
HIDDEN
10
0.593460
20
0.568736
30
0.0
11
0.593460
21
0.571484
31
0.0
0
LINE
8
LEFT_HID
6
HIDDEN
10
0.593460
20
0.571484
30
0.0
11
0.593460
21
0.574231
31
0.0
0
LINE
8
LEFT_HID
6
HIDDEN
10
0.593460
20
0.574231
30
0.0
11
0.593460
21
0.576978
31
0.0
0
LINE
8
LEFT_HID
6
HIDDEN
10
0.593460
20
0.576978
30
0.0
11
0.593460
21
0.579725
31
0.0
0
LINE
8
LEFT_HID
6
HIDDEN
10
0.593460
20
0.579725
30
0.0
11
0.593460
21
0.582473
31
0.0
0
LINE
8
LEFT_HID
6
HIDDEN
10
0.593460
20
0.582473
30
0.0
11
0.593460
21
0.585220
31
0.0
0
LINE
8
LEFT_HID
6
HIDDEN
10
0.593460
20
0.585220
30
0.0
11
0.593460
21
0.587967
31
0.0
0
LINE
8
LEFT_HID
6
HIDDEN
10
0.593460
20
0.587967
30
0.0
11
0.593460
21
0.590714
31
0.0
0
LINE
8
LEFT_HID
6
HIDDEN
10
0.593460
20
0.590714
30
0.0
11
0.593460
21
0.593462
31
0.0
0
LINE
8
LEFT_HID
6
HIDDEN
10
0.593460
20
0.593462
30
0.0
11
0.593460
21
0.596209
31
0.0
0
LINE
8
LEFT_HID
6
HIDDEN
10
0.593460
20
0.596209
30
0.0
11
0.593460
21
0.598956
31
0.0
0
LINE
8
LEFT_HID
6
HIDDEN
10
0.593460
20
0.598956
30
0.0
11
0.593460
21
0.601703
31
0.0
0
LINE
8
LEFT_HID
6
HIDDEN
10
0.593460
20
0.601703
30
0.0
11
0.593460
21
0.604451
31
0.0
0
LINE
8
LEFT_HID
6
HIDDEN
10
0.593460
20
0.604451
30
0.0
11
0.593460
21
0.607198
31
0.0
0
LINE
8
LEFT_HID
6
HIDDEN
10
0.593460
20
0.607198
30
0.0
11
0.593460
21
0.609945
31
0.0
0
LINE
8
LEFT_HID
6
HIDDEN
10
0.593460
20
0.609945
30
0.0
11
0.593460
21
0.612692
31
0.0
0
LINE
8
LEFT_HID
6
HIDDEN
10
0.574999
20
0.612692
30
0.0
11
0.574999
21
0.636087
31
0.0
0
LINE
8
LEFT_HID
6
HIDDEN
10
0.574999
20
0.632558
30
0.0
11
0.574999
21
0.636087
31
0.0
0
LINE
8
LEFT_HID
6
HIDDEN
10
0.574999
20
0.622308
30
0.0
11
0.574999
21
0.603077
31
0.0
0
LINE
8
LEFT_HID
6
HIDDEN
10
0.574999
20
0.603077
30
0.0
11
0.574999
21
0.641538
31
0.0
0
LINE
8
LEFT_HID
6
HIDDEN
10
0.574999
20
0.641538
30
0.0
11
0.574999
21
0.622308
31
0.0
0
LINE
8
LEFT_HID
6
HIDDEN
10
0.593460
20
0.612692
30
0.0
11
0.593460
21
0.636087
31
0.0
0
LINE
8
LEFT_HID
6
HIDDEN
10
0.593460
20
0.632558
30
0.0
11
0.593460
21
0.636087
31
0.0
0
LINE
8
LEFT_HID
6
HIDDEN
10
0.593460
20
0.622308
30
0.0
11
0.593460
21
0.603077
31
0.0
0
LINE
8
LEFT_HID
6
HIDDEN
10
0.593460
20
0.603077
30
0.0
11
0.593460
21
0.641538
31
0.0
0
LINE
8
LEFT_HID
6
HIDDEN
10
0.593460
20
0.641538
30
0.0
11
0.593460
21
0.622308
31
0.0
0
LINE
8
LEFT_HID
6
HIDDEN
10
0.574999
20
0.237692
30
0.0
11
0.574999
21
0.218462
31
0.0
0
LINE
8
LEFT_HID
6
HIDDEN
10
0.574999
20
0.218462
30
0.0
11
0.574999
21
0.256923
31
0.0
0
LINE
8
LEFT_HID
6
HIDDEN
10
0.574999
20
0.256923
30
0.0
11
0.574999
21
0.237692
31
0.0
0
LINE
8
LEFT_HID
6
HIDDEN
10
0.593460
20
0.237692
30
0.0
11
0.593460
21
0.218462
31
0.0
0
LINE
8
LEFT_HID
6
HIDDEN
10
0.593460
20
0.218462
30
0.0
11
0.593460
21
0.256923
31
0.0
0
LINE
8
LEFT_HID
6
HIDDEN
10
0.593460
20
0.256923
30
0.0
11
0.593460
21
0.237692
31
0.0
0
LINE
8
LEFT_HID
6
HIDDEN
10
0.574999
20
0.189646
30
0.0
11
0.574999
21
0.285769
31
0.0
0
LINE
8
LEFT_HID
6
HIDDEN
10
0.574999
20
0.237692
30
0.0
11
0.574999
21
0.218462
31
0.0
0
LINE
8
LEFT_HID
6
HIDDEN
10
0.574999
20
0.218462
30
0.0
11
0.574999
21
0.256923
31
0.0
0
LINE
8
LEFT_HID
6
HIDDEN
10
0.574999
20
0.256923
30
0.0
11
0.574999
21
0.237692
31
0.0
0
LINE
8
LEFT_HID
6
HIDDEN
10
0.574999
20
0.285769
30
0.0
11
0.593460
21
0.285769
31
0.0
0
LINE
8
LEFT_HID
6
HIDDEN
10
0.593460
20
0.189646
30
0.0
11
0.593460
21
0.285769
31
0.0
0
LINE
8
LEFT_HID
6
HIDDEN
10
0.593460
20
0.237692
30
0.0
11
0.593460
21
0.218462
31
0.0
0
LINE
8
LEFT_HID
6
HIDDEN
10
0.593460
20
0.218462
30
0.0
11
0.593460
21
0.256923
31
0.0
0
LINE
8
LEFT_HID
6
HIDDEN
10
0.593460
20
0.256923
30
0.0
11
0.593460
21
0.237692
31
0.0
0
LINE
8
LEFT_HID
6
HIDDEN
10
0.574999
20
0.636087
30
0.0
11
0.574999
21
0.938268
31
0.0
0
LINE
8
LEFT_HID
6
HIDDEN
10
0.574999
20
0.930000
30
0.0
11
0.574999
21
0.938268
31
0.0
0
LINE
8
LEFT_HID
6
HIDDEN
10
0.574999
20
0.936150
30
0.0
11
0.574999
21
0.930000
31
0.0
0
LINE
8
LEFT_HID
6
HIDDEN
10
0.574999
20
0.843538
30
0.0
11
0.574999
21
0.824308
31
0.0
0
LINE
8
LEFT_HID
6
HIDDEN
10
0.574999
20
0.824308
30
0.0
11
0.574999
21
0.862769
31
0.0
0
LINE
8
LEFT_HID
6
HIDDEN
10
0.574999
20
0.862769
30
0.0
11
0.574999
21
0.843538
31
0.0
0
LINE
8
LEFT_HID
6
HIDDEN
10
0.593460
20
0.636087
30
0.0
11
0.593460
21
0.938268
31
0.0
0
LINE
8
LEFT_HID
6
HIDDEN
10
0.593460
20
0.930000
30
0.0
11
0.593460
21
0.938268
31
0.0
0
LINE
8
LEFT_HID
6
HIDDEN
10
0.593460
20
0.936150
30
0.0
11
0.593460
21
0.930000
31
0.0
0
LINE
8
LEFT_HID
6
HIDDEN
10
0.593460
20
0.843538
30
0.0
11
0.593460
21
0.824308
31
0.0
0
LINE
8
LEFT_HID
6
HIDDEN
10
0.593460
20
0.824308
30
0.0
11
0.593460
21
0.862769
31
0.0
0
LINE
8
LEFT_HID
6
HIDDEN
10
0.593460
20
0.862769
30
0.0
11
0.593460
21
0.843538
31
0.0
0
LINE
8
LEFT_HID
6
HIDDEN
10
0.574999
20
0.938268
30
0.0
11
0.574999
21
0.987692
31
0.0
0
LINE
8
LEFT_HID
6
HIDDEN
10
0.574999
20
0.930000
30
0.0
11
0.574999
21
0.910769
31
0.0
0
LINE
8
LEFT_HID
6
HIDDEN
10
0.574999
20
0.910769
30
0.0
11
0.574999
21
0.949231
31
0.0
0
LINE
8
LEFT_HID
6
HIDDEN
10
0.574999
20
0.949231
30
0.0
11
0.574999
21
0.930000
31
0.0
0
LINE
8
LEFT_HID
6
HIDDEN
10
0.593460
20
0.938268
30
0.0
11
0.593460
21
0.987692
31
0.0
0
LINE
8
LEFT_HID
6
HIDDEN
10
0.593460
20
0.930000
30
0.0
11
0.593460
21
0.910769
31
0.0
0
LINE
8
LEFT_HID
6
HIDDEN
10
0.593460
20
0.910769
30
0.0
11
0.593460
21
0.949231
31
0.0
0
LINE
8
LEFT_HID
6
HIDDEN
10
0.593460
20
0.949231
30
0.0
11
0.593460
21
0.930000
31
0.0
0
LINE
8
LEFT_HID
6
HIDDEN
10
0.574999
20
0.180037
30
0.0
11
0.593460
21
0.180037
31
0.0
0
LINE
8
LEFT_HID
6
HIDDEN
10
0.574999
20
0.189646
30
0.0
11
0.593460
21
0.189646
31
0.0
0
LINE
8
LEFT_HID
6
HIDDEN
10
0.574999
20
0.291303
30
0.0
11
0.593460
21
0.291303
31
0.0
0
LINE
8
LEFT_HID
6
HIDDEN
10
0.574999
20
0.344241
30
0.0
11
0.593460
21
0.344241
31
0.0
0
LINE
8
LEFT_HID
6
HIDDEN
10
0.574999
20
0.636087
30
0.0
11
0.593460
21
0.636087
31
0.0
0
LINE
8
LEFT_HID
6
HIDDEN
10
0.574999
20
0.938268
30
0.0
11
0.593460
21
0.938268
31
0.0
0
LINE
8
LEFT_HID
6
HIDDEN
10
0.593460
20
0.641538
30
0.0
11
0.574999
21
0.641538
31
0.0
0
LINE
8
LEFT_HID
6
HIDDEN
10
0.593460
20
0.603077
30
0.0
11
0.574999
21
0.603077
31
0.0
0
LINE
8
LEFT_HID
6
HIDDEN
10
0.593460
20
0.256923
30
0.0
11
0.574999
21
0.256923
31
0.0
0
LINE
8
LEFT_HID
6
HIDDEN
10
0.593460
20
0.218462
30
0.0
11
0.574999
21
0.218462
31
0.0
0
LINE
8
LEFT_HID
6
HIDDEN
10
0.593460
20
0.256923
30
0.0
11
0.574999
21
0.256923
31
0.0
0
LINE
8
LEFT_HID
6
HIDDEN
10
0.593460
20
0.218462
30
0.0
11
0.574999
21
0.218462
31
0.0
0
LINE
8
LEFT_HID
6
HIDDEN
10
0.593460
20
0.862769
30
0.0
11
0.574999
21
0.862769
31
0.0
0
LINE
8
LEFT_HID
6
HIDDEN
10
0.593460
20
0.824308
30
0.0
11
0.574999
21
0.824308
31
0.0
0
LINE
8
LEFT_HID
6
HIDDEN
10
0.593460
20
0.949231
30
0.0
11
0.574999
21
0.949231
31
0.0
0
LINE
8
LEFT_HID
6
HIDDEN
10
0.593460
20
0.910769
30
0.0
11
0.574999
21
0.910769
31
0.0
0
LINE
8
TOP
10
0.000000
20
0.018462
30
0.0
11
0.000000
21
0.000000
31
0.0
0
LINE
8
TOP
10
0.365385
20
0.018462
30
0.0
11
0.211033
21
0.018462
31
0.0
0
LINE
8
TOP
10
0.211033
20
0.018462
30
0.0
11
0.192308
21
0.018462
31
0.0
0
LINE
8
TOP
10
0.365385
20
0.000000
30
0.0
11
0.211033
21
0.000000
31
0.0
0
LINE
8
TOP
10
0.211033
20
0.000000
30
0.0
11
0.192308
21
0.000000
31
0.0
0
LINE
8
TOP
10
0.192308
20
0.018462
30
0.0
11
0.191315
21
0.018462
31
0.0
0
LINE
8
TOP
10
0.000548
20
0.018462
30
0.0
11
0.000000
21
0.018462
31
0.0
0
LINE
8
TOP
10
0.192308
20
0.000000
30
0.0
11
0.191315
21
0.000000
31
0.0
0
LINE
8
TOP
10
0.000548
20
0.000000
30
0.0
11
0.000000
21
0.000000
31
0.0
0
LINE
8
TOP
10
0.413462
20
0.018462
30
0.0
11
0.365385
21
0.018462
31
0.0
0
LINE
8
TOP
10
0.365385
20
0.018462
30
0.0
11
0.365385
21
0.000000
31
0.0
0
LINE
8
TOP
10
0.413462
20
0.000000
30
0.0
11
0.365385
21
0.000000
31
0.0
0
LINE
8
TOP
10
0.191315
20
0.018462
30
0.0
11
0.147558
21
0.018462
31
0.0
0
LINE
8
TOP
10
0.033098
20
0.018462
30
0.0
11
0.000548
21
0.018462
31
0.0
0
LINE
8
TOP
10
0.191315
20
0.000000
30
0.0
11
0.147558
21
0.000000
31
0.0
0
LINE
8
TOP
10
0.033098
20
0.000000
30
0.0
11
0.000548
21
0.000000
31
0.0
0
LINE
8
TOP
10
0.147558
20
0.018462
30
0.0
11
0.033098
21
0.018462
31
0.0
0
LINE
8
TOP
10
0.147558
20
0.000000
30
0.0
11
0.033098
21
0.000000
31
0.0
0
LINE
8
TOP
10
0.000548
20
0.018462
30
0.0
11
0.000548
21
0.000000
31
0.0
0
LINE
8
TOP
10
0.211033
20
0.018462
30
0.0
11
0.211033
21
0.000000
31
0.0
0
LINE
8
TOP
10
0.191315
20
0.018462
30
0.0
11
0.191315
21
0.000000
31
0.0
0
LINE
8
TOP
10
0.033098
20
0.018462
30
0.0
11
0.033098
21
0.000000
31
0.0
0
LINE
8
TOP
10
0.147558
20
0.018462
30
0.0
11
0.147558
21
0.000000
31
0.0
0
LINE
8
TOP
10
0.192308
20
0.000000
30
0.0
11
0.192308
21
0.018462
31
0.0
0
LINE
8
TOP
10
0.413462
20
0.000000
30
0.0
11
0.413462
21
0.018462
31
0.0
0
LINE
8
TOP_HID
6
HIDDEN
10
0.000482
20
0.000000
30
0.0
11
0.038751
21
0.000000
31
0.0
0
LINE
8
TOP_HID
6
HIDDEN
10
0.000482
20
0.018462
30
0.0
11
0.038751
21
0.018462
31
0.0
0
LINE
8
TOP_HID
6
HIDDEN
10
0.000000
20
0.000000
30
0.0
11
0.000482
21
0.000000
31
0.0
0
LINE
8
TOP_HID
6
HIDDEN
10
0.000000
20
0.018462
30
0.0
11
0.000482
21
0.018462
31
0.0
0
LINE
8
TOP_HID
6
HIDDEN
10
0.038751
20
0.000000
30
0.0
11
0.098214
21
0.000000
31
0.0
0
LINE
8
TOP_HID
6
HIDDEN
10
0.038751
20
0.018462
30
0.0
11
0.098214
21
0.018462
31
0.0
0
LINE
8
TOP_HID
6
HIDDEN
10
0.038462
20
0.018462
30
0.0
11
0.038751
21
0.018462
31
0.0
0
LINE
8
TOP_HID
6
HIDDEN
10
0.098214
20
0.018462
30
0.0
11
0.038462
21
0.018462
31
0.0
0
LINE
8
TOP_HID
6
HIDDEN
10
0.098214
20
0.018462
30
0.0
11
0.367102
21
0.018462
31
0.0
0
LINE
8
TOP_HID
6
HIDDEN
10
0.317308
20
0.018462
30
0.0
11
0.367102
21
0.018462
31
0.0
0
LINE
8
TOP_HID
6
HIDDEN
10
0.365385
20
0.018462
30
0.0
11
0.317308
21
0.018462
31
0.0
0
LINE
8
TOP_HID
6
HIDDEN
10
0.192308
20
0.018462
30
0.0
11
0.164604
21
0.018462
31
0.0
0
LINE
8
TOP_HID
6
HIDDEN
10
0.164604
20
0.018462
30
0.0
11
0.164845
21
0.018462
31
0.0
0
LINE
8
TOP_HID
6
HIDDEN
10
0.164845
20
0.018462
30
0.0
11
0.191826
21
0.018462
31
0.0
0
LINE
8
TOP_HID
6
HIDDEN
10
0.191826
20
0.018462
30
0.0
11
0.000482
21
0.018462
31
0.0
0
LINE
8
TOP_HID
6
HIDDEN
10
0.038462
20
0.000000
30
0.0
11
0.038751
21
0.000000
31
0.0
0
LINE
8
TOP_HID
6
HIDDEN
10
0.098214
20
0.000000
30
0.0
11
0.038462
21
0.000000
31
0.0
0
LINE
8
TOP_HID
6
HIDDEN
10
0.098214
20
0.000000
30
0.0
11
0.367102
21
0.000000
31
0.0
0
LINE
8
TOP_HID
6
HIDDEN
10
0.317308
20
0.000000
30
0.0
11
0.367102
21
0.000000
31
0.0
0
LINE
8
TOP_HID
6
HIDDEN
10
0.365385
20
0.000000
30
0.0
11
0.317308
21
0.000000
31
0.0
0
LINE
8
TOP_HID
6
HIDDEN
10
0.192308
20
0.000000
30
0.0
11
0.164604
21
0.000000
31
0.0
0
LINE
8
TOP_HID
6
HIDDEN
10
0.164604
20
0.000000
30
0.0
11
0.164845
21
0.000000
31
0.0
0
LINE
8
TOP_HID
6
HIDDEN
10
0.164845
20
0.000000
30
0.0
11
0.191826
21
0.000000
31
0.0
0
LINE
8
TOP_HID
6
HIDDEN
10
0.191826
20
0.000000
30
0.0
11
0.000482
21
0.000000
31
0.0
0
LINE
8
TOP_HID
6
HIDDEN
10
0.191826
20
0.018462
30
0.0
11
0.192308
21
0.018462
31
0.0
0
LINE
8
TOP_HID
6
HIDDEN
10
0.000548
20
0.018462
30
0.0
11
0.191315
21
0.018462
31
0.0
0
LINE
8
TOP_HID
6
HIDDEN
10
0.076923
20
0.018462
30
0.0
11
0.115385
21
0.018462
31
0.0
0
LINE
8
TOP_HID
6
HIDDEN
10
0.115385
20
0.018462
30
0.0
11
0.076923
21
0.018462
31
0.0
0
LINE
8
TOP_HID
6
HIDDEN
10
0.191826
20
0.000000
30
0.0
11
0.192308
21
0.000000
31
0.0
0
LINE
8
TOP_HID
6
HIDDEN
10
0.000548
20
0.000000
30
0.0
11
0.191315
21
0.000000
31
0.0
0
LINE
8
TOP_HID
6
HIDDEN
10
0.076923
20
0.000000
30
0.0
11
0.115385
21
0.000000
31
0.0
0
LINE
8
TOP_HID
6
HIDDEN
10
0.115385
20
0.000000
30
0.0
11
0.076923
21
0.000000
31
0.0
0
LINE
8
TOP_HID
6
HIDDEN
10
0.076923
20
0.018462
30
0.0
11
0.115385
21
0.018462
31
0.0
0
LINE
8
TOP_HID
6
HIDDEN
10
0.115385
20
0.018462
30
0.0
11
0.076923
21
0.018462
31
0.0
0
LINE
8
TOP_HID
6
HIDDEN
10
0.076923
20
0.000000
30
0.0
11
0.115385
21
0.000000
31
0.0
0
LINE
8
TOP_HID
6
HIDDEN
10
0.115385
20
0.000000
30
0.0
11
0.076923
21
0.000000
31
0.0
0
LINE
8
TOP_HID
6
HIDDEN
10
0.367102
20
0.018462
30
0.0
11
0.413462
21
0.018462
31
0.0
0
LINE
8
TOP_HID
6
HIDDEN
10
0.346154
20
0.018462
30
0.0
11
0.384615
21
0.018462
31
0.0
0
LINE
8
TOP_HID
6
HIDDEN
10
0.384615
20
0.018462
30
0.0
11
0.346154
21
0.018462
31
0.0
0
LINE
8
TOP_HID
6
HIDDEN
10
0.367102
20
0.000000
30
0.0
11
0.413462
21
0.000000
31
0.0
0
LINE
8
TOP_HID
6
HIDDEN
10
0.346154
20
0.000000
30
0.0
11
0.384615
21
0.000000
31
0.0
0
LINE
8
TOP_HID
6
HIDDEN
10
0.384615
20
0.000000
30
0.0
11
0.346154
21
0.000000
31
0.0
0
LINE
8
TOP_HID
6
HIDDEN
10
0.032769
20
0.018462
30
0.0
11
0.147558
21
0.018462
31
0.0
0
LINE
8
TOP_HID
6
HIDDEN
10
0.033098
20
0.018462
30
0.0
11
0.032769
21
0.018462
31
0.0
0
LINE
8
TOP_HID
6
HIDDEN
10
0.052710
20
0.018462
30
0.0
11
0.091172
21
0.018462
31
0.0
0
LINE
8
TOP_HID
6
HIDDEN
10
0.091172
20
0.018462
30
0.0
11
0.052710
21
0.018462
31
0.0
0
LINE
8
TOP_HID
6
HIDDEN
10
0.076923
20
0.018462
30
0.0
11
0.076923
21
0.000000
31
0.0
0
LINE
8
TOP_HID
6
HIDDEN
10
0.032769
20
0.000000
30
0.0
11
0.147558
21
0.000000
31
0.0
0
LINE
8
TOP_HID
6
HIDDEN
10
0.033098
20
0.000000
30
0.0
11
0.032769
21
0.000000
31
0.0
0
LINE
8
TOP_HID
6
HIDDEN
10
0.052710
20
0.000000
30
0.0
11
0.091172
21
0.000000
31
0.0
0
LINE
8
TOP_HID
6
HIDDEN
10
0.091172
20
0.000000
30
0.0
11
0.052710
21
0.000000
31
0.0
0
LINE
8
TOP_HID
6
HIDDEN
10
0.076923
20
0.018462
30
0.0
11
0.076923
21
0.000000
31
0.0
0
LINE
8
TOP_HID
6
HIDDEN
10
0.346154
20
0.018462
30
0.0
11
0.346154
21
0.000000
31
0.0
0
LINE
8
TOP_HID
6
HIDDEN
10
0.071231
20
0.018462
30
0.0
11
0.109692
21
0.018462
31
0.0
0
LINE
8
TOP_HID
6
HIDDEN
10
0.109692
20
0.018462
30
0.0
11
0.071231
21
0.018462
31
0.0
0
LINE
8
TOP_HID
6
HIDDEN
10
0.052710
20
0.018462
30
0.0
11
0.052710
21
0.000000
31
0.0
0
LINE
8
TOP_HID
6
HIDDEN
10
0.071231
20
0.000000
30
0.0
11
0.109692
21
0.000000
31
0.0
0
LINE
8
TOP_HID
6
HIDDEN
10
0.109692
20
0.000000
30
0.0
11
0.071231
21
0.000000
31
0.0
0
LINE
8
TOP_HID
6
HIDDEN
10
0.071231
20
0.018462
30
0.0
11
0.071231
21
0.000000
31
0.0
0
LINE
8
TOP_HID
6
HIDDEN
10
0.000482
20
0.018462
30
0.0
11
0.000482
21
0.000000
31
0.0
0
LINE
8
TOP_HID
6
HIDDEN
10
0.038751
20
0.018462
30
0.0
11
0.038751
21
0.000000
31
0.0
0
LINE
8
TOP_HID
6
HIDDEN
10
0.098214
20
0.018462
30
0.0
11
0.098214
21
0.000000
31
0.0
0
LINE
8
TOP_HID
6
HIDDEN
10
0.367102
20
0.018462
30
0.0
11
0.367102
21
0.000000
31
0.0
0
LINE
8
TOP_HID
6
HIDDEN
10
0.164845
20
0.018462
30
0.0
11
0.164845
21
0.000000
31
0.0
0
LINE
8
TOP_HID
6
HIDDEN
10
0.191826
20
0.018462
30
0.0
11
0.191826
21
0.000000
31
0.0
0
LINE
8
TOP_HID
6
HIDDEN
10
0.164604
20
0.000000
30
0.0
11
0.164604
21
0.018462
31
0.0
0
LINE
8
TOP_HID
6
HIDDEN
10
0.115385
20
0.000000
30
0.0
11
0.115385
21
0.018462
31
0.0
0
LINE
8
TOP_HID
6
HIDDEN
10
0.115385
20
0.000000
30
0.0
11
0.115385
21
0.018462
31
0.0
0
LINE
8
TOP_HID
6
HIDDEN
10
0.384615
20
0.000000
30
0.0
11
0.384615
21
0.018462
31
0.0
0
LINE
8
TOP_HID
6
HIDDEN
10
0.091172
20
0.000000
30
0.0
11
0.091172
21
0.018462
31
0.0
0
LINE
8
TOP_HID
6
HIDDEN
10
0.109692
20
0.000000
30
0.0
11
0.109692
21
0.018462
31
0.0
0
ENDSEC
0
EOF
