0
SECTION
2
HEADER
9
$ACADVER
1
AC1009
0
ENDSEC
0
SECTION
2
TABLES
0
TABLE
2
LTYPE
70
3
0
LTYPE
2
CONTINUOUS
70
0
3
Solid line
72
65
73
0
40
0.0
0
LTYPE
2
HIDDEN
70
0
3
__ __ __ __ __
72
65
73
2
40
0.037500
49
0.025013
49
-0.012488
0
LTYPE
2
CENTER
70
0
3
___ _ ___ _ ___
72
65
73
4
40
0.087488
49
0.049988
49
-0.012488
49
0.012488
49
-0.012488
0
ENDTAB
0
TABLE
2
LAYER
70
6
0
LAYER
2
0
70
0
62
7
6
CONTINUOUS
0
LAYER
2
FRONT
70
0
62
7
6
CONTINUOUS
0
LAYER
2
LEFT
70
0
62
7
6
CONTINUOUS
0
LAYER
2
LEFT_HID
70
0
62
7
6
HIDDEN
0
LAYER
2
TOP
70
0
62
7
6
CONTINUOUS
0
LAYER
2
TOP_HID
70
0
62
7
6
HIDDEN
0
ENDTAB
0
ENDSEC
0
SECTION
2
ENTITIES
0
LINE
8
FRONT
10
0.000000
20
1.274883
30
0.0
11
0.001863
21
1.237546
31
0.0
0
LINE
8
FRONT
10
0.001863
20
1.237546
30
0.0
11
0.007435
21
1.200579
31
0.0
0
LINE
8
FRONT
10
0.007435
20
1.200579
30
0.0
11
0.016660
21
1.164350
31
0.0
0
LINE
8
FRONT
10
0.016660
20
1.164350
30
0.0
11
0.029446
21
1.129220
31
0.0
0
LINE
8
FRONT
10
0.029446
20
1.129220
30
0.0
11
0.045667
21
1.095538
31
0.0
0
LINE
8
FRONT
10
0.045667
20
1.095538
30
0.0
11
0.065160
21
1.063638
31
0.0
0
LINE
8
FRONT
10
0.065160
20
1.063638
30
0.0
11
0.087733
21
1.033838
31
0.0
0
LINE
8
FRONT
10
0.087733
20
1.033838
30
0.0
11
0.113161
21
1.006433
31
0.0
0
LINE
8
FRONT
10
0.113161
20
1.006433
30
0.0
11
0.141191
21
0.981697
31
0.0
0
LINE
8
FRONT
10
0.141191
20
0.981697
30
0.0
11
0.171545
21
0.959874
31
0.0
0
LINE
8
FRONT
10
0.171545
20
0.959874
30
0.0
11
0.203921
21
0.941182
31
0.0
0
LINE
8
FRONT
10
0.203921
20
0.941182
30
0.0
11
0.237997
21
0.925806
31
0.0
0
LINE
8
FRONT
10
0.237997
20
0.925806
30
0.0
11
0.273435
21
0.913899
31
0.0
0
LINE
8
FRONT
10
0.273435
20
0.913899
30
0.0
11
0.309882
21
0.905581
31
0.0
0
LINE
8
FRONT
10
0.309882
20
0.905581
30
0.0
11
0.346976
21
0.900932
31
0.0
0
LINE
8
FRONT
10
0.346976
20
0.900932
30
0.0
11
0.384349
21
0.900000
31
0.0
0
LINE
8
FRONT
10
0.384349
20
0.900000
30
0.0
11
0.421629
21
0.902794
31
0.0
0
LINE
8
FRONT
10
0.421629
20
0.902794
30
0.0
11
0.458445
21
0.909285
31
0.0
0
LINE
8
FRONT
10
0.458445
20
0.909285
30
0.0
11
0.494432
21
0.919411
31
0.0
0
LINE
8
FRONT
10
0.494432
20
0.919411
30
0.0
11
0.529233
21
0.933069
31
0.0
0
LINE
8
FRONT
10
0.529233
20
0.933069
30
0.0
11
0.562500
21
0.950124
31
0.0
0
LINE
8
FRONT
10
0.562500
20
0.950124
30
0.0
11
0.593904
21
0.970407
31
0.0
0
LINE
8
FRONT
10
0.593904
20
0.970407
30
0.0
11
0.623132
21
0.993715
31
0.0
0
LINE
8
FRONT
10
0.623132
20
0.993715
30
0.0
11
0.649894
21
1.019819
31
0.0
0
LINE
8
FRONT
10
0.649894
20
1.019819
30
0.0
11
0.673925
21
1.048457
31
0.0
0
LINE
8
FRONT
10
0.673925
20
1.048457
30
0.0
11
0.694984
21
1.079345
31
0.0
0
LINE
8
FRONT
10
0.694984
20
1.079345
30
0.0
11
0.712863
21
1.112177
31
0.0
0
LINE
8
FRONT
10
0.712863
20
1.112177
30
0.0
11
0.727385
21
1.146626
31
0.0
0
LINE
8
FRONT
10
0.727385
20
1.146626
30
0.0
11
0.738404
21
1.182349
31
0.0
0
LINE
8
FRONT
10
0.738404
20
1.182349
30
0.0
11
0.745812
21
1.218993
31
0.0
0
LINE
8
FRONT
10
0.745812
20
1.218993
30
0.0
11
0.749534
21
1.256191
31
0.0
0
LINE
8
FRONT
10
0.749534
20
1.256191
30
0.0
11
0.749534
21
1.293576
31
0.0
0
LINE
8
FRONT
10
0.749534
20
1.293576
30
0.0
11
0.745812
21
1.330774
31
0.0
0
LINE
8
FRONT
10
0.745812
20
1.330774
30
0.0
11
0.738404
21
1.367417
31
0.0
0
LINE
8
FRONT
10
0.738404
20
1.367417
30
0.0
11
0.727385
21
1.403141
31
0.0
0
LINE
8
FRONT
10
0.727385
20
1.403141
30
0.0
11
0.712863
21
1.437590
31
0.0
0
LINE
8
FRONT
10
0.712863
20
1.437590
30
0.0
11
0.694984
21
1.470422
31
0.0
0
LINE
8
FRONT
10
0.694984
20
1.470422
30
0.0
11
0.673925
21
1.501310
31
0.0
0
LINE
8
FRONT
10
0.673925
20
1.501310
30
0.0
11
0.649894
21
1.529948
31
0.0
0
LINE
8
FRONT
10
0.649894
20
1.529948
30
0.0
11
0.623132
21
1.556051
31
0.0
0
LINE
8
FRONT
10
0.623132
20
1.556051
30
0.0
11
0.593904
21
1.579360
31
0.0
0
LINE
8
FRONT
10
0.593904
20
1.579360
30
0.0
11
0.562500
21
1.599643
31
0.0
0
LINE
8
FRONT
10
0.562500
20
1.599643
30
0.0
11
0.529233
21
1.616698
31
0.0
0
LINE
8
FRONT
10
0.529233
20
1.616698
30
0.0
11
0.494432
21
1.630356
31
0.0
0
LINE
8
FRONT
10
0.494432
20
1.630356
30
0.0
11
0.458445
21
1.640481
31
0.0
0
LINE
8
FRONT
10
0.458445
20
1.640481
30
0.0
11
0.421629
21
1.646973
31
0.0
0
LINE
8
FRONT
10
0.421629
20
1.646973
30
0.0
11
0.384349
21
1.649767
31
0.0
0
LINE
8
FRONT
10
0.384349
20
1.649767
30
0.0
11
0.346976
21
1.648835
31
0.0
0
LINE
8
FRONT
10
0.346976
20
1.648835
30
0.0
11
0.309882
21
1.644186
31
0.0
0
LINE
8
FRONT
10
0.309882
20
1.644186
30
0.0
11
0.273435
21
1.635868
31
0.0
0
LINE
8
FRONT
10
0.273435
20
1.635868
30
0.0
11
0.237997
21
1.623961
31
0.0
0
LINE
8
FRONT
10
0.237997
20
1.623961
30
0.0
11
0.203921
21
1.608585
31
0.0
0
LINE
8
FRONT
10
0.203921
20
1.608585
30
0.0
11
0.171545
21
1.589893
31
0.0
0
LINE
8
FRONT
10
0.171545
20
1.589893
30
0.0
11
0.141191
21
1.568070
31
0.0
0
LINE
8
FRONT
10
0.141191
20
1.568070
30
0.0
11
0.113161
21
1.543334
31
0.0
0
LINE
8
FRONT
10
0.113161
20
1.543334
30
0.0
11
0.087733
21
1.515929
31
0.0
0
LINE
8
FRONT
10
0.087733
20
1.515929
30
0.0
11
0.065160
21
1.486128
31
0.0
0
LINE
8
FRONT
10
0.065160
20
1.486128
30
0.0
11
0.045667
21
1.454229
31
0.0
0
LINE
8
FRONT
10
0.045667
20
1.454229
30
0.0
11
0.029446
21
1.420546
31
0.0
0
LINE
8
FRONT
10
0.029446
20
1.420546
30
0.0
11
0.016660
21
1.385417
31
0.0
0
LINE
8
FRONT
10
0.016660
20
1.385417
30
0.0
11
0.007435
21
1.349188
31
0.0
0
LINE
8
FRONT
10
0.007435
20
1.349188
30
0.0
11
0.001863
21
1.312221
31
0.0
0
LINE
8
FRONT
10
0.001863
20
1.312221
30
0.0
11
0.000000
21
1.274883
31
0.0
0
LINE
8
FRONT
10
0.250500
20
1.274883
30
0.0
11
0.251119
21
1.262487
31
0.0
0
LINE
8
FRONT
10
0.251119
20
1.262487
30
0.0
11
0.252969
21
1.250214
31
0.0
0
LINE
8
FRONT
10
0.252969
20
1.250214
30
0.0
11
0.256031
21
1.238186
31
0.0
0
LINE
8
FRONT
10
0.256031
20
1.238186
30
0.0
11
0.260276
21
1.226523
31
0.0
0
LINE
8
FRONT
10
0.260276
20
1.226523
30
0.0
11
0.265661
21
1.215341
31
0.0
0
LINE
8
FRONT
10
0.265661
20
1.215341
30
0.0
11
0.272133
21
1.204750
31
0.0
0
LINE
8
FRONT
10
0.272133
20
1.204750
30
0.0
11
0.279627
21
1.194856
31
0.0
0
LINE
8
FRONT
10
0.279627
20
1.194856
30
0.0
11
0.288070
21
1.185758
31
0.0
0
LINE
8
FRONT
10
0.288070
20
1.185758
30
0.0
11
0.297376
21
1.177545
31
0.0
0
LINE
8
FRONT
10
0.297376
20
1.177545
30
0.0
11
0.307453
21
1.170300
31
0.0
0
LINE
8
FRONT
10
0.307453
20
1.170300
30
0.0
11
0.318202
21
1.164094
31
0.0
0
LINE
8
FRONT
10
0.318202
20
1.164094
30
0.0
11
0.329515
21
1.158990
31
0.0
0
LINE
8
FRONT
10
0.329515
20
1.158990
30
0.0
11
0.341280
21
1.155037
31
0.0
0
LINE
8
FRONT
10
0.341280
20
1.155037
30
0.0
11
0.353381
21
1.152275
31
0.0
0
LINE
8
FRONT
10
0.353381
20
1.152275
30
0.0
11
0.365696
21
1.150732
31
0.0
0
LINE
8
FRONT
10
0.365696
20
1.150732
30
0.0
11
0.378104
21
1.150422
31
0.0
0
LINE
8
FRONT
10
0.378104
20
1.150422
30
0.0
11
0.390481
21
1.151350
31
0.0
0
LINE
8
FRONT
10
0.390481
20
1.151350
30
0.0
11
0.402704
21
1.153505
31
0.0
0
LINE
8
FRONT
10
0.402704
20
1.153505
30
0.0
11
0.414652
21
1.156866
31
0.0
0
LINE
8
FRONT
10
0.414652
20
1.156866
30
0.0
11
0.426205
21
1.161401
31
0.0
0
LINE
8
FRONT
10
0.426205
20
1.161401
30
0.0
11
0.437250
21
1.167063
31
0.0
0
LINE
8
FRONT
10
0.437250
20
1.167063
30
0.0
11
0.447676
21
1.173797
31
0.0
0
LINE
8
FRONT
10
0.447676
20
1.173797
30
0.0
11
0.457380
21
1.181536
31
0.0
0
LINE
8
FRONT
10
0.457380
20
1.181536
30
0.0
11
0.466265
21
1.190202
31
0.0
0
LINE
8
FRONT
10
0.466265
20
1.190202
30
0.0
11
0.474243
21
1.199710
31
0.0
0
LINE
8
FRONT
10
0.474243
20
1.199710
30
0.0
11
0.481235
21
1.209965
31
0.0
0
LINE
8
FRONT
10
0.481235
20
1.209965
30
0.0
11
0.487171
21
1.220865
31
0.0
0
LINE
8
FRONT
10
0.487171
20
1.220865
30
0.0
11
0.491992
21
1.232302
31
0.0
0
LINE
8
FRONT
10
0.491992
20
1.232302
30
0.0
11
0.495650
21
1.244162
31
0.0
0
LINE
8
FRONT
10
0.495650
20
1.244162
30
0.0
11
0.498109
21
1.256328
31
0.0
0
LINE
8
FRONT
10
0.498109
20
1.256328
30
0.0
11
0.499345
21
1.268678
31
0.0
0
LINE
8
FRONT
10
0.499345
20
1.268678
30
0.0
11
0.499345
21
1.281089
31
0.0
0
LINE
8
FRONT
10
0.499345
20
1.281089
30
0.0
11
0.498109
21
1.293439
31
0.0
0
LINE
8
FRONT
10
0.498109
20
1.293439
30
0.0
11
0.495650
21
1.305605
31
0.0
0
LINE
8
FRONT
10
0.495650
20
1.305605
30
0.0
11
0.491992
21
1.317465
31
0.0
0
LINE
8
FRONT
10
0.491992
20
1.317465
30
0.0
11
0.487171
21
1.328902
31
0.0
0
LINE
8
FRONT
10
0.487171
20
1.328902
30
0.0
11
0.481235
21
1.339802
31
0.0
0
LINE
8
FRONT
10
0.481235
20
1.339802
30
0.0
11
0.474243
21
1.350057
31
0.0
0
LINE
8
FRONT
10
0.474243
20
1.350057
30
0.0
11
0.466265
21
1.359565
31
0.0
0
LINE
8
FRONT
10
0.466265
20
1.359565
30
0.0
11
0.457380
21
1.368231
31
0.0
0
LINE
8
FRONT
10
0.457380
20
1.368231
30
0.0
11
0.447676
21
1.375970
31
0.0
0
LINE
8
FRONT
10
0.447676
20
1.375970
30
0.0
11
0.437250
21
1.382704
31
0.0
0
LINE
8
FRONT
10
0.437250
20
1.382704
30
0.0
11
0.426205
21
1.388366
31
0.0
0
LINE
8
FRONT
10
0.426205
20
1.388366
30
0.0
11
0.414652
21
1.392900
31
0.0
0
LINE
8
FRONT
10
0.414652
20
1.392900
30
0.0
11
0.402704
21
1.396262
31
0.0
0
LINE
8
FRONT
10
0.402704
20
1.396262
30
0.0
11
0.390481
21
1.398417
31
0.0
0
LINE
8
FRONT
10
0.390481
20
1.398417
30
0.0
11
0.378104
21
1.399345
31
0.0
0
LINE
8
FRONT
10
0.378104
20
1.399345
30
0.0
11
0.365696
21
1.399035
31
0.0
0
LINE
8
FRONT
10
0.365696
20
1.399035
30
0.0
11
0.353381
21
1.397492
31
0.0
0
LINE
8
FRONT
10
0.353381
20
1.397492
30
0.0
11
0.341280
21
1.394730
31
0.0
0
LINE
8
FRONT
10
0.341280
20
1.394730
30
0.0
11
0.329515
21
1.390777
31
0.0
0
LINE
8
FRONT
10
0.329515
20
1.390777
30
0.0
11
0.318202
21
1.385672
31
0.0
0
LINE
8
FRONT
10
0.318202
20
1.385672
30
0.0
11
0.307453
21
1.379467
31
0.0
0
LINE
8
FRONT
10
0.307453
20
1.379467
30
0.0
11
0.297376
21
1.372221
31
0.0
0
LINE
8
FRONT
10
0.297376
20
1.372221
30
0.0
11
0.288070
21
1.364009
31
0.0
0
LINE
8
FRONT
10
0.288070
20
1.364009
30
0.0
11
0.279627
21
1.354911
31
0.0
0
LINE
8
FRONT
10
0.279627
20
1.354911
30
0.0
11
0.272133
21
1.345017
31
0.0
0
LINE
8
FRONT
10
0.272133
20
1.345017
30
0.0
11
0.265661
21
1.334426
31
0.0
0
LINE
8
FRONT
10
0.265661
20
1.334426
30
0.0
11
0.260276
21
1.323244
31
0.0
0
LINE
8
FRONT
10
0.260276
20
1.323244
30
0.0
11
0.256031
21
1.311580
31
0.0
0
LINE
8
FRONT
10
0.256031
20
1.311580
30
0.0
11
0.252969
21
1.299553
31
0.0
0
LINE
8
FRONT
10
0.252969
20
1.299553
30
0.0
11
0.251119
21
1.287280
31
0.0
0
LINE
8
FRONT
10
0.251119
20
1.287280
30
0.0
11
0.250500
21
1.274883
31
0.0
0
LINE
8
LEFT
10
0.899534
20
1.275000
30
0.0
11
0.899534
21
0.900000
31
0.0
0
LINE
8
LEFT
10
0.899534
20
1.650000
30
0.0
11
0.899534
21
1.275000
31
0.0
0
LINE
8
LEFT
10
1.649534
20
1.275000
30
0.0
11
1.649534
21
0.900000
31
0.0
0
LINE
8
LEFT
10
1.649534
20
1.650000
30
0.0
11
1.649534
21
1.275000
31
0.0
0
LINE
8
LEFT
10
1.649534
20
1.650000
30
0.0
11
0.899534
21
1.650000
31
0.0
0
LINE
8
LEFT
10
1.649534
20
0.900000
30
0.0
11
0.899534
21
0.900000
31
0.0
0
LINE
8
LEFT_HID
6
HIDDEN
10
0.899534
20
0.900000
30
0.0
11
0.899534
21
1.650000
31
0.0
0
LINE
8
LEFT_HID
6
HIDDEN
10
1.649534
20
0.900000
30
0.0
11
1.649534
21
1.650000
31
0.0
0
LINE
8
LEFT_HID
6
HIDDEN
10
0.899534
20
1.275000
30
0.0
11
0.899534
21
1.150500
31
0.0
0
LINE
8
LEFT_HID
6
HIDDEN
10
0.899534
20
1.150500
30
0.0
11
0.899534
21
1.399500
31
0.0
0
LINE
8
LEFT_HID
6
HIDDEN
10
0.899534
20
1.399500
30
0.0
11
0.899534
21
1.275000
31
0.0
0
LINE
8
LEFT_HID
6
HIDDEN
10
1.649534
20
1.275000
30
0.0
11
1.649534
21
1.150500
31
0.0
0
LINE
8
LEFT_HID
6
HIDDEN
10
1.649534
20
1.150500
30
0.0
11
1.649534
21
1.399500
31
0.0
0
LINE
8
LEFT_HID
6
HIDDEN
10
1.649534
20
1.399500
30
0.0
11
1.649534
21
1.275000
31
0.0
0
LINE
8
LEFT_HID
6
HIDDEN
10
1.649534
20
1.399500
30
0.0
11
0.899534
21
1.399500
31
0.0
0
LINE
8
LEFT_HID
6
HIDDEN
10
1.649534
20
1.150500
30
0.0
11
0.899534
21
1.150500
31
0.0
0
LINE
8
TOP
10
0.750000
20
0.750000
30
0.0
11
0.000000
21
0.750000
31
0.0
0
LINE
8
TOP
10
0.000000
20
0.750000
30
0.0
11
0.000000
21
0.000000
31
0.0
0
LINE
8
TOP
10
0.750000
20
0.000000
30
0.0
11
0.000000
21
0.000000
31
0.0
0
LINE
8
TOP
10
0.750000
20
0.000000
30
0.0
11
0.750000
21
0.750000
31
0.0
0
LINE
8
TOP_HID
6
HIDDEN
10
0.250500
20
0.750000
30
0.0
11
0.499500
21
0.750000
31
0.0
0
LINE
8
TOP_HID
6
HIDDEN
10
0.499500
20
0.750000
30
0.0
11
0.250500
21
0.750000
31
0.0
0
LINE
8
TOP_HID
6
HIDDEN
10
0.250500
20
0.750000
30
0.0
11
0.250500
21
0.000000
31
0.0
0
LINE
8
TOP_HID
6
HIDDEN
10
0.250500
20
0.000000
30
0.0
11
0.499500
21
0.000000
31
0.0
0
LINE
8
TOP_HID
6
HIDDEN
10
0.499500
20
0.000000
30
0.0
11
0.250500
21
0.000000
31
0.0
0
LINE
8
TOP_HID
6
HIDDEN
10
0.499500
20
0.000000
30
0.0
11
0.499500
21
0.750000
31
0.0
0
ENDSEC
0
EOF
