0
SECTION
2
HEADER
9
$ACADVER
1
AC1009
0
ENDSEC
0
SECTION
2
TABLES
0
TABLE
2
LTYPE
70
3
0
LTYPE
2
CONTINUOUS
70
0
3
Solid line
72
65
73
0
40
0.0
0
LTYPE
2
HIDDEN
70
0
3
__ __ __ __ __
72
65
73
2
40
0.057302
49
0.038220
49
-0.019081
0
LTYPE
2
CENTER
70
0
3
___ _ ___ _ ___
72
65
73
4
40
0.133685
49
0.076383
49
-0.019081
49
0.019081
49
-0.019081
0
ENDTAB
0
TABLE
2
LAYER
70
6
0
LAYER
2
0
70
0
62
7
6
CONTINUOUS
0
LAYER
2
FRONT
70
0
62
7
6
CONTINUOUS
0
LAYER
2
FRONT_HID
70
0
62
7
6
HIDDEN
0
LAYER
2
LEFT
70
0
62
7
6
CONTINUOUS
0
LAYER
2
LEFT_HID
70
0
62
7
6
HIDDEN
0
LAYER
2
TOP
70
0
62
7
6
CONTINUOUS
0
ENDTAB
0
ENDSEC
0
SECTION
2
ENTITIES
0
LINE
8
FRONT
10
0.700604
20
1.183650
30
0.0
11
0.000000
21
1.183650
31
0.0
0
LINE
8
FRONT
10
0.700604
20
1.021077
30
0.0
11
0.700604
21
1.183650
31
0.0
0
LINE
8
FRONT
10
0.700604
20
1.021077
30
0.0
11
0.000000
21
1.021077
31
0.0
0
LINE
8
FRONT
10
1.146035
20
1.021077
30
0.0
11
1.146035
21
1.183650
31
0.0
0
LINE
8
FRONT
10
1.146035
20
1.183650
30
0.0
11
0.700604
21
1.183650
31
0.0
0
LINE
8
FRONT
10
1.146035
20
1.021077
30
0.0
11
0.700604
21
1.021077
31
0.0
0
LINE
8
FRONT
10
0.000000
20
1.183650
30
0.0
11
0.000000
21
1.021077
31
0.0
0
LINE
8
FRONT_HID
6
HIDDEN
10
0.792070
20
1.021077
30
0.0
11
0.700604
21
1.021077
31
0.0
0
LINE
8
FRONT_HID
6
HIDDEN
10
0.700604
20
1.021077
30
0.0
11
0.792070
21
1.021077
31
0.0
0
LINE
8
FRONT_HID
6
HIDDEN
10
0.792070
20
1.183650
30
0.0
11
0.700604
21
1.183650
31
0.0
0
LINE
8
FRONT_HID
6
HIDDEN
10
0.700604
20
1.183650
30
0.0
11
0.792070
21
1.183650
31
0.0
0
LINE
8
FRONT_HID
6
HIDDEN
10
0.984624
20
1.021077
30
0.0
11
0.862014
21
1.021077
31
0.0
0
LINE
8
FRONT_HID
6
HIDDEN
10
0.862014
20
1.021077
30
0.0
11
0.984624
21
1.021077
31
0.0
0
LINE
8
FRONT_HID
6
HIDDEN
10
0.984624
20
1.183650
30
0.0
11
0.862014
21
1.183650
31
0.0
0
LINE
8
FRONT_HID
6
HIDDEN
10
0.862014
20
1.183650
30
0.0
11
0.984624
21
1.183650
31
0.0
0
LINE
8
FRONT_HID
6
HIDDEN
10
0.984624
20
1.021077
30
0.0
11
0.984624
21
1.183650
31
0.0
0
LINE
8
FRONT_HID
6
HIDDEN
10
0.862014
20
1.183650
30
0.0
11
0.862014
21
1.021077
31
0.0
0
LINE
8
LEFT
10
1.375242
20
1.183650
30
0.0
11
2.167311
21
1.183650
31
0.0
0
LINE
8
LEFT
10
1.375242
20
1.021077
30
0.0
11
2.167311
21
1.021077
31
0.0
0
LINE
8
LEFT
10
1.375242
20
1.183650
30
0.0
11
1.375242
21
1.021077
31
0.0
0
LINE
8
LEFT
10
2.167311
20
1.183650
30
0.0
11
2.167311
21
1.021077
31
0.0
0
LINE
8
LEFT_HID
6
HIDDEN
10
2.024420
20
1.021077
30
0.0
11
2.024420
21
1.183650
31
0.0
0
LINE
8
LEFT_HID
6
HIDDEN
10
1.518134
20
1.183650
30
0.0
11
1.375242
21
1.183650
31
0.0
0
LINE
8
LEFT_HID
6
HIDDEN
10
2.167311
20
1.183650
30
0.0
11
2.024420
21
1.183650
31
0.0
0
LINE
8
LEFT_HID
6
HIDDEN
10
1.518134
20
1.021077
30
0.0
11
1.518134
21
1.183650
31
0.0
0
LINE
8
LEFT_HID
6
HIDDEN
10
1.518134
20
1.021077
30
0.0
11
1.375242
21
1.021077
31
0.0
0
LINE
8
LEFT_HID
6
HIDDEN
10
2.167311
20
1.021077
30
0.0
11
2.024420
21
1.021077
31
0.0
0
LINE
8
LEFT_HID
6
HIDDEN
10
1.771277
20
1.021077
30
0.0
11
1.518134
21
1.021077
31
0.0
0
LINE
8
LEFT_HID
6
HIDDEN
10
2.024420
20
1.021077
30
0.0
11
1.771277
21
1.021077
31
0.0
0
LINE
8
LEFT_HID
6
HIDDEN
10
2.024420
20
1.021077
30
0.0
11
2.024420
21
1.183650
31
0.0
0
LINE
8
LEFT_HID
6
HIDDEN
10
1.771277
20
1.183650
30
0.0
11
1.518134
21
1.183650
31
0.0
0
LINE
8
LEFT_HID
6
HIDDEN
10
2.024420
20
1.183650
30
0.0
11
1.771277
21
1.183650
31
0.0
0
LINE
8
LEFT_HID
6
HIDDEN
10
1.518134
20
1.021077
30
0.0
11
1.518134
21
1.183650
31
0.0
0
LINE
8
LEFT_HID
6
HIDDEN
10
2.024420
20
1.021077
30
0.0
11
1.518134
21
1.021077
31
0.0
0
LINE
8
LEFT_HID
6
HIDDEN
10
1.771277
20
1.021077
30
0.0
11
1.709972
21
1.021077
31
0.0
0
LINE
8
LEFT_HID
6
HIDDEN
10
1.709972
20
1.021077
30
0.0
11
1.832581
21
1.021077
31
0.0
0
LINE
8
LEFT_HID
6
HIDDEN
10
1.832581
20
1.021077
30
0.0
11
1.771277
21
1.021077
31
0.0
0
LINE
8
LEFT_HID
6
HIDDEN
10
2.024420
20
1.183650
30
0.0
11
1.518134
21
1.183650
31
0.0
0
LINE
8
LEFT_HID
6
HIDDEN
10
1.771277
20
1.183650
30
0.0
11
1.709972
21
1.183650
31
0.0
0
LINE
8
LEFT_HID
6
HIDDEN
10
1.709972
20
1.183650
30
0.0
11
1.832581
21
1.183650
31
0.0
0
LINE
8
LEFT_HID
6
HIDDEN
10
1.832581
20
1.183650
30
0.0
11
1.771277
21
1.183650
31
0.0
0
LINE
8
LEFT_HID
6
HIDDEN
10
1.709972
20
1.183650
30
0.0
11
1.709972
21
1.021077
31
0.0
0
LINE
8
LEFT_HID
6
HIDDEN
10
1.832581
20
1.183650
30
0.0
11
1.832581
21
1.021077
31
0.0
0
LINE
8
TOP
10
0.700305
20
0.649078
30
0.0
11
0.679731
21
0.671961
31
0.0
0
LINE
8
TOP
10
0.679731
20
0.671961
30
0.0
11
0.657443
21
0.693177
31
0.0
0
LINE
8
TOP
10
0.657443
20
0.693177
30
0.0
11
0.633575
21
0.712599
31
0.0
0
LINE
8
TOP
10
0.633575
20
0.712599
30
0.0
11
0.608271
21
0.730109
31
0.0
0
LINE
8
TOP
10
0.608271
20
0.730109
30
0.0
11
0.581684
21
0.745602
31
0.0
0
LINE
8
TOP
10
0.581684
20
0.745602
30
0.0
11
0.553974
21
0.758983
31
0.0
0
LINE
8
TOP
10
0.553974
20
0.758983
30
0.0
11
0.525309
21
0.770173
31
0.0
0
LINE
8
TOP
10
0.525309
20
0.770173
30
0.0
11
0.495862
21
0.779104
31
0.0
0
LINE
8
TOP
10
0.495862
20
0.779104
30
0.0
11
0.465810
21
0.785721
31
0.0
0
LINE
8
TOP
10
0.465810
20
0.785721
30
0.0
11
0.435336
21
0.789985
31
0.0
0
LINE
8
TOP
10
0.435336
20
0.789985
30
0.0
11
0.404622
21
0.791870
31
0.0
0
LINE
8
TOP
10
0.404622
20
0.791870
30
0.0
11
0.373854
21
0.791365
31
0.0
0
LINE
8
TOP
10
0.373854
20
0.791365
30
0.0
11
0.343219
21
0.788472
31
0.0
0
LINE
8
TOP
10
0.343219
20
0.788472
30
0.0
11
0.312901
21
0.783210
31
0.0
0
LINE
8
TOP
10
0.312901
20
0.783210
30
0.0
11
0.283083
21
0.775610
31
0.0
0
LINE
8
TOP
10
0.283083
20
0.775610
30
0.0
11
0.253944
21
0.765717
31
0.0
0
LINE
8
TOP
10
0.253944
20
0.765717
30
0.0
11
0.225662
21
0.753592
31
0.0
0
LINE
8
TOP
10
0.225662
20
0.753592
30
0.0
11
0.198407
21
0.739308
31
0.0
0
LINE
8
TOP
10
0.198407
20
0.739308
30
0.0
11
0.172343
21
0.722951
31
0.0
0
LINE
8
TOP
10
0.172343
20
0.722951
30
0.0
11
0.147628
21
0.704619
31
0.0
0
LINE
8
TOP
10
0.147628
20
0.704619
30
0.0
11
0.124410
21
0.684424
31
0.0
0
LINE
8
TOP
10
0.124410
20
0.684424
30
0.0
11
0.102831
21
0.662487
31
0.0
0
LINE
8
TOP
10
0.102831
20
0.662487
30
0.0
11
0.083020
21
0.638941
31
0.0
0
LINE
8
TOP
10
0.083020
20
0.638941
30
0.0
11
0.065096
21
0.613928
31
0.0
0
LINE
8
TOP
10
0.065096
20
0.613928
30
0.0
11
0.049169
21
0.587599
31
0.0
0
LINE
8
TOP
10
0.049169
20
0.587599
30
0.0
11
0.035335
21
0.560113
31
0.0
0
LINE
8
TOP
10
0.035335
20
0.560113
30
0.0
11
0.023676
21
0.531636
31
0.0
0
LINE
8
TOP
10
0.023676
20
0.531636
30
0.0
11
0.014263
21
0.502339
31
0.0
0
LINE
8
TOP
10
0.014263
20
0.502339
30
0.0
11
0.007153
21
0.472400
31
0.0
0
LINE
8
TOP
10
0.007153
20
0.472400
30
0.0
11
0.002389
21
0.442000
31
0.0
0
LINE
8
TOP
10
0.002389
20
0.442000
30
0.0
11
0.000000
21
0.411321
31
0.0
0
LINE
8
TOP
10
0.000000
20
0.411321
30
0.0
11
0.000000
21
0.380549
31
0.0
0
LINE
8
TOP
10
0.000000
20
0.380549
30
0.0
11
0.002389
21
0.349871
31
0.0
0
LINE
8
TOP
10
0.002389
20
0.349871
30
0.0
11
0.007153
21
0.319470
31
0.0
0
LINE
8
TOP
10
0.007153
20
0.319470
30
0.0
11
0.014263
21
0.289531
31
0.0
0
LINE
8
TOP
10
0.014263
20
0.289531
30
0.0
11
0.023676
21
0.260234
31
0.0
0
LINE
8
TOP
10
0.023676
20
0.260234
30
0.0
11
0.035335
21
0.231757
31
0.0
0
LINE
8
TOP
10
0.035335
20
0.231757
30
0.0
11
0.049169
21
0.204271
31
0.0
0
LINE
8
TOP
10
0.049169
20
0.204271
30
0.0
11
0.065096
21
0.177942
31
0.0
0
LINE
8
TOP
10
0.065096
20
0.177942
30
0.0
11
0.083020
21
0.152929
31
0.0
0
LINE
8
TOP
10
0.083020
20
0.152929
30
0.0
11
0.102831
21
0.129383
31
0.0
0
LINE
8
TOP
10
0.102831
20
0.129383
30
0.0
11
0.124410
21
0.107446
31
0.0
0
LINE
8
TOP
10
0.124410
20
0.107446
30
0.0
11
0.147628
21
0.087251
31
0.0
0
LINE
8
TOP
10
0.147628
20
0.087251
30
0.0
11
0.172343
21
0.068919
31
0.0
0
LINE
8
TOP
10
0.172343
20
0.068919
30
0.0
11
0.198407
21
0.052562
31
0.0
0
LINE
8
TOP
10
0.198407
20
0.052562
30
0.0
11
0.225662
21
0.038278
31
0.0
0
LINE
8
TOP
10
0.225662
20
0.038278
30
0.0
11
0.253944
21
0.026153
31
0.0
0
LINE
8
TOP
10
0.253944
20
0.026153
30
0.0
11
0.283083
21
0.016260
31
0.0
0
LINE
8
TOP
10
0.283083
20
0.016260
30
0.0
11
0.312901
21
0.008660
31
0.0
0
LINE
8
TOP
10
0.312901
20
0.008660
30
0.0
11
0.343219
21
0.003398
31
0.0
0
LINE
8
TOP
10
0.343219
20
0.003398
30
0.0
11
0.373854
21
0.000505
31
0.0
0
LINE
8
TOP
10
0.373854
20
0.000505
30
0.0
11
0.404622
21
0.000000
31
0.0
0
LINE
8
TOP
10
0.404622
20
0.000000
30
0.0
11
0.435336
21
0.001885
31
0.0
0
LINE
8
TOP
10
0.435336
20
0.001885
30
0.0
11
0.465810
21
0.006149
31
0.0
0
LINE
8
TOP
10
0.465810
20
0.006149
30
0.0
11
0.495862
21
0.012766
31
0.0
0
LINE
8
TOP
10
0.495862
20
0.012766
30
0.0
11
0.525309
21
0.021697
31
0.0
0
LINE
8
TOP
10
0.525309
20
0.021697
30
0.0
11
0.553974
21
0.032887
31
0.0
0
LINE
8
TOP
10
0.553974
20
0.032887
30
0.0
11
0.581684
21
0.046268
31
0.0
0
LINE
8
TOP
10
0.581684
20
0.046268
30
0.0
11
0.608271
21
0.061761
31
0.0
0
LINE
8
TOP
10
0.608271
20
0.061761
30
0.0
11
0.633575
21
0.079271
31
0.0
0
LINE
8
TOP
10
0.633575
20
0.079271
30
0.0
11
0.657443
21
0.098693
31
0.0
0
LINE
8
TOP
10
0.657443
20
0.098693
30
0.0
11
0.679731
21
0.119909
31
0.0
0
LINE
8
TOP
10
0.679731
20
0.119909
30
0.0
11
0.700305
21
0.142792
31
0.0
0
LINE
8
TOP
10
0.700305
20
0.142792
30
0.0
11
1.145736
21
0.142792
31
0.0
0
LINE
8
TOP
10
1.145736
20
0.649078
30
0.0
11
0.700305
21
0.649078
31
0.0
0
LINE
8
TOP
10
1.145736
20
0.142792
30
0.0
11
1.145736
21
0.649078
31
0.0
0
LINE
8
TOP
10
0.984325
20
0.395935
30
0.0
11
0.984020
21
0.402039
31
0.0
0
LINE
8
TOP
10
0.984020
20
0.402039
30
0.0
11
0.983109
21
0.408082
31
0.0
0
LINE
8
TOP
10
0.983109
20
0.408082
30
0.0
11
0.981601
21
0.414005
31
0.0
0
LINE
8
TOP
10
0.981601
20
0.414005
30
0.0
11
0.979511
21
0.419748
31
0.0
0
LINE
8
TOP
10
0.979511
20
0.419748
30
0.0
11
0.976859
21
0.425254
31
0.0
0
LINE
8
TOP
10
0.976859
20
0.425254
30
0.0
11
0.973673
21
0.430469
31
0.0
0
LINE
8
TOP
10
0.973673
20
0.430469
30
0.0
11
0.969982
21
0.435341
31
0.0
0
LINE
8
TOP
10
0.969982
20
0.435341
30
0.0
11
0.965825
21
0.439821
31
0.0
0
LINE
8
TOP
10
0.965825
20
0.439821
30
0.0
11
0.961243
21
0.443865
31
0.0
0
LINE
8
TOP
10
0.961243
20
0.443865
30
0.0
11
0.956281
21
0.447433
31
0.0
0
LINE
8
TOP
10
0.956281
20
0.447433
30
0.0
11
0.950988
21
0.450488
31
0.0
0
LINE
8
TOP
10
0.950988
20
0.450488
30
0.0
11
0.945417
21
0.453002
31
0.0
0
LINE
8
TOP
10
0.945417
20
0.453002
30
0.0
11
0.939624
21
0.454948
31
0.0
0
LINE
8
TOP
10
0.939624
20
0.454948
30
0.0
11
0.933666
21
0.456308
31
0.0
0
LINE
8
TOP
10
0.933666
20
0.456308
30
0.0
11
0.927602
21
0.457068
31
0.0
0
LINE
8
TOP
10
0.927602
20
0.457068
30
0.0
11
0.921492
21
0.457221
31
0.0
0
LINE
8
TOP
10
0.921492
20
0.457221
30
0.0
11
0.915397
21
0.456764
31
0.0
0
LINE
8
TOP
10
0.915397
20
0.456764
30
0.0
11
0.909379
21
0.455703
31
0.0
0
LINE
8
TOP
10
0.909379
20
0.455703
30
0.0
11
0.903495
21
0.454048
31
0.0
0
LINE
8
TOP
10
0.903495
20
0.454048
30
0.0
11
0.897806
21
0.451815
31
0.0
0
LINE
8
TOP
10
0.897806
20
0.451815
30
0.0
11
0.892368
21
0.449027
31
0.0
0
LINE
8
TOP
10
0.892368
20
0.449027
30
0.0
11
0.887234
21
0.445711
31
0.0
0
LINE
8
TOP
10
0.887234
20
0.445711
30
0.0
11
0.882456
21
0.441900
31
0.0
0
LINE
8
TOP
10
0.882456
20
0.441900
30
0.0
11
0.878081
21
0.437633
31
0.0
0
LINE
8
TOP
10
0.878081
20
0.437633
30
0.0
11
0.874152
21
0.432951
31
0.0
0
LINE
8
TOP
10
0.874152
20
0.432951
30
0.0
11
0.870709
21
0.427902
31
0.0
0
LINE
8
TOP
10
0.870709
20
0.427902
30
0.0
11
0.867787
21
0.422534
31
0.0
0
LINE
8
TOP
10
0.867787
20
0.422534
30
0.0
11
0.865413
21
0.416903
31
0.0
0
LINE
8
TOP
10
0.865413
20
0.416903
30
0.0
11
0.863611
21
0.411062
31
0.0
0
LINE
8
TOP
10
0.863611
20
0.411062
30
0.0
11
0.862400
21
0.405072
31
0.0
0
LINE
8
TOP
10
0.862400
20
0.405072
30
0.0
11
0.861792
21
0.398991
31
0.0
0
LINE
8
TOP
10
0.861792
20
0.398991
30
0.0
11
0.861792
21
0.392879
31
0.0
0
LINE
8
TOP
10
0.861792
20
0.392879
30
0.0
11
0.862400
21
0.386798
31
0.0
0
LINE
8
TOP
10
0.862400
20
0.386798
30
0.0
11
0.863611
21
0.380808
31
0.0
0
LINE
8
TOP
10
0.863611
20
0.380808
30
0.0
11
0.865413
21
0.374968
31
0.0
0
LINE
8
TOP
10
0.865413
20
0.374968
30
0.0
11
0.867787
21
0.369336
31
0.0
0
LINE
8
TOP
10
0.867787
20
0.369336
30
0.0
11
0.870709
21
0.363969
31
0.0
0
LINE
8
TOP
10
0.870709
20
0.363969
30
0.0
11
0.874152
21
0.358919
31
0.0
0
LINE
8
TOP
10
0.874152
20
0.358919
30
0.0
11
0.878081
21
0.354237
31
0.0
0
LINE
8
TOP
10
0.878081
20
0.354237
30
0.0
11
0.882456
21
0.349970
31
0.0
0
LINE
8
TOP
10
0.882456
20
0.349970
30
0.0
11
0.887234
21
0.346159
31
0.0
0
LINE
8
TOP
10
0.887234
20
0.346159
30
0.0
11
0.892368
21
0.342844
31
0.0
0
LINE
8
TOP
10
0.892368
20
0.342844
30
0.0
11
0.897806
21
0.340055
31
0.0
0
LINE
8
TOP
10
0.897806
20
0.340055
30
0.0
11
0.903495
21
0.337823
31
0.0
0
LINE
8
TOP
10
0.903495
20
0.337823
30
0.0
11
0.909379
21
0.336167
31
0.0
0
LINE
8
TOP
10
0.909379
20
0.336167
30
0.0
11
0.915397
21
0.335106
31
0.0
0
LINE
8
TOP
10
0.915397
20
0.335106
30
0.0
11
0.921492
21
0.334649
31
0.0
0
LINE
8
TOP
10
0.921492
20
0.334649
30
0.0
11
0.927602
21
0.334802
31
0.0
0
LINE
8
TOP
10
0.927602
20
0.334802
30
0.0
11
0.933666
21
0.335562
31
0.0
0
LINE
8
TOP
10
0.933666
20
0.335562
30
0.0
11
0.939624
21
0.336922
31
0.0
0
LINE
8
TOP
10
0.939624
20
0.336922
30
0.0
11
0.945417
21
0.338868
31
0.0
0
LINE
8
TOP
10
0.945417
20
0.338868
30
0.0
11
0.950988
21
0.341382
31
0.0
0
LINE
8
TOP
10
0.950988
20
0.341382
30
0.0
11
0.956281
21
0.344437
31
0.0
0
LINE
8
TOP
10
0.956281
20
0.344437
30
0.0
11
0.961243
21
0.348005
31
0.0
0
LINE
8
TOP
10
0.961243
20
0.348005
30
0.0
11
0.965825
21
0.352049
31
0.0
0
LINE
8
TOP
10
0.965825
20
0.352049
30
0.0
11
0.969982
21
0.356529
31
0.0
0
LINE
8
TOP
10
0.969982
20
0.356529
30
0.0
11
0.973673
21
0.361401
31
0.0
0
LINE
8
TOP
10
0.973673
20
0.361401
30
0.0
11
0.976859
21
0.366616
31
0.0
0
LINE
8
TOP
10
0.976859
20
0.366616
30
0.0
11
0.979511
21
0.372122
31
0.0
0
LINE
8
TOP
10
0.979511
20
0.372122
30
0.0
11
0.981601
21
0.377865
31
0.0
0
LINE
8
TOP
10
0.981601
20
0.377865
30
0.0
11
0.983109
21
0.383788
31
0.0
0
LINE
8
TOP
10
0.983109
20
0.383788
30
0.0
11
0.984020
21
0.389831
31
0.0
0
LINE
8
TOP
10
0.984020
20
0.389831
30
0.0
11
0.984325
21
0.395935
31
0.0
0
ENDSEC
0
EOF
