0
SECTION
2
HEADER
9
$ACADVER
1
AC1009
0
ENDSEC
0
SECTION
2
TABLES
0
TABLE
2
LTYPE
70
3
0
LTYPE
2
CONTINUOUS
70
0
3
Solid line
72
65
73
0
40
0.0
0
LTYPE
2
HIDDEN
70
0
3
__ __ __ __ __
72
65
73
2
40
0.059443
49
0.039648
49
-0.019794
0
LTYPE
2
CENTER
70
0
3
___ _ ___ _ ___
72
65
73
4
40
0.138680
49
0.079237
49
-0.019794
49
0.019794
49
-0.019794
0
ENDTAB
0
TABLE
2
LAYER
70
6
0
LAYER
2
0
70
0
62
7
6
CONTINUOUS
0
LAYER
2
FRONT
70
0
62
7
6
CONTINUOUS
0
LAYER
2
LEFT
70
0
62
7
6
CONTINUOUS
0
LAYER
2
LEFT_HID
70
0
62
7
6
HIDDEN
0
LAYER
2
TOP
70
0
62
7
6
CONTINUOUS
0
LAYER
2
TOP_HID
70
0
62
7
6
HIDDEN
0
ENDTAB
0
ENDSEC
0
SECTION
2
ENTITIES
0
LINE
8
FRONT
10
0.000000
20
1.596360
30
0.0
11
0.150401
21
0.767964
31
0.0
0
LINE
8
FRONT
10
1.164402
20
1.596360
30
0.0
11
0.000000
21
1.596360
31
0.0
0
LINE
8
FRONT
10
0.150401
20
0.767964
30
0.0
11
0.154283
21
0.748976
31
0.0
0
LINE
8
FRONT
10
0.154283
20
0.748976
30
0.0
11
0.159000
21
0.730179
31
0.0
0
LINE
8
FRONT
10
0.159000
20
0.730179
30
0.0
11
0.164542
21
0.711607
31
0.0
0
LINE
8
FRONT
10
0.164542
20
0.711607
30
0.0
11
0.170899
21
0.693299
31
0.0
0
LINE
8
FRONT
10
0.170899
20
0.693299
30
0.0
11
0.178058
21
0.675289
31
0.0
0
LINE
8
FRONT
10
0.178058
20
0.675289
30
0.0
11
0.186005
21
0.657613
31
0.0
0
LINE
8
FRONT
10
0.186005
20
0.657613
30
0.0
11
0.194725
21
0.640304
31
0.0
0
LINE
8
FRONT
10
0.194725
20
0.640304
30
0.0
11
0.204200
21
0.623398
31
0.0
0
LINE
8
FRONT
10
0.204200
20
0.623398
30
0.0
11
0.214413
21
0.606926
31
0.0
0
LINE
8
FRONT
10
0.214413
20
0.606926
30
0.0
11
0.225342
21
0.590922
31
0.0
0
LINE
8
FRONT
10
0.225342
20
0.590922
30
0.0
11
0.236968
21
0.575415
31
0.0
0
LINE
8
FRONT
10
0.236968
20
0.575415
30
0.0
11
0.249267
21
0.560437
31
0.0
0
LINE
8
FRONT
10
0.249267
20
0.560437
30
0.0
11
0.262215
21
0.546017
31
0.0
0
LINE
8
FRONT
10
0.262215
20
0.546017
30
0.0
11
0.275788
21
0.532182
31
0.0
0
LINE
8
FRONT
10
0.275788
20
0.532182
30
0.0
11
0.289958
21
0.518960
31
0.0
0
LINE
8
FRONT
10
0.289958
20
0.518960
30
0.0
11
0.304698
21
0.506377
31
0.0
0
LINE
8
FRONT
10
0.304698
20
0.506377
30
0.0
11
0.319979
21
0.494456
31
0.0
0
LINE
8
FRONT
10
0.319979
20
0.494456
30
0.0
11
0.335771
21
0.483222
31
0.0
0
LINE
8
FRONT
10
0.335771
20
0.483222
30
0.0
11
0.352044
21
0.472696
31
0.0
0
LINE
8
FRONT
10
0.352044
20
0.472696
30
0.0
11
0.368766
21
0.462899
31
0.0
0
LINE
8
FRONT
10
0.368766
20
0.462899
30
0.0
11
0.385904
21
0.453850
31
0.0
0
LINE
8
FRONT
10
0.385904
20
0.453850
30
0.0
11
0.403425
21
0.445566
31
0.0
0
LINE
8
FRONT
10
0.403425
20
0.445566
30
0.0
11
0.421295
21
0.438064
31
0.0
0
LINE
8
FRONT
10
0.421295
20
0.438064
30
0.0
11
0.439478
21
0.431358
31
0.0
0
LINE
8
FRONT
10
0.439478
20
0.431358
30
0.0
11
0.457940
21
0.425461
31
0.0
0
LINE
8
FRONT
10
0.457940
20
0.425461
30
0.0
11
0.476644
21
0.420385
31
0.0
0
LINE
8
FRONT
10
0.476644
20
0.420385
30
0.0
11
0.495554
21
0.416140
31
0.0
0
LINE
8
FRONT
10
0.495554
20
0.416140
30
0.0
11
0.514633
21
0.412734
31
0.0
0
LINE
8
FRONT
10
0.514633
20
0.412734
30
0.0
11
0.533844
21
0.410174
31
0.0
0
LINE
8
FRONT
10
0.533844
20
0.410174
30
0.0
11
0.553149
21
0.408464
31
0.0
0
LINE
8
FRONT
10
0.553149
20
0.408464
30
0.0
11
0.572511
21
0.407609
31
0.0
0
LINE
8
FRONT
10
0.572511
20
0.407609
30
0.0
11
0.591891
21
0.407609
31
0.0
0
LINE
8
FRONT
10
0.591891
20
0.407609
30
0.0
11
0.611253
21
0.408464
31
0.0
0
LINE
8
FRONT
10
0.611253
20
0.408464
30
0.0
11
0.630558
21
0.410174
31
0.0
0
LINE
8
FRONT
10
0.630558
20
0.410174
30
0.0
11
0.649769
21
0.412734
31
0.0
0
LINE
8
FRONT
10
0.649769
20
0.412734
30
0.0
11
0.668848
21
0.416140
31
0.0
0
LINE
8
FRONT
10
0.668848
20
0.416140
30
0.0
11
0.687758
21
0.420385
31
0.0
0
LINE
8
FRONT
10
0.687758
20
0.420385
30
0.0
11
0.706462
21
0.425461
31
0.0
0
LINE
8
FRONT
10
0.706462
20
0.425461
30
0.0
11
0.724924
21
0.431358
31
0.0
0
LINE
8
FRONT
10
0.724924
20
0.431358
30
0.0
11
0.743107
21
0.438064
31
0.0
0
LINE
8
FRONT
10
0.743107
20
0.438064
30
0.0
11
0.760977
21
0.445566
31
0.0
0
LINE
8
FRONT
10
0.760977
20
0.445566
30
0.0
11
0.778498
21
0.453850
31
0.0
0
LINE
8
FRONT
10
0.778498
20
0.453850
30
0.0
11
0.795636
21
0.462899
31
0.0
0
LINE
8
FRONT
10
0.795636
20
0.462899
30
0.0
11
0.812358
21
0.472696
31
0.0
0
LINE
8
FRONT
10
0.812358
20
0.472696
30
0.0
11
0.828631
21
0.483222
31
0.0
0
LINE
8
FRONT
10
0.828631
20
0.483222
30
0.0
11
0.844423
21
0.494456
31
0.0
0
LINE
8
FRONT
10
0.844423
20
0.494456
30
0.0
11
0.859705
21
0.506377
31
0.0
0
LINE
8
FRONT
10
0.859705
20
0.506377
30
0.0
11
0.874444
21
0.518960
31
0.0
0
LINE
8
FRONT
10
0.874444
20
0.518960
30
0.0
11
0.888614
21
0.532182
31
0.0
0
LINE
8
FRONT
10
0.888614
20
0.532182
30
0.0
11
0.902187
21
0.546017
31
0.0
0
LINE
8
FRONT
10
0.902187
20
0.546017
30
0.0
11
0.915135
21
0.560437
31
0.0
0
LINE
8
FRONT
10
0.915135
20
0.560437
30
0.0
11
0.927434
21
0.575415
31
0.0
0
LINE
8
FRONT
10
0.927434
20
0.575415
30
0.0
11
0.939060
21
0.590922
31
0.0
0
LINE
8
FRONT
10
0.939060
20
0.590922
30
0.0
11
0.949990
21
0.606926
31
0.0
0
LINE
8
FRONT
10
0.949990
20
0.606926
30
0.0
11
0.960202
21
0.623398
31
0.0
0
LINE
8
FRONT
10
0.960202
20
0.623398
30
0.0
11
0.969677
21
0.640304
31
0.0
0
LINE
8
FRONT
10
0.969677
20
0.640304
30
0.0
11
0.978397
21
0.657613
31
0.0
0
LINE
8
FRONT
10
0.978397
20
0.657613
30
0.0
11
0.986344
21
0.675289
31
0.0
0
LINE
8
FRONT
10
0.986344
20
0.675289
30
0.0
11
0.993503
21
0.693299
31
0.0
0
LINE
8
FRONT
10
0.993503
20
0.693299
30
0.0
11
0.999860
21
0.711607
31
0.0
0
LINE
8
FRONT
10
0.999860
20
0.711607
30
0.0
11
1.005402
21
0.730179
31
0.0
0
LINE
8
FRONT
10
1.005402
20
0.730179
30
0.0
11
1.010119
21
0.748976
31
0.0
0
LINE
8
FRONT
10
1.010119
20
0.748976
30
0.0
11
1.014001
21
0.767964
31
0.0
0
LINE
8
FRONT
10
1.014001
20
0.767964
30
0.0
11
1.164402
21
1.596360
31
0.0
0
LINE
8
FRONT
10
0.391304
20
0.846360
30
0.0
11
0.392253
21
0.827353
31
0.0
0
LINE
8
FRONT
10
0.392253
20
0.827353
30
0.0
11
0.395089
21
0.808535
31
0.0
0
LINE
8
FRONT
10
0.395089
20
0.808535
30
0.0
11
0.399785
21
0.790093
31
0.0
0
LINE
8
FRONT
10
0.399785
20
0.790093
30
0.0
11
0.406294
21
0.772209
31
0.0
0
LINE
8
FRONT
10
0.406294
20
0.772209
30
0.0
11
0.414551
21
0.755063
31
0.0
0
LINE
8
FRONT
10
0.414551
20
0.755063
30
0.0
11
0.424475
21
0.738824
31
0.0
0
LINE
8
FRONT
10
0.424475
20
0.738824
30
0.0
11
0.435966
21
0.723654
31
0.0
0
LINE
8
FRONT
10
0.435966
20
0.723654
30
0.0
11
0.448910
21
0.709704
31
0.0
0
LINE
8
FRONT
10
0.448910
20
0.709704
30
0.0
11
0.463179
21
0.697111
31
0.0
0
LINE
8
FRONT
10
0.463179
20
0.697111
30
0.0
11
0.478631
21
0.686002
31
0.0
0
LINE
8
FRONT
10
0.478631
20
0.686002
30
0.0
11
0.495112
21
0.676487
31
0.0
0
LINE
8
FRONT
10
0.495112
20
0.676487
30
0.0
11
0.512459
21
0.668660
31
0.0
0
LINE
8
FRONT
10
0.512459
20
0.668660
30
0.0
11
0.530499
21
0.662599
31
0.0
0
LINE
8
FRONT
10
0.530499
20
0.662599
30
0.0
11
0.549052
21
0.658364
31
0.0
0
LINE
8
FRONT
10
0.549052
20
0.658364
30
0.0
11
0.567935
21
0.655997
31
0.0
0
LINE
8
FRONT
10
0.567935
20
0.655997
30
0.0
11
0.586960
21
0.655523
31
0.0
0
LINE
8
FRONT
10
0.586960
20
0.655523
30
0.0
11
0.605938
21
0.656945
31
0.0
0
LINE
8
FRONT
10
0.605938
20
0.656945
30
0.0
11
0.624680
21
0.660250
31
0.0
0
LINE
8
FRONT
10
0.624680
20
0.660250
30
0.0
11
0.642999
21
0.665404
31
0.0
0
LINE
8
FRONT
10
0.642999
20
0.665404
30
0.0
11
0.660714
21
0.672357
31
0.0
0
LINE
8
FRONT
10
0.660714
20
0.672357
30
0.0
11
0.677649
21
0.681039
31
0.0
0
LINE
8
FRONT
10
0.677649
20
0.681039
30
0.0
11
0.693636
21
0.691364
31
0.0
0
LINE
8
FRONT
10
0.693636
20
0.691364
30
0.0
11
0.708515
21
0.703230
31
0.0
0
LINE
8
FRONT
10
0.708515
20
0.703230
30
0.0
11
0.722138
21
0.716518
31
0.0
0
LINE
8
FRONT
10
0.722138
20
0.716518
30
0.0
11
0.734371
21
0.731096
31
0.0
0
LINE
8
FRONT
10
0.734371
20
0.731096
30
0.0
11
0.745092
21
0.746820
31
0.0
0
LINE
8
FRONT
10
0.745092
20
0.746820
30
0.0
11
0.754193
21
0.763533
31
0.0
0
LINE
8
FRONT
10
0.754193
20
0.763533
30
0.0
11
0.761585
21
0.781070
31
0.0
0
LINE
8
FRONT
10
0.761585
20
0.781070
30
0.0
11
0.767195
21
0.799255
31
0.0
0
LINE
8
FRONT
10
0.767195
20
0.799255
30
0.0
11
0.770966
21
0.817909
31
0.0
0
LINE
8
FRONT
10
0.770966
20
0.817909
30
0.0
11
0.772861
21
0.836845
31
0.0
0
LINE
8
FRONT
10
0.772861
20
0.836845
30
0.0
11
0.772861
21
0.855876
31
0.0
0
LINE
8
FRONT
10
0.772861
20
0.855876
30
0.0
11
0.770966
21
0.874812
31
0.0
0
LINE
8
FRONT
10
0.770966
20
0.874812
30
0.0
11
0.767195
21
0.893466
31
0.0
0
LINE
8
FRONT
10
0.767195
20
0.893466
30
0.0
11
0.761585
21
0.911651
31
0.0
0
LINE
8
FRONT
10
0.761585
20
0.911651
30
0.0
11
0.754193
21
0.929187
31
0.0
0
LINE
8
FRONT
10
0.754193
20
0.929187
30
0.0
11
0.745092
21
0.945901
31
0.0
0
LINE
8
FRONT
10
0.745092
20
0.945901
30
0.0
11
0.734371
21
0.961625
31
0.0
0
LINE
8
FRONT
10
0.734371
20
0.961625
30
0.0
11
0.722138
21
0.976203
31
0.0
0
LINE
8
FRONT
10
0.722138
20
0.976203
30
0.0
11
0.708515
21
0.989491
31
0.0
0
LINE
8
FRONT
10
0.708515
20
0.989491
30
0.0
11
0.693636
21
1.001357
31
0.0
0
LINE
8
FRONT
10
0.693636
20
1.001357
30
0.0
11
0.677649
21
1.011682
31
0.0
0
LINE
8
FRONT
10
0.677649
20
1.011682
30
0.0
11
0.660714
21
1.020364
31
0.0
0
LINE
8
FRONT
10
0.660714
20
1.020364
30
0.0
11
0.642999
21
1.027317
31
0.0
0
LINE
8
FRONT
10
0.642999
20
1.027317
30
0.0
11
0.624680
21
1.032471
31
0.0
0
LINE
8
FRONT
10
0.624680
20
1.032471
30
0.0
11
0.605938
21
1.035776
31
0.0
0
LINE
8
FRONT
10
0.605938
20
1.035776
30
0.0
11
0.586960
21
1.037198
31
0.0
0
LINE
8
FRONT
10
0.586960
20
1.037198
30
0.0
11
0.567935
21
1.036723
31
0.0
0
LINE
8
FRONT
10
0.567935
20
1.036723
30
0.0
11
0.549052
21
1.034357
31
0.0
0
LINE
8
FRONT
10
0.549052
20
1.034357
30
0.0
11
0.530499
21
1.030122
31
0.0
0
LINE
8
FRONT
10
0.530499
20
1.030122
30
0.0
11
0.512459
21
1.024061
31
0.0
0
LINE
8
FRONT
10
0.512459
20
1.024061
30
0.0
11
0.495112
21
1.016234
31
0.0
0
LINE
8
FRONT
10
0.495112
20
1.016234
30
0.0
11
0.478631
21
1.006719
31
0.0
0
LINE
8
FRONT
10
0.478631
20
1.006719
30
0.0
11
0.463179
21
0.995609
31
0.0
0
LINE
8
FRONT
10
0.463179
20
0.995609
30
0.0
11
0.448910
21
0.983017
31
0.0
0
LINE
8
FRONT
10
0.448910
20
0.983017
30
0.0
11
0.435966
21
0.969066
31
0.0
0
LINE
8
FRONT
10
0.435966
20
0.969066
30
0.0
11
0.424475
21
0.953896
31
0.0
0
LINE
8
FRONT
10
0.424475
20
0.953896
30
0.0
11
0.414551
21
0.937658
31
0.0
0
LINE
8
FRONT
10
0.414551
20
0.937658
30
0.0
11
0.406294
21
0.920511
31
0.0
0
LINE
8
FRONT
10
0.406294
20
0.920511
30
0.0
11
0.399785
21
0.902628
31
0.0
0
LINE
8
FRONT
10
0.399785
20
0.902628
30
0.0
11
0.395089
21
0.884186
31
0.0
0
LINE
8
FRONT
10
0.395089
20
0.884186
30
0.0
11
0.392253
21
0.865368
31
0.0
0
LINE
8
FRONT
10
0.392253
20
0.865368
30
0.0
11
0.391304
21
0.846360
31
0.0
0
LINE
8
LEFT
10
1.487092
20
1.596467
30
0.0
11
1.572011
21
1.596467
31
0.0
0
LINE
8
LEFT
10
1.572011
20
1.596467
30
0.0
11
1.572011
21
0.768071
31
0.0
0
LINE
8
LEFT
10
1.572011
20
0.768071
30
0.0
11
1.572011
21
0.407609
31
0.0
0
LINE
8
LEFT
10
1.487092
20
1.596467
30
0.0
11
1.402174
21
1.596467
31
0.0
0
LINE
8
LEFT
10
1.402174
20
1.596467
30
0.0
11
1.402174
21
0.768071
31
0.0
0
LINE
8
LEFT
10
1.402174
20
0.768071
30
0.0
11
1.402174
21
0.407609
31
0.0
0
LINE
8
LEFT
10
1.487092
20
0.768071
30
0.0
11
1.572011
21
0.768071
31
0.0
0
LINE
8
LEFT
10
1.487092
20
0.768071
30
0.0
11
1.402174
21
0.768071
31
0.0
0
LINE
8
LEFT
10
1.572011
20
0.407609
30
0.0
11
1.487092
21
0.407609
31
0.0
0
LINE
8
LEFT
10
1.402174
20
0.407609
30
0.0
11
1.487092
21
0.407609
31
0.0
0
LINE
8
LEFT_HID
6
HIDDEN
10
1.572011
20
0.846467
30
0.0
11
1.572011
21
0.655571
31
0.0
0
LINE
8
LEFT_HID
6
HIDDEN
10
1.572011
20
0.655571
30
0.0
11
1.572011
21
1.037364
31
0.0
0
LINE
8
LEFT_HID
6
HIDDEN
10
1.572011
20
1.037364
30
0.0
11
1.572011
21
0.846467
31
0.0
0
LINE
8
LEFT_HID
6
HIDDEN
10
1.402174
20
0.846467
30
0.0
11
1.402174
21
0.655571
31
0.0
0
LINE
8
LEFT_HID
6
HIDDEN
10
1.402174
20
0.655571
30
0.0
11
1.402174
21
1.037364
31
0.0
0
LINE
8
LEFT_HID
6
HIDDEN
10
1.402174
20
1.037364
30
0.0
11
1.402174
21
0.846467
31
0.0
0
LINE
8
LEFT_HID
6
HIDDEN
10
1.572011
20
1.037364
30
0.0
11
1.487092
21
1.037364
31
0.0
0
LINE
8
LEFT_HID
6
HIDDEN
10
1.572011
20
0.655571
30
0.0
11
1.487092
21
0.655571
31
0.0
0
LINE
8
LEFT_HID
6
HIDDEN
10
1.402174
20
0.655571
30
0.0
11
1.487092
21
0.655571
31
0.0
0
LINE
8
LEFT_HID
6
HIDDEN
10
1.402174
20
1.037364
30
0.0
11
1.487092
21
1.037364
31
0.0
0
LINE
8
TOP
10
0.000000
20
0.084918
30
0.0
11
0.000000
21
0.000000
31
0.0
0
LINE
8
TOP
10
1.164402
20
0.084918
30
0.0
11
1.164402
21
0.000000
31
0.0
0
LINE
8
TOP
10
1.164402
20
0.000000
30
0.0
11
0.000000
21
0.000000
31
0.0
0
LINE
8
TOP
10
0.000000
20
0.084918
30
0.0
11
0.000000
21
0.169837
31
0.0
0
LINE
8
TOP
10
1.164402
20
0.084918
30
0.0
11
1.164402
21
0.169837
31
0.0
0
LINE
8
TOP
10
1.164402
20
0.169837
30
0.0
11
0.000000
21
0.169837
31
0.0
0
LINE
8
TOP_HID
6
HIDDEN
10
0.000000
20
0.000000
30
0.0
11
0.150401
21
0.000000
31
0.0
0
LINE
8
TOP_HID
6
HIDDEN
10
0.150401
20
0.000000
30
0.0
11
1.014001
21
0.000000
31
0.0
0
LINE
8
TOP_HID
6
HIDDEN
10
0.000000
20
0.169837
30
0.0
11
0.150401
21
0.169837
31
0.0
0
LINE
8
TOP_HID
6
HIDDEN
10
1.014001
20
0.000000
30
0.0
11
1.164402
21
0.000000
31
0.0
0
LINE
8
TOP_HID
6
HIDDEN
10
0.391304
20
0.000000
30
0.0
11
0.773098
21
0.000000
31
0.0
0
LINE
8
TOP_HID
6
HIDDEN
10
0.773098
20
0.000000
30
0.0
11
0.391304
21
0.000000
31
0.0
0
LINE
8
TOP_HID
6
HIDDEN
10
0.150401
20
0.169837
30
0.0
11
1.014001
21
0.169837
31
0.0
0
LINE
8
TOP_HID
6
HIDDEN
10
1.014001
20
0.169837
30
0.0
11
1.164402
21
0.169837
31
0.0
0
LINE
8
TOP_HID
6
HIDDEN
10
0.391304
20
0.169837
30
0.0
11
0.773098
21
0.169837
31
0.0
0
LINE
8
TOP_HID
6
HIDDEN
10
0.773098
20
0.169837
30
0.0
11
0.391304
21
0.169837
31
0.0
0
LINE
8
TOP_HID
6
HIDDEN
10
0.391304
20
0.084918
30
0.0
11
0.391304
21
0.000000
31
0.0
0
LINE
8
TOP_HID
6
HIDDEN
10
0.391304
20
0.084918
30
0.0
11
0.391304
21
0.169837
31
0.0
0
LINE
8
TOP_HID
6
HIDDEN
10
0.150401
20
0.084918
30
0.0
11
0.150401
21
0.000000
31
0.0
0
LINE
8
TOP_HID
6
HIDDEN
10
1.014001
20
0.084918
30
0.0
11
1.014001
21
0.000000
31
0.0
0
LINE
8
TOP_HID
6
HIDDEN
10
0.150401
20
0.084918
30
0.0
11
0.150401
21
0.169837
31
0.0
0
LINE
8
TOP_HID
6
HIDDEN
10
1.014001
20
0.084918
30
0.0
11
1.014001
21
0.169837
31
0.0
0
LINE
8
TOP_HID
6
HIDDEN
10
0.773098
20
0.000000
30
0.0
11
0.773098
21
0.084918
31
0.0
0
LINE
8
TOP_HID
6
HIDDEN
10
0.773098
20
0.169837
30
0.0
11
0.773098
21
0.084918
31
0.0
0
ENDSEC
0
EOF
