0
SECTION
2
HEADER
9
$ACADVER
1
AC1009
0
ENDSEC
0
SECTION
2
TABLES
0
TABLE
2
LTYPE
70
3
0
LTYPE
2
CONTINUOUS
70
0
3
Solid line
72
65
73
0
40
0.0
0
LTYPE
2
HIDDEN
70
0
3
__ __ __ __ __
72
65
73
2
40
0.075000
49
0.050025
49
-0.024975
0
LTYPE
2
CENTER
70
0
3
___ _ ___ _ ___
72
65
73
4
40
0.174975
49
0.099975
49
-0.024975
49
0.024975
49
-0.024975
0
ENDTAB
0
TABLE
2
LAYER
70
6
0
LAYER
2
0
70
0
62
7
6
CONTINUOUS
0
LAYER
2
FRONT
70
0
62
7
6
CONTINUOUS
0
LAYER
2
LEFT
70
0
62
7
6
CONTINUOUS
0
LAYER
2
LEFT_HID
70
0
62
7
6
HIDDEN
0
LAYER
2
TOP
70
0
62
7
6
CONTINUOUS
0
LAYER
2
TOP_HID
70
0
62
7
6
HIDDEN
0
ENDTAB
0
ENDSEC
0
SECTION
2
ENTITIES
0
LINE
8
FRONT
10
0.000000
20
0.709091
30
0.0
11
0.340909
21
0.709091
31
0.0
0
LINE
8
FRONT
10
0.000000
20
1.800000
30
0.0
11
0.000000
21
0.709091
31
0.0
0
LINE
8
FRONT
10
0.340909
20
0.709091
30
0.0
11
0.340909
21
0.504545
31
0.0
0
LINE
8
FRONT
10
1.022727
20
0.709091
30
0.0
11
1.363636
21
0.709091
31
0.0
0
LINE
8
FRONT
10
1.363636
20
0.709091
30
0.0
11
1.363636
21
1.800000
31
0.0
0
LINE
8
FRONT
10
1.363636
20
1.800000
30
0.0
11
1.022727
21
1.800000
31
0.0
0
LINE
8
FRONT
10
0.340909
20
1.800000
30
0.0
11
0.000000
21
1.800000
31
0.0
0
LINE
8
FRONT
10
0.562500
20
1.254545
30
0.0
11
0.563093
21
1.242665
31
0.0
0
LINE
8
FRONT
10
0.563093
20
1.242665
30
0.0
11
0.564866
21
1.230903
31
0.0
0
LINE
8
FRONT
10
0.564866
20
1.230903
30
0.0
11
0.567801
21
1.219376
31
0.0
0
LINE
8
FRONT
10
0.567801
20
1.219376
30
0.0
11
0.571869
21
1.208198
31
0.0
0
LINE
8
FRONT
10
0.571869
20
1.208198
30
0.0
11
0.577030
21
1.197481
31
0.0
0
LINE
8
FRONT
10
0.577030
20
1.197481
30
0.0
11
0.583233
21
1.187331
31
0.0
0
LINE
8
FRONT
10
0.583233
20
1.187331
30
0.0
11
0.590415
21
1.177849
31
0.0
0
LINE
8
FRONT
10
0.590415
20
1.177849
30
0.0
11
0.598506
21
1.169130
31
0.0
0
LINE
8
FRONT
10
0.598506
20
1.169130
30
0.0
11
0.607425
21
1.161259
31
0.0
0
LINE
8
FRONT
10
0.607425
20
1.161259
30
0.0
11
0.617083
21
1.154315
31
0.0
0
LINE
8
FRONT
10
0.617083
20
1.154315
30
0.0
11
0.627384
21
1.148368
31
0.0
0
LINE
8
FRONT
10
0.627384
20
1.148368
30
0.0
11
0.638226
21
1.143475
31
0.0
0
LINE
8
FRONT
10
0.638226
20
1.143475
30
0.0
11
0.649502
21
1.139687
31
0.0
0
LINE
8
FRONT
10
0.649502
20
1.139687
30
0.0
11
0.661099
21
1.137040
31
0.0
0
LINE
8
FRONT
10
0.661099
20
1.137040
30
0.0
11
0.672902
21
1.135561
31
0.0
0
LINE
8
FRONT
10
0.672902
20
1.135561
30
0.0
11
0.684793
21
1.135264
31
0.0
0
LINE
8
FRONT
10
0.684793
20
1.135264
30
0.0
11
0.696655
21
1.136153
31
0.0
0
LINE
8
FRONT
10
0.696655
20
1.136153
30
0.0
11
0.708369
21
1.138219
31
0.0
0
LINE
8
FRONT
10
0.708369
20
1.138219
30
0.0
11
0.719819
21
1.141440
31
0.0
0
LINE
8
FRONT
10
0.719819
20
1.141440
30
0.0
11
0.730892
21
1.145786
31
0.0
0
LINE
8
FRONT
10
0.730892
20
1.145786
30
0.0
11
0.741477
21
1.151213
31
0.0
0
LINE
8
FRONT
10
0.741477
20
1.151213
30
0.0
11
0.751469
21
1.157666
31
0.0
0
LINE
8
FRONT
10
0.751469
20
1.157666
30
0.0
11
0.760769
21
1.165083
31
0.0
0
LINE
8
FRONT
10
0.760769
20
1.165083
30
0.0
11
0.769285
21
1.173388
31
0.0
0
LINE
8
FRONT
10
0.769285
20
1.173388
30
0.0
11
0.776931
21
1.182501
31
0.0
0
LINE
8
FRONT
10
0.776931
20
1.182501
30
0.0
11
0.783631
21
1.192329
31
0.0
0
LINE
8
FRONT
10
0.783631
20
1.192329
30
0.0
11
0.789320
21
1.202775
31
0.0
0
LINE
8
FRONT
10
0.789320
20
1.202775
30
0.0
11
0.793941
21
1.213736
31
0.0
0
LINE
8
FRONT
10
0.793941
20
1.213736
30
0.0
11
0.797447
21
1.225103
31
0.0
0
LINE
8
FRONT
10
0.797447
20
1.225103
30
0.0
11
0.799804
21
1.236762
31
0.0
0
LINE
8
FRONT
10
0.799804
20
1.236762
30
0.0
11
0.800988
21
1.248598
31
0.0
0
LINE
8
FRONT
10
0.800988
20
1.248598
30
0.0
11
0.800988
21
1.260493
31
0.0
0
LINE
8
FRONT
10
0.800988
20
1.260493
30
0.0
11
0.799804
21
1.272329
31
0.0
0
LINE
8
FRONT
10
0.799804
20
1.272329
30
0.0
11
0.797447
21
1.283988
31
0.0
0
LINE
8
FRONT
10
0.797447
20
1.283988
30
0.0
11
0.793941
21
1.295355
31
0.0
0
LINE
8
FRONT
10
0.793941
20
1.295355
30
0.0
11
0.789320
21
1.306316
31
0.0
0
LINE
8
FRONT
10
0.789320
20
1.306316
30
0.0
11
0.783631
21
1.316762
31
0.0
0
LINE
8
FRONT
10
0.783631
20
1.316762
30
0.0
11
0.776931
21
1.326590
31
0.0
0
LINE
8
FRONT
10
0.776931
20
1.326590
30
0.0
11
0.769285
21
1.335702
31
0.0
0
LINE
8
FRONT
10
0.769285
20
1.335702
30
0.0
11
0.760769
21
1.344008
31
0.0
0
LINE
8
FRONT
10
0.760769
20
1.344008
30
0.0
11
0.751469
21
1.351424
31
0.0
0
LINE
8
FRONT
10
0.751469
20
1.351424
30
0.0
11
0.741477
21
1.357878
31
0.0
0
LINE
8
FRONT
10
0.741477
20
1.357878
30
0.0
11
0.730892
21
1.363305
31
0.0
0
LINE
8
FRONT
10
0.730892
20
1.363305
30
0.0
11
0.719819
21
1.367650
31
0.0
0
LINE
8
FRONT
10
0.719819
20
1.367650
30
0.0
11
0.708369
21
1.370872
31
0.0
0
LINE
8
FRONT
10
0.708369
20
1.370872
30
0.0
11
0.696655
21
1.372938
31
0.0
0
LINE
8
FRONT
10
0.696655
20
1.372938
30
0.0
11
0.684793
21
1.373827
31
0.0
0
LINE
8
FRONT
10
0.684793
20
1.373827
30
0.0
11
0.672902
21
1.373530
31
0.0
0
LINE
8
FRONT
10
0.672902
20
1.373530
30
0.0
11
0.661099
21
1.372051
31
0.0
0
LINE
8
FRONT
10
0.661099
20
1.372051
30
0.0
11
0.649502
21
1.369404
31
0.0
0
LINE
8
FRONT
10
0.649502
20
1.369404
30
0.0
11
0.638226
21
1.365616
31
0.0
0
LINE
8
FRONT
10
0.638226
20
1.365616
30
0.0
11
0.627384
21
1.360723
31
0.0
0
LINE
8
FRONT
10
0.627384
20
1.360723
30
0.0
11
0.617083
21
1.354776
31
0.0
0
LINE
8
FRONT
10
0.617083
20
1.354776
30
0.0
11
0.607425
21
1.347832
31
0.0
0
LINE
8
FRONT
10
0.607425
20
1.347832
30
0.0
11
0.598506
21
1.339961
31
0.0
0
LINE
8
FRONT
10
0.598506
20
1.339961
30
0.0
11
0.590415
21
1.331242
31
0.0
0
LINE
8
FRONT
10
0.590415
20
1.331242
30
0.0
11
0.583233
21
1.321760
31
0.0
0
LINE
8
FRONT
10
0.583233
20
1.321760
30
0.0
11
0.577030
21
1.311610
31
0.0
0
LINE
8
FRONT
10
0.577030
20
1.311610
30
0.0
11
0.571869
21
1.300893
31
0.0
0
LINE
8
FRONT
10
0.571869
20
1.300893
30
0.0
11
0.567801
21
1.289715
31
0.0
0
LINE
8
FRONT
10
0.567801
20
1.289715
30
0.0
11
0.564866
21
1.278188
31
0.0
0
LINE
8
FRONT
10
0.564866
20
1.278188
30
0.0
11
0.563093
21
1.266426
31
0.0
0
LINE
8
FRONT
10
0.563093
20
1.266426
30
0.0
11
0.562500
21
1.254545
31
0.0
0
LINE
8
FRONT
10
0.340909
20
0.504545
30
0.0
11
1.022727
21
0.504545
31
0.0
0
LINE
8
FRONT
10
1.022727
20
0.504545
30
0.0
11
1.022727
21
0.709091
31
0.0
0
LINE
8
FRONT
10
1.022727
20
1.800000
30
0.0
11
1.022727
21
2.004545
31
0.0
0
LINE
8
FRONT
10
1.022727
20
2.004545
30
0.0
11
0.340909
21
2.004545
31
0.0
0
LINE
8
FRONT
10
0.340909
20
2.004545
30
0.0
11
0.340909
21
1.800000
31
0.0
0
LINE
8
LEFT
10
1.663636
20
0.709091
30
0.0
11
1.868182
21
0.709091
31
0.0
0
LINE
8
LEFT
10
1.663636
20
1.800000
30
0.0
11
1.868182
21
1.800000
31
0.0
0
LINE
8
LEFT
10
1.868182
20
1.800000
30
0.0
11
1.868182
21
0.709091
31
0.0
0
LINE
8
LEFT
10
1.663636
20
1.800000
30
0.0
11
1.663636
21
0.709091
31
0.0
0
LINE
8
LEFT
10
1.868182
20
0.709091
30
0.0
11
1.868182
21
0.504545
31
0.0
0
LINE
8
LEFT
10
1.663636
20
0.504545
30
0.0
11
1.868182
21
0.504545
31
0.0
0
LINE
8
LEFT
10
1.663636
20
0.709091
30
0.0
11
1.663636
21
0.504545
31
0.0
0
LINE
8
LEFT
10
1.663636
20
2.004545
30
0.0
11
1.663636
21
1.800000
31
0.0
0
LINE
8
LEFT
10
1.868182
20
2.004545
30
0.0
11
1.868182
21
1.800000
31
0.0
0
LINE
8
LEFT
10
1.663636
20
2.004545
30
0.0
11
1.868182
21
2.004545
31
0.0
0
LINE
8
LEFT_HID
6
HIDDEN
10
1.663636
20
1.254545
30
0.0
11
1.663636
21
1.135227
31
0.0
0
LINE
8
LEFT_HID
6
HIDDEN
10
1.663636
20
1.135227
30
0.0
11
1.663636
21
1.373864
31
0.0
0
LINE
8
LEFT_HID
6
HIDDEN
10
1.663636
20
1.373864
30
0.0
11
1.663636
21
1.254545
31
0.0
0
LINE
8
LEFT_HID
6
HIDDEN
10
1.868182
20
1.254545
30
0.0
11
1.868182
21
1.135227
31
0.0
0
LINE
8
LEFT_HID
6
HIDDEN
10
1.868182
20
1.135227
30
0.0
11
1.868182
21
1.373864
31
0.0
0
LINE
8
LEFT_HID
6
HIDDEN
10
1.868182
20
1.373864
30
0.0
11
1.868182
21
1.254545
31
0.0
0
LINE
8
LEFT_HID
6
HIDDEN
10
1.868182
20
1.373864
30
0.0
11
1.663636
21
1.373864
31
0.0
0
LINE
8
LEFT_HID
6
HIDDEN
10
1.868182
20
1.135227
30
0.0
11
1.663636
21
1.135227
31
0.0
0
LINE
8
TOP
10
0.000000
20
0.204545
30
0.0
11
0.000000
21
0.000000
31
0.0
0
LINE
8
TOP
10
1.363636
20
0.204545
30
0.0
11
1.022727
21
0.204545
31
0.0
0
LINE
8
TOP
10
0.340909
20
0.204545
30
0.0
11
0.000000
21
0.204545
31
0.0
0
LINE
8
TOP
10
1.363636
20
0.000000
30
0.0
11
1.022727
21
0.000000
31
0.0
0
LINE
8
TOP
10
0.340909
20
0.000000
30
0.0
11
0.000000
21
0.000000
31
0.0
0
LINE
8
TOP
10
1.363636
20
0.204545
30
0.0
11
1.363636
21
0.000000
31
0.0
0
LINE
8
TOP
10
1.022727
20
0.204545
30
0.0
11
0.340909
21
0.204545
31
0.0
0
LINE
8
TOP
10
1.022727
20
0.000000
30
0.0
11
0.340909
21
0.000000
31
0.0
0
LINE
8
TOP
10
0.340909
20
0.204545
30
0.0
11
0.340909
21
0.000000
31
0.0
0
LINE
8
TOP
10
1.022727
20
0.204545
30
0.0
11
1.022727
21
0.000000
31
0.0
0
LINE
8
TOP_HID
6
HIDDEN
10
0.562500
20
0.204545
30
0.0
11
0.801136
21
0.204545
31
0.0
0
LINE
8
TOP_HID
6
HIDDEN
10
0.801136
20
0.204545
30
0.0
11
0.562500
21
0.204545
31
0.0
0
LINE
8
TOP_HID
6
HIDDEN
10
0.562500
20
0.000000
30
0.0
11
0.801136
21
0.000000
31
0.0
0
LINE
8
TOP_HID
6
HIDDEN
10
0.801136
20
0.000000
30
0.0
11
0.562500
21
0.000000
31
0.0
0
LINE
8
TOP_HID
6
HIDDEN
10
0.562500
20
0.204545
30
0.0
11
0.562500
21
0.000000
31
0.0
0
LINE
8
TOP_HID
6
HIDDEN
10
0.801136
20
0.000000
30
0.0
11
0.801136
21
0.204545
31
0.0
0
ENDSEC
0
EOF
