0
SECTION
2
HEADER
9
$ACADVER
1
AC1009
0
ENDSEC
0
SECTION
2
TABLES
0
TABLE
2
LTYPE
70
3
0
LTYPE
2
CONTINUOUS
70
0
3
Solid line
72
65
73
0
40
0.0
0
LTYPE
2
HIDDEN
70
0
3
__ __ __ __ __
72
65
73
2
40
0.037500
49
0.025013
49
-0.012488
0
LTYPE
2
CENTER
70
0
3
___ _ ___ _ ___
72
65
73
4
40
0.087488
49
0.049988
49
-0.012488
49
0.012488
49
-0.012488
0
ENDTAB
0
TABLE
2
LAYER
70
5
0
LAYER
2
0
70
0
62
7
6
CONTINUOUS
0
LAYER
2
FRONT
70
0
62
7
6
CONTINUOUS
0
LAYER
2
LEFT
70
0
62
7
6
CONTINUOUS
0
LAYER
2
LEFT_HID
70
0
62
7
6
HIDDEN
0
LAYER
2
TOP
70
0
62
7
6
CONTINUOUS
0
ENDTAB
0
ENDSEC
0
SECTION
2
ENTITIES
0
LINE
8
FRONT
10
0.013193
20
0.163188
30
0.0
11
0.000000
21
0.163188
31
0.0
0
LINE
8
FRONT
10
0.013193
20
0.163188
30
0.0
11
0.013193
21
0.913188
31
0.0
0
LINE
8
FRONT
10
0.013193
20
0.913188
30
0.0
11
0.000000
21
0.913188
31
0.0
0
LINE
8
FRONT
10
0.000000
20
0.913188
30
0.0
11
0.000000
21
0.163188
31
0.0
0
LINE
8
LEFT
10
0.163193
20
0.163188
30
0.0
11
0.176385
21
0.163188
31
0.0
0
LINE
8
LEFT
10
0.163193
20
0.913188
30
0.0
11
0.176385
21
0.913188
31
0.0
0
LINE
8
LEFT
10
0.163193
20
0.913188
30
0.0
11
0.163193
21
0.163188
31
0.0
0
LINE
8
LEFT
10
0.176385
20
0.913188
30
0.0
11
0.176385
21
0.163188
31
0.0
0
LINE
8
LEFT_HID
6
HIDDEN
10
0.169789
20
0.163188
30
0.0
11
0.163193
21
0.163188
31
0.0
0
LINE
8
LEFT_HID
6
HIDDEN
10
0.176385
20
0.163188
30
0.0
11
0.169789
21
0.163188
31
0.0
0
LINE
8
LEFT_HID
6
HIDDEN
10
0.169789
20
0.913188
30
0.0
11
0.163193
21
0.913188
31
0.0
0
LINE
8
LEFT_HID
6
HIDDEN
10
0.176385
20
0.913188
30
0.0
11
0.169789
21
0.913188
31
0.0
0
LINE
8
TOP
10
0.013184
20
0.006594
30
0.0
11
0.013152
21
0.007251
31
0.0
0
LINE
8
TOP
10
0.013152
20
0.007251
30
0.0
11
0.013054
21
0.007901
31
0.0
0
LINE
8
TOP
10
0.013054
20
0.007901
30
0.0
11
0.012891
21
0.008539
31
0.0
0
LINE
8
TOP
10
0.012891
20
0.008539
30
0.0
11
0.012666
21
0.009156
31
0.0
0
LINE
8
TOP
10
0.012666
20
0.009156
30
0.0
11
0.012381
21
0.009749
31
0.0
0
LINE
8
TOP
10
0.012381
20
0.009749
30
0.0
11
0.012038
21
0.010310
31
0.0
0
LINE
8
TOP
10
0.012038
20
0.010310
30
0.0
11
0.011641
21
0.010834
31
0.0
0
LINE
8
TOP
10
0.011641
20
0.010834
30
0.0
11
0.011194
21
0.011316
31
0.0
0
LINE
8
TOP
10
0.011194
20
0.011316
30
0.0
11
0.010701
21
0.011751
31
0.0
0
LINE
8
TOP
10
0.010701
20
0.011751
30
0.0
11
0.010167
21
0.012135
31
0.0
0
LINE
8
TOP
10
0.010167
20
0.012135
30
0.0
11
0.009597
21
0.012464
31
0.0
0
LINE
8
TOP
10
0.009597
20
0.012464
30
0.0
11
0.008998
21
0.012735
31
0.0
0
LINE
8
TOP
10
0.008998
20
0.012735
30
0.0
11
0.008375
21
0.012944
31
0.0
0
LINE
8
TOP
10
0.008375
20
0.012944
30
0.0
11
0.007734
21
0.013090
31
0.0
0
LINE
8
TOP
10
0.007734
20
0.013090
30
0.0
11
0.007081
21
0.013172
31
0.0
0
LINE
8
TOP
10
0.007081
20
0.013172
30
0.0
11
0.006424
21
0.013188
31
0.0
0
LINE
8
TOP
10
0.006424
20
0.013188
30
0.0
11
0.005768
21
0.013139
31
0.0
0
LINE
8
TOP
10
0.005768
20
0.013139
30
0.0
11
0.005120
21
0.013025
31
0.0
0
LINE
8
TOP
10
0.005120
20
0.013025
30
0.0
11
0.004487
21
0.012847
31
0.0
0
LINE
8
TOP
10
0.004487
20
0.012847
30
0.0
11
0.003875
21
0.012607
31
0.0
0
LINE
8
TOP
10
0.003875
20
0.012607
30
0.0
11
0.003290
21
0.012307
31
0.0
0
LINE
8
TOP
10
0.003290
20
0.012307
30
0.0
11
0.002738
21
0.011950
31
0.0
0
LINE
8
TOP
10
0.002738
20
0.011950
30
0.0
11
0.002223
21
0.011540
31
0.0
0
LINE
8
TOP
10
0.002223
20
0.011540
30
0.0
11
0.001753
21
0.011081
31
0.0
0
LINE
8
TOP
10
0.001753
20
0.011081
30
0.0
11
0.001330
21
0.010577
31
0.0
0
LINE
8
TOP
10
0.001330
20
0.010577
30
0.0
11
0.000960
21
0.010034
31
0.0
0
LINE
8
TOP
10
0.000960
20
0.010034
30
0.0
11
0.000645
21
0.009456
31
0.0
0
LINE
8
TOP
10
0.000645
20
0.009456
30
0.0
11
0.000390
21
0.008850
31
0.0
0
LINE
8
TOP
10
0.000390
20
0.008850
30
0.0
11
0.000196
21
0.008222
31
0.0
0
LINE
8
TOP
10
0.000196
20
0.008222
30
0.0
11
0.000065
21
0.007577
31
0.0
0
LINE
8
TOP
10
0.000065
20
0.007577
30
0.0
11
0.000000
21
0.006923
31
0.0
0
LINE
8
TOP
10
0.000000
20
0.006923
30
0.0
11
0.000000
21
0.006265
31
0.0
0
LINE
8
TOP
10
0.000000
20
0.006265
30
0.0
11
0.000065
21
0.005611
31
0.0
0
LINE
8
TOP
10
0.000065
20
0.005611
30
0.0
11
0.000196
21
0.004967
31
0.0
0
LINE
8
TOP
10
0.000196
20
0.004967
30
0.0
11
0.000390
21
0.004338
31
0.0
0
LINE
8
TOP
10
0.000390
20
0.004338
30
0.0
11
0.000645
21
0.003732
31
0.0
0
LINE
8
TOP
10
0.000645
20
0.003732
30
0.0
11
0.000960
21
0.003155
31
0.0
0
LINE
8
TOP
10
0.000960
20
0.003155
30
0.0
11
0.001330
21
0.002611
31
0.0
0
LINE
8
TOP
10
0.001330
20
0.002611
30
0.0
11
0.001753
21
0.002108
31
0.0
0
LINE
8
TOP
10
0.001753
20
0.002108
30
0.0
11
0.002223
21
0.001648
31
0.0
0
LINE
8
TOP
10
0.002223
20
0.001648
30
0.0
11
0.002738
21
0.001238
31
0.0
0
LINE
8
TOP
10
0.002738
20
0.001238
30
0.0
11
0.003290
21
0.000882
31
0.0
0
LINE
8
TOP
10
0.003290
20
0.000882
30
0.0
11
0.003875
21
0.000582
31
0.0
0
LINE
8
TOP
10
0.003875
20
0.000582
30
0.0
11
0.004487
21
0.000341
31
0.0
0
LINE
8
TOP
10
0.004487
20
0.000341
30
0.0
11
0.005120
21
0.000163
31
0.0
0
LINE
8
TOP
10
0.005120
20
0.000163
30
0.0
11
0.005768
21
0.000049
31
0.0
0
LINE
8
TOP
10
0.005768
20
0.000049
30
0.0
11
0.006424
21
0.000000
31
0.0
0
LINE
8
TOP
10
0.006424
20
0.000000
30
0.0
11
0.007081
21
0.000016
31
0.0
0
LINE
8
TOP
10
0.007081
20
0.000016
30
0.0
11
0.007734
21
0.000098
31
0.0
0
LINE
8
TOP
10
0.007734
20
0.000098
30
0.0
11
0.008375
21
0.000244
31
0.0
0
LINE
8
TOP
10
0.008375
20
0.000244
30
0.0
11
0.008998
21
0.000454
31
0.0
0
LINE
8
TOP
10
0.008998
20
0.000454
30
0.0
11
0.009597
21
0.000724
31
0.0
0
LINE
8
TOP
10
0.009597
20
0.000724
30
0.0
11
0.010167
21
0.001053
31
0.0
0
LINE
8
TOP
10
0.010167
20
0.001053
30
0.0
11
0.010701
21
0.001437
31
0.0
0
LINE
8
TOP
10
0.010701
20
0.001437
30
0.0
11
0.011194
21
0.001872
31
0.0
0
LINE
8
TOP
10
0.011194
20
0.001872
30
0.0
11
0.011641
21
0.002354
31
0.0
0
LINE
8
TOP
10
0.011641
20
0.002354
30
0.0
11
0.012038
21
0.002878
31
0.0
0
LINE
8
TOP
10
0.012038
20
0.002878
30
0.0
11
0.012381
21
0.003440
31
0.0
0
LINE
8
TOP
10
0.012381
20
0.003440
30
0.0
11
0.012666
21
0.004032
31
0.0
0
LINE
8
TOP
10
0.012666
20
0.004032
30
0.0
11
0.012891
21
0.004650
31
0.0
0
LINE
8
TOP
10
0.012891
20
0.004650
30
0.0
11
0.013054
21
0.005287
31
0.0
0
LINE
8
TOP
10
0.013054
20
0.005287
30
0.0
11
0.013152
21
0.005937
31
0.0
0
LINE
8
TOP
10
0.013152
20
0.005937
30
0.0
11
0.013184
21
0.006594
31
0.0
0
ENDSEC
0
EOF
