0
SECTION
2
HEADER
9
$ACADVER
1
AC1009
0
ENDSEC
0
SECTION
2
TABLES
0
TABLE
2
LTYPE
70
3
0
LTYPE
2
CONTINUOUS
70
0
3
Solid line
72
65
73
0
40
0.0
0
LTYPE
2
HIDDEN
70
0
3
__ __ __ __ __
72
65
73
2
40
0.044412
49
0.029623
49
-0.014789
0
LTYPE
2
CENTER
70
0
3
___ _ ___ _ ___
72
65
73
4
40
0.103613
49
0.059201
49
-0.014789
49
0.014789
49
-0.014789
0
ENDTAB
0
TABLE
2
LAYER
70
6
0
LAYER
2
0
70
0
62
7
6
CONTINUOUS
0
LAYER
2
FRONT
70
0
62
7
6
CONTINUOUS
0
LAYER
2
FRONT_HID
70
0
62
7
6
HIDDEN
0
LAYER
2
LEFT
70
0
62
7
6
CONTINUOUS
0
LAYER
2
LEFT_HID
70
0
62
7
6
HIDDEN
0
LAYER
2
TOP
70
0
62
7
6
CONTINUOUS
0
ENDTAB
0
ENDSEC
0
SECTION
2
ENTITIES
0
LINE
8
FRONT
10
0.888241
20
0.514594
30
0.0
11
0.888241
21
0.847698
31
0.0
0
LINE
8
FRONT
10
0.888241
20
0.847698
30
0.0
11
0.666205
21
0.847698
31
0.0
0
LINE
8
FRONT
10
0.666205
20
0.514594
30
0.0
11
0.666205
21
0.847698
31
0.0
0
LINE
8
FRONT
10
0.888241
20
0.514594
30
0.0
11
0.666205
21
0.514594
31
0.0
0
LINE
8
FRONT
10
0.000000
20
0.514594
30
0.0
11
0.000000
21
0.847698
31
0.0
0
LINE
8
FRONT
10
0.666205
20
0.514594
30
0.0
11
0.222066
21
0.514594
31
0.0
0
LINE
8
FRONT
10
0.666205
20
0.847698
30
0.0
11
0.222066
21
0.847698
31
0.0
0
LINE
8
FRONT
10
0.222066
20
0.847698
30
0.0
11
0.000000
21
0.847698
31
0.0
0
LINE
8
FRONT
10
0.222066
20
0.514594
30
0.0
11
0.000000
21
0.514594
31
0.0
0
LINE
8
FRONT
10
0.222066
20
0.514594
30
0.0
11
0.222066
21
0.847698
31
0.0
0
LINE
8
FRONT_HID
6
HIDDEN
10
0.388618
20
0.514594
30
0.0
11
0.499653
21
0.514594
31
0.0
0
LINE
8
FRONT_HID
6
HIDDEN
10
0.499653
20
0.514594
30
0.0
11
0.388618
21
0.514594
31
0.0
0
LINE
8
FRONT_HID
6
HIDDEN
10
0.388618
20
0.847698
30
0.0
11
0.499653
21
0.847698
31
0.0
0
LINE
8
FRONT_HID
6
HIDDEN
10
0.499653
20
0.847698
30
0.0
11
0.388618
21
0.847698
31
0.0
0
LINE
8
FRONT_HID
6
HIDDEN
10
0.388618
20
0.514594
30
0.0
11
0.388618
21
0.847698
31
0.0
0
LINE
8
FRONT_HID
6
HIDDEN
10
0.499653
20
0.514594
30
0.0
11
0.499653
21
0.847698
31
0.0
0
LINE
8
FRONT_HID
6
HIDDEN
10
0.499653
20
0.514594
30
0.0
11
0.499653
21
0.847698
31
0.0
0
LINE
8
FRONT_HID
6
HIDDEN
10
0.388618
20
0.514594
30
0.0
11
0.388618
21
0.847698
31
0.0
0
LINE
8
LEFT
10
1.398994
20
0.847698
30
0.0
11
1.402835
21
0.847698
31
0.0
0
LINE
8
LEFT
10
1.402835
20
0.514594
30
0.0
11
1.402835
21
0.847698
31
0.0
0
LINE
8
LEFT
10
1.398994
20
0.514594
30
0.0
11
1.402835
21
0.514594
31
0.0
0
LINE
8
LEFT
10
1.398994
20
0.514594
30
0.0
11
1.398994
21
0.847698
31
0.0
0
LINE
8
LEFT
10
1.067059
20
0.514594
30
0.0
11
1.067059
21
0.847698
31
0.0
0
LINE
8
LEFT
10
1.067059
20
0.847698
30
0.0
11
1.398994
21
0.847698
31
0.0
0
LINE
8
LEFT
10
1.067059
20
0.514594
30
0.0
11
1.398994
21
0.514594
31
0.0
0
LINE
8
LEFT
10
1.065890
20
0.514594
30
0.0
11
1.065890
21
0.847698
31
0.0
0
LINE
8
LEFT
10
1.065890
20
0.847698
30
0.0
11
1.067059
21
0.847698
31
0.0
0
LINE
8
LEFT
10
1.065890
20
0.514594
30
0.0
11
1.067059
21
0.514594
31
0.0
0
LINE
8
LEFT_HID
6
HIDDEN
10
1.402835
20
0.847698
30
0.0
11
1.065890
21
0.847698
31
0.0
0
LINE
8
LEFT_HID
6
HIDDEN
10
1.402835
20
0.514594
30
0.0
11
1.065890
21
0.514594
31
0.0
0
LINE
8
LEFT_HID
6
HIDDEN
10
1.398994
20
0.514594
30
0.0
11
1.065890
21
0.514594
31
0.0
0
LINE
8
LEFT_HID
6
HIDDEN
10
1.398994
20
0.847698
30
0.0
11
1.065890
21
0.847698
31
0.0
0
LINE
8
LEFT_HID
6
HIDDEN
10
1.398994
20
0.514594
30
0.0
11
1.065890
21
0.514594
31
0.0
0
LINE
8
LEFT_HID
6
HIDDEN
10
1.287959
20
0.514594
30
0.0
11
1.176924
21
0.514594
31
0.0
0
LINE
8
LEFT_HID
6
HIDDEN
10
1.176924
20
0.514594
30
0.0
11
1.287959
21
0.514594
31
0.0
0
LINE
8
LEFT_HID
6
HIDDEN
10
1.398994
20
0.847698
30
0.0
11
1.065890
21
0.847698
31
0.0
0
LINE
8
LEFT_HID
6
HIDDEN
10
1.287959
20
0.847698
30
0.0
11
1.176924
21
0.847698
31
0.0
0
LINE
8
LEFT_HID
6
HIDDEN
10
1.176924
20
0.847698
30
0.0
11
1.287959
21
0.847698
31
0.0
0
LINE
8
LEFT_HID
6
HIDDEN
10
1.287959
20
0.514594
30
0.0
11
1.287959
21
0.847698
31
0.0
0
LINE
8
LEFT_HID
6
HIDDEN
10
1.287959
20
0.514594
30
0.0
11
1.287959
21
0.847698
31
0.0
0
LINE
8
LEFT_HID
6
HIDDEN
10
1.176924
20
0.514594
30
0.0
11
1.176924
21
0.847698
31
0.0
0
LINE
8
LEFT_HID
6
HIDDEN
10
1.176924
20
0.514594
30
0.0
11
1.176924
21
0.847698
31
0.0
0
LINE
8
TOP
10
0.666205
20
0.003841
30
0.0
11
0.888241
21
0.000000
31
0.0
0
LINE
8
TOP
10
0.222066
20
0.003841
30
0.0
11
0.666205
21
0.003841
31
0.0
0
LINE
8
TOP
10
0.888241
20
0.000000
30
0.0
11
0.666205
21
0.336946
31
0.0
0
LINE
8
TOP
10
0.000000
20
0.335777
30
0.0
11
0.222066
21
0.003841
31
0.0
0
LINE
8
TOP
10
0.666205
20
0.336946
30
0.0
11
0.222066
21
0.336946
31
0.0
0
LINE
8
TOP
10
0.388618
20
0.114876
30
0.0
11
0.499653
21
0.114876
31
0.0
0
LINE
8
TOP
10
0.499653
20
0.114876
30
0.0
11
0.499653
21
0.225911
31
0.0
0
LINE
8
TOP
10
0.499653
20
0.225911
30
0.0
11
0.388618
21
0.225911
31
0.0
0
LINE
8
TOP
10
0.388618
20
0.225911
30
0.0
11
0.388618
21
0.114876
31
0.0
0
LINE
8
TOP
10
0.222066
20
0.336946
30
0.0
11
0.000000
21
0.335777
31
0.0
0
ENDSEC
0
EOF
