0
SECTION
2
HEADER
9
$ACADVER
1
AC1009
0
ENDSEC
0
SECTION
2
TABLES
0
TABLE
2
LTYPE
70
3
0
LTYPE
2
CONTINUOUS
70
0
3
Solid line
72
65
73
0
40
0.0
0
LTYPE
2
HIDDEN
70
0
3
__ __ __ __ __
72
65
73
2
40
0.037500
49
0.025013
49
-0.012488
0
LTYPE
2
CENTER
70
0
3
___ _ ___ _ ___
72
65
73
4
40
0.087488
49
0.049988
49
-0.012488
49
0.012488
49
-0.012488
0
ENDTAB
0
TABLE
2
LAYER
70
6
0
LAYER
2
0
70
0
62
7
6
CONTINUOUS
0
LAYER
2
FRONT
70
0
62
7
6
CONTINUOUS
0
LAYER
2
FRONT_HID
70
0
62
7
6
HIDDEN
0
LAYER
2
LEFT
70
0
62
7
6
CONTINUOUS
0
LAYER
2
TOP
70
0
62
7
6
CONTINUOUS
0
LAYER
2
TOP_HID
70
0
62
7
6
HIDDEN
0
ENDTAB
0
ENDSEC
0
SECTION
2
ENTITIES
0
LINE
8
FRONT
10
0.000000
20
0.479268
30
0.0
11
0.000000
21
0.808537
31
0.0
0
LINE
8
FRONT
10
0.000000
20
0.808537
30
0.0
11
0.750000
21
0.808537
31
0.0
0
LINE
8
FRONT
10
0.750000
20
0.479268
30
0.0
11
0.750000
21
0.808537
31
0.0
0
LINE
8
FRONT
10
0.750000
20
0.479268
30
0.0
11
0.000000
21
0.479268
31
0.0
0
LINE
8
FRONT_HID
6
HIDDEN
10
0.000000
20
0.717073
30
0.0
11
0.000000
21
0.570732
31
0.0
0
LINE
8
FRONT_HID
6
HIDDEN
10
0.000000
20
0.570732
30
0.0
11
0.000000
21
0.717073
31
0.0
0
LINE
8
FRONT_HID
6
HIDDEN
10
0.000000
20
0.717073
30
0.0
11
0.750000
21
0.717073
31
0.0
0
LINE
8
FRONT_HID
6
HIDDEN
10
0.750000
20
0.717073
30
0.0
11
0.750000
21
0.570732
31
0.0
0
LINE
8
FRONT_HID
6
HIDDEN
10
0.750000
20
0.570732
30
0.0
11
0.750000
21
0.717073
31
0.0
0
LINE
8
FRONT_HID
6
HIDDEN
10
0.750000
20
0.570732
30
0.0
11
0.000000
21
0.570732
31
0.0
0
LINE
8
LEFT
10
1.064583
20
0.808332
30
0.0
11
1.080975
21
0.807514
31
0.0
0
LINE
8
LEFT
10
1.080975
20
0.807514
30
0.0
11
1.097205
21
0.805068
31
0.0
0
LINE
8
LEFT
10
1.097205
20
0.805068
30
0.0
11
1.113110
21
0.801018
31
0.0
0
LINE
8
LEFT
10
1.113110
20
0.801018
30
0.0
11
1.128533
21
0.795404
31
0.0
0
LINE
8
LEFT
10
1.128533
20
0.795404
30
0.0
11
1.143320
21
0.788283
31
0.0
0
LINE
8
LEFT
10
1.143320
20
0.788283
30
0.0
11
1.157325
21
0.779725
31
0.0
0
LINE
8
LEFT
10
1.157325
20
0.779725
30
0.0
11
1.170408
21
0.769815
31
0.0
0
LINE
8
LEFT
10
1.170408
20
0.769815
30
0.0
11
1.182439
21
0.758651
31
0.0
0
LINE
8
LEFT
10
1.182439
20
0.758651
30
0.0
11
1.193299
21
0.746345
31
0.0
0
LINE
8
LEFT
10
1.193299
20
0.746345
30
0.0
11
1.202880
21
0.733019
31
0.0
0
LINE
8
LEFT
10
1.202880
20
0.733019
30
0.0
11
1.211086
21
0.718806
31
0.0
0
LINE
8
LEFT
10
1.211086
20
0.718806
30
0.0
11
1.217837
21
0.703845
31
0.0
0
LINE
8
LEFT
10
1.217837
20
0.703845
30
0.0
11
1.223064
21
0.688287
31
0.0
0
LINE
8
LEFT
10
1.223064
20
0.688287
30
0.0
11
1.226716
21
0.672286
31
0.0
0
LINE
8
LEFT
10
1.226716
20
0.672286
30
0.0
11
1.228757
21
0.656001
31
0.0
0
LINE
8
LEFT
10
1.228757
20
0.656001
30
0.0
11
1.229166
21
0.639593
31
0.0
0
LINE
8
LEFT
10
1.229166
20
0.639593
30
0.0
11
1.227939
21
0.623227
31
0.0
0
LINE
8
LEFT
10
1.227939
20
0.623227
30
0.0
11
1.225089
21
0.607063
31
0.0
0
LINE
8
LEFT
10
1.225089
20
0.607063
30
0.0
11
1.220644
21
0.591264
31
0.0
0
LINE
8
LEFT
10
1.220644
20
0.591264
30
0.0
11
1.214648
21
0.575986
31
0.0
0
LINE
8
LEFT
10
1.214648
20
0.575986
30
0.0
11
1.207160
21
0.561381
31
0.0
0
LINE
8
LEFT
10
1.207160
20
0.561381
30
0.0
11
1.198256
21
0.547594
31
0.0
0
LINE
8
LEFT
10
1.198256
20
0.547594
30
0.0
11
1.188023
21
0.534762
31
0.0
0
LINE
8
LEFT
10
1.188023
20
0.534762
30
0.0
11
1.176563
21
0.523012
31
0.0
0
LINE
8
LEFT
10
1.176563
20
0.523012
30
0.0
11
1.163990
21
0.512463
31
0.0
0
LINE
8
LEFT
10
1.163990
20
0.512463
30
0.0
11
1.150429
21
0.503217
31
0.0
0
LINE
8
LEFT
10
1.150429
20
0.503217
30
0.0
11
1.136015
21
0.495368
31
0.0
0
LINE
8
LEFT
10
1.136015
20
0.495368
30
0.0
11
1.120891
21
0.488992
31
0.0
0
LINE
8
LEFT
10
1.120891
20
0.488992
30
0.0
11
1.105208
21
0.484155
31
0.0
0
LINE
8
LEFT
10
1.105208
20
0.484155
30
0.0
11
1.089120
21
0.480902
31
0.0
0
LINE
8
LEFT
10
1.089120
20
0.480902
30
0.0
11
1.072789
21
0.479268
31
0.0
0
LINE
8
LEFT
10
1.072789
20
0.479268
30
0.0
11
1.056377
21
0.479268
31
0.0
0
LINE
8
LEFT
10
1.056377
20
0.479268
30
0.0
11
1.040046
21
0.480902
31
0.0
0
LINE
8
LEFT
10
1.040046
20
0.480902
30
0.0
11
1.023958
21
0.484155
31
0.0
0
LINE
8
LEFT
10
1.023958
20
0.484155
30
0.0
11
1.008275
21
0.488992
31
0.0
0
LINE
8
LEFT
10
1.008275
20
0.488992
30
0.0
11
0.993151
21
0.495368
31
0.0
0
LINE
8
LEFT
10
0.993151
20
0.495368
30
0.0
11
0.978737
21
0.503217
31
0.0
0
LINE
8
LEFT
10
0.978737
20
0.503217
30
0.0
11
0.965176
21
0.512463
31
0.0
0
LINE
8
LEFT
10
0.965176
20
0.512463
30
0.0
11
0.952603
21
0.523012
31
0.0
0
LINE
8
LEFT
10
0.952603
20
0.523012
30
0.0
11
0.941143
21
0.534762
31
0.0
0
LINE
8
LEFT
10
0.941143
20
0.534762
30
0.0
11
0.930910
21
0.547594
31
0.0
0
LINE
8
LEFT
10
0.930910
20
0.547594
30
0.0
11
0.922006
21
0.561381
31
0.0
0
LINE
8
LEFT
10
0.922006
20
0.561381
30
0.0
11
0.914518
21
0.575986
31
0.0
0
LINE
8
LEFT
10
0.914518
20
0.575986
30
0.0
11
0.908522
21
0.591264
31
0.0
0
LINE
8
LEFT
10
0.908522
20
0.591264
30
0.0
11
0.904077
21
0.607063
31
0.0
0
LINE
8
LEFT
10
0.904077
20
0.607063
30
0.0
11
0.901227
21
0.623227
31
0.0
0
LINE
8
LEFT
10
0.901227
20
0.623227
30
0.0
11
0.900000
21
0.639593
31
0.0
0
LINE
8
LEFT
10
0.900000
20
0.639593
30
0.0
11
0.900409
21
0.656001
31
0.0
0
LINE
8
LEFT
10
0.900409
20
0.656001
30
0.0
11
0.902450
21
0.672286
31
0.0
0
LINE
8
LEFT
10
0.902450
20
0.672286
30
0.0
11
0.906102
21
0.688287
31
0.0
0
LINE
8
LEFT
10
0.906102
20
0.688287
30
0.0
11
0.911329
21
0.703845
31
0.0
0
LINE
8
LEFT
10
0.911329
20
0.703845
30
0.0
11
0.918080
21
0.718806
31
0.0
0
LINE
8
LEFT
10
0.918080
20
0.718806
30
0.0
11
0.926286
21
0.733019
31
0.0
0
LINE
8
LEFT
10
0.926286
20
0.733019
30
0.0
11
0.935867
21
0.746345
31
0.0
0
LINE
8
LEFT
10
0.935867
20
0.746345
30
0.0
11
0.946727
21
0.758651
31
0.0
0
LINE
8
LEFT
10
0.946727
20
0.758651
30
0.0
11
0.958758
21
0.769815
31
0.0
0
LINE
8
LEFT
10
0.958758
20
0.769815
30
0.0
11
0.971841
21
0.779725
31
0.0
0
LINE
8
LEFT
10
0.971841
20
0.779725
30
0.0
11
0.985846
21
0.788283
31
0.0
0
LINE
8
LEFT
10
0.985846
20
0.788283
30
0.0
11
1.000633
21
0.795404
31
0.0
0
LINE
8
LEFT
10
1.000633
20
0.795404
30
0.0
11
1.016056
21
0.801018
31
0.0
0
LINE
8
LEFT
10
1.016056
20
0.801018
30
0.0
11
1.031961
21
0.805068
31
0.0
0
LINE
8
LEFT
10
1.031961
20
0.805068
30
0.0
11
1.048191
21
0.807514
31
0.0
0
LINE
8
LEFT
10
1.048191
20
0.807514
30
0.0
11
1.064583
21
0.808332
31
0.0
0
LINE
8
LEFT
10
1.064583
20
0.716869
30
0.0
11
1.071868
21
0.716505
31
0.0
0
LINE
8
LEFT
10
1.071868
20
0.716505
30
0.0
11
1.079081
21
0.715418
31
0.0
0
LINE
8
LEFT
10
1.079081
20
0.715418
30
0.0
11
1.086150
21
0.713618
31
0.0
0
LINE
8
LEFT
10
1.086150
20
0.713618
30
0.0
11
1.093005
21
0.711123
31
0.0
0
LINE
8
LEFT
10
1.093005
20
0.711123
30
0.0
11
1.099577
21
0.707958
31
0.0
0
LINE
8
LEFT
10
1.099577
20
0.707958
30
0.0
11
1.105802
21
0.704154
31
0.0
0
LINE
8
LEFT
10
1.105802
20
0.704154
30
0.0
11
1.111616
21
0.699750
31
0.0
0
LINE
8
LEFT
10
1.111616
20
0.699750
30
0.0
11
1.116963
21
0.694788
31
0.0
0
LINE
8
LEFT
10
1.116963
20
0.694788
30
0.0
11
1.121790
21
0.689319
31
0.0
0
LINE
8
LEFT
10
1.121790
20
0.689319
30
0.0
11
1.126048
21
0.683396
31
0.0
0
LINE
8
LEFT
10
1.126048
20
0.683396
30
0.0
11
1.129696
21
0.677079
31
0.0
0
LINE
8
LEFT
10
1.129696
20
0.677079
30
0.0
11
1.132696
21
0.670430
31
0.0
0
LINE
8
LEFT
10
1.132696
20
0.670430
30
0.0
11
1.135019
21
0.663515
31
0.0
0
LINE
8
LEFT
10
1.135019
20
0.663515
30
0.0
11
1.136642
21
0.656404
31
0.0
0
LINE
8
LEFT
10
1.136642
20
0.656404
30
0.0
11
1.137549
21
0.649166
31
0.0
0
LINE
8
LEFT
10
1.137549
20
0.649166
30
0.0
11
1.137731
21
0.641874
31
0.0
0
LINE
8
LEFT
10
1.137731
20
0.641874
30
0.0
11
1.137186
21
0.634599
31
0.0
0
LINE
8
LEFT
10
1.137186
20
0.634599
30
0.0
11
1.135919
21
0.627416
31
0.0
0
LINE
8
LEFT
10
1.135919
20
0.627416
30
0.0
11
1.133944
21
0.620394
31
0.0
0
LINE
8
LEFT
10
1.133944
20
0.620394
30
0.0
11
1.131279
21
0.613604
31
0.0
0
LINE
8
LEFT
10
1.131279
20
0.613604
30
0.0
11
1.127951
21
0.607112
31
0.0
0
LINE
8
LEFT
10
1.127951
20
0.607112
30
0.0
11
1.123993
21
0.600985
31
0.0
0
LINE
8
LEFT
10
1.123993
20
0.600985
30
0.0
11
1.119445
21
0.595282
31
0.0
0
LINE
8
LEFT
10
1.119445
20
0.595282
30
0.0
11
1.114352
21
0.590060
31
0.0
0
LINE
8
LEFT
10
1.114352
20
0.590060
30
0.0
11
1.108764
21
0.585371
31
0.0
0
LINE
8
LEFT
10
1.108764
20
0.585371
30
0.0
11
1.102737
21
0.581262
31
0.0
0
LINE
8
LEFT
10
1.102737
20
0.581262
30
0.0
11
1.096331
21
0.577773
31
0.0
0
LINE
8
LEFT
10
1.096331
20
0.577773
30
0.0
11
1.089609
21
0.574940
31
0.0
0
LINE
8
LEFT
10
1.089609
20
0.574940
30
0.0
11
1.082638
21
0.572790
31
0.0
0
LINE
8
LEFT
10
1.082638
20
0.572790
30
0.0
11
1.075489
21
0.571344
31
0.0
0
LINE
8
LEFT
10
1.075489
20
0.571344
30
0.0
11
1.068230
21
0.570618
31
0.0
0
LINE
8
LEFT
10
1.068230
20
0.570618
30
0.0
11
1.060936
21
0.570618
31
0.0
0
LINE
8
LEFT
10
1.060936
20
0.570618
30
0.0
11
1.053677
21
0.571344
31
0.0
0
LINE
8
LEFT
10
1.053677
20
0.571344
30
0.0
11
1.046528
21
0.572790
31
0.0
0
LINE
8
LEFT
10
1.046528
20
0.572790
30
0.0
11
1.039557
21
0.574940
31
0.0
0
LINE
8
LEFT
10
1.039557
20
0.574940
30
0.0
11
1.032835
21
0.577773
31
0.0
0
LINE
8
LEFT
10
1.032835
20
0.577773
30
0.0
11
1.026429
21
0.581262
31
0.0
0
LINE
8
LEFT
10
1.026429
20
0.581262
30
0.0
11
1.020402
21
0.585371
31
0.0
0
LINE
8
LEFT
10
1.020402
20
0.585371
30
0.0
11
1.014814
21
0.590060
31
0.0
0
LINE
8
LEFT
10
1.014814
20
0.590060
30
0.0
11
1.009721
21
0.595282
31
0.0
0
LINE
8
LEFT
10
1.009721
20
0.595282
30
0.0
11
1.005173
21
0.600985
31
0.0
0
LINE
8
LEFT
10
1.005173
20
0.600985
30
0.0
11
1.001215
21
0.607112
31
0.0
0
LINE
8
LEFT
10
1.001215
20
0.607112
30
0.0
11
0.997887
21
0.613604
31
0.0
0
LINE
8
LEFT
10
0.997887
20
0.613604
30
0.0
11
0.995222
21
0.620394
31
0.0
0
LINE
8
LEFT
10
0.995222
20
0.620394
30
0.0
11
0.993247
21
0.627416
31
0.0
0
LINE
8
LEFT
10
0.993247
20
0.627416
30
0.0
11
0.991980
21
0.634599
31
0.0
0
LINE
8
LEFT
10
0.991980
20
0.634599
30
0.0
11
0.991435
21
0.641874
31
0.0
0
LINE
8
LEFT
10
0.991435
20
0.641874
30
0.0
11
0.991617
21
0.649166
31
0.0
0
LINE
8
LEFT
10
0.991617
20
0.649166
30
0.0
11
0.992524
21
0.656404
31
0.0
0
LINE
8
LEFT
10
0.992524
20
0.656404
30
0.0
11
0.994147
21
0.663515
31
0.0
0
LINE
8
LEFT
10
0.994147
20
0.663515
30
0.0
11
0.996470
21
0.670430
31
0.0
0
LINE
8
LEFT
10
0.996470
20
0.670430
30
0.0
11
0.999470
21
0.677079
31
0.0
0
LINE
8
LEFT
10
0.999470
20
0.677079
30
0.0
11
1.003118
21
0.683396
31
0.0
0
LINE
8
LEFT
10
1.003118
20
0.683396
30
0.0
11
1.007376
21
0.689319
31
0.0
0
LINE
8
LEFT
10
1.007376
20
0.689319
30
0.0
11
1.012202
21
0.694788
31
0.0
0
LINE
8
LEFT
10
1.012202
20
0.694788
30
0.0
11
1.017550
21
0.699750
31
0.0
0
LINE
8
LEFT
10
1.017550
20
0.699750
30
0.0
11
1.023364
21
0.704154
31
0.0
0
LINE
8
LEFT
10
1.023364
20
0.704154
30
0.0
11
1.029589
21
0.707958
31
0.0
0
LINE
8
LEFT
10
1.029589
20
0.707958
30
0.0
11
1.036161
21
0.711123
31
0.0
0
LINE
8
LEFT
10
1.036161
20
0.711123
30
0.0
11
1.043016
21
0.713618
31
0.0
0
LINE
8
LEFT
10
1.043016
20
0.713618
30
0.0
11
1.050084
21
0.715418
31
0.0
0
LINE
8
LEFT
10
1.050084
20
0.715418
30
0.0
11
1.057298
21
0.716505
31
0.0
0
LINE
8
LEFT
10
1.057298
20
0.716505
30
0.0
11
1.064583
21
0.716869
31
0.0
0
LINE
8
TOP
10
0.000000
20
0.164634
30
0.0
11
0.000000
21
0.000000
31
0.0
0
LINE
8
TOP
10
0.000000
20
0.329268
30
0.0
11
0.000000
21
0.164634
31
0.0
0
LINE
8
TOP
10
0.750000
20
0.164634
30
0.0
11
0.750000
21
0.000000
31
0.0
0
LINE
8
TOP
10
0.750000
20
0.329268
30
0.0
11
0.750000
21
0.164634
31
0.0
0
LINE
8
TOP
10
0.750000
20
0.329268
30
0.0
11
0.000000
21
0.329268
31
0.0
0
LINE
8
TOP
10
0.750000
20
0.000000
30
0.0
11
0.000000
21
0.000000
31
0.0
0
LINE
8
TOP_HID
6
HIDDEN
10
0.000000
20
0.000000
30
0.0
11
0.000000
21
0.329268
31
0.0
0
LINE
8
TOP_HID
6
HIDDEN
10
0.750000
20
0.000000
30
0.0
11
0.750000
21
0.329268
31
0.0
0
LINE
8
TOP_HID
6
HIDDEN
10
0.000000
20
0.164634
30
0.0
11
0.000000
21
0.091463
31
0.0
0
LINE
8
TOP_HID
6
HIDDEN
10
0.000000
20
0.091463
30
0.0
11
0.000000
21
0.237805
31
0.0
0
LINE
8
TOP_HID
6
HIDDEN
10
0.000000
20
0.237805
30
0.0
11
0.000000
21
0.164634
31
0.0
0
LINE
8
TOP_HID
6
HIDDEN
10
0.750000
20
0.164634
30
0.0
11
0.750000
21
0.091463
31
0.0
0
LINE
8
TOP_HID
6
HIDDEN
10
0.750000
20
0.091463
30
0.0
11
0.750000
21
0.237805
31
0.0
0
LINE
8
TOP_HID
6
HIDDEN
10
0.750000
20
0.237805
30
0.0
11
0.750000
21
0.164634
31
0.0
0
LINE
8
TOP_HID
6
HIDDEN
10
0.750000
20
0.237805
30
0.0
11
0.000000
21
0.237805
31
0.0
0
LINE
8
TOP_HID
6
HIDDEN
10
0.750000
20
0.091463
30
0.0
11
0.000000
21
0.091463
31
0.0
0
ENDSEC
0
EOF
