0
SECTION
2
HEADER
9
$ACADVER
1
AC1009
0
ENDSEC
0
SECTION
2
TABLES
0
TABLE
2
LTYPE
70
3
0
LTYPE
2
CONTINUOUS
70
0
3
Solid line
72
65
73
0
40
0.0
0
LTYPE
2
HIDDEN
70
0
3
__ __ __ __ __
72
65
73
2
40
0.075000
49
0.050025
49
-0.024975
0
LTYPE
2
CENTER
70
0
3
___ _ ___ _ ___
72
65
73
4
40
0.174975
49
0.099975
49
-0.024975
49
0.024975
49
-0.024975
0
ENDTAB
0
TABLE
2
LAYER
70
6
0
LAYER
2
0
70
0
62
7
6
CONTINUOUS
0
LAYER
2
FRONT
70
0
62
7
6
CONTINUOUS
0
LAYER
2
LEFT
70
0
62
7
6
CONTINUOUS
0
LAYER
2
LEFT_HID
70
0
62
7
6
HIDDEN
0
LAYER
2
TOP
70
0
62
7
6
CONTINUOUS
0
LAYER
2
TOP_HID
70
0
62
7
6
HIDDEN
0
ENDTAB
0
ENDSEC
0
SECTION
2
ENTITIES
0
LINE
8
FRONT
10
0.000000
20
1.050000
30
0.0
11
1.200000
21
1.050000
31
0.0
0
LINE
8
FRONT
10
1.200000
20
1.050000
30
0.0
11
1.200000
21
2.550000
31
0.0
0
LINE
8
FRONT
10
1.200000
20
2.550000
30
0.0
11
0.000000
21
2.550000
31
0.0
0
LINE
8
FRONT
10
0.000000
20
2.550000
30
0.0
11
0.000000
21
1.050000
31
0.0
0
LINE
8
FRONT
10
0.510000
20
1.800000
30
0.0
11
0.510447
21
1.791039
31
0.0
0
LINE
8
FRONT
10
0.510447
20
1.791039
30
0.0
11
0.511784
21
1.782167
31
0.0
0
LINE
8
FRONT
10
0.511784
20
1.782167
30
0.0
11
0.513998
21
1.773472
31
0.0
0
LINE
8
FRONT
10
0.513998
20
1.773472
30
0.0
11
0.517067
21
1.765041
31
0.0
0
LINE
8
FRONT
10
0.517067
20
1.765041
30
0.0
11
0.520960
21
1.756957
31
0.0
0
LINE
8
FRONT
10
0.520960
20
1.756957
30
0.0
11
0.525639
21
1.749301
31
0.0
0
LINE
8
FRONT
10
0.525639
20
1.749301
30
0.0
11
0.531056
21
1.742149
31
0.0
0
LINE
8
FRONT
10
0.531056
20
1.742149
30
0.0
11
0.537159
21
1.735572
31
0.0
0
LINE
8
FRONT
10
0.537159
20
1.735572
30
0.0
11
0.543886
21
1.729635
31
0.0
0
LINE
8
FRONT
10
0.543886
20
1.729635
30
0.0
11
0.551171
21
1.724398
31
0.0
0
LINE
8
FRONT
10
0.551171
20
1.724398
30
0.0
11
0.558941
21
1.719912
31
0.0
0
LINE
8
FRONT
10
0.558941
20
1.719912
30
0.0
11
0.567119
21
1.716221
31
0.0
0
LINE
8
FRONT
10
0.567119
20
1.716221
30
0.0
11
0.575624
21
1.713364
31
0.0
0
LINE
8
FRONT
10
0.575624
20
1.713364
30
0.0
11
0.584372
21
1.711367
31
0.0
0
LINE
8
FRONT
10
0.584372
20
1.711367
30
0.0
11
0.593274
21
1.710252
31
0.0
0
LINE
8
FRONT
10
0.593274
20
1.710252
30
0.0
11
0.602244
21
1.710028
31
0.0
0
LINE
8
FRONT
10
0.602244
20
1.710028
30
0.0
11
0.611191
21
1.710698
31
0.0
0
LINE
8
FRONT
10
0.611191
20
1.710698
30
0.0
11
0.620027
21
1.712256
31
0.0
0
LINE
8
FRONT
10
0.620027
20
1.712256
30
0.0
11
0.628664
21
1.714687
31
0.0
0
LINE
8
FRONT
10
0.628664
20
1.714687
30
0.0
11
0.637016
21
1.717964
31
0.0
0
LINE
8
FRONT
10
0.637016
20
1.717964
30
0.0
11
0.645000
21
1.722058
31
0.0
0
LINE
8
FRONT
10
0.645000
20
1.722058
30
0.0
11
0.652537
21
1.726926
31
0.0
0
LINE
8
FRONT
10
0.652537
20
1.726926
30
0.0
11
0.659552
21
1.732520
31
0.0
0
LINE
8
FRONT
10
0.659552
20
1.732520
30
0.0
11
0.665975
21
1.738784
31
0.0
0
LINE
8
FRONT
10
0.665975
20
1.738784
30
0.0
11
0.671742
21
1.745658
31
0.0
0
LINE
8
FRONT
10
0.671742
20
1.745658
30
0.0
11
0.676796
21
1.753071
31
0.0
0
LINE
8
FRONT
10
0.676796
20
1.753071
30
0.0
11
0.681087
21
1.760950
31
0.0
0
LINE
8
FRONT
10
0.681087
20
1.760950
30
0.0
11
0.684572
21
1.769218
31
0.0
0
LINE
8
FRONT
10
0.684572
20
1.769218
30
0.0
11
0.687217
21
1.777792
31
0.0
0
LINE
8
FRONT
10
0.687217
20
1.777792
30
0.0
11
0.688995
21
1.786586
31
0.0
0
LINE
8
FRONT
10
0.688995
20
1.786586
30
0.0
11
0.689888
21
1.795514
31
0.0
0
LINE
8
FRONT
10
0.689888
20
1.795514
30
0.0
11
0.689888
21
1.804486
31
0.0
0
LINE
8
FRONT
10
0.689888
20
1.804486
30
0.0
11
0.688995
21
1.813414
31
0.0
0
LINE
8
FRONT
10
0.688995
20
1.813414
30
0.0
11
0.687217
21
1.822208
31
0.0
0
LINE
8
FRONT
10
0.687217
20
1.822208
30
0.0
11
0.684572
21
1.830782
31
0.0
0
LINE
8
FRONT
10
0.684572
20
1.830782
30
0.0
11
0.681087
21
1.839050
31
0.0
0
LINE
8
FRONT
10
0.681087
20
1.839050
30
0.0
11
0.676796
21
1.846929
31
0.0
0
LINE
8
FRONT
10
0.676796
20
1.846929
30
0.0
11
0.671742
21
1.854342
31
0.0
0
LINE
8
FRONT
10
0.671742
20
1.854342
30
0.0
11
0.665975
21
1.861216
31
0.0
0
LINE
8
FRONT
10
0.665975
20
1.861216
30
0.0
11
0.659552
21
1.867480
31
0.0
0
LINE
8
FRONT
10
0.659552
20
1.867480
30
0.0
11
0.652537
21
1.873074
31
0.0
0
LINE
8
FRONT
10
0.652537
20
1.873074
30
0.0
11
0.645000
21
1.877942
31
0.0
0
LINE
8
FRONT
10
0.645000
20
1.877942
30
0.0
11
0.637016
21
1.882036
31
0.0
0
LINE
8
FRONT
10
0.637016
20
1.882036
30
0.0
11
0.628664
21
1.885313
31
0.0
0
LINE
8
FRONT
10
0.628664
20
1.885313
30
0.0
11
0.620027
21
1.887744
31
0.0
0
LINE
8
FRONT
10
0.620027
20
1.887744
30
0.0
11
0.611191
21
1.889302
31
0.0
0
LINE
8
FRONT
10
0.611191
20
1.889302
30
0.0
11
0.602244
21
1.889972
31
0.0
0
LINE
8
FRONT
10
0.602244
20
1.889972
30
0.0
11
0.593274
21
1.889748
31
0.0
0
LINE
8
FRONT
10
0.593274
20
1.889748
30
0.0
11
0.584372
21
1.888633
31
0.0
0
LINE
8
FRONT
10
0.584372
20
1.888633
30
0.0
11
0.575624
21
1.886636
31
0.0
0
LINE
8
FRONT
10
0.575624
20
1.886636
30
0.0
11
0.567119
21
1.883779
31
0.0
0
LINE
8
FRONT
10
0.567119
20
1.883779
30
0.0
11
0.558941
21
1.880088
31
0.0
0
LINE
8
FRONT
10
0.558941
20
1.880088
30
0.0
11
0.551171
21
1.875602
31
0.0
0
LINE
8
FRONT
10
0.551171
20
1.875602
30
0.0
11
0.543886
21
1.870365
31
0.0
0
LINE
8
FRONT
10
0.543886
20
1.870365
30
0.0
11
0.537159
21
1.864428
31
0.0
0
LINE
8
FRONT
10
0.537159
20
1.864428
30
0.0
11
0.531056
21
1.857851
31
0.0
0
LINE
8
FRONT
10
0.531056
20
1.857851
30
0.0
11
0.525639
21
1.850699
31
0.0
0
LINE
8
FRONT
10
0.525639
20
1.850699
30
0.0
11
0.520960
21
1.843043
31
0.0
0
LINE
8
FRONT
10
0.520960
20
1.843043
30
0.0
11
0.517067
21
1.834959
31
0.0
0
LINE
8
FRONT
10
0.517067
20
1.834959
30
0.0
11
0.513998
21
1.826528
31
0.0
0
LINE
8
FRONT
10
0.513998
20
1.826528
30
0.0
11
0.511784
21
1.817833
31
0.0
0
LINE
8
FRONT
10
0.511784
20
1.817833
30
0.0
11
0.510447
21
1.808961
31
0.0
0
LINE
8
FRONT
10
0.510447
20
1.808961
30
0.0
11
0.510000
21
1.800000
31
0.0
0
LINE
8
LEFT
10
1.500000
20
1.050000
30
0.0
11
2.250000
21
1.050000
31
0.0
0
LINE
8
LEFT
10
1.500000
20
2.550000
30
0.0
11
2.250000
21
2.550000
31
0.0
0
LINE
8
LEFT
10
2.250000
20
2.550000
30
0.0
11
2.250000
21
1.050000
31
0.0
0
LINE
8
LEFT
10
1.500000
20
2.550000
30
0.0
11
1.500000
21
1.050000
31
0.0
0
LINE
8
LEFT_HID
6
HIDDEN
10
1.500000
20
1.800000
30
0.0
11
1.500000
21
1.710000
31
0.0
0
LINE
8
LEFT_HID
6
HIDDEN
10
1.500000
20
1.710000
30
0.0
11
1.500000
21
1.890000
31
0.0
0
LINE
8
LEFT_HID
6
HIDDEN
10
1.500000
20
1.890000
30
0.0
11
1.500000
21
1.800000
31
0.0
0
LINE
8
LEFT_HID
6
HIDDEN
10
2.250000
20
1.800000
30
0.0
11
2.250000
21
1.710000
31
0.0
0
LINE
8
LEFT_HID
6
HIDDEN
10
2.250000
20
1.710000
30
0.0
11
2.250000
21
1.890000
31
0.0
0
LINE
8
LEFT_HID
6
HIDDEN
10
2.250000
20
1.890000
30
0.0
11
2.250000
21
1.800000
31
0.0
0
LINE
8
LEFT_HID
6
HIDDEN
10
2.250000
20
1.890000
30
0.0
11
1.500000
21
1.890000
31
0.0
0
LINE
8
LEFT_HID
6
HIDDEN
10
2.250000
20
1.710000
30
0.0
11
1.500000
21
1.710000
31
0.0
0
LINE
8
TOP
10
1.200000
20
0.750000
30
0.0
11
1.200000
21
0.000000
31
0.0
0
LINE
8
TOP
10
1.200000
20
0.000000
30
0.0
11
0.000000
21
0.000000
31
0.0
0
LINE
8
TOP
10
0.000000
20
0.750000
30
0.0
11
0.000000
21
0.000000
31
0.0
0
LINE
8
TOP
10
1.200000
20
0.750000
30
0.0
11
0.000000
21
0.750000
31
0.0
0
LINE
8
TOP_HID
6
HIDDEN
10
0.510000
20
0.750000
30
0.0
11
0.690000
21
0.750000
31
0.0
0
LINE
8
TOP_HID
6
HIDDEN
10
0.690000
20
0.750000
30
0.0
11
0.510000
21
0.750000
31
0.0
0
LINE
8
TOP_HID
6
HIDDEN
10
0.510000
20
0.750000
30
0.0
11
0.510000
21
0.000000
31
0.0
0
LINE
8
TOP_HID
6
HIDDEN
10
0.510000
20
0.000000
30
0.0
11
0.690000
21
0.000000
31
0.0
0
LINE
8
TOP_HID
6
HIDDEN
10
0.690000
20
0.000000
30
0.0
11
0.510000
21
0.000000
31
0.0
0
LINE
8
TOP_HID
6
HIDDEN
10
0.690000
20
0.000000
30
0.0
11
0.690000
21
0.750000
31
0.0
0
ENDSEC
0
EOF
