0
SECTION
2
HEADER
9
$ACADVER
1
AC1009
0
ENDSEC
0
SECTION
2
TABLES
0
TABLE
2
LTYPE
70
3
0
LTYPE
2
CONTINUOUS
70
0
3
Solid line
72
65
73
0
40
0.0
0
LTYPE
2
HIDDEN
70
0
3
__ __ __ __ __
72
65
73
2
40
0.037500
49
0.025013
49
-0.012488
0
LTYPE
2
CENTER
70
0
3
___ _ ___ _ ___
72
65
73
4
40
0.087488
49
0.049988
49
-0.012488
49
0.012488
49
-0.012488
0
ENDTAB
0
TABLE
2
LAYER
70
6
0
LAYER
2
0
70
0
62
7
6
CONTINUOUS
0
LAYER
2
FRONT
70
0
62
7
6
CONTINUOUS
0
LAYER
2
LEFT
70
0
62
7
6
CONTINUOUS
0
LAYER
2
LEFT_HID
70
0
62
7
6
HIDDEN
0
LAYER
2
TOP
70
0
62
7
6
CONTINUOUS
0
LAYER
2
TOP_HID
70
0
62
7
6
HIDDEN
0
ENDTAB
0
ENDSEC
0
SECTION
2
ENTITIES
0
LINE
8
FRONT
10
0.000000
20
0.210938
30
0.0
11
0.016719
21
0.178125
31
0.0
0
LINE
8
FRONT
10
0.016719
20
0.178125
30
0.0
11
0.028125
21
0.178125
31
0.0
0
LINE
8
FRONT
10
0.028125
20
0.178125
30
0.0
11
0.750000
21
0.178125
31
0.0
0
LINE
8
FRONT
10
0.750000
20
0.178125
30
0.0
11
0.717188
21
0.243750
31
0.0
0
LINE
8
FRONT
10
0.717188
20
0.243750
30
0.0
11
0.028125
21
0.243750
31
0.0
0
LINE
8
FRONT
10
0.028125
20
0.243750
30
0.0
11
0.016719
21
0.243750
31
0.0
0
LINE
8
FRONT
10
0.016719
20
0.243750
30
0.0
11
0.000000
21
0.210938
31
0.0
0
LINE
8
FRONT
10
0.018750
20
0.210938
30
0.0
11
0.018797
21
0.210004
31
0.0
0
LINE
8
FRONT
10
0.018797
20
0.210004
30
0.0
11
0.018936
21
0.209080
31
0.0
0
LINE
8
FRONT
10
0.018936
20
0.209080
30
0.0
11
0.019167
21
0.208174
31
0.0
0
LINE
8
FRONT
10
0.019167
20
0.208174
30
0.0
11
0.019486
21
0.207296
31
0.0
0
LINE
8
FRONT
10
0.019486
20
0.207296
30
0.0
11
0.019892
21
0.206454
31
0.0
0
LINE
8
FRONT
10
0.019892
20
0.206454
30
0.0
11
0.020379
21
0.205656
31
0.0
0
LINE
8
FRONT
10
0.020379
20
0.205656
30
0.0
11
0.020943
21
0.204911
31
0.0
0
LINE
8
FRONT
10
0.020943
20
0.204911
30
0.0
11
0.021579
21
0.204226
31
0.0
0
LINE
8
FRONT
10
0.021579
20
0.204226
30
0.0
11
0.022280
21
0.203608
31
0.0
0
LINE
8
FRONT
10
0.022280
20
0.203608
30
0.0
11
0.023039
21
0.203062
31
0.0
0
LINE
8
FRONT
10
0.023039
20
0.203062
30
0.0
11
0.023848
21
0.202595
31
0.0
0
LINE
8
FRONT
10
0.023848
20
0.202595
30
0.0
11
0.024700
21
0.202211
31
0.0
0
LINE
8
FRONT
10
0.024700
20
0.202211
30
0.0
11
0.025586
21
0.201913
31
0.0
0
LINE
8
FRONT
10
0.025586
20
0.201913
30
0.0
11
0.026497
21
0.201705
31
0.0
0
LINE
8
FRONT
10
0.026497
20
0.201705
30
0.0
11
0.027424
21
0.201589
31
0.0
0
LINE
8
FRONT
10
0.027424
20
0.201589
30
0.0
11
0.028359
21
0.201565
31
0.0
0
LINE
8
FRONT
10
0.028359
20
0.201565
30
0.0
11
0.029291
21
0.201635
31
0.0
0
LINE
8
FRONT
10
0.029291
20
0.201635
30
0.0
11
0.030211
21
0.201798
31
0.0
0
LINE
8
FRONT
10
0.030211
20
0.201798
30
0.0
11
0.031111
21
0.202051
31
0.0
0
LINE
8
FRONT
10
0.031111
20
0.202051
30
0.0
11
0.031981
21
0.202392
31
0.0
0
LINE
8
FRONT
10
0.031981
20
0.202392
30
0.0
11
0.032813
21
0.202819
31
0.0
0
LINE
8
FRONT
10
0.032813
20
0.202819
30
0.0
11
0.033598
21
0.203326
31
0.0
0
LINE
8
FRONT
10
0.033598
20
0.203326
30
0.0
11
0.034328
21
0.203908
31
0.0
0
LINE
8
FRONT
10
0.034328
20
0.203908
30
0.0
11
0.034997
21
0.204561
31
0.0
0
LINE
8
FRONT
10
0.034997
20
0.204561
30
0.0
11
0.035598
21
0.205277
31
0.0
0
LINE
8
FRONT
10
0.035598
20
0.205277
30
0.0
11
0.036125
21
0.206049
31
0.0
0
LINE
8
FRONT
10
0.036125
20
0.206049
30
0.0
11
0.036572
21
0.206870
31
0.0
0
LINE
8
FRONT
10
0.036572
20
0.206870
30
0.0
11
0.036935
21
0.207731
31
0.0
0
LINE
8
FRONT
10
0.036935
20
0.207731
30
0.0
11
0.037210
21
0.208624
31
0.0
0
LINE
8
FRONT
10
0.037210
20
0.208624
30
0.0
11
0.037395
21
0.209540
31
0.0
0
LINE
8
FRONT
10
0.037395
20
0.209540
30
0.0
11
0.037488
21
0.210470
31
0.0
0
LINE
8
FRONT
10
0.037488
20
0.210470
30
0.0
11
0.037488
21
0.211405
31
0.0
0
LINE
8
FRONT
10
0.037488
20
0.211405
30
0.0
11
0.037395
21
0.212335
31
0.0
0
LINE
8
FRONT
10
0.037395
20
0.212335
30
0.0
11
0.037210
21
0.213251
31
0.0
0
LINE
8
FRONT
10
0.037210
20
0.213251
30
0.0
11
0.036935
21
0.214144
31
0.0
0
LINE
8
FRONT
10
0.036935
20
0.214144
30
0.0
11
0.036572
21
0.215005
31
0.0
0
LINE
8
FRONT
10
0.036572
20
0.215005
30
0.0
11
0.036125
21
0.215826
31
0.0
0
LINE
8
FRONT
10
0.036125
20
0.215826
30
0.0
11
0.035598
21
0.216598
31
0.0
0
LINE
8
FRONT
10
0.035598
20
0.216598
30
0.0
11
0.034997
21
0.217314
31
0.0
0
LINE
8
FRONT
10
0.034997
20
0.217314
30
0.0
11
0.034328
21
0.217967
31
0.0
0
LINE
8
FRONT
10
0.034328
20
0.217967
30
0.0
11
0.033598
21
0.218549
31
0.0
0
LINE
8
FRONT
10
0.033598
20
0.218549
30
0.0
11
0.032813
21
0.219056
31
0.0
0
LINE
8
FRONT
10
0.032813
20
0.219056
30
0.0
11
0.031981
21
0.219483
31
0.0
0
LINE
8
FRONT
10
0.031981
20
0.219483
30
0.0
11
0.031111
21
0.219824
31
0.0
0
LINE
8
FRONT
10
0.031111
20
0.219824
30
0.0
11
0.030211
21
0.220077
31
0.0
0
LINE
8
FRONT
10
0.030211
20
0.220077
30
0.0
11
0.029291
21
0.220240
31
0.0
0
LINE
8
FRONT
10
0.029291
20
0.220240
30
0.0
11
0.028359
21
0.220310
31
0.0
0
LINE
8
FRONT
10
0.028359
20
0.220310
30
0.0
11
0.027424
21
0.220286
31
0.0
0
LINE
8
FRONT
10
0.027424
20
0.220286
30
0.0
11
0.026497
21
0.220170
31
0.0
0
LINE
8
FRONT
10
0.026497
20
0.220170
30
0.0
11
0.025586
21
0.219962
31
0.0
0
LINE
8
FRONT
10
0.025586
20
0.219962
30
0.0
11
0.024700
21
0.219664
31
0.0
0
LINE
8
FRONT
10
0.024700
20
0.219664
30
0.0
11
0.023848
21
0.219280
31
0.0
0
LINE
8
FRONT
10
0.023848
20
0.219280
30
0.0
11
0.023039
21
0.218813
31
0.0
0
LINE
8
FRONT
10
0.023039
20
0.218813
30
0.0
11
0.022280
21
0.218267
31
0.0
0
LINE
8
FRONT
10
0.022280
20
0.218267
30
0.0
11
0.021579
21
0.217649
31
0.0
0
LINE
8
FRONT
10
0.021579
20
0.217649
30
0.0
11
0.020943
21
0.216964
31
0.0
0
LINE
8
FRONT
10
0.020943
20
0.216964
30
0.0
11
0.020379
21
0.216219
31
0.0
0
LINE
8
FRONT
10
0.020379
20
0.216219
30
0.0
11
0.019892
21
0.215421
31
0.0
0
LINE
8
FRONT
10
0.019892
20
0.215421
30
0.0
11
0.019486
21
0.214579
31
0.0
0
LINE
8
FRONT
10
0.019486
20
0.214579
30
0.0
11
0.019167
21
0.213701
31
0.0
0
LINE
8
FRONT
10
0.019167
20
0.213701
30
0.0
11
0.018936
21
0.212795
31
0.0
0
LINE
8
FRONT
10
0.018936
20
0.212795
30
0.0
11
0.018797
21
0.211871
31
0.0
0
LINE
8
FRONT
10
0.018797
20
0.211871
30
0.0
11
0.018750
21
0.210938
31
0.0
0
LINE
8
FRONT
10
0.365625
20
0.210938
30
0.0
11
0.365672
21
0.210004
31
0.0
0
LINE
8
FRONT
10
0.365672
20
0.210004
30
0.0
11
0.365811
21
0.209080
31
0.0
0
LINE
8
FRONT
10
0.365811
20
0.209080
30
0.0
11
0.366042
21
0.208174
31
0.0
0
LINE
8
FRONT
10
0.366042
20
0.208174
30
0.0
11
0.366361
21
0.207296
31
0.0
0
LINE
8
FRONT
10
0.366361
20
0.207296
30
0.0
11
0.366767
21
0.206454
31
0.0
0
LINE
8
FRONT
10
0.366767
20
0.206454
30
0.0
11
0.367254
21
0.205656
31
0.0
0
LINE
8
FRONT
10
0.367254
20
0.205656
30
0.0
11
0.367818
21
0.204911
31
0.0
0
LINE
8
FRONT
10
0.367818
20
0.204911
30
0.0
11
0.368454
21
0.204226
31
0.0
0
LINE
8
FRONT
10
0.368454
20
0.204226
30
0.0
11
0.369155
21
0.203608
31
0.0
0
LINE
8
FRONT
10
0.369155
20
0.203608
30
0.0
11
0.369914
21
0.203062
31
0.0
0
LINE
8
FRONT
10
0.369914
20
0.203062
30
0.0
11
0.370723
21
0.202595
31
0.0
0
LINE
8
FRONT
10
0.370723
20
0.202595
30
0.0
11
0.371575
21
0.202211
31
0.0
0
LINE
8
FRONT
10
0.371575
20
0.202211
30
0.0
11
0.372461
21
0.201913
31
0.0
0
LINE
8
FRONT
10
0.372461
20
0.201913
30
0.0
11
0.373372
21
0.201705
31
0.0
0
LINE
8
FRONT
10
0.373372
20
0.201705
30
0.0
11
0.374299
21
0.201589
31
0.0
0
LINE
8
FRONT
10
0.374299
20
0.201589
30
0.0
11
0.375234
21
0.201565
31
0.0
0
LINE
8
FRONT
10
0.375234
20
0.201565
30
0.0
11
0.376166
21
0.201635
31
0.0
0
LINE
8
FRONT
10
0.376166
20
0.201635
30
0.0
11
0.377086
21
0.201798
31
0.0
0
LINE
8
FRONT
10
0.377086
20
0.201798
30
0.0
11
0.377986
21
0.202051
31
0.0
0
LINE
8
FRONT
10
0.377986
20
0.202051
30
0.0
11
0.378856
21
0.202392
31
0.0
0
LINE
8
FRONT
10
0.378856
20
0.202392
30
0.0
11
0.379688
21
0.202819
31
0.0
0
LINE
8
FRONT
10
0.379688
20
0.202819
30
0.0
11
0.380473
21
0.203326
31
0.0
0
LINE
8
FRONT
10
0.380473
20
0.203326
30
0.0
11
0.381203
21
0.203908
31
0.0
0
LINE
8
FRONT
10
0.381203
20
0.203908
30
0.0
11
0.381872
21
0.204561
31
0.0
0
LINE
8
FRONT
10
0.381872
20
0.204561
30
0.0
11
0.382473
21
0.205277
31
0.0
0
LINE
8
FRONT
10
0.382473
20
0.205277
30
0.0
11
0.383000
21
0.206049
31
0.0
0
LINE
8
FRONT
10
0.383000
20
0.206049
30
0.0
11
0.383447
21
0.206870
31
0.0
0
LINE
8
FRONT
10
0.383447
20
0.206870
30
0.0
11
0.383810
21
0.207731
31
0.0
0
LINE
8
FRONT
10
0.383810
20
0.207731
30
0.0
11
0.384085
21
0.208624
31
0.0
0
LINE
8
FRONT
10
0.384085
20
0.208624
30
0.0
11
0.384270
21
0.209540
31
0.0
0
LINE
8
FRONT
10
0.384270
20
0.209540
30
0.0
11
0.384363
21
0.210470
31
0.0
0
LINE
8
FRONT
10
0.384363
20
0.210470
30
0.0
11
0.384363
21
0.211405
31
0.0
0
LINE
8
FRONT
10
0.384363
20
0.211405
30
0.0
11
0.384270
21
0.212335
31
0.0
0
LINE
8
FRONT
10
0.384270
20
0.212335
30
0.0
11
0.384085
21
0.213251
31
0.0
0
LINE
8
FRONT
10
0.384085
20
0.213251
30
0.0
11
0.383810
21
0.214144
31
0.0
0
LINE
8
FRONT
10
0.383810
20
0.214144
30
0.0
11
0.383447
21
0.215005
31
0.0
0
LINE
8
FRONT
10
0.383447
20
0.215005
30
0.0
11
0.383000
21
0.215826
31
0.0
0
LINE
8
FRONT
10
0.383000
20
0.215826
30
0.0
11
0.382473
21
0.216598
31
0.0
0
LINE
8
FRONT
10
0.382473
20
0.216598
30
0.0
11
0.381872
21
0.217314
31
0.0
0
LINE
8
FRONT
10
0.381872
20
0.217314
30
0.0
11
0.381203
21
0.217967
31
0.0
0
LINE
8
FRONT
10
0.381203
20
0.217967
30
0.0
11
0.380473
21
0.218549
31
0.0
0
LINE
8
FRONT
10
0.380473
20
0.218549
30
0.0
11
0.379688
21
0.219056
31
0.0
0
LINE
8
FRONT
10
0.379688
20
0.219056
30
0.0
11
0.378856
21
0.219483
31
0.0
0
LINE
8
FRONT
10
0.378856
20
0.219483
30
0.0
11
0.377986
21
0.219824
31
0.0
0
LINE
8
FRONT
10
0.377986
20
0.219824
30
0.0
11
0.377086
21
0.220077
31
0.0
0
LINE
8
FRONT
10
0.377086
20
0.220077
30
0.0
11
0.376166
21
0.220240
31
0.0
0
LINE
8
FRONT
10
0.376166
20
0.220240
30
0.0
11
0.375234
21
0.220310
31
0.0
0
LINE
8
FRONT
10
0.375234
20
0.220310
30
0.0
11
0.374299
21
0.220286
31
0.0
0
LINE
8
FRONT
10
0.374299
20
0.220286
30
0.0
11
0.373372
21
0.220170
31
0.0
0
LINE
8
FRONT
10
0.373372
20
0.220170
30
0.0
11
0.372461
21
0.219962
31
0.0
0
LINE
8
FRONT
10
0.372461
20
0.219962
30
0.0
11
0.371575
21
0.219664
31
0.0
0
LINE
8
FRONT
10
0.371575
20
0.219664
30
0.0
11
0.370723
21
0.219280
31
0.0
0
LINE
8
FRONT
10
0.370723
20
0.219280
30
0.0
11
0.369914
21
0.218813
31
0.0
0
LINE
8
FRONT
10
0.369914
20
0.218813
30
0.0
11
0.369155
21
0.218267
31
0.0
0
LINE
8
FRONT
10
0.369155
20
0.218267
30
0.0
11
0.368454
21
0.217649
31
0.0
0
LINE
8
FRONT
10
0.368454
20
0.217649
30
0.0
11
0.367818
21
0.216964
31
0.0
0
LINE
8
FRONT
10
0.367818
20
0.216964
30
0.0
11
0.367254
21
0.216219
31
0.0
0
LINE
8
FRONT
10
0.367254
20
0.216219
30
0.0
11
0.366767
21
0.215421
31
0.0
0
LINE
8
FRONT
10
0.366767
20
0.215421
30
0.0
11
0.366361
21
0.214579
31
0.0
0
LINE
8
FRONT
10
0.366361
20
0.214579
30
0.0
11
0.366042
21
0.213701
31
0.0
0
LINE
8
FRONT
10
0.366042
20
0.213701
30
0.0
11
0.365811
21
0.212795
31
0.0
0
LINE
8
FRONT
10
0.365811
20
0.212795
30
0.0
11
0.365672
21
0.211871
31
0.0
0
LINE
8
FRONT
10
0.365672
20
0.211871
30
0.0
11
0.365625
21
0.210938
31
0.0
0
LINE
8
LEFT
10
0.900000
20
0.210938
30
0.0
11
0.928125
21
0.210938
31
0.0
0
LINE
8
LEFT
10
0.928125
20
0.210938
30
0.0
11
0.928125
21
0.178125
31
0.0
0
LINE
8
LEFT
10
0.900000
20
0.178125
30
0.0
11
0.928125
21
0.178125
31
0.0
0
LINE
8
LEFT
10
0.900000
20
0.210938
30
0.0
11
0.900000
21
0.178125
31
0.0
0
LINE
8
LEFT
10
0.900000
20
0.243750
30
0.0
11
0.928125
21
0.243750
31
0.0
0
LINE
8
LEFT
10
0.928125
20
0.243750
30
0.0
11
0.928125
21
0.210938
31
0.0
0
LINE
8
LEFT
10
0.900000
20
0.243750
30
0.0
11
0.900000
21
0.210938
31
0.0
0
LINE
8
LEFT_HID
6
HIDDEN
10
0.928125
20
0.178125
30
0.0
11
0.928125
21
0.243750
31
0.0
0
LINE
8
LEFT_HID
6
HIDDEN
10
0.900000
20
0.178125
30
0.0
11
0.900000
21
0.243750
31
0.0
0
LINE
8
LEFT_HID
6
HIDDEN
10
0.900000
20
0.210938
30
0.0
11
0.900000
21
0.201563
31
0.0
0
LINE
8
LEFT_HID
6
HIDDEN
10
0.900000
20
0.201563
30
0.0
11
0.900000
21
0.220313
31
0.0
0
LINE
8
LEFT_HID
6
HIDDEN
10
0.900000
20
0.220313
30
0.0
11
0.900000
21
0.210938
31
0.0
0
LINE
8
LEFT_HID
6
HIDDEN
10
0.928125
20
0.210938
30
0.0
11
0.928125
21
0.201563
31
0.0
0
LINE
8
LEFT_HID
6
HIDDEN
10
0.928125
20
0.201563
30
0.0
11
0.928125
21
0.220313
31
0.0
0
LINE
8
LEFT_HID
6
HIDDEN
10
0.928125
20
0.220313
30
0.0
11
0.928125
21
0.210938
31
0.0
0
LINE
8
LEFT_HID
6
HIDDEN
10
0.900000
20
0.210938
30
0.0
11
0.900000
21
0.201563
31
0.0
0
LINE
8
LEFT_HID
6
HIDDEN
10
0.900000
20
0.201563
30
0.0
11
0.900000
21
0.220313
31
0.0
0
LINE
8
LEFT_HID
6
HIDDEN
10
0.900000
20
0.220313
30
0.0
11
0.900000
21
0.210938
31
0.0
0
LINE
8
LEFT_HID
6
HIDDEN
10
0.928125
20
0.210938
30
0.0
11
0.928125
21
0.201563
31
0.0
0
LINE
8
LEFT_HID
6
HIDDEN
10
0.928125
20
0.201563
30
0.0
11
0.928125
21
0.220313
31
0.0
0
LINE
8
LEFT_HID
6
HIDDEN
10
0.928125
20
0.220313
30
0.0
11
0.928125
21
0.210938
31
0.0
0
LINE
8
LEFT_HID
6
HIDDEN
10
0.928125
20
0.220313
30
0.0
11
0.900000
21
0.220313
31
0.0
0
LINE
8
LEFT_HID
6
HIDDEN
10
0.928125
20
0.201563
30
0.0
11
0.900000
21
0.201563
31
0.0
0
LINE
8
LEFT_HID
6
HIDDEN
10
0.928125
20
0.220313
30
0.0
11
0.900000
21
0.220313
31
0.0
0
LINE
8
LEFT_HID
6
HIDDEN
10
0.928125
20
0.201563
30
0.0
11
0.900000
21
0.201563
31
0.0
0
LINE
8
TOP
10
0.000000
20
0.028125
30
0.0
11
0.000000
21
0.000000
31
0.0
0
LINE
8
TOP
10
0.750000
20
0.028125
30
0.0
11
0.750000
21
0.000000
31
0.0
0
LINE
8
TOP
10
0.750000
20
0.000000
30
0.0
11
0.717188
21
0.000000
31
0.0
0
LINE
8
TOP
10
0.717188
20
0.028125
30
0.0
11
0.717188
21
0.000000
31
0.0
0
LINE
8
TOP
10
0.750000
20
0.028125
30
0.0
11
0.717188
21
0.028125
31
0.0
0
LINE
8
TOP
10
0.717188
20
0.000000
30
0.0
11
0.028125
21
0.000000
31
0.0
0
LINE
8
TOP
10
0.717188
20
0.028125
30
0.0
11
0.028125
21
0.028125
31
0.0
0
LINE
8
TOP
10
0.028125
20
0.000000
30
0.0
11
0.016719
21
0.000000
31
0.0
0
LINE
8
TOP
10
0.016719
20
0.028125
30
0.0
11
0.016719
21
0.000000
31
0.0
0
LINE
8
TOP
10
0.028125
20
0.028125
30
0.0
11
0.016719
21
0.028125
31
0.0
0
LINE
8
TOP
10
0.016719
20
0.000000
30
0.0
11
0.000000
21
0.000000
31
0.0
0
LINE
8
TOP
10
0.016719
20
0.028125
30
0.0
11
0.000000
21
0.028125
31
0.0
0
LINE
8
TOP_HID
6
HIDDEN
10
0.028125
20
0.000000
30
0.0
11
0.750000
21
0.000000
31
0.0
0
LINE
8
TOP_HID
6
HIDDEN
10
0.028125
20
0.028125
30
0.0
11
0.750000
21
0.028125
31
0.0
0
LINE
8
TOP_HID
6
HIDDEN
10
0.018750
20
0.028125
30
0.0
11
0.037500
21
0.028125
31
0.0
0
LINE
8
TOP_HID
6
HIDDEN
10
0.037500
20
0.028125
30
0.0
11
0.018750
21
0.028125
31
0.0
0
LINE
8
TOP_HID
6
HIDDEN
10
0.018750
20
0.028125
30
0.0
11
0.018750
21
0.000000
31
0.0
0
LINE
8
TOP_HID
6
HIDDEN
10
0.018750
20
0.000000
30
0.0
11
0.037500
21
0.000000
31
0.0
0
LINE
8
TOP_HID
6
HIDDEN
10
0.037500
20
0.000000
30
0.0
11
0.018750
21
0.000000
31
0.0
0
LINE
8
TOP_HID
6
HIDDEN
10
0.365625
20
0.028125
30
0.0
11
0.384375
21
0.028125
31
0.0
0
LINE
8
TOP_HID
6
HIDDEN
10
0.384375
20
0.028125
30
0.0
11
0.365625
21
0.028125
31
0.0
0
LINE
8
TOP_HID
6
HIDDEN
10
0.365625
20
0.028125
30
0.0
11
0.365625
21
0.000000
31
0.0
0
LINE
8
TOP_HID
6
HIDDEN
10
0.365625
20
0.000000
30
0.0
11
0.384375
21
0.000000
31
0.0
0
LINE
8
TOP_HID
6
HIDDEN
10
0.384375
20
0.000000
30
0.0
11
0.365625
21
0.000000
31
0.0
0
LINE
8
TOP_HID
6
HIDDEN
10
0.037500
20
0.000000
30
0.0
11
0.037500
21
0.028125
31
0.0
0
LINE
8
TOP_HID
6
HIDDEN
10
0.384375
20
0.000000
30
0.0
11
0.384375
21
0.028125
31
0.0
0
ENDSEC
0
EOF
