0
SECTION
2
HEADER
9
$ACADVER
1
AC1009
0
ENDSEC
0
SECTION
2
TABLES
0
TABLE
2
LTYPE
70
3
0
LTYPE
2
CONTINUOUS
70
0
3
Solid line
72
65
73
0
40
0.0
0
LTYPE
2
HIDDEN
70
0
3
__ __ __ __ __
72
65
73
2
40
0.037500
49
0.025013
49
-0.012488
0
LTYPE
2
CENTER
70
0
3
___ _ ___ _ ___
72
65
73
4
40
0.087488
49
0.049988
49
-0.012488
49
0.012488
49
-0.012488
0
ENDTAB
0
TABLE
2
LAYER
70
7
0
LAYER
2
0
70
0
62
7
6
CONTINUOUS
0
LAYER
2
FRONT
70
0
62
7
6
CONTINUOUS
0
LAYER
2
FRONT_HID
70
0
62
7
6
HIDDEN
0
LAYER
2
LEFT
70
0
62
7
6
CONTINUOUS
0
LAYER
2
LEFT_HID
70
0
62
7
6
HIDDEN
0
LAYER
2
TOP
70
0
62
7
6
CONTINUOUS
0
LAYER
2
TOP_HID
70
0
62
7
6
HIDDEN
0
ENDTAB
0
ENDSEC
0
SECTION
2
ENTITIES
0
LINE
8
FRONT
10
0.000000
20
1.062571
30
0.0
11
0.000002
21
1.061786
31
0.0
0
LINE
8
FRONT
10
0.000002
20
1.061786
30
0.0
11
0.000008
21
1.061000
31
0.0
0
LINE
8
FRONT
10
0.000008
20
1.061000
30
0.0
11
0.000017
21
1.060215
31
0.0
0
LINE
8
FRONT
10
0.000017
20
1.060215
30
0.0
11
0.000030
21
1.059430
31
0.0
0
LINE
8
FRONT
10
0.000030
20
1.059430
30
0.0
11
0.000047
21
1.058645
31
0.0
0
LINE
8
FRONT
10
0.000047
20
1.058645
30
0.0
11
0.000068
21
1.057860
31
0.0
0
LINE
8
FRONT
10
0.000068
20
1.057860
30
0.0
11
0.000093
21
1.057075
31
0.0
0
LINE
8
FRONT
10
0.000093
20
1.057075
30
0.0
11
0.000121
21
1.056291
31
0.0
0
LINE
8
FRONT
10
0.000121
20
1.056291
30
0.0
11
0.000154
21
1.055506
31
0.0
0
LINE
8
FRONT
10
0.000154
20
1.055506
30
0.0
11
0.000190
21
1.054722
31
0.0
0
LINE
8
FRONT
10
0.000190
20
1.054722
30
0.0
11
0.000229
21
1.053937
31
0.0
0
LINE
8
FRONT
10
0.000229
20
1.053937
30
0.0
11
0.000273
21
1.053153
31
0.0
0
LINE
8
FRONT
10
0.000273
20
1.053153
30
0.0
11
0.000320
21
1.052369
31
0.0
0
LINE
8
FRONT
10
0.000320
20
1.052369
30
0.0
11
0.000371
21
1.051586
31
0.0
0
LINE
8
FRONT
10
0.000371
20
1.051586
30
0.0
11
0.000426
21
1.050803
31
0.0
0
LINE
8
FRONT
10
0.000426
20
1.050803
30
0.0
11
0.000485
21
1.050020
31
0.0
0
LINE
8
FRONT
10
0.000485
20
1.050020
30
0.0
11
0.000548
21
1.049237
31
0.0
0
LINE
8
FRONT
10
0.000548
20
1.049237
30
0.0
11
0.000614
21
1.048454
31
0.0
0
LINE
8
FRONT
10
0.000614
20
1.048454
30
0.0
11
0.000684
21
1.047672
31
0.0
0
LINE
8
FRONT
10
0.000684
20
1.047672
30
0.0
11
0.000758
21
1.046890
31
0.0
0
LINE
8
FRONT
10
0.000758
20
1.046890
30
0.0
11
0.000835
21
1.046109
31
0.0
0
LINE
8
FRONT
10
0.000835
20
1.046109
30
0.0
11
0.000917
21
1.045328
31
0.0
0
LINE
8
FRONT
10
0.000917
20
1.045328
30
0.0
11
0.001002
21
1.044547
31
0.0
0
LINE
8
FRONT
10
0.001002
20
1.044547
30
0.0
11
0.001091
21
1.043767
31
0.0
0
LINE
8
FRONT
10
0.001091
20
1.043767
30
0.0
11
0.001183
21
1.042987
31
0.0
0
LINE
8
FRONT
10
0.001183
20
1.042987
30
0.0
11
0.001280
21
1.042208
31
0.0
0
LINE
8
FRONT
10
0.001280
20
1.042208
30
0.0
11
0.001380
21
1.041429
31
0.0
0
LINE
8
FRONT
10
0.001380
20
1.041429
30
0.0
11
0.001484
21
1.040651
31
0.0
0
LINE
8
FRONT
10
0.001484
20
1.040651
30
0.0
11
0.001592
21
1.039873
31
0.0
0
LINE
8
FRONT
10
0.001592
20
1.039873
30
0.0
11
0.001703
21
1.039096
31
0.0
0
LINE
8
FRONT
10
0.001703
20
1.039096
30
0.0
11
0.001819
21
1.038319
31
0.0
0
LINE
8
FRONT
10
0.001819
20
1.038319
30
0.0
11
0.001937
21
1.037543
31
0.0
0
LINE
8
FRONT
10
0.001937
20
1.037543
30
0.0
11
0.002060
21
1.036767
31
0.0
0
LINE
8
FRONT
10
0.002060
20
1.036767
30
0.0
11
0.002187
21
1.035992
31
0.0
0
LINE
8
FRONT
10
0.002187
20
1.035992
30
0.0
11
0.002317
21
1.035218
31
0.0
0
LINE
8
FRONT
10
0.002317
20
1.035218
30
0.0
11
0.002451
21
1.034444
31
0.0
0
LINE
8
FRONT
10
0.002451
20
1.034444
30
0.0
11
0.002589
21
1.033671
31
0.0
0
LINE
8
FRONT
10
0.002589
20
1.033671
30
0.0
11
0.002730
21
1.032899
31
0.0
0
LINE
8
FRONT
10
0.002730
20
1.032899
30
0.0
11
0.002875
21
1.032127
31
0.0
0
LINE
8
FRONT
10
0.002875
20
1.032127
30
0.0
11
0.003024
21
1.031356
31
0.0
0
LINE
8
FRONT
10
0.003024
20
1.031356
30
0.0
11
0.003177
21
1.030586
31
0.0
0
LINE
8
FRONT
10
0.003177
20
1.030586
30
0.0
11
0.003333
21
1.029816
31
0.0
0
LINE
8
FRONT
10
0.003333
20
1.029816
30
0.0
11
0.003493
21
1.029048
31
0.0
0
LINE
8
FRONT
10
0.003493
20
1.029048
30
0.0
11
0.003657
21
1.028280
31
0.0
0
LINE
8
FRONT
10
0.003657
20
1.028280
30
0.0
11
0.003824
21
1.027512
31
0.0
0
LINE
8
FRONT
10
0.003824
20
1.027512
30
0.0
11
0.003995
21
1.026746
31
0.0
0
LINE
8
FRONT
10
0.003995
20
1.026746
30
0.0
11
0.004170
21
1.025980
31
0.0
0
LINE
8
FRONT
10
0.004170
20
1.025980
30
0.0
11
0.004348
21
1.025216
31
0.0
0
LINE
8
FRONT
10
0.004348
20
1.025216
30
0.0
11
0.004531
21
1.024452
31
0.0
0
LINE
8
FRONT
10
0.004531
20
1.024452
30
0.0
11
0.004717
21
1.023689
31
0.0
0
LINE
8
FRONT
10
0.004717
20
1.023689
30
0.0
11
0.004906
21
1.022927
31
0.0
0
LINE
8
FRONT
10
0.004906
20
1.022927
30
0.0
11
0.005099
21
1.022166
31
0.0
0
LINE
8
FRONT
10
0.005099
20
1.022166
30
0.0
11
0.005296
21
1.021406
31
0.0
0
LINE
8
FRONT
10
0.005296
20
1.021406
30
0.0
11
0.005497
21
1.020647
31
0.0
0
LINE
8
FRONT
10
0.005497
20
1.020647
30
0.0
11
0.005701
21
1.019888
31
0.0
0
LINE
8
FRONT
10
0.005701
20
1.019888
30
0.0
11
0.005909
21
1.019131
31
0.0
0
LINE
8
FRONT
10
0.005909
20
1.019131
30
0.0
11
0.006121
21
1.018375
31
0.0
0
LINE
8
FRONT
10
0.006121
20
1.018375
30
0.0
11
0.006336
21
1.017620
31
0.0
0
LINE
8
FRONT
10
0.006336
20
1.017620
30
0.0
11
0.006555
21
1.016866
31
0.0
0
LINE
8
FRONT
10
0.006555
20
1.016866
30
0.0
11
0.006777
21
1.016113
31
0.0
0
LINE
8
FRONT
10
0.006777
20
1.016113
30
0.0
11
0.007004
21
1.015361
31
0.0
0
LINE
8
FRONT
10
0.007004
20
1.015361
30
0.0
11
0.007233
21
1.014610
31
0.0
0
LINE
8
FRONT
10
0.007233
20
1.014610
30
0.0
11
0.007467
21
1.013860
31
0.0
0
LINE
8
FRONT
10
0.007467
20
1.013860
30
0.0
11
0.009262
21
1.009265
31
0.0
0
LINE
8
FRONT
10
0.009262
20
1.009265
30
0.0
11
0.011058
21
1.004670
31
0.0
0
LINE
8
FRONT
10
0.011058
20
1.004670
30
0.0
11
0.012853
21
1.000076
31
0.0
0
LINE
8
FRONT
10
0.012853
20
1.000076
30
0.0
11
0.014649
21
0.995481
31
0.0
0
LINE
8
FRONT
10
0.014649
20
0.995481
30
0.0
11
0.016749
21
0.991030
31
0.0
0
LINE
8
FRONT
10
0.016749
20
0.991030
30
0.0
11
0.019153
21
0.986722
31
0.0
0
LINE
8
FRONT
10
0.019153
20
0.986722
30
0.0
11
0.021558
21
0.982415
31
0.0
0
LINE
8
FRONT
10
0.021558
20
0.982415
30
0.0
11
0.023962
21
0.978107
31
0.0
0
LINE
8
FRONT
10
0.023962
20
0.978107
30
0.0
11
0.026367
21
0.973800
31
0.0
0
LINE
8
FRONT
10
0.026367
20
0.973800
30
0.0
11
0.029335
21
0.969860
31
0.0
0
LINE
8
FRONT
10
0.029335
20
0.969860
30
0.0
11
0.032304
21
0.965920
31
0.0
0
LINE
8
FRONT
10
0.032304
20
0.965920
30
0.0
11
0.035273
21
0.961980
31
0.0
0
LINE
8
FRONT
10
0.035273
20
0.961980
30
0.0
11
0.038242
21
0.958040
31
0.0
0
LINE
8
FRONT
10
0.038242
20
0.958040
30
0.0
11
0.041465
21
0.954321
31
0.0
0
LINE
8
FRONT
10
0.041465
20
0.954321
30
0.0
11
0.044942
21
0.950822
31
0.0
0
LINE
8
FRONT
10
0.044942
20
0.950822
30
0.0
11
0.048420
21
0.947323
31
0.0
0
LINE
8
FRONT
10
0.048420
20
0.947323
30
0.0
11
0.051898
21
0.943824
31
0.0
0
LINE
8
FRONT
10
0.051898
20
0.943824
30
0.0
11
0.055375
21
0.940325
31
0.0
0
LINE
8
FRONT
10
0.055375
20
0.940325
30
0.0
11
0.059297
21
0.937332
31
0.0
0
LINE
8
FRONT
10
0.059297
20
0.937332
30
0.0
11
0.063219
21
0.934340
31
0.0
0
LINE
8
FRONT
10
0.063219
20
0.934340
30
0.0
11
0.067141
21
0.931347
31
0.0
0
LINE
8
FRONT
10
0.067141
20
0.931347
30
0.0
11
0.071063
21
0.928355
31
0.0
0
LINE
8
FRONT
10
0.071063
20
0.928355
30
0.0
11
0.075170
21
0.925643
31
0.0
0
LINE
8
FRONT
10
0.075170
20
0.925643
30
0.0
11
0.079463
21
0.923212
31
0.0
0
LINE
8
FRONT
10
0.079463
20
0.923212
30
0.0
11
0.083755
21
0.920782
31
0.0
0
LINE
8
FRONT
10
0.083755
20
0.920782
30
0.0
11
0.088048
21
0.918351
31
0.0
0
LINE
8
FRONT
10
0.088048
20
0.918351
30
0.0
11
0.092341
21
0.915920
31
0.0
0
LINE
8
FRONT
10
0.092341
20
0.915920
30
0.0
11
0.096925
21
0.914097
31
0.0
0
LINE
8
FRONT
10
0.096925
20
0.914097
30
0.0
11
0.101509
21
0.912274
31
0.0
0
LINE
8
FRONT
10
0.101509
20
0.912274
30
0.0
11
0.106093
21
0.910450
31
0.0
0
LINE
8
FRONT
10
0.106093
20
0.910450
30
0.0
11
0.110676
21
0.908627
31
0.0
0
LINE
8
FRONT
10
0.110676
20
0.908627
30
0.0
11
0.115363
21
0.907124
31
0.0
0
LINE
8
FRONT
10
0.115363
20
0.907124
30
0.0
11
0.120152
21
0.905942
31
0.0
0
LINE
8
FRONT
10
0.120152
20
0.905942
30
0.0
11
0.124942
21
0.904760
31
0.0
0
LINE
8
FRONT
10
0.124942
20
0.904760
30
0.0
11
0.129731
21
0.903578
31
0.0
0
LINE
8
FRONT
10
0.129731
20
0.903578
30
0.0
11
0.134521
21
0.902396
31
0.0
0
LINE
8
FRONT
10
0.134521
20
0.902396
30
0.0
11
0.139427
21
0.901877
31
0.0
0
LINE
8
FRONT
10
0.139427
20
0.901877
30
0.0
11
0.144332
21
0.901358
31
0.0
0
LINE
8
FRONT
10
0.144332
20
0.901358
30
0.0
11
0.149238
21
0.900839
31
0.0
0
LINE
8
FRONT
10
0.149238
20
0.900839
30
0.0
11
0.154144
21
0.900320
31
0.0
0
LINE
8
FRONT
10
0.154144
20
0.900320
30
0.0
11
0.159062
21
0.900138
31
0.0
0
LINE
8
FRONT
10
0.159062
20
0.900138
30
0.0
11
0.163993
21
0.900292
31
0.0
0
LINE
8
FRONT
10
0.163993
20
0.900292
30
0.0
11
0.168924
21
0.900446
31
0.0
0
LINE
8
FRONT
10
0.168924
20
0.900446
30
0.0
11
0.173855
21
0.900601
31
0.0
0
LINE
8
FRONT
10
0.173855
20
0.900601
30
0.0
11
0.178785
21
0.900755
31
0.0
0
LINE
8
FRONT
10
0.178785
20
0.900755
30
0.0
11
0.183649
21
0.901579
31
0.0
0
LINE
8
FRONT
10
0.183649
20
0.901579
30
0.0
11
0.188513
21
0.902403
31
0.0
0
LINE
8
FRONT
10
0.188513
20
0.902403
30
0.0
11
0.193377
21
0.903227
31
0.0
0
LINE
8
FRONT
10
0.193377
20
0.903227
30
0.0
11
0.198241
21
0.904052
31
0.0
0
LINE
8
FRONT
10
0.198241
20
0.904052
30
0.0
11
0.203026
21
0.905203
31
0.0
0
LINE
8
FRONT
10
0.203026
20
0.905203
30
0.0
11
0.207732
21
0.906682
31
0.0
0
LINE
8
FRONT
10
0.207732
20
0.906682
30
0.0
11
0.212438
21
0.908161
31
0.0
0
LINE
8
FRONT
10
0.212438
20
0.908161
30
0.0
11
0.217145
21
0.909640
31
0.0
0
LINE
8
FRONT
10
0.217145
20
0.909640
30
0.0
11
0.221851
21
0.911119
31
0.0
0
LINE
8
FRONT
10
0.221851
20
0.911119
30
0.0
11
0.226312
21
0.913225
31
0.0
0
LINE
8
FRONT
10
0.226312
20
0.913225
30
0.0
11
0.230773
21
0.915331
31
0.0
0
LINE
8
FRONT
10
0.230773
20
0.915331
30
0.0
11
0.235234
21
0.917438
31
0.0
0
LINE
8
FRONT
10
0.235234
20
0.917438
30
0.0
11
0.239695
21
0.919544
31
0.0
0
LINE
8
FRONT
10
0.239695
20
0.919544
30
0.0
11
0.243992
21
0.921944
31
0.0
0
LINE
8
FRONT
10
0.243992
20
0.921944
30
0.0
11
0.248124
21
0.924638
31
0.0
0
LINE
8
FRONT
10
0.248124
20
0.924638
30
0.0
11
0.252257
21
0.927332
31
0.0
0
LINE
8
FRONT
10
0.252257
20
0.927332
30
0.0
11
0.256389
21
0.930026
31
0.0
0
LINE
8
FRONT
10
0.256389
20
0.930026
30
0.0
11
0.260522
21
0.932720
31
0.0
0
LINE
8
FRONT
10
0.260522
20
0.932720
30
0.0
11
0.262379
21
0.934219
31
0.0
0
LINE
8
FRONT
10
0.262379
20
0.934219
30
0.0
11
0.264236
21
0.935718
31
0.0
0
LINE
8
FRONT
10
0.264236
20
0.935718
30
0.0
11
0.266094
21
0.937217
31
0.0
0
LINE
8
FRONT
10
0.266094
20
0.937217
30
0.0
11
0.267951
21
0.938716
31
0.0
0
LINE
8
FRONT
10
0.267951
20
0.938716
30
0.0
11
0.269757
21
0.940275
31
0.0
0
LINE
8
FRONT
10
0.269757
20
0.940275
30
0.0
11
0.271511
21
0.941893
31
0.0
0
LINE
8
FRONT
10
0.271511
20
0.941893
30
0.0
11
0.273265
21
0.943511
31
0.0
0
LINE
8
FRONT
10
0.273265
20
0.943511
30
0.0
11
0.275019
21
0.945129
31
0.0
0
LINE
8
FRONT
10
0.275019
20
0.945129
30
0.0
11
0.276774
21
0.946748
31
0.0
0
LINE
8
FRONT
10
0.276774
20
0.946748
30
0.0
11
0.278417
21
0.948478
31
0.0
0
LINE
8
FRONT
10
0.278417
20
0.948478
30
0.0
11
0.280061
21
0.950209
31
0.0
0
LINE
8
FRONT
10
0.280061
20
0.950209
30
0.0
11
0.281704
21
0.951939
31
0.0
0
LINE
8
FRONT
10
0.281704
20
0.951939
30
0.0
11
0.283348
21
0.953670
31
0.0
0
LINE
8
FRONT
10
0.283348
20
0.953670
30
0.0
11
0.284933
21
0.955453
31
0.0
0
LINE
8
FRONT
10
0.284933
20
0.955453
30
0.0
11
0.286459
21
0.957288
31
0.0
0
LINE
8
FRONT
10
0.286459
20
0.957288
30
0.0
11
0.287984
21
0.959123
31
0.0
0
LINE
8
FRONT
10
0.287984
20
0.959123
30
0.0
11
0.289510
21
0.960959
31
0.0
0
LINE
8
FRONT
10
0.289510
20
0.960959
30
0.0
11
0.291036
21
0.962794
31
0.0
0
LINE
8
FRONT
10
0.291036
20
0.962794
30
0.0
11
0.292437
21
0.964726
31
0.0
0
LINE
8
FRONT
10
0.292437
20
0.964726
30
0.0
11
0.293839
21
0.966658
31
0.0
0
LINE
8
FRONT
10
0.293839
20
0.966658
30
0.0
11
0.295240
21
0.968590
31
0.0
0
LINE
8
FRONT
10
0.295240
20
0.968590
30
0.0
11
0.296641
21
0.970522
31
0.0
0
LINE
8
FRONT
10
0.296641
20
0.970522
30
0.0
11
0.297977
21
0.972498
31
0.0
0
LINE
8
FRONT
10
0.297977
20
0.972498
30
0.0
11
0.299248
21
0.974518
31
0.0
0
LINE
8
FRONT
10
0.299248
20
0.974518
30
0.0
11
0.300519
21
0.976538
31
0.0
0
LINE
8
FRONT
10
0.300519
20
0.976538
30
0.0
11
0.301789
21
0.978559
31
0.0
0
LINE
8
FRONT
10
0.301789
20
0.978559
30
0.0
11
0.303060
21
0.980579
31
0.0
0
LINE
8
FRONT
10
0.303060
20
0.980579
30
0.0
11
0.304195
21
0.982679
31
0.0
0
LINE
8
FRONT
10
0.304195
20
0.982679
30
0.0
11
0.305329
21
0.984778
31
0.0
0
LINE
8
FRONT
10
0.305329
20
0.984778
30
0.0
11
0.306464
21
0.986878
31
0.0
0
LINE
8
FRONT
10
0.306464
20
0.986878
30
0.0
11
0.307599
21
0.988978
31
0.0
0
LINE
8
FRONT
10
0.307599
20
0.988978
30
0.0
11
0.308663
21
0.991113
31
0.0
0
LINE
8
FRONT
10
0.308663
20
0.991113
30
0.0
11
0.309656
21
0.993283
31
0.0
0
LINE
8
FRONT
10
0.309656
20
0.993283
30
0.0
11
0.310650
21
0.995453
31
0.0
0
LINE
8
FRONT
10
0.310650
20
0.995453
30
0.0
11
0.311643
21
0.997623
31
0.0
0
LINE
8
FRONT
10
0.311643
20
0.997623
30
0.0
11
0.312637
21
0.999793
31
0.0
0
LINE
8
FRONT
10
0.312637
20
0.999793
30
0.0
11
0.313485
21
1.002024
31
0.0
0
LINE
8
FRONT
10
0.313485
20
1.002024
30
0.0
11
0.314333
21
1.004255
31
0.0
0
LINE
8
FRONT
10
0.314333
20
1.004255
30
0.0
11
0.315181
21
1.006486
31
0.0
0
LINE
8
FRONT
10
0.315181
20
1.006486
30
0.0
11
0.316030
21
1.008717
31
0.0
0
LINE
8
FRONT
10
0.316030
20
1.008717
30
0.0
11
0.316803
21
1.010973
31
0.0
0
LINE
8
FRONT
10
0.316803
20
1.010973
30
0.0
11
0.317502
21
1.013255
31
0.0
0
LINE
8
FRONT
10
0.317502
20
1.013255
30
0.0
11
0.318201
21
1.015537
31
0.0
0
LINE
8
FRONT
10
0.318201
20
1.015537
30
0.0
11
0.318900
21
1.017819
31
0.0
0
LINE
8
FRONT
10
0.318900
20
1.017819
30
0.0
11
0.319599
21
1.020101
31
0.0
0
LINE
8
FRONT
10
0.319599
20
1.020101
30
0.0
11
0.320146
21
1.022424
31
0.0
0
LINE
8
FRONT
10
0.320146
20
1.022424
30
0.0
11
0.320693
21
1.024747
31
0.0
0
LINE
8
FRONT
10
0.320693
20
1.024747
30
0.0
11
0.321240
21
1.027071
31
0.0
0
LINE
8
FRONT
10
0.321240
20
1.027071
30
0.0
11
0.321787
21
1.029394
31
0.0
0
LINE
8
FRONT
10
0.321787
20
1.029394
30
0.0
11
0.322256
21
1.031732
31
0.0
0
LINE
8
FRONT
10
0.322256
20
1.031732
30
0.0
11
0.322649
21
1.034087
31
0.0
0
LINE
8
FRONT
10
0.322649
20
1.034087
30
0.0
11
0.323041
21
1.036441
31
0.0
0
LINE
8
FRONT
10
0.323041
20
1.036441
30
0.0
11
0.323433
21
1.038795
31
0.0
0
LINE
8
FRONT
10
0.323433
20
1.038795
30
0.0
11
0.323826
21
1.041149
31
0.0
0
LINE
8
FRONT
10
0.323826
20
1.041149
30
0.0
11
0.324062
21
1.043524
31
0.0
0
LINE
8
FRONT
10
0.324062
20
1.043524
30
0.0
11
0.324298
21
1.045899
31
0.0
0
LINE
8
FRONT
10
0.324298
20
1.045899
30
0.0
11
0.324534
21
1.048274
31
0.0
0
LINE
8
FRONT
10
0.324534
20
1.048274
30
0.0
11
0.324770
21
1.050649
31
0.0
0
LINE
8
FRONT
10
0.324770
20
1.050649
30
0.0
11
0.324928
21
1.053029
31
0.0
0
LINE
8
FRONT
10
0.324928
20
1.053029
30
0.0
11
0.325006
21
1.055415
31
0.0
0
LINE
8
FRONT
10
0.325006
20
1.055415
30
0.0
11
0.325085
21
1.057800
31
0.0
0
LINE
8
FRONT
10
0.325085
20
1.057800
30
0.0
11
0.325164
21
1.060186
31
0.0
0
LINE
8
FRONT
10
0.325164
20
1.060186
30
0.0
11
0.325243
21
1.062571
31
0.0
0
LINE
8
FRONT
10
0.325243
20
1.062571
30
0.0
11
0.325041
21
1.070677
31
0.0
0
LINE
8
FRONT
10
0.325041
20
1.070677
30
0.0
11
0.324435
21
1.078763
31
0.0
0
LINE
8
FRONT
10
0.324435
20
1.078763
30
0.0
11
0.323427
21
1.086808
31
0.0
0
LINE
8
FRONT
10
0.323427
20
1.086808
30
0.0
11
0.322019
21
1.094794
31
0.0
0
LINE
8
FRONT
10
0.322019
20
1.094794
30
0.0
11
0.320214
21
1.102699
31
0.0
0
LINE
8
FRONT
10
0.320214
20
1.102699
30
0.0
11
0.318018
21
1.110504
31
0.0
0
LINE
8
FRONT
10
0.318018
20
1.110504
30
0.0
11
0.315436
21
1.118191
31
0.0
0
LINE
8
FRONT
10
0.315436
20
1.118191
30
0.0
11
0.312473
21
1.125739
31
0.0
0
LINE
8
FRONT
10
0.312473
20
1.125739
30
0.0
11
0.309138
21
1.133130
31
0.0
0
LINE
8
FRONT
10
0.309138
20
1.133130
30
0.0
11
0.305439
21
1.140345
31
0.0
0
LINE
8
FRONT
10
0.305439
20
1.140345
30
0.0
11
0.301385
21
1.147367
31
0.0
0
LINE
8
FRONT
10
0.301385
20
1.147367
30
0.0
11
0.296986
21
1.154179
31
0.0
0
LINE
8
FRONT
10
0.296986
20
1.154179
30
0.0
11
0.292252
21
1.160762
31
0.0
0
LINE
8
FRONT
10
0.292252
20
1.160762
30
0.0
11
0.287197
21
1.167102
31
0.0
0
LINE
8
FRONT
10
0.287197
20
1.167102
30
0.0
11
0.281831
21
1.173182
31
0.0
0
LINE
8
FRONT
10
0.281831
20
1.173182
30
0.0
11
0.276170
21
1.178986
31
0.0
0
LINE
8
FRONT
10
0.276170
20
1.178986
30
0.0
11
0.270226
21
1.184501
31
0.0
0
LINE
8
FRONT
10
0.270226
20
1.184501
30
0.0
11
0.264014
21
1.189713
31
0.0
0
LINE
8
FRONT
10
0.264014
20
1.189713
30
0.0
11
0.257551
21
1.194609
31
0.0
0
LINE
8
FRONT
10
0.257551
20
1.194609
30
0.0
11
0.250851
21
1.199177
31
0.0
0
LINE
8
FRONT
10
0.250851
20
1.199177
30
0.0
11
0.243932
21
1.203405
31
0.0
0
LINE
8
FRONT
10
0.243932
20
1.203405
30
0.0
11
0.236811
21
1.207283
31
0.0
0
LINE
8
FRONT
10
0.236811
20
1.207283
30
0.0
11
0.229506
21
1.210801
31
0.0
0
LINE
8
FRONT
10
0.229506
20
1.210801
30
0.0
11
0.222034
21
1.213951
31
0.0
0
LINE
8
FRONT
10
0.222034
20
1.213951
30
0.0
11
0.214414
21
1.216724
31
0.0
0
LINE
8
FRONT
10
0.214414
20
1.216724
30
0.0
11
0.206666
21
1.219114
31
0.0
0
LINE
8
FRONT
10
0.206666
20
1.219114
30
0.0
11
0.198808
21
1.221115
31
0.0
0
LINE
8
FRONT
10
0.198808
20
1.221115
30
0.0
11
0.190860
21
1.222722
31
0.0
0
LINE
8
FRONT
10
0.190860
20
1.222722
30
0.0
11
0.182842
21
1.223930
31
0.0
0
LINE
8
FRONT
10
0.182842
20
1.223930
30
0.0
11
0.174774
21
1.224738
31
0.0
0
LINE
8
FRONT
10
0.174774
20
1.224738
30
0.0
11
0.166676
21
1.225142
31
0.0
0
LINE
8
FRONT
10
0.166676
20
1.225142
30
0.0
11
0.158567
21
1.225142
31
0.0
0
LINE
8
FRONT
10
0.158567
20
1.225142
30
0.0
11
0.150469
21
1.224738
31
0.0
0
LINE
8
FRONT
10
0.150469
20
1.224738
30
0.0
11
0.142401
21
1.223930
31
0.0
0
LINE
8
FRONT
10
0.142401
20
1.223930
30
0.0
11
0.134383
21
1.222722
31
0.0
0
LINE
8
FRONT
10
0.134383
20
1.222722
30
0.0
11
0.126435
21
1.221115
31
0.0
0
LINE
8
FRONT
10
0.126435
20
1.221115
30
0.0
11
0.118577
21
1.219114
31
0.0
0
LINE
8
FRONT
10
0.118577
20
1.219114
30
0.0
11
0.110829
21
1.216724
31
0.0
0
LINE
8
FRONT
10
0.110829
20
1.216724
30
0.0
11
0.103209
21
1.213951
31
0.0
0
LINE
8
FRONT
10
0.103209
20
1.213951
30
0.0
11
0.095737
21
1.210801
31
0.0
0
LINE
8
FRONT
10
0.095737
20
1.210801
30
0.0
11
0.088432
21
1.207283
31
0.0
0
LINE
8
FRONT
10
0.088432
20
1.207283
30
0.0
11
0.081311
21
1.203405
31
0.0
0
LINE
8
FRONT
10
0.081311
20
1.203405
30
0.0
11
0.074392
21
1.199177
31
0.0
0
LINE
8
FRONT
10
0.074392
20
1.199177
30
0.0
11
0.067692
21
1.194609
31
0.0
0
LINE
8
FRONT
10
0.067692
20
1.194609
30
0.0
11
0.061229
21
1.189713
31
0.0
0
LINE
8
FRONT
10
0.061229
20
1.189713
30
0.0
11
0.055017
21
1.184501
31
0.0
0
LINE
8
FRONT
10
0.055017
20
1.184501
30
0.0
11
0.049073
21
1.178986
31
0.0
0
LINE
8
FRONT
10
0.049073
20
1.178986
30
0.0
11
0.043411
21
1.173182
31
0.0
0
LINE
8
FRONT
10
0.043411
20
1.173182
30
0.0
11
0.038046
21
1.167102
31
0.0
0
LINE
8
FRONT
10
0.038046
20
1.167102
30
0.0
11
0.032991
21
1.160762
31
0.0
0
LINE
8
FRONT
10
0.032991
20
1.160762
30
0.0
11
0.028257
21
1.154179
31
0.0
0
LINE
8
FRONT
10
0.028257
20
1.154179
30
0.0
11
0.023858
21
1.147367
31
0.0
0
LINE
8
FRONT
10
0.023858
20
1.147367
30
0.0
11
0.019804
21
1.140345
31
0.0
0
LINE
8
FRONT
10
0.019804
20
1.140345
30
0.0
11
0.016105
21
1.133130
31
0.0
0
LINE
8
FRONT
10
0.016105
20
1.133130
30
0.0
11
0.012770
21
1.125739
31
0.0
0
LINE
8
FRONT
10
0.012770
20
1.125739
30
0.0
11
0.009807
21
1.118191
31
0.0
0
LINE
8
FRONT
10
0.009807
20
1.118191
30
0.0
11
0.007225
21
1.110504
31
0.0
0
LINE
8
FRONT
10
0.007225
20
1.110504
30
0.0
11
0.005029
21
1.102699
31
0.0
0
LINE
8
FRONT
10
0.005029
20
1.102699
30
0.0
11
0.003224
21
1.094794
31
0.0
0
LINE
8
FRONT
10
0.003224
20
1.094794
30
0.0
11
0.001816
21
1.086808
31
0.0
0
LINE
8
FRONT
10
0.001816
20
1.086808
30
0.0
11
0.000808
21
1.078763
31
0.0
0
LINE
8
FRONT
10
0.000808
20
1.078763
30
0.0
11
0.000202
21
1.070677
31
0.0
0
LINE
8
FRONT
10
0.000202
20
1.070677
30
0.0
11
0.000000
21
1.062571
31
0.0
0
LINE
8
FRONT
10
0.325243
20
1.062571
30
0.0
11
0.260522
21
1.062571
31
0.0
0
LINE
8
FRONT
10
0.007467
20
1.062571
30
0.0
11
0.007467
21
1.013860
31
0.0
0
LINE
8
FRONT
10
0.260522
20
1.062571
30
0.0
11
0.007467
21
1.062571
31
0.0
0
LINE
8
FRONT
10
0.260522
20
1.062571
30
0.0
11
0.260522
21
0.932720
31
0.0
0
LINE
8
FRONT_HID
6
HIDDEN
10
0.000000
20
1.062571
30
0.0
11
0.000808
21
1.046379
31
0.0
0
LINE
8
FRONT_HID
6
HIDDEN
10
0.000808
20
1.046379
30
0.0
11
0.003224
21
1.030348
31
0.0
0
LINE
8
FRONT_HID
6
HIDDEN
10
0.003224
20
1.030348
30
0.0
11
0.007225
21
1.014637
31
0.0
0
LINE
8
FRONT_HID
6
HIDDEN
10
0.007225
20
1.014637
30
0.0
11
0.012770
21
0.999403
31
0.0
0
LINE
8
FRONT_HID
6
HIDDEN
10
0.012770
20
0.999403
30
0.0
11
0.019804
21
0.984797
31
0.0
0
LINE
8
FRONT_HID
6
HIDDEN
10
0.019804
20
0.984797
30
0.0
11
0.028257
21
0.970963
31
0.0
0
LINE
8
FRONT_HID
6
HIDDEN
10
0.028257
20
0.970963
30
0.0
11
0.038046
21
0.958040
31
0.0
0
LINE
8
FRONT_HID
6
HIDDEN
10
0.038046
20
0.958040
30
0.0
11
0.049073
21
0.946156
31
0.0
0
LINE
8
FRONT_HID
6
HIDDEN
10
0.049073
20
0.946156
30
0.0
11
0.061229
21
0.935428
31
0.0
0
LINE
8
FRONT_HID
6
HIDDEN
10
0.061229
20
0.935428
30
0.0
11
0.074392
21
0.925965
31
0.0
0
LINE
8
FRONT_HID
6
HIDDEN
10
0.074392
20
0.925965
30
0.0
11
0.088432
21
0.917859
31
0.0
0
LINE
8
FRONT_HID
6
HIDDEN
10
0.088432
20
0.917859
30
0.0
11
0.103209
21
0.911191
31
0.0
0
LINE
8
FRONT_HID
6
HIDDEN
10
0.103209
20
0.911191
30
0.0
11
0.118577
21
0.906028
31
0.0
0
LINE
8
FRONT_HID
6
HIDDEN
10
0.118577
20
0.906028
30
0.0
11
0.134383
21
0.902420
31
0.0
0
LINE
8
FRONT_HID
6
HIDDEN
10
0.134383
20
0.902420
30
0.0
11
0.150469
21
0.900404
31
0.0
0
LINE
8
FRONT_HID
6
HIDDEN
10
0.150469
20
0.900404
30
0.0
11
0.166676
21
0.900000
31
0.0
0
LINE
8
FRONT_HID
6
HIDDEN
10
0.166676
20
0.900000
30
0.0
11
0.182842
21
0.901212
31
0.0
0
LINE
8
FRONT_HID
6
HIDDEN
10
0.182842
20
0.901212
30
0.0
11
0.198808
21
0.904027
31
0.0
0
LINE
8
FRONT_HID
6
HIDDEN
10
0.198808
20
0.904027
30
0.0
11
0.214414
21
0.908418
31
0.0
0
LINE
8
FRONT_HID
6
HIDDEN
10
0.214414
20
0.908418
30
0.0
11
0.229506
21
0.914341
31
0.0
0
LINE
8
FRONT_HID
6
HIDDEN
10
0.229506
20
0.914341
30
0.0
11
0.243932
21
0.921737
31
0.0
0
LINE
8
FRONT_HID
6
HIDDEN
10
0.243932
20
0.921737
30
0.0
11
0.257551
21
0.930532
31
0.0
0
LINE
8
FRONT_HID
6
HIDDEN
10
0.257551
20
0.930532
30
0.0
11
0.270226
21
0.940640
31
0.0
0
LINE
8
FRONT_HID
6
HIDDEN
10
0.270226
20
0.940640
30
0.0
11
0.281831
21
0.951960
31
0.0
0
LINE
8
FRONT_HID
6
HIDDEN
10
0.281831
20
0.951960
30
0.0
11
0.292252
21
0.964379
31
0.0
0
LINE
8
FRONT_HID
6
HIDDEN
10
0.292252
20
0.964379
30
0.0
11
0.301385
21
0.977774
31
0.0
0
LINE
8
FRONT_HID
6
HIDDEN
10
0.301385
20
0.977774
30
0.0
11
0.309138
21
0.992012
31
0.0
0
LINE
8
FRONT_HID
6
HIDDEN
10
0.309138
20
0.992012
30
0.0
11
0.315436
21
1.006951
31
0.0
0
LINE
8
FRONT_HID
6
HIDDEN
10
0.315436
20
1.006951
30
0.0
11
0.320214
21
1.022443
31
0.0
0
LINE
8
FRONT_HID
6
HIDDEN
10
0.320214
20
1.022443
30
0.0
11
0.323427
21
1.038333
31
0.0
0
LINE
8
FRONT_HID
6
HIDDEN
10
0.323427
20
1.038333
30
0.0
11
0.325041
21
1.054465
31
0.0
0
LINE
8
FRONT_HID
6
HIDDEN
10
0.325041
20
1.054465
30
0.0
11
0.325041
21
1.070677
31
0.0
0
LINE
8
FRONT_HID
6
HIDDEN
10
0.325041
20
1.070677
30
0.0
11
0.323427
21
1.086808
31
0.0
0
LINE
8
FRONT_HID
6
HIDDEN
10
0.323427
20
1.086808
30
0.0
11
0.320214
21
1.102699
31
0.0
0
LINE
8
FRONT_HID
6
HIDDEN
10
0.320214
20
1.102699
30
0.0
11
0.315436
21
1.118191
31
0.0
0
LINE
8
FRONT_HID
6
HIDDEN
10
0.315436
20
1.118191
30
0.0
11
0.309138
21
1.133130
31
0.0
0
LINE
8
FRONT_HID
6
HIDDEN
10
0.309138
20
1.133130
30
0.0
11
0.301385
21
1.147367
31
0.0
0
LINE
8
FRONT_HID
6
HIDDEN
10
0.301385
20
1.147367
30
0.0
11
0.292252
21
1.160762
31
0.0
0
LINE
8
FRONT_HID
6
HIDDEN
10
0.292252
20
1.160762
30
0.0
11
0.281831
21
1.173182
31
0.0
0
LINE
8
FRONT_HID
6
HIDDEN
10
0.281831
20
1.173182
30
0.0
11
0.270226
21
1.184501
31
0.0
0
LINE
8
FRONT_HID
6
HIDDEN
10
0.270226
20
1.184501
30
0.0
11
0.257551
21
1.194609
31
0.0
0
LINE
8
FRONT_HID
6
HIDDEN
10
0.257551
20
1.194609
30
0.0
11
0.243932
21
1.203405
31
0.0
0
LINE
8
FRONT_HID
6
HIDDEN
10
0.243932
20
1.203405
30
0.0
11
0.229506
21
1.210801
31
0.0
0
LINE
8
FRONT_HID
6
HIDDEN
10
0.229506
20
1.210801
30
0.0
11
0.214414
21
1.216724
31
0.0
0
LINE
8
FRONT_HID
6
HIDDEN
10
0.214414
20
1.216724
30
0.0
11
0.198808
21
1.221115
31
0.0
0
LINE
8
FRONT_HID
6
HIDDEN
10
0.198808
20
1.221115
30
0.0
11
0.182842
21
1.223930
31
0.0
0
LINE
8
FRONT_HID
6
HIDDEN
10
0.182842
20
1.223930
30
0.0
11
0.166676
21
1.225142
31
0.0
0
LINE
8
FRONT_HID
6
HIDDEN
10
0.166676
20
1.225142
30
0.0
11
0.150469
21
1.224738
31
0.0
0
LINE
8
FRONT_HID
6
HIDDEN
10
0.150469
20
1.224738
30
0.0
11
0.134383
21
1.222722
31
0.0
0
LINE
8
FRONT_HID
6
HIDDEN
10
0.134383
20
1.222722
30
0.0
11
0.118577
21
1.219114
31
0.0
0
LINE
8
FRONT_HID
6
HIDDEN
10
0.118577
20
1.219114
30
0.0
11
0.103209
21
1.213951
31
0.0
0
LINE
8
FRONT_HID
6
HIDDEN
10
0.103209
20
1.213951
30
0.0
11
0.088432
21
1.207283
31
0.0
0
LINE
8
FRONT_HID
6
HIDDEN
10
0.088432
20
1.207283
30
0.0
11
0.074392
21
1.199177
31
0.0
0
LINE
8
FRONT_HID
6
HIDDEN
10
0.074392
20
1.199177
30
0.0
11
0.061229
21
1.189713
31
0.0
0
LINE
8
FRONT_HID
6
HIDDEN
10
0.061229
20
1.189713
30
0.0
11
0.049073
21
1.178986
31
0.0
0
LINE
8
FRONT_HID
6
HIDDEN
10
0.049073
20
1.178986
30
0.0
11
0.038046
21
1.167102
31
0.0
0
LINE
8
FRONT_HID
6
HIDDEN
10
0.038046
20
1.167102
30
0.0
11
0.028257
21
1.154179
31
0.0
0
LINE
8
FRONT_HID
6
HIDDEN
10
0.028257
20
1.154179
30
0.0
11
0.019804
21
1.140345
31
0.0
0
LINE
8
FRONT_HID
6
HIDDEN
10
0.019804
20
1.140345
30
0.0
11
0.012770
21
1.125739
31
0.0
0
LINE
8
FRONT_HID
6
HIDDEN
10
0.012770
20
1.125739
30
0.0
11
0.007225
21
1.110504
31
0.0
0
LINE
8
FRONT_HID
6
HIDDEN
10
0.007225
20
1.110504
30
0.0
11
0.003224
21
1.094794
31
0.0
0
LINE
8
FRONT_HID
6
HIDDEN
10
0.003224
20
1.094794
30
0.0
11
0.000808
21
1.078763
31
0.0
0
LINE
8
FRONT_HID
6
HIDDEN
10
0.000808
20
1.078763
30
0.0
11
0.000000
21
1.062571
31
0.0
0
LINE
8
LEFT
10
1.225243
20
1.062621
30
0.0
11
1.225243
21
0.900000
31
0.0
0
LINE
8
LEFT
10
1.225243
20
1.225243
30
0.0
11
1.225243
21
1.062621
31
0.0
0
LINE
8
LEFT
10
0.475243
20
1.062621
30
0.0
11
0.475243
21
1.013911
31
0.0
0
LINE
8
LEFT
10
0.475243
20
1.013911
30
0.0
11
0.476701
21
1.010553
31
0.0
0
LINE
8
LEFT
10
0.476701
20
1.010553
30
0.0
11
0.478159
21
1.007195
31
0.0
0
LINE
8
LEFT
10
0.478159
20
1.007195
30
0.0
11
0.479617
21
1.003838
31
0.0
0
LINE
8
LEFT
10
0.479617
20
1.003838
30
0.0
11
0.481075
21
1.000480
31
0.0
0
LINE
8
LEFT
10
0.481075
20
1.000480
30
0.0
11
0.482828
21
0.997268
31
0.0
0
LINE
8
LEFT
10
0.482828
20
0.997268
30
0.0
11
0.484619
21
0.994076
31
0.0
0
LINE
8
LEFT
10
0.484619
20
0.994076
30
0.0
11
0.486409
21
0.990883
31
0.0
0
LINE
8
LEFT
10
0.486409
20
0.990883
30
0.0
11
0.488200
21
0.987690
31
0.0
0
LINE
8
LEFT
10
0.488200
20
0.987690
30
0.0
11
0.490210
21
0.984635
31
0.0
0
LINE
8
LEFT
10
0.490210
20
0.984635
30
0.0
11
0.492307
21
0.981635
31
0.0
0
LINE
8
LEFT
10
0.492307
20
0.981635
30
0.0
11
0.494404
21
0.978635
31
0.0
0
LINE
8
LEFT
10
0.494404
20
0.978635
30
0.0
11
0.496501
21
0.975634
31
0.0
0
LINE
8
LEFT
10
0.496501
20
0.975634
30
0.0
11
0.498734
21
0.972738
31
0.0
0
LINE
8
LEFT
10
0.498734
20
0.972738
30
0.0
11
0.501108
21
0.969952
31
0.0
0
LINE
8
LEFT
10
0.501108
20
0.969952
30
0.0
11
0.503483
21
0.967167
31
0.0
0
LINE
8
LEFT
10
0.503483
20
0.967167
30
0.0
11
0.505857
21
0.964381
31
0.0
0
LINE
8
LEFT
10
0.505857
20
0.964381
30
0.0
11
0.508280
21
0.961640
31
0.0
0
LINE
8
LEFT
10
0.508280
20
0.961640
30
0.0
11
0.510903
21
0.959086
31
0.0
0
LINE
8
LEFT
10
0.510903
20
0.959086
30
0.0
11
0.513526
21
0.956533
31
0.0
0
LINE
8
LEFT
10
0.513526
20
0.956533
30
0.0
11
0.516148
21
0.953979
31
0.0
0
LINE
8
LEFT
10
0.516148
20
0.953979
30
0.0
11
0.518771
21
0.951425
31
0.0
0
LINE
8
LEFT
10
0.518771
20
0.951425
30
0.0
11
0.521576
21
0.949076
31
0.0
0
LINE
8
LEFT
10
0.521576
20
0.949076
30
0.0
11
0.524418
21
0.946769
31
0.0
0
LINE
8
LEFT
10
0.524418
20
0.946769
30
0.0
11
0.527259
21
0.944461
31
0.0
0
LINE
8
LEFT
10
0.527259
20
0.944461
30
0.0
11
0.530101
21
0.942154
31
0.0
0
LINE
8
LEFT
10
0.530101
20
0.942154
30
0.0
11
0.533018
21
0.939948
31
0.0
0
LINE
8
LEFT
10
0.533018
20
0.939948
30
0.0
11
0.536050
21
0.937897
31
0.0
0
LINE
8
LEFT
10
0.536050
20
0.937897
30
0.0
11
0.539082
21
0.935846
31
0.0
0
LINE
8
LEFT
10
0.539082
20
0.935846
30
0.0
11
0.542114
21
0.933795
31
0.0
0
LINE
8
LEFT
10
0.542114
20
0.933795
30
0.0
11
0.545146
21
0.931744
31
0.0
0
LINE
8
LEFT
10
0.545146
20
0.931744
30
0.0
11
0.548324
21
0.929930
31
0.0
0
LINE
8
LEFT
10
0.548324
20
0.929930
30
0.0
11
0.551519
21
0.928142
31
0.0
0
LINE
8
LEFT
10
0.551519
20
0.928142
30
0.0
11
0.554714
21
0.926355
31
0.0
0
LINE
8
LEFT
10
0.554714
20
0.926355
30
0.0
11
0.557908
21
0.924568
31
0.0
0
LINE
8
LEFT
10
0.557908
20
0.924568
30
0.0
11
0.561148
21
0.922870
31
0.0
0
LINE
8
LEFT
10
0.561148
20
0.922870
30
0.0
11
0.564479
21
0.921352
31
0.0
0
LINE
8
LEFT
10
0.564479
20
0.921352
30
0.0
11
0.567810
21
0.919834
31
0.0
0
LINE
8
LEFT
10
0.567810
20
0.919834
30
0.0
11
0.571141
21
0.918316
31
0.0
0
LINE
8
LEFT
10
0.571141
20
0.918316
30
0.0
11
0.574472
21
0.916798
31
0.0
0
LINE
8
LEFT
10
0.574472
20
0.916798
30
0.0
11
0.577882
21
0.915473
31
0.0
0
LINE
8
LEFT
10
0.577882
20
0.915473
30
0.0
11
0.581324
21
0.914227
31
0.0
0
LINE
8
LEFT
10
0.581324
20
0.914227
30
0.0
11
0.584766
21
0.912982
31
0.0
0
LINE
8
LEFT
10
0.584766
20
0.912982
30
0.0
11
0.588208
21
0.911736
31
0.0
0
LINE
8
LEFT
10
0.588208
20
0.911736
30
0.0
11
0.591653
21
0.910500
31
0.0
0
LINE
8
LEFT
10
0.591653
20
0.910500
30
0.0
11
0.595183
21
0.909530
31
0.0
0
LINE
8
LEFT
10
0.595183
20
0.909530
30
0.0
11
0.598713
21
0.908559
31
0.0
0
LINE
8
LEFT
10
0.598713
20
0.908559
30
0.0
11
0.602242
21
0.907589
31
0.0
0
LINE
8
LEFT
10
0.602242
20
0.907589
30
0.0
11
0.605772
21
0.906618
31
0.0
0
LINE
8
LEFT
10
0.605772
20
0.906618
30
0.0
11
0.609322
21
0.905735
31
0.0
0
LINE
8
LEFT
10
0.609322
20
0.905735
30
0.0
11
0.612916
21
0.905041
31
0.0
0
LINE
8
LEFT
10
0.612916
20
0.905041
30
0.0
11
0.616510
21
0.904347
31
0.0
0
LINE
8
LEFT
10
0.616510
20
0.904347
30
0.0
11
0.620104
21
0.903653
31
0.0
0
LINE
8
LEFT
10
0.620104
20
0.903653
30
0.0
11
0.623698
21
0.902959
31
0.0
0
LINE
8
LEFT
10
0.623698
20
0.902959
30
0.0
11
0.627317
21
0.902421
31
0.0
0
LINE
8
LEFT
10
0.627317
20
0.902421
30
0.0
11
0.630953
21
0.902004
31
0.0
0
LINE
8
LEFT
10
0.630953
20
0.902004
30
0.0
11
0.634590
21
0.901587
31
0.0
0
LINE
8
LEFT
10
0.634590
20
0.901587
30
0.0
11
0.638227
21
0.901171
31
0.0
0
LINE
8
LEFT
10
0.638227
20
0.901171
30
0.0
11
0.641864
21
0.900754
31
0.0
0
LINE
8
LEFT
10
0.641864
20
0.900754
30
0.0
11
0.645517
21
0.900556
31
0.0
0
LINE
8
LEFT
10
0.645517
20
0.900556
30
0.0
11
0.649175
21
0.900417
31
0.0
0
LINE
8
LEFT
10
0.649175
20
0.900417
30
0.0
11
0.652833
21
0.900278
31
0.0
0
LINE
8
LEFT
10
0.652833
20
0.900278
30
0.0
11
0.656491
21
0.900139
31
0.0
0
LINE
8
LEFT
10
0.656491
20
0.900139
30
0.0
11
0.660149
21
0.900000
31
0.0
0
LINE
8
LEFT
10
0.475243
20
1.225243
30
0.0
11
0.475243
21
1.062621
31
0.0
0
LINE
8
LEFT
10
1.225243
20
1.225243
30
0.0
11
0.475243
21
1.225243
31
0.0
0
LINE
8
LEFT
10
1.225243
20
0.900000
30
0.0
11
0.660149
21
0.900000
31
0.0
0
LINE
8
LEFT_HID
6
HIDDEN
10
1.225243
20
0.900000
30
0.0
11
1.225243
21
1.225243
31
0.0
0
LINE
8
LEFT_HID
6
HIDDEN
10
0.660149
20
0.900000
30
0.0
11
0.662098
21
0.900038
31
0.0
0
LINE
8
LEFT_HID
6
HIDDEN
10
0.662098
20
0.900038
30
0.0
11
0.664046
21
0.900075
31
0.0
0
LINE
8
LEFT_HID
6
HIDDEN
10
0.664046
20
0.900075
30
0.0
11
0.665995
21
0.900113
31
0.0
0
LINE
8
LEFT_HID
6
HIDDEN
10
0.665995
20
0.900113
30
0.0
11
0.667943
21
0.900151
31
0.0
0
LINE
8
LEFT_HID
6
HIDDEN
10
0.667943
20
0.900151
30
0.0
11
0.669891
21
0.900220
31
0.0
0
LINE
8
LEFT_HID
6
HIDDEN
10
0.669891
20
0.900220
30
0.0
11
0.671836
21
0.900333
31
0.0
0
LINE
8
LEFT_HID
6
HIDDEN
10
0.671836
20
0.900333
30
0.0
11
0.673782
21
0.900446
31
0.0
0
LINE
8
LEFT_HID
6
HIDDEN
10
0.673782
20
0.900446
30
0.0
11
0.675728
21
0.900559
31
0.0
0
LINE
8
LEFT_HID
6
HIDDEN
10
0.675728
20
0.900559
30
0.0
11
0.677673
21
0.900672
31
0.0
0
LINE
8
LEFT_HID
6
HIDDEN
10
0.677673
20
0.900672
30
0.0
11
0.679614
21
0.900848
31
0.0
0
LINE
8
LEFT_HID
6
HIDDEN
10
0.679614
20
0.900848
30
0.0
11
0.681554
21
0.901037
31
0.0
0
LINE
8
LEFT_HID
6
HIDDEN
10
0.681554
20
0.901037
30
0.0
11
0.683494
21
0.901225
31
0.0
0
LINE
8
LEFT_HID
6
HIDDEN
10
0.683494
20
0.901225
30
0.0
11
0.685433
21
0.901414
31
0.0
0
LINE
8
LEFT_HID
6
HIDDEN
10
0.685433
20
0.901414
30
0.0
11
0.687371
21
0.901621
31
0.0
0
LINE
8
LEFT_HID
6
HIDDEN
10
0.687371
20
0.901621
30
0.0
11
0.689302
21
0.901885
31
0.0
0
LINE
8
LEFT_HID
6
HIDDEN
10
0.689302
20
0.901885
30
0.0
11
0.691233
21
0.902149
31
0.0
0
LINE
8
LEFT_HID
6
HIDDEN
10
0.691233
20
0.902149
30
0.0
11
0.693164
21
0.902413
31
0.0
0
LINE
8
LEFT_HID
6
HIDDEN
10
0.693164
20
0.902413
30
0.0
11
0.695095
21
0.902677
31
0.0
0
LINE
8
LEFT_HID
6
HIDDEN
10
0.695095
20
0.902677
30
0.0
11
0.697018
21
0.902992
31
0.0
0
LINE
8
LEFT_HID
6
HIDDEN
10
0.697018
20
0.902992
30
0.0
11
0.698937
21
0.903331
31
0.0
0
LINE
8
LEFT_HID
6
HIDDEN
10
0.698937
20
0.903331
30
0.0
11
0.700856
21
0.903671
31
0.0
0
LINE
8
LEFT_HID
6
HIDDEN
10
0.700856
20
0.903671
30
0.0
11
0.702775
21
0.904010
31
0.0
0
LINE
8
LEFT_HID
6
HIDDEN
10
0.702775
20
0.904010
30
0.0
11
0.704693
21
0.904358
31
0.0
0
LINE
8
LEFT_HID
6
HIDDEN
10
0.704693
20
0.904358
30
0.0
11
0.706597
21
0.904773
31
0.0
0
LINE
8
LEFT_HID
6
HIDDEN
10
0.706597
20
0.904773
30
0.0
11
0.708501
21
0.905187
31
0.0
0
LINE
8
LEFT_HID
6
HIDDEN
10
0.708501
20
0.905187
30
0.0
11
0.710406
21
0.905602
31
0.0
0
LINE
8
LEFT_HID
6
HIDDEN
10
0.710406
20
0.905602
30
0.0
11
0.712310
21
0.906016
31
0.0
0
LINE
8
LEFT_HID
6
HIDDEN
10
0.712310
20
0.906016
30
0.0
11
0.714204
21
0.906473
31
0.0
0
LINE
8
LEFT_HID
6
HIDDEN
10
0.714204
20
0.906473
30
0.0
11
0.716091
21
0.906963
31
0.0
0
LINE
8
LEFT_HID
6
HIDDEN
10
0.716091
20
0.906963
30
0.0
11
0.717977
21
0.907453
31
0.0
0
LINE
8
LEFT_HID
6
HIDDEN
10
0.717977
20
0.907453
30
0.0
11
0.719863
21
0.907942
31
0.0
0
LINE
8
LEFT_HID
6
HIDDEN
10
0.719863
20
0.907942
30
0.0
11
0.721749
21
0.908435
31
0.0
0
LINE
8
LEFT_HID
6
HIDDEN
10
0.721749
20
0.908435
30
0.0
11
0.723614
21
0.908999
31
0.0
0
LINE
8
LEFT_HID
6
HIDDEN
10
0.723614
20
0.908999
30
0.0
11
0.725480
21
0.909564
31
0.0
0
LINE
8
LEFT_HID
6
HIDDEN
10
0.725480
20
0.909564
30
0.0
11
0.727345
21
0.910128
31
0.0
0
LINE
8
LEFT_HID
6
HIDDEN
10
0.727345
20
0.910128
30
0.0
11
0.729211
21
0.910693
31
0.0
0
LINE
8
LEFT_HID
6
HIDDEN
10
0.729211
20
0.910693
30
0.0
11
0.731063
21
0.911297
31
0.0
0
LINE
8
LEFT_HID
6
HIDDEN
10
0.731063
20
0.911297
30
0.0
11
0.732904
21
0.911936
31
0.0
0
LINE
8
LEFT_HID
6
HIDDEN
10
0.732904
20
0.911936
30
0.0
11
0.734745
21
0.912575
31
0.0
0
LINE
8
LEFT_HID
6
HIDDEN
10
0.734745
20
0.912575
30
0.0
11
0.736587
21
0.913214
31
0.0
0
LINE
8
LEFT_HID
6
HIDDEN
10
0.736587
20
0.913214
30
0.0
11
0.738426
21
0.913857
31
0.0
0
LINE
8
LEFT_HID
6
HIDDEN
10
0.738426
20
0.913857
30
0.0
11
0.740240
21
0.914570
31
0.0
0
LINE
8
LEFT_HID
6
HIDDEN
10
0.740240
20
0.914570
30
0.0
11
0.742054
21
0.915284
31
0.0
0
LINE
8
LEFT_HID
6
HIDDEN
10
0.742054
20
0.915284
30
0.0
11
0.743867
21
0.915997
31
0.0
0
LINE
8
LEFT_HID
6
HIDDEN
10
0.743867
20
0.915997
30
0.0
11
0.745681
21
0.916710
31
0.0
0
LINE
8
LEFT_HID
6
HIDDEN
10
0.745681
20
0.916710
30
0.0
11
0.747477
21
0.917467
31
0.0
0
LINE
8
LEFT_HID
6
HIDDEN
10
0.747477
20
0.917467
30
0.0
11
0.749260
21
0.918254
31
0.0
0
LINE
8
LEFT_HID
6
HIDDEN
10
0.749260
20
0.918254
30
0.0
11
0.751042
21
0.919042
31
0.0
0
LINE
8
LEFT_HID
6
HIDDEN
10
0.751042
20
0.919042
30
0.0
11
0.752825
21
0.919829
31
0.0
0
LINE
8
LEFT_HID
6
HIDDEN
10
0.752825
20
0.919829
30
0.0
11
0.754603
21
0.920627
31
0.0
0
LINE
8
LEFT_HID
6
HIDDEN
10
0.754603
20
0.920627
30
0.0
11
0.756351
21
0.921488
31
0.0
0
LINE
8
LEFT_HID
6
HIDDEN
10
0.756351
20
0.921488
30
0.0
11
0.758100
21
0.922349
31
0.0
0
LINE
8
LEFT_HID
6
HIDDEN
10
0.758100
20
0.922349
30
0.0
11
0.759848
21
0.923210
31
0.0
0
LINE
8
LEFT_HID
6
HIDDEN
10
0.759848
20
0.923210
30
0.0
11
0.761597
21
0.924071
31
0.0
0
LINE
8
LEFT_HID
6
HIDDEN
10
0.761597
20
0.924071
30
0.0
11
0.763318
21
0.924985
31
0.0
0
LINE
8
LEFT_HID
6
HIDDEN
10
0.763318
20
0.924985
30
0.0
11
0.765028
21
0.925919
31
0.0
0
LINE
8
LEFT_HID
6
HIDDEN
10
0.765028
20
0.925919
30
0.0
11
0.766739
21
0.926853
31
0.0
0
LINE
8
LEFT_HID
6
HIDDEN
10
0.766739
20
0.926853
30
0.0
11
0.768449
21
0.927787
31
0.0
0
LINE
8
LEFT_HID
6
HIDDEN
10
0.768449
20
0.927787
30
0.0
11
0.770145
21
0.928746
31
0.0
0
LINE
8
LEFT_HID
6
HIDDEN
10
0.770145
20
0.928746
30
0.0
11
0.771815
21
0.929752
31
0.0
0
LINE
8
LEFT_HID
6
HIDDEN
10
0.771815
20
0.929752
30
0.0
11
0.773484
21
0.930758
31
0.0
0
LINE
8
LEFT_HID
6
HIDDEN
10
0.773484
20
0.930758
30
0.0
11
0.775153
21
0.931764
31
0.0
0
LINE
8
LEFT_HID
6
HIDDEN
10
0.775153
20
0.931764
30
0.0
11
0.776822
21
0.932771
31
0.0
0
LINE
8
LEFT_HID
6
HIDDEN
10
0.776822
20
0.932771
30
0.0
11
0.778889
21
0.934176
31
0.0
0
LINE
8
LEFT_HID
6
HIDDEN
10
0.778889
20
0.934176
30
0.0
11
0.780956
21
0.935581
31
0.0
0
LINE
8
LEFT_HID
6
HIDDEN
10
0.780956
20
0.935581
30
0.0
11
0.783024
21
0.936986
31
0.0
0
LINE
8
LEFT_HID
6
HIDDEN
10
0.783024
20
0.936986
30
0.0
11
0.785091
21
0.938391
31
0.0
0
LINE
8
LEFT_HID
6
HIDDEN
10
0.785091
20
0.938391
30
0.0
11
0.787139
21
0.939822
31
0.0
0
LINE
8
LEFT_HID
6
HIDDEN
10
0.787139
20
0.939822
30
0.0
11
0.789113
21
0.941356
31
0.0
0
LINE
8
LEFT_HID
6
HIDDEN
10
0.789113
20
0.941356
30
0.0
11
0.791087
21
0.942889
31
0.0
0
LINE
8
LEFT_HID
6
HIDDEN
10
0.791087
20
0.942889
30
0.0
11
0.793061
21
0.944423
31
0.0
0
LINE
8
LEFT_HID
6
HIDDEN
10
0.793061
20
0.944423
30
0.0
11
0.795035
21
0.945956
31
0.0
0
LINE
8
LEFT_HID
6
HIDDEN
10
0.795035
20
0.945956
30
0.0
11
0.796962
21
0.947546
31
0.0
0
LINE
8
LEFT_HID
6
HIDDEN
10
0.796962
20
0.947546
30
0.0
11
0.798832
21
0.949204
31
0.0
0
LINE
8
LEFT_HID
6
HIDDEN
10
0.798832
20
0.949204
30
0.0
11
0.800702
21
0.950863
31
0.0
0
LINE
8
LEFT_HID
6
HIDDEN
10
0.800702
20
0.950863
30
0.0
11
0.802572
21
0.952521
31
0.0
0
LINE
8
LEFT_HID
6
HIDDEN
10
0.802572
20
0.952521
30
0.0
11
0.804443
21
0.954180
31
0.0
0
LINE
8
LEFT_HID
6
HIDDEN
10
0.804443
20
0.954180
30
0.0
11
0.806227
21
0.955929
31
0.0
0
LINE
8
LEFT_HID
6
HIDDEN
10
0.806227
20
0.955929
30
0.0
11
0.807983
21
0.957708
31
0.0
0
LINE
8
LEFT_HID
6
HIDDEN
10
0.807983
20
0.957708
30
0.0
11
0.809739
21
0.959487
31
0.0
0
LINE
8
LEFT_HID
6
HIDDEN
10
0.809739
20
0.959487
30
0.0
11
0.811495
21
0.961266
31
0.0
0
LINE
8
LEFT_HID
6
HIDDEN
10
0.811495
20
0.961266
30
0.0
11
0.813236
21
0.963057
31
0.0
0
LINE
8
LEFT_HID
6
HIDDEN
10
0.813236
20
0.963057
30
0.0
11
0.814868
21
0.964951
31
0.0
0
LINE
8
LEFT_HID
6
HIDDEN
10
0.814868
20
0.964951
30
0.0
11
0.816499
21
0.966845
31
0.0
0
LINE
8
LEFT_HID
6
HIDDEN
10
0.816499
20
0.966845
30
0.0
11
0.818130
21
0.968739
31
0.0
0
LINE
8
LEFT_HID
6
HIDDEN
10
0.818130
20
0.968739
30
0.0
11
0.819761
21
0.970633
31
0.0
0
LINE
8
LEFT_HID
6
HIDDEN
10
0.819761
20
0.970633
30
0.0
11
0.821321
21
0.972584
31
0.0
0
LINE
8
LEFT_HID
6
HIDDEN
10
0.821321
20
0.972584
30
0.0
11
0.822817
21
0.974587
31
0.0
0
LINE
8
LEFT_HID
6
HIDDEN
10
0.822817
20
0.974587
30
0.0
11
0.824313
21
0.976589
31
0.0
0
LINE
8
LEFT_HID
6
HIDDEN
10
0.824313
20
0.976589
30
0.0
11
0.825809
21
0.978592
31
0.0
0
LINE
8
LEFT_HID
6
HIDDEN
10
0.825809
20
0.978592
30
0.0
11
0.827304
21
0.980595
31
0.0
0
LINE
8
LEFT_HID
6
HIDDEN
10
0.827304
20
0.980595
30
0.0
11
0.828657
21
0.982697
31
0.0
0
LINE
8
LEFT_HID
6
HIDDEN
10
0.828657
20
0.982697
30
0.0
11
0.830006
21
0.984801
31
0.0
0
LINE
8
LEFT_HID
6
HIDDEN
10
0.830006
20
0.984801
30
0.0
11
0.831356
21
0.986904
31
0.0
0
LINE
8
LEFT_HID
6
HIDDEN
10
0.831356
20
0.986904
30
0.0
11
0.832706
21
0.989008
31
0.0
0
LINE
8
LEFT_HID
6
HIDDEN
10
0.832706
20
0.989008
30
0.0
11
0.833979
21
0.991157
31
0.0
0
LINE
8
LEFT_HID
6
HIDDEN
10
0.833979
20
0.991157
30
0.0
11
0.835173
21
0.993353
31
0.0
0
LINE
8
LEFT_HID
6
HIDDEN
10
0.835173
20
0.993353
30
0.0
11
0.836367
21
0.995549
31
0.0
0
LINE
8
LEFT_HID
6
HIDDEN
10
0.836367
20
0.995549
30
0.0
11
0.837561
21
0.997745
31
0.0
0
LINE
8
LEFT_HID
6
HIDDEN
10
0.837561
20
0.997745
30
0.0
11
0.838747
21
0.999945
31
0.0
0
LINE
8
LEFT_HID
6
HIDDEN
10
0.838747
20
0.999945
30
0.0
11
0.839775
21
1.002223
31
0.0
0
LINE
8
LEFT_HID
6
HIDDEN
10
0.839775
20
1.002223
30
0.0
11
0.840804
21
1.004501
31
0.0
0
LINE
8
LEFT_HID
6
HIDDEN
10
0.840804
20
1.004501
30
0.0
11
0.841832
21
1.006780
31
0.0
0
LINE
8
LEFT_HID
6
HIDDEN
10
0.841832
20
1.006780
30
0.0
11
0.842861
21
1.009058
31
0.0
0
LINE
8
LEFT_HID
6
HIDDEN
10
0.842861
20
1.009058
30
0.0
11
0.843778
21
1.011381
31
0.0
0
LINE
8
LEFT_HID
6
HIDDEN
10
0.843778
20
1.011381
30
0.0
11
0.844632
21
1.013730
31
0.0
0
LINE
8
LEFT_HID
6
HIDDEN
10
0.844632
20
1.013730
30
0.0
11
0.845487
21
1.016079
31
0.0
0
LINE
8
LEFT_HID
6
HIDDEN
10
0.845487
20
1.016079
30
0.0
11
0.846341
21
1.018428
31
0.0
0
LINE
8
LEFT_HID
6
HIDDEN
10
0.846341
20
1.018428
30
0.0
11
0.847147
21
1.020793
31
0.0
0
LINE
8
LEFT_HID
6
HIDDEN
10
0.847147
20
1.020793
30
0.0
11
0.847820
21
1.023200
31
0.0
0
LINE
8
LEFT_HID
6
HIDDEN
10
0.847820
20
1.023200
30
0.0
11
0.848493
21
1.025607
31
0.0
0
LINE
8
LEFT_HID
6
HIDDEN
10
0.848493
20
1.025607
30
0.0
11
0.849166
21
1.028015
31
0.0
0
LINE
8
LEFT_HID
6
HIDDEN
10
0.849166
20
1.028015
30
0.0
11
0.849839
21
1.030422
31
0.0
0
LINE
8
LEFT_HID
6
HIDDEN
10
0.849839
20
1.030422
30
0.0
11
0.850338
21
1.032871
31
0.0
0
LINE
8
LEFT_HID
6
HIDDEN
10
0.850338
20
1.032871
30
0.0
11
0.850823
21
1.035323
31
0.0
0
LINE
8
LEFT_HID
6
HIDDEN
10
0.850823
20
1.035323
30
0.0
11
0.851308
21
1.037775
31
0.0
0
LINE
8
LEFT_HID
6
HIDDEN
10
0.851308
20
1.037775
30
0.0
11
0.851794
21
1.040227
31
0.0
0
LINE
8
LEFT_HID
6
HIDDEN
10
0.851794
20
1.040227
30
0.0
11
0.852163
21
1.042697
31
0.0
0
LINE
8
LEFT_HID
6
HIDDEN
10
0.852163
20
1.042697
30
0.0
11
0.852456
21
1.045179
31
0.0
0
LINE
8
LEFT_HID
6
HIDDEN
10
0.852456
20
1.045179
30
0.0
11
0.852749
21
1.047662
31
0.0
0
LINE
8
LEFT_HID
6
HIDDEN
10
0.852749
20
1.047662
30
0.0
11
0.853042
21
1.050144
31
0.0
0
LINE
8
LEFT_HID
6
HIDDEN
10
0.853042
20
1.050144
30
0.0
11
0.853277
21
1.052631
31
0.0
0
LINE
8
LEFT_HID
6
HIDDEN
10
0.853277
20
1.052631
30
0.0
11
0.853375
21
1.055129
31
0.0
0
LINE
8
LEFT_HID
6
HIDDEN
10
0.853375
20
1.055129
30
0.0
11
0.853473
21
1.057626
31
0.0
0
LINE
8
LEFT_HID
6
HIDDEN
10
0.853473
20
1.057626
30
0.0
11
0.853571
21
1.060124
31
0.0
0
LINE
8
LEFT_HID
6
HIDDEN
10
0.853571
20
1.060124
30
0.0
11
0.853669
21
1.062621
31
0.0
0
LINE
8
LEFT_HID
6
HIDDEN
10
0.853669
20
1.062621
30
0.0
11
0.475243
21
1.062621
31
0.0
0
LINE
8
LEFT_HID
6
HIDDEN
10
0.475243
20
1.062621
30
0.0
11
0.776822
21
1.062621
31
0.0
0
LINE
8
LEFT_HID
6
HIDDEN
10
0.776822
20
1.062621
30
0.0
11
0.853669
21
1.062621
31
0.0
0
LINE
8
LEFT_HID
6
HIDDEN
10
0.776822
20
1.062621
30
0.0
11
0.475243
21
1.062621
31
0.0
0
LINE
8
LEFT_HID
6
HIDDEN
10
0.776822
20
1.062621
30
0.0
11
0.776822
21
0.932771
31
0.0
0
LINE
8
TOP
10
0.325243
20
0.000000
30
0.0
11
0.000000
21
0.000000
31
0.0
0
LINE
8
TOP
10
0.000000
20
0.750000
30
0.0
11
0.000000
21
0.000000
31
0.0
0
LINE
8
TOP
10
0.325243
20
0.371574
30
0.0
11
0.325243
21
0.750000
31
0.0
0
LINE
8
TOP
10
0.325243
20
0.750000
30
0.0
11
0.000000
21
0.750000
31
0.0
0
LINE
8
TOP
10
0.325243
20
0.000000
30
0.0
11
0.325243
21
0.371574
31
0.0
0
LINE
8
TOP_HID
6
HIDDEN
10
0.000000
20
0.750000
30
0.0
11
0.007467
21
0.750000
31
0.0
0
LINE
8
TOP_HID
6
HIDDEN
10
0.007467
20
0.750000
30
0.0
11
0.260522
21
0.448421
31
0.0
0
LINE
8
TOP_HID
6
HIDDEN
10
0.260522
20
0.448421
30
0.0
11
0.325243
21
0.371574
31
0.0
0
LINE
8
TOP_HID
6
HIDDEN
10
0.325243
20
0.750000
30
0.0
11
0.260522
21
0.750000
31
0.0
0
LINE
8
TOP_HID
6
HIDDEN
10
0.260522
20
0.750000
30
0.0
11
0.007467
21
0.750000
31
0.0
0
LINE
8
TOP_HID
6
HIDDEN
10
0.007467
20
0.750000
30
0.0
11
0.260522
21
0.448421
31
0.0
0
LINE
8
TOP_HID
6
HIDDEN
10
0.260522
20
0.448421
30
0.0
11
0.325243
21
0.371574
31
0.0
0
ENDSEC
0
EOF
