0
SECTION
2
HEADER
9
$ACADVER
1
AC1009
0
ENDSEC
0
SECTION
2
TABLES
0
TABLE
2
LTYPE
70
3
0
LTYPE
2
CONTINUOUS
70
0
3
Solid line
72
65
73
0
40
0.0
0
LTYPE
2
HIDDEN
70
0
3
__ __ __ __ __
72
65
73
2
40
0.044828
49
0.029900
49
-0.014928
0
LTYPE
2
CENTER
70
0
3
___ _ ___ _ ___
72
65
73
4
40
0.104584
49
0.059756
49
-0.014928
49
0.014928
49
-0.014928
0
ENDTAB
0
TABLE
2
LAYER
70
6
0
LAYER
2
0
70
0
62
7
6
CONTINUOUS
0
LAYER
2
FRONT
70
0
62
7
6
CONTINUOUS
0
LAYER
2
LEFT
70
0
62
7
6
CONTINUOUS
0
LAYER
2
LEFT_HID
70
0
62
7
6
HIDDEN
0
LAYER
2
TOP
70
0
62
7
6
CONTINUOUS
0
LAYER
2
TOP_HID
70
0
62
7
6
HIDDEN
0
ENDTAB
0
ENDSEC
0
SECTION
2
ENTITIES
0
LINE
8
FRONT
10
0.000000
20
0.844163
30
0.0
11
0.089656
21
0.844163
31
0.0
0
LINE
8
FRONT
10
0.000000
20
1.299940
30
0.0
11
0.000000
21
0.844163
31
0.0
0
LINE
8
FRONT
10
0.089656
20
0.844163
30
0.0
11
0.089656
21
1.187870
31
0.0
0
LINE
8
FRONT
10
0.089656
20
1.187870
30
0.0
11
0.301721
21
1.187870
31
0.0
0
LINE
8
FRONT
10
0.301721
20
1.187870
30
0.0
11
0.301721
21
0.627521
31
0.0
0
LINE
8
FRONT
10
0.301721
20
0.627521
30
0.0
11
0.302000
21
0.616349
31
0.0
0
LINE
8
FRONT
10
0.302000
20
0.616349
30
0.0
11
0.302835
21
0.605204
31
0.0
0
LINE
8
FRONT
10
0.302835
20
0.605204
30
0.0
11
0.304224
21
0.594115
31
0.0
0
LINE
8
FRONT
10
0.304224
20
0.594115
30
0.0
11
0.306165
21
0.583109
31
0.0
0
LINE
8
FRONT
10
0.306165
20
0.583109
30
0.0
11
0.308652
21
0.572213
31
0.0
0
LINE
8
FRONT
10
0.308652
20
0.572213
30
0.0
11
0.311679
21
0.561455
31
0.0
0
LINE
8
FRONT
10
0.311679
20
0.561455
30
0.0
11
0.315238
21
0.550861
31
0.0
0
LINE
8
FRONT
10
0.315238
20
0.550861
30
0.0
11
0.319321
21
0.540457
31
0.0
0
LINE
8
FRONT
10
0.319321
20
0.540457
30
0.0
11
0.323918
21
0.530271
31
0.0
0
LINE
8
FRONT
10
0.323918
20
0.530271
30
0.0
11
0.329016
21
0.520325
31
0.0
0
LINE
8
FRONT
10
0.329016
20
0.520325
30
0.0
11
0.334604
21
0.510647
31
0.0
0
LINE
8
FRONT
10
0.334604
20
0.510647
30
0.0
11
0.340668
21
0.501259
31
0.0
0
LINE
8
FRONT
10
0.340668
20
0.501259
30
0.0
11
0.347192
21
0.492185
31
0.0
0
LINE
8
FRONT
10
0.347192
20
0.492185
30
0.0
11
0.354160
21
0.483447
31
0.0
0
LINE
8
FRONT
10
0.354160
20
0.483447
30
0.0
11
0.361555
21
0.475067
31
0.0
0
LINE
8
FRONT
10
0.361555
20
0.475067
30
0.0
11
0.369358
21
0.467067
31
0.0
0
LINE
8
FRONT
10
0.369358
20
0.467067
30
0.0
11
0.377550
21
0.459465
31
0.0
0
LINE
8
FRONT
10
0.377550
20
0.459465
30
0.0
11
0.386112
21
0.452282
31
0.0
0
LINE
8
FRONT
10
0.386112
20
0.452282
30
0.0
11
0.395020
21
0.445534
31
0.0
0
LINE
8
FRONT
10
0.395020
20
0.445534
30
0.0
11
0.404254
21
0.439238
31
0.0
0
LINE
8
FRONT
10
0.404254
20
0.439238
30
0.0
11
0.413791
21
0.433410
31
0.0
0
LINE
8
FRONT
10
0.413791
20
0.433410
30
0.0
11
0.423606
21
0.428066
31
0.0
0
LINE
8
FRONT
10
0.423606
20
0.428066
30
0.0
11
0.433675
21
0.423217
31
0.0
0
LINE
8
FRONT
10
0.433675
20
0.423217
30
0.0
11
0.443973
21
0.418875
31
0.0
0
LINE
8
FRONT
10
0.443973
20
0.418875
30
0.0
11
0.454475
21
0.415053
31
0.0
0
LINE
8
FRONT
10
0.454475
20
0.415053
30
0.0
11
0.465154
21
0.411759
31
0.0
0
LINE
8
FRONT
10
0.465154
20
0.411759
30
0.0
11
0.475985
21
0.409001
31
0.0
0
LINE
8
FRONT
10
0.475985
20
0.409001
30
0.0
11
0.486939
21
0.406787
31
0.0
0
LINE
8
FRONT
10
0.486939
20
0.406787
30
0.0
11
0.497990
21
0.405121
31
0.0
0
LINE
8
FRONT
10
0.497990
20
0.405121
30
0.0
11
0.509110
21
0.404008
31
0.0
0
LINE
8
FRONT
10
0.509110
20
0.404008
30
0.0
11
0.520272
21
0.403451
31
0.0
0
LINE
8
FRONT
10
0.520272
20
0.403451
30
0.0
11
0.531448
21
0.403451
31
0.0
0
LINE
8
FRONT
10
0.531448
20
0.403451
30
0.0
11
0.542610
21
0.404008
31
0.0
0
LINE
8
FRONT
10
0.542610
20
0.404008
30
0.0
11
0.553731
21
0.405121
31
0.0
0
LINE
8
FRONT
10
0.553731
20
0.405121
30
0.0
11
0.564782
21
0.406787
31
0.0
0
LINE
8
FRONT
10
0.564782
20
0.406787
30
0.0
11
0.575736
21
0.409001
31
0.0
0
LINE
8
FRONT
10
0.575736
20
0.409001
30
0.0
11
0.586567
21
0.411759
31
0.0
0
LINE
8
FRONT
10
0.586567
20
0.411759
30
0.0
11
0.597246
21
0.415053
31
0.0
0
LINE
8
FRONT
10
0.597246
20
0.415053
30
0.0
11
0.607748
21
0.418875
31
0.0
0
LINE
8
FRONT
10
0.607748
20
0.418875
30
0.0
11
0.618046
21
0.423217
31
0.0
0
LINE
8
FRONT
10
0.618046
20
0.423217
30
0.0
11
0.628115
21
0.428066
31
0.0
0
LINE
8
FRONT
10
0.628115
20
0.428066
30
0.0
11
0.637930
21
0.433410
31
0.0
0
LINE
8
FRONT
10
0.637930
20
0.433410
30
0.0
11
0.647467
21
0.439238
31
0.0
0
LINE
8
FRONT
10
0.647467
20
0.439238
30
0.0
11
0.656700
21
0.445534
31
0.0
0
LINE
8
FRONT
10
0.656700
20
0.445534
30
0.0
11
0.665609
21
0.452282
31
0.0
0
LINE
8
FRONT
10
0.665609
20
0.452282
30
0.0
11
0.674170
21
0.459465
31
0.0
0
LINE
8
FRONT
10
0.674170
20
0.459465
30
0.0
11
0.682363
21
0.467067
31
0.0
0
LINE
8
FRONT
10
0.682363
20
0.467067
30
0.0
11
0.690166
21
0.475067
31
0.0
0
LINE
8
FRONT
10
0.690166
20
0.475067
30
0.0
11
0.697561
21
0.483447
31
0.0
0
LINE
8
FRONT
10
0.697561
20
0.483447
30
0.0
11
0.704529
21
0.492185
31
0.0
0
LINE
8
FRONT
10
0.704529
20
0.492185
30
0.0
11
0.711053
21
0.501259
31
0.0
0
LINE
8
FRONT
10
0.711053
20
0.501259
30
0.0
11
0.717117
21
0.510647
31
0.0
0
LINE
8
FRONT
10
0.717117
20
0.510647
30
0.0
11
0.722705
21
0.520325
31
0.0
0
LINE
8
FRONT
10
0.722705
20
0.520325
30
0.0
11
0.727803
21
0.530271
31
0.0
0
LINE
8
FRONT
10
0.727803
20
0.530271
30
0.0
11
0.732400
21
0.540457
31
0.0
0
LINE
8
FRONT
10
0.732400
20
0.540457
30
0.0
11
0.736483
21
0.550861
31
0.0
0
LINE
8
FRONT
10
0.736483
20
0.550861
30
0.0
11
0.740042
21
0.561455
31
0.0
0
LINE
8
FRONT
10
0.740042
20
0.561455
30
0.0
11
0.743069
21
0.572213
31
0.0
0
LINE
8
FRONT
10
0.743069
20
0.572213
30
0.0
11
0.745556
21
0.583109
31
0.0
0
LINE
8
FRONT
10
0.745556
20
0.583109
30
0.0
11
0.747497
21
0.594115
31
0.0
0
LINE
8
FRONT
10
0.747497
20
0.594115
30
0.0
11
0.748886
21
0.605204
31
0.0
0
LINE
8
FRONT
10
0.748886
20
0.605204
30
0.0
11
0.749721
21
0.616349
31
0.0
0
LINE
8
FRONT
10
0.749721
20
0.616349
30
0.0
11
0.750000
21
0.627521
31
0.0
0
LINE
8
FRONT
10
0.750000
20
0.627521
30
0.0
11
0.750000
21
0.757281
31
0.0
0
LINE
8
FRONT
10
0.750000
20
0.757281
30
0.0
11
0.637930
21
0.757281
31
0.0
0
LINE
8
FRONT
10
0.637930
20
0.757281
30
0.0
11
0.637930
21
0.627521
31
0.0
0
LINE
8
FRONT
10
0.637930
20
0.627521
30
0.0
11
0.637791
21
0.621935
31
0.0
0
LINE
8
FRONT
10
0.637791
20
0.621935
30
0.0
11
0.637373
21
0.616362
31
0.0
0
LINE
8
FRONT
10
0.637373
20
0.616362
30
0.0
11
0.636678
21
0.610818
31
0.0
0
LINE
8
FRONT
10
0.636678
20
0.610818
30
0.0
11
0.635708
21
0.605315
31
0.0
0
LINE
8
FRONT
10
0.635708
20
0.605315
30
0.0
11
0.634465
21
0.599867
31
0.0
0
LINE
8
FRONT
10
0.634465
20
0.599867
30
0.0
11
0.632951
21
0.594488
31
0.0
0
LINE
8
FRONT
10
0.632951
20
0.594488
30
0.0
11
0.631172
21
0.589191
31
0.0
0
LINE
8
FRONT
10
0.631172
20
0.589191
30
0.0
11
0.629130
21
0.583989
31
0.0
0
LINE
8
FRONT
10
0.629130
20
0.583989
30
0.0
11
0.626832
21
0.578896
31
0.0
0
LINE
8
FRONT
10
0.626832
20
0.578896
30
0.0
11
0.624283
21
0.573923
31
0.0
0
LINE
8
FRONT
10
0.624283
20
0.573923
30
0.0
11
0.621489
21
0.569084
31
0.0
0
LINE
8
FRONT
10
0.621489
20
0.569084
30
0.0
11
0.618457
21
0.564390
31
0.0
0
LINE
8
FRONT
10
0.618457
20
0.564390
30
0.0
11
0.615195
21
0.559853
31
0.0
0
LINE
8
FRONT
10
0.615195
20
0.559853
30
0.0
11
0.611711
21
0.555484
31
0.0
0
LINE
8
FRONT
10
0.611711
20
0.555484
30
0.0
11
0.608013
21
0.551294
31
0.0
0
LINE
8
FRONT
10
0.608013
20
0.551294
30
0.0
11
0.604112
21
0.547294
31
0.0
0
LINE
8
FRONT
10
0.604112
20
0.547294
30
0.0
11
0.600015
21
0.543493
31
0.0
0
LINE
8
FRONT
10
0.600015
20
0.543493
30
0.0
11
0.595735
21
0.539901
31
0.0
0
LINE
8
FRONT
10
0.595735
20
0.539901
30
0.0
11
0.591280
21
0.536527
31
0.0
0
LINE
8
FRONT
10
0.591280
20
0.536527
30
0.0
11
0.586663
21
0.533379
31
0.0
0
LINE
8
FRONT
10
0.586663
20
0.533379
30
0.0
11
0.581895
21
0.530466
31
0.0
0
LINE
8
FRONT
10
0.581895
20
0.530466
30
0.0
11
0.576988
21
0.527793
31
0.0
0
LINE
8
FRONT
10
0.576988
20
0.527793
30
0.0
11
0.571953
21
0.525369
31
0.0
0
LINE
8
FRONT
10
0.571953
20
0.525369
30
0.0
11
0.566804
21
0.523198
31
0.0
0
LINE
8
FRONT
10
0.566804
20
0.523198
30
0.0
11
0.561553
21
0.521287
31
0.0
0
LINE
8
FRONT
10
0.561553
20
0.521287
30
0.0
11
0.556213
21
0.519640
31
0.0
0
LINE
8
FRONT
10
0.556213
20
0.519640
30
0.0
11
0.550798
21
0.518261
31
0.0
0
LINE
8
FRONT
10
0.550798
20
0.518261
30
0.0
11
0.545321
21
0.517154
31
0.0
0
LINE
8
FRONT
10
0.545321
20
0.517154
30
0.0
11
0.539796
21
0.516321
31
0.0
0
LINE
8
FRONT
10
0.539796
20
0.516321
30
0.0
11
0.534235
21
0.515765
31
0.0
0
LINE
8
FRONT
10
0.534235
20
0.515765
30
0.0
11
0.528654
21
0.515486
31
0.0
0
LINE
8
FRONT
10
0.528654
20
0.515486
30
0.0
11
0.523066
21
0.515486
31
0.0
0
LINE
8
FRONT
10
0.523066
20
0.515486
30
0.0
11
0.517485
21
0.515765
31
0.0
0
LINE
8
FRONT
10
0.517485
20
0.515765
30
0.0
11
0.511925
21
0.516321
31
0.0
0
LINE
8
FRONT
10
0.511925
20
0.516321
30
0.0
11
0.506400
21
0.517154
31
0.0
0
LINE
8
FRONT
10
0.506400
20
0.517154
30
0.0
11
0.500923
21
0.518261
31
0.0
0
LINE
8
FRONT
10
0.500923
20
0.518261
30
0.0
11
0.495507
21
0.519640
31
0.0
0
LINE
8
FRONT
10
0.495507
20
0.519640
30
0.0
11
0.490168
21
0.521287
31
0.0
0
LINE
8
FRONT
10
0.490168
20
0.521287
30
0.0
11
0.484917
21
0.523198
31
0.0
0
LINE
8
FRONT
10
0.484917
20
0.523198
30
0.0
11
0.479768
21
0.525369
31
0.0
0
LINE
8
FRONT
10
0.479768
20
0.525369
30
0.0
11
0.474733
21
0.527793
31
0.0
0
LINE
8
FRONT
10
0.474733
20
0.527793
30
0.0
11
0.469826
21
0.530466
31
0.0
0
LINE
8
FRONT
10
0.469826
20
0.530466
30
0.0
11
0.465057
21
0.533379
31
0.0
0
LINE
8
FRONT
10
0.465057
20
0.533379
30
0.0
11
0.460440
21
0.536527
31
0.0
0
LINE
8
FRONT
10
0.460440
20
0.536527
30
0.0
11
0.455986
21
0.539901
31
0.0
0
LINE
8
FRONT
10
0.455986
20
0.539901
30
0.0
11
0.451705
21
0.543493
31
0.0
0
LINE
8
FRONT
10
0.451705
20
0.543493
30
0.0
11
0.447609
21
0.547294
31
0.0
0
LINE
8
FRONT
10
0.447609
20
0.547294
30
0.0
11
0.443707
21
0.551294
31
0.0
0
LINE
8
FRONT
10
0.443707
20
0.551294
30
0.0
11
0.440010
21
0.555484
31
0.0
0
LINE
8
FRONT
10
0.440010
20
0.555484
30
0.0
11
0.436526
21
0.559853
31
0.0
0
LINE
8
FRONT
10
0.436526
20
0.559853
30
0.0
11
0.433264
21
0.564390
31
0.0
0
LINE
8
FRONT
10
0.433264
20
0.564390
30
0.0
11
0.430232
21
0.569084
31
0.0
0
LINE
8
FRONT
10
0.430232
20
0.569084
30
0.0
11
0.427438
21
0.573923
31
0.0
0
LINE
8
FRONT
10
0.427438
20
0.573923
30
0.0
11
0.424889
21
0.578896
31
0.0
0
LINE
8
FRONT
10
0.424889
20
0.578896
30
0.0
11
0.422591
21
0.583989
31
0.0
0
LINE
8
FRONT
10
0.422591
20
0.583989
30
0.0
11
0.420549
21
0.589191
31
0.0
0
LINE
8
FRONT
10
0.420549
20
0.589191
30
0.0
11
0.418770
21
0.594488
31
0.0
0
LINE
8
FRONT
10
0.418770
20
0.594488
30
0.0
11
0.417256
21
0.599867
31
0.0
0
LINE
8
FRONT
10
0.417256
20
0.599867
30
0.0
11
0.416013
21
0.605315
31
0.0
0
LINE
8
FRONT
10
0.416013
20
0.605315
30
0.0
11
0.415042
21
0.610818
31
0.0
0
LINE
8
FRONT
10
0.415042
20
0.610818
30
0.0
11
0.414348
21
0.616362
31
0.0
0
LINE
8
FRONT
10
0.414348
20
0.616362
30
0.0
11
0.413930
21
0.621935
31
0.0
0
LINE
8
FRONT
10
0.413930
20
0.621935
30
0.0
11
0.413791
21
0.627521
31
0.0
0
LINE
8
FRONT
10
0.413791
20
0.627521
30
0.0
11
0.413791
21
1.299940
31
0.0
0
LINE
8
FRONT
10
0.413791
20
1.299940
30
0.0
11
0.000000
21
1.299940
31
0.0
0
LINE
8
LEFT
10
1.041381
20
0.844232
30
0.0
11
1.153451
21
0.844232
31
0.0
0
LINE
8
LEFT
10
1.041381
20
1.300009
30
0.0
11
1.153451
21
1.300009
31
0.0
0
LINE
8
LEFT
10
1.153451
20
1.300009
30
0.0
11
1.153451
21
0.844232
31
0.0
0
LINE
8
LEFT
10
1.041381
20
0.844232
30
0.0
11
0.929312
21
0.844232
31
0.0
0
LINE
8
LEFT
10
1.153451
20
0.844232
30
0.0
11
1.153451
21
0.627591
31
0.0
0
LINE
8
LEFT
10
1.153451
20
0.627591
30
0.0
11
1.153451
21
0.403451
31
0.0
0
LINE
8
LEFT
10
1.041381
20
1.300009
30
0.0
11
0.929312
21
1.300009
31
0.0
0
LINE
8
LEFT
10
0.929312
20
1.300009
30
0.0
11
0.929312
21
0.844232
31
0.0
0
LINE
8
LEFT
10
0.929312
20
0.844232
30
0.0
11
0.929312
21
0.627591
31
0.0
0
LINE
8
LEFT
10
0.929312
20
0.627591
30
0.0
11
0.929312
21
0.403451
31
0.0
0
LINE
8
LEFT
10
1.041381
20
0.627591
30
0.0
11
1.153451
21
0.627591
31
0.0
0
LINE
8
LEFT
10
1.041381
20
0.627591
30
0.0
11
0.929312
21
0.627591
31
0.0
0
LINE
8
LEFT
10
1.153451
20
0.403451
30
0.0
11
1.041381
21
0.403451
31
0.0
0
LINE
8
LEFT
10
0.929312
20
0.403451
30
0.0
11
1.041381
21
0.403451
31
0.0
0
LINE
8
LEFT_HID
6
HIDDEN
10
1.153451
20
0.844232
30
0.0
11
1.153451
21
1.187939
31
0.0
0
LINE
8
LEFT_HID
6
HIDDEN
10
1.041381
20
1.187939
30
0.0
11
1.153451
21
1.187939
31
0.0
0
LINE
8
LEFT_HID
6
HIDDEN
10
1.153451
20
1.187939
30
0.0
11
1.153451
21
0.844232
31
0.0
0
LINE
8
LEFT_HID
6
HIDDEN
10
1.153451
20
0.627591
30
0.0
11
1.153451
21
0.757350
31
0.0
0
LINE
8
LEFT_HID
6
HIDDEN
10
1.153451
20
0.757350
30
0.0
11
1.153451
21
0.627591
31
0.0
0
LINE
8
LEFT_HID
6
HIDDEN
10
1.153451
20
0.627591
30
0.0
11
1.153451
21
0.515521
31
0.0
0
LINE
8
LEFT_HID
6
HIDDEN
10
1.153451
20
0.515521
30
0.0
11
1.153451
21
0.627591
31
0.0
0
LINE
8
LEFT_HID
6
HIDDEN
10
1.153451
20
0.627591
30
0.0
11
1.153451
21
1.300009
31
0.0
0
LINE
8
LEFT_HID
6
HIDDEN
10
1.041381
20
1.187939
30
0.0
11
1.153451
21
1.187939
31
0.0
0
LINE
8
LEFT_HID
6
HIDDEN
10
0.929312
20
0.844232
30
0.0
11
0.929312
21
1.187939
31
0.0
0
LINE
8
LEFT_HID
6
HIDDEN
10
1.041381
20
1.187939
30
0.0
11
0.929312
21
1.187939
31
0.0
0
LINE
8
LEFT_HID
6
HIDDEN
10
0.929312
20
1.187939
30
0.0
11
0.929312
21
0.844232
31
0.0
0
LINE
8
LEFT_HID
6
HIDDEN
10
0.929312
20
0.627591
30
0.0
11
0.929312
21
0.757350
31
0.0
0
LINE
8
LEFT_HID
6
HIDDEN
10
0.929312
20
0.757350
30
0.0
11
0.929312
21
0.627591
31
0.0
0
LINE
8
LEFT_HID
6
HIDDEN
10
0.929312
20
0.627591
30
0.0
11
0.929312
21
0.515521
31
0.0
0
LINE
8
LEFT_HID
6
HIDDEN
10
0.929312
20
0.515521
30
0.0
11
0.929312
21
0.627591
31
0.0
0
LINE
8
LEFT_HID
6
HIDDEN
10
0.929312
20
0.627591
30
0.0
11
0.929312
21
1.300009
31
0.0
0
LINE
8
LEFT_HID
6
HIDDEN
10
1.041381
20
0.757350
30
0.0
11
1.153451
21
0.757350
31
0.0
0
LINE
8
LEFT_HID
6
HIDDEN
10
1.041381
20
0.757350
30
0.0
11
1.153451
21
0.757350
31
0.0
0
LINE
8
LEFT_HID
6
HIDDEN
10
1.041381
20
1.187939
30
0.0
11
0.929312
21
1.187939
31
0.0
0
LINE
8
LEFT_HID
6
HIDDEN
10
1.041381
20
0.757350
30
0.0
11
0.929312
21
0.757350
31
0.0
0
LINE
8
LEFT_HID
6
HIDDEN
10
1.041381
20
0.757350
30
0.0
11
0.929312
21
0.757350
31
0.0
0
LINE
8
LEFT_HID
6
HIDDEN
10
1.153451
20
0.515521
30
0.0
11
1.041381
21
0.515521
31
0.0
0
LINE
8
LEFT_HID
6
HIDDEN
10
0.929312
20
0.515521
30
0.0
11
1.041381
21
0.515521
31
0.0
0
LINE
8
TOP
10
0.000000
20
0.112070
30
0.0
11
0.000000
21
0.000000
31
0.0
0
LINE
8
TOP
10
0.750000
20
0.000000
30
0.0
11
0.637930
21
0.000000
31
0.0
0
LINE
8
TOP
10
0.637930
20
0.000000
30
0.0
11
0.413791
21
0.000000
31
0.0
0
LINE
8
TOP
10
0.413791
20
0.000000
30
0.0
11
0.000000
21
0.000000
31
0.0
0
LINE
8
TOP
10
0.413791
20
0.112070
30
0.0
11
0.413791
21
0.000000
31
0.0
0
LINE
8
TOP
10
0.000000
20
0.112070
30
0.0
11
0.000000
21
0.224140
31
0.0
0
LINE
8
TOP
10
0.750000
20
0.224140
30
0.0
11
0.637930
21
0.224140
31
0.0
0
LINE
8
TOP
10
0.637930
20
0.224140
30
0.0
11
0.413791
21
0.224140
31
0.0
0
LINE
8
TOP
10
0.413791
20
0.224140
30
0.0
11
0.000000
21
0.224140
31
0.0
0
LINE
8
TOP
10
0.750000
20
0.112070
30
0.0
11
0.750000
21
0.000000
31
0.0
0
LINE
8
TOP
10
0.637930
20
0.112070
30
0.0
11
0.637930
21
0.000000
31
0.0
0
LINE
8
TOP
10
0.413791
20
0.112070
30
0.0
11
0.413791
21
0.224140
31
0.0
0
LINE
8
TOP
10
0.750000
20
0.112070
30
0.0
11
0.750000
21
0.224140
31
0.0
0
LINE
8
TOP
10
0.637930
20
0.112070
30
0.0
11
0.637930
21
0.224140
31
0.0
0
LINE
8
TOP_HID
6
HIDDEN
10
0.000000
20
0.000000
30
0.0
11
0.089656
21
0.000000
31
0.0
0
LINE
8
TOP_HID
6
HIDDEN
10
0.089656
20
0.112070
30
0.0
11
0.089656
21
0.000000
31
0.0
0
LINE
8
TOP_HID
6
HIDDEN
10
0.089656
20
0.112070
30
0.0
11
0.089656
21
0.000000
31
0.0
0
LINE
8
TOP_HID
6
HIDDEN
10
0.000000
20
0.224140
30
0.0
11
0.089656
21
0.224140
31
0.0
0
LINE
8
TOP_HID
6
HIDDEN
10
0.089656
20
0.112070
30
0.0
11
0.089656
21
0.224140
31
0.0
0
LINE
8
TOP_HID
6
HIDDEN
10
0.089656
20
0.000000
30
0.0
11
0.301721
21
0.000000
31
0.0
0
LINE
8
TOP_HID
6
HIDDEN
10
0.301721
20
0.000000
30
0.0
11
0.750000
21
0.000000
31
0.0
0
LINE
8
TOP_HID
6
HIDDEN
10
0.301721
20
0.112070
30
0.0
11
0.301721
21
0.000000
31
0.0
0
LINE
8
TOP_HID
6
HIDDEN
10
0.089656
20
0.112070
30
0.0
11
0.089656
21
0.224140
31
0.0
0
LINE
8
TOP_HID
6
HIDDEN
10
0.089656
20
0.224140
30
0.0
11
0.301721
21
0.224140
31
0.0
0
LINE
8
TOP_HID
6
HIDDEN
10
0.301721
20
0.224140
30
0.0
11
0.750000
21
0.224140
31
0.0
0
LINE
8
TOP_HID
6
HIDDEN
10
0.301721
20
0.112070
30
0.0
11
0.301721
21
0.000000
31
0.0
0
LINE
8
TOP_HID
6
HIDDEN
10
0.301721
20
0.112070
30
0.0
11
0.301721
21
0.224140
31
0.0
0
LINE
8
TOP_HID
6
HIDDEN
10
0.301721
20
0.112070
30
0.0
11
0.301721
21
0.224140
31
0.0
0
ENDSEC
0
EOF
