0
SECTION
2
HEADER
9
$ACADVER
1
AC1009
0
ENDSEC
0
SECTION
2
TABLES
0
TABLE
2
LTYPE
70
3
0
LTYPE
2
CONTINUOUS
70
0
3
Solid line
72
65
73
0
40
0.0
0
LTYPE
2
HIDDEN
70
0
3
__ __ __ __ __
72
65
73
2
40
0.046875
49
0.031266
49
-0.015609
0
LTYPE
2
CENTER
70
0
3
___ _ ___ _ ___
72
65
73
4
40
0.109359
49
0.062484
49
-0.015609
49
0.015609
49
-0.015609
0
ENDTAB
0
TABLE
2
LAYER
70
5
0
LAYER
2
0
70
0
62
7
6
CONTINUOUS
0
LAYER
2
FRONT
70
0
62
7
6
CONTINUOUS
0
LAYER
2
LEFT
70
0
62
7
6
CONTINUOUS
0
LAYER
2
LEFT_HID
70
0
62
7
6
HIDDEN
0
LAYER
2
TOP
70
0
62
7
6
CONTINUOUS
0
ENDTAB
0
ENDSEC
0
SECTION
2
ENTITIES
0
LINE
8
FRONT
10
0.000000
20
1.218604
30
0.0
11
0.002329
21
1.171932
31
0.0
0
LINE
8
FRONT
10
0.002329
20
1.171932
30
0.0
11
0.009294
21
1.125723
31
0.0
0
LINE
8
FRONT
10
0.009294
20
1.125723
30
0.0
11
0.020825
21
1.080438
31
0.0
0
LINE
8
FRONT
10
0.020825
20
1.080438
30
0.0
11
0.036808
21
1.036525
31
0.0
0
LINE
8
FRONT
10
0.036808
20
1.036525
30
0.0
11
0.057084
21
0.994423
31
0.0
0
LINE
8
FRONT
10
0.057084
20
0.994423
30
0.0
11
0.081451
21
0.954548
31
0.0
0
LINE
8
FRONT
10
0.081451
20
0.954548
30
0.0
11
0.109667
21
0.917298
31
0.0
0
LINE
8
FRONT
10
0.109667
20
0.917298
30
0.0
11
0.141451
21
0.883042
31
0.0
0
LINE
8
FRONT
10
0.141451
20
0.883042
30
0.0
11
0.176489
21
0.852121
31
0.0
0
LINE
8
FRONT
10
0.176489
20
0.852121
30
0.0
11
0.214431
21
0.824842
31
0.0
0
LINE
8
FRONT
10
0.214431
20
0.824842
30
0.0
11
0.254901
21
0.801477
31
0.0
0
LINE
8
FRONT
10
0.254901
20
0.801477
30
0.0
11
0.297496
21
0.782257
31
0.0
0
LINE
8
FRONT
10
0.297496
20
0.782257
30
0.0
11
0.341794
21
0.767374
31
0.0
0
LINE
8
FRONT
10
0.341794
20
0.767374
30
0.0
11
0.387352
21
0.756976
31
0.0
0
LINE
8
FRONT
10
0.387352
20
0.756976
30
0.0
11
0.433720
21
0.751165
31
0.0
0
LINE
8
FRONT
10
0.433720
20
0.751165
30
0.0
11
0.480436
21
0.750000
31
0.0
0
LINE
8
FRONT
10
0.480436
20
0.750000
30
0.0
11
0.527036
21
0.753492
31
0.0
0
LINE
8
FRONT
10
0.527036
20
0.753492
30
0.0
11
0.573057
21
0.761607
31
0.0
0
LINE
8
FRONT
10
0.573057
20
0.761607
30
0.0
11
0.618041
21
0.774263
31
0.0
0
LINE
8
FRONT
10
0.618041
20
0.774263
30
0.0
11
0.661541
21
0.791336
31
0.0
0
LINE
8
FRONT
10
0.661541
20
0.791336
30
0.0
11
0.703125
21
0.812655
31
0.0
0
LINE
8
FRONT
10
0.703125
20
0.812655
30
0.0
11
0.742380
21
0.838008
31
0.0
0
LINE
8
FRONT
10
0.742380
20
0.838008
30
0.0
11
0.778915
21
0.867144
31
0.0
0
LINE
8
FRONT
10
0.778915
20
0.867144
30
0.0
11
0.812368
21
0.899773
31
0.0
0
LINE
8
FRONT
10
0.812368
20
0.899773
30
0.0
11
0.842406
21
0.935571
31
0.0
0
LINE
8
FRONT
10
0.842406
20
0.935571
30
0.0
11
0.868730
21
0.974182
31
0.0
0
LINE
8
FRONT
10
0.868730
20
0.974182
30
0.0
11
0.891079
21
1.015221
31
0.0
0
LINE
8
FRONT
10
0.891079
20
1.015221
30
0.0
11
0.909231
21
1.058282
31
0.0
0
LINE
8
FRONT
10
0.909231
20
1.058282
30
0.0
11
0.923005
21
1.102937
31
0.0
0
LINE
8
FRONT
10
0.923005
20
1.102937
30
0.0
11
0.932264
21
1.148741
31
0.0
0
LINE
8
FRONT
10
0.932264
20
1.148741
30
0.0
11
0.936917
21
1.195239
31
0.0
0
LINE
8
FRONT
10
0.936917
20
1.195239
30
0.0
11
0.936917
21
1.241970
31
0.0
0
LINE
8
FRONT
10
0.936917
20
1.241970
30
0.0
11
0.932264
21
1.288468
31
0.0
0
LINE
8
FRONT
10
0.932264
20
1.288468
30
0.0
11
0.923005
21
1.334272
31
0.0
0
LINE
8
FRONT
10
0.923005
20
1.334272
30
0.0
11
0.909231
21
1.378926
31
0.0
0
LINE
8
FRONT
10
0.909231
20
1.378926
30
0.0
11
0.891079
21
1.421987
31
0.0
0
LINE
8
FRONT
10
0.891079
20
1.421987
30
0.0
11
0.868730
21
1.463027
31
0.0
0
LINE
8
FRONT
10
0.868730
20
1.463027
30
0.0
11
0.842406
21
1.501638
31
0.0
0
LINE
8
FRONT
10
0.842406
20
1.501638
30
0.0
11
0.812368
21
1.537435
31
0.0
0
LINE
8
FRONT
10
0.812368
20
1.537435
30
0.0
11
0.778915
21
1.570064
31
0.0
0
LINE
8
FRONT
10
0.778915
20
1.570064
30
0.0
11
0.742380
21
1.599200
31
0.0
0
LINE
8
FRONT
10
0.742380
20
1.599200
30
0.0
11
0.703125
21
1.624554
31
0.0
0
LINE
8
FRONT
10
0.703125
20
1.624554
30
0.0
11
0.661541
21
1.645873
31
0.0
0
LINE
8
FRONT
10
0.661541
20
1.645873
30
0.0
11
0.618041
21
1.662945
31
0.0
0
LINE
8
FRONT
10
0.618041
20
1.662945
30
0.0
11
0.573057
21
1.675602
31
0.0
0
LINE
8
FRONT
10
0.573057
20
1.675602
30
0.0
11
0.527036
21
1.683716
31
0.0
0
LINE
8
FRONT
10
0.527036
20
1.683716
30
0.0
11
0.480436
21
1.687209
31
0.0
0
LINE
8
FRONT
10
0.480436
20
1.687209
30
0.0
11
0.433720
21
1.686044
31
0.0
0
LINE
8
FRONT
10
0.433720
20
1.686044
30
0.0
11
0.387352
21
1.680233
31
0.0
0
LINE
8
FRONT
10
0.387352
20
1.680233
30
0.0
11
0.341794
21
1.669834
31
0.0
0
LINE
8
FRONT
10
0.341794
20
1.669834
30
0.0
11
0.297496
21
1.654951
31
0.0
0
LINE
8
FRONT
10
0.297496
20
1.654951
30
0.0
11
0.254901
21
1.635732
31
0.0
0
LINE
8
FRONT
10
0.254901
20
1.635732
30
0.0
11
0.214431
21
1.612366
31
0.0
0
LINE
8
FRONT
10
0.214431
20
1.612366
30
0.0
11
0.176489
21
1.585088
31
0.0
0
LINE
8
FRONT
10
0.176489
20
1.585088
30
0.0
11
0.141451
21
1.554167
31
0.0
0
LINE
8
FRONT
10
0.141451
20
1.554167
30
0.0
11
0.109667
21
1.519911
31
0.0
0
LINE
8
FRONT
10
0.109667
20
1.519911
30
0.0
11
0.081451
21
1.482661
31
0.0
0
LINE
8
FRONT
10
0.081451
20
1.482661
30
0.0
11
0.057084
21
1.442786
31
0.0
0
LINE
8
FRONT
10
0.057084
20
1.442786
30
0.0
11
0.036808
21
1.400683
31
0.0
0
LINE
8
FRONT
10
0.036808
20
1.400683
30
0.0
11
0.020825
21
1.356771
31
0.0
0
LINE
8
FRONT
10
0.020825
20
1.356771
30
0.0
11
0.009294
21
1.311485
31
0.0
0
LINE
8
FRONT
10
0.009294
20
1.311485
30
0.0
11
0.002329
21
1.265277
31
0.0
0
LINE
8
FRONT
10
0.002329
20
1.265277
30
0.0
11
0.000000
21
1.218604
31
0.0
0
LINE
8
LEFT
10
1.124417
20
1.218750
30
0.0
11
1.124417
21
0.750000
31
0.0
0
LINE
8
LEFT
10
1.124417
20
1.687500
30
0.0
11
1.124417
21
1.218750
31
0.0
0
LINE
8
LEFT
10
1.686917
20
1.218750
30
0.0
11
1.686917
21
0.750000
31
0.0
0
LINE
8
LEFT
10
1.686917
20
1.687500
30
0.0
11
1.686917
21
1.218750
31
0.0
0
LINE
8
LEFT
10
1.686917
20
1.687500
30
0.0
11
1.124417
21
1.687500
31
0.0
0
LINE
8
LEFT
10
1.686917
20
0.750000
30
0.0
11
1.124417
21
0.750000
31
0.0
0
LINE
8
LEFT_HID
6
HIDDEN
10
1.124417
20
0.750000
30
0.0
11
1.124417
21
1.687500
31
0.0
0
LINE
8
LEFT_HID
6
HIDDEN
10
1.686917
20
0.750000
30
0.0
11
1.686917
21
1.687500
31
0.0
0
LINE
8
TOP
10
0.937500
20
0.562500
30
0.0
11
0.000000
21
0.562500
31
0.0
0
LINE
8
TOP
10
0.000000
20
0.562500
30
0.0
11
0.000000
21
0.000000
31
0.0
0
LINE
8
TOP
10
0.937500
20
0.000000
30
0.0
11
0.000000
21
0.000000
31
0.0
0
LINE
8
TOP
10
0.937500
20
0.000000
30
0.0
11
0.937500
21
0.562500
31
0.0
0
ENDSEC
0
EOF
