0
SECTION
2
HEADER
9
$ACADVER
1
AC1009
0
ENDSEC
0
SECTION
2
TABLES
0
TABLE
2
LTYPE
70
3
0
LTYPE
2
CONTINUOUS
70
0
3
Solid line
72
65
73
0
40
0.0
0
LTYPE
2
HIDDEN
70
0
3
__ __ __ __ __
72
65
73
2
40
0.075000
49
0.050025
49
-0.024975
0
LTYPE
2
CENTER
70
0
3
___ _ ___ _ ___
72
65
73
4
40
0.174975
49
0.099975
49
-0.024975
49
0.024975
49
-0.024975
0
ENDTAB
0
TABLE
2
LAYER
70
7
0
LAYER
2
0
70
0
62
7
6
CONTINUOUS
0
LAYER
2
FRONT
70
0
62
7
6
CONTINUOUS
0
LAYER
2
FRONT_HID
70
0
62
7
6
HIDDEN
0
LAYER
2
LEFT
70
0
62
7
6
CONTINUOUS
0
LAYER
2
LEFT_HID
70
0
62
7
6
HIDDEN
0
LAYER
2
TOP
70
0
62
7
6
CONTINUOUS
0
LAYER
2
TOP_HID
70
0
62
7
6
HIDDEN
0
ENDTAB
0
ENDSEC
0
SECTION
2
ENTITIES
0
LINE
8
FRONT
10
1.500000
20
1.799534
30
0.0
11
0.000000
21
1.799534
31
0.0
0
LINE
8
FRONT
10
1.500000
20
1.799534
30
0.0
11
1.500000
21
2.259534
31
0.0
0
LINE
8
FRONT
10
1.500000
20
2.259534
30
0.0
11
0.000000
21
2.259534
31
0.0
0
LINE
8
FRONT
10
0.000000
20
2.259534
30
0.0
11
0.000000
21
1.799534
31
0.0
0
LINE
8
FRONT_HID
6
HIDDEN
10
0.060000
20
1.799534
30
0.0
11
1.440000
21
1.799534
31
0.0
0
LINE
8
FRONT_HID
6
HIDDEN
10
1.440000
20
1.799534
30
0.0
11
0.060000
21
1.799534
31
0.0
0
LINE
8
FRONT_HID
6
HIDDEN
10
1.440000
20
2.259534
30
0.0
11
0.060000
21
2.259534
31
0.0
0
LINE
8
FRONT_HID
6
HIDDEN
10
0.060000
20
2.259534
30
0.0
11
1.440000
21
2.259534
31
0.0
0
LINE
8
FRONT_HID
6
HIDDEN
10
0.060000
20
1.799534
30
0.0
11
0.060000
21
1.999534
31
0.0
0
LINE
8
FRONT_HID
6
HIDDEN
10
0.060000
20
1.999534
30
0.0
11
1.440000
21
1.999534
31
0.0
0
LINE
8
FRONT_HID
6
HIDDEN
10
1.440000
20
1.999534
30
0.0
11
0.060000
21
1.999534
31
0.0
0
LINE
8
FRONT_HID
6
HIDDEN
10
1.440000
20
2.259534
30
0.0
11
1.440000
21
2.059534
31
0.0
0
LINE
8
FRONT_HID
6
HIDDEN
10
1.440000
20
2.059534
30
0.0
11
0.060000
21
2.059534
31
0.0
0
LINE
8
FRONT_HID
6
HIDDEN
10
0.060000
20
2.059534
30
0.0
11
1.440000
21
2.059534
31
0.0
0
LINE
8
FRONT_HID
6
HIDDEN
10
0.630000
20
1.999534
30
0.0
11
0.870000
21
1.999534
31
0.0
0
LINE
8
FRONT_HID
6
HIDDEN
10
0.870000
20
1.999534
30
0.0
11
0.630000
21
1.999534
31
0.0
0
LINE
8
FRONT_HID
6
HIDDEN
10
0.870000
20
2.059534
30
0.0
11
0.630000
21
2.059534
31
0.0
0
LINE
8
FRONT_HID
6
HIDDEN
10
0.630000
20
2.059534
30
0.0
11
0.870000
21
2.059534
31
0.0
0
LINE
8
FRONT_HID
6
HIDDEN
10
0.630000
20
1.799534
30
0.0
11
0.630000
21
1.999534
31
0.0
0
LINE
8
FRONT_HID
6
HIDDEN
10
0.630000
20
1.799534
30
0.0
11
0.870000
21
1.799534
31
0.0
0
LINE
8
FRONT_HID
6
HIDDEN
10
0.870000
20
1.799534
30
0.0
11
0.630000
21
1.799534
31
0.0
0
LINE
8
FRONT_HID
6
HIDDEN
10
0.870000
20
2.259534
30
0.0
11
0.870000
21
2.059534
31
0.0
0
LINE
8
FRONT_HID
6
HIDDEN
10
0.870000
20
2.259534
30
0.0
11
0.630000
21
2.259534
31
0.0
0
LINE
8
FRONT_HID
6
HIDDEN
10
0.630000
20
2.259534
30
0.0
11
0.870000
21
2.259534
31
0.0
0
LINE
8
FRONT_HID
6
HIDDEN
10
1.440000
20
1.999534
30
0.0
11
1.440000
21
1.799534
31
0.0
0
LINE
8
FRONT_HID
6
HIDDEN
10
0.060000
20
2.059534
30
0.0
11
0.060000
21
2.259534
31
0.0
0
LINE
8
FRONT_HID
6
HIDDEN
10
0.870000
20
1.999534
30
0.0
11
0.870000
21
1.799534
31
0.0
0
LINE
8
FRONT_HID
6
HIDDEN
10
0.630000
20
2.059534
30
0.0
11
0.630000
21
2.259534
31
0.0
0
LINE
8
LEFT
10
1.800000
20
1.799534
30
0.0
11
3.300000
21
1.799534
31
0.0
0
LINE
8
LEFT
10
1.800000
20
2.259534
30
0.0
11
3.300000
21
2.259534
31
0.0
0
LINE
8
LEFT
10
1.800000
20
2.259534
30
0.0
11
1.800000
21
1.799534
31
0.0
0
LINE
8
LEFT
10
3.300000
20
2.259534
30
0.0
11
3.300000
21
1.799534
31
0.0
0
LINE
8
LEFT_HID
6
HIDDEN
10
2.550000
20
1.799534
30
0.0
11
1.800000
21
1.799534
31
0.0
0
LINE
8
LEFT_HID
6
HIDDEN
10
3.300000
20
1.799534
30
0.0
11
2.550000
21
1.799534
31
0.0
0
LINE
8
LEFT_HID
6
HIDDEN
10
2.550000
20
2.259534
30
0.0
11
1.800000
21
2.259534
31
0.0
0
LINE
8
LEFT_HID
6
HIDDEN
10
3.300000
20
2.259534
30
0.0
11
2.550000
21
2.259534
31
0.0
0
LINE
8
LEFT_HID
6
HIDDEN
10
2.550000
20
1.799534
30
0.0
11
1.860000
21
1.799534
31
0.0
0
LINE
8
LEFT_HID
6
HIDDEN
10
1.860000
20
1.799534
30
0.0
11
3.240000
21
1.799534
31
0.0
0
LINE
8
LEFT_HID
6
HIDDEN
10
3.240000
20
1.799534
30
0.0
11
2.550000
21
1.799534
31
0.0
0
LINE
8
LEFT_HID
6
HIDDEN
10
2.550000
20
2.259534
30
0.0
11
1.860000
21
2.259534
31
0.0
0
LINE
8
LEFT_HID
6
HIDDEN
10
1.860000
20
2.259534
30
0.0
11
3.240000
21
2.259534
31
0.0
0
LINE
8
LEFT_HID
6
HIDDEN
10
3.240000
20
2.259534
30
0.0
11
2.550000
21
2.259534
31
0.0
0
LINE
8
LEFT_HID
6
HIDDEN
10
2.550000
20
1.999534
30
0.0
11
1.860000
21
1.999534
31
0.0
0
LINE
8
LEFT_HID
6
HIDDEN
10
1.860000
20
1.999534
30
0.0
11
3.240000
21
1.999534
31
0.0
0
LINE
8
LEFT_HID
6
HIDDEN
10
3.240000
20
1.999534
30
0.0
11
2.550000
21
1.999534
31
0.0
0
LINE
8
LEFT_HID
6
HIDDEN
10
2.550000
20
2.059534
30
0.0
11
1.860000
21
2.059534
31
0.0
0
LINE
8
LEFT_HID
6
HIDDEN
10
1.860000
20
2.059534
30
0.0
11
3.240000
21
2.059534
31
0.0
0
LINE
8
LEFT_HID
6
HIDDEN
10
3.240000
20
2.059534
30
0.0
11
2.550000
21
2.059534
31
0.0
0
LINE
8
LEFT_HID
6
HIDDEN
10
2.550000
20
1.999534
30
0.0
11
2.430000
21
1.999534
31
0.0
0
LINE
8
LEFT_HID
6
HIDDEN
10
2.430000
20
1.999534
30
0.0
11
2.670000
21
1.999534
31
0.0
0
LINE
8
LEFT_HID
6
HIDDEN
10
2.670000
20
1.999534
30
0.0
11
2.550000
21
1.999534
31
0.0
0
LINE
8
LEFT_HID
6
HIDDEN
10
2.550000
20
2.059534
30
0.0
11
2.430000
21
2.059534
31
0.0
0
LINE
8
LEFT_HID
6
HIDDEN
10
2.430000
20
2.059534
30
0.0
11
2.670000
21
2.059534
31
0.0
0
LINE
8
LEFT_HID
6
HIDDEN
10
2.670000
20
2.059534
30
0.0
11
2.550000
21
2.059534
31
0.0
0
LINE
8
LEFT_HID
6
HIDDEN
10
2.550000
20
1.799534
30
0.0
11
2.430000
21
1.799534
31
0.0
0
LINE
8
LEFT_HID
6
HIDDEN
10
2.430000
20
1.799534
30
0.0
11
2.670000
21
1.799534
31
0.0
0
LINE
8
LEFT_HID
6
HIDDEN
10
2.670000
20
1.799534
30
0.0
11
2.550000
21
1.799534
31
0.0
0
LINE
8
LEFT_HID
6
HIDDEN
10
2.550000
20
2.259534
30
0.0
11
2.430000
21
2.259534
31
0.0
0
LINE
8
LEFT_HID
6
HIDDEN
10
2.430000
20
2.259534
30
0.0
11
2.670000
21
2.259534
31
0.0
0
LINE
8
LEFT_HID
6
HIDDEN
10
2.670000
20
2.259534
30
0.0
11
2.550000
21
2.259534
31
0.0
0
LINE
8
LEFT_HID
6
HIDDEN
10
1.860000
20
1.999534
30
0.0
11
1.860000
21
1.799534
31
0.0
0
LINE
8
LEFT_HID
6
HIDDEN
10
3.240000
20
1.999534
30
0.0
11
3.240000
21
1.799534
31
0.0
0
LINE
8
LEFT_HID
6
HIDDEN
10
3.240000
20
2.059534
30
0.0
11
3.240000
21
2.259534
31
0.0
0
LINE
8
LEFT_HID
6
HIDDEN
10
1.860000
20
2.059534
30
0.0
11
1.860000
21
2.259534
31
0.0
0
LINE
8
LEFT_HID
6
HIDDEN
10
2.430000
20
1.999534
30
0.0
11
2.430000
21
1.799534
31
0.0
0
LINE
8
LEFT_HID
6
HIDDEN
10
2.670000
20
1.999534
30
0.0
11
2.670000
21
1.799534
31
0.0
0
LINE
8
LEFT_HID
6
HIDDEN
10
2.670000
20
2.059534
30
0.0
11
2.670000
21
2.259534
31
0.0
0
LINE
8
LEFT_HID
6
HIDDEN
10
2.430000
20
2.059534
30
0.0
11
2.430000
21
2.259534
31
0.0
0
LINE
8
TOP
10
1.499068
20
0.749767
30
0.0
11
1.495341
21
0.824443
31
0.0
0
LINE
8
TOP
10
1.495341
20
0.824443
30
0.0
11
1.484197
21
0.898376
31
0.0
0
LINE
8
TOP
10
1.484197
20
0.898376
30
0.0
11
1.465747
21
0.970833
31
0.0
0
LINE
8
TOP
10
1.465747
20
0.970833
30
0.0
11
1.440175
21
1.041093
31
0.0
0
LINE
8
TOP
10
1.440175
20
1.041093
30
0.0
11
1.407734
21
1.108457
31
0.0
0
LINE
8
TOP
10
1.407734
20
1.108457
30
0.0
11
1.368747
21
1.172257
31
0.0
0
LINE
8
TOP
10
1.368747
20
1.172257
30
0.0
11
1.323601
21
1.231858
31
0.0
0
LINE
8
TOP
10
1.323601
20
1.231858
30
0.0
11
1.272745
21
1.286667
31
0.0
0
LINE
8
TOP
10
1.272745
20
1.286667
30
0.0
11
1.216685
21
1.336140
31
0.0
0
LINE
8
TOP
10
1.216685
20
1.336140
30
0.0
11
1.155977
21
1.379786
31
0.0
0
LINE
8
TOP
10
1.155977
20
1.379786
30
0.0
11
1.091226
21
1.417171
31
0.0
0
LINE
8
TOP
10
1.091226
20
1.417171
30
0.0
11
1.023073
21
1.447922
31
0.0
0
LINE
8
TOP
10
1.023073
20
1.447922
30
0.0
11
0.952198
21
1.471735
31
0.0
0
LINE
8
TOP
10
0.952198
20
1.471735
30
0.0
11
0.879304
21
1.488373
31
0.0
0
LINE
8
TOP
10
0.879304
20
1.488373
30
0.0
11
0.805115
21
1.497670
31
0.0
0
LINE
8
TOP
10
0.805115
20
1.497670
30
0.0
11
0.730370
21
1.499534
31
0.0
0
LINE
8
TOP
10
0.730370
20
1.499534
30
0.0
11
0.655810
21
1.493946
31
0.0
0
LINE
8
TOP
10
0.655810
20
1.493946
30
0.0
11
0.582177
21
1.480963
31
0.0
0
LINE
8
TOP
10
0.582177
20
1.480963
30
0.0
11
0.510203
21
1.460712
31
0.0
0
LINE
8
TOP
10
0.510203
20
1.460712
30
0.0
11
0.440602
21
1.433396
31
0.0
0
LINE
8
TOP
10
0.440602
20
1.433396
30
0.0
11
0.374068
21
1.399286
31
0.0
0
LINE
8
TOP
10
0.374068
20
1.399286
30
0.0
11
0.311260
21
1.358720
31
0.0
0
LINE
8
TOP
10
0.311260
20
1.358720
30
0.0
11
0.252803
21
1.312103
31
0.0
0
LINE
8
TOP
10
0.252803
20
1.312103
30
0.0
11
0.199279
21
1.259896
31
0.0
0
LINE
8
TOP
10
0.199279
20
1.259896
30
0.0
11
0.151218
21
1.202620
31
0.0
0
LINE
8
TOP
10
0.151218
20
1.202620
30
0.0
11
0.109100
21
1.140843
31
0.0
0
LINE
8
TOP
10
0.109100
20
1.140843
30
0.0
11
0.073341
21
1.075180
31
0.0
0
LINE
8
TOP
10
0.073341
20
1.075180
30
0.0
11
0.044298
21
1.006282
31
0.0
0
LINE
8
TOP
10
0.044298
20
1.006282
30
0.0
11
0.022260
21
0.934835
31
0.0
0
LINE
8
TOP
10
0.022260
20
0.934835
30
0.0
11
0.007445
21
0.861549
31
0.0
0
LINE
8
TOP
10
0.007445
20
0.861549
30
0.0
11
0.000000
21
0.787151
31
0.0
0
LINE
8
TOP
10
0.000000
20
0.787151
30
0.0
11
0.000000
21
0.712382
31
0.0
0
LINE
8
TOP
10
0.000000
20
0.712382
30
0.0
11
0.007445
21
0.637985
31
0.0
0
LINE
8
TOP
10
0.007445
20
0.637985
30
0.0
11
0.022260
21
0.564699
31
0.0
0
LINE
8
TOP
10
0.022260
20
0.564699
30
0.0
11
0.044298
21
0.493252
31
0.0
0
LINE
8
TOP
10
0.044298
20
0.493252
30
0.0
11
0.073341
21
0.424354
31
0.0
0
LINE
8
TOP
10
0.073341
20
0.424354
30
0.0
11
0.109100
21
0.358690
31
0.0
0
LINE
8
TOP
10
0.109100
20
0.358690
30
0.0
11
0.151218
21
0.296914
31
0.0
0
LINE
8
TOP
10
0.151218
20
0.296914
30
0.0
11
0.199279
21
0.239637
31
0.0
0
LINE
8
TOP
10
0.199279
20
0.239637
30
0.0
11
0.252803
21
0.187431
31
0.0
0
LINE
8
TOP
10
0.252803
20
0.187431
30
0.0
11
0.311260
21
0.140813
31
0.0
0
LINE
8
TOP
10
0.311260
20
0.140813
30
0.0
11
0.374068
21
0.100248
31
0.0
0
LINE
8
TOP
10
0.374068
20
0.100248
30
0.0
11
0.440602
21
0.066137
31
0.0
0
LINE
8
TOP
10
0.440602
20
0.066137
30
0.0
11
0.510203
21
0.038821
31
0.0
0
LINE
8
TOP
10
0.510203
20
0.038821
30
0.0
11
0.582177
21
0.018571
31
0.0
0
LINE
8
TOP
10
0.582177
20
0.018571
30
0.0
11
0.655810
21
0.005587
31
0.0
0
LINE
8
TOP
10
0.655810
20
0.005587
30
0.0
11
0.730370
21
0.000000
31
0.0
0
LINE
8
TOP
10
0.730370
20
0.000000
30
0.0
11
0.805115
21
0.001864
31
0.0
0
LINE
8
TOP
10
0.805115
20
0.001864
30
0.0
11
0.879304
21
0.011161
31
0.0
0
LINE
8
TOP
10
0.879304
20
0.011161
30
0.0
11
0.952198
21
0.027799
31
0.0
0
LINE
8
TOP
10
0.952198
20
0.027799
30
0.0
11
1.023073
21
0.051612
31
0.0
0
LINE
8
TOP
10
1.023073
20
0.051612
30
0.0
11
1.091226
21
0.082363
31
0.0
0
LINE
8
TOP
10
1.091226
20
0.082363
30
0.0
11
1.155977
21
0.119747
31
0.0
0
LINE
8
TOP
10
1.155977
20
0.119747
30
0.0
11
1.216685
21
0.163393
31
0.0
0
LINE
8
TOP
10
1.216685
20
0.163393
30
0.0
11
1.272745
21
0.212867
31
0.0
0
LINE
8
TOP
10
1.272745
20
0.212867
30
0.0
11
1.323601
21
0.267676
31
0.0
0
LINE
8
TOP
10
1.323601
20
0.267676
30
0.0
11
1.368747
21
0.327277
31
0.0
0
LINE
8
TOP
10
1.368747
20
0.327277
30
0.0
11
1.407734
21
0.391076
31
0.0
0
LINE
8
TOP
10
1.407734
20
0.391076
30
0.0
11
1.440175
21
0.458441
31
0.0
0
LINE
8
TOP
10
1.440175
20
0.458441
30
0.0
11
1.465747
21
0.528701
31
0.0
0
LINE
8
TOP
10
1.465747
20
0.528701
30
0.0
11
1.484197
21
0.601157
31
0.0
0
LINE
8
TOP
10
1.484197
20
0.601157
30
0.0
11
1.495341
21
0.675091
31
0.0
0
LINE
8
TOP
10
1.495341
20
0.675091
30
0.0
11
1.499068
21
0.749767
31
0.0
0
LINE
8
TOP
10
1.439068
20
0.749767
30
0.0
11
1.435639
21
0.818469
31
0.0
0
LINE
8
TOP
10
1.435639
20
0.818469
30
0.0
11
1.425387
21
0.886488
31
0.0
0
LINE
8
TOP
10
1.425387
20
0.886488
30
0.0
11
1.408413
21
0.953148
31
0.0
0
LINE
8
TOP
10
1.408413
20
0.953148
30
0.0
11
1.384886
21
1.017787
31
0.0
0
LINE
8
TOP
10
1.384886
20
1.017787
30
0.0
11
1.355041
21
1.079762
31
0.0
0
LINE
8
TOP
10
1.355041
20
1.079762
30
0.0
11
1.319172
21
1.138458
31
0.0
0
LINE
8
TOP
10
1.319172
20
1.138458
30
0.0
11
1.277638
21
1.193290
31
0.0
0
LINE
8
TOP
10
1.277638
20
1.193290
30
0.0
11
1.230851
21
1.243715
31
0.0
0
LINE
8
TOP
10
1.230851
20
1.243715
30
0.0
11
1.179276
21
1.289231
31
0.0
0
LINE
8
TOP
10
1.179276
20
1.289231
30
0.0
11
1.123425
21
1.329385
31
0.0
0
LINE
8
TOP
10
1.123425
20
1.329385
30
0.0
11
1.063853
21
1.363778
31
0.0
0
LINE
8
TOP
10
1.063853
20
1.363778
30
0.0
11
1.001153
21
1.392070
31
0.0
0
LINE
8
TOP
10
1.001153
20
1.392070
30
0.0
11
0.935948
21
1.413978
31
0.0
0
LINE
8
TOP
10
0.935948
20
1.413978
30
0.0
11
0.868885
21
1.429284
31
0.0
0
LINE
8
TOP
10
0.868885
20
1.429284
30
0.0
11
0.800631
21
1.437838
31
0.0
0
LINE
8
TOP
10
0.800631
20
1.437838
30
0.0
11
0.731866
21
1.439552
31
0.0
0
LINE
8
TOP
10
0.731866
20
1.439552
30
0.0
11
0.663271
21
1.434412
31
0.0
0
LINE
8
TOP
10
0.663271
20
1.434412
30
0.0
11
0.595528
21
1.422467
31
0.0
0
LINE
8
TOP
10
0.595528
20
1.422467
30
0.0
11
0.529312
21
1.403837
31
0.0
0
LINE
8
TOP
10
0.529312
20
1.403837
30
0.0
11
0.465280
21
1.378706
31
0.0
0
LINE
8
TOP
10
0.465280
20
1.378706
30
0.0
11
0.404068
21
1.347324
31
0.0
0
LINE
8
TOP
10
0.404068
20
1.347324
30
0.0
11
0.346285
21
1.310004
31
0.0
0
LINE
8
TOP
10
0.346285
20
1.310004
30
0.0
11
0.292504
21
1.267116
31
0.0
0
LINE
8
TOP
10
0.292504
20
1.267116
30
0.0
11
0.243262
21
1.219086
31
0.0
0
LINE
8
TOP
10
0.243262
20
1.219086
30
0.0
11
0.199046
21
1.166392
31
0.0
0
LINE
8
TOP
10
0.199046
20
1.166392
30
0.0
11
0.160297
21
1.109557
31
0.0
0
LINE
8
TOP
10
0.160297
20
1.109557
30
0.0
11
0.127399
21
1.049147
31
0.0
0
LINE
8
TOP
10
0.127399
20
1.049147
30
0.0
11
0.100680
21
0.985761
31
0.0
0
LINE
8
TOP
10
0.100680
20
0.985761
30
0.0
11
0.080404
21
0.920029
31
0.0
0
LINE
8
TOP
10
0.080404
20
0.920029
30
0.0
11
0.066774
21
0.852606
31
0.0
0
LINE
8
TOP
10
0.066774
20
0.852606
30
0.0
11
0.059925
21
0.784161
31
0.0
0
LINE
8
TOP
10
0.059925
20
0.784161
30
0.0
11
0.059925
21
0.715373
31
0.0
0
LINE
8
TOP
10
0.059925
20
0.715373
30
0.0
11
0.066774
21
0.646928
31
0.0
0
LINE
8
TOP
10
0.066774
20
0.646928
30
0.0
11
0.080404
21
0.579504
31
0.0
0
LINE
8
TOP
10
0.080404
20
0.579504
30
0.0
11
0.100680
21
0.513773
31
0.0
0
LINE
8
TOP
10
0.100680
20
0.513773
30
0.0
11
0.127399
21
0.450387
31
0.0
0
LINE
8
TOP
10
0.127399
20
0.450387
30
0.0
11
0.160297
21
0.389977
31
0.0
0
LINE
8
TOP
10
0.160297
20
0.389977
30
0.0
11
0.199046
21
0.333142
31
0.0
0
LINE
8
TOP
10
0.199046
20
0.333142
30
0.0
11
0.243262
21
0.280448
31
0.0
0
LINE
8
TOP
10
0.243262
20
0.280448
30
0.0
11
0.292504
21
0.232418
31
0.0
0
LINE
8
TOP
10
0.292504
20
0.232418
30
0.0
11
0.346285
21
0.189530
31
0.0
0
LINE
8
TOP
10
0.346285
20
0.189530
30
0.0
11
0.404068
21
0.152209
31
0.0
0
LINE
8
TOP
10
0.404068
20
0.152209
30
0.0
11
0.465280
21
0.120828
31
0.0
0
LINE
8
TOP
10
0.465280
20
0.120828
30
0.0
11
0.529312
21
0.095697
31
0.0
0
LINE
8
TOP
10
0.529312
20
0.095697
30
0.0
11
0.595528
21
0.077067
31
0.0
0
LINE
8
TOP
10
0.595528
20
0.077067
30
0.0
11
0.663271
21
0.065122
31
0.0
0
LINE
8
TOP
10
0.663271
20
0.065122
30
0.0
11
0.731866
21
0.059981
31
0.0
0
LINE
8
TOP
10
0.731866
20
0.059981
30
0.0
11
0.800631
21
0.061696
31
0.0
0
LINE
8
TOP
10
0.800631
20
0.061696
30
0.0
11
0.868885
21
0.070250
31
0.0
0
LINE
8
TOP
10
0.868885
20
0.070250
30
0.0
11
0.935948
21
0.085556
31
0.0
0
LINE
8
TOP
10
0.935948
20
0.085556
30
0.0
11
1.001153
21
0.107464
31
0.0
0
LINE
8
TOP
10
1.001153
20
0.107464
30
0.0
11
1.063853
21
0.135755
31
0.0
0
LINE
8
TOP
10
1.063853
20
0.135755
30
0.0
11
1.123425
21
0.170149
31
0.0
0
LINE
8
TOP
10
1.123425
20
0.170149
30
0.0
11
1.179276
21
0.210303
31
0.0
0
LINE
8
TOP
10
1.179276
20
0.210303
30
0.0
11
1.230851
21
0.255819
31
0.0
0
LINE
8
TOP
10
1.230851
20
0.255819
30
0.0
11
1.277638
21
0.306243
31
0.0
0
LINE
8
TOP
10
1.277638
20
0.306243
30
0.0
11
1.319172
21
0.361076
31
0.0
0
LINE
8
TOP
10
1.319172
20
0.361076
30
0.0
11
1.355041
21
0.419772
31
0.0
0
LINE
8
TOP
10
1.355041
20
0.419772
30
0.0
11
1.384886
21
0.481747
31
0.0
0
LINE
8
TOP
10
1.384886
20
0.481747
30
0.0
11
1.408413
21
0.546386
31
0.0
0
LINE
8
TOP
10
1.408413
20
0.546386
30
0.0
11
1.425387
21
0.613046
31
0.0
0
LINE
8
TOP
10
1.425387
20
0.613046
30
0.0
11
1.435639
21
0.681065
31
0.0
0
LINE
8
TOP
10
1.435639
20
0.681065
30
0.0
11
1.439068
21
0.749767
31
0.0
0
LINE
8
TOP
10
0.869068
20
0.749767
30
0.0
11
0.868471
21
0.761715
31
0.0
0
LINE
8
TOP
10
0.868471
20
0.761715
30
0.0
11
0.866688
21
0.773544
31
0.0
0
LINE
8
TOP
10
0.866688
20
0.773544
30
0.0
11
0.863736
21
0.785138
31
0.0
0
LINE
8
TOP
10
0.863736
20
0.785138
30
0.0
11
0.859645
21
0.796379
31
0.0
0
LINE
8
TOP
10
0.859645
20
0.796379
30
0.0
11
0.854454
21
0.807157
31
0.0
0
LINE
8
TOP
10
0.854454
20
0.807157
30
0.0
11
0.848216
21
0.817365
31
0.0
0
LINE
8
TOP
10
0.848216
20
0.817365
30
0.0
11
0.840993
21
0.826901
31
0.0
0
LINE
8
TOP
10
0.840993
20
0.826901
30
0.0
11
0.832856
21
0.835671
31
0.0
0
LINE
8
TOP
10
0.832856
20
0.835671
30
0.0
11
0.823886
21
0.843587
31
0.0
0
LINE
8
TOP
10
0.823886
20
0.843587
30
0.0
11
0.814173
21
0.850570
31
0.0
0
LINE
8
TOP
10
0.814173
20
0.850570
30
0.0
11
0.803813
21
0.856552
31
0.0
0
LINE
8
TOP
10
0.803813
20
0.856552
30
0.0
11
0.792909
21
0.861472
31
0.0
0
LINE
8
TOP
10
0.792909
20
0.861472
30
0.0
11
0.781569
21
0.865282
31
0.0
0
LINE
8
TOP
10
0.781569
20
0.865282
30
0.0
11
0.769905
21
0.867944
31
0.0
0
LINE
8
TOP
10
0.769905
20
0.867944
30
0.0
11
0.758035
21
0.869431
31
0.0
0
LINE
8
TOP
10
0.758035
20
0.869431
30
0.0
11
0.746076
21
0.869730
31
0.0
0
LINE
8
TOP
10
0.746076
20
0.869730
30
0.0
11
0.734146
21
0.868836
31
0.0
0
LINE
8
TOP
10
0.734146
20
0.868836
30
0.0
11
0.722365
21
0.866758
31
0.0
0
LINE
8
TOP
10
0.722365
20
0.866758
30
0.0
11
0.710849
21
0.863518
31
0.0
0
LINE
8
TOP
10
0.710849
20
0.863518
30
0.0
11
0.699713
21
0.859148
31
0.0
0
LINE
8
TOP
10
0.699713
20
0.859148
30
0.0
11
0.689068
21
0.853690
31
0.0
0
LINE
8
TOP
10
0.689068
20
0.853690
30
0.0
11
0.679018
21
0.847199
31
0.0
0
LINE
8
TOP
10
0.679018
20
0.847199
30
0.0
11
0.669665
21
0.839741
31
0.0
0
LINE
8
TOP
10
0.669665
20
0.839741
30
0.0
11
0.661101
21
0.831388
31
0.0
0
LINE
8
TOP
10
0.661101
20
0.831388
30
0.0
11
0.653412
21
0.822223
31
0.0
0
LINE
8
TOP
10
0.653412
20
0.822223
30
0.0
11
0.646673
21
0.812339
31
0.0
0
LINE
8
TOP
10
0.646673
20
0.812339
30
0.0
11
0.640951
21
0.801833
31
0.0
0
LINE
8
TOP
10
0.640951
20
0.801833
30
0.0
11
0.636305
21
0.790809
31
0.0
0
LINE
8
TOP
10
0.636305
20
0.790809
30
0.0
11
0.632778
21
0.779378
31
0.0
0
LINE
8
TOP
10
0.632778
20
0.779378
30
0.0
11
0.630408
21
0.767652
31
0.0
0
LINE
8
TOP
10
0.630408
20
0.767652
30
0.0
11
0.629217
21
0.755748
31
0.0
0
LINE
8
TOP
10
0.629217
20
0.755748
30
0.0
11
0.629217
21
0.743785
31
0.0
0
LINE
8
TOP
10
0.629217
20
0.743785
30
0.0
11
0.630408
21
0.731882
31
0.0
0
LINE
8
TOP
10
0.630408
20
0.731882
30
0.0
11
0.632778
21
0.720156
31
0.0
0
LINE
8
TOP
10
0.632778
20
0.720156
30
0.0
11
0.636305
21
0.708724
31
0.0
0
LINE
8
TOP
10
0.636305
20
0.708724
30
0.0
11
0.640951
21
0.697701
31
0.0
0
LINE
8
TOP
10
0.640951
20
0.697701
30
0.0
11
0.646673
21
0.687195
31
0.0
0
LINE
8
TOP
10
0.646673
20
0.687195
30
0.0
11
0.653412
21
0.677310
31
0.0
0
LINE
8
TOP
10
0.653412
20
0.677310
30
0.0
11
0.661101
21
0.668146
31
0.0
0
LINE
8
TOP
10
0.661101
20
0.668146
30
0.0
11
0.669665
21
0.659793
31
0.0
0
LINE
8
TOP
10
0.669665
20
0.659793
30
0.0
11
0.679018
21
0.652334
31
0.0
0
LINE
8
TOP
10
0.679018
20
0.652334
30
0.0
11
0.689068
21
0.645844
31
0.0
0
LINE
8
TOP
10
0.689068
20
0.645844
30
0.0
11
0.699713
21
0.640386
31
0.0
0
LINE
8
TOP
10
0.699713
20
0.640386
30
0.0
11
0.710849
21
0.636016
31
0.0
0
LINE
8
TOP
10
0.710849
20
0.636016
30
0.0
11
0.722365
21
0.632776
31
0.0
0
LINE
8
TOP
10
0.722365
20
0.632776
30
0.0
11
0.734146
21
0.630698
31
0.0
0
LINE
8
TOP
10
0.734146
20
0.630698
30
0.0
11
0.746076
21
0.629804
31
0.0
0
LINE
8
TOP
10
0.746076
20
0.629804
30
0.0
11
0.758035
21
0.630102
31
0.0
0
LINE
8
TOP
10
0.758035
20
0.630102
30
0.0
11
0.769905
21
0.631590
31
0.0
0
LINE
8
TOP
10
0.769905
20
0.631590
30
0.0
11
0.781569
21
0.634252
31
0.0
0
LINE
8
TOP
10
0.781569
20
0.634252
30
0.0
11
0.792909
21
0.638062
31
0.0
0
LINE
8
TOP
10
0.792909
20
0.638062
30
0.0
11
0.803813
21
0.642982
31
0.0
0
LINE
8
TOP
10
0.803813
20
0.642982
30
0.0
11
0.814173
21
0.648964
31
0.0
0
LINE
8
TOP
10
0.814173
20
0.648964
30
0.0
11
0.823886
21
0.655947
31
0.0
0
LINE
8
TOP
10
0.823886
20
0.655947
30
0.0
11
0.832856
21
0.663863
31
0.0
0
LINE
8
TOP
10
0.832856
20
0.663863
30
0.0
11
0.840993
21
0.672632
31
0.0
0
LINE
8
TOP
10
0.840993
20
0.672632
30
0.0
11
0.848216
21
0.682168
31
0.0
0
LINE
8
TOP
10
0.848216
20
0.682168
30
0.0
11
0.854454
21
0.692376
31
0.0
0
LINE
8
TOP
10
0.854454
20
0.692376
30
0.0
11
0.859645
21
0.703155
31
0.0
0
LINE
8
TOP
10
0.859645
20
0.703155
30
0.0
11
0.863736
21
0.714396
31
0.0
0
LINE
8
TOP
10
0.863736
20
0.714396
30
0.0
11
0.866688
21
0.725989
31
0.0
0
LINE
8
TOP
10
0.866688
20
0.725989
30
0.0
11
0.868471
21
0.737819
31
0.0
0
LINE
8
TOP
10
0.868471
20
0.737819
30
0.0
11
0.869068
21
0.749767
31
0.0
0
LINE
8
TOP_HID
6
HIDDEN
10
0.059068
20
0.749767
30
0.0
11
0.062496
21
0.818469
31
0.0
0
LINE
8
TOP_HID
6
HIDDEN
10
0.062496
20
0.818469
30
0.0
11
0.072749
21
0.886488
31
0.0
0
LINE
8
TOP_HID
6
HIDDEN
10
0.072749
20
0.886488
30
0.0
11
0.089722
21
0.953148
31
0.0
0
LINE
8
TOP_HID
6
HIDDEN
10
0.089722
20
0.953148
30
0.0
11
0.113249
21
1.017787
31
0.0
0
LINE
8
TOP_HID
6
HIDDEN
10
0.113249
20
1.017787
30
0.0
11
0.143095
21
1.079762
31
0.0
0
LINE
8
TOP_HID
6
HIDDEN
10
0.143095
20
1.079762
30
0.0
11
0.178963
21
1.138458
31
0.0
0
LINE
8
TOP_HID
6
HIDDEN
10
0.178963
20
1.138458
30
0.0
11
0.220497
21
1.193290
31
0.0
0
LINE
8
TOP_HID
6
HIDDEN
10
0.220497
20
1.193290
30
0.0
11
0.267284
21
1.243715
31
0.0
0
LINE
8
TOP_HID
6
HIDDEN
10
0.267284
20
1.243715
30
0.0
11
0.318860
21
1.289231
31
0.0
0
LINE
8
TOP_HID
6
HIDDEN
10
0.318860
20
1.289231
30
0.0
11
0.374711
21
1.329385
31
0.0
0
LINE
8
TOP_HID
6
HIDDEN
10
0.374711
20
1.329385
30
0.0
11
0.434282
21
1.363778
31
0.0
0
LINE
8
TOP_HID
6
HIDDEN
10
0.434282
20
1.363778
30
0.0
11
0.496982
21
1.392070
31
0.0
0
LINE
8
TOP_HID
6
HIDDEN
10
0.496982
20
1.392070
30
0.0
11
0.562188
21
1.413978
31
0.0
0
LINE
8
TOP_HID
6
HIDDEN
10
0.562188
20
1.413978
30
0.0
11
0.629250
21
1.429284
31
0.0
0
LINE
8
TOP_HID
6
HIDDEN
10
0.629250
20
1.429284
30
0.0
11
0.697504
21
1.437838
31
0.0
0
LINE
8
TOP_HID
6
HIDDEN
10
0.697504
20
1.437838
30
0.0
11
0.766270
21
1.439552
31
0.0
0
LINE
8
TOP_HID
6
HIDDEN
10
0.766270
20
1.439552
30
0.0
11
0.834865
21
1.434412
31
0.0
0
LINE
8
TOP_HID
6
HIDDEN
10
0.834865
20
1.434412
30
0.0
11
0.902607
21
1.422467
31
0.0
0
LINE
8
TOP_HID
6
HIDDEN
10
0.902607
20
1.422467
30
0.0
11
0.968823
21
1.403837
31
0.0
0
LINE
8
TOP_HID
6
HIDDEN
10
0.968823
20
1.403837
30
0.0
11
1.032856
21
1.378706
31
0.0
0
LINE
8
TOP_HID
6
HIDDEN
10
1.032856
20
1.378706
30
0.0
11
1.094068
21
1.347324
31
0.0
0
LINE
8
TOP_HID
6
HIDDEN
10
1.094068
20
1.347324
30
0.0
11
1.151851
21
1.310004
31
0.0
0
LINE
8
TOP_HID
6
HIDDEN
10
1.151851
20
1.310004
30
0.0
11
1.205631
21
1.267116
31
0.0
0
LINE
8
TOP_HID
6
HIDDEN
10
1.205631
20
1.267116
30
0.0
11
1.254873
21
1.219086
31
0.0
0
LINE
8
TOP_HID
6
HIDDEN
10
1.254873
20
1.219086
30
0.0
11
1.299089
21
1.166392
31
0.0
0
LINE
8
TOP_HID
6
HIDDEN
10
1.299089
20
1.166392
30
0.0
11
1.337838
21
1.109557
31
0.0
0
LINE
8
TOP_HID
6
HIDDEN
10
1.337838
20
1.109557
30
0.0
11
1.370736
21
1.049147
31
0.0
0
LINE
8
TOP_HID
6
HIDDEN
10
1.370736
20
1.049147
30
0.0
11
1.397456
21
0.985761
31
0.0
0
LINE
8
TOP_HID
6
HIDDEN
10
1.397456
20
0.985761
30
0.0
11
1.417731
21
0.920029
31
0.0
0
LINE
8
TOP_HID
6
HIDDEN
10
1.417731
20
0.920029
30
0.0
11
1.431361
21
0.852606
31
0.0
0
LINE
8
TOP_HID
6
HIDDEN
10
1.431361
20
0.852606
30
0.0
11
1.438210
21
0.784161
31
0.0
0
LINE
8
TOP_HID
6
HIDDEN
10
1.438210
20
0.784161
30
0.0
11
1.438210
21
0.715373
31
0.0
0
LINE
8
TOP_HID
6
HIDDEN
10
1.438210
20
0.715373
30
0.0
11
1.431361
21
0.646928
31
0.0
0
LINE
8
TOP_HID
6
HIDDEN
10
1.431361
20
0.646928
30
0.0
11
1.417731
21
0.579504
31
0.0
0
LINE
8
TOP_HID
6
HIDDEN
10
1.417731
20
0.579504
30
0.0
11
1.397456
21
0.513773
31
0.0
0
LINE
8
TOP_HID
6
HIDDEN
10
1.397456
20
0.513773
30
0.0
11
1.370736
21
0.450387
31
0.0
0
LINE
8
TOP_HID
6
HIDDEN
10
1.370736
20
0.450387
30
0.0
11
1.337838
21
0.389977
31
0.0
0
LINE
8
TOP_HID
6
HIDDEN
10
1.337838
20
0.389977
30
0.0
11
1.299089
21
0.333142
31
0.0
0
LINE
8
TOP_HID
6
HIDDEN
10
1.299089
20
0.333142
30
0.0
11
1.254873
21
0.280448
31
0.0
0
LINE
8
TOP_HID
6
HIDDEN
10
1.254873
20
0.280448
30
0.0
11
1.205631
21
0.232418
31
0.0
0
LINE
8
TOP_HID
6
HIDDEN
10
1.205631
20
0.232418
30
0.0
11
1.151851
21
0.189530
31
0.0
0
LINE
8
TOP_HID
6
HIDDEN
10
1.151851
20
0.189530
30
0.0
11
1.094068
21
0.152209
31
0.0
0
LINE
8
TOP_HID
6
HIDDEN
10
1.094068
20
0.152209
30
0.0
11
1.032856
21
0.120828
31
0.0
0
LINE
8
TOP_HID
6
HIDDEN
10
1.032856
20
0.120828
30
0.0
11
0.968823
21
0.095697
31
0.0
0
LINE
8
TOP_HID
6
HIDDEN
10
0.968823
20
0.095697
30
0.0
11
0.902607
21
0.077067
31
0.0
0
LINE
8
TOP_HID
6
HIDDEN
10
0.902607
20
0.077067
30
0.0
11
0.834865
21
0.065122
31
0.0
0
LINE
8
TOP_HID
6
HIDDEN
10
0.834865
20
0.065122
30
0.0
11
0.766270
21
0.059981
31
0.0
0
LINE
8
TOP_HID
6
HIDDEN
10
0.766270
20
0.059981
30
0.0
11
0.697504
21
0.061696
31
0.0
0
LINE
8
TOP_HID
6
HIDDEN
10
0.697504
20
0.061696
30
0.0
11
0.629250
21
0.070250
31
0.0
0
LINE
8
TOP_HID
6
HIDDEN
10
0.629250
20
0.070250
30
0.0
11
0.562188
21
0.085556
31
0.0
0
LINE
8
TOP_HID
6
HIDDEN
10
0.562188
20
0.085556
30
0.0
11
0.496982
21
0.107464
31
0.0
0
LINE
8
TOP_HID
6
HIDDEN
10
0.496982
20
0.107464
30
0.0
11
0.434282
21
0.135755
31
0.0
0
LINE
8
TOP_HID
6
HIDDEN
10
0.434282
20
0.135755
30
0.0
11
0.374711
21
0.170149
31
0.0
0
LINE
8
TOP_HID
6
HIDDEN
10
0.374711
20
0.170149
30
0.0
11
0.318860
21
0.210303
31
0.0
0
LINE
8
TOP_HID
6
HIDDEN
10
0.318860
20
0.210303
30
0.0
11
0.267284
21
0.255819
31
0.0
0
LINE
8
TOP_HID
6
HIDDEN
10
0.267284
20
0.255819
30
0.0
11
0.220497
21
0.306243
31
0.0
0
LINE
8
TOP_HID
6
HIDDEN
10
0.220497
20
0.306243
30
0.0
11
0.178963
21
0.361076
31
0.0
0
LINE
8
TOP_HID
6
HIDDEN
10
0.178963
20
0.361076
30
0.0
11
0.143095
21
0.419772
31
0.0
0
LINE
8
TOP_HID
6
HIDDEN
10
0.143095
20
0.419772
30
0.0
11
0.113249
21
0.481747
31
0.0
0
LINE
8
TOP_HID
6
HIDDEN
10
0.113249
20
0.481747
30
0.0
11
0.089722
21
0.546386
31
0.0
0
LINE
8
TOP_HID
6
HIDDEN
10
0.089722
20
0.546386
30
0.0
11
0.072749
21
0.613046
31
0.0
0
LINE
8
TOP_HID
6
HIDDEN
10
0.072749
20
0.613046
30
0.0
11
0.062496
21
0.681065
31
0.0
0
LINE
8
TOP_HID
6
HIDDEN
10
0.062496
20
0.681065
30
0.0
11
0.059068
21
0.749767
31
0.0
0
LINE
8
TOP_HID
6
HIDDEN
10
0.059068
20
0.749767
30
0.0
11
0.062496
21
0.818469
31
0.0
0
LINE
8
TOP_HID
6
HIDDEN
10
0.062496
20
0.818469
30
0.0
11
0.072749
21
0.886488
31
0.0
0
LINE
8
TOP_HID
6
HIDDEN
10
0.072749
20
0.886488
30
0.0
11
0.089722
21
0.953148
31
0.0
0
LINE
8
TOP_HID
6
HIDDEN
10
0.089722
20
0.953148
30
0.0
11
0.113249
21
1.017787
31
0.0
0
LINE
8
TOP_HID
6
HIDDEN
10
0.113249
20
1.017787
30
0.0
11
0.143095
21
1.079762
31
0.0
0
LINE
8
TOP_HID
6
HIDDEN
10
0.143095
20
1.079762
30
0.0
11
0.178963
21
1.138458
31
0.0
0
LINE
8
TOP_HID
6
HIDDEN
10
0.178963
20
1.138458
30
0.0
11
0.220497
21
1.193290
31
0.0
0
LINE
8
TOP_HID
6
HIDDEN
10
0.220497
20
1.193290
30
0.0
11
0.267284
21
1.243715
31
0.0
0
LINE
8
TOP_HID
6
HIDDEN
10
0.267284
20
1.243715
30
0.0
11
0.318860
21
1.289231
31
0.0
0
LINE
8
TOP_HID
6
HIDDEN
10
0.318860
20
1.289231
30
0.0
11
0.374711
21
1.329385
31
0.0
0
LINE
8
TOP_HID
6
HIDDEN
10
0.374711
20
1.329385
30
0.0
11
0.434282
21
1.363778
31
0.0
0
LINE
8
TOP_HID
6
HIDDEN
10
0.434282
20
1.363778
30
0.0
11
0.496982
21
1.392070
31
0.0
0
LINE
8
TOP_HID
6
HIDDEN
10
0.496982
20
1.392070
30
0.0
11
0.562188
21
1.413978
31
0.0
0
LINE
8
TOP_HID
6
HIDDEN
10
0.562188
20
1.413978
30
0.0
11
0.629250
21
1.429284
31
0.0
0
LINE
8
TOP_HID
6
HIDDEN
10
0.629250
20
1.429284
30
0.0
11
0.697504
21
1.437838
31
0.0
0
LINE
8
TOP_HID
6
HIDDEN
10
0.697504
20
1.437838
30
0.0
11
0.766270
21
1.439552
31
0.0
0
LINE
8
TOP_HID
6
HIDDEN
10
0.766270
20
1.439552
30
0.0
11
0.834865
21
1.434412
31
0.0
0
LINE
8
TOP_HID
6
HIDDEN
10
0.834865
20
1.434412
30
0.0
11
0.902607
21
1.422467
31
0.0
0
LINE
8
TOP_HID
6
HIDDEN
10
0.902607
20
1.422467
30
0.0
11
0.968823
21
1.403837
31
0.0
0
LINE
8
TOP_HID
6
HIDDEN
10
0.968823
20
1.403837
30
0.0
11
1.032856
21
1.378706
31
0.0
0
LINE
8
TOP_HID
6
HIDDEN
10
1.032856
20
1.378706
30
0.0
11
1.094068
21
1.347324
31
0.0
0
LINE
8
TOP_HID
6
HIDDEN
10
1.094068
20
1.347324
30
0.0
11
1.151851
21
1.310004
31
0.0
0
LINE
8
TOP_HID
6
HIDDEN
10
1.151851
20
1.310004
30
0.0
11
1.205631
21
1.267116
31
0.0
0
LINE
8
TOP_HID
6
HIDDEN
10
1.205631
20
1.267116
30
0.0
11
1.254873
21
1.219086
31
0.0
0
LINE
8
TOP_HID
6
HIDDEN
10
1.254873
20
1.219086
30
0.0
11
1.299089
21
1.166392
31
0.0
0
LINE
8
TOP_HID
6
HIDDEN
10
1.299089
20
1.166392
30
0.0
11
1.337838
21
1.109557
31
0.0
0
LINE
8
TOP_HID
6
HIDDEN
10
1.337838
20
1.109557
30
0.0
11
1.370736
21
1.049147
31
0.0
0
LINE
8
TOP_HID
6
HIDDEN
10
1.370736
20
1.049147
30
0.0
11
1.397456
21
0.985761
31
0.0
0
LINE
8
TOP_HID
6
HIDDEN
10
1.397456
20
0.985761
30
0.0
11
1.417731
21
0.920029
31
0.0
0
LINE
8
TOP_HID
6
HIDDEN
10
1.417731
20
0.920029
30
0.0
11
1.431361
21
0.852606
31
0.0
0
LINE
8
TOP_HID
6
HIDDEN
10
1.431361
20
0.852606
30
0.0
11
1.438210
21
0.784161
31
0.0
0
LINE
8
TOP_HID
6
HIDDEN
10
1.438210
20
0.784161
30
0.0
11
1.438210
21
0.715373
31
0.0
0
LINE
8
TOP_HID
6
HIDDEN
10
1.438210
20
0.715373
30
0.0
11
1.431361
21
0.646928
31
0.0
0
LINE
8
TOP_HID
6
HIDDEN
10
1.431361
20
0.646928
30
0.0
11
1.417731
21
0.579504
31
0.0
0
LINE
8
TOP_HID
6
HIDDEN
10
1.417731
20
0.579504
30
0.0
11
1.397456
21
0.513773
31
0.0
0
LINE
8
TOP_HID
6
HIDDEN
10
1.397456
20
0.513773
30
0.0
11
1.370736
21
0.450387
31
0.0
0
LINE
8
TOP_HID
6
HIDDEN
10
1.370736
20
0.450387
30
0.0
11
1.337838
21
0.389977
31
0.0
0
LINE
8
TOP_HID
6
HIDDEN
10
1.337838
20
0.389977
30
0.0
11
1.299089
21
0.333142
31
0.0
0
LINE
8
TOP_HID
6
HIDDEN
10
1.299089
20
0.333142
30
0.0
11
1.254873
21
0.280448
31
0.0
0
LINE
8
TOP_HID
6
HIDDEN
10
1.254873
20
0.280448
30
0.0
11
1.205631
21
0.232418
31
0.0
0
LINE
8
TOP_HID
6
HIDDEN
10
1.205631
20
0.232418
30
0.0
11
1.151851
21
0.189530
31
0.0
0
LINE
8
TOP_HID
6
HIDDEN
10
1.151851
20
0.189530
30
0.0
11
1.094068
21
0.152209
31
0.0
0
LINE
8
TOP_HID
6
HIDDEN
10
1.094068
20
0.152209
30
0.0
11
1.032856
21
0.120828
31
0.0
0
LINE
8
TOP_HID
6
HIDDEN
10
1.032856
20
0.120828
30
0.0
11
0.968823
21
0.095697
31
0.0
0
LINE
8
TOP_HID
6
HIDDEN
10
0.968823
20
0.095697
30
0.0
11
0.902607
21
0.077067
31
0.0
0
LINE
8
TOP_HID
6
HIDDEN
10
0.902607
20
0.077067
30
0.0
11
0.834865
21
0.065122
31
0.0
0
LINE
8
TOP_HID
6
HIDDEN
10
0.834865
20
0.065122
30
0.0
11
0.766270
21
0.059981
31
0.0
0
LINE
8
TOP_HID
6
HIDDEN
10
0.766270
20
0.059981
30
0.0
11
0.697504
21
0.061696
31
0.0
0
LINE
8
TOP_HID
6
HIDDEN
10
0.697504
20
0.061696
30
0.0
11
0.629250
21
0.070250
31
0.0
0
LINE
8
TOP_HID
6
HIDDEN
10
0.629250
20
0.070250
30
0.0
11
0.562188
21
0.085556
31
0.0
0
LINE
8
TOP_HID
6
HIDDEN
10
0.562188
20
0.085556
30
0.0
11
0.496982
21
0.107464
31
0.0
0
LINE
8
TOP_HID
6
HIDDEN
10
0.496982
20
0.107464
30
0.0
11
0.434282
21
0.135755
31
0.0
0
LINE
8
TOP_HID
6
HIDDEN
10
0.434282
20
0.135755
30
0.0
11
0.374711
21
0.170149
31
0.0
0
LINE
8
TOP_HID
6
HIDDEN
10
0.374711
20
0.170149
30
0.0
11
0.318860
21
0.210303
31
0.0
0
LINE
8
TOP_HID
6
HIDDEN
10
0.318860
20
0.210303
30
0.0
11
0.267284
21
0.255819
31
0.0
0
LINE
8
TOP_HID
6
HIDDEN
10
0.267284
20
0.255819
30
0.0
11
0.220497
21
0.306243
31
0.0
0
LINE
8
TOP_HID
6
HIDDEN
10
0.220497
20
0.306243
30
0.0
11
0.178963
21
0.361076
31
0.0
0
LINE
8
TOP_HID
6
HIDDEN
10
0.178963
20
0.361076
30
0.0
11
0.143095
21
0.419772
31
0.0
0
LINE
8
TOP_HID
6
HIDDEN
10
0.143095
20
0.419772
30
0.0
11
0.113249
21
0.481747
31
0.0
0
LINE
8
TOP_HID
6
HIDDEN
10
0.113249
20
0.481747
30
0.0
11
0.089722
21
0.546386
31
0.0
0
LINE
8
TOP_HID
6
HIDDEN
10
0.089722
20
0.546386
30
0.0
11
0.072749
21
0.613046
31
0.0
0
LINE
8
TOP_HID
6
HIDDEN
10
0.072749
20
0.613046
30
0.0
11
0.062496
21
0.681065
31
0.0
0
LINE
8
TOP_HID
6
HIDDEN
10
0.062496
20
0.681065
30
0.0
11
0.059068
21
0.749767
31
0.0
0
LINE
8
TOP_HID
6
HIDDEN
10
0.629068
20
0.749767
30
0.0
11
0.629664
21
0.761715
31
0.0
0
LINE
8
TOP_HID
6
HIDDEN
10
0.629664
20
0.761715
30
0.0
11
0.631447
21
0.773544
31
0.0
0
LINE
8
TOP_HID
6
HIDDEN
10
0.631447
20
0.773544
30
0.0
11
0.634399
21
0.785138
31
0.0
0
LINE
8
TOP_HID
6
HIDDEN
10
0.634399
20
0.785138
30
0.0
11
0.638491
21
0.796379
31
0.0
0
LINE
8
TOP_HID
6
HIDDEN
10
0.638491
20
0.796379
30
0.0
11
0.643681
21
0.807157
31
0.0
0
LINE
8
TOP_HID
6
HIDDEN
10
0.643681
20
0.807157
30
0.0
11
0.649919
21
0.817365
31
0.0
0
LINE
8
TOP_HID
6
HIDDEN
10
0.649919
20
0.817365
30
0.0
11
0.657142
21
0.826901
31
0.0
0
LINE
8
TOP_HID
6
HIDDEN
10
0.657142
20
0.826901
30
0.0
11
0.665279
21
0.835671
31
0.0
0
LINE
8
TOP_HID
6
HIDDEN
10
0.665279
20
0.835671
30
0.0
11
0.674249
21
0.843587
31
0.0
0
LINE
8
TOP_HID
6
HIDDEN
10
0.674249
20
0.843587
30
0.0
11
0.683962
21
0.850570
31
0.0
0
LINE
8
TOP_HID
6
HIDDEN
10
0.683962
20
0.850570
30
0.0
11
0.694322
21
0.856552
31
0.0
0
LINE
8
TOP_HID
6
HIDDEN
10
0.694322
20
0.856552
30
0.0
11
0.705227
21
0.861472
31
0.0
0
LINE
8
TOP_HID
6
HIDDEN
10
0.705227
20
0.861472
30
0.0
11
0.716567
21
0.865282
31
0.0
0
LINE
8
TOP_HID
6
HIDDEN
10
0.716567
20
0.865282
30
0.0
11
0.728230
21
0.867944
31
0.0
0
LINE
8
TOP_HID
6
HIDDEN
10
0.728230
20
0.867944
30
0.0
11
0.740100
21
0.869431
31
0.0
0
LINE
8
TOP_HID
6
HIDDEN
10
0.740100
20
0.869431
30
0.0
11
0.752059
21
0.869730
31
0.0
0
LINE
8
TOP_HID
6
HIDDEN
10
0.752059
20
0.869730
30
0.0
11
0.763989
21
0.868836
31
0.0
0
LINE
8
TOP_HID
6
HIDDEN
10
0.763989
20
0.868836
30
0.0
11
0.775770
21
0.866758
31
0.0
0
LINE
8
TOP_HID
6
HIDDEN
10
0.775770
20
0.866758
30
0.0
11
0.787286
21
0.863518
31
0.0
0
LINE
8
TOP_HID
6
HIDDEN
10
0.787286
20
0.863518
30
0.0
11
0.798422
21
0.859148
31
0.0
0
LINE
8
TOP_HID
6
HIDDEN
10
0.798422
20
0.859148
30
0.0
11
0.809068
21
0.853690
31
0.0
0
LINE
8
TOP_HID
6
HIDDEN
10
0.809068
20
0.853690
30
0.0
11
0.819117
21
0.847199
31
0.0
0
LINE
8
TOP_HID
6
HIDDEN
10
0.819117
20
0.847199
30
0.0
11
0.828470
21
0.839741
31
0.0
0
LINE
8
TOP_HID
6
HIDDEN
10
0.828470
20
0.839741
30
0.0
11
0.837034
21
0.831388
31
0.0
0
LINE
8
TOP_HID
6
HIDDEN
10
0.837034
20
0.831388
30
0.0
11
0.844724
21
0.822223
31
0.0
0
LINE
8
TOP_HID
6
HIDDEN
10
0.844724
20
0.822223
30
0.0
11
0.851463
21
0.812339
31
0.0
0
LINE
8
TOP_HID
6
HIDDEN
10
0.851463
20
0.812339
30
0.0
11
0.857184
21
0.801833
31
0.0
0
LINE
8
TOP_HID
6
HIDDEN
10
0.857184
20
0.801833
30
0.0
11
0.861831
21
0.790809
31
0.0
0
LINE
8
TOP_HID
6
HIDDEN
10
0.861831
20
0.790809
30
0.0
11
0.865357
21
0.779378
31
0.0
0
LINE
8
TOP_HID
6
HIDDEN
10
0.865357
20
0.779378
30
0.0
11
0.867727
21
0.767652
31
0.0
0
LINE
8
TOP_HID
6
HIDDEN
10
0.867727
20
0.767652
30
0.0
11
0.868919
21
0.755748
31
0.0
0
LINE
8
TOP_HID
6
HIDDEN
10
0.868919
20
0.755748
30
0.0
11
0.868919
21
0.743785
31
0.0
0
LINE
8
TOP_HID
6
HIDDEN
10
0.868919
20
0.743785
30
0.0
11
0.867727
21
0.731882
31
0.0
0
LINE
8
TOP_HID
6
HIDDEN
10
0.867727
20
0.731882
30
0.0
11
0.865357
21
0.720156
31
0.0
0
LINE
8
TOP_HID
6
HIDDEN
10
0.865357
20
0.720156
30
0.0
11
0.861831
21
0.708724
31
0.0
0
LINE
8
TOP_HID
6
HIDDEN
10
0.861831
20
0.708724
30
0.0
11
0.857184
21
0.697701
31
0.0
0
LINE
8
TOP_HID
6
HIDDEN
10
0.857184
20
0.697701
30
0.0
11
0.851463
21
0.687195
31
0.0
0
LINE
8
TOP_HID
6
HIDDEN
10
0.851463
20
0.687195
30
0.0
11
0.844724
21
0.677310
31
0.0
0
LINE
8
TOP_HID
6
HIDDEN
10
0.844724
20
0.677310
30
0.0
11
0.837034
21
0.668146
31
0.0
0
LINE
8
TOP_HID
6
HIDDEN
10
0.837034
20
0.668146
30
0.0
11
0.828470
21
0.659793
31
0.0
0
LINE
8
TOP_HID
6
HIDDEN
10
0.828470
20
0.659793
30
0.0
11
0.819117
21
0.652334
31
0.0
0
LINE
8
TOP_HID
6
HIDDEN
10
0.819117
20
0.652334
30
0.0
11
0.809068
21
0.645844
31
0.0
0
LINE
8
TOP_HID
6
HIDDEN
10
0.809068
20
0.645844
30
0.0
11
0.798422
21
0.640386
31
0.0
0
LINE
8
TOP_HID
6
HIDDEN
10
0.798422
20
0.640386
30
0.0
11
0.787286
21
0.636016
31
0.0
0
LINE
8
TOP_HID
6
HIDDEN
10
0.787286
20
0.636016
30
0.0
11
0.775770
21
0.632776
31
0.0
0
LINE
8
TOP_HID
6
HIDDEN
10
0.775770
20
0.632776
30
0.0
11
0.763989
21
0.630698
31
0.0
0
LINE
8
TOP_HID
6
HIDDEN
10
0.763989
20
0.630698
30
0.0
11
0.752059
21
0.629804
31
0.0
0
LINE
8
TOP_HID
6
HIDDEN
10
0.752059
20
0.629804
30
0.0
11
0.740100
21
0.630102
31
0.0
0
LINE
8
TOP_HID
6
HIDDEN
10
0.740100
20
0.630102
30
0.0
11
0.728230
21
0.631590
31
0.0
0
LINE
8
TOP_HID
6
HIDDEN
10
0.728230
20
0.631590
30
0.0
11
0.716567
21
0.634252
31
0.0
0
LINE
8
TOP_HID
6
HIDDEN
10
0.716567
20
0.634252
30
0.0
11
0.705227
21
0.638062
31
0.0
0
LINE
8
TOP_HID
6
HIDDEN
10
0.705227
20
0.638062
30
0.0
11
0.694322
21
0.642982
31
0.0
0
LINE
8
TOP_HID
6
HIDDEN
10
0.694322
20
0.642982
30
0.0
11
0.683962
21
0.648964
31
0.0
0
LINE
8
TOP_HID
6
HIDDEN
10
0.683962
20
0.648964
30
0.0
11
0.674249
21
0.655947
31
0.0
0
LINE
8
TOP_HID
6
HIDDEN
10
0.674249
20
0.655947
30
0.0
11
0.665279
21
0.663863
31
0.0
0
LINE
8
TOP_HID
6
HIDDEN
10
0.665279
20
0.663863
30
0.0
11
0.657142
21
0.672632
31
0.0
0
LINE
8
TOP_HID
6
HIDDEN
10
0.657142
20
0.672632
30
0.0
11
0.649919
21
0.682168
31
0.0
0
LINE
8
TOP_HID
6
HIDDEN
10
0.649919
20
0.682168
30
0.0
11
0.643681
21
0.692376
31
0.0
0
LINE
8
TOP_HID
6
HIDDEN
10
0.643681
20
0.692376
30
0.0
11
0.638491
21
0.703155
31
0.0
0
LINE
8
TOP_HID
6
HIDDEN
10
0.638491
20
0.703155
30
0.0
11
0.634399
21
0.714396
31
0.0
0
LINE
8
TOP_HID
6
HIDDEN
10
0.634399
20
0.714396
30
0.0
11
0.631447
21
0.725989
31
0.0
0
LINE
8
TOP_HID
6
HIDDEN
10
0.631447
20
0.725989
30
0.0
11
0.629664
21
0.737819
31
0.0
0
LINE
8
TOP_HID
6
HIDDEN
10
0.629664
20
0.737819
30
0.0
11
0.629068
21
0.749767
31
0.0
0
LINE
8
TOP_HID
6
HIDDEN
10
0.629068
20
0.749767
30
0.0
11
0.629664
21
0.761715
31
0.0
0
LINE
8
TOP_HID
6
HIDDEN
10
0.629664
20
0.761715
30
0.0
11
0.631447
21
0.773544
31
0.0
0
LINE
8
TOP_HID
6
HIDDEN
10
0.631447
20
0.773544
30
0.0
11
0.634399
21
0.785138
31
0.0
0
LINE
8
TOP_HID
6
HIDDEN
10
0.634399
20
0.785138
30
0.0
11
0.638491
21
0.796379
31
0.0
0
LINE
8
TOP_HID
6
HIDDEN
10
0.638491
20
0.796379
30
0.0
11
0.643681
21
0.807157
31
0.0
0
LINE
8
TOP_HID
6
HIDDEN
10
0.643681
20
0.807157
30
0.0
11
0.649919
21
0.817365
31
0.0
0
LINE
8
TOP_HID
6
HIDDEN
10
0.649919
20
0.817365
30
0.0
11
0.657142
21
0.826901
31
0.0
0
LINE
8
TOP_HID
6
HIDDEN
10
0.657142
20
0.826901
30
0.0
11
0.665279
21
0.835671
31
0.0
0
LINE
8
TOP_HID
6
HIDDEN
10
0.665279
20
0.835671
30
0.0
11
0.674249
21
0.843587
31
0.0
0
LINE
8
TOP_HID
6
HIDDEN
10
0.674249
20
0.843587
30
0.0
11
0.683962
21
0.850570
31
0.0
0
LINE
8
TOP_HID
6
HIDDEN
10
0.683962
20
0.850570
30
0.0
11
0.694322
21
0.856552
31
0.0
0
LINE
8
TOP_HID
6
HIDDEN
10
0.694322
20
0.856552
30
0.0
11
0.705227
21
0.861472
31
0.0
0
LINE
8
TOP_HID
6
HIDDEN
10
0.705227
20
0.861472
30
0.0
11
0.716567
21
0.865282
31
0.0
0
LINE
8
TOP_HID
6
HIDDEN
10
0.716567
20
0.865282
30
0.0
11
0.728230
21
0.867944
31
0.0
0
LINE
8
TOP_HID
6
HIDDEN
10
0.728230
20
0.867944
30
0.0
11
0.740100
21
0.869431
31
0.0
0
LINE
8
TOP_HID
6
HIDDEN
10
0.740100
20
0.869431
30
0.0
11
0.752059
21
0.869730
31
0.0
0
LINE
8
TOP_HID
6
HIDDEN
10
0.752059
20
0.869730
30
0.0
11
0.763989
21
0.868836
31
0.0
0
LINE
8
TOP_HID
6
HIDDEN
10
0.763989
20
0.868836
30
0.0
11
0.775770
21
0.866758
31
0.0
0
LINE
8
TOP_HID
6
HIDDEN
10
0.775770
20
0.866758
30
0.0
11
0.787286
21
0.863518
31
0.0
0
LINE
8
TOP_HID
6
HIDDEN
10
0.787286
20
0.863518
30
0.0
11
0.798422
21
0.859148
31
0.0
0
LINE
8
TOP_HID
6
HIDDEN
10
0.798422
20
0.859148
30
0.0
11
0.809068
21
0.853690
31
0.0
0
LINE
8
TOP_HID
6
HIDDEN
10
0.809068
20
0.853690
30
0.0
11
0.819117
21
0.847199
31
0.0
0
LINE
8
TOP_HID
6
HIDDEN
10
0.819117
20
0.847199
30
0.0
11
0.828470
21
0.839741
31
0.0
0
LINE
8
TOP_HID
6
HIDDEN
10
0.828470
20
0.839741
30
0.0
11
0.837034
21
0.831388
31
0.0
0
LINE
8
TOP_HID
6
HIDDEN
10
0.837034
20
0.831388
30
0.0
11
0.844724
21
0.822223
31
0.0
0
LINE
8
TOP_HID
6
HIDDEN
10
0.844724
20
0.822223
30
0.0
11
0.851463
21
0.812339
31
0.0
0
LINE
8
TOP_HID
6
HIDDEN
10
0.851463
20
0.812339
30
0.0
11
0.857184
21
0.801833
31
0.0
0
LINE
8
TOP_HID
6
HIDDEN
10
0.857184
20
0.801833
30
0.0
11
0.861831
21
0.790809
31
0.0
0
LINE
8
TOP_HID
6
HIDDEN
10
0.861831
20
0.790809
30
0.0
11
0.865357
21
0.779378
31
0.0
0
LINE
8
TOP_HID
6
HIDDEN
10
0.865357
20
0.779378
30
0.0
11
0.867727
21
0.767652
31
0.0
0
LINE
8
TOP_HID
6
HIDDEN
10
0.867727
20
0.767652
30
0.0
11
0.868919
21
0.755748
31
0.0
0
LINE
8
TOP_HID
6
HIDDEN
10
0.868919
20
0.755748
30
0.0
11
0.868919
21
0.743785
31
0.0
0
LINE
8
TOP_HID
6
HIDDEN
10
0.868919
20
0.743785
30
0.0
11
0.867727
21
0.731882
31
0.0
0
LINE
8
TOP_HID
6
HIDDEN
10
0.867727
20
0.731882
30
0.0
11
0.865357
21
0.720156
31
0.0
0
LINE
8
TOP_HID
6
HIDDEN
10
0.865357
20
0.720156
30
0.0
11
0.861831
21
0.708724
31
0.0
0
LINE
8
TOP_HID
6
HIDDEN
10
0.861831
20
0.708724
30
0.0
11
0.857184
21
0.697701
31
0.0
0
LINE
8
TOP_HID
6
HIDDEN
10
0.857184
20
0.697701
30
0.0
11
0.851463
21
0.687195
31
0.0
0
LINE
8
TOP_HID
6
HIDDEN
10
0.851463
20
0.687195
30
0.0
11
0.844724
21
0.677310
31
0.0
0
LINE
8
TOP_HID
6
HIDDEN
10
0.844724
20
0.677310
30
0.0
11
0.837034
21
0.668146
31
0.0
0
LINE
8
TOP_HID
6
HIDDEN
10
0.837034
20
0.668146
30
0.0
11
0.828470
21
0.659793
31
0.0
0
LINE
8
TOP_HID
6
HIDDEN
10
0.828470
20
0.659793
30
0.0
11
0.819117
21
0.652334
31
0.0
0
LINE
8
TOP_HID
6
HIDDEN
10
0.819117
20
0.652334
30
0.0
11
0.809068
21
0.645844
31
0.0
0
LINE
8
TOP_HID
6
HIDDEN
10
0.809068
20
0.645844
30
0.0
11
0.798422
21
0.640386
31
0.0
0
LINE
8
TOP_HID
6
HIDDEN
10
0.798422
20
0.640386
30
0.0
11
0.787286
21
0.636016
31
0.0
0
LINE
8
TOP_HID
6
HIDDEN
10
0.787286
20
0.636016
30
0.0
11
0.775770
21
0.632776
31
0.0
0
LINE
8
TOP_HID
6
HIDDEN
10
0.775770
20
0.632776
30
0.0
11
0.763989
21
0.630698
31
0.0
0
LINE
8
TOP_HID
6
HIDDEN
10
0.763989
20
0.630698
30
0.0
11
0.752059
21
0.629804
31
0.0
0
LINE
8
TOP_HID
6
HIDDEN
10
0.752059
20
0.629804
30
0.0
11
0.740100
21
0.630102
31
0.0
0
LINE
8
TOP_HID
6
HIDDEN
10
0.740100
20
0.630102
30
0.0
11
0.728230
21
0.631590
31
0.0
0
LINE
8
TOP_HID
6
HIDDEN
10
0.728230
20
0.631590
30
0.0
11
0.716567
21
0.634252
31
0.0
0
LINE
8
TOP_HID
6
HIDDEN
10
0.716567
20
0.634252
30
0.0
11
0.705227
21
0.638062
31
0.0
0
LINE
8
TOP_HID
6
HIDDEN
10
0.705227
20
0.638062
30
0.0
11
0.694322
21
0.642982
31
0.0
0
LINE
8
TOP_HID
6
HIDDEN
10
0.694322
20
0.642982
30
0.0
11
0.683962
21
0.648964
31
0.0
0
LINE
8
TOP_HID
6
HIDDEN
10
0.683962
20
0.648964
30
0.0
11
0.674249
21
0.655947
31
0.0
0
LINE
8
TOP_HID
6
HIDDEN
10
0.674249
20
0.655947
30
0.0
11
0.665279
21
0.663863
31
0.0
0
LINE
8
TOP_HID
6
HIDDEN
10
0.665279
20
0.663863
30
0.0
11
0.657142
21
0.672632
31
0.0
0
LINE
8
TOP_HID
6
HIDDEN
10
0.657142
20
0.672632
30
0.0
11
0.649919
21
0.682168
31
0.0
0
LINE
8
TOP_HID
6
HIDDEN
10
0.649919
20
0.682168
30
0.0
11
0.643681
21
0.692376
31
0.0
0
LINE
8
TOP_HID
6
HIDDEN
10
0.643681
20
0.692376
30
0.0
11
0.638491
21
0.703155
31
0.0
0
LINE
8
TOP_HID
6
HIDDEN
10
0.638491
20
0.703155
30
0.0
11
0.634399
21
0.714396
31
0.0
0
LINE
8
TOP_HID
6
HIDDEN
10
0.634399
20
0.714396
30
0.0
11
0.631447
21
0.725989
31
0.0
0
LINE
8
TOP_HID
6
HIDDEN
10
0.631447
20
0.725989
30
0.0
11
0.629664
21
0.737819
31
0.0
0
LINE
8
TOP_HID
6
HIDDEN
10
0.629664
20
0.737819
30
0.0
11
0.629068
21
0.749767
31
0.0
0
ENDSEC
0
EOF
