0
SECTION
2
HEADER
9
$ACADVER
1
AC1009
0
ENDSEC
0
SECTION
2
TABLES
0
TABLE
2
LTYPE
70
3
0
LTYPE
2
CONTINUOUS
70
0
3
Solid line
72
65
73
0
40
0.0
0
LTYPE
2
HIDDEN
70
0
3
__ __ __ __ __
72
65
73
2
40
0.047866
49
0.031927
49
-0.015939
0
LTYPE
2
CENTER
70
0
3
___ _ ___ _ ___
72
65
73
4
40
0.111672
49
0.063806
49
-0.015939
49
0.015939
49
-0.015939
0
ENDTAB
0
TABLE
2
LAYER
70
7
0
LAYER
2
0
70
0
62
7
6
CONTINUOUS
0
LAYER
2
FRONT
70
0
62
7
6
CONTINUOUS
0
LAYER
2
FRONT_HID
70
0
62
7
6
HIDDEN
0
LAYER
2
LEFT
70
0
62
7
6
CONTINUOUS
0
LAYER
2
LEFT_HID
70
0
62
7
6
HIDDEN
0
LAYER
2
TOP
70
0
62
7
6
CONTINUOUS
0
LAYER
2
TOP_HID
70
0
62
7
6
HIDDEN
0
ENDTAB
0
ENDSEC
0
SECTION
2
ENTITIES
0
LINE
8
FRONT
10
0.531672
20
0.311283
30
0.0
11
0.000000
21
0.311283
31
0.0
0
LINE
8
FRONT
10
0.000000
20
0.311283
30
0.0
11
0.000000
21
0.345872
31
0.0
0
LINE
8
FRONT
10
0.531672
20
0.345872
30
0.0
11
0.000000
21
0.345872
31
0.0
0
LINE
8
FRONT
10
0.531672
20
0.311283
30
0.0
11
0.531672
21
0.345872
31
0.0
0
LINE
8
FRONT
10
0.531672
20
0.345872
30
0.0
11
0.531672
21
0.415049
31
0.0
0
LINE
8
FRONT
10
0.531672
20
0.415049
30
0.0
11
0.531672
21
0.449637
31
0.0
0
LINE
8
FRONT
10
0.000000
20
0.345872
30
0.0
11
0.000000
21
0.415049
31
0.0
0
LINE
8
FRONT
10
0.000000
20
0.415049
30
0.0
11
0.000000
21
0.449637
31
0.0
0
LINE
8
FRONT
10
0.531672
20
0.449637
30
0.0
11
0.000000
21
0.449637
31
0.0
0
LINE
8
FRONT
10
0.531672
20
0.415049
30
0.0
11
0.000000
21
0.415049
31
0.0
0
LINE
8
FRONT
10
0.531672
20
0.407751
30
0.0
11
0.957324
21
0.407751
31
0.0
0
LINE
8
FRONT
10
0.957324
20
0.353169
30
0.0
11
0.957324
21
0.407751
31
0.0
0
LINE
8
FRONT
10
0.957324
20
0.353169
30
0.0
11
0.531672
21
0.353169
31
0.0
0
LINE
8
FRONT_HID
6
HIDDEN
10
0.531672
20
0.407751
30
0.0
11
0.531672
21
0.353169
31
0.0
0
LINE
8
FRONT_HID
6
HIDDEN
10
0.531672
20
0.353169
30
0.0
11
0.531672
21
0.407751
31
0.0
0
LINE
8
FRONT_HID
6
HIDDEN
10
0.000000
20
0.407708
30
0.0
11
0.000000
21
0.405978
31
0.0
0
LINE
8
FRONT_HID
6
HIDDEN
10
0.000000
20
0.405978
30
0.0
11
0.000000
21
0.404248
31
0.0
0
LINE
8
FRONT_HID
6
HIDDEN
10
0.000000
20
0.404248
30
0.0
11
0.000000
21
0.402518
31
0.0
0
LINE
8
FRONT_HID
6
HIDDEN
10
0.000000
20
0.402518
30
0.0
11
0.000000
21
0.400788
31
0.0
0
LINE
8
FRONT_HID
6
HIDDEN
10
0.000000
20
0.400788
30
0.0
11
0.000000
21
0.399058
31
0.0
0
LINE
8
FRONT_HID
6
HIDDEN
10
0.000000
20
0.399058
30
0.0
11
0.000000
21
0.397328
31
0.0
0
LINE
8
FRONT_HID
6
HIDDEN
10
0.000000
20
0.397328
30
0.0
11
0.000000
21
0.395598
31
0.0
0
LINE
8
FRONT_HID
6
HIDDEN
10
0.000000
20
0.395598
30
0.0
11
0.000000
21
0.393868
31
0.0
0
LINE
8
FRONT_HID
6
HIDDEN
10
0.000000
20
0.393868
30
0.0
11
0.000000
21
0.392138
31
0.0
0
LINE
8
FRONT_HID
6
HIDDEN
10
0.000000
20
0.392138
30
0.0
11
0.000000
21
0.390408
31
0.0
0
LINE
8
FRONT_HID
6
HIDDEN
10
0.000000
20
0.390408
30
0.0
11
0.000000
21
0.388678
31
0.0
0
LINE
8
FRONT_HID
6
HIDDEN
10
0.000000
20
0.388678
30
0.0
11
0.000000
21
0.386948
31
0.0
0
LINE
8
FRONT_HID
6
HIDDEN
10
0.000000
20
0.386948
30
0.0
11
0.000000
21
0.385218
31
0.0
0
LINE
8
FRONT_HID
6
HIDDEN
10
0.000000
20
0.385218
30
0.0
11
0.000000
21
0.383488
31
0.0
0
LINE
8
FRONT_HID
6
HIDDEN
10
0.000000
20
0.383488
30
0.0
11
0.000000
21
0.381758
31
0.0
0
LINE
8
FRONT_HID
6
HIDDEN
10
0.000000
20
0.381758
30
0.0
11
0.000000
21
0.380028
31
0.0
0
LINE
8
FRONT_HID
6
HIDDEN
10
0.000000
20
0.380028
30
0.0
11
0.000000
21
0.378298
31
0.0
0
LINE
8
FRONT_HID
6
HIDDEN
10
0.000000
20
0.378298
30
0.0
11
0.000000
21
0.376568
31
0.0
0
LINE
8
FRONT_HID
6
HIDDEN
10
0.000000
20
0.376568
30
0.0
11
0.000000
21
0.374838
31
0.0
0
LINE
8
FRONT_HID
6
HIDDEN
10
0.000000
20
0.374838
30
0.0
11
0.000000
21
0.373108
31
0.0
0
LINE
8
FRONT_HID
6
HIDDEN
10
0.000000
20
0.373108
30
0.0
11
0.000000
21
0.371378
31
0.0
0
LINE
8
FRONT_HID
6
HIDDEN
10
0.000000
20
0.371378
30
0.0
11
0.000000
21
0.369648
31
0.0
0
LINE
8
FRONT_HID
6
HIDDEN
10
0.000000
20
0.369648
30
0.0
11
0.000000
21
0.367918
31
0.0
0
LINE
8
FRONT_HID
6
HIDDEN
10
0.000000
20
0.367918
30
0.0
11
0.000000
21
0.366188
31
0.0
0
LINE
8
FRONT_HID
6
HIDDEN
10
0.000000
20
0.366188
30
0.0
11
0.000000
21
0.364458
31
0.0
0
LINE
8
FRONT_HID
6
HIDDEN
10
0.000000
20
0.364458
30
0.0
11
0.000000
21
0.362728
31
0.0
0
LINE
8
FRONT_HID
6
HIDDEN
10
0.000000
20
0.362728
30
0.0
11
0.000000
21
0.360998
31
0.0
0
LINE
8
FRONT_HID
6
HIDDEN
10
0.000000
20
0.360998
30
0.0
11
0.000000
21
0.359268
31
0.0
0
LINE
8
FRONT_HID
6
HIDDEN
10
0.000000
20
0.359268
30
0.0
11
0.000000
21
0.357538
31
0.0
0
LINE
8
FRONT_HID
6
HIDDEN
10
0.000000
20
0.357538
30
0.0
11
0.000000
21
0.355808
31
0.0
0
LINE
8
FRONT_HID
6
HIDDEN
10
0.000000
20
0.355808
30
0.0
11
0.000000
21
0.354078
31
0.0
0
LINE
8
FRONT_HID
6
HIDDEN
10
0.000000
20
0.354078
30
0.0
11
0.000000
21
0.355808
31
0.0
0
LINE
8
FRONT_HID
6
HIDDEN
10
0.000000
20
0.355808
30
0.0
11
0.000000
21
0.357538
31
0.0
0
LINE
8
FRONT_HID
6
HIDDEN
10
0.000000
20
0.357538
30
0.0
11
0.000000
21
0.359268
31
0.0
0
LINE
8
FRONT_HID
6
HIDDEN
10
0.000000
20
0.359268
30
0.0
11
0.000000
21
0.360998
31
0.0
0
LINE
8
FRONT_HID
6
HIDDEN
10
0.000000
20
0.360998
30
0.0
11
0.000000
21
0.362728
31
0.0
0
LINE
8
FRONT_HID
6
HIDDEN
10
0.000000
20
0.362728
30
0.0
11
0.000000
21
0.364458
31
0.0
0
LINE
8
FRONT_HID
6
HIDDEN
10
0.000000
20
0.364458
30
0.0
11
0.000000
21
0.366188
31
0.0
0
LINE
8
FRONT_HID
6
HIDDEN
10
0.000000
20
0.366188
30
0.0
11
0.000000
21
0.367918
31
0.0
0
LINE
8
FRONT_HID
6
HIDDEN
10
0.000000
20
0.367918
30
0.0
11
0.000000
21
0.369648
31
0.0
0
LINE
8
FRONT_HID
6
HIDDEN
10
0.000000
20
0.369648
30
0.0
11
0.000000
21
0.371378
31
0.0
0
LINE
8
FRONT_HID
6
HIDDEN
10
0.000000
20
0.371378
30
0.0
11
0.000000
21
0.373108
31
0.0
0
LINE
8
FRONT_HID
6
HIDDEN
10
0.000000
20
0.373108
30
0.0
11
0.000000
21
0.374838
31
0.0
0
LINE
8
FRONT_HID
6
HIDDEN
10
0.000000
20
0.374838
30
0.0
11
0.000000
21
0.376568
31
0.0
0
LINE
8
FRONT_HID
6
HIDDEN
10
0.000000
20
0.376568
30
0.0
11
0.000000
21
0.378298
31
0.0
0
LINE
8
FRONT_HID
6
HIDDEN
10
0.000000
20
0.378298
30
0.0
11
0.000000
21
0.380028
31
0.0
0
LINE
8
FRONT_HID
6
HIDDEN
10
0.000000
20
0.380028
30
0.0
11
0.000000
21
0.381758
31
0.0
0
LINE
8
FRONT_HID
6
HIDDEN
10
0.000000
20
0.381758
30
0.0
11
0.000000
21
0.383488
31
0.0
0
LINE
8
FRONT_HID
6
HIDDEN
10
0.000000
20
0.383488
30
0.0
11
0.000000
21
0.385218
31
0.0
0
LINE
8
FRONT_HID
6
HIDDEN
10
0.000000
20
0.385218
30
0.0
11
0.000000
21
0.386948
31
0.0
0
LINE
8
FRONT_HID
6
HIDDEN
10
0.000000
20
0.386948
30
0.0
11
0.000000
21
0.388678
31
0.0
0
LINE
8
FRONT_HID
6
HIDDEN
10
0.000000
20
0.388678
30
0.0
11
0.000000
21
0.390408
31
0.0
0
LINE
8
FRONT_HID
6
HIDDEN
10
0.000000
20
0.390408
30
0.0
11
0.000000
21
0.392138
31
0.0
0
LINE
8
FRONT_HID
6
HIDDEN
10
0.000000
20
0.392138
30
0.0
11
0.000000
21
0.393868
31
0.0
0
LINE
8
FRONT_HID
6
HIDDEN
10
0.000000
20
0.393868
30
0.0
11
0.000000
21
0.395598
31
0.0
0
LINE
8
FRONT_HID
6
HIDDEN
10
0.000000
20
0.395598
30
0.0
11
0.000000
21
0.397328
31
0.0
0
LINE
8
FRONT_HID
6
HIDDEN
10
0.000000
20
0.397328
30
0.0
11
0.000000
21
0.399058
31
0.0
0
LINE
8
FRONT_HID
6
HIDDEN
10
0.000000
20
0.399058
30
0.0
11
0.000000
21
0.400788
31
0.0
0
LINE
8
FRONT_HID
6
HIDDEN
10
0.000000
20
0.400788
30
0.0
11
0.000000
21
0.402518
31
0.0
0
LINE
8
FRONT_HID
6
HIDDEN
10
0.000000
20
0.402518
30
0.0
11
0.000000
21
0.404248
31
0.0
0
LINE
8
FRONT_HID
6
HIDDEN
10
0.000000
20
0.404248
30
0.0
11
0.000000
21
0.405978
31
0.0
0
LINE
8
FRONT_HID
6
HIDDEN
10
0.000000
20
0.405978
30
0.0
11
0.000000
21
0.407708
31
0.0
0
LINE
8
LEFT
10
1.268607
20
0.345872
30
0.0
11
1.208698
21
0.311283
31
0.0
0
LINE
8
LEFT
10
1.268607
20
0.415049
30
0.0
11
1.268607
21
0.345872
31
0.0
0
LINE
8
LEFT
10
1.208698
20
0.311283
30
0.0
11
1.148789
21
0.345872
31
0.0
0
LINE
8
LEFT
10
1.148789
20
0.345872
30
0.0
11
1.148789
21
0.415049
31
0.0
0
LINE
8
LEFT
10
1.148789
20
0.415049
30
0.0
11
1.208698
21
0.449637
31
0.0
0
LINE
8
LEFT
10
1.208698
20
0.449637
30
0.0
11
1.268607
21
0.415049
31
0.0
0
LINE
8
LEFT_HID
6
HIDDEN
10
1.208698
20
0.407751
30
0.0
11
1.211415
21
0.407616
31
0.0
0
LINE
8
LEFT_HID
6
HIDDEN
10
1.211415
20
0.407616
30
0.0
11
1.214106
21
0.407210
31
0.0
0
LINE
8
LEFT_HID
6
HIDDEN
10
1.214106
20
0.407210
30
0.0
11
1.216742
21
0.406539
31
0.0
0
LINE
8
LEFT_HID
6
HIDDEN
10
1.216742
20
0.406539
30
0.0
11
1.219299
21
0.405608
31
0.0
0
LINE
8
LEFT_HID
6
HIDDEN
10
1.219299
20
0.405608
30
0.0
11
1.221750
21
0.404428
31
0.0
0
LINE
8
LEFT_HID
6
HIDDEN
10
1.221750
20
0.404428
30
0.0
11
1.224072
21
0.403009
31
0.0
0
LINE
8
LEFT_HID
6
HIDDEN
10
1.224072
20
0.403009
30
0.0
11
1.226240
21
0.401366
31
0.0
0
LINE
8
LEFT_HID
6
HIDDEN
10
1.226240
20
0.401366
30
0.0
11
1.228235
21
0.399516
31
0.0
0
LINE
8
LEFT_HID
6
HIDDEN
10
1.228235
20
0.399516
30
0.0
11
1.230035
21
0.397476
31
0.0
0
LINE
8
LEFT_HID
6
HIDDEN
10
1.230035
20
0.397476
30
0.0
11
1.231623
21
0.395267
31
0.0
0
LINE
8
LEFT_HID
6
HIDDEN
10
1.231623
20
0.395267
30
0.0
11
1.232984
21
0.392911
31
0.0
0
LINE
8
LEFT_HID
6
HIDDEN
10
1.232984
20
0.392911
30
0.0
11
1.234103
21
0.390431
31
0.0
0
LINE
8
LEFT_HID
6
HIDDEN
10
1.234103
20
0.390431
30
0.0
11
1.234969
21
0.387852
31
0.0
0
LINE
8
LEFT_HID
6
HIDDEN
10
1.234969
20
0.387852
30
0.0
11
1.235575
21
0.385199
31
0.0
0
LINE
8
LEFT_HID
6
HIDDEN
10
1.235575
20
0.385199
30
0.0
11
1.235913
21
0.382500
31
0.0
0
LINE
8
LEFT_HID
6
HIDDEN
10
1.235913
20
0.382500
30
0.0
11
1.235981
21
0.379780
31
0.0
0
LINE
8
LEFT_HID
6
HIDDEN
10
1.235981
20
0.379780
30
0.0
11
1.235777
21
0.377067
31
0.0
0
LINE
8
LEFT_HID
6
HIDDEN
10
1.235777
20
0.377067
30
0.0
11
1.235305
21
0.374388
31
0.0
0
LINE
8
LEFT_HID
6
HIDDEN
10
1.235305
20
0.374388
30
0.0
11
1.234568
21
0.371769
31
0.0
0
LINE
8
LEFT_HID
6
HIDDEN
10
1.234568
20
0.371769
30
0.0
11
1.233574
21
0.369236
31
0.0
0
LINE
8
LEFT_HID
6
HIDDEN
10
1.233574
20
0.369236
30
0.0
11
1.232333
21
0.366815
31
0.0
0
LINE
8
LEFT_HID
6
HIDDEN
10
1.232333
20
0.366815
30
0.0
11
1.230857
21
0.364529
31
0.0
0
LINE
8
LEFT_HID
6
HIDDEN
10
1.230857
20
0.364529
30
0.0
11
1.229160
21
0.362402
31
0.0
0
LINE
8
LEFT_HID
6
HIDDEN
10
1.229160
20
0.362402
30
0.0
11
1.227261
21
0.360455
31
0.0
0
LINE
8
LEFT_HID
6
HIDDEN
10
1.227261
20
0.360455
30
0.0
11
1.225177
21
0.358706
31
0.0
0
LINE
8
LEFT_HID
6
HIDDEN
10
1.225177
20
0.358706
30
0.0
11
1.222929
21
0.357173
31
0.0
0
LINE
8
LEFT_HID
6
HIDDEN
10
1.222929
20
0.357173
30
0.0
11
1.220539
21
0.355872
31
0.0
0
LINE
8
LEFT_HID
6
HIDDEN
10
1.220539
20
0.355872
30
0.0
11
1.218032
21
0.354815
31
0.0
0
LINE
8
LEFT_HID
6
HIDDEN
10
1.218032
20
0.354815
30
0.0
11
1.215432
21
0.354013
31
0.0
0
LINE
8
LEFT_HID
6
HIDDEN
10
1.215432
20
0.354013
30
0.0
11
1.212766
21
0.353474
31
0.0
0
LINE
8
LEFT_HID
6
HIDDEN
10
1.212766
20
0.353474
30
0.0
11
1.210059
21
0.353203
31
0.0
0
LINE
8
LEFT_HID
6
HIDDEN
10
1.210059
20
0.353203
30
0.0
11
1.207338
21
0.353203
31
0.0
0
LINE
8
LEFT_HID
6
HIDDEN
10
1.207338
20
0.353203
30
0.0
11
1.204631
21
0.353474
31
0.0
0
LINE
8
LEFT_HID
6
HIDDEN
10
1.204631
20
0.353474
30
0.0
11
1.201964
21
0.354013
31
0.0
0
LINE
8
LEFT_HID
6
HIDDEN
10
1.201964
20
0.354013
30
0.0
11
1.199364
21
0.354815
31
0.0
0
LINE
8
LEFT_HID
6
HIDDEN
10
1.199364
20
0.354815
30
0.0
11
1.196857
21
0.355872
31
0.0
0
LINE
8
LEFT_HID
6
HIDDEN
10
1.196857
20
0.355872
30
0.0
11
1.194468
21
0.357173
31
0.0
0
LINE
8
LEFT_HID
6
HIDDEN
10
1.194468
20
0.357173
30
0.0
11
1.192220
21
0.358706
31
0.0
0
LINE
8
LEFT_HID
6
HIDDEN
10
1.192220
20
0.358706
30
0.0
11
1.190136
21
0.360455
31
0.0
0
LINE
8
LEFT_HID
6
HIDDEN
10
1.190136
20
0.360455
30
0.0
11
1.188236
21
0.362402
31
0.0
0
LINE
8
LEFT_HID
6
HIDDEN
10
1.188236
20
0.362402
30
0.0
11
1.186540
21
0.364529
31
0.0
0
LINE
8
LEFT_HID
6
HIDDEN
10
1.186540
20
0.364529
30
0.0
11
1.185063
21
0.366815
31
0.0
0
LINE
8
LEFT_HID
6
HIDDEN
10
1.185063
20
0.366815
30
0.0
11
1.183822
21
0.369236
31
0.0
0
LINE
8
LEFT_HID
6
HIDDEN
10
1.183822
20
0.369236
30
0.0
11
1.182828
21
0.371769
31
0.0
0
LINE
8
LEFT_HID
6
HIDDEN
10
1.182828
20
0.371769
30
0.0
11
1.182091
21
0.374388
31
0.0
0
LINE
8
LEFT_HID
6
HIDDEN
10
1.182091
20
0.374388
30
0.0
11
1.181619
21
0.377067
31
0.0
0
LINE
8
LEFT_HID
6
HIDDEN
10
1.181619
20
0.377067
30
0.0
11
1.181416
21
0.379780
31
0.0
0
LINE
8
LEFT_HID
6
HIDDEN
10
1.181416
20
0.379780
30
0.0
11
1.181484
21
0.382500
31
0.0
0
LINE
8
LEFT_HID
6
HIDDEN
10
1.181484
20
0.382500
30
0.0
11
1.181822
21
0.385199
31
0.0
0
LINE
8
LEFT_HID
6
HIDDEN
10
1.181822
20
0.385199
30
0.0
11
1.182427
21
0.387852
31
0.0
0
LINE
8
LEFT_HID
6
HIDDEN
10
1.182427
20
0.387852
30
0.0
11
1.183294
21
0.390431
31
0.0
0
LINE
8
LEFT_HID
6
HIDDEN
10
1.183294
20
0.390431
30
0.0
11
1.184413
21
0.392911
31
0.0
0
LINE
8
LEFT_HID
6
HIDDEN
10
1.184413
20
0.392911
30
0.0
11
1.185773
21
0.395267
31
0.0
0
LINE
8
LEFT_HID
6
HIDDEN
10
1.185773
20
0.395267
30
0.0
11
1.187361
21
0.397476
31
0.0
0
LINE
8
LEFT_HID
6
HIDDEN
10
1.187361
20
0.397476
30
0.0
11
1.189161
21
0.399516
31
0.0
0
LINE
8
LEFT_HID
6
HIDDEN
10
1.189161
20
0.399516
30
0.0
11
1.191156
21
0.401366
31
0.0
0
LINE
8
LEFT_HID
6
HIDDEN
10
1.191156
20
0.401366
30
0.0
11
1.193325
21
0.403009
31
0.0
0
LINE
8
LEFT_HID
6
HIDDEN
10
1.193325
20
0.403009
30
0.0
11
1.195646
21
0.404428
31
0.0
0
LINE
8
LEFT_HID
6
HIDDEN
10
1.195646
20
0.404428
30
0.0
11
1.198097
21
0.405608
31
0.0
0
LINE
8
LEFT_HID
6
HIDDEN
10
1.198097
20
0.405608
30
0.0
11
1.200654
21
0.406539
31
0.0
0
LINE
8
LEFT_HID
6
HIDDEN
10
1.200654
20
0.406539
30
0.0
11
1.203291
21
0.407210
31
0.0
0
LINE
8
LEFT_HID
6
HIDDEN
10
1.203291
20
0.407210
30
0.0
11
1.205981
21
0.407616
31
0.0
0
LINE
8
LEFT_HID
6
HIDDEN
10
1.205981
20
0.407616
30
0.0
11
1.208698
21
0.407751
31
0.0
0
LINE
8
LEFT_HID
6
HIDDEN
10
1.208698
20
0.407751
30
0.0
11
1.211415
21
0.407616
31
0.0
0
LINE
8
LEFT_HID
6
HIDDEN
10
1.211415
20
0.407616
30
0.0
11
1.214106
21
0.407210
31
0.0
0
LINE
8
LEFT_HID
6
HIDDEN
10
1.214106
20
0.407210
30
0.0
11
1.216742
21
0.406539
31
0.0
0
LINE
8
LEFT_HID
6
HIDDEN
10
1.216742
20
0.406539
30
0.0
11
1.219299
21
0.405608
31
0.0
0
LINE
8
LEFT_HID
6
HIDDEN
10
1.219299
20
0.405608
30
0.0
11
1.221750
21
0.404428
31
0.0
0
LINE
8
LEFT_HID
6
HIDDEN
10
1.221750
20
0.404428
30
0.0
11
1.224072
21
0.403009
31
0.0
0
LINE
8
LEFT_HID
6
HIDDEN
10
1.224072
20
0.403009
30
0.0
11
1.226240
21
0.401366
31
0.0
0
LINE
8
LEFT_HID
6
HIDDEN
10
1.226240
20
0.401366
30
0.0
11
1.228235
21
0.399516
31
0.0
0
LINE
8
LEFT_HID
6
HIDDEN
10
1.228235
20
0.399516
30
0.0
11
1.230035
21
0.397476
31
0.0
0
LINE
8
LEFT_HID
6
HIDDEN
10
1.230035
20
0.397476
30
0.0
11
1.231623
21
0.395267
31
0.0
0
LINE
8
LEFT_HID
6
HIDDEN
10
1.231623
20
0.395267
30
0.0
11
1.232984
21
0.392911
31
0.0
0
LINE
8
LEFT_HID
6
HIDDEN
10
1.232984
20
0.392911
30
0.0
11
1.234103
21
0.390431
31
0.0
0
LINE
8
LEFT_HID
6
HIDDEN
10
1.234103
20
0.390431
30
0.0
11
1.234969
21
0.387852
31
0.0
0
LINE
8
LEFT_HID
6
HIDDEN
10
1.234969
20
0.387852
30
0.0
11
1.235575
21
0.385199
31
0.0
0
LINE
8
LEFT_HID
6
HIDDEN
10
1.235575
20
0.385199
30
0.0
11
1.235913
21
0.382500
31
0.0
0
LINE
8
LEFT_HID
6
HIDDEN
10
1.235913
20
0.382500
30
0.0
11
1.235981
21
0.379780
31
0.0
0
LINE
8
LEFT_HID
6
HIDDEN
10
1.235981
20
0.379780
30
0.0
11
1.235777
21
0.377067
31
0.0
0
LINE
8
LEFT_HID
6
HIDDEN
10
1.235777
20
0.377067
30
0.0
11
1.235305
21
0.374388
31
0.0
0
LINE
8
LEFT_HID
6
HIDDEN
10
1.235305
20
0.374388
30
0.0
11
1.234568
21
0.371769
31
0.0
0
LINE
8
LEFT_HID
6
HIDDEN
10
1.234568
20
0.371769
30
0.0
11
1.233574
21
0.369236
31
0.0
0
LINE
8
LEFT_HID
6
HIDDEN
10
1.233574
20
0.369236
30
0.0
11
1.232333
21
0.366815
31
0.0
0
LINE
8
LEFT_HID
6
HIDDEN
10
1.232333
20
0.366815
30
0.0
11
1.230857
21
0.364529
31
0.0
0
LINE
8
LEFT_HID
6
HIDDEN
10
1.230857
20
0.364529
30
0.0
11
1.229160
21
0.362402
31
0.0
0
LINE
8
LEFT_HID
6
HIDDEN
10
1.229160
20
0.362402
30
0.0
11
1.227261
21
0.360455
31
0.0
0
LINE
8
LEFT_HID
6
HIDDEN
10
1.227261
20
0.360455
30
0.0
11
1.225177
21
0.358706
31
0.0
0
LINE
8
LEFT_HID
6
HIDDEN
10
1.225177
20
0.358706
30
0.0
11
1.222929
21
0.357173
31
0.0
0
LINE
8
LEFT_HID
6
HIDDEN
10
1.222929
20
0.357173
30
0.0
11
1.220539
21
0.355872
31
0.0
0
LINE
8
LEFT_HID
6
HIDDEN
10
1.220539
20
0.355872
30
0.0
11
1.218032
21
0.354815
31
0.0
0
LINE
8
LEFT_HID
6
HIDDEN
10
1.218032
20
0.354815
30
0.0
11
1.215432
21
0.354013
31
0.0
0
LINE
8
LEFT_HID
6
HIDDEN
10
1.215432
20
0.354013
30
0.0
11
1.212766
21
0.353474
31
0.0
0
LINE
8
LEFT_HID
6
HIDDEN
10
1.212766
20
0.353474
30
0.0
11
1.210059
21
0.353203
31
0.0
0
LINE
8
LEFT_HID
6
HIDDEN
10
1.210059
20
0.353203
30
0.0
11
1.207338
21
0.353203
31
0.0
0
LINE
8
LEFT_HID
6
HIDDEN
10
1.207338
20
0.353203
30
0.0
11
1.204631
21
0.353474
31
0.0
0
LINE
8
LEFT_HID
6
HIDDEN
10
1.204631
20
0.353474
30
0.0
11
1.201964
21
0.354013
31
0.0
0
LINE
8
LEFT_HID
6
HIDDEN
10
1.201964
20
0.354013
30
0.0
11
1.199364
21
0.354815
31
0.0
0
LINE
8
LEFT_HID
6
HIDDEN
10
1.199364
20
0.354815
30
0.0
11
1.196857
21
0.355872
31
0.0
0
LINE
8
LEFT_HID
6
HIDDEN
10
1.196857
20
0.355872
30
0.0
11
1.194468
21
0.357173
31
0.0
0
LINE
8
LEFT_HID
6
HIDDEN
10
1.194468
20
0.357173
30
0.0
11
1.192220
21
0.358706
31
0.0
0
LINE
8
LEFT_HID
6
HIDDEN
10
1.192220
20
0.358706
30
0.0
11
1.190136
21
0.360455
31
0.0
0
LINE
8
LEFT_HID
6
HIDDEN
10
1.190136
20
0.360455
30
0.0
11
1.188236
21
0.362402
31
0.0
0
LINE
8
LEFT_HID
6
HIDDEN
10
1.188236
20
0.362402
30
0.0
11
1.186540
21
0.364529
31
0.0
0
LINE
8
LEFT_HID
6
HIDDEN
10
1.186540
20
0.364529
30
0.0
11
1.185063
21
0.366815
31
0.0
0
LINE
8
LEFT_HID
6
HIDDEN
10
1.185063
20
0.366815
30
0.0
11
1.183822
21
0.369236
31
0.0
0
LINE
8
LEFT_HID
6
HIDDEN
10
1.183822
20
0.369236
30
0.0
11
1.182828
21
0.371769
31
0.0
0
LINE
8
LEFT_HID
6
HIDDEN
10
1.182828
20
0.371769
30
0.0
11
1.182091
21
0.374388
31
0.0
0
LINE
8
LEFT_HID
6
HIDDEN
10
1.182091
20
0.374388
30
0.0
11
1.181619
21
0.377067
31
0.0
0
LINE
8
LEFT_HID
6
HIDDEN
10
1.181619
20
0.377067
30
0.0
11
1.181416
21
0.379780
31
0.0
0
LINE
8
LEFT_HID
6
HIDDEN
10
1.181416
20
0.379780
30
0.0
11
1.181484
21
0.382500
31
0.0
0
LINE
8
LEFT_HID
6
HIDDEN
10
1.181484
20
0.382500
30
0.0
11
1.181822
21
0.385199
31
0.0
0
LINE
8
LEFT_HID
6
HIDDEN
10
1.181822
20
0.385199
30
0.0
11
1.182427
21
0.387852
31
0.0
0
LINE
8
LEFT_HID
6
HIDDEN
10
1.182427
20
0.387852
30
0.0
11
1.183294
21
0.390431
31
0.0
0
LINE
8
LEFT_HID
6
HIDDEN
10
1.183294
20
0.390431
30
0.0
11
1.184413
21
0.392911
31
0.0
0
LINE
8
LEFT_HID
6
HIDDEN
10
1.184413
20
0.392911
30
0.0
11
1.185773
21
0.395267
31
0.0
0
LINE
8
LEFT_HID
6
HIDDEN
10
1.185773
20
0.395267
30
0.0
11
1.187361
21
0.397476
31
0.0
0
LINE
8
LEFT_HID
6
HIDDEN
10
1.187361
20
0.397476
30
0.0
11
1.189161
21
0.399516
31
0.0
0
LINE
8
LEFT_HID
6
HIDDEN
10
1.189161
20
0.399516
30
0.0
11
1.191156
21
0.401366
31
0.0
0
LINE
8
LEFT_HID
6
HIDDEN
10
1.191156
20
0.401366
30
0.0
11
1.193325
21
0.403009
31
0.0
0
LINE
8
LEFT_HID
6
HIDDEN
10
1.193325
20
0.403009
30
0.0
11
1.195646
21
0.404428
31
0.0
0
LINE
8
LEFT_HID
6
HIDDEN
10
1.195646
20
0.404428
30
0.0
11
1.198097
21
0.405608
31
0.0
0
LINE
8
LEFT_HID
6
HIDDEN
10
1.198097
20
0.405608
30
0.0
11
1.200654
21
0.406539
31
0.0
0
LINE
8
LEFT_HID
6
HIDDEN
10
1.200654
20
0.406539
30
0.0
11
1.203291
21
0.407210
31
0.0
0
LINE
8
LEFT_HID
6
HIDDEN
10
1.203291
20
0.407210
30
0.0
11
1.205981
21
0.407616
31
0.0
0
LINE
8
LEFT_HID
6
HIDDEN
10
1.205981
20
0.407616
30
0.0
11
1.208698
21
0.407751
31
0.0
0
LINE
8
TOP
10
0.531672
20
0.000000
30
0.0
11
0.000000
21
0.000000
31
0.0
0
LINE
8
TOP
10
0.531672
20
0.119818
30
0.0
11
0.531672
21
0.059909
31
0.0
0
LINE
8
TOP
10
0.531672
20
0.059909
30
0.0
11
0.531672
21
0.000000
31
0.0
0
LINE
8
TOP
10
0.000000
20
0.119818
30
0.0
11
0.000000
21
0.059909
31
0.0
0
LINE
8
TOP
10
0.000000
20
0.059909
30
0.0
11
0.000000
21
0.000000
31
0.0
0
LINE
8
TOP
10
0.531672
20
0.059909
30
0.0
11
0.000000
21
0.059909
31
0.0
0
LINE
8
TOP
10
0.531672
20
0.119818
30
0.0
11
0.000000
21
0.119818
31
0.0
0
LINE
8
TOP
10
0.957324
20
0.059909
30
0.0
11
0.957324
21
0.032618
31
0.0
0
LINE
8
TOP
10
0.957324
20
0.087200
30
0.0
11
0.957324
21
0.059909
31
0.0
0
LINE
8
TOP
10
0.957324
20
0.087200
30
0.0
11
0.531672
21
0.087200
31
0.0
0
LINE
8
TOP
10
0.957324
20
0.032618
30
0.0
11
0.531672
21
0.032618
31
0.0
0
LINE
8
TOP_HID
6
HIDDEN
10
0.531672
20
0.059909
30
0.0
11
0.531672
21
0.032618
31
0.0
0
LINE
8
TOP_HID
6
HIDDEN
10
0.531672
20
0.032618
30
0.0
11
0.531672
21
0.087200
31
0.0
0
LINE
8
TOP_HID
6
HIDDEN
10
0.531672
20
0.087200
30
0.0
11
0.531672
21
0.059909
31
0.0
0
LINE
8
TOP_HID
6
HIDDEN
10
0.000000
20
0.059909
30
0.0
11
0.000000
21
0.058223
31
0.0
0
LINE
8
TOP_HID
6
HIDDEN
10
0.000000
20
0.058223
30
0.0
11
0.000000
21
0.056536
31
0.0
0
LINE
8
TOP_HID
6
HIDDEN
10
0.000000
20
0.056536
30
0.0
11
0.000000
21
0.054849
31
0.0
0
LINE
8
TOP_HID
6
HIDDEN
10
0.000000
20
0.054849
30
0.0
11
0.000000
21
0.053163
31
0.0
0
LINE
8
TOP_HID
6
HIDDEN
10
0.000000
20
0.053163
30
0.0
11
0.000000
21
0.051476
31
0.0
0
LINE
8
TOP_HID
6
HIDDEN
10
0.000000
20
0.051476
30
0.0
11
0.000000
21
0.049789
31
0.0
0
LINE
8
TOP_HID
6
HIDDEN
10
0.000000
20
0.049789
30
0.0
11
0.000000
21
0.048103
31
0.0
0
LINE
8
TOP_HID
6
HIDDEN
10
0.000000
20
0.048103
30
0.0
11
0.000000
21
0.046416
31
0.0
0
LINE
8
TOP_HID
6
HIDDEN
10
0.000000
20
0.046416
30
0.0
11
0.000000
21
0.044730
31
0.0
0
LINE
8
TOP_HID
6
HIDDEN
10
0.000000
20
0.044730
30
0.0
11
0.000000
21
0.043043
31
0.0
0
LINE
8
TOP_HID
6
HIDDEN
10
0.000000
20
0.043043
30
0.0
11
0.000000
21
0.041356
31
0.0
0
LINE
8
TOP_HID
6
HIDDEN
10
0.000000
20
0.041356
30
0.0
11
0.000000
21
0.039670
31
0.0
0
LINE
8
TOP_HID
6
HIDDEN
10
0.000000
20
0.039670
30
0.0
11
0.000000
21
0.037983
31
0.0
0
LINE
8
TOP_HID
6
HIDDEN
10
0.000000
20
0.037983
30
0.0
11
0.000000
21
0.036297
31
0.0
0
LINE
8
TOP_HID
6
HIDDEN
10
0.000000
20
0.036297
30
0.0
11
0.000000
21
0.034610
31
0.0
0
LINE
8
TOP_HID
6
HIDDEN
10
0.000000
20
0.034610
30
0.0
11
0.000000
21
0.033767
31
0.0
0
LINE
8
TOP_HID
6
HIDDEN
10
0.000000
20
0.033767
30
0.0
11
0.000000
21
0.035453
31
0.0
0
LINE
8
TOP_HID
6
HIDDEN
10
0.000000
20
0.035453
30
0.0
11
0.000000
21
0.037140
31
0.0
0
LINE
8
TOP_HID
6
HIDDEN
10
0.000000
20
0.037140
30
0.0
11
0.000000
21
0.038826
31
0.0
0
LINE
8
TOP_HID
6
HIDDEN
10
0.000000
20
0.038826
30
0.0
11
0.000000
21
0.040513
31
0.0
0
LINE
8
TOP_HID
6
HIDDEN
10
0.000000
20
0.040513
30
0.0
11
0.000000
21
0.042200
31
0.0
0
LINE
8
TOP_HID
6
HIDDEN
10
0.000000
20
0.042200
30
0.0
11
0.000000
21
0.043886
31
0.0
0
LINE
8
TOP_HID
6
HIDDEN
10
0.000000
20
0.043886
30
0.0
11
0.000000
21
0.045573
31
0.0
0
LINE
8
TOP_HID
6
HIDDEN
10
0.000000
20
0.045573
30
0.0
11
0.000000
21
0.047260
31
0.0
0
LINE
8
TOP_HID
6
HIDDEN
10
0.000000
20
0.047260
30
0.0
11
0.000000
21
0.048946
31
0.0
0
LINE
8
TOP_HID
6
HIDDEN
10
0.000000
20
0.048946
30
0.0
11
0.000000
21
0.050633
31
0.0
0
LINE
8
TOP_HID
6
HIDDEN
10
0.000000
20
0.050633
30
0.0
11
0.000000
21
0.052319
31
0.0
0
LINE
8
TOP_HID
6
HIDDEN
10
0.000000
20
0.052319
30
0.0
11
0.000000
21
0.054006
31
0.0
0
LINE
8
TOP_HID
6
HIDDEN
10
0.000000
20
0.054006
30
0.0
11
0.000000
21
0.055693
31
0.0
0
LINE
8
TOP_HID
6
HIDDEN
10
0.000000
20
0.055693
30
0.0
11
0.000000
21
0.057379
31
0.0
0
LINE
8
TOP_HID
6
HIDDEN
10
0.000000
20
0.057379
30
0.0
11
0.000000
21
0.059066
31
0.0
0
LINE
8
TOP_HID
6
HIDDEN
10
0.000000
20
0.059066
30
0.0
11
0.000000
21
0.060752
31
0.0
0
LINE
8
TOP_HID
6
HIDDEN
10
0.000000
20
0.060752
30
0.0
11
0.000000
21
0.062439
31
0.0
0
LINE
8
TOP_HID
6
HIDDEN
10
0.000000
20
0.062439
30
0.0
11
0.000000
21
0.064126
31
0.0
0
LINE
8
TOP_HID
6
HIDDEN
10
0.000000
20
0.064126
30
0.0
11
0.000000
21
0.065812
31
0.0
0
LINE
8
TOP_HID
6
HIDDEN
10
0.000000
20
0.065812
30
0.0
11
0.000000
21
0.067499
31
0.0
0
LINE
8
TOP_HID
6
HIDDEN
10
0.000000
20
0.067499
30
0.0
11
0.000000
21
0.069186
31
0.0
0
LINE
8
TOP_HID
6
HIDDEN
10
0.000000
20
0.069186
30
0.0
11
0.000000
21
0.070872
31
0.0
0
LINE
8
TOP_HID
6
HIDDEN
10
0.000000
20
0.070872
30
0.0
11
0.000000
21
0.072559
31
0.0
0
LINE
8
TOP_HID
6
HIDDEN
10
0.000000
20
0.072559
30
0.0
11
0.000000
21
0.074245
31
0.0
0
LINE
8
TOP_HID
6
HIDDEN
10
0.000000
20
0.074245
30
0.0
11
0.000000
21
0.075932
31
0.0
0
LINE
8
TOP_HID
6
HIDDEN
10
0.000000
20
0.075932
30
0.0
11
0.000000
21
0.077619
31
0.0
0
LINE
8
TOP_HID
6
HIDDEN
10
0.000000
20
0.077619
30
0.0
11
0.000000
21
0.079305
31
0.0
0
LINE
8
TOP_HID
6
HIDDEN
10
0.000000
20
0.079305
30
0.0
11
0.000000
21
0.080992
31
0.0
0
LINE
8
TOP_HID
6
HIDDEN
10
0.000000
20
0.080992
30
0.0
11
0.000000
21
0.082678
31
0.0
0
LINE
8
TOP_HID
6
HIDDEN
10
0.000000
20
0.082678
30
0.0
11
0.000000
21
0.084365
31
0.0
0
LINE
8
TOP_HID
6
HIDDEN
10
0.000000
20
0.084365
30
0.0
11
0.000000
21
0.086052
31
0.0
0
LINE
8
TOP_HID
6
HIDDEN
10
0.000000
20
0.086052
30
0.0
11
0.000000
21
0.085208
31
0.0
0
LINE
8
TOP_HID
6
HIDDEN
10
0.000000
20
0.085208
30
0.0
11
0.000000
21
0.083522
31
0.0
0
LINE
8
TOP_HID
6
HIDDEN
10
0.000000
20
0.083522
30
0.0
11
0.000000
21
0.081835
31
0.0
0
LINE
8
TOP_HID
6
HIDDEN
10
0.000000
20
0.081835
30
0.0
11
0.000000
21
0.080149
31
0.0
0
LINE
8
TOP_HID
6
HIDDEN
10
0.000000
20
0.080149
30
0.0
11
0.000000
21
0.078462
31
0.0
0
LINE
8
TOP_HID
6
HIDDEN
10
0.000000
20
0.078462
30
0.0
11
0.000000
21
0.076775
31
0.0
0
LINE
8
TOP_HID
6
HIDDEN
10
0.000000
20
0.076775
30
0.0
11
0.000000
21
0.075089
31
0.0
0
LINE
8
TOP_HID
6
HIDDEN
10
0.000000
20
0.075089
30
0.0
11
0.000000
21
0.073402
31
0.0
0
LINE
8
TOP_HID
6
HIDDEN
10
0.000000
20
0.073402
30
0.0
11
0.000000
21
0.071715
31
0.0
0
LINE
8
TOP_HID
6
HIDDEN
10
0.000000
20
0.071715
30
0.0
11
0.000000
21
0.070029
31
0.0
0
LINE
8
TOP_HID
6
HIDDEN
10
0.000000
20
0.070029
30
0.0
11
0.000000
21
0.068342
31
0.0
0
LINE
8
TOP_HID
6
HIDDEN
10
0.000000
20
0.068342
30
0.0
11
0.000000
21
0.066656
31
0.0
0
LINE
8
TOP_HID
6
HIDDEN
10
0.000000
20
0.066656
30
0.0
11
0.000000
21
0.064969
31
0.0
0
LINE
8
TOP_HID
6
HIDDEN
10
0.000000
20
0.064969
30
0.0
11
0.000000
21
0.063282
31
0.0
0
LINE
8
TOP_HID
6
HIDDEN
10
0.000000
20
0.063282
30
0.0
11
0.000000
21
0.061596
31
0.0
0
LINE
8
TOP_HID
6
HIDDEN
10
0.000000
20
0.061596
30
0.0
11
0.000000
21
0.059909
31
0.0
0
LINE
8
TOP_HID
6
HIDDEN
10
0.957324
20
0.032618
30
0.0
11
0.957324
21
0.087200
31
0.0
0
ENDSEC
0
EOF
