0
SECTION
2
HEADER
9
$ACADVER
1
AC1009
0
ENDSEC
0
SECTION
2
TABLES
0
TABLE
2
LTYPE
70
3
0
LTYPE
2
CONTINUOUS
70
0
3
Solid line
72
65
73
0
40
0.0
0
LTYPE
2
HIDDEN
70
0
3
__ __ __ __ __
72
65
73
2
40
0.037500
49
0.025013
49
-0.012488
0
LTYPE
2
CENTER
70
0
3
___ _ ___ _ ___
72
65
73
4
40
0.087488
49
0.049988
49
-0.012488
49
0.012488
49
-0.012488
0
ENDTAB
0
TABLE
2
LAYER
70
5
0
LAYER
2
0
70
0
62
7
6
CONTINUOUS
0
LAYER
2
FRONT
70
0
62
7
6
CONTINUOUS
0
LAYER
2
LEFT
70
0
62
7
6
CONTINUOUS
0
LAYER
2
LEFT_HID
70
0
62
7
6
HIDDEN
0
LAYER
2
TOP
70
0
62
7
6
CONTINUOUS
0
ENDTAB
0
ENDSEC
0
SECTION
2
ENTITIES
0
LINE
8
FRONT
10
0.000000
20
0.918386
30
0.0
11
0.000091
21
0.916555
31
0.0
0
LINE
8
FRONT
10
0.000091
20
0.916555
30
0.0
11
0.000365
21
0.914742
31
0.0
0
LINE
8
FRONT
10
0.000365
20
0.914742
30
0.0
11
0.000817
21
0.912965
31
0.0
0
LINE
8
FRONT
10
0.000817
20
0.912965
30
0.0
11
0.001444
21
0.911242
31
0.0
0
LINE
8
FRONT
10
0.001444
20
0.911242
30
0.0
11
0.002240
21
0.909590
31
0.0
0
LINE
8
FRONT
10
0.002240
20
0.909590
30
0.0
11
0.003196
21
0.908025
31
0.0
0
LINE
8
FRONT
10
0.003196
20
0.908025
30
0.0
11
0.004303
21
0.906564
31
0.0
0
LINE
8
FRONT
10
0.004303
20
0.906564
30
0.0
11
0.005550
21
0.905220
31
0.0
0
LINE
8
FRONT
10
0.005550
20
0.905220
30
0.0
11
0.006925
21
0.904007
31
0.0
0
LINE
8
FRONT
10
0.006925
20
0.904007
30
0.0
11
0.008413
21
0.902936
31
0.0
0
LINE
8
FRONT
10
0.008413
20
0.902936
30
0.0
11
0.010001
21
0.902020
31
0.0
0
LINE
8
FRONT
10
0.010001
20
0.902020
30
0.0
11
0.011672
21
0.901266
31
0.0
0
LINE
8
FRONT
10
0.011672
20
0.901266
30
0.0
11
0.013410
21
0.900682
31
0.0
0
LINE
8
FRONT
10
0.013410
20
0.900682
30
0.0
11
0.015198
21
0.900274
31
0.0
0
LINE
8
FRONT
10
0.015198
20
0.900274
30
0.0
11
0.017017
21
0.900046
31
0.0
0
LINE
8
FRONT
10
0.017017
20
0.900046
30
0.0
11
0.018850
21
0.900000
31
0.0
0
LINE
8
FRONT
10
0.018850
20
0.900000
30
0.0
11
0.020678
21
0.900137
31
0.0
0
LINE
8
FRONT
10
0.020678
20
0.900137
30
0.0
11
0.022484
21
0.900455
31
0.0
0
LINE
8
FRONT
10
0.022484
20
0.900455
30
0.0
11
0.024249
21
0.900952
31
0.0
0
LINE
8
FRONT
10
0.024249
20
0.900952
30
0.0
11
0.025956
21
0.901622
31
0.0
0
LINE
8
FRONT
10
0.025956
20
0.901622
30
0.0
11
0.027587
21
0.902458
31
0.0
0
LINE
8
FRONT
10
0.027587
20
0.902458
30
0.0
11
0.029127
21
0.903453
31
0.0
0
LINE
8
FRONT
10
0.029127
20
0.903453
30
0.0
11
0.030561
21
0.904596
31
0.0
0
LINE
8
FRONT
10
0.030561
20
0.904596
30
0.0
11
0.031873
21
0.905876
31
0.0
0
LINE
8
FRONT
10
0.031873
20
0.905876
30
0.0
11
0.033052
21
0.907281
31
0.0
0
LINE
8
FRONT
10
0.033052
20
0.907281
30
0.0
11
0.034085
21
0.908796
31
0.0
0
LINE
8
FRONT
10
0.034085
20
0.908796
30
0.0
11
0.034962
21
0.910406
31
0.0
0
LINE
8
FRONT
10
0.034962
20
0.910406
30
0.0
11
0.035674
21
0.912096
31
0.0
0
LINE
8
FRONT
10
0.035674
20
0.912096
30
0.0
11
0.036214
21
0.913848
31
0.0
0
LINE
8
FRONT
10
0.036214
20
0.913848
30
0.0
11
0.036578
21
0.915645
31
0.0
0
LINE
8
FRONT
10
0.036578
20
0.915645
30
0.0
11
0.036760
21
0.917469
31
0.0
0
LINE
8
FRONT
10
0.036760
20
0.917469
30
0.0
11
0.036760
21
0.919303
31
0.0
0
LINE
8
FRONT
10
0.036760
20
0.919303
30
0.0
11
0.036578
21
0.921127
31
0.0
0
LINE
8
FRONT
10
0.036578
20
0.921127
30
0.0
11
0.036214
21
0.922924
31
0.0
0
LINE
8
FRONT
10
0.036214
20
0.922924
30
0.0
11
0.035674
21
0.924676
31
0.0
0
LINE
8
FRONT
10
0.035674
20
0.924676
30
0.0
11
0.034962
21
0.926366
31
0.0
0
LINE
8
FRONT
10
0.034962
20
0.926366
30
0.0
11
0.034085
21
0.927976
31
0.0
0
LINE
8
FRONT
10
0.034085
20
0.927976
30
0.0
11
0.033052
21
0.929491
31
0.0
0
LINE
8
FRONT
10
0.033052
20
0.929491
30
0.0
11
0.031873
21
0.930895
31
0.0
0
LINE
8
FRONT
10
0.031873
20
0.930895
30
0.0
11
0.030561
21
0.932175
31
0.0
0
LINE
8
FRONT
10
0.030561
20
0.932175
30
0.0
11
0.029127
21
0.933319
31
0.0
0
LINE
8
FRONT
10
0.029127
20
0.933319
30
0.0
11
0.027587
21
0.934313
31
0.0
0
LINE
8
FRONT
10
0.027587
20
0.934313
30
0.0
11
0.025956
21
0.935150
31
0.0
0
LINE
8
FRONT
10
0.025956
20
0.935150
30
0.0
11
0.024249
21
0.935820
31
0.0
0
LINE
8
FRONT
10
0.024249
20
0.935820
30
0.0
11
0.022484
21
0.936316
31
0.0
0
LINE
8
FRONT
10
0.022484
20
0.936316
30
0.0
11
0.020678
21
0.936635
31
0.0
0
LINE
8
FRONT
10
0.020678
20
0.936635
30
0.0
11
0.018850
21
0.936772
31
0.0
0
LINE
8
FRONT
10
0.018850
20
0.936772
30
0.0
11
0.017017
21
0.936726
31
0.0
0
LINE
8
FRONT
10
0.017017
20
0.936726
30
0.0
11
0.015198
21
0.936498
31
0.0
0
LINE
8
FRONT
10
0.015198
20
0.936498
30
0.0
11
0.013410
21
0.936090
31
0.0
0
LINE
8
FRONT
10
0.013410
20
0.936090
30
0.0
11
0.011672
21
0.935506
31
0.0
0
LINE
8
FRONT
10
0.011672
20
0.935506
30
0.0
11
0.010001
21
0.934752
31
0.0
0
LINE
8
FRONT
10
0.010001
20
0.934752
30
0.0
11
0.008413
21
0.933835
31
0.0
0
LINE
8
FRONT
10
0.008413
20
0.933835
30
0.0
11
0.006925
21
0.932765
31
0.0
0
LINE
8
FRONT
10
0.006925
20
0.932765
30
0.0
11
0.005550
21
0.931552
31
0.0
0
LINE
8
FRONT
10
0.005550
20
0.931552
30
0.0
11
0.004303
21
0.930208
31
0.0
0
LINE
8
FRONT
10
0.004303
20
0.930208
30
0.0
11
0.003196
21
0.928746
31
0.0
0
LINE
8
FRONT
10
0.003196
20
0.928746
30
0.0
11
0.002240
21
0.927182
31
0.0
0
LINE
8
FRONT
10
0.002240
20
0.927182
30
0.0
11
0.001444
21
0.925530
31
0.0
0
LINE
8
FRONT
10
0.001444
20
0.925530
30
0.0
11
0.000817
21
0.923807
31
0.0
0
LINE
8
FRONT
10
0.000817
20
0.923807
30
0.0
11
0.000365
21
0.922030
31
0.0
0
LINE
8
FRONT
10
0.000365
20
0.922030
30
0.0
11
0.000091
21
0.920217
31
0.0
0
LINE
8
FRONT
10
0.000091
20
0.920217
30
0.0
11
0.000000
21
0.918386
31
0.0
0
LINE
8
LEFT
10
0.186760
20
0.918391
30
0.0
11
0.186760
21
0.900000
31
0.0
0
LINE
8
LEFT
10
0.186760
20
0.936783
30
0.0
11
0.186760
21
0.918391
31
0.0
0
LINE
8
LEFT
10
0.936760
20
0.918391
30
0.0
11
0.936760
21
0.900000
31
0.0
0
LINE
8
LEFT
10
0.936760
20
0.936783
30
0.0
11
0.936760
21
0.918391
31
0.0
0
LINE
8
LEFT
10
0.936760
20
0.936783
30
0.0
11
0.186760
21
0.936783
31
0.0
0
LINE
8
LEFT
10
0.936760
20
0.900000
30
0.0
11
0.186760
21
0.900000
31
0.0
0
LINE
8
LEFT_HID
6
HIDDEN
10
0.186760
20
0.900000
30
0.0
11
0.186760
21
0.936783
31
0.0
0
LINE
8
LEFT_HID
6
HIDDEN
10
0.936760
20
0.900000
30
0.0
11
0.936760
21
0.936783
31
0.0
0
LINE
8
TOP
10
0.036783
20
0.750000
30
0.0
11
0.000000
21
0.750000
31
0.0
0
LINE
8
TOP
10
0.000000
20
0.750000
30
0.0
11
0.000000
21
0.000000
31
0.0
0
LINE
8
TOP
10
0.036783
20
0.000000
30
0.0
11
0.000000
21
0.000000
31
0.0
0
LINE
8
TOP
10
0.036783
20
0.000000
30
0.0
11
0.036783
21
0.750000
31
0.0
0
ENDSEC
0
EOF
