0
SECTION
2
HEADER
9
$ACADVER
1
AC1009
0
ENDSEC
0
SECTION
2
TABLES
0
TABLE
2
LTYPE
70
3
0
LTYPE
2
CONTINUOUS
70
0
3
Solid line
72
65
73
0
40
0.0
0
LTYPE
2
HIDDEN
70
0
3
__ __ __ __ __
72
65
73
2
40
0.075000
49
0.050025
49
-0.024975
0
LTYPE
2
CENTER
70
0
3
___ _ ___ _ ___
72
65
73
4
40
0.174975
49
0.099975
49
-0.024975
49
0.024975
49
-0.024975
0
ENDTAB
0
TABLE
2
LAYER
70
6
0
LAYER
2
0
70
0
62
7
6
CONTINUOUS
0
LAYER
2
FRONT
70
0
62
7
6
CONTINUOUS
0
LAYER
2
FRONT_HID
70
0
62
7
6
HIDDEN
0
LAYER
2
LEFT
70
0
62
7
6
CONTINUOUS
0
LAYER
2
LEFT_HID
70
0
62
7
6
HIDDEN
0
LAYER
2
TOP
70
0
62
7
6
CONTINUOUS
0
ENDTAB
0
ENDSEC
0
SECTION
2
ENTITIES
0
LINE
8
FRONT
10
1.500000
20
1.800000
30
0.0
11
1.500000
21
1.831250
31
0.0
0
LINE
8
FRONT
10
1.500000
20
1.831250
30
0.0
11
0.000000
21
1.831250
31
0.0
0
LINE
8
FRONT
10
0.000000
20
1.800000
30
0.0
11
0.000000
21
1.831250
31
0.0
0
LINE
8
FRONT
10
1.500000
20
1.800000
30
0.0
11
0.000000
21
1.800000
31
0.0
0
LINE
8
FRONT_HID
6
HIDDEN
10
0.358973
20
1.800000
30
0.0
11
0.358973
21
1.831250
31
0.0
0
LINE
8
FRONT_HID
6
HIDDEN
10
0.358973
20
1.831250
30
0.0
11
0.652470
21
1.831250
31
0.0
0
LINE
8
FRONT_HID
6
HIDDEN
10
0.652470
20
1.800000
30
0.0
11
0.652470
21
1.831250
31
0.0
0
LINE
8
FRONT_HID
6
HIDDEN
10
0.358973
20
1.800000
30
0.0
11
0.652470
21
1.800000
31
0.0
0
LINE
8
FRONT_HID
6
HIDDEN
10
0.652470
20
1.831250
30
0.0
11
0.383431
21
1.831250
31
0.0
0
LINE
8
FRONT_HID
6
HIDDEN
10
0.383431
20
1.800000
30
0.0
11
0.383431
21
1.831250
31
0.0
0
LINE
8
FRONT_HID
6
HIDDEN
10
0.652470
20
1.800000
30
0.0
11
0.383431
21
1.800000
31
0.0
0
LINE
8
FRONT_HID
6
HIDDEN
10
0.383431
20
1.831250
30
0.0
11
0.358973
21
1.831250
31
0.0
0
LINE
8
FRONT_HID
6
HIDDEN
10
0.383431
20
1.800000
30
0.0
11
0.358973
21
1.800000
31
0.0
0
LINE
8
FRONT_HID
6
HIDDEN
10
0.375707
20
1.800000
30
0.0
11
0.375707
21
1.831250
31
0.0
0
LINE
8
FRONT_HID
6
HIDDEN
10
0.375707
20
1.831250
30
0.0
11
0.472070
21
1.831250
31
0.0
0
LINE
8
FRONT_HID
6
HIDDEN
10
0.472070
20
1.800000
30
0.0
11
0.472070
21
1.831250
31
0.0
0
LINE
8
FRONT_HID
6
HIDDEN
10
0.375707
20
1.800000
30
0.0
11
0.472070
21
1.800000
31
0.0
0
LINE
8
FRONT_HID
6
HIDDEN
10
0.472070
20
1.831250
30
0.0
11
0.553783
21
1.831250
31
0.0
0
LINE
8
FRONT_HID
6
HIDDEN
10
0.553783
20
1.800000
30
0.0
11
0.553783
21
1.831250
31
0.0
0
LINE
8
FRONT_HID
6
HIDDEN
10
0.472070
20
1.800000
30
0.0
11
0.553783
21
1.800000
31
0.0
0
LINE
8
FRONT_HID
6
HIDDEN
10
0.553783
20
1.831250
30
0.0
11
0.629100
21
1.831250
31
0.0
0
LINE
8
FRONT_HID
6
HIDDEN
10
0.629100
20
1.800000
30
0.0
11
0.629100
21
1.831250
31
0.0
0
LINE
8
FRONT_HID
6
HIDDEN
10
0.553783
20
1.800000
30
0.0
11
0.629100
21
1.800000
31
0.0
0
LINE
8
FRONT_HID
6
HIDDEN
10
0.629100
20
1.831250
30
0.0
11
0.750000
21
1.831250
31
0.0
0
LINE
8
FRONT_HID
6
HIDDEN
10
0.750000
20
1.800000
30
0.0
11
0.750000
21
1.831250
31
0.0
0
LINE
8
FRONT_HID
6
HIDDEN
10
0.629100
20
1.800000
30
0.0
11
0.750000
21
1.800000
31
0.0
0
LINE
8
FRONT_HID
6
HIDDEN
10
0.750000
20
1.831250
30
0.0
11
0.996072
21
1.831250
31
0.0
0
LINE
8
FRONT_HID
6
HIDDEN
10
0.996072
20
1.800000
30
0.0
11
0.996072
21
1.831250
31
0.0
0
LINE
8
FRONT_HID
6
HIDDEN
10
0.750000
20
1.800000
30
0.0
11
0.996072
21
1.800000
31
0.0
0
LINE
8
FRONT_HID
6
HIDDEN
10
0.996072
20
1.831250
30
0.0
11
1.183564
21
1.831250
31
0.0
0
LINE
8
FRONT_HID
6
HIDDEN
10
1.183564
20
1.800000
30
0.0
11
1.183564
21
1.831250
31
0.0
0
LINE
8
FRONT_HID
6
HIDDEN
10
0.996072
20
1.800000
30
0.0
11
1.183564
21
1.800000
31
0.0
0
LINE
8
FRONT_HID
6
HIDDEN
10
1.183564
20
1.831250
30
0.0
11
1.129859
21
1.831250
31
0.0
0
LINE
8
FRONT_HID
6
HIDDEN
10
1.129859
20
1.800000
30
0.0
11
1.129859
21
1.831250
31
0.0
0
LINE
8
FRONT_HID
6
HIDDEN
10
1.183564
20
1.800000
30
0.0
11
1.129859
21
1.800000
31
0.0
0
LINE
8
FRONT_HID
6
HIDDEN
10
1.129859
20
1.831250
30
0.0
11
0.980503
21
1.831250
31
0.0
0
LINE
8
FRONT_HID
6
HIDDEN
10
0.980503
20
1.800000
30
0.0
11
0.980503
21
1.831250
31
0.0
0
LINE
8
FRONT_HID
6
HIDDEN
10
1.129859
20
1.800000
30
0.0
11
0.980503
21
1.800000
31
0.0
0
LINE
8
FRONT_HID
6
HIDDEN
10
0.980503
20
1.831250
30
0.0
11
0.910141
21
1.831250
31
0.0
0
LINE
8
FRONT_HID
6
HIDDEN
10
0.910141
20
1.800000
30
0.0
11
0.910141
21
1.831250
31
0.0
0
LINE
8
FRONT_HID
6
HIDDEN
10
0.980503
20
1.800000
30
0.0
11
0.910141
21
1.800000
31
0.0
0
LINE
8
FRONT_HID
6
HIDDEN
10
0.910141
20
1.831250
30
0.0
11
0.750000
21
1.831250
31
0.0
0
LINE
8
FRONT_HID
6
HIDDEN
10
0.750000
20
1.800000
30
0.0
11
0.750000
21
1.831250
31
0.0
0
LINE
8
FRONT_HID
6
HIDDEN
10
0.910141
20
1.800000
30
0.0
11
0.750000
21
1.800000
31
0.0
0
LINE
8
FRONT_HID
6
HIDDEN
10
0.750000
20
1.831250
30
0.0
11
0.615580
21
1.831250
31
0.0
0
LINE
8
FRONT_HID
6
HIDDEN
10
0.615580
20
1.800000
30
0.0
11
0.615580
21
1.831250
31
0.0
0
LINE
8
FRONT_HID
6
HIDDEN
10
0.750000
20
1.800000
30
0.0
11
0.615580
21
1.800000
31
0.0
0
LINE
8
FRONT_HID
6
HIDDEN
10
0.615580
20
1.831250
30
0.0
11
0.508913
21
1.831250
31
0.0
0
LINE
8
FRONT_HID
6
HIDDEN
10
0.508913
20
1.800000
30
0.0
11
0.508913
21
1.831250
31
0.0
0
LINE
8
FRONT_HID
6
HIDDEN
10
0.615580
20
1.800000
30
0.0
11
0.508913
21
1.800000
31
0.0
0
LINE
8
FRONT_HID
6
HIDDEN
10
0.508913
20
1.831250
30
0.0
11
0.419173
21
1.831250
31
0.0
0
LINE
8
FRONT_HID
6
HIDDEN
10
0.419173
20
1.800000
30
0.0
11
0.419173
21
1.831250
31
0.0
0
LINE
8
FRONT_HID
6
HIDDEN
10
0.508913
20
1.800000
30
0.0
11
0.419173
21
1.800000
31
0.0
0
LINE
8
FRONT_HID
6
HIDDEN
10
0.419173
20
1.831250
30
0.0
11
0.375707
21
1.831250
31
0.0
0
LINE
8
FRONT_HID
6
HIDDEN
10
0.419173
20
1.800000
30
0.0
11
0.375707
21
1.800000
31
0.0
0
LINE
8
FRONT_HID
6
HIDDEN
10
0.847530
20
1.800000
30
0.0
11
0.847530
21
1.831250
31
0.0
0
LINE
8
FRONT_HID
6
HIDDEN
10
0.847530
20
1.831250
30
0.0
11
1.141027
21
1.831250
31
0.0
0
LINE
8
FRONT_HID
6
HIDDEN
10
1.141027
20
1.800000
30
0.0
11
1.141027
21
1.831250
31
0.0
0
LINE
8
FRONT_HID
6
HIDDEN
10
0.847530
20
1.800000
30
0.0
11
1.141027
21
1.800000
31
0.0
0
LINE
8
FRONT_HID
6
HIDDEN
10
1.141027
20
1.831250
30
0.0
11
1.116569
21
1.831250
31
0.0
0
LINE
8
FRONT_HID
6
HIDDEN
10
1.116569
20
1.800000
30
0.0
11
1.116569
21
1.831250
31
0.0
0
LINE
8
FRONT_HID
6
HIDDEN
10
1.141027
20
1.800000
30
0.0
11
1.116569
21
1.800000
31
0.0
0
LINE
8
FRONT_HID
6
HIDDEN
10
1.116569
20
1.831250
30
0.0
11
0.847530
21
1.831250
31
0.0
0
LINE
8
FRONT_HID
6
HIDDEN
10
1.116569
20
1.800000
30
0.0
11
0.847530
21
1.800000
31
0.0
0
LINE
8
LEFT
10
3.300000
20
1.800000
30
0.0
11
3.300000
21
1.831250
31
0.0
0
LINE
8
LEFT
10
1.800000
20
1.800000
30
0.0
11
1.800000
21
1.831250
31
0.0
0
LINE
8
LEFT
10
1.800000
20
1.831250
30
0.0
11
3.300000
21
1.831250
31
0.0
0
LINE
8
LEFT
10
1.800000
20
1.800000
30
0.0
11
3.300000
21
1.800000
31
0.0
0
LINE
8
LEFT_HID
6
HIDDEN
10
2.197810
20
1.800000
30
0.0
11
2.197810
21
1.831250
31
0.0
0
LINE
8
LEFT_HID
6
HIDDEN
10
2.197810
20
1.831250
30
0.0
11
2.266292
21
1.831250
31
0.0
0
LINE
8
LEFT_HID
6
HIDDEN
10
2.266292
20
1.800000
30
0.0
11
2.266292
21
1.831250
31
0.0
0
LINE
8
LEFT_HID
6
HIDDEN
10
2.197810
20
1.800000
30
0.0
11
2.266292
21
1.800000
31
0.0
0
LINE
8
LEFT_HID
6
HIDDEN
10
2.266292
20
1.831250
30
0.0
11
2.140741
21
1.831250
31
0.0
0
LINE
8
LEFT_HID
6
HIDDEN
10
2.140741
20
1.800000
30
0.0
11
2.140741
21
1.831250
31
0.0
0
LINE
8
LEFT_HID
6
HIDDEN
10
2.266292
20
1.800000
30
0.0
11
2.140741
21
1.800000
31
0.0
0
LINE
8
LEFT_HID
6
HIDDEN
10
2.140741
20
1.831250
30
0.0
11
2.197810
21
1.831250
31
0.0
0
LINE
8
LEFT_HID
6
HIDDEN
10
2.140741
20
1.800000
30
0.0
11
2.197810
21
1.800000
31
0.0
0
LINE
8
LEFT_HID
6
HIDDEN
10
2.911144
20
1.800000
30
0.0
11
2.911144
21
1.831250
31
0.0
0
LINE
8
LEFT_HID
6
HIDDEN
10
2.911144
20
1.831250
30
0.0
11
3.036211
21
1.831250
31
0.0
0
LINE
8
LEFT_HID
6
HIDDEN
10
3.036211
20
1.800000
30
0.0
11
3.036211
21
1.831250
31
0.0
0
LINE
8
LEFT_HID
6
HIDDEN
10
2.911144
20
1.800000
30
0.0
11
3.036211
21
1.800000
31
0.0
0
LINE
8
LEFT_HID
6
HIDDEN
10
3.036211
20
1.831250
30
0.0
11
2.973252
21
1.831250
31
0.0
0
LINE
8
LEFT_HID
6
HIDDEN
10
2.973252
20
1.800000
30
0.0
11
2.973252
21
1.831250
31
0.0
0
LINE
8
LEFT_HID
6
HIDDEN
10
3.036211
20
1.800000
30
0.0
11
2.973252
21
1.800000
31
0.0
0
LINE
8
LEFT_HID
6
HIDDEN
10
2.973252
20
1.831250
30
0.0
11
3.071005
21
1.831250
31
0.0
0
LINE
8
LEFT_HID
6
HIDDEN
10
3.071005
20
1.800000
30
0.0
11
3.071005
21
1.831250
31
0.0
0
LINE
8
LEFT_HID
6
HIDDEN
10
2.973252
20
1.800000
30
0.0
11
3.071005
21
1.800000
31
0.0
0
LINE
8
LEFT_HID
6
HIDDEN
10
3.071005
20
1.800000
30
0.0
11
3.071005
21
1.831250
31
0.0
0
LINE
8
LEFT_HID
6
HIDDEN
10
3.071005
20
1.831250
30
0.0
11
2.970047
21
1.831250
31
0.0
0
LINE
8
LEFT_HID
6
HIDDEN
10
2.970047
20
1.800000
30
0.0
11
2.970047
21
1.831250
31
0.0
0
LINE
8
LEFT_HID
6
HIDDEN
10
3.071005
20
1.800000
30
0.0
11
2.970047
21
1.800000
31
0.0
0
LINE
8
LEFT_HID
6
HIDDEN
10
2.970047
20
1.831250
30
0.0
11
3.035750
21
1.831250
31
0.0
0
LINE
8
LEFT_HID
6
HIDDEN
10
3.035750
20
1.800000
30
0.0
11
3.035750
21
1.831250
31
0.0
0
LINE
8
LEFT_HID
6
HIDDEN
10
2.970047
20
1.800000
30
0.0
11
3.035750
21
1.800000
31
0.0
0
LINE
8
LEFT_HID
6
HIDDEN
10
3.035750
20
1.831250
30
0.0
11
2.795864
21
1.831250
31
0.0
0
LINE
8
LEFT_HID
6
HIDDEN
10
2.795864
20
1.800000
30
0.0
11
2.795864
21
1.831250
31
0.0
0
LINE
8
LEFT_HID
6
HIDDEN
10
3.035750
20
1.800000
30
0.0
11
2.795864
21
1.800000
31
0.0
0
LINE
8
LEFT_HID
6
HIDDEN
10
2.795864
20
1.831250
30
0.0
11
2.918863
21
1.831250
31
0.0
0
LINE
8
LEFT_HID
6
HIDDEN
10
2.918863
20
1.800000
30
0.0
11
2.918863
21
1.831250
31
0.0
0
LINE
8
LEFT_HID
6
HIDDEN
10
2.795864
20
1.800000
30
0.0
11
2.918863
21
1.800000
31
0.0
0
LINE
8
LEFT_HID
6
HIDDEN
10
2.918863
20
1.831250
30
0.0
11
2.833423
21
1.831250
31
0.0
0
LINE
8
LEFT_HID
6
HIDDEN
10
2.833423
20
1.800000
30
0.0
11
2.833423
21
1.831250
31
0.0
0
LINE
8
LEFT_HID
6
HIDDEN
10
2.918863
20
1.800000
30
0.0
11
2.833423
21
1.800000
31
0.0
0
LINE
8
LEFT_HID
6
HIDDEN
10
2.833423
20
1.831250
30
0.0
11
2.965303
21
1.831250
31
0.0
0
LINE
8
LEFT_HID
6
HIDDEN
10
2.965303
20
1.800000
30
0.0
11
2.965303
21
1.831250
31
0.0
0
LINE
8
LEFT_HID
6
HIDDEN
10
2.833423
20
1.800000
30
0.0
11
2.965303
21
1.800000
31
0.0
0
LINE
8
LEFT_HID
6
HIDDEN
10
2.965303
20
1.831250
30
0.0
11
2.802079
21
1.831250
31
0.0
0
LINE
8
LEFT_HID
6
HIDDEN
10
2.802079
20
1.800000
30
0.0
11
2.802079
21
1.831250
31
0.0
0
LINE
8
LEFT_HID
6
HIDDEN
10
2.965303
20
1.800000
30
0.0
11
2.802079
21
1.800000
31
0.0
0
LINE
8
LEFT_HID
6
HIDDEN
10
2.802079
20
1.831250
30
0.0
11
2.889922
21
1.831250
31
0.0
0
LINE
8
LEFT_HID
6
HIDDEN
10
2.889922
20
1.800000
30
0.0
11
2.889922
21
1.831250
31
0.0
0
LINE
8
LEFT_HID
6
HIDDEN
10
2.802079
20
1.800000
30
0.0
11
2.889922
21
1.800000
31
0.0
0
LINE
8
LEFT_HID
6
HIDDEN
10
2.889922
20
1.831250
30
0.0
11
2.780952
21
1.831250
31
0.0
0
LINE
8
LEFT_HID
6
HIDDEN
10
2.780952
20
1.800000
30
0.0
11
2.780952
21
1.831250
31
0.0
0
LINE
8
LEFT_HID
6
HIDDEN
10
2.889922
20
1.800000
30
0.0
11
2.780952
21
1.800000
31
0.0
0
LINE
8
LEFT_HID
6
HIDDEN
10
2.780952
20
1.831250
30
0.0
11
2.911144
21
1.831250
31
0.0
0
LINE
8
LEFT_HID
6
HIDDEN
10
2.780952
20
1.800000
30
0.0
11
2.911144
21
1.800000
31
0.0
0
LINE
8
LEFT_HID
6
HIDDEN
10
2.266292
20
1.800000
30
0.0
11
2.266292
21
1.831250
31
0.0
0
LINE
8
LEFT_HID
6
HIDDEN
10
2.266292
20
1.831250
30
0.0
11
2.197810
21
1.831250
31
0.0
0
LINE
8
LEFT_HID
6
HIDDEN
10
2.197810
20
1.800000
30
0.0
11
2.197810
21
1.831250
31
0.0
0
LINE
8
LEFT_HID
6
HIDDEN
10
2.266292
20
1.800000
30
0.0
11
2.197810
21
1.800000
31
0.0
0
LINE
8
LEFT_HID
6
HIDDEN
10
2.197810
20
1.831250
30
0.0
11
2.140741
21
1.831250
31
0.0
0
LINE
8
LEFT_HID
6
HIDDEN
10
2.140741
20
1.800000
30
0.0
11
2.140741
21
1.831250
31
0.0
0
LINE
8
LEFT_HID
6
HIDDEN
10
2.197810
20
1.800000
30
0.0
11
2.140741
21
1.800000
31
0.0
0
LINE
8
LEFT_HID
6
HIDDEN
10
2.140741
20
1.831250
30
0.0
11
2.266292
21
1.831250
31
0.0
0
LINE
8
LEFT_HID
6
HIDDEN
10
2.140741
20
1.800000
30
0.0
11
2.266292
21
1.800000
31
0.0
0
LINE
8
TOP
10
0.000000
20
0.000000
30
0.0
11
1.500000
21
0.000000
31
0.0
0
LINE
8
TOP
10
1.500000
20
0.000000
30
0.0
11
1.500000
21
1.500000
31
0.0
0
LINE
8
TOP
10
1.500000
20
1.500000
30
0.0
11
0.000000
21
1.500000
31
0.0
0
LINE
8
TOP
10
0.000000
20
1.500000
30
0.0
11
0.000000
21
0.000000
31
0.0
0
LINE
8
TOP
10
0.358973
20
1.102190
30
0.0
11
0.652470
21
1.033708
31
0.0
0
LINE
8
TOP
10
0.652470
20
1.033708
30
0.0
11
0.383431
21
1.159259
31
0.0
0
LINE
8
TOP
10
0.383431
20
1.159259
30
0.0
11
0.358973
21
1.102190
31
0.0
0
LINE
8
TOP
10
0.375707
20
0.388856
30
0.0
11
0.472070
21
0.263789
31
0.0
0
LINE
8
TOP
10
0.472070
20
0.263789
30
0.0
11
0.553783
21
0.326748
31
0.0
0
LINE
8
TOP
10
0.553783
20
0.326748
30
0.0
11
0.629100
21
0.228995
31
0.0
0
LINE
8
TOP
10
0.629100
20
0.228995
30
0.0
11
0.750000
21
0.228995
31
0.0
0
LINE
8
TOP
10
0.750000
20
0.228995
30
0.0
11
0.996072
21
0.329953
31
0.0
0
LINE
8
TOP
10
0.996072
20
0.329953
30
0.0
11
1.183564
21
0.264250
31
0.0
0
LINE
8
TOP
10
1.183564
20
0.264250
30
0.0
11
1.129859
21
0.504136
31
0.0
0
LINE
8
TOP
10
1.129859
20
0.504136
30
0.0
11
0.980503
21
0.381137
31
0.0
0
LINE
8
TOP
10
0.980503
20
0.381137
30
0.0
11
0.910141
21
0.466577
31
0.0
0
LINE
8
TOP
10
0.910141
20
0.466577
30
0.0
11
0.750000
21
0.334697
31
0.0
0
LINE
8
TOP
10
0.750000
20
0.334697
30
0.0
11
0.615580
21
0.497921
31
0.0
0
LINE
8
TOP
10
0.615580
20
0.497921
30
0.0
11
0.508913
21
0.410078
31
0.0
0
LINE
8
TOP
10
0.508913
20
0.410078
30
0.0
11
0.419173
21
0.519048
31
0.0
0
LINE
8
TOP
10
0.419173
20
0.519048
30
0.0
11
0.375707
21
0.388856
31
0.0
0
LINE
8
TOP
10
0.847530
20
1.033708
30
0.0
11
1.141027
21
1.102190
31
0.0
0
LINE
8
TOP
10
1.141027
20
1.102190
30
0.0
11
1.116569
21
1.159259
31
0.0
0
LINE
8
TOP
10
1.116569
20
1.159259
30
0.0
11
0.847530
21
1.033708
31
0.0
0
ENDSEC
0
EOF
