0
SECTION
2
HEADER
9
$ACADVER
1
AC1009
0
ENDSEC
0
SECTION
2
TABLES
0
TABLE
2
LTYPE
70
3
0
LTYPE
2
CONTINUOUS
70
0
3
Solid line
72
65
73
0
40
0.0
0
LTYPE
2
HIDDEN
70
0
3
__ __ __ __ __
72
65
73
2
40
0.066762
49
0.044530
49
-0.022232
0
LTYPE
2
CENTER
70
0
3
___ _ ___ _ ___
72
65
73
4
40
0.155756
49
0.088994
49
-0.022232
49
0.022232
49
-0.022232
0
ENDTAB
0
TABLE
2
LAYER
70
6
0
LAYER
2
0
70
0
62
7
6
CONTINUOUS
0
LAYER
2
FRONT
70
0
62
7
6
CONTINUOUS
0
LAYER
2
FRONT_HID
70
0
62
7
6
HIDDEN
0
LAYER
2
LEFT
70
0
62
7
6
CONTINUOUS
0
LAYER
2
LEFT_HID
70
0
62
7
6
HIDDEN
0
LAYER
2
TOP
70
0
62
7
6
CONTINUOUS
0
ENDTAB
0
ENDSEC
0
SECTION
2
ENTITIES
0
LINE
8
FRONT
10
1.335243
20
1.335243
30
0.0
11
1.335243
21
1.415357
31
0.0
0
LINE
8
FRONT
10
1.335243
20
1.415357
30
0.0
11
0.267049
21
1.415357
31
0.0
0
LINE
8
FRONT
10
1.335243
20
1.335243
30
0.0
11
0.267049
21
1.335243
31
0.0
0
LINE
8
FRONT
10
0.267049
20
1.415357
30
0.0
11
0.000000
21
1.415357
31
0.0
0
LINE
8
FRONT
10
0.000000
20
1.335243
30
0.0
11
0.000000
21
1.415357
31
0.0
0
LINE
8
FRONT
10
0.267049
20
1.335243
30
0.0
11
0.000000
21
1.335243
31
0.0
0
LINE
8
FRONT_HID
6
HIDDEN
10
0.000000
20
1.415357
30
0.0
11
1.335243
21
1.415357
31
0.0
0
LINE
8
FRONT_HID
6
HIDDEN
10
0.000000
20
1.335243
30
0.0
11
1.335243
21
1.335243
31
0.0
0
LINE
8
FRONT_HID
6
HIDDEN
10
0.309776
20
1.335243
30
0.0
11
0.224321
21
1.335243
31
0.0
0
LINE
8
FRONT_HID
6
HIDDEN
10
0.224321
20
1.335243
30
0.0
11
0.309776
21
1.335243
31
0.0
0
LINE
8
FRONT_HID
6
HIDDEN
10
0.309776
20
1.335243
30
0.0
11
0.309776
21
1.415357
31
0.0
0
LINE
8
FRONT_HID
6
HIDDEN
10
0.309776
20
1.415357
30
0.0
11
0.224321
21
1.415357
31
0.0
0
LINE
8
FRONT_HID
6
HIDDEN
10
0.224321
20
1.415357
30
0.0
11
0.309776
21
1.415357
31
0.0
0
LINE
8
FRONT_HID
6
HIDDEN
10
0.309776
20
1.335243
30
0.0
11
0.224321
21
1.335243
31
0.0
0
LINE
8
FRONT_HID
6
HIDDEN
10
0.224321
20
1.335243
30
0.0
11
0.309776
21
1.335243
31
0.0
0
LINE
8
FRONT_HID
6
HIDDEN
10
0.309776
20
1.335243
30
0.0
11
0.309776
21
1.415357
31
0.0
0
LINE
8
FRONT_HID
6
HIDDEN
10
0.309776
20
1.415357
30
0.0
11
0.224321
21
1.415357
31
0.0
0
LINE
8
FRONT_HID
6
HIDDEN
10
0.224321
20
1.415357
30
0.0
11
0.309776
21
1.415357
31
0.0
0
LINE
8
FRONT_HID
6
HIDDEN
10
0.827850
20
1.335243
30
0.0
11
0.827850
21
1.415357
31
0.0
0
LINE
8
FRONT_HID
6
HIDDEN
10
0.827850
20
1.415357
30
0.0
11
1.175014
21
1.415357
31
0.0
0
LINE
8
FRONT_HID
6
HIDDEN
10
1.175014
20
1.335243
30
0.0
11
1.175014
21
1.415357
31
0.0
0
LINE
8
FRONT_HID
6
HIDDEN
10
0.827850
20
1.335243
30
0.0
11
1.175014
21
1.335243
31
0.0
0
LINE
8
FRONT_HID
6
HIDDEN
10
1.175014
20
1.335243
30
0.0
11
1.175014
21
1.415357
31
0.0
0
LINE
8
FRONT_HID
6
HIDDEN
10
1.175014
20
1.415357
30
0.0
11
0.827850
21
1.415357
31
0.0
0
LINE
8
FRONT_HID
6
HIDDEN
10
0.827850
20
1.335243
30
0.0
11
0.827850
21
1.415357
31
0.0
0
LINE
8
FRONT_HID
6
HIDDEN
10
1.175014
20
1.335243
30
0.0
11
0.827850
21
1.335243
31
0.0
0
LINE
8
FRONT_HID
6
HIDDEN
10
0.224321
20
1.415357
30
0.0
11
0.224321
21
1.335243
31
0.0
0
LINE
8
FRONT_HID
6
HIDDEN
10
0.224321
20
1.415357
30
0.0
11
0.224321
21
1.335243
31
0.0
0
LINE
8
LEFT
10
2.670485
20
1.335243
30
0.0
11
2.670485
21
1.415357
31
0.0
0
LINE
8
LEFT
10
1.602291
20
1.335243
30
0.0
11
1.602291
21
1.415357
31
0.0
0
LINE
8
LEFT
10
1.602291
20
1.415357
30
0.0
11
1.869340
21
1.415357
31
0.0
0
LINE
8
LEFT
10
1.602291
20
1.335243
30
0.0
11
1.869340
21
1.335243
31
0.0
0
LINE
8
LEFT
10
1.869340
20
1.415357
30
0.0
11
2.670485
21
1.415357
31
0.0
0
LINE
8
LEFT
10
1.869340
20
1.335243
30
0.0
11
2.670485
21
1.335243
31
0.0
0
LINE
8
LEFT_HID
6
HIDDEN
10
2.670485
20
1.415357
30
0.0
11
1.602291
21
1.415357
31
0.0
0
LINE
8
LEFT_HID
6
HIDDEN
10
2.670485
20
1.335243
30
0.0
11
1.602291
21
1.335243
31
0.0
0
LINE
8
LEFT_HID
6
HIDDEN
10
2.403437
20
1.335243
30
0.0
11
2.360709
21
1.335243
31
0.0
0
LINE
8
LEFT_HID
6
HIDDEN
10
2.360709
20
1.335243
30
0.0
11
2.446165
21
1.335243
31
0.0
0
LINE
8
LEFT_HID
6
HIDDEN
10
2.446165
20
1.335243
30
0.0
11
2.403437
21
1.335243
31
0.0
0
LINE
8
LEFT_HID
6
HIDDEN
10
2.403437
20
1.415357
30
0.0
11
2.360709
21
1.415357
31
0.0
0
LINE
8
LEFT_HID
6
HIDDEN
10
2.360709
20
1.415357
30
0.0
11
2.446165
21
1.415357
31
0.0
0
LINE
8
LEFT_HID
6
HIDDEN
10
2.446165
20
1.415357
30
0.0
11
2.403437
21
1.415357
31
0.0
0
LINE
8
LEFT_HID
6
HIDDEN
10
1.869340
20
1.335243
30
0.0
11
1.826612
21
1.335243
31
0.0
0
LINE
8
LEFT_HID
6
HIDDEN
10
1.826612
20
1.335243
30
0.0
11
1.912068
21
1.335243
31
0.0
0
LINE
8
LEFT_HID
6
HIDDEN
10
1.912068
20
1.335243
30
0.0
11
1.869340
21
1.335243
31
0.0
0
LINE
8
LEFT_HID
6
HIDDEN
10
1.869340
20
1.415357
30
0.0
11
1.826612
21
1.415357
31
0.0
0
LINE
8
LEFT_HID
6
HIDDEN
10
1.826612
20
1.415357
30
0.0
11
1.912068
21
1.415357
31
0.0
0
LINE
8
LEFT_HID
6
HIDDEN
10
1.912068
20
1.415357
30
0.0
11
1.869340
21
1.415357
31
0.0
0
LINE
8
LEFT_HID
6
HIDDEN
10
2.403437
20
1.335243
30
0.0
11
2.403437
21
1.415357
31
0.0
0
LINE
8
LEFT_HID
6
HIDDEN
10
2.403437
20
1.335243
30
0.0
11
2.403437
21
1.415357
31
0.0
0
LINE
8
LEFT_HID
6
HIDDEN
10
2.403437
20
1.415357
30
0.0
11
1.869340
21
1.415357
31
0.0
0
LINE
8
LEFT_HID
6
HIDDEN
10
1.869340
20
1.335243
30
0.0
11
1.869340
21
1.415357
31
0.0
0
LINE
8
LEFT_HID
6
HIDDEN
10
2.403437
20
1.335243
30
0.0
11
1.869340
21
1.335243
31
0.0
0
LINE
8
LEFT_HID
6
HIDDEN
10
1.869340
20
1.335243
30
0.0
11
1.869340
21
1.415357
31
0.0
0
LINE
8
LEFT_HID
6
HIDDEN
10
1.869340
20
1.415357
30
0.0
11
2.403437
21
1.415357
31
0.0
0
LINE
8
LEFT_HID
6
HIDDEN
10
1.869340
20
1.335243
30
0.0
11
2.403437
21
1.335243
31
0.0
0
LINE
8
LEFT_HID
6
HIDDEN
10
2.360709
20
1.415357
30
0.0
11
2.360709
21
1.335243
31
0.0
0
LINE
8
LEFT_HID
6
HIDDEN
10
2.446165
20
1.415357
30
0.0
11
2.446165
21
1.335243
31
0.0
0
LINE
8
LEFT_HID
6
HIDDEN
10
1.826612
20
1.415357
30
0.0
11
1.826612
21
1.335243
31
0.0
0
LINE
8
LEFT_HID
6
HIDDEN
10
1.912068
20
1.415357
30
0.0
11
1.912068
21
1.335243
31
0.0
0
LINE
8
TOP
10
0.000000
20
0.000000
30
0.0
11
1.335243
21
0.000000
31
0.0
0
LINE
8
TOP
10
1.335243
20
0.000000
30
0.0
11
1.335243
21
1.068194
31
0.0
0
LINE
8
TOP
10
1.335243
20
1.068194
30
0.0
11
0.267049
21
1.068194
31
0.0
0
LINE
8
TOP
10
0.267049
20
1.068194
30
0.0
11
0.000000
21
1.068194
31
0.0
0
LINE
8
TOP
10
0.000000
20
1.068194
30
0.0
11
0.000000
21
0.801146
31
0.0
0
LINE
8
TOP
10
0.000000
20
0.801146
30
0.0
11
0.000000
21
0.000000
31
0.0
0
LINE
8
TOP
10
0.309776
20
0.267049
30
0.0
11
0.309564
21
0.271303
31
0.0
0
LINE
8
TOP
10
0.309564
20
0.271303
30
0.0
11
0.308929
21
0.275515
31
0.0
0
LINE
8
TOP
10
0.308929
20
0.275515
30
0.0
11
0.307878
21
0.279643
31
0.0
0
LINE
8
TOP
10
0.307878
20
0.279643
30
0.0
11
0.306421
21
0.283645
31
0.0
0
LINE
8
TOP
10
0.306421
20
0.283645
30
0.0
11
0.304573
21
0.287483
31
0.0
0
LINE
8
TOP
10
0.304573
20
0.287483
30
0.0
11
0.302352
21
0.291118
31
0.0
0
LINE
8
TOP
10
0.302352
20
0.291118
30
0.0
11
0.299780
21
0.294513
31
0.0
0
LINE
8
TOP
10
0.299780
20
0.294513
30
0.0
11
0.296883
21
0.297636
31
0.0
0
LINE
8
TOP
10
0.296883
20
0.297636
30
0.0
11
0.293689
21
0.300454
31
0.0
0
LINE
8
TOP
10
0.293689
20
0.300454
30
0.0
11
0.290230
21
0.302941
31
0.0
0
LINE
8
TOP
10
0.290230
20
0.302941
30
0.0
11
0.286541
21
0.305071
31
0.0
0
LINE
8
TOP
10
0.286541
20
0.305071
30
0.0
11
0.282659
21
0.306823
31
0.0
0
LINE
8
TOP
10
0.282659
20
0.306823
30
0.0
11
0.278621
21
0.308179
31
0.0
0
LINE
8
TOP
10
0.278621
20
0.308179
30
0.0
11
0.274468
21
0.309127
31
0.0
0
LINE
8
TOP
10
0.274468
20
0.309127
30
0.0
11
0.270242
21
0.309657
31
0.0
0
LINE
8
TOP
10
0.270242
20
0.309657
30
0.0
11
0.265983
21
0.309763
31
0.0
0
LINE
8
TOP
10
0.265983
20
0.309763
30
0.0
11
0.261736
21
0.309445
31
0.0
0
LINE
8
TOP
10
0.261736
20
0.309445
30
0.0
11
0.257541
21
0.308705
31
0.0
0
LINE
8
TOP
10
0.257541
20
0.308705
30
0.0
11
0.253440
21
0.307551
31
0.0
0
LINE
8
TOP
10
0.253440
20
0.307551
30
0.0
11
0.249475
21
0.305995
31
0.0
0
LINE
8
TOP
10
0.249475
20
0.305995
30
0.0
11
0.245685
21
0.304052
31
0.0
0
LINE
8
TOP
10
0.245685
20
0.304052
30
0.0
11
0.242106
21
0.301741
31
0.0
0
LINE
8
TOP
10
0.242106
20
0.301741
30
0.0
11
0.238776
21
0.299085
31
0.0
0
LINE
8
TOP
10
0.238776
20
0.299085
30
0.0
11
0.235727
21
0.296111
31
0.0
0
LINE
8
TOP
10
0.235727
20
0.296111
30
0.0
11
0.232989
21
0.292848
31
0.0
0
LINE
8
TOP
10
0.232989
20
0.292848
30
0.0
11
0.230589
21
0.289328
31
0.0
0
LINE
8
TOP
10
0.230589
20
0.289328
30
0.0
11
0.228552
21
0.285587
31
0.0
0
LINE
8
TOP
10
0.228552
20
0.285587
30
0.0
11
0.226898
21
0.281662
31
0.0
0
LINE
8
TOP
10
0.226898
20
0.281662
30
0.0
11
0.225642
21
0.277592
31
0.0
0
LINE
8
TOP
10
0.225642
20
0.277592
30
0.0
11
0.224798
21
0.273417
31
0.0
0
LINE
8
TOP
10
0.224798
20
0.273417
30
0.0
11
0.224374
21
0.269178
31
0.0
0
LINE
8
TOP
10
0.224374
20
0.269178
30
0.0
11
0.224374
21
0.264919
31
0.0
0
LINE
8
TOP
10
0.224374
20
0.264919
30
0.0
11
0.224798
21
0.260680
31
0.0
0
LINE
8
TOP
10
0.224798
20
0.260680
30
0.0
11
0.225642
21
0.256505
31
0.0
0
LINE
8
TOP
10
0.225642
20
0.256505
30
0.0
11
0.226898
21
0.252435
31
0.0
0
LINE
8
TOP
10
0.226898
20
0.252435
30
0.0
11
0.228552
21
0.248510
31
0.0
0
LINE
8
TOP
10
0.228552
20
0.248510
30
0.0
11
0.230589
21
0.244769
31
0.0
0
LINE
8
TOP
10
0.230589
20
0.244769
30
0.0
11
0.232989
21
0.241249
31
0.0
0
LINE
8
TOP
10
0.232989
20
0.241249
30
0.0
11
0.235727
21
0.237986
31
0.0
0
LINE
8
TOP
10
0.235727
20
0.237986
30
0.0
11
0.238776
21
0.235012
31
0.0
0
LINE
8
TOP
10
0.238776
20
0.235012
30
0.0
11
0.242106
21
0.232356
31
0.0
0
LINE
8
TOP
10
0.242106
20
0.232356
30
0.0
11
0.245685
21
0.230045
31
0.0
0
LINE
8
TOP
10
0.245685
20
0.230045
30
0.0
11
0.249475
21
0.228102
31
0.0
0
LINE
8
TOP
10
0.249475
20
0.228102
30
0.0
11
0.253440
21
0.226546
31
0.0
0
LINE
8
TOP
10
0.253440
20
0.226546
30
0.0
11
0.257541
21
0.225392
31
0.0
0
LINE
8
TOP
10
0.257541
20
0.225392
30
0.0
11
0.261736
21
0.224652
31
0.0
0
LINE
8
TOP
10
0.261736
20
0.224652
30
0.0
11
0.265983
21
0.224334
31
0.0
0
LINE
8
TOP
10
0.265983
20
0.224334
30
0.0
11
0.270242
21
0.224440
31
0.0
0
LINE
8
TOP
10
0.270242
20
0.224440
30
0.0
11
0.274468
21
0.224970
31
0.0
0
LINE
8
TOP
10
0.274468
20
0.224970
30
0.0
11
0.278621
21
0.225918
31
0.0
0
LINE
8
TOP
10
0.278621
20
0.225918
30
0.0
11
0.282659
21
0.227274
31
0.0
0
LINE
8
TOP
10
0.282659
20
0.227274
30
0.0
11
0.286541
21
0.229026
31
0.0
0
LINE
8
TOP
10
0.286541
20
0.229026
30
0.0
11
0.290230
21
0.231156
31
0.0
0
LINE
8
TOP
10
0.290230
20
0.231156
30
0.0
11
0.293689
21
0.233643
31
0.0
0
LINE
8
TOP
10
0.293689
20
0.233643
30
0.0
11
0.296883
21
0.236461
31
0.0
0
LINE
8
TOP
10
0.296883
20
0.236461
30
0.0
11
0.299780
21
0.239584
31
0.0
0
LINE
8
TOP
10
0.299780
20
0.239584
30
0.0
11
0.302352
21
0.242979
31
0.0
0
LINE
8
TOP
10
0.302352
20
0.242979
30
0.0
11
0.304573
21
0.246614
31
0.0
0
LINE
8
TOP
10
0.304573
20
0.246614
30
0.0
11
0.306421
21
0.250452
31
0.0
0
LINE
8
TOP
10
0.306421
20
0.250452
30
0.0
11
0.307878
21
0.254454
31
0.0
0
LINE
8
TOP
10
0.307878
20
0.254454
30
0.0
11
0.308929
21
0.258582
31
0.0
0
LINE
8
TOP
10
0.308929
20
0.258582
30
0.0
11
0.309564
21
0.262794
31
0.0
0
LINE
8
TOP
10
0.309564
20
0.262794
30
0.0
11
0.309776
21
0.267049
31
0.0
0
LINE
8
TOP
10
0.309776
20
0.801146
30
0.0
11
0.309564
21
0.805400
31
0.0
0
LINE
8
TOP
10
0.309564
20
0.805400
30
0.0
11
0.308929
21
0.809612
31
0.0
0
LINE
8
TOP
10
0.308929
20
0.809612
30
0.0
11
0.307878
21
0.813740
31
0.0
0
LINE
8
TOP
10
0.307878
20
0.813740
30
0.0
11
0.306421
21
0.817743
31
0.0
0
LINE
8
TOP
10
0.306421
20
0.817743
30
0.0
11
0.304573
21
0.821580
31
0.0
0
LINE
8
TOP
10
0.304573
20
0.821580
30
0.0
11
0.302352
21
0.825215
31
0.0
0
LINE
8
TOP
10
0.302352
20
0.825215
30
0.0
11
0.299780
21
0.828610
31
0.0
0
LINE
8
TOP
10
0.299780
20
0.828610
30
0.0
11
0.296883
21
0.831733
31
0.0
0
LINE
8
TOP
10
0.296883
20
0.831733
30
0.0
11
0.293689
21
0.834552
31
0.0
0
LINE
8
TOP
10
0.293689
20
0.834552
30
0.0
11
0.290230
21
0.837038
31
0.0
0
LINE
8
TOP
10
0.290230
20
0.837038
30
0.0
11
0.286541
21
0.839168
31
0.0
0
LINE
8
TOP
10
0.286541
20
0.839168
30
0.0
11
0.282659
21
0.840920
31
0.0
0
LINE
8
TOP
10
0.282659
20
0.840920
30
0.0
11
0.278621
21
0.842276
31
0.0
0
LINE
8
TOP
10
0.278621
20
0.842276
30
0.0
11
0.274468
21
0.843224
31
0.0
0
LINE
8
TOP
10
0.274468
20
0.843224
30
0.0
11
0.270242
21
0.843754
31
0.0
0
LINE
8
TOP
10
0.270242
20
0.843754
30
0.0
11
0.265983
21
0.843860
31
0.0
0
LINE
8
TOP
10
0.265983
20
0.843860
30
0.0
11
0.261736
21
0.843542
31
0.0
0
LINE
8
TOP
10
0.261736
20
0.843542
30
0.0
11
0.257541
21
0.842802
31
0.0
0
LINE
8
TOP
10
0.257541
20
0.842802
30
0.0
11
0.253440
21
0.841648
31
0.0
0
LINE
8
TOP
10
0.253440
20
0.841648
30
0.0
11
0.249475
21
0.840092
31
0.0
0
LINE
8
TOP
10
0.249475
20
0.840092
30
0.0
11
0.245685
21
0.838149
31
0.0
0
LINE
8
TOP
10
0.245685
20
0.838149
30
0.0
11
0.242106
21
0.835838
31
0.0
0
LINE
8
TOP
10
0.242106
20
0.835838
30
0.0
11
0.238776
21
0.833182
31
0.0
0
LINE
8
TOP
10
0.238776
20
0.833182
30
0.0
11
0.235727
21
0.830208
31
0.0
0
LINE
8
TOP
10
0.235727
20
0.830208
30
0.0
11
0.232989
21
0.826945
31
0.0
0
LINE
8
TOP
10
0.232989
20
0.826945
30
0.0
11
0.230589
21
0.823425
31
0.0
0
LINE
8
TOP
10
0.230589
20
0.823425
30
0.0
11
0.228552
21
0.819685
31
0.0
0
LINE
8
TOP
10
0.228552
20
0.819685
30
0.0
11
0.226898
21
0.815759
31
0.0
0
LINE
8
TOP
10
0.226898
20
0.815759
30
0.0
11
0.225642
21
0.811689
31
0.0
0
LINE
8
TOP
10
0.225642
20
0.811689
30
0.0
11
0.224798
21
0.807514
31
0.0
0
LINE
8
TOP
10
0.224798
20
0.807514
30
0.0
11
0.224374
21
0.803275
31
0.0
0
LINE
8
TOP
10
0.224374
20
0.803275
30
0.0
11
0.224374
21
0.799016
31
0.0
0
LINE
8
TOP
10
0.224374
20
0.799016
30
0.0
11
0.224798
21
0.794777
31
0.0
0
LINE
8
TOP
10
0.224798
20
0.794777
30
0.0
11
0.225642
21
0.790602
31
0.0
0
LINE
8
TOP
10
0.225642
20
0.790602
30
0.0
11
0.226898
21
0.786532
31
0.0
0
LINE
8
TOP
10
0.226898
20
0.786532
30
0.0
11
0.228552
21
0.782607
31
0.0
0
LINE
8
TOP
10
0.228552
20
0.782607
30
0.0
11
0.230589
21
0.778866
31
0.0
0
LINE
8
TOP
10
0.230589
20
0.778866
30
0.0
11
0.232989
21
0.775346
31
0.0
0
LINE
8
TOP
10
0.232989
20
0.775346
30
0.0
11
0.235727
21
0.772083
31
0.0
0
LINE
8
TOP
10
0.235727
20
0.772083
30
0.0
11
0.238776
21
0.769109
31
0.0
0
LINE
8
TOP
10
0.238776
20
0.769109
30
0.0
11
0.242106
21
0.766453
31
0.0
0
LINE
8
TOP
10
0.242106
20
0.766453
30
0.0
11
0.245685
21
0.764142
31
0.0
0
LINE
8
TOP
10
0.245685
20
0.764142
30
0.0
11
0.249475
21
0.762199
31
0.0
0
LINE
8
TOP
10
0.249475
20
0.762199
30
0.0
11
0.253440
21
0.760643
31
0.0
0
LINE
8
TOP
10
0.253440
20
0.760643
30
0.0
11
0.257541
21
0.759489
31
0.0
0
LINE
8
TOP
10
0.257541
20
0.759489
30
0.0
11
0.261736
21
0.758749
31
0.0
0
LINE
8
TOP
10
0.261736
20
0.758749
30
0.0
11
0.265983
21
0.758431
31
0.0
0
LINE
8
TOP
10
0.265983
20
0.758431
30
0.0
11
0.270242
21
0.758537
31
0.0
0
LINE
8
TOP
10
0.270242
20
0.758537
30
0.0
11
0.274468
21
0.759067
31
0.0
0
LINE
8
TOP
10
0.274468
20
0.759067
30
0.0
11
0.278621
21
0.760015
31
0.0
0
LINE
8
TOP
10
0.278621
20
0.760015
30
0.0
11
0.282659
21
0.761371
31
0.0
0
LINE
8
TOP
10
0.282659
20
0.761371
30
0.0
11
0.286541
21
0.763123
31
0.0
0
LINE
8
TOP
10
0.286541
20
0.763123
30
0.0
11
0.290230
21
0.765253
31
0.0
0
LINE
8
TOP
10
0.290230
20
0.765253
30
0.0
11
0.293689
21
0.767740
31
0.0
0
LINE
8
TOP
10
0.293689
20
0.767740
30
0.0
11
0.296883
21
0.770558
31
0.0
0
LINE
8
TOP
10
0.296883
20
0.770558
30
0.0
11
0.299780
21
0.773681
31
0.0
0
LINE
8
TOP
10
0.299780
20
0.773681
30
0.0
11
0.302352
21
0.777076
31
0.0
0
LINE
8
TOP
10
0.302352
20
0.777076
30
0.0
11
0.304573
21
0.780711
31
0.0
0
LINE
8
TOP
10
0.304573
20
0.780711
30
0.0
11
0.306421
21
0.784549
31
0.0
0
LINE
8
TOP
10
0.306421
20
0.784549
30
0.0
11
0.307878
21
0.788551
31
0.0
0
LINE
8
TOP
10
0.307878
20
0.788551
30
0.0
11
0.308929
21
0.792679
31
0.0
0
LINE
8
TOP
10
0.308929
20
0.792679
30
0.0
11
0.309564
21
0.796891
31
0.0
0
LINE
8
TOP
10
0.309564
20
0.796891
30
0.0
11
0.309776
21
0.801146
31
0.0
0
LINE
8
TOP
10
0.827850
20
0.267049
30
0.0
11
1.175014
21
0.267049
31
0.0
0
LINE
8
TOP
10
1.175014
20
0.267049
30
0.0
11
1.175014
21
0.801146
31
0.0
0
LINE
8
TOP
10
1.175014
20
0.801146
30
0.0
11
0.827850
21
0.801146
31
0.0
0
LINE
8
TOP
10
0.827850
20
0.801146
30
0.0
11
0.827850
21
0.267049
31
0.0
0
ENDSEC
0
EOF
