0
SECTION
2
HEADER
9
$ACADVER
1
AC1009
0
ENDSEC
0
SECTION
2
TABLES
0
TABLE
2
LTYPE
70
3
0
LTYPE
2
CONTINUOUS
70
0
3
Solid line
72
65
73
0
40
0.0
0
LTYPE
2
HIDDEN
70
0
3
__ __ __ __ __
72
65
73
2
40
0.075000
49
0.050025
49
-0.024975
0
LTYPE
2
CENTER
70
0
3
___ _ ___ _ ___
72
65
73
4
40
0.174975
49
0.099975
49
-0.024975
49
0.024975
49
-0.024975
0
ENDTAB
0
TABLE
2
LAYER
70
7
0
LAYER
2
0
70
0
62
7
6
CONTINUOUS
0
LAYER
2
FRONT
70
0
62
7
6
CONTINUOUS
0
LAYER
2
FRONT_HID
70
0
62
7
6
HIDDEN
0
LAYER
2
LEFT
70
0
62
7
6
CONTINUOUS
0
LAYER
2
LEFT_HID
70
0
62
7
6
HIDDEN
0
LAYER
2
TOP
70
0
62
7
6
CONTINUOUS
0
LAYER
2
TOP_HID
70
0
62
7
6
HIDDEN
0
ENDTAB
0
ENDSEC
0
SECTION
2
ENTITIES
0
LINE
8
FRONT
10
0.000000
20
1.601929
30
0.0
11
0.000000
21
2.080656
31
0.0
0
LINE
8
FRONT
10
0.372496
20
1.601929
30
0.0
11
0.372496
21
2.080656
31
0.0
0
LINE
8
FRONT
10
0.372496
20
2.080656
30
0.0
11
0.000000
21
2.080656
31
0.0
0
LINE
8
FRONT
10
0.372496
20
1.601929
30
0.0
11
0.000000
21
1.601929
31
0.0
0
LINE
8
FRONT
10
1.500000
20
1.601929
30
0.0
11
1.122497
21
1.601929
31
0.0
0
LINE
8
FRONT
10
1.122497
20
1.601929
30
0.0
11
0.372496
21
1.601929
31
0.0
0
LINE
8
FRONT
10
1.500000
20
2.080656
30
0.0
11
1.122497
21
2.080656
31
0.0
0
LINE
8
FRONT
10
1.122497
20
2.080656
30
0.0
11
0.372496
21
2.080656
31
0.0
0
LINE
8
FRONT
10
1.122497
20
1.601929
30
0.0
11
1.122497
21
2.080656
31
0.0
0
LINE
8
FRONT
10
1.500000
20
1.601929
30
0.0
11
1.500000
21
2.080656
31
0.0
0
LINE
8
FRONT
10
0.567882
20
2.080656
30
0.0
11
0.567882
21
2.240232
31
0.0
0
LINE
8
FRONT
10
0.932119
20
2.080656
30
0.0
11
0.932119
21
2.240232
31
0.0
0
LINE
8
FRONT
10
0.932119
20
2.240232
30
0.0
11
0.750000
21
2.240232
31
0.0
0
LINE
8
FRONT
10
0.750000
20
2.080656
30
0.0
11
0.750000
21
2.240232
31
0.0
0
LINE
8
FRONT
10
0.750000
20
2.240232
30
0.0
11
0.567882
21
2.240232
31
0.0
0
LINE
8
FRONT_HID
6
HIDDEN
10
0.000000
20
2.080656
30
0.0
11
0.377504
21
2.080656
31
0.0
0
LINE
8
FRONT_HID
6
HIDDEN
10
0.377504
20
1.601929
30
0.0
11
0.377504
21
2.080656
31
0.0
0
LINE
8
FRONT_HID
6
HIDDEN
10
0.000000
20
1.601929
30
0.0
11
0.377504
21
1.601929
31
0.0
0
LINE
8
FRONT_HID
6
HIDDEN
10
0.377504
20
2.080656
30
0.0
11
1.127504
21
2.080656
31
0.0
0
LINE
8
FRONT_HID
6
HIDDEN
10
1.127504
20
1.601929
30
0.0
11
1.127504
21
2.080656
31
0.0
0
LINE
8
FRONT_HID
6
HIDDEN
10
0.377504
20
1.601929
30
0.0
11
1.127504
21
1.601929
31
0.0
0
LINE
8
FRONT_HID
6
HIDDEN
10
1.127504
20
1.601929
30
0.0
11
1.500000
21
1.601929
31
0.0
0
LINE
8
FRONT_HID
6
HIDDEN
10
0.750710
20
1.601929
30
0.0
11
0.590071
21
1.601929
31
0.0
0
LINE
8
FRONT_HID
6
HIDDEN
10
0.590071
20
1.601929
30
0.0
11
0.909220
21
1.601929
31
0.0
0
LINE
8
FRONT_HID
6
HIDDEN
10
0.909220
20
1.601929
30
0.0
11
0.750710
21
1.601929
31
0.0
0
LINE
8
FRONT_HID
6
HIDDEN
10
1.127504
20
2.080656
30
0.0
11
1.500000
21
2.080656
31
0.0
0
LINE
8
FRONT_HID
6
HIDDEN
10
0.567882
20
2.080656
30
0.0
11
0.637445
21
2.080656
31
0.0
0
LINE
8
FRONT_HID
6
HIDDEN
10
0.750000
20
2.080656
30
0.0
11
0.567882
21
2.080656
31
0.0
0
LINE
8
FRONT_HID
6
HIDDEN
10
0.932119
20
2.080656
30
0.0
11
0.750000
21
2.080656
31
0.0
0
LINE
8
FRONT_HID
6
HIDDEN
10
0.862556
20
2.080656
30
0.0
11
0.932119
21
2.080656
31
0.0
0
LINE
8
FRONT_HID
6
HIDDEN
10
0.637445
20
2.080656
30
0.0
11
0.862556
21
2.080656
31
0.0
0
LINE
8
FRONT_HID
6
HIDDEN
10
0.750710
20
1.601929
30
0.0
11
0.750710
21
1.761505
31
0.0
0
LINE
8
FRONT_HID
6
HIDDEN
10
0.750710
20
1.761505
30
0.0
11
0.590071
21
1.761505
31
0.0
0
LINE
8
FRONT_HID
6
HIDDEN
10
0.590071
20
1.601929
30
0.0
11
0.590071
21
1.761505
31
0.0
0
LINE
8
FRONT_HID
6
HIDDEN
10
0.909220
20
1.601929
30
0.0
11
0.909220
21
1.761505
31
0.0
0
LINE
8
FRONT_HID
6
HIDDEN
10
0.909220
20
1.761505
30
0.0
11
0.750710
21
1.761505
31
0.0
0
LINE
8
FRONT_HID
6
HIDDEN
10
0.590071
20
1.761505
30
0.0
11
0.909220
21
1.761505
31
0.0
0
LINE
8
FRONT_HID
6
HIDDEN
10
0.567882
20
2.240232
30
0.0
11
0.637445
21
2.240232
31
0.0
0
LINE
8
FRONT_HID
6
HIDDEN
10
0.637445
20
2.080656
30
0.0
11
0.637445
21
2.240232
31
0.0
0
LINE
8
FRONT_HID
6
HIDDEN
10
0.637445
20
2.240232
30
0.0
11
0.862556
21
2.240232
31
0.0
0
LINE
8
FRONT_HID
6
HIDDEN
10
0.862556
20
2.080656
30
0.0
11
0.862556
21
2.240232
31
0.0
0
LINE
8
FRONT_HID
6
HIDDEN
10
0.862556
20
2.240232
30
0.0
11
0.932119
21
2.240232
31
0.0
0
LINE
8
LEFT
10
2.453856
20
1.601929
30
0.0
11
2.453856
21
2.080656
31
0.0
0
LINE
8
LEFT
10
2.453856
20
2.080656
30
0.0
11
3.101930
21
2.080656
31
0.0
0
LINE
8
LEFT
10
3.101930
20
1.601929
30
0.0
11
3.101930
21
2.080656
31
0.0
0
LINE
8
LEFT
10
2.453856
20
1.601929
30
0.0
11
3.101930
21
1.601929
31
0.0
0
LINE
8
LEFT
10
1.802892
20
1.601929
30
0.0
11
1.802892
21
2.080656
31
0.0
0
LINE
8
LEFT
10
1.802892
20
2.080656
30
0.0
11
2.453856
21
2.080656
31
0.0
0
LINE
8
LEFT
10
1.802892
20
1.601929
30
0.0
11
2.453856
21
1.601929
31
0.0
0
LINE
8
LEFT
10
1.800000
20
1.601929
30
0.0
11
1.802892
21
1.601929
31
0.0
0
LINE
8
LEFT
10
1.800000
20
2.080656
30
0.0
11
1.802892
21
2.080656
31
0.0
0
LINE
8
LEFT
10
1.800000
20
1.601929
30
0.0
11
1.800000
21
2.080656
31
0.0
0
LINE
8
LEFT
10
2.391791
20
2.080656
30
0.0
11
2.391791
21
2.240232
31
0.0
0
LINE
8
LEFT
10
2.391791
20
2.240232
30
0.0
11
2.605884
21
2.240232
31
0.0
0
LINE
8
LEFT
10
2.605884
20
2.080656
30
0.0
11
2.605884
21
2.240232
31
0.0
0
LINE
8
LEFT
10
2.259474
20
2.080656
30
0.0
11
2.259474
21
2.240232
31
0.0
0
LINE
8
LEFT
10
2.259474
20
2.240232
30
0.0
11
2.391791
21
2.240232
31
0.0
0
LINE
8
LEFT_HID
6
HIDDEN
10
3.101930
20
2.080656
30
0.0
11
3.099038
21
2.080656
31
0.0
0
LINE
8
LEFT_HID
6
HIDDEN
10
3.099038
20
1.601929
30
0.0
11
3.099038
21
2.080656
31
0.0
0
LINE
8
LEFT_HID
6
HIDDEN
10
3.101930
20
1.601929
30
0.0
11
3.099038
21
1.601929
31
0.0
0
LINE
8
LEFT_HID
6
HIDDEN
10
3.099038
20
1.601929
30
0.0
11
2.448074
21
1.601929
31
0.0
0
LINE
8
LEFT_HID
6
HIDDEN
10
2.448074
20
1.601929
30
0.0
11
1.800000
21
1.601929
31
0.0
0
LINE
8
LEFT_HID
6
HIDDEN
10
2.635226
20
1.601929
30
0.0
11
2.359450
21
1.601929
31
0.0
0
LINE
8
LEFT_HID
6
HIDDEN
10
2.359450
20
1.601929
30
0.0
11
2.358220
21
1.601929
31
0.0
0
LINE
8
LEFT_HID
6
HIDDEN
10
2.358220
20
1.601929
30
0.0
11
2.635226
21
1.601929
31
0.0
0
LINE
8
LEFT_HID
6
HIDDEN
10
3.099038
20
2.080656
30
0.0
11
2.448074
21
2.080656
31
0.0
0
LINE
8
LEFT_HID
6
HIDDEN
10
2.448074
20
2.080656
30
0.0
11
1.800000
21
2.080656
31
0.0
0
LINE
8
LEFT_HID
6
HIDDEN
10
2.391791
20
2.080656
30
0.0
11
2.605884
21
2.080656
31
0.0
0
LINE
8
LEFT_HID
6
HIDDEN
10
2.259474
20
2.080656
30
0.0
11
2.391791
21
2.080656
31
0.0
0
LINE
8
LEFT_HID
6
HIDDEN
10
2.391791
20
2.080656
30
0.0
11
2.259474
21
2.080656
31
0.0
0
LINE
8
LEFT_HID
6
HIDDEN
10
2.605884
20
2.080656
30
0.0
11
2.391791
21
2.080656
31
0.0
0
LINE
8
LEFT_HID
6
HIDDEN
10
2.448074
20
1.601929
30
0.0
11
2.448074
21
2.080656
31
0.0
0
LINE
8
LEFT_HID
6
HIDDEN
10
2.635226
20
1.601929
30
0.0
11
2.635226
21
1.761505
31
0.0
0
LINE
8
LEFT_HID
6
HIDDEN
10
2.635226
20
1.761505
30
0.0
11
2.359450
21
1.761505
31
0.0
0
LINE
8
LEFT_HID
6
HIDDEN
10
2.359450
20
1.601929
30
0.0
11
2.359450
21
1.761505
31
0.0
0
LINE
8
LEFT_HID
6
HIDDEN
10
2.358220
20
1.601929
30
0.0
11
2.358220
21
1.761505
31
0.0
0
LINE
8
LEFT_HID
6
HIDDEN
10
2.358220
20
1.761505
30
0.0
11
2.635226
21
1.761505
31
0.0
0
LINE
8
LEFT_HID
6
HIDDEN
10
2.359450
20
1.761505
30
0.0
11
2.358220
21
1.761505
31
0.0
0
LINE
8
TOP
10
0.000000
20
0.648074
30
0.0
11
0.377504
21
0.000000
31
0.0
0
LINE
8
TOP
10
0.372496
20
1.299038
30
0.0
11
0.000000
21
0.648074
31
0.0
0
LINE
8
TOP
10
0.377504
20
0.000000
30
0.0
11
1.127504
21
0.002891
31
0.0
0
LINE
8
TOP
10
1.127504
20
0.002891
30
0.0
11
1.500000
21
0.653855
31
0.0
0
LINE
8
TOP
10
1.500000
20
0.653855
30
0.0
11
1.122497
21
1.301929
31
0.0
0
LINE
8
TOP
10
1.122497
20
1.301929
30
0.0
11
0.372496
21
1.299038
31
0.0
0
LINE
8
TOP
10
0.567882
20
0.710138
30
0.0
11
0.637445
21
0.496045
31
0.0
0
LINE
8
TOP
10
0.637445
20
0.496045
30
0.0
11
0.862556
21
0.496045
31
0.0
0
LINE
8
TOP
10
0.862556
20
0.496045
30
0.0
11
0.932119
21
0.710138
31
0.0
0
LINE
8
TOP
10
0.932119
20
0.710138
30
0.0
11
0.750000
21
0.842455
31
0.0
0
LINE
8
TOP
10
0.750000
20
0.842455
30
0.0
11
0.567882
21
0.710138
31
0.0
0
LINE
8
TOP_HID
6
HIDDEN
10
0.750710
20
0.466704
30
0.0
11
0.590071
21
0.742480
31
0.0
0
LINE
8
TOP_HID
6
HIDDEN
10
0.590071
20
0.742480
30
0.0
11
0.909220
21
0.743710
31
0.0
0
LINE
8
TOP_HID
6
HIDDEN
10
0.909220
20
0.743710
30
0.0
11
0.750710
21
0.466704
31
0.0
0
LINE
8
TOP_HID
6
HIDDEN
10
0.750710
20
0.466704
30
0.0
11
0.590071
21
0.742480
31
0.0
0
LINE
8
TOP_HID
6
HIDDEN
10
0.909220
20
0.743710
30
0.0
11
0.750710
21
0.466704
31
0.0
0
LINE
8
TOP_HID
6
HIDDEN
10
0.590071
20
0.742480
30
0.0
11
0.909220
21
0.743710
31
0.0
0
ENDSEC
0
EOF
