0
SECTION
2
HEADER
9
$ACADVER
1
AC1009
0
ENDSEC
0
SECTION
2
TABLES
0
TABLE
2
LTYPE
70
3
0
LTYPE
2
CONTINUOUS
70
0
3
Solid line
72
65
73
0
40
0.0
0
LTYPE
2
HIDDEN
70
0
3
__ __ __ __ __
72
65
73
2
40
0.039545
49
0.026377
49
-0.013169
0
LTYPE
2
CENTER
70
0
3
___ _ ___ _ ___
72
65
73
4
40
0.092260
49
0.052714
49
-0.013169
49
0.013169
49
-0.013169
0
ENDTAB
0
TABLE
2
LAYER
70
6
0
LAYER
2
0
70
0
62
7
6
CONTINUOUS
0
LAYER
2
FRONT
70
0
62
7
6
CONTINUOUS
0
LAYER
2
FRONT_HID
70
0
62
7
6
HIDDEN
0
LAYER
2
LEFT
70
0
62
7
6
CONTINUOUS
0
LAYER
2
LEFT_HID
70
0
62
7
6
HIDDEN
0
LAYER
2
TOP
70
0
62
7
6
CONTINUOUS
0
ENDTAB
0
ENDSEC
0
SECTION
2
ENTITIES
0
LINE
8
FRONT
10
0.000000
20
1.026364
30
0.0
11
0.000000
21
0.276364
31
0.0
0
LINE
8
FRONT
10
0.790909
20
1.026364
30
0.0
11
0.790909
21
0.276364
31
0.0
0
LINE
8
FRONT
10
0.790909
20
1.026364
30
0.0
11
0.000000
21
1.026364
31
0.0
0
LINE
8
FRONT
10
0.790909
20
0.276364
30
0.0
11
0.000000
21
0.276364
31
0.0
0
LINE
8
FRONT_HID
6
HIDDEN
10
0.022727
20
1.026364
30
0.0
11
0.768182
21
1.026364
31
0.0
0
LINE
8
FRONT_HID
6
HIDDEN
10
0.768182
20
1.026364
30
0.0
11
0.022727
21
1.026364
31
0.0
0
LINE
8
FRONT_HID
6
HIDDEN
10
0.022727
20
0.276364
30
0.0
11
0.768182
21
0.276364
31
0.0
0
LINE
8
FRONT_HID
6
HIDDEN
10
0.768182
20
0.276364
30
0.0
11
0.022727
21
0.276364
31
0.0
0
LINE
8
FRONT_HID
6
HIDDEN
10
0.022727
20
1.026364
30
0.0
11
0.022727
21
0.299091
31
0.0
0
LINE
8
FRONT_HID
6
HIDDEN
10
0.022727
20
0.299091
30
0.0
11
0.768182
21
0.299091
31
0.0
0
LINE
8
FRONT_HID
6
HIDDEN
10
0.768182
20
1.026364
30
0.0
11
0.768182
21
0.299091
31
0.0
0
LINE
8
FRONT_HID
6
HIDDEN
10
0.768182
20
1.026364
30
0.0
11
0.768182
21
0.299091
31
0.0
0
LINE
8
FRONT_HID
6
HIDDEN
10
0.768182
20
0.299091
30
0.0
11
0.022727
21
0.299091
31
0.0
0
LINE
8
FRONT_HID
6
HIDDEN
10
0.022727
20
1.026364
30
0.0
11
0.022727
21
0.299091
31
0.0
0
LINE
8
LEFT
10
1.067273
20
1.026364
30
0.0
11
1.067273
21
0.276364
31
0.0
0
LINE
8
LEFT
10
0.949091
20
1.026364
30
0.0
11
0.949091
21
0.276364
31
0.0
0
LINE
8
LEFT
10
0.949091
20
0.276364
30
0.0
11
1.067273
21
0.276364
31
0.0
0
LINE
8
LEFT
10
0.949091
20
1.026364
30
0.0
11
1.067273
21
1.026364
31
0.0
0
LINE
8
LEFT_HID
6
HIDDEN
10
1.044545
20
1.026364
30
0.0
11
0.971818
21
1.026364
31
0.0
0
LINE
8
LEFT_HID
6
HIDDEN
10
0.971818
20
1.026364
30
0.0
11
1.044545
21
1.026364
31
0.0
0
LINE
8
LEFT_HID
6
HIDDEN
10
1.044545
20
0.276364
30
0.0
11
0.971818
21
0.276364
31
0.0
0
LINE
8
LEFT_HID
6
HIDDEN
10
0.971818
20
0.276364
30
0.0
11
1.044545
21
0.276364
31
0.0
0
LINE
8
LEFT_HID
6
HIDDEN
10
1.044545
20
1.026364
30
0.0
11
1.044545
21
0.299091
31
0.0
0
LINE
8
LEFT_HID
6
HIDDEN
10
1.044545
20
1.026364
30
0.0
11
1.044545
21
0.299091
31
0.0
0
LINE
8
LEFT_HID
6
HIDDEN
10
1.044545
20
0.299091
30
0.0
11
0.971818
21
0.299091
31
0.0
0
LINE
8
LEFT_HID
6
HIDDEN
10
0.971818
20
1.026364
30
0.0
11
0.971818
21
0.299091
31
0.0
0
LINE
8
LEFT_HID
6
HIDDEN
10
0.971818
20
1.026364
30
0.0
11
0.971818
21
0.299091
31
0.0
0
LINE
8
LEFT_HID
6
HIDDEN
10
0.971818
20
0.299091
30
0.0
11
1.044545
21
0.299091
31
0.0
0
LINE
8
TOP
10
0.000000
20
0.000000
30
0.0
11
0.790909
21
0.000000
31
0.0
0
LINE
8
TOP
10
0.000000
20
0.118182
30
0.0
11
0.000000
21
0.000000
31
0.0
0
LINE
8
TOP
10
0.790909
20
0.000000
30
0.0
11
0.790909
21
0.118182
31
0.0
0
LINE
8
TOP
10
0.790909
20
0.118182
30
0.0
11
0.000000
21
0.118182
31
0.0
0
LINE
8
TOP
10
0.022727
20
0.022727
30
0.0
11
0.768182
21
0.022727
31
0.0
0
LINE
8
TOP
10
0.768182
20
0.022727
30
0.0
11
0.768182
21
0.095455
31
0.0
0
LINE
8
TOP
10
0.768182
20
0.095455
30
0.0
11
0.022727
21
0.095455
31
0.0
0
LINE
8
TOP
10
0.022727
20
0.095455
30
0.0
11
0.022727
21
0.022727
31
0.0
0
ENDSEC
0
EOF
