0
SECTION
2
HEADER
9
$ACADVER
1
AC1009
0
ENDSEC
0
SECTION
2
TABLES
0
TABLE
2
LTYPE
70
3
0
LTYPE
2
CONTINUOUS
70
0
3
Solid line
72
65
73
0
40
0.0
0
LTYPE
2
HIDDEN
70
0
3
__ __ __ __ __
72
65
73
2
40
0.037500
49
0.025013
49
-0.012488
0
LTYPE
2
CENTER
70
0
3
___ _ ___ _ ___
72
65
73
4
40
0.087488
49
0.049988
49
-0.012488
49
0.012488
49
-0.012488
0
ENDTAB
0
TABLE
2
LAYER
70
6
0
LAYER
2
0
70
0
62
7
6
CONTINUOUS
0
LAYER
2
FRONT
70
0
62
7
6
CONTINUOUS
0
LAYER
2
LEFT
70
0
62
7
6
CONTINUOUS
0
LAYER
2
LEFT_HID
70
0
62
7
6
HIDDEN
0
LAYER
2
TOP
70
0
62
7
6
CONTINUOUS
0
LAYER
2
TOP_HID
70
0
62
7
6
HIDDEN
0
ENDTAB
0
ENDSEC
0
SECTION
2
ENTITIES
0
LINE
8
FRONT
10
0.000000
20
0.225000
30
0.0
11
0.000017
21
0.223664
31
0.0
0
LINE
8
FRONT
10
0.000017
20
0.223664
30
0.0
11
0.000067
21
0.222330
31
0.0
0
LINE
8
FRONT
10
0.000067
20
0.222330
30
0.0
11
0.000150
21
0.220997
31
0.0
0
LINE
8
FRONT
10
0.000150
20
0.220997
30
0.0
11
0.000266
21
0.219666
31
0.0
0
LINE
8
FRONT
10
0.000266
20
0.219666
30
0.0
11
0.000416
21
0.218339
31
0.0
0
LINE
8
FRONT
10
0.000416
20
0.218339
30
0.0
11
0.000598
21
0.217016
31
0.0
0
LINE
8
FRONT
10
0.000598
20
0.217016
30
0.0
11
0.000814
21
0.215697
31
0.0
0
LINE
8
FRONT
10
0.000814
20
0.215697
30
0.0
11
0.001062
21
0.214385
31
0.0
0
LINE
8
FRONT
10
0.001062
20
0.214385
30
0.0
11
0.001343
21
0.213079
31
0.0
0
LINE
8
FRONT
10
0.001343
20
0.213079
30
0.0
11
0.001657
21
0.211781
31
0.0
0
LINE
8
FRONT
10
0.001657
20
0.211781
30
0.0
11
0.002002
21
0.210491
31
0.0
0
LINE
8
FRONT
10
0.002002
20
0.210491
30
0.0
11
0.002380
21
0.209210
31
0.0
0
LINE
8
FRONT
10
0.002380
20
0.209210
30
0.0
11
0.002790
21
0.207938
31
0.0
0
LINE
8
FRONT
10
0.002790
20
0.207938
30
0.0
11
0.003231
21
0.206677
31
0.0
0
LINE
8
FRONT
10
0.003231
20
0.206677
30
0.0
11
0.003703
21
0.205428
31
0.0
0
LINE
8
FRONT
10
0.003703
20
0.205428
30
0.0
11
0.004207
21
0.204191
31
0.0
0
LINE
8
FRONT
10
0.004207
20
0.204191
30
0.0
11
0.004741
21
0.202967
31
0.0
0
LINE
8
FRONT
10
0.004741
20
0.202967
30
0.0
11
0.005305
21
0.201756
31
0.0
0
LINE
8
FRONT
10
0.005305
20
0.201756
30
0.0
11
0.005900
21
0.200560
31
0.0
0
LINE
8
FRONT
10
0.005900
20
0.200560
30
0.0
11
0.006524
21
0.199379
31
0.0
0
LINE
8
FRONT
10
0.006524
20
0.199379
30
0.0
11
0.007177
21
0.198214
31
0.0
0
LINE
8
FRONT
10
0.007177
20
0.198214
30
0.0
11
0.007859
21
0.197066
31
0.0
0
LINE
8
FRONT
10
0.007859
20
0.197066
30
0.0
11
0.008570
21
0.195935
31
0.0
0
LINE
8
FRONT
10
0.008570
20
0.195935
30
0.0
11
0.009309
21
0.194822
31
0.0
0
LINE
8
FRONT
10
0.009309
20
0.194822
30
0.0
11
0.010075
21
0.193728
31
0.0
0
LINE
8
FRONT
10
0.010075
20
0.193728
30
0.0
11
0.010868
21
0.192653
31
0.0
0
LINE
8
FRONT
10
0.010868
20
0.192653
30
0.0
11
0.011688
21
0.191599
31
0.0
0
LINE
8
FRONT
10
0.011688
20
0.191599
30
0.0
11
0.012533
21
0.190565
31
0.0
0
LINE
8
FRONT
10
0.012533
20
0.190565
30
0.0
11
0.013405
21
0.189553
31
0.0
0
LINE
8
FRONT
10
0.013405
20
0.189553
30
0.0
11
0.014301
21
0.188562
31
0.0
0
LINE
8
FRONT
10
0.014301
20
0.188562
30
0.0
11
0.015221
21
0.187594
31
0.0
0
LINE
8
FRONT
10
0.015221
20
0.187594
30
0.0
11
0.016166
21
0.186650
31
0.0
0
LINE
8
FRONT
10
0.016166
20
0.186650
30
0.0
11
0.017134
21
0.185729
31
0.0
0
LINE
8
FRONT
10
0.017134
20
0.185729
30
0.0
11
0.018124
21
0.184833
31
0.0
0
LINE
8
FRONT
10
0.018124
20
0.184833
30
0.0
11
0.019136
21
0.183962
31
0.0
0
LINE
8
FRONT
10
0.019136
20
0.183962
30
0.0
11
0.020170
21
0.183116
31
0.0
0
LINE
8
FRONT
10
0.020170
20
0.183116
30
0.0
11
0.021225
21
0.182296
31
0.0
0
LINE
8
FRONT
10
0.021225
20
0.182296
30
0.0
11
0.022299
21
0.181503
31
0.0
0
LINE
8
FRONT
10
0.022299
20
0.181503
30
0.0
11
0.023394
21
0.180737
31
0.0
0
LINE
8
FRONT
10
0.023394
20
0.180737
30
0.0
11
0.024506
21
0.179999
31
0.0
0
LINE
8
FRONT
10
0.024506
20
0.179999
30
0.0
11
0.025637
21
0.179288
31
0.0
0
LINE
8
FRONT
10
0.025637
20
0.179288
30
0.0
11
0.026786
21
0.178606
31
0.0
0
LINE
8
FRONT
10
0.026786
20
0.178606
30
0.0
11
0.027951
21
0.177952
31
0.0
0
LINE
8
FRONT
10
0.027951
20
0.177952
30
0.0
11
0.029132
21
0.177328
31
0.0
0
LINE
8
FRONT
10
0.029132
20
0.177328
30
0.0
11
0.030328
21
0.176734
31
0.0
0
LINE
8
FRONT
10
0.030328
20
0.176734
30
0.0
11
0.031538
21
0.176169
31
0.0
0
LINE
8
FRONT
10
0.031538
20
0.176169
30
0.0
11
0.032762
21
0.175635
31
0.0
0
LINE
8
FRONT
10
0.032762
20
0.175635
30
0.0
11
0.034000
21
0.175132
31
0.0
0
LINE
8
FRONT
10
0.034000
20
0.175132
30
0.0
11
0.035249
21
0.174659
31
0.0
0
LINE
8
FRONT
10
0.035249
20
0.174659
30
0.0
11
0.036510
21
0.174218
31
0.0
0
LINE
8
FRONT
10
0.036510
20
0.174218
30
0.0
11
0.037781
21
0.173809
31
0.0
0
LINE
8
FRONT
10
0.037781
20
0.173809
30
0.0
11
0.039062
21
0.173431
31
0.0
0
LINE
8
FRONT
10
0.039062
20
0.173431
30
0.0
11
0.040352
21
0.173085
31
0.0
0
LINE
8
FRONT
10
0.040352
20
0.173085
30
0.0
11
0.041651
21
0.172772
31
0.0
0
LINE
8
FRONT
10
0.041651
20
0.172772
30
0.0
11
0.042956
21
0.172491
31
0.0
0
LINE
8
FRONT
10
0.042956
20
0.172491
30
0.0
11
0.044269
21
0.172242
31
0.0
0
LINE
8
FRONT
10
0.044269
20
0.172242
30
0.0
11
0.045587
21
0.172027
31
0.0
0
LINE
8
FRONT
10
0.045587
20
0.172027
30
0.0
11
0.046910
21
0.171844
31
0.0
0
LINE
8
FRONT
10
0.046910
20
0.171844
30
0.0
11
0.048237
21
0.171695
31
0.0
0
LINE
8
FRONT
10
0.048237
20
0.171695
30
0.0
11
0.049568
21
0.171578
31
0.0
0
LINE
8
FRONT
10
0.049568
20
0.171578
30
0.0
11
0.050901
21
0.171495
31
0.0
0
LINE
8
FRONT
10
0.050901
20
0.171495
30
0.0
11
0.052236
21
0.171445
31
0.0
0
LINE
8
FRONT
10
0.052236
20
0.171445
30
0.0
11
0.053571
21
0.171429
31
0.0
0
LINE
8
FRONT
10
0.053571
20
0.171429
30
0.0
11
0.318055
21
0.171429
31
0.0
0
LINE
8
FRONT
10
0.318055
20
0.171429
30
0.0
11
0.318792
21
0.171434
31
0.0
0
LINE
8
FRONT
10
0.318792
20
0.171434
30
0.0
11
0.319530
21
0.171449
31
0.0
0
LINE
8
FRONT
10
0.319530
20
0.171449
30
0.0
11
0.320266
21
0.171474
31
0.0
0
LINE
8
FRONT
10
0.320266
20
0.171474
30
0.0
11
0.321003
21
0.171510
31
0.0
0
LINE
8
FRONT
10
0.321003
20
0.171510
30
0.0
11
0.321739
21
0.171555
31
0.0
0
LINE
8
FRONT
10
0.321739
20
0.171555
30
0.0
11
0.322474
21
0.171611
31
0.0
0
LINE
8
FRONT
10
0.322474
20
0.171611
30
0.0
11
0.323209
21
0.171677
31
0.0
0
LINE
8
FRONT
10
0.323209
20
0.171677
30
0.0
11
0.323942
21
0.171753
31
0.0
0
LINE
8
FRONT
10
0.323942
20
0.171753
30
0.0
11
0.324675
21
0.171839
31
0.0
0
LINE
8
FRONT
10
0.324675
20
0.171839
30
0.0
11
0.325406
21
0.171935
31
0.0
0
LINE
8
FRONT
10
0.325406
20
0.171935
30
0.0
11
0.326135
21
0.172041
31
0.0
0
LINE
8
FRONT
10
0.326135
20
0.172041
30
0.0
11
0.326864
21
0.172158
31
0.0
0
LINE
8
FRONT
10
0.326864
20
0.172158
30
0.0
11
0.327590
21
0.172284
31
0.0
0
LINE
8
FRONT
10
0.327590
20
0.172284
30
0.0
11
0.328315
21
0.172420
31
0.0
0
LINE
8
FRONT
10
0.328315
20
0.172420
30
0.0
11
0.329038
21
0.172566
31
0.0
0
LINE
8
FRONT
10
0.329038
20
0.172566
30
0.0
11
0.329758
21
0.172723
31
0.0
0
LINE
8
FRONT
10
0.329758
20
0.172723
30
0.0
11
0.330477
21
0.172889
31
0.0
0
LINE
8
FRONT
10
0.330477
20
0.172889
30
0.0
11
0.331193
21
0.173065
31
0.0
0
LINE
8
FRONT
10
0.331193
20
0.173065
30
0.0
11
0.331906
21
0.173250
31
0.0
0
LINE
8
FRONT
10
0.331906
20
0.173250
30
0.0
11
0.332617
21
0.173446
31
0.0
0
LINE
8
FRONT
10
0.332617
20
0.173446
30
0.0
11
0.333326
21
0.173651
31
0.0
0
LINE
8
FRONT
10
0.333326
20
0.173651
30
0.0
11
0.334031
21
0.173866
31
0.0
0
LINE
8
FRONT
10
0.334031
20
0.173866
30
0.0
11
0.334733
21
0.174091
31
0.0
0
LINE
8
FRONT
10
0.334733
20
0.174091
30
0.0
11
0.335432
21
0.174325
31
0.0
0
LINE
8
FRONT
10
0.335432
20
0.174325
30
0.0
11
0.336128
21
0.174569
31
0.0
0
LINE
8
FRONT
10
0.336128
20
0.174569
30
0.0
11
0.336821
21
0.174823
31
0.0
0
LINE
8
FRONT
10
0.336821
20
0.174823
30
0.0
11
0.337510
21
0.175086
31
0.0
0
LINE
8
FRONT
10
0.337510
20
0.175086
30
0.0
11
0.338195
21
0.175358
31
0.0
0
LINE
8
FRONT
10
0.338195
20
0.175358
30
0.0
11
0.338876
21
0.175640
31
0.0
0
LINE
8
FRONT
10
0.338876
20
0.175640
30
0.0
11
0.339554
21
0.175932
31
0.0
0
LINE
8
FRONT
10
0.339554
20
0.175932
30
0.0
11
0.340227
21
0.176232
31
0.0
0
LINE
8
FRONT
10
0.340227
20
0.176232
30
0.0
11
0.340896
21
0.176542
31
0.0
0
LINE
8
FRONT
10
0.340896
20
0.176542
30
0.0
11
0.341561
21
0.176861
31
0.0
0
LINE
8
FRONT
10
0.341561
20
0.176861
30
0.0
11
0.342221
21
0.177189
31
0.0
0
LINE
8
FRONT
10
0.342221
20
0.177189
30
0.0
11
0.342877
21
0.177526
31
0.0
0
LINE
8
FRONT
10
0.342877
20
0.177526
30
0.0
11
0.343528
21
0.177872
31
0.0
0
LINE
8
FRONT
10
0.343528
20
0.177872
30
0.0
11
0.344174
21
0.178227
31
0.0
0
LINE
8
FRONT
10
0.344174
20
0.178227
30
0.0
11
0.344816
21
0.178591
31
0.0
0
LINE
8
FRONT
10
0.344816
20
0.178591
30
0.0
11
0.345452
21
0.178964
31
0.0
0
LINE
8
FRONT
10
0.345452
20
0.178964
30
0.0
11
0.346083
21
0.179346
31
0.0
0
LINE
8
FRONT
10
0.346083
20
0.179346
30
0.0
11
0.346709
21
0.179736
31
0.0
0
LINE
8
FRONT
10
0.346709
20
0.179736
30
0.0
11
0.347329
21
0.180134
31
0.0
0
LINE
8
FRONT
10
0.347329
20
0.180134
30
0.0
11
0.347944
21
0.180542
31
0.0
0
LINE
8
FRONT
10
0.347944
20
0.180542
30
0.0
11
0.348553
21
0.180957
31
0.0
0
LINE
8
FRONT
10
0.348553
20
0.180957
30
0.0
11
0.349156
21
0.181381
31
0.0
0
LINE
8
FRONT
10
0.349156
20
0.181381
30
0.0
11
0.349754
21
0.181813
31
0.0
0
LINE
8
FRONT
10
0.349754
20
0.181813
30
0.0
11
0.350345
21
0.182254
31
0.0
0
LINE
8
FRONT
10
0.350345
20
0.182254
30
0.0
11
0.350931
21
0.182702
31
0.0
0
LINE
8
FRONT
10
0.350931
20
0.182702
30
0.0
11
0.351510
21
0.183159
31
0.0
0
LINE
8
FRONT
10
0.351510
20
0.183159
30
0.0
11
0.352082
21
0.183623
31
0.0
0
LINE
8
FRONT
10
0.352082
20
0.183623
30
0.0
11
0.352649
21
0.184096
31
0.0
0
LINE
8
FRONT
10
0.352649
20
0.184096
30
0.0
11
0.353208
21
0.184576
31
0.0
0
LINE
8
FRONT
10
0.353208
20
0.184576
30
0.0
11
0.353761
21
0.185063
31
0.0
0
LINE
8
FRONT
10
0.353761
20
0.185063
30
0.0
11
0.354308
21
0.185559
31
0.0
0
LINE
8
FRONT
10
0.354308
20
0.185559
30
0.0
11
0.354847
21
0.186061
31
0.0
0
LINE
8
FRONT
10
0.354847
20
0.186061
30
0.0
11
0.355380
21
0.186571
31
0.0
0
LINE
8
FRONT
10
0.355380
20
0.186571
30
0.0
11
0.355905
21
0.187089
31
0.0
0
LINE
8
FRONT
10
0.355905
20
0.187089
30
0.0
11
0.356423
21
0.187613
31
0.0
0
LINE
8
FRONT
10
0.356423
20
0.187613
30
0.0
11
0.356934
21
0.188145
31
0.0
0
LINE
8
FRONT
10
0.356934
20
0.188145
30
0.0
11
0.357438
21
0.188684
31
0.0
0
LINE
8
FRONT
10
0.357438
20
0.188684
30
0.0
11
0.357934
21
0.189229
31
0.0
0
LINE
8
FRONT
10
0.357934
20
0.189229
30
0.0
11
0.358423
21
0.189782
31
0.0
0
LINE
8
FRONT
10
0.358423
20
0.189782
30
0.0
11
0.358904
21
0.190340
31
0.0
0
LINE
8
FRONT
10
0.358904
20
0.190340
30
0.0
11
0.630134
21
0.510005
31
0.0
0
LINE
8
FRONT
10
0.630134
20
0.510005
30
0.0
11
0.630519
21
0.510464
31
0.0
0
LINE
8
FRONT
10
0.630519
20
0.510464
30
0.0
11
0.630898
21
0.510926
31
0.0
0
LINE
8
FRONT
10
0.630898
20
0.510926
30
0.0
11
0.631273
21
0.511393
31
0.0
0
LINE
8
FRONT
10
0.631273
20
0.511393
30
0.0
11
0.631642
21
0.511864
31
0.0
0
LINE
8
FRONT
10
0.631642
20
0.511864
30
0.0
11
0.632005
21
0.512339
31
0.0
0
LINE
8
FRONT
10
0.632005
20
0.512339
30
0.0
11
0.632364
21
0.512818
31
0.0
0
LINE
8
FRONT
10
0.632364
20
0.512818
30
0.0
11
0.632717
21
0.513301
31
0.0
0
LINE
8
FRONT
10
0.632717
20
0.513301
30
0.0
11
0.633064
21
0.513788
31
0.0
0
LINE
8
FRONT
10
0.633064
20
0.513788
30
0.0
11
0.633406
21
0.514279
31
0.0
0
LINE
8
FRONT
10
0.633406
20
0.514279
30
0.0
11
0.633743
21
0.514774
31
0.0
0
LINE
8
FRONT
10
0.633743
20
0.514774
30
0.0
11
0.634074
21
0.515272
31
0.0
0
LINE
8
FRONT
10
0.634074
20
0.515272
30
0.0
11
0.634399
21
0.515774
31
0.0
0
LINE
8
FRONT
10
0.634399
20
0.515774
30
0.0
11
0.634719
21
0.516280
31
0.0
0
LINE
8
FRONT
10
0.634719
20
0.516280
30
0.0
11
0.635033
21
0.516789
31
0.0
0
LINE
8
FRONT
10
0.635033
20
0.516789
30
0.0
11
0.635342
21
0.517302
31
0.0
0
LINE
8
FRONT
10
0.635342
20
0.517302
30
0.0
11
0.635645
21
0.517818
31
0.0
0
LINE
8
FRONT
10
0.635645
20
0.517818
30
0.0
11
0.635941
21
0.518337
31
0.0
0
LINE
8
FRONT
10
0.635941
20
0.518337
30
0.0
11
0.636233
21
0.518860
31
0.0
0
LINE
8
FRONT
10
0.636233
20
0.518860
30
0.0
11
0.636518
21
0.519386
31
0.0
0
LINE
8
FRONT
10
0.636518
20
0.519386
30
0.0
11
0.636797
21
0.519915
31
0.0
0
LINE
8
FRONT
10
0.636797
20
0.519915
30
0.0
11
0.637071
21
0.520447
31
0.0
0
LINE
8
FRONT
10
0.637071
20
0.520447
30
0.0
11
0.637338
21
0.520982
31
0.0
0
LINE
8
FRONT
10
0.637338
20
0.520982
30
0.0
11
0.637600
21
0.521521
31
0.0
0
LINE
8
FRONT
10
0.637600
20
0.521521
30
0.0
11
0.637855
21
0.522062
31
0.0
0
LINE
8
FRONT
10
0.637855
20
0.522062
30
0.0
11
0.638105
21
0.522605
31
0.0
0
LINE
8
FRONT
10
0.638105
20
0.522605
30
0.0
11
0.638348
21
0.523152
31
0.0
0
LINE
8
FRONT
10
0.638348
20
0.523152
30
0.0
11
0.638585
21
0.523701
31
0.0
0
LINE
8
FRONT
10
0.638585
20
0.523701
30
0.0
11
0.638816
21
0.524253
31
0.0
0
LINE
8
FRONT
10
0.638816
20
0.524253
30
0.0
11
0.639041
21
0.524808
31
0.0
0
LINE
8
FRONT
10
0.639041
20
0.524808
30
0.0
11
0.639260
21
0.525365
31
0.0
0
LINE
8
FRONT
10
0.639260
20
0.525365
30
0.0
11
0.639472
21
0.525924
31
0.0
0
LINE
8
FRONT
10
0.639472
20
0.525924
30
0.0
11
0.639678
21
0.526486
31
0.0
0
LINE
8
FRONT
10
0.639678
20
0.526486
30
0.0
11
0.639878
21
0.527049
31
0.0
0
LINE
8
FRONT
10
0.639878
20
0.527049
30
0.0
11
0.640072
21
0.527616
31
0.0
0
LINE
8
FRONT
10
0.640072
20
0.527616
30
0.0
11
0.640259
21
0.528184
31
0.0
0
LINE
8
FRONT
10
0.640259
20
0.528184
30
0.0
11
0.640440
21
0.528754
31
0.0
0
LINE
8
FRONT
10
0.640440
20
0.528754
30
0.0
11
0.640614
21
0.529326
31
0.0
0
LINE
8
FRONT
10
0.640614
20
0.529326
30
0.0
11
0.640782
21
0.529901
31
0.0
0
LINE
8
FRONT
10
0.640782
20
0.529901
30
0.0
11
0.640944
21
0.530477
31
0.0
0
LINE
8
FRONT
10
0.640944
20
0.530477
30
0.0
11
0.641099
21
0.531055
31
0.0
0
LINE
8
FRONT
10
0.641099
20
0.531055
30
0.0
11
0.641248
21
0.531634
31
0.0
0
LINE
8
FRONT
10
0.641248
20
0.531634
30
0.0
11
0.641390
21
0.532215
31
0.0
0
LINE
8
FRONT
10
0.641390
20
0.532215
30
0.0
11
0.641526
21
0.532798
31
0.0
0
LINE
8
FRONT
10
0.641526
20
0.532798
30
0.0
11
0.641656
21
0.533382
31
0.0
0
LINE
8
FRONT
10
0.641656
20
0.533382
30
0.0
11
0.641778
21
0.533968
31
0.0
0
LINE
8
FRONT
10
0.641778
20
0.533968
30
0.0
11
0.641894
21
0.534555
31
0.0
0
LINE
8
FRONT
10
0.641894
20
0.534555
30
0.0
11
0.642004
21
0.535143
31
0.0
0
LINE
8
FRONT
10
0.642004
20
0.535143
30
0.0
11
0.642107
21
0.535732
31
0.0
0
LINE
8
FRONT
10
0.642107
20
0.535732
30
0.0
11
0.642204
21
0.536323
31
0.0
0
LINE
8
FRONT
10
0.642204
20
0.536323
30
0.0
11
0.642293
21
0.536914
31
0.0
0
LINE
8
FRONT
10
0.642293
20
0.536914
30
0.0
11
0.642377
21
0.537507
31
0.0
0
LINE
8
FRONT
10
0.642377
20
0.537507
30
0.0
11
0.642453
21
0.538100
31
0.0
0
LINE
8
FRONT
10
0.642453
20
0.538100
30
0.0
11
0.642523
21
0.538694
31
0.0
0
LINE
8
FRONT
10
0.642523
20
0.538694
30
0.0
11
0.642587
21
0.539289
31
0.0
0
LINE
8
FRONT
10
0.642587
20
0.539289
30
0.0
11
0.642643
21
0.539885
31
0.0
0
LINE
8
FRONT
10
0.642643
20
0.539885
30
0.0
11
0.642694
21
0.540481
31
0.0
0
LINE
8
FRONT
10
0.642694
20
0.540481
30
0.0
11
0.642737
21
0.541078
31
0.0
0
LINE
8
FRONT
10
0.642737
20
0.541078
30
0.0
11
0.642774
21
0.541675
31
0.0
0
LINE
8
FRONT
10
0.642774
20
0.541675
30
0.0
11
0.642804
21
0.542272
31
0.0
0
LINE
8
FRONT
10
0.642804
20
0.542272
30
0.0
11
0.642827
21
0.542870
31
0.0
0
LINE
8
FRONT
10
0.642827
20
0.542870
30
0.0
11
0.642844
21
0.543468
31
0.0
0
LINE
8
FRONT
10
0.642844
20
0.543468
30
0.0
11
0.642854
21
0.544067
31
0.0
0
LINE
8
FRONT
10
0.642854
20
0.544067
30
0.0
11
0.642857
21
0.544665
31
0.0
0
LINE
8
FRONT
10
0.642857
20
0.544665
30
0.0
11
0.642857
21
0.867857
31
0.0
0
LINE
8
FRONT
10
0.642857
20
0.867857
30
0.0
11
0.642840
21
0.869193
31
0.0
0
LINE
8
FRONT
10
0.642840
20
0.869193
30
0.0
11
0.642791
21
0.870527
31
0.0
0
LINE
8
FRONT
10
0.642791
20
0.870527
30
0.0
11
0.642707
21
0.871861
31
0.0
0
LINE
8
FRONT
10
0.642707
20
0.871861
30
0.0
11
0.642591
21
0.873191
31
0.0
0
LINE
8
FRONT
10
0.642591
20
0.873191
30
0.0
11
0.642441
21
0.874518
31
0.0
0
LINE
8
FRONT
10
0.642441
20
0.874518
30
0.0
11
0.642259
21
0.875842
31
0.0
0
LINE
8
FRONT
10
0.642259
20
0.875842
30
0.0
11
0.642043
21
0.877160
31
0.0
0
LINE
8
FRONT
10
0.642043
20
0.877160
30
0.0
11
0.641795
21
0.878472
31
0.0
0
LINE
8
FRONT
10
0.641795
20
0.878472
30
0.0
11
0.641514
21
0.879778
31
0.0
0
LINE
8
FRONT
10
0.641514
20
0.879778
30
0.0
11
0.641201
21
0.881076
31
0.0
0
LINE
8
FRONT
10
0.641201
20
0.881076
30
0.0
11
0.640855
21
0.882366
31
0.0
0
LINE
8
FRONT
10
0.640855
20
0.882366
30
0.0
11
0.640477
21
0.883648
31
0.0
0
LINE
8
FRONT
10
0.640477
20
0.883648
30
0.0
11
0.640068
21
0.884919
31
0.0
0
LINE
8
FRONT
10
0.640068
20
0.884919
30
0.0
11
0.639626
21
0.886180
31
0.0
0
LINE
8
FRONT
10
0.639626
20
0.886180
30
0.0
11
0.639154
21
0.887429
31
0.0
0
LINE
8
FRONT
10
0.639154
20
0.887429
30
0.0
11
0.638651
21
0.888666
31
0.0
0
LINE
8
FRONT
10
0.638651
20
0.888666
30
0.0
11
0.638116
21
0.889890
31
0.0
0
LINE
8
FRONT
10
0.638116
20
0.889890
30
0.0
11
0.637552
21
0.891101
31
0.0
0
LINE
8
FRONT
10
0.637552
20
0.891101
30
0.0
11
0.636957
21
0.892297
31
0.0
0
LINE
8
FRONT
10
0.636957
20
0.892297
30
0.0
11
0.636333
21
0.893478
31
0.0
0
LINE
8
FRONT
10
0.636333
20
0.893478
30
0.0
11
0.635680
21
0.894643
31
0.0
0
LINE
8
FRONT
10
0.635680
20
0.894643
30
0.0
11
0.634998
21
0.895791
31
0.0
0
LINE
8
FRONT
10
0.634998
20
0.895791
30
0.0
11
0.634287
21
0.896922
31
0.0
0
LINE
8
FRONT
10
0.634287
20
0.896922
30
0.0
11
0.633549
21
0.898035
31
0.0
0
LINE
8
FRONT
10
0.633549
20
0.898035
30
0.0
11
0.632782
21
0.899129
31
0.0
0
LINE
8
FRONT
10
0.632782
20
0.899129
30
0.0
11
0.631989
21
0.900204
31
0.0
0
LINE
8
FRONT
10
0.631989
20
0.900204
30
0.0
11
0.631170
21
0.901258
31
0.0
0
LINE
8
FRONT
10
0.631170
20
0.901258
30
0.0
11
0.630324
21
0.902292
31
0.0
0
LINE
8
FRONT
10
0.630324
20
0.902292
30
0.0
11
0.629453
21
0.903305
31
0.0
0
LINE
8
FRONT
10
0.629453
20
0.903305
30
0.0
11
0.628556
21
0.904295
31
0.0
0
LINE
8
FRONT
10
0.628556
20
0.904295
30
0.0
11
0.627636
21
0.905263
31
0.0
0
LINE
8
FRONT
10
0.627636
20
0.905263
30
0.0
11
0.626691
21
0.906207
31
0.0
0
LINE
8
FRONT
10
0.626691
20
0.906207
30
0.0
11
0.625724
21
0.907128
31
0.0
0
LINE
8
FRONT
10
0.625724
20
0.907128
30
0.0
11
0.624733
21
0.908024
31
0.0
0
LINE
8
FRONT
10
0.624733
20
0.908024
30
0.0
11
0.623721
21
0.908895
31
0.0
0
LINE
8
FRONT
10
0.623721
20
0.908895
30
0.0
11
0.622687
21
0.909741
31
0.0
0
LINE
8
FRONT
10
0.622687
20
0.909741
30
0.0
11
0.621632
21
0.910561
31
0.0
0
LINE
8
FRONT
10
0.621632
20
0.910561
30
0.0
11
0.620558
21
0.911354
31
0.0
0
LINE
8
FRONT
10
0.620558
20
0.911354
30
0.0
11
0.619464
21
0.912120
31
0.0
0
LINE
8
FRONT
10
0.619464
20
0.912120
30
0.0
11
0.618351
21
0.912859
31
0.0
0
LINE
8
FRONT
10
0.618351
20
0.912859
30
0.0
11
0.617220
21
0.913569
31
0.0
0
LINE
8
FRONT
10
0.617220
20
0.913569
30
0.0
11
0.616071
21
0.914251
31
0.0
0
LINE
8
FRONT
10
0.616071
20
0.914251
30
0.0
11
0.614906
21
0.914905
31
0.0
0
LINE
8
FRONT
10
0.614906
20
0.914905
30
0.0
11
0.613726
21
0.915529
31
0.0
0
LINE
8
FRONT
10
0.613726
20
0.915529
30
0.0
11
0.612529
21
0.916123
31
0.0
0
LINE
8
FRONT
10
0.612529
20
0.916123
30
0.0
11
0.611319
21
0.916688
31
0.0
0
LINE
8
FRONT
10
0.611319
20
0.916688
30
0.0
11
0.610095
21
0.917222
31
0.0
0
LINE
8
FRONT
10
0.610095
20
0.917222
30
0.0
11
0.608858
21
0.917725
31
0.0
0
LINE
8
FRONT
10
0.608858
20
0.917725
30
0.0
11
0.607608
21
0.918198
31
0.0
0
LINE
8
FRONT
10
0.607608
20
0.918198
30
0.0
11
0.606347
21
0.918639
31
0.0
0
LINE
8
FRONT
10
0.606347
20
0.918639
30
0.0
11
0.605076
21
0.919049
31
0.0
0
LINE
8
FRONT
10
0.605076
20
0.919049
30
0.0
11
0.603795
21
0.919426
31
0.0
0
LINE
8
FRONT
10
0.603795
20
0.919426
30
0.0
11
0.602505
21
0.919772
31
0.0
0
LINE
8
FRONT
10
0.602505
20
0.919772
30
0.0
11
0.601206
21
0.920085
31
0.0
0
LINE
8
FRONT
10
0.601206
20
0.920085
30
0.0
11
0.599901
21
0.920366
31
0.0
0
LINE
8
FRONT
10
0.599901
20
0.920366
30
0.0
11
0.598588
21
0.920615
31
0.0
0
LINE
8
FRONT
10
0.598588
20
0.920615
30
0.0
11
0.597270
21
0.920830
31
0.0
0
LINE
8
FRONT
10
0.597270
20
0.920830
30
0.0
11
0.595947
21
0.921013
31
0.0
0
LINE
8
FRONT
10
0.595947
20
0.921013
30
0.0
11
0.594620
21
0.921162
31
0.0
0
LINE
8
FRONT
10
0.594620
20
0.921162
30
0.0
11
0.593289
21
0.921279
31
0.0
0
LINE
8
FRONT
10
0.593289
20
0.921279
30
0.0
11
0.591956
21
0.921362
31
0.0
0
LINE
8
FRONT
10
0.591956
20
0.921362
30
0.0
11
0.590621
21
0.921412
31
0.0
0
LINE
8
FRONT
10
0.590621
20
0.921412
30
0.0
11
0.589286
21
0.921429
31
0.0
0
LINE
8
FRONT
10
0.589286
20
0.921429
30
0.0
11
0.053571
21
0.921429
31
0.0
0
LINE
8
FRONT
10
0.053571
20
0.921429
30
0.0
11
0.052236
21
0.921412
31
0.0
0
LINE
8
FRONT
10
0.052236
20
0.921412
30
0.0
11
0.050901
21
0.921362
31
0.0
0
LINE
8
FRONT
10
0.050901
20
0.921362
30
0.0
11
0.049568
21
0.921279
31
0.0
0
LINE
8
FRONT
10
0.049568
20
0.921279
30
0.0
11
0.048237
21
0.921162
31
0.0
0
LINE
8
FRONT
10
0.048237
20
0.921162
30
0.0
11
0.046910
21
0.921013
31
0.0
0
LINE
8
FRONT
10
0.046910
20
0.921013
30
0.0
11
0.045587
21
0.920830
31
0.0
0
LINE
8
FRONT
10
0.045587
20
0.920830
30
0.0
11
0.044269
21
0.920615
31
0.0
0
LINE
8
FRONT
10
0.044269
20
0.920615
30
0.0
11
0.042956
21
0.920366
31
0.0
0
LINE
8
FRONT
10
0.042956
20
0.920366
30
0.0
11
0.041651
21
0.920085
31
0.0
0
LINE
8
FRONT
10
0.041651
20
0.920085
30
0.0
11
0.040352
21
0.919772
31
0.0
0
LINE
8
FRONT
10
0.040352
20
0.919772
30
0.0
11
0.039062
21
0.919426
31
0.0
0
LINE
8
FRONT
10
0.039062
20
0.919426
30
0.0
11
0.037781
21
0.919049
31
0.0
0
LINE
8
FRONT
10
0.037781
20
0.919049
30
0.0
11
0.036510
21
0.918639
31
0.0
0
LINE
8
FRONT
10
0.036510
20
0.918639
30
0.0
11
0.035249
21
0.918198
31
0.0
0
LINE
8
FRONT
10
0.035249
20
0.918198
30
0.0
11
0.034000
21
0.917725
31
0.0
0
LINE
8
FRONT
10
0.034000
20
0.917725
30
0.0
11
0.032762
21
0.917222
31
0.0
0
LINE
8
FRONT
10
0.032762
20
0.917222
30
0.0
11
0.031538
21
0.916688
31
0.0
0
LINE
8
FRONT
10
0.031538
20
0.916688
30
0.0
11
0.030328
21
0.916123
31
0.0
0
LINE
8
FRONT
10
0.030328
20
0.916123
30
0.0
11
0.029132
21
0.915529
31
0.0
0
LINE
8
FRONT
10
0.029132
20
0.915529
30
0.0
11
0.027951
21
0.914905
31
0.0
0
LINE
8
FRONT
10
0.027951
20
0.914905
30
0.0
11
0.026786
21
0.914251
31
0.0
0
LINE
8
FRONT
10
0.026786
20
0.914251
30
0.0
11
0.025637
21
0.913569
31
0.0
0
LINE
8
FRONT
10
0.025637
20
0.913569
30
0.0
11
0.024506
21
0.912859
31
0.0
0
LINE
8
FRONT
10
0.024506
20
0.912859
30
0.0
11
0.023394
21
0.912120
31
0.0
0
LINE
8
FRONT
10
0.023394
20
0.912120
30
0.0
11
0.022299
21
0.911354
31
0.0
0
LINE
8
FRONT
10
0.022299
20
0.911354
30
0.0
11
0.021225
21
0.910561
31
0.0
0
LINE
8
FRONT
10
0.021225
20
0.910561
30
0.0
11
0.020170
21
0.909741
31
0.0
0
LINE
8
FRONT
10
0.020170
20
0.909741
30
0.0
11
0.019136
21
0.908895
31
0.0
0
LINE
8
FRONT
10
0.019136
20
0.908895
30
0.0
11
0.018124
21
0.908024
31
0.0
0
LINE
8
FRONT
10
0.018124
20
0.908024
30
0.0
11
0.017134
21
0.907128
31
0.0
0
LINE
8
FRONT
10
0.017134
20
0.907128
30
0.0
11
0.016166
21
0.906207
31
0.0
0
LINE
8
FRONT
10
0.016166
20
0.906207
30
0.0
11
0.015221
21
0.905263
31
0.0
0
LINE
8
FRONT
10
0.015221
20
0.905263
30
0.0
11
0.014301
21
0.904295
31
0.0
0
LINE
8
FRONT
10
0.014301
20
0.904295
30
0.0
11
0.013405
21
0.903305
31
0.0
0
LINE
8
FRONT
10
0.013405
20
0.903305
30
0.0
11
0.012533
21
0.902292
31
0.0
0
LINE
8
FRONT
10
0.012533
20
0.902292
30
0.0
11
0.011688
21
0.901258
31
0.0
0
LINE
8
FRONT
10
0.011688
20
0.901258
30
0.0
11
0.010868
21
0.900204
31
0.0
0
LINE
8
FRONT
10
0.010868
20
0.900204
30
0.0
11
0.010075
21
0.899129
31
0.0
0
LINE
8
FRONT
10
0.010075
20
0.899129
30
0.0
11
0.009309
21
0.898035
31
0.0
0
LINE
8
FRONT
10
0.009309
20
0.898035
30
0.0
11
0.008570
21
0.896922
31
0.0
0
LINE
8
FRONT
10
0.008570
20
0.896922
30
0.0
11
0.007859
21
0.895791
31
0.0
0
LINE
8
FRONT
10
0.007859
20
0.895791
30
0.0
11
0.007177
21
0.894643
31
0.0
0
LINE
8
FRONT
10
0.007177
20
0.894643
30
0.0
11
0.006524
21
0.893478
31
0.0
0
LINE
8
FRONT
10
0.006524
20
0.893478
30
0.0
11
0.005900
21
0.892297
31
0.0
0
LINE
8
FRONT
10
0.005900
20
0.892297
30
0.0
11
0.005305
21
0.891101
31
0.0
0
LINE
8
FRONT
10
0.005305
20
0.891101
30
0.0
11
0.004741
21
0.889890
31
0.0
0
LINE
8
FRONT
10
0.004741
20
0.889890
30
0.0
11
0.004207
21
0.888666
31
0.0
0
LINE
8
FRONT
10
0.004207
20
0.888666
30
0.0
11
0.003703
21
0.887429
31
0.0
0
LINE
8
FRONT
10
0.003703
20
0.887429
30
0.0
11
0.003231
21
0.886180
31
0.0
0
LINE
8
FRONT
10
0.003231
20
0.886180
30
0.0
11
0.002790
21
0.884919
31
0.0
0
LINE
8
FRONT
10
0.002790
20
0.884919
30
0.0
11
0.002380
21
0.883648
31
0.0
0
LINE
8
FRONT
10
0.002380
20
0.883648
30
0.0
11
0.002002
21
0.882366
31
0.0
0
LINE
8
FRONT
10
0.002002
20
0.882366
30
0.0
11
0.001657
21
0.881076
31
0.0
0
LINE
8
FRONT
10
0.001657
20
0.881076
30
0.0
11
0.001343
21
0.879778
31
0.0
0
LINE
8
FRONT
10
0.001343
20
0.879778
30
0.0
11
0.001062
21
0.878472
31
0.0
0
LINE
8
FRONT
10
0.001062
20
0.878472
30
0.0
11
0.000814
21
0.877160
31
0.0
0
LINE
8
FRONT
10
0.000814
20
0.877160
30
0.0
11
0.000598
21
0.875842
31
0.0
0
LINE
8
FRONT
10
0.000598
20
0.875842
30
0.0
11
0.000416
21
0.874518
31
0.0
0
LINE
8
FRONT
10
0.000416
20
0.874518
30
0.0
11
0.000266
21
0.873191
31
0.0
0
LINE
8
FRONT
10
0.000266
20
0.873191
30
0.0
11
0.000150
21
0.871861
31
0.0
0
LINE
8
FRONT
10
0.000150
20
0.871861
30
0.0
11
0.000067
21
0.870527
31
0.0
0
LINE
8
FRONT
10
0.000067
20
0.870527
30
0.0
11
0.000017
21
0.869193
31
0.0
0
LINE
8
FRONT
10
0.000017
20
0.869193
30
0.0
11
0.000000
21
0.867857
31
0.0
0
LINE
8
FRONT
10
0.000000
20
0.867857
30
0.0
11
0.000000
21
0.225000
31
0.0
0
LINE
8
LEFT
10
0.792857
20
0.225000
30
0.0
11
0.792857
21
0.171429
31
0.0
0
LINE
8
LEFT
10
0.792857
20
0.171429
30
0.0
11
0.814286
21
0.171429
31
0.0
0
LINE
8
LEFT
10
0.814286
20
0.225000
30
0.0
11
0.814286
21
0.171429
31
0.0
0
LINE
8
LEFT
10
0.792857
20
0.921429
30
0.0
11
0.814286
21
0.921429
31
0.0
0
LINE
8
LEFT
10
0.792857
20
0.921429
30
0.0
11
0.792857
21
0.867857
31
0.0
0
LINE
8
LEFT
10
0.814286
20
0.921429
30
0.0
11
0.814286
21
0.867857
31
0.0
0
LINE
8
LEFT
10
0.814286
20
0.867857
30
0.0
11
0.814286
21
0.225000
31
0.0
0
LINE
8
LEFT
10
0.792857
20
0.867857
30
0.0
11
0.792857
21
0.225000
31
0.0
0
LINE
8
LEFT
10
0.792857
20
0.225000
30
0.0
11
0.814286
21
0.225000
31
0.0
0
LINE
8
LEFT
10
0.792857
20
0.867857
30
0.0
11
0.814286
21
0.867857
31
0.0
0
LINE
8
LEFT_HID
6
HIDDEN
10
0.792857
20
0.171429
30
0.0
11
0.792857
21
0.190340
31
0.0
0
LINE
8
LEFT_HID
6
HIDDEN
10
0.814286
20
0.171429
30
0.0
11
0.814286
21
0.190340
31
0.0
0
LINE
8
LEFT_HID
6
HIDDEN
10
0.814286
20
0.190340
30
0.0
11
0.814286
21
0.510005
31
0.0
0
LINE
8
LEFT_HID
6
HIDDEN
10
0.792857
20
0.190340
30
0.0
11
0.792857
21
0.510005
31
0.0
0
LINE
8
LEFT_HID
6
HIDDEN
10
0.792857
20
0.510005
30
0.0
11
0.792857
21
0.544665
31
0.0
0
LINE
8
LEFT_HID
6
HIDDEN
10
0.814286
20
0.510005
30
0.0
11
0.814286
21
0.544665
31
0.0
0
LINE
8
LEFT_HID
6
HIDDEN
10
0.814286
20
0.544665
30
0.0
11
0.814286
21
0.867857
31
0.0
0
LINE
8
LEFT_HID
6
HIDDEN
10
0.792857
20
0.544665
30
0.0
11
0.792857
21
0.867857
31
0.0
0
LINE
8
LEFT_HID
6
HIDDEN
10
0.792857
20
0.190340
30
0.0
11
0.814286
21
0.190340
31
0.0
0
LINE
8
LEFT_HID
6
HIDDEN
10
0.792857
20
0.510005
30
0.0
11
0.814286
21
0.510005
31
0.0
0
LINE
8
LEFT_HID
6
HIDDEN
10
0.792857
20
0.544665
30
0.0
11
0.814286
21
0.544665
31
0.0
0
LINE
8
TOP
10
0.642857
20
0.021429
30
0.0
11
0.642857
21
0.000000
31
0.0
0
LINE
8
TOP
10
0.642857
20
0.021429
30
0.0
11
0.589286
21
0.021429
31
0.0
0
LINE
8
TOP
10
0.642857
20
0.000000
30
0.0
11
0.589286
21
0.000000
31
0.0
0
LINE
8
TOP
10
0.589286
20
0.000000
30
0.0
11
0.053571
21
0.000000
31
0.0
0
LINE
8
TOP
10
0.589286
20
0.021429
30
0.0
11
0.053571
21
0.021429
31
0.0
0
LINE
8
TOP
10
0.053571
20
0.021429
30
0.0
11
0.000000
21
0.021429
31
0.0
0
LINE
8
TOP
10
0.000000
20
0.021429
30
0.0
11
0.000000
21
0.000000
31
0.0
0
LINE
8
TOP
10
0.053571
20
0.000000
30
0.0
11
0.000000
21
0.000000
31
0.0
0
LINE
8
TOP
10
0.589286
20
0.021429
30
0.0
11
0.589286
21
0.000000
31
0.0
0
LINE
8
TOP
10
0.053571
20
0.021429
30
0.0
11
0.053571
21
0.000000
31
0.0
0
LINE
8
TOP_HID
6
HIDDEN
10
0.053571
20
0.000000
30
0.0
11
0.318055
21
0.000000
31
0.0
0
LINE
8
TOP_HID
6
HIDDEN
10
0.053571
20
0.021429
30
0.0
11
0.318055
21
0.021429
31
0.0
0
LINE
8
TOP_HID
6
HIDDEN
10
0.318055
20
0.021429
30
0.0
11
0.358904
21
0.021429
31
0.0
0
LINE
8
TOP_HID
6
HIDDEN
10
0.318055
20
0.000000
30
0.0
11
0.358904
21
0.000000
31
0.0
0
LINE
8
TOP_HID
6
HIDDEN
10
0.358904
20
0.000000
30
0.0
11
0.630134
21
0.000000
31
0.0
0
LINE
8
TOP_HID
6
HIDDEN
10
0.358904
20
0.021429
30
0.0
11
0.630134
21
0.021429
31
0.0
0
LINE
8
TOP_HID
6
HIDDEN
10
0.630134
20
0.021429
30
0.0
11
0.642857
21
0.021429
31
0.0
0
LINE
8
TOP_HID
6
HIDDEN
10
0.630134
20
0.000000
30
0.0
11
0.642857
21
0.000000
31
0.0
0
LINE
8
TOP_HID
6
HIDDEN
10
0.318055
20
0.021429
30
0.0
11
0.318055
21
0.000000
31
0.0
0
LINE
8
TOP_HID
6
HIDDEN
10
0.358904
20
0.021429
30
0.0
11
0.358904
21
0.000000
31
0.0
0
LINE
8
TOP_HID
6
HIDDEN
10
0.630134
20
0.021429
30
0.0
11
0.630134
21
0.000000
31
0.0
0
ENDSEC
0
EOF
