0
SECTION
2
HEADER
9
$ACADVER
1
AC1009
0
ENDSEC
0
SECTION
2
TABLES
0
TABLE
2
LTYPE
70
3
0
LTYPE
2
CONTINUOUS
70
0
3
Solid line
72
65
73
0
40
0.0
0
LTYPE
2
HIDDEN
70
0
3
__ __ __ __ __
72
65
73
2
40
0.037500
49
0.025013
49
-0.012488
0
LTYPE
2
CENTER
70
0
3
___ _ ___ _ ___
72
65
73
4
40
0.087488
49
0.049988
49
-0.012488
49
0.012488
49
-0.012488
0
ENDTAB
0
TABLE
2
LAYER
70
7
0
LAYER
2
0
70
0
62
7
6
CONTINUOUS
0
LAYER
2
FRONT
70
0
62
7
6
CONTINUOUS
0
LAYER
2
FRONT_HID
70
0
62
7
6
HIDDEN
0
LAYER
2
LEFT
70
0
62
7
6
CONTINUOUS
0
LAYER
2
LEFT_HID
70
0
62
7
6
HIDDEN
0
LAYER
2
TOP
70
0
62
7
6
CONTINUOUS
0
LAYER
2
TOP_HID
70
0
62
7
6
HIDDEN
0
ENDTAB
0
ENDSEC
0
SECTION
2
ENTITIES
0
LINE
8
FRONT
10
0.000000
20
0.900000
30
0.0
11
0.353991
21
0.900000
31
0.0
0
LINE
8
FRONT
10
0.353991
20
0.900000
30
0.0
11
0.353991
21
1.253991
31
0.0
0
LINE
8
FRONT
10
0.000000
20
1.253991
30
0.0
11
0.000000
21
0.900000
31
0.0
0
LINE
8
FRONT
10
0.353991
20
1.253991
30
0.0
11
0.176996
21
1.388983
31
0.0
0
LINE
8
FRONT
10
0.176996
20
1.388983
30
0.0
11
0.000000
21
1.253991
31
0.0
0
LINE
8
FRONT_HID
6
HIDDEN
10
0.000000
20
0.900000
30
0.0
11
0.094785
21
0.900000
31
0.0
0
LINE
8
FRONT_HID
6
HIDDEN
10
0.000000
20
0.900000
30
0.0
11
0.075000
21
0.900000
31
0.0
0
LINE
8
FRONT_HID
6
HIDDEN
10
0.075000
20
0.900000
30
0.0
11
0.000000
21
0.900000
31
0.0
0
LINE
8
FRONT_HID
6
HIDDEN
10
0.094785
20
0.900000
30
0.0
11
0.000000
21
0.900000
31
0.0
0
LINE
8
FRONT_HID
6
HIDDEN
10
0.000000
20
0.900000
30
0.0
11
0.000000
21
0.918750
31
0.0
0
LINE
8
FRONT_HID
6
HIDDEN
10
0.000000
20
0.900000
30
0.0
11
0.000000
21
0.918750
31
0.0
0
LINE
8
FRONT_HID
6
HIDDEN
10
0.000000
20
0.900000
30
0.0
11
0.000000
21
0.918750
31
0.0
0
LINE
8
FRONT_HID
6
HIDDEN
10
0.000000
20
0.900000
30
0.0
11
0.000000
21
0.918750
31
0.0
0
LINE
8
FRONT_HID
6
HIDDEN
10
0.000000
20
1.079723
30
0.0
11
0.000000
21
0.900000
31
0.0
0
LINE
8
FRONT_HID
6
HIDDEN
10
0.000000
20
0.900000
30
0.0
11
0.000000
21
1.079723
31
0.0
0
LINE
8
FRONT_HID
6
HIDDEN
10
0.012607
20
0.918750
30
0.0
11
0.012607
21
0.916069
31
0.0
0
LINE
8
FRONT_HID
6
HIDDEN
10
0.012607
20
0.918750
30
0.0
11
0.094785
21
0.918750
31
0.0
0
LINE
8
FRONT_HID
6
HIDDEN
10
0.094785
20
0.916069
30
0.0
11
0.094785
21
0.918750
31
0.0
0
LINE
8
FRONT_HID
6
HIDDEN
10
0.012607
20
0.916069
30
0.0
11
0.094785
21
0.916069
31
0.0
0
LINE
8
FRONT_HID
6
HIDDEN
10
0.012607
20
0.916069
30
0.0
11
0.012607
21
1.245890
31
0.0
0
LINE
8
FRONT_HID
6
HIDDEN
10
0.012607
20
0.916069
30
0.0
11
0.012607
21
0.918750
31
0.0
0
LINE
8
FRONT_HID
6
HIDDEN
10
0.012607
20
0.916069
30
0.0
11
0.012607
21
1.245890
31
0.0
0
LINE
8
FRONT_HID
6
HIDDEN
10
0.336188
20
0.916069
30
0.0
11
0.012607
21
0.916069
31
0.0
0
LINE
8
FRONT_HID
6
HIDDEN
10
0.336188
20
0.916069
30
0.0
11
0.012607
21
0.916069
31
0.0
0
LINE
8
FRONT_HID
6
HIDDEN
10
0.094785
20
0.916069
30
0.0
11
0.012607
21
0.916069
31
0.0
0
LINE
8
FRONT_HID
6
HIDDEN
10
0.094785
20
0.916069
30
0.0
11
0.094785
21
0.918750
31
0.0
0
LINE
8
FRONT_HID
6
HIDDEN
10
0.094785
20
0.918750
30
0.0
11
0.012607
21
0.918750
31
0.0
0
LINE
8
FRONT_HID
6
HIDDEN
10
0.075000
20
0.918750
30
0.0
11
0.012607
21
0.918750
31
0.0
0
LINE
8
FRONT_HID
6
HIDDEN
10
0.012607
20
0.918750
30
0.0
11
0.075000
21
0.918750
31
0.0
0
LINE
8
FRONT_HID
6
HIDDEN
10
0.336188
20
1.245890
30
0.0
11
0.336188
21
0.916069
31
0.0
0
LINE
8
FRONT_HID
6
HIDDEN
10
0.012607
20
1.245890
30
0.0
11
0.336188
21
1.245890
31
0.0
0
LINE
8
FRONT_HID
6
HIDDEN
10
0.012607
20
1.245890
30
0.0
11
0.336188
21
1.245890
31
0.0
0
LINE
8
FRONT_HID
6
HIDDEN
10
0.336188
20
1.245890
30
0.0
11
0.336188
21
0.916069
31
0.0
0
LINE
8
LEFT
10
0.534518
20
0.900000
30
0.0
11
0.547954
21
0.900000
31
0.0
0
LINE
8
LEFT
10
0.640532
20
0.900000
30
0.0
11
0.659665
21
0.900000
31
0.0
0
LINE
8
LEFT
10
0.503991
20
0.900000
30
0.0
11
0.534518
21
0.900000
31
0.0
0
LINE
8
LEFT
10
0.659665
20
0.900000
30
0.0
11
1.117450
21
0.900000
31
0.0
0
LINE
8
LEFT
10
1.210029
20
0.900000
30
0.0
11
1.117450
21
0.900000
31
0.0
0
LINE
8
LEFT
10
1.210029
20
0.900000
30
0.0
11
1.253991
21
0.900000
31
0.0
0
LINE
8
LEFT
10
0.640532
20
0.900000
30
0.0
11
0.547954
21
0.900000
31
0.0
0
LINE
8
LEFT
10
0.503991
20
1.253991
30
0.0
11
0.503991
21
0.900000
31
0.0
0
LINE
8
LEFT
10
1.253991
20
1.253991
30
0.0
11
1.253991
21
0.900000
31
0.0
0
LINE
8
LEFT
10
0.503991
20
1.253991
30
0.0
11
1.253991
21
1.253991
31
0.0
0
LINE
8
LEFT
10
0.503991
20
1.388983
30
0.0
11
0.503991
21
1.253991
31
0.0
0
LINE
8
LEFT
10
0.503991
20
1.388983
30
0.0
11
1.253991
21
1.388983
31
0.0
0
LINE
8
LEFT
10
1.253991
20
1.388983
30
0.0
11
1.253991
21
1.253991
31
0.0
0
LINE
8
LEFT_HID
6
HIDDEN
10
0.534518
20
0.900000
30
0.0
11
0.659665
21
0.900000
31
0.0
0
LINE
8
LEFT_HID
6
HIDDEN
10
0.503991
20
0.900000
30
0.0
11
1.253991
21
0.900000
31
0.0
0
LINE
8
LEFT_HID
6
HIDDEN
10
0.503991
20
1.251365
30
0.0
11
0.503991
21
0.907498
31
0.0
0
LINE
8
LEFT_HID
6
HIDDEN
10
0.503991
20
0.907498
30
0.0
11
0.503991
21
1.251365
31
0.0
0
LINE
8
LEFT_HID
6
HIDDEN
10
0.503991
20
1.245890
30
0.0
11
0.503991
21
0.916069
31
0.0
0
LINE
8
LEFT_HID
6
HIDDEN
10
0.503991
20
0.916069
30
0.0
11
0.503991
21
1.245890
31
0.0
0
LINE
8
LEFT_HID
6
HIDDEN
10
0.534518
20
0.918750
30
0.0
11
0.534518
21
0.916069
31
0.0
0
LINE
8
LEFT_HID
6
HIDDEN
10
0.534518
20
0.916069
30
0.0
11
0.534518
21
0.918750
31
0.0
0
LINE
8
LEFT_HID
6
HIDDEN
10
0.522741
20
0.916069
30
0.0
11
0.522741
21
1.245890
31
0.0
0
LINE
8
LEFT_HID
6
HIDDEN
10
0.522741
20
0.916069
30
0.0
11
0.534518
21
0.916069
31
0.0
0
LINE
8
LEFT_HID
6
HIDDEN
10
0.534518
20
0.918750
30
0.0
11
0.547954
21
0.918750
31
0.0
0
LINE
8
LEFT_HID
6
HIDDEN
10
0.547954
20
0.918750
30
0.0
11
0.640532
21
0.918750
31
0.0
0
LINE
8
LEFT_HID
6
HIDDEN
10
0.640532
20
0.918750
30
0.0
11
0.659665
21
0.918750
31
0.0
0
LINE
8
LEFT_HID
6
HIDDEN
10
0.659665
20
0.916069
30
0.0
11
0.659665
21
0.918750
31
0.0
0
LINE
8
LEFT_HID
6
HIDDEN
10
0.659665
20
0.916069
30
0.0
11
1.235241
21
0.916069
31
0.0
0
LINE
8
LEFT_HID
6
HIDDEN
10
1.235241
20
0.916069
30
0.0
11
1.235241
21
1.245890
31
0.0
0
LINE
8
LEFT_HID
6
HIDDEN
10
0.522741
20
1.245890
30
0.0
11
1.235241
21
1.245890
31
0.0
0
LINE
8
LEFT_HID
6
HIDDEN
10
0.522741
20
0.916069
30
0.0
11
1.235241
21
0.916069
31
0.0
0
LINE
8
LEFT_HID
6
HIDDEN
10
0.534518
20
0.916069
30
0.0
11
0.659665
21
0.916069
31
0.0
0
LINE
8
LEFT_HID
6
HIDDEN
10
0.534518
20
0.918750
30
0.0
11
0.659665
21
0.918750
31
0.0
0
LINE
8
LEFT_HID
6
HIDDEN
10
0.659665
20
0.916069
30
0.0
11
0.659665
21
0.918750
31
0.0
0
LINE
8
LEFT_HID
6
HIDDEN
10
0.547954
20
0.918750
30
0.0
11
0.640532
21
0.918750
31
0.0
0
LINE
8
LEFT_HID
6
HIDDEN
10
0.522741
20
1.245890
30
0.0
11
0.522741
21
0.916069
31
0.0
0
LINE
8
LEFT_HID
6
HIDDEN
10
0.522741
20
1.245890
30
0.0
11
1.235241
21
1.245890
31
0.0
0
LINE
8
LEFT_HID
6
HIDDEN
10
1.235241
20
1.245890
30
0.0
11
1.235241
21
0.916069
31
0.0
0
LINE
8
TOP
10
0.353991
20
0.750000
30
0.0
11
0.353991
21
0.000000
31
0.0
0
LINE
8
TOP
10
0.000000
20
0.750000
30
0.0
11
0.000000
21
0.000000
31
0.0
0
LINE
8
TOP
10
0.353991
20
0.750000
30
0.0
11
0.176996
21
0.750000
31
0.0
0
LINE
8
TOP
10
0.176996
20
0.750000
30
0.0
11
0.000000
21
0.750000
31
0.0
0
LINE
8
TOP
10
0.353991
20
0.000000
30
0.0
11
0.176996
21
0.000000
31
0.0
0
LINE
8
TOP
10
0.176996
20
0.750000
30
0.0
11
0.176996
21
0.000000
31
0.0
0
LINE
8
TOP
10
0.176996
20
0.000000
30
0.0
11
0.000000
21
0.000000
31
0.0
0
LINE
8
TOP_HID
6
HIDDEN
10
0.000000
20
0.719473
30
0.0
11
0.000000
21
0.706037
31
0.0
0
LINE
8
TOP_HID
6
HIDDEN
10
0.000000
20
0.613459
30
0.0
11
0.000000
21
0.594326
31
0.0
0
LINE
8
TOP_HID
6
HIDDEN
10
0.000000
20
0.750000
30
0.0
11
0.353991
21
0.750000
31
0.0
0
LINE
8
TOP_HID
6
HIDDEN
10
0.000000
20
0.750000
30
0.0
11
0.000000
21
0.719473
31
0.0
0
LINE
8
TOP_HID
6
HIDDEN
10
0.000000
20
0.594326
30
0.0
11
0.000000
21
0.136541
31
0.0
0
LINE
8
TOP_HID
6
HIDDEN
10
0.000000
20
0.043963
30
0.0
11
0.000000
21
0.136541
31
0.0
0
LINE
8
TOP_HID
6
HIDDEN
10
0.000000
20
0.043963
30
0.0
11
0.000000
21
0.000000
31
0.0
0
LINE
8
TOP_HID
6
HIDDEN
10
0.000000
20
0.000000
30
0.0
11
0.353991
21
0.000000
31
0.0
0
LINE
8
TOP_HID
6
HIDDEN
10
0.000000
20
0.594326
30
0.0
11
0.000000
21
0.613459
31
0.0
0
LINE
8
TOP_HID
6
HIDDEN
10
0.000000
20
0.613459
30
0.0
11
0.000000
21
0.706037
31
0.0
0
LINE
8
TOP_HID
6
HIDDEN
10
0.000000
20
0.706037
30
0.0
11
0.000000
21
0.719473
31
0.0
0
LINE
8
TOP_HID
6
HIDDEN
10
0.000000
20
0.750000
30
0.0
11
0.353991
21
0.750000
31
0.0
0
LINE
8
TOP_HID
6
HIDDEN
10
0.006323
20
0.750000
30
0.0
11
0.350218
21
0.750000
31
0.0
0
LINE
8
TOP_HID
6
HIDDEN
10
0.350218
20
0.750000
30
0.0
11
0.006323
21
0.750000
31
0.0
0
LINE
8
TOP_HID
6
HIDDEN
10
0.000000
20
0.000000
30
0.0
11
0.353991
21
0.000000
31
0.0
0
LINE
8
TOP_HID
6
HIDDEN
10
0.000000
20
0.136541
30
0.0
11
0.000000
21
0.043963
31
0.0
0
LINE
8
TOP_HID
6
HIDDEN
10
0.000000
20
0.613459
30
0.0
11
0.000000
21
0.706037
31
0.0
0
LINE
8
TOP_HID
6
HIDDEN
10
0.336188
20
0.750000
30
0.0
11
0.012607
21
0.750000
31
0.0
0
LINE
8
TOP_HID
6
HIDDEN
10
0.012607
20
0.750000
30
0.0
11
0.336188
21
0.750000
31
0.0
0
LINE
8
TOP_HID
6
HIDDEN
10
0.012607
20
0.719473
30
0.0
11
0.094785
21
0.719473
31
0.0
0
LINE
8
TOP_HID
6
HIDDEN
10
0.012607
20
0.719473
30
0.0
11
0.094785
21
0.719473
31
0.0
0
LINE
8
TOP_HID
6
HIDDEN
10
0.012607
20
0.731250
30
0.0
11
0.012607
21
0.719473
31
0.0
0
LINE
8
TOP_HID
6
HIDDEN
10
0.012607
20
0.719473
30
0.0
11
0.012607
21
0.706037
31
0.0
0
LINE
8
TOP_HID
6
HIDDEN
10
0.012607
20
0.706037
30
0.0
11
0.012607
21
0.613459
31
0.0
0
LINE
8
TOP_HID
6
HIDDEN
10
0.012607
20
0.613459
30
0.0
11
0.012607
21
0.594326
31
0.0
0
LINE
8
TOP_HID
6
HIDDEN
10
0.012607
20
0.594326
30
0.0
11
0.012607
21
0.018750
31
0.0
0
LINE
8
TOP_HID
6
HIDDEN
10
0.012607
20
0.731250
30
0.0
11
0.012607
21
0.018750
31
0.0
0
LINE
8
TOP_HID
6
HIDDEN
10
0.336188
20
0.731250
30
0.0
11
0.012607
21
0.731250
31
0.0
0
LINE
8
TOP_HID
6
HIDDEN
10
0.336188
20
0.731250
30
0.0
11
0.336188
21
0.018750
31
0.0
0
LINE
8
TOP_HID
6
HIDDEN
10
0.336188
20
0.018750
30
0.0
11
0.012607
21
0.018750
31
0.0
0
LINE
8
TOP_HID
6
HIDDEN
10
0.094785
20
0.594326
30
0.0
11
0.012607
21
0.594326
31
0.0
0
LINE
8
TOP_HID
6
HIDDEN
10
0.094785
20
0.719473
30
0.0
11
0.094785
21
0.594326
31
0.0
0
LINE
8
TOP_HID
6
HIDDEN
10
0.094785
20
0.719473
30
0.0
11
0.094785
21
0.594326
31
0.0
0
LINE
8
TOP_HID
6
HIDDEN
10
0.094785
20
0.594326
30
0.0
11
0.012607
21
0.594326
31
0.0
0
LINE
8
TOP_HID
6
HIDDEN
10
0.012607
20
0.731250
30
0.0
11
0.336188
21
0.731250
31
0.0
0
LINE
8
TOP_HID
6
HIDDEN
10
0.012607
20
0.018750
30
0.0
11
0.336188
21
0.018750
31
0.0
0
LINE
8
TOP_HID
6
HIDDEN
10
0.336188
20
0.731250
30
0.0
11
0.336188
21
0.018750
31
0.0
0
ENDSEC
0
EOF
