0
SECTION
2
HEADER
9
$ACADVER
1
AC1009
0
ENDSEC
0
SECTION
2
TABLES
0
TABLE
2
LTYPE
70
3
0
LTYPE
2
CONTINUOUS
70
0
3
Solid line
72
65
73
0
40
0.0
0
LTYPE
2
HIDDEN
70
0
3
__ __ __ __ __
72
65
73
2
40
0.037500
49
0.025013
49
-0.012488
0
LTYPE
2
CENTER
70
0
3
___ _ ___ _ ___
72
65
73
4
40
0.087488
49
0.049988
49
-0.012488
49
0.012488
49
-0.012488
0
ENDTAB
0
TABLE
2
LAYER
70
6
0
LAYER
2
0
70
0
62
7
6
CONTINUOUS
0
LAYER
2
FRONT
70
0
62
7
6
CONTINUOUS
0
LAYER
2
LEFT
70
0
62
7
6
CONTINUOUS
0
LAYER
2
LEFT_HID
70
0
62
7
6
HIDDEN
0
LAYER
2
TOP
70
0
62
7
6
CONTINUOUS
0
LAYER
2
TOP_HID
70
0
62
7
6
HIDDEN
0
ENDTAB
0
ENDSEC
0
SECTION
2
ENTITIES
0
LINE
8
FRONT
10
0.000000
20
0.161538
30
0.0
11
0.750000
21
0.161538
31
0.0
0
LINE
8
FRONT
10
0.000000
20
0.392308
30
0.0
11
0.000000
21
0.161538
31
0.0
0
LINE
8
FRONT
10
0.750000
20
0.161538
30
0.0
11
0.750000
21
0.392308
31
0.0
0
LINE
8
FRONT
10
0.750000
20
0.392308
30
0.0
11
0.000000
21
0.392308
31
0.0
0
LINE
8
FRONT
10
0.005769
20
0.167308
30
0.0
11
0.184615
21
0.167308
31
0.0
0
LINE
8
FRONT
10
0.190385
20
0.167308
30
0.0
11
0.372115
21
0.167308
31
0.0
0
LINE
8
FRONT
10
0.377885
20
0.167308
30
0.0
11
0.559615
21
0.167308
31
0.0
0
LINE
8
FRONT
10
0.565385
20
0.167308
30
0.0
11
0.744231
21
0.167308
31
0.0
0
LINE
8
FRONT
10
0.744231
20
0.167308
30
0.0
11
0.744231
21
0.386538
31
0.0
0
LINE
8
FRONT
10
0.744231
20
0.386538
30
0.0
11
0.565385
21
0.386538
31
0.0
0
LINE
8
FRONT
10
0.559615
20
0.386538
30
0.0
11
0.377885
21
0.386538
31
0.0
0
LINE
8
FRONT
10
0.372115
20
0.386538
30
0.0
11
0.190385
21
0.386538
31
0.0
0
LINE
8
FRONT
10
0.184615
20
0.386538
30
0.0
11
0.005769
21
0.386538
31
0.0
0
LINE
8
FRONT
10
0.005769
20
0.386538
30
0.0
11
0.005769
21
0.167308
31
0.0
0
LINE
8
FRONT
10
0.190385
20
0.167308
30
0.0
11
0.190385
21
0.386538
31
0.0
0
LINE
8
FRONT
10
0.184615
20
0.386538
30
0.0
11
0.184615
21
0.167308
31
0.0
0
LINE
8
FRONT
10
0.377885
20
0.167308
30
0.0
11
0.377885
21
0.386538
31
0.0
0
LINE
8
FRONT
10
0.372115
20
0.386538
30
0.0
11
0.372115
21
0.167308
31
0.0
0
LINE
8
FRONT
10
0.565385
20
0.167308
30
0.0
11
0.565385
21
0.386538
31
0.0
0
LINE
8
FRONT
10
0.559615
20
0.386538
30
0.0
11
0.559615
21
0.167308
31
0.0
0
LINE
8
LEFT
10
0.900000
20
0.161538
30
0.0
11
0.911538
21
0.161538
31
0.0
0
LINE
8
LEFT
10
0.900000
20
0.392308
30
0.0
11
0.911538
21
0.392308
31
0.0
0
LINE
8
LEFT
10
0.911538
20
0.392308
30
0.0
11
0.911538
21
0.161538
31
0.0
0
LINE
8
LEFT
10
0.900000
20
0.392308
30
0.0
11
0.900000
21
0.161538
31
0.0
0
LINE
8
LEFT_HID
6
HIDDEN
10
0.900000
20
0.167308
30
0.0
11
0.900000
21
0.386538
31
0.0
0
LINE
8
LEFT_HID
6
HIDDEN
10
0.900000
20
0.386538
30
0.0
11
0.900000
21
0.167308
31
0.0
0
LINE
8
LEFT_HID
6
HIDDEN
10
0.911538
20
0.167308
30
0.0
11
0.911538
21
0.386538
31
0.0
0
LINE
8
LEFT_HID
6
HIDDEN
10
0.911538
20
0.386538
30
0.0
11
0.911538
21
0.167308
31
0.0
0
LINE
8
LEFT_HID
6
HIDDEN
10
0.900000
20
0.167308
30
0.0
11
0.911538
21
0.167308
31
0.0
0
LINE
8
LEFT_HID
6
HIDDEN
10
0.911538
20
0.167308
30
0.0
11
0.900000
21
0.167308
31
0.0
0
LINE
8
LEFT_HID
6
HIDDEN
10
0.900000
20
0.167308
30
0.0
11
0.900000
21
0.386538
31
0.0
0
LINE
8
LEFT_HID
6
HIDDEN
10
0.900000
20
0.386538
30
0.0
11
0.900000
21
0.167308
31
0.0
0
LINE
8
LEFT_HID
6
HIDDEN
10
0.911538
20
0.167308
30
0.0
11
0.900000
21
0.167308
31
0.0
0
LINE
8
LEFT_HID
6
HIDDEN
10
0.911538
20
0.167308
30
0.0
11
0.900000
21
0.167308
31
0.0
0
LINE
8
LEFT_HID
6
HIDDEN
10
0.900000
20
0.167308
30
0.0
11
0.900000
21
0.386538
31
0.0
0
LINE
8
LEFT_HID
6
HIDDEN
10
0.900000
20
0.386538
30
0.0
11
0.900000
21
0.167308
31
0.0
0
LINE
8
LEFT_HID
6
HIDDEN
10
0.911538
20
0.167308
30
0.0
11
0.900000
21
0.167308
31
0.0
0
LINE
8
LEFT_HID
6
HIDDEN
10
0.911538
20
0.167308
30
0.0
11
0.900000
21
0.167308
31
0.0
0
LINE
8
LEFT_HID
6
HIDDEN
10
0.900000
20
0.167308
30
0.0
11
0.900000
21
0.386538
31
0.0
0
LINE
8
LEFT_HID
6
HIDDEN
10
0.900000
20
0.386538
30
0.0
11
0.900000
21
0.167308
31
0.0
0
LINE
8
LEFT_HID
6
HIDDEN
10
0.911538
20
0.167308
30
0.0
11
0.900000
21
0.167308
31
0.0
0
LINE
8
LEFT_HID
6
HIDDEN
10
0.900000
20
0.167308
30
0.0
11
0.911538
21
0.167308
31
0.0
0
LINE
8
LEFT_HID
6
HIDDEN
10
0.900000
20
0.386538
30
0.0
11
0.911538
21
0.386538
31
0.0
0
LINE
8
LEFT_HID
6
HIDDEN
10
0.911538
20
0.386538
30
0.0
11
0.900000
21
0.386538
31
0.0
0
LINE
8
LEFT_HID
6
HIDDEN
10
0.911538
20
0.386538
30
0.0
11
0.900000
21
0.386538
31
0.0
0
LINE
8
LEFT_HID
6
HIDDEN
10
0.911538
20
0.386538
30
0.0
11
0.900000
21
0.386538
31
0.0
0
LINE
8
LEFT_HID
6
HIDDEN
10
0.911538
20
0.386538
30
0.0
11
0.900000
21
0.386538
31
0.0
0
LINE
8
LEFT_HID
6
HIDDEN
10
0.911538
20
0.386538
30
0.0
11
0.900000
21
0.386538
31
0.0
0
LINE
8
LEFT_HID
6
HIDDEN
10
0.911538
20
0.386538
30
0.0
11
0.900000
21
0.386538
31
0.0
0
LINE
8
LEFT_HID
6
HIDDEN
10
0.900000
20
0.386538
30
0.0
11
0.911538
21
0.386538
31
0.0
0
LINE
8
LEFT_HID
6
HIDDEN
10
0.911538
20
0.167308
30
0.0
11
0.911538
21
0.386538
31
0.0
0
LINE
8
LEFT_HID
6
HIDDEN
10
0.911538
20
0.386538
30
0.0
11
0.911538
21
0.167308
31
0.0
0
LINE
8
LEFT_HID
6
HIDDEN
10
0.911538
20
0.167308
30
0.0
11
0.911538
21
0.386538
31
0.0
0
LINE
8
LEFT_HID
6
HIDDEN
10
0.911538
20
0.386538
30
0.0
11
0.911538
21
0.167308
31
0.0
0
LINE
8
LEFT_HID
6
HIDDEN
10
0.911538
20
0.167308
30
0.0
11
0.911538
21
0.386538
31
0.0
0
LINE
8
LEFT_HID
6
HIDDEN
10
0.911538
20
0.386538
30
0.0
11
0.911538
21
0.167308
31
0.0
0
LINE
8
TOP
10
0.000000
20
0.011538
30
0.0
11
0.000000
21
0.000000
31
0.0
0
LINE
8
TOP
10
0.750000
20
0.011538
30
0.0
11
0.750000
21
0.000000
31
0.0
0
LINE
8
TOP
10
0.750000
20
0.011538
30
0.0
11
0.000000
21
0.011538
31
0.0
0
LINE
8
TOP
10
0.750000
20
0.000000
30
0.0
11
0.000000
21
0.000000
31
0.0
0
LINE
8
TOP_HID
6
HIDDEN
10
0.005769
20
0.011538
30
0.0
11
0.184615
21
0.011538
31
0.0
0
LINE
8
TOP_HID
6
HIDDEN
10
0.184615
20
0.011538
30
0.0
11
0.190385
21
0.011538
31
0.0
0
LINE
8
TOP_HID
6
HIDDEN
10
0.190385
20
0.011538
30
0.0
11
0.372115
21
0.011538
31
0.0
0
LINE
8
TOP_HID
6
HIDDEN
10
0.372115
20
0.011538
30
0.0
11
0.377885
21
0.011538
31
0.0
0
LINE
8
TOP_HID
6
HIDDEN
10
0.377885
20
0.011538
30
0.0
11
0.559615
21
0.011538
31
0.0
0
LINE
8
TOP_HID
6
HIDDEN
10
0.559615
20
0.011538
30
0.0
11
0.565385
21
0.011538
31
0.0
0
LINE
8
TOP_HID
6
HIDDEN
10
0.565385
20
0.011538
30
0.0
11
0.744231
21
0.011538
31
0.0
0
LINE
8
TOP_HID
6
HIDDEN
10
0.744231
20
0.011538
30
0.0
11
0.565385
21
0.011538
31
0.0
0
LINE
8
TOP_HID
6
HIDDEN
10
0.565385
20
0.011538
30
0.0
11
0.559615
21
0.011538
31
0.0
0
LINE
8
TOP_HID
6
HIDDEN
10
0.559615
20
0.011538
30
0.0
11
0.377885
21
0.011538
31
0.0
0
LINE
8
TOP_HID
6
HIDDEN
10
0.377885
20
0.011538
30
0.0
11
0.372115
21
0.011538
31
0.0
0
LINE
8
TOP_HID
6
HIDDEN
10
0.372115
20
0.011538
30
0.0
11
0.190385
21
0.011538
31
0.0
0
LINE
8
TOP_HID
6
HIDDEN
10
0.190385
20
0.011538
30
0.0
11
0.184615
21
0.011538
31
0.0
0
LINE
8
TOP_HID
6
HIDDEN
10
0.184615
20
0.011538
30
0.0
11
0.005769
21
0.011538
31
0.0
0
LINE
8
TOP_HID
6
HIDDEN
10
0.005769
20
0.000000
30
0.0
11
0.184615
21
0.000000
31
0.0
0
LINE
8
TOP_HID
6
HIDDEN
10
0.184615
20
0.000000
30
0.0
11
0.190385
21
0.000000
31
0.0
0
LINE
8
TOP_HID
6
HIDDEN
10
0.190385
20
0.000000
30
0.0
11
0.372115
21
0.000000
31
0.0
0
LINE
8
TOP_HID
6
HIDDEN
10
0.372115
20
0.000000
30
0.0
11
0.377885
21
0.000000
31
0.0
0
LINE
8
TOP_HID
6
HIDDEN
10
0.377885
20
0.000000
30
0.0
11
0.559615
21
0.000000
31
0.0
0
LINE
8
TOP_HID
6
HIDDEN
10
0.559615
20
0.000000
30
0.0
11
0.565385
21
0.000000
31
0.0
0
LINE
8
TOP_HID
6
HIDDEN
10
0.565385
20
0.000000
30
0.0
11
0.744231
21
0.000000
31
0.0
0
LINE
8
TOP_HID
6
HIDDEN
10
0.744231
20
0.000000
30
0.0
11
0.565385
21
0.000000
31
0.0
0
LINE
8
TOP_HID
6
HIDDEN
10
0.565385
20
0.000000
30
0.0
11
0.559615
21
0.000000
31
0.0
0
LINE
8
TOP_HID
6
HIDDEN
10
0.559615
20
0.000000
30
0.0
11
0.377885
21
0.000000
31
0.0
0
LINE
8
TOP_HID
6
HIDDEN
10
0.377885
20
0.000000
30
0.0
11
0.372115
21
0.000000
31
0.0
0
LINE
8
TOP_HID
6
HIDDEN
10
0.372115
20
0.000000
30
0.0
11
0.190385
21
0.000000
31
0.0
0
LINE
8
TOP_HID
6
HIDDEN
10
0.190385
20
0.000000
30
0.0
11
0.184615
21
0.000000
31
0.0
0
LINE
8
TOP_HID
6
HIDDEN
10
0.184615
20
0.000000
30
0.0
11
0.005769
21
0.000000
31
0.0
0
LINE
8
TOP_HID
6
HIDDEN
10
0.005769
20
0.011538
30
0.0
11
0.005769
21
0.000000
31
0.0
0
LINE
8
TOP_HID
6
HIDDEN
10
0.184615
20
0.000000
30
0.0
11
0.184615
21
0.011538
31
0.0
0
LINE
8
TOP_HID
6
HIDDEN
10
0.190385
20
0.000000
30
0.0
11
0.190385
21
0.011538
31
0.0
0
LINE
8
TOP_HID
6
HIDDEN
10
0.372115
20
0.000000
30
0.0
11
0.372115
21
0.011538
31
0.0
0
LINE
8
TOP_HID
6
HIDDEN
10
0.377885
20
0.000000
30
0.0
11
0.377885
21
0.011538
31
0.0
0
LINE
8
TOP_HID
6
HIDDEN
10
0.559615
20
0.000000
30
0.0
11
0.559615
21
0.011538
31
0.0
0
LINE
8
TOP_HID
6
HIDDEN
10
0.565385
20
0.000000
30
0.0
11
0.565385
21
0.011538
31
0.0
0
LINE
8
TOP_HID
6
HIDDEN
10
0.744231
20
0.011538
30
0.0
11
0.744231
21
0.000000
31
0.0
0
LINE
8
TOP_HID
6
HIDDEN
10
0.744231
20
0.011538
30
0.0
11
0.744231
21
0.000000
31
0.0
0
LINE
8
TOP_HID
6
HIDDEN
10
0.565385
20
0.000000
30
0.0
11
0.565385
21
0.011538
31
0.0
0
LINE
8
TOP_HID
6
HIDDEN
10
0.559615
20
0.000000
30
0.0
11
0.559615
21
0.011538
31
0.0
0
LINE
8
TOP_HID
6
HIDDEN
10
0.377885
20
0.000000
30
0.0
11
0.377885
21
0.011538
31
0.0
0
LINE
8
TOP_HID
6
HIDDEN
10
0.372115
20
0.000000
30
0.0
11
0.372115
21
0.011538
31
0.0
0
LINE
8
TOP_HID
6
HIDDEN
10
0.190385
20
0.000000
30
0.0
11
0.190385
21
0.011538
31
0.0
0
LINE
8
TOP_HID
6
HIDDEN
10
0.184615
20
0.000000
30
0.0
11
0.184615
21
0.011538
31
0.0
0
LINE
8
TOP_HID
6
HIDDEN
10
0.005769
20
0.011538
30
0.0
11
0.005769
21
0.000000
31
0.0
0
ENDSEC
0
EOF
