0
SECTION
2
HEADER
9
$ACADVER
1
AC1009
0
ENDSEC
0
SECTION
2
TABLES
0
TABLE
2
LTYPE
70
3
0
LTYPE
2
CONTINUOUS
70
0
3
Solid line
72
65
73
0
40
0.0
0
LTYPE
2
HIDDEN
70
0
3
__ __ __ __ __
72
65
73
2
40
0.048559
49
0.032389
49
-0.016170
0
LTYPE
2
CENTER
70
0
3
___ _ ___ _ ___
72
65
73
4
40
0.113288
49
0.064729
49
-0.016170
49
0.016170
49
-0.016170
0
ENDTAB
0
TABLE
2
LAYER
70
6
0
LAYER
2
0
70
0
62
7
6
CONTINUOUS
0
LAYER
2
FRONT
70
0
62
7
6
CONTINUOUS
0
LAYER
2
FRONT_HID
70
0
62
7
6
HIDDEN
0
LAYER
2
LEFT
70
0
62
7
6
CONTINUOUS
0
LAYER
2
LEFT_HID
70
0
62
7
6
HIDDEN
0
LAYER
2
TOP
70
0
62
7
6
CONTINUOUS
0
ENDTAB
0
ENDSEC
0
SECTION
2
ENTITIES
0
LINE
8
FRONT
10
0.971175
20
0.729626
30
0.0
11
0.000000
21
0.729626
31
0.0
0
LINE
8
FRONT
10
0.971175
20
0.729626
30
0.0
11
0.971175
21
1.066300
31
0.0
0
LINE
8
FRONT
10
0.971175
20
1.066300
30
0.0
11
0.000000
21
1.066300
31
0.0
0
LINE
8
FRONT
10
0.000000
20
0.729626
30
0.0
11
0.000000
21
1.066300
31
0.0
0
LINE
8
FRONT_HID
6
HIDDEN
10
0.472004
20
0.729626
30
0.0
11
0.472004
21
0.931630
31
0.0
0
LINE
8
FRONT_HID
6
HIDDEN
10
0.472004
20
0.931630
30
0.0
11
0.565683
21
0.931630
31
0.0
0
LINE
8
FRONT_HID
6
HIDDEN
10
0.565683
20
0.729626
30
0.0
11
0.565683
21
0.931630
31
0.0
0
LINE
8
FRONT_HID
6
HIDDEN
10
0.472004
20
0.729626
30
0.0
11
0.565683
21
0.729626
31
0.0
0
LINE
8
FRONT_HID
6
HIDDEN
10
0.472004
20
0.729626
30
0.0
11
0.472004
21
0.931630
31
0.0
0
LINE
8
FRONT_HID
6
HIDDEN
10
0.565683
20
0.729626
30
0.0
11
0.565683
21
0.931630
31
0.0
0
LINE
8
FRONT_HID
6
HIDDEN
10
0.472004
20
0.729626
30
0.0
11
0.565683
21
0.729626
31
0.0
0
LINE
8
FRONT_HID
6
HIDDEN
10
0.565683
20
0.931630
30
0.0
11
0.472004
21
0.931630
31
0.0
0
LINE
8
FRONT_HID
6
HIDDEN
10
0.349623
20
0.729626
30
0.0
11
0.349623
21
0.965298
31
0.0
0
LINE
8
FRONT_HID
6
HIDDEN
10
0.349623
20
0.965298
30
0.0
11
0.472004
21
0.965298
31
0.0
0
LINE
8
FRONT_HID
6
HIDDEN
10
0.349623
20
0.729626
30
0.0
11
0.472004
21
0.729626
31
0.0
0
LINE
8
FRONT_HID
6
HIDDEN
10
0.565683
20
0.965298
30
0.0
11
0.673348
21
0.965298
31
0.0
0
LINE
8
FRONT_HID
6
HIDDEN
10
0.673348
20
0.729626
30
0.0
11
0.673348
21
0.965298
31
0.0
0
LINE
8
FRONT_HID
6
HIDDEN
10
0.565683
20
0.729626
30
0.0
11
0.673348
21
0.729626
31
0.0
0
LINE
8
FRONT_HID
6
HIDDEN
10
0.349623
20
0.729626
30
0.0
11
0.673348
21
0.729626
31
0.0
0
LINE
8
FRONT_HID
6
HIDDEN
10
0.472004
20
0.965298
30
0.0
11
0.565683
21
0.965298
31
0.0
0
LINE
8
FRONT_HID
6
HIDDEN
10
0.349623
20
0.729626
30
0.0
11
0.349623
21
0.965298
31
0.0
0
LINE
8
FRONT_HID
6
HIDDEN
10
0.673348
20
0.965298
30
0.0
11
0.349623
21
0.965298
31
0.0
0
LINE
8
FRONT_HID
6
HIDDEN
10
0.673348
20
0.729626
30
0.0
11
0.673348
21
0.965298
31
0.0
0
LINE
8
FRONT_HID
6
HIDDEN
10
0.000000
20
0.729626
30
0.0
11
0.133806
21
0.729626
31
0.0
0
LINE
8
FRONT_HID
6
HIDDEN
10
0.133806
20
0.729626
30
0.0
11
0.271930
21
0.729626
31
0.0
0
LINE
8
FRONT_HID
6
HIDDEN
10
0.271930
20
0.729626
30
0.0
11
0.349623
21
0.729626
31
0.0
0
LINE
8
FRONT_HID
6
HIDDEN
10
0.673348
20
0.729626
30
0.0
11
0.781257
21
0.729626
31
0.0
0
LINE
8
FRONT_HID
6
HIDDEN
10
0.781257
20
0.729626
30
0.0
11
0.919379
21
0.729626
31
0.0
0
LINE
8
FRONT_HID
6
HIDDEN
10
0.919379
20
0.729626
30
0.0
11
0.971175
21
0.729626
31
0.0
0
LINE
8
FRONT_HID
6
HIDDEN
10
0.271930
20
0.729626
30
0.0
11
0.271930
21
0.931630
31
0.0
0
LINE
8
FRONT_HID
6
HIDDEN
10
0.271930
20
1.066300
30
0.0
11
0.349623
21
1.066300
31
0.0
0
LINE
8
FRONT_HID
6
HIDDEN
10
0.349623
20
1.066300
30
0.0
11
0.673348
21
1.066300
31
0.0
0
LINE
8
FRONT_HID
6
HIDDEN
10
0.673348
20
1.066300
30
0.0
11
0.781257
21
1.066300
31
0.0
0
LINE
8
FRONT_HID
6
HIDDEN
10
0.781257
20
0.729626
30
0.0
11
0.781257
21
0.931630
31
0.0
0
LINE
8
FRONT_HID
6
HIDDEN
10
0.000000
20
1.066300
30
0.0
11
0.133806
21
1.066300
31
0.0
0
LINE
8
FRONT_HID
6
HIDDEN
10
0.133806
20
0.729626
30
0.0
11
0.133806
21
0.931630
31
0.0
0
LINE
8
FRONT_HID
6
HIDDEN
10
0.133806
20
0.729626
30
0.0
11
0.271930
21
0.729626
31
0.0
0
LINE
8
FRONT_HID
6
HIDDEN
10
0.781257
20
0.729626
30
0.0
11
0.919379
21
0.729626
31
0.0
0
LINE
8
FRONT_HID
6
HIDDEN
10
0.919379
20
0.729626
30
0.0
11
0.919379
21
0.931630
31
0.0
0
LINE
8
FRONT_HID
6
HIDDEN
10
0.919379
20
1.066300
30
0.0
11
0.971175
21
1.066300
31
0.0
0
LINE
8
FRONT_HID
6
HIDDEN
10
0.271930
20
0.729626
30
0.0
11
0.271930
21
0.931630
31
0.0
0
LINE
8
FRONT_HID
6
HIDDEN
10
0.271930
20
0.931630
30
0.0
11
0.133806
21
0.931630
31
0.0
0
LINE
8
FRONT_HID
6
HIDDEN
10
0.133806
20
1.066300
30
0.0
11
0.271930
21
1.066300
31
0.0
0
LINE
8
FRONT_HID
6
HIDDEN
10
0.781257
20
1.066300
30
0.0
11
0.919379
21
1.066300
31
0.0
0
LINE
8
FRONT_HID
6
HIDDEN
10
0.781257
20
0.729626
30
0.0
11
0.781257
21
0.931630
31
0.0
0
LINE
8
FRONT_HID
6
HIDDEN
10
0.919379
20
0.931630
30
0.0
11
0.781257
21
0.931630
31
0.0
0
LINE
8
FRONT_HID
6
HIDDEN
10
0.133806
20
0.729626
30
0.0
11
0.133806
21
0.931630
31
0.0
0
LINE
8
FRONT_HID
6
HIDDEN
10
0.133806
20
0.931630
30
0.0
11
0.271930
21
0.931630
31
0.0
0
LINE
8
FRONT_HID
6
HIDDEN
10
0.781257
20
0.931630
30
0.0
11
0.919379
21
0.931630
31
0.0
0
LINE
8
FRONT_HID
6
HIDDEN
10
0.919379
20
0.729626
30
0.0
11
0.919379
21
0.931630
31
0.0
0
LINE
8
LEFT
10
1.700801
20
0.729626
30
0.0
11
1.700801
21
0.931630
31
0.0
0
LINE
8
LEFT
10
1.679055
20
0.931630
30
0.0
11
1.700801
21
0.931630
31
0.0
0
LINE
8
LEFT
10
1.679055
20
0.729626
30
0.0
11
1.700801
21
0.729626
31
0.0
0
LINE
8
LEFT
10
1.679055
20
0.729626
30
0.0
11
1.679055
21
0.965298
31
0.0
0
LINE
8
LEFT
10
1.584095
20
0.729626
30
0.0
11
1.679055
21
0.729626
31
0.0
0
LINE
8
LEFT
10
1.502085
20
0.965298
30
0.0
11
1.679055
21
0.965298
31
0.0
0
LINE
8
LEFT
10
1.165411
20
0.729626
30
0.0
11
1.502085
21
0.729626
31
0.0
0
LINE
8
LEFT
10
1.502085
20
0.729626
30
0.0
11
1.502085
21
1.066300
31
0.0
0
LINE
8
LEFT
10
1.502085
20
0.729626
30
0.0
11
1.584095
21
0.729626
31
0.0
0
LINE
8
LEFT
10
1.165411
20
0.729626
30
0.0
11
1.165411
21
1.066300
31
0.0
0
LINE
8
LEFT
10
1.165411
20
1.066300
30
0.0
11
1.502085
21
1.066300
31
0.0
0
LINE
8
LEFT
10
1.502085
20
0.931630
30
0.0
11
1.584095
21
0.931630
31
0.0
0
LINE
8
LEFT
10
1.584095
20
0.729626
30
0.0
11
1.584095
21
0.931630
31
0.0
0
LINE
8
LEFT_HID
6
HIDDEN
10
1.679055
20
0.729626
30
0.0
11
1.679055
21
0.931630
31
0.0
0
LINE
8
LEFT_HID
6
HIDDEN
10
1.679055
20
0.729626
30
0.0
11
1.679055
21
0.931630
31
0.0
0
LINE
8
LEFT_HID
6
HIDDEN
10
1.679055
20
0.931630
30
0.0
11
1.679055
21
0.965298
31
0.0
0
LINE
8
LEFT_HID
6
HIDDEN
10
1.679055
20
0.931630
30
0.0
11
1.679055
21
0.965298
31
0.0
0
LINE
8
LEFT_HID
6
HIDDEN
10
1.679055
20
0.729626
30
0.0
11
1.502085
21
0.729626
31
0.0
0
LINE
8
LEFT_HID
6
HIDDEN
10
1.502085
20
0.729626
30
0.0
11
1.502085
21
0.965298
31
0.0
0
LINE
8
LEFT_HID
6
HIDDEN
10
1.502085
20
0.729626
30
0.0
11
1.502085
21
0.965298
31
0.0
0
LINE
8
LEFT_HID
6
HIDDEN
10
1.502085
20
0.729626
30
0.0
11
1.502085
21
0.931630
31
0.0
0
LINE
8
LEFT_HID
6
HIDDEN
10
1.502085
20
0.931630
30
0.0
11
1.502085
21
1.066300
31
0.0
0
LINE
8
LEFT_HID
6
HIDDEN
10
1.502085
20
0.965298
30
0.0
11
1.502085
21
1.066300
31
0.0
0
LINE
8
LEFT_HID
6
HIDDEN
10
1.502085
20
0.965298
30
0.0
11
1.502085
21
1.066300
31
0.0
0
LINE
8
LEFT_HID
6
HIDDEN
10
1.502085
20
0.931630
30
0.0
11
1.502085
21
1.066300
31
0.0
0
LINE
8
LEFT_HID
6
HIDDEN
10
1.502085
20
0.729626
30
0.0
11
1.502085
21
0.931630
31
0.0
0
LINE
8
LEFT_HID
6
HIDDEN
10
1.502085
20
0.931630
30
0.0
11
1.502085
21
1.066300
31
0.0
0
LINE
8
LEFT_HID
6
HIDDEN
10
1.502085
20
0.729626
30
0.0
11
1.502085
21
0.931630
31
0.0
0
LINE
8
LEFT_HID
6
HIDDEN
10
1.502085
20
0.729626
30
0.0
11
1.502085
21
0.931630
31
0.0
0
LINE
8
LEFT_HID
6
HIDDEN
10
1.502085
20
0.931630
30
0.0
11
1.502085
21
1.066300
31
0.0
0
LINE
8
TOP
10
0.472004
20
0.000000
30
0.0
11
0.565683
21
0.000000
31
0.0
0
LINE
8
TOP
10
0.472004
20
0.021746
30
0.0
11
0.472004
21
0.000000
31
0.0
0
LINE
8
TOP
10
0.565683
20
0.000000
30
0.0
11
0.565683
21
0.021746
31
0.0
0
LINE
8
TOP
10
0.349623
20
0.021746
30
0.0
11
0.472004
21
0.021746
31
0.0
0
LINE
8
TOP
10
0.565683
20
0.021746
30
0.0
11
0.673348
21
0.021746
31
0.0
0
LINE
8
TOP
10
0.472004
20
0.021746
30
0.0
11
0.565683
21
0.021746
31
0.0
0
LINE
8
TOP
10
0.349623
20
0.198716
30
0.0
11
0.349623
21
0.021746
31
0.0
0
LINE
8
TOP
10
0.673348
20
0.021746
30
0.0
11
0.673348
21
0.198716
31
0.0
0
LINE
8
TOP
10
0.271930
20
0.198716
30
0.0
11
0.349623
21
0.198716
31
0.0
0
LINE
8
TOP
10
0.349623
20
0.198716
30
0.0
11
0.673348
21
0.198716
31
0.0
0
LINE
8
TOP
10
0.673348
20
0.198716
30
0.0
11
0.781257
21
0.198716
31
0.0
0
LINE
8
TOP
10
0.000000
20
0.198716
30
0.0
11
0.133806
21
0.198716
31
0.0
0
LINE
8
TOP
10
0.919379
20
0.198716
30
0.0
11
0.971175
21
0.198716
31
0.0
0
LINE
8
TOP
10
0.971175
20
0.198716
30
0.0
11
0.971175
21
0.535391
31
0.0
0
LINE
8
TOP
10
0.971175
20
0.535391
30
0.0
11
0.000000
21
0.535391
31
0.0
0
LINE
8
TOP
10
0.000000
20
0.535391
30
0.0
11
0.000000
21
0.198716
31
0.0
0
LINE
8
TOP
10
0.271930
20
0.116706
30
0.0
11
0.271930
21
0.198716
31
0.0
0
LINE
8
TOP
10
0.133806
20
0.198716
30
0.0
11
0.271930
21
0.198716
31
0.0
0
LINE
8
TOP
10
0.781257
20
0.198716
30
0.0
11
0.919379
21
0.198716
31
0.0
0
LINE
8
TOP
10
0.781257
20
0.198716
30
0.0
11
0.781257
21
0.116706
31
0.0
0
LINE
8
TOP
10
0.133806
20
0.198716
30
0.0
11
0.133806
21
0.116706
31
0.0
0
LINE
8
TOP
10
0.133806
20
0.116706
30
0.0
11
0.271930
21
0.116706
31
0.0
0
LINE
8
TOP
10
0.781257
20
0.116706
30
0.0
11
0.919379
21
0.116706
31
0.0
0
LINE
8
TOP
10
0.919379
20
0.116706
30
0.0
11
0.919379
21
0.198716
31
0.0
0
ENDSEC
0
EOF
