0
SECTION
2
HEADER
9
$ACADVER
1
AC1009
0
ENDSEC
0
SECTION
2
TABLES
0
TABLE
2
LTYPE
70
3
0
LTYPE
2
CONTINUOUS
70
0
3
Solid line
72
65
73
0
40
0.0
0
LTYPE
2
HIDDEN
70
0
3
__ __ __ __ __
72
65
73
2
40
0.075000
49
0.050025
49
-0.024975
0
LTYPE
2
CENTER
70
0
3
___ _ ___ _ ___
72
65
73
4
40
0.174975
49
0.099975
49
-0.024975
49
0.024975
49
-0.024975
0
ENDTAB
0
TABLE
2
LAYER
70
7
0
LAYER
2
0
70
0
62
7
6
CONTINUOUS
0
LAYER
2
FRONT
70
0
62
7
6
CONTINUOUS
0
LAYER
2
FRONT_HID
70
0
62
7
6
HIDDEN
0
LAYER
2
LEFT
70
0
62
7
6
CONTINUOUS
0
LAYER
2
LEFT_HID
70
0
62
7
6
HIDDEN
0
LAYER
2
TOP
70
0
62
7
6
CONTINUOUS
0
LAYER
2
TOP_HID
70
0
62
7
6
HIDDEN
0
ENDTAB
0
ENDSEC
0
SECTION
2
ENTITIES
0
LINE
8
FRONT
10
0.000000
20
1.227892
30
0.0
11
0.003727
21
1.153216
31
0.0
0
LINE
8
FRONT
10
0.003727
20
1.153216
30
0.0
11
0.014871
21
1.079282
31
0.0
0
LINE
8
FRONT
10
0.014871
20
1.079282
30
0.0
11
0.033320
21
1.006826
31
0.0
0
LINE
8
FRONT
10
0.033320
20
1.006826
30
0.0
11
0.058893
21
0.936566
31
0.0
0
LINE
8
FRONT
10
0.058893
20
0.936566
30
0.0
11
0.091334
21
0.869201
31
0.0
0
LINE
8
FRONT
10
0.091334
20
0.869201
30
0.0
11
0.130321
21
0.805402
31
0.0
0
LINE
8
FRONT
10
0.130321
20
0.805402
30
0.0
11
0.175467
21
0.745801
31
0.0
0
LINE
8
FRONT
10
0.175467
20
0.745801
30
0.0
11
0.226322
21
0.690992
31
0.0
0
LINE
8
FRONT
10
0.226322
20
0.690992
30
0.0
11
0.282383
21
0.641518
31
0.0
0
LINE
8
FRONT
10
0.282383
20
0.641518
30
0.0
11
0.343090
21
0.597872
31
0.0
0
LINE
8
FRONT
10
0.343090
20
0.597872
30
0.0
11
0.407842
21
0.560488
31
0.0
0
LINE
8
FRONT
10
0.407842
20
0.560488
30
0.0
11
0.475994
21
0.529737
31
0.0
0
LINE
8
FRONT
10
0.475994
20
0.529737
30
0.0
11
0.546870
21
0.505924
31
0.0
0
LINE
8
FRONT
10
0.546870
20
0.505924
30
0.0
11
0.619764
21
0.489286
31
0.0
0
LINE
8
FRONT
10
0.619764
20
0.489286
30
0.0
11
0.693952
21
0.479989
31
0.0
0
LINE
8
FRONT
10
0.693952
20
0.479989
30
0.0
11
0.768698
21
0.478125
31
0.0
0
LINE
8
FRONT
10
0.768698
20
0.478125
30
0.0
11
0.843258
21
0.483712
31
0.0
0
LINE
8
FRONT
10
0.843258
20
0.483712
30
0.0
11
0.916891
21
0.496696
31
0.0
0
LINE
8
FRONT
10
0.916891
20
0.496696
30
0.0
11
0.988865
21
0.516946
31
0.0
0
LINE
8
FRONT
10
0.988865
20
0.516946
30
0.0
11
1.058465
21
0.544262
31
0.0
0
LINE
8
FRONT
10
1.058465
20
0.544262
30
0.0
11
1.125000
21
0.578373
31
0.0
0
LINE
8
FRONT
10
1.125000
20
0.578373
30
0.0
11
1.187808
21
0.618938
31
0.0
0
LINE
8
FRONT
10
1.187808
20
0.618938
30
0.0
11
1.246264
21
0.665556
31
0.0
0
LINE
8
FRONT
10
1.246264
20
0.665556
30
0.0
11
1.299789
21
0.717762
31
0.0
0
LINE
8
FRONT
10
1.299789
20
0.717762
30
0.0
11
1.347849
21
0.775039
31
0.0
0
LINE
8
FRONT
10
1.347849
20
0.775039
30
0.0
11
1.389968
21
0.836815
31
0.0
0
LINE
8
FRONT
10
1.389968
20
0.836815
30
0.0
11
1.425727
21
0.902479
31
0.0
0
LINE
8
FRONT
10
1.425727
20
0.902479
30
0.0
11
1.454769
21
0.971377
31
0.0
0
LINE
8
FRONT
10
1.454769
20
0.971377
30
0.0
11
1.476808
21
1.042824
31
0.0
0
LINE
8
FRONT
10
1.476808
20
1.042824
30
0.0
11
1.491623
21
1.116110
31
0.0
0
LINE
8
FRONT
10
1.491623
20
1.116110
30
0.0
11
1.499068
21
1.190507
31
0.0
0
LINE
8
FRONT
10
1.499068
20
1.190507
30
0.0
11
1.499068
21
1.265276
31
0.0
0
LINE
8
FRONT
10
1.499068
20
1.265276
30
0.0
11
1.491623
21
1.339674
31
0.0
0
LINE
8
FRONT
10
1.491623
20
1.339674
30
0.0
11
1.476808
21
1.412960
31
0.0
0
LINE
8
FRONT
10
1.476808
20
1.412960
30
0.0
11
1.454769
21
1.484407
31
0.0
0
LINE
8
FRONT
10
1.454769
20
1.484407
30
0.0
11
1.425727
21
1.553305
31
0.0
0
LINE
8
FRONT
10
1.425727
20
1.553305
30
0.0
11
1.389968
21
1.618968
31
0.0
0
LINE
8
FRONT
10
1.389968
20
1.618968
30
0.0
11
1.347849
21
1.680745
31
0.0
0
LINE
8
FRONT
10
1.347849
20
1.680745
30
0.0
11
1.299789
21
1.738021
31
0.0
0
LINE
8
FRONT
10
1.299789
20
1.738021
30
0.0
11
1.246264
21
1.790228
31
0.0
0
LINE
8
FRONT
10
1.246264
20
1.790228
30
0.0
11
1.187808
21
1.836845
31
0.0
0
LINE
8
FRONT
10
1.187808
20
1.836845
30
0.0
11
1.125000
21
1.877411
31
0.0
0
LINE
8
FRONT
10
1.125000
20
1.877411
30
0.0
11
1.058465
21
1.911521
31
0.0
0
LINE
8
FRONT
10
1.058465
20
1.911521
30
0.0
11
0.988865
21
1.938837
31
0.0
0
LINE
8
FRONT
10
0.988865
20
1.938837
30
0.0
11
0.916891
21
1.959088
31
0.0
0
LINE
8
FRONT
10
0.916891
20
1.959088
30
0.0
11
0.843258
21
1.972071
31
0.0
0
LINE
8
FRONT
10
0.843258
20
1.972071
30
0.0
11
0.768698
21
1.977659
31
0.0
0
LINE
8
FRONT
10
0.768698
20
1.977659
30
0.0
11
0.693952
21
1.975795
31
0.0
0
LINE
8
FRONT
10
0.693952
20
1.975795
30
0.0
11
0.619764
21
1.966498
31
0.0
0
LINE
8
FRONT
10
0.619764
20
1.966498
30
0.0
11
0.546870
21
1.949860
31
0.0
0
LINE
8
FRONT
10
0.546870
20
1.949860
30
0.0
11
0.475994
21
1.926047
31
0.0
0
LINE
8
FRONT
10
0.475994
20
1.926047
30
0.0
11
0.407842
21
1.895296
31
0.0
0
LINE
8
FRONT
10
0.407842
20
1.895296
30
0.0
11
0.343090
21
1.857911
31
0.0
0
LINE
8
FRONT
10
0.343090
20
1.857911
30
0.0
11
0.282383
21
1.814265
31
0.0
0
LINE
8
FRONT
10
0.282383
20
1.814265
30
0.0
11
0.226322
21
1.764792
31
0.0
0
LINE
8
FRONT
10
0.226322
20
1.764792
30
0.0
11
0.175467
21
1.709983
31
0.0
0
LINE
8
FRONT
10
0.175467
20
1.709983
30
0.0
11
0.130321
21
1.650382
31
0.0
0
LINE
8
FRONT
10
0.130321
20
1.650382
30
0.0
11
0.091334
21
1.586582
31
0.0
0
LINE
8
FRONT
10
0.091334
20
1.586582
30
0.0
11
0.058893
21
1.519218
31
0.0
0
LINE
8
FRONT
10
0.058893
20
1.519218
30
0.0
11
0.033320
21
1.448958
31
0.0
0
LINE
8
FRONT
10
0.033320
20
1.448958
30
0.0
11
0.014871
21
1.376501
31
0.0
0
LINE
8
FRONT
10
0.014871
20
1.376501
30
0.0
11
0.003727
21
1.302568
31
0.0
0
LINE
8
FRONT
10
0.003727
20
1.302568
30
0.0
11
0.000000
21
1.227892
31
0.0
0
LINE
8
FRONT_HID
6
HIDDEN
10
0.126562
20
1.227892
30
0.0
11
0.129660
21
1.165818
31
0.0
0
LINE
8
FRONT_HID
6
HIDDEN
10
0.129660
20
1.165818
30
0.0
11
0.138924
21
1.104360
31
0.0
0
LINE
8
FRONT_HID
6
HIDDEN
10
0.138924
20
1.104360
30
0.0
11
0.154260
21
1.044130
31
0.0
0
LINE
8
FRONT_HID
6
HIDDEN
10
0.154260
20
1.044130
30
0.0
11
0.175517
21
0.985727
31
0.0
0
LINE
8
FRONT_HID
6
HIDDEN
10
0.175517
20
0.985727
30
0.0
11
0.202484
21
0.929730
31
0.0
0
LINE
8
FRONT_HID
6
HIDDEN
10
0.202484
20
0.929730
30
0.0
11
0.234892
21
0.876697
31
0.0
0
LINE
8
FRONT_HID
6
HIDDEN
10
0.234892
20
0.876697
30
0.0
11
0.272419
21
0.827154
31
0.0
0
LINE
8
FRONT_HID
6
HIDDEN
10
0.272419
20
0.827154
30
0.0
11
0.314693
21
0.781594
31
0.0
0
LINE
8
FRONT_HID
6
HIDDEN
10
0.314693
20
0.781594
30
0.0
11
0.361293
21
0.740469
31
0.0
0
LINE
8
FRONT_HID
6
HIDDEN
10
0.361293
20
0.740469
30
0.0
11
0.411756
21
0.704188
31
0.0
0
LINE
8
FRONT_HID
6
HIDDEN
10
0.411756
20
0.704188
30
0.0
11
0.465581
21
0.673112
31
0.0
0
LINE
8
FRONT_HID
6
HIDDEN
10
0.465581
20
0.673112
30
0.0
11
0.522233
21
0.647550
31
0.0
0
LINE
8
FRONT_HID
6
HIDDEN
10
0.522233
20
0.647550
30
0.0
11
0.581148
21
0.627756
31
0.0
0
LINE
8
FRONT_HID
6
HIDDEN
10
0.581148
20
0.627756
30
0.0
11
0.641741
21
0.613926
31
0.0
0
LINE
8
FRONT_HID
6
HIDDEN
10
0.641741
20
0.613926
30
0.0
11
0.703410
21
0.606198
31
0.0
0
LINE
8
FRONT_HID
6
HIDDEN
10
0.703410
20
0.606198
30
0.0
11
0.765543
21
0.604648
31
0.0
0
LINE
8
FRONT_HID
6
HIDDEN
10
0.765543
20
0.604648
30
0.0
11
0.827521
21
0.609293
31
0.0
0
LINE
8
FRONT_HID
6
HIDDEN
10
0.827521
20
0.609293
30
0.0
11
0.888728
21
0.620085
31
0.0
0
LINE
8
FRONT_HID
6
HIDDEN
10
0.888728
20
0.620085
30
0.0
11
0.948557
21
0.636918
31
0.0
0
LINE
8
FRONT_HID
6
HIDDEN
10
0.948557
20
0.636918
30
0.0
11
1.006412
21
0.659625
31
0.0
0
LINE
8
FRONT_HID
6
HIDDEN
10
1.006412
20
0.659625
30
0.0
11
1.061719
21
0.687979
31
0.0
0
LINE
8
FRONT_HID
6
HIDDEN
10
1.061719
20
0.687979
30
0.0
11
1.113928
21
0.721699
31
0.0
0
LINE
8
FRONT_HID
6
HIDDEN
10
1.113928
20
0.721699
30
0.0
11
1.162520
21
0.760450
31
0.0
0
LINE
8
FRONT_HID
6
HIDDEN
10
1.162520
20
0.760450
30
0.0
11
1.207012
21
0.803847
31
0.0
0
LINE
8
FRONT_HID
6
HIDDEN
10
1.207012
20
0.803847
30
0.0
11
1.246962
21
0.851458
31
0.0
0
LINE
8
FRONT_HID
6
HIDDEN
10
1.246962
20
0.851458
30
0.0
11
1.281974
21
0.902810
31
0.0
0
LINE
8
FRONT_HID
6
HIDDEN
10
1.281974
20
0.902810
30
0.0
11
1.311698
21
0.957392
31
0.0
0
LINE
8
FRONT_HID
6
HIDDEN
10
1.311698
20
0.957392
30
0.0
11
1.335840
21
1.014664
31
0.0
0
LINE
8
FRONT_HID
6
HIDDEN
10
1.335840
20
1.014664
30
0.0
11
1.354159
21
1.074054
31
0.0
0
LINE
8
FRONT_HID
6
HIDDEN
10
1.354159
20
1.074054
30
0.0
11
1.366474
21
1.134973
31
0.0
0
LINE
8
FRONT_HID
6
HIDDEN
10
1.366474
20
1.134973
30
0.0
11
1.372663
21
1.196816
31
0.0
0
LINE
8
FRONT_HID
6
HIDDEN
10
1.372663
20
1.196816
30
0.0
11
1.372663
21
1.258968
31
0.0
0
LINE
8
FRONT_HID
6
HIDDEN
10
1.372663
20
1.258968
30
0.0
11
1.366474
21
1.320810
31
0.0
0
LINE
8
FRONT_HID
6
HIDDEN
10
1.366474
20
1.320810
30
0.0
11
1.354159
21
1.381730
31
0.0
0
LINE
8
FRONT_HID
6
HIDDEN
10
1.354159
20
1.381730
30
0.0
11
1.335840
21
1.441120
31
0.0
0
LINE
8
FRONT_HID
6
HIDDEN
10
1.335840
20
1.441120
30
0.0
11
1.311698
21
1.498391
31
0.0
0
LINE
8
FRONT_HID
6
HIDDEN
10
1.311698
20
1.498391
30
0.0
11
1.281974
21
1.552974
31
0.0
0
LINE
8
FRONT_HID
6
HIDDEN
10
1.281974
20
1.552974
30
0.0
11
1.246962
21
1.604326
31
0.0
0
LINE
8
FRONT_HID
6
HIDDEN
10
1.246962
20
1.604326
30
0.0
11
1.207012
21
1.651937
31
0.0
0
LINE
8
FRONT_HID
6
HIDDEN
10
1.207012
20
1.651937
30
0.0
11
1.162520
21
1.695334
31
0.0
0
LINE
8
FRONT_HID
6
HIDDEN
10
1.162520
20
1.695334
30
0.0
11
1.113928
21
1.734085
31
0.0
0
LINE
8
FRONT_HID
6
HIDDEN
10
1.113928
20
1.734085
30
0.0
11
1.061719
21
1.767805
31
0.0
0
LINE
8
FRONT_HID
6
HIDDEN
10
1.061719
20
1.767805
30
0.0
11
1.006412
21
1.796159
31
0.0
0
LINE
8
FRONT_HID
6
HIDDEN
10
1.006412
20
1.796159
30
0.0
11
0.948557
21
1.818865
31
0.0
0
LINE
8
FRONT_HID
6
HIDDEN
10
0.948557
20
1.818865
30
0.0
11
0.888728
21
1.835699
31
0.0
0
LINE
8
FRONT_HID
6
HIDDEN
10
0.888728
20
1.835699
30
0.0
11
0.827521
21
1.846491
31
0.0
0
LINE
8
FRONT_HID
6
HIDDEN
10
0.827521
20
1.846491
30
0.0
11
0.765543
21
1.851136
31
0.0
0
LINE
8
FRONT_HID
6
HIDDEN
10
0.765543
20
1.851136
30
0.0
11
0.703410
21
1.849586
31
0.0
0
LINE
8
FRONT_HID
6
HIDDEN
10
0.703410
20
1.849586
30
0.0
11
0.641741
21
1.841858
31
0.0
0
LINE
8
FRONT_HID
6
HIDDEN
10
0.641741
20
1.841858
30
0.0
11
0.581148
21
1.828028
31
0.0
0
LINE
8
FRONT_HID
6
HIDDEN
10
0.581148
20
1.828028
30
0.0
11
0.522233
21
1.808234
31
0.0
0
LINE
8
FRONT_HID
6
HIDDEN
10
0.522233
20
1.808234
30
0.0
11
0.465581
21
1.782671
31
0.0
0
LINE
8
FRONT_HID
6
HIDDEN
10
0.465581
20
1.782671
30
0.0
11
0.411756
21
1.751596
31
0.0
0
LINE
8
FRONT_HID
6
HIDDEN
10
0.411756
20
1.751596
30
0.0
11
0.361293
21
1.715315
31
0.0
0
LINE
8
FRONT_HID
6
HIDDEN
10
0.361293
20
1.715315
30
0.0
11
0.314693
21
1.674190
31
0.0
0
LINE
8
FRONT_HID
6
HIDDEN
10
0.314693
20
1.674190
30
0.0
11
0.272419
21
1.628630
31
0.0
0
LINE
8
FRONT_HID
6
HIDDEN
10
0.272419
20
1.628630
30
0.0
11
0.234892
21
1.579087
31
0.0
0
LINE
8
FRONT_HID
6
HIDDEN
10
0.234892
20
1.579087
30
0.0
11
0.202484
21
1.526053
31
0.0
0
LINE
8
FRONT_HID
6
HIDDEN
10
0.202484
20
1.526053
30
0.0
11
0.175517
21
1.470057
31
0.0
0
LINE
8
FRONT_HID
6
HIDDEN
10
0.175517
20
1.470057
30
0.0
11
0.154260
21
1.411653
31
0.0
0
LINE
8
FRONT_HID
6
HIDDEN
10
0.154260
20
1.411653
30
0.0
11
0.138924
21
1.351424
31
0.0
0
LINE
8
FRONT_HID
6
HIDDEN
10
0.138924
20
1.351424
30
0.0
11
0.129660
21
1.289966
31
0.0
0
LINE
8
FRONT_HID
6
HIDDEN
10
0.129660
20
1.289966
30
0.0
11
0.126562
21
1.227892
31
0.0
0
LINE
8
FRONT_HID
6
HIDDEN
10
0.126562
20
1.227892
30
0.0
11
0.129660
21
1.165818
31
0.0
0
LINE
8
FRONT_HID
6
HIDDEN
10
0.129660
20
1.165818
30
0.0
11
0.138924
21
1.104360
31
0.0
0
LINE
8
FRONT_HID
6
HIDDEN
10
0.138924
20
1.104360
30
0.0
11
0.154260
21
1.044130
31
0.0
0
LINE
8
FRONT_HID
6
HIDDEN
10
0.154260
20
1.044130
30
0.0
11
0.175517
21
0.985727
31
0.0
0
LINE
8
FRONT_HID
6
HIDDEN
10
0.175517
20
0.985727
30
0.0
11
0.202484
21
0.929730
31
0.0
0
LINE
8
FRONT_HID
6
HIDDEN
10
0.202484
20
0.929730
30
0.0
11
0.234892
21
0.876697
31
0.0
0
LINE
8
FRONT_HID
6
HIDDEN
10
0.234892
20
0.876697
30
0.0
11
0.272419
21
0.827154
31
0.0
0
LINE
8
FRONT_HID
6
HIDDEN
10
0.272419
20
0.827154
30
0.0
11
0.314693
21
0.781594
31
0.0
0
LINE
8
FRONT_HID
6
HIDDEN
10
0.314693
20
0.781594
30
0.0
11
0.361293
21
0.740469
31
0.0
0
LINE
8
FRONT_HID
6
HIDDEN
10
0.361293
20
0.740469
30
0.0
11
0.411756
21
0.704188
31
0.0
0
LINE
8
FRONT_HID
6
HIDDEN
10
0.411756
20
0.704188
30
0.0
11
0.465581
21
0.673112
31
0.0
0
LINE
8
FRONT_HID
6
HIDDEN
10
0.465581
20
0.673112
30
0.0
11
0.522233
21
0.647550
31
0.0
0
LINE
8
FRONT_HID
6
HIDDEN
10
0.522233
20
0.647550
30
0.0
11
0.581148
21
0.627756
31
0.0
0
LINE
8
FRONT_HID
6
HIDDEN
10
0.581148
20
0.627756
30
0.0
11
0.641741
21
0.613926
31
0.0
0
LINE
8
FRONT_HID
6
HIDDEN
10
0.641741
20
0.613926
30
0.0
11
0.703410
21
0.606198
31
0.0
0
LINE
8
FRONT_HID
6
HIDDEN
10
0.703410
20
0.606198
30
0.0
11
0.765543
21
0.604648
31
0.0
0
LINE
8
FRONT_HID
6
HIDDEN
10
0.765543
20
0.604648
30
0.0
11
0.827521
21
0.609293
31
0.0
0
LINE
8
FRONT_HID
6
HIDDEN
10
0.827521
20
0.609293
30
0.0
11
0.888728
21
0.620085
31
0.0
0
LINE
8
FRONT_HID
6
HIDDEN
10
0.888728
20
0.620085
30
0.0
11
0.948557
21
0.636918
31
0.0
0
LINE
8
FRONT_HID
6
HIDDEN
10
0.948557
20
0.636918
30
0.0
11
1.006412
21
0.659625
31
0.0
0
LINE
8
FRONT_HID
6
HIDDEN
10
1.006412
20
0.659625
30
0.0
11
1.061719
21
0.687979
31
0.0
0
LINE
8
FRONT_HID
6
HIDDEN
10
1.061719
20
0.687979
30
0.0
11
1.113928
21
0.721699
31
0.0
0
LINE
8
FRONT_HID
6
HIDDEN
10
1.113928
20
0.721699
30
0.0
11
1.162520
21
0.760450
31
0.0
0
LINE
8
FRONT_HID
6
HIDDEN
10
1.162520
20
0.760450
30
0.0
11
1.207012
21
0.803847
31
0.0
0
LINE
8
FRONT_HID
6
HIDDEN
10
1.207012
20
0.803847
30
0.0
11
1.246962
21
0.851458
31
0.0
0
LINE
8
FRONT_HID
6
HIDDEN
10
1.246962
20
0.851458
30
0.0
11
1.281974
21
0.902810
31
0.0
0
LINE
8
FRONT_HID
6
HIDDEN
10
1.281974
20
0.902810
30
0.0
11
1.311698
21
0.957392
31
0.0
0
LINE
8
FRONT_HID
6
HIDDEN
10
1.311698
20
0.957392
30
0.0
11
1.335840
21
1.014664
31
0.0
0
LINE
8
FRONT_HID
6
HIDDEN
10
1.335840
20
1.014664
30
0.0
11
1.354159
21
1.074054
31
0.0
0
LINE
8
FRONT_HID
6
HIDDEN
10
1.354159
20
1.074054
30
0.0
11
1.366474
21
1.134973
31
0.0
0
LINE
8
FRONT_HID
6
HIDDEN
10
1.366474
20
1.134973
30
0.0
11
1.372663
21
1.196816
31
0.0
0
LINE
8
FRONT_HID
6
HIDDEN
10
1.372663
20
1.196816
30
0.0
11
1.372663
21
1.258968
31
0.0
0
LINE
8
FRONT_HID
6
HIDDEN
10
1.372663
20
1.258968
30
0.0
11
1.366474
21
1.320810
31
0.0
0
LINE
8
FRONT_HID
6
HIDDEN
10
1.366474
20
1.320810
30
0.0
11
1.354159
21
1.381730
31
0.0
0
LINE
8
FRONT_HID
6
HIDDEN
10
1.354159
20
1.381730
30
0.0
11
1.335840
21
1.441120
31
0.0
0
LINE
8
FRONT_HID
6
HIDDEN
10
1.335840
20
1.441120
30
0.0
11
1.311698
21
1.498391
31
0.0
0
LINE
8
FRONT_HID
6
HIDDEN
10
1.311698
20
1.498391
30
0.0
11
1.281974
21
1.552974
31
0.0
0
LINE
8
FRONT_HID
6
HIDDEN
10
1.281974
20
1.552974
30
0.0
11
1.246962
21
1.604326
31
0.0
0
LINE
8
FRONT_HID
6
HIDDEN
10
1.246962
20
1.604326
30
0.0
11
1.207012
21
1.651937
31
0.0
0
LINE
8
FRONT_HID
6
HIDDEN
10
1.207012
20
1.651937
30
0.0
11
1.162520
21
1.695334
31
0.0
0
LINE
8
FRONT_HID
6
HIDDEN
10
1.162520
20
1.695334
30
0.0
11
1.113928
21
1.734085
31
0.0
0
LINE
8
FRONT_HID
6
HIDDEN
10
1.113928
20
1.734085
30
0.0
11
1.061719
21
1.767805
31
0.0
0
LINE
8
FRONT_HID
6
HIDDEN
10
1.061719
20
1.767805
30
0.0
11
1.006412
21
1.796159
31
0.0
0
LINE
8
FRONT_HID
6
HIDDEN
10
1.006412
20
1.796159
30
0.0
11
0.948557
21
1.818865
31
0.0
0
LINE
8
FRONT_HID
6
HIDDEN
10
0.948557
20
1.818865
30
0.0
11
0.888728
21
1.835699
31
0.0
0
LINE
8
FRONT_HID
6
HIDDEN
10
0.888728
20
1.835699
30
0.0
11
0.827521
21
1.846491
31
0.0
0
LINE
8
FRONT_HID
6
HIDDEN
10
0.827521
20
1.846491
30
0.0
11
0.765543
21
1.851136
31
0.0
0
LINE
8
FRONT_HID
6
HIDDEN
10
0.765543
20
1.851136
30
0.0
11
0.703410
21
1.849586
31
0.0
0
LINE
8
FRONT_HID
6
HIDDEN
10
0.703410
20
1.849586
30
0.0
11
0.641741
21
1.841858
31
0.0
0
LINE
8
FRONT_HID
6
HIDDEN
10
0.641741
20
1.841858
30
0.0
11
0.581148
21
1.828028
31
0.0
0
LINE
8
FRONT_HID
6
HIDDEN
10
0.581148
20
1.828028
30
0.0
11
0.522233
21
1.808234
31
0.0
0
LINE
8
FRONT_HID
6
HIDDEN
10
0.522233
20
1.808234
30
0.0
11
0.465581
21
1.782671
31
0.0
0
LINE
8
FRONT_HID
6
HIDDEN
10
0.465581
20
1.782671
30
0.0
11
0.411756
21
1.751596
31
0.0
0
LINE
8
FRONT_HID
6
HIDDEN
10
0.411756
20
1.751596
30
0.0
11
0.361293
21
1.715315
31
0.0
0
LINE
8
FRONT_HID
6
HIDDEN
10
0.361293
20
1.715315
30
0.0
11
0.314693
21
1.674190
31
0.0
0
LINE
8
FRONT_HID
6
HIDDEN
10
0.314693
20
1.674190
30
0.0
11
0.272419
21
1.628630
31
0.0
0
LINE
8
FRONT_HID
6
HIDDEN
10
0.272419
20
1.628630
30
0.0
11
0.234892
21
1.579087
31
0.0
0
LINE
8
FRONT_HID
6
HIDDEN
10
0.234892
20
1.579087
30
0.0
11
0.202484
21
1.526053
31
0.0
0
LINE
8
FRONT_HID
6
HIDDEN
10
0.202484
20
1.526053
30
0.0
11
0.175517
21
1.470057
31
0.0
0
LINE
8
FRONT_HID
6
HIDDEN
10
0.175517
20
1.470057
30
0.0
11
0.154260
21
1.411653
31
0.0
0
LINE
8
FRONT_HID
6
HIDDEN
10
0.154260
20
1.411653
30
0.0
11
0.138924
21
1.351424
31
0.0
0
LINE
8
FRONT_HID
6
HIDDEN
10
0.138924
20
1.351424
30
0.0
11
0.129660
21
1.289966
31
0.0
0
LINE
8
FRONT_HID
6
HIDDEN
10
0.129660
20
1.289966
30
0.0
11
0.126562
21
1.227892
31
0.0
0
LINE
8
FRONT_HID
6
HIDDEN
10
0.145312
20
1.227892
30
0.0
11
0.148317
21
1.167684
31
0.0
0
LINE
8
FRONT_HID
6
HIDDEN
10
0.148317
20
1.167684
30
0.0
11
0.157302
21
1.108075
31
0.0
0
LINE
8
FRONT_HID
6
HIDDEN
10
0.157302
20
1.108075
30
0.0
11
0.172177
21
1.049657
31
0.0
0
LINE
8
FRONT_HID
6
HIDDEN
10
0.172177
20
1.049657
30
0.0
11
0.192795
21
0.993010
31
0.0
0
LINE
8
FRONT_HID
6
HIDDEN
10
0.192795
20
0.993010
30
0.0
11
0.218950
21
0.938698
31
0.0
0
LINE
8
FRONT_HID
6
HIDDEN
10
0.218950
20
0.938698
30
0.0
11
0.250384
21
0.887259
31
0.0
0
LINE
8
FRONT_HID
6
HIDDEN
10
0.250384
20
0.887259
30
0.0
11
0.286782
21
0.839206
31
0.0
0
LINE
8
FRONT_HID
6
HIDDEN
10
0.286782
20
0.839206
30
0.0
11
0.327785
21
0.795016
31
0.0
0
LINE
8
FRONT_HID
6
HIDDEN
10
0.327785
20
0.795016
30
0.0
11
0.372983
21
0.755128
31
0.0
0
LINE
8
FRONT_HID
6
HIDDEN
10
0.372983
20
0.755128
30
0.0
11
0.421929
21
0.719939
31
0.0
0
LINE
8
FRONT_HID
6
HIDDEN
10
0.421929
20
0.719939
30
0.0
11
0.474135
21
0.689797
31
0.0
0
LINE
8
FRONT_HID
6
HIDDEN
10
0.474135
20
0.689797
30
0.0
11
0.529083
21
0.665004
31
0.0
0
LINE
8
FRONT_HID
6
HIDDEN
10
0.529083
20
0.665004
30
0.0
11
0.586226
21
0.645805
31
0.0
0
LINE
8
FRONT_HID
6
HIDDEN
10
0.586226
20
0.645805
30
0.0
11
0.644997
21
0.632391
31
0.0
0
LINE
8
FRONT_HID
6
HIDDEN
10
0.644997
20
0.632391
30
0.0
11
0.704812
21
0.624895
31
0.0
0
LINE
8
FRONT_HID
6
HIDDEN
10
0.704812
20
0.624895
30
0.0
11
0.765075
21
0.623392
31
0.0
0
LINE
8
FRONT_HID
6
HIDDEN
10
0.765075
20
0.623392
30
0.0
11
0.825189
21
0.627897
31
0.0
0
LINE
8
FRONT_HID
6
HIDDEN
10
0.825189
20
0.627897
30
0.0
11
0.884556
21
0.638365
31
0.0
0
LINE
8
FRONT_HID
6
HIDDEN
10
0.884556
20
0.638365
30
0.0
11
0.942585
21
0.654692
31
0.0
0
LINE
8
FRONT_HID
6
HIDDEN
10
0.942585
20
0.654692
30
0.0
11
0.998700
21
0.676716
31
0.0
0
LINE
8
FRONT_HID
6
HIDDEN
10
0.998700
20
0.676716
30
0.0
11
1.052344
21
0.704217
31
0.0
0
LINE
8
FRONT_HID
6
HIDDEN
10
1.052344
20
0.704217
30
0.0
11
1.102983
21
0.736923
31
0.0
0
LINE
8
FRONT_HID
6
HIDDEN
10
1.102983
20
0.736923
30
0.0
11
1.150113
21
0.774509
31
0.0
0
LINE
8
FRONT_HID
6
HIDDEN
10
1.150113
20
0.774509
30
0.0
11
1.193267
21
0.816600
31
0.0
0
LINE
8
FRONT_HID
6
HIDDEN
10
1.193267
20
0.816600
30
0.0
11
1.232016
21
0.862779
31
0.0
0
LINE
8
FRONT_HID
6
HIDDEN
10
1.232016
20
0.862779
30
0.0
11
1.265974
21
0.912587
31
0.0
0
LINE
8
FRONT_HID
6
HIDDEN
10
1.265974
20
0.912587
30
0.0
11
1.294805
21
0.965528
31
0.0
0
LINE
8
FRONT_HID
6
HIDDEN
10
1.294805
20
0.965528
30
0.0
11
1.318220
21
1.021077
31
0.0
0
LINE
8
FRONT_HID
6
HIDDEN
10
1.318220
20
1.021077
30
0.0
11
1.335989
21
1.078681
31
0.0
0
LINE
8
FRONT_HID
6
HIDDEN
10
1.335989
20
1.078681
30
0.0
11
1.347934
21
1.137768
31
0.0
0
LINE
8
FRONT_HID
6
HIDDEN
10
1.347934
20
1.137768
30
0.0
11
1.353936
21
1.197751
31
0.0
0
LINE
8
FRONT_HID
6
HIDDEN
10
1.353936
20
1.197751
30
0.0
11
1.353936
21
1.258033
31
0.0
0
LINE
8
FRONT_HID
6
HIDDEN
10
1.353936
20
1.258033
30
0.0
11
1.347934
21
1.318016
31
0.0
0
LINE
8
FRONT_HID
6
HIDDEN
10
1.347934
20
1.318016
30
0.0
11
1.335989
21
1.377103
31
0.0
0
LINE
8
FRONT_HID
6
HIDDEN
10
1.335989
20
1.377103
30
0.0
11
1.318220
21
1.434707
31
0.0
0
LINE
8
FRONT_HID
6
HIDDEN
10
1.318220
20
1.434707
30
0.0
11
1.294805
21
1.490256
31
0.0
0
LINE
8
FRONT_HID
6
HIDDEN
10
1.294805
20
1.490256
30
0.0
11
1.265974
21
1.543197
31
0.0
0
LINE
8
FRONT_HID
6
HIDDEN
10
1.265974
20
1.543197
30
0.0
11
1.232016
21
1.593005
31
0.0
0
LINE
8
FRONT_HID
6
HIDDEN
10
1.232016
20
1.593005
30
0.0
11
1.193267
21
1.639184
31
0.0
0
LINE
8
FRONT_HID
6
HIDDEN
10
1.193267
20
1.639184
30
0.0
11
1.150113
21
1.681275
31
0.0
0
LINE
8
FRONT_HID
6
HIDDEN
10
1.150113
20
1.681275
30
0.0
11
1.102983
21
1.718861
31
0.0
0
LINE
8
FRONT_HID
6
HIDDEN
10
1.102983
20
1.718861
30
0.0
11
1.052344
21
1.751567
31
0.0
0
LINE
8
FRONT_HID
6
HIDDEN
10
1.052344
20
1.751567
30
0.0
11
0.998700
21
1.779068
31
0.0
0
LINE
8
FRONT_HID
6
HIDDEN
10
0.998700
20
1.779068
30
0.0
11
0.942585
21
1.801092
31
0.0
0
LINE
8
FRONT_HID
6
HIDDEN
10
0.942585
20
1.801092
30
0.0
11
0.884556
21
1.817419
31
0.0
0
LINE
8
FRONT_HID
6
HIDDEN
10
0.884556
20
1.817419
30
0.0
11
0.825189
21
1.827887
31
0.0
0
LINE
8
FRONT_HID
6
HIDDEN
10
0.825189
20
1.827887
30
0.0
11
0.765075
21
1.832391
31
0.0
0
LINE
8
FRONT_HID
6
HIDDEN
10
0.765075
20
1.832391
30
0.0
11
0.704812
21
1.830889
31
0.0
0
LINE
8
FRONT_HID
6
HIDDEN
10
0.704812
20
1.830889
30
0.0
11
0.644997
21
1.823393
31
0.0
0
LINE
8
FRONT_HID
6
HIDDEN
10
0.644997
20
1.823393
30
0.0
11
0.586226
21
1.809979
31
0.0
0
LINE
8
FRONT_HID
6
HIDDEN
10
0.586226
20
1.809979
30
0.0
11
0.529083
21
1.790780
31
0.0
0
LINE
8
FRONT_HID
6
HIDDEN
10
0.529083
20
1.790780
30
0.0
11
0.474135
21
1.765986
31
0.0
0
LINE
8
FRONT_HID
6
HIDDEN
10
0.474135
20
1.765986
30
0.0
11
0.421929
21
1.735845
31
0.0
0
LINE
8
FRONT_HID
6
HIDDEN
10
0.421929
20
1.735845
30
0.0
11
0.372983
21
1.700656
31
0.0
0
LINE
8
FRONT_HID
6
HIDDEN
10
0.372983
20
1.700656
30
0.0
11
0.327785
21
1.660768
31
0.0
0
LINE
8
FRONT_HID
6
HIDDEN
10
0.327785
20
1.660768
30
0.0
11
0.286782
21
1.616578
31
0.0
0
LINE
8
FRONT_HID
6
HIDDEN
10
0.286782
20
1.616578
30
0.0
11
0.250384
21
1.568525
31
0.0
0
LINE
8
FRONT_HID
6
HIDDEN
10
0.250384
20
1.568525
30
0.0
11
0.218950
21
1.517086
31
0.0
0
LINE
8
FRONT_HID
6
HIDDEN
10
0.218950
20
1.517086
30
0.0
11
0.192795
21
1.462774
31
0.0
0
LINE
8
FRONT_HID
6
HIDDEN
10
0.192795
20
1.462774
30
0.0
11
0.172177
21
1.406127
31
0.0
0
LINE
8
FRONT_HID
6
HIDDEN
10
0.172177
20
1.406127
30
0.0
11
0.157302
21
1.347708
31
0.0
0
LINE
8
FRONT_HID
6
HIDDEN
10
0.157302
20
1.347708
30
0.0
11
0.148317
21
1.288099
31
0.0
0
LINE
8
FRONT_HID
6
HIDDEN
10
0.148317
20
1.288099
30
0.0
11
0.145312
21
1.227892
31
0.0
0
LINE
8
FRONT_HID
6
HIDDEN
10
0.145312
20
1.227892
30
0.0
11
0.148317
21
1.167684
31
0.0
0
LINE
8
FRONT_HID
6
HIDDEN
10
0.148317
20
1.167684
30
0.0
11
0.157302
21
1.108075
31
0.0
0
LINE
8
FRONT_HID
6
HIDDEN
10
0.157302
20
1.108075
30
0.0
11
0.172177
21
1.049657
31
0.0
0
LINE
8
FRONT_HID
6
HIDDEN
10
0.172177
20
1.049657
30
0.0
11
0.192795
21
0.993010
31
0.0
0
LINE
8
FRONT_HID
6
HIDDEN
10
0.192795
20
0.993010
30
0.0
11
0.218950
21
0.938698
31
0.0
0
LINE
8
FRONT_HID
6
HIDDEN
10
0.218950
20
0.938698
30
0.0
11
0.250384
21
0.887259
31
0.0
0
LINE
8
FRONT_HID
6
HIDDEN
10
0.250384
20
0.887259
30
0.0
11
0.286782
21
0.839206
31
0.0
0
LINE
8
FRONT_HID
6
HIDDEN
10
0.286782
20
0.839206
30
0.0
11
0.327785
21
0.795016
31
0.0
0
LINE
8
FRONT_HID
6
HIDDEN
10
0.327785
20
0.795016
30
0.0
11
0.372983
21
0.755128
31
0.0
0
LINE
8
FRONT_HID
6
HIDDEN
10
0.372983
20
0.755128
30
0.0
11
0.421929
21
0.719939
31
0.0
0
LINE
8
FRONT_HID
6
HIDDEN
10
0.421929
20
0.719939
30
0.0
11
0.474135
21
0.689797
31
0.0
0
LINE
8
FRONT_HID
6
HIDDEN
10
0.474135
20
0.689797
30
0.0
11
0.529083
21
0.665004
31
0.0
0
LINE
8
FRONT_HID
6
HIDDEN
10
0.529083
20
0.665004
30
0.0
11
0.586226
21
0.645805
31
0.0
0
LINE
8
FRONT_HID
6
HIDDEN
10
0.586226
20
0.645805
30
0.0
11
0.644997
21
0.632391
31
0.0
0
LINE
8
FRONT_HID
6
HIDDEN
10
0.644997
20
0.632391
30
0.0
11
0.704812
21
0.624895
31
0.0
0
LINE
8
FRONT_HID
6
HIDDEN
10
0.704812
20
0.624895
30
0.0
11
0.765075
21
0.623392
31
0.0
0
LINE
8
FRONT_HID
6
HIDDEN
10
0.765075
20
0.623392
30
0.0
11
0.825189
21
0.627897
31
0.0
0
LINE
8
FRONT_HID
6
HIDDEN
10
0.825189
20
0.627897
30
0.0
11
0.884556
21
0.638365
31
0.0
0
LINE
8
FRONT_HID
6
HIDDEN
10
0.884556
20
0.638365
30
0.0
11
0.942585
21
0.654692
31
0.0
0
LINE
8
FRONT_HID
6
HIDDEN
10
0.942585
20
0.654692
30
0.0
11
0.998700
21
0.676716
31
0.0
0
LINE
8
FRONT_HID
6
HIDDEN
10
0.998700
20
0.676716
30
0.0
11
1.052344
21
0.704217
31
0.0
0
LINE
8
FRONT_HID
6
HIDDEN
10
1.052344
20
0.704217
30
0.0
11
1.102983
21
0.736923
31
0.0
0
LINE
8
FRONT_HID
6
HIDDEN
10
1.102983
20
0.736923
30
0.0
11
1.150113
21
0.774509
31
0.0
0
LINE
8
FRONT_HID
6
HIDDEN
10
1.150113
20
0.774509
30
0.0
11
1.193267
21
0.816600
31
0.0
0
LINE
8
FRONT_HID
6
HIDDEN
10
1.193267
20
0.816600
30
0.0
11
1.232016
21
0.862779
31
0.0
0
LINE
8
FRONT_HID
6
HIDDEN
10
1.232016
20
0.862779
30
0.0
11
1.265974
21
0.912587
31
0.0
0
LINE
8
FRONT_HID
6
HIDDEN
10
1.265974
20
0.912587
30
0.0
11
1.294805
21
0.965528
31
0.0
0
LINE
8
FRONT_HID
6
HIDDEN
10
1.294805
20
0.965528
30
0.0
11
1.318220
21
1.021077
31
0.0
0
LINE
8
FRONT_HID
6
HIDDEN
10
1.318220
20
1.021077
30
0.0
11
1.335989
21
1.078681
31
0.0
0
LINE
8
FRONT_HID
6
HIDDEN
10
1.335989
20
1.078681
30
0.0
11
1.347934
21
1.137768
31
0.0
0
LINE
8
FRONT_HID
6
HIDDEN
10
1.347934
20
1.137768
30
0.0
11
1.353936
21
1.197751
31
0.0
0
LINE
8
FRONT_HID
6
HIDDEN
10
1.353936
20
1.197751
30
0.0
11
1.353936
21
1.258033
31
0.0
0
LINE
8
FRONT_HID
6
HIDDEN
10
1.353936
20
1.258033
30
0.0
11
1.347934
21
1.318016
31
0.0
0
LINE
8
FRONT_HID
6
HIDDEN
10
1.347934
20
1.318016
30
0.0
11
1.335989
21
1.377103
31
0.0
0
LINE
8
FRONT_HID
6
HIDDEN
10
1.335989
20
1.377103
30
0.0
11
1.318220
21
1.434707
31
0.0
0
LINE
8
FRONT_HID
6
HIDDEN
10
1.318220
20
1.434707
30
0.0
11
1.294805
21
1.490256
31
0.0
0
LINE
8
FRONT_HID
6
HIDDEN
10
1.294805
20
1.490256
30
0.0
11
1.265974
21
1.543197
31
0.0
0
LINE
8
FRONT_HID
6
HIDDEN
10
1.265974
20
1.543197
30
0.0
11
1.232016
21
1.593005
31
0.0
0
LINE
8
FRONT_HID
6
HIDDEN
10
1.232016
20
1.593005
30
0.0
11
1.193267
21
1.639184
31
0.0
0
LINE
8
FRONT_HID
6
HIDDEN
10
1.193267
20
1.639184
30
0.0
11
1.150113
21
1.681275
31
0.0
0
LINE
8
FRONT_HID
6
HIDDEN
10
1.150113
20
1.681275
30
0.0
11
1.102983
21
1.718861
31
0.0
0
LINE
8
FRONT_HID
6
HIDDEN
10
1.102983
20
1.718861
30
0.0
11
1.052344
21
1.751567
31
0.0
0
LINE
8
FRONT_HID
6
HIDDEN
10
1.052344
20
1.751567
30
0.0
11
0.998700
21
1.779068
31
0.0
0
LINE
8
FRONT_HID
6
HIDDEN
10
0.998700
20
1.779068
30
0.0
11
0.942585
21
1.801092
31
0.0
0
LINE
8
FRONT_HID
6
HIDDEN
10
0.942585
20
1.801092
30
0.0
11
0.884556
21
1.817419
31
0.0
0
LINE
8
FRONT_HID
6
HIDDEN
10
0.884556
20
1.817419
30
0.0
11
0.825189
21
1.827887
31
0.0
0
LINE
8
FRONT_HID
6
HIDDEN
10
0.825189
20
1.827887
30
0.0
11
0.765075
21
1.832391
31
0.0
0
LINE
8
FRONT_HID
6
HIDDEN
10
0.765075
20
1.832391
30
0.0
11
0.704812
21
1.830889
31
0.0
0
LINE
8
FRONT_HID
6
HIDDEN
10
0.704812
20
1.830889
30
0.0
11
0.644997
21
1.823393
31
0.0
0
LINE
8
FRONT_HID
6
HIDDEN
10
0.644997
20
1.823393
30
0.0
11
0.586226
21
1.809979
31
0.0
0
LINE
8
FRONT_HID
6
HIDDEN
10
0.586226
20
1.809979
30
0.0
11
0.529083
21
1.790780
31
0.0
0
LINE
8
FRONT_HID
6
HIDDEN
10
0.529083
20
1.790780
30
0.0
11
0.474135
21
1.765986
31
0.0
0
LINE
8
FRONT_HID
6
HIDDEN
10
0.474135
20
1.765986
30
0.0
11
0.421929
21
1.735845
31
0.0
0
LINE
8
FRONT_HID
6
HIDDEN
10
0.421929
20
1.735845
30
0.0
11
0.372983
21
1.700656
31
0.0
0
LINE
8
FRONT_HID
6
HIDDEN
10
0.372983
20
1.700656
30
0.0
11
0.327785
21
1.660768
31
0.0
0
LINE
8
FRONT_HID
6
HIDDEN
10
0.327785
20
1.660768
30
0.0
11
0.286782
21
1.616578
31
0.0
0
LINE
8
FRONT_HID
6
HIDDEN
10
0.286782
20
1.616578
30
0.0
11
0.250384
21
1.568525
31
0.0
0
LINE
8
FRONT_HID
6
HIDDEN
10
0.250384
20
1.568525
30
0.0
11
0.218950
21
1.517086
31
0.0
0
LINE
8
FRONT_HID
6
HIDDEN
10
0.218950
20
1.517086
30
0.0
11
0.192795
21
1.462774
31
0.0
0
LINE
8
FRONT_HID
6
HIDDEN
10
0.192795
20
1.462774
30
0.0
11
0.172177
21
1.406127
31
0.0
0
LINE
8
FRONT_HID
6
HIDDEN
10
0.172177
20
1.406127
30
0.0
11
0.157302
21
1.347708
31
0.0
0
LINE
8
FRONT_HID
6
HIDDEN
10
0.157302
20
1.347708
30
0.0
11
0.148317
21
1.288099
31
0.0
0
LINE
8
FRONT_HID
6
HIDDEN
10
0.148317
20
1.288099
30
0.0
11
0.145312
21
1.227892
31
0.0
0
LINE
8
LEFT
10
1.799068
20
1.228125
30
0.0
11
1.799068
21
0.478125
31
0.0
0
LINE
8
LEFT
10
1.799068
20
1.978125
30
0.0
11
1.799068
21
1.228125
31
0.0
0
LINE
8
LEFT
10
1.827193
20
1.228125
30
0.0
11
1.827193
21
0.478125
31
0.0
0
LINE
8
LEFT
10
1.827193
20
1.978125
30
0.0
11
1.827193
21
1.228125
31
0.0
0
LINE
8
LEFT
10
1.977193
20
1.228125
30
0.0
11
1.977193
21
0.604687
31
0.0
0
LINE
8
LEFT
10
1.977193
20
1.851563
30
0.0
11
1.977193
21
1.228125
31
0.0
0
LINE
8
LEFT
10
1.799068
20
0.478125
30
0.0
11
1.827193
21
0.478125
31
0.0
0
LINE
8
LEFT
10
1.799068
20
1.978125
30
0.0
11
1.827193
21
1.978125
31
0.0
0
LINE
8
LEFT
10
1.977193
20
1.851563
30
0.0
11
1.827193
21
1.851563
31
0.0
0
LINE
8
LEFT
10
1.977193
20
0.604687
30
0.0
11
1.827193
21
0.604687
31
0.0
0
LINE
8
LEFT_HID
6
HIDDEN
10
1.799068
20
0.478125
30
0.0
11
1.799068
21
1.978125
31
0.0
0
LINE
8
LEFT_HID
6
HIDDEN
10
1.827193
20
0.478125
30
0.0
11
1.827193
21
1.978125
31
0.0
0
LINE
8
LEFT_HID
6
HIDDEN
10
1.827193
20
1.228125
30
0.0
11
1.827193
21
0.604687
31
0.0
0
LINE
8
LEFT_HID
6
HIDDEN
10
1.827193
20
0.604687
30
0.0
11
1.827193
21
1.851563
31
0.0
0
LINE
8
LEFT_HID
6
HIDDEN
10
1.827193
20
1.851563
30
0.0
11
1.827193
21
1.228125
31
0.0
0
LINE
8
LEFT_HID
6
HIDDEN
10
1.977193
20
0.604687
30
0.0
11
1.977193
21
1.851563
31
0.0
0
LINE
8
LEFT_HID
6
HIDDEN
10
1.977193
20
1.228125
30
0.0
11
1.977193
21
0.623437
31
0.0
0
LINE
8
LEFT_HID
6
HIDDEN
10
1.977193
20
0.623437
30
0.0
11
1.977193
21
1.832813
31
0.0
0
LINE
8
LEFT_HID
6
HIDDEN
10
1.977193
20
1.832813
30
0.0
11
1.977193
21
1.228125
31
0.0
0
LINE
8
LEFT_HID
6
HIDDEN
10
1.827193
20
1.228125
30
0.0
11
1.827193
21
0.623437
31
0.0
0
LINE
8
LEFT_HID
6
HIDDEN
10
1.827193
20
0.623437
30
0.0
11
1.827193
21
1.832813
31
0.0
0
LINE
8
LEFT_HID
6
HIDDEN
10
1.827193
20
1.832813
30
0.0
11
1.827193
21
1.228125
31
0.0
0
LINE
8
LEFT_HID
6
HIDDEN
10
1.977193
20
1.832813
30
0.0
11
1.827193
21
1.832813
31
0.0
0
LINE
8
LEFT_HID
6
HIDDEN
10
1.977193
20
0.623437
30
0.0
11
1.827193
21
0.623437
31
0.0
0
LINE
8
TOP
10
0.000000
20
0.150000
30
0.0
11
0.000000
21
0.178125
31
0.0
0
LINE
8
TOP
10
1.500000
20
0.178125
30
0.0
11
0.000000
21
0.178125
31
0.0
0
LINE
8
TOP
10
1.500000
20
0.150000
30
0.0
11
0.000000
21
0.150000
31
0.0
0
LINE
8
TOP
10
0.126562
20
0.150000
30
0.0
11
0.126562
21
0.000000
31
0.0
0
LINE
8
TOP
10
1.373438
20
0.000000
30
0.0
11
0.126562
21
0.000000
31
0.0
0
LINE
8
TOP
10
1.500000
20
0.178125
30
0.0
11
1.500000
21
0.150000
31
0.0
0
LINE
8
TOP
10
1.373438
20
0.000000
30
0.0
11
1.373438
21
0.150000
31
0.0
0
LINE
8
TOP_HID
6
HIDDEN
10
0.126562
20
0.150000
30
0.0
11
1.373438
21
0.150000
31
0.0
0
LINE
8
TOP_HID
6
HIDDEN
10
1.373438
20
0.150000
30
0.0
11
0.126562
21
0.150000
31
0.0
0
LINE
8
TOP_HID
6
HIDDEN
10
0.145312
20
0.000000
30
0.0
11
1.354688
21
0.000000
31
0.0
0
LINE
8
TOP_HID
6
HIDDEN
10
1.354688
20
0.000000
30
0.0
11
0.145312
21
0.000000
31
0.0
0
LINE
8
TOP_HID
6
HIDDEN
10
0.145312
20
0.150000
30
0.0
11
1.354688
21
0.150000
31
0.0
0
LINE
8
TOP_HID
6
HIDDEN
10
1.354688
20
0.150000
30
0.0
11
0.145312
21
0.150000
31
0.0
0
LINE
8
TOP_HID
6
HIDDEN
10
0.145312
20
0.150000
30
0.0
11
0.145312
21
0.000000
31
0.0
0
LINE
8
TOP_HID
6
HIDDEN
10
1.354688
20
0.000000
30
0.0
11
1.354688
21
0.150000
31
0.0
0
ENDSEC
0
EOF
