0
SECTION
2
HEADER
9
$ACADVER
1
AC1009
0
ENDSEC
0
SECTION
2
TABLES
0
TABLE
2
LTYPE
70
3
0
LTYPE
2
CONTINUOUS
70
0
3
Solid line
72
65
73
0
40
0.0
0
LTYPE
2
HIDDEN
70
0
3
__ __ __ __ __
72
65
73
2
40
0.046805
49
0.031219
49
-0.015586
0
LTYPE
2
CENTER
70
0
3
___ _ ___ _ ___
72
65
73
4
40
0.109197
49
0.062392
49
-0.015586
49
0.015586
49
-0.015586
0
ENDTAB
0
TABLE
2
LAYER
70
7
0
LAYER
2
0
70
0
62
7
6
CONTINUOUS
0
LAYER
2
FRONT
70
0
62
7
6
CONTINUOUS
0
LAYER
2
FRONT_HID
70
0
62
7
6
HIDDEN
0
LAYER
2
LEFT
70
0
62
7
6
CONTINUOUS
0
LAYER
2
LEFT_HID
70
0
62
7
6
HIDDEN
0
LAYER
2
TOP
70
0
62
7
6
CONTINUOUS
0
LAYER
2
TOP_HID
70
0
62
7
6
HIDDEN
0
ENDTAB
0
ENDSEC
0
SECTION
2
ENTITIES
0
LINE
8
FRONT
10
0.832097
20
0.655277
30
0.0
11
0.832097
21
0.759289
31
0.0
0
LINE
8
FRONT
10
0.832097
20
0.759289
30
0.0
11
0.728085
21
0.759289
31
0.0
0
LINE
8
FRONT
10
0.312036
20
0.655277
30
0.0
11
0.208024
21
0.655277
31
0.0
0
LINE
8
FRONT
10
0.728085
20
0.655277
30
0.0
11
0.728085
21
0.759289
31
0.0
0
LINE
8
FRONT
10
0.936109
20
0.655277
30
0.0
11
0.832097
21
0.655277
31
0.0
0
LINE
8
FRONT
10
0.000000
20
0.603271
30
0.0
11
0.000000
21
0.655277
31
0.0
0
LINE
8
FRONT
10
0.936109
20
0.603271
30
0.0
11
0.936109
21
0.655277
31
0.0
0
LINE
8
FRONT
10
0.936109
20
0.603271
30
0.0
11
0.312036
21
0.603271
31
0.0
0
LINE
8
FRONT
10
0.312036
20
0.603271
30
0.0
11
0.208024
21
0.603271
31
0.0
0
LINE
8
FRONT
10
0.208024
20
0.603271
30
0.0
11
0.000000
21
0.603271
31
0.0
0
LINE
8
FRONT
10
0.104012
20
0.655277
30
0.0
11
0.000000
21
0.655277
31
0.0
0
LINE
8
FRONT
10
0.728085
20
0.655277
30
0.0
11
0.312036
21
0.655277
31
0.0
0
LINE
8
FRONT
10
0.312036
20
0.603271
30
0.0
11
0.312036
21
0.655277
31
0.0
0
LINE
8
FRONT
10
0.208024
20
0.603271
30
0.0
11
0.208024
21
0.655277
31
0.0
0
LINE
8
FRONT
10
0.104012
20
0.655277
30
0.0
11
0.104012
21
0.759289
31
0.0
0
LINE
8
FRONT
10
0.208024
20
0.759289
30
0.0
11
0.104012
21
0.759289
31
0.0
0
LINE
8
FRONT
10
0.208024
20
0.655277
30
0.0
11
0.208024
21
0.759289
31
0.0
0
LINE
8
FRONT_HID
6
HIDDEN
10
0.208024
20
0.655277
30
0.0
11
0.728085
21
0.655277
31
0.0
0
LINE
8
FRONT_HID
6
HIDDEN
10
0.000000
20
0.603271
30
0.0
11
0.936109
21
0.603271
31
0.0
0
LINE
8
FRONT_HID
6
HIDDEN
10
0.728085
20
0.655277
30
0.0
11
0.416049
21
0.655277
31
0.0
0
LINE
8
FRONT_HID
6
HIDDEN
10
0.416049
20
0.655277
30
0.0
11
0.312036
21
0.655277
31
0.0
0
LINE
8
FRONT_HID
6
HIDDEN
10
0.312036
20
0.603271
30
0.0
11
0.416049
21
0.603271
31
0.0
0
LINE
8
FRONT_HID
6
HIDDEN
10
0.416049
20
0.603271
30
0.0
11
0.728085
21
0.603271
31
0.0
0
LINE
8
FRONT_HID
6
HIDDEN
10
0.728085
20
0.603271
30
0.0
11
0.416049
21
0.603271
31
0.0
0
LINE
8
FRONT_HID
6
HIDDEN
10
0.416049
20
0.603271
30
0.0
11
0.312036
21
0.603271
31
0.0
0
LINE
8
FRONT_HID
6
HIDDEN
10
0.728085
20
0.603271
30
0.0
11
0.728085
21
0.655277
31
0.0
0
LINE
8
FRONT_HID
6
HIDDEN
10
0.728085
20
0.603271
30
0.0
11
0.728085
21
0.655277
31
0.0
0
LINE
8
FRONT_HID
6
HIDDEN
10
0.312036
20
0.655277
30
0.0
11
0.416049
21
0.655277
31
0.0
0
LINE
8
FRONT_HID
6
HIDDEN
10
0.416049
20
0.655277
30
0.0
11
0.728085
21
0.655277
31
0.0
0
LINE
8
FRONT_HID
6
HIDDEN
10
0.416049
20
0.603271
30
0.0
11
0.416049
21
0.655277
31
0.0
0
LINE
8
FRONT_HID
6
HIDDEN
10
0.416049
20
0.603271
30
0.0
11
0.416049
21
0.655277
31
0.0
0
LINE
8
LEFT
10
1.539380
20
0.603271
30
0.0
11
1.539380
21
0.655277
31
0.0
0
LINE
8
LEFT
10
1.123331
20
0.603271
30
0.0
11
1.123331
21
0.655277
31
0.0
0
LINE
8
LEFT
10
1.123331
20
0.655277
30
0.0
11
1.539380
21
0.655277
31
0.0
0
LINE
8
LEFT
10
1.123331
20
0.603271
30
0.0
11
1.539380
21
0.603271
31
0.0
0
LINE
8
LEFT
10
1.539380
20
0.655277
30
0.0
11
1.539380
21
0.759289
31
0.0
0
LINE
8
LEFT
10
1.123331
20
0.655277
30
0.0
11
1.123331
21
0.759289
31
0.0
0
LINE
8
LEFT
10
1.123331
20
0.759289
30
0.0
11
1.539380
21
0.759289
31
0.0
0
LINE
8
LEFT_HID
6
HIDDEN
10
1.435368
20
0.759289
30
0.0
11
1.539380
21
0.759289
31
0.0
0
LINE
8
LEFT_HID
6
HIDDEN
10
1.435368
20
0.655277
30
0.0
11
1.539380
21
0.655277
31
0.0
0
LINE
8
LEFT_HID
6
HIDDEN
10
1.123331
20
0.759289
30
0.0
11
1.331356
21
0.759289
31
0.0
0
LINE
8
LEFT_HID
6
HIDDEN
10
1.331356
20
0.759289
30
0.0
11
1.435368
21
0.759289
31
0.0
0
LINE
8
LEFT_HID
6
HIDDEN
10
1.539380
20
0.655277
30
0.0
11
1.227344
21
0.655277
31
0.0
0
LINE
8
LEFT_HID
6
HIDDEN
10
1.435368
20
0.655277
30
0.0
11
1.227344
21
0.655277
31
0.0
0
LINE
8
LEFT_HID
6
HIDDEN
10
1.123331
20
0.603271
30
0.0
11
1.227344
21
0.603271
31
0.0
0
LINE
8
LEFT_HID
6
HIDDEN
10
1.227344
20
0.603271
30
0.0
11
1.331356
21
0.603271
31
0.0
0
LINE
8
LEFT_HID
6
HIDDEN
10
1.331356
20
0.603271
30
0.0
11
1.435368
21
0.603271
31
0.0
0
LINE
8
LEFT_HID
6
HIDDEN
10
1.435368
20
0.603271
30
0.0
11
1.227344
21
0.603271
31
0.0
0
LINE
8
LEFT_HID
6
HIDDEN
10
1.227344
20
0.603271
30
0.0
11
1.123331
21
0.603271
31
0.0
0
LINE
8
LEFT_HID
6
HIDDEN
10
1.123331
20
0.655277
30
0.0
11
1.331356
21
0.655277
31
0.0
0
LINE
8
LEFT_HID
6
HIDDEN
10
1.331356
20
0.603271
30
0.0
11
1.331356
21
0.655277
31
0.0
0
LINE
8
LEFT_HID
6
HIDDEN
10
1.435368
20
0.603271
30
0.0
11
1.435368
21
0.655277
31
0.0
0
LINE
8
LEFT_HID
6
HIDDEN
10
1.539380
20
0.759289
30
0.0
11
1.227344
21
0.759289
31
0.0
0
LINE
8
LEFT_HID
6
HIDDEN
10
1.435368
20
0.603271
30
0.0
11
1.435368
21
0.655277
31
0.0
0
LINE
8
LEFT_HID
6
HIDDEN
10
1.123331
20
0.655277
30
0.0
11
1.227344
21
0.655277
31
0.0
0
LINE
8
LEFT_HID
6
HIDDEN
10
1.331356
20
0.603271
30
0.0
11
1.331356
21
0.655277
31
0.0
0
LINE
8
LEFT_HID
6
HIDDEN
10
1.227344
20
0.655277
30
0.0
11
1.331356
21
0.655277
31
0.0
0
LINE
8
LEFT_HID
6
HIDDEN
10
1.227344
20
0.759289
30
0.0
11
1.123331
21
0.759289
31
0.0
0
LINE
8
LEFT_HID
6
HIDDEN
10
1.227344
20
0.603271
30
0.0
11
1.227344
21
0.655277
31
0.0
0
LINE
8
LEFT_HID
6
HIDDEN
10
1.227344
20
0.603271
30
0.0
11
1.227344
21
0.655277
31
0.0
0
LINE
8
TOP
10
0.728085
20
0.000000
30
0.0
11
0.832097
21
0.000000
31
0.0
0
LINE
8
TOP
10
0.728085
20
0.104012
30
0.0
11
0.728085
21
0.000000
31
0.0
0
LINE
8
TOP
10
0.832097
20
0.000000
30
0.0
11
0.832097
21
0.416049
31
0.0
0
LINE
8
TOP
10
0.000000
20
0.000000
30
0.0
11
0.104012
21
0.000000
31
0.0
0
LINE
8
TOP
10
0.208024
20
0.000000
30
0.0
11
0.728085
21
0.000000
31
0.0
0
LINE
8
TOP
10
0.832097
20
0.000000
30
0.0
11
0.936109
21
0.000000
31
0.0
0
LINE
8
TOP
10
0.832097
20
0.416049
30
0.0
11
0.728085
21
0.416049
31
0.0
0
LINE
8
TOP
10
0.728085
20
0.416049
30
0.0
11
0.728085
21
0.208024
31
0.0
0
LINE
8
TOP
10
0.728085
20
0.208024
30
0.0
11
0.728085
21
0.104012
31
0.0
0
LINE
8
TOP
10
0.728085
20
0.104012
30
0.0
11
0.416049
21
0.104012
31
0.0
0
LINE
8
TOP
10
0.416049
20
0.104012
30
0.0
11
0.410862
21
0.104077
31
0.0
0
LINE
8
TOP
10
0.410862
20
0.104077
30
0.0
11
0.405680
21
0.104271
31
0.0
0
LINE
8
TOP
10
0.405680
20
0.104271
30
0.0
11
0.400503
21
0.104594
31
0.0
0
LINE
8
TOP
10
0.400503
20
0.104594
30
0.0
11
0.395336
21
0.105046
31
0.0
0
LINE
8
TOP
10
0.395336
20
0.105046
30
0.0
11
0.390182
21
0.105627
31
0.0
0
LINE
8
TOP
10
0.390182
20
0.105627
30
0.0
11
0.385044
21
0.106336
31
0.0
0
LINE
8
TOP
10
0.385044
20
0.106336
30
0.0
11
0.379926
21
0.107173
31
0.0
0
LINE
8
TOP
10
0.379926
20
0.107173
30
0.0
11
0.374829
21
0.108137
31
0.0
0
LINE
8
TOP
10
0.374829
20
0.108137
30
0.0
11
0.369759
21
0.109228
31
0.0
0
LINE
8
TOP
10
0.369759
20
0.109228
30
0.0
11
0.364717
21
0.110445
31
0.0
0
LINE
8
TOP
10
0.364717
20
0.110445
30
0.0
11
0.359707
21
0.111787
31
0.0
0
LINE
8
TOP
10
0.359707
20
0.111787
30
0.0
11
0.354732
21
0.113254
31
0.0
0
LINE
8
TOP
10
0.354732
20
0.113254
30
0.0
11
0.349796
21
0.114845
31
0.0
0
LINE
8
TOP
10
0.349796
20
0.114845
30
0.0
11
0.344900
21
0.116558
31
0.0
0
LINE
8
TOP
10
0.344900
20
0.116558
30
0.0
11
0.340049
21
0.118392
31
0.0
0
LINE
8
TOP
10
0.340049
20
0.118392
30
0.0
11
0.335245
21
0.120347
31
0.0
0
LINE
8
TOP
10
0.335245
20
0.120347
30
0.0
11
0.330491
21
0.122421
31
0.0
0
LINE
8
TOP
10
0.330491
20
0.122421
30
0.0
11
0.325790
21
0.124613
31
0.0
0
LINE
8
TOP
10
0.325790
20
0.124613
30
0.0
11
0.321146
21
0.126922
31
0.0
0
LINE
8
TOP
10
0.321146
20
0.126922
30
0.0
11
0.316560
21
0.129345
31
0.0
0
LINE
8
TOP
10
0.316560
20
0.129345
30
0.0
11
0.312036
21
0.131882
31
0.0
0
LINE
8
TOP
10
0.312036
20
0.131882
30
0.0
11
0.307577
21
0.134531
31
0.0
0
LINE
8
TOP
10
0.307577
20
0.134531
30
0.0
11
0.303186
21
0.137291
31
0.0
0
LINE
8
TOP
10
0.303186
20
0.137291
30
0.0
11
0.298864
21
0.140159
31
0.0
0
LINE
8
TOP
10
0.298864
20
0.140159
30
0.0
11
0.294616
21
0.143134
31
0.0
0
LINE
8
TOP
10
0.294616
20
0.143134
30
0.0
11
0.290443
21
0.146214
31
0.0
0
LINE
8
TOP
10
0.290443
20
0.146214
30
0.0
11
0.286348
21
0.149397
31
0.0
0
LINE
8
TOP
10
0.286348
20
0.149397
30
0.0
11
0.282333
21
0.152681
31
0.0
0
LINE
8
TOP
10
0.282333
20
0.152681
30
0.0
11
0.278402
21
0.156064
31
0.0
0
LINE
8
TOP
10
0.278402
20
0.156064
30
0.0
11
0.274556
21
0.159544
31
0.0
0
LINE
8
TOP
10
0.274556
20
0.159544
30
0.0
11
0.270798
21
0.163119
31
0.0
0
LINE
8
TOP
10
0.270798
20
0.163119
30
0.0
11
0.267131
21
0.166786
31
0.0
0
LINE
8
TOP
10
0.267131
20
0.166786
30
0.0
11
0.263556
21
0.170544
31
0.0
0
LINE
8
TOP
10
0.263556
20
0.170544
30
0.0
11
0.260076
21
0.174390
31
0.0
0
LINE
8
TOP
10
0.260076
20
0.174390
30
0.0
11
0.256693
21
0.178321
31
0.0
0
LINE
8
TOP
10
0.256693
20
0.178321
30
0.0
11
0.253409
21
0.182335
31
0.0
0
LINE
8
TOP
10
0.253409
20
0.182335
30
0.0
11
0.250226
21
0.186430
31
0.0
0
LINE
8
TOP
10
0.250226
20
0.186430
30
0.0
11
0.247146
21
0.190604
31
0.0
0
LINE
8
TOP
10
0.247146
20
0.190604
30
0.0
11
0.244171
21
0.194852
31
0.0
0
LINE
8
TOP
10
0.244171
20
0.194852
30
0.0
11
0.241303
21
0.199174
31
0.0
0
LINE
8
TOP
10
0.241303
20
0.199174
30
0.0
11
0.238543
21
0.203565
31
0.0
0
LINE
8
TOP
10
0.238543
20
0.203565
30
0.0
11
0.235894
21
0.208024
31
0.0
0
LINE
8
TOP
10
0.235894
20
0.208024
30
0.0
11
0.233357
21
0.212548
31
0.0
0
LINE
8
TOP
10
0.233357
20
0.212548
30
0.0
11
0.230934
21
0.217134
31
0.0
0
LINE
8
TOP
10
0.230934
20
0.217134
30
0.0
11
0.228625
21
0.221778
31
0.0
0
LINE
8
TOP
10
0.228625
20
0.221778
30
0.0
11
0.226433
21
0.226479
31
0.0
0
LINE
8
TOP
10
0.226433
20
0.226479
30
0.0
11
0.224359
21
0.231233
31
0.0
0
LINE
8
TOP
10
0.224359
20
0.231233
30
0.0
11
0.222404
21
0.236037
31
0.0
0
LINE
8
TOP
10
0.222404
20
0.236037
30
0.0
11
0.220570
21
0.240888
31
0.0
0
LINE
8
TOP
10
0.220570
20
0.240888
30
0.0
11
0.218857
21
0.245784
31
0.0
0
LINE
8
TOP
10
0.218857
20
0.245784
30
0.0
11
0.217266
21
0.250720
31
0.0
0
LINE
8
TOP
10
0.217266
20
0.250720
30
0.0
11
0.215799
21
0.255695
31
0.0
0
LINE
8
TOP
10
0.215799
20
0.255695
30
0.0
11
0.214457
21
0.260705
31
0.0
0
LINE
8
TOP
10
0.214457
20
0.260705
30
0.0
11
0.213240
21
0.265747
31
0.0
0
LINE
8
TOP
10
0.213240
20
0.265747
30
0.0
11
0.212149
21
0.270817
31
0.0
0
LINE
8
TOP
10
0.212149
20
0.270817
30
0.0
11
0.211185
21
0.275913
31
0.0
0
LINE
8
TOP
10
0.211185
20
0.275913
30
0.0
11
0.210348
21
0.281032
31
0.0
0
LINE
8
TOP
10
0.210348
20
0.281032
30
0.0
11
0.209639
21
0.286170
31
0.0
0
LINE
8
TOP
10
0.209639
20
0.286170
30
0.0
11
0.209058
21
0.291324
31
0.0
0
LINE
8
TOP
10
0.209058
20
0.291324
30
0.0
11
0.208606
21
0.296491
31
0.0
0
LINE
8
TOP
10
0.208606
20
0.296491
30
0.0
11
0.208283
21
0.301667
31
0.0
0
LINE
8
TOP
10
0.208283
20
0.301667
30
0.0
11
0.208089
21
0.306850
31
0.0
0
LINE
8
TOP
10
0.208089
20
0.306850
30
0.0
11
0.208024
21
0.312036
31
0.0
0
LINE
8
TOP
10
0.936109
20
0.000000
30
0.0
11
0.936109
21
0.416049
31
0.0
0
LINE
8
TOP
10
0.936109
20
0.416049
30
0.0
11
0.832097
21
0.416049
31
0.0
0
LINE
8
TOP
10
0.000000
20
0.416049
30
0.0
11
0.000000
21
0.000000
31
0.0
0
LINE
8
TOP
10
0.104012
20
0.416049
30
0.0
11
0.000000
21
0.416049
31
0.0
0
LINE
8
TOP
10
0.104012
20
0.000000
30
0.0
11
0.208024
21
0.000000
31
0.0
0
LINE
8
TOP
10
0.208024
20
0.000000
30
0.0
11
0.208024
21
0.312036
31
0.0
0
LINE
8
TOP
10
0.728085
20
0.416049
30
0.0
11
0.312036
21
0.416049
31
0.0
0
LINE
8
TOP
10
0.312036
20
0.416049
30
0.0
11
0.312036
21
0.312036
31
0.0
0
LINE
8
TOP
10
0.312036
20
0.312036
30
0.0
11
0.312069
21
0.309443
31
0.0
0
LINE
8
TOP
10
0.312069
20
0.309443
30
0.0
11
0.312166
21
0.306852
31
0.0
0
LINE
8
TOP
10
0.312166
20
0.306852
30
0.0
11
0.312327
21
0.304264
31
0.0
0
LINE
8
TOP
10
0.312327
20
0.304264
30
0.0
11
0.312553
21
0.301680
31
0.0
0
LINE
8
TOP
10
0.312553
20
0.301680
30
0.0
11
0.312844
21
0.299103
31
0.0
0
LINE
8
TOP
10
0.312844
20
0.299103
30
0.0
11
0.313198
21
0.296534
31
0.0
0
LINE
8
TOP
10
0.313198
20
0.296534
30
0.0
11
0.313617
21
0.293975
31
0.0
0
LINE
8
TOP
10
0.313617
20
0.293975
30
0.0
11
0.314099
21
0.291427
31
0.0
0
LINE
8
TOP
10
0.314099
20
0.291427
30
0.0
11
0.314644
21
0.288892
31
0.0
0
LINE
8
TOP
10
0.314644
20
0.288892
30
0.0
11
0.315253
21
0.286371
31
0.0
0
LINE
8
TOP
10
0.315253
20
0.286371
30
0.0
11
0.315924
21
0.283866
31
0.0
0
LINE
8
TOP
10
0.315924
20
0.283866
30
0.0
11
0.316657
21
0.281378
31
0.0
0
LINE
8
TOP
10
0.316657
20
0.281378
30
0.0
11
0.317453
21
0.278910
31
0.0
0
LINE
8
TOP
10
0.317453
20
0.278910
30
0.0
11
0.318309
21
0.276462
31
0.0
0
LINE
8
TOP
10
0.318309
20
0.276462
30
0.0
11
0.319226
21
0.274037
31
0.0
0
LINE
8
TOP
10
0.319226
20
0.274037
30
0.0
11
0.320204
21
0.271635
31
0.0
0
LINE
8
TOP
10
0.320204
20
0.271635
30
0.0
11
0.321241
21
0.269258
31
0.0
0
LINE
8
TOP
10
0.321241
20
0.269258
30
0.0
11
0.322337
21
0.266907
31
0.0
0
LINE
8
TOP
10
0.322337
20
0.266907
30
0.0
11
0.323491
21
0.264585
31
0.0
0
LINE
8
TOP
10
0.323491
20
0.264585
30
0.0
11
0.324703
21
0.262292
31
0.0
0
LINE
8
TOP
10
0.324703
20
0.262292
30
0.0
11
0.325971
21
0.260030
31
0.0
0
LINE
8
TOP
10
0.325971
20
0.260030
30
0.0
11
0.327296
21
0.257801
31
0.0
0
LINE
8
TOP
10
0.327296
20
0.257801
30
0.0
11
0.328676
21
0.255605
31
0.0
0
LINE
8
TOP
10
0.328676
20
0.255605
30
0.0
11
0.330110
21
0.253444
31
0.0
0
LINE
8
TOP
10
0.330110
20
0.253444
30
0.0
11
0.331597
21
0.251320
31
0.0
0
LINE
8
TOP
10
0.331597
20
0.251320
30
0.0
11
0.333137
21
0.249233
31
0.0
0
LINE
8
TOP
10
0.333137
20
0.249233
30
0.0
11
0.334729
21
0.247186
31
0.0
0
LINE
8
TOP
10
0.334729
20
0.247186
30
0.0
11
0.336371
21
0.245179
31
0.0
0
LINE
8
TOP
10
0.336371
20
0.245179
30
0.0
11
0.338062
21
0.243213
31
0.0
0
LINE
8
TOP
10
0.338062
20
0.243213
30
0.0
11
0.339802
21
0.241290
31
0.0
0
LINE
8
TOP
10
0.339802
20
0.241290
30
0.0
11
0.341590
21
0.239411
31
0.0
0
LINE
8
TOP
10
0.341590
20
0.239411
30
0.0
11
0.343424
21
0.237578
31
0.0
0
LINE
8
TOP
10
0.343424
20
0.237578
30
0.0
11
0.345302
21
0.235790
31
0.0
0
LINE
8
TOP
10
0.345302
20
0.235790
30
0.0
11
0.347225
21
0.234050
31
0.0
0
LINE
8
TOP
10
0.347225
20
0.234050
30
0.0
11
0.349191
21
0.232359
31
0.0
0
LINE
8
TOP
10
0.349191
20
0.232359
30
0.0
11
0.351198
21
0.230717
31
0.0
0
LINE
8
TOP
10
0.351198
20
0.230717
30
0.0
11
0.353246
21
0.229125
31
0.0
0
LINE
8
TOP
10
0.353246
20
0.229125
30
0.0
11
0.355332
21
0.227585
31
0.0
0
LINE
8
TOP
10
0.355332
20
0.227585
30
0.0
11
0.357457
21
0.226098
31
0.0
0
LINE
8
TOP
10
0.357457
20
0.226098
30
0.0
11
0.359617
21
0.224664
31
0.0
0
LINE
8
TOP
10
0.359617
20
0.224664
30
0.0
11
0.361813
21
0.223284
31
0.0
0
LINE
8
TOP
10
0.361813
20
0.223284
30
0.0
11
0.364043
21
0.221959
31
0.0
0
LINE
8
TOP
10
0.364043
20
0.221959
30
0.0
11
0.366304
21
0.220691
31
0.0
0
LINE
8
TOP
10
0.366304
20
0.220691
30
0.0
11
0.368597
21
0.219479
31
0.0
0
LINE
8
TOP
10
0.368597
20
0.219479
30
0.0
11
0.370919
21
0.218325
31
0.0
0
LINE
8
TOP
10
0.370919
20
0.218325
30
0.0
11
0.373270
21
0.217229
31
0.0
0
LINE
8
TOP
10
0.373270
20
0.217229
30
0.0
11
0.375647
21
0.216192
31
0.0
0
LINE
8
TOP
10
0.375647
20
0.216192
30
0.0
11
0.378049
21
0.215214
31
0.0
0
LINE
8
TOP
10
0.378049
20
0.215214
30
0.0
11
0.380474
21
0.214297
31
0.0
0
LINE
8
TOP
10
0.380474
20
0.214297
30
0.0
11
0.382922
21
0.213441
31
0.0
0
LINE
8
TOP
10
0.382922
20
0.213441
30
0.0
11
0.385391
21
0.212645
31
0.0
0
LINE
8
TOP
10
0.385391
20
0.212645
30
0.0
11
0.387878
21
0.211912
31
0.0
0
LINE
8
TOP
10
0.387878
20
0.211912
30
0.0
11
0.390383
21
0.211241
31
0.0
0
LINE
8
TOP
10
0.390383
20
0.211241
30
0.0
11
0.392904
21
0.210632
31
0.0
0
LINE
8
TOP
10
0.392904
20
0.210632
30
0.0
11
0.395439
21
0.210087
31
0.0
0
LINE
8
TOP
10
0.395439
20
0.210087
30
0.0
11
0.397987
21
0.209605
31
0.0
0
LINE
8
TOP
10
0.397987
20
0.209605
30
0.0
11
0.400546
21
0.209186
31
0.0
0
LINE
8
TOP
10
0.400546
20
0.209186
30
0.0
11
0.403115
21
0.208832
31
0.0
0
LINE
8
TOP
10
0.403115
20
0.208832
30
0.0
11
0.405692
21
0.208541
31
0.0
0
LINE
8
TOP
10
0.405692
20
0.208541
30
0.0
11
0.408276
21
0.208315
31
0.0
0
LINE
8
TOP
10
0.408276
20
0.208315
30
0.0
11
0.410864
21
0.208154
31
0.0
0
LINE
8
TOP
10
0.410864
20
0.208154
30
0.0
11
0.413456
21
0.208057
31
0.0
0
LINE
8
TOP
10
0.413456
20
0.208057
30
0.0
11
0.416049
21
0.208024
31
0.0
0
LINE
8
TOP
10
0.416049
20
0.208024
30
0.0
11
0.728085
21
0.208024
31
0.0
0
LINE
8
TOP
10
0.104012
20
0.416049
30
0.0
11
0.104012
21
0.000000
31
0.0
0
LINE
8
TOP
10
0.208024
20
0.312036
30
0.0
11
0.208024
21
0.416049
31
0.0
0
LINE
8
TOP
10
0.208024
20
0.416049
30
0.0
11
0.104012
21
0.416049
31
0.0
0
LINE
8
TOP_HID
6
HIDDEN
10
0.000000
20
0.000000
30
0.0
11
0.936109
21
0.000000
31
0.0
0
LINE
8
TOP_HID
6
HIDDEN
10
0.936109
20
0.416049
30
0.0
11
0.312036
21
0.416049
31
0.0
0
LINE
8
TOP_HID
6
HIDDEN
10
0.208024
20
0.416049
30
0.0
11
0.000000
21
0.416049
31
0.0
0
ENDSEC
0
EOF
