0
SECTION
2
HEADER
9
$ACADVER
1
AC1009
0
ENDSEC
0
SECTION
2
TABLES
0
TABLE
2
LTYPE
70
3
0
LTYPE
2
CONTINUOUS
70
0
3
Solid line
72
65
73
0
40
0.0
0
LTYPE
2
HIDDEN
70
0
3
__ __ __ __ __
72
65
73
2
40
0.075000
49
0.050025
49
-0.024975
0
LTYPE
2
CENTER
70
0
3
___ _ ___ _ ___
72
65
73
4
40
0.174975
49
0.099975
49
-0.024975
49
0.024975
49
-0.024975
0
ENDTAB
0
TABLE
2
LAYER
70
6
0
LAYER
2
0
70
0
62
7
6
CONTINUOUS
0
LAYER
2
FRONT
70
0
62
7
6
CONTINUOUS
0
LAYER
2
FRONT_HID
70
0
62
7
6
HIDDEN
0
LAYER
2
LEFT
70
0
62
7
6
CONTINUOUS
0
LAYER
2
LEFT_HID
70
0
62
7
6
HIDDEN
0
LAYER
2
TOP
70
0
62
7
6
CONTINUOUS
0
ENDTAB
0
ENDSEC
0
SECTION
2
ENTITIES
0
LINE
8
FRONT
10
1.500000
20
2.129534
30
0.0
11
1.500000
21
2.459534
31
0.0
0
LINE
8
FRONT
10
1.500000
20
2.459534
30
0.0
11
0.000000
21
2.459534
31
0.0
0
LINE
8
FRONT
10
1.500000
20
2.129534
30
0.0
11
1.500000
21
1.799534
31
0.0
0
LINE
8
FRONT
10
1.500000
20
1.799534
30
0.0
11
0.000000
21
1.799534
31
0.0
0
LINE
8
FRONT
10
0.779198
20
2.459534
30
0.0
11
0.779198
21
2.474534
31
0.0
0
LINE
8
FRONT
10
0.779198
20
2.474534
30
0.0
11
0.720802
21
2.474534
31
0.0
0
LINE
8
FRONT
10
0.000000
20
2.459534
30
0.0
11
0.000000
21
2.129534
31
0.0
0
LINE
8
FRONT
10
0.000000
20
1.799534
30
0.0
11
0.000000
21
2.129534
31
0.0
0
LINE
8
FRONT
10
0.720802
20
2.474534
30
0.0
11
0.720802
21
2.459534
31
0.0
0
LINE
8
FRONT_HID
6
HIDDEN
10
0.779198
20
2.459534
30
0.0
11
0.720802
21
2.459534
31
0.0
0
LINE
8
FRONT_HID
6
HIDDEN
10
0.720802
20
2.459534
30
0.0
11
0.779198
21
2.459534
31
0.0
0
LINE
8
LEFT
10
1.800000
20
2.459534
30
0.0
11
3.300000
21
2.459534
31
0.0
0
LINE
8
LEFT
10
1.800000
20
1.799534
30
0.0
11
3.300000
21
1.799534
31
0.0
0
LINE
8
LEFT
10
2.520802
20
2.474534
30
0.0
11
2.579198
21
2.474534
31
0.0
0
LINE
8
LEFT
10
1.800000
20
2.459534
30
0.0
11
1.800000
21
2.129534
31
0.0
0
LINE
8
LEFT
10
3.300000
20
2.459534
30
0.0
11
3.300000
21
2.129534
31
0.0
0
LINE
8
LEFT
10
3.300000
20
1.799534
30
0.0
11
3.300000
21
2.129534
31
0.0
0
LINE
8
LEFT
10
1.800000
20
1.799534
30
0.0
11
1.800000
21
2.129534
31
0.0
0
LINE
8
LEFT
10
2.520802
20
2.474534
30
0.0
11
2.520802
21
2.459534
31
0.0
0
LINE
8
LEFT
10
2.579198
20
2.474534
30
0.0
11
2.579198
21
2.459534
31
0.0
0
LINE
8
LEFT_HID
6
HIDDEN
10
2.550000
20
2.459534
30
0.0
11
1.800000
21
2.459534
31
0.0
0
LINE
8
LEFT_HID
6
HIDDEN
10
3.300000
20
2.459534
30
0.0
11
2.550000
21
2.459534
31
0.0
0
LINE
8
LEFT_HID
6
HIDDEN
10
2.550000
20
1.799534
30
0.0
11
1.800000
21
1.799534
31
0.0
0
LINE
8
LEFT_HID
6
HIDDEN
10
3.300000
20
1.799534
30
0.0
11
2.550000
21
1.799534
31
0.0
0
LINE
8
LEFT_HID
6
HIDDEN
10
2.550000
20
2.459534
30
0.0
11
2.520802
21
2.459534
31
0.0
0
LINE
8
LEFT_HID
6
HIDDEN
10
2.520802
20
2.459534
30
0.0
11
2.579198
21
2.459534
31
0.0
0
LINE
8
LEFT_HID
6
HIDDEN
10
2.579198
20
2.459534
30
0.0
11
2.550000
21
2.459534
31
0.0
0
LINE
8
LEFT_HID
6
HIDDEN
10
2.550000
20
2.474534
30
0.0
11
2.520802
21
2.474534
31
0.0
0
LINE
8
LEFT_HID
6
HIDDEN
10
2.579198
20
2.474534
30
0.0
11
2.550000
21
2.474534
31
0.0
0
LINE
8
TOP
10
1.499068
20
0.749767
30
0.0
11
1.495341
21
0.824443
31
0.0
0
LINE
8
TOP
10
1.495341
20
0.824443
30
0.0
11
1.484197
21
0.898376
31
0.0
0
LINE
8
TOP
10
1.484197
20
0.898376
30
0.0
11
1.465747
21
0.970833
31
0.0
0
LINE
8
TOP
10
1.465747
20
0.970833
30
0.0
11
1.440175
21
1.041093
31
0.0
0
LINE
8
TOP
10
1.440175
20
1.041093
30
0.0
11
1.407734
21
1.108457
31
0.0
0
LINE
8
TOP
10
1.407734
20
1.108457
30
0.0
11
1.368747
21
1.172257
31
0.0
0
LINE
8
TOP
10
1.368747
20
1.172257
30
0.0
11
1.323601
21
1.231858
31
0.0
0
LINE
8
TOP
10
1.323601
20
1.231858
30
0.0
11
1.272745
21
1.286667
31
0.0
0
LINE
8
TOP
10
1.272745
20
1.286667
30
0.0
11
1.216685
21
1.336140
31
0.0
0
LINE
8
TOP
10
1.216685
20
1.336140
30
0.0
11
1.155977
21
1.379786
31
0.0
0
LINE
8
TOP
10
1.155977
20
1.379786
30
0.0
11
1.091226
21
1.417171
31
0.0
0
LINE
8
TOP
10
1.091226
20
1.417171
30
0.0
11
1.023073
21
1.447922
31
0.0
0
LINE
8
TOP
10
1.023073
20
1.447922
30
0.0
11
0.952198
21
1.471735
31
0.0
0
LINE
8
TOP
10
0.952198
20
1.471735
30
0.0
11
0.879304
21
1.488373
31
0.0
0
LINE
8
TOP
10
0.879304
20
1.488373
30
0.0
11
0.805115
21
1.497670
31
0.0
0
LINE
8
TOP
10
0.805115
20
1.497670
30
0.0
11
0.730370
21
1.499534
31
0.0
0
LINE
8
TOP
10
0.730370
20
1.499534
30
0.0
11
0.655810
21
1.493946
31
0.0
0
LINE
8
TOP
10
0.655810
20
1.493946
30
0.0
11
0.582177
21
1.480963
31
0.0
0
LINE
8
TOP
10
0.582177
20
1.480963
30
0.0
11
0.510203
21
1.460712
31
0.0
0
LINE
8
TOP
10
0.510203
20
1.460712
30
0.0
11
0.440602
21
1.433396
31
0.0
0
LINE
8
TOP
10
0.440602
20
1.433396
30
0.0
11
0.374068
21
1.399286
31
0.0
0
LINE
8
TOP
10
0.374068
20
1.399286
30
0.0
11
0.311260
21
1.358720
31
0.0
0
LINE
8
TOP
10
0.311260
20
1.358720
30
0.0
11
0.252803
21
1.312103
31
0.0
0
LINE
8
TOP
10
0.252803
20
1.312103
30
0.0
11
0.199279
21
1.259896
31
0.0
0
LINE
8
TOP
10
0.199279
20
1.259896
30
0.0
11
0.151218
21
1.202620
31
0.0
0
LINE
8
TOP
10
0.151218
20
1.202620
30
0.0
11
0.109100
21
1.140843
31
0.0
0
LINE
8
TOP
10
0.109100
20
1.140843
30
0.0
11
0.073341
21
1.075180
31
0.0
0
LINE
8
TOP
10
0.073341
20
1.075180
30
0.0
11
0.044298
21
1.006282
31
0.0
0
LINE
8
TOP
10
0.044298
20
1.006282
30
0.0
11
0.022260
21
0.934835
31
0.0
0
LINE
8
TOP
10
0.022260
20
0.934835
30
0.0
11
0.007445
21
0.861549
31
0.0
0
LINE
8
TOP
10
0.007445
20
0.861549
30
0.0
11
0.000000
21
0.787151
31
0.0
0
LINE
8
TOP
10
0.000000
20
0.787151
30
0.0
11
0.000000
21
0.712382
31
0.0
0
LINE
8
TOP
10
0.000000
20
0.712382
30
0.0
11
0.007445
21
0.637985
31
0.0
0
LINE
8
TOP
10
0.007445
20
0.637985
30
0.0
11
0.022260
21
0.564699
31
0.0
0
LINE
8
TOP
10
0.022260
20
0.564699
30
0.0
11
0.044298
21
0.493252
31
0.0
0
LINE
8
TOP
10
0.044298
20
0.493252
30
0.0
11
0.073341
21
0.424354
31
0.0
0
LINE
8
TOP
10
0.073341
20
0.424354
30
0.0
11
0.109100
21
0.358690
31
0.0
0
LINE
8
TOP
10
0.109100
20
0.358690
30
0.0
11
0.151218
21
0.296914
31
0.0
0
LINE
8
TOP
10
0.151218
20
0.296914
30
0.0
11
0.199279
21
0.239637
31
0.0
0
LINE
8
TOP
10
0.199279
20
0.239637
30
0.0
11
0.252803
21
0.187431
31
0.0
0
LINE
8
TOP
10
0.252803
20
0.187431
30
0.0
11
0.311260
21
0.140813
31
0.0
0
LINE
8
TOP
10
0.311260
20
0.140813
30
0.0
11
0.374068
21
0.100248
31
0.0
0
LINE
8
TOP
10
0.374068
20
0.100248
30
0.0
11
0.440602
21
0.066137
31
0.0
0
LINE
8
TOP
10
0.440602
20
0.066137
30
0.0
11
0.510203
21
0.038821
31
0.0
0
LINE
8
TOP
10
0.510203
20
0.038821
30
0.0
11
0.582177
21
0.018571
31
0.0
0
LINE
8
TOP
10
0.582177
20
0.018571
30
0.0
11
0.655810
21
0.005587
31
0.0
0
LINE
8
TOP
10
0.655810
20
0.005587
30
0.0
11
0.730370
21
0.000000
31
0.0
0
LINE
8
TOP
10
0.730370
20
0.000000
30
0.0
11
0.805115
21
0.001864
31
0.0
0
LINE
8
TOP
10
0.805115
20
0.001864
30
0.0
11
0.879304
21
0.011161
31
0.0
0
LINE
8
TOP
10
0.879304
20
0.011161
30
0.0
11
0.952198
21
0.027799
31
0.0
0
LINE
8
TOP
10
0.952198
20
0.027799
30
0.0
11
1.023073
21
0.051612
31
0.0
0
LINE
8
TOP
10
1.023073
20
0.051612
30
0.0
11
1.091226
21
0.082363
31
0.0
0
LINE
8
TOP
10
1.091226
20
0.082363
30
0.0
11
1.155977
21
0.119747
31
0.0
0
LINE
8
TOP
10
1.155977
20
0.119747
30
0.0
11
1.216685
21
0.163393
31
0.0
0
LINE
8
TOP
10
1.216685
20
0.163393
30
0.0
11
1.272745
21
0.212867
31
0.0
0
LINE
8
TOP
10
1.272745
20
0.212867
30
0.0
11
1.323601
21
0.267676
31
0.0
0
LINE
8
TOP
10
1.323601
20
0.267676
30
0.0
11
1.368747
21
0.327277
31
0.0
0
LINE
8
TOP
10
1.368747
20
0.327277
30
0.0
11
1.407734
21
0.391076
31
0.0
0
LINE
8
TOP
10
1.407734
20
0.391076
30
0.0
11
1.440175
21
0.458441
31
0.0
0
LINE
8
TOP
10
1.440175
20
0.458441
30
0.0
11
1.465747
21
0.528701
31
0.0
0
LINE
8
TOP
10
1.465747
20
0.528701
30
0.0
11
1.484197
21
0.601157
31
0.0
0
LINE
8
TOP
10
1.484197
20
0.601157
30
0.0
11
1.495341
21
0.675091
31
0.0
0
LINE
8
TOP
10
1.495341
20
0.675091
30
0.0
11
1.499068
21
0.749767
31
0.0
0
LINE
8
TOP
10
0.778265
20
0.749767
30
0.0
11
0.778120
21
0.752674
31
0.0
0
LINE
8
TOP
10
0.778120
20
0.752674
30
0.0
11
0.777687
21
0.755552
31
0.0
0
LINE
8
TOP
10
0.777687
20
0.755552
30
0.0
11
0.776968
21
0.758373
31
0.0
0
LINE
8
TOP
10
0.776968
20
0.758373
30
0.0
11
0.775973
21
0.761108
31
0.0
0
LINE
8
TOP
10
0.775973
20
0.761108
30
0.0
11
0.774710
21
0.763731
31
0.0
0
LINE
8
TOP
10
0.774710
20
0.763731
30
0.0
11
0.773192
21
0.766215
31
0.0
0
LINE
8
TOP
10
0.773192
20
0.766215
30
0.0
11
0.771435
21
0.768535
31
0.0
0
LINE
8
TOP
10
0.771435
20
0.768535
30
0.0
11
0.769455
21
0.770669
31
0.0
0
LINE
8
TOP
10
0.769455
20
0.770669
30
0.0
11
0.767272
21
0.772595
31
0.0
0
LINE
8
TOP
10
0.767272
20
0.772595
30
0.0
11
0.764909
21
0.774294
31
0.0
0
LINE
8
TOP
10
0.764909
20
0.774294
30
0.0
11
0.762388
21
0.775749
31
0.0
0
LINE
8
TOP
10
0.762388
20
0.775749
30
0.0
11
0.759735
21
0.776946
31
0.0
0
LINE
8
TOP
10
0.759735
20
0.776946
30
0.0
11
0.756976
21
0.777873
31
0.0
0
LINE
8
TOP
10
0.756976
20
0.777873
30
0.0
11
0.754138
21
0.778521
31
0.0
0
LINE
8
TOP
10
0.754138
20
0.778521
30
0.0
11
0.751250
21
0.778883
31
0.0
0
LINE
8
TOP
10
0.751250
20
0.778883
30
0.0
11
0.748340
21
0.778956
31
0.0
0
LINE
8
TOP
10
0.748340
20
0.778956
30
0.0
11
0.745437
21
0.778738
31
0.0
0
LINE
8
TOP
10
0.745437
20
0.778738
30
0.0
11
0.742571
21
0.778233
31
0.0
0
LINE
8
TOP
10
0.742571
20
0.778233
30
0.0
11
0.739769
21
0.777444
31
0.0
0
LINE
8
TOP
10
0.739769
20
0.777444
30
0.0
11
0.737059
21
0.776381
31
0.0
0
LINE
8
TOP
10
0.737059
20
0.776381
30
0.0
11
0.734469
21
0.775053
31
0.0
0
LINE
8
TOP
10
0.734469
20
0.775053
30
0.0
11
0.732024
21
0.773474
31
0.0
0
LINE
8
TOP
10
0.732024
20
0.773474
30
0.0
11
0.729748
21
0.771659
31
0.0
0
LINE
8
TOP
10
0.729748
20
0.771659
30
0.0
11
0.727664
21
0.769626
31
0.0
0
LINE
8
TOP
10
0.727664
20
0.769626
30
0.0
11
0.725793
21
0.767397
31
0.0
0
LINE
8
TOP
10
0.725793
20
0.767397
30
0.0
11
0.724153
21
0.764992
31
0.0
0
LINE
8
TOP
10
0.724153
20
0.764992
30
0.0
11
0.722761
21
0.762435
31
0.0
0
LINE
8
TOP
10
0.722761
20
0.762435
30
0.0
11
0.721631
21
0.759753
31
0.0
0
LINE
8
TOP
10
0.721631
20
0.759753
30
0.0
11
0.720773
21
0.756972
31
0.0
0
LINE
8
TOP
10
0.720773
20
0.756972
30
0.0
11
0.720196
21
0.754119
31
0.0
0
LINE
8
TOP
10
0.720196
20
0.754119
30
0.0
11
0.719906
21
0.751222
31
0.0
0
LINE
8
TOP
10
0.719906
20
0.751222
30
0.0
11
0.719906
21
0.748311
31
0.0
0
LINE
8
TOP
10
0.719906
20
0.748311
30
0.0
11
0.720196
21
0.745415
31
0.0
0
LINE
8
TOP
10
0.720196
20
0.745415
30
0.0
11
0.720773
21
0.742562
31
0.0
0
LINE
8
TOP
10
0.720773
20
0.742562
30
0.0
11
0.721631
21
0.739781
31
0.0
0
LINE
8
TOP
10
0.721631
20
0.739781
30
0.0
11
0.722761
21
0.737098
31
0.0
0
LINE
8
TOP
10
0.722761
20
0.737098
30
0.0
11
0.724153
21
0.734542
31
0.0
0
LINE
8
TOP
10
0.724153
20
0.734542
30
0.0
11
0.725793
21
0.732137
31
0.0
0
LINE
8
TOP
10
0.725793
20
0.732137
30
0.0
11
0.727664
21
0.729907
31
0.0
0
LINE
8
TOP
10
0.727664
20
0.729907
30
0.0
11
0.729748
21
0.727875
31
0.0
0
LINE
8
TOP
10
0.729748
20
0.727875
30
0.0
11
0.732024
21
0.726060
31
0.0
0
LINE
8
TOP
10
0.732024
20
0.726060
30
0.0
11
0.734469
21
0.724481
31
0.0
0
LINE
8
TOP
10
0.734469
20
0.724481
30
0.0
11
0.737059
21
0.723153
31
0.0
0
LINE
8
TOP
10
0.737059
20
0.723153
30
0.0
11
0.739769
21
0.722089
31
0.0
0
LINE
8
TOP
10
0.739769
20
0.722089
30
0.0
11
0.742571
21
0.721301
31
0.0
0
LINE
8
TOP
10
0.742571
20
0.721301
30
0.0
11
0.745437
21
0.720796
31
0.0
0
LINE
8
TOP
10
0.745437
20
0.720796
30
0.0
11
0.748340
21
0.720578
31
0.0
0
LINE
8
TOP
10
0.748340
20
0.720578
30
0.0
11
0.751250
21
0.720651
31
0.0
0
LINE
8
TOP
10
0.751250
20
0.720651
30
0.0
11
0.754138
21
0.721013
31
0.0
0
LINE
8
TOP
10
0.754138
20
0.721013
30
0.0
11
0.756976
21
0.721660
31
0.0
0
LINE
8
TOP
10
0.756976
20
0.721660
30
0.0
11
0.759735
21
0.722587
31
0.0
0
LINE
8
TOP
10
0.759735
20
0.722587
30
0.0
11
0.762388
21
0.723785
31
0.0
0
LINE
8
TOP
10
0.762388
20
0.723785
30
0.0
11
0.764909
21
0.725240
31
0.0
0
LINE
8
TOP
10
0.764909
20
0.725240
30
0.0
11
0.767272
21
0.726939
31
0.0
0
LINE
8
TOP
10
0.767272
20
0.726939
30
0.0
11
0.769455
21
0.728865
31
0.0
0
LINE
8
TOP
10
0.769455
20
0.728865
30
0.0
11
0.771435
21
0.730999
31
0.0
0
LINE
8
TOP
10
0.771435
20
0.730999
30
0.0
11
0.773192
21
0.733319
31
0.0
0
LINE
8
TOP
10
0.773192
20
0.733319
30
0.0
11
0.774710
21
0.735803
31
0.0
0
LINE
8
TOP
10
0.774710
20
0.735803
30
0.0
11
0.775973
21
0.738425
31
0.0
0
LINE
8
TOP
10
0.775973
20
0.738425
30
0.0
11
0.776968
21
0.741161
31
0.0
0
LINE
8
TOP
10
0.776968
20
0.741161
30
0.0
11
0.777687
21
0.743981
31
0.0
0
LINE
8
TOP
10
0.777687
20
0.743981
30
0.0
11
0.778120
21
0.746860
31
0.0
0
LINE
8
TOP
10
0.778120
20
0.746860
30
0.0
11
0.778265
21
0.749767
31
0.0
0
ENDSEC
0
EOF
