0
SECTION
2
HEADER
9
$ACADVER
1
AC1009
0
ENDSEC
0
SECTION
2
TABLES
0
TABLE
2
LTYPE
70
3
0
LTYPE
2
CONTINUOUS
70
0
3
Solid line
72
65
73
0
40
0.0
0
LTYPE
2
HIDDEN
70
0
3
__ __ __ __ __
72
65
73
2
40
0.037500
49
0.025013
49
-0.012488
0
LTYPE
2
CENTER
70
0
3
___ _ ___ _ ___
72
65
73
4
40
0.087488
49
0.049988
49
-0.012488
49
0.012488
49
-0.012488
0
ENDTAB
0
TABLE
2
LAYER
70
5
0
LAYER
2
0
70
0
62
7
6
CONTINUOUS
0
LAYER
2
FRONT
70
0
62
7
6
CONTINUOUS
0
LAYER
2
LEFT
70
0
62
7
6
CONTINUOUS
0
LAYER
2
LEFT_HID
70
0
62
7
6
HIDDEN
0
LAYER
2
TOP
70
0
62
7
6
CONTINUOUS
0
ENDTAB
0
ENDSEC
0
SECTION
2
ENTITIES
0
LINE
8
FRONT
10
0.000000
20
0.450000
30
0.0
11
0.000000
21
1.200000
31
0.0
0
LINE
8
FRONT
10
0.119999
20
0.450000
30
0.0
11
0.000000
21
0.450000
31
0.0
0
LINE
8
FRONT
10
0.119999
20
1.200000
30
0.0
11
0.000000
21
1.200000
31
0.0
0
LINE
8
FRONT
10
0.119999
20
0.450000
30
0.0
11
0.119999
21
1.200000
31
0.0
0
LINE
8
FRONT
10
0.337882
20
0.450000
30
0.0
11
0.299782
21
0.450000
31
0.0
0
LINE
8
FRONT
10
0.299782
20
0.450000
30
0.0
11
0.119999
21
0.450000
31
0.0
0
LINE
8
FRONT
10
0.337882
20
1.200000
30
0.0
11
0.299782
21
1.200000
31
0.0
0
LINE
8
FRONT
10
0.299782
20
1.200000
30
0.0
11
0.119999
21
1.200000
31
0.0
0
LINE
8
FRONT
10
0.337882
20
0.450000
30
0.0
11
0.337882
21
1.200000
31
0.0
0
LINE
8
FRONT
10
0.299782
20
0.450000
30
0.0
11
0.299782
21
1.200000
31
0.0
0
LINE
8
LEFT
10
0.787882
20
0.450000
30
0.0
11
0.787882
21
1.200000
31
0.0
0
LINE
8
LEFT
10
0.487882
20
0.450000
30
0.0
11
0.487882
21
1.200000
31
0.0
0
LINE
8
LEFT
10
0.487882
20
1.200000
30
0.0
11
0.787882
21
1.200000
31
0.0
0
LINE
8
LEFT
10
0.487882
20
0.450000
30
0.0
11
0.787882
21
0.450000
31
0.0
0
LINE
8
LEFT_HID
6
HIDDEN
10
0.787882
20
1.200000
30
0.0
11
0.742882
21
1.200000
31
0.0
0
LINE
8
LEFT_HID
6
HIDDEN
10
0.742882
20
0.450000
30
0.0
11
0.742882
21
1.200000
31
0.0
0
LINE
8
LEFT_HID
6
HIDDEN
10
0.787882
20
0.450000
30
0.0
11
0.742882
21
0.450000
31
0.0
0
LINE
8
LEFT_HID
6
HIDDEN
10
0.742882
20
0.450000
30
0.0
11
0.533371
21
0.450000
31
0.0
0
LINE
8
LEFT_HID
6
HIDDEN
10
0.533371
20
0.450000
30
0.0
11
0.488371
21
0.450000
31
0.0
0
LINE
8
LEFT_HID
6
HIDDEN
10
0.488371
20
0.450000
30
0.0
11
0.487882
21
0.450000
31
0.0
0
LINE
8
LEFT_HID
6
HIDDEN
10
0.742882
20
1.200000
30
0.0
11
0.533371
21
1.200000
31
0.0
0
LINE
8
LEFT_HID
6
HIDDEN
10
0.533371
20
1.200000
30
0.0
11
0.488371
21
1.200000
31
0.0
0
LINE
8
LEFT_HID
6
HIDDEN
10
0.488371
20
1.200000
30
0.0
11
0.487882
21
1.200000
31
0.0
0
LINE
8
LEFT_HID
6
HIDDEN
10
0.488371
20
0.450000
30
0.0
11
0.488371
21
1.200000
31
0.0
0
LINE
8
LEFT_HID
6
HIDDEN
10
0.742882
20
0.450000
30
0.0
11
0.742882
21
1.200000
31
0.0
0
LINE
8
LEFT_HID
6
HIDDEN
10
0.742882
20
0.450000
30
0.0
11
0.704782
21
0.450000
31
0.0
0
LINE
8
LEFT_HID
6
HIDDEN
10
0.704782
20
0.450000
30
0.0
11
0.571471
21
0.450000
31
0.0
0
LINE
8
LEFT_HID
6
HIDDEN
10
0.571471
20
0.450000
30
0.0
11
0.533371
21
0.450000
31
0.0
0
LINE
8
LEFT_HID
6
HIDDEN
10
0.533371
20
0.450000
30
0.0
11
0.533371
21
1.200000
31
0.0
0
LINE
8
LEFT_HID
6
HIDDEN
10
0.742882
20
1.200000
30
0.0
11
0.704782
21
1.200000
31
0.0
0
LINE
8
LEFT_HID
6
HIDDEN
10
0.704782
20
1.200000
30
0.0
11
0.571471
21
1.200000
31
0.0
0
LINE
8
LEFT_HID
6
HIDDEN
10
0.571471
20
1.200000
30
0.0
11
0.533371
21
1.200000
31
0.0
0
LINE
8
LEFT_HID
6
HIDDEN
10
0.533371
20
0.450000
30
0.0
11
0.533371
21
1.200000
31
0.0
0
LINE
8
LEFT_HID
6
HIDDEN
10
0.704782
20
0.450000
30
0.0
11
0.704782
21
1.200000
31
0.0
0
LINE
8
LEFT_HID
6
HIDDEN
10
0.571471
20
0.450000
30
0.0
11
0.571471
21
1.200000
31
0.0
0
LINE
8
TOP
10
0.000000
20
0.000000
30
0.0
11
0.119999
21
0.000000
31
0.0
0
LINE
8
TOP
10
0.000000
20
0.300000
30
0.0
11
0.000000
21
0.000000
31
0.0
0
LINE
8
TOP
10
0.119999
20
0.000000
30
0.0
11
0.119999
21
0.045000
31
0.0
0
LINE
8
TOP
10
0.119999
20
0.254511
30
0.0
11
0.119999
21
0.299511
31
0.0
0
LINE
8
TOP
10
0.119999
20
0.299511
30
0.0
11
0.000000
21
0.300000
31
0.0
0
LINE
8
TOP
10
0.119999
20
0.045000
30
0.0
11
0.299782
21
0.045000
31
0.0
0
LINE
8
TOP
10
0.299782
20
0.045000
30
0.0
11
0.300732
21
0.045012
31
0.0
0
LINE
8
TOP
10
0.300732
20
0.045012
30
0.0
11
0.301681
21
0.045047
31
0.0
0
LINE
8
TOP
10
0.301681
20
0.045047
30
0.0
11
0.302629
21
0.045107
31
0.0
0
LINE
8
TOP
10
0.302629
20
0.045107
30
0.0
11
0.303575
21
0.045189
31
0.0
0
LINE
8
TOP
10
0.303575
20
0.045189
30
0.0
11
0.304519
21
0.045296
31
0.0
0
LINE
8
TOP
10
0.304519
20
0.045296
30
0.0
11
0.305460
21
0.045426
31
0.0
0
LINE
8
TOP
10
0.305460
20
0.045426
30
0.0
11
0.306398
21
0.045579
31
0.0
0
LINE
8
TOP
10
0.306398
20
0.045579
30
0.0
11
0.307331
21
0.045755
31
0.0
0
LINE
8
TOP
10
0.307331
20
0.045755
30
0.0
11
0.308260
21
0.045955
31
0.0
0
LINE
8
TOP
10
0.308260
20
0.045955
30
0.0
11
0.309183
21
0.046178
31
0.0
0
LINE
8
TOP
10
0.309183
20
0.046178
30
0.0
11
0.310101
21
0.046424
31
0.0
0
LINE
8
TOP
10
0.310101
20
0.046424
30
0.0
11
0.311012
21
0.046693
31
0.0
0
LINE
8
TOP
10
0.311012
20
0.046693
30
0.0
11
0.311916
21
0.046984
31
0.0
0
LINE
8
TOP
10
0.311916
20
0.046984
30
0.0
11
0.312813
21
0.047298
31
0.0
0
LINE
8
TOP
10
0.312813
20
0.047298
30
0.0
11
0.313701
21
0.047634
31
0.0
0
LINE
8
TOP
10
0.313701
20
0.047634
30
0.0
11
0.314581
21
0.047992
31
0.0
0
LINE
8
TOP
10
0.314581
20
0.047992
30
0.0
11
0.315452
21
0.048372
31
0.0
0
LINE
8
TOP
10
0.315452
20
0.048372
30
0.0
11
0.316313
21
0.048773
31
0.0
0
LINE
8
TOP
10
0.316313
20
0.048773
30
0.0
11
0.317163
21
0.049196
31
0.0
0
LINE
8
TOP
10
0.317163
20
0.049196
30
0.0
11
0.318003
21
0.049640
31
0.0
0
LINE
8
TOP
10
0.318003
20
0.049640
30
0.0
11
0.318832
21
0.050104
31
0.0
0
LINE
8
TOP
10
0.318832
20
0.050104
30
0.0
11
0.319648
21
0.050590
31
0.0
0
LINE
8
TOP
10
0.319648
20
0.050590
30
0.0
11
0.320453
21
0.051095
31
0.0
0
LINE
8
TOP
10
0.320453
20
0.051095
30
0.0
11
0.321244
21
0.051620
31
0.0
0
LINE
8
TOP
10
0.321244
20
0.051620
30
0.0
11
0.322022
21
0.052165
31
0.0
0
LINE
8
TOP
10
0.322022
20
0.052165
30
0.0
11
0.322787
21
0.052729
31
0.0
0
LINE
8
TOP
10
0.322787
20
0.052729
30
0.0
11
0.323537
21
0.053312
31
0.0
0
LINE
8
TOP
10
0.323537
20
0.053312
30
0.0
11
0.324272
21
0.053914
31
0.0
0
LINE
8
TOP
10
0.324272
20
0.053914
30
0.0
11
0.324992
21
0.054533
31
0.0
0
LINE
8
TOP
10
0.324992
20
0.054533
30
0.0
11
0.325696
21
0.055171
31
0.0
0
LINE
8
TOP
10
0.325696
20
0.055171
30
0.0
11
0.326385
21
0.055825
31
0.0
0
LINE
8
TOP
10
0.326385
20
0.055825
30
0.0
11
0.327056
21
0.056497
31
0.0
0
LINE
8
TOP
10
0.327056
20
0.056497
30
0.0
11
0.327711
21
0.057185
31
0.0
0
LINE
8
TOP
10
0.327711
20
0.057185
30
0.0
11
0.328348
21
0.057890
31
0.0
0
LINE
8
TOP
10
0.328348
20
0.057890
30
0.0
11
0.328968
21
0.058610
31
0.0
0
LINE
8
TOP
10
0.328968
20
0.058610
30
0.0
11
0.329569
21
0.059345
31
0.0
0
LINE
8
TOP
10
0.329569
20
0.059345
30
0.0
11
0.330152
21
0.060095
31
0.0
0
LINE
8
TOP
10
0.330152
20
0.060095
30
0.0
11
0.330717
21
0.060859
31
0.0
0
LINE
8
TOP
10
0.330717
20
0.060859
30
0.0
11
0.331261
21
0.061638
31
0.0
0
LINE
8
TOP
10
0.331261
20
0.061638
30
0.0
11
0.331787
21
0.062429
31
0.0
0
LINE
8
TOP
10
0.331787
20
0.062429
30
0.0
11
0.332292
21
0.063233
31
0.0
0
LINE
8
TOP
10
0.332292
20
0.063233
30
0.0
11
0.332777
21
0.064050
31
0.0
0
LINE
8
TOP
10
0.332777
20
0.064050
30
0.0
11
0.333242
21
0.064879
31
0.0
0
LINE
8
TOP
10
0.333242
20
0.064879
30
0.0
11
0.333686
21
0.065718
31
0.0
0
LINE
8
TOP
10
0.333686
20
0.065718
30
0.0
11
0.334109
21
0.066569
31
0.0
0
LINE
8
TOP
10
0.334109
20
0.066569
30
0.0
11
0.334510
21
0.067430
31
0.0
0
LINE
8
TOP
10
0.334510
20
0.067430
30
0.0
11
0.334890
21
0.068301
31
0.0
0
LINE
8
TOP
10
0.334890
20
0.068301
30
0.0
11
0.335248
21
0.069181
31
0.0
0
LINE
8
TOP
10
0.335248
20
0.069181
30
0.0
11
0.335584
21
0.070069
31
0.0
0
LINE
8
TOP
10
0.335584
20
0.070069
30
0.0
11
0.335898
21
0.070966
31
0.0
0
LINE
8
TOP
10
0.335898
20
0.070966
30
0.0
11
0.336189
21
0.071870
31
0.0
0
LINE
8
TOP
10
0.336189
20
0.071870
30
0.0
11
0.336458
21
0.072781
31
0.0
0
LINE
8
TOP
10
0.336458
20
0.072781
30
0.0
11
0.336704
21
0.073699
31
0.0
0
LINE
8
TOP
10
0.336704
20
0.073699
30
0.0
11
0.336926
21
0.074622
31
0.0
0
LINE
8
TOP
10
0.336926
20
0.074622
30
0.0
11
0.337126
21
0.075551
31
0.0
0
LINE
8
TOP
10
0.337126
20
0.075551
30
0.0
11
0.337303
21
0.076484
31
0.0
0
LINE
8
TOP
10
0.337303
20
0.076484
30
0.0
11
0.337456
21
0.077421
31
0.0
0
LINE
8
TOP
10
0.337456
20
0.077421
30
0.0
11
0.337586
21
0.078363
31
0.0
0
LINE
8
TOP
10
0.337586
20
0.078363
30
0.0
11
0.337692
21
0.079306
31
0.0
0
LINE
8
TOP
10
0.337692
20
0.079306
30
0.0
11
0.337775
21
0.080253
31
0.0
0
LINE
8
TOP
10
0.337775
20
0.080253
30
0.0
11
0.337834
21
0.081201
31
0.0
0
LINE
8
TOP
10
0.337834
20
0.081201
30
0.0
11
0.337870
21
0.082150
31
0.0
0
LINE
8
TOP
10
0.337870
20
0.082150
30
0.0
11
0.337882
21
0.083100
31
0.0
0
LINE
8
TOP
10
0.337882
20
0.083100
30
0.0
11
0.337882
21
0.216411
31
0.0
0
LINE
8
TOP
10
0.337882
20
0.216411
30
0.0
11
0.337870
21
0.217361
31
0.0
0
LINE
8
TOP
10
0.337870
20
0.217361
30
0.0
11
0.337834
21
0.218310
31
0.0
0
LINE
8
TOP
10
0.337834
20
0.218310
30
0.0
11
0.337775
21
0.219258
31
0.0
0
LINE
8
TOP
10
0.337775
20
0.219258
30
0.0
11
0.337692
21
0.220205
31
0.0
0
LINE
8
TOP
10
0.337692
20
0.220205
30
0.0
11
0.337586
21
0.221149
31
0.0
0
LINE
8
TOP
10
0.337586
20
0.221149
30
0.0
11
0.337456
21
0.222090
31
0.0
0
LINE
8
TOP
10
0.337456
20
0.222090
30
0.0
11
0.337303
21
0.223027
31
0.0
0
LINE
8
TOP
10
0.337303
20
0.223027
30
0.0
11
0.337126
21
0.223961
31
0.0
0
LINE
8
TOP
10
0.337126
20
0.223961
30
0.0
11
0.336926
21
0.224889
31
0.0
0
LINE
8
TOP
10
0.336926
20
0.224889
30
0.0
11
0.336704
21
0.225813
31
0.0
0
LINE
8
TOP
10
0.336704
20
0.225813
30
0.0
11
0.336458
21
0.226730
31
0.0
0
LINE
8
TOP
10
0.336458
20
0.226730
30
0.0
11
0.336189
21
0.227641
31
0.0
0
LINE
8
TOP
10
0.336189
20
0.227641
30
0.0
11
0.335898
21
0.228546
31
0.0
0
LINE
8
TOP
10
0.335898
20
0.228546
30
0.0
11
0.335584
21
0.229442
31
0.0
0
LINE
8
TOP
10
0.335584
20
0.229442
30
0.0
11
0.335248
21
0.230331
31
0.0
0
LINE
8
TOP
10
0.335248
20
0.230331
30
0.0
11
0.334890
21
0.231211
31
0.0
0
LINE
8
TOP
10
0.334890
20
0.231211
30
0.0
11
0.334510
21
0.232081
31
0.0
0
LINE
8
TOP
10
0.334510
20
0.232081
30
0.0
11
0.334109
21
0.232942
31
0.0
0
LINE
8
TOP
10
0.334109
20
0.232942
30
0.0
11
0.333686
21
0.233793
31
0.0
0
LINE
8
TOP
10
0.333686
20
0.233793
30
0.0
11
0.333242
21
0.234633
31
0.0
0
LINE
8
TOP
10
0.333242
20
0.234633
30
0.0
11
0.332777
21
0.235461
31
0.0
0
LINE
8
TOP
10
0.332777
20
0.235461
30
0.0
11
0.332292
21
0.236278
31
0.0
0
LINE
8
TOP
10
0.332292
20
0.236278
30
0.0
11
0.331787
21
0.237082
31
0.0
0
LINE
8
TOP
10
0.331787
20
0.237082
30
0.0
11
0.331261
21
0.237874
31
0.0
0
LINE
8
TOP
10
0.331261
20
0.237874
30
0.0
11
0.330717
21
0.238652
31
0.0
0
LINE
8
TOP
10
0.330717
20
0.238652
30
0.0
11
0.330152
21
0.239416
31
0.0
0
LINE
8
TOP
10
0.330152
20
0.239416
30
0.0
11
0.329569
21
0.240166
31
0.0
0
LINE
8
TOP
10
0.329569
20
0.240166
30
0.0
11
0.328968
21
0.240901
31
0.0
0
LINE
8
TOP
10
0.328968
20
0.240901
30
0.0
11
0.328348
21
0.241621
31
0.0
0
LINE
8
TOP
10
0.328348
20
0.241621
30
0.0
11
0.327711
21
0.242326
31
0.0
0
LINE
8
TOP
10
0.327711
20
0.242326
30
0.0
11
0.327056
21
0.243014
31
0.0
0
LINE
8
TOP
10
0.327056
20
0.243014
30
0.0
11
0.326385
21
0.243686
31
0.0
0
LINE
8
TOP
10
0.326385
20
0.243686
30
0.0
11
0.325696
21
0.244340
31
0.0
0
LINE
8
TOP
10
0.325696
20
0.244340
30
0.0
11
0.324992
21
0.244978
31
0.0
0
LINE
8
TOP
10
0.324992
20
0.244978
30
0.0
11
0.324272
21
0.245598
31
0.0
0
LINE
8
TOP
10
0.324272
20
0.245598
30
0.0
11
0.323537
21
0.246199
31
0.0
0
LINE
8
TOP
10
0.323537
20
0.246199
30
0.0
11
0.322787
21
0.246782
31
0.0
0
LINE
8
TOP
10
0.322787
20
0.246782
30
0.0
11
0.322022
21
0.247346
31
0.0
0
LINE
8
TOP
10
0.322022
20
0.247346
30
0.0
11
0.321244
21
0.247891
31
0.0
0
LINE
8
TOP
10
0.321244
20
0.247891
30
0.0
11
0.320453
21
0.248416
31
0.0
0
LINE
8
TOP
10
0.320453
20
0.248416
30
0.0
11
0.319648
21
0.248922
31
0.0
0
LINE
8
TOP
10
0.319648
20
0.248922
30
0.0
11
0.318832
21
0.249407
31
0.0
0
LINE
8
TOP
10
0.318832
20
0.249407
30
0.0
11
0.318003
21
0.249871
31
0.0
0
LINE
8
TOP
10
0.318003
20
0.249871
30
0.0
11
0.317163
21
0.250315
31
0.0
0
LINE
8
TOP
10
0.317163
20
0.250315
30
0.0
11
0.316313
21
0.250738
31
0.0
0
LINE
8
TOP
10
0.316313
20
0.250738
30
0.0
11
0.315452
21
0.251140
31
0.0
0
LINE
8
TOP
10
0.315452
20
0.251140
30
0.0
11
0.314581
21
0.251519
31
0.0
0
LINE
8
TOP
10
0.314581
20
0.251519
30
0.0
11
0.313701
21
0.251877
31
0.0
0
LINE
8
TOP
10
0.313701
20
0.251877
30
0.0
11
0.312813
21
0.252213
31
0.0
0
LINE
8
TOP
10
0.312813
20
0.252213
30
0.0
11
0.311916
21
0.252527
31
0.0
0
LINE
8
TOP
10
0.311916
20
0.252527
30
0.0
11
0.311012
21
0.252819
31
0.0
0
LINE
8
TOP
10
0.311012
20
0.252819
30
0.0
11
0.310101
21
0.253087
31
0.0
0
LINE
8
TOP
10
0.310101
20
0.253087
30
0.0
11
0.309183
21
0.253333
31
0.0
0
LINE
8
TOP
10
0.309183
20
0.253333
30
0.0
11
0.308260
21
0.253556
31
0.0
0
LINE
8
TOP
10
0.308260
20
0.253556
30
0.0
11
0.307331
21
0.253756
31
0.0
0
LINE
8
TOP
10
0.307331
20
0.253756
30
0.0
11
0.306398
21
0.253932
31
0.0
0
LINE
8
TOP
10
0.306398
20
0.253932
30
0.0
11
0.305460
21
0.254086
31
0.0
0
LINE
8
TOP
10
0.305460
20
0.254086
30
0.0
11
0.304519
21
0.254216
31
0.0
0
LINE
8
TOP
10
0.304519
20
0.254216
30
0.0
11
0.303575
21
0.254322
31
0.0
0
LINE
8
TOP
10
0.303575
20
0.254322
30
0.0
11
0.302629
21
0.254405
31
0.0
0
LINE
8
TOP
10
0.302629
20
0.254405
30
0.0
11
0.301681
21
0.254464
31
0.0
0
LINE
8
TOP
10
0.301681
20
0.254464
30
0.0
11
0.300732
21
0.254499
31
0.0
0
LINE
8
TOP
10
0.300732
20
0.254499
30
0.0
11
0.299782
21
0.254511
31
0.0
0
LINE
8
TOP
10
0.299782
20
0.254511
30
0.0
11
0.119999
21
0.254511
31
0.0
0
ENDSEC
0
EOF
