0
SECTION
2
HEADER
9
$ACADVER
1
AC1009
0
ENDSEC
0
SECTION
2
TABLES
0
TABLE
2
LTYPE
70
3
0
LTYPE
2
CONTINUOUS
70
0
3
Solid line
72
65
73
0
40
0.0
0
LTYPE
2
HIDDEN
70
0
3
__ __ __ __ __
72
65
73
2
40
0.075000
49
0.050025
49
-0.024975
0
LTYPE
2
CENTER
70
0
3
___ _ ___ _ ___
72
65
73
4
40
0.174975
49
0.099975
49
-0.024975
49
0.024975
49
-0.024975
0
ENDTAB
0
TABLE
2
LAYER
70
6
0
LAYER
2
0
70
0
62
7
6
CONTINUOUS
0
LAYER
2
FRONT
70
0
62
7
6
CONTINUOUS
0
LAYER
2
FRONT_HID
70
0
62
7
6
HIDDEN
0
LAYER
2
LEFT
70
0
62
7
6
CONTINUOUS
0
LAYER
2
LEFT_HID
70
0
62
7
6
HIDDEN
0
LAYER
2
TOP
70
0
62
7
6
CONTINUOUS
0
ENDTAB
0
ENDSEC
0
SECTION
2
ENTITIES
0
LINE
8
FRONT
10
1.500000
20
1.799534
30
0.0
11
0.000000
21
1.799534
31
0.0
0
LINE
8
FRONT
10
1.500000
20
1.799534
30
0.0
11
1.500000
21
1.879891
31
0.0
0
LINE
8
FRONT
10
1.500000
20
1.879891
30
0.0
11
0.000000
21
1.879891
31
0.0
0
LINE
8
FRONT
10
0.000000
20
1.879891
30
0.0
11
0.000000
21
1.799534
31
0.0
0
LINE
8
FRONT_HID
6
HIDDEN
10
1.486607
20
1.799534
30
0.0
11
0.013393
21
1.799534
31
0.0
0
LINE
8
FRONT_HID
6
HIDDEN
10
0.013393
20
1.799534
30
0.0
11
1.486607
21
1.799534
31
0.0
0
LINE
8
FRONT_HID
6
HIDDEN
10
1.486607
20
1.799534
30
0.0
11
1.486607
21
1.879891
31
0.0
0
LINE
8
FRONT_HID
6
HIDDEN
10
1.486607
20
1.879891
30
0.0
11
0.013393
21
1.879891
31
0.0
0
LINE
8
FRONT_HID
6
HIDDEN
10
0.013393
20
1.879891
30
0.0
11
1.486607
21
1.879891
31
0.0
0
LINE
8
FRONT_HID
6
HIDDEN
10
1.459821
20
1.799534
30
0.0
11
0.040179
21
1.799534
31
0.0
0
LINE
8
FRONT_HID
6
HIDDEN
10
0.040179
20
1.799534
30
0.0
11
1.459821
21
1.799534
31
0.0
0
LINE
8
FRONT_HID
6
HIDDEN
10
1.459821
20
1.799534
30
0.0
11
1.459821
21
1.879891
31
0.0
0
LINE
8
FRONT_HID
6
HIDDEN
10
1.459821
20
1.879891
30
0.0
11
0.040179
21
1.879891
31
0.0
0
LINE
8
FRONT_HID
6
HIDDEN
10
0.040179
20
1.879891
30
0.0
11
1.459821
21
1.879891
31
0.0
0
LINE
8
FRONT_HID
6
HIDDEN
10
1.446429
20
1.799534
30
0.0
11
0.053571
21
1.799534
31
0.0
0
LINE
8
FRONT_HID
6
HIDDEN
10
0.053571
20
1.799534
30
0.0
11
1.446429
21
1.799534
31
0.0
0
LINE
8
FRONT_HID
6
HIDDEN
10
1.446429
20
1.799534
30
0.0
11
1.446429
21
1.879891
31
0.0
0
LINE
8
FRONT_HID
6
HIDDEN
10
1.446429
20
1.879891
30
0.0
11
0.053571
21
1.879891
31
0.0
0
LINE
8
FRONT_HID
6
HIDDEN
10
0.053571
20
1.879891
30
0.0
11
1.446429
21
1.879891
31
0.0
0
LINE
8
FRONT_HID
6
HIDDEN
10
0.013393
20
1.879891
30
0.0
11
0.013393
21
1.799534
31
0.0
0
LINE
8
FRONT_HID
6
HIDDEN
10
0.040179
20
1.879891
30
0.0
11
0.040179
21
1.799534
31
0.0
0
LINE
8
FRONT_HID
6
HIDDEN
10
0.053571
20
1.879891
30
0.0
11
0.053571
21
1.799534
31
0.0
0
LINE
8
LEFT
10
1.800000
20
1.799534
30
0.0
11
3.300000
21
1.799534
31
0.0
0
LINE
8
LEFT
10
1.800000
20
1.879891
30
0.0
11
3.300000
21
1.879891
31
0.0
0
LINE
8
LEFT
10
1.800000
20
1.879891
30
0.0
11
1.800000
21
1.799534
31
0.0
0
LINE
8
LEFT
10
3.300000
20
1.879891
30
0.0
11
3.300000
21
1.799534
31
0.0
0
LINE
8
LEFT_HID
6
HIDDEN
10
2.550000
20
1.799534
30
0.0
11
1.800000
21
1.799534
31
0.0
0
LINE
8
LEFT_HID
6
HIDDEN
10
3.300000
20
1.799534
30
0.0
11
2.550000
21
1.799534
31
0.0
0
LINE
8
LEFT_HID
6
HIDDEN
10
2.550000
20
1.879891
30
0.0
11
1.800000
21
1.879891
31
0.0
0
LINE
8
LEFT_HID
6
HIDDEN
10
3.300000
20
1.879891
30
0.0
11
2.550000
21
1.879891
31
0.0
0
LINE
8
LEFT_HID
6
HIDDEN
10
2.550000
20
1.799534
30
0.0
11
1.813393
21
1.799534
31
0.0
0
LINE
8
LEFT_HID
6
HIDDEN
10
1.813393
20
1.799534
30
0.0
11
3.286607
21
1.799534
31
0.0
0
LINE
8
LEFT_HID
6
HIDDEN
10
3.286607
20
1.799534
30
0.0
11
2.550000
21
1.799534
31
0.0
0
LINE
8
LEFT_HID
6
HIDDEN
10
2.550000
20
1.879891
30
0.0
11
1.813393
21
1.879891
31
0.0
0
LINE
8
LEFT_HID
6
HIDDEN
10
1.813393
20
1.879891
30
0.0
11
3.286607
21
1.879891
31
0.0
0
LINE
8
LEFT_HID
6
HIDDEN
10
3.286607
20
1.879891
30
0.0
11
2.550000
21
1.879891
31
0.0
0
LINE
8
LEFT_HID
6
HIDDEN
10
2.550000
20
1.799534
30
0.0
11
1.840179
21
1.799534
31
0.0
0
LINE
8
LEFT_HID
6
HIDDEN
10
1.840179
20
1.799534
30
0.0
11
3.259821
21
1.799534
31
0.0
0
LINE
8
LEFT_HID
6
HIDDEN
10
3.259821
20
1.799534
30
0.0
11
2.550000
21
1.799534
31
0.0
0
LINE
8
LEFT_HID
6
HIDDEN
10
2.550000
20
1.879891
30
0.0
11
1.840179
21
1.879891
31
0.0
0
LINE
8
LEFT_HID
6
HIDDEN
10
1.840179
20
1.879891
30
0.0
11
3.259821
21
1.879891
31
0.0
0
LINE
8
LEFT_HID
6
HIDDEN
10
3.259821
20
1.879891
30
0.0
11
2.550000
21
1.879891
31
0.0
0
LINE
8
LEFT_HID
6
HIDDEN
10
2.550000
20
1.799534
30
0.0
11
1.853571
21
1.799534
31
0.0
0
LINE
8
LEFT_HID
6
HIDDEN
10
1.853571
20
1.799534
30
0.0
11
3.246429
21
1.799534
31
0.0
0
LINE
8
LEFT_HID
6
HIDDEN
10
3.246429
20
1.799534
30
0.0
11
2.550000
21
1.799534
31
0.0
0
LINE
8
LEFT_HID
6
HIDDEN
10
2.550000
20
1.879891
30
0.0
11
1.853571
21
1.879891
31
0.0
0
LINE
8
LEFT_HID
6
HIDDEN
10
1.853571
20
1.879891
30
0.0
11
3.246429
21
1.879891
31
0.0
0
LINE
8
LEFT_HID
6
HIDDEN
10
3.246429
20
1.879891
30
0.0
11
2.550000
21
1.879891
31
0.0
0
LINE
8
LEFT_HID
6
HIDDEN
10
1.813393
20
1.879891
30
0.0
11
1.813393
21
1.799534
31
0.0
0
LINE
8
LEFT_HID
6
HIDDEN
10
3.286607
20
1.879891
30
0.0
11
3.286607
21
1.799534
31
0.0
0
LINE
8
LEFT_HID
6
HIDDEN
10
1.840179
20
1.879891
30
0.0
11
1.840179
21
1.799534
31
0.0
0
LINE
8
LEFT_HID
6
HIDDEN
10
3.259821
20
1.879891
30
0.0
11
3.259821
21
1.799534
31
0.0
0
LINE
8
LEFT_HID
6
HIDDEN
10
1.853571
20
1.879891
30
0.0
11
1.853571
21
1.799534
31
0.0
0
LINE
8
LEFT_HID
6
HIDDEN
10
3.246429
20
1.879891
30
0.0
11
3.246429
21
1.799534
31
0.0
0
LINE
8
TOP
10
1.499068
20
0.749767
30
0.0
11
1.495341
21
0.824443
31
0.0
0
LINE
8
TOP
10
1.495341
20
0.824443
30
0.0
11
1.484197
21
0.898376
31
0.0
0
LINE
8
TOP
10
1.484197
20
0.898376
30
0.0
11
1.465747
21
0.970833
31
0.0
0
LINE
8
TOP
10
1.465747
20
0.970833
30
0.0
11
1.440175
21
1.041093
31
0.0
0
LINE
8
TOP
10
1.440175
20
1.041093
30
0.0
11
1.407734
21
1.108457
31
0.0
0
LINE
8
TOP
10
1.407734
20
1.108457
30
0.0
11
1.368747
21
1.172257
31
0.0
0
LINE
8
TOP
10
1.368747
20
1.172257
30
0.0
11
1.323601
21
1.231858
31
0.0
0
LINE
8
TOP
10
1.323601
20
1.231858
30
0.0
11
1.272745
21
1.286667
31
0.0
0
LINE
8
TOP
10
1.272745
20
1.286667
30
0.0
11
1.216685
21
1.336140
31
0.0
0
LINE
8
TOP
10
1.216685
20
1.336140
30
0.0
11
1.155977
21
1.379786
31
0.0
0
LINE
8
TOP
10
1.155977
20
1.379786
30
0.0
11
1.091226
21
1.417171
31
0.0
0
LINE
8
TOP
10
1.091226
20
1.417171
30
0.0
11
1.023073
21
1.447922
31
0.0
0
LINE
8
TOP
10
1.023073
20
1.447922
30
0.0
11
0.952198
21
1.471735
31
0.0
0
LINE
8
TOP
10
0.952198
20
1.471735
30
0.0
11
0.879304
21
1.488373
31
0.0
0
LINE
8
TOP
10
0.879304
20
1.488373
30
0.0
11
0.805115
21
1.497670
31
0.0
0
LINE
8
TOP
10
0.805115
20
1.497670
30
0.0
11
0.730370
21
1.499534
31
0.0
0
LINE
8
TOP
10
0.730370
20
1.499534
30
0.0
11
0.655810
21
1.493946
31
0.0
0
LINE
8
TOP
10
0.655810
20
1.493946
30
0.0
11
0.582177
21
1.480963
31
0.0
0
LINE
8
TOP
10
0.582177
20
1.480963
30
0.0
11
0.510203
21
1.460712
31
0.0
0
LINE
8
TOP
10
0.510203
20
1.460712
30
0.0
11
0.440602
21
1.433396
31
0.0
0
LINE
8
TOP
10
0.440602
20
1.433396
30
0.0
11
0.374068
21
1.399286
31
0.0
0
LINE
8
TOP
10
0.374068
20
1.399286
30
0.0
11
0.311260
21
1.358720
31
0.0
0
LINE
8
TOP
10
0.311260
20
1.358720
30
0.0
11
0.252803
21
1.312103
31
0.0
0
LINE
8
TOP
10
0.252803
20
1.312103
30
0.0
11
0.199279
21
1.259896
31
0.0
0
LINE
8
TOP
10
0.199279
20
1.259896
30
0.0
11
0.151218
21
1.202620
31
0.0
0
LINE
8
TOP
10
0.151218
20
1.202620
30
0.0
11
0.109100
21
1.140843
31
0.0
0
LINE
8
TOP
10
0.109100
20
1.140843
30
0.0
11
0.073341
21
1.075180
31
0.0
0
LINE
8
TOP
10
0.073341
20
1.075180
30
0.0
11
0.044298
21
1.006282
31
0.0
0
LINE
8
TOP
10
0.044298
20
1.006282
30
0.0
11
0.022260
21
0.934835
31
0.0
0
LINE
8
TOP
10
0.022260
20
0.934835
30
0.0
11
0.007445
21
0.861549
31
0.0
0
LINE
8
TOP
10
0.007445
20
0.861549
30
0.0
11
0.000000
21
0.787151
31
0.0
0
LINE
8
TOP
10
0.000000
20
0.787151
30
0.0
11
0.000000
21
0.712382
31
0.0
0
LINE
8
TOP
10
0.000000
20
0.712382
30
0.0
11
0.007445
21
0.637985
31
0.0
0
LINE
8
TOP
10
0.007445
20
0.637985
30
0.0
11
0.022260
21
0.564699
31
0.0
0
LINE
8
TOP
10
0.022260
20
0.564699
30
0.0
11
0.044298
21
0.493252
31
0.0
0
LINE
8
TOP
10
0.044298
20
0.493252
30
0.0
11
0.073341
21
0.424354
31
0.0
0
LINE
8
TOP
10
0.073341
20
0.424354
30
0.0
11
0.109100
21
0.358690
31
0.0
0
LINE
8
TOP
10
0.109100
20
0.358690
30
0.0
11
0.151218
21
0.296914
31
0.0
0
LINE
8
TOP
10
0.151218
20
0.296914
30
0.0
11
0.199279
21
0.239637
31
0.0
0
LINE
8
TOP
10
0.199279
20
0.239637
30
0.0
11
0.252803
21
0.187431
31
0.0
0
LINE
8
TOP
10
0.252803
20
0.187431
30
0.0
11
0.311260
21
0.140813
31
0.0
0
LINE
8
TOP
10
0.311260
20
0.140813
30
0.0
11
0.374068
21
0.100248
31
0.0
0
LINE
8
TOP
10
0.374068
20
0.100248
30
0.0
11
0.440602
21
0.066137
31
0.0
0
LINE
8
TOP
10
0.440602
20
0.066137
30
0.0
11
0.510203
21
0.038821
31
0.0
0
LINE
8
TOP
10
0.510203
20
0.038821
30
0.0
11
0.582177
21
0.018571
31
0.0
0
LINE
8
TOP
10
0.582177
20
0.018571
30
0.0
11
0.655810
21
0.005587
31
0.0
0
LINE
8
TOP
10
0.655810
20
0.005587
30
0.0
11
0.730370
21
0.000000
31
0.0
0
LINE
8
TOP
10
0.730370
20
0.000000
30
0.0
11
0.805115
21
0.001864
31
0.0
0
LINE
8
TOP
10
0.805115
20
0.001864
30
0.0
11
0.879304
21
0.011161
31
0.0
0
LINE
8
TOP
10
0.879304
20
0.011161
30
0.0
11
0.952198
21
0.027799
31
0.0
0
LINE
8
TOP
10
0.952198
20
0.027799
30
0.0
11
1.023073
21
0.051612
31
0.0
0
LINE
8
TOP
10
1.023073
20
0.051612
30
0.0
11
1.091226
21
0.082363
31
0.0
0
LINE
8
TOP
10
1.091226
20
0.082363
30
0.0
11
1.155977
21
0.119747
31
0.0
0
LINE
8
TOP
10
1.155977
20
0.119747
30
0.0
11
1.216685
21
0.163393
31
0.0
0
LINE
8
TOP
10
1.216685
20
0.163393
30
0.0
11
1.272745
21
0.212867
31
0.0
0
LINE
8
TOP
10
1.272745
20
0.212867
30
0.0
11
1.323601
21
0.267676
31
0.0
0
LINE
8
TOP
10
1.323601
20
0.267676
30
0.0
11
1.368747
21
0.327277
31
0.0
0
LINE
8
TOP
10
1.368747
20
0.327277
30
0.0
11
1.407734
21
0.391076
31
0.0
0
LINE
8
TOP
10
1.407734
20
0.391076
30
0.0
11
1.440175
21
0.458441
31
0.0
0
LINE
8
TOP
10
1.440175
20
0.458441
30
0.0
11
1.465747
21
0.528701
31
0.0
0
LINE
8
TOP
10
1.465747
20
0.528701
30
0.0
11
1.484197
21
0.601157
31
0.0
0
LINE
8
TOP
10
1.484197
20
0.601157
30
0.0
11
1.495341
21
0.675091
31
0.0
0
LINE
8
TOP
10
1.495341
20
0.675091
30
0.0
11
1.499068
21
0.749767
31
0.0
0
LINE
8
TOP
10
1.485675
20
0.749767
30
0.0
11
1.482014
21
0.823109
31
0.0
0
LINE
8
TOP
10
1.482014
20
0.823109
30
0.0
11
1.471070
21
0.895723
31
0.0
0
LINE
8
TOP
10
1.471070
20
0.895723
30
0.0
11
1.452949
21
0.966886
31
0.0
0
LINE
8
TOP
10
1.452949
20
0.966886
30
0.0
11
1.427834
21
1.035891
31
0.0
0
LINE
8
TOP
10
1.427834
20
1.035891
30
0.0
11
1.395972
21
1.102052
31
0.0
0
LINE
8
TOP
10
1.395972
20
1.102052
30
0.0
11
1.357681
21
1.164712
31
0.0
0
LINE
8
TOP
10
1.357681
20
1.164712
30
0.0
11
1.313341
21
1.223249
31
0.0
0
LINE
8
TOP
10
1.313341
20
1.223249
30
0.0
11
1.263394
21
1.277080
31
0.0
0
LINE
8
TOP
10
1.263394
20
1.277080
30
0.0
11
1.208335
21
1.325670
31
0.0
0
LINE
8
TOP
10
1.208335
20
1.325670
30
0.0
11
1.148711
21
1.368536
31
0.0
0
LINE
8
TOP
10
1.148711
20
1.368536
30
0.0
11
1.085116
21
1.405253
31
0.0
0
LINE
8
TOP
10
1.085116
20
1.405253
30
0.0
11
1.018180
21
1.435455
31
0.0
0
LINE
8
TOP
10
1.018180
20
1.435455
30
0.0
11
0.948571
21
1.458843
31
0.0
0
LINE
8
TOP
10
0.948571
20
1.458843
30
0.0
11
0.876978
21
1.475183
31
0.0
0
LINE
8
TOP
10
0.876978
20
1.475183
30
0.0
11
0.804114
21
1.484314
31
0.0
0
LINE
8
TOP
10
0.804114
20
1.484314
30
0.0
11
0.730704
21
1.486145
31
0.0
0
LINE
8
TOP
10
0.730704
20
1.486145
30
0.0
11
0.657475
21
1.480657
31
0.0
0
LINE
8
TOP
10
0.657475
20
1.480657
30
0.0
11
0.585157
21
1.467906
31
0.0
0
LINE
8
TOP
10
0.585157
20
1.467906
30
0.0
11
0.514468
21
1.448017
31
0.0
0
LINE
8
TOP
10
0.514468
20
1.448017
30
0.0
11
0.446111
21
1.421189
31
0.0
0
LINE
8
TOP
10
0.446111
20
1.421189
30
0.0
11
0.380764
21
1.387687
31
0.0
0
LINE
8
TOP
10
0.380764
20
1.387687
30
0.0
11
0.319078
21
1.347846
31
0.0
0
LINE
8
TOP
10
0.319078
20
1.347846
30
0.0
11
0.261665
21
1.302061
31
0.0
0
LINE
8
TOP
10
0.261665
20
1.302061
30
0.0
11
0.209096
21
1.250787
31
0.0
0
LINE
8
TOP
10
0.209096
20
1.250787
30
0.0
11
0.161894
21
1.194534
31
0.0
0
LINE
8
TOP
10
0.161894
20
1.194534
30
0.0
11
0.120528
21
1.133860
31
0.0
0
LINE
8
TOP
10
0.120528
20
1.133860
30
0.0
11
0.085408
21
1.069369
31
0.0
0
LINE
8
TOP
10
0.085408
20
1.069369
30
0.0
11
0.056883
21
1.001701
31
0.0
0
LINE
8
TOP
10
0.056883
20
1.001701
30
0.0
11
0.035238
21
0.931530
31
0.0
0
LINE
8
TOP
10
0.035238
20
0.931530
30
0.0
11
0.020688
21
0.859552
31
0.0
0
LINE
8
TOP
10
0.020688
20
0.859552
30
0.0
11
0.013376
21
0.786484
31
0.0
0
LINE
8
TOP
10
0.013376
20
0.786484
30
0.0
11
0.013376
21
0.713050
31
0.0
0
LINE
8
TOP
10
0.013376
20
0.713050
30
0.0
11
0.020688
21
0.639981
31
0.0
0
LINE
8
TOP
10
0.020688
20
0.639981
30
0.0
11
0.035238
21
0.568004
31
0.0
0
LINE
8
TOP
10
0.035238
20
0.568004
30
0.0
11
0.056883
21
0.497832
31
0.0
0
LINE
8
TOP
10
0.056883
20
0.497832
30
0.0
11
0.085408
21
0.430165
31
0.0
0
LINE
8
TOP
10
0.085408
20
0.430165
30
0.0
11
0.120528
21
0.365674
31
0.0
0
LINE
8
TOP
10
0.120528
20
0.365674
30
0.0
11
0.161894
21
0.305000
31
0.0
0
LINE
8
TOP
10
0.161894
20
0.305000
30
0.0
11
0.209096
21
0.248747
31
0.0
0
LINE
8
TOP
10
0.209096
20
0.248747
30
0.0
11
0.261665
21
0.197473
31
0.0
0
LINE
8
TOP
10
0.261665
20
0.197473
30
0.0
11
0.319078
21
0.151688
31
0.0
0
LINE
8
TOP
10
0.319078
20
0.151688
30
0.0
11
0.380764
21
0.111846
31
0.0
0
LINE
8
TOP
10
0.380764
20
0.111846
30
0.0
11
0.446111
21
0.078345
31
0.0
0
LINE
8
TOP
10
0.446111
20
0.078345
30
0.0
11
0.514468
21
0.051517
31
0.0
0
LINE
8
TOP
10
0.514468
20
0.051517
30
0.0
11
0.585157
21
0.031628
31
0.0
0
LINE
8
TOP
10
0.585157
20
0.031628
30
0.0
11
0.657475
21
0.018876
31
0.0
0
LINE
8
TOP
10
0.657475
20
0.018876
30
0.0
11
0.730704
21
0.013389
31
0.0
0
LINE
8
TOP
10
0.730704
20
0.013389
30
0.0
11
0.804114
21
0.015219
31
0.0
0
LINE
8
TOP
10
0.804114
20
0.015219
30
0.0
11
0.876978
21
0.024350
31
0.0
0
LINE
8
TOP
10
0.876978
20
0.024350
30
0.0
11
0.948571
21
0.040691
31
0.0
0
LINE
8
TOP
10
0.948571
20
0.040691
30
0.0
11
1.018180
21
0.064079
31
0.0
0
LINE
8
TOP
10
1.018180
20
0.064079
30
0.0
11
1.085116
21
0.094281
31
0.0
0
LINE
8
TOP
10
1.085116
20
0.094281
30
0.0
11
1.148711
21
0.130998
31
0.0
0
LINE
8
TOP
10
1.148711
20
0.130998
30
0.0
11
1.208335
21
0.173864
31
0.0
0
LINE
8
TOP
10
1.208335
20
0.173864
30
0.0
11
1.263394
21
0.222454
31
0.0
0
LINE
8
TOP
10
1.263394
20
0.222454
30
0.0
11
1.313341
21
0.276285
31
0.0
0
LINE
8
TOP
10
1.313341
20
0.276285
30
0.0
11
1.357681
21
0.334821
31
0.0
0
LINE
8
TOP
10
1.357681
20
0.334821
30
0.0
11
1.395972
21
0.397482
31
0.0
0
LINE
8
TOP
10
1.395972
20
0.397482
30
0.0
11
1.427834
21
0.463643
31
0.0
0
LINE
8
TOP
10
1.427834
20
0.463643
30
0.0
11
1.452949
21
0.532648
31
0.0
0
LINE
8
TOP
10
1.452949
20
0.532648
30
0.0
11
1.471070
21
0.603811
31
0.0
0
LINE
8
TOP
10
1.471070
20
0.603811
30
0.0
11
1.482014
21
0.676424
31
0.0
0
LINE
8
TOP
10
1.482014
20
0.676424
30
0.0
11
1.485675
21
0.749767
31
0.0
0
LINE
8
TOP
10
1.458889
20
0.749767
30
0.0
11
1.455362
21
0.820442
31
0.0
0
LINE
8
TOP
10
1.455362
20
0.820442
30
0.0
11
1.444815
21
0.890415
31
0.0
0
LINE
8
TOP
10
1.444815
20
0.890415
30
0.0
11
1.427354
21
0.958990
31
0.0
0
LINE
8
TOP
10
1.427354
20
0.958990
30
0.0
11
1.403151
21
1.025486
31
0.0
0
LINE
8
TOP
10
1.403151
20
1.025486
30
0.0
11
1.372448
21
1.089242
31
0.0
0
LINE
8
TOP
10
1.372448
20
1.089242
30
0.0
11
1.335550
21
1.149624
31
0.0
0
LINE
8
TOP
10
1.335550
20
1.149624
30
0.0
11
1.292822
21
1.206031
31
0.0
0
LINE
8
TOP
10
1.292822
20
1.206031
30
0.0
11
1.244691
21
1.257905
31
0.0
0
LINE
8
TOP
10
1.244691
20
1.257905
30
0.0
11
1.191634
21
1.304728
31
0.0
0
LINE
8
TOP
10
1.191634
20
1.304728
30
0.0
11
1.134179
21
1.346035
31
0.0
0
LINE
8
TOP
10
1.134179
20
1.346035
30
0.0
11
1.072896
21
1.381417
31
0.0
0
LINE
8
TOP
10
1.072896
20
1.381417
30
0.0
11
1.008395
21
1.410521
31
0.0
0
LINE
8
TOP
10
1.008395
20
1.410521
30
0.0
11
0.941316
21
1.433058
31
0.0
0
LINE
8
TOP
10
0.941316
20
1.433058
30
0.0
11
0.872327
21
1.448805
31
0.0
0
LINE
8
TOP
10
0.872327
20
1.448805
30
0.0
11
0.802113
21
1.457604
31
0.0
0
LINE
8
TOP
10
0.802113
20
1.457604
30
0.0
11
0.731371
21
1.459368
31
0.0
0
LINE
8
TOP
10
0.731371
20
1.459368
30
0.0
11
0.660806
21
1.454080
31
0.0
0
LINE
8
TOP
10
0.660806
20
1.454080
30
0.0
11
0.591118
21
1.441792
31
0.0
0
LINE
8
TOP
10
0.591118
20
1.441792
30
0.0
11
0.522999
21
1.422626
31
0.0
0
LINE
8
TOP
10
0.522999
20
1.422626
30
0.0
11
0.457127
21
1.396773
31
0.0
0
LINE
8
TOP
10
0.457127
20
1.396773
30
0.0
11
0.394157
21
1.364490
31
0.0
0
LINE
8
TOP
10
0.394157
20
1.364490
30
0.0
11
0.334714
21
1.326098
31
0.0
0
LINE
8
TOP
10
0.334714
20
1.326098
30
0.0
11
0.279389
21
1.281978
31
0.0
0
LINE
8
TOP
10
0.279389
20
1.281978
30
0.0
11
0.228732
21
1.232568
31
0.0
0
LINE
8
TOP
10
0.228732
20
1.232568
30
0.0
11
0.183246
21
1.178360
31
0.0
0
LINE
8
TOP
10
0.183246
20
1.178360
30
0.0
11
0.143384
21
1.119893
31
0.0
0
LINE
8
TOP
10
0.143384
20
1.119893
30
0.0
11
0.109541
21
1.057747
31
0.0
0
LINE
8
TOP
10
0.109541
20
1.057747
30
0.0
11
0.082054
21
0.992540
31
0.0
0
LINE
8
TOP
10
0.082054
20
0.992540
30
0.0
11
0.061196
21
0.924921
31
0.0
0
LINE
8
TOP
10
0.061196
20
0.924921
30
0.0
11
0.047174
21
0.855560
31
0.0
0
LINE
8
TOP
10
0.047174
20
0.855560
30
0.0
11
0.040129
21
0.785149
31
0.0
0
LINE
8
TOP
10
0.040129
20
0.785149
30
0.0
11
0.040129
21
0.714385
31
0.0
0
LINE
8
TOP
10
0.040129
20
0.714385
30
0.0
11
0.047174
21
0.643973
31
0.0
0
LINE
8
TOP
10
0.047174
20
0.643973
30
0.0
11
0.061196
21
0.574613
31
0.0
0
LINE
8
TOP
10
0.061196
20
0.574613
30
0.0
11
0.082054
21
0.506994
31
0.0
0
LINE
8
TOP
10
0.082054
20
0.506994
30
0.0
11
0.109541
21
0.441787
31
0.0
0
LINE
8
TOP
10
0.109541
20
0.441787
30
0.0
11
0.143384
21
0.379641
31
0.0
0
LINE
8
TOP
10
0.143384
20
0.379641
30
0.0
11
0.183246
21
0.321174
31
0.0
0
LINE
8
TOP
10
0.183246
20
0.321174
30
0.0
11
0.228732
21
0.266966
31
0.0
0
LINE
8
TOP
10
0.228732
20
0.266966
30
0.0
11
0.279389
21
0.217556
31
0.0
0
LINE
8
TOP
10
0.279389
20
0.217556
30
0.0
11
0.334714
21
0.173436
31
0.0
0
LINE
8
TOP
10
0.334714
20
0.173436
30
0.0
11
0.394157
21
0.135043
31
0.0
0
LINE
8
TOP
10
0.394157
20
0.135043
30
0.0
11
0.457127
21
0.102761
31
0.0
0
LINE
8
TOP
10
0.457127
20
0.102761
30
0.0
11
0.522999
21
0.076908
31
0.0
0
LINE
8
TOP
10
0.522999
20
0.076908
30
0.0
11
0.591118
21
0.057742
31
0.0
0
LINE
8
TOP
10
0.591118
20
0.057742
30
0.0
11
0.660806
21
0.045454
31
0.0
0
LINE
8
TOP
10
0.660806
20
0.045454
30
0.0
11
0.731371
21
0.040166
31
0.0
0
LINE
8
TOP
10
0.731371
20
0.040166
30
0.0
11
0.802113
21
0.041930
31
0.0
0
LINE
8
TOP
10
0.802113
20
0.041930
30
0.0
11
0.872327
21
0.050729
31
0.0
0
LINE
8
TOP
10
0.872327
20
0.050729
30
0.0
11
0.941316
21
0.066476
31
0.0
0
LINE
8
TOP
10
0.941316
20
0.066476
30
0.0
11
1.008395
21
0.089013
31
0.0
0
LINE
8
TOP
10
1.008395
20
0.089013
30
0.0
11
1.072896
21
0.118117
31
0.0
0
LINE
8
TOP
10
1.072896
20
0.118117
30
0.0
11
1.134179
21
0.153498
31
0.0
0
LINE
8
TOP
10
1.134179
20
0.153498
30
0.0
11
1.191634
21
0.194806
31
0.0
0
LINE
8
TOP
10
1.191634
20
0.194806
30
0.0
11
1.244691
21
0.241629
31
0.0
0
LINE
8
TOP
10
1.244691
20
0.241629
30
0.0
11
1.292822
21
0.293502
31
0.0
0
LINE
8
TOP
10
1.292822
20
0.293502
30
0.0
11
1.335550
21
0.349910
31
0.0
0
LINE
8
TOP
10
1.335550
20
0.349910
30
0.0
11
1.372448
21
0.410292
31
0.0
0
LINE
8
TOP
10
1.372448
20
0.410292
30
0.0
11
1.403151
21
0.474048
31
0.0
0
LINE
8
TOP
10
1.403151
20
0.474048
30
0.0
11
1.427354
21
0.540543
31
0.0
0
LINE
8
TOP
10
1.427354
20
0.540543
30
0.0
11
1.444815
21
0.609119
31
0.0
0
LINE
8
TOP
10
1.444815
20
0.609119
30
0.0
11
1.455362
21
0.679091
31
0.0
0
LINE
8
TOP
10
1.455362
20
0.679091
30
0.0
11
1.458889
21
0.749767
31
0.0
0
LINE
8
TOP
10
1.445496
20
0.749767
30
0.0
11
1.442036
21
0.819109
31
0.0
0
LINE
8
TOP
10
1.442036
20
0.819109
30
0.0
11
1.431688
21
0.887762
31
0.0
0
LINE
8
TOP
10
1.431688
20
0.887762
30
0.0
11
1.414556
21
0.955043
31
0.0
0
LINE
8
TOP
10
1.414556
20
0.955043
30
0.0
11
1.390810
21
1.020284
31
0.0
0
LINE
8
TOP
10
1.390810
20
1.020284
30
0.0
11
1.360686
21
1.082837
31
0.0
0
LINE
8
TOP
10
1.360686
20
1.082837
30
0.0
11
1.324484
21
1.142079
31
0.0
0
LINE
8
TOP
10
1.324484
20
1.142079
30
0.0
11
1.282563
21
1.197423
31
0.0
0
LINE
8
TOP
10
1.282563
20
1.197423
30
0.0
11
1.235340
21
1.248317
31
0.0
0
LINE
8
TOP
10
1.235340
20
1.248317
30
0.0
11
1.183284
21
1.294257
31
0.0
0
LINE
8
TOP
10
1.183284
20
1.294257
30
0.0
11
1.126912
21
1.334785
31
0.0
0
LINE
8
TOP
10
1.126912
20
1.334785
30
0.0
11
1.066786
21
1.369499
31
0.0
0
LINE
8
TOP
10
1.066786
20
1.369499
30
0.0
11
1.003502
21
1.398054
31
0.0
0
LINE
8
TOP
10
1.003502
20
1.398054
30
0.0
11
0.937689
21
1.420166
31
0.0
0
LINE
8
TOP
10
0.937689
20
1.420166
30
0.0
11
0.870001
21
1.435615
31
0.0
0
LINE
8
TOP
10
0.870001
20
1.435615
30
0.0
11
0.801112
21
1.444248
31
0.0
0
LINE
8
TOP
10
0.801112
20
1.444248
30
0.0
11
0.731705
21
1.445979
31
0.0
0
LINE
8
TOP
10
0.731705
20
1.445979
30
0.0
11
0.662471
21
1.440791
31
0.0
0
LINE
8
TOP
10
0.662471
20
1.440791
30
0.0
11
0.594098
21
1.428735
31
0.0
0
LINE
8
TOP
10
0.594098
20
1.428735
30
0.0
11
0.527264
21
1.409931
31
0.0
0
LINE
8
TOP
10
0.527264
20
1.409931
30
0.0
11
0.462636
21
1.384566
31
0.0
0
LINE
8
TOP
10
0.462636
20
1.384566
30
0.0
11
0.400853
21
1.352892
31
0.0
0
LINE
8
TOP
10
0.400853
20
1.352892
30
0.0
11
0.342532
21
1.315224
31
0.0
0
LINE
8
TOP
10
0.342532
20
1.315224
30
0.0
11
0.288251
21
1.271936
31
0.0
0
LINE
8
TOP
10
0.288251
20
1.271936
30
0.0
11
0.238549
21
1.223459
31
0.0
0
LINE
8
TOP
10
0.238549
20
1.223459
30
0.0
11
0.193922
21
1.170274
31
0.0
0
LINE
8
TOP
10
0.193922
20
1.170274
30
0.0
11
0.154812
21
1.112909
31
0.0
0
LINE
8
TOP
10
0.154812
20
1.112909
30
0.0
11
0.121607
21
1.051936
31
0.0
0
LINE
8
TOP
10
0.121607
20
1.051936
30
0.0
11
0.094639
21
0.987959
31
0.0
0
LINE
8
TOP
10
0.094639
20
0.987959
30
0.0
11
0.074175
21
0.921616
31
0.0
0
LINE
8
TOP
10
0.074175
20
0.921616
30
0.0
11
0.060418
21
0.853564
31
0.0
0
LINE
8
TOP
10
0.060418
20
0.853564
30
0.0
11
0.053505
21
0.784481
31
0.0
0
LINE
8
TOP
10
0.053505
20
0.784481
30
0.0
11
0.053505
21
0.715053
31
0.0
0
LINE
8
TOP
10
0.053505
20
0.715053
30
0.0
11
0.060418
21
0.645970
31
0.0
0
LINE
8
TOP
10
0.060418
20
0.645970
30
0.0
11
0.074175
21
0.577918
31
0.0
0
LINE
8
TOP
10
0.074175
20
0.577918
30
0.0
11
0.094639
21
0.511574
31
0.0
0
LINE
8
TOP
10
0.094639
20
0.511574
30
0.0
11
0.121607
21
0.447598
31
0.0
0
LINE
8
TOP
10
0.121607
20
0.447598
30
0.0
11
0.154812
21
0.386625
31
0.0
0
LINE
8
TOP
10
0.154812
20
0.386625
30
0.0
11
0.193922
21
0.329260
31
0.0
0
LINE
8
TOP
10
0.193922
20
0.329260
30
0.0
11
0.238549
21
0.276075
31
0.0
0
LINE
8
TOP
10
0.238549
20
0.276075
30
0.0
11
0.288251
21
0.227598
31
0.0
0
LINE
8
TOP
10
0.288251
20
0.227598
30
0.0
11
0.342532
21
0.184310
31
0.0
0
LINE
8
TOP
10
0.342532
20
0.184310
30
0.0
11
0.400853
21
0.146642
31
0.0
0
LINE
8
TOP
10
0.400853
20
0.146642
30
0.0
11
0.462636
21
0.114968
31
0.0
0
LINE
8
TOP
10
0.462636
20
0.114968
30
0.0
11
0.527264
21
0.089603
31
0.0
0
LINE
8
TOP
10
0.527264
20
0.089603
30
0.0
11
0.594098
21
0.070799
31
0.0
0
LINE
8
TOP
10
0.594098
20
0.070799
30
0.0
11
0.662471
21
0.058743
31
0.0
0
LINE
8
TOP
10
0.662471
20
0.058743
30
0.0
11
0.731705
21
0.053555
31
0.0
0
LINE
8
TOP
10
0.731705
20
0.053555
30
0.0
11
0.801112
21
0.055286
31
0.0
0
LINE
8
TOP
10
0.801112
20
0.055286
30
0.0
11
0.870001
21
0.063919
31
0.0
0
LINE
8
TOP
10
0.870001
20
0.063919
30
0.0
11
0.937689
21
0.079368
31
0.0
0
LINE
8
TOP
10
0.937689
20
0.079368
30
0.0
11
1.003502
21
0.101480
31
0.0
0
LINE
8
TOP
10
1.003502
20
0.101480
30
0.0
11
1.066786
21
0.130035
31
0.0
0
LINE
8
TOP
10
1.066786
20
0.130035
30
0.0
11
1.126912
21
0.164749
31
0.0
0
LINE
8
TOP
10
1.126912
20
0.164749
30
0.0
11
1.183284
21
0.205277
31
0.0
0
LINE
8
TOP
10
1.183284
20
0.205277
30
0.0
11
1.235340
21
0.251217
31
0.0
0
LINE
8
TOP
10
1.235340
20
0.251217
30
0.0
11
1.282563
21
0.302111
31
0.0
0
LINE
8
TOP
10
1.282563
20
0.302111
30
0.0
11
1.324484
21
0.357455
31
0.0
0
LINE
8
TOP
10
1.324484
20
0.357455
30
0.0
11
1.360686
21
0.416697
31
0.0
0
LINE
8
TOP
10
1.360686
20
0.416697
30
0.0
11
1.390810
21
0.479250
31
0.0
0
LINE
8
TOP
10
1.390810
20
0.479250
30
0.0
11
1.414556
21
0.544491
31
0.0
0
LINE
8
TOP
10
1.414556
20
0.544491
30
0.0
11
1.431688
21
0.611772
31
0.0
0
LINE
8
TOP
10
1.431688
20
0.611772
30
0.0
11
1.442036
21
0.680425
31
0.0
0
LINE
8
TOP
10
1.442036
20
0.680425
30
0.0
11
1.445496
21
0.749767
31
0.0
0
ENDSEC
0
EOF
