0
SECTION
2
HEADER
9
$ACADVER
1
AC1009
0
ENDSEC
0
SECTION
2
TABLES
0
TABLE
2
LTYPE
70
3
0
LTYPE
2
CONTINUOUS
70
0
3
Solid line
72
65
73
0
40
0.0
0
LTYPE
2
HIDDEN
70
0
3
__ __ __ __ __
72
65
73
2
40
0.037500
49
0.025013
49
-0.012488
0
LTYPE
2
CENTER
70
0
3
___ _ ___ _ ___
72
65
73
4
40
0.087488
49
0.049988
49
-0.012488
49
0.012488
49
-0.012488
0
ENDTAB
0
TABLE
2
LAYER
70
5
0
LAYER
2
0
70
0
62
7
6
CONTINUOUS
0
LAYER
2
FRONT
70
0
62
7
6
CONTINUOUS
0
LAYER
2
LEFT
70
0
62
7
6
CONTINUOUS
0
LAYER
2
LEFT_HID
70
0
62
7
6
HIDDEN
0
LAYER
2
TOP
70
0
62
7
6
CONTINUOUS
0
ENDTAB
0
ENDSEC
0
SECTION
2
ENTITIES
0
LINE
8
FRONT
10
0.324324
20
0.474224
30
0.0
11
0.000000
21
0.474224
31
0.0
0
LINE
8
FRONT
10
0.324324
20
0.474224
30
0.0
11
0.324324
21
1.224224
31
0.0
0
LINE
8
FRONT
10
0.324324
20
1.224224
30
0.0
11
0.000000
21
1.224224
31
0.0
0
LINE
8
FRONT
10
0.000000
20
1.224224
30
0.0
11
0.000000
21
0.474224
31
0.0
0
LINE
8
LEFT
10
0.474324
20
0.474224
30
0.0
11
0.798649
21
0.474224
31
0.0
0
LINE
8
LEFT
10
0.474324
20
1.224224
30
0.0
11
0.798649
21
1.224224
31
0.0
0
LINE
8
LEFT
10
0.474324
20
1.224224
30
0.0
11
0.474324
21
0.474224
31
0.0
0
LINE
8
LEFT
10
0.798649
20
1.224224
30
0.0
11
0.798649
21
0.474224
31
0.0
0
LINE
8
LEFT_HID
6
HIDDEN
10
0.636486
20
0.474224
30
0.0
11
0.474324
21
0.474224
31
0.0
0
LINE
8
LEFT_HID
6
HIDDEN
10
0.798649
20
0.474224
30
0.0
11
0.636486
21
0.474224
31
0.0
0
LINE
8
LEFT_HID
6
HIDDEN
10
0.636486
20
1.224224
30
0.0
11
0.474324
21
1.224224
31
0.0
0
LINE
8
LEFT_HID
6
HIDDEN
10
0.798649
20
1.224224
30
0.0
11
0.636486
21
1.224224
31
0.0
0
LINE
8
TOP
10
0.324123
20
0.162112
30
0.0
11
0.323317
21
0.178258
31
0.0
0
LINE
8
TOP
10
0.323317
20
0.178258
30
0.0
11
0.320907
21
0.194244
31
0.0
0
LINE
8
TOP
10
0.320907
20
0.194244
30
0.0
11
0.316918
21
0.209910
31
0.0
0
LINE
8
TOP
10
0.316918
20
0.209910
30
0.0
11
0.311389
21
0.225101
31
0.0
0
LINE
8
TOP
10
0.311389
20
0.225101
30
0.0
11
0.304375
21
0.239666
31
0.0
0
LINE
8
TOP
10
0.304375
20
0.239666
30
0.0
11
0.295945
21
0.253461
31
0.0
0
LINE
8
TOP
10
0.295945
20
0.253461
30
0.0
11
0.286184
21
0.266348
31
0.0
0
LINE
8
TOP
10
0.286184
20
0.266348
30
0.0
11
0.275188
21
0.278198
31
0.0
0
LINE
8
TOP
10
0.275188
20
0.278198
30
0.0
11
0.263067
21
0.288895
31
0.0
0
LINE
8
TOP
10
0.263067
20
0.288895
30
0.0
11
0.249941
21
0.298332
31
0.0
0
LINE
8
TOP
10
0.249941
20
0.298332
30
0.0
11
0.235941
21
0.306415
31
0.0
0
LINE
8
TOP
10
0.235941
20
0.306415
30
0.0
11
0.221205
21
0.313064
31
0.0
0
LINE
8
TOP
10
0.221205
20
0.313064
30
0.0
11
0.205881
21
0.318213
31
0.0
0
LINE
8
TOP
10
0.205881
20
0.318213
30
0.0
11
0.190120
21
0.321810
31
0.0
0
LINE
8
TOP
10
0.190120
20
0.321810
30
0.0
11
0.174079
21
0.323820
31
0.0
0
LINE
8
TOP
10
0.174079
20
0.323820
30
0.0
11
0.157918
21
0.324224
31
0.0
0
LINE
8
TOP
10
0.157918
20
0.324224
30
0.0
11
0.141797
21
0.323015
31
0.0
0
LINE
8
TOP
10
0.141797
20
0.323015
30
0.0
11
0.125876
21
0.320208
31
0.0
0
LINE
8
TOP
10
0.125876
20
0.320208
30
0.0
11
0.110314
21
0.315830
31
0.0
0
LINE
8
TOP
10
0.110314
20
0.315830
30
0.0
11
0.095265
21
0.309924
31
0.0
0
LINE
8
TOP
10
0.095265
20
0.309924
30
0.0
11
0.080880
21
0.302548
31
0.0
0
LINE
8
TOP
10
0.080880
20
0.302548
30
0.0
11
0.067299
21
0.293777
31
0.0
0
LINE
8
TOP
10
0.067299
20
0.293777
30
0.0
11
0.054660
21
0.283698
31
0.0
0
LINE
8
TOP
10
0.054660
20
0.283698
30
0.0
11
0.043087
21
0.272410
31
0.0
0
LINE
8
TOP
10
0.043087
20
0.272410
30
0.0
11
0.032696
21
0.260026
31
0.0
0
LINE
8
TOP
10
0.032696
20
0.260026
30
0.0
11
0.023589
21
0.246669
31
0.0
0
LINE
8
TOP
10
0.023589
20
0.246669
30
0.0
11
0.015858
21
0.232471
31
0.0
0
LINE
8
TOP
10
0.015858
20
0.232471
30
0.0
11
0.009578
21
0.217574
31
0.0
0
LINE
8
TOP
10
0.009578
20
0.217574
30
0.0
11
0.004813
21
0.202126
31
0.0
0
LINE
8
TOP
10
0.004813
20
0.202126
30
0.0
11
0.001610
21
0.186281
31
0.0
0
LINE
8
TOP
10
0.001610
20
0.186281
30
0.0
11
0.000000
21
0.170195
31
0.0
0
LINE
8
TOP
10
0.000000
20
0.170195
30
0.0
11
0.000000
21
0.154029
31
0.0
0
LINE
8
TOP
10
0.000000
20
0.154029
30
0.0
11
0.001610
21
0.137943
31
0.0
0
LINE
8
TOP
10
0.001610
20
0.137943
30
0.0
11
0.004813
21
0.122097
31
0.0
0
LINE
8
TOP
10
0.004813
20
0.122097
30
0.0
11
0.009578
21
0.106649
31
0.0
0
LINE
8
TOP
10
0.009578
20
0.106649
30
0.0
11
0.015858
21
0.091752
31
0.0
0
LINE
8
TOP
10
0.015858
20
0.091752
30
0.0
11
0.023589
21
0.077555
31
0.0
0
LINE
8
TOP
10
0.023589
20
0.077555
30
0.0
11
0.032696
21
0.064198
31
0.0
0
LINE
8
TOP
10
0.032696
20
0.064198
30
0.0
11
0.043087
21
0.051813
31
0.0
0
LINE
8
TOP
10
0.043087
20
0.051813
30
0.0
11
0.054660
21
0.040526
31
0.0
0
LINE
8
TOP
10
0.054660
20
0.040526
30
0.0
11
0.067299
21
0.030446
31
0.0
0
LINE
8
TOP
10
0.067299
20
0.030446
30
0.0
11
0.080880
21
0.021675
31
0.0
0
LINE
8
TOP
10
0.080880
20
0.021675
30
0.0
11
0.095265
21
0.014300
31
0.0
0
LINE
8
TOP
10
0.095265
20
0.014300
30
0.0
11
0.110314
21
0.008394
31
0.0
0
LINE
8
TOP
10
0.110314
20
0.008394
30
0.0
11
0.125876
21
0.004015
31
0.0
0
LINE
8
TOP
10
0.125876
20
0.004015
30
0.0
11
0.141797
21
0.001208
31
0.0
0
LINE
8
TOP
10
0.141797
20
0.001208
30
0.0
11
0.157918
21
0.000000
31
0.0
0
LINE
8
TOP
10
0.157918
20
0.000000
30
0.0
11
0.174079
21
0.000403
31
0.0
0
LINE
8
TOP
10
0.174079
20
0.000403
30
0.0
11
0.190120
21
0.002413
31
0.0
0
LINE
8
TOP
10
0.190120
20
0.002413
30
0.0
11
0.205881
21
0.006011
31
0.0
0
LINE
8
TOP
10
0.205881
20
0.006011
30
0.0
11
0.221205
21
0.011159
31
0.0
0
LINE
8
TOP
10
0.221205
20
0.011159
30
0.0
11
0.235941
21
0.017808
31
0.0
0
LINE
8
TOP
10
0.235941
20
0.017808
30
0.0
11
0.249941
21
0.025891
31
0.0
0
LINE
8
TOP
10
0.249941
20
0.025891
30
0.0
11
0.263067
21
0.035328
31
0.0
0
LINE
8
TOP
10
0.263067
20
0.035328
30
0.0
11
0.275188
21
0.046025
31
0.0
0
LINE
8
TOP
10
0.275188
20
0.046025
30
0.0
11
0.286184
21
0.057876
31
0.0
0
LINE
8
TOP
10
0.286184
20
0.057876
30
0.0
11
0.295945
21
0.070763
31
0.0
0
LINE
8
TOP
10
0.295945
20
0.070763
30
0.0
11
0.304375
21
0.084557
31
0.0
0
LINE
8
TOP
10
0.304375
20
0.084557
30
0.0
11
0.311389
21
0.099122
31
0.0
0
LINE
8
TOP
10
0.311389
20
0.099122
30
0.0
11
0.316918
21
0.114314
31
0.0
0
LINE
8
TOP
10
0.316918
20
0.114314
30
0.0
11
0.320907
21
0.129980
31
0.0
0
LINE
8
TOP
10
0.320907
20
0.129980
30
0.0
11
0.323317
21
0.145966
31
0.0
0
LINE
8
TOP
10
0.323317
20
0.145966
30
0.0
11
0.324123
21
0.162112
31
0.0
0
ENDSEC
0
EOF
