0
SECTION
2
HEADER
9
$ACADVER
1
AC1009
0
ENDSEC
0
SECTION
2
TABLES
0
TABLE
2
LTYPE
70
3
0
LTYPE
2
CONTINUOUS
70
0
3
Solid line
72
65
73
0
40
0.0
0
LTYPE
2
HIDDEN
70
0
3
__ __ __ __ __
72
65
73
2
40
9.0
49
6.0
49
-3.0
0
LTYPE
2
CENTER
70
0
3
___ _ ___ _ ___
72
65
73
4
40
21.0
49
12.0
49
-3.0
49
3.0
49
-3.0
0
ENDTAB
0
TABLE
2
LAYER
70
7
0
LAYER
2
0
70
0
62
7
6
CONTINUOUS
0
LAYER
2
FRONT
70
0
62
7
6
CONTINUOUS
0
LAYER
2
FRONT_HID
70
0
62
7
6
HIDDEN
0
LAYER
2
RIGHT
70
0
62
7
6
CONTINUOUS
0
LAYER
2
RIGHT_HID
70
0
62
7
6
HIDDEN
0
LAYER
2
TOP
70
0
62
7
6
CONTINUOUS
0
LAYER
2
TOP_HID
70
0
62
7
6
HIDDEN
0
ENDTAB
0
ENDSEC
0
SECTION
2
ENTITIES
0
LINE
8
FRONT
10
0.000000
20
0.919827
30
0.0
11
0.464559
21
0.919827
31
0.0
0
LINE
8
FRONT
10
0.000000
20
1.616665
30
0.0
11
0.000000
21
0.919827
31
0.0
0
LINE
8
FRONT
10
0.464559
20
0.919827
30
0.0
11
0.470350
21
0.919899
31
0.0
0
LINE
8
FRONT
10
0.470350
20
0.919899
30
0.0
11
0.476137
21
0.920115
31
0.0
0
LINE
8
FRONT
10
0.476137
20
0.920115
30
0.0
11
0.481917
21
0.920476
31
0.0
0
LINE
8
FRONT
10
0.481917
20
0.920476
30
0.0
11
0.487686
21
0.920981
31
0.0
0
LINE
8
FRONT
10
0.487686
20
0.920981
30
0.0
11
0.493441
21
0.921629
31
0.0
0
LINE
8
FRONT
10
0.493441
20
0.921629
30
0.0
11
0.499178
21
0.922421
31
0.0
0
LINE
8
FRONT
10
0.499178
20
0.922421
30
0.0
11
0.504894
21
0.923355
31
0.0
0
LINE
8
FRONT
10
0.504894
20
0.923355
30
0.0
11
0.510584
21
0.924432
31
0.0
0
LINE
8
FRONT
10
0.510584
20
0.924432
30
0.0
11
0.516246
21
0.925650
31
0.0
0
LINE
8
FRONT
10
0.516246
20
0.925650
30
0.0
11
0.521876
21
0.927009
31
0.0
0
LINE
8
FRONT
10
0.521876
20
0.927009
30
0.0
11
0.527470
21
0.928508
31
0.0
0
LINE
8
FRONT
10
0.527470
20
0.928508
30
0.0
11
0.533024
21
0.930146
31
0.0
0
LINE
8
FRONT
10
0.533024
20
0.930146
30
0.0
11
0.538537
21
0.931922
31
0.0
0
LINE
8
FRONT
10
0.538537
20
0.931922
30
0.0
11
0.544003
21
0.933835
31
0.0
0
LINE
8
FRONT
10
0.544003
20
0.933835
30
0.0
11
0.549420
21
0.935883
31
0.0
0
LINE
8
FRONT
10
0.549420
20
0.935883
30
0.0
11
0.554784
21
0.938066
31
0.0
0
LINE
8
FRONT
10
0.554784
20
0.938066
30
0.0
11
0.560092
21
0.940382
31
0.0
0
LINE
8
FRONT
10
0.560092
20
0.940382
30
0.0
11
0.565341
21
0.942829
31
0.0
0
LINE
8
FRONT
10
0.565341
20
0.942829
30
0.0
11
0.570527
21
0.945407
31
0.0
0
LINE
8
FRONT
10
0.570527
20
0.945407
30
0.0
11
0.575647
21
0.948113
31
0.0
0
LINE
8
FRONT
10
0.575647
20
0.948113
30
0.0
11
0.580699
21
0.950946
31
0.0
0
LINE
8
FRONT
10
0.580699
20
0.950946
30
0.0
11
0.585678
21
0.953904
31
0.0
0
LINE
8
FRONT
10
0.585678
20
0.953904
30
0.0
11
0.590581
21
0.956985
31
0.0
0
LINE
8
FRONT
10
0.590581
20
0.956985
30
0.0
11
0.595406
21
0.960188
31
0.0
0
LINE
8
FRONT
10
0.595406
20
0.960188
30
0.0
11
0.600150
21
0.963509
31
0.0
0
LINE
8
FRONT
10
0.600150
20
0.963509
30
0.0
11
0.604810
21
0.966948
31
0.0
0
LINE
8
FRONT
10
0.604810
20
0.966948
30
0.0
11
0.609383
21
0.970503
31
0.0
0
LINE
8
FRONT
10
0.609383
20
0.970503
30
0.0
11
0.613865
21
0.974170
31
0.0
0
LINE
8
FRONT
10
0.613865
20
0.974170
30
0.0
11
0.618255
21
0.977947
31
0.0
0
LINE
8
FRONT
10
0.618255
20
0.977947
30
0.0
11
0.622549
21
0.981833
31
0.0
0
LINE
8
FRONT
10
0.622549
20
0.981833
30
0.0
11
0.626745
21
0.985825
31
0.0
0
LINE
8
FRONT
10
0.626745
20
0.985825
30
0.0
11
0.630840
21
0.989920
31
0.0
0
LINE
8
FRONT
10
0.630840
20
0.989920
30
0.0
11
0.634832
21
0.994116
31
0.0
0
LINE
8
FRONT
10
0.634832
20
0.994116
30
0.0
11
0.638718
21
0.998410
31
0.0
0
LINE
8
FRONT
10
0.638718
20
0.998410
30
0.0
11
0.642495
21
1.002800
31
0.0
0
LINE
8
FRONT
10
0.642495
20
1.002800
30
0.0
11
0.646162
21
1.007282
31
0.0
0
LINE
8
FRONT
10
0.646162
20
1.007282
30
0.0
11
0.649716
21
1.011855
31
0.0
0
LINE
8
FRONT
10
0.649716
20
1.011855
30
0.0
11
0.653155
21
1.016514
31
0.0
0
LINE
8
FRONT
10
0.653155
20
1.016514
30
0.0
11
0.656477
21
1.021258
31
0.0
0
LINE
8
FRONT
10
0.656477
20
1.021258
30
0.0
11
0.659680
21
1.026084
31
0.0
0
LINE
8
FRONT
10
0.659680
20
1.026084
30
0.0
11
0.662761
21
1.030987
31
0.0
0
LINE
8
FRONT
10
0.662761
20
1.030987
30
0.0
11
0.665719
21
1.035966
31
0.0
0
LINE
8
FRONT
10
0.665719
20
1.035966
30
0.0
11
0.668552
21
1.041017
31
0.0
0
LINE
8
FRONT
10
0.668552
20
1.041017
30
0.0
11
0.671258
21
1.046138
31
0.0
0
LINE
8
FRONT
10
0.671258
20
1.046138
30
0.0
11
0.673835
21
1.051324
31
0.0
0
LINE
8
FRONT
10
0.673835
20
1.051324
30
0.0
11
0.676283
21
1.056572
31
0.0
0
LINE
8
FRONT
10
0.676283
20
1.056572
30
0.0
11
0.678599
21
1.061881
31
0.0
0
LINE
8
FRONT
10
0.678599
20
1.061881
30
0.0
11
0.680782
21
1.067245
31
0.0
0
LINE
8
FRONT
10
0.680782
20
1.067245
30
0.0
11
0.682830
21
1.072662
31
0.0
0
LINE
8
FRONT
10
0.682830
20
1.072662
30
0.0
11
0.684743
21
1.078128
31
0.0
0
LINE
8
FRONT
10
0.684743
20
1.078128
30
0.0
11
0.686519
21
1.083640
31
0.0
0
LINE
8
FRONT
10
0.686519
20
1.083640
30
0.0
11
0.688157
21
1.089195
31
0.0
0
LINE
8
FRONT
10
0.688157
20
1.089195
30
0.0
11
0.689656
21
1.094789
31
0.0
0
LINE
8
FRONT
10
0.689656
20
1.094789
30
0.0
11
0.691015
21
1.100419
31
0.0
0
LINE
8
FRONT
10
0.691015
20
1.100419
30
0.0
11
0.692233
21
1.106081
31
0.0
0
LINE
8
FRONT
10
0.692233
20
1.106081
30
0.0
11
0.693309
21
1.111771
31
0.0
0
LINE
8
FRONT
10
0.693309
20
1.111771
30
0.0
11
0.694244
21
1.117486
31
0.0
0
LINE
8
FRONT
10
0.694244
20
1.117486
30
0.0
11
0.695036
21
1.123223
31
0.0
0
LINE
8
FRONT
10
0.695036
20
1.123223
30
0.0
11
0.695684
21
1.128978
31
0.0
0
LINE
8
FRONT
10
0.695684
20
1.128978
30
0.0
11
0.696189
21
1.134748
31
0.0
0
LINE
8
FRONT
10
0.696189
20
1.134748
30
0.0
11
0.696550
21
1.140528
31
0.0
0
LINE
8
FRONT
10
0.696550
20
1.140528
30
0.0
11
0.696766
21
1.146315
31
0.0
0
LINE
8
FRONT
10
0.696766
20
1.146315
30
0.0
11
0.696838
21
1.152106
31
0.0
0
LINE
8
FRONT
10
0.696838
20
1.152106
30
0.0
11
0.696838
21
1.245018
31
0.0
0
LINE
8
FRONT
10
0.696838
20
1.245018
30
0.0
11
1.114941
21
1.245018
31
0.0
0
LINE
8
FRONT
10
1.114941
20
1.245018
30
0.0
11
1.114941
21
1.384385
31
0.0
0
LINE
8
FRONT
10
1.114941
20
1.384385
30
0.0
11
0.464559
21
1.384385
31
0.0
0
LINE
8
FRONT
10
0.464559
20
1.384385
30
0.0
11
0.458768
21
1.384313
31
0.0
0
LINE
8
FRONT
10
0.458768
20
1.384313
30
0.0
11
0.452981
21
1.384097
31
0.0
0
LINE
8
FRONT
10
0.452981
20
1.384097
30
0.0
11
0.447201
21
1.383736
31
0.0
0
LINE
8
FRONT
10
0.447201
20
1.383736
30
0.0
11
0.441431
21
1.383231
31
0.0
0
LINE
8
FRONT
10
0.441431
20
1.383231
30
0.0
11
0.435676
21
1.382583
31
0.0
0
LINE
8
FRONT
10
0.435676
20
1.382583
30
0.0
11
0.429939
21
1.381791
31
0.0
0
LINE
8
FRONT
10
0.429939
20
1.381791
30
0.0
11
0.424224
21
1.380857
31
0.0
0
LINE
8
FRONT
10
0.424224
20
1.380857
30
0.0
11
0.418534
21
1.379780
31
0.0
0
LINE
8
FRONT
10
0.418534
20
1.379780
30
0.0
11
0.412872
21
1.378562
31
0.0
0
LINE
8
FRONT
10
0.412872
20
1.378562
30
0.0
11
0.407242
21
1.377203
31
0.0
0
LINE
8
FRONT
10
0.407242
20
1.377203
30
0.0
11
0.401648
21
1.375704
31
0.0
0
LINE
8
FRONT
10
0.401648
20
1.375704
30
0.0
11
0.396093
21
1.374066
31
0.0
0
LINE
8
FRONT
10
0.396093
20
1.374066
30
0.0
11
0.390581
21
1.372290
31
0.0
0
LINE
8
FRONT
10
0.390581
20
1.372290
30
0.0
11
0.385115
21
1.370377
31
0.0
0
LINE
8
FRONT
10
0.385115
20
1.370377
30
0.0
11
0.379698
21
1.368329
31
0.0
0
LINE
8
FRONT
10
0.379698
20
1.368329
30
0.0
11
0.374333
21
1.366146
31
0.0
0
LINE
8
FRONT
10
0.374333
20
1.366146
30
0.0
11
0.369025
21
1.363830
31
0.0
0
LINE
8
FRONT
10
0.369025
20
1.363830
30
0.0
11
0.363777
21
1.361382
31
0.0
0
LINE
8
FRONT
10
0.363777
20
1.361382
30
0.0
11
0.358590
21
1.358805
31
0.0
0
LINE
8
FRONT
10
0.358590
20
1.358805
30
0.0
11
0.353470
21
1.356099
31
0.0
0
LINE
8
FRONT
10
0.353470
20
1.356099
30
0.0
11
0.348419
21
1.353266
31
0.0
0
LINE
8
FRONT
10
0.348419
20
1.353266
30
0.0
11
0.343440
21
1.350308
31
0.0
0
LINE
8
FRONT
10
0.343440
20
1.350308
30
0.0
11
0.338537
21
1.347227
31
0.0
0
LINE
8
FRONT
10
0.338537
20
1.347227
30
0.0
11
0.333711
21
1.344024
31
0.0
0
LINE
8
FRONT
10
0.333711
20
1.344024
30
0.0
11
0.328967
21
1.340702
31
0.0
0
LINE
8
FRONT
10
0.328967
20
1.340702
30
0.0
11
0.324308
21
1.337263
31
0.0
0
LINE
8
FRONT
10
0.324308
20
1.337263
30
0.0
11
0.319735
21
1.333709
31
0.0
0
LINE
8
FRONT
10
0.319735
20
1.333709
30
0.0
11
0.315253
21
1.330042
31
0.0
0
LINE
8
FRONT
10
0.315253
20
1.330042
30
0.0
11
0.310863
21
1.326265
31
0.0
0
LINE
8
FRONT
10
0.310863
20
1.326265
30
0.0
11
0.306569
21
1.322379
31
0.0
0
LINE
8
FRONT
10
0.306569
20
1.322379
30
0.0
11
0.302373
21
1.318387
31
0.0
0
LINE
8
FRONT
10
0.302373
20
1.318387
30
0.0
11
0.298278
21
1.314292
31
0.0
0
LINE
8
FRONT
10
0.298278
20
1.314292
30
0.0
11
0.294286
21
1.310096
31
0.0
0
LINE
8
FRONT
10
0.294286
20
1.310096
30
0.0
11
0.290400
21
1.305802
31
0.0
0
LINE
8
FRONT
10
0.290400
20
1.305802
30
0.0
11
0.286622
21
1.301412
31
0.0
0
LINE
8
FRONT
10
0.286622
20
1.301412
30
0.0
11
0.282955
21
1.296930
31
0.0
0
LINE
8
FRONT
10
0.282955
20
1.296930
30
0.0
11
0.279401
21
1.292357
31
0.0
0
LINE
8
FRONT
10
0.279401
20
1.292357
30
0.0
11
0.275962
21
1.287698
31
0.0
0
LINE
8
FRONT
10
0.275962
20
1.287698
30
0.0
11
0.272641
21
1.282954
31
0.0
0
LINE
8
FRONT
10
0.272641
20
1.282954
30
0.0
11
0.269438
21
1.278128
31
0.0
0
LINE
8
FRONT
10
0.269438
20
1.278128
30
0.0
11
0.266357
21
1.273225
31
0.0
0
LINE
8
FRONT
10
0.266357
20
1.273225
30
0.0
11
0.263399
21
1.268246
31
0.0
0
LINE
8
FRONT
10
0.263399
20
1.268246
30
0.0
11
0.260566
21
1.263194
31
0.0
0
LINE
8
FRONT
10
0.260566
20
1.263194
30
0.0
11
0.257860
21
1.258074
31
0.0
0
LINE
8
FRONT
10
0.257860
20
1.258074
30
0.0
11
0.255282
21
1.252888
31
0.0
0
LINE
8
FRONT
10
0.255282
20
1.252888
30
0.0
11
0.252835
21
1.247639
31
0.0
0
LINE
8
FRONT
10
0.252835
20
1.247639
30
0.0
11
0.250519
21
1.242331
31
0.0
0
LINE
8
FRONT
10
0.250519
20
1.242331
30
0.0
11
0.248336
21
1.236967
31
0.0
0
LINE
8
FRONT
10
0.248336
20
1.236967
30
0.0
11
0.246288
21
1.231550
31
0.0
0
LINE
8
FRONT
10
0.246288
20
1.231550
30
0.0
11
0.244375
21
1.226084
31
0.0
0
LINE
8
FRONT
10
0.244375
20
1.226084
30
0.0
11
0.242599
21
1.220571
31
0.0
0
LINE
8
FRONT
10
0.242599
20
1.220571
30
0.0
11
0.240961
21
1.215017
31
0.0
0
LINE
8
FRONT
10
0.240961
20
1.215017
30
0.0
11
0.239462
21
1.209423
31
0.0
0
LINE
8
FRONT
10
0.239462
20
1.209423
30
0.0
11
0.238103
21
1.203793
31
0.0
0
LINE
8
FRONT
10
0.238103
20
1.203793
30
0.0
11
0.236885
21
1.198131
31
0.0
0
LINE
8
FRONT
10
0.236885
20
1.198131
30
0.0
11
0.235808
21
1.192441
31
0.0
0
LINE
8
FRONT
10
0.235808
20
1.192441
30
0.0
11
0.234874
21
1.186725
31
0.0
0
LINE
8
FRONT
10
0.234874
20
1.186725
30
0.0
11
0.234082
21
1.180988
31
0.0
0
LINE
8
FRONT
10
0.234082
20
1.180988
30
0.0
11
0.233434
21
1.175233
31
0.0
0
LINE
8
FRONT
10
0.233434
20
1.175233
30
0.0
11
0.232929
21
1.169464
31
0.0
0
LINE
8
FRONT
10
0.232929
20
1.169464
30
0.0
11
0.232568
21
1.163684
31
0.0
0
LINE
8
FRONT
10
0.232568
20
1.163684
30
0.0
11
0.232352
21
1.157897
31
0.0
0
LINE
8
FRONT
10
0.232352
20
1.157897
30
0.0
11
0.232279
21
1.152106
31
0.0
0
LINE
8
FRONT
10
0.232279
20
1.152106
30
0.0
11
0.232279
21
1.059194
31
0.0
0
LINE
8
FRONT
10
0.232279
20
1.059194
30
0.0
11
0.092912
21
1.059194
31
0.0
0
LINE
8
FRONT
10
0.092912
20
1.059194
30
0.0
11
0.092912
21
1.616665
31
0.0
0
LINE
8
FRONT
10
0.092912
20
1.616665
30
0.0
11
0.000000
21
1.616665
31
0.0
0
LINE
8
FRONT
10
0.326226
20
1.152106
30
0.0
11
0.326918
21
1.138229
31
0.0
0
LINE
8
FRONT
10
0.326918
20
1.138229
30
0.0
11
0.328989
21
1.124491
31
0.0
0
LINE
8
FRONT
10
0.328989
20
1.124491
30
0.0
11
0.332417
21
1.111027
31
0.0
0
LINE
8
FRONT
10
0.332417
20
1.111027
30
0.0
11
0.337169
21
1.097971
31
0.0
0
LINE
8
FRONT
10
0.337169
20
1.097971
30
0.0
11
0.343198
21
1.085453
31
0.0
0
LINE
8
FRONT
10
0.343198
20
1.085453
30
0.0
11
0.350442
21
1.073597
31
0.0
0
LINE
8
FRONT
10
0.350442
20
1.073597
30
0.0
11
0.358832
21
1.062522
31
0.0
0
LINE
8
FRONT
10
0.358832
20
1.062522
30
0.0
11
0.368282
21
1.052337
31
0.0
0
LINE
8
FRONT
10
0.368282
20
1.052337
30
0.0
11
0.378699
21
1.043144
31
0.0
0
LINE
8
FRONT
10
0.378699
20
1.043144
30
0.0
11
0.389980
21
1.035033
31
0.0
0
LINE
8
FRONT
10
0.389980
20
1.035033
30
0.0
11
0.402012
21
1.028087
31
0.0
0
LINE
8
FRONT
10
0.402012
20
1.028087
30
0.0
11
0.414677
21
1.022372
31
0.0
0
LINE
8
FRONT
10
0.414677
20
1.022372
30
0.0
11
0.427847
21
1.017947
31
0.0
0
LINE
8
FRONT
10
0.427847
20
1.017947
30
0.0
11
0.441392
21
1.014856
31
0.0
0
LINE
8
FRONT
10
0.441392
20
1.014856
30
0.0
11
0.455178
21
1.013128
31
0.0
0
LINE
8
FRONT
10
0.455178
20
1.013128
30
0.0
11
0.469068
21
1.012782
31
0.0
0
LINE
8
FRONT
10
0.469068
20
1.012782
30
0.0
11
0.482923
21
1.013820
31
0.0
0
LINE
8
FRONT
10
0.482923
20
1.013820
30
0.0
11
0.496606
21
1.016233
31
0.0
0
LINE
8
FRONT
10
0.496606
20
1.016233
30
0.0
11
0.509980
21
1.019996
31
0.0
0
LINE
8
FRONT
10
0.509980
20
1.019996
30
0.0
11
0.522913
21
1.025071
31
0.0
0
LINE
8
FRONT
10
0.522913
20
1.025071
30
0.0
11
0.535277
21
1.031410
31
0.0
0
LINE
8
FRONT
10
0.535277
20
1.031410
30
0.0
11
0.546948
21
1.038948
31
0.0
0
LINE
8
FRONT
10
0.546948
20
1.038948
30
0.0
11
0.557811
21
1.047611
31
0.0
0
LINE
8
FRONT
10
0.557811
20
1.047611
30
0.0
11
0.567757
21
1.057312
31
0.0
0
LINE
8
FRONT
10
0.567757
20
1.057312
30
0.0
11
0.576688
21
1.067955
31
0.0
0
LINE
8
FRONT
10
0.576688
20
1.067955
30
0.0
11
0.584514
21
1.079435
31
0.0
0
LINE
8
FRONT
10
0.584514
20
1.079435
30
0.0
11
0.591159
21
1.091637
31
0.0
0
LINE
8
FRONT
10
0.591159
20
1.091637
30
0.0
11
0.596556
21
1.104439
31
0.0
0
LINE
8
FRONT
10
0.596556
20
1.104439
30
0.0
11
0.600651
21
1.117716
31
0.0
0
LINE
8
FRONT
10
0.600651
20
1.117716
30
0.0
11
0.603404
21
1.131334
31
0.0
0
LINE
8
FRONT
10
0.603404
20
1.131334
30
0.0
11
0.604788
21
1.145159
31
0.0
0
LINE
8
FRONT
10
0.604788
20
1.145159
30
0.0
11
0.604788
21
1.159053
31
0.0
0
LINE
8
FRONT
10
0.604788
20
1.159053
30
0.0
11
0.603404
21
1.172878
31
0.0
0
LINE
8
FRONT
10
0.603404
20
1.172878
30
0.0
11
0.600651
21
1.186496
31
0.0
0
LINE
8
FRONT
10
0.600651
20
1.186496
30
0.0
11
0.596556
21
1.199772
31
0.0
0
LINE
8
FRONT
10
0.596556
20
1.199772
30
0.0
11
0.591159
21
1.212575
31
0.0
0
LINE
8
FRONT
10
0.591159
20
1.212575
30
0.0
11
0.584514
21
1.224777
31
0.0
0
LINE
8
FRONT
10
0.584514
20
1.224777
30
0.0
11
0.576688
21
1.236257
31
0.0
0
LINE
8
FRONT
10
0.576688
20
1.236257
30
0.0
11
0.567757
21
1.246900
31
0.0
0
LINE
8
FRONT
10
0.567757
20
1.246900
30
0.0
11
0.557811
21
1.256601
31
0.0
0
LINE
8
FRONT
10
0.557811
20
1.256601
30
0.0
11
0.546948
21
1.265264
31
0.0
0
LINE
8
FRONT
10
0.546948
20
1.265264
30
0.0
11
0.535277
21
1.272802
31
0.0
0
LINE
8
FRONT
10
0.535277
20
1.272802
30
0.0
11
0.522913
21
1.279140
31
0.0
0
LINE
8
FRONT
10
0.522913
20
1.279140
30
0.0
11
0.509980
21
1.284216
31
0.0
0
LINE
8
FRONT
10
0.509980
20
1.284216
30
0.0
11
0.496606
21
1.287979
31
0.0
0
LINE
8
FRONT
10
0.496606
20
1.287979
30
0.0
11
0.482923
21
1.290392
31
0.0
0
LINE
8
FRONT
10
0.482923
20
1.290392
30
0.0
11
0.469068
21
1.291430
31
0.0
0
LINE
8
FRONT
10
0.469068
20
1.291430
30
0.0
11
0.455178
21
1.291084
31
0.0
0
LINE
8
FRONT
10
0.455178
20
1.291084
30
0.0
11
0.441392
21
1.289356
31
0.0
0
LINE
8
FRONT
10
0.441392
20
1.289356
30
0.0
11
0.427847
21
1.286265
31
0.0
0
LINE
8
FRONT
10
0.427847
20
1.286265
30
0.0
11
0.414677
21
1.281840
31
0.0
0
LINE
8
FRONT
10
0.414677
20
1.281840
30
0.0
11
0.402012
21
1.276125
31
0.0
0
LINE
8
FRONT
10
0.402012
20
1.276125
30
0.0
11
0.389980
21
1.269178
31
0.0
0
LINE
8
FRONT
10
0.389980
20
1.269178
30
0.0
11
0.378699
21
1.261068
31
0.0
0
LINE
8
FRONT
10
0.378699
20
1.261068
30
0.0
11
0.368282
21
1.251875
31
0.0
0
LINE
8
FRONT
10
0.368282
20
1.251875
30
0.0
11
0.358832
21
1.241690
31
0.0
0
LINE
8
FRONT
10
0.358832
20
1.241690
30
0.0
11
0.350442
21
1.230615
31
0.0
0
LINE
8
FRONT
10
0.350442
20
1.230615
30
0.0
11
0.343198
21
1.218759
31
0.0
0
LINE
8
FRONT
10
0.343198
20
1.218759
30
0.0
11
0.337169
21
1.206241
31
0.0
0
LINE
8
FRONT
10
0.337169
20
1.206241
30
0.0
11
0.332417
21
1.193185
31
0.0
0
LINE
8
FRONT
10
0.332417
20
1.193185
30
0.0
11
0.328989
21
1.179721
31
0.0
0
LINE
8
FRONT
10
0.328989
20
1.179721
30
0.0
11
0.326918
21
1.165982
31
0.0
0
LINE
8
FRONT
10
0.326918
20
1.165982
30
0.0
11
0.326226
21
1.152106
31
0.0
0
LINE
8
FRONT_HID
6
HIDDEN
10
0.000000
20
0.919827
30
0.0
11
0.464559
21
0.919827
31
0.0
0
LINE
8
FRONT_HID
6
HIDDEN
10
0.000000
20
1.616665
30
0.0
11
0.000000
21
0.919827
31
0.0
0
LINE
8
FRONT_HID
6
HIDDEN
10
0.464559
20
0.919827
30
0.0
11
0.470350
21
0.919899
31
0.0
0
LINE
8
FRONT_HID
6
HIDDEN
10
0.470350
20
0.919899
30
0.0
11
0.476137
21
0.920115
31
0.0
0
LINE
8
FRONT_HID
6
HIDDEN
10
0.476137
20
0.920115
30
0.0
11
0.481917
21
0.920476
31
0.0
0
LINE
8
FRONT_HID
6
HIDDEN
10
0.481917
20
0.920476
30
0.0
11
0.487686
21
0.920981
31
0.0
0
LINE
8
FRONT_HID
6
HIDDEN
10
0.487686
20
0.920981
30
0.0
11
0.493441
21
0.921629
31
0.0
0
LINE
8
FRONT_HID
6
HIDDEN
10
0.493441
20
0.921629
30
0.0
11
0.499178
21
0.922421
31
0.0
0
LINE
8
FRONT_HID
6
HIDDEN
10
0.499178
20
0.922421
30
0.0
11
0.504894
21
0.923355
31
0.0
0
LINE
8
FRONT_HID
6
HIDDEN
10
0.504894
20
0.923355
30
0.0
11
0.510584
21
0.924432
31
0.0
0
LINE
8
FRONT_HID
6
HIDDEN
10
0.510584
20
0.924432
30
0.0
11
0.516246
21
0.925650
31
0.0
0
LINE
8
FRONT_HID
6
HIDDEN
10
0.516246
20
0.925650
30
0.0
11
0.521876
21
0.927009
31
0.0
0
LINE
8
FRONT_HID
6
HIDDEN
10
0.521876
20
0.927009
30
0.0
11
0.527470
21
0.928508
31
0.0
0
LINE
8
FRONT_HID
6
HIDDEN
10
0.527470
20
0.928508
30
0.0
11
0.533024
21
0.930146
31
0.0
0
LINE
8
FRONT_HID
6
HIDDEN
10
0.533024
20
0.930146
30
0.0
11
0.538537
21
0.931922
31
0.0
0
LINE
8
FRONT_HID
6
HIDDEN
10
0.538537
20
0.931922
30
0.0
11
0.544003
21
0.933835
31
0.0
0
LINE
8
FRONT_HID
6
HIDDEN
10
0.544003
20
0.933835
30
0.0
11
0.549420
21
0.935883
31
0.0
0
LINE
8
FRONT_HID
6
HIDDEN
10
0.549420
20
0.935883
30
0.0
11
0.554784
21
0.938066
31
0.0
0
LINE
8
FRONT_HID
6
HIDDEN
10
0.554784
20
0.938066
30
0.0
11
0.560092
21
0.940382
31
0.0
0
LINE
8
FRONT_HID
6
HIDDEN
10
0.560092
20
0.940382
30
0.0
11
0.565341
21
0.942829
31
0.0
0
LINE
8
FRONT_HID
6
HIDDEN
10
0.565341
20
0.942829
30
0.0
11
0.570527
21
0.945407
31
0.0
0
LINE
8
FRONT_HID
6
HIDDEN
10
0.570527
20
0.945407
30
0.0
11
0.575647
21
0.948113
31
0.0
0
LINE
8
FRONT_HID
6
HIDDEN
10
0.575647
20
0.948113
30
0.0
11
0.580699
21
0.950946
31
0.0
0
LINE
8
FRONT_HID
6
HIDDEN
10
0.580699
20
0.950946
30
0.0
11
0.585678
21
0.953904
31
0.0
0
LINE
8
FRONT_HID
6
HIDDEN
10
0.585678
20
0.953904
30
0.0
11
0.590581
21
0.956985
31
0.0
0
LINE
8
FRONT_HID
6
HIDDEN
10
0.590581
20
0.956985
30
0.0
11
0.595406
21
0.960188
31
0.0
0
LINE
8
FRONT_HID
6
HIDDEN
10
0.595406
20
0.960188
30
0.0
11
0.600150
21
0.963509
31
0.0
0
LINE
8
FRONT_HID
6
HIDDEN
10
0.600150
20
0.963509
30
0.0
11
0.604810
21
0.966948
31
0.0
0
LINE
8
FRONT_HID
6
HIDDEN
10
0.604810
20
0.966948
30
0.0
11
0.609383
21
0.970503
31
0.0
0
LINE
8
FRONT_HID
6
HIDDEN
10
0.609383
20
0.970503
30
0.0
11
0.613865
21
0.974170
31
0.0
0
LINE
8
FRONT_HID
6
HIDDEN
10
0.613865
20
0.974170
30
0.0
11
0.618255
21
0.977947
31
0.0
0
LINE
8
FRONT_HID
6
HIDDEN
10
0.618255
20
0.977947
30
0.0
11
0.622549
21
0.981833
31
0.0
0
LINE
8
FRONT_HID
6
HIDDEN
10
0.622549
20
0.981833
30
0.0
11
0.626745
21
0.985825
31
0.0
0
LINE
8
FRONT_HID
6
HIDDEN
10
0.626745
20
0.985825
30
0.0
11
0.630840
21
0.989920
31
0.0
0
LINE
8
FRONT_HID
6
HIDDEN
10
0.630840
20
0.989920
30
0.0
11
0.634832
21
0.994116
31
0.0
0
LINE
8
FRONT_HID
6
HIDDEN
10
0.634832
20
0.994116
30
0.0
11
0.638718
21
0.998410
31
0.0
0
LINE
8
FRONT_HID
6
HIDDEN
10
0.638718
20
0.998410
30
0.0
11
0.642495
21
1.002800
31
0.0
0
LINE
8
FRONT_HID
6
HIDDEN
10
0.642495
20
1.002800
30
0.0
11
0.646162
21
1.007282
31
0.0
0
LINE
8
FRONT_HID
6
HIDDEN
10
0.646162
20
1.007282
30
0.0
11
0.649716
21
1.011855
31
0.0
0
LINE
8
FRONT_HID
6
HIDDEN
10
0.649716
20
1.011855
30
0.0
11
0.653155
21
1.016514
31
0.0
0
LINE
8
FRONT_HID
6
HIDDEN
10
0.653155
20
1.016514
30
0.0
11
0.656477
21
1.021258
31
0.0
0
LINE
8
FRONT_HID
6
HIDDEN
10
0.656477
20
1.021258
30
0.0
11
0.659680
21
1.026084
31
0.0
0
LINE
8
FRONT_HID
6
HIDDEN
10
0.659680
20
1.026084
30
0.0
11
0.662761
21
1.030987
31
0.0
0
LINE
8
FRONT_HID
6
HIDDEN
10
0.662761
20
1.030987
30
0.0
11
0.665719
21
1.035966
31
0.0
0
LINE
8
FRONT_HID
6
HIDDEN
10
0.665719
20
1.035966
30
0.0
11
0.668552
21
1.041017
31
0.0
0
LINE
8
FRONT_HID
6
HIDDEN
10
0.668552
20
1.041017
30
0.0
11
0.671258
21
1.046138
31
0.0
0
LINE
8
FRONT_HID
6
HIDDEN
10
0.671258
20
1.046138
30
0.0
11
0.673835
21
1.051324
31
0.0
0
LINE
8
FRONT_HID
6
HIDDEN
10
0.673835
20
1.051324
30
0.0
11
0.676283
21
1.056572
31
0.0
0
LINE
8
FRONT_HID
6
HIDDEN
10
0.676283
20
1.056572
30
0.0
11
0.678599
21
1.061881
31
0.0
0
LINE
8
FRONT_HID
6
HIDDEN
10
0.678599
20
1.061881
30
0.0
11
0.680782
21
1.067245
31
0.0
0
LINE
8
FRONT_HID
6
HIDDEN
10
0.680782
20
1.067245
30
0.0
11
0.682830
21
1.072662
31
0.0
0
LINE
8
FRONT_HID
6
HIDDEN
10
0.682830
20
1.072662
30
0.0
11
0.684743
21
1.078128
31
0.0
0
LINE
8
FRONT_HID
6
HIDDEN
10
0.684743
20
1.078128
30
0.0
11
0.686519
21
1.083640
31
0.0
0
LINE
8
FRONT_HID
6
HIDDEN
10
0.686519
20
1.083640
30
0.0
11
0.688157
21
1.089195
31
0.0
0
LINE
8
FRONT_HID
6
HIDDEN
10
0.688157
20
1.089195
30
0.0
11
0.689656
21
1.094789
31
0.0
0
LINE
8
FRONT_HID
6
HIDDEN
10
0.689656
20
1.094789
30
0.0
11
0.691015
21
1.100419
31
0.0
0
LINE
8
FRONT_HID
6
HIDDEN
10
0.691015
20
1.100419
30
0.0
11
0.692233
21
1.106081
31
0.0
0
LINE
8
FRONT_HID
6
HIDDEN
10
0.692233
20
1.106081
30
0.0
11
0.693309
21
1.111771
31
0.0
0
LINE
8
FRONT_HID
6
HIDDEN
10
0.693309
20
1.111771
30
0.0
11
0.694244
21
1.117486
31
0.0
0
LINE
8
FRONT_HID
6
HIDDEN
10
0.694244
20
1.117486
30
0.0
11
0.695036
21
1.123223
31
0.0
0
LINE
8
FRONT_HID
6
HIDDEN
10
0.695036
20
1.123223
30
0.0
11
0.695684
21
1.128978
31
0.0
0
LINE
8
FRONT_HID
6
HIDDEN
10
0.695684
20
1.128978
30
0.0
11
0.696189
21
1.134748
31
0.0
0
LINE
8
FRONT_HID
6
HIDDEN
10
0.696189
20
1.134748
30
0.0
11
0.696550
21
1.140528
31
0.0
0
LINE
8
FRONT_HID
6
HIDDEN
10
0.696550
20
1.140528
30
0.0
11
0.696766
21
1.146315
31
0.0
0
LINE
8
FRONT_HID
6
HIDDEN
10
0.696766
20
1.146315
30
0.0
11
0.696838
21
1.152106
31
0.0
0
LINE
8
FRONT_HID
6
HIDDEN
10
0.696838
20
1.152106
30
0.0
11
0.696838
21
1.245018
31
0.0
0
LINE
8
FRONT_HID
6
HIDDEN
10
0.696838
20
1.245018
30
0.0
11
1.114941
21
1.245018
31
0.0
0
LINE
8
FRONT_HID
6
HIDDEN
10
1.114941
20
1.245018
30
0.0
11
1.114941
21
1.384385
31
0.0
0
LINE
8
FRONT_HID
6
HIDDEN
10
1.114941
20
1.384385
30
0.0
11
0.464559
21
1.384385
31
0.0
0
LINE
8
FRONT_HID
6
HIDDEN
10
0.464559
20
1.384385
30
0.0
11
0.458768
21
1.384313
31
0.0
0
LINE
8
FRONT_HID
6
HIDDEN
10
0.458768
20
1.384313
30
0.0
11
0.452981
21
1.384097
31
0.0
0
LINE
8
FRONT_HID
6
HIDDEN
10
0.452981
20
1.384097
30
0.0
11
0.447201
21
1.383736
31
0.0
0
LINE
8
FRONT_HID
6
HIDDEN
10
0.447201
20
1.383736
30
0.0
11
0.441431
21
1.383231
31
0.0
0
LINE
8
FRONT_HID
6
HIDDEN
10
0.441431
20
1.383231
30
0.0
11
0.435676
21
1.382583
31
0.0
0
LINE
8
FRONT_HID
6
HIDDEN
10
0.435676
20
1.382583
30
0.0
11
0.429939
21
1.381791
31
0.0
0
LINE
8
FRONT_HID
6
HIDDEN
10
0.429939
20
1.381791
30
0.0
11
0.424224
21
1.380857
31
0.0
0
LINE
8
FRONT_HID
6
HIDDEN
10
0.424224
20
1.380857
30
0.0
11
0.418534
21
1.379780
31
0.0
0
LINE
8
FRONT_HID
6
HIDDEN
10
0.418534
20
1.379780
30
0.0
11
0.412872
21
1.378562
31
0.0
0
LINE
8
FRONT_HID
6
HIDDEN
10
0.412872
20
1.378562
30
0.0
11
0.407242
21
1.377203
31
0.0
0
LINE
8
FRONT_HID
6
HIDDEN
10
0.407242
20
1.377203
30
0.0
11
0.401648
21
1.375704
31
0.0
0
LINE
8
FRONT_HID
6
HIDDEN
10
0.401648
20
1.375704
30
0.0
11
0.396093
21
1.374066
31
0.0
0
LINE
8
FRONT_HID
6
HIDDEN
10
0.396093
20
1.374066
30
0.0
11
0.390581
21
1.372290
31
0.0
0
LINE
8
FRONT_HID
6
HIDDEN
10
0.390581
20
1.372290
30
0.0
11
0.385115
21
1.370377
31
0.0
0
LINE
8
FRONT_HID
6
HIDDEN
10
0.385115
20
1.370377
30
0.0
11
0.379698
21
1.368329
31
0.0
0
LINE
8
FRONT_HID
6
HIDDEN
10
0.379698
20
1.368329
30
0.0
11
0.374333
21
1.366146
31
0.0
0
LINE
8
FRONT_HID
6
HIDDEN
10
0.374333
20
1.366146
30
0.0
11
0.369025
21
1.363830
31
0.0
0
LINE
8
FRONT_HID
6
HIDDEN
10
0.369025
20
1.363830
30
0.0
11
0.363777
21
1.361382
31
0.0
0
LINE
8
FRONT_HID
6
HIDDEN
10
0.363777
20
1.361382
30
0.0
11
0.358590
21
1.358805
31
0.0
0
LINE
8
FRONT_HID
6
HIDDEN
10
0.358590
20
1.358805
30
0.0
11
0.353470
21
1.356099
31
0.0
0
LINE
8
FRONT_HID
6
HIDDEN
10
0.353470
20
1.356099
30
0.0
11
0.348419
21
1.353266
31
0.0
0
LINE
8
FRONT_HID
6
HIDDEN
10
0.348419
20
1.353266
30
0.0
11
0.343440
21
1.350308
31
0.0
0
LINE
8
FRONT_HID
6
HIDDEN
10
0.343440
20
1.350308
30
0.0
11
0.338537
21
1.347227
31
0.0
0
LINE
8
FRONT_HID
6
HIDDEN
10
0.338537
20
1.347227
30
0.0
11
0.333711
21
1.344024
31
0.0
0
LINE
8
FRONT_HID
6
HIDDEN
10
0.333711
20
1.344024
30
0.0
11
0.328967
21
1.340702
31
0.0
0
LINE
8
FRONT_HID
6
HIDDEN
10
0.328967
20
1.340702
30
0.0
11
0.324308
21
1.337263
31
0.0
0
LINE
8
FRONT_HID
6
HIDDEN
10
0.324308
20
1.337263
30
0.0
11
0.319735
21
1.333709
31
0.0
0
LINE
8
FRONT_HID
6
HIDDEN
10
0.319735
20
1.333709
30
0.0
11
0.315253
21
1.330042
31
0.0
0
LINE
8
FRONT_HID
6
HIDDEN
10
0.315253
20
1.330042
30
0.0
11
0.310863
21
1.326265
31
0.0
0
LINE
8
FRONT_HID
6
HIDDEN
10
0.310863
20
1.326265
30
0.0
11
0.306569
21
1.322379
31
0.0
0
LINE
8
FRONT_HID
6
HIDDEN
10
0.306569
20
1.322379
30
0.0
11
0.302373
21
1.318387
31
0.0
0
LINE
8
FRONT_HID
6
HIDDEN
10
0.302373
20
1.318387
30
0.0
11
0.298278
21
1.314292
31
0.0
0
LINE
8
FRONT_HID
6
HIDDEN
10
0.298278
20
1.314292
30
0.0
11
0.294286
21
1.310096
31
0.0
0
LINE
8
FRONT_HID
6
HIDDEN
10
0.294286
20
1.310096
30
0.0
11
0.290400
21
1.305802
31
0.0
0
LINE
8
FRONT_HID
6
HIDDEN
10
0.290400
20
1.305802
30
0.0
11
0.286622
21
1.301412
31
0.0
0
LINE
8
FRONT_HID
6
HIDDEN
10
0.286622
20
1.301412
30
0.0
11
0.282955
21
1.296930
31
0.0
0
LINE
8
FRONT_HID
6
HIDDEN
10
0.282955
20
1.296930
30
0.0
11
0.279401
21
1.292357
31
0.0
0
LINE
8
FRONT_HID
6
HIDDEN
10
0.279401
20
1.292357
30
0.0
11
0.275962
21
1.287698
31
0.0
0
LINE
8
FRONT_HID
6
HIDDEN
10
0.275962
20
1.287698
30
0.0
11
0.272641
21
1.282954
31
0.0
0
LINE
8
FRONT_HID
6
HIDDEN
10
0.272641
20
1.282954
30
0.0
11
0.269438
21
1.278128
31
0.0
0
LINE
8
FRONT_HID
6
HIDDEN
10
0.269438
20
1.278128
30
0.0
11
0.266357
21
1.273225
31
0.0
0
LINE
8
FRONT_HID
6
HIDDEN
10
0.266357
20
1.273225
30
0.0
11
0.263399
21
1.268246
31
0.0
0
LINE
8
FRONT_HID
6
HIDDEN
10
0.263399
20
1.268246
30
0.0
11
0.260566
21
1.263194
31
0.0
0
LINE
8
FRONT_HID
6
HIDDEN
10
0.260566
20
1.263194
30
0.0
11
0.257860
21
1.258074
31
0.0
0
LINE
8
FRONT_HID
6
HIDDEN
10
0.257860
20
1.258074
30
0.0
11
0.255282
21
1.252888
31
0.0
0
LINE
8
FRONT_HID
6
HIDDEN
10
0.255282
20
1.252888
30
0.0
11
0.252835
21
1.247639
31
0.0
0
LINE
8
FRONT_HID
6
HIDDEN
10
0.252835
20
1.247639
30
0.0
11
0.250519
21
1.242331
31
0.0
0
LINE
8
FRONT_HID
6
HIDDEN
10
0.250519
20
1.242331
30
0.0
11
0.248336
21
1.236967
31
0.0
0
LINE
8
FRONT_HID
6
HIDDEN
10
0.248336
20
1.236967
30
0.0
11
0.246288
21
1.231550
31
0.0
0
LINE
8
FRONT_HID
6
HIDDEN
10
0.246288
20
1.231550
30
0.0
11
0.244375
21
1.226084
31
0.0
0
LINE
8
FRONT_HID
6
HIDDEN
10
0.244375
20
1.226084
30
0.0
11
0.242599
21
1.220571
31
0.0
0
LINE
8
FRONT_HID
6
HIDDEN
10
0.242599
20
1.220571
30
0.0
11
0.240961
21
1.215017
31
0.0
0
LINE
8
FRONT_HID
6
HIDDEN
10
0.240961
20
1.215017
30
0.0
11
0.239462
21
1.209423
31
0.0
0
LINE
8
FRONT_HID
6
HIDDEN
10
0.239462
20
1.209423
30
0.0
11
0.238103
21
1.203793
31
0.0
0
LINE
8
FRONT_HID
6
HIDDEN
10
0.238103
20
1.203793
30
0.0
11
0.236885
21
1.198131
31
0.0
0
LINE
8
FRONT_HID
6
HIDDEN
10
0.236885
20
1.198131
30
0.0
11
0.235808
21
1.192441
31
0.0
0
LINE
8
FRONT_HID
6
HIDDEN
10
0.235808
20
1.192441
30
0.0
11
0.234874
21
1.186725
31
0.0
0
LINE
8
FRONT_HID
6
HIDDEN
10
0.234874
20
1.186725
30
0.0
11
0.234082
21
1.180988
31
0.0
0
LINE
8
FRONT_HID
6
HIDDEN
10
0.234082
20
1.180988
30
0.0
11
0.233434
21
1.175233
31
0.0
0
LINE
8
FRONT_HID
6
HIDDEN
10
0.233434
20
1.175233
30
0.0
11
0.232929
21
1.169464
31
0.0
0
LINE
8
FRONT_HID
6
HIDDEN
10
0.232929
20
1.169464
30
0.0
11
0.232568
21
1.163684
31
0.0
0
LINE
8
FRONT_HID
6
HIDDEN
10
0.232568
20
1.163684
30
0.0
11
0.232352
21
1.157897
31
0.0
0
LINE
8
FRONT_HID
6
HIDDEN
10
0.232352
20
1.157897
30
0.0
11
0.232279
21
1.152106
31
0.0
0
LINE
8
FRONT_HID
6
HIDDEN
10
0.232279
20
1.152106
30
0.0
11
0.232279
21
1.059194
31
0.0
0
LINE
8
FRONT_HID
6
HIDDEN
10
0.232279
20
1.059194
30
0.0
11
0.092912
21
1.059194
31
0.0
0
LINE
8
FRONT_HID
6
HIDDEN
10
0.092912
20
1.059194
30
0.0
11
0.092912
21
1.616665
31
0.0
0
LINE
8
FRONT_HID
6
HIDDEN
10
0.092912
20
1.616665
30
0.0
11
0.000000
21
1.616665
31
0.0
0
LINE
8
FRONT_HID
6
HIDDEN
10
0.326226
20
1.152106
30
0.0
11
0.326918
21
1.138229
31
0.0
0
LINE
8
FRONT_HID
6
HIDDEN
10
0.326918
20
1.138229
30
0.0
11
0.328989
21
1.124491
31
0.0
0
LINE
8
FRONT_HID
6
HIDDEN
10
0.328989
20
1.124491
30
0.0
11
0.332417
21
1.111027
31
0.0
0
LINE
8
FRONT_HID
6
HIDDEN
10
0.332417
20
1.111027
30
0.0
11
0.337169
21
1.097971
31
0.0
0
LINE
8
FRONT_HID
6
HIDDEN
10
0.337169
20
1.097971
30
0.0
11
0.343198
21
1.085453
31
0.0
0
LINE
8
FRONT_HID
6
HIDDEN
10
0.343198
20
1.085453
30
0.0
11
0.350442
21
1.073597
31
0.0
0
LINE
8
FRONT_HID
6
HIDDEN
10
0.350442
20
1.073597
30
0.0
11
0.358832
21
1.062522
31
0.0
0
LINE
8
FRONT_HID
6
HIDDEN
10
0.358832
20
1.062522
30
0.0
11
0.368282
21
1.052337
31
0.0
0
LINE
8
FRONT_HID
6
HIDDEN
10
0.368282
20
1.052337
30
0.0
11
0.378699
21
1.043144
31
0.0
0
LINE
8
FRONT_HID
6
HIDDEN
10
0.378699
20
1.043144
30
0.0
11
0.389980
21
1.035033
31
0.0
0
LINE
8
FRONT_HID
6
HIDDEN
10
0.389980
20
1.035033
30
0.0
11
0.402012
21
1.028087
31
0.0
0
LINE
8
FRONT_HID
6
HIDDEN
10
0.402012
20
1.028087
30
0.0
11
0.414677
21
1.022372
31
0.0
0
LINE
8
FRONT_HID
6
HIDDEN
10
0.414677
20
1.022372
30
0.0
11
0.427847
21
1.017947
31
0.0
0
LINE
8
FRONT_HID
6
HIDDEN
10
0.427847
20
1.017947
30
0.0
11
0.441392
21
1.014856
31
0.0
0
LINE
8
FRONT_HID
6
HIDDEN
10
0.441392
20
1.014856
30
0.0
11
0.455178
21
1.013128
31
0.0
0
LINE
8
FRONT_HID
6
HIDDEN
10
0.455178
20
1.013128
30
0.0
11
0.469068
21
1.012782
31
0.0
0
LINE
8
FRONT_HID
6
HIDDEN
10
0.469068
20
1.012782
30
0.0
11
0.482923
21
1.013820
31
0.0
0
LINE
8
FRONT_HID
6
HIDDEN
10
0.482923
20
1.013820
30
0.0
11
0.496606
21
1.016233
31
0.0
0
LINE
8
FRONT_HID
6
HIDDEN
10
0.496606
20
1.016233
30
0.0
11
0.509980
21
1.019996
31
0.0
0
LINE
8
FRONT_HID
6
HIDDEN
10
0.509980
20
1.019996
30
0.0
11
0.522913
21
1.025071
31
0.0
0
LINE
8
FRONT_HID
6
HIDDEN
10
0.522913
20
1.025071
30
0.0
11
0.535277
21
1.031410
31
0.0
0
LINE
8
FRONT_HID
6
HIDDEN
10
0.535277
20
1.031410
30
0.0
11
0.546948
21
1.038948
31
0.0
0
LINE
8
FRONT_HID
6
HIDDEN
10
0.546948
20
1.038948
30
0.0
11
0.557811
21
1.047611
31
0.0
0
LINE
8
FRONT_HID
6
HIDDEN
10
0.557811
20
1.047611
30
0.0
11
0.567757
21
1.057312
31
0.0
0
LINE
8
FRONT_HID
6
HIDDEN
10
0.567757
20
1.057312
30
0.0
11
0.576688
21
1.067955
31
0.0
0
LINE
8
FRONT_HID
6
HIDDEN
10
0.576688
20
1.067955
30
0.0
11
0.584514
21
1.079435
31
0.0
0
LINE
8
FRONT_HID
6
HIDDEN
10
0.584514
20
1.079435
30
0.0
11
0.591159
21
1.091637
31
0.0
0
LINE
8
FRONT_HID
6
HIDDEN
10
0.591159
20
1.091637
30
0.0
11
0.596556
21
1.104439
31
0.0
0
LINE
8
FRONT_HID
6
HIDDEN
10
0.596556
20
1.104439
30
0.0
11
0.600651
21
1.117716
31
0.0
0
LINE
8
FRONT_HID
6
HIDDEN
10
0.600651
20
1.117716
30
0.0
11
0.603404
21
1.131334
31
0.0
0
LINE
8
FRONT_HID
6
HIDDEN
10
0.603404
20
1.131334
30
0.0
11
0.604788
21
1.145159
31
0.0
0
LINE
8
FRONT_HID
6
HIDDEN
10
0.604788
20
1.145159
30
0.0
11
0.604788
21
1.159053
31
0.0
0
LINE
8
FRONT_HID
6
HIDDEN
10
0.604788
20
1.159053
30
0.0
11
0.603404
21
1.172878
31
0.0
0
LINE
8
FRONT_HID
6
HIDDEN
10
0.603404
20
1.172878
30
0.0
11
0.600651
21
1.186496
31
0.0
0
LINE
8
FRONT_HID
6
HIDDEN
10
0.600651
20
1.186496
30
0.0
11
0.596556
21
1.199772
31
0.0
0
LINE
8
FRONT_HID
6
HIDDEN
10
0.596556
20
1.199772
30
0.0
11
0.591159
21
1.212575
31
0.0
0
LINE
8
FRONT_HID
6
HIDDEN
10
0.591159
20
1.212575
30
0.0
11
0.584514
21
1.224777
31
0.0
0
LINE
8
FRONT_HID
6
HIDDEN
10
0.584514
20
1.224777
30
0.0
11
0.576688
21
1.236257
31
0.0
0
LINE
8
FRONT_HID
6
HIDDEN
10
0.576688
20
1.236257
30
0.0
11
0.567757
21
1.246900
31
0.0
0
LINE
8
FRONT_HID
6
HIDDEN
10
0.567757
20
1.246900
30
0.0
11
0.557811
21
1.256601
31
0.0
0
LINE
8
FRONT_HID
6
HIDDEN
10
0.557811
20
1.256601
30
0.0
11
0.546948
21
1.265264
31
0.0
0
LINE
8
FRONT_HID
6
HIDDEN
10
0.546948
20
1.265264
30
0.0
11
0.535277
21
1.272802
31
0.0
0
LINE
8
FRONT_HID
6
HIDDEN
10
0.535277
20
1.272802
30
0.0
11
0.522913
21
1.279140
31
0.0
0
LINE
8
FRONT_HID
6
HIDDEN
10
0.522913
20
1.279140
30
0.0
11
0.509980
21
1.284216
31
0.0
0
LINE
8
FRONT_HID
6
HIDDEN
10
0.509980
20
1.284216
30
0.0
11
0.496606
21
1.287979
31
0.0
0
LINE
8
FRONT_HID
6
HIDDEN
10
0.496606
20
1.287979
30
0.0
11
0.482923
21
1.290392
31
0.0
0
LINE
8
FRONT_HID
6
HIDDEN
10
0.482923
20
1.290392
30
0.0
11
0.469068
21
1.291430
31
0.0
0
LINE
8
FRONT_HID
6
HIDDEN
10
0.469068
20
1.291430
30
0.0
11
0.455178
21
1.291084
31
0.0
0
LINE
8
FRONT_HID
6
HIDDEN
10
0.455178
20
1.291084
30
0.0
11
0.441392
21
1.289356
31
0.0
0
LINE
8
FRONT_HID
6
HIDDEN
10
0.441392
20
1.289356
30
0.0
11
0.427847
21
1.286265
31
0.0
0
LINE
8
FRONT_HID
6
HIDDEN
10
0.427847
20
1.286265
30
0.0
11
0.414677
21
1.281840
31
0.0
0
LINE
8
FRONT_HID
6
HIDDEN
10
0.414677
20
1.281840
30
0.0
11
0.402012
21
1.276125
31
0.0
0
LINE
8
FRONT_HID
6
HIDDEN
10
0.402012
20
1.276125
30
0.0
11
0.389980
21
1.269178
31
0.0
0
LINE
8
FRONT_HID
6
HIDDEN
10
0.389980
20
1.269178
30
0.0
11
0.378699
21
1.261068
31
0.0
0
LINE
8
FRONT_HID
6
HIDDEN
10
0.378699
20
1.261068
30
0.0
11
0.368282
21
1.251875
31
0.0
0
LINE
8
FRONT_HID
6
HIDDEN
10
0.368282
20
1.251875
30
0.0
11
0.358832
21
1.241690
31
0.0
0
LINE
8
FRONT_HID
6
HIDDEN
10
0.358832
20
1.241690
30
0.0
11
0.350442
21
1.230615
31
0.0
0
LINE
8
FRONT_HID
6
HIDDEN
10
0.350442
20
1.230615
30
0.0
11
0.343198
21
1.218759
31
0.0
0
LINE
8
FRONT_HID
6
HIDDEN
10
0.343198
20
1.218759
30
0.0
11
0.337169
21
1.206241
31
0.0
0
LINE
8
FRONT_HID
6
HIDDEN
10
0.337169
20
1.206241
30
0.0
11
0.332417
21
1.193185
31
0.0
0
LINE
8
FRONT_HID
6
HIDDEN
10
0.332417
20
1.193185
30
0.0
11
0.328989
21
1.179721
31
0.0
0
LINE
8
FRONT_HID
6
HIDDEN
10
0.328989
20
1.179721
30
0.0
11
0.326918
21
1.165982
31
0.0
0
LINE
8
FRONT_HID
6
HIDDEN
10
0.326918
20
1.165982
30
0.0
11
0.326226
21
1.152106
31
0.0
0
LINE
8
FRONT_HID
6
HIDDEN
10
1.022029
20
1.245018
30
0.0
11
0.929118
21
1.245018
31
0.0
0
LINE
8
FRONT_HID
6
HIDDEN
10
0.929118
20
1.245018
30
0.0
11
1.022029
21
1.245018
31
0.0
0
LINE
8
FRONT_HID
6
HIDDEN
10
1.022029
20
1.245018
30
0.0
11
0.929118
21
1.245018
31
0.0
0
LINE
8
FRONT_HID
6
HIDDEN
10
0.929118
20
1.245018
30
0.0
11
1.022029
21
1.245018
31
0.0
0
LINE
8
FRONT_HID
6
HIDDEN
10
1.022029
20
1.384385
30
0.0
11
0.929118
21
1.384385
31
0.0
0
LINE
8
FRONT_HID
6
HIDDEN
10
0.929118
20
1.384385
30
0.0
11
1.022029
21
1.384385
31
0.0
0
LINE
8
FRONT_HID
6
HIDDEN
10
1.022029
20
1.384385
30
0.0
11
0.929118
21
1.384385
31
0.0
0
LINE
8
FRONT_HID
6
HIDDEN
10
0.929118
20
1.384385
30
0.0
11
1.022029
21
1.384385
31
0.0
0
LINE
8
FRONT_HID
6
HIDDEN
10
1.022029
20
1.384385
30
0.0
11
1.022029
21
1.245018
31
0.0
0
LINE
8
FRONT_HID
6
HIDDEN
10
1.022029
20
1.384385
30
0.0
11
1.022029
21
1.245018
31
0.0
0
LINE
8
FRONT_HID
6
HIDDEN
10
0.929118
20
1.245018
30
0.0
11
0.929118
21
1.384385
31
0.0
0
LINE
8
FRONT_HID
6
HIDDEN
10
0.929118
20
1.245018
30
0.0
11
0.929118
21
1.384385
31
0.0
0
LINE
8
RIGHT
10
1.337929
20
0.919827
30
0.0
11
2.034768
21
0.919827
31
0.0
0
LINE
8
RIGHT
10
1.337929
20
0.919827
30
0.0
11
1.337929
21
1.152106
31
0.0
0
LINE
8
RIGHT
10
2.034768
20
0.919827
30
0.0
11
2.034768
21
1.152106
31
0.0
0
LINE
8
RIGHT
10
1.337929
20
1.152106
30
0.0
11
1.337929
21
1.245018
31
0.0
0
LINE
8
RIGHT
10
1.337929
20
1.245018
30
0.0
11
1.337929
21
1.384385
31
0.0
0
LINE
8
RIGHT
10
1.337929
20
1.384385
30
0.0
11
1.337929
21
1.616665
31
0.0
0
LINE
8
RIGHT
10
2.034768
20
1.152106
30
0.0
11
2.034768
21
1.245018
31
0.0
0
LINE
8
RIGHT
10
2.034768
20
1.245018
30
0.0
11
2.034768
21
1.384385
31
0.0
0
LINE
8
RIGHT
10
2.034768
20
1.384385
30
0.0
11
2.034768
21
1.616665
31
0.0
0
LINE
8
RIGHT
10
1.337929
20
1.616665
30
0.0
11
2.034768
21
1.616665
31
0.0
0
LINE
8
RIGHT
10
1.337929
20
1.245018
30
0.0
11
2.034768
21
1.245018
31
0.0
0
LINE
8
RIGHT
10
1.337929
20
1.384385
30
0.0
11
2.034768
21
1.384385
31
0.0
0
LINE
8
RIGHT
10
1.337929
20
1.152106
30
0.0
11
2.034768
21
1.152106
31
0.0
0
LINE
8
RIGHT_HID
6
HIDDEN
10
1.337929
20
0.919827
30
0.0
11
2.034768
21
0.919827
31
0.0
0
LINE
8
RIGHT_HID
6
HIDDEN
10
1.337929
20
1.616665
30
0.0
11
2.034768
21
1.616665
31
0.0
0
LINE
8
RIGHT_HID
6
HIDDEN
10
2.034768
20
1.616665
30
0.0
11
2.034768
21
0.919827
31
0.0
0
LINE
8
RIGHT_HID
6
HIDDEN
10
1.337929
20
1.616665
30
0.0
11
1.337929
21
0.919827
31
0.0
0
LINE
8
RIGHT_HID
6
HIDDEN
10
1.337929
20
1.384385
30
0.0
11
1.337929
21
1.152106
31
0.0
0
LINE
8
RIGHT_HID
6
HIDDEN
10
1.337929
20
1.152106
30
0.0
11
1.337929
21
1.059194
31
0.0
0
LINE
8
RIGHT_HID
6
HIDDEN
10
1.337929
20
1.059194
30
0.0
11
1.337929
21
1.384385
31
0.0
0
LINE
8
RIGHT_HID
6
HIDDEN
10
1.337929
20
1.152106
30
0.0
11
1.337929
21
1.012738
31
0.0
0
LINE
8
RIGHT_HID
6
HIDDEN
10
1.337929
20
1.012738
30
0.0
11
1.337929
21
1.291474
31
0.0
0
LINE
8
RIGHT_HID
6
HIDDEN
10
1.337929
20
1.291474
30
0.0
11
1.337929
21
1.152106
31
0.0
0
LINE
8
RIGHT_HID
6
HIDDEN
10
2.034768
20
1.384385
30
0.0
11
2.034768
21
1.152106
31
0.0
0
LINE
8
RIGHT_HID
6
HIDDEN
10
2.034768
20
1.152106
30
0.0
11
2.034768
21
1.059194
31
0.0
0
LINE
8
RIGHT_HID
6
HIDDEN
10
2.034768
20
1.059194
30
0.0
11
2.034768
21
1.384385
31
0.0
0
LINE
8
RIGHT_HID
6
HIDDEN
10
2.034768
20
1.152106
30
0.0
11
2.034768
21
1.012738
31
0.0
0
LINE
8
RIGHT_HID
6
HIDDEN
10
2.034768
20
1.012738
30
0.0
11
2.034768
21
1.291474
31
0.0
0
LINE
8
RIGHT_HID
6
HIDDEN
10
2.034768
20
1.291474
30
0.0
11
2.034768
21
1.152106
31
0.0
0
LINE
8
RIGHT_HID
6
HIDDEN
10
1.337929
20
1.245018
30
0.0
11
2.034768
21
1.245018
31
0.0
0
LINE
8
RIGHT_HID
6
HIDDEN
10
1.848944
20
1.245018
30
0.0
11
1.802488
21
1.245018
31
0.0
0
LINE
8
RIGHT_HID
6
HIDDEN
10
1.802488
20
1.245018
30
0.0
11
1.895400
21
1.245018
31
0.0
0
LINE
8
RIGHT_HID
6
HIDDEN
10
1.895400
20
1.245018
30
0.0
11
1.848944
21
1.245018
31
0.0
0
LINE
8
RIGHT_HID
6
HIDDEN
10
1.523753
20
1.245018
30
0.0
11
1.477297
21
1.245018
31
0.0
0
LINE
8
RIGHT_HID
6
HIDDEN
10
1.477297
20
1.245018
30
0.0
11
1.570209
21
1.245018
31
0.0
0
LINE
8
RIGHT_HID
6
HIDDEN
10
1.570209
20
1.245018
30
0.0
11
1.523753
21
1.245018
31
0.0
0
LINE
8
RIGHT_HID
6
HIDDEN
10
1.337929
20
1.384385
30
0.0
11
2.034768
21
1.384385
31
0.0
0
LINE
8
RIGHT_HID
6
HIDDEN
10
1.848944
20
1.384385
30
0.0
11
1.802488
21
1.384385
31
0.0
0
LINE
8
RIGHT_HID
6
HIDDEN
10
1.802488
20
1.384385
30
0.0
11
1.895400
21
1.384385
31
0.0
0
LINE
8
RIGHT_HID
6
HIDDEN
10
1.895400
20
1.384385
30
0.0
11
1.848944
21
1.384385
31
0.0
0
LINE
8
RIGHT_HID
6
HIDDEN
10
1.523753
20
1.384385
30
0.0
11
1.477297
21
1.384385
31
0.0
0
LINE
8
RIGHT_HID
6
HIDDEN
10
1.477297
20
1.384385
30
0.0
11
1.570209
21
1.384385
31
0.0
0
LINE
8
RIGHT_HID
6
HIDDEN
10
1.570209
20
1.384385
30
0.0
11
1.523753
21
1.384385
31
0.0
0
LINE
8
RIGHT_HID
6
HIDDEN
10
1.337929
20
1.059194
30
0.0
11
2.034768
21
1.059194
31
0.0
0
LINE
8
RIGHT_HID
6
HIDDEN
10
1.337929
20
1.059194
30
0.0
11
2.034768
21
1.059194
31
0.0
0
LINE
8
RIGHT_HID
6
HIDDEN
10
1.337929
20
1.152106
30
0.0
11
2.034768
21
1.152106
31
0.0
0
LINE
8
RIGHT_HID
6
HIDDEN
10
1.337929
20
1.152106
30
0.0
11
2.034768
21
1.152106
31
0.0
0
LINE
8
RIGHT_HID
6
HIDDEN
10
1.848944
20
1.384385
30
0.0
11
1.848944
21
1.245018
31
0.0
0
LINE
8
RIGHT_HID
6
HIDDEN
10
1.523753
20
1.384385
30
0.0
11
1.523753
21
1.245018
31
0.0
0
LINE
8
RIGHT_HID
6
HIDDEN
10
2.034768
20
1.012738
30
0.0
11
1.337929
21
1.012738
31
0.0
0
LINE
8
RIGHT_HID
6
HIDDEN
10
2.034768
20
1.291474
30
0.0
11
1.337929
21
1.291474
31
0.0
0
LINE
8
RIGHT_HID
6
HIDDEN
10
1.802488
20
1.245018
30
0.0
11
1.802488
21
1.384385
31
0.0
0
LINE
8
RIGHT_HID
6
HIDDEN
10
1.895400
20
1.245018
30
0.0
11
1.895400
21
1.384385
31
0.0
0
LINE
8
RIGHT_HID
6
HIDDEN
10
1.477297
20
1.245018
30
0.0
11
1.477297
21
1.384385
31
0.0
0
LINE
8
RIGHT_HID
6
HIDDEN
10
1.570209
20
1.245018
30
0.0
11
1.570209
21
1.384385
31
0.0
0
LINE
8
TOP
10
0.000000
20
0.696838
30
0.0
11
0.000000
21
0.000000
31
0.0
0
LINE
8
TOP
10
1.114941
20
0.696838
30
0.0
11
0.464559
21
0.696838
31
0.0
0
LINE
8
TOP
10
0.464559
20
0.696838
30
0.0
11
0.232279
21
0.696838
31
0.0
0
LINE
8
TOP
10
0.232279
20
0.696838
30
0.0
11
0.092912
21
0.696838
31
0.0
0
LINE
8
TOP
10
0.092912
20
0.696838
30
0.0
11
0.000000
21
0.696838
31
0.0
0
LINE
8
TOP
10
1.114941
20
0.000000
30
0.0
11
0.464559
21
0.000000
31
0.0
0
LINE
8
TOP
10
0.464559
20
0.000000
30
0.0
11
0.232279
21
0.000000
31
0.0
0
LINE
8
TOP
10
0.232279
20
0.000000
30
0.0
11
0.092912
21
0.000000
31
0.0
0
LINE
8
TOP
10
0.092912
20
0.000000
30
0.0
11
0.000000
21
0.000000
31
0.0
0
LINE
8
TOP
10
0.092912
20
0.696838
30
0.0
11
0.092912
21
0.000000
31
0.0
0
LINE
8
TOP
10
1.114941
20
0.696838
30
0.0
11
1.114941
21
0.000000
31
0.0
0
LINE
8
TOP
10
1.022029
20
0.185824
30
0.0
11
1.021799
21
0.190449
31
0.0
0
LINE
8
TOP
10
1.021799
20
0.190449
30
0.0
11
1.021108
21
0.195029
31
0.0
0
LINE
8
TOP
10
1.021108
20
0.195029
30
0.0
11
1.019966
21
0.199517
31
0.0
0
LINE
8
TOP
10
1.019966
20
0.199517
30
0.0
11
1.018382
21
0.203869
31
0.0
0
LINE
8
TOP
10
1.018382
20
0.203869
30
0.0
11
1.016372
21
0.208041
31
0.0
0
LINE
8
TOP
10
1.016372
20
0.208041
30
0.0
11
1.013957
21
0.211993
31
0.0
0
LINE
8
TOP
10
1.013957
20
0.211993
30
0.0
11
1.011161
21
0.215685
31
0.0
0
LINE
8
TOP
10
1.011161
20
0.215685
30
0.0
11
1.008011
21
0.219080
31
0.0
0
LINE
8
TOP
10
1.008011
20
0.219080
30
0.0
11
1.004538
21
0.222144
31
0.0
0
LINE
8
TOP
10
1.004538
20
0.222144
30
0.0
11
1.000778
21
0.224848
31
0.0
0
LINE
8
TOP
10
1.000778
20
0.224848
30
0.0
11
0.996767
21
0.227163
31
0.0
0
LINE
8
TOP
10
0.996767
20
0.227163
30
0.0
11
0.992546
21
0.229068
31
0.0
0
LINE
8
TOP
10
0.992546
20
0.229068
30
0.0
11
0.988156
21
0.230543
31
0.0
0
LINE
8
TOP
10
0.988156
20
0.230543
30
0.0
11
0.983641
21
0.231574
31
0.0
0
LINE
8
TOP
10
0.983641
20
0.231574
30
0.0
11
0.979045
21
0.232150
31
0.0
0
LINE
8
TOP
10
0.979045
20
0.232150
30
0.0
11
0.974415
21
0.232265
31
0.0
0
LINE
8
TOP
10
0.974415
20
0.232265
30
0.0
11
0.969797
21
0.231919
31
0.0
0
LINE
8
TOP
10
0.969797
20
0.231919
30
0.0
11
0.965236
21
0.231115
31
0.0
0
LINE
8
TOP
10
0.965236
20
0.231115
30
0.0
11
0.960778
21
0.229860
31
0.0
0
LINE
8
TOP
10
0.960778
20
0.229860
30
0.0
11
0.956467
21
0.228168
31
0.0
0
LINE
8
TOP
10
0.956467
20
0.228168
30
0.0
11
0.952346
21
0.226056
31
0.0
0
LINE
8
TOP
10
0.952346
20
0.226056
30
0.0
11
0.948455
21
0.223543
31
0.0
0
LINE
8
TOP
10
0.948455
20
0.223543
30
0.0
11
0.944834
21
0.220655
31
0.0
0
LINE
8
TOP
10
0.944834
20
0.220655
30
0.0
11
0.941519
21
0.217422
31
0.0
0
LINE
8
TOP
10
0.941519
20
0.217422
30
0.0
11
0.938542
21
0.213874
31
0.0
0
LINE
8
TOP
10
0.938542
20
0.213874
30
0.0
11
0.935933
21
0.210047
31
0.0
0
LINE
8
TOP
10
0.935933
20
0.210047
30
0.0
11
0.933718
21
0.205980
31
0.0
0
LINE
8
TOP
10
0.933718
20
0.205980
30
0.0
11
0.931919
21
0.201712
31
0.0
0
LINE
8
TOP
10
0.931919
20
0.201712
30
0.0
11
0.930554
21
0.197287
31
0.0
0
LINE
8
TOP
10
0.930554
20
0.197287
30
0.0
11
0.929637
21
0.192747
31
0.0
0
LINE
8
TOP
10
0.929637
20
0.192747
30
0.0
11
0.929175
21
0.188139
31
0.0
0
LINE
8
TOP
10
0.929175
20
0.188139
30
0.0
11
0.929175
21
0.183508
31
0.0
0
LINE
8
TOP
10
0.929175
20
0.183508
30
0.0
11
0.929637
21
0.178900
31
0.0
0
LINE
8
TOP
10
0.929637
20
0.178900
30
0.0
11
0.930554
21
0.174360
31
0.0
0
LINE
8
TOP
10
0.930554
20
0.174360
30
0.0
11
0.931919
21
0.169935
31
0.0
0
LINE
8
TOP
10
0.931919
20
0.169935
30
0.0
11
0.933718
21
0.165667
31
0.0
0
LINE
8
TOP
10
0.933718
20
0.165667
30
0.0
11
0.935933
21
0.161600
31
0.0
0
LINE
8
TOP
10
0.935933
20
0.161600
30
0.0
11
0.938542
21
0.157773
31
0.0
0
LINE
8
TOP
10
0.938542
20
0.157773
30
0.0
11
0.941519
21
0.154226
31
0.0
0
LINE
8
TOP
10
0.941519
20
0.154226
30
0.0
11
0.944834
21
0.150992
31
0.0
0
LINE
8
TOP
10
0.944834
20
0.150992
30
0.0
11
0.948455
21
0.148104
31
0.0
0
LINE
8
TOP
10
0.948455
20
0.148104
30
0.0
11
0.952346
21
0.145592
31
0.0
0
LINE
8
TOP
10
0.952346
20
0.145592
30
0.0
11
0.956467
21
0.143479
31
0.0
0
LINE
8
TOP
10
0.956467
20
0.143479
30
0.0
11
0.960778
21
0.141787
31
0.0
0
LINE
8
TOP
10
0.960778
20
0.141787
30
0.0
11
0.965236
21
0.140532
31
0.0
0
LINE
8
TOP
10
0.965236
20
0.140532
30
0.0
11
0.969797
21
0.139728
31
0.0
0
LINE
8
TOP
10
0.969797
20
0.139728
30
0.0
11
0.974415
21
0.139382
31
0.0
0
LINE
8
TOP
10
0.974415
20
0.139382
30
0.0
11
0.979045
21
0.139498
31
0.0
0
LINE
8
TOP
10
0.979045
20
0.139498
30
0.0
11
0.983641
21
0.140073
31
0.0
0
LINE
8
TOP
10
0.983641
20
0.140073
30
0.0
11
0.988156
21
0.141104
31
0.0
0
LINE
8
TOP
10
0.988156
20
0.141104
30
0.0
11
0.992546
21
0.142579
31
0.0
0
LINE
8
TOP
10
0.992546
20
0.142579
30
0.0
11
0.996767
21
0.144484
31
0.0
0
LINE
8
TOP
10
0.996767
20
0.144484
30
0.0
11
1.000778
21
0.146799
31
0.0
0
LINE
8
TOP
10
1.000778
20
0.146799
30
0.0
11
1.004538
21
0.149503
31
0.0
0
LINE
8
TOP
10
1.004538
20
0.149503
30
0.0
11
1.008011
21
0.152567
31
0.0
0
LINE
8
TOP
10
1.008011
20
0.152567
30
0.0
11
1.011161
21
0.155962
31
0.0
0
LINE
8
TOP
10
1.011161
20
0.155962
30
0.0
11
1.013957
21
0.159654
31
0.0
0
LINE
8
TOP
10
1.013957
20
0.159654
30
0.0
11
1.016372
21
0.163606
31
0.0
0
LINE
8
TOP
10
1.016372
20
0.163606
30
0.0
11
1.018382
21
0.167778
31
0.0
0
LINE
8
TOP
10
1.018382
20
0.167778
30
0.0
11
1.019966
21
0.172130
31
0.0
0
LINE
8
TOP
10
1.019966
20
0.172130
30
0.0
11
1.021108
21
0.176618
31
0.0
0
LINE
8
TOP
10
1.021108
20
0.176618
30
0.0
11
1.021799
21
0.181198
31
0.0
0
LINE
8
TOP
10
1.021799
20
0.181198
30
0.0
11
1.022029
21
0.185824
31
0.0
0
LINE
8
TOP
10
1.022029
20
0.511015
30
0.0
11
1.021799
21
0.515640
31
0.0
0
LINE
8
TOP
10
1.021799
20
0.515640
30
0.0
11
1.021108
21
0.520220
31
0.0
0
LINE
8
TOP
10
1.021108
20
0.520220
30
0.0
11
1.019966
21
0.524708
31
0.0
0
LINE
8
TOP
10
1.019966
20
0.524708
30
0.0
11
1.018382
21
0.529060
31
0.0
0
LINE
8
TOP
10
1.018382
20
0.529060
30
0.0
11
1.016372
21
0.533232
31
0.0
0
LINE
8
TOP
10
1.016372
20
0.533232
30
0.0
11
1.013957
21
0.537184
31
0.0
0
LINE
8
TOP
10
1.013957
20
0.537184
30
0.0
11
1.011161
21
0.540876
31
0.0
0
LINE
8
TOP
10
1.011161
20
0.540876
30
0.0
11
1.008011
21
0.544271
31
0.0
0
LINE
8
TOP
10
1.008011
20
0.544271
30
0.0
11
1.004538
21
0.547335
31
0.0
0
LINE
8
TOP
10
1.004538
20
0.547335
30
0.0
11
1.000778
21
0.550039
31
0.0
0
LINE
8
TOP
10
1.000778
20
0.550039
30
0.0
11
0.996767
21
0.552355
31
0.0
0
LINE
8
TOP
10
0.996767
20
0.552355
30
0.0
11
0.992546
21
0.554259
31
0.0
0
LINE
8
TOP
10
0.992546
20
0.554259
30
0.0
11
0.988156
21
0.555734
31
0.0
0
LINE
8
TOP
10
0.988156
20
0.555734
30
0.0
11
0.983641
21
0.556765
31
0.0
0
LINE
8
TOP
10
0.983641
20
0.556765
30
0.0
11
0.979045
21
0.557341
31
0.0
0
LINE
8
TOP
10
0.979045
20
0.557341
30
0.0
11
0.974415
21
0.557456
31
0.0
0
LINE
8
TOP
10
0.974415
20
0.557456
30
0.0
11
0.969797
21
0.557110
31
0.0
0
LINE
8
TOP
10
0.969797
20
0.557110
30
0.0
11
0.965236
21
0.556306
31
0.0
0
LINE
8
TOP
10
0.965236
20
0.556306
30
0.0
11
0.960778
21
0.555052
31
0.0
0
LINE
8
TOP
10
0.960778
20
0.555052
30
0.0
11
0.956467
21
0.553360
31
0.0
0
LINE
8
TOP
10
0.956467
20
0.553360
30
0.0
11
0.952346
21
0.551247
31
0.0
0
LINE
8
TOP
10
0.952346
20
0.551247
30
0.0
11
0.948455
21
0.548734
31
0.0
0
LINE
8
TOP
10
0.948455
20
0.548734
30
0.0
11
0.944834
21
0.545846
31
0.0
0
LINE
8
TOP
10
0.944834
20
0.545846
30
0.0
11
0.941519
21
0.542613
31
0.0
0
LINE
8
TOP
10
0.941519
20
0.542613
30
0.0
11
0.938542
21
0.539065
31
0.0
0
LINE
8
TOP
10
0.938542
20
0.539065
30
0.0
11
0.935933
21
0.535238
31
0.0
0
LINE
8
TOP
10
0.935933
20
0.535238
30
0.0
11
0.933718
21
0.531171
31
0.0
0
LINE
8
TOP
10
0.933718
20
0.531171
30
0.0
11
0.931919
21
0.526904
31
0.0
0
LINE
8
TOP
10
0.931919
20
0.526904
30
0.0
11
0.930554
21
0.522478
31
0.0
0
LINE
8
TOP
10
0.930554
20
0.522478
30
0.0
11
0.929637
21
0.517939
31
0.0
0
LINE
8
TOP
10
0.929637
20
0.517939
30
0.0
11
0.929175
21
0.513330
31
0.0
0
LINE
8
TOP
10
0.929175
20
0.513330
30
0.0
11
0.929175
21
0.508699
31
0.0
0
LINE
8
TOP
10
0.929175
20
0.508699
30
0.0
11
0.929637
21
0.504091
31
0.0
0
LINE
8
TOP
10
0.929637
20
0.504091
30
0.0
11
0.930554
21
0.499551
31
0.0
0
LINE
8
TOP
10
0.930554
20
0.499551
30
0.0
11
0.931919
21
0.495126
31
0.0
0
LINE
8
TOP
10
0.931919
20
0.495126
30
0.0
11
0.933718
21
0.490858
31
0.0
0
LINE
8
TOP
10
0.933718
20
0.490858
30
0.0
11
0.935933
21
0.486791
31
0.0
0
LINE
8
TOP
10
0.935933
20
0.486791
30
0.0
11
0.938542
21
0.482964
31
0.0
0
LINE
8
TOP
10
0.938542
20
0.482964
30
0.0
11
0.941519
21
0.479417
31
0.0
0
LINE
8
TOP
10
0.941519
20
0.479417
30
0.0
11
0.944834
21
0.476183
31
0.0
0
LINE
8
TOP
10
0.944834
20
0.476183
30
0.0
11
0.948455
21
0.473295
31
0.0
0
LINE
8
TOP
10
0.948455
20
0.473295
30
0.0
11
0.952346
21
0.470783
31
0.0
0
LINE
8
TOP
10
0.952346
20
0.470783
30
0.0
11
0.956467
21
0.468670
31
0.0
0
LINE
8
TOP
10
0.956467
20
0.468670
30
0.0
11
0.960778
21
0.466978
31
0.0
0
LINE
8
TOP
10
0.960778
20
0.466978
30
0.0
11
0.965236
21
0.465724
31
0.0
0
LINE
8
TOP
10
0.965236
20
0.465724
30
0.0
11
0.969797
21
0.464919
31
0.0
0
LINE
8
TOP
10
0.969797
20
0.464919
30
0.0
11
0.974415
21
0.464573
31
0.0
0
LINE
8
TOP
10
0.974415
20
0.464573
30
0.0
11
0.979045
21
0.464689
31
0.0
0
LINE
8
TOP
10
0.979045
20
0.464689
30
0.0
11
0.983641
21
0.465265
31
0.0
0
LINE
8
TOP
10
0.983641
20
0.465265
30
0.0
11
0.988156
21
0.466295
31
0.0
0
LINE
8
TOP
10
0.988156
20
0.466295
30
0.0
11
0.992546
21
0.467770
31
0.0
0
LINE
8
TOP
10
0.992546
20
0.467770
30
0.0
11
0.996767
21
0.469675
31
0.0
0
LINE
8
TOP
10
0.996767
20
0.469675
30
0.0
11
1.000778
21
0.471991
31
0.0
0
LINE
8
TOP
10
1.000778
20
0.471991
30
0.0
11
1.004538
21
0.474694
31
0.0
0
LINE
8
TOP
10
1.004538
20
0.474694
30
0.0
11
1.008011
21
0.477758
31
0.0
0
LINE
8
TOP
10
1.008011
20
0.477758
30
0.0
11
1.011161
21
0.481153
31
0.0
0
LINE
8
TOP
10
1.011161
20
0.481153
30
0.0
11
1.013957
21
0.484845
31
0.0
0
LINE
8
TOP
10
1.013957
20
0.484845
30
0.0
11
1.016372
21
0.488797
31
0.0
0
LINE
8
TOP
10
1.016372
20
0.488797
30
0.0
11
1.018382
21
0.492970
31
0.0
0
LINE
8
TOP
10
1.018382
20
0.492970
30
0.0
11
1.019966
21
0.497322
31
0.0
0
LINE
8
TOP
10
1.019966
20
0.497322
30
0.0
11
1.021108
21
0.501810
31
0.0
0
LINE
8
TOP
10
1.021108
20
0.501810
30
0.0
11
1.021799
21
0.506389
31
0.0
0
LINE
8
TOP
10
1.021799
20
0.506389
30
0.0
11
1.022029
21
0.511015
31
0.0
0
LINE
8
TOP
10
0.232279
20
0.696838
30
0.0
11
0.232279
21
0.000000
31
0.0
0
LINE
8
TOP
10
0.232279
20
0.696838
30
0.0
11
0.232279
21
0.000000
31
0.0
0
LINE
8
TOP
10
0.464559
20
0.696838
30
0.0
11
0.464559
21
0.000000
31
0.0
0
LINE
8
TOP_HID
6
HIDDEN
10
0.000000
20
0.696838
30
0.0
11
0.000000
21
0.000000
31
0.0
0
LINE
8
TOP_HID
6
HIDDEN
10
0.000000
20
0.000000
30
0.0
11
0.464559
21
0.000000
31
0.0
0
LINE
8
TOP_HID
6
HIDDEN
10
0.000000
20
0.696838
30
0.0
11
0.464559
21
0.696838
31
0.0
0
LINE
8
TOP_HID
6
HIDDEN
10
0.464559
20
0.696838
30
0.0
11
0.696838
21
0.696838
31
0.0
0
LINE
8
TOP_HID
6
HIDDEN
10
0.696838
20
0.696838
30
0.0
11
0.696838
21
0.000000
31
0.0
0
LINE
8
TOP_HID
6
HIDDEN
10
0.464559
20
0.000000
30
0.0
11
0.696838
21
0.000000
31
0.0
0
LINE
8
TOP_HID
6
HIDDEN
10
0.696838
20
0.696838
30
0.0
11
1.114941
21
0.696838
31
0.0
0
LINE
8
TOP_HID
6
HIDDEN
10
0.326226
20
0.696838
30
0.0
11
0.604961
21
0.696838
31
0.0
0
LINE
8
TOP_HID
6
HIDDEN
10
0.604961
20
0.696838
30
0.0
11
0.326226
21
0.696838
31
0.0
0
LINE
8
TOP_HID
6
HIDDEN
10
0.696838
20
0.000000
30
0.0
11
1.114941
21
0.000000
31
0.0
0
LINE
8
TOP_HID
6
HIDDEN
10
0.326226
20
0.000000
30
0.0
11
0.604961
21
0.000000
31
0.0
0
LINE
8
TOP_HID
6
HIDDEN
10
0.604961
20
0.000000
30
0.0
11
0.326226
21
0.000000
31
0.0
0
LINE
8
TOP_HID
6
HIDDEN
10
0.696838
20
0.696838
30
0.0
11
0.696838
21
0.000000
31
0.0
0
LINE
8
TOP_HID
6
HIDDEN
10
1.114941
20
0.696838
30
0.0
11
1.114941
21
0.000000
31
0.0
0
LINE
8
TOP_HID
6
HIDDEN
10
1.022029
20
0.185824
30
0.0
11
1.021799
21
0.190449
31
0.0
0
LINE
8
TOP_HID
6
HIDDEN
10
1.021799
20
0.190449
30
0.0
11
1.021108
21
0.195029
31
0.0
0
LINE
8
TOP_HID
6
HIDDEN
10
1.021108
20
0.195029
30
0.0
11
1.019966
21
0.199517
31
0.0
0
LINE
8
TOP_HID
6
HIDDEN
10
1.019966
20
0.199517
30
0.0
11
1.018382
21
0.203869
31
0.0
0
LINE
8
TOP_HID
6
HIDDEN
10
1.018382
20
0.203869
30
0.0
11
1.016372
21
0.208041
31
0.0
0
LINE
8
TOP_HID
6
HIDDEN
10
1.016372
20
0.208041
30
0.0
11
1.013957
21
0.211993
31
0.0
0
LINE
8
TOP_HID
6
HIDDEN
10
1.013957
20
0.211993
30
0.0
11
1.011161
21
0.215685
31
0.0
0
LINE
8
TOP_HID
6
HIDDEN
10
1.011161
20
0.215685
30
0.0
11
1.008011
21
0.219080
31
0.0
0
LINE
8
TOP_HID
6
HIDDEN
10
1.008011
20
0.219080
30
0.0
11
1.004538
21
0.222144
31
0.0
0
LINE
8
TOP_HID
6
HIDDEN
10
1.004538
20
0.222144
30
0.0
11
1.000778
21
0.224848
31
0.0
0
LINE
8
TOP_HID
6
HIDDEN
10
1.000778
20
0.224848
30
0.0
11
0.996767
21
0.227163
31
0.0
0
LINE
8
TOP_HID
6
HIDDEN
10
0.996767
20
0.227163
30
0.0
11
0.992546
21
0.229068
31
0.0
0
LINE
8
TOP_HID
6
HIDDEN
10
0.992546
20
0.229068
30
0.0
11
0.988156
21
0.230543
31
0.0
0
LINE
8
TOP_HID
6
HIDDEN
10
0.988156
20
0.230543
30
0.0
11
0.983641
21
0.231574
31
0.0
0
LINE
8
TOP_HID
6
HIDDEN
10
0.983641
20
0.231574
30
0.0
11
0.979045
21
0.232150
31
0.0
0
LINE
8
TOP_HID
6
HIDDEN
10
0.979045
20
0.232150
30
0.0
11
0.974415
21
0.232265
31
0.0
0
LINE
8
TOP_HID
6
HIDDEN
10
0.974415
20
0.232265
30
0.0
11
0.969797
21
0.231919
31
0.0
0
LINE
8
TOP_HID
6
HIDDEN
10
0.969797
20
0.231919
30
0.0
11
0.965236
21
0.231115
31
0.0
0
LINE
8
TOP_HID
6
HIDDEN
10
0.965236
20
0.231115
30
0.0
11
0.960778
21
0.229860
31
0.0
0
LINE
8
TOP_HID
6
HIDDEN
10
0.960778
20
0.229860
30
0.0
11
0.956467
21
0.228168
31
0.0
0
LINE
8
TOP_HID
6
HIDDEN
10
0.956467
20
0.228168
30
0.0
11
0.952346
21
0.226056
31
0.0
0
LINE
8
TOP_HID
6
HIDDEN
10
0.952346
20
0.226056
30
0.0
11
0.948455
21
0.223543
31
0.0
0
LINE
8
TOP_HID
6
HIDDEN
10
0.948455
20
0.223543
30
0.0
11
0.944834
21
0.220655
31
0.0
0
LINE
8
TOP_HID
6
HIDDEN
10
0.944834
20
0.220655
30
0.0
11
0.941519
21
0.217422
31
0.0
0
LINE
8
TOP_HID
6
HIDDEN
10
0.941519
20
0.217422
30
0.0
11
0.938542
21
0.213874
31
0.0
0
LINE
8
TOP_HID
6
HIDDEN
10
0.938542
20
0.213874
30
0.0
11
0.935933
21
0.210047
31
0.0
0
LINE
8
TOP_HID
6
HIDDEN
10
0.935933
20
0.210047
30
0.0
11
0.933718
21
0.205980
31
0.0
0
LINE
8
TOP_HID
6
HIDDEN
10
0.933718
20
0.205980
30
0.0
11
0.931919
21
0.201712
31
0.0
0
LINE
8
TOP_HID
6
HIDDEN
10
0.931919
20
0.201712
30
0.0
11
0.930554
21
0.197287
31
0.0
0
LINE
8
TOP_HID
6
HIDDEN
10
0.930554
20
0.197287
30
0.0
11
0.929637
21
0.192747
31
0.0
0
LINE
8
TOP_HID
6
HIDDEN
10
0.929637
20
0.192747
30
0.0
11
0.929175
21
0.188139
31
0.0
0
LINE
8
TOP_HID
6
HIDDEN
10
0.929175
20
0.188139
30
0.0
11
0.929175
21
0.183508
31
0.0
0
LINE
8
TOP_HID
6
HIDDEN
10
0.929175
20
0.183508
30
0.0
11
0.929637
21
0.178900
31
0.0
0
LINE
8
TOP_HID
6
HIDDEN
10
0.929637
20
0.178900
30
0.0
11
0.930554
21
0.174360
31
0.0
0
LINE
8
TOP_HID
6
HIDDEN
10
0.930554
20
0.174360
30
0.0
11
0.931919
21
0.169935
31
0.0
0
LINE
8
TOP_HID
6
HIDDEN
10
0.931919
20
0.169935
30
0.0
11
0.933718
21
0.165667
31
0.0
0
LINE
8
TOP_HID
6
HIDDEN
10
0.933718
20
0.165667
30
0.0
11
0.935933
21
0.161600
31
0.0
0
LINE
8
TOP_HID
6
HIDDEN
10
0.935933
20
0.161600
30
0.0
11
0.938542
21
0.157773
31
0.0
0
LINE
8
TOP_HID
6
HIDDEN
10
0.938542
20
0.157773
30
0.0
11
0.941519
21
0.154226
31
0.0
0
LINE
8
TOP_HID
6
HIDDEN
10
0.941519
20
0.154226
30
0.0
11
0.944834
21
0.150992
31
0.0
0
LINE
8
TOP_HID
6
HIDDEN
10
0.944834
20
0.150992
30
0.0
11
0.948455
21
0.148104
31
0.0
0
LINE
8
TOP_HID
6
HIDDEN
10
0.948455
20
0.148104
30
0.0
11
0.952346
21
0.145592
31
0.0
0
LINE
8
TOP_HID
6
HIDDEN
10
0.952346
20
0.145592
30
0.0
11
0.956467
21
0.143479
31
0.0
0
LINE
8
TOP_HID
6
HIDDEN
10
0.956467
20
0.143479
30
0.0
11
0.960778
21
0.141787
31
0.0
0
LINE
8
TOP_HID
6
HIDDEN
10
0.960778
20
0.141787
30
0.0
11
0.965236
21
0.140532
31
0.0
0
LINE
8
TOP_HID
6
HIDDEN
10
0.965236
20
0.140532
30
0.0
11
0.969797
21
0.139728
31
0.0
0
LINE
8
TOP_HID
6
HIDDEN
10
0.969797
20
0.139728
30
0.0
11
0.974415
21
0.139382
31
0.0
0
LINE
8
TOP_HID
6
HIDDEN
10
0.974415
20
0.139382
30
0.0
11
0.979045
21
0.139498
31
0.0
0
LINE
8
TOP_HID
6
HIDDEN
10
0.979045
20
0.139498
30
0.0
11
0.983641
21
0.140073
31
0.0
0
LINE
8
TOP_HID
6
HIDDEN
10
0.983641
20
0.140073
30
0.0
11
0.988156
21
0.141104
31
0.0
0
LINE
8
TOP_HID
6
HIDDEN
10
0.988156
20
0.141104
30
0.0
11
0.992546
21
0.142579
31
0.0
0
LINE
8
TOP_HID
6
HIDDEN
10
0.992546
20
0.142579
30
0.0
11
0.996767
21
0.144484
31
0.0
0
LINE
8
TOP_HID
6
HIDDEN
10
0.996767
20
0.144484
30
0.0
11
1.000778
21
0.146799
31
0.0
0
LINE
8
TOP_HID
6
HIDDEN
10
1.000778
20
0.146799
30
0.0
11
1.004538
21
0.149503
31
0.0
0
LINE
8
TOP_HID
6
HIDDEN
10
1.004538
20
0.149503
30
0.0
11
1.008011
21
0.152567
31
0.0
0
LINE
8
TOP_HID
6
HIDDEN
10
1.008011
20
0.152567
30
0.0
11
1.011161
21
0.155962
31
0.0
0
LINE
8
TOP_HID
6
HIDDEN
10
1.011161
20
0.155962
30
0.0
11
1.013957
21
0.159654
31
0.0
0
LINE
8
TOP_HID
6
HIDDEN
10
1.013957
20
0.159654
30
0.0
11
1.016372
21
0.163606
31
0.0
0
LINE
8
TOP_HID
6
HIDDEN
10
1.016372
20
0.163606
30
0.0
11
1.018382
21
0.167778
31
0.0
0
LINE
8
TOP_HID
6
HIDDEN
10
1.018382
20
0.167778
30
0.0
11
1.019966
21
0.172130
31
0.0
0
LINE
8
TOP_HID
6
HIDDEN
10
1.019966
20
0.172130
30
0.0
11
1.021108
21
0.176618
31
0.0
0
LINE
8
TOP_HID
6
HIDDEN
10
1.021108
20
0.176618
30
0.0
11
1.021799
21
0.181198
31
0.0
0
LINE
8
TOP_HID
6
HIDDEN
10
1.021799
20
0.181198
30
0.0
11
1.022029
21
0.185824
31
0.0
0
LINE
8
TOP_HID
6
HIDDEN
10
1.022029
20
0.511015
30
0.0
11
1.021799
21
0.515640
31
0.0
0
LINE
8
TOP_HID
6
HIDDEN
10
1.021799
20
0.515640
30
0.0
11
1.021108
21
0.520220
31
0.0
0
LINE
8
TOP_HID
6
HIDDEN
10
1.021108
20
0.520220
30
0.0
11
1.019966
21
0.524708
31
0.0
0
LINE
8
TOP_HID
6
HIDDEN
10
1.019966
20
0.524708
30
0.0
11
1.018382
21
0.529060
31
0.0
0
LINE
8
TOP_HID
6
HIDDEN
10
1.018382
20
0.529060
30
0.0
11
1.016372
21
0.533232
31
0.0
0
LINE
8
TOP_HID
6
HIDDEN
10
1.016372
20
0.533232
30
0.0
11
1.013957
21
0.537184
31
0.0
0
LINE
8
TOP_HID
6
HIDDEN
10
1.013957
20
0.537184
30
0.0
11
1.011161
21
0.540876
31
0.0
0
LINE
8
TOP_HID
6
HIDDEN
10
1.011161
20
0.540876
30
0.0
11
1.008011
21
0.544271
31
0.0
0
LINE
8
TOP_HID
6
HIDDEN
10
1.008011
20
0.544271
30
0.0
11
1.004538
21
0.547335
31
0.0
0
LINE
8
TOP_HID
6
HIDDEN
10
1.004538
20
0.547335
30
0.0
11
1.000778
21
0.550039
31
0.0
0
LINE
8
TOP_HID
6
HIDDEN
10
1.000778
20
0.550039
30
0.0
11
0.996767
21
0.552355
31
0.0
0
LINE
8
TOP_HID
6
HIDDEN
10
0.996767
20
0.552355
30
0.0
11
0.992546
21
0.554259
31
0.0
0
LINE
8
TOP_HID
6
HIDDEN
10
0.992546
20
0.554259
30
0.0
11
0.988156
21
0.555734
31
0.0
0
LINE
8
TOP_HID
6
HIDDEN
10
0.988156
20
0.555734
30
0.0
11
0.983641
21
0.556765
31
0.0
0
LINE
8
TOP_HID
6
HIDDEN
10
0.983641
20
0.556765
30
0.0
11
0.979045
21
0.557341
31
0.0
0
LINE
8
TOP_HID
6
HIDDEN
10
0.979045
20
0.557341
30
0.0
11
0.974415
21
0.557456
31
0.0
0
LINE
8
TOP_HID
6
HIDDEN
10
0.974415
20
0.557456
30
0.0
11
0.969797
21
0.557110
31
0.0
0
LINE
8
TOP_HID
6
HIDDEN
10
0.969797
20
0.557110
30
0.0
11
0.965236
21
0.556306
31
0.0
0
LINE
8
TOP_HID
6
HIDDEN
10
0.965236
20
0.556306
30
0.0
11
0.960778
21
0.555052
31
0.0
0
LINE
8
TOP_HID
6
HIDDEN
10
0.960778
20
0.555052
30
0.0
11
0.956467
21
0.553360
31
0.0
0
LINE
8
TOP_HID
6
HIDDEN
10
0.956467
20
0.553360
30
0.0
11
0.952346
21
0.551247
31
0.0
0
LINE
8
TOP_HID
6
HIDDEN
10
0.952346
20
0.551247
30
0.0
11
0.948455
21
0.548734
31
0.0
0
LINE
8
TOP_HID
6
HIDDEN
10
0.948455
20
0.548734
30
0.0
11
0.944834
21
0.545846
31
0.0
0
LINE
8
TOP_HID
6
HIDDEN
10
0.944834
20
0.545846
30
0.0
11
0.941519
21
0.542613
31
0.0
0
LINE
8
TOP_HID
6
HIDDEN
10
0.941519
20
0.542613
30
0.0
11
0.938542
21
0.539065
31
0.0
0
LINE
8
TOP_HID
6
HIDDEN
10
0.938542
20
0.539065
30
0.0
11
0.935933
21
0.535238
31
0.0
0
LINE
8
TOP_HID
6
HIDDEN
10
0.935933
20
0.535238
30
0.0
11
0.933718
21
0.531171
31
0.0
0
LINE
8
TOP_HID
6
HIDDEN
10
0.933718
20
0.531171
30
0.0
11
0.931919
21
0.526904
31
0.0
0
LINE
8
TOP_HID
6
HIDDEN
10
0.931919
20
0.526904
30
0.0
11
0.930554
21
0.522478
31
0.0
0
LINE
8
TOP_HID
6
HIDDEN
10
0.930554
20
0.522478
30
0.0
11
0.929637
21
0.517939
31
0.0
0
LINE
8
TOP_HID
6
HIDDEN
10
0.929637
20
0.517939
30
0.0
11
0.929175
21
0.513330
31
0.0
0
LINE
8
TOP_HID
6
HIDDEN
10
0.929175
20
0.513330
30
0.0
11
0.929175
21
0.508699
31
0.0
0
LINE
8
TOP_HID
6
HIDDEN
10
0.929175
20
0.508699
30
0.0
11
0.929637
21
0.504091
31
0.0
0
LINE
8
TOP_HID
6
HIDDEN
10
0.929637
20
0.504091
30
0.0
11
0.930554
21
0.499551
31
0.0
0
LINE
8
TOP_HID
6
HIDDEN
10
0.930554
20
0.499551
30
0.0
11
0.931919
21
0.495126
31
0.0
0
LINE
8
TOP_HID
6
HIDDEN
10
0.931919
20
0.495126
30
0.0
11
0.933718
21
0.490858
31
0.0
0
LINE
8
TOP_HID
6
HIDDEN
10
0.933718
20
0.490858
30
0.0
11
0.935933
21
0.486791
31
0.0
0
LINE
8
TOP_HID
6
HIDDEN
10
0.935933
20
0.486791
30
0.0
11
0.938542
21
0.482964
31
0.0
0
LINE
8
TOP_HID
6
HIDDEN
10
0.938542
20
0.482964
30
0.0
11
0.941519
21
0.479417
31
0.0
0
LINE
8
TOP_HID
6
HIDDEN
10
0.941519
20
0.479417
30
0.0
11
0.944834
21
0.476183
31
0.0
0
LINE
8
TOP_HID
6
HIDDEN
10
0.944834
20
0.476183
30
0.0
11
0.948455
21
0.473295
31
0.0
0
LINE
8
TOP_HID
6
HIDDEN
10
0.948455
20
0.473295
30
0.0
11
0.952346
21
0.470783
31
0.0
0
LINE
8
TOP_HID
6
HIDDEN
10
0.952346
20
0.470783
30
0.0
11
0.956467
21
0.468670
31
0.0
0
LINE
8
TOP_HID
6
HIDDEN
10
0.956467
20
0.468670
30
0.0
11
0.960778
21
0.466978
31
0.0
0
LINE
8
TOP_HID
6
HIDDEN
10
0.960778
20
0.466978
30
0.0
11
0.965236
21
0.465724
31
0.0
0
LINE
8
TOP_HID
6
HIDDEN
10
0.965236
20
0.465724
30
0.0
11
0.969797
21
0.464919
31
0.0
0
LINE
8
TOP_HID
6
HIDDEN
10
0.969797
20
0.464919
30
0.0
11
0.974415
21
0.464573
31
0.0
0
LINE
8
TOP_HID
6
HIDDEN
10
0.974415
20
0.464573
30
0.0
11
0.979045
21
0.464689
31
0.0
0
LINE
8
TOP_HID
6
HIDDEN
10
0.979045
20
0.464689
30
0.0
11
0.983641
21
0.465265
31
0.0
0
LINE
8
TOP_HID
6
HIDDEN
10
0.983641
20
0.465265
30
0.0
11
0.988156
21
0.466295
31
0.0
0
LINE
8
TOP_HID
6
HIDDEN
10
0.988156
20
0.466295
30
0.0
11
0.992546
21
0.467770
31
0.0
0
LINE
8
TOP_HID
6
HIDDEN
10
0.992546
20
0.467770
30
0.0
11
0.996767
21
0.469675
31
0.0
0
LINE
8
TOP_HID
6
HIDDEN
10
0.996767
20
0.469675
30
0.0
11
1.000778
21
0.471991
31
0.0
0
LINE
8
TOP_HID
6
HIDDEN
10
1.000778
20
0.471991
30
0.0
11
1.004538
21
0.474694
31
0.0
0
LINE
8
TOP_HID
6
HIDDEN
10
1.004538
20
0.474694
30
0.0
11
1.008011
21
0.477758
31
0.0
0
LINE
8
TOP_HID
6
HIDDEN
10
1.008011
20
0.477758
30
0.0
11
1.011161
21
0.481153
31
0.0
0
LINE
8
TOP_HID
6
HIDDEN
10
1.011161
20
0.481153
30
0.0
11
1.013957
21
0.484845
31
0.0
0
LINE
8
TOP_HID
6
HIDDEN
10
1.013957
20
0.484845
30
0.0
11
1.016372
21
0.488797
31
0.0
0
LINE
8
TOP_HID
6
HIDDEN
10
1.016372
20
0.488797
30
0.0
11
1.018382
21
0.492970
31
0.0
0
LINE
8
TOP_HID
6
HIDDEN
10
1.018382
20
0.492970
30
0.0
11
1.019966
21
0.497322
31
0.0
0
LINE
8
TOP_HID
6
HIDDEN
10
1.019966
20
0.497322
30
0.0
11
1.021108
21
0.501810
31
0.0
0
LINE
8
TOP_HID
6
HIDDEN
10
1.021108
20
0.501810
30
0.0
11
1.021799
21
0.506389
31
0.0
0
LINE
8
TOP_HID
6
HIDDEN
10
1.021799
20
0.506389
30
0.0
11
1.022029
21
0.511015
31
0.0
0
LINE
8
TOP_HID
6
HIDDEN
10
0.092912
20
0.696838
30
0.0
11
0.092912
21
0.000000
31
0.0
0
LINE
8
TOP_HID
6
HIDDEN
10
0.326226
20
0.696838
30
0.0
11
0.326226
21
0.000000
31
0.0
0
LINE
8
TOP_HID
6
HIDDEN
10
0.464559
20
0.696838
30
0.0
11
0.464559
21
0.000000
31
0.0
0
LINE
8
TOP_HID
6
HIDDEN
10
0.604961
20
0.000000
30
0.0
11
0.604961
21
0.696838
31
0.0
0
ENDSEC
0
EOF
