0
SECTION
2
HEADER
9
$ACADVER
1
AC1009
0
ENDSEC
0
SECTION
2
TABLES
0
TABLE
2
LTYPE
70
3
0
LTYPE
2
CONTINUOUS
70
0
3
Solid line
72
65
73
0
40
0.0
0
LTYPE
2
HIDDEN
70
0
3
__ __ __ __ __
72
65
73
2
40
9.0
49
6.0
49
-3.0
0
LTYPE
2
CENTER
70
0
3
___ _ ___ _ ___
72
65
73
4
40
21.0
49
12.0
49
-3.0
49
3.0
49
-3.0
0
ENDTAB
0
TABLE
2
LAYER
70
7
0
LAYER
2
0
70
0
62
7
6
CONTINUOUS
0
LAYER
2
FRONT
70
0
62
7
6
CONTINUOUS
0
LAYER
2
FRONT_HID
70
0
62
7
6
HIDDEN
0
LAYER
2
RIGHT
70
0
62
7
6
CONTINUOUS
0
LAYER
2
RIGHT_HID
70
0
62
7
6
HIDDEN
0
LAYER
2
TOP
70
0
62
7
6
CONTINUOUS
0
LAYER
2
TOP_HID
70
0
62
7
6
HIDDEN
0
ENDTAB
0
ENDSEC
0
SECTION
2
ENTITIES
0
LINE
8
FRONT
10
0.000000
20
1.575603
30
0.0
11
0.000000
21
2.075603
31
0.0
0
LINE
8
FRONT
10
0.369503
20
1.575603
30
0.0
11
0.369503
21
2.075603
31
0.0
0
LINE
8
FRONT
10
0.369503
20
2.075603
30
0.0
11
0.000000
21
2.075603
31
0.0
0
LINE
8
FRONT
10
0.369503
20
1.575603
30
0.0
11
0.000000
21
1.575603
31
0.0
0
LINE
8
FRONT
10
1.478017
20
1.575603
30
0.0
11
1.108513
21
1.575603
31
0.0
0
LINE
8
FRONT
10
1.108513
20
1.575603
30
0.0
11
0.369503
21
1.575603
31
0.0
0
LINE
8
FRONT
10
1.478017
20
2.075603
30
0.0
11
1.108513
21
2.075603
31
0.0
0
LINE
8
FRONT
10
1.108513
20
2.075603
30
0.0
11
0.369503
21
2.075603
31
0.0
0
LINE
8
FRONT
10
1.108513
20
1.575603
30
0.0
11
1.108513
21
2.075603
31
0.0
0
LINE
8
FRONT
10
1.478017
20
1.575603
30
0.0
11
1.478017
21
2.075603
31
0.0
0
LINE
8
FRONT
10
1.339008
20
2.075603
30
0.0
11
1.339008
21
2.325603
31
0.0
0
LINE
8
FRONT
10
1.339008
20
2.325603
30
0.0
11
0.139008
21
2.325603
31
0.0
0
LINE
8
FRONT
10
0.139008
20
2.325603
30
0.0
11
0.139008
21
2.075603
31
0.0
0
LINE
8
FRONT_HID
6
HIDDEN
10
0.000000
20
2.075603
30
0.0
11
0.369503
21
2.075603
31
0.0
0
LINE
8
FRONT_HID
6
HIDDEN
10
0.369503
20
1.575603
30
0.0
11
0.369503
21
2.075603
31
0.0
0
LINE
8
FRONT_HID
6
HIDDEN
10
0.000000
20
1.575603
30
0.0
11
0.369503
21
1.575603
31
0.0
0
LINE
8
FRONT_HID
6
HIDDEN
10
0.369503
20
2.075603
30
0.0
11
1.108513
21
2.075603
31
0.0
0
LINE
8
FRONT_HID
6
HIDDEN
10
1.108513
20
1.575603
30
0.0
11
1.108513
21
2.075603
31
0.0
0
LINE
8
FRONT_HID
6
HIDDEN
10
0.369503
20
1.575603
30
0.0
11
1.108513
21
1.575603
31
0.0
0
LINE
8
FRONT_HID
6
HIDDEN
10
1.108513
20
1.575603
30
0.0
11
1.478017
21
1.575603
31
0.0
0
LINE
8
FRONT_HID
6
HIDDEN
10
1.108513
20
2.075603
30
0.0
11
1.478017
21
2.075603
31
0.0
0
LINE
8
FRONT_HID
6
HIDDEN
10
1.339008
20
2.075603
30
0.0
11
0.139008
21
2.075603
31
0.0
0
LINE
8
FRONT_HID
6
HIDDEN
10
0.139008
20
2.075603
30
0.0
11
1.339008
21
2.075603
31
0.0
0
LINE
8
FRONT_HID
6
HIDDEN
10
0.139008
20
2.325603
30
0.0
11
1.339008
21
2.325603
31
0.0
0
LINE
8
RIGHT
10
3.053620
20
1.575603
30
0.0
11
3.053620
21
2.075603
31
0.0
0
LINE
8
RIGHT
10
3.053620
20
1.575603
30
0.0
11
2.413620
21
1.575603
31
0.0
0
LINE
8
RIGHT
10
2.413620
20
1.575603
30
0.0
11
1.773620
21
1.575603
31
0.0
0
LINE
8
RIGHT
10
3.053620
20
2.075603
30
0.0
11
2.413620
21
2.075603
31
0.0
0
LINE
8
RIGHT
10
2.413620
20
2.075603
30
0.0
11
1.773620
21
2.075603
31
0.0
0
LINE
8
RIGHT
10
1.773620
20
1.575603
30
0.0
11
1.773620
21
2.075603
31
0.0
0
LINE
8
RIGHT
10
2.413620
20
1.575603
30
0.0
11
2.413620
21
2.075603
31
0.0
0
LINE
8
RIGHT
10
2.413620
20
2.325603
30
0.0
11
1.813620
21
2.325603
31
0.0
0
LINE
8
RIGHT
10
3.013620
20
2.325603
30
0.0
11
2.413620
21
2.325603
31
0.0
0
LINE
8
RIGHT
10
2.413620
20
2.075603
30
0.0
11
2.413620
21
2.325603
31
0.0
0
LINE
8
RIGHT
10
3.013620
20
2.325603
30
0.0
11
3.013620
21
2.075603
31
0.0
0
LINE
8
RIGHT
10
1.813620
20
2.325603
30
0.0
11
1.813620
21
2.075603
31
0.0
0
LINE
8
RIGHT_HID
6
HIDDEN
10
2.413620
20
1.575603
30
0.0
11
2.413620
21
2.075603
31
0.0
0
LINE
8
RIGHT_HID
6
HIDDEN
10
2.413620
20
2.075603
30
0.0
11
3.053620
21
2.075603
31
0.0
0
LINE
8
RIGHT_HID
6
HIDDEN
10
3.053620
20
1.575603
30
0.0
11
3.053620
21
2.075603
31
0.0
0
LINE
8
RIGHT_HID
6
HIDDEN
10
2.413620
20
1.575603
30
0.0
11
3.053620
21
1.575603
31
0.0
0
LINE
8
RIGHT_HID
6
HIDDEN
10
1.773620
20
1.575603
30
0.0
11
1.773620
21
2.075603
31
0.0
0
LINE
8
RIGHT_HID
6
HIDDEN
10
1.773620
20
2.075603
30
0.0
11
2.413620
21
2.075603
31
0.0
0
LINE
8
RIGHT_HID
6
HIDDEN
10
1.773620
20
1.575603
30
0.0
11
2.413620
21
1.575603
31
0.0
0
LINE
8
RIGHT_HID
6
HIDDEN
10
2.413620
20
2.075603
30
0.0
11
1.813620
21
2.075603
31
0.0
0
LINE
8
RIGHT_HID
6
HIDDEN
10
1.813620
20
2.075603
30
0.0
11
3.013620
21
2.075603
31
0.0
0
LINE
8
RIGHT_HID
6
HIDDEN
10
3.013620
20
2.075603
30
0.0
11
2.413620
21
2.075603
31
0.0
0
LINE
8
RIGHT_HID
6
HIDDEN
10
1.813620
20
2.325603
30
0.0
11
3.013620
21
2.325603
31
0.0
0
LINE
8
TOP
10
0.000000
20
0.640000
30
0.0
11
0.369503
21
0.000000
31
0.0
0
LINE
8
TOP
10
0.369503
20
1.280000
30
0.0
11
0.000000
21
0.640000
31
0.0
0
LINE
8
TOP
10
0.369503
20
0.000000
30
0.0
11
1.108513
21
0.000000
31
0.0
0
LINE
8
TOP
10
1.108513
20
0.000000
30
0.0
11
1.478017
21
0.640000
31
0.0
0
LINE
8
TOP
10
1.478017
20
0.640000
30
0.0
11
1.108513
21
1.280000
31
0.0
0
LINE
8
TOP
10
1.108513
20
1.280000
30
0.0
11
0.369503
21
1.280000
31
0.0
0
LINE
8
TOP
10
1.339008
20
0.640000
30
0.0
11
1.336027
21
0.699741
31
0.0
0
LINE
8
TOP
10
1.336027
20
0.699741
30
0.0
11
1.327112
21
0.758888
31
0.0
0
LINE
8
TOP
10
1.327112
20
0.758888
30
0.0
11
1.312352
21
0.816853
31
0.0
0
LINE
8
TOP
10
1.312352
20
0.816853
30
0.0
11
1.291894
21
0.873061
31
0.0
0
LINE
8
TOP
10
1.291894
20
0.873061
30
0.0
11
1.265941
21
0.926952
31
0.0
0
LINE
8
TOP
10
1.265941
20
0.926952
30
0.0
11
1.234752
21
0.977992
31
0.0
0
LINE
8
TOP
10
1.234752
20
0.977992
30
0.0
11
1.198635
21
1.025673
31
0.0
0
LINE
8
TOP
10
1.198635
20
1.025673
30
0.0
11
1.157950
21
1.069520
31
0.0
0
LINE
8
TOP
10
1.157950
20
1.069520
30
0.0
11
1.113102
21
1.109099
31
0.0
0
LINE
8
TOP
10
1.113102
20
1.109099
30
0.0
11
1.064536
21
1.144016
31
0.0
0
LINE
8
TOP
10
1.064536
20
1.144016
30
0.0
11
1.012735
21
1.173923
31
0.0
0
LINE
8
TOP
10
1.012735
20
1.173923
30
0.0
11
0.958213
21
1.198524
31
0.0
0
LINE
8
TOP
10
0.958213
20
1.198524
30
0.0
11
0.901513
21
1.217575
31
0.0
0
LINE
8
TOP
10
0.901513
20
1.217575
30
0.0
11
0.843197
21
1.230885
31
0.0
0
LINE
8
TOP
10
0.843197
20
1.230885
30
0.0
11
0.783846
21
1.238322
31
0.0
0
LINE
8
TOP
10
0.783846
20
1.238322
30
0.0
11
0.724050
21
1.239814
31
0.0
0
LINE
8
TOP
10
0.724050
20
1.239814
30
0.0
11
0.664402
21
1.235344
31
0.0
0
LINE
8
TOP
10
0.664402
20
1.235344
30
0.0
11
0.605496
21
1.224957
31
0.0
0
LINE
8
TOP
10
0.605496
20
1.224957
30
0.0
11
0.547916
21
1.208756
31
0.0
0
LINE
8
TOP
10
0.547916
20
1.208756
30
0.0
11
0.492236
21
1.186904
31
0.0
0
LINE
8
TOP
10
0.492236
20
1.186904
30
0.0
11
0.439008
21
1.159615
31
0.0
0
LINE
8
TOP
10
0.439008
20
1.159615
30
0.0
11
0.388762
21
1.127163
31
0.0
0
LINE
8
TOP
10
0.388762
20
1.127163
30
0.0
11
0.341997
21
1.089869
31
0.0
0
LINE
8
TOP
10
0.341997
20
1.089869
30
0.0
11
0.299177
21
1.048104
31
0.0
0
LINE
8
TOP
10
0.299177
20
1.048104
30
0.0
11
0.260729
21
1.002283
31
0.0
0
LINE
8
TOP
10
0.260729
20
1.002283
30
0.0
11
0.227034
21
0.952861
31
0.0
0
LINE
8
TOP
10
0.227034
20
0.952861
30
0.0
11
0.198427
21
0.900330
31
0.0
0
LINE
8
TOP
10
0.198427
20
0.900330
30
0.0
11
0.175193
21
0.845212
31
0.0
0
LINE
8
TOP
10
0.175193
20
0.845212
30
0.0
11
0.157562
21
0.788054
31
0.0
0
LINE
8
TOP
10
0.157562
20
0.788054
30
0.0
11
0.145710
21
0.729425
31
0.0
0
LINE
8
TOP
10
0.145710
20
0.729425
30
0.0
11
0.139754
21
0.669908
31
0.0
0
LINE
8
TOP
10
0.139754
20
0.669908
30
0.0
11
0.139754
21
0.610092
31
0.0
0
LINE
8
TOP
10
0.139754
20
0.610092
30
0.0
11
0.145710
21
0.550575
31
0.0
0
LINE
8
TOP
10
0.145710
20
0.550575
30
0.0
11
0.157562
21
0.491946
31
0.0
0
LINE
8
TOP
10
0.157562
20
0.491946
30
0.0
11
0.175193
21
0.434788
31
0.0
0
LINE
8
TOP
10
0.175193
20
0.434788
30
0.0
11
0.198427
21
0.379670
31
0.0
0
LINE
8
TOP
10
0.198427
20
0.379670
30
0.0
11
0.227034
21
0.327139
31
0.0
0
LINE
8
TOP
10
0.227034
20
0.327139
30
0.0
11
0.260729
21
0.277717
31
0.0
0
LINE
8
TOP
10
0.260729
20
0.277717
30
0.0
11
0.299177
21
0.231896
31
0.0
0
LINE
8
TOP
10
0.299177
20
0.231896
30
0.0
11
0.341997
21
0.190131
31
0.0
0
LINE
8
TOP
10
0.341997
20
0.190131
30
0.0
11
0.388762
21
0.152837
31
0.0
0
LINE
8
TOP
10
0.388762
20
0.152837
30
0.0
11
0.439008
21
0.120385
31
0.0
0
LINE
8
TOP
10
0.439008
20
0.120385
30
0.0
11
0.492236
21
0.093096
31
0.0
0
LINE
8
TOP
10
0.492236
20
0.093096
30
0.0
11
0.547916
21
0.071244
31
0.0
0
LINE
8
TOP
10
0.547916
20
0.071244
30
0.0
11
0.605496
21
0.055043
31
0.0
0
LINE
8
TOP
10
0.605496
20
0.055043
30
0.0
11
0.664402
21
0.044656
31
0.0
0
LINE
8
TOP
10
0.664402
20
0.044656
30
0.0
11
0.724050
21
0.040186
31
0.0
0
LINE
8
TOP
10
0.724050
20
0.040186
30
0.0
11
0.783846
21
0.041678
31
0.0
0
LINE
8
TOP
10
0.783846
20
0.041678
30
0.0
11
0.843197
21
0.049115
31
0.0
0
LINE
8
TOP
10
0.843197
20
0.049115
30
0.0
11
0.901513
21
0.062425
31
0.0
0
LINE
8
TOP
10
0.901513
20
0.062425
30
0.0
11
0.958213
21
0.081476
31
0.0
0
LINE
8
TOP
10
0.958213
20
0.081476
30
0.0
11
1.012735
21
0.106077
31
0.0
0
LINE
8
TOP
10
1.012735
20
0.106077
30
0.0
11
1.064536
21
0.135984
31
0.0
0
LINE
8
TOP
10
1.064536
20
0.135984
30
0.0
11
1.113102
21
0.170901
31
0.0
0
LINE
8
TOP
10
1.113102
20
0.170901
30
0.0
11
1.157950
21
0.210480
31
0.0
0
LINE
8
TOP
10
1.157950
20
0.210480
30
0.0
11
1.198635
21
0.254327
31
0.0
0
LINE
8
TOP
10
1.198635
20
0.254327
30
0.0
11
1.234752
21
0.302008
31
0.0
0
LINE
8
TOP
10
1.234752
20
0.302008
30
0.0
11
1.265941
21
0.353048
31
0.0
0
LINE
8
TOP
10
1.265941
20
0.353048
30
0.0
11
1.291894
21
0.406939
31
0.0
0
LINE
8
TOP
10
1.291894
20
0.406939
30
0.0
11
1.312352
21
0.463147
31
0.0
0
LINE
8
TOP
10
1.312352
20
0.463147
30
0.0
11
1.327112
21
0.521112
31
0.0
0
LINE
8
TOP
10
1.327112
20
0.521112
30
0.0
11
1.336027
21
0.580259
31
0.0
0
LINE
8
TOP
10
1.336027
20
0.580259
30
0.0
11
1.339008
21
0.640000
31
0.0
0
LINE
8
TOP_HID
6
HIDDEN
10
0.000000
20
0.640000
30
0.0
11
0.369503
21
0.000000
31
0.0
0
LINE
8
TOP_HID
6
HIDDEN
10
0.369503
20
1.280000
30
0.0
11
0.000000
21
0.640000
31
0.0
0
LINE
8
TOP_HID
6
HIDDEN
10
0.369503
20
0.000000
30
0.0
11
1.108513
21
0.000000
31
0.0
0
LINE
8
TOP_HID
6
HIDDEN
10
1.108513
20
0.000000
30
0.0
11
1.478017
21
0.640000
31
0.0
0
LINE
8
TOP_HID
6
HIDDEN
10
1.478017
20
0.640000
30
0.0
11
1.108513
21
1.280000
31
0.0
0
LINE
8
TOP_HID
6
HIDDEN
10
1.108513
20
1.280000
30
0.0
11
0.369503
21
1.280000
31
0.0
0
LINE
8
TOP_HID
6
HIDDEN
10
1.339008
20
0.640000
30
0.0
11
1.336027
21
0.699741
31
0.0
0
LINE
8
TOP_HID
6
HIDDEN
10
1.336027
20
0.699741
30
0.0
11
1.327112
21
0.758888
31
0.0
0
LINE
8
TOP_HID
6
HIDDEN
10
1.327112
20
0.758888
30
0.0
11
1.312352
21
0.816853
31
0.0
0
LINE
8
TOP_HID
6
HIDDEN
10
1.312352
20
0.816853
30
0.0
11
1.291894
21
0.873061
31
0.0
0
LINE
8
TOP_HID
6
HIDDEN
10
1.291894
20
0.873061
30
0.0
11
1.265941
21
0.926952
31
0.0
0
LINE
8
TOP_HID
6
HIDDEN
10
1.265941
20
0.926952
30
0.0
11
1.234752
21
0.977992
31
0.0
0
LINE
8
TOP_HID
6
HIDDEN
10
1.234752
20
0.977992
30
0.0
11
1.198635
21
1.025673
31
0.0
0
LINE
8
TOP_HID
6
HIDDEN
10
1.198635
20
1.025673
30
0.0
11
1.157950
21
1.069520
31
0.0
0
LINE
8
TOP_HID
6
HIDDEN
10
1.157950
20
1.069520
30
0.0
11
1.113102
21
1.109099
31
0.0
0
LINE
8
TOP_HID
6
HIDDEN
10
1.113102
20
1.109099
30
0.0
11
1.064536
21
1.144016
31
0.0
0
LINE
8
TOP_HID
6
HIDDEN
10
1.064536
20
1.144016
30
0.0
11
1.012735
21
1.173923
31
0.0
0
LINE
8
TOP_HID
6
HIDDEN
10
1.012735
20
1.173923
30
0.0
11
0.958213
21
1.198524
31
0.0
0
LINE
8
TOP_HID
6
HIDDEN
10
0.958213
20
1.198524
30
0.0
11
0.901513
21
1.217575
31
0.0
0
LINE
8
TOP_HID
6
HIDDEN
10
0.901513
20
1.217575
30
0.0
11
0.843197
21
1.230885
31
0.0
0
LINE
8
TOP_HID
6
HIDDEN
10
0.843197
20
1.230885
30
0.0
11
0.783846
21
1.238322
31
0.0
0
LINE
8
TOP_HID
6
HIDDEN
10
0.783846
20
1.238322
30
0.0
11
0.724050
21
1.239814
31
0.0
0
LINE
8
TOP_HID
6
HIDDEN
10
0.724050
20
1.239814
30
0.0
11
0.664402
21
1.235344
31
0.0
0
LINE
8
TOP_HID
6
HIDDEN
10
0.664402
20
1.235344
30
0.0
11
0.605496
21
1.224957
31
0.0
0
LINE
8
TOP_HID
6
HIDDEN
10
0.605496
20
1.224957
30
0.0
11
0.547916
21
1.208756
31
0.0
0
LINE
8
TOP_HID
6
HIDDEN
10
0.547916
20
1.208756
30
0.0
11
0.492236
21
1.186904
31
0.0
0
LINE
8
TOP_HID
6
HIDDEN
10
0.492236
20
1.186904
30
0.0
11
0.439008
21
1.159615
31
0.0
0
LINE
8
TOP_HID
6
HIDDEN
10
0.439008
20
1.159615
30
0.0
11
0.388762
21
1.127163
31
0.0
0
LINE
8
TOP_HID
6
HIDDEN
10
0.388762
20
1.127163
30
0.0
11
0.341997
21
1.089869
31
0.0
0
LINE
8
TOP_HID
6
HIDDEN
10
0.341997
20
1.089869
30
0.0
11
0.299177
21
1.048104
31
0.0
0
LINE
8
TOP_HID
6
HIDDEN
10
0.299177
20
1.048104
30
0.0
11
0.260729
21
1.002283
31
0.0
0
LINE
8
TOP_HID
6
HIDDEN
10
0.260729
20
1.002283
30
0.0
11
0.227034
21
0.952861
31
0.0
0
LINE
8
TOP_HID
6
HIDDEN
10
0.227034
20
0.952861
30
0.0
11
0.198427
21
0.900330
31
0.0
0
LINE
8
TOP_HID
6
HIDDEN
10
0.198427
20
0.900330
30
0.0
11
0.175193
21
0.845212
31
0.0
0
LINE
8
TOP_HID
6
HIDDEN
10
0.175193
20
0.845212
30
0.0
11
0.157562
21
0.788054
31
0.0
0
LINE
8
TOP_HID
6
HIDDEN
10
0.157562
20
0.788054
30
0.0
11
0.145710
21
0.729425
31
0.0
0
LINE
8
TOP_HID
6
HIDDEN
10
0.145710
20
0.729425
30
0.0
11
0.139754
21
0.669908
31
0.0
0
LINE
8
TOP_HID
6
HIDDEN
10
0.139754
20
0.669908
30
0.0
11
0.139754
21
0.610092
31
0.0
0
LINE
8
TOP_HID
6
HIDDEN
10
0.139754
20
0.610092
30
0.0
11
0.145710
21
0.550575
31
0.0
0
LINE
8
TOP_HID
6
HIDDEN
10
0.145710
20
0.550575
30
0.0
11
0.157562
21
0.491946
31
0.0
0
LINE
8
TOP_HID
6
HIDDEN
10
0.157562
20
0.491946
30
0.0
11
0.175193
21
0.434788
31
0.0
0
LINE
8
TOP_HID
6
HIDDEN
10
0.175193
20
0.434788
30
0.0
11
0.198427
21
0.379670
31
0.0
0
LINE
8
TOP_HID
6
HIDDEN
10
0.198427
20
0.379670
30
0.0
11
0.227034
21
0.327139
31
0.0
0
LINE
8
TOP_HID
6
HIDDEN
10
0.227034
20
0.327139
30
0.0
11
0.260729
21
0.277717
31
0.0
0
LINE
8
TOP_HID
6
HIDDEN
10
0.260729
20
0.277717
30
0.0
11
0.299177
21
0.231896
31
0.0
0
LINE
8
TOP_HID
6
HIDDEN
10
0.299177
20
0.231896
30
0.0
11
0.341997
21
0.190131
31
0.0
0
LINE
8
TOP_HID
6
HIDDEN
10
0.341997
20
0.190131
30
0.0
11
0.388762
21
0.152837
31
0.0
0
LINE
8
TOP_HID
6
HIDDEN
10
0.388762
20
0.152837
30
0.0
11
0.439008
21
0.120385
31
0.0
0
LINE
8
TOP_HID
6
HIDDEN
10
0.439008
20
0.120385
30
0.0
11
0.492236
21
0.093096
31
0.0
0
LINE
8
TOP_HID
6
HIDDEN
10
0.492236
20
0.093096
30
0.0
11
0.547916
21
0.071244
31
0.0
0
LINE
8
TOP_HID
6
HIDDEN
10
0.547916
20
0.071244
30
0.0
11
0.605496
21
0.055043
31
0.0
0
LINE
8
TOP_HID
6
HIDDEN
10
0.605496
20
0.055043
30
0.0
11
0.664402
21
0.044656
31
0.0
0
LINE
8
TOP_HID
6
HIDDEN
10
0.664402
20
0.044656
30
0.0
11
0.724050
21
0.040186
31
0.0
0
LINE
8
TOP_HID
6
HIDDEN
10
0.724050
20
0.040186
30
0.0
11
0.783846
21
0.041678
31
0.0
0
LINE
8
TOP_HID
6
HIDDEN
10
0.783846
20
0.041678
30
0.0
11
0.843197
21
0.049115
31
0.0
0
LINE
8
TOP_HID
6
HIDDEN
10
0.843197
20
0.049115
30
0.0
11
0.901513
21
0.062425
31
0.0
0
LINE
8
TOP_HID
6
HIDDEN
10
0.901513
20
0.062425
30
0.0
11
0.958213
21
0.081476
31
0.0
0
LINE
8
TOP_HID
6
HIDDEN
10
0.958213
20
0.081476
30
0.0
11
1.012735
21
0.106077
31
0.0
0
LINE
8
TOP_HID
6
HIDDEN
10
1.012735
20
0.106077
30
0.0
11
1.064536
21
0.135984
31
0.0
0
LINE
8
TOP_HID
6
HIDDEN
10
1.064536
20
0.135984
30
0.0
11
1.113102
21
0.170901
31
0.0
0
LINE
8
TOP_HID
6
HIDDEN
10
1.113102
20
0.170901
30
0.0
11
1.157950
21
0.210480
31
0.0
0
LINE
8
TOP_HID
6
HIDDEN
10
1.157950
20
0.210480
30
0.0
11
1.198635
21
0.254327
31
0.0
0
LINE
8
TOP_HID
6
HIDDEN
10
1.198635
20
0.254327
30
0.0
11
1.234752
21
0.302008
31
0.0
0
LINE
8
TOP_HID
6
HIDDEN
10
1.234752
20
0.302008
30
0.0
11
1.265941
21
0.353048
31
0.0
0
LINE
8
TOP_HID
6
HIDDEN
10
1.265941
20
0.353048
30
0.0
11
1.291894
21
0.406939
31
0.0
0
LINE
8
TOP_HID
6
HIDDEN
10
1.291894
20
0.406939
30
0.0
11
1.312352
21
0.463147
31
0.0
0
LINE
8
TOP_HID
6
HIDDEN
10
1.312352
20
0.463147
30
0.0
11
1.327112
21
0.521112
31
0.0
0
LINE
8
TOP_HID
6
HIDDEN
10
1.327112
20
0.521112
30
0.0
11
1.336027
21
0.580259
31
0.0
0
LINE
8
TOP_HID
6
HIDDEN
10
1.336027
20
0.580259
30
0.0
11
1.339008
21
0.640000
31
0.0
0
ENDSEC
0
EOF
