0
SECTION
2
HEADER
9
$ACADVER
1
AC1009
0
ENDSEC
0
SECTION
2
TABLES
0
TABLE
2
LTYPE
70
3
0
LTYPE
2
CONTINUOUS
70
0
3
Solid line
72
65
73
0
40
0.0
0
LTYPE
2
HIDDEN
70
0
3
__ __ __ __ __
72
65
73
2
40
0.075000
49
0.050025
49
-0.024975
0
LTYPE
2
CENTER
70
0
3
___ _ ___ _ ___
72
65
73
4
40
0.174975
49
0.099975
49
-0.024975
49
0.024975
49
-0.024975
0
ENDTAB
0
TABLE
2
LAYER
70
6
0
LAYER
2
0
70
0
62
7
6
CONTINUOUS
0
LAYER
2
FRONT
70
0
62
7
6
CONTINUOUS
0
LAYER
2
LEFT
70
0
62
7
6
CONTINUOUS
0
LAYER
2
LEFT_HID
70
0
62
7
6
HIDDEN
0
LAYER
2
TOP
70
0
62
7
6
CONTINUOUS
0
LAYER
2
TOP_HID
70
0
62
7
6
HIDDEN
0
ENDTAB
0
ENDSEC
0
SECTION
2
ENTITIES
0
LINE
8
FRONT
10
0.000000
20
0.401563
30
0.0
11
1.500000
21
0.401563
31
0.0
0
LINE
8
FRONT
10
0.000000
20
1.348931
30
0.0
11
0.000000
21
0.401563
31
0.0
0
LINE
8
FRONT
10
1.500000
20
0.401563
30
0.0
11
1.500000
21
1.348931
31
0.0
0
LINE
8
FRONT
10
1.500000
20
1.348931
30
0.0
11
0.000000
21
1.348931
31
0.0
0
LINE
8
FRONT
10
0.340543
20
0.882730
30
0.0
11
0.347085
21
0.883057
31
0.0
0
LINE
8
FRONT
10
0.347085
20
0.883057
30
0.0
11
0.353562
21
0.884033
31
0.0
0
LINE
8
FRONT
10
0.353562
20
0.884033
30
0.0
11
0.359910
21
0.885649
31
0.0
0
LINE
8
FRONT
10
0.359910
20
0.885649
30
0.0
11
0.366066
21
0.887890
31
0.0
0
LINE
8
FRONT
10
0.366066
20
0.887890
30
0.0
11
0.371968
21
0.890732
31
0.0
0
LINE
8
FRONT
10
0.371968
20
0.890732
30
0.0
11
0.377557
21
0.894148
31
0.0
0
LINE
8
FRONT
10
0.377557
20
0.894148
30
0.0
11
0.382779
21
0.898103
31
0.0
0
LINE
8
FRONT
10
0.382779
20
0.898103
30
0.0
11
0.387580
21
0.902558
31
0.0
0
LINE
8
FRONT
10
0.387580
20
0.902558
30
0.0
11
0.391915
21
0.907470
31
0.0
0
LINE
8
FRONT
10
0.391915
20
0.907470
30
0.0
11
0.395739
21
0.912788
31
0.0
0
LINE
8
FRONT
10
0.395739
20
0.912788
30
0.0
11
0.399014
21
0.918461
31
0.0
0
LINE
8
FRONT
10
0.399014
20
0.918461
30
0.0
11
0.401708
21
0.924432
31
0.0
0
LINE
8
FRONT
10
0.401708
20
0.924432
30
0.0
11
0.403794
21
0.930641
31
0.0
0
LINE
8
FRONT
10
0.403794
20
0.930641
30
0.0
11
0.405252
21
0.937028
31
0.0
0
LINE
8
FRONT
10
0.405252
20
0.937028
30
0.0
11
0.406066
21
0.943527
31
0.0
0
LINE
8
FRONT
10
0.406066
20
0.943527
30
0.0
11
0.406230
21
0.950076
31
0.0
0
LINE
8
FRONT
10
0.406230
20
0.950076
30
0.0
11
0.405740
21
0.956608
31
0.0
0
LINE
8
FRONT
10
0.405740
20
0.956608
30
0.0
11
0.404603
21
0.963059
31
0.0
0
LINE
8
FRONT
10
0.404603
20
0.963059
30
0.0
11
0.402828
21
0.969364
31
0.0
0
LINE
8
FRONT
10
0.402828
20
0.969364
30
0.0
11
0.400435
21
0.975462
31
0.0
0
LINE
8
FRONT
10
0.400435
20
0.975462
30
0.0
11
0.397447
21
0.981291
31
0.0
0
LINE
8
FRONT
10
0.397447
20
0.981291
30
0.0
11
0.393893
21
0.986794
31
0.0
0
LINE
8
FRONT
10
0.393893
20
0.986794
30
0.0
11
0.389809
21
0.991915
31
0.0
0
LINE
8
FRONT
10
0.389809
20
0.991915
30
0.0
11
0.385235
21
0.996604
31
0.0
0
LINE
8
FRONT
10
0.385235
20
0.996604
30
0.0
11
0.380217
21
1.000815
31
0.0
0
LINE
8
FRONT
10
0.380217
20
1.000815
30
0.0
11
0.374805
21
1.004505
31
0.0
0
LINE
8
FRONT
10
0.374805
20
1.004505
30
0.0
11
0.369052
21
1.007638
31
0.0
0
LINE
8
FRONT
10
0.369052
20
1.007638
30
0.0
11
0.363016
21
1.010182
31
0.0
0
LINE
8
FRONT
10
0.363016
20
1.010182
30
0.0
11
0.356757
21
1.012113
31
0.0
0
LINE
8
FRONT
10
0.356757
20
1.012113
30
0.0
11
0.350336
21
1.013411
31
0.0
0
LINE
8
FRONT
10
0.350336
20
1.013411
30
0.0
11
0.343818
21
1.014063
31
0.0
0
LINE
8
FRONT
10
0.343818
20
1.014063
30
0.0
11
0.337268
21
1.014063
31
0.0
0
LINE
8
FRONT
10
0.337268
20
1.014063
30
0.0
11
0.330750
21
1.013411
31
0.0
0
LINE
8
FRONT
10
0.330750
20
1.013411
30
0.0
11
0.324329
21
1.012113
31
0.0
0
LINE
8
FRONT
10
0.324329
20
1.012113
30
0.0
11
0.318070
21
1.010182
31
0.0
0
LINE
8
FRONT
10
0.318070
20
1.010182
30
0.0
11
0.312033
21
1.007638
31
0.0
0
LINE
8
FRONT
10
0.312033
20
1.007638
30
0.0
11
0.306281
21
1.004505
31
0.0
0
LINE
8
FRONT
10
0.306281
20
1.004505
30
0.0
11
0.300868
21
1.000815
31
0.0
0
LINE
8
FRONT
10
0.300868
20
1.000815
30
0.0
11
0.295850
21
0.996604
31
0.0
0
LINE
8
FRONT
10
0.295850
20
0.996604
30
0.0
11
0.291277
21
0.991915
31
0.0
0
LINE
8
FRONT
10
0.291277
20
0.991915
30
0.0
11
0.287193
21
0.986794
31
0.0
0
LINE
8
FRONT
10
0.287193
20
0.986794
30
0.0
11
0.283639
21
0.981291
31
0.0
0
LINE
8
FRONT
10
0.283639
20
0.981291
30
0.0
11
0.280650
21
0.975462
31
0.0
0
LINE
8
FRONT
10
0.280650
20
0.975462
30
0.0
11
0.278257
21
0.969364
31
0.0
0
LINE
8
FRONT
10
0.278257
20
0.969364
30
0.0
11
0.276483
21
0.963059
31
0.0
0
LINE
8
FRONT
10
0.276483
20
0.963059
30
0.0
11
0.275345
21
0.956608
31
0.0
0
LINE
8
FRONT
10
0.275345
20
0.956608
30
0.0
11
0.274856
21
0.950076
31
0.0
0
LINE
8
FRONT
10
0.274856
20
0.950076
30
0.0
11
0.275019
21
0.943527
31
0.0
0
LINE
8
FRONT
10
0.275019
20
0.943527
30
0.0
11
0.275834
21
0.937028
31
0.0
0
LINE
8
FRONT
10
0.275834
20
0.937028
30
0.0
11
0.277291
21
0.930641
31
0.0
0
LINE
8
FRONT
10
0.277291
20
0.930641
30
0.0
11
0.279378
21
0.924432
31
0.0
0
LINE
8
FRONT
10
0.279378
20
0.924432
30
0.0
11
0.282072
21
0.918461
31
0.0
0
LINE
8
FRONT
10
0.282072
20
0.918461
30
0.0
11
0.285347
21
0.912788
31
0.0
0
LINE
8
FRONT
10
0.285347
20
0.912788
30
0.0
11
0.289171
21
0.907470
31
0.0
0
LINE
8
FRONT
10
0.289171
20
0.907470
30
0.0
11
0.293505
21
0.902558
31
0.0
0
LINE
8
FRONT
10
0.293505
20
0.902558
30
0.0
11
0.298307
21
0.898103
31
0.0
0
LINE
8
FRONT
10
0.298307
20
0.898103
30
0.0
11
0.303529
21
0.894148
31
0.0
0
LINE
8
FRONT
10
0.303529
20
0.894148
30
0.0
11
0.309118
21
0.890732
31
0.0
0
LINE
8
FRONT
10
0.309118
20
0.890732
30
0.0
11
0.315020
21
0.887890
31
0.0
0
LINE
8
FRONT
10
0.315020
20
0.887890
30
0.0
11
0.321175
21
0.885649
31
0.0
0
LINE
8
FRONT
10
0.321175
20
0.885649
30
0.0
11
0.327523
21
0.884033
31
0.0
0
LINE
8
FRONT
10
0.327523
20
0.884033
30
0.0
11
0.334000
21
0.883057
31
0.0
0
LINE
8
FRONT
10
0.334000
20
0.883057
30
0.0
11
0.340543
21
0.882730
31
0.0
0
LINE
8
FRONT
10
1.160855
20
0.882730
30
0.0
11
1.167398
21
0.883057
31
0.0
0
LINE
8
FRONT
10
1.167398
20
0.883057
30
0.0
11
1.173875
21
0.884033
31
0.0
0
LINE
8
FRONT
10
1.173875
20
0.884033
30
0.0
11
1.180223
21
0.885649
31
0.0
0
LINE
8
FRONT
10
1.180223
20
0.885649
30
0.0
11
1.186378
21
0.887890
31
0.0
0
LINE
8
FRONT
10
1.186378
20
0.887890
30
0.0
11
1.192280
21
0.890732
31
0.0
0
LINE
8
FRONT
10
1.192280
20
0.890732
30
0.0
11
1.197869
21
0.894148
31
0.0
0
LINE
8
FRONT
10
1.197869
20
0.894148
30
0.0
11
1.203091
21
0.898103
31
0.0
0
LINE
8
FRONT
10
1.203091
20
0.898103
30
0.0
11
1.207893
21
0.902558
31
0.0
0
LINE
8
FRONT
10
1.207893
20
0.902558
30
0.0
11
1.212227
21
0.907470
31
0.0
0
LINE
8
FRONT
10
1.212227
20
0.907470
30
0.0
11
1.216051
21
0.912788
31
0.0
0
LINE
8
FRONT
10
1.216051
20
0.912788
30
0.0
11
1.219326
21
0.918461
31
0.0
0
LINE
8
FRONT
10
1.219326
20
0.918461
30
0.0
11
1.222020
21
0.924432
31
0.0
0
LINE
8
FRONT
10
1.222020
20
0.924432
30
0.0
11
1.224107
21
0.930641
31
0.0
0
LINE
8
FRONT
10
1.224107
20
0.930641
30
0.0
11
1.225564
21
0.937028
31
0.0
0
LINE
8
FRONT
10
1.225564
20
0.937028
30
0.0
11
1.226379
21
0.943527
31
0.0
0
LINE
8
FRONT
10
1.226379
20
0.943527
30
0.0
11
1.226542
21
0.950076
31
0.0
0
LINE
8
FRONT
10
1.226542
20
0.950076
30
0.0
11
1.226053
21
0.956608
31
0.0
0
LINE
8
FRONT
10
1.226053
20
0.956608
30
0.0
11
1.224915
21
0.963059
31
0.0
0
LINE
8
FRONT
10
1.224915
20
0.963059
30
0.0
11
1.223141
21
0.969364
31
0.0
0
LINE
8
FRONT
10
1.223141
20
0.969364
30
0.0
11
1.220748
21
0.975462
31
0.0
0
LINE
8
FRONT
10
1.220748
20
0.975462
30
0.0
11
1.217759
21
0.981291
31
0.0
0
LINE
8
FRONT
10
1.217759
20
0.981291
30
0.0
11
1.214205
21
0.986794
31
0.0
0
LINE
8
FRONT
10
1.214205
20
0.986794
30
0.0
11
1.210121
21
0.991915
31
0.0
0
LINE
8
FRONT
10
1.210121
20
0.991915
30
0.0
11
1.205548
21
0.996604
31
0.0
0
LINE
8
FRONT
10
1.205548
20
0.996604
30
0.0
11
1.200530
21
1.000815
31
0.0
0
LINE
8
FRONT
10
1.200530
20
1.000815
30
0.0
11
1.195117
21
1.004505
31
0.0
0
LINE
8
FRONT
10
1.195117
20
1.004505
30
0.0
11
1.189365
21
1.007638
31
0.0
0
LINE
8
FRONT
10
1.189365
20
1.007638
30
0.0
11
1.183328
21
1.010182
31
0.0
0
LINE
8
FRONT
10
1.183328
20
1.010182
30
0.0
11
1.177069
21
1.012113
31
0.0
0
LINE
8
FRONT
10
1.177069
20
1.012113
30
0.0
11
1.170648
21
1.013411
31
0.0
0
LINE
8
FRONT
10
1.170648
20
1.013411
30
0.0
11
1.164130
21
1.014063
31
0.0
0
LINE
8
FRONT
10
1.164130
20
1.014063
30
0.0
11
1.157580
21
1.014063
31
0.0
0
LINE
8
FRONT
10
1.157580
20
1.014063
30
0.0
11
1.151062
21
1.013411
31
0.0
0
LINE
8
FRONT
10
1.151062
20
1.013411
30
0.0
11
1.144642
21
1.012113
31
0.0
0
LINE
8
FRONT
10
1.144642
20
1.012113
30
0.0
11
1.138382
21
1.010182
31
0.0
0
LINE
8
FRONT
10
1.138382
20
1.010182
30
0.0
11
1.132346
21
1.007638
31
0.0
0
LINE
8
FRONT
10
1.132346
20
1.007638
30
0.0
11
1.126593
21
1.004505
31
0.0
0
LINE
8
FRONT
10
1.126593
20
1.004505
30
0.0
11
1.121181
21
1.000815
31
0.0
0
LINE
8
FRONT
10
1.121181
20
1.000815
30
0.0
11
1.116163
21
0.996604
31
0.0
0
LINE
8
FRONT
10
1.116163
20
0.996604
30
0.0
11
1.111589
21
0.991915
31
0.0
0
LINE
8
FRONT
10
1.111589
20
0.991915
30
0.0
11
1.107505
21
0.986794
31
0.0
0
LINE
8
FRONT
10
1.107505
20
0.986794
30
0.0
11
1.103951
21
0.981291
31
0.0
0
LINE
8
FRONT
10
1.103951
20
0.981291
30
0.0
11
1.100963
21
0.975462
31
0.0
0
LINE
8
FRONT
10
1.100963
20
0.975462
30
0.0
11
1.098570
21
0.969364
31
0.0
0
LINE
8
FRONT
10
1.098570
20
0.969364
30
0.0
11
1.096795
21
0.963059
31
0.0
0
LINE
8
FRONT
10
1.096795
20
0.963059
30
0.0
11
1.095658
21
0.956608
31
0.0
0
LINE
8
FRONT
10
1.095658
20
0.956608
30
0.0
11
1.095168
21
0.950076
31
0.0
0
LINE
8
FRONT
10
1.095168
20
0.950076
30
0.0
11
1.095332
21
0.943527
31
0.0
0
LINE
8
FRONT
10
1.095332
20
0.943527
30
0.0
11
1.096146
21
0.937028
31
0.0
0
LINE
8
FRONT
10
1.096146
20
0.937028
30
0.0
11
1.097604
21
0.930641
31
0.0
0
LINE
8
FRONT
10
1.097604
20
0.930641
30
0.0
11
1.099690
21
0.924432
31
0.0
0
LINE
8
FRONT
10
1.099690
20
0.924432
30
0.0
11
1.102384
21
0.918461
31
0.0
0
LINE
8
FRONT
10
1.102384
20
0.918461
30
0.0
11
1.105659
21
0.912788
31
0.0
0
LINE
8
FRONT
10
1.105659
20
0.912788
30
0.0
11
1.109483
21
0.907470
31
0.0
0
LINE
8
FRONT
10
1.109483
20
0.907470
30
0.0
11
1.113818
21
0.902558
31
0.0
0
LINE
8
FRONT
10
1.113818
20
0.902558
30
0.0
11
1.118619
21
0.898103
31
0.0
0
LINE
8
FRONT
10
1.118619
20
0.898103
30
0.0
11
1.123841
21
0.894148
31
0.0
0
LINE
8
FRONT
10
1.123841
20
0.894148
30
0.0
11
1.129431
21
0.890732
31
0.0
0
LINE
8
FRONT
10
1.129431
20
0.890732
30
0.0
11
1.135332
21
0.887890
31
0.0
0
LINE
8
FRONT
10
1.135332
20
0.887890
30
0.0
11
1.141488
21
0.885649
31
0.0
0
LINE
8
FRONT
10
1.141488
20
0.885649
30
0.0
11
1.147836
21
0.884033
31
0.0
0
LINE
8
FRONT
10
1.147836
20
0.884033
30
0.0
11
1.154313
21
0.883057
31
0.0
0
LINE
8
FRONT
10
1.154313
20
0.883057
30
0.0
11
1.160855
21
0.882730
31
0.0
0
LINE
8
LEFT
10
1.800000
20
0.401563
30
0.0
11
1.901563
21
0.401563
31
0.0
0
LINE
8
LEFT
10
1.800000
20
1.348931
30
0.0
11
1.901563
21
1.348931
31
0.0
0
LINE
8
LEFT
10
1.901563
20
1.348931
30
0.0
11
1.901563
21
0.401563
31
0.0
0
LINE
8
LEFT
10
1.800000
20
1.348931
30
0.0
11
1.800000
21
0.401563
31
0.0
0
LINE
8
LEFT_HID
6
HIDDEN
10
1.901563
20
0.401563
30
0.0
11
1.901563
21
1.348931
31
0.0
0
LINE
8
LEFT_HID
6
HIDDEN
10
1.800000
20
0.882730
30
0.0
11
1.800000
21
1.014145
31
0.0
0
LINE
8
LEFT_HID
6
HIDDEN
10
1.800000
20
1.014145
30
0.0
11
1.800000
21
0.882730
31
0.0
0
LINE
8
LEFT_HID
6
HIDDEN
10
1.800000
20
0.882730
30
0.0
11
1.800000
21
1.014145
31
0.0
0
LINE
8
LEFT_HID
6
HIDDEN
10
1.800000
20
1.014145
30
0.0
11
1.800000
21
0.882730
31
0.0
0
LINE
8
LEFT_HID
6
HIDDEN
10
1.901563
20
0.882730
30
0.0
11
1.901563
21
1.014145
31
0.0
0
LINE
8
LEFT_HID
6
HIDDEN
10
1.901563
20
1.014145
30
0.0
11
1.901563
21
0.882730
31
0.0
0
LINE
8
LEFT_HID
6
HIDDEN
10
1.901563
20
0.882730
30
0.0
11
1.901563
21
1.014145
31
0.0
0
LINE
8
LEFT_HID
6
HIDDEN
10
1.901563
20
1.014145
30
0.0
11
1.901563
21
0.882730
31
0.0
0
LINE
8
LEFT_HID
6
HIDDEN
10
1.901563
20
0.882730
30
0.0
11
1.800000
21
0.882730
31
0.0
0
LINE
8
LEFT_HID
6
HIDDEN
10
1.901563
20
0.882730
30
0.0
11
1.800000
21
0.882730
31
0.0
0
LINE
8
LEFT_HID
6
HIDDEN
10
1.800000
20
1.014145
30
0.0
11
1.901563
21
1.014145
31
0.0
0
LINE
8
LEFT_HID
6
HIDDEN
10
1.800000
20
1.014145
30
0.0
11
1.901563
21
1.014145
31
0.0
0
LINE
8
TOP
10
0.000000
20
0.101563
30
0.0
11
0.000000
21
0.000000
31
0.0
0
LINE
8
TOP
10
1.500000
20
0.101563
30
0.0
11
1.500000
21
0.000000
31
0.0
0
LINE
8
TOP
10
1.500000
20
0.101563
30
0.0
11
0.000000
21
0.101563
31
0.0
0
LINE
8
TOP
10
1.500000
20
0.000000
30
0.0
11
0.000000
21
0.000000
31
0.0
0
LINE
8
TOP_HID
6
HIDDEN
10
0.000000
20
0.000000
30
0.0
11
1.500000
21
0.000000
31
0.0
0
LINE
8
TOP_HID
6
HIDDEN
10
0.340543
20
0.101563
30
0.0
11
0.406250
21
0.101563
31
0.0
0
LINE
8
TOP_HID
6
HIDDEN
10
0.406250
20
0.101563
30
0.0
11
0.274836
21
0.101563
31
0.0
0
LINE
8
TOP_HID
6
HIDDEN
10
0.274836
20
0.101563
30
0.0
11
0.340543
21
0.101563
31
0.0
0
LINE
8
TOP_HID
6
HIDDEN
10
1.160855
20
0.101563
30
0.0
11
1.226563
21
0.101563
31
0.0
0
LINE
8
TOP_HID
6
HIDDEN
10
1.226563
20
0.101563
30
0.0
11
1.095148
21
0.101563
31
0.0
0
LINE
8
TOP_HID
6
HIDDEN
10
1.095148
20
0.101563
30
0.0
11
1.160855
21
0.101563
31
0.0
0
LINE
8
TOP_HID
6
HIDDEN
10
0.340543
20
0.000000
30
0.0
11
0.406250
21
0.000000
31
0.0
0
LINE
8
TOP_HID
6
HIDDEN
10
0.406250
20
0.000000
30
0.0
11
0.274836
21
0.000000
31
0.0
0
LINE
8
TOP_HID
6
HIDDEN
10
0.274836
20
0.000000
30
0.0
11
0.340543
21
0.000000
31
0.0
0
LINE
8
TOP_HID
6
HIDDEN
10
1.160855
20
0.000000
30
0.0
11
1.226563
21
0.000000
31
0.0
0
LINE
8
TOP_HID
6
HIDDEN
10
1.226563
20
0.000000
30
0.0
11
1.095148
21
0.000000
31
0.0
0
LINE
8
TOP_HID
6
HIDDEN
10
1.095148
20
0.000000
30
0.0
11
1.160855
21
0.000000
31
0.0
0
LINE
8
TOP_HID
6
HIDDEN
10
0.274836
20
0.101563
30
0.0
11
0.274836
21
0.000000
31
0.0
0
LINE
8
TOP_HID
6
HIDDEN
10
0.406250
20
0.101563
30
0.0
11
0.406250
21
0.000000
31
0.0
0
LINE
8
TOP_HID
6
HIDDEN
10
1.095148
20
0.101563
30
0.0
11
1.095148
21
0.000000
31
0.0
0
LINE
8
TOP_HID
6
HIDDEN
10
1.226563
20
0.101563
30
0.0
11
1.226563
21
0.000000
31
0.0
0
ENDSEC
0
EOF
