0
SECTION
2
HEADER
9
$ACADVER
1
AC1009
0
ENDSEC
0
SECTION
2
TABLES
0
TABLE
2
LTYPE
70
3
0
LTYPE
2
CONTINUOUS
70
0
3
Solid line
72
65
73
0
40
0.0
0
LTYPE
2
HIDDEN
70
0
3
__ __ __ __ __
72
65
73
2
40
0.054688
49
0.036477
49
-0.018211
0
LTYPE
2
CENTER
70
0
3
___ _ ___ _ ___
72
65
73
4
40
0.127586
49
0.072898
49
-0.018211
49
0.018211
49
-0.018211
0
ENDTAB
0
TABLE
2
LAYER
70
7
0
LAYER
2
0
70
0
62
7
6
CONTINUOUS
0
LAYER
2
FRONT
70
0
62
7
6
CONTINUOUS
0
LAYER
2
FRONT_HID
70
0
62
7
6
HIDDEN
0
LAYER
2
LEFT
70
0
62
7
6
CONTINUOUS
0
LAYER
2
LEFT_HID
70
0
62
7
6
HIDDEN
0
LAYER
2
TOP
70
0
62
7
6
CONTINUOUS
0
LAYER
2
TOP_HID
70
0
62
7
6
HIDDEN
0
ENDTAB
0
ENDSEC
0
SECTION
2
ENTITIES
0
LINE
8
FRONT
10
0.000000
20
0.328125
30
0.0
11
0.414474
21
0.328125
31
0.0
0
LINE
8
FRONT
10
0.000000
20
1.283717
30
0.0
11
0.000000
21
0.328125
31
0.0
0
LINE
8
FRONT
10
0.414474
20
0.328125
30
0.0
11
0.414474
21
1.283717
31
0.0
0
LINE
8
FRONT
10
0.414474
20
1.283717
30
0.0
11
0.264803
21
1.283717
31
0.0
0
LINE
8
FRONT
10
0.264803
20
1.283717
30
0.0
11
0.264803
21
1.421875
31
0.0
0
LINE
8
FRONT
10
0.264803
20
1.421875
30
0.0
11
0.149671
21
1.421875
31
0.0
0
LINE
8
FRONT
10
0.149671
20
1.421875
30
0.0
11
0.149671
21
1.283717
31
0.0
0
LINE
8
FRONT
10
0.149671
20
1.283717
30
0.0
11
0.000000
21
1.283717
31
0.0
0
LINE
8
FRONT
10
0.207237
20
0.477796
30
0.0
11
0.211822
21
0.478025
31
0.0
0
LINE
8
FRONT
10
0.211822
20
0.478025
30
0.0
11
0.216362
21
0.478709
31
0.0
0
LINE
8
FRONT
10
0.216362
20
0.478709
30
0.0
11
0.220811
21
0.479842
31
0.0
0
LINE
8
FRONT
10
0.220811
20
0.479842
30
0.0
11
0.225125
21
0.481412
31
0.0
0
LINE
8
FRONT
10
0.225125
20
0.481412
30
0.0
11
0.229262
21
0.483404
31
0.0
0
LINE
8
FRONT
10
0.229262
20
0.483404
30
0.0
11
0.233179
21
0.485798
31
0.0
0
LINE
8
FRONT
10
0.233179
20
0.485798
30
0.0
11
0.236839
21
0.488570
31
0.0
0
LINE
8
FRONT
10
0.236839
20
0.488570
30
0.0
11
0.240204
21
0.491693
31
0.0
0
LINE
8
FRONT
10
0.240204
20
0.491693
30
0.0
11
0.243242
21
0.495135
31
0.0
0
LINE
8
FRONT
10
0.243242
20
0.495135
30
0.0
11
0.245922
21
0.498863
31
0.0
0
LINE
8
FRONT
10
0.245922
20
0.498863
30
0.0
11
0.248218
21
0.502839
31
0.0
0
LINE
8
FRONT
10
0.248218
20
0.502839
30
0.0
11
0.250106
21
0.507024
31
0.0
0
LINE
8
FRONT
10
0.250106
20
0.507024
30
0.0
11
0.251568
21
0.511376
31
0.0
0
LINE
8
FRONT
10
0.251568
20
0.511376
30
0.0
11
0.252590
21
0.515852
31
0.0
0
LINE
8
FRONT
10
0.252590
20
0.515852
30
0.0
11
0.253161
21
0.520407
31
0.0
0
LINE
8
FRONT
10
0.253161
20
0.520407
30
0.0
11
0.253275
21
0.524997
31
0.0
0
LINE
8
FRONT
10
0.253275
20
0.524997
30
0.0
11
0.252932
21
0.529575
31
0.0
0
LINE
8
FRONT
10
0.252932
20
0.529575
30
0.0
11
0.252135
21
0.534096
31
0.0
0
LINE
8
FRONT
10
0.252135
20
0.534096
30
0.0
11
0.250891
21
0.538516
31
0.0
0
LINE
8
FRONT
10
0.250891
20
0.538516
30
0.0
11
0.249214
21
0.542790
31
0.0
0
LINE
8
FRONT
10
0.249214
20
0.542790
30
0.0
11
0.247120
21
0.546875
31
0.0
0
LINE
8
FRONT
10
0.247120
20
0.546875
30
0.0
11
0.244629
21
0.550732
31
0.0
0
LINE
8
FRONT
10
0.244629
20
0.550732
30
0.0
11
0.241766
21
0.554321
31
0.0
0
LINE
8
FRONT
10
0.241766
20
0.554321
30
0.0
11
0.238561
21
0.557608
31
0.0
0
LINE
8
FRONT
10
0.238561
20
0.557608
30
0.0
11
0.235044
21
0.560559
31
0.0
0
LINE
8
FRONT
10
0.235044
20
0.560559
30
0.0
11
0.231250
21
0.563145
31
0.0
0
LINE
8
FRONT
10
0.231250
20
0.563145
30
0.0
11
0.227218
21
0.565341
31
0.0
0
LINE
8
FRONT
10
0.227218
20
0.565341
30
0.0
11
0.222988
21
0.567124
31
0.0
0
LINE
8
FRONT
10
0.222988
20
0.567124
30
0.0
11
0.218601
21
0.568477
31
0.0
0
LINE
8
FRONT
10
0.218601
20
0.568477
30
0.0
11
0.214101
21
0.569387
31
0.0
0
LINE
8
FRONT
10
0.214101
20
0.569387
30
0.0
11
0.209532
21
0.569844
31
0.0
0
LINE
8
FRONT
10
0.209532
20
0.569844
30
0.0
11
0.204941
21
0.569844
31
0.0
0
LINE
8
FRONT
10
0.204941
20
0.569844
30
0.0
11
0.200373
21
0.569387
31
0.0
0
LINE
8
FRONT
10
0.200373
20
0.569387
30
0.0
11
0.195873
21
0.568477
31
0.0
0
LINE
8
FRONT
10
0.195873
20
0.568477
30
0.0
11
0.191486
21
0.567124
31
0.0
0
LINE
8
FRONT
10
0.191486
20
0.567124
30
0.0
11
0.187255
21
0.565341
31
0.0
0
LINE
8
FRONT
10
0.187255
20
0.565341
30
0.0
11
0.183223
21
0.563145
31
0.0
0
LINE
8
FRONT
10
0.183223
20
0.563145
30
0.0
11
0.179430
21
0.560559
31
0.0
0
LINE
8
FRONT
10
0.179430
20
0.560559
30
0.0
11
0.175913
21
0.557608
31
0.0
0
LINE
8
FRONT
10
0.175913
20
0.557608
30
0.0
11
0.172707
21
0.554321
31
0.0
0
LINE
8
FRONT
10
0.172707
20
0.554321
30
0.0
11
0.169845
21
0.550732
31
0.0
0
LINE
8
FRONT
10
0.169845
20
0.550732
30
0.0
11
0.167354
21
0.546875
31
0.0
0
LINE
8
FRONT
10
0.167354
20
0.546875
30
0.0
11
0.165260
21
0.542790
31
0.0
0
LINE
8
FRONT
10
0.165260
20
0.542790
30
0.0
11
0.163582
21
0.538516
31
0.0
0
LINE
8
FRONT
10
0.163582
20
0.538516
30
0.0
11
0.162339
21
0.534096
31
0.0
0
LINE
8
FRONT
10
0.162339
20
0.534096
30
0.0
11
0.161542
21
0.529575
31
0.0
0
LINE
8
FRONT
10
0.161542
20
0.529575
30
0.0
11
0.161199
21
0.524997
31
0.0
0
LINE
8
FRONT
10
0.161199
20
0.524997
30
0.0
11
0.161313
21
0.520407
31
0.0
0
LINE
8
FRONT
10
0.161313
20
0.520407
30
0.0
11
0.161884
21
0.515852
31
0.0
0
LINE
8
FRONT
10
0.161884
20
0.515852
30
0.0
11
0.162905
21
0.511376
31
0.0
0
LINE
8
FRONT
10
0.162905
20
0.511376
30
0.0
11
0.164368
21
0.507024
31
0.0
0
LINE
8
FRONT
10
0.164368
20
0.507024
30
0.0
11
0.166256
21
0.502839
31
0.0
0
LINE
8
FRONT
10
0.166256
20
0.502839
30
0.0
11
0.168551
21
0.498863
31
0.0
0
LINE
8
FRONT
10
0.168551
20
0.498863
30
0.0
11
0.171231
21
0.495135
31
0.0
0
LINE
8
FRONT
10
0.171231
20
0.495135
30
0.0
11
0.174269
21
0.491693
31
0.0
0
LINE
8
FRONT
10
0.174269
20
0.491693
30
0.0
11
0.177635
21
0.488570
31
0.0
0
LINE
8
FRONT
10
0.177635
20
0.488570
30
0.0
11
0.181294
21
0.485798
31
0.0
0
LINE
8
FRONT
10
0.181294
20
0.485798
30
0.0
11
0.185212
21
0.483404
31
0.0
0
LINE
8
FRONT
10
0.185212
20
0.483404
30
0.0
11
0.189348
21
0.481412
31
0.0
0
LINE
8
FRONT
10
0.189348
20
0.481412
30
0.0
11
0.193663
21
0.479842
31
0.0
0
LINE
8
FRONT
10
0.193663
20
0.479842
30
0.0
11
0.198112
21
0.478709
31
0.0
0
LINE
8
FRONT
10
0.198112
20
0.478709
30
0.0
11
0.202651
21
0.478025
31
0.0
0
LINE
8
FRONT
10
0.202651
20
0.478025
30
0.0
11
0.207237
21
0.477796
31
0.0
0
LINE
8
FRONT_HID
6
HIDDEN
10
0.226974
20
1.421875
30
0.0
11
0.187500
21
1.421875
31
0.0
0
LINE
8
FRONT_HID
6
HIDDEN
10
0.187500
20
1.421875
30
0.0
11
0.226974
21
1.421875
31
0.0
0
LINE
8
FRONT_HID
6
HIDDEN
10
0.226974
20
1.421875
30
0.0
11
0.226974
21
1.343750
31
0.0
0
LINE
8
FRONT_HID
6
HIDDEN
10
0.226974
20
1.343750
30
0.0
11
0.187500
21
1.343750
31
0.0
0
LINE
8
FRONT_HID
6
HIDDEN
10
0.187500
20
1.343750
30
0.0
11
0.226974
21
1.343750
31
0.0
0
LINE
8
FRONT_HID
6
HIDDEN
10
0.187500
20
1.343750
30
0.0
11
0.187500
21
1.421875
31
0.0
0
LINE
8
LEFT
10
0.633224
20
0.328125
30
0.0
11
0.742599
21
0.328125
31
0.0
0
LINE
8
LEFT
10
0.633224
20
1.283717
30
0.0
11
0.742599
21
1.283717
31
0.0
0
LINE
8
LEFT
10
0.742599
20
1.283717
30
0.0
11
0.742599
21
0.328125
31
0.0
0
LINE
8
LEFT
10
0.633224
20
1.283717
30
0.0
11
0.633224
21
0.328125
31
0.0
0
LINE
8
LEFT
10
0.633224
20
1.421875
30
0.0
11
0.633224
21
1.283717
31
0.0
0
LINE
8
LEFT
10
0.742599
20
1.421875
30
0.0
11
0.742599
21
1.283717
31
0.0
0
LINE
8
LEFT
10
0.633224
20
1.421875
30
0.0
11
0.742599
21
1.421875
31
0.0
0
LINE
8
LEFT_HID
6
HIDDEN
10
0.633224
20
0.477796
30
0.0
11
0.633224
21
0.569901
31
0.0
0
LINE
8
LEFT_HID
6
HIDDEN
10
0.633224
20
0.569901
30
0.0
11
0.633224
21
0.477796
31
0.0
0
LINE
8
LEFT_HID
6
HIDDEN
10
0.742599
20
0.477796
30
0.0
11
0.742599
21
0.569901
31
0.0
0
LINE
8
LEFT_HID
6
HIDDEN
10
0.742599
20
0.569901
30
0.0
11
0.742599
21
0.477796
31
0.0
0
LINE
8
LEFT_HID
6
HIDDEN
10
0.687911
20
1.421875
30
0.0
11
0.668174
21
1.421875
31
0.0
0
LINE
8
LEFT_HID
6
HIDDEN
10
0.668174
20
1.421875
30
0.0
11
0.707648
21
1.421875
31
0.0
0
LINE
8
LEFT_HID
6
HIDDEN
10
0.707648
20
1.421875
30
0.0
11
0.687911
21
1.421875
31
0.0
0
LINE
8
LEFT_HID
6
HIDDEN
10
0.633224
20
0.477796
30
0.0
11
0.742599
21
0.477796
31
0.0
0
LINE
8
LEFT_HID
6
HIDDEN
10
0.687911
20
1.343750
30
0.0
11
0.668174
21
1.343750
31
0.0
0
LINE
8
LEFT_HID
6
HIDDEN
10
0.668174
20
1.343750
30
0.0
11
0.707648
21
1.343750
31
0.0
0
LINE
8
LEFT_HID
6
HIDDEN
10
0.707648
20
1.343750
30
0.0
11
0.687911
21
1.343750
31
0.0
0
LINE
8
LEFT_HID
6
HIDDEN
10
0.742599
20
0.569901
30
0.0
11
0.633224
21
0.569901
31
0.0
0
LINE
8
LEFT_HID
6
HIDDEN
10
0.707648
20
1.343750
30
0.0
11
0.707648
21
1.421875
31
0.0
0
LINE
8
LEFT_HID
6
HIDDEN
10
0.668174
20
1.343750
30
0.0
11
0.668174
21
1.421875
31
0.0
0
LINE
8
TOP
10
0.000000
20
0.109375
30
0.0
11
0.000000
21
0.000000
31
0.0
0
LINE
8
TOP
10
0.414474
20
0.109375
30
0.0
11
0.414474
21
0.000000
31
0.0
0
LINE
8
TOP
10
0.414474
20
0.109375
30
0.0
11
0.264803
21
0.109375
31
0.0
0
LINE
8
TOP
10
0.264803
20
0.109375
30
0.0
11
0.149671
21
0.109375
31
0.0
0
LINE
8
TOP
10
0.149671
20
0.109375
30
0.0
11
0.000000
21
0.109375
31
0.0
0
LINE
8
TOP
10
0.414474
20
0.000000
30
0.0
11
0.264803
21
0.000000
31
0.0
0
LINE
8
TOP
10
0.264803
20
0.000000
30
0.0
11
0.149671
21
0.000000
31
0.0
0
LINE
8
TOP
10
0.149671
20
0.000000
30
0.0
11
0.000000
21
0.000000
31
0.0
0
LINE
8
TOP
10
0.264803
20
0.109375
30
0.0
11
0.264803
21
0.000000
31
0.0
0
LINE
8
TOP
10
0.149671
20
0.109375
30
0.0
11
0.149671
21
0.000000
31
0.0
0
LINE
8
TOP
10
0.226974
20
0.054688
30
0.0
11
0.226876
21
0.056653
31
0.0
0
LINE
8
TOP
10
0.226876
20
0.056653
30
0.0
11
0.226582
21
0.058598
31
0.0
0
LINE
8
TOP
10
0.226582
20
0.058598
30
0.0
11
0.226097
21
0.060505
31
0.0
0
LINE
8
TOP
10
0.226097
20
0.060505
30
0.0
11
0.225424
21
0.062354
31
0.0
0
LINE
8
TOP
10
0.225424
20
0.062354
30
0.0
11
0.224570
21
0.064127
31
0.0
0
LINE
8
TOP
10
0.224570
20
0.064127
30
0.0
11
0.223544
21
0.065806
31
0.0
0
LINE
8
TOP
10
0.223544
20
0.065806
30
0.0
11
0.222356
21
0.067374
31
0.0
0
LINE
8
TOP
10
0.222356
20
0.067374
30
0.0
11
0.221018
21
0.068816
31
0.0
0
LINE
8
TOP
10
0.221018
20
0.068816
30
0.0
11
0.219543
21
0.070118
31
0.0
0
LINE
8
TOP
10
0.219543
20
0.070118
30
0.0
11
0.217945
21
0.071267
31
0.0
0
LINE
8
TOP
10
0.217945
20
0.071267
30
0.0
11
0.216241
21
0.072251
31
0.0
0
LINE
8
TOP
10
0.216241
20
0.072251
30
0.0
11
0.214448
21
0.073060
31
0.0
0
LINE
8
TOP
10
0.214448
20
0.073060
30
0.0
11
0.212582
21
0.073687
31
0.0
0
LINE
8
TOP
10
0.212582
20
0.073687
30
0.0
11
0.210664
21
0.074124
31
0.0
0
LINE
8
TOP
10
0.210664
20
0.074124
30
0.0
11
0.208712
21
0.074369
31
0.0
0
LINE
8
TOP
10
0.208712
20
0.074369
30
0.0
11
0.206745
21
0.074418
31
0.0
0
LINE
8
TOP
10
0.206745
20
0.074418
30
0.0
11
0.204783
21
0.074271
31
0.0
0
LINE
8
TOP
10
0.204783
20
0.074271
30
0.0
11
0.202845
21
0.073929
31
0.0
0
LINE
8
TOP
10
0.202845
20
0.073929
30
0.0
11
0.200951
21
0.073397
31
0.0
0
LINE
8
TOP
10
0.200951
20
0.073397
30
0.0
11
0.199119
21
0.072678
31
0.0
0
LINE
8
TOP
10
0.199119
20
0.072678
30
0.0
11
0.197368
21
0.071780
31
0.0
0
LINE
8
TOP
10
0.197368
20
0.071780
30
0.0
11
0.195716
21
0.070713
31
0.0
0
LINE
8
TOP
10
0.195716
20
0.070713
30
0.0
11
0.194177
21
0.069486
31
0.0
0
LINE
8
TOP
10
0.194177
20
0.069486
30
0.0
11
0.192769
21
0.068112
31
0.0
0
LINE
8
TOP
10
0.192769
20
0.068112
30
0.0
11
0.191504
21
0.066605
31
0.0
0
LINE
8
TOP
10
0.191504
20
0.066605
30
0.0
11
0.190396
21
0.064979
31
0.0
0
LINE
8
TOP
10
0.190396
20
0.064979
30
0.0
11
0.189455
21
0.063251
31
0.0
0
LINE
8
TOP
10
0.189455
20
0.063251
30
0.0
11
0.188690
21
0.061438
31
0.0
0
LINE
8
TOP
10
0.188690
20
0.061438
30
0.0
11
0.188110
21
0.059558
31
0.0
0
LINE
8
TOP
10
0.188110
20
0.059558
30
0.0
11
0.187720
21
0.057629
31
0.0
0
LINE
8
TOP
10
0.187720
20
0.057629
30
0.0
11
0.187525
21
0.055671
31
0.0
0
LINE
8
TOP
10
0.187525
20
0.055671
30
0.0
11
0.187525
21
0.053704
31
0.0
0
LINE
8
TOP
10
0.187525
20
0.053704
30
0.0
11
0.187720
21
0.051746
31
0.0
0
LINE
8
TOP
10
0.187720
20
0.051746
30
0.0
11
0.188110
21
0.049817
31
0.0
0
LINE
8
TOP
10
0.188110
20
0.049817
30
0.0
11
0.188690
21
0.047937
31
0.0
0
LINE
8
TOP
10
0.188690
20
0.047937
30
0.0
11
0.189455
21
0.046124
31
0.0
0
LINE
8
TOP
10
0.189455
20
0.046124
30
0.0
11
0.190396
21
0.044396
31
0.0
0
LINE
8
TOP
10
0.190396
20
0.044396
30
0.0
11
0.191504
21
0.042770
31
0.0
0
LINE
8
TOP
10
0.191504
20
0.042770
30
0.0
11
0.192769
21
0.041263
31
0.0
0
LINE
8
TOP
10
0.192769
20
0.041263
30
0.0
11
0.194177
21
0.039889
31
0.0
0
LINE
8
TOP
10
0.194177
20
0.039889
30
0.0
11
0.195716
21
0.038662
31
0.0
0
LINE
8
TOP
10
0.195716
20
0.038662
30
0.0
11
0.197368
21
0.037595
31
0.0
0
LINE
8
TOP
10
0.197368
20
0.037595
30
0.0
11
0.199119
21
0.036697
31
0.0
0
LINE
8
TOP
10
0.199119
20
0.036697
30
0.0
11
0.200951
21
0.035978
31
0.0
0
LINE
8
TOP
10
0.200951
20
0.035978
30
0.0
11
0.202845
21
0.035446
31
0.0
0
LINE
8
TOP
10
0.202845
20
0.035446
30
0.0
11
0.204783
21
0.035104
31
0.0
0
LINE
8
TOP
10
0.204783
20
0.035104
30
0.0
11
0.206745
21
0.034957
31
0.0
0
LINE
8
TOP
10
0.206745
20
0.034957
30
0.0
11
0.208712
21
0.035006
31
0.0
0
LINE
8
TOP
10
0.208712
20
0.035006
30
0.0
11
0.210664
21
0.035251
31
0.0
0
LINE
8
TOP
10
0.210664
20
0.035251
30
0.0
11
0.212582
21
0.035688
31
0.0
0
LINE
8
TOP
10
0.212582
20
0.035688
30
0.0
11
0.214448
21
0.036315
31
0.0
0
LINE
8
TOP
10
0.214448
20
0.036315
30
0.0
11
0.216241
21
0.037124
31
0.0
0
LINE
8
TOP
10
0.216241
20
0.037124
30
0.0
11
0.217945
21
0.038108
31
0.0
0
LINE
8
TOP
10
0.217945
20
0.038108
30
0.0
11
0.219543
21
0.039257
31
0.0
0
LINE
8
TOP
10
0.219543
20
0.039257
30
0.0
11
0.221018
21
0.040559
31
0.0
0
LINE
8
TOP
10
0.221018
20
0.040559
30
0.0
11
0.222356
21
0.042001
31
0.0
0
LINE
8
TOP
10
0.222356
20
0.042001
30
0.0
11
0.223544
21
0.043569
31
0.0
0
LINE
8
TOP
10
0.223544
20
0.043569
30
0.0
11
0.224570
21
0.045248
31
0.0
0
LINE
8
TOP
10
0.224570
20
0.045248
30
0.0
11
0.225424
21
0.047021
31
0.0
0
LINE
8
TOP
10
0.225424
20
0.047021
30
0.0
11
0.226097
21
0.048870
31
0.0
0
LINE
8
TOP
10
0.226097
20
0.048870
30
0.0
11
0.226582
21
0.050777
31
0.0
0
LINE
8
TOP
10
0.226582
20
0.050777
30
0.0
11
0.226876
21
0.052722
31
0.0
0
LINE
8
TOP
10
0.226876
20
0.052722
30
0.0
11
0.226974
21
0.054688
31
0.0
0
LINE
8
TOP_HID
6
HIDDEN
10
0.000000
20
0.000000
30
0.0
11
0.414474
21
0.000000
31
0.0
0
LINE
8
TOP_HID
6
HIDDEN
10
0.000000
20
0.109375
30
0.0
11
0.414474
21
0.109375
31
0.0
0
LINE
8
TOP_HID
6
HIDDEN
10
0.207237
20
0.109375
30
0.0
11
0.253289
21
0.109375
31
0.0
0
LINE
8
TOP_HID
6
HIDDEN
10
0.253289
20
0.109375
30
0.0
11
0.161184
21
0.109375
31
0.0
0
LINE
8
TOP_HID
6
HIDDEN
10
0.161184
20
0.109375
30
0.0
11
0.207237
21
0.109375
31
0.0
0
LINE
8
TOP_HID
6
HIDDEN
10
0.207237
20
0.000000
30
0.0
11
0.253289
21
0.000000
31
0.0
0
LINE
8
TOP_HID
6
HIDDEN
10
0.253289
20
0.000000
30
0.0
11
0.161184
21
0.000000
31
0.0
0
LINE
8
TOP_HID
6
HIDDEN
10
0.161184
20
0.000000
30
0.0
11
0.207237
21
0.000000
31
0.0
0
LINE
8
TOP_HID
6
HIDDEN
10
0.253289
20
0.000000
30
0.0
11
0.253289
21
0.109375
31
0.0
0
LINE
8
TOP_HID
6
HIDDEN
10
0.161184
20
0.000000
30
0.0
11
0.161184
21
0.109375
31
0.0
0
ENDSEC
0
EOF
