0
SECTION
2
HEADER
9
$ACADVER
1
AC1009
0
ENDSEC
0
SECTION
2
TABLES
0
TABLE
2
LTYPE
70
3
0
LTYPE
2
CONTINUOUS
70
0
3
Solid line
72
65
73
0
40
0.0
0
LTYPE
2
HIDDEN
70
0
3
__ __ __ __ __
72
65
73
2
40
0.075789
49
0.050552
49
-0.025238
0
LTYPE
2
CENTER
70
0
3
___ _ ___ _ ___
72
65
73
4
40
0.176817
49
0.101027
49
-0.025238
49
0.025238
49
-0.025238
0
ENDTAB
0
TABLE
2
LAYER
70
7
0
LAYER
2
0
70
0
62
7
6
CONTINUOUS
0
LAYER
2
FRONT
70
0
62
7
6
CONTINUOUS
0
LAYER
2
FRONT_HID
70
0
62
7
6
HIDDEN
0
LAYER
2
LEFT
70
0
62
7
6
CONTINUOUS
0
LAYER
2
LEFT_HID
70
0
62
7
6
HIDDEN
0
LAYER
2
TOP
70
0
62
7
6
CONTINUOUS
0
LAYER
2
TOP_HID
70
0
62
7
6
HIDDEN
0
ENDTAB
0
ENDSEC
0
SECTION
2
ENTITIES
0
LINE
8
FRONT
10
1.515789
20
1.818476
30
0.0
11
0.000000
21
1.818476
31
0.0
0
LINE
8
FRONT
10
1.515789
20
1.818476
30
0.0
11
1.515789
21
2.045039
31
0.0
0
LINE
8
FRONT
10
1.515789
20
2.045039
30
0.0
11
0.000000
21
2.045039
31
0.0
0
LINE
8
FRONT
10
0.000000
20
2.045039
30
0.0
11
0.000000
21
1.818476
31
0.0
0
LINE
8
FRONT_HID
6
HIDDEN
10
1.389474
20
1.818476
30
0.0
11
0.126316
21
1.818476
31
0.0
0
LINE
8
FRONT_HID
6
HIDDEN
10
0.126316
20
1.818476
30
0.0
11
1.389474
21
1.818476
31
0.0
0
LINE
8
FRONT_HID
6
HIDDEN
10
1.389474
20
2.045039
30
0.0
11
0.126316
21
2.045039
31
0.0
0
LINE
8
FRONT_HID
6
HIDDEN
10
0.126316
20
2.045039
30
0.0
11
1.389474
21
2.045039
31
0.0
0
LINE
8
FRONT_HID
6
HIDDEN
10
1.389474
20
1.818476
30
0.0
11
1.389474
21
2.045039
31
0.0
0
LINE
8
FRONT_HID
6
HIDDEN
10
0.679687
20
1.818476
30
0.0
11
0.677387
21
1.912198
31
0.0
0
LINE
8
FRONT_HID
6
HIDDEN
10
0.677387
20
1.912198
30
0.0
11
0.817927
21
1.915648
31
0.0
0
LINE
8
FRONT_HID
6
HIDDEN
10
0.820228
20
1.821926
30
0.0
11
0.817927
21
1.915648
31
0.0
0
LINE
8
FRONT_HID
6
HIDDEN
10
0.679688
20
1.818476
30
0.0
11
0.820228
21
1.821926
31
0.0
0
LINE
8
FRONT_HID
6
HIDDEN
10
0.682411
20
1.818543
30
0.0
11
0.680110
21
1.912265
31
0.0
0
LINE
8
FRONT_HID
6
HIDDEN
10
0.680110
20
1.912265
30
0.0
11
0.677387
21
1.912198
31
0.0
0
LINE
8
FRONT_HID
6
HIDDEN
10
0.682411
20
1.818543
30
0.0
11
0.679687
21
1.818476
31
0.0
0
LINE
8
FRONT_HID
6
HIDDEN
10
0.817927
20
1.915648
30
0.0
11
0.820651
21
1.915715
31
0.0
0
LINE
8
FRONT_HID
6
HIDDEN
10
0.822952
20
1.821993
30
0.0
11
0.820651
21
1.915715
31
0.0
0
LINE
8
FRONT_HID
6
HIDDEN
10
0.820228
20
1.821926
30
0.0
11
0.822952
21
1.821993
31
0.0
0
LINE
8
FRONT_HID
6
HIDDEN
10
0.822952
20
1.821993
30
0.0
11
0.682411
21
1.818543
31
0.0
0
LINE
8
FRONT_HID
6
HIDDEN
10
0.820651
20
1.915715
30
0.0
11
0.680110
21
1.912265
31
0.0
0
LINE
8
FRONT_HID
6
HIDDEN
10
0.679687
20
1.818476
30
0.0
11
0.820228
21
1.821926
31
0.0
0
LINE
8
FRONT_HID
6
HIDDEN
10
0.820228
20
1.821926
30
0.0
11
0.817927
21
1.915648
31
0.0
0
LINE
8
FRONT_HID
6
HIDDEN
10
0.677387
20
1.912198
30
0.0
11
0.817927
21
1.915648
31
0.0
0
LINE
8
FRONT_HID
6
HIDDEN
10
0.679687
20
1.818476
30
0.0
11
0.677387
21
1.912198
31
0.0
0
LINE
8
FRONT_HID
6
HIDDEN
10
0.682411
20
1.818543
30
0.0
11
0.680110
21
1.912265
31
0.0
0
LINE
8
FRONT_HID
6
HIDDEN
10
0.680110
20
1.912265
30
0.0
11
0.677387
21
1.912198
31
0.0
0
LINE
8
FRONT_HID
6
HIDDEN
10
0.682411
20
1.818543
30
0.0
11
0.679687
21
1.818476
31
0.0
0
LINE
8
FRONT_HID
6
HIDDEN
10
0.817927
20
1.915648
30
0.0
11
0.820651
21
1.915715
31
0.0
0
LINE
8
FRONT_HID
6
HIDDEN
10
0.822952
20
1.821993
30
0.0
11
0.820651
21
1.915715
31
0.0
0
LINE
8
FRONT_HID
6
HIDDEN
10
0.820228
20
1.821926
30
0.0
11
0.822952
21
1.821993
31
0.0
0
LINE
8
FRONT_HID
6
HIDDEN
10
0.822952
20
1.821993
30
0.0
11
0.682411
21
1.818543
31
0.0
0
LINE
8
FRONT_HID
6
HIDDEN
10
0.820651
20
1.915715
30
0.0
11
0.680110
21
1.912265
31
0.0
0
LINE
8
FRONT_HID
6
HIDDEN
10
0.126316
20
2.045039
30
0.0
11
0.126316
21
1.818476
31
0.0
0
LINE
8
LEFT
10
1.818947
20
1.818476
30
0.0
11
3.334737
21
1.818476
31
0.0
0
LINE
8
LEFT
10
1.818947
20
2.045039
30
0.0
11
3.334737
21
2.045039
31
0.0
0
LINE
8
LEFT
10
1.818947
20
2.045039
30
0.0
11
1.818947
21
1.818476
31
0.0
0
LINE
8
LEFT
10
3.334737
20
2.045039
30
0.0
11
3.334737
21
1.818476
31
0.0
0
LINE
8
LEFT_HID
6
HIDDEN
10
2.576842
20
1.818476
30
0.0
11
1.818947
21
1.818476
31
0.0
0
LINE
8
LEFT_HID
6
HIDDEN
10
3.334737
20
1.818476
30
0.0
11
2.576842
21
1.818476
31
0.0
0
LINE
8
LEFT_HID
6
HIDDEN
10
2.576842
20
2.045039
30
0.0
11
1.818947
21
2.045039
31
0.0
0
LINE
8
LEFT_HID
6
HIDDEN
10
3.334737
20
2.045039
30
0.0
11
2.576842
21
2.045039
31
0.0
0
LINE
8
LEFT_HID
6
HIDDEN
10
2.576842
20
1.818476
30
0.0
11
1.945263
21
1.818476
31
0.0
0
LINE
8
LEFT_HID
6
HIDDEN
10
1.945263
20
1.818476
30
0.0
11
3.208421
21
1.818476
31
0.0
0
LINE
8
LEFT_HID
6
HIDDEN
10
3.208421
20
1.818476
30
0.0
11
2.576842
21
1.818476
31
0.0
0
LINE
8
LEFT_HID
6
HIDDEN
10
2.576842
20
2.045039
30
0.0
11
1.945263
21
2.045039
31
0.0
0
LINE
8
LEFT_HID
6
HIDDEN
10
1.945263
20
2.045039
30
0.0
11
3.208421
21
2.045039
31
0.0
0
LINE
8
LEFT_HID
6
HIDDEN
10
3.208421
20
2.045039
30
0.0
11
2.576842
21
2.045039
31
0.0
0
LINE
8
LEFT_HID
6
HIDDEN
10
1.826842
20
1.818476
30
0.0
11
1.826842
21
1.912198
31
0.0
0
LINE
8
LEFT_HID
6
HIDDEN
10
1.826842
20
1.912198
30
0.0
11
1.826749
21
1.912217
31
0.0
0
LINE
8
LEFT_HID
6
HIDDEN
10
1.826749
20
1.912217
30
0.0
11
1.826655
21
1.912235
31
0.0
0
LINE
8
LEFT_HID
6
HIDDEN
10
1.826655
20
1.912235
30
0.0
11
1.826562
21
1.912254
31
0.0
0
LINE
8
LEFT_HID
6
HIDDEN
10
1.826562
20
1.912254
30
0.0
11
1.826469
21
1.912274
31
0.0
0
LINE
8
LEFT_HID
6
HIDDEN
10
1.826469
20
1.912274
30
0.0
11
1.826375
21
1.912293
31
0.0
0
LINE
8
LEFT_HID
6
HIDDEN
10
1.826375
20
1.912293
30
0.0
11
1.826282
21
1.912312
31
0.0
0
LINE
8
LEFT_HID
6
HIDDEN
10
1.826282
20
1.912312
30
0.0
11
1.826189
21
1.912332
31
0.0
0
LINE
8
LEFT_HID
6
HIDDEN
10
1.826189
20
1.912332
30
0.0
11
1.826096
21
1.912352
31
0.0
0
LINE
8
LEFT_HID
6
HIDDEN
10
1.826096
20
1.912352
30
0.0
11
1.826003
21
1.912372
31
0.0
0
LINE
8
LEFT_HID
6
HIDDEN
10
1.826003
20
1.912372
30
0.0
11
1.825910
21
1.912392
31
0.0
0
LINE
8
LEFT_HID
6
HIDDEN
10
1.825910
20
1.912392
30
0.0
11
1.825817
21
1.912413
31
0.0
0
LINE
8
LEFT_HID
6
HIDDEN
10
1.825817
20
1.912413
30
0.0
11
1.825724
21
1.912434
31
0.0
0
LINE
8
LEFT_HID
6
HIDDEN
10
1.825724
20
1.912434
30
0.0
11
1.825631
21
1.912454
31
0.0
0
LINE
8
LEFT_HID
6
HIDDEN
10
1.825631
20
1.912454
30
0.0
11
1.825538
21
1.912476
31
0.0
0
LINE
8
LEFT_HID
6
HIDDEN
10
1.825538
20
1.912476
30
0.0
11
1.825445
21
1.912497
31
0.0
0
LINE
8
LEFT_HID
6
HIDDEN
10
1.825445
20
1.912497
30
0.0
11
1.825352
21
1.912519
31
0.0
0
LINE
8
LEFT_HID
6
HIDDEN
10
1.825352
20
1.912519
30
0.0
11
1.825260
21
1.912540
31
0.0
0
LINE
8
LEFT_HID
6
HIDDEN
10
1.825260
20
1.912540
30
0.0
11
1.825167
21
1.912562
31
0.0
0
LINE
8
LEFT_HID
6
HIDDEN
10
1.825167
20
1.912562
30
0.0
11
1.825075
21
1.912585
31
0.0
0
LINE
8
LEFT_HID
6
HIDDEN
10
1.825075
20
1.912585
30
0.0
11
1.824982
21
1.912607
31
0.0
0
LINE
8
LEFT_HID
6
HIDDEN
10
1.824982
20
1.912607
30
0.0
11
1.824890
21
1.912630
31
0.0
0
LINE
8
LEFT_HID
6
HIDDEN
10
1.824890
20
1.912630
30
0.0
11
1.824797
21
1.912654
31
0.0
0
LINE
8
LEFT_HID
6
HIDDEN
10
1.824797
20
1.912654
30
0.0
11
1.824705
21
1.912677
31
0.0
0
LINE
8
LEFT_HID
6
HIDDEN
10
1.824705
20
1.912677
30
0.0
11
1.824613
21
1.912701
31
0.0
0
LINE
8
LEFT_HID
6
HIDDEN
10
1.824613
20
1.912701
30
0.0
11
1.824521
21
1.912725
31
0.0
0
LINE
8
LEFT_HID
6
HIDDEN
10
1.824521
20
1.912725
30
0.0
11
1.824429
21
1.912750
31
0.0
0
LINE
8
LEFT_HID
6
HIDDEN
10
1.824429
20
1.912750
30
0.0
11
1.824337
21
1.912775
31
0.0
0
LINE
8
LEFT_HID
6
HIDDEN
10
1.824337
20
1.912775
30
0.0
11
1.824245
21
1.912800
31
0.0
0
LINE
8
LEFT_HID
6
HIDDEN
10
1.824245
20
1.912800
30
0.0
11
1.824153
21
1.912825
31
0.0
0
LINE
8
LEFT_HID
6
HIDDEN
10
1.824153
20
1.912825
30
0.0
11
1.824061
21
1.912851
31
0.0
0
LINE
8
LEFT_HID
6
HIDDEN
10
1.824061
20
1.912851
30
0.0
11
1.823970
21
1.912878
31
0.0
0
LINE
8
LEFT_HID
6
HIDDEN
10
1.823970
20
1.912878
30
0.0
11
1.823879
21
1.912905
31
0.0
0
LINE
8
LEFT_HID
6
HIDDEN
10
1.823879
20
1.912905
30
0.0
11
1.823787
21
1.912932
31
0.0
0
LINE
8
LEFT_HID
6
HIDDEN
10
1.823787
20
1.912932
30
0.0
11
1.823696
21
1.912960
31
0.0
0
LINE
8
LEFT_HID
6
HIDDEN
10
1.823696
20
1.912960
30
0.0
11
1.823605
21
1.912988
31
0.0
0
LINE
8
LEFT_HID
6
HIDDEN
10
1.823605
20
1.912988
30
0.0
11
1.823515
21
1.913017
31
0.0
0
LINE
8
LEFT_HID
6
HIDDEN
10
1.823515
20
1.913017
30
0.0
11
1.823424
21
1.913047
31
0.0
0
LINE
8
LEFT_HID
6
HIDDEN
10
1.823424
20
1.913047
30
0.0
11
1.823334
21
1.913077
31
0.0
0
LINE
8
LEFT_HID
6
HIDDEN
10
1.823334
20
1.913077
30
0.0
11
1.823244
21
1.913108
31
0.0
0
LINE
8
LEFT_HID
6
HIDDEN
10
1.823244
20
1.913108
30
0.0
11
1.823154
21
1.913139
31
0.0
0
LINE
8
LEFT_HID
6
HIDDEN
10
1.823154
20
1.913139
30
0.0
11
1.823064
21
1.913172
31
0.0
0
LINE
8
LEFT_HID
6
HIDDEN
10
1.823064
20
1.913172
30
0.0
11
1.822975
21
1.913205
31
0.0
0
LINE
8
LEFT_HID
6
HIDDEN
10
1.822975
20
1.913205
30
0.0
11
1.822886
21
1.913239
31
0.0
0
LINE
8
LEFT_HID
6
HIDDEN
10
1.822886
20
1.913239
30
0.0
11
1.822797
21
1.913273
31
0.0
0
LINE
8
LEFT_HID
6
HIDDEN
10
1.822797
20
1.913273
30
0.0
11
1.822709
21
1.913309
31
0.0
0
LINE
8
LEFT_HID
6
HIDDEN
10
1.822709
20
1.913309
30
0.0
11
1.822621
21
1.913346
31
0.0
0
LINE
8
LEFT_HID
6
HIDDEN
10
1.822621
20
1.913346
30
0.0
11
1.822534
21
1.913384
31
0.0
0
LINE
8
LEFT_HID
6
HIDDEN
10
1.822534
20
1.913384
30
0.0
11
1.822447
21
1.913424
31
0.0
0
LINE
8
LEFT_HID
6
HIDDEN
10
1.822447
20
1.913424
30
0.0
11
1.822361
21
1.913465
31
0.0
0
LINE
8
LEFT_HID
6
HIDDEN
10
1.822361
20
1.913465
30
0.0
11
1.822276
21
1.913507
31
0.0
0
LINE
8
LEFT_HID
6
HIDDEN
10
1.822276
20
1.913507
30
0.0
11
1.822192
21
1.913551
31
0.0
0
LINE
8
LEFT_HID
6
HIDDEN
10
1.822192
20
1.913551
30
0.0
11
1.822108
21
1.913597
31
0.0
0
LINE
8
LEFT_HID
6
HIDDEN
10
1.822108
20
1.913597
30
0.0
11
1.822026
21
1.913646
31
0.0
0
LINE
8
LEFT_HID
6
HIDDEN
10
1.822026
20
1.913646
30
0.0
11
1.821946
21
1.913697
31
0.0
0
LINE
8
LEFT_HID
6
HIDDEN
10
1.821946
20
1.913697
30
0.0
11
1.821867
21
1.913751
31
0.0
0
LINE
8
LEFT_HID
6
HIDDEN
10
1.821867
20
1.913751
30
0.0
11
1.821791
21
1.913808
31
0.0
0
LINE
8
LEFT_HID
6
HIDDEN
10
1.821791
20
1.913808
30
0.0
11
1.821718
21
1.913869
31
0.0
0
LINE
8
LEFT_HID
6
HIDDEN
10
1.821718
20
1.913869
30
0.0
11
1.821650
21
1.913935
31
0.0
0
LINE
8
LEFT_HID
6
HIDDEN
10
1.821650
20
1.913935
30
0.0
11
1.821586
21
1.914006
31
0.0
0
LINE
8
LEFT_HID
6
HIDDEN
10
1.821586
20
1.914006
30
0.0
11
1.821531
21
1.914084
31
0.0
0
LINE
8
LEFT_HID
6
HIDDEN
10
1.821531
20
1.914084
30
0.0
11
1.821487
21
1.914168
31
0.0
0
LINE
8
LEFT_HID
6
HIDDEN
10
1.821487
20
1.914168
30
0.0
11
1.821458
21
1.914259
31
0.0
0
LINE
8
LEFT_HID
6
HIDDEN
10
1.821458
20
1.914259
30
0.0
11
1.821447
21
1.914353
31
0.0
0
LINE
8
LEFT_HID
6
HIDDEN
10
1.821447
20
1.914353
30
0.0
11
1.823391
21
1.915648
31
0.0
0
LINE
8
LEFT_HID
6
HIDDEN
10
1.823391
20
1.821926
30
0.0
11
1.823391
21
1.915648
31
0.0
0
LINE
8
LEFT_HID
6
HIDDEN
10
1.826842
20
1.818476
30
0.0
11
1.826749
21
1.818495
31
0.0
0
LINE
8
LEFT_HID
6
HIDDEN
10
1.826749
20
1.818495
30
0.0
11
1.826655
21
1.818514
31
0.0
0
LINE
8
LEFT_HID
6
HIDDEN
10
1.826655
20
1.818514
30
0.0
11
1.826562
21
1.818533
31
0.0
0
LINE
8
LEFT_HID
6
HIDDEN
10
1.826562
20
1.818533
30
0.0
11
1.826469
21
1.818552
31
0.0
0
LINE
8
LEFT_HID
6
HIDDEN
10
1.826469
20
1.818552
30
0.0
11
1.826375
21
1.818571
31
0.0
0
LINE
8
LEFT_HID
6
HIDDEN
10
1.826375
20
1.818571
30
0.0
11
1.826282
21
1.818591
31
0.0
0
LINE
8
LEFT_HID
6
HIDDEN
10
1.826282
20
1.818591
30
0.0
11
1.826189
21
1.818610
31
0.0
0
LINE
8
LEFT_HID
6
HIDDEN
10
1.826189
20
1.818610
30
0.0
11
1.826096
21
1.818630
31
0.0
0
LINE
8
LEFT_HID
6
HIDDEN
10
1.826096
20
1.818630
30
0.0
11
1.826003
21
1.818650
31
0.0
0
LINE
8
LEFT_HID
6
HIDDEN
10
1.826003
20
1.818650
30
0.0
11
1.825910
21
1.818671
31
0.0
0
LINE
8
LEFT_HID
6
HIDDEN
10
1.825910
20
1.818671
30
0.0
11
1.825817
21
1.818691
31
0.0
0
LINE
8
LEFT_HID
6
HIDDEN
10
1.825817
20
1.818691
30
0.0
11
1.825724
21
1.818712
31
0.0
0
LINE
8
LEFT_HID
6
HIDDEN
10
1.825724
20
1.818712
30
0.0
11
1.825631
21
1.818733
31
0.0
0
LINE
8
LEFT_HID
6
HIDDEN
10
1.825631
20
1.818733
30
0.0
11
1.825538
21
1.818754
31
0.0
0
LINE
8
LEFT_HID
6
HIDDEN
10
1.825538
20
1.818754
30
0.0
11
1.825445
21
1.818775
31
0.0
0
LINE
8
LEFT_HID
6
HIDDEN
10
1.825445
20
1.818775
30
0.0
11
1.825352
21
1.818797
31
0.0
0
LINE
8
LEFT_HID
6
HIDDEN
10
1.825352
20
1.818797
30
0.0
11
1.825260
21
1.818819
31
0.0
0
LINE
8
LEFT_HID
6
HIDDEN
10
1.825260
20
1.818819
30
0.0
11
1.825167
21
1.818841
31
0.0
0
LINE
8
LEFT_HID
6
HIDDEN
10
1.825167
20
1.818841
30
0.0
11
1.825075
21
1.818863
31
0.0
0
LINE
8
LEFT_HID
6
HIDDEN
10
1.825075
20
1.818863
30
0.0
11
1.824982
21
1.818886
31
0.0
0
LINE
8
LEFT_HID
6
HIDDEN
10
1.824982
20
1.818886
30
0.0
11
1.824890
21
1.818909
31
0.0
0
LINE
8
LEFT_HID
6
HIDDEN
10
1.824890
20
1.818909
30
0.0
11
1.824797
21
1.818932
31
0.0
0
LINE
8
LEFT_HID
6
HIDDEN
10
1.824797
20
1.818932
30
0.0
11
1.824705
21
1.818955
31
0.0
0
LINE
8
LEFT_HID
6
HIDDEN
10
1.824705
20
1.818955
30
0.0
11
1.824613
21
1.818979
31
0.0
0
LINE
8
LEFT_HID
6
HIDDEN
10
1.824613
20
1.818979
30
0.0
11
1.824521
21
1.819003
31
0.0
0
LINE
8
LEFT_HID
6
HIDDEN
10
1.824521
20
1.819003
30
0.0
11
1.824429
21
1.819028
31
0.0
0
LINE
8
LEFT_HID
6
HIDDEN
10
1.824429
20
1.819028
30
0.0
11
1.824337
21
1.819053
31
0.0
0
LINE
8
LEFT_HID
6
HIDDEN
10
1.824337
20
1.819053
30
0.0
11
1.824245
21
1.819078
31
0.0
0
LINE
8
LEFT_HID
6
HIDDEN
10
1.824245
20
1.819078
30
0.0
11
1.824153
21
1.819104
31
0.0
0
LINE
8
LEFT_HID
6
HIDDEN
10
1.824153
20
1.819104
30
0.0
11
1.824061
21
1.819130
31
0.0
0
LINE
8
LEFT_HID
6
HIDDEN
10
1.824061
20
1.819130
30
0.0
11
1.823970
21
1.819156
31
0.0
0
LINE
8
LEFT_HID
6
HIDDEN
10
1.823970
20
1.819156
30
0.0
11
1.823879
21
1.819183
31
0.0
0
LINE
8
LEFT_HID
6
HIDDEN
10
1.823879
20
1.819183
30
0.0
11
1.823787
21
1.819210
31
0.0
0
LINE
8
LEFT_HID
6
HIDDEN
10
1.823787
20
1.819210
30
0.0
11
1.823696
21
1.819238
31
0.0
0
LINE
8
LEFT_HID
6
HIDDEN
10
1.823696
20
1.819238
30
0.0
11
1.823605
21
1.819267
31
0.0
0
LINE
8
LEFT_HID
6
HIDDEN
10
1.823605
20
1.819267
30
0.0
11
1.823515
21
1.819296
31
0.0
0
LINE
8
LEFT_HID
6
HIDDEN
10
1.823515
20
1.819296
30
0.0
11
1.823424
21
1.819325
31
0.0
0
LINE
8
LEFT_HID
6
HIDDEN
10
1.823424
20
1.819325
30
0.0
11
1.823334
21
1.819355
31
0.0
0
LINE
8
LEFT_HID
6
HIDDEN
10
1.823334
20
1.819355
30
0.0
11
1.823244
21
1.819386
31
0.0
0
LINE
8
LEFT_HID
6
HIDDEN
10
1.823244
20
1.819386
30
0.0
11
1.823154
21
1.819418
31
0.0
0
LINE
8
LEFT_HID
6
HIDDEN
10
1.823154
20
1.819418
30
0.0
11
1.823064
21
1.819450
31
0.0
0
LINE
8
LEFT_HID
6
HIDDEN
10
1.823064
20
1.819450
30
0.0
11
1.822975
21
1.819483
31
0.0
0
LINE
8
LEFT_HID
6
HIDDEN
10
1.822975
20
1.819483
30
0.0
11
1.822886
21
1.819517
31
0.0
0
LINE
8
LEFT_HID
6
HIDDEN
10
1.822886
20
1.819517
30
0.0
11
1.822797
21
1.819552
31
0.0
0
LINE
8
LEFT_HID
6
HIDDEN
10
1.822797
20
1.819552
30
0.0
11
1.822709
21
1.819588
31
0.0
0
LINE
8
LEFT_HID
6
HIDDEN
10
1.822709
20
1.819588
30
0.0
11
1.822621
21
1.819624
31
0.0
0
LINE
8
LEFT_HID
6
HIDDEN
10
1.822621
20
1.819624
30
0.0
11
1.822534
21
1.819663
31
0.0
0
LINE
8
LEFT_HID
6
HIDDEN
10
1.822534
20
1.819663
30
0.0
11
1.822447
21
1.819702
31
0.0
0
LINE
8
LEFT_HID
6
HIDDEN
10
1.822447
20
1.819702
30
0.0
11
1.822361
21
1.819743
31
0.0
0
LINE
8
LEFT_HID
6
HIDDEN
10
1.822361
20
1.819743
30
0.0
11
1.822276
21
1.819785
31
0.0
0
LINE
8
LEFT_HID
6
HIDDEN
10
1.822276
20
1.819785
30
0.0
11
1.822192
21
1.819829
31
0.0
0
LINE
8
LEFT_HID
6
HIDDEN
10
1.822192
20
1.819829
30
0.0
11
1.822108
21
1.819876
31
0.0
0
LINE
8
LEFT_HID
6
HIDDEN
10
1.822108
20
1.819876
30
0.0
11
1.822026
21
1.819924
31
0.0
0
LINE
8
LEFT_HID
6
HIDDEN
10
1.822026
20
1.819924
30
0.0
11
1.821946
21
1.819975
31
0.0
0
LINE
8
LEFT_HID
6
HIDDEN
10
1.821946
20
1.819975
30
0.0
11
1.821867
21
1.820029
31
0.0
0
LINE
8
LEFT_HID
6
HIDDEN
10
1.821867
20
1.820029
30
0.0
11
1.821791
21
1.820086
31
0.0
0
LINE
8
LEFT_HID
6
HIDDEN
10
1.821791
20
1.820086
30
0.0
11
1.821718
21
1.820147
31
0.0
0
LINE
8
LEFT_HID
6
HIDDEN
10
1.821718
20
1.820147
30
0.0
11
1.821650
21
1.820213
31
0.0
0
LINE
8
LEFT_HID
6
HIDDEN
10
1.821650
20
1.820213
30
0.0
11
1.821586
21
1.820285
31
0.0
0
LINE
8
LEFT_HID
6
HIDDEN
10
1.821586
20
1.820285
30
0.0
11
1.821531
21
1.820362
31
0.0
0
LINE
8
LEFT_HID
6
HIDDEN
10
1.821531
20
1.820362
30
0.0
11
1.821487
21
1.820446
31
0.0
0
LINE
8
LEFT_HID
6
HIDDEN
10
1.821487
20
1.820446
30
0.0
11
1.821458
21
1.820537
31
0.0
0
LINE
8
LEFT_HID
6
HIDDEN
10
1.821458
20
1.820537
30
0.0
11
1.821447
21
1.820631
31
0.0
0
LINE
8
LEFT_HID
6
HIDDEN
10
1.821447
20
1.820631
30
0.0
11
1.823391
21
1.821926
31
0.0
0
LINE
8
LEFT_HID
6
HIDDEN
10
1.937828
20
1.818543
30
0.0
11
1.937828
21
1.912265
31
0.0
0
LINE
8
LEFT_HID
6
HIDDEN
10
1.937828
20
1.912265
30
0.0
11
1.826842
21
1.912198
31
0.0
0
LINE
8
LEFT_HID
6
HIDDEN
10
1.937828
20
1.818543
30
0.0
11
1.826842
21
1.818476
31
0.0
0
LINE
8
LEFT_HID
6
HIDDEN
10
1.823391
20
1.915648
30
0.0
11
1.934377
21
1.915715
31
0.0
0
LINE
8
LEFT_HID
6
HIDDEN
10
1.934377
20
1.821993
30
0.0
11
1.934377
21
1.915715
31
0.0
0
LINE
8
LEFT_HID
6
HIDDEN
10
1.823391
20
1.821926
30
0.0
11
1.934377
21
1.821993
31
0.0
0
LINE
8
LEFT_HID
6
HIDDEN
10
1.934377
20
1.821993
30
0.0
11
1.932025
21
1.820650
31
0.0
0
LINE
8
LEFT_HID
6
HIDDEN
10
1.932025
20
1.820650
30
0.0
11
1.932038
21
1.820550
31
0.0
0
LINE
8
LEFT_HID
6
HIDDEN
10
1.932038
20
1.820550
30
0.0
11
1.932074
21
1.820456
31
0.0
0
LINE
8
LEFT_HID
6
HIDDEN
10
1.932074
20
1.820456
30
0.0
11
1.932127
21
1.820370
31
0.0
0
LINE
8
LEFT_HID
6
HIDDEN
10
1.932127
20
1.820370
30
0.0
11
1.932191
21
1.820293
31
0.0
0
LINE
8
LEFT_HID
6
HIDDEN
10
1.932191
20
1.820293
30
0.0
11
1.932263
21
1.820222
31
0.0
0
LINE
8
LEFT_HID
6
HIDDEN
10
1.932263
20
1.820222
30
0.0
11
1.932341
21
1.820157
31
0.0
0
LINE
8
LEFT_HID
6
HIDDEN
10
1.932341
20
1.820157
30
0.0
11
1.932422
21
1.820098
31
0.0
0
LINE
8
LEFT_HID
6
HIDDEN
10
1.932422
20
1.820098
30
0.0
11
1.932506
21
1.820042
31
0.0
0
LINE
8
LEFT_HID
6
HIDDEN
10
1.932506
20
1.820042
30
0.0
11
1.932593
21
1.819990
31
0.0
0
LINE
8
LEFT_HID
6
HIDDEN
10
1.932593
20
1.819990
30
0.0
11
1.932681
21
1.819940
31
0.0
0
LINE
8
LEFT_HID
6
HIDDEN
10
1.932681
20
1.819940
30
0.0
11
1.932770
21
1.819893
31
0.0
0
LINE
8
LEFT_HID
6
HIDDEN
10
1.932770
20
1.819893
30
0.0
11
1.932861
21
1.819849
31
0.0
0
LINE
8
LEFT_HID
6
HIDDEN
10
1.932861
20
1.819849
30
0.0
11
1.932952
21
1.819806
31
0.0
0
LINE
8
LEFT_HID
6
HIDDEN
10
1.932952
20
1.819806
30
0.0
11
1.933045
21
1.819765
31
0.0
0
LINE
8
LEFT_HID
6
HIDDEN
10
1.933045
20
1.819765
30
0.0
11
1.933138
21
1.819726
31
0.0
0
LINE
8
LEFT_HID
6
HIDDEN
10
1.933138
20
1.819726
30
0.0
11
1.933231
21
1.819688
31
0.0
0
LINE
8
LEFT_HID
6
HIDDEN
10
1.933231
20
1.819688
30
0.0
11
1.933325
21
1.819651
31
0.0
0
LINE
8
LEFT_HID
6
HIDDEN
10
1.933325
20
1.819651
30
0.0
11
1.933420
21
1.819615
31
0.0
0
LINE
8
LEFT_HID
6
HIDDEN
10
1.933420
20
1.819615
30
0.0
11
1.933514
21
1.819581
31
0.0
0
LINE
8
LEFT_HID
6
HIDDEN
10
1.933514
20
1.819581
30
0.0
11
1.933610
21
1.819547
31
0.0
0
LINE
8
LEFT_HID
6
HIDDEN
10
1.933610
20
1.819547
30
0.0
11
1.933705
21
1.819515
31
0.0
0
LINE
8
LEFT_HID
6
HIDDEN
10
1.933705
20
1.819515
30
0.0
11
1.933801
21
1.819483
31
0.0
0
LINE
8
LEFT_HID
6
HIDDEN
10
1.933801
20
1.819483
30
0.0
11
1.933897
21
1.819452
31
0.0
0
LINE
8
LEFT_HID
6
HIDDEN
10
1.933897
20
1.819452
30
0.0
11
1.933993
21
1.819421
31
0.0
0
LINE
8
LEFT_HID
6
HIDDEN
10
1.933993
20
1.819421
30
0.0
11
1.934090
21
1.819391
31
0.0
0
LINE
8
LEFT_HID
6
HIDDEN
10
1.934090
20
1.819391
30
0.0
11
1.934186
21
1.819362
31
0.0
0
LINE
8
LEFT_HID
6
HIDDEN
10
1.934186
20
1.819362
30
0.0
11
1.934283
21
1.819334
31
0.0
0
LINE
8
LEFT_HID
6
HIDDEN
10
1.934283
20
1.819334
30
0.0
11
1.934380
21
1.819306
31
0.0
0
LINE
8
LEFT_HID
6
HIDDEN
10
1.934380
20
1.819306
30
0.0
11
1.934477
21
1.819279
31
0.0
0
LINE
8
LEFT_HID
6
HIDDEN
10
1.934477
20
1.819279
30
0.0
11
1.934575
21
1.819252
31
0.0
0
LINE
8
LEFT_HID
6
HIDDEN
10
1.934575
20
1.819252
30
0.0
11
1.934672
21
1.819225
31
0.0
0
LINE
8
LEFT_HID
6
HIDDEN
10
1.934672
20
1.819225
30
0.0
11
1.934770
21
1.819199
31
0.0
0
LINE
8
LEFT_HID
6
HIDDEN
10
1.934770
20
1.819199
30
0.0
11
1.934867
21
1.819174
31
0.0
0
LINE
8
LEFT_HID
6
HIDDEN
10
1.934867
20
1.819174
30
0.0
11
1.934965
21
1.819149
31
0.0
0
LINE
8
LEFT_HID
6
HIDDEN
10
1.934965
20
1.819149
30
0.0
11
1.935063
21
1.819124
31
0.0
0
LINE
8
LEFT_HID
6
HIDDEN
10
1.935063
20
1.819124
30
0.0
11
1.935161
21
1.819100
31
0.0
0
LINE
8
LEFT_HID
6
HIDDEN
10
1.935161
20
1.819100
30
0.0
11
1.935259
21
1.819076
31
0.0
0
LINE
8
LEFT_HID
6
HIDDEN
10
1.935259
20
1.819076
30
0.0
11
1.935357
21
1.819052
31
0.0
0
LINE
8
LEFT_HID
6
HIDDEN
10
1.935357
20
1.819052
30
0.0
11
1.935455
21
1.819029
31
0.0
0
LINE
8
LEFT_HID
6
HIDDEN
10
1.935455
20
1.819029
30
0.0
11
1.935553
21
1.819006
31
0.0
0
LINE
8
LEFT_HID
6
HIDDEN
10
1.935553
20
1.819006
30
0.0
11
1.935652
21
1.818983
31
0.0
0
LINE
8
LEFT_HID
6
HIDDEN
10
1.935652
20
1.818983
30
0.0
11
1.935750
21
1.818961
31
0.0
0
LINE
8
LEFT_HID
6
HIDDEN
10
1.935750
20
1.818961
30
0.0
11
1.935849
21
1.818938
31
0.0
0
LINE
8
LEFT_HID
6
HIDDEN
10
1.935849
20
1.818938
30
0.0
11
1.935947
21
1.818917
31
0.0
0
LINE
8
LEFT_HID
6
HIDDEN
10
1.935947
20
1.818917
30
0.0
11
1.936046
21
1.818895
31
0.0
0
LINE
8
LEFT_HID
6
HIDDEN
10
1.936046
20
1.818895
30
0.0
11
1.936145
21
1.818874
31
0.0
0
LINE
8
LEFT_HID
6
HIDDEN
10
1.936145
20
1.818874
30
0.0
11
1.936243
21
1.818853
31
0.0
0
LINE
8
LEFT_HID
6
HIDDEN
10
1.936243
20
1.818853
30
0.0
11
1.936342
21
1.818832
31
0.0
0
LINE
8
LEFT_HID
6
HIDDEN
10
1.936342
20
1.818832
30
0.0
11
1.936441
21
1.818811
31
0.0
0
LINE
8
LEFT_HID
6
HIDDEN
10
1.936441
20
1.818811
30
0.0
11
1.936540
21
1.818791
31
0.0
0
LINE
8
LEFT_HID
6
HIDDEN
10
1.936540
20
1.818791
30
0.0
11
1.936639
21
1.818771
31
0.0
0
LINE
8
LEFT_HID
6
HIDDEN
10
1.936639
20
1.818771
30
0.0
11
1.936738
21
1.818751
31
0.0
0
LINE
8
LEFT_HID
6
HIDDEN
10
1.936738
20
1.818751
30
0.0
11
1.936837
21
1.818731
31
0.0
0
LINE
8
LEFT_HID
6
HIDDEN
10
1.936837
20
1.818731
30
0.0
11
1.936936
21
1.818711
31
0.0
0
LINE
8
LEFT_HID
6
HIDDEN
10
1.936936
20
1.818711
30
0.0
11
1.937035
21
1.818692
31
0.0
0
LINE
8
LEFT_HID
6
HIDDEN
10
1.937035
20
1.818692
30
0.0
11
1.937134
21
1.818673
31
0.0
0
LINE
8
LEFT_HID
6
HIDDEN
10
1.937134
20
1.818673
30
0.0
11
1.937233
21
1.818654
31
0.0
0
LINE
8
LEFT_HID
6
HIDDEN
10
1.937233
20
1.818654
30
0.0
11
1.937332
21
1.818635
31
0.0
0
LINE
8
LEFT_HID
6
HIDDEN
10
1.937332
20
1.818635
30
0.0
11
1.937431
21
1.818616
31
0.0
0
LINE
8
LEFT_HID
6
HIDDEN
10
1.937431
20
1.818616
30
0.0
11
1.937531
21
1.818598
31
0.0
0
LINE
8
LEFT_HID
6
HIDDEN
10
1.937531
20
1.818598
30
0.0
11
1.937630
21
1.818579
31
0.0
0
LINE
8
LEFT_HID
6
HIDDEN
10
1.937630
20
1.818579
30
0.0
11
1.937729
21
1.818561
31
0.0
0
LINE
8
LEFT_HID
6
HIDDEN
10
1.937729
20
1.818561
30
0.0
11
1.937828
21
1.818543
31
0.0
0
LINE
8
LEFT_HID
6
HIDDEN
10
1.934377
20
1.915715
30
0.0
11
1.932025
21
1.914372
31
0.0
0
LINE
8
LEFT_HID
6
HIDDEN
10
1.932025
20
1.914372
30
0.0
11
1.932038
21
1.914272
31
0.0
0
LINE
8
LEFT_HID
6
HIDDEN
10
1.932038
20
1.914272
30
0.0
11
1.932074
21
1.914178
31
0.0
0
LINE
8
LEFT_HID
6
HIDDEN
10
1.932074
20
1.914178
30
0.0
11
1.932127
21
1.914092
31
0.0
0
LINE
8
LEFT_HID
6
HIDDEN
10
1.932127
20
1.914092
30
0.0
11
1.932191
21
1.914014
31
0.0
0
LINE
8
LEFT_HID
6
HIDDEN
10
1.932191
20
1.914014
30
0.0
11
1.932263
21
1.913944
31
0.0
0
LINE
8
LEFT_HID
6
HIDDEN
10
1.932263
20
1.913944
30
0.0
11
1.932341
21
1.913879
31
0.0
0
LINE
8
LEFT_HID
6
HIDDEN
10
1.932341
20
1.913879
30
0.0
11
1.932422
21
1.913819
31
0.0
0
LINE
8
LEFT_HID
6
HIDDEN
10
1.932422
20
1.913819
30
0.0
11
1.932506
21
1.913764
31
0.0
0
LINE
8
LEFT_HID
6
HIDDEN
10
1.932506
20
1.913764
30
0.0
11
1.932593
21
1.913711
31
0.0
0
LINE
8
LEFT_HID
6
HIDDEN
10
1.932593
20
1.913711
30
0.0
11
1.932681
21
1.913662
31
0.0
0
LINE
8
LEFT_HID
6
HIDDEN
10
1.932681
20
1.913662
30
0.0
11
1.932770
21
1.913615
31
0.0
0
LINE
8
LEFT_HID
6
HIDDEN
10
1.932770
20
1.913615
30
0.0
11
1.932861
21
1.913571
31
0.0
0
LINE
8
LEFT_HID
6
HIDDEN
10
1.932861
20
1.913571
30
0.0
11
1.932952
21
1.913528
31
0.0
0
LINE
8
LEFT_HID
6
HIDDEN
10
1.932952
20
1.913528
30
0.0
11
1.933045
21
1.913487
31
0.0
0
LINE
8
LEFT_HID
6
HIDDEN
10
1.933045
20
1.913487
30
0.0
11
1.933138
21
1.913448
31
0.0
0
LINE
8
LEFT_HID
6
HIDDEN
10
1.933138
20
1.913448
30
0.0
11
1.933231
21
1.913410
31
0.0
0
LINE
8
LEFT_HID
6
HIDDEN
10
1.933231
20
1.913410
30
0.0
11
1.933325
21
1.913373
31
0.0
0
LINE
8
LEFT_HID
6
HIDDEN
10
1.933325
20
1.913373
30
0.0
11
1.933420
21
1.913337
31
0.0
0
LINE
8
LEFT_HID
6
HIDDEN
10
1.933420
20
1.913337
30
0.0
11
1.933514
21
1.913303
31
0.0
0
LINE
8
LEFT_HID
6
HIDDEN
10
1.933514
20
1.913303
30
0.0
11
1.933610
21
1.913269
31
0.0
0
LINE
8
LEFT_HID
6
HIDDEN
10
1.933610
20
1.913269
30
0.0
11
1.933705
21
1.913236
31
0.0
0
LINE
8
LEFT_HID
6
HIDDEN
10
1.933705
20
1.913236
30
0.0
11
1.933801
21
1.913204
31
0.0
0
LINE
8
LEFT_HID
6
HIDDEN
10
1.933801
20
1.913204
30
0.0
11
1.933897
21
1.913173
31
0.0
0
LINE
8
LEFT_HID
6
HIDDEN
10
1.933897
20
1.913173
30
0.0
11
1.933993
21
1.913143
31
0.0
0
LINE
8
LEFT_HID
6
HIDDEN
10
1.933993
20
1.913143
30
0.0
11
1.934090
21
1.913113
31
0.0
0
LINE
8
LEFT_HID
6
HIDDEN
10
1.934090
20
1.913113
30
0.0
11
1.934186
21
1.913084
31
0.0
0
LINE
8
LEFT_HID
6
HIDDEN
10
1.934186
20
1.913084
30
0.0
11
1.934283
21
1.913056
31
0.0
0
LINE
8
LEFT_HID
6
HIDDEN
10
1.934283
20
1.913056
30
0.0
11
1.934380
21
1.913028
31
0.0
0
LINE
8
LEFT_HID
6
HIDDEN
10
1.934380
20
1.913028
30
0.0
11
1.934477
21
1.913000
31
0.0
0
LINE
8
LEFT_HID
6
HIDDEN
10
1.934477
20
1.913000
30
0.0
11
1.934575
21
1.912974
31
0.0
0
LINE
8
LEFT_HID
6
HIDDEN
10
1.934575
20
1.912974
30
0.0
11
1.934672
21
1.912947
31
0.0
0
LINE
8
LEFT_HID
6
HIDDEN
10
1.934672
20
1.912947
30
0.0
11
1.934770
21
1.912921
31
0.0
0
LINE
8
LEFT_HID
6
HIDDEN
10
1.934770
20
1.912921
30
0.0
11
1.934867
21
1.912896
31
0.0
0
LINE
8
LEFT_HID
6
HIDDEN
10
1.934867
20
1.912896
30
0.0
11
1.934965
21
1.912870
31
0.0
0
LINE
8
LEFT_HID
6
HIDDEN
10
1.934965
20
1.912870
30
0.0
11
1.935063
21
1.912846
31
0.0
0
LINE
8
LEFT_HID
6
HIDDEN
10
1.935063
20
1.912846
30
0.0
11
1.935161
21
1.912821
31
0.0
0
LINE
8
LEFT_HID
6
HIDDEN
10
1.935161
20
1.912821
30
0.0
11
1.935259
21
1.912797
31
0.0
0
LINE
8
LEFT_HID
6
HIDDEN
10
1.935259
20
1.912797
30
0.0
11
1.935357
21
1.912774
31
0.0
0
LINE
8
LEFT_HID
6
HIDDEN
10
1.935357
20
1.912774
30
0.0
11
1.935455
21
1.912750
31
0.0
0
LINE
8
LEFT_HID
6
HIDDEN
10
1.935455
20
1.912750
30
0.0
11
1.935553
21
1.912727
31
0.0
0
LINE
8
LEFT_HID
6
HIDDEN
10
1.935553
20
1.912727
30
0.0
11
1.935652
21
1.912705
31
0.0
0
LINE
8
LEFT_HID
6
HIDDEN
10
1.935652
20
1.912705
30
0.0
11
1.935750
21
1.912682
31
0.0
0
LINE
8
LEFT_HID
6
HIDDEN
10
1.935750
20
1.912682
30
0.0
11
1.935849
21
1.912660
31
0.0
0
LINE
8
LEFT_HID
6
HIDDEN
10
1.935849
20
1.912660
30
0.0
11
1.935947
21
1.912638
31
0.0
0
LINE
8
LEFT_HID
6
HIDDEN
10
1.935947
20
1.912638
30
0.0
11
1.936046
21
1.912617
31
0.0
0
LINE
8
LEFT_HID
6
HIDDEN
10
1.936046
20
1.912617
30
0.0
11
1.936145
21
1.912595
31
0.0
0
LINE
8
LEFT_HID
6
HIDDEN
10
1.936145
20
1.912595
30
0.0
11
1.936243
21
1.912574
31
0.0
0
LINE
8
LEFT_HID
6
HIDDEN
10
1.936243
20
1.912574
30
0.0
11
1.936342
21
1.912554
31
0.0
0
LINE
8
LEFT_HID
6
HIDDEN
10
1.936342
20
1.912554
30
0.0
11
1.936441
21
1.912533
31
0.0
0
LINE
8
LEFT_HID
6
HIDDEN
10
1.936441
20
1.912533
30
0.0
11
1.936540
21
1.912513
31
0.0
0
LINE
8
LEFT_HID
6
HIDDEN
10
1.936540
20
1.912513
30
0.0
11
1.936639
21
1.912492
31
0.0
0
LINE
8
LEFT_HID
6
HIDDEN
10
1.936639
20
1.912492
30
0.0
11
1.936738
21
1.912472
31
0.0
0
LINE
8
LEFT_HID
6
HIDDEN
10
1.936738
20
1.912472
30
0.0
11
1.936837
21
1.912453
31
0.0
0
LINE
8
LEFT_HID
6
HIDDEN
10
1.936837
20
1.912453
30
0.0
11
1.936936
21
1.912433
31
0.0
0
LINE
8
LEFT_HID
6
HIDDEN
10
1.936936
20
1.912433
30
0.0
11
1.937035
21
1.912414
31
0.0
0
LINE
8
LEFT_HID
6
HIDDEN
10
1.937035
20
1.912414
30
0.0
11
1.937134
21
1.912394
31
0.0
0
LINE
8
LEFT_HID
6
HIDDEN
10
1.937134
20
1.912394
30
0.0
11
1.937233
21
1.912375
31
0.0
0
LINE
8
LEFT_HID
6
HIDDEN
10
1.937233
20
1.912375
30
0.0
11
1.937332
21
1.912357
31
0.0
0
LINE
8
LEFT_HID
6
HIDDEN
10
1.937332
20
1.912357
30
0.0
11
1.937431
21
1.912338
31
0.0
0
LINE
8
LEFT_HID
6
HIDDEN
10
1.937431
20
1.912338
30
0.0
11
1.937531
21
1.912319
31
0.0
0
LINE
8
LEFT_HID
6
HIDDEN
10
1.937531
20
1.912319
30
0.0
11
1.937630
21
1.912301
31
0.0
0
LINE
8
LEFT_HID
6
HIDDEN
10
1.937630
20
1.912301
30
0.0
11
1.937729
21
1.912283
31
0.0
0
LINE
8
LEFT_HID
6
HIDDEN
10
1.937729
20
1.912283
30
0.0
11
1.937828
21
1.912265
31
0.0
0
LINE
8
LEFT_HID
6
HIDDEN
10
3.209655
20
1.818476
30
0.0
11
3.212007
21
1.819819
31
0.0
0
LINE
8
LEFT_HID
6
HIDDEN
10
3.212007
20
1.819819
30
0.0
11
3.211994
21
1.819919
31
0.0
0
LINE
8
LEFT_HID
6
HIDDEN
10
3.211994
20
1.819919
30
0.0
11
3.211958
21
1.820013
31
0.0
0
LINE
8
LEFT_HID
6
HIDDEN
10
3.211958
20
1.820013
30
0.0
11
3.211905
21
1.820099
31
0.0
0
LINE
8
LEFT_HID
6
HIDDEN
10
3.211905
20
1.820099
30
0.0
11
3.211841
21
1.820177
31
0.0
0
LINE
8
LEFT_HID
6
HIDDEN
10
3.211841
20
1.820177
30
0.0
11
3.211768
21
1.820247
31
0.0
0
LINE
8
LEFT_HID
6
HIDDEN
10
3.211768
20
1.820247
30
0.0
11
3.211691
21
1.820312
31
0.0
0
LINE
8
LEFT_HID
6
HIDDEN
10
3.211691
20
1.820312
30
0.0
11
3.211610
21
1.820372
31
0.0
0
LINE
8
LEFT_HID
6
HIDDEN
10
3.211610
20
1.820372
30
0.0
11
3.211525
21
1.820428
31
0.0
0
LINE
8
LEFT_HID
6
HIDDEN
10
3.211525
20
1.820428
30
0.0
11
3.211439
21
1.820480
31
0.0
0
LINE
8
LEFT_HID
6
HIDDEN
10
3.211439
20
1.820480
30
0.0
11
3.211351
21
1.820529
31
0.0
0
LINE
8
LEFT_HID
6
HIDDEN
10
3.211351
20
1.820529
30
0.0
11
3.211262
21
1.820576
31
0.0
0
LINE
8
LEFT_HID
6
HIDDEN
10
3.211262
20
1.820576
30
0.0
11
3.211171
21
1.820621
31
0.0
0
LINE
8
LEFT_HID
6
HIDDEN
10
3.211171
20
1.820621
30
0.0
11
3.211080
21
1.820663
31
0.0
0
LINE
8
LEFT_HID
6
HIDDEN
10
3.211080
20
1.820663
30
0.0
11
3.210987
21
1.820704
31
0.0
0
LINE
8
LEFT_HID
6
HIDDEN
10
3.210987
20
1.820704
30
0.0
11
3.210894
21
1.820744
31
0.0
0
LINE
8
LEFT_HID
6
HIDDEN
10
3.210894
20
1.820744
30
0.0
11
3.210801
21
1.820782
31
0.0
0
LINE
8
LEFT_HID
6
HIDDEN
10
3.210801
20
1.820782
30
0.0
11
3.210707
21
1.820818
31
0.0
0
LINE
8
LEFT_HID
6
HIDDEN
10
3.210707
20
1.820818
30
0.0
11
3.210612
21
1.820854
31
0.0
0
LINE
8
LEFT_HID
6
HIDDEN
10
3.210612
20
1.820854
30
0.0
11
3.210518
21
1.820889
31
0.0
0
LINE
8
LEFT_HID
6
HIDDEN
10
3.210518
20
1.820889
30
0.0
11
3.210422
21
1.820922
31
0.0
0
LINE
8
LEFT_HID
6
HIDDEN
10
3.210422
20
1.820922
30
0.0
11
3.210327
21
1.820955
31
0.0
0
LINE
8
LEFT_HID
6
HIDDEN
10
3.210327
20
1.820955
30
0.0
11
3.210231
21
1.820987
31
0.0
0
LINE
8
LEFT_HID
6
HIDDEN
10
3.210231
20
1.820987
30
0.0
11
3.210135
21
1.821018
31
0.0
0
LINE
8
LEFT_HID
6
HIDDEN
10
3.210135
20
1.821018
30
0.0
11
3.210039
21
1.821048
31
0.0
0
LINE
8
LEFT_HID
6
HIDDEN
10
3.210039
20
1.821048
30
0.0
11
3.209942
21
1.821078
31
0.0
0
LINE
8
LEFT_HID
6
HIDDEN
10
3.209942
20
1.821078
30
0.0
11
3.209846
21
1.821107
31
0.0
0
LINE
8
LEFT_HID
6
HIDDEN
10
3.209846
20
1.821107
30
0.0
11
3.209749
21
1.821135
31
0.0
0
LINE
8
LEFT_HID
6
HIDDEN
10
3.209749
20
1.821135
30
0.0
11
3.209652
21
1.821163
31
0.0
0
LINE
8
LEFT_HID
6
HIDDEN
10
3.209652
20
1.821163
30
0.0
11
3.209555
21
1.821191
31
0.0
0
LINE
8
LEFT_HID
6
HIDDEN
10
3.209555
20
1.821191
30
0.0
11
3.209457
21
1.821218
31
0.0
0
LINE
8
LEFT_HID
6
HIDDEN
10
3.209457
20
1.821218
30
0.0
11
3.209360
21
1.821244
31
0.0
0
LINE
8
LEFT_HID
6
HIDDEN
10
3.209360
20
1.821244
30
0.0
11
3.209262
21
1.821270
31
0.0
0
LINE
8
LEFT_HID
6
HIDDEN
10
3.209262
20
1.821270
30
0.0
11
3.209165
21
1.821296
31
0.0
0
LINE
8
LEFT_HID
6
HIDDEN
10
3.209165
20
1.821296
30
0.0
11
3.209067
21
1.821321
31
0.0
0
LINE
8
LEFT_HID
6
HIDDEN
10
3.209067
20
1.821321
30
0.0
11
3.208969
21
1.821345
31
0.0
0
LINE
8
LEFT_HID
6
HIDDEN
10
3.208969
20
1.821345
30
0.0
11
3.208871
21
1.821370
31
0.0
0
LINE
8
LEFT_HID
6
HIDDEN
10
3.208871
20
1.821370
30
0.0
11
3.208773
21
1.821394
31
0.0
0
LINE
8
LEFT_HID
6
HIDDEN
10
3.208773
20
1.821394
30
0.0
11
3.208675
21
1.821417
31
0.0
0
LINE
8
LEFT_HID
6
HIDDEN
10
3.208675
20
1.821417
30
0.0
11
3.208577
21
1.821441
31
0.0
0
LINE
8
LEFT_HID
6
HIDDEN
10
3.208577
20
1.821441
30
0.0
11
3.208478
21
1.821464
31
0.0
0
LINE
8
LEFT_HID
6
HIDDEN
10
3.208478
20
1.821464
30
0.0
11
3.208380
21
1.821486
31
0.0
0
LINE
8
LEFT_HID
6
HIDDEN
10
3.208380
20
1.821486
30
0.0
11
3.208282
21
1.821509
31
0.0
0
LINE
8
LEFT_HID
6
HIDDEN
10
3.208282
20
1.821509
30
0.0
11
3.208183
21
1.821531
31
0.0
0
LINE
8
LEFT_HID
6
HIDDEN
10
3.208183
20
1.821531
30
0.0
11
3.208085
21
1.821553
31
0.0
0
LINE
8
LEFT_HID
6
HIDDEN
10
3.208085
20
1.821553
30
0.0
11
3.207986
21
1.821574
31
0.0
0
LINE
8
LEFT_HID
6
HIDDEN
10
3.207986
20
1.821574
30
0.0
11
3.207887
21
1.821596
31
0.0
0
LINE
8
LEFT_HID
6
HIDDEN
10
3.207887
20
1.821596
30
0.0
11
3.207789
21
1.821617
31
0.0
0
LINE
8
LEFT_HID
6
HIDDEN
10
3.207789
20
1.821617
30
0.0
11
3.207690
21
1.821638
31
0.0
0
LINE
8
LEFT_HID
6
HIDDEN
10
3.207690
20
1.821638
30
0.0
11
3.207591
21
1.821658
31
0.0
0
LINE
8
LEFT_HID
6
HIDDEN
10
3.207591
20
1.821658
30
0.0
11
3.207492
21
1.821679
31
0.0
0
LINE
8
LEFT_HID
6
HIDDEN
10
3.207492
20
1.821679
30
0.0
11
3.207393
21
1.821699
31
0.0
0
LINE
8
LEFT_HID
6
HIDDEN
10
3.207393
20
1.821699
30
0.0
11
3.207294
21
1.821719
31
0.0
0
LINE
8
LEFT_HID
6
HIDDEN
10
3.207294
20
1.821719
30
0.0
11
3.207195
21
1.821739
31
0.0
0
LINE
8
LEFT_HID
6
HIDDEN
10
3.207195
20
1.821739
30
0.0
11
3.207096
21
1.821758
31
0.0
0
LINE
8
LEFT_HID
6
HIDDEN
10
3.207096
20
1.821758
30
0.0
11
3.206997
21
1.821778
31
0.0
0
LINE
8
LEFT_HID
6
HIDDEN
10
3.206997
20
1.821778
30
0.0
11
3.206898
21
1.821797
31
0.0
0
LINE
8
LEFT_HID
6
HIDDEN
10
3.206898
20
1.821797
30
0.0
11
3.206799
21
1.821816
31
0.0
0
LINE
8
LEFT_HID
6
HIDDEN
10
3.206799
20
1.821816
30
0.0
11
3.206700
21
1.821835
31
0.0
0
LINE
8
LEFT_HID
6
HIDDEN
10
3.206700
20
1.821835
30
0.0
11
3.206601
21
1.821853
31
0.0
0
LINE
8
LEFT_HID
6
HIDDEN
10
3.206601
20
1.821853
30
0.0
11
3.206501
21
1.821872
31
0.0
0
LINE
8
LEFT_HID
6
HIDDEN
10
3.206501
20
1.821872
30
0.0
11
3.206402
21
1.821890
31
0.0
0
LINE
8
LEFT_HID
6
HIDDEN
10
3.206402
20
1.821890
30
0.0
11
3.206303
21
1.821908
31
0.0
0
LINE
8
LEFT_HID
6
HIDDEN
10
3.206303
20
1.821908
30
0.0
11
3.206203
21
1.821926
31
0.0
0
LINE
8
LEFT_HID
6
HIDDEN
10
3.206203
20
1.821926
30
0.0
11
3.206203
21
1.915648
31
0.0
0
LINE
8
LEFT_HID
6
HIDDEN
10
3.209655
20
1.912198
30
0.0
11
3.212007
21
1.913541
31
0.0
0
LINE
8
LEFT_HID
6
HIDDEN
10
3.212007
20
1.913541
30
0.0
11
3.211994
21
1.913641
31
0.0
0
LINE
8
LEFT_HID
6
HIDDEN
10
3.211994
20
1.913641
30
0.0
11
3.211958
21
1.913735
31
0.0
0
LINE
8
LEFT_HID
6
HIDDEN
10
3.211958
20
1.913735
30
0.0
11
3.211905
21
1.913821
31
0.0
0
LINE
8
LEFT_HID
6
HIDDEN
10
3.211905
20
1.913821
30
0.0
11
3.211841
21
1.913899
31
0.0
0
LINE
8
LEFT_HID
6
HIDDEN
10
3.211841
20
1.913899
30
0.0
11
3.211768
21
1.913969
31
0.0
0
LINE
8
LEFT_HID
6
HIDDEN
10
3.211768
20
1.913969
30
0.0
11
3.211691
21
1.914034
31
0.0
0
LINE
8
LEFT_HID
6
HIDDEN
10
3.211691
20
1.914034
30
0.0
11
3.211610
21
1.914094
31
0.0
0
LINE
8
LEFT_HID
6
HIDDEN
10
3.211610
20
1.914094
30
0.0
11
3.211525
21
1.914149
31
0.0
0
LINE
8
LEFT_HID
6
HIDDEN
10
3.211525
20
1.914149
30
0.0
11
3.211439
21
1.914202
31
0.0
0
LINE
8
LEFT_HID
6
HIDDEN
10
3.211439
20
1.914202
30
0.0
11
3.211351
21
1.914251
31
0.0
0
LINE
8
LEFT_HID
6
HIDDEN
10
3.211351
20
1.914251
30
0.0
11
3.211262
21
1.914298
31
0.0
0
LINE
8
LEFT_HID
6
HIDDEN
10
3.211262
20
1.914298
30
0.0
11
3.211171
21
1.914342
31
0.0
0
LINE
8
LEFT_HID
6
HIDDEN
10
3.211171
20
1.914342
30
0.0
11
3.211080
21
1.914385
31
0.0
0
LINE
8
LEFT_HID
6
HIDDEN
10
3.211080
20
1.914385
30
0.0
11
3.210987
21
1.914426
31
0.0
0
LINE
8
LEFT_HID
6
HIDDEN
10
3.210987
20
1.914426
30
0.0
11
3.210894
21
1.914465
31
0.0
0
LINE
8
LEFT_HID
6
HIDDEN
10
3.210894
20
1.914465
30
0.0
11
3.210801
21
1.914503
31
0.0
0
LINE
8
LEFT_HID
6
HIDDEN
10
3.210801
20
1.914503
30
0.0
11
3.210707
21
1.914540
31
0.0
0
LINE
8
LEFT_HID
6
HIDDEN
10
3.210707
20
1.914540
30
0.0
11
3.210612
21
1.914576
31
0.0
0
LINE
8
LEFT_HID
6
HIDDEN
10
3.210612
20
1.914576
30
0.0
11
3.210518
21
1.914610
31
0.0
0
LINE
8
LEFT_HID
6
HIDDEN
10
3.210518
20
1.914610
30
0.0
11
3.210422
21
1.914644
31
0.0
0
LINE
8
LEFT_HID
6
HIDDEN
10
3.210422
20
1.914644
30
0.0
11
3.210327
21
1.914677
31
0.0
0
LINE
8
LEFT_HID
6
HIDDEN
10
3.210327
20
1.914677
30
0.0
11
3.210231
21
1.914708
31
0.0
0
LINE
8
LEFT_HID
6
HIDDEN
10
3.210231
20
1.914708
30
0.0
11
3.210135
21
1.914740
31
0.0
0
LINE
8
LEFT_HID
6
HIDDEN
10
3.210135
20
1.914740
30
0.0
11
3.210039
21
1.914770
31
0.0
0
LINE
8
LEFT_HID
6
HIDDEN
10
3.210039
20
1.914770
30
0.0
11
3.209942
21
1.914800
31
0.0
0
LINE
8
LEFT_HID
6
HIDDEN
10
3.209942
20
1.914800
30
0.0
11
3.209846
21
1.914829
31
0.0
0
LINE
8
LEFT_HID
6
HIDDEN
10
3.209846
20
1.914829
30
0.0
11
3.209749
21
1.914857
31
0.0
0
LINE
8
LEFT_HID
6
HIDDEN
10
3.209749
20
1.914857
30
0.0
11
3.209652
21
1.914885
31
0.0
0
LINE
8
LEFT_HID
6
HIDDEN
10
3.209652
20
1.914885
30
0.0
11
3.209555
21
1.914913
31
0.0
0
LINE
8
LEFT_HID
6
HIDDEN
10
3.209555
20
1.914913
30
0.0
11
3.209457
21
1.914939
31
0.0
0
LINE
8
LEFT_HID
6
HIDDEN
10
3.209457
20
1.914939
30
0.0
11
3.209360
21
1.914966
31
0.0
0
LINE
8
LEFT_HID
6
HIDDEN
10
3.209360
20
1.914966
30
0.0
11
3.209262
21
1.914992
31
0.0
0
LINE
8
LEFT_HID
6
HIDDEN
10
3.209262
20
1.914992
30
0.0
11
3.209165
21
1.915017
31
0.0
0
LINE
8
LEFT_HID
6
HIDDEN
10
3.209165
20
1.915017
30
0.0
11
3.209067
21
1.915042
31
0.0
0
LINE
8
LEFT_HID
6
HIDDEN
10
3.209067
20
1.915042
30
0.0
11
3.208969
21
1.915067
31
0.0
0
LINE
8
LEFT_HID
6
HIDDEN
10
3.208969
20
1.915067
30
0.0
11
3.208871
21
1.915092
31
0.0
0
LINE
8
LEFT_HID
6
HIDDEN
10
3.208871
20
1.915092
30
0.0
11
3.208773
21
1.915116
31
0.0
0
LINE
8
LEFT_HID
6
HIDDEN
10
3.208773
20
1.915116
30
0.0
11
3.208675
21
1.915139
31
0.0
0
LINE
8
LEFT_HID
6
HIDDEN
10
3.208675
20
1.915139
30
0.0
11
3.208577
21
1.915162
31
0.0
0
LINE
8
LEFT_HID
6
HIDDEN
10
3.208577
20
1.915162
30
0.0
11
3.208478
21
1.915185
31
0.0
0
LINE
8
LEFT_HID
6
HIDDEN
10
3.208478
20
1.915185
30
0.0
11
3.208380
21
1.915208
31
0.0
0
LINE
8
LEFT_HID
6
HIDDEN
10
3.208380
20
1.915208
30
0.0
11
3.208282
21
1.915231
31
0.0
0
LINE
8
LEFT_HID
6
HIDDEN
10
3.208282
20
1.915231
30
0.0
11
3.208183
21
1.915253
31
0.0
0
LINE
8
LEFT_HID
6
HIDDEN
10
3.208183
20
1.915253
30
0.0
11
3.208085
21
1.915275
31
0.0
0
LINE
8
LEFT_HID
6
HIDDEN
10
3.208085
20
1.915275
30
0.0
11
3.207986
21
1.915296
31
0.0
0
LINE
8
LEFT_HID
6
HIDDEN
10
3.207986
20
1.915296
30
0.0
11
3.207887
21
1.915317
31
0.0
0
LINE
8
LEFT_HID
6
HIDDEN
10
3.207887
20
1.915317
30
0.0
11
3.207789
21
1.915339
31
0.0
0
LINE
8
LEFT_HID
6
HIDDEN
10
3.207789
20
1.915339
30
0.0
11
3.207690
21
1.915359
31
0.0
0
LINE
8
LEFT_HID
6
HIDDEN
10
3.207690
20
1.915359
30
0.0
11
3.207591
21
1.915380
31
0.0
0
LINE
8
LEFT_HID
6
HIDDEN
10
3.207591
20
1.915380
30
0.0
11
3.207492
21
1.915400
31
0.0
0
LINE
8
LEFT_HID
6
HIDDEN
10
3.207492
20
1.915400
30
0.0
11
3.207393
21
1.915421
31
0.0
0
LINE
8
LEFT_HID
6
HIDDEN
10
3.207393
20
1.915421
30
0.0
11
3.207294
21
1.915441
31
0.0
0
LINE
8
LEFT_HID
6
HIDDEN
10
3.207294
20
1.915441
30
0.0
11
3.207195
21
1.915460
31
0.0
0
LINE
8
LEFT_HID
6
HIDDEN
10
3.207195
20
1.915460
30
0.0
11
3.207096
21
1.915480
31
0.0
0
LINE
8
LEFT_HID
6
HIDDEN
10
3.207096
20
1.915480
30
0.0
11
3.206997
21
1.915499
31
0.0
0
LINE
8
LEFT_HID
6
HIDDEN
10
3.206997
20
1.915499
30
0.0
11
3.206898
21
1.915519
31
0.0
0
LINE
8
LEFT_HID
6
HIDDEN
10
3.206898
20
1.915519
30
0.0
11
3.206799
21
1.915538
31
0.0
0
LINE
8
LEFT_HID
6
HIDDEN
10
3.206799
20
1.915538
30
0.0
11
3.206700
21
1.915556
31
0.0
0
LINE
8
LEFT_HID
6
HIDDEN
10
3.206700
20
1.915556
30
0.0
11
3.206601
21
1.915575
31
0.0
0
LINE
8
LEFT_HID
6
HIDDEN
10
3.206601
20
1.915575
30
0.0
11
3.206501
21
1.915594
31
0.0
0
LINE
8
LEFT_HID
6
HIDDEN
10
3.206501
20
1.915594
30
0.0
11
3.206402
21
1.915612
31
0.0
0
LINE
8
LEFT_HID
6
HIDDEN
10
3.206402
20
1.915612
30
0.0
11
3.206303
21
1.915630
31
0.0
0
LINE
8
LEFT_HID
6
HIDDEN
10
3.206303
20
1.915630
30
0.0
11
3.206203
21
1.915648
31
0.0
0
LINE
8
LEFT_HID
6
HIDDEN
10
3.209655
20
1.818476
30
0.0
11
3.209655
21
1.912198
31
0.0
0
LINE
8
LEFT_HID
6
HIDDEN
10
3.320641
20
1.818543
30
0.0
11
3.320641
21
1.912265
31
0.0
0
LINE
8
LEFT_HID
6
HIDDEN
10
3.320641
20
1.912265
30
0.0
11
3.209655
21
1.912198
31
0.0
0
LINE
8
LEFT_HID
6
HIDDEN
10
3.320641
20
1.818543
30
0.0
11
3.209655
21
1.818476
31
0.0
0
LINE
8
LEFT_HID
6
HIDDEN
10
3.206203
20
1.915648
30
0.0
11
3.317190
21
1.915715
31
0.0
0
LINE
8
LEFT_HID
6
HIDDEN
10
3.317190
20
1.821993
30
0.0
11
3.317190
21
1.915715
31
0.0
0
LINE
8
LEFT_HID
6
HIDDEN
10
3.206203
20
1.821926
30
0.0
11
3.317190
21
1.821993
31
0.0
0
LINE
8
LEFT_HID
6
HIDDEN
10
3.317190
20
1.821993
30
0.0
11
3.317283
21
1.821975
31
0.0
0
LINE
8
LEFT_HID
6
HIDDEN
10
3.317283
20
1.821975
30
0.0
11
3.317377
21
1.821956
31
0.0
0
LINE
8
LEFT_HID
6
HIDDEN
10
3.317377
20
1.821956
30
0.0
11
3.317470
21
1.821937
31
0.0
0
LINE
8
LEFT_HID
6
HIDDEN
10
3.317470
20
1.821937
30
0.0
11
3.317563
21
1.821918
31
0.0
0
LINE
8
LEFT_HID
6
HIDDEN
10
3.317563
20
1.821918
30
0.0
11
3.317656
21
1.821898
31
0.0
0
LINE
8
LEFT_HID
6
HIDDEN
10
3.317656
20
1.821898
30
0.0
11
3.317750
21
1.821879
31
0.0
0
LINE
8
LEFT_HID
6
HIDDEN
10
3.317750
20
1.821879
30
0.0
11
3.317843
21
1.821859
31
0.0
0
LINE
8
LEFT_HID
6
HIDDEN
10
3.317843
20
1.821859
30
0.0
11
3.317936
21
1.821839
31
0.0
0
LINE
8
LEFT_HID
6
HIDDEN
10
3.317936
20
1.821839
30
0.0
11
3.318029
21
1.821819
31
0.0
0
LINE
8
LEFT_HID
6
HIDDEN
10
3.318029
20
1.821819
30
0.0
11
3.318122
21
1.821799
31
0.0
0
LINE
8
LEFT_HID
6
HIDDEN
10
3.318122
20
1.821799
30
0.0
11
3.318215
21
1.821778
31
0.0
0
LINE
8
LEFT_HID
6
HIDDEN
10
3.318215
20
1.821778
30
0.0
11
3.318308
21
1.821758
31
0.0
0
LINE
8
LEFT_HID
6
HIDDEN
10
3.318308
20
1.821758
30
0.0
11
3.318401
21
1.821737
31
0.0
0
LINE
8
LEFT_HID
6
HIDDEN
10
3.318401
20
1.821737
30
0.0
11
3.318494
21
1.821716
31
0.0
0
LINE
8
LEFT_HID
6
HIDDEN
10
3.318494
20
1.821716
30
0.0
11
3.318587
21
1.821694
31
0.0
0
LINE
8
LEFT_HID
6
HIDDEN
10
3.318587
20
1.821694
30
0.0
11
3.318679
21
1.821673
31
0.0
0
LINE
8
LEFT_HID
6
HIDDEN
10
3.318679
20
1.821673
30
0.0
11
3.318772
21
1.821651
31
0.0
0
LINE
8
LEFT_HID
6
HIDDEN
10
3.318772
20
1.821651
30
0.0
11
3.318865
21
1.821629
31
0.0
0
LINE
8
LEFT_HID
6
HIDDEN
10
3.318865
20
1.821629
30
0.0
11
3.318957
21
1.821606
31
0.0
0
LINE
8
LEFT_HID
6
HIDDEN
10
3.318957
20
1.821606
30
0.0
11
3.319050
21
1.821584
31
0.0
0
LINE
8
LEFT_HID
6
HIDDEN
10
3.319050
20
1.821584
30
0.0
11
3.319142
21
1.821561
31
0.0
0
LINE
8
LEFT_HID
6
HIDDEN
10
3.319142
20
1.821561
30
0.0
11
3.319235
21
1.821538
31
0.0
0
LINE
8
LEFT_HID
6
HIDDEN
10
3.319235
20
1.821538
30
0.0
11
3.319327
21
1.821514
31
0.0
0
LINE
8
LEFT_HID
6
HIDDEN
10
3.319327
20
1.821514
30
0.0
11
3.319419
21
1.821490
31
0.0
0
LINE
8
LEFT_HID
6
HIDDEN
10
3.319419
20
1.821490
30
0.0
11
3.319511
21
1.821466
31
0.0
0
LINE
8
LEFT_HID
6
HIDDEN
10
3.319511
20
1.821466
30
0.0
11
3.319603
21
1.821442
31
0.0
0
LINE
8
LEFT_HID
6
HIDDEN
10
3.319603
20
1.821442
30
0.0
11
3.319695
21
1.821417
31
0.0
0
LINE
8
LEFT_HID
6
HIDDEN
10
3.319695
20
1.821417
30
0.0
11
3.319787
21
1.821391
31
0.0
0
LINE
8
LEFT_HID
6
HIDDEN
10
3.319787
20
1.821391
30
0.0
11
3.319879
21
1.821366
31
0.0
0
LINE
8
LEFT_HID
6
HIDDEN
10
3.319879
20
1.821366
30
0.0
11
3.319970
21
1.821340
31
0.0
0
LINE
8
LEFT_HID
6
HIDDEN
10
3.319970
20
1.821340
30
0.0
11
3.320062
21
1.821313
31
0.0
0
LINE
8
LEFT_HID
6
HIDDEN
10
3.320062
20
1.821313
30
0.0
11
3.320153
21
1.821286
31
0.0
0
LINE
8
LEFT_HID
6
HIDDEN
10
3.320153
20
1.821286
30
0.0
11
3.320244
21
1.821259
31
0.0
0
LINE
8
LEFT_HID
6
HIDDEN
10
3.320244
20
1.821259
30
0.0
11
3.320336
21
1.821231
31
0.0
0
LINE
8
LEFT_HID
6
HIDDEN
10
3.320336
20
1.821231
30
0.0
11
3.320426
21
1.821203
31
0.0
0
LINE
8
LEFT_HID
6
HIDDEN
10
3.320426
20
1.821203
30
0.0
11
3.320517
21
1.821174
31
0.0
0
LINE
8
LEFT_HID
6
HIDDEN
10
3.320517
20
1.821174
30
0.0
11
3.320608
21
1.821144
31
0.0
0
LINE
8
LEFT_HID
6
HIDDEN
10
3.320608
20
1.821144
30
0.0
11
3.320698
21
1.821114
31
0.0
0
LINE
8
LEFT_HID
6
HIDDEN
10
3.320698
20
1.821114
30
0.0
11
3.320788
21
1.821083
31
0.0
0
LINE
8
LEFT_HID
6
HIDDEN
10
3.320788
20
1.821083
30
0.0
11
3.320878
21
1.821052
31
0.0
0
LINE
8
LEFT_HID
6
HIDDEN
10
3.320878
20
1.821052
30
0.0
11
3.320968
21
1.821020
31
0.0
0
LINE
8
LEFT_HID
6
HIDDEN
10
3.320968
20
1.821020
30
0.0
11
3.321057
21
1.820986
31
0.0
0
LINE
8
LEFT_HID
6
HIDDEN
10
3.321057
20
1.820986
30
0.0
11
3.321146
21
1.820953
31
0.0
0
LINE
8
LEFT_HID
6
HIDDEN
10
3.321146
20
1.820953
30
0.0
11
3.321235
21
1.820918
31
0.0
0
LINE
8
LEFT_HID
6
HIDDEN
10
3.321235
20
1.820918
30
0.0
11
3.321323
21
1.820882
31
0.0
0
LINE
8
LEFT_HID
6
HIDDEN
10
3.321323
20
1.820882
30
0.0
11
3.321411
21
1.820845
31
0.0
0
LINE
8
LEFT_HID
6
HIDDEN
10
3.321411
20
1.820845
30
0.0
11
3.321498
21
1.820807
31
0.0
0
LINE
8
LEFT_HID
6
HIDDEN
10
3.321498
20
1.820807
30
0.0
11
3.321585
21
1.820767
31
0.0
0
LINE
8
LEFT_HID
6
HIDDEN
10
3.321585
20
1.820767
30
0.0
11
3.321671
21
1.820727
31
0.0
0
LINE
8
LEFT_HID
6
HIDDEN
10
3.321671
20
1.820727
30
0.0
11
3.321756
21
1.820684
31
0.0
0
LINE
8
LEFT_HID
6
HIDDEN
10
3.321756
20
1.820684
30
0.0
11
3.321840
21
1.820640
31
0.0
0
LINE
8
LEFT_HID
6
HIDDEN
10
3.321840
20
1.820640
30
0.0
11
3.321924
21
1.820594
31
0.0
0
LINE
8
LEFT_HID
6
HIDDEN
10
3.321924
20
1.820594
30
0.0
11
3.322006
21
1.820545
31
0.0
0
LINE
8
LEFT_HID
6
HIDDEN
10
3.322006
20
1.820545
30
0.0
11
3.322086
21
1.820494
31
0.0
0
LINE
8
LEFT_HID
6
HIDDEN
10
3.322086
20
1.820494
30
0.0
11
3.322165
21
1.820441
31
0.0
0
LINE
8
LEFT_HID
6
HIDDEN
10
3.322165
20
1.820441
30
0.0
11
3.322241
21
1.820383
31
0.0
0
LINE
8
LEFT_HID
6
HIDDEN
10
3.322241
20
1.820383
30
0.0
11
3.322314
21
1.820322
31
0.0
0
LINE
8
LEFT_HID
6
HIDDEN
10
3.322314
20
1.820322
30
0.0
11
3.322382
21
1.820256
31
0.0
0
LINE
8
LEFT_HID
6
HIDDEN
10
3.322382
20
1.820256
30
0.0
11
3.322445
21
1.820185
31
0.0
0
LINE
8
LEFT_HID
6
HIDDEN
10
3.322445
20
1.820185
30
0.0
11
3.322501
21
1.820107
31
0.0
0
LINE
8
LEFT_HID
6
HIDDEN
10
3.322501
20
1.820107
30
0.0
11
3.322545
21
1.820023
31
0.0
0
LINE
8
LEFT_HID
6
HIDDEN
10
3.322545
20
1.820023
30
0.0
11
3.322574
21
1.819933
31
0.0
0
LINE
8
LEFT_HID
6
HIDDEN
10
3.322574
20
1.819933
30
0.0
11
3.322585
21
1.819838
31
0.0
0
LINE
8
LEFT_HID
6
HIDDEN
10
3.322585
20
1.819838
30
0.0
11
3.320641
21
1.818543
31
0.0
0
LINE
8
LEFT_HID
6
HIDDEN
10
3.317190
20
1.915715
30
0.0
11
3.317283
21
1.915696
31
0.0
0
LINE
8
LEFT_HID
6
HIDDEN
10
3.317283
20
1.915696
30
0.0
11
3.317377
21
1.915677
31
0.0
0
LINE
8
LEFT_HID
6
HIDDEN
10
3.317377
20
1.915677
30
0.0
11
3.317470
21
1.915658
31
0.0
0
LINE
8
LEFT_HID
6
HIDDEN
10
3.317470
20
1.915658
30
0.0
11
3.317563
21
1.915639
31
0.0
0
LINE
8
LEFT_HID
6
HIDDEN
10
3.317563
20
1.915639
30
0.0
11
3.317656
21
1.915620
31
0.0
0
LINE
8
LEFT_HID
6
HIDDEN
10
3.317656
20
1.915620
30
0.0
11
3.317750
21
1.915600
31
0.0
0
LINE
8
LEFT_HID
6
HIDDEN
10
3.317750
20
1.915600
30
0.0
11
3.317843
21
1.915581
31
0.0
0
LINE
8
LEFT_HID
6
HIDDEN
10
3.317843
20
1.915581
30
0.0
11
3.317936
21
1.915561
31
0.0
0
LINE
8
LEFT_HID
6
HIDDEN
10
3.317936
20
1.915561
30
0.0
11
3.318029
21
1.915541
31
0.0
0
LINE
8
LEFT_HID
6
HIDDEN
10
3.318029
20
1.915541
30
0.0
11
3.318122
21
1.915521
31
0.0
0
LINE
8
LEFT_HID
6
HIDDEN
10
3.318122
20
1.915521
30
0.0
11
3.318215
21
1.915500
31
0.0
0
LINE
8
LEFT_HID
6
HIDDEN
10
3.318215
20
1.915500
30
0.0
11
3.318308
21
1.915479
31
0.0
0
LINE
8
LEFT_HID
6
HIDDEN
10
3.318308
20
1.915479
30
0.0
11
3.318401
21
1.915458
31
0.0
0
LINE
8
LEFT_HID
6
HIDDEN
10
3.318401
20
1.915458
30
0.0
11
3.318494
21
1.915437
31
0.0
0
LINE
8
LEFT_HID
6
HIDDEN
10
3.318494
20
1.915437
30
0.0
11
3.318587
21
1.915416
31
0.0
0
LINE
8
LEFT_HID
6
HIDDEN
10
3.318587
20
1.915416
30
0.0
11
3.318679
21
1.915394
31
0.0
0
LINE
8
LEFT_HID
6
HIDDEN
10
3.318679
20
1.915394
30
0.0
11
3.318772
21
1.915373
31
0.0
0
LINE
8
LEFT_HID
6
HIDDEN
10
3.318772
20
1.915373
30
0.0
11
3.318865
21
1.915350
31
0.0
0
LINE
8
LEFT_HID
6
HIDDEN
10
3.318865
20
1.915350
30
0.0
11
3.318957
21
1.915328
31
0.0
0
LINE
8
LEFT_HID
6
HIDDEN
10
3.318957
20
1.915328
30
0.0
11
3.319050
21
1.915305
31
0.0
0
LINE
8
LEFT_HID
6
HIDDEN
10
3.319050
20
1.915305
30
0.0
11
3.319142
21
1.915283
31
0.0
0
LINE
8
LEFT_HID
6
HIDDEN
10
3.319142
20
1.915283
30
0.0
11
3.319235
21
1.915259
31
0.0
0
LINE
8
LEFT_HID
6
HIDDEN
10
3.319235
20
1.915259
30
0.0
11
3.319327
21
1.915236
31
0.0
0
LINE
8
LEFT_HID
6
HIDDEN
10
3.319327
20
1.915236
30
0.0
11
3.319419
21
1.915212
31
0.0
0
LINE
8
LEFT_HID
6
HIDDEN
10
3.319419
20
1.915212
30
0.0
11
3.319511
21
1.915188
31
0.0
0
LINE
8
LEFT_HID
6
HIDDEN
10
3.319511
20
1.915188
30
0.0
11
3.319603
21
1.915163
31
0.0
0
LINE
8
LEFT_HID
6
HIDDEN
10
3.319603
20
1.915163
30
0.0
11
3.319695
21
1.915138
31
0.0
0
LINE
8
LEFT_HID
6
HIDDEN
10
3.319695
20
1.915138
30
0.0
11
3.319787
21
1.915113
31
0.0
0
LINE
8
LEFT_HID
6
HIDDEN
10
3.319787
20
1.915113
30
0.0
11
3.319879
21
1.915088
31
0.0
0
LINE
8
LEFT_HID
6
HIDDEN
10
3.319879
20
1.915088
30
0.0
11
3.319970
21
1.915062
31
0.0
0
LINE
8
LEFT_HID
6
HIDDEN
10
3.319970
20
1.915062
30
0.0
11
3.320062
21
1.915035
31
0.0
0
LINE
8
LEFT_HID
6
HIDDEN
10
3.320062
20
1.915035
30
0.0
11
3.320153
21
1.915008
31
0.0
0
LINE
8
LEFT_HID
6
HIDDEN
10
3.320153
20
1.915008
30
0.0
11
3.320244
21
1.914981
31
0.0
0
LINE
8
LEFT_HID
6
HIDDEN
10
3.320244
20
1.914981
30
0.0
11
3.320336
21
1.914953
31
0.0
0
LINE
8
LEFT_HID
6
HIDDEN
10
3.320336
20
1.914953
30
0.0
11
3.320426
21
1.914924
31
0.0
0
LINE
8
LEFT_HID
6
HIDDEN
10
3.320426
20
1.914924
30
0.0
11
3.320517
21
1.914896
31
0.0
0
LINE
8
LEFT_HID
6
HIDDEN
10
3.320517
20
1.914896
30
0.0
11
3.320608
21
1.914866
31
0.0
0
LINE
8
LEFT_HID
6
HIDDEN
10
3.320608
20
1.914866
30
0.0
11
3.320698
21
1.914836
31
0.0
0
LINE
8
LEFT_HID
6
HIDDEN
10
3.320698
20
1.914836
30
0.0
11
3.320788
21
1.914805
31
0.0
0
LINE
8
LEFT_HID
6
HIDDEN
10
3.320788
20
1.914805
30
0.0
11
3.320878
21
1.914774
31
0.0
0
LINE
8
LEFT_HID
6
HIDDEN
10
3.320878
20
1.914774
30
0.0
11
3.320968
21
1.914741
31
0.0
0
LINE
8
LEFT_HID
6
HIDDEN
10
3.320968
20
1.914741
30
0.0
11
3.321057
21
1.914708
31
0.0
0
LINE
8
LEFT_HID
6
HIDDEN
10
3.321057
20
1.914708
30
0.0
11
3.321146
21
1.914674
31
0.0
0
LINE
8
LEFT_HID
6
HIDDEN
10
3.321146
20
1.914674
30
0.0
11
3.321235
21
1.914639
31
0.0
0
LINE
8
LEFT_HID
6
HIDDEN
10
3.321235
20
1.914639
30
0.0
11
3.321323
21
1.914604
31
0.0
0
LINE
8
LEFT_HID
6
HIDDEN
10
3.321323
20
1.914604
30
0.0
11
3.321411
21
1.914567
31
0.0
0
LINE
8
LEFT_HID
6
HIDDEN
10
3.321411
20
1.914567
30
0.0
11
3.321498
21
1.914529
31
0.0
0
LINE
8
LEFT_HID
6
HIDDEN
10
3.321498
20
1.914529
30
0.0
11
3.321585
21
1.914489
31
0.0
0
LINE
8
LEFT_HID
6
HIDDEN
10
3.321585
20
1.914489
30
0.0
11
3.321671
21
1.914448
31
0.0
0
LINE
8
LEFT_HID
6
HIDDEN
10
3.321671
20
1.914448
30
0.0
11
3.321756
21
1.914406
31
0.0
0
LINE
8
LEFT_HID
6
HIDDEN
10
3.321756
20
1.914406
30
0.0
11
3.321840
21
1.914362
31
0.0
0
LINE
8
LEFT_HID
6
HIDDEN
10
3.321840
20
1.914362
30
0.0
11
3.321924
21
1.914316
31
0.0
0
LINE
8
LEFT_HID
6
HIDDEN
10
3.321924
20
1.914316
30
0.0
11
3.322006
21
1.914267
31
0.0
0
LINE
8
LEFT_HID
6
HIDDEN
10
3.322006
20
1.914267
30
0.0
11
3.322086
21
1.914216
31
0.0
0
LINE
8
LEFT_HID
6
HIDDEN
10
3.322086
20
1.914216
30
0.0
11
3.322165
21
1.914162
31
0.0
0
LINE
8
LEFT_HID
6
HIDDEN
10
3.322165
20
1.914162
30
0.0
11
3.322241
21
1.914105
31
0.0
0
LINE
8
LEFT_HID
6
HIDDEN
10
3.322241
20
1.914105
30
0.0
11
3.322314
21
1.914044
31
0.0
0
LINE
8
LEFT_HID
6
HIDDEN
10
3.322314
20
1.914044
30
0.0
11
3.322382
21
1.913978
31
0.0
0
LINE
8
LEFT_HID
6
HIDDEN
10
3.322382
20
1.913978
30
0.0
11
3.322445
21
1.913907
31
0.0
0
LINE
8
LEFT_HID
6
HIDDEN
10
3.322445
20
1.913907
30
0.0
11
3.322501
21
1.913829
31
0.0
0
LINE
8
LEFT_HID
6
HIDDEN
10
3.322501
20
1.913829
30
0.0
11
3.322545
21
1.913745
31
0.0
0
LINE
8
LEFT_HID
6
HIDDEN
10
3.322545
20
1.913745
30
0.0
11
3.322574
21
1.913654
31
0.0
0
LINE
8
LEFT_HID
6
HIDDEN
10
3.322574
20
1.913654
30
0.0
11
3.322585
21
1.913560
31
0.0
0
LINE
8
LEFT_HID
6
HIDDEN
10
3.322585
20
1.913560
30
0.0
11
3.320641
21
1.912265
31
0.0
0
LINE
8
LEFT_HID
6
HIDDEN
10
1.945263
20
2.045039
30
0.0
11
1.945263
21
1.818476
31
0.0
0
LINE
8
LEFT_HID
6
HIDDEN
10
3.208421
20
2.045039
30
0.0
11
3.208421
21
1.818476
31
0.0
0
LINE
8
LEFT_HID
6
HIDDEN
10
1.821447
20
1.914353
30
0.0
11
1.821447
21
1.820631
31
0.0
0
LINE
8
LEFT_HID
6
HIDDEN
10
1.932025
20
1.914372
30
0.0
11
1.932025
21
1.820650
31
0.0
0
LINE
8
LEFT_HID
6
HIDDEN
10
3.212007
20
1.913541
30
0.0
11
3.212007
21
1.819819
31
0.0
0
LINE
8
LEFT_HID
6
HIDDEN
10
3.322585
20
1.913560
30
0.0
11
3.322585
21
1.819838
31
0.0
0
LINE
8
TOP
10
1.514847
20
0.757659
30
0.0
11
1.511081
21
0.833121
31
0.0
0
LINE
8
TOP
10
1.511081
20
0.833121
30
0.0
11
1.499820
21
0.907833
31
0.0
0
LINE
8
TOP
10
1.499820
20
0.907833
30
0.0
11
1.481176
21
0.981053
31
0.0
0
LINE
8
TOP
10
1.481176
20
0.981053
30
0.0
11
1.455335
21
1.052052
31
0.0
0
LINE
8
TOP
10
1.455335
20
1.052052
30
0.0
11
1.422552
21
1.120125
31
0.0
0
LINE
8
TOP
10
1.422552
20
1.120125
30
0.0
11
1.383155
21
1.184596
31
0.0
0
LINE
8
TOP
10
1.383155
20
1.184596
30
0.0
11
1.337534
21
1.244825
31
0.0
0
LINE
8
TOP
10
1.337534
20
1.244825
30
0.0
11
1.286143
21
1.300211
31
0.0
0
LINE
8
TOP
10
1.286143
20
1.300211
30
0.0
11
1.229492
21
1.350205
31
0.0
0
LINE
8
TOP
10
1.229492
20
1.350205
30
0.0
11
1.168146
21
1.394310
31
0.0
0
LINE
8
TOP
10
1.168146
20
1.394310
30
0.0
11
1.102712
21
1.432088
31
0.0
0
LINE
8
TOP
10
1.102712
20
1.432088
30
0.0
11
1.033843
21
1.463163
31
0.0
0
LINE
8
TOP
10
1.033843
20
1.463163
30
0.0
11
0.962221
21
1.487227
31
0.0
0
LINE
8
TOP
10
0.962221
20
1.487227
30
0.0
11
0.888560
21
1.504040
31
0.0
0
LINE
8
TOP
10
0.888560
20
1.504040
30
0.0
11
0.813590
21
1.513435
31
0.0
0
LINE
8
TOP
10
0.813590
20
1.513435
30
0.0
11
0.738058
21
1.515318
31
0.0
0
LINE
8
TOP
10
0.738058
20
1.515318
30
0.0
11
0.662713
21
1.509672
31
0.0
0
LINE
8
TOP
10
0.662713
20
1.509672
30
0.0
11
0.588305
21
1.496552
31
0.0
0
LINE
8
TOP
10
0.588305
20
1.496552
30
0.0
11
0.515573
21
1.476088
31
0.0
0
LINE
8
TOP
10
0.515573
20
1.476088
30
0.0
11
0.445240
21
1.448485
31
0.0
0
LINE
8
TOP
10
0.445240
20
1.448485
30
0.0
11
0.378005
21
1.414015
31
0.0
0
LINE
8
TOP
10
0.378005
20
1.414015
30
0.0
11
0.314536
21
1.373023
31
0.0
0
LINE
8
TOP
10
0.314536
20
1.373023
30
0.0
11
0.255464
21
1.325914
31
0.0
0
LINE
8
TOP
10
0.255464
20
1.325914
30
0.0
11
0.201376
21
1.273159
31
0.0
0
LINE
8
TOP
10
0.201376
20
1.273159
30
0.0
11
0.152810
21
1.215279
31
0.0
0
LINE
8
TOP
10
0.152810
20
1.215279
30
0.0
11
0.110248
21
1.152852
31
0.0
0
LINE
8
TOP
10
0.110248
20
1.152852
30
0.0
11
0.074113
21
1.086497
31
0.0
0
LINE
8
TOP
10
0.074113
20
1.086497
30
0.0
11
0.044765
21
1.016874
31
0.0
0
LINE
8
TOP
10
0.044765
20
1.016874
30
0.0
11
0.022494
21
0.944675
31
0.0
0
LINE
8
TOP
10
0.022494
20
0.944675
30
0.0
11
0.007523
21
0.870618
31
0.0
0
LINE
8
TOP
10
0.007523
20
0.870618
30
0.0
11
0.000000
21
0.795437
31
0.0
0
LINE
8
TOP
10
0.000000
20
0.795437
30
0.0
11
0.000000
21
0.719881
31
0.0
0
LINE
8
TOP
10
0.000000
20
0.719881
30
0.0
11
0.007523
21
0.644701
31
0.0
0
LINE
8
TOP
10
0.007523
20
0.644701
30
0.0
11
0.022494
21
0.570643
31
0.0
0
LINE
8
TOP
10
0.022494
20
0.570643
30
0.0
11
0.044765
21
0.498444
31
0.0
0
LINE
8
TOP
10
0.044765
20
0.498444
30
0.0
11
0.074113
21
0.428821
31
0.0
0
LINE
8
TOP
10
0.074113
20
0.428821
30
0.0
11
0.110248
21
0.362466
31
0.0
0
LINE
8
TOP
10
0.110248
20
0.362466
30
0.0
11
0.152810
21
0.300039
31
0.0
0
LINE
8
TOP
10
0.152810
20
0.300039
30
0.0
11
0.201376
21
0.242160
31
0.0
0
LINE
8
TOP
10
0.201376
20
0.242160
30
0.0
11
0.255464
21
0.189404
31
0.0
0
LINE
8
TOP
10
0.255464
20
0.189404
30
0.0
11
0.314536
21
0.142296
31
0.0
0
LINE
8
TOP
10
0.314536
20
0.142296
30
0.0
11
0.378005
21
0.101303
31
0.0
0
LINE
8
TOP
10
0.378005
20
0.101303
30
0.0
11
0.445240
21
0.066834
31
0.0
0
LINE
8
TOP
10
0.445240
20
0.066834
30
0.0
11
0.515573
21
0.039230
31
0.0
0
LINE
8
TOP
10
0.515573
20
0.039230
30
0.0
11
0.588305
21
0.018766
31
0.0
0
LINE
8
TOP
10
0.588305
20
0.018766
30
0.0
11
0.662713
21
0.005646
31
0.0
0
LINE
8
TOP
10
0.662713
20
0.005646
30
0.0
11
0.738058
21
0.000000
31
0.0
0
LINE
8
TOP
10
0.738058
20
0.000000
30
0.0
11
0.813590
21
0.001884
31
0.0
0
LINE
8
TOP
10
0.813590
20
0.001884
30
0.0
11
0.888560
21
0.011279
31
0.0
0
LINE
8
TOP
10
0.888560
20
0.011279
30
0.0
11
0.962221
21
0.028091
31
0.0
0
LINE
8
TOP
10
0.962221
20
0.028091
30
0.0
11
1.033843
21
0.052155
31
0.0
0
LINE
8
TOP
10
1.033843
20
0.052155
30
0.0
11
1.102712
21
0.083230
31
0.0
0
LINE
8
TOP
10
1.102712
20
0.083230
30
0.0
11
1.168146
21
0.121008
31
0.0
0
LINE
8
TOP
10
1.168146
20
0.121008
30
0.0
11
1.229492
21
0.165113
31
0.0
0
LINE
8
TOP
10
1.229492
20
0.165113
30
0.0
11
1.286143
21
0.215107
31
0.0
0
LINE
8
TOP
10
1.286143
20
0.215107
30
0.0
11
1.337534
21
0.270494
31
0.0
0
LINE
8
TOP
10
1.337534
20
0.270494
30
0.0
11
1.383155
21
0.330722
31
0.0
0
LINE
8
TOP
10
1.383155
20
0.330722
30
0.0
11
1.422552
21
0.395193
31
0.0
0
LINE
8
TOP
10
1.422552
20
0.395193
30
0.0
11
1.455335
21
0.463266
31
0.0
0
LINE
8
TOP
10
1.455335
20
0.463266
30
0.0
11
1.481176
21
0.534266
31
0.0
0
LINE
8
TOP
10
1.481176
20
0.534266
30
0.0
11
1.499820
21
0.607485
31
0.0
0
LINE
8
TOP
10
1.499820
20
0.607485
30
0.0
11
1.511081
21
0.682197
31
0.0
0
LINE
8
TOP
10
1.511081
20
0.682197
30
0.0
11
1.514847
21
0.757659
31
0.0
0
LINE
8
TOP
10
1.388532
20
0.757659
30
0.0
11
1.385393
21
0.820544
31
0.0
0
LINE
8
TOP
10
1.385393
20
0.820544
30
0.0
11
1.376009
21
0.882804
31
0.0
0
LINE
8
TOP
10
1.376009
20
0.882804
30
0.0
11
1.360472
21
0.943820
31
0.0
0
LINE
8
TOP
10
1.360472
20
0.943820
30
0.0
11
1.338938
21
1.002986
31
0.0
0
LINE
8
TOP
10
1.338938
20
1.002986
30
0.0
11
1.311619
21
1.059714
31
0.0
0
LINE
8
TOP
10
1.311619
20
1.059714
30
0.0
11
1.278788
21
1.113440
31
0.0
0
LINE
8
TOP
10
1.278788
20
1.113440
30
0.0
11
1.240770
21
1.163630
31
0.0
0
LINE
8
TOP
10
1.240770
20
1.163630
30
0.0
11
1.197944
21
1.209786
31
0.0
0
LINE
8
TOP
10
1.197944
20
1.209786
30
0.0
11
1.150736
21
1.251447
31
0.0
0
LINE
8
TOP
10
1.150736
20
1.251447
30
0.0
11
1.099613
21
1.288202
31
0.0
0
LINE
8
TOP
10
1.099613
20
1.288202
30
0.0
11
1.045086
21
1.319683
31
0.0
0
LINE
8
TOP
10
1.045086
20
1.319683
30
0.0
11
0.987694
21
1.345579
31
0.0
0
LINE
8
TOP
10
0.987694
20
1.345579
30
0.0
11
0.928010
21
1.365632
31
0.0
0
LINE
8
TOP
10
0.928010
20
1.365632
30
0.0
11
0.866625
21
1.379643
31
0.0
0
LINE
8
TOP
10
0.866625
20
1.379643
30
0.0
11
0.804151
21
1.387472
31
0.0
0
LINE
8
TOP
10
0.804151
20
1.387472
30
0.0
11
0.741207
21
1.389042
31
0.0
0
LINE
8
TOP
10
0.741207
20
1.389042
30
0.0
11
0.678420
21
1.384337
31
0.0
0
LINE
8
TOP
10
0.678420
20
1.384337
30
0.0
11
0.616413
21
1.373403
31
0.0
0
LINE
8
TOP
10
0.616413
20
1.373403
30
0.0
11
0.555803
21
1.356350
31
0.0
0
LINE
8
TOP
10
0.555803
20
1.356350
30
0.0
11
0.497192
21
1.333347
31
0.0
0
LINE
8
TOP
10
0.497192
20
1.333347
30
0.0
11
0.441163
21
1.304623
31
0.0
0
LINE
8
TOP
10
0.441163
20
1.304623
30
0.0
11
0.388272
21
1.270462
31
0.0
0
LINE
8
TOP
10
0.388272
20
1.270462
30
0.0
11
0.339046
21
1.231205
31
0.0
0
LINE
8
TOP
10
0.339046
20
1.231205
30
0.0
11
0.293972
21
1.187242
31
0.0
0
LINE
8
TOP
10
0.293972
20
1.187242
30
0.0
11
0.253501
21
1.139009
31
0.0
0
LINE
8
TOP
10
0.253501
20
1.139009
30
0.0
11
0.218032
21
1.086987
31
0.0
0
LINE
8
TOP
10
0.218032
20
1.086987
30
0.0
11
0.187920
21
1.031691
31
0.0
0
LINE
8
TOP
10
0.187920
20
1.031691
30
0.0
11
0.163463
21
0.973672
31
0.0
0
LINE
8
TOP
10
0.163463
20
0.973672
30
0.0
11
0.144904
21
0.913506
31
0.0
0
LINE
8
TOP
10
0.144904
20
0.913506
30
0.0
11
0.132428
21
0.851791
31
0.0
0
LINE
8
TOP
10
0.132428
20
0.851791
30
0.0
11
0.126159
21
0.789141
31
0.0
0
LINE
8
TOP
10
0.126159
20
0.789141
30
0.0
11
0.126159
21
0.726178
31
0.0
0
LINE
8
TOP
10
0.126159
20
0.726178
30
0.0
11
0.132428
21
0.663527
31
0.0
0
LINE
8
TOP
10
0.132428
20
0.663527
30
0.0
11
0.144904
21
0.601812
31
0.0
0
LINE
8
TOP
10
0.144904
20
0.601812
30
0.0
11
0.163463
21
0.541646
31
0.0
0
LINE
8
TOP
10
0.163463
20
0.541646
30
0.0
11
0.187920
21
0.483627
31
0.0
0
LINE
8
TOP
10
0.187920
20
0.483627
30
0.0
11
0.218032
21
0.428332
31
0.0
0
LINE
8
TOP
10
0.218032
20
0.428332
30
0.0
11
0.253501
21
0.376309
31
0.0
0
LINE
8
TOP
10
0.253501
20
0.376309
30
0.0
11
0.293972
21
0.328076
31
0.0
0
LINE
8
TOP
10
0.293972
20
0.328076
30
0.0
11
0.339046
21
0.284113
31
0.0
0
LINE
8
TOP
10
0.339046
20
0.284113
30
0.0
11
0.388272
21
0.244856
31
0.0
0
LINE
8
TOP
10
0.388272
20
0.244856
30
0.0
11
0.441163
21
0.210696
31
0.0
0
LINE
8
TOP
10
0.441163
20
0.210696
30
0.0
11
0.497192
21
0.181971
31
0.0
0
LINE
8
TOP
10
0.497192
20
0.181971
30
0.0
11
0.555803
21
0.158968
31
0.0
0
LINE
8
TOP
10
0.555803
20
0.158968
30
0.0
11
0.616413
21
0.141915
31
0.0
0
LINE
8
TOP
10
0.616413
20
0.141915
30
0.0
11
0.678420
21
0.130982
31
0.0
0
LINE
8
TOP
10
0.678420
20
0.130982
30
0.0
11
0.741207
21
0.126277
31
0.0
0
LINE
8
TOP
10
0.741207
20
0.126277
30
0.0
11
0.804151
21
0.127846
31
0.0
0
LINE
8
TOP
10
0.804151
20
0.127846
30
0.0
11
0.866625
21
0.135675
31
0.0
0
LINE
8
TOP
10
0.866625
20
0.135675
30
0.0
11
0.928010
21
0.149686
31
0.0
0
LINE
8
TOP
10
0.928010
20
0.149686
30
0.0
11
0.987694
21
0.169739
31
0.0
0
LINE
8
TOP
10
0.987694
20
0.169739
30
0.0
11
1.045086
21
0.195635
31
0.0
0
LINE
8
TOP
10
1.045086
20
0.195635
30
0.0
11
1.099613
21
0.227116
31
0.0
0
LINE
8
TOP
10
1.099613
20
0.227116
30
0.0
11
1.150736
21
0.263871
31
0.0
0
LINE
8
TOP
10
1.150736
20
0.263871
30
0.0
11
1.197944
21
0.305533
31
0.0
0
LINE
8
TOP
10
1.197944
20
0.305533
30
0.0
11
1.240770
21
0.351688
31
0.0
0
LINE
8
TOP
10
1.240770
20
0.351688
30
0.0
11
1.278788
21
0.401878
31
0.0
0
LINE
8
TOP
10
1.278788
20
0.401878
30
0.0
11
1.311619
21
0.455604
31
0.0
0
LINE
8
TOP
10
1.311619
20
0.455604
30
0.0
11
1.338938
21
0.512332
31
0.0
0
LINE
8
TOP
10
1.338938
20
0.512332
30
0.0
11
1.360472
21
0.571498
31
0.0
0
LINE
8
TOP
10
1.360472
20
0.571498
30
0.0
11
1.376009
21
0.632514
31
0.0
0
LINE
8
TOP
10
1.376009
20
0.632514
30
0.0
11
1.385393
21
0.694774
31
0.0
0
LINE
8
TOP
10
1.385393
20
0.694774
30
0.0
11
1.388532
21
0.757659
31
0.0
0
LINE
8
TOP_HID
6
HIDDEN
10
0.678745
20
1.507659
30
0.0
11
0.676445
21
1.507659
31
0.0
0
LINE
8
TOP_HID
6
HIDDEN
10
0.676445
20
1.507659
30
0.0
11
0.677831
21
1.507829
31
0.0
0
LINE
8
TOP_HID
6
HIDDEN
10
0.677831
20
1.507829
30
0.0
11
0.679218
21
1.507996
31
0.0
0
LINE
8
TOP_HID
6
HIDDEN
10
0.679218
20
1.507996
30
0.0
11
0.680605
21
1.508160
31
0.0
0
LINE
8
TOP_HID
6
HIDDEN
10
0.680605
20
1.508160
30
0.0
11
0.681993
21
1.508322
31
0.0
0
LINE
8
TOP_HID
6
HIDDEN
10
0.681993
20
1.508322
30
0.0
11
0.683381
21
1.508481
31
0.0
0
LINE
8
TOP_HID
6
HIDDEN
10
0.683381
20
1.508481
30
0.0
11
0.684769
21
1.508637
31
0.0
0
LINE
8
TOP_HID
6
HIDDEN
10
0.684769
20
1.508637
30
0.0
11
0.686157
21
1.508790
31
0.0
0
LINE
8
TOP_HID
6
HIDDEN
10
0.686157
20
1.508790
30
0.0
11
0.687546
21
1.508941
31
0.0
0
LINE
8
TOP_HID
6
HIDDEN
10
0.687546
20
1.508941
30
0.0
11
0.688935
21
1.509089
31
0.0
0
LINE
8
TOP_HID
6
HIDDEN
10
0.688935
20
1.509089
30
0.0
11
0.690324
21
1.509234
31
0.0
0
LINE
8
TOP_HID
6
HIDDEN
10
0.690324
20
1.509234
30
0.0
11
0.691714
21
1.509377
31
0.0
0
LINE
8
TOP_HID
6
HIDDEN
10
0.691714
20
1.509377
30
0.0
11
0.693104
21
1.509517
31
0.0
0
LINE
8
TOP_HID
6
HIDDEN
10
0.693104
20
1.509517
30
0.0
11
0.694494
21
1.509654
31
0.0
0
LINE
8
TOP_HID
6
HIDDEN
10
0.694494
20
1.509654
30
0.0
11
0.695885
21
1.509789
31
0.0
0
LINE
8
TOP_HID
6
HIDDEN
10
0.695885
20
1.509789
30
0.0
11
0.697275
21
1.509921
31
0.0
0
LINE
8
TOP_HID
6
HIDDEN
10
0.697275
20
1.509921
30
0.0
11
0.698666
21
1.510050
31
0.0
0
LINE
8
TOP_HID
6
HIDDEN
10
0.698666
20
1.510050
30
0.0
11
0.700057
21
1.510176
31
0.0
0
LINE
8
TOP_HID
6
HIDDEN
10
0.700057
20
1.510176
30
0.0
11
0.701449
21
1.510300
31
0.0
0
LINE
8
TOP_HID
6
HIDDEN
10
0.701449
20
1.510300
30
0.0
11
0.702840
21
1.510421
31
0.0
0
LINE
8
TOP_HID
6
HIDDEN
10
0.702840
20
1.510421
30
0.0
11
0.704232
21
1.510539
31
0.0
0
LINE
8
TOP_HID
6
HIDDEN
10
0.704232
20
1.510539
30
0.0
11
0.705624
21
1.510655
31
0.0
0
LINE
8
TOP_HID
6
HIDDEN
10
0.705624
20
1.510655
30
0.0
11
0.707017
21
1.510767
31
0.0
0
LINE
8
TOP_HID
6
HIDDEN
10
0.707017
20
1.510767
30
0.0
11
0.708409
21
1.510878
31
0.0
0
LINE
8
TOP_HID
6
HIDDEN
10
0.708409
20
1.510878
30
0.0
11
0.709802
21
1.510985
31
0.0
0
LINE
8
TOP_HID
6
HIDDEN
10
0.709802
20
1.510985
30
0.0
11
0.711195
21
1.511090
31
0.0
0
LINE
8
TOP_HID
6
HIDDEN
10
0.711195
20
1.511090
30
0.0
11
0.712588
21
1.511192
31
0.0
0
LINE
8
TOP_HID
6
HIDDEN
10
0.712588
20
1.511192
30
0.0
11
0.713982
21
1.511291
31
0.0
0
LINE
8
TOP_HID
6
HIDDEN
10
0.713982
20
1.511291
30
0.0
11
0.715375
21
1.511387
31
0.0
0
LINE
8
TOP_HID
6
HIDDEN
10
0.715375
20
1.511387
30
0.0
11
0.716769
21
1.511481
31
0.0
0
LINE
8
TOP_HID
6
HIDDEN
10
0.716769
20
1.511481
30
0.0
11
0.718163
21
1.511572
31
0.0
0
LINE
8
TOP_HID
6
HIDDEN
10
0.718163
20
1.511572
30
0.0
11
0.719557
21
1.511661
31
0.0
0
LINE
8
TOP_HID
6
HIDDEN
10
0.719557
20
1.511661
30
0.0
11
0.720951
21
1.511746
31
0.0
0
LINE
8
TOP_HID
6
HIDDEN
10
0.720951
20
1.511746
30
0.0
11
0.722346
21
1.511829
31
0.0
0
LINE
8
TOP_HID
6
HIDDEN
10
0.722346
20
1.511829
30
0.0
11
0.723740
21
1.511910
31
0.0
0
LINE
8
TOP_HID
6
HIDDEN
10
0.723740
20
1.511910
30
0.0
11
0.725135
21
1.511987
31
0.0
0
LINE
8
TOP_HID
6
HIDDEN
10
0.725135
20
1.511987
30
0.0
11
0.726530
21
1.512062
31
0.0
0
LINE
8
TOP_HID
6
HIDDEN
10
0.726530
20
1.512062
30
0.0
11
0.727925
21
1.512134
31
0.0
0
LINE
8
TOP_HID
6
HIDDEN
10
0.727925
20
1.512134
30
0.0
11
0.729320
21
1.512204
31
0.0
0
LINE
8
TOP_HID
6
HIDDEN
10
0.729320
20
1.512204
30
0.0
11
0.730716
21
1.512270
31
0.0
0
LINE
8
TOP_HID
6
HIDDEN
10
0.730716
20
1.512270
30
0.0
11
0.732111
21
1.512334
31
0.0
0
LINE
8
TOP_HID
6
HIDDEN
10
0.732111
20
1.512334
30
0.0
11
0.733507
21
1.512395
31
0.0
0
LINE
8
TOP_HID
6
HIDDEN
10
0.733507
20
1.512395
30
0.0
11
0.734902
21
1.512454
31
0.0
0
LINE
8
TOP_HID
6
HIDDEN
10
0.734902
20
1.512454
30
0.0
11
0.736298
21
1.512510
31
0.0
0
LINE
8
TOP_HID
6
HIDDEN
10
0.736298
20
1.512510
30
0.0
11
0.737694
21
1.512563
31
0.0
0
LINE
8
TOP_HID
6
HIDDEN
10
0.737694
20
1.512563
30
0.0
11
0.739090
21
1.512613
31
0.0
0
LINE
8
TOP_HID
6
HIDDEN
10
0.739090
20
1.512613
30
0.0
11
0.740486
21
1.512661
31
0.0
0
LINE
8
TOP_HID
6
HIDDEN
10
0.740486
20
1.512661
30
0.0
11
0.741882
21
1.512706
31
0.0
0
LINE
8
TOP_HID
6
HIDDEN
10
0.741882
20
1.512706
30
0.0
11
0.743279
21
1.512748
31
0.0
0
LINE
8
TOP_HID
6
HIDDEN
10
0.743279
20
1.512748
30
0.0
11
0.744675
21
1.512787
31
0.0
0
LINE
8
TOP_HID
6
HIDDEN
10
0.744675
20
1.512787
30
0.0
11
0.746071
21
1.512824
31
0.0
0
LINE
8
TOP_HID
6
HIDDEN
10
0.746071
20
1.512824
30
0.0
11
0.747468
21
1.512858
31
0.0
0
LINE
8
TOP_HID
6
HIDDEN
10
0.747468
20
1.512858
30
0.0
11
0.748864
21
1.512889
31
0.0
0
LINE
8
TOP_HID
6
HIDDEN
10
0.748864
20
1.512889
30
0.0
11
0.750261
21
1.512918
31
0.0
0
LINE
8
TOP_HID
6
HIDDEN
10
0.750261
20
1.512918
30
0.0
11
0.751658
21
1.512944
31
0.0
0
LINE
8
TOP_HID
6
HIDDEN
10
0.751658
20
1.512944
30
0.0
11
0.753055
21
1.512967
31
0.0
0
LINE
8
TOP_HID
6
HIDDEN
10
0.753055
20
1.512967
30
0.0
11
0.754451
21
1.512987
31
0.0
0
LINE
8
TOP_HID
6
HIDDEN
10
0.754451
20
1.512987
30
0.0
11
0.755848
21
1.513005
31
0.0
0
LINE
8
TOP_HID
6
HIDDEN
10
0.755848
20
1.513005
30
0.0
11
0.757245
21
1.513020
31
0.0
0
LINE
8
TOP_HID
6
HIDDEN
10
0.757245
20
1.513020
30
0.0
11
0.758642
21
1.513032
31
0.0
0
LINE
8
TOP_HID
6
HIDDEN
10
0.758642
20
1.513032
30
0.0
11
0.760039
21
1.513042
31
0.0
0
LINE
8
TOP_HID
6
HIDDEN
10
0.760039
20
1.513042
30
0.0
11
0.761436
21
1.513049
31
0.0
0
LINE
8
TOP_HID
6
HIDDEN
10
0.761436
20
1.513049
30
0.0
11
0.762832
21
1.513053
31
0.0
0
LINE
8
TOP_HID
6
HIDDEN
10
0.762832
20
1.513053
30
0.0
11
0.764229
21
1.513054
31
0.0
0
LINE
8
TOP_HID
6
HIDDEN
10
0.764229
20
1.513054
30
0.0
11
0.765068
21
1.513053
31
0.0
0
LINE
8
TOP_HID
6
HIDDEN
10
0.765068
20
1.513053
30
0.0
11
0.765906
21
1.513052
31
0.0
0
LINE
8
TOP_HID
6
HIDDEN
10
0.765906
20
1.513052
30
0.0
11
0.766744
21
1.513050
31
0.0
0
LINE
8
TOP_HID
6
HIDDEN
10
0.766744
20
1.513050
30
0.0
11
0.767582
21
1.513046
31
0.0
0
LINE
8
TOP_HID
6
HIDDEN
10
0.767582
20
1.513046
30
0.0
11
0.768420
21
1.513042
31
0.0
0
LINE
8
TOP_HID
6
HIDDEN
10
0.768420
20
1.513042
30
0.0
11
0.769258
21
1.513036
31
0.0
0
LINE
8
TOP_HID
6
HIDDEN
10
0.769258
20
1.513036
30
0.0
11
0.770096
21
1.513030
31
0.0
0
LINE
8
TOP_HID
6
HIDDEN
10
0.770096
20
1.513030
30
0.0
11
0.770934
21
1.513023
31
0.0
0
LINE
8
TOP_HID
6
HIDDEN
10
0.770934
20
1.513023
30
0.0
11
0.771773
21
1.513014
31
0.0
0
LINE
8
TOP_HID
6
HIDDEN
10
0.771773
20
1.513014
30
0.0
11
0.772611
21
1.513005
31
0.0
0
LINE
8
TOP_HID
6
HIDDEN
10
0.772611
20
1.513005
30
0.0
11
0.773449
21
1.512995
31
0.0
0
LINE
8
TOP_HID
6
HIDDEN
10
0.773449
20
1.512995
30
0.0
11
0.774287
21
1.512983
31
0.0
0
LINE
8
TOP_HID
6
HIDDEN
10
0.774287
20
1.512983
30
0.0
11
0.775125
21
1.512971
31
0.0
0
LINE
8
TOP_HID
6
HIDDEN
10
0.775125
20
1.512971
30
0.0
11
0.775963
21
1.512958
31
0.0
0
LINE
8
TOP_HID
6
HIDDEN
10
0.775963
20
1.512958
30
0.0
11
0.776801
21
1.512944
31
0.0
0
LINE
8
TOP_HID
6
HIDDEN
10
0.776801
20
1.512944
30
0.0
11
0.777639
21
1.512929
31
0.0
0
LINE
8
TOP_HID
6
HIDDEN
10
0.777639
20
1.512929
30
0.0
11
0.778477
21
1.512912
31
0.0
0
LINE
8
TOP_HID
6
HIDDEN
10
0.778477
20
1.512912
30
0.0
11
0.779315
21
1.512895
31
0.0
0
LINE
8
TOP_HID
6
HIDDEN
10
0.779315
20
1.512895
30
0.0
11
0.780153
21
1.512877
31
0.0
0
LINE
8
TOP_HID
6
HIDDEN
10
0.780153
20
1.512877
30
0.0
11
0.780991
21
1.512858
31
0.0
0
LINE
8
TOP_HID
6
HIDDEN
10
0.780991
20
1.512858
30
0.0
11
0.781829
21
1.512838
31
0.0
0
LINE
8
TOP_HID
6
HIDDEN
10
0.781829
20
1.512838
30
0.0
11
0.782667
21
1.512817
31
0.0
0
LINE
8
TOP_HID
6
HIDDEN
10
0.782667
20
1.512817
30
0.0
11
0.783504
21
1.512795
31
0.0
0
LINE
8
TOP_HID
6
HIDDEN
10
0.783504
20
1.512795
30
0.0
11
0.784342
21
1.512772
31
0.0
0
LINE
8
TOP_HID
6
HIDDEN
10
0.784342
20
1.512772
30
0.0
11
0.785180
21
1.512748
31
0.0
0
LINE
8
TOP_HID
6
HIDDEN
10
0.785180
20
1.512748
30
0.0
11
0.786018
21
1.512723
31
0.0
0
LINE
8
TOP_HID
6
HIDDEN
10
0.786018
20
1.512723
30
0.0
11
0.786856
21
1.512697
31
0.0
0
LINE
8
TOP_HID
6
HIDDEN
10
0.786856
20
1.512697
30
0.0
11
0.787693
21
1.512670
31
0.0
0
LINE
8
TOP_HID
6
HIDDEN
10
0.787693
20
1.512670
30
0.0
11
0.788531
21
1.512642
31
0.0
0
LINE
8
TOP_HID
6
HIDDEN
10
0.788531
20
1.512642
30
0.0
11
0.789369
21
1.512613
31
0.0
0
LINE
8
TOP_HID
6
HIDDEN
10
0.789369
20
1.512613
30
0.0
11
0.790206
21
1.512583
31
0.0
0
LINE
8
TOP_HID
6
HIDDEN
10
0.790206
20
1.512583
30
0.0
11
0.791044
21
1.512552
31
0.0
0
LINE
8
TOP_HID
6
HIDDEN
10
0.791044
20
1.512552
30
0.0
11
0.791881
21
1.512520
31
0.0
0
LINE
8
TOP_HID
6
HIDDEN
10
0.791881
20
1.512520
30
0.0
11
0.792719
21
1.512488
31
0.0
0
LINE
8
TOP_HID
6
HIDDEN
10
0.792719
20
1.512488
30
0.0
11
0.793556
21
1.512454
31
0.0
0
LINE
8
TOP_HID
6
HIDDEN
10
0.793556
20
1.512454
30
0.0
11
0.794394
21
1.512419
31
0.0
0
LINE
8
TOP_HID
6
HIDDEN
10
0.794394
20
1.512419
30
0.0
11
0.795231
21
1.512383
31
0.0
0
LINE
8
TOP_HID
6
HIDDEN
10
0.795231
20
1.512383
30
0.0
11
0.796069
21
1.512347
31
0.0
0
LINE
8
TOP_HID
6
HIDDEN
10
0.796069
20
1.512347
30
0.0
11
0.796906
21
1.512309
31
0.0
0
LINE
8
TOP_HID
6
HIDDEN
10
0.796906
20
1.512309
30
0.0
11
0.797743
21
1.512270
31
0.0
0
LINE
8
TOP_HID
6
HIDDEN
10
0.797743
20
1.512270
30
0.0
11
0.798580
21
1.512231
31
0.0
0
LINE
8
TOP_HID
6
HIDDEN
10
0.798580
20
1.512231
30
0.0
11
0.799417
21
1.512190
31
0.0
0
LINE
8
TOP_HID
6
HIDDEN
10
0.799417
20
1.512190
30
0.0
11
0.800255
21
1.512148
31
0.0
0
LINE
8
TOP_HID
6
HIDDEN
10
0.800255
20
1.512148
30
0.0
11
0.801092
21
1.512106
31
0.0
0
LINE
8
TOP_HID
6
HIDDEN
10
0.801092
20
1.512106
30
0.0
11
0.801929
21
1.512062
31
0.0
0
LINE
8
TOP_HID
6
HIDDEN
10
0.801929
20
1.512062
30
0.0
11
0.802766
21
1.512018
31
0.0
0
LINE
8
TOP_HID
6
HIDDEN
10
0.802766
20
1.512018
30
0.0
11
0.803602
21
1.511972
31
0.0
0
LINE
8
TOP_HID
6
HIDDEN
10
0.803602
20
1.511972
30
0.0
11
0.804439
21
1.511925
31
0.0
0
LINE
8
TOP_HID
6
HIDDEN
10
0.804439
20
1.511925
30
0.0
11
0.805276
21
1.511878
31
0.0
0
LINE
8
TOP_HID
6
HIDDEN
10
0.805276
20
1.511878
30
0.0
11
0.806113
21
1.511829
31
0.0
0
LINE
8
TOP_HID
6
HIDDEN
10
0.806113
20
1.511829
30
0.0
11
0.806950
21
1.511780
31
0.0
0
LINE
8
TOP_HID
6
HIDDEN
10
0.806950
20
1.511780
30
0.0
11
0.807786
21
1.511730
31
0.0
0
LINE
8
TOP_HID
6
HIDDEN
10
0.807786
20
1.511730
30
0.0
11
0.808623
21
1.511678
31
0.0
0
LINE
8
TOP_HID
6
HIDDEN
10
0.808623
20
1.511678
30
0.0
11
0.809459
21
1.511626
31
0.0
0
LINE
8
TOP_HID
6
HIDDEN
10
0.809459
20
1.511626
30
0.0
11
0.810296
21
1.511572
31
0.0
0
LINE
8
TOP_HID
6
HIDDEN
10
0.810296
20
1.511572
30
0.0
11
0.811132
21
1.511518
31
0.0
0
LINE
8
TOP_HID
6
HIDDEN
10
0.811132
20
1.511518
30
0.0
11
0.811968
21
1.511463
31
0.0
0
LINE
8
TOP_HID
6
HIDDEN
10
0.811968
20
1.511463
30
0.0
11
0.812805
21
1.511406
31
0.0
0
LINE
8
TOP_HID
6
HIDDEN
10
0.812805
20
1.511406
30
0.0
11
0.813641
21
1.511349
31
0.0
0
LINE
8
TOP_HID
6
HIDDEN
10
0.813641
20
1.511349
30
0.0
11
0.814477
21
1.511291
31
0.0
0
LINE
8
TOP_HID
6
HIDDEN
10
0.814477
20
1.511291
30
0.0
11
0.815313
21
1.511232
31
0.0
0
LINE
8
TOP_HID
6
HIDDEN
10
0.815313
20
1.511232
30
0.0
11
0.816149
21
1.511171
31
0.0
0
LINE
8
TOP_HID
6
HIDDEN
10
0.816149
20
1.511171
30
0.0
11
0.816985
21
1.511110
31
0.0
0
LINE
8
TOP_HID
6
HIDDEN
10
0.819286
20
1.511110
30
0.0
11
0.816985
21
1.511110
31
0.0
0
LINE
8
TOP_HID
6
HIDDEN
10
0.678745
20
1.507659
30
0.0
11
0.680132
21
1.507829
31
0.0
0
LINE
8
TOP_HID
6
HIDDEN
10
0.680132
20
1.507829
30
0.0
11
0.681519
21
1.507996
31
0.0
0
LINE
8
TOP_HID
6
HIDDEN
10
0.681519
20
1.507996
30
0.0
11
0.682906
21
1.508160
31
0.0
0
LINE
8
TOP_HID
6
HIDDEN
10
0.682906
20
1.508160
30
0.0
11
0.684294
21
1.508322
31
0.0
0
LINE
8
TOP_HID
6
HIDDEN
10
0.684294
20
1.508322
30
0.0
11
0.685681
21
1.508481
31
0.0
0
LINE
8
TOP_HID
6
HIDDEN
10
0.685681
20
1.508481
30
0.0
11
0.687070
21
1.508637
31
0.0
0
LINE
8
TOP_HID
6
HIDDEN
10
0.687070
20
1.508637
30
0.0
11
0.688458
21
1.508790
31
0.0
0
LINE
8
TOP_HID
6
HIDDEN
10
0.688458
20
1.508790
30
0.0
11
0.689847
21
1.508941
31
0.0
0
LINE
8
TOP_HID
6
HIDDEN
10
0.689847
20
1.508941
30
0.0
11
0.691236
21
1.509089
31
0.0
0
LINE
8
TOP_HID
6
HIDDEN
10
0.691236
20
1.509089
30
0.0
11
0.692625
21
1.509234
31
0.0
0
LINE
8
TOP_HID
6
HIDDEN
10
0.692625
20
1.509234
30
0.0
11
0.694015
21
1.509377
31
0.0
0
LINE
8
TOP_HID
6
HIDDEN
10
0.694015
20
1.509377
30
0.0
11
0.695405
21
1.509517
31
0.0
0
LINE
8
TOP_HID
6
HIDDEN
10
0.695405
20
1.509517
30
0.0
11
0.696795
21
1.509654
31
0.0
0
LINE
8
TOP_HID
6
HIDDEN
10
0.696795
20
1.509654
30
0.0
11
0.698185
21
1.509789
31
0.0
0
LINE
8
TOP_HID
6
HIDDEN
10
0.698185
20
1.509789
30
0.0
11
0.699576
21
1.509921
31
0.0
0
LINE
8
TOP_HID
6
HIDDEN
10
0.699576
20
1.509921
30
0.0
11
0.700967
21
1.510050
31
0.0
0
LINE
8
TOP_HID
6
HIDDEN
10
0.700967
20
1.510050
30
0.0
11
0.702358
21
1.510176
31
0.0
0
LINE
8
TOP_HID
6
HIDDEN
10
0.702358
20
1.510176
30
0.0
11
0.703749
21
1.510300
31
0.0
0
LINE
8
TOP_HID
6
HIDDEN
10
0.703749
20
1.510300
30
0.0
11
0.705141
21
1.510421
31
0.0
0
LINE
8
TOP_HID
6
HIDDEN
10
0.705141
20
1.510421
30
0.0
11
0.706533
21
1.510539
31
0.0
0
LINE
8
TOP_HID
6
HIDDEN
10
0.706533
20
1.510539
30
0.0
11
0.707925
21
1.510655
31
0.0
0
LINE
8
TOP_HID
6
HIDDEN
10
0.707925
20
1.510655
30
0.0
11
0.709318
21
1.510767
31
0.0
0
LINE
8
TOP_HID
6
HIDDEN
10
0.709318
20
1.510767
30
0.0
11
0.710710
21
1.510878
31
0.0
0
LINE
8
TOP_HID
6
HIDDEN
10
0.710710
20
1.510878
30
0.0
11
0.712103
21
1.510985
31
0.0
0
LINE
8
TOP_HID
6
HIDDEN
10
0.712103
20
1.510985
30
0.0
11
0.713496
21
1.511090
31
0.0
0
LINE
8
TOP_HID
6
HIDDEN
10
0.713496
20
1.511090
30
0.0
11
0.714889
21
1.511192
31
0.0
0
LINE
8
TOP_HID
6
HIDDEN
10
0.714889
20
1.511192
30
0.0
11
0.716282
21
1.511291
31
0.0
0
LINE
8
TOP_HID
6
HIDDEN
10
0.716282
20
1.511291
30
0.0
11
0.717676
21
1.511387
31
0.0
0
LINE
8
TOP_HID
6
HIDDEN
10
0.717676
20
1.511387
30
0.0
11
0.719070
21
1.511481
31
0.0
0
LINE
8
TOP_HID
6
HIDDEN
10
0.719070
20
1.511481
30
0.0
11
0.720464
21
1.511572
31
0.0
0
LINE
8
TOP_HID
6
HIDDEN
10
0.720464
20
1.511572
30
0.0
11
0.721858
21
1.511661
31
0.0
0
LINE
8
TOP_HID
6
HIDDEN
10
0.721858
20
1.511661
30
0.0
11
0.723252
21
1.511746
31
0.0
0
LINE
8
TOP_HID
6
HIDDEN
10
0.723252
20
1.511746
30
0.0
11
0.724647
21
1.511829
31
0.0
0
LINE
8
TOP_HID
6
HIDDEN
10
0.724647
20
1.511829
30
0.0
11
0.726041
21
1.511910
31
0.0
0
LINE
8
TOP_HID
6
HIDDEN
10
0.726041
20
1.511910
30
0.0
11
0.727436
21
1.511987
31
0.0
0
LINE
8
TOP_HID
6
HIDDEN
10
0.727436
20
1.511987
30
0.0
11
0.728831
21
1.512062
31
0.0
0
LINE
8
TOP_HID
6
HIDDEN
10
0.728831
20
1.512062
30
0.0
11
0.730226
21
1.512134
31
0.0
0
LINE
8
TOP_HID
6
HIDDEN
10
0.730226
20
1.512134
30
0.0
11
0.731621
21
1.512204
31
0.0
0
LINE
8
TOP_HID
6
HIDDEN
10
0.731621
20
1.512204
30
0.0
11
0.733016
21
1.512270
31
0.0
0
LINE
8
TOP_HID
6
HIDDEN
10
0.733016
20
1.512270
30
0.0
11
0.734412
21
1.512334
31
0.0
0
LINE
8
TOP_HID
6
HIDDEN
10
0.734412
20
1.512334
30
0.0
11
0.735807
21
1.512395
31
0.0
0
LINE
8
TOP_HID
6
HIDDEN
10
0.735807
20
1.512395
30
0.0
11
0.737203
21
1.512454
31
0.0
0
LINE
8
TOP_HID
6
HIDDEN
10
0.737203
20
1.512454
30
0.0
11
0.738599
21
1.512510
31
0.0
0
LINE
8
TOP_HID
6
HIDDEN
10
0.738599
20
1.512510
30
0.0
11
0.739995
21
1.512563
31
0.0
0
LINE
8
TOP_HID
6
HIDDEN
10
0.739995
20
1.512563
30
0.0
11
0.741391
21
1.512613
31
0.0
0
LINE
8
TOP_HID
6
HIDDEN
10
0.741391
20
1.512613
30
0.0
11
0.742787
21
1.512661
31
0.0
0
LINE
8
TOP_HID
6
HIDDEN
10
0.742787
20
1.512661
30
0.0
11
0.744183
21
1.512706
31
0.0
0
LINE
8
TOP_HID
6
HIDDEN
10
0.744183
20
1.512706
30
0.0
11
0.745579
21
1.512748
31
0.0
0
LINE
8
TOP_HID
6
HIDDEN
10
0.745579
20
1.512748
30
0.0
11
0.746976
21
1.512787
31
0.0
0
LINE
8
TOP_HID
6
HIDDEN
10
0.746976
20
1.512787
30
0.0
11
0.748372
21
1.512824
31
0.0
0
LINE
8
TOP_HID
6
HIDDEN
10
0.748372
20
1.512824
30
0.0
11
0.749769
21
1.512858
31
0.0
0
LINE
8
TOP_HID
6
HIDDEN
10
0.749769
20
1.512858
30
0.0
11
0.751165
21
1.512889
31
0.0
0
LINE
8
TOP_HID
6
HIDDEN
10
0.751165
20
1.512889
30
0.0
11
0.752562
21
1.512918
31
0.0
0
LINE
8
TOP_HID
6
HIDDEN
10
0.752562
20
1.512918
30
0.0
11
0.753959
21
1.512944
31
0.0
0
LINE
8
TOP_HID
6
HIDDEN
10
0.753959
20
1.512944
30
0.0
11
0.755355
21
1.512967
31
0.0
0
LINE
8
TOP_HID
6
HIDDEN
10
0.755355
20
1.512967
30
0.0
11
0.756752
21
1.512987
31
0.0
0
LINE
8
TOP_HID
6
HIDDEN
10
0.756752
20
1.512987
30
0.0
11
0.758149
21
1.513005
31
0.0
0
LINE
8
TOP_HID
6
HIDDEN
10
0.758149
20
1.513005
30
0.0
11
0.759546
21
1.513020
31
0.0
0
LINE
8
TOP_HID
6
HIDDEN
10
0.759546
20
1.513020
30
0.0
11
0.760943
21
1.513032
31
0.0
0
LINE
8
TOP_HID
6
HIDDEN
10
0.760943
20
1.513032
30
0.0
11
0.762339
21
1.513042
31
0.0
0
LINE
8
TOP_HID
6
HIDDEN
10
0.762339
20
1.513042
30
0.0
11
0.763736
21
1.513049
31
0.0
0
LINE
8
TOP_HID
6
HIDDEN
10
0.763736
20
1.513049
30
0.0
11
0.765133
21
1.513053
31
0.0
0
LINE
8
TOP_HID
6
HIDDEN
10
0.765133
20
1.513053
30
0.0
11
0.766530
21
1.513054
31
0.0
0
LINE
8
TOP_HID
6
HIDDEN
10
0.766530
20
1.513054
30
0.0
11
0.767368
21
1.513053
31
0.0
0
LINE
8
TOP_HID
6
HIDDEN
10
0.767368
20
1.513053
30
0.0
11
0.768206
21
1.513052
31
0.0
0
LINE
8
TOP_HID
6
HIDDEN
10
0.768206
20
1.513052
30
0.0
11
0.769045
21
1.513050
31
0.0
0
LINE
8
TOP_HID
6
HIDDEN
10
0.769045
20
1.513050
30
0.0
11
0.769883
21
1.513046
31
0.0
0
LINE
8
TOP_HID
6
HIDDEN
10
0.769883
20
1.513046
30
0.0
11
0.770721
21
1.513042
31
0.0
0
LINE
8
TOP_HID
6
HIDDEN
10
0.770721
20
1.513042
30
0.0
11
0.771559
21
1.513036
31
0.0
0
LINE
8
TOP_HID
6
HIDDEN
10
0.771559
20
1.513036
30
0.0
11
0.772397
21
1.513030
31
0.0
0
LINE
8
TOP_HID
6
HIDDEN
10
0.772397
20
1.513030
30
0.0
11
0.773235
21
1.513023
31
0.0
0
LINE
8
TOP_HID
6
HIDDEN
10
0.773235
20
1.513023
30
0.0
11
0.774073
21
1.513014
31
0.0
0
LINE
8
TOP_HID
6
HIDDEN
10
0.774073
20
1.513014
30
0.0
11
0.774911
21
1.513005
31
0.0
0
LINE
8
TOP_HID
6
HIDDEN
10
0.774911
20
1.513005
30
0.0
11
0.775749
21
1.512995
31
0.0
0
LINE
8
TOP_HID
6
HIDDEN
10
0.775749
20
1.512995
30
0.0
11
0.776588
21
1.512983
31
0.0
0
LINE
8
TOP_HID
6
HIDDEN
10
0.776588
20
1.512983
30
0.0
11
0.777426
21
1.512971
31
0.0
0
LINE
8
TOP_HID
6
HIDDEN
10
0.777426
20
1.512971
30
0.0
11
0.778264
21
1.512958
31
0.0
0
LINE
8
TOP_HID
6
HIDDEN
10
0.778264
20
1.512958
30
0.0
11
0.779102
21
1.512944
31
0.0
0
LINE
8
TOP_HID
6
HIDDEN
10
0.779102
20
1.512944
30
0.0
11
0.779940
21
1.512929
31
0.0
0
LINE
8
TOP_HID
6
HIDDEN
10
0.779940
20
1.512929
30
0.0
11
0.780778
21
1.512912
31
0.0
0
LINE
8
TOP_HID
6
HIDDEN
10
0.780778
20
1.512912
30
0.0
11
0.781616
21
1.512895
31
0.0
0
LINE
8
TOP_HID
6
HIDDEN
10
0.781616
20
1.512895
30
0.0
11
0.782454
21
1.512877
31
0.0
0
LINE
8
TOP_HID
6
HIDDEN
10
0.782454
20
1.512877
30
0.0
11
0.783292
21
1.512858
31
0.0
0
LINE
8
TOP_HID
6
HIDDEN
10
0.783292
20
1.512858
30
0.0
11
0.784129
21
1.512838
31
0.0
0
LINE
8
TOP_HID
6
HIDDEN
10
0.784129
20
1.512838
30
0.0
11
0.784967
21
1.512817
31
0.0
0
LINE
8
TOP_HID
6
HIDDEN
10
0.784967
20
1.512817
30
0.0
11
0.785805
21
1.512795
31
0.0
0
LINE
8
TOP_HID
6
HIDDEN
10
0.785805
20
1.512795
30
0.0
11
0.786643
21
1.512772
31
0.0
0
LINE
8
TOP_HID
6
HIDDEN
10
0.786643
20
1.512772
30
0.0
11
0.787481
21
1.512748
31
0.0
0
LINE
8
TOP_HID
6
HIDDEN
10
0.787481
20
1.512748
30
0.0
11
0.788319
21
1.512723
31
0.0
0
LINE
8
TOP_HID
6
HIDDEN
10
0.788319
20
1.512723
30
0.0
11
0.789156
21
1.512697
31
0.0
0
LINE
8
TOP_HID
6
HIDDEN
10
0.789156
20
1.512697
30
0.0
11
0.789994
21
1.512670
31
0.0
0
LINE
8
TOP_HID
6
HIDDEN
10
0.789994
20
1.512670
30
0.0
11
0.790832
21
1.512642
31
0.0
0
LINE
8
TOP_HID
6
HIDDEN
10
0.790832
20
1.512642
30
0.0
11
0.791669
21
1.512613
31
0.0
0
LINE
8
TOP_HID
6
HIDDEN
10
0.791669
20
1.512613
30
0.0
11
0.792507
21
1.512583
31
0.0
0
LINE
8
TOP_HID
6
HIDDEN
10
0.792507
20
1.512583
30
0.0
11
0.793345
21
1.512552
31
0.0
0
LINE
8
TOP_HID
6
HIDDEN
10
0.793345
20
1.512552
30
0.0
11
0.794182
21
1.512520
31
0.0
0
LINE
8
TOP_HID
6
HIDDEN
10
0.794182
20
1.512520
30
0.0
11
0.795020
21
1.512488
31
0.0
0
LINE
8
TOP_HID
6
HIDDEN
10
0.795020
20
1.512488
30
0.0
11
0.795857
21
1.512454
31
0.0
0
LINE
8
TOP_HID
6
HIDDEN
10
0.795857
20
1.512454
30
0.0
11
0.796695
21
1.512419
31
0.0
0
LINE
8
TOP_HID
6
HIDDEN
10
0.796695
20
1.512419
30
0.0
11
0.797532
21
1.512383
31
0.0
0
LINE
8
TOP_HID
6
HIDDEN
10
0.797532
20
1.512383
30
0.0
11
0.798369
21
1.512347
31
0.0
0
LINE
8
TOP_HID
6
HIDDEN
10
0.798369
20
1.512347
30
0.0
11
0.799207
21
1.512309
31
0.0
0
LINE
8
TOP_HID
6
HIDDEN
10
0.799207
20
1.512309
30
0.0
11
0.800044
21
1.512270
31
0.0
0
LINE
8
TOP_HID
6
HIDDEN
10
0.800044
20
1.512270
30
0.0
11
0.800881
21
1.512231
31
0.0
0
LINE
8
TOP_HID
6
HIDDEN
10
0.800881
20
1.512231
30
0.0
11
0.801718
21
1.512190
31
0.0
0
LINE
8
TOP_HID
6
HIDDEN
10
0.801718
20
1.512190
30
0.0
11
0.802555
21
1.512148
31
0.0
0
LINE
8
TOP_HID
6
HIDDEN
10
0.802555
20
1.512148
30
0.0
11
0.803392
21
1.512106
31
0.0
0
LINE
8
TOP_HID
6
HIDDEN
10
0.803392
20
1.512106
30
0.0
11
0.804229
21
1.512062
31
0.0
0
LINE
8
TOP_HID
6
HIDDEN
10
0.804229
20
1.512062
30
0.0
11
0.805066
21
1.512018
31
0.0
0
LINE
8
TOP_HID
6
HIDDEN
10
0.805066
20
1.512018
30
0.0
11
0.805903
21
1.511972
31
0.0
0
LINE
8
TOP_HID
6
HIDDEN
10
0.805903
20
1.511972
30
0.0
11
0.806740
21
1.511925
31
0.0
0
LINE
8
TOP_HID
6
HIDDEN
10
0.806740
20
1.511925
30
0.0
11
0.807577
21
1.511878
31
0.0
0
LINE
8
TOP_HID
6
HIDDEN
10
0.807577
20
1.511878
30
0.0
11
0.808414
21
1.511829
31
0.0
0
LINE
8
TOP_HID
6
HIDDEN
10
0.808414
20
1.511829
30
0.0
11
0.809250
21
1.511780
31
0.0
0
LINE
8
TOP_HID
6
HIDDEN
10
0.809250
20
1.511780
30
0.0
11
0.810087
21
1.511730
31
0.0
0
LINE
8
TOP_HID
6
HIDDEN
10
0.810087
20
1.511730
30
0.0
11
0.810924
21
1.511678
31
0.0
0
LINE
8
TOP_HID
6
HIDDEN
10
0.810924
20
1.511678
30
0.0
11
0.811760
21
1.511626
31
0.0
0
LINE
8
TOP_HID
6
HIDDEN
10
0.811760
20
1.511626
30
0.0
11
0.812596
21
1.511572
31
0.0
0
LINE
8
TOP_HID
6
HIDDEN
10
0.812596
20
1.511572
30
0.0
11
0.813433
21
1.511518
31
0.0
0
LINE
8
TOP_HID
6
HIDDEN
10
0.813433
20
1.511518
30
0.0
11
0.814269
21
1.511463
31
0.0
0
LINE
8
TOP_HID
6
HIDDEN
10
0.814269
20
1.511463
30
0.0
11
0.815105
21
1.511406
31
0.0
0
LINE
8
TOP_HID
6
HIDDEN
10
0.815105
20
1.511406
30
0.0
11
0.815942
21
1.511349
31
0.0
0
LINE
8
TOP_HID
6
HIDDEN
10
0.815942
20
1.511349
30
0.0
11
0.816778
21
1.511291
31
0.0
0
LINE
8
TOP_HID
6
HIDDEN
10
0.816778
20
1.511291
30
0.0
11
0.817614
21
1.511232
31
0.0
0
LINE
8
TOP_HID
6
HIDDEN
10
0.817614
20
1.511232
30
0.0
11
0.818450
21
1.511171
31
0.0
0
LINE
8
TOP_HID
6
HIDDEN
10
0.818450
20
1.511171
30
0.0
11
0.819286
21
1.511110
31
0.0
0
LINE
8
TOP_HID
6
HIDDEN
10
0.681469
20
1.396673
30
0.0
11
0.679168
21
1.396673
31
0.0
0
LINE
8
TOP_HID
6
HIDDEN
10
0.679168
20
1.396673
30
0.0
11
0.676445
21
1.507659
31
0.0
0
LINE
8
TOP_HID
6
HIDDEN
10
0.681469
20
1.396673
30
0.0
11
0.678745
21
1.507659
31
0.0
0
LINE
8
TOP_HID
6
HIDDEN
10
0.816985
20
1.511110
30
0.0
11
0.819709
21
1.400124
31
0.0
0
LINE
8
TOP_HID
6
HIDDEN
10
0.822009
20
1.400124
30
0.0
11
0.819709
21
1.400124
31
0.0
0
LINE
8
TOP_HID
6
HIDDEN
10
0.819286
20
1.511110
30
0.0
11
0.822009
21
1.400124
31
0.0
0
LINE
8
TOP_HID
6
HIDDEN
10
0.822009
20
1.400124
30
0.0
11
0.821143
21
1.400198
31
0.0
0
LINE
8
TOP_HID
6
HIDDEN
10
0.821143
20
1.400198
30
0.0
11
0.820277
21
1.400271
31
0.0
0
LINE
8
TOP_HID
6
HIDDEN
10
0.820277
20
1.400271
30
0.0
11
0.819410
21
1.400343
31
0.0
0
LINE
8
TOP_HID
6
HIDDEN
10
0.819410
20
1.400343
30
0.0
11
0.818543
21
1.400413
31
0.0
0
LINE
8
TOP_HID
6
HIDDEN
10
0.818543
20
1.400413
30
0.0
11
0.817676
21
1.400482
31
0.0
0
LINE
8
TOP_HID
6
HIDDEN
10
0.817676
20
1.400482
30
0.0
11
0.816810
21
1.400550
31
0.0
0
LINE
8
TOP_HID
6
HIDDEN
10
0.816810
20
1.400550
30
0.0
11
0.815943
21
1.400617
31
0.0
0
LINE
8
TOP_HID
6
HIDDEN
10
0.815943
20
1.400617
30
0.0
11
0.815075
21
1.400683
31
0.0
0
LINE
8
TOP_HID
6
HIDDEN
10
0.815075
20
1.400683
30
0.0
11
0.814208
21
1.400748
31
0.0
0
LINE
8
TOP_HID
6
HIDDEN
10
0.814208
20
1.400748
30
0.0
11
0.813341
21
1.400811
31
0.0
0
LINE
8
TOP_HID
6
HIDDEN
10
0.813341
20
1.400811
30
0.0
11
0.812474
21
1.400873
31
0.0
0
LINE
8
TOP_HID
6
HIDDEN
10
0.812474
20
1.400873
30
0.0
11
0.811606
21
1.400934
31
0.0
0
LINE
8
TOP_HID
6
HIDDEN
10
0.811606
20
1.400934
30
0.0
11
0.810739
21
1.400994
31
0.0
0
LINE
8
TOP_HID
6
HIDDEN
10
0.810739
20
1.400994
30
0.0
11
0.809871
21
1.401053
31
0.0
0
LINE
8
TOP_HID
6
HIDDEN
10
0.809871
20
1.401053
30
0.0
11
0.809004
21
1.401110
31
0.0
0
LINE
8
TOP_HID
6
HIDDEN
10
0.809004
20
1.401110
30
0.0
11
0.808136
21
1.401167
31
0.0
0
LINE
8
TOP_HID
6
HIDDEN
10
0.808136
20
1.401167
30
0.0
11
0.807268
21
1.401222
31
0.0
0
LINE
8
TOP_HID
6
HIDDEN
10
0.807268
20
1.401222
30
0.0
11
0.806400
21
1.401276
31
0.0
0
LINE
8
TOP_HID
6
HIDDEN
10
0.806400
20
1.401276
30
0.0
11
0.805532
21
1.401328
31
0.0
0
LINE
8
TOP_HID
6
HIDDEN
10
0.805532
20
1.401328
30
0.0
11
0.804664
21
1.401380
31
0.0
0
LINE
8
TOP_HID
6
HIDDEN
10
0.804664
20
1.401380
30
0.0
11
0.803796
21
1.401430
31
0.0
0
LINE
8
TOP_HID
6
HIDDEN
10
0.803796
20
1.401430
30
0.0
11
0.802928
21
1.401480
31
0.0
0
LINE
8
TOP_HID
6
HIDDEN
10
0.802928
20
1.401480
30
0.0
11
0.802060
21
1.401528
31
0.0
0
LINE
8
TOP_HID
6
HIDDEN
10
0.802060
20
1.401528
30
0.0
11
0.801191
21
1.401574
31
0.0
0
LINE
8
TOP_HID
6
HIDDEN
10
0.801191
20
1.401574
30
0.0
11
0.800323
21
1.401620
31
0.0
0
LINE
8
TOP_HID
6
HIDDEN
10
0.800323
20
1.401620
30
0.0
11
0.799455
21
1.401665
31
0.0
0
LINE
8
TOP_HID
6
HIDDEN
10
0.799455
20
1.401665
30
0.0
11
0.798586
21
1.401708
31
0.0
0
LINE
8
TOP_HID
6
HIDDEN
10
0.798586
20
1.401708
30
0.0
11
0.797718
21
1.401750
31
0.0
0
LINE
8
TOP_HID
6
HIDDEN
10
0.797718
20
1.401750
30
0.0
11
0.796849
21
1.401791
31
0.0
0
LINE
8
TOP_HID
6
HIDDEN
10
0.796849
20
1.401791
30
0.0
11
0.795980
21
1.401831
31
0.0
0
LINE
8
TOP_HID
6
HIDDEN
10
0.795980
20
1.401831
30
0.0
11
0.795112
21
1.401869
31
0.0
0
LINE
8
TOP_HID
6
HIDDEN
10
0.795112
20
1.401869
30
0.0
11
0.794243
21
1.401906
31
0.0
0
LINE
8
TOP_HID
6
HIDDEN
10
0.794243
20
1.401906
30
0.0
11
0.793374
21
1.401943
31
0.0
0
LINE
8
TOP_HID
6
HIDDEN
10
0.793374
20
1.401943
30
0.0
11
0.792505
21
1.401978
31
0.0
0
LINE
8
TOP_HID
6
HIDDEN
10
0.792505
20
1.401978
30
0.0
11
0.791636
21
1.402011
31
0.0
0
LINE
8
TOP_HID
6
HIDDEN
10
0.791636
20
1.402011
30
0.0
11
0.790767
21
1.402044
31
0.0
0
LINE
8
TOP_HID
6
HIDDEN
10
0.790767
20
1.402044
30
0.0
11
0.789898
21
1.402075
31
0.0
0
LINE
8
TOP_HID
6
HIDDEN
10
0.789898
20
1.402075
30
0.0
11
0.789029
21
1.402106
31
0.0
0
LINE
8
TOP_HID
6
HIDDEN
10
0.789029
20
1.402106
30
0.0
11
0.788160
21
1.402135
31
0.0
0
LINE
8
TOP_HID
6
HIDDEN
10
0.788160
20
1.402135
30
0.0
11
0.787291
21
1.402163
31
0.0
0
LINE
8
TOP_HID
6
HIDDEN
10
0.787291
20
1.402163
30
0.0
11
0.786422
21
1.402189
31
0.0
0
LINE
8
TOP_HID
6
HIDDEN
10
0.786422
20
1.402189
30
0.0
11
0.785553
21
1.402215
31
0.0
0
LINE
8
TOP_HID
6
HIDDEN
10
0.785553
20
1.402215
30
0.0
11
0.784684
21
1.402239
31
0.0
0
LINE
8
TOP_HID
6
HIDDEN
10
0.784684
20
1.402239
30
0.0
11
0.783814
21
1.402262
31
0.0
0
LINE
8
TOP_HID
6
HIDDEN
10
0.783814
20
1.402262
30
0.0
11
0.782945
21
1.402284
31
0.0
0
LINE
8
TOP_HID
6
HIDDEN
10
0.782945
20
1.402284
30
0.0
11
0.782076
21
1.402305
31
0.0
0
LINE
8
TOP_HID
6
HIDDEN
10
0.782076
20
1.402305
30
0.0
11
0.781206
21
1.402324
31
0.0
0
LINE
8
TOP_HID
6
HIDDEN
10
0.781206
20
1.402324
30
0.0
11
0.780337
21
1.402343
31
0.0
0
LINE
8
TOP_HID
6
HIDDEN
10
0.780337
20
1.402343
30
0.0
11
0.779468
21
1.402360
31
0.0
0
LINE
8
TOP_HID
6
HIDDEN
10
0.779468
20
1.402360
30
0.0
11
0.778598
21
1.402376
31
0.0
0
LINE
8
TOP_HID
6
HIDDEN
10
0.778598
20
1.402376
30
0.0
11
0.777729
21
1.402391
31
0.0
0
LINE
8
TOP_HID
6
HIDDEN
10
0.777729
20
1.402391
30
0.0
11
0.776859
21
1.402404
31
0.0
0
LINE
8
TOP_HID
6
HIDDEN
10
0.776859
20
1.402404
30
0.0
11
0.775990
21
1.402417
31
0.0
0
LINE
8
TOP_HID
6
HIDDEN
10
0.775990
20
1.402417
30
0.0
11
0.775120
21
1.402428
31
0.0
0
LINE
8
TOP_HID
6
HIDDEN
10
0.775120
20
1.402428
30
0.0
11
0.774251
21
1.402438
31
0.0
0
LINE
8
TOP_HID
6
HIDDEN
10
0.774251
20
1.402438
30
0.0
11
0.773381
21
1.402447
31
0.0
0
LINE
8
TOP_HID
6
HIDDEN
10
0.773381
20
1.402447
30
0.0
11
0.772512
21
1.402455
31
0.0
0
LINE
8
TOP_HID
6
HIDDEN
10
0.772512
20
1.402455
30
0.0
11
0.771642
21
1.402461
31
0.0
0
LINE
8
TOP_HID
6
HIDDEN
10
0.771642
20
1.402461
30
0.0
11
0.770773
21
1.402467
31
0.0
0
LINE
8
TOP_HID
6
HIDDEN
10
0.770773
20
1.402467
30
0.0
11
0.769903
21
1.402471
31
0.0
0
LINE
8
TOP_HID
6
HIDDEN
10
0.769903
20
1.402471
30
0.0
11
0.769034
21
1.402474
31
0.0
0
LINE
8
TOP_HID
6
HIDDEN
10
0.769034
20
1.402474
30
0.0
11
0.768164
21
1.402476
31
0.0
0
LINE
8
TOP_HID
6
HIDDEN
10
0.768164
20
1.402476
30
0.0
11
0.767294
21
1.402476
31
0.0
0
LINE
8
TOP_HID
6
HIDDEN
10
0.767294
20
1.402476
30
0.0
11
0.765928
21
1.402475
31
0.0
0
LINE
8
TOP_HID
6
HIDDEN
10
0.765928
20
1.402475
30
0.0
11
0.764562
21
1.402470
31
0.0
0
LINE
8
TOP_HID
6
HIDDEN
10
0.764562
20
1.402470
30
0.0
11
0.763195
21
1.402463
31
0.0
0
LINE
8
TOP_HID
6
HIDDEN
10
0.763195
20
1.402463
30
0.0
11
0.761829
21
1.402453
31
0.0
0
LINE
8
TOP_HID
6
HIDDEN
10
0.761829
20
1.402453
30
0.0
11
0.760462
21
1.402440
31
0.0
0
LINE
8
TOP_HID
6
HIDDEN
10
0.760462
20
1.402440
30
0.0
11
0.759096
21
1.402424
31
0.0
0
LINE
8
TOP_HID
6
HIDDEN
10
0.759096
20
1.402424
30
0.0
11
0.757730
21
1.402404
31
0.0
0
LINE
8
TOP_HID
6
HIDDEN
10
0.757730
20
1.402404
30
0.0
11
0.756363
21
1.402383
31
0.0
0
LINE
8
TOP_HID
6
HIDDEN
10
0.756363
20
1.402383
30
0.0
11
0.754997
21
1.402358
31
0.0
0
LINE
8
TOP_HID
6
HIDDEN
10
0.754997
20
1.402358
30
0.0
11
0.753631
21
1.402330
31
0.0
0
LINE
8
TOP_HID
6
HIDDEN
10
0.753631
20
1.402330
30
0.0
11
0.752265
21
1.402299
31
0.0
0
LINE
8
TOP_HID
6
HIDDEN
10
0.752265
20
1.402299
30
0.0
11
0.750899
21
1.402265
31
0.0
0
LINE
8
TOP_HID
6
HIDDEN
10
0.750899
20
1.402265
30
0.0
11
0.749533
21
1.402229
31
0.0
0
LINE
8
TOP_HID
6
HIDDEN
10
0.749533
20
1.402229
30
0.0
11
0.748167
21
1.402189
31
0.0
0
LINE
8
TOP_HID
6
HIDDEN
10
0.748167
20
1.402189
30
0.0
11
0.746801
21
1.402147
31
0.0
0
LINE
8
TOP_HID
6
HIDDEN
10
0.746801
20
1.402147
30
0.0
11
0.745435
21
1.402101
31
0.0
0
LINE
8
TOP_HID
6
HIDDEN
10
0.745435
20
1.402101
30
0.0
11
0.744070
21
1.402053
31
0.0
0
LINE
8
TOP_HID
6
HIDDEN
10
0.744070
20
1.402053
30
0.0
11
0.742704
21
1.402002
31
0.0
0
LINE
8
TOP_HID
6
HIDDEN
10
0.742704
20
1.402002
30
0.0
11
0.741339
21
1.401948
31
0.0
0
LINE
8
TOP_HID
6
HIDDEN
10
0.741339
20
1.401948
30
0.0
11
0.739974
21
1.401891
31
0.0
0
LINE
8
TOP_HID
6
HIDDEN
10
0.739974
20
1.401891
30
0.0
11
0.738609
21
1.401831
31
0.0
0
LINE
8
TOP_HID
6
HIDDEN
10
0.738609
20
1.401831
30
0.0
11
0.737244
21
1.401768
31
0.0
0
LINE
8
TOP_HID
6
HIDDEN
10
0.737244
20
1.401768
30
0.0
11
0.735879
21
1.401702
31
0.0
0
LINE
8
TOP_HID
6
HIDDEN
10
0.735879
20
1.401702
30
0.0
11
0.734514
21
1.401633
31
0.0
0
LINE
8
TOP_HID
6
HIDDEN
10
0.734514
20
1.401633
30
0.0
11
0.733149
21
1.401561
31
0.0
0
LINE
8
TOP_HID
6
HIDDEN
10
0.733149
20
1.401561
30
0.0
11
0.731785
21
1.401487
31
0.0
0
LINE
8
TOP_HID
6
HIDDEN
10
0.731785
20
1.401487
30
0.0
11
0.730421
21
1.401409
31
0.0
0
LINE
8
TOP_HID
6
HIDDEN
10
0.730421
20
1.401409
30
0.0
11
0.729057
21
1.401328
31
0.0
0
LINE
8
TOP_HID
6
HIDDEN
10
0.729057
20
1.401328
30
0.0
11
0.727693
21
1.401245
31
0.0
0
LINE
8
TOP_HID
6
HIDDEN
10
0.727693
20
1.401245
30
0.0
11
0.726329
21
1.401159
31
0.0
0
LINE
8
TOP_HID
6
HIDDEN
10
0.726329
20
1.401159
30
0.0
11
0.724965
21
1.401069
31
0.0
0
LINE
8
TOP_HID
6
HIDDEN
10
0.724965
20
1.401069
30
0.0
11
0.723602
21
1.400977
31
0.0
0
LINE
8
TOP_HID
6
HIDDEN
10
0.723602
20
1.400977
30
0.0
11
0.722239
21
1.400882
31
0.0
0
LINE
8
TOP_HID
6
HIDDEN
10
0.722239
20
1.400882
30
0.0
11
0.720876
21
1.400784
31
0.0
0
LINE
8
TOP_HID
6
HIDDEN
10
0.720876
20
1.400784
30
0.0
11
0.719513
21
1.400683
31
0.0
0
LINE
8
TOP_HID
6
HIDDEN
10
0.719513
20
1.400683
30
0.0
11
0.718151
21
1.400579
31
0.0
0
LINE
8
TOP_HID
6
HIDDEN
10
0.718151
20
1.400579
30
0.0
11
0.716789
21
1.400473
31
0.0
0
LINE
8
TOP_HID
6
HIDDEN
10
0.716789
20
1.400473
30
0.0
11
0.715427
21
1.400363
31
0.0
0
LINE
8
TOP_HID
6
HIDDEN
10
0.715427
20
1.400363
30
0.0
11
0.714065
21
1.400250
31
0.0
0
LINE
8
TOP_HID
6
HIDDEN
10
0.714065
20
1.400250
30
0.0
11
0.712703
21
1.400135
31
0.0
0
LINE
8
TOP_HID
6
HIDDEN
10
0.712703
20
1.400135
30
0.0
11
0.711342
21
1.400016
31
0.0
0
LINE
8
TOP_HID
6
HIDDEN
10
0.711342
20
1.400016
30
0.0
11
0.709981
21
1.399895
31
0.0
0
LINE
8
TOP_HID
6
HIDDEN
10
0.709981
20
1.399895
30
0.0
11
0.708620
21
1.399770
31
0.0
0
LINE
8
TOP_HID
6
HIDDEN
10
0.708620
20
1.399770
30
0.0
11
0.707259
21
1.399643
31
0.0
0
LINE
8
TOP_HID
6
HIDDEN
10
0.707259
20
1.399643
30
0.0
11
0.705899
21
1.399513
31
0.0
0
LINE
8
TOP_HID
6
HIDDEN
10
0.705899
20
1.399513
30
0.0
11
0.704539
21
1.399380
31
0.0
0
LINE
8
TOP_HID
6
HIDDEN
10
0.704539
20
1.399380
30
0.0
11
0.703180
21
1.399244
31
0.0
0
LINE
8
TOP_HID
6
HIDDEN
10
0.703180
20
1.399244
30
0.0
11
0.701820
21
1.399105
31
0.0
0
LINE
8
TOP_HID
6
HIDDEN
10
0.701820
20
1.399105
30
0.0
11
0.700461
21
1.398963
31
0.0
0
LINE
8
TOP_HID
6
HIDDEN
10
0.700461
20
1.398963
30
0.0
11
0.699102
21
1.398819
31
0.0
0
LINE
8
TOP_HID
6
HIDDEN
10
0.699102
20
1.398819
30
0.0
11
0.697744
21
1.398671
31
0.0
0
LINE
8
TOP_HID
6
HIDDEN
10
0.697744
20
1.398671
30
0.0
11
0.696386
21
1.398521
31
0.0
0
LINE
8
TOP_HID
6
HIDDEN
10
0.696386
20
1.398521
30
0.0
11
0.695028
21
1.398367
31
0.0
0
LINE
8
TOP_HID
6
HIDDEN
10
0.695028
20
1.398367
30
0.0
11
0.693670
21
1.398211
31
0.0
0
LINE
8
TOP_HID
6
HIDDEN
10
0.693670
20
1.398211
30
0.0
11
0.692313
21
1.398052
31
0.0
0
LINE
8
TOP_HID
6
HIDDEN
10
0.692313
20
1.398052
30
0.0
11
0.690957
21
1.397889
31
0.0
0
LINE
8
TOP_HID
6
HIDDEN
10
0.690957
20
1.397889
30
0.0
11
0.689600
21
1.397724
31
0.0
0
LINE
8
TOP_HID
6
HIDDEN
10
0.689600
20
1.397724
30
0.0
11
0.688244
21
1.397556
31
0.0
0
LINE
8
TOP_HID
6
HIDDEN
10
0.688244
20
1.397556
30
0.0
11
0.686888
21
1.397385
31
0.0
0
LINE
8
TOP_HID
6
HIDDEN
10
0.686888
20
1.397385
30
0.0
11
0.685533
21
1.397212
31
0.0
0
LINE
8
TOP_HID
6
HIDDEN
10
0.685533
20
1.397212
30
0.0
11
0.684178
21
1.397035
31
0.0
0
LINE
8
TOP_HID
6
HIDDEN
10
0.684178
20
1.397035
30
0.0
11
0.682823
21
1.396855
31
0.0
0
LINE
8
TOP_HID
6
HIDDEN
10
0.682823
20
1.396855
30
0.0
11
0.681469
21
1.396673
31
0.0
0
LINE
8
TOP_HID
6
HIDDEN
10
0.819709
20
1.400124
30
0.0
11
0.818842
21
1.400198
31
0.0
0
LINE
8
TOP_HID
6
HIDDEN
10
0.818842
20
1.400198
30
0.0
11
0.817976
21
1.400271
31
0.0
0
LINE
8
TOP_HID
6
HIDDEN
10
0.817976
20
1.400271
30
0.0
11
0.817109
21
1.400343
31
0.0
0
LINE
8
TOP_HID
6
HIDDEN
10
0.817109
20
1.400343
30
0.0
11
0.816242
21
1.400413
31
0.0
0
LINE
8
TOP_HID
6
HIDDEN
10
0.816242
20
1.400413
30
0.0
11
0.815376
21
1.400482
31
0.0
0
LINE
8
TOP_HID
6
HIDDEN
10
0.815376
20
1.400482
30
0.0
11
0.814509
21
1.400550
31
0.0
0
LINE
8
TOP_HID
6
HIDDEN
10
0.814509
20
1.400550
30
0.0
11
0.813642
21
1.400617
31
0.0
0
LINE
8
TOP_HID
6
HIDDEN
10
0.813642
20
1.400617
30
0.0
11
0.812775
21
1.400683
31
0.0
0
LINE
8
TOP_HID
6
HIDDEN
10
0.812775
20
1.400683
30
0.0
11
0.811908
21
1.400748
31
0.0
0
LINE
8
TOP_HID
6
HIDDEN
10
0.811908
20
1.400748
30
0.0
11
0.811040
21
1.400811
31
0.0
0
LINE
8
TOP_HID
6
HIDDEN
10
0.811040
20
1.400811
30
0.0
11
0.810173
21
1.400873
31
0.0
0
LINE
8
TOP_HID
6
HIDDEN
10
0.810173
20
1.400873
30
0.0
11
0.809306
21
1.400934
31
0.0
0
LINE
8
TOP_HID
6
HIDDEN
10
0.809306
20
1.400934
30
0.0
11
0.808438
21
1.400994
31
0.0
0
LINE
8
TOP_HID
6
HIDDEN
10
0.808438
20
1.400994
30
0.0
11
0.807570
21
1.401053
31
0.0
0
LINE
8
TOP_HID
6
HIDDEN
10
0.807570
20
1.401053
30
0.0
11
0.806703
21
1.401110
31
0.0
0
LINE
8
TOP_HID
6
HIDDEN
10
0.806703
20
1.401110
30
0.0
11
0.805835
21
1.401167
31
0.0
0
LINE
8
TOP_HID
6
HIDDEN
10
0.805835
20
1.401167
30
0.0
11
0.804967
21
1.401222
31
0.0
0
LINE
8
TOP_HID
6
HIDDEN
10
0.804967
20
1.401222
30
0.0
11
0.804099
21
1.401276
31
0.0
0
LINE
8
TOP_HID
6
HIDDEN
10
0.804099
20
1.401276
30
0.0
11
0.803231
21
1.401328
31
0.0
0
LINE
8
TOP_HID
6
HIDDEN
10
0.803231
20
1.401328
30
0.0
11
0.802363
21
1.401380
31
0.0
0
LINE
8
TOP_HID
6
HIDDEN
10
0.802363
20
1.401380
30
0.0
11
0.801495
21
1.401430
31
0.0
0
LINE
8
TOP_HID
6
HIDDEN
10
0.801495
20
1.401430
30
0.0
11
0.800627
21
1.401480
31
0.0
0
LINE
8
TOP_HID
6
HIDDEN
10
0.800627
20
1.401480
30
0.0
11
0.799759
21
1.401528
31
0.0
0
LINE
8
TOP_HID
6
HIDDEN
10
0.799759
20
1.401528
30
0.0
11
0.798891
21
1.401574
31
0.0
0
LINE
8
TOP_HID
6
HIDDEN
10
0.798891
20
1.401574
30
0.0
11
0.798022
21
1.401620
31
0.0
0
LINE
8
TOP_HID
6
HIDDEN
10
0.798022
20
1.401620
30
0.0
11
0.797154
21
1.401665
31
0.0
0
LINE
8
TOP_HID
6
HIDDEN
10
0.797154
20
1.401665
30
0.0
11
0.796285
21
1.401708
31
0.0
0
LINE
8
TOP_HID
6
HIDDEN
10
0.796285
20
1.401708
30
0.0
11
0.795417
21
1.401750
31
0.0
0
LINE
8
TOP_HID
6
HIDDEN
10
0.795417
20
1.401750
30
0.0
11
0.794548
21
1.401791
31
0.0
0
LINE
8
TOP_HID
6
HIDDEN
10
0.794548
20
1.401791
30
0.0
11
0.793680
21
1.401831
31
0.0
0
LINE
8
TOP_HID
6
HIDDEN
10
0.793680
20
1.401831
30
0.0
11
0.792811
21
1.401869
31
0.0
0
LINE
8
TOP_HID
6
HIDDEN
10
0.792811
20
1.401869
30
0.0
11
0.791942
21
1.401906
31
0.0
0
LINE
8
TOP_HID
6
HIDDEN
10
0.791942
20
1.401906
30
0.0
11
0.791073
21
1.401943
31
0.0
0
LINE
8
TOP_HID
6
HIDDEN
10
0.791073
20
1.401943
30
0.0
11
0.790204
21
1.401978
31
0.0
0
LINE
8
TOP_HID
6
HIDDEN
10
0.790204
20
1.401978
30
0.0
11
0.789336
21
1.402011
31
0.0
0
LINE
8
TOP_HID
6
HIDDEN
10
0.789336
20
1.402011
30
0.0
11
0.788467
21
1.402044
31
0.0
0
LINE
8
TOP_HID
6
HIDDEN
10
0.788467
20
1.402044
30
0.0
11
0.787598
21
1.402075
31
0.0
0
LINE
8
TOP_HID
6
HIDDEN
10
0.787598
20
1.402075
30
0.0
11
0.786729
21
1.402106
31
0.0
0
LINE
8
TOP_HID
6
HIDDEN
10
0.786729
20
1.402106
30
0.0
11
0.785859
21
1.402135
31
0.0
0
LINE
8
TOP_HID
6
HIDDEN
10
0.785859
20
1.402135
30
0.0
11
0.784990
21
1.402163
31
0.0
0
LINE
8
TOP_HID
6
HIDDEN
10
0.784990
20
1.402163
30
0.0
11
0.784121
21
1.402189
31
0.0
0
LINE
8
TOP_HID
6
HIDDEN
10
0.784121
20
1.402189
30
0.0
11
0.783252
21
1.402215
31
0.0
0
LINE
8
TOP_HID
6
HIDDEN
10
0.783252
20
1.402215
30
0.0
11
0.782383
21
1.402239
31
0.0
0
LINE
8
TOP_HID
6
HIDDEN
10
0.782383
20
1.402239
30
0.0
11
0.781514
21
1.402262
31
0.0
0
LINE
8
TOP_HID
6
HIDDEN
10
0.781514
20
1.402262
30
0.0
11
0.780644
21
1.402284
31
0.0
0
LINE
8
TOP_HID
6
HIDDEN
10
0.780644
20
1.402284
30
0.0
11
0.779775
21
1.402305
31
0.0
0
LINE
8
TOP_HID
6
HIDDEN
10
0.779775
20
1.402305
30
0.0
11
0.778906
21
1.402324
31
0.0
0
LINE
8
TOP_HID
6
HIDDEN
10
0.778906
20
1.402324
30
0.0
11
0.778036
21
1.402343
31
0.0
0
LINE
8
TOP_HID
6
HIDDEN
10
0.778036
20
1.402343
30
0.0
11
0.777167
21
1.402360
31
0.0
0
LINE
8
TOP_HID
6
HIDDEN
10
0.777167
20
1.402360
30
0.0
11
0.776297
21
1.402376
31
0.0
0
LINE
8
TOP_HID
6
HIDDEN
10
0.776297
20
1.402376
30
0.0
11
0.775428
21
1.402391
31
0.0
0
LINE
8
TOP_HID
6
HIDDEN
10
0.775428
20
1.402391
30
0.0
11
0.774559
21
1.402404
31
0.0
0
LINE
8
TOP_HID
6
HIDDEN
10
0.774559
20
1.402404
30
0.0
11
0.773689
21
1.402417
31
0.0
0
LINE
8
TOP_HID
6
HIDDEN
10
0.773689
20
1.402417
30
0.0
11
0.772820
21
1.402428
31
0.0
0
LINE
8
TOP_HID
6
HIDDEN
10
0.772820
20
1.402428
30
0.0
11
0.771950
21
1.402438
31
0.0
0
LINE
8
TOP_HID
6
HIDDEN
10
0.771950
20
1.402438
30
0.0
11
0.771081
21
1.402447
31
0.0
0
LINE
8
TOP_HID
6
HIDDEN
10
0.771081
20
1.402447
30
0.0
11
0.770211
21
1.402455
31
0.0
0
LINE
8
TOP_HID
6
HIDDEN
10
0.770211
20
1.402455
30
0.0
11
0.769341
21
1.402461
31
0.0
0
LINE
8
TOP_HID
6
HIDDEN
10
0.769341
20
1.402461
30
0.0
11
0.768472
21
1.402467
31
0.0
0
LINE
8
TOP_HID
6
HIDDEN
10
0.768472
20
1.402467
30
0.0
11
0.767602
21
1.402471
31
0.0
0
LINE
8
TOP_HID
6
HIDDEN
10
0.767602
20
1.402471
30
0.0
11
0.766733
21
1.402474
31
0.0
0
LINE
8
TOP_HID
6
HIDDEN
10
0.766733
20
1.402474
30
0.0
11
0.765863
21
1.402476
31
0.0
0
LINE
8
TOP_HID
6
HIDDEN
10
0.765863
20
1.402476
30
0.0
11
0.764994
21
1.402476
31
0.0
0
LINE
8
TOP_HID
6
HIDDEN
10
0.764994
20
1.402476
30
0.0
11
0.763627
21
1.402475
31
0.0
0
LINE
8
TOP_HID
6
HIDDEN
10
0.763627
20
1.402475
30
0.0
11
0.762261
21
1.402470
31
0.0
0
LINE
8
TOP_HID
6
HIDDEN
10
0.762261
20
1.402470
30
0.0
11
0.760894
21
1.402463
31
0.0
0
LINE
8
TOP_HID
6
HIDDEN
10
0.760894
20
1.402463
30
0.0
11
0.759528
21
1.402453
31
0.0
0
LINE
8
TOP_HID
6
HIDDEN
10
0.759528
20
1.402453
30
0.0
11
0.758162
21
1.402440
31
0.0
0
LINE
8
TOP_HID
6
HIDDEN
10
0.758162
20
1.402440
30
0.0
11
0.756795
21
1.402424
31
0.0
0
LINE
8
TOP_HID
6
HIDDEN
10
0.756795
20
1.402424
30
0.0
11
0.755429
21
1.402404
31
0.0
0
LINE
8
TOP_HID
6
HIDDEN
10
0.755429
20
1.402404
30
0.0
11
0.754063
21
1.402383
31
0.0
0
LINE
8
TOP_HID
6
HIDDEN
10
0.754063
20
1.402383
30
0.0
11
0.752696
21
1.402358
31
0.0
0
LINE
8
TOP_HID
6
HIDDEN
10
0.752696
20
1.402358
30
0.0
11
0.751330
21
1.402330
31
0.0
0
LINE
8
TOP_HID
6
HIDDEN
10
0.751330
20
1.402330
30
0.0
11
0.749964
21
1.402299
31
0.0
0
LINE
8
TOP_HID
6
HIDDEN
10
0.749964
20
1.402299
30
0.0
11
0.748598
21
1.402265
31
0.0
0
LINE
8
TOP_HID
6
HIDDEN
10
0.748598
20
1.402265
30
0.0
11
0.747232
21
1.402229
31
0.0
0
LINE
8
TOP_HID
6
HIDDEN
10
0.747232
20
1.402229
30
0.0
11
0.745866
21
1.402189
31
0.0
0
LINE
8
TOP_HID
6
HIDDEN
10
0.745866
20
1.402189
30
0.0
11
0.744500
21
1.402147
31
0.0
0
LINE
8
TOP_HID
6
HIDDEN
10
0.744500
20
1.402147
30
0.0
11
0.743135
21
1.402101
31
0.0
0
LINE
8
TOP_HID
6
HIDDEN
10
0.743135
20
1.402101
30
0.0
11
0.741769
21
1.402053
31
0.0
0
LINE
8
TOP_HID
6
HIDDEN
10
0.741769
20
1.402053
30
0.0
11
0.740404
21
1.402002
31
0.0
0
LINE
8
TOP_HID
6
HIDDEN
10
0.740404
20
1.402002
30
0.0
11
0.739038
21
1.401948
31
0.0
0
LINE
8
TOP_HID
6
HIDDEN
10
0.739038
20
1.401948
30
0.0
11
0.737673
21
1.401891
31
0.0
0
LINE
8
TOP_HID
6
HIDDEN
10
0.737673
20
1.401891
30
0.0
11
0.736308
21
1.401831
31
0.0
0
LINE
8
TOP_HID
6
HIDDEN
10
0.736308
20
1.401831
30
0.0
11
0.734943
21
1.401768
31
0.0
0
LINE
8
TOP_HID
6
HIDDEN
10
0.734943
20
1.401768
30
0.0
11
0.733578
21
1.401702
31
0.0
0
LINE
8
TOP_HID
6
HIDDEN
10
0.733578
20
1.401702
30
0.0
11
0.732213
21
1.401633
31
0.0
0
LINE
8
TOP_HID
6
HIDDEN
10
0.732213
20
1.401633
30
0.0
11
0.730849
21
1.401561
31
0.0
0
LINE
8
TOP_HID
6
HIDDEN
10
0.730849
20
1.401561
30
0.0
11
0.729484
21
1.401487
31
0.0
0
LINE
8
TOP_HID
6
HIDDEN
10
0.729484
20
1.401487
30
0.0
11
0.728120
21
1.401409
31
0.0
0
LINE
8
TOP_HID
6
HIDDEN
10
0.728120
20
1.401409
30
0.0
11
0.726756
21
1.401328
31
0.0
0
LINE
8
TOP_HID
6
HIDDEN
10
0.726756
20
1.401328
30
0.0
11
0.725392
21
1.401245
31
0.0
0
LINE
8
TOP_HID
6
HIDDEN
10
0.725392
20
1.401245
30
0.0
11
0.724028
21
1.401159
31
0.0
0
LINE
8
TOP_HID
6
HIDDEN
10
0.724028
20
1.401159
30
0.0
11
0.722665
21
1.401069
31
0.0
0
LINE
8
TOP_HID
6
HIDDEN
10
0.722665
20
1.401069
30
0.0
11
0.721301
21
1.400977
31
0.0
0
LINE
8
TOP_HID
6
HIDDEN
10
0.721301
20
1.400977
30
0.0
11
0.719938
21
1.400882
31
0.0
0
LINE
8
TOP_HID
6
HIDDEN
10
0.719938
20
1.400882
30
0.0
11
0.718575
21
1.400784
31
0.0
0
LINE
8
TOP_HID
6
HIDDEN
10
0.718575
20
1.400784
30
0.0
11
0.717213
21
1.400683
31
0.0
0
LINE
8
TOP_HID
6
HIDDEN
10
0.717213
20
1.400683
30
0.0
11
0.715850
21
1.400579
31
0.0
0
LINE
8
TOP_HID
6
HIDDEN
10
0.715850
20
1.400579
30
0.0
11
0.714488
21
1.400473
31
0.0
0
LINE
8
TOP_HID
6
HIDDEN
10
0.714488
20
1.400473
30
0.0
11
0.713126
21
1.400363
31
0.0
0
LINE
8
TOP_HID
6
HIDDEN
10
0.713126
20
1.400363
30
0.0
11
0.711764
21
1.400250
31
0.0
0
LINE
8
TOP_HID
6
HIDDEN
10
0.711764
20
1.400250
30
0.0
11
0.710402
21
1.400135
31
0.0
0
LINE
8
TOP_HID
6
HIDDEN
10
0.710402
20
1.400135
30
0.0
11
0.709041
21
1.400016
31
0.0
0
LINE
8
TOP_HID
6
HIDDEN
10
0.709041
20
1.400016
30
0.0
11
0.707680
21
1.399895
31
0.0
0
LINE
8
TOP_HID
6
HIDDEN
10
0.707680
20
1.399895
30
0.0
11
0.706319
21
1.399770
31
0.0
0
LINE
8
TOP_HID
6
HIDDEN
10
0.706319
20
1.399770
30
0.0
11
0.704959
21
1.399643
31
0.0
0
LINE
8
TOP_HID
6
HIDDEN
10
0.704959
20
1.399643
30
0.0
11
0.703598
21
1.399513
31
0.0
0
LINE
8
TOP_HID
6
HIDDEN
10
0.703598
20
1.399513
30
0.0
11
0.702239
21
1.399380
31
0.0
0
LINE
8
TOP_HID
6
HIDDEN
10
0.702239
20
1.399380
30
0.0
11
0.700879
21
1.399244
31
0.0
0
LINE
8
TOP_HID
6
HIDDEN
10
0.700879
20
1.399244
30
0.0
11
0.699519
21
1.399105
31
0.0
0
LINE
8
TOP_HID
6
HIDDEN
10
0.699519
20
1.399105
30
0.0
11
0.698160
21
1.398963
31
0.0
0
LINE
8
TOP_HID
6
HIDDEN
10
0.698160
20
1.398963
30
0.0
11
0.696802
21
1.398819
31
0.0
0
LINE
8
TOP_HID
6
HIDDEN
10
0.696802
20
1.398819
30
0.0
11
0.695443
21
1.398671
31
0.0
0
LINE
8
TOP_HID
6
HIDDEN
10
0.695443
20
1.398671
30
0.0
11
0.694085
21
1.398521
31
0.0
0
LINE
8
TOP_HID
6
HIDDEN
10
0.694085
20
1.398521
30
0.0
11
0.692727
21
1.398367
31
0.0
0
LINE
8
TOP_HID
6
HIDDEN
10
0.692727
20
1.398367
30
0.0
11
0.691370
21
1.398211
31
0.0
0
LINE
8
TOP_HID
6
HIDDEN
10
0.691370
20
1.398211
30
0.0
11
0.690013
21
1.398052
31
0.0
0
LINE
8
TOP_HID
6
HIDDEN
10
0.690013
20
1.398052
30
0.0
11
0.688656
21
1.397889
31
0.0
0
LINE
8
TOP_HID
6
HIDDEN
10
0.688656
20
1.397889
30
0.0
11
0.687299
21
1.397724
31
0.0
0
LINE
8
TOP_HID
6
HIDDEN
10
0.687299
20
1.397724
30
0.0
11
0.685943
21
1.397556
31
0.0
0
LINE
8
TOP_HID
6
HIDDEN
10
0.685943
20
1.397556
30
0.0
11
0.684588
21
1.397385
31
0.0
0
LINE
8
TOP_HID
6
HIDDEN
10
0.684588
20
1.397385
30
0.0
11
0.683232
21
1.397212
31
0.0
0
LINE
8
TOP_HID
6
HIDDEN
10
0.683232
20
1.397212
30
0.0
11
0.681877
21
1.397035
31
0.0
0
LINE
8
TOP_HID
6
HIDDEN
10
0.681877
20
1.397035
30
0.0
11
0.680523
21
1.396855
31
0.0
0
LINE
8
TOP_HID
6
HIDDEN
10
0.680523
20
1.396855
30
0.0
11
0.679168
21
1.396673
31
0.0
0
LINE
8
TOP_HID
6
HIDDEN
10
0.678745
20
0.124847
30
0.0
11
0.679612
21
0.124773
31
0.0
0
LINE
8
TOP_HID
6
HIDDEN
10
0.679612
20
0.124773
30
0.0
11
0.680478
21
0.124700
31
0.0
0
LINE
8
TOP_HID
6
HIDDEN
10
0.680478
20
0.124700
30
0.0
11
0.681345
21
0.124628
31
0.0
0
LINE
8
TOP_HID
6
HIDDEN
10
0.681345
20
0.124628
30
0.0
11
0.682212
21
0.124558
31
0.0
0
LINE
8
TOP_HID
6
HIDDEN
10
0.682212
20
0.124558
30
0.0
11
0.683078
21
0.124488
31
0.0
0
LINE
8
TOP_HID
6
HIDDEN
10
0.683078
20
0.124488
30
0.0
11
0.683945
21
0.124420
31
0.0
0
LINE
8
TOP_HID
6
HIDDEN
10
0.683945
20
0.124420
30
0.0
11
0.684812
21
0.124353
31
0.0
0
LINE
8
TOP_HID
6
HIDDEN
10
0.684812
20
0.124353
30
0.0
11
0.685679
21
0.124287
31
0.0
0
LINE
8
TOP_HID
6
HIDDEN
10
0.685679
20
0.124287
30
0.0
11
0.686546
21
0.124223
31
0.0
0
LINE
8
TOP_HID
6
HIDDEN
10
0.686546
20
0.124223
30
0.0
11
0.687414
21
0.124159
31
0.0
0
LINE
8
TOP_HID
6
HIDDEN
10
0.687414
20
0.124159
30
0.0
11
0.688281
21
0.124097
31
0.0
0
LINE
8
TOP_HID
6
HIDDEN
10
0.688281
20
0.124097
30
0.0
11
0.689148
21
0.124036
31
0.0
0
LINE
8
TOP_HID
6
HIDDEN
10
0.689148
20
0.124036
30
0.0
11
0.690016
21
0.123976
31
0.0
0
LINE
8
TOP_HID
6
HIDDEN
10
0.690016
20
0.123976
30
0.0
11
0.690884
21
0.123918
31
0.0
0
LINE
8
TOP_HID
6
HIDDEN
10
0.690884
20
0.123918
30
0.0
11
0.691751
21
0.123860
31
0.0
0
LINE
8
TOP_HID
6
HIDDEN
10
0.691751
20
0.123860
30
0.0
11
0.692619
21
0.123804
31
0.0
0
LINE
8
TOP_HID
6
HIDDEN
10
0.692619
20
0.123804
30
0.0
11
0.693487
21
0.123749
31
0.0
0
LINE
8
TOP_HID
6
HIDDEN
10
0.693487
20
0.123749
30
0.0
11
0.694355
21
0.123695
31
0.0
0
LINE
8
TOP_HID
6
HIDDEN
10
0.694355
20
0.123695
30
0.0
11
0.695223
21
0.123642
31
0.0
0
LINE
8
TOP_HID
6
HIDDEN
10
0.695223
20
0.123642
30
0.0
11
0.696091
21
0.123591
31
0.0
0
LINE
8
TOP_HID
6
HIDDEN
10
0.696091
20
0.123591
30
0.0
11
0.696959
21
0.123540
31
0.0
0
LINE
8
TOP_HID
6
HIDDEN
10
0.696959
20
0.123540
30
0.0
11
0.697827
21
0.123491
31
0.0
0
LINE
8
TOP_HID
6
HIDDEN
10
0.697827
20
0.123491
30
0.0
11
0.698695
21
0.123443
31
0.0
0
LINE
8
TOP_HID
6
HIDDEN
10
0.698695
20
0.123443
30
0.0
11
0.699563
21
0.123396
31
0.0
0
LINE
8
TOP_HID
6
HIDDEN
10
0.699563
20
0.123396
30
0.0
11
0.700432
21
0.123351
31
0.0
0
LINE
8
TOP_HID
6
HIDDEN
10
0.700432
20
0.123351
30
0.0
11
0.701300
21
0.123306
31
0.0
0
LINE
8
TOP_HID
6
HIDDEN
10
0.701300
20
0.123306
30
0.0
11
0.702169
21
0.123263
31
0.0
0
LINE
8
TOP_HID
6
HIDDEN
10
0.702169
20
0.123263
30
0.0
11
0.703037
21
0.123221
31
0.0
0
LINE
8
TOP_HID
6
HIDDEN
10
0.703037
20
0.123221
30
0.0
11
0.703906
21
0.123180
31
0.0
0
LINE
8
TOP_HID
6
HIDDEN
10
0.703906
20
0.123180
30
0.0
11
0.704775
21
0.123140
31
0.0
0
LINE
8
TOP_HID
6
HIDDEN
10
0.704775
20
0.123140
30
0.0
11
0.705643
21
0.123102
31
0.0
0
LINE
8
TOP_HID
6
HIDDEN
10
0.705643
20
0.123102
30
0.0
11
0.706512
21
0.123064
31
0.0
0
LINE
8
TOP_HID
6
HIDDEN
10
0.706512
20
0.123064
30
0.0
11
0.707381
21
0.123028
31
0.0
0
LINE
8
TOP_HID
6
HIDDEN
10
0.707381
20
0.123028
30
0.0
11
0.708250
21
0.122993
31
0.0
0
LINE
8
TOP_HID
6
HIDDEN
10
0.708250
20
0.122993
30
0.0
11
0.709119
21
0.122959
31
0.0
0
LINE
8
TOP_HID
6
HIDDEN
10
0.709119
20
0.122959
30
0.0
11
0.709988
21
0.122927
31
0.0
0
LINE
8
TOP_HID
6
HIDDEN
10
0.709988
20
0.122927
30
0.0
11
0.710857
21
0.122895
31
0.0
0
LINE
8
TOP_HID
6
HIDDEN
10
0.710857
20
0.122895
30
0.0
11
0.711726
21
0.122865
31
0.0
0
LINE
8
TOP_HID
6
HIDDEN
10
0.711726
20
0.122865
30
0.0
11
0.712595
21
0.122836
31
0.0
0
LINE
8
TOP_HID
6
HIDDEN
10
0.712595
20
0.122836
30
0.0
11
0.713464
21
0.122808
31
0.0
0
LINE
8
TOP_HID
6
HIDDEN
10
0.713464
20
0.122808
30
0.0
11
0.714333
21
0.122781
31
0.0
0
LINE
8
TOP_HID
6
HIDDEN
10
0.714333
20
0.122781
30
0.0
11
0.715202
21
0.122756
31
0.0
0
LINE
8
TOP_HID
6
HIDDEN
10
0.715202
20
0.122756
30
0.0
11
0.716071
21
0.122732
31
0.0
0
LINE
8
TOP_HID
6
HIDDEN
10
0.716071
20
0.122732
30
0.0
11
0.716941
21
0.122708
31
0.0
0
LINE
8
TOP_HID
6
HIDDEN
10
0.716941
20
0.122708
30
0.0
11
0.717810
21
0.122687
31
0.0
0
LINE
8
TOP_HID
6
HIDDEN
10
0.717810
20
0.122687
30
0.0
11
0.718679
21
0.122666
31
0.0
0
LINE
8
TOP_HID
6
HIDDEN
10
0.718679
20
0.122666
30
0.0
11
0.719548
21
0.122646
31
0.0
0
LINE
8
TOP_HID
6
HIDDEN
10
0.719548
20
0.122646
30
0.0
11
0.720418
21
0.122628
31
0.0
0
LINE
8
TOP_HID
6
HIDDEN
10
0.720418
20
0.122628
30
0.0
11
0.721287
21
0.122611
31
0.0
0
LINE
8
TOP_HID
6
HIDDEN
10
0.721287
20
0.122611
30
0.0
11
0.722157
21
0.122595
31
0.0
0
LINE
8
TOP_HID
6
HIDDEN
10
0.722157
20
0.122595
30
0.0
11
0.723026
21
0.122580
31
0.0
0
LINE
8
TOP_HID
6
HIDDEN
10
0.723026
20
0.122580
30
0.0
11
0.723896
21
0.122566
31
0.0
0
LINE
8
TOP_HID
6
HIDDEN
10
0.723896
20
0.122566
30
0.0
11
0.724765
21
0.122554
31
0.0
0
LINE
8
TOP_HID
6
HIDDEN
10
0.724765
20
0.122554
30
0.0
11
0.725635
21
0.122542
31
0.0
0
LINE
8
TOP_HID
6
HIDDEN
10
0.725635
20
0.122542
30
0.0
11
0.726504
21
0.122532
31
0.0
0
LINE
8
TOP_HID
6
HIDDEN
10
0.726504
20
0.122532
30
0.0
11
0.727374
21
0.122523
31
0.0
0
LINE
8
TOP_HID
6
HIDDEN
10
0.727374
20
0.122523
30
0.0
11
0.728243
21
0.122516
31
0.0
0
LINE
8
TOP_HID
6
HIDDEN
10
0.728243
20
0.122516
30
0.0
11
0.729113
21
0.122509
31
0.0
0
LINE
8
TOP_HID
6
HIDDEN
10
0.729113
20
0.122509
30
0.0
11
0.729982
21
0.122504
31
0.0
0
LINE
8
TOP_HID
6
HIDDEN
10
0.729982
20
0.122504
30
0.0
11
0.730852
21
0.122500
31
0.0
0
LINE
8
TOP_HID
6
HIDDEN
10
0.730852
20
0.122500
30
0.0
11
0.731721
21
0.122497
31
0.0
0
LINE
8
TOP_HID
6
HIDDEN
10
0.731721
20
0.122497
30
0.0
11
0.732591
21
0.122495
31
0.0
0
LINE
8
TOP_HID
6
HIDDEN
10
0.732591
20
0.122495
30
0.0
11
0.733460
21
0.122494
31
0.0
0
LINE
8
TOP_HID
6
HIDDEN
10
0.733460
20
0.122494
30
0.0
11
0.734827
21
0.122496
31
0.0
0
LINE
8
TOP_HID
6
HIDDEN
10
0.734827
20
0.122496
30
0.0
11
0.736193
21
0.122500
31
0.0
0
LINE
8
TOP_HID
6
HIDDEN
10
0.736193
20
0.122500
30
0.0
11
0.737560
21
0.122508
31
0.0
0
LINE
8
TOP_HID
6
HIDDEN
10
0.737560
20
0.122508
30
0.0
11
0.738926
21
0.122518
31
0.0
0
LINE
8
TOP_HID
6
HIDDEN
10
0.738926
20
0.122518
30
0.0
11
0.740293
21
0.122531
31
0.0
0
LINE
8
TOP_HID
6
HIDDEN
10
0.740293
20
0.122531
30
0.0
11
0.741659
21
0.122547
31
0.0
0
LINE
8
TOP_HID
6
HIDDEN
10
0.741659
20
0.122547
30
0.0
11
0.743025
21
0.122566
31
0.0
0
LINE
8
TOP_HID
6
HIDDEN
10
0.743025
20
0.122566
30
0.0
11
0.744391
21
0.122588
31
0.0
0
LINE
8
TOP_HID
6
HIDDEN
10
0.744391
20
0.122588
30
0.0
11
0.745758
21
0.122613
31
0.0
0
LINE
8
TOP_HID
6
HIDDEN
10
0.745758
20
0.122613
30
0.0
11
0.747124
21
0.122641
31
0.0
0
LINE
8
TOP_HID
6
HIDDEN
10
0.747124
20
0.122641
30
0.0
11
0.748490
21
0.122672
31
0.0
0
LINE
8
TOP_HID
6
HIDDEN
10
0.748490
20
0.122672
30
0.0
11
0.749856
21
0.122705
31
0.0
0
LINE
8
TOP_HID
6
HIDDEN
10
0.749856
20
0.122705
30
0.0
11
0.751222
21
0.122742
31
0.0
0
LINE
8
TOP_HID
6
HIDDEN
10
0.751222
20
0.122742
30
0.0
11
0.752588
21
0.122781
31
0.0
0
LINE
8
TOP_HID
6
HIDDEN
10
0.752588
20
0.122781
30
0.0
11
0.753954
21
0.122824
31
0.0
0
LINE
8
TOP_HID
6
HIDDEN
10
0.753954
20
0.122824
30
0.0
11
0.755319
21
0.122869
31
0.0
0
LINE
8
TOP_HID
6
HIDDEN
10
0.755319
20
0.122869
30
0.0
11
0.756685
21
0.122918
31
0.0
0
LINE
8
TOP_HID
6
HIDDEN
10
0.756685
20
0.122918
30
0.0
11
0.758050
21
0.122969
31
0.0
0
LINE
8
TOP_HID
6
HIDDEN
10
0.758050
20
0.122969
30
0.0
11
0.759416
21
0.123023
31
0.0
0
LINE
8
TOP_HID
6
HIDDEN
10
0.759416
20
0.123023
30
0.0
11
0.760781
21
0.123080
31
0.0
0
LINE
8
TOP_HID
6
HIDDEN
10
0.760781
20
0.123080
30
0.0
11
0.762146
21
0.123140
31
0.0
0
LINE
8
TOP_HID
6
HIDDEN
10
0.762146
20
0.123140
30
0.0
11
0.763511
21
0.123203
31
0.0
0
LINE
8
TOP_HID
6
HIDDEN
10
0.763511
20
0.123203
30
0.0
11
0.764876
21
0.123269
31
0.0
0
LINE
8
TOP_HID
6
HIDDEN
10
0.764876
20
0.123269
30
0.0
11
0.766241
21
0.123338
31
0.0
0
LINE
8
TOP_HID
6
HIDDEN
10
0.766241
20
0.123338
30
0.0
11
0.767605
21
0.123409
31
0.0
0
LINE
8
TOP_HID
6
HIDDEN
10
0.767605
20
0.123409
30
0.0
11
0.768970
21
0.123484
31
0.0
0
LINE
8
TOP_HID
6
HIDDEN
10
0.768970
20
0.123484
30
0.0
11
0.770334
21
0.123562
31
0.0
0
LINE
8
TOP_HID
6
HIDDEN
10
0.770334
20
0.123562
30
0.0
11
0.771698
21
0.123642
31
0.0
0
LINE
8
TOP_HID
6
HIDDEN
10
0.771698
20
0.123642
30
0.0
11
0.773062
21
0.123726
31
0.0
0
LINE
8
TOP_HID
6
HIDDEN
10
0.773062
20
0.123726
30
0.0
11
0.774426
21
0.123812
31
0.0
0
LINE
8
TOP_HID
6
HIDDEN
10
0.774426
20
0.123812
30
0.0
11
0.775789
21
0.123901
31
0.0
0
LINE
8
TOP_HID
6
HIDDEN
10
0.775789
20
0.123901
30
0.0
11
0.777153
21
0.123993
31
0.0
0
LINE
8
TOP_HID
6
HIDDEN
10
0.777153
20
0.123993
30
0.0
11
0.778516
21
0.124088
31
0.0
0
LINE
8
TOP_HID
6
HIDDEN
10
0.778516
20
0.124088
30
0.0
11
0.779879
21
0.124187
31
0.0
0
LINE
8
TOP_HID
6
HIDDEN
10
0.779879
20
0.124187
30
0.0
11
0.781241
21
0.124287
31
0.0
0
LINE
8
TOP_HID
6
HIDDEN
10
0.781241
20
0.124287
30
0.0
11
0.782604
21
0.124391
31
0.0
0
LINE
8
TOP_HID
6
HIDDEN
10
0.782604
20
0.124391
30
0.0
11
0.783966
21
0.124498
31
0.0
0
LINE
8
TOP_HID
6
HIDDEN
10
0.783966
20
0.124498
30
0.0
11
0.785328
21
0.124608
31
0.0
0
LINE
8
TOP_HID
6
HIDDEN
10
0.785328
20
0.124608
30
0.0
11
0.786690
21
0.124720
31
0.0
0
LINE
8
TOP_HID
6
HIDDEN
10
0.786690
20
0.124720
30
0.0
11
0.788052
21
0.124836
31
0.0
0
LINE
8
TOP_HID
6
HIDDEN
10
0.788052
20
0.124836
30
0.0
11
0.789413
21
0.124954
31
0.0
0
LINE
8
TOP_HID
6
HIDDEN
10
0.789413
20
0.124954
30
0.0
11
0.790774
21
0.125076
31
0.0
0
LINE
8
TOP_HID
6
HIDDEN
10
0.790774
20
0.125076
30
0.0
11
0.792135
21
0.125200
31
0.0
0
LINE
8
TOP_HID
6
HIDDEN
10
0.792135
20
0.125200
30
0.0
11
0.793495
21
0.125327
31
0.0
0
LINE
8
TOP_HID
6
HIDDEN
10
0.793495
20
0.125327
30
0.0
11
0.794856
21
0.125458
31
0.0
0
LINE
8
TOP_HID
6
HIDDEN
10
0.794856
20
0.125458
30
0.0
11
0.796216
21
0.125591
31
0.0
0
LINE
8
TOP_HID
6
HIDDEN
10
0.796216
20
0.125591
30
0.0
11
0.797575
21
0.125727
31
0.0
0
LINE
8
TOP_HID
6
HIDDEN
10
0.797575
20
0.125727
30
0.0
11
0.798935
21
0.125865
31
0.0
0
LINE
8
TOP_HID
6
HIDDEN
10
0.798935
20
0.125865
30
0.0
11
0.800294
21
0.126007
31
0.0
0
LINE
8
TOP_HID
6
HIDDEN
10
0.800294
20
0.126007
30
0.0
11
0.801652
21
0.126152
31
0.0
0
LINE
8
TOP_HID
6
HIDDEN
10
0.801652
20
0.126152
30
0.0
11
0.803011
21
0.126300
31
0.0
0
LINE
8
TOP_HID
6
HIDDEN
10
0.803011
20
0.126300
30
0.0
11
0.804369
21
0.126450
31
0.0
0
LINE
8
TOP_HID
6
HIDDEN
10
0.804369
20
0.126450
30
0.0
11
0.805727
21
0.126603
31
0.0
0
LINE
8
TOP_HID
6
HIDDEN
10
0.805727
20
0.126603
30
0.0
11
0.807084
21
0.126760
31
0.0
0
LINE
8
TOP_HID
6
HIDDEN
10
0.807084
20
0.126760
30
0.0
11
0.808441
21
0.126919
31
0.0
0
LINE
8
TOP_HID
6
HIDDEN
10
0.808441
20
0.126919
30
0.0
11
0.809798
21
0.127081
31
0.0
0
LINE
8
TOP_HID
6
HIDDEN
10
0.809798
20
0.127081
30
0.0
11
0.811155
21
0.127246
31
0.0
0
LINE
8
TOP_HID
6
HIDDEN
10
0.811155
20
0.127246
30
0.0
11
0.812511
21
0.127414
31
0.0
0
LINE
8
TOP_HID
6
HIDDEN
10
0.812511
20
0.127414
30
0.0
11
0.813867
21
0.127585
31
0.0
0
LINE
8
TOP_HID
6
HIDDEN
10
0.813867
20
0.127585
30
0.0
11
0.815222
21
0.127759
31
0.0
0
LINE
8
TOP_HID
6
HIDDEN
10
0.815222
20
0.127759
30
0.0
11
0.816577
21
0.127936
31
0.0
0
LINE
8
TOP_HID
6
HIDDEN
10
0.816577
20
0.127936
30
0.0
11
0.817931
21
0.128115
31
0.0
0
LINE
8
TOP_HID
6
HIDDEN
10
0.817931
20
0.128115
30
0.0
11
0.819286
21
0.128298
31
0.0
0
LINE
8
TOP_HID
6
HIDDEN
10
0.819286
20
0.128298
30
0.0
11
0.816985
21
0.128298
31
0.0
0
LINE
8
TOP_HID
6
HIDDEN
10
0.676445
20
0.124847
30
0.0
11
0.677311
21
0.124773
31
0.0
0
LINE
8
TOP_HID
6
HIDDEN
10
0.677311
20
0.124773
30
0.0
11
0.678178
21
0.124700
31
0.0
0
LINE
8
TOP_HID
6
HIDDEN
10
0.678178
20
0.124700
30
0.0
11
0.679044
21
0.124628
31
0.0
0
LINE
8
TOP_HID
6
HIDDEN
10
0.679044
20
0.124628
30
0.0
11
0.679911
21
0.124558
31
0.0
0
LINE
8
TOP_HID
6
HIDDEN
10
0.679911
20
0.124558
30
0.0
11
0.680778
21
0.124488
31
0.0
0
LINE
8
TOP_HID
6
HIDDEN
10
0.680778
20
0.124488
30
0.0
11
0.681645
21
0.124420
31
0.0
0
LINE
8
TOP_HID
6
HIDDEN
10
0.681645
20
0.124420
30
0.0
11
0.682512
21
0.124353
31
0.0
0
LINE
8
TOP_HID
6
HIDDEN
10
0.682512
20
0.124353
30
0.0
11
0.683379
21
0.124287
31
0.0
0
LINE
8
TOP_HID
6
HIDDEN
10
0.683379
20
0.124287
30
0.0
11
0.684246
21
0.124223
31
0.0
0
LINE
8
TOP_HID
6
HIDDEN
10
0.684246
20
0.124223
30
0.0
11
0.685113
21
0.124159
31
0.0
0
LINE
8
TOP_HID
6
HIDDEN
10
0.685113
20
0.124159
30
0.0
11
0.685980
21
0.124097
31
0.0
0
LINE
8
TOP_HID
6
HIDDEN
10
0.685980
20
0.124097
30
0.0
11
0.686848
21
0.124036
31
0.0
0
LINE
8
TOP_HID
6
HIDDEN
10
0.686848
20
0.124036
30
0.0
11
0.687715
21
0.123976
31
0.0
0
LINE
8
TOP_HID
6
HIDDEN
10
0.687715
20
0.123976
30
0.0
11
0.688583
21
0.123918
31
0.0
0
LINE
8
TOP_HID
6
HIDDEN
10
0.688583
20
0.123918
30
0.0
11
0.689450
21
0.123860
31
0.0
0
LINE
8
TOP_HID
6
HIDDEN
10
0.689450
20
0.123860
30
0.0
11
0.690318
21
0.123804
31
0.0
0
LINE
8
TOP_HID
6
HIDDEN
10
0.690318
20
0.123804
30
0.0
11
0.691186
21
0.123749
31
0.0
0
LINE
8
TOP_HID
6
HIDDEN
10
0.691186
20
0.123749
30
0.0
11
0.692054
21
0.123695
31
0.0
0
LINE
8
TOP_HID
6
HIDDEN
10
0.692054
20
0.123695
30
0.0
11
0.692922
21
0.123642
31
0.0
0
LINE
8
TOP_HID
6
HIDDEN
10
0.692922
20
0.123642
30
0.0
11
0.693790
21
0.123591
31
0.0
0
LINE
8
TOP_HID
6
HIDDEN
10
0.693790
20
0.123591
30
0.0
11
0.694658
21
0.123540
31
0.0
0
LINE
8
TOP_HID
6
HIDDEN
10
0.694658
20
0.123540
30
0.0
11
0.695526
21
0.123491
31
0.0
0
LINE
8
TOP_HID
6
HIDDEN
10
0.695526
20
0.123491
30
0.0
11
0.696394
21
0.123443
31
0.0
0
LINE
8
TOP_HID
6
HIDDEN
10
0.696394
20
0.123443
30
0.0
11
0.697263
21
0.123396
31
0.0
0
LINE
8
TOP_HID
6
HIDDEN
10
0.697263
20
0.123396
30
0.0
11
0.698131
21
0.123351
31
0.0
0
LINE
8
TOP_HID
6
HIDDEN
10
0.698131
20
0.123351
30
0.0
11
0.699000
21
0.123306
31
0.0
0
LINE
8
TOP_HID
6
HIDDEN
10
0.699000
20
0.123306
30
0.0
11
0.699868
21
0.123263
31
0.0
0
LINE
8
TOP_HID
6
HIDDEN
10
0.699868
20
0.123263
30
0.0
11
0.700737
21
0.123221
31
0.0
0
LINE
8
TOP_HID
6
HIDDEN
10
0.700737
20
0.123221
30
0.0
11
0.701605
21
0.123180
31
0.0
0
LINE
8
TOP_HID
6
HIDDEN
10
0.701605
20
0.123180
30
0.0
11
0.702474
21
0.123140
31
0.0
0
LINE
8
TOP_HID
6
HIDDEN
10
0.702474
20
0.123140
30
0.0
11
0.703342
21
0.123102
31
0.0
0
LINE
8
TOP_HID
6
HIDDEN
10
0.703342
20
0.123102
30
0.0
11
0.704211
21
0.123064
31
0.0
0
LINE
8
TOP_HID
6
HIDDEN
10
0.704211
20
0.123064
30
0.0
11
0.705080
21
0.123028
31
0.0
0
LINE
8
TOP_HID
6
HIDDEN
10
0.705080
20
0.123028
30
0.0
11
0.705949
21
0.122993
31
0.0
0
LINE
8
TOP_HID
6
HIDDEN
10
0.705949
20
0.122993
30
0.0
11
0.706818
21
0.122959
31
0.0
0
LINE
8
TOP_HID
6
HIDDEN
10
0.706818
20
0.122959
30
0.0
11
0.707687
21
0.122927
31
0.0
0
LINE
8
TOP_HID
6
HIDDEN
10
0.707687
20
0.122927
30
0.0
11
0.708556
21
0.122895
31
0.0
0
LINE
8
TOP_HID
6
HIDDEN
10
0.708556
20
0.122895
30
0.0
11
0.709425
21
0.122865
31
0.0
0
LINE
8
TOP_HID
6
HIDDEN
10
0.709425
20
0.122865
30
0.0
11
0.710294
21
0.122836
31
0.0
0
LINE
8
TOP_HID
6
HIDDEN
10
0.710294
20
0.122836
30
0.0
11
0.711163
21
0.122808
31
0.0
0
LINE
8
TOP_HID
6
HIDDEN
10
0.711163
20
0.122808
30
0.0
11
0.712032
21
0.122781
31
0.0
0
LINE
8
TOP_HID
6
HIDDEN
10
0.712032
20
0.122781
30
0.0
11
0.712901
21
0.122756
31
0.0
0
LINE
8
TOP_HID
6
HIDDEN
10
0.712901
20
0.122756
30
0.0
11
0.713771
21
0.122732
31
0.0
0
LINE
8
TOP_HID
6
HIDDEN
10
0.713771
20
0.122732
30
0.0
11
0.714640
21
0.122708
31
0.0
0
LINE
8
TOP_HID
6
HIDDEN
10
0.714640
20
0.122708
30
0.0
11
0.715509
21
0.122687
31
0.0
0
LINE
8
TOP_HID
6
HIDDEN
10
0.715509
20
0.122687
30
0.0
11
0.716378
21
0.122666
31
0.0
0
LINE
8
TOP_HID
6
HIDDEN
10
0.716378
20
0.122666
30
0.0
11
0.717248
21
0.122646
31
0.0
0
LINE
8
TOP_HID
6
HIDDEN
10
0.717248
20
0.122646
30
0.0
11
0.718117
21
0.122628
31
0.0
0
LINE
8
TOP_HID
6
HIDDEN
10
0.718117
20
0.122628
30
0.0
11
0.718987
21
0.122611
31
0.0
0
LINE
8
TOP_HID
6
HIDDEN
10
0.718987
20
0.122611
30
0.0
11
0.719856
21
0.122595
31
0.0
0
LINE
8
TOP_HID
6
HIDDEN
10
0.719856
20
0.122595
30
0.0
11
0.720725
21
0.122580
31
0.0
0
LINE
8
TOP_HID
6
HIDDEN
10
0.720725
20
0.122580
30
0.0
11
0.721595
21
0.122566
31
0.0
0
LINE
8
TOP_HID
6
HIDDEN
10
0.721595
20
0.122566
30
0.0
11
0.722464
21
0.122554
31
0.0
0
LINE
8
TOP_HID
6
HIDDEN
10
0.722464
20
0.122554
30
0.0
11
0.723334
21
0.122542
31
0.0
0
LINE
8
TOP_HID
6
HIDDEN
10
0.723334
20
0.122542
30
0.0
11
0.724203
21
0.122532
31
0.0
0
LINE
8
TOP_HID
6
HIDDEN
10
0.724203
20
0.122532
30
0.0
11
0.725073
21
0.122523
31
0.0
0
LINE
8
TOP_HID
6
HIDDEN
10
0.725073
20
0.122523
30
0.0
11
0.725942
21
0.122516
31
0.0
0
LINE
8
TOP_HID
6
HIDDEN
10
0.725942
20
0.122516
30
0.0
11
0.726812
21
0.122509
31
0.0
0
LINE
8
TOP_HID
6
HIDDEN
10
0.726812
20
0.122509
30
0.0
11
0.727681
21
0.122504
31
0.0
0
LINE
8
TOP_HID
6
HIDDEN
10
0.727681
20
0.122504
30
0.0
11
0.728551
21
0.122500
31
0.0
0
LINE
8
TOP_HID
6
HIDDEN
10
0.728551
20
0.122500
30
0.0
11
0.729421
21
0.122497
31
0.0
0
LINE
8
TOP_HID
6
HIDDEN
10
0.729421
20
0.122497
30
0.0
11
0.730290
21
0.122495
31
0.0
0
LINE
8
TOP_HID
6
HIDDEN
10
0.730290
20
0.122495
30
0.0
11
0.731160
21
0.122494
31
0.0
0
LINE
8
TOP_HID
6
HIDDEN
10
0.731160
20
0.122494
30
0.0
11
0.732526
21
0.122496
31
0.0
0
LINE
8
TOP_HID
6
HIDDEN
10
0.732526
20
0.122496
30
0.0
11
0.733893
21
0.122500
31
0.0
0
LINE
8
TOP_HID
6
HIDDEN
10
0.733893
20
0.122500
30
0.0
11
0.735259
21
0.122508
31
0.0
0
LINE
8
TOP_HID
6
HIDDEN
10
0.735259
20
0.122508
30
0.0
11
0.736625
21
0.122518
31
0.0
0
LINE
8
TOP_HID
6
HIDDEN
10
0.736625
20
0.122518
30
0.0
11
0.737992
21
0.122531
31
0.0
0
LINE
8
TOP_HID
6
HIDDEN
10
0.737992
20
0.122531
30
0.0
11
0.739358
21
0.122547
31
0.0
0
LINE
8
TOP_HID
6
HIDDEN
10
0.739358
20
0.122547
30
0.0
11
0.740724
21
0.122566
31
0.0
0
LINE
8
TOP_HID
6
HIDDEN
10
0.740724
20
0.122566
30
0.0
11
0.742091
21
0.122588
31
0.0
0
LINE
8
TOP_HID
6
HIDDEN
10
0.742091
20
0.122588
30
0.0
11
0.743457
21
0.122613
31
0.0
0
LINE
8
TOP_HID
6
HIDDEN
10
0.743457
20
0.122613
30
0.0
11
0.744823
21
0.122641
31
0.0
0
LINE
8
TOP_HID
6
HIDDEN
10
0.744823
20
0.122641
30
0.0
11
0.746189
21
0.122672
31
0.0
0
LINE
8
TOP_HID
6
HIDDEN
10
0.746189
20
0.122672
30
0.0
11
0.747555
21
0.122705
31
0.0
0
LINE
8
TOP_HID
6
HIDDEN
10
0.747555
20
0.122705
30
0.0
11
0.748921
21
0.122742
31
0.0
0
LINE
8
TOP_HID
6
HIDDEN
10
0.748921
20
0.122742
30
0.0
11
0.750287
21
0.122781
31
0.0
0
LINE
8
TOP_HID
6
HIDDEN
10
0.750287
20
0.122781
30
0.0
11
0.751653
21
0.122824
31
0.0
0
LINE
8
TOP_HID
6
HIDDEN
10
0.751653
20
0.122824
30
0.0
11
0.753019
21
0.122869
31
0.0
0
LINE
8
TOP_HID
6
HIDDEN
10
0.753019
20
0.122869
30
0.0
11
0.754384
21
0.122918
31
0.0
0
LINE
8
TOP_HID
6
HIDDEN
10
0.754384
20
0.122918
30
0.0
11
0.755750
21
0.122969
31
0.0
0
LINE
8
TOP_HID
6
HIDDEN
10
0.755750
20
0.122969
30
0.0
11
0.757115
21
0.123023
31
0.0
0
LINE
8
TOP_HID
6
HIDDEN
10
0.757115
20
0.123023
30
0.0
11
0.758480
21
0.123080
31
0.0
0
LINE
8
TOP_HID
6
HIDDEN
10
0.758480
20
0.123080
30
0.0
11
0.759845
21
0.123140
31
0.0
0
LINE
8
TOP_HID
6
HIDDEN
10
0.759845
20
0.123140
30
0.0
11
0.761211
21
0.123203
31
0.0
0
LINE
8
TOP_HID
6
HIDDEN
10
0.761211
20
0.123203
30
0.0
11
0.762575
21
0.123269
31
0.0
0
LINE
8
TOP_HID
6
HIDDEN
10
0.762575
20
0.123269
30
0.0
11
0.763940
21
0.123338
31
0.0
0
LINE
8
TOP_HID
6
HIDDEN
10
0.763940
20
0.123338
30
0.0
11
0.765305
21
0.123409
31
0.0
0
LINE
8
TOP_HID
6
HIDDEN
10
0.765305
20
0.123409
30
0.0
11
0.766669
21
0.123484
31
0.0
0
LINE
8
TOP_HID
6
HIDDEN
10
0.766669
20
0.123484
30
0.0
11
0.768033
21
0.123562
31
0.0
0
LINE
8
TOP_HID
6
HIDDEN
10
0.768033
20
0.123562
30
0.0
11
0.769397
21
0.123642
31
0.0
0
LINE
8
TOP_HID
6
HIDDEN
10
0.769397
20
0.123642
30
0.0
11
0.770761
21
0.123726
31
0.0
0
LINE
8
TOP_HID
6
HIDDEN
10
0.770761
20
0.123726
30
0.0
11
0.772125
21
0.123812
31
0.0
0
LINE
8
TOP_HID
6
HIDDEN
10
0.772125
20
0.123812
30
0.0
11
0.773489
21
0.123901
31
0.0
0
LINE
8
TOP_HID
6
HIDDEN
10
0.773489
20
0.123901
30
0.0
11
0.774852
21
0.123993
31
0.0
0
LINE
8
TOP_HID
6
HIDDEN
10
0.774852
20
0.123993
30
0.0
11
0.776215
21
0.124088
31
0.0
0
LINE
8
TOP_HID
6
HIDDEN
10
0.776215
20
0.124088
30
0.0
11
0.777578
21
0.124187
31
0.0
0
LINE
8
TOP_HID
6
HIDDEN
10
0.777578
20
0.124187
30
0.0
11
0.778941
21
0.124287
31
0.0
0
LINE
8
TOP_HID
6
HIDDEN
10
0.778941
20
0.124287
30
0.0
11
0.780303
21
0.124391
31
0.0
0
LINE
8
TOP_HID
6
HIDDEN
10
0.780303
20
0.124391
30
0.0
11
0.781665
21
0.124498
31
0.0
0
LINE
8
TOP_HID
6
HIDDEN
10
0.781665
20
0.124498
30
0.0
11
0.783028
21
0.124608
31
0.0
0
LINE
8
TOP_HID
6
HIDDEN
10
0.783028
20
0.124608
30
0.0
11
0.784389
21
0.124720
31
0.0
0
LINE
8
TOP_HID
6
HIDDEN
10
0.784389
20
0.124720
30
0.0
11
0.785751
21
0.124836
31
0.0
0
LINE
8
TOP_HID
6
HIDDEN
10
0.785751
20
0.124836
30
0.0
11
0.787112
21
0.124954
31
0.0
0
LINE
8
TOP_HID
6
HIDDEN
10
0.787112
20
0.124954
30
0.0
11
0.788473
21
0.125076
31
0.0
0
LINE
8
TOP_HID
6
HIDDEN
10
0.788473
20
0.125076
30
0.0
11
0.789834
21
0.125200
31
0.0
0
LINE
8
TOP_HID
6
HIDDEN
10
0.789834
20
0.125200
30
0.0
11
0.791195
21
0.125327
31
0.0
0
LINE
8
TOP_HID
6
HIDDEN
10
0.791195
20
0.125327
30
0.0
11
0.792555
21
0.125458
31
0.0
0
LINE
8
TOP_HID
6
HIDDEN
10
0.792555
20
0.125458
30
0.0
11
0.793915
21
0.125591
31
0.0
0
LINE
8
TOP_HID
6
HIDDEN
10
0.793915
20
0.125591
30
0.0
11
0.795274
21
0.125727
31
0.0
0
LINE
8
TOP_HID
6
HIDDEN
10
0.795274
20
0.125727
30
0.0
11
0.796634
21
0.125865
31
0.0
0
LINE
8
TOP_HID
6
HIDDEN
10
0.796634
20
0.125865
30
0.0
11
0.797993
21
0.126007
31
0.0
0
LINE
8
TOP_HID
6
HIDDEN
10
0.797993
20
0.126007
30
0.0
11
0.799352
21
0.126152
31
0.0
0
LINE
8
TOP_HID
6
HIDDEN
10
0.799352
20
0.126152
30
0.0
11
0.800710
21
0.126300
31
0.0
0
LINE
8
TOP_HID
6
HIDDEN
10
0.800710
20
0.126300
30
0.0
11
0.802068
21
0.126450
31
0.0
0
LINE
8
TOP_HID
6
HIDDEN
10
0.802068
20
0.126450
30
0.0
11
0.803426
21
0.126603
31
0.0
0
LINE
8
TOP_HID
6
HIDDEN
10
0.803426
20
0.126603
30
0.0
11
0.804784
21
0.126760
31
0.0
0
LINE
8
TOP_HID
6
HIDDEN
10
0.804784
20
0.126760
30
0.0
11
0.806141
21
0.126919
31
0.0
0
LINE
8
TOP_HID
6
HIDDEN
10
0.806141
20
0.126919
30
0.0
11
0.807498
21
0.127081
31
0.0
0
LINE
8
TOP_HID
6
HIDDEN
10
0.807498
20
0.127081
30
0.0
11
0.808854
21
0.127246
31
0.0
0
LINE
8
TOP_HID
6
HIDDEN
10
0.808854
20
0.127246
30
0.0
11
0.810210
21
0.127414
31
0.0
0
LINE
8
TOP_HID
6
HIDDEN
10
0.810210
20
0.127414
30
0.0
11
0.811566
21
0.127585
31
0.0
0
LINE
8
TOP_HID
6
HIDDEN
10
0.811566
20
0.127585
30
0.0
11
0.812921
21
0.127759
31
0.0
0
LINE
8
TOP_HID
6
HIDDEN
10
0.812921
20
0.127759
30
0.0
11
0.814276
21
0.127936
31
0.0
0
LINE
8
TOP_HID
6
HIDDEN
10
0.814276
20
0.127936
30
0.0
11
0.815631
21
0.128115
31
0.0
0
LINE
8
TOP_HID
6
HIDDEN
10
0.815631
20
0.128115
30
0.0
11
0.816985
21
0.128298
31
0.0
0
LINE
8
TOP_HID
6
HIDDEN
10
0.678745
20
0.124847
30
0.0
11
0.676445
21
0.124847
31
0.0
0
LINE
8
TOP_HID
6
HIDDEN
10
0.681469
20
0.013860
30
0.0
11
0.679168
21
0.013860
31
0.0
0
LINE
8
TOP_HID
6
HIDDEN
10
0.679168
20
0.013860
30
0.0
11
0.676445
21
0.124847
31
0.0
0
LINE
8
TOP_HID
6
HIDDEN
10
0.681469
20
0.013860
30
0.0
11
0.678745
21
0.124847
31
0.0
0
LINE
8
TOP_HID
6
HIDDEN
10
0.816985
20
0.128298
30
0.0
11
0.819709
21
0.017311
31
0.0
0
LINE
8
TOP_HID
6
HIDDEN
10
0.822009
20
0.017311
30
0.0
11
0.819709
21
0.017311
31
0.0
0
LINE
8
TOP_HID
6
HIDDEN
10
0.819286
20
0.128298
30
0.0
11
0.822009
21
0.017311
31
0.0
0
LINE
8
TOP_HID
6
HIDDEN
10
0.822009
20
0.017311
30
0.0
11
0.820623
21
0.017142
31
0.0
0
LINE
8
TOP_HID
6
HIDDEN
10
0.820623
20
0.017142
30
0.0
11
0.819236
21
0.016975
31
0.0
0
LINE
8
TOP_HID
6
HIDDEN
10
0.819236
20
0.016975
30
0.0
11
0.817849
21
0.016810
31
0.0
0
LINE
8
TOP_HID
6
HIDDEN
10
0.817849
20
0.016810
30
0.0
11
0.816461
21
0.016649
31
0.0
0
LINE
8
TOP_HID
6
HIDDEN
10
0.816461
20
0.016649
30
0.0
11
0.815073
21
0.016490
31
0.0
0
LINE
8
TOP_HID
6
HIDDEN
10
0.815073
20
0.016490
30
0.0
11
0.813685
21
0.016334
31
0.0
0
LINE
8
TOP_HID
6
HIDDEN
10
0.813685
20
0.016334
30
0.0
11
0.812297
21
0.016180
31
0.0
0
LINE
8
TOP_HID
6
HIDDEN
10
0.812297
20
0.016180
30
0.0
11
0.810908
21
0.016030
31
0.0
0
LINE
8
TOP_HID
6
HIDDEN
10
0.810908
20
0.016030
30
0.0
11
0.809519
21
0.015882
31
0.0
0
LINE
8
TOP_HID
6
HIDDEN
10
0.809519
20
0.015882
30
0.0
11
0.808130
21
0.015736
31
0.0
0
LINE
8
TOP_HID
6
HIDDEN
10
0.808130
20
0.015736
30
0.0
11
0.806740
21
0.015594
31
0.0
0
LINE
8
TOP_HID
6
HIDDEN
10
0.806740
20
0.015594
30
0.0
11
0.805350
21
0.015454
31
0.0
0
LINE
8
TOP_HID
6
HIDDEN
10
0.805350
20
0.015454
30
0.0
11
0.803960
21
0.015316
31
0.0
0
LINE
8
TOP_HID
6
HIDDEN
10
0.803960
20
0.015316
30
0.0
11
0.802570
21
0.015182
31
0.0
0
LINE
8
TOP_HID
6
HIDDEN
10
0.802570
20
0.015182
30
0.0
11
0.801179
21
0.015050
31
0.0
0
LINE
8
TOP_HID
6
HIDDEN
10
0.801179
20
0.015050
30
0.0
11
0.799788
21
0.014921
31
0.0
0
LINE
8
TOP_HID
6
HIDDEN
10
0.799788
20
0.014921
30
0.0
11
0.798397
21
0.014795
31
0.0
0
LINE
8
TOP_HID
6
HIDDEN
10
0.798397
20
0.014795
30
0.0
11
0.797005
21
0.014671
31
0.0
0
LINE
8
TOP_HID
6
HIDDEN
10
0.797005
20
0.014671
30
0.0
11
0.795614
21
0.014550
31
0.0
0
LINE
8
TOP_HID
6
HIDDEN
10
0.795614
20
0.014550
30
0.0
11
0.794222
21
0.014432
31
0.0
0
LINE
8
TOP_HID
6
HIDDEN
10
0.794222
20
0.014432
30
0.0
11
0.792830
21
0.014316
31
0.0
0
LINE
8
TOP_HID
6
HIDDEN
10
0.792830
20
0.014316
30
0.0
11
0.791437
21
0.014203
31
0.0
0
LINE
8
TOP_HID
6
HIDDEN
10
0.791437
20
0.014203
30
0.0
11
0.790045
21
0.014093
31
0.0
0
LINE
8
TOP_HID
6
HIDDEN
10
0.790045
20
0.014093
30
0.0
11
0.788652
21
0.013986
31
0.0
0
LINE
8
TOP_HID
6
HIDDEN
10
0.788652
20
0.013986
30
0.0
11
0.787259
21
0.013881
31
0.0
0
LINE
8
TOP_HID
6
HIDDEN
10
0.787259
20
0.013881
30
0.0
11
0.785866
21
0.013779
31
0.0
0
LINE
8
TOP_HID
6
HIDDEN
10
0.785866
20
0.013779
30
0.0
11
0.784472
21
0.013680
31
0.0
0
LINE
8
TOP_HID
6
HIDDEN
10
0.784472
20
0.013680
30
0.0
11
0.783079
21
0.013583
31
0.0
0
LINE
8
TOP_HID
6
HIDDEN
10
0.783079
20
0.013583
30
0.0
11
0.781685
21
0.013489
31
0.0
0
LINE
8
TOP_HID
6
HIDDEN
10
0.781685
20
0.013489
30
0.0
11
0.780291
21
0.013398
31
0.0
0
LINE
8
TOP_HID
6
HIDDEN
10
0.780291
20
0.013398
30
0.0
11
0.778897
21
0.013310
31
0.0
0
LINE
8
TOP_HID
6
HIDDEN
10
0.778897
20
0.013310
30
0.0
11
0.777503
21
0.013224
31
0.0
0
LINE
8
TOP_HID
6
HIDDEN
10
0.777503
20
0.013224
30
0.0
11
0.776108
21
0.013141
31
0.0
0
LINE
8
TOP_HID
6
HIDDEN
10
0.776108
20
0.013141
30
0.0
11
0.774714
21
0.013061
31
0.0
0
LINE
8
TOP_HID
6
HIDDEN
10
0.774714
20
0.013061
30
0.0
11
0.773319
21
0.012983
31
0.0
0
LINE
8
TOP_HID
6
HIDDEN
10
0.773319
20
0.012983
30
0.0
11
0.771924
21
0.012909
31
0.0
0
LINE
8
TOP_HID
6
HIDDEN
10
0.771924
20
0.012909
30
0.0
11
0.770529
21
0.012836
31
0.0
0
LINE
8
TOP_HID
6
HIDDEN
10
0.770529
20
0.012836
30
0.0
11
0.769134
21
0.012767
31
0.0
0
LINE
8
TOP_HID
6
HIDDEN
10
0.769134
20
0.012767
30
0.0
11
0.767738
21
0.012700
31
0.0
0
LINE
8
TOP_HID
6
HIDDEN
10
0.767738
20
0.012700
30
0.0
11
0.766343
21
0.012637
31
0.0
0
LINE
8
TOP_HID
6
HIDDEN
10
0.766343
20
0.012637
30
0.0
11
0.764947
21
0.012575
31
0.0
0
LINE
8
TOP_HID
6
HIDDEN
10
0.764947
20
0.012575
30
0.0
11
0.763552
21
0.012517
31
0.0
0
LINE
8
TOP_HID
6
HIDDEN
10
0.763552
20
0.012517
30
0.0
11
0.762156
21
0.012461
31
0.0
0
LINE
8
TOP_HID
6
HIDDEN
10
0.762156
20
0.012461
30
0.0
11
0.760760
21
0.012408
31
0.0
0
LINE
8
TOP_HID
6
HIDDEN
10
0.760760
20
0.012408
30
0.0
11
0.759364
21
0.012358
31
0.0
0
LINE
8
TOP_HID
6
HIDDEN
10
0.759364
20
0.012358
30
0.0
11
0.757968
21
0.012310
31
0.0
0
LINE
8
TOP_HID
6
HIDDEN
10
0.757968
20
0.012310
30
0.0
11
0.756572
21
0.012265
31
0.0
0
LINE
8
TOP_HID
6
HIDDEN
10
0.756572
20
0.012265
30
0.0
11
0.755175
21
0.012223
31
0.0
0
LINE
8
TOP_HID
6
HIDDEN
10
0.755175
20
0.012223
30
0.0
11
0.753779
21
0.012183
31
0.0
0
LINE
8
TOP_HID
6
HIDDEN
10
0.753779
20
0.012183
30
0.0
11
0.752383
21
0.012147
31
0.0
0
LINE
8
TOP_HID
6
HIDDEN
10
0.752383
20
0.012147
30
0.0
11
0.750986
21
0.012113
31
0.0
0
LINE
8
TOP_HID
6
HIDDEN
10
0.750986
20
0.012113
30
0.0
11
0.749590
21
0.012081
31
0.0
0
LINE
8
TOP_HID
6
HIDDEN
10
0.749590
20
0.012081
30
0.0
11
0.748193
21
0.012053
31
0.0
0
LINE
8
TOP_HID
6
HIDDEN
10
0.748193
20
0.012053
30
0.0
11
0.746796
21
0.012027
31
0.0
0
LINE
8
TOP_HID
6
HIDDEN
10
0.746796
20
0.012027
30
0.0
11
0.745400
21
0.012004
31
0.0
0
LINE
8
TOP_HID
6
HIDDEN
10
0.745400
20
0.012004
30
0.0
11
0.744003
21
0.011983
31
0.0
0
LINE
8
TOP_HID
6
HIDDEN
10
0.744003
20
0.011983
30
0.0
11
0.742606
21
0.011966
31
0.0
0
LINE
8
TOP_HID
6
HIDDEN
10
0.742606
20
0.011966
30
0.0
11
0.741209
21
0.011951
31
0.0
0
LINE
8
TOP_HID
6
HIDDEN
10
0.741209
20
0.011951
30
0.0
11
0.739812
21
0.011938
31
0.0
0
LINE
8
TOP_HID
6
HIDDEN
10
0.739812
20
0.011938
30
0.0
11
0.738415
21
0.011929
31
0.0
0
LINE
8
TOP_HID
6
HIDDEN
10
0.738415
20
0.011929
30
0.0
11
0.737019
21
0.011922
31
0.0
0
LINE
8
TOP_HID
6
HIDDEN
10
0.737019
20
0.011922
30
0.0
11
0.735622
21
0.011918
31
0.0
0
LINE
8
TOP_HID
6
HIDDEN
10
0.735622
20
0.011918
30
0.0
11
0.734225
21
0.011917
31
0.0
0
LINE
8
TOP_HID
6
HIDDEN
10
0.734225
20
0.011917
30
0.0
11
0.733387
21
0.011917
31
0.0
0
LINE
8
TOP_HID
6
HIDDEN
10
0.733387
20
0.011917
30
0.0
11
0.732548
21
0.011919
31
0.0
0
LINE
8
TOP_HID
6
HIDDEN
10
0.732548
20
0.011919
30
0.0
11
0.731710
21
0.011921
31
0.0
0
LINE
8
TOP_HID
6
HIDDEN
10
0.731710
20
0.011921
30
0.0
11
0.730872
21
0.011925
31
0.0
0
LINE
8
TOP_HID
6
HIDDEN
10
0.730872
20
0.011925
30
0.0
11
0.730034
21
0.011929
31
0.0
0
LINE
8
TOP_HID
6
HIDDEN
10
0.730034
20
0.011929
30
0.0
11
0.729196
21
0.011934
31
0.0
0
LINE
8
TOP_HID
6
HIDDEN
10
0.729196
20
0.011934
30
0.0
11
0.728358
21
0.011941
31
0.0
0
LINE
8
TOP_HID
6
HIDDEN
10
0.728358
20
0.011941
30
0.0
11
0.727520
21
0.011948
31
0.0
0
LINE
8
TOP_HID
6
HIDDEN
10
0.727520
20
0.011948
30
0.0
11
0.726682
21
0.011956
31
0.0
0
LINE
8
TOP_HID
6
HIDDEN
10
0.726682
20
0.011956
30
0.0
11
0.725843
21
0.011966
31
0.0
0
LINE
8
TOP_HID
6
HIDDEN
10
0.725843
20
0.011966
30
0.0
11
0.725005
21
0.011976
31
0.0
0
LINE
8
TOP_HID
6
HIDDEN
10
0.725005
20
0.011976
30
0.0
11
0.724167
21
0.011987
31
0.0
0
LINE
8
TOP_HID
6
HIDDEN
10
0.724167
20
0.011987
30
0.0
11
0.723329
21
0.011999
31
0.0
0
LINE
8
TOP_HID
6
HIDDEN
10
0.723329
20
0.011999
30
0.0
11
0.722491
21
0.012013
31
0.0
0
LINE
8
TOP_HID
6
HIDDEN
10
0.722491
20
0.012013
30
0.0
11
0.721653
21
0.012027
31
0.0
0
LINE
8
TOP_HID
6
HIDDEN
10
0.721653
20
0.012027
30
0.0
11
0.720815
21
0.012042
31
0.0
0
LINE
8
TOP_HID
6
HIDDEN
10
0.720815
20
0.012042
30
0.0
11
0.719977
21
0.012058
31
0.0
0
LINE
8
TOP_HID
6
HIDDEN
10
0.719977
20
0.012058
30
0.0
11
0.719139
21
0.012075
31
0.0
0
LINE
8
TOP_HID
6
HIDDEN
10
0.719139
20
0.012075
30
0.0
11
0.718301
21
0.012094
31
0.0
0
LINE
8
TOP_HID
6
HIDDEN
10
0.718301
20
0.012094
30
0.0
11
0.717463
21
0.012113
31
0.0
0
LINE
8
TOP_HID
6
HIDDEN
10
0.717463
20
0.012113
30
0.0
11
0.716625
21
0.012133
31
0.0
0
LINE
8
TOP_HID
6
HIDDEN
10
0.716625
20
0.012133
30
0.0
11
0.715787
21
0.012154
31
0.0
0
LINE
8
TOP_HID
6
HIDDEN
10
0.715787
20
0.012154
30
0.0
11
0.714950
21
0.012176
31
0.0
0
LINE
8
TOP_HID
6
HIDDEN
10
0.714950
20
0.012176
30
0.0
11
0.714112
21
0.012199
31
0.0
0
LINE
8
TOP_HID
6
HIDDEN
10
0.714112
20
0.012199
30
0.0
11
0.713274
21
0.012223
31
0.0
0
LINE
8
TOP_HID
6
HIDDEN
10
0.713274
20
0.012223
30
0.0
11
0.712436
21
0.012248
31
0.0
0
LINE
8
TOP_HID
6
HIDDEN
10
0.712436
20
0.012248
30
0.0
11
0.711598
21
0.012274
31
0.0
0
LINE
8
TOP_HID
6
HIDDEN
10
0.711598
20
0.012274
30
0.0
11
0.710761
21
0.012301
31
0.0
0
LINE
8
TOP_HID
6
HIDDEN
10
0.710761
20
0.012301
30
0.0
11
0.709923
21
0.012329
31
0.0
0
LINE
8
TOP_HID
6
HIDDEN
10
0.709923
20
0.012329
30
0.0
11
0.709085
21
0.012358
31
0.0
0
LINE
8
TOP_HID
6
HIDDEN
10
0.709085
20
0.012358
30
0.0
11
0.708248
21
0.012387
31
0.0
0
LINE
8
TOP_HID
6
HIDDEN
10
0.708248
20
0.012387
30
0.0
11
0.707410
21
0.012418
31
0.0
0
LINE
8
TOP_HID
6
HIDDEN
10
0.707410
20
0.012418
30
0.0
11
0.706573
21
0.012450
31
0.0
0
LINE
8
TOP_HID
6
HIDDEN
10
0.706573
20
0.012450
30
0.0
11
0.705735
21
0.012483
31
0.0
0
LINE
8
TOP_HID
6
HIDDEN
10
0.705735
20
0.012483
30
0.0
11
0.704898
21
0.012517
31
0.0
0
LINE
8
TOP_HID
6
HIDDEN
10
0.704898
20
0.012517
30
0.0
11
0.704060
21
0.012552
31
0.0
0
LINE
8
TOP_HID
6
HIDDEN
10
0.704060
20
0.012552
30
0.0
11
0.703223
21
0.012587
31
0.0
0
LINE
8
TOP_HID
6
HIDDEN
10
0.703223
20
0.012587
30
0.0
11
0.702386
21
0.012624
31
0.0
0
LINE
8
TOP_HID
6
HIDDEN
10
0.702386
20
0.012624
30
0.0
11
0.701548
21
0.012662
31
0.0
0
LINE
8
TOP_HID
6
HIDDEN
10
0.701548
20
0.012662
30
0.0
11
0.700711
21
0.012700
31
0.0
0
LINE
8
TOP_HID
6
HIDDEN
10
0.700711
20
0.012700
30
0.0
11
0.699874
21
0.012740
31
0.0
0
LINE
8
TOP_HID
6
HIDDEN
10
0.699874
20
0.012740
30
0.0
11
0.699037
21
0.012781
31
0.0
0
LINE
8
TOP_HID
6
HIDDEN
10
0.699037
20
0.012781
30
0.0
11
0.698200
21
0.012822
31
0.0
0
LINE
8
TOP_HID
6
HIDDEN
10
0.698200
20
0.012822
30
0.0
11
0.697362
21
0.012865
31
0.0
0
LINE
8
TOP_HID
6
HIDDEN
10
0.697362
20
0.012865
30
0.0
11
0.696525
21
0.012909
31
0.0
0
LINE
8
TOP_HID
6
HIDDEN
10
0.696525
20
0.012909
30
0.0
11
0.695688
21
0.012953
31
0.0
0
LINE
8
TOP_HID
6
HIDDEN
10
0.695688
20
0.012953
30
0.0
11
0.694852
21
0.012999
31
0.0
0
LINE
8
TOP_HID
6
HIDDEN
10
0.694852
20
0.012999
30
0.0
11
0.694015
21
0.013045
31
0.0
0
LINE
8
TOP_HID
6
HIDDEN
10
0.694015
20
0.013045
30
0.0
11
0.693178
21
0.013093
31
0.0
0
LINE
8
TOP_HID
6
HIDDEN
10
0.693178
20
0.013093
30
0.0
11
0.692341
21
0.013141
31
0.0
0
LINE
8
TOP_HID
6
HIDDEN
10
0.692341
20
0.013141
30
0.0
11
0.691504
21
0.013191
31
0.0
0
LINE
8
TOP_HID
6
HIDDEN
10
0.691504
20
0.013191
30
0.0
11
0.690668
21
0.013241
31
0.0
0
LINE
8
TOP_HID
6
HIDDEN
10
0.690668
20
0.013241
30
0.0
11
0.689831
21
0.013292
31
0.0
0
LINE
8
TOP_HID
6
HIDDEN
10
0.689831
20
0.013292
30
0.0
11
0.688995
21
0.013345
31
0.0
0
LINE
8
TOP_HID
6
HIDDEN
10
0.688995
20
0.013345
30
0.0
11
0.688158
21
0.013398
31
0.0
0
LINE
8
TOP_HID
6
HIDDEN
10
0.688158
20
0.013398
30
0.0
11
0.687322
21
0.013453
31
0.0
0
LINE
8
TOP_HID
6
HIDDEN
10
0.687322
20
0.013453
30
0.0
11
0.686486
21
0.013508
31
0.0
0
LINE
8
TOP_HID
6
HIDDEN
10
0.686486
20
0.013508
30
0.0
11
0.685649
21
0.013564
31
0.0
0
LINE
8
TOP_HID
6
HIDDEN
10
0.685649
20
0.013564
30
0.0
11
0.684813
21
0.013621
31
0.0
0
LINE
8
TOP_HID
6
HIDDEN
10
0.684813
20
0.013621
30
0.0
11
0.683977
21
0.013680
31
0.0
0
LINE
8
TOP_HID
6
HIDDEN
10
0.683977
20
0.013680
30
0.0
11
0.683141
21
0.013739
31
0.0
0
LINE
8
TOP_HID
6
HIDDEN
10
0.683141
20
0.013739
30
0.0
11
0.682305
21
0.013799
31
0.0
0
LINE
8
TOP_HID
6
HIDDEN
10
0.682305
20
0.013799
30
0.0
11
0.681469
21
0.013860
31
0.0
0
LINE
8
TOP_HID
6
HIDDEN
10
0.819709
20
0.017311
30
0.0
11
0.818322
21
0.017142
31
0.0
0
LINE
8
TOP_HID
6
HIDDEN
10
0.818322
20
0.017142
30
0.0
11
0.816935
21
0.016975
31
0.0
0
LINE
8
TOP_HID
6
HIDDEN
10
0.816935
20
0.016975
30
0.0
11
0.815548
21
0.016810
31
0.0
0
LINE
8
TOP_HID
6
HIDDEN
10
0.815548
20
0.016810
30
0.0
11
0.814160
21
0.016649
31
0.0
0
LINE
8
TOP_HID
6
HIDDEN
10
0.814160
20
0.016649
30
0.0
11
0.812773
21
0.016490
31
0.0
0
LINE
8
TOP_HID
6
HIDDEN
10
0.812773
20
0.016490
30
0.0
11
0.811384
21
0.016334
31
0.0
0
LINE
8
TOP_HID
6
HIDDEN
10
0.811384
20
0.016334
30
0.0
11
0.809996
21
0.016180
31
0.0
0
LINE
8
TOP_HID
6
HIDDEN
10
0.809996
20
0.016180
30
0.0
11
0.808607
21
0.016030
31
0.0
0
LINE
8
TOP_HID
6
HIDDEN
10
0.808607
20
0.016030
30
0.0
11
0.807218
21
0.015882
31
0.0
0
LINE
8
TOP_HID
6
HIDDEN
10
0.807218
20
0.015882
30
0.0
11
0.805829
21
0.015736
31
0.0
0
LINE
8
TOP_HID
6
HIDDEN
10
0.805829
20
0.015736
30
0.0
11
0.804439
21
0.015594
31
0.0
0
LINE
8
TOP_HID
6
HIDDEN
10
0.804439
20
0.015594
30
0.0
11
0.803049
21
0.015454
31
0.0
0
LINE
8
TOP_HID
6
HIDDEN
10
0.803049
20
0.015454
30
0.0
11
0.801659
21
0.015316
31
0.0
0
LINE
8
TOP_HID
6
HIDDEN
10
0.801659
20
0.015316
30
0.0
11
0.800269
21
0.015182
31
0.0
0
LINE
8
TOP_HID
6
HIDDEN
10
0.800269
20
0.015182
30
0.0
11
0.798878
21
0.015050
31
0.0
0
LINE
8
TOP_HID
6
HIDDEN
10
0.798878
20
0.015050
30
0.0
11
0.797487
21
0.014921
31
0.0
0
LINE
8
TOP_HID
6
HIDDEN
10
0.797487
20
0.014921
30
0.0
11
0.796096
21
0.014795
31
0.0
0
LINE
8
TOP_HID
6
HIDDEN
10
0.796096
20
0.014795
30
0.0
11
0.794705
21
0.014671
31
0.0
0
LINE
8
TOP_HID
6
HIDDEN
10
0.794705
20
0.014671
30
0.0
11
0.793313
21
0.014550
31
0.0
0
LINE
8
TOP_HID
6
HIDDEN
10
0.793313
20
0.014550
30
0.0
11
0.791921
21
0.014432
31
0.0
0
LINE
8
TOP_HID
6
HIDDEN
10
0.791921
20
0.014432
30
0.0
11
0.790529
21
0.014316
31
0.0
0
LINE
8
TOP_HID
6
HIDDEN
10
0.790529
20
0.014316
30
0.0
11
0.789137
21
0.014203
31
0.0
0
LINE
8
TOP_HID
6
HIDDEN
10
0.789137
20
0.014203
30
0.0
11
0.787744
21
0.014093
31
0.0
0
LINE
8
TOP_HID
6
HIDDEN
10
0.787744
20
0.014093
30
0.0
11
0.786351
21
0.013986
31
0.0
0
LINE
8
TOP_HID
6
HIDDEN
10
0.786351
20
0.013986
30
0.0
11
0.784958
21
0.013881
31
0.0
0
LINE
8
TOP_HID
6
HIDDEN
10
0.784958
20
0.013881
30
0.0
11
0.783565
21
0.013779
31
0.0
0
LINE
8
TOP_HID
6
HIDDEN
10
0.783565
20
0.013779
30
0.0
11
0.782172
21
0.013680
31
0.0
0
LINE
8
TOP_HID
6
HIDDEN
10
0.782172
20
0.013680
30
0.0
11
0.780778
21
0.013583
31
0.0
0
LINE
8
TOP_HID
6
HIDDEN
10
0.780778
20
0.013583
30
0.0
11
0.779384
21
0.013489
31
0.0
0
LINE
8
TOP_HID
6
HIDDEN
10
0.779384
20
0.013489
30
0.0
11
0.777990
21
0.013398
31
0.0
0
LINE
8
TOP_HID
6
HIDDEN
10
0.777990
20
0.013398
30
0.0
11
0.776596
21
0.013310
31
0.0
0
LINE
8
TOP_HID
6
HIDDEN
10
0.776596
20
0.013310
30
0.0
11
0.775202
21
0.013224
31
0.0
0
LINE
8
TOP_HID
6
HIDDEN
10
0.775202
20
0.013224
30
0.0
11
0.773808
21
0.013141
31
0.0
0
LINE
8
TOP_HID
6
HIDDEN
10
0.773808
20
0.013141
30
0.0
11
0.772413
21
0.013061
31
0.0
0
LINE
8
TOP_HID
6
HIDDEN
10
0.772413
20
0.013061
30
0.0
11
0.771018
21
0.012983
31
0.0
0
LINE
8
TOP_HID
6
HIDDEN
10
0.771018
20
0.012983
30
0.0
11
0.769623
21
0.012909
31
0.0
0
LINE
8
TOP_HID
6
HIDDEN
10
0.769623
20
0.012909
30
0.0
11
0.768228
21
0.012836
31
0.0
0
LINE
8
TOP_HID
6
HIDDEN
10
0.768228
20
0.012836
30
0.0
11
0.766833
21
0.012767
31
0.0
0
LINE
8
TOP_HID
6
HIDDEN
10
0.766833
20
0.012767
30
0.0
11
0.765438
21
0.012700
31
0.0
0
LINE
8
TOP_HID
6
HIDDEN
10
0.765438
20
0.012700
30
0.0
11
0.764042
21
0.012637
31
0.0
0
LINE
8
TOP_HID
6
HIDDEN
10
0.764042
20
0.012637
30
0.0
11
0.762647
21
0.012575
31
0.0
0
LINE
8
TOP_HID
6
HIDDEN
10
0.762647
20
0.012575
30
0.0
11
0.761251
21
0.012517
31
0.0
0
LINE
8
TOP_HID
6
HIDDEN
10
0.761251
20
0.012517
30
0.0
11
0.759855
21
0.012461
31
0.0
0
LINE
8
TOP_HID
6
HIDDEN
10
0.759855
20
0.012461
30
0.0
11
0.758459
21
0.012408
31
0.0
0
LINE
8
TOP_HID
6
HIDDEN
10
0.758459
20
0.012408
30
0.0
11
0.757063
21
0.012358
31
0.0
0
LINE
8
TOP_HID
6
HIDDEN
10
0.757063
20
0.012358
30
0.0
11
0.755667
21
0.012310
31
0.0
0
LINE
8
TOP_HID
6
HIDDEN
10
0.755667
20
0.012310
30
0.0
11
0.754271
21
0.012265
31
0.0
0
LINE
8
TOP_HID
6
HIDDEN
10
0.754271
20
0.012265
30
0.0
11
0.752875
21
0.012223
31
0.0
0
LINE
8
TOP_HID
6
HIDDEN
10
0.752875
20
0.012223
30
0.0
11
0.751478
21
0.012183
31
0.0
0
LINE
8
TOP_HID
6
HIDDEN
10
0.751478
20
0.012183
30
0.0
11
0.750082
21
0.012147
31
0.0
0
LINE
8
TOP_HID
6
HIDDEN
10
0.750082
20
0.012147
30
0.0
11
0.748685
21
0.012113
31
0.0
0
LINE
8
TOP_HID
6
HIDDEN
10
0.748685
20
0.012113
30
0.0
11
0.747289
21
0.012081
31
0.0
0
LINE
8
TOP_HID
6
HIDDEN
10
0.747289
20
0.012081
30
0.0
11
0.745892
21
0.012053
31
0.0
0
LINE
8
TOP_HID
6
HIDDEN
10
0.745892
20
0.012053
30
0.0
11
0.744496
21
0.012027
31
0.0
0
LINE
8
TOP_HID
6
HIDDEN
10
0.744496
20
0.012027
30
0.0
11
0.743099
21
0.012004
31
0.0
0
LINE
8
TOP_HID
6
HIDDEN
10
0.743099
20
0.012004
30
0.0
11
0.741702
21
0.011983
31
0.0
0
LINE
8
TOP_HID
6
HIDDEN
10
0.741702
20
0.011983
30
0.0
11
0.740305
21
0.011966
31
0.0
0
LINE
8
TOP_HID
6
HIDDEN
10
0.740305
20
0.011966
30
0.0
11
0.738908
21
0.011951
31
0.0
0
LINE
8
TOP_HID
6
HIDDEN
10
0.738908
20
0.011951
30
0.0
11
0.737512
21
0.011938
31
0.0
0
LINE
8
TOP_HID
6
HIDDEN
10
0.737512
20
0.011938
30
0.0
11
0.736115
21
0.011929
31
0.0
0
LINE
8
TOP_HID
6
HIDDEN
10
0.736115
20
0.011929
30
0.0
11
0.734718
21
0.011922
31
0.0
0
LINE
8
TOP_HID
6
HIDDEN
10
0.734718
20
0.011922
30
0.0
11
0.733321
21
0.011918
31
0.0
0
LINE
8
TOP_HID
6
HIDDEN
10
0.733321
20
0.011918
30
0.0
11
0.731924
21
0.011917
31
0.0
0
LINE
8
TOP_HID
6
HIDDEN
10
0.731924
20
0.011917
30
0.0
11
0.731086
21
0.011917
31
0.0
0
LINE
8
TOP_HID
6
HIDDEN
10
0.731086
20
0.011917
30
0.0
11
0.730248
21
0.011919
31
0.0
0
LINE
8
TOP_HID
6
HIDDEN
10
0.730248
20
0.011919
30
0.0
11
0.729410
21
0.011921
31
0.0
0
LINE
8
TOP_HID
6
HIDDEN
10
0.729410
20
0.011921
30
0.0
11
0.728571
21
0.011925
31
0.0
0
LINE
8
TOP_HID
6
HIDDEN
10
0.728571
20
0.011925
30
0.0
11
0.727733
21
0.011929
31
0.0
0
LINE
8
TOP_HID
6
HIDDEN
10
0.727733
20
0.011929
30
0.0
11
0.726895
21
0.011934
31
0.0
0
LINE
8
TOP_HID
6
HIDDEN
10
0.726895
20
0.011934
30
0.0
11
0.726057
21
0.011941
31
0.0
0
LINE
8
TOP_HID
6
HIDDEN
10
0.726057
20
0.011941
30
0.0
11
0.725219
21
0.011948
31
0.0
0
LINE
8
TOP_HID
6
HIDDEN
10
0.725219
20
0.011948
30
0.0
11
0.724381
21
0.011956
31
0.0
0
LINE
8
TOP_HID
6
HIDDEN
10
0.724381
20
0.011956
30
0.0
11
0.723543
21
0.011966
31
0.0
0
LINE
8
TOP_HID
6
HIDDEN
10
0.723543
20
0.011966
30
0.0
11
0.722705
21
0.011976
31
0.0
0
LINE
8
TOP_HID
6
HIDDEN
10
0.722705
20
0.011976
30
0.0
11
0.721867
21
0.011987
31
0.0
0
LINE
8
TOP_HID
6
HIDDEN
10
0.721867
20
0.011987
30
0.0
11
0.721028
21
0.011999
31
0.0
0
LINE
8
TOP_HID
6
HIDDEN
10
0.721028
20
0.011999
30
0.0
11
0.720190
21
0.012013
31
0.0
0
LINE
8
TOP_HID
6
HIDDEN
10
0.720190
20
0.012013
30
0.0
11
0.719352
21
0.012027
31
0.0
0
LINE
8
TOP_HID
6
HIDDEN
10
0.719352
20
0.012027
30
0.0
11
0.718514
21
0.012042
31
0.0
0
LINE
8
TOP_HID
6
HIDDEN
10
0.718514
20
0.012042
30
0.0
11
0.717676
21
0.012058
31
0.0
0
LINE
8
TOP_HID
6
HIDDEN
10
0.717676
20
0.012058
30
0.0
11
0.716838
21
0.012075
31
0.0
0
LINE
8
TOP_HID
6
HIDDEN
10
0.716838
20
0.012075
30
0.0
11
0.716000
21
0.012094
31
0.0
0
LINE
8
TOP_HID
6
HIDDEN
10
0.716000
20
0.012094
30
0.0
11
0.715163
21
0.012113
31
0.0
0
LINE
8
TOP_HID
6
HIDDEN
10
0.715163
20
0.012113
30
0.0
11
0.714325
21
0.012133
31
0.0
0
LINE
8
TOP_HID
6
HIDDEN
10
0.714325
20
0.012133
30
0.0
11
0.713487
21
0.012154
31
0.0
0
LINE
8
TOP_HID
6
HIDDEN
10
0.713487
20
0.012154
30
0.0
11
0.712649
21
0.012176
31
0.0
0
LINE
8
TOP_HID
6
HIDDEN
10
0.712649
20
0.012176
30
0.0
11
0.711811
21
0.012199
31
0.0
0
LINE
8
TOP_HID
6
HIDDEN
10
0.711811
20
0.012199
30
0.0
11
0.710973
21
0.012223
31
0.0
0
LINE
8
TOP_HID
6
HIDDEN
10
0.710973
20
0.012223
30
0.0
11
0.710135
21
0.012248
31
0.0
0
LINE
8
TOP_HID
6
HIDDEN
10
0.710135
20
0.012248
30
0.0
11
0.709298
21
0.012274
31
0.0
0
LINE
8
TOP_HID
6
HIDDEN
10
0.709298
20
0.012274
30
0.0
11
0.708460
21
0.012301
31
0.0
0
LINE
8
TOP_HID
6
HIDDEN
10
0.708460
20
0.012301
30
0.0
11
0.707622
21
0.012329
31
0.0
0
LINE
8
TOP_HID
6
HIDDEN
10
0.707622
20
0.012329
30
0.0
11
0.706785
21
0.012358
31
0.0
0
LINE
8
TOP_HID
6
HIDDEN
10
0.706785
20
0.012358
30
0.0
11
0.705947
21
0.012387
31
0.0
0
LINE
8
TOP_HID
6
HIDDEN
10
0.705947
20
0.012387
30
0.0
11
0.705109
21
0.012418
31
0.0
0
LINE
8
TOP_HID
6
HIDDEN
10
0.705109
20
0.012418
30
0.0
11
0.704272
21
0.012450
31
0.0
0
LINE
8
TOP_HID
6
HIDDEN
10
0.704272
20
0.012450
30
0.0
11
0.703434
21
0.012483
31
0.0
0
LINE
8
TOP_HID
6
HIDDEN
10
0.703434
20
0.012483
30
0.0
11
0.702597
21
0.012517
31
0.0
0
LINE
8
TOP_HID
6
HIDDEN
10
0.702597
20
0.012517
30
0.0
11
0.701760
21
0.012552
31
0.0
0
LINE
8
TOP_HID
6
HIDDEN
10
0.701760
20
0.012552
30
0.0
11
0.700922
21
0.012587
31
0.0
0
LINE
8
TOP_HID
6
HIDDEN
10
0.700922
20
0.012587
30
0.0
11
0.700085
21
0.012624
31
0.0
0
LINE
8
TOP_HID
6
HIDDEN
10
0.700085
20
0.012624
30
0.0
11
0.699248
21
0.012662
31
0.0
0
LINE
8
TOP_HID
6
HIDDEN
10
0.699248
20
0.012662
30
0.0
11
0.698410
21
0.012700
31
0.0
0
LINE
8
TOP_HID
6
HIDDEN
10
0.698410
20
0.012700
30
0.0
11
0.697573
21
0.012740
31
0.0
0
LINE
8
TOP_HID
6
HIDDEN
10
0.697573
20
0.012740
30
0.0
11
0.696736
21
0.012781
31
0.0
0
LINE
8
TOP_HID
6
HIDDEN
10
0.696736
20
0.012781
30
0.0
11
0.695899
21
0.012822
31
0.0
0
LINE
8
TOP_HID
6
HIDDEN
10
0.695899
20
0.012822
30
0.0
11
0.695062
21
0.012865
31
0.0
0
LINE
8
TOP_HID
6
HIDDEN
10
0.695062
20
0.012865
30
0.0
11
0.694225
21
0.012909
31
0.0
0
LINE
8
TOP_HID
6
HIDDEN
10
0.694225
20
0.012909
30
0.0
11
0.693388
21
0.012953
31
0.0
0
LINE
8
TOP_HID
6
HIDDEN
10
0.693388
20
0.012953
30
0.0
11
0.692551
21
0.012999
31
0.0
0
LINE
8
TOP_HID
6
HIDDEN
10
0.692551
20
0.012999
30
0.0
11
0.691714
21
0.013045
31
0.0
0
LINE
8
TOP_HID
6
HIDDEN
10
0.691714
20
0.013045
30
0.0
11
0.690877
21
0.013093
31
0.0
0
LINE
8
TOP_HID
6
HIDDEN
10
0.690877
20
0.013093
30
0.0
11
0.690040
21
0.013141
31
0.0
0
LINE
8
TOP_HID
6
HIDDEN
10
0.690040
20
0.013141
30
0.0
11
0.689204
21
0.013191
31
0.0
0
LINE
8
TOP_HID
6
HIDDEN
10
0.689204
20
0.013191
30
0.0
11
0.688367
21
0.013241
31
0.0
0
LINE
8
TOP_HID
6
HIDDEN
10
0.688367
20
0.013241
30
0.0
11
0.687531
21
0.013292
31
0.0
0
LINE
8
TOP_HID
6
HIDDEN
10
0.687531
20
0.013292
30
0.0
11
0.686694
21
0.013345
31
0.0
0
LINE
8
TOP_HID
6
HIDDEN
10
0.686694
20
0.013345
30
0.0
11
0.685858
21
0.013398
31
0.0
0
LINE
8
TOP_HID
6
HIDDEN
10
0.685858
20
0.013398
30
0.0
11
0.685021
21
0.013453
31
0.0
0
LINE
8
TOP_HID
6
HIDDEN
10
0.685021
20
0.013453
30
0.0
11
0.684185
21
0.013508
31
0.0
0
LINE
8
TOP_HID
6
HIDDEN
10
0.684185
20
0.013508
30
0.0
11
0.683349
21
0.013564
31
0.0
0
LINE
8
TOP_HID
6
HIDDEN
10
0.683349
20
0.013564
30
0.0
11
0.682512
21
0.013621
31
0.0
0
LINE
8
TOP_HID
6
HIDDEN
10
0.682512
20
0.013621
30
0.0
11
0.681676
21
0.013680
31
0.0
0
LINE
8
TOP_HID
6
HIDDEN
10
0.681676
20
0.013680
30
0.0
11
0.680840
21
0.013739
31
0.0
0
LINE
8
TOP_HID
6
HIDDEN
10
0.680840
20
0.013739
30
0.0
11
0.680004
21
0.013799
31
0.0
0
LINE
8
TOP_HID
6
HIDDEN
10
0.680004
20
0.013799
30
0.0
11
0.679168
21
0.013860
31
0.0
0
LINE
8
TOP_HID
6
HIDDEN
10
0.764229
20
1.513054
30
0.0
11
0.766530
21
1.513054
31
0.0
0
LINE
8
TOP_HID
6
HIDDEN
10
0.764994
20
1.402476
30
0.0
11
0.767294
21
1.402476
31
0.0
0
LINE
8
TOP_HID
6
HIDDEN
10
0.731160
20
0.122494
30
0.0
11
0.733460
21
0.122494
31
0.0
0
LINE
8
TOP_HID
6
HIDDEN
10
0.731924
20
0.011917
30
0.0
11
0.734225
21
0.011917
31
0.0
0
ENDSEC
0
EOF
