0
SECTION
2
HEADER
9
$ACADVER
1
AC1009
0
ENDSEC
0
SECTION
2
TABLES
0
TABLE
2
LTYPE
70
3
0
LTYPE
2
CONTINUOUS
70
0
3
Solid line
72
65
73
0
40
0.0
0
LTYPE
2
HIDDEN
70
0
3
__ __ __ __ __
72
65
73
2
40
0.031641
49
0.021104
49
-0.010536
0
LTYPE
2
CENTER
70
0
3
___ _ ___ _ ___
72
65
73
4
40
0.073818
49
0.042177
49
-0.010536
49
0.010536
49
-0.010536
0
ENDTAB
0
TABLE
2
LAYER
70
6
0
LAYER
2
0
70
0
62
7
6
CONTINUOUS
0
LAYER
2
FRONT
70
0
62
7
6
CONTINUOUS
0
LAYER
2
FRONT_HID
70
0
62
7
6
HIDDEN
0
LAYER
2
LEFT
70
0
62
7
6
CONTINUOUS
0
LAYER
2
LEFT_HID
70
0
62
7
6
HIDDEN
0
LAYER
2
TOP
70
0
62
7
6
CONTINUOUS
0
ENDTAB
0
ENDSEC
0
SECTION
2
ENTITIES
0
LINE
8
FRONT
10
0.632812
20
0.759375
30
0.0
11
0.632812
21
1.392187
31
0.0
0
LINE
8
FRONT
10
0.632812
20
1.392187
30
0.0
11
0.000000
21
1.392187
31
0.0
0
LINE
8
FRONT
10
0.000000
20
0.759375
30
0.0
11
0.000000
21
1.392187
31
0.0
0
LINE
8
FRONT
10
0.632812
20
0.759375
30
0.0
11
0.000000
21
0.759375
31
0.0
0
LINE
8
FRONT_HID
6
HIDDEN
10
0.006661
20
0.759375
30
0.0
11
0.006661
21
1.392187
31
0.0
0
LINE
8
FRONT_HID
6
HIDDEN
10
0.006661
20
1.392187
30
0.0
11
0.626151
21
1.392187
31
0.0
0
LINE
8
FRONT_HID
6
HIDDEN
10
0.626151
20
0.759375
30
0.0
11
0.626151
21
1.392187
31
0.0
0
LINE
8
FRONT_HID
6
HIDDEN
10
0.006661
20
0.759375
30
0.0
11
0.626151
21
0.759375
31
0.0
0
LINE
8
FRONT_HID
6
HIDDEN
10
0.626151
20
0.759375
30
0.0
11
0.626151
21
1.392187
31
0.0
0
LINE
8
FRONT_HID
6
HIDDEN
10
0.626151
20
1.392187
30
0.0
11
0.006661
21
1.392187
31
0.0
0
LINE
8
FRONT_HID
6
HIDDEN
10
0.006661
20
0.759375
30
0.0
11
0.006661
21
1.392187
31
0.0
0
LINE
8
FRONT_HID
6
HIDDEN
10
0.626151
20
0.759375
30
0.0
11
0.006661
21
0.759375
31
0.0
0
LINE
8
LEFT
10
1.392187
20
0.759375
30
0.0
11
1.392187
21
1.392187
31
0.0
0
LINE
8
LEFT
10
0.759375
20
0.759375
30
0.0
11
0.759375
21
1.392187
31
0.0
0
LINE
8
LEFT
10
0.759375
20
1.392187
30
0.0
11
1.392187
21
1.392187
31
0.0
0
LINE
8
LEFT
10
0.759375
20
0.759375
30
0.0
11
1.392187
21
0.759375
31
0.0
0
LINE
8
LEFT_HID
6
HIDDEN
10
1.385526
20
0.759375
30
0.0
11
1.385526
21
1.392187
31
0.0
0
LINE
8
LEFT_HID
6
HIDDEN
10
1.385526
20
0.759375
30
0.0
11
1.385526
21
1.392187
31
0.0
0
LINE
8
LEFT_HID
6
HIDDEN
10
1.385526
20
1.392187
30
0.0
11
0.766036
21
1.392187
31
0.0
0
LINE
8
LEFT_HID
6
HIDDEN
10
0.766036
20
0.759375
30
0.0
11
0.766036
21
1.392187
31
0.0
0
LINE
8
LEFT_HID
6
HIDDEN
10
1.385526
20
0.759375
30
0.0
11
0.766036
21
0.759375
31
0.0
0
LINE
8
LEFT_HID
6
HIDDEN
10
0.766036
20
0.759375
30
0.0
11
0.766036
21
1.392187
31
0.0
0
LINE
8
LEFT_HID
6
HIDDEN
10
0.766036
20
1.392187
30
0.0
11
1.385526
21
1.392187
31
0.0
0
LINE
8
LEFT_HID
6
HIDDEN
10
0.766036
20
0.759375
30
0.0
11
1.385526
21
0.759375
31
0.0
0
LINE
8
TOP
10
0.000000
20
0.000000
30
0.0
11
0.632812
21
0.000000
31
0.0
0
LINE
8
TOP
10
0.632812
20
0.000000
30
0.0
11
0.632812
21
0.632812
31
0.0
0
LINE
8
TOP
10
0.632812
20
0.632812
30
0.0
11
0.000000
21
0.632812
31
0.0
0
LINE
8
TOP
10
0.000000
20
0.632812
30
0.0
11
0.000000
21
0.000000
31
0.0
0
LINE
8
TOP
10
0.006661
20
0.006661
30
0.0
11
0.626151
21
0.006661
31
0.0
0
LINE
8
TOP
10
0.626151
20
0.006661
30
0.0
11
0.626151
21
0.626151
31
0.0
0
LINE
8
TOP
10
0.626151
20
0.626151
30
0.0
11
0.006661
21
0.626151
31
0.0
0
LINE
8
TOP
10
0.006661
20
0.626151
30
0.0
11
0.006661
21
0.006661
31
0.0
0
ENDSEC
0
EOF
