0
SECTION
2
HEADER
9
$ACADVER
1
AC1009
0
ENDSEC
0
SECTION
2
TABLES
0
TABLE
2
LTYPE
70
3
0
LTYPE
2
CONTINUOUS
70
0
3
Solid line
72
65
73
0
40
0.0
0
LTYPE
2
HIDDEN
70
0
3
__ __ __ __ __
72
65
73
2
40
0.037500
49
0.025013
49
-0.012488
0
LTYPE
2
CENTER
70
0
3
___ _ ___ _ ___
72
65
73
4
40
0.087488
49
0.049988
49
-0.012488
49
0.012488
49
-0.012488
0
ENDTAB
0
TABLE
2
LAYER
70
7
0
LAYER
2
0
70
0
62
7
6
CONTINUOUS
0
LAYER
2
FRONT
70
0
62
7
6
CONTINUOUS
0
LAYER
2
FRONT_HID
70
0
62
7
6
HIDDEN
0
LAYER
2
LEFT
70
0
62
7
6
CONTINUOUS
0
LAYER
2
LEFT_HID
70
0
62
7
6
HIDDEN
0
LAYER
2
TOP
70
0
62
7
6
CONTINUOUS
0
LAYER
2
TOP_HID
70
0
62
7
6
HIDDEN
0
ENDTAB
0
ENDSEC
0
SECTION
2
ENTITIES
0
LINE
8
FRONT
10
0.014930
20
0.919666
30
0.0
11
0.014450
21
0.920317
31
0.0
0
LINE
8
FRONT
10
0.014450
20
0.920317
30
0.0
11
0.013983
21
0.920978
31
0.0
0
LINE
8
FRONT
10
0.013983
20
0.920978
30
0.0
11
0.013530
21
0.921648
31
0.0
0
LINE
8
FRONT
10
0.013530
20
0.921648
30
0.0
11
0.013090
21
0.922328
31
0.0
0
LINE
8
FRONT
10
0.013090
20
0.922328
30
0.0
11
0.012665
21
0.923016
31
0.0
0
LINE
8
FRONT
10
0.012665
20
0.923016
30
0.0
11
0.012254
21
0.923713
31
0.0
0
LINE
8
FRONT
10
0.012254
20
0.923713
30
0.0
11
0.011857
21
0.924418
31
0.0
0
LINE
8
FRONT
10
0.011857
20
0.924418
30
0.0
11
0.011475
21
0.925132
31
0.0
0
LINE
8
FRONT
10
0.011475
20
0.925132
30
0.0
11
0.011107
21
0.925853
31
0.0
0
LINE
8
FRONT
10
0.011107
20
0.925853
30
0.0
11
0.010754
21
0.926581
31
0.0
0
LINE
8
FRONT
10
0.010754
20
0.926581
30
0.0
11
0.010417
21
0.927316
31
0.0
0
LINE
8
FRONT
10
0.010417
20
0.927316
30
0.0
11
0.010094
21
0.928058
31
0.0
0
LINE
8
FRONT
10
0.010094
20
0.928058
30
0.0
11
0.009787
21
0.928807
31
0.0
0
LINE
8
FRONT
10
0.009787
20
0.928807
30
0.0
11
0.009495
21
0.929562
31
0.0
0
LINE
8
FRONT
10
0.009495
20
0.929562
30
0.0
11
0.009219
21
0.930322
31
0.0
0
LINE
8
FRONT
10
0.009219
20
0.930322
30
0.0
11
0.008958
21
0.931088
31
0.0
0
LINE
8
FRONT
10
0.008958
20
0.931088
30
0.0
11
0.008713
21
0.931860
31
0.0
0
LINE
8
FRONT
10
0.008713
20
0.931860
30
0.0
11
0.008484
21
0.932636
31
0.0
0
LINE
8
FRONT
10
0.008484
20
0.932636
30
0.0
11
0.008271
21
0.933416
31
0.0
0
LINE
8
FRONT
10
0.008271
20
0.933416
30
0.0
11
0.008074
21
0.934201
31
0.0
0
LINE
8
FRONT
10
0.008074
20
0.934201
30
0.0
11
0.007893
21
0.934990
31
0.0
0
LINE
8
FRONT
10
0.007893
20
0.934990
30
0.0
11
0.007728
21
0.935782
31
0.0
0
LINE
8
FRONT
10
0.007728
20
0.935782
30
0.0
11
0.007580
21
0.936578
31
0.0
0
LINE
8
FRONT
10
0.007580
20
0.936578
30
0.0
11
0.007448
21
0.937376
31
0.0
0
LINE
8
FRONT
10
0.007448
20
0.937376
30
0.0
11
0.007332
21
0.938177
31
0.0
0
LINE
8
FRONT
10
0.007332
20
0.938177
30
0.0
11
0.007233
21
0.938980
31
0.0
0
LINE
8
FRONT
10
0.007233
20
0.938980
30
0.0
11
0.007150
21
0.939785
31
0.0
0
LINE
8
FRONT
10
0.007150
20
0.939785
30
0.0
11
0.007084
21
0.940591
31
0.0
0
LINE
8
FRONT
10
0.007084
20
0.940591
30
0.0
11
0.007034
21
0.941399
31
0.0
0
LINE
8
FRONT
10
0.007034
20
0.941399
30
0.0
11
0.007001
21
0.942207
31
0.0
0
LINE
8
FRONT
10
0.007001
20
0.942207
30
0.0
11
0.006984
21
0.943016
31
0.0
0
LINE
8
FRONT
10
0.006984
20
0.943016
30
0.0
11
0.006984
21
0.943826
31
0.0
0
LINE
8
FRONT
10
0.006984
20
0.943826
30
0.0
11
0.007001
21
0.944635
31
0.0
0
LINE
8
FRONT
10
0.007001
20
0.944635
30
0.0
11
0.007034
21
0.945443
31
0.0
0
LINE
8
FRONT
10
0.007034
20
0.945443
30
0.0
11
0.007084
21
0.946251
31
0.0
0
LINE
8
FRONT
10
0.007084
20
0.946251
30
0.0
11
0.007150
21
0.947057
31
0.0
0
LINE
8
FRONT
10
0.007150
20
0.947057
30
0.0
11
0.007233
21
0.947862
31
0.0
0
LINE
8
FRONT
10
0.007233
20
0.947862
30
0.0
11
0.007332
21
0.948665
31
0.0
0
LINE
8
FRONT
10
0.007332
20
0.948665
30
0.0
11
0.007448
21
0.949466
31
0.0
0
LINE
8
FRONT
10
0.007448
20
0.949466
30
0.0
11
0.007580
21
0.950265
31
0.0
0
LINE
8
FRONT
10
0.007580
20
0.950265
30
0.0
11
0.007728
21
0.951060
31
0.0
0
LINE
8
FRONT
10
0.007728
20
0.951060
30
0.0
11
0.007893
21
0.951852
31
0.0
0
LINE
8
FRONT
10
0.007893
20
0.951852
30
0.0
11
0.008074
21
0.952641
31
0.0
0
LINE
8
FRONT
10
0.008074
20
0.952641
30
0.0
11
0.008271
21
0.953426
31
0.0
0
LINE
8
FRONT
10
0.008271
20
0.953426
30
0.0
11
0.008484
21
0.954206
31
0.0
0
LINE
8
FRONT
10
0.008484
20
0.954206
30
0.0
11
0.008713
21
0.954983
31
0.0
0
LINE
8
FRONT
10
0.008713
20
0.954983
30
0.0
11
0.008958
21
0.955754
31
0.0
0
LINE
8
FRONT
10
0.008958
20
0.955754
30
0.0
11
0.009219
21
0.956520
31
0.0
0
LINE
8
FRONT
10
0.009219
20
0.956520
30
0.0
11
0.009495
21
0.957280
31
0.0
0
LINE
8
FRONT
10
0.009495
20
0.957280
30
0.0
11
0.009787
21
0.958035
31
0.0
0
LINE
8
FRONT
10
0.009787
20
0.958035
30
0.0
11
0.010094
21
0.958784
31
0.0
0
LINE
8
FRONT
10
0.010094
20
0.958784
30
0.0
11
0.010417
21
0.959526
31
0.0
0
LINE
8
FRONT
10
0.010417
20
0.959526
30
0.0
11
0.010754
21
0.960261
31
0.0
0
LINE
8
FRONT
10
0.010754
20
0.960261
30
0.0
11
0.011107
21
0.960990
31
0.0
0
LINE
8
FRONT
10
0.011107
20
0.960990
30
0.0
11
0.011475
21
0.961710
31
0.0
0
LINE
8
FRONT
10
0.011475
20
0.961710
30
0.0
11
0.011857
21
0.962424
31
0.0
0
LINE
8
FRONT
10
0.011857
20
0.962424
30
0.0
11
0.012254
21
0.963129
31
0.0
0
LINE
8
FRONT
10
0.012254
20
0.963129
30
0.0
11
0.012665
21
0.963826
31
0.0
0
LINE
8
FRONT
10
0.012665
20
0.963826
30
0.0
11
0.013090
21
0.964514
31
0.0
0
LINE
8
FRONT
10
0.013090
20
0.964514
30
0.0
11
0.013530
21
0.965194
31
0.0
0
LINE
8
FRONT
10
0.013530
20
0.965194
30
0.0
11
0.013983
21
0.965864
31
0.0
0
LINE
8
FRONT
10
0.013983
20
0.965864
30
0.0
11
0.014450
21
0.966525
31
0.0
0
LINE
8
FRONT
10
0.014450
20
0.966525
30
0.0
11
0.014930
21
0.967176
31
0.0
0
LINE
8
FRONT
10
0.043413
20
0.900000
30
0.0
11
0.047736
21
0.900216
31
0.0
0
LINE
8
FRONT
10
0.047736
20
0.900216
30
0.0
11
0.052017
21
0.900861
31
0.0
0
LINE
8
FRONT
10
0.052017
20
0.900861
30
0.0
11
0.056211
21
0.901929
31
0.0
0
LINE
8
FRONT
10
0.056211
20
0.901929
30
0.0
11
0.060279
21
0.903410
31
0.0
0
LINE
8
FRONT
10
0.060279
20
0.903410
30
0.0
11
0.064179
21
0.905288
31
0.0
0
LINE
8
FRONT
10
0.064179
20
0.905288
30
0.0
11
0.067873
21
0.907545
31
0.0
0
LINE
8
FRONT
10
0.067873
20
0.907545
30
0.0
11
0.071323
21
0.910159
31
0.0
0
LINE
8
FRONT
10
0.071323
20
0.910159
30
0.0
11
0.074497
21
0.913103
31
0.0
0
LINE
8
FRONT
10
0.074497
20
0.913103
30
0.0
11
0.077361
21
0.916348
31
0.0
0
LINE
8
FRONT
10
0.077361
20
0.916348
30
0.0
11
0.079888
21
0.919863
31
0.0
0
LINE
8
FRONT
10
0.079888
20
0.919863
30
0.0
11
0.082052
21
0.923612
31
0.0
0
LINE
8
FRONT
10
0.082052
20
0.923612
30
0.0
11
0.083832
21
0.927558
31
0.0
0
LINE
8
FRONT
10
0.083832
20
0.927558
30
0.0
11
0.085211
21
0.931661
31
0.0
0
LINE
8
FRONT
10
0.085211
20
0.931661
30
0.0
11
0.086174
21
0.935881
31
0.0
0
LINE
8
FRONT
10
0.086174
20
0.935881
30
0.0
11
0.086713
21
0.940176
31
0.0
0
LINE
8
FRONT
10
0.086713
20
0.940176
30
0.0
11
0.086820
21
0.944504
31
0.0
0
LINE
8
FRONT
10
0.086820
20
0.944504
30
0.0
11
0.086497
21
0.948820
31
0.0
0
LINE
8
FRONT
10
0.086497
20
0.948820
30
0.0
11
0.085745
21
0.953083
31
0.0
0
LINE
8
FRONT
10
0.085745
20
0.953083
30
0.0
11
0.084573
21
0.957250
31
0.0
0
LINE
8
FRONT
10
0.084573
20
0.957250
30
0.0
11
0.082991
21
0.961280
31
0.0
0
LINE
8
FRONT
10
0.082991
20
0.961280
30
0.0
11
0.081017
21
0.965132
31
0.0
0
LINE
8
FRONT
10
0.081017
20
0.965132
30
0.0
11
0.078668
21
0.968768
31
0.0
0
LINE
8
FRONT
10
0.078668
20
0.968768
30
0.0
11
0.075969
21
0.972152
31
0.0
0
LINE
8
FRONT
10
0.075969
20
0.972152
30
0.0
11
0.072947
21
0.975251
31
0.0
0
LINE
8
FRONT
10
0.072947
20
0.975251
30
0.0
11
0.069631
21
0.978033
31
0.0
0
LINE
8
FRONT
10
0.069631
20
0.978033
30
0.0
11
0.066054
21
0.980472
31
0.0
0
LINE
8
FRONT
10
0.066054
20
0.980472
30
0.0
11
0.062253
21
0.982542
31
0.0
0
LINE
8
FRONT
10
0.062253
20
0.982542
30
0.0
11
0.058264
21
0.984223
31
0.0
0
LINE
8
FRONT
10
0.058264
20
0.984223
30
0.0
11
0.054127
21
0.985499
31
0.0
0
LINE
8
FRONT
10
0.054127
20
0.985499
30
0.0
11
0.049884
21
0.986357
31
0.0
0
LINE
8
FRONT
10
0.049884
20
0.986357
30
0.0
11
0.045577
21
0.986788
31
0.0
0
LINE
8
FRONT
10
0.045577
20
0.986788
30
0.0
11
0.041249
21
0.986788
31
0.0
0
LINE
8
FRONT
10
0.041249
20
0.986788
30
0.0
11
0.036941
21
0.986357
31
0.0
0
LINE
8
FRONT
10
0.036941
20
0.986357
30
0.0
11
0.032698
21
0.985499
31
0.0
0
LINE
8
FRONT
10
0.032698
20
0.985499
30
0.0
11
0.028562
21
0.984223
31
0.0
0
LINE
8
FRONT
10
0.028562
20
0.984223
30
0.0
11
0.024573
21
0.982542
31
0.0
0
LINE
8
FRONT
10
0.024573
20
0.982542
30
0.0
11
0.020772
21
0.980472
31
0.0
0
LINE
8
FRONT
10
0.020772
20
0.980472
30
0.0
11
0.017195
21
0.978033
31
0.0
0
LINE
8
FRONT
10
0.017195
20
0.978033
30
0.0
11
0.013879
21
0.975251
31
0.0
0
LINE
8
FRONT
10
0.013879
20
0.975251
30
0.0
11
0.010857
21
0.972152
31
0.0
0
LINE
8
FRONT
10
0.010857
20
0.972152
30
0.0
11
0.008158
21
0.968768
31
0.0
0
LINE
8
FRONT
10
0.008158
20
0.968768
30
0.0
11
0.005809
21
0.965132
31
0.0
0
LINE
8
FRONT
10
0.005809
20
0.965132
30
0.0
11
0.003834
21
0.961280
31
0.0
0
LINE
8
FRONT
10
0.003834
20
0.961280
30
0.0
11
0.002253
21
0.957250
31
0.0
0
LINE
8
FRONT
10
0.002253
20
0.957250
30
0.0
11
0.001080
21
0.953083
31
0.0
0
LINE
8
FRONT
10
0.001080
20
0.953083
30
0.0
11
0.000329
21
0.948820
31
0.0
0
LINE
8
FRONT
10
0.000329
20
0.948820
30
0.0
11
0.000005
21
0.944504
31
0.0
0
LINE
8
FRONT
10
0.000005
20
0.944504
30
0.0
11
0.000113
21
0.940176
31
0.0
0
LINE
8
FRONT
10
0.000113
20
0.940176
30
0.0
11
0.000651
21
0.935881
31
0.0
0
LINE
8
FRONT
10
0.000651
20
0.935881
30
0.0
11
0.001615
21
0.931661
31
0.0
0
LINE
8
FRONT
10
0.001615
20
0.931661
30
0.0
11
0.002993
21
0.927558
31
0.0
0
LINE
8
FRONT
10
0.002993
20
0.927558
30
0.0
11
0.004774
21
0.923612
31
0.0
0
LINE
8
FRONT
10
0.004774
20
0.923612
30
0.0
11
0.006938
21
0.919863
31
0.0
0
LINE
8
FRONT
10
0.006938
20
0.919863
30
0.0
11
0.009465
21
0.916348
31
0.0
0
LINE
8
FRONT
10
0.009465
20
0.916348
30
0.0
11
0.012329
21
0.913103
31
0.0
0
LINE
8
FRONT
10
0.012329
20
0.913103
30
0.0
11
0.015502
21
0.910159
31
0.0
0
LINE
8
FRONT
10
0.015502
20
0.910159
30
0.0
11
0.018953
21
0.907545
31
0.0
0
LINE
8
FRONT
10
0.018953
20
0.907545
30
0.0
11
0.022647
21
0.905288
31
0.0
0
LINE
8
FRONT
10
0.022647
20
0.905288
30
0.0
11
0.026547
21
0.903410
31
0.0
0
LINE
8
FRONT
10
0.026547
20
0.903410
30
0.0
11
0.030614
21
0.901929
31
0.0
0
LINE
8
FRONT
10
0.030614
20
0.901929
30
0.0
11
0.034809
21
0.900861
31
0.0
0
LINE
8
FRONT
10
0.034809
20
0.900861
30
0.0
11
0.039090
21
0.900216
31
0.0
0
LINE
8
FRONT
10
0.039090
20
0.900216
30
0.0
11
0.043413
21
0.900000
31
0.0
0
LINE
8
FRONT
10
0.014930
20
0.967176
30
0.0
11
0.014413
21
0.966542
31
0.0
0
LINE
8
FRONT
10
0.014413
20
0.966542
30
0.0
11
0.013910
21
0.965896
31
0.0
0
LINE
8
FRONT
10
0.013910
20
0.965896
30
0.0
11
0.013421
21
0.965240
31
0.0
0
LINE
8
FRONT
10
0.013421
20
0.965240
30
0.0
11
0.012947
21
0.964573
31
0.0
0
LINE
8
FRONT
10
0.012947
20
0.964573
30
0.0
11
0.012487
21
0.963895
31
0.0
0
LINE
8
FRONT
10
0.012487
20
0.963895
30
0.0
11
0.012043
21
0.963208
31
0.0
0
LINE
8
FRONT
10
0.012043
20
0.963208
30
0.0
11
0.011614
21
0.962511
31
0.0
0
LINE
8
FRONT
10
0.011614
20
0.962511
30
0.0
11
0.011201
21
0.961805
31
0.0
0
LINE
8
FRONT
10
0.011201
20
0.961805
30
0.0
11
0.010803
21
0.961089
31
0.0
0
LINE
8
FRONT
10
0.010803
20
0.961089
30
0.0
11
0.010421
21
0.960365
31
0.0
0
LINE
8
FRONT
10
0.010421
20
0.960365
30
0.0
11
0.010055
21
0.959633
31
0.0
0
LINE
8
FRONT
10
0.010055
20
0.959633
30
0.0
11
0.009705
21
0.958893
31
0.0
0
LINE
8
FRONT
10
0.009705
20
0.958893
30
0.0
11
0.009372
21
0.958146
31
0.0
0
LINE
8
FRONT
10
0.009372
20
0.958146
30
0.0
11
0.009056
21
0.957391
31
0.0
0
LINE
8
FRONT
10
0.009056
20
0.957391
30
0.0
11
0.008756
21
0.956629
31
0.0
0
LINE
8
FRONT
10
0.008756
20
0.956629
30
0.0
11
0.008473
21
0.955861
31
0.0
0
LINE
8
FRONT
10
0.008473
20
0.955861
30
0.0
11
0.008207
21
0.955087
31
0.0
0
LINE
8
FRONT
10
0.008207
20
0.955087
30
0.0
11
0.007958
21
0.954308
31
0.0
0
LINE
8
FRONT
10
0.007958
20
0.954308
30
0.0
11
0.007726
21
0.953523
31
0.0
0
LINE
8
FRONT
10
0.007726
20
0.953523
30
0.0
11
0.007512
21
0.952733
31
0.0
0
LINE
8
FRONT
10
0.007512
20
0.952733
30
0.0
11
0.007315
21
0.951938
31
0.0
0
LINE
8
FRONT
10
0.007315
20
0.951938
30
0.0
11
0.007136
21
0.951140
31
0.0
0
LINE
8
FRONT
10
0.007136
20
0.951140
30
0.0
11
0.006975
21
0.950337
31
0.0
0
LINE
8
FRONT
10
0.006975
20
0.950337
30
0.0
11
0.006831
21
0.949532
31
0.0
0
LINE
8
FRONT
10
0.006831
20
0.949532
30
0.0
11
0.006705
21
0.948723
31
0.0
0
LINE
8
FRONT
10
0.006705
20
0.948723
30
0.0
11
0.006597
21
0.947912
31
0.0
0
LINE
8
FRONT
10
0.006597
20
0.947912
30
0.0
11
0.006507
21
0.947098
31
0.0
0
LINE
8
FRONT
10
0.006507
20
0.947098
30
0.0
11
0.006435
21
0.946283
31
0.0
0
LINE
8
FRONT
10
0.006435
20
0.946283
30
0.0
11
0.006381
21
0.945466
31
0.0
0
LINE
8
FRONT
10
0.006381
20
0.945466
30
0.0
11
0.006344
21
0.944649
31
0.0
0
LINE
8
FRONT
10
0.006344
20
0.944649
30
0.0
11
0.006326
21
0.943830
31
0.0
0
LINE
8
FRONT
10
0.006326
20
0.943830
30
0.0
11
0.006326
21
0.943012
31
0.0
0
LINE
8
FRONT
10
0.006326
20
0.943012
30
0.0
11
0.006344
21
0.942194
31
0.0
0
LINE
8
FRONT
10
0.006344
20
0.942194
30
0.0
11
0.006381
21
0.941376
31
0.0
0
LINE
8
FRONT
10
0.006381
20
0.941376
30
0.0
11
0.006435
21
0.940559
31
0.0
0
LINE
8
FRONT
10
0.006435
20
0.940559
30
0.0
11
0.006507
21
0.939744
31
0.0
0
LINE
8
FRONT
10
0.006507
20
0.939744
30
0.0
11
0.006597
21
0.938930
31
0.0
0
LINE
8
FRONT
10
0.006597
20
0.938930
30
0.0
11
0.006705
21
0.938119
31
0.0
0
LINE
8
FRONT
10
0.006705
20
0.938119
30
0.0
11
0.006831
21
0.937310
31
0.0
0
LINE
8
FRONT
10
0.006831
20
0.937310
30
0.0
11
0.006975
21
0.936505
31
0.0
0
LINE
8
FRONT
10
0.006975
20
0.936505
30
0.0
11
0.007136
21
0.935702
31
0.0
0
LINE
8
FRONT
10
0.007136
20
0.935702
30
0.0
11
0.007315
21
0.934904
31
0.0
0
LINE
8
FRONT
10
0.007315
20
0.934904
30
0.0
11
0.007512
21
0.934109
31
0.0
0
LINE
8
FRONT
10
0.007512
20
0.934109
30
0.0
11
0.007726
21
0.933319
31
0.0
0
LINE
8
FRONT
10
0.007726
20
0.933319
30
0.0
11
0.007958
21
0.932534
31
0.0
0
LINE
8
FRONT
10
0.007958
20
0.932534
30
0.0
11
0.008207
21
0.931755
31
0.0
0
LINE
8
FRONT
10
0.008207
20
0.931755
30
0.0
11
0.008473
21
0.930981
31
0.0
0
LINE
8
FRONT
10
0.008473
20
0.930981
30
0.0
11
0.008756
21
0.930213
31
0.0
0
LINE
8
FRONT
10
0.008756
20
0.930213
30
0.0
11
0.009056
21
0.929451
31
0.0
0
LINE
8
FRONT
10
0.009056
20
0.929451
30
0.0
11
0.009372
21
0.928696
31
0.0
0
LINE
8
FRONT
10
0.009372
20
0.928696
30
0.0
11
0.009705
21
0.927949
31
0.0
0
LINE
8
FRONT
10
0.009705
20
0.927949
30
0.0
11
0.010055
21
0.927209
31
0.0
0
LINE
8
FRONT
10
0.010055
20
0.927209
30
0.0
11
0.010421
21
0.926477
31
0.0
0
LINE
8
FRONT
10
0.010421
20
0.926477
30
0.0
11
0.010803
21
0.925753
31
0.0
0
LINE
8
FRONT
10
0.010803
20
0.925753
30
0.0
11
0.011201
21
0.925038
31
0.0
0
LINE
8
FRONT
10
0.011201
20
0.925038
30
0.0
11
0.011614
21
0.924331
31
0.0
0
LINE
8
FRONT
10
0.011614
20
0.924331
30
0.0
11
0.012043
21
0.923634
31
0.0
0
LINE
8
FRONT
10
0.012043
20
0.923634
30
0.0
11
0.012487
21
0.922947
31
0.0
0
LINE
8
FRONT
10
0.012487
20
0.922947
30
0.0
11
0.012947
21
0.922269
31
0.0
0
LINE
8
FRONT
10
0.012947
20
0.922269
30
0.0
11
0.013421
21
0.921602
31
0.0
0
LINE
8
FRONT
10
0.013421
20
0.921602
30
0.0
11
0.013910
21
0.920946
31
0.0
0
LINE
8
FRONT
10
0.013910
20
0.920946
30
0.0
11
0.014413
21
0.920300
31
0.0
0
LINE
8
FRONT
10
0.014413
20
0.920300
30
0.0
11
0.014930
21
0.919666
31
0.0
0
LINE
8
FRONT
10
0.051225
20
0.900000
30
0.0
11
0.053452
21
0.900057
31
0.0
0
LINE
8
FRONT
10
0.053452
20
0.900057
30
0.0
11
0.055672
21
0.900228
31
0.0
0
LINE
8
FRONT
10
0.055672
20
0.900228
30
0.0
11
0.057881
21
0.900513
31
0.0
0
LINE
8
FRONT
10
0.057881
20
0.900513
30
0.0
11
0.060072
21
0.900911
31
0.0
0
LINE
8
FRONT
10
0.060072
20
0.900911
30
0.0
11
0.062240
21
0.901420
31
0.0
0
LINE
8
FRONT
10
0.062240
20
0.901420
30
0.0
11
0.064379
21
0.902040
31
0.0
0
LINE
8
FRONT
10
0.064379
20
0.902040
30
0.0
11
0.066484
21
0.902769
31
0.0
0
LINE
8
FRONT
10
0.066484
20
0.902769
30
0.0
11
0.068548
21
0.903605
31
0.0
0
LINE
8
FRONT
10
0.068548
20
0.903605
30
0.0
11
0.070567
21
0.904546
31
0.0
0
LINE
8
FRONT
10
0.070567
20
0.904546
30
0.0
11
0.072535
21
0.905589
31
0.0
0
LINE
8
FRONT
10
0.072535
20
0.905589
30
0.0
11
0.074447
21
0.906731
31
0.0
0
LINE
8
FRONT
10
0.074447
20
0.906731
30
0.0
11
0.076297
21
0.907970
31
0.0
0
LINE
8
FRONT
10
0.076297
20
0.907970
30
0.0
11
0.078082
21
0.909302
31
0.0
0
LINE
8
FRONT
10
0.078082
20
0.909302
30
0.0
11
0.079796
21
0.910724
31
0.0
0
LINE
8
FRONT
10
0.079796
20
0.910724
30
0.0
11
0.081435
21
0.912232
31
0.0
0
LINE
8
FRONT
10
0.081435
20
0.912232
30
0.0
11
0.082995
21
0.913822
31
0.0
0
LINE
8
FRONT
10
0.082995
20
0.913822
30
0.0
11
0.084470
21
0.915490
31
0.0
0
LINE
8
FRONT
10
0.084470
20
0.915490
30
0.0
11
0.085859
21
0.917231
31
0.0
0
LINE
8
FRONT
10
0.085859
20
0.917231
30
0.0
11
0.087156
21
0.919041
31
0.0
0
LINE
8
FRONT
10
0.087156
20
0.919041
30
0.0
11
0.088359
21
0.920916
31
0.0
0
LINE
8
FRONT
10
0.088359
20
0.920916
30
0.0
11
0.089464
21
0.922849
31
0.0
0
LINE
8
FRONT
10
0.089464
20
0.922849
30
0.0
11
0.090468
21
0.924837
31
0.0
0
LINE
8
FRONT
10
0.090468
20
0.924837
30
0.0
11
0.091370
21
0.926874
31
0.0
0
LINE
8
FRONT
10
0.091370
20
0.926874
30
0.0
11
0.092165
21
0.928954
31
0.0
0
LINE
8
FRONT
10
0.092165
20
0.928954
30
0.0
11
0.092853
21
0.931072
31
0.0
0
LINE
8
FRONT
10
0.092853
20
0.931072
30
0.0
11
0.093432
21
0.933223
31
0.0
0
LINE
8
FRONT
10
0.093432
20
0.933223
30
0.0
11
0.093899
21
0.935400
31
0.0
0
LINE
8
FRONT
10
0.093899
20
0.935400
30
0.0
11
0.094254
21
0.937599
31
0.0
0
LINE
8
FRONT
10
0.094254
20
0.937599
30
0.0
11
0.094496
21
0.939813
31
0.0
0
LINE
8
FRONT
10
0.094496
20
0.939813
30
0.0
11
0.094624
21
0.942036
31
0.0
0
LINE
8
FRONT
10
0.094624
20
0.942036
30
0.0
11
0.094638
21
0.944263
31
0.0
0
LINE
8
FRONT
10
0.094638
20
0.944263
30
0.0
11
0.094538
21
0.946488
31
0.0
0
LINE
8
FRONT
10
0.094538
20
0.946488
30
0.0
11
0.094324
21
0.948705
31
0.0
0
LINE
8
FRONT
10
0.094324
20
0.948705
30
0.0
11
0.093996
21
0.950908
31
0.0
0
LINE
8
FRONT
10
0.093996
20
0.950908
30
0.0
11
0.093556
21
0.953091
31
0.0
0
LINE
8
FRONT
10
0.093556
20
0.953091
30
0.0
11
0.093005
21
0.955249
31
0.0
0
LINE
8
FRONT
10
0.093005
20
0.955249
30
0.0
11
0.092343
21
0.957375
31
0.0
0
LINE
8
FRONT
10
0.092343
20
0.957375
30
0.0
11
0.091574
21
0.959465
31
0.0
0
LINE
8
FRONT
10
0.091574
20
0.959465
30
0.0
11
0.090698
21
0.961513
31
0.0
0
LINE
8
FRONT
10
0.090698
20
0.961513
30
0.0
11
0.089718
21
0.963513
31
0.0
0
LINE
8
FRONT
10
0.089718
20
0.963513
30
0.0
11
0.088638
21
0.965460
31
0.0
0
LINE
8
FRONT
10
0.088638
20
0.965460
30
0.0
11
0.087458
21
0.967349
31
0.0
0
LINE
8
FRONT
10
0.087458
20
0.967349
30
0.0
11
0.086184
21
0.969176
31
0.0
0
LINE
8
FRONT
10
0.086184
20
0.969176
30
0.0
11
0.084817
21
0.970934
31
0.0
0
LINE
8
FRONT
10
0.084817
20
0.970934
30
0.0
11
0.083362
21
0.972621
31
0.0
0
LINE
8
FRONT
10
0.083362
20
0.972621
30
0.0
11
0.081823
21
0.974230
31
0.0
0
LINE
8
FRONT
10
0.081823
20
0.974230
30
0.0
11
0.080203
21
0.975758
31
0.0
0
LINE
8
FRONT
10
0.080203
20
0.975758
30
0.0
11
0.078507
21
0.977201
31
0.0
0
LINE
8
FRONT
10
0.078507
20
0.977201
30
0.0
11
0.076739
21
0.978556
31
0.0
0
LINE
8
FRONT
10
0.076739
20
0.978556
30
0.0
11
0.074904
21
0.979818
31
0.0
0
LINE
8
FRONT
10
0.074904
20
0.979818
30
0.0
11
0.073006
21
0.980984
31
0.0
0
LINE
8
FRONT
10
0.073006
20
0.980984
30
0.0
11
0.071052
21
0.982051
31
0.0
0
LINE
8
FRONT
10
0.071052
20
0.982051
30
0.0
11
0.069045
21
0.983017
31
0.0
0
LINE
8
FRONT
10
0.069045
20
0.983017
30
0.0
11
0.066991
21
0.983879
31
0.0
0
LINE
8
FRONT
10
0.066991
20
0.983879
30
0.0
11
0.064896
21
0.984634
31
0.0
0
LINE
8
FRONT
10
0.064896
20
0.984634
30
0.0
11
0.062765
21
0.985281
31
0.0
0
LINE
8
FRONT
10
0.062765
20
0.985281
30
0.0
11
0.060603
21
0.985817
31
0.0
0
LINE
8
FRONT
10
0.060603
20
0.985817
30
0.0
11
0.058417
21
0.986242
31
0.0
0
LINE
8
FRONT
10
0.058417
20
0.986242
30
0.0
11
0.056212
21
0.986555
31
0.0
0
LINE
8
FRONT
10
0.056212
20
0.986555
30
0.0
11
0.053994
21
0.986754
31
0.0
0
LINE
8
FRONT
10
0.053994
20
0.986754
30
0.0
11
0.051769
21
0.986839
31
0.0
0
LINE
8
FRONT
10
0.051769
20
0.986839
30
0.0
11
0.049542
21
0.986809
31
0.0
0
LINE
8
FRONT
10
0.049542
20
0.986809
30
0.0
11
0.047319
21
0.986666
31
0.0
0
LINE
8
FRONT
10
0.047319
20
0.900176
30
0.0
11
0.051225
21
0.900000
31
0.0
0
LINE
8
FRONT
10
0.071148
20
0.910012
30
0.0
11
0.072233
21
0.910684
31
0.0
0
LINE
8
FRONT
10
0.072233
20
0.910684
30
0.0
11
0.073295
21
0.911390
31
0.0
0
LINE
8
FRONT
10
0.073295
20
0.911390
30
0.0
11
0.074334
21
0.912131
31
0.0
0
LINE
8
FRONT
10
0.074334
20
0.912131
30
0.0
11
0.075347
21
0.912906
31
0.0
0
LINE
8
FRONT
10
0.075347
20
0.912906
30
0.0
11
0.076335
21
0.913713
31
0.0
0
LINE
8
FRONT
10
0.076335
20
0.913713
30
0.0
11
0.077296
21
0.914552
31
0.0
0
LINE
8
FRONT
10
0.077296
20
0.914552
30
0.0
11
0.078228
21
0.915423
31
0.0
0
LINE
8
FRONT
10
0.078228
20
0.915423
30
0.0
11
0.079132
21
0.916323
31
0.0
0
LINE
8
FRONT
10
0.079132
20
0.916323
30
0.0
11
0.080005
21
0.917253
31
0.0
0
LINE
8
FRONT
10
0.080005
20
0.917253
30
0.0
11
0.080848
21
0.918211
31
0.0
0
LINE
8
FRONT
10
0.080848
20
0.918211
30
0.0
11
0.081658
21
0.919195
31
0.0
0
LINE
8
FRONT
10
0.081658
20
0.919195
30
0.0
11
0.082436
21
0.920206
31
0.0
0
LINE
8
FRONT
10
0.082436
20
0.920206
30
0.0
11
0.083181
21
0.921242
31
0.0
0
LINE
8
FRONT
10
0.083181
20
0.921242
30
0.0
11
0.083891
21
0.922302
31
0.0
0
LINE
8
FRONT
10
0.083891
20
0.922302
30
0.0
11
0.084566
21
0.923384
31
0.0
0
LINE
8
FRONT
10
0.084566
20
0.923384
30
0.0
11
0.085205
21
0.924488
31
0.0
0
LINE
8
FRONT
10
0.085205
20
0.924488
30
0.0
11
0.085808
21
0.925613
31
0.0
0
LINE
8
FRONT
10
0.085808
20
0.925613
30
0.0
11
0.086373
21
0.926756
31
0.0
0
LINE
8
FRONT
10
0.086373
20
0.926756
30
0.0
11
0.086900
21
0.927918
31
0.0
0
LINE
8
FRONT
10
0.086900
20
0.927918
30
0.0
11
0.087390
21
0.929096
31
0.0
0
LINE
8
FRONT
10
0.087390
20
0.929096
30
0.0
11
0.087840
21
0.930289
31
0.0
0
LINE
8
FRONT
10
0.087840
20
0.930289
30
0.0
11
0.088251
21
0.931497
31
0.0
0
LINE
8
FRONT
10
0.088251
20
0.931497
30
0.0
11
0.088622
21
0.932718
31
0.0
0
LINE
8
FRONT
10
0.088622
20
0.932718
30
0.0
11
0.088953
21
0.933950
31
0.0
0
LINE
8
FRONT
10
0.088953
20
0.933950
30
0.0
11
0.089243
21
0.935192
31
0.0
0
LINE
8
FRONT
10
0.089243
20
0.935192
30
0.0
11
0.089492
21
0.936443
31
0.0
0
LINE
8
FRONT
10
0.089492
20
0.936443
30
0.0
11
0.089701
21
0.937701
31
0.0
0
LINE
8
FRONT
10
0.089701
20
0.937701
30
0.0
11
0.089867
21
0.938966
31
0.0
0
LINE
8
FRONT
10
0.089867
20
0.938966
30
0.0
11
0.089993
21
0.940235
31
0.0
0
LINE
8
FRONT
10
0.089993
20
0.940235
30
0.0
11
0.090076
21
0.941508
31
0.0
0
LINE
8
FRONT
10
0.090076
20
0.941508
30
0.0
11
0.090118
21
0.942783
31
0.0
0
LINE
8
FRONT
10
0.090118
20
0.942783
30
0.0
11
0.090118
21
0.944059
31
0.0
0
LINE
8
FRONT
10
0.090118
20
0.944059
30
0.0
11
0.090076
21
0.945334
31
0.0
0
LINE
8
FRONT
10
0.090076
20
0.945334
30
0.0
11
0.089993
21
0.946607
31
0.0
0
LINE
8
FRONT
10
0.089993
20
0.946607
30
0.0
11
0.089867
21
0.947876
31
0.0
0
LINE
8
FRONT
10
0.089867
20
0.947876
30
0.0
11
0.089701
21
0.949141
31
0.0
0
LINE
8
FRONT
10
0.089701
20
0.949141
30
0.0
11
0.089492
21
0.950399
31
0.0
0
LINE
8
FRONT
10
0.089492
20
0.950399
30
0.0
11
0.089243
21
0.951650
31
0.0
0
LINE
8
FRONT
10
0.089243
20
0.951650
30
0.0
11
0.088953
21
0.952893
31
0.0
0
LINE
8
FRONT
10
0.088953
20
0.952893
30
0.0
11
0.088622
21
0.954125
31
0.0
0
LINE
8
FRONT
10
0.088622
20
0.954125
30
0.0
11
0.088251
21
0.955345
31
0.0
0
LINE
8
FRONT
10
0.088251
20
0.955345
30
0.0
11
0.087840
21
0.956553
31
0.0
0
LINE
8
FRONT
10
0.087840
20
0.956553
30
0.0
11
0.087390
21
0.957746
31
0.0
0
LINE
8
FRONT
10
0.087390
20
0.957746
30
0.0
11
0.086900
21
0.958924
31
0.0
0
LINE
8
FRONT
10
0.086900
20
0.958924
30
0.0
11
0.086373
21
0.960086
31
0.0
0
LINE
8
FRONT
10
0.086373
20
0.960086
30
0.0
11
0.085808
21
0.961229
31
0.0
0
LINE
8
FRONT
10
0.085808
20
0.961229
30
0.0
11
0.085205
21
0.962354
31
0.0
0
LINE
8
FRONT
10
0.085205
20
0.962354
30
0.0
11
0.084566
21
0.963458
31
0.0
0
LINE
8
FRONT
10
0.084566
20
0.963458
30
0.0
11
0.083891
21
0.964540
31
0.0
0
LINE
8
FRONT
10
0.083891
20
0.964540
30
0.0
11
0.083181
21
0.965600
31
0.0
0
LINE
8
FRONT
10
0.083181
20
0.965600
30
0.0
11
0.082436
21
0.966636
31
0.0
0
LINE
8
FRONT
10
0.082436
20
0.966636
30
0.0
11
0.081658
21
0.967647
31
0.0
0
LINE
8
FRONT
10
0.081658
20
0.967647
30
0.0
11
0.080848
21
0.968632
31
0.0
0
LINE
8
FRONT
10
0.080848
20
0.968632
30
0.0
11
0.080005
21
0.969589
31
0.0
0
LINE
8
FRONT
10
0.080005
20
0.969589
30
0.0
11
0.079132
21
0.970519
31
0.0
0
LINE
8
FRONT
10
0.079132
20
0.970519
30
0.0
11
0.078228
21
0.971419
31
0.0
0
LINE
8
FRONT
10
0.078228
20
0.971419
30
0.0
11
0.077296
21
0.972290
31
0.0
0
LINE
8
FRONT
10
0.077296
20
0.972290
30
0.0
11
0.076335
21
0.973129
31
0.0
0
LINE
8
FRONT
10
0.076335
20
0.973129
30
0.0
11
0.075347
21
0.973936
31
0.0
0
LINE
8
FRONT
10
0.075347
20
0.973936
30
0.0
11
0.074334
21
0.974711
31
0.0
0
LINE
8
FRONT
10
0.074334
20
0.974711
30
0.0
11
0.073295
21
0.975452
31
0.0
0
LINE
8
FRONT
10
0.073295
20
0.975452
30
0.0
11
0.072233
21
0.976158
31
0.0
0
LINE
8
FRONT
10
0.072233
20
0.976158
30
0.0
11
0.071148
21
0.976830
31
0.0
0
LINE
8
FRONT
10
0.014539
20
0.920194
30
0.0
11
0.014691
21
0.919955
31
0.0
0
LINE
8
FRONT
10
0.014691
20
0.966887
30
0.0
11
0.014539
21
0.966649
31
0.0
0
LINE
8
FRONT_HID
6
HIDDEN
10
0.047319
20
0.986666
30
0.0
11
0.045097
21
0.986809
31
0.0
0
LINE
8
FRONT_HID
6
HIDDEN
10
0.045097
20
0.986809
30
0.0
11
0.042870
21
0.986839
31
0.0
0
LINE
8
FRONT_HID
6
HIDDEN
10
0.042870
20
0.986839
30
0.0
11
0.040644
21
0.986754
31
0.0
0
LINE
8
FRONT_HID
6
HIDDEN
10
0.040644
20
0.986754
30
0.0
11
0.038426
21
0.986555
31
0.0
0
LINE
8
FRONT_HID
6
HIDDEN
10
0.038426
20
0.986555
30
0.0
11
0.036221
21
0.986242
31
0.0
0
LINE
8
FRONT_HID
6
HIDDEN
10
0.036221
20
0.986242
30
0.0
11
0.034035
21
0.985817
31
0.0
0
LINE
8
FRONT_HID
6
HIDDEN
10
0.034035
20
0.985817
30
0.0
11
0.031873
21
0.985281
31
0.0
0
LINE
8
FRONT_HID
6
HIDDEN
10
0.031873
20
0.985281
30
0.0
11
0.029742
21
0.984634
31
0.0
0
LINE
8
FRONT_HID
6
HIDDEN
10
0.029742
20
0.984634
30
0.0
11
0.027647
21
0.983879
31
0.0
0
LINE
8
FRONT_HID
6
HIDDEN
10
0.027647
20
0.983879
30
0.0
11
0.025593
21
0.983017
31
0.0
0
LINE
8
FRONT_HID
6
HIDDEN
10
0.025593
20
0.983017
30
0.0
11
0.023587
21
0.982051
31
0.0
0
LINE
8
FRONT_HID
6
HIDDEN
10
0.023587
20
0.982051
30
0.0
11
0.021632
21
0.980984
31
0.0
0
LINE
8
FRONT_HID
6
HIDDEN
10
0.021632
20
0.980984
30
0.0
11
0.019735
21
0.979818
31
0.0
0
LINE
8
FRONT_HID
6
HIDDEN
10
0.019735
20
0.979818
30
0.0
11
0.017899
21
0.978556
31
0.0
0
LINE
8
FRONT_HID
6
HIDDEN
10
0.017899
20
0.978556
30
0.0
11
0.016132
21
0.977201
31
0.0
0
LINE
8
FRONT_HID
6
HIDDEN
10
0.016132
20
0.977201
30
0.0
11
0.014435
21
0.975758
31
0.0
0
LINE
8
FRONT_HID
6
HIDDEN
10
0.014435
20
0.975758
30
0.0
11
0.012815
21
0.974230
31
0.0
0
LINE
8
FRONT_HID
6
HIDDEN
10
0.012815
20
0.974230
30
0.0
11
0.011276
21
0.972621
31
0.0
0
LINE
8
FRONT_HID
6
HIDDEN
10
0.011276
20
0.972621
30
0.0
11
0.009821
21
0.970934
31
0.0
0
LINE
8
FRONT_HID
6
HIDDEN
10
0.009821
20
0.970934
30
0.0
11
0.008455
21
0.969176
31
0.0
0
LINE
8
FRONT_HID
6
HIDDEN
10
0.008455
20
0.969176
30
0.0
11
0.007180
21
0.967349
31
0.0
0
LINE
8
FRONT_HID
6
HIDDEN
10
0.007180
20
0.967349
30
0.0
11
0.006001
21
0.965460
31
0.0
0
LINE
8
FRONT_HID
6
HIDDEN
10
0.006001
20
0.965460
30
0.0
11
0.004920
21
0.963513
31
0.0
0
LINE
8
FRONT_HID
6
HIDDEN
10
0.004920
20
0.963513
30
0.0
11
0.003940
21
0.961513
31
0.0
0
LINE
8
FRONT_HID
6
HIDDEN
10
0.003940
20
0.961513
30
0.0
11
0.003065
21
0.959465
31
0.0
0
LINE
8
FRONT_HID
6
HIDDEN
10
0.003065
20
0.959465
30
0.0
11
0.002295
21
0.957375
31
0.0
0
LINE
8
FRONT_HID
6
HIDDEN
10
0.002295
20
0.957375
30
0.0
11
0.001634
21
0.955249
31
0.0
0
LINE
8
FRONT_HID
6
HIDDEN
10
0.001634
20
0.955249
30
0.0
11
0.001082
21
0.953091
31
0.0
0
LINE
8
FRONT_HID
6
HIDDEN
10
0.001082
20
0.953091
30
0.0
11
0.000642
21
0.950908
31
0.0
0
LINE
8
FRONT_HID
6
HIDDEN
10
0.000642
20
0.950908
30
0.0
11
0.000315
21
0.948705
31
0.0
0
LINE
8
FRONT_HID
6
HIDDEN
10
0.000315
20
0.948705
30
0.0
11
0.000100
21
0.946488
31
0.0
0
LINE
8
FRONT_HID
6
HIDDEN
10
0.000100
20
0.946488
30
0.0
11
0.000000
21
0.944263
31
0.0
0
LINE
8
FRONT_HID
6
HIDDEN
10
0.000000
20
0.944263
30
0.0
11
0.000014
21
0.942036
31
0.0
0
LINE
8
FRONT_HID
6
HIDDEN
10
0.000014
20
0.942036
30
0.0
11
0.000142
21
0.939813
31
0.0
0
LINE
8
FRONT_HID
6
HIDDEN
10
0.000142
20
0.939813
30
0.0
11
0.000384
21
0.937599
31
0.0
0
LINE
8
FRONT_HID
6
HIDDEN
10
0.000384
20
0.937599
30
0.0
11
0.000739
21
0.935400
31
0.0
0
LINE
8
FRONT_HID
6
HIDDEN
10
0.000739
20
0.935400
30
0.0
11
0.001206
21
0.933223
31
0.0
0
LINE
8
FRONT_HID
6
HIDDEN
10
0.001206
20
0.933223
30
0.0
11
0.001785
21
0.931072
31
0.0
0
LINE
8
FRONT_HID
6
HIDDEN
10
0.001785
20
0.931072
30
0.0
11
0.002473
21
0.928954
31
0.0
0
LINE
8
FRONT_HID
6
HIDDEN
10
0.002473
20
0.928954
30
0.0
11
0.003269
21
0.926874
31
0.0
0
LINE
8
FRONT_HID
6
HIDDEN
10
0.003269
20
0.926874
30
0.0
11
0.004170
21
0.924837
31
0.0
0
LINE
8
FRONT_HID
6
HIDDEN
10
0.004170
20
0.924837
30
0.0
11
0.005174
21
0.922849
31
0.0
0
LINE
8
FRONT_HID
6
HIDDEN
10
0.005174
20
0.922849
30
0.0
11
0.006279
21
0.920916
31
0.0
0
LINE
8
FRONT_HID
6
HIDDEN
10
0.006279
20
0.920916
30
0.0
11
0.007482
21
0.919041
31
0.0
0
LINE
8
FRONT_HID
6
HIDDEN
10
0.007482
20
0.919041
30
0.0
11
0.008779
21
0.917231
31
0.0
0
LINE
8
FRONT_HID
6
HIDDEN
10
0.008779
20
0.917231
30
0.0
11
0.010168
21
0.915490
31
0.0
0
LINE
8
FRONT_HID
6
HIDDEN
10
0.010168
20
0.915490
30
0.0
11
0.011644
21
0.913822
31
0.0
0
LINE
8
FRONT_HID
6
HIDDEN
10
0.011644
20
0.913822
30
0.0
11
0.013203
21
0.912232
31
0.0
0
LINE
8
FRONT_HID
6
HIDDEN
10
0.013203
20
0.912232
30
0.0
11
0.014842
21
0.910724
31
0.0
0
LINE
8
FRONT_HID
6
HIDDEN
10
0.014842
20
0.910724
30
0.0
11
0.016556
21
0.909302
31
0.0
0
LINE
8
FRONT_HID
6
HIDDEN
10
0.016556
20
0.909302
30
0.0
11
0.018341
21
0.907970
31
0.0
0
LINE
8
FRONT_HID
6
HIDDEN
10
0.018341
20
0.907970
30
0.0
11
0.020192
21
0.906731
31
0.0
0
LINE
8
FRONT_HID
6
HIDDEN
10
0.020192
20
0.906731
30
0.0
11
0.022103
21
0.905589
31
0.0
0
LINE
8
FRONT_HID
6
HIDDEN
10
0.022103
20
0.905589
30
0.0
11
0.024071
21
0.904546
31
0.0
0
LINE
8
FRONT_HID
6
HIDDEN
10
0.024071
20
0.904546
30
0.0
11
0.026090
21
0.903605
31
0.0
0
LINE
8
FRONT_HID
6
HIDDEN
10
0.026090
20
0.903605
30
0.0
11
0.028154
21
0.902769
31
0.0
0
LINE
8
FRONT_HID
6
HIDDEN
10
0.028154
20
0.902769
30
0.0
11
0.030259
21
0.902040
31
0.0
0
LINE
8
FRONT_HID
6
HIDDEN
10
0.030259
20
0.902040
30
0.0
11
0.032398
21
0.901420
31
0.0
0
LINE
8
FRONT_HID
6
HIDDEN
10
0.032398
20
0.901420
30
0.0
11
0.034566
21
0.900911
31
0.0
0
LINE
8
FRONT_HID
6
HIDDEN
10
0.034566
20
0.900911
30
0.0
11
0.036757
21
0.900513
31
0.0
0
LINE
8
FRONT_HID
6
HIDDEN
10
0.036757
20
0.900513
30
0.0
11
0.038966
21
0.900228
31
0.0
0
LINE
8
FRONT_HID
6
HIDDEN
10
0.038966
20
0.900228
30
0.0
11
0.041187
21
0.900057
31
0.0
0
LINE
8
FRONT_HID
6
HIDDEN
10
0.041187
20
0.900057
30
0.0
11
0.043413
21
0.900000
31
0.0
0
LINE
8
FRONT_HID
6
HIDDEN
10
0.047319
20
0.986666
30
0.0
11
0.047733
21
0.986627
31
0.0
0
LINE
8
FRONT_HID
6
HIDDEN
10
0.047733
20
0.986627
30
0.0
11
0.048146
21
0.986583
31
0.0
0
LINE
8
FRONT_HID
6
HIDDEN
10
0.048146
20
0.986583
30
0.0
11
0.048559
21
0.986536
31
0.0
0
LINE
8
FRONT_HID
6
HIDDEN
10
0.048559
20
0.986536
30
0.0
11
0.048971
21
0.986485
31
0.0
0
LINE
8
FRONT_HID
6
HIDDEN
10
0.048971
20
0.986485
30
0.0
11
0.049383
21
0.986430
31
0.0
0
LINE
8
FRONT_HID
6
HIDDEN
10
0.049383
20
0.986430
30
0.0
11
0.049794
21
0.986371
31
0.0
0
LINE
8
FRONT_HID
6
HIDDEN
10
0.049794
20
0.986371
30
0.0
11
0.050205
21
0.986308
31
0.0
0
LINE
8
FRONT_HID
6
HIDDEN
10
0.050205
20
0.986308
30
0.0
11
0.050615
21
0.986241
31
0.0
0
LINE
8
FRONT_HID
6
HIDDEN
10
0.050615
20
0.986241
30
0.0
11
0.051024
21
0.986170
31
0.0
0
LINE
8
FRONT_HID
6
HIDDEN
10
0.051024
20
0.986170
30
0.0
11
0.051433
21
0.986095
31
0.0
0
LINE
8
FRONT_HID
6
HIDDEN
10
0.051433
20
0.986095
30
0.0
11
0.051841
21
0.986016
31
0.0
0
LINE
8
FRONT_HID
6
HIDDEN
10
0.051841
20
0.986016
30
0.0
11
0.052248
21
0.985934
31
0.0
0
LINE
8
FRONT_HID
6
HIDDEN
10
0.052248
20
0.985934
30
0.0
11
0.052654
21
0.985847
31
0.0
0
LINE
8
FRONT_HID
6
HIDDEN
10
0.052654
20
0.985847
30
0.0
11
0.053060
21
0.985757
31
0.0
0
LINE
8
FRONT_HID
6
HIDDEN
10
0.053060
20
0.985757
30
0.0
11
0.053464
21
0.985663
31
0.0
0
LINE
8
FRONT_HID
6
HIDDEN
10
0.053464
20
0.985663
30
0.0
11
0.053868
21
0.985565
31
0.0
0
LINE
8
FRONT_HID
6
HIDDEN
10
0.053868
20
0.985565
30
0.0
11
0.054271
21
0.985463
31
0.0
0
LINE
8
FRONT_HID
6
HIDDEN
10
0.054271
20
0.985463
30
0.0
11
0.054673
21
0.985357
31
0.0
0
LINE
8
FRONT_HID
6
HIDDEN
10
0.054673
20
0.985357
30
0.0
11
0.055073
21
0.985247
31
0.0
0
LINE
8
FRONT_HID
6
HIDDEN
10
0.055073
20
0.985247
30
0.0
11
0.055473
21
0.985134
31
0.0
0
LINE
8
FRONT_HID
6
HIDDEN
10
0.055473
20
0.985134
30
0.0
11
0.055872
21
0.985016
31
0.0
0
LINE
8
FRONT_HID
6
HIDDEN
10
0.055872
20
0.985016
30
0.0
11
0.056269
21
0.984895
31
0.0
0
LINE
8
FRONT_HID
6
HIDDEN
10
0.056269
20
0.984895
30
0.0
11
0.056665
21
0.984770
31
0.0
0
LINE
8
FRONT_HID
6
HIDDEN
10
0.056665
20
0.984770
30
0.0
11
0.057060
21
0.984642
31
0.0
0
LINE
8
FRONT_HID
6
HIDDEN
10
0.057060
20
0.984642
30
0.0
11
0.057454
21
0.984509
31
0.0
0
LINE
8
FRONT_HID
6
HIDDEN
10
0.057454
20
0.984509
30
0.0
11
0.057846
21
0.984373
31
0.0
0
LINE
8
FRONT_HID
6
HIDDEN
10
0.057846
20
0.984373
30
0.0
11
0.058238
21
0.984233
31
0.0
0
LINE
8
FRONT_HID
6
HIDDEN
10
0.058238
20
0.984233
30
0.0
11
0.058627
21
0.984089
31
0.0
0
LINE
8
FRONT_HID
6
HIDDEN
10
0.058627
20
0.984089
30
0.0
11
0.059016
21
0.983942
31
0.0
0
LINE
8
FRONT_HID
6
HIDDEN
10
0.059016
20
0.983942
30
0.0
11
0.059403
21
0.983791
31
0.0
0
LINE
8
FRONT_HID
6
HIDDEN
10
0.059403
20
0.983791
30
0.0
11
0.059788
21
0.983636
31
0.0
0
LINE
8
FRONT_HID
6
HIDDEN
10
0.059788
20
0.983636
30
0.0
11
0.060172
21
0.983477
31
0.0
0
LINE
8
FRONT_HID
6
HIDDEN
10
0.060172
20
0.983477
30
0.0
11
0.060555
21
0.983315
31
0.0
0
LINE
8
FRONT_HID
6
HIDDEN
10
0.060555
20
0.983315
30
0.0
11
0.060936
21
0.983149
31
0.0
0
LINE
8
FRONT_HID
6
HIDDEN
10
0.060936
20
0.983149
30
0.0
11
0.061315
21
0.982980
31
0.0
0
LINE
8
FRONT_HID
6
HIDDEN
10
0.061315
20
0.982980
30
0.0
11
0.061693
21
0.982807
31
0.0
0
LINE
8
FRONT_HID
6
HIDDEN
10
0.061693
20
0.982807
30
0.0
11
0.062069
21
0.982630
31
0.0
0
LINE
8
FRONT_HID
6
HIDDEN
10
0.062069
20
0.982630
30
0.0
11
0.062443
21
0.982450
31
0.0
0
LINE
8
FRONT_HID
6
HIDDEN
10
0.062443
20
0.982450
30
0.0
11
0.062816
21
0.982266
31
0.0
0
LINE
8
FRONT_HID
6
HIDDEN
10
0.062816
20
0.982266
30
0.0
11
0.063186
21
0.982078
31
0.0
0
LINE
8
FRONT_HID
6
HIDDEN
10
0.063186
20
0.982078
30
0.0
11
0.063555
21
0.981887
31
0.0
0
LINE
8
FRONT_HID
6
HIDDEN
10
0.063555
20
0.981887
30
0.0
11
0.063923
21
0.981693
31
0.0
0
LINE
8
FRONT_HID
6
HIDDEN
10
0.063923
20
0.981693
30
0.0
11
0.064288
21
0.981495
31
0.0
0
LINE
8
FRONT_HID
6
HIDDEN
10
0.064288
20
0.981495
30
0.0
11
0.064651
21
0.981294
31
0.0
0
LINE
8
FRONT_HID
6
HIDDEN
10
0.064651
20
0.981294
30
0.0
11
0.065013
21
0.981089
31
0.0
0
LINE
8
FRONT_HID
6
HIDDEN
10
0.065013
20
0.981089
30
0.0
11
0.065372
21
0.980880
31
0.0
0
LINE
8
FRONT_HID
6
HIDDEN
10
0.065372
20
0.980880
30
0.0
11
0.065729
21
0.980668
31
0.0
0
LINE
8
FRONT_HID
6
HIDDEN
10
0.065729
20
0.980668
30
0.0
11
0.066085
21
0.980453
31
0.0
0
LINE
8
FRONT_HID
6
HIDDEN
10
0.066085
20
0.980453
30
0.0
11
0.066438
21
0.980235
31
0.0
0
LINE
8
FRONT_HID
6
HIDDEN
10
0.066438
20
0.980235
30
0.0
11
0.066789
21
0.980013
31
0.0
0
LINE
8
FRONT_HID
6
HIDDEN
10
0.066789
20
0.980013
30
0.0
11
0.067138
21
0.979787
31
0.0
0
LINE
8
FRONT_HID
6
HIDDEN
10
0.067138
20
0.979787
30
0.0
11
0.067485
21
0.979559
31
0.0
0
LINE
8
FRONT_HID
6
HIDDEN
10
0.067485
20
0.979559
30
0.0
11
0.067830
21
0.979327
31
0.0
0
LINE
8
FRONT_HID
6
HIDDEN
10
0.067830
20
0.979327
30
0.0
11
0.068172
21
0.979091
31
0.0
0
LINE
8
FRONT_HID
6
HIDDEN
10
0.068172
20
0.979091
30
0.0
11
0.068512
21
0.978853
31
0.0
0
LINE
8
FRONT_HID
6
HIDDEN
10
0.068512
20
0.978853
30
0.0
11
0.068850
21
0.978611
31
0.0
0
LINE
8
FRONT_HID
6
HIDDEN
10
0.068850
20
0.978611
30
0.0
11
0.069186
21
0.978366
31
0.0
0
LINE
8
FRONT_HID
6
HIDDEN
10
0.069186
20
0.978366
30
0.0
11
0.069519
21
0.978118
31
0.0
0
LINE
8
FRONT_HID
6
HIDDEN
10
0.069519
20
0.978118
30
0.0
11
0.069850
21
0.977866
31
0.0
0
LINE
8
FRONT_HID
6
HIDDEN
10
0.069850
20
0.977866
30
0.0
11
0.070178
21
0.977612
31
0.0
0
LINE
8
FRONT_HID
6
HIDDEN
10
0.070178
20
0.977612
30
0.0
11
0.070504
21
0.977354
31
0.0
0
LINE
8
FRONT_HID
6
HIDDEN
10
0.070504
20
0.977354
30
0.0
11
0.070827
21
0.977093
31
0.0
0
LINE
8
FRONT_HID
6
HIDDEN
10
0.070827
20
0.977093
30
0.0
11
0.071148
21
0.976830
31
0.0
0
LINE
8
FRONT_HID
6
HIDDEN
10
0.071148
20
0.910012
30
0.0
11
0.072069
21
0.910798
31
0.0
0
LINE
8
FRONT_HID
6
HIDDEN
10
0.072069
20
0.910798
30
0.0
11
0.072967
21
0.911610
31
0.0
0
LINE
8
FRONT_HID
6
HIDDEN
10
0.072967
20
0.911610
30
0.0
11
0.073842
21
0.912445
31
0.0
0
LINE
8
FRONT_HID
6
HIDDEN
10
0.073842
20
0.912445
30
0.0
11
0.074693
21
0.913305
31
0.0
0
LINE
8
FRONT_HID
6
HIDDEN
10
0.074693
20
0.913305
30
0.0
11
0.075520
21
0.914189
31
0.0
0
LINE
8
FRONT_HID
6
HIDDEN
10
0.075520
20
0.914189
30
0.0
11
0.076322
21
0.915095
31
0.0
0
LINE
8
FRONT_HID
6
HIDDEN
10
0.076322
20
0.915095
30
0.0
11
0.077099
21
0.916023
31
0.0
0
LINE
8
FRONT_HID
6
HIDDEN
10
0.077099
20
0.916023
30
0.0
11
0.077849
21
0.916972
31
0.0
0
LINE
8
FRONT_HID
6
HIDDEN
10
0.077849
20
0.916972
30
0.0
11
0.078573
21
0.917942
31
0.0
0
LINE
8
FRONT_HID
6
HIDDEN
10
0.078573
20
0.917942
30
0.0
11
0.079269
21
0.918932
31
0.0
0
LINE
8
FRONT_HID
6
HIDDEN
10
0.079269
20
0.918932
30
0.0
11
0.079938
21
0.919941
31
0.0
0
LINE
8
FRONT_HID
6
HIDDEN
10
0.079938
20
0.919941
30
0.0
11
0.080578
21
0.920968
31
0.0
0
LINE
8
FRONT_HID
6
HIDDEN
10
0.080578
20
0.920968
30
0.0
11
0.081189
21
0.922012
31
0.0
0
LINE
8
FRONT_HID
6
HIDDEN
10
0.081189
20
0.922012
30
0.0
11
0.081771
21
0.923073
31
0.0
0
LINE
8
FRONT_HID
6
HIDDEN
10
0.081771
20
0.923073
30
0.0
11
0.082323
21
0.924150
31
0.0
0
LINE
8
FRONT_HID
6
HIDDEN
10
0.082323
20
0.924150
30
0.0
11
0.082845
21
0.925242
31
0.0
0
LINE
8
FRONT_HID
6
HIDDEN
10
0.082845
20
0.925242
30
0.0
11
0.083336
21
0.926347
31
0.0
0
LINE
8
FRONT_HID
6
HIDDEN
10
0.083336
20
0.926347
30
0.0
11
0.083797
21
0.927467
31
0.0
0
LINE
8
FRONT_HID
6
HIDDEN
10
0.083797
20
0.927467
30
0.0
11
0.084226
21
0.928598
31
0.0
0
LINE
8
FRONT_HID
6
HIDDEN
10
0.084226
20
0.928598
30
0.0
11
0.084623
21
0.929741
31
0.0
0
LINE
8
FRONT_HID
6
HIDDEN
10
0.084623
20
0.929741
30
0.0
11
0.084988
21
0.930895
31
0.0
0
LINE
8
FRONT_HID
6
HIDDEN
10
0.084988
20
0.930895
30
0.0
11
0.085321
21
0.932058
31
0.0
0
LINE
8
FRONT_HID
6
HIDDEN
10
0.085321
20
0.932058
30
0.0
11
0.085621
21
0.933231
31
0.0
0
LINE
8
FRONT_HID
6
HIDDEN
10
0.085621
20
0.933231
30
0.0
11
0.085889
21
0.934411
31
0.0
0
LINE
8
FRONT_HID
6
HIDDEN
10
0.085889
20
0.934411
30
0.0
11
0.086123
21
0.935598
31
0.0
0
LINE
8
FRONT_HID
6
HIDDEN
10
0.086123
20
0.935598
30
0.0
11
0.086325
21
0.936791
31
0.0
0
LINE
8
FRONT_HID
6
HIDDEN
10
0.086325
20
0.936791
30
0.0
11
0.086493
21
0.937990
31
0.0
0
LINE
8
FRONT_HID
6
HIDDEN
10
0.086493
20
0.937990
30
0.0
11
0.086628
21
0.939192
31
0.0
0
LINE
8
FRONT_HID
6
HIDDEN
10
0.086628
20
0.939192
30
0.0
11
0.086729
21
0.940398
31
0.0
0
LINE
8
FRONT_HID
6
HIDDEN
10
0.086729
20
0.940398
30
0.0
11
0.086796
21
0.941606
31
0.0
0
LINE
8
FRONT_HID
6
HIDDEN
10
0.086796
20
0.941606
30
0.0
11
0.086830
21
0.942816
31
0.0
0
LINE
8
FRONT_HID
6
HIDDEN
10
0.086830
20
0.942816
30
0.0
11
0.086830
21
0.944026
31
0.0
0
LINE
8
FRONT_HID
6
HIDDEN
10
0.086830
20
0.944026
30
0.0
11
0.086796
21
0.945236
31
0.0
0
LINE
8
FRONT_HID
6
HIDDEN
10
0.086796
20
0.945236
30
0.0
11
0.086729
21
0.946444
31
0.0
0
LINE
8
FRONT_HID
6
HIDDEN
10
0.086729
20
0.946444
30
0.0
11
0.086628
21
0.947650
31
0.0
0
LINE
8
FRONT_HID
6
HIDDEN
10
0.086628
20
0.947650
30
0.0
11
0.086493
21
0.948853
31
0.0
0
LINE
8
FRONT_HID
6
HIDDEN
10
0.086493
20
0.948853
30
0.0
11
0.086325
21
0.950051
31
0.0
0
LINE
8
FRONT_HID
6
HIDDEN
10
0.086325
20
0.950051
30
0.0
11
0.086123
21
0.951244
31
0.0
0
LINE
8
FRONT_HID
6
HIDDEN
10
0.086123
20
0.951244
30
0.0
11
0.085889
21
0.952431
31
0.0
0
LINE
8
FRONT_HID
6
HIDDEN
10
0.085889
20
0.952431
30
0.0
11
0.085621
21
0.953611
31
0.0
0
LINE
8
FRONT_HID
6
HIDDEN
10
0.085621
20
0.953611
30
0.0
11
0.085321
21
0.954784
31
0.0
0
LINE
8
FRONT_HID
6
HIDDEN
10
0.085321
20
0.954784
30
0.0
11
0.084988
21
0.955947
31
0.0
0
LINE
8
FRONT_HID
6
HIDDEN
10
0.084988
20
0.955947
30
0.0
11
0.084623
21
0.957101
31
0.0
0
LINE
8
FRONT_HID
6
HIDDEN
10
0.084623
20
0.957101
30
0.0
11
0.084226
21
0.958244
31
0.0
0
LINE
8
FRONT_HID
6
HIDDEN
10
0.084226
20
0.958244
30
0.0
11
0.083797
21
0.959375
31
0.0
0
LINE
8
FRONT_HID
6
HIDDEN
10
0.083797
20
0.959375
30
0.0
11
0.083336
21
0.960495
31
0.0
0
LINE
8
FRONT_HID
6
HIDDEN
10
0.083336
20
0.960495
30
0.0
11
0.082845
21
0.961601
31
0.0
0
LINE
8
FRONT_HID
6
HIDDEN
10
0.082845
20
0.961601
30
0.0
11
0.082323
21
0.962692
31
0.0
0
LINE
8
FRONT_HID
6
HIDDEN
10
0.082323
20
0.962692
30
0.0
11
0.081771
21
0.963769
31
0.0
0
LINE
8
FRONT_HID
6
HIDDEN
10
0.081771
20
0.963769
30
0.0
11
0.081189
21
0.964830
31
0.0
0
LINE
8
FRONT_HID
6
HIDDEN
10
0.081189
20
0.964830
30
0.0
11
0.080578
21
0.965875
31
0.0
0
LINE
8
FRONT_HID
6
HIDDEN
10
0.080578
20
0.965875
30
0.0
11
0.079938
21
0.966901
31
0.0
0
LINE
8
FRONT_HID
6
HIDDEN
10
0.079938
20
0.966901
30
0.0
11
0.079269
21
0.967910
31
0.0
0
LINE
8
FRONT_HID
6
HIDDEN
10
0.079269
20
0.967910
30
0.0
11
0.078573
21
0.968900
31
0.0
0
LINE
8
FRONT_HID
6
HIDDEN
10
0.078573
20
0.968900
30
0.0
11
0.077849
21
0.969870
31
0.0
0
LINE
8
FRONT_HID
6
HIDDEN
10
0.077849
20
0.969870
30
0.0
11
0.077099
21
0.970819
31
0.0
0
LINE
8
FRONT_HID
6
HIDDEN
10
0.077099
20
0.970819
30
0.0
11
0.076322
21
0.971747
31
0.0
0
LINE
8
FRONT_HID
6
HIDDEN
10
0.076322
20
0.971747
30
0.0
11
0.075520
21
0.972653
31
0.0
0
LINE
8
FRONT_HID
6
HIDDEN
10
0.075520
20
0.972653
30
0.0
11
0.074693
21
0.973537
31
0.0
0
LINE
8
FRONT_HID
6
HIDDEN
10
0.074693
20
0.973537
30
0.0
11
0.073842
21
0.974397
31
0.0
0
LINE
8
FRONT_HID
6
HIDDEN
10
0.073842
20
0.974397
30
0.0
11
0.072967
21
0.975233
31
0.0
0
LINE
8
FRONT_HID
6
HIDDEN
10
0.072967
20
0.975233
30
0.0
11
0.072069
21
0.976044
31
0.0
0
LINE
8
FRONT_HID
6
HIDDEN
10
0.072069
20
0.976044
30
0.0
11
0.071148
21
0.976830
31
0.0
0
LINE
8
FRONT_HID
6
HIDDEN
10
0.071148
20
0.910012
30
0.0
11
0.070827
21
0.909749
31
0.0
0
LINE
8
FRONT_HID
6
HIDDEN
10
0.070827
20
0.909749
30
0.0
11
0.070504
21
0.909488
31
0.0
0
LINE
8
FRONT_HID
6
HIDDEN
10
0.070504
20
0.909488
30
0.0
11
0.070178
21
0.909230
31
0.0
0
LINE
8
FRONT_HID
6
HIDDEN
10
0.070178
20
0.909230
30
0.0
11
0.069850
21
0.908976
31
0.0
0
LINE
8
FRONT_HID
6
HIDDEN
10
0.069850
20
0.908976
30
0.0
11
0.069519
21
0.908724
31
0.0
0
LINE
8
FRONT_HID
6
HIDDEN
10
0.069519
20
0.908724
30
0.0
11
0.069186
21
0.908476
31
0.0
0
LINE
8
FRONT_HID
6
HIDDEN
10
0.069186
20
0.908476
30
0.0
11
0.068850
21
0.908231
31
0.0
0
LINE
8
FRONT_HID
6
HIDDEN
10
0.068850
20
0.908231
30
0.0
11
0.068512
21
0.907989
31
0.0
0
LINE
8
FRONT_HID
6
HIDDEN
10
0.068512
20
0.907989
30
0.0
11
0.068172
21
0.907751
31
0.0
0
LINE
8
FRONT_HID
6
HIDDEN
10
0.068172
20
0.907751
30
0.0
11
0.067830
21
0.907516
31
0.0
0
LINE
8
FRONT_HID
6
HIDDEN
10
0.067830
20
0.907516
30
0.0
11
0.067485
21
0.907284
31
0.0
0
LINE
8
FRONT_HID
6
HIDDEN
10
0.067485
20
0.907284
30
0.0
11
0.067138
21
0.907055
31
0.0
0
LINE
8
FRONT_HID
6
HIDDEN
10
0.067138
20
0.907055
30
0.0
11
0.066789
21
0.906830
31
0.0
0
LINE
8
FRONT_HID
6
HIDDEN
10
0.066789
20
0.906830
30
0.0
11
0.066438
21
0.906608
31
0.0
0
LINE
8
FRONT_HID
6
HIDDEN
10
0.066438
20
0.906608
30
0.0
11
0.066085
21
0.906389
31
0.0
0
LINE
8
FRONT_HID
6
HIDDEN
10
0.066085
20
0.906389
30
0.0
11
0.065729
21
0.906174
31
0.0
0
LINE
8
FRONT_HID
6
HIDDEN
10
0.065729
20
0.906174
30
0.0
11
0.065372
21
0.905962
31
0.0
0
LINE
8
FRONT_HID
6
HIDDEN
10
0.065372
20
0.905962
30
0.0
11
0.065013
21
0.905754
31
0.0
0
LINE
8
FRONT_HID
6
HIDDEN
10
0.065013
20
0.905754
30
0.0
11
0.064651
21
0.905549
31
0.0
0
LINE
8
FRONT_HID
6
HIDDEN
10
0.064651
20
0.905549
30
0.0
11
0.064288
21
0.905347
31
0.0
0
LINE
8
FRONT_HID
6
HIDDEN
10
0.064288
20
0.905347
30
0.0
11
0.063923
21
0.905149
31
0.0
0
LINE
8
FRONT_HID
6
HIDDEN
10
0.063923
20
0.905149
30
0.0
11
0.063555
21
0.904955
31
0.0
0
LINE
8
FRONT_HID
6
HIDDEN
10
0.063555
20
0.904955
30
0.0
11
0.063186
21
0.904764
31
0.0
0
LINE
8
FRONT_HID
6
HIDDEN
10
0.063186
20
0.904764
30
0.0
11
0.062816
21
0.904576
31
0.0
0
LINE
8
FRONT_HID
6
HIDDEN
10
0.062816
20
0.904576
30
0.0
11
0.062443
21
0.904392
31
0.0
0
LINE
8
FRONT_HID
6
HIDDEN
10
0.062443
20
0.904392
30
0.0
11
0.062069
21
0.904212
31
0.0
0
LINE
8
FRONT_HID
6
HIDDEN
10
0.062069
20
0.904212
30
0.0
11
0.061693
21
0.904035
31
0.0
0
LINE
8
FRONT_HID
6
HIDDEN
10
0.061693
20
0.904035
30
0.0
11
0.061315
21
0.903862
31
0.0
0
LINE
8
FRONT_HID
6
HIDDEN
10
0.061315
20
0.903862
30
0.0
11
0.060936
21
0.903693
31
0.0
0
LINE
8
FRONT_HID
6
HIDDEN
10
0.060936
20
0.903693
30
0.0
11
0.060555
21
0.903527
31
0.0
0
LINE
8
FRONT_HID
6
HIDDEN
10
0.060555
20
0.903527
30
0.0
11
0.060172
21
0.903365
31
0.0
0
LINE
8
FRONT_HID
6
HIDDEN
10
0.060172
20
0.903365
30
0.0
11
0.059788
21
0.903206
31
0.0
0
LINE
8
FRONT_HID
6
HIDDEN
10
0.059788
20
0.903206
30
0.0
11
0.059403
21
0.903051
31
0.0
0
LINE
8
FRONT_HID
6
HIDDEN
10
0.059403
20
0.903051
30
0.0
11
0.059016
21
0.902900
31
0.0
0
LINE
8
FRONT_HID
6
HIDDEN
10
0.059016
20
0.902900
30
0.0
11
0.058627
21
0.902753
31
0.0
0
LINE
8
FRONT_HID
6
HIDDEN
10
0.058627
20
0.902753
30
0.0
11
0.058238
21
0.902609
31
0.0
0
LINE
8
FRONT_HID
6
HIDDEN
10
0.058238
20
0.902609
30
0.0
11
0.057846
21
0.902469
31
0.0
0
LINE
8
FRONT_HID
6
HIDDEN
10
0.057846
20
0.902469
30
0.0
11
0.057454
21
0.902333
31
0.0
0
LINE
8
FRONT_HID
6
HIDDEN
10
0.057454
20
0.902333
30
0.0
11
0.057060
21
0.902200
31
0.0
0
LINE
8
FRONT_HID
6
HIDDEN
10
0.057060
20
0.902200
30
0.0
11
0.056665
21
0.902072
31
0.0
0
LINE
8
FRONT_HID
6
HIDDEN
10
0.056665
20
0.902072
30
0.0
11
0.056269
21
0.901947
31
0.0
0
LINE
8
FRONT_HID
6
HIDDEN
10
0.056269
20
0.901947
30
0.0
11
0.055872
21
0.901826
31
0.0
0
LINE
8
FRONT_HID
6
HIDDEN
10
0.055872
20
0.901826
30
0.0
11
0.055473
21
0.901708
31
0.0
0
LINE
8
FRONT_HID
6
HIDDEN
10
0.055473
20
0.901708
30
0.0
11
0.055073
21
0.901595
31
0.0
0
LINE
8
FRONT_HID
6
HIDDEN
10
0.055073
20
0.901595
30
0.0
11
0.054673
21
0.901485
31
0.0
0
LINE
8
FRONT_HID
6
HIDDEN
10
0.054673
20
0.901485
30
0.0
11
0.054271
21
0.901379
31
0.0
0
LINE
8
FRONT_HID
6
HIDDEN
10
0.054271
20
0.901379
30
0.0
11
0.053868
21
0.901278
31
0.0
0
LINE
8
FRONT_HID
6
HIDDEN
10
0.053868
20
0.901278
30
0.0
11
0.053464
21
0.901179
31
0.0
0
LINE
8
FRONT_HID
6
HIDDEN
10
0.053464
20
0.901179
30
0.0
11
0.053060
21
0.901085
31
0.0
0
LINE
8
FRONT_HID
6
HIDDEN
10
0.053060
20
0.901085
30
0.0
11
0.052654
21
0.900995
31
0.0
0
LINE
8
FRONT_HID
6
HIDDEN
10
0.052654
20
0.900995
30
0.0
11
0.052248
21
0.900908
31
0.0
0
LINE
8
FRONT_HID
6
HIDDEN
10
0.052248
20
0.900908
30
0.0
11
0.051841
21
0.900826
31
0.0
0
LINE
8
FRONT_HID
6
HIDDEN
10
0.051841
20
0.900826
30
0.0
11
0.051433
21
0.900747
31
0.0
0
LINE
8
FRONT_HID
6
HIDDEN
10
0.051433
20
0.900747
30
0.0
11
0.051024
21
0.900672
31
0.0
0
LINE
8
FRONT_HID
6
HIDDEN
10
0.051024
20
0.900672
30
0.0
11
0.050615
21
0.900601
31
0.0
0
LINE
8
FRONT_HID
6
HIDDEN
10
0.050615
20
0.900601
30
0.0
11
0.050205
21
0.900534
31
0.0
0
LINE
8
FRONT_HID
6
HIDDEN
10
0.050205
20
0.900534
30
0.0
11
0.049794
21
0.900471
31
0.0
0
LINE
8
FRONT_HID
6
HIDDEN
10
0.049794
20
0.900471
30
0.0
11
0.049383
21
0.900412
31
0.0
0
LINE
8
FRONT_HID
6
HIDDEN
10
0.049383
20
0.900412
30
0.0
11
0.048971
21
0.900357
31
0.0
0
LINE
8
FRONT_HID
6
HIDDEN
10
0.048971
20
0.900357
30
0.0
11
0.048559
21
0.900306
31
0.0
0
LINE
8
FRONT_HID
6
HIDDEN
10
0.048559
20
0.900306
30
0.0
11
0.048146
21
0.900259
31
0.0
0
LINE
8
FRONT_HID
6
HIDDEN
10
0.048146
20
0.900259
30
0.0
11
0.047733
21
0.900215
31
0.0
0
LINE
8
FRONT_HID
6
HIDDEN
10
0.047733
20
0.900215
30
0.0
11
0.047319
21
0.900176
31
0.0
0
LINE
8
FRONT_HID
6
HIDDEN
10
0.043413
20
0.900000
30
0.0
11
0.047319
21
0.900176
31
0.0
0
LINE
8
FRONT_HID
6
HIDDEN
10
0.025487
20
0.910952
30
0.0
11
0.025296
21
0.911058
31
0.0
0
LINE
8
FRONT_HID
6
HIDDEN
10
0.025296
20
0.911058
30
0.0
11
0.025106
21
0.911165
31
0.0
0
LINE
8
FRONT_HID
6
HIDDEN
10
0.025106
20
0.911165
30
0.0
11
0.024916
21
0.911274
31
0.0
0
LINE
8
FRONT_HID
6
HIDDEN
10
0.024916
20
0.911274
30
0.0
11
0.024727
21
0.911383
31
0.0
0
LINE
8
FRONT_HID
6
HIDDEN
10
0.024727
20
0.911383
30
0.0
11
0.024539
21
0.911494
31
0.0
0
LINE
8
FRONT_HID
6
HIDDEN
10
0.024539
20
0.911494
30
0.0
11
0.024351
21
0.911606
31
0.0
0
LINE
8
FRONT_HID
6
HIDDEN
10
0.024351
20
0.911606
30
0.0
11
0.024164
21
0.911718
31
0.0
0
LINE
8
FRONT_HID
6
HIDDEN
10
0.024164
20
0.911718
30
0.0
11
0.023977
21
0.911832
31
0.0
0
LINE
8
FRONT_HID
6
HIDDEN
10
0.023977
20
0.911832
30
0.0
11
0.023792
21
0.911948
31
0.0
0
LINE
8
FRONT_HID
6
HIDDEN
10
0.023792
20
0.911948
30
0.0
11
0.023606
21
0.912064
31
0.0
0
LINE
8
FRONT_HID
6
HIDDEN
10
0.023606
20
0.912064
30
0.0
11
0.023422
21
0.912181
31
0.0
0
LINE
8
FRONT_HID
6
HIDDEN
10
0.023422
20
0.912181
30
0.0
11
0.023238
21
0.912299
31
0.0
0
LINE
8
FRONT_HID
6
HIDDEN
10
0.023238
20
0.912299
30
0.0
11
0.023055
21
0.912419
31
0.0
0
LINE
8
FRONT_HID
6
HIDDEN
10
0.023055
20
0.912419
30
0.0
11
0.022873
21
0.912539
31
0.0
0
LINE
8
FRONT_HID
6
HIDDEN
10
0.022873
20
0.912539
30
0.0
11
0.022691
21
0.912661
31
0.0
0
LINE
8
FRONT_HID
6
HIDDEN
10
0.022691
20
0.912661
30
0.0
11
0.022510
21
0.912783
31
0.0
0
LINE
8
FRONT_HID
6
HIDDEN
10
0.022510
20
0.912783
30
0.0
11
0.022330
21
0.912907
31
0.0
0
LINE
8
FRONT_HID
6
HIDDEN
10
0.022330
20
0.912907
30
0.0
11
0.022151
21
0.913032
31
0.0
0
LINE
8
FRONT_HID
6
HIDDEN
10
0.022151
20
0.913032
30
0.0
11
0.021972
21
0.913158
31
0.0
0
LINE
8
FRONT_HID
6
HIDDEN
10
0.021972
20
0.913158
30
0.0
11
0.021794
21
0.913284
31
0.0
0
LINE
8
FRONT_HID
6
HIDDEN
10
0.021794
20
0.913284
30
0.0
11
0.021617
21
0.913412
31
0.0
0
LINE
8
FRONT_HID
6
HIDDEN
10
0.021617
20
0.913412
30
0.0
11
0.021441
21
0.913541
31
0.0
0
LINE
8
FRONT_HID
6
HIDDEN
10
0.021441
20
0.913541
30
0.0
11
0.021265
21
0.913671
31
0.0
0
LINE
8
FRONT_HID
6
HIDDEN
10
0.021265
20
0.913671
30
0.0
11
0.021090
21
0.913802
31
0.0
0
LINE
8
FRONT_HID
6
HIDDEN
10
0.021090
20
0.913802
30
0.0
11
0.020916
21
0.913934
31
0.0
0
LINE
8
FRONT_HID
6
HIDDEN
10
0.020916
20
0.913934
30
0.0
11
0.020742
21
0.914067
31
0.0
0
LINE
8
FRONT_HID
6
HIDDEN
10
0.020742
20
0.914067
30
0.0
11
0.020570
21
0.914202
31
0.0
0
LINE
8
FRONT_HID
6
HIDDEN
10
0.020570
20
0.914202
30
0.0
11
0.020398
21
0.914337
31
0.0
0
LINE
8
FRONT_HID
6
HIDDEN
10
0.020398
20
0.914337
30
0.0
11
0.020227
21
0.914473
31
0.0
0
LINE
8
FRONT_HID
6
HIDDEN
10
0.020227
20
0.914473
30
0.0
11
0.020057
21
0.914610
31
0.0
0
LINE
8
FRONT_HID
6
HIDDEN
10
0.020057
20
0.914610
30
0.0
11
0.019888
21
0.914748
31
0.0
0
LINE
8
FRONT_HID
6
HIDDEN
10
0.019888
20
0.914748
30
0.0
11
0.019719
21
0.914887
31
0.0
0
LINE
8
FRONT_HID
6
HIDDEN
10
0.019719
20
0.914887
30
0.0
11
0.019551
21
0.915027
31
0.0
0
LINE
8
FRONT_HID
6
HIDDEN
10
0.019551
20
0.915027
30
0.0
11
0.019384
21
0.915168
31
0.0
0
LINE
8
FRONT_HID
6
HIDDEN
10
0.019384
20
0.915168
30
0.0
11
0.019218
21
0.915310
31
0.0
0
LINE
8
FRONT_HID
6
HIDDEN
10
0.019218
20
0.915310
30
0.0
11
0.019053
21
0.915453
31
0.0
0
LINE
8
FRONT_HID
6
HIDDEN
10
0.019053
20
0.915453
30
0.0
11
0.018889
21
0.915598
31
0.0
0
LINE
8
FRONT_HID
6
HIDDEN
10
0.018889
20
0.915598
30
0.0
11
0.018725
21
0.915743
31
0.0
0
LINE
8
FRONT_HID
6
HIDDEN
10
0.018725
20
0.915743
30
0.0
11
0.018563
21
0.915888
31
0.0
0
LINE
8
FRONT_HID
6
HIDDEN
10
0.018563
20
0.915888
30
0.0
11
0.018401
21
0.916035
31
0.0
0
LINE
8
FRONT_HID
6
HIDDEN
10
0.018401
20
0.916035
30
0.0
11
0.018240
21
0.916183
31
0.0
0
LINE
8
FRONT_HID
6
HIDDEN
10
0.018240
20
0.916183
30
0.0
11
0.018080
21
0.916332
31
0.0
0
LINE
8
FRONT_HID
6
HIDDEN
10
0.018080
20
0.916332
30
0.0
11
0.017921
21
0.916482
31
0.0
0
LINE
8
FRONT_HID
6
HIDDEN
10
0.017921
20
0.916482
30
0.0
11
0.017762
21
0.916632
31
0.0
0
LINE
8
FRONT_HID
6
HIDDEN
10
0.017762
20
0.916632
30
0.0
11
0.017605
21
0.916784
31
0.0
0
LINE
8
FRONT_HID
6
HIDDEN
10
0.017605
20
0.916784
30
0.0
11
0.017448
21
0.916937
31
0.0
0
LINE
8
FRONT_HID
6
HIDDEN
10
0.017448
20
0.916937
30
0.0
11
0.017293
21
0.917090
31
0.0
0
LINE
8
FRONT_HID
6
HIDDEN
10
0.017293
20
0.917090
30
0.0
11
0.017138
21
0.917244
31
0.0
0
LINE
8
FRONT_HID
6
HIDDEN
10
0.017138
20
0.917244
30
0.0
11
0.016984
21
0.917400
31
0.0
0
LINE
8
FRONT_HID
6
HIDDEN
10
0.016984
20
0.917400
30
0.0
11
0.016831
21
0.917556
31
0.0
0
LINE
8
FRONT_HID
6
HIDDEN
10
0.016831
20
0.917556
30
0.0
11
0.016680
21
0.917713
31
0.0
0
LINE
8
FRONT_HID
6
HIDDEN
10
0.016680
20
0.917713
30
0.0
11
0.016529
21
0.917871
31
0.0
0
LINE
8
FRONT_HID
6
HIDDEN
10
0.016529
20
0.917871
30
0.0
11
0.016378
21
0.918030
31
0.0
0
LINE
8
FRONT_HID
6
HIDDEN
10
0.016378
20
0.918030
30
0.0
11
0.016229
21
0.918189
31
0.0
0
LINE
8
FRONT_HID
6
HIDDEN
10
0.016229
20
0.918189
30
0.0
11
0.016081
21
0.918350
31
0.0
0
LINE
8
FRONT_HID
6
HIDDEN
10
0.016081
20
0.918350
30
0.0
11
0.015934
21
0.918512
31
0.0
0
LINE
8
FRONT_HID
6
HIDDEN
10
0.015934
20
0.918512
30
0.0
11
0.015788
21
0.918674
31
0.0
0
LINE
8
FRONT_HID
6
HIDDEN
10
0.015788
20
0.918674
30
0.0
11
0.015642
21
0.918837
31
0.0
0
LINE
8
FRONT_HID
6
HIDDEN
10
0.015642
20
0.918837
30
0.0
11
0.015498
21
0.919001
31
0.0
0
LINE
8
FRONT_HID
6
HIDDEN
10
0.015498
20
0.919001
30
0.0
11
0.015354
21
0.919166
31
0.0
0
LINE
8
FRONT_HID
6
HIDDEN
10
0.015354
20
0.919166
30
0.0
11
0.015212
21
0.919332
31
0.0
0
LINE
8
FRONT_HID
6
HIDDEN
10
0.015212
20
0.919332
30
0.0
11
0.015071
21
0.919498
31
0.0
0
LINE
8
FRONT_HID
6
HIDDEN
10
0.015071
20
0.919498
30
0.0
11
0.014930
21
0.919666
31
0.0
0
LINE
8
FRONT_HID
6
HIDDEN
10
0.043413
20
0.906332
30
0.0
11
0.043116
21
0.906333
31
0.0
0
LINE
8
FRONT_HID
6
HIDDEN
10
0.043116
20
0.906333
30
0.0
11
0.042819
21
0.906337
31
0.0
0
LINE
8
FRONT_HID
6
HIDDEN
10
0.042819
20
0.906337
30
0.0
11
0.042522
21
0.906343
31
0.0
0
LINE
8
FRONT_HID
6
HIDDEN
10
0.042522
20
0.906343
30
0.0
11
0.042225
21
0.906351
31
0.0
0
LINE
8
FRONT_HID
6
HIDDEN
10
0.042225
20
0.906351
30
0.0
11
0.041928
21
0.906362
31
0.0
0
LINE
8
FRONT_HID
6
HIDDEN
10
0.041928
20
0.906362
30
0.0
11
0.041632
21
0.906375
31
0.0
0
LINE
8
FRONT_HID
6
HIDDEN
10
0.041632
20
0.906375
30
0.0
11
0.041335
21
0.906390
31
0.0
0
LINE
8
FRONT_HID
6
HIDDEN
10
0.041335
20
0.906390
30
0.0
11
0.041039
21
0.906408
31
0.0
0
LINE
8
FRONT_HID
6
HIDDEN
10
0.041039
20
0.906408
30
0.0
11
0.040743
21
0.906428
31
0.0
0
LINE
8
FRONT_HID
6
HIDDEN
10
0.040743
20
0.906428
30
0.0
11
0.040446
21
0.906451
31
0.0
0
LINE
8
FRONT_HID
6
HIDDEN
10
0.040446
20
0.906451
30
0.0
11
0.040150
21
0.906476
31
0.0
0
LINE
8
FRONT_HID
6
HIDDEN
10
0.040150
20
0.906476
30
0.0
11
0.039855
21
0.906503
31
0.0
0
LINE
8
FRONT_HID
6
HIDDEN
10
0.039855
20
0.906503
30
0.0
11
0.039559
21
0.906533
31
0.0
0
LINE
8
FRONT_HID
6
HIDDEN
10
0.039559
20
0.906533
30
0.0
11
0.039264
21
0.906565
31
0.0
0
LINE
8
FRONT_HID
6
HIDDEN
10
0.039264
20
0.906565
30
0.0
11
0.038969
21
0.906599
31
0.0
0
LINE
8
FRONT_HID
6
HIDDEN
10
0.038969
20
0.906599
30
0.0
11
0.038674
21
0.906636
31
0.0
0
LINE
8
FRONT_HID
6
HIDDEN
10
0.038674
20
0.906636
30
0.0
11
0.038380
21
0.906675
31
0.0
0
LINE
8
FRONT_HID
6
HIDDEN
10
0.038380
20
0.906675
30
0.0
11
0.038086
21
0.906717
31
0.0
0
LINE
8
FRONT_HID
6
HIDDEN
10
0.038086
20
0.906717
30
0.0
11
0.037792
21
0.906761
31
0.0
0
LINE
8
FRONT_HID
6
HIDDEN
10
0.037792
20
0.906761
30
0.0
11
0.037499
21
0.906807
31
0.0
0
LINE
8
FRONT_HID
6
HIDDEN
10
0.037499
20
0.906807
30
0.0
11
0.037206
21
0.906855
31
0.0
0
LINE
8
FRONT_HID
6
HIDDEN
10
0.037206
20
0.906855
30
0.0
11
0.036913
21
0.906906
31
0.0
0
LINE
8
FRONT_HID
6
HIDDEN
10
0.036913
20
0.906906
30
0.0
11
0.036621
21
0.906959
31
0.0
0
LINE
8
FRONT_HID
6
HIDDEN
10
0.036621
20
0.906959
30
0.0
11
0.036330
21
0.907015
31
0.0
0
LINE
8
FRONT_HID
6
HIDDEN
10
0.036330
20
0.907015
30
0.0
11
0.036038
21
0.907073
31
0.0
0
LINE
8
FRONT_HID
6
HIDDEN
10
0.036038
20
0.907073
30
0.0
11
0.035747
21
0.907133
31
0.0
0
LINE
8
FRONT_HID
6
HIDDEN
10
0.035747
20
0.907133
30
0.0
11
0.035457
21
0.907196
31
0.0
0
LINE
8
FRONT_HID
6
HIDDEN
10
0.035457
20
0.907196
30
0.0
11
0.035167
21
0.907260
31
0.0
0
LINE
8
FRONT_HID
6
HIDDEN
10
0.035167
20
0.907260
30
0.0
11
0.034878
21
0.907328
31
0.0
0
LINE
8
FRONT_HID
6
HIDDEN
10
0.034878
20
0.907328
30
0.0
11
0.034589
21
0.907397
31
0.0
0
LINE
8
FRONT_HID
6
HIDDEN
10
0.034589
20
0.907397
30
0.0
11
0.034301
21
0.907469
31
0.0
0
LINE
8
FRONT_HID
6
HIDDEN
10
0.034301
20
0.907469
30
0.0
11
0.034014
21
0.907543
31
0.0
0
LINE
8
FRONT_HID
6
HIDDEN
10
0.034014
20
0.907543
30
0.0
11
0.033727
21
0.907619
31
0.0
0
LINE
8
FRONT_HID
6
HIDDEN
10
0.033727
20
0.907619
30
0.0
11
0.033440
21
0.907698
31
0.0
0
LINE
8
FRONT_HID
6
HIDDEN
10
0.033440
20
0.907698
30
0.0
11
0.033155
21
0.907779
31
0.0
0
LINE
8
FRONT_HID
6
HIDDEN
10
0.033155
20
0.907779
30
0.0
11
0.032870
21
0.907862
31
0.0
0
LINE
8
FRONT_HID
6
HIDDEN
10
0.032870
20
0.907862
30
0.0
11
0.032585
21
0.907948
31
0.0
0
LINE
8
FRONT_HID
6
HIDDEN
10
0.032585
20
0.907948
30
0.0
11
0.032302
21
0.908036
31
0.0
0
LINE
8
FRONT_HID
6
HIDDEN
10
0.032302
20
0.908036
30
0.0
11
0.032019
21
0.908126
31
0.0
0
LINE
8
FRONT_HID
6
HIDDEN
10
0.032019
20
0.908126
30
0.0
11
0.031736
21
0.908218
31
0.0
0
LINE
8
FRONT_HID
6
HIDDEN
10
0.031736
20
0.908218
30
0.0
11
0.031455
21
0.908313
31
0.0
0
LINE
8
FRONT_HID
6
HIDDEN
10
0.031455
20
0.908313
30
0.0
11
0.031174
21
0.908410
31
0.0
0
LINE
8
FRONT_HID
6
HIDDEN
10
0.031174
20
0.908410
30
0.0
11
0.030894
21
0.908509
31
0.0
0
LINE
8
FRONT_HID
6
HIDDEN
10
0.030894
20
0.908509
30
0.0
11
0.030615
21
0.908610
31
0.0
0
LINE
8
FRONT_HID
6
HIDDEN
10
0.030615
20
0.908610
30
0.0
11
0.030337
21
0.908714
31
0.0
0
LINE
8
FRONT_HID
6
HIDDEN
10
0.030337
20
0.908714
30
0.0
11
0.030059
21
0.908820
31
0.0
0
LINE
8
FRONT_HID
6
HIDDEN
10
0.030059
20
0.908820
30
0.0
11
0.029783
21
0.908928
31
0.0
0
LINE
8
FRONT_HID
6
HIDDEN
10
0.029783
20
0.908928
30
0.0
11
0.029507
21
0.909038
31
0.0
0
LINE
8
FRONT_HID
6
HIDDEN
10
0.029507
20
0.909038
30
0.0
11
0.029232
21
0.909150
31
0.0
0
LINE
8
FRONT_HID
6
HIDDEN
10
0.029232
20
0.909150
30
0.0
11
0.028958
21
0.909265
31
0.0
0
LINE
8
FRONT_HID
6
HIDDEN
10
0.028958
20
0.909265
30
0.0
11
0.028685
21
0.909382
31
0.0
0
LINE
8
FRONT_HID
6
HIDDEN
10
0.028685
20
0.909382
30
0.0
11
0.028413
21
0.909501
31
0.0
0
LINE
8
FRONT_HID
6
HIDDEN
10
0.028413
20
0.909501
30
0.0
11
0.028142
21
0.909622
31
0.0
0
LINE
8
FRONT_HID
6
HIDDEN
10
0.028142
20
0.909622
30
0.0
11
0.027872
21
0.909745
31
0.0
0
LINE
8
FRONT_HID
6
HIDDEN
10
0.027872
20
0.909745
30
0.0
11
0.027603
21
0.909871
31
0.0
0
LINE
8
FRONT_HID
6
HIDDEN
10
0.027603
20
0.909871
30
0.0
11
0.027335
21
0.909999
31
0.0
0
LINE
8
FRONT_HID
6
HIDDEN
10
0.027335
20
0.909999
30
0.0
11
0.027067
21
0.910128
31
0.0
0
LINE
8
FRONT_HID
6
HIDDEN
10
0.027067
20
0.910128
30
0.0
11
0.026801
21
0.910260
31
0.0
0
LINE
8
FRONT_HID
6
HIDDEN
10
0.026801
20
0.910260
30
0.0
11
0.026536
21
0.910394
31
0.0
0
LINE
8
FRONT_HID
6
HIDDEN
10
0.026536
20
0.910394
30
0.0
11
0.026273
21
0.910531
31
0.0
0
LINE
8
FRONT_HID
6
HIDDEN
10
0.026273
20
0.910531
30
0.0
11
0.026010
21
0.910669
31
0.0
0
LINE
8
FRONT_HID
6
HIDDEN
10
0.026010
20
0.910669
30
0.0
11
0.025748
21
0.910809
31
0.0
0
LINE
8
FRONT_HID
6
HIDDEN
10
0.025748
20
0.910809
30
0.0
11
0.025487
21
0.910952
31
0.0
0
LINE
8
FRONT_HID
6
HIDDEN
10
0.043413
20
0.906332
30
0.0
11
0.038521
21
0.906656
31
0.0
0
LINE
8
FRONT_HID
6
HIDDEN
10
0.038521
20
0.906656
30
0.0
11
0.038234
21
0.906696
31
0.0
0
LINE
8
FRONT_HID
6
HIDDEN
10
0.038234
20
0.906696
30
0.0
11
0.037947
21
0.906737
31
0.0
0
LINE
8
FRONT_HID
6
HIDDEN
10
0.037947
20
0.906737
30
0.0
11
0.037660
21
0.906781
31
0.0
0
LINE
8
FRONT_HID
6
HIDDEN
10
0.037660
20
0.906781
30
0.0
11
0.037374
21
0.906827
31
0.0
0
LINE
8
FRONT_HID
6
HIDDEN
10
0.037374
20
0.906827
30
0.0
11
0.037088
21
0.906875
31
0.0
0
LINE
8
FRONT_HID
6
HIDDEN
10
0.037088
20
0.906875
30
0.0
11
0.036803
21
0.906926
31
0.0
0
LINE
8
FRONT_HID
6
HIDDEN
10
0.036803
20
0.906926
30
0.0
11
0.036518
21
0.906979
31
0.0
0
LINE
8
FRONT_HID
6
HIDDEN
10
0.036518
20
0.906979
30
0.0
11
0.036233
21
0.907034
31
0.0
0
LINE
8
FRONT_HID
6
HIDDEN
10
0.036233
20
0.907034
30
0.0
11
0.035949
21
0.907091
31
0.0
0
LINE
8
FRONT_HID
6
HIDDEN
10
0.035949
20
0.907091
30
0.0
11
0.035666
21
0.907150
31
0.0
0
LINE
8
FRONT_HID
6
HIDDEN
10
0.035666
20
0.907150
30
0.0
11
0.035383
21
0.907212
31
0.0
0
LINE
8
FRONT_HID
6
HIDDEN
10
0.035383
20
0.907212
30
0.0
11
0.035100
21
0.907276
31
0.0
0
LINE
8
FRONT_HID
6
HIDDEN
10
0.035100
20
0.907276
30
0.0
11
0.034818
21
0.907342
31
0.0
0
LINE
8
FRONT_HID
6
HIDDEN
10
0.034818
20
0.907342
30
0.0
11
0.034536
21
0.907410
31
0.0
0
LINE
8
FRONT_HID
6
HIDDEN
10
0.034536
20
0.907410
30
0.0
11
0.034255
21
0.907481
31
0.0
0
LINE
8
FRONT_HID
6
HIDDEN
10
0.034255
20
0.907481
30
0.0
11
0.033974
21
0.907553
31
0.0
0
LINE
8
FRONT_HID
6
HIDDEN
10
0.033974
20
0.907553
30
0.0
11
0.033694
21
0.907628
31
0.0
0
LINE
8
FRONT_HID
6
HIDDEN
10
0.033694
20
0.907628
30
0.0
11
0.033415
21
0.907705
31
0.0
0
LINE
8
FRONT_HID
6
HIDDEN
10
0.033415
20
0.907705
30
0.0
11
0.033136
21
0.907784
31
0.0
0
LINE
8
FRONT_HID
6
HIDDEN
10
0.033136
20
0.907784
30
0.0
11
0.032858
21
0.907866
31
0.0
0
LINE
8
FRONT_HID
6
HIDDEN
10
0.032858
20
0.907866
30
0.0
11
0.032581
21
0.907949
31
0.0
0
LINE
8
FRONT_HID
6
HIDDEN
10
0.032581
20
0.907949
30
0.0
11
0.032304
21
0.908035
31
0.0
0
LINE
8
FRONT_HID
6
HIDDEN
10
0.032304
20
0.908035
30
0.0
11
0.032028
21
0.908123
31
0.0
0
LINE
8
FRONT_HID
6
HIDDEN
10
0.032028
20
0.908123
30
0.0
11
0.031752
21
0.908213
31
0.0
0
LINE
8
FRONT_HID
6
HIDDEN
10
0.031752
20
0.908213
30
0.0
11
0.031477
21
0.908305
31
0.0
0
LINE
8
FRONT_HID
6
HIDDEN
10
0.031477
20
0.908305
30
0.0
11
0.031203
21
0.908400
31
0.0
0
LINE
8
FRONT_HID
6
HIDDEN
10
0.031203
20
0.908400
30
0.0
11
0.030930
21
0.908496
31
0.0
0
LINE
8
FRONT_HID
6
HIDDEN
10
0.030930
20
0.908496
30
0.0
11
0.030657
21
0.908595
31
0.0
0
LINE
8
FRONT_HID
6
HIDDEN
10
0.030657
20
0.908595
30
0.0
11
0.030386
21
0.908695
31
0.0
0
LINE
8
FRONT_HID
6
HIDDEN
10
0.030386
20
0.908695
30
0.0
11
0.030115
21
0.908798
31
0.0
0
LINE
8
FRONT_HID
6
HIDDEN
10
0.030115
20
0.908798
30
0.0
11
0.029845
21
0.908903
31
0.0
0
LINE
8
FRONT_HID
6
HIDDEN
10
0.029845
20
0.908903
30
0.0
11
0.029575
21
0.909010
31
0.0
0
LINE
8
FRONT_HID
6
HIDDEN
10
0.029575
20
0.909010
30
0.0
11
0.029307
21
0.909119
31
0.0
0
LINE
8
FRONT_HID
6
HIDDEN
10
0.029307
20
0.909119
30
0.0
11
0.029039
21
0.909231
31
0.0
0
LINE
8
FRONT_HID
6
HIDDEN
10
0.029039
20
0.909231
30
0.0
11
0.028773
21
0.909344
31
0.0
0
LINE
8
FRONT_HID
6
HIDDEN
10
0.028773
20
0.909344
30
0.0
11
0.028507
21
0.909460
31
0.0
0
LINE
8
FRONT_HID
6
HIDDEN
10
0.028507
20
0.909460
30
0.0
11
0.028242
21
0.909577
31
0.0
0
LINE
8
FRONT_HID
6
HIDDEN
10
0.028242
20
0.909577
30
0.0
11
0.027978
21
0.909697
31
0.0
0
LINE
8
FRONT_HID
6
HIDDEN
10
0.027978
20
0.909697
30
0.0
11
0.027715
21
0.909818
31
0.0
0
LINE
8
FRONT_HID
6
HIDDEN
10
0.027715
20
0.909818
30
0.0
11
0.027453
21
0.909942
31
0.0
0
LINE
8
FRONT_HID
6
HIDDEN
10
0.027453
20
0.909942
30
0.0
11
0.027192
21
0.910068
31
0.0
0
LINE
8
FRONT_HID
6
HIDDEN
10
0.027192
20
0.910068
30
0.0
11
0.026931
21
0.910195
31
0.0
0
LINE
8
FRONT_HID
6
HIDDEN
10
0.026931
20
0.910195
30
0.0
11
0.026672
21
0.910325
31
0.0
0
LINE
8
FRONT_HID
6
HIDDEN
10
0.026672
20
0.910325
30
0.0
11
0.026414
21
0.910457
31
0.0
0
LINE
8
FRONT_HID
6
HIDDEN
10
0.026414
20
0.910457
30
0.0
11
0.026157
21
0.910591
31
0.0
0
LINE
8
FRONT_HID
6
HIDDEN
10
0.026157
20
0.910591
30
0.0
11
0.025901
21
0.910727
31
0.0
0
LINE
8
FRONT_HID
6
HIDDEN
10
0.025901
20
0.910727
30
0.0
11
0.025646
21
0.910865
31
0.0
0
LINE
8
FRONT_HID
6
HIDDEN
10
0.025646
20
0.910865
30
0.0
11
0.025392
21
0.911004
31
0.0
0
LINE
8
FRONT_HID
6
HIDDEN
10
0.025392
20
0.911004
30
0.0
11
0.025140
21
0.911146
31
0.0
0
LINE
8
FRONT_HID
6
HIDDEN
10
0.025140
20
0.911146
30
0.0
11
0.024888
21
0.911290
31
0.0
0
LINE
8
FRONT_HID
6
HIDDEN
10
0.024888
20
0.911290
30
0.0
11
0.024637
21
0.911436
31
0.0
0
LINE
8
FRONT_HID
6
HIDDEN
10
0.024637
20
0.911436
30
0.0
11
0.024388
21
0.911583
31
0.0
0
LINE
8
FRONT_HID
6
HIDDEN
10
0.024388
20
0.911583
30
0.0
11
0.024140
21
0.911733
31
0.0
0
LINE
8
FRONT_HID
6
HIDDEN
10
0.024140
20
0.911733
30
0.0
11
0.023893
21
0.911885
31
0.0
0
LINE
8
FRONT_HID
6
HIDDEN
10
0.023893
20
0.911885
30
0.0
11
0.023647
21
0.912038
31
0.0
0
LINE
8
FRONT_HID
6
HIDDEN
10
0.023647
20
0.912038
30
0.0
11
0.023402
21
0.912193
31
0.0
0
LINE
8
FRONT_HID
6
HIDDEN
10
0.023402
20
0.912193
30
0.0
11
0.023159
21
0.912351
31
0.0
0
LINE
8
FRONT_HID
6
HIDDEN
10
0.023159
20
0.912351
30
0.0
11
0.022917
21
0.912510
31
0.0
0
LINE
8
FRONT_HID
6
HIDDEN
10
0.022917
20
0.912510
30
0.0
11
0.022676
21
0.912671
31
0.0
0
LINE
8
FRONT_HID
6
HIDDEN
10
0.022676
20
0.912671
30
0.0
11
0.022436
21
0.912834
31
0.0
0
LINE
8
FRONT_HID
6
HIDDEN
10
0.022436
20
0.912834
30
0.0
11
0.022198
21
0.912999
31
0.0
0
LINE
8
FRONT_HID
6
HIDDEN
10
0.022198
20
0.912999
30
0.0
11
0.021961
21
0.913166
31
0.0
0
LINE
8
FRONT_HID
6
HIDDEN
10
0.021961
20
0.913166
30
0.0
11
0.021725
21
0.913334
31
0.0
0
LINE
8
FRONT_HID
6
HIDDEN
10
0.021725
20
0.913334
30
0.0
11
0.021601
21
0.913424
31
0.0
0
LINE
8
FRONT_HID
6
HIDDEN
10
0.021601
20
0.913424
30
0.0
11
0.021476
21
0.913515
31
0.0
0
LINE
8
FRONT_HID
6
HIDDEN
10
0.021476
20
0.913515
30
0.0
11
0.021353
21
0.913606
31
0.0
0
LINE
8
FRONT_HID
6
HIDDEN
10
0.021353
20
0.913606
30
0.0
11
0.021229
21
0.913698
31
0.0
0
LINE
8
FRONT_HID
6
HIDDEN
10
0.021229
20
0.913698
30
0.0
11
0.021106
21
0.913790
31
0.0
0
LINE
8
FRONT_HID
6
HIDDEN
10
0.021106
20
0.913790
30
0.0
11
0.020983
21
0.913883
31
0.0
0
LINE
8
FRONT_HID
6
HIDDEN
10
0.020983
20
0.913883
30
0.0
11
0.020861
21
0.913976
31
0.0
0
LINE
8
FRONT_HID
6
HIDDEN
10
0.020861
20
0.913976
30
0.0
11
0.020739
21
0.914070
31
0.0
0
LINE
8
FRONT_HID
6
HIDDEN
10
0.020739
20
0.914070
30
0.0
11
0.020618
21
0.914164
31
0.0
0
LINE
8
FRONT_HID
6
HIDDEN
10
0.020618
20
0.914164
30
0.0
11
0.020497
21
0.914259
31
0.0
0
LINE
8
FRONT_HID
6
HIDDEN
10
0.020497
20
0.914259
30
0.0
11
0.020376
21
0.914354
31
0.0
0
LINE
8
FRONT_HID
6
HIDDEN
10
0.020376
20
0.914354
30
0.0
11
0.020256
21
0.914450
31
0.0
0
LINE
8
FRONT_HID
6
HIDDEN
10
0.020256
20
0.914450
30
0.0
11
0.020136
21
0.914546
31
0.0
0
LINE
8
FRONT_HID
6
HIDDEN
10
0.020136
20
0.914546
30
0.0
11
0.020016
21
0.914643
31
0.0
0
LINE
8
FRONT_HID
6
HIDDEN
10
0.020016
20
0.914643
30
0.0
11
0.019897
21
0.914740
31
0.0
0
LINE
8
FRONT_HID
6
HIDDEN
10
0.019897
20
0.914740
30
0.0
11
0.019779
21
0.914838
31
0.0
0
LINE
8
FRONT_HID
6
HIDDEN
10
0.019779
20
0.914838
30
0.0
11
0.019660
21
0.914936
31
0.0
0
LINE
8
FRONT_HID
6
HIDDEN
10
0.019660
20
0.914936
30
0.0
11
0.019542
21
0.915035
31
0.0
0
LINE
8
FRONT_HID
6
HIDDEN
10
0.019542
20
0.915035
30
0.0
11
0.019425
21
0.915134
31
0.0
0
LINE
8
FRONT_HID
6
HIDDEN
10
0.019425
20
0.915134
30
0.0
11
0.019308
21
0.915234
31
0.0
0
LINE
8
FRONT_HID
6
HIDDEN
10
0.019308
20
0.915234
30
0.0
11
0.019191
21
0.915334
31
0.0
0
LINE
8
FRONT_HID
6
HIDDEN
10
0.019191
20
0.915334
30
0.0
11
0.019075
21
0.915435
31
0.0
0
LINE
8
FRONT_HID
6
HIDDEN
10
0.019075
20
0.915435
30
0.0
11
0.018959
21
0.915536
31
0.0
0
LINE
8
FRONT_HID
6
HIDDEN
10
0.018959
20
0.915536
30
0.0
11
0.018844
21
0.915637
31
0.0
0
LINE
8
FRONT_HID
6
HIDDEN
10
0.018844
20
0.915637
30
0.0
11
0.018729
21
0.915739
31
0.0
0
LINE
8
FRONT_HID
6
HIDDEN
10
0.018729
20
0.915739
30
0.0
11
0.018614
21
0.915842
31
0.0
0
LINE
8
FRONT_HID
6
HIDDEN
10
0.018614
20
0.915842
30
0.0
11
0.018500
21
0.915945
31
0.0
0
LINE
8
FRONT_HID
6
HIDDEN
10
0.018500
20
0.915945
30
0.0
11
0.018386
21
0.916049
31
0.0
0
LINE
8
FRONT_HID
6
HIDDEN
10
0.018386
20
0.916049
30
0.0
11
0.018273
21
0.916153
31
0.0
0
LINE
8
FRONT_HID
6
HIDDEN
10
0.018273
20
0.916153
30
0.0
11
0.018160
21
0.916257
31
0.0
0
LINE
8
FRONT_HID
6
HIDDEN
10
0.018160
20
0.916257
30
0.0
11
0.018048
21
0.916362
31
0.0
0
LINE
8
FRONT_HID
6
HIDDEN
10
0.018048
20
0.916362
30
0.0
11
0.017936
21
0.916467
31
0.0
0
LINE
8
FRONT_HID
6
HIDDEN
10
0.017936
20
0.916467
30
0.0
11
0.017824
21
0.916573
31
0.0
0
LINE
8
FRONT_HID
6
HIDDEN
10
0.017824
20
0.916573
30
0.0
11
0.017713
21
0.916680
31
0.0
0
LINE
8
FRONT_HID
6
HIDDEN
10
0.017713
20
0.916680
30
0.0
11
0.017603
21
0.916786
31
0.0
0
LINE
8
FRONT_HID
6
HIDDEN
10
0.017603
20
0.916786
30
0.0
11
0.017492
21
0.916894
31
0.0
0
LINE
8
FRONT_HID
6
HIDDEN
10
0.017492
20
0.916894
30
0.0
11
0.017383
21
0.917001
31
0.0
0
LINE
8
FRONT_HID
6
HIDDEN
10
0.017383
20
0.917001
30
0.0
11
0.017273
21
0.917109
31
0.0
0
LINE
8
FRONT_HID
6
HIDDEN
10
0.017273
20
0.917109
30
0.0
11
0.017165
21
0.917218
31
0.0
0
LINE
8
FRONT_HID
6
HIDDEN
10
0.017165
20
0.917218
30
0.0
11
0.017056
21
0.917327
31
0.0
0
LINE
8
FRONT_HID
6
HIDDEN
10
0.017056
20
0.917327
30
0.0
11
0.016948
21
0.917436
31
0.0
0
LINE
8
FRONT_HID
6
HIDDEN
10
0.016948
20
0.917436
30
0.0
11
0.016841
21
0.917546
31
0.0
0
LINE
8
FRONT_HID
6
HIDDEN
10
0.016841
20
0.917546
30
0.0
11
0.016734
21
0.917657
31
0.0
0
LINE
8
FRONT_HID
6
HIDDEN
10
0.016734
20
0.917657
30
0.0
11
0.016627
21
0.917768
31
0.0
0
LINE
8
FRONT_HID
6
HIDDEN
10
0.016627
20
0.917768
30
0.0
11
0.016521
21
0.917879
31
0.0
0
LINE
8
FRONT_HID
6
HIDDEN
10
0.016521
20
0.917879
30
0.0
11
0.016415
21
0.917991
31
0.0
0
LINE
8
FRONT_HID
6
HIDDEN
10
0.016415
20
0.917991
30
0.0
11
0.016310
21
0.918103
31
0.0
0
LINE
8
FRONT_HID
6
HIDDEN
10
0.016310
20
0.918103
30
0.0
11
0.016205
21
0.918215
31
0.0
0
LINE
8
FRONT_HID
6
HIDDEN
10
0.016205
20
0.918215
30
0.0
11
0.016101
21
0.918328
31
0.0
0
LINE
8
FRONT_HID
6
HIDDEN
10
0.016101
20
0.918328
30
0.0
11
0.015997
21
0.918442
31
0.0
0
LINE
8
FRONT_HID
6
HIDDEN
10
0.015997
20
0.918442
30
0.0
11
0.015894
21
0.918556
31
0.0
0
LINE
8
FRONT_HID
6
HIDDEN
10
0.015894
20
0.918556
30
0.0
11
0.015791
21
0.918670
31
0.0
0
LINE
8
FRONT_HID
6
HIDDEN
10
0.015791
20
0.918670
30
0.0
11
0.015689
21
0.918785
31
0.0
0
LINE
8
FRONT_HID
6
HIDDEN
10
0.015689
20
0.918785
30
0.0
11
0.015587
21
0.918900
31
0.0
0
LINE
8
FRONT_HID
6
HIDDEN
10
0.015587
20
0.918900
30
0.0
11
0.015485
21
0.919015
31
0.0
0
LINE
8
FRONT_HID
6
HIDDEN
10
0.015485
20
0.919015
30
0.0
11
0.015384
21
0.919131
31
0.0
0
LINE
8
FRONT_HID
6
HIDDEN
10
0.015384
20
0.919131
30
0.0
11
0.015284
21
0.919248
31
0.0
0
LINE
8
FRONT_HID
6
HIDDEN
10
0.015284
20
0.919248
30
0.0
11
0.015184
21
0.919365
31
0.0
0
LINE
8
FRONT_HID
6
HIDDEN
10
0.015184
20
0.919365
30
0.0
11
0.015085
21
0.919482
31
0.0
0
LINE
8
FRONT_HID
6
HIDDEN
10
0.015085
20
0.919482
30
0.0
11
0.014986
21
0.919600
31
0.0
0
LINE
8
FRONT_HID
6
HIDDEN
10
0.014986
20
0.919600
30
0.0
11
0.014887
21
0.919718
31
0.0
0
LINE
8
FRONT_HID
6
HIDDEN
10
0.014887
20
0.919718
30
0.0
11
0.014789
21
0.919836
31
0.0
0
LINE
8
FRONT_HID
6
HIDDEN
10
0.014789
20
0.919836
30
0.0
11
0.014691
21
0.919955
31
0.0
0
LINE
8
FRONT_HID
6
HIDDEN
10
0.014691
20
0.966887
30
0.0
11
0.014188
21
0.966257
31
0.0
0
LINE
8
FRONT_HID
6
HIDDEN
10
0.014188
20
0.966257
30
0.0
11
0.013698
21
0.965616
31
0.0
0
LINE
8
FRONT_HID
6
HIDDEN
10
0.013698
20
0.965616
30
0.0
11
0.013223
21
0.964965
31
0.0
0
LINE
8
FRONT_HID
6
HIDDEN
10
0.013223
20
0.964965
30
0.0
11
0.012761
21
0.964303
31
0.0
0
LINE
8
FRONT_HID
6
HIDDEN
10
0.012761
20
0.964303
30
0.0
11
0.012314
21
0.963632
31
0.0
0
LINE
8
FRONT_HID
6
HIDDEN
10
0.012314
20
0.963632
30
0.0
11
0.011882
21
0.962951
31
0.0
0
LINE
8
FRONT_HID
6
HIDDEN
10
0.011882
20
0.962951
30
0.0
11
0.011465
21
0.962260
31
0.0
0
LINE
8
FRONT_HID
6
HIDDEN
10
0.011465
20
0.962260
30
0.0
11
0.011063
21
0.961561
31
0.0
0
LINE
8
FRONT_HID
6
HIDDEN
10
0.011063
20
0.961561
30
0.0
11
0.010676
21
0.960853
31
0.0
0
LINE
8
FRONT_HID
6
HIDDEN
10
0.010676
20
0.960853
30
0.0
11
0.010305
21
0.960137
31
0.0
0
LINE
8
FRONT_HID
6
HIDDEN
10
0.010305
20
0.960137
30
0.0
11
0.009949
21
0.959414
31
0.0
0
LINE
8
FRONT_HID
6
HIDDEN
10
0.009949
20
0.959414
30
0.0
11
0.009609
21
0.958682
31
0.0
0
LINE
8
FRONT_HID
6
HIDDEN
10
0.009609
20
0.958682
30
0.0
11
0.009285
21
0.957943
31
0.0
0
LINE
8
FRONT_HID
6
HIDDEN
10
0.009285
20
0.957943
30
0.0
11
0.008978
21
0.957198
31
0.0
0
LINE
8
FRONT_HID
6
HIDDEN
10
0.008978
20
0.957198
30
0.0
11
0.008686
21
0.956446
31
0.0
0
LINE
8
FRONT_HID
6
HIDDEN
10
0.008686
20
0.956446
30
0.0
11
0.008411
21
0.955688
31
0.0
0
LINE
8
FRONT_HID
6
HIDDEN
10
0.008411
20
0.955688
30
0.0
11
0.008153
21
0.954924
31
0.0
0
LINE
8
FRONT_HID
6
HIDDEN
10
0.008153
20
0.954924
30
0.0
11
0.007911
21
0.954154
31
0.0
0
LINE
8
FRONT_HID
6
HIDDEN
10
0.007911
20
0.954154
30
0.0
11
0.007686
21
0.953380
31
0.0
0
LINE
8
FRONT_HID
6
HIDDEN
10
0.007686
20
0.953380
30
0.0
11
0.007478
21
0.952600
31
0.0
0
LINE
8
FRONT_HID
6
HIDDEN
10
0.007478
20
0.952600
30
0.0
11
0.007287
21
0.951817
31
0.0
0
LINE
8
FRONT_HID
6
HIDDEN
10
0.007287
20
0.951817
30
0.0
11
0.007113
21
0.951029
31
0.0
0
LINE
8
FRONT_HID
6
HIDDEN
10
0.007113
20
0.951029
30
0.0
11
0.006956
21
0.950238
31
0.0
0
LINE
8
FRONT_HID
6
HIDDEN
10
0.006956
20
0.950238
30
0.0
11
0.006816
21
0.949444
31
0.0
0
LINE
8
FRONT_HID
6
HIDDEN
10
0.006816
20
0.949444
30
0.0
11
0.006694
21
0.948646
31
0.0
0
LINE
8
FRONT_HID
6
HIDDEN
10
0.006694
20
0.948646
30
0.0
11
0.006589
21
0.947847
31
0.0
0
LINE
8
FRONT_HID
6
HIDDEN
10
0.006589
20
0.947847
30
0.0
11
0.006502
21
0.947045
31
0.0
0
LINE
8
FRONT_HID
6
HIDDEN
10
0.006502
20
0.947045
30
0.0
11
0.006431
21
0.946241
31
0.0
0
LINE
8
FRONT_HID
6
HIDDEN
10
0.006431
20
0.946241
30
0.0
11
0.006379
21
0.945437
31
0.0
0
LINE
8
FRONT_HID
6
HIDDEN
10
0.006379
20
0.945437
30
0.0
11
0.006344
21
0.944631
31
0.0
0
LINE
8
FRONT_HID
6
HIDDEN
10
0.006344
20
0.944631
30
0.0
11
0.006326
21
0.943824
31
0.0
0
LINE
8
FRONT_HID
6
HIDDEN
10
0.006326
20
0.943824
30
0.0
11
0.006326
21
0.943018
31
0.0
0
LINE
8
FRONT_HID
6
HIDDEN
10
0.006326
20
0.943018
30
0.0
11
0.006344
21
0.942211
31
0.0
0
LINE
8
FRONT_HID
6
HIDDEN
10
0.006344
20
0.942211
30
0.0
11
0.006379
21
0.941406
31
0.0
0
LINE
8
FRONT_HID
6
HIDDEN
10
0.006379
20
0.941406
30
0.0
11
0.006431
21
0.940601
31
0.0
0
LINE
8
FRONT_HID
6
HIDDEN
10
0.006431
20
0.940601
30
0.0
11
0.006502
21
0.939797
31
0.0
0
LINE
8
FRONT_HID
6
HIDDEN
10
0.006502
20
0.939797
30
0.0
11
0.006589
21
0.938995
31
0.0
0
LINE
8
FRONT_HID
6
HIDDEN
10
0.006589
20
0.938995
30
0.0
11
0.006694
21
0.938196
31
0.0
0
LINE
8
FRONT_HID
6
HIDDEN
10
0.006694
20
0.938196
30
0.0
11
0.006816
21
0.937399
31
0.0
0
LINE
8
FRONT_HID
6
HIDDEN
10
0.006816
20
0.937399
30
0.0
11
0.006956
21
0.936604
31
0.0
0
LINE
8
FRONT_HID
6
HIDDEN
10
0.006956
20
0.936604
30
0.0
11
0.007113
21
0.935813
31
0.0
0
LINE
8
FRONT_HID
6
HIDDEN
10
0.007113
20
0.935813
30
0.0
11
0.007287
21
0.935025
31
0.0
0
LINE
8
FRONT_HID
6
HIDDEN
10
0.007287
20
0.935025
30
0.0
11
0.007478
21
0.934242
31
0.0
0
LINE
8
FRONT_HID
6
HIDDEN
10
0.007478
20
0.934242
30
0.0
11
0.007686
21
0.933463
31
0.0
0
LINE
8
FRONT_HID
6
HIDDEN
10
0.007686
20
0.933463
30
0.0
11
0.007911
21
0.932688
31
0.0
0
LINE
8
FRONT_HID
6
HIDDEN
10
0.007911
20
0.932688
30
0.0
11
0.008153
21
0.931919
31
0.0
0
LINE
8
FRONT_HID
6
HIDDEN
10
0.008153
20
0.931919
30
0.0
11
0.008411
21
0.931155
31
0.0
0
LINE
8
FRONT_HID
6
HIDDEN
10
0.008411
20
0.931155
30
0.0
11
0.008686
21
0.930396
31
0.0
0
LINE
8
FRONT_HID
6
HIDDEN
10
0.008686
20
0.930396
30
0.0
11
0.008978
21
0.929644
31
0.0
0
LINE
8
FRONT_HID
6
HIDDEN
10
0.008978
20
0.929644
30
0.0
11
0.009285
21
0.928899
31
0.0
0
LINE
8
FRONT_HID
6
HIDDEN
10
0.009285
20
0.928899
30
0.0
11
0.009609
21
0.928160
31
0.0
0
LINE
8
FRONT_HID
6
HIDDEN
10
0.009609
20
0.928160
30
0.0
11
0.009949
21
0.927429
31
0.0
0
LINE
8
FRONT_HID
6
HIDDEN
10
0.009949
20
0.927429
30
0.0
11
0.010305
21
0.926705
31
0.0
0
LINE
8
FRONT_HID
6
HIDDEN
10
0.010305
20
0.926705
30
0.0
11
0.010676
21
0.925989
31
0.0
0
LINE
8
FRONT_HID
6
HIDDEN
10
0.010676
20
0.925989
30
0.0
11
0.011063
21
0.925281
31
0.0
0
LINE
8
FRONT_HID
6
HIDDEN
10
0.011063
20
0.925281
30
0.0
11
0.011465
21
0.924582
31
0.0
0
LINE
8
FRONT_HID
6
HIDDEN
10
0.011465
20
0.924582
30
0.0
11
0.011882
21
0.923891
31
0.0
0
LINE
8
FRONT_HID
6
HIDDEN
10
0.011882
20
0.923891
30
0.0
11
0.012314
21
0.923210
31
0.0
0
LINE
8
FRONT_HID
6
HIDDEN
10
0.012314
20
0.923210
30
0.0
11
0.012761
21
0.922539
31
0.0
0
LINE
8
FRONT_HID
6
HIDDEN
10
0.012761
20
0.922539
30
0.0
11
0.013223
21
0.921877
31
0.0
0
LINE
8
FRONT_HID
6
HIDDEN
10
0.013223
20
0.921877
30
0.0
11
0.013698
21
0.921226
31
0.0
0
LINE
8
FRONT_HID
6
HIDDEN
10
0.013698
20
0.921226
30
0.0
11
0.014188
21
0.920585
31
0.0
0
LINE
8
FRONT_HID
6
HIDDEN
10
0.014188
20
0.920585
30
0.0
11
0.014691
21
0.919955
31
0.0
0
LINE
8
FRONT_HID
6
HIDDEN
10
0.014691
20
0.966887
30
0.0
11
0.014789
21
0.967006
31
0.0
0
LINE
8
FRONT_HID
6
HIDDEN
10
0.014789
20
0.967006
30
0.0
11
0.014887
21
0.967125
31
0.0
0
LINE
8
FRONT_HID
6
HIDDEN
10
0.014887
20
0.967125
30
0.0
11
0.014986
21
0.967243
31
0.0
0
LINE
8
FRONT_HID
6
HIDDEN
10
0.014986
20
0.967243
30
0.0
11
0.015085
21
0.967360
31
0.0
0
LINE
8
FRONT_HID
6
HIDDEN
10
0.015085
20
0.967360
30
0.0
11
0.015184
21
0.967477
31
0.0
0
LINE
8
FRONT_HID
6
HIDDEN
10
0.015184
20
0.967477
30
0.0
11
0.015284
21
0.967594
31
0.0
0
LINE
8
FRONT_HID
6
HIDDEN
10
0.015284
20
0.967594
30
0.0
11
0.015384
21
0.967711
31
0.0
0
LINE
8
FRONT_HID
6
HIDDEN
10
0.015384
20
0.967711
30
0.0
11
0.015485
21
0.967827
31
0.0
0
LINE
8
FRONT_HID
6
HIDDEN
10
0.015485
20
0.967827
30
0.0
11
0.015587
21
0.967942
31
0.0
0
LINE
8
FRONT_HID
6
HIDDEN
10
0.015587
20
0.967942
30
0.0
11
0.015689
21
0.968057
31
0.0
0
LINE
8
FRONT_HID
6
HIDDEN
10
0.015689
20
0.968057
30
0.0
11
0.015791
21
0.968172
31
0.0
0
LINE
8
FRONT_HID
6
HIDDEN
10
0.015791
20
0.968172
30
0.0
11
0.015894
21
0.968286
31
0.0
0
LINE
8
FRONT_HID
6
HIDDEN
10
0.015894
20
0.968286
30
0.0
11
0.015997
21
0.968400
31
0.0
0
LINE
8
FRONT_HID
6
HIDDEN
10
0.015997
20
0.968400
30
0.0
11
0.016101
21
0.968514
31
0.0
0
LINE
8
FRONT_HID
6
HIDDEN
10
0.016101
20
0.968514
30
0.0
11
0.016205
21
0.968627
31
0.0
0
LINE
8
FRONT_HID
6
HIDDEN
10
0.016205
20
0.968627
30
0.0
11
0.016310
21
0.968739
31
0.0
0
LINE
8
FRONT_HID
6
HIDDEN
10
0.016310
20
0.968739
30
0.0
11
0.016415
21
0.968851
31
0.0
0
LINE
8
FRONT_HID
6
HIDDEN
10
0.016415
20
0.968851
30
0.0
11
0.016521
21
0.968963
31
0.0
0
LINE
8
FRONT_HID
6
HIDDEN
10
0.016521
20
0.968963
30
0.0
11
0.016627
21
0.969074
31
0.0
0
LINE
8
FRONT_HID
6
HIDDEN
10
0.016627
20
0.969074
30
0.0
11
0.016734
21
0.969185
31
0.0
0
LINE
8
FRONT_HID
6
HIDDEN
10
0.016734
20
0.969185
30
0.0
11
0.016841
21
0.969296
31
0.0
0
LINE
8
FRONT_HID
6
HIDDEN
10
0.016841
20
0.969296
30
0.0
11
0.016948
21
0.969406
31
0.0
0
LINE
8
FRONT_HID
6
HIDDEN
10
0.016948
20
0.969406
30
0.0
11
0.017056
21
0.969515
31
0.0
0
LINE
8
FRONT_HID
6
HIDDEN
10
0.017056
20
0.969515
30
0.0
11
0.017165
21
0.969624
31
0.0
0
LINE
8
FRONT_HID
6
HIDDEN
10
0.017165
20
0.969624
30
0.0
11
0.017273
21
0.969733
31
0.0
0
LINE
8
FRONT_HID
6
HIDDEN
10
0.017273
20
0.969733
30
0.0
11
0.017383
21
0.969841
31
0.0
0
LINE
8
FRONT_HID
6
HIDDEN
10
0.017383
20
0.969841
30
0.0
11
0.017492
21
0.969949
31
0.0
0
LINE
8
FRONT_HID
6
HIDDEN
10
0.017492
20
0.969949
30
0.0
11
0.017603
21
0.970056
31
0.0
0
LINE
8
FRONT_HID
6
HIDDEN
10
0.017603
20
0.970056
30
0.0
11
0.017713
21
0.970163
31
0.0
0
LINE
8
FRONT_HID
6
HIDDEN
10
0.017713
20
0.970163
30
0.0
11
0.017824
21
0.970269
31
0.0
0
LINE
8
FRONT_HID
6
HIDDEN
10
0.017824
20
0.970269
30
0.0
11
0.017936
21
0.970375
31
0.0
0
LINE
8
FRONT_HID
6
HIDDEN
10
0.017936
20
0.970375
30
0.0
11
0.018048
21
0.970480
31
0.0
0
LINE
8
FRONT_HID
6
HIDDEN
10
0.018048
20
0.970480
30
0.0
11
0.018160
21
0.970585
31
0.0
0
LINE
8
FRONT_HID
6
HIDDEN
10
0.018160
20
0.970585
30
0.0
11
0.018273
21
0.970690
31
0.0
0
LINE
8
FRONT_HID
6
HIDDEN
10
0.018273
20
0.970690
30
0.0
11
0.018386
21
0.970794
31
0.0
0
LINE
8
FRONT_HID
6
HIDDEN
10
0.018386
20
0.970794
30
0.0
11
0.018500
21
0.970897
31
0.0
0
LINE
8
FRONT_HID
6
HIDDEN
10
0.018500
20
0.970897
30
0.0
11
0.018614
21
0.971000
31
0.0
0
LINE
8
FRONT_HID
6
HIDDEN
10
0.018614
20
0.971000
30
0.0
11
0.018729
21
0.971103
31
0.0
0
LINE
8
FRONT_HID
6
HIDDEN
10
0.018729
20
0.971103
30
0.0
11
0.018844
21
0.971205
31
0.0
0
LINE
8
FRONT_HID
6
HIDDEN
10
0.018844
20
0.971205
30
0.0
11
0.018959
21
0.971306
31
0.0
0
LINE
8
FRONT_HID
6
HIDDEN
10
0.018959
20
0.971306
30
0.0
11
0.019075
21
0.971408
31
0.0
0
LINE
8
FRONT_HID
6
HIDDEN
10
0.019075
20
0.971408
30
0.0
11
0.019191
21
0.971508
31
0.0
0
LINE
8
FRONT_HID
6
HIDDEN
10
0.019191
20
0.971508
30
0.0
11
0.019308
21
0.971608
31
0.0
0
LINE
8
FRONT_HID
6
HIDDEN
10
0.019308
20
0.971608
30
0.0
11
0.019425
21
0.971708
31
0.0
0
LINE
8
FRONT_HID
6
HIDDEN
10
0.019425
20
0.971708
30
0.0
11
0.019542
21
0.971807
31
0.0
0
LINE
8
FRONT_HID
6
HIDDEN
10
0.019542
20
0.971807
30
0.0
11
0.019660
21
0.971906
31
0.0
0
LINE
8
FRONT_HID
6
HIDDEN
10
0.019660
20
0.971906
30
0.0
11
0.019779
21
0.972004
31
0.0
0
LINE
8
FRONT_HID
6
HIDDEN
10
0.019779
20
0.972004
30
0.0
11
0.019897
21
0.972102
31
0.0
0
LINE
8
FRONT_HID
6
HIDDEN
10
0.019897
20
0.972102
30
0.0
11
0.020016
21
0.972199
31
0.0
0
LINE
8
FRONT_HID
6
HIDDEN
10
0.020016
20
0.972199
30
0.0
11
0.020136
21
0.972296
31
0.0
0
LINE
8
FRONT_HID
6
HIDDEN
10
0.020136
20
0.972296
30
0.0
11
0.020256
21
0.972392
31
0.0
0
LINE
8
FRONT_HID
6
HIDDEN
10
0.020256
20
0.972392
30
0.0
11
0.020376
21
0.972488
31
0.0
0
LINE
8
FRONT_HID
6
HIDDEN
10
0.020376
20
0.972488
30
0.0
11
0.020497
21
0.972583
31
0.0
0
LINE
8
FRONT_HID
6
HIDDEN
10
0.020497
20
0.972583
30
0.0
11
0.020618
21
0.972678
31
0.0
0
LINE
8
FRONT_HID
6
HIDDEN
10
0.020618
20
0.972678
30
0.0
11
0.020739
21
0.972772
31
0.0
0
LINE
8
FRONT_HID
6
HIDDEN
10
0.020739
20
0.972772
30
0.0
11
0.020861
21
0.972866
31
0.0
0
LINE
8
FRONT_HID
6
HIDDEN
10
0.020861
20
0.972866
30
0.0
11
0.020983
21
0.972959
31
0.0
0
LINE
8
FRONT_HID
6
HIDDEN
10
0.020983
20
0.972959
30
0.0
11
0.021106
21
0.973052
31
0.0
0
LINE
8
FRONT_HID
6
HIDDEN
10
0.021106
20
0.973052
30
0.0
11
0.021229
21
0.973144
31
0.0
0
LINE
8
FRONT_HID
6
HIDDEN
10
0.021229
20
0.973144
30
0.0
11
0.021353
21
0.973236
31
0.0
0
LINE
8
FRONT_HID
6
HIDDEN
10
0.021353
20
0.973236
30
0.0
11
0.021476
21
0.973327
31
0.0
0
LINE
8
FRONT_HID
6
HIDDEN
10
0.021476
20
0.973327
30
0.0
11
0.021601
21
0.973418
31
0.0
0
LINE
8
FRONT_HID
6
HIDDEN
10
0.021601
20
0.973418
30
0.0
11
0.021725
21
0.973508
31
0.0
0
LINE
8
FRONT_HID
6
HIDDEN
10
0.021725
20
0.973508
30
0.0
11
0.021961
21
0.973676
31
0.0
0
LINE
8
FRONT_HID
6
HIDDEN
10
0.021961
20
0.973676
30
0.0
11
0.022198
21
0.973843
31
0.0
0
LINE
8
FRONT_HID
6
HIDDEN
10
0.022198
20
0.973843
30
0.0
11
0.022436
21
0.974008
31
0.0
0
LINE
8
FRONT_HID
6
HIDDEN
10
0.022436
20
0.974008
30
0.0
11
0.022676
21
0.974171
31
0.0
0
LINE
8
FRONT_HID
6
HIDDEN
10
0.022676
20
0.974171
30
0.0
11
0.022917
21
0.974332
31
0.0
0
LINE
8
FRONT_HID
6
HIDDEN
10
0.022917
20
0.974332
30
0.0
11
0.023159
21
0.974491
31
0.0
0
LINE
8
FRONT_HID
6
HIDDEN
10
0.023159
20
0.974491
30
0.0
11
0.023402
21
0.974649
31
0.0
0
LINE
8
FRONT_HID
6
HIDDEN
10
0.023402
20
0.974649
30
0.0
11
0.023647
21
0.974804
31
0.0
0
LINE
8
FRONT_HID
6
HIDDEN
10
0.023647
20
0.974804
30
0.0
11
0.023893
21
0.974958
31
0.0
0
LINE
8
FRONT_HID
6
HIDDEN
10
0.023893
20
0.974958
30
0.0
11
0.024140
21
0.975109
31
0.0
0
LINE
8
FRONT_HID
6
HIDDEN
10
0.024140
20
0.975109
30
0.0
11
0.024388
21
0.975259
31
0.0
0
LINE
8
FRONT_HID
6
HIDDEN
10
0.024388
20
0.975259
30
0.0
11
0.024637
21
0.975406
31
0.0
0
LINE
8
FRONT_HID
6
HIDDEN
10
0.024637
20
0.975406
30
0.0
11
0.024888
21
0.975552
31
0.0
0
LINE
8
FRONT_HID
6
HIDDEN
10
0.024888
20
0.975552
30
0.0
11
0.025140
21
0.975696
31
0.0
0
LINE
8
FRONT_HID
6
HIDDEN
10
0.025140
20
0.975696
30
0.0
11
0.025392
21
0.975838
31
0.0
0
LINE
8
FRONT_HID
6
HIDDEN
10
0.025392
20
0.975838
30
0.0
11
0.025646
21
0.975978
31
0.0
0
LINE
8
FRONT_HID
6
HIDDEN
10
0.025646
20
0.975978
30
0.0
11
0.025901
21
0.976115
31
0.0
0
LINE
8
FRONT_HID
6
HIDDEN
10
0.025901
20
0.976115
30
0.0
11
0.026157
21
0.976251
31
0.0
0
LINE
8
FRONT_HID
6
HIDDEN
10
0.026157
20
0.976251
30
0.0
11
0.026414
21
0.976385
31
0.0
0
LINE
8
FRONT_HID
6
HIDDEN
10
0.026414
20
0.976385
30
0.0
11
0.026672
21
0.976517
31
0.0
0
LINE
8
FRONT_HID
6
HIDDEN
10
0.026672
20
0.976517
30
0.0
11
0.026931
21
0.976647
31
0.0
0
LINE
8
FRONT_HID
6
HIDDEN
10
0.026931
20
0.976647
30
0.0
11
0.027192
21
0.976774
31
0.0
0
LINE
8
FRONT_HID
6
HIDDEN
10
0.027192
20
0.976774
30
0.0
11
0.027453
21
0.976900
31
0.0
0
LINE
8
FRONT_HID
6
HIDDEN
10
0.027453
20
0.976900
30
0.0
11
0.027715
21
0.977024
31
0.0
0
LINE
8
FRONT_HID
6
HIDDEN
10
0.027715
20
0.977024
30
0.0
11
0.027978
21
0.977145
31
0.0
0
LINE
8
FRONT_HID
6
HIDDEN
10
0.027978
20
0.977145
30
0.0
11
0.028242
21
0.977265
31
0.0
0
LINE
8
FRONT_HID
6
HIDDEN
10
0.028242
20
0.977265
30
0.0
11
0.028507
21
0.977383
31
0.0
0
LINE
8
FRONT_HID
6
HIDDEN
10
0.028507
20
0.977383
30
0.0
11
0.028773
21
0.977498
31
0.0
0
LINE
8
FRONT_HID
6
HIDDEN
10
0.028773
20
0.977498
30
0.0
11
0.029039
21
0.977611
31
0.0
0
LINE
8
FRONT_HID
6
HIDDEN
10
0.029039
20
0.977611
30
0.0
11
0.029307
21
0.977723
31
0.0
0
LINE
8
FRONT_HID
6
HIDDEN
10
0.029307
20
0.977723
30
0.0
11
0.029575
21
0.977832
31
0.0
0
LINE
8
FRONT_HID
6
HIDDEN
10
0.029575
20
0.977832
30
0.0
11
0.029845
21
0.977939
31
0.0
0
LINE
8
FRONT_HID
6
HIDDEN
10
0.029845
20
0.977939
30
0.0
11
0.030115
21
0.978044
31
0.0
0
LINE
8
FRONT_HID
6
HIDDEN
10
0.030115
20
0.978044
30
0.0
11
0.030386
21
0.978147
31
0.0
0
LINE
8
FRONT_HID
6
HIDDEN
10
0.030386
20
0.978147
30
0.0
11
0.030657
21
0.978247
31
0.0
0
LINE
8
FRONT_HID
6
HIDDEN
10
0.030657
20
0.978247
30
0.0
11
0.030930
21
0.978346
31
0.0
0
LINE
8
FRONT_HID
6
HIDDEN
10
0.030930
20
0.978346
30
0.0
11
0.031203
21
0.978443
31
0.0
0
LINE
8
FRONT_HID
6
HIDDEN
10
0.031203
20
0.978443
30
0.0
11
0.031477
21
0.978537
31
0.0
0
LINE
8
FRONT_HID
6
HIDDEN
10
0.031477
20
0.978537
30
0.0
11
0.031752
21
0.978629
31
0.0
0
LINE
8
FRONT_HID
6
HIDDEN
10
0.031752
20
0.978629
30
0.0
11
0.032028
21
0.978719
31
0.0
0
LINE
8
FRONT_HID
6
HIDDEN
10
0.032028
20
0.978719
30
0.0
11
0.032304
21
0.978807
31
0.0
0
LINE
8
FRONT_HID
6
HIDDEN
10
0.032304
20
0.978807
30
0.0
11
0.032581
21
0.978893
31
0.0
0
LINE
8
FRONT_HID
6
HIDDEN
10
0.032581
20
0.978893
30
0.0
11
0.032858
21
0.978976
31
0.0
0
LINE
8
FRONT_HID
6
HIDDEN
10
0.032858
20
0.978976
30
0.0
11
0.033136
21
0.979058
31
0.0
0
LINE
8
FRONT_HID
6
HIDDEN
10
0.033136
20
0.979058
30
0.0
11
0.033415
21
0.979137
31
0.0
0
LINE
8
FRONT_HID
6
HIDDEN
10
0.033415
20
0.979137
30
0.0
11
0.033694
21
0.979214
31
0.0
0
LINE
8
FRONT_HID
6
HIDDEN
10
0.033694
20
0.979214
30
0.0
11
0.033974
21
0.979289
31
0.0
0
LINE
8
FRONT_HID
6
HIDDEN
10
0.033974
20
0.979289
30
0.0
11
0.034255
21
0.979361
31
0.0
0
LINE
8
FRONT_HID
6
HIDDEN
10
0.034255
20
0.979361
30
0.0
11
0.034536
21
0.979432
31
0.0
0
LINE
8
FRONT_HID
6
HIDDEN
10
0.034536
20
0.979432
30
0.0
11
0.034818
21
0.979500
31
0.0
0
LINE
8
FRONT_HID
6
HIDDEN
10
0.034818
20
0.979500
30
0.0
11
0.035100
21
0.979566
31
0.0
0
LINE
8
FRONT_HID
6
HIDDEN
10
0.035100
20
0.979566
30
0.0
11
0.035383
21
0.979630
31
0.0
0
LINE
8
FRONT_HID
6
HIDDEN
10
0.035383
20
0.979630
30
0.0
11
0.035666
21
0.979692
31
0.0
0
LINE
8
FRONT_HID
6
HIDDEN
10
0.035666
20
0.979692
30
0.0
11
0.035949
21
0.979751
31
0.0
0
LINE
8
FRONT_HID
6
HIDDEN
10
0.035949
20
0.979751
30
0.0
11
0.036233
21
0.979808
31
0.0
0
LINE
8
FRONT_HID
6
HIDDEN
10
0.036233
20
0.979808
30
0.0
11
0.036518
21
0.979863
31
0.0
0
LINE
8
FRONT_HID
6
HIDDEN
10
0.036518
20
0.979863
30
0.0
11
0.036803
21
0.979916
31
0.0
0
LINE
8
FRONT_HID
6
HIDDEN
10
0.036803
20
0.979916
30
0.0
11
0.037088
21
0.979967
31
0.0
0
LINE
8
FRONT_HID
6
HIDDEN
10
0.037088
20
0.979967
30
0.0
11
0.037374
21
0.980015
31
0.0
0
LINE
8
FRONT_HID
6
HIDDEN
10
0.037374
20
0.980015
30
0.0
11
0.037660
21
0.980061
31
0.0
0
LINE
8
FRONT_HID
6
HIDDEN
10
0.037660
20
0.980061
30
0.0
11
0.037947
21
0.980105
31
0.0
0
LINE
8
FRONT_HID
6
HIDDEN
10
0.037947
20
0.980105
30
0.0
11
0.038234
21
0.980146
31
0.0
0
LINE
8
FRONT_HID
6
HIDDEN
10
0.038234
20
0.980146
30
0.0
11
0.038521
21
0.980186
31
0.0
0
LINE
8
FRONT_HID
6
HIDDEN
10
0.038521
20
0.980186
30
0.0
11
0.040437
21
0.980390
31
0.0
0
LINE
8
FRONT_HID
6
HIDDEN
10
0.040437
20
0.980390
30
0.0
11
0.042361
21
0.980495
31
0.0
0
LINE
8
FRONT_HID
6
HIDDEN
10
0.042361
20
0.980495
30
0.0
11
0.044288
21
0.980500
31
0.0
0
LINE
8
FRONT_HID
6
HIDDEN
10
0.044288
20
0.980500
30
0.0
11
0.046213
21
0.980404
31
0.0
0
LINE
8
FRONT_HID
6
HIDDEN
10
0.046213
20
0.980404
30
0.0
11
0.048130
21
0.980209
31
0.0
0
LINE
8
FRONT_HID
6
HIDDEN
10
0.048130
20
0.980209
30
0.0
11
0.050035
21
0.979914
31
0.0
0
LINE
8
FRONT_HID
6
HIDDEN
10
0.050035
20
0.979914
30
0.0
11
0.051922
21
0.979521
31
0.0
0
LINE
8
FRONT_HID
6
HIDDEN
10
0.051922
20
0.979521
30
0.0
11
0.053785
21
0.979030
31
0.0
0
LINE
8
FRONT_HID
6
HIDDEN
10
0.053785
20
0.979030
30
0.0
11
0.055621
21
0.978443
31
0.0
0
LINE
8
FRONT_HID
6
HIDDEN
10
0.055621
20
0.978443
30
0.0
11
0.057423
21
0.977762
31
0.0
0
LINE
8
FRONT_HID
6
HIDDEN
10
0.057423
20
0.977762
30
0.0
11
0.059188
21
0.976988
31
0.0
0
LINE
8
FRONT_HID
6
HIDDEN
10
0.059188
20
0.976988
30
0.0
11
0.060911
21
0.976123
31
0.0
0
LINE
8
FRONT_HID
6
HIDDEN
10
0.060911
20
0.976123
30
0.0
11
0.062586
21
0.975170
31
0.0
0
LINE
8
FRONT_HID
6
HIDDEN
10
0.062586
20
0.975170
30
0.0
11
0.064209
21
0.974131
31
0.0
0
LINE
8
FRONT_HID
6
HIDDEN
10
0.064209
20
0.974131
30
0.0
11
0.065776
21
0.973009
31
0.0
0
LINE
8
FRONT_HID
6
HIDDEN
10
0.065776
20
0.973009
30
0.0
11
0.067283
21
0.971808
31
0.0
0
LINE
8
FRONT_HID
6
HIDDEN
10
0.067283
20
0.971808
30
0.0
11
0.068725
21
0.970530
31
0.0
0
LINE
8
FRONT_HID
6
HIDDEN
10
0.068725
20
0.970530
30
0.0
11
0.070099
21
0.969178
31
0.0
0
LINE
8
FRONT_HID
6
HIDDEN
10
0.070099
20
0.969178
30
0.0
11
0.071401
21
0.967757
31
0.0
0
LINE
8
FRONT_HID
6
HIDDEN
10
0.071401
20
0.967757
30
0.0
11
0.072627
21
0.966271
31
0.0
0
LINE
8
FRONT_HID
6
HIDDEN
10
0.072627
20
0.966271
30
0.0
11
0.073775
21
0.964722
31
0.0
0
LINE
8
FRONT_HID
6
HIDDEN
10
0.073775
20
0.964722
30
0.0
11
0.074840
21
0.963117
31
0.0
0
LINE
8
FRONT_HID
6
HIDDEN
10
0.074840
20
0.963117
30
0.0
11
0.075821
21
0.961458
31
0.0
0
LINE
8
FRONT_HID
6
HIDDEN
10
0.075821
20
0.961458
30
0.0
11
0.076714
21
0.959750
31
0.0
0
LINE
8
FRONT_HID
6
HIDDEN
10
0.076714
20
0.959750
30
0.0
11
0.077517
21
0.957998
31
0.0
0
LINE
8
FRONT_HID
6
HIDDEN
10
0.077517
20
0.957998
30
0.0
11
0.078228
21
0.956207
31
0.0
0
LINE
8
FRONT_HID
6
HIDDEN
10
0.078228
20
0.956207
30
0.0
11
0.078845
21
0.954381
31
0.0
0
LINE
8
FRONT_HID
6
HIDDEN
10
0.078845
20
0.954381
30
0.0
11
0.079367
21
0.952526
31
0.0
0
LINE
8
FRONT_HID
6
HIDDEN
10
0.079367
20
0.952526
30
0.0
11
0.079791
21
0.950646
31
0.0
0
LINE
8
FRONT_HID
6
HIDDEN
10
0.079791
20
0.950646
30
0.0
11
0.080117
21
0.948747
31
0.0
0
LINE
8
FRONT_HID
6
HIDDEN
10
0.080117
20
0.948747
30
0.0
11
0.080344
21
0.946833
31
0.0
0
LINE
8
FRONT_HID
6
HIDDEN
10
0.080344
20
0.946833
30
0.0
11
0.080472
21
0.944910
31
0.0
0
LINE
8
FRONT_HID
6
HIDDEN
10
0.080472
20
0.944910
30
0.0
11
0.080499
21
0.942983
31
0.0
0
LINE
8
FRONT_HID
6
HIDDEN
10
0.080499
20
0.942983
30
0.0
11
0.080426
21
0.941057
31
0.0
0
LINE
8
FRONT_HID
6
HIDDEN
10
0.080426
20
0.941057
30
0.0
11
0.080254
21
0.939138
31
0.0
0
LINE
8
FRONT_HID
6
HIDDEN
10
0.080254
20
0.939138
30
0.0
11
0.079981
21
0.937230
31
0.0
0
LINE
8
FRONT_HID
6
HIDDEN
10
0.079981
20
0.937230
30
0.0
11
0.079610
21
0.935339
31
0.0
0
LINE
8
FRONT_HID
6
HIDDEN
10
0.079610
20
0.935339
30
0.0
11
0.079142
21
0.933470
31
0.0
0
LINE
8
FRONT_HID
6
HIDDEN
10
0.079142
20
0.933470
30
0.0
11
0.078577
21
0.931627
31
0.0
0
LINE
8
FRONT_HID
6
HIDDEN
10
0.078577
20
0.931627
30
0.0
11
0.077917
21
0.929817
31
0.0
0
LINE
8
FRONT_HID
6
HIDDEN
10
0.077917
20
0.929817
30
0.0
11
0.077163
21
0.928043
31
0.0
0
LINE
8
FRONT_HID
6
HIDDEN
10
0.077163
20
0.928043
30
0.0
11
0.076319
21
0.926311
31
0.0
0
LINE
8
FRONT_HID
6
HIDDEN
10
0.076319
20
0.926311
30
0.0
11
0.075386
21
0.924624
31
0.0
0
LINE
8
FRONT_HID
6
HIDDEN
10
0.075386
20
0.924624
30
0.0
11
0.074366
21
0.922989
31
0.0
0
LINE
8
FRONT_HID
6
HIDDEN
10
0.074366
20
0.922989
30
0.0
11
0.073263
21
0.921409
31
0.0
0
LINE
8
FRONT_HID
6
HIDDEN
10
0.073263
20
0.921409
30
0.0
11
0.072080
21
0.919888
31
0.0
0
LINE
8
FRONT_HID
6
HIDDEN
10
0.072080
20
0.919888
30
0.0
11
0.070818
21
0.918431
31
0.0
0
LINE
8
FRONT_HID
6
HIDDEN
10
0.070818
20
0.918431
30
0.0
11
0.069483
21
0.917041
31
0.0
0
LINE
8
FRONT_HID
6
HIDDEN
10
0.069483
20
0.917041
30
0.0
11
0.068078
21
0.915722
31
0.0
0
LINE
8
FRONT_HID
6
HIDDEN
10
0.068078
20
0.915722
30
0.0
11
0.066606
21
0.914479
31
0.0
0
LINE
8
FRONT_HID
6
HIDDEN
10
0.066606
20
0.914479
30
0.0
11
0.065071
21
0.913313
31
0.0
0
LINE
8
FRONT_HID
6
HIDDEN
10
0.065071
20
0.913313
30
0.0
11
0.063478
21
0.912229
31
0.0
0
LINE
8
FRONT_HID
6
HIDDEN
10
0.063478
20
0.912229
30
0.0
11
0.061831
21
0.911228
31
0.0
0
LINE
8
FRONT_HID
6
HIDDEN
10
0.061831
20
0.911228
30
0.0
11
0.060134
21
0.910315
31
0.0
0
LINE
8
FRONT_HID
6
HIDDEN
10
0.060134
20
0.910315
30
0.0
11
0.058392
21
0.909491
31
0.0
0
LINE
8
FRONT_HID
6
HIDDEN
10
0.058392
20
0.909491
30
0.0
11
0.056609
21
0.908759
31
0.0
0
LINE
8
FRONT_HID
6
HIDDEN
10
0.056609
20
0.908759
30
0.0
11
0.054791
21
0.908121
31
0.0
0
LINE
8
FRONT_HID
6
HIDDEN
10
0.054791
20
0.908121
30
0.0
11
0.052942
21
0.907577
31
0.0
0
LINE
8
FRONT_HID
6
HIDDEN
10
0.052942
20
0.907577
30
0.0
11
0.051067
21
0.907131
31
0.0
0
LINE
8
FRONT_HID
6
HIDDEN
10
0.051067
20
0.907131
30
0.0
11
0.049172
21
0.906782
31
0.0
0
LINE
8
FRONT_HID
6
HIDDEN
10
0.049172
20
0.906782
30
0.0
11
0.047261
21
0.906532
31
0.0
0
LINE
8
FRONT_HID
6
HIDDEN
10
0.047261
20
0.906532
30
0.0
11
0.045339
21
0.906382
31
0.0
0
LINE
8
FRONT_HID
6
HIDDEN
10
0.045339
20
0.906382
30
0.0
11
0.043413
21
0.906332
31
0.0
0
LINE
8
FRONT_HID
6
HIDDEN
10
0.055826
20
0.908471
30
0.0
11
0.055637
21
0.908405
31
0.0
0
LINE
8
FRONT_HID
6
HIDDEN
10
0.055637
20
0.908405
30
0.0
11
0.055447
21
0.908339
31
0.0
0
LINE
8
FRONT_HID
6
HIDDEN
10
0.055447
20
0.908339
30
0.0
11
0.055257
21
0.908274
31
0.0
0
LINE
8
FRONT_HID
6
HIDDEN
10
0.055257
20
0.908274
30
0.0
11
0.055066
21
0.908210
31
0.0
0
LINE
8
FRONT_HID
6
HIDDEN
10
0.055066
20
0.908210
30
0.0
11
0.054875
21
0.908148
31
0.0
0
LINE
8
FRONT_HID
6
HIDDEN
10
0.054875
20
0.908148
30
0.0
11
0.054684
21
0.908086
31
0.0
0
LINE
8
FRONT_HID
6
HIDDEN
10
0.054684
20
0.908086
30
0.0
11
0.054492
21
0.908026
31
0.0
0
LINE
8
FRONT_HID
6
HIDDEN
10
0.054492
20
0.908026
30
0.0
11
0.054300
21
0.907966
31
0.0
0
LINE
8
FRONT_HID
6
HIDDEN
10
0.054300
20
0.907966
30
0.0
11
0.054108
21
0.907908
31
0.0
0
LINE
8
FRONT_HID
6
HIDDEN
10
0.054108
20
0.907908
30
0.0
11
0.053916
21
0.907850
31
0.0
0
LINE
8
FRONT_HID
6
HIDDEN
10
0.053916
20
0.907850
30
0.0
11
0.053723
21
0.907794
31
0.0
0
LINE
8
FRONT_HID
6
HIDDEN
10
0.053723
20
0.907794
30
0.0
11
0.053530
21
0.907739
31
0.0
0
LINE
8
FRONT_HID
6
HIDDEN
10
0.053530
20
0.907739
30
0.0
11
0.053336
21
0.907684
31
0.0
0
LINE
8
FRONT_HID
6
HIDDEN
10
0.053336
20
0.907684
30
0.0
11
0.053142
21
0.907631
31
0.0
0
LINE
8
FRONT_HID
6
HIDDEN
10
0.053142
20
0.907631
30
0.0
11
0.052948
21
0.907579
31
0.0
0
LINE
8
FRONT_HID
6
HIDDEN
10
0.052948
20
0.907579
30
0.0
11
0.052754
21
0.907528
31
0.0
0
LINE
8
FRONT_HID
6
HIDDEN
10
0.052754
20
0.907528
30
0.0
11
0.052560
21
0.907478
31
0.0
0
LINE
8
FRONT_HID
6
HIDDEN
10
0.052560
20
0.907478
30
0.0
11
0.052365
21
0.907429
31
0.0
0
LINE
8
FRONT_HID
6
HIDDEN
10
0.052365
20
0.907429
30
0.0
11
0.052170
21
0.907381
31
0.0
0
LINE
8
FRONT_HID
6
HIDDEN
10
0.052170
20
0.907381
30
0.0
11
0.051974
21
0.907334
31
0.0
0
LINE
8
FRONT_HID
6
HIDDEN
10
0.051974
20
0.907334
30
0.0
11
0.051779
21
0.907288
31
0.0
0
LINE
8
FRONT_HID
6
HIDDEN
10
0.051779
20
0.907288
30
0.0
11
0.051583
21
0.907243
31
0.0
0
LINE
8
FRONT_HID
6
HIDDEN
10
0.051583
20
0.907243
30
0.0
11
0.051387
21
0.907200
31
0.0
0
LINE
8
FRONT_HID
6
HIDDEN
10
0.051387
20
0.907200
30
0.0
11
0.051190
21
0.907157
31
0.0
0
LINE
8
FRONT_HID
6
HIDDEN
10
0.051190
20
0.907157
30
0.0
11
0.050994
21
0.907115
31
0.0
0
LINE
8
FRONT_HID
6
HIDDEN
10
0.050994
20
0.907115
30
0.0
11
0.050797
21
0.907075
31
0.0
0
LINE
8
FRONT_HID
6
HIDDEN
10
0.050797
20
0.907075
30
0.0
11
0.050600
21
0.907035
31
0.0
0
LINE
8
FRONT_HID
6
HIDDEN
10
0.050600
20
0.907035
30
0.0
11
0.050403
21
0.906997
31
0.0
0
LINE
8
FRONT_HID
6
HIDDEN
10
0.050403
20
0.906997
30
0.0
11
0.050205
21
0.906960
31
0.0
0
LINE
8
FRONT_HID
6
HIDDEN
10
0.050205
20
0.906960
30
0.0
11
0.050008
21
0.906923
31
0.0
0
LINE
8
FRONT_HID
6
HIDDEN
10
0.050008
20
0.906923
30
0.0
11
0.049810
21
0.906888
31
0.0
0
LINE
8
FRONT_HID
6
HIDDEN
10
0.049810
20
0.906888
30
0.0
11
0.049612
21
0.906854
31
0.0
0
LINE
8
FRONT_HID
6
HIDDEN
10
0.049612
20
0.906854
30
0.0
11
0.049414
21
0.906821
31
0.0
0
LINE
8
FRONT_HID
6
HIDDEN
10
0.049414
20
0.906821
30
0.0
11
0.049215
21
0.906789
31
0.0
0
LINE
8
FRONT_HID
6
HIDDEN
10
0.049215
20
0.906789
30
0.0
11
0.049017
21
0.906758
31
0.0
0
LINE
8
FRONT_HID
6
HIDDEN
10
0.049017
20
0.906758
30
0.0
11
0.048818
21
0.906728
31
0.0
0
LINE
8
FRONT_HID
6
HIDDEN
10
0.048818
20
0.906728
30
0.0
11
0.048619
21
0.906699
31
0.0
0
LINE
8
FRONT_HID
6
HIDDEN
10
0.048619
20
0.906699
30
0.0
11
0.048420
21
0.906672
31
0.0
0
LINE
8
FRONT_HID
6
HIDDEN
10
0.048420
20
0.906672
30
0.0
11
0.048221
21
0.906645
31
0.0
0
LINE
8
FRONT_HID
6
HIDDEN
10
0.048221
20
0.906645
30
0.0
11
0.048022
21
0.906620
31
0.0
0
LINE
8
FRONT_HID
6
HIDDEN
10
0.048022
20
0.906620
30
0.0
11
0.047823
21
0.906595
31
0.0
0
LINE
8
FRONT_HID
6
HIDDEN
10
0.047823
20
0.906595
30
0.0
11
0.047623
21
0.906572
31
0.0
0
LINE
8
FRONT_HID
6
HIDDEN
10
0.047623
20
0.906572
30
0.0
11
0.047423
21
0.906550
31
0.0
0
LINE
8
FRONT_HID
6
HIDDEN
10
0.047423
20
0.906550
30
0.0
11
0.047224
21
0.906529
31
0.0
0
LINE
8
FRONT_HID
6
HIDDEN
10
0.047224
20
0.906529
30
0.0
11
0.047024
21
0.906508
31
0.0
0
LINE
8
FRONT_HID
6
HIDDEN
10
0.047024
20
0.906508
30
0.0
11
0.046824
21
0.906489
31
0.0
0
LINE
8
FRONT_HID
6
HIDDEN
10
0.046824
20
0.906489
30
0.0
11
0.046623
21
0.906471
31
0.0
0
LINE
8
FRONT_HID
6
HIDDEN
10
0.046623
20
0.906471
30
0.0
11
0.046423
21
0.906455
31
0.0
0
LINE
8
FRONT_HID
6
HIDDEN
10
0.046423
20
0.906455
30
0.0
11
0.046223
21
0.906439
31
0.0
0
LINE
8
FRONT_HID
6
HIDDEN
10
0.046223
20
0.906439
30
0.0
11
0.046023
21
0.906424
31
0.0
0
LINE
8
FRONT_HID
6
HIDDEN
10
0.046023
20
0.906424
30
0.0
11
0.045822
21
0.906411
31
0.0
0
LINE
8
FRONT_HID
6
HIDDEN
10
0.045822
20
0.906411
30
0.0
11
0.045622
21
0.906398
31
0.0
0
LINE
8
FRONT_HID
6
HIDDEN
10
0.045622
20
0.906398
30
0.0
11
0.045421
21
0.906387
31
0.0
0
LINE
8
FRONT_HID
6
HIDDEN
10
0.045421
20
0.906387
30
0.0
11
0.045220
21
0.906376
31
0.0
0
LINE
8
FRONT_HID
6
HIDDEN
10
0.045220
20
0.906376
30
0.0
11
0.045020
21
0.906367
31
0.0
0
LINE
8
FRONT_HID
6
HIDDEN
10
0.045020
20
0.906367
30
0.0
11
0.044819
21
0.906359
31
0.0
0
LINE
8
FRONT_HID
6
HIDDEN
10
0.044819
20
0.906359
30
0.0
11
0.044618
21
0.906352
31
0.0
0
LINE
8
FRONT_HID
6
HIDDEN
10
0.044618
20
0.906352
30
0.0
11
0.044417
21
0.906346
31
0.0
0
LINE
8
FRONT_HID
6
HIDDEN
10
0.044417
20
0.906346
30
0.0
11
0.044216
21
0.906341
31
0.0
0
LINE
8
FRONT_HID
6
HIDDEN
10
0.044216
20
0.906341
30
0.0
11
0.044016
21
0.906337
31
0.0
0
LINE
8
FRONT_HID
6
HIDDEN
10
0.044016
20
0.906337
30
0.0
11
0.043815
21
0.906334
31
0.0
0
LINE
8
FRONT_HID
6
HIDDEN
10
0.043815
20
0.906334
30
0.0
11
0.043614
21
0.906333
31
0.0
0
LINE
8
FRONT_HID
6
HIDDEN
10
0.043614
20
0.906333
30
0.0
11
0.043413
21
0.906332
31
0.0
0
LINE
8
FRONT_HID
6
HIDDEN
10
0.055826
20
0.978371
30
0.0
11
0.057181
21
0.977860
31
0.0
0
LINE
8
FRONT_HID
6
HIDDEN
10
0.057181
20
0.977860
30
0.0
11
0.058514
21
0.977296
31
0.0
0
LINE
8
FRONT_HID
6
HIDDEN
10
0.058514
20
0.977296
30
0.0
11
0.059824
21
0.976681
31
0.0
0
LINE
8
FRONT_HID
6
HIDDEN
10
0.059824
20
0.976681
30
0.0
11
0.061110
21
0.976016
31
0.0
0
LINE
8
FRONT_HID
6
HIDDEN
10
0.061110
20
0.976016
30
0.0
11
0.062368
21
0.975300
31
0.0
0
LINE
8
FRONT_HID
6
HIDDEN
10
0.062368
20
0.975300
30
0.0
11
0.063598
21
0.974536
31
0.0
0
LINE
8
FRONT_HID
6
HIDDEN
10
0.063598
20
0.974536
30
0.0
11
0.064797
21
0.973725
31
0.0
0
LINE
8
FRONT_HID
6
HIDDEN
10
0.064797
20
0.973725
30
0.0
11
0.065963
21
0.972867
31
0.0
0
LINE
8
FRONT_HID
6
HIDDEN
10
0.065963
20
0.972867
30
0.0
11
0.067095
21
0.971965
31
0.0
0
LINE
8
FRONT_HID
6
HIDDEN
10
0.067095
20
0.971965
30
0.0
11
0.068191
21
0.971019
31
0.0
0
LINE
8
FRONT_HID
6
HIDDEN
10
0.068191
20
0.971019
30
0.0
11
0.069249
21
0.970031
31
0.0
0
LINE
8
FRONT_HID
6
HIDDEN
10
0.069249
20
0.970031
30
0.0
11
0.070267
21
0.969003
31
0.0
0
LINE
8
FRONT_HID
6
HIDDEN
10
0.070267
20
0.969003
30
0.0
11
0.071245
21
0.967935
31
0.0
0
LINE
8
FRONT_HID
6
HIDDEN
10
0.071245
20
0.967935
30
0.0
11
0.072181
21
0.966831
31
0.0
0
LINE
8
FRONT_HID
6
HIDDEN
10
0.072181
20
0.966831
30
0.0
11
0.073072
21
0.965690
31
0.0
0
LINE
8
FRONT_HID
6
HIDDEN
10
0.073072
20
0.965690
30
0.0
11
0.073918
21
0.964516
31
0.0
0
LINE
8
FRONT_HID
6
HIDDEN
10
0.073918
20
0.964516
30
0.0
11
0.074718
21
0.963309
31
0.0
0
LINE
8
FRONT_HID
6
HIDDEN
10
0.074718
20
0.963309
30
0.0
11
0.075471
21
0.962073
31
0.0
0
LINE
8
FRONT_HID
6
HIDDEN
10
0.075471
20
0.962073
30
0.0
11
0.076174
21
0.960807
31
0.0
0
LINE
8
FRONT_HID
6
HIDDEN
10
0.076174
20
0.960807
30
0.0
11
0.076828
21
0.959516
31
0.0
0
LINE
8
FRONT_HID
6
HIDDEN
10
0.076828
20
0.959516
30
0.0
11
0.077430
21
0.958200
31
0.0
0
LINE
8
FRONT_HID
6
HIDDEN
10
0.077430
20
0.958200
30
0.0
11
0.077981
21
0.956861
31
0.0
0
LINE
8
FRONT_HID
6
HIDDEN
10
0.077981
20
0.956861
30
0.0
11
0.078479
21
0.955502
31
0.0
0
LINE
8
FRONT_HID
6
HIDDEN
10
0.078479
20
0.955502
30
0.0
11
0.078924
21
0.954124
31
0.0
0
LINE
8
FRONT_HID
6
HIDDEN
10
0.078924
20
0.954124
30
0.0
11
0.079314
21
0.952730
31
0.0
0
LINE
8
FRONT_HID
6
HIDDEN
10
0.079314
20
0.952730
30
0.0
11
0.079650
21
0.951322
31
0.0
0
LINE
8
FRONT_HID
6
HIDDEN
10
0.079650
20
0.951322
30
0.0
11
0.079931
21
0.949902
31
0.0
0
LINE
8
FRONT_HID
6
HIDDEN
10
0.079931
20
0.949902
30
0.0
11
0.080156
21
0.948472
31
0.0
0
LINE
8
FRONT_HID
6
HIDDEN
10
0.080156
20
0.948472
30
0.0
11
0.080325
21
0.947034
31
0.0
0
LINE
8
FRONT_HID
6
HIDDEN
10
0.080325
20
0.947034
30
0.0
11
0.080438
21
0.945591
31
0.0
0
LINE
8
FRONT_HID
6
HIDDEN
10
0.080438
20
0.945591
30
0.0
11
0.080495
21
0.944145
31
0.0
0
LINE
8
FRONT_HID
6
HIDDEN
10
0.080495
20
0.944145
30
0.0
11
0.080495
21
0.942697
31
0.0
0
LINE
8
FRONT_HID
6
HIDDEN
10
0.080495
20
0.942697
30
0.0
11
0.080438
21
0.941251
31
0.0
0
LINE
8
FRONT_HID
6
HIDDEN
10
0.080438
20
0.941251
30
0.0
11
0.080325
21
0.939808
31
0.0
0
LINE
8
FRONT_HID
6
HIDDEN
10
0.080325
20
0.939808
30
0.0
11
0.080156
21
0.938370
31
0.0
0
LINE
8
FRONT_HID
6
HIDDEN
10
0.080156
20
0.938370
30
0.0
11
0.079931
21
0.936940
31
0.0
0
LINE
8
FRONT_HID
6
HIDDEN
10
0.079931
20
0.936940
30
0.0
11
0.079650
21
0.935520
31
0.0
0
LINE
8
FRONT_HID
6
HIDDEN
10
0.079650
20
0.935520
30
0.0
11
0.079314
21
0.934112
31
0.0
0
LINE
8
FRONT_HID
6
HIDDEN
10
0.079314
20
0.934112
30
0.0
11
0.078924
21
0.932718
31
0.0
0
LINE
8
FRONT_HID
6
HIDDEN
10
0.078924
20
0.932718
30
0.0
11
0.078479
21
0.931340
31
0.0
0
LINE
8
FRONT_HID
6
HIDDEN
10
0.078479
20
0.931340
30
0.0
11
0.077981
21
0.929981
31
0.0
0
LINE
8
FRONT_HID
6
HIDDEN
10
0.077981
20
0.929981
30
0.0
11
0.077430
21
0.928643
31
0.0
0
LINE
8
FRONT_HID
6
HIDDEN
10
0.077430
20
0.928643
30
0.0
11
0.076828
21
0.927326
31
0.0
0
LINE
8
FRONT_HID
6
HIDDEN
10
0.076828
20
0.927326
30
0.0
11
0.076174
21
0.926035
31
0.0
0
LINE
8
FRONT_HID
6
HIDDEN
10
0.076174
20
0.926035
30
0.0
11
0.075471
21
0.924770
31
0.0
0
LINE
8
FRONT_HID
6
HIDDEN
10
0.075471
20
0.924770
30
0.0
11
0.074718
21
0.923533
31
0.0
0
LINE
8
FRONT_HID
6
HIDDEN
10
0.074718
20
0.923533
30
0.0
11
0.073918
21
0.922326
31
0.0
0
LINE
8
FRONT_HID
6
HIDDEN
10
0.073918
20
0.922326
30
0.0
11
0.073072
21
0.921152
31
0.0
0
LINE
8
FRONT_HID
6
HIDDEN
10
0.073072
20
0.921152
30
0.0
11
0.072181
21
0.920012
31
0.0
0
LINE
8
FRONT_HID
6
HIDDEN
10
0.072181
20
0.920012
30
0.0
11
0.071245
21
0.918907
31
0.0
0
LINE
8
FRONT_HID
6
HIDDEN
10
0.071245
20
0.918907
30
0.0
11
0.070267
21
0.917839
31
0.0
0
LINE
8
FRONT_HID
6
HIDDEN
10
0.070267
20
0.917839
30
0.0
11
0.069249
21
0.916811
31
0.0
0
LINE
8
FRONT_HID
6
HIDDEN
10
0.069249
20
0.916811
30
0.0
11
0.068191
21
0.915823
31
0.0
0
LINE
8
FRONT_HID
6
HIDDEN
10
0.068191
20
0.915823
30
0.0
11
0.067095
21
0.914877
31
0.0
0
LINE
8
FRONT_HID
6
HIDDEN
10
0.067095
20
0.914877
30
0.0
11
0.065963
21
0.913975
31
0.0
0
LINE
8
FRONT_HID
6
HIDDEN
10
0.065963
20
0.913975
30
0.0
11
0.064797
21
0.913117
31
0.0
0
LINE
8
FRONT_HID
6
HIDDEN
10
0.064797
20
0.913117
30
0.0
11
0.063598
21
0.912306
31
0.0
0
LINE
8
FRONT_HID
6
HIDDEN
10
0.063598
20
0.912306
30
0.0
11
0.062368
21
0.911542
31
0.0
0
LINE
8
FRONT_HID
6
HIDDEN
10
0.062368
20
0.911542
30
0.0
11
0.061110
21
0.910827
31
0.0
0
LINE
8
FRONT_HID
6
HIDDEN
10
0.061110
20
0.910827
30
0.0
11
0.059824
21
0.910161
31
0.0
0
LINE
8
FRONT_HID
6
HIDDEN
10
0.059824
20
0.910161
30
0.0
11
0.058514
21
0.909546
31
0.0
0
LINE
8
FRONT_HID
6
HIDDEN
10
0.058514
20
0.909546
30
0.0
11
0.057181
21
0.908982
31
0.0
0
LINE
8
FRONT_HID
6
HIDDEN
10
0.057181
20
0.908982
30
0.0
11
0.055826
21
0.908471
31
0.0
0
LINE
8
FRONT_HID
6
HIDDEN
10
0.025487
20
0.975890
30
0.0
11
0.025925
21
0.976128
31
0.0
0
LINE
8
FRONT_HID
6
HIDDEN
10
0.025925
20
0.976128
30
0.0
11
0.026366
21
0.976360
31
0.0
0
LINE
8
FRONT_HID
6
HIDDEN
10
0.026366
20
0.976360
30
0.0
11
0.026809
21
0.976586
31
0.0
0
LINE
8
FRONT_HID
6
HIDDEN
10
0.026809
20
0.976586
30
0.0
11
0.027256
21
0.976806
31
0.0
0
LINE
8
FRONT_HID
6
HIDDEN
10
0.027256
20
0.976806
30
0.0
11
0.027706
21
0.977020
31
0.0
0
LINE
8
FRONT_HID
6
HIDDEN
10
0.027706
20
0.977020
30
0.0
11
0.028158
21
0.977227
31
0.0
0
LINE
8
FRONT_HID
6
HIDDEN
10
0.028158
20
0.977227
30
0.0
11
0.028613
21
0.977429
31
0.0
0
LINE
8
FRONT_HID
6
HIDDEN
10
0.028613
20
0.977429
30
0.0
11
0.029071
21
0.977625
31
0.0
0
LINE
8
FRONT_HID
6
HIDDEN
10
0.029071
20
0.977625
30
0.0
11
0.029531
21
0.977814
31
0.0
0
LINE
8
FRONT_HID
6
HIDDEN
10
0.029531
20
0.977814
30
0.0
11
0.029994
21
0.977997
31
0.0
0
LINE
8
FRONT_HID
6
HIDDEN
10
0.029994
20
0.977997
30
0.0
11
0.030460
21
0.978174
31
0.0
0
LINE
8
FRONT_HID
6
HIDDEN
10
0.030460
20
0.978174
30
0.0
11
0.030927
21
0.978345
31
0.0
0
LINE
8
FRONT_HID
6
HIDDEN
10
0.030927
20
0.978345
30
0.0
11
0.031397
21
0.978510
31
0.0
0
LINE
8
FRONT_HID
6
HIDDEN
10
0.031397
20
0.978510
30
0.0
11
0.031869
21
0.978668
31
0.0
0
LINE
8
FRONT_HID
6
HIDDEN
10
0.031869
20
0.978668
30
0.0
11
0.032344
21
0.978820
31
0.0
0
LINE
8
FRONT_HID
6
HIDDEN
10
0.032344
20
0.978820
30
0.0
11
0.032820
21
0.978965
31
0.0
0
LINE
8
FRONT_HID
6
HIDDEN
10
0.032820
20
0.978965
30
0.0
11
0.033298
21
0.979104
31
0.0
0
LINE
8
FRONT_HID
6
HIDDEN
10
0.033298
20
0.979104
30
0.0
11
0.033778
21
0.979236
31
0.0
0
LINE
8
FRONT_HID
6
HIDDEN
10
0.033778
20
0.979236
30
0.0
11
0.034259
21
0.979363
31
0.0
0
LINE
8
FRONT_HID
6
HIDDEN
10
0.034259
20
0.979363
30
0.0
11
0.034743
21
0.979482
31
0.0
0
LINE
8
FRONT_HID
6
HIDDEN
10
0.034743
20
0.979482
30
0.0
11
0.035228
21
0.979595
31
0.0
0
LINE
8
FRONT_HID
6
HIDDEN
10
0.035228
20
0.979595
30
0.0
11
0.035714
21
0.979702
31
0.0
0
LINE
8
FRONT_HID
6
HIDDEN
10
0.035714
20
0.979702
30
0.0
11
0.036202
21
0.979802
31
0.0
0
LINE
8
FRONT_HID
6
HIDDEN
10
0.036202
20
0.979802
30
0.0
11
0.036691
21
0.979896
31
0.0
0
LINE
8
FRONT_HID
6
HIDDEN
10
0.036691
20
0.979896
30
0.0
11
0.037181
21
0.979983
31
0.0
0
LINE
8
FRONT_HID
6
HIDDEN
10
0.037181
20
0.979983
30
0.0
11
0.037672
21
0.980063
31
0.0
0
LINE
8
FRONT_HID
6
HIDDEN
10
0.037672
20
0.980063
30
0.0
11
0.038165
21
0.980137
31
0.0
0
LINE
8
FRONT_HID
6
HIDDEN
10
0.038165
20
0.980137
30
0.0
11
0.038658
21
0.980204
31
0.0
0
LINE
8
FRONT_HID
6
HIDDEN
10
0.038658
20
0.980204
30
0.0
11
0.039152
21
0.980264
31
0.0
0
LINE
8
FRONT_HID
6
HIDDEN
10
0.039152
20
0.980264
30
0.0
11
0.039647
21
0.980318
31
0.0
0
LINE
8
FRONT_HID
6
HIDDEN
10
0.039647
20
0.980318
30
0.0
11
0.040143
21
0.980365
31
0.0
0
LINE
8
FRONT_HID
6
HIDDEN
10
0.040143
20
0.980365
30
0.0
11
0.040639
21
0.980406
31
0.0
0
LINE
8
FRONT_HID
6
HIDDEN
10
0.040639
20
0.980406
30
0.0
11
0.041136
21
0.980440
31
0.0
0
LINE
8
FRONT_HID
6
HIDDEN
10
0.041136
20
0.980440
30
0.0
11
0.041633
21
0.980467
31
0.0
0
LINE
8
FRONT_HID
6
HIDDEN
10
0.041633
20
0.980467
30
0.0
11
0.042130
21
0.980488
31
0.0
0
LINE
8
FRONT_HID
6
HIDDEN
10
0.042130
20
0.980488
30
0.0
11
0.042628
21
0.980502
31
0.0
0
LINE
8
FRONT_HID
6
HIDDEN
10
0.042628
20
0.980502
30
0.0
11
0.043126
21
0.980509
31
0.0
0
LINE
8
FRONT_HID
6
HIDDEN
10
0.043126
20
0.980509
30
0.0
11
0.043624
21
0.980509
31
0.0
0
LINE
8
FRONT_HID
6
HIDDEN
10
0.043624
20
0.980509
30
0.0
11
0.044121
21
0.980503
31
0.0
0
LINE
8
FRONT_HID
6
HIDDEN
10
0.044121
20
0.980503
30
0.0
11
0.044619
21
0.980490
31
0.0
0
LINE
8
FRONT_HID
6
HIDDEN
10
0.044619
20
0.980490
30
0.0
11
0.045117
21
0.980471
31
0.0
0
LINE
8
FRONT_HID
6
HIDDEN
10
0.045117
20
0.980471
30
0.0
11
0.045614
21
0.980445
31
0.0
0
LINE
8
FRONT_HID
6
HIDDEN
10
0.045614
20
0.980445
30
0.0
11
0.046111
21
0.980412
31
0.0
0
LINE
8
FRONT_HID
6
HIDDEN
10
0.046111
20
0.980412
30
0.0
11
0.046607
21
0.980372
31
0.0
0
LINE
8
FRONT_HID
6
HIDDEN
10
0.046607
20
0.980372
30
0.0
11
0.047103
21
0.980326
31
0.0
0
LINE
8
FRONT_HID
6
HIDDEN
10
0.047103
20
0.980326
30
0.0
11
0.047598
21
0.980273
31
0.0
0
LINE
8
FRONT_HID
6
HIDDEN
10
0.047598
20
0.980273
30
0.0
11
0.048092
21
0.980214
31
0.0
0
LINE
8
FRONT_HID
6
HIDDEN
10
0.048092
20
0.980214
30
0.0
11
0.048585
21
0.980147
31
0.0
0
LINE
8
FRONT_HID
6
HIDDEN
10
0.048585
20
0.980147
30
0.0
11
0.049078
21
0.980075
31
0.0
0
LINE
8
FRONT_HID
6
HIDDEN
10
0.049078
20
0.980075
30
0.0
11
0.049569
21
0.979995
31
0.0
0
LINE
8
FRONT_HID
6
HIDDEN
10
0.049569
20
0.979995
30
0.0
11
0.050060
21
0.979909
31
0.0
0
LINE
8
FRONT_HID
6
HIDDEN
10
0.050060
20
0.979909
30
0.0
11
0.050549
21
0.979817
31
0.0
0
LINE
8
FRONT_HID
6
HIDDEN
10
0.050549
20
0.979817
30
0.0
11
0.051037
21
0.979718
31
0.0
0
LINE
8
FRONT_HID
6
HIDDEN
10
0.051037
20
0.979718
30
0.0
11
0.051523
21
0.979612
31
0.0
0
LINE
8
FRONT_HID
6
HIDDEN
10
0.051523
20
0.979612
30
0.0
11
0.052009
21
0.979500
31
0.0
0
LINE
8
FRONT_HID
6
HIDDEN
10
0.052009
20
0.979500
30
0.0
11
0.052492
21
0.979381
31
0.0
0
LINE
8
FRONT_HID
6
HIDDEN
10
0.052492
20
0.979381
30
0.0
11
0.052974
21
0.979256
31
0.0
0
LINE
8
FRONT_HID
6
HIDDEN
10
0.052974
20
0.979256
30
0.0
11
0.053454
21
0.979125
31
0.0
0
LINE
8
FRONT_HID
6
HIDDEN
10
0.053454
20
0.979125
30
0.0
11
0.053933
21
0.978987
31
0.0
0
LINE
8
FRONT_HID
6
HIDDEN
10
0.053933
20
0.978987
30
0.0
11
0.054409
21
0.978842
31
0.0
0
LINE
8
FRONT_HID
6
HIDDEN
10
0.054409
20
0.978842
30
0.0
11
0.054884
21
0.978692
31
0.0
0
LINE
8
FRONT_HID
6
HIDDEN
10
0.054884
20
0.978692
30
0.0
11
0.055356
21
0.978534
31
0.0
0
LINE
8
FRONT_HID
6
HIDDEN
10
0.055356
20
0.978534
30
0.0
11
0.055826
21
0.978371
31
0.0
0
LINE
8
FRONT_HID
6
HIDDEN
10
0.014930
20
0.967176
30
0.0
11
0.015071
21
0.967344
31
0.0
0
LINE
8
FRONT_HID
6
HIDDEN
10
0.015071
20
0.967344
30
0.0
11
0.015212
21
0.967510
31
0.0
0
LINE
8
FRONT_HID
6
HIDDEN
10
0.015212
20
0.967510
30
0.0
11
0.015354
21
0.967676
31
0.0
0
LINE
8
FRONT_HID
6
HIDDEN
10
0.015354
20
0.967676
30
0.0
11
0.015498
21
0.967841
31
0.0
0
LINE
8
FRONT_HID
6
HIDDEN
10
0.015498
20
0.967841
30
0.0
11
0.015642
21
0.968005
31
0.0
0
LINE
8
FRONT_HID
6
HIDDEN
10
0.015642
20
0.968005
30
0.0
11
0.015788
21
0.968168
31
0.0
0
LINE
8
FRONT_HID
6
HIDDEN
10
0.015788
20
0.968168
30
0.0
11
0.015934
21
0.968331
31
0.0
0
LINE
8
FRONT_HID
6
HIDDEN
10
0.015934
20
0.968331
30
0.0
11
0.016081
21
0.968492
31
0.0
0
LINE
8
FRONT_HID
6
HIDDEN
10
0.016081
20
0.968492
30
0.0
11
0.016229
21
0.968653
31
0.0
0
LINE
8
FRONT_HID
6
HIDDEN
10
0.016229
20
0.968653
30
0.0
11
0.016378
21
0.968812
31
0.0
0
LINE
8
FRONT_HID
6
HIDDEN
10
0.016378
20
0.968812
30
0.0
11
0.016529
21
0.968971
31
0.0
0
LINE
8
FRONT_HID
6
HIDDEN
10
0.016529
20
0.968971
30
0.0
11
0.016680
21
0.969129
31
0.0
0
LINE
8
FRONT_HID
6
HIDDEN
10
0.016680
20
0.969129
30
0.0
11
0.016831
21
0.969286
31
0.0
0
LINE
8
FRONT_HID
6
HIDDEN
10
0.016831
20
0.969286
30
0.0
11
0.016984
21
0.969442
31
0.0
0
LINE
8
FRONT_HID
6
HIDDEN
10
0.016984
20
0.969442
30
0.0
11
0.017138
21
0.969598
31
0.0
0
LINE
8
FRONT_HID
6
HIDDEN
10
0.017138
20
0.969598
30
0.0
11
0.017293
21
0.969752
31
0.0
0
LINE
8
FRONT_HID
6
HIDDEN
10
0.017293
20
0.969752
30
0.0
11
0.017448
21
0.969906
31
0.0
0
LINE
8
FRONT_HID
6
HIDDEN
10
0.017448
20
0.969906
30
0.0
11
0.017605
21
0.970058
31
0.0
0
LINE
8
FRONT_HID
6
HIDDEN
10
0.017605
20
0.970058
30
0.0
11
0.017762
21
0.970210
31
0.0
0
LINE
8
FRONT_HID
6
HIDDEN
10
0.017762
20
0.970210
30
0.0
11
0.017921
21
0.970360
31
0.0
0
LINE
8
FRONT_HID
6
HIDDEN
10
0.017921
20
0.970360
30
0.0
11
0.018080
21
0.970510
31
0.0
0
LINE
8
FRONT_HID
6
HIDDEN
10
0.018080
20
0.970510
30
0.0
11
0.018240
21
0.970659
31
0.0
0
LINE
8
FRONT_HID
6
HIDDEN
10
0.018240
20
0.970659
30
0.0
11
0.018401
21
0.970807
31
0.0
0
LINE
8
FRONT_HID
6
HIDDEN
10
0.018401
20
0.970807
30
0.0
11
0.018563
21
0.970954
31
0.0
0
LINE
8
FRONT_HID
6
HIDDEN
10
0.018563
20
0.970954
30
0.0
11
0.018725
21
0.971100
31
0.0
0
LINE
8
FRONT_HID
6
HIDDEN
10
0.018725
20
0.971100
30
0.0
11
0.018889
21
0.971245
31
0.0
0
LINE
8
FRONT_HID
6
HIDDEN
10
0.018889
20
0.971245
30
0.0
11
0.019053
21
0.971389
31
0.0
0
LINE
8
FRONT_HID
6
HIDDEN
10
0.019053
20
0.971389
30
0.0
11
0.019218
21
0.971532
31
0.0
0
LINE
8
FRONT_HID
6
HIDDEN
10
0.019218
20
0.971532
30
0.0
11
0.019384
21
0.971674
31
0.0
0
LINE
8
FRONT_HID
6
HIDDEN
10
0.019384
20
0.971674
30
0.0
11
0.019551
21
0.971815
31
0.0
0
LINE
8
FRONT_HID
6
HIDDEN
10
0.019551
20
0.971815
30
0.0
11
0.019719
21
0.971955
31
0.0
0
LINE
8
FRONT_HID
6
HIDDEN
10
0.019719
20
0.971955
30
0.0
11
0.019888
21
0.972094
31
0.0
0
LINE
8
FRONT_HID
6
HIDDEN
10
0.019888
20
0.972094
30
0.0
11
0.020057
21
0.972232
31
0.0
0
LINE
8
FRONT_HID
6
HIDDEN
10
0.020057
20
0.972232
30
0.0
11
0.020227
21
0.972369
31
0.0
0
LINE
8
FRONT_HID
6
HIDDEN
10
0.020227
20
0.972369
30
0.0
11
0.020398
21
0.972505
31
0.0
0
LINE
8
FRONT_HID
6
HIDDEN
10
0.020398
20
0.972505
30
0.0
11
0.020570
21
0.972641
31
0.0
0
LINE
8
FRONT_HID
6
HIDDEN
10
0.020570
20
0.972641
30
0.0
11
0.020742
21
0.972775
31
0.0
0
LINE
8
FRONT_HID
6
HIDDEN
10
0.020742
20
0.972775
30
0.0
11
0.020916
21
0.972908
31
0.0
0
LINE
8
FRONT_HID
6
HIDDEN
10
0.020916
20
0.972908
30
0.0
11
0.021090
21
0.973040
31
0.0
0
LINE
8
FRONT_HID
6
HIDDEN
10
0.021090
20
0.973040
30
0.0
11
0.021265
21
0.973171
31
0.0
0
LINE
8
FRONT_HID
6
HIDDEN
10
0.021265
20
0.973171
30
0.0
11
0.021441
21
0.973301
31
0.0
0
LINE
8
FRONT_HID
6
HIDDEN
10
0.021441
20
0.973301
30
0.0
11
0.021617
21
0.973430
31
0.0
0
LINE
8
FRONT_HID
6
HIDDEN
10
0.021617
20
0.973430
30
0.0
11
0.021794
21
0.973558
31
0.0
0
LINE
8
FRONT_HID
6
HIDDEN
10
0.021794
20
0.973558
30
0.0
11
0.021972
21
0.973684
31
0.0
0
LINE
8
FRONT_HID
6
HIDDEN
10
0.021972
20
0.973684
30
0.0
11
0.022151
21
0.973810
31
0.0
0
LINE
8
FRONT_HID
6
HIDDEN
10
0.022151
20
0.973810
30
0.0
11
0.022330
21
0.973935
31
0.0
0
LINE
8
FRONT_HID
6
HIDDEN
10
0.022330
20
0.973935
30
0.0
11
0.022510
21
0.974059
31
0.0
0
LINE
8
FRONT_HID
6
HIDDEN
10
0.022510
20
0.974059
30
0.0
11
0.022691
21
0.974181
31
0.0
0
LINE
8
FRONT_HID
6
HIDDEN
10
0.022691
20
0.974181
30
0.0
11
0.022873
21
0.974303
31
0.0
0
LINE
8
FRONT_HID
6
HIDDEN
10
0.022873
20
0.974303
30
0.0
11
0.023055
21
0.974423
31
0.0
0
LINE
8
FRONT_HID
6
HIDDEN
10
0.023055
20
0.974423
30
0.0
11
0.023238
21
0.974543
31
0.0
0
LINE
8
FRONT_HID
6
HIDDEN
10
0.023238
20
0.974543
30
0.0
11
0.023422
21
0.974661
31
0.0
0
LINE
8
FRONT_HID
6
HIDDEN
10
0.023422
20
0.974661
30
0.0
11
0.023606
21
0.974778
31
0.0
0
LINE
8
FRONT_HID
6
HIDDEN
10
0.023606
20
0.974778
30
0.0
11
0.023792
21
0.974895
31
0.0
0
LINE
8
FRONT_HID
6
HIDDEN
10
0.023792
20
0.974895
30
0.0
11
0.023977
21
0.975010
31
0.0
0
LINE
8
FRONT_HID
6
HIDDEN
10
0.023977
20
0.975010
30
0.0
11
0.024164
21
0.975124
31
0.0
0
LINE
8
FRONT_HID
6
HIDDEN
10
0.024164
20
0.975124
30
0.0
11
0.024351
21
0.975237
31
0.0
0
LINE
8
FRONT_HID
6
HIDDEN
10
0.024351
20
0.975237
30
0.0
11
0.024539
21
0.975348
31
0.0
0
LINE
8
FRONT_HID
6
HIDDEN
10
0.024539
20
0.975348
30
0.0
11
0.024727
21
0.975459
31
0.0
0
LINE
8
FRONT_HID
6
HIDDEN
10
0.024727
20
0.975459
30
0.0
11
0.024916
21
0.975568
31
0.0
0
LINE
8
FRONT_HID
6
HIDDEN
10
0.024916
20
0.975568
30
0.0
11
0.025106
21
0.975677
31
0.0
0
LINE
8
FRONT_HID
6
HIDDEN
10
0.025106
20
0.975677
30
0.0
11
0.025296
21
0.975784
31
0.0
0
LINE
8
FRONT_HID
6
HIDDEN
10
0.025296
20
0.975784
30
0.0
11
0.025487
21
0.975890
31
0.0
0
LINE
8
FRONT_HID
6
HIDDEN
10
0.007804
20
0.943421
30
0.0
11
0.007806
21
0.943032
31
0.0
0
LINE
8
FRONT_HID
6
HIDDEN
10
0.007806
20
0.943032
30
0.0
11
0.007811
21
0.942643
31
0.0
0
LINE
8
FRONT_HID
6
HIDDEN
10
0.007811
20
0.942643
30
0.0
11
0.007820
21
0.942254
31
0.0
0
LINE
8
FRONT_HID
6
HIDDEN
10
0.007820
20
0.942254
30
0.0
11
0.007832
21
0.941865
31
0.0
0
LINE
8
FRONT_HID
6
HIDDEN
10
0.007832
20
0.941865
30
0.0
11
0.007848
21
0.941477
31
0.0
0
LINE
8
FRONT_HID
6
HIDDEN
10
0.007848
20
0.941477
30
0.0
11
0.007867
21
0.941088
31
0.0
0
LINE
8
FRONT_HID
6
HIDDEN
10
0.007867
20
0.941088
30
0.0
11
0.007890
21
0.940700
31
0.0
0
LINE
8
FRONT_HID
6
HIDDEN
10
0.007890
20
0.940700
30
0.0
11
0.007916
21
0.940312
31
0.0
0
LINE
8
FRONT_HID
6
HIDDEN
10
0.007916
20
0.940312
30
0.0
11
0.007945
21
0.939924
31
0.0
0
LINE
8
FRONT_HID
6
HIDDEN
10
0.007945
20
0.939924
30
0.0
11
0.007978
21
0.939536
31
0.0
0
LINE
8
FRONT_HID
6
HIDDEN
10
0.007978
20
0.939536
30
0.0
11
0.008015
21
0.939149
31
0.0
0
LINE
8
FRONT_HID
6
HIDDEN
10
0.008015
20
0.939149
30
0.0
11
0.008055
21
0.938762
31
0.0
0
LINE
8
FRONT_HID
6
HIDDEN
10
0.008055
20
0.938762
30
0.0
11
0.008099
21
0.938375
31
0.0
0
LINE
8
FRONT_HID
6
HIDDEN
10
0.008099
20
0.938375
30
0.0
11
0.008145
21
0.937989
31
0.0
0
LINE
8
FRONT_HID
6
HIDDEN
10
0.008145
20
0.937989
30
0.0
11
0.008196
21
0.937603
31
0.0
0
LINE
8
FRONT_HID
6
HIDDEN
10
0.008196
20
0.937603
30
0.0
11
0.008250
21
0.937218
31
0.0
0
LINE
8
FRONT_HID
6
HIDDEN
10
0.008250
20
0.937218
30
0.0
11
0.008307
21
0.936833
31
0.0
0
LINE
8
FRONT_HID
6
HIDDEN
10
0.008307
20
0.936833
30
0.0
11
0.008368
21
0.936449
31
0.0
0
LINE
8
FRONT_HID
6
HIDDEN
10
0.008368
20
0.936449
30
0.0
11
0.008432
21
0.936065
31
0.0
0
LINE
8
FRONT_HID
6
HIDDEN
10
0.008432
20
0.936065
30
0.0
11
0.008500
21
0.935682
31
0.0
0
LINE
8
FRONT_HID
6
HIDDEN
10
0.008500
20
0.935682
30
0.0
11
0.008571
21
0.935300
31
0.0
0
LINE
8
FRONT_HID
6
HIDDEN
10
0.008571
20
0.935300
30
0.0
11
0.008645
21
0.934918
31
0.0
0
LINE
8
FRONT_HID
6
HIDDEN
10
0.008645
20
0.934918
30
0.0
11
0.008723
21
0.934537
31
0.0
0
LINE
8
FRONT_HID
6
HIDDEN
10
0.008723
20
0.934537
30
0.0
11
0.008804
21
0.934156
31
0.0
0
LINE
8
FRONT_HID
6
HIDDEN
10
0.008804
20
0.934156
30
0.0
11
0.008889
21
0.933777
31
0.0
0
LINE
8
FRONT_HID
6
HIDDEN
10
0.008889
20
0.933777
30
0.0
11
0.008977
21
0.933398
31
0.0
0
LINE
8
FRONT_HID
6
HIDDEN
10
0.008977
20
0.933398
30
0.0
11
0.009069
21
0.933020
31
0.0
0
LINE
8
FRONT_HID
6
HIDDEN
10
0.009069
20
0.933020
30
0.0
11
0.009163
21
0.932642
31
0.0
0
LINE
8
FRONT_HID
6
HIDDEN
10
0.009163
20
0.932642
30
0.0
11
0.009262
21
0.932266
31
0.0
0
LINE
8
FRONT_HID
6
HIDDEN
10
0.009262
20
0.932266
30
0.0
11
0.009363
21
0.931890
31
0.0
0
LINE
8
FRONT_HID
6
HIDDEN
10
0.009363
20
0.931890
30
0.0
11
0.009468
21
0.931516
31
0.0
0
LINE
8
FRONT_HID
6
HIDDEN
10
0.009468
20
0.931516
30
0.0
11
0.009577
21
0.931142
31
0.0
0
LINE
8
FRONT_HID
6
HIDDEN
10
0.009577
20
0.931142
30
0.0
11
0.009688
21
0.930770
31
0.0
0
LINE
8
FRONT_HID
6
HIDDEN
10
0.009688
20
0.930770
30
0.0
11
0.009803
21
0.930398
31
0.0
0
LINE
8
FRONT_HID
6
HIDDEN
10
0.009803
20
0.930398
30
0.0
11
0.009922
21
0.930027
31
0.0
0
LINE
8
FRONT_HID
6
HIDDEN
10
0.009922
20
0.930027
30
0.0
11
0.010043
21
0.929658
31
0.0
0
LINE
8
FRONT_HID
6
HIDDEN
10
0.010043
20
0.929658
30
0.0
11
0.010168
21
0.929290
31
0.0
0
LINE
8
FRONT_HID
6
HIDDEN
10
0.010168
20
0.929290
30
0.0
11
0.010297
21
0.928922
31
0.0
0
LINE
8
FRONT_HID
6
HIDDEN
10
0.010297
20
0.928922
30
0.0
11
0.010428
21
0.928556
31
0.0
0
LINE
8
FRONT_HID
6
HIDDEN
10
0.010428
20
0.928556
30
0.0
11
0.010563
21
0.928191
31
0.0
0
LINE
8
FRONT_HID
6
HIDDEN
10
0.010563
20
0.928191
30
0.0
11
0.010701
21
0.927828
31
0.0
0
LINE
8
FRONT_HID
6
HIDDEN
10
0.010701
20
0.927828
30
0.0
11
0.010842
21
0.927465
31
0.0
0
LINE
8
FRONT_HID
6
HIDDEN
10
0.010842
20
0.927465
30
0.0
11
0.010987
21
0.927104
31
0.0
0
LINE
8
FRONT_HID
6
HIDDEN
10
0.010987
20
0.927104
30
0.0
11
0.011135
21
0.926744
31
0.0
0
LINE
8
FRONT_HID
6
HIDDEN
10
0.011135
20
0.926744
30
0.0
11
0.011286
21
0.926386
31
0.0
0
LINE
8
FRONT_HID
6
HIDDEN
10
0.011286
20
0.926386
30
0.0
11
0.011440
21
0.926028
31
0.0
0
LINE
8
FRONT_HID
6
HIDDEN
10
0.011440
20
0.926028
30
0.0
11
0.011597
21
0.925673
31
0.0
0
LINE
8
FRONT_HID
6
HIDDEN
10
0.011597
20
0.925673
30
0.0
11
0.011758
21
0.925318
31
0.0
0
LINE
8
FRONT_HID
6
HIDDEN
10
0.011758
20
0.925318
30
0.0
11
0.011922
21
0.924966
31
0.0
0
LINE
8
FRONT_HID
6
HIDDEN
10
0.011922
20
0.924966
30
0.0
11
0.012089
21
0.924614
31
0.0
0
LINE
8
FRONT_HID
6
HIDDEN
10
0.012089
20
0.924614
30
0.0
11
0.012259
21
0.924264
31
0.0
0
LINE
8
FRONT_HID
6
HIDDEN
10
0.012259
20
0.924264
30
0.0
11
0.012432
21
0.923916
31
0.0
0
LINE
8
FRONT_HID
6
HIDDEN
10
0.012432
20
0.923916
30
0.0
11
0.012608
21
0.923569
31
0.0
0
LINE
8
FRONT_HID
6
HIDDEN
10
0.012608
20
0.923569
30
0.0
11
0.012788
21
0.923224
31
0.0
0
LINE
8
FRONT_HID
6
HIDDEN
10
0.012788
20
0.923224
30
0.0
11
0.012970
21
0.922880
31
0.0
0
LINE
8
FRONT_HID
6
HIDDEN
10
0.012970
20
0.922880
30
0.0
11
0.013156
21
0.922539
31
0.0
0
LINE
8
FRONT_HID
6
HIDDEN
10
0.013156
20
0.922539
30
0.0
11
0.013344
21
0.922198
31
0.0
0
LINE
8
FRONT_HID
6
HIDDEN
10
0.013344
20
0.922198
30
0.0
11
0.013536
21
0.921860
31
0.0
0
LINE
8
FRONT_HID
6
HIDDEN
10
0.013536
20
0.921860
30
0.0
11
0.013731
21
0.921523
31
0.0
0
LINE
8
FRONT_HID
6
HIDDEN
10
0.013731
20
0.921523
30
0.0
11
0.013928
21
0.921188
31
0.0
0
LINE
8
FRONT_HID
6
HIDDEN
10
0.013928
20
0.921188
30
0.0
11
0.014129
21
0.920855
31
0.0
0
LINE
8
FRONT_HID
6
HIDDEN
10
0.014129
20
0.920855
30
0.0
11
0.014333
21
0.920523
31
0.0
0
LINE
8
FRONT_HID
6
HIDDEN
10
0.014333
20
0.920523
30
0.0
11
0.014539
21
0.920194
31
0.0
0
LINE
8
FRONT_HID
6
HIDDEN
10
0.007804
20
0.943421
30
0.0
11
0.007806
21
0.943028
31
0.0
0
LINE
8
FRONT_HID
6
HIDDEN
10
0.007806
20
0.943028
30
0.0
11
0.007811
21
0.942634
31
0.0
0
LINE
8
FRONT_HID
6
HIDDEN
10
0.007811
20
0.942634
30
0.0
11
0.007820
21
0.942241
31
0.0
0
LINE
8
FRONT_HID
6
HIDDEN
10
0.007820
20
0.942241
30
0.0
11
0.007833
21
0.941847
31
0.0
0
LINE
8
FRONT_HID
6
HIDDEN
10
0.007833
20
0.941847
30
0.0
11
0.007849
21
0.941454
31
0.0
0
LINE
8
FRONT_HID
6
HIDDEN
10
0.007849
20
0.941454
30
0.0
11
0.007869
21
0.941061
31
0.0
0
LINE
8
FRONT_HID
6
HIDDEN
10
0.007869
20
0.941061
30
0.0
11
0.007892
21
0.940668
31
0.0
0
LINE
8
FRONT_HID
6
HIDDEN
10
0.007892
20
0.940668
30
0.0
11
0.007918
21
0.940276
31
0.0
0
LINE
8
FRONT_HID
6
HIDDEN
10
0.007918
20
0.940276
30
0.0
11
0.007949
21
0.939883
31
0.0
0
LINE
8
FRONT_HID
6
HIDDEN
10
0.007949
20
0.939883
30
0.0
11
0.007983
21
0.939491
31
0.0
0
LINE
8
FRONT_HID
6
HIDDEN
10
0.007983
20
0.939491
30
0.0
11
0.008020
21
0.939100
31
0.0
0
LINE
8
FRONT_HID
6
HIDDEN
10
0.008020
20
0.939100
30
0.0
11
0.008061
21
0.938708
31
0.0
0
LINE
8
FRONT_HID
6
HIDDEN
10
0.008061
20
0.938708
30
0.0
11
0.008105
21
0.938317
31
0.0
0
LINE
8
FRONT_HID
6
HIDDEN
10
0.008105
20
0.938317
30
0.0
11
0.008153
21
0.937927
31
0.0
0
LINE
8
FRONT_HID
6
HIDDEN
10
0.008153
20
0.937927
30
0.0
11
0.008205
21
0.937537
31
0.0
0
LINE
8
FRONT_HID
6
HIDDEN
10
0.008205
20
0.937537
30
0.0
11
0.008260
21
0.937147
31
0.0
0
LINE
8
FRONT_HID
6
HIDDEN
10
0.008260
20
0.937147
30
0.0
11
0.008319
21
0.936758
31
0.0
0
LINE
8
FRONT_HID
6
HIDDEN
10
0.008319
20
0.936758
30
0.0
11
0.008381
21
0.936369
31
0.0
0
LINE
8
FRONT_HID
6
HIDDEN
10
0.008381
20
0.936369
30
0.0
11
0.008446
21
0.935981
31
0.0
0
LINE
8
FRONT_HID
6
HIDDEN
10
0.008446
20
0.935981
30
0.0
11
0.008516
21
0.935594
31
0.0
0
LINE
8
FRONT_HID
6
HIDDEN
10
0.008516
20
0.935594
30
0.0
11
0.008588
21
0.935207
31
0.0
0
LINE
8
FRONT_HID
6
HIDDEN
10
0.008588
20
0.935207
30
0.0
11
0.008665
21
0.934821
31
0.0
0
LINE
8
FRONT_HID
6
HIDDEN
10
0.008665
20
0.934821
30
0.0
11
0.008744
21
0.934436
31
0.0
0
LINE
8
FRONT_HID
6
HIDDEN
10
0.008744
20
0.934436
30
0.0
11
0.008827
21
0.934051
31
0.0
0
LINE
8
FRONT_HID
6
HIDDEN
10
0.008827
20
0.934051
30
0.0
11
0.008914
21
0.933667
31
0.0
0
LINE
8
FRONT_HID
6
HIDDEN
10
0.008914
20
0.933667
30
0.0
11
0.009004
21
0.933284
31
0.0
0
LINE
8
FRONT_HID
6
HIDDEN
10
0.009004
20
0.933284
30
0.0
11
0.009098
21
0.932902
31
0.0
0
LINE
8
FRONT_HID
6
HIDDEN
10
0.009098
20
0.932902
30
0.0
11
0.009195
21
0.932521
31
0.0
0
LINE
8
FRONT_HID
6
HIDDEN
10
0.009195
20
0.932521
30
0.0
11
0.009295
21
0.932140
31
0.0
0
LINE
8
FRONT_HID
6
HIDDEN
10
0.009295
20
0.932140
30
0.0
11
0.009399
21
0.931761
31
0.0
0
LINE
8
FRONT_HID
6
HIDDEN
10
0.009399
20
0.931761
30
0.0
11
0.009507
21
0.931382
31
0.0
0
LINE
8
FRONT_HID
6
HIDDEN
10
0.009507
20
0.931382
30
0.0
11
0.009618
21
0.931004
31
0.0
0
LINE
8
FRONT_HID
6
HIDDEN
10
0.009618
20
0.931004
30
0.0
11
0.009732
21
0.930628
31
0.0
0
LINE
8
FRONT_HID
6
HIDDEN
10
0.009732
20
0.930628
30
0.0
11
0.009849
21
0.930252
31
0.0
0
LINE
8
FRONT_HID
6
HIDDEN
10
0.009849
20
0.930252
30
0.0
11
0.009970
21
0.929878
31
0.0
0
LINE
8
FRONT_HID
6
HIDDEN
10
0.009970
20
0.929878
30
0.0
11
0.010095
21
0.929505
31
0.0
0
LINE
8
FRONT_HID
6
HIDDEN
10
0.010095
20
0.929505
30
0.0
11
0.010223
21
0.929132
31
0.0
0
LINE
8
FRONT_HID
6
HIDDEN
10
0.010223
20
0.929132
30
0.0
11
0.010354
21
0.928761
31
0.0
0
LINE
8
FRONT_HID
6
HIDDEN
10
0.010354
20
0.928761
30
0.0
11
0.010488
21
0.928392
31
0.0
0
LINE
8
FRONT_HID
6
HIDDEN
10
0.010488
20
0.928392
30
0.0
11
0.010626
21
0.928023
31
0.0
0
LINE
8
FRONT_HID
6
HIDDEN
10
0.010626
20
0.928023
30
0.0
11
0.010767
21
0.927656
31
0.0
0
LINE
8
FRONT_HID
6
HIDDEN
10
0.010767
20
0.927656
30
0.0
11
0.010912
21
0.927290
31
0.0
0
LINE
8
FRONT_HID
6
HIDDEN
10
0.010912
20
0.927290
30
0.0
11
0.011060
21
0.926925
31
0.0
0
LINE
8
FRONT_HID
6
HIDDEN
10
0.011060
20
0.926925
30
0.0
11
0.011211
21
0.926562
31
0.0
0
LINE
8
FRONT_HID
6
HIDDEN
10
0.011211
20
0.926562
30
0.0
11
0.011365
21
0.926200
31
0.0
0
LINE
8
FRONT_HID
6
HIDDEN
10
0.011365
20
0.926200
30
0.0
11
0.011523
21
0.925839
31
0.0
0
LINE
8
FRONT_HID
6
HIDDEN
10
0.011523
20
0.925839
30
0.0
11
0.011684
21
0.925480
31
0.0
0
LINE
8
FRONT_HID
6
HIDDEN
10
0.011684
20
0.925480
30
0.0
11
0.011848
21
0.925123
31
0.0
0
LINE
8
FRONT_HID
6
HIDDEN
10
0.011848
20
0.925123
30
0.0
11
0.012016
21
0.924766
31
0.0
0
LINE
8
FRONT_HID
6
HIDDEN
10
0.012016
20
0.924766
30
0.0
11
0.012186
21
0.924412
31
0.0
0
LINE
8
FRONT_HID
6
HIDDEN
10
0.012186
20
0.924412
30
0.0
11
0.012360
21
0.924059
31
0.0
0
LINE
8
FRONT_HID
6
HIDDEN
10
0.012360
20
0.924059
30
0.0
11
0.012537
21
0.923707
31
0.0
0
LINE
8
FRONT_HID
6
HIDDEN
10
0.012537
20
0.923707
30
0.0
11
0.012718
21
0.923358
31
0.0
0
LINE
8
FRONT_HID
6
HIDDEN
10
0.012718
20
0.923358
30
0.0
11
0.012901
21
0.923009
31
0.0
0
LINE
8
FRONT_HID
6
HIDDEN
10
0.012901
20
0.923009
30
0.0
11
0.013088
21
0.922663
31
0.0
0
LINE
8
FRONT_HID
6
HIDDEN
10
0.013088
20
0.922663
30
0.0
11
0.013277
21
0.922318
31
0.0
0
LINE
8
FRONT_HID
6
HIDDEN
10
0.013277
20
0.922318
30
0.0
11
0.013470
21
0.921975
31
0.0
0
LINE
8
FRONT_HID
6
HIDDEN
10
0.013470
20
0.921975
30
0.0
11
0.013666
21
0.921634
31
0.0
0
LINE
8
FRONT_HID
6
HIDDEN
10
0.013666
20
0.921634
30
0.0
11
0.013865
21
0.921294
31
0.0
0
LINE
8
FRONT_HID
6
HIDDEN
10
0.013865
20
0.921294
30
0.0
11
0.014067
21
0.920957
31
0.0
0
LINE
8
FRONT_HID
6
HIDDEN
10
0.014067
20
0.920957
30
0.0
11
0.014272
21
0.920621
31
0.0
0
LINE
8
FRONT_HID
6
HIDDEN
10
0.014272
20
0.920621
30
0.0
11
0.014480
21
0.920287
31
0.0
0
LINE
8
FRONT_HID
6
HIDDEN
10
0.014480
20
0.920287
30
0.0
11
0.014691
21
0.919955
31
0.0
0
LINE
8
FRONT_HID
6
HIDDEN
10
0.014691
20
0.966887
30
0.0
11
0.014480
21
0.966555
31
0.0
0
LINE
8
FRONT_HID
6
HIDDEN
10
0.014480
20
0.966555
30
0.0
11
0.014272
21
0.966221
31
0.0
0
LINE
8
FRONT_HID
6
HIDDEN
10
0.014272
20
0.966221
30
0.0
11
0.014067
21
0.965885
31
0.0
0
LINE
8
FRONT_HID
6
HIDDEN
10
0.014067
20
0.965885
30
0.0
11
0.013865
21
0.965548
31
0.0
0
LINE
8
FRONT_HID
6
HIDDEN
10
0.013865
20
0.965548
30
0.0
11
0.013666
21
0.965208
31
0.0
0
LINE
8
FRONT_HID
6
HIDDEN
10
0.013666
20
0.965208
30
0.0
11
0.013470
21
0.964867
31
0.0
0
LINE
8
FRONT_HID
6
HIDDEN
10
0.013470
20
0.964867
30
0.0
11
0.013277
21
0.964524
31
0.0
0
LINE
8
FRONT_HID
6
HIDDEN
10
0.013277
20
0.964524
30
0.0
11
0.013088
21
0.964179
31
0.0
0
LINE
8
FRONT_HID
6
HIDDEN
10
0.013088
20
0.964179
30
0.0
11
0.012901
21
0.963833
31
0.0
0
LINE
8
FRONT_HID
6
HIDDEN
10
0.012901
20
0.963833
30
0.0
11
0.012718
21
0.963484
31
0.0
0
LINE
8
FRONT_HID
6
HIDDEN
10
0.012718
20
0.963484
30
0.0
11
0.012537
21
0.963135
31
0.0
0
LINE
8
FRONT_HID
6
HIDDEN
10
0.012537
20
0.963135
30
0.0
11
0.012360
21
0.962783
31
0.0
0
LINE
8
FRONT_HID
6
HIDDEN
10
0.012360
20
0.962783
30
0.0
11
0.012186
21
0.962430
31
0.0
0
LINE
8
FRONT_HID
6
HIDDEN
10
0.012186
20
0.962430
30
0.0
11
0.012016
21
0.962076
31
0.0
0
LINE
8
FRONT_HID
6
HIDDEN
10
0.012016
20
0.962076
30
0.0
11
0.011848
21
0.961720
31
0.0
0
LINE
8
FRONT_HID
6
HIDDEN
10
0.011848
20
0.961720
30
0.0
11
0.011684
21
0.961362
31
0.0
0
LINE
8
FRONT_HID
6
HIDDEN
10
0.011684
20
0.961362
30
0.0
11
0.011523
21
0.961003
31
0.0
0
LINE
8
FRONT_HID
6
HIDDEN
10
0.011523
20
0.961003
30
0.0
11
0.011365
21
0.960642
31
0.0
0
LINE
8
FRONT_HID
6
HIDDEN
10
0.011365
20
0.960642
30
0.0
11
0.011211
21
0.960280
31
0.0
0
LINE
8
FRONT_HID
6
HIDDEN
10
0.011211
20
0.960280
30
0.0
11
0.011060
21
0.959917
31
0.0
0
LINE
8
FRONT_HID
6
HIDDEN
10
0.011060
20
0.959917
30
0.0
11
0.010912
21
0.959552
31
0.0
0
LINE
8
FRONT_HID
6
HIDDEN
10
0.010912
20
0.959552
30
0.0
11
0.010767
21
0.959186
31
0.0
0
LINE
8
FRONT_HID
6
HIDDEN
10
0.010767
20
0.959186
30
0.0
11
0.010626
21
0.958819
31
0.0
0
LINE
8
FRONT_HID
6
HIDDEN
10
0.010626
20
0.958819
30
0.0
11
0.010488
21
0.958450
31
0.0
0
LINE
8
FRONT_HID
6
HIDDEN
10
0.010488
20
0.958450
30
0.0
11
0.010354
21
0.958081
31
0.0
0
LINE
8
FRONT_HID
6
HIDDEN
10
0.010354
20
0.958081
30
0.0
11
0.010223
21
0.957710
31
0.0
0
LINE
8
FRONT_HID
6
HIDDEN
10
0.010223
20
0.957710
30
0.0
11
0.010095
21
0.957338
31
0.0
0
LINE
8
FRONT_HID
6
HIDDEN
10
0.010095
20
0.957338
30
0.0
11
0.009970
21
0.956964
31
0.0
0
LINE
8
FRONT_HID
6
HIDDEN
10
0.009970
20
0.956964
30
0.0
11
0.009849
21
0.956590
31
0.0
0
LINE
8
FRONT_HID
6
HIDDEN
10
0.009849
20
0.956590
30
0.0
11
0.009732
21
0.956214
31
0.0
0
LINE
8
FRONT_HID
6
HIDDEN
10
0.009732
20
0.956214
30
0.0
11
0.009618
21
0.955838
31
0.0
0
LINE
8
FRONT_HID
6
HIDDEN
10
0.009618
20
0.955838
30
0.0
11
0.009507
21
0.955460
31
0.0
0
LINE
8
FRONT_HID
6
HIDDEN
10
0.009507
20
0.955460
30
0.0
11
0.009399
21
0.955082
31
0.0
0
LINE
8
FRONT_HID
6
HIDDEN
10
0.009399
20
0.955082
30
0.0
11
0.009295
21
0.954702
31
0.0
0
LINE
8
FRONT_HID
6
HIDDEN
10
0.009295
20
0.954702
30
0.0
11
0.009195
21
0.954322
31
0.0
0
LINE
8
FRONT_HID
6
HIDDEN
10
0.009195
20
0.954322
30
0.0
11
0.009098
21
0.953940
31
0.0
0
LINE
8
FRONT_HID
6
HIDDEN
10
0.009098
20
0.953940
30
0.0
11
0.009004
21
0.953558
31
0.0
0
LINE
8
FRONT_HID
6
HIDDEN
10
0.009004
20
0.953558
30
0.0
11
0.008914
21
0.953175
31
0.0
0
LINE
8
FRONT_HID
6
HIDDEN
10
0.008914
20
0.953175
30
0.0
11
0.008827
21
0.952791
31
0.0
0
LINE
8
FRONT_HID
6
HIDDEN
10
0.008827
20
0.952791
30
0.0
11
0.008744
21
0.952406
31
0.0
0
LINE
8
FRONT_HID
6
HIDDEN
10
0.008744
20
0.952406
30
0.0
11
0.008665
21
0.952021
31
0.0
0
LINE
8
FRONT_HID
6
HIDDEN
10
0.008665
20
0.952021
30
0.0
11
0.008588
21
0.951635
31
0.0
0
LINE
8
FRONT_HID
6
HIDDEN
10
0.008588
20
0.951635
30
0.0
11
0.008516
21
0.951248
31
0.0
0
LINE
8
FRONT_HID
6
HIDDEN
10
0.008516
20
0.951248
30
0.0
11
0.008446
21
0.950861
31
0.0
0
LINE
8
FRONT_HID
6
HIDDEN
10
0.008446
20
0.950861
30
0.0
11
0.008381
21
0.950473
31
0.0
0
LINE
8
FRONT_HID
6
HIDDEN
10
0.008381
20
0.950473
30
0.0
11
0.008319
21
0.950084
31
0.0
0
LINE
8
FRONT_HID
6
HIDDEN
10
0.008319
20
0.950084
30
0.0
11
0.008260
21
0.949695
31
0.0
0
LINE
8
FRONT_HID
6
HIDDEN
10
0.008260
20
0.949695
30
0.0
11
0.008205
21
0.949306
31
0.0
0
LINE
8
FRONT_HID
6
HIDDEN
10
0.008205
20
0.949306
30
0.0
11
0.008153
21
0.948915
31
0.0
0
LINE
8
FRONT_HID
6
HIDDEN
10
0.008153
20
0.948915
30
0.0
11
0.008105
21
0.948525
31
0.0
0
LINE
8
FRONT_HID
6
HIDDEN
10
0.008105
20
0.948525
30
0.0
11
0.008061
21
0.948134
31
0.0
0
LINE
8
FRONT_HID
6
HIDDEN
10
0.008061
20
0.948134
30
0.0
11
0.008020
21
0.947743
31
0.0
0
LINE
8
FRONT_HID
6
HIDDEN
10
0.008020
20
0.947743
30
0.0
11
0.007983
21
0.947351
31
0.0
0
LINE
8
FRONT_HID
6
HIDDEN
10
0.007983
20
0.947351
30
0.0
11
0.007949
21
0.946959
31
0.0
0
LINE
8
FRONT_HID
6
HIDDEN
10
0.007949
20
0.946959
30
0.0
11
0.007918
21
0.946566
31
0.0
0
LINE
8
FRONT_HID
6
HIDDEN
10
0.007918
20
0.946566
30
0.0
11
0.007892
21
0.946174
31
0.0
0
LINE
8
FRONT_HID
6
HIDDEN
10
0.007892
20
0.946174
30
0.0
11
0.007869
21
0.945781
31
0.0
0
LINE
8
FRONT_HID
6
HIDDEN
10
0.007869
20
0.945781
30
0.0
11
0.007849
21
0.945388
31
0.0
0
LINE
8
FRONT_HID
6
HIDDEN
10
0.007849
20
0.945388
30
0.0
11
0.007833
21
0.944995
31
0.0
0
LINE
8
FRONT_HID
6
HIDDEN
10
0.007833
20
0.944995
30
0.0
11
0.007820
21
0.944601
31
0.0
0
LINE
8
FRONT_HID
6
HIDDEN
10
0.007820
20
0.944601
30
0.0
11
0.007811
21
0.944208
31
0.0
0
LINE
8
FRONT_HID
6
HIDDEN
10
0.007811
20
0.944208
30
0.0
11
0.007806
21
0.943815
31
0.0
0
LINE
8
FRONT_HID
6
HIDDEN
10
0.007806
20
0.943815
30
0.0
11
0.007804
21
0.943421
31
0.0
0
LINE
8
FRONT_HID
6
HIDDEN
10
0.014539
20
0.966649
30
0.0
11
0.014333
21
0.966319
31
0.0
0
LINE
8
FRONT_HID
6
HIDDEN
10
0.014333
20
0.966319
30
0.0
11
0.014129
21
0.965987
31
0.0
0
LINE
8
FRONT_HID
6
HIDDEN
10
0.014129
20
0.965987
30
0.0
11
0.013928
21
0.965654
31
0.0
0
LINE
8
FRONT_HID
6
HIDDEN
10
0.013928
20
0.965654
30
0.0
11
0.013731
21
0.965319
31
0.0
0
LINE
8
FRONT_HID
6
HIDDEN
10
0.013731
20
0.965319
30
0.0
11
0.013536
21
0.964982
31
0.0
0
LINE
8
FRONT_HID
6
HIDDEN
10
0.013536
20
0.964982
30
0.0
11
0.013344
21
0.964644
31
0.0
0
LINE
8
FRONT_HID
6
HIDDEN
10
0.013344
20
0.964644
30
0.0
11
0.013156
21
0.964304
31
0.0
0
LINE
8
FRONT_HID
6
HIDDEN
10
0.013156
20
0.964304
30
0.0
11
0.012970
21
0.963962
31
0.0
0
LINE
8
FRONT_HID
6
HIDDEN
10
0.012970
20
0.963962
30
0.0
11
0.012788
21
0.963618
31
0.0
0
LINE
8
FRONT_HID
6
HIDDEN
10
0.012788
20
0.963618
30
0.0
11
0.012608
21
0.963273
31
0.0
0
LINE
8
FRONT_HID
6
HIDDEN
10
0.012608
20
0.963273
30
0.0
11
0.012432
21
0.962926
31
0.0
0
LINE
8
FRONT_HID
6
HIDDEN
10
0.012432
20
0.962926
30
0.0
11
0.012259
21
0.962578
31
0.0
0
LINE
8
FRONT_HID
6
HIDDEN
10
0.012259
20
0.962578
30
0.0
11
0.012089
21
0.962228
31
0.0
0
LINE
8
FRONT_HID
6
HIDDEN
10
0.012089
20
0.962228
30
0.0
11
0.011922
21
0.961877
31
0.0
0
LINE
8
FRONT_HID
6
HIDDEN
10
0.011922
20
0.961877
30
0.0
11
0.011758
21
0.961524
31
0.0
0
LINE
8
FRONT_HID
6
HIDDEN
10
0.011758
20
0.961524
30
0.0
11
0.011597
21
0.961169
31
0.0
0
LINE
8
FRONT_HID
6
HIDDEN
10
0.011597
20
0.961169
30
0.0
11
0.011440
21
0.960814
31
0.0
0
LINE
8
FRONT_HID
6
HIDDEN
10
0.011440
20
0.960814
30
0.0
11
0.011286
21
0.960457
31
0.0
0
LINE
8
FRONT_HID
6
HIDDEN
10
0.011286
20
0.960457
30
0.0
11
0.011135
21
0.960098
31
0.0
0
LINE
8
FRONT_HID
6
HIDDEN
10
0.011135
20
0.960098
30
0.0
11
0.010987
21
0.959738
31
0.0
0
LINE
8
FRONT_HID
6
HIDDEN
10
0.010987
20
0.959738
30
0.0
11
0.010842
21
0.959377
31
0.0
0
LINE
8
FRONT_HID
6
HIDDEN
10
0.010842
20
0.959377
30
0.0
11
0.010701
21
0.959015
31
0.0
0
LINE
8
FRONT_HID
6
HIDDEN
10
0.010701
20
0.959015
30
0.0
11
0.010563
21
0.958651
31
0.0
0
LINE
8
FRONT_HID
6
HIDDEN
10
0.010563
20
0.958651
30
0.0
11
0.010428
21
0.958286
31
0.0
0
LINE
8
FRONT_HID
6
HIDDEN
10
0.010428
20
0.958286
30
0.0
11
0.010297
21
0.957920
31
0.0
0
LINE
8
FRONT_HID
6
HIDDEN
10
0.010297
20
0.957920
30
0.0
11
0.010168
21
0.957553
31
0.0
0
LINE
8
FRONT_HID
6
HIDDEN
10
0.010168
20
0.957553
30
0.0
11
0.010043
21
0.957184
31
0.0
0
LINE
8
FRONT_HID
6
HIDDEN
10
0.010043
20
0.957184
30
0.0
11
0.009922
21
0.956815
31
0.0
0
LINE
8
FRONT_HID
6
HIDDEN
10
0.009922
20
0.956815
30
0.0
11
0.009803
21
0.956444
31
0.0
0
LINE
8
FRONT_HID
6
HIDDEN
10
0.009803
20
0.956444
30
0.0
11
0.009688
21
0.956072
31
0.0
0
LINE
8
FRONT_HID
6
HIDDEN
10
0.009688
20
0.956072
30
0.0
11
0.009577
21
0.955700
31
0.0
0
LINE
8
FRONT_HID
6
HIDDEN
10
0.009577
20
0.955700
30
0.0
11
0.009468
21
0.955326
31
0.0
0
LINE
8
FRONT_HID
6
HIDDEN
10
0.009468
20
0.955326
30
0.0
11
0.009363
21
0.954952
31
0.0
0
LINE
8
FRONT_HID
6
HIDDEN
10
0.009363
20
0.954952
30
0.0
11
0.009262
21
0.954576
31
0.0
0
LINE
8
FRONT_HID
6
HIDDEN
10
0.009262
20
0.954576
30
0.0
11
0.009163
21
0.954200
31
0.0
0
LINE
8
FRONT_HID
6
HIDDEN
10
0.009163
20
0.954200
30
0.0
11
0.009069
21
0.953822
31
0.0
0
LINE
8
FRONT_HID
6
HIDDEN
10
0.009069
20
0.953822
30
0.0
11
0.008977
21
0.953444
31
0.0
0
LINE
8
FRONT_HID
6
HIDDEN
10
0.008977
20
0.953444
30
0.0
11
0.008889
21
0.953065
31
0.0
0
LINE
8
FRONT_HID
6
HIDDEN
10
0.008889
20
0.953065
30
0.0
11
0.008804
21
0.952686
31
0.0
0
LINE
8
FRONT_HID
6
HIDDEN
10
0.008804
20
0.952686
30
0.0
11
0.008723
21
0.952305
31
0.0
0
LINE
8
FRONT_HID
6
HIDDEN
10
0.008723
20
0.952305
30
0.0
11
0.008645
21
0.951924
31
0.0
0
LINE
8
FRONT_HID
6
HIDDEN
10
0.008645
20
0.951924
30
0.0
11
0.008571
21
0.951542
31
0.0
0
LINE
8
FRONT_HID
6
HIDDEN
10
0.008571
20
0.951542
30
0.0
11
0.008500
21
0.951160
31
0.0
0
LINE
8
FRONT_HID
6
HIDDEN
10
0.008500
20
0.951160
30
0.0
11
0.008432
21
0.950777
31
0.0
0
LINE
8
FRONT_HID
6
HIDDEN
10
0.008432
20
0.950777
30
0.0
11
0.008368
21
0.950393
31
0.0
0
LINE
8
FRONT_HID
6
HIDDEN
10
0.008368
20
0.950393
30
0.0
11
0.008307
21
0.950009
31
0.0
0
LINE
8
FRONT_HID
6
HIDDEN
10
0.008307
20
0.950009
30
0.0
11
0.008250
21
0.949624
31
0.0
0
LINE
8
FRONT_HID
6
HIDDEN
10
0.008250
20
0.949624
30
0.0
11
0.008196
21
0.949239
31
0.0
0
LINE
8
FRONT_HID
6
HIDDEN
10
0.008196
20
0.949239
30
0.0
11
0.008145
21
0.948853
31
0.0
0
LINE
8
FRONT_HID
6
HIDDEN
10
0.008145
20
0.948853
30
0.0
11
0.008099
21
0.948467
31
0.0
0
LINE
8
FRONT_HID
6
HIDDEN
10
0.008099
20
0.948467
30
0.0
11
0.008055
21
0.948080
31
0.0
0
LINE
8
FRONT_HID
6
HIDDEN
10
0.008055
20
0.948080
30
0.0
11
0.008015
21
0.947693
31
0.0
0
LINE
8
FRONT_HID
6
HIDDEN
10
0.008015
20
0.947693
30
0.0
11
0.007978
21
0.947306
31
0.0
0
LINE
8
FRONT_HID
6
HIDDEN
10
0.007978
20
0.947306
30
0.0
11
0.007945
21
0.946918
31
0.0
0
LINE
8
FRONT_HID
6
HIDDEN
10
0.007945
20
0.946918
30
0.0
11
0.007916
21
0.946531
31
0.0
0
LINE
8
FRONT_HID
6
HIDDEN
10
0.007916
20
0.946531
30
0.0
11
0.007890
21
0.946142
31
0.0
0
LINE
8
FRONT_HID
6
HIDDEN
10
0.007890
20
0.946142
30
0.0
11
0.007867
21
0.945754
31
0.0
0
LINE
8
FRONT_HID
6
HIDDEN
10
0.007867
20
0.945754
30
0.0
11
0.007848
21
0.945365
31
0.0
0
LINE
8
FRONT_HID
6
HIDDEN
10
0.007848
20
0.945365
30
0.0
11
0.007832
21
0.944977
31
0.0
0
LINE
8
FRONT_HID
6
HIDDEN
10
0.007832
20
0.944977
30
0.0
11
0.007820
21
0.944588
31
0.0
0
LINE
8
FRONT_HID
6
HIDDEN
10
0.007820
20
0.944588
30
0.0
11
0.007811
21
0.944199
31
0.0
0
LINE
8
FRONT_HID
6
HIDDEN
10
0.007811
20
0.944199
30
0.0
11
0.007806
21
0.943810
31
0.0
0
LINE
8
FRONT_HID
6
HIDDEN
10
0.007806
20
0.943810
30
0.0
11
0.007804
21
0.943421
31
0.0
0
LINE
8
LEFT
10
0.244638
20
0.986842
30
0.0
11
0.244638
21
0.900000
31
0.0
0
LINE
8
LEFT
10
0.244638
20
0.900000
30
0.0
11
0.994638
21
0.900000
31
0.0
0
LINE
8
LEFT
10
0.994638
20
0.986842
30
0.0
11
0.994638
21
0.900000
31
0.0
0
LINE
8
LEFT
10
0.994638
20
0.900000
30
0.0
11
0.979013
21
0.900000
31
0.0
0
LINE
8
LEFT
10
0.994638
20
0.986842
30
0.0
11
0.244638
21
0.986842
31
0.0
0
LINE
8
LEFT_HID
6
HIDDEN
10
0.244638
20
0.906332
30
0.0
11
0.244638
21
0.908471
31
0.0
0
LINE
8
LEFT_HID
6
HIDDEN
10
0.244638
20
0.910952
30
0.0
11
0.244638
21
0.906332
31
0.0
0
LINE
8
LEFT_HID
6
HIDDEN
10
0.244638
20
0.982072
30
0.0
11
0.244638
21
0.910952
31
0.0
0
LINE
8
LEFT_HID
6
HIDDEN
10
0.244638
20
0.975890
30
0.0
11
0.244638
21
0.982072
31
0.0
0
LINE
8
LEFT_HID
6
HIDDEN
10
0.244638
20
0.978371
30
0.0
11
0.244638
21
0.975890
31
0.0
0
LINE
8
LEFT_HID
6
HIDDEN
10
0.244638
20
0.978371
30
0.0
11
0.244638
21
0.908471
31
0.0
0
LINE
8
LEFT_HID
6
HIDDEN
10
0.244638
20
0.910952
30
0.0
11
0.244638
21
0.975890
31
0.0
0
LINE
8
LEFT_HID
6
HIDDEN
10
0.244638
20
0.979605
30
0.0
11
0.244638
21
0.978371
31
0.0
0
LINE
8
LEFT_HID
6
HIDDEN
10
0.244638
20
0.908471
30
0.0
11
0.244638
21
0.979605
31
0.0
0
LINE
8
LEFT_HID
6
HIDDEN
10
0.244638
20
0.908471
30
0.0
11
0.244638
21
0.978371
31
0.0
0
LINE
8
LEFT_HID
6
HIDDEN
10
0.244638
20
0.919666
30
0.0
11
0.244638
21
0.910952
31
0.0
0
LINE
8
LEFT_HID
6
HIDDEN
10
0.244638
20
0.982895
30
0.0
11
0.244638
21
0.919666
31
0.0
0
LINE
8
LEFT_HID
6
HIDDEN
10
0.244638
20
0.967176
30
0.0
11
0.244638
21
0.982895
31
0.0
0
LINE
8
LEFT_HID
6
HIDDEN
10
0.244638
20
0.975890
30
0.0
11
0.244638
21
0.967176
31
0.0
0
LINE
8
LEFT_HID
6
HIDDEN
10
0.244638
20
0.919666
30
0.0
11
0.244638
21
0.967176
31
0.0
0
LINE
8
LEFT_HID
6
HIDDEN
10
0.244638
20
0.967176
30
0.0
11
0.244638
21
0.919666
31
0.0
0
LINE
8
LEFT_HID
6
HIDDEN
10
0.260263
20
0.919666
30
0.0
11
0.244638
21
0.919666
31
0.0
0
LINE
8
LEFT_HID
6
HIDDEN
10
0.260263
20
0.919666
30
0.0
11
0.260263
21
0.967176
31
0.0
0
LINE
8
LEFT_HID
6
HIDDEN
10
0.260263
20
0.967176
30
0.0
11
0.244638
21
0.967176
31
0.0
0
LINE
8
LEFT_HID
6
HIDDEN
10
0.994638
20
0.986666
30
0.0
11
0.994638
21
0.986842
31
0.0
0
LINE
8
LEFT_HID
6
HIDDEN
10
0.994638
20
0.986666
30
0.0
11
0.979013
21
0.986666
31
0.0
0
LINE
8
LEFT_HID
6
HIDDEN
10
0.979013
20
0.986666
30
0.0
11
0.979013
21
0.976830
31
0.0
0
LINE
8
LEFT_HID
6
HIDDEN
10
0.994638
20
0.976830
30
0.0
11
0.979013
21
0.976830
31
0.0
0
LINE
8
LEFT_HID
6
HIDDEN
10
0.994638
20
0.910012
30
0.0
11
0.994638
21
0.976830
31
0.0
0
LINE
8
LEFT_HID
6
HIDDEN
10
0.994638
20
0.910012
30
0.0
11
0.979013
21
0.910012
31
0.0
0
LINE
8
LEFT_HID
6
HIDDEN
10
0.979013
20
0.910012
30
0.0
11
0.979013
21
0.900176
31
0.0
0
LINE
8
LEFT_HID
6
HIDDEN
10
0.994638
20
0.900176
30
0.0
11
0.979013
21
0.900176
31
0.0
0
LINE
8
LEFT_HID
6
HIDDEN
10
0.994638
20
0.900000
30
0.0
11
0.994638
21
0.900176
31
0.0
0
LINE
8
LEFT_HID
6
HIDDEN
10
0.260263
20
0.910952
30
0.0
11
0.260263
21
0.919666
31
0.0
0
LINE
8
LEFT_HID
6
HIDDEN
10
0.260263
20
0.906332
30
0.0
11
0.260263
21
0.910952
31
0.0
0
LINE
8
LEFT_HID
6
HIDDEN
10
0.260263
20
0.906332
30
0.0
11
0.979013
21
0.906332
31
0.0
0
LINE
8
LEFT_HID
6
HIDDEN
10
0.979013
20
0.906332
30
0.0
11
0.979013
21
0.906656
31
0.0
0
LINE
8
LEFT_HID
6
HIDDEN
10
0.979013
20
0.906656
30
0.0
11
0.979013
21
0.913334
31
0.0
0
LINE
8
LEFT_HID
6
HIDDEN
10
0.979013
20
0.913334
30
0.0
11
0.979013
21
0.919955
31
0.0
0
LINE
8
LEFT_HID
6
HIDDEN
10
0.994638
20
0.919955
30
0.0
11
0.979013
21
0.919955
31
0.0
0
LINE
8
LEFT_HID
6
HIDDEN
10
0.994638
20
0.966887
30
0.0
11
0.994638
21
0.919955
31
0.0
0
LINE
8
LEFT_HID
6
HIDDEN
10
0.994638
20
0.966887
30
0.0
11
0.979013
21
0.966887
31
0.0
0
LINE
8
LEFT_HID
6
HIDDEN
10
0.979013
20
0.966887
30
0.0
11
0.979013
21
0.973508
31
0.0
0
LINE
8
LEFT_HID
6
HIDDEN
10
0.979013
20
0.973508
30
0.0
11
0.979013
21
0.980186
31
0.0
0
LINE
8
LEFT_HID
6
HIDDEN
10
0.979013
20
0.980186
30
0.0
11
0.979013
21
0.980510
31
0.0
0
LINE
8
LEFT_HID
6
HIDDEN
10
0.979013
20
0.980510
30
0.0
11
0.979013
21
0.906332
31
0.0
0
LINE
8
LEFT_HID
6
HIDDEN
10
0.260263
20
0.908471
30
0.0
11
0.260263
21
0.906332
31
0.0
0
LINE
8
LEFT_HID
6
HIDDEN
10
0.260263
20
0.978371
30
0.0
11
0.260263
21
0.908471
31
0.0
0
LINE
8
LEFT_HID
6
HIDDEN
10
0.260263
20
0.975890
30
0.0
11
0.260263
21
0.980510
31
0.0
0
LINE
8
LEFT_HID
6
HIDDEN
10
0.260263
20
0.980510
30
0.0
11
0.260263
21
0.978371
31
0.0
0
LINE
8
LEFT_HID
6
HIDDEN
10
0.260263
20
0.967176
30
0.0
11
0.260263
21
0.975890
31
0.0
0
LINE
8
LEFT_HID
6
HIDDEN
10
0.260263
20
0.910952
30
0.0
11
0.260263
21
0.975890
31
0.0
0
LINE
8
LEFT_HID
6
HIDDEN
10
0.994638
20
0.919955
30
0.0
11
0.994638
21
0.900176
31
0.0
0
LINE
8
LEFT_HID
6
HIDDEN
10
0.994638
20
0.986666
30
0.0
11
0.994638
21
0.966887
31
0.0
0
LINE
8
LEFT_HID
6
HIDDEN
10
0.994638
20
0.986842
30
0.0
11
0.994638
21
0.986666
31
0.0
0
LINE
8
LEFT_HID
6
HIDDEN
10
0.979013
20
0.900000
30
0.0
11
0.979013
21
0.986842
31
0.0
0
LINE
8
LEFT_HID
6
HIDDEN
10
0.979013
20
0.986842
30
0.0
11
0.979013
21
0.986666
31
0.0
0
LINE
8
LEFT_HID
6
HIDDEN
10
0.979013
20
0.900176
30
0.0
11
0.979013
21
0.900000
31
0.0
0
LINE
8
LEFT_HID
6
HIDDEN
10
0.979013
20
0.910012
30
0.0
11
0.979013
21
0.976830
31
0.0
0
LINE
8
LEFT_HID
6
HIDDEN
10
0.994638
20
0.910012
30
0.0
11
0.994638
21
0.976830
31
0.0
0
LINE
8
LEFT_HID
6
HIDDEN
10
0.994638
20
0.904703
30
0.0
11
0.994638
21
0.910012
31
0.0
0
LINE
8
LEFT_HID
6
HIDDEN
10
0.994638
20
0.976830
30
0.0
11
0.994638
21
0.982139
31
0.0
0
LINE
8
LEFT_HID
6
HIDDEN
10
0.994638
20
0.904703
30
0.0
11
0.994638
21
0.982139
31
0.0
0
LINE
8
LEFT_HID
6
HIDDEN
10
0.994638
20
0.900176
30
0.0
11
0.994638
21
0.900000
31
0.0
0
LINE
8
LEFT_HID
6
HIDDEN
10
0.260263
20
0.979605
30
0.0
11
0.260263
21
0.978371
31
0.0
0
LINE
8
LEFT_HID
6
HIDDEN
10
0.260263
20
0.908471
30
0.0
11
0.260263
21
0.979605
31
0.0
0
LINE
8
LEFT_HID
6
HIDDEN
10
0.979013
20
0.980186
30
0.0
11
0.979013
21
0.906656
31
0.0
0
LINE
8
LEFT_HID
6
HIDDEN
10
0.979013
20
0.973508
30
0.0
11
0.979013
21
0.943421
31
0.0
0
LINE
8
LEFT_HID
6
HIDDEN
10
0.979013
20
0.943421
30
0.0
11
0.979013
21
0.913334
31
0.0
0
LINE
8
LEFT_HID
6
HIDDEN
10
0.979013
20
0.943421
30
0.0
11
0.979013
21
0.919955
31
0.0
0
LINE
8
LEFT_HID
6
HIDDEN
10
0.994638
20
0.943421
30
0.0
11
0.994638
21
0.919955
31
0.0
0
LINE
8
LEFT_HID
6
HIDDEN
10
0.994638
20
0.966887
30
0.0
11
0.994638
21
0.943421
31
0.0
0
LINE
8
LEFT_HID
6
HIDDEN
10
0.979013
20
0.966887
30
0.0
11
0.979013
21
0.943421
31
0.0
0
LINE
8
LEFT_HID
6
HIDDEN
10
0.994638
20
0.976830
30
0.0
11
0.994638
21
0.986666
31
0.0
0
LINE
8
LEFT_HID
6
HIDDEN
10
0.994638
20
0.973508
30
0.0
11
0.994638
21
0.966887
31
0.0
0
LINE
8
LEFT_HID
6
HIDDEN
10
0.994638
20
0.982139
30
0.0
11
0.994638
21
0.973508
31
0.0
0
LINE
8
LEFT_HID
6
HIDDEN
10
0.994638
20
0.900176
30
0.0
11
0.994638
21
0.910012
31
0.0
0
LINE
8
LEFT_HID
6
HIDDEN
10
0.994638
20
0.903947
30
0.0
11
0.994638
21
0.904703
31
0.0
0
LINE
8
LEFT_HID
6
HIDDEN
10
0.994638
20
0.913334
30
0.0
11
0.994638
21
0.903947
31
0.0
0
LINE
8
LEFT_HID
6
HIDDEN
10
0.994638
20
0.919955
30
0.0
11
0.994638
21
0.913334
31
0.0
0
LINE
8
LEFT_HID
6
HIDDEN
10
0.994638
20
0.906332
30
0.0
11
0.994638
21
0.980186
31
0.0
0
LINE
8
LEFT_HID
6
HIDDEN
10
0.994638
20
0.906656
30
0.0
11
0.994638
21
0.906332
31
0.0
0
LINE
8
LEFT_HID
6
HIDDEN
10
0.994638
20
0.906656
30
0.0
11
0.994638
21
0.904523
31
0.0
0
LINE
8
LEFT_HID
6
HIDDEN
10
0.994638
20
0.904523
30
0.0
11
0.994638
21
0.904703
31
0.0
0
LINE
8
LEFT_HID
6
HIDDEN
10
0.994638
20
0.982139
30
0.0
11
0.994638
21
0.980186
31
0.0
0
LINE
8
LEFT_HID
6
HIDDEN
10
0.994638
20
0.943421
30
0.0
11
0.994638
21
0.913334
31
0.0
0
LINE
8
LEFT_HID
6
HIDDEN
10
0.994638
20
0.973508
30
0.0
11
0.994638
21
0.943421
31
0.0
0
LINE
8
LEFT_HID
6
HIDDEN
10
0.994638
20
0.980186
30
0.0
11
0.994638
21
0.973508
31
0.0
0
LINE
8
LEFT_HID
6
HIDDEN
10
0.994638
20
0.913334
30
0.0
11
0.994638
21
0.906656
31
0.0
0
LINE
8
LEFT_HID
6
HIDDEN
10
0.994638
20
0.980186
30
0.0
11
0.994638
21
0.906656
31
0.0
0
LINE
8
LEFT_HID
6
HIDDEN
10
0.979013
20
0.980510
30
0.0
11
0.260263
21
0.980510
31
0.0
0
LINE
8
LEFT_HID
6
HIDDEN
10
0.979013
20
0.986842
30
0.0
11
0.994638
21
0.986842
31
0.0
0
LINE
8
TOP
10
0.086842
20
0.750000
30
0.0
11
0.000000
21
0.750000
31
0.0
0
LINE
8
TOP
10
0.047327
20
0.000000
30
0.0
11
0.000000
21
0.000000
31
0.0
0
LINE
8
TOP
10
0.047327
20
0.000000
30
0.0
11
0.047327
21
0.015625
31
0.0
0
LINE
8
TOP
10
0.094655
20
0.000000
30
0.0
11
0.047327
21
0.000000
31
0.0
0
LINE
8
TOP
10
0.094655
20
0.015625
30
0.0
11
0.047327
21
0.015625
31
0.0
0
LINE
8
TOP
10
0.086842
20
0.015625
30
0.0
11
0.086842
21
0.750000
31
0.0
0
LINE
8
TOP
10
0.000000
20
0.000000
30
0.0
11
0.000000
21
0.750000
31
0.0
0
LINE
8
TOP
10
0.094655
20
0.015625
30
0.0
11
0.094655
21
0.000000
31
0.0
0
LINE
8
TOP_HID
6
HIDDEN
10
0.043421
20
0.750000
30
0.0
11
0.055834
21
0.750000
31
0.0
0
LINE
8
TOP_HID
6
HIDDEN
10
0.025496
20
0.750000
30
0.0
11
0.043421
21
0.750000
31
0.0
0
LINE
8
TOP_HID
6
HIDDEN
10
0.046464
20
0.750000
30
0.0
11
0.025496
21
0.750000
31
0.0
0
LINE
8
TOP_HID
6
HIDDEN
10
0.025496
20
0.750000
30
0.0
11
0.046464
21
0.750000
31
0.0
0
LINE
8
TOP_HID
6
HIDDEN
10
0.055834
20
0.750000
30
0.0
11
0.025496
21
0.750000
31
0.0
0
LINE
8
TOP_HID
6
HIDDEN
10
0.055834
20
0.750000
30
0.0
11
0.056686
21
0.750000
31
0.0
0
LINE
8
TOP_HID
6
HIDDEN
10
0.056686
20
0.750000
30
0.0
11
0.057537
21
0.750000
31
0.0
0
LINE
8
TOP_HID
6
HIDDEN
10
0.057537
20
0.750000
30
0.0
11
0.058388
21
0.750000
31
0.0
0
LINE
8
TOP_HID
6
HIDDEN
10
0.058388
20
0.750000
30
0.0
11
0.059239
21
0.750000
31
0.0
0
LINE
8
TOP_HID
6
HIDDEN
10
0.059239
20
0.750000
30
0.0
11
0.060091
21
0.750000
31
0.0
0
LINE
8
TOP_HID
6
HIDDEN
10
0.060091
20
0.750000
30
0.0
11
0.060942
21
0.750000
31
0.0
0
LINE
8
TOP_HID
6
HIDDEN
10
0.060942
20
0.750000
30
0.0
11
0.061793
21
0.750000
31
0.0
0
LINE
8
TOP_HID
6
HIDDEN
10
0.061793
20
0.750000
30
0.0
11
0.062644
21
0.750000
31
0.0
0
LINE
8
TOP_HID
6
HIDDEN
10
0.062644
20
0.750000
30
0.0
11
0.063495
21
0.750000
31
0.0
0
LINE
8
TOP_HID
6
HIDDEN
10
0.063495
20
0.750000
30
0.0
11
0.064347
21
0.750000
31
0.0
0
LINE
8
TOP_HID
6
HIDDEN
10
0.064347
20
0.750000
30
0.0
11
0.065198
21
0.750000
31
0.0
0
LINE
8
TOP_HID
6
HIDDEN
10
0.065198
20
0.750000
30
0.0
11
0.066049
21
0.750000
31
0.0
0
LINE
8
TOP_HID
6
HIDDEN
10
0.066049
20
0.750000
30
0.0
11
0.066900
21
0.750000
31
0.0
0
LINE
8
TOP_HID
6
HIDDEN
10
0.066900
20
0.750000
30
0.0
11
0.067752
21
0.750000
31
0.0
0
LINE
8
TOP_HID
6
HIDDEN
10
0.067752
20
0.750000
30
0.0
11
0.068603
21
0.750000
31
0.0
0
LINE
8
TOP_HID
6
HIDDEN
10
0.068603
20
0.750000
30
0.0
11
0.069454
21
0.750000
31
0.0
0
LINE
8
TOP_HID
6
HIDDEN
10
0.069454
20
0.750000
30
0.0
11
0.070305
21
0.750000
31
0.0
0
LINE
8
TOP_HID
6
HIDDEN
10
0.070305
20
0.750000
30
0.0
11
0.071156
21
0.750000
31
0.0
0
LINE
8
TOP_HID
6
HIDDEN
10
0.071156
20
0.750000
30
0.0
11
0.072008
21
0.750000
31
0.0
0
LINE
8
TOP_HID
6
HIDDEN
10
0.072008
20
0.750000
30
0.0
11
0.072859
21
0.750000
31
0.0
0
LINE
8
TOP_HID
6
HIDDEN
10
0.072859
20
0.750000
30
0.0
11
0.073710
21
0.750000
31
0.0
0
LINE
8
TOP_HID
6
HIDDEN
10
0.073710
20
0.750000
30
0.0
11
0.074561
21
0.750000
31
0.0
0
LINE
8
TOP_HID
6
HIDDEN
10
0.074561
20
0.750000
30
0.0
11
0.075413
21
0.750000
31
0.0
0
LINE
8
TOP_HID
6
HIDDEN
10
0.075413
20
0.750000
30
0.0
11
0.076264
21
0.750000
31
0.0
0
LINE
8
TOP_HID
6
HIDDEN
10
0.076264
20
0.750000
30
0.0
11
0.077115
21
0.750000
31
0.0
0
LINE
8
TOP_HID
6
HIDDEN
10
0.077115
20
0.750000
30
0.0
11
0.077966
21
0.750000
31
0.0
0
LINE
8
TOP_HID
6
HIDDEN
10
0.077966
20
0.750000
30
0.0
11
0.078818
21
0.750000
31
0.0
0
LINE
8
TOP_HID
6
HIDDEN
10
0.078818
20
0.750000
30
0.0
11
0.079669
21
0.750000
31
0.0
0
LINE
8
TOP_HID
6
HIDDEN
10
0.079669
20
0.750000
30
0.0
11
0.080520
21
0.750000
31
0.0
0
LINE
8
TOP_HID
6
HIDDEN
10
0.080520
20
0.750000
30
0.0
11
0.081371
21
0.750000
31
0.0
0
LINE
8
TOP_HID
6
HIDDEN
10
0.081371
20
0.750000
30
0.0
11
0.082222
21
0.750000
31
0.0
0
LINE
8
TOP_HID
6
HIDDEN
10
0.082222
20
0.750000
30
0.0
11
0.081371
21
0.750000
31
0.0
0
LINE
8
TOP_HID
6
HIDDEN
10
0.081371
20
0.750000
30
0.0
11
0.080520
21
0.750000
31
0.0
0
LINE
8
TOP_HID
6
HIDDEN
10
0.080520
20
0.750000
30
0.0
11
0.079669
21
0.750000
31
0.0
0
LINE
8
TOP_HID
6
HIDDEN
10
0.079669
20
0.750000
30
0.0
11
0.078818
21
0.750000
31
0.0
0
LINE
8
TOP_HID
6
HIDDEN
10
0.078818
20
0.750000
30
0.0
11
0.077966
21
0.750000
31
0.0
0
LINE
8
TOP_HID
6
HIDDEN
10
0.077966
20
0.750000
30
0.0
11
0.077115
21
0.750000
31
0.0
0
LINE
8
TOP_HID
6
HIDDEN
10
0.077115
20
0.750000
30
0.0
11
0.076264
21
0.750000
31
0.0
0
LINE
8
TOP_HID
6
HIDDEN
10
0.076264
20
0.750000
30
0.0
11
0.075413
21
0.750000
31
0.0
0
LINE
8
TOP_HID
6
HIDDEN
10
0.075413
20
0.750000
30
0.0
11
0.074561
21
0.750000
31
0.0
0
LINE
8
TOP_HID
6
HIDDEN
10
0.074561
20
0.750000
30
0.0
11
0.073710
21
0.750000
31
0.0
0
LINE
8
TOP_HID
6
HIDDEN
10
0.073710
20
0.750000
30
0.0
11
0.072859
21
0.750000
31
0.0
0
LINE
8
TOP_HID
6
HIDDEN
10
0.072859
20
0.750000
30
0.0
11
0.072008
21
0.750000
31
0.0
0
LINE
8
TOP_HID
6
HIDDEN
10
0.072008
20
0.750000
30
0.0
11
0.071156
21
0.750000
31
0.0
0
LINE
8
TOP_HID
6
HIDDEN
10
0.071156
20
0.750000
30
0.0
11
0.070305
21
0.750000
31
0.0
0
LINE
8
TOP_HID
6
HIDDEN
10
0.070305
20
0.750000
30
0.0
11
0.069454
21
0.750000
31
0.0
0
LINE
8
TOP_HID
6
HIDDEN
10
0.069454
20
0.750000
30
0.0
11
0.068603
21
0.750000
31
0.0
0
LINE
8
TOP_HID
6
HIDDEN
10
0.068603
20
0.750000
30
0.0
11
0.067752
21
0.750000
31
0.0
0
LINE
8
TOP_HID
6
HIDDEN
10
0.067752
20
0.750000
30
0.0
11
0.066900
21
0.750000
31
0.0
0
LINE
8
TOP_HID
6
HIDDEN
10
0.066900
20
0.750000
30
0.0
11
0.066049
21
0.750000
31
0.0
0
LINE
8
TOP_HID
6
HIDDEN
10
0.066049
20
0.750000
30
0.0
11
0.065198
21
0.750000
31
0.0
0
LINE
8
TOP_HID
6
HIDDEN
10
0.065198
20
0.750000
30
0.0
11
0.064347
21
0.750000
31
0.0
0
LINE
8
TOP_HID
6
HIDDEN
10
0.064347
20
0.750000
30
0.0
11
0.063495
21
0.750000
31
0.0
0
LINE
8
TOP_HID
6
HIDDEN
10
0.063495
20
0.750000
30
0.0
11
0.062644
21
0.750000
31
0.0
0
LINE
8
TOP_HID
6
HIDDEN
10
0.062644
20
0.750000
30
0.0
11
0.061793
21
0.750000
31
0.0
0
LINE
8
TOP_HID
6
HIDDEN
10
0.061793
20
0.750000
30
0.0
11
0.060942
21
0.750000
31
0.0
0
LINE
8
TOP_HID
6
HIDDEN
10
0.060942
20
0.750000
30
0.0
11
0.060091
21
0.750000
31
0.0
0
LINE
8
TOP_HID
6
HIDDEN
10
0.060091
20
0.750000
30
0.0
11
0.059239
21
0.750000
31
0.0
0
LINE
8
TOP_HID
6
HIDDEN
10
0.059239
20
0.750000
30
0.0
11
0.058388
21
0.750000
31
0.0
0
LINE
8
TOP_HID
6
HIDDEN
10
0.058388
20
0.750000
30
0.0
11
0.057537
21
0.750000
31
0.0
0
LINE
8
TOP_HID
6
HIDDEN
10
0.057537
20
0.750000
30
0.0
11
0.056686
21
0.750000
31
0.0
0
LINE
8
TOP_HID
6
HIDDEN
10
0.056686
20
0.750000
30
0.0
11
0.055834
21
0.750000
31
0.0
0
LINE
8
TOP_HID
6
HIDDEN
10
0.025496
20
0.750000
30
0.0
11
0.024934
21
0.750000
31
0.0
0
LINE
8
TOP_HID
6
HIDDEN
10
0.024934
20
0.750000
30
0.0
11
0.024373
21
0.750000
31
0.0
0
LINE
8
TOP_HID
6
HIDDEN
10
0.024373
20
0.750000
30
0.0
11
0.023812
21
0.750000
31
0.0
0
LINE
8
TOP_HID
6
HIDDEN
10
0.023812
20
0.750000
30
0.0
11
0.023250
21
0.750000
31
0.0
0
LINE
8
TOP_HID
6
HIDDEN
10
0.023250
20
0.750000
30
0.0
11
0.022689
21
0.750000
31
0.0
0
LINE
8
TOP_HID
6
HIDDEN
10
0.022689
20
0.750000
30
0.0
11
0.022127
21
0.750000
31
0.0
0
LINE
8
TOP_HID
6
HIDDEN
10
0.022127
20
0.750000
30
0.0
11
0.021566
21
0.750000
31
0.0
0
LINE
8
TOP_HID
6
HIDDEN
10
0.021566
20
0.750000
30
0.0
11
0.021005
21
0.750000
31
0.0
0
LINE
8
TOP_HID
6
HIDDEN
10
0.021005
20
0.750000
30
0.0
11
0.020443
21
0.750000
31
0.0
0
LINE
8
TOP_HID
6
HIDDEN
10
0.020443
20
0.750000
30
0.0
11
0.019882
21
0.750000
31
0.0
0
LINE
8
TOP_HID
6
HIDDEN
10
0.019882
20
0.750000
30
0.0
11
0.019321
21
0.750000
31
0.0
0
LINE
8
TOP_HID
6
HIDDEN
10
0.019321
20
0.750000
30
0.0
11
0.018759
21
0.750000
31
0.0
0
LINE
8
TOP_HID
6
HIDDEN
10
0.018759
20
0.750000
30
0.0
11
0.018198
21
0.750000
31
0.0
0
LINE
8
TOP_HID
6
HIDDEN
10
0.018198
20
0.750000
30
0.0
11
0.017636
21
0.750000
31
0.0
0
LINE
8
TOP_HID
6
HIDDEN
10
0.017636
20
0.750000
30
0.0
11
0.017075
21
0.750000
31
0.0
0
LINE
8
TOP_HID
6
HIDDEN
10
0.017075
20
0.750000
30
0.0
11
0.016514
21
0.750000
31
0.0
0
LINE
8
TOP_HID
6
HIDDEN
10
0.016514
20
0.750000
30
0.0
11
0.015952
21
0.750000
31
0.0
0
LINE
8
TOP_HID
6
HIDDEN
10
0.015952
20
0.750000
30
0.0
11
0.015391
21
0.750000
31
0.0
0
LINE
8
TOP_HID
6
HIDDEN
10
0.015391
20
0.750000
30
0.0
11
0.014830
21
0.750000
31
0.0
0
LINE
8
TOP_HID
6
HIDDEN
10
0.014830
20
0.750000
30
0.0
11
0.014268
21
0.750000
31
0.0
0
LINE
8
TOP_HID
6
HIDDEN
10
0.014268
20
0.750000
30
0.0
11
0.013707
21
0.750000
31
0.0
0
LINE
8
TOP_HID
6
HIDDEN
10
0.013707
20
0.750000
30
0.0
11
0.013146
21
0.750000
31
0.0
0
LINE
8
TOP_HID
6
HIDDEN
10
0.013146
20
0.750000
30
0.0
11
0.012584
21
0.750000
31
0.0
0
LINE
8
TOP_HID
6
HIDDEN
10
0.012584
20
0.750000
30
0.0
11
0.012023
21
0.750000
31
0.0
0
LINE
8
TOP_HID
6
HIDDEN
10
0.012023
20
0.750000
30
0.0
11
0.011461
21
0.750000
31
0.0
0
LINE
8
TOP_HID
6
HIDDEN
10
0.011461
20
0.750000
30
0.0
11
0.010900
21
0.750000
31
0.0
0
LINE
8
TOP_HID
6
HIDDEN
10
0.010900
20
0.750000
30
0.0
11
0.010339
21
0.750000
31
0.0
0
LINE
8
TOP_HID
6
HIDDEN
10
0.010339
20
0.750000
30
0.0
11
0.009777
21
0.750000
31
0.0
0
LINE
8
TOP_HID
6
HIDDEN
10
0.009777
20
0.750000
30
0.0
11
0.009216
21
0.750000
31
0.0
0
LINE
8
TOP_HID
6
HIDDEN
10
0.009216
20
0.750000
30
0.0
11
0.008655
21
0.750000
31
0.0
0
LINE
8
TOP_HID
6
HIDDEN
10
0.008655
20
0.750000
30
0.0
11
0.008093
21
0.750000
31
0.0
0
LINE
8
TOP_HID
6
HIDDEN
10
0.008093
20
0.750000
30
0.0
11
0.008655
21
0.750000
31
0.0
0
LINE
8
TOP_HID
6
HIDDEN
10
0.008655
20
0.750000
30
0.0
11
0.009216
21
0.750000
31
0.0
0
LINE
8
TOP_HID
6
HIDDEN
10
0.009216
20
0.750000
30
0.0
11
0.009777
21
0.750000
31
0.0
0
LINE
8
TOP_HID
6
HIDDEN
10
0.009777
20
0.750000
30
0.0
11
0.010339
21
0.750000
31
0.0
0
LINE
8
TOP_HID
6
HIDDEN
10
0.010339
20
0.750000
30
0.0
11
0.010900
21
0.750000
31
0.0
0
LINE
8
TOP_HID
6
HIDDEN
10
0.010900
20
0.750000
30
0.0
11
0.011461
21
0.750000
31
0.0
0
LINE
8
TOP_HID
6
HIDDEN
10
0.011461
20
0.750000
30
0.0
11
0.012023
21
0.750000
31
0.0
0
LINE
8
TOP_HID
6
HIDDEN
10
0.012023
20
0.750000
30
0.0
11
0.012584
21
0.750000
31
0.0
0
LINE
8
TOP_HID
6
HIDDEN
10
0.012584
20
0.750000
30
0.0
11
0.013146
21
0.750000
31
0.0
0
LINE
8
TOP_HID
6
HIDDEN
10
0.013146
20
0.750000
30
0.0
11
0.013707
21
0.750000
31
0.0
0
LINE
8
TOP_HID
6
HIDDEN
10
0.013707
20
0.750000
30
0.0
11
0.014268
21
0.750000
31
0.0
0
LINE
8
TOP_HID
6
HIDDEN
10
0.014268
20
0.750000
30
0.0
11
0.014830
21
0.750000
31
0.0
0
LINE
8
TOP_HID
6
HIDDEN
10
0.014830
20
0.750000
30
0.0
11
0.015391
21
0.750000
31
0.0
0
LINE
8
TOP_HID
6
HIDDEN
10
0.015391
20
0.750000
30
0.0
11
0.015952
21
0.750000
31
0.0
0
LINE
8
TOP_HID
6
HIDDEN
10
0.015952
20
0.750000
30
0.0
11
0.016514
21
0.750000
31
0.0
0
LINE
8
TOP_HID
6
HIDDEN
10
0.016514
20
0.750000
30
0.0
11
0.017075
21
0.750000
31
0.0
0
LINE
8
TOP_HID
6
HIDDEN
10
0.017075
20
0.750000
30
0.0
11
0.017636
21
0.750000
31
0.0
0
LINE
8
TOP_HID
6
HIDDEN
10
0.017636
20
0.750000
30
0.0
11
0.018198
21
0.750000
31
0.0
0
LINE
8
TOP_HID
6
HIDDEN
10
0.018198
20
0.750000
30
0.0
11
0.018759
21
0.750000
31
0.0
0
LINE
8
TOP_HID
6
HIDDEN
10
0.018759
20
0.750000
30
0.0
11
0.019321
21
0.750000
31
0.0
0
LINE
8
TOP_HID
6
HIDDEN
10
0.019321
20
0.750000
30
0.0
11
0.019882
21
0.750000
31
0.0
0
LINE
8
TOP_HID
6
HIDDEN
10
0.019882
20
0.750000
30
0.0
11
0.020443
21
0.750000
31
0.0
0
LINE
8
TOP_HID
6
HIDDEN
10
0.020443
20
0.750000
30
0.0
11
0.021005
21
0.750000
31
0.0
0
LINE
8
TOP_HID
6
HIDDEN
10
0.021005
20
0.750000
30
0.0
11
0.021566
21
0.750000
31
0.0
0
LINE
8
TOP_HID
6
HIDDEN
10
0.021566
20
0.750000
30
0.0
11
0.022127
21
0.750000
31
0.0
0
LINE
8
TOP_HID
6
HIDDEN
10
0.022127
20
0.750000
30
0.0
11
0.022689
21
0.750000
31
0.0
0
LINE
8
TOP_HID
6
HIDDEN
10
0.022689
20
0.750000
30
0.0
11
0.023250
21
0.750000
31
0.0
0
LINE
8
TOP_HID
6
HIDDEN
10
0.023250
20
0.750000
30
0.0
11
0.023812
21
0.750000
31
0.0
0
LINE
8
TOP_HID
6
HIDDEN
10
0.023812
20
0.750000
30
0.0
11
0.024373
21
0.750000
31
0.0
0
LINE
8
TOP_HID
6
HIDDEN
10
0.024373
20
0.750000
30
0.0
11
0.024934
21
0.750000
31
0.0
0
LINE
8
TOP_HID
6
HIDDEN
10
0.024934
20
0.750000
30
0.0
11
0.025496
21
0.750000
31
0.0
0
LINE
8
TOP_HID
6
HIDDEN
10
0.046464
20
0.750000
30
0.0
11
0.055834
21
0.750000
31
0.0
0
LINE
8
TOP_HID
6
HIDDEN
10
0.055834
20
0.750000
30
0.0
11
0.046464
21
0.750000
31
0.0
0
LINE
8
TOP_HID
6
HIDDEN
10
0.055834
20
0.750000
30
0.0
11
0.056618
21
0.750000
31
0.0
0
LINE
8
TOP_HID
6
HIDDEN
10
0.056618
20
0.750000
30
0.0
11
0.057401
21
0.750000
31
0.0
0
LINE
8
TOP_HID
6
HIDDEN
10
0.057401
20
0.750000
30
0.0
11
0.058184
21
0.750000
31
0.0
0
LINE
8
TOP_HID
6
HIDDEN
10
0.058184
20
0.750000
30
0.0
11
0.058968
21
0.750000
31
0.0
0
LINE
8
TOP_HID
6
HIDDEN
10
0.058968
20
0.750000
30
0.0
11
0.059751
21
0.750000
31
0.0
0
LINE
8
TOP_HID
6
HIDDEN
10
0.059751
20
0.750000
30
0.0
11
0.060534
21
0.750000
31
0.0
0
LINE
8
TOP_HID
6
HIDDEN
10
0.060534
20
0.750000
30
0.0
11
0.061318
21
0.750000
31
0.0
0
LINE
8
TOP_HID
6
HIDDEN
10
0.061318
20
0.750000
30
0.0
11
0.062101
21
0.750000
31
0.0
0
LINE
8
TOP_HID
6
HIDDEN
10
0.062101
20
0.750000
30
0.0
11
0.062885
21
0.750000
31
0.0
0
LINE
8
TOP_HID
6
HIDDEN
10
0.062885
20
0.750000
30
0.0
11
0.063668
21
0.750000
31
0.0
0
LINE
8
TOP_HID
6
HIDDEN
10
0.063668
20
0.750000
30
0.0
11
0.064451
21
0.750000
31
0.0
0
LINE
8
TOP_HID
6
HIDDEN
10
0.064451
20
0.750000
30
0.0
11
0.065235
21
0.750000
31
0.0
0
LINE
8
TOP_HID
6
HIDDEN
10
0.065235
20
0.750000
30
0.0
11
0.066018
21
0.750000
31
0.0
0
LINE
8
TOP_HID
6
HIDDEN
10
0.066018
20
0.750000
30
0.0
11
0.066801
21
0.750000
31
0.0
0
LINE
8
TOP_HID
6
HIDDEN
10
0.066801
20
0.750000
30
0.0
11
0.067585
21
0.750000
31
0.0
0
LINE
8
TOP_HID
6
HIDDEN
10
0.067585
20
0.750000
30
0.0
11
0.068368
21
0.750000
31
0.0
0
LINE
8
TOP_HID
6
HIDDEN
10
0.068368
20
0.750000
30
0.0
11
0.069151
21
0.750000
31
0.0
0
LINE
8
TOP_HID
6
HIDDEN
10
0.069151
20
0.750000
30
0.0
11
0.069935
21
0.750000
31
0.0
0
LINE
8
TOP_HID
6
HIDDEN
10
0.069935
20
0.750000
30
0.0
11
0.070718
21
0.750000
31
0.0
0
LINE
8
TOP_HID
6
HIDDEN
10
0.070718
20
0.750000
30
0.0
11
0.071501
21
0.750000
31
0.0
0
LINE
8
TOP_HID
6
HIDDEN
10
0.071501
20
0.750000
30
0.0
11
0.072285
21
0.750000
31
0.0
0
LINE
8
TOP_HID
6
HIDDEN
10
0.072285
20
0.750000
30
0.0
11
0.073068
21
0.750000
31
0.0
0
LINE
8
TOP_HID
6
HIDDEN
10
0.073068
20
0.750000
30
0.0
11
0.073851
21
0.750000
31
0.0
0
LINE
8
TOP_HID
6
HIDDEN
10
0.073851
20
0.750000
30
0.0
11
0.074635
21
0.750000
31
0.0
0
LINE
8
TOP_HID
6
HIDDEN
10
0.074635
20
0.750000
30
0.0
11
0.075418
21
0.750000
31
0.0
0
LINE
8
TOP_HID
6
HIDDEN
10
0.075418
20
0.750000
30
0.0
11
0.076201
21
0.750000
31
0.0
0
LINE
8
TOP_HID
6
HIDDEN
10
0.076201
20
0.750000
30
0.0
11
0.076985
21
0.750000
31
0.0
0
LINE
8
TOP_HID
6
HIDDEN
10
0.076985
20
0.750000
30
0.0
11
0.077768
21
0.750000
31
0.0
0
LINE
8
TOP_HID
6
HIDDEN
10
0.077768
20
0.750000
30
0.0
11
0.078551
21
0.750000
31
0.0
0
LINE
8
TOP_HID
6
HIDDEN
10
0.078551
20
0.750000
30
0.0
11
0.079335
21
0.750000
31
0.0
0
LINE
8
TOP_HID
6
HIDDEN
10
0.079335
20
0.750000
30
0.0
11
0.080118
21
0.750000
31
0.0
0
LINE
8
TOP_HID
6
HIDDEN
10
0.080118
20
0.750000
30
0.0
11
0.079335
21
0.750000
31
0.0
0
LINE
8
TOP_HID
6
HIDDEN
10
0.079335
20
0.750000
30
0.0
11
0.078551
21
0.750000
31
0.0
0
LINE
8
TOP_HID
6
HIDDEN
10
0.078551
20
0.750000
30
0.0
11
0.077768
21
0.750000
31
0.0
0
LINE
8
TOP_HID
6
HIDDEN
10
0.077768
20
0.750000
30
0.0
11
0.076985
21
0.750000
31
0.0
0
LINE
8
TOP_HID
6
HIDDEN
10
0.076985
20
0.750000
30
0.0
11
0.076201
21
0.750000
31
0.0
0
LINE
8
TOP_HID
6
HIDDEN
10
0.076201
20
0.750000
30
0.0
11
0.075418
21
0.750000
31
0.0
0
LINE
8
TOP_HID
6
HIDDEN
10
0.075418
20
0.750000
30
0.0
11
0.074635
21
0.750000
31
0.0
0
LINE
8
TOP_HID
6
HIDDEN
10
0.074635
20
0.750000
30
0.0
11
0.073851
21
0.750000
31
0.0
0
LINE
8
TOP_HID
6
HIDDEN
10
0.073851
20
0.750000
30
0.0
11
0.073068
21
0.750000
31
0.0
0
LINE
8
TOP_HID
6
HIDDEN
10
0.073068
20
0.750000
30
0.0
11
0.072285
21
0.750000
31
0.0
0
LINE
8
TOP_HID
6
HIDDEN
10
0.072285
20
0.750000
30
0.0
11
0.071501
21
0.750000
31
0.0
0
LINE
8
TOP_HID
6
HIDDEN
10
0.071501
20
0.750000
30
0.0
11
0.070718
21
0.750000
31
0.0
0
LINE
8
TOP_HID
6
HIDDEN
10
0.070718
20
0.750000
30
0.0
11
0.069935
21
0.750000
31
0.0
0
LINE
8
TOP_HID
6
HIDDEN
10
0.069935
20
0.750000
30
0.0
11
0.069151
21
0.750000
31
0.0
0
LINE
8
TOP_HID
6
HIDDEN
10
0.069151
20
0.750000
30
0.0
11
0.068368
21
0.750000
31
0.0
0
LINE
8
TOP_HID
6
HIDDEN
10
0.068368
20
0.750000
30
0.0
11
0.067585
21
0.750000
31
0.0
0
LINE
8
TOP_HID
6
HIDDEN
10
0.067585
20
0.750000
30
0.0
11
0.066801
21
0.750000
31
0.0
0
LINE
8
TOP_HID
6
HIDDEN
10
0.066801
20
0.750000
30
0.0
11
0.066018
21
0.750000
31
0.0
0
LINE
8
TOP_HID
6
HIDDEN
10
0.066018
20
0.750000
30
0.0
11
0.065235
21
0.750000
31
0.0
0
LINE
8
TOP_HID
6
HIDDEN
10
0.065235
20
0.750000
30
0.0
11
0.064451
21
0.750000
31
0.0
0
LINE
8
TOP_HID
6
HIDDEN
10
0.064451
20
0.750000
30
0.0
11
0.063668
21
0.750000
31
0.0
0
LINE
8
TOP_HID
6
HIDDEN
10
0.063668
20
0.750000
30
0.0
11
0.062885
21
0.750000
31
0.0
0
LINE
8
TOP_HID
6
HIDDEN
10
0.062885
20
0.750000
30
0.0
11
0.062101
21
0.750000
31
0.0
0
LINE
8
TOP_HID
6
HIDDEN
10
0.062101
20
0.750000
30
0.0
11
0.061318
21
0.750000
31
0.0
0
LINE
8
TOP_HID
6
HIDDEN
10
0.061318
20
0.750000
30
0.0
11
0.060534
21
0.750000
31
0.0
0
LINE
8
TOP_HID
6
HIDDEN
10
0.060534
20
0.750000
30
0.0
11
0.059751
21
0.750000
31
0.0
0
LINE
8
TOP_HID
6
HIDDEN
10
0.059751
20
0.750000
30
0.0
11
0.058968
21
0.750000
31
0.0
0
LINE
8
TOP_HID
6
HIDDEN
10
0.058968
20
0.750000
30
0.0
11
0.058184
21
0.750000
31
0.0
0
LINE
8
TOP_HID
6
HIDDEN
10
0.058184
20
0.750000
30
0.0
11
0.057401
21
0.750000
31
0.0
0
LINE
8
TOP_HID
6
HIDDEN
10
0.057401
20
0.750000
30
0.0
11
0.056618
21
0.750000
31
0.0
0
LINE
8
TOP_HID
6
HIDDEN
10
0.056618
20
0.750000
30
0.0
11
0.055834
21
0.750000
31
0.0
0
LINE
8
TOP_HID
6
HIDDEN
10
0.014938
20
0.750000
30
0.0
11
0.025496
21
0.750000
31
0.0
0
LINE
8
TOP_HID
6
HIDDEN
10
0.046464
20
0.750000
30
0.0
11
0.014938
21
0.750000
31
0.0
0
LINE
8
TOP_HID
6
HIDDEN
10
0.014938
20
0.750000
30
0.0
11
0.046464
21
0.750000
31
0.0
0
LINE
8
TOP_HID
6
HIDDEN
10
0.025496
20
0.750000
30
0.0
11
0.014938
21
0.750000
31
0.0
0
LINE
8
TOP_HID
6
HIDDEN
10
0.014938
20
0.750000
30
0.0
11
0.006990
21
0.750000
31
0.0
0
LINE
8
TOP_HID
6
HIDDEN
10
0.006990
20
0.750000
30
0.0
11
0.014938
21
0.750000
31
0.0
0
LINE
8
TOP_HID
6
HIDDEN
10
0.043421
20
0.750000
30
0.0
11
0.086842
21
0.750000
31
0.0
0
LINE
8
TOP_HID
6
HIDDEN
10
0.000000
20
0.750000
30
0.0
11
0.043421
21
0.750000
31
0.0
0
LINE
8
TOP_HID
6
HIDDEN
10
0.014938
20
0.750000
30
0.0
11
0.006332
21
0.750000
31
0.0
0
LINE
8
TOP_HID
6
HIDDEN
10
0.006332
20
0.750000
30
0.0
11
0.014938
21
0.750000
31
0.0
0
LINE
8
TOP_HID
6
HIDDEN
10
0.014938
20
0.734375
30
0.0
11
0.014938
21
0.750000
31
0.0
0
LINE
8
TOP_HID
6
HIDDEN
10
0.014938
20
0.734375
30
0.0
11
0.006990
21
0.734375
31
0.0
0
LINE
8
TOP_HID
6
HIDDEN
10
0.006990
20
0.734375
30
0.0
11
0.014938
21
0.734375
31
0.0
0
LINE
8
TOP_HID
6
HIDDEN
10
0.014938
20
0.734375
30
0.0
11
0.014938
21
0.750000
31
0.0
0
LINE
8
TOP_HID
6
HIDDEN
10
0.000000
20
0.000000
30
0.0
11
0.043421
21
0.000000
31
0.0
0
LINE
8
TOP_HID
6
HIDDEN
10
0.047327
20
0.015625
30
0.0
11
0.071157
21
0.015625
31
0.0
0
LINE
8
TOP_HID
6
HIDDEN
10
0.071157
20
0.000000
30
0.0
11
0.071157
21
0.015625
31
0.0
0
LINE
8
TOP_HID
6
HIDDEN
10
0.071157
20
0.000000
30
0.0
11
0.086842
21
0.000000
31
0.0
0
LINE
8
TOP_HID
6
HIDDEN
10
0.086842
20
0.000000
30
0.0
11
0.071157
21
0.000000
31
0.0
0
LINE
8
TOP_HID
6
HIDDEN
10
0.071157
20
0.000000
30
0.0
11
0.071157
21
0.015625
31
0.0
0
LINE
8
TOP_HID
6
HIDDEN
10
0.071157
20
0.015625
30
0.0
11
0.047327
21
0.015625
31
0.0
0
LINE
8
TOP_HID
6
HIDDEN
10
0.043421
20
0.000000
30
0.0
11
0.047327
21
0.000000
31
0.0
0
LINE
8
TOP_HID
6
HIDDEN
10
0.025496
20
0.734375
30
0.0
11
0.014938
21
0.734375
31
0.0
0
LINE
8
TOP_HID
6
HIDDEN
10
0.043421
20
0.734375
30
0.0
11
0.025496
21
0.734375
31
0.0
0
LINE
8
TOP_HID
6
HIDDEN
10
0.043421
20
0.015625
30
0.0
11
0.038529
21
0.015625
31
0.0
0
LINE
8
TOP_HID
6
HIDDEN
10
0.038529
20
0.015625
30
0.0
11
0.021733
21
0.015625
31
0.0
0
LINE
8
TOP_HID
6
HIDDEN
10
0.021733
20
0.015625
30
0.0
11
0.014700
21
0.015625
31
0.0
0
LINE
8
TOP_HID
6
HIDDEN
10
0.014700
20
0.000000
30
0.0
11
0.014700
21
0.015625
31
0.0
0
LINE
8
TOP_HID
6
HIDDEN
10
0.014700
20
0.000000
30
0.0
11
0.006332
21
0.000000
31
0.0
0
LINE
8
TOP_HID
6
HIDDEN
10
0.006332
20
0.000000
30
0.0
11
0.014700
21
0.000000
31
0.0
0
LINE
8
TOP_HID
6
HIDDEN
10
0.014700
20
0.000000
30
0.0
11
0.014700
21
0.015625
31
0.0
0
LINE
8
TOP_HID
6
HIDDEN
10
0.014700
20
0.015625
30
0.0
11
0.021733
21
0.015625
31
0.0
0
LINE
8
TOP_HID
6
HIDDEN
10
0.021733
20
0.015625
30
0.0
11
0.038529
21
0.015625
31
0.0
0
LINE
8
TOP_HID
6
HIDDEN
10
0.038529
20
0.015625
30
0.0
11
0.080510
21
0.015625
31
0.0
0
LINE
8
TOP_HID
6
HIDDEN
10
0.080510
20
0.015625
30
0.0
11
0.043421
21
0.015625
31
0.0
0
LINE
8
TOP_HID
6
HIDDEN
10
0.055834
20
0.734375
30
0.0
11
0.043421
21
0.734375
31
0.0
0
LINE
8
TOP_HID
6
HIDDEN
10
0.055834
20
0.734375
30
0.0
11
0.080510
21
0.734375
31
0.0
0
LINE
8
TOP_HID
6
HIDDEN
10
0.080510
20
0.734375
30
0.0
11
0.055834
21
0.734375
31
0.0
0
LINE
8
TOP_HID
6
HIDDEN
10
0.025496
20
0.734375
30
0.0
11
0.055834
21
0.734375
31
0.0
0
LINE
8
TOP_HID
6
HIDDEN
10
0.014938
20
0.734375
30
0.0
11
0.025496
21
0.734375
31
0.0
0
LINE
8
TOP_HID
6
HIDDEN
10
0.025496
20
0.734375
30
0.0
11
0.024934
21
0.734375
31
0.0
0
LINE
8
TOP_HID
6
HIDDEN
10
0.024934
20
0.734375
30
0.0
11
0.024373
21
0.734375
31
0.0
0
LINE
8
TOP_HID
6
HIDDEN
10
0.024373
20
0.734375
30
0.0
11
0.023812
21
0.734375
31
0.0
0
LINE
8
TOP_HID
6
HIDDEN
10
0.023812
20
0.734375
30
0.0
11
0.023250
21
0.734375
31
0.0
0
LINE
8
TOP_HID
6
HIDDEN
10
0.023250
20
0.734375
30
0.0
11
0.022689
21
0.734375
31
0.0
0
LINE
8
TOP_HID
6
HIDDEN
10
0.022689
20
0.734375
30
0.0
11
0.022127
21
0.734375
31
0.0
0
LINE
8
TOP_HID
6
HIDDEN
10
0.022127
20
0.734375
30
0.0
11
0.021566
21
0.734375
31
0.0
0
LINE
8
TOP_HID
6
HIDDEN
10
0.021566
20
0.734375
30
0.0
11
0.021005
21
0.734375
31
0.0
0
LINE
8
TOP_HID
6
HIDDEN
10
0.021005
20
0.734375
30
0.0
11
0.020443
21
0.734375
31
0.0
0
LINE
8
TOP_HID
6
HIDDEN
10
0.020443
20
0.734375
30
0.0
11
0.019882
21
0.734375
31
0.0
0
LINE
8
TOP_HID
6
HIDDEN
10
0.019882
20
0.734375
30
0.0
11
0.019321
21
0.734375
31
0.0
0
LINE
8
TOP_HID
6
HIDDEN
10
0.019321
20
0.734375
30
0.0
11
0.018759
21
0.734375
31
0.0
0
LINE
8
TOP_HID
6
HIDDEN
10
0.018759
20
0.734375
30
0.0
11
0.018198
21
0.734375
31
0.0
0
LINE
8
TOP_HID
6
HIDDEN
10
0.018198
20
0.734375
30
0.0
11
0.017636
21
0.734375
31
0.0
0
LINE
8
TOP_HID
6
HIDDEN
10
0.017636
20
0.734375
30
0.0
11
0.017075
21
0.734375
31
0.0
0
LINE
8
TOP_HID
6
HIDDEN
10
0.017075
20
0.734375
30
0.0
11
0.016514
21
0.734375
31
0.0
0
LINE
8
TOP_HID
6
HIDDEN
10
0.016514
20
0.734375
30
0.0
11
0.015952
21
0.734375
31
0.0
0
LINE
8
TOP_HID
6
HIDDEN
10
0.015952
20
0.734375
30
0.0
11
0.015391
21
0.734375
31
0.0
0
LINE
8
TOP_HID
6
HIDDEN
10
0.015391
20
0.734375
30
0.0
11
0.014830
21
0.734375
31
0.0
0
LINE
8
TOP_HID
6
HIDDEN
10
0.014830
20
0.734375
30
0.0
11
0.014268
21
0.734375
31
0.0
0
LINE
8
TOP_HID
6
HIDDEN
10
0.014268
20
0.734375
30
0.0
11
0.013707
21
0.734375
31
0.0
0
LINE
8
TOP_HID
6
HIDDEN
10
0.013707
20
0.734375
30
0.0
11
0.013146
21
0.734375
31
0.0
0
LINE
8
TOP_HID
6
HIDDEN
10
0.013146
20
0.734375
30
0.0
11
0.012584
21
0.734375
31
0.0
0
LINE
8
TOP_HID
6
HIDDEN
10
0.012584
20
0.734375
30
0.0
11
0.012023
21
0.734375
31
0.0
0
LINE
8
TOP_HID
6
HIDDEN
10
0.012023
20
0.734375
30
0.0
11
0.011461
21
0.734375
31
0.0
0
LINE
8
TOP_HID
6
HIDDEN
10
0.011461
20
0.734375
30
0.0
11
0.010900
21
0.734375
31
0.0
0
LINE
8
TOP_HID
6
HIDDEN
10
0.010900
20
0.734375
30
0.0
11
0.010339
21
0.734375
31
0.0
0
LINE
8
TOP_HID
6
HIDDEN
10
0.010339
20
0.734375
30
0.0
11
0.009777
21
0.734375
31
0.0
0
LINE
8
TOP_HID
6
HIDDEN
10
0.009777
20
0.734375
30
0.0
11
0.009216
21
0.734375
31
0.0
0
LINE
8
TOP_HID
6
HIDDEN
10
0.009216
20
0.734375
30
0.0
11
0.008655
21
0.734375
31
0.0
0
LINE
8
TOP_HID
6
HIDDEN
10
0.008655
20
0.734375
30
0.0
11
0.008093
21
0.734375
31
0.0
0
LINE
8
TOP_HID
6
HIDDEN
10
0.008093
20
0.734375
30
0.0
11
0.008655
21
0.734375
31
0.0
0
LINE
8
TOP_HID
6
HIDDEN
10
0.008655
20
0.734375
30
0.0
11
0.009216
21
0.734375
31
0.0
0
LINE
8
TOP_HID
6
HIDDEN
10
0.009216
20
0.734375
30
0.0
11
0.009777
21
0.734375
31
0.0
0
LINE
8
TOP_HID
6
HIDDEN
10
0.009777
20
0.734375
30
0.0
11
0.010339
21
0.734375
31
0.0
0
LINE
8
TOP_HID
6
HIDDEN
10
0.010339
20
0.734375
30
0.0
11
0.010900
21
0.734375
31
0.0
0
LINE
8
TOP_HID
6
HIDDEN
10
0.010900
20
0.734375
30
0.0
11
0.011461
21
0.734375
31
0.0
0
LINE
8
TOP_HID
6
HIDDEN
10
0.011461
20
0.734375
30
0.0
11
0.012023
21
0.734375
31
0.0
0
LINE
8
TOP_HID
6
HIDDEN
10
0.012023
20
0.734375
30
0.0
11
0.012584
21
0.734375
31
0.0
0
LINE
8
TOP_HID
6
HIDDEN
10
0.012584
20
0.734375
30
0.0
11
0.013146
21
0.734375
31
0.0
0
LINE
8
TOP_HID
6
HIDDEN
10
0.013146
20
0.734375
30
0.0
11
0.013707
21
0.734375
31
0.0
0
LINE
8
TOP_HID
6
HIDDEN
10
0.013707
20
0.734375
30
0.0
11
0.014268
21
0.734375
31
0.0
0
LINE
8
TOP_HID
6
HIDDEN
10
0.014268
20
0.734375
30
0.0
11
0.014830
21
0.734375
31
0.0
0
LINE
8
TOP_HID
6
HIDDEN
10
0.014830
20
0.734375
30
0.0
11
0.015391
21
0.734375
31
0.0
0
LINE
8
TOP_HID
6
HIDDEN
10
0.015391
20
0.734375
30
0.0
11
0.015952
21
0.734375
31
0.0
0
LINE
8
TOP_HID
6
HIDDEN
10
0.015952
20
0.734375
30
0.0
11
0.016514
21
0.734375
31
0.0
0
LINE
8
TOP_HID
6
HIDDEN
10
0.016514
20
0.734375
30
0.0
11
0.017075
21
0.734375
31
0.0
0
LINE
8
TOP_HID
6
HIDDEN
10
0.017075
20
0.734375
30
0.0
11
0.017636
21
0.734375
31
0.0
0
LINE
8
TOP_HID
6
HIDDEN
10
0.017636
20
0.734375
30
0.0
11
0.018198
21
0.734375
31
0.0
0
LINE
8
TOP_HID
6
HIDDEN
10
0.018198
20
0.734375
30
0.0
11
0.018759
21
0.734375
31
0.0
0
LINE
8
TOP_HID
6
HIDDEN
10
0.018759
20
0.734375
30
0.0
11
0.019321
21
0.734375
31
0.0
0
LINE
8
TOP_HID
6
HIDDEN
10
0.019321
20
0.734375
30
0.0
11
0.019882
21
0.734375
31
0.0
0
LINE
8
TOP_HID
6
HIDDEN
10
0.019882
20
0.734375
30
0.0
11
0.020443
21
0.734375
31
0.0
0
LINE
8
TOP_HID
6
HIDDEN
10
0.020443
20
0.734375
30
0.0
11
0.021005
21
0.734375
31
0.0
0
LINE
8
TOP_HID
6
HIDDEN
10
0.021005
20
0.734375
30
0.0
11
0.021566
21
0.734375
31
0.0
0
LINE
8
TOP_HID
6
HIDDEN
10
0.021566
20
0.734375
30
0.0
11
0.022127
21
0.734375
31
0.0
0
LINE
8
TOP_HID
6
HIDDEN
10
0.022127
20
0.734375
30
0.0
11
0.022689
21
0.734375
31
0.0
0
LINE
8
TOP_HID
6
HIDDEN
10
0.022689
20
0.734375
30
0.0
11
0.023250
21
0.734375
31
0.0
0
LINE
8
TOP_HID
6
HIDDEN
10
0.023250
20
0.734375
30
0.0
11
0.023812
21
0.734375
31
0.0
0
LINE
8
TOP_HID
6
HIDDEN
10
0.023812
20
0.734375
30
0.0
11
0.024373
21
0.734375
31
0.0
0
LINE
8
TOP_HID
6
HIDDEN
10
0.024373
20
0.734375
30
0.0
11
0.024934
21
0.734375
31
0.0
0
LINE
8
TOP_HID
6
HIDDEN
10
0.024934
20
0.734375
30
0.0
11
0.025496
21
0.734375
31
0.0
0
LINE
8
TOP_HID
6
HIDDEN
10
0.014700
20
0.000000
30
0.0
11
0.047327
21
0.000000
31
0.0
0
LINE
8
TOP_HID
6
HIDDEN
10
0.047327
20
0.000000
30
0.0
11
0.014700
21
0.000000
31
0.0
0
LINE
8
TOP_HID
6
HIDDEN
10
0.051234
20
0.000000
30
0.0
11
0.094655
21
0.000000
31
0.0
0
LINE
8
TOP_HID
6
HIDDEN
10
0.051234
20
0.015625
30
0.0
11
0.094655
21
0.015625
31
0.0
0
LINE
8
TOP_HID
6
HIDDEN
10
0.047327
20
0.015625
30
0.0
11
0.051234
21
0.015625
31
0.0
0
LINE
8
TOP_HID
6
HIDDEN
10
0.071157
20
0.015625
30
0.0
11
0.090132
21
0.015625
31
0.0
0
LINE
8
TOP_HID
6
HIDDEN
10
0.090132
20
0.015625
30
0.0
11
0.071157
21
0.015625
31
0.0
0
LINE
8
TOP_HID
6
HIDDEN
10
0.071157
20
0.000000
30
0.0
11
0.090132
21
0.000000
31
0.0
0
LINE
8
TOP_HID
6
HIDDEN
10
0.090132
20
0.000000
30
0.0
11
0.071157
21
0.000000
31
0.0
0
LINE
8
TOP_HID
6
HIDDEN
10
0.054974
20
0.000000
30
0.0
11
0.071157
21
0.000000
31
0.0
0
LINE
8
TOP_HID
6
HIDDEN
10
0.071157
20
0.000000
30
0.0
11
0.054974
21
0.000000
31
0.0
0
LINE
8
TOP_HID
6
HIDDEN
10
0.054974
20
0.000000
30
0.0
11
0.055984
21
0.000000
31
0.0
0
LINE
8
TOP_HID
6
HIDDEN
10
0.055984
20
0.000000
30
0.0
11
0.056993
21
0.000000
31
0.0
0
LINE
8
TOP_HID
6
HIDDEN
10
0.056993
20
0.000000
30
0.0
11
0.058002
21
0.000000
31
0.0
0
LINE
8
TOP_HID
6
HIDDEN
10
0.058002
20
0.000000
30
0.0
11
0.059011
21
0.000000
31
0.0
0
LINE
8
TOP_HID
6
HIDDEN
10
0.059011
20
0.000000
30
0.0
11
0.060020
21
0.000000
31
0.0
0
LINE
8
TOP_HID
6
HIDDEN
10
0.060020
20
0.000000
30
0.0
11
0.061029
21
0.000000
31
0.0
0
LINE
8
TOP_HID
6
HIDDEN
10
0.061029
20
0.000000
30
0.0
11
0.062038
21
0.000000
31
0.0
0
LINE
8
TOP_HID
6
HIDDEN
10
0.062038
20
0.000000
30
0.0
11
0.063047
21
0.000000
31
0.0
0
LINE
8
TOP_HID
6
HIDDEN
10
0.063047
20
0.000000
30
0.0
11
0.064056
21
0.000000
31
0.0
0
LINE
8
TOP_HID
6
HIDDEN
10
0.064056
20
0.000000
30
0.0
11
0.065065
21
0.000000
31
0.0
0
LINE
8
TOP_HID
6
HIDDEN
10
0.065065
20
0.000000
30
0.0
11
0.066074
21
0.000000
31
0.0
0
LINE
8
TOP_HID
6
HIDDEN
10
0.066074
20
0.000000
30
0.0
11
0.067083
21
0.000000
31
0.0
0
LINE
8
TOP_HID
6
HIDDEN
10
0.067083
20
0.000000
30
0.0
11
0.068092
21
0.000000
31
0.0
0
LINE
8
TOP_HID
6
HIDDEN
10
0.068092
20
0.000000
30
0.0
11
0.069101
21
0.000000
31
0.0
0
LINE
8
TOP_HID
6
HIDDEN
10
0.069101
20
0.000000
30
0.0
11
0.070110
21
0.000000
31
0.0
0
LINE
8
TOP_HID
6
HIDDEN
10
0.070110
20
0.000000
30
0.0
11
0.071119
21
0.000000
31
0.0
0
LINE
8
TOP_HID
6
HIDDEN
10
0.071119
20
0.000000
30
0.0
11
0.072128
21
0.000000
31
0.0
0
LINE
8
TOP_HID
6
HIDDEN
10
0.072128
20
0.000000
30
0.0
11
0.073138
21
0.000000
31
0.0
0
LINE
8
TOP_HID
6
HIDDEN
10
0.073138
20
0.000000
30
0.0
11
0.074147
21
0.000000
31
0.0
0
LINE
8
TOP_HID
6
HIDDEN
10
0.074147
20
0.000000
30
0.0
11
0.075156
21
0.000000
31
0.0
0
LINE
8
TOP_HID
6
HIDDEN
10
0.075156
20
0.000000
30
0.0
11
0.076165
21
0.000000
31
0.0
0
LINE
8
TOP_HID
6
HIDDEN
10
0.076165
20
0.000000
30
0.0
11
0.077174
21
0.000000
31
0.0
0
LINE
8
TOP_HID
6
HIDDEN
10
0.077174
20
0.000000
30
0.0
11
0.078183
21
0.000000
31
0.0
0
LINE
8
TOP_HID
6
HIDDEN
10
0.078183
20
0.000000
30
0.0
11
0.079192
21
0.000000
31
0.0
0
LINE
8
TOP_HID
6
HIDDEN
10
0.079192
20
0.000000
30
0.0
11
0.080201
21
0.000000
31
0.0
0
LINE
8
TOP_HID
6
HIDDEN
10
0.080201
20
0.000000
30
0.0
11
0.081210
21
0.000000
31
0.0
0
LINE
8
TOP_HID
6
HIDDEN
10
0.081210
20
0.000000
30
0.0
11
0.082219
21
0.000000
31
0.0
0
LINE
8
TOP_HID
6
HIDDEN
10
0.082219
20
0.000000
30
0.0
11
0.083228
21
0.000000
31
0.0
0
LINE
8
TOP_HID
6
HIDDEN
10
0.083228
20
0.000000
30
0.0
11
0.084237
21
0.000000
31
0.0
0
LINE
8
TOP_HID
6
HIDDEN
10
0.084237
20
0.000000
30
0.0
11
0.085246
21
0.000000
31
0.0
0
LINE
8
TOP_HID
6
HIDDEN
10
0.085246
20
0.000000
30
0.0
11
0.086255
21
0.000000
31
0.0
0
LINE
8
TOP_HID
6
HIDDEN
10
0.086255
20
0.000000
30
0.0
11
0.085246
21
0.000000
31
0.0
0
LINE
8
TOP_HID
6
HIDDEN
10
0.085246
20
0.000000
30
0.0
11
0.084237
21
0.000000
31
0.0
0
LINE
8
TOP_HID
6
HIDDEN
10
0.084237
20
0.000000
30
0.0
11
0.083228
21
0.000000
31
0.0
0
LINE
8
TOP_HID
6
HIDDEN
10
0.083228
20
0.000000
30
0.0
11
0.082219
21
0.000000
31
0.0
0
LINE
8
TOP_HID
6
HIDDEN
10
0.082219
20
0.000000
30
0.0
11
0.081210
21
0.000000
31
0.0
0
LINE
8
TOP_HID
6
HIDDEN
10
0.081210
20
0.000000
30
0.0
11
0.080201
21
0.000000
31
0.0
0
LINE
8
TOP_HID
6
HIDDEN
10
0.080201
20
0.000000
30
0.0
11
0.079192
21
0.000000
31
0.0
0
LINE
8
TOP_HID
6
HIDDEN
10
0.079192
20
0.000000
30
0.0
11
0.078183
21
0.000000
31
0.0
0
LINE
8
TOP_HID
6
HIDDEN
10
0.078183
20
0.000000
30
0.0
11
0.077174
21
0.000000
31
0.0
0
LINE
8
TOP_HID
6
HIDDEN
10
0.077174
20
0.000000
30
0.0
11
0.076165
21
0.000000
31
0.0
0
LINE
8
TOP_HID
6
HIDDEN
10
0.076165
20
0.000000
30
0.0
11
0.075156
21
0.000000
31
0.0
0
LINE
8
TOP_HID
6
HIDDEN
10
0.075156
20
0.000000
30
0.0
11
0.074147
21
0.000000
31
0.0
0
LINE
8
TOP_HID
6
HIDDEN
10
0.074147
20
0.000000
30
0.0
11
0.073138
21
0.000000
31
0.0
0
LINE
8
TOP_HID
6
HIDDEN
10
0.073138
20
0.000000
30
0.0
11
0.072128
21
0.000000
31
0.0
0
LINE
8
TOP_HID
6
HIDDEN
10
0.072128
20
0.000000
30
0.0
11
0.071119
21
0.000000
31
0.0
0
LINE
8
TOP_HID
6
HIDDEN
10
0.071119
20
0.000000
30
0.0
11
0.070110
21
0.000000
31
0.0
0
LINE
8
TOP_HID
6
HIDDEN
10
0.070110
20
0.000000
30
0.0
11
0.069101
21
0.000000
31
0.0
0
LINE
8
TOP_HID
6
HIDDEN
10
0.069101
20
0.000000
30
0.0
11
0.068092
21
0.000000
31
0.0
0
LINE
8
TOP_HID
6
HIDDEN
10
0.068092
20
0.000000
30
0.0
11
0.067083
21
0.000000
31
0.0
0
LINE
8
TOP_HID
6
HIDDEN
10
0.067083
20
0.000000
30
0.0
11
0.066074
21
0.000000
31
0.0
0
LINE
8
TOP_HID
6
HIDDEN
10
0.066074
20
0.000000
30
0.0
11
0.065065
21
0.000000
31
0.0
0
LINE
8
TOP_HID
6
HIDDEN
10
0.065065
20
0.000000
30
0.0
11
0.064056
21
0.000000
31
0.0
0
LINE
8
TOP_HID
6
HIDDEN
10
0.064056
20
0.000000
30
0.0
11
0.063047
21
0.000000
31
0.0
0
LINE
8
TOP_HID
6
HIDDEN
10
0.063047
20
0.000000
30
0.0
11
0.062038
21
0.000000
31
0.0
0
LINE
8
TOP_HID
6
HIDDEN
10
0.062038
20
0.000000
30
0.0
11
0.061029
21
0.000000
31
0.0
0
LINE
8
TOP_HID
6
HIDDEN
10
0.061029
20
0.000000
30
0.0
11
0.060020
21
0.000000
31
0.0
0
LINE
8
TOP_HID
6
HIDDEN
10
0.060020
20
0.000000
30
0.0
11
0.059011
21
0.000000
31
0.0
0
LINE
8
TOP_HID
6
HIDDEN
10
0.059011
20
0.000000
30
0.0
11
0.058002
21
0.000000
31
0.0
0
LINE
8
TOP_HID
6
HIDDEN
10
0.058002
20
0.000000
30
0.0
11
0.056993
21
0.000000
31
0.0
0
LINE
8
TOP_HID
6
HIDDEN
10
0.056993
20
0.000000
30
0.0
11
0.055984
21
0.000000
31
0.0
0
LINE
8
TOP_HID
6
HIDDEN
10
0.055984
20
0.000000
30
0.0
11
0.054974
21
0.000000
31
0.0
0
LINE
8
TOP_HID
6
HIDDEN
10
0.047327
20
0.000000
30
0.0
11
0.051234
21
0.000000
31
0.0
0
LINE
8
TOP_HID
6
HIDDEN
10
0.046464
20
0.734375
30
0.0
11
0.055834
21
0.734375
31
0.0
0
LINE
8
TOP_HID
6
HIDDEN
10
0.055834
20
0.734375
30
0.0
11
0.046464
21
0.734375
31
0.0
0
LINE
8
TOP_HID
6
HIDDEN
10
0.038529
20
0.015625
30
0.0
11
0.037697
21
0.015625
31
0.0
0
LINE
8
TOP_HID
6
HIDDEN
10
0.037697
20
0.015625
30
0.0
11
0.036866
21
0.015625
31
0.0
0
LINE
8
TOP_HID
6
HIDDEN
10
0.036866
20
0.015625
30
0.0
11
0.036034
21
0.015625
31
0.0
0
LINE
8
TOP_HID
6
HIDDEN
10
0.036034
20
0.015625
30
0.0
11
0.035203
21
0.015625
31
0.0
0
LINE
8
TOP_HID
6
HIDDEN
10
0.035203
20
0.015625
30
0.0
11
0.034371
21
0.015625
31
0.0
0
LINE
8
TOP_HID
6
HIDDEN
10
0.034371
20
0.015625
30
0.0
11
0.033540
21
0.015625
31
0.0
0
LINE
8
TOP_HID
6
HIDDEN
10
0.033540
20
0.015625
30
0.0
11
0.032708
21
0.015625
31
0.0
0
LINE
8
TOP_HID
6
HIDDEN
10
0.032708
20
0.015625
30
0.0
11
0.031877
21
0.015625
31
0.0
0
LINE
8
TOP_HID
6
HIDDEN
10
0.031877
20
0.015625
30
0.0
11
0.031045
21
0.015625
31
0.0
0
LINE
8
TOP_HID
6
HIDDEN
10
0.031045
20
0.015625
30
0.0
11
0.030213
21
0.015625
31
0.0
0
LINE
8
TOP_HID
6
HIDDEN
10
0.030213
20
0.015625
30
0.0
11
0.029382
21
0.015625
31
0.0
0
LINE
8
TOP_HID
6
HIDDEN
10
0.029382
20
0.015625
30
0.0
11
0.028550
21
0.015625
31
0.0
0
LINE
8
TOP_HID
6
HIDDEN
10
0.028550
20
0.015625
30
0.0
11
0.027719
21
0.015625
31
0.0
0
LINE
8
TOP_HID
6
HIDDEN
10
0.027719
20
0.015625
30
0.0
11
0.026887
21
0.015625
31
0.0
0
LINE
8
TOP_HID
6
HIDDEN
10
0.026887
20
0.015625
30
0.0
11
0.026056
21
0.015625
31
0.0
0
LINE
8
TOP_HID
6
HIDDEN
10
0.026056
20
0.015625
30
0.0
11
0.025224
21
0.015625
31
0.0
0
LINE
8
TOP_HID
6
HIDDEN
10
0.025224
20
0.015625
30
0.0
11
0.024393
21
0.015625
31
0.0
0
LINE
8
TOP_HID
6
HIDDEN
10
0.024393
20
0.015625
30
0.0
11
0.023561
21
0.015625
31
0.0
0
LINE
8
TOP_HID
6
HIDDEN
10
0.023561
20
0.015625
30
0.0
11
0.022730
21
0.015625
31
0.0
0
LINE
8
TOP_HID
6
HIDDEN
10
0.022730
20
0.015625
30
0.0
11
0.021898
21
0.015625
31
0.0
0
LINE
8
TOP_HID
6
HIDDEN
10
0.021898
20
0.015625
30
0.0
11
0.021067
21
0.015625
31
0.0
0
LINE
8
TOP_HID
6
HIDDEN
10
0.021067
20
0.015625
30
0.0
11
0.020235
21
0.015625
31
0.0
0
LINE
8
TOP_HID
6
HIDDEN
10
0.020235
20
0.015625
30
0.0
11
0.019404
21
0.015625
31
0.0
0
LINE
8
TOP_HID
6
HIDDEN
10
0.019404
20
0.015625
30
0.0
11
0.018572
21
0.015625
31
0.0
0
LINE
8
TOP_HID
6
HIDDEN
10
0.018572
20
0.015625
30
0.0
11
0.017740
21
0.015625
31
0.0
0
LINE
8
TOP_HID
6
HIDDEN
10
0.017740
20
0.015625
30
0.0
11
0.016909
21
0.015625
31
0.0
0
LINE
8
TOP_HID
6
HIDDEN
10
0.016909
20
0.015625
30
0.0
11
0.016077
21
0.015625
31
0.0
0
LINE
8
TOP_HID
6
HIDDEN
10
0.016077
20
0.015625
30
0.0
11
0.015246
21
0.015625
31
0.0
0
LINE
8
TOP_HID
6
HIDDEN
10
0.015246
20
0.015625
30
0.0
11
0.014414
21
0.015625
31
0.0
0
LINE
8
TOP_HID
6
HIDDEN
10
0.014414
20
0.015625
30
0.0
11
0.013583
21
0.015625
31
0.0
0
LINE
8
TOP_HID
6
HIDDEN
10
0.013583
20
0.015625
30
0.0
11
0.012751
21
0.015625
31
0.0
0
LINE
8
TOP_HID
6
HIDDEN
10
0.012751
20
0.015625
30
0.0
11
0.013583
21
0.015625
31
0.0
0
LINE
8
TOP_HID
6
HIDDEN
10
0.013583
20
0.015625
30
0.0
11
0.014414
21
0.015625
31
0.0
0
LINE
8
TOP_HID
6
HIDDEN
10
0.014414
20
0.015625
30
0.0
11
0.015246
21
0.015625
31
0.0
0
LINE
8
TOP_HID
6
HIDDEN
10
0.015246
20
0.015625
30
0.0
11
0.016077
21
0.015625
31
0.0
0
LINE
8
TOP_HID
6
HIDDEN
10
0.016077
20
0.015625
30
0.0
11
0.016909
21
0.015625
31
0.0
0
LINE
8
TOP_HID
6
HIDDEN
10
0.016909
20
0.015625
30
0.0
11
0.017740
21
0.015625
31
0.0
0
LINE
8
TOP_HID
6
HIDDEN
10
0.017740
20
0.015625
30
0.0
11
0.018572
21
0.015625
31
0.0
0
LINE
8
TOP_HID
6
HIDDEN
10
0.018572
20
0.015625
30
0.0
11
0.019404
21
0.015625
31
0.0
0
LINE
8
TOP_HID
6
HIDDEN
10
0.019404
20
0.015625
30
0.0
11
0.020235
21
0.015625
31
0.0
0
LINE
8
TOP_HID
6
HIDDEN
10
0.020235
20
0.015625
30
0.0
11
0.021067
21
0.015625
31
0.0
0
LINE
8
TOP_HID
6
HIDDEN
10
0.021067
20
0.015625
30
0.0
11
0.021898
21
0.015625
31
0.0
0
LINE
8
TOP_HID
6
HIDDEN
10
0.021898
20
0.015625
30
0.0
11
0.022730
21
0.015625
31
0.0
0
LINE
8
TOP_HID
6
HIDDEN
10
0.022730
20
0.015625
30
0.0
11
0.023561
21
0.015625
31
0.0
0
LINE
8
TOP_HID
6
HIDDEN
10
0.023561
20
0.015625
30
0.0
11
0.024393
21
0.015625
31
0.0
0
LINE
8
TOP_HID
6
HIDDEN
10
0.024393
20
0.015625
30
0.0
11
0.025224
21
0.015625
31
0.0
0
LINE
8
TOP_HID
6
HIDDEN
10
0.025224
20
0.015625
30
0.0
11
0.026056
21
0.015625
31
0.0
0
LINE
8
TOP_HID
6
HIDDEN
10
0.026056
20
0.015625
30
0.0
11
0.026887
21
0.015625
31
0.0
0
LINE
8
TOP_HID
6
HIDDEN
10
0.026887
20
0.015625
30
0.0
11
0.027719
21
0.015625
31
0.0
0
LINE
8
TOP_HID
6
HIDDEN
10
0.027719
20
0.015625
30
0.0
11
0.028550
21
0.015625
31
0.0
0
LINE
8
TOP_HID
6
HIDDEN
10
0.028550
20
0.015625
30
0.0
11
0.029382
21
0.015625
31
0.0
0
LINE
8
TOP_HID
6
HIDDEN
10
0.029382
20
0.015625
30
0.0
11
0.030213
21
0.015625
31
0.0
0
LINE
8
TOP_HID
6
HIDDEN
10
0.030213
20
0.015625
30
0.0
11
0.031045
21
0.015625
31
0.0
0
LINE
8
TOP_HID
6
HIDDEN
10
0.031045
20
0.015625
30
0.0
11
0.031877
21
0.015625
31
0.0
0
LINE
8
TOP_HID
6
HIDDEN
10
0.031877
20
0.015625
30
0.0
11
0.032708
21
0.015625
31
0.0
0
LINE
8
TOP_HID
6
HIDDEN
10
0.032708
20
0.015625
30
0.0
11
0.033540
21
0.015625
31
0.0
0
LINE
8
TOP_HID
6
HIDDEN
10
0.033540
20
0.015625
30
0.0
11
0.034371
21
0.015625
31
0.0
0
LINE
8
TOP_HID
6
HIDDEN
10
0.034371
20
0.015625
30
0.0
11
0.035203
21
0.015625
31
0.0
0
LINE
8
TOP_HID
6
HIDDEN
10
0.035203
20
0.015625
30
0.0
11
0.036034
21
0.015625
31
0.0
0
LINE
8
TOP_HID
6
HIDDEN
10
0.036034
20
0.015625
30
0.0
11
0.036866
21
0.015625
31
0.0
0
LINE
8
TOP_HID
6
HIDDEN
10
0.036866
20
0.015625
30
0.0
11
0.037697
21
0.015625
31
0.0
0
LINE
8
TOP_HID
6
HIDDEN
10
0.037697
20
0.015625
30
0.0
11
0.038529
21
0.015625
31
0.0
0
LINE
8
TOP_HID
6
HIDDEN
10
0.021733
20
0.015625
30
0.0
11
0.007812
21
0.015625
31
0.0
0
LINE
8
TOP_HID
6
HIDDEN
10
0.007812
20
0.015625
30
0.0
11
0.021733
21
0.015625
31
0.0
0
LINE
8
TOP_HID
6
HIDDEN
10
0.007812
20
0.015625
30
0.0
11
0.014700
21
0.015625
31
0.0
0
LINE
8
TOP_HID
6
HIDDEN
10
0.007812
20
0.000000
30
0.0
11
0.014700
21
0.000000
31
0.0
0
LINE
8
TOP_HID
6
HIDDEN
10
0.007813
20
0.015625
30
0.0
11
0.007813
21
0.000000
31
0.0
0
LINE
8
TOP_HID
6
HIDDEN
10
0.014700
20
0.000000
30
0.0
11
0.007812
21
0.000000
31
0.0
0
LINE
8
TOP_HID
6
HIDDEN
10
0.014700
20
0.015625
30
0.0
11
0.007812
21
0.015625
31
0.0
0
LINE
8
TOP_HID
6
HIDDEN
10
0.071157
20
0.000000
30
0.0
11
0.047327
21
0.000000
31
0.0
0
LINE
8
TOP_HID
6
HIDDEN
10
0.021733
20
0.000000
30
0.0
11
0.014700
21
0.000000
31
0.0
0
LINE
8
TOP_HID
6
HIDDEN
10
0.054974
20
0.000000
30
0.0
11
0.021733
21
0.000000
31
0.0
0
LINE
8
TOP_HID
6
HIDDEN
10
0.047327
20
0.000000
30
0.0
11
0.071157
21
0.000000
31
0.0
0
LINE
8
TOP_HID
6
HIDDEN
10
0.047286
20
0.000000
30
0.0
11
0.054974
21
0.000000
31
0.0
0
LINE
8
TOP_HID
6
HIDDEN
10
0.021733
20
0.000000
30
0.0
11
0.047286
21
0.000000
31
0.0
0
LINE
8
TOP_HID
6
HIDDEN
10
0.014700
20
0.000000
30
0.0
11
0.021733
21
0.000000
31
0.0
0
LINE
8
TOP_HID
6
HIDDEN
10
0.043421
20
0.000000
30
0.0
11
0.038529
21
0.000000
31
0.0
0
LINE
8
TOP_HID
6
HIDDEN
10
0.038529
20
0.000000
30
0.0
11
0.043421
21
0.000000
31
0.0
0
LINE
8
TOP_HID
6
HIDDEN
10
0.038529
20
0.000000
30
0.0
11
0.051234
21
0.000000
31
0.0
0
LINE
8
TOP_HID
6
HIDDEN
10
0.051234
20
0.000000
30
0.0
11
0.054974
21
0.000000
31
0.0
0
LINE
8
TOP_HID
6
HIDDEN
10
0.054974
20
0.000000
30
0.0
11
0.038529
21
0.000000
31
0.0
0
LINE
8
TOP_HID
6
HIDDEN
10
0.007812
20
0.000000
30
0.0
11
0.021733
21
0.000000
31
0.0
0
LINE
8
TOP_HID
6
HIDDEN
10
0.021733
20
0.000000
30
0.0
11
0.007812
21
0.000000
31
0.0
0
LINE
8
TOP_HID
6
HIDDEN
10
0.038529
20
0.000000
30
0.0
11
0.021733
21
0.000000
31
0.0
0
LINE
8
TOP_HID
6
HIDDEN
10
0.021733
20
0.000000
30
0.0
11
0.038529
21
0.000000
31
0.0
0
LINE
8
TOP_HID
6
HIDDEN
10
0.038529
20
0.000000
30
0.0
11
0.037697
21
0.000000
31
0.0
0
LINE
8
TOP_HID
6
HIDDEN
10
0.037697
20
0.000000
30
0.0
11
0.036866
21
0.000000
31
0.0
0
LINE
8
TOP_HID
6
HIDDEN
10
0.036866
20
0.000000
30
0.0
11
0.036034
21
0.000000
31
0.0
0
LINE
8
TOP_HID
6
HIDDEN
10
0.036034
20
0.000000
30
0.0
11
0.035203
21
0.000000
31
0.0
0
LINE
8
TOP_HID
6
HIDDEN
10
0.035203
20
0.000000
30
0.0
11
0.034371
21
0.000000
31
0.0
0
LINE
8
TOP_HID
6
HIDDEN
10
0.034371
20
0.000000
30
0.0
11
0.033540
21
0.000000
31
0.0
0
LINE
8
TOP_HID
6
HIDDEN
10
0.033540
20
0.000000
30
0.0
11
0.032708
21
0.000000
31
0.0
0
LINE
8
TOP_HID
6
HIDDEN
10
0.032708
20
0.000000
30
0.0
11
0.031877
21
0.000000
31
0.0
0
LINE
8
TOP_HID
6
HIDDEN
10
0.031877
20
0.000000
30
0.0
11
0.031045
21
0.000000
31
0.0
0
LINE
8
TOP_HID
6
HIDDEN
10
0.031045
20
0.000000
30
0.0
11
0.030213
21
0.000000
31
0.0
0
LINE
8
TOP_HID
6
HIDDEN
10
0.030213
20
0.000000
30
0.0
11
0.029382
21
0.000000
31
0.0
0
LINE
8
TOP_HID
6
HIDDEN
10
0.029382
20
0.000000
30
0.0
11
0.028550
21
0.000000
31
0.0
0
LINE
8
TOP_HID
6
HIDDEN
10
0.028550
20
0.000000
30
0.0
11
0.027719
21
0.000000
31
0.0
0
LINE
8
TOP_HID
6
HIDDEN
10
0.027719
20
0.000000
30
0.0
11
0.026887
21
0.000000
31
0.0
0
LINE
8
TOP_HID
6
HIDDEN
10
0.026887
20
0.000000
30
0.0
11
0.026056
21
0.000000
31
0.0
0
LINE
8
TOP_HID
6
HIDDEN
10
0.026056
20
0.000000
30
0.0
11
0.025224
21
0.000000
31
0.0
0
LINE
8
TOP_HID
6
HIDDEN
10
0.025224
20
0.000000
30
0.0
11
0.024393
21
0.000000
31
0.0
0
LINE
8
TOP_HID
6
HIDDEN
10
0.024393
20
0.000000
30
0.0
11
0.023561
21
0.000000
31
0.0
0
LINE
8
TOP_HID
6
HIDDEN
10
0.023561
20
0.000000
30
0.0
11
0.022730
21
0.000000
31
0.0
0
LINE
8
TOP_HID
6
HIDDEN
10
0.022730
20
0.000000
30
0.0
11
0.021898
21
0.000000
31
0.0
0
LINE
8
TOP_HID
6
HIDDEN
10
0.021898
20
0.000000
30
0.0
11
0.021067
21
0.000000
31
0.0
0
LINE
8
TOP_HID
6
HIDDEN
10
0.021067
20
0.000000
30
0.0
11
0.020235
21
0.000000
31
0.0
0
LINE
8
TOP_HID
6
HIDDEN
10
0.020235
20
0.000000
30
0.0
11
0.019404
21
0.000000
31
0.0
0
LINE
8
TOP_HID
6
HIDDEN
10
0.019404
20
0.000000
30
0.0
11
0.018572
21
0.000000
31
0.0
0
LINE
8
TOP_HID
6
HIDDEN
10
0.018572
20
0.000000
30
0.0
11
0.017740
21
0.000000
31
0.0
0
LINE
8
TOP_HID
6
HIDDEN
10
0.017740
20
0.000000
30
0.0
11
0.016909
21
0.000000
31
0.0
0
LINE
8
TOP_HID
6
HIDDEN
10
0.016909
20
0.000000
30
0.0
11
0.016077
21
0.000000
31
0.0
0
LINE
8
TOP_HID
6
HIDDEN
10
0.016077
20
0.000000
30
0.0
11
0.015246
21
0.000000
31
0.0
0
LINE
8
TOP_HID
6
HIDDEN
10
0.015246
20
0.000000
30
0.0
11
0.014414
21
0.000000
31
0.0
0
LINE
8
TOP_HID
6
HIDDEN
10
0.014414
20
0.000000
30
0.0
11
0.013583
21
0.000000
31
0.0
0
LINE
8
TOP_HID
6
HIDDEN
10
0.013583
20
0.000000
30
0.0
11
0.012751
21
0.000000
31
0.0
0
LINE
8
TOP_HID
6
HIDDEN
10
0.012751
20
0.000000
30
0.0
11
0.013583
21
0.000000
31
0.0
0
LINE
8
TOP_HID
6
HIDDEN
10
0.013583
20
0.000000
30
0.0
11
0.014414
21
0.000000
31
0.0
0
LINE
8
TOP_HID
6
HIDDEN
10
0.014414
20
0.000000
30
0.0
11
0.015246
21
0.000000
31
0.0
0
LINE
8
TOP_HID
6
HIDDEN
10
0.015246
20
0.000000
30
0.0
11
0.016077
21
0.000000
31
0.0
0
LINE
8
TOP_HID
6
HIDDEN
10
0.016077
20
0.000000
30
0.0
11
0.016909
21
0.000000
31
0.0
0
LINE
8
TOP_HID
6
HIDDEN
10
0.016909
20
0.000000
30
0.0
11
0.017740
21
0.000000
31
0.0
0
LINE
8
TOP_HID
6
HIDDEN
10
0.017740
20
0.000000
30
0.0
11
0.018572
21
0.000000
31
0.0
0
LINE
8
TOP_HID
6
HIDDEN
10
0.018572
20
0.000000
30
0.0
11
0.019404
21
0.000000
31
0.0
0
LINE
8
TOP_HID
6
HIDDEN
10
0.019404
20
0.000000
30
0.0
11
0.020235
21
0.000000
31
0.0
0
LINE
8
TOP_HID
6
HIDDEN
10
0.020235
20
0.000000
30
0.0
11
0.021067
21
0.000000
31
0.0
0
LINE
8
TOP_HID
6
HIDDEN
10
0.021067
20
0.000000
30
0.0
11
0.021898
21
0.000000
31
0.0
0
LINE
8
TOP_HID
6
HIDDEN
10
0.021898
20
0.000000
30
0.0
11
0.022730
21
0.000000
31
0.0
0
LINE
8
TOP_HID
6
HIDDEN
10
0.022730
20
0.000000
30
0.0
11
0.023561
21
0.000000
31
0.0
0
LINE
8
TOP_HID
6
HIDDEN
10
0.023561
20
0.000000
30
0.0
11
0.024393
21
0.000000
31
0.0
0
LINE
8
TOP_HID
6
HIDDEN
10
0.024393
20
0.000000
30
0.0
11
0.025224
21
0.000000
31
0.0
0
LINE
8
TOP_HID
6
HIDDEN
10
0.025224
20
0.000000
30
0.0
11
0.026056
21
0.000000
31
0.0
0
LINE
8
TOP_HID
6
HIDDEN
10
0.026056
20
0.000000
30
0.0
11
0.026887
21
0.000000
31
0.0
0
LINE
8
TOP_HID
6
HIDDEN
10
0.026887
20
0.000000
30
0.0
11
0.027719
21
0.000000
31
0.0
0
LINE
8
TOP_HID
6
HIDDEN
10
0.027719
20
0.000000
30
0.0
11
0.028550
21
0.000000
31
0.0
0
LINE
8
TOP_HID
6
HIDDEN
10
0.028550
20
0.000000
30
0.0
11
0.029382
21
0.000000
31
0.0
0
LINE
8
TOP_HID
6
HIDDEN
10
0.029382
20
0.000000
30
0.0
11
0.030213
21
0.000000
31
0.0
0
LINE
8
TOP_HID
6
HIDDEN
10
0.030213
20
0.000000
30
0.0
11
0.031045
21
0.000000
31
0.0
0
LINE
8
TOP_HID
6
HIDDEN
10
0.031045
20
0.000000
30
0.0
11
0.031877
21
0.000000
31
0.0
0
LINE
8
TOP_HID
6
HIDDEN
10
0.031877
20
0.000000
30
0.0
11
0.032708
21
0.000000
31
0.0
0
LINE
8
TOP_HID
6
HIDDEN
10
0.032708
20
0.000000
30
0.0
11
0.033540
21
0.000000
31
0.0
0
LINE
8
TOP_HID
6
HIDDEN
10
0.033540
20
0.000000
30
0.0
11
0.034371
21
0.000000
31
0.0
0
LINE
8
TOP_HID
6
HIDDEN
10
0.034371
20
0.000000
30
0.0
11
0.035203
21
0.000000
31
0.0
0
LINE
8
TOP_HID
6
HIDDEN
10
0.035203
20
0.000000
30
0.0
11
0.036034
21
0.000000
31
0.0
0
LINE
8
TOP_HID
6
HIDDEN
10
0.036034
20
0.000000
30
0.0
11
0.036866
21
0.000000
31
0.0
0
LINE
8
TOP_HID
6
HIDDEN
10
0.036866
20
0.000000
30
0.0
11
0.037697
21
0.000000
31
0.0
0
LINE
8
TOP_HID
6
HIDDEN
10
0.037697
20
0.000000
30
0.0
11
0.038529
21
0.000000
31
0.0
0
LINE
8
TOP_HID
6
HIDDEN
10
0.006990
20
0.734375
30
0.0
11
0.006990
21
0.750000
31
0.0
0
LINE
8
TOP_HID
6
HIDDEN
10
0.086842
20
0.000000
30
0.0
11
0.086842
21
0.015625
31
0.0
0
LINE
8
TOP_HID
6
HIDDEN
10
0.080510
20
0.015625
30
0.0
11
0.080510
21
0.734375
31
0.0
0
LINE
8
TOP_HID
6
HIDDEN
10
0.006332
20
0.000000
30
0.0
11
0.006332
21
0.750000
31
0.0
0
LINE
8
TOP_HID
6
HIDDEN
10
0.090132
20
0.015625
30
0.0
11
0.090132
21
0.000000
31
0.0
0
ENDSEC
0
EOF
