0
SECTION
2
HEADER
9
$ACADVER
1
AC1009
0
ENDSEC
0
SECTION
2
TABLES
0
TABLE
2
LTYPE
70
3
0
LTYPE
2
CONTINUOUS
70
0
3
Solid line
72
65
73
0
40
0.0
0
LTYPE
2
HIDDEN
70
0
3
__ __ __ __ __
72
65
73
2
40
0.037500
49
0.025013
49
-0.012488
0
LTYPE
2
CENTER
70
0
3
___ _ ___ _ ___
72
65
73
4
40
0.087488
49
0.049988
49
-0.012488
49
0.012488
49
-0.012488
0
ENDTAB
0
TABLE
2
LAYER
70
7
0
LAYER
2
0
70
0
62
7
6
CONTINUOUS
0
LAYER
2
FRONT
70
0
62
7
6
CONTINUOUS
0
LAYER
2
FRONT_HID
70
0
62
7
6
HIDDEN
0
LAYER
2
LEFT
70
0
62
7
6
CONTINUOUS
0
LAYER
2
LEFT_HID
70
0
62
7
6
HIDDEN
0
LAYER
2
TOP
70
0
62
7
6
CONTINUOUS
0
LAYER
2
TOP_HID
70
0
62
7
6
HIDDEN
0
ENDTAB
0
ENDSEC
0
SECTION
2
ENTITIES
0
LINE
8
FRONT
10
0.000000
20
0.423438
30
0.0
11
0.750000
21
0.423438
31
0.0
0
LINE
8
FRONT
10
0.000000
20
1.102385
30
0.0
11
0.000000
21
0.423438
31
0.0
0
LINE
8
FRONT
10
0.750000
20
0.423438
30
0.0
11
0.655263
21
1.102385
31
0.0
0
LINE
8
FRONT
10
0.655263
20
1.102385
30
0.0
11
0.000000
21
1.102385
31
0.0
0
LINE
8
FRONT
10
0.312481
20
0.423438
30
0.0
11
0.312500
21
0.423438
31
0.0
0
LINE
8
FRONT
10
0.312481
20
0.423438
30
0.0
11
0.312481
21
0.423438
31
0.0
0
LINE
8
FRONT_HID
6
HIDDEN
10
0.312481
20
0.423438
30
0.0
11
0.297143
21
1.048249
31
0.0
0
LINE
8
FRONT_HID
6
HIDDEN
10
0.297143
20
1.048249
30
0.0
11
0.423420
21
1.051349
31
0.0
0
LINE
8
FRONT_HID
6
HIDDEN
10
0.423420
20
1.051349
30
0.0
11
0.297143
21
1.048249
31
0.0
0
LINE
8
FRONT_HID
6
HIDDEN
10
0.312500
20
0.423438
30
0.0
11
0.438759
21
0.426537
31
0.0
0
LINE
8
FRONT_HID
6
HIDDEN
10
0.438759
20
0.426537
30
0.0
11
0.312500
21
0.423438
31
0.0
0
LINE
8
FRONT_HID
6
HIDDEN
10
0.423420
20
1.051349
30
0.0
11
0.438759
21
0.426537
31
0.0
0
LINE
8
LEFT
10
1.173438
20
0.423438
30
0.0
11
0.900000
21
0.423438
31
0.0
0
LINE
8
LEFT
10
1.173437
20
1.102385
30
0.0
11
0.900000
21
1.102385
31
0.0
0
LINE
8
LEFT
10
0.900000
20
1.102385
30
0.0
11
0.900000
21
0.423438
31
0.0
0
LINE
8
LEFT
10
1.173437
20
1.102385
30
0.0
11
1.173438
21
0.423438
31
0.0
0
LINE
8
LEFT
10
1.039075
20
0.423438
30
0.0
11
1.037525
21
0.423438
31
0.0
0
LINE
8
LEFT
10
1.040625
20
0.423438
30
0.0
11
1.039075
21
0.423438
31
0.0
0
LINE
8
LEFT_HID
6
HIDDEN
10
0.900000
20
0.423438
30
0.0
11
0.900000
21
1.102385
31
0.0
0
LINE
8
LEFT_HID
6
HIDDEN
10
1.039075
20
1.048249
30
0.0
11
1.038071
21
1.048249
31
0.0
0
LINE
8
LEFT_HID
6
HIDDEN
10
1.038071
20
1.048249
30
0.0
11
1.037067
21
1.048250
31
0.0
0
LINE
8
LEFT_HID
6
HIDDEN
10
1.037067
20
1.048250
30
0.0
11
1.036063
21
1.048251
31
0.0
0
LINE
8
LEFT_HID
6
HIDDEN
10
1.036063
20
1.048251
30
0.0
11
1.035059
21
1.048252
31
0.0
0
LINE
8
LEFT_HID
6
HIDDEN
10
1.035059
20
1.048252
30
0.0
11
1.034056
21
1.048254
31
0.0
0
LINE
8
LEFT_HID
6
HIDDEN
10
1.034056
20
1.048254
30
0.0
11
1.033052
21
1.048256
31
0.0
0
LINE
8
LEFT_HID
6
HIDDEN
10
1.033052
20
1.048256
30
0.0
11
1.032048
21
1.048259
31
0.0
0
LINE
8
LEFT_HID
6
HIDDEN
10
1.032048
20
1.048259
30
0.0
11
1.031044
21
1.048262
31
0.0
0
LINE
8
LEFT_HID
6
HIDDEN
10
1.031044
20
1.048262
30
0.0
11
1.030040
21
1.048265
31
0.0
0
LINE
8
LEFT_HID
6
HIDDEN
10
1.030040
20
1.048265
30
0.0
11
1.029036
21
1.048269
31
0.0
0
LINE
8
LEFT_HID
6
HIDDEN
10
1.029036
20
1.048269
30
0.0
11
1.028032
21
1.048273
31
0.0
0
LINE
8
LEFT_HID
6
HIDDEN
10
1.028032
20
1.048273
30
0.0
11
1.027028
21
1.048278
31
0.0
0
LINE
8
LEFT_HID
6
HIDDEN
10
1.027028
20
1.048278
30
0.0
11
1.026024
21
1.048283
31
0.0
0
LINE
8
LEFT_HID
6
HIDDEN
10
1.026024
20
1.048283
30
0.0
11
1.025021
21
1.048288
31
0.0
0
LINE
8
LEFT_HID
6
HIDDEN
10
1.025021
20
1.048288
30
0.0
11
1.024017
21
1.048294
31
0.0
0
LINE
8
LEFT_HID
6
HIDDEN
10
1.024017
20
1.048294
30
0.0
11
1.023013
21
1.048300
31
0.0
0
LINE
8
LEFT_HID
6
HIDDEN
10
1.023013
20
1.048300
30
0.0
11
1.022009
21
1.048307
31
0.0
0
LINE
8
LEFT_HID
6
HIDDEN
10
1.022009
20
1.048307
30
0.0
11
1.021005
21
1.048314
31
0.0
0
LINE
8
LEFT_HID
6
HIDDEN
10
1.021005
20
1.048314
30
0.0
11
1.020001
21
1.048322
31
0.0
0
LINE
8
LEFT_HID
6
HIDDEN
10
1.020001
20
1.048322
30
0.0
11
1.018997
21
1.048330
31
0.0
0
LINE
8
LEFT_HID
6
HIDDEN
10
1.018997
20
1.048330
30
0.0
11
1.017994
21
1.048338
31
0.0
0
LINE
8
LEFT_HID
6
HIDDEN
10
1.017994
20
1.048338
30
0.0
11
1.016990
21
1.048347
31
0.0
0
LINE
8
LEFT_HID
6
HIDDEN
10
1.016990
20
1.048347
30
0.0
11
1.015986
21
1.048357
31
0.0
0
LINE
8
LEFT_HID
6
HIDDEN
10
1.015986
20
1.048357
30
0.0
11
1.014982
21
1.048366
31
0.0
0
LINE
8
LEFT_HID
6
HIDDEN
10
1.014982
20
1.048366
30
0.0
11
1.013978
21
1.048377
31
0.0
0
LINE
8
LEFT_HID
6
HIDDEN
10
1.013978
20
1.048377
30
0.0
11
1.012974
21
1.048388
31
0.0
0
LINE
8
LEFT_HID
6
HIDDEN
10
1.012974
20
1.048388
30
0.0
11
1.011970
21
1.048399
31
0.0
0
LINE
8
LEFT_HID
6
HIDDEN
10
1.011970
20
1.048399
30
0.0
11
1.010967
21
1.048411
31
0.0
0
LINE
8
LEFT_HID
6
HIDDEN
10
1.010967
20
1.048411
30
0.0
11
1.009963
21
1.048424
31
0.0
0
LINE
8
LEFT_HID
6
HIDDEN
10
1.009963
20
1.048424
30
0.0
11
1.008959
21
1.048437
31
0.0
0
LINE
8
LEFT_HID
6
HIDDEN
10
1.008959
20
1.048437
30
0.0
11
1.007955
21
1.048450
31
0.0
0
LINE
8
LEFT_HID
6
HIDDEN
10
1.007955
20
1.048450
30
0.0
11
1.006951
21
1.048465
31
0.0
0
LINE
8
LEFT_HID
6
HIDDEN
10
1.006951
20
1.048465
30
0.0
11
1.005948
21
1.048480
31
0.0
0
LINE
8
LEFT_HID
6
HIDDEN
10
1.005948
20
1.048480
30
0.0
11
1.004944
21
1.048495
31
0.0
0
LINE
8
LEFT_HID
6
HIDDEN
10
1.004944
20
1.048495
30
0.0
11
1.003940
21
1.048511
31
0.0
0
LINE
8
LEFT_HID
6
HIDDEN
10
1.003940
20
1.048511
30
0.0
11
1.002936
21
1.048528
31
0.0
0
LINE
8
LEFT_HID
6
HIDDEN
10
1.002936
20
1.048528
30
0.0
11
1.001933
21
1.048546
31
0.0
0
LINE
8
LEFT_HID
6
HIDDEN
10
1.001933
20
1.048546
30
0.0
11
1.000929
21
1.048564
31
0.0
0
LINE
8
LEFT_HID
6
HIDDEN
10
1.000929
20
1.048564
30
0.0
11
0.999925
21
1.048583
31
0.0
0
LINE
8
LEFT_HID
6
HIDDEN
10
0.999925
20
1.048583
30
0.0
11
0.998921
21
1.048603
31
0.0
0
LINE
8
LEFT_HID
6
HIDDEN
10
0.998921
20
1.048603
30
0.0
11
0.997918
21
1.048624
31
0.0
0
LINE
8
LEFT_HID
6
HIDDEN
10
0.997918
20
1.048624
30
0.0
11
0.996914
21
1.048645
31
0.0
0
LINE
8
LEFT_HID
6
HIDDEN
10
0.996914
20
1.048645
30
0.0
11
0.995910
21
1.048668
31
0.0
0
LINE
8
LEFT_HID
6
HIDDEN
10
0.995910
20
1.048668
30
0.0
11
0.994907
21
1.048691
31
0.0
0
LINE
8
LEFT_HID
6
HIDDEN
10
0.994907
20
1.048691
30
0.0
11
0.993903
21
1.048716
31
0.0
0
LINE
8
LEFT_HID
6
HIDDEN
10
0.993903
20
1.048716
30
0.0
11
0.992900
21
1.048742
31
0.0
0
LINE
8
LEFT_HID
6
HIDDEN
10
0.992900
20
1.048742
30
0.0
11
0.991896
21
1.048769
31
0.0
0
LINE
8
LEFT_HID
6
HIDDEN
10
0.991896
20
1.048769
30
0.0
11
0.990893
21
1.048797
31
0.0
0
LINE
8
LEFT_HID
6
HIDDEN
10
0.990893
20
1.048797
30
0.0
11
0.989889
21
1.048827
31
0.0
0
LINE
8
LEFT_HID
6
HIDDEN
10
0.989889
20
1.048827
30
0.0
11
0.988886
21
1.048858
31
0.0
0
LINE
8
LEFT_HID
6
HIDDEN
10
0.988886
20
1.048858
30
0.0
11
0.987882
21
1.048891
31
0.0
0
LINE
8
LEFT_HID
6
HIDDEN
10
0.987882
20
1.048891
30
0.0
11
0.986879
21
1.048927
31
0.0
0
LINE
8
LEFT_HID
6
HIDDEN
10
0.986879
20
1.048927
30
0.0
11
0.985876
21
1.048964
31
0.0
0
LINE
8
LEFT_HID
6
HIDDEN
10
0.985876
20
1.048964
30
0.0
11
0.984873
21
1.049004
31
0.0
0
LINE
8
LEFT_HID
6
HIDDEN
10
0.984873
20
1.049004
30
0.0
11
0.983870
21
1.049046
31
0.0
0
LINE
8
LEFT_HID
6
HIDDEN
10
0.983870
20
1.049046
30
0.0
11
0.982867
21
1.049092
31
0.0
0
LINE
8
LEFT_HID
6
HIDDEN
10
0.982867
20
1.049092
30
0.0
11
0.981864
21
1.049143
31
0.0
0
LINE
8
LEFT_HID
6
HIDDEN
10
0.981864
20
1.049143
30
0.0
11
0.980862
21
1.049198
31
0.0
0
LINE
8
LEFT_HID
6
HIDDEN
10
0.980862
20
1.049198
30
0.0
11
0.979860
21
1.049260
31
0.0
0
LINE
8
LEFT_HID
6
HIDDEN
10
0.979860
20
1.049260
30
0.0
11
0.978859
21
1.049332
31
0.0
0
LINE
8
LEFT_HID
6
HIDDEN
10
0.978859
20
1.049332
30
0.0
11
0.977859
21
1.049418
31
0.0
0
LINE
8
LEFT_HID
6
HIDDEN
10
0.977859
20
1.049418
30
0.0
11
0.976861
21
1.049532
31
0.0
0
LINE
8
LEFT_HID
6
HIDDEN
10
0.976861
20
1.049532
30
0.0
11
0.975917
21
1.049799
31
0.0
0
LINE
8
LEFT_HID
6
HIDDEN
10
0.975917
20
1.049799
30
0.0
11
0.977859
21
1.050181
31
0.0
0
LINE
8
LEFT_HID
6
HIDDEN
10
0.977859
20
1.050181
30
0.0
11
0.979860
21
1.050338
31
0.0
0
LINE
8
LEFT_HID
6
HIDDEN
10
0.979860
20
1.050338
30
0.0
11
0.981864
21
1.050456
31
0.0
0
LINE
8
LEFT_HID
6
HIDDEN
10
0.981864
20
1.050456
30
0.0
11
0.983870
21
1.050552
31
0.0
0
LINE
8
LEFT_HID
6
HIDDEN
10
0.983870
20
1.050552
30
0.0
11
0.985876
21
1.050635
31
0.0
0
LINE
8
LEFT_HID
6
HIDDEN
10
0.985876
20
1.050635
30
0.0
11
0.987883
21
1.050707
31
0.0
0
LINE
8
LEFT_HID
6
HIDDEN
10
0.987883
20
1.050707
30
0.0
11
0.989889
21
1.050772
31
0.0
0
LINE
8
LEFT_HID
6
HIDDEN
10
0.989889
20
1.050772
30
0.0
11
0.991896
21
1.050830
31
0.0
0
LINE
8
LEFT_HID
6
HIDDEN
10
0.991896
20
1.050830
30
0.0
11
0.993903
21
1.050883
31
0.0
0
LINE
8
LEFT_HID
6
HIDDEN
10
0.993903
20
1.050883
30
0.0
11
0.995911
21
1.050931
31
0.0
0
LINE
8
LEFT_HID
6
HIDDEN
10
0.995911
20
1.050931
30
0.0
11
0.997918
21
1.050975
31
0.0
0
LINE
8
LEFT_HID
6
HIDDEN
10
0.997918
20
1.050975
30
0.0
11
0.999925
21
1.051016
31
0.0
0
LINE
8
LEFT_HID
6
HIDDEN
10
0.999925
20
1.051016
30
0.0
11
1.001933
21
1.051053
31
0.0
0
LINE
8
LEFT_HID
6
HIDDEN
10
1.001933
20
1.051053
30
0.0
11
1.003940
21
1.051087
31
0.0
0
LINE
8
LEFT_HID
6
HIDDEN
10
1.003940
20
1.051087
30
0.0
11
1.005948
21
1.051119
31
0.0
0
LINE
8
LEFT_HID
6
HIDDEN
10
1.005948
20
1.051119
30
0.0
11
1.007955
21
1.051148
31
0.0
0
LINE
8
LEFT_HID
6
HIDDEN
10
1.007955
20
1.051148
30
0.0
11
1.009963
21
1.051175
31
0.0
0
LINE
8
LEFT_HID
6
HIDDEN
10
1.009963
20
1.051175
30
0.0
11
1.011970
21
1.051199
31
0.0
0
LINE
8
LEFT_HID
6
HIDDEN
10
1.011970
20
1.051199
30
0.0
11
1.013978
21
1.051222
31
0.0
0
LINE
8
LEFT_HID
6
HIDDEN
10
1.013978
20
1.051222
30
0.0
11
1.015986
21
1.051242
31
0.0
0
LINE
8
LEFT_HID
6
HIDDEN
10
1.015986
20
1.051242
30
0.0
11
1.017994
21
1.051260
31
0.0
0
LINE
8
LEFT_HID
6
HIDDEN
10
1.017994
20
1.051260
30
0.0
11
1.020001
21
1.051277
31
0.0
0
LINE
8
LEFT_HID
6
HIDDEN
10
1.020001
20
1.051277
30
0.0
11
1.022009
21
1.051292
31
0.0
0
LINE
8
LEFT_HID
6
HIDDEN
10
1.022009
20
1.051292
30
0.0
11
1.024017
21
1.051305
31
0.0
0
LINE
8
LEFT_HID
6
HIDDEN
10
1.024017
20
1.051305
30
0.0
11
1.026024
21
1.051316
31
0.0
0
LINE
8
LEFT_HID
6
HIDDEN
10
1.026024
20
1.051316
30
0.0
11
1.028032
21
1.051325
31
0.0
0
LINE
8
LEFT_HID
6
HIDDEN
10
1.028032
20
1.051325
30
0.0
11
1.030040
21
1.051333
31
0.0
0
LINE
8
LEFT_HID
6
HIDDEN
10
1.030040
20
1.051333
30
0.0
11
1.032048
21
1.051340
31
0.0
0
LINE
8
LEFT_HID
6
HIDDEN
10
1.032048
20
1.051340
30
0.0
11
1.034056
21
1.051344
31
0.0
0
LINE
8
LEFT_HID
6
HIDDEN
10
1.034056
20
1.051344
30
0.0
11
1.036063
21
1.051347
31
0.0
0
LINE
8
LEFT_HID
6
HIDDEN
10
1.036063
20
1.051347
30
0.0
11
1.038071
21
1.051349
31
0.0
0
LINE
8
LEFT_HID
6
HIDDEN
10
1.038071
20
1.051349
30
0.0
11
1.040079
21
1.051349
31
0.0
0
LINE
8
LEFT_HID
6
HIDDEN
10
1.040079
20
1.051349
30
0.0
11
1.042087
21
1.051347
31
0.0
0
LINE
8
LEFT_HID
6
HIDDEN
10
1.042087
20
1.051347
30
0.0
11
1.044094
21
1.051344
31
0.0
0
LINE
8
LEFT_HID
6
HIDDEN
10
1.044094
20
1.051344
30
0.0
11
1.046102
21
1.051340
31
0.0
0
LINE
8
LEFT_HID
6
HIDDEN
10
1.046102
20
1.051340
30
0.0
11
1.048110
21
1.051333
31
0.0
0
LINE
8
LEFT_HID
6
HIDDEN
10
1.048110
20
1.051333
30
0.0
11
1.050118
21
1.051325
31
0.0
0
LINE
8
LEFT_HID
6
HIDDEN
10
1.050118
20
1.051325
30
0.0
11
1.052126
21
1.051316
31
0.0
0
LINE
8
LEFT_HID
6
HIDDEN
10
1.052126
20
1.051316
30
0.0
11
1.054133
21
1.051305
31
0.0
0
LINE
8
LEFT_HID
6
HIDDEN
10
1.054133
20
1.051305
30
0.0
11
1.056141
21
1.051292
31
0.0
0
LINE
8
LEFT_HID
6
HIDDEN
10
1.056141
20
1.051292
30
0.0
11
1.058149
21
1.051277
31
0.0
0
LINE
8
LEFT_HID
6
HIDDEN
10
1.058149
20
1.051277
30
0.0
11
1.060157
21
1.051260
31
0.0
0
LINE
8
LEFT_HID
6
HIDDEN
10
1.060157
20
1.051260
30
0.0
11
1.062164
21
1.051242
31
0.0
0
LINE
8
LEFT_HID
6
HIDDEN
10
1.062164
20
1.051242
30
0.0
11
1.064172
21
1.051222
31
0.0
0
LINE
8
LEFT_HID
6
HIDDEN
10
1.064172
20
1.051222
30
0.0
11
1.066180
21
1.051199
31
0.0
0
LINE
8
LEFT_HID
6
HIDDEN
10
1.066180
20
1.051199
30
0.0
11
1.068187
21
1.051175
31
0.0
0
LINE
8
LEFT_HID
6
HIDDEN
10
1.068187
20
1.051175
30
0.0
11
1.070195
21
1.051148
31
0.0
0
LINE
8
LEFT_HID
6
HIDDEN
10
1.070195
20
1.051148
30
0.0
11
1.072202
21
1.051119
31
0.0
0
LINE
8
LEFT_HID
6
HIDDEN
10
1.072202
20
1.051119
30
0.0
11
1.074210
21
1.051087
31
0.0
0
LINE
8
LEFT_HID
6
HIDDEN
10
1.074210
20
1.051087
30
0.0
11
1.076217
21
1.051053
31
0.0
0
LINE
8
LEFT_HID
6
HIDDEN
10
1.076217
20
1.051053
30
0.0
11
1.078225
21
1.051016
31
0.0
0
LINE
8
LEFT_HID
6
HIDDEN
10
1.078225
20
1.051016
30
0.0
11
1.080232
21
1.050975
31
0.0
0
LINE
8
LEFT_HID
6
HIDDEN
10
1.080232
20
1.050975
30
0.0
11
1.082240
21
1.050931
31
0.0
0
LINE
8
LEFT_HID
6
HIDDEN
10
1.082240
20
1.050931
30
0.0
11
1.084247
21
1.050883
31
0.0
0
LINE
8
LEFT_HID
6
HIDDEN
10
1.084247
20
1.050883
30
0.0
11
1.086254
21
1.050830
31
0.0
0
LINE
8
LEFT_HID
6
HIDDEN
10
1.086254
20
1.050830
30
0.0
11
1.088261
21
1.050772
31
0.0
0
LINE
8
LEFT_HID
6
HIDDEN
10
1.088261
20
1.050772
30
0.0
11
1.090268
21
1.050707
31
0.0
0
LINE
8
LEFT_HID
6
HIDDEN
10
1.090268
20
1.050707
30
0.0
11
1.092274
21
1.050635
31
0.0
0
LINE
8
LEFT_HID
6
HIDDEN
10
1.092274
20
1.050635
30
0.0
11
1.094280
21
1.050552
31
0.0
0
LINE
8
LEFT_HID
6
HIDDEN
10
1.094280
20
1.050552
30
0.0
11
1.096286
21
1.050456
31
0.0
0
LINE
8
LEFT_HID
6
HIDDEN
10
1.096286
20
1.050456
30
0.0
11
1.098290
21
1.050338
31
0.0
0
LINE
8
LEFT_HID
6
HIDDEN
10
1.098290
20
1.050338
30
0.0
11
1.100291
21
1.050181
31
0.0
0
LINE
8
LEFT_HID
6
HIDDEN
10
1.100291
20
1.050181
30
0.0
11
1.102233
21
1.049799
31
0.0
0
LINE
8
LEFT_HID
6
HIDDEN
10
1.102233
20
1.049799
30
0.0
11
1.101289
21
1.049532
31
0.0
0
LINE
8
LEFT_HID
6
HIDDEN
10
1.101289
20
1.049532
30
0.0
11
1.100291
21
1.049418
31
0.0
0
LINE
8
LEFT_HID
6
HIDDEN
10
1.100291
20
1.049418
30
0.0
11
1.099291
21
1.049332
31
0.0
0
LINE
8
LEFT_HID
6
HIDDEN
10
1.099291
20
1.049332
30
0.0
11
1.098290
21
1.049260
31
0.0
0
LINE
8
LEFT_HID
6
HIDDEN
10
1.098290
20
1.049260
30
0.0
11
1.097288
21
1.049198
31
0.0
0
LINE
8
LEFT_HID
6
HIDDEN
10
1.097288
20
1.049198
30
0.0
11
1.096286
21
1.049143
31
0.0
0
LINE
8
LEFT_HID
6
HIDDEN
10
1.096286
20
1.049143
30
0.0
11
1.095283
21
1.049092
31
0.0
0
LINE
8
LEFT_HID
6
HIDDEN
10
1.095283
20
1.049092
30
0.0
11
1.094280
21
1.049046
31
0.0
0
LINE
8
LEFT_HID
6
HIDDEN
10
1.094280
20
1.049046
30
0.0
11
1.093277
21
1.049004
31
0.0
0
LINE
8
LEFT_HID
6
HIDDEN
10
1.093277
20
1.049004
30
0.0
11
1.092274
21
1.048964
31
0.0
0
LINE
8
LEFT_HID
6
HIDDEN
10
1.092274
20
1.048964
30
0.0
11
1.091271
21
1.048927
31
0.0
0
LINE
8
LEFT_HID
6
HIDDEN
10
1.091271
20
1.048927
30
0.0
11
1.090268
21
1.048891
31
0.0
0
LINE
8
LEFT_HID
6
HIDDEN
10
1.090268
20
1.048891
30
0.0
11
1.089264
21
1.048858
31
0.0
0
LINE
8
LEFT_HID
6
HIDDEN
10
1.089264
20
1.048858
30
0.0
11
1.088261
21
1.048827
31
0.0
0
LINE
8
LEFT_HID
6
HIDDEN
10
1.088261
20
1.048827
30
0.0
11
1.087257
21
1.048797
31
0.0
0
LINE
8
LEFT_HID
6
HIDDEN
10
1.087257
20
1.048797
30
0.0
11
1.086254
21
1.048769
31
0.0
0
LINE
8
LEFT_HID
6
HIDDEN
10
1.086254
20
1.048769
30
0.0
11
1.085250
21
1.048742
31
0.0
0
LINE
8
LEFT_HID
6
HIDDEN
10
1.085250
20
1.048742
30
0.0
11
1.084247
21
1.048716
31
0.0
0
LINE
8
LEFT_HID
6
HIDDEN
10
1.084247
20
1.048716
30
0.0
11
1.083243
21
1.048691
31
0.0
0
LINE
8
LEFT_HID
6
HIDDEN
10
1.083243
20
1.048691
30
0.0
11
1.082240
21
1.048668
31
0.0
0
LINE
8
LEFT_HID
6
HIDDEN
10
1.082240
20
1.048668
30
0.0
11
1.081236
21
1.048645
31
0.0
0
LINE
8
LEFT_HID
6
HIDDEN
10
1.081236
20
1.048645
30
0.0
11
1.080232
21
1.048624
31
0.0
0
LINE
8
LEFT_HID
6
HIDDEN
10
1.080232
20
1.048624
30
0.0
11
1.079229
21
1.048603
31
0.0
0
LINE
8
LEFT_HID
6
HIDDEN
10
1.079229
20
1.048603
30
0.0
11
1.078225
21
1.048583
31
0.0
0
LINE
8
LEFT_HID
6
HIDDEN
10
1.078225
20
1.048583
30
0.0
11
1.077221
21
1.048564
31
0.0
0
LINE
8
LEFT_HID
6
HIDDEN
10
1.077221
20
1.048564
30
0.0
11
1.076217
21
1.048546
31
0.0
0
LINE
8
LEFT_HID
6
HIDDEN
10
1.076217
20
1.048546
30
0.0
11
1.075214
21
1.048528
31
0.0
0
LINE
8
LEFT_HID
6
HIDDEN
10
1.075214
20
1.048528
30
0.0
11
1.074210
21
1.048511
31
0.0
0
LINE
8
LEFT_HID
6
HIDDEN
10
1.074210
20
1.048511
30
0.0
11
1.073206
21
1.048495
31
0.0
0
LINE
8
LEFT_HID
6
HIDDEN
10
1.073206
20
1.048495
30
0.0
11
1.072202
21
1.048480
31
0.0
0
LINE
8
LEFT_HID
6
HIDDEN
10
1.072202
20
1.048480
30
0.0
11
1.071199
21
1.048465
31
0.0
0
LINE
8
LEFT_HID
6
HIDDEN
10
1.071199
20
1.048465
30
0.0
11
1.070195
21
1.048450
31
0.0
0
LINE
8
LEFT_HID
6
HIDDEN
10
1.070195
20
1.048450
30
0.0
11
1.069191
21
1.048437
31
0.0
0
LINE
8
LEFT_HID
6
HIDDEN
10
1.069191
20
1.048437
30
0.0
11
1.068187
21
1.048424
31
0.0
0
LINE
8
LEFT_HID
6
HIDDEN
10
1.068187
20
1.048424
30
0.0
11
1.067183
21
1.048411
31
0.0
0
LINE
8
LEFT_HID
6
HIDDEN
10
1.067183
20
1.048411
30
0.0
11
1.066180
21
1.048399
31
0.0
0
LINE
8
LEFT_HID
6
HIDDEN
10
1.066180
20
1.048399
30
0.0
11
1.065176
21
1.048388
31
0.0
0
LINE
8
LEFT_HID
6
HIDDEN
10
1.065176
20
1.048388
30
0.0
11
1.064172
21
1.048377
31
0.0
0
LINE
8
LEFT_HID
6
HIDDEN
10
1.064172
20
1.048377
30
0.0
11
1.063168
21
1.048366
31
0.0
0
LINE
8
LEFT_HID
6
HIDDEN
10
1.063168
20
1.048366
30
0.0
11
1.062164
21
1.048357
31
0.0
0
LINE
8
LEFT_HID
6
HIDDEN
10
1.062164
20
1.048357
30
0.0
11
1.061160
21
1.048347
31
0.0
0
LINE
8
LEFT_HID
6
HIDDEN
10
1.061160
20
1.048347
30
0.0
11
1.060157
21
1.048338
31
0.0
0
LINE
8
LEFT_HID
6
HIDDEN
10
1.060157
20
1.048338
30
0.0
11
1.059153
21
1.048330
31
0.0
0
LINE
8
LEFT_HID
6
HIDDEN
10
1.059153
20
1.048330
30
0.0
11
1.058149
21
1.048322
31
0.0
0
LINE
8
LEFT_HID
6
HIDDEN
10
1.058149
20
1.048322
30
0.0
11
1.057145
21
1.048314
31
0.0
0
LINE
8
LEFT_HID
6
HIDDEN
10
1.057145
20
1.048314
30
0.0
11
1.056141
21
1.048307
31
0.0
0
LINE
8
LEFT_HID
6
HIDDEN
10
1.056141
20
1.048307
30
0.0
11
1.055137
21
1.048300
31
0.0
0
LINE
8
LEFT_HID
6
HIDDEN
10
1.055137
20
1.048300
30
0.0
11
1.054133
21
1.048294
31
0.0
0
LINE
8
LEFT_HID
6
HIDDEN
10
1.054133
20
1.048294
30
0.0
11
1.053129
21
1.048288
31
0.0
0
LINE
8
LEFT_HID
6
HIDDEN
10
1.053129
20
1.048288
30
0.0
11
1.052126
21
1.048283
31
0.0
0
LINE
8
LEFT_HID
6
HIDDEN
10
1.052126
20
1.048283
30
0.0
11
1.051122
21
1.048278
31
0.0
0
LINE
8
LEFT_HID
6
HIDDEN
10
1.051122
20
1.048278
30
0.0
11
1.050118
21
1.048273
31
0.0
0
LINE
8
LEFT_HID
6
HIDDEN
10
1.050118
20
1.048273
30
0.0
11
1.049114
21
1.048269
31
0.0
0
LINE
8
LEFT_HID
6
HIDDEN
10
1.049114
20
1.048269
30
0.0
11
1.048110
21
1.048265
31
0.0
0
LINE
8
LEFT_HID
6
HIDDEN
10
1.048110
20
1.048265
30
0.0
11
1.047106
21
1.048262
31
0.0
0
LINE
8
LEFT_HID
6
HIDDEN
10
1.047106
20
1.048262
30
0.0
11
1.046102
21
1.048259
31
0.0
0
LINE
8
LEFT_HID
6
HIDDEN
10
1.046102
20
1.048259
30
0.0
11
1.045098
21
1.048256
31
0.0
0
LINE
8
LEFT_HID
6
HIDDEN
10
1.045098
20
1.048256
30
0.0
11
1.044094
21
1.048254
31
0.0
0
LINE
8
LEFT_HID
6
HIDDEN
10
1.044094
20
1.048254
30
0.0
11
1.043091
21
1.048252
31
0.0
0
LINE
8
LEFT_HID
6
HIDDEN
10
1.043091
20
1.048252
30
0.0
11
1.042087
21
1.048251
31
0.0
0
LINE
8
LEFT_HID
6
HIDDEN
10
1.042087
20
1.048251
30
0.0
11
1.041083
21
1.048250
31
0.0
0
LINE
8
LEFT_HID
6
HIDDEN
10
1.041083
20
1.048250
30
0.0
11
1.040079
21
1.048249
31
0.0
0
LINE
8
LEFT_HID
6
HIDDEN
10
1.040079
20
1.048249
30
0.0
11
1.039075
21
1.048249
31
0.0
0
LINE
8
LEFT_HID
6
HIDDEN
10
1.037525
20
0.423438
30
0.0
11
1.036546
21
0.423439
31
0.0
0
LINE
8
LEFT_HID
6
HIDDEN
10
1.036546
20
0.423439
30
0.0
11
1.035566
21
0.423440
31
0.0
0
LINE
8
LEFT_HID
6
HIDDEN
10
1.035566
20
0.423440
30
0.0
11
1.034587
21
0.423441
31
0.0
0
LINE
8
LEFT_HID
6
HIDDEN
10
1.034587
20
0.423441
30
0.0
11
1.033608
21
0.423443
31
0.0
0
LINE
8
LEFT_HID
6
HIDDEN
10
1.033608
20
0.423443
30
0.0
11
1.032629
21
0.423446
31
0.0
0
LINE
8
LEFT_HID
6
HIDDEN
10
1.032629
20
0.423446
30
0.0
11
1.031649
21
0.423448
31
0.0
0
LINE
8
LEFT_HID
6
HIDDEN
10
1.031649
20
0.423448
30
0.0
11
1.030670
21
0.423451
31
0.0
0
LINE
8
LEFT_HID
6
HIDDEN
10
1.030670
20
0.423451
30
0.0
11
1.029691
21
0.423455
31
0.0
0
LINE
8
LEFT_HID
6
HIDDEN
10
1.029691
20
0.423455
30
0.0
11
1.028711
21
0.423459
31
0.0
0
LINE
8
LEFT_HID
6
HIDDEN
10
1.028711
20
0.423459
30
0.0
11
1.027732
21
0.423463
31
0.0
0
LINE
8
LEFT_HID
6
HIDDEN
10
1.027732
20
0.423463
30
0.0
11
1.026753
21
0.423467
31
0.0
0
LINE
8
LEFT_HID
6
HIDDEN
10
1.026753
20
0.423467
30
0.0
11
1.025774
21
0.423472
31
0.0
0
LINE
8
LEFT_HID
6
HIDDEN
10
1.025774
20
0.423472
30
0.0
11
1.024794
21
0.423478
31
0.0
0
LINE
8
LEFT_HID
6
HIDDEN
10
1.024794
20
0.423478
30
0.0
11
1.023815
21
0.423483
31
0.0
0
LINE
8
LEFT_HID
6
HIDDEN
10
1.023815
20
0.423483
30
0.0
11
1.022836
21
0.423490
31
0.0
0
LINE
8
LEFT_HID
6
HIDDEN
10
1.022836
20
0.423490
30
0.0
11
1.021857
21
0.423496
31
0.0
0
LINE
8
LEFT_HID
6
HIDDEN
10
1.021857
20
0.423496
30
0.0
11
1.020877
21
0.423503
31
0.0
0
LINE
8
LEFT_HID
6
HIDDEN
10
1.020877
20
0.423503
30
0.0
11
1.019898
21
0.423511
31
0.0
0
LINE
8
LEFT_HID
6
HIDDEN
10
1.019898
20
0.423511
30
0.0
11
1.018919
21
0.423519
31
0.0
0
LINE
8
LEFT_HID
6
HIDDEN
10
1.018919
20
0.423519
30
0.0
11
1.017939
21
0.423527
31
0.0
0
LINE
8
LEFT_HID
6
HIDDEN
10
1.017939
20
0.423527
30
0.0
11
1.016960
21
0.423536
31
0.0
0
LINE
8
LEFT_HID
6
HIDDEN
10
1.016960
20
0.423536
30
0.0
11
1.015981
21
0.423545
31
0.0
0
LINE
8
LEFT_HID
6
HIDDEN
10
1.015981
20
0.423545
30
0.0
11
1.015002
21
0.423555
31
0.0
0
LINE
8
LEFT_HID
6
HIDDEN
10
1.015002
20
0.423555
30
0.0
11
1.014022
21
0.423565
31
0.0
0
LINE
8
LEFT_HID
6
HIDDEN
10
1.014022
20
0.423565
30
0.0
11
1.013043
21
0.423575
31
0.0
0
LINE
8
LEFT_HID
6
HIDDEN
10
1.013043
20
0.423575
30
0.0
11
1.012064
21
0.423586
31
0.0
0
LINE
8
LEFT_HID
6
HIDDEN
10
1.012064
20
0.423586
30
0.0
11
1.011085
21
0.423598
31
0.0
0
LINE
8
LEFT_HID
6
HIDDEN
10
1.011085
20
0.423598
30
0.0
11
1.010106
21
0.423610
31
0.0
0
LINE
8
LEFT_HID
6
HIDDEN
10
1.010106
20
0.423610
30
0.0
11
1.009126
21
0.423623
31
0.0
0
LINE
8
LEFT_HID
6
HIDDEN
10
1.009126
20
0.423623
30
0.0
11
1.008147
21
0.423636
31
0.0
0
LINE
8
LEFT_HID
6
HIDDEN
10
1.008147
20
0.423636
30
0.0
11
1.007168
21
0.423650
31
0.0
0
LINE
8
LEFT_HID
6
HIDDEN
10
1.007168
20
0.423650
30
0.0
11
1.006189
21
0.423664
31
0.0
0
LINE
8
LEFT_HID
6
HIDDEN
10
1.006189
20
0.423664
30
0.0
11
1.005210
21
0.423679
31
0.0
0
LINE
8
LEFT_HID
6
HIDDEN
10
1.005210
20
0.423679
30
0.0
11
1.004230
21
0.423695
31
0.0
0
LINE
8
LEFT_HID
6
HIDDEN
10
1.004230
20
0.423695
30
0.0
11
1.003251
21
0.423711
31
0.0
0
LINE
8
LEFT_HID
6
HIDDEN
10
1.003251
20
0.423711
30
0.0
11
1.002272
21
0.423728
31
0.0
0
LINE
8
LEFT_HID
6
HIDDEN
10
1.002272
20
0.423728
30
0.0
11
1.001293
21
0.423745
31
0.0
0
LINE
8
LEFT_HID
6
HIDDEN
10
1.001293
20
0.423745
30
0.0
11
1.000314
21
0.423764
31
0.0
0
LINE
8
LEFT_HID
6
HIDDEN
10
1.000314
20
0.423764
30
0.0
11
0.999335
21
0.423783
31
0.0
0
LINE
8
LEFT_HID
6
HIDDEN
10
0.999335
20
0.423783
30
0.0
11
0.998356
21
0.423803
31
0.0
0
LINE
8
LEFT_HID
6
HIDDEN
10
0.998356
20
0.423803
30
0.0
11
0.997377
21
0.423823
31
0.0
0
LINE
8
LEFT_HID
6
HIDDEN
10
0.997377
20
0.423823
30
0.0
11
0.996398
21
0.423845
31
0.0
0
LINE
8
LEFT_HID
6
HIDDEN
10
0.996398
20
0.423845
30
0.0
11
0.995419
21
0.423867
31
0.0
0
LINE
8
LEFT_HID
6
HIDDEN
10
0.995419
20
0.423867
30
0.0
11
0.994440
21
0.423891
31
0.0
0
LINE
8
LEFT_HID
6
HIDDEN
10
0.994440
20
0.423891
30
0.0
11
0.993461
21
0.423915
31
0.0
0
LINE
8
LEFT_HID
6
HIDDEN
10
0.993461
20
0.423915
30
0.0
11
0.992482
21
0.423941
31
0.0
0
LINE
8
LEFT_HID
6
HIDDEN
10
0.992482
20
0.423941
30
0.0
11
0.991503
21
0.423968
31
0.0
0
LINE
8
LEFT_HID
6
HIDDEN
10
0.991503
20
0.423968
30
0.0
11
0.990524
21
0.423996
31
0.0
0
LINE
8
LEFT_HID
6
HIDDEN
10
0.990524
20
0.423996
30
0.0
11
0.989545
21
0.424026
31
0.0
0
LINE
8
LEFT_HID
6
HIDDEN
10
0.989545
20
0.424026
30
0.0
11
0.988566
21
0.424057
31
0.0
0
LINE
8
LEFT_HID
6
HIDDEN
10
0.988566
20
0.424057
30
0.0
11
0.987587
21
0.424090
31
0.0
0
LINE
8
LEFT_HID
6
HIDDEN
10
0.987587
20
0.424090
30
0.0
11
0.986609
21
0.424125
31
0.0
0
LINE
8
LEFT_HID
6
HIDDEN
10
0.986609
20
0.424125
30
0.0
11
0.985630
21
0.424162
31
0.0
0
LINE
8
LEFT_HID
6
HIDDEN
10
0.985630
20
0.424162
30
0.0
11
0.984652
21
0.424201
31
0.0
0
LINE
8
LEFT_HID
6
HIDDEN
10
0.984652
20
0.424201
30
0.0
11
0.983673
21
0.424243
31
0.0
0
LINE
8
LEFT_HID
6
HIDDEN
10
0.983673
20
0.424243
30
0.0
11
0.982695
21
0.424289
31
0.0
0
LINE
8
LEFT_HID
6
HIDDEN
10
0.982695
20
0.424289
30
0.0
11
0.981717
21
0.424339
31
0.0
0
LINE
8
LEFT_HID
6
HIDDEN
10
0.981717
20
0.424339
30
0.0
11
0.980739
21
0.424393
31
0.0
0
LINE
8
LEFT_HID
6
HIDDEN
10
0.980739
20
0.424393
30
0.0
11
0.979762
21
0.424455
31
0.0
0
LINE
8
LEFT_HID
6
HIDDEN
10
0.979762
20
0.424455
30
0.0
11
0.978785
21
0.424526
31
0.0
0
LINE
8
LEFT_HID
6
HIDDEN
10
0.978785
20
0.424526
30
0.0
11
0.977810
21
0.424611
31
0.0
0
LINE
8
LEFT_HID
6
HIDDEN
10
0.977810
20
0.424611
30
0.0
11
0.976837
21
0.424724
31
0.0
0
LINE
8
LEFT_HID
6
HIDDEN
10
0.976837
20
0.424724
30
0.0
11
0.975917
21
0.424987
31
0.0
0
LINE
8
LEFT_HID
6
HIDDEN
10
0.975917
20
0.424987
30
0.0
11
0.977859
21
0.425369
31
0.0
0
LINE
8
LEFT_HID
6
HIDDEN
10
0.977859
20
0.425369
30
0.0
11
0.979860
21
0.425527
31
0.0
0
LINE
8
LEFT_HID
6
HIDDEN
10
0.979860
20
0.425527
30
0.0
11
0.981864
21
0.425644
31
0.0
0
LINE
8
LEFT_HID
6
HIDDEN
10
0.981864
20
0.425644
30
0.0
11
0.983870
21
0.425740
31
0.0
0
LINE
8
LEFT_HID
6
HIDDEN
10
0.983870
20
0.425740
30
0.0
11
0.985876
21
0.425823
31
0.0
0
LINE
8
LEFT_HID
6
HIDDEN
10
0.985876
20
0.425823
30
0.0
11
0.987883
21
0.425895
31
0.0
0
LINE
8
LEFT_HID
6
HIDDEN
10
0.987883
20
0.425895
30
0.0
11
0.989889
21
0.425960
31
0.0
0
LINE
8
LEFT_HID
6
HIDDEN
10
0.989889
20
0.425960
30
0.0
11
0.991896
21
0.426018
31
0.0
0
LINE
8
LEFT_HID
6
HIDDEN
10
0.991896
20
0.426018
30
0.0
11
0.993903
21
0.426071
31
0.0
0
LINE
8
LEFT_HID
6
HIDDEN
10
0.993903
20
0.426071
30
0.0
11
0.995911
21
0.426119
31
0.0
0
LINE
8
LEFT_HID
6
HIDDEN
10
0.995911
20
0.426119
30
0.0
11
0.997918
21
0.426163
31
0.0
0
LINE
8
LEFT_HID
6
HIDDEN
10
0.997918
20
0.426163
30
0.0
11
0.999925
21
0.426204
31
0.0
0
LINE
8
LEFT_HID
6
HIDDEN
10
0.999925
20
0.426204
30
0.0
11
1.001933
21
0.426241
31
0.0
0
LINE
8
LEFT_HID
6
HIDDEN
10
1.001933
20
0.426241
30
0.0
11
1.003940
21
0.426275
31
0.0
0
LINE
8
LEFT_HID
6
HIDDEN
10
1.003940
20
0.426275
30
0.0
11
1.005948
21
0.426307
31
0.0
0
LINE
8
LEFT_HID
6
HIDDEN
10
1.005948
20
0.426307
30
0.0
11
1.007955
21
0.426336
31
0.0
0
LINE
8
LEFT_HID
6
HIDDEN
10
1.007955
20
0.426336
30
0.0
11
1.009963
21
0.426363
31
0.0
0
LINE
8
LEFT_HID
6
HIDDEN
10
1.009963
20
0.426363
30
0.0
11
1.011970
21
0.426387
31
0.0
0
LINE
8
LEFT_HID
6
HIDDEN
10
1.011970
20
0.426387
30
0.0
11
1.013978
21
0.426410
31
0.0
0
LINE
8
LEFT_HID
6
HIDDEN
10
1.013978
20
0.426410
30
0.0
11
1.015986
21
0.426430
31
0.0
0
LINE
8
LEFT_HID
6
HIDDEN
10
1.015986
20
0.426430
30
0.0
11
1.017994
21
0.426449
31
0.0
0
LINE
8
LEFT_HID
6
HIDDEN
10
1.017994
20
0.426449
30
0.0
11
1.020001
21
0.426465
31
0.0
0
LINE
8
LEFT_HID
6
HIDDEN
10
1.020001
20
0.426465
30
0.0
11
1.022009
21
0.426480
31
0.0
0
LINE
8
LEFT_HID
6
HIDDEN
10
1.022009
20
0.426480
30
0.0
11
1.024017
21
0.426493
31
0.0
0
LINE
8
LEFT_HID
6
HIDDEN
10
1.024017
20
0.426493
30
0.0
11
1.026024
21
0.426504
31
0.0
0
LINE
8
LEFT_HID
6
HIDDEN
10
1.026024
20
0.426504
30
0.0
11
1.028032
21
0.426514
31
0.0
0
LINE
8
LEFT_HID
6
HIDDEN
10
1.028032
20
0.426514
30
0.0
11
1.030040
21
0.426522
31
0.0
0
LINE
8
LEFT_HID
6
HIDDEN
10
1.030040
20
0.426522
30
0.0
11
1.032048
21
0.426528
31
0.0
0
LINE
8
LEFT_HID
6
HIDDEN
10
1.032048
20
0.426528
30
0.0
11
1.034056
21
0.426533
31
0.0
0
LINE
8
LEFT_HID
6
HIDDEN
10
1.034056
20
0.426533
30
0.0
11
1.036063
21
0.426536
31
0.0
0
LINE
8
LEFT_HID
6
HIDDEN
10
1.036063
20
0.426536
30
0.0
11
1.038071
21
0.426537
31
0.0
0
LINE
8
LEFT_HID
6
HIDDEN
10
1.038071
20
0.426537
30
0.0
11
1.040079
21
0.426537
31
0.0
0
LINE
8
LEFT_HID
6
HIDDEN
10
1.040079
20
0.426537
30
0.0
11
1.042087
21
0.426536
31
0.0
0
LINE
8
LEFT_HID
6
HIDDEN
10
1.042087
20
0.426536
30
0.0
11
1.044094
21
0.426533
31
0.0
0
LINE
8
LEFT_HID
6
HIDDEN
10
1.044094
20
0.426533
30
0.0
11
1.046102
21
0.426528
31
0.0
0
LINE
8
LEFT_HID
6
HIDDEN
10
1.046102
20
0.426528
30
0.0
11
1.048110
21
0.426522
31
0.0
0
LINE
8
LEFT_HID
6
HIDDEN
10
1.048110
20
0.426522
30
0.0
11
1.050118
21
0.426514
31
0.0
0
LINE
8
LEFT_HID
6
HIDDEN
10
1.050118
20
0.426514
30
0.0
11
1.052126
21
0.426504
31
0.0
0
LINE
8
LEFT_HID
6
HIDDEN
10
1.052126
20
0.426504
30
0.0
11
1.054133
21
0.426493
31
0.0
0
LINE
8
LEFT_HID
6
HIDDEN
10
1.054133
20
0.426493
30
0.0
11
1.056141
21
0.426480
31
0.0
0
LINE
8
LEFT_HID
6
HIDDEN
10
1.056141
20
0.426480
30
0.0
11
1.058149
21
0.426465
31
0.0
0
LINE
8
LEFT_HID
6
HIDDEN
10
1.058149
20
0.426465
30
0.0
11
1.060157
21
0.426449
31
0.0
0
LINE
8
LEFT_HID
6
HIDDEN
10
1.060157
20
0.426449
30
0.0
11
1.062164
21
0.426430
31
0.0
0
LINE
8
LEFT_HID
6
HIDDEN
10
1.062164
20
0.426430
30
0.0
11
1.064172
21
0.426410
31
0.0
0
LINE
8
LEFT_HID
6
HIDDEN
10
1.064172
20
0.426410
30
0.0
11
1.066180
21
0.426387
31
0.0
0
LINE
8
LEFT_HID
6
HIDDEN
10
1.066180
20
0.426387
30
0.0
11
1.068187
21
0.426363
31
0.0
0
LINE
8
LEFT_HID
6
HIDDEN
10
1.068187
20
0.426363
30
0.0
11
1.070195
21
0.426336
31
0.0
0
LINE
8
LEFT_HID
6
HIDDEN
10
1.070195
20
0.426336
30
0.0
11
1.072202
21
0.426307
31
0.0
0
LINE
8
LEFT_HID
6
HIDDEN
10
1.072202
20
0.426307
30
0.0
11
1.074210
21
0.426275
31
0.0
0
LINE
8
LEFT_HID
6
HIDDEN
10
1.074210
20
0.426275
30
0.0
11
1.076217
21
0.426241
31
0.0
0
LINE
8
LEFT_HID
6
HIDDEN
10
1.076217
20
0.426241
30
0.0
11
1.078225
21
0.426204
31
0.0
0
LINE
8
LEFT_HID
6
HIDDEN
10
1.078225
20
0.426204
30
0.0
11
1.080232
21
0.426163
31
0.0
0
LINE
8
LEFT_HID
6
HIDDEN
10
1.080232
20
0.426163
30
0.0
11
1.082240
21
0.426119
31
0.0
0
LINE
8
LEFT_HID
6
HIDDEN
10
1.082240
20
0.426119
30
0.0
11
1.084247
21
0.426071
31
0.0
0
LINE
8
LEFT_HID
6
HIDDEN
10
1.084247
20
0.426071
30
0.0
11
1.086254
21
0.426018
31
0.0
0
LINE
8
LEFT_HID
6
HIDDEN
10
1.086254
20
0.426018
30
0.0
11
1.088261
21
0.425960
31
0.0
0
LINE
8
LEFT_HID
6
HIDDEN
10
1.088261
20
0.425960
30
0.0
11
1.090268
21
0.425895
31
0.0
0
LINE
8
LEFT_HID
6
HIDDEN
10
1.090268
20
0.425895
30
0.0
11
1.092274
21
0.425823
31
0.0
0
LINE
8
LEFT_HID
6
HIDDEN
10
1.092274
20
0.425823
30
0.0
11
1.094280
21
0.425740
31
0.0
0
LINE
8
LEFT_HID
6
HIDDEN
10
1.094280
20
0.425740
30
0.0
11
1.096286
21
0.425644
31
0.0
0
LINE
8
LEFT_HID
6
HIDDEN
10
1.096286
20
0.425644
30
0.0
11
1.098290
21
0.425527
31
0.0
0
LINE
8
LEFT_HID
6
HIDDEN
10
1.098290
20
0.425527
30
0.0
11
1.100291
21
0.425369
31
0.0
0
LINE
8
LEFT_HID
6
HIDDEN
10
1.100291
20
0.425369
30
0.0
11
1.102233
21
0.424987
31
0.0
0
LINE
8
LEFT_HID
6
HIDDEN
10
1.102233
20
0.424987
30
0.0
11
1.101313
21
0.424724
31
0.0
0
LINE
8
LEFT_HID
6
HIDDEN
10
1.101313
20
0.424724
30
0.0
11
1.100340
21
0.424611
31
0.0
0
LINE
8
LEFT_HID
6
HIDDEN
10
1.100340
20
0.424611
30
0.0
11
1.099365
21
0.424526
31
0.0
0
LINE
8
LEFT_HID
6
HIDDEN
10
1.099365
20
0.424526
30
0.0
11
1.098388
21
0.424455
31
0.0
0
LINE
8
LEFT_HID
6
HIDDEN
10
1.098388
20
0.424455
30
0.0
11
1.097411
21
0.424393
31
0.0
0
LINE
8
LEFT_HID
6
HIDDEN
10
1.097411
20
0.424393
30
0.0
11
1.096433
21
0.424339
31
0.0
0
LINE
8
LEFT_HID
6
HIDDEN
10
1.096433
20
0.424339
30
0.0
11
1.095455
21
0.424289
31
0.0
0
LINE
8
LEFT_HID
6
HIDDEN
10
1.095455
20
0.424289
30
0.0
11
1.094477
21
0.424243
31
0.0
0
LINE
8
LEFT_HID
6
HIDDEN
10
1.094477
20
0.424243
30
0.0
11
1.093498
21
0.424201
31
0.0
0
LINE
8
LEFT_HID
6
HIDDEN
10
1.093498
20
0.424201
30
0.0
11
1.092520
21
0.424162
31
0.0
0
LINE
8
LEFT_HID
6
HIDDEN
10
1.092520
20
0.424162
30
0.0
11
1.091541
21
0.424125
31
0.0
0
LINE
8
LEFT_HID
6
HIDDEN
10
1.091541
20
0.424125
30
0.0
11
1.090563
21
0.424090
31
0.0
0
LINE
8
LEFT_HID
6
HIDDEN
10
1.090563
20
0.424090
30
0.0
11
1.089584
21
0.424057
31
0.0
0
LINE
8
LEFT_HID
6
HIDDEN
10
1.089584
20
0.424057
30
0.0
11
1.088605
21
0.424026
31
0.0
0
LINE
8
LEFT_HID
6
HIDDEN
10
1.088605
20
0.424026
30
0.0
11
1.087626
21
0.423996
31
0.0
0
LINE
8
LEFT_HID
6
HIDDEN
10
1.087626
20
0.423996
30
0.0
11
1.086647
21
0.423968
31
0.0
0
LINE
8
LEFT_HID
6
HIDDEN
10
1.086647
20
0.423968
30
0.0
11
1.085668
21
0.423941
31
0.0
0
LINE
8
LEFT_HID
6
HIDDEN
10
1.085668
20
0.423941
30
0.0
11
1.084689
21
0.423915
31
0.0
0
LINE
8
LEFT_HID
6
HIDDEN
10
1.084689
20
0.423915
30
0.0
11
1.083710
21
0.423891
31
0.0
0
LINE
8
LEFT_HID
6
HIDDEN
10
1.083710
20
0.423891
30
0.0
11
1.082731
21
0.423867
31
0.0
0
LINE
8
LEFT_HID
6
HIDDEN
10
1.082731
20
0.423867
30
0.0
11
1.081752
21
0.423845
31
0.0
0
LINE
8
LEFT_HID
6
HIDDEN
10
1.081752
20
0.423845
30
0.0
11
1.080773
21
0.423823
31
0.0
0
LINE
8
LEFT_HID
6
HIDDEN
10
1.080773
20
0.423823
30
0.0
11
1.079794
21
0.423803
31
0.0
0
LINE
8
LEFT_HID
6
HIDDEN
10
1.079794
20
0.423803
30
0.0
11
1.078815
21
0.423783
31
0.0
0
LINE
8
LEFT_HID
6
HIDDEN
10
1.078815
20
0.423783
30
0.0
11
1.077836
21
0.423764
31
0.0
0
LINE
8
LEFT_HID
6
HIDDEN
10
1.077836
20
0.423764
30
0.0
11
1.076857
21
0.423745
31
0.0
0
LINE
8
LEFT_HID
6
HIDDEN
10
1.076857
20
0.423745
30
0.0
11
1.075878
21
0.423728
31
0.0
0
LINE
8
LEFT_HID
6
HIDDEN
10
1.075878
20
0.423728
30
0.0
11
1.074899
21
0.423711
31
0.0
0
LINE
8
LEFT_HID
6
HIDDEN
10
1.074899
20
0.423711
30
0.0
11
1.073920
21
0.423695
31
0.0
0
LINE
8
LEFT_HID
6
HIDDEN
10
1.073920
20
0.423695
30
0.0
11
1.072940
21
0.423679
31
0.0
0
LINE
8
LEFT_HID
6
HIDDEN
10
1.072940
20
0.423679
30
0.0
11
1.071961
21
0.423664
31
0.0
0
LINE
8
LEFT_HID
6
HIDDEN
10
1.071961
20
0.423664
30
0.0
11
1.070982
21
0.423650
31
0.0
0
LINE
8
LEFT_HID
6
HIDDEN
10
1.070982
20
0.423650
30
0.0
11
1.070003
21
0.423636
31
0.0
0
LINE
8
LEFT_HID
6
HIDDEN
10
1.070003
20
0.423636
30
0.0
11
1.069024
21
0.423623
31
0.0
0
LINE
8
LEFT_HID
6
HIDDEN
10
1.069024
20
0.423623
30
0.0
11
1.068044
21
0.423610
31
0.0
0
LINE
8
LEFT_HID
6
HIDDEN
10
1.068044
20
0.423610
30
0.0
11
1.067065
21
0.423598
31
0.0
0
LINE
8
LEFT_HID
6
HIDDEN
10
1.067065
20
0.423598
30
0.0
11
1.066086
21
0.423586
31
0.0
0
LINE
8
LEFT_HID
6
HIDDEN
10
1.066086
20
0.423586
30
0.0
11
1.065107
21
0.423575
31
0.0
0
LINE
8
LEFT_HID
6
HIDDEN
10
1.065107
20
0.423575
30
0.0
11
1.064128
21
0.423565
31
0.0
0
LINE
8
LEFT_HID
6
HIDDEN
10
1.064128
20
0.423565
30
0.0
11
1.063148
21
0.423555
31
0.0
0
LINE
8
LEFT_HID
6
HIDDEN
10
1.063148
20
0.423555
30
0.0
11
1.062169
21
0.423545
31
0.0
0
LINE
8
LEFT_HID
6
HIDDEN
10
1.062169
20
0.423545
30
0.0
11
1.061190
21
0.423536
31
0.0
0
LINE
8
LEFT_HID
6
HIDDEN
10
1.061190
20
0.423536
30
0.0
11
1.060211
21
0.423527
31
0.0
0
LINE
8
LEFT_HID
6
HIDDEN
10
1.060211
20
0.423527
30
0.0
11
1.059231
21
0.423519
31
0.0
0
LINE
8
LEFT_HID
6
HIDDEN
10
1.059231
20
0.423519
30
0.0
11
1.058252
21
0.423511
31
0.0
0
LINE
8
LEFT_HID
6
HIDDEN
10
1.058252
20
0.423511
30
0.0
11
1.057273
21
0.423503
31
0.0
0
LINE
8
LEFT_HID
6
HIDDEN
10
1.057273
20
0.423503
30
0.0
11
1.056293
21
0.423496
31
0.0
0
LINE
8
LEFT_HID
6
HIDDEN
10
1.056293
20
0.423496
30
0.0
11
1.055314
21
0.423490
31
0.0
0
LINE
8
LEFT_HID
6
HIDDEN
10
1.055314
20
0.423490
30
0.0
11
1.054335
21
0.423483
31
0.0
0
LINE
8
LEFT_HID
6
HIDDEN
10
1.054335
20
0.423483
30
0.0
11
1.053356
21
0.423478
31
0.0
0
LINE
8
LEFT_HID
6
HIDDEN
10
1.053356
20
0.423478
30
0.0
11
1.052376
21
0.423472
31
0.0
0
LINE
8
LEFT_HID
6
HIDDEN
10
1.052376
20
0.423472
30
0.0
11
1.051397
21
0.423467
31
0.0
0
LINE
8
LEFT_HID
6
HIDDEN
10
1.051397
20
0.423467
30
0.0
11
1.050418
21
0.423463
31
0.0
0
LINE
8
LEFT_HID
6
HIDDEN
10
1.050418
20
0.423463
30
0.0
11
1.049439
21
0.423459
31
0.0
0
LINE
8
LEFT_HID
6
HIDDEN
10
1.049439
20
0.423459
30
0.0
11
1.048459
21
0.423455
31
0.0
0
LINE
8
LEFT_HID
6
HIDDEN
10
1.048459
20
0.423455
30
0.0
11
1.047480
21
0.423451
31
0.0
0
LINE
8
LEFT_HID
6
HIDDEN
10
1.047480
20
0.423451
30
0.0
11
1.046501
21
0.423448
31
0.0
0
LINE
8
LEFT_HID
6
HIDDEN
10
1.046501
20
0.423448
30
0.0
11
1.045521
21
0.423446
31
0.0
0
LINE
8
LEFT_HID
6
HIDDEN
10
1.045521
20
0.423446
30
0.0
11
1.044542
21
0.423443
31
0.0
0
LINE
8
LEFT_HID
6
HIDDEN
10
1.044542
20
0.423443
30
0.0
11
1.043563
21
0.423441
31
0.0
0
LINE
8
LEFT_HID
6
HIDDEN
10
1.043563
20
0.423441
30
0.0
11
1.042584
21
0.423440
31
0.0
0
LINE
8
LEFT_HID
6
HIDDEN
10
1.042584
20
0.423440
30
0.0
11
1.041604
21
0.423439
31
0.0
0
LINE
8
LEFT_HID
6
HIDDEN
10
1.041604
20
0.423439
30
0.0
11
1.040625
21
0.423438
31
0.0
0
LINE
8
LEFT_HID
6
HIDDEN
10
0.975917
20
1.049799
30
0.0
11
0.975917
21
0.424987
31
0.0
0
LINE
8
LEFT_HID
6
HIDDEN
10
1.102233
20
1.049799
30
0.0
11
1.102233
21
0.424987
31
0.0
0
LINE
8
TOP
10
0.750000
20
0.000000
30
0.0
11
0.750000
21
0.273438
31
0.0
0
LINE
8
TOP
10
0.000000
20
0.000000
30
0.0
11
0.000000
21
0.273438
31
0.0
0
LINE
8
TOP
10
0.750000
20
0.000000
30
0.0
11
0.655263
21
0.000000
31
0.0
0
LINE
8
TOP
10
0.655263
20
0.000000
30
0.0
11
0.000000
21
0.000000
31
0.0
0
LINE
8
TOP
10
0.750000
20
0.273438
30
0.0
11
0.655263
21
0.273438
31
0.0
0
LINE
8
TOP
10
0.655263
20
0.273438
30
0.0
11
0.000000
21
0.273437
31
0.0
0
LINE
8
TOP
10
0.655263
20
0.000000
30
0.0
11
0.655263
21
0.273438
31
0.0
0
LINE
8
TOP_HID
6
HIDDEN
10
0.000000
20
0.273438
30
0.0
11
0.750000
21
0.273438
31
0.0
0
LINE
8
TOP_HID
6
HIDDEN
10
0.000000
20
0.000000
30
0.0
11
0.750000
21
0.000000
31
0.0
0
LINE
8
TOP_HID
6
HIDDEN
10
0.312481
20
0.134362
30
0.0
11
0.312500
21
0.135912
31
0.0
0
LINE
8
TOP_HID
6
HIDDEN
10
0.297143
20
0.134362
30
0.0
11
0.297162
21
0.135937
31
0.0
0
LINE
8
TOP_HID
6
HIDDEN
10
0.297162
20
0.135937
30
0.0
11
0.297221
21
0.137510
31
0.0
0
LINE
8
TOP_HID
6
HIDDEN
10
0.297221
20
0.137510
30
0.0
11
0.297319
21
0.139082
31
0.0
0
LINE
8
TOP_HID
6
HIDDEN
10
0.297319
20
0.139082
30
0.0
11
0.297456
21
0.140650
31
0.0
0
LINE
8
TOP_HID
6
HIDDEN
10
0.297456
20
0.140650
30
0.0
11
0.297633
21
0.142215
31
0.0
0
LINE
8
TOP_HID
6
HIDDEN
10
0.297633
20
0.142215
30
0.0
11
0.297848
21
0.143774
31
0.0
0
LINE
8
TOP_HID
6
HIDDEN
10
0.297848
20
0.143774
30
0.0
11
0.298102
21
0.145328
31
0.0
0
LINE
8
TOP_HID
6
HIDDEN
10
0.298102
20
0.145328
30
0.0
11
0.298394
21
0.146875
31
0.0
0
LINE
8
TOP_HID
6
HIDDEN
10
0.298394
20
0.146875
30
0.0
11
0.298725
21
0.148414
31
0.0
0
LINE
8
TOP_HID
6
HIDDEN
10
0.298725
20
0.148414
30
0.0
11
0.299095
21
0.149945
31
0.0
0
LINE
8
TOP_HID
6
HIDDEN
10
0.299095
20
0.149945
30
0.0
11
0.299502
21
0.151466
31
0.0
0
LINE
8
TOP_HID
6
HIDDEN
10
0.299502
20
0.151466
30
0.0
11
0.299947
21
0.152976
31
0.0
0
LINE
8
TOP_HID
6
HIDDEN
10
0.299947
20
0.152976
30
0.0
11
0.300430
21
0.154475
31
0.0
0
LINE
8
TOP_HID
6
HIDDEN
10
0.300430
20
0.154475
30
0.0
11
0.300949
21
0.155961
31
0.0
0
LINE
8
TOP_HID
6
HIDDEN
10
0.300949
20
0.155961
30
0.0
11
0.301506
21
0.157434
31
0.0
0
LINE
8
TOP_HID
6
HIDDEN
10
0.301506
20
0.157434
30
0.0
11
0.302099
21
0.158892
31
0.0
0
LINE
8
TOP_HID
6
HIDDEN
10
0.302099
20
0.158892
30
0.0
11
0.302729
21
0.160335
31
0.0
0
LINE
8
TOP_HID
6
HIDDEN
10
0.302729
20
0.160335
30
0.0
11
0.303394
21
0.161762
31
0.0
0
LINE
8
TOP_HID
6
HIDDEN
10
0.303394
20
0.161762
30
0.0
11
0.304094
21
0.163172
31
0.0
0
LINE
8
TOP_HID
6
HIDDEN
10
0.304094
20
0.163172
30
0.0
11
0.304830
21
0.164564
31
0.0
0
LINE
8
TOP_HID
6
HIDDEN
10
0.304830
20
0.164564
30
0.0
11
0.305600
21
0.165938
31
0.0
0
LINE
8
TOP_HID
6
HIDDEN
10
0.305600
20
0.165938
30
0.0
11
0.306404
21
0.167292
31
0.0
0
LINE
8
TOP_HID
6
HIDDEN
10
0.306404
20
0.167292
30
0.0
11
0.307241
21
0.168625
31
0.0
0
LINE
8
TOP_HID
6
HIDDEN
10
0.307241
20
0.168625
30
0.0
11
0.308111
21
0.169937
31
0.0
0
LINE
8
TOP_HID
6
HIDDEN
10
0.308111
20
0.169937
30
0.0
11
0.309014
21
0.171227
31
0.0
0
LINE
8
TOP_HID
6
HIDDEN
10
0.309014
20
0.171227
30
0.0
11
0.309949
21
0.172494
31
0.0
0
LINE
8
TOP_HID
6
HIDDEN
10
0.309949
20
0.172494
30
0.0
11
0.310915
21
0.173737
31
0.0
0
LINE
8
TOP_HID
6
HIDDEN
10
0.310915
20
0.173737
30
0.0
11
0.311911
21
0.174956
31
0.0
0
LINE
8
TOP_HID
6
HIDDEN
10
0.311911
20
0.174956
30
0.0
11
0.312938
21
0.176150
31
0.0
0
LINE
8
TOP_HID
6
HIDDEN
10
0.312938
20
0.176150
30
0.0
11
0.313994
21
0.177317
31
0.0
0
LINE
8
TOP_HID
6
HIDDEN
10
0.313994
20
0.177317
30
0.0
11
0.315079
21
0.178458
31
0.0
0
LINE
8
TOP_HID
6
HIDDEN
10
0.315079
20
0.178458
30
0.0
11
0.316192
21
0.179572
31
0.0
0
LINE
8
TOP_HID
6
HIDDEN
10
0.316192
20
0.179572
30
0.0
11
0.317333
21
0.180657
31
0.0
0
LINE
8
TOP_HID
6
HIDDEN
10
0.317333
20
0.180657
30
0.0
11
0.318500
21
0.181714
31
0.0
0
LINE
8
TOP_HID
6
HIDDEN
10
0.318500
20
0.181714
30
0.0
11
0.319693
21
0.182741
31
0.0
0
LINE
8
TOP_HID
6
HIDDEN
10
0.319693
20
0.182741
30
0.0
11
0.320912
21
0.183738
31
0.0
0
LINE
8
TOP_HID
6
HIDDEN
10
0.320912
20
0.183738
30
0.0
11
0.322154
21
0.184705
31
0.0
0
LINE
8
TOP_HID
6
HIDDEN
10
0.322154
20
0.184705
30
0.0
11
0.323421
21
0.185640
31
0.0
0
LINE
8
TOP_HID
6
HIDDEN
10
0.323421
20
0.185640
30
0.0
11
0.324711
21
0.186543
31
0.0
0
LINE
8
TOP_HID
6
HIDDEN
10
0.324711
20
0.186543
30
0.0
11
0.326022
21
0.187414
31
0.0
0
LINE
8
TOP_HID
6
HIDDEN
10
0.326022
20
0.187414
30
0.0
11
0.327355
21
0.188252
31
0.0
0
LINE
8
TOP_HID
6
HIDDEN
10
0.327355
20
0.188252
30
0.0
11
0.328709
21
0.189057
31
0.0
0
LINE
8
TOP_HID
6
HIDDEN
10
0.328709
20
0.189057
30
0.0
11
0.330082
21
0.189827
31
0.0
0
LINE
8
TOP_HID
6
HIDDEN
10
0.330082
20
0.189827
30
0.0
11
0.331474
21
0.190563
31
0.0
0
LINE
8
TOP_HID
6
HIDDEN
10
0.331474
20
0.190563
30
0.0
11
0.332883
21
0.191264
31
0.0
0
LINE
8
TOP_HID
6
HIDDEN
10
0.332883
20
0.191264
30
0.0
11
0.334310
21
0.191930
31
0.0
0
LINE
8
TOP_HID
6
HIDDEN
10
0.334310
20
0.191930
30
0.0
11
0.335753
21
0.192560
31
0.0
0
LINE
8
TOP_HID
6
HIDDEN
10
0.335753
20
0.192560
30
0.0
11
0.337211
21
0.193153
31
0.0
0
LINE
8
TOP_HID
6
HIDDEN
10
0.337211
20
0.193153
30
0.0
11
0.338684
21
0.193710
31
0.0
0
LINE
8
TOP_HID
6
HIDDEN
10
0.338684
20
0.193710
30
0.0
11
0.340170
21
0.194231
31
0.0
0
LINE
8
TOP_HID
6
HIDDEN
10
0.340170
20
0.194231
30
0.0
11
0.341669
21
0.194714
31
0.0
0
LINE
8
TOP_HID
6
HIDDEN
10
0.341669
20
0.194714
30
0.0
11
0.343179
21
0.195159
31
0.0
0
LINE
8
TOP_HID
6
HIDDEN
10
0.343179
20
0.195159
30
0.0
11
0.344699
21
0.195567
31
0.0
0
LINE
8
TOP_HID
6
HIDDEN
10
0.344699
20
0.195567
30
0.0
11
0.346230
21
0.195936
31
0.0
0
LINE
8
TOP_HID
6
HIDDEN
10
0.346230
20
0.195936
30
0.0
11
0.347769
21
0.196268
31
0.0
0
LINE
8
TOP_HID
6
HIDDEN
10
0.347769
20
0.196268
30
0.0
11
0.349316
21
0.196561
31
0.0
0
LINE
8
TOP_HID
6
HIDDEN
10
0.349316
20
0.196561
30
0.0
11
0.350870
21
0.196815
31
0.0
0
LINE
8
TOP_HID
6
HIDDEN
10
0.350870
20
0.196815
30
0.0
11
0.352430
21
0.197030
31
0.0
0
LINE
8
TOP_HID
6
HIDDEN
10
0.352430
20
0.197030
30
0.0
11
0.353994
21
0.197206
31
0.0
0
LINE
8
TOP_HID
6
HIDDEN
10
0.353994
20
0.197206
30
0.0
11
0.355563
21
0.197344
31
0.0
0
LINE
8
TOP_HID
6
HIDDEN
10
0.355563
20
0.197344
30
0.0
11
0.357134
21
0.197442
31
0.0
0
LINE
8
TOP_HID
6
HIDDEN
10
0.357134
20
0.197442
30
0.0
11
0.358707
21
0.197501
31
0.0
0
LINE
8
TOP_HID
6
HIDDEN
10
0.358707
20
0.197501
30
0.0
11
0.360282
21
0.197520
31
0.0
0
LINE
8
TOP_HID
6
HIDDEN
10
0.360282
20
0.197520
30
0.0
11
0.363429
21
0.197442
31
0.0
0
LINE
8
TOP_HID
6
HIDDEN
10
0.363429
20
0.197442
30
0.0
11
0.366569
21
0.197206
31
0.0
0
LINE
8
TOP_HID
6
HIDDEN
10
0.366569
20
0.197206
30
0.0
11
0.369693
21
0.196815
31
0.0
0
LINE
8
TOP_HID
6
HIDDEN
10
0.369693
20
0.196815
30
0.0
11
0.372794
21
0.196268
31
0.0
0
LINE
8
TOP_HID
6
HIDDEN
10
0.372794
20
0.196268
30
0.0
11
0.375864
21
0.195567
31
0.0
0
LINE
8
TOP_HID
6
HIDDEN
10
0.375864
20
0.195567
30
0.0
11
0.378895
21
0.194714
31
0.0
0
LINE
8
TOP_HID
6
HIDDEN
10
0.378895
20
0.194714
30
0.0
11
0.381879
21
0.193710
31
0.0
0
LINE
8
TOP_HID
6
HIDDEN
10
0.381879
20
0.193710
30
0.0
11
0.384810
21
0.192560
31
0.0
0
LINE
8
TOP_HID
6
HIDDEN
10
0.384810
20
0.192560
30
0.0
11
0.387680
21
0.191264
31
0.0
0
LINE
8
TOP_HID
6
HIDDEN
10
0.387680
20
0.191264
30
0.0
11
0.390482
21
0.189827
31
0.0
0
LINE
8
TOP_HID
6
HIDDEN
10
0.390482
20
0.189827
30
0.0
11
0.393208
21
0.188252
31
0.0
0
LINE
8
TOP_HID
6
HIDDEN
10
0.393208
20
0.188252
30
0.0
11
0.395853
21
0.186543
31
0.0
0
LINE
8
TOP_HID
6
HIDDEN
10
0.395853
20
0.186543
30
0.0
11
0.398409
21
0.184705
31
0.0
0
LINE
8
TOP_HID
6
HIDDEN
10
0.398409
20
0.184705
30
0.0
11
0.400870
21
0.182741
31
0.0
0
LINE
8
TOP_HID
6
HIDDEN
10
0.400870
20
0.182741
30
0.0
11
0.403230
21
0.180657
31
0.0
0
LINE
8
TOP_HID
6
HIDDEN
10
0.403230
20
0.180657
30
0.0
11
0.405484
21
0.178458
31
0.0
0
LINE
8
TOP_HID
6
HIDDEN
10
0.405484
20
0.178458
30
0.0
11
0.407625
21
0.176150
31
0.0
0
LINE
8
TOP_HID
6
HIDDEN
10
0.407625
20
0.176150
30
0.0
11
0.409648
21
0.173737
31
0.0
0
LINE
8
TOP_HID
6
HIDDEN
10
0.409648
20
0.173737
30
0.0
11
0.411549
21
0.171227
31
0.0
0
LINE
8
TOP_HID
6
HIDDEN
10
0.411549
20
0.171227
30
0.0
11
0.413322
21
0.168625
31
0.0
0
LINE
8
TOP_HID
6
HIDDEN
10
0.413322
20
0.168625
30
0.0
11
0.414964
21
0.165938
31
0.0
0
LINE
8
TOP_HID
6
HIDDEN
10
0.414964
20
0.165938
30
0.0
11
0.416469
21
0.163172
31
0.0
0
LINE
8
TOP_HID
6
HIDDEN
10
0.416469
20
0.163172
30
0.0
11
0.417835
21
0.160335
31
0.0
0
LINE
8
TOP_HID
6
HIDDEN
10
0.417835
20
0.160335
30
0.0
11
0.419057
21
0.157434
31
0.0
0
LINE
8
TOP_HID
6
HIDDEN
10
0.419057
20
0.157434
30
0.0
11
0.420134
21
0.154475
31
0.0
0
LINE
8
TOP_HID
6
HIDDEN
10
0.420134
20
0.154475
30
0.0
11
0.421061
21
0.151466
31
0.0
0
LINE
8
TOP_HID
6
HIDDEN
10
0.421061
20
0.151466
30
0.0
11
0.421838
21
0.148414
31
0.0
0
LINE
8
TOP_HID
6
HIDDEN
10
0.421838
20
0.148414
30
0.0
11
0.422462
21
0.145328
31
0.0
0
LINE
8
TOP_HID
6
HIDDEN
10
0.422462
20
0.145328
30
0.0
11
0.422931
21
0.142215
31
0.0
0
LINE
8
TOP_HID
6
HIDDEN
10
0.422931
20
0.142215
30
0.0
11
0.423244
21
0.139082
31
0.0
0
LINE
8
TOP_HID
6
HIDDEN
10
0.423244
20
0.139082
30
0.0
11
0.423401
21
0.135937
31
0.0
0
LINE
8
TOP_HID
6
HIDDEN
10
0.423401
20
0.135937
30
0.0
11
0.423401
21
0.132788
31
0.0
0
LINE
8
TOP_HID
6
HIDDEN
10
0.423401
20
0.132788
30
0.0
11
0.423244
21
0.129643
31
0.0
0
LINE
8
TOP_HID
6
HIDDEN
10
0.423244
20
0.129643
30
0.0
11
0.422931
21
0.126510
31
0.0
0
LINE
8
TOP_HID
6
HIDDEN
10
0.422931
20
0.126510
30
0.0
11
0.422462
21
0.123397
31
0.0
0
LINE
8
TOP_HID
6
HIDDEN
10
0.422462
20
0.123397
30
0.0
11
0.421838
21
0.120311
31
0.0
0
LINE
8
TOP_HID
6
HIDDEN
10
0.421838
20
0.120311
30
0.0
11
0.421061
21
0.117259
31
0.0
0
LINE
8
TOP_HID
6
HIDDEN
10
0.421061
20
0.117259
30
0.0
11
0.420134
21
0.114250
31
0.0
0
LINE
8
TOP_HID
6
HIDDEN
10
0.420134
20
0.114250
30
0.0
11
0.419057
21
0.111291
31
0.0
0
LINE
8
TOP_HID
6
HIDDEN
10
0.419057
20
0.111291
30
0.0
11
0.417835
21
0.108390
31
0.0
0
LINE
8
TOP_HID
6
HIDDEN
10
0.417835
20
0.108390
30
0.0
11
0.416469
21
0.105553
31
0.0
0
LINE
8
TOP_HID
6
HIDDEN
10
0.416469
20
0.105553
30
0.0
11
0.414964
21
0.102787
31
0.0
0
LINE
8
TOP_HID
6
HIDDEN
10
0.414964
20
0.102787
30
0.0
11
0.413322
21
0.100100
31
0.0
0
LINE
8
TOP_HID
6
HIDDEN
10
0.413322
20
0.100100
30
0.0
11
0.411549
21
0.097498
31
0.0
0
LINE
8
TOP_HID
6
HIDDEN
10
0.411549
20
0.097498
30
0.0
11
0.409648
21
0.094988
31
0.0
0
LINE
8
TOP_HID
6
HIDDEN
10
0.409648
20
0.094988
30
0.0
11
0.407625
21
0.092575
31
0.0
0
LINE
8
TOP_HID
6
HIDDEN
10
0.407625
20
0.092575
30
0.0
11
0.405484
21
0.090267
31
0.0
0
LINE
8
TOP_HID
6
HIDDEN
10
0.405484
20
0.090267
30
0.0
11
0.403230
21
0.088068
31
0.0
0
LINE
8
TOP_HID
6
HIDDEN
10
0.403230
20
0.088068
30
0.0
11
0.400870
21
0.085984
31
0.0
0
LINE
8
TOP_HID
6
HIDDEN
10
0.400870
20
0.085984
30
0.0
11
0.398409
21
0.084020
31
0.0
0
LINE
8
TOP_HID
6
HIDDEN
10
0.398409
20
0.084020
30
0.0
11
0.395853
21
0.082181
31
0.0
0
LINE
8
TOP_HID
6
HIDDEN
10
0.395853
20
0.082181
30
0.0
11
0.393208
21
0.080473
31
0.0
0
LINE
8
TOP_HID
6
HIDDEN
10
0.393208
20
0.080473
30
0.0
11
0.390482
21
0.078898
31
0.0
0
LINE
8
TOP_HID
6
HIDDEN
10
0.390482
20
0.078898
30
0.0
11
0.387680
21
0.077461
31
0.0
0
LINE
8
TOP_HID
6
HIDDEN
10
0.387680
20
0.077461
30
0.0
11
0.384810
21
0.076165
31
0.0
0
LINE
8
TOP_HID
6
HIDDEN
10
0.384810
20
0.076165
30
0.0
11
0.381879
21
0.075015
31
0.0
0
LINE
8
TOP_HID
6
HIDDEN
10
0.381879
20
0.075015
30
0.0
11
0.378895
21
0.074011
31
0.0
0
LINE
8
TOP_HID
6
HIDDEN
10
0.378895
20
0.074011
30
0.0
11
0.375864
21
0.073158
31
0.0
0
LINE
8
TOP_HID
6
HIDDEN
10
0.375864
20
0.073158
30
0.0
11
0.372794
21
0.072457
31
0.0
0
LINE
8
TOP_HID
6
HIDDEN
10
0.372794
20
0.072457
30
0.0
11
0.369693
21
0.071910
31
0.0
0
LINE
8
TOP_HID
6
HIDDEN
10
0.369693
20
0.071910
30
0.0
11
0.366569
21
0.071519
31
0.0
0
LINE
8
TOP_HID
6
HIDDEN
10
0.366569
20
0.071519
30
0.0
11
0.363429
21
0.071283
31
0.0
0
LINE
8
TOP_HID
6
HIDDEN
10
0.363429
20
0.071283
30
0.0
11
0.360282
21
0.071205
31
0.0
0
LINE
8
TOP_HID
6
HIDDEN
10
0.360282
20
0.071205
30
0.0
11
0.358707
21
0.071224
31
0.0
0
LINE
8
TOP_HID
6
HIDDEN
10
0.358707
20
0.071224
30
0.0
11
0.357134
21
0.071283
31
0.0
0
LINE
8
TOP_HID
6
HIDDEN
10
0.357134
20
0.071283
30
0.0
11
0.355563
21
0.071381
31
0.0
0
LINE
8
TOP_HID
6
HIDDEN
10
0.355563
20
0.071381
30
0.0
11
0.353994
21
0.071519
31
0.0
0
LINE
8
TOP_HID
6
HIDDEN
10
0.353994
20
0.071519
30
0.0
11
0.352430
21
0.071695
31
0.0
0
LINE
8
TOP_HID
6
HIDDEN
10
0.352430
20
0.071695
30
0.0
11
0.350870
21
0.071910
31
0.0
0
LINE
8
TOP_HID
6
HIDDEN
10
0.350870
20
0.071910
30
0.0
11
0.349316
21
0.072164
31
0.0
0
LINE
8
TOP_HID
6
HIDDEN
10
0.349316
20
0.072164
30
0.0
11
0.347769
21
0.072457
31
0.0
0
LINE
8
TOP_HID
6
HIDDEN
10
0.347769
20
0.072457
30
0.0
11
0.346230
21
0.072789
31
0.0
0
LINE
8
TOP_HID
6
HIDDEN
10
0.346230
20
0.072789
30
0.0
11
0.344699
21
0.073158
31
0.0
0
LINE
8
TOP_HID
6
HIDDEN
10
0.344699
20
0.073158
30
0.0
11
0.343179
21
0.073566
31
0.0
0
LINE
8
TOP_HID
6
HIDDEN
10
0.343179
20
0.073566
30
0.0
11
0.341669
21
0.074011
31
0.0
0
LINE
8
TOP_HID
6
HIDDEN
10
0.341669
20
0.074011
30
0.0
11
0.340170
21
0.074494
31
0.0
0
LINE
8
TOP_HID
6
HIDDEN
10
0.340170
20
0.074494
30
0.0
11
0.338684
21
0.075015
31
0.0
0
LINE
8
TOP_HID
6
HIDDEN
10
0.338684
20
0.075015
30
0.0
11
0.337211
21
0.075572
31
0.0
0
LINE
8
TOP_HID
6
HIDDEN
10
0.337211
20
0.075572
30
0.0
11
0.335753
21
0.076165
31
0.0
0
LINE
8
TOP_HID
6
HIDDEN
10
0.335753
20
0.076165
30
0.0
11
0.334310
21
0.076795
31
0.0
0
LINE
8
TOP_HID
6
HIDDEN
10
0.334310
20
0.076795
30
0.0
11
0.332883
21
0.077461
31
0.0
0
LINE
8
TOP_HID
6
HIDDEN
10
0.332883
20
0.077461
30
0.0
11
0.331474
21
0.078162
31
0.0
0
LINE
8
TOP_HID
6
HIDDEN
10
0.331474
20
0.078162
30
0.0
11
0.330082
21
0.078898
31
0.0
0
LINE
8
TOP_HID
6
HIDDEN
10
0.330082
20
0.078898
30
0.0
11
0.328709
21
0.079668
31
0.0
0
LINE
8
TOP_HID
6
HIDDEN
10
0.328709
20
0.079668
30
0.0
11
0.327355
21
0.080473
31
0.0
0
LINE
8
TOP_HID
6
HIDDEN
10
0.327355
20
0.080473
30
0.0
11
0.326022
21
0.081311
31
0.0
0
LINE
8
TOP_HID
6
HIDDEN
10
0.326022
20
0.081311
30
0.0
11
0.324711
21
0.082181
31
0.0
0
LINE
8
TOP_HID
6
HIDDEN
10
0.324711
20
0.082181
30
0.0
11
0.323421
21
0.083085
31
0.0
0
LINE
8
TOP_HID
6
HIDDEN
10
0.323421
20
0.083085
30
0.0
11
0.322154
21
0.084020
31
0.0
0
LINE
8
TOP_HID
6
HIDDEN
10
0.322154
20
0.084020
30
0.0
11
0.320912
21
0.084987
31
0.0
0
LINE
8
TOP_HID
6
HIDDEN
10
0.320912
20
0.084987
30
0.0
11
0.319693
21
0.085984
31
0.0
0
LINE
8
TOP_HID
6
HIDDEN
10
0.319693
20
0.085984
30
0.0
11
0.318500
21
0.087011
31
0.0
0
LINE
8
TOP_HID
6
HIDDEN
10
0.318500
20
0.087011
30
0.0
11
0.317333
21
0.088068
31
0.0
0
LINE
8
TOP_HID
6
HIDDEN
10
0.317333
20
0.088068
30
0.0
11
0.316192
21
0.089153
31
0.0
0
LINE
8
TOP_HID
6
HIDDEN
10
0.316192
20
0.089153
30
0.0
11
0.315079
21
0.090267
31
0.0
0
LINE
8
TOP_HID
6
HIDDEN
10
0.315079
20
0.090267
30
0.0
11
0.313994
21
0.091408
31
0.0
0
LINE
8
TOP_HID
6
HIDDEN
10
0.313994
20
0.091408
30
0.0
11
0.312938
21
0.092575
31
0.0
0
LINE
8
TOP_HID
6
HIDDEN
10
0.312938
20
0.092575
30
0.0
11
0.311911
21
0.093769
31
0.0
0
LINE
8
TOP_HID
6
HIDDEN
10
0.311911
20
0.093769
30
0.0
11
0.310915
21
0.094988
31
0.0
0
LINE
8
TOP_HID
6
HIDDEN
10
0.310915
20
0.094988
30
0.0
11
0.309949
21
0.096231
31
0.0
0
LINE
8
TOP_HID
6
HIDDEN
10
0.309949
20
0.096231
30
0.0
11
0.309014
21
0.097498
31
0.0
0
LINE
8
TOP_HID
6
HIDDEN
10
0.309014
20
0.097498
30
0.0
11
0.308111
21
0.098788
31
0.0
0
LINE
8
TOP_HID
6
HIDDEN
10
0.308111
20
0.098788
30
0.0
11
0.307241
21
0.100100
31
0.0
0
LINE
8
TOP_HID
6
HIDDEN
10
0.307241
20
0.100100
30
0.0
11
0.306404
21
0.101433
31
0.0
0
LINE
8
TOP_HID
6
HIDDEN
10
0.306404
20
0.101433
30
0.0
11
0.305600
21
0.102787
31
0.0
0
LINE
8
TOP_HID
6
HIDDEN
10
0.305600
20
0.102787
30
0.0
11
0.304830
21
0.104160
31
0.0
0
LINE
8
TOP_HID
6
HIDDEN
10
0.304830
20
0.104160
30
0.0
11
0.304094
21
0.105553
31
0.0
0
LINE
8
TOP_HID
6
HIDDEN
10
0.304094
20
0.105553
30
0.0
11
0.303394
21
0.106963
31
0.0
0
LINE
8
TOP_HID
6
HIDDEN
10
0.303394
20
0.106963
30
0.0
11
0.302729
21
0.108390
31
0.0
0
LINE
8
TOP_HID
6
HIDDEN
10
0.302729
20
0.108390
30
0.0
11
0.302099
21
0.109833
31
0.0
0
LINE
8
TOP_HID
6
HIDDEN
10
0.302099
20
0.109833
30
0.0
11
0.301506
21
0.111291
31
0.0
0
LINE
8
TOP_HID
6
HIDDEN
10
0.301506
20
0.111291
30
0.0
11
0.300949
21
0.112764
31
0.0
0
LINE
8
TOP_HID
6
HIDDEN
10
0.300949
20
0.112764
30
0.0
11
0.300430
21
0.114250
31
0.0
0
LINE
8
TOP_HID
6
HIDDEN
10
0.300430
20
0.114250
30
0.0
11
0.299947
21
0.115749
31
0.0
0
LINE
8
TOP_HID
6
HIDDEN
10
0.299947
20
0.115749
30
0.0
11
0.299502
21
0.117259
31
0.0
0
LINE
8
TOP_HID
6
HIDDEN
10
0.299502
20
0.117259
30
0.0
11
0.299095
21
0.118780
31
0.0
0
LINE
8
TOP_HID
6
HIDDEN
10
0.299095
20
0.118780
30
0.0
11
0.298725
21
0.120311
31
0.0
0
LINE
8
TOP_HID
6
HIDDEN
10
0.298725
20
0.120311
30
0.0
11
0.298394
21
0.121850
31
0.0
0
LINE
8
TOP_HID
6
HIDDEN
10
0.298394
20
0.121850
30
0.0
11
0.298102
21
0.123397
31
0.0
0
LINE
8
TOP_HID
6
HIDDEN
10
0.298102
20
0.123397
30
0.0
11
0.297848
21
0.124951
31
0.0
0
LINE
8
TOP_HID
6
HIDDEN
10
0.297848
20
0.124951
30
0.0
11
0.297633
21
0.126510
31
0.0
0
LINE
8
TOP_HID
6
HIDDEN
10
0.297633
20
0.126510
30
0.0
11
0.297456
21
0.128075
31
0.0
0
LINE
8
TOP_HID
6
HIDDEN
10
0.297456
20
0.128075
30
0.0
11
0.297319
21
0.129643
31
0.0
0
LINE
8
TOP_HID
6
HIDDEN
10
0.297319
20
0.129643
30
0.0
11
0.297221
21
0.131215
31
0.0
0
LINE
8
TOP_HID
6
HIDDEN
10
0.297221
20
0.131215
30
0.0
11
0.297162
21
0.132788
31
0.0
0
LINE
8
TOP_HID
6
HIDDEN
10
0.297162
20
0.132788
30
0.0
11
0.297143
21
0.134362
31
0.0
0
LINE
8
TOP_HID
6
HIDDEN
10
0.312500
20
0.132813
30
0.0
11
0.312481
21
0.134362
31
0.0
0
LINE
8
TOP_HID
6
HIDDEN
10
0.312500
20
0.135912
30
0.0
11
0.312557
21
0.137461
31
0.0
0
LINE
8
TOP_HID
6
HIDDEN
10
0.312557
20
0.137461
30
0.0
11
0.312652
21
0.139008
31
0.0
0
LINE
8
TOP_HID
6
HIDDEN
10
0.312652
20
0.139008
30
0.0
11
0.312785
21
0.140552
31
0.0
0
LINE
8
TOP_HID
6
HIDDEN
10
0.312785
20
0.140552
30
0.0
11
0.312956
21
0.142093
31
0.0
0
LINE
8
TOP_HID
6
HIDDEN
10
0.312956
20
0.142093
30
0.0
11
0.313164
21
0.143629
31
0.0
0
LINE
8
TOP_HID
6
HIDDEN
10
0.313164
20
0.143629
30
0.0
11
0.313410
21
0.145159
31
0.0
0
LINE
8
TOP_HID
6
HIDDEN
10
0.313410
20
0.145159
30
0.0
11
0.313694
21
0.146682
31
0.0
0
LINE
8
TOP_HID
6
HIDDEN
10
0.313694
20
0.146682
30
0.0
11
0.314015
21
0.148199
31
0.0
0
LINE
8
TOP_HID
6
HIDDEN
10
0.314015
20
0.148199
30
0.0
11
0.314373
21
0.149707
31
0.0
0
LINE
8
TOP_HID
6
HIDDEN
10
0.314373
20
0.149707
30
0.0
11
0.314768
21
0.151205
31
0.0
0
LINE
8
TOP_HID
6
HIDDEN
10
0.314768
20
0.151205
30
0.0
11
0.315199
21
0.152694
31
0.0
0
LINE
8
TOP_HID
6
HIDDEN
10
0.315199
20
0.152694
30
0.0
11
0.315667
21
0.154171
31
0.0
0
LINE
8
TOP_HID
6
HIDDEN
10
0.315667
20
0.154171
30
0.0
11
0.316171
21
0.155637
31
0.0
0
LINE
8
TOP_HID
6
HIDDEN
10
0.316171
20
0.155637
30
0.0
11
0.316711
21
0.157090
31
0.0
0
LINE
8
TOP_HID
6
HIDDEN
10
0.316711
20
0.157090
30
0.0
11
0.317286
21
0.158529
31
0.0
0
LINE
8
TOP_HID
6
HIDDEN
10
0.317286
20
0.158529
30
0.0
11
0.317896
21
0.159954
31
0.0
0
LINE
8
TOP_HID
6
HIDDEN
10
0.317896
20
0.159954
30
0.0
11
0.318541
21
0.161363
31
0.0
0
LINE
8
TOP_HID
6
HIDDEN
10
0.318541
20
0.161363
30
0.0
11
0.319221
21
0.162756
31
0.0
0
LINE
8
TOP_HID
6
HIDDEN
10
0.319221
20
0.162756
30
0.0
11
0.319935
21
0.164132
31
0.0
0
LINE
8
TOP_HID
6
HIDDEN
10
0.319935
20
0.164132
30
0.0
11
0.320682
21
0.165489
31
0.0
0
LINE
8
TOP_HID
6
HIDDEN
10
0.320682
20
0.165489
30
0.0
11
0.321462
21
0.166829
31
0.0
0
LINE
8
TOP_HID
6
HIDDEN
10
0.321462
20
0.166829
30
0.0
11
0.322275
21
0.168148
31
0.0
0
LINE
8
TOP_HID
6
HIDDEN
10
0.322275
20
0.168148
30
0.0
11
0.323119
21
0.169448
31
0.0
0
LINE
8
TOP_HID
6
HIDDEN
10
0.323119
20
0.169448
30
0.0
11
0.323996
21
0.170726
31
0.0
0
LINE
8
TOP_HID
6
HIDDEN
10
0.323996
20
0.170726
30
0.0
11
0.324904
21
0.171982
31
0.0
0
LINE
8
TOP_HID
6
HIDDEN
10
0.324904
20
0.171982
30
0.0
11
0.325842
21
0.173216
31
0.0
0
LINE
8
TOP_HID
6
HIDDEN
10
0.325842
20
0.173216
30
0.0
11
0.326810
21
0.174426
31
0.0
0
LINE
8
TOP_HID
6
HIDDEN
10
0.326810
20
0.174426
30
0.0
11
0.327808
21
0.175612
31
0.0
0
LINE
8
TOP_HID
6
HIDDEN
10
0.327808
20
0.175612
30
0.0
11
0.328834
21
0.176773
31
0.0
0
LINE
8
TOP_HID
6
HIDDEN
10
0.328834
20
0.176773
30
0.0
11
0.329889
21
0.177909
31
0.0
0
LINE
8
TOP_HID
6
HIDDEN
10
0.329889
20
0.177909
30
0.0
11
0.330971
21
0.179019
31
0.0
0
LINE
8
TOP_HID
6
HIDDEN
10
0.330971
20
0.179019
30
0.0
11
0.332080
21
0.180101
31
0.0
0
LINE
8
TOP_HID
6
HIDDEN
10
0.332080
20
0.180101
30
0.0
11
0.333215
21
0.181156
31
0.0
0
LINE
8
TOP_HID
6
HIDDEN
10
0.333215
20
0.181156
30
0.0
11
0.334376
21
0.182183
31
0.0
0
LINE
8
TOP_HID
6
HIDDEN
10
0.334376
20
0.182183
30
0.0
11
0.335561
21
0.183181
31
0.0
0
LINE
8
TOP_HID
6
HIDDEN
10
0.335561
20
0.183181
30
0.0
11
0.336771
21
0.184150
31
0.0
0
LINE
8
TOP_HID
6
HIDDEN
10
0.336771
20
0.184150
30
0.0
11
0.338004
21
0.185089
31
0.0
0
LINE
8
TOP_HID
6
HIDDEN
10
0.338004
20
0.185089
30
0.0
11
0.339260
21
0.185997
31
0.0
0
LINE
8
TOP_HID
6
HIDDEN
10
0.339260
20
0.185997
30
0.0
11
0.340538
21
0.186874
31
0.0
0
LINE
8
TOP_HID
6
HIDDEN
10
0.340538
20
0.186874
30
0.0
11
0.341837
21
0.187719
31
0.0
0
LINE
8
TOP_HID
6
HIDDEN
10
0.341837
20
0.187719
30
0.0
11
0.343156
21
0.188533
31
0.0
0
LINE
8
TOP_HID
6
HIDDEN
10
0.343156
20
0.188533
30
0.0
11
0.344495
21
0.189313
31
0.0
0
LINE
8
TOP_HID
6
HIDDEN
10
0.344495
20
0.189313
30
0.0
11
0.345853
21
0.190061
31
0.0
0
LINE
8
TOP_HID
6
HIDDEN
10
0.345853
20
0.190061
30
0.0
11
0.347229
21
0.190775
31
0.0
0
LINE
8
TOP_HID
6
HIDDEN
10
0.347229
20
0.190775
30
0.0
11
0.348621
21
0.191455
31
0.0
0
LINE
8
TOP_HID
6
HIDDEN
10
0.348621
20
0.191455
30
0.0
11
0.350030
21
0.192101
31
0.0
0
LINE
8
TOP_HID
6
HIDDEN
10
0.350030
20
0.192101
30
0.0
11
0.351455
21
0.192711
31
0.0
0
LINE
8
TOP_HID
6
HIDDEN
10
0.351455
20
0.192711
30
0.0
11
0.352894
21
0.193287
31
0.0
0
LINE
8
TOP_HID
6
HIDDEN
10
0.352894
20
0.193287
30
0.0
11
0.354346
21
0.193827
31
0.0
0
LINE
8
TOP_HID
6
HIDDEN
10
0.354346
20
0.193827
30
0.0
11
0.355812
21
0.194332
31
0.0
0
LINE
8
TOP_HID
6
HIDDEN
10
0.355812
20
0.194332
30
0.0
11
0.357289
21
0.194800
31
0.0
0
LINE
8
TOP_HID
6
HIDDEN
10
0.357289
20
0.194800
30
0.0
11
0.358778
21
0.195232
31
0.0
0
LINE
8
TOP_HID
6
HIDDEN
10
0.358778
20
0.195232
30
0.0
11
0.360276
21
0.195627
31
0.0
0
LINE
8
TOP_HID
6
HIDDEN
10
0.360276
20
0.195627
30
0.0
11
0.361784
21
0.195985
31
0.0
0
LINE
8
TOP_HID
6
HIDDEN
10
0.361784
20
0.195985
30
0.0
11
0.363300
21
0.196306
31
0.0
0
LINE
8
TOP_HID
6
HIDDEN
10
0.363300
20
0.196306
30
0.0
11
0.364824
21
0.196590
31
0.0
0
LINE
8
TOP_HID
6
HIDDEN
10
0.364824
20
0.196590
30
0.0
11
0.366354
21
0.196837
31
0.0
0
LINE
8
TOP_HID
6
HIDDEN
10
0.366354
20
0.196837
30
0.0
11
0.367890
21
0.197045
31
0.0
0
LINE
8
TOP_HID
6
HIDDEN
10
0.367890
20
0.197045
30
0.0
11
0.369430
21
0.197216
31
0.0
0
LINE
8
TOP_HID
6
HIDDEN
10
0.369430
20
0.197216
30
0.0
11
0.370974
21
0.197349
31
0.0
0
LINE
8
TOP_HID
6
HIDDEN
10
0.370974
20
0.197349
30
0.0
11
0.372521
21
0.197444
31
0.0
0
LINE
8
TOP_HID
6
HIDDEN
10
0.372521
20
0.197444
30
0.0
11
0.374070
21
0.197501
31
0.0
0
LINE
8
TOP_HID
6
HIDDEN
10
0.374070
20
0.197501
30
0.0
11
0.375620
21
0.197520
31
0.0
0
LINE
8
TOP_HID
6
HIDDEN
10
0.375620
20
0.197520
30
0.0
11
0.378768
21
0.197442
31
0.0
0
LINE
8
TOP_HID
6
HIDDEN
10
0.378768
20
0.197442
30
0.0
11
0.381907
21
0.197206
31
0.0
0
LINE
8
TOP_HID
6
HIDDEN
10
0.381907
20
0.197206
30
0.0
11
0.385032
21
0.196815
31
0.0
0
LINE
8
TOP_HID
6
HIDDEN
10
0.385032
20
0.196815
30
0.0
11
0.388132
21
0.196268
31
0.0
0
LINE
8
TOP_HID
6
HIDDEN
10
0.388132
20
0.196268
30
0.0
11
0.391202
21
0.195567
31
0.0
0
LINE
8
TOP_HID
6
HIDDEN
10
0.391202
20
0.195567
30
0.0
11
0.394233
21
0.194714
31
0.0
0
LINE
8
TOP_HID
6
HIDDEN
10
0.394233
20
0.194714
30
0.0
11
0.397217
21
0.193710
31
0.0
0
LINE
8
TOP_HID
6
HIDDEN
10
0.397217
20
0.193710
30
0.0
11
0.400148
21
0.192560
31
0.0
0
LINE
8
TOP_HID
6
HIDDEN
10
0.400148
20
0.192560
30
0.0
11
0.403018
21
0.191264
31
0.0
0
LINE
8
TOP_HID
6
HIDDEN
10
0.403018
20
0.191264
30
0.0
11
0.405820
21
0.189827
31
0.0
0
LINE
8
TOP_HID
6
HIDDEN
10
0.405820
20
0.189827
30
0.0
11
0.408546
21
0.188252
31
0.0
0
LINE
8
TOP_HID
6
HIDDEN
10
0.408546
20
0.188252
30
0.0
11
0.411191
21
0.186543
31
0.0
0
LINE
8
TOP_HID
6
HIDDEN
10
0.411191
20
0.186543
30
0.0
11
0.413747
21
0.184705
31
0.0
0
LINE
8
TOP_HID
6
HIDDEN
10
0.413747
20
0.184705
30
0.0
11
0.416208
21
0.182741
31
0.0
0
LINE
8
TOP_HID
6
HIDDEN
10
0.416208
20
0.182741
30
0.0
11
0.418569
21
0.180657
31
0.0
0
LINE
8
TOP_HID
6
HIDDEN
10
0.418569
20
0.180657
30
0.0
11
0.420822
21
0.178458
31
0.0
0
LINE
8
TOP_HID
6
HIDDEN
10
0.420822
20
0.178458
30
0.0
11
0.422963
21
0.176150
31
0.0
0
LINE
8
TOP_HID
6
HIDDEN
10
0.422963
20
0.176150
30
0.0
11
0.424987
21
0.173737
31
0.0
0
LINE
8
TOP_HID
6
HIDDEN
10
0.424987
20
0.173737
30
0.0
11
0.426887
21
0.171227
31
0.0
0
LINE
8
TOP_HID
6
HIDDEN
10
0.426887
20
0.171227
30
0.0
11
0.428660
21
0.168625
31
0.0
0
LINE
8
TOP_HID
6
HIDDEN
10
0.428660
20
0.168625
30
0.0
11
0.430302
21
0.165938
31
0.0
0
LINE
8
TOP_HID
6
HIDDEN
10
0.430302
20
0.165938
30
0.0
11
0.431807
21
0.163172
31
0.0
0
LINE
8
TOP_HID
6
HIDDEN
10
0.431807
20
0.163172
30
0.0
11
0.433173
21
0.160335
31
0.0
0
LINE
8
TOP_HID
6
HIDDEN
10
0.433173
20
0.160335
30
0.0
11
0.434395
21
0.157434
31
0.0
0
LINE
8
TOP_HID
6
HIDDEN
10
0.434395
20
0.157434
30
0.0
11
0.435472
21
0.154475
31
0.0
0
LINE
8
TOP_HID
6
HIDDEN
10
0.435472
20
0.154475
30
0.0
11
0.436400
21
0.151466
31
0.0
0
LINE
8
TOP_HID
6
HIDDEN
10
0.436400
20
0.151466
30
0.0
11
0.437176
21
0.148414
31
0.0
0
LINE
8
TOP_HID
6
HIDDEN
10
0.437176
20
0.148414
30
0.0
11
0.437800
21
0.145328
31
0.0
0
LINE
8
TOP_HID
6
HIDDEN
10
0.437800
20
0.145328
30
0.0
11
0.438269
21
0.142215
31
0.0
0
LINE
8
TOP_HID
6
HIDDEN
10
0.438269
20
0.142215
30
0.0
11
0.438582
21
0.139082
31
0.0
0
LINE
8
TOP_HID
6
HIDDEN
10
0.438582
20
0.139082
30
0.0
11
0.438739
21
0.135937
31
0.0
0
LINE
8
TOP_HID
6
HIDDEN
10
0.438739
20
0.135937
30
0.0
11
0.438739
21
0.132788
31
0.0
0
LINE
8
TOP_HID
6
HIDDEN
10
0.438739
20
0.132788
30
0.0
11
0.438582
21
0.129643
31
0.0
0
LINE
8
TOP_HID
6
HIDDEN
10
0.438582
20
0.129643
30
0.0
11
0.438269
21
0.126510
31
0.0
0
LINE
8
TOP_HID
6
HIDDEN
10
0.438269
20
0.126510
30
0.0
11
0.437800
21
0.123397
31
0.0
0
LINE
8
TOP_HID
6
HIDDEN
10
0.437800
20
0.123397
30
0.0
11
0.437176
21
0.120311
31
0.0
0
LINE
8
TOP_HID
6
HIDDEN
10
0.437176
20
0.120311
30
0.0
11
0.436400
21
0.117259
31
0.0
0
LINE
8
TOP_HID
6
HIDDEN
10
0.436400
20
0.117259
30
0.0
11
0.435472
21
0.114250
31
0.0
0
LINE
8
TOP_HID
6
HIDDEN
10
0.435472
20
0.114250
30
0.0
11
0.434395
21
0.111291
31
0.0
0
LINE
8
TOP_HID
6
HIDDEN
10
0.434395
20
0.111291
30
0.0
11
0.433173
21
0.108390
31
0.0
0
LINE
8
TOP_HID
6
HIDDEN
10
0.433173
20
0.108390
30
0.0
11
0.431807
21
0.105553
31
0.0
0
LINE
8
TOP_HID
6
HIDDEN
10
0.431807
20
0.105553
30
0.0
11
0.430302
21
0.102787
31
0.0
0
LINE
8
TOP_HID
6
HIDDEN
10
0.430302
20
0.102787
30
0.0
11
0.428660
21
0.100100
31
0.0
0
LINE
8
TOP_HID
6
HIDDEN
10
0.428660
20
0.100100
30
0.0
11
0.426887
21
0.097498
31
0.0
0
LINE
8
TOP_HID
6
HIDDEN
10
0.426887
20
0.097498
30
0.0
11
0.424987
21
0.094988
31
0.0
0
LINE
8
TOP_HID
6
HIDDEN
10
0.424987
20
0.094988
30
0.0
11
0.422963
21
0.092575
31
0.0
0
LINE
8
TOP_HID
6
HIDDEN
10
0.422963
20
0.092575
30
0.0
11
0.420822
21
0.090267
31
0.0
0
LINE
8
TOP_HID
6
HIDDEN
10
0.420822
20
0.090267
30
0.0
11
0.418569
21
0.088068
31
0.0
0
LINE
8
TOP_HID
6
HIDDEN
10
0.418569
20
0.088068
30
0.0
11
0.416208
21
0.085984
31
0.0
0
LINE
8
TOP_HID
6
HIDDEN
10
0.416208
20
0.085984
30
0.0
11
0.413747
21
0.084020
31
0.0
0
LINE
8
TOP_HID
6
HIDDEN
10
0.413747
20
0.084020
30
0.0
11
0.411191
21
0.082181
31
0.0
0
LINE
8
TOP_HID
6
HIDDEN
10
0.411191
20
0.082181
30
0.0
11
0.408546
21
0.080473
31
0.0
0
LINE
8
TOP_HID
6
HIDDEN
10
0.408546
20
0.080473
30
0.0
11
0.405820
21
0.078898
31
0.0
0
LINE
8
TOP_HID
6
HIDDEN
10
0.405820
20
0.078898
30
0.0
11
0.403018
21
0.077461
31
0.0
0
LINE
8
TOP_HID
6
HIDDEN
10
0.403018
20
0.077461
30
0.0
11
0.400148
21
0.076165
31
0.0
0
LINE
8
TOP_HID
6
HIDDEN
10
0.400148
20
0.076165
30
0.0
11
0.397217
21
0.075015
31
0.0
0
LINE
8
TOP_HID
6
HIDDEN
10
0.397217
20
0.075015
30
0.0
11
0.394233
21
0.074011
31
0.0
0
LINE
8
TOP_HID
6
HIDDEN
10
0.394233
20
0.074011
30
0.0
11
0.391202
21
0.073158
31
0.0
0
LINE
8
TOP_HID
6
HIDDEN
10
0.391202
20
0.073158
30
0.0
11
0.388132
21
0.072457
31
0.0
0
LINE
8
TOP_HID
6
HIDDEN
10
0.388132
20
0.072457
30
0.0
11
0.385032
21
0.071910
31
0.0
0
LINE
8
TOP_HID
6
HIDDEN
10
0.385032
20
0.071910
30
0.0
11
0.381907
21
0.071519
31
0.0
0
LINE
8
TOP_HID
6
HIDDEN
10
0.381907
20
0.071519
30
0.0
11
0.378768
21
0.071283
31
0.0
0
LINE
8
TOP_HID
6
HIDDEN
10
0.378768
20
0.071283
30
0.0
11
0.375620
21
0.071205
31
0.0
0
LINE
8
TOP_HID
6
HIDDEN
10
0.375620
20
0.071205
30
0.0
11
0.374070
21
0.071224
31
0.0
0
LINE
8
TOP_HID
6
HIDDEN
10
0.374070
20
0.071224
30
0.0
11
0.372521
21
0.071281
31
0.0
0
LINE
8
TOP_HID
6
HIDDEN
10
0.372521
20
0.071281
30
0.0
11
0.370974
21
0.071376
31
0.0
0
LINE
8
TOP_HID
6
HIDDEN
10
0.370974
20
0.071376
30
0.0
11
0.369430
21
0.071509
31
0.0
0
LINE
8
TOP_HID
6
HIDDEN
10
0.369430
20
0.071509
30
0.0
11
0.367890
21
0.071680
31
0.0
0
LINE
8
TOP_HID
6
HIDDEN
10
0.367890
20
0.071680
30
0.0
11
0.366354
21
0.071888
31
0.0
0
LINE
8
TOP_HID
6
HIDDEN
10
0.366354
20
0.071888
30
0.0
11
0.364824
21
0.072135
31
0.0
0
LINE
8
TOP_HID
6
HIDDEN
10
0.364824
20
0.072135
30
0.0
11
0.363300
21
0.072418
31
0.0
0
LINE
8
TOP_HID
6
HIDDEN
10
0.363300
20
0.072418
30
0.0
11
0.361784
21
0.072740
31
0.0
0
LINE
8
TOP_HID
6
HIDDEN
10
0.361784
20
0.072740
30
0.0
11
0.360276
21
0.073098
31
0.0
0
LINE
8
TOP_HID
6
HIDDEN
10
0.360276
20
0.073098
30
0.0
11
0.358778
21
0.073493
31
0.0
0
LINE
8
TOP_HID
6
HIDDEN
10
0.358778
20
0.073493
30
0.0
11
0.357289
21
0.073925
31
0.0
0
LINE
8
TOP_HID
6
HIDDEN
10
0.357289
20
0.073925
30
0.0
11
0.355812
21
0.074393
31
0.0
0
LINE
8
TOP_HID
6
HIDDEN
10
0.355812
20
0.074393
30
0.0
11
0.354346
21
0.074898
31
0.0
0
LINE
8
TOP_HID
6
HIDDEN
10
0.354346
20
0.074898
30
0.0
11
0.352894
21
0.075438
31
0.0
0
LINE
8
TOP_HID
6
HIDDEN
10
0.352894
20
0.075438
30
0.0
11
0.351455
21
0.076013
31
0.0
0
LINE
8
TOP_HID
6
HIDDEN
10
0.351455
20
0.076013
30
0.0
11
0.350030
21
0.076624
31
0.0
0
LINE
8
TOP_HID
6
HIDDEN
10
0.350030
20
0.076624
30
0.0
11
0.348621
21
0.077270
31
0.0
0
LINE
8
TOP_HID
6
HIDDEN
10
0.348621
20
0.077270
30
0.0
11
0.347229
21
0.077950
31
0.0
0
LINE
8
TOP_HID
6
HIDDEN
10
0.347229
20
0.077950
30
0.0
11
0.345853
21
0.078664
31
0.0
0
LINE
8
TOP_HID
6
HIDDEN
10
0.345853
20
0.078664
30
0.0
11
0.344495
21
0.079412
31
0.0
0
LINE
8
TOP_HID
6
HIDDEN
10
0.344495
20
0.079412
30
0.0
11
0.343156
21
0.080192
31
0.0
0
LINE
8
TOP_HID
6
HIDDEN
10
0.343156
20
0.080192
30
0.0
11
0.341837
21
0.081006
31
0.0
0
LINE
8
TOP_HID
6
HIDDEN
10
0.341837
20
0.081006
30
0.0
11
0.340538
21
0.081851
31
0.0
0
LINE
8
TOP_HID
6
HIDDEN
10
0.340538
20
0.081851
30
0.0
11
0.339260
21
0.082728
31
0.0
0
LINE
8
TOP_HID
6
HIDDEN
10
0.339260
20
0.082728
30
0.0
11
0.338004
21
0.083636
31
0.0
0
LINE
8
TOP_HID
6
HIDDEN
10
0.338004
20
0.083636
30
0.0
11
0.336771
21
0.084575
31
0.0
0
LINE
8
TOP_HID
6
HIDDEN
10
0.336771
20
0.084575
30
0.0
11
0.335561
21
0.085544
31
0.0
0
LINE
8
TOP_HID
6
HIDDEN
10
0.335561
20
0.085544
30
0.0
11
0.334376
21
0.086542
31
0.0
0
LINE
8
TOP_HID
6
HIDDEN
10
0.334376
20
0.086542
30
0.0
11
0.333215
21
0.087569
31
0.0
0
LINE
8
TOP_HID
6
HIDDEN
10
0.333215
20
0.087569
30
0.0
11
0.332080
21
0.088624
31
0.0
0
LINE
8
TOP_HID
6
HIDDEN
10
0.332080
20
0.088624
30
0.0
11
0.330971
21
0.089706
31
0.0
0
LINE
8
TOP_HID
6
HIDDEN
10
0.330971
20
0.089706
30
0.0
11
0.329889
21
0.090816
31
0.0
0
LINE
8
TOP_HID
6
HIDDEN
10
0.329889
20
0.090816
30
0.0
11
0.328834
21
0.091952
31
0.0
0
LINE
8
TOP_HID
6
HIDDEN
10
0.328834
20
0.091952
30
0.0
11
0.327808
21
0.093113
31
0.0
0
LINE
8
TOP_HID
6
HIDDEN
10
0.327808
20
0.093113
30
0.0
11
0.326810
21
0.094299
31
0.0
0
LINE
8
TOP_HID
6
HIDDEN
10
0.326810
20
0.094299
30
0.0
11
0.325842
21
0.095509
31
0.0
0
LINE
8
TOP_HID
6
HIDDEN
10
0.325842
20
0.095509
30
0.0
11
0.324904
21
0.096743
31
0.0
0
LINE
8
TOP_HID
6
HIDDEN
10
0.324904
20
0.096743
30
0.0
11
0.323996
21
0.097999
31
0.0
0
LINE
8
TOP_HID
6
HIDDEN
10
0.323996
20
0.097999
30
0.0
11
0.323119
21
0.099277
31
0.0
0
LINE
8
TOP_HID
6
HIDDEN
10
0.323119
20
0.099277
30
0.0
11
0.322275
21
0.100577
31
0.0
0
LINE
8
TOP_HID
6
HIDDEN
10
0.322275
20
0.100577
30
0.0
11
0.321462
21
0.101896
31
0.0
0
LINE
8
TOP_HID
6
HIDDEN
10
0.321462
20
0.101896
30
0.0
11
0.320682
21
0.103235
31
0.0
0
LINE
8
TOP_HID
6
HIDDEN
10
0.320682
20
0.103235
30
0.0
11
0.319935
21
0.104593
31
0.0
0
LINE
8
TOP_HID
6
HIDDEN
10
0.319935
20
0.104593
30
0.0
11
0.319221
21
0.105969
31
0.0
0
LINE
8
TOP_HID
6
HIDDEN
10
0.319221
20
0.105969
30
0.0
11
0.318541
21
0.107362
31
0.0
0
LINE
8
TOP_HID
6
HIDDEN
10
0.318541
20
0.107362
30
0.0
11
0.317896
21
0.108771
31
0.0
0
LINE
8
TOP_HID
6
HIDDEN
10
0.317896
20
0.108771
30
0.0
11
0.317286
21
0.110196
31
0.0
0
LINE
8
TOP_HID
6
HIDDEN
10
0.317286
20
0.110196
30
0.0
11
0.316711
21
0.111635
31
0.0
0
LINE
8
TOP_HID
6
HIDDEN
10
0.316711
20
0.111635
30
0.0
11
0.316171
21
0.113088
31
0.0
0
LINE
8
TOP_HID
6
HIDDEN
10
0.316171
20
0.113088
30
0.0
11
0.315667
21
0.114554
31
0.0
0
LINE
8
TOP_HID
6
HIDDEN
10
0.315667
20
0.114554
30
0.0
11
0.315199
21
0.116031
31
0.0
0
LINE
8
TOP_HID
6
HIDDEN
10
0.315199
20
0.116031
30
0.0
11
0.314768
21
0.117520
31
0.0
0
LINE
8
TOP_HID
6
HIDDEN
10
0.314768
20
0.117520
30
0.0
11
0.314373
21
0.119018
31
0.0
0
LINE
8
TOP_HID
6
HIDDEN
10
0.314373
20
0.119018
30
0.0
11
0.314015
21
0.120526
31
0.0
0
LINE
8
TOP_HID
6
HIDDEN
10
0.314015
20
0.120526
30
0.0
11
0.313694
21
0.122043
31
0.0
0
LINE
8
TOP_HID
6
HIDDEN
10
0.313694
20
0.122043
30
0.0
11
0.313410
21
0.123566
31
0.0
0
LINE
8
TOP_HID
6
HIDDEN
10
0.313410
20
0.123566
30
0.0
11
0.313164
21
0.125096
31
0.0
0
LINE
8
TOP_HID
6
HIDDEN
10
0.313164
20
0.125096
30
0.0
11
0.312956
21
0.126632
31
0.0
0
LINE
8
TOP_HID
6
HIDDEN
10
0.312956
20
0.126632
30
0.0
11
0.312785
21
0.128173
31
0.0
0
LINE
8
TOP_HID
6
HIDDEN
10
0.312785
20
0.128173
30
0.0
11
0.312652
21
0.129717
31
0.0
0
LINE
8
TOP_HID
6
HIDDEN
10
0.312652
20
0.129717
30
0.0
11
0.312557
21
0.131264
31
0.0
0
LINE
8
TOP_HID
6
HIDDEN
10
0.312557
20
0.131264
30
0.0
11
0.312500
21
0.132813
31
0.0
0
LINE
8
TOP_HID
6
HIDDEN
10
0.360282
20
0.071205
30
0.0
11
0.375620
21
0.071205
31
0.0
0
LINE
8
TOP_HID
6
HIDDEN
10
0.360282
20
0.197520
30
0.0
11
0.375620
21
0.197520
31
0.0
0
ENDSEC
0
EOF
