0
SECTION
2
HEADER
9
$ACADVER
1
AC1009
0
ENDSEC
0
SECTION
2
TABLES
0
TABLE
2
LTYPE
70
3
0
LTYPE
2
CONTINUOUS
70
0
3
Solid line
72
65
73
0
40
0.0
0
LTYPE
2
HIDDEN
70
0
3
__ __ __ __ __
72
65
73
2
40
0.075000
49
0.050025
49
-0.024975
0
LTYPE
2
CENTER
70
0
3
___ _ ___ _ ___
72
65
73
4
40
0.174975
49
0.099975
49
-0.024975
49
0.024975
49
-0.024975
0
ENDTAB
0
TABLE
2
LAYER
70
7
0
LAYER
2
0
70
0
62
7
6
CONTINUOUS
0
LAYER
2
FRONT
70
0
62
7
6
CONTINUOUS
0
LAYER
2
FRONT_HID
70
0
62
7
6
HIDDEN
0
LAYER
2
LEFT
70
0
62
7
6
CONTINUOUS
0
LAYER
2
LEFT_HID
70
0
62
7
6
HIDDEN
0
LAYER
2
TOP
70
0
62
7
6
CONTINUOUS
0
LAYER
2
TOP_HID
70
0
62
7
6
HIDDEN
0
ENDTAB
0
ENDSEC
0
SECTION
2
ENTITIES
0
LINE
8
FRONT
10
0.015625
20
0.907813
30
0.0
11
0.015625
21
0.923438
31
0.0
0
LINE
8
FRONT
10
1.476562
20
0.907813
30
0.0
11
1.476562
21
0.923438
31
0.0
0
LINE
8
FRONT
10
1.500000
20
0.907813
30
0.0
11
0.000000
21
0.907813
31
0.0
0
LINE
8
FRONT
10
1.476562
20
0.923438
30
0.0
11
0.015625
21
0.923438
31
0.0
0
LINE
8
FRONT
10
0.000000
20
0.907813
30
0.0
11
0.000000
21
0.900000
31
0.0
0
LINE
8
FRONT
10
1.500000
20
0.907813
30
0.0
11
1.500000
21
0.900000
31
0.0
0
LINE
8
FRONT
10
1.500000
20
0.900000
30
0.0
11
0.000000
21
0.900000
31
0.0
0
LINE
8
FRONT_HID
6
HIDDEN
10
0.015625
20
0.907813
30
0.0
11
1.476562
21
0.907813
31
0.0
0
LINE
8
FRONT_HID
6
HIDDEN
10
1.476562
20
0.907813
30
0.0
11
1.484211
21
0.907813
31
0.0
0
LINE
8
FRONT_HID
6
HIDDEN
10
1.476562
20
0.907813
30
0.0
11
0.015625
21
0.907813
31
0.0
0
LINE
8
FRONT_HID
6
HIDDEN
10
1.484211
20
0.907813
30
0.0
11
1.476562
21
0.907813
31
0.0
0
LINE
8
FRONT_HID
6
HIDDEN
10
0.184786
20
0.923438
30
0.0
11
1.307401
21
0.923438
31
0.0
0
LINE
8
FRONT_HID
6
HIDDEN
10
1.307401
20
0.923438
30
0.0
11
0.184786
21
0.923438
31
0.0
0
LINE
8
FRONT_HID
6
HIDDEN
10
0.184786
20
0.923438
30
0.0
11
1.307401
21
0.923438
31
0.0
0
LINE
8
FRONT_HID
6
HIDDEN
10
1.307401
20
0.923438
30
0.0
11
0.184786
21
0.923438
31
0.0
0
LINE
8
FRONT_HID
6
HIDDEN
10
0.184786
20
0.923438
30
0.0
11
1.307401
21
0.923438
31
0.0
0
LINE
8
FRONT_HID
6
HIDDEN
10
1.307401
20
0.923438
30
0.0
11
0.184786
21
0.923438
31
0.0
0
LINE
8
FRONT_HID
6
HIDDEN
10
1.476562
20
0.900000
30
0.0
11
1.476562
21
0.907813
31
0.0
0
LINE
8
FRONT_HID
6
HIDDEN
10
1.476562
20
0.907813
30
0.0
11
1.476562
21
0.900000
31
0.0
0
LINE
8
FRONT_HID
6
HIDDEN
10
1.476562
20
0.900000
30
0.0
11
1.484211
21
0.900000
31
0.0
0
LINE
8
FRONT_HID
6
HIDDEN
10
1.484211
20
0.907813
30
0.0
11
1.484211
21
0.900000
31
0.0
0
LINE
8
FRONT_HID
6
HIDDEN
10
1.484211
20
0.907813
30
0.0
11
1.484211
21
0.900000
31
0.0
0
LINE
8
FRONT_HID
6
HIDDEN
10
1.484211
20
0.900000
30
0.0
11
1.476562
21
0.900000
31
0.0
0
LINE
8
FRONT_HID
6
HIDDEN
10
0.184786
20
0.907813
30
0.0
11
0.184786
21
0.923438
31
0.0
0
LINE
8
FRONT_HID
6
HIDDEN
10
1.307401
20
0.907813
30
0.0
11
1.307401
21
0.923438
31
0.0
0
LINE
8
FRONT_HID
6
HIDDEN
10
1.307401
20
0.907813
30
0.0
11
1.307401
21
0.923438
31
0.0
0
LINE
8
FRONT_HID
6
HIDDEN
10
0.184786
20
0.907813
30
0.0
11
0.184786
21
0.923438
31
0.0
0
LINE
8
FRONT_HID
6
HIDDEN
10
0.184786
20
0.907813
30
0.0
11
0.184786
21
0.923438
31
0.0
0
LINE
8
FRONT_HID
6
HIDDEN
10
1.307401
20
0.907813
30
0.0
11
1.307401
21
0.923438
31
0.0
0
LINE
8
FRONT_HID
6
HIDDEN
10
1.307401
20
0.907813
30
0.0
11
1.307401
21
0.923438
31
0.0
0
LINE
8
FRONT_HID
6
HIDDEN
10
0.184786
20
0.907813
30
0.0
11
0.184786
21
0.923438
31
0.0
0
LINE
8
FRONT_HID
6
HIDDEN
10
0.184786
20
0.907813
30
0.0
11
0.184786
21
0.923438
31
0.0
0
LINE
8
FRONT_HID
6
HIDDEN
10
1.307401
20
0.907813
30
0.0
11
1.307401
21
0.923438
31
0.0
0
LINE
8
FRONT_HID
6
HIDDEN
10
1.307401
20
0.907813
30
0.0
11
1.307401
21
0.923438
31
0.0
0
LINE
8
FRONT_HID
6
HIDDEN
10
0.184786
20
0.907813
30
0.0
11
0.184786
21
0.923438
31
0.0
0
LINE
8
FRONT_HID
6
HIDDEN
10
0.015789
20
0.900000
30
0.0
11
1.476562
21
0.900000
31
0.0
0
LINE
8
FRONT_HID
6
HIDDEN
10
1.476562
20
0.900000
30
0.0
11
0.015789
21
0.900000
31
0.0
0
LINE
8
FRONT_HID
6
HIDDEN
10
0.184786
20
0.900000
30
0.0
11
1.307401
21
0.900000
31
0.0
0
LINE
8
FRONT_HID
6
HIDDEN
10
1.307401
20
0.900000
30
0.0
11
0.184786
21
0.900000
31
0.0
0
LINE
8
FRONT_HID
6
HIDDEN
10
0.184786
20
0.900000
30
0.0
11
1.307401
21
0.900000
31
0.0
0
LINE
8
FRONT_HID
6
HIDDEN
10
1.307401
20
0.900000
30
0.0
11
0.184786
21
0.900000
31
0.0
0
LINE
8
FRONT_HID
6
HIDDEN
10
0.184786
20
0.900000
30
0.0
11
1.307401
21
0.900000
31
0.0
0
LINE
8
FRONT_HID
6
HIDDEN
10
1.307401
20
0.900000
30
0.0
11
0.184786
21
0.900000
31
0.0
0
LINE
8
FRONT_HID
6
HIDDEN
10
0.015625
20
0.900000
30
0.0
11
1.476562
21
0.900000
31
0.0
0
LINE
8
FRONT_HID
6
HIDDEN
10
1.476562
20
0.900000
30
0.0
11
0.015625
21
0.900000
31
0.0
0
LINE
8
FRONT_HID
6
HIDDEN
10
0.184786
20
0.907813
30
0.0
11
0.184786
21
0.900000
31
0.0
0
LINE
8
FRONT_HID
6
HIDDEN
10
1.307401
20
0.907813
30
0.0
11
1.307401
21
0.900000
31
0.0
0
LINE
8
FRONT_HID
6
HIDDEN
10
1.307401
20
0.907813
30
0.0
11
1.307401
21
0.900000
31
0.0
0
LINE
8
FRONT_HID
6
HIDDEN
10
0.184786
20
0.907813
30
0.0
11
0.184786
21
0.900000
31
0.0
0
LINE
8
FRONT_HID
6
HIDDEN
10
0.184786
20
0.907813
30
0.0
11
0.184786
21
0.900000
31
0.0
0
LINE
8
FRONT_HID
6
HIDDEN
10
1.307401
20
0.907813
30
0.0
11
1.307401
21
0.900000
31
0.0
0
LINE
8
FRONT_HID
6
HIDDEN
10
1.307401
20
0.907813
30
0.0
11
1.307401
21
0.900000
31
0.0
0
LINE
8
FRONT_HID
6
HIDDEN
10
0.184786
20
0.907813
30
0.0
11
0.184786
21
0.900000
31
0.0
0
LINE
8
FRONT_HID
6
HIDDEN
10
0.184786
20
0.907813
30
0.0
11
0.184786
21
0.900000
31
0.0
0
LINE
8
FRONT_HID
6
HIDDEN
10
1.307401
20
0.907813
30
0.0
11
1.307401
21
0.900000
31
0.0
0
LINE
8
FRONT_HID
6
HIDDEN
10
1.307401
20
0.907813
30
0.0
11
1.307401
21
0.900000
31
0.0
0
LINE
8
FRONT_HID
6
HIDDEN
10
0.184786
20
0.907813
30
0.0
11
0.184786
21
0.900000
31
0.0
0
LINE
8
LEFT
10
2.384375
20
0.907813
30
0.0
11
2.384375
21
0.923438
31
0.0
0
LINE
8
LEFT
10
1.830757
20
0.907813
30
0.0
11
1.830757
21
0.923438
31
0.0
0
LINE
8
LEFT
10
1.830757
20
0.923438
30
0.0
11
2.384375
21
0.923438
31
0.0
0
LINE
8
LEFT
10
1.800000
20
0.907813
30
0.0
11
2.400000
21
0.907813
31
0.0
0
LINE
8
LEFT
10
2.400000
20
0.907813
30
0.0
11
2.400000
21
0.900000
31
0.0
0
LINE
8
LEFT
10
1.800000
20
0.907813
30
0.0
11
1.800000
21
0.900000
31
0.0
0
LINE
8
LEFT
10
1.800000
20
0.900000
30
0.0
11
2.400000
21
0.900000
31
0.0
0
LINE
8
LEFT_HID
6
HIDDEN
10
1.830757
20
0.907813
30
0.0
11
2.384375
21
0.907813
31
0.0
0
LINE
8
LEFT_HID
6
HIDDEN
10
1.831579
20
0.907813
30
0.0
11
1.830757
21
0.907813
31
0.0
0
LINE
8
LEFT_HID
6
HIDDEN
10
2.384375
20
0.907813
30
0.0
11
2.384211
21
0.907813
31
0.0
0
LINE
8
LEFT_HID
6
HIDDEN
10
2.384211
20
0.907813
30
0.0
11
1.831579
21
0.907813
31
0.0
0
LINE
8
LEFT_HID
6
HIDDEN
10
2.307484
20
0.923438
30
0.0
11
2.276727
21
0.923438
31
0.0
0
LINE
8
LEFT_HID
6
HIDDEN
10
2.276727
20
0.923438
30
0.0
11
2.307484
21
0.923438
31
0.0
0
LINE
8
LEFT_HID
6
HIDDEN
10
2.122944
20
0.923438
30
0.0
11
2.092188
21
0.923438
31
0.0
0
LINE
8
LEFT_HID
6
HIDDEN
10
2.092188
20
0.923438
30
0.0
11
2.122944
21
0.923438
31
0.0
0
LINE
8
LEFT_HID
6
HIDDEN
10
1.938405
20
0.923438
30
0.0
11
1.907648
21
0.923438
31
0.0
0
LINE
8
LEFT_HID
6
HIDDEN
10
1.907648
20
0.923438
30
0.0
11
1.938405
21
0.923438
31
0.0
0
LINE
8
LEFT_HID
6
HIDDEN
10
2.384211
20
0.900000
30
0.0
11
2.384211
21
0.907813
31
0.0
0
LINE
8
LEFT_HID
6
HIDDEN
10
2.384211
20
0.900000
30
0.0
11
1.831579
21
0.900000
31
0.0
0
LINE
8
LEFT_HID
6
HIDDEN
10
1.831579
20
0.907813
30
0.0
11
1.831579
21
0.900000
31
0.0
0
LINE
8
LEFT_HID
6
HIDDEN
10
2.384211
20
0.907813
30
0.0
11
2.384211
21
0.900000
31
0.0
0
LINE
8
LEFT_HID
6
HIDDEN
10
2.384211
20
0.900000
30
0.0
11
1.831579
21
0.900000
31
0.0
0
LINE
8
LEFT_HID
6
HIDDEN
10
1.831579
20
0.907813
30
0.0
11
1.831579
21
0.900000
31
0.0
0
LINE
8
LEFT_HID
6
HIDDEN
10
2.307484
20
0.907813
30
0.0
11
2.307484
21
0.923438
31
0.0
0
LINE
8
LEFT_HID
6
HIDDEN
10
2.307484
20
0.907813
30
0.0
11
2.307484
21
0.923438
31
0.0
0
LINE
8
LEFT_HID
6
HIDDEN
10
2.276727
20
0.907813
30
0.0
11
2.276727
21
0.923438
31
0.0
0
LINE
8
LEFT_HID
6
HIDDEN
10
2.276727
20
0.907813
30
0.0
11
2.276727
21
0.923438
31
0.0
0
LINE
8
LEFT_HID
6
HIDDEN
10
2.122944
20
0.907813
30
0.0
11
2.122944
21
0.923438
31
0.0
0
LINE
8
LEFT_HID
6
HIDDEN
10
2.122944
20
0.907813
30
0.0
11
2.122944
21
0.923438
31
0.0
0
LINE
8
LEFT_HID
6
HIDDEN
10
2.092188
20
0.907813
30
0.0
11
2.092188
21
0.923438
31
0.0
0
LINE
8
LEFT_HID
6
HIDDEN
10
2.092188
20
0.907813
30
0.0
11
2.092188
21
0.923438
31
0.0
0
LINE
8
LEFT_HID
6
HIDDEN
10
1.938405
20
0.907813
30
0.0
11
1.938405
21
0.923438
31
0.0
0
LINE
8
LEFT_HID
6
HIDDEN
10
1.938405
20
0.907813
30
0.0
11
1.938405
21
0.923438
31
0.0
0
LINE
8
LEFT_HID
6
HIDDEN
10
1.907648
20
0.907813
30
0.0
11
1.907648
21
0.923438
31
0.0
0
LINE
8
LEFT_HID
6
HIDDEN
10
1.907648
20
0.907813
30
0.0
11
1.907648
21
0.923438
31
0.0
0
LINE
8
LEFT_HID
6
HIDDEN
10
1.831579
20
0.900000
30
0.0
11
2.384211
21
0.900000
31
0.0
0
LINE
8
LEFT_HID
6
HIDDEN
10
2.276727
20
0.900000
30
0.0
11
2.307484
21
0.900000
31
0.0
0
LINE
8
LEFT_HID
6
HIDDEN
10
2.307484
20
0.900000
30
0.0
11
2.276727
21
0.900000
31
0.0
0
LINE
8
LEFT_HID
6
HIDDEN
10
2.092188
20
0.900000
30
0.0
11
2.122944
21
0.900000
31
0.0
0
LINE
8
LEFT_HID
6
HIDDEN
10
2.122944
20
0.900000
30
0.0
11
2.092188
21
0.900000
31
0.0
0
LINE
8
LEFT_HID
6
HIDDEN
10
1.907648
20
0.900000
30
0.0
11
1.938405
21
0.900000
31
0.0
0
LINE
8
LEFT_HID
6
HIDDEN
10
1.938405
20
0.900000
30
0.0
11
1.907648
21
0.900000
31
0.0
0
LINE
8
LEFT_HID
6
HIDDEN
10
2.384375
20
0.900000
30
0.0
11
2.384211
21
0.900000
31
0.0
0
LINE
8
LEFT_HID
6
HIDDEN
10
1.830757
20
0.900000
30
0.0
11
2.384375
21
0.900000
31
0.0
0
LINE
8
LEFT_HID
6
HIDDEN
10
1.831579
20
0.900000
30
0.0
11
1.830757
21
0.900000
31
0.0
0
LINE
8
LEFT_HID
6
HIDDEN
10
2.307484
20
0.907813
30
0.0
11
2.307484
21
0.900000
31
0.0
0
LINE
8
LEFT_HID
6
HIDDEN
10
2.307484
20
0.907813
30
0.0
11
2.307484
21
0.900000
31
0.0
0
LINE
8
LEFT_HID
6
HIDDEN
10
2.276727
20
0.907813
30
0.0
11
2.276727
21
0.900000
31
0.0
0
LINE
8
LEFT_HID
6
HIDDEN
10
2.276727
20
0.907813
30
0.0
11
2.276727
21
0.900000
31
0.0
0
LINE
8
LEFT_HID
6
HIDDEN
10
2.122944
20
0.907813
30
0.0
11
2.122944
21
0.900000
31
0.0
0
LINE
8
LEFT_HID
6
HIDDEN
10
2.122944
20
0.907813
30
0.0
11
2.122944
21
0.900000
31
0.0
0
LINE
8
LEFT_HID
6
HIDDEN
10
2.092188
20
0.907813
30
0.0
11
2.092188
21
0.900000
31
0.0
0
LINE
8
LEFT_HID
6
HIDDEN
10
2.092188
20
0.907813
30
0.0
11
2.092188
21
0.900000
31
0.0
0
LINE
8
LEFT_HID
6
HIDDEN
10
1.938405
20
0.907813
30
0.0
11
1.938405
21
0.900000
31
0.0
0
LINE
8
LEFT_HID
6
HIDDEN
10
1.938405
20
0.907813
30
0.0
11
1.938405
21
0.900000
31
0.0
0
LINE
8
LEFT_HID
6
HIDDEN
10
1.907648
20
0.907813
30
0.0
11
1.907648
21
0.900000
31
0.0
0
LINE
8
LEFT_HID
6
HIDDEN
10
1.907648
20
0.907813
30
0.0
11
1.907648
21
0.900000
31
0.0
0
LINE
8
TOP
10
0.015625
20
0.015625
30
0.0
11
1.476562
21
0.015625
31
0.0
0
LINE
8
TOP
10
0.015625
20
0.569243
30
0.0
11
0.015625
21
0.015625
31
0.0
0
LINE
8
TOP
10
1.476562
20
0.015625
30
0.0
11
1.476562
21
0.569243
31
0.0
0
LINE
8
TOP
10
0.000000
20
0.000000
30
0.0
11
1.500000
21
0.000000
31
0.0
0
LINE
8
TOP
10
1.500000
20
0.000000
30
0.0
11
1.500000
21
0.600000
31
0.0
0
LINE
8
TOP
10
1.500000
20
0.600000
30
0.0
11
0.000000
21
0.600000
31
0.0
0
LINE
8
TOP
10
0.000000
20
0.600000
30
0.0
11
0.000000
21
0.000000
31
0.0
0
LINE
8
TOP
10
1.476562
20
0.015789
30
0.0
11
1.484211
21
0.015789
31
0.0
0
LINE
8
TOP
10
1.484211
20
0.568421
30
0.0
11
1.476562
21
0.568421
31
0.0
0
LINE
8
TOP
10
1.484211
20
0.015789
30
0.0
11
1.484211
21
0.568421
31
0.0
0
LINE
8
TOP
10
1.476562
20
0.569243
30
0.0
11
0.015625
21
0.569243
31
0.0
0
LINE
8
TOP
10
0.184786
20
0.092516
30
0.0
11
1.307401
21
0.092516
31
0.0
0
LINE
8
TOP
10
1.307401
20
0.092516
30
0.0
11
1.307401
21
0.123273
31
0.0
0
LINE
8
TOP
10
1.307401
20
0.123273
30
0.0
11
0.184786
21
0.123273
31
0.0
0
LINE
8
TOP
10
0.184786
20
0.123273
30
0.0
11
0.184786
21
0.092516
31
0.0
0
LINE
8
TOP
10
0.184786
20
0.277056
30
0.0
11
1.307401
21
0.277056
31
0.0
0
LINE
8
TOP
10
1.307401
20
0.277056
30
0.0
11
1.307401
21
0.307812
31
0.0
0
LINE
8
TOP
10
1.307401
20
0.307812
30
0.0
11
0.184786
21
0.307812
31
0.0
0
LINE
8
TOP
10
0.184786
20
0.307812
30
0.0
11
0.184786
21
0.277056
31
0.0
0
LINE
8
TOP
10
0.184786
20
0.461595
30
0.0
11
1.307401
21
0.461595
31
0.0
0
LINE
8
TOP
10
1.307401
20
0.461595
30
0.0
11
1.307401
21
0.492352
31
0.0
0
LINE
8
TOP
10
1.307401
20
0.492352
30
0.0
11
0.184786
21
0.492352
31
0.0
0
LINE
8
TOP
10
0.184786
20
0.492352
30
0.0
11
0.184786
21
0.461595
31
0.0
0
LINE
8
TOP_HID
6
HIDDEN
10
1.476562
20
0.568421
30
0.0
11
1.476562
21
0.569243
31
0.0
0
LINE
8
TOP_HID
6
HIDDEN
10
1.476562
20
0.015789
30
0.0
11
1.476562
21
0.568421
31
0.0
0
LINE
8
TOP_HID
6
HIDDEN
10
1.476562
20
0.015625
30
0.0
11
1.476562
21
0.015789
31
0.0
0
LINE
8
TOP_HID
6
HIDDEN
10
1.476562
20
0.015789
30
0.0
11
1.476562
21
0.568421
31
0.0
0
ENDSEC
0
EOF
