0
SECTION
2
HEADER
9
$ACADVER
1
AC1009
0
ENDSEC
0
SECTION
2
TABLES
0
TABLE
2
LTYPE
70
3
0
LTYPE
2
CONTINUOUS
70
0
3
Solid line
72
65
73
0
40
0.0
0
LTYPE
2
HIDDEN
70
0
3
__ __ __ __ __
72
65
73
2
40
0.050391
49
0.033611
49
-0.016780
0
LTYPE
2
CENTER
70
0
3
___ _ ___ _ ___
72
65
73
4
40
0.117561
49
0.067171
49
-0.016780
49
0.016780
49
-0.016780
0
ENDTAB
0
TABLE
2
LAYER
70
6
0
LAYER
2
0
70
0
62
7
6
CONTINUOUS
0
LAYER
2
FRONT
70
0
62
7
6
CONTINUOUS
0
LAYER
2
LEFT
70
0
62
7
6
CONTINUOUS
0
LAYER
2
LEFT_HID
70
0
62
7
6
HIDDEN
0
LAYER
2
TOP
70
0
62
7
6
CONTINUOUS
0
LAYER
2
TOP_HID
70
0
62
7
6
HIDDEN
0
ENDTAB
0
ENDSEC
0
SECTION
2
ENTITIES
0
LINE
8
FRONT
10
0.000000
20
0.475000
30
0.0
11
1.007812
21
0.475000
31
0.0
0
LINE
8
FRONT
10
0.000000
20
0.581086
30
0.0
11
0.000000
21
0.475000
31
0.0
0
LINE
8
FRONT
10
1.007812
20
0.475000
30
0.0
11
1.007812
21
0.581086
31
0.0
0
LINE
8
FRONT
10
1.007812
20
0.581086
30
0.0
11
0.000000
21
0.581086
31
0.0
0
LINE
8
FRONT
10
0.101809
20
0.498191
30
0.0
11
0.104167
21
0.498308
31
0.0
0
LINE
8
FRONT
10
0.104167
20
0.498308
30
0.0
11
0.106502
21
0.498660
31
0.0
0
LINE
8
FRONT
10
0.106502
20
0.498660
30
0.0
11
0.108790
21
0.499243
31
0.0
0
LINE
8
FRONT
10
0.108790
20
0.499243
30
0.0
11
0.111009
21
0.500051
31
0.0
0
LINE
8
FRONT
10
0.111009
20
0.500051
30
0.0
11
0.113136
21
0.501075
31
0.0
0
LINE
8
FRONT
10
0.113136
20
0.501075
30
0.0
11
0.115151
21
0.502306
31
0.0
0
LINE
8
FRONT
10
0.115151
20
0.502306
30
0.0
11
0.117033
21
0.503732
31
0.0
0
LINE
8
FRONT
10
0.117033
20
0.503732
30
0.0
11
0.118764
21
0.505338
31
0.0
0
LINE
8
FRONT
10
0.118764
20
0.505338
30
0.0
11
0.120326
21
0.507108
31
0.0
0
LINE
8
FRONT
10
0.120326
20
0.507108
30
0.0
11
0.121705
21
0.509025
31
0.0
0
LINE
8
FRONT
10
0.121705
20
0.509025
30
0.0
11
0.122885
21
0.511070
31
0.0
0
LINE
8
FRONT
10
0.122885
20
0.511070
30
0.0
11
0.123856
21
0.513222
31
0.0
0
LINE
8
FRONT
10
0.123856
20
0.513222
30
0.0
11
0.124608
21
0.515460
31
0.0
0
LINE
8
FRONT
10
0.124608
20
0.515460
30
0.0
11
0.125134
21
0.517762
31
0.0
0
LINE
8
FRONT
10
0.125134
20
0.517762
30
0.0
11
0.125427
21
0.520105
31
0.0
0
LINE
8
FRONT
10
0.125427
20
0.520105
30
0.0
11
0.125486
21
0.522465
31
0.0
0
LINE
8
FRONT
10
0.125486
20
0.522465
30
0.0
11
0.125310
21
0.524820
31
0.0
0
LINE
8
FRONT
10
0.125310
20
0.524820
30
0.0
11
0.124900
21
0.527145
31
0.0
0
LINE
8
FRONT
10
0.124900
20
0.527145
30
0.0
11
0.124260
21
0.529418
31
0.0
0
LINE
8
FRONT
10
0.124260
20
0.529418
30
0.0
11
0.123398
21
0.531616
31
0.0
0
LINE
8
FRONT
10
0.123398
20
0.531616
30
0.0
11
0.122320
21
0.533717
31
0.0
0
LINE
8
FRONT
10
0.122320
20
0.533717
30
0.0
11
0.121039
21
0.535701
31
0.0
0
LINE
8
FRONT
10
0.121039
20
0.535701
30
0.0
11
0.119567
21
0.537547
31
0.0
0
LINE
8
FRONT
10
0.119567
20
0.537547
30
0.0
11
0.117919
21
0.539237
31
0.0
0
LINE
8
FRONT
10
0.117919
20
0.539237
30
0.0
11
0.116110
21
0.540754
31
0.0
0
LINE
8
FRONT
10
0.116110
20
0.540754
30
0.0
11
0.114159
21
0.542085
31
0.0
0
LINE
8
FRONT
10
0.114159
20
0.542085
30
0.0
11
0.112085
21
0.543214
31
0.0
0
LINE
8
FRONT
10
0.112085
20
0.543214
30
0.0
11
0.109910
21
0.544131
31
0.0
0
LINE
8
FRONT
10
0.109910
20
0.544131
30
0.0
11
0.107653
21
0.544827
31
0.0
0
LINE
8
FRONT
10
0.107653
20
0.544827
30
0.0
11
0.105339
21
0.545295
31
0.0
0
LINE
8
FRONT
10
0.105339
20
0.545295
30
0.0
11
0.102990
21
0.545530
31
0.0
0
LINE
8
FRONT
10
0.102990
20
0.545530
30
0.0
11
0.100629
21
0.545530
31
0.0
0
LINE
8
FRONT
10
0.100629
20
0.545530
30
0.0
11
0.098279
21
0.545295
31
0.0
0
LINE
8
FRONT
10
0.098279
20
0.545295
30
0.0
11
0.095965
21
0.544827
31
0.0
0
LINE
8
FRONT
10
0.095965
20
0.544827
30
0.0
11
0.093709
21
0.544131
31
0.0
0
LINE
8
FRONT
10
0.093709
20
0.544131
30
0.0
11
0.091533
21
0.543214
31
0.0
0
LINE
8
FRONT
10
0.091533
20
0.543214
30
0.0
11
0.089459
21
0.542085
31
0.0
0
LINE
8
FRONT
10
0.089459
20
0.542085
30
0.0
11
0.087509
21
0.540754
31
0.0
0
LINE
8
FRONT
10
0.087509
20
0.540754
30
0.0
11
0.085700
21
0.539237
31
0.0
0
LINE
8
FRONT
10
0.085700
20
0.539237
30
0.0
11
0.084051
21
0.537547
31
0.0
0
LINE
8
FRONT
10
0.084051
20
0.537547
30
0.0
11
0.082579
21
0.535701
31
0.0
0
LINE
8
FRONT
10
0.082579
20
0.535701
30
0.0
11
0.081298
21
0.533717
31
0.0
0
LINE
8
FRONT
10
0.081298
20
0.533717
30
0.0
11
0.080221
21
0.531616
31
0.0
0
LINE
8
FRONT
10
0.080221
20
0.531616
30
0.0
11
0.079358
21
0.529418
31
0.0
0
LINE
8
FRONT
10
0.079358
20
0.529418
30
0.0
11
0.078719
21
0.527145
31
0.0
0
LINE
8
FRONT
10
0.078719
20
0.527145
30
0.0
11
0.078309
21
0.524820
31
0.0
0
LINE
8
FRONT
10
0.078309
20
0.524820
30
0.0
11
0.078132
21
0.522465
31
0.0
0
LINE
8
FRONT
10
0.078132
20
0.522465
30
0.0
11
0.078191
21
0.520105
31
0.0
0
LINE
8
FRONT
10
0.078191
20
0.520105
30
0.0
11
0.078485
21
0.517762
31
0.0
0
LINE
8
FRONT
10
0.078485
20
0.517762
30
0.0
11
0.079010
21
0.515460
31
0.0
0
LINE
8
FRONT
10
0.079010
20
0.515460
30
0.0
11
0.079762
21
0.513222
31
0.0
0
LINE
8
FRONT
10
0.079762
20
0.513222
30
0.0
11
0.080733
21
0.511070
31
0.0
0
LINE
8
FRONT
10
0.080733
20
0.511070
30
0.0
11
0.081914
21
0.509025
31
0.0
0
LINE
8
FRONT
10
0.081914
20
0.509025
30
0.0
11
0.083292
21
0.507108
31
0.0
0
LINE
8
FRONT
10
0.083292
20
0.507108
30
0.0
11
0.084854
21
0.505338
31
0.0
0
LINE
8
FRONT
10
0.084854
20
0.505338
30
0.0
11
0.086585
21
0.503732
31
0.0
0
LINE
8
FRONT
10
0.086585
20
0.503732
30
0.0
11
0.088467
21
0.502306
31
0.0
0
LINE
8
FRONT
10
0.088467
20
0.502306
30
0.0
11
0.090482
21
0.501075
31
0.0
0
LINE
8
FRONT
10
0.090482
20
0.501075
30
0.0
11
0.092609
21
0.500051
31
0.0
0
LINE
8
FRONT
10
0.092609
20
0.500051
30
0.0
11
0.094828
21
0.499243
31
0.0
0
LINE
8
FRONT
10
0.094828
20
0.499243
30
0.0
11
0.097116
21
0.498660
31
0.0
0
LINE
8
FRONT
10
0.097116
20
0.498660
30
0.0
11
0.099451
21
0.498308
31
0.0
0
LINE
8
FRONT
10
0.099451
20
0.498308
30
0.0
11
0.101809
21
0.498191
31
0.0
0
LINE
8
FRONT
10
0.601809
20
0.498684
30
0.0
11
0.604118
21
0.498799
31
0.0
0
LINE
8
FRONT
10
0.604118
20
0.498799
30
0.0
11
0.606404
21
0.499144
31
0.0
0
LINE
8
FRONT
10
0.606404
20
0.499144
30
0.0
11
0.608645
21
0.499715
31
0.0
0
LINE
8
FRONT
10
0.608645
20
0.499715
30
0.0
11
0.610817
21
0.500505
31
0.0
0
LINE
8
FRONT
10
0.610817
20
0.500505
30
0.0
11
0.612900
21
0.501508
31
0.0
0
LINE
8
FRONT
10
0.612900
20
0.501508
30
0.0
11
0.614873
21
0.502714
31
0.0
0
LINE
8
FRONT
10
0.614873
20
0.502714
30
0.0
11
0.616716
21
0.504110
31
0.0
0
LINE
8
FRONT
10
0.616716
20
0.504110
30
0.0
11
0.618411
21
0.505682
31
0.0
0
LINE
8
FRONT
10
0.618411
20
0.505682
30
0.0
11
0.619940
21
0.507416
31
0.0
0
LINE
8
FRONT
10
0.619940
20
0.507416
30
0.0
11
0.621290
21
0.509293
31
0.0
0
LINE
8
FRONT
10
0.621290
20
0.509293
30
0.0
11
0.622446
21
0.511295
31
0.0
0
LINE
8
FRONT
10
0.622446
20
0.511295
30
0.0
11
0.623397
21
0.513402
31
0.0
0
LINE
8
FRONT
10
0.623397
20
0.513402
30
0.0
11
0.624133
21
0.515594
31
0.0
0
LINE
8
FRONT
10
0.624133
20
0.515594
30
0.0
11
0.624648
21
0.517848
31
0.0
0
LINE
8
FRONT
10
0.624648
20
0.517848
30
0.0
11
0.624935
21
0.520142
31
0.0
0
LINE
8
FRONT
10
0.624935
20
0.520142
30
0.0
11
0.624993
21
0.522453
31
0.0
0
LINE
8
FRONT
10
0.624993
20
0.522453
30
0.0
11
0.624820
21
0.524759
31
0.0
0
LINE
8
FRONT
10
0.624820
20
0.524759
30
0.0
11
0.624419
21
0.527035
31
0.0
0
LINE
8
FRONT
10
0.624419
20
0.527035
30
0.0
11
0.623792
21
0.529261
31
0.0
0
LINE
8
FRONT
10
0.623792
20
0.529261
30
0.0
11
0.622948
21
0.531413
31
0.0
0
LINE
8
FRONT
10
0.622948
20
0.531413
30
0.0
11
0.621893
21
0.533470
31
0.0
0
LINE
8
FRONT
10
0.621893
20
0.533470
30
0.0
11
0.620639
21
0.535412
31
0.0
0
LINE
8
FRONT
10
0.620639
20
0.535412
30
0.0
11
0.619197
21
0.537220
31
0.0
0
LINE
8
FRONT
10
0.619197
20
0.537220
30
0.0
11
0.617583
21
0.538875
31
0.0
0
LINE
8
FRONT
10
0.617583
20
0.538875
30
0.0
11
0.615812
21
0.540361
31
0.0
0
LINE
8
FRONT
10
0.615812
20
0.540361
30
0.0
11
0.613902
21
0.541663
31
0.0
0
LINE
8
FRONT
10
0.613902
20
0.541663
30
0.0
11
0.611871
21
0.542769
31
0.0
0
LINE
8
FRONT
10
0.611871
20
0.542769
30
0.0
11
0.609741
21
0.543667
31
0.0
0
LINE
8
FRONT
10
0.609741
20
0.543667
30
0.0
11
0.607532
21
0.544349
31
0.0
0
LINE
8
FRONT
10
0.607532
20
0.544349
30
0.0
11
0.605266
21
0.544807
31
0.0
0
LINE
8
FRONT
10
0.605266
20
0.544807
30
0.0
11
0.602965
21
0.545037
31
0.0
0
LINE
8
FRONT
10
0.602965
20
0.545037
30
0.0
11
0.600653
21
0.545037
31
0.0
0
LINE
8
FRONT
10
0.600653
20
0.545037
30
0.0
11
0.598353
21
0.544807
31
0.0
0
LINE
8
FRONT
10
0.598353
20
0.544807
30
0.0
11
0.596087
21
0.544349
31
0.0
0
LINE
8
FRONT
10
0.596087
20
0.544349
30
0.0
11
0.593877
21
0.543667
31
0.0
0
LINE
8
FRONT
10
0.593877
20
0.543667
30
0.0
11
0.591747
21
0.542769
31
0.0
0
LINE
8
FRONT
10
0.591747
20
0.542769
30
0.0
11
0.589717
21
0.541663
31
0.0
0
LINE
8
FRONT
10
0.589717
20
0.541663
30
0.0
11
0.587807
21
0.540361
31
0.0
0
LINE
8
FRONT
10
0.587807
20
0.540361
30
0.0
11
0.586035
21
0.538875
31
0.0
0
LINE
8
FRONT
10
0.586035
20
0.538875
30
0.0
11
0.584421
21
0.537220
31
0.0
0
LINE
8
FRONT
10
0.584421
20
0.537220
30
0.0
11
0.582980
21
0.535412
31
0.0
0
LINE
8
FRONT
10
0.582980
20
0.535412
30
0.0
11
0.581725
21
0.533470
31
0.0
0
LINE
8
FRONT
10
0.581725
20
0.533470
30
0.0
11
0.580671
21
0.531413
31
0.0
0
LINE
8
FRONT
10
0.580671
20
0.531413
30
0.0
11
0.579826
21
0.529261
31
0.0
0
LINE
8
FRONT
10
0.579826
20
0.529261
30
0.0
11
0.579200
21
0.527035
31
0.0
0
LINE
8
FRONT
10
0.579200
20
0.527035
30
0.0
11
0.578798
21
0.524759
31
0.0
0
LINE
8
FRONT
10
0.578798
20
0.524759
30
0.0
11
0.578626
21
0.522453
31
0.0
0
LINE
8
FRONT
10
0.578626
20
0.522453
30
0.0
11
0.578683
21
0.520142
31
0.0
0
LINE
8
FRONT
10
0.578683
20
0.520142
30
0.0
11
0.578971
21
0.517848
31
0.0
0
LINE
8
FRONT
10
0.578971
20
0.517848
30
0.0
11
0.579485
21
0.515594
31
0.0
0
LINE
8
FRONT
10
0.579485
20
0.515594
30
0.0
11
0.580222
21
0.513402
31
0.0
0
LINE
8
FRONT
10
0.580222
20
0.513402
30
0.0
11
0.581172
21
0.511295
31
0.0
0
LINE
8
FRONT
10
0.581172
20
0.511295
30
0.0
11
0.582328
21
0.509293
31
0.0
0
LINE
8
FRONT
10
0.582328
20
0.509293
30
0.0
11
0.583678
21
0.507416
31
0.0
0
LINE
8
FRONT
10
0.583678
20
0.507416
30
0.0
11
0.585208
21
0.505682
31
0.0
0
LINE
8
FRONT
10
0.585208
20
0.505682
30
0.0
11
0.586902
21
0.504110
31
0.0
0
LINE
8
FRONT
10
0.586902
20
0.504110
30
0.0
11
0.588745
21
0.502714
31
0.0
0
LINE
8
FRONT
10
0.588745
20
0.502714
30
0.0
11
0.590718
21
0.501508
31
0.0
0
LINE
8
FRONT
10
0.590718
20
0.501508
30
0.0
11
0.592801
21
0.500505
31
0.0
0
LINE
8
FRONT
10
0.592801
20
0.500505
30
0.0
11
0.594974
21
0.499715
31
0.0
0
LINE
8
FRONT
10
0.594974
20
0.499715
30
0.0
11
0.597214
21
0.499144
31
0.0
0
LINE
8
FRONT
10
0.597214
20
0.499144
30
0.0
11
0.599500
21
0.498799
31
0.0
0
LINE
8
FRONT
10
0.599500
20
0.498799
30
0.0
11
0.601809
21
0.498684
31
0.0
0
LINE
8
FRONT
10
0.906497
20
0.498191
30
0.0
11
0.908855
21
0.498308
31
0.0
0
LINE
8
FRONT
10
0.908855
20
0.498308
30
0.0
11
0.911190
21
0.498660
31
0.0
0
LINE
8
FRONT
10
0.911190
20
0.498660
30
0.0
11
0.913478
21
0.499243
31
0.0
0
LINE
8
FRONT
10
0.913478
20
0.499243
30
0.0
11
0.915696
21
0.500051
31
0.0
0
LINE
8
FRONT
10
0.915696
20
0.500051
30
0.0
11
0.917824
21
0.501075
31
0.0
0
LINE
8
FRONT
10
0.917824
20
0.501075
30
0.0
11
0.919839
21
0.502306
31
0.0
0
LINE
8
FRONT
10
0.919839
20
0.502306
30
0.0
11
0.921721
21
0.503732
31
0.0
0
LINE
8
FRONT
10
0.921721
20
0.503732
30
0.0
11
0.923451
21
0.505338
31
0.0
0
LINE
8
FRONT
10
0.923451
20
0.505338
30
0.0
11
0.925014
21
0.507108
31
0.0
0
LINE
8
FRONT
10
0.925014
20
0.507108
30
0.0
11
0.926392
21
0.509025
31
0.0
0
LINE
8
FRONT
10
0.926392
20
0.509025
30
0.0
11
0.927573
21
0.511070
31
0.0
0
LINE
8
FRONT
10
0.927573
20
0.511070
30
0.0
11
0.928544
21
0.513222
31
0.0
0
LINE
8
FRONT
10
0.928544
20
0.513222
30
0.0
11
0.929296
21
0.515460
31
0.0
0
LINE
8
FRONT
10
0.929296
20
0.515460
30
0.0
11
0.929821
21
0.517762
31
0.0
0
LINE
8
FRONT
10
0.929821
20
0.517762
30
0.0
11
0.930115
21
0.520105
31
0.0
0
LINE
8
FRONT
10
0.930115
20
0.520105
30
0.0
11
0.930174
21
0.522465
31
0.0
0
LINE
8
FRONT
10
0.930174
20
0.522465
30
0.0
11
0.929997
21
0.524820
31
0.0
0
LINE
8
FRONT
10
0.929997
20
0.524820
30
0.0
11
0.929587
21
0.527145
31
0.0
0
LINE
8
FRONT
10
0.929587
20
0.527145
30
0.0
11
0.928948
21
0.529418
31
0.0
0
LINE
8
FRONT
10
0.928948
20
0.529418
30
0.0
11
0.928085
21
0.531616
31
0.0
0
LINE
8
FRONT
10
0.928085
20
0.531616
30
0.0
11
0.927008
21
0.533717
31
0.0
0
LINE
8
FRONT
10
0.927008
20
0.533717
30
0.0
11
0.925727
21
0.535701
31
0.0
0
LINE
8
FRONT
10
0.925727
20
0.535701
30
0.0
11
0.924255
21
0.537547
31
0.0
0
LINE
8
FRONT
10
0.924255
20
0.537547
30
0.0
11
0.922606
21
0.539237
31
0.0
0
LINE
8
FRONT
10
0.922606
20
0.539237
30
0.0
11
0.920797
21
0.540754
31
0.0
0
LINE
8
FRONT
10
0.920797
20
0.540754
30
0.0
11
0.918846
21
0.542085
31
0.0
0
LINE
8
FRONT
10
0.918846
20
0.542085
30
0.0
11
0.916773
21
0.543214
31
0.0
0
LINE
8
FRONT
10
0.916773
20
0.543214
30
0.0
11
0.914597
21
0.544131
31
0.0
0
LINE
8
FRONT
10
0.914597
20
0.544131
30
0.0
11
0.912341
21
0.544827
31
0.0
0
LINE
8
FRONT
10
0.912341
20
0.544827
30
0.0
11
0.910027
21
0.545295
31
0.0
0
LINE
8
FRONT
10
0.910027
20
0.545295
30
0.0
11
0.907677
21
0.545530
31
0.0
0
LINE
8
FRONT
10
0.907677
20
0.545530
30
0.0
11
0.905316
21
0.545530
31
0.0
0
LINE
8
FRONT
10
0.905316
20
0.545530
30
0.0
11
0.902967
21
0.545295
31
0.0
0
LINE
8
FRONT
10
0.902967
20
0.545295
30
0.0
11
0.900652
21
0.544827
31
0.0
0
LINE
8
FRONT
10
0.900652
20
0.544827
30
0.0
11
0.898396
21
0.544131
31
0.0
0
LINE
8
FRONT
10
0.898396
20
0.544131
30
0.0
11
0.896221
21
0.543214
31
0.0
0
LINE
8
FRONT
10
0.896221
20
0.543214
30
0.0
11
0.894147
21
0.542085
31
0.0
0
LINE
8
FRONT
10
0.894147
20
0.542085
30
0.0
11
0.892196
21
0.540754
31
0.0
0
LINE
8
FRONT
10
0.892196
20
0.540754
30
0.0
11
0.890387
21
0.539237
31
0.0
0
LINE
8
FRONT
10
0.890387
20
0.539237
30
0.0
11
0.888739
21
0.537547
31
0.0
0
LINE
8
FRONT
10
0.888739
20
0.537547
30
0.0
11
0.887267
21
0.535701
31
0.0
0
LINE
8
FRONT
10
0.887267
20
0.535701
30
0.0
11
0.885986
21
0.533717
31
0.0
0
LINE
8
FRONT
10
0.885986
20
0.533717
30
0.0
11
0.884908
21
0.531616
31
0.0
0
LINE
8
FRONT
10
0.884908
20
0.531616
30
0.0
11
0.884046
21
0.529418
31
0.0
0
LINE
8
FRONT
10
0.884046
20
0.529418
30
0.0
11
0.883406
21
0.527145
31
0.0
0
LINE
8
FRONT
10
0.883406
20
0.527145
30
0.0
11
0.882996
21
0.524820
31
0.0
0
LINE
8
FRONT
10
0.882996
20
0.524820
30
0.0
11
0.882820
21
0.522465
31
0.0
0
LINE
8
FRONT
10
0.882820
20
0.522465
30
0.0
11
0.882879
21
0.520105
31
0.0
0
LINE
8
FRONT
10
0.882879
20
0.520105
30
0.0
11
0.883172
21
0.517762
31
0.0
0
LINE
8
FRONT
10
0.883172
20
0.517762
30
0.0
11
0.883698
21
0.515460
31
0.0
0
LINE
8
FRONT
10
0.883698
20
0.515460
30
0.0
11
0.884450
21
0.513222
31
0.0
0
LINE
8
FRONT
10
0.884450
20
0.513222
30
0.0
11
0.885421
21
0.511070
31
0.0
0
LINE
8
FRONT
10
0.885421
20
0.511070
30
0.0
11
0.886601
21
0.509025
31
0.0
0
LINE
8
FRONT
10
0.886601
20
0.509025
30
0.0
11
0.887980
21
0.507108
31
0.0
0
LINE
8
FRONT
10
0.887980
20
0.507108
30
0.0
11
0.889542
21
0.505338
31
0.0
0
LINE
8
FRONT
10
0.889542
20
0.505338
30
0.0
11
0.891273
21
0.503732
31
0.0
0
LINE
8
FRONT
10
0.891273
20
0.503732
30
0.0
11
0.893155
21
0.502306
31
0.0
0
LINE
8
FRONT
10
0.893155
20
0.502306
30
0.0
11
0.895170
21
0.501075
31
0.0
0
LINE
8
FRONT
10
0.895170
20
0.501075
30
0.0
11
0.897297
21
0.500051
31
0.0
0
LINE
8
FRONT
10
0.897297
20
0.500051
30
0.0
11
0.899516
21
0.499243
31
0.0
0
LINE
8
FRONT
10
0.899516
20
0.499243
30
0.0
11
0.901804
21
0.498660
31
0.0
0
LINE
8
FRONT
10
0.901804
20
0.498660
30
0.0
11
0.904139
21
0.498308
31
0.0
0
LINE
8
FRONT
10
0.904139
20
0.498308
30
0.0
11
0.906497
21
0.498191
31
0.0
0
LINE
8
LEFT
10
1.209375
20
0.475000
30
0.0
11
1.482813
21
0.475000
31
0.0
0
LINE
8
LEFT
10
1.209375
20
0.581086
30
0.0
11
1.482813
21
0.581086
31
0.0
0
LINE
8
LEFT
10
1.482813
20
0.581086
30
0.0
11
1.482813
21
0.475000
31
0.0
0
LINE
8
LEFT
10
1.209375
20
0.581086
30
0.0
11
1.209375
21
0.475000
31
0.0
0
LINE
8
LEFT_HID
6
HIDDEN
10
1.209375
20
0.498191
30
0.0
11
1.209375
21
0.545559
31
0.0
0
LINE
8
LEFT_HID
6
HIDDEN
10
1.209375
20
0.545559
30
0.0
11
1.209375
21
0.498191
31
0.0
0
LINE
8
LEFT_HID
6
HIDDEN
10
1.209375
20
0.498684
30
0.0
11
1.209375
21
0.545066
31
0.0
0
LINE
8
LEFT_HID
6
HIDDEN
10
1.209375
20
0.545066
30
0.0
11
1.209375
21
0.498684
31
0.0
0
LINE
8
LEFT_HID
6
HIDDEN
10
1.209375
20
0.498191
30
0.0
11
1.209375
21
0.545559
31
0.0
0
LINE
8
LEFT_HID
6
HIDDEN
10
1.209375
20
0.545559
30
0.0
11
1.209375
21
0.498191
31
0.0
0
LINE
8
LEFT_HID
6
HIDDEN
10
1.482813
20
0.498191
30
0.0
11
1.482813
21
0.545559
31
0.0
0
LINE
8
LEFT_HID
6
HIDDEN
10
1.482813
20
0.545559
30
0.0
11
1.482813
21
0.498191
31
0.0
0
LINE
8
LEFT_HID
6
HIDDEN
10
1.482813
20
0.498684
30
0.0
11
1.482813
21
0.545066
31
0.0
0
LINE
8
LEFT_HID
6
HIDDEN
10
1.482813
20
0.545066
30
0.0
11
1.482813
21
0.498684
31
0.0
0
LINE
8
LEFT_HID
6
HIDDEN
10
1.482813
20
0.498191
30
0.0
11
1.482813
21
0.545559
31
0.0
0
LINE
8
LEFT_HID
6
HIDDEN
10
1.482813
20
0.545559
30
0.0
11
1.482813
21
0.498191
31
0.0
0
LINE
8
LEFT_HID
6
HIDDEN
10
1.482813
20
0.498191
30
0.0
11
1.209375
21
0.498191
31
0.0
0
LINE
8
LEFT_HID
6
HIDDEN
10
1.482813
20
0.498684
30
0.0
11
1.209375
21
0.498684
31
0.0
0
LINE
8
LEFT_HID
6
HIDDEN
10
1.482813
20
0.498191
30
0.0
11
1.209375
21
0.498191
31
0.0
0
LINE
8
LEFT_HID
6
HIDDEN
10
1.209375
20
0.545559
30
0.0
11
1.482813
21
0.545559
31
0.0
0
LINE
8
LEFT_HID
6
HIDDEN
10
1.209375
20
0.545066
30
0.0
11
1.482813
21
0.545066
31
0.0
0
LINE
8
LEFT_HID
6
HIDDEN
10
1.209375
20
0.545559
30
0.0
11
1.482813
21
0.545559
31
0.0
0
LINE
8
TOP
10
0.000000
20
0.273438
30
0.0
11
0.000000
21
0.000000
31
0.0
0
LINE
8
TOP
10
1.007812
20
0.273438
30
0.0
11
1.007812
21
0.000000
31
0.0
0
LINE
8
TOP
10
1.007812
20
0.273438
30
0.0
11
0.000000
21
0.273438
31
0.0
0
LINE
8
TOP
10
1.007812
20
0.000000
30
0.0
11
0.000000
21
0.000000
31
0.0
0
LINE
8
TOP_HID
6
HIDDEN
10
0.000000
20
0.000000
30
0.0
11
1.007812
21
0.000000
31
0.0
0
LINE
8
TOP_HID
6
HIDDEN
10
0.101809
20
0.273438
30
0.0
11
0.125493
21
0.273438
31
0.0
0
LINE
8
TOP_HID
6
HIDDEN
10
0.125493
20
0.273438
30
0.0
11
0.078125
21
0.273438
31
0.0
0
LINE
8
TOP_HID
6
HIDDEN
10
0.078125
20
0.273438
30
0.0
11
0.101809
21
0.273438
31
0.0
0
LINE
8
TOP_HID
6
HIDDEN
10
0.601809
20
0.273438
30
0.0
11
0.625000
21
0.273438
31
0.0
0
LINE
8
TOP_HID
6
HIDDEN
10
0.625000
20
0.273438
30
0.0
11
0.578618
21
0.273438
31
0.0
0
LINE
8
TOP_HID
6
HIDDEN
10
0.578618
20
0.273438
30
0.0
11
0.601809
21
0.273438
31
0.0
0
LINE
8
TOP_HID
6
HIDDEN
10
0.906497
20
0.273438
30
0.0
11
0.930181
21
0.273438
31
0.0
0
LINE
8
TOP_HID
6
HIDDEN
10
0.930181
20
0.273438
30
0.0
11
0.882812
21
0.273438
31
0.0
0
LINE
8
TOP_HID
6
HIDDEN
10
0.882812
20
0.273438
30
0.0
11
0.906497
21
0.273438
31
0.0
0
LINE
8
TOP_HID
6
HIDDEN
10
0.101809
20
0.000000
30
0.0
11
0.125493
21
0.000000
31
0.0
0
LINE
8
TOP_HID
6
HIDDEN
10
0.125493
20
0.000000
30
0.0
11
0.078125
21
0.000000
31
0.0
0
LINE
8
TOP_HID
6
HIDDEN
10
0.078125
20
0.000000
30
0.0
11
0.101809
21
0.000000
31
0.0
0
LINE
8
TOP_HID
6
HIDDEN
10
0.601809
20
0.000000
30
0.0
11
0.625000
21
0.000000
31
0.0
0
LINE
8
TOP_HID
6
HIDDEN
10
0.625000
20
0.000000
30
0.0
11
0.578618
21
0.000000
31
0.0
0
LINE
8
TOP_HID
6
HIDDEN
10
0.578618
20
0.000000
30
0.0
11
0.601809
21
0.000000
31
0.0
0
LINE
8
TOP_HID
6
HIDDEN
10
0.906497
20
0.000000
30
0.0
11
0.930181
21
0.000000
31
0.0
0
LINE
8
TOP_HID
6
HIDDEN
10
0.930181
20
0.000000
30
0.0
11
0.882812
21
0.000000
31
0.0
0
LINE
8
TOP_HID
6
HIDDEN
10
0.882812
20
0.000000
30
0.0
11
0.906497
21
0.000000
31
0.0
0
LINE
8
TOP_HID
6
HIDDEN
10
0.078125
20
0.273438
30
0.0
11
0.078125
21
0.000000
31
0.0
0
LINE
8
TOP_HID
6
HIDDEN
10
0.125493
20
0.273438
30
0.0
11
0.125493
21
0.000000
31
0.0
0
LINE
8
TOP_HID
6
HIDDEN
10
0.578618
20
0.273438
30
0.0
11
0.578618
21
0.000000
31
0.0
0
LINE
8
TOP_HID
6
HIDDEN
10
0.625000
20
0.273438
30
0.0
11
0.625000
21
0.000000
31
0.0
0
LINE
8
TOP_HID
6
HIDDEN
10
0.882812
20
0.273438
30
0.0
11
0.882812
21
0.000000
31
0.0
0
LINE
8
TOP_HID
6
HIDDEN
10
0.930181
20
0.273438
30
0.0
11
0.930181
21
0.000000
31
0.0
0
ENDSEC
0
EOF
