0
SECTION
2
HEADER
9
$ACADVER
1
AC1009
0
ENDSEC
0
SECTION
2
TABLES
0
TABLE
2
LTYPE
70
3
0
LTYPE
2
CONTINUOUS
70
0
3
Solid line
72
65
73
0
40
0.0
0
LTYPE
2
HIDDEN
70
0
3
__ __ __ __ __
72
65
73
2
40
0.071250
49
0.047524
49
-0.023726
0
LTYPE
2
CENTER
70
0
3
___ _ ___ _ ___
72
65
73
4
40
0.166226
49
0.094976
49
-0.023726
49
0.023726
49
-0.023726
0
ENDTAB
0
TABLE
2
LAYER
70
6
0
LAYER
2
0
70
0
62
7
6
CONTINUOUS
0
LAYER
2
FRONT
70
0
62
7
6
CONTINUOUS
0
LAYER
2
LEFT
70
0
62
7
6
CONTINUOUS
0
LAYER
2
LEFT_HID
70
0
62
7
6
HIDDEN
0
LAYER
2
TOP
70
0
62
7
6
CONTINUOUS
0
LAYER
2
TOP_HID
70
0
62
7
6
HIDDEN
0
ENDTAB
0
ENDSEC
0
SECTION
2
ENTITIES
0
LINE
8
FRONT
10
0.001363
20
1.017812
30
0.0
11
0.002018
21
1.015372
31
0.0
0
LINE
8
FRONT
10
0.002018
20
1.015372
30
0.0
11
0.002760
21
1.012957
31
0.0
0
LINE
8
FRONT
10
0.002760
20
1.012957
30
0.0
11
0.003589
21
1.010569
31
0.0
0
LINE
8
FRONT
10
0.003589
20
1.010569
30
0.0
11
0.004502
21
1.008213
31
0.0
0
LINE
8
FRONT
10
0.004502
20
1.008213
30
0.0
11
0.005500
21
1.005891
31
0.0
0
LINE
8
FRONT
10
0.005500
20
1.005891
30
0.0
11
0.006579
21
1.003607
31
0.0
0
LINE
8
FRONT
10
0.006579
20
1.003607
30
0.0
11
0.007740
21
1.001362
31
0.0
0
LINE
8
FRONT
10
0.007740
20
1.001362
30
0.0
11
0.008981
21
0.999161
31
0.0
0
LINE
8
FRONT
10
0.008981
20
0.999161
30
0.0
11
0.010300
21
0.997005
31
0.0
0
LINE
8
FRONT
10
0.010300
20
0.997005
30
0.0
11
0.011695
21
0.994898
31
0.0
0
LINE
8
FRONT
10
0.011695
20
0.994898
30
0.0
11
0.013165
21
0.992843
31
0.0
0
LINE
8
FRONT
10
0.013165
20
0.992843
30
0.0
11
0.014707
21
0.990841
31
0.0
0
LINE
8
FRONT
10
0.014707
20
0.990841
30
0.0
11
0.016320
21
0.988896
31
0.0
0
LINE
8
FRONT
10
0.016320
20
0.988896
30
0.0
11
0.018002
21
0.987010
31
0.0
0
LINE
8
FRONT
10
0.018002
20
0.987010
30
0.0
11
0.019750
21
0.985186
31
0.0
0
LINE
8
FRONT
10
0.019750
20
0.985186
30
0.0
11
0.021563
21
0.983425
31
0.0
0
LINE
8
FRONT
10
0.021563
20
0.983425
30
0.0
11
0.023438
21
0.981730
31
0.0
0
LINE
8
FRONT
10
0.023438
20
0.981730
30
0.0
11
0.025372
21
0.980104
31
0.0
0
LINE
8
FRONT
10
0.025372
20
0.980104
30
0.0
11
0.027363
21
0.978548
31
0.0
0
LINE
8
FRONT
10
0.027363
20
0.978548
30
0.0
11
0.029408
21
0.977065
31
0.0
0
LINE
8
FRONT
10
0.029408
20
0.977065
30
0.0
11
0.031506
21
0.975655
31
0.0
0
LINE
8
FRONT
10
0.031506
20
0.975655
30
0.0
11
0.033652
21
0.974322
31
0.0
0
LINE
8
FRONT
10
0.033652
20
0.974322
30
0.0
11
0.035845
21
0.973066
31
0.0
0
LINE
8
FRONT
10
0.035845
20
0.973066
30
0.0
11
0.038082
21
0.971890
31
0.0
0
LINE
8
FRONT
10
0.038082
20
0.971890
30
0.0
11
0.040359
21
0.970795
31
0.0
0
LINE
8
FRONT
10
0.040359
20
0.970795
30
0.0
11
0.042674
21
0.969782
31
0.0
0
LINE
8
FRONT
10
0.042674
20
0.969782
30
0.0
11
0.045024
21
0.968853
31
0.0
0
LINE
8
FRONT
10
0.045024
20
0.968853
30
0.0
11
0.047406
21
0.968008
31
0.0
0
LINE
8
FRONT
10
0.047406
20
0.968008
30
0.0
11
0.049816
21
0.967250
31
0.0
0
LINE
8
FRONT
10
0.049816
20
0.967250
30
0.0
11
0.052252
21
0.966578
31
0.0
0
LINE
8
FRONT
10
0.052252
20
0.966578
30
0.0
11
0.054711
21
0.965994
31
0.0
0
LINE
8
FRONT
10
0.054711
20
0.965994
30
0.0
11
0.057189
21
0.965498
31
0.0
0
LINE
8
FRONT
10
0.057189
20
0.965498
30
0.0
11
0.059683
21
0.965092
31
0.0
0
LINE
8
FRONT
10
0.059683
20
0.965092
30
0.0
11
0.062190
21
0.964775
31
0.0
0
LINE
8
FRONT
10
0.062190
20
0.964775
30
0.0
11
0.064706
21
0.964548
31
0.0
0
LINE
8
FRONT
10
0.064706
20
0.964548
30
0.0
11
0.067230
21
0.964412
31
0.0
0
LINE
8
FRONT
10
0.067230
20
0.964412
30
0.0
11
0.069756
21
0.964366
31
0.0
0
LINE
8
FRONT
10
0.069756
20
0.964366
30
0.0
11
0.072283
21
0.964410
31
0.0
0
LINE
8
FRONT
10
0.072283
20
0.964410
30
0.0
11
0.074806
21
0.964545
31
0.0
0
LINE
8
FRONT
10
0.074806
20
0.964545
30
0.0
11
0.077323
21
0.964771
31
0.0
0
LINE
8
FRONT
10
0.077323
20
0.964771
30
0.0
11
0.079830
21
0.965086
31
0.0
0
LINE
8
FRONT
10
0.079830
20
0.965086
30
0.0
11
0.082324
21
0.965491
31
0.0
0
LINE
8
FRONT
10
0.082324
20
0.965491
30
0.0
11
0.084803
21
0.965986
31
0.0
0
LINE
8
FRONT
10
0.084803
20
0.965986
30
0.0
11
0.087261
21
0.966568
31
0.0
0
LINE
8
FRONT
10
0.087261
20
0.966568
30
0.0
11
0.089698
21
0.967239
31
0.0
0
LINE
8
FRONT
10
0.089698
20
0.967239
30
0.0
11
0.092109
21
0.967996
31
0.0
0
LINE
8
FRONT
10
0.092109
20
0.967996
30
0.0
11
0.094491
21
0.968839
31
0.0
0
LINE
8
FRONT
10
0.094491
20
0.968839
30
0.0
11
0.096841
21
0.969768
31
0.0
0
LINE
8
FRONT
10
0.096841
20
0.969768
30
0.0
11
0.099157
21
0.970779
31
0.0
0
LINE
8
FRONT
10
0.099157
20
0.970779
30
0.0
11
0.101434
21
0.971873
31
0.0
0
LINE
8
FRONT
10
0.101434
20
0.971873
30
0.0
11
0.103672
21
0.973048
31
0.0
0
LINE
8
FRONT
10
0.103672
20
0.973048
30
0.0
11
0.105865
21
0.974303
31
0.0
0
LINE
8
FRONT
10
0.105865
20
0.974303
30
0.0
11
0.108013
21
0.975635
31
0.0
0
LINE
8
FRONT
10
0.108013
20
0.975635
30
0.0
11
0.110111
21
0.977043
31
0.0
0
LINE
8
FRONT
10
0.110111
20
0.977043
30
0.0
11
0.112157
21
0.978526
31
0.0
0
LINE
8
FRONT
10
0.112157
20
0.978526
30
0.0
11
0.114149
21
0.980080
31
0.0
0
LINE
8
FRONT
10
0.114149
20
0.980080
30
0.0
11
0.116084
21
0.981706
31
0.0
0
LINE
8
FRONT
10
0.116084
20
0.981706
30
0.0
11
0.117959
21
0.983399
31
0.0
0
LINE
8
FRONT
10
0.117959
20
0.983399
30
0.0
11
0.119773
21
0.985159
31
0.0
0
LINE
8
FRONT
10
0.119773
20
0.985159
30
0.0
11
0.121522
21
0.986983
31
0.0
0
LINE
8
FRONT
10
0.121522
20
0.986983
30
0.0
11
0.123205
21
0.988868
31
0.0
0
LINE
8
FRONT
10
0.123205
20
0.988868
30
0.0
11
0.124819
21
0.990812
31
0.0
0
LINE
8
FRONT
10
0.124819
20
0.990812
30
0.0
11
0.126363
21
0.992812
31
0.0
0
LINE
8
FRONT
10
0.126363
20
0.992813
30
0.0
11
0.326363
21
1.180313
31
0.0
0
LINE
8
FRONT
10
0.326363
20
1.180313
30
0.0
11
0.329608
21
1.183046
31
0.0
0
LINE
8
FRONT
10
0.329608
20
1.183046
30
0.0
11
0.332980
21
1.185621
31
0.0
0
LINE
8
FRONT
10
0.332980
20
1.185621
30
0.0
11
0.336472
21
1.188032
31
0.0
0
LINE
8
FRONT
10
0.336472
20
1.188032
30
0.0
11
0.340075
21
1.190273
31
0.0
0
LINE
8
FRONT
10
0.340075
20
1.190273
30
0.0
11
0.343781
21
1.192338
31
0.0
0
LINE
8
FRONT
10
0.343781
20
1.192338
30
0.0
11
0.347583
21
1.194224
31
0.0
0
LINE
8
FRONT
10
0.347583
20
1.194224
30
0.0
11
0.351470
21
1.195925
31
0.0
0
LINE
8
FRONT
10
0.351470
20
1.195925
30
0.0
11
0.355434
21
1.197438
31
0.0
0
LINE
8
FRONT
10
0.355434
20
1.197438
30
0.0
11
0.359466
21
1.198760
31
0.0
0
LINE
8
FRONT
10
0.359466
20
1.198760
30
0.0
11
0.363556
21
1.199886
31
0.0
0
LINE
8
FRONT
10
0.363556
20
1.199886
30
0.0
11
0.367696
21
1.200816
31
0.0
0
LINE
8
FRONT
10
0.367696
20
1.200816
30
0.0
11
0.371876
21
1.201546
31
0.0
0
LINE
8
FRONT
10
0.371876
20
1.201546
30
0.0
11
0.376086
21
1.202076
31
0.0
0
LINE
8
FRONT
10
0.376086
20
1.202076
30
0.0
11
0.380316
21
1.202403
31
0.0
0
LINE
8
FRONT
10
0.380316
20
1.202403
30
0.0
11
0.384557
21
1.202527
31
0.0
0
LINE
8
FRONT
10
0.384557
20
1.202527
30
0.0
11
0.388800
21
1.202447
31
0.0
0
LINE
8
FRONT
10
0.388800
20
1.202447
30
0.0
11
0.393033
21
1.202165
31
0.0
0
LINE
8
FRONT
10
0.393033
20
1.202165
30
0.0
11
0.397249
21
1.201680
31
0.0
0
LINE
8
FRONT
10
0.397249
20
1.201680
30
0.0
11
0.401436
21
1.200994
31
0.0
0
LINE
8
FRONT
10
0.401436
20
1.200994
30
0.0
11
0.405585
21
1.200107
31
0.0
0
LINE
8
FRONT
10
0.405585
20
1.200107
30
0.0
11
0.409687
21
1.199024
31
0.0
0
LINE
8
FRONT
10
0.409687
20
1.199024
30
0.0
11
0.413733
21
1.197745
31
0.0
0
LINE
8
FRONT
10
0.413733
20
1.197745
30
0.0
11
0.417713
21
1.196273
31
0.0
0
LINE
8
FRONT
10
0.417713
20
1.196273
30
0.0
11
0.421618
21
1.194613
31
0.0
0
LINE
8
FRONT
10
0.421618
20
1.194613
30
0.0
11
0.425438
21
1.192767
31
0.0
0
LINE
8
FRONT
10
0.425438
20
1.192767
30
0.0
11
0.429166
21
1.190741
31
0.0
0
LINE
8
FRONT
10
0.429166
20
1.190741
30
0.0
11
0.432793
21
1.188539
31
0.0
0
LINE
8
FRONT
10
0.432793
20
1.188539
30
0.0
11
0.436310
21
1.186165
31
0.0
0
LINE
8
FRONT
10
0.436310
20
1.186165
30
0.0
11
0.439709
21
1.183625
31
0.0
0
LINE
8
FRONT
10
0.439709
20
1.183625
30
0.0
11
0.442982
21
1.180926
31
0.0
0
LINE
8
FRONT
10
0.442982
20
1.180926
30
0.0
11
0.446123
21
1.178073
31
0.0
0
LINE
8
FRONT
10
0.446123
20
1.178073
30
0.0
11
0.449123
21
1.175072
31
0.0
0
LINE
8
FRONT
10
0.449123
20
1.175072
30
0.0
11
0.451976
21
1.171932
31
0.0
0
LINE
8
FRONT
10
0.451976
20
1.171932
30
0.0
11
0.454676
21
1.168658
31
0.0
0
LINE
8
FRONT
10
0.454676
20
1.168658
30
0.0
11
0.457215
21
1.165259
31
0.0
0
LINE
8
FRONT
10
0.457215
20
1.165259
30
0.0
11
0.459589
21
1.161742
31
0.0
0
LINE
8
FRONT
10
0.459589
20
1.161742
30
0.0
11
0.461792
21
1.158116
31
0.0
0
LINE
8
FRONT
10
0.461792
20
1.158116
30
0.0
11
0.463818
21
1.154388
31
0.0
0
LINE
8
FRONT
10
0.463818
20
1.154388
30
0.0
11
0.465663
21
1.150567
31
0.0
0
LINE
8
FRONT
10
0.465663
20
1.150567
30
0.0
11
0.467324
21
1.146662
31
0.0
0
LINE
8
FRONT
10
0.467324
20
1.146662
30
0.0
11
0.468795
21
1.142683
31
0.0
0
LINE
8
FRONT
10
0.468795
20
1.142683
30
0.0
11
0.470074
21
1.138637
31
0.0
0
LINE
8
FRONT
10
0.470074
20
1.138637
30
0.0
11
0.471158
21
1.134535
31
0.0
0
LINE
8
FRONT
10
0.471158
20
1.134535
30
0.0
11
0.472044
21
1.130385
31
0.0
0
LINE
8
FRONT
10
0.472044
20
1.130385
30
0.0
11
0.472730
21
1.126198
31
0.0
0
LINE
8
FRONT
10
0.472730
20
1.126198
30
0.0
11
0.473215
21
1.121983
31
0.0
0
LINE
8
FRONT
10
0.473215
20
1.121983
30
0.0
11
0.473498
21
1.117749
31
0.0
0
LINE
8
FRONT
10
0.473498
20
1.117749
30
0.0
11
0.473577
21
1.113507
31
0.0
0
LINE
8
FRONT
10
0.473577
20
1.113507
30
0.0
11
0.473453
21
1.109266
31
0.0
0
LINE
8
FRONT
10
0.473453
20
1.109266
30
0.0
11
0.473126
21
1.105035
31
0.0
0
LINE
8
FRONT
10
0.473126
20
1.105035
30
0.0
11
0.472597
21
1.100825
31
0.0
0
LINE
8
FRONT
10
0.472597
20
1.100825
30
0.0
11
0.471866
21
1.096646
31
0.0
0
LINE
8
FRONT
10
0.471866
20
1.096646
30
0.0
11
0.470937
21
1.092506
31
0.0
0
LINE
8
FRONT
10
0.470937
20
1.092506
30
0.0
11
0.469810
21
1.088415
31
0.0
0
LINE
8
FRONT
10
0.469810
20
1.088415
30
0.0
11
0.468488
21
1.084383
31
0.0
0
LINE
8
FRONT
10
0.468488
20
1.084383
30
0.0
11
0.466975
21
1.080419
31
0.0
0
LINE
8
FRONT
10
0.466975
20
1.080419
30
0.0
11
0.465274
21
1.076532
31
0.0
0
LINE
8
FRONT
10
0.465274
20
1.076532
30
0.0
11
0.463388
21
1.072731
31
0.0
0
LINE
8
FRONT
10
0.463388
20
1.072731
30
0.0
11
0.461323
21
1.069025
31
0.0
0
LINE
8
FRONT
10
0.461323
20
1.069025
30
0.0
11
0.459082
21
1.065422
31
0.0
0
LINE
8
FRONT
10
0.459082
20
1.065422
30
0.0
11
0.456672
21
1.061930
31
0.0
0
LINE
8
FRONT
10
0.456672
20
1.061930
30
0.0
11
0.454097
21
1.058558
31
0.0
0
LINE
8
FRONT
10
0.454097
20
1.058558
30
0.0
11
0.451363
21
1.055313
31
0.0
0
LINE
8
FRONT
10
0.451363
20
1.055313
30
0.0
11
0.213863
21
0.805313
31
0.0
0
LINE
8
FRONT
10
0.213863
20
0.805313
30
0.0
11
0.213863
21
0.792813
31
0.0
0
LINE
8
FRONT
10
0.213863
20
0.792813
30
0.0
11
0.763863
21
0.792813
31
0.0
0
LINE
8
FRONT
10
0.763863
20
0.792813
30
0.0
11
0.770561
21
0.795510
31
0.0
0
LINE
8
FRONT
10
0.770561
20
0.795510
30
0.0
11
0.777208
21
0.798331
31
0.0
0
LINE
8
FRONT
10
0.777208
20
0.798331
30
0.0
11
0.783803
21
0.801272
31
0.0
0
LINE
8
FRONT
10
0.783803
20
0.801272
30
0.0
11
0.790343
21
0.804334
31
0.0
0
LINE
8
FRONT
10
0.790343
20
0.804334
30
0.0
11
0.796825
21
0.807515
31
0.0
0
LINE
8
FRONT
10
0.796825
20
0.807515
30
0.0
11
0.803248
21
0.810814
31
0.0
0
LINE
8
FRONT
10
0.803248
20
0.810814
30
0.0
11
0.809610
21
0.814230
31
0.0
0
LINE
8
FRONT
10
0.809610
20
0.814230
30
0.0
11
0.815908
21
0.817762
31
0.0
0
LINE
8
FRONT
10
0.815908
20
0.817762
30
0.0
11
0.822141
21
0.821408
31
0.0
0
LINE
8
FRONT
10
0.822141
20
0.821408
30
0.0
11
0.828305
21
0.825169
31
0.0
0
LINE
8
FRONT
10
0.828305
20
0.825169
30
0.0
11
0.834400
21
0.829041
31
0.0
0
LINE
8
FRONT
10
0.834400
20
0.829041
30
0.0
11
0.840423
21
0.833025
31
0.0
0
LINE
8
FRONT
10
0.840423
20
0.833025
30
0.0
11
0.846372
21
0.837118
31
0.0
0
LINE
8
FRONT
10
0.846372
20
0.837118
30
0.0
11
0.852245
21
0.841319
31
0.0
0
LINE
8
FRONT
10
0.852245
20
0.841319
30
0.0
11
0.858040
21
0.845627
31
0.0
0
LINE
8
FRONT
10
0.858040
20
0.845627
30
0.0
11
0.863755
21
0.850040
31
0.0
0
LINE
8
FRONT
10
0.863755
20
0.850040
30
0.0
11
0.869388
21
0.854558
31
0.0
0
LINE
8
FRONT
10
0.869388
20
0.854558
30
0.0
11
0.874938
21
0.859177
31
0.0
0
LINE
8
FRONT
10
0.874938
20
0.859177
30
0.0
11
0.880402
21
0.863898
31
0.0
0
LINE
8
FRONT
10
0.880402
20
0.863898
30
0.0
11
0.885779
21
0.868718
31
0.0
0
LINE
8
FRONT
10
0.885779
20
0.868718
30
0.0
11
0.891067
21
0.873635
31
0.0
0
LINE
8
FRONT
10
0.891067
20
0.873635
30
0.0
11
0.896263
21
0.878649
31
0.0
0
LINE
8
FRONT
10
0.896263
20
0.878649
30
0.0
11
0.901368
21
0.883756
31
0.0
0
LINE
8
FRONT
10
0.901368
20
0.883756
30
0.0
11
0.906377
21
0.888957
31
0.0
0
LINE
8
FRONT
10
0.906377
20
0.888957
30
0.0
11
0.911291
21
0.894248
31
0.0
0
LINE
8
FRONT
10
0.911291
20
0.894248
30
0.0
11
0.916107
21
0.899628
31
0.0
0
LINE
8
FRONT
10
0.916107
20
0.899628
30
0.0
11
0.920824
21
0.905096
31
0.0
0
LINE
8
FRONT
10
0.920824
20
0.905096
30
0.0
11
0.925439
21
0.910649
31
0.0
0
LINE
8
FRONT
10
0.925439
20
0.910649
30
0.0
11
0.929953
21
0.916285
31
0.0
0
LINE
8
FRONT
10
0.929953
20
0.916285
30
0.0
11
0.934362
21
0.922004
31
0.0
0
LINE
8
FRONT
10
0.934362
20
0.922004
30
0.0
11
0.938666
21
0.927802
31
0.0
0
LINE
8
FRONT
10
0.938666
20
0.927802
30
0.0
11
0.942863
21
0.933678
31
0.0
0
LINE
8
FRONT
10
0.942863
20
0.933678
30
0.0
11
0.946952
21
0.939629
31
0.0
0
LINE
8
FRONT
10
0.946952
20
0.939629
30
0.0
11
0.950931
21
0.945655
31
0.0
0
LINE
8
FRONT
10
0.950931
20
0.945655
30
0.0
11
0.954799
21
0.951753
31
0.0
0
LINE
8
FRONT
10
0.954799
20
0.951753
30
0.0
11
0.958555
21
0.957920
31
0.0
0
LINE
8
FRONT
10
0.958555
20
0.957920
30
0.0
11
0.962197
21
0.964155
31
0.0
0
LINE
8
FRONT
10
0.962197
20
0.964155
30
0.0
11
0.965725
21
0.970455
31
0.0
0
LINE
8
FRONT
10
0.965725
20
0.970455
30
0.0
11
0.969136
21
0.976820
31
0.0
0
LINE
8
FRONT
10
0.969136
20
0.976820
30
0.0
11
0.972431
21
0.983245
31
0.0
0
LINE
8
FRONT
10
0.972431
20
0.983245
30
0.0
11
0.975607
21
0.989730
31
0.0
0
LINE
8
FRONT
10
0.975607
20
0.989730
30
0.0
11
0.978664
21
0.996272
31
0.0
0
LINE
8
FRONT
10
0.978664
20
0.996272
30
0.0
11
0.981601
21
1.002869
31
0.0
0
LINE
8
FRONT
10
0.981601
20
1.002869
30
0.0
11
0.984416
21
1.009518
31
0.0
0
LINE
8
FRONT
10
0.984416
20
1.009518
30
0.0
11
0.987110
21
1.016218
31
0.0
0
LINE
8
FRONT
10
0.987110
20
1.016218
30
0.0
11
0.989680
21
1.022966
31
0.0
0
LINE
8
FRONT
10
0.989680
20
1.022966
30
0.0
11
0.992126
21
1.029760
31
0.0
0
LINE
8
FRONT
10
0.992126
20
1.029760
30
0.0
11
0.994447
21
1.036598
31
0.0
0
LINE
8
FRONT
10
0.994447
20
1.036598
30
0.0
11
0.996643
21
1.043476
31
0.0
0
LINE
8
FRONT
10
0.996643
20
1.043476
30
0.0
11
0.998712
21
1.050395
31
0.0
0
LINE
8
FRONT
10
0.998712
20
1.050395
30
0.0
11
1.000655
21
1.057349
31
0.0
0
LINE
8
FRONT
10
1.000655
20
1.057349
30
0.0
11
1.002469
21
1.064338
31
0.0
0
LINE
8
FRONT
10
1.002469
20
1.064338
30
0.0
11
1.004156
21
1.071360
31
0.0
0
LINE
8
FRONT
10
1.004156
20
1.071360
30
0.0
11
1.005714
21
1.078411
31
0.0
0
LINE
8
FRONT
10
1.005714
20
1.078411
30
0.0
11
1.007142
21
1.085489
31
0.0
0
LINE
8
FRONT
10
1.007142
20
1.085489
30
0.0
11
1.008440
21
1.092592
31
0.0
0
LINE
8
FRONT
10
1.008440
20
1.092592
30
0.0
11
1.009608
21
1.099718
31
0.0
0
LINE
8
FRONT
10
1.009608
20
1.099718
30
0.0
11
1.010646
21
1.106864
31
0.0
0
LINE
8
FRONT
10
1.010646
20
1.106864
30
0.0
11
1.011552
21
1.114028
31
0.0
0
LINE
8
FRONT
10
1.011552
20
1.114028
30
0.0
11
1.012328
21
1.121207
31
0.0
0
LINE
8
FRONT
10
1.012328
20
1.121207
30
0.0
11
1.012971
21
1.128399
31
0.0
0
LINE
8
FRONT
10
1.012971
20
1.128399
30
0.0
11
1.013483
21
1.135602
31
0.0
0
LINE
8
FRONT
10
1.013483
20
1.135602
30
0.0
11
1.013863
21
1.142813
31
0.0
0
LINE
8
FRONT
10
1.013863
20
1.142813
30
0.0
11
1.013863
21
1.167813
31
0.0
0
LINE
8
FRONT
10
1.013863
20
1.167813
30
0.0
11
1.013863
21
2.217813
31
0.0
0
LINE
8
FRONT
10
1.013863
20
2.217813
30
0.0
11
0.501363
21
2.217813
31
0.0
0
LINE
8
FRONT
10
0.501363
20
2.217813
30
0.0
11
0.501363
21
1.767813
31
0.0
0
LINE
8
FRONT
10
0.501363
20
1.767813
30
0.0
11
0.001363
21
1.042813
31
0.0
0
LINE
8
FRONT
10
0.001363
20
1.042813
30
0.0
11
0.001279
21
1.042626
31
0.0
0
LINE
8
FRONT
10
0.001279
20
1.042626
30
0.0
11
0.001198
21
1.042438
31
0.0
0
LINE
8
FRONT
10
0.001198
20
1.042438
30
0.0
11
0.001119
21
1.042249
31
0.0
0
LINE
8
FRONT
10
0.001119
20
1.042249
30
0.0
11
0.001042
21
1.042059
31
0.0
0
LINE
8
FRONT
10
0.001042
20
1.042059
30
0.0
11
0.000969
21
1.041868
31
0.0
0
LINE
8
FRONT
10
0.000969
20
1.041868
30
0.0
11
0.000898
21
1.041676
31
0.0
0
LINE
8
FRONT
10
0.000898
20
1.041676
30
0.0
11
0.000829
21
1.041484
31
0.0
0
LINE
8
FRONT
10
0.000829
20
1.041484
30
0.0
11
0.000764
21
1.041290
31
0.0
0
LINE
8
FRONT
10
0.000764
20
1.041290
30
0.0
11
0.000700
21
1.041095
31
0.0
0
LINE
8
FRONT
10
0.000700
20
1.041095
30
0.0
11
0.000640
21
1.040900
31
0.0
0
LINE
8
FRONT
10
0.000640
20
1.040900
30
0.0
11
0.000582
21
1.040703
31
0.0
0
LINE
8
FRONT
10
0.000582
20
1.040703
30
0.0
11
0.000527
21
1.040506
31
0.0
0
LINE
8
FRONT
10
0.000527
20
1.040506
30
0.0
11
0.000475
21
1.040308
31
0.0
0
LINE
8
FRONT
10
0.000475
20
1.040308
30
0.0
11
0.000425
21
1.040110
31
0.0
0
LINE
8
FRONT
10
0.000425
20
1.040110
30
0.0
11
0.000378
21
1.039911
31
0.0
0
LINE
8
FRONT
10
0.000378
20
1.039911
30
0.0
11
0.000334
21
1.039711
31
0.0
0
LINE
8
FRONT
10
0.000334
20
1.039711
30
0.0
11
0.000292
21
1.039511
31
0.0
0
LINE
8
FRONT
10
0.000292
20
1.039511
30
0.0
11
0.000253
21
1.039310
31
0.0
0
LINE
8
FRONT
10
0.000253
20
1.039310
30
0.0
11
0.000217
21
1.039108
31
0.0
0
LINE
8
FRONT
10
0.000217
20
1.039108
30
0.0
11
0.000184
21
1.038906
31
0.0
0
LINE
8
FRONT
10
0.000184
20
1.038906
30
0.0
11
0.000153
21
1.038704
31
0.0
0
LINE
8
FRONT
10
0.000153
20
1.038704
30
0.0
11
0.000125
21
1.038501
31
0.0
0
LINE
8
FRONT
10
0.000125
20
1.038501
30
0.0
11
0.000100
21
1.038298
31
0.0
0
LINE
8
FRONT
10
0.000100
20
1.038298
30
0.0
11
0.000078
21
1.038095
31
0.0
0
LINE
8
FRONT
10
0.000078
20
1.038095
30
0.0
11
0.000059
21
1.037891
31
0.0
0
LINE
8
FRONT
10
0.000059
20
1.037891
30
0.0
11
0.000042
21
1.037687
31
0.0
0
LINE
8
FRONT
10
0.000042
20
1.037687
30
0.0
11
0.000028
21
1.037483
31
0.0
0
LINE
8
FRONT
10
0.000028
20
1.037483
30
0.0
11
0.000017
21
1.037278
31
0.0
0
LINE
8
FRONT
10
0.000017
20
1.037278
30
0.0
11
0.000008
21
1.037074
31
0.0
0
LINE
8
FRONT
10
0.000008
20
1.037074
30
0.0
11
0.000003
21
1.036869
31
0.0
0
LINE
8
FRONT
10
0.000003
20
1.036869
30
0.0
11
0.000000
21
1.036665
31
0.0
0
LINE
8
FRONT
10
0.000000
20
1.036665
30
0.0
11
0.000000
21
1.036460
31
0.0
0
LINE
8
FRONT
10
0.000000
20
1.036460
30
0.0
11
0.000003
21
1.036256
31
0.0
0
LINE
8
FRONT
10
0.000003
20
1.036256
30
0.0
11
0.000008
21
1.036051
31
0.0
0
LINE
8
FRONT
10
0.000008
20
1.036051
30
0.0
11
0.000017
21
1.035847
31
0.0
0
LINE
8
FRONT
10
0.000017
20
1.035847
30
0.0
11
0.000028
21
1.035642
31
0.0
0
LINE
8
FRONT
10
0.000028
20
1.035642
30
0.0
11
0.000042
21
1.035438
31
0.0
0
LINE
8
FRONT
10
0.000042
20
1.035438
30
0.0
11
0.000059
21
1.035234
31
0.0
0
LINE
8
FRONT
10
0.000059
20
1.035234
30
0.0
11
0.000078
21
1.035030
31
0.0
0
LINE
8
FRONT
10
0.000078
20
1.035030
30
0.0
11
0.000100
21
1.034827
31
0.0
0
LINE
8
FRONT
10
0.000100
20
1.034827
30
0.0
11
0.000125
21
1.034624
31
0.0
0
LINE
8
FRONT
10
0.000125
20
1.034624
30
0.0
11
0.000153
21
1.034421
31
0.0
0
LINE
8
FRONT
10
0.000153
20
1.034421
30
0.0
11
0.000184
21
1.034219
31
0.0
0
LINE
8
FRONT
10
0.000184
20
1.034219
30
0.0
11
0.000217
21
1.034017
31
0.0
0
LINE
8
FRONT
10
0.000217
20
1.034017
30
0.0
11
0.000253
21
1.033815
31
0.0
0
LINE
8
FRONT
10
0.000253
20
1.033815
30
0.0
11
0.000292
21
1.033614
31
0.0
0
LINE
8
FRONT
10
0.000292
20
1.033614
30
0.0
11
0.000334
21
1.033414
31
0.0
0
LINE
8
FRONT
10
0.000334
20
1.033414
30
0.0
11
0.000378
21
1.033214
31
0.0
0
LINE
8
FRONT
10
0.000378
20
1.033214
30
0.0
11
0.000425
21
1.033015
31
0.0
0
LINE
8
FRONT
10
0.000425
20
1.033015
30
0.0
11
0.000475
21
1.032817
31
0.0
0
LINE
8
FRONT
10
0.000475
20
1.032817
30
0.0
11
0.000527
21
1.032619
31
0.0
0
LINE
8
FRONT
10
0.000527
20
1.032619
30
0.0
11
0.000582
21
1.032422
31
0.0
0
LINE
8
FRONT
10
0.000582
20
1.032422
30
0.0
11
0.000640
21
1.032225
31
0.0
0
LINE
8
FRONT
10
0.000640
20
1.032225
30
0.0
11
0.000700
21
1.032030
31
0.0
0
LINE
8
FRONT
10
0.000700
20
1.032030
30
0.0
11
0.000764
21
1.031835
31
0.0
0
LINE
8
FRONT
10
0.000764
20
1.031835
30
0.0
11
0.000829
21
1.031641
31
0.0
0
LINE
8
FRONT
10
0.000829
20
1.031641
30
0.0
11
0.000898
21
1.031449
31
0.0
0
LINE
8
FRONT
10
0.000898
20
1.031449
30
0.0
11
0.000969
21
1.031257
31
0.0
0
LINE
8
FRONT
10
0.000969
20
1.031257
30
0.0
11
0.001042
21
1.031066
31
0.0
0
LINE
8
FRONT
10
0.001042
20
1.031066
30
0.0
11
0.001119
21
1.030876
31
0.0
0
LINE
8
FRONT
10
0.001119
20
1.030876
30
0.0
11
0.001198
21
1.030687
31
0.0
0
LINE
8
FRONT
10
0.001198
20
1.030687
30
0.0
11
0.001279
21
1.030499
31
0.0
0
LINE
8
FRONT
10
0.001279
20
1.030499
30
0.0
11
0.001363
21
1.030313
31
0.0
0
LINE
8
FRONT
10
0.001363
20
1.030313
30
0.0
11
0.001363
21
1.017813
31
0.0
0
LINE
8
FRONT
10
0.651363
20
1.155313
30
0.0
11
0.665053
21
1.155996
31
0.0
0
LINE
8
FRONT
10
0.665053
20
1.155996
30
0.0
11
0.678608
21
1.158039
31
0.0
0
LINE
8
FRONT
10
0.678608
20
1.158039
30
0.0
11
0.691892
21
1.161421
31
0.0
0
LINE
8
FRONT
10
0.691892
20
1.161421
30
0.0
11
0.704773
21
1.166110
31
0.0
0
LINE
8
FRONT
10
0.704773
20
1.166110
30
0.0
11
0.717123
21
1.172057
31
0.0
0
LINE
8
FRONT
10
0.717123
20
1.172057
30
0.0
11
0.728819
21
1.179205
31
0.0
0
LINE
8
FRONT
10
0.728819
20
1.179205
30
0.0
11
0.739746
21
1.187481
31
0.0
0
LINE
8
FRONT
10
0.739746
20
1.187481
30
0.0
11
0.749795
21
1.196805
31
0.0
0
LINE
8
FRONT
10
0.749795
20
1.196805
30
0.0
11
0.758865
21
1.207083
31
0.0
0
LINE
8
FRONT
10
0.758865
20
1.207083
30
0.0
11
0.766866
21
1.218212
31
0.0
0
LINE
8
FRONT
10
0.766866
20
1.218212
30
0.0
11
0.773720
21
1.230084
31
0.0
0
LINE
8
FRONT
10
0.773720
20
1.230084
30
0.0
11
0.779358
21
1.242578
31
0.0
0
LINE
8
FRONT
10
0.779358
20
1.242578
30
0.0
11
0.783724
21
1.255572
31
0.0
0
LINE
8
FRONT
10
0.783724
20
1.255572
30
0.0
11
0.786774
21
1.268936
31
0.0
0
LINE
8
FRONT
10
0.786774
20
1.268936
30
0.0
11
0.788478
21
1.282537
31
0.0
0
LINE
8
FRONT
10
0.788478
20
1.282537
30
0.0
11
0.788820
21
1.296240
31
0.0
0
LINE
8
FRONT
10
0.788820
20
1.296240
30
0.0
11
0.787796
21
1.309910
31
0.0
0
LINE
8
FRONT
10
0.787796
20
1.309910
30
0.0
11
0.785415
21
1.323409
31
0.0
0
LINE
8
FRONT
10
0.785415
20
1.323409
30
0.0
11
0.781703
21
1.336604
31
0.0
0
LINE
8
FRONT
10
0.781703
20
1.336604
30
0.0
11
0.776695
21
1.349364
31
0.0
0
LINE
8
FRONT
10
0.776695
20
1.349364
30
0.0
11
0.770441
21
1.361563
31
0.0
0
LINE
8
FRONT
10
0.770441
20
1.361563
30
0.0
11
0.763004
21
1.373077
31
0.0
0
LINE
8
FRONT
10
0.763004
20
1.373077
30
0.0
11
0.754458
21
1.383794
31
0.0
0
LINE
8
FRONT
10
0.754458
20
1.383794
30
0.0
11
0.744887
21
1.393607
31
0.0
0
LINE
8
FRONT
10
0.744887
20
1.393607
30
0.0
11
0.734386
21
1.402418
31
0.0
0
LINE
8
FRONT
10
0.734386
20
1.402418
30
0.0
11
0.723060
21
1.410140
31
0.0
0
LINE
8
FRONT
10
0.723060
20
1.410140
30
0.0
11
0.711022
21
1.416696
31
0.0
0
LINE
8
FRONT
10
0.711022
20
1.416696
30
0.0
11
0.698391
21
1.422020
31
0.0
0
LINE
8
FRONT
10
0.698391
20
1.422020
30
0.0
11
0.685292
21
1.426061
31
0.0
0
LINE
8
FRONT
10
0.685292
20
1.426061
30
0.0
11
0.671856
21
1.428777
31
0.0
0
LINE
8
FRONT
10
0.671856
20
1.428777
30
0.0
11
0.658217
21
1.430142
31
0.0
0
LINE
8
FRONT
10
0.658217
20
1.430142
30
0.0
11
0.644509
21
1.430142
31
0.0
0
LINE
8
FRONT
10
0.644509
20
1.430142
30
0.0
11
0.630870
21
1.428777
31
0.0
0
LINE
8
FRONT
10
0.630870
20
1.428777
30
0.0
11
0.617434
21
1.426061
31
0.0
0
LINE
8
FRONT
10
0.617434
20
1.426061
30
0.0
11
0.604335
21
1.422020
31
0.0
0
LINE
8
FRONT
10
0.604335
20
1.422020
30
0.0
11
0.591704
21
1.416696
31
0.0
0
LINE
8
FRONT
10
0.591704
20
1.416696
30
0.0
11
0.579666
21
1.410140
31
0.0
0
LINE
8
FRONT
10
0.579666
20
1.410140
30
0.0
11
0.568340
21
1.402418
31
0.0
0
LINE
8
FRONT
10
0.568340
20
1.402418
30
0.0
11
0.557839
21
1.393607
31
0.0
0
LINE
8
FRONT
10
0.557839
20
1.393607
30
0.0
11
0.548268
21
1.383794
31
0.0
0
LINE
8
FRONT
10
0.548268
20
1.383794
30
0.0
11
0.539721
21
1.373077
31
0.0
0
LINE
8
FRONT
10
0.539721
20
1.373077
30
0.0
11
0.532284
21
1.361563
31
0.0
0
LINE
8
FRONT
10
0.532284
20
1.361563
30
0.0
11
0.526031
21
1.349364
31
0.0
0
LINE
8
FRONT
10
0.526031
20
1.349364
30
0.0
11
0.521023
21
1.336604
31
0.0
0
LINE
8
FRONT
10
0.521023
20
1.336604
30
0.0
11
0.517310
21
1.323409
31
0.0
0
LINE
8
FRONT
10
0.517310
20
1.323409
30
0.0
11
0.514930
21
1.309910
31
0.0
0
LINE
8
FRONT
10
0.514930
20
1.309910
30
0.0
11
0.513906
21
1.296240
31
0.0
0
LINE
8
FRONT
10
0.513906
20
1.296240
30
0.0
11
0.514247
21
1.282537
31
0.0
0
LINE
8
FRONT
10
0.514247
20
1.282537
30
0.0
11
0.515952
21
1.268936
31
0.0
0
LINE
8
FRONT
10
0.515952
20
1.268936
30
0.0
11
0.519002
21
1.255572
31
0.0
0
LINE
8
FRONT
10
0.519002
20
1.255572
30
0.0
11
0.523368
21
1.242578
31
0.0
0
LINE
8
FRONT
10
0.523368
20
1.242578
30
0.0
11
0.529006
21
1.230084
31
0.0
0
LINE
8
FRONT
10
0.529006
20
1.230084
30
0.0
11
0.535859
21
1.218212
31
0.0
0
LINE
8
FRONT
10
0.535859
20
1.218212
30
0.0
11
0.543861
21
1.207083
31
0.0
0
LINE
8
FRONT
10
0.543861
20
1.207083
30
0.0
11
0.552931
21
1.196805
31
0.0
0
LINE
8
FRONT
10
0.552931
20
1.196805
30
0.0
11
0.562980
21
1.187481
31
0.0
0
LINE
8
FRONT
10
0.562980
20
1.187481
30
0.0
11
0.573906
21
1.179205
31
0.0
0
LINE
8
FRONT
10
0.573906
20
1.179205
30
0.0
11
0.585603
21
1.172057
31
0.0
0
LINE
8
FRONT
10
0.585603
20
1.172057
30
0.0
11
0.597953
21
1.166110
31
0.0
0
LINE
8
FRONT
10
0.597953
20
1.166110
30
0.0
11
0.610834
21
1.161421
31
0.0
0
LINE
8
FRONT
10
0.610834
20
1.161421
30
0.0
11
0.624118
21
1.158039
31
0.0
0
LINE
8
FRONT
10
0.624118
20
1.158039
30
0.0
11
0.637672
21
1.155996
31
0.0
0
LINE
8
FRONT
10
0.637672
20
1.155996
30
0.0
11
0.651363
21
1.155313
31
0.0
0
LINE
8
LEFT
10
1.298863
20
1.017812
30
0.0
11
1.298863
21
0.964366
31
0.0
0
LINE
8
LEFT
10
1.806675
20
1.017812
30
0.0
11
1.806675
21
0.964366
31
0.0
0
LINE
8
LEFT
10
1.298863
20
1.017813
30
0.0
11
1.806675
21
1.017813
31
0.0
0
LINE
8
LEFT
10
1.806675
20
0.964366
30
0.0
11
1.806675
21
0.805313
31
0.0
0
LINE
8
LEFT
10
1.298863
20
0.805313
30
0.0
11
1.806675
21
0.805313
31
0.0
0
LINE
8
LEFT
10
1.298863
20
0.964366
30
0.0
11
1.298863
21
0.805313
31
0.0
0
LINE
8
LEFT
10
1.806675
20
0.805313
30
0.0
11
1.806675
21
0.792813
31
0.0
0
LINE
8
LEFT
10
1.298863
20
0.792813
30
0.0
11
1.806675
21
0.792813
31
0.0
0
LINE
8
LEFT
10
1.298863
20
0.805313
30
0.0
11
1.298863
21
0.792813
31
0.0
0
LINE
8
LEFT
10
1.298863
20
2.217813
30
0.0
11
1.806675
21
2.217813
31
0.0
0
LINE
8
LEFT
10
1.806675
20
2.217813
30
0.0
11
1.806675
21
1.767813
31
0.0
0
LINE
8
LEFT
10
1.298863
20
1.767813
30
0.0
11
1.806675
21
1.767813
31
0.0
0
LINE
8
LEFT
10
1.298863
20
2.217813
30
0.0
11
1.298863
21
1.767813
31
0.0
0
LINE
8
LEFT
10
1.806675
20
1.767813
30
0.0
11
1.806675
21
1.042813
31
0.0
0
LINE
8
LEFT
10
1.298863
20
1.042813
30
0.0
11
1.806675
21
1.042813
31
0.0
0
LINE
8
LEFT
10
1.298863
20
1.767813
30
0.0
11
1.298863
21
1.042813
31
0.0
0
LINE
8
LEFT
10
1.298863
20
1.042813
30
0.0
11
1.298863
21
1.030313
31
0.0
0
LINE
8
LEFT
10
1.298863
20
1.030313
30
0.0
11
1.806675
21
1.030313
31
0.0
0
LINE
8
LEFT
10
1.806675
20
1.042813
30
0.0
11
1.806675
21
1.030313
31
0.0
0
LINE
8
LEFT
10
1.806675
20
1.030313
30
0.0
11
1.806675
21
1.017813
31
0.0
0
LINE
8
LEFT
10
1.298863
20
1.030313
30
0.0
11
1.298863
21
1.017813
31
0.0
0
LINE
8
LEFT
10
1.806675
20
0.964366
30
0.0
11
1.298863
21
0.964366
31
0.0
0
LINE
8
LEFT_HID
6
HIDDEN
10
1.298863
20
0.964366
30
0.0
11
1.298863
21
0.992812
31
0.0
0
LINE
8
LEFT_HID
6
HIDDEN
10
1.298863
20
0.992813
30
0.0
11
1.806675
21
0.992813
31
0.0
0
LINE
8
LEFT_HID
6
HIDDEN
10
1.806675
20
0.964366
30
0.0
11
1.806675
21
0.992812
31
0.0
0
LINE
8
LEFT_HID
6
HIDDEN
10
1.806675
20
0.992813
30
0.0
11
1.806675
21
1.180313
31
0.0
0
LINE
8
LEFT_HID
6
HIDDEN
10
1.298863
20
1.180313
30
0.0
11
1.806675
21
1.180313
31
0.0
0
LINE
8
LEFT_HID
6
HIDDEN
10
1.298863
20
0.992813
30
0.0
11
1.298863
21
1.180313
31
0.0
0
LINE
8
LEFT_HID
6
HIDDEN
10
1.806675
20
1.180313
30
0.0
11
1.806675
21
1.202528
31
0.0
0
LINE
8
LEFT_HID
6
HIDDEN
10
1.806675
20
1.202528
30
0.0
11
1.806675
21
1.055313
31
0.0
0
LINE
8
LEFT_HID
6
HIDDEN
10
1.298863
20
1.055313
30
0.0
11
1.806675
21
1.055313
31
0.0
0
LINE
8
LEFT_HID
6
HIDDEN
10
1.298863
20
1.180313
30
0.0
11
1.298863
21
1.202528
31
0.0
0
LINE
8
LEFT_HID
6
HIDDEN
10
1.298863
20
1.202528
30
0.0
11
1.298863
21
1.055313
31
0.0
0
LINE
8
LEFT_HID
6
HIDDEN
10
1.806675
20
1.055313
30
0.0
11
1.806675
21
0.964366
31
0.0
0
LINE
8
LEFT_HID
6
HIDDEN
10
1.298863
20
1.055313
30
0.0
11
1.298863
21
0.964366
31
0.0
0
LINE
8
LEFT_HID
6
HIDDEN
10
1.298863
20
0.792813
30
0.0
11
1.298863
21
1.142813
31
0.0
0
LINE
8
LEFT_HID
6
HIDDEN
10
1.298863
20
1.142813
30
0.0
11
1.806675
21
1.142813
31
0.0
0
LINE
8
LEFT_HID
6
HIDDEN
10
1.806675
20
0.792813
30
0.0
11
1.806675
21
1.142813
31
0.0
0
LINE
8
LEFT_HID
6
HIDDEN
10
1.806675
20
1.142813
30
0.0
11
1.806675
21
1.167813
31
0.0
0
LINE
8
LEFT_HID
6
HIDDEN
10
1.298863
20
1.142813
30
0.0
11
1.298863
21
1.167813
31
0.0
0
LINE
8
LEFT_HID
6
HIDDEN
10
1.806675
20
1.167813
30
0.0
11
1.806675
21
2.217813
31
0.0
0
LINE
8
LEFT_HID
6
HIDDEN
10
1.298863
20
1.167813
30
0.0
11
1.298863
21
2.217813
31
0.0
0
LINE
8
LEFT_HID
6
HIDDEN
10
1.298863
20
1.155313
30
0.0
11
1.298863
21
1.430313
31
0.0
0
LINE
8
LEFT_HID
6
HIDDEN
10
1.298863
20
1.430313
30
0.0
11
1.298863
21
1.155313
31
0.0
0
LINE
8
LEFT_HID
6
HIDDEN
10
1.298863
20
1.155313
30
0.0
11
1.806675
21
1.155313
31
0.0
0
LINE
8
LEFT_HID
6
HIDDEN
10
1.806675
20
1.155313
30
0.0
11
1.806675
21
1.430313
31
0.0
0
LINE
8
LEFT_HID
6
HIDDEN
10
1.806675
20
1.430313
30
0.0
11
1.806675
21
1.155313
31
0.0
0
LINE
8
LEFT_HID
6
HIDDEN
10
1.806675
20
1.202528
30
0.0
11
1.298863
21
1.202528
31
0.0
0
LINE
8
LEFT_HID
6
HIDDEN
10
1.806675
20
1.430313
30
0.0
11
1.298863
21
1.430313
31
0.0
0
LINE
8
TOP
10
1.013863
20
0.507813
30
0.0
11
1.013863
21
0.000000
31
0.0
0
LINE
8
TOP
10
1.013863
20
0.000000
30
0.0
11
0.501363
21
0.000000
31
0.0
0
LINE
8
TOP
10
0.501363
20
0.507813
30
0.0
11
0.501363
21
0.000000
31
0.0
0
LINE
8
TOP
10
1.013863
20
0.507813
30
0.0
11
0.501363
21
0.507813
31
0.0
0
LINE
8
TOP
10
0.501363
20
0.000000
30
0.0
11
0.001363
21
0.000000
31
0.0
0
LINE
8
TOP
10
0.001363
20
0.507813
30
0.0
11
0.001363
21
0.000000
31
0.0
0
LINE
8
TOP
10
0.501363
20
0.507813
30
0.0
11
0.001363
21
0.507813
31
0.0
0
LINE
8
TOP
10
0.001363
20
0.507813
30
0.0
11
0.000000
21
0.507813
31
0.0
0
LINE
8
TOP
10
0.001363
20
0.000000
30
0.0
11
0.000000
21
0.000000
31
0.0
0
LINE
8
TOP
10
0.000000
20
0.000000
30
0.0
11
0.000000
21
0.507813
31
0.0
0
LINE
8
TOP_HID
6
HIDDEN
10
0.001363
20
0.507813
30
0.0
11
0.126363
21
0.507813
31
0.0
0
LINE
8
TOP_HID
6
HIDDEN
10
0.126363
20
0.507813
30
0.0
11
0.126363
21
0.000000
31
0.0
0
LINE
8
TOP_HID
6
HIDDEN
10
0.001363
20
0.000000
30
0.0
11
0.126363
21
0.000000
31
0.0
0
LINE
8
TOP_HID
6
HIDDEN
10
0.126363
20
0.000000
30
0.0
11
0.326363
21
0.000000
31
0.0
0
LINE
8
TOP_HID
6
HIDDEN
10
0.326363
20
0.507813
30
0.0
11
0.326363
21
0.000000
31
0.0
0
LINE
8
TOP_HID
6
HIDDEN
10
0.126363
20
0.507813
30
0.0
11
0.326363
21
0.507813
31
0.0
0
LINE
8
TOP_HID
6
HIDDEN
10
0.326363
20
0.000000
30
0.0
11
0.473578
21
0.000000
31
0.0
0
LINE
8
TOP_HID
6
HIDDEN
10
0.473578
20
0.000000
30
0.0
11
0.451363
21
0.000000
31
0.0
0
LINE
8
TOP_HID
6
HIDDEN
10
0.451363
20
0.507813
30
0.0
11
0.451363
21
0.000000
31
0.0
0
LINE
8
TOP_HID
6
HIDDEN
10
0.326363
20
0.507813
30
0.0
11
0.473578
21
0.507813
31
0.0
0
LINE
8
TOP_HID
6
HIDDEN
10
0.473578
20
0.507813
30
0.0
11
0.451363
21
0.507813
31
0.0
0
LINE
8
TOP_HID
6
HIDDEN
10
0.451363
20
0.000000
30
0.0
11
0.213863
21
0.000000
31
0.0
0
LINE
8
TOP_HID
6
HIDDEN
10
0.213863
20
0.507813
30
0.0
11
0.213863
21
0.000000
31
0.0
0
LINE
8
TOP_HID
6
HIDDEN
10
0.451363
20
0.507813
30
0.0
11
0.213863
21
0.507813
31
0.0
0
LINE
8
TOP_HID
6
HIDDEN
10
0.213863
20
0.507813
30
0.0
11
0.213863
21
0.000000
31
0.0
0
LINE
8
TOP_HID
6
HIDDEN
10
0.213863
20
0.000000
30
0.0
11
0.763863
21
0.000000
31
0.0
0
LINE
8
TOP_HID
6
HIDDEN
10
0.763863
20
0.507813
30
0.0
11
0.763863
21
0.000000
31
0.0
0
LINE
8
TOP_HID
6
HIDDEN
10
0.213863
20
0.507813
30
0.0
11
0.763863
21
0.507813
31
0.0
0
LINE
8
TOP_HID
6
HIDDEN
10
0.763863
20
0.507813
30
0.0
11
1.013863
21
0.507813
31
0.0
0
LINE
8
TOP_HID
6
HIDDEN
10
0.763863
20
0.000000
30
0.0
11
1.013863
21
0.000000
31
0.0
0
LINE
8
TOP_HID
6
HIDDEN
10
0.651363
20
0.507813
30
0.0
11
0.788863
21
0.507813
31
0.0
0
LINE
8
TOP_HID
6
HIDDEN
10
0.788863
20
0.507813
30
0.0
11
0.513863
21
0.507813
31
0.0
0
LINE
8
TOP_HID
6
HIDDEN
10
0.513863
20
0.507813
30
0.0
11
0.651363
21
0.507813
31
0.0
0
LINE
8
TOP_HID
6
HIDDEN
10
0.651363
20
0.000000
30
0.0
11
0.788863
21
0.000000
31
0.0
0
LINE
8
TOP_HID
6
HIDDEN
10
0.788863
20
0.000000
30
0.0
11
0.513863
21
0.000000
31
0.0
0
LINE
8
TOP_HID
6
HIDDEN
10
0.513863
20
0.000000
30
0.0
11
0.651363
21
0.000000
31
0.0
0
LINE
8
TOP_HID
6
HIDDEN
10
0.473578
20
0.000000
30
0.0
11
0.473578
21
0.507813
31
0.0
0
LINE
8
TOP_HID
6
HIDDEN
10
0.788863
20
0.000000
30
0.0
11
0.788863
21
0.507813
31
0.0
0
LINE
8
TOP_HID
6
HIDDEN
10
0.513863
20
0.000000
30
0.0
11
0.513863
21
0.507813
31
0.0
0
ENDSEC
0
EOF
