0
SECTION
2
HEADER
9
$ACADVER
1
AC1009
0
ENDSEC
0
SECTION
2
TABLES
0
TABLE
2
LTYPE
70
3
0
LTYPE
2
CONTINUOUS
70
0
3
Solid line
72
65
73
0
40
0.0
0
LTYPE
2
HIDDEN
70
0
3
__ __ __ __ __
72
65
73
2
40
0.075000
49
0.050025
49
-0.024975
0
LTYPE
2
CENTER
70
0
3
___ _ ___ _ ___
72
65
73
4
40
0.174975
49
0.099975
49
-0.024975
49
0.024975
49
-0.024975
0
ENDTAB
0
TABLE
2
LAYER
70
7
0
LAYER
2
0
70
0
62
7
6
CONTINUOUS
0
LAYER
2
FRONT
70
0
62
7
6
CONTINUOUS
0
LAYER
2
FRONT_HID
70
0
62
7
6
HIDDEN
0
LAYER
2
LEFT
70
0
62
7
6
CONTINUOUS
0
LAYER
2
LEFT_HID
70
0
62
7
6
HIDDEN
0
LAYER
2
TOP
70
0
62
7
6
CONTINUOUS
0
LAYER
2
TOP_HID
70
0
62
7
6
HIDDEN
0
ENDTAB
0
ENDSEC
0
SECTION
2
ENTITIES
0
LINE
8
FRONT
10
0.000000
20
1.318010
30
0.0
11
0.000000
21
1.560197
31
0.0
0
LINE
8
FRONT
10
0.000000
20
1.278947
30
0.0
11
0.000000
21
1.318010
31
0.0
0
LINE
8
FRONT
10
1.500000
20
1.278947
30
0.0
11
1.500000
21
1.318010
31
0.0
0
LINE
8
FRONT
10
1.500000
20
1.278947
30
0.0
11
0.000000
21
1.278947
31
0.0
0
LINE
8
FRONT
10
1.500000
20
1.318010
30
0.0
11
1.500000
21
1.560197
31
0.0
0
LINE
8
FRONT
10
1.500000
20
1.560197
30
0.0
11
0.000000
21
1.560197
31
0.0
0
LINE
8
FRONT
10
0.000000
20
1.560197
30
0.0
11
0.000000
21
1.622697
31
0.0
0
LINE
8
FRONT
10
1.500000
20
1.318010
30
0.0
11
0.000000
21
1.318010
31
0.0
0
LINE
8
FRONT
10
1.500000
20
1.560197
30
0.0
11
1.500000
21
1.622697
31
0.0
0
LINE
8
FRONT
10
1.500000
20
1.622697
30
0.0
11
0.000000
21
1.622697
31
0.0
0
LINE
8
FRONT_HID
6
HIDDEN
10
0.000000
20
1.622697
30
0.0
11
0.075987
21
1.622697
31
0.0
0
LINE
8
FRONT_HID
6
HIDDEN
10
0.075987
20
1.560197
30
0.0
11
0.075987
21
1.622697
31
0.0
0
LINE
8
FRONT_HID
6
HIDDEN
10
0.075658
20
1.560197
30
0.0
11
0.075987
21
1.560197
31
0.0
0
LINE
8
FRONT_HID
6
HIDDEN
10
0.075987
20
1.560197
30
0.0
11
0.075987
21
1.622697
31
0.0
0
LINE
8
FRONT_HID
6
HIDDEN
10
0.075658
20
1.318010
30
0.0
11
0.075658
21
1.560197
31
0.0
0
LINE
8
FRONT_HID
6
HIDDEN
10
0.075987
20
1.560197
30
0.0
11
0.075658
21
1.560197
31
0.0
0
LINE
8
FRONT_HID
6
HIDDEN
10
0.075987
20
1.622697
30
0.0
11
0.000000
21
1.622697
31
0.0
0
LINE
8
FRONT_HID
6
HIDDEN
10
0.075987
20
1.560197
30
0.0
11
0.075987
21
1.622697
31
0.0
0
LINE
8
FRONT_HID
6
HIDDEN
10
0.075658
20
1.560197
30
0.0
11
0.000000
21
1.560197
31
0.0
0
LINE
8
FRONT_HID
6
HIDDEN
10
0.075658
20
1.318010
30
0.0
11
0.075658
21
1.560197
31
0.0
0
LINE
8
FRONT_HID
6
HIDDEN
10
0.075658
20
1.318010
30
0.0
11
0.078125
21
1.318010
31
0.0
0
LINE
8
FRONT_HID
6
HIDDEN
10
1.497533
20
1.318010
30
0.0
11
1.500000
21
1.318010
31
0.0
0
LINE
8
FRONT_HID
6
HIDDEN
10
0.000000
20
1.560197
30
0.0
11
0.075658
21
1.560197
31
0.0
0
LINE
8
FRONT_HID
6
HIDDEN
10
0.075658
20
1.318010
30
0.0
11
1.421875
21
1.318010
31
0.0
0
LINE
8
FRONT_HID
6
HIDDEN
10
0.075658
20
1.560197
30
0.0
11
1.421875
21
1.560197
31
0.0
0
LINE
8
FRONT_HID
6
HIDDEN
10
1.421875
20
1.318010
30
0.0
11
1.421875
21
1.560197
31
0.0
0
LINE
8
FRONT_HID
6
HIDDEN
10
1.421875
20
1.318010
30
0.0
11
0.078125
21
1.318010
31
0.0
0
LINE
8
FRONT_HID
6
HIDDEN
10
0.078125
20
1.318010
30
0.0
11
0.078125
21
1.614885
31
0.0
0
LINE
8
FRONT_HID
6
HIDDEN
10
0.078125
20
1.614885
30
0.0
11
1.421875
21
1.614885
31
0.0
0
LINE
8
FRONT_HID
6
HIDDEN
10
1.497533
20
1.318010
30
0.0
11
1.497533
21
1.560197
31
0.0
0
LINE
8
FRONT_HID
6
HIDDEN
10
1.497533
20
1.318010
30
0.0
11
1.500000
21
1.318010
31
0.0
0
LINE
8
FRONT_HID
6
HIDDEN
10
1.497533
20
1.560197
30
0.0
11
1.421875
21
1.560197
31
0.0
0
LINE
8
FRONT_HID
6
HIDDEN
10
1.497533
20
1.560197
30
0.0
11
1.500000
21
1.560197
31
0.0
0
LINE
8
FRONT_HID
6
HIDDEN
10
1.421875
20
1.560197
30
0.0
11
1.421875
21
1.318010
31
0.0
0
LINE
8
FRONT_HID
6
HIDDEN
10
1.421875
20
1.560197
30
0.0
11
1.421875
21
1.614885
31
0.0
0
LINE
8
FRONT_HID
6
HIDDEN
10
1.421875
20
1.614885
30
0.0
11
0.078125
21
1.614885
31
0.0
0
LINE
8
FRONT_HID
6
HIDDEN
10
0.078125
20
1.318010
30
0.0
11
0.078125
21
1.614885
31
0.0
0
LINE
8
FRONT_HID
6
HIDDEN
10
1.497533
20
1.318010
30
0.0
11
1.497533
21
1.560197
31
0.0
0
LINE
8
FRONT_HID
6
HIDDEN
10
1.421875
20
1.614885
30
0.0
11
1.421875
21
1.622697
31
0.0
0
LINE
8
FRONT_HID
6
HIDDEN
10
1.421875
20
1.622697
30
0.0
11
1.497862
21
1.622697
31
0.0
0
LINE
8
FRONT_HID
6
HIDDEN
10
1.497862
20
1.560197
30
0.0
11
1.497862
21
1.622697
31
0.0
0
LINE
8
FRONT_HID
6
HIDDEN
10
1.497533
20
1.560197
30
0.0
11
1.497862
21
1.560197
31
0.0
0
LINE
8
FRONT_HID
6
HIDDEN
10
1.497533
20
1.560197
30
0.0
11
1.421875
21
1.560197
31
0.0
0
LINE
8
FRONT_HID
6
HIDDEN
10
1.421875
20
1.560197
30
0.0
11
1.421875
21
1.622697
31
0.0
0
LINE
8
FRONT_HID
6
HIDDEN
10
1.421875
20
1.560197
30
0.0
11
1.421875
21
1.622697
31
0.0
0
LINE
8
FRONT_HID
6
HIDDEN
10
1.497862
20
1.560197
30
0.0
11
1.497533
21
1.560197
31
0.0
0
LINE
8
FRONT_HID
6
HIDDEN
10
1.497862
20
1.560197
30
0.0
11
1.497862
21
1.622697
31
0.0
0
LINE
8
FRONT_HID
6
HIDDEN
10
1.497862
20
1.622697
30
0.0
11
1.421875
21
1.622697
31
0.0
0
LINE
8
LEFT
10
2.778947
20
1.560197
30
0.0
11
2.778947
21
1.622697
31
0.0
0
LINE
8
LEFT
10
2.177385
20
1.560197
30
0.0
11
2.177385
21
1.622697
31
0.0
0
LINE
8
LEFT
10
2.177385
20
1.622697
30
0.0
11
2.778947
21
1.622697
31
0.0
0
LINE
8
LEFT
10
2.778947
20
1.318010
30
0.0
11
2.778947
21
1.560197
31
0.0
0
LINE
8
LEFT
10
1.880510
20
1.560197
30
0.0
11
2.177385
21
1.560197
31
0.0
0
LINE
8
LEFT
10
2.778947
20
1.278947
30
0.0
11
2.778947
21
1.318010
31
0.0
0
LINE
8
LEFT
10
1.801563
20
1.318010
30
0.0
11
1.801563
21
1.560197
31
0.0
0
LINE
8
LEFT
10
1.801563
20
1.560197
30
0.0
11
1.809868
21
1.560197
31
0.0
0
LINE
8
LEFT
10
1.841447
20
1.560197
30
0.0
11
1.880510
21
1.560197
31
0.0
0
LINE
8
LEFT
10
1.800000
20
1.278947
30
0.0
11
1.800000
21
1.318010
31
0.0
0
LINE
8
LEFT
10
1.800000
20
1.318010
30
0.0
11
1.801563
21
1.318010
31
0.0
0
LINE
8
LEFT
10
1.800000
20
1.278947
30
0.0
11
2.778947
21
1.278947
31
0.0
0
LINE
8
LEFT
10
1.809868
20
1.560197
30
0.0
11
1.809868
21
1.622697
31
0.0
0
LINE
8
LEFT
10
1.809868
20
1.622697
30
0.0
11
1.841447
21
1.622697
31
0.0
0
LINE
8
LEFT
10
1.841447
20
1.560197
30
0.0
11
1.841447
21
1.622697
31
0.0
0
LINE
8
LEFT_HID
6
HIDDEN
10
2.778947
20
1.622697
30
0.0
11
2.702961
21
1.622697
31
0.0
0
LINE
8
LEFT_HID
6
HIDDEN
10
2.778947
20
1.560197
30
0.0
11
2.702961
21
1.560197
31
0.0
0
LINE
8
LEFT_HID
6
HIDDEN
10
2.778947
20
1.560197
30
0.0
11
2.177385
21
1.560197
31
0.0
0
LINE
8
LEFT_HID
6
HIDDEN
10
2.702961
20
1.560197
30
0.0
11
2.177385
21
1.560197
31
0.0
0
LINE
8
LEFT_HID
6
HIDDEN
10
2.702961
20
1.622697
30
0.0
11
2.177385
21
1.622697
31
0.0
0
LINE
8
LEFT_HID
6
HIDDEN
10
1.880510
20
1.318010
30
0.0
11
1.880510
21
1.560197
31
0.0
0
LINE
8
LEFT_HID
6
HIDDEN
10
2.778947
20
1.318010
30
0.0
11
1.880510
21
1.318010
31
0.0
0
LINE
8
LEFT_HID
6
HIDDEN
10
1.880510
20
1.318010
30
0.0
11
1.880510
21
1.560197
31
0.0
0
LINE
8
LEFT_HID
6
HIDDEN
10
2.707813
20
1.318010
30
0.0
11
2.778947
21
1.318010
31
0.0
0
LINE
8
LEFT_HID
6
HIDDEN
10
1.880510
20
1.318010
30
0.0
11
2.707813
21
1.318010
31
0.0
0
LINE
8
LEFT_HID
6
HIDDEN
10
2.778947
20
1.318010
30
0.0
11
1.880510
21
1.318010
31
0.0
0
LINE
8
LEFT_HID
6
HIDDEN
10
2.778947
20
1.318010
30
0.0
11
2.778947
21
1.614885
31
0.0
0
LINE
8
LEFT_HID
6
HIDDEN
10
2.778947
20
1.560197
30
0.0
11
2.778947
21
1.614885
31
0.0
0
LINE
8
LEFT_HID
6
HIDDEN
10
2.778947
20
1.318010
30
0.0
11
1.880510
21
1.318010
31
0.0
0
LINE
8
LEFT_HID
6
HIDDEN
10
2.707813
20
1.560197
30
0.0
11
2.707813
21
1.318010
31
0.0
0
LINE
8
LEFT_HID
6
HIDDEN
10
2.707813
20
1.560197
30
0.0
11
2.707813
21
1.614885
31
0.0
0
LINE
8
LEFT_HID
6
HIDDEN
10
2.707813
20
1.318010
30
0.0
11
2.707813
21
1.614885
31
0.0
0
LINE
8
LEFT_HID
6
HIDDEN
10
2.707813
20
1.614885
30
0.0
11
2.778947
21
1.614885
31
0.0
0
LINE
8
LEFT_HID
6
HIDDEN
10
1.880510
20
1.318010
30
0.0
11
1.880510
21
1.560197
31
0.0
0
LINE
8
LEFT_HID
6
HIDDEN
10
2.778947
20
1.560197
30
0.0
11
2.778947
21
1.614885
31
0.0
0
LINE
8
LEFT_HID
6
HIDDEN
10
2.778947
20
1.614885
30
0.0
11
2.707813
21
1.614885
31
0.0
0
LINE
8
LEFT_HID
6
HIDDEN
10
2.778947
20
1.560197
30
0.0
11
2.177385
21
1.560197
31
0.0
0
LINE
8
LEFT_HID
6
HIDDEN
10
1.880510
20
1.318010
30
0.0
11
1.880510
21
1.560197
31
0.0
0
LINE
8
LEFT_HID
6
HIDDEN
10
2.778947
20
1.614885
30
0.0
11
2.778947
21
1.622697
31
0.0
0
LINE
8
LEFT_HID
6
HIDDEN
10
2.177385
20
1.622697
30
0.0
11
2.702961
21
1.622697
31
0.0
0
LINE
8
LEFT_HID
6
HIDDEN
10
2.702961
20
1.622697
30
0.0
11
2.778947
21
1.622697
31
0.0
0
LINE
8
LEFT_HID
6
HIDDEN
10
2.778947
20
1.560197
30
0.0
11
2.177385
21
1.560197
31
0.0
0
LINE
8
TOP
10
0.000000
20
0.000000
30
0.0
11
0.075987
21
0.000000
31
0.0
0
LINE
8
TOP
10
0.000000
20
0.601562
30
0.0
11
0.000000
21
0.000000
31
0.0
0
LINE
8
TOP
10
0.075987
20
0.000000
30
0.0
11
0.075987
21
0.075987
31
0.0
0
LINE
8
TOP
10
0.075987
20
0.075987
30
0.0
11
0.075987
21
0.601562
31
0.0
0
LINE
8
TOP
10
0.075987
20
0.601562
30
0.0
11
0.000000
21
0.601562
31
0.0
0
LINE
8
TOP
10
0.000000
20
0.898438
30
0.0
11
0.000000
21
0.601562
31
0.0
0
LINE
8
TOP
10
0.075658
20
0.601562
30
0.0
11
0.075658
21
0.898438
31
0.0
0
LINE
8
TOP
10
0.075987
20
0.000000
30
0.0
11
0.078125
21
0.000000
31
0.0
0
LINE
8
TOP
10
1.497862
20
0.000000
30
0.0
11
1.500000
21
0.000000
31
0.0
0
LINE
8
TOP
10
0.000000
20
0.977385
30
0.0
11
0.000000
21
0.969079
31
0.0
0
LINE
8
TOP
10
0.000000
20
0.937500
30
0.0
11
0.000000
21
0.898438
31
0.0
0
LINE
8
TOP
10
0.000000
20
0.978947
30
0.0
11
0.000000
21
0.977385
31
0.0
0
LINE
8
TOP
10
0.075658
20
0.898438
30
0.0
11
1.421875
21
0.898438
31
0.0
0
LINE
8
TOP
10
1.500000
20
0.000000
30
0.0
11
1.500000
21
0.898438
31
0.0
0
LINE
8
TOP
10
1.500000
20
0.977385
30
0.0
11
1.500000
21
0.978947
31
0.0
0
LINE
8
TOP
10
0.078125
20
0.000000
30
0.0
11
1.421875
21
0.000000
31
0.0
0
LINE
8
TOP
10
1.497533
20
0.898438
30
0.0
11
1.500000
21
0.898438
31
0.0
0
LINE
8
TOP
10
1.500000
20
0.898438
30
0.0
11
1.500000
21
0.937500
31
0.0
0
LINE
8
TOP
10
1.500000
20
0.977385
30
0.0
11
0.000000
21
0.977385
31
0.0
0
LINE
8
TOP
10
1.500000
20
0.969079
30
0.0
11
1.500000
21
0.977385
31
0.0
0
LINE
8
TOP
10
0.000000
20
0.969079
30
0.0
11
0.000000
21
0.937500
31
0.0
0
LINE
8
TOP
10
1.500000
20
0.978947
30
0.0
11
0.000000
21
0.978947
31
0.0
0
LINE
8
TOP
10
1.421875
20
0.898438
30
0.0
11
1.421875
21
0.601562
31
0.0
0
LINE
8
TOP
10
1.421875
20
0.071135
30
0.0
11
0.078125
21
0.071135
31
0.0
0
LINE
8
TOP
10
0.078125
20
0.071135
30
0.0
11
0.078125
21
0.000000
31
0.0
0
LINE
8
TOP
10
1.497533
20
0.601562
30
0.0
11
1.497533
21
0.898438
31
0.0
0
LINE
8
TOP
10
1.421875
20
0.000000
30
0.0
11
1.497862
21
0.000000
31
0.0
0
LINE
8
TOP
10
0.000000
20
0.937500
30
0.0
11
1.500000
21
0.937500
31
0.0
0
LINE
8
TOP
10
1.500000
20
0.969079
30
0.0
11
0.000000
21
0.969079
31
0.0
0
LINE
8
TOP
10
1.500000
20
0.937500
30
0.0
11
1.500000
21
0.969079
31
0.0
0
LINE
8
TOP
10
1.421875
20
0.601562
30
0.0
11
1.421875
21
0.075987
31
0.0
0
LINE
8
TOP
10
1.421875
20
0.075987
30
0.0
11
1.421875
21
0.000000
31
0.0
0
LINE
8
TOP
10
1.497862
20
0.000000
30
0.0
11
1.497862
21
0.601562
31
0.0
0
LINE
8
TOP
10
1.497862
20
0.601562
30
0.0
11
1.421875
21
0.601562
31
0.0
0
LINE
8
TOP_HID
6
HIDDEN
10
0.075658
20
0.000000
30
0.0
11
0.075987
21
0.000000
31
0.0
0
LINE
8
TOP_HID
6
HIDDEN
10
0.000000
20
0.000000
30
0.0
11
0.075658
21
0.000000
31
0.0
0
LINE
8
TOP_HID
6
HIDDEN
10
0.000000
20
0.000000
30
0.0
11
0.075658
21
0.000000
31
0.0
0
LINE
8
TOP_HID
6
HIDDEN
10
0.075658
20
0.000000
30
0.0
11
0.075658
21
0.601562
31
0.0
0
LINE
8
TOP_HID
6
HIDDEN
10
0.075987
20
0.601562
30
0.0
11
0.075658
21
0.601562
31
0.0
0
LINE
8
TOP_HID
6
HIDDEN
10
0.075658
20
0.601562
30
0.0
11
0.000000
21
0.601562
31
0.0
0
LINE
8
TOP_HID
6
HIDDEN
10
0.000000
20
0.898438
30
0.0
11
0.000000
21
0.000000
31
0.0
0
LINE
8
TOP_HID
6
HIDDEN
10
0.075658
20
0.000000
30
0.0
11
0.075658
21
0.898438
31
0.0
0
LINE
8
TOP_HID
6
HIDDEN
10
0.075658
20
0.000000
30
0.0
11
0.075987
21
0.000000
31
0.0
0
LINE
8
TOP_HID
6
HIDDEN
10
1.421875
20
0.000000
30
0.0
11
1.429688
21
0.000000
31
0.0
0
LINE
8
TOP_HID
6
HIDDEN
10
1.429688
20
0.000000
30
0.0
11
1.497533
21
0.000000
31
0.0
0
LINE
8
TOP_HID
6
HIDDEN
10
1.497533
20
0.000000
30
0.0
11
1.497862
21
0.000000
31
0.0
0
LINE
8
TOP_HID
6
HIDDEN
10
0.000000
20
0.000000
30
0.0
11
1.500000
21
0.000000
31
0.0
0
LINE
8
TOP_HID
6
HIDDEN
10
0.000000
20
0.977385
30
0.0
11
0.000000
21
0.898438
31
0.0
0
LINE
8
TOP_HID
6
HIDDEN
10
0.000000
20
0.978947
30
0.0
11
0.000000
21
0.000000
31
0.0
0
LINE
8
TOP_HID
6
HIDDEN
10
1.421875
20
0.898438
30
0.0
11
1.421875
21
0.071135
31
0.0
0
LINE
8
TOP_HID
6
HIDDEN
10
1.500000
20
0.898438
30
0.0
11
1.500000
21
0.977385
31
0.0
0
LINE
8
TOP_HID
6
HIDDEN
10
1.500000
20
0.000000
30
0.0
11
1.500000
21
0.978947
31
0.0
0
LINE
8
TOP_HID
6
HIDDEN
10
1.421875
20
0.000000
30
0.0
11
1.429688
21
0.000000
31
0.0
0
LINE
8
TOP_HID
6
HIDDEN
10
1.429688
20
0.000000
30
0.0
11
1.497533
21
0.000000
31
0.0
0
LINE
8
TOP_HID
6
HIDDEN
10
1.497533
20
0.000000
30
0.0
11
1.497533
21
0.898438
31
0.0
0
LINE
8
TOP_HID
6
HIDDEN
10
1.421875
20
0.075987
30
0.0
11
1.421875
21
0.071135
31
0.0
0
LINE
8
TOP_HID
6
HIDDEN
10
1.421875
20
0.000000
30
0.0
11
1.429688
21
0.000000
31
0.0
0
LINE
8
TOP_HID
6
HIDDEN
10
1.421875
20
0.000000
30
0.0
11
1.421875
21
0.071135
31
0.0
0
LINE
8
TOP_HID
6
HIDDEN
10
1.497533
20
0.000000
30
0.0
11
1.497533
21
0.601562
31
0.0
0
LINE
8
TOP_HID
6
HIDDEN
10
1.497533
20
0.000000
30
0.0
11
1.497862
21
0.000000
31
0.0
0
LINE
8
TOP_HID
6
HIDDEN
10
1.497533
20
0.601562
30
0.0
11
1.421875
21
0.601562
31
0.0
0
LINE
8
TOP_HID
6
HIDDEN
10
1.497862
20
0.601562
30
0.0
11
1.497533
21
0.601562
31
0.0
0
ENDSEC
0
EOF
