0
SECTION
2
HEADER
9
$ACADVER
1
AC1009
0
ENDSEC
0
SECTION
2
TABLES
0
TABLE
2
LTYPE
70
3
0
LTYPE
2
CONTINUOUS
70
0
3
Solid line
72
65
73
0
40
0.0
0
LTYPE
2
HIDDEN
70
0
3
__ __ __ __ __
72
65
73
2
40
0.075000
49
0.050025
49
-0.024975
0
LTYPE
2
CENTER
70
0
3
___ _ ___ _ ___
72
65
73
4
40
0.174975
49
0.099975
49
-0.024975
49
0.024975
49
-0.024975
0
ENDTAB
0
TABLE
2
LAYER
70
6
0
LAYER
2
0
70
0
62
7
6
CONTINUOUS
0
LAYER
2
FRONT
70
0
62
7
6
CONTINUOUS
0
LAYER
2
LEFT
70
0
62
7
6
CONTINUOUS
0
LAYER
2
LEFT_HID
70
0
62
7
6
HIDDEN
0
LAYER
2
TOP
70
0
62
7
6
CONTINUOUS
0
LAYER
2
TOP_HID
70
0
62
7
6
HIDDEN
0
ENDTAB
0
ENDSEC
0
SECTION
2
ENTITIES
0
LINE
8
FRONT
10
0.000000
20
0.753125
30
0.0
11
1.500000
21
0.753125
31
0.0
0
LINE
8
FRONT
10
1.500000
20
0.753125
30
0.0
11
1.500000
21
1.132072
31
0.0
0
LINE
8
FRONT
10
1.500000
20
1.132072
30
0.0
11
1.389474
21
1.132072
31
0.0
0
LINE
8
FRONT
10
1.389474
20
1.132072
30
0.0
11
1.395215
21
1.127450
31
0.0
0
LINE
8
FRONT
10
1.395215
20
1.127450
30
0.0
11
1.400571
21
1.122386
31
0.0
0
LINE
8
FRONT
10
1.400571
20
1.122386
30
0.0
11
1.405508
21
1.116913
31
0.0
0
LINE
8
FRONT
10
1.405508
20
1.116913
30
0.0
11
1.409996
21
1.111065
31
0.0
0
LINE
8
FRONT
10
1.409996
20
1.111065
30
0.0
11
1.414004
21
1.104880
31
0.0
0
LINE
8
FRONT
10
1.414004
20
1.104880
30
0.0
11
1.417509
21
1.098395
31
0.0
0
LINE
8
FRONT
10
1.417509
20
1.098395
30
0.0
11
1.420488
21
1.091653
31
0.0
0
LINE
8
FRONT
10
1.420488
20
1.091653
30
0.0
11
1.422923
21
1.084696
31
0.0
0
LINE
8
FRONT
10
1.422923
20
1.084696
30
0.0
11
1.424797
21
1.077567
31
0.0
0
LINE
8
FRONT
10
1.424797
20
1.077567
30
0.0
11
1.426100
21
1.070312
31
0.0
0
LINE
8
FRONT
10
1.426100
20
1.070312
30
0.0
11
1.426822
21
1.062977
31
0.0
0
LINE
8
FRONT
10
1.426822
20
1.062977
30
0.0
11
1.426960
21
1.055607
31
0.0
0
LINE
8
FRONT
10
1.426960
20
1.055607
30
0.0
11
1.426513
21
1.048250
31
0.0
0
LINE
8
FRONT
10
1.426513
20
1.048250
30
0.0
11
1.425482
21
1.040951
31
0.0
0
LINE
8
FRONT
10
1.425482
20
1.040951
30
0.0
11
1.423876
21
1.033757
31
0.0
0
LINE
8
FRONT
10
1.423876
20
1.033757
30
0.0
11
1.421703
21
1.026714
31
0.0
0
LINE
8
FRONT
10
1.421703
20
1.026714
30
0.0
11
1.418978
21
1.019865
31
0.0
0
LINE
8
FRONT
10
1.418978
20
1.019865
30
0.0
11
1.415718
21
1.013254
31
0.0
0
LINE
8
FRONT
10
1.415718
20
1.013254
30
0.0
11
1.411943
21
1.006923
31
0.0
0
LINE
8
FRONT
10
1.411943
20
1.006923
30
0.0
11
1.407678
21
1.000912
31
0.0
0
LINE
8
FRONT
10
1.407678
20
1.000912
30
0.0
11
1.402949
21
0.995258
31
0.0
0
LINE
8
FRONT
10
1.402949
20
0.995258
30
0.0
11
1.397786
21
0.989997
31
0.0
0
LINE
8
FRONT
10
1.397786
20
0.989997
30
0.0
11
1.392221
21
0.985163
31
0.0
0
LINE
8
FRONT
10
1.392221
20
0.985163
30
0.0
11
1.386291
21
0.980786
31
0.0
0
LINE
8
FRONT
10
1.386291
20
0.980786
30
0.0
11
1.380031
21
0.976894
31
0.0
0
LINE
8
FRONT
10
1.380031
20
0.976894
30
0.0
11
1.373482
21
0.973511
31
0.0
0
LINE
8
FRONT
10
1.373482
20
0.973511
30
0.0
11
1.366686
21
0.970658
31
0.0
0
LINE
8
FRONT
10
1.366686
20
0.970658
30
0.0
11
1.359684
21
0.968354
31
0.0
0
LINE
8
FRONT
10
1.359684
20
0.968354
30
0.0
11
1.352522
21
0.966614
31
0.0
0
LINE
8
FRONT
10
1.352522
20
0.966614
30
0.0
11
1.345244
21
0.965447
31
0.0
0
LINE
8
FRONT
10
1.345244
20
0.965447
30
0.0
11
1.337896
21
0.964862
31
0.0
0
LINE
8
FRONT
10
1.337896
20
0.964862
30
0.0
11
1.330525
21
0.964862
31
0.0
0
LINE
8
FRONT
10
1.330525
20
0.964862
30
0.0
11
1.323177
21
0.965447
31
0.0
0
LINE
8
FRONT
10
1.323177
20
0.965447
30
0.0
11
1.315899
21
0.966614
31
0.0
0
LINE
8
FRONT
10
1.315899
20
0.966614
30
0.0
11
1.308737
21
0.968354
31
0.0
0
LINE
8
FRONT
10
1.308737
20
0.968354
30
0.0
11
1.301735
21
0.970658
31
0.0
0
LINE
8
FRONT
10
1.301735
20
0.970658
30
0.0
11
1.294939
21
0.973511
31
0.0
0
LINE
8
FRONT
10
1.294939
20
0.973511
30
0.0
11
1.288390
21
0.976894
31
0.0
0
LINE
8
FRONT
10
1.288390
20
0.976894
30
0.0
11
1.282131
21
0.980786
31
0.0
0
LINE
8
FRONT
10
1.282131
20
0.980786
30
0.0
11
1.276200
21
0.985163
31
0.0
0
LINE
8
FRONT
10
1.276200
20
0.985163
30
0.0
11
1.270635
21
0.989997
31
0.0
0
LINE
8
FRONT
10
1.270635
20
0.989997
30
0.0
11
1.265472
21
0.995258
31
0.0
0
LINE
8
FRONT
10
1.265472
20
0.995258
30
0.0
11
1.260743
21
1.000912
31
0.0
0
LINE
8
FRONT
10
1.260743
20
1.000912
30
0.0
11
1.256478
21
1.006923
31
0.0
0
LINE
8
FRONT
10
1.256478
20
1.006923
30
0.0
11
1.252703
21
1.013254
31
0.0
0
LINE
8
FRONT
10
1.252703
20
1.013254
30
0.0
11
1.249443
21
1.019865
31
0.0
0
LINE
8
FRONT
10
1.249443
20
1.019865
30
0.0
11
1.246718
21
1.026714
31
0.0
0
LINE
8
FRONT
10
1.246718
20
1.026714
30
0.0
11
1.244545
21
1.033757
31
0.0
0
LINE
8
FRONT
10
1.244545
20
1.033757
30
0.0
11
1.242939
21
1.040951
31
0.0
0
LINE
8
FRONT
10
1.242939
20
1.040951
30
0.0
11
1.241909
21
1.048250
31
0.0
0
LINE
8
FRONT
10
1.241909
20
1.048250
30
0.0
11
1.241461
21
1.055607
31
0.0
0
LINE
8
FRONT
10
1.241461
20
1.055607
30
0.0
11
1.241599
21
1.062977
31
0.0
0
LINE
8
FRONT
10
1.241599
20
1.062977
30
0.0
11
1.242321
21
1.070312
31
0.0
0
LINE
8
FRONT
10
1.242321
20
1.070312
30
0.0
11
1.243624
21
1.077567
31
0.0
0
LINE
8
FRONT
10
1.243624
20
1.077567
30
0.0
11
1.245498
21
1.084696
31
0.0
0
LINE
8
FRONT
10
1.245498
20
1.084696
30
0.0
11
1.247933
21
1.091653
31
0.0
0
LINE
8
FRONT
10
1.247933
20
1.091653
30
0.0
11
1.250912
21
1.098395
31
0.0
0
LINE
8
FRONT
10
1.250912
20
1.098395
30
0.0
11
1.254417
21
1.104880
31
0.0
0
LINE
8
FRONT
10
1.254417
20
1.104880
30
0.0
11
1.258425
21
1.111065
31
0.0
0
LINE
8
FRONT
10
1.258425
20
1.111065
30
0.0
11
1.262913
21
1.116913
31
0.0
0
LINE
8
FRONT
10
1.262913
20
1.116913
30
0.0
11
1.267850
21
1.122386
31
0.0
0
LINE
8
FRONT
10
1.267850
20
1.122386
30
0.0
11
1.273206
21
1.127450
31
0.0
0
LINE
8
FRONT
10
1.273206
20
1.127450
30
0.0
11
1.278947
21
1.132072
31
0.0
0
LINE
8
FRONT
10
1.278947
20
1.132072
30
0.0
11
1.057895
21
1.132072
31
0.0
0
LINE
8
FRONT
10
1.057895
20
1.132072
30
0.0
11
1.063636
21
1.127450
31
0.0
0
LINE
8
FRONT
10
1.063636
20
1.127450
30
0.0
11
1.068992
21
1.122386
31
0.0
0
LINE
8
FRONT
10
1.068992
20
1.122386
30
0.0
11
1.073929
21
1.116913
31
0.0
0
LINE
8
FRONT
10
1.073929
20
1.116913
30
0.0
11
1.078417
21
1.111065
31
0.0
0
LINE
8
FRONT
10
1.078417
20
1.111065
30
0.0
11
1.082425
21
1.104880
31
0.0
0
LINE
8
FRONT
10
1.082425
20
1.104880
30
0.0
11
1.085930
21
1.098395
31
0.0
0
LINE
8
FRONT
10
1.085930
20
1.098395
30
0.0
11
1.088909
21
1.091653
31
0.0
0
LINE
8
FRONT
10
1.088909
20
1.091653
30
0.0
11
1.091344
21
1.084696
31
0.0
0
LINE
8
FRONT
10
1.091344
20
1.084696
30
0.0
11
1.093218
21
1.077567
31
0.0
0
LINE
8
FRONT
10
1.093218
20
1.077567
30
0.0
11
1.094521
21
1.070312
31
0.0
0
LINE
8
FRONT
10
1.094521
20
1.070312
30
0.0
11
1.095243
21
1.062977
31
0.0
0
LINE
8
FRONT
10
1.095243
20
1.062977
30
0.0
11
1.095381
21
1.055607
31
0.0
0
LINE
8
FRONT
10
1.095381
20
1.055607
30
0.0
11
1.094934
21
1.048250
31
0.0
0
LINE
8
FRONT
10
1.094934
20
1.048250
30
0.0
11
1.093903
21
1.040951
31
0.0
0
LINE
8
FRONT
10
1.093903
20
1.040951
30
0.0
11
1.092297
21
1.033757
31
0.0
0
LINE
8
FRONT
10
1.092297
20
1.033757
30
0.0
11
1.090124
21
1.026714
31
0.0
0
LINE
8
FRONT
10
1.090124
20
1.026714
30
0.0
11
1.087399
21
1.019865
31
0.0
0
LINE
8
FRONT
10
1.087399
20
1.019865
30
0.0
11
1.084139
21
1.013254
31
0.0
0
LINE
8
FRONT
10
1.084139
20
1.013254
30
0.0
11
1.080364
21
1.006923
31
0.0
0
LINE
8
FRONT
10
1.080364
20
1.006923
30
0.0
11
1.076099
21
1.000912
31
0.0
0
LINE
8
FRONT
10
1.076099
20
1.000912
30
0.0
11
1.071370
21
0.995258
31
0.0
0
LINE
8
FRONT
10
1.071370
20
0.995258
30
0.0
11
1.066207
21
0.989997
31
0.0
0
LINE
8
FRONT
10
1.066207
20
0.989997
30
0.0
11
1.060642
21
0.985163
31
0.0
0
LINE
8
FRONT
10
1.060642
20
0.985163
30
0.0
11
1.054712
21
0.980786
31
0.0
0
LINE
8
FRONT
10
1.054712
20
0.980786
30
0.0
11
1.048452
21
0.976894
31
0.0
0
LINE
8
FRONT
10
1.048452
20
0.976894
30
0.0
11
1.041903
21
0.973511
31
0.0
0
LINE
8
FRONT
10
1.041903
20
0.973511
30
0.0
11
1.035107
21
0.970658
31
0.0
0
LINE
8
FRONT
10
1.035107
20
0.970658
30
0.0
11
1.028105
21
0.968354
31
0.0
0
LINE
8
FRONT
10
1.028105
20
0.968354
30
0.0
11
1.020943
21
0.966614
31
0.0
0
LINE
8
FRONT
10
1.020943
20
0.966614
30
0.0
11
1.013665
21
0.965447
31
0.0
0
LINE
8
FRONT
10
1.013665
20
0.965447
30
0.0
11
1.006317
21
0.964862
31
0.0
0
LINE
8
FRONT
10
1.006317
20
0.964862
30
0.0
11
0.998946
21
0.964862
31
0.0
0
LINE
8
FRONT
10
0.998946
20
0.964862
30
0.0
11
0.991598
21
0.965447
31
0.0
0
LINE
8
FRONT
10
0.991598
20
0.965447
30
0.0
11
0.984320
21
0.966614
31
0.0
0
LINE
8
FRONT
10
0.984320
20
0.966614
30
0.0
11
0.977158
21
0.968354
31
0.0
0
LINE
8
FRONT
10
0.977158
20
0.968354
30
0.0
11
0.970156
21
0.970658
31
0.0
0
LINE
8
FRONT
10
0.970156
20
0.970658
30
0.0
11
0.963360
21
0.973511
31
0.0
0
LINE
8
FRONT
10
0.963360
20
0.973511
30
0.0
11
0.956811
21
0.976894
31
0.0
0
LINE
8
FRONT
10
0.956811
20
0.976894
30
0.0
11
0.950552
21
0.980786
31
0.0
0
LINE
8
FRONT
10
0.950552
20
0.980786
30
0.0
11
0.944621
21
0.985163
31
0.0
0
LINE
8
FRONT
10
0.944621
20
0.985163
30
0.0
11
0.939056
21
0.989997
31
0.0
0
LINE
8
FRONT
10
0.939056
20
0.989997
30
0.0
11
0.933893
21
0.995258
31
0.0
0
LINE
8
FRONT
10
0.933893
20
0.995258
30
0.0
11
0.929164
21
1.000912
31
0.0
0
LINE
8
FRONT
10
0.929164
20
1.000912
30
0.0
11
0.924899
21
1.006923
31
0.0
0
LINE
8
FRONT
10
0.924899
20
1.006923
30
0.0
11
0.921124
21
1.013254
31
0.0
0
LINE
8
FRONT
10
0.921124
20
1.013254
30
0.0
11
0.917864
21
1.019865
31
0.0
0
LINE
8
FRONT
10
0.917864
20
1.019865
30
0.0
11
0.915139
21
1.026714
31
0.0
0
LINE
8
FRONT
10
0.915139
20
1.026714
30
0.0
11
0.912967
21
1.033757
31
0.0
0
LINE
8
FRONT
10
0.912967
20
1.033757
30
0.0
11
0.911360
21
1.040951
31
0.0
0
LINE
8
FRONT
10
0.911360
20
1.040951
30
0.0
11
0.910330
21
1.048250
31
0.0
0
LINE
8
FRONT
10
0.910330
20
1.048250
30
0.0
11
0.909882
21
1.055607
31
0.0
0
LINE
8
FRONT
10
0.909882
20
1.055607
30
0.0
11
0.910020
21
1.062977
31
0.0
0
LINE
8
FRONT
10
0.910020
20
1.062977
30
0.0
11
0.910742
21
1.070312
31
0.0
0
LINE
8
FRONT
10
0.910742
20
1.070312
30
0.0
11
0.912045
21
1.077567
31
0.0
0
LINE
8
FRONT
10
0.912045
20
1.077567
30
0.0
11
0.913919
21
1.084696
31
0.0
0
LINE
8
FRONT
10
0.913919
20
1.084696
30
0.0
11
0.916354
21
1.091653
31
0.0
0
LINE
8
FRONT
10
0.916354
20
1.091653
30
0.0
11
0.919333
21
1.098395
31
0.0
0
LINE
8
FRONT
10
0.919333
20
1.098395
30
0.0
11
0.922838
21
1.104880
31
0.0
0
LINE
8
FRONT
10
0.922838
20
1.104880
30
0.0
11
0.926847
21
1.111065
31
0.0
0
LINE
8
FRONT
10
0.926847
20
1.111065
30
0.0
11
0.931334
21
1.116913
31
0.0
0
LINE
8
FRONT
10
0.931334
20
1.116913
30
0.0
11
0.936271
21
1.122386
31
0.0
0
LINE
8
FRONT
10
0.936271
20
1.122386
30
0.0
11
0.941627
21
1.127450
31
0.0
0
LINE
8
FRONT
10
0.941627
20
1.127450
30
0.0
11
0.947368
21
1.132072
31
0.0
0
LINE
8
FRONT
10
0.947368
20
1.132072
30
0.0
11
0.552632
21
1.132072
31
0.0
0
LINE
8
FRONT
10
0.552632
20
1.132072
30
0.0
11
0.558373
21
1.127450
31
0.0
0
LINE
8
FRONT
10
0.558373
20
1.127450
30
0.0
11
0.563729
21
1.122386
31
0.0
0
LINE
8
FRONT
10
0.563729
20
1.122386
30
0.0
11
0.568666
21
1.116913
31
0.0
0
LINE
8
FRONT
10
0.568666
20
1.116913
30
0.0
11
0.573153
21
1.111065
31
0.0
0
LINE
8
FRONT
10
0.573153
20
1.111065
30
0.0
11
0.577162
21
1.104880
31
0.0
0
LINE
8
FRONT
10
0.577162
20
1.104880
30
0.0
11
0.580667
21
1.098395
31
0.0
0
LINE
8
FRONT
10
0.580667
20
1.098395
30
0.0
11
0.583646
21
1.091653
31
0.0
0
LINE
8
FRONT
10
0.583646
20
1.091653
30
0.0
11
0.586081
21
1.084696
31
0.0
0
LINE
8
FRONT
10
0.586081
20
1.084696
30
0.0
11
0.587955
21
1.077567
31
0.0
0
LINE
8
FRONT
10
0.587955
20
1.077567
30
0.0
11
0.589258
21
1.070312
31
0.0
0
LINE
8
FRONT
10
0.589258
20
1.070312
30
0.0
11
0.589980
21
1.062977
31
0.0
0
LINE
8
FRONT
10
0.589980
20
1.062977
30
0.0
11
0.590118
21
1.055607
31
0.0
0
LINE
8
FRONT
10
0.590118
20
1.055607
30
0.0
11
0.589670
21
1.048250
31
0.0
0
LINE
8
FRONT
10
0.589670
20
1.048250
30
0.0
11
0.588640
21
1.040951
31
0.0
0
LINE
8
FRONT
10
0.588640
20
1.040951
30
0.0
11
0.587033
21
1.033757
31
0.0
0
LINE
8
FRONT
10
0.587033
20
1.033757
30
0.0
11
0.584861
21
1.026714
31
0.0
0
LINE
8
FRONT
10
0.584861
20
1.026714
30
0.0
11
0.582136
21
1.019865
31
0.0
0
LINE
8
FRONT
10
0.582136
20
1.019865
30
0.0
11
0.578876
21
1.013254
31
0.0
0
LINE
8
FRONT
10
0.578876
20
1.013254
30
0.0
11
0.575101
21
1.006923
31
0.0
0
LINE
8
FRONT
10
0.575101
20
1.006923
30
0.0
11
0.570836
21
1.000912
31
0.0
0
LINE
8
FRONT
10
0.570836
20
1.000912
30
0.0
11
0.566107
21
0.995258
31
0.0
0
LINE
8
FRONT
10
0.566107
20
0.995258
30
0.0
11
0.560944
21
0.989997
31
0.0
0
LINE
8
FRONT
10
0.560944
20
0.989997
30
0.0
11
0.555379
21
0.985163
31
0.0
0
LINE
8
FRONT
10
0.555379
20
0.985163
30
0.0
11
0.549448
21
0.980786
31
0.0
0
LINE
8
FRONT
10
0.549448
20
0.980786
30
0.0
11
0.543189
21
0.976894
31
0.0
0
LINE
8
FRONT
10
0.543189
20
0.976894
30
0.0
11
0.536640
21
0.973511
31
0.0
0
LINE
8
FRONT
10
0.536640
20
0.973511
30
0.0
11
0.529844
21
0.970658
31
0.0
0
LINE
8
FRONT
10
0.529844
20
0.970658
30
0.0
11
0.522842
21
0.968354
31
0.0
0
LINE
8
FRONT
10
0.522842
20
0.968354
30
0.0
11
0.515680
21
0.966614
31
0.0
0
LINE
8
FRONT
10
0.515680
20
0.966614
30
0.0
11
0.508402
21
0.965447
31
0.0
0
LINE
8
FRONT
10
0.508402
20
0.965447
30
0.0
11
0.501054
21
0.964862
31
0.0
0
LINE
8
FRONT
10
0.501054
20
0.964862
30
0.0
11
0.493683
21
0.964862
31
0.0
0
LINE
8
FRONT
10
0.493683
20
0.964862
30
0.0
11
0.486335
21
0.965447
31
0.0
0
LINE
8
FRONT
10
0.486335
20
0.965447
30
0.0
11
0.479057
21
0.966614
31
0.0
0
LINE
8
FRONT
10
0.479057
20
0.966614
30
0.0
11
0.471895
21
0.968354
31
0.0
0
LINE
8
FRONT
10
0.471895
20
0.968354
30
0.0
11
0.464893
21
0.970658
31
0.0
0
LINE
8
FRONT
10
0.464893
20
0.970658
30
0.0
11
0.458097
21
0.973511
31
0.0
0
LINE
8
FRONT
10
0.458097
20
0.973511
30
0.0
11
0.451548
21
0.976894
31
0.0
0
LINE
8
FRONT
10
0.451548
20
0.976894
30
0.0
11
0.445288
21
0.980786
31
0.0
0
LINE
8
FRONT
10
0.445288
20
0.980786
30
0.0
11
0.439358
21
0.985163
31
0.0
0
LINE
8
FRONT
10
0.439358
20
0.985163
30
0.0
11
0.433793
21
0.989997
31
0.0
0
LINE
8
FRONT
10
0.433793
20
0.989997
30
0.0
11
0.428630
21
0.995258
31
0.0
0
LINE
8
FRONT
10
0.428630
20
0.995258
30
0.0
11
0.423901
21
1.000912
31
0.0
0
LINE
8
FRONT
10
0.423901
20
1.000912
30
0.0
11
0.419636
21
1.006923
31
0.0
0
LINE
8
FRONT
10
0.419636
20
1.006923
30
0.0
11
0.415861
21
1.013254
31
0.0
0
LINE
8
FRONT
10
0.415861
20
1.013254
30
0.0
11
0.412601
21
1.019865
31
0.0
0
LINE
8
FRONT
10
0.412601
20
1.019865
30
0.0
11
0.409876
21
1.026714
31
0.0
0
LINE
8
FRONT
10
0.409876
20
1.026714
30
0.0
11
0.407703
21
1.033757
31
0.0
0
LINE
8
FRONT
10
0.407703
20
1.033757
30
0.0
11
0.406097
21
1.040951
31
0.0
0
LINE
8
FRONT
10
0.406097
20
1.040951
30
0.0
11
0.405066
21
1.048250
31
0.0
0
LINE
8
FRONT
10
0.405066
20
1.048250
30
0.0
11
0.404619
21
1.055607
31
0.0
0
LINE
8
FRONT
10
0.404619
20
1.055607
30
0.0
11
0.404757
21
1.062977
31
0.0
0
LINE
8
FRONT
10
0.404757
20
1.062977
30
0.0
11
0.405479
21
1.070312
31
0.0
0
LINE
8
FRONT
10
0.405479
20
1.070312
30
0.0
11
0.406782
21
1.077567
31
0.0
0
LINE
8
FRONT
10
0.406782
20
1.077567
30
0.0
11
0.408656
21
1.084696
31
0.0
0
LINE
8
FRONT
10
0.408656
20
1.084696
30
0.0
11
0.411091
21
1.091653
31
0.0
0
LINE
8
FRONT
10
0.411091
20
1.091653
30
0.0
11
0.414070
21
1.098395
31
0.0
0
LINE
8
FRONT
10
0.414070
20
1.098395
30
0.0
11
0.417575
21
1.104880
31
0.0
0
LINE
8
FRONT
10
0.417575
20
1.104880
30
0.0
11
0.421583
21
1.111065
31
0.0
0
LINE
8
FRONT
10
0.421583
20
1.111065
30
0.0
11
0.426071
21
1.116913
31
0.0
0
LINE
8
FRONT
10
0.426071
20
1.116913
30
0.0
11
0.431008
21
1.122386
31
0.0
0
LINE
8
FRONT
10
0.431008
20
1.122386
30
0.0
11
0.436364
21
1.127450
31
0.0
0
LINE
8
FRONT
10
0.436364
20
1.127450
30
0.0
11
0.442105
21
1.132072
31
0.0
0
LINE
8
FRONT
10
0.442105
20
1.132072
30
0.0
11
0.221053
21
1.132072
31
0.0
0
LINE
8
FRONT
10
0.221053
20
1.132072
30
0.0
11
0.226794
21
1.127450
31
0.0
0
LINE
8
FRONT
10
0.226794
20
1.127450
30
0.0
11
0.232150
21
1.122386
31
0.0
0
LINE
8
FRONT
10
0.232150
20
1.122386
30
0.0
11
0.237087
21
1.116913
31
0.0
0
LINE
8
FRONT
10
0.237087
20
1.116913
30
0.0
11
0.241575
21
1.111065
31
0.0
0
LINE
8
FRONT
10
0.241575
20
1.111065
30
0.0
11
0.245583
21
1.104880
31
0.0
0
LINE
8
FRONT
10
0.245583
20
1.104880
30
0.0
11
0.249088
21
1.098395
31
0.0
0
LINE
8
FRONT
10
0.249088
20
1.098395
30
0.0
11
0.252067
21
1.091653
31
0.0
0
LINE
8
FRONT
10
0.252067
20
1.091653
30
0.0
11
0.254502
21
1.084696
31
0.0
0
LINE
8
FRONT
10
0.254502
20
1.084696
30
0.0
11
0.256376
21
1.077567
31
0.0
0
LINE
8
FRONT
10
0.256376
20
1.077567
30
0.0
11
0.257679
21
1.070312
31
0.0
0
LINE
8
FRONT
10
0.257679
20
1.070312
30
0.0
11
0.258401
21
1.062977
31
0.0
0
LINE
8
FRONT
10
0.258401
20
1.062977
30
0.0
11
0.258539
21
1.055607
31
0.0
0
LINE
8
FRONT
10
0.258539
20
1.055607
30
0.0
11
0.258091
21
1.048250
31
0.0
0
LINE
8
FRONT
10
0.258091
20
1.048250
30
0.0
11
0.257061
21
1.040951
31
0.0
0
LINE
8
FRONT
10
0.257061
20
1.040951
30
0.0
11
0.255455
21
1.033757
31
0.0
0
LINE
8
FRONT
10
0.255455
20
1.033757
30
0.0
11
0.253282
21
1.026714
31
0.0
0
LINE
8
FRONT
10
0.253282
20
1.026714
30
0.0
11
0.250557
21
1.019865
31
0.0
0
LINE
8
FRONT
10
0.250557
20
1.019865
30
0.0
11
0.247297
21
1.013254
31
0.0
0
LINE
8
FRONT
10
0.247297
20
1.013254
30
0.0
11
0.243522
21
1.006923
31
0.0
0
LINE
8
FRONT
10
0.243522
20
1.006923
30
0.0
11
0.239257
21
1.000912
31
0.0
0
LINE
8
FRONT
10
0.239257
20
1.000912
30
0.0
11
0.234528
21
0.995258
31
0.0
0
LINE
8
FRONT
10
0.234528
20
0.995258
30
0.0
11
0.229365
21
0.989997
31
0.0
0
LINE
8
FRONT
10
0.229365
20
0.989997
30
0.0
11
0.223800
21
0.985163
31
0.0
0
LINE
8
FRONT
10
0.223800
20
0.985163
30
0.0
11
0.217869
21
0.980786
31
0.0
0
LINE
8
FRONT
10
0.217869
20
0.980786
30
0.0
11
0.211610
21
0.976894
31
0.0
0
LINE
8
FRONT
10
0.211610
20
0.976894
30
0.0
11
0.205061
21
0.973511
31
0.0
0
LINE
8
FRONT
10
0.205061
20
0.973511
30
0.0
11
0.198265
21
0.970658
31
0.0
0
LINE
8
FRONT
10
0.198265
20
0.970658
30
0.0
11
0.191263
21
0.968354
31
0.0
0
LINE
8
FRONT
10
0.191263
20
0.968354
30
0.0
11
0.184101
21
0.966614
31
0.0
0
LINE
8
FRONT
10
0.184101
20
0.966614
30
0.0
11
0.176823
21
0.965447
31
0.0
0
LINE
8
FRONT
10
0.176823
20
0.965447
30
0.0
11
0.169475
21
0.964862
31
0.0
0
LINE
8
FRONT
10
0.169475
20
0.964862
30
0.0
11
0.162104
21
0.964862
31
0.0
0
LINE
8
FRONT
10
0.162104
20
0.964862
30
0.0
11
0.154756
21
0.965447
31
0.0
0
LINE
8
FRONT
10
0.154756
20
0.965447
30
0.0
11
0.147478
21
0.966614
31
0.0
0
LINE
8
FRONT
10
0.147478
20
0.966614
30
0.0
11
0.140316
21
0.968354
31
0.0
0
LINE
8
FRONT
10
0.140316
20
0.968354
30
0.0
11
0.133314
21
0.970658
31
0.0
0
LINE
8
FRONT
10
0.133314
20
0.970658
30
0.0
11
0.126518
21
0.973511
31
0.0
0
LINE
8
FRONT
10
0.126518
20
0.973511
30
0.0
11
0.119969
21
0.976894
31
0.0
0
LINE
8
FRONT
10
0.119969
20
0.976894
30
0.0
11
0.113709
21
0.980786
31
0.0
0
LINE
8
FRONT
10
0.113709
20
0.980786
30
0.0
11
0.107779
21
0.985163
31
0.0
0
LINE
8
FRONT
10
0.107779
20
0.985163
30
0.0
11
0.102214
21
0.989997
31
0.0
0
LINE
8
FRONT
10
0.102214
20
0.989997
30
0.0
11
0.097051
21
0.995258
31
0.0
0
LINE
8
FRONT
10
0.097051
20
0.995258
30
0.0
11
0.092322
21
1.000912
31
0.0
0
LINE
8
FRONT
10
0.092322
20
1.000912
30
0.0
11
0.088057
21
1.006923
31
0.0
0
LINE
8
FRONT
10
0.088057
20
1.006923
30
0.0
11
0.084282
21
1.013254
31
0.0
0
LINE
8
FRONT
10
0.084282
20
1.013254
30
0.0
11
0.081022
21
1.019865
31
0.0
0
LINE
8
FRONT
10
0.081022
20
1.019865
30
0.0
11
0.078297
21
1.026714
31
0.0
0
LINE
8
FRONT
10
0.078297
20
1.026714
30
0.0
11
0.076124
21
1.033757
31
0.0
0
LINE
8
FRONT
10
0.076124
20
1.033757
30
0.0
11
0.074518
21
1.040951
31
0.0
0
LINE
8
FRONT
10
0.074518
20
1.040951
30
0.0
11
0.073487
21
1.048250
31
0.0
0
LINE
8
FRONT
10
0.073487
20
1.048250
30
0.0
11
0.073040
21
1.055607
31
0.0
0
LINE
8
FRONT
10
0.073040
20
1.055607
30
0.0
11
0.073178
21
1.062977
31
0.0
0
LINE
8
FRONT
10
0.073178
20
1.062977
30
0.0
11
0.073900
21
1.070312
31
0.0
0
LINE
8
FRONT
10
0.073900
20
1.070312
30
0.0
11
0.075203
21
1.077567
31
0.0
0
LINE
8
FRONT
10
0.075203
20
1.077567
30
0.0
11
0.077077
21
1.084696
31
0.0
0
LINE
8
FRONT
10
0.077077
20
1.084696
30
0.0
11
0.079512
21
1.091653
31
0.0
0
LINE
8
FRONT
10
0.079512
20
1.091653
30
0.0
11
0.082491
21
1.098395
31
0.0
0
LINE
8
FRONT
10
0.082491
20
1.098395
30
0.0
11
0.085996
21
1.104880
31
0.0
0
LINE
8
FRONT
10
0.085996
20
1.104880
30
0.0
11
0.090004
21
1.111065
31
0.0
0
LINE
8
FRONT
10
0.090004
20
1.111065
30
0.0
11
0.094492
21
1.116913
31
0.0
0
LINE
8
FRONT
10
0.094492
20
1.116913
30
0.0
11
0.099429
21
1.122386
31
0.0
0
LINE
8
FRONT
10
0.099429
20
1.122386
30
0.0
11
0.104785
21
1.127450
31
0.0
0
LINE
8
FRONT
10
0.104785
20
1.127450
30
0.0
11
0.110526
21
1.132072
31
0.0
0
LINE
8
FRONT
10
0.110526
20
1.132072
30
0.0
11
0.000000
21
1.132072
31
0.0
0
LINE
8
FRONT
10
0.000000
20
1.132072
30
0.0
11
0.000000
21
0.753125
31
0.0
0
LINE
8
LEFT
10
1.800000
20
0.753125
30
0.0
11
2.253125
21
0.753125
31
0.0
0
LINE
8
LEFT
10
1.800000
20
1.132072
30
0.0
11
2.253125
21
1.132072
31
0.0
0
LINE
8
LEFT
10
2.253125
20
1.132072
30
0.0
11
2.253125
21
0.753125
31
0.0
0
LINE
8
LEFT
10
1.800000
20
1.132072
30
0.0
11
1.800000
21
0.753125
31
0.0
0
LINE
8
LEFT_HID
6
HIDDEN
10
2.253125
20
1.132072
30
0.0
11
2.253125
21
0.964788
31
0.0
0
LINE
8
LEFT_HID
6
HIDDEN
10
2.253125
20
0.964788
30
0.0
11
2.253125
21
1.132072
31
0.0
0
LINE
8
LEFT_HID
6
HIDDEN
10
1.800000
20
1.132072
30
0.0
11
1.800000
21
0.964788
31
0.0
0
LINE
8
LEFT_HID
6
HIDDEN
10
1.800000
20
0.964788
30
0.0
11
1.800000
21
1.132072
31
0.0
0
LINE
8
LEFT_HID
6
HIDDEN
10
2.253125
20
1.132072
30
0.0
11
2.253125
21
0.964788
31
0.0
0
LINE
8
LEFT_HID
6
HIDDEN
10
2.253125
20
0.964788
30
0.0
11
2.253125
21
1.132072
31
0.0
0
LINE
8
LEFT_HID
6
HIDDEN
10
1.800000
20
1.132072
30
0.0
11
1.800000
21
0.964788
31
0.0
0
LINE
8
LEFT_HID
6
HIDDEN
10
1.800000
20
0.964788
30
0.0
11
1.800000
21
1.132072
31
0.0
0
LINE
8
LEFT_HID
6
HIDDEN
10
2.253125
20
1.132072
30
0.0
11
2.253125
21
0.964788
31
0.0
0
LINE
8
LEFT_HID
6
HIDDEN
10
2.253125
20
0.964788
30
0.0
11
2.253125
21
1.132072
31
0.0
0
LINE
8
LEFT_HID
6
HIDDEN
10
1.800000
20
1.132072
30
0.0
11
1.800000
21
0.964788
31
0.0
0
LINE
8
LEFT_HID
6
HIDDEN
10
1.800000
20
0.964788
30
0.0
11
1.800000
21
1.132072
31
0.0
0
LINE
8
LEFT_HID
6
HIDDEN
10
2.253125
20
1.132072
30
0.0
11
2.253125
21
0.964788
31
0.0
0
LINE
8
LEFT_HID
6
HIDDEN
10
2.253125
20
0.964788
30
0.0
11
2.253125
21
1.132072
31
0.0
0
LINE
8
LEFT_HID
6
HIDDEN
10
1.800000
20
1.132072
30
0.0
11
1.800000
21
0.964788
31
0.0
0
LINE
8
LEFT_HID
6
HIDDEN
10
1.800000
20
0.964788
30
0.0
11
1.800000
21
1.132072
31
0.0
0
LINE
8
LEFT_HID
6
HIDDEN
10
2.253125
20
0.964788
30
0.0
11
1.800000
21
0.964788
31
0.0
0
LINE
8
LEFT_HID
6
HIDDEN
10
2.253125
20
0.964788
30
0.0
11
1.800000
21
0.964788
31
0.0
0
LINE
8
LEFT_HID
6
HIDDEN
10
2.253125
20
0.964788
30
0.0
11
1.800000
21
0.964788
31
0.0
0
LINE
8
LEFT_HID
6
HIDDEN
10
2.253125
20
0.964788
30
0.0
11
1.800000
21
0.964788
31
0.0
0
LINE
8
TOP
10
1.500000
20
0.453125
30
0.0
11
1.500000
21
0.000000
31
0.0
0
LINE
8
TOP
10
1.500000
20
0.000000
30
0.0
11
1.389474
21
0.000000
31
0.0
0
LINE
8
TOP
10
1.389474
20
0.453125
30
0.0
11
1.389474
21
0.000000
31
0.0
0
LINE
8
TOP
10
1.500000
20
0.453125
30
0.0
11
1.389474
21
0.453125
31
0.0
0
LINE
8
TOP
10
1.389474
20
0.000000
30
0.0
11
1.278947
21
0.000000
31
0.0
0
LINE
8
TOP
10
1.278947
20
0.453125
30
0.0
11
1.278947
21
0.000000
31
0.0
0
LINE
8
TOP
10
1.389474
20
0.453125
30
0.0
11
1.278947
21
0.453125
31
0.0
0
LINE
8
TOP
10
1.278947
20
0.000000
30
0.0
11
1.057895
21
0.000000
31
0.0
0
LINE
8
TOP
10
1.057895
20
0.453125
30
0.0
11
1.057895
21
0.000000
31
0.0
0
LINE
8
TOP
10
1.278947
20
0.453125
30
0.0
11
1.057895
21
0.453125
31
0.0
0
LINE
8
TOP
10
1.057895
20
0.000000
30
0.0
11
0.947368
21
0.000000
31
0.0
0
LINE
8
TOP
10
0.947368
20
0.453125
30
0.0
11
0.947368
21
0.000000
31
0.0
0
LINE
8
TOP
10
1.057895
20
0.453125
30
0.0
11
0.947368
21
0.453125
31
0.0
0
LINE
8
TOP
10
0.947368
20
0.000000
30
0.0
11
0.552632
21
0.000000
31
0.0
0
LINE
8
TOP
10
0.552632
20
0.453125
30
0.0
11
0.552632
21
0.000000
31
0.0
0
LINE
8
TOP
10
0.947368
20
0.453125
30
0.0
11
0.552632
21
0.453125
31
0.0
0
LINE
8
TOP
10
0.552632
20
0.000000
30
0.0
11
0.442105
21
0.000000
31
0.0
0
LINE
8
TOP
10
0.442105
20
0.453125
30
0.0
11
0.442105
21
0.000000
31
0.0
0
LINE
8
TOP
10
0.552632
20
0.453125
30
0.0
11
0.442105
21
0.453125
31
0.0
0
LINE
8
TOP
10
0.442105
20
0.000000
30
0.0
11
0.221053
21
0.000000
31
0.0
0
LINE
8
TOP
10
0.221053
20
0.453125
30
0.0
11
0.221053
21
0.000000
31
0.0
0
LINE
8
TOP
10
0.442105
20
0.453125
30
0.0
11
0.221053
21
0.453125
31
0.0
0
LINE
8
TOP
10
0.221053
20
0.000000
30
0.0
11
0.110526
21
0.000000
31
0.0
0
LINE
8
TOP
10
0.110526
20
0.453125
30
0.0
11
0.110526
21
0.000000
31
0.0
0
LINE
8
TOP
10
0.221053
20
0.453125
30
0.0
11
0.110526
21
0.453125
31
0.0
0
LINE
8
TOP
10
0.110526
20
0.000000
30
0.0
11
0.000000
21
0.000000
31
0.0
0
LINE
8
TOP
10
0.000000
20
0.453125
30
0.0
11
0.000000
21
0.000000
31
0.0
0
LINE
8
TOP
10
0.110526
20
0.453125
30
0.0
11
0.000000
21
0.453125
31
0.0
0
LINE
8
TOP_HID
6
HIDDEN
10
0.000000
20
0.000000
30
0.0
11
1.500000
21
0.000000
31
0.0
0
LINE
8
TOP_HID
6
HIDDEN
10
0.000000
20
0.453125
30
0.0
11
1.500000
21
0.453125
31
0.0
0
LINE
8
TOP_HID
6
HIDDEN
10
1.389474
20
0.000000
30
0.0
11
1.426981
21
0.000000
31
0.0
0
LINE
8
TOP_HID
6
HIDDEN
10
1.426981
20
0.000000
30
0.0
11
1.389474
21
0.000000
31
0.0
0
LINE
8
TOP_HID
6
HIDDEN
10
1.278947
20
0.000000
30
0.0
11
1.241440
21
0.000000
31
0.0
0
LINE
8
TOP_HID
6
HIDDEN
10
1.241440
20
0.000000
30
0.0
11
1.278947
21
0.000000
31
0.0
0
LINE
8
TOP_HID
6
HIDDEN
10
1.389474
20
0.453125
30
0.0
11
1.426981
21
0.453125
31
0.0
0
LINE
8
TOP_HID
6
HIDDEN
10
1.426981
20
0.453125
30
0.0
11
1.389474
21
0.453125
31
0.0
0
LINE
8
TOP_HID
6
HIDDEN
10
1.278947
20
0.453125
30
0.0
11
1.241440
21
0.453125
31
0.0
0
LINE
8
TOP_HID
6
HIDDEN
10
1.241440
20
0.453125
30
0.0
11
1.278947
21
0.453125
31
0.0
0
LINE
8
TOP_HID
6
HIDDEN
10
1.057895
20
0.000000
30
0.0
11
1.095402
21
0.000000
31
0.0
0
LINE
8
TOP_HID
6
HIDDEN
10
1.095402
20
0.000000
30
0.0
11
1.057895
21
0.000000
31
0.0
0
LINE
8
TOP_HID
6
HIDDEN
10
0.947368
20
0.000000
30
0.0
11
0.909861
21
0.000000
31
0.0
0
LINE
8
TOP_HID
6
HIDDEN
10
0.909861
20
0.000000
30
0.0
11
0.947368
21
0.000000
31
0.0
0
LINE
8
TOP_HID
6
HIDDEN
10
1.057895
20
0.453125
30
0.0
11
1.095402
21
0.453125
31
0.0
0
LINE
8
TOP_HID
6
HIDDEN
10
1.095402
20
0.453125
30
0.0
11
1.057895
21
0.453125
31
0.0
0
LINE
8
TOP_HID
6
HIDDEN
10
0.947368
20
0.453125
30
0.0
11
0.909861
21
0.453125
31
0.0
0
LINE
8
TOP_HID
6
HIDDEN
10
0.909861
20
0.453125
30
0.0
11
0.947368
21
0.453125
31
0.0
0
LINE
8
TOP_HID
6
HIDDEN
10
0.552632
20
0.000000
30
0.0
11
0.590139
21
0.000000
31
0.0
0
LINE
8
TOP_HID
6
HIDDEN
10
0.590139
20
0.000000
30
0.0
11
0.552632
21
0.000000
31
0.0
0
LINE
8
TOP_HID
6
HIDDEN
10
0.442105
20
0.000000
30
0.0
11
0.404598
21
0.000000
31
0.0
0
LINE
8
TOP_HID
6
HIDDEN
10
0.404598
20
0.000000
30
0.0
11
0.442105
21
0.000000
31
0.0
0
LINE
8
TOP_HID
6
HIDDEN
10
0.552632
20
0.453125
30
0.0
11
0.590139
21
0.453125
31
0.0
0
LINE
8
TOP_HID
6
HIDDEN
10
0.590139
20
0.453125
30
0.0
11
0.552632
21
0.453125
31
0.0
0
LINE
8
TOP_HID
6
HIDDEN
10
0.442105
20
0.453125
30
0.0
11
0.404598
21
0.453125
31
0.0
0
LINE
8
TOP_HID
6
HIDDEN
10
0.404598
20
0.453125
30
0.0
11
0.442105
21
0.453125
31
0.0
0
LINE
8
TOP_HID
6
HIDDEN
10
0.221053
20
0.000000
30
0.0
11
0.258560
21
0.000000
31
0.0
0
LINE
8
TOP_HID
6
HIDDEN
10
0.258560
20
0.000000
30
0.0
11
0.221053
21
0.000000
31
0.0
0
LINE
8
TOP_HID
6
HIDDEN
10
0.110526
20
0.000000
30
0.0
11
0.073019
21
0.000000
31
0.0
0
LINE
8
TOP_HID
6
HIDDEN
10
0.073019
20
0.000000
30
0.0
11
0.110526
21
0.000000
31
0.0
0
LINE
8
TOP_HID
6
HIDDEN
10
0.221053
20
0.453125
30
0.0
11
0.258560
21
0.453125
31
0.0
0
LINE
8
TOP_HID
6
HIDDEN
10
0.258560
20
0.453125
30
0.0
11
0.221053
21
0.453125
31
0.0
0
LINE
8
TOP_HID
6
HIDDEN
10
0.110526
20
0.453125
30
0.0
11
0.073019
21
0.453125
31
0.0
0
LINE
8
TOP_HID
6
HIDDEN
10
0.073019
20
0.453125
30
0.0
11
0.110526
21
0.453125
31
0.0
0
LINE
8
TOP_HID
6
HIDDEN
10
1.426981
20
0.000000
30
0.0
11
1.426981
21
0.453125
31
0.0
0
LINE
8
TOP_HID
6
HIDDEN
10
1.241440
20
0.000000
30
0.0
11
1.241440
21
0.453125
31
0.0
0
LINE
8
TOP_HID
6
HIDDEN
10
1.095402
20
0.000000
30
0.0
11
1.095402
21
0.453125
31
0.0
0
LINE
8
TOP_HID
6
HIDDEN
10
0.909861
20
0.000000
30
0.0
11
0.909861
21
0.453125
31
0.0
0
LINE
8
TOP_HID
6
HIDDEN
10
0.590139
20
0.000000
30
0.0
11
0.590139
21
0.453125
31
0.0
0
LINE
8
TOP_HID
6
HIDDEN
10
0.404598
20
0.000000
30
0.0
11
0.404598
21
0.453125
31
0.0
0
LINE
8
TOP_HID
6
HIDDEN
10
0.258560
20
0.000000
30
0.0
11
0.258560
21
0.453125
31
0.0
0
LINE
8
TOP_HID
6
HIDDEN
10
0.073019
20
0.000000
30
0.0
11
0.073019
21
0.453125
31
0.0
0
ENDSEC
0
EOF
