0
SECTION
2
HEADER
9
$ACADVER
1
AC1009
0
ENDSEC
0
SECTION
2
TABLES
0
TABLE
2
LTYPE
70
3
0
LTYPE
2
CONTINUOUS
70
0
3
Solid line
72
65
73
0
40
0.0
0
LTYPE
2
HIDDEN
70
0
3
__ __ __ __ __
72
65
73
2
40
0.037500
49
0.025013
49
-0.012488
0
LTYPE
2
CENTER
70
0
3
___ _ ___ _ ___
72
65
73
4
40
0.087488
49
0.049988
49
-0.012488
49
0.012488
49
-0.012488
0
ENDTAB
0
TABLE
2
LAYER
70
6
0
LAYER
2
0
70
0
62
7
6
CONTINUOUS
0
LAYER
2
FRONT
70
0
62
7
6
CONTINUOUS
0
LAYER
2
FRONT_HID
70
0
62
7
6
HIDDEN
0
LAYER
2
LEFT
70
0
62
7
6
CONTINUOUS
0
LAYER
2
LEFT_HID
70
0
62
7
6
HIDDEN
0
LAYER
2
TOP
70
0
62
7
6
CONTINUOUS
0
ENDTAB
0
ENDSEC
0
SECTION
2
ENTITIES
0
LINE
8
FRONT
10
0.189474
20
0.339415
30
0.0
11
0.000000
21
0.339415
31
0.0
0
LINE
8
FRONT
10
0.189474
20
0.339415
30
0.0
11
0.189474
21
1.089415
31
0.0
0
LINE
8
FRONT
10
0.189474
20
1.089415
30
0.0
11
0.000000
21
1.089415
31
0.0
0
LINE
8
FRONT
10
0.000000
20
1.089415
30
0.0
11
0.000000
21
0.339415
31
0.0
0
LINE
8
FRONT_HID
6
HIDDEN
10
0.153947
20
0.339415
30
0.0
11
0.035526
21
0.339415
31
0.0
0
LINE
8
FRONT_HID
6
HIDDEN
10
0.035526
20
0.339415
30
0.0
11
0.153947
21
0.339415
31
0.0
0
LINE
8
FRONT_HID
6
HIDDEN
10
0.153947
20
0.339415
30
0.0
11
0.153947
21
1.089415
31
0.0
0
LINE
8
FRONT_HID
6
HIDDEN
10
0.153947
20
1.089415
30
0.0
11
0.035526
21
1.089415
31
0.0
0
LINE
8
FRONT_HID
6
HIDDEN
10
0.035526
20
1.089415
30
0.0
11
0.153947
21
1.089415
31
0.0
0
LINE
8
FRONT_HID
6
HIDDEN
10
0.035526
20
1.089415
30
0.0
11
0.035526
21
0.339415
31
0.0
0
LINE
8
LEFT
10
0.339474
20
0.339415
30
0.0
11
0.528947
21
0.339415
31
0.0
0
LINE
8
LEFT
10
0.339474
20
1.089415
30
0.0
11
0.528947
21
1.089415
31
0.0
0
LINE
8
LEFT
10
0.339474
20
1.089415
30
0.0
11
0.339474
21
0.339415
31
0.0
0
LINE
8
LEFT
10
0.528947
20
1.089415
30
0.0
11
0.528947
21
0.339415
31
0.0
0
LINE
8
LEFT_HID
6
HIDDEN
10
0.434211
20
0.339415
30
0.0
11
0.339474
21
0.339415
31
0.0
0
LINE
8
LEFT_HID
6
HIDDEN
10
0.528947
20
0.339415
30
0.0
11
0.434211
21
0.339415
31
0.0
0
LINE
8
LEFT_HID
6
HIDDEN
10
0.434211
20
1.089415
30
0.0
11
0.339474
21
1.089415
31
0.0
0
LINE
8
LEFT_HID
6
HIDDEN
10
0.528947
20
1.089415
30
0.0
11
0.434211
21
1.089415
31
0.0
0
LINE
8
LEFT_HID
6
HIDDEN
10
0.434211
20
0.339415
30
0.0
11
0.375000
21
0.339415
31
0.0
0
LINE
8
LEFT_HID
6
HIDDEN
10
0.375000
20
0.339415
30
0.0
11
0.493421
21
0.339415
31
0.0
0
LINE
8
LEFT_HID
6
HIDDEN
10
0.493421
20
0.339415
30
0.0
11
0.434211
21
0.339415
31
0.0
0
LINE
8
LEFT_HID
6
HIDDEN
10
0.434211
20
1.089415
30
0.0
11
0.375000
21
1.089415
31
0.0
0
LINE
8
LEFT_HID
6
HIDDEN
10
0.375000
20
1.089415
30
0.0
11
0.493421
21
1.089415
31
0.0
0
LINE
8
LEFT_HID
6
HIDDEN
10
0.493421
20
1.089415
30
0.0
11
0.434211
21
1.089415
31
0.0
0
LINE
8
LEFT_HID
6
HIDDEN
10
0.375000
20
1.089415
30
0.0
11
0.375000
21
0.339415
31
0.0
0
LINE
8
LEFT_HID
6
HIDDEN
10
0.493421
20
1.089415
30
0.0
11
0.493421
21
0.339415
31
0.0
0
LINE
8
TOP
10
0.189356
20
0.094707
30
0.0
11
0.188885
21
0.104140
31
0.0
0
LINE
8
TOP
10
0.188885
20
0.104140
30
0.0
11
0.187478
21
0.113479
31
0.0
0
LINE
8
TOP
10
0.187478
20
0.113479
30
0.0
11
0.185147
21
0.122632
31
0.0
0
LINE
8
TOP
10
0.185147
20
0.122632
30
0.0
11
0.181917
21
0.131506
31
0.0
0
LINE
8
TOP
10
0.181917
20
0.131506
30
0.0
11
0.177819
21
0.140016
31
0.0
0
LINE
8
TOP
10
0.177819
20
0.140016
30
0.0
11
0.172894
21
0.148075
31
0.0
0
LINE
8
TOP
10
0.172894
20
0.148075
30
0.0
11
0.167192
21
0.155603
31
0.0
0
LINE
8
TOP
10
0.167192
20
0.155603
30
0.0
11
0.160768
21
0.162526
31
0.0
0
LINE
8
TOP
10
0.160768
20
0.162526
30
0.0
11
0.153687
21
0.168776
31
0.0
0
LINE
8
TOP
10
0.153687
20
0.168776
30
0.0
11
0.146018
21
0.174289
31
0.0
0
LINE
8
TOP
10
0.146018
20
0.174289
30
0.0
11
0.137839
21
0.179011
31
0.0
0
LINE
8
TOP
10
0.137839
20
0.179011
30
0.0
11
0.129230
21
0.182895
31
0.0
0
LINE
8
TOP
10
0.129230
20
0.182895
30
0.0
11
0.120278
21
0.185903
31
0.0
0
LINE
8
TOP
10
0.120278
20
0.185903
30
0.0
11
0.111070
21
0.188005
31
0.0
0
LINE
8
TOP
10
0.111070
20
0.188005
30
0.0
11
0.101699
21
0.189179
31
0.0
0
LINE
8
TOP
10
0.101699
20
0.189179
30
0.0
11
0.092257
21
0.189415
31
0.0
0
LINE
8
TOP
10
0.092257
20
0.189415
30
0.0
11
0.082839
21
0.188709
31
0.0
0
LINE
8
TOP
10
0.082839
20
0.188709
30
0.0
11
0.073538
21
0.187069
31
0.0
0
LINE
8
TOP
10
0.073538
20
0.187069
30
0.0
11
0.064447
21
0.184511
31
0.0
0
LINE
8
TOP
10
0.064447
20
0.184511
30
0.0
11
0.055655
21
0.181061
31
0.0
0
LINE
8
TOP
10
0.055655
20
0.181061
30
0.0
11
0.047251
21
0.176752
31
0.0
0
LINE
8
TOP
10
0.047251
20
0.176752
30
0.0
11
0.039317
21
0.171628
31
0.0
0
LINE
8
TOP
10
0.039317
20
0.171628
30
0.0
11
0.031933
21
0.165739
31
0.0
0
LINE
8
TOP
10
0.031933
20
0.165739
30
0.0
11
0.025172
21
0.159145
31
0.0
0
LINE
8
TOP
10
0.025172
20
0.159145
30
0.0
11
0.019101
21
0.151910
31
0.0
0
LINE
8
TOP
10
0.019101
20
0.151910
30
0.0
11
0.013781
21
0.144107
31
0.0
0
LINE
8
TOP
10
0.013781
20
0.144107
30
0.0
11
0.009264
21
0.135812
31
0.0
0
LINE
8
TOP
10
0.009264
20
0.135812
30
0.0
11
0.005596
21
0.127109
31
0.0
0
LINE
8
TOP
10
0.005596
20
0.127109
30
0.0
11
0.002812
21
0.118084
31
0.0
0
LINE
8
TOP
10
0.002812
20
0.118084
30
0.0
11
0.000940
21
0.108827
31
0.0
0
LINE
8
TOP
10
0.000940
20
0.108827
30
0.0
11
0.000000
21
0.099430
31
0.0
0
LINE
8
TOP
10
0.000000
20
0.099430
30
0.0
11
0.000000
21
0.089985
31
0.0
0
LINE
8
TOP
10
0.000000
20
0.089985
30
0.0
11
0.000940
21
0.080588
31
0.0
0
LINE
8
TOP
10
0.000940
20
0.080588
30
0.0
11
0.002812
21
0.071330
31
0.0
0
LINE
8
TOP
10
0.002812
20
0.071330
30
0.0
11
0.005596
21
0.062305
31
0.0
0
LINE
8
TOP
10
0.005596
20
0.062305
30
0.0
11
0.009264
21
0.053603
31
0.0
0
LINE
8
TOP
10
0.009264
20
0.053603
30
0.0
11
0.013781
21
0.045308
31
0.0
0
LINE
8
TOP
10
0.013781
20
0.045308
30
0.0
11
0.019101
21
0.037505
31
0.0
0
LINE
8
TOP
10
0.019101
20
0.037505
30
0.0
11
0.025172
21
0.030270
31
0.0
0
LINE
8
TOP
10
0.025172
20
0.030270
30
0.0
11
0.031933
21
0.023675
31
0.0
0
LINE
8
TOP
10
0.031933
20
0.023675
30
0.0
11
0.039317
21
0.017787
31
0.0
0
LINE
8
TOP
10
0.039317
20
0.017787
30
0.0
11
0.047251
21
0.012663
31
0.0
0
LINE
8
TOP
10
0.047251
20
0.012663
30
0.0
11
0.055655
21
0.008354
31
0.0
0
LINE
8
TOP
10
0.055655
20
0.008354
30
0.0
11
0.064447
21
0.004904
31
0.0
0
LINE
8
TOP
10
0.064447
20
0.004904
30
0.0
11
0.073538
21
0.002346
31
0.0
0
LINE
8
TOP
10
0.073538
20
0.002346
30
0.0
11
0.082839
21
0.000706
31
0.0
0
LINE
8
TOP
10
0.082839
20
0.000706
30
0.0
11
0.092257
21
0.000000
31
0.0
0
LINE
8
TOP
10
0.092257
20
0.000000
30
0.0
11
0.101699
21
0.000235
31
0.0
0
LINE
8
TOP
10
0.101699
20
0.000235
30
0.0
11
0.111070
21
0.001410
31
0.0
0
LINE
8
TOP
10
0.111070
20
0.001410
30
0.0
11
0.120278
21
0.003511
31
0.0
0
LINE
8
TOP
10
0.120278
20
0.003511
30
0.0
11
0.129230
21
0.006519
31
0.0
0
LINE
8
TOP
10
0.129230
20
0.006519
30
0.0
11
0.137839
21
0.010404
31
0.0
0
LINE
8
TOP
10
0.137839
20
0.010404
30
0.0
11
0.146018
21
0.015126
31
0.0
0
LINE
8
TOP
10
0.146018
20
0.015126
30
0.0
11
0.153687
21
0.020639
31
0.0
0
LINE
8
TOP
10
0.153687
20
0.020639
30
0.0
11
0.160768
21
0.026888
31
0.0
0
LINE
8
TOP
10
0.160768
20
0.026888
30
0.0
11
0.167192
21
0.033812
31
0.0
0
LINE
8
TOP
10
0.167192
20
0.033812
30
0.0
11
0.172894
21
0.041340
31
0.0
0
LINE
8
TOP
10
0.172894
20
0.041340
30
0.0
11
0.177819
21
0.049399
31
0.0
0
LINE
8
TOP
10
0.177819
20
0.049399
30
0.0
11
0.181917
21
0.057908
31
0.0
0
LINE
8
TOP
10
0.181917
20
0.057908
30
0.0
11
0.185147
21
0.066783
31
0.0
0
LINE
8
TOP
10
0.185147
20
0.066783
30
0.0
11
0.187478
21
0.075936
31
0.0
0
LINE
8
TOP
10
0.187478
20
0.075936
30
0.0
11
0.188885
21
0.085275
31
0.0
0
LINE
8
TOP
10
0.188885
20
0.085275
30
0.0
11
0.189356
21
0.094707
31
0.0
0
LINE
8
TOP
10
0.153830
20
0.094707
30
0.0
11
0.153535
21
0.100603
31
0.0
0
LINE
8
TOP
10
0.153535
20
0.100603
30
0.0
11
0.152656
21
0.106440
31
0.0
0
LINE
8
TOP
10
0.152656
20
0.106440
30
0.0
11
0.151199
21
0.112160
31
0.0
0
LINE
8
TOP
10
0.151199
20
0.112160
30
0.0
11
0.149180
21
0.117707
31
0.0
0
LINE
8
TOP
10
0.149180
20
0.117707
30
0.0
11
0.146619
21
0.123025
31
0.0
0
LINE
8
TOP
10
0.146619
20
0.123025
30
0.0
11
0.143541
21
0.128062
31
0.0
0
LINE
8
TOP
10
0.143541
20
0.128062
30
0.0
11
0.139977
21
0.132767
31
0.0
0
LINE
8
TOP
10
0.139977
20
0.132767
30
0.0
11
0.135962
21
0.137094
31
0.0
0
LINE
8
TOP
10
0.135962
20
0.137094
30
0.0
11
0.131536
21
0.141000
31
0.0
0
LINE
8
TOP
10
0.131536
20
0.141000
30
0.0
11
0.126744
21
0.144446
31
0.0
0
LINE
8
TOP
10
0.126744
20
0.144446
30
0.0
11
0.121632
21
0.147397
31
0.0
0
LINE
8
TOP
10
0.121632
20
0.147397
30
0.0
11
0.116251
21
0.149825
31
0.0
0
LINE
8
TOP
10
0.116251
20
0.149825
30
0.0
11
0.110656
21
0.151705
31
0.0
0
LINE
8
TOP
10
0.110656
20
0.151705
30
0.0
11
0.104901
21
0.153018
31
0.0
0
LINE
8
TOP
10
0.104901
20
0.153018
30
0.0
11
0.099044
21
0.153752
31
0.0
0
LINE
8
TOP
10
0.099044
20
0.153752
30
0.0
11
0.093143
21
0.153900
31
0.0
0
LINE
8
TOP
10
0.093143
20
0.153900
30
0.0
11
0.087257
21
0.153458
31
0.0
0
LINE
8
TOP
10
0.087257
20
0.153458
30
0.0
11
0.081443
21
0.152433
31
0.0
0
LINE
8
TOP
10
0.081443
20
0.152433
30
0.0
11
0.075761
21
0.150835
31
0.0
0
LINE
8
TOP
10
0.075761
20
0.150835
30
0.0
11
0.070267
21
0.148678
31
0.0
0
LINE
8
TOP
10
0.070267
20
0.148678
30
0.0
11
0.065014
21
0.145985
31
0.0
0
LINE
8
TOP
10
0.065014
20
0.145985
30
0.0
11
0.060055
21
0.142783
31
0.0
0
LINE
8
TOP
10
0.060055
20
0.142783
30
0.0
11
0.055440
21
0.139102
31
0.0
0
LINE
8
TOP
10
0.055440
20
0.139102
30
0.0
11
0.051215
21
0.134981
31
0.0
0
LINE
8
TOP
10
0.051215
20
0.134981
30
0.0
11
0.047420
21
0.130459
31
0.0
0
LINE
8
TOP
10
0.047420
20
0.130459
30
0.0
11
0.044095
21
0.125582
31
0.0
0
LINE
8
TOP
10
0.044095
20
0.125582
30
0.0
11
0.041272
21
0.120398
31
0.0
0
LINE
8
TOP
10
0.041272
20
0.120398
30
0.0
11
0.038979
21
0.114959
31
0.0
0
LINE
8
TOP
10
0.038979
20
0.114959
30
0.0
11
0.037240
21
0.109318
31
0.0
0
LINE
8
TOP
10
0.037240
20
0.109318
30
0.0
11
0.036070
21
0.103532
31
0.0
0
LINE
8
TOP
10
0.036070
20
0.103532
30
0.0
11
0.035482
21
0.097659
31
0.0
0
LINE
8
TOP
10
0.035482
20
0.097659
30
0.0
11
0.035482
21
0.091756
31
0.0
0
LINE
8
TOP
10
0.035482
20
0.091756
30
0.0
11
0.036070
21
0.085883
31
0.0
0
LINE
8
TOP
10
0.036070
20
0.085883
30
0.0
11
0.037240
21
0.080097
31
0.0
0
LINE
8
TOP
10
0.037240
20
0.080097
30
0.0
11
0.038979
21
0.074456
31
0.0
0
LINE
8
TOP
10
0.038979
20
0.074456
30
0.0
11
0.041272
21
0.069017
31
0.0
0
LINE
8
TOP
10
0.041272
20
0.069017
30
0.0
11
0.044095
21
0.063833
31
0.0
0
LINE
8
TOP
10
0.044095
20
0.063833
30
0.0
11
0.047420
21
0.058956
31
0.0
0
LINE
8
TOP
10
0.047420
20
0.058956
30
0.0
11
0.051215
21
0.054434
31
0.0
0
LINE
8
TOP
10
0.051215
20
0.054434
30
0.0
11
0.055440
21
0.050312
31
0.0
0
LINE
8
TOP
10
0.055440
20
0.050312
30
0.0
11
0.060055
21
0.046632
31
0.0
0
LINE
8
TOP
10
0.060055
20
0.046632
30
0.0
11
0.065014
21
0.043430
31
0.0
0
LINE
8
TOP
10
0.065014
20
0.043430
30
0.0
11
0.070267
21
0.040737
31
0.0
0
LINE
8
TOP
10
0.070267
20
0.040737
30
0.0
11
0.075761
21
0.038580
31
0.0
0
LINE
8
TOP
10
0.075761
20
0.038580
30
0.0
11
0.081443
21
0.036981
31
0.0
0
LINE
8
TOP
10
0.081443
20
0.036981
30
0.0
11
0.087257
21
0.035956
31
0.0
0
LINE
8
TOP
10
0.087257
20
0.035956
30
0.0
11
0.093143
21
0.035515
31
0.0
0
LINE
8
TOP
10
0.093143
20
0.035515
30
0.0
11
0.099044
21
0.035662
31
0.0
0
LINE
8
TOP
10
0.099044
20
0.035662
30
0.0
11
0.104901
21
0.036396
31
0.0
0
LINE
8
TOP
10
0.104901
20
0.036396
30
0.0
11
0.110656
21
0.037710
31
0.0
0
LINE
8
TOP
10
0.110656
20
0.037710
30
0.0
11
0.116251
21
0.039590
31
0.0
0
LINE
8
TOP
10
0.116251
20
0.039590
30
0.0
11
0.121632
21
0.042018
31
0.0
0
LINE
8
TOP
10
0.121632
20
0.042018
30
0.0
11
0.126744
21
0.044969
31
0.0
0
LINE
8
TOP
10
0.126744
20
0.044969
30
0.0
11
0.131536
21
0.048415
31
0.0
0
LINE
8
TOP
10
0.131536
20
0.048415
30
0.0
11
0.135962
21
0.052321
31
0.0
0
LINE
8
TOP
10
0.135962
20
0.052321
30
0.0
11
0.139977
21
0.056648
31
0.0
0
LINE
8
TOP
10
0.139977
20
0.056648
30
0.0
11
0.143541
21
0.061353
31
0.0
0
LINE
8
TOP
10
0.143541
20
0.061353
30
0.0
11
0.146619
21
0.066390
31
0.0
0
LINE
8
TOP
10
0.146619
20
0.066390
30
0.0
11
0.149180
21
0.071708
31
0.0
0
LINE
8
TOP
10
0.149180
20
0.071708
30
0.0
11
0.151199
21
0.077255
31
0.0
0
LINE
8
TOP
10
0.151199
20
0.077255
30
0.0
11
0.152656
21
0.082975
31
0.0
0
LINE
8
TOP
10
0.152656
20
0.082975
30
0.0
11
0.153535
21
0.088812
31
0.0
0
LINE
8
TOP
10
0.153535
20
0.088812
30
0.0
11
0.153830
21
0.094707
31
0.0
0
ENDSEC
0
EOF
