0
SECTION
2
HEADER
9
$ACADVER
1
AC1009
0
ENDSEC
0
SECTION
2
TABLES
0
TABLE
2
LTYPE
70
3
0
LTYPE
2
CONTINUOUS
70
0
3
Solid line
72
65
73
0
40
0.0
0
LTYPE
2
HIDDEN
70
0
3
__ __ __ __ __
72
65
73
2
40
0.056928
49
0.037971
49
-0.018957
0
LTYPE
2
CENTER
70
0
3
___ _ ___ _ ___
72
65
73
4
40
0.132814
49
0.075886
49
-0.018957
49
0.018957
49
-0.018957
0
ENDTAB
0
TABLE
2
LAYER
70
6
0
LAYER
2
0
70
0
62
7
6
CONTINUOUS
0
LAYER
2
FRONT
70
0
62
7
6
CONTINUOUS
0
LAYER
2
FRONT_HID
70
0
62
7
6
HIDDEN
0
LAYER
2
LEFT
70
0
62
7
6
CONTINUOUS
0
LAYER
2
LEFT_HID
70
0
62
7
6
HIDDEN
0
LAYER
2
TOP
70
0
62
7
6
CONTINUOUS
0
ENDTAB
0
ENDSEC
0
SECTION
2
ENTITIES
0
LINE
8
FRONT
10
0.836124
20
1.366283
30
0.0
11
0.794819
21
1.366283
31
0.0
0
LINE
8
FRONT
10
0.794819
20
1.366283
30
0.0
11
0.095806
21
1.366283
31
0.0
0
LINE
8
FRONT
10
0.095806
20
1.366283
30
0.0
11
0.054501
21
1.366283
31
0.0
0
LINE
8
FRONT
10
0.836124
20
1.413158
30
0.0
11
0.794819
21
1.413158
31
0.0
0
LINE
8
FRONT
10
0.794819
20
1.413158
30
0.0
11
0.095806
21
1.413158
31
0.0
0
LINE
8
FRONT
10
0.095806
20
1.413158
30
0.0
11
0.054501
21
1.413158
31
0.0
0
LINE
8
FRONT
10
0.095806
20
1.366283
30
0.0
11
0.095806
21
1.413158
31
0.0
0
LINE
8
FRONT
10
0.794819
20
1.366283
30
0.0
11
0.794819
21
1.413158
31
0.0
0
LINE
8
FRONT
10
0.890214
20
1.366283
30
0.0
11
0.836124
21
1.366283
31
0.0
0
LINE
8
FRONT
10
0.890214
20
1.413158
30
0.0
11
0.836124
21
1.413158
31
0.0
0
LINE
8
FRONT
10
0.890214
20
1.366283
30
0.0
11
0.890214
21
1.413158
31
0.0
0
LINE
8
FRONT
10
0.054276
20
1.366283
30
0.0
11
0.054276
21
1.413158
31
0.0
0
LINE
8
FRONT
10
0.054276
20
1.413158
30
0.0
11
0.000000
21
1.413158
31
0.0
0
LINE
8
FRONT
10
0.000000
20
1.366283
30
0.0
11
0.000000
21
1.413158
31
0.0
0
LINE
8
FRONT
10
0.054276
20
1.366283
30
0.0
11
0.000000
21
1.366283
31
0.0
0
LINE
8
FRONT
10
0.054501
20
1.413158
30
0.0
11
0.054501
21
1.366283
31
0.0
0
LINE
8
FRONT
10
0.836124
20
1.413158
30
0.0
11
0.836124
21
1.366283
31
0.0
0
LINE
8
FRONT_HID
6
HIDDEN
10
0.054688
20
1.366283
30
0.0
11
0.095806
21
1.366283
31
0.0
0
LINE
8
FRONT_HID
6
HIDDEN
10
0.054688
20
1.413158
30
0.0
11
0.095806
21
1.413158
31
0.0
0
LINE
8
FRONT_HID
6
HIDDEN
10
0.054688
20
1.366283
30
0.0
11
0.054688
21
1.413158
31
0.0
0
LINE
8
FRONT_HID
6
HIDDEN
10
0.054688
20
1.366283
30
0.0
11
0.054688
21
1.413158
31
0.0
0
LINE
8
FRONT_HID
6
HIDDEN
10
0.095806
20
1.413158
30
0.0
11
0.284951
21
1.413158
31
0.0
0
LINE
8
FRONT_HID
6
HIDDEN
10
0.095806
20
1.366283
30
0.0
11
0.284951
21
1.366283
31
0.0
0
LINE
8
FRONT_HID
6
HIDDEN
10
0.284951
20
1.366283
30
0.0
11
0.289062
21
1.366283
31
0.0
0
LINE
8
FRONT_HID
6
HIDDEN
10
0.610609
20
1.366283
30
0.0
11
0.289062
21
1.366283
31
0.0
0
LINE
8
FRONT_HID
6
HIDDEN
10
0.610609
20
1.366283
30
0.0
11
0.794819
21
1.366283
31
0.0
0
LINE
8
FRONT_HID
6
HIDDEN
10
0.794819
20
1.366283
30
0.0
11
0.835937
21
1.366283
31
0.0
0
LINE
8
FRONT_HID
6
HIDDEN
10
0.835937
20
1.366283
30
0.0
11
0.836124
21
1.366283
31
0.0
0
LINE
8
FRONT_HID
6
HIDDEN
10
0.054501
20
1.366283
30
0.0
11
0.054688
21
1.366283
31
0.0
0
LINE
8
FRONT_HID
6
HIDDEN
10
0.153372
20
1.366283
30
0.0
11
0.087582
21
1.366283
31
0.0
0
LINE
8
FRONT_HID
6
HIDDEN
10
0.087582
20
1.366283
30
0.0
11
0.153372
21
1.366283
31
0.0
0
LINE
8
FRONT_HID
6
HIDDEN
10
0.811266
20
1.366283
30
0.0
11
0.745477
21
1.366283
31
0.0
0
LINE
8
FRONT_HID
6
HIDDEN
10
0.745477
20
1.366283
30
0.0
11
0.811266
21
1.366283
31
0.0
0
LINE
8
FRONT_HID
6
HIDDEN
10
0.145148
20
1.366283
30
0.0
11
0.079359
21
1.366283
31
0.0
0
LINE
8
FRONT_HID
6
HIDDEN
10
0.079359
20
1.366283
30
0.0
11
0.145148
21
1.366283
31
0.0
0
LINE
8
FRONT_HID
6
HIDDEN
10
0.811266
20
1.366283
30
0.0
11
0.745477
21
1.366283
31
0.0
0
LINE
8
FRONT_HID
6
HIDDEN
10
0.745477
20
1.366283
30
0.0
11
0.811266
21
1.366283
31
0.0
0
LINE
8
FRONT_HID
6
HIDDEN
10
0.284951
20
1.413158
30
0.0
11
0.289062
21
1.413158
31
0.0
0
LINE
8
FRONT_HID
6
HIDDEN
10
0.610609
20
1.413158
30
0.0
11
0.289062
21
1.413158
31
0.0
0
LINE
8
FRONT_HID
6
HIDDEN
10
0.610609
20
1.413158
30
0.0
11
0.794819
21
1.413158
31
0.0
0
LINE
8
FRONT_HID
6
HIDDEN
10
0.794819
20
1.413158
30
0.0
11
0.835937
21
1.413158
31
0.0
0
LINE
8
FRONT_HID
6
HIDDEN
10
0.835937
20
1.413158
30
0.0
11
0.836124
21
1.413158
31
0.0
0
LINE
8
FRONT_HID
6
HIDDEN
10
0.054501
20
1.413158
30
0.0
11
0.054688
21
1.413158
31
0.0
0
LINE
8
FRONT_HID
6
HIDDEN
10
0.153372
20
1.413158
30
0.0
11
0.087582
21
1.413158
31
0.0
0
LINE
8
FRONT_HID
6
HIDDEN
10
0.087582
20
1.413158
30
0.0
11
0.153372
21
1.413158
31
0.0
0
LINE
8
FRONT_HID
6
HIDDEN
10
0.811266
20
1.413158
30
0.0
11
0.745477
21
1.413158
31
0.0
0
LINE
8
FRONT_HID
6
HIDDEN
10
0.745477
20
1.413158
30
0.0
11
0.811266
21
1.413158
31
0.0
0
LINE
8
FRONT_HID
6
HIDDEN
10
0.145148
20
1.413158
30
0.0
11
0.079359
21
1.413158
31
0.0
0
LINE
8
FRONT_HID
6
HIDDEN
10
0.079359
20
1.413158
30
0.0
11
0.145148
21
1.413158
31
0.0
0
LINE
8
FRONT_HID
6
HIDDEN
10
0.811266
20
1.413158
30
0.0
11
0.745477
21
1.413158
31
0.0
0
LINE
8
FRONT_HID
6
HIDDEN
10
0.745477
20
1.413158
30
0.0
11
0.811266
21
1.413158
31
0.0
0
LINE
8
FRONT_HID
6
HIDDEN
10
0.054688
20
1.366283
30
0.0
11
0.054688
21
1.413158
31
0.0
0
LINE
8
FRONT_HID
6
HIDDEN
10
0.289062
20
1.366283
30
0.0
11
0.289062
21
1.413158
31
0.0
0
LINE
8
FRONT_HID
6
HIDDEN
10
0.054688
20
1.366283
30
0.0
11
0.054688
21
1.413158
31
0.0
0
LINE
8
FRONT_HID
6
HIDDEN
10
0.835938
20
1.366283
30
0.0
11
0.835938
21
1.413158
31
0.0
0
LINE
8
FRONT_HID
6
HIDDEN
10
0.835938
20
1.366283
30
0.0
11
0.835938
21
1.413158
31
0.0
0
LINE
8
FRONT_HID
6
HIDDEN
10
0.835938
20
1.366283
30
0.0
11
0.890214
21
1.366283
31
0.0
0
LINE
8
FRONT_HID
6
HIDDEN
10
0.836124
20
1.366283
30
0.0
11
0.835938
21
1.366283
31
0.0
0
LINE
8
FRONT_HID
6
HIDDEN
10
0.835938
20
1.366283
30
0.0
11
0.835938
21
1.413158
31
0.0
0
LINE
8
FRONT_HID
6
HIDDEN
10
0.835938
20
1.366283
30
0.0
11
0.835938
21
1.413158
31
0.0
0
LINE
8
FRONT_HID
6
HIDDEN
10
0.835938
20
1.366283
30
0.0
11
0.835938
21
1.413158
31
0.0
0
LINE
8
FRONT_HID
6
HIDDEN
10
0.610609
20
1.413158
30
0.0
11
0.610609
21
1.366283
31
0.0
0
LINE
8
FRONT_HID
6
HIDDEN
10
0.289062
20
1.366283
30
0.0
11
0.605674
21
1.366283
31
0.0
0
LINE
8
FRONT_HID
6
HIDDEN
10
0.605674
20
1.366283
30
0.0
11
0.610609
21
1.366283
31
0.0
0
LINE
8
FRONT_HID
6
HIDDEN
10
0.153372
20
1.366283
30
0.0
11
0.153372
21
1.413158
31
0.0
0
LINE
8
FRONT_HID
6
HIDDEN
10
0.811266
20
1.366283
30
0.0
11
0.811266
21
1.413158
31
0.0
0
LINE
8
FRONT_HID
6
HIDDEN
10
0.145148
20
1.366283
30
0.0
11
0.145148
21
1.413158
31
0.0
0
LINE
8
FRONT_HID
6
HIDDEN
10
0.811266
20
1.366283
30
0.0
11
0.811266
21
1.413158
31
0.0
0
LINE
8
FRONT_HID
6
HIDDEN
10
0.835938
20
1.413158
30
0.0
11
0.890214
21
1.413158
31
0.0
0
LINE
8
FRONT_HID
6
HIDDEN
10
0.836124
20
1.413158
30
0.0
11
0.835938
21
1.413158
31
0.0
0
LINE
8
FRONT_HID
6
HIDDEN
10
0.289062
20
1.413158
30
0.0
11
0.605674
21
1.413158
31
0.0
0
LINE
8
FRONT_HID
6
HIDDEN
10
0.605674
20
1.413158
30
0.0
11
0.610609
21
1.413158
31
0.0
0
LINE
8
FRONT_HID
6
HIDDEN
10
0.289062
20
1.366283
30
0.0
11
0.289062
21
1.413158
31
0.0
0
LINE
8
FRONT_HID
6
HIDDEN
10
0.610609
20
1.366283
30
0.0
11
0.610609
21
1.413158
31
0.0
0
LINE
8
FRONT_HID
6
HIDDEN
10
0.289062
20
1.366283
30
0.0
11
0.610609
21
1.366283
31
0.0
0
LINE
8
FRONT_HID
6
HIDDEN
10
0.289062
20
1.413158
30
0.0
11
0.610609
21
1.413158
31
0.0
0
LINE
8
FRONT_HID
6
HIDDEN
10
0.087582
20
1.413158
30
0.0
11
0.087582
21
1.366283
31
0.0
0
LINE
8
FRONT_HID
6
HIDDEN
10
0.745477
20
1.413158
30
0.0
11
0.745477
21
1.366283
31
0.0
0
LINE
8
FRONT_HID
6
HIDDEN
10
0.079359
20
1.413158
30
0.0
11
0.079359
21
1.366283
31
0.0
0
LINE
8
FRONT_HID
6
HIDDEN
10
0.745477
20
1.413158
30
0.0
11
0.745477
21
1.366283
31
0.0
0
LINE
8
LEFT
10
1.858059
20
1.366283
30
0.0
11
1.899178
21
1.366283
31
0.0
0
LINE
8
LEFT
10
1.899178
20
1.366283
30
0.0
11
1.899178
21
1.413158
31
0.0
0
LINE
8
LEFT
10
1.858059
20
1.413158
30
0.0
11
1.899178
21
1.413158
31
0.0
0
LINE
8
LEFT
10
1.767599
20
1.413158
30
0.0
11
1.858059
21
1.413158
31
0.0
0
LINE
8
LEFT
10
1.767599
20
1.366283
30
0.0
11
1.858059
21
1.366283
31
0.0
0
LINE
8
LEFT
10
1.117928
20
1.366283
30
0.0
11
1.167270
21
1.366283
31
0.0
0
LINE
8
LEFT
10
1.167270
20
1.366283
30
0.0
11
1.248684
21
1.366283
31
0.0
0
LINE
8
LEFT
10
1.764309
20
1.366283
30
0.0
11
1.767599
21
1.366283
31
0.0
0
LINE
8
LEFT
10
1.117928
20
1.413158
30
0.0
11
1.167270
21
1.413158
31
0.0
0
LINE
8
LEFT
10
1.167270
20
1.413158
30
0.0
11
1.248684
21
1.413158
31
0.0
0
LINE
8
LEFT
10
1.764309
20
1.413158
30
0.0
11
1.767599
21
1.413158
31
0.0
0
LINE
8
LEFT
10
1.899178
20
1.366283
30
0.0
11
1.899178
21
1.413158
31
0.0
0
LINE
8
LEFT
10
1.167270
20
1.366283
30
0.0
11
1.167270
21
1.413158
31
0.0
0
LINE
8
LEFT
10
1.117928
20
1.366283
30
0.0
11
1.117928
21
1.413158
31
0.0
0
LINE
8
LEFT
10
1.899178
20
1.366283
30
0.0
11
2.256497
21
1.366283
31
0.0
0
LINE
8
LEFT
10
1.899178
20
1.413158
30
0.0
11
2.256497
21
1.413158
31
0.0
0
LINE
8
LEFT
10
2.256497
20
1.366283
30
0.0
11
2.256497
21
1.413158
31
0.0
0
LINE
8
LEFT
10
1.764309
20
1.366283
30
0.0
11
1.764309
21
1.413158
31
0.0
0
LINE
8
LEFT
10
1.248684
20
1.366283
30
0.0
11
1.248684
21
1.413158
31
0.0
0
LINE
8
LEFT
10
1.248684
20
1.413158
30
0.0
11
1.764309
21
1.413158
31
0.0
0
LINE
8
LEFT
10
1.248684
20
1.366283
30
0.0
11
1.764309
21
1.366283
31
0.0
0
LINE
8
LEFT
10
1.858059
20
1.366283
30
0.0
11
1.858059
21
1.413158
31
0.0
0
LINE
8
LEFT_HID
6
HIDDEN
10
1.897122
20
1.366283
30
0.0
11
1.899178
21
1.366283
31
0.0
0
LINE
8
LEFT_HID
6
HIDDEN
10
1.899178
20
1.366283
30
0.0
11
1.897122
21
1.366283
31
0.0
0
LINE
8
LEFT_HID
6
HIDDEN
10
1.899178
20
1.366283
30
0.0
11
1.858059
21
1.366283
31
0.0
0
LINE
8
LEFT_HID
6
HIDDEN
10
1.249507
20
1.366283
30
0.0
11
1.764309
21
1.366283
31
0.0
0
LINE
8
LEFT_HID
6
HIDDEN
10
1.248684
20
1.366283
30
0.0
11
1.249507
21
1.366283
31
0.0
0
LINE
8
LEFT_HID
6
HIDDEN
10
1.248684
20
1.366283
30
0.0
11
1.249507
21
1.366283
31
0.0
0
LINE
8
LEFT_HID
6
HIDDEN
10
1.249507
20
1.366283
30
0.0
11
1.764309
21
1.366283
31
0.0
0
LINE
8
LEFT_HID
6
HIDDEN
10
1.841612
20
1.366283
30
0.0
11
1.808717
21
1.366283
31
0.0
0
LINE
8
LEFT_HID
6
HIDDEN
10
1.808717
20
1.366283
30
0.0
11
1.874507
21
1.366283
31
0.0
0
LINE
8
LEFT_HID
6
HIDDEN
10
1.874507
20
1.366283
30
0.0
11
1.841612
21
1.366283
31
0.0
0
LINE
8
LEFT_HID
6
HIDDEN
10
1.833388
20
1.366283
30
0.0
11
1.800493
21
1.366283
31
0.0
0
LINE
8
LEFT_HID
6
HIDDEN
10
1.800493
20
1.366283
30
0.0
11
1.866283
21
1.366283
31
0.0
0
LINE
8
LEFT_HID
6
HIDDEN
10
1.866283
20
1.366283
30
0.0
11
1.833388
21
1.366283
31
0.0
0
LINE
8
LEFT_HID
6
HIDDEN
10
1.183717
20
1.366283
30
0.0
11
1.150822
21
1.366283
31
0.0
0
LINE
8
LEFT_HID
6
HIDDEN
10
1.150822
20
1.366283
30
0.0
11
1.216612
21
1.366283
31
0.0
0
LINE
8
LEFT_HID
6
HIDDEN
10
1.216612
20
1.366283
30
0.0
11
1.183717
21
1.366283
31
0.0
0
LINE
8
LEFT_HID
6
HIDDEN
10
1.175493
20
1.366283
30
0.0
11
1.142599
21
1.366283
31
0.0
0
LINE
8
LEFT_HID
6
HIDDEN
10
1.142599
20
1.366283
30
0.0
11
1.208388
21
1.366283
31
0.0
0
LINE
8
LEFT_HID
6
HIDDEN
10
1.208388
20
1.366283
30
0.0
11
1.175493
21
1.366283
31
0.0
0
LINE
8
LEFT_HID
6
HIDDEN
10
1.897122
20
1.413158
30
0.0
11
1.899178
21
1.413158
31
0.0
0
LINE
8
LEFT_HID
6
HIDDEN
10
1.899178
20
1.413158
30
0.0
11
1.897122
21
1.413158
31
0.0
0
LINE
8
LEFT_HID
6
HIDDEN
10
1.899178
20
1.413158
30
0.0
11
1.858059
21
1.413158
31
0.0
0
LINE
8
LEFT_HID
6
HIDDEN
10
1.249507
20
1.413158
30
0.0
11
1.764309
21
1.413158
31
0.0
0
LINE
8
LEFT_HID
6
HIDDEN
10
1.248684
20
1.413158
30
0.0
11
1.249507
21
1.413158
31
0.0
0
LINE
8
LEFT_HID
6
HIDDEN
10
1.248684
20
1.413158
30
0.0
11
1.249507
21
1.413158
31
0.0
0
LINE
8
LEFT_HID
6
HIDDEN
10
1.249507
20
1.413158
30
0.0
11
1.764309
21
1.413158
31
0.0
0
LINE
8
LEFT_HID
6
HIDDEN
10
1.841612
20
1.413158
30
0.0
11
1.808717
21
1.413158
31
0.0
0
LINE
8
LEFT_HID
6
HIDDEN
10
1.808717
20
1.413158
30
0.0
11
1.874507
21
1.413158
31
0.0
0
LINE
8
LEFT_HID
6
HIDDEN
10
1.874507
20
1.413158
30
0.0
11
1.841612
21
1.413158
31
0.0
0
LINE
8
LEFT_HID
6
HIDDEN
10
1.833388
20
1.413158
30
0.0
11
1.800493
21
1.413158
31
0.0
0
LINE
8
LEFT_HID
6
HIDDEN
10
1.800493
20
1.413158
30
0.0
11
1.866283
21
1.413158
31
0.0
0
LINE
8
LEFT_HID
6
HIDDEN
10
1.866283
20
1.413158
30
0.0
11
1.833388
21
1.413158
31
0.0
0
LINE
8
LEFT_HID
6
HIDDEN
10
1.183717
20
1.413158
30
0.0
11
1.150822
21
1.413158
31
0.0
0
LINE
8
LEFT_HID
6
HIDDEN
10
1.150822
20
1.413158
30
0.0
11
1.216612
21
1.413158
31
0.0
0
LINE
8
LEFT_HID
6
HIDDEN
10
1.216612
20
1.413158
30
0.0
11
1.183717
21
1.413158
31
0.0
0
LINE
8
LEFT_HID
6
HIDDEN
10
1.175493
20
1.413158
30
0.0
11
1.142599
21
1.413158
31
0.0
0
LINE
8
LEFT_HID
6
HIDDEN
10
1.142599
20
1.413158
30
0.0
11
1.208388
21
1.413158
31
0.0
0
LINE
8
LEFT_HID
6
HIDDEN
10
1.208388
20
1.413158
30
0.0
11
1.175493
21
1.413158
31
0.0
0
LINE
8
LEFT_HID
6
HIDDEN
10
1.808717
20
1.413158
30
0.0
11
1.808717
21
1.366283
31
0.0
0
LINE
8
LEFT_HID
6
HIDDEN
10
1.874507
20
1.413158
30
0.0
11
1.874507
21
1.366283
31
0.0
0
LINE
8
LEFT_HID
6
HIDDEN
10
1.800493
20
1.413158
30
0.0
11
1.800493
21
1.366283
31
0.0
0
LINE
8
LEFT_HID
6
HIDDEN
10
1.866283
20
1.413158
30
0.0
11
1.866283
21
1.366283
31
0.0
0
LINE
8
LEFT_HID
6
HIDDEN
10
1.150822
20
1.413158
30
0.0
11
1.150822
21
1.366283
31
0.0
0
LINE
8
LEFT_HID
6
HIDDEN
10
1.216612
20
1.413158
30
0.0
11
1.216612
21
1.366283
31
0.0
0
LINE
8
LEFT_HID
6
HIDDEN
10
1.142599
20
1.413158
30
0.0
11
1.142599
21
1.366283
31
0.0
0
LINE
8
LEFT_HID
6
HIDDEN
10
1.208388
20
1.413158
30
0.0
11
1.208388
21
1.366283
31
0.0
0
LINE
8
TOP
10
0.054688
20
0.398437
30
0.0
11
0.054700
21
0.397412
31
0.0
0
LINE
8
TOP
10
0.054700
20
0.397412
30
0.0
11
0.054739
21
0.396388
31
0.0
0
LINE
8
TOP
10
0.054739
20
0.396388
30
0.0
11
0.054802
21
0.395365
31
0.0
0
LINE
8
TOP
10
0.054802
20
0.395365
30
0.0
11
0.054892
21
0.394343
31
0.0
0
LINE
8
TOP
10
0.054892
20
0.394343
30
0.0
11
0.055007
21
0.393325
31
0.0
0
LINE
8
TOP
10
0.055007
20
0.393325
30
0.0
11
0.055147
21
0.392309
31
0.0
0
LINE
8
TOP
10
0.055147
20
0.392309
30
0.0
11
0.055312
21
0.391297
31
0.0
0
LINE
8
TOP
10
0.055312
20
0.391297
30
0.0
11
0.055503
21
0.390290
31
0.0
0
LINE
8
TOP
10
0.055503
20
0.390290
30
0.0
11
0.055718
21
0.389288
31
0.0
0
LINE
8
TOP
10
0.055718
20
0.389288
30
0.0
11
0.055959
21
0.388291
31
0.0
0
LINE
8
TOP
10
0.055959
20
0.388291
30
0.0
11
0.056224
21
0.387301
31
0.0
0
LINE
8
TOP
10
0.056224
20
0.387301
30
0.0
11
0.056514
21
0.386318
31
0.0
0
LINE
8
TOP
10
0.056514
20
0.386318
30
0.0
11
0.056829
21
0.385342
31
0.0
0
LINE
8
TOP
10
0.056829
20
0.385342
30
0.0
11
0.057167
21
0.384374
31
0.0
0
LINE
8
TOP
10
0.057167
20
0.384374
30
0.0
11
0.057530
21
0.383415
31
0.0
0
LINE
8
TOP
10
0.057530
20
0.383415
30
0.0
11
0.057916
21
0.382466
31
0.0
0
LINE
8
TOP
10
0.057916
20
0.382466
30
0.0
11
0.058326
21
0.381526
31
0.0
0
LINE
8
TOP
10
0.058326
20
0.381526
30
0.0
11
0.058760
21
0.380597
31
0.0
0
LINE
8
TOP
10
0.058760
20
0.380597
30
0.0
11
0.059216
21
0.379679
31
0.0
0
LINE
8
TOP
10
0.059216
20
0.379679
30
0.0
11
0.059695
21
0.378772
31
0.0
0
LINE
8
TOP
10
0.059695
20
0.378772
30
0.0
11
0.060196
21
0.377878
31
0.0
0
LINE
8
TOP
10
0.060196
20
0.377878
30
0.0
11
0.060720
21
0.376997
31
0.0
0
LINE
8
TOP
10
0.060720
20
0.376997
30
0.0
11
0.061265
21
0.376129
31
0.0
0
LINE
8
TOP
10
0.061265
20
0.376129
30
0.0
11
0.061832
21
0.375275
31
0.0
0
LINE
8
TOP
10
0.061832
20
0.375275
30
0.0
11
0.062420
21
0.374435
31
0.0
0
LINE
8
TOP
10
0.062420
20
0.374435
30
0.0
11
0.063029
21
0.373610
31
0.0
0
LINE
8
TOP
10
0.063029
20
0.373610
30
0.0
11
0.063658
21
0.372801
31
0.0
0
LINE
8
TOP
10
0.063658
20
0.372801
30
0.0
11
0.064307
21
0.372007
31
0.0
0
LINE
8
TOP
10
0.064307
20
0.372007
30
0.0
11
0.064976
21
0.371230
31
0.0
0
LINE
8
TOP
10
0.064976
20
0.371230
30
0.0
11
0.065664
21
0.370470
31
0.0
0
LINE
8
TOP
10
0.065664
20
0.370470
30
0.0
11
0.066371
21
0.369727
31
0.0
0
LINE
8
TOP
10
0.066371
20
0.369727
30
0.0
11
0.067096
21
0.369002
31
0.0
0
LINE
8
TOP
10
0.067096
20
0.369002
30
0.0
11
0.067838
21
0.368296
31
0.0
0
LINE
8
TOP
10
0.067838
20
0.368296
30
0.0
11
0.068598
21
0.367608
31
0.0
0
LINE
8
TOP
10
0.068598
20
0.367608
30
0.0
11
0.069376
21
0.366939
31
0.0
0
LINE
8
TOP
10
0.069376
20
0.366939
30
0.0
11
0.070169
21
0.366290
31
0.0
0
LINE
8
TOP
10
0.070169
20
0.366290
30
0.0
11
0.070978
21
0.365661
31
0.0
0
LINE
8
TOP
10
0.070978
20
0.365661
30
0.0
11
0.071803
21
0.365052
31
0.0
0
LINE
8
TOP
10
0.071803
20
0.365052
30
0.0
11
0.072643
21
0.364464
31
0.0
0
LINE
8
TOP
10
0.072643
20
0.364464
30
0.0
11
0.073497
21
0.363897
31
0.0
0
LINE
8
TOP
10
0.073497
20
0.363897
30
0.0
11
0.074365
21
0.363352
31
0.0
0
LINE
8
TOP
10
0.074365
20
0.363352
30
0.0
11
0.075247
21
0.362828
31
0.0
0
LINE
8
TOP
10
0.075247
20
0.362828
30
0.0
11
0.076141
21
0.362326
31
0.0
0
LINE
8
TOP
10
0.076141
20
0.362326
30
0.0
11
0.077047
21
0.361847
31
0.0
0
LINE
8
TOP
10
0.077047
20
0.361847
30
0.0
11
0.077965
21
0.361391
31
0.0
0
LINE
8
TOP
10
0.077965
20
0.361391
30
0.0
11
0.078894
21
0.360958
31
0.0
0
LINE
8
TOP
10
0.078894
20
0.360958
30
0.0
11
0.079834
21
0.360548
31
0.0
0
LINE
8
TOP
10
0.079834
20
0.360548
30
0.0
11
0.080784
21
0.360161
31
0.0
0
LINE
8
TOP
10
0.080784
20
0.360161
30
0.0
11
0.081743
21
0.359799
31
0.0
0
LINE
8
TOP
10
0.081743
20
0.359799
30
0.0
11
0.082710
21
0.359460
31
0.0
0
LINE
8
TOP
10
0.082710
20
0.359460
30
0.0
11
0.083686
21
0.359146
31
0.0
0
LINE
8
TOP
10
0.083686
20
0.359146
30
0.0
11
0.084669
21
0.358856
31
0.0
0
LINE
8
TOP
10
0.084669
20
0.358856
30
0.0
11
0.085660
21
0.358591
31
0.0
0
LINE
8
TOP
10
0.085660
20
0.358591
30
0.0
11
0.086656
21
0.358350
31
0.0
0
LINE
8
TOP
10
0.086656
20
0.358350
30
0.0
11
0.087658
21
0.358134
31
0.0
0
LINE
8
TOP
10
0.087658
20
0.358134
30
0.0
11
0.088666
21
0.357944
31
0.0
0
LINE
8
TOP
10
0.088666
20
0.357944
30
0.0
11
0.089678
21
0.357778
31
0.0
0
LINE
8
TOP
10
0.089678
20
0.357778
30
0.0
11
0.090693
21
0.357638
31
0.0
0
LINE
8
TOP
10
0.090693
20
0.357638
30
0.0
11
0.091712
21
0.357523
31
0.0
0
LINE
8
TOP
10
0.091712
20
0.357523
30
0.0
11
0.092733
21
0.357434
31
0.0
0
LINE
8
TOP
10
0.092733
20
0.357434
30
0.0
11
0.093756
21
0.357370
31
0.0
0
LINE
8
TOP
10
0.093756
20
0.357370
30
0.0
11
0.094781
21
0.357332
31
0.0
0
LINE
8
TOP
10
0.094781
20
0.357332
30
0.0
11
0.095806
21
0.357319
31
0.0
0
LINE
8
TOP
10
0.054688
20
0.488898
30
0.0
11
0.054688
21
0.398438
31
0.0
0
LINE
8
TOP
10
0.095806
20
0.357319
30
0.0
11
0.284951
21
0.357319
31
0.0
0
LINE
8
TOP
10
0.284951
20
0.357319
30
0.0
11
0.289062
21
0.357319
31
0.0
0
LINE
8
TOP
10
0.610609
20
0.357319
30
0.0
11
0.794819
21
0.357319
31
0.0
0
LINE
8
TOP
10
0.794819
20
0.357319
30
0.0
11
0.795844
21
0.357332
31
0.0
0
LINE
8
TOP
10
0.795844
20
0.357332
30
0.0
11
0.796869
21
0.357370
31
0.0
0
LINE
8
TOP
10
0.796869
20
0.357370
30
0.0
11
0.797892
21
0.357434
31
0.0
0
LINE
8
TOP
10
0.797892
20
0.357434
30
0.0
11
0.798913
21
0.357523
31
0.0
0
LINE
8
TOP
10
0.798913
20
0.357523
30
0.0
11
0.799932
21
0.357638
31
0.0
0
LINE
8
TOP
10
0.799932
20
0.357638
30
0.0
11
0.800947
21
0.357778
31
0.0
0
LINE
8
TOP
10
0.800947
20
0.357778
30
0.0
11
0.801959
21
0.357944
31
0.0
0
LINE
8
TOP
10
0.801959
20
0.357944
30
0.0
11
0.802967
21
0.358134
31
0.0
0
LINE
8
TOP
10
0.802967
20
0.358134
30
0.0
11
0.803969
21
0.358350
31
0.0
0
LINE
8
TOP
10
0.803969
20
0.358350
30
0.0
11
0.804965
21
0.358591
31
0.0
0
LINE
8
TOP
10
0.804965
20
0.358591
30
0.0
11
0.805956
21
0.358856
31
0.0
0
LINE
8
TOP
10
0.805956
20
0.358856
30
0.0
11
0.806939
21
0.359146
31
0.0
0
LINE
8
TOP
10
0.806939
20
0.359146
30
0.0
11
0.807915
21
0.359460
31
0.0
0
LINE
8
TOP
10
0.807915
20
0.359460
30
0.0
11
0.808882
21
0.359799
31
0.0
0
LINE
8
TOP
10
0.808882
20
0.359799
30
0.0
11
0.809841
21
0.360161
31
0.0
0
LINE
8
TOP
10
0.809841
20
0.360161
30
0.0
11
0.810791
21
0.360548
31
0.0
0
LINE
8
TOP
10
0.810791
20
0.360548
30
0.0
11
0.811731
21
0.360958
31
0.0
0
LINE
8
TOP
10
0.811731
20
0.360958
30
0.0
11
0.812660
21
0.361391
31
0.0
0
LINE
8
TOP
10
0.812660
20
0.361391
30
0.0
11
0.813578
21
0.361847
31
0.0
0
LINE
8
TOP
10
0.813578
20
0.361847
30
0.0
11
0.814484
21
0.362326
31
0.0
0
LINE
8
TOP
10
0.814484
20
0.362326
30
0.0
11
0.815378
21
0.362828
31
0.0
0
LINE
8
TOP
10
0.815378
20
0.362828
30
0.0
11
0.816260
21
0.363352
31
0.0
0
LINE
8
TOP
10
0.816260
20
0.363352
30
0.0
11
0.817128
21
0.363897
31
0.0
0
LINE
8
TOP
10
0.817128
20
0.363897
30
0.0
11
0.817982
21
0.364464
31
0.0
0
LINE
8
TOP
10
0.817982
20
0.364464
30
0.0
11
0.818822
21
0.365052
31
0.0
0
LINE
8
TOP
10
0.818822
20
0.365052
30
0.0
11
0.819647
21
0.365661
31
0.0
0
LINE
8
TOP
10
0.819647
20
0.365661
30
0.0
11
0.820456
21
0.366290
31
0.0
0
LINE
8
TOP
10
0.820456
20
0.366290
30
0.0
11
0.821249
21
0.366939
31
0.0
0
LINE
8
TOP
10
0.821249
20
0.366939
30
0.0
11
0.822027
21
0.367608
31
0.0
0
LINE
8
TOP
10
0.822027
20
0.367608
30
0.0
11
0.822787
21
0.368296
31
0.0
0
LINE
8
TOP
10
0.822787
20
0.368296
30
0.0
11
0.823529
21
0.369002
31
0.0
0
LINE
8
TOP
10
0.823529
20
0.369002
30
0.0
11
0.824254
21
0.369727
31
0.0
0
LINE
8
TOP
10
0.824254
20
0.369727
30
0.0
11
0.824961
21
0.370470
31
0.0
0
LINE
8
TOP
10
0.824961
20
0.370470
30
0.0
11
0.825649
21
0.371230
31
0.0
0
LINE
8
TOP
10
0.825649
20
0.371230
30
0.0
11
0.826318
21
0.372007
31
0.0
0
LINE
8
TOP
10
0.826318
20
0.372007
30
0.0
11
0.826967
21
0.372801
31
0.0
0
LINE
8
TOP
10
0.826967
20
0.372801
30
0.0
11
0.827596
21
0.373610
31
0.0
0
LINE
8
TOP
10
0.827596
20
0.373610
30
0.0
11
0.828205
21
0.374435
31
0.0
0
LINE
8
TOP
10
0.828205
20
0.374435
30
0.0
11
0.828793
21
0.375275
31
0.0
0
LINE
8
TOP
10
0.828793
20
0.375275
30
0.0
11
0.829360
21
0.376129
31
0.0
0
LINE
8
TOP
10
0.829360
20
0.376129
30
0.0
11
0.829905
21
0.376997
31
0.0
0
LINE
8
TOP
10
0.829905
20
0.376997
30
0.0
11
0.830429
21
0.377878
31
0.0
0
LINE
8
TOP
10
0.830429
20
0.377878
30
0.0
11
0.830930
21
0.378772
31
0.0
0
LINE
8
TOP
10
0.830930
20
0.378772
30
0.0
11
0.831409
21
0.379679
31
0.0
0
LINE
8
TOP
10
0.831409
20
0.379679
30
0.0
11
0.831865
21
0.380597
31
0.0
0
LINE
8
TOP
10
0.831865
20
0.380597
30
0.0
11
0.832299
21
0.381526
31
0.0
0
LINE
8
TOP
10
0.832299
20
0.381526
30
0.0
11
0.832709
21
0.382466
31
0.0
0
LINE
8
TOP
10
0.832709
20
0.382466
30
0.0
11
0.833095
21
0.383415
31
0.0
0
LINE
8
TOP
10
0.833095
20
0.383415
30
0.0
11
0.833458
21
0.384374
31
0.0
0
LINE
8
TOP
10
0.833458
20
0.384374
30
0.0
11
0.833796
21
0.385342
31
0.0
0
LINE
8
TOP
10
0.833796
20
0.385342
30
0.0
11
0.834111
21
0.386318
31
0.0
0
LINE
8
TOP
10
0.834111
20
0.386318
30
0.0
11
0.834401
21
0.387301
31
0.0
0
LINE
8
TOP
10
0.834401
20
0.387301
30
0.0
11
0.834666
21
0.388291
31
0.0
0
LINE
8
TOP
10
0.834666
20
0.388291
30
0.0
11
0.834907
21
0.389288
31
0.0
0
LINE
8
TOP
10
0.834907
20
0.389288
30
0.0
11
0.835122
21
0.390290
31
0.0
0
LINE
8
TOP
10
0.835122
20
0.390290
30
0.0
11
0.835313
21
0.391297
31
0.0
0
LINE
8
TOP
10
0.835313
20
0.391297
30
0.0
11
0.835478
21
0.392309
31
0.0
0
LINE
8
TOP
10
0.835478
20
0.392309
30
0.0
11
0.835618
21
0.393325
31
0.0
0
LINE
8
TOP
10
0.835618
20
0.393325
30
0.0
11
0.835733
21
0.394343
31
0.0
0
LINE
8
TOP
10
0.835733
20
0.394343
30
0.0
11
0.835823
21
0.395365
31
0.0
0
LINE
8
TOP
10
0.835823
20
0.395365
30
0.0
11
0.835886
21
0.396388
31
0.0
0
LINE
8
TOP
10
0.835886
20
0.396388
30
0.0
11
0.835925
21
0.397412
31
0.0
0
LINE
8
TOP
10
0.835925
20
0.397412
30
0.0
11
0.835937
21
0.398438
31
0.0
0
LINE
8
TOP
10
0.835938
20
0.398438
30
0.0
11
0.835938
21
0.488898
31
0.0
0
LINE
8
TOP
10
0.835938
20
0.488898
30
0.0
11
0.835938
21
0.492188
31
0.0
0
LINE
8
TOP
10
0.835938
20
1.007812
30
0.0
11
0.835938
21
1.089227
31
0.0
0
LINE
8
TOP
10
0.835937
20
1.089227
30
0.0
11
0.836026
21
1.090356
31
0.0
0
LINE
8
TOP
10
0.836026
20
1.090356
30
0.0
11
0.836086
21
1.091487
31
0.0
0
LINE
8
TOP
10
0.836086
20
1.091487
30
0.0
11
0.836118
21
1.092619
31
0.0
0
LINE
8
TOP
10
0.836118
20
1.092619
30
0.0
11
0.836122
21
1.093751
31
0.0
0
LINE
8
TOP
10
0.836122
20
1.093751
30
0.0
11
0.836098
21
1.094883
31
0.0
0
LINE
8
TOP
10
0.836098
20
1.094883
30
0.0
11
0.836045
21
1.096014
31
0.0
0
LINE
8
TOP
10
0.836045
20
1.096014
30
0.0
11
0.835964
21
1.097144
31
0.0
0
LINE
8
TOP
10
0.835964
20
1.097144
30
0.0
11
0.835855
21
1.098271
31
0.0
0
LINE
8
TOP
10
0.835855
20
1.098271
30
0.0
11
0.835718
21
1.099395
31
0.0
0
LINE
8
TOP
10
0.835718
20
1.099395
30
0.0
11
0.835553
21
1.100515
31
0.0
0
LINE
8
TOP
10
0.835553
20
1.100515
30
0.0
11
0.835361
21
1.101631
31
0.0
0
LINE
8
TOP
10
0.835361
20
1.101631
30
0.0
11
0.835140
21
1.102742
31
0.0
0
LINE
8
TOP
10
0.835140
20
1.102742
30
0.0
11
0.834892
21
1.103846
31
0.0
0
LINE
8
TOP
10
0.834892
20
1.103846
30
0.0
11
0.834616
21
1.104945
31
0.0
0
LINE
8
TOP
10
0.834616
20
1.104945
30
0.0
11
0.834313
21
1.106036
31
0.0
0
LINE
8
TOP
10
0.834313
20
1.106036
30
0.0
11
0.833983
21
1.107119
31
0.0
0
LINE
8
TOP
10
0.833983
20
1.107119
30
0.0
11
0.833626
21
1.108193
31
0.0
0
LINE
8
TOP
10
0.833626
20
1.108193
30
0.0
11
0.833242
21
1.109259
31
0.0
0
LINE
8
TOP
10
0.833242
20
1.109259
30
0.0
11
0.832832
21
1.110314
31
0.0
0
LINE
8
TOP
10
0.832832
20
1.110314
30
0.0
11
0.832396
21
1.111359
31
0.0
0
LINE
8
TOP
10
0.832396
20
1.111359
30
0.0
11
0.831934
21
1.112393
31
0.0
0
LINE
8
TOP
10
0.831934
20
1.112393
30
0.0
11
0.831446
21
1.113415
31
0.0
0
LINE
8
TOP
10
0.831446
20
1.113415
30
0.0
11
0.830933
21
1.114424
31
0.0
0
LINE
8
TOP
10
0.830933
20
1.114424
30
0.0
11
0.830395
21
1.115421
31
0.0
0
LINE
8
TOP
10
0.830395
20
1.115421
30
0.0
11
0.829832
21
1.116403
31
0.0
0
LINE
8
TOP
10
0.829832
20
1.116403
30
0.0
11
0.829244
21
1.117371
31
0.0
0
LINE
8
TOP
10
0.829244
20
1.117371
30
0.0
11
0.828633
21
1.118325
31
0.0
0
LINE
8
TOP
10
0.828633
20
1.118325
30
0.0
11
0.827999
21
1.119262
31
0.0
0
LINE
8
TOP
10
0.827999
20
1.119262
30
0.0
11
0.827341
21
1.120184
31
0.0
0
LINE
8
TOP
10
0.827341
20
1.120184
30
0.0
11
0.826660
21
1.121089
31
0.0
0
LINE
8
TOP
10
0.826660
20
1.121089
30
0.0
11
0.825957
21
1.121977
31
0.0
0
LINE
8
TOP
10
0.825957
20
1.121977
30
0.0
11
0.825232
21
1.122847
31
0.0
0
LINE
8
TOP
10
0.825232
20
1.122847
30
0.0
11
0.824486
21
1.123698
31
0.0
0
LINE
8
TOP
10
0.824486
20
1.123698
30
0.0
11
0.823718
21
1.124531
31
0.0
0
LINE
8
TOP
10
0.823718
20
1.124531
30
0.0
11
0.822931
21
1.125344
31
0.0
0
LINE
8
TOP
10
0.822931
20
1.125344
30
0.0
11
0.822123
21
1.126138
31
0.0
0
LINE
8
TOP
10
0.822123
20
1.126138
30
0.0
11
0.821295
21
1.126911
31
0.0
0
LINE
8
TOP
10
0.821295
20
1.126911
30
0.0
11
0.820449
21
1.127663
31
0.0
0
LINE
8
TOP
10
0.820449
20
1.127663
30
0.0
11
0.819584
21
1.128394
31
0.0
0
LINE
8
TOP
10
0.819584
20
1.128394
30
0.0
11
0.818701
21
1.129103
31
0.0
0
LINE
8
TOP
10
0.818701
20
1.129103
30
0.0
11
0.817800
21
1.129789
31
0.0
0
LINE
8
TOP
10
0.817800
20
1.129789
30
0.0
11
0.816883
21
1.130453
31
0.0
0
LINE
8
TOP
10
0.816883
20
1.130453
30
0.0
11
0.815950
21
1.131095
31
0.0
0
LINE
8
TOP
10
0.815950
20
1.131095
30
0.0
11
0.815001
21
1.131712
31
0.0
0
LINE
8
TOP
10
0.815001
20
1.131712
30
0.0
11
0.814037
21
1.132306
31
0.0
0
LINE
8
TOP
10
0.814037
20
1.132306
30
0.0
11
0.813058
21
1.132875
31
0.0
0
LINE
8
TOP
10
0.813058
20
1.132875
30
0.0
11
0.812065
21
1.133420
31
0.0
0
LINE
8
TOP
10
0.812065
20
1.133420
30
0.0
11
0.811059
21
1.133940
31
0.0
0
LINE
8
TOP
10
0.811059
20
1.133940
30
0.0
11
0.810041
21
1.134435
31
0.0
0
LINE
8
TOP
10
0.810041
20
1.134435
30
0.0
11
0.809010
21
1.134904
31
0.0
0
LINE
8
TOP
10
0.809010
20
1.134904
30
0.0
11
0.807968
21
1.135348
31
0.0
0
LINE
8
TOP
10
0.807968
20
1.135348
30
0.0
11
0.806916
21
1.135765
31
0.0
0
LINE
8
TOP
10
0.806916
20
1.135765
30
0.0
11
0.805853
21
1.136156
31
0.0
0
LINE
8
TOP
10
0.805853
20
1.136156
30
0.0
11
0.804781
21
1.136520
31
0.0
0
LINE
8
TOP
10
0.804781
20
1.136520
30
0.0
11
0.803700
21
1.136858
31
0.0
0
LINE
8
TOP
10
0.803700
20
1.136858
30
0.0
11
0.802611
21
1.137168
31
0.0
0
LINE
8
TOP
10
0.802611
20
1.137168
30
0.0
11
0.801514
21
1.137451
31
0.0
0
LINE
8
TOP
10
0.801514
20
1.137451
30
0.0
11
0.800411
21
1.137707
31
0.0
0
LINE
8
TOP
10
0.800411
20
1.137707
30
0.0
11
0.799302
21
1.137935
31
0.0
0
LINE
8
TOP
10
0.799302
20
1.137935
30
0.0
11
0.798188
21
1.138135
31
0.0
0
LINE
8
TOP
10
0.798188
20
1.138135
30
0.0
11
0.797069
21
1.138308
31
0.0
0
LINE
8
TOP
10
0.797069
20
1.138308
30
0.0
11
0.795945
21
1.138453
31
0.0
0
LINE
8
TOP
10
0.795945
20
1.138453
30
0.0
11
0.794819
21
1.138569
31
0.0
0
LINE
8
TOP
10
0.794819
20
1.138569
30
0.0
11
0.095806
21
1.138569
31
0.0
0
LINE
8
TOP
10
0.095806
20
1.138569
30
0.0
11
0.094680
21
1.138453
31
0.0
0
LINE
8
TOP
10
0.094680
20
1.138453
30
0.0
11
0.093556
21
1.138308
31
0.0
0
LINE
8
TOP
10
0.093556
20
1.138308
30
0.0
11
0.092437
21
1.138135
31
0.0
0
LINE
8
TOP
10
0.092437
20
1.138135
30
0.0
11
0.091323
21
1.137935
31
0.0
0
LINE
8
TOP
10
0.091323
20
1.137935
30
0.0
11
0.090214
21
1.137707
31
0.0
0
LINE
8
TOP
10
0.090214
20
1.137707
30
0.0
11
0.089111
21
1.137451
31
0.0
0
LINE
8
TOP
10
0.089111
20
1.137451
30
0.0
11
0.088014
21
1.137168
31
0.0
0
LINE
8
TOP
10
0.088014
20
1.137168
30
0.0
11
0.086925
21
1.136858
31
0.0
0
LINE
8
TOP
10
0.086925
20
1.136858
30
0.0
11
0.085844
21
1.136520
31
0.0
0
LINE
8
TOP
10
0.085844
20
1.136520
30
0.0
11
0.084772
21
1.136156
31
0.0
0
LINE
8
TOP
10
0.084772
20
1.136156
30
0.0
11
0.083709
21
1.135765
31
0.0
0
LINE
8
TOP
10
0.083709
20
1.135765
30
0.0
11
0.082657
21
1.135348
31
0.0
0
LINE
8
TOP
10
0.082657
20
1.135348
30
0.0
11
0.081615
21
1.134904
31
0.0
0
LINE
8
TOP
10
0.081615
20
1.134904
30
0.0
11
0.080584
21
1.134435
31
0.0
0
LINE
8
TOP
10
0.080584
20
1.134435
30
0.0
11
0.079566
21
1.133940
31
0.0
0
LINE
8
TOP
10
0.079566
20
1.133940
30
0.0
11
0.078560
21
1.133420
31
0.0
0
LINE
8
TOP
10
0.078560
20
1.133420
30
0.0
11
0.077567
21
1.132875
31
0.0
0
LINE
8
TOP
10
0.077567
20
1.132875
30
0.0
11
0.076588
21
1.132306
31
0.0
0
LINE
8
TOP
10
0.076588
20
1.132306
30
0.0
11
0.075624
21
1.131712
31
0.0
0
LINE
8
TOP
10
0.075624
20
1.131712
30
0.0
11
0.074675
21
1.131095
31
0.0
0
LINE
8
TOP
10
0.074675
20
1.131095
30
0.0
11
0.073742
21
1.130453
31
0.0
0
LINE
8
TOP
10
0.073742
20
1.130453
30
0.0
11
0.072825
21
1.129789
31
0.0
0
LINE
8
TOP
10
0.072825
20
1.129789
30
0.0
11
0.071924
21
1.129103
31
0.0
0
LINE
8
TOP
10
0.071924
20
1.129103
30
0.0
11
0.071041
21
1.128394
31
0.0
0
LINE
8
TOP
10
0.071041
20
1.128394
30
0.0
11
0.070176
21
1.127663
31
0.0
0
LINE
8
TOP
10
0.070176
20
1.127663
30
0.0
11
0.069330
21
1.126911
31
0.0
0
LINE
8
TOP
10
0.069330
20
1.126911
30
0.0
11
0.068502
21
1.126138
31
0.0
0
LINE
8
TOP
10
0.068502
20
1.126138
30
0.0
11
0.067694
21
1.125344
31
0.0
0
LINE
8
TOP
10
0.067694
20
1.125344
30
0.0
11
0.066907
21
1.124531
31
0.0
0
LINE
8
TOP
10
0.066907
20
1.124531
30
0.0
11
0.066139
21
1.123698
31
0.0
0
LINE
8
TOP
10
0.066139
20
1.123698
30
0.0
11
0.065393
21
1.122847
31
0.0
0
LINE
8
TOP
10
0.065393
20
1.122847
30
0.0
11
0.064668
21
1.121977
31
0.0
0
LINE
8
TOP
10
0.064668
20
1.121977
30
0.0
11
0.063965
21
1.121089
31
0.0
0
LINE
8
TOP
10
0.063965
20
1.121089
30
0.0
11
0.063284
21
1.120184
31
0.0
0
LINE
8
TOP
10
0.063284
20
1.120184
30
0.0
11
0.062626
21
1.119262
31
0.0
0
LINE
8
TOP
10
0.062626
20
1.119262
30
0.0
11
0.061992
21
1.118325
31
0.0
0
LINE
8
TOP
10
0.061992
20
1.118325
30
0.0
11
0.061381
21
1.117371
31
0.0
0
LINE
8
TOP
10
0.061381
20
1.117371
30
0.0
11
0.060793
21
1.116403
31
0.0
0
LINE
8
TOP
10
0.060793
20
1.116403
30
0.0
11
0.060230
21
1.115421
31
0.0
0
LINE
8
TOP
10
0.060230
20
1.115421
30
0.0
11
0.059692
21
1.114424
31
0.0
0
LINE
8
TOP
10
0.059692
20
1.114424
30
0.0
11
0.059179
21
1.113415
31
0.0
0
LINE
8
TOP
10
0.059179
20
1.113415
30
0.0
11
0.058691
21
1.112393
31
0.0
0
LINE
8
TOP
10
0.058691
20
1.112393
30
0.0
11
0.058229
21
1.111359
31
0.0
0
LINE
8
TOP
10
0.058229
20
1.111359
30
0.0
11
0.057793
21
1.110314
31
0.0
0
LINE
8
TOP
10
0.057793
20
1.110314
30
0.0
11
0.057383
21
1.109259
31
0.0
0
LINE
8
TOP
10
0.057383
20
1.109259
30
0.0
11
0.056999
21
1.108193
31
0.0
0
LINE
8
TOP
10
0.056999
20
1.108193
30
0.0
11
0.056642
21
1.107119
31
0.0
0
LINE
8
TOP
10
0.056642
20
1.107119
30
0.0
11
0.056312
21
1.106036
31
0.0
0
LINE
8
TOP
10
0.056312
20
1.106036
30
0.0
11
0.056009
21
1.104945
31
0.0
0
LINE
8
TOP
10
0.056009
20
1.104945
30
0.0
11
0.055733
21
1.103846
31
0.0
0
LINE
8
TOP
10
0.055733
20
1.103846
30
0.0
11
0.055485
21
1.102742
31
0.0
0
LINE
8
TOP
10
0.055485
20
1.102742
30
0.0
11
0.055264
21
1.101631
31
0.0
0
LINE
8
TOP
10
0.055264
20
1.101631
30
0.0
11
0.055072
21
1.100515
31
0.0
0
LINE
8
TOP
10
0.055072
20
1.100515
30
0.0
11
0.054907
21
1.099395
31
0.0
0
LINE
8
TOP
10
0.054907
20
1.099395
30
0.0
11
0.054770
21
1.098271
31
0.0
0
LINE
8
TOP
10
0.054770
20
1.098271
30
0.0
11
0.054661
21
1.097144
31
0.0
0
LINE
8
TOP
10
0.054661
20
1.097144
30
0.0
11
0.054580
21
1.096014
31
0.0
0
LINE
8
TOP
10
0.054580
20
1.096014
30
0.0
11
0.054527
21
1.094883
31
0.0
0
LINE
8
TOP
10
0.054527
20
1.094883
30
0.0
11
0.054503
21
1.093751
31
0.0
0
LINE
8
TOP
10
0.054503
20
1.093751
30
0.0
11
0.054507
21
1.092619
31
0.0
0
LINE
8
TOP
10
0.054507
20
1.092619
30
0.0
11
0.054539
21
1.091487
31
0.0
0
LINE
8
TOP
10
0.054539
20
1.091487
30
0.0
11
0.054599
21
1.090356
31
0.0
0
LINE
8
TOP
10
0.054599
20
1.090356
30
0.0
11
0.054688
21
1.089227
31
0.0
0
LINE
8
TOP
10
0.054688
20
1.089227
30
0.0
11
0.054688
21
1.006990
31
0.0
0
LINE
8
TOP
10
0.054688
20
1.006990
30
0.0
11
0.054688
21
0.488898
31
0.0
0
LINE
8
TOP
10
0.153372
20
0.414885
30
0.0
11
0.153208
21
0.418160
31
0.0
0
LINE
8
TOP
10
0.153208
20
0.418160
30
0.0
11
0.152719
21
0.421403
31
0.0
0
LINE
8
TOP
10
0.152719
20
0.421403
30
0.0
11
0.151910
21
0.424581
31
0.0
0
LINE
8
TOP
10
0.151910
20
0.424581
30
0.0
11
0.150789
21
0.427662
31
0.0
0
LINE
8
TOP
10
0.150789
20
0.427662
30
0.0
11
0.149366
21
0.430617
31
0.0
0
LINE
8
TOP
10
0.149366
20
0.430617
30
0.0
11
0.147656
21
0.433415
31
0.0
0
LINE
8
TOP
10
0.147656
20
0.433415
30
0.0
11
0.145676
21
0.436029
31
0.0
0
LINE
8
TOP
10
0.145676
20
0.436029
30
0.0
11
0.143445
21
0.438433
31
0.0
0
LINE
8
TOP
10
0.143445
20
0.438433
30
0.0
11
0.140987
21
0.440603
31
0.0
0
LINE
8
TOP
10
0.140987
20
0.440603
30
0.0
11
0.138324
21
0.442517
31
0.0
0
LINE
8
TOP
10
0.138324
20
0.442517
30
0.0
11
0.135484
21
0.444157
31
0.0
0
LINE
8
TOP
10
0.135484
20
0.444157
30
0.0
11
0.132495
21
0.445506
31
0.0
0
LINE
8
TOP
10
0.132495
20
0.445506
30
0.0
11
0.129386
21
0.446550
31
0.0
0
LINE
8
TOP
10
0.129386
20
0.446550
30
0.0
11
0.126189
21
0.447280
31
0.0
0
LINE
8
TOP
10
0.126189
20
0.447280
30
0.0
11
0.122935
21
0.447688
31
0.0
0
LINE
8
TOP
10
0.122935
20
0.447688
30
0.0
11
0.119657
21
0.447769
31
0.0
0
LINE
8
TOP
10
0.119657
20
0.447769
30
0.0
11
0.116387
21
0.447524
31
0.0
0
LINE
8
TOP
10
0.116387
20
0.447524
30
0.0
11
0.113157
21
0.446955
31
0.0
0
LINE
8
TOP
10
0.113157
20
0.446955
30
0.0
11
0.110000
21
0.446067
31
0.0
0
LINE
8
TOP
10
0.110000
20
0.446067
30
0.0
11
0.106948
21
0.444869
31
0.0
0
LINE
8
TOP
10
0.106948
20
0.444869
30
0.0
11
0.104030
21
0.443373
31
0.0
0
LINE
8
TOP
10
0.104030
20
0.443373
30
0.0
11
0.101275
21
0.441593
31
0.0
0
LINE
8
TOP
10
0.101275
20
0.441593
30
0.0
11
0.098711
21
0.439549
31
0.0
0
LINE
8
TOP
10
0.098711
20
0.439549
30
0.0
11
0.096363
21
0.437259
31
0.0
0
LINE
8
TOP
10
0.096363
20
0.437259
30
0.0
11
0.094256
21
0.434747
31
0.0
0
LINE
8
TOP
10
0.094256
20
0.434747
30
0.0
11
0.092408
21
0.432037
31
0.0
0
LINE
8
TOP
10
0.092408
20
0.432037
30
0.0
11
0.090840
21
0.429157
31
0.0
0
LINE
8
TOP
10
0.090840
20
0.429157
30
0.0
11
0.089566
21
0.426136
31
0.0
0
LINE
8
TOP
10
0.089566
20
0.426136
30
0.0
11
0.088599
21
0.423002
31
0.0
0
LINE
8
TOP
10
0.088599
20
0.423002
30
0.0
11
0.087950
21
0.419788
31
0.0
0
LINE
8
TOP
10
0.087950
20
0.419788
30
0.0
11
0.087623
21
0.416525
31
0.0
0
LINE
8
TOP
10
0.087623
20
0.416525
30
0.0
11
0.087623
21
0.413245
31
0.0
0
LINE
8
TOP
10
0.087623
20
0.413245
30
0.0
11
0.087950
21
0.409982
31
0.0
0
LINE
8
TOP
10
0.087950
20
0.409982
30
0.0
11
0.088599
21
0.406768
31
0.0
0
LINE
8
TOP
10
0.088599
20
0.406768
30
0.0
11
0.089566
21
0.403634
31
0.0
0
LINE
8
TOP
10
0.089566
20
0.403634
30
0.0
11
0.090840
21
0.400612
31
0.0
0
LINE
8
TOP
10
0.090840
20
0.400612
30
0.0
11
0.092408
21
0.397732
31
0.0
0
LINE
8
TOP
10
0.092408
20
0.397732
30
0.0
11
0.094256
21
0.395023
31
0.0
0
LINE
8
TOP
10
0.094256
20
0.395023
30
0.0
11
0.096363
21
0.392511
31
0.0
0
LINE
8
TOP
10
0.096363
20
0.392511
30
0.0
11
0.098711
21
0.390221
31
0.0
0
LINE
8
TOP
10
0.098711
20
0.390221
30
0.0
11
0.101275
21
0.388176
31
0.0
0
LINE
8
TOP
10
0.101275
20
0.388176
30
0.0
11
0.104030
21
0.386397
31
0.0
0
LINE
8
TOP
10
0.104030
20
0.386397
30
0.0
11
0.106948
21
0.384901
31
0.0
0
LINE
8
TOP
10
0.106948
20
0.384901
30
0.0
11
0.110000
21
0.383703
31
0.0
0
LINE
8
TOP
10
0.110000
20
0.383703
30
0.0
11
0.113157
21
0.382815
31
0.0
0
LINE
8
TOP
10
0.113157
20
0.382815
30
0.0
11
0.116387
21
0.382245
31
0.0
0
LINE
8
TOP
10
0.116387
20
0.382245
30
0.0
11
0.119657
21
0.382000
31
0.0
0
LINE
8
TOP
10
0.119657
20
0.382000
30
0.0
11
0.122935
21
0.382082
31
0.0
0
LINE
8
TOP
10
0.122935
20
0.382082
30
0.0
11
0.126189
21
0.382490
31
0.0
0
LINE
8
TOP
10
0.126189
20
0.382490
30
0.0
11
0.129386
21
0.383220
31
0.0
0
LINE
8
TOP
10
0.129386
20
0.383220
30
0.0
11
0.132495
21
0.384264
31
0.0
0
LINE
8
TOP
10
0.132495
20
0.384264
30
0.0
11
0.135484
21
0.385613
31
0.0
0
LINE
8
TOP
10
0.135484
20
0.385613
30
0.0
11
0.138324
21
0.387252
31
0.0
0
LINE
8
TOP
10
0.138324
20
0.387252
30
0.0
11
0.140987
21
0.389167
31
0.0
0
LINE
8
TOP
10
0.140987
20
0.389167
30
0.0
11
0.143445
21
0.391337
31
0.0
0
LINE
8
TOP
10
0.143445
20
0.391337
30
0.0
11
0.145676
21
0.393741
31
0.0
0
LINE
8
TOP
10
0.145676
20
0.393741
30
0.0
11
0.147656
21
0.396355
31
0.0
0
LINE
8
TOP
10
0.147656
20
0.396355
30
0.0
11
0.149366
21
0.399153
31
0.0
0
LINE
8
TOP
10
0.149366
20
0.399153
30
0.0
11
0.150789
21
0.402107
31
0.0
0
LINE
8
TOP
10
0.150789
20
0.402107
30
0.0
11
0.151910
21
0.405189
31
0.0
0
LINE
8
TOP
10
0.151910
20
0.405189
30
0.0
11
0.152719
21
0.408367
31
0.0
0
LINE
8
TOP
10
0.152719
20
0.408367
30
0.0
11
0.153208
21
0.411610
31
0.0
0
LINE
8
TOP
10
0.153208
20
0.411610
30
0.0
11
0.153372
21
0.414885
31
0.0
0
LINE
8
TOP
10
0.811266
20
0.423109
30
0.0
11
0.811103
21
0.426384
31
0.0
0
LINE
8
TOP
10
0.811103
20
0.426384
30
0.0
11
0.810614
21
0.429627
31
0.0
0
LINE
8
TOP
10
0.810614
20
0.429627
30
0.0
11
0.809805
21
0.432804
31
0.0
0
LINE
8
TOP
10
0.809805
20
0.432804
30
0.0
11
0.808683
21
0.435886
31
0.0
0
LINE
8
TOP
10
0.808683
20
0.435886
30
0.0
11
0.807261
21
0.438841
31
0.0
0
LINE
8
TOP
10
0.807261
20
0.438841
30
0.0
11
0.805551
21
0.441639
31
0.0
0
LINE
8
TOP
10
0.805551
20
0.441639
30
0.0
11
0.803571
21
0.444253
31
0.0
0
LINE
8
TOP
10
0.803571
20
0.444253
30
0.0
11
0.801340
21
0.446657
31
0.0
0
LINE
8
TOP
10
0.801340
20
0.446657
30
0.0
11
0.798881
21
0.448827
31
0.0
0
LINE
8
TOP
10
0.798881
20
0.448827
30
0.0
11
0.796219
21
0.450741
31
0.0
0
LINE
8
TOP
10
0.796219
20
0.450741
30
0.0
11
0.793379
21
0.452381
31
0.0
0
LINE
8
TOP
10
0.793379
20
0.452381
30
0.0
11
0.790390
21
0.453729
31
0.0
0
LINE
8
TOP
10
0.790390
20
0.453729
30
0.0
11
0.787281
21
0.454774
31
0.0
0
LINE
8
TOP
10
0.787281
20
0.454774
30
0.0
11
0.784084
21
0.455504
31
0.0
0
LINE
8
TOP
10
0.784084
20
0.455504
30
0.0
11
0.780830
21
0.455911
31
0.0
0
LINE
8
TOP
10
0.780830
20
0.455911
30
0.0
11
0.777552
21
0.455993
31
0.0
0
LINE
8
TOP
10
0.777552
20
0.455993
30
0.0
11
0.774281
21
0.455748
31
0.0
0
LINE
8
TOP
10
0.774281
20
0.455748
30
0.0
11
0.771052
21
0.455179
31
0.0
0
LINE
8
TOP
10
0.771052
20
0.455179
30
0.0
11
0.767895
21
0.454290
31
0.0
0
LINE
8
TOP
10
0.767895
20
0.454290
30
0.0
11
0.764843
21
0.453092
31
0.0
0
LINE
8
TOP
10
0.764843
20
0.453092
30
0.0
11
0.761924
21
0.451596
31
0.0
0
LINE
8
TOP
10
0.761924
20
0.451596
30
0.0
11
0.759170
21
0.449817
31
0.0
0
LINE
8
TOP
10
0.759170
20
0.449817
30
0.0
11
0.756606
21
0.447772
31
0.0
0
LINE
8
TOP
10
0.756606
20
0.447772
30
0.0
11
0.754258
21
0.445483
31
0.0
0
LINE
8
TOP
10
0.754258
20
0.445483
30
0.0
11
0.752150
21
0.442971
31
0.0
0
LINE
8
TOP
10
0.752150
20
0.442971
30
0.0
11
0.750303
21
0.440261
31
0.0
0
LINE
8
TOP
10
0.750303
20
0.440261
30
0.0
11
0.748735
21
0.437381
31
0.0
0
LINE
8
TOP
10
0.748735
20
0.437381
30
0.0
11
0.747461
21
0.434359
31
0.0
0
LINE
8
TOP
10
0.747461
20
0.434359
30
0.0
11
0.746494
21
0.431226
31
0.0
0
LINE
8
TOP
10
0.746494
20
0.431226
30
0.0
11
0.745844
21
0.428011
31
0.0
0
LINE
8
TOP
10
0.745844
20
0.428011
30
0.0
11
0.745518
21
0.424748
31
0.0
0
LINE
8
TOP
10
0.745518
20
0.424748
30
0.0
11
0.745518
21
0.421469
31
0.0
0
LINE
8
TOP
10
0.745518
20
0.421469
30
0.0
11
0.745844
21
0.418206
31
0.0
0
LINE
8
TOP
10
0.745844
20
0.418206
30
0.0
11
0.746494
21
0.414992
31
0.0
0
LINE
8
TOP
10
0.746494
20
0.414992
30
0.0
11
0.747461
21
0.411858
31
0.0
0
LINE
8
TOP
10
0.747461
20
0.411858
30
0.0
11
0.748735
21
0.408836
31
0.0
0
LINE
8
TOP
10
0.748735
20
0.408836
30
0.0
11
0.750303
21
0.405956
31
0.0
0
LINE
8
TOP
10
0.750303
20
0.405956
30
0.0
11
0.752150
21
0.403247
31
0.0
0
LINE
8
TOP
10
0.752150
20
0.403247
30
0.0
11
0.754258
21
0.400734
31
0.0
0
LINE
8
TOP
10
0.754258
20
0.400734
30
0.0
11
0.756606
21
0.398445
31
0.0
0
LINE
8
TOP
10
0.756606
20
0.398445
30
0.0
11
0.759170
21
0.396400
31
0.0
0
LINE
8
TOP
10
0.759170
20
0.396400
30
0.0
11
0.761924
21
0.394621
31
0.0
0
LINE
8
TOP
10
0.761924
20
0.394621
30
0.0
11
0.764843
21
0.393125
31
0.0
0
LINE
8
TOP
10
0.764843
20
0.393125
30
0.0
11
0.767895
21
0.391927
31
0.0
0
LINE
8
TOP
10
0.767895
20
0.391927
30
0.0
11
0.771052
21
0.391039
31
0.0
0
LINE
8
TOP
10
0.771052
20
0.391039
30
0.0
11
0.774281
21
0.390469
31
0.0
0
LINE
8
TOP
10
0.774281
20
0.390469
30
0.0
11
0.777552
21
0.390224
31
0.0
0
LINE
8
TOP
10
0.777552
20
0.390224
30
0.0
11
0.780830
21
0.390306
31
0.0
0
LINE
8
TOP
10
0.780830
20
0.390306
30
0.0
11
0.784084
21
0.390714
31
0.0
0
LINE
8
TOP
10
0.784084
20
0.390714
30
0.0
11
0.787281
21
0.391443
31
0.0
0
LINE
8
TOP
10
0.787281
20
0.391443
30
0.0
11
0.790390
21
0.392488
31
0.0
0
LINE
8
TOP
10
0.790390
20
0.392488
30
0.0
11
0.793379
21
0.393836
31
0.0
0
LINE
8
TOP
10
0.793379
20
0.393836
30
0.0
11
0.796219
21
0.395476
31
0.0
0
LINE
8
TOP
10
0.796219
20
0.395476
30
0.0
11
0.798881
21
0.397390
31
0.0
0
LINE
8
TOP
10
0.798881
20
0.397390
30
0.0
11
0.801340
21
0.399560
31
0.0
0
LINE
8
TOP
10
0.801340
20
0.399560
30
0.0
11
0.803571
21
0.401964
31
0.0
0
LINE
8
TOP
10
0.803571
20
0.401964
30
0.0
11
0.805551
21
0.404578
31
0.0
0
LINE
8
TOP
10
0.805551
20
0.404578
30
0.0
11
0.807261
21
0.407377
31
0.0
0
LINE
8
TOP
10
0.807261
20
0.407377
30
0.0
11
0.808683
21
0.410331
31
0.0
0
LINE
8
TOP
10
0.808683
20
0.410331
30
0.0
11
0.809805
21
0.413413
31
0.0
0
LINE
8
TOP
10
0.809805
20
0.413413
30
0.0
11
0.810614
21
0.416591
31
0.0
0
LINE
8
TOP
10
0.810614
20
0.416591
30
0.0
11
0.811103
21
0.419833
31
0.0
0
LINE
8
TOP
10
0.811103
20
0.419833
30
0.0
11
0.811266
21
0.423109
31
0.0
0
LINE
8
TOP
10
0.145148
20
1.072780
30
0.0
11
0.144985
21
1.076055
31
0.0
0
LINE
8
TOP
10
0.144985
20
1.076055
30
0.0
11
0.144496
21
1.079298
31
0.0
0
LINE
8
TOP
10
0.144496
20
1.079298
30
0.0
11
0.143687
21
1.082475
31
0.0
0
LINE
8
TOP
10
0.143687
20
1.082475
30
0.0
11
0.142565
21
1.085557
31
0.0
0
LINE
8
TOP
10
0.142565
20
1.085557
30
0.0
11
0.141142
21
1.088512
31
0.0
0
LINE
8
TOP
10
0.141142
20
1.088512
30
0.0
11
0.139432
21
1.091310
31
0.0
0
LINE
8
TOP
10
0.139432
20
1.091310
30
0.0
11
0.137452
21
1.093924
31
0.0
0
LINE
8
TOP
10
0.137452
20
1.093924
30
0.0
11
0.135222
21
1.096328
31
0.0
0
LINE
8
TOP
10
0.135222
20
1.096328
30
0.0
11
0.132763
21
1.098498
31
0.0
0
LINE
8
TOP
10
0.132763
20
1.098498
30
0.0
11
0.130100
21
1.100412
31
0.0
0
LINE
8
TOP
10
0.130100
20
1.100412
30
0.0
11
0.127260
21
1.102052
31
0.0
0
LINE
8
TOP
10
0.127260
20
1.102052
30
0.0
11
0.124271
21
1.103400
31
0.0
0
LINE
8
TOP
10
0.124271
20
1.103400
30
0.0
11
0.121163
21
1.104445
31
0.0
0
LINE
8
TOP
10
0.121163
20
1.104445
30
0.0
11
0.117965
21
1.105175
31
0.0
0
LINE
8
TOP
10
0.117965
20
1.105175
30
0.0
11
0.114712
21
1.105582
31
0.0
0
LINE
8
TOP
10
0.114712
20
1.105582
30
0.0
11
0.111433
21
1.105664
31
0.0
0
LINE
8
TOP
10
0.111433
20
1.105664
30
0.0
11
0.108163
21
1.105419
31
0.0
0
LINE
8
TOP
10
0.108163
20
1.105419
30
0.0
11
0.104934
21
1.104850
31
0.0
0
LINE
8
TOP
10
0.104934
20
1.104850
30
0.0
11
0.101777
21
1.103961
31
0.0
0
LINE
8
TOP
10
0.101777
20
1.103961
30
0.0
11
0.098724
21
1.102763
31
0.0
0
LINE
8
TOP
10
0.098724
20
1.102763
30
0.0
11
0.095806
21
1.101267
31
0.0
0
LINE
8
TOP
10
0.095806
20
1.101267
30
0.0
11
0.093051
21
1.099488
31
0.0
0
LINE
8
TOP
10
0.093051
20
1.099488
30
0.0
11
0.090487
21
1.097443
31
0.0
0
LINE
8
TOP
10
0.090487
20
1.097443
30
0.0
11
0.088140
21
1.095154
31
0.0
0
LINE
8
TOP
10
0.088140
20
1.095154
30
0.0
11
0.086032
21
1.092642
31
0.0
0
LINE
8
TOP
10
0.086032
20
1.092642
30
0.0
11
0.084185
21
1.089932
31
0.0
0
LINE
8
TOP
10
0.084185
20
1.089932
30
0.0
11
0.082616
21
1.087052
31
0.0
0
LINE
8
TOP
10
0.082616
20
1.087052
30
0.0
11
0.081342
21
1.084030
31
0.0
0
LINE
8
TOP
10
0.081342
20
1.084030
30
0.0
11
0.080376
21
1.080897
31
0.0
0
LINE
8
TOP
10
0.080376
20
1.080897
30
0.0
11
0.079726
21
1.077682
31
0.0
0
LINE
8
TOP
10
0.079726
20
1.077682
30
0.0
11
0.079399
21
1.074419
31
0.0
0
LINE
8
TOP
10
0.079399
20
1.074419
30
0.0
11
0.079399
21
1.071140
31
0.0
0
LINE
8
TOP
10
0.079399
20
1.071140
30
0.0
11
0.079726
21
1.067877
31
0.0
0
LINE
8
TOP
10
0.079726
20
1.067877
30
0.0
11
0.080376
21
1.064663
31
0.0
0
LINE
8
TOP
10
0.080376
20
1.064663
30
0.0
11
0.081342
21
1.061529
31
0.0
0
LINE
8
TOP
10
0.081342
20
1.061529
30
0.0
11
0.082616
21
1.058507
31
0.0
0
LINE
8
TOP
10
0.082616
20
1.058507
30
0.0
11
0.084185
21
1.055627
31
0.0
0
LINE
8
TOP
10
0.084185
20
1.055627
30
0.0
11
0.086032
21
1.052918
31
0.0
0
LINE
8
TOP
10
0.086032
20
1.052918
30
0.0
11
0.088140
21
1.050406
31
0.0
0
LINE
8
TOP
10
0.088140
20
1.050406
30
0.0
11
0.090487
21
1.048116
31
0.0
0
LINE
8
TOP
10
0.090487
20
1.048116
30
0.0
11
0.093051
21
1.046071
31
0.0
0
LINE
8
TOP
10
0.093051
20
1.046071
30
0.0
11
0.095806
21
1.044292
31
0.0
0
LINE
8
TOP
10
0.095806
20
1.044292
30
0.0
11
0.098724
21
1.042796
31
0.0
0
LINE
8
TOP
10
0.098724
20
1.042796
30
0.0
11
0.101777
21
1.041598
31
0.0
0
LINE
8
TOP
10
0.101777
20
1.041598
30
0.0
11
0.104934
21
1.040710
31
0.0
0
LINE
8
TOP
10
0.104934
20
1.040710
30
0.0
11
0.108163
21
1.040140
31
0.0
0
LINE
8
TOP
10
0.108163
20
1.040140
30
0.0
11
0.111433
21
1.039895
31
0.0
0
LINE
8
TOP
10
0.111433
20
1.039895
30
0.0
11
0.114712
21
1.039977
31
0.0
0
LINE
8
TOP
10
0.114712
20
1.039977
30
0.0
11
0.117965
21
1.040385
31
0.0
0
LINE
8
TOP
10
0.117965
20
1.040385
30
0.0
11
0.121163
21
1.041114
31
0.0
0
LINE
8
TOP
10
0.121163
20
1.041114
30
0.0
11
0.124271
21
1.042159
31
0.0
0
LINE
8
TOP
10
0.124271
20
1.042159
30
0.0
11
0.127260
21
1.043508
31
0.0
0
LINE
8
TOP
10
0.127260
20
1.043508
30
0.0
11
0.130100
21
1.045147
31
0.0
0
LINE
8
TOP
10
0.130100
20
1.045147
30
0.0
11
0.132763
21
1.047061
31
0.0
0
LINE
8
TOP
10
0.132763
20
1.047061
30
0.0
11
0.135222
21
1.049231
31
0.0
0
LINE
8
TOP
10
0.135222
20
1.049231
30
0.0
11
0.137452
21
1.051635
31
0.0
0
LINE
8
TOP
10
0.137452
20
1.051635
30
0.0
11
0.139432
21
1.054249
31
0.0
0
LINE
8
TOP
10
0.139432
20
1.054249
30
0.0
11
0.141142
21
1.057048
31
0.0
0
LINE
8
TOP
10
0.141142
20
1.057048
30
0.0
11
0.142565
21
1.060002
31
0.0
0
LINE
8
TOP
10
0.142565
20
1.060002
30
0.0
11
0.143687
21
1.063084
31
0.0
0
LINE
8
TOP
10
0.143687
20
1.063084
30
0.0
11
0.144496
21
1.066262
31
0.0
0
LINE
8
TOP
10
0.144496
20
1.066262
30
0.0
11
0.144985
21
1.069504
31
0.0
0
LINE
8
TOP
10
0.144985
20
1.069504
30
0.0
11
0.145148
21
1.072780
31
0.0
0
LINE
8
TOP
10
0.811266
20
1.081003
30
0.0
11
0.811103
21
1.084279
31
0.0
0
LINE
8
TOP
10
0.811103
20
1.084279
30
0.0
11
0.810614
21
1.087521
31
0.0
0
LINE
8
TOP
10
0.810614
20
1.087521
30
0.0
11
0.809805
21
1.090699
31
0.0
0
LINE
8
TOP
10
0.809805
20
1.090699
30
0.0
11
0.808683
21
1.093781
31
0.0
0
LINE
8
TOP
10
0.808683
20
1.093781
30
0.0
11
0.807261
21
1.096735
31
0.0
0
LINE
8
TOP
10
0.807261
20
1.096735
30
0.0
11
0.805551
21
1.099534
31
0.0
0
LINE
8
TOP
10
0.805551
20
1.099534
30
0.0
11
0.803571
21
1.102148
31
0.0
0
LINE
8
TOP
10
0.803571
20
1.102148
30
0.0
11
0.801340
21
1.104552
31
0.0
0
LINE
8
TOP
10
0.801340
20
1.104552
30
0.0
11
0.798881
21
1.106721
31
0.0
0
LINE
8
TOP
10
0.798881
20
1.106721
30
0.0
11
0.796219
21
1.108636
31
0.0
0
LINE
8
TOP
10
0.796219
20
1.108636
30
0.0
11
0.793379
21
1.110275
31
0.0
0
LINE
8
TOP
10
0.793379
20
1.110275
30
0.0
11
0.790390
21
1.111624
31
0.0
0
LINE
8
TOP
10
0.790390
20
1.111624
30
0.0
11
0.787281
21
1.112669
31
0.0
0
LINE
8
TOP
10
0.787281
20
1.112669
30
0.0
11
0.784084
21
1.113398
31
0.0
0
LINE
8
TOP
10
0.784084
20
1.113398
30
0.0
11
0.780830
21
1.113806
31
0.0
0
LINE
8
TOP
10
0.780830
20
1.113806
30
0.0
11
0.777552
21
1.113888
31
0.0
0
LINE
8
TOP
10
0.777552
20
1.113888
30
0.0
11
0.774281
21
1.113643
31
0.0
0
LINE
8
TOP
10
0.774281
20
1.113643
30
0.0
11
0.771052
21
1.113073
31
0.0
0
LINE
8
TOP
10
0.771052
20
1.113073
30
0.0
11
0.767895
21
1.112185
31
0.0
0
LINE
8
TOP
10
0.767895
20
1.112185
30
0.0
11
0.764843
21
1.110987
31
0.0
0
LINE
8
TOP
10
0.764843
20
1.110987
30
0.0
11
0.761924
21
1.109491
31
0.0
0
LINE
8
TOP
10
0.761924
20
1.109491
30
0.0
11
0.759170
21
1.107712
31
0.0
0
LINE
8
TOP
10
0.759170
20
1.107712
30
0.0
11
0.756606
21
1.105667
31
0.0
0
LINE
8
TOP
10
0.756606
20
1.105667
30
0.0
11
0.754258
21
1.103377
31
0.0
0
LINE
8
TOP
10
0.754258
20
1.103377
30
0.0
11
0.752150
21
1.100865
31
0.0
0
LINE
8
TOP
10
0.752150
20
1.100865
30
0.0
11
0.750303
21
1.098156
31
0.0
0
LINE
8
TOP
10
0.750303
20
1.098156
30
0.0
11
0.748735
21
1.095276
31
0.0
0
LINE
8
TOP
10
0.748735
20
1.095276
30
0.0
11
0.747461
21
1.092254
31
0.0
0
LINE
8
TOP
10
0.747461
20
1.092254
30
0.0
11
0.746494
21
1.089120
31
0.0
0
LINE
8
TOP
10
0.746494
20
1.089120
30
0.0
11
0.745844
21
1.085906
31
0.0
0
LINE
8
TOP
10
0.745844
20
1.085906
30
0.0
11
0.745518
21
1.082643
31
0.0
0
LINE
8
TOP
10
0.745518
20
1.082643
30
0.0
11
0.745518
21
1.079364
31
0.0
0
LINE
8
TOP
10
0.745518
20
1.079364
30
0.0
11
0.745844
21
1.076101
31
0.0
0
LINE
8
TOP
10
0.745844
20
1.076101
30
0.0
11
0.746494
21
1.072886
31
0.0
0
LINE
8
TOP
10
0.746494
20
1.072886
30
0.0
11
0.747461
21
1.069753
31
0.0
0
LINE
8
TOP
10
0.747461
20
1.069753
30
0.0
11
0.748735
21
1.066731
31
0.0
0
LINE
8
TOP
10
0.748735
20
1.066731
30
0.0
11
0.750303
21
1.063851
31
0.0
0
LINE
8
TOP
10
0.750303
20
1.063851
30
0.0
11
0.752150
21
1.061141
31
0.0
0
LINE
8
TOP
10
0.752150
20
1.061141
30
0.0
11
0.754258
21
1.058629
31
0.0
0
LINE
8
TOP
10
0.754258
20
1.058629
30
0.0
11
0.756606
21
1.056339
31
0.0
0
LINE
8
TOP
10
0.756606
20
1.056339
30
0.0
11
0.759170
21
1.054295
31
0.0
0
LINE
8
TOP
10
0.759170
20
1.054295
30
0.0
11
0.761924
21
1.052516
31
0.0
0
LINE
8
TOP
10
0.761924
20
1.052516
30
0.0
11
0.764843
21
1.051020
31
0.0
0
LINE
8
TOP
10
0.764843
20
1.051020
30
0.0
11
0.767895
21
1.049821
31
0.0
0
LINE
8
TOP
10
0.767895
20
1.049821
30
0.0
11
0.771052
21
1.048933
31
0.0
0
LINE
8
TOP
10
0.771052
20
1.048933
30
0.0
11
0.774281
21
1.048364
31
0.0
0
LINE
8
TOP
10
0.774281
20
1.048364
30
0.0
11
0.777552
21
1.048119
31
0.0
0
LINE
8
TOP
10
0.777552
20
1.048119
30
0.0
11
0.780830
21
1.048201
31
0.0
0
LINE
8
TOP
10
0.780830
20
1.048201
30
0.0
11
0.784084
21
1.048608
31
0.0
0
LINE
8
TOP
10
0.784084
20
1.048608
30
0.0
11
0.787281
21
1.049338
31
0.0
0
LINE
8
TOP
10
0.787281
20
1.049338
30
0.0
11
0.790390
21
1.050382
31
0.0
0
LINE
8
TOP
10
0.790390
20
1.050382
30
0.0
11
0.793379
21
1.051731
31
0.0
0
LINE
8
TOP
10
0.793379
20
1.051731
30
0.0
11
0.796219
21
1.053371
31
0.0
0
LINE
8
TOP
10
0.796219
20
1.053371
30
0.0
11
0.798881
21
1.055285
31
0.0
0
LINE
8
TOP
10
0.798881
20
1.055285
30
0.0
11
0.801340
21
1.057455
31
0.0
0
LINE
8
TOP
10
0.801340
20
1.057455
30
0.0
11
0.803571
21
1.059859
31
0.0
0
LINE
8
TOP
10
0.803571
20
1.059859
30
0.0
11
0.805551
21
1.062473
31
0.0
0
LINE
8
TOP
10
0.805551
20
1.062473
30
0.0
11
0.807261
21
1.065271
31
0.0
0
LINE
8
TOP
10
0.807261
20
1.065271
30
0.0
11
0.808683
21
1.068226
31
0.0
0
LINE
8
TOP
10
0.808683
20
1.068226
30
0.0
11
0.809805
21
1.071307
31
0.0
0
LINE
8
TOP
10
0.809805
20
1.071307
30
0.0
11
0.810614
21
1.074485
31
0.0
0
LINE
8
TOP
10
0.810614
20
1.074485
30
0.0
11
0.811103
21
1.077728
31
0.0
0
LINE
8
TOP
10
0.811103
20
1.077728
30
0.0
11
0.811266
21
1.081003
31
0.0
0
LINE
8
TOP
10
0.835938
20
0.492188
30
0.0
11
0.890214
21
0.492188
31
0.0
0
LINE
8
TOP
10
0.890214
20
0.492188
30
0.0
11
0.890214
21
1.007812
31
0.0
0
LINE
8
TOP
10
0.890214
20
1.007812
30
0.0
11
0.835938
21
1.007812
31
0.0
0
LINE
8
TOP
10
0.289062
20
0.357319
30
0.0
11
0.289062
21
0.000000
31
0.0
0
LINE
8
TOP
10
0.610609
20
0.000000
30
0.0
11
0.610609
21
0.357319
31
0.0
0
LINE
8
TOP
10
0.289062
20
0.000000
30
0.0
11
0.610609
21
0.000000
31
0.0
0
LINE
8
TOP
10
0.000000
20
0.492188
30
0.0
11
0.054276
21
0.492188
31
0.0
0
LINE
8
TOP
10
0.054276
20
0.492188
30
0.0
11
0.054276
21
1.007812
31
0.0
0
LINE
8
TOP
10
0.054276
20
1.007812
30
0.0
11
0.000000
21
1.007812
31
0.0
0
LINE
8
TOP
10
0.000000
20
1.007812
30
0.0
11
0.000000
21
0.492188
31
0.0
0
ENDSEC
0
EOF
