0
SECTION
2
HEADER
9
$ACADVER
1
AC1009
0
ENDSEC
0
SECTION
2
TABLES
0
TABLE
2
LTYPE
70
3
0
LTYPE
2
CONTINUOUS
70
0
3
Solid line
72
65
73
0
40
0.0
0
LTYPE
2
HIDDEN
70
0
3
__ __ __ __ __
72
65
73
2
40
0.037500
49
0.025013
49
-0.012488
0
LTYPE
2
CENTER
70
0
3
___ _ ___ _ ___
72
65
73
4
40
0.087488
49
0.049988
49
-0.012488
49
0.012488
49
-0.012488
0
ENDTAB
0
TABLE
2
LAYER
70
5
0
LAYER
2
0
70
0
62
7
6
CONTINUOUS
0
LAYER
2
FRONT
70
0
62
7
6
CONTINUOUS
0
LAYER
2
LEFT
70
0
62
7
6
CONTINUOUS
0
LAYER
2
LEFT_HID
70
0
62
7
6
HIDDEN
0
LAYER
2
TOP
70
0
62
7
6
CONTINUOUS
0
ENDTAB
0
ENDSEC
0
SECTION
2
ENTITIES
0
LINE
8
FRONT
10
0.300000
20
0.449907
30
0.0
11
0.000000
21
0.449907
31
0.0
0
LINE
8
FRONT
10
0.300000
20
0.449907
30
0.0
11
0.300000
21
1.199907
31
0.0
0
LINE
8
FRONT
10
0.300000
20
1.199907
30
0.0
11
0.000000
21
1.199907
31
0.0
0
LINE
8
FRONT
10
0.000000
20
1.199907
30
0.0
11
0.000000
21
0.449907
31
0.0
0
LINE
8
LEFT
10
0.450000
20
0.449907
30
0.0
11
0.750000
21
0.449907
31
0.0
0
LINE
8
LEFT
10
0.450000
20
1.199907
30
0.0
11
0.750000
21
1.199907
31
0.0
0
LINE
8
LEFT
10
0.450000
20
1.199907
30
0.0
11
0.450000
21
0.449907
31
0.0
0
LINE
8
LEFT
10
0.750000
20
1.199907
30
0.0
11
0.750000
21
0.449907
31
0.0
0
LINE
8
LEFT_HID
6
HIDDEN
10
0.600000
20
0.449907
30
0.0
11
0.450000
21
0.449907
31
0.0
0
LINE
8
LEFT_HID
6
HIDDEN
10
0.750000
20
0.449907
30
0.0
11
0.600000
21
0.449907
31
0.0
0
LINE
8
LEFT_HID
6
HIDDEN
10
0.600000
20
1.199907
30
0.0
11
0.450000
21
1.199907
31
0.0
0
LINE
8
LEFT_HID
6
HIDDEN
10
0.750000
20
1.199907
30
0.0
11
0.600000
21
1.199907
31
0.0
0
LINE
8
TOP
10
0.299814
20
0.149953
30
0.0
11
0.299068
21
0.164889
31
0.0
0
LINE
8
TOP
10
0.299068
20
0.164889
30
0.0
11
0.296839
21
0.179675
31
0.0
0
LINE
8
TOP
10
0.296839
20
0.179675
30
0.0
11
0.293149
21
0.194167
31
0.0
0
LINE
8
TOP
10
0.293149
20
0.194167
30
0.0
11
0.288035
21
0.208219
31
0.0
0
LINE
8
TOP
10
0.288035
20
0.208219
30
0.0
11
0.281547
21
0.221691
31
0.0
0
LINE
8
TOP
10
0.281547
20
0.221691
30
0.0
11
0.273749
21
0.234451
31
0.0
0
LINE
8
TOP
10
0.273749
20
0.234451
30
0.0
11
0.264720
21
0.246372
31
0.0
0
LINE
8
TOP
10
0.264720
20
0.246372
30
0.0
11
0.254549
21
0.257333
31
0.0
0
LINE
8
TOP
10
0.254549
20
0.257333
30
0.0
11
0.243337
21
0.267228
31
0.0
0
LINE
8
TOP
10
0.243337
20
0.267228
30
0.0
11
0.231195
21
0.275957
31
0.0
0
LINE
8
TOP
10
0.231195
20
0.275957
30
0.0
11
0.218245
21
0.283434
31
0.0
0
LINE
8
TOP
10
0.218245
20
0.283434
30
0.0
11
0.204615
21
0.289584
31
0.0
0
LINE
8
TOP
10
0.204615
20
0.289584
30
0.0
11
0.190440
21
0.294347
31
0.0
0
LINE
8
TOP
10
0.190440
20
0.294347
30
0.0
11
0.175861
21
0.297675
31
0.0
0
LINE
8
TOP
10
0.175861
20
0.297675
30
0.0
11
0.161023
21
0.299534
31
0.0
0
LINE
8
TOP
10
0.161023
20
0.299534
30
0.0
11
0.146074
21
0.299907
31
0.0
0
LINE
8
TOP
10
0.146074
20
0.299907
30
0.0
11
0.131162
21
0.298789
31
0.0
0
LINE
8
TOP
10
0.131162
20
0.298789
30
0.0
11
0.116435
21
0.296193
31
0.0
0
LINE
8
TOP
10
0.116435
20
0.296193
30
0.0
11
0.102041
21
0.292142
31
0.0
0
LINE
8
TOP
10
0.102041
20
0.292142
30
0.0
11
0.088120
21
0.286679
31
0.0
0
LINE
8
TOP
10
0.088120
20
0.286679
30
0.0
11
0.074814
21
0.279857
31
0.0
0
LINE
8
TOP
10
0.074814
20
0.279857
30
0.0
11
0.062252
21
0.271744
31
0.0
0
LINE
8
TOP
10
0.062252
20
0.271744
30
0.0
11
0.050561
21
0.262421
31
0.0
0
LINE
8
TOP
10
0.050561
20
0.262421
30
0.0
11
0.039856
21
0.251979
31
0.0
0
LINE
8
TOP
10
0.039856
20
0.251979
30
0.0
11
0.030244
21
0.240524
31
0.0
0
LINE
8
TOP
10
0.030244
20
0.240524
30
0.0
11
0.021820
21
0.228169
31
0.0
0
LINE
8
TOP
10
0.021820
20
0.228169
30
0.0
11
0.014668
21
0.215036
31
0.0
0
LINE
8
TOP
10
0.014668
20
0.215036
30
0.0
11
0.008860
21
0.201256
31
0.0
0
LINE
8
TOP
10
0.008860
20
0.201256
30
0.0
11
0.004452
21
0.186967
31
0.0
0
LINE
8
TOP
10
0.004452
20
0.186967
30
0.0
11
0.001489
21
0.172310
31
0.0
0
LINE
8
TOP
10
0.001489
20
0.172310
30
0.0
11
0.000000
21
0.157430
31
0.0
0
LINE
8
TOP
10
0.000000
20
0.157430
30
0.0
11
0.000000
21
0.142476
31
0.0
0
LINE
8
TOP
10
0.000000
20
0.142476
30
0.0
11
0.001489
21
0.127597
31
0.0
0
LINE
8
TOP
10
0.001489
20
0.127597
30
0.0
11
0.004452
21
0.112940
31
0.0
0
LINE
8
TOP
10
0.004452
20
0.112940
30
0.0
11
0.008860
21
0.098650
31
0.0
0
LINE
8
TOP
10
0.008860
20
0.098650
30
0.0
11
0.014668
21
0.084871
31
0.0
0
LINE
8
TOP
10
0.014668
20
0.084871
30
0.0
11
0.021820
21
0.071738
31
0.0
0
LINE
8
TOP
10
0.021820
20
0.071738
30
0.0
11
0.030244
21
0.059383
31
0.0
0
LINE
8
TOP
10
0.030244
20
0.059383
30
0.0
11
0.039856
21
0.047927
31
0.0
0
LINE
8
TOP
10
0.039856
20
0.047927
30
0.0
11
0.050561
21
0.037486
31
0.0
0
LINE
8
TOP
10
0.050561
20
0.037486
30
0.0
11
0.062252
21
0.028163
31
0.0
0
LINE
8
TOP
10
0.062252
20
0.028163
30
0.0
11
0.074814
21
0.020050
31
0.0
0
LINE
8
TOP
10
0.074814
20
0.020050
30
0.0
11
0.088120
21
0.013227
31
0.0
0
LINE
8
TOP
10
0.088120
20
0.013227
30
0.0
11
0.102041
21
0.007764
31
0.0
0
LINE
8
TOP
10
0.102041
20
0.007764
30
0.0
11
0.116435
21
0.003714
31
0.0
0
LINE
8
TOP
10
0.116435
20
0.003714
30
0.0
11
0.131162
21
0.001117
31
0.0
0
LINE
8
TOP
10
0.131162
20
0.001117
30
0.0
11
0.146074
21
0.000000
31
0.0
0
LINE
8
TOP
10
0.146074
20
0.000000
30
0.0
11
0.161023
21
0.000373
31
0.0
0
LINE
8
TOP
10
0.161023
20
0.000373
30
0.0
11
0.175861
21
0.002232
31
0.0
0
LINE
8
TOP
10
0.175861
20
0.002232
30
0.0
11
0.190440
21
0.005560
31
0.0
0
LINE
8
TOP
10
0.190440
20
0.005560
30
0.0
11
0.204615
21
0.010322
31
0.0
0
LINE
8
TOP
10
0.204615
20
0.010322
30
0.0
11
0.218245
21
0.016473
31
0.0
0
LINE
8
TOP
10
0.218245
20
0.016473
30
0.0
11
0.231195
21
0.023949
31
0.0
0
LINE
8
TOP
10
0.231195
20
0.023949
30
0.0
11
0.243337
21
0.032679
31
0.0
0
LINE
8
TOP
10
0.243337
20
0.032679
30
0.0
11
0.254549
21
0.042573
31
0.0
0
LINE
8
TOP
10
0.254549
20
0.042573
30
0.0
11
0.264720
21
0.053535
31
0.0
0
LINE
8
TOP
10
0.264720
20
0.053535
30
0.0
11
0.273749
21
0.065455
31
0.0
0
LINE
8
TOP
10
0.273749
20
0.065455
30
0.0
11
0.281547
21
0.078215
31
0.0
0
LINE
8
TOP
10
0.281547
20
0.078215
30
0.0
11
0.288035
21
0.091688
31
0.0
0
LINE
8
TOP
10
0.288035
20
0.091688
30
0.0
11
0.293149
21
0.105740
31
0.0
0
LINE
8
TOP
10
0.293149
20
0.105740
30
0.0
11
0.296839
21
0.120231
31
0.0
0
LINE
8
TOP
10
0.296839
20
0.120231
30
0.0
11
0.299068
21
0.135018
31
0.0
0
LINE
8
TOP
10
0.299068
20
0.135018
30
0.0
11
0.299814
21
0.149953
31
0.0
0
ENDSEC
0
EOF
