0
SECTION
2
HEADER
9
$ACADVER
1
AC1009
0
ENDSEC
0
SECTION
2
TABLES
0
TABLE
2
LTYPE
70
3
0
LTYPE
2
CONTINUOUS
70
0
3
Solid line
72
65
73
0
40
0.0
0
LTYPE
2
HIDDEN
70
0
3
__ __ __ __ __
72
65
73
2
40
0.075000
49
0.050025
49
-0.024975
0
LTYPE
2
CENTER
70
0
3
___ _ ___ _ ___
72
65
73
4
40
0.174975
49
0.099975
49
-0.024975
49
0.024975
49
-0.024975
0
ENDTAB
0
TABLE
2
LAYER
70
6
0
LAYER
2
0
70
0
62
7
6
CONTINUOUS
0
LAYER
2
FRONT
70
0
62
7
6
CONTINUOUS
0
LAYER
2
FRONT_HID
70
0
62
7
6
HIDDEN
0
LAYER
2
LEFT
70
0
62
7
6
CONTINUOUS
0
LAYER
2
TOP
70
0
62
7
6
CONTINUOUS
0
LAYER
2
TOP_HID
70
0
62
7
6
HIDDEN
0
ENDTAB
0
ENDSEC
0
SECTION
2
ENTITIES
0
LINE
8
FRONT
10
0.000000
20
1.800000
30
0.0
11
0.031250
21
1.800000
31
0.0
0
LINE
8
FRONT
10
0.031250
20
1.800000
30
0.0
11
0.031250
21
1.831579
31
0.0
0
LINE
8
FRONT
10
0.000000
20
1.831579
30
0.0
11
0.031250
21
1.831579
31
0.0
0
LINE
8
FRONT
10
0.000000
20
1.800000
30
0.0
11
0.000000
21
1.831579
31
0.0
0
LINE
8
FRONT
10
0.031250
20
1.831579
30
0.0
11
0.031250
21
2.936842
31
0.0
0
LINE
8
FRONT
10
0.000000
20
2.936842
30
0.0
11
0.031250
21
2.936842
31
0.0
0
LINE
8
FRONT
10
0.000000
20
1.831579
30
0.0
11
0.000000
21
2.936842
31
0.0
0
LINE
8
FRONT_HID
6
HIDDEN
10
0.031250
20
1.800000
30
0.0
11
0.031250
21
1.942105
31
0.0
0
LINE
8
FRONT_HID
6
HIDDEN
10
0.000000
20
1.942105
30
0.0
11
0.031250
21
1.942105
31
0.0
0
LINE
8
FRONT_HID
6
HIDDEN
10
0.000000
20
1.800000
30
0.0
11
0.000000
21
1.942105
31
0.0
0
LINE
8
FRONT_HID
6
HIDDEN
10
0.000000
20
1.942105
30
0.0
11
0.031250
21
1.942105
31
0.0
0
LINE
8
FRONT_HID
6
HIDDEN
10
0.031250
20
1.942105
30
0.0
11
0.031250
21
1.800000
31
0.0
0
LINE
8
FRONT_HID
6
HIDDEN
10
0.000000
20
1.942105
30
0.0
11
0.000000
21
1.800000
31
0.0
0
LINE
8
FRONT_HID
6
HIDDEN
10
0.031250
20
2.936842
30
0.0
11
0.031250
21
2.084211
31
0.0
0
LINE
8
FRONT_HID
6
HIDDEN
10
0.000000
20
2.084211
30
0.0
11
0.031250
21
2.084211
31
0.0
0
LINE
8
FRONT_HID
6
HIDDEN
10
0.000000
20
2.936842
30
0.0
11
0.000000
21
2.084211
31
0.0
0
LINE
8
FRONT_HID
6
HIDDEN
10
0.031250
20
2.084211
30
0.0
11
0.031250
21
2.068421
31
0.0
0
LINE
8
FRONT_HID
6
HIDDEN
10
0.000000
20
2.068421
30
0.0
11
0.031250
21
2.068421
31
0.0
0
LINE
8
FRONT_HID
6
HIDDEN
10
0.000000
20
2.084211
30
0.0
11
0.000000
21
2.068421
31
0.0
0
LINE
8
FRONT_HID
6
HIDDEN
10
0.031250
20
2.068421
30
0.0
11
0.031250
21
2.036842
31
0.0
0
LINE
8
FRONT_HID
6
HIDDEN
10
0.000000
20
2.036842
30
0.0
11
0.031250
21
2.036842
31
0.0
0
LINE
8
FRONT_HID
6
HIDDEN
10
0.000000
20
2.068421
30
0.0
11
0.000000
21
2.036842
31
0.0
0
LINE
8
FRONT_HID
6
HIDDEN
10
0.031250
20
2.036842
30
0.0
11
0.031250
21
2.052632
31
0.0
0
LINE
8
FRONT_HID
6
HIDDEN
10
0.000000
20
2.052632
30
0.0
11
0.031250
21
2.052632
31
0.0
0
LINE
8
FRONT_HID
6
HIDDEN
10
0.000000
20
2.036842
30
0.0
11
0.000000
21
2.052632
31
0.0
0
LINE
8
FRONT_HID
6
HIDDEN
10
0.031250
20
2.052632
30
0.0
11
0.031250
21
2.194737
31
0.0
0
LINE
8
FRONT_HID
6
HIDDEN
10
0.000000
20
2.194737
30
0.0
11
0.031250
21
2.194737
31
0.0
0
LINE
8
FRONT_HID
6
HIDDEN
10
0.000000
20
2.052632
30
0.0
11
0.000000
21
2.194737
31
0.0
0
LINE
8
FRONT_HID
6
HIDDEN
10
0.031250
20
2.194737
30
0.0
11
0.031250
21
1.800000
31
0.0
0
LINE
8
FRONT_HID
6
HIDDEN
10
0.000000
20
2.194737
30
0.0
11
0.000000
21
1.800000
31
0.0
0
LINE
8
LEFT
10
1.831250
20
1.800000
30
0.0
11
1.499671
21
1.800000
31
0.0
0
LINE
8
LEFT
10
1.499671
20
1.800000
30
0.0
11
1.404934
21
1.942105
31
0.0
0
LINE
8
LEFT
10
1.404934
20
1.942105
30
0.0
11
0.725987
21
1.942105
31
0.0
0
LINE
8
LEFT
10
0.725987
20
1.942105
30
0.0
11
0.662829
21
1.800000
31
0.0
0
LINE
8
LEFT
10
0.662829
20
1.800000
30
0.0
11
0.331250
21
1.800000
31
0.0
0
LINE
8
LEFT
10
0.331250
20
1.800000
30
0.0
11
0.331250
21
1.831579
31
0.0
0
LINE
8
LEFT
10
0.331250
20
1.831579
30
0.0
11
0.425987
21
2.936842
31
0.0
0
LINE
8
LEFT
10
0.425987
20
2.936842
30
0.0
11
0.473355
21
2.936842
31
0.0
0
LINE
8
LEFT
10
0.473355
20
2.936842
30
0.0
11
0.583882
21
2.084211
31
0.0
0
LINE
8
LEFT
10
0.583882
20
2.084211
30
0.0
11
0.504934
21
2.068421
31
0.0
0
LINE
8
LEFT
10
0.504934
20
2.068421
30
0.0
11
0.504934
21
2.036842
31
0.0
0
LINE
8
LEFT
10
0.504934
20
2.036842
30
0.0
11
0.599671
21
2.052632
31
0.0
0
LINE
8
LEFT
10
0.599671
20
2.052632
30
0.0
11
1.689145
21
2.194737
31
0.0
0
LINE
8
LEFT
10
1.689145
20
2.194737
30
0.0
11
1.831250
21
1.800000
31
0.0
0
LINE
8
TOP
10
0.000000
20
0.000000
30
0.0
11
0.031250
21
0.000000
31
0.0
0
LINE
8
TOP
10
0.000000
20
1.500000
30
0.0
11
0.031250
21
1.500000
31
0.0
0
LINE
8
TOP
10
0.031250
20
1.500000
30
0.0
11
0.031250
21
1.405263
31
0.0
0
LINE
8
TOP
10
0.000000
20
1.405263
30
0.0
11
0.031250
21
1.405263
31
0.0
0
LINE
8
TOP
10
0.000000
20
1.500000
30
0.0
11
0.000000
21
1.405263
31
0.0
0
LINE
8
TOP
10
0.031250
20
1.405263
30
0.0
11
0.031250
21
1.357895
31
0.0
0
LINE
8
TOP
10
0.000000
20
1.357895
30
0.0
11
0.031250
21
1.357895
31
0.0
0
LINE
8
TOP
10
0.000000
20
1.405263
30
0.0
11
0.000000
21
1.357895
31
0.0
0
LINE
8
TOP
10
0.031250
20
1.357895
30
0.0
11
0.031250
21
1.247368
31
0.0
0
LINE
8
TOP
10
0.000000
20
1.247368
30
0.0
11
0.031250
21
1.247368
31
0.0
0
LINE
8
TOP
10
0.000000
20
1.357895
30
0.0
11
0.000000
21
1.247368
31
0.0
0
LINE
8
TOP
10
0.031250
20
1.247368
30
0.0
11
0.031250
21
1.231579
31
0.0
0
LINE
8
TOP
10
0.000000
20
1.231579
30
0.0
11
0.031250
21
1.231579
31
0.0
0
LINE
8
TOP
10
0.000000
20
1.247368
30
0.0
11
0.000000
21
1.231579
31
0.0
0
LINE
8
TOP
10
0.031250
20
1.231579
30
0.0
11
0.031250
21
0.142105
31
0.0
0
LINE
8
TOP
10
0.000000
20
0.142105
30
0.0
11
0.031250
21
0.142105
31
0.0
0
LINE
8
TOP
10
0.000000
20
1.231579
30
0.0
11
0.000000
21
0.142105
31
0.0
0
LINE
8
TOP
10
0.031250
20
0.142105
30
0.0
11
0.031250
21
0.000000
31
0.0
0
LINE
8
TOP
10
0.000000
20
0.142105
30
0.0
11
0.000000
21
0.000000
31
0.0
0
LINE
8
TOP_HID
6
HIDDEN
10
0.031250
20
0.000000
30
0.0
11
0.031250
21
0.331579
31
0.0
0
LINE
8
TOP_HID
6
HIDDEN
10
0.000000
20
0.331579
30
0.0
11
0.031250
21
0.331579
31
0.0
0
LINE
8
TOP_HID
6
HIDDEN
10
0.000000
20
0.000000
30
0.0
11
0.000000
21
0.331579
31
0.0
0
LINE
8
TOP_HID
6
HIDDEN
10
0.031250
20
0.331579
30
0.0
11
0.031250
21
0.426316
31
0.0
0
LINE
8
TOP_HID
6
HIDDEN
10
0.000000
20
0.426316
30
0.0
11
0.031250
21
0.426316
31
0.0
0
LINE
8
TOP_HID
6
HIDDEN
10
0.000000
20
0.331579
30
0.0
11
0.000000
21
0.426316
31
0.0
0
LINE
8
TOP_HID
6
HIDDEN
10
0.031250
20
0.426316
30
0.0
11
0.031250
21
1.105263
31
0.0
0
LINE
8
TOP_HID
6
HIDDEN
10
0.000000
20
1.105263
30
0.0
11
0.031250
21
1.105263
31
0.0
0
LINE
8
TOP_HID
6
HIDDEN
10
0.000000
20
0.426316
30
0.0
11
0.000000
21
1.105263
31
0.0
0
LINE
8
TOP_HID
6
HIDDEN
10
0.031250
20
1.105263
30
0.0
11
0.031250
21
1.168421
31
0.0
0
LINE
8
TOP_HID
6
HIDDEN
10
0.000000
20
1.168421
30
0.0
11
0.031250
21
1.168421
31
0.0
0
LINE
8
TOP_HID
6
HIDDEN
10
0.000000
20
1.105263
30
0.0
11
0.000000
21
1.168421
31
0.0
0
LINE
8
TOP_HID
6
HIDDEN
10
0.031250
20
1.168421
30
0.0
11
0.031250
21
1.500000
31
0.0
0
LINE
8
TOP_HID
6
HIDDEN
10
0.000000
20
1.168421
30
0.0
11
0.000000
21
1.500000
31
0.0
0
LINE
8
TOP_HID
6
HIDDEN
10
0.031250
20
1.247368
30
0.0
11
0.031250
21
1.326316
31
0.0
0
LINE
8
TOP_HID
6
HIDDEN
10
0.000000
20
1.326316
30
0.0
11
0.031250
21
1.326316
31
0.0
0
LINE
8
TOP_HID
6
HIDDEN
10
0.000000
20
1.247368
30
0.0
11
0.000000
21
1.326316
31
0.0
0
LINE
8
TOP_HID
6
HIDDEN
10
0.000000
20
1.326316
30
0.0
11
0.031250
21
1.326316
31
0.0
0
LINE
8
TOP_HID
6
HIDDEN
10
0.031250
20
1.326316
30
0.0
11
0.031250
21
1.247368
31
0.0
0
LINE
8
TOP_HID
6
HIDDEN
10
0.000000
20
1.326316
30
0.0
11
0.000000
21
1.247368
31
0.0
0
ENDSEC
0
EOF
