0
SECTION
2
HEADER
9
$ACADVER
1
AC1009
0
ENDSEC
0
SECTION
2
TABLES
0
TABLE
2
LTYPE
70
3
0
LTYPE
2
CONTINUOUS
70
0
3
Solid line
72
65
73
0
40
0.0
0
LTYPE
2
HIDDEN
70
0
3
__ __ __ __ __
72
65
73
2
40
0.037632
49
0.025100
49
-0.012531
0
LTYPE
2
CENTER
70
0
3
___ _ ___ _ ___
72
65
73
4
40
0.087794
49
0.050163
49
-0.012531
49
0.012531
49
-0.012531
0
ENDTAB
0
TABLE
2
LAYER
70
6
0
LAYER
2
0
70
0
62
7
6
CONTINUOUS
0
LAYER
2
FRONT
70
0
62
7
6
CONTINUOUS
0
LAYER
2
FRONT_HID
70
0
62
7
6
HIDDEN
0
LAYER
2
LEFT
70
0
62
7
6
CONTINUOUS
0
LAYER
2
LEFT_HID
70
0
62
7
6
HIDDEN
0
LAYER
2
TOP
70
0
62
7
6
CONTINUOUS
0
ENDTAB
0
ENDSEC
0
SECTION
2
ENTITIES
0
LINE
8
FRONT
10
0.500000
20
0.903158
30
0.0
11
0.500000
21
1.028158
31
0.0
0
LINE
8
FRONT
10
0.500000
20
1.028158
30
0.0
11
0.000000
21
1.028158
31
0.0
0
LINE
8
FRONT
10
0.000000
20
0.903158
30
0.0
11
0.000000
21
1.028158
31
0.0
0
LINE
8
FRONT
10
0.500000
20
0.903158
30
0.0
11
0.000000
21
0.903158
31
0.0
0
LINE
8
FRONT_HID
6
HIDDEN
10
0.000000
20
1.028158
30
0.0
11
0.252632
21
1.028158
31
0.0
0
LINE
8
FRONT_HID
6
HIDDEN
10
0.252632
20
0.903158
30
0.0
11
0.252632
21
1.028158
31
0.0
0
LINE
8
FRONT_HID
6
HIDDEN
10
0.000000
20
0.903158
30
0.0
11
0.252632
21
0.903158
31
0.0
0
LINE
8
FRONT_HID
6
HIDDEN
10
0.252632
20
1.028158
30
0.0
11
0.500000
21
1.028158
31
0.0
0
LINE
8
FRONT_HID
6
HIDDEN
10
0.252632
20
0.903158
30
0.0
11
0.500000
21
0.903158
31
0.0
0
LINE
8
LEFT
10
1.150526
20
0.903158
30
0.0
11
1.150526
21
1.028158
31
0.0
0
LINE
8
LEFT
10
1.150526
20
1.028158
30
0.0
11
1.403158
21
1.028158
31
0.0
0
LINE
8
LEFT
10
1.403158
20
0.903158
30
0.0
11
1.403158
21
1.028158
31
0.0
0
LINE
8
LEFT
10
1.150526
20
0.903158
30
0.0
11
1.403158
21
0.903158
31
0.0
0
LINE
8
LEFT
10
0.650526
20
0.903158
30
0.0
11
0.650526
21
1.028158
31
0.0
0
LINE
8
LEFT
10
0.650526
20
1.028158
30
0.0
11
1.150526
21
1.028158
31
0.0
0
LINE
8
LEFT
10
0.650526
20
0.903158
30
0.0
11
1.150526
21
0.903158
31
0.0
0
LINE
8
LEFT_HID
6
HIDDEN
10
1.403158
20
1.028158
30
0.0
11
0.650526
21
1.028158
31
0.0
0
LINE
8
LEFT_HID
6
HIDDEN
10
1.403158
20
0.903158
30
0.0
11
0.650526
21
0.903158
31
0.0
0
LINE
8
TOP
10
0.000000
20
0.252632
30
0.0
11
0.006298
21
0.252553
31
0.0
0
LINE
8
TOP
10
0.006298
20
0.252553
30
0.0
11
0.012593
21
0.252318
31
0.0
0
LINE
8
TOP
10
0.012593
20
0.252318
30
0.0
11
0.018879
21
0.251925
31
0.0
0
LINE
8
TOP
10
0.018879
20
0.251925
30
0.0
11
0.025154
21
0.251376
31
0.0
0
LINE
8
TOP
10
0.025154
20
0.251376
30
0.0
11
0.031413
21
0.250671
31
0.0
0
LINE
8
TOP
10
0.031413
20
0.250671
30
0.0
11
0.037653
21
0.249810
31
0.0
0
LINE
8
TOP
10
0.037653
20
0.249810
30
0.0
11
0.043869
21
0.248794
31
0.0
0
LINE
8
TOP
10
0.043869
20
0.248794
30
0.0
11
0.050058
21
0.247623
31
0.0
0
LINE
8
TOP
10
0.050058
20
0.247623
30
0.0
11
0.056216
21
0.246298
31
0.0
0
LINE
8
TOP
10
0.056216
20
0.246298
30
0.0
11
0.062339
21
0.244820
31
0.0
0
LINE
8
TOP
10
0.062339
20
0.244820
30
0.0
11
0.068423
21
0.243189
31
0.0
0
LINE
8
TOP
10
0.068423
20
0.243189
30
0.0
11
0.074464
21
0.241408
31
0.0
0
LINE
8
TOP
10
0.074464
20
0.241408
30
0.0
11
0.080460
21
0.239476
31
0.0
0
LINE
8
TOP
10
0.080460
20
0.239476
30
0.0
11
0.086405
21
0.237396
31
0.0
0
LINE
8
TOP
10
0.086405
20
0.237396
30
0.0
11
0.092297
21
0.235168
31
0.0
0
LINE
8
TOP
10
0.092297
20
0.235168
30
0.0
11
0.098131
21
0.232794
31
0.0
0
LINE
8
TOP
10
0.098131
20
0.232794
30
0.0
11
0.103904
21
0.230275
31
0.0
0
LINE
8
TOP
10
0.103904
20
0.230275
30
0.0
11
0.109613
21
0.227613
31
0.0
0
LINE
8
TOP
10
0.109613
20
0.227613
30
0.0
11
0.115253
21
0.224810
31
0.0
0
LINE
8
TOP
10
0.115253
20
0.224810
30
0.0
11
0.120822
21
0.221867
31
0.0
0
LINE
8
TOP
10
0.120822
20
0.221867
30
0.0
11
0.126316
21
0.218785
31
0.0
0
LINE
8
TOP
10
0.126316
20
0.218785
30
0.0
11
0.131731
21
0.215568
31
0.0
0
LINE
8
TOP
10
0.131731
20
0.215568
30
0.0
11
0.137064
21
0.212217
31
0.0
0
LINE
8
TOP
10
0.137064
20
0.212217
30
0.0
11
0.142312
21
0.208734
31
0.0
0
LINE
8
TOP
10
0.142312
20
0.208734
30
0.0
11
0.147472
21
0.205121
31
0.0
0
LINE
8
TOP
10
0.147472
20
0.205121
30
0.0
11
0.152540
21
0.201381
31
0.0
0
LINE
8
TOP
10
0.152540
20
0.201381
30
0.0
11
0.157513
21
0.197515
31
0.0
0
LINE
8
TOP
10
0.157513
20
0.197515
30
0.0
11
0.162388
21
0.193527
31
0.0
0
LINE
8
TOP
10
0.162388
20
0.193527
30
0.0
11
0.167163
21
0.189418
31
0.0
0
LINE
8
TOP
10
0.167163
20
0.189418
30
0.0
11
0.171833
21
0.185192
31
0.0
0
LINE
8
TOP
10
0.171833
20
0.185192
30
0.0
11
0.176397
21
0.180851
31
0.0
0
LINE
8
TOP
10
0.176397
20
0.180851
30
0.0
11
0.180851
21
0.176397
31
0.0
0
LINE
8
TOP
10
0.180851
20
0.176397
30
0.0
11
0.185192
21
0.171833
31
0.0
0
LINE
8
TOP
10
0.185192
20
0.171833
30
0.0
11
0.189418
21
0.167163
31
0.0
0
LINE
8
TOP
10
0.189418
20
0.167163
30
0.0
11
0.193527
21
0.162388
31
0.0
0
LINE
8
TOP
10
0.193527
20
0.162388
30
0.0
11
0.197515
21
0.157513
31
0.0
0
LINE
8
TOP
10
0.197515
20
0.157513
30
0.0
11
0.201381
21
0.152540
31
0.0
0
LINE
8
TOP
10
0.201381
20
0.152540
30
0.0
11
0.205121
21
0.147472
31
0.0
0
LINE
8
TOP
10
0.205121
20
0.147472
30
0.0
11
0.208734
21
0.142312
31
0.0
0
LINE
8
TOP
10
0.208734
20
0.142312
30
0.0
11
0.212217
21
0.137064
31
0.0
0
LINE
8
TOP
10
0.212217
20
0.137064
30
0.0
11
0.215568
21
0.131731
31
0.0
0
LINE
8
TOP
10
0.215568
20
0.131731
30
0.0
11
0.218785
21
0.126316
31
0.0
0
LINE
8
TOP
10
0.218785
20
0.126316
30
0.0
11
0.221867
21
0.120822
31
0.0
0
LINE
8
TOP
10
0.221867
20
0.120822
30
0.0
11
0.224810
21
0.115253
31
0.0
0
LINE
8
TOP
10
0.224810
20
0.115253
30
0.0
11
0.227613
21
0.109613
31
0.0
0
LINE
8
TOP
10
0.227613
20
0.109613
30
0.0
11
0.230275
21
0.103904
31
0.0
0
LINE
8
TOP
10
0.230275
20
0.103904
30
0.0
11
0.232794
21
0.098131
31
0.0
0
LINE
8
TOP
10
0.232794
20
0.098131
30
0.0
11
0.235168
21
0.092297
31
0.0
0
LINE
8
TOP
10
0.235168
20
0.092297
30
0.0
11
0.237396
21
0.086405
31
0.0
0
LINE
8
TOP
10
0.237396
20
0.086405
30
0.0
11
0.239476
21
0.080460
31
0.0
0
LINE
8
TOP
10
0.239476
20
0.080460
30
0.0
11
0.241408
21
0.074464
31
0.0
0
LINE
8
TOP
10
0.241408
20
0.074464
30
0.0
11
0.243189
21
0.068423
31
0.0
0
LINE
8
TOP
10
0.243189
20
0.068423
30
0.0
11
0.244820
21
0.062339
31
0.0
0
LINE
8
TOP
10
0.244820
20
0.062339
30
0.0
11
0.246298
21
0.056216
31
0.0
0
LINE
8
TOP
10
0.246298
20
0.056216
30
0.0
11
0.247623
21
0.050058
31
0.0
0
LINE
8
TOP
10
0.247623
20
0.050058
30
0.0
11
0.248794
21
0.043869
31
0.0
0
LINE
8
TOP
10
0.248794
20
0.043869
30
0.0
11
0.249810
21
0.037653
31
0.0
0
LINE
8
TOP
10
0.249810
20
0.037653
30
0.0
11
0.250671
21
0.031413
31
0.0
0
LINE
8
TOP
10
0.250671
20
0.031413
30
0.0
11
0.251376
21
0.025154
31
0.0
0
LINE
8
TOP
10
0.251376
20
0.025154
30
0.0
11
0.251925
21
0.018879
31
0.0
0
LINE
8
TOP
10
0.251925
20
0.018879
30
0.0
11
0.252318
21
0.012593
31
0.0
0
LINE
8
TOP
10
0.252318
20
0.012593
30
0.0
11
0.252553
21
0.006298
31
0.0
0
LINE
8
TOP
10
0.252553
20
0.006298
30
0.0
11
0.252632
21
0.000000
31
0.0
0
LINE
8
TOP
10
0.252632
20
0.000000
30
0.0
11
0.500000
21
0.000000
31
0.0
0
LINE
8
TOP
10
0.500000
20
0.000000
30
0.0
11
0.500000
21
0.752632
31
0.0
0
LINE
8
TOP
10
0.500000
20
0.752632
30
0.0
11
0.000000
21
0.752632
31
0.0
0
LINE
8
TOP
10
0.000000
20
0.752632
30
0.0
11
0.000000
21
0.252632
31
0.0
0
ENDSEC
0
EOF
