0
SECTION
2
HEADER
9
$ACADVER
1
AC1009
0
ENDSEC
0
SECTION
2
TABLES
0
TABLE
2
LTYPE
70
3
0
LTYPE
2
CONTINUOUS
70
0
3
Solid line
72
65
73
0
40
0.0
0
LTYPE
2
HIDDEN
70
0
3
__ __ __ __ __
72
65
73
2
40
0.041053
49
0.027382
49
-0.013671
0
LTYPE
2
CENTER
70
0
3
___ _ ___ _ ___
72
65
73
4
40
0.095776
49
0.054723
49
-0.013671
49
0.013671
49
-0.013671
0
ENDTAB
0
TABLE
2
LAYER
70
6
0
LAYER
2
0
70
0
62
7
6
CONTINUOUS
0
LAYER
2
FRONT
70
0
62
7
6
CONTINUOUS
0
LAYER
2
FRONT_HID
70
0
62
7
6
HIDDEN
0
LAYER
2
LEFT
70
0
62
7
6
CONTINUOUS
0
LAYER
2
LEFT_HID
70
0
62
7
6
HIDDEN
0
LAYER
2
TOP
70
0
62
7
6
CONTINUOUS
0
ENDTAB
0
ENDSEC
0
SECTION
2
ENTITIES
0
LINE
8
FRONT
10
0.821053
20
0.985008
30
0.0
11
0.000000
21
0.985008
31
0.0
0
LINE
8
FRONT
10
0.821053
20
0.985008
30
0.0
11
0.821053
21
1.735008
31
0.0
0
LINE
8
FRONT
10
0.821053
20
1.735008
30
0.0
11
0.000000
21
1.735008
31
0.0
0
LINE
8
FRONT
10
0.000000
20
1.735008
30
0.0
11
0.000000
21
0.985008
31
0.0
0
LINE
8
FRONT_HID
6
HIDDEN
10
0.684211
20
0.985008
30
0.0
11
0.136842
21
0.985008
31
0.0
0
LINE
8
FRONT_HID
6
HIDDEN
10
0.136842
20
0.985008
30
0.0
11
0.684211
21
0.985008
31
0.0
0
LINE
8
FRONT_HID
6
HIDDEN
10
0.684211
20
0.985008
30
0.0
11
0.684211
21
1.735008
31
0.0
0
LINE
8
FRONT_HID
6
HIDDEN
10
0.684211
20
1.735008
30
0.0
11
0.136842
21
1.735008
31
0.0
0
LINE
8
FRONT_HID
6
HIDDEN
10
0.136842
20
1.735008
30
0.0
11
0.684211
21
1.735008
31
0.0
0
LINE
8
FRONT_HID
6
HIDDEN
10
0.136842
20
1.735008
30
0.0
11
0.136842
21
0.985008
31
0.0
0
LINE
8
LEFT
10
0.985263
20
0.985008
30
0.0
11
1.806316
21
0.985008
31
0.0
0
LINE
8
LEFT
10
0.985263
20
1.735008
30
0.0
11
1.806316
21
1.735008
31
0.0
0
LINE
8
LEFT
10
0.985263
20
1.735008
30
0.0
11
0.985263
21
0.985008
31
0.0
0
LINE
8
LEFT
10
1.806316
20
1.735008
30
0.0
11
1.806316
21
0.985008
31
0.0
0
LINE
8
LEFT_HID
6
HIDDEN
10
1.395789
20
0.985008
30
0.0
11
0.985263
21
0.985008
31
0.0
0
LINE
8
LEFT_HID
6
HIDDEN
10
1.806316
20
0.985008
30
0.0
11
1.395789
21
0.985008
31
0.0
0
LINE
8
LEFT_HID
6
HIDDEN
10
1.395789
20
1.735008
30
0.0
11
0.985263
21
1.735008
31
0.0
0
LINE
8
LEFT_HID
6
HIDDEN
10
1.806316
20
1.735008
30
0.0
11
1.395789
21
1.735008
31
0.0
0
LINE
8
LEFT_HID
6
HIDDEN
10
1.395789
20
0.985008
30
0.0
11
1.122105
21
0.985008
31
0.0
0
LINE
8
LEFT_HID
6
HIDDEN
10
1.122105
20
0.985008
30
0.0
11
1.669474
21
0.985008
31
0.0
0
LINE
8
LEFT_HID
6
HIDDEN
10
1.669474
20
0.985008
30
0.0
11
1.395789
21
0.985008
31
0.0
0
LINE
8
LEFT_HID
6
HIDDEN
10
1.395789
20
1.735008
30
0.0
11
1.122105
21
1.735008
31
0.0
0
LINE
8
LEFT_HID
6
HIDDEN
10
1.122105
20
1.735008
30
0.0
11
1.669474
21
1.735008
31
0.0
0
LINE
8
LEFT_HID
6
HIDDEN
10
1.669474
20
1.735008
30
0.0
11
1.395789
21
1.735008
31
0.0
0
LINE
8
LEFT_HID
6
HIDDEN
10
1.122105
20
1.735008
30
0.0
11
1.122105
21
0.985008
31
0.0
0
LINE
8
LEFT_HID
6
HIDDEN
10
1.669474
20
1.735008
30
0.0
11
1.669474
21
0.985008
31
0.0
0
LINE
8
TOP
10
0.820542
20
0.410399
30
0.0
11
0.818502
21
0.451274
31
0.0
0
LINE
8
TOP
10
0.818502
20
0.451274
30
0.0
11
0.812403
21
0.491743
31
0.0
0
LINE
8
TOP
10
0.812403
20
0.491743
30
0.0
11
0.802304
21
0.531403
31
0.0
0
LINE
8
TOP
10
0.802304
20
0.531403
30
0.0
11
0.788306
21
0.569861
31
0.0
0
LINE
8
TOP
10
0.788306
20
0.569861
30
0.0
11
0.770549
21
0.606735
31
0.0
0
LINE
8
TOP
10
0.770549
20
0.606735
30
0.0
11
0.749209
21
0.641656
31
0.0
0
LINE
8
TOP
10
0.749209
20
0.641656
30
0.0
11
0.724497
21
0.674280
31
0.0
0
LINE
8
TOP
10
0.724497
20
0.674280
30
0.0
11
0.696661
21
0.704281
31
0.0
0
LINE
8
TOP
10
0.696661
20
0.704281
30
0.0
11
0.665975
21
0.731361
31
0.0
0
LINE
8
TOP
10
0.665975
20
0.731361
30
0.0
11
0.632746
21
0.755251
31
0.0
0
LINE
8
TOP
10
0.632746
20
0.755251
30
0.0
11
0.597302
21
0.775715
31
0.0
0
LINE
8
TOP
10
0.597302
20
0.775715
30
0.0
11
0.559998
21
0.792547
31
0.0
0
LINE
8
TOP
10
0.559998
20
0.792547
30
0.0
11
0.521203
21
0.805581
31
0.0
0
LINE
8
TOP
10
0.521203
20
0.805581
30
0.0
11
0.481303
21
0.814688
31
0.0
0
LINE
8
TOP
10
0.481303
20
0.814688
30
0.0
11
0.440695
21
0.819777
31
0.0
0
LINE
8
TOP
10
0.440695
20
0.819777
30
0.0
11
0.399781
21
0.820797
31
0.0
0
LINE
8
TOP
10
0.399781
20
0.820797
30
0.0
11
0.358970
21
0.817739
31
0.0
0
LINE
8
TOP
10
0.358970
20
0.817739
30
0.0
11
0.318665
21
0.810632
31
0.0
0
LINE
8
TOP
10
0.318665
20
0.810632
30
0.0
11
0.279269
21
0.799548
31
0.0
0
LINE
8
TOP
10
0.279269
20
0.799548
30
0.0
11
0.241172
21
0.784596
31
0.0
0
LINE
8
TOP
10
0.241172
20
0.784596
30
0.0
11
0.204753
21
0.765925
31
0.0
0
LINE
8
TOP
10
0.204753
20
0.765925
30
0.0
11
0.170374
21
0.743721
31
0.0
0
LINE
8
TOP
10
0.170374
20
0.743721
30
0.0
11
0.138377
21
0.718204
31
0.0
0
LINE
8
TOP
10
0.138377
20
0.718204
30
0.0
11
0.109079
21
0.689628
31
0.0
0
LINE
8
TOP
10
0.109079
20
0.689628
30
0.0
11
0.082772
21
0.658276
31
0.0
0
LINE
8
TOP
10
0.082772
20
0.658276
30
0.0
11
0.059718
21
0.624462
31
0.0
0
LINE
8
TOP
10
0.059718
20
0.624462
30
0.0
11
0.040145
21
0.588519
31
0.0
0
LINE
8
TOP
10
0.040145
20
0.588519
30
0.0
11
0.024247
21
0.550807
31
0.0
0
LINE
8
TOP
10
0.024247
20
0.550807
30
0.0
11
0.012184
21
0.511699
31
0.0
0
LINE
8
TOP
10
0.012184
20
0.511699
30
0.0
11
0.004075
21
0.471584
31
0.0
0
LINE
8
TOP
10
0.004075
20
0.471584
30
0.0
11
0.000000
21
0.430862
31
0.0
0
LINE
8
TOP
10
0.000000
20
0.430862
30
0.0
11
0.000000
21
0.389936
31
0.0
0
LINE
8
TOP
10
0.000000
20
0.389936
30
0.0
11
0.004075
21
0.349213
31
0.0
0
LINE
8
TOP
10
0.004075
20
0.349213
30
0.0
11
0.012184
21
0.309098
31
0.0
0
LINE
8
TOP
10
0.012184
20
0.309098
30
0.0
11
0.024247
21
0.269990
31
0.0
0
LINE
8
TOP
10
0.024247
20
0.269990
30
0.0
11
0.040145
21
0.232278
31
0.0
0
LINE
8
TOP
10
0.040145
20
0.232278
30
0.0
11
0.059718
21
0.196336
31
0.0
0
LINE
8
TOP
10
0.059718
20
0.196336
30
0.0
11
0.082772
21
0.162521
31
0.0
0
LINE
8
TOP
10
0.082772
20
0.162521
30
0.0
11
0.109079
21
0.131170
31
0.0
0
LINE
8
TOP
10
0.109079
20
0.131170
30
0.0
11
0.138377
21
0.102594
31
0.0
0
LINE
8
TOP
10
0.138377
20
0.102594
30
0.0
11
0.170374
21
0.077077
31
0.0
0
LINE
8
TOP
10
0.170374
20
0.077077
30
0.0
11
0.204753
21
0.054872
31
0.0
0
LINE
8
TOP
10
0.204753
20
0.054872
30
0.0
11
0.241172
21
0.036202
31
0.0
0
LINE
8
TOP
10
0.241172
20
0.036202
30
0.0
11
0.279269
21
0.021250
31
0.0
0
LINE
8
TOP
10
0.279269
20
0.021250
30
0.0
11
0.318665
21
0.010165
31
0.0
0
LINE
8
TOP
10
0.318665
20
0.010165
30
0.0
11
0.358970
21
0.003058
31
0.0
0
LINE
8
TOP
10
0.358970
20
0.003058
30
0.0
11
0.399781
21
0.000000
31
0.0
0
LINE
8
TOP
10
0.399781
20
0.000000
30
0.0
11
0.440695
21
0.001020
31
0.0
0
LINE
8
TOP
10
0.440695
20
0.001020
30
0.0
11
0.481303
21
0.006109
31
0.0
0
LINE
8
TOP
10
0.481303
20
0.006109
30
0.0
11
0.521203
21
0.015216
31
0.0
0
LINE
8
TOP
10
0.521203
20
0.015216
30
0.0
11
0.559998
21
0.028251
31
0.0
0
LINE
8
TOP
10
0.559998
20
0.028251
30
0.0
11
0.597302
21
0.045083
31
0.0
0
LINE
8
TOP
10
0.597302
20
0.045083
30
0.0
11
0.632746
21
0.065546
31
0.0
0
LINE
8
TOP
10
0.632746
20
0.065546
30
0.0
11
0.665975
21
0.089436
31
0.0
0
LINE
8
TOP
10
0.665975
20
0.089436
30
0.0
11
0.696661
21
0.116517
31
0.0
0
LINE
8
TOP
10
0.696661
20
0.116517
30
0.0
11
0.724497
21
0.146517
31
0.0
0
LINE
8
TOP
10
0.724497
20
0.146517
30
0.0
11
0.749209
21
0.179141
31
0.0
0
LINE
8
TOP
10
0.749209
20
0.179141
30
0.0
11
0.770549
21
0.214063
31
0.0
0
LINE
8
TOP
10
0.770549
20
0.214063
30
0.0
11
0.788306
21
0.250936
31
0.0
0
LINE
8
TOP
10
0.788306
20
0.250936
30
0.0
11
0.802304
21
0.289394
31
0.0
0
LINE
8
TOP
10
0.802304
20
0.289394
30
0.0
11
0.812403
21
0.329055
31
0.0
0
LINE
8
TOP
10
0.812403
20
0.329055
30
0.0
11
0.818502
21
0.369523
31
0.0
0
LINE
8
TOP
10
0.818502
20
0.369523
30
0.0
11
0.820542
21
0.410399
31
0.0
0
LINE
8
TOP
10
0.683700
20
0.410399
30
0.0
11
0.682340
21
0.437649
31
0.0
0
LINE
8
TOP
10
0.682340
20
0.437649
30
0.0
11
0.678274
21
0.464628
31
0.0
0
LINE
8
TOP
10
0.678274
20
0.464628
30
0.0
11
0.671541
21
0.491069
31
0.0
0
LINE
8
TOP
10
0.671541
20
0.491069
30
0.0
11
0.662209
21
0.516707
31
0.0
0
LINE
8
TOP
10
0.662209
20
0.516707
30
0.0
11
0.650371
21
0.541289
31
0.0
0
LINE
8
TOP
10
0.650371
20
0.541289
30
0.0
11
0.636145
21
0.564571
31
0.0
0
LINE
8
TOP
10
0.636145
20
0.564571
30
0.0
11
0.619670
21
0.586320
31
0.0
0
LINE
8
TOP
10
0.619670
20
0.586320
30
0.0
11
0.601112
21
0.606320
31
0.0
0
LINE
8
TOP
10
0.601112
20
0.606320
30
0.0
11
0.580655
21
0.624374
31
0.0
0
LINE
8
TOP
10
0.580655
20
0.624374
30
0.0
11
0.558502
21
0.640301
31
0.0
0
LINE
8
TOP
10
0.558502
20
0.640301
30
0.0
11
0.534874
21
0.653943
31
0.0
0
LINE
8
TOP
10
0.534874
20
0.653943
30
0.0
11
0.510004
21
0.665164
31
0.0
0
LINE
8
TOP
10
0.510004
20
0.665164
30
0.0
11
0.484141
21
0.673854
31
0.0
0
LINE
8
TOP
10
0.484141
20
0.673854
30
0.0
11
0.457541
21
0.679925
31
0.0
0
LINE
8
TOP
10
0.457541
20
0.679925
30
0.0
11
0.430468
21
0.683318
31
0.0
0
LINE
8
TOP
10
0.430468
20
0.683318
30
0.0
11
0.403193
21
0.683998
31
0.0
0
LINE
8
TOP
10
0.403193
20
0.683998
30
0.0
11
0.375985
21
0.681959
31
0.0
0
LINE
8
TOP
10
0.375985
20
0.681959
30
0.0
11
0.349116
21
0.677221
31
0.0
0
LINE
8
TOP
10
0.349116
20
0.677221
30
0.0
11
0.322851
21
0.669831
31
0.0
0
LINE
8
TOP
10
0.322851
20
0.669831
30
0.0
11
0.297453
21
0.659863
31
0.0
0
LINE
8
TOP
10
0.297453
20
0.659863
30
0.0
11
0.273174
21
0.647416
31
0.0
0
LINE
8
TOP
10
0.273174
20
0.647416
30
0.0
11
0.250255
21
0.632613
31
0.0
0
LINE
8
TOP
10
0.250255
20
0.632613
30
0.0
11
0.228923
21
0.615602
31
0.0
0
LINE
8
TOP
10
0.228923
20
0.615602
30
0.0
11
0.209391
21
0.596551
31
0.0
0
LINE
8
TOP
10
0.209391
20
0.596551
30
0.0
11
0.191853
21
0.575650
31
0.0
0
LINE
8
TOP
10
0.191853
20
0.575650
30
0.0
11
0.176484
21
0.553107
31
0.0
0
LINE
8
TOP
10
0.176484
20
0.553107
30
0.0
11
0.163435
21
0.529146
31
0.0
0
LINE
8
TOP
10
0.163435
20
0.529146
30
0.0
11
0.152837
21
0.504004
31
0.0
0
LINE
8
TOP
10
0.152837
20
0.504004
30
0.0
11
0.144795
21
0.477932
31
0.0
0
LINE
8
TOP
10
0.144795
20
0.477932
30
0.0
11
0.139389
21
0.451189
31
0.0
0
LINE
8
TOP
10
0.139389
20
0.451189
30
0.0
11
0.136672
21
0.424041
31
0.0
0
LINE
8
TOP
10
0.136672
20
0.424041
30
0.0
11
0.136672
21
0.396757
31
0.0
0
LINE
8
TOP
10
0.136672
20
0.396757
30
0.0
11
0.139389
21
0.369608
31
0.0
0
LINE
8
TOP
10
0.139389
20
0.369608
30
0.0
11
0.144795
21
0.342865
31
0.0
0
LINE
8
TOP
10
0.144795
20
0.342865
30
0.0
11
0.152837
21
0.316793
31
0.0
0
LINE
8
TOP
10
0.152837
20
0.316793
30
0.0
11
0.163435
21
0.291652
31
0.0
0
LINE
8
TOP
10
0.163435
20
0.291652
30
0.0
11
0.176484
21
0.267690
31
0.0
0
LINE
8
TOP
10
0.176484
20
0.267690
30
0.0
11
0.191853
21
0.245147
31
0.0
0
LINE
8
TOP
10
0.191853
20
0.245147
30
0.0
11
0.209391
21
0.224246
31
0.0
0
LINE
8
TOP
10
0.209391
20
0.224246
30
0.0
11
0.228923
21
0.205195
31
0.0
0
LINE
8
TOP
10
0.228923
20
0.205195
30
0.0
11
0.250255
21
0.188184
31
0.0
0
LINE
8
TOP
10
0.250255
20
0.188184
30
0.0
11
0.273174
21
0.173381
31
0.0
0
LINE
8
TOP
10
0.273174
20
0.173381
30
0.0
11
0.297453
21
0.160934
31
0.0
0
LINE
8
TOP
10
0.297453
20
0.160934
30
0.0
11
0.322851
21
0.150966
31
0.0
0
LINE
8
TOP
10
0.322851
20
0.150966
30
0.0
11
0.349116
21
0.143576
31
0.0
0
LINE
8
TOP
10
0.349116
20
0.143576
30
0.0
11
0.375985
21
0.138839
31
0.0
0
LINE
8
TOP
10
0.375985
20
0.138839
30
0.0
11
0.403193
21
0.136800
31
0.0
0
LINE
8
TOP
10
0.403193
20
0.136800
30
0.0
11
0.430468
21
0.137480
31
0.0
0
LINE
8
TOP
10
0.430468
20
0.137480
30
0.0
11
0.457541
21
0.140872
31
0.0
0
LINE
8
TOP
10
0.457541
20
0.140872
30
0.0
11
0.484141
21
0.146944
31
0.0
0
LINE
8
TOP
10
0.484141
20
0.146944
30
0.0
11
0.510004
21
0.155633
31
0.0
0
LINE
8
TOP
10
0.510004
20
0.155633
30
0.0
11
0.534874
21
0.166855
31
0.0
0
LINE
8
TOP
10
0.534874
20
0.166855
30
0.0
11
0.558502
21
0.180497
31
0.0
0
LINE
8
TOP
10
0.558502
20
0.180497
30
0.0
11
0.580655
21
0.196424
31
0.0
0
LINE
8
TOP
10
0.580655
20
0.196424
30
0.0
11
0.601112
21
0.214477
31
0.0
0
LINE
8
TOP
10
0.601112
20
0.214477
30
0.0
11
0.619670
21
0.234478
31
0.0
0
LINE
8
TOP
10
0.619670
20
0.234478
30
0.0
11
0.636145
21
0.256227
31
0.0
0
LINE
8
TOP
10
0.636145
20
0.256227
30
0.0
11
0.650371
21
0.279508
31
0.0
0
LINE
8
TOP
10
0.650371
20
0.279508
30
0.0
11
0.662209
21
0.304090
31
0.0
0
LINE
8
TOP
10
0.662209
20
0.304090
30
0.0
11
0.671541
21
0.329729
31
0.0
0
LINE
8
TOP
10
0.671541
20
0.329729
30
0.0
11
0.678274
21
0.356169
31
0.0
0
LINE
8
TOP
10
0.678274
20
0.356169
30
0.0
11
0.682340
21
0.383149
31
0.0
0
LINE
8
TOP
10
0.682340
20
0.383149
30
0.0
11
0.683700
21
0.410399
31
0.0
0
ENDSEC
0
EOF
