0
SECTION
2
HEADER
9
$ACADVER
1
AC1009
0
ENDSEC
0
SECTION
2
TABLES
0
TABLE
2
LTYPE
70
3
0
LTYPE
2
CONTINUOUS
70
0
3
Solid line
72
65
73
0
40
0.0
0
LTYPE
2
HIDDEN
70
0
3
__ __ __ __ __
72
65
73
2
40
0.064453
49
0.042990
49
-0.021463
0
LTYPE
2
CENTER
70
0
3
___ _ ___ _ ___
72
65
73
4
40
0.150369
49
0.085916
49
-0.021463
49
0.021463
49
-0.021463
0
ENDTAB
0
TABLE
2
LAYER
70
6
0
LAYER
2
0
70
0
62
7
6
CONTINUOUS
0
LAYER
2
FRONT
70
0
62
7
6
CONTINUOUS
0
LAYER
2
FRONT_HID
70
0
62
7
6
HIDDEN
0
LAYER
2
LEFT
70
0
62
7
6
CONTINUOUS
0
LAYER
2
LEFT_HID
70
0
62
7
6
HIDDEN
0
LAYER
2
TOP
70
0
62
7
6
CONTINUOUS
0
ENDTAB
0
ENDSEC
0
SECTION
2
ENTITIES
0
LINE
8
FRONT
10
1.289062
20
1.546875
30
0.0
11
1.289062
21
1.625000
31
0.0
0
LINE
8
FRONT
10
1.289062
20
1.625000
30
0.0
11
0.000000
21
1.625000
31
0.0
0
LINE
8
FRONT
10
0.000000
20
1.546875
30
0.0
11
0.000000
21
1.625000
31
0.0
0
LINE
8
FRONT
10
1.289062
20
1.546875
30
0.0
11
0.000000
21
1.546875
31
0.0
0
LINE
8
FRONT_HID
6
HIDDEN
10
0.040707
20
1.546875
30
0.0
11
0.040707
21
1.625000
31
0.0
0
LINE
8
FRONT_HID
6
HIDDEN
10
0.040707
20
1.625000
30
0.0
11
1.248355
21
1.625000
31
0.0
0
LINE
8
FRONT_HID
6
HIDDEN
10
1.248355
20
1.546875
30
0.0
11
1.248355
21
1.625000
31
0.0
0
LINE
8
FRONT_HID
6
HIDDEN
10
0.040707
20
1.546875
30
0.0
11
1.248355
21
1.546875
31
0.0
0
LINE
8
FRONT_HID
6
HIDDEN
10
1.248355
20
1.546875
30
0.0
11
1.248355
21
1.625000
31
0.0
0
LINE
8
FRONT_HID
6
HIDDEN
10
1.248355
20
1.625000
30
0.0
11
0.040707
21
1.625000
31
0.0
0
LINE
8
FRONT_HID
6
HIDDEN
10
0.040707
20
1.546875
30
0.0
11
0.040707
21
1.625000
31
0.0
0
LINE
8
FRONT_HID
6
HIDDEN
10
1.248355
20
1.546875
30
0.0
11
0.040707
21
1.546875
31
0.0
0
LINE
8
LEFT
10
2.835938
20
1.546875
30
0.0
11
2.835938
21
1.625000
31
0.0
0
LINE
8
LEFT
10
1.546875
20
1.546875
30
0.0
11
1.546875
21
1.625000
31
0.0
0
LINE
8
LEFT
10
1.546875
20
1.625000
30
0.0
11
2.835938
21
1.625000
31
0.0
0
LINE
8
LEFT
10
1.546875
20
1.546875
30
0.0
11
2.835938
21
1.546875
31
0.0
0
LINE
8
LEFT_HID
6
HIDDEN
10
2.808799
20
1.546875
30
0.0
11
2.808799
21
1.625000
31
0.0
0
LINE
8
LEFT_HID
6
HIDDEN
10
2.808799
20
1.546875
30
0.0
11
2.808799
21
1.625000
31
0.0
0
LINE
8
LEFT_HID
6
HIDDEN
10
2.808799
20
1.625000
30
0.0
11
1.587582
21
1.625000
31
0.0
0
LINE
8
LEFT_HID
6
HIDDEN
10
1.587582
20
1.546875
30
0.0
11
1.587582
21
1.625000
31
0.0
0
LINE
8
LEFT_HID
6
HIDDEN
10
2.808799
20
1.546875
30
0.0
11
1.587582
21
1.546875
31
0.0
0
LINE
8
LEFT_HID
6
HIDDEN
10
1.587582
20
1.546875
30
0.0
11
1.587582
21
1.625000
31
0.0
0
LINE
8
LEFT_HID
6
HIDDEN
10
1.587582
20
1.625000
30
0.0
11
2.808799
21
1.625000
31
0.0
0
LINE
8
LEFT_HID
6
HIDDEN
10
1.587582
20
1.546875
30
0.0
11
2.808799
21
1.546875
31
0.0
0
LINE
8
TOP
10
0.000000
20
0.000000
30
0.0
11
1.289062
21
0.000000
31
0.0
0
LINE
8
TOP
10
1.289062
20
0.000000
30
0.0
11
1.289062
21
1.289062
31
0.0
0
LINE
8
TOP
10
1.289062
20
1.289062
30
0.0
11
0.000000
21
1.289062
31
0.0
0
LINE
8
TOP
10
0.000000
20
1.289062
30
0.0
11
0.000000
21
0.000000
31
0.0
0
LINE
8
TOP
10
0.040707
20
0.027138
30
0.0
11
1.248355
21
0.027138
31
0.0
0
LINE
8
TOP
10
1.248355
20
0.027138
30
0.0
11
1.248355
21
1.248355
31
0.0
0
LINE
8
TOP
10
1.248355
20
1.248355
30
0.0
11
0.040707
21
1.248355
31
0.0
0
LINE
8
TOP
10
0.040707
20
1.248355
30
0.0
11
0.040707
21
0.027138
31
0.0
0
ENDSEC
0
EOF
