0
SECTION
2
HEADER
9
$ACADVER
1
AC1009
0
ENDSEC
0
SECTION
2
TABLES
0
TABLE
2
LTYPE
70
3
0
LTYPE
2
CONTINUOUS
70
0
3
Solid line
72
65
73
0
40
0.0
0
LTYPE
2
HIDDEN
70
0
3
__ __ __ __ __
72
65
73
2
40
0.037500
49
0.025013
49
-0.012488
0
LTYPE
2
CENTER
70
0
3
___ _ ___ _ ___
72
65
73
4
40
0.087488
49
0.049988
49
-0.012488
49
0.012488
49
-0.012488
0
ENDTAB
0
TABLE
2
LAYER
70
6
0
LAYER
2
0
70
0
62
7
6
CONTINUOUS
0
LAYER
2
FRONT
70
0
62
7
6
CONTINUOUS
0
LAYER
2
FRONT_HID
70
0
62
7
6
HIDDEN
0
LAYER
2
LEFT
70
0
62
7
6
CONTINUOUS
0
LAYER
2
LEFT_HID
70
0
62
7
6
HIDDEN
0
LAYER
2
TOP
70
0
62
7
6
CONTINUOUS
0
ENDTAB
0
ENDSEC
0
SECTION
2
ENTITIES
0
LINE
8
FRONT
10
0.039062
20
0.189063
30
0.0
11
0.039062
21
0.939063
31
0.0
0
LINE
8
FRONT
10
0.039062
20
0.939063
30
0.0
11
0.000000
21
0.939063
31
0.0
0
LINE
8
FRONT
10
0.000000
20
0.189063
30
0.0
11
0.000000
21
0.939063
31
0.0
0
LINE
8
FRONT
10
0.039062
20
0.189063
30
0.0
11
0.000000
21
0.189063
31
0.0
0
LINE
8
FRONT_HID
6
HIDDEN
10
0.002467
20
0.189063
30
0.0
11
0.002467
21
0.939063
31
0.0
0
LINE
8
FRONT_HID
6
HIDDEN
10
0.002467
20
0.939063
30
0.0
11
0.036595
21
0.939063
31
0.0
0
LINE
8
FRONT_HID
6
HIDDEN
10
0.036595
20
0.189063
30
0.0
11
0.036595
21
0.939063
31
0.0
0
LINE
8
FRONT_HID
6
HIDDEN
10
0.002467
20
0.189063
30
0.0
11
0.036595
21
0.189063
31
0.0
0
LINE
8
FRONT_HID
6
HIDDEN
10
0.036595
20
0.189063
30
0.0
11
0.036595
21
0.939063
31
0.0
0
LINE
8
FRONT_HID
6
HIDDEN
10
0.036595
20
0.939063
30
0.0
11
0.002467
21
0.939063
31
0.0
0
LINE
8
FRONT_HID
6
HIDDEN
10
0.002467
20
0.189063
30
0.0
11
0.002467
21
0.939063
31
0.0
0
LINE
8
FRONT_HID
6
HIDDEN
10
0.036595
20
0.189063
30
0.0
11
0.002467
21
0.189063
31
0.0
0
LINE
8
LEFT
10
0.228125
20
0.189063
30
0.0
11
0.228125
21
0.939063
31
0.0
0
LINE
8
LEFT
10
0.189063
20
0.189063
30
0.0
11
0.189063
21
0.939063
31
0.0
0
LINE
8
LEFT
10
0.189063
20
0.939063
30
0.0
11
0.228125
21
0.939063
31
0.0
0
LINE
8
LEFT
10
0.189063
20
0.189063
30
0.0
11
0.228125
21
0.189063
31
0.0
0
LINE
8
LEFT_HID
6
HIDDEN
10
0.225658
20
0.189063
30
0.0
11
0.225658
21
0.939063
31
0.0
0
LINE
8
LEFT_HID
6
HIDDEN
10
0.225658
20
0.189063
30
0.0
11
0.225658
21
0.939063
31
0.0
0
LINE
8
LEFT_HID
6
HIDDEN
10
0.225658
20
0.939063
30
0.0
11
0.191530
21
0.939063
31
0.0
0
LINE
8
LEFT_HID
6
HIDDEN
10
0.191530
20
0.189063
30
0.0
11
0.191530
21
0.939063
31
0.0
0
LINE
8
LEFT_HID
6
HIDDEN
10
0.225658
20
0.189063
30
0.0
11
0.191530
21
0.189063
31
0.0
0
LINE
8
LEFT_HID
6
HIDDEN
10
0.191530
20
0.189063
30
0.0
11
0.191530
21
0.939063
31
0.0
0
LINE
8
LEFT_HID
6
HIDDEN
10
0.191530
20
0.939063
30
0.0
11
0.225658
21
0.939063
31
0.0
0
LINE
8
LEFT_HID
6
HIDDEN
10
0.191530
20
0.189063
30
0.0
11
0.225658
21
0.189063
31
0.0
0
LINE
8
TOP
10
0.000000
20
0.000000
30
0.0
11
0.039062
21
0.000000
31
0.0
0
LINE
8
TOP
10
0.039062
20
0.000000
30
0.0
11
0.039062
21
0.039062
31
0.0
0
LINE
8
TOP
10
0.039062
20
0.039062
30
0.0
11
0.000000
21
0.039062
31
0.0
0
LINE
8
TOP
10
0.000000
20
0.039062
30
0.0
11
0.000000
21
0.000000
31
0.0
0
LINE
8
TOP
10
0.002467
20
0.002467
30
0.0
11
0.036595
21
0.002467
31
0.0
0
LINE
8
TOP
10
0.036595
20
0.002467
30
0.0
11
0.036595
21
0.036595
31
0.0
0
LINE
8
TOP
10
0.036595
20
0.036595
30
0.0
11
0.002467
21
0.036595
31
0.0
0
LINE
8
TOP
10
0.002467
20
0.036595
30
0.0
11
0.002467
21
0.002467
31
0.0
0
ENDSEC
0
EOF
