0
SECTION
2
HEADER
9
$ACADVER
1
AC1009
0
ENDSEC
0
SECTION
2
TABLES
0
TABLE
2
LTYPE
70
3
0
LTYPE
2
CONTINUOUS
70
0
3
Solid line
72
65
73
0
40
0.0
0
LTYPE
2
HIDDEN
70
0
3
__ __ __ __ __
72
65
73
2
40
0.037500
49
0.025013
49
-0.012488
0
LTYPE
2
CENTER
70
0
3
___ _ ___ _ ___
72
65
73
4
40
0.087488
49
0.049988
49
-0.012488
49
0.012488
49
-0.012488
0
ENDTAB
0
TABLE
2
LAYER
70
6
0
LAYER
2
0
70
0
62
7
6
CONTINUOUS
0
LAYER
2
FRONT
70
0
62
7
6
CONTINUOUS
0
LAYER
2
LEFT
70
0
62
7
6
CONTINUOUS
0
LAYER
2
LEFT_HID
70
0
62
7
6
HIDDEN
0
LAYER
2
TOP
70
0
62
7
6
CONTINUOUS
0
LAYER
2
TOP_HID
70
0
62
7
6
HIDDEN
0
ENDTAB
0
ENDSEC
0
SECTION
2
ENTITIES
0
LINE
8
FRONT
10
0.320765
20
1.021064
30
0.0
11
0.326524
21
1.023378
31
0.0
0
LINE
8
FRONT
10
0.326524
20
1.023378
30
0.0
11
0.332189
21
1.025911
31
0.0
0
LINE
8
FRONT
10
0.332189
20
1.025911
30
0.0
11
0.337754
21
1.028659
31
0.0
0
LINE
8
FRONT
10
0.337754
20
1.028659
30
0.0
11
0.343208
21
1.031618
31
0.0
0
LINE
8
FRONT
10
0.343208
20
1.031618
30
0.0
11
0.348546
21
1.034784
31
0.0
0
LINE
8
FRONT
10
0.348546
20
1.034784
30
0.0
11
0.353758
21
1.038153
31
0.0
0
LINE
8
FRONT
10
0.353758
20
1.038153
30
0.0
11
0.358837
21
1.041719
31
0.0
0
LINE
8
FRONT
10
0.358837
20
1.041719
30
0.0
11
0.363775
21
1.045476
31
0.0
0
LINE
8
FRONT
10
0.363775
20
1.045476
30
0.0
11
0.368566
21
1.049421
31
0.0
0
LINE
8
FRONT
10
0.368566
20
1.049421
30
0.0
11
0.373203
21
1.053546
31
0.0
0
LINE
8
FRONT
10
0.373203
20
1.053546
30
0.0
11
0.377677
21
1.057846
31
0.0
0
LINE
8
FRONT
10
0.377677
20
1.057846
30
0.0
11
0.381984
21
1.062315
31
0.0
0
LINE
8
FRONT
10
0.381984
20
1.062315
30
0.0
11
0.386116
21
1.066945
31
0.0
0
LINE
8
FRONT
10
0.386116
20
1.066945
30
0.0
11
0.390067
21
1.071730
31
0.0
0
LINE
8
FRONT
10
0.390067
20
1.071730
30
0.0
11
0.393832
21
1.076663
31
0.0
0
LINE
8
FRONT
10
0.393832
20
1.076663
30
0.0
11
0.397405
21
1.081737
31
0.0
0
LINE
8
FRONT
10
0.397405
20
1.081737
30
0.0
11
0.400781
21
1.086944
31
0.0
0
LINE
8
FRONT
10
0.400781
20
1.086944
30
0.0
11
0.403955
21
1.092277
31
0.0
0
LINE
8
FRONT
10
0.403955
20
1.092277
30
0.0
11
0.406922
21
1.097728
31
0.0
0
LINE
8
FRONT
10
0.406922
20
1.097728
30
0.0
11
0.409678
21
1.103288
31
0.0
0
LINE
8
FRONT
10
0.409678
20
1.103288
30
0.0
11
0.412219
21
1.108950
31
0.0
0
LINE
8
FRONT
10
0.412219
20
1.108950
30
0.0
11
0.414541
21
1.114705
31
0.0
0
LINE
8
FRONT
10
0.414541
20
1.114705
30
0.0
11
0.416640
21
1.120545
31
0.0
0
LINE
8
FRONT
10
0.416640
20
1.120545
30
0.0
11
0.418515
21
1.126461
31
0.0
0
LINE
8
FRONT
10
0.418515
20
1.126461
30
0.0
11
0.420160
21
1.132445
31
0.0
0
LINE
8
FRONT
10
0.420160
20
1.132445
30
0.0
11
0.421576
21
1.138487
31
0.0
0
LINE
8
FRONT
10
0.421576
20
1.138487
30
0.0
11
0.422758
21
1.144579
31
0.0
0
LINE
8
FRONT
10
0.422758
20
1.144579
30
0.0
11
0.423707
21
1.150712
31
0.0
0
LINE
8
FRONT
10
0.423707
20
1.150712
30
0.0
11
0.424419
21
1.156877
31
0.0
0
LINE
8
FRONT
10
0.424419
20
1.156877
30
0.0
11
0.424894
21
1.163064
31
0.0
0
LINE
8
FRONT
10
0.424894
20
1.163064
30
0.0
11
0.425132
21
1.169266
31
0.0
0
LINE
8
FRONT
10
0.425132
20
1.169266
30
0.0
11
0.425132
21
1.175471
31
0.0
0
LINE
8
FRONT
10
0.425132
20
1.175471
30
0.0
11
0.424894
21
1.181673
31
0.0
0
LINE
8
FRONT
10
0.424894
20
1.181673
30
0.0
11
0.424419
21
1.187860
31
0.0
0
LINE
8
FRONT
10
0.424419
20
1.187860
30
0.0
11
0.423707
21
1.194025
31
0.0
0
LINE
8
FRONT
10
0.423707
20
1.194025
30
0.0
11
0.422758
21
1.200158
31
0.0
0
LINE
8
FRONT
10
0.422758
20
1.200158
30
0.0
11
0.421576
21
1.206250
31
0.0
0
LINE
8
FRONT
10
0.421576
20
1.206250
30
0.0
11
0.420160
21
1.212292
31
0.0
0
LINE
8
FRONT
10
0.420160
20
1.212292
30
0.0
11
0.418515
21
1.218276
31
0.0
0
LINE
8
FRONT
10
0.418515
20
1.218276
30
0.0
11
0.416640
21
1.224192
31
0.0
0
LINE
8
FRONT
10
0.416640
20
1.224192
30
0.0
11
0.414541
21
1.230032
31
0.0
0
LINE
8
FRONT
10
0.414541
20
1.230032
30
0.0
11
0.412219
21
1.235787
31
0.0
0
LINE
8
FRONT
10
0.412219
20
1.235787
30
0.0
11
0.409678
21
1.241449
31
0.0
0
LINE
8
FRONT
10
0.409678
20
1.241449
30
0.0
11
0.406922
21
1.247009
31
0.0
0
LINE
8
FRONT
10
0.406922
20
1.247009
30
0.0
11
0.403955
21
1.252460
31
0.0
0
LINE
8
FRONT
10
0.403955
20
1.252460
30
0.0
11
0.400781
21
1.257792
31
0.0
0
LINE
8
FRONT
10
0.400781
20
1.257792
30
0.0
11
0.397405
21
1.263000
31
0.0
0
LINE
8
FRONT
10
0.397405
20
1.263000
30
0.0
11
0.393832
21
1.268073
31
0.0
0
LINE
8
FRONT
10
0.393832
20
1.268073
30
0.0
11
0.390067
21
1.273007
31
0.0
0
LINE
8
FRONT
10
0.390067
20
1.273007
30
0.0
11
0.386116
21
1.277792
31
0.0
0
LINE
8
FRONT
10
0.386116
20
1.277792
30
0.0
11
0.381984
21
1.282422
31
0.0
0
LINE
8
FRONT
10
0.381984
20
1.282422
30
0.0
11
0.377677
21
1.286890
31
0.0
0
LINE
8
FRONT
10
0.377677
20
1.286890
30
0.0
11
0.373203
21
1.291191
31
0.0
0
LINE
8
FRONT
10
0.373203
20
1.291191
30
0.0
11
0.368566
21
1.295316
31
0.0
0
LINE
8
FRONT
10
0.368566
20
1.295316
30
0.0
11
0.363775
21
1.299260
31
0.0
0
LINE
8
FRONT
10
0.363775
20
1.299260
30
0.0
11
0.358837
21
1.303018
31
0.0
0
LINE
8
FRONT
10
0.358837
20
1.303018
30
0.0
11
0.353758
21
1.306584
31
0.0
0
LINE
8
FRONT
10
0.353758
20
1.306584
30
0.0
11
0.348546
21
1.309953
31
0.0
0
LINE
8
FRONT
10
0.348546
20
1.309953
30
0.0
11
0.343208
21
1.313119
31
0.0
0
LINE
8
FRONT
10
0.343208
20
1.313119
30
0.0
11
0.337754
21
1.316078
31
0.0
0
LINE
8
FRONT
10
0.337754
20
1.316078
30
0.0
11
0.332189
21
1.318826
31
0.0
0
LINE
8
FRONT
10
0.332189
20
1.318826
30
0.0
11
0.326524
21
1.321359
31
0.0
0
LINE
8
FRONT
10
0.326524
20
1.321359
30
0.0
11
0.320765
21
1.323672
31
0.0
0
LINE
8
FRONT
10
0.239021
20
1.220534
30
0.0
11
0.237349
21
1.219653
31
0.0
0
LINE
8
FRONT
10
0.237349
20
1.219653
30
0.0
11
0.235709
21
1.218714
31
0.0
0
LINE
8
FRONT
10
0.235709
20
1.218714
30
0.0
11
0.234103
21
1.217719
31
0.0
0
LINE
8
FRONT
10
0.234103
20
1.217719
30
0.0
11
0.232532
21
1.216668
31
0.0
0
LINE
8
FRONT
10
0.232532
20
1.216668
30
0.0
11
0.230999
21
1.215562
31
0.0
0
LINE
8
FRONT
10
0.230999
20
1.215562
30
0.0
11
0.229506
21
1.214403
31
0.0
0
LINE
8
FRONT
10
0.229506
20
1.214403
30
0.0
11
0.228054
21
1.213193
31
0.0
0
LINE
8
FRONT
10
0.228054
20
1.213193
30
0.0
11
0.226646
21
1.211933
31
0.0
0
LINE
8
FRONT
10
0.226646
20
1.211933
30
0.0
11
0.225283
21
1.210624
31
0.0
0
LINE
8
FRONT
10
0.225283
20
1.210624
30
0.0
11
0.223966
21
1.209268
31
0.0
0
LINE
8
FRONT
10
0.223966
20
1.209268
30
0.0
11
0.222698
21
1.207867
31
0.0
0
LINE
8
FRONT
10
0.222698
20
1.207867
30
0.0
11
0.221479
21
1.206423
31
0.0
0
LINE
8
FRONT
10
0.221479
20
1.206423
30
0.0
11
0.220312
21
1.204936
31
0.0
0
LINE
8
FRONT
10
0.220312
20
1.204936
30
0.0
11
0.219198
21
1.203410
31
0.0
0
LINE
8
FRONT
10
0.219198
20
1.203410
30
0.0
11
0.218138
21
1.201845
31
0.0
0
LINE
8
FRONT
10
0.218138
20
1.201845
30
0.0
11
0.217133
21
1.200245
31
0.0
0
LINE
8
FRONT
10
0.217133
20
1.200245
30
0.0
11
0.216185
21
1.198610
31
0.0
0
LINE
8
FRONT
10
0.216185
20
1.198610
30
0.0
11
0.215295
21
1.196943
31
0.0
0
LINE
8
FRONT
10
0.215295
20
1.196943
30
0.0
11
0.214463
21
1.195245
31
0.0
0
LINE
8
FRONT
10
0.214463
20
1.195245
30
0.0
11
0.213692
21
1.193520
31
0.0
0
LINE
8
FRONT
10
0.213692
20
1.193520
30
0.0
11
0.212982
21
1.191769
31
0.0
0
LINE
8
FRONT
10
0.212982
20
1.191769
30
0.0
11
0.212333
21
1.189994
31
0.0
0
LINE
8
FRONT
10
0.212333
20
1.189994
30
0.0
11
0.211747
21
1.188197
31
0.0
0
LINE
8
FRONT
10
0.211747
20
1.188197
30
0.0
11
0.211224
21
1.186381
31
0.0
0
LINE
8
FRONT
10
0.211224
20
1.186381
30
0.0
11
0.210765
21
1.184547
31
0.0
0
LINE
8
FRONT
10
0.210765
20
1.184547
30
0.0
11
0.210371
21
1.182699
31
0.0
0
LINE
8
FRONT
10
0.210371
20
1.182699
30
0.0
11
0.210042
21
1.180838
31
0.0
0
LINE
8
FRONT
10
0.210042
20
1.180838
30
0.0
11
0.209778
21
1.178967
31
0.0
0
LINE
8
FRONT
10
0.209778
20
1.178967
30
0.0
11
0.209579
21
1.177087
31
0.0
0
LINE
8
FRONT
10
0.209579
20
1.177087
30
0.0
11
0.209447
21
1.175202
31
0.0
0
LINE
8
FRONT
10
0.209447
20
1.175202
30
0.0
11
0.209381
21
1.173313
31
0.0
0
LINE
8
FRONT
10
0.209381
20
1.173313
30
0.0
11
0.209381
21
1.171423
31
0.0
0
LINE
8
FRONT
10
0.209381
20
1.171423
30
0.0
11
0.209447
21
1.169535
31
0.0
0
LINE
8
FRONT
10
0.209447
20
1.169535
30
0.0
11
0.209579
21
1.167649
31
0.0
0
LINE
8
FRONT
10
0.209579
20
1.167649
30
0.0
11
0.209778
21
1.165770
31
0.0
0
LINE
8
FRONT
10
0.209778
20
1.165770
30
0.0
11
0.210042
21
1.163899
31
0.0
0
LINE
8
FRONT
10
0.210042
20
1.163899
30
0.0
11
0.210371
21
1.162038
31
0.0
0
LINE
8
FRONT
10
0.210371
20
1.162038
30
0.0
11
0.210765
21
1.160189
31
0.0
0
LINE
8
FRONT
10
0.210765
20
1.160189
30
0.0
11
0.211224
21
1.158356
31
0.0
0
LINE
8
FRONT
10
0.211224
20
1.158356
30
0.0
11
0.211747
21
1.156540
31
0.0
0
LINE
8
FRONT
10
0.211747
20
1.156540
30
0.0
11
0.212333
21
1.154743
31
0.0
0
LINE
8
FRONT
10
0.212333
20
1.154743
30
0.0
11
0.212982
21
1.152968
31
0.0
0
LINE
8
FRONT
10
0.212982
20
1.152968
30
0.0
11
0.213692
21
1.151217
31
0.0
0
LINE
8
FRONT
10
0.213692
20
1.151217
30
0.0
11
0.214463
21
1.149491
31
0.0
0
LINE
8
FRONT
10
0.214463
20
1.149491
30
0.0
11
0.215295
21
1.147794
31
0.0
0
LINE
8
FRONT
10
0.215295
20
1.147794
30
0.0
11
0.216185
21
1.146127
31
0.0
0
LINE
8
FRONT
10
0.216185
20
1.146127
30
0.0
11
0.217133
21
1.144492
31
0.0
0
LINE
8
FRONT
10
0.217133
20
1.144492
30
0.0
11
0.218138
21
1.142892
31
0.0
0
LINE
8
FRONT
10
0.218138
20
1.142892
30
0.0
11
0.219198
21
1.141327
31
0.0
0
LINE
8
FRONT
10
0.219198
20
1.141327
30
0.0
11
0.220312
21
1.139801
31
0.0
0
LINE
8
FRONT
10
0.220312
20
1.139801
30
0.0
11
0.221479
21
1.138314
31
0.0
0
LINE
8
FRONT
10
0.221479
20
1.138314
30
0.0
11
0.222698
21
1.136870
31
0.0
0
LINE
8
FRONT
10
0.222698
20
1.136870
30
0.0
11
0.223966
21
1.135469
31
0.0
0
LINE
8
FRONT
10
0.223966
20
1.135469
30
0.0
11
0.225283
21
1.134113
31
0.0
0
LINE
8
FRONT
10
0.225283
20
1.134113
30
0.0
11
0.226646
21
1.132804
31
0.0
0
LINE
8
FRONT
10
0.226646
20
1.132804
30
0.0
11
0.228054
21
1.131544
31
0.0
0
LINE
8
FRONT
10
0.228054
20
1.131544
30
0.0
11
0.229506
21
1.130333
31
0.0
0
LINE
8
FRONT
10
0.229506
20
1.130333
30
0.0
11
0.230999
21
1.129175
31
0.0
0
LINE
8
FRONT
10
0.230999
20
1.129175
30
0.0
11
0.232532
21
1.128069
31
0.0
0
LINE
8
FRONT
10
0.232532
20
1.128069
30
0.0
11
0.234103
21
1.127018
31
0.0
0
LINE
8
FRONT
10
0.234103
20
1.127018
30
0.0
11
0.235709
21
1.126022
31
0.0
0
LINE
8
FRONT
10
0.235709
20
1.126022
30
0.0
11
0.237349
21
1.125084
31
0.0
0
LINE
8
FRONT
10
0.237349
20
1.125084
30
0.0
11
0.239021
21
1.124203
31
0.0
0
LINE
8
FRONT
10
0.266116
20
1.117105
30
0.0
11
0.269319
21
1.117198
31
0.0
0
LINE
8
FRONT
10
0.269319
20
1.117198
30
0.0
11
0.272512
21
1.117477
31
0.0
0
LINE
8
FRONT
10
0.272512
20
1.117477
30
0.0
11
0.275683
21
1.117940
31
0.0
0
LINE
8
FRONT
10
0.275683
20
1.117940
30
0.0
11
0.278822
21
1.118586
31
0.0
0
LINE
8
FRONT
10
0.278822
20
1.118586
30
0.0
11
0.281919
21
1.119413
31
0.0
0
LINE
8
FRONT
10
0.281919
20
1.119413
30
0.0
11
0.284962
21
1.120418
31
0.0
0
LINE
8
FRONT
10
0.284962
20
1.120418
30
0.0
11
0.287942
21
1.121598
31
0.0
0
LINE
8
FRONT
10
0.287942
20
1.121598
30
0.0
11
0.290848
21
1.122948
31
0.0
0
LINE
8
FRONT
10
0.290848
20
1.122948
30
0.0
11
0.293671
21
1.124465
31
0.0
0
LINE
8
FRONT
10
0.293671
20
1.124465
30
0.0
11
0.296402
21
1.126143
31
0.0
0
LINE
8
FRONT
10
0.296402
20
1.126143
30
0.0
11
0.299030
21
1.127976
31
0.0
0
LINE
8
FRONT
10
0.299030
20
1.127976
30
0.0
11
0.301548
21
1.129959
31
0.0
0
LINE
8
FRONT
10
0.301548
20
1.129959
30
0.0
11
0.303947
21
1.132084
31
0.0
0
LINE
8
FRONT
10
0.303947
20
1.132084
30
0.0
11
0.306219
21
1.134345
31
0.0
0
LINE
8
FRONT
10
0.306219
20
1.134345
30
0.0
11
0.308355
21
1.136733
31
0.0
0
LINE
8
FRONT
10
0.308355
20
1.136733
30
0.0
11
0.310350
21
1.139242
31
0.0
0
LINE
8
FRONT
10
0.310350
20
1.139242
30
0.0
11
0.312196
21
1.141862
31
0.0
0
LINE
8
FRONT
10
0.312196
20
1.141862
30
0.0
11
0.313887
21
1.144584
31
0.0
0
LINE
8
FRONT
10
0.313887
20
1.144584
30
0.0
11
0.315417
21
1.147400
31
0.0
0
LINE
8
FRONT
10
0.315417
20
1.147400
30
0.0
11
0.316781
21
1.150300
31
0.0
0
LINE
8
FRONT
10
0.316781
20
1.150300
30
0.0
11
0.317976
21
1.153274
31
0.0
0
LINE
8
FRONT
10
0.317976
20
1.153274
30
0.0
11
0.318995
21
1.156312
31
0.0
0
LINE
8
FRONT
10
0.318995
20
1.156312
30
0.0
11
0.319837
21
1.159404
31
0.0
0
LINE
8
FRONT
10
0.319837
20
1.159404
30
0.0
11
0.320498
21
1.162540
31
0.0
0
LINE
8
FRONT
10
0.320498
20
1.162540
30
0.0
11
0.320976
21
1.165709
31
0.0
0
LINE
8
FRONT
10
0.320976
20
1.165709
30
0.0
11
0.321270
21
1.168901
31
0.0
0
LINE
8
FRONT
10
0.321270
20
1.168901
30
0.0
11
0.321379
21
1.172104
31
0.0
0
LINE
8
FRONT
10
0.321379
20
1.172104
30
0.0
11
0.321301
21
1.175307
31
0.0
0
LINE
8
FRONT
10
0.321301
20
1.175307
30
0.0
11
0.321038
21
1.178501
31
0.0
0
LINE
8
FRONT
10
0.321038
20
1.178501
30
0.0
11
0.320590
21
1.181675
31
0.0
0
LINE
8
FRONT
10
0.320590
20
1.181675
30
0.0
11
0.319959
21
1.184817
31
0.0
0
LINE
8
FRONT
10
0.319959
20
1.184817
30
0.0
11
0.319147
21
1.187917
31
0.0
0
LINE
8
FRONT
10
0.319147
20
1.187917
30
0.0
11
0.318156
21
1.190965
31
0.0
0
LINE
8
FRONT
10
0.318156
20
1.190965
30
0.0
11
0.316991
21
1.193950
31
0.0
0
LINE
8
FRONT
10
0.316991
20
1.193950
30
0.0
11
0.315654
21
1.196863
31
0.0
0
LINE
8
FRONT
10
0.315654
20
1.196863
30
0.0
11
0.314151
21
1.199694
31
0.0
0
LINE
8
FRONT
10
0.314151
20
1.199694
30
0.0
11
0.312486
21
1.202432
31
0.0
0
LINE
8
FRONT
10
0.312486
20
1.202432
30
0.0
11
0.310665
21
1.205070
31
0.0
0
LINE
8
FRONT
10
0.310665
20
1.205070
30
0.0
11
0.308695
21
1.207597
31
0.0
0
LINE
8
FRONT
10
0.308695
20
1.207597
30
0.0
11
0.306581
21
1.210006
31
0.0
0
LINE
8
FRONT
10
0.306581
20
1.210006
30
0.0
11
0.304331
21
1.212288
31
0.0
0
LINE
8
FRONT
10
0.304331
20
1.212288
30
0.0
11
0.301953
21
1.214436
31
0.0
0
LINE
8
FRONT
10
0.301953
20
1.214436
30
0.0
11
0.299454
21
1.216443
31
0.0
0
LINE
8
FRONT
10
0.299454
20
1.216443
30
0.0
11
0.296843
21
1.218302
31
0.0
0
LINE
8
FRONT
10
0.296843
20
1.218302
30
0.0
11
0.294129
21
1.220005
31
0.0
0
LINE
8
FRONT
10
0.294129
20
1.220005
30
0.0
11
0.291320
21
1.221549
31
0.0
0
LINE
8
FRONT
10
0.291320
20
1.221549
30
0.0
11
0.288427
21
1.222928
31
0.0
0
LINE
8
FRONT
10
0.288427
20
1.222928
30
0.0
11
0.285459
21
1.224136
31
0.0
0
LINE
8
FRONT
10
0.285459
20
1.224136
30
0.0
11
0.282426
21
1.225170
31
0.0
0
LINE
8
FRONT
10
0.282426
20
1.225170
30
0.0
11
0.279337
21
1.226027
31
0.0
0
LINE
8
FRONT
10
0.279337
20
1.226027
30
0.0
11
0.276205
21
1.226703
31
0.0
0
LINE
8
FRONT
10
0.276205
20
1.226703
30
0.0
11
0.273038
21
1.227196
31
0.0
0
LINE
8
FRONT
10
0.273038
20
1.227196
30
0.0
11
0.269848
21
1.227505
31
0.0
0
LINE
8
FRONT
10
0.269848
20
1.227505
30
0.0
11
0.266646
21
1.227629
31
0.0
0
LINE
8
FRONT
10
0.266646
20
1.227629
30
0.0
11
0.263442
21
1.227567
31
0.0
0
LINE
8
FRONT
10
0.263442
20
1.227567
30
0.0
11
0.260246
21
1.227319
31
0.0
0
LINE
8
FRONT
10
0.260246
20
1.227319
30
0.0
11
0.257071
21
1.226886
31
0.0
0
LINE
8
FRONT
10
0.257071
20
1.226886
30
0.0
11
0.253926
21
1.226270
31
0.0
0
LINE
8
FRONT
10
0.253926
20
1.226270
30
0.0
11
0.250822
21
1.225473
31
0.0
0
LINE
8
FRONT
10
0.250822
20
1.225473
30
0.0
11
0.247769
21
1.224497
31
0.0
0
LINE
8
FRONT
10
0.247769
20
1.224497
30
0.0
11
0.244778
21
1.223346
31
0.0
0
LINE
8
FRONT
10
0.244778
20
1.223346
30
0.0
11
0.241859
21
1.222023
31
0.0
0
LINE
8
FRONT
10
0.241859
20
1.222023
30
0.0
11
0.239021
21
1.220534
31
0.0
0
LINE
8
FRONT
10
0.239021
20
1.124203
30
0.0
11
0.239414
21
1.123984
31
0.0
0
LINE
8
FRONT
10
0.239414
20
1.123984
30
0.0
11
0.239808
21
1.123769
31
0.0
0
LINE
8
FRONT
10
0.239808
20
1.123769
30
0.0
11
0.240205
21
1.123556
31
0.0
0
LINE
8
FRONT
10
0.240205
20
1.123556
30
0.0
11
0.240602
21
1.123347
31
0.0
0
LINE
8
FRONT
10
0.240602
20
1.123347
30
0.0
11
0.241002
21
1.123141
31
0.0
0
LINE
8
FRONT
10
0.241002
20
1.123141
30
0.0
11
0.241403
21
1.122939
31
0.0
0
LINE
8
FRONT
10
0.241403
20
1.122939
30
0.0
11
0.241806
21
1.122739
31
0.0
0
LINE
8
FRONT
10
0.241806
20
1.122739
30
0.0
11
0.242211
21
1.122543
31
0.0
0
LINE
8
FRONT
10
0.242211
20
1.122543
30
0.0
11
0.242617
21
1.122350
31
0.0
0
LINE
8
FRONT
10
0.242617
20
1.122350
30
0.0
11
0.243024
21
1.122161
31
0.0
0
LINE
8
FRONT
10
0.243024
20
1.122161
30
0.0
11
0.243433
21
1.121975
31
0.0
0
LINE
8
FRONT
10
0.243433
20
1.121975
30
0.0
11
0.243844
21
1.121792
31
0.0
0
LINE
8
FRONT
10
0.243844
20
1.121792
30
0.0
11
0.244256
21
1.121613
31
0.0
0
LINE
8
FRONT
10
0.244256
20
1.121613
30
0.0
11
0.244670
21
1.121436
31
0.0
0
LINE
8
FRONT
10
0.244670
20
1.121436
30
0.0
11
0.245085
21
1.121264
31
0.0
0
LINE
8
FRONT
10
0.245085
20
1.121264
30
0.0
11
0.245501
21
1.121094
31
0.0
0
LINE
8
FRONT
10
0.245501
20
1.121094
30
0.0
11
0.245919
21
1.120928
31
0.0
0
LINE
8
FRONT
10
0.245919
20
1.120928
30
0.0
11
0.246338
21
1.120766
31
0.0
0
LINE
8
FRONT
10
0.246338
20
1.120766
30
0.0
11
0.246758
21
1.120607
31
0.0
0
LINE
8
FRONT
10
0.246758
20
1.120607
30
0.0
11
0.247180
21
1.120451
31
0.0
0
LINE
8
FRONT
10
0.247180
20
1.120451
30
0.0
11
0.247603
21
1.120299
31
0.0
0
LINE
8
FRONT
10
0.247603
20
1.120299
30
0.0
11
0.248027
21
1.120150
31
0.0
0
LINE
8
FRONT
10
0.248027
20
1.120150
30
0.0
11
0.248452
21
1.120004
31
0.0
0
LINE
8
FRONT
10
0.248452
20
1.120004
30
0.0
11
0.248879
21
1.119862
31
0.0
0
LINE
8
FRONT
10
0.248879
20
1.119862
30
0.0
11
0.249306
21
1.119724
31
0.0
0
LINE
8
FRONT
10
0.249306
20
1.119724
30
0.0
11
0.249735
21
1.119589
31
0.0
0
LINE
8
FRONT
10
0.249735
20
1.119589
30
0.0
11
0.250165
21
1.119457
31
0.0
0
LINE
8
FRONT
10
0.250165
20
1.119457
30
0.0
11
0.250596
21
1.119329
31
0.0
0
LINE
8
FRONT
10
0.250596
20
1.119329
30
0.0
11
0.251027
21
1.119205
31
0.0
0
LINE
8
FRONT
10
0.251027
20
1.119205
30
0.0
11
0.251460
21
1.119084
31
0.0
0
LINE
8
FRONT
10
0.251460
20
1.119084
30
0.0
11
0.251894
21
1.118967
31
0.0
0
LINE
8
FRONT
10
0.251894
20
1.118967
30
0.0
11
0.252329
21
1.118853
31
0.0
0
LINE
8
FRONT
10
0.252329
20
1.118853
30
0.0
11
0.252765
21
1.118742
31
0.0
0
LINE
8
FRONT
10
0.252765
20
1.118742
30
0.0
11
0.253201
21
1.118635
31
0.0
0
LINE
8
FRONT
10
0.253201
20
1.118635
30
0.0
11
0.253639
21
1.118532
31
0.0
0
LINE
8
FRONT
10
0.253639
20
1.118532
30
0.0
11
0.254077
21
1.118433
31
0.0
0
LINE
8
FRONT
10
0.254077
20
1.118433
30
0.0
11
0.254516
21
1.118336
31
0.0
0
LINE
8
FRONT
10
0.254516
20
1.118336
30
0.0
11
0.254956
21
1.118244
31
0.0
0
LINE
8
FRONT
10
0.254956
20
1.118244
30
0.0
11
0.255397
21
1.118155
31
0.0
0
LINE
8
FRONT
10
0.255397
20
1.118155
30
0.0
11
0.255838
21
1.118069
31
0.0
0
LINE
8
FRONT
10
0.255838
20
1.118069
30
0.0
11
0.256280
21
1.117988
31
0.0
0
LINE
8
FRONT
10
0.256280
20
1.117988
30
0.0
11
0.256723
21
1.117909
31
0.0
0
LINE
8
FRONT
10
0.256723
20
1.117909
30
0.0
11
0.257166
21
1.117835
31
0.0
0
LINE
8
FRONT
10
0.257166
20
1.117835
30
0.0
11
0.257610
21
1.117764
31
0.0
0
LINE
8
FRONT
10
0.257610
20
1.117764
30
0.0
11
0.258054
21
1.117696
31
0.0
0
LINE
8
FRONT
10
0.258054
20
1.117696
30
0.0
11
0.258499
21
1.117633
31
0.0
0
LINE
8
FRONT
10
0.258499
20
1.117633
30
0.0
11
0.258944
21
1.117573
31
0.0
0
LINE
8
FRONT
10
0.258944
20
1.117573
30
0.0
11
0.259390
21
1.117516
31
0.0
0
LINE
8
FRONT
10
0.259390
20
1.117516
30
0.0
11
0.259837
21
1.117463
31
0.0
0
LINE
8
FRONT
10
0.259837
20
1.117463
30
0.0
11
0.260284
21
1.117414
31
0.0
0
LINE
8
FRONT
10
0.260284
20
1.117414
30
0.0
11
0.260731
21
1.117368
31
0.0
0
LINE
8
FRONT
10
0.260731
20
1.117368
30
0.0
11
0.261178
21
1.117326
31
0.0
0
LINE
8
FRONT
10
0.261178
20
1.117326
30
0.0
11
0.261626
21
1.117288
31
0.0
0
LINE
8
FRONT
10
0.261626
20
1.117288
30
0.0
11
0.262074
21
1.117253
31
0.0
0
LINE
8
FRONT
10
0.262074
20
1.117253
30
0.0
11
0.262523
21
1.117222
31
0.0
0
LINE
8
FRONT
10
0.262523
20
1.117222
30
0.0
11
0.262971
21
1.117195
31
0.0
0
LINE
8
FRONT
10
0.262971
20
1.117195
30
0.0
11
0.263420
21
1.117171
31
0.0
0
LINE
8
FRONT
10
0.263420
20
1.117171
30
0.0
11
0.263869
21
1.117151
31
0.0
0
LINE
8
FRONT
10
0.263869
20
1.117151
30
0.0
11
0.264318
21
1.117135
31
0.0
0
LINE
8
FRONT
10
0.264318
20
1.117135
30
0.0
11
0.264768
21
1.117122
31
0.0
0
LINE
8
FRONT
10
0.264768
20
1.117122
30
0.0
11
0.265217
21
1.117113
31
0.0
0
LINE
8
FRONT
10
0.265217
20
1.117113
30
0.0
11
0.265667
21
1.117107
31
0.0
0
LINE
8
FRONT
10
0.265667
20
1.117107
30
0.0
11
0.266116
21
1.117105
31
0.0
0
LINE
8
FRONT
10
0.263320
20
1.010526
30
0.0
11
0.264252
21
1.010529
31
0.0
0
LINE
8
FRONT
10
0.264252
20
1.010529
30
0.0
11
0.265184
21
1.010537
31
0.0
0
LINE
8
FRONT
10
0.265184
20
1.010537
30
0.0
11
0.266116
21
1.010550
31
0.0
0
LINE
8
FRONT
10
0.266116
20
1.010550
30
0.0
11
0.267048
21
1.010569
31
0.0
0
LINE
8
FRONT
10
0.267048
20
1.010569
30
0.0
11
0.267980
21
1.010593
31
0.0
0
LINE
8
FRONT
10
0.267980
20
1.010593
30
0.0
11
0.268912
21
1.010623
31
0.0
0
LINE
8
FRONT
10
0.268912
20
1.010623
30
0.0
11
0.269843
21
1.010658
31
0.0
0
LINE
8
FRONT
10
0.269843
20
1.010658
30
0.0
11
0.270775
21
1.010698
31
0.0
0
LINE
8
FRONT
10
0.270775
20
1.010698
30
0.0
11
0.271706
21
1.010744
31
0.0
0
LINE
8
FRONT
10
0.271706
20
1.010744
30
0.0
11
0.272636
21
1.010795
31
0.0
0
LINE
8
FRONT
10
0.272636
20
1.010795
30
0.0
11
0.273567
21
1.010851
31
0.0
0
LINE
8
FRONT
10
0.273567
20
1.010851
30
0.0
11
0.274497
21
1.010913
31
0.0
0
LINE
8
FRONT
10
0.274497
20
1.010913
30
0.0
11
0.275427
21
1.010980
31
0.0
0
LINE
8
FRONT
10
0.275427
20
1.010980
30
0.0
11
0.276356
21
1.011052
31
0.0
0
LINE
8
FRONT
10
0.276356
20
1.011052
30
0.0
11
0.277285
21
1.011130
31
0.0
0
LINE
8
FRONT
10
0.277285
20
1.011130
30
0.0
11
0.278213
21
1.011213
31
0.0
0
LINE
8
FRONT
10
0.278213
20
1.011213
30
0.0
11
0.279141
21
1.011301
31
0.0
0
LINE
8
FRONT
10
0.279141
20
1.011301
30
0.0
11
0.280069
21
1.011395
31
0.0
0
LINE
8
FRONT
10
0.280069
20
1.011395
30
0.0
11
0.280996
21
1.011494
31
0.0
0
LINE
8
FRONT
10
0.280996
20
1.011494
30
0.0
11
0.281922
21
1.011599
31
0.0
0
LINE
8
FRONT
10
0.281922
20
1.011599
30
0.0
11
0.282847
21
1.011709
31
0.0
0
LINE
8
FRONT
10
0.282847
20
1.011709
30
0.0
11
0.283772
21
1.011824
31
0.0
0
LINE
8
FRONT
10
0.283772
20
1.011824
30
0.0
11
0.284697
21
1.011944
31
0.0
0
LINE
8
FRONT
10
0.284697
20
1.011944
30
0.0
11
0.285620
21
1.012070
31
0.0
0
LINE
8
FRONT
10
0.285620
20
1.012070
30
0.0
11
0.286543
21
1.012201
31
0.0
0
LINE
8
FRONT
10
0.286543
20
1.012201
30
0.0
11
0.287465
21
1.012338
31
0.0
0
LINE
8
FRONT
10
0.287465
20
1.012338
30
0.0
11
0.288387
21
1.012479
31
0.0
0
LINE
8
FRONT
10
0.288387
20
1.012479
30
0.0
11
0.289307
21
1.012626
31
0.0
0
LINE
8
FRONT
10
0.289307
20
1.012626
30
0.0
11
0.290227
21
1.012779
31
0.0
0
LINE
8
FRONT
10
0.290227
20
1.012779
30
0.0
11
0.291146
21
1.012936
31
0.0
0
LINE
8
FRONT
10
0.291146
20
1.012936
30
0.0
11
0.292063
21
1.013099
31
0.0
0
LINE
8
FRONT
10
0.292063
20
1.013099
30
0.0
11
0.292980
21
1.013267
31
0.0
0
LINE
8
FRONT
10
0.292980
20
1.013267
30
0.0
11
0.293896
21
1.013441
31
0.0
0
LINE
8
FRONT
10
0.293896
20
1.013441
30
0.0
11
0.294811
21
1.013620
31
0.0
0
LINE
8
FRONT
10
0.294811
20
1.013620
30
0.0
11
0.295725
21
1.013804
31
0.0
0
LINE
8
FRONT
10
0.295725
20
1.013804
30
0.0
11
0.296638
21
1.013993
31
0.0
0
LINE
8
FRONT
10
0.296638
20
1.013993
30
0.0
11
0.297549
21
1.014187
31
0.0
0
LINE
8
FRONT
10
0.297549
20
1.014187
30
0.0
11
0.298460
21
1.014387
31
0.0
0
LINE
8
FRONT
10
0.298460
20
1.014387
30
0.0
11
0.299369
21
1.014592
31
0.0
0
LINE
8
FRONT
10
0.299369
20
1.014592
30
0.0
11
0.300277
21
1.014802
31
0.0
0
LINE
8
FRONT
10
0.300277
20
1.014802
30
0.0
11
0.301184
21
1.015018
31
0.0
0
LINE
8
FRONT
10
0.301184
20
1.015018
30
0.0
11
0.302090
21
1.015239
31
0.0
0
LINE
8
FRONT
10
0.302090
20
1.015239
30
0.0
11
0.302994
21
1.015465
31
0.0
0
LINE
8
FRONT
10
0.302994
20
1.015465
30
0.0
11
0.303897
21
1.015696
31
0.0
0
LINE
8
FRONT
10
0.303897
20
1.015696
30
0.0
11
0.304799
21
1.015932
31
0.0
0
LINE
8
FRONT
10
0.304799
20
1.015932
30
0.0
11
0.305699
21
1.016173
31
0.0
0
LINE
8
FRONT
10
0.305699
20
1.016173
30
0.0
11
0.306598
21
1.016420
31
0.0
0
LINE
8
FRONT
10
0.306598
20
1.016420
30
0.0
11
0.307496
21
1.016672
31
0.0
0
LINE
8
FRONT
10
0.307496
20
1.016672
30
0.0
11
0.308392
21
1.016929
31
0.0
0
LINE
8
FRONT
10
0.308392
20
1.016929
30
0.0
11
0.309286
21
1.017191
31
0.0
0
LINE
8
FRONT
10
0.309286
20
1.017191
30
0.0
11
0.310179
21
1.017458
31
0.0
0
LINE
8
FRONT
10
0.310179
20
1.017458
30
0.0
11
0.311071
21
1.017731
31
0.0
0
LINE
8
FRONT
10
0.311071
20
1.017731
30
0.0
11
0.311960
21
1.018009
31
0.0
0
LINE
8
FRONT
10
0.311960
20
1.018009
30
0.0
11
0.312849
21
1.018291
31
0.0
0
LINE
8
FRONT
10
0.312849
20
1.018291
30
0.0
11
0.313735
21
1.018579
31
0.0
0
LINE
8
FRONT
10
0.313735
20
1.018579
30
0.0
11
0.314620
21
1.018872
31
0.0
0
LINE
8
FRONT
10
0.314620
20
1.018872
30
0.0
11
0.315503
21
1.019170
31
0.0
0
LINE
8
FRONT
10
0.315503
20
1.019170
30
0.0
11
0.316385
21
1.019473
31
0.0
0
LINE
8
FRONT
10
0.316385
20
1.019473
30
0.0
11
0.317265
21
1.019781
31
0.0
0
LINE
8
FRONT
10
0.317265
20
1.019781
30
0.0
11
0.318143
21
1.020095
31
0.0
0
LINE
8
FRONT
10
0.318143
20
1.020095
30
0.0
11
0.319019
21
1.020413
31
0.0
0
LINE
8
FRONT
10
0.319019
20
1.020413
30
0.0
11
0.319893
21
1.020736
31
0.0
0
LINE
8
FRONT
10
0.319893
20
1.020736
30
0.0
11
0.320765
21
1.021064
31
0.0
0
LINE
8
FRONT
10
0.320765
20
1.323672
30
0.0
11
0.312264
21
1.326632
31
0.0
0
LINE
8
FRONT
10
0.312264
20
1.326632
30
0.0
11
0.303612
21
1.329115
31
0.0
0
LINE
8
FRONT
10
0.303612
20
1.329115
30
0.0
11
0.294835
21
1.331112
31
0.0
0
LINE
8
FRONT
10
0.294835
20
1.331112
30
0.0
11
0.285960
21
1.332619
31
0.0
0
LINE
8
FRONT
10
0.285960
20
1.332619
30
0.0
11
0.277016
21
1.333630
31
0.0
0
LINE
8
FRONT
10
0.277016
20
1.333630
30
0.0
11
0.268029
21
1.334142
31
0.0
0
LINE
8
FRONT
10
0.268029
20
1.334142
30
0.0
11
0.259028
21
1.334154
31
0.0
0
LINE
8
FRONT
10
0.259028
20
1.334154
30
0.0
11
0.250039
21
1.333665
31
0.0
0
LINE
8
FRONT
10
0.250039
20
1.333665
30
0.0
11
0.241092
21
1.332677
31
0.0
0
LINE
8
FRONT
10
0.241092
20
1.332677
30
0.0
11
0.232214
21
1.331193
31
0.0
0
LINE
8
FRONT
10
0.232214
20
1.331193
30
0.0
11
0.223432
21
1.329218
31
0.0
0
LINE
8
FRONT
10
0.223432
20
1.329218
30
0.0
11
0.214773
21
1.326758
31
0.0
0
LINE
8
FRONT
10
0.214773
20
1.326758
30
0.0
11
0.206264
21
1.323820
31
0.0
0
LINE
8
FRONT
10
0.206264
20
1.323820
30
0.0
11
0.197932
21
1.320413
31
0.0
0
LINE
8
FRONT
10
0.197932
20
1.320413
30
0.0
11
0.189802
21
1.316549
31
0.0
0
LINE
8
FRONT
10
0.189802
20
1.316549
30
0.0
11
0.181900
21
1.312239
31
0.0
0
LINE
8
FRONT
10
0.181900
20
1.312239
30
0.0
11
0.174250
21
1.307496
31
0.0
0
LINE
8
FRONT
10
0.174250
20
1.307496
30
0.0
11
0.166875
21
1.302334
31
0.0
0
LINE
8
FRONT
10
0.166875
20
1.302334
30
0.0
11
0.159798
21
1.296771
31
0.0
0
LINE
8
FRONT
10
0.159798
20
1.296771
30
0.0
11
0.153042
21
1.290823
31
0.0
0
LINE
8
FRONT
10
0.153042
20
1.290823
30
0.0
11
0.146626
21
1.284509
31
0.0
0
LINE
8
FRONT
10
0.146626
20
1.284509
30
0.0
11
0.140572
21
1.277848
31
0.0
0
LINE
8
FRONT
10
0.140572
20
1.277848
30
0.0
11
0.134898
21
1.270860
31
0.0
0
LINE
8
FRONT
10
0.134898
20
1.270860
30
0.0
11
0.129620
21
1.263568
31
0.0
0
LINE
8
FRONT
10
0.129620
20
1.263568
30
0.0
11
0.124757
21
1.255993
31
0.0
0
LINE
8
FRONT
10
0.124757
20
1.255993
30
0.0
11
0.120322
21
1.248160
31
0.0
0
LINE
8
FRONT
10
0.120322
20
1.248160
30
0.0
11
0.116329
21
1.240093
31
0.0
0
LINE
8
FRONT
10
0.116329
20
1.240093
30
0.0
11
0.112791
21
1.231815
31
0.0
0
LINE
8
FRONT
10
0.112791
20
1.231815
30
0.0
11
0.109719
21
1.223354
31
0.0
0
LINE
8
FRONT
10
0.109719
20
1.223354
30
0.0
11
0.107122
21
1.214736
31
0.0
0
LINE
8
FRONT
10
0.107122
20
1.214736
30
0.0
11
0.105008
21
1.205986
31
0.0
0
LINE
8
FRONT
10
0.105008
20
1.205986
30
0.0
11
0.103384
21
1.197132
31
0.0
0
LINE
8
FRONT
10
0.103384
20
1.197132
30
0.0
11
0.102254
21
1.188202
31
0.0
0
LINE
8
FRONT
10
0.102254
20
1.188202
30
0.0
11
0.101623
21
1.179223
31
0.0
0
LINE
8
FRONT
10
0.101623
20
1.179223
30
0.0
11
0.101492
21
1.170222
31
0.0
0
LINE
8
FRONT
10
0.101492
20
1.170222
30
0.0
11
0.101862
21
1.161228
31
0.0
0
LINE
8
FRONT
10
0.101862
20
1.161228
30
0.0
11
0.102731
21
1.152269
31
0.0
0
LINE
8
FRONT
10
0.102731
20
1.152269
30
0.0
11
0.104097
21
1.143371
31
0.0
0
LINE
8
FRONT
10
0.104097
20
1.143371
30
0.0
11
0.105955
21
1.134564
31
0.0
0
LINE
8
FRONT
10
0.105955
20
1.134564
30
0.0
11
0.108300
21
1.125873
31
0.0
0
LINE
8
FRONT
10
0.108300
20
1.125873
30
0.0
11
0.111125
21
1.117326
31
0.0
0
LINE
8
FRONT
10
0.111125
20
1.117326
30
0.0
11
0.114421
21
1.108950
31
0.0
0
LINE
8
FRONT
10
0.114421
20
1.108950
30
0.0
11
0.118177
21
1.100770
31
0.0
0
LINE
8
FRONT
10
0.118177
20
1.100770
30
0.0
11
0.122382
21
1.092811
31
0.0
0
LINE
8
FRONT
10
0.122382
20
1.092811
30
0.0
11
0.127023
21
1.085098
31
0.0
0
LINE
8
FRONT
10
0.127023
20
1.085098
30
0.0
11
0.132086
21
1.077655
31
0.0
0
LINE
8
FRONT
10
0.132086
20
1.077655
30
0.0
11
0.137555
21
1.070505
31
0.0
0
LINE
8
FRONT
10
0.137555
20
1.070505
30
0.0
11
0.143413
21
1.063671
31
0.0
0
LINE
8
FRONT
10
0.143413
20
1.063671
30
0.0
11
0.149642
21
1.057172
31
0.0
0
LINE
8
FRONT
10
0.149642
20
1.057172
30
0.0
11
0.156222
21
1.051030
31
0.0
0
LINE
8
FRONT
10
0.156222
20
1.051030
30
0.0
11
0.163134
21
1.045264
31
0.0
0
LINE
8
FRONT
10
0.163134
20
1.045264
30
0.0
11
0.170356
21
1.039890
31
0.0
0
LINE
8
FRONT
10
0.170356
20
1.039890
30
0.0
11
0.177865
21
1.034926
31
0.0
0
LINE
8
FRONT
10
0.177865
20
1.034926
30
0.0
11
0.185638
21
1.030388
31
0.0
0
LINE
8
FRONT
10
0.185638
20
1.030388
30
0.0
11
0.193652
21
1.026289
31
0.0
0
LINE
8
FRONT
10
0.193652
20
1.026289
30
0.0
11
0.201882
21
1.022641
31
0.0
0
LINE
8
FRONT
10
0.201882
20
1.022641
30
0.0
11
0.210301
21
1.019457
31
0.0
0
LINE
8
FRONT
10
0.210301
20
1.019457
30
0.0
11
0.218885
21
1.016746
31
0.0
0
LINE
8
FRONT
10
0.218885
20
1.016746
30
0.0
11
0.227606
21
1.014516
31
0.0
0
LINE
8
FRONT
10
0.227606
20
1.014516
30
0.0
11
0.236437
21
1.012775
31
0.0
0
LINE
8
FRONT
10
0.236437
20
1.012775
30
0.0
11
0.245352
21
1.011527
31
0.0
0
LINE
8
FRONT
10
0.245352
20
1.011527
30
0.0
11
0.254322
21
1.010777
31
0.0
0
LINE
8
FRONT
10
0.254322
20
1.010777
30
0.0
11
0.263320
21
1.010526
31
0.0
0
LINE
8
FRONT
10
0.272284
20
0.900000
30
0.0
11
0.299403
21
0.901353
31
0.0
0
LINE
8
FRONT
10
0.299403
20
0.901353
30
0.0
11
0.326253
21
0.905400
31
0.0
0
LINE
8
FRONT
10
0.326253
20
0.905400
30
0.0
11
0.352566
21
0.912101
31
0.0
0
LINE
8
FRONT
10
0.352566
20
0.912101
30
0.0
11
0.378081
21
0.921387
31
0.0
0
LINE
8
FRONT
10
0.378081
20
0.921387
30
0.0
11
0.402545
21
0.933169
31
0.0
0
LINE
8
FRONT
10
0.402545
20
0.933169
30
0.0
11
0.425714
21
0.947327
31
0.0
0
LINE
8
FRONT
10
0.425714
20
0.947327
30
0.0
11
0.447359
21
0.963722
31
0.0
0
LINE
8
FRONT
10
0.447359
20
0.963722
30
0.0
11
0.467263
21
0.982191
31
0.0
0
LINE
8
FRONT
10
0.467263
20
0.982191
30
0.0
11
0.485230
21
1.002549
31
0.0
0
LINE
8
FRONT
10
0.485230
20
1.002549
30
0.0
11
0.501080
21
1.024596
31
0.0
0
LINE
8
FRONT
10
0.501080
20
1.024596
30
0.0
11
0.514657
21
1.048111
31
0.0
0
LINE
8
FRONT
10
0.514657
20
1.048111
30
0.0
11
0.525824
21
1.072861
31
0.0
0
LINE
8
FRONT
10
0.525824
20
1.072861
30
0.0
11
0.534472
21
1.098600
31
0.0
0
LINE
8
FRONT
10
0.534472
20
1.098600
30
0.0
11
0.540514
21
1.125072
31
0.0
0
LINE
8
FRONT
10
0.540514
20
1.125072
30
0.0
11
0.543891
21
1.152014
31
0.0
0
LINE
8
FRONT
10
0.543891
20
1.152014
30
0.0
11
0.544568
21
1.179159
31
0.0
0
LINE
8
FRONT
10
0.544568
20
1.179159
30
0.0
11
0.542538
21
1.206236
31
0.0
0
LINE
8
FRONT
10
0.542538
20
1.206236
30
0.0
11
0.537823
21
1.232976
31
0.0
0
LINE
8
FRONT
10
0.537823
20
1.232976
30
0.0
11
0.530469
21
1.259114
31
0.0
0
LINE
8
FRONT
10
0.530469
20
1.259114
30
0.0
11
0.520549
21
1.284390
31
0.0
0
LINE
8
FRONT
10
0.520549
20
1.284390
30
0.0
11
0.508162
21
1.308553
31
0.0
0
LINE
8
FRONT
10
0.508162
20
1.308553
30
0.0
11
0.493430
21
1.331362
31
0.0
0
LINE
8
FRONT
10
0.493430
20
1.331362
30
0.0
11
0.476500
21
1.352591
31
0.0
0
LINE
8
FRONT
10
0.476500
20
1.352591
30
0.0
11
0.457541
21
1.372029
31
0.0
0
LINE
8
FRONT
10
0.457541
20
1.372029
30
0.0
11
0.436741
21
1.389482
31
0.0
0
LINE
8
FRONT
10
0.436741
20
1.389482
30
0.0
11
0.414306
21
1.404778
31
0.0
0
LINE
8
FRONT
10
0.414306
20
1.404778
30
0.0
11
0.390460
21
1.417764
31
0.0
0
LINE
8
FRONT
10
0.390460
20
1.417764
30
0.0
11
0.365439
21
1.428311
31
0.0
0
LINE
8
FRONT
10
0.365439
20
1.428311
30
0.0
11
0.339493
21
1.436314
31
0.0
0
LINE
8
FRONT
10
0.339493
20
1.436314
30
0.0
11
0.312878
21
1.441695
31
0.0
0
LINE
8
FRONT
10
0.312878
20
1.441695
30
0.0
11
0.285860
21
1.444398
31
0.0
0
LINE
8
FRONT
10
0.285860
20
1.444398
30
0.0
11
0.258707
21
1.444398
31
0.0
0
LINE
8
FRONT
10
0.258707
20
1.444398
30
0.0
11
0.231689
21
1.441695
31
0.0
0
LINE
8
FRONT
10
0.231689
20
1.441695
30
0.0
11
0.205075
21
1.436314
31
0.0
0
LINE
8
FRONT
10
0.205075
20
1.436314
30
0.0
11
0.179128
21
1.428311
31
0.0
0
LINE
8
FRONT
10
0.179128
20
1.428311
30
0.0
11
0.154108
21
1.417764
31
0.0
0
LINE
8
FRONT
10
0.154108
20
1.417764
30
0.0
11
0.130261
21
1.404778
31
0.0
0
LINE
8
FRONT
10
0.130261
20
1.404778
30
0.0
11
0.107827
21
1.389482
31
0.0
0
LINE
8
FRONT
10
0.107827
20
1.389482
30
0.0
11
0.087026
21
1.372029
31
0.0
0
LINE
8
FRONT
10
0.087026
20
1.372029
30
0.0
11
0.068067
21
1.352591
31
0.0
0
LINE
8
FRONT
10
0.068067
20
1.352591
30
0.0
11
0.051137
21
1.331362
31
0.0
0
LINE
8
FRONT
10
0.051137
20
1.331362
30
0.0
11
0.036406
21
1.308553
31
0.0
0
LINE
8
FRONT
10
0.036406
20
1.308553
30
0.0
11
0.024018
21
1.284390
31
0.0
0
LINE
8
FRONT
10
0.024018
20
1.284390
30
0.0
11
0.014098
21
1.259114
31
0.0
0
LINE
8
FRONT
10
0.014098
20
1.259114
30
0.0
11
0.006744
21
1.232976
31
0.0
0
LINE
8
FRONT
10
0.006744
20
1.232976
30
0.0
11
0.002029
21
1.206236
31
0.0
0
LINE
8
FRONT
10
0.002029
20
1.206236
30
0.0
11
0.000000
21
1.179159
31
0.0
0
LINE
8
FRONT
10
0.000000
20
1.179159
30
0.0
11
0.000677
21
1.152014
31
0.0
0
LINE
8
FRONT
10
0.000677
20
1.152014
30
0.0
11
0.004053
21
1.125072
31
0.0
0
LINE
8
FRONT
10
0.004053
20
1.125072
30
0.0
11
0.010095
21
1.098600
31
0.0
0
LINE
8
FRONT
10
0.010095
20
1.098600
30
0.0
11
0.018743
21
1.072861
31
0.0
0
LINE
8
FRONT
10
0.018743
20
1.072861
30
0.0
11
0.029911
21
1.048111
31
0.0
0
LINE
8
FRONT
10
0.029911
20
1.048111
30
0.0
11
0.043487
21
1.024596
31
0.0
0
LINE
8
FRONT
10
0.043487
20
1.024596
30
0.0
11
0.059338
21
1.002549
31
0.0
0
LINE
8
FRONT
10
0.059338
20
1.002549
30
0.0
11
0.077304
21
0.982191
31
0.0
0
LINE
8
FRONT
10
0.077304
20
0.982191
30
0.0
11
0.097209
21
0.963722
31
0.0
0
LINE
8
FRONT
10
0.097209
20
0.963722
30
0.0
11
0.118853
21
0.947327
31
0.0
0
LINE
8
FRONT
10
0.118853
20
0.947327
30
0.0
11
0.142022
21
0.933169
31
0.0
0
LINE
8
FRONT
10
0.142022
20
0.933169
30
0.0
11
0.166486
21
0.921387
31
0.0
0
LINE
8
FRONT
10
0.166486
20
0.921387
30
0.0
11
0.192002
21
0.912101
31
0.0
0
LINE
8
FRONT
10
0.192002
20
0.912101
30
0.0
11
0.218315
21
0.905400
31
0.0
0
LINE
8
FRONT
10
0.218315
20
0.905400
30
0.0
11
0.245165
21
0.901353
31
0.0
0
LINE
8
FRONT
10
0.245165
20
0.901353
30
0.0
11
0.272284
21
0.900000
31
0.0
0
LINE
8
FRONT
10
0.320765
20
1.021064
30
0.0
11
0.326781
21
1.023125
31
0.0
0
LINE
8
FRONT
10
0.326781
20
1.023125
30
0.0
11
0.332708
21
1.025425
31
0.0
0
LINE
8
FRONT
10
0.332708
20
1.025425
30
0.0
11
0.338539
21
1.027961
31
0.0
0
LINE
8
FRONT
10
0.338539
20
1.027961
30
0.0
11
0.344264
21
1.030728
31
0.0
0
LINE
8
FRONT
10
0.344264
20
1.030728
30
0.0
11
0.349874
21
1.033721
31
0.0
0
LINE
8
FRONT
10
0.349874
20
1.033721
30
0.0
11
0.355359
21
1.036937
31
0.0
0
LINE
8
FRONT
10
0.355359
20
1.036937
30
0.0
11
0.360712
21
1.040369
31
0.0
0
LINE
8
FRONT
10
0.360712
20
1.040369
30
0.0
11
0.365922
21
1.044013
31
0.0
0
LINE
8
FRONT
10
0.365922
20
1.044013
30
0.0
11
0.370983
21
1.047862
31
0.0
0
LINE
8
FRONT
10
0.370983
20
1.047862
30
0.0
11
0.375886
21
1.051911
31
0.0
0
LINE
8
FRONT
10
0.375886
20
1.051911
30
0.0
11
0.380623
21
1.056153
31
0.0
0
LINE
8
FRONT
10
0.380623
20
1.056153
30
0.0
11
0.385186
21
1.060581
31
0.0
0
LINE
8
FRONT
10
0.385186
20
1.060581
30
0.0
11
0.389568
21
1.065188
31
0.0
0
LINE
8
FRONT
10
0.389568
20
1.065188
30
0.0
11
0.393763
21
1.069966
31
0.0
0
LINE
8
FRONT
10
0.393763
20
1.069966
30
0.0
11
0.397763
21
1.074909
31
0.0
0
LINE
8
FRONT
10
0.397763
20
1.074909
30
0.0
11
0.401562
21
1.080008
31
0.0
0
LINE
8
FRONT
10
0.401562
20
1.080008
30
0.0
11
0.405154
21
1.085254
31
0.0
0
LINE
8
FRONT
10
0.405154
20
1.085254
30
0.0
11
0.408533
21
1.090640
31
0.0
0
LINE
8
FRONT
10
0.408533
20
1.090640
30
0.0
11
0.411694
21
1.096157
31
0.0
0
LINE
8
FRONT
10
0.411694
20
1.096157
30
0.0
11
0.414632
21
1.101796
31
0.0
0
LINE
8
FRONT
10
0.414632
20
1.101796
30
0.0
11
0.417341
21
1.107549
31
0.0
0
LINE
8
FRONT
10
0.417341
20
1.107549
30
0.0
11
0.419819
21
1.113405
31
0.0
0
LINE
8
FRONT
10
0.419819
20
1.113405
30
0.0
11
0.422060
21
1.119355
31
0.0
0
LINE
8
FRONT
10
0.422060
20
1.119355
30
0.0
11
0.424061
21
1.125390
31
0.0
0
LINE
8
FRONT
10
0.424061
20
1.125390
30
0.0
11
0.425819
21
1.131501
31
0.0
0
LINE
8
FRONT
10
0.425819
20
1.131501
30
0.0
11
0.427332
21
1.137677
31
0.0
0
LINE
8
FRONT
10
0.427332
20
1.137677
30
0.0
11
0.428596
21
1.143908
31
0.0
0
LINE
8
FRONT
10
0.428596
20
1.143908
30
0.0
11
0.429609
21
1.150185
31
0.0
0
LINE
8
FRONT
10
0.429609
20
1.150185
30
0.0
11
0.430371
21
1.156498
31
0.0
0
LINE
8
FRONT
10
0.430371
20
1.156498
30
0.0
11
0.430879
21
1.162836
31
0.0
0
LINE
8
FRONT
10
0.430879
20
1.162836
30
0.0
11
0.431134
21
1.169189
31
0.0
0
LINE
8
FRONT
10
0.431134
20
1.169189
30
0.0
11
0.431134
21
1.175548
31
0.0
0
LINE
8
FRONT
10
0.431134
20
1.175548
30
0.0
11
0.430879
21
1.181901
31
0.0
0
LINE
8
FRONT
10
0.430879
20
1.181901
30
0.0
11
0.430371
21
1.188239
31
0.0
0
LINE
8
FRONT
10
0.430371
20
1.188239
30
0.0
11
0.429609
21
1.194552
31
0.0
0
LINE
8
FRONT
10
0.429609
20
1.194552
30
0.0
11
0.428596
21
1.200829
31
0.0
0
LINE
8
FRONT
10
0.428596
20
1.200829
30
0.0
11
0.427332
21
1.207060
31
0.0
0
LINE
8
FRONT
10
0.427332
20
1.207060
30
0.0
11
0.425819
21
1.213236
31
0.0
0
LINE
8
FRONT
10
0.425819
20
1.213236
30
0.0
11
0.424061
21
1.219347
31
0.0
0
LINE
8
FRONT
10
0.424061
20
1.219347
30
0.0
11
0.422060
21
1.225382
31
0.0
0
LINE
8
FRONT
10
0.422060
20
1.225382
30
0.0
11
0.419819
21
1.231332
31
0.0
0
LINE
8
FRONT
10
0.419819
20
1.231332
30
0.0
11
0.417341
21
1.237188
31
0.0
0
LINE
8
FRONT
10
0.417341
20
1.237188
30
0.0
11
0.414632
21
1.242940
31
0.0
0
LINE
8
FRONT
10
0.414632
20
1.242940
30
0.0
11
0.411694
21
1.248579
31
0.0
0
LINE
8
FRONT
10
0.411694
20
1.248579
30
0.0
11
0.408533
21
1.254096
31
0.0
0
LINE
8
FRONT
10
0.408533
20
1.254096
30
0.0
11
0.405154
21
1.259483
31
0.0
0
LINE
8
FRONT
10
0.405154
20
1.259483
30
0.0
11
0.401562
21
1.264729
31
0.0
0
LINE
8
FRONT
10
0.401562
20
1.264729
30
0.0
11
0.397763
21
1.269828
31
0.0
0
LINE
8
FRONT
10
0.397763
20
1.269828
30
0.0
11
0.393763
21
1.274771
31
0.0
0
LINE
8
FRONT
10
0.393763
20
1.274771
30
0.0
11
0.389568
21
1.279549
31
0.0
0
LINE
8
FRONT
10
0.389568
20
1.279549
30
0.0
11
0.385186
21
1.284156
31
0.0
0
LINE
8
FRONT
10
0.385186
20
1.284156
30
0.0
11
0.380623
21
1.288584
31
0.0
0
LINE
8
FRONT
10
0.380623
20
1.288584
30
0.0
11
0.375886
21
1.292826
31
0.0
0
LINE
8
FRONT
10
0.375886
20
1.292826
30
0.0
11
0.370983
21
1.296875
31
0.0
0
LINE
8
FRONT
10
0.370983
20
1.296875
30
0.0
11
0.365922
21
1.300724
31
0.0
0
LINE
8
FRONT
10
0.365922
20
1.300724
30
0.0
11
0.360712
21
1.304368
31
0.0
0
LINE
8
FRONT
10
0.360712
20
1.304368
30
0.0
11
0.355359
21
1.307800
31
0.0
0
LINE
8
FRONT
10
0.355359
20
1.307800
30
0.0
11
0.349874
21
1.311016
31
0.0
0
LINE
8
FRONT
10
0.349874
20
1.311016
30
0.0
11
0.344264
21
1.314009
31
0.0
0
LINE
8
FRONT
10
0.344264
20
1.314009
30
0.0
11
0.338539
21
1.316776
31
0.0
0
LINE
8
FRONT
10
0.338539
20
1.316776
30
0.0
11
0.332708
21
1.319311
31
0.0
0
LINE
8
FRONT
10
0.332708
20
1.319311
30
0.0
11
0.326781
21
1.321611
31
0.0
0
LINE
8
FRONT
10
0.326781
20
1.321611
30
0.0
11
0.320765
21
1.323672
31
0.0
0
LINE
8
FRONT
10
0.239021
20
1.220534
30
0.0
11
0.237419
21
1.219596
31
0.0
0
LINE
8
FRONT
10
0.237419
20
1.219596
30
0.0
11
0.235848
21
1.218606
31
0.0
0
LINE
8
FRONT
10
0.235848
20
1.218606
30
0.0
11
0.234312
21
1.217563
31
0.0
0
LINE
8
FRONT
10
0.234312
20
1.217563
30
0.0
11
0.232812
21
1.216469
31
0.0
0
LINE
8
FRONT
10
0.232812
20
1.216469
30
0.0
11
0.231349
21
1.215325
31
0.0
0
LINE
8
FRONT
10
0.231349
20
1.215325
30
0.0
11
0.229926
21
1.214133
31
0.0
0
LINE
8
FRONT
10
0.229926
20
1.214133
30
0.0
11
0.228543
21
1.212894
31
0.0
0
LINE
8
FRONT
10
0.228543
20
1.212894
30
0.0
11
0.227203
21
1.211609
31
0.0
0
LINE
8
FRONT
10
0.227203
20
1.211609
30
0.0
11
0.225907
21
1.210279
31
0.0
0
LINE
8
FRONT
10
0.225907
20
1.210279
30
0.0
11
0.224656
21
1.208907
31
0.0
0
LINE
8
FRONT
10
0.224656
20
1.208907
30
0.0
11
0.223452
21
1.207494
31
0.0
0
LINE
8
FRONT
10
0.223452
20
1.207494
30
0.0
11
0.222296
21
1.206041
31
0.0
0
LINE
8
FRONT
10
0.222296
20
1.206041
30
0.0
11
0.221190
21
1.204550
31
0.0
0
LINE
8
FRONT
10
0.221190
20
1.204550
30
0.0
11
0.220134
21
1.203022
31
0.0
0
LINE
8
FRONT
10
0.220134
20
1.203022
30
0.0
11
0.219130
21
1.201460
31
0.0
0
LINE
8
FRONT
10
0.219130
20
1.201460
30
0.0
11
0.218179
21
1.199866
31
0.0
0
LINE
8
FRONT
10
0.218179
20
1.199866
30
0.0
11
0.217283
21
1.198240
31
0.0
0
LINE
8
FRONT
10
0.217283
20
1.198240
30
0.0
11
0.216441
21
1.196585
31
0.0
0
LINE
8
FRONT
10
0.216441
20
1.196585
30
0.0
11
0.215656
21
1.194902
31
0.0
0
LINE
8
FRONT
10
0.215656
20
1.194902
30
0.0
11
0.214927
21
1.193194
31
0.0
0
LINE
8
FRONT
10
0.214927
20
1.193194
30
0.0
11
0.214256
21
1.191463
31
0.0
0
LINE
8
FRONT
10
0.214256
20
1.191463
30
0.0
11
0.213644
21
1.189710
31
0.0
0
LINE
8
FRONT
10
0.213644
20
1.189710
30
0.0
11
0.213091
21
1.187938
31
0.0
0
LINE
8
FRONT
10
0.213091
20
1.187938
30
0.0
11
0.212598
21
1.186148
31
0.0
0
LINE
8
FRONT
10
0.212598
20
1.186148
30
0.0
11
0.212166
21
1.184342
31
0.0
0
LINE
8
FRONT
10
0.212166
20
1.184342
30
0.0
11
0.211794
21
1.182523
31
0.0
0
LINE
8
FRONT
10
0.211794
20
1.182523
30
0.0
11
0.211483
21
1.180692
31
0.0
0
LINE
8
FRONT
10
0.211483
20
1.180692
30
0.0
11
0.211235
21
1.178852
31
0.0
0
LINE
8
FRONT
10
0.211235
20
1.178852
30
0.0
11
0.211048
21
1.177005
31
0.0
0
LINE
8
FRONT
10
0.211048
20
1.177005
30
0.0
11
0.210923
21
1.175152
31
0.0
0
LINE
8
FRONT
10
0.210923
20
1.175152
30
0.0
11
0.210861
21
1.173297
31
0.0
0
LINE
8
FRONT
10
0.210861
20
1.173297
30
0.0
11
0.210861
21
1.171440
31
0.0
0
LINE
8
FRONT
10
0.210861
20
1.171440
30
0.0
11
0.210923
21
1.169584
31
0.0
0
LINE
8
FRONT
10
0.210923
20
1.169584
30
0.0
11
0.211048
21
1.167732
31
0.0
0
LINE
8
FRONT
10
0.211048
20
1.167732
30
0.0
11
0.211235
21
1.165885
31
0.0
0
LINE
8
FRONT
10
0.211235
20
1.165885
30
0.0
11
0.211483
21
1.164045
31
0.0
0
LINE
8
FRONT
10
0.211483
20
1.164045
30
0.0
11
0.211794
21
1.162214
31
0.0
0
LINE
8
FRONT
10
0.211794
20
1.162214
30
0.0
11
0.212166
21
1.160395
31
0.0
0
LINE
8
FRONT
10
0.212166
20
1.160395
30
0.0
11
0.212598
21
1.158589
31
0.0
0
LINE
8
FRONT
10
0.212598
20
1.158589
30
0.0
11
0.213091
21
1.156799
31
0.0
0
LINE
8
FRONT
10
0.213091
20
1.156799
30
0.0
11
0.213644
21
1.155027
31
0.0
0
LINE
8
FRONT
10
0.213644
20
1.155027
30
0.0
11
0.214256
21
1.153274
31
0.0
0
LINE
8
FRONT
10
0.214256
20
1.153274
30
0.0
11
0.214927
21
1.151543
31
0.0
0
LINE
8
FRONT
10
0.214927
20
1.151543
30
0.0
11
0.215656
21
1.149835
31
0.0
0
LINE
8
FRONT
10
0.215656
20
1.149835
30
0.0
11
0.216441
21
1.148152
31
0.0
0
LINE
8
FRONT
10
0.216441
20
1.148152
30
0.0
11
0.217283
21
1.146497
31
0.0
0
LINE
8
FRONT
10
0.217283
20
1.146497
30
0.0
11
0.218179
21
1.144871
31
0.0
0
LINE
8
FRONT
10
0.218179
20
1.144871
30
0.0
11
0.219130
21
1.143277
31
0.0
0
LINE
8
FRONT
10
0.219130
20
1.143277
30
0.0
11
0.220134
21
1.141715
31
0.0
0
LINE
8
FRONT
10
0.220134
20
1.141715
30
0.0
11
0.221190
21
1.140187
31
0.0
0
LINE
8
FRONT
10
0.221190
20
1.140187
30
0.0
11
0.222296
21
1.138696
31
0.0
0
LINE
8
FRONT
10
0.222296
20
1.138696
30
0.0
11
0.223452
21
1.137243
31
0.0
0
LINE
8
FRONT
10
0.223452
20
1.137243
30
0.0
11
0.224656
21
1.135830
31
0.0
0
LINE
8
FRONT
10
0.224656
20
1.135830
30
0.0
11
0.225907
21
1.134458
31
0.0
0
LINE
8
FRONT
10
0.225907
20
1.134458
30
0.0
11
0.227203
21
1.133128
31
0.0
0
LINE
8
FRONT
10
0.227203
20
1.133128
30
0.0
11
0.228543
21
1.131843
31
0.0
0
LINE
8
FRONT
10
0.228543
20
1.131843
30
0.0
11
0.229926
21
1.130604
31
0.0
0
LINE
8
FRONT
10
0.229926
20
1.130604
30
0.0
11
0.231349
21
1.129412
31
0.0
0
LINE
8
FRONT
10
0.231349
20
1.129412
30
0.0
11
0.232812
21
1.128268
31
0.0
0
LINE
8
FRONT
10
0.232812
20
1.128268
30
0.0
11
0.234312
21
1.127174
31
0.0
0
LINE
8
FRONT
10
0.234312
20
1.127174
30
0.0
11
0.235848
21
1.126131
31
0.0
0
LINE
8
FRONT
10
0.235848
20
1.126131
30
0.0
11
0.237419
21
1.125140
31
0.0
0
LINE
8
FRONT
10
0.237419
20
1.125140
30
0.0
11
0.239021
21
1.124203
31
0.0
0
LINE
8
LEFT
10
0.694568
20
1.444737
30
0.0
11
0.694568
21
0.900000
31
0.0
0
LINE
8
LEFT
10
0.694568
20
0.900000
30
0.0
11
1.444568
21
0.900000
31
0.0
0
LINE
8
LEFT
10
1.444568
20
1.444737
30
0.0
11
1.444568
21
0.900000
31
0.0
0
LINE
8
LEFT
10
1.444568
20
1.444737
30
0.0
11
0.694568
21
1.444737
31
0.0
0
LINE
8
LEFT_HID
6
HIDDEN
10
0.905505
20
1.010526
30
0.0
11
0.905505
21
1.021064
31
0.0
0
LINE
8
LEFT_HID
6
HIDDEN
10
0.905505
20
1.021064
30
0.0
11
0.905505
21
1.323672
31
0.0
0
LINE
8
LEFT_HID
6
HIDDEN
10
0.905505
20
1.323672
30
0.0
11
0.905505
21
1.334211
31
0.0
0
LINE
8
LEFT_HID
6
HIDDEN
10
0.905505
20
1.334211
30
0.0
11
0.905505
21
1.010526
31
0.0
0
LINE
8
LEFT_HID
6
HIDDEN
10
0.905505
20
1.220534
30
0.0
11
0.905505
21
1.124203
31
0.0
0
LINE
8
LEFT_HID
6
HIDDEN
10
0.905505
20
1.117105
30
0.0
11
0.905505
21
1.227632
31
0.0
0
LINE
8
LEFT_HID
6
HIDDEN
10
0.905505
20
1.227632
30
0.0
11
0.905505
21
1.220534
31
0.0
0
LINE
8
LEFT_HID
6
HIDDEN
10
0.905505
20
1.124203
30
0.0
11
0.905505
21
1.117105
31
0.0
0
LINE
8
LEFT_HID
6
HIDDEN
10
0.905505
20
1.021064
30
0.0
11
0.694568
21
1.021064
31
0.0
0
LINE
8
LEFT_HID
6
HIDDEN
10
0.694568
20
1.010526
30
0.0
11
0.905505
21
1.010526
31
0.0
0
LINE
8
LEFT_HID
6
HIDDEN
10
0.694568
20
1.010526
30
0.0
11
0.694568
21
1.021064
31
0.0
0
LINE
8
LEFT_HID
6
HIDDEN
10
0.905505
20
1.323672
30
0.0
11
0.694568
21
1.323672
31
0.0
0
LINE
8
LEFT_HID
6
HIDDEN
10
0.694568
20
1.323672
30
0.0
11
0.694568
21
1.334211
31
0.0
0
LINE
8
LEFT_HID
6
HIDDEN
10
0.694568
20
1.334211
30
0.0
11
0.694568
21
1.010526
31
0.0
0
LINE
8
LEFT_HID
6
HIDDEN
10
1.444568
20
1.323672
30
0.0
11
0.905505
21
1.323672
31
0.0
0
LINE
8
LEFT_HID
6
HIDDEN
10
1.444568
20
1.021064
30
0.0
11
1.444568
21
1.323672
31
0.0
0
LINE
8
LEFT_HID
6
HIDDEN
10
1.444568
20
1.021064
30
0.0
11
0.905505
21
1.021064
31
0.0
0
LINE
8
LEFT_HID
6
HIDDEN
10
1.335193
20
1.124203
30
0.0
11
0.905505
21
1.124203
31
0.0
0
LINE
8
LEFT_HID
6
HIDDEN
10
1.444568
20
1.124203
30
0.0
11
1.335193
21
1.124203
31
0.0
0
LINE
8
LEFT_HID
6
HIDDEN
10
1.444568
20
1.220534
30
0.0
11
1.444568
21
1.124203
31
0.0
0
LINE
8
LEFT_HID
6
HIDDEN
10
1.444568
20
1.220534
30
0.0
11
1.335193
21
1.220534
31
0.0
0
LINE
8
LEFT_HID
6
HIDDEN
10
1.335193
20
1.220534
30
0.0
11
0.905505
21
1.220534
31
0.0
0
LINE
8
LEFT_HID
6
HIDDEN
10
1.335193
20
1.124203
30
0.0
11
1.335193
21
1.117105
31
0.0
0
LINE
8
LEFT_HID
6
HIDDEN
10
0.905505
20
1.117105
30
0.0
11
1.335193
21
1.117105
31
0.0
0
LINE
8
LEFT_HID
6
HIDDEN
10
1.335193
20
1.117105
30
0.0
11
1.335193
21
1.227632
31
0.0
0
LINE
8
LEFT_HID
6
HIDDEN
10
1.335193
20
1.227632
30
0.0
11
1.335193
21
1.220534
31
0.0
0
LINE
8
LEFT_HID
6
HIDDEN
10
0.694568
20
1.021064
30
0.0
11
0.694568
21
1.323672
31
0.0
0
LINE
8
LEFT_HID
6
HIDDEN
10
1.444568
20
1.021064
30
0.0
11
1.444568
21
1.323672
31
0.0
0
LINE
8
LEFT_HID
6
HIDDEN
10
1.444568
20
1.013487
30
0.0
11
1.444568
21
1.021064
31
0.0
0
LINE
8
LEFT_HID
6
HIDDEN
10
1.444568
20
1.323672
30
0.0
11
1.444568
21
1.013487
31
0.0
0
LINE
8
LEFT_HID
6
HIDDEN
10
1.444568
20
1.117105
30
0.0
11
1.444568
21
1.220534
31
0.0
0
LINE
8
LEFT_HID
6
HIDDEN
10
1.444568
20
1.124203
30
0.0
11
1.444568
21
1.117105
31
0.0
0
LINE
8
LEFT_HID
6
HIDDEN
10
1.444568
20
1.220534
30
0.0
11
1.444568
21
1.124203
31
0.0
0
LINE
8
LEFT_HID
6
HIDDEN
10
1.335193
20
1.220534
30
0.0
11
1.335193
21
1.124203
31
0.0
0
LINE
8
LEFT_HID
6
HIDDEN
10
1.444568
20
1.010526
30
0.0
11
1.444568
21
1.021064
31
0.0
0
LINE
8
LEFT_HID
6
HIDDEN
10
1.444568
20
1.323672
30
0.0
11
1.444568
21
1.010526
31
0.0
0
LINE
8
LEFT_HID
6
HIDDEN
10
1.444568
20
1.118421
30
0.0
11
1.444568
21
1.220534
31
0.0
0
LINE
8
LEFT_HID
6
HIDDEN
10
1.444568
20
1.124203
30
0.0
11
1.444568
21
1.118421
31
0.0
0
LINE
8
LEFT_HID
6
HIDDEN
10
0.905505
20
1.334211
30
0.0
11
0.694568
21
1.334211
31
0.0
0
LINE
8
LEFT_HID
6
HIDDEN
10
1.335193
20
1.227632
30
0.0
11
0.905505
21
1.227632
31
0.0
0
LINE
8
TOP
10
0.544737
20
0.750000
30
0.0
11
0.000000
21
0.750000
31
0.0
0
LINE
8
TOP
10
0.544737
20
0.000000
30
0.0
11
0.000000
21
0.000000
31
0.0
0
LINE
8
TOP
10
0.544737
20
0.000000
30
0.0
11
0.544737
21
0.750000
31
0.0
0
LINE
8
TOP
10
0.000000
20
0.000000
30
0.0
11
0.000000
21
0.750000
31
0.0
0
LINE
8
TOP_HID
6
HIDDEN
10
0.263405
20
0.539062
30
0.0
11
0.320850
21
0.539062
31
0.0
0
LINE
8
TOP_HID
6
HIDDEN
10
0.320850
20
0.539062
30
0.0
11
0.425247
21
0.539062
31
0.0
0
LINE
8
TOP_HID
6
HIDDEN
10
0.425247
20
0.539062
30
0.0
11
0.320850
21
0.539062
31
0.0
0
LINE
8
TOP_HID
6
HIDDEN
10
0.320850
20
0.539062
30
0.0
11
0.101563
21
0.539062
31
0.0
0
LINE
8
TOP_HID
6
HIDDEN
10
0.101563
20
0.539062
30
0.0
11
0.263405
21
0.539062
31
0.0
0
LINE
8
TOP_HID
6
HIDDEN
10
0.239106
20
0.539062
30
0.0
11
0.209457
21
0.539062
31
0.0
0
LINE
8
TOP_HID
6
HIDDEN
10
0.209457
20
0.539062
30
0.0
11
0.239106
21
0.539062
31
0.0
0
LINE
8
TOP_HID
6
HIDDEN
10
0.266201
20
0.539062
30
0.0
11
0.321464
21
0.539062
31
0.0
0
LINE
8
TOP_HID
6
HIDDEN
10
0.321464
20
0.539062
30
0.0
11
0.239106
21
0.539062
31
0.0
0
LINE
8
TOP_HID
6
HIDDEN
10
0.239106
20
0.539062
30
0.0
11
0.266201
21
0.539062
31
0.0
0
LINE
8
TOP_HID
6
HIDDEN
10
0.320850
20
0.539062
30
0.0
11
0.320850
21
0.750000
31
0.0
0
LINE
8
TOP_HID
6
HIDDEN
10
0.263405
20
0.750000
30
0.0
11
0.320850
21
0.750000
31
0.0
0
LINE
8
TOP_HID
6
HIDDEN
10
0.320850
20
0.539062
30
0.0
11
0.320850
21
0.750000
31
0.0
0
LINE
8
TOP_HID
6
HIDDEN
10
0.320850
20
0.750000
30
0.0
11
0.101563
21
0.750000
31
0.0
0
LINE
8
TOP_HID
6
HIDDEN
10
0.101563
20
0.750000
30
0.0
11
0.263405
21
0.750000
31
0.0
0
LINE
8
TOP_HID
6
HIDDEN
10
0.320850
20
0.000000
30
0.0
11
0.320850
21
0.539062
31
0.0
0
LINE
8
TOP_HID
6
HIDDEN
10
0.320850
20
0.000000
30
0.0
11
0.425247
21
0.000000
31
0.0
0
LINE
8
TOP_HID
6
HIDDEN
10
0.425247
20
0.000000
30
0.0
11
0.320850
21
0.000000
31
0.0
0
LINE
8
TOP_HID
6
HIDDEN
10
0.320850
20
0.000000
30
0.0
11
0.320850
21
0.539062
31
0.0
0
LINE
8
TOP_HID
6
HIDDEN
10
0.239106
20
0.109375
30
0.0
11
0.239106
21
0.539062
31
0.0
0
LINE
8
TOP_HID
6
HIDDEN
10
0.239106
20
0.000000
30
0.0
11
0.239106
21
0.109375
31
0.0
0
LINE
8
TOP_HID
6
HIDDEN
10
0.239106
20
0.000000
30
0.0
11
0.209457
21
0.000000
31
0.0
0
LINE
8
TOP_HID
6
HIDDEN
10
0.209457
20
0.000000
30
0.0
11
0.239106
21
0.000000
31
0.0
0
LINE
8
TOP_HID
6
HIDDEN
10
0.239106
20
0.000000
30
0.0
11
0.239106
21
0.109375
31
0.0
0
LINE
8
TOP_HID
6
HIDDEN
10
0.239106
20
0.109375
30
0.0
11
0.239106
21
0.539062
31
0.0
0
LINE
8
TOP_HID
6
HIDDEN
10
0.239106
20
0.109375
30
0.0
11
0.266201
21
0.109375
31
0.0
0
LINE
8
TOP_HID
6
HIDDEN
10
0.266201
20
0.109375
30
0.0
11
0.321464
21
0.109375
31
0.0
0
LINE
8
TOP_HID
6
HIDDEN
10
0.321464
20
0.109375
30
0.0
11
0.239106
21
0.109375
31
0.0
0
LINE
8
TOP_HID
6
HIDDEN
10
0.272368
20
0.750000
30
0.0
11
0.544737
21
0.750000
31
0.0
0
LINE
8
TOP_HID
6
HIDDEN
10
0.000000
20
0.750000
30
0.0
11
0.272368
21
0.750000
31
0.0
0
LINE
8
TOP_HID
6
HIDDEN
10
0.320850
20
0.750000
30
0.0
11
0.431250
21
0.750000
31
0.0
0
LINE
8
TOP_HID
6
HIDDEN
10
0.431250
20
0.750000
30
0.0
11
0.320850
21
0.750000
31
0.0
0
LINE
8
TOP_HID
6
HIDDEN
10
0.320850
20
0.000000
30
0.0
11
0.431250
21
0.000000
31
0.0
0
LINE
8
TOP_HID
6
HIDDEN
10
0.431250
20
0.000000
30
0.0
11
0.320850
21
0.000000
31
0.0
0
LINE
8
TOP_HID
6
HIDDEN
10
0.272368
20
0.000000
30
0.0
11
0.320850
21
0.000000
31
0.0
0
LINE
8
TOP_HID
6
HIDDEN
10
0.320850
20
0.000000
30
0.0
11
0.272368
21
0.000000
31
0.0
0
LINE
8
TOP_HID
6
HIDDEN
10
0.266201
20
0.000000
30
0.0
11
0.239106
21
0.000000
31
0.0
0
LINE
8
TOP_HID
6
HIDDEN
10
0.239106
20
0.000000
30
0.0
11
0.266201
21
0.000000
31
0.0
0
LINE
8
TOP_HID
6
HIDDEN
10
0.239106
20
0.000000
30
0.0
11
0.210938
21
0.000000
31
0.0
0
LINE
8
TOP_HID
6
HIDDEN
10
0.210938
20
0.000000
30
0.0
11
0.239106
21
0.000000
31
0.0
0
LINE
8
TOP_HID
6
HIDDEN
10
0.239106
20
0.109375
30
0.0
11
0.210938
21
0.109375
31
0.0
0
LINE
8
TOP_HID
6
HIDDEN
10
0.210938
20
0.109375
30
0.0
11
0.239106
21
0.109375
31
0.0
0
LINE
8
TOP_HID
6
HIDDEN
10
0.272368
20
0.000000
30
0.0
11
0.544737
21
0.000000
31
0.0
0
LINE
8
TOP_HID
6
HIDDEN
10
0.000000
20
0.000000
30
0.0
11
0.272368
21
0.000000
31
0.0
0
LINE
8
TOP_HID
6
HIDDEN
10
0.263405
20
0.000000
30
0.0
11
0.320850
21
0.000000
31
0.0
0
LINE
8
TOP_HID
6
HIDDEN
10
0.320850
20
0.000000
30
0.0
11
0.263405
21
0.000000
31
0.0
0
LINE
8
TOP_HID
6
HIDDEN
10
0.263405
20
0.000000
30
0.0
11
0.239106
21
0.000000
31
0.0
0
LINE
8
TOP_HID
6
HIDDEN
10
0.239106
20
0.000000
30
0.0
11
0.263405
21
0.000000
31
0.0
0
LINE
8
TOP_HID
6
HIDDEN
10
0.101563
20
0.539062
30
0.0
11
0.101563
21
0.750000
31
0.0
0
LINE
8
TOP_HID
6
HIDDEN
10
0.425247
20
0.000000
30
0.0
11
0.425247
21
0.539062
31
0.0
0
LINE
8
TOP_HID
6
HIDDEN
10
0.209457
20
0.000000
30
0.0
11
0.209457
21
0.539062
31
0.0
0
LINE
8
TOP_HID
6
HIDDEN
10
0.321464
20
0.109375
30
0.0
11
0.321464
21
0.539062
31
0.0
0
LINE
8
TOP_HID
6
HIDDEN
10
0.431250
20
0.000000
30
0.0
11
0.431250
21
0.750000
31
0.0
0
LINE
8
TOP_HID
6
HIDDEN
10
0.210938
20
0.000000
30
0.0
11
0.210938
21
0.109375
31
0.0
0
ENDSEC
0
EOF
