0
SECTION
2
HEADER
9
$ACADVER
1
AC1009
0
ENDSEC
0
SECTION
2
TABLES
0
TABLE
2
LTYPE
70
3
0
LTYPE
2
CONTINUOUS
70
0
3
Solid line
72
65
73
0
40
0.0
0
LTYPE
2
HIDDEN
70
0
3
__ __ __ __ __
72
65
73
2
40
0.037377
49
0.024930
49
-0.012446
0
LTYPE
2
CENTER
70
0
3
___ _ ___ _ ___
72
65
73
4
40
0.087200
49
0.049823
49
-0.012446
49
0.012446
49
-0.012446
0
ENDTAB
0
TABLE
2
LAYER
70
6
0
LAYER
2
0
70
0
62
7
6
CONTINUOUS
0
LAYER
2
FRONT
70
0
62
7
6
CONTINUOUS
0
LAYER
2
LEFT
70
0
62
7
6
CONTINUOUS
0
LAYER
2
LEFT_HID
70
0
62
7
6
HIDDEN
0
LAYER
2
TOP
70
0
62
7
6
CONTINUOUS
0
LAYER
2
TOP_HID
70
0
62
7
6
HIDDEN
0
ENDTAB
0
ENDSEC
0
SECTION
2
ENTITIES
0
LINE
8
FRONT
10
0.000000
20
0.551809
30
0.0
11
0.276316
21
0.551809
31
0.0
0
LINE
8
FRONT
10
0.276316
20
0.551809
30
0.0
11
0.402632
21
0.228125
31
0.0
0
LINE
8
FRONT
10
0.402632
20
0.228125
30
0.0
11
0.426316
21
0.180757
31
0.0
0
LINE
8
FRONT
10
0.426316
20
0.180757
30
0.0
11
0.437420
21
0.185423
31
0.0
0
LINE
8
FRONT
10
0.437420
20
0.185423
30
0.0
11
0.448411
21
0.190347
31
0.0
0
LINE
8
FRONT
10
0.448411
20
0.190347
30
0.0
11
0.459285
21
0.195528
31
0.0
0
LINE
8
FRONT
10
0.459285
20
0.195528
30
0.0
11
0.470034
21
0.200960
31
0.0
0
LINE
8
FRONT
10
0.470034
20
0.200960
30
0.0
11
0.480654
21
0.206643
31
0.0
0
LINE
8
FRONT
10
0.480654
20
0.206643
30
0.0
11
0.491138
21
0.212572
31
0.0
0
LINE
8
FRONT
10
0.491138
20
0.212572
30
0.0
11
0.501481
21
0.218745
31
0.0
0
LINE
8
FRONT
10
0.501481
20
0.218745
30
0.0
11
0.511676
21
0.225157
31
0.0
0
LINE
8
FRONT
10
0.511676
20
0.225157
30
0.0
11
0.521719
21
0.231807
31
0.0
0
LINE
8
FRONT
10
0.521719
20
0.231807
30
0.0
11
0.531603
21
0.238689
31
0.0
0
LINE
8
FRONT
10
0.531603
20
0.238689
30
0.0
11
0.541324
21
0.245800
31
0.0
0
LINE
8
FRONT
10
0.541324
20
0.245800
30
0.0
11
0.550876
21
0.253137
31
0.0
0
LINE
8
FRONT
10
0.550876
20
0.253137
30
0.0
11
0.560254
21
0.260694
31
0.0
0
LINE
8
FRONT
10
0.560254
20
0.260694
30
0.0
11
0.569453
21
0.268469
31
0.0
0
LINE
8
FRONT
10
0.569453
20
0.268469
30
0.0
11
0.578468
21
0.276457
31
0.0
0
LINE
8
FRONT
10
0.578468
20
0.276457
30
0.0
11
0.587293
21
0.284653
31
0.0
0
LINE
8
FRONT
10
0.587293
20
0.284653
30
0.0
11
0.595925
21
0.293054
31
0.0
0
LINE
8
FRONT
10
0.595925
20
0.293054
30
0.0
11
0.604358
21
0.301654
31
0.0
0
LINE
8
FRONT
10
0.604358
20
0.301654
30
0.0
11
0.612587
21
0.310448
31
0.0
0
LINE
8
FRONT
10
0.612587
20
0.310448
30
0.0
11
0.620609
21
0.319433
31
0.0
0
LINE
8
FRONT
10
0.620609
20
0.319433
30
0.0
11
0.628418
21
0.328602
31
0.0
0
LINE
8
FRONT
10
0.628418
20
0.328602
30
0.0
11
0.636011
21
0.337952
31
0.0
0
LINE
8
FRONT
10
0.636011
20
0.337952
30
0.0
11
0.643384
21
0.347476
31
0.0
0
LINE
8
FRONT
10
0.643384
20
0.347476
30
0.0
11
0.650531
21
0.357170
31
0.0
0
LINE
8
FRONT
10
0.650531
20
0.357170
30
0.0
11
0.657451
21
0.367029
31
0.0
0
LINE
8
FRONT
10
0.657451
20
0.367029
30
0.0
11
0.664138
21
0.377047
31
0.0
0
LINE
8
FRONT
10
0.664138
20
0.377047
30
0.0
11
0.670589
21
0.387218
31
0.0
0
LINE
8
FRONT
10
0.670589
20
0.387218
30
0.0
11
0.676800
21
0.397537
31
0.0
0
LINE
8
FRONT
10
0.676800
20
0.397537
30
0.0
11
0.682769
21
0.407998
31
0.0
0
LINE
8
FRONT
10
0.682769
20
0.407998
30
0.0
11
0.688491
21
0.418597
31
0.0
0
LINE
8
FRONT
10
0.688491
20
0.418597
30
0.0
11
0.693964
21
0.429326
31
0.0
0
LINE
8
FRONT
10
0.693964
20
0.429326
30
0.0
11
0.699185
21
0.440180
31
0.0
0
LINE
8
FRONT
10
0.699185
20
0.440180
30
0.0
11
0.704151
21
0.451153
31
0.0
0
LINE
8
FRONT
10
0.704151
20
0.451153
30
0.0
11
0.708859
21
0.462239
31
0.0
0
LINE
8
FRONT
10
0.708859
20
0.462239
30
0.0
11
0.713307
21
0.473432
31
0.0
0
LINE
8
FRONT
10
0.713307
20
0.473432
30
0.0
11
0.717491
21
0.484726
31
0.0
0
LINE
8
FRONT
10
0.717491
20
0.484726
30
0.0
11
0.721411
21
0.496115
31
0.0
0
LINE
8
FRONT
10
0.721411
20
0.496115
30
0.0
11
0.725063
21
0.507592
31
0.0
0
LINE
8
FRONT
10
0.725063
20
0.507592
30
0.0
11
0.728447
21
0.519152
31
0.0
0
LINE
8
FRONT
10
0.728447
20
0.519152
30
0.0
11
0.731559
21
0.530787
31
0.0
0
LINE
8
FRONT
10
0.731559
20
0.530787
30
0.0
11
0.734398
21
0.542492
31
0.0
0
LINE
8
FRONT
10
0.734398
20
0.542492
30
0.0
11
0.736963
21
0.554260
31
0.0
0
LINE
8
FRONT
10
0.736963
20
0.554260
30
0.0
11
0.739252
21
0.566085
31
0.0
0
LINE
8
FRONT
10
0.739252
20
0.566085
30
0.0
11
0.741264
21
0.577961
31
0.0
0
LINE
8
FRONT
10
0.741264
20
0.577961
30
0.0
11
0.742998
21
0.589880
31
0.0
0
LINE
8
FRONT
10
0.742998
20
0.589880
30
0.0
11
0.744453
21
0.601836
31
0.0
0
LINE
8
FRONT
10
0.744453
20
0.601836
30
0.0
11
0.745628
21
0.613823
31
0.0
0
LINE
8
FRONT
10
0.745628
20
0.613823
30
0.0
11
0.746523
21
0.625834
31
0.0
0
LINE
8
FRONT
10
0.746523
20
0.625834
30
0.0
11
0.747136
21
0.637863
31
0.0
0
LINE
8
FRONT
10
0.747136
20
0.637863
30
0.0
11
0.747468
21
0.649902
31
0.0
0
LINE
8
FRONT
10
0.747468
20
0.649902
30
0.0
11
0.747519
21
0.661947
31
0.0
0
LINE
8
FRONT
10
0.747519
20
0.661947
30
0.0
11
0.747289
21
0.673989
31
0.0
0
LINE
8
FRONT
10
0.747289
20
0.673989
30
0.0
11
0.746776
21
0.686023
31
0.0
0
LINE
8
FRONT
10
0.746776
20
0.686023
30
0.0
11
0.745983
21
0.698041
31
0.0
0
LINE
8
FRONT
10
0.745983
20
0.698041
30
0.0
11
0.744909
21
0.710037
31
0.0
0
LINE
8
FRONT
10
0.744909
20
0.710037
30
0.0
11
0.743555
21
0.722005
31
0.0
0
LINE
8
FRONT
10
0.743555
20
0.722005
30
0.0
11
0.741922
21
0.733939
31
0.0
0
LINE
8
FRONT
10
0.741922
20
0.733939
30
0.0
11
0.740010
21
0.745830
31
0.0
0
LINE
8
FRONT
10
0.740010
20
0.745830
30
0.0
11
0.737821
21
0.757674
31
0.0
0
LINE
8
FRONT
10
0.737821
20
0.757674
30
0.0
11
0.735355
21
0.769463
31
0.0
0
LINE
8
FRONT
10
0.735355
20
0.769463
30
0.0
11
0.732615
21
0.781192
31
0.0
0
LINE
8
FRONT
10
0.732615
20
0.781192
30
0.0
11
0.729601
21
0.792853
31
0.0
0
LINE
8
FRONT
10
0.729601
20
0.792853
30
0.0
11
0.726316
21
0.804441
31
0.0
0
LINE
8
FRONT
10
0.726316
20
0.804441
30
0.0
11
0.000000
21
0.804441
31
0.0
0
LINE
8
FRONT
10
0.000000
20
0.804441
30
0.0
11
0.000000
21
0.599178
31
0.0
0
LINE
8
FRONT
10
0.000000
20
0.599178
30
0.0
11
0.000000
21
0.551809
31
0.0
0
LINE
8
FRONT
10
0.039474
20
0.622862
30
0.0
11
0.040260
21
0.622901
31
0.0
0
LINE
8
FRONT
10
0.040260
20
0.622901
30
0.0
11
0.041038
21
0.623019
31
0.0
0
LINE
8
FRONT
10
0.041038
20
0.623019
30
0.0
11
0.041801
21
0.623213
31
0.0
0
LINE
8
FRONT
10
0.041801
20
0.623213
30
0.0
11
0.042540
21
0.623482
31
0.0
0
LINE
8
FRONT
10
0.042540
20
0.623482
30
0.0
11
0.043249
21
0.623823
31
0.0
0
LINE
8
FRONT
10
0.043249
20
0.623823
30
0.0
11
0.043921
21
0.624234
31
0.0
0
LINE
8
FRONT
10
0.043921
20
0.624234
30
0.0
11
0.044548
21
0.624709
31
0.0
0
LINE
8
FRONT
10
0.044548
20
0.624709
30
0.0
11
0.045125
21
0.625244
31
0.0
0
LINE
8
FRONT
10
0.045125
20
0.625244
30
0.0
11
0.045646
21
0.625834
31
0.0
0
LINE
8
FRONT
10
0.045646
20
0.625834
30
0.0
11
0.046105
21
0.626473
31
0.0
0
LINE
8
FRONT
10
0.046105
20
0.626473
30
0.0
11
0.046499
21
0.627155
31
0.0
0
LINE
8
FRONT
10
0.046499
20
0.627155
30
0.0
11
0.046823
21
0.627872
31
0.0
0
LINE
8
FRONT
10
0.046823
20
0.627872
30
0.0
11
0.047073
21
0.628619
31
0.0
0
LINE
8
FRONT
10
0.047073
20
0.628619
30
0.0
11
0.047248
21
0.629386
31
0.0
0
LINE
8
FRONT
10
0.047248
20
0.629386
30
0.0
11
0.047346
21
0.630167
31
0.0
0
LINE
8
FRONT
10
0.047346
20
0.630167
30
0.0
11
0.047366
21
0.630954
31
0.0
0
LINE
8
FRONT
10
0.047366
20
0.630954
30
0.0
11
0.047307
21
0.631738
31
0.0
0
LINE
8
FRONT
10
0.047307
20
0.631738
30
0.0
11
0.047170
21
0.632513
31
0.0
0
LINE
8
FRONT
10
0.047170
20
0.632513
30
0.0
11
0.046957
21
0.633271
31
0.0
0
LINE
8
FRONT
10
0.046957
20
0.633271
30
0.0
11
0.046670
21
0.634004
31
0.0
0
LINE
8
FRONT
10
0.046670
20
0.634004
30
0.0
11
0.046311
21
0.634704
31
0.0
0
LINE
8
FRONT
10
0.046311
20
0.634704
30
0.0
11
0.045884
21
0.635365
31
0.0
0
LINE
8
FRONT
10
0.045884
20
0.635365
30
0.0
11
0.045393
21
0.635981
31
0.0
0
LINE
8
FRONT
10
0.045393
20
0.635981
30
0.0
11
0.044843
21
0.636544
31
0.0
0
LINE
8
FRONT
10
0.044843
20
0.636544
30
0.0
11
0.044241
21
0.637050
31
0.0
0
LINE
8
FRONT
10
0.044241
20
0.637050
30
0.0
11
0.043590
21
0.637493
31
0.0
0
LINE
8
FRONT
10
0.043590
20
0.637493
30
0.0
11
0.042899
21
0.637870
31
0.0
0
LINE
8
FRONT
10
0.042899
20
0.637870
30
0.0
11
0.042174
21
0.638175
31
0.0
0
LINE
8
FRONT
10
0.042174
20
0.638175
30
0.0
11
0.041422
21
0.638407
31
0.0
0
LINE
8
FRONT
10
0.041422
20
0.638407
30
0.0
11
0.040650
21
0.638563
31
0.0
0
LINE
8
FRONT
10
0.040650
20
0.638563
30
0.0
11
0.039867
21
0.638642
31
0.0
0
LINE
8
FRONT
10
0.039867
20
0.638642
30
0.0
11
0.039080
21
0.638642
31
0.0
0
LINE
8
FRONT
10
0.039080
20
0.638642
30
0.0
11
0.038297
21
0.638563
31
0.0
0
LINE
8
FRONT
10
0.038297
20
0.638563
30
0.0
11
0.037526
21
0.638407
31
0.0
0
LINE
8
FRONT
10
0.037526
20
0.638407
30
0.0
11
0.036774
21
0.638175
31
0.0
0
LINE
8
FRONT
10
0.036774
20
0.638175
30
0.0
11
0.036048
21
0.637870
31
0.0
0
LINE
8
FRONT
10
0.036048
20
0.637870
30
0.0
11
0.035357
21
0.637493
31
0.0
0
LINE
8
FRONT
10
0.035357
20
0.637493
30
0.0
11
0.034707
21
0.637050
31
0.0
0
LINE
8
FRONT
10
0.034707
20
0.637050
30
0.0
11
0.034104
21
0.636544
31
0.0
0
LINE
8
FRONT
10
0.034104
20
0.636544
30
0.0
11
0.033554
21
0.635981
31
0.0
0
LINE
8
FRONT
10
0.033554
20
0.635981
30
0.0
11
0.033064
21
0.635365
31
0.0
0
LINE
8
FRONT
10
0.033064
20
0.635365
30
0.0
11
0.032637
21
0.634704
31
0.0
0
LINE
8
FRONT
10
0.032637
20
0.634704
30
0.0
11
0.032278
21
0.634004
31
0.0
0
LINE
8
FRONT
10
0.032278
20
0.634004
30
0.0
11
0.031990
21
0.633271
31
0.0
0
LINE
8
FRONT
10
0.031990
20
0.633271
30
0.0
11
0.031777
21
0.632513
31
0.0
0
LINE
8
FRONT
10
0.031777
20
0.632513
30
0.0
11
0.031640
21
0.631738
31
0.0
0
LINE
8
FRONT
10
0.031640
20
0.631738
30
0.0
11
0.031581
21
0.630954
31
0.0
0
LINE
8
FRONT
10
0.031581
20
0.630954
30
0.0
11
0.031601
21
0.630167
31
0.0
0
LINE
8
FRONT
10
0.031601
20
0.630167
30
0.0
11
0.031699
21
0.629386
31
0.0
0
LINE
8
FRONT
10
0.031699
20
0.629386
30
0.0
11
0.031874
21
0.628619
31
0.0
0
LINE
8
FRONT
10
0.031874
20
0.628619
30
0.0
11
0.032125
21
0.627872
31
0.0
0
LINE
8
FRONT
10
0.032125
20
0.627872
30
0.0
11
0.032448
21
0.627155
31
0.0
0
LINE
8
FRONT
10
0.032448
20
0.627155
30
0.0
11
0.032842
21
0.626473
31
0.0
0
LINE
8
FRONT
10
0.032842
20
0.626473
30
0.0
11
0.033301
21
0.625834
31
0.0
0
LINE
8
FRONT
10
0.033301
20
0.625834
30
0.0
11
0.033822
21
0.625244
31
0.0
0
LINE
8
FRONT
10
0.033822
20
0.625244
30
0.0
11
0.034399
21
0.624709
31
0.0
0
LINE
8
FRONT
10
0.034399
20
0.624709
30
0.0
11
0.035026
21
0.624234
31
0.0
0
LINE
8
FRONT
10
0.035026
20
0.624234
30
0.0
11
0.035698
21
0.623823
31
0.0
0
LINE
8
FRONT
10
0.035698
20
0.623823
30
0.0
11
0.036407
21
0.623482
31
0.0
0
LINE
8
FRONT
10
0.036407
20
0.623482
30
0.0
11
0.037147
21
0.623213
31
0.0
0
LINE
8
FRONT
10
0.037147
20
0.623213
30
0.0
11
0.037909
21
0.623019
31
0.0
0
LINE
8
FRONT
10
0.037909
20
0.623019
30
0.0
11
0.038688
21
0.622901
31
0.0
0
LINE
8
FRONT
10
0.038688
20
0.622901
30
0.0
11
0.039474
21
0.622862
31
0.0
0
LINE
8
FRONT
10
0.039474
20
0.749178
30
0.0
11
0.040260
21
0.749217
31
0.0
0
LINE
8
FRONT
10
0.040260
20
0.749217
30
0.0
11
0.041038
21
0.749334
31
0.0
0
LINE
8
FRONT
10
0.041038
20
0.749334
30
0.0
11
0.041801
21
0.749529
31
0.0
0
LINE
8
FRONT
10
0.041801
20
0.749529
30
0.0
11
0.042540
21
0.749798
31
0.0
0
LINE
8
FRONT
10
0.042540
20
0.749798
30
0.0
11
0.043249
21
0.750139
31
0.0
0
LINE
8
FRONT
10
0.043249
20
0.750139
30
0.0
11
0.043921
21
0.750550
31
0.0
0
LINE
8
FRONT
10
0.043921
20
0.750550
30
0.0
11
0.044548
21
0.751025
31
0.0
0
LINE
8
FRONT
10
0.044548
20
0.751025
30
0.0
11
0.045125
21
0.751560
31
0.0
0
LINE
8
FRONT
10
0.045125
20
0.751560
30
0.0
11
0.045646
21
0.752150
31
0.0
0
LINE
8
FRONT
10
0.045646
20
0.752150
30
0.0
11
0.046105
21
0.752789
31
0.0
0
LINE
8
FRONT
10
0.046105
20
0.752789
30
0.0
11
0.046499
21
0.753471
31
0.0
0
LINE
8
FRONT
10
0.046499
20
0.753471
30
0.0
11
0.046823
21
0.754188
31
0.0
0
LINE
8
FRONT
10
0.046823
20
0.754188
30
0.0
11
0.047073
21
0.754934
31
0.0
0
LINE
8
FRONT
10
0.047073
20
0.754934
30
0.0
11
0.047248
21
0.755702
31
0.0
0
LINE
8
FRONT
10
0.047248
20
0.755702
30
0.0
11
0.047346
21
0.756483
31
0.0
0
LINE
8
FRONT
10
0.047346
20
0.756483
30
0.0
11
0.047366
21
0.757269
31
0.0
0
LINE
8
FRONT
10
0.047366
20
0.757269
30
0.0
11
0.047307
21
0.758054
31
0.0
0
LINE
8
FRONT
10
0.047307
20
0.758054
30
0.0
11
0.047170
21
0.758829
31
0.0
0
LINE
8
FRONT
10
0.047170
20
0.758829
30
0.0
11
0.046957
21
0.759587
31
0.0
0
LINE
8
FRONT
10
0.046957
20
0.759587
30
0.0
11
0.046670
21
0.760320
31
0.0
0
LINE
8
FRONT
10
0.046670
20
0.760320
30
0.0
11
0.046311
21
0.761020
31
0.0
0
LINE
8
FRONT
10
0.046311
20
0.761020
30
0.0
11
0.045884
21
0.761681
31
0.0
0
LINE
8
FRONT
10
0.045884
20
0.761681
30
0.0
11
0.045393
21
0.762296
31
0.0
0
LINE
8
FRONT
10
0.045393
20
0.762296
30
0.0
11
0.044843
21
0.762860
31
0.0
0
LINE
8
FRONT
10
0.044843
20
0.762860
30
0.0
11
0.044241
21
0.763366
31
0.0
0
LINE
8
FRONT
10
0.044241
20
0.763366
30
0.0
11
0.043590
21
0.763809
31
0.0
0
LINE
8
FRONT
10
0.043590
20
0.763809
30
0.0
11
0.042899
21
0.764185
31
0.0
0
LINE
8
FRONT
10
0.042899
20
0.764185
30
0.0
11
0.042174
21
0.764491
31
0.0
0
LINE
8
FRONT
10
0.042174
20
0.764491
30
0.0
11
0.041422
21
0.764723
31
0.0
0
LINE
8
FRONT
10
0.041422
20
0.764723
30
0.0
11
0.040650
21
0.764879
31
0.0
0
LINE
8
FRONT
10
0.040650
20
0.764879
30
0.0
11
0.039867
21
0.764957
31
0.0
0
LINE
8
FRONT
10
0.039867
20
0.764957
30
0.0
11
0.039080
21
0.764957
31
0.0
0
LINE
8
FRONT
10
0.039080
20
0.764957
30
0.0
11
0.038297
21
0.764879
31
0.0
0
LINE
8
FRONT
10
0.038297
20
0.764879
30
0.0
11
0.037526
21
0.764723
31
0.0
0
LINE
8
FRONT
10
0.037526
20
0.764723
30
0.0
11
0.036774
21
0.764491
31
0.0
0
LINE
8
FRONT
10
0.036774
20
0.764491
30
0.0
11
0.036048
21
0.764185
31
0.0
0
LINE
8
FRONT
10
0.036048
20
0.764185
30
0.0
11
0.035357
21
0.763809
31
0.0
0
LINE
8
FRONT
10
0.035357
20
0.763809
30
0.0
11
0.034707
21
0.763366
31
0.0
0
LINE
8
FRONT
10
0.034707
20
0.763366
30
0.0
11
0.034104
21
0.762860
31
0.0
0
LINE
8
FRONT
10
0.034104
20
0.762860
30
0.0
11
0.033554
21
0.762296
31
0.0
0
LINE
8
FRONT
10
0.033554
20
0.762296
30
0.0
11
0.033064
21
0.761681
31
0.0
0
LINE
8
FRONT
10
0.033064
20
0.761681
30
0.0
11
0.032637
21
0.761020
31
0.0
0
LINE
8
FRONT
10
0.032637
20
0.761020
30
0.0
11
0.032278
21
0.760320
31
0.0
0
LINE
8
FRONT
10
0.032278
20
0.760320
30
0.0
11
0.031990
21
0.759587
31
0.0
0
LINE
8
FRONT
10
0.031990
20
0.759587
30
0.0
11
0.031777
21
0.758829
31
0.0
0
LINE
8
FRONT
10
0.031777
20
0.758829
30
0.0
11
0.031640
21
0.758054
31
0.0
0
LINE
8
FRONT
10
0.031640
20
0.758054
30
0.0
11
0.031581
21
0.757269
31
0.0
0
LINE
8
FRONT
10
0.031581
20
0.757269
30
0.0
11
0.031601
21
0.756483
31
0.0
0
LINE
8
FRONT
10
0.031601
20
0.756483
30
0.0
11
0.031699
21
0.755702
31
0.0
0
LINE
8
FRONT
10
0.031699
20
0.755702
30
0.0
11
0.031874
21
0.754934
31
0.0
0
LINE
8
FRONT
10
0.031874
20
0.754934
30
0.0
11
0.032125
21
0.754188
31
0.0
0
LINE
8
FRONT
10
0.032125
20
0.754188
30
0.0
11
0.032448
21
0.753471
31
0.0
0
LINE
8
FRONT
10
0.032448
20
0.753471
30
0.0
11
0.032842
21
0.752789
31
0.0
0
LINE
8
FRONT
10
0.032842
20
0.752789
30
0.0
11
0.033301
21
0.752150
31
0.0
0
LINE
8
FRONT
10
0.033301
20
0.752150
30
0.0
11
0.033822
21
0.751560
31
0.0
0
LINE
8
FRONT
10
0.033822
20
0.751560
30
0.0
11
0.034399
21
0.751025
31
0.0
0
LINE
8
FRONT
10
0.034399
20
0.751025
30
0.0
11
0.035026
21
0.750550
31
0.0
0
LINE
8
FRONT
10
0.035026
20
0.750550
30
0.0
11
0.035698
21
0.750139
31
0.0
0
LINE
8
FRONT
10
0.035698
20
0.750139
30
0.0
11
0.036407
21
0.749798
31
0.0
0
LINE
8
FRONT
10
0.036407
20
0.749798
30
0.0
11
0.037147
21
0.749529
31
0.0
0
LINE
8
FRONT
10
0.037147
20
0.749529
30
0.0
11
0.037909
21
0.749334
31
0.0
0
LINE
8
FRONT
10
0.037909
20
0.749334
30
0.0
11
0.038688
21
0.749217
31
0.0
0
LINE
8
FRONT
10
0.038688
20
0.749217
30
0.0
11
0.039474
21
0.749178
31
0.0
0
LINE
8
FRONT
10
0.228947
20
0.678125
30
0.0
11
0.229733
21
0.678164
31
0.0
0
LINE
8
FRONT
10
0.229733
20
0.678164
30
0.0
11
0.230512
21
0.678282
31
0.0
0
LINE
8
FRONT
10
0.230512
20
0.678282
30
0.0
11
0.231274
21
0.678476
31
0.0
0
LINE
8
FRONT
10
0.231274
20
0.678476
30
0.0
11
0.232014
21
0.678745
31
0.0
0
LINE
8
FRONT
10
0.232014
20
0.678745
30
0.0
11
0.232723
21
0.679087
31
0.0
0
LINE
8
FRONT
10
0.232723
20
0.679087
30
0.0
11
0.233395
21
0.679497
31
0.0
0
LINE
8
FRONT
10
0.233395
20
0.679497
30
0.0
11
0.234022
21
0.679972
31
0.0
0
LINE
8
FRONT
10
0.234022
20
0.679972
30
0.0
11
0.234599
21
0.680507
31
0.0
0
LINE
8
FRONT
10
0.234599
20
0.680507
30
0.0
11
0.235120
21
0.681098
31
0.0
0
LINE
8
FRONT
10
0.235120
20
0.681098
30
0.0
11
0.235579
21
0.681737
31
0.0
0
LINE
8
FRONT
10
0.235579
20
0.681737
30
0.0
11
0.235973
21
0.682418
31
0.0
0
LINE
8
FRONT
10
0.235973
20
0.682418
30
0.0
11
0.236296
21
0.683136
31
0.0
0
LINE
8
FRONT
10
0.236296
20
0.683136
30
0.0
11
0.236547
21
0.683882
31
0.0
0
LINE
8
FRONT
10
0.236547
20
0.683882
30
0.0
11
0.236722
21
0.684649
31
0.0
0
LINE
8
FRONT
10
0.236722
20
0.684649
30
0.0
11
0.236820
21
0.685430
31
0.0
0
LINE
8
FRONT
10
0.236820
20
0.685430
30
0.0
11
0.236840
21
0.686217
31
0.0
0
LINE
8
FRONT
10
0.236840
20
0.686217
30
0.0
11
0.236781
21
0.687002
31
0.0
0
LINE
8
FRONT
10
0.236781
20
0.687002
30
0.0
11
0.236644
21
0.687777
31
0.0
0
LINE
8
FRONT
10
0.236644
20
0.687777
30
0.0
11
0.236431
21
0.688534
31
0.0
0
LINE
8
FRONT
10
0.236431
20
0.688534
30
0.0
11
0.236143
21
0.689267
31
0.0
0
LINE
8
FRONT
10
0.236143
20
0.689267
30
0.0
11
0.235784
21
0.689967
31
0.0
0
LINE
8
FRONT
10
0.235784
20
0.689967
30
0.0
11
0.235357
21
0.690628
31
0.0
0
LINE
8
FRONT
10
0.235357
20
0.690628
30
0.0
11
0.234867
21
0.691244
31
0.0
0
LINE
8
FRONT
10
0.234867
20
0.691244
30
0.0
11
0.234317
21
0.691807
31
0.0
0
LINE
8
FRONT
10
0.234317
20
0.691807
30
0.0
11
0.233714
21
0.692313
31
0.0
0
LINE
8
FRONT
10
0.233714
20
0.692313
30
0.0
11
0.233064
21
0.692756
31
0.0
0
LINE
8
FRONT
10
0.233064
20
0.692756
30
0.0
11
0.232373
21
0.693133
31
0.0
0
LINE
8
FRONT
10
0.232373
20
0.693133
30
0.0
11
0.231648
21
0.693439
31
0.0
0
LINE
8
FRONT
10
0.231648
20
0.693439
30
0.0
11
0.230895
21
0.693670
31
0.0
0
LINE
8
FRONT
10
0.230895
20
0.693670
30
0.0
11
0.230124
21
0.693826
31
0.0
0
LINE
8
FRONT
10
0.230124
20
0.693826
30
0.0
11
0.229341
21
0.693905
31
0.0
0
LINE
8
FRONT
10
0.229341
20
0.693905
30
0.0
11
0.228554
21
0.693905
31
0.0
0
LINE
8
FRONT
10
0.228554
20
0.693905
30
0.0
11
0.227771
21
0.693826
31
0.0
0
LINE
8
FRONT
10
0.227771
20
0.693826
30
0.0
11
0.226999
21
0.693670
31
0.0
0
LINE
8
FRONT
10
0.226999
20
0.693670
30
0.0
11
0.226247
21
0.693439
31
0.0
0
LINE
8
FRONT
10
0.226247
20
0.693439
30
0.0
11
0.225522
21
0.693133
31
0.0
0
LINE
8
FRONT
10
0.225522
20
0.693133
30
0.0
11
0.224831
21
0.692756
31
0.0
0
LINE
8
FRONT
10
0.224831
20
0.692756
30
0.0
11
0.224180
21
0.692313
31
0.0
0
LINE
8
FRONT
10
0.224180
20
0.692313
30
0.0
11
0.223578
21
0.691807
31
0.0
0
LINE
8
FRONT
10
0.223578
20
0.691807
30
0.0
11
0.223028
21
0.691244
31
0.0
0
LINE
8
FRONT
10
0.223028
20
0.691244
30
0.0
11
0.222537
21
0.690628
31
0.0
0
LINE
8
FRONT
10
0.222537
20
0.690628
30
0.0
11
0.222110
21
0.689967
31
0.0
0
LINE
8
FRONT
10
0.222110
20
0.689967
30
0.0
11
0.221751
21
0.689267
31
0.0
0
LINE
8
FRONT
10
0.221751
20
0.689267
30
0.0
11
0.221464
21
0.688534
31
0.0
0
LINE
8
FRONT
10
0.221464
20
0.688534
30
0.0
11
0.221251
21
0.687777
31
0.0
0
LINE
8
FRONT
10
0.221251
20
0.687777
30
0.0
11
0.221114
21
0.687002
31
0.0
0
LINE
8
FRONT
10
0.221114
20
0.687002
30
0.0
11
0.221055
21
0.686217
31
0.0
0
LINE
8
FRONT
10
0.221055
20
0.686217
30
0.0
11
0.221075
21
0.685430
31
0.0
0
LINE
8
FRONT
10
0.221075
20
0.685430
30
0.0
11
0.221173
21
0.684649
31
0.0
0
LINE
8
FRONT
10
0.221173
20
0.684649
30
0.0
11
0.221348
21
0.683882
31
0.0
0
LINE
8
FRONT
10
0.221348
20
0.683882
30
0.0
11
0.221598
21
0.683136
31
0.0
0
LINE
8
FRONT
10
0.221598
20
0.683136
30
0.0
11
0.221922
21
0.682418
31
0.0
0
LINE
8
FRONT
10
0.221922
20
0.682418
30
0.0
11
0.222316
21
0.681737
31
0.0
0
LINE
8
FRONT
10
0.222316
20
0.681737
30
0.0
11
0.222775
21
0.681098
31
0.0
0
LINE
8
FRONT
10
0.222775
20
0.681098
30
0.0
11
0.223296
21
0.680507
31
0.0
0
LINE
8
FRONT
10
0.223296
20
0.680507
30
0.0
11
0.223873
21
0.679972
31
0.0
0
LINE
8
FRONT
10
0.223873
20
0.679972
30
0.0
11
0.224500
21
0.679497
31
0.0
0
LINE
8
FRONT
10
0.224500
20
0.679497
30
0.0
11
0.225172
21
0.679087
31
0.0
0
LINE
8
FRONT
10
0.225172
20
0.679087
30
0.0
11
0.225881
21
0.678745
31
0.0
0
LINE
8
FRONT
10
0.225881
20
0.678745
30
0.0
11
0.226620
21
0.678476
31
0.0
0
LINE
8
FRONT
10
0.226620
20
0.678476
30
0.0
11
0.227383
21
0.678282
31
0.0
0
LINE
8
FRONT
10
0.227383
20
0.678282
30
0.0
11
0.228161
21
0.678164
31
0.0
0
LINE
8
FRONT
10
0.228161
20
0.678164
30
0.0
11
0.228947
21
0.678125
31
0.0
0
LINE
8
FRONT
10
0.442105
20
0.204441
30
0.0
11
0.442891
21
0.204480
31
0.0
0
LINE
8
FRONT
10
0.442891
20
0.204480
30
0.0
11
0.443670
21
0.204597
31
0.0
0
LINE
8
FRONT
10
0.443670
20
0.204597
30
0.0
11
0.444432
21
0.204792
31
0.0
0
LINE
8
FRONT
10
0.444432
20
0.204792
30
0.0
11
0.445172
21
0.205061
31
0.0
0
LINE
8
FRONT
10
0.445172
20
0.205061
30
0.0
11
0.445881
21
0.205402
31
0.0
0
LINE
8
FRONT
10
0.445881
20
0.205402
30
0.0
11
0.446553
21
0.205813
31
0.0
0
LINE
8
FRONT
10
0.446553
20
0.205813
30
0.0
11
0.447180
21
0.206288
31
0.0
0
LINE
8
FRONT
10
0.447180
20
0.206288
30
0.0
11
0.447757
21
0.206823
31
0.0
0
LINE
8
FRONT
10
0.447757
20
0.206823
30
0.0
11
0.448278
21
0.207413
31
0.0
0
LINE
8
FRONT
10
0.448278
20
0.207413
30
0.0
11
0.448737
21
0.208052
31
0.0
0
LINE
8
FRONT
10
0.448737
20
0.208052
30
0.0
11
0.449131
21
0.208734
31
0.0
0
LINE
8
FRONT
10
0.449131
20
0.208734
30
0.0
11
0.449454
21
0.209451
31
0.0
0
LINE
8
FRONT
10
0.449454
20
0.209451
30
0.0
11
0.449705
21
0.210197
31
0.0
0
LINE
8
FRONT
10
0.449705
20
0.210197
30
0.0
11
0.449880
21
0.210965
31
0.0
0
LINE
8
FRONT
10
0.449880
20
0.210965
30
0.0
11
0.449978
21
0.211746
31
0.0
0
LINE
8
FRONT
10
0.449978
20
0.211746
30
0.0
11
0.449998
21
0.212532
31
0.0
0
LINE
8
FRONT
10
0.449998
20
0.212532
30
0.0
11
0.449939
21
0.213317
31
0.0
0
LINE
8
FRONT
10
0.449939
20
0.213317
30
0.0
11
0.449802
21
0.214092
31
0.0
0
LINE
8
FRONT
10
0.449802
20
0.214092
30
0.0
11
0.449589
21
0.214850
31
0.0
0
LINE
8
FRONT
10
0.449589
20
0.214850
30
0.0
11
0.449301
21
0.215583
31
0.0
0
LINE
8
FRONT
10
0.449301
20
0.215583
30
0.0
11
0.448942
21
0.216283
31
0.0
0
LINE
8
FRONT
10
0.448942
20
0.216283
30
0.0
11
0.448515
21
0.216944
31
0.0
0
LINE
8
FRONT
10
0.448515
20
0.216944
30
0.0
11
0.448025
21
0.217560
31
0.0
0
LINE
8
FRONT
10
0.448025
20
0.217560
30
0.0
11
0.447475
21
0.218123
31
0.0
0
LINE
8
FRONT
10
0.447475
20
0.218123
30
0.0
11
0.446872
21
0.218629
31
0.0
0
LINE
8
FRONT
10
0.446872
20
0.218629
30
0.0
11
0.446222
21
0.219072
31
0.0
0
LINE
8
FRONT
10
0.446222
20
0.219072
30
0.0
11
0.445531
21
0.219449
31
0.0
0
LINE
8
FRONT
10
0.445531
20
0.219449
30
0.0
11
0.444805
21
0.219754
31
0.0
0
LINE
8
FRONT
10
0.444805
20
0.219754
30
0.0
11
0.444053
21
0.219986
31
0.0
0
LINE
8
FRONT
10
0.444053
20
0.219986
30
0.0
11
0.443282
21
0.220142
31
0.0
0
LINE
8
FRONT
10
0.443282
20
0.220142
30
0.0
11
0.442499
21
0.220221
31
0.0
0
LINE
8
FRONT
10
0.442499
20
0.220221
30
0.0
11
0.441712
21
0.220221
31
0.0
0
LINE
8
FRONT
10
0.441712
20
0.220221
30
0.0
11
0.440929
21
0.220142
31
0.0
0
LINE
8
FRONT
10
0.440929
20
0.220142
30
0.0
11
0.440157
21
0.219986
31
0.0
0
LINE
8
FRONT
10
0.440157
20
0.219986
30
0.0
11
0.439405
21
0.219754
31
0.0
0
LINE
8
FRONT
10
0.439405
20
0.219754
30
0.0
11
0.438680
21
0.219449
31
0.0
0
LINE
8
FRONT
10
0.438680
20
0.219449
30
0.0
11
0.437989
21
0.219072
31
0.0
0
LINE
8
FRONT
10
0.437989
20
0.219072
30
0.0
11
0.437338
21
0.218629
31
0.0
0
LINE
8
FRONT
10
0.437338
20
0.218629
30
0.0
11
0.436735
21
0.218123
31
0.0
0
LINE
8
FRONT
10
0.436735
20
0.218123
30
0.0
11
0.436186
21
0.217560
31
0.0
0
LINE
8
FRONT
10
0.436186
20
0.217560
30
0.0
11
0.435695
21
0.216944
31
0.0
0
LINE
8
FRONT
10
0.435695
20
0.216944
30
0.0
11
0.435268
21
0.216283
31
0.0
0
LINE
8
FRONT
10
0.435268
20
0.216283
30
0.0
11
0.434909
21
0.215583
31
0.0
0
LINE
8
FRONT
10
0.434909
20
0.215583
30
0.0
11
0.434622
21
0.214850
31
0.0
0
LINE
8
FRONT
10
0.434622
20
0.214850
30
0.0
11
0.434408
21
0.214092
31
0.0
0
LINE
8
FRONT
10
0.434408
20
0.214092
30
0.0
11
0.434272
21
0.213317
31
0.0
0
LINE
8
FRONT
10
0.434272
20
0.213317
30
0.0
11
0.434213
21
0.212532
31
0.0
0
LINE
8
FRONT
10
0.434213
20
0.212532
30
0.0
11
0.434233
21
0.211746
31
0.0
0
LINE
8
FRONT
10
0.434233
20
0.211746
30
0.0
11
0.434330
21
0.210965
31
0.0
0
LINE
8
FRONT
10
0.434330
20
0.210965
30
0.0
11
0.434506
21
0.210197
31
0.0
0
LINE
8
FRONT
10
0.434506
20
0.210197
30
0.0
11
0.434756
21
0.209451
31
0.0
0
LINE
8
FRONT
10
0.434756
20
0.209451
30
0.0
11
0.435080
21
0.208734
31
0.0
0
LINE
8
FRONT
10
0.435080
20
0.208734
30
0.0
11
0.435473
21
0.208052
31
0.0
0
LINE
8
FRONT
10
0.435473
20
0.208052
30
0.0
11
0.435933
21
0.207413
31
0.0
0
LINE
8
FRONT
10
0.435933
20
0.207413
30
0.0
11
0.436454
21
0.206823
31
0.0
0
LINE
8
FRONT
10
0.436454
20
0.206823
30
0.0
11
0.437031
21
0.206288
31
0.0
0
LINE
8
FRONT
10
0.437031
20
0.206288
30
0.0
11
0.437658
21
0.205813
31
0.0
0
LINE
8
FRONT
10
0.437658
20
0.205813
30
0.0
11
0.438330
21
0.205402
31
0.0
0
LINE
8
FRONT
10
0.438330
20
0.205402
30
0.0
11
0.439039
21
0.205061
31
0.0
0
LINE
8
FRONT
10
0.439039
20
0.205061
30
0.0
11
0.439778
21
0.204792
31
0.0
0
LINE
8
FRONT
10
0.439778
20
0.204792
30
0.0
11
0.440541
21
0.204597
31
0.0
0
LINE
8
FRONT
10
0.440541
20
0.204597
30
0.0
11
0.441319
21
0.204480
31
0.0
0
LINE
8
FRONT
10
0.441319
20
0.204480
30
0.0
11
0.442105
21
0.204441
31
0.0
0
LINE
8
FRONT
10
0.639474
20
0.709704
30
0.0
11
0.640260
21
0.709743
31
0.0
0
LINE
8
FRONT
10
0.640260
20
0.709743
30
0.0
11
0.641038
21
0.709861
31
0.0
0
LINE
8
FRONT
10
0.641038
20
0.709861
30
0.0
11
0.641801
21
0.710055
31
0.0
0
LINE
8
FRONT
10
0.641801
20
0.710055
30
0.0
11
0.642540
21
0.710324
31
0.0
0
LINE
8
FRONT
10
0.642540
20
0.710324
30
0.0
11
0.643249
21
0.710666
31
0.0
0
LINE
8
FRONT
10
0.643249
20
0.710666
30
0.0
11
0.643921
21
0.711076
31
0.0
0
LINE
8
FRONT
10
0.643921
20
0.711076
30
0.0
11
0.644548
21
0.711551
31
0.0
0
LINE
8
FRONT
10
0.644548
20
0.711551
30
0.0
11
0.645125
21
0.712086
31
0.0
0
LINE
8
FRONT
10
0.645125
20
0.712086
30
0.0
11
0.645646
21
0.712677
31
0.0
0
LINE
8
FRONT
10
0.645646
20
0.712677
30
0.0
11
0.646105
21
0.713316
31
0.0
0
LINE
8
FRONT
10
0.646105
20
0.713316
30
0.0
11
0.646499
21
0.713997
31
0.0
0
LINE
8
FRONT
10
0.646499
20
0.713997
30
0.0
11
0.646823
21
0.714715
31
0.0
0
LINE
8
FRONT
10
0.646823
20
0.714715
30
0.0
11
0.647073
21
0.715461
31
0.0
0
LINE
8
FRONT
10
0.647073
20
0.715461
30
0.0
11
0.647248
21
0.716228
31
0.0
0
LINE
8
FRONT
10
0.647248
20
0.716228
30
0.0
11
0.647346
21
0.717009
31
0.0
0
LINE
8
FRONT
10
0.647346
20
0.717009
30
0.0
11
0.647366
21
0.717796
31
0.0
0
LINE
8
FRONT
10
0.647366
20
0.717796
30
0.0
11
0.647307
21
0.718580
31
0.0
0
LINE
8
FRONT
10
0.647307
20
0.718580
30
0.0
11
0.647170
21
0.719356
31
0.0
0
LINE
8
FRONT
10
0.647170
20
0.719356
30
0.0
11
0.646957
21
0.720113
31
0.0
0
LINE
8
FRONT
10
0.646957
20
0.720113
30
0.0
11
0.646670
21
0.720846
31
0.0
0
LINE
8
FRONT
10
0.646670
20
0.720846
30
0.0
11
0.646311
21
0.721546
31
0.0
0
LINE
8
FRONT
10
0.646311
20
0.721546
30
0.0
11
0.645884
21
0.722207
31
0.0
0
LINE
8
FRONT
10
0.645884
20
0.722207
30
0.0
11
0.645393
21
0.722823
31
0.0
0
LINE
8
FRONT
10
0.645393
20
0.722823
30
0.0
11
0.644843
21
0.723386
31
0.0
0
LINE
8
FRONT
10
0.644843
20
0.723386
30
0.0
11
0.644241
21
0.723892
31
0.0
0
LINE
8
FRONT
10
0.644241
20
0.723892
30
0.0
11
0.643590
21
0.724335
31
0.0
0
LINE
8
FRONT
10
0.643590
20
0.724335
30
0.0
11
0.642899
21
0.724712
31
0.0
0
LINE
8
FRONT
10
0.642899
20
0.724712
30
0.0
11
0.642174
21
0.725017
31
0.0
0
LINE
8
FRONT
10
0.642174
20
0.725017
30
0.0
11
0.641422
21
0.725249
31
0.0
0
LINE
8
FRONT
10
0.641422
20
0.725249
30
0.0
11
0.640650
21
0.725405
31
0.0
0
LINE
8
FRONT
10
0.640650
20
0.725405
30
0.0
11
0.639867
21
0.725484
31
0.0
0
LINE
8
FRONT
10
0.639867
20
0.725484
30
0.0
11
0.639080
21
0.725484
31
0.0
0
LINE
8
FRONT
10
0.639080
20
0.725484
30
0.0
11
0.638297
21
0.725405
31
0.0
0
LINE
8
FRONT
10
0.638297
20
0.725405
30
0.0
11
0.637526
21
0.725249
31
0.0
0
LINE
8
FRONT
10
0.637526
20
0.725249
30
0.0
11
0.636774
21
0.725017
31
0.0
0
LINE
8
FRONT
10
0.636774
20
0.725017
30
0.0
11
0.636048
21
0.724712
31
0.0
0
LINE
8
FRONT
10
0.636048
20
0.724712
30
0.0
11
0.635357
21
0.724335
31
0.0
0
LINE
8
FRONT
10
0.635357
20
0.724335
30
0.0
11
0.634707
21
0.723892
31
0.0
0
LINE
8
FRONT
10
0.634707
20
0.723892
30
0.0
11
0.634104
21
0.723386
31
0.0
0
LINE
8
FRONT
10
0.634104
20
0.723386
30
0.0
11
0.633554
21
0.722823
31
0.0
0
LINE
8
FRONT
10
0.633554
20
0.722823
30
0.0
11
0.633064
21
0.722207
31
0.0
0
LINE
8
FRONT
10
0.633064
20
0.722207
30
0.0
11
0.632637
21
0.721546
31
0.0
0
LINE
8
FRONT
10
0.632637
20
0.721546
30
0.0
11
0.632278
21
0.720846
31
0.0
0
LINE
8
FRONT
10
0.632278
20
0.720846
30
0.0
11
0.631990
21
0.720113
31
0.0
0
LINE
8
FRONT
10
0.631990
20
0.720113
30
0.0
11
0.631777
21
0.719356
31
0.0
0
LINE
8
FRONT
10
0.631777
20
0.719356
30
0.0
11
0.631640
21
0.718580
31
0.0
0
LINE
8
FRONT
10
0.631640
20
0.718580
30
0.0
11
0.631581
21
0.717796
31
0.0
0
LINE
8
FRONT
10
0.631581
20
0.717796
30
0.0
11
0.631601
21
0.717009
31
0.0
0
LINE
8
FRONT
10
0.631601
20
0.717009
30
0.0
11
0.631699
21
0.716228
31
0.0
0
LINE
8
FRONT
10
0.631699
20
0.716228
30
0.0
11
0.631874
21
0.715461
31
0.0
0
LINE
8
FRONT
10
0.631874
20
0.715461
30
0.0
11
0.632125
21
0.714715
31
0.0
0
LINE
8
FRONT
10
0.632125
20
0.714715
30
0.0
11
0.632448
21
0.713997
31
0.0
0
LINE
8
FRONT
10
0.632448
20
0.713997
30
0.0
11
0.632842
21
0.713316
31
0.0
0
LINE
8
FRONT
10
0.632842
20
0.713316
30
0.0
11
0.633301
21
0.712677
31
0.0
0
LINE
8
FRONT
10
0.633301
20
0.712677
30
0.0
11
0.633822
21
0.712086
31
0.0
0
LINE
8
FRONT
10
0.633822
20
0.712086
30
0.0
11
0.634399
21
0.711551
31
0.0
0
LINE
8
FRONT
10
0.634399
20
0.711551
30
0.0
11
0.635026
21
0.711076
31
0.0
0
LINE
8
FRONT
10
0.635026
20
0.711076
30
0.0
11
0.635698
21
0.710666
31
0.0
0
LINE
8
FRONT
10
0.635698
20
0.710666
30
0.0
11
0.636407
21
0.710324
31
0.0
0
LINE
8
FRONT
10
0.636407
20
0.710324
30
0.0
11
0.637147
21
0.710055
31
0.0
0
LINE
8
FRONT
10
0.637147
20
0.710055
30
0.0
11
0.637909
21
0.709861
31
0.0
0
LINE
8
FRONT
10
0.637909
20
0.709861
30
0.0
11
0.638688
21
0.709743
31
0.0
0
LINE
8
FRONT
10
0.638688
20
0.709743
30
0.0
11
0.639474
21
0.709704
31
0.0
0
LINE
8
LEFT
10
0.897026
20
0.551809
30
0.0
11
0.928276
21
0.551809
31
0.0
0
LINE
8
LEFT
10
0.928276
20
0.551809
30
0.0
11
0.928276
21
0.228125
31
0.0
0
LINE
8
LEFT
10
0.897026
20
0.228125
30
0.0
11
0.928276
21
0.228125
31
0.0
0
LINE
8
LEFT
10
0.897026
20
0.551809
30
0.0
11
0.897026
21
0.228125
31
0.0
0
LINE
8
LEFT
10
0.928276
20
0.228125
30
0.0
11
0.928276
21
0.180757
31
0.0
0
LINE
8
LEFT
10
0.897026
20
0.180757
30
0.0
11
0.928276
21
0.180757
31
0.0
0
LINE
8
LEFT
10
0.897026
20
0.228125
30
0.0
11
0.897026
21
0.180757
31
0.0
0
LINE
8
LEFT
10
0.897026
20
0.804441
30
0.0
11
0.928276
21
0.804441
31
0.0
0
LINE
8
LEFT
10
0.928276
20
0.804441
30
0.0
11
0.928276
21
0.599178
31
0.0
0
LINE
8
LEFT
10
0.897026
20
0.804441
30
0.0
11
0.897026
21
0.599178
31
0.0
0
LINE
8
LEFT
10
0.928276
20
0.599178
30
0.0
11
0.928276
21
0.551809
31
0.0
0
LINE
8
LEFT
10
0.897026
20
0.599178
30
0.0
11
0.897026
21
0.551809
31
0.0
0
LINE
8
LEFT_HID
6
HIDDEN
10
0.897026
20
0.180757
30
0.0
11
0.897026
21
0.804441
31
0.0
0
LINE
8
LEFT_HID
6
HIDDEN
10
0.928276
20
0.180757
30
0.0
11
0.928276
21
0.804441
31
0.0
0
LINE
8
LEFT_HID
6
HIDDEN
10
0.897026
20
0.622862
30
0.0
11
0.897026
21
0.638651
31
0.0
0
LINE
8
LEFT_HID
6
HIDDEN
10
0.897026
20
0.638651
30
0.0
11
0.897026
21
0.622862
31
0.0
0
LINE
8
LEFT_HID
6
HIDDEN
10
0.897026
20
0.622862
30
0.0
11
0.928276
21
0.622862
31
0.0
0
LINE
8
LEFT_HID
6
HIDDEN
10
0.928276
20
0.622862
30
0.0
11
0.928276
21
0.638651
31
0.0
0
LINE
8
LEFT_HID
6
HIDDEN
10
0.928276
20
0.638651
30
0.0
11
0.928276
21
0.622862
31
0.0
0
LINE
8
LEFT_HID
6
HIDDEN
10
0.897026
20
0.749178
30
0.0
11
0.897026
21
0.764967
31
0.0
0
LINE
8
LEFT_HID
6
HIDDEN
10
0.897026
20
0.764967
30
0.0
11
0.897026
21
0.749178
31
0.0
0
LINE
8
LEFT_HID
6
HIDDEN
10
0.897026
20
0.749178
30
0.0
11
0.928276
21
0.749178
31
0.0
0
LINE
8
LEFT_HID
6
HIDDEN
10
0.928276
20
0.749178
30
0.0
11
0.928276
21
0.764967
31
0.0
0
LINE
8
LEFT_HID
6
HIDDEN
10
0.928276
20
0.764967
30
0.0
11
0.928276
21
0.749178
31
0.0
0
LINE
8
LEFT_HID
6
HIDDEN
10
0.897026
20
0.678125
30
0.0
11
0.897026
21
0.693915
31
0.0
0
LINE
8
LEFT_HID
6
HIDDEN
10
0.897026
20
0.693915
30
0.0
11
0.897026
21
0.678125
31
0.0
0
LINE
8
LEFT_HID
6
HIDDEN
10
0.897026
20
0.678125
30
0.0
11
0.928276
21
0.678125
31
0.0
0
LINE
8
LEFT_HID
6
HIDDEN
10
0.928276
20
0.678125
30
0.0
11
0.928276
21
0.693915
31
0.0
0
LINE
8
LEFT_HID
6
HIDDEN
10
0.928276
20
0.693915
30
0.0
11
0.928276
21
0.678125
31
0.0
0
LINE
8
LEFT_HID
6
HIDDEN
10
0.897026
20
0.204441
30
0.0
11
0.897026
21
0.220230
31
0.0
0
LINE
8
LEFT_HID
6
HIDDEN
10
0.897026
20
0.220230
30
0.0
11
0.897026
21
0.204441
31
0.0
0
LINE
8
LEFT_HID
6
HIDDEN
10
0.897026
20
0.204441
30
0.0
11
0.928276
21
0.204441
31
0.0
0
LINE
8
LEFT_HID
6
HIDDEN
10
0.928276
20
0.204441
30
0.0
11
0.928276
21
0.220230
31
0.0
0
LINE
8
LEFT_HID
6
HIDDEN
10
0.928276
20
0.220230
30
0.0
11
0.928276
21
0.204441
31
0.0
0
LINE
8
LEFT_HID
6
HIDDEN
10
0.897026
20
0.709704
30
0.0
11
0.897026
21
0.725494
31
0.0
0
LINE
8
LEFT_HID
6
HIDDEN
10
0.897026
20
0.725494
30
0.0
11
0.897026
21
0.709704
31
0.0
0
LINE
8
LEFT_HID
6
HIDDEN
10
0.897026
20
0.709704
30
0.0
11
0.928276
21
0.709704
31
0.0
0
LINE
8
LEFT_HID
6
HIDDEN
10
0.928276
20
0.709704
30
0.0
11
0.928276
21
0.725494
31
0.0
0
LINE
8
LEFT_HID
6
HIDDEN
10
0.928276
20
0.725494
30
0.0
11
0.928276
21
0.709704
31
0.0
0
LINE
8
LEFT_HID
6
HIDDEN
10
0.928276
20
0.638651
30
0.0
11
0.897026
21
0.638651
31
0.0
0
LINE
8
LEFT_HID
6
HIDDEN
10
0.928276
20
0.764967
30
0.0
11
0.897026
21
0.764967
31
0.0
0
LINE
8
LEFT_HID
6
HIDDEN
10
0.928276
20
0.693915
30
0.0
11
0.897026
21
0.693915
31
0.0
0
LINE
8
LEFT_HID
6
HIDDEN
10
0.928276
20
0.220230
30
0.0
11
0.897026
21
0.220230
31
0.0
0
LINE
8
LEFT_HID
6
HIDDEN
10
0.928276
20
0.725494
30
0.0
11
0.897026
21
0.725494
31
0.0
0
LINE
8
TOP
10
0.747534
20
0.031250
30
0.0
11
0.726316
21
0.031250
31
0.0
0
LINE
8
TOP
10
0.726316
20
0.031250
30
0.0
11
0.726316
21
0.000000
31
0.0
0
LINE
8
TOP
10
0.747534
20
0.000000
30
0.0
11
0.726316
21
0.000000
31
0.0
0
LINE
8
TOP
10
0.726316
20
0.000000
30
0.0
11
0.000000
21
0.000000
31
0.0
0
LINE
8
TOP
10
0.000000
20
0.031250
30
0.0
11
0.000000
21
0.000000
31
0.0
0
LINE
8
TOP
10
0.726316
20
0.031250
30
0.0
11
0.000000
21
0.031250
31
0.0
0
LINE
8
TOP
10
0.747534
20
0.000000
30
0.0
11
0.747534
21
0.031250
31
0.0
0
LINE
8
TOP_HID
6
HIDDEN
10
0.000000
20
0.000000
30
0.0
11
0.276316
21
0.000000
31
0.0
0
LINE
8
TOP_HID
6
HIDDEN
10
0.276316
20
0.031250
30
0.0
11
0.276316
21
0.000000
31
0.0
0
LINE
8
TOP_HID
6
HIDDEN
10
0.000000
20
0.031250
30
0.0
11
0.276316
21
0.031250
31
0.0
0
LINE
8
TOP_HID
6
HIDDEN
10
0.276316
20
0.000000
30
0.0
11
0.402632
21
0.000000
31
0.0
0
LINE
8
TOP_HID
6
HIDDEN
10
0.402632
20
0.031250
30
0.0
11
0.402632
21
0.000000
31
0.0
0
LINE
8
TOP_HID
6
HIDDEN
10
0.276316
20
0.031250
30
0.0
11
0.402632
21
0.031250
31
0.0
0
LINE
8
TOP_HID
6
HIDDEN
10
0.402632
20
0.000000
30
0.0
11
0.426316
21
0.000000
31
0.0
0
LINE
8
TOP_HID
6
HIDDEN
10
0.426316
20
0.031250
30
0.0
11
0.426316
21
0.000000
31
0.0
0
LINE
8
TOP_HID
6
HIDDEN
10
0.402632
20
0.031250
30
0.0
11
0.426316
21
0.031250
31
0.0
0
LINE
8
TOP_HID
6
HIDDEN
10
0.426316
20
0.031250
30
0.0
11
0.747534
21
0.031250
31
0.0
0
LINE
8
TOP_HID
6
HIDDEN
10
0.426316
20
0.000000
30
0.0
11
0.747534
21
0.000000
31
0.0
0
LINE
8
TOP_HID
6
HIDDEN
10
0.039474
20
0.031250
30
0.0
11
0.047368
21
0.031250
31
0.0
0
LINE
8
TOP_HID
6
HIDDEN
10
0.047368
20
0.031250
30
0.0
11
0.031579
21
0.031250
31
0.0
0
LINE
8
TOP_HID
6
HIDDEN
10
0.031579
20
0.031250
30
0.0
11
0.039474
21
0.031250
31
0.0
0
LINE
8
TOP_HID
6
HIDDEN
10
0.039474
20
0.000000
30
0.0
11
0.047368
21
0.000000
31
0.0
0
LINE
8
TOP_HID
6
HIDDEN
10
0.047368
20
0.000000
30
0.0
11
0.031579
21
0.000000
31
0.0
0
LINE
8
TOP_HID
6
HIDDEN
10
0.031579
20
0.000000
30
0.0
11
0.039474
21
0.000000
31
0.0
0
LINE
8
TOP_HID
6
HIDDEN
10
0.039474
20
0.031250
30
0.0
11
0.047368
21
0.031250
31
0.0
0
LINE
8
TOP_HID
6
HIDDEN
10
0.047368
20
0.031250
30
0.0
11
0.031579
21
0.031250
31
0.0
0
LINE
8
TOP_HID
6
HIDDEN
10
0.031579
20
0.031250
30
0.0
11
0.039474
21
0.031250
31
0.0
0
LINE
8
TOP_HID
6
HIDDEN
10
0.039474
20
0.000000
30
0.0
11
0.047368
21
0.000000
31
0.0
0
LINE
8
TOP_HID
6
HIDDEN
10
0.047368
20
0.000000
30
0.0
11
0.031579
21
0.000000
31
0.0
0
LINE
8
TOP_HID
6
HIDDEN
10
0.031579
20
0.000000
30
0.0
11
0.039474
21
0.000000
31
0.0
0
LINE
8
TOP_HID
6
HIDDEN
10
0.228947
20
0.031250
30
0.0
11
0.236842
21
0.031250
31
0.0
0
LINE
8
TOP_HID
6
HIDDEN
10
0.236842
20
0.031250
30
0.0
11
0.221053
21
0.031250
31
0.0
0
LINE
8
TOP_HID
6
HIDDEN
10
0.221053
20
0.031250
30
0.0
11
0.228947
21
0.031250
31
0.0
0
LINE
8
TOP_HID
6
HIDDEN
10
0.228947
20
0.000000
30
0.0
11
0.236842
21
0.000000
31
0.0
0
LINE
8
TOP_HID
6
HIDDEN
10
0.236842
20
0.000000
30
0.0
11
0.221053
21
0.000000
31
0.0
0
LINE
8
TOP_HID
6
HIDDEN
10
0.221053
20
0.000000
30
0.0
11
0.228947
21
0.000000
31
0.0
0
LINE
8
TOP_HID
6
HIDDEN
10
0.442105
20
0.031250
30
0.0
11
0.450000
21
0.031250
31
0.0
0
LINE
8
TOP_HID
6
HIDDEN
10
0.450000
20
0.031250
30
0.0
11
0.434211
21
0.031250
31
0.0
0
LINE
8
TOP_HID
6
HIDDEN
10
0.434211
20
0.031250
30
0.0
11
0.442105
21
0.031250
31
0.0
0
LINE
8
TOP_HID
6
HIDDEN
10
0.442105
20
0.000000
30
0.0
11
0.450000
21
0.000000
31
0.0
0
LINE
8
TOP_HID
6
HIDDEN
10
0.450000
20
0.000000
30
0.0
11
0.434211
21
0.000000
31
0.0
0
LINE
8
TOP_HID
6
HIDDEN
10
0.434211
20
0.000000
30
0.0
11
0.442105
21
0.000000
31
0.0
0
LINE
8
TOP_HID
6
HIDDEN
10
0.639474
20
0.031250
30
0.0
11
0.647368
21
0.031250
31
0.0
0
LINE
8
TOP_HID
6
HIDDEN
10
0.647368
20
0.031250
30
0.0
11
0.631579
21
0.031250
31
0.0
0
LINE
8
TOP_HID
6
HIDDEN
10
0.631579
20
0.031250
30
0.0
11
0.639474
21
0.031250
31
0.0
0
LINE
8
TOP_HID
6
HIDDEN
10
0.639474
20
0.000000
30
0.0
11
0.647368
21
0.000000
31
0.0
0
LINE
8
TOP_HID
6
HIDDEN
10
0.647368
20
0.000000
30
0.0
11
0.631579
21
0.000000
31
0.0
0
LINE
8
TOP_HID
6
HIDDEN
10
0.631579
20
0.000000
30
0.0
11
0.639474
21
0.000000
31
0.0
0
LINE
8
TOP_HID
6
HIDDEN
10
0.047368
20
0.000000
30
0.0
11
0.047368
21
0.031250
31
0.0
0
LINE
8
TOP_HID
6
HIDDEN
10
0.031579
20
0.000000
30
0.0
11
0.031579
21
0.031250
31
0.0
0
LINE
8
TOP_HID
6
HIDDEN
10
0.047368
20
0.000000
30
0.0
11
0.047368
21
0.031250
31
0.0
0
LINE
8
TOP_HID
6
HIDDEN
10
0.031579
20
0.000000
30
0.0
11
0.031579
21
0.031250
31
0.0
0
LINE
8
TOP_HID
6
HIDDEN
10
0.236842
20
0.000000
30
0.0
11
0.236842
21
0.031250
31
0.0
0
LINE
8
TOP_HID
6
HIDDEN
10
0.221053
20
0.000000
30
0.0
11
0.221053
21
0.031250
31
0.0
0
LINE
8
TOP_HID
6
HIDDEN
10
0.450000
20
0.000000
30
0.0
11
0.450000
21
0.031250
31
0.0
0
LINE
8
TOP_HID
6
HIDDEN
10
0.434211
20
0.000000
30
0.0
11
0.434211
21
0.031250
31
0.0
0
LINE
8
TOP_HID
6
HIDDEN
10
0.647368
20
0.000000
30
0.0
11
0.647368
21
0.031250
31
0.0
0
LINE
8
TOP_HID
6
HIDDEN
10
0.631579
20
0.000000
30
0.0
11
0.631579
21
0.031250
31
0.0
0
ENDSEC
0
EOF
