0
SECTION
2
HEADER
9
$ACADVER
1
AC1009
0
ENDSEC
0
SECTION
2
TABLES
0
TABLE
2
LTYPE
70
3
0
LTYPE
2
CONTINUOUS
70
0
3
Solid line
72
65
73
0
40
0.0
0
LTYPE
2
HIDDEN
70
0
3
__ __ __ __ __
72
65
73
2
40
0.012233
49
0.008159
49
-0.004073
0
LTYPE
2
CENTER
70
0
3
___ _ ___ _ ___
72
65
73
4
40
0.028539
49
0.016306
49
-0.004073
49
0.004073
49
-0.004073
0
ENDTAB
0
TABLE
2
LAYER
70
6
0
LAYER
2
0
70
0
62
7
6
CONTINUOUS
0
LAYER
2
FRONT
70
0
62
7
6
CONTINUOUS
0
LAYER
2
LEFT
70
0
62
7
6
CONTINUOUS
0
LAYER
2
LEFT_HID
70
0
62
7
6
HIDDEN
0
LAYER
2
TOP
70
0
62
7
6
CONTINUOUS
0
LAYER
2
TOP_HID
70
0
62
7
6
HIDDEN
0
ENDTAB
0
ENDSEC
0
SECTION
2
ENTITIES
0
LINE
8
FRONT
10
0.000000
20
0.419408
30
0.0
11
0.119243
21
0.390625
31
0.0
0
LINE
8
FRONT
10
0.014391
20
0.481086
30
0.0
11
0.000000
21
0.419408
31
0.0
0
LINE
8
FRONT
10
0.119243
20
0.390625
30
0.0
11
0.100740
21
0.312500
31
0.0
0
LINE
8
FRONT
10
0.100740
20
0.312500
30
0.0
11
0.086349
21
0.250822
31
0.0
0
LINE
8
FRONT
10
0.086349
20
0.250822
30
0.0
11
0.148026
21
0.236431
31
0.0
0
LINE
8
FRONT
10
0.148026
20
0.236431
30
0.0
11
0.195312
21
0.437911
31
0.0
0
LINE
8
FRONT
10
0.195313
20
0.437911
30
0.0
11
0.014391
21
0.481086
31
0.0
0
LINE
8
LEFT
10
0.337993
20
0.419408
30
0.0
11
0.431743
21
0.419408
31
0.0
0
LINE
8
LEFT
10
0.431743
20
0.419408
30
0.0
11
0.431743
21
0.390625
31
0.0
0
LINE
8
LEFT
10
0.337993
20
0.390625
30
0.0
11
0.431743
21
0.390625
31
0.0
0
LINE
8
LEFT
10
0.337993
20
0.481086
30
0.0
11
0.431743
21
0.481086
31
0.0
0
LINE
8
LEFT
10
0.431743
20
0.481086
30
0.0
11
0.431743
21
0.419408
31
0.0
0
LINE
8
LEFT
10
0.431743
20
0.390625
30
0.0
11
0.431743
21
0.312500
31
0.0
0
LINE
8
LEFT
10
0.337993
20
0.419408
30
0.0
11
0.244243
21
0.419408
31
0.0
0
LINE
8
LEFT
10
0.244243
20
0.419408
30
0.0
11
0.244243
21
0.390625
31
0.0
0
LINE
8
LEFT
10
0.337993
20
0.390625
30
0.0
11
0.244243
21
0.390625
31
0.0
0
LINE
8
LEFT
10
0.431743
20
0.312500
30
0.0
11
0.431743
21
0.250822
31
0.0
0
LINE
8
LEFT
10
0.431743
20
0.250822
30
0.0
11
0.431743
21
0.236431
31
0.0
0
LINE
8
LEFT
10
0.337993
20
0.481086
30
0.0
11
0.244243
21
0.481086
31
0.0
0
LINE
8
LEFT
10
0.244243
20
0.481086
30
0.0
11
0.244243
21
0.419408
31
0.0
0
LINE
8
LEFT
10
0.337993
20
0.250822
30
0.0
11
0.431743
21
0.250822
31
0.0
0
LINE
8
LEFT
10
0.244243
20
0.390625
30
0.0
11
0.244243
21
0.312500
31
0.0
0
LINE
8
LEFT
10
0.244243
20
0.312500
30
0.0
11
0.244243
21
0.250822
31
0.0
0
LINE
8
LEFT
10
0.244243
20
0.250822
30
0.0
11
0.244243
21
0.236431
31
0.0
0
LINE
8
LEFT
10
0.337993
20
0.236431
30
0.0
11
0.431743
21
0.236431
31
0.0
0
LINE
8
LEFT
10
0.337993
20
0.250822
30
0.0
11
0.244243
21
0.250822
31
0.0
0
LINE
8
LEFT
10
0.337993
20
0.236431
30
0.0
11
0.244243
21
0.236431
31
0.0
0
LINE
8
LEFT
10
0.337993
20
0.312500
30
0.0
11
0.431743
21
0.312500
31
0.0
0
LINE
8
LEFT
10
0.337993
20
0.312500
30
0.0
11
0.244243
21
0.312500
31
0.0
0
LINE
8
LEFT_HID
6
HIDDEN
10
0.431743
20
0.236431
30
0.0
11
0.431743
21
0.437911
31
0.0
0
LINE
8
LEFT_HID
6
HIDDEN
10
0.431743
20
0.437911
30
0.0
11
0.431743
21
0.481086
31
0.0
0
LINE
8
LEFT_HID
6
HIDDEN
10
0.337993
20
0.437911
30
0.0
11
0.431743
21
0.437911
31
0.0
0
LINE
8
LEFT_HID
6
HIDDEN
10
0.244243
20
0.236431
30
0.0
11
0.244243
21
0.437911
31
0.0
0
LINE
8
LEFT_HID
6
HIDDEN
10
0.244243
20
0.437911
30
0.0
11
0.244243
21
0.481086
31
0.0
0
LINE
8
LEFT_HID
6
HIDDEN
10
0.337993
20
0.437911
30
0.0
11
0.244243
21
0.437911
31
0.0
0
LINE
8
TOP
10
0.000000
20
0.093750
30
0.0
11
0.000000
21
0.000000
31
0.0
0
LINE
8
TOP
10
0.014391
20
0.093750
30
0.0
11
0.014391
21
0.000000
31
0.0
0
LINE
8
TOP
10
0.014391
20
0.000000
30
0.0
11
0.000000
21
0.000000
31
0.0
0
LINE
8
TOP
10
0.000000
20
0.093750
30
0.0
11
0.000000
21
0.187500
31
0.0
0
LINE
8
TOP
10
0.195313
20
0.000000
30
0.0
11
0.014391
21
0.000000
31
0.0
0
LINE
8
TOP
10
0.195313
20
0.093750
30
0.0
11
0.195313
21
0.000000
31
0.0
0
LINE
8
TOP
10
0.014391
20
0.093750
30
0.0
11
0.014391
21
0.187500
31
0.0
0
LINE
8
TOP
10
0.014391
20
0.187500
30
0.0
11
0.000000
21
0.187500
31
0.0
0
LINE
8
TOP
10
0.195313
20
0.187500
30
0.0
11
0.014391
21
0.187500
31
0.0
0
LINE
8
TOP
10
0.195313
20
0.093750
30
0.0
11
0.195313
21
0.187500
31
0.0
0
LINE
8
TOP_HID
6
HIDDEN
10
0.000000
20
0.000000
30
0.0
11
0.119243
21
0.000000
31
0.0
0
LINE
8
TOP_HID
6
HIDDEN
10
0.119243
20
0.093750
30
0.0
11
0.119243
21
0.000000
31
0.0
0
LINE
8
TOP_HID
6
HIDDEN
10
0.119243
20
0.000000
30
0.0
11
0.100740
21
0.000000
31
0.0
0
LINE
8
TOP_HID
6
HIDDEN
10
0.000000
20
0.187500
30
0.0
11
0.119243
21
0.187500
31
0.0
0
LINE
8
TOP_HID
6
HIDDEN
10
0.119243
20
0.093750
30
0.0
11
0.119243
21
0.187500
31
0.0
0
LINE
8
TOP_HID
6
HIDDEN
10
0.100740
20
0.000000
30
0.0
11
0.086349
21
0.000000
31
0.0
0
LINE
8
TOP_HID
6
HIDDEN
10
0.086349
20
0.000000
30
0.0
11
0.148026
21
0.000000
31
0.0
0
LINE
8
TOP_HID
6
HIDDEN
10
0.148026
20
0.000000
30
0.0
11
0.195312
21
0.000000
31
0.0
0
LINE
8
TOP_HID
6
HIDDEN
10
0.086349
20
0.093750
30
0.0
11
0.086349
21
0.000000
31
0.0
0
LINE
8
TOP_HID
6
HIDDEN
10
0.119243
20
0.187500
30
0.0
11
0.100740
21
0.187500
31
0.0
0
LINE
8
TOP_HID
6
HIDDEN
10
0.100740
20
0.187500
30
0.0
11
0.086349
21
0.187500
31
0.0
0
LINE
8
TOP_HID
6
HIDDEN
10
0.086349
20
0.187500
30
0.0
11
0.148026
21
0.187500
31
0.0
0
LINE
8
TOP_HID
6
HIDDEN
10
0.148026
20
0.187500
30
0.0
11
0.195312
21
0.187500
31
0.0
0
LINE
8
TOP_HID
6
HIDDEN
10
0.148026
20
0.093750
30
0.0
11
0.148026
21
0.000000
31
0.0
0
LINE
8
TOP_HID
6
HIDDEN
10
0.086349
20
0.093750
30
0.0
11
0.086349
21
0.187500
31
0.0
0
LINE
8
TOP_HID
6
HIDDEN
10
0.148026
20
0.093750
30
0.0
11
0.148026
21
0.187500
31
0.0
0
LINE
8
TOP_HID
6
HIDDEN
10
0.100740
20
0.093750
30
0.0
11
0.100740
21
0.000000
31
0.0
0
LINE
8
TOP_HID
6
HIDDEN
10
0.100740
20
0.093750
30
0.0
11
0.100740
21
0.187500
31
0.0
0
ENDSEC
0
EOF
