0
SECTION
2
HEADER
9
$ACADVER
1
AC1009
0
ENDSEC
0
SECTION
2
TABLES
0
TABLE
2
LTYPE
70
3
0
LTYPE
2
CONTINUOUS
70
0
3
Solid line
72
65
73
0
40
0.0
0
LTYPE
2
HIDDEN
70
0
3
__ __ __ __ __
72
65
73
2
40
0.073828
49
0.049243
49
-0.024585
0
LTYPE
2
CENTER
70
0
3
___ _ ___ _ ___
72
65
73
4
40
0.172241
49
0.098413
49
-0.024585
49
0.024585
49
-0.024585
0
ENDTAB
0
TABLE
2
LAYER
70
6
0
LAYER
2
0
70
0
62
7
6
CONTINUOUS
0
LAYER
2
FRONT
70
0
62
7
6
CONTINUOUS
0
LAYER
2
FRONT_HID
70
0
62
7
6
HIDDEN
0
LAYER
2
LEFT
70
0
62
7
6
CONTINUOUS
0
LAYER
2
LEFT_HID
70
0
62
7
6
HIDDEN
0
LAYER
2
TOP
70
0
62
7
6
CONTINUOUS
0
ENDTAB
0
ENDSEC
0
SECTION
2
ENTITIES
0
LINE
8
FRONT
10
0.000000
20
1.569819
30
0.0
11
0.000000
21
2.069819
31
0.0
0
LINE
8
FRONT
10
0.373026
20
1.569819
30
0.0
11
0.373026
21
2.069819
31
0.0
0
LINE
8
FRONT
10
0.373026
20
2.069819
30
0.0
11
0.000000
21
2.069819
31
0.0
0
LINE
8
FRONT
10
0.373026
20
1.569819
30
0.0
11
0.000000
21
1.569819
31
0.0
0
LINE
8
FRONT
10
1.476563
20
1.569819
30
0.0
11
1.103536
21
1.569819
31
0.0
0
LINE
8
FRONT
10
1.103536
20
1.569819
30
0.0
11
0.373026
21
1.569819
31
0.0
0
LINE
8
FRONT
10
1.476563
20
2.069819
30
0.0
11
1.103536
21
2.069819
31
0.0
0
LINE
8
FRONT
10
1.103536
20
2.069819
30
0.0
11
0.373026
21
2.069819
31
0.0
0
LINE
8
FRONT
10
1.103536
20
1.569819
30
0.0
11
1.103536
21
2.069819
31
0.0
0
LINE
8
FRONT
10
1.476563
20
1.569819
30
0.0
11
1.476563
21
2.069819
31
0.0
0
LINE
8
FRONT
10
1.356414
20
2.069819
30
0.0
11
1.356414
21
2.319819
31
0.0
0
LINE
8
FRONT
10
1.356414
20
2.319819
30
0.0
11
0.140625
21
2.319819
31
0.0
0
LINE
8
FRONT
10
0.140625
20
2.319819
30
0.0
11
0.140625
21
2.069819
31
0.0
0
LINE
8
FRONT_HID
6
HIDDEN
10
1.356414
20
2.069819
30
0.0
11
0.140625
21
2.069819
31
0.0
0
LINE
8
FRONT_HID
6
HIDDEN
10
0.140625
20
2.069819
30
0.0
11
1.356414
21
2.069819
31
0.0
0
LINE
8
LEFT
10
2.409128
20
1.569819
30
0.0
11
2.409128
21
2.069819
31
0.0
0
LINE
8
LEFT
10
2.409128
20
2.069819
30
0.0
11
3.046382
21
2.069819
31
0.0
0
LINE
8
LEFT
10
3.046382
20
1.569819
30
0.0
11
3.046382
21
2.069819
31
0.0
0
LINE
8
LEFT
10
2.409128
20
1.569819
30
0.0
11
3.046382
21
1.569819
31
0.0
0
LINE
8
LEFT
10
1.771875
20
1.569819
30
0.0
11
1.771875
21
2.069819
31
0.0
0
LINE
8
LEFT
10
1.771875
20
2.069819
30
0.0
11
2.409128
21
2.069819
31
0.0
0
LINE
8
LEFT
10
1.771875
20
1.569819
30
0.0
11
2.409128
21
1.569819
31
0.0
0
LINE
8
LEFT
10
1.801234
20
2.319819
30
0.0
11
3.017023
21
2.319819
31
0.0
0
LINE
8
LEFT
10
1.801234
20
2.319819
30
0.0
11
1.801234
21
2.069819
31
0.0
0
LINE
8
LEFT
10
3.017023
20
2.319819
30
0.0
11
3.017023
21
2.069819
31
0.0
0
LINE
8
LEFT_HID
6
HIDDEN
10
2.409128
20
2.069819
30
0.0
11
1.801234
21
2.069819
31
0.0
0
LINE
8
LEFT_HID
6
HIDDEN
10
1.801234
20
2.069819
30
0.0
11
3.017023
21
2.069819
31
0.0
0
LINE
8
LEFT_HID
6
HIDDEN
10
3.017023
20
2.069819
30
0.0
11
2.409128
21
2.069819
31
0.0
0
LINE
8
LEFT_HID
6
HIDDEN
10
2.409128
20
2.319819
30
0.0
11
1.801234
21
2.319819
31
0.0
0
LINE
8
LEFT_HID
6
HIDDEN
10
3.017023
20
2.319819
30
0.0
11
2.409128
21
2.319819
31
0.0
0
LINE
8
TOP
10
0.000000
20
0.637253
30
0.0
11
0.373026
21
0.000000
31
0.0
0
LINE
8
TOP
10
0.373026
20
1.274507
30
0.0
11
0.000000
21
0.637253
31
0.0
0
LINE
8
TOP
10
0.373026
20
0.000000
30
0.0
11
1.103536
21
0.000000
31
0.0
0
LINE
8
TOP
10
1.103536
20
0.000000
30
0.0
11
1.476563
21
0.637253
31
0.0
0
LINE
8
TOP
10
1.476563
20
0.637253
30
0.0
11
1.103536
21
1.274507
31
0.0
0
LINE
8
TOP
10
1.103536
20
1.274507
30
0.0
11
0.373026
21
1.274507
31
0.0
0
LINE
8
TOP
10
1.356414
20
0.637253
30
0.0
11
1.353394
21
0.697780
31
0.0
0
LINE
8
TOP
10
1.353394
20
0.697780
30
0.0
11
1.344361
21
0.757705
31
0.0
0
LINE
8
TOP
10
1.344361
20
0.757705
30
0.0
11
1.329407
21
0.816433
31
0.0
0
LINE
8
TOP
10
1.329407
20
0.816433
30
0.0
11
1.308680
21
0.873381
31
0.0
0
LINE
8
TOP
10
1.308680
20
0.873381
30
0.0
11
1.282386
21
0.927981
31
0.0
0
LINE
8
TOP
10
1.282386
20
0.927981
30
0.0
11
1.250786
21
0.979693
31
0.0
0
LINE
8
TOP
10
1.250786
20
0.979693
30
0.0
11
1.214194
21
1.028000
31
0.0
0
LINE
8
TOP
10
1.214194
20
1.028000
30
0.0
11
1.172974
21
1.072425
31
0.0
0
LINE
8
TOP
10
1.172974
20
1.072425
30
0.0
11
1.127536
21
1.112525
31
0.0
0
LINE
8
TOP
10
1.127536
20
1.112525
30
0.0
11
1.078331
21
1.147901
31
0.0
0
LINE
8
TOP
10
1.078331
20
1.147901
30
0.0
11
1.025848
21
1.178202
31
0.0
0
LINE
8
TOP
10
1.025848
20
1.178202
30
0.0
11
0.970609
21
1.203127
31
0.0
0
LINE
8
TOP
10
0.970609
20
1.203127
30
0.0
11
0.913162
21
1.222428
31
0.0
0
LINE
8
TOP
10
0.913162
20
1.222428
30
0.0
11
0.854080
21
1.235913
31
0.0
0
LINE
8
TOP
10
0.854080
20
1.235913
30
0.0
11
0.793948
21
1.243448
31
0.0
0
LINE
8
TOP
10
0.793948
20
1.243448
30
0.0
11
0.733365
21
1.244959
31
0.0
0
LINE
8
TOP
10
0.733365
20
1.244959
30
0.0
11
0.672932
21
1.240430
31
0.0
0
LINE
8
TOP
10
0.672932
20
1.240430
30
0.0
11
0.613250
21
1.229907
31
0.0
0
LINE
8
TOP
10
0.613250
20
1.229907
30
0.0
11
0.554913
21
1.213493
31
0.0
0
LINE
8
TOP
10
0.554913
20
1.213493
30
0.0
11
0.498500
21
1.191353
31
0.0
0
LINE
8
TOP
10
0.498500
20
1.191353
30
0.0
11
0.444572
21
1.163706
31
0.0
0
LINE
8
TOP
10
0.444572
20
1.163706
30
0.0
11
0.393665
21
1.130826
31
0.0
0
LINE
8
TOP
10
0.393665
20
1.130826
30
0.0
11
0.346284
21
1.093041
31
0.0
0
LINE
8
TOP
10
0.346284
20
1.093041
30
0.0
11
0.302901
21
1.050727
31
0.0
0
LINE
8
TOP
10
0.302901
20
1.050727
30
0.0
11
0.263947
21
1.004303
31
0.0
0
LINE
8
TOP
10
0.263947
20
1.004303
30
0.0
11
0.229809
21
0.954231
31
0.0
0
LINE
8
TOP
10
0.229809
20
0.954231
30
0.0
11
0.200826
21
0.901009
31
0.0
0
LINE
8
TOP
10
0.200826
20
0.901009
30
0.0
11
0.177286
21
0.845166
31
0.0
0
LINE
8
TOP
10
0.177286
20
0.845166
30
0.0
11
0.159423
21
0.787256
31
0.0
0
LINE
8
TOP
10
0.159423
20
0.787256
30
0.0
11
0.147415
21
0.727855
31
0.0
0
LINE
8
TOP
10
0.147415
20
0.727855
30
0.0
11
0.141381
21
0.667554
31
0.0
0
LINE
8
TOP
10
0.141381
20
0.667554
30
0.0
11
0.141381
21
0.606952
31
0.0
0
LINE
8
TOP
10
0.141381
20
0.606952
30
0.0
11
0.147415
21
0.546651
31
0.0
0
LINE
8
TOP
10
0.147415
20
0.546651
30
0.0
11
0.159423
21
0.487251
31
0.0
0
LINE
8
TOP
10
0.159423
20
0.487251
30
0.0
11
0.177286
21
0.429341
31
0.0
0
LINE
8
TOP
10
0.177286
20
0.429341
30
0.0
11
0.200826
21
0.373498
31
0.0
0
LINE
8
TOP
10
0.200826
20
0.373498
30
0.0
11
0.229809
21
0.320276
31
0.0
0
LINE
8
TOP
10
0.229809
20
0.320276
30
0.0
11
0.263947
21
0.270204
31
0.0
0
LINE
8
TOP
10
0.263947
20
0.270204
30
0.0
11
0.302901
21
0.223780
31
0.0
0
LINE
8
TOP
10
0.302901
20
0.223780
30
0.0
11
0.346284
21
0.181465
31
0.0
0
LINE
8
TOP
10
0.346284
20
0.181465
30
0.0
11
0.393665
21
0.143680
31
0.0
0
LINE
8
TOP
10
0.393665
20
0.143680
30
0.0
11
0.444572
21
0.110801
31
0.0
0
LINE
8
TOP
10
0.444572
20
0.110801
30
0.0
11
0.498500
21
0.083154
31
0.0
0
LINE
8
TOP
10
0.498500
20
0.083154
30
0.0
11
0.554913
21
0.061013
31
0.0
0
LINE
8
TOP
10
0.554913
20
0.061013
30
0.0
11
0.613250
21
0.044600
31
0.0
0
LINE
8
TOP
10
0.613250
20
0.044600
30
0.0
11
0.672932
21
0.034076
31
0.0
0
LINE
8
TOP
10
0.672932
20
0.034076
30
0.0
11
0.733365
21
0.029547
31
0.0
0
LINE
8
TOP
10
0.733365
20
0.029547
30
0.0
11
0.793948
21
0.031058
31
0.0
0
LINE
8
TOP
10
0.793948
20
0.031058
30
0.0
11
0.854080
21
0.038594
31
0.0
0
LINE
8
TOP
10
0.854080
20
0.038594
30
0.0
11
0.913162
21
0.052079
31
0.0
0
LINE
8
TOP
10
0.913162
20
0.052079
30
0.0
11
0.970609
21
0.071380
31
0.0
0
LINE
8
TOP
10
0.970609
20
0.071380
30
0.0
11
1.025848
21
0.096305
31
0.0
0
LINE
8
TOP
10
1.025848
20
0.096305
30
0.0
11
1.078331
21
0.126606
31
0.0
0
LINE
8
TOP
10
1.078331
20
0.126606
30
0.0
11
1.127536
21
0.161982
31
0.0
0
LINE
8
TOP
10
1.127536
20
0.161982
30
0.0
11
1.172974
21
0.202082
31
0.0
0
LINE
8
TOP
10
1.172974
20
0.202082
30
0.0
11
1.214194
21
0.246506
31
0.0
0
LINE
8
TOP
10
1.214194
20
0.246506
30
0.0
11
1.250786
21
0.294814
31
0.0
0
LINE
8
TOP
10
1.250786
20
0.294814
30
0.0
11
1.282386
21
0.346525
31
0.0
0
LINE
8
TOP
10
1.282386
20
0.346525
30
0.0
11
1.308680
21
0.401126
31
0.0
0
LINE
8
TOP
10
1.308680
20
0.401126
30
0.0
11
1.329407
21
0.458073
31
0.0
0
LINE
8
TOP
10
1.329407
20
0.458073
30
0.0
11
1.344361
21
0.516801
31
0.0
0
LINE
8
TOP
10
1.344361
20
0.516801
30
0.0
11
1.353394
21
0.576727
31
0.0
0
LINE
8
TOP
10
1.353394
20
0.576727
30
0.0
11
1.356414
21
0.637253
31
0.0
0
ENDSEC
0
EOF
