0
SECTION
2
HEADER
9
$ACADVER
1
AC1009
0
ENDSEC
0
SECTION
2
TABLES
0
TABLE
2
LTYPE
70
3
0
LTYPE
2
CONTINUOUS
70
0
3
Solid line
72
65
73
0
40
0.0
0
LTYPE
2
HIDDEN
70
0
3
__ __ __ __ __
72
65
73
2
40
0.020313
49
0.013548
49
-0.006764
0
LTYPE
2
CENTER
70
0
3
___ _ ___ _ ___
72
65
73
4
40
0.047389
49
0.027077
49
-0.006764
49
0.006764
49
-0.006764
0
ENDTAB
0
TABLE
2
LAYER
70
7
0
LAYER
2
0
70
0
62
7
6
CONTINUOUS
0
LAYER
2
FRONT
70
0
62
7
6
CONTINUOUS
0
LAYER
2
FRONT_HID
70
0
62
7
6
HIDDEN
0
LAYER
2
LEFT
70
0
62
7
6
CONTINUOUS
0
LAYER
2
LEFT_HID
70
0
62
7
6
HIDDEN
0
LAYER
2
TOP
70
0
62
7
6
CONTINUOUS
0
LAYER
2
TOP_HID
70
0
62
7
6
HIDDEN
0
ENDTAB
0
ENDSEC
0
SECTION
2
ENTITIES
0
LINE
8
FRONT
10
0.000000
20
0.576316
30
0.0
11
0.157895
21
0.487500
31
0.0
0
LINE
8
FRONT
10
0.000000
20
0.757237
30
0.0
11
0.000000
21
0.576316
31
0.0
0
LINE
8
FRONT
10
0.157895
20
0.487500
30
0.0
11
0.312500
21
0.576316
31
0.0
0
LINE
8
FRONT
10
0.312500
20
0.576316
30
0.0
11
0.312500
21
0.757237
31
0.0
0
LINE
8
FRONT
10
0.312500
20
0.757237
30
0.0
11
0.157895
21
0.846053
31
0.0
0
LINE
8
FRONT
10
0.157895
20
0.846053
30
0.0
11
0.000000
21
0.757237
31
0.0
0
LINE
8
FRONT_HID
6
HIDDEN
10
0.161266
20
0.563487
30
0.0
11
0.171878
21
0.564016
31
0.0
0
LINE
8
FRONT_HID
6
HIDDEN
10
0.171878
20
0.564016
30
0.0
11
0.182385
21
0.565600
31
0.0
0
LINE
8
FRONT_HID
6
HIDDEN
10
0.182385
20
0.565600
30
0.0
11
0.192681
21
0.568222
31
0.0
0
LINE
8
FRONT_HID
6
HIDDEN
10
0.192681
20
0.568222
30
0.0
11
0.202665
21
0.571856
31
0.0
0
LINE
8
FRONT_HID
6
HIDDEN
10
0.202665
20
0.571856
30
0.0
11
0.212238
21
0.576466
31
0.0
0
LINE
8
FRONT_HID
6
HIDDEN
10
0.212238
20
0.576466
30
0.0
11
0.221305
21
0.582006
31
0.0
0
LINE
8
FRONT_HID
6
HIDDEN
10
0.221305
20
0.582006
30
0.0
11
0.229774
21
0.588422
31
0.0
0
LINE
8
FRONT_HID
6
HIDDEN
10
0.229774
20
0.588422
30
0.0
11
0.237563
21
0.595648
31
0.0
0
LINE
8
FRONT_HID
6
HIDDEN
10
0.237563
20
0.595648
30
0.0
11
0.244593
21
0.603615
31
0.0
0
LINE
8
FRONT_HID
6
HIDDEN
10
0.244593
20
0.603615
30
0.0
11
0.250796
21
0.612242
31
0.0
0
LINE
8
FRONT_HID
6
HIDDEN
10
0.250796
20
0.612242
30
0.0
11
0.256108
21
0.621443
31
0.0
0
LINE
8
FRONT_HID
6
HIDDEN
10
0.256108
20
0.621443
30
0.0
11
0.260478
21
0.631128
31
0.0
0
LINE
8
FRONT_HID
6
HIDDEN
10
0.260478
20
0.631128
30
0.0
11
0.263862
21
0.641200
31
0.0
0
LINE
8
FRONT_HID
6
HIDDEN
10
0.263862
20
0.641200
30
0.0
11
0.266226
21
0.651559
31
0.0
0
LINE
8
FRONT_HID
6
HIDDEN
10
0.266226
20
0.651559
30
0.0
11
0.267547
21
0.662101
31
0.0
0
LINE
8
FRONT_HID
6
HIDDEN
10
0.267547
20
0.662101
30
0.0
11
0.267812
21
0.672723
31
0.0
0
LINE
8
FRONT_HID
6
HIDDEN
10
0.267812
20
0.672723
30
0.0
11
0.267018
21
0.683318
31
0.0
0
LINE
8
FRONT_HID
6
HIDDEN
10
0.267018
20
0.683318
30
0.0
11
0.265173
21
0.693782
31
0.0
0
LINE
8
FRONT_HID
6
HIDDEN
10
0.265173
20
0.693782
30
0.0
11
0.262296
21
0.704010
31
0.0
0
LINE
8
FRONT_HID
6
HIDDEN
10
0.262296
20
0.704010
30
0.0
11
0.258414
21
0.713900
31
0.0
0
LINE
8
FRONT_HID
6
HIDDEN
10
0.258414
20
0.713900
30
0.0
11
0.253567
21
0.723355
31
0.0
0
LINE
8
FRONT_HID
6
HIDDEN
10
0.253567
20
0.723355
30
0.0
11
0.247802
21
0.732281
31
0.0
0
LINE
8
FRONT_HID
6
HIDDEN
10
0.247802
20
0.732281
30
0.0
11
0.241177
21
0.740588
31
0.0
0
LINE
8
FRONT_HID
6
HIDDEN
10
0.241177
20
0.740588
30
0.0
11
0.233759
21
0.748194
31
0.0
0
LINE
8
FRONT_HID
6
HIDDEN
10
0.233759
20
0.748194
30
0.0
11
0.225619
21
0.755023
31
0.0
0
LINE
8
FRONT_HID
6
HIDDEN
10
0.225619
20
0.755023
30
0.0
11
0.216840
21
0.761009
31
0.0
0
LINE
8
FRONT_HID
6
HIDDEN
10
0.216840
20
0.761009
30
0.0
11
0.207509
21
0.766090
31
0.0
0
LINE
8
FRONT_HID
6
HIDDEN
10
0.207509
20
0.766090
30
0.0
11
0.197719
21
0.770217
31
0.0
0
LINE
8
FRONT_HID
6
HIDDEN
10
0.197719
20
0.770217
30
0.0
11
0.187566
21
0.773349
31
0.0
0
LINE
8
FRONT_HID
6
HIDDEN
10
0.187566
20
0.773349
30
0.0
11
0.177151
21
0.775454
31
0.0
0
LINE
8
FRONT_HID
6
HIDDEN
10
0.177151
20
0.775454
30
0.0
11
0.166579
21
0.776512
31
0.0
0
LINE
8
FRONT_HID
6
HIDDEN
10
0.166579
20
0.776512
30
0.0
11
0.155954
21
0.776512
31
0.0
0
LINE
8
FRONT_HID
6
HIDDEN
10
0.155954
20
0.776512
30
0.0
11
0.145382
21
0.775454
31
0.0
0
LINE
8
FRONT_HID
6
HIDDEN
10
0.145382
20
0.775454
30
0.0
11
0.134967
21
0.773349
31
0.0
0
LINE
8
FRONT_HID
6
HIDDEN
10
0.134967
20
0.773349
30
0.0
11
0.124814
21
0.770217
31
0.0
0
LINE
8
FRONT_HID
6
HIDDEN
10
0.124814
20
0.770217
30
0.0
11
0.115024
21
0.766090
31
0.0
0
LINE
8
FRONT_HID
6
HIDDEN
10
0.115024
20
0.766090
30
0.0
11
0.105692
21
0.761009
31
0.0
0
LINE
8
FRONT_HID
6
HIDDEN
10
0.105692
20
0.761009
30
0.0
11
0.096914
21
0.755023
31
0.0
0
LINE
8
FRONT_HID
6
HIDDEN
10
0.096914
20
0.755023
30
0.0
11
0.088774
21
0.748194
31
0.0
0
LINE
8
FRONT_HID
6
HIDDEN
10
0.088774
20
0.748194
30
0.0
11
0.081356
21
0.740588
31
0.0
0
LINE
8
FRONT_HID
6
HIDDEN
10
0.081356
20
0.740588
30
0.0
11
0.074731
21
0.732281
31
0.0
0
LINE
8
FRONT_HID
6
HIDDEN
10
0.074731
20
0.732281
30
0.0
11
0.068966
21
0.723355
31
0.0
0
LINE
8
FRONT_HID
6
HIDDEN
10
0.068966
20
0.723355
30
0.0
11
0.064119
21
0.713900
31
0.0
0
LINE
8
FRONT_HID
6
HIDDEN
10
0.064119
20
0.713900
30
0.0
11
0.060237
21
0.704010
31
0.0
0
LINE
8
FRONT_HID
6
HIDDEN
10
0.060237
20
0.704010
30
0.0
11
0.057360
21
0.693782
31
0.0
0
LINE
8
FRONT_HID
6
HIDDEN
10
0.057360
20
0.693782
30
0.0
11
0.055515
21
0.683318
31
0.0
0
LINE
8
FRONT_HID
6
HIDDEN
10
0.055515
20
0.683318
30
0.0
11
0.054721
21
0.672723
31
0.0
0
LINE
8
FRONT_HID
6
HIDDEN
10
0.054721
20
0.672723
30
0.0
11
0.054986
21
0.662101
31
0.0
0
LINE
8
FRONT_HID
6
HIDDEN
10
0.054986
20
0.662101
30
0.0
11
0.056307
21
0.651559
31
0.0
0
LINE
8
FRONT_HID
6
HIDDEN
10
0.056307
20
0.651559
30
0.0
11
0.058671
21
0.641200
31
0.0
0
LINE
8
FRONT_HID
6
HIDDEN
10
0.058671
20
0.641200
30
0.0
11
0.062055
21
0.631128
31
0.0
0
LINE
8
FRONT_HID
6
HIDDEN
10
0.062055
20
0.631128
30
0.0
11
0.066425
21
0.621443
31
0.0
0
LINE
8
FRONT_HID
6
HIDDEN
10
0.066425
20
0.621443
30
0.0
11
0.071737
21
0.612242
31
0.0
0
LINE
8
FRONT_HID
6
HIDDEN
10
0.071737
20
0.612242
30
0.0
11
0.077940
21
0.603615
31
0.0
0
LINE
8
FRONT_HID
6
HIDDEN
10
0.077940
20
0.603615
30
0.0
11
0.084970
21
0.595648
31
0.0
0
LINE
8
FRONT_HID
6
HIDDEN
10
0.084970
20
0.595648
30
0.0
11
0.092759
21
0.588422
31
0.0
0
LINE
8
FRONT_HID
6
HIDDEN
10
0.092759
20
0.588422
30
0.0
11
0.101228
21
0.582006
31
0.0
0
LINE
8
FRONT_HID
6
HIDDEN
10
0.101228
20
0.582006
30
0.0
11
0.110295
21
0.576466
31
0.0
0
LINE
8
FRONT_HID
6
HIDDEN
10
0.110295
20
0.576466
30
0.0
11
0.119867
21
0.571856
31
0.0
0
LINE
8
FRONT_HID
6
HIDDEN
10
0.119867
20
0.571856
30
0.0
11
0.129852
21
0.568222
31
0.0
0
LINE
8
FRONT_HID
6
HIDDEN
10
0.129852
20
0.568222
30
0.0
11
0.140148
21
0.565600
31
0.0
0
LINE
8
FRONT_HID
6
HIDDEN
10
0.140148
20
0.565600
30
0.0
11
0.150655
21
0.564016
31
0.0
0
LINE
8
FRONT_HID
6
HIDDEN
10
0.150655
20
0.564016
30
0.0
11
0.161266
21
0.563487
31
0.0
0
LINE
8
FRONT_HID
6
HIDDEN
10
0.161266
20
0.563487
30
0.0
11
0.171878
21
0.564016
31
0.0
0
LINE
8
FRONT_HID
6
HIDDEN
10
0.171878
20
0.564016
30
0.0
11
0.182385
21
0.565600
31
0.0
0
LINE
8
FRONT_HID
6
HIDDEN
10
0.182385
20
0.565600
30
0.0
11
0.192681
21
0.568222
31
0.0
0
LINE
8
FRONT_HID
6
HIDDEN
10
0.192681
20
0.568222
30
0.0
11
0.202665
21
0.571856
31
0.0
0
LINE
8
FRONT_HID
6
HIDDEN
10
0.202665
20
0.571856
30
0.0
11
0.212238
21
0.576466
31
0.0
0
LINE
8
FRONT_HID
6
HIDDEN
10
0.212238
20
0.576466
30
0.0
11
0.221305
21
0.582006
31
0.0
0
LINE
8
FRONT_HID
6
HIDDEN
10
0.221305
20
0.582006
30
0.0
11
0.229774
21
0.588422
31
0.0
0
LINE
8
FRONT_HID
6
HIDDEN
10
0.229774
20
0.588422
30
0.0
11
0.237563
21
0.595648
31
0.0
0
LINE
8
FRONT_HID
6
HIDDEN
10
0.237563
20
0.595648
30
0.0
11
0.244593
21
0.603615
31
0.0
0
LINE
8
FRONT_HID
6
HIDDEN
10
0.244593
20
0.603615
30
0.0
11
0.250796
21
0.612242
31
0.0
0
LINE
8
FRONT_HID
6
HIDDEN
10
0.250796
20
0.612242
30
0.0
11
0.256108
21
0.621443
31
0.0
0
LINE
8
FRONT_HID
6
HIDDEN
10
0.256108
20
0.621443
30
0.0
11
0.260478
21
0.631128
31
0.0
0
LINE
8
FRONT_HID
6
HIDDEN
10
0.260478
20
0.631128
30
0.0
11
0.263862
21
0.641200
31
0.0
0
LINE
8
FRONT_HID
6
HIDDEN
10
0.263862
20
0.641200
30
0.0
11
0.266226
21
0.651559
31
0.0
0
LINE
8
FRONT_HID
6
HIDDEN
10
0.266226
20
0.651559
30
0.0
11
0.267547
21
0.662101
31
0.0
0
LINE
8
FRONT_HID
6
HIDDEN
10
0.267547
20
0.662101
30
0.0
11
0.267812
21
0.672723
31
0.0
0
LINE
8
FRONT_HID
6
HIDDEN
10
0.267812
20
0.672723
30
0.0
11
0.267018
21
0.683318
31
0.0
0
LINE
8
FRONT_HID
6
HIDDEN
10
0.267018
20
0.683318
30
0.0
11
0.265173
21
0.693782
31
0.0
0
LINE
8
FRONT_HID
6
HIDDEN
10
0.265173
20
0.693782
30
0.0
11
0.262296
21
0.704010
31
0.0
0
LINE
8
FRONT_HID
6
HIDDEN
10
0.262296
20
0.704010
30
0.0
11
0.258414
21
0.713900
31
0.0
0
LINE
8
FRONT_HID
6
HIDDEN
10
0.258414
20
0.713900
30
0.0
11
0.253567
21
0.723355
31
0.0
0
LINE
8
FRONT_HID
6
HIDDEN
10
0.253567
20
0.723355
30
0.0
11
0.247802
21
0.732281
31
0.0
0
LINE
8
FRONT_HID
6
HIDDEN
10
0.247802
20
0.732281
30
0.0
11
0.241177
21
0.740588
31
0.0
0
LINE
8
FRONT_HID
6
HIDDEN
10
0.241177
20
0.740588
30
0.0
11
0.233759
21
0.748194
31
0.0
0
LINE
8
FRONT_HID
6
HIDDEN
10
0.233759
20
0.748194
30
0.0
11
0.225619
21
0.755023
31
0.0
0
LINE
8
FRONT_HID
6
HIDDEN
10
0.225619
20
0.755023
30
0.0
11
0.216840
21
0.761009
31
0.0
0
LINE
8
FRONT_HID
6
HIDDEN
10
0.216840
20
0.761009
30
0.0
11
0.207509
21
0.766090
31
0.0
0
LINE
8
FRONT_HID
6
HIDDEN
10
0.207509
20
0.766090
30
0.0
11
0.197719
21
0.770217
31
0.0
0
LINE
8
FRONT_HID
6
HIDDEN
10
0.197719
20
0.770217
30
0.0
11
0.187566
21
0.773349
31
0.0
0
LINE
8
FRONT_HID
6
HIDDEN
10
0.187566
20
0.773349
30
0.0
11
0.177151
21
0.775454
31
0.0
0
LINE
8
FRONT_HID
6
HIDDEN
10
0.177151
20
0.775454
30
0.0
11
0.166579
21
0.776512
31
0.0
0
LINE
8
FRONT_HID
6
HIDDEN
10
0.166579
20
0.776512
30
0.0
11
0.155954
21
0.776512
31
0.0
0
LINE
8
FRONT_HID
6
HIDDEN
10
0.155954
20
0.776512
30
0.0
11
0.145382
21
0.775454
31
0.0
0
LINE
8
FRONT_HID
6
HIDDEN
10
0.145382
20
0.775454
30
0.0
11
0.134967
21
0.773349
31
0.0
0
LINE
8
FRONT_HID
6
HIDDEN
10
0.134967
20
0.773349
30
0.0
11
0.124814
21
0.770217
31
0.0
0
LINE
8
FRONT_HID
6
HIDDEN
10
0.124814
20
0.770217
30
0.0
11
0.115024
21
0.766090
31
0.0
0
LINE
8
FRONT_HID
6
HIDDEN
10
0.115024
20
0.766090
30
0.0
11
0.105692
21
0.761009
31
0.0
0
LINE
8
FRONT_HID
6
HIDDEN
10
0.105692
20
0.761009
30
0.0
11
0.096914
21
0.755023
31
0.0
0
LINE
8
FRONT_HID
6
HIDDEN
10
0.096914
20
0.755023
30
0.0
11
0.088774
21
0.748194
31
0.0
0
LINE
8
FRONT_HID
6
HIDDEN
10
0.088774
20
0.748194
30
0.0
11
0.081356
21
0.740588
31
0.0
0
LINE
8
FRONT_HID
6
HIDDEN
10
0.081356
20
0.740588
30
0.0
11
0.074731
21
0.732281
31
0.0
0
LINE
8
FRONT_HID
6
HIDDEN
10
0.074731
20
0.732281
30
0.0
11
0.068966
21
0.723355
31
0.0
0
LINE
8
FRONT_HID
6
HIDDEN
10
0.068966
20
0.723355
30
0.0
11
0.064119
21
0.713900
31
0.0
0
LINE
8
FRONT_HID
6
HIDDEN
10
0.064119
20
0.713900
30
0.0
11
0.060237
21
0.704010
31
0.0
0
LINE
8
FRONT_HID
6
HIDDEN
10
0.060237
20
0.704010
30
0.0
11
0.057360
21
0.693782
31
0.0
0
LINE
8
FRONT_HID
6
HIDDEN
10
0.057360
20
0.693782
30
0.0
11
0.055515
21
0.683318
31
0.0
0
LINE
8
FRONT_HID
6
HIDDEN
10
0.055515
20
0.683318
30
0.0
11
0.054721
21
0.672723
31
0.0
0
LINE
8
FRONT_HID
6
HIDDEN
10
0.054721
20
0.672723
30
0.0
11
0.054986
21
0.662101
31
0.0
0
LINE
8
FRONT_HID
6
HIDDEN
10
0.054986
20
0.662101
30
0.0
11
0.056307
21
0.651559
31
0.0
0
LINE
8
FRONT_HID
6
HIDDEN
10
0.056307
20
0.651559
30
0.0
11
0.058671
21
0.641200
31
0.0
0
LINE
8
FRONT_HID
6
HIDDEN
10
0.058671
20
0.641200
30
0.0
11
0.062055
21
0.631128
31
0.0
0
LINE
8
FRONT_HID
6
HIDDEN
10
0.062055
20
0.631128
30
0.0
11
0.066425
21
0.621443
31
0.0
0
LINE
8
FRONT_HID
6
HIDDEN
10
0.066425
20
0.621443
30
0.0
11
0.071737
21
0.612242
31
0.0
0
LINE
8
FRONT_HID
6
HIDDEN
10
0.071737
20
0.612242
30
0.0
11
0.077940
21
0.603615
31
0.0
0
LINE
8
FRONT_HID
6
HIDDEN
10
0.077940
20
0.603615
30
0.0
11
0.084970
21
0.595648
31
0.0
0
LINE
8
FRONT_HID
6
HIDDEN
10
0.084970
20
0.595648
30
0.0
11
0.092759
21
0.588422
31
0.0
0
LINE
8
FRONT_HID
6
HIDDEN
10
0.092759
20
0.588422
30
0.0
11
0.101228
21
0.582006
31
0.0
0
LINE
8
FRONT_HID
6
HIDDEN
10
0.101228
20
0.582006
30
0.0
11
0.110295
21
0.576466
31
0.0
0
LINE
8
FRONT_HID
6
HIDDEN
10
0.110295
20
0.576466
30
0.0
11
0.119867
21
0.571856
31
0.0
0
LINE
8
FRONT_HID
6
HIDDEN
10
0.119867
20
0.571856
30
0.0
11
0.129852
21
0.568222
31
0.0
0
LINE
8
FRONT_HID
6
HIDDEN
10
0.129852
20
0.568222
30
0.0
11
0.140148
21
0.565600
31
0.0
0
LINE
8
FRONT_HID
6
HIDDEN
10
0.140148
20
0.565600
30
0.0
11
0.150655
21
0.564016
31
0.0
0
LINE
8
FRONT_HID
6
HIDDEN
10
0.150655
20
0.564016
30
0.0
11
0.161266
21
0.563487
31
0.0
0
LINE
8
LEFT
10
0.393750
20
0.576316
30
0.0
11
0.510938
21
0.576316
31
0.0
0
LINE
8
LEFT
10
0.510938
20
0.576316
30
0.0
11
0.510938
21
0.487500
31
0.0
0
LINE
8
LEFT
10
0.393750
20
0.487500
30
0.0
11
0.510938
21
0.487500
31
0.0
0
LINE
8
LEFT
10
0.393750
20
0.576316
30
0.0
11
0.393750
21
0.487500
31
0.0
0
LINE
8
LEFT
10
0.393750
20
0.757237
30
0.0
11
0.510938
21
0.757237
31
0.0
0
LINE
8
LEFT
10
0.510938
20
0.757237
30
0.0
11
0.510938
21
0.576316
31
0.0
0
LINE
8
LEFT
10
0.393750
20
0.757237
30
0.0
11
0.393750
21
0.576316
31
0.0
0
LINE
8
LEFT
10
0.393750
20
0.846053
30
0.0
11
0.393750
21
0.757237
31
0.0
0
LINE
8
LEFT
10
0.510938
20
0.846053
30
0.0
11
0.510938
21
0.757237
31
0.0
0
LINE
8
LEFT
10
0.393750
20
0.846053
30
0.0
11
0.510938
21
0.846053
31
0.0
0
LINE
8
LEFT
10
0.510938
20
0.563487
30
0.0
11
0.800000
21
0.563487
31
0.0
0
LINE
8
LEFT
10
0.800000
20
0.776645
30
0.0
11
0.800000
21
0.563487
31
0.0
0
LINE
8
LEFT
10
0.800000
20
0.776645
30
0.0
11
0.510938
21
0.776645
31
0.0
0
LINE
8
LEFT_HID
6
HIDDEN
10
0.510938
20
0.487500
30
0.0
11
0.510938
21
0.576316
31
0.0
0
LINE
8
LEFT_HID
6
HIDDEN
10
0.510938
20
0.576316
30
0.0
11
0.510938
21
0.757237
31
0.0
0
LINE
8
LEFT_HID
6
HIDDEN
10
0.510938
20
0.563487
30
0.0
11
0.510938
21
0.776645
31
0.0
0
LINE
8
LEFT_HID
6
HIDDEN
10
0.510938
20
0.776645
30
0.0
11
0.510938
21
0.563487
31
0.0
0
LINE
8
TOP
10
0.000000
20
0.406250
30
0.0
11
0.000000
21
0.289062
31
0.0
0
LINE
8
TOP
10
0.312500
20
0.406250
30
0.0
11
0.157895
21
0.406250
31
0.0
0
LINE
8
TOP
10
0.157895
20
0.406250
30
0.0
11
0.000000
21
0.406250
31
0.0
0
LINE
8
TOP
10
0.312500
20
0.289062
30
0.0
11
0.157895
21
0.289062
31
0.0
0
LINE
8
TOP
10
0.157895
20
0.289062
30
0.0
11
0.000000
21
0.289062
31
0.0
0
LINE
8
TOP
10
0.157895
20
0.406250
30
0.0
11
0.157895
21
0.289062
31
0.0
0
LINE
8
TOP
10
0.312500
20
0.406250
30
0.0
11
0.312500
21
0.289062
31
0.0
0
LINE
8
TOP
10
0.267845
20
0.000000
30
0.0
11
0.054688
21
0.000000
31
0.0
0
LINE
8
TOP
10
0.267845
20
0.000000
30
0.0
11
0.267845
21
0.289062
31
0.0
0
LINE
8
TOP
10
0.054688
20
0.000000
30
0.0
11
0.054688
21
0.289062
31
0.0
0
LINE
8
TOP_HID
6
HIDDEN
10
0.157895
20
0.289062
30
0.0
11
0.312500
21
0.289062
31
0.0
0
LINE
8
TOP_HID
6
HIDDEN
10
0.161266
20
0.289062
30
0.0
11
0.267845
21
0.289062
31
0.0
0
LINE
8
TOP_HID
6
HIDDEN
10
0.267845
20
0.289062
30
0.0
11
0.054688
21
0.289062
31
0.0
0
LINE
8
TOP_HID
6
HIDDEN
10
0.054688
20
0.289062
30
0.0
11
0.161266
21
0.289062
31
0.0
0
LINE
8
TOP_HID
6
HIDDEN
10
0.161266
20
0.000000
30
0.0
11
0.267845
21
0.000000
31
0.0
0
LINE
8
TOP_HID
6
HIDDEN
10
0.054688
20
0.000000
30
0.0
11
0.161266
21
0.000000
31
0.0
0
ENDSEC
0
EOF
