0
SECTION
2
HEADER
9
$ACADVER
1
AC1009
0
ENDSEC
0
SECTION
2
TABLES
0
TABLE
2
LTYPE
70
3
0
LTYPE
2
CONTINUOUS
70
0
3
Solid line
72
65
73
0
40
0.0
0
LTYPE
2
HIDDEN
70
0
3
__ __ __ __ __
72
65
73
2
40
0.075789
49
0.050552
49
-0.025238
0
LTYPE
2
CENTER
70
0
3
___ _ ___ _ ___
72
65
73
4
40
0.176817
49
0.101027
49
-0.025238
49
0.025238
49
-0.025238
0
ENDTAB
0
TABLE
2
LAYER
70
6
0
LAYER
2
0
70
0
62
7
6
CONTINUOUS
0
LAYER
2
FRONT
70
0
62
7
6
CONTINUOUS
0
LAYER
2
FRONT_HID
70
0
62
7
6
HIDDEN
0
LAYER
2
LEFT
70
0
62
7
6
CONTINUOUS
0
LAYER
2
LEFT_HID
70
0
62
7
6
HIDDEN
0
LAYER
2
TOP
70
0
62
7
6
CONTINUOUS
0
ENDTAB
0
ENDSEC
0
SECTION
2
ENTITIES
0
LINE
8
FRONT
10
1.515789
20
1.818476
30
0.0
11
0.000000
21
1.818476
31
0.0
0
LINE
8
FRONT
10
1.515789
20
1.818476
30
0.0
11
1.515789
21
1.896601
31
0.0
0
LINE
8
FRONT
10
1.515789
20
1.896601
30
0.0
11
0.000000
21
1.896601
31
0.0
0
LINE
8
FRONT
10
0.671875
20
1.896601
30
0.0
11
0.671875
21
2.045039
31
0.0
0
LINE
8
FRONT
10
0.748437
20
1.896601
30
0.0
11
0.748437
21
2.045039
31
0.0
0
LINE
8
FRONT
10
0.748437
20
2.045039
30
0.0
11
0.679687
21
2.045039
31
0.0
0
LINE
8
FRONT
10
0.679687
20
1.896601
30
0.0
11
0.679687
21
2.045039
31
0.0
0
LINE
8
FRONT
10
0.679687
20
2.045039
30
0.0
11
0.671875
21
2.045039
31
0.0
0
LINE
8
FRONT
10
0.750000
20
1.896601
30
0.0
11
0.750000
21
2.045039
31
0.0
0
LINE
8
FRONT
10
0.825000
20
1.896601
30
0.0
11
0.825000
21
2.045039
31
0.0
0
LINE
8
FRONT
10
0.825000
20
2.045039
30
0.0
11
0.750000
21
2.045039
31
0.0
0
LINE
8
FRONT
10
0.000000
20
1.896601
30
0.0
11
0.000000
21
1.818476
31
0.0
0
LINE
8
FRONT_HID
6
HIDDEN
10
0.789474
20
1.818476
30
0.0
11
0.726316
21
1.818476
31
0.0
0
LINE
8
FRONT_HID
6
HIDDEN
10
0.726316
20
1.818476
30
0.0
11
0.789474
21
1.818476
31
0.0
0
LINE
8
FRONT_HID
6
HIDDEN
10
0.671875
20
1.896601
30
0.0
11
0.748437
21
1.896601
31
0.0
0
LINE
8
FRONT_HID
6
HIDDEN
10
0.679687
20
1.896601
30
0.0
11
0.671875
21
1.896601
31
0.0
0
LINE
8
FRONT_HID
6
HIDDEN
10
0.748437
20
1.896601
30
0.0
11
0.679687
21
1.896601
31
0.0
0
LINE
8
FRONT_HID
6
HIDDEN
10
0.789474
20
1.896601
30
0.0
11
0.726316
21
1.896601
31
0.0
0
LINE
8
FRONT_HID
6
HIDDEN
10
0.726316
20
1.896601
30
0.0
11
0.789474
21
1.896601
31
0.0
0
LINE
8
FRONT_HID
6
HIDDEN
10
0.750000
20
1.896601
30
0.0
11
0.815625
21
1.896601
31
0.0
0
LINE
8
FRONT_HID
6
HIDDEN
10
0.825000
20
1.896601
30
0.0
11
0.750000
21
1.896601
31
0.0
0
LINE
8
FRONT_HID
6
HIDDEN
10
0.815625
20
1.896601
30
0.0
11
0.825000
21
1.896601
31
0.0
0
LINE
8
FRONT_HID
6
HIDDEN
10
0.789474
20
1.818476
30
0.0
11
0.789474
21
1.896601
31
0.0
0
LINE
8
FRONT_HID
6
HIDDEN
10
0.671875
20
2.045039
30
0.0
11
0.748437
21
2.045039
31
0.0
0
LINE
8
FRONT_HID
6
HIDDEN
10
0.750000
20
2.045039
30
0.0
11
0.815625
21
2.045039
31
0.0
0
LINE
8
FRONT_HID
6
HIDDEN
10
0.815625
20
1.896601
30
0.0
11
0.815625
21
2.045039
31
0.0
0
LINE
8
FRONT_HID
6
HIDDEN
10
0.815625
20
2.045039
30
0.0
11
0.825000
21
2.045039
31
0.0
0
LINE
8
FRONT_HID
6
HIDDEN
10
0.726316
20
1.896601
30
0.0
11
0.726316
21
1.818476
31
0.0
0
LINE
8
LEFT
10
1.818947
20
1.818476
30
0.0
11
3.334737
21
1.818476
31
0.0
0
LINE
8
LEFT
10
1.818947
20
1.896601
30
0.0
11
3.334737
21
1.896601
31
0.0
0
LINE
8
LEFT
10
3.287780
20
1.896601
30
0.0
11
3.287780
21
2.045039
31
0.0
0
LINE
8
LEFT
10
3.287780
20
2.045039
30
0.0
11
3.292467
21
2.045039
31
0.0
0
LINE
8
LEFT
10
3.292467
20
1.896601
30
0.0
11
3.292467
21
2.045039
31
0.0
0
LINE
8
LEFT
10
3.139342
20
1.896601
30
0.0
11
3.139342
21
2.045039
31
0.0
0
LINE
8
LEFT
10
3.139342
20
2.045039
30
0.0
11
3.211217
21
2.045039
31
0.0
0
LINE
8
LEFT
10
3.211217
20
1.896601
30
0.0
11
3.211217
21
2.045039
31
0.0
0
LINE
8
LEFT
10
3.211217
20
2.045039
30
0.0
11
3.287780
21
2.045039
31
0.0
0
LINE
8
LEFT
10
2.014342
20
1.896601
30
0.0
11
2.014342
21
2.045039
31
0.0
0
LINE
8
LEFT
10
1.865905
20
1.896601
30
0.0
11
1.865905
21
2.045039
31
0.0
0
LINE
8
LEFT
10
1.865905
20
2.045039
30
0.0
11
2.014342
21
2.045039
31
0.0
0
LINE
8
LEFT
10
1.818947
20
1.896601
30
0.0
11
1.818947
21
1.818476
31
0.0
0
LINE
8
LEFT
10
3.334737
20
1.896601
30
0.0
11
3.334737
21
1.818476
31
0.0
0
LINE
8
LEFT_HID
6
HIDDEN
10
2.576842
20
1.818476
30
0.0
11
1.818947
21
1.818476
31
0.0
0
LINE
8
LEFT_HID
6
HIDDEN
10
3.334737
20
1.818476
30
0.0
11
2.576842
21
1.818476
31
0.0
0
LINE
8
LEFT_HID
6
HIDDEN
10
2.576842
20
1.896601
30
0.0
11
1.818947
21
1.896601
31
0.0
0
LINE
8
LEFT_HID
6
HIDDEN
10
3.334737
20
1.896601
30
0.0
11
2.576842
21
1.896601
31
0.0
0
LINE
8
LEFT_HID
6
HIDDEN
10
2.576842
20
1.818476
30
0.0
11
2.545263
21
1.818476
31
0.0
0
LINE
8
LEFT_HID
6
HIDDEN
10
2.545263
20
1.818476
30
0.0
11
2.608421
21
1.818476
31
0.0
0
LINE
8
LEFT_HID
6
HIDDEN
10
2.608421
20
1.818476
30
0.0
11
2.576842
21
1.818476
31
0.0
0
LINE
8
LEFT_HID
6
HIDDEN
10
3.287780
20
1.896601
30
0.0
11
3.292467
21
1.896601
31
0.0
0
LINE
8
LEFT_HID
6
HIDDEN
10
3.211217
20
1.896601
30
0.0
11
3.287780
21
1.896601
31
0.0
0
LINE
8
LEFT_HID
6
HIDDEN
10
3.139342
20
1.896601
30
0.0
11
3.211217
21
1.896601
31
0.0
0
LINE
8
LEFT_HID
6
HIDDEN
10
3.292467
20
1.896601
30
0.0
11
3.139342
21
1.896601
31
0.0
0
LINE
8
LEFT_HID
6
HIDDEN
10
2.576842
20
1.896601
30
0.0
11
2.545263
21
1.896601
31
0.0
0
LINE
8
LEFT_HID
6
HIDDEN
10
2.545263
20
1.896601
30
0.0
11
2.608421
21
1.896601
31
0.0
0
LINE
8
LEFT_HID
6
HIDDEN
10
2.608421
20
1.896601
30
0.0
11
2.576842
21
1.896601
31
0.0
0
LINE
8
LEFT_HID
6
HIDDEN
10
2.014342
20
1.896601
30
0.0
11
1.944030
21
1.896601
31
0.0
0
LINE
8
LEFT_HID
6
HIDDEN
10
1.865905
20
1.896601
30
0.0
11
2.014342
21
1.896601
31
0.0
0
LINE
8
LEFT_HID
6
HIDDEN
10
1.870592
20
1.896601
30
0.0
11
1.865905
21
1.896601
31
0.0
0
LINE
8
LEFT_HID
6
HIDDEN
10
1.944030
20
1.896601
30
0.0
11
1.870592
21
1.896601
31
0.0
0
LINE
8
LEFT_HID
6
HIDDEN
10
3.292467
20
2.045039
30
0.0
11
3.139342
21
2.045039
31
0.0
0
LINE
8
LEFT_HID
6
HIDDEN
10
2.014342
20
2.045039
30
0.0
11
1.944030
21
2.045039
31
0.0
0
LINE
8
LEFT_HID
6
HIDDEN
10
1.944030
20
1.896601
30
0.0
11
1.944030
21
2.045039
31
0.0
0
LINE
8
LEFT_HID
6
HIDDEN
10
1.944030
20
2.045039
30
0.0
11
1.870592
21
2.045039
31
0.0
0
LINE
8
LEFT_HID
6
HIDDEN
10
1.870592
20
1.896601
30
0.0
11
1.870592
21
2.045039
31
0.0
0
LINE
8
LEFT_HID
6
HIDDEN
10
1.870592
20
2.045039
30
0.0
11
1.865905
21
2.045039
31
0.0
0
LINE
8
LEFT_HID
6
HIDDEN
10
2.545263
20
1.896601
30
0.0
11
2.545263
21
1.818476
31
0.0
0
LINE
8
LEFT_HID
6
HIDDEN
10
2.608421
20
1.896601
30
0.0
11
2.608421
21
1.818476
31
0.0
0
LINE
8
TOP
10
1.514847
20
0.757659
30
0.0
11
1.511081
21
0.833121
31
0.0
0
LINE
8
TOP
10
1.511081
20
0.833121
30
0.0
11
1.499820
21
0.907833
31
0.0
0
LINE
8
TOP
10
1.499820
20
0.907833
30
0.0
11
1.481176
21
0.981053
31
0.0
0
LINE
8
TOP
10
1.481176
20
0.981053
30
0.0
11
1.455335
21
1.052052
31
0.0
0
LINE
8
TOP
10
1.455335
20
1.052052
30
0.0
11
1.422552
21
1.120125
31
0.0
0
LINE
8
TOP
10
1.422552
20
1.120125
30
0.0
11
1.383155
21
1.184596
31
0.0
0
LINE
8
TOP
10
1.383155
20
1.184596
30
0.0
11
1.337534
21
1.244825
31
0.0
0
LINE
8
TOP
10
1.337534
20
1.244825
30
0.0
11
1.286143
21
1.300211
31
0.0
0
LINE
8
TOP
10
1.286143
20
1.300211
30
0.0
11
1.229492
21
1.350205
31
0.0
0
LINE
8
TOP
10
1.229492
20
1.350205
30
0.0
11
1.168146
21
1.394310
31
0.0
0
LINE
8
TOP
10
1.168146
20
1.394310
30
0.0
11
1.102712
21
1.432088
31
0.0
0
LINE
8
TOP
10
1.102712
20
1.432088
30
0.0
11
1.033843
21
1.463163
31
0.0
0
LINE
8
TOP
10
1.033843
20
1.463163
30
0.0
11
0.962221
21
1.487227
31
0.0
0
LINE
8
TOP
10
0.962221
20
1.487227
30
0.0
11
0.888560
21
1.504040
31
0.0
0
LINE
8
TOP
10
0.888560
20
1.504040
30
0.0
11
0.813590
21
1.513435
31
0.0
0
LINE
8
TOP
10
0.813590
20
1.513435
30
0.0
11
0.738058
21
1.515318
31
0.0
0
LINE
8
TOP
10
0.738058
20
1.515318
30
0.0
11
0.662713
21
1.509672
31
0.0
0
LINE
8
TOP
10
0.662713
20
1.509672
30
0.0
11
0.588305
21
1.496552
31
0.0
0
LINE
8
TOP
10
0.588305
20
1.496552
30
0.0
11
0.515573
21
1.476088
31
0.0
0
LINE
8
TOP
10
0.515573
20
1.476088
30
0.0
11
0.445240
21
1.448485
31
0.0
0
LINE
8
TOP
10
0.445240
20
1.448485
30
0.0
11
0.378005
21
1.414015
31
0.0
0
LINE
8
TOP
10
0.378005
20
1.414015
30
0.0
11
0.314536
21
1.373023
31
0.0
0
LINE
8
TOP
10
0.314536
20
1.373023
30
0.0
11
0.255464
21
1.325914
31
0.0
0
LINE
8
TOP
10
0.255464
20
1.325914
30
0.0
11
0.201376
21
1.273159
31
0.0
0
LINE
8
TOP
10
0.201376
20
1.273159
30
0.0
11
0.152810
21
1.215279
31
0.0
0
LINE
8
TOP
10
0.152810
20
1.215279
30
0.0
11
0.110248
21
1.152852
31
0.0
0
LINE
8
TOP
10
0.110248
20
1.152852
30
0.0
11
0.074113
21
1.086497
31
0.0
0
LINE
8
TOP
10
0.074113
20
1.086497
30
0.0
11
0.044765
21
1.016874
31
0.0
0
LINE
8
TOP
10
0.044765
20
1.016874
30
0.0
11
0.022494
21
0.944675
31
0.0
0
LINE
8
TOP
10
0.022494
20
0.944675
30
0.0
11
0.007523
21
0.870618
31
0.0
0
LINE
8
TOP
10
0.007523
20
0.870618
30
0.0
11
0.000000
21
0.795437
31
0.0
0
LINE
8
TOP
10
0.000000
20
0.795437
30
0.0
11
0.000000
21
0.719881
31
0.0
0
LINE
8
TOP
10
0.000000
20
0.719881
30
0.0
11
0.007523
21
0.644701
31
0.0
0
LINE
8
TOP
10
0.007523
20
0.644701
30
0.0
11
0.022494
21
0.570643
31
0.0
0
LINE
8
TOP
10
0.022494
20
0.570643
30
0.0
11
0.044765
21
0.498444
31
0.0
0
LINE
8
TOP
10
0.044765
20
0.498444
30
0.0
11
0.074113
21
0.428821
31
0.0
0
LINE
8
TOP
10
0.074113
20
0.428821
30
0.0
11
0.110248
21
0.362466
31
0.0
0
LINE
8
TOP
10
0.110248
20
0.362466
30
0.0
11
0.152810
21
0.300039
31
0.0
0
LINE
8
TOP
10
0.152810
20
0.300039
30
0.0
11
0.201376
21
0.242160
31
0.0
0
LINE
8
TOP
10
0.201376
20
0.242160
30
0.0
11
0.255464
21
0.189404
31
0.0
0
LINE
8
TOP
10
0.255464
20
0.189404
30
0.0
11
0.314536
21
0.142296
31
0.0
0
LINE
8
TOP
10
0.314536
20
0.142296
30
0.0
11
0.378005
21
0.101303
31
0.0
0
LINE
8
TOP
10
0.378005
20
0.101303
30
0.0
11
0.445240
21
0.066834
31
0.0
0
LINE
8
TOP
10
0.445240
20
0.066834
30
0.0
11
0.515573
21
0.039230
31
0.0
0
LINE
8
TOP
10
0.515573
20
0.039230
30
0.0
11
0.588305
21
0.018766
31
0.0
0
LINE
8
TOP
10
0.588305
20
0.018766
30
0.0
11
0.662713
21
0.005646
31
0.0
0
LINE
8
TOP
10
0.662713
20
0.005646
30
0.0
11
0.738058
21
0.000000
31
0.0
0
LINE
8
TOP
10
0.738058
20
0.000000
30
0.0
11
0.813590
21
0.001884
31
0.0
0
LINE
8
TOP
10
0.813590
20
0.001884
30
0.0
11
0.888560
21
0.011279
31
0.0
0
LINE
8
TOP
10
0.888560
20
0.011279
30
0.0
11
0.962221
21
0.028091
31
0.0
0
LINE
8
TOP
10
0.962221
20
0.028091
30
0.0
11
1.033843
21
0.052155
31
0.0
0
LINE
8
TOP
10
1.033843
20
0.052155
30
0.0
11
1.102712
21
0.083230
31
0.0
0
LINE
8
TOP
10
1.102712
20
0.083230
30
0.0
11
1.168146
21
0.121008
31
0.0
0
LINE
8
TOP
10
1.168146
20
0.121008
30
0.0
11
1.229492
21
0.165113
31
0.0
0
LINE
8
TOP
10
1.229492
20
0.165113
30
0.0
11
1.286143
21
0.215107
31
0.0
0
LINE
8
TOP
10
1.286143
20
0.215107
30
0.0
11
1.337534
21
0.270494
31
0.0
0
LINE
8
TOP
10
1.337534
20
0.270494
30
0.0
11
1.383155
21
0.330722
31
0.0
0
LINE
8
TOP
10
1.383155
20
0.330722
30
0.0
11
1.422552
21
0.395193
31
0.0
0
LINE
8
TOP
10
1.422552
20
0.395193
30
0.0
11
1.455335
21
0.463266
31
0.0
0
LINE
8
TOP
10
1.455335
20
0.463266
30
0.0
11
1.481176
21
0.534266
31
0.0
0
LINE
8
TOP
10
1.481176
20
0.534266
30
0.0
11
1.499820
21
0.607485
31
0.0
0
LINE
8
TOP
10
1.499820
20
0.607485
30
0.0
11
1.511081
21
0.682197
31
0.0
0
LINE
8
TOP
10
1.511081
20
0.682197
30
0.0
11
1.514847
21
0.757659
31
0.0
0
LINE
8
TOP
10
0.788532
20
0.757659
30
0.0
11
0.788375
21
0.760803
31
0.0
0
LINE
8
TOP
10
0.788375
20
0.760803
30
0.0
11
0.787905
21
0.763916
31
0.0
0
LINE
8
TOP
10
0.787905
20
0.763916
30
0.0
11
0.787129
21
0.766967
31
0.0
0
LINE
8
TOP
10
0.787129
20
0.766967
30
0.0
11
0.786052
21
0.769926
31
0.0
0
LINE
8
TOP
10
0.786052
20
0.769926
30
0.0
11
0.784686
21
0.772762
31
0.0
0
LINE
8
TOP
10
0.784686
20
0.772762
30
0.0
11
0.783044
21
0.775448
31
0.0
0
LINE
8
TOP
10
0.783044
20
0.775448
30
0.0
11
0.781143
21
0.777958
31
0.0
0
LINE
8
TOP
10
0.781143
20
0.777958
30
0.0
11
0.779002
21
0.780265
31
0.0
0
LINE
8
TOP
10
0.779002
20
0.780265
30
0.0
11
0.776642
21
0.782349
31
0.0
0
LINE
8
TOP
10
0.776642
20
0.782349
30
0.0
11
0.774086
21
0.784186
31
0.0
0
LINE
8
TOP
10
0.774086
20
0.784186
30
0.0
11
0.771359
21
0.785760
31
0.0
0
LINE
8
TOP
10
0.771359
20
0.785760
30
0.0
11
0.768490
21
0.787055
31
0.0
0
LINE
8
TOP
10
0.768490
20
0.787055
30
0.0
11
0.765505
21
0.788058
31
0.0
0
LINE
8
TOP
10
0.765505
20
0.788058
30
0.0
11
0.762436
21
0.788758
31
0.0
0
LINE
8
TOP
10
0.762436
20
0.788758
30
0.0
11
0.759313
21
0.789150
31
0.0
0
LINE
8
TOP
10
0.759313
20
0.789150
30
0.0
11
0.756165
21
0.789228
31
0.0
0
LINE
8
TOP
10
0.756165
20
0.789228
30
0.0
11
0.753026
21
0.788993
31
0.0
0
LINE
8
TOP
10
0.753026
20
0.788993
30
0.0
11
0.749926
21
0.788446
31
0.0
0
LINE
8
TOP
10
0.749926
20
0.788446
30
0.0
11
0.746895
21
0.787594
31
0.0
0
LINE
8
TOP
10
0.746895
20
0.787594
30
0.0
11
0.743965
21
0.786444
31
0.0
0
LINE
8
TOP
10
0.743965
20
0.786444
30
0.0
11
0.741163
21
0.785007
31
0.0
0
LINE
8
TOP
10
0.741163
20
0.785007
30
0.0
11
0.738519
21
0.783299
31
0.0
0
LINE
8
TOP
10
0.738519
20
0.783299
30
0.0
11
0.736057
21
0.781336
31
0.0
0
LINE
8
TOP
10
0.736057
20
0.781336
30
0.0
11
0.733804
21
0.779138
31
0.0
0
LINE
8
TOP
10
0.733804
20
0.779138
30
0.0
11
0.731780
21
0.776727
31
0.0
0
LINE
8
TOP
10
0.731780
20
0.776727
30
0.0
11
0.730007
21
0.774126
31
0.0
0
LINE
8
TOP
10
0.730007
20
0.774126
30
0.0
11
0.728501
21
0.771361
31
0.0
0
LINE
8
TOP
10
0.728501
20
0.771361
30
0.0
11
0.727278
21
0.768460
31
0.0
0
LINE
8
TOP
10
0.727278
20
0.768460
30
0.0
11
0.726350
21
0.765452
31
0.0
0
LINE
8
TOP
10
0.726350
20
0.765452
30
0.0
11
0.725726
21
0.762366
31
0.0
0
LINE
8
TOP
10
0.725726
20
0.762366
30
0.0
11
0.725413
21
0.759233
31
0.0
0
LINE
8
TOP
10
0.725413
20
0.759233
30
0.0
11
0.725413
21
0.756085
31
0.0
0
LINE
8
TOP
10
0.725413
20
0.756085
30
0.0
11
0.725726
21
0.752953
31
0.0
0
LINE
8
TOP
10
0.725726
20
0.752953
30
0.0
11
0.726350
21
0.749867
31
0.0
0
LINE
8
TOP
10
0.726350
20
0.749867
30
0.0
11
0.727278
21
0.746859
31
0.0
0
LINE
8
TOP
10
0.727278
20
0.746859
30
0.0
11
0.728501
21
0.743958
31
0.0
0
LINE
8
TOP
10
0.728501
20
0.743958
30
0.0
11
0.730007
21
0.741193
31
0.0
0
LINE
8
TOP
10
0.730007
20
0.741193
30
0.0
11
0.731780
21
0.738592
31
0.0
0
LINE
8
TOP
10
0.731780
20
0.738592
30
0.0
11
0.733804
21
0.736180
31
0.0
0
LINE
8
TOP
10
0.733804
20
0.736180
30
0.0
11
0.736057
21
0.733982
31
0.0
0
LINE
8
TOP
10
0.736057
20
0.733982
30
0.0
11
0.738519
21
0.732019
31
0.0
0
LINE
8
TOP
10
0.738519
20
0.732019
30
0.0
11
0.741163
21
0.730311
31
0.0
0
LINE
8
TOP
10
0.741163
20
0.730311
30
0.0
11
0.743965
21
0.728875
31
0.0
0
LINE
8
TOP
10
0.743965
20
0.728875
30
0.0
11
0.746895
21
0.727725
31
0.0
0
LINE
8
TOP
10
0.746895
20
0.727725
30
0.0
11
0.749926
21
0.726872
31
0.0
0
LINE
8
TOP
10
0.749926
20
0.726872
30
0.0
11
0.753026
21
0.726325
31
0.0
0
LINE
8
TOP
10
0.753026
20
0.726325
30
0.0
11
0.756165
21
0.726090
31
0.0
0
LINE
8
TOP
10
0.756165
20
0.726090
30
0.0
11
0.759313
21
0.726169
31
0.0
0
LINE
8
TOP
10
0.759313
20
0.726169
30
0.0
11
0.762436
21
0.726560
31
0.0
0
LINE
8
TOP
10
0.762436
20
0.726560
30
0.0
11
0.765505
21
0.727261
31
0.0
0
LINE
8
TOP
10
0.765505
20
0.727261
30
0.0
11
0.768490
21
0.728263
31
0.0
0
LINE
8
TOP
10
0.768490
20
0.728263
30
0.0
11
0.771359
21
0.729558
31
0.0
0
LINE
8
TOP
10
0.771359
20
0.729558
30
0.0
11
0.774086
21
0.731132
31
0.0
0
LINE
8
TOP
10
0.774086
20
0.731132
30
0.0
11
0.776642
21
0.732970
31
0.0
0
LINE
8
TOP
10
0.776642
20
0.732970
30
0.0
11
0.779002
21
0.735053
31
0.0
0
LINE
8
TOP
10
0.779002
20
0.735053
30
0.0
11
0.781143
21
0.737361
31
0.0
0
LINE
8
TOP
10
0.781143
20
0.737361
30
0.0
11
0.783044
21
0.739870
31
0.0
0
LINE
8
TOP
10
0.783044
20
0.739870
30
0.0
11
0.784686
21
0.742556
31
0.0
0
LINE
8
TOP
10
0.784686
20
0.742556
30
0.0
11
0.786052
21
0.745393
31
0.0
0
LINE
8
TOP
10
0.786052
20
0.745393
30
0.0
11
0.787129
21
0.748351
31
0.0
0
LINE
8
TOP
10
0.787129
20
0.748351
30
0.0
11
0.787905
21
0.751402
31
0.0
0
LINE
8
TOP
10
0.787905
20
0.751402
30
0.0
11
0.788375
21
0.754515
31
0.0
0
LINE
8
TOP
10
0.788375
20
0.754515
30
0.0
11
0.788532
21
0.757659
31
0.0
0
LINE
8
TOP
10
0.670933
20
0.046722
30
0.0
11
0.747495
21
0.042034
31
0.0
0
LINE
8
TOP
10
0.747495
20
0.042034
30
0.0
11
0.747495
21
0.195159
31
0.0
0
LINE
8
TOP
10
0.747495
20
0.195159
30
0.0
11
0.678745
21
0.123284
31
0.0
0
LINE
8
TOP
10
0.678745
20
0.123284
30
0.0
11
0.670933
21
0.046722
31
0.0
0
LINE
8
TOP
10
0.749058
20
1.320159
30
0.0
11
0.814683
21
1.390472
31
0.0
0
LINE
8
TOP
10
0.749058
20
1.468597
30
0.0
11
0.749058
21
1.320159
31
0.0
0
LINE
8
TOP
10
0.814683
20
1.390472
30
0.0
11
0.824058
21
1.463909
31
0.0
0
LINE
8
TOP
10
0.824058
20
1.463909
30
0.0
11
0.749058
21
1.468597
31
0.0
0
ENDSEC
0
EOF
