0
SECTION
2
HEADER
9
$ACADVER
1
AC1009
0
ENDSEC
0
SECTION
2
TABLES
0
TABLE
2
LTYPE
70
3
0
LTYPE
2
CONTINUOUS
70
0
3
Solid line
72
65
73
0
40
0.0
0
LTYPE
2
HIDDEN
70
0
3
__ __ __ __ __
72
65
73
2
40
0.037500
49
0.025013
49
-0.012488
0
LTYPE
2
CENTER
70
0
3
___ _ ___ _ ___
72
65
73
4
40
0.087488
49
0.049988
49
-0.012488
49
0.012488
49
-0.012488
0
ENDTAB
0
TABLE
2
LAYER
70
7
0
LAYER
2
0
70
0
62
7
6
CONTINUOUS
0
LAYER
2
FRONT
70
0
62
7
6
CONTINUOUS
0
LAYER
2
FRONT_HID
70
0
62
7
6
HIDDEN
0
LAYER
2
LEFT
70
0
62
7
6
CONTINUOUS
0
LAYER
2
LEFT_HID
70
0
62
7
6
HIDDEN
0
LAYER
2
TOP
70
0
62
7
6
CONTINUOUS
0
LAYER
2
TOP_HID
70
0
62
7
6
HIDDEN
0
ENDTAB
0
ENDSEC
0
SECTION
2
ENTITIES
0
LINE
8
FRONT
10
0.497368
20
0.900000
30
0.0
11
0.000000
21
0.900000
31
0.0
0
LINE
8
FRONT
10
0.497368
20
0.900000
30
0.0
11
0.497368
21
1.196875
31
0.0
0
LINE
8
FRONT
10
0.497368
20
1.196875
30
0.0
11
0.150000
21
1.196875
31
0.0
0
LINE
8
FRONT
10
0.150000
20
1.196875
30
0.0
11
0.150000
21
1.048437
31
0.0
0
LINE
8
FRONT
10
0.150000
20
1.048437
30
0.0
11
0.000000
21
1.048437
31
0.0
0
LINE
8
FRONT
10
0.000000
20
0.900000
30
0.0
11
0.000000
21
1.048437
31
0.0
0
LINE
8
FRONT_HID
6
HIDDEN
10
0.431826
20
0.900000
30
0.0
11
0.226562
21
0.900000
31
0.0
0
LINE
8
FRONT_HID
6
HIDDEN
10
0.226562
20
0.900000
30
0.0
11
0.431826
21
0.900000
31
0.0
0
LINE
8
FRONT_HID
6
HIDDEN
10
0.431826
20
1.196875
30
0.0
11
0.226562
21
1.196875
31
0.0
0
LINE
8
FRONT_HID
6
HIDDEN
10
0.226562
20
1.196875
30
0.0
11
0.431826
21
1.196875
31
0.0
0
LINE
8
FRONT_HID
6
HIDDEN
10
0.431826
20
1.196875
30
0.0
11
0.431826
21
0.900000
31
0.0
0
LINE
8
FRONT_HID
6
HIDDEN
10
0.226562
20
0.900000
30
0.0
11
0.226562
21
1.196875
31
0.0
0
LINE
8
LEFT
10
1.397368
20
0.900000
30
0.0
11
1.397368
21
1.048437
31
0.0
0
LINE
8
LEFT
10
1.397368
20
1.196875
30
0.0
11
1.397368
21
1.048437
31
0.0
0
LINE
8
LEFT
10
0.647368
20
0.900000
30
0.0
11
1.397368
21
0.900000
31
0.0
0
LINE
8
LEFT
10
1.397368
20
1.196875
30
0.0
11
0.647368
21
1.196875
31
0.0
0
LINE
8
LEFT
10
0.647368
20
1.196875
30
0.0
11
0.647368
21
1.048437
31
0.0
0
LINE
8
LEFT
10
0.647368
20
1.048437
30
0.0
11
1.397368
21
1.048437
31
0.0
0
LINE
8
LEFT
10
0.647368
20
0.900000
30
0.0
11
0.647368
21
1.048437
31
0.0
0
LINE
8
LEFT_HID
6
HIDDEN
10
1.397368
20
0.900000
30
0.0
11
1.397368
21
1.196875
31
0.0
0
LINE
8
LEFT_HID
6
HIDDEN
10
1.022368
20
0.900000
30
0.0
11
0.919737
21
0.900000
31
0.0
0
LINE
8
LEFT_HID
6
HIDDEN
10
0.919737
20
0.900000
30
0.0
11
1.125000
21
0.900000
31
0.0
0
LINE
8
LEFT_HID
6
HIDDEN
10
1.125000
20
0.900000
30
0.0
11
1.022368
21
0.900000
31
0.0
0
LINE
8
LEFT_HID
6
HIDDEN
10
0.647368
20
0.900000
30
0.0
11
0.647368
21
1.196875
31
0.0
0
LINE
8
LEFT_HID
6
HIDDEN
10
1.022368
20
1.196875
30
0.0
11
0.919737
21
1.196875
31
0.0
0
LINE
8
LEFT_HID
6
HIDDEN
10
0.919737
20
1.196875
30
0.0
11
1.125000
21
1.196875
31
0.0
0
LINE
8
LEFT_HID
6
HIDDEN
10
1.125000
20
1.196875
30
0.0
11
1.022368
21
1.196875
31
0.0
0
LINE
8
LEFT_HID
6
HIDDEN
10
1.125000
20
0.900000
30
0.0
11
1.125000
21
1.196875
31
0.0
0
LINE
8
LEFT_HID
6
HIDDEN
10
0.919737
20
0.900000
30
0.0
11
0.919737
21
1.196875
31
0.0
0
LINE
8
TOP
10
0.000000
20
0.000000
30
0.0
11
0.150000
21
0.000000
31
0.0
0
LINE
8
TOP
10
0.150000
20
0.000000
30
0.0
11
0.497368
21
0.000000
31
0.0
0
LINE
8
TOP
10
0.497368
20
0.000000
30
0.0
11
0.497368
21
0.750000
31
0.0
0
LINE
8
TOP
10
0.150000
20
0.000000
30
0.0
11
0.150000
21
0.750000
31
0.0
0
LINE
8
TOP
10
0.497368
20
0.750000
30
0.0
11
0.150000
21
0.750000
31
0.0
0
LINE
8
TOP
10
0.431826
20
0.375000
30
0.0
11
0.431316
21
0.385219
31
0.0
0
LINE
8
TOP
10
0.431316
20
0.385219
30
0.0
11
0.429791
21
0.395336
31
0.0
0
LINE
8
TOP
10
0.429791
20
0.395336
30
0.0
11
0.427266
21
0.405251
31
0.0
0
LINE
8
TOP
10
0.427266
20
0.405251
30
0.0
11
0.423767
21
0.414866
31
0.0
0
LINE
8
TOP
10
0.423767
20
0.414866
30
0.0
11
0.419327
21
0.424084
31
0.0
0
LINE
8
TOP
10
0.419327
20
0.424084
30
0.0
11
0.413992
21
0.432814
31
0.0
0
LINE
8
TOP
10
0.413992
20
0.432814
30
0.0
11
0.407814
21
0.440970
31
0.0
0
LINE
8
TOP
10
0.407814
20
0.440970
30
0.0
11
0.400855
21
0.448471
31
0.0
0
LINE
8
TOP
10
0.400855
20
0.448471
30
0.0
11
0.393184
21
0.455241
31
0.0
0
LINE
8
TOP
10
0.393184
20
0.455241
30
0.0
11
0.384876
21
0.461213
31
0.0
0
LINE
8
TOP
10
0.384876
20
0.461213
30
0.0
11
0.376016
21
0.466329
31
0.0
0
LINE
8
TOP
10
0.376016
20
0.466329
30
0.0
11
0.366690
21
0.470537
31
0.0
0
LINE
8
TOP
10
0.366690
20
0.470537
30
0.0
11
0.356991
21
0.473796
31
0.0
0
LINE
8
TOP
10
0.356991
20
0.473796
30
0.0
11
0.347016
21
0.476072
31
0.0
0
LINE
8
TOP
10
0.347016
20
0.476072
30
0.0
11
0.336864
21
0.477345
31
0.0
0
LINE
8
TOP
10
0.336864
20
0.477345
30
0.0
11
0.326635
21
0.477600
31
0.0
0
LINE
8
TOP
10
0.326635
20
0.477600
30
0.0
11
0.316432
21
0.476835
31
0.0
0
LINE
8
TOP
10
0.316432
20
0.476835
30
0.0
11
0.306356
21
0.475058
31
0.0
0
LINE
8
TOP
10
0.306356
20
0.475058
30
0.0
11
0.296507
21
0.472287
31
0.0
0
LINE
8
TOP
10
0.296507
20
0.472287
30
0.0
11
0.286983
21
0.468549
31
0.0
0
LINE
8
TOP
10
0.286983
20
0.468549
30
0.0
11
0.277878
21
0.463882
31
0.0
0
LINE
8
TOP
10
0.277878
20
0.463882
30
0.0
11
0.269284
21
0.458330
31
0.0
0
LINE
8
TOP
10
0.269284
20
0.458330
30
0.0
11
0.261284
21
0.451951
31
0.0
0
LINE
8
TOP
10
0.261284
20
0.451951
30
0.0
11
0.253960
21
0.444807
31
0.0
0
LINE
8
TOP
10
0.253960
20
0.444807
30
0.0
11
0.247383
21
0.436969
31
0.0
0
LINE
8
TOP
10
0.247383
20
0.436969
30
0.0
11
0.241619
21
0.428516
31
0.0
0
LINE
8
TOP
10
0.241619
20
0.428516
30
0.0
11
0.236726
21
0.419530
31
0.0
0
LINE
8
TOP
10
0.236726
20
0.419530
30
0.0
11
0.232752
21
0.410102
31
0.0
0
LINE
8
TOP
10
0.232752
20
0.410102
30
0.0
11
0.229736
21
0.400325
31
0.0
0
LINE
8
TOP
10
0.229736
20
0.400325
30
0.0
11
0.227709
21
0.390296
31
0.0
0
LINE
8
TOP
10
0.227709
20
0.390296
30
0.0
11
0.226690
21
0.380116
31
0.0
0
LINE
8
TOP
10
0.226690
20
0.380116
30
0.0
11
0.226690
21
0.369884
31
0.0
0
LINE
8
TOP
10
0.226690
20
0.369884
30
0.0
11
0.227709
21
0.359704
31
0.0
0
LINE
8
TOP
10
0.227709
20
0.359704
30
0.0
11
0.229736
21
0.349675
31
0.0
0
LINE
8
TOP
10
0.229736
20
0.349675
30
0.0
11
0.232752
21
0.339898
31
0.0
0
LINE
8
TOP
10
0.232752
20
0.339898
30
0.0
11
0.236726
21
0.330470
31
0.0
0
LINE
8
TOP
10
0.236726
20
0.330470
30
0.0
11
0.241619
21
0.321484
31
0.0
0
LINE
8
TOP
10
0.241619
20
0.321484
30
0.0
11
0.247383
21
0.313031
31
0.0
0
LINE
8
TOP
10
0.247383
20
0.313031
30
0.0
11
0.253960
21
0.305193
31
0.0
0
LINE
8
TOP
10
0.253960
20
0.305193
30
0.0
11
0.261284
21
0.298049
31
0.0
0
LINE
8
TOP
10
0.261284
20
0.298049
30
0.0
11
0.269284
21
0.291670
31
0.0
0
LINE
8
TOP
10
0.269284
20
0.291670
30
0.0
11
0.277878
21
0.286118
31
0.0
0
LINE
8
TOP
10
0.277878
20
0.286118
30
0.0
11
0.286983
21
0.281451
31
0.0
0
LINE
8
TOP
10
0.286983
20
0.281451
30
0.0
11
0.296507
21
0.277713
31
0.0
0
LINE
8
TOP
10
0.296507
20
0.277713
30
0.0
11
0.306356
21
0.274942
31
0.0
0
LINE
8
TOP
10
0.306356
20
0.274942
30
0.0
11
0.316432
21
0.273165
31
0.0
0
LINE
8
TOP
10
0.316432
20
0.273165
30
0.0
11
0.326635
21
0.272400
31
0.0
0
LINE
8
TOP
10
0.326635
20
0.272400
30
0.0
11
0.336864
21
0.272655
31
0.0
0
LINE
8
TOP
10
0.336864
20
0.272655
30
0.0
11
0.347016
21
0.273928
31
0.0
0
LINE
8
TOP
10
0.347016
20
0.273928
30
0.0
11
0.356991
21
0.276204
31
0.0
0
LINE
8
TOP
10
0.356991
20
0.276204
30
0.0
11
0.366690
21
0.279463
31
0.0
0
LINE
8
TOP
10
0.366690
20
0.279463
30
0.0
11
0.376016
21
0.283671
31
0.0
0
LINE
8
TOP
10
0.376016
20
0.283671
30
0.0
11
0.384876
21
0.288787
31
0.0
0
LINE
8
TOP
10
0.384876
20
0.288787
30
0.0
11
0.393184
21
0.294759
31
0.0
0
LINE
8
TOP
10
0.393184
20
0.294759
30
0.0
11
0.400855
21
0.301529
31
0.0
0
LINE
8
TOP
10
0.400855
20
0.301529
30
0.0
11
0.407814
21
0.309030
31
0.0
0
LINE
8
TOP
10
0.407814
20
0.309030
30
0.0
11
0.413992
21
0.317186
31
0.0
0
LINE
8
TOP
10
0.413992
20
0.317186
30
0.0
11
0.419327
21
0.325916
31
0.0
0
LINE
8
TOP
10
0.419327
20
0.325916
30
0.0
11
0.423767
21
0.335134
31
0.0
0
LINE
8
TOP
10
0.423767
20
0.335134
30
0.0
11
0.427266
21
0.344749
31
0.0
0
LINE
8
TOP
10
0.427266
20
0.344749
30
0.0
11
0.429791
21
0.354664
31
0.0
0
LINE
8
TOP
10
0.429791
20
0.354664
30
0.0
11
0.431316
21
0.364781
31
0.0
0
LINE
8
TOP
10
0.431316
20
0.364781
30
0.0
11
0.431826
21
0.375000
31
0.0
0
LINE
8
TOP
10
0.150000
20
0.750000
30
0.0
11
0.000000
21
0.750000
31
0.0
0
LINE
8
TOP
10
0.000000
20
0.750000
30
0.0
11
0.000000
21
0.000000
31
0.0
0
LINE
8
TOP_HID
6
HIDDEN
10
0.000000
20
0.000000
30
0.0
11
0.497368
21
0.000000
31
0.0
0
LINE
8
TOP_HID
6
HIDDEN
10
0.497368
20
0.750000
30
0.0
11
0.000000
21
0.750000
31
0.0
0
ENDSEC
0
EOF
