0
SECTION
2
HEADER
9
$ACADVER
1
AC1009
0
ENDSEC
0
SECTION
2
TABLES
0
TABLE
2
LTYPE
70
3
0
LTYPE
2
CONTINUOUS
70
0
3
Solid line
72
65
73
0
40
0.0
0
LTYPE
2
HIDDEN
70
0
3
__ __ __ __ __
72
65
73
2
40
0.049737
49
0.033174
49
-0.016562
0
LTYPE
2
CENTER
70
0
3
___ _ ___ _ ___
72
65
73
4
40
0.116036
49
0.066299
49
-0.016562
49
0.016562
49
-0.016562
0
ENDTAB
0
TABLE
2
LAYER
70
6
0
LAYER
2
0
70
0
62
7
6
CONTINUOUS
0
LAYER
2
FRONT
70
0
62
7
6
CONTINUOUS
0
LAYER
2
LEFT
70
0
62
7
6
CONTINUOUS
0
LAYER
2
LEFT_HID
70
0
62
7
6
HIDDEN
0
LAYER
2
TOP
70
0
62
7
6
CONTINUOUS
0
LAYER
2
TOP_HID
70
0
62
7
6
HIDDEN
0
ENDTAB
0
ENDSEC
0
SECTION
2
ENTITIES
0
LINE
8
FRONT
10
0.248607
20
0.823947
30
0.0
11
0.745975
21
0.823947
31
0.0
0
LINE
8
FRONT
10
0.745975
20
0.823947
30
0.0
11
0.758371
21
0.824257
31
0.0
0
LINE
8
FRONT
10
0.758371
20
0.824257
30
0.0
11
0.770736
21
0.825183
31
0.0
0
LINE
8
FRONT
10
0.770736
20
0.825183
30
0.0
11
0.783040
21
0.826725
31
0.0
0
LINE
8
FRONT
10
0.783040
20
0.826725
30
0.0
11
0.795251
21
0.828878
31
0.0
0
LINE
8
FRONT
10
0.795251
20
0.828878
30
0.0
11
0.807340
21
0.831637
31
0.0
0
LINE
8
FRONT
10
0.807340
20
0.831637
30
0.0
11
0.819276
21
0.834996
31
0.0
0
LINE
8
FRONT
10
0.819276
20
0.834996
30
0.0
11
0.831030
21
0.838945
31
0.0
0
LINE
8
FRONT
10
0.831030
20
0.838945
30
0.0
11
0.842573
21
0.843475
31
0.0
0
LINE
8
FRONT
10
0.842573
20
0.843475
30
0.0
11
0.853875
21
0.848575
31
0.0
0
LINE
8
FRONT
10
0.853875
20
0.848575
30
0.0
11
0.864910
21
0.854232
31
0.0
0
LINE
8
FRONT
10
0.864910
20
0.854232
30
0.0
11
0.875648
21
0.860432
31
0.0
0
LINE
8
FRONT
10
0.875648
20
0.860432
30
0.0
11
0.886064
21
0.867159
31
0.0
0
LINE
8
FRONT
10
0.886064
20
0.867159
30
0.0
11
0.896132
21
0.874397
31
0.0
0
LINE
8
FRONT
10
0.896132
20
0.874397
30
0.0
11
0.905826
21
0.882128
31
0.0
0
LINE
8
FRONT
10
0.905826
20
0.882128
30
0.0
11
0.915124
21
0.890333
31
0.0
0
LINE
8
FRONT
10
0.915124
20
0.890333
30
0.0
11
0.924000
21
0.898991
31
0.0
0
LINE
8
FRONT
10
0.924000
20
0.898991
30
0.0
11
0.932434
21
0.908081
31
0.0
0
LINE
8
FRONT
10
0.932434
20
0.908081
30
0.0
11
0.940404
21
0.917580
31
0.0
0
LINE
8
FRONT
10
0.940404
20
0.917580
30
0.0
11
0.947891
21
0.927464
31
0.0
0
LINE
8
FRONT
10
0.947891
20
0.927464
30
0.0
11
0.954877
21
0.937709
31
0.0
0
LINE
8
FRONT
10
0.954877
20
0.937709
30
0.0
11
0.961342
21
0.948289
31
0.0
0
LINE
8
FRONT
10
0.961342
20
0.948289
30
0.0
11
0.967272
21
0.959179
31
0.0
0
LINE
8
FRONT
10
0.967272
20
0.959179
30
0.0
11
0.972652
21
0.970351
31
0.0
0
LINE
8
FRONT
10
0.972652
20
0.970351
30
0.0
11
0.977469
21
0.981777
31
0.0
0
LINE
8
FRONT
10
0.977469
20
0.981777
30
0.0
11
0.981710
21
0.993429
31
0.0
0
LINE
8
FRONT
10
0.981710
20
0.993429
30
0.0
11
0.985365
21
1.005278
31
0.0
0
LINE
8
FRONT
10
0.985365
20
1.005278
30
0.0
11
0.988425
21
1.017294
31
0.0
0
LINE
8
FRONT
10
0.988425
20
1.017294
30
0.0
11
0.990881
21
1.029448
31
0.0
0
LINE
8
FRONT
10
0.990881
20
1.029448
30
0.0
11
0.992730
21
1.041709
31
0.0
0
LINE
8
FRONT
10
0.992730
20
1.041709
30
0.0
11
0.993964
21
1.054047
31
0.0
0
LINE
8
FRONT
10
0.993964
20
1.054047
30
0.0
11
0.994582
21
1.066432
31
0.0
0
LINE
8
FRONT
10
0.994582
20
1.066432
30
0.0
11
0.994582
21
1.078831
31
0.0
0
LINE
8
FRONT
10
0.994582
20
1.078831
30
0.0
11
0.993964
21
1.091216
31
0.0
0
LINE
8
FRONT
10
0.993964
20
1.091216
30
0.0
11
0.992730
21
1.103554
31
0.0
0
LINE
8
FRONT
10
0.992730
20
1.103554
30
0.0
11
0.990881
21
1.115815
31
0.0
0
LINE
8
FRONT
10
0.990881
20
1.115815
30
0.0
11
0.988425
21
1.127969
31
0.0
0
LINE
8
FRONT
10
0.988425
20
1.127969
30
0.0
11
0.985365
21
1.139985
31
0.0
0
LINE
8
FRONT
10
0.985365
20
1.139985
30
0.0
11
0.981710
21
1.151834
31
0.0
0
LINE
8
FRONT
10
0.981710
20
1.151834
30
0.0
11
0.977469
21
1.163486
31
0.0
0
LINE
8
FRONT
10
0.977469
20
1.163486
30
0.0
11
0.972652
21
1.174912
31
0.0
0
LINE
8
FRONT
10
0.972652
20
1.174912
30
0.0
11
0.967272
21
1.186084
31
0.0
0
LINE
8
FRONT
10
0.967272
20
1.186084
30
0.0
11
0.961342
21
1.196974
31
0.0
0
LINE
8
FRONT
10
0.961342
20
1.196974
30
0.0
11
0.954877
21
1.207554
31
0.0
0
LINE
8
FRONT
10
0.954877
20
1.207554
30
0.0
11
0.947891
21
1.217799
31
0.0
0
LINE
8
FRONT
10
0.947891
20
1.217799
30
0.0
11
0.940404
21
1.227684
31
0.0
0
LINE
8
FRONT
10
0.940404
20
1.227684
30
0.0
11
0.932434
21
1.237182
31
0.0
0
LINE
8
FRONT
10
0.932434
20
1.237182
30
0.0
11
0.924000
21
1.246272
31
0.0
0
LINE
8
FRONT
10
0.924000
20
1.246272
30
0.0
11
0.915124
21
1.254930
31
0.0
0
LINE
8
FRONT
10
0.915124
20
1.254930
30
0.0
11
0.905826
21
1.263135
31
0.0
0
LINE
8
FRONT
10
0.905826
20
1.263135
30
0.0
11
0.896132
21
1.270866
31
0.0
0
LINE
8
FRONT
10
0.896132
20
1.270866
30
0.0
11
0.886064
21
1.278104
31
0.0
0
LINE
8
FRONT
10
0.886064
20
1.278104
30
0.0
11
0.875648
21
1.284832
31
0.0
0
LINE
8
FRONT
10
0.875648
20
1.284832
30
0.0
11
0.864910
21
1.291031
31
0.0
0
LINE
8
FRONT
10
0.864910
20
1.291031
30
0.0
11
0.853875
21
1.296688
31
0.0
0
LINE
8
FRONT
10
0.853875
20
1.296688
30
0.0
11
0.842573
21
1.301788
31
0.0
0
LINE
8
FRONT
10
0.842573
20
1.301788
30
0.0
11
0.831030
21
1.306318
31
0.0
0
LINE
8
FRONT
10
0.831030
20
1.306318
30
0.0
11
0.819276
21
1.310267
31
0.0
0
LINE
8
FRONT
10
0.819276
20
1.310267
30
0.0
11
0.807340
21
1.313626
31
0.0
0
LINE
8
FRONT
10
0.807340
20
1.313626
30
0.0
11
0.795251
21
1.316385
31
0.0
0
LINE
8
FRONT
10
0.795251
20
1.316385
30
0.0
11
0.783040
21
1.318538
31
0.0
0
LINE
8
FRONT
10
0.783040
20
1.318538
30
0.0
11
0.770736
21
1.320080
31
0.0
0
LINE
8
FRONT
10
0.770736
20
1.320080
30
0.0
11
0.758371
21
1.321007
31
0.0
0
LINE
8
FRONT
10
0.758371
20
1.321007
30
0.0
11
0.745975
21
1.321316
31
0.0
0
LINE
8
FRONT
10
0.745975
20
1.321316
30
0.0
11
0.248607
21
1.321316
31
0.0
0
LINE
8
FRONT
10
0.248607
20
1.321316
30
0.0
11
0.236211
21
1.321007
31
0.0
0
LINE
8
FRONT
10
0.236211
20
1.321007
30
0.0
11
0.223846
21
1.320080
31
0.0
0
LINE
8
FRONT
10
0.223846
20
1.320080
30
0.0
11
0.211542
21
1.318538
31
0.0
0
LINE
8
FRONT
10
0.211542
20
1.318538
30
0.0
11
0.199331
21
1.316385
31
0.0
0
LINE
8
FRONT
10
0.199331
20
1.316385
30
0.0
11
0.187242
21
1.313626
31
0.0
0
LINE
8
FRONT
10
0.187242
20
1.313626
30
0.0
11
0.175306
21
1.310267
31
0.0
0
LINE
8
FRONT
10
0.175306
20
1.310267
30
0.0
11
0.163552
21
1.306318
31
0.0
0
LINE
8
FRONT
10
0.163552
20
1.306318
30
0.0
11
0.152009
21
1.301788
31
0.0
0
LINE
8
FRONT
10
0.152009
20
1.301788
30
0.0
11
0.140707
21
1.296688
31
0.0
0
LINE
8
FRONT
10
0.140707
20
1.296688
30
0.0
11
0.129673
21
1.291031
31
0.0
0
LINE
8
FRONT
10
0.129673
20
1.291031
30
0.0
11
0.118934
21
1.284832
31
0.0
0
LINE
8
FRONT
10
0.118934
20
1.284832
30
0.0
11
0.108518
21
1.278104
31
0.0
0
LINE
8
FRONT
10
0.108518
20
1.278104
30
0.0
11
0.098450
21
1.270866
31
0.0
0
LINE
8
FRONT
10
0.098450
20
1.270866
30
0.0
11
0.088756
21
1.263135
31
0.0
0
LINE
8
FRONT
10
0.088756
20
1.263135
30
0.0
11
0.079459
21
1.254930
31
0.0
0
LINE
8
FRONT
10
0.079459
20
1.254930
30
0.0
11
0.070582
21
1.246272
31
0.0
0
LINE
8
FRONT
10
0.070582
20
1.246272
30
0.0
11
0.062148
21
1.237182
31
0.0
0
LINE
8
FRONT
10
0.062148
20
1.237182
30
0.0
11
0.054178
21
1.227684
31
0.0
0
LINE
8
FRONT
10
0.054178
20
1.227684
30
0.0
11
0.046691
21
1.217799
31
0.0
0
LINE
8
FRONT
10
0.046691
20
1.217799
30
0.0
11
0.039706
21
1.207554
31
0.0
0
LINE
8
FRONT
10
0.039706
20
1.207554
30
0.0
11
0.033240
21
1.196974
31
0.0
0
LINE
8
FRONT
10
0.033240
20
1.196974
30
0.0
11
0.027310
21
1.186084
31
0.0
0
LINE
8
FRONT
10
0.027310
20
1.186084
30
0.0
11
0.021930
21
1.174912
31
0.0
0
LINE
8
FRONT
10
0.021930
20
1.174912
30
0.0
11
0.017113
21
1.163486
31
0.0
0
LINE
8
FRONT
10
0.017113
20
1.163486
30
0.0
11
0.012872
21
1.151834
31
0.0
0
LINE
8
FRONT
10
0.012872
20
1.151834
30
0.0
11
0.009217
21
1.139985
31
0.0
0
LINE
8
FRONT
10
0.009217
20
1.139985
30
0.0
11
0.006158
21
1.127969
31
0.0
0
LINE
8
FRONT
10
0.006158
20
1.127969
30
0.0
11
0.003701
21
1.115815
31
0.0
0
LINE
8
FRONT
10
0.003701
20
1.115815
30
0.0
11
0.001853
21
1.103554
31
0.0
0
LINE
8
FRONT
10
0.001853
20
1.103554
30
0.0
11
0.000618
21
1.091216
31
0.0
0
LINE
8
FRONT
10
0.000618
20
1.091216
30
0.0
11
0.000000
21
1.078831
31
0.0
0
LINE
8
FRONT
10
0.000000
20
1.078831
30
0.0
11
0.000000
21
1.066432
31
0.0
0
LINE
8
FRONT
10
0.000000
20
1.066432
30
0.0
11
0.000618
21
1.054047
31
0.0
0
LINE
8
FRONT
10
0.000618
20
1.054047
30
0.0
11
0.001853
21
1.041709
31
0.0
0
LINE
8
FRONT
10
0.001853
20
1.041709
30
0.0
11
0.003701
21
1.029448
31
0.0
0
LINE
8
FRONT
10
0.003701
20
1.029448
30
0.0
11
0.006158
21
1.017294
31
0.0
0
LINE
8
FRONT
10
0.006158
20
1.017294
30
0.0
11
0.009217
21
1.005278
31
0.0
0
LINE
8
FRONT
10
0.009217
20
1.005278
30
0.0
11
0.012872
21
0.993429
31
0.0
0
LINE
8
FRONT
10
0.012872
20
0.993429
30
0.0
11
0.017113
21
0.981777
31
0.0
0
LINE
8
FRONT
10
0.017113
20
0.981777
30
0.0
11
0.021930
21
0.970351
31
0.0
0
LINE
8
FRONT
10
0.021930
20
0.970351
30
0.0
11
0.027310
21
0.959179
31
0.0
0
LINE
8
FRONT
10
0.027310
20
0.959179
30
0.0
11
0.033240
21
0.948289
31
0.0
0
LINE
8
FRONT
10
0.033240
20
0.948289
30
0.0
11
0.039706
21
0.937709
31
0.0
0
LINE
8
FRONT
10
0.039706
20
0.937709
30
0.0
11
0.046691
21
0.927464
31
0.0
0
LINE
8
FRONT
10
0.046691
20
0.927464
30
0.0
11
0.054178
21
0.917580
31
0.0
0
LINE
8
FRONT
10
0.054178
20
0.917580
30
0.0
11
0.062148
21
0.908081
31
0.0
0
LINE
8
FRONT
10
0.062148
20
0.908081
30
0.0
11
0.070582
21
0.898991
31
0.0
0
LINE
8
FRONT
10
0.070582
20
0.898991
30
0.0
11
0.079459
21
0.890333
31
0.0
0
LINE
8
FRONT
10
0.079459
20
0.890333
30
0.0
11
0.088756
21
0.882128
31
0.0
0
LINE
8
FRONT
10
0.088756
20
0.882128
30
0.0
11
0.098450
21
0.874397
31
0.0
0
LINE
8
FRONT
10
0.098450
20
0.874397
30
0.0
11
0.108518
21
0.867159
31
0.0
0
LINE
8
FRONT
10
0.108518
20
0.867159
30
0.0
11
0.118934
21
0.860432
31
0.0
0
LINE
8
FRONT
10
0.118934
20
0.860432
30
0.0
11
0.129673
21
0.854232
31
0.0
0
LINE
8
FRONT
10
0.129673
20
0.854232
30
0.0
11
0.140707
21
0.848575
31
0.0
0
LINE
8
FRONT
10
0.140707
20
0.848575
30
0.0
11
0.152009
21
0.843475
31
0.0
0
LINE
8
FRONT
10
0.152009
20
0.843475
30
0.0
11
0.163552
21
0.838945
31
0.0
0
LINE
8
FRONT
10
0.163552
20
0.838945
30
0.0
11
0.175306
21
0.834996
31
0.0
0
LINE
8
FRONT
10
0.175306
20
0.834996
30
0.0
11
0.187242
21
0.831637
31
0.0
0
LINE
8
FRONT
10
0.187242
20
0.831637
30
0.0
11
0.199331
21
0.828878
31
0.0
0
LINE
8
FRONT
10
0.199331
20
0.828878
30
0.0
11
0.211542
21
0.826725
31
0.0
0
LINE
8
FRONT
10
0.211542
20
0.826725
30
0.0
11
0.223846
21
0.825183
31
0.0
0
LINE
8
FRONT
10
0.223846
20
0.825183
30
0.0
11
0.236211
21
0.824257
31
0.0
0
LINE
8
FRONT
10
0.236211
20
0.824257
30
0.0
11
0.248607
21
0.823947
31
0.0
0
LINE
8
FRONT
10
0.248607
20
0.950263
30
0.0
11
0.261184
21
0.950891
31
0.0
0
LINE
8
FRONT
10
0.261184
20
0.950891
30
0.0
11
0.273636
21
0.952768
31
0.0
0
LINE
8
FRONT
10
0.273636
20
0.952768
30
0.0
11
0.285839
21
0.955875
31
0.0
0
LINE
8
FRONT
10
0.285839
20
0.955875
30
0.0
11
0.297672
21
0.960182
31
0.0
0
LINE
8
FRONT
10
0.297672
20
0.960182
30
0.0
11
0.309018
21
0.965646
31
0.0
0
LINE
8
FRONT
10
0.309018
20
0.965646
30
0.0
11
0.319763
21
0.972212
31
0.0
0
LINE
8
FRONT
10
0.319763
20
0.972212
30
0.0
11
0.329801
21
0.979815
31
0.0
0
LINE
8
FRONT
10
0.329801
20
0.979815
30
0.0
11
0.339032
21
0.988381
31
0.0
0
LINE
8
FRONT
10
0.339032
20
0.988381
30
0.0
11
0.347365
21
0.997822
31
0.0
0
LINE
8
FRONT
10
0.347365
20
0.997822
30
0.0
11
0.354715
21
1.008047
31
0.0
0
LINE
8
FRONT
10
0.354715
20
1.008047
30
0.0
11
0.361012
21
1.018952
31
0.0
0
LINE
8
FRONT
10
0.361012
20
1.018952
30
0.0
11
0.366191
21
1.030431
31
0.0
0
LINE
8
FRONT
10
0.366191
20
1.030431
30
0.0
11
0.370202
21
1.042368
31
0.0
0
LINE
8
FRONT
10
0.370202
20
1.042368
30
0.0
11
0.373004
21
1.054644
31
0.0
0
LINE
8
FRONT
10
0.373004
20
1.054644
30
0.0
11
0.374569
21
1.067139
31
0.0
0
LINE
8
FRONT
10
0.374569
20
1.067139
30
0.0
11
0.374883
21
1.079728
31
0.0
0
LINE
8
FRONT
10
0.374883
20
1.079728
30
0.0
11
0.373942
21
1.092286
31
0.0
0
LINE
8
FRONT
10
0.373942
20
1.092286
30
0.0
11
0.371756
21
1.104687
31
0.0
0
LINE
8
FRONT
10
0.371756
20
1.104687
30
0.0
11
0.368345
21
1.116809
31
0.0
0
LINE
8
FRONT
10
0.368345
20
1.116809
30
0.0
11
0.363744
21
1.128531
31
0.0
0
LINE
8
FRONT
10
0.363744
20
1.128531
30
0.0
11
0.358000
21
1.139737
31
0.0
0
LINE
8
FRONT
10
0.358000
20
1.139737
30
0.0
11
0.351168
21
1.150315
31
0.0
0
LINE
8
FRONT
10
0.351168
20
1.150315
30
0.0
11
0.343316
21
1.160160
31
0.0
0
LINE
8
FRONT
10
0.343316
20
1.160160
30
0.0
11
0.334523
21
1.169175
31
0.0
0
LINE
8
FRONT
10
0.334523
20
1.169175
30
0.0
11
0.324877
21
1.177269
31
0.0
0
LINE
8
FRONT
10
0.324877
20
1.177269
30
0.0
11
0.314472
21
1.184363
31
0.0
0
LINE
8
FRONT
10
0.314472
20
1.184363
30
0.0
11
0.303413
21
1.190386
31
0.0
0
LINE
8
FRONT
10
0.303413
20
1.190386
30
0.0
11
0.291809
21
1.195277
31
0.0
0
LINE
8
FRONT
10
0.291809
20
1.195277
30
0.0
11
0.279776
21
1.198989
31
0.0
0
LINE
8
FRONT
10
0.279776
20
1.198989
30
0.0
11
0.267433
21
1.201484
31
0.0
0
LINE
8
FRONT
10
0.267433
20
1.201484
30
0.0
11
0.254903
21
1.202738
31
0.0
0
LINE
8
FRONT
10
0.254903
20
1.202738
30
0.0
11
0.242311
21
1.202738
31
0.0
0
LINE
8
FRONT
10
0.242311
20
1.202738
30
0.0
11
0.229781
21
1.201484
31
0.0
0
LINE
8
FRONT
10
0.229781
20
1.201484
30
0.0
11
0.217438
21
1.198989
31
0.0
0
LINE
8
FRONT
10
0.217438
20
1.198989
30
0.0
11
0.205404
21
1.195277
31
0.0
0
LINE
8
FRONT
10
0.205404
20
1.195277
30
0.0
11
0.193801
21
1.190386
31
0.0
0
LINE
8
FRONT
10
0.193801
20
1.190386
30
0.0
11
0.182741
21
1.184363
31
0.0
0
LINE
8
FRONT
10
0.182741
20
1.184363
30
0.0
11
0.172337
21
1.177269
31
0.0
0
LINE
8
FRONT
10
0.172337
20
1.177269
30
0.0
11
0.162690
21
1.169175
31
0.0
0
LINE
8
FRONT
10
0.162690
20
1.169175
30
0.0
11
0.153898
21
1.160160
31
0.0
0
LINE
8
FRONT
10
0.153898
20
1.160160
30
0.0
11
0.146046
21
1.150315
31
0.0
0
LINE
8
FRONT
10
0.146046
20
1.150315
30
0.0
11
0.139214
21
1.139737
31
0.0
0
LINE
8
FRONT
10
0.139214
20
1.139737
30
0.0
11
0.133469
21
1.128531
31
0.0
0
LINE
8
FRONT
10
0.133469
20
1.128531
30
0.0
11
0.128869
21
1.116809
31
0.0
0
LINE
8
FRONT
10
0.128869
20
1.116809
30
0.0
11
0.125458
21
1.104687
31
0.0
0
LINE
8
FRONT
10
0.125458
20
1.104687
30
0.0
11
0.123271
21
1.092286
31
0.0
0
LINE
8
FRONT
10
0.123271
20
1.092286
30
0.0
11
0.122330
21
1.079728
31
0.0
0
LINE
8
FRONT
10
0.122330
20
1.079728
30
0.0
11
0.122644
21
1.067139
31
0.0
0
LINE
8
FRONT
10
0.122644
20
1.067139
30
0.0
11
0.124210
21
1.054644
31
0.0
0
LINE
8
FRONT
10
0.124210
20
1.054644
30
0.0
11
0.127012
21
1.042368
31
0.0
0
LINE
8
FRONT
10
0.127012
20
1.042368
30
0.0
11
0.131023
21
1.030431
31
0.0
0
LINE
8
FRONT
10
0.131023
20
1.030431
30
0.0
11
0.136202
21
1.018952
31
0.0
0
LINE
8
FRONT
10
0.136202
20
1.018952
30
0.0
11
0.142498
21
1.008047
31
0.0
0
LINE
8
FRONT
10
0.142498
20
1.008047
30
0.0
11
0.149849
21
0.997822
31
0.0
0
LINE
8
FRONT
10
0.149849
20
0.997822
30
0.0
11
0.158182
21
0.988381
31
0.0
0
LINE
8
FRONT
10
0.158182
20
0.988381
30
0.0
11
0.167413
21
0.979815
31
0.0
0
LINE
8
FRONT
10
0.167413
20
0.979815
30
0.0
11
0.177451
21
0.972212
31
0.0
0
LINE
8
FRONT
10
0.177451
20
0.972212
30
0.0
11
0.188196
21
0.965646
31
0.0
0
LINE
8
FRONT
10
0.188196
20
0.965646
30
0.0
11
0.199541
21
0.960182
31
0.0
0
LINE
8
FRONT
10
0.199541
20
0.960182
30
0.0
11
0.211375
21
0.955875
31
0.0
0
LINE
8
FRONT
10
0.211375
20
0.955875
30
0.0
11
0.223578
21
0.952768
31
0.0
0
LINE
8
FRONT
10
0.223578
20
0.952768
30
0.0
11
0.236030
21
0.950891
31
0.0
0
LINE
8
FRONT
10
0.236030
20
0.950891
30
0.0
11
0.248607
21
0.950263
31
0.0
0
LINE
8
FRONT
10
0.745975
20
0.950263
30
0.0
11
0.758552
21
0.950891
31
0.0
0
LINE
8
FRONT
10
0.758552
20
0.950891
30
0.0
11
0.771004
21
0.952768
31
0.0
0
LINE
8
FRONT
10
0.771004
20
0.952768
30
0.0
11
0.783208
21
0.955875
31
0.0
0
LINE
8
FRONT
10
0.783208
20
0.955875
30
0.0
11
0.795041
21
0.960182
31
0.0
0
LINE
8
FRONT
10
0.795041
20
0.960182
30
0.0
11
0.806386
21
0.965646
31
0.0
0
LINE
8
FRONT
10
0.806386
20
0.965646
30
0.0
11
0.817132
21
0.972212
31
0.0
0
LINE
8
FRONT
10
0.817132
20
0.972212
30
0.0
11
0.827170
21
0.979815
31
0.0
0
LINE
8
FRONT
10
0.827170
20
0.979815
30
0.0
11
0.836401
21
0.988381
31
0.0
0
LINE
8
FRONT
10
0.836401
20
0.988381
30
0.0
11
0.844733
21
0.997822
31
0.0
0
LINE
8
FRONT
10
0.844733
20
0.997822
30
0.0
11
0.852084
21
1.008047
31
0.0
0
LINE
8
FRONT
10
0.852084
20
1.008047
30
0.0
11
0.858380
21
1.018952
31
0.0
0
LINE
8
FRONT
10
0.858380
20
1.018952
30
0.0
11
0.863559
21
1.030431
31
0.0
0
LINE
8
FRONT
10
0.863559
20
1.030431
30
0.0
11
0.867570
21
1.042368
31
0.0
0
LINE
8
FRONT
10
0.867570
20
1.042368
30
0.0
11
0.870372
21
1.054644
31
0.0
0
LINE
8
FRONT
10
0.870372
20
1.054644
30
0.0
11
0.871938
21
1.067139
31
0.0
0
LINE
8
FRONT
10
0.871938
20
1.067139
30
0.0
11
0.872252
21
1.079728
31
0.0
0
LINE
8
FRONT
10
0.872252
20
1.079728
30
0.0
11
0.871311
21
1.092286
31
0.0
0
LINE
8
FRONT
10
0.871311
20
1.092286
30
0.0
11
0.869124
21
1.104687
31
0.0
0
LINE
8
FRONT
10
0.869124
20
1.104687
30
0.0
11
0.865714
21
1.116809
31
0.0
0
LINE
8
FRONT
10
0.865714
20
1.116809
30
0.0
11
0.861113
21
1.128531
31
0.0
0
LINE
8
FRONT
10
0.861113
20
1.128531
30
0.0
11
0.855368
21
1.139737
31
0.0
0
LINE
8
FRONT
10
0.855368
20
1.139737
30
0.0
11
0.848536
21
1.150315
31
0.0
0
LINE
8
FRONT
10
0.848536
20
1.150315
30
0.0
11
0.840685
21
1.160160
31
0.0
0
LINE
8
FRONT
10
0.840685
20
1.160160
30
0.0
11
0.831892
21
1.169175
31
0.0
0
LINE
8
FRONT
10
0.831892
20
1.169175
30
0.0
11
0.822245
21
1.177269
31
0.0
0
LINE
8
FRONT
10
0.822245
20
1.177269
30
0.0
11
0.811841
21
1.184363
31
0.0
0
LINE
8
FRONT
10
0.811841
20
1.184363
30
0.0
11
0.800782
21
1.190386
31
0.0
0
LINE
8
FRONT
10
0.800782
20
1.190386
30
0.0
11
0.789178
21
1.195277
31
0.0
0
LINE
8
FRONT
10
0.789178
20
1.195277
30
0.0
11
0.777145
21
1.198989
31
0.0
0
LINE
8
FRONT
10
0.777145
20
1.198989
30
0.0
11
0.764802
21
1.201484
31
0.0
0
LINE
8
FRONT
10
0.764802
20
1.201484
30
0.0
11
0.752272
21
1.202738
31
0.0
0
LINE
8
FRONT
10
0.752272
20
1.202738
30
0.0
11
0.739679
21
1.202738
31
0.0
0
LINE
8
FRONT
10
0.739679
20
1.202738
30
0.0
11
0.727149
21
1.201484
31
0.0
0
LINE
8
FRONT
10
0.727149
20
1.201484
30
0.0
11
0.714806
21
1.198989
31
0.0
0
LINE
8
FRONT
10
0.714806
20
1.198989
30
0.0
11
0.702773
21
1.195277
31
0.0
0
LINE
8
FRONT
10
0.702773
20
1.195277
30
0.0
11
0.691169
21
1.190386
31
0.0
0
LINE
8
FRONT
10
0.691169
20
1.190386
30
0.0
11
0.680110
21
1.184363
31
0.0
0
LINE
8
FRONT
10
0.680110
20
1.184363
30
0.0
11
0.669705
21
1.177269
31
0.0
0
LINE
8
FRONT
10
0.669705
20
1.177269
30
0.0
11
0.660059
21
1.169175
31
0.0
0
LINE
8
FRONT
10
0.660059
20
1.169175
30
0.0
11
0.651266
21
1.160160
31
0.0
0
LINE
8
FRONT
10
0.651266
20
1.160160
30
0.0
11
0.643415
21
1.150315
31
0.0
0
LINE
8
FRONT
10
0.643415
20
1.150315
30
0.0
11
0.636583
21
1.139737
31
0.0
0
LINE
8
FRONT
10
0.636583
20
1.139737
30
0.0
11
0.630838
21
1.128531
31
0.0
0
LINE
8
FRONT
10
0.630838
20
1.128531
30
0.0
11
0.626237
21
1.116809
31
0.0
0
LINE
8
FRONT
10
0.626237
20
1.116809
30
0.0
11
0.622827
21
1.104687
31
0.0
0
LINE
8
FRONT
10
0.622827
20
1.104687
30
0.0
11
0.620640
21
1.092286
31
0.0
0
LINE
8
FRONT
10
0.620640
20
1.092286
30
0.0
11
0.619699
21
1.079728
31
0.0
0
LINE
8
FRONT
10
0.619699
20
1.079728
30
0.0
11
0.620013
21
1.067139
31
0.0
0
LINE
8
FRONT
10
0.620013
20
1.067139
30
0.0
11
0.621579
21
1.054644
31
0.0
0
LINE
8
FRONT
10
0.621579
20
1.054644
30
0.0
11
0.624381
21
1.042368
31
0.0
0
LINE
8
FRONT
10
0.624381
20
1.042368
30
0.0
11
0.628391
21
1.030431
31
0.0
0
LINE
8
FRONT
10
0.628391
20
1.030431
30
0.0
11
0.633570
21
1.018952
31
0.0
0
LINE
8
FRONT
10
0.633570
20
1.018952
30
0.0
11
0.639867
21
1.008047
31
0.0
0
LINE
8
FRONT
10
0.639867
20
1.008047
30
0.0
11
0.647218
21
0.997822
31
0.0
0
LINE
8
FRONT
10
0.647218
20
0.997822
30
0.0
11
0.655550
21
0.988381
31
0.0
0
LINE
8
FRONT
10
0.655550
20
0.988381
30
0.0
11
0.664781
21
0.979815
31
0.0
0
LINE
8
FRONT
10
0.664781
20
0.979815
30
0.0
11
0.674819
21
0.972212
31
0.0
0
LINE
8
FRONT
10
0.674819
20
0.972212
30
0.0
11
0.685564
21
0.965646
31
0.0
0
LINE
8
FRONT
10
0.685564
20
0.965646
30
0.0
11
0.696910
21
0.960182
31
0.0
0
LINE
8
FRONT
10
0.696910
20
0.960182
30
0.0
11
0.708743
21
0.955875
31
0.0
0
LINE
8
FRONT
10
0.708743
20
0.955875
30
0.0
11
0.720946
21
0.952768
31
0.0
0
LINE
8
FRONT
10
0.720946
20
0.952768
30
0.0
11
0.733398
21
0.950891
31
0.0
0
LINE
8
FRONT
10
0.733398
20
0.950891
30
0.0
11
0.745975
21
0.950263
31
0.0
0
LINE
8
LEFT
10
1.193530
20
0.823947
30
0.0
11
1.818530
21
0.823947
31
0.0
0
LINE
8
LEFT
10
1.193530
20
0.823947
30
0.0
11
1.818530
21
0.823947
31
0.0
0
LINE
8
LEFT
10
1.193530
20
1.321316
30
0.0
11
1.818530
21
1.321316
31
0.0
0
LINE
8
LEFT
10
1.193530
20
1.321316
30
0.0
11
1.818530
21
1.321316
31
0.0
0
LINE
8
LEFT
10
1.193530
20
1.321316
30
0.0
11
1.193530
21
0.823947
31
0.0
0
LINE
8
LEFT
10
1.818530
20
1.321316
30
0.0
11
1.818530
21
0.823947
31
0.0
0
LINE
8
LEFT_HID
6
HIDDEN
10
1.193530
20
0.950263
30
0.0
11
1.193530
21
1.202895
31
0.0
0
LINE
8
LEFT_HID
6
HIDDEN
10
1.193530
20
1.202895
30
0.0
11
1.193530
21
0.950263
31
0.0
0
LINE
8
LEFT_HID
6
HIDDEN
10
1.193530
20
0.950263
30
0.0
11
1.818530
21
0.950263
31
0.0
0
LINE
8
LEFT_HID
6
HIDDEN
10
1.818530
20
0.950263
30
0.0
11
1.818530
21
1.202895
31
0.0
0
LINE
8
LEFT_HID
6
HIDDEN
10
1.818530
20
1.202895
30
0.0
11
1.818530
21
0.950263
31
0.0
0
LINE
8
LEFT_HID
6
HIDDEN
10
1.193530
20
0.950263
30
0.0
11
1.193530
21
1.202895
31
0.0
0
LINE
8
LEFT_HID
6
HIDDEN
10
1.193530
20
1.202895
30
0.0
11
1.193530
21
0.950263
31
0.0
0
LINE
8
LEFT_HID
6
HIDDEN
10
1.193530
20
0.950263
30
0.0
11
1.818530
21
0.950263
31
0.0
0
LINE
8
LEFT_HID
6
HIDDEN
10
1.818530
20
0.950263
30
0.0
11
1.818530
21
1.202895
31
0.0
0
LINE
8
LEFT_HID
6
HIDDEN
10
1.818530
20
1.202895
30
0.0
11
1.818530
21
0.950263
31
0.0
0
LINE
8
LEFT_HID
6
HIDDEN
10
1.818530
20
1.202895
30
0.0
11
1.193530
21
1.202895
31
0.0
0
LINE
8
LEFT_HID
6
HIDDEN
10
1.818530
20
1.202895
30
0.0
11
1.193530
21
1.202895
31
0.0
0
LINE
8
TOP
10
0.994737
20
0.625000
30
0.0
11
0.746053
21
0.625000
31
0.0
0
LINE
8
TOP
10
0.994737
20
0.000000
30
0.0
11
0.746053
21
0.000000
31
0.0
0
LINE
8
TOP
10
0.746053
20
0.000000
30
0.0
11
0.248684
21
0.000000
31
0.0
0
LINE
8
TOP
10
0.746053
20
0.625000
30
0.0
11
0.248684
21
0.625000
31
0.0
0
LINE
8
TOP
10
0.248684
20
0.625000
30
0.0
11
0.000000
21
0.625000
31
0.0
0
LINE
8
TOP
10
0.248684
20
0.000000
30
0.0
11
0.000000
21
0.000000
31
0.0
0
LINE
8
TOP
10
0.746053
20
0.625000
30
0.0
11
0.746053
21
0.000000
31
0.0
0
LINE
8
TOP
10
0.248684
20
0.625000
30
0.0
11
0.248684
21
0.000000
31
0.0
0
LINE
8
TOP
10
0.994737
20
0.000000
30
0.0
11
0.994737
21
0.625000
31
0.0
0
LINE
8
TOP
10
0.000000
20
0.000000
30
0.0
11
0.000000
21
0.625000
31
0.0
0
LINE
8
TOP_HID
6
HIDDEN
10
0.248684
20
0.625000
30
0.0
11
0.375000
21
0.625000
31
0.0
0
LINE
8
TOP_HID
6
HIDDEN
10
0.375000
20
0.625000
30
0.0
11
0.122368
21
0.625000
31
0.0
0
LINE
8
TOP_HID
6
HIDDEN
10
0.122368
20
0.625000
30
0.0
11
0.248684
21
0.625000
31
0.0
0
LINE
8
TOP_HID
6
HIDDEN
10
0.248684
20
0.000000
30
0.0
11
0.375000
21
0.000000
31
0.0
0
LINE
8
TOP_HID
6
HIDDEN
10
0.375000
20
0.000000
30
0.0
11
0.122368
21
0.000000
31
0.0
0
LINE
8
TOP_HID
6
HIDDEN
10
0.122368
20
0.000000
30
0.0
11
0.248684
21
0.000000
31
0.0
0
LINE
8
TOP_HID
6
HIDDEN
10
0.746053
20
0.625000
30
0.0
11
0.872368
21
0.625000
31
0.0
0
LINE
8
TOP_HID
6
HIDDEN
10
0.872368
20
0.625000
30
0.0
11
0.619737
21
0.625000
31
0.0
0
LINE
8
TOP_HID
6
HIDDEN
10
0.619737
20
0.625000
30
0.0
11
0.746053
21
0.625000
31
0.0
0
LINE
8
TOP_HID
6
HIDDEN
10
0.746053
20
0.000000
30
0.0
11
0.872368
21
0.000000
31
0.0
0
LINE
8
TOP_HID
6
HIDDEN
10
0.872368
20
0.000000
30
0.0
11
0.619737
21
0.000000
31
0.0
0
LINE
8
TOP_HID
6
HIDDEN
10
0.619737
20
0.000000
30
0.0
11
0.746053
21
0.000000
31
0.0
0
LINE
8
TOP_HID
6
HIDDEN
10
0.375000
20
0.000000
30
0.0
11
0.375000
21
0.625000
31
0.0
0
LINE
8
TOP_HID
6
HIDDEN
10
0.122368
20
0.000000
30
0.0
11
0.122368
21
0.625000
31
0.0
0
LINE
8
TOP_HID
6
HIDDEN
10
0.872368
20
0.000000
30
0.0
11
0.872368
21
0.625000
31
0.0
0
LINE
8
TOP_HID
6
HIDDEN
10
0.619737
20
0.000000
30
0.0
11
0.619737
21
0.625000
31
0.0
0
ENDSEC
0
EOF
