0
SECTION
2
HEADER
9
$ACADVER
1
AC1009
0
ENDSEC
0
SECTION
2
TABLES
0
TABLE
2
LTYPE
70
3
0
LTYPE
2
CONTINUOUS
70
0
3
Solid line
72
65
73
0
40
0.0
0
LTYPE
2
HIDDEN
70
0
3
__ __ __ __ __
72
65
73
2
40
0.066615
49
0.044432
49
-0.022183
0
LTYPE
2
CENTER
70
0
3
___ _ ___ _ ___
72
65
73
4
40
0.155412
49
0.088797
49
-0.022183
49
0.022183
49
-0.022183
0
ENDTAB
0
TABLE
2
LAYER
70
6
0
LAYER
2
0
70
0
62
7
6
CONTINUOUS
0
LAYER
2
FRONT
70
0
62
7
6
CONTINUOUS
0
LAYER
2
FRONT_HID
70
0
62
7
6
HIDDEN
0
LAYER
2
LEFT
70
0
62
7
6
CONTINUOUS
0
LAYER
2
LEFT_HID
70
0
62
7
6
HIDDEN
0
LAYER
2
TOP
70
0
62
7
6
CONTINUOUS
0
ENDTAB
0
ENDSEC
0
SECTION
2
ENTITIES
0
LINE
8
FRONT
10
0.000000
20
0.854332
30
0.0
11
0.342380
21
0.854332
31
0.0
0
LINE
8
FRONT
10
0.342380
20
0.690269
30
0.0
11
0.342380
21
0.854332
31
0.0
0
LINE
8
FRONT
10
0.000000
20
0.690269
30
0.0
11
0.342380
21
0.690269
31
0.0
0
LINE
8
FRONT
10
0.342380
20
0.854332
30
0.0
11
0.989912
21
0.854332
31
0.0
0
LINE
8
FRONT
10
0.989912
20
0.690269
30
0.0
11
0.989912
21
0.854332
31
0.0
0
LINE
8
FRONT
10
0.342380
20
0.690269
30
0.0
11
0.989912
21
0.690269
31
0.0
0
LINE
8
FRONT
10
0.989912
20
0.854332
30
0.0
11
1.332292
21
0.854332
31
0.0
0
LINE
8
FRONT
10
0.989912
20
0.690269
30
0.0
11
1.332292
21
0.690269
31
0.0
0
LINE
8
FRONT
10
0.000000
20
0.854332
30
0.0
11
0.000000
21
0.690269
31
0.0
0
LINE
8
FRONT
10
1.332292
20
0.854332
30
0.0
11
1.332292
21
0.690269
31
0.0
0
LINE
8
FRONT_HID
6
HIDDEN
10
0.373712
20
0.690269
30
0.0
11
0.164830
21
0.690269
31
0.0
0
LINE
8
FRONT_HID
6
HIDDEN
10
0.164830
20
0.690269
30
0.0
11
0.373712
21
0.690269
31
0.0
0
LINE
8
FRONT_HID
6
HIDDEN
10
0.373712
20
0.690269
30
0.0
11
0.373712
21
0.854332
31
0.0
0
LINE
8
FRONT_HID
6
HIDDEN
10
0.373712
20
0.854332
30
0.0
11
0.164830
21
0.854332
31
0.0
0
LINE
8
FRONT_HID
6
HIDDEN
10
0.164830
20
0.854332
30
0.0
11
0.373712
21
0.854332
31
0.0
0
LINE
8
FRONT_HID
6
HIDDEN
10
1.167462
20
0.690269
30
0.0
11
0.958580
21
0.690269
31
0.0
0
LINE
8
FRONT_HID
6
HIDDEN
10
0.958580
20
0.690269
30
0.0
11
1.167462
21
0.690269
31
0.0
0
LINE
8
FRONT_HID
6
HIDDEN
10
1.167462
20
0.690269
30
0.0
11
1.167462
21
0.854332
31
0.0
0
LINE
8
FRONT_HID
6
HIDDEN
10
1.167462
20
0.854332
30
0.0
11
0.958580
21
0.854332
31
0.0
0
LINE
8
FRONT_HID
6
HIDDEN
10
0.958580
20
0.854332
30
0.0
11
1.167462
21
0.854332
31
0.0
0
LINE
8
FRONT_HID
6
HIDDEN
10
0.164830
20
0.854332
30
0.0
11
0.164830
21
0.690269
31
0.0
0
LINE
8
FRONT_HID
6
HIDDEN
10
0.958580
20
0.854332
30
0.0
11
0.958580
21
0.690269
31
0.0
0
LINE
8
LEFT
10
2.022689
20
0.854332
30
0.0
11
1.598750
21
0.854332
31
0.0
0
LINE
8
LEFT
10
2.022689
20
0.690269
30
0.0
11
1.598750
21
0.690269
31
0.0
0
LINE
8
LEFT
10
1.598750
20
0.854332
30
0.0
11
1.598750
21
0.690269
31
0.0
0
LINE
8
LEFT
10
2.022689
20
0.854332
30
0.0
11
2.022689
21
0.690269
31
0.0
0
LINE
8
LEFT_HID
6
HIDDEN
10
1.977825
20
0.690269
30
0.0
11
1.977825
21
0.854332
31
0.0
0
LINE
8
LEFT_HID
6
HIDDEN
10
1.977825
20
0.854332
30
0.0
11
2.022689
21
0.854332
31
0.0
0
LINE
8
LEFT_HID
6
HIDDEN
10
1.598750
20
0.854332
30
0.0
11
1.643614
21
0.854332
31
0.0
0
LINE
8
LEFT_HID
6
HIDDEN
10
1.643614
20
0.690269
30
0.0
11
1.643614
21
0.854332
31
0.0
0
LINE
8
LEFT_HID
6
HIDDEN
10
1.977825
20
0.690269
30
0.0
11
2.022689
21
0.690269
31
0.0
0
LINE
8
LEFT_HID
6
HIDDEN
10
1.598750
20
0.690269
30
0.0
11
1.643614
21
0.690269
31
0.0
0
LINE
8
LEFT_HID
6
HIDDEN
10
1.643614
20
0.690269
30
0.0
11
1.643614
21
0.854332
31
0.0
0
LINE
8
LEFT_HID
6
HIDDEN
10
1.643614
20
0.854332
30
0.0
11
1.598750
21
0.854332
31
0.0
0
LINE
8
LEFT_HID
6
HIDDEN
10
2.022689
20
0.854332
30
0.0
11
1.977825
21
0.854332
31
0.0
0
LINE
8
LEFT_HID
6
HIDDEN
10
1.977825
20
0.690269
30
0.0
11
1.977825
21
0.854332
31
0.0
0
LINE
8
LEFT_HID
6
HIDDEN
10
1.643614
20
0.690269
30
0.0
11
1.598750
21
0.690269
31
0.0
0
LINE
8
LEFT_HID
6
HIDDEN
10
2.022689
20
0.690269
30
0.0
11
1.977825
21
0.690269
31
0.0
0
LINE
8
LEFT_HID
6
HIDDEN
10
1.810720
20
0.690269
30
0.0
11
1.706279
21
0.690269
31
0.0
0
LINE
8
LEFT_HID
6
HIDDEN
10
1.706279
20
0.690269
30
0.0
11
1.915161
21
0.690269
31
0.0
0
LINE
8
LEFT_HID
6
HIDDEN
10
1.915161
20
0.690269
30
0.0
11
1.810720
21
0.690269
31
0.0
0
LINE
8
LEFT_HID
6
HIDDEN
10
1.810720
20
0.854332
30
0.0
11
1.706279
21
0.854332
31
0.0
0
LINE
8
LEFT_HID
6
HIDDEN
10
1.706279
20
0.854332
30
0.0
11
1.915161
21
0.854332
31
0.0
0
LINE
8
LEFT_HID
6
HIDDEN
10
1.915161
20
0.854332
30
0.0
11
1.810720
21
0.854332
31
0.0
0
LINE
8
LEFT_HID
6
HIDDEN
10
1.810720
20
0.690269
30
0.0
11
1.706279
21
0.690269
31
0.0
0
LINE
8
LEFT_HID
6
HIDDEN
10
1.706279
20
0.690269
30
0.0
11
1.915161
21
0.690269
31
0.0
0
LINE
8
LEFT_HID
6
HIDDEN
10
1.915161
20
0.690269
30
0.0
11
1.810720
21
0.690269
31
0.0
0
LINE
8
LEFT_HID
6
HIDDEN
10
1.810720
20
0.854332
30
0.0
11
1.706279
21
0.854332
31
0.0
0
LINE
8
LEFT_HID
6
HIDDEN
10
1.706279
20
0.854332
30
0.0
11
1.915161
21
0.854332
31
0.0
0
LINE
8
LEFT_HID
6
HIDDEN
10
1.915161
20
0.854332
30
0.0
11
1.810720
21
0.854332
31
0.0
0
LINE
8
LEFT_HID
6
HIDDEN
10
1.706279
20
0.854332
30
0.0
11
1.706279
21
0.690269
31
0.0
0
LINE
8
LEFT_HID
6
HIDDEN
10
1.915161
20
0.854332
30
0.0
11
1.915161
21
0.690269
31
0.0
0
LINE
8
LEFT_HID
6
HIDDEN
10
1.706279
20
0.854332
30
0.0
11
1.706279
21
0.690269
31
0.0
0
LINE
8
LEFT_HID
6
HIDDEN
10
1.915161
20
0.854332
30
0.0
11
1.915161
21
0.690269
31
0.0
0
LINE
8
TOP
10
0.342246
20
0.044800
30
0.0
11
0.330080
21
0.035981
31
0.0
0
LINE
8
TOP
10
0.330080
20
0.035981
30
0.0
11
0.317320
21
0.028046
31
0.0
0
LINE
8
TOP
10
0.317320
20
0.028046
30
0.0
11
0.304029
21
0.021035
31
0.0
0
LINE
8
TOP
10
0.304029
20
0.021035
30
0.0
11
0.290276
21
0.014984
31
0.0
0
LINE
8
TOP
10
0.290276
20
0.014984
30
0.0
11
0.276128
21
0.009921
31
0.0
0
LINE
8
TOP
10
0.276128
20
0.009921
30
0.0
11
0.261657
21
0.005874
31
0.0
0
LINE
8
TOP
10
0.261657
20
0.005874
30
0.0
11
0.246935
21
0.002862
31
0.0
0
LINE
8
TOP
10
0.246935
20
0.002862
30
0.0
11
0.232037
21
0.000901
31
0.0
0
LINE
8
TOP
10
0.232037
20
0.000901
30
0.0
11
0.217038
21
0.000000
31
0.0
0
LINE
8
TOP
10
0.217038
20
0.000000
30
0.0
11
0.202013
21
0.000164
31
0.0
0
LINE
8
TOP
10
0.202013
20
0.000164
30
0.0
11
0.187037
21
0.001392
31
0.0
0
LINE
8
TOP
10
0.187037
20
0.001392
30
0.0
11
0.172185
21
0.003678
31
0.0
0
LINE
8
TOP
10
0.172185
20
0.003678
30
0.0
11
0.157533
21
0.007010
31
0.0
0
LINE
8
TOP
10
0.157533
20
0.007010
30
0.0
11
0.143154
21
0.011372
31
0.0
0
LINE
8
TOP
10
0.143154
20
0.011372
30
0.0
11
0.129120
21
0.016742
31
0.0
0
LINE
8
TOP
10
0.129120
20
0.016742
30
0.0
11
0.115501
21
0.023092
31
0.0
0
LINE
8
TOP
10
0.115501
20
0.023092
30
0.0
11
0.102367
21
0.030391
31
0.0
0
LINE
8
TOP
10
0.102367
20
0.030391
30
0.0
11
0.089782
21
0.038603
31
0.0
0
LINE
8
TOP
10
0.089782
20
0.038603
30
0.0
11
0.077812
21
0.047685
31
0.0
0
LINE
8
TOP
10
0.077812
20
0.047685
30
0.0
11
0.066514
21
0.057592
31
0.0
0
LINE
8
TOP
10
0.066514
20
0.057592
30
0.0
11
0.055947
21
0.068275
31
0.0
0
LINE
8
TOP
10
0.055947
20
0.068275
30
0.0
11
0.046163
21
0.079680
31
0.0
0
LINE
8
TOP
10
0.046163
20
0.079680
30
0.0
11
0.037212
21
0.091749
31
0.0
0
LINE
8
TOP
10
0.037212
20
0.091749
30
0.0
11
0.029139
21
0.104423
31
0.0
0
LINE
8
TOP
10
0.029139
20
0.104423
30
0.0
11
0.021983
21
0.117636
31
0.0
0
LINE
8
TOP
10
0.021983
20
0.117636
30
0.0
11
0.015782
21
0.131323
31
0.0
0
LINE
8
TOP
10
0.015782
20
0.131323
30
0.0
11
0.010565
21
0.145415
31
0.0
0
LINE
8
TOP
10
0.010565
20
0.145415
30
0.0
11
0.006360
21
0.159841
31
0.0
0
LINE
8
TOP
10
0.006360
20
0.159841
30
0.0
11
0.003188
21
0.174528
31
0.0
0
LINE
8
TOP
10
0.003188
20
0.174528
30
0.0
11
0.001065
21
0.189404
31
0.0
0
LINE
8
TOP
10
0.001065
20
0.189404
30
0.0
11
0.000000
21
0.204392
31
0.0
0
LINE
8
TOP
10
0.000000
20
0.204392
30
0.0
11
0.000000
21
0.219419
31
0.0
0
LINE
8
TOP
10
0.000000
20
0.219419
30
0.0
11
0.001065
21
0.234407
31
0.0
0
LINE
8
TOP
10
0.001065
20
0.234407
30
0.0
11
0.003188
21
0.249283
31
0.0
0
LINE
8
TOP
10
0.003188
20
0.249283
30
0.0
11
0.006360
21
0.263970
31
0.0
0
LINE
8
TOP
10
0.006360
20
0.263970
30
0.0
11
0.010565
21
0.278396
31
0.0
0
LINE
8
TOP
10
0.010565
20
0.278396
30
0.0
11
0.015782
21
0.292488
31
0.0
0
LINE
8
TOP
10
0.015782
20
0.292488
30
0.0
11
0.021983
21
0.306175
31
0.0
0
LINE
8
TOP
10
0.021983
20
0.306175
30
0.0
11
0.029139
21
0.319388
31
0.0
0
LINE
8
TOP
10
0.029139
20
0.319388
30
0.0
11
0.037212
21
0.332061
31
0.0
0
LINE
8
TOP
10
0.037212
20
0.332061
30
0.0
11
0.046163
21
0.344131
31
0.0
0
LINE
8
TOP
10
0.046163
20
0.344131
30
0.0
11
0.055947
21
0.355536
31
0.0
0
LINE
8
TOP
10
0.055947
20
0.355536
30
0.0
11
0.066514
21
0.366219
31
0.0
0
LINE
8
TOP
10
0.066514
20
0.366219
30
0.0
11
0.077812
21
0.376126
31
0.0
0
LINE
8
TOP
10
0.077812
20
0.376126
30
0.0
11
0.089782
21
0.385208
31
0.0
0
LINE
8
TOP
10
0.089782
20
0.385208
30
0.0
11
0.102367
21
0.393420
31
0.0
0
LINE
8
TOP
10
0.102367
20
0.393420
30
0.0
11
0.115501
21
0.400719
31
0.0
0
LINE
8
TOP
10
0.115501
20
0.400719
30
0.0
11
0.129120
21
0.407069
31
0.0
0
LINE
8
TOP
10
0.129120
20
0.407069
30
0.0
11
0.143154
21
0.412439
31
0.0
0
LINE
8
TOP
10
0.143154
20
0.412439
30
0.0
11
0.157533
21
0.416801
31
0.0
0
LINE
8
TOP
10
0.157533
20
0.416801
30
0.0
11
0.172185
21
0.420133
31
0.0
0
LINE
8
TOP
10
0.172185
20
0.420133
30
0.0
11
0.187037
21
0.422419
31
0.0
0
LINE
8
TOP
10
0.187037
20
0.422419
30
0.0
11
0.202013
21
0.423647
31
0.0
0
LINE
8
TOP
10
0.202013
20
0.423647
30
0.0
11
0.217038
21
0.423811
31
0.0
0
LINE
8
TOP
10
0.217038
20
0.423811
30
0.0
11
0.232037
21
0.422910
31
0.0
0
LINE
8
TOP
10
0.232037
20
0.422910
30
0.0
11
0.246935
21
0.420949
31
0.0
0
LINE
8
TOP
10
0.246935
20
0.420949
30
0.0
11
0.261657
21
0.417937
31
0.0
0
LINE
8
TOP
10
0.261657
20
0.417937
30
0.0
11
0.276128
21
0.413890
31
0.0
0
LINE
8
TOP
10
0.276128
20
0.413890
30
0.0
11
0.290276
21
0.408827
31
0.0
0
LINE
8
TOP
10
0.290276
20
0.408827
30
0.0
11
0.304029
21
0.402776
31
0.0
0
LINE
8
TOP
10
0.304029
20
0.402776
30
0.0
11
0.317320
21
0.395765
31
0.0
0
LINE
8
TOP
10
0.317320
20
0.395765
30
0.0
11
0.330080
21
0.387830
31
0.0
0
LINE
8
TOP
10
0.330080
20
0.387830
30
0.0
11
0.342246
21
0.379011
31
0.0
0
LINE
8
TOP
10
0.342246
20
0.379011
30
0.0
11
0.989779
21
0.379011
31
0.0
0
LINE
8
TOP
10
0.989779
20
0.379011
30
0.0
11
1.001945
21
0.387830
31
0.0
0
LINE
8
TOP
10
1.001945
20
0.387830
30
0.0
11
1.014706
21
0.395765
31
0.0
0
LINE
8
TOP
10
1.014706
20
0.395765
30
0.0
11
1.027996
21
0.402776
31
0.0
0
LINE
8
TOP
10
1.027996
20
0.402776
30
0.0
11
1.041750
21
0.408827
31
0.0
0
LINE
8
TOP
10
1.041750
20
0.408827
30
0.0
11
1.055898
21
0.413890
31
0.0
0
LINE
8
TOP
10
1.055898
20
0.413890
30
0.0
11
1.070369
21
0.417937
31
0.0
0
LINE
8
TOP
10
1.070369
20
0.417937
30
0.0
11
1.085090
21
0.420949
31
0.0
0
LINE
8
TOP
10
1.085090
20
0.420949
30
0.0
11
1.099988
21
0.422910
31
0.0
0
LINE
8
TOP
10
1.099988
20
0.422910
30
0.0
11
1.114987
21
0.423811
31
0.0
0
LINE
8
TOP
10
1.114987
20
0.423811
30
0.0
11
1.130013
21
0.423647
31
0.0
0
LINE
8
TOP
10
1.130013
20
0.423647
30
0.0
11
1.144989
21
0.422419
31
0.0
0
LINE
8
TOP
10
1.144989
20
0.422419
30
0.0
11
1.159840
21
0.420133
31
0.0
0
LINE
8
TOP
10
1.159840
20
0.420133
30
0.0
11
1.174493
21
0.416801
31
0.0
0
LINE
8
TOP
10
1.174493
20
0.416801
30
0.0
11
1.188872
21
0.412439
31
0.0
0
LINE
8
TOP
10
1.188872
20
0.412439
30
0.0
11
1.202906
21
0.407069
31
0.0
0
LINE
8
TOP
10
1.202906
20
0.407069
30
0.0
11
1.216525
21
0.400719
31
0.0
0
LINE
8
TOP
10
1.216525
20
0.400719
30
0.0
11
1.229659
21
0.393420
31
0.0
0
LINE
8
TOP
10
1.229659
20
0.393420
30
0.0
11
1.242243
21
0.385208
31
0.0
0
LINE
8
TOP
10
1.242243
20
0.385208
30
0.0
11
1.254214
21
0.376126
31
0.0
0
LINE
8
TOP
10
1.254214
20
0.376126
30
0.0
11
1.265511
21
0.366219
31
0.0
0
LINE
8
TOP
10
1.265511
20
0.366219
30
0.0
11
1.276079
21
0.355536
31
0.0
0
LINE
8
TOP
10
1.276079
20
0.355536
30
0.0
11
1.285862
21
0.344131
31
0.0
0
LINE
8
TOP
10
1.285862
20
0.344131
30
0.0
11
1.294813
21
0.332061
31
0.0
0
LINE
8
TOP
10
1.294813
20
0.332061
30
0.0
11
1.302887
21
0.319388
31
0.0
0
LINE
8
TOP
10
1.302887
20
0.319388
30
0.0
11
1.310043
21
0.306175
31
0.0
0
LINE
8
TOP
10
1.310043
20
0.306175
30
0.0
11
1.316244
21
0.292488
31
0.0
0
LINE
8
TOP
10
1.316244
20
0.292488
30
0.0
11
1.321460
21
0.278396
31
0.0
0
LINE
8
TOP
10
1.321460
20
0.278396
30
0.0
11
1.325665
21
0.263970
31
0.0
0
LINE
8
TOP
10
1.325665
20
0.263970
30
0.0
11
1.328837
21
0.249283
31
0.0
0
LINE
8
TOP
10
1.328837
20
0.249283
30
0.0
11
1.330961
21
0.234407
31
0.0
0
LINE
8
TOP
10
1.330961
20
0.234407
30
0.0
11
1.332026
21
0.219419
31
0.0
0
LINE
8
TOP
10
1.332026
20
0.219419
30
0.0
11
1.332026
21
0.204392
31
0.0
0
LINE
8
TOP
10
1.332026
20
0.204392
30
0.0
11
1.330961
21
0.189404
31
0.0
0
LINE
8
TOP
10
1.330961
20
0.189404
30
0.0
11
1.328837
21
0.174528
31
0.0
0
LINE
8
TOP
10
1.328837
20
0.174528
30
0.0
11
1.325665
21
0.159841
31
0.0
0
LINE
8
TOP
10
1.325665
20
0.159841
30
0.0
11
1.321460
21
0.145415
31
0.0
0
LINE
8
TOP
10
1.321460
20
0.145415
30
0.0
11
1.316244
21
0.131323
31
0.0
0
LINE
8
TOP
10
1.316244
20
0.131323
30
0.0
11
1.310043
21
0.117636
31
0.0
0
LINE
8
TOP
10
1.310043
20
0.117636
30
0.0
11
1.302887
21
0.104423
31
0.0
0
LINE
8
TOP
10
1.302887
20
0.104423
30
0.0
11
1.294813
21
0.091749
31
0.0
0
LINE
8
TOP
10
1.294813
20
0.091749
30
0.0
11
1.285862
21
0.079680
31
0.0
0
LINE
8
TOP
10
1.285862
20
0.079680
30
0.0
11
1.276079
21
0.068275
31
0.0
0
LINE
8
TOP
10
1.276079
20
0.068275
30
0.0
11
1.265511
21
0.057592
31
0.0
0
LINE
8
TOP
10
1.265511
20
0.057592
30
0.0
11
1.254214
21
0.047685
31
0.0
0
LINE
8
TOP
10
1.254214
20
0.047685
30
0.0
11
1.242243
21
0.038603
31
0.0
0
LINE
8
TOP
10
1.242243
20
0.038603
30
0.0
11
1.229659
21
0.030391
31
0.0
0
LINE
8
TOP
10
1.229659
20
0.030391
30
0.0
11
1.216525
21
0.023092
31
0.0
0
LINE
8
TOP
10
1.216525
20
0.023092
30
0.0
11
1.202906
21
0.016742
31
0.0
0
LINE
8
TOP
10
1.202906
20
0.016742
30
0.0
11
1.188872
21
0.011372
31
0.0
0
LINE
8
TOP
10
1.188872
20
0.011372
30
0.0
11
1.174493
21
0.007010
31
0.0
0
LINE
8
TOP
10
1.174493
20
0.007010
30
0.0
11
1.159840
21
0.003678
31
0.0
0
LINE
8
TOP
10
1.159840
20
0.003678
30
0.0
11
1.144989
21
0.001392
31
0.0
0
LINE
8
TOP
10
1.144989
20
0.001392
30
0.0
11
1.130013
21
0.000164
31
0.0
0
LINE
8
TOP
10
1.130013
20
0.000164
30
0.0
11
1.114987
21
0.000000
31
0.0
0
LINE
8
TOP
10
1.114987
20
0.000000
30
0.0
11
1.099988
21
0.000901
31
0.0
0
LINE
8
TOP
10
1.099988
20
0.000901
30
0.0
11
1.085090
21
0.002862
31
0.0
0
LINE
8
TOP
10
1.085090
20
0.002862
30
0.0
11
1.070369
21
0.005874
31
0.0
0
LINE
8
TOP
10
1.070369
20
0.005874
30
0.0
11
1.055898
21
0.009921
31
0.0
0
LINE
8
TOP
10
1.055898
20
0.009921
30
0.0
11
1.041750
21
0.014984
31
0.0
0
LINE
8
TOP
10
1.041750
20
0.014984
30
0.0
11
1.027996
21
0.021035
31
0.0
0
LINE
8
TOP
10
1.027996
20
0.021035
30
0.0
11
1.014706
21
0.028046
31
0.0
0
LINE
8
TOP
10
1.014706
20
0.028046
30
0.0
11
1.001945
21
0.035981
31
0.0
0
LINE
8
TOP
10
1.001945
20
0.035981
30
0.0
11
0.989779
21
0.044800
31
0.0
0
LINE
8
TOP
10
0.989779
20
0.044800
30
0.0
11
0.342246
21
0.044800
31
0.0
0
LINE
8
TOP
10
0.373579
20
0.211905
30
0.0
11
0.373060
21
0.222304
31
0.0
0
LINE
8
TOP
10
0.373060
20
0.222304
30
0.0
11
0.371508
21
0.232600
31
0.0
0
LINE
8
TOP
10
0.371508
20
0.232600
30
0.0
11
0.368939
21
0.242690
31
0.0
0
LINE
8
TOP
10
0.368939
20
0.242690
30
0.0
11
0.365378
21
0.252474
31
0.0
0
LINE
8
TOP
10
0.365378
20
0.252474
30
0.0
11
0.360860
21
0.261855
31
0.0
0
LINE
8
TOP
10
0.360860
20
0.261855
30
0.0
11
0.355431
21
0.270739
31
0.0
0
LINE
8
TOP
10
0.355431
20
0.270739
30
0.0
11
0.349144
21
0.279039
31
0.0
0
LINE
8
TOP
10
0.349144
20
0.279039
30
0.0
11
0.342062
21
0.286671
31
0.0
0
LINE
8
TOP
10
0.342062
20
0.286671
30
0.0
11
0.334256
21
0.293561
31
0.0
0
LINE
8
TOP
10
0.334256
20
0.293561
30
0.0
11
0.325802
21
0.299638
31
0.0
0
LINE
8
TOP
10
0.325802
20
0.299638
30
0.0
11
0.316785
21
0.304844
31
0.0
0
LINE
8
TOP
10
0.316785
20
0.304844
30
0.0
11
0.307294
21
0.309127
31
0.0
0
LINE
8
TOP
10
0.307294
20
0.309127
30
0.0
11
0.297425
21
0.312443
31
0.0
0
LINE
8
TOP
10
0.297425
20
0.312443
30
0.0
11
0.287274
21
0.314760
31
0.0
0
LINE
8
TOP
10
0.287274
20
0.314760
30
0.0
11
0.276943
21
0.316054
31
0.0
0
LINE
8
TOP
10
0.276943
20
0.316054
30
0.0
11
0.266534
21
0.316314
31
0.0
0
LINE
8
TOP
10
0.266534
20
0.316314
30
0.0
11
0.256151
21
0.315536
31
0.0
0
LINE
8
TOP
10
0.256151
20
0.315536
30
0.0
11
0.245898
21
0.313728
31
0.0
0
LINE
8
TOP
10
0.245898
20
0.313728
30
0.0
11
0.235875
21
0.310908
31
0.0
0
LINE
8
TOP
10
0.235875
20
0.310908
30
0.0
11
0.226183
21
0.307104
31
0.0
0
LINE
8
TOP
10
0.226183
20
0.307104
30
0.0
11
0.216917
21
0.302354
31
0.0
0
LINE
8
TOP
10
0.216917
20
0.302354
30
0.0
11
0.208171
21
0.296705
31
0.0
0
LINE
8
TOP
10
0.208171
20
0.296705
30
0.0
11
0.200031
21
0.290213
31
0.0
0
LINE
8
TOP
10
0.200031
20
0.290213
30
0.0
11
0.192577
21
0.282943
31
0.0
0
LINE
8
TOP
10
0.192577
20
0.282943
30
0.0
11
0.185885
21
0.274967
31
0.0
0
LINE
8
TOP
10
0.185885
20
0.274967
30
0.0
11
0.180019
21
0.266365
31
0.0
0
LINE
8
TOP
10
0.180019
20
0.266365
30
0.0
11
0.175040
21
0.257221
31
0.0
0
LINE
8
TOP
10
0.175040
20
0.257221
30
0.0
11
0.170996
21
0.247626
31
0.0
0
LINE
8
TOP
10
0.170996
20
0.247626
30
0.0
11
0.167927
21
0.237677
31
0.0
0
LINE
8
TOP
10
0.167927
20
0.237677
30
0.0
11
0.165864
21
0.227472
31
0.0
0
LINE
8
TOP
10
0.165864
20
0.227472
30
0.0
11
0.164827
21
0.217111
31
0.0
0
LINE
8
TOP
10
0.164827
20
0.217111
30
0.0
11
0.164827
21
0.206700
31
0.0
0
LINE
8
TOP
10
0.164827
20
0.206700
30
0.0
11
0.165864
21
0.196339
31
0.0
0
LINE
8
TOP
10
0.165864
20
0.196339
30
0.0
11
0.167927
21
0.186134
31
0.0
0
LINE
8
TOP
10
0.167927
20
0.186134
30
0.0
11
0.170996
21
0.176185
31
0.0
0
LINE
8
TOP
10
0.170996
20
0.176185
30
0.0
11
0.175040
21
0.166590
31
0.0
0
LINE
8
TOP
10
0.175040
20
0.166590
30
0.0
11
0.180019
21
0.157446
31
0.0
0
LINE
8
TOP
10
0.180019
20
0.157446
30
0.0
11
0.185885
21
0.148844
31
0.0
0
LINE
8
TOP
10
0.185885
20
0.148844
30
0.0
11
0.192577
21
0.140868
31
0.0
0
LINE
8
TOP
10
0.192577
20
0.140868
30
0.0
11
0.200031
21
0.133598
31
0.0
0
LINE
8
TOP
10
0.200031
20
0.133598
30
0.0
11
0.208171
21
0.127106
31
0.0
0
LINE
8
TOP
10
0.208171
20
0.127106
30
0.0
11
0.216917
21
0.121457
31
0.0
0
LINE
8
TOP
10
0.216917
20
0.121457
30
0.0
11
0.226183
21
0.116707
31
0.0
0
LINE
8
TOP
10
0.226183
20
0.116707
30
0.0
11
0.235875
21
0.112903
31
0.0
0
LINE
8
TOP
10
0.235875
20
0.112903
30
0.0
11
0.245898
21
0.110083
31
0.0
0
LINE
8
TOP
10
0.245898
20
0.110083
30
0.0
11
0.256151
21
0.108275
31
0.0
0
LINE
8
TOP
10
0.256151
20
0.108275
30
0.0
11
0.266534
21
0.107497
31
0.0
0
LINE
8
TOP
10
0.266534
20
0.107497
30
0.0
11
0.276943
21
0.107757
31
0.0
0
LINE
8
TOP
10
0.276943
20
0.107757
30
0.0
11
0.287274
21
0.109051
31
0.0
0
LINE
8
TOP
10
0.287274
20
0.109051
30
0.0
11
0.297425
21
0.111368
31
0.0
0
LINE
8
TOP
10
0.297425
20
0.111368
30
0.0
11
0.307294
21
0.114684
31
0.0
0
LINE
8
TOP
10
0.307294
20
0.114684
30
0.0
11
0.316785
21
0.118967
31
0.0
0
LINE
8
TOP
10
0.316785
20
0.118967
30
0.0
11
0.325802
21
0.124173
31
0.0
0
LINE
8
TOP
10
0.325802
20
0.124173
30
0.0
11
0.334256
21
0.130250
31
0.0
0
LINE
8
TOP
10
0.334256
20
0.130250
30
0.0
11
0.342062
21
0.137140
31
0.0
0
LINE
8
TOP
10
0.342062
20
0.137140
30
0.0
11
0.349144
21
0.144772
31
0.0
0
LINE
8
TOP
10
0.349144
20
0.144772
30
0.0
11
0.355431
21
0.153072
31
0.0
0
LINE
8
TOP
10
0.355431
20
0.153072
30
0.0
11
0.360860
21
0.161956
31
0.0
0
LINE
8
TOP
10
0.360860
20
0.161956
30
0.0
11
0.365378
21
0.171337
31
0.0
0
LINE
8
TOP
10
0.365378
20
0.171337
30
0.0
11
0.368939
21
0.181121
31
0.0
0
LINE
8
TOP
10
0.368939
20
0.181121
30
0.0
11
0.371508
21
0.191211
31
0.0
0
LINE
8
TOP
10
0.371508
20
0.191211
30
0.0
11
0.373060
21
0.201507
31
0.0
0
LINE
8
TOP
10
0.373060
20
0.201507
30
0.0
11
0.373579
21
0.211905
31
0.0
0
LINE
8
TOP
10
1.167329
20
0.211905
30
0.0
11
1.166810
21
0.222304
31
0.0
0
LINE
8
TOP
10
1.166810
20
0.222304
30
0.0
11
1.165258
21
0.232600
31
0.0
0
LINE
8
TOP
10
1.165258
20
0.232600
30
0.0
11
1.162689
21
0.242690
31
0.0
0
LINE
8
TOP
10
1.162689
20
0.242690
30
0.0
11
1.159128
21
0.252474
31
0.0
0
LINE
8
TOP
10
1.159128
20
0.252474
30
0.0
11
1.154610
21
0.261855
31
0.0
0
LINE
8
TOP
10
1.154610
20
0.261855
30
0.0
11
1.149181
21
0.270739
31
0.0
0
LINE
8
TOP
10
1.149181
20
0.270739
30
0.0
11
1.142894
21
0.279039
31
0.0
0
LINE
8
TOP
10
1.142894
20
0.279039
30
0.0
11
1.135812
21
0.286671
31
0.0
0
LINE
8
TOP
10
1.135812
20
0.286671
30
0.0
11
1.128006
21
0.293561
31
0.0
0
LINE
8
TOP
10
1.128006
20
0.293561
30
0.0
11
1.119552
21
0.299638
31
0.0
0
LINE
8
TOP
10
1.119552
20
0.299638
30
0.0
11
1.110535
21
0.304844
31
0.0
0
LINE
8
TOP
10
1.110535
20
0.304844
30
0.0
11
1.101044
21
0.309127
31
0.0
0
LINE
8
TOP
10
1.101044
20
0.309127
30
0.0
11
1.091175
21
0.312443
31
0.0
0
LINE
8
TOP
10
1.091175
20
0.312443
30
0.0
11
1.081024
21
0.314760
31
0.0
0
LINE
8
TOP
10
1.081024
20
0.314760
30
0.0
11
1.070693
21
0.316054
31
0.0
0
LINE
8
TOP
10
1.070693
20
0.316054
30
0.0
11
1.060284
21
0.316314
31
0.0
0
LINE
8
TOP
10
1.060284
20
0.316314
30
0.0
11
1.049901
21
0.315536
31
0.0
0
LINE
8
TOP
10
1.049901
20
0.315536
30
0.0
11
1.039648
21
0.313728
31
0.0
0
LINE
8
TOP
10
1.039648
20
0.313728
30
0.0
11
1.029625
21
0.310908
31
0.0
0
LINE
8
TOP
10
1.029625
20
0.310908
30
0.0
11
1.019933
21
0.307104
31
0.0
0
LINE
8
TOP
10
1.019933
20
0.307104
30
0.0
11
1.010667
21
0.302354
31
0.0
0
LINE
8
TOP
10
1.010667
20
0.302354
30
0.0
11
1.001921
21
0.296705
31
0.0
0
LINE
8
TOP
10
1.001921
20
0.296705
30
0.0
11
0.993781
21
0.290213
31
0.0
0
LINE
8
TOP
10
0.993781
20
0.290213
30
0.0
11
0.986327
21
0.282943
31
0.0
0
LINE
8
TOP
10
0.986327
20
0.282943
30
0.0
11
0.979635
21
0.274967
31
0.0
0
LINE
8
TOP
10
0.979635
20
0.274967
30
0.0
11
0.973769
21
0.266365
31
0.0
0
LINE
8
TOP
10
0.973769
20
0.266365
30
0.0
11
0.968790
21
0.257221
31
0.0
0
LINE
8
TOP
10
0.968790
20
0.257221
30
0.0
11
0.964746
21
0.247626
31
0.0
0
LINE
8
TOP
10
0.964746
20
0.247626
30
0.0
11
0.961677
21
0.237677
31
0.0
0
LINE
8
TOP
10
0.961677
20
0.237677
30
0.0
11
0.959614
21
0.227472
31
0.0
0
LINE
8
TOP
10
0.959614
20
0.227472
30
0.0
11
0.958577
21
0.217111
31
0.0
0
LINE
8
TOP
10
0.958577
20
0.217111
30
0.0
11
0.958577
21
0.206700
31
0.0
0
LINE
8
TOP
10
0.958577
20
0.206700
30
0.0
11
0.959614
21
0.196339
31
0.0
0
LINE
8
TOP
10
0.959614
20
0.196339
30
0.0
11
0.961677
21
0.186134
31
0.0
0
LINE
8
TOP
10
0.961677
20
0.186134
30
0.0
11
0.964746
21
0.176185
31
0.0
0
LINE
8
TOP
10
0.964746
20
0.176185
30
0.0
11
0.968790
21
0.166590
31
0.0
0
LINE
8
TOP
10
0.968790
20
0.166590
30
0.0
11
0.973769
21
0.157446
31
0.0
0
LINE
8
TOP
10
0.973769
20
0.157446
30
0.0
11
0.979635
21
0.148844
31
0.0
0
LINE
8
TOP
10
0.979635
20
0.148844
30
0.0
11
0.986327
21
0.140868
31
0.0
0
LINE
8
TOP
10
0.986327
20
0.140868
30
0.0
11
0.993781
21
0.133598
31
0.0
0
LINE
8
TOP
10
0.993781
20
0.133598
30
0.0
11
1.001921
21
0.127106
31
0.0
0
LINE
8
TOP
10
1.001921
20
0.127106
30
0.0
11
1.010667
21
0.121457
31
0.0
0
LINE
8
TOP
10
1.010667
20
0.121457
30
0.0
11
1.019933
21
0.116707
31
0.0
0
LINE
8
TOP
10
1.019933
20
0.116707
30
0.0
11
1.029625
21
0.112903
31
0.0
0
LINE
8
TOP
10
1.029625
20
0.112903
30
0.0
11
1.039648
21
0.110083
31
0.0
0
LINE
8
TOP
10
1.039648
20
0.110083
30
0.0
11
1.049901
21
0.108275
31
0.0
0
LINE
8
TOP
10
1.049901
20
0.108275
30
0.0
11
1.060284
21
0.107497
31
0.0
0
LINE
8
TOP
10
1.060284
20
0.107497
30
0.0
11
1.070693
21
0.107757
31
0.0
0
LINE
8
TOP
10
1.070693
20
0.107757
30
0.0
11
1.081024
21
0.109051
31
0.0
0
LINE
8
TOP
10
1.081024
20
0.109051
30
0.0
11
1.091175
21
0.111368
31
0.0
0
LINE
8
TOP
10
1.091175
20
0.111368
30
0.0
11
1.101044
21
0.114684
31
0.0
0
LINE
8
TOP
10
1.101044
20
0.114684
30
0.0
11
1.110535
21
0.118967
31
0.0
0
LINE
8
TOP
10
1.110535
20
0.118967
30
0.0
11
1.119552
21
0.124173
31
0.0
0
LINE
8
TOP
10
1.119552
20
0.124173
30
0.0
11
1.128006
21
0.130250
31
0.0
0
LINE
8
TOP
10
1.128006
20
0.130250
30
0.0
11
1.135812
21
0.137140
31
0.0
0
LINE
8
TOP
10
1.135812
20
0.137140
30
0.0
11
1.142894
21
0.144772
31
0.0
0
LINE
8
TOP
10
1.142894
20
0.144772
30
0.0
11
1.149181
21
0.153072
31
0.0
0
LINE
8
TOP
10
1.149181
20
0.153072
30
0.0
11
1.154610
21
0.161956
31
0.0
0
LINE
8
TOP
10
1.154610
20
0.161956
30
0.0
11
1.159128
21
0.171337
31
0.0
0
LINE
8
TOP
10
1.159128
20
0.171337
30
0.0
11
1.162689
21
0.181121
31
0.0
0
LINE
8
TOP
10
1.162689
20
0.181121
30
0.0
11
1.165258
21
0.191211
31
0.0
0
LINE
8
TOP
10
1.165258
20
0.191211
30
0.0
11
1.166810
21
0.201507
31
0.0
0
LINE
8
TOP
10
1.166810
20
0.201507
30
0.0
11
1.167329
21
0.211905
31
0.0
0
ENDSEC
0
EOF
