0
SECTION
2
HEADER
9
$ACADVER
1
AC1009
0
ENDSEC
0
SECTION
2
TABLES
0
TABLE
2
LTYPE
70
3
0
LTYPE
2
CONTINUOUS
70
0
3
Solid line
72
65
73
0
40
0.0
0
LTYPE
2
HIDDEN
70
0
3
__ __ __ __ __
72
65
73
2
40
0.075000
49
0.050025
49
-0.024975
0
LTYPE
2
CENTER
70
0
3
___ _ ___ _ ___
72
65
73
4
40
0.174975
49
0.099975
49
-0.024975
49
0.024975
49
-0.024975
0
ENDTAB
0
TABLE
2
LAYER
70
7
0
LAYER
2
0
70
0
62
7
6
CONTINUOUS
0
LAYER
2
FRONT
70
0
62
7
6
CONTINUOUS
0
LAYER
2
FRONT_HID
70
0
62
7
6
HIDDEN
0
LAYER
2
LEFT
70
0
62
7
6
CONTINUOUS
0
LAYER
2
LEFT_HID
70
0
62
7
6
HIDDEN
0
LAYER
2
TOP
70
0
62
7
6
CONTINUOUS
0
LAYER
2
TOP_HID
70
0
62
7
6
HIDDEN
0
ENDTAB
0
ENDSEC
0
SECTION
2
ENTITIES
0
LINE
8
FRONT
10
0.000000
20
1.484211
30
0.0
11
0.000000
21
1.538898
31
0.0
0
LINE
8
FRONT
10
1.500000
20
1.484211
30
0.0
11
1.500000
21
1.538898
31
0.0
0
LINE
8
FRONT
10
1.500000
20
1.484211
30
0.0
11
0.000000
21
1.484211
31
0.0
0
LINE
8
FRONT
10
1.500000
20
1.538898
30
0.0
11
0.000000
21
1.538898
31
0.0
0
LINE
8
FRONT_HID
6
HIDDEN
10
0.205263
20
1.484211
30
0.0
11
0.173684
21
1.484211
31
0.0
0
LINE
8
FRONT_HID
6
HIDDEN
10
0.173684
20
1.484211
30
0.0
11
0.205263
21
1.484211
31
0.0
0
LINE
8
FRONT_HID
6
HIDDEN
10
0.284211
20
1.484211
30
0.0
11
1.215789
21
1.484211
31
0.0
0
LINE
8
FRONT_HID
6
HIDDEN
10
0.273438
20
1.484211
30
0.0
11
0.284211
21
1.484211
31
0.0
0
LINE
8
FRONT_HID
6
HIDDEN
10
1.218750
20
1.484211
30
0.0
11
0.273438
21
1.484211
31
0.0
0
LINE
8
FRONT_HID
6
HIDDEN
10
1.215789
20
1.484211
30
0.0
11
1.218750
21
1.484211
31
0.0
0
LINE
8
FRONT_HID
6
HIDDEN
10
1.326316
20
1.484211
30
0.0
11
1.294737
21
1.484211
31
0.0
0
LINE
8
FRONT_HID
6
HIDDEN
10
1.294737
20
1.484211
30
0.0
11
1.326316
21
1.484211
31
0.0
0
LINE
8
FRONT_HID
6
HIDDEN
10
0.205263
20
1.484211
30
0.0
11
0.173684
21
1.484211
31
0.0
0
LINE
8
FRONT_HID
6
HIDDEN
10
0.173684
20
1.484211
30
0.0
11
0.205263
21
1.484211
31
0.0
0
LINE
8
FRONT_HID
6
HIDDEN
10
1.326316
20
1.484211
30
0.0
11
1.294737
21
1.484211
31
0.0
0
LINE
8
FRONT_HID
6
HIDDEN
10
1.294737
20
1.484211
30
0.0
11
1.326316
21
1.484211
31
0.0
0
LINE
8
FRONT_HID
6
HIDDEN
10
0.205263
20
1.538898
30
0.0
11
0.173684
21
1.538898
31
0.0
0
LINE
8
FRONT_HID
6
HIDDEN
10
0.173684
20
1.538898
30
0.0
11
0.205263
21
1.538898
31
0.0
0
LINE
8
FRONT_HID
6
HIDDEN
10
0.284211
20
1.538898
30
0.0
11
1.215789
21
1.538898
31
0.0
0
LINE
8
FRONT_HID
6
HIDDEN
10
0.273438
20
1.538898
30
0.0
11
0.284211
21
1.538898
31
0.0
0
LINE
8
FRONT_HID
6
HIDDEN
10
1.218750
20
1.538898
30
0.0
11
0.273438
21
1.538898
31
0.0
0
LINE
8
FRONT_HID
6
HIDDEN
10
1.215789
20
1.538898
30
0.0
11
1.218750
21
1.538898
31
0.0
0
LINE
8
FRONT_HID
6
HIDDEN
10
1.326316
20
1.538898
30
0.0
11
1.294737
21
1.538898
31
0.0
0
LINE
8
FRONT_HID
6
HIDDEN
10
1.294737
20
1.538898
30
0.0
11
1.326316
21
1.538898
31
0.0
0
LINE
8
FRONT_HID
6
HIDDEN
10
0.205263
20
1.538898
30
0.0
11
0.173684
21
1.538898
31
0.0
0
LINE
8
FRONT_HID
6
HIDDEN
10
0.173684
20
1.538898
30
0.0
11
0.205263
21
1.538898
31
0.0
0
LINE
8
FRONT_HID
6
HIDDEN
10
1.326316
20
1.538898
30
0.0
11
1.294737
21
1.538898
31
0.0
0
LINE
8
FRONT_HID
6
HIDDEN
10
1.294737
20
1.538898
30
0.0
11
1.326316
21
1.538898
31
0.0
0
LINE
8
FRONT_HID
6
HIDDEN
10
0.205263
20
1.484211
30
0.0
11
0.205263
21
1.538898
31
0.0
0
LINE
8
FRONT_HID
6
HIDDEN
10
0.284211
20
1.484211
30
0.0
11
0.284211
21
1.538898
31
0.0
0
LINE
8
FRONT_HID
6
HIDDEN
10
1.215789
20
1.484211
30
0.0
11
1.215789
21
1.538898
31
0.0
0
LINE
8
FRONT_HID
6
HIDDEN
10
1.215789
20
1.538898
30
0.0
11
1.215789
21
1.515461
31
0.0
0
LINE
8
FRONT_HID
6
HIDDEN
10
1.215789
20
1.515461
30
0.0
11
1.215789
21
1.484211
31
0.0
0
LINE
8
FRONT_HID
6
HIDDEN
10
1.215789
20
1.515461
30
0.0
11
1.218750
21
1.515461
31
0.0
0
LINE
8
FRONT_HID
6
HIDDEN
10
1.218750
20
1.484211
30
0.0
11
1.218750
21
1.515461
31
0.0
0
LINE
8
FRONT_HID
6
HIDDEN
10
1.218750
20
1.484211
30
0.0
11
1.218750
21
1.515461
31
0.0
0
LINE
8
FRONT_HID
6
HIDDEN
10
1.218750
20
1.515461
30
0.0
11
0.273438
21
1.515461
31
0.0
0
LINE
8
FRONT_HID
6
HIDDEN
10
0.273438
20
1.484211
30
0.0
11
0.273438
21
1.515461
31
0.0
0
LINE
8
FRONT_HID
6
HIDDEN
10
0.273438
20
1.484211
30
0.0
11
0.273438
21
1.515461
31
0.0
0
LINE
8
FRONT_HID
6
HIDDEN
10
0.273438
20
1.515461
30
0.0
11
0.284211
21
1.515461
31
0.0
0
LINE
8
FRONT_HID
6
HIDDEN
10
0.284211
20
1.484211
30
0.0
11
0.284211
21
1.515461
31
0.0
0
LINE
8
FRONT_HID
6
HIDDEN
10
0.284211
20
1.515461
30
0.0
11
0.284211
21
1.538898
31
0.0
0
LINE
8
FRONT_HID
6
HIDDEN
10
1.326316
20
1.484211
30
0.0
11
1.326316
21
1.538898
31
0.0
0
LINE
8
FRONT_HID
6
HIDDEN
10
0.205263
20
1.484211
30
0.0
11
0.205263
21
1.538898
31
0.0
0
LINE
8
FRONT_HID
6
HIDDEN
10
1.326316
20
1.484211
30
0.0
11
1.326316
21
1.538898
31
0.0
0
LINE
8
FRONT_HID
6
HIDDEN
10
1.215789
20
1.538898
30
0.0
11
0.284211
21
1.538898
31
0.0
0
LINE
8
FRONT_HID
6
HIDDEN
10
0.284211
20
1.515461
30
0.0
11
1.215789
21
1.515461
31
0.0
0
LINE
8
FRONT_HID
6
HIDDEN
10
0.284211
20
1.538898
30
0.0
11
1.215789
21
1.538898
31
0.0
0
LINE
8
FRONT_HID
6
HIDDEN
10
0.402796
20
1.515461
30
0.0
11
0.323191
21
1.515461
31
0.0
0
LINE
8
FRONT_HID
6
HIDDEN
10
0.323191
20
1.515461
30
0.0
11
0.402796
21
1.515461
31
0.0
0
LINE
8
FRONT_HID
6
HIDDEN
10
0.402796
20
1.515461
30
0.0
11
0.323191
21
1.515461
31
0.0
0
LINE
8
FRONT_HID
6
HIDDEN
10
0.323191
20
1.515461
30
0.0
11
0.402796
21
1.515461
31
0.0
0
LINE
8
FRONT_HID
6
HIDDEN
10
0.770970
20
1.515461
30
0.0
11
0.731168
21
1.515461
31
0.0
0
LINE
8
FRONT_HID
6
HIDDEN
10
0.731168
20
1.515461
30
0.0
11
0.770970
21
1.515461
31
0.0
0
LINE
8
FRONT_HID
6
HIDDEN
10
1.168997
20
1.515461
30
0.0
11
1.089391
21
1.515461
31
0.0
0
LINE
8
FRONT_HID
6
HIDDEN
10
1.089391
20
1.515461
30
0.0
11
1.168997
21
1.515461
31
0.0
0
LINE
8
FRONT_HID
6
HIDDEN
10
1.168997
20
1.515461
30
0.0
11
1.089391
21
1.515461
31
0.0
0
LINE
8
FRONT_HID
6
HIDDEN
10
1.089391
20
1.515461
30
0.0
11
1.168997
21
1.515461
31
0.0
0
LINE
8
FRONT_HID
6
HIDDEN
10
0.402796
20
1.538898
30
0.0
11
0.323191
21
1.538898
31
0.0
0
LINE
8
FRONT_HID
6
HIDDEN
10
0.323191
20
1.538898
30
0.0
11
0.402796
21
1.538898
31
0.0
0
LINE
8
FRONT_HID
6
HIDDEN
10
1.168997
20
1.538898
30
0.0
11
1.089391
21
1.538898
31
0.0
0
LINE
8
FRONT_HID
6
HIDDEN
10
1.089391
20
1.538898
30
0.0
11
1.168997
21
1.538898
31
0.0
0
LINE
8
FRONT_HID
6
HIDDEN
10
0.402796
20
1.538898
30
0.0
11
0.323191
21
1.538898
31
0.0
0
LINE
8
FRONT_HID
6
HIDDEN
10
0.323191
20
1.538898
30
0.0
11
0.402796
21
1.538898
31
0.0
0
LINE
8
FRONT_HID
6
HIDDEN
10
0.770970
20
1.538898
30
0.0
11
0.731168
21
1.538898
31
0.0
0
LINE
8
FRONT_HID
6
HIDDEN
10
0.731168
20
1.538898
30
0.0
11
0.770970
21
1.538898
31
0.0
0
LINE
8
FRONT_HID
6
HIDDEN
10
1.168997
20
1.538898
30
0.0
11
1.089391
21
1.538898
31
0.0
0
LINE
8
FRONT_HID
6
HIDDEN
10
1.089391
20
1.538898
30
0.0
11
1.168997
21
1.538898
31
0.0
0
LINE
8
FRONT_HID
6
HIDDEN
10
0.402796
20
1.515461
30
0.0
11
0.402796
21
1.538898
31
0.0
0
LINE
8
FRONT_HID
6
HIDDEN
10
0.402796
20
1.515461
30
0.0
11
0.402796
21
1.538898
31
0.0
0
LINE
8
FRONT_HID
6
HIDDEN
10
0.770970
20
1.515461
30
0.0
11
0.770970
21
1.538898
31
0.0
0
LINE
8
FRONT_HID
6
HIDDEN
10
1.168997
20
1.515461
30
0.0
11
1.168997
21
1.538898
31
0.0
0
LINE
8
FRONT_HID
6
HIDDEN
10
1.168997
20
1.515461
30
0.0
11
1.168997
21
1.538898
31
0.0
0
LINE
8
FRONT_HID
6
HIDDEN
10
0.173684
20
1.538898
30
0.0
11
0.173684
21
1.484211
31
0.0
0
LINE
8
FRONT_HID
6
HIDDEN
10
1.294737
20
1.538898
30
0.0
11
1.294737
21
1.484211
31
0.0
0
LINE
8
FRONT_HID
6
HIDDEN
10
0.173684
20
1.538898
30
0.0
11
0.173684
21
1.484211
31
0.0
0
LINE
8
FRONT_HID
6
HIDDEN
10
1.294737
20
1.538898
30
0.0
11
1.294737
21
1.484211
31
0.0
0
LINE
8
FRONT_HID
6
HIDDEN
10
0.323191
20
1.538898
30
0.0
11
0.323191
21
1.515461
31
0.0
0
LINE
8
FRONT_HID
6
HIDDEN
10
0.323191
20
1.538898
30
0.0
11
0.323191
21
1.515461
31
0.0
0
LINE
8
FRONT_HID
6
HIDDEN
10
0.731168
20
1.538898
30
0.0
11
0.731168
21
1.515461
31
0.0
0
LINE
8
FRONT_HID
6
HIDDEN
10
1.089391
20
1.538898
30
0.0
11
1.089391
21
1.515461
31
0.0
0
LINE
8
FRONT_HID
6
HIDDEN
10
1.089391
20
1.538898
30
0.0
11
1.089391
21
1.515461
31
0.0
0
LINE
8
LEFT
10
2.984211
20
1.484211
30
0.0
11
2.984211
21
1.538898
31
0.0
0
LINE
8
LEFT
10
1.800000
20
1.484211
30
0.0
11
1.800000
21
1.538898
31
0.0
0
LINE
8
LEFT
10
1.800000
20
1.538898
30
0.0
11
2.984211
21
1.538898
31
0.0
0
LINE
8
LEFT
10
1.800000
20
1.484211
30
0.0
11
2.984211
21
1.484211
31
0.0
0
LINE
8
LEFT_HID
6
HIDDEN
10
2.826316
20
1.484211
30
0.0
11
2.810526
21
1.484211
31
0.0
0
LINE
8
LEFT_HID
6
HIDDEN
10
2.810526
20
1.484211
30
0.0
11
2.842105
21
1.484211
31
0.0
0
LINE
8
LEFT_HID
6
HIDDEN
10
2.842105
20
1.484211
30
0.0
11
2.826316
21
1.484211
31
0.0
0
LINE
8
LEFT_HID
6
HIDDEN
10
2.726398
20
1.484211
30
0.0
11
2.731579
21
1.484211
31
0.0
0
LINE
8
LEFT_HID
6
HIDDEN
10
2.059704
20
1.484211
30
0.0
11
2.726398
21
1.484211
31
0.0
0
LINE
8
LEFT_HID
6
HIDDEN
10
2.726398
20
1.484211
30
0.0
11
2.059704
21
1.484211
31
0.0
0
LINE
8
LEFT_HID
6
HIDDEN
10
2.731579
20
1.484211
30
0.0
11
2.726398
21
1.484211
31
0.0
0
LINE
8
LEFT_HID
6
HIDDEN
10
2.826316
20
1.484211
30
0.0
11
2.810526
21
1.484211
31
0.0
0
LINE
8
LEFT_HID
6
HIDDEN
10
2.810526
20
1.484211
30
0.0
11
2.842105
21
1.484211
31
0.0
0
LINE
8
LEFT_HID
6
HIDDEN
10
2.842105
20
1.484211
30
0.0
11
2.826316
21
1.484211
31
0.0
0
LINE
8
LEFT_HID
6
HIDDEN
10
1.957895
20
1.484211
30
0.0
11
1.942105
21
1.484211
31
0.0
0
LINE
8
LEFT_HID
6
HIDDEN
10
1.942105
20
1.484211
30
0.0
11
1.973684
21
1.484211
31
0.0
0
LINE
8
LEFT_HID
6
HIDDEN
10
1.973684
20
1.484211
30
0.0
11
1.957895
21
1.484211
31
0.0
0
LINE
8
LEFT_HID
6
HIDDEN
10
1.957895
20
1.484211
30
0.0
11
1.942105
21
1.484211
31
0.0
0
LINE
8
LEFT_HID
6
HIDDEN
10
1.942105
20
1.484211
30
0.0
11
1.973684
21
1.484211
31
0.0
0
LINE
8
LEFT_HID
6
HIDDEN
10
1.973684
20
1.484211
30
0.0
11
1.957895
21
1.484211
31
0.0
0
LINE
8
LEFT_HID
6
HIDDEN
10
2.826316
20
1.538898
30
0.0
11
2.810526
21
1.538898
31
0.0
0
LINE
8
LEFT_HID
6
HIDDEN
10
2.810526
20
1.538898
30
0.0
11
2.842105
21
1.538898
31
0.0
0
LINE
8
LEFT_HID
6
HIDDEN
10
2.842105
20
1.538898
30
0.0
11
2.826316
21
1.538898
31
0.0
0
LINE
8
LEFT_HID
6
HIDDEN
10
2.726398
20
1.538898
30
0.0
11
2.731579
21
1.538898
31
0.0
0
LINE
8
LEFT_HID
6
HIDDEN
10
2.059704
20
1.538898
30
0.0
11
2.726398
21
1.538898
31
0.0
0
LINE
8
LEFT_HID
6
HIDDEN
10
2.726398
20
1.538898
30
0.0
11
2.059704
21
1.538898
31
0.0
0
LINE
8
LEFT_HID
6
HIDDEN
10
2.731579
20
1.538898
30
0.0
11
2.726398
21
1.538898
31
0.0
0
LINE
8
LEFT_HID
6
HIDDEN
10
2.826316
20
1.538898
30
0.0
11
2.810526
21
1.538898
31
0.0
0
LINE
8
LEFT_HID
6
HIDDEN
10
2.810526
20
1.538898
30
0.0
11
2.842105
21
1.538898
31
0.0
0
LINE
8
LEFT_HID
6
HIDDEN
10
2.842105
20
1.538898
30
0.0
11
2.826316
21
1.538898
31
0.0
0
LINE
8
LEFT_HID
6
HIDDEN
10
1.957895
20
1.538898
30
0.0
11
1.942105
21
1.538898
31
0.0
0
LINE
8
LEFT_HID
6
HIDDEN
10
1.942105
20
1.538898
30
0.0
11
1.973684
21
1.538898
31
0.0
0
LINE
8
LEFT_HID
6
HIDDEN
10
1.973684
20
1.538898
30
0.0
11
1.957895
21
1.538898
31
0.0
0
LINE
8
LEFT_HID
6
HIDDEN
10
1.957895
20
1.538898
30
0.0
11
1.942105
21
1.538898
31
0.0
0
LINE
8
LEFT_HID
6
HIDDEN
10
1.942105
20
1.538898
30
0.0
11
1.973684
21
1.538898
31
0.0
0
LINE
8
LEFT_HID
6
HIDDEN
10
1.973684
20
1.538898
30
0.0
11
1.957895
21
1.538898
31
0.0
0
LINE
8
LEFT_HID
6
HIDDEN
10
2.731579
20
1.484211
30
0.0
11
2.731579
21
1.538898
31
0.0
0
LINE
8
LEFT_HID
6
HIDDEN
10
2.731579
20
1.484211
30
0.0
11
2.731579
21
1.538898
31
0.0
0
LINE
8
LEFT_HID
6
HIDDEN
10
2.726398
20
1.538898
30
0.0
11
2.726398
21
1.515461
31
0.0
0
LINE
8
LEFT_HID
6
HIDDEN
10
2.726398
20
1.515461
30
0.0
11
2.726398
21
1.484211
31
0.0
0
LINE
8
LEFT_HID
6
HIDDEN
10
2.726398
20
1.484211
30
0.0
11
2.726398
21
1.515461
31
0.0
0
LINE
8
LEFT_HID
6
HIDDEN
10
2.726398
20
1.515461
30
0.0
11
2.059704
21
1.515461
31
0.0
0
LINE
8
LEFT_HID
6
HIDDEN
10
2.059704
20
1.484211
30
0.0
11
2.059704
21
1.515461
31
0.0
0
LINE
8
LEFT_HID
6
HIDDEN
10
2.059704
20
1.484211
30
0.0
11
2.059704
21
1.515461
31
0.0
0
LINE
8
LEFT_HID
6
HIDDEN
10
2.059704
20
1.515461
30
0.0
11
2.726398
21
1.515461
31
0.0
0
LINE
8
LEFT_HID
6
HIDDEN
10
2.726398
20
1.484211
30
0.0
11
2.726398
21
1.515461
31
0.0
0
LINE
8
LEFT_HID
6
HIDDEN
10
2.726398
20
1.484211
30
0.0
11
2.726398
21
1.515461
31
0.0
0
LINE
8
LEFT_HID
6
HIDDEN
10
2.726398
20
1.515461
30
0.0
11
2.726398
21
1.538898
31
0.0
0
LINE
8
LEFT_HID
6
HIDDEN
10
2.068421
20
1.538898
30
0.0
11
2.726398
21
1.538898
31
0.0
0
LINE
8
LEFT_HID
6
HIDDEN
10
2.726398
20
1.538898
30
0.0
11
2.068421
21
1.538898
31
0.0
0
LINE
8
LEFT_HID
6
HIDDEN
10
2.636842
20
1.515461
30
0.0
11
2.597039
21
1.515461
31
0.0
0
LINE
8
LEFT_HID
6
HIDDEN
10
2.597039
20
1.515461
30
0.0
11
2.676645
21
1.515461
31
0.0
0
LINE
8
LEFT_HID
6
HIDDEN
10
2.676645
20
1.515461
30
0.0
11
2.636842
21
1.515461
31
0.0
0
LINE
8
LEFT_HID
6
HIDDEN
10
2.159211
20
1.515461
30
0.0
11
2.119408
21
1.515461
31
0.0
0
LINE
8
LEFT_HID
6
HIDDEN
10
2.119408
20
1.515461
30
0.0
11
2.199013
21
1.515461
31
0.0
0
LINE
8
LEFT_HID
6
HIDDEN
10
2.199013
20
1.515461
30
0.0
11
2.159211
21
1.515461
31
0.0
0
LINE
8
LEFT_HID
6
HIDDEN
10
2.398026
20
1.515461
30
0.0
11
2.378125
21
1.515461
31
0.0
0
LINE
8
LEFT_HID
6
HIDDEN
10
2.378125
20
1.515461
30
0.0
11
2.417928
21
1.515461
31
0.0
0
LINE
8
LEFT_HID
6
HIDDEN
10
2.417928
20
1.515461
30
0.0
11
2.398026
21
1.515461
31
0.0
0
LINE
8
LEFT_HID
6
HIDDEN
10
2.636842
20
1.515461
30
0.0
11
2.597039
21
1.515461
31
0.0
0
LINE
8
LEFT_HID
6
HIDDEN
10
2.597039
20
1.515461
30
0.0
11
2.676645
21
1.515461
31
0.0
0
LINE
8
LEFT_HID
6
HIDDEN
10
2.676645
20
1.515461
30
0.0
11
2.636842
21
1.515461
31
0.0
0
LINE
8
LEFT_HID
6
HIDDEN
10
2.159211
20
1.515461
30
0.0
11
2.119408
21
1.515461
31
0.0
0
LINE
8
LEFT_HID
6
HIDDEN
10
2.119408
20
1.515461
30
0.0
11
2.199013
21
1.515461
31
0.0
0
LINE
8
LEFT_HID
6
HIDDEN
10
2.199013
20
1.515461
30
0.0
11
2.159211
21
1.515461
31
0.0
0
LINE
8
LEFT_HID
6
HIDDEN
10
2.636842
20
1.538898
30
0.0
11
2.597039
21
1.538898
31
0.0
0
LINE
8
LEFT_HID
6
HIDDEN
10
2.597039
20
1.538898
30
0.0
11
2.676645
21
1.538898
31
0.0
0
LINE
8
LEFT_HID
6
HIDDEN
10
2.676645
20
1.538898
30
0.0
11
2.636842
21
1.538898
31
0.0
0
LINE
8
LEFT_HID
6
HIDDEN
10
2.636842
20
1.538898
30
0.0
11
2.597039
21
1.538898
31
0.0
0
LINE
8
LEFT_HID
6
HIDDEN
10
2.597039
20
1.538898
30
0.0
11
2.676645
21
1.538898
31
0.0
0
LINE
8
LEFT_HID
6
HIDDEN
10
2.676645
20
1.538898
30
0.0
11
2.636842
21
1.538898
31
0.0
0
LINE
8
LEFT_HID
6
HIDDEN
10
2.159211
20
1.538898
30
0.0
11
2.119408
21
1.538898
31
0.0
0
LINE
8
LEFT_HID
6
HIDDEN
10
2.119408
20
1.538898
30
0.0
11
2.199013
21
1.538898
31
0.0
0
LINE
8
LEFT_HID
6
HIDDEN
10
2.199013
20
1.538898
30
0.0
11
2.159211
21
1.538898
31
0.0
0
LINE
8
LEFT_HID
6
HIDDEN
10
2.398026
20
1.538898
30
0.0
11
2.378125
21
1.538898
31
0.0
0
LINE
8
LEFT_HID
6
HIDDEN
10
2.378125
20
1.538898
30
0.0
11
2.417928
21
1.538898
31
0.0
0
LINE
8
LEFT_HID
6
HIDDEN
10
2.417928
20
1.538898
30
0.0
11
2.398026
21
1.538898
31
0.0
0
LINE
8
LEFT_HID
6
HIDDEN
10
2.159211
20
1.538898
30
0.0
11
2.119408
21
1.538898
31
0.0
0
LINE
8
LEFT_HID
6
HIDDEN
10
2.119408
20
1.538898
30
0.0
11
2.199013
21
1.538898
31
0.0
0
LINE
8
LEFT_HID
6
HIDDEN
10
2.199013
20
1.538898
30
0.0
11
2.159211
21
1.538898
31
0.0
0
LINE
8
LEFT_HID
6
HIDDEN
10
2.810526
20
1.538898
30
0.0
11
2.810526
21
1.484211
31
0.0
0
LINE
8
LEFT_HID
6
HIDDEN
10
2.842105
20
1.538898
30
0.0
11
2.842105
21
1.484211
31
0.0
0
LINE
8
LEFT_HID
6
HIDDEN
10
2.810526
20
1.538898
30
0.0
11
2.810526
21
1.484211
31
0.0
0
LINE
8
LEFT_HID
6
HIDDEN
10
2.842105
20
1.538898
30
0.0
11
2.842105
21
1.484211
31
0.0
0
LINE
8
LEFT_HID
6
HIDDEN
10
1.942105
20
1.538898
30
0.0
11
1.942105
21
1.484211
31
0.0
0
LINE
8
LEFT_HID
6
HIDDEN
10
1.973684
20
1.538898
30
0.0
11
1.973684
21
1.484211
31
0.0
0
LINE
8
LEFT_HID
6
HIDDEN
10
1.942105
20
1.538898
30
0.0
11
1.942105
21
1.484211
31
0.0
0
LINE
8
LEFT_HID
6
HIDDEN
10
1.973684
20
1.538898
30
0.0
11
1.973684
21
1.484211
31
0.0
0
LINE
8
LEFT_HID
6
HIDDEN
10
2.597039
20
1.538898
30
0.0
11
2.597039
21
1.515461
31
0.0
0
LINE
8
LEFT_HID
6
HIDDEN
10
2.676645
20
1.538898
30
0.0
11
2.676645
21
1.515461
31
0.0
0
LINE
8
LEFT_HID
6
HIDDEN
10
2.119408
20
1.538898
30
0.0
11
2.119408
21
1.515461
31
0.0
0
LINE
8
LEFT_HID
6
HIDDEN
10
2.199013
20
1.538898
30
0.0
11
2.199013
21
1.515461
31
0.0
0
LINE
8
LEFT_HID
6
HIDDEN
10
2.378125
20
1.538898
30
0.0
11
2.378125
21
1.515461
31
0.0
0
LINE
8
LEFT_HID
6
HIDDEN
10
2.417928
20
1.538898
30
0.0
11
2.417928
21
1.515461
31
0.0
0
LINE
8
LEFT_HID
6
HIDDEN
10
2.597039
20
1.538898
30
0.0
11
2.597039
21
1.515461
31
0.0
0
LINE
8
LEFT_HID
6
HIDDEN
10
2.676645
20
1.538898
30
0.0
11
2.676645
21
1.515461
31
0.0
0
LINE
8
LEFT_HID
6
HIDDEN
10
2.119408
20
1.538898
30
0.0
11
2.119408
21
1.515461
31
0.0
0
LINE
8
LEFT_HID
6
HIDDEN
10
2.199013
20
1.538898
30
0.0
11
2.199013
21
1.515461
31
0.0
0
LINE
8
TOP
10
0.000000
20
0.000000
30
0.0
11
1.500000
21
0.000000
31
0.0
0
LINE
8
TOP
10
0.000000
20
1.184211
30
0.0
11
0.000000
21
0.000000
31
0.0
0
LINE
8
TOP
10
1.500000
20
0.000000
30
0.0
11
1.500000
21
1.184211
31
0.0
0
LINE
8
TOP
10
1.500000
20
1.184211
30
0.0
11
0.000000
21
1.184211
31
0.0
0
LINE
8
TOP
10
0.205263
20
0.157895
30
0.0
11
0.205185
21
0.159467
31
0.0
0
LINE
8
TOP
10
0.205185
20
0.159467
30
0.0
11
0.204950
21
0.161023
31
0.0
0
LINE
8
TOP
10
0.204950
20
0.161023
30
0.0
11
0.204562
21
0.162549
31
0.0
0
LINE
8
TOP
10
0.204562
20
0.162549
30
0.0
11
0.204023
21
0.164028
31
0.0
0
LINE
8
TOP
10
0.204023
20
0.164028
30
0.0
11
0.203340
21
0.165446
31
0.0
0
LINE
8
TOP
10
0.203340
20
0.165446
30
0.0
11
0.202520
21
0.166789
31
0.0
0
LINE
8
TOP
10
0.202520
20
0.166789
30
0.0
11
0.201569
21
0.168044
31
0.0
0
LINE
8
TOP
10
0.201569
20
0.168044
30
0.0
11
0.200498
21
0.169198
31
0.0
0
LINE
8
TOP
10
0.200498
20
0.169198
30
0.0
11
0.199318
21
0.170239
31
0.0
0
LINE
8
TOP
10
0.199318
20
0.170239
30
0.0
11
0.198040
21
0.171158
31
0.0
0
LINE
8
TOP
10
0.198040
20
0.171158
30
0.0
11
0.196677
21
0.171945
31
0.0
0
LINE
8
TOP
10
0.196677
20
0.171945
30
0.0
11
0.195242
21
0.172593
31
0.0
0
LINE
8
TOP
10
0.195242
20
0.172593
30
0.0
11
0.193750
21
0.173094
31
0.0
0
LINE
8
TOP
10
0.193750
20
0.173094
30
0.0
11
0.192215
21
0.173444
31
0.0
0
LINE
8
TOP
10
0.192215
20
0.173444
30
0.0
11
0.190654
21
0.173640
31
0.0
0
LINE
8
TOP
10
0.190654
20
0.173640
30
0.0
11
0.189080
21
0.173679
31
0.0
0
LINE
8
TOP
10
0.189080
20
0.173679
30
0.0
11
0.187510
21
0.173562
31
0.0
0
LINE
8
TOP
10
0.187510
20
0.173562
30
0.0
11
0.185960
21
0.173288
31
0.0
0
LINE
8
TOP
10
0.185960
20
0.173288
30
0.0
11
0.184445
21
0.172862
31
0.0
0
LINE
8
TOP
10
0.184445
20
0.172862
30
0.0
11
0.182980
21
0.172287
31
0.0
0
LINE
8
TOP
10
0.182980
20
0.172287
30
0.0
11
0.181579
21
0.171569
31
0.0
0
LINE
8
TOP
10
0.181579
20
0.171569
30
0.0
11
0.180257
21
0.170715
31
0.0
0
LINE
8
TOP
10
0.180257
20
0.170715
30
0.0
11
0.179026
21
0.169733
31
0.0
0
LINE
8
TOP
10
0.179026
20
0.169733
30
0.0
11
0.177899
21
0.168634
31
0.0
0
LINE
8
TOP
10
0.177899
20
0.168634
30
0.0
11
0.176887
21
0.167428
31
0.0
0
LINE
8
TOP
10
0.176887
20
0.167428
30
0.0
11
0.176001
21
0.166128
31
0.0
0
LINE
8
TOP
10
0.176001
20
0.166128
30
0.0
11
0.175248
21
0.164746
31
0.0
0
LINE
8
TOP
10
0.175248
20
0.164746
30
0.0
11
0.174636
21
0.163295
31
0.0
0
LINE
8
TOP
10
0.174636
20
0.163295
30
0.0
11
0.174172
21
0.161791
31
0.0
0
LINE
8
TOP
10
0.174172
20
0.161791
30
0.0
11
0.173861
21
0.160248
31
0.0
0
LINE
8
TOP
10
0.173861
20
0.160248
30
0.0
11
0.173704
21
0.158682
31
0.0
0
LINE
8
TOP
10
0.173704
20
0.158682
30
0.0
11
0.173704
21
0.157108
31
0.0
0
LINE
8
TOP
10
0.173704
20
0.157108
30
0.0
11
0.173861
21
0.155541
31
0.0
0
LINE
8
TOP
10
0.173861
20
0.155541
30
0.0
11
0.174172
21
0.153999
31
0.0
0
LINE
8
TOP
10
0.174172
20
0.153999
30
0.0
11
0.174636
21
0.152494
31
0.0
0
LINE
8
TOP
10
0.174636
20
0.152494
30
0.0
11
0.175248
21
0.151044
31
0.0
0
LINE
8
TOP
10
0.175248
20
0.151044
30
0.0
11
0.176001
21
0.149662
31
0.0
0
LINE
8
TOP
10
0.176001
20
0.149662
30
0.0
11
0.176887
21
0.148361
31
0.0
0
LINE
8
TOP
10
0.176887
20
0.148361
30
0.0
11
0.177899
21
0.147155
31
0.0
0
LINE
8
TOP
10
0.177899
20
0.147155
30
0.0
11
0.179026
21
0.146056
31
0.0
0
LINE
8
TOP
10
0.179026
20
0.146056
30
0.0
11
0.180257
21
0.145075
31
0.0
0
LINE
8
TOP
10
0.180257
20
0.145075
30
0.0
11
0.181579
21
0.144221
31
0.0
0
LINE
8
TOP
10
0.181579
20
0.144221
30
0.0
11
0.182980
21
0.143503
31
0.0
0
LINE
8
TOP
10
0.182980
20
0.143503
30
0.0
11
0.184445
21
0.142927
31
0.0
0
LINE
8
TOP
10
0.184445
20
0.142927
30
0.0
11
0.185960
21
0.142501
31
0.0
0
LINE
8
TOP
10
0.185960
20
0.142501
30
0.0
11
0.187510
21
0.142228
31
0.0
0
LINE
8
TOP
10
0.187510
20
0.142228
30
0.0
11
0.189080
21
0.142110
31
0.0
0
LINE
8
TOP
10
0.189080
20
0.142110
30
0.0
11
0.190654
21
0.142149
31
0.0
0
LINE
8
TOP
10
0.190654
20
0.142149
30
0.0
11
0.192215
21
0.142345
31
0.0
0
LINE
8
TOP
10
0.192215
20
0.142345
30
0.0
11
0.193750
21
0.142695
31
0.0
0
LINE
8
TOP
10
0.193750
20
0.142695
30
0.0
11
0.195242
21
0.143197
31
0.0
0
LINE
8
TOP
10
0.195242
20
0.143197
30
0.0
11
0.196677
21
0.143844
31
0.0
0
LINE
8
TOP
10
0.196677
20
0.143844
30
0.0
11
0.198040
21
0.144631
31
0.0
0
LINE
8
TOP
10
0.198040
20
0.144631
30
0.0
11
0.199318
21
0.145550
31
0.0
0
LINE
8
TOP
10
0.199318
20
0.145550
30
0.0
11
0.200498
21
0.146592
31
0.0
0
LINE
8
TOP
10
0.200498
20
0.146592
30
0.0
11
0.201569
21
0.147745
31
0.0
0
LINE
8
TOP
10
0.201569
20
0.147745
30
0.0
11
0.202520
21
0.149000
31
0.0
0
LINE
8
TOP
10
0.202520
20
0.149000
30
0.0
11
0.203340
21
0.150343
31
0.0
0
LINE
8
TOP
10
0.203340
20
0.150343
30
0.0
11
0.204023
21
0.151762
31
0.0
0
LINE
8
TOP
10
0.204023
20
0.151762
30
0.0
11
0.204562
21
0.153241
31
0.0
0
LINE
8
TOP
10
0.204562
20
0.153241
30
0.0
11
0.204950
21
0.154766
31
0.0
0
LINE
8
TOP
10
0.204950
20
0.154766
30
0.0
11
0.205185
21
0.156323
31
0.0
0
LINE
8
TOP
10
0.205185
20
0.156323
30
0.0
11
0.205263
21
0.157895
31
0.0
0
LINE
8
TOP
10
0.284211
20
0.252632
30
0.0
11
1.215789
21
0.252632
31
0.0
0
LINE
8
TOP
10
0.284211
20
0.257812
30
0.0
11
0.284211
21
0.252632
31
0.0
0
LINE
8
TOP
10
1.215789
20
0.252632
30
0.0
11
1.215789
21
0.257812
31
0.0
0
LINE
8
TOP
10
1.326316
20
0.157895
30
0.0
11
1.326237
21
0.159467
31
0.0
0
LINE
8
TOP
10
1.326237
20
0.159467
30
0.0
11
1.326003
21
0.161023
31
0.0
0
LINE
8
TOP
10
1.326003
20
0.161023
30
0.0
11
1.325614
21
0.162549
31
0.0
0
LINE
8
TOP
10
1.325614
20
0.162549
30
0.0
11
1.325076
21
0.164028
31
0.0
0
LINE
8
TOP
10
1.325076
20
0.164028
30
0.0
11
1.324393
21
0.165446
31
0.0
0
LINE
8
TOP
10
1.324393
20
0.165446
30
0.0
11
1.323572
21
0.166789
31
0.0
0
LINE
8
TOP
10
1.323572
20
0.166789
30
0.0
11
1.322622
21
0.168044
31
0.0
0
LINE
8
TOP
10
1.322622
20
0.168044
30
0.0
11
1.321551
21
0.169198
31
0.0
0
LINE
8
TOP
10
1.321551
20
0.169198
30
0.0
11
1.320371
21
0.170239
31
0.0
0
LINE
8
TOP
10
1.320371
20
0.170239
30
0.0
11
1.319093
21
0.171158
31
0.0
0
LINE
8
TOP
10
1.319093
20
0.171158
30
0.0
11
1.317730
21
0.171945
31
0.0
0
LINE
8
TOP
10
1.317730
20
0.171945
30
0.0
11
1.316295
21
0.172593
31
0.0
0
LINE
8
TOP
10
1.316295
20
0.172593
30
0.0
11
1.314803
21
0.173094
31
0.0
0
LINE
8
TOP
10
1.314803
20
0.173094
30
0.0
11
1.313268
21
0.173444
31
0.0
0
LINE
8
TOP
10
1.313268
20
0.173444
30
0.0
11
1.311706
21
0.173640
31
0.0
0
LINE
8
TOP
10
1.311706
20
0.173640
30
0.0
11
1.310133
21
0.173679
31
0.0
0
LINE
8
TOP
10
1.310133
20
0.173679
30
0.0
11
1.308563
21
0.173562
31
0.0
0
LINE
8
TOP
10
1.308563
20
0.173562
30
0.0
11
1.307013
21
0.173288
31
0.0
0
LINE
8
TOP
10
1.307013
20
0.173288
30
0.0
11
1.305498
21
0.172862
31
0.0
0
LINE
8
TOP
10
1.305498
20
0.172862
30
0.0
11
1.304032
21
0.172287
31
0.0
0
LINE
8
TOP
10
1.304032
20
0.172287
30
0.0
11
1.302632
21
0.171569
31
0.0
0
LINE
8
TOP
10
1.302632
20
0.171569
30
0.0
11
1.301309
21
0.170715
31
0.0
0
LINE
8
TOP
10
1.301309
20
0.170715
30
0.0
11
1.300079
21
0.169733
31
0.0
0
LINE
8
TOP
10
1.300079
20
0.169733
30
0.0
11
1.298952
21
0.168634
31
0.0
0
LINE
8
TOP
10
1.298952
20
0.168634
30
0.0
11
1.297940
21
0.167428
31
0.0
0
LINE
8
TOP
10
1.297940
20
0.167428
30
0.0
11
1.297053
21
0.166128
31
0.0
0
LINE
8
TOP
10
1.297053
20
0.166128
30
0.0
11
1.296300
21
0.164746
31
0.0
0
LINE
8
TOP
10
1.296300
20
0.164746
30
0.0
11
1.295689
21
0.163295
31
0.0
0
LINE
8
TOP
10
1.295689
20
0.163295
30
0.0
11
1.295225
21
0.161791
31
0.0
0
LINE
8
TOP
10
1.295225
20
0.161791
30
0.0
11
1.294913
21
0.160248
31
0.0
0
LINE
8
TOP
10
1.294913
20
0.160248
30
0.0
11
1.294756
21
0.158682
31
0.0
0
LINE
8
TOP
10
1.294756
20
0.158682
30
0.0
11
1.294756
21
0.157108
31
0.0
0
LINE
8
TOP
10
1.294756
20
0.157108
30
0.0
11
1.294913
21
0.155541
31
0.0
0
LINE
8
TOP
10
1.294913
20
0.155541
30
0.0
11
1.295225
21
0.153999
31
0.0
0
LINE
8
TOP
10
1.295225
20
0.153999
30
0.0
11
1.295689
21
0.152494
31
0.0
0
LINE
8
TOP
10
1.295689
20
0.152494
30
0.0
11
1.296300
21
0.151044
31
0.0
0
LINE
8
TOP
10
1.296300
20
0.151044
30
0.0
11
1.297053
21
0.149662
31
0.0
0
LINE
8
TOP
10
1.297053
20
0.149662
30
0.0
11
1.297940
21
0.148361
31
0.0
0
LINE
8
TOP
10
1.297940
20
0.148361
30
0.0
11
1.298952
21
0.147155
31
0.0
0
LINE
8
TOP
10
1.298952
20
0.147155
30
0.0
11
1.300079
21
0.146056
31
0.0
0
LINE
8
TOP
10
1.300079
20
0.146056
30
0.0
11
1.301309
21
0.145075
31
0.0
0
LINE
8
TOP
10
1.301309
20
0.145075
30
0.0
11
1.302632
21
0.144221
31
0.0
0
LINE
8
TOP
10
1.302632
20
0.144221
30
0.0
11
1.304032
21
0.143503
31
0.0
0
LINE
8
TOP
10
1.304032
20
0.143503
30
0.0
11
1.305498
21
0.142927
31
0.0
0
LINE
8
TOP
10
1.305498
20
0.142927
30
0.0
11
1.307013
21
0.142501
31
0.0
0
LINE
8
TOP
10
1.307013
20
0.142501
30
0.0
11
1.308563
21
0.142228
31
0.0
0
LINE
8
TOP
10
1.308563
20
0.142228
30
0.0
11
1.310133
21
0.142110
31
0.0
0
LINE
8
TOP
10
1.310133
20
0.142110
30
0.0
11
1.311706
21
0.142149
31
0.0
0
LINE
8
TOP
10
1.311706
20
0.142149
30
0.0
11
1.313268
21
0.142345
31
0.0
0
LINE
8
TOP
10
1.313268
20
0.142345
30
0.0
11
1.314803
21
0.142695
31
0.0
0
LINE
8
TOP
10
1.314803
20
0.142695
30
0.0
11
1.316295
21
0.143197
31
0.0
0
LINE
8
TOP
10
1.316295
20
0.143197
30
0.0
11
1.317730
21
0.143844
31
0.0
0
LINE
8
TOP
10
1.317730
20
0.143844
30
0.0
11
1.319093
21
0.144631
31
0.0
0
LINE
8
TOP
10
1.319093
20
0.144631
30
0.0
11
1.320371
21
0.145550
31
0.0
0
LINE
8
TOP
10
1.320371
20
0.145550
30
0.0
11
1.321551
21
0.146592
31
0.0
0
LINE
8
TOP
10
1.321551
20
0.146592
30
0.0
11
1.322622
21
0.147745
31
0.0
0
LINE
8
TOP
10
1.322622
20
0.147745
30
0.0
11
1.323572
21
0.149000
31
0.0
0
LINE
8
TOP
10
1.323572
20
0.149000
30
0.0
11
1.324393
21
0.150343
31
0.0
0
LINE
8
TOP
10
1.324393
20
0.150343
30
0.0
11
1.325076
21
0.151762
31
0.0
0
LINE
8
TOP
10
1.325076
20
0.151762
30
0.0
11
1.325614
21
0.153241
31
0.0
0
LINE
8
TOP
10
1.325614
20
0.153241
30
0.0
11
1.326003
21
0.154766
31
0.0
0
LINE
8
TOP
10
1.326003
20
0.154766
30
0.0
11
1.326237
21
0.156323
31
0.0
0
LINE
8
TOP
10
1.326237
20
0.156323
30
0.0
11
1.326316
21
0.157895
31
0.0
0
LINE
8
TOP
10
0.205263
20
1.026316
30
0.0
11
0.205185
21
1.027888
31
0.0
0
LINE
8
TOP
10
0.205185
20
1.027888
30
0.0
11
0.204950
21
1.029444
31
0.0
0
LINE
8
TOP
10
0.204950
20
1.029444
30
0.0
11
0.204562
21
1.030970
31
0.0
0
LINE
8
TOP
10
0.204562
20
1.030970
30
0.0
11
0.204023
21
1.032449
31
0.0
0
LINE
8
TOP
10
0.204023
20
1.032449
30
0.0
11
0.203340
21
1.033867
31
0.0
0
LINE
8
TOP
10
0.203340
20
1.033867
30
0.0
11
0.202520
21
1.035210
31
0.0
0
LINE
8
TOP
10
0.202520
20
1.035210
30
0.0
11
0.201569
21
1.036465
31
0.0
0
LINE
8
TOP
10
0.201569
20
1.036465
30
0.0
11
0.200498
21
1.037619
31
0.0
0
LINE
8
TOP
10
0.200498
20
1.037619
30
0.0
11
0.199318
21
1.038660
31
0.0
0
LINE
8
TOP
10
0.199318
20
1.038660
30
0.0
11
0.198040
21
1.039579
31
0.0
0
LINE
8
TOP
10
0.198040
20
1.039579
30
0.0
11
0.196677
21
1.040366
31
0.0
0
LINE
8
TOP
10
0.196677
20
1.040366
30
0.0
11
0.195242
21
1.041014
31
0.0
0
LINE
8
TOP
10
0.195242
20
1.041014
30
0.0
11
0.193750
21
1.041515
31
0.0
0
LINE
8
TOP
10
0.193750
20
1.041515
30
0.0
11
0.192215
21
1.041865
31
0.0
0
LINE
8
TOP
10
0.192215
20
1.041865
30
0.0
11
0.190654
21
1.042061
31
0.0
0
LINE
8
TOP
10
0.190654
20
1.042061
30
0.0
11
0.189080
21
1.042100
31
0.0
0
LINE
8
TOP
10
0.189080
20
1.042100
30
0.0
11
0.187510
21
1.041983
31
0.0
0
LINE
8
TOP
10
0.187510
20
1.041983
30
0.0
11
0.185960
21
1.041709
31
0.0
0
LINE
8
TOP
10
0.185960
20
1.041709
30
0.0
11
0.184445
21
1.041283
31
0.0
0
LINE
8
TOP
10
0.184445
20
1.041283
30
0.0
11
0.182980
21
1.040708
31
0.0
0
LINE
8
TOP
10
0.182980
20
1.040708
30
0.0
11
0.181579
21
1.039990
31
0.0
0
LINE
8
TOP
10
0.181579
20
1.039990
30
0.0
11
0.180257
21
1.039136
31
0.0
0
LINE
8
TOP
10
0.180257
20
1.039136
30
0.0
11
0.179026
21
1.038154
31
0.0
0
LINE
8
TOP
10
0.179026
20
1.038154
30
0.0
11
0.177899
21
1.037055
31
0.0
0
LINE
8
TOP
10
0.177899
20
1.037055
30
0.0
11
0.176887
21
1.035850
31
0.0
0
LINE
8
TOP
10
0.176887
20
1.035850
30
0.0
11
0.176001
21
1.034549
31
0.0
0
LINE
8
TOP
10
0.176001
20
1.034549
30
0.0
11
0.175248
21
1.033167
31
0.0
0
LINE
8
TOP
10
0.175248
20
1.033167
30
0.0
11
0.174636
21
1.031716
31
0.0
0
LINE
8
TOP
10
0.174636
20
1.031716
30
0.0
11
0.174172
21
1.030212
31
0.0
0
LINE
8
TOP
10
0.174172
20
1.030212
30
0.0
11
0.173861
21
1.028669
31
0.0
0
LINE
8
TOP
10
0.173861
20
1.028669
30
0.0
11
0.173704
21
1.027103
31
0.0
0
LINE
8
TOP
10
0.173704
20
1.027103
30
0.0
11
0.173704
21
1.025529
31
0.0
0
LINE
8
TOP
10
0.173704
20
1.025529
30
0.0
11
0.173861
21
1.023962
31
0.0
0
LINE
8
TOP
10
0.173861
20
1.023962
30
0.0
11
0.174172
21
1.022420
31
0.0
0
LINE
8
TOP
10
0.174172
20
1.022420
30
0.0
11
0.174636
21
1.020915
31
0.0
0
LINE
8
TOP
10
0.174636
20
1.020915
30
0.0
11
0.175248
21
1.019465
31
0.0
0
LINE
8
TOP
10
0.175248
20
1.019465
30
0.0
11
0.176001
21
1.018083
31
0.0
0
LINE
8
TOP
10
0.176001
20
1.018083
30
0.0
11
0.176887
21
1.016782
31
0.0
0
LINE
8
TOP
10
0.176887
20
1.016782
30
0.0
11
0.177899
21
1.015576
31
0.0
0
LINE
8
TOP
10
0.177899
20
1.015576
30
0.0
11
0.179026
21
1.014477
31
0.0
0
LINE
8
TOP
10
0.179026
20
1.014477
30
0.0
11
0.180257
21
1.013496
31
0.0
0
LINE
8
TOP
10
0.180257
20
1.013496
30
0.0
11
0.181579
21
1.012642
31
0.0
0
LINE
8
TOP
10
0.181579
20
1.012642
30
0.0
11
0.182980
21
1.011924
31
0.0
0
LINE
8
TOP
10
0.182980
20
1.011924
30
0.0
11
0.184445
21
1.011349
31
0.0
0
LINE
8
TOP
10
0.184445
20
1.011349
30
0.0
11
0.185960
21
1.010922
31
0.0
0
LINE
8
TOP
10
0.185960
20
1.010922
30
0.0
11
0.187510
21
1.010649
31
0.0
0
LINE
8
TOP
10
0.187510
20
1.010649
30
0.0
11
0.189080
21
1.010531
31
0.0
0
LINE
8
TOP
10
0.189080
20
1.010531
30
0.0
11
0.190654
21
1.010570
31
0.0
0
LINE
8
TOP
10
0.190654
20
1.010570
30
0.0
11
0.192215
21
1.010766
31
0.0
0
LINE
8
TOP
10
0.192215
20
1.010766
30
0.0
11
0.193750
21
1.011116
31
0.0
0
LINE
8
TOP
10
0.193750
20
1.011116
30
0.0
11
0.195242
21
1.011618
31
0.0
0
LINE
8
TOP
10
0.195242
20
1.011618
30
0.0
11
0.196677
21
1.012265
31
0.0
0
LINE
8
TOP
10
0.196677
20
1.012265
30
0.0
11
0.198040
21
1.013052
31
0.0
0
LINE
8
TOP
10
0.198040
20
1.013052
30
0.0
11
0.199318
21
1.013971
31
0.0
0
LINE
8
TOP
10
0.199318
20
1.013971
30
0.0
11
0.200498
21
1.015013
31
0.0
0
LINE
8
TOP
10
0.200498
20
1.015013
30
0.0
11
0.201569
21
1.016167
31
0.0
0
LINE
8
TOP
10
0.201569
20
1.016167
30
0.0
11
0.202520
21
1.017421
31
0.0
0
LINE
8
TOP
10
0.202520
20
1.017421
30
0.0
11
0.203340
21
1.018764
31
0.0
0
LINE
8
TOP
10
0.203340
20
1.018764
30
0.0
11
0.204023
21
1.020183
31
0.0
0
LINE
8
TOP
10
0.204023
20
1.020183
30
0.0
11
0.204562
21
1.021662
31
0.0
0
LINE
8
TOP
10
0.204562
20
1.021662
30
0.0
11
0.204950
21
1.023187
31
0.0
0
LINE
8
TOP
10
0.204950
20
1.023187
30
0.0
11
0.205185
21
1.024744
31
0.0
0
LINE
8
TOP
10
0.205185
20
1.024744
30
0.0
11
0.205263
21
1.026316
31
0.0
0
LINE
8
TOP
10
1.326316
20
1.026316
30
0.0
11
1.326237
21
1.027888
31
0.0
0
LINE
8
TOP
10
1.326237
20
1.027888
30
0.0
11
1.326003
21
1.029444
31
0.0
0
LINE
8
TOP
10
1.326003
20
1.029444
30
0.0
11
1.325614
21
1.030970
31
0.0
0
LINE
8
TOP
10
1.325614
20
1.030970
30
0.0
11
1.325076
21
1.032449
31
0.0
0
LINE
8
TOP
10
1.325076
20
1.032449
30
0.0
11
1.324393
21
1.033867
31
0.0
0
LINE
8
TOP
10
1.324393
20
1.033867
30
0.0
11
1.323572
21
1.035210
31
0.0
0
LINE
8
TOP
10
1.323572
20
1.035210
30
0.0
11
1.322622
21
1.036465
31
0.0
0
LINE
8
TOP
10
1.322622
20
1.036465
30
0.0
11
1.321551
21
1.037619
31
0.0
0
LINE
8
TOP
10
1.321551
20
1.037619
30
0.0
11
1.320371
21
1.038660
31
0.0
0
LINE
8
TOP
10
1.320371
20
1.038660
30
0.0
11
1.319093
21
1.039579
31
0.0
0
LINE
8
TOP
10
1.319093
20
1.039579
30
0.0
11
1.317730
21
1.040366
31
0.0
0
LINE
8
TOP
10
1.317730
20
1.040366
30
0.0
11
1.316295
21
1.041014
31
0.0
0
LINE
8
TOP
10
1.316295
20
1.041014
30
0.0
11
1.314803
21
1.041515
31
0.0
0
LINE
8
TOP
10
1.314803
20
1.041515
30
0.0
11
1.313268
21
1.041865
31
0.0
0
LINE
8
TOP
10
1.313268
20
1.041865
30
0.0
11
1.311706
21
1.042061
31
0.0
0
LINE
8
TOP
10
1.311706
20
1.042061
30
0.0
11
1.310133
21
1.042100
31
0.0
0
LINE
8
TOP
10
1.310133
20
1.042100
30
0.0
11
1.308563
21
1.041983
31
0.0
0
LINE
8
TOP
10
1.308563
20
1.041983
30
0.0
11
1.307013
21
1.041709
31
0.0
0
LINE
8
TOP
10
1.307013
20
1.041709
30
0.0
11
1.305498
21
1.041283
31
0.0
0
LINE
8
TOP
10
1.305498
20
1.041283
30
0.0
11
1.304032
21
1.040708
31
0.0
0
LINE
8
TOP
10
1.304032
20
1.040708
30
0.0
11
1.302632
21
1.039990
31
0.0
0
LINE
8
TOP
10
1.302632
20
1.039990
30
0.0
11
1.301309
21
1.039136
31
0.0
0
LINE
8
TOP
10
1.301309
20
1.039136
30
0.0
11
1.300079
21
1.038154
31
0.0
0
LINE
8
TOP
10
1.300079
20
1.038154
30
0.0
11
1.298952
21
1.037055
31
0.0
0
LINE
8
TOP
10
1.298952
20
1.037055
30
0.0
11
1.297940
21
1.035850
31
0.0
0
LINE
8
TOP
10
1.297940
20
1.035850
30
0.0
11
1.297053
21
1.034549
31
0.0
0
LINE
8
TOP
10
1.297053
20
1.034549
30
0.0
11
1.296300
21
1.033167
31
0.0
0
LINE
8
TOP
10
1.296300
20
1.033167
30
0.0
11
1.295689
21
1.031716
31
0.0
0
LINE
8
TOP
10
1.295689
20
1.031716
30
0.0
11
1.295225
21
1.030212
31
0.0
0
LINE
8
TOP
10
1.295225
20
1.030212
30
0.0
11
1.294913
21
1.028669
31
0.0
0
LINE
8
TOP
10
1.294913
20
1.028669
30
0.0
11
1.294756
21
1.027103
31
0.0
0
LINE
8
TOP
10
1.294756
20
1.027103
30
0.0
11
1.294756
21
1.025529
31
0.0
0
LINE
8
TOP
10
1.294756
20
1.025529
30
0.0
11
1.294913
21
1.023962
31
0.0
0
LINE
8
TOP
10
1.294913
20
1.023962
30
0.0
11
1.295225
21
1.022420
31
0.0
0
LINE
8
TOP
10
1.295225
20
1.022420
30
0.0
11
1.295689
21
1.020915
31
0.0
0
LINE
8
TOP
10
1.295689
20
1.020915
30
0.0
11
1.296300
21
1.019465
31
0.0
0
LINE
8
TOP
10
1.296300
20
1.019465
30
0.0
11
1.297053
21
1.018083
31
0.0
0
LINE
8
TOP
10
1.297053
20
1.018083
30
0.0
11
1.297940
21
1.016782
31
0.0
0
LINE
8
TOP
10
1.297940
20
1.016782
30
0.0
11
1.298952
21
1.015576
31
0.0
0
LINE
8
TOP
10
1.298952
20
1.015576
30
0.0
11
1.300079
21
1.014477
31
0.0
0
LINE
8
TOP
10
1.300079
20
1.014477
30
0.0
11
1.301309
21
1.013496
31
0.0
0
LINE
8
TOP
10
1.301309
20
1.013496
30
0.0
11
1.302632
21
1.012642
31
0.0
0
LINE
8
TOP
10
1.302632
20
1.012642
30
0.0
11
1.304032
21
1.011924
31
0.0
0
LINE
8
TOP
10
1.304032
20
1.011924
30
0.0
11
1.305498
21
1.011349
31
0.0
0
LINE
8
TOP
10
1.305498
20
1.011349
30
0.0
11
1.307013
21
1.010922
31
0.0
0
LINE
8
TOP
10
1.307013
20
1.010922
30
0.0
11
1.308563
21
1.010649
31
0.0
0
LINE
8
TOP
10
1.308563
20
1.010649
30
0.0
11
1.310133
21
1.010531
31
0.0
0
LINE
8
TOP
10
1.310133
20
1.010531
30
0.0
11
1.311706
21
1.010570
31
0.0
0
LINE
8
TOP
10
1.311706
20
1.010570
30
0.0
11
1.313268
21
1.010766
31
0.0
0
LINE
8
TOP
10
1.313268
20
1.010766
30
0.0
11
1.314803
21
1.011116
31
0.0
0
LINE
8
TOP
10
1.314803
20
1.011116
30
0.0
11
1.316295
21
1.011618
31
0.0
0
LINE
8
TOP
10
1.316295
20
1.011618
30
0.0
11
1.317730
21
1.012265
31
0.0
0
LINE
8
TOP
10
1.317730
20
1.012265
30
0.0
11
1.319093
21
1.013052
31
0.0
0
LINE
8
TOP
10
1.319093
20
1.013052
30
0.0
11
1.320371
21
1.013971
31
0.0
0
LINE
8
TOP
10
1.320371
20
1.013971
30
0.0
11
1.321551
21
1.015013
31
0.0
0
LINE
8
TOP
10
1.321551
20
1.015013
30
0.0
11
1.322622
21
1.016167
31
0.0
0
LINE
8
TOP
10
1.322622
20
1.016167
30
0.0
11
1.323572
21
1.017421
31
0.0
0
LINE
8
TOP
10
1.323572
20
1.017421
30
0.0
11
1.324393
21
1.018764
31
0.0
0
LINE
8
TOP
10
1.324393
20
1.018764
30
0.0
11
1.325076
21
1.020183
31
0.0
0
LINE
8
TOP
10
1.325076
20
1.020183
30
0.0
11
1.325614
21
1.021662
31
0.0
0
LINE
8
TOP
10
1.325614
20
1.021662
30
0.0
11
1.326003
21
1.023187
31
0.0
0
LINE
8
TOP
10
1.326003
20
1.023187
30
0.0
11
1.326237
21
1.024744
31
0.0
0
LINE
8
TOP
10
1.326237
20
1.024744
30
0.0
11
1.326316
21
1.026316
31
0.0
0
LINE
8
TOP
10
0.284211
20
0.257812
30
0.0
11
1.215789
21
0.257812
31
0.0
0
LINE
8
TOP
10
0.402796
20
0.347368
30
0.0
11
0.402598
21
0.351331
31
0.0
0
LINE
8
TOP
10
0.402598
20
0.351331
30
0.0
11
0.402007
21
0.355255
31
0.0
0
LINE
8
TOP
10
0.402007
20
0.355255
30
0.0
11
0.401028
21
0.359100
31
0.0
0
LINE
8
TOP
10
0.401028
20
0.359100
30
0.0
11
0.399671
21
0.362829
31
0.0
0
LINE
8
TOP
10
0.399671
20
0.362829
30
0.0
11
0.397949
21
0.366404
31
0.0
0
LINE
8
TOP
10
0.397949
20
0.366404
30
0.0
11
0.395880
21
0.369790
31
0.0
0
LINE
8
TOP
10
0.395880
20
0.369790
30
0.0
11
0.393484
21
0.372953
31
0.0
0
LINE
8
TOP
10
0.393484
20
0.372953
30
0.0
11
0.390785
21
0.375862
31
0.0
0
LINE
8
TOP
10
0.390785
20
0.375862
30
0.0
11
0.387810
21
0.378487
31
0.0
0
LINE
8
TOP
10
0.387810
20
0.378487
30
0.0
11
0.384588
21
0.380804
31
0.0
0
LINE
8
TOP
10
0.384588
20
0.380804
30
0.0
11
0.381152
21
0.382788
31
0.0
0
LINE
8
TOP
10
0.381152
20
0.382788
30
0.0
11
0.377535
21
0.384420
31
0.0
0
LINE
8
TOP
10
0.377535
20
0.384420
30
0.0
11
0.373774
21
0.385683
31
0.0
0
LINE
8
TOP
10
0.373774
20
0.385683
30
0.0
11
0.369905
21
0.386566
31
0.0
0
LINE
8
TOP
10
0.369905
20
0.386566
30
0.0
11
0.365968
21
0.387060
31
0.0
0
LINE
8
TOP
10
0.365968
20
0.387060
30
0.0
11
0.362001
21
0.387159
31
0.0
0
LINE
8
TOP
10
0.362001
20
0.387159
30
0.0
11
0.358044
21
0.386862
31
0.0
0
LINE
8
TOP
10
0.358044
20
0.386862
30
0.0
11
0.354137
21
0.386173
31
0.0
0
LINE
8
TOP
10
0.354137
20
0.386173
30
0.0
11
0.350317
21
0.385098
31
0.0
0
LINE
8
TOP
10
0.350317
20
0.385098
30
0.0
11
0.346623
21
0.383649
31
0.0
0
LINE
8
TOP
10
0.346623
20
0.383649
30
0.0
11
0.343092
21
0.381839
31
0.0
0
LINE
8
TOP
10
0.343092
20
0.381839
30
0.0
11
0.339759
21
0.379686
31
0.0
0
LINE
8
TOP
10
0.339759
20
0.379686
30
0.0
11
0.336657
21
0.377212
31
0.0
0
LINE
8
TOP
10
0.336657
20
0.377212
30
0.0
11
0.333816
21
0.374441
31
0.0
0
LINE
8
TOP
10
0.333816
20
0.374441
30
0.0
11
0.331265
21
0.371401
31
0.0
0
LINE
8
TOP
10
0.331265
20
0.371401
30
0.0
11
0.329030
21
0.368123
31
0.0
0
LINE
8
TOP
10
0.329030
20
0.368123
30
0.0
11
0.327132
21
0.364638
31
0.0
0
LINE
8
TOP
10
0.327132
20
0.364638
30
0.0
11
0.325591
21
0.360982
31
0.0
0
LINE
8
TOP
10
0.325591
20
0.360982
30
0.0
11
0.324422
21
0.357190
31
0.0
0
LINE
8
TOP
10
0.324422
20
0.357190
30
0.0
11
0.323635
21
0.353301
31
0.0
0
LINE
8
TOP
10
0.323635
20
0.353301
30
0.0
11
0.323240
21
0.349352
31
0.0
0
LINE
8
TOP
10
0.323240
20
0.349352
30
0.0
11
0.323240
21
0.345384
31
0.0
0
LINE
8
TOP
10
0.323240
20
0.345384
30
0.0
11
0.323635
21
0.341436
31
0.0
0
LINE
8
TOP
10
0.323635
20
0.341436
30
0.0
11
0.324422
21
0.337547
31
0.0
0
LINE
8
TOP
10
0.324422
20
0.337547
30
0.0
11
0.325591
21
0.333755
31
0.0
0
LINE
8
TOP
10
0.325591
20
0.333755
30
0.0
11
0.327132
21
0.330099
31
0.0
0
LINE
8
TOP
10
0.327132
20
0.330099
30
0.0
11
0.329030
21
0.326614
31
0.0
0
LINE
8
TOP
10
0.329030
20
0.326614
30
0.0
11
0.331265
21
0.323335
31
0.0
0
LINE
8
TOP
10
0.331265
20
0.323335
30
0.0
11
0.333816
21
0.320296
31
0.0
0
LINE
8
TOP
10
0.333816
20
0.320296
30
0.0
11
0.336657
21
0.317525
31
0.0
0
LINE
8
TOP
10
0.336657
20
0.317525
30
0.0
11
0.339759
21
0.315051
31
0.0
0
LINE
8
TOP
10
0.339759
20
0.315051
30
0.0
11
0.343092
21
0.312898
31
0.0
0
LINE
8
TOP
10
0.343092
20
0.312898
30
0.0
11
0.346623
21
0.311088
31
0.0
0
LINE
8
TOP
10
0.346623
20
0.311088
30
0.0
11
0.350317
21
0.309638
31
0.0
0
LINE
8
TOP
10
0.350317
20
0.309638
30
0.0
11
0.354137
21
0.308564
31
0.0
0
LINE
8
TOP
10
0.354137
20
0.308564
30
0.0
11
0.358044
21
0.307875
31
0.0
0
LINE
8
TOP
10
0.358044
20
0.307875
30
0.0
11
0.362001
21
0.307578
31
0.0
0
LINE
8
TOP
10
0.362001
20
0.307578
30
0.0
11
0.365968
21
0.307677
31
0.0
0
LINE
8
TOP
10
0.365968
20
0.307677
30
0.0
11
0.369905
21
0.308170
31
0.0
0
LINE
8
TOP
10
0.369905
20
0.308170
30
0.0
11
0.373774
21
0.309053
31
0.0
0
LINE
8
TOP
10
0.373774
20
0.309053
30
0.0
11
0.377535
21
0.310317
31
0.0
0
LINE
8
TOP
10
0.377535
20
0.310317
30
0.0
11
0.381152
21
0.311949
31
0.0
0
LINE
8
TOP
10
0.381152
20
0.311949
30
0.0
11
0.384588
21
0.313933
31
0.0
0
LINE
8
TOP
10
0.384588
20
0.313933
30
0.0
11
0.387810
21
0.316249
31
0.0
0
LINE
8
TOP
10
0.387810
20
0.316249
30
0.0
11
0.390785
21
0.318875
31
0.0
0
LINE
8
TOP
10
0.390785
20
0.318875
30
0.0
11
0.393484
21
0.321784
31
0.0
0
LINE
8
TOP
10
0.393484
20
0.321784
30
0.0
11
0.395880
21
0.324947
31
0.0
0
LINE
8
TOP
10
0.395880
20
0.324947
30
0.0
11
0.397949
21
0.328333
31
0.0
0
LINE
8
TOP
10
0.397949
20
0.328333
30
0.0
11
0.399671
21
0.331908
31
0.0
0
LINE
8
TOP
10
0.399671
20
0.331908
30
0.0
11
0.401028
21
0.335636
31
0.0
0
LINE
8
TOP
10
0.401028
20
0.335636
30
0.0
11
0.402007
21
0.339482
31
0.0
0
LINE
8
TOP
10
0.402007
20
0.339482
30
0.0
11
0.402598
21
0.343405
31
0.0
0
LINE
8
TOP
10
0.402598
20
0.343405
30
0.0
11
0.402796
21
0.347368
31
0.0
0
LINE
8
TOP
10
1.168997
20
0.347368
30
0.0
11
1.168799
21
0.351331
31
0.0
0
LINE
8
TOP
10
1.168799
20
0.351331
30
0.0
11
1.168208
21
0.355255
31
0.0
0
LINE
8
TOP
10
1.168208
20
0.355255
30
0.0
11
1.167228
21
0.359100
31
0.0
0
LINE
8
TOP
10
1.167228
20
0.359100
30
0.0
11
1.165871
21
0.362829
31
0.0
0
LINE
8
TOP
10
1.165871
20
0.362829
30
0.0
11
1.164150
21
0.366404
31
0.0
0
LINE
8
TOP
10
1.164150
20
0.366404
30
0.0
11
1.162081
21
0.369790
31
0.0
0
LINE
8
TOP
10
1.162081
20
0.369790
30
0.0
11
1.159685
21
0.372953
31
0.0
0
LINE
8
TOP
10
1.159685
20
0.372953
30
0.0
11
1.156986
21
0.375862
31
0.0
0
LINE
8
TOP
10
1.156986
20
0.375862
30
0.0
11
1.154011
21
0.378487
31
0.0
0
LINE
8
TOP
10
1.154011
20
0.378487
30
0.0
11
1.150789
21
0.380804
31
0.0
0
LINE
8
TOP
10
1.150789
20
0.380804
30
0.0
11
1.147352
21
0.382788
31
0.0
0
LINE
8
TOP
10
1.147352
20
0.382788
30
0.0
11
1.143736
21
0.384420
31
0.0
0
LINE
8
TOP
10
1.143736
20
0.384420
30
0.0
11
1.139974
21
0.385683
31
0.0
0
LINE
8
TOP
10
1.139974
20
0.385683
30
0.0
11
1.136106
21
0.386566
31
0.0
0
LINE
8
TOP
10
1.136106
20
0.386566
30
0.0
11
1.132169
21
0.387060
31
0.0
0
LINE
8
TOP
10
1.132169
20
0.387060
30
0.0
11
1.128202
21
0.387159
31
0.0
0
LINE
8
TOP
10
1.128202
20
0.387159
30
0.0
11
1.124245
21
0.386862
31
0.0
0
LINE
8
TOP
10
1.124245
20
0.386862
30
0.0
11
1.120337
21
0.386173
31
0.0
0
LINE
8
TOP
10
1.120337
20
0.386173
30
0.0
11
1.116517
21
0.385098
31
0.0
0
LINE
8
TOP
10
1.116517
20
0.385098
30
0.0
11
1.112824
21
0.383649
31
0.0
0
LINE
8
TOP
10
1.112824
20
0.383649
30
0.0
11
1.109293
21
0.381839
31
0.0
0
LINE
8
TOP
10
1.109293
20
0.381839
30
0.0
11
1.105960
21
0.379686
31
0.0
0
LINE
8
TOP
10
1.105960
20
0.379686
30
0.0
11
1.102857
21
0.377212
31
0.0
0
LINE
8
TOP
10
1.102857
20
0.377212
30
0.0
11
1.100017
21
0.374441
31
0.0
0
LINE
8
TOP
10
1.100017
20
0.374441
30
0.0
11
1.097466
21
0.371401
31
0.0
0
LINE
8
TOP
10
1.097466
20
0.371401
30
0.0
11
1.095231
21
0.368123
31
0.0
0
LINE
8
TOP
10
1.095231
20
0.368123
30
0.0
11
1.093333
21
0.364638
31
0.0
0
LINE
8
TOP
10
1.093333
20
0.364638
30
0.0
11
1.091792
21
0.360982
31
0.0
0
LINE
8
TOP
10
1.091792
20
0.360982
30
0.0
11
1.090622
21
0.357190
31
0.0
0
LINE
8
TOP
10
1.090622
20
0.357190
30
0.0
11
1.089836
21
0.353301
31
0.0
0
LINE
8
TOP
10
1.089836
20
0.353301
30
0.0
11
1.089441
21
0.349352
31
0.0
0
LINE
8
TOP
10
1.089441
20
0.349352
30
0.0
11
1.089441
21
0.345384
31
0.0
0
LINE
8
TOP
10
1.089441
20
0.345384
30
0.0
11
1.089836
21
0.341436
31
0.0
0
LINE
8
TOP
10
1.089836
20
0.341436
30
0.0
11
1.090622
21
0.337547
31
0.0
0
LINE
8
TOP
10
1.090622
20
0.337547
30
0.0
11
1.091792
21
0.333755
31
0.0
0
LINE
8
TOP
10
1.091792
20
0.333755
30
0.0
11
1.093333
21
0.330099
31
0.0
0
LINE
8
TOP
10
1.093333
20
0.330099
30
0.0
11
1.095231
21
0.326614
31
0.0
0
LINE
8
TOP
10
1.095231
20
0.326614
30
0.0
11
1.097466
21
0.323335
31
0.0
0
LINE
8
TOP
10
1.097466
20
0.323335
30
0.0
11
1.100017
21
0.320296
31
0.0
0
LINE
8
TOP
10
1.100017
20
0.320296
30
0.0
11
1.102857
21
0.317525
31
0.0
0
LINE
8
TOP
10
1.102857
20
0.317525
30
0.0
11
1.105960
21
0.315051
31
0.0
0
LINE
8
TOP
10
1.105960
20
0.315051
30
0.0
11
1.109293
21
0.312898
31
0.0
0
LINE
8
TOP
10
1.109293
20
0.312898
30
0.0
11
1.112824
21
0.311088
31
0.0
0
LINE
8
TOP
10
1.112824
20
0.311088
30
0.0
11
1.116517
21
0.309638
31
0.0
0
LINE
8
TOP
10
1.116517
20
0.309638
30
0.0
11
1.120337
21
0.308564
31
0.0
0
LINE
8
TOP
10
1.120337
20
0.308564
30
0.0
11
1.124245
21
0.307875
31
0.0
0
LINE
8
TOP
10
1.124245
20
0.307875
30
0.0
11
1.128202
21
0.307578
31
0.0
0
LINE
8
TOP
10
1.128202
20
0.307578
30
0.0
11
1.132169
21
0.307677
31
0.0
0
LINE
8
TOP
10
1.132169
20
0.307677
30
0.0
11
1.136106
21
0.308170
31
0.0
0
LINE
8
TOP
10
1.136106
20
0.308170
30
0.0
11
1.139974
21
0.309053
31
0.0
0
LINE
8
TOP
10
1.139974
20
0.309053
30
0.0
11
1.143736
21
0.310317
31
0.0
0
LINE
8
TOP
10
1.143736
20
0.310317
30
0.0
11
1.147352
21
0.311949
31
0.0
0
LINE
8
TOP
10
1.147352
20
0.311949
30
0.0
11
1.150789
21
0.313933
31
0.0
0
LINE
8
TOP
10
1.150789
20
0.313933
30
0.0
11
1.154011
21
0.316249
31
0.0
0
LINE
8
TOP
10
1.154011
20
0.316249
30
0.0
11
1.156986
21
0.318875
31
0.0
0
LINE
8
TOP
10
1.156986
20
0.318875
30
0.0
11
1.159685
21
0.321784
31
0.0
0
LINE
8
TOP
10
1.159685
20
0.321784
30
0.0
11
1.162081
21
0.324947
31
0.0
0
LINE
8
TOP
10
1.162081
20
0.324947
30
0.0
11
1.164150
21
0.328333
31
0.0
0
LINE
8
TOP
10
1.164150
20
0.328333
30
0.0
11
1.165871
21
0.331908
31
0.0
0
LINE
8
TOP
10
1.165871
20
0.331908
30
0.0
11
1.167228
21
0.335636
31
0.0
0
LINE
8
TOP
10
1.167228
20
0.335636
30
0.0
11
1.168208
21
0.339482
31
0.0
0
LINE
8
TOP
10
1.168208
20
0.339482
30
0.0
11
1.168799
21
0.343405
31
0.0
0
LINE
8
TOP
10
1.168799
20
0.343405
30
0.0
11
1.168997
21
0.347368
31
0.0
0
LINE
8
TOP
10
0.402796
20
0.825000
30
0.0
11
0.402598
21
0.828963
31
0.0
0
LINE
8
TOP
10
0.402598
20
0.828963
30
0.0
11
0.402007
21
0.832887
31
0.0
0
LINE
8
TOP
10
0.402007
20
0.832887
30
0.0
11
0.401028
21
0.836732
31
0.0
0
LINE
8
TOP
10
0.401028
20
0.836732
30
0.0
11
0.399671
21
0.840461
31
0.0
0
LINE
8
TOP
10
0.399671
20
0.840461
30
0.0
11
0.397949
21
0.844036
31
0.0
0
LINE
8
TOP
10
0.397949
20
0.844036
30
0.0
11
0.395880
21
0.847422
31
0.0
0
LINE
8
TOP
10
0.395880
20
0.847422
30
0.0
11
0.393484
21
0.850585
31
0.0
0
LINE
8
TOP
10
0.393484
20
0.850585
30
0.0
11
0.390785
21
0.853493
31
0.0
0
LINE
8
TOP
10
0.390785
20
0.853493
30
0.0
11
0.387810
21
0.856119
31
0.0
0
LINE
8
TOP
10
0.387810
20
0.856119
30
0.0
11
0.384588
21
0.858435
31
0.0
0
LINE
8
TOP
10
0.384588
20
0.858435
30
0.0
11
0.381152
21
0.860419
31
0.0
0
LINE
8
TOP
10
0.381152
20
0.860419
30
0.0
11
0.377535
21
0.862051
31
0.0
0
LINE
8
TOP
10
0.377535
20
0.862051
30
0.0
11
0.373774
21
0.863315
31
0.0
0
LINE
8
TOP
10
0.373774
20
0.863315
30
0.0
11
0.369905
21
0.864198
31
0.0
0
LINE
8
TOP
10
0.369905
20
0.864198
30
0.0
11
0.365968
21
0.864691
31
0.0
0
LINE
8
TOP
10
0.365968
20
0.864691
30
0.0
11
0.362001
21
0.864790
31
0.0
0
LINE
8
TOP
10
0.362001
20
0.864790
30
0.0
11
0.358044
21
0.864494
31
0.0
0
LINE
8
TOP
10
0.358044
20
0.864494
30
0.0
11
0.354137
21
0.863805
31
0.0
0
LINE
8
TOP
10
0.354137
20
0.863805
30
0.0
11
0.350317
21
0.862730
31
0.0
0
LINE
8
TOP
10
0.350317
20
0.862730
30
0.0
11
0.346623
21
0.861280
31
0.0
0
LINE
8
TOP
10
0.346623
20
0.861280
30
0.0
11
0.343092
21
0.859470
31
0.0
0
LINE
8
TOP
10
0.343092
20
0.859470
30
0.0
11
0.339759
21
0.857317
31
0.0
0
LINE
8
TOP
10
0.339759
20
0.857317
30
0.0
11
0.336657
21
0.854843
31
0.0
0
LINE
8
TOP
10
0.336657
20
0.854843
30
0.0
11
0.333816
21
0.852073
31
0.0
0
LINE
8
TOP
10
0.333816
20
0.852073
30
0.0
11
0.331265
21
0.849033
31
0.0
0
LINE
8
TOP
10
0.331265
20
0.849033
30
0.0
11
0.329030
21
0.845754
31
0.0
0
LINE
8
TOP
10
0.329030
20
0.845754
30
0.0
11
0.327132
21
0.842270
31
0.0
0
LINE
8
TOP
10
0.327132
20
0.842270
30
0.0
11
0.325591
21
0.838613
31
0.0
0
LINE
8
TOP
10
0.325591
20
0.838613
30
0.0
11
0.324422
21
0.834822
31
0.0
0
LINE
8
TOP
10
0.324422
20
0.834822
30
0.0
11
0.323635
21
0.830932
31
0.0
0
LINE
8
TOP
10
0.323635
20
0.830932
30
0.0
11
0.323240
21
0.826984
31
0.0
0
LINE
8
TOP
10
0.323240
20
0.826984
30
0.0
11
0.323240
21
0.823016
31
0.0
0
LINE
8
TOP
10
0.323240
20
0.823016
30
0.0
11
0.323635
21
0.819068
31
0.0
0
LINE
8
TOP
10
0.323635
20
0.819068
30
0.0
11
0.324422
21
0.815178
31
0.0
0
LINE
8
TOP
10
0.324422
20
0.815178
30
0.0
11
0.325591
21
0.811387
31
0.0
0
LINE
8
TOP
10
0.325591
20
0.811387
30
0.0
11
0.327132
21
0.807730
31
0.0
0
LINE
8
TOP
10
0.327132
20
0.807730
30
0.0
11
0.329030
21
0.804246
31
0.0
0
LINE
8
TOP
10
0.329030
20
0.804246
30
0.0
11
0.331265
21
0.800967
31
0.0
0
LINE
8
TOP
10
0.331265
20
0.800967
30
0.0
11
0.333816
21
0.797927
31
0.0
0
LINE
8
TOP
10
0.333816
20
0.797927
30
0.0
11
0.336657
21
0.795157
31
0.0
0
LINE
8
TOP
10
0.336657
20
0.795157
30
0.0
11
0.339759
21
0.792683
31
0.0
0
LINE
8
TOP
10
0.339759
20
0.792683
30
0.0
11
0.343092
21
0.790530
31
0.0
0
LINE
8
TOP
10
0.343092
20
0.790530
30
0.0
11
0.346623
21
0.788720
31
0.0
0
LINE
8
TOP
10
0.346623
20
0.788720
30
0.0
11
0.350317
21
0.787270
31
0.0
0
LINE
8
TOP
10
0.350317
20
0.787270
30
0.0
11
0.354137
21
0.786195
31
0.0
0
LINE
8
TOP
10
0.354137
20
0.786195
30
0.0
11
0.358044
21
0.785506
31
0.0
0
LINE
8
TOP
10
0.358044
20
0.785506
30
0.0
11
0.362001
21
0.785210
31
0.0
0
LINE
8
TOP
10
0.362001
20
0.785210
30
0.0
11
0.365968
21
0.785309
31
0.0
0
LINE
8
TOP
10
0.365968
20
0.785309
30
0.0
11
0.369905
21
0.785802
31
0.0
0
LINE
8
TOP
10
0.369905
20
0.785802
30
0.0
11
0.373774
21
0.786685
31
0.0
0
LINE
8
TOP
10
0.373774
20
0.786685
30
0.0
11
0.377535
21
0.787949
31
0.0
0
LINE
8
TOP
10
0.377535
20
0.787949
30
0.0
11
0.381152
21
0.789581
31
0.0
0
LINE
8
TOP
10
0.381152
20
0.789581
30
0.0
11
0.384588
21
0.791565
31
0.0
0
LINE
8
TOP
10
0.384588
20
0.791565
30
0.0
11
0.387810
21
0.793881
31
0.0
0
LINE
8
TOP
10
0.387810
20
0.793881
30
0.0
11
0.390785
21
0.796507
31
0.0
0
LINE
8
TOP
10
0.390785
20
0.796507
30
0.0
11
0.393484
21
0.799415
31
0.0
0
LINE
8
TOP
10
0.393484
20
0.799415
30
0.0
11
0.395880
21
0.802578
31
0.0
0
LINE
8
TOP
10
0.395880
20
0.802578
30
0.0
11
0.397949
21
0.805964
31
0.0
0
LINE
8
TOP
10
0.397949
20
0.805964
30
0.0
11
0.399671
21
0.809539
31
0.0
0
LINE
8
TOP
10
0.399671
20
0.809539
30
0.0
11
0.401028
21
0.813268
31
0.0
0
LINE
8
TOP
10
0.401028
20
0.813268
30
0.0
11
0.402007
21
0.817113
31
0.0
0
LINE
8
TOP
10
0.402007
20
0.817113
30
0.0
11
0.402598
21
0.821037
31
0.0
0
LINE
8
TOP
10
0.402598
20
0.821037
30
0.0
11
0.402796
21
0.825000
31
0.0
0
LINE
8
TOP
10
0.770970
20
0.586184
30
0.0
11
0.770872
21
0.588166
31
0.0
0
LINE
8
TOP
10
0.770872
20
0.588166
30
0.0
11
0.770576
21
0.590128
31
0.0
0
LINE
8
TOP
10
0.770576
20
0.590128
30
0.0
11
0.770086
21
0.592050
31
0.0
0
LINE
8
TOP
10
0.770086
20
0.592050
30
0.0
11
0.769408
21
0.593915
31
0.0
0
LINE
8
TOP
10
0.769408
20
0.593915
30
0.0
11
0.768547
21
0.595702
31
0.0
0
LINE
8
TOP
10
0.768547
20
0.595702
30
0.0
11
0.767512
21
0.597395
31
0.0
0
LINE
8
TOP
10
0.767512
20
0.597395
30
0.0
11
0.766314
21
0.598977
31
0.0
0
LINE
8
TOP
10
0.766314
20
0.598977
30
0.0
11
0.764965
21
0.600431
31
0.0
0
LINE
8
TOP
10
0.764965
20
0.600431
30
0.0
11
0.763477
21
0.601744
31
0.0
0
LINE
8
TOP
10
0.763477
20
0.601744
30
0.0
11
0.761866
21
0.602902
31
0.0
0
LINE
8
TOP
10
0.761866
20
0.602902
30
0.0
11
0.760148
21
0.603894
31
0.0
0
LINE
8
TOP
10
0.760148
20
0.603894
30
0.0
11
0.758340
21
0.604710
31
0.0
0
LINE
8
TOP
10
0.758340
20
0.604710
30
0.0
11
0.756459
21
0.605342
31
0.0
0
LINE
8
TOP
10
0.756459
20
0.605342
30
0.0
11
0.754525
21
0.605783
31
0.0
0
LINE
8
TOP
10
0.754525
20
0.605783
30
0.0
11
0.752556
21
0.606030
31
0.0
0
LINE
8
TOP
10
0.752556
20
0.606030
30
0.0
11
0.750573
21
0.606079
31
0.0
0
LINE
8
TOP
10
0.750573
20
0.606079
30
0.0
11
0.748594
21
0.605931
31
0.0
0
LINE
8
TOP
10
0.748594
20
0.605931
30
0.0
11
0.746641
21
0.605587
31
0.0
0
LINE
8
TOP
10
0.746641
20
0.605587
30
0.0
11
0.744731
21
0.605049
31
0.0
0
LINE
8
TOP
10
0.744731
20
0.605049
30
0.0
11
0.742884
21
0.604324
31
0.0
0
LINE
8
TOP
10
0.742884
20
0.604324
30
0.0
11
0.741118
21
0.603419
31
0.0
0
LINE
8
TOP
10
0.741118
20
0.603419
30
0.0
11
0.739452
21
0.602343
31
0.0
0
LINE
8
TOP
10
0.739452
20
0.602343
30
0.0
11
0.737901
21
0.601106
31
0.0
0
LINE
8
TOP
10
0.737901
20
0.601106
30
0.0
11
0.736480
21
0.599721
31
0.0
0
LINE
8
TOP
10
0.736480
20
0.599721
30
0.0
11
0.735205
21
0.598201
31
0.0
0
LINE
8
TOP
10
0.735205
20
0.598201
30
0.0
11
0.734087
21
0.596561
31
0.0
0
LINE
8
TOP
10
0.734087
20
0.596561
30
0.0
11
0.733139
21
0.594819
31
0.0
0
LINE
8
TOP
10
0.733139
20
0.594819
30
0.0
11
0.732368
21
0.592991
31
0.0
0
LINE
8
TOP
10
0.732368
20
0.592991
30
0.0
11
0.731783
21
0.591095
31
0.0
0
LINE
8
TOP
10
0.731783
20
0.591095
30
0.0
11
0.731390
21
0.589150
31
0.0
0
LINE
8
TOP
10
0.731390
20
0.589150
30
0.0
11
0.731193
21
0.587176
31
0.0
0
LINE
8
TOP
10
0.731193
20
0.587176
30
0.0
11
0.731193
21
0.585192
31
0.0
0
LINE
8
TOP
10
0.731193
20
0.585192
30
0.0
11
0.731390
21
0.583218
31
0.0
0
LINE
8
TOP
10
0.731390
20
0.583218
30
0.0
11
0.731783
21
0.581273
31
0.0
0
LINE
8
TOP
10
0.731783
20
0.581273
30
0.0
11
0.732368
21
0.579378
31
0.0
0
LINE
8
TOP
10
0.732368
20
0.579378
30
0.0
11
0.733139
21
0.577549
31
0.0
0
LINE
8
TOP
10
0.733139
20
0.577549
30
0.0
11
0.734087
21
0.575807
31
0.0
0
LINE
8
TOP
10
0.734087
20
0.575807
30
0.0
11
0.735205
21
0.574168
31
0.0
0
LINE
8
TOP
10
0.735205
20
0.574168
30
0.0
11
0.736480
21
0.572648
31
0.0
0
LINE
8
TOP
10
0.736480
20
0.572648
30
0.0
11
0.737901
21
0.571263
31
0.0
0
LINE
8
TOP
10
0.737901
20
0.571263
30
0.0
11
0.739452
21
0.570026
31
0.0
0
LINE
8
TOP
10
0.739452
20
0.570026
30
0.0
11
0.741118
21
0.568949
31
0.0
0
LINE
8
TOP
10
0.741118
20
0.568949
30
0.0
11
0.742884
21
0.568044
31
0.0
0
LINE
8
TOP
10
0.742884
20
0.568044
30
0.0
11
0.744731
21
0.567319
31
0.0
0
LINE
8
TOP
10
0.744731
20
0.567319
30
0.0
11
0.746641
21
0.566782
31
0.0
0
LINE
8
TOP
10
0.746641
20
0.566782
30
0.0
11
0.748594
21
0.566437
31
0.0
0
LINE
8
TOP
10
0.748594
20
0.566437
30
0.0
11
0.750573
21
0.566289
31
0.0
0
LINE
8
TOP
10
0.750573
20
0.566289
30
0.0
11
0.752556
21
0.566339
31
0.0
0
LINE
8
TOP
10
0.752556
20
0.566339
30
0.0
11
0.754525
21
0.566585
31
0.0
0
LINE
8
TOP
10
0.754525
20
0.566585
30
0.0
11
0.756459
21
0.567027
31
0.0
0
LINE
8
TOP
10
0.756459
20
0.567027
30
0.0
11
0.758340
21
0.567659
31
0.0
0
LINE
8
TOP
10
0.758340
20
0.567659
30
0.0
11
0.760148
21
0.568475
31
0.0
0
LINE
8
TOP
10
0.760148
20
0.568475
30
0.0
11
0.761866
21
0.569467
31
0.0
0
LINE
8
TOP
10
0.761866
20
0.569467
30
0.0
11
0.763477
21
0.570625
31
0.0
0
LINE
8
TOP
10
0.763477
20
0.570625
30
0.0
11
0.764965
21
0.571938
31
0.0
0
LINE
8
TOP
10
0.764965
20
0.571938
30
0.0
11
0.766314
21
0.573392
31
0.0
0
LINE
8
TOP
10
0.766314
20
0.573392
30
0.0
11
0.767512
21
0.574973
31
0.0
0
LINE
8
TOP
10
0.767512
20
0.574973
30
0.0
11
0.768547
21
0.576666
31
0.0
0
LINE
8
TOP
10
0.768547
20
0.576666
30
0.0
11
0.769408
21
0.578454
31
0.0
0
LINE
8
TOP
10
0.769408
20
0.578454
30
0.0
11
0.770086
21
0.580318
31
0.0
0
LINE
8
TOP
10
0.770086
20
0.580318
30
0.0
11
0.770576
21
0.582241
31
0.0
0
LINE
8
TOP
10
0.770576
20
0.582241
30
0.0
11
0.770872
21
0.584203
31
0.0
0
LINE
8
TOP
10
0.770872
20
0.584203
30
0.0
11
0.770970
21
0.586184
31
0.0
0
LINE
8
TOP
10
1.168997
20
0.825000
30
0.0
11
1.168799
21
0.828963
31
0.0
0
LINE
8
TOP
10
1.168799
20
0.828963
30
0.0
11
1.168208
21
0.832887
31
0.0
0
LINE
8
TOP
10
1.168208
20
0.832887
30
0.0
11
1.167228
21
0.836732
31
0.0
0
LINE
8
TOP
10
1.167228
20
0.836732
30
0.0
11
1.165871
21
0.840461
31
0.0
0
LINE
8
TOP
10
1.165871
20
0.840461
30
0.0
11
1.164150
21
0.844036
31
0.0
0
LINE
8
TOP
10
1.164150
20
0.844036
30
0.0
11
1.162081
21
0.847422
31
0.0
0
LINE
8
TOP
10
1.162081
20
0.847422
30
0.0
11
1.159685
21
0.850585
31
0.0
0
LINE
8
TOP
10
1.159685
20
0.850585
30
0.0
11
1.156986
21
0.853493
31
0.0
0
LINE
8
TOP
10
1.156986
20
0.853493
30
0.0
11
1.154011
21
0.856119
31
0.0
0
LINE
8
TOP
10
1.154011
20
0.856119
30
0.0
11
1.150789
21
0.858435
31
0.0
0
LINE
8
TOP
10
1.150789
20
0.858435
30
0.0
11
1.147352
21
0.860419
31
0.0
0
LINE
8
TOP
10
1.147352
20
0.860419
30
0.0
11
1.143736
21
0.862051
31
0.0
0
LINE
8
TOP
10
1.143736
20
0.862051
30
0.0
11
1.139974
21
0.863315
31
0.0
0
LINE
8
TOP
10
1.139974
20
0.863315
30
0.0
11
1.136106
21
0.864198
31
0.0
0
LINE
8
TOP
10
1.136106
20
0.864198
30
0.0
11
1.132169
21
0.864691
31
0.0
0
LINE
8
TOP
10
1.132169
20
0.864691
30
0.0
11
1.128202
21
0.864790
31
0.0
0
LINE
8
TOP
10
1.128202
20
0.864790
30
0.0
11
1.124245
21
0.864494
31
0.0
0
LINE
8
TOP
10
1.124245
20
0.864494
30
0.0
11
1.120337
21
0.863805
31
0.0
0
LINE
8
TOP
10
1.120337
20
0.863805
30
0.0
11
1.116517
21
0.862730
31
0.0
0
LINE
8
TOP
10
1.116517
20
0.862730
30
0.0
11
1.112824
21
0.861280
31
0.0
0
LINE
8
TOP
10
1.112824
20
0.861280
30
0.0
11
1.109293
21
0.859470
31
0.0
0
LINE
8
TOP
10
1.109293
20
0.859470
30
0.0
11
1.105960
21
0.857317
31
0.0
0
LINE
8
TOP
10
1.105960
20
0.857317
30
0.0
11
1.102857
21
0.854843
31
0.0
0
LINE
8
TOP
10
1.102857
20
0.854843
30
0.0
11
1.100017
21
0.852073
31
0.0
0
LINE
8
TOP
10
1.100017
20
0.852073
30
0.0
11
1.097466
21
0.849033
31
0.0
0
LINE
8
TOP
10
1.097466
20
0.849033
30
0.0
11
1.095231
21
0.845754
31
0.0
0
LINE
8
TOP
10
1.095231
20
0.845754
30
0.0
11
1.093333
21
0.842270
31
0.0
0
LINE
8
TOP
10
1.093333
20
0.842270
30
0.0
11
1.091792
21
0.838613
31
0.0
0
LINE
8
TOP
10
1.091792
20
0.838613
30
0.0
11
1.090622
21
0.834822
31
0.0
0
LINE
8
TOP
10
1.090622
20
0.834822
30
0.0
11
1.089836
21
0.830932
31
0.0
0
LINE
8
TOP
10
1.089836
20
0.830932
30
0.0
11
1.089441
21
0.826984
31
0.0
0
LINE
8
TOP
10
1.089441
20
0.826984
30
0.0
11
1.089441
21
0.823016
31
0.0
0
LINE
8
TOP
10
1.089441
20
0.823016
30
0.0
11
1.089836
21
0.819068
31
0.0
0
LINE
8
TOP
10
1.089836
20
0.819068
30
0.0
11
1.090622
21
0.815178
31
0.0
0
LINE
8
TOP
10
1.090622
20
0.815178
30
0.0
11
1.091792
21
0.811387
31
0.0
0
LINE
8
TOP
10
1.091792
20
0.811387
30
0.0
11
1.093333
21
0.807730
31
0.0
0
LINE
8
TOP
10
1.093333
20
0.807730
30
0.0
11
1.095231
21
0.804246
31
0.0
0
LINE
8
TOP
10
1.095231
20
0.804246
30
0.0
11
1.097466
21
0.800967
31
0.0
0
LINE
8
TOP
10
1.097466
20
0.800967
30
0.0
11
1.100017
21
0.797927
31
0.0
0
LINE
8
TOP
10
1.100017
20
0.797927
30
0.0
11
1.102857
21
0.795157
31
0.0
0
LINE
8
TOP
10
1.102857
20
0.795157
30
0.0
11
1.105960
21
0.792683
31
0.0
0
LINE
8
TOP
10
1.105960
20
0.792683
30
0.0
11
1.109293
21
0.790530
31
0.0
0
LINE
8
TOP
10
1.109293
20
0.790530
30
0.0
11
1.112824
21
0.788720
31
0.0
0
LINE
8
TOP
10
1.112824
20
0.788720
30
0.0
11
1.116517
21
0.787270
31
0.0
0
LINE
8
TOP
10
1.116517
20
0.787270
30
0.0
11
1.120337
21
0.786195
31
0.0
0
LINE
8
TOP
10
1.120337
20
0.786195
30
0.0
11
1.124245
21
0.785506
31
0.0
0
LINE
8
TOP
10
1.124245
20
0.785506
30
0.0
11
1.128202
21
0.785210
31
0.0
0
LINE
8
TOP
10
1.128202
20
0.785210
30
0.0
11
1.132169
21
0.785309
31
0.0
0
LINE
8
TOP
10
1.132169
20
0.785309
30
0.0
11
1.136106
21
0.785802
31
0.0
0
LINE
8
TOP
10
1.136106
20
0.785802
30
0.0
11
1.139974
21
0.786685
31
0.0
0
LINE
8
TOP
10
1.139974
20
0.786685
30
0.0
11
1.143736
21
0.787949
31
0.0
0
LINE
8
TOP
10
1.143736
20
0.787949
30
0.0
11
1.147352
21
0.789581
31
0.0
0
LINE
8
TOP
10
1.147352
20
0.789581
30
0.0
11
1.150789
21
0.791565
31
0.0
0
LINE
8
TOP
10
1.150789
20
0.791565
30
0.0
11
1.154011
21
0.793881
31
0.0
0
LINE
8
TOP
10
1.154011
20
0.793881
30
0.0
11
1.156986
21
0.796507
31
0.0
0
LINE
8
TOP
10
1.156986
20
0.796507
30
0.0
11
1.159685
21
0.799415
31
0.0
0
LINE
8
TOP
10
1.159685
20
0.799415
30
0.0
11
1.162081
21
0.802578
31
0.0
0
LINE
8
TOP
10
1.162081
20
0.802578
30
0.0
11
1.164150
21
0.805964
31
0.0
0
LINE
8
TOP
10
1.164150
20
0.805964
30
0.0
11
1.165871
21
0.809539
31
0.0
0
LINE
8
TOP
10
1.165871
20
0.809539
30
0.0
11
1.167228
21
0.813268
31
0.0
0
LINE
8
TOP
10
1.167228
20
0.813268
30
0.0
11
1.168208
21
0.817113
31
0.0
0
LINE
8
TOP
10
1.168208
20
0.817113
30
0.0
11
1.168799
21
0.821037
31
0.0
0
LINE
8
TOP
10
1.168799
20
0.821037
30
0.0
11
1.168997
21
0.825000
31
0.0
0
LINE
8
TOP_HID
6
HIDDEN
10
0.273438
20
0.257812
30
0.0
11
0.284211
21
0.257812
31
0.0
0
LINE
8
TOP_HID
6
HIDDEN
10
0.273438
20
0.924507
30
0.0
11
0.273438
21
0.257813
31
0.0
0
LINE
8
TOP_HID
6
HIDDEN
10
1.218750
20
0.924507
30
0.0
11
0.273438
21
0.924507
31
0.0
0
LINE
8
TOP_HID
6
HIDDEN
10
1.218750
20
0.257812
30
0.0
11
1.218750
21
0.924507
31
0.0
0
LINE
8
TOP_HID
6
HIDDEN
10
1.215789
20
0.257812
30
0.0
11
1.218750
21
0.257812
31
0.0
0
LINE
8
TOP_HID
6
HIDDEN
10
1.215789
20
0.257812
30
0.0
11
1.218750
21
0.257812
31
0.0
0
LINE
8
TOP_HID
6
HIDDEN
10
1.218750
20
0.257812
30
0.0
11
1.218750
21
0.924507
31
0.0
0
LINE
8
TOP_HID
6
HIDDEN
10
1.218750
20
0.924507
30
0.0
11
0.273438
21
0.924507
31
0.0
0
LINE
8
TOP_HID
6
HIDDEN
10
0.273438
20
0.924507
30
0.0
11
0.273438
21
0.257813
31
0.0
0
LINE
8
TOP_HID
6
HIDDEN
10
0.273438
20
0.257812
30
0.0
11
0.284211
21
0.257812
31
0.0
0
ENDSEC
0
EOF
