0
SECTION
2
HEADER
9
$ACADVER
1
AC1009
0
ENDSEC
0
SECTION
2
TABLES
0
TABLE
2
LTYPE
70
3
0
LTYPE
2
CONTINUOUS
70
0
3
Solid line
72
65
73
0
40
0.0
0
LTYPE
2
HIDDEN
70
0
3
__ __ __ __ __
72
65
73
2
40
0.051406
49
0.034288
49
-0.017118
0
LTYPE
2
CENTER
70
0
3
___ _ ___ _ ___
72
65
73
4
40
0.119931
49
0.068525
49
-0.017118
49
0.017118
49
-0.017118
0
ENDTAB
0
TABLE
2
LAYER
70
7
0
LAYER
2
0
70
0
62
7
6
CONTINUOUS
0
LAYER
2
FRONT
70
0
62
7
6
CONTINUOUS
0
LAYER
2
FRONT_HID
70
0
62
7
6
HIDDEN
0
LAYER
2
LEFT
70
0
62
7
6
CONTINUOUS
0
LAYER
2
LEFT_HID
70
0
62
7
6
HIDDEN
0
LAYER
2
TOP
70
0
62
7
6
CONTINUOUS
0
LAYER
2
TOP_HID
70
0
62
7
6
HIDDEN
0
ENDTAB
0
ENDSEC
0
SECTION
2
ENTITIES
0
LINE
8
FRONT
10
0.609375
20
1.233750
30
0.0
11
0.000000
21
1.233750
31
0.0
0
LINE
8
FRONT
10
0.000000
20
1.233750
30
0.0
11
0.000000
21
1.983750
31
0.0
0
LINE
8
FRONT
10
0.609375
20
1.233750
30
0.0
11
0.609375
21
1.983750
31
0.0
0
LINE
8
FRONT
10
0.609375
20
1.983750
30
0.0
11
0.000000
21
1.983750
31
0.0
0
LINE
8
FRONT
10
0.000000
20
1.983750
30
0.0
11
0.000000
21
1.987862
31
0.0
0
LINE
8
FRONT
10
0.125000
20
1.983750
30
0.0
11
0.125000
21
1.987862
31
0.0
0
LINE
8
FRONT
10
0.484375
20
1.983750
30
0.0
11
0.484375
21
1.987862
31
0.0
0
LINE
8
FRONT
10
0.125000
20
1.987862
30
0.0
11
0.000000
21
1.987862
31
0.0
0
LINE
8
FRONT
10
0.609375
20
1.983750
30
0.0
11
0.609375
21
1.987862
31
0.0
0
LINE
8
FRONT
10
0.484375
20
1.987862
30
0.0
11
0.609375
21
1.987862
31
0.0
0
LINE
8
FRONT
10
0.614720
20
1.296250
30
0.0
11
0.609375
21
1.296250
31
0.0
0
LINE
8
FRONT
10
0.614720
20
1.233750
30
0.0
11
0.609375
21
1.233750
31
0.0
0
LINE
8
FRONT
10
0.614720
20
1.233750
30
0.0
11
0.614720
21
1.296250
31
0.0
0
LINE
8
FRONT_HID
6
HIDDEN
10
0.000000
20
1.233750
30
0.0
11
0.125000
21
1.233750
31
0.0
0
LINE
8
FRONT_HID
6
HIDDEN
10
0.125000
20
1.233750
30
0.0
11
0.000000
21
1.233750
31
0.0
0
LINE
8
FRONT_HID
6
HIDDEN
10
0.125000
20
1.233750
30
0.0
11
0.484375
21
1.233750
31
0.0
0
LINE
8
FRONT_HID
6
HIDDEN
10
0.484375
20
1.233750
30
0.0
11
0.609375
21
1.233750
31
0.0
0
LINE
8
FRONT_HID
6
HIDDEN
10
0.125000
20
1.233750
30
0.0
11
0.000000
21
1.233750
31
0.0
0
LINE
8
FRONT_HID
6
HIDDEN
10
0.609375
20
1.233750
30
0.0
11
0.609375
21
1.983750
31
0.0
0
LINE
8
FRONT_HID
6
HIDDEN
10
0.484375
20
1.233750
30
0.0
11
0.609375
21
1.233750
31
0.0
0
LINE
8
FRONT_HID
6
HIDDEN
10
0.125000
20
1.233750
30
0.0
11
0.125000
21
1.983750
31
0.0
0
LINE
8
FRONT_HID
6
HIDDEN
10
0.125000
20
1.983750
30
0.0
11
0.484375
21
1.983750
31
0.0
0
LINE
8
FRONT_HID
6
HIDDEN
10
0.484375
20
1.233750
30
0.0
11
0.484375
21
1.983750
31
0.0
0
LINE
8
FRONT_HID
6
HIDDEN
10
0.000000
20
1.233750
30
0.0
11
0.000000
21
1.296250
31
0.0
0
LINE
8
FRONT_HID
6
HIDDEN
10
0.000000
20
1.987862
30
0.0
11
0.000000
21
1.296250
31
0.0
0
LINE
8
FRONT_HID
6
HIDDEN
10
0.000000
20
1.869359
30
0.0
11
0.000000
21
1.653898
31
0.0
0
LINE
8
FRONT_HID
6
HIDDEN
10
0.000000
20
1.653898
30
0.0
11
0.000000
21
1.869359
31
0.0
0
LINE
8
FRONT_HID
6
HIDDEN
10
0.000000
20
1.869359
30
0.0
11
0.000000
21
1.653898
31
0.0
0
LINE
8
FRONT_HID
6
HIDDEN
10
0.000000
20
1.653898
30
0.0
11
0.000000
21
1.869359
31
0.0
0
LINE
8
FRONT_HID
6
HIDDEN
10
0.125000
20
1.296250
30
0.0
11
0.125000
21
1.233750
31
0.0
0
LINE
8
FRONT_HID
6
HIDDEN
10
0.125000
20
1.987862
30
0.0
11
0.125000
21
1.296250
31
0.0
0
LINE
8
FRONT_HID
6
HIDDEN
10
0.125000
20
1.869359
30
0.0
11
0.125000
21
1.653898
31
0.0
0
LINE
8
FRONT_HID
6
HIDDEN
10
0.125000
20
1.653898
30
0.0
11
0.125000
21
1.869359
31
0.0
0
LINE
8
FRONT_HID
6
HIDDEN
10
0.125000
20
1.869359
30
0.0
11
0.125000
21
1.653898
31
0.0
0
LINE
8
FRONT_HID
6
HIDDEN
10
0.125000
20
1.653898
30
0.0
11
0.125000
21
1.869359
31
0.0
0
LINE
8
FRONT_HID
6
HIDDEN
10
0.125000
20
1.233750
30
0.0
11
0.000000
21
1.233750
31
0.0
0
LINE
8
FRONT_HID
6
HIDDEN
10
0.609375
20
1.983750
30
0.0
11
0.484375
21
1.983750
31
0.0
0
LINE
8
FRONT_HID
6
HIDDEN
10
0.000000
20
1.983750
30
0.0
11
0.125000
21
1.983750
31
0.0
0
LINE
8
FRONT_HID
6
HIDDEN
10
0.609375
20
1.233750
30
0.0
11
0.484375
21
1.233750
31
0.0
0
LINE
8
FRONT_HID
6
HIDDEN
10
0.484375
20
1.296250
30
0.0
11
0.484375
21
1.233750
31
0.0
0
LINE
8
FRONT_HID
6
HIDDEN
10
0.484375
20
1.987862
30
0.0
11
0.484375
21
1.296250
31
0.0
0
LINE
8
FRONT_HID
6
HIDDEN
10
0.484375
20
1.869359
30
0.0
11
0.484375
21
1.653898
31
0.0
0
LINE
8
FRONT_HID
6
HIDDEN
10
0.484375
20
1.653898
30
0.0
11
0.484375
21
1.869359
31
0.0
0
LINE
8
FRONT_HID
6
HIDDEN
10
0.484375
20
1.869359
30
0.0
11
0.484375
21
1.653898
31
0.0
0
LINE
8
FRONT_HID
6
HIDDEN
10
0.484375
20
1.653898
30
0.0
11
0.484375
21
1.869359
31
0.0
0
LINE
8
FRONT_HID
6
HIDDEN
10
0.000000
20
1.296250
30
0.0
11
0.000000
21
1.233750
31
0.0
0
LINE
8
FRONT_HID
6
HIDDEN
10
0.125000
20
1.869359
30
0.0
11
0.000000
21
1.869359
31
0.0
0
LINE
8
FRONT_HID
6
HIDDEN
10
0.125000
20
1.869359
30
0.0
11
0.000000
21
1.869359
31
0.0
0
LINE
8
FRONT_HID
6
HIDDEN
10
0.125000
20
1.296250
30
0.0
11
0.484375
21
1.296250
31
0.0
0
LINE
8
FRONT_HID
6
HIDDEN
10
0.484375
20
1.296250
30
0.0
11
0.125000
21
1.296250
31
0.0
0
LINE
8
FRONT_HID
6
HIDDEN
10
0.406661
20
1.296250
30
0.0
11
0.198602
21
1.296250
31
0.0
0
LINE
8
FRONT_HID
6
HIDDEN
10
0.198602
20
1.296250
30
0.0
11
0.406661
21
1.296250
31
0.0
0
LINE
8
FRONT_HID
6
HIDDEN
10
0.406661
20
1.296250
30
0.0
11
0.198602
21
1.296250
31
0.0
0
LINE
8
FRONT_HID
6
HIDDEN
10
0.198602
20
1.296250
30
0.0
11
0.406661
21
1.296250
31
0.0
0
LINE
8
FRONT_HID
6
HIDDEN
10
0.484375
20
1.233750
30
0.0
11
0.125000
21
1.233750
31
0.0
0
LINE
8
FRONT_HID
6
HIDDEN
10
0.125000
20
1.233750
30
0.0
11
0.484375
21
1.233750
31
0.0
0
LINE
8
FRONT_HID
6
HIDDEN
10
0.406661
20
1.233750
30
0.0
11
0.198602
21
1.233750
31
0.0
0
LINE
8
FRONT_HID
6
HIDDEN
10
0.198602
20
1.233750
30
0.0
11
0.406661
21
1.233750
31
0.0
0
LINE
8
FRONT_HID
6
HIDDEN
10
0.406661
20
1.233750
30
0.0
11
0.198602
21
1.233750
31
0.0
0
LINE
8
FRONT_HID
6
HIDDEN
10
0.198602
20
1.233750
30
0.0
11
0.406661
21
1.233750
31
0.0
0
LINE
8
FRONT_HID
6
HIDDEN
10
0.609375
20
1.296250
30
0.0
11
0.609375
21
1.233750
31
0.0
0
LINE
8
FRONT_HID
6
HIDDEN
10
0.609375
20
1.987862
30
0.0
11
0.609375
21
1.296250
31
0.0
0
LINE
8
FRONT_HID
6
HIDDEN
10
0.609375
20
1.869359
30
0.0
11
0.609375
21
1.653898
31
0.0
0
LINE
8
FRONT_HID
6
HIDDEN
10
0.609375
20
1.653898
30
0.0
11
0.609375
21
1.869359
31
0.0
0
LINE
8
FRONT_HID
6
HIDDEN
10
0.609375
20
1.869359
30
0.0
11
0.609375
21
1.653898
31
0.0
0
LINE
8
FRONT_HID
6
HIDDEN
10
0.609375
20
1.653898
30
0.0
11
0.609375
21
1.869359
31
0.0
0
LINE
8
FRONT_HID
6
HIDDEN
10
0.484375
20
1.233750
30
0.0
11
0.609375
21
1.233750
31
0.0
0
LINE
8
FRONT_HID
6
HIDDEN
10
0.484375
20
1.869359
30
0.0
11
0.609375
21
1.869359
31
0.0
0
LINE
8
FRONT_HID
6
HIDDEN
10
0.484375
20
1.869359
30
0.0
11
0.609375
21
1.869359
31
0.0
0
LINE
8
FRONT_HID
6
HIDDEN
10
0.406661
20
1.233750
30
0.0
11
0.406661
21
1.296250
31
0.0
0
LINE
8
FRONT_HID
6
HIDDEN
10
0.406661
20
1.233750
30
0.0
11
0.406661
21
1.296250
31
0.0
0
LINE
8
FRONT_HID
6
HIDDEN
10
0.000000
20
1.653898
30
0.0
11
0.125000
21
1.653898
31
0.0
0
LINE
8
FRONT_HID
6
HIDDEN
10
0.000000
20
1.653898
30
0.0
11
0.125000
21
1.653898
31
0.0
0
LINE
8
FRONT_HID
6
HIDDEN
10
0.609375
20
1.653898
30
0.0
11
0.484375
21
1.653898
31
0.0
0
LINE
8
FRONT_HID
6
HIDDEN
10
0.609375
20
1.653898
30
0.0
11
0.484375
21
1.653898
31
0.0
0
LINE
8
FRONT_HID
6
HIDDEN
10
0.198602
20
1.296250
30
0.0
11
0.198602
21
1.233750
31
0.0
0
LINE
8
FRONT_HID
6
HIDDEN
10
0.198602
20
1.296250
30
0.0
11
0.198602
21
1.233750
31
0.0
0
LINE
8
LEFT
10
0.942220
20
1.233750
30
0.0
11
0.825033
21
1.233750
31
0.0
0
LINE
8
LEFT
10
0.820345
20
1.233750
30
0.0
11
0.825033
21
1.233750
31
0.0
0
LINE
8
LEFT
10
0.950033
20
1.233750
30
0.0
11
0.942220
21
1.233750
31
0.0
0
LINE
8
LEFT
10
0.820345
20
1.233750
30
0.0
11
0.820345
21
1.983750
31
0.0
0
LINE
8
LEFT
10
0.820345
20
1.983750
30
0.0
11
0.825033
21
1.983750
31
0.0
0
LINE
8
LEFT
10
0.825033
20
1.983750
30
0.0
11
0.825033
21
1.987862
31
0.0
0
LINE
8
LEFT
10
0.825033
20
1.987862
30
0.0
11
1.848470
21
1.987862
31
0.0
0
LINE
8
LEFT
10
1.848470
20
1.987862
30
0.0
11
1.848470
21
1.296250
31
0.0
0
LINE
8
LEFT
10
1.611464
20
1.869359
30
0.0
11
1.622190
21
1.868823
31
0.0
0
LINE
8
LEFT
10
1.622190
20
1.868823
30
0.0
11
1.632810
21
1.867223
31
0.0
0
LINE
8
LEFT
10
1.632810
20
1.867223
30
0.0
11
1.643218
21
1.864572
31
0.0
0
LINE
8
LEFT
10
1.643218
20
1.864572
30
0.0
11
1.653310
21
1.860899
31
0.0
0
LINE
8
LEFT
10
1.653310
20
1.860899
30
0.0
11
1.662986
21
1.856239
31
0.0
0
LINE
8
LEFT
10
1.662986
20
1.856239
30
0.0
11
1.672150
21
1.850639
31
0.0
0
LINE
8
LEFT
10
1.672150
20
1.850639
30
0.0
11
1.680711
21
1.844154
31
0.0
0
LINE
8
LEFT
10
1.680711
20
1.844154
30
0.0
11
1.688584
21
1.836850
31
0.0
0
LINE
8
LEFT
10
1.688584
20
1.836850
30
0.0
11
1.695691
21
1.828797
31
0.0
0
LINE
8
LEFT
10
1.695691
20
1.828797
30
0.0
11
1.701960
21
1.820077
31
0.0
0
LINE
8
LEFT
10
1.701960
20
1.820077
30
0.0
11
1.707330
21
1.810776
31
0.0
0
LINE
8
LEFT
10
1.707330
20
1.810776
30
0.0
11
1.711747
21
1.800987
31
0.0
0
LINE
8
LEFT
10
1.711747
20
1.800987
30
0.0
11
1.715168
21
1.790806
31
0.0
0
LINE
8
LEFT
10
1.715168
20
1.790806
30
0.0
11
1.717557
21
1.780335
31
0.0
0
LINE
8
LEFT
10
1.717557
20
1.780335
30
0.0
11
1.718893
21
1.769679
31
0.0
0
LINE
8
LEFT
10
1.718893
20
1.769679
30
0.0
11
1.719161
21
1.758942
31
0.0
0
LINE
8
LEFT
10
1.719161
20
1.758942
30
0.0
11
1.718358
21
1.748233
31
0.0
0
LINE
8
LEFT
10
1.718358
20
1.748233
30
0.0
11
1.716493
21
1.737656
31
0.0
0
LINE
8
LEFT
10
1.716493
20
1.737656
30
0.0
11
1.713584
21
1.727318
31
0.0
0
LINE
8
LEFT
10
1.713584
20
1.727318
30
0.0
11
1.709661
21
1.717320
31
0.0
0
LINE
8
LEFT
10
1.709661
20
1.717320
30
0.0
11
1.704761
21
1.707763
31
0.0
0
LINE
8
LEFT
10
1.704761
20
1.707763
30
0.0
11
1.698934
21
1.698741
31
0.0
0
LINE
8
LEFT
10
1.698934
20
1.698741
30
0.0
11
1.692238
21
1.690345
31
0.0
0
LINE
8
LEFT
10
1.692238
20
1.690345
30
0.0
11
1.684739
21
1.682656
31
0.0
0
LINE
8
LEFT
10
1.684739
20
1.682656
30
0.0
11
1.676512
21
1.675753
31
0.0
0
LINE
8
LEFT
10
1.676512
20
1.675753
30
0.0
11
1.667638
21
1.669703
31
0.0
0
LINE
8
LEFT
10
1.667638
20
1.669703
30
0.0
11
1.658206
21
1.664567
31
0.0
0
LINE
8
LEFT
10
1.658206
20
1.664567
30
0.0
11
1.648310
21
1.660395
31
0.0
0
LINE
8
LEFT
10
1.648310
20
1.660395
30
0.0
11
1.638047
21
1.657229
31
0.0
0
LINE
8
LEFT
10
1.638047
20
1.657229
30
0.0
11
1.627520
21
1.655101
31
0.0
0
LINE
8
LEFT
10
1.627520
20
1.655101
30
0.0
11
1.616834
21
1.654032
31
0.0
0
LINE
8
LEFT
10
1.616834
20
1.654032
30
0.0
11
1.606094
21
1.654032
31
0.0
0
LINE
8
LEFT
10
1.606094
20
1.654032
30
0.0
11
1.595407
21
1.655101
31
0.0
0
LINE
8
LEFT
10
1.595407
20
1.655101
30
0.0
11
1.584881
21
1.657229
31
0.0
0
LINE
8
LEFT
10
1.584881
20
1.657229
30
0.0
11
1.574618
21
1.660395
31
0.0
0
LINE
8
LEFT
10
1.574618
20
1.660395
30
0.0
11
1.564721
21
1.664567
31
0.0
0
LINE
8
LEFT
10
1.564721
20
1.664567
30
0.0
11
1.555289
21
1.669703
31
0.0
0
LINE
8
LEFT
10
1.555289
20
1.669703
30
0.0
11
1.546416
21
1.675753
31
0.0
0
LINE
8
LEFT
10
1.546416
20
1.675753
30
0.0
11
1.538189
21
1.682656
31
0.0
0
LINE
8
LEFT
10
1.538189
20
1.682656
30
0.0
11
1.530690
21
1.690345
31
0.0
0
LINE
8
LEFT
10
1.530690
20
1.690345
30
0.0
11
1.523994
21
1.698741
31
0.0
0
LINE
8
LEFT
10
1.523994
20
1.698741
30
0.0
11
1.518167
21
1.707763
31
0.0
0
LINE
8
LEFT
10
1.518167
20
1.707763
30
0.0
11
1.513267
21
1.717320
31
0.0
0
LINE
8
LEFT
10
1.513267
20
1.717320
30
0.0
11
1.509343
21
1.727318
31
0.0
0
LINE
8
LEFT
10
1.509343
20
1.727318
30
0.0
11
1.506435
21
1.737656
31
0.0
0
LINE
8
LEFT
10
1.506435
20
1.737656
30
0.0
11
1.504570
21
1.748233
31
0.0
0
LINE
8
LEFT
10
1.504570
20
1.748233
30
0.0
11
1.503767
21
1.758942
31
0.0
0
LINE
8
LEFT
10
1.503767
20
1.758942
30
0.0
11
1.504035
21
1.769679
31
0.0
0
LINE
8
LEFT
10
1.504035
20
1.769679
30
0.0
11
1.505370
21
1.780335
31
0.0
0
LINE
8
LEFT
10
1.505370
20
1.780335
30
0.0
11
1.507760
21
1.790806
31
0.0
0
LINE
8
LEFT
10
1.507760
20
1.790806
30
0.0
11
1.511181
21
1.800987
31
0.0
0
LINE
8
LEFT
10
1.511181
20
1.800987
30
0.0
11
1.515598
21
1.810776
31
0.0
0
LINE
8
LEFT
10
1.515598
20
1.810776
30
0.0
11
1.520968
21
1.820077
31
0.0
0
LINE
8
LEFT
10
1.520968
20
1.820077
30
0.0
11
1.527237
21
1.828797
31
0.0
0
LINE
8
LEFT
10
1.527237
20
1.828797
30
0.0
11
1.534343
21
1.836850
31
0.0
0
LINE
8
LEFT
10
1.534343
20
1.836850
30
0.0
11
1.542216
21
1.844154
31
0.0
0
LINE
8
LEFT
10
1.542216
20
1.844154
30
0.0
11
1.550777
21
1.850639
31
0.0
0
LINE
8
LEFT
10
1.550777
20
1.850639
30
0.0
11
1.559941
21
1.856239
31
0.0
0
LINE
8
LEFT
10
1.559941
20
1.856239
30
0.0
11
1.569618
21
1.860899
31
0.0
0
LINE
8
LEFT
10
1.569618
20
1.860899
30
0.0
11
1.579710
21
1.864572
31
0.0
0
LINE
8
LEFT
10
1.579710
20
1.864572
30
0.0
11
1.590117
21
1.867223
31
0.0
0
LINE
8
LEFT
10
1.590117
20
1.867223
30
0.0
11
1.600737
21
1.868823
31
0.0
0
LINE
8
LEFT
10
1.600737
20
1.868823
30
0.0
11
1.611464
21
1.869359
31
0.0
0
LINE
8
LEFT
10
1.191316
20
1.869359
30
0.0
11
1.202042
21
1.868823
31
0.0
0
LINE
8
LEFT
10
1.202042
20
1.868823
30
0.0
11
1.212662
21
1.867223
31
0.0
0
LINE
8
LEFT
10
1.212662
20
1.867223
30
0.0
11
1.223070
21
1.864572
31
0.0
0
LINE
8
LEFT
10
1.223070
20
1.864572
30
0.0
11
1.233162
21
1.860899
31
0.0
0
LINE
8
LEFT
10
1.233162
20
1.860899
30
0.0
11
1.242838
21
1.856239
31
0.0
0
LINE
8
LEFT
10
1.242838
20
1.856239
30
0.0
11
1.252002
21
1.850639
31
0.0
0
LINE
8
LEFT
10
1.252002
20
1.850639
30
0.0
11
1.260563
21
1.844154
31
0.0
0
LINE
8
LEFT
10
1.260563
20
1.844154
30
0.0
11
1.268436
21
1.836850
31
0.0
0
LINE
8
LEFT
10
1.268436
20
1.836850
30
0.0
11
1.275543
21
1.828797
31
0.0
0
LINE
8
LEFT
10
1.275543
20
1.828797
30
0.0
11
1.281812
21
1.820077
31
0.0
0
LINE
8
LEFT
10
1.281812
20
1.820077
30
0.0
11
1.287182
21
1.810776
31
0.0
0
LINE
8
LEFT
10
1.287182
20
1.810776
30
0.0
11
1.291599
21
1.800987
31
0.0
0
LINE
8
LEFT
10
1.291599
20
1.800987
30
0.0
11
1.295020
21
1.790806
31
0.0
0
LINE
8
LEFT
10
1.295020
20
1.790806
30
0.0
11
1.297409
21
1.780335
31
0.0
0
LINE
8
LEFT
10
1.297409
20
1.780335
30
0.0
11
1.298745
21
1.769679
31
0.0
0
LINE
8
LEFT
10
1.298745
20
1.769679
30
0.0
11
1.299013
21
1.758942
31
0.0
0
LINE
8
LEFT
10
1.299013
20
1.758942
30
0.0
11
1.298210
21
1.748233
31
0.0
0
LINE
8
LEFT
10
1.298210
20
1.748233
30
0.0
11
1.296345
21
1.737656
31
0.0
0
LINE
8
LEFT
10
1.296345
20
1.737656
30
0.0
11
1.293436
21
1.727318
31
0.0
0
LINE
8
LEFT
10
1.293436
20
1.727318
30
0.0
11
1.289513
21
1.717320
31
0.0
0
LINE
8
LEFT
10
1.289513
20
1.717320
30
0.0
11
1.284613
21
1.707763
31
0.0
0
LINE
8
LEFT
10
1.284613
20
1.707763
30
0.0
11
1.278786
21
1.698741
31
0.0
0
LINE
8
LEFT
10
1.278786
20
1.698741
30
0.0
11
1.272090
21
1.690345
31
0.0
0
LINE
8
LEFT
10
1.272090
20
1.690345
30
0.0
11
1.264591
21
1.682656
31
0.0
0
LINE
8
LEFT
10
1.264591
20
1.682656
30
0.0
11
1.256364
21
1.675753
31
0.0
0
LINE
8
LEFT
10
1.256364
20
1.675753
30
0.0
11
1.247490
21
1.669703
31
0.0
0
LINE
8
LEFT
10
1.247490
20
1.669703
30
0.0
11
1.238058
21
1.664567
31
0.0
0
LINE
8
LEFT
10
1.238058
20
1.664567
30
0.0
11
1.228162
21
1.660395
31
0.0
0
LINE
8
LEFT
10
1.228162
20
1.660395
30
0.0
11
1.217899
21
1.657229
31
0.0
0
LINE
8
LEFT
10
1.217899
20
1.657229
30
0.0
11
1.207372
21
1.655101
31
0.0
0
LINE
8
LEFT
10
1.207372
20
1.655101
30
0.0
11
1.196686
21
1.654032
31
0.0
0
LINE
8
LEFT
10
1.196686
20
1.654032
30
0.0
11
1.185946
21
1.654032
31
0.0
0
LINE
8
LEFT
10
1.185946
20
1.654032
30
0.0
11
1.175259
21
1.655101
31
0.0
0
LINE
8
LEFT
10
1.175259
20
1.655101
30
0.0
11
1.164733
21
1.657229
31
0.0
0
LINE
8
LEFT
10
1.164733
20
1.657229
30
0.0
11
1.154470
21
1.660395
31
0.0
0
LINE
8
LEFT
10
1.154470
20
1.660395
30
0.0
11
1.144573
21
1.664567
31
0.0
0
LINE
8
LEFT
10
1.144573
20
1.664567
30
0.0
11
1.135141
21
1.669703
31
0.0
0
LINE
8
LEFT
10
1.135141
20
1.669703
30
0.0
11
1.126268
21
1.675753
31
0.0
0
LINE
8
LEFT
10
1.126268
20
1.675753
30
0.0
11
1.118041
21
1.682656
31
0.0
0
LINE
8
LEFT
10
1.118041
20
1.682656
30
0.0
11
1.110542
21
1.690345
31
0.0
0
LINE
8
LEFT
10
1.110542
20
1.690345
30
0.0
11
1.103845
21
1.698741
31
0.0
0
LINE
8
LEFT
10
1.103845
20
1.698741
30
0.0
11
1.098019
21
1.707763
31
0.0
0
LINE
8
LEFT
10
1.098019
20
1.707763
30
0.0
11
1.093119
21
1.717320
31
0.0
0
LINE
8
LEFT
10
1.093119
20
1.717320
30
0.0
11
1.089195
21
1.727318
31
0.0
0
LINE
8
LEFT
10
1.089195
20
1.727318
30
0.0
11
1.086287
21
1.737656
31
0.0
0
LINE
8
LEFT
10
1.086287
20
1.737656
30
0.0
11
1.084422
21
1.748233
31
0.0
0
LINE
8
LEFT
10
1.084422
20
1.748233
30
0.0
11
1.083619
21
1.758942
31
0.0
0
LINE
8
LEFT
10
1.083619
20
1.758942
30
0.0
11
1.083887
21
1.769679
31
0.0
0
LINE
8
LEFT
10
1.083887
20
1.769679
30
0.0
11
1.085222
21
1.780335
31
0.0
0
LINE
8
LEFT
10
1.085222
20
1.780335
30
0.0
11
1.087612
21
1.790806
31
0.0
0
LINE
8
LEFT
10
1.087612
20
1.790806
30
0.0
11
1.091033
21
1.800987
31
0.0
0
LINE
8
LEFT
10
1.091033
20
1.800987
30
0.0
11
1.095450
21
1.810776
31
0.0
0
LINE
8
LEFT
10
1.095450
20
1.810776
30
0.0
11
1.100820
21
1.820077
31
0.0
0
LINE
8
LEFT
10
1.100820
20
1.820077
30
0.0
11
1.107089
21
1.828797
31
0.0
0
LINE
8
LEFT
10
1.107089
20
1.828797
30
0.0
11
1.114195
21
1.836850
31
0.0
0
LINE
8
LEFT
10
1.114195
20
1.836850
30
0.0
11
1.122068
21
1.844154
31
0.0
0
LINE
8
LEFT
10
1.122068
20
1.844154
30
0.0
11
1.130629
21
1.850639
31
0.0
0
LINE
8
LEFT
10
1.130629
20
1.850639
30
0.0
11
1.139793
21
1.856239
31
0.0
0
LINE
8
LEFT
10
1.139793
20
1.856239
30
0.0
11
1.149470
21
1.860899
31
0.0
0
LINE
8
LEFT
10
1.149470
20
1.860899
30
0.0
11
1.159562
21
1.864572
31
0.0
0
LINE
8
LEFT
10
1.159562
20
1.864572
30
0.0
11
1.169969
21
1.867223
31
0.0
0
LINE
8
LEFT
10
1.169969
20
1.867223
30
0.0
11
1.180589
21
1.868823
31
0.0
0
LINE
8
LEFT
10
1.180589
20
1.868823
30
0.0
11
1.191316
21
1.869359
31
0.0
0
LINE
8
LEFT
10
1.848470
20
1.233750
30
0.0
11
0.950033
21
1.233750
31
0.0
0
LINE
8
LEFT
10
1.848470
20
1.296250
30
0.0
11
1.848470
21
1.233750
31
0.0
0
LINE
8
LEFT_HID
6
HIDDEN
10
0.942220
20
1.233750
30
0.0
11
0.942220
21
1.983750
31
0.0
0
LINE
8
LEFT_HID
6
HIDDEN
10
0.942220
20
1.233750
30
0.0
11
0.942220
21
1.983750
31
0.0
0
LINE
8
LEFT_HID
6
HIDDEN
10
0.950033
20
1.296250
30
0.0
11
1.848470
21
1.296250
31
0.0
0
LINE
8
LEFT_HID
6
HIDDEN
10
0.950033
20
1.296250
30
0.0
11
0.950033
21
1.233750
31
0.0
0
LINE
8
LEFT_HID
6
HIDDEN
10
0.825033
20
1.983750
30
0.0
11
0.942220
21
1.983750
31
0.0
0
LINE
8
LEFT_HID
6
HIDDEN
10
0.825033
20
1.983750
30
0.0
11
0.942220
21
1.983750
31
0.0
0
LINE
8
LEFT_HID
6
HIDDEN
10
0.950033
20
1.296250
30
0.0
11
1.848470
21
1.296250
31
0.0
0
LINE
8
LEFT_HID
6
HIDDEN
10
0.950033
20
1.296250
30
0.0
11
0.950033
21
1.233750
31
0.0
0
LINE
8
LEFT_HID
6
HIDDEN
10
1.612039
20
1.296250
30
0.0
11
1.508010
21
1.296250
31
0.0
0
LINE
8
LEFT_HID
6
HIDDEN
10
1.508010
20
1.296250
30
0.0
11
1.716069
21
1.296250
31
0.0
0
LINE
8
LEFT_HID
6
HIDDEN
10
1.716069
20
1.296250
30
0.0
11
1.612039
21
1.296250
31
0.0
0
LINE
8
LEFT_HID
6
HIDDEN
10
1.186464
20
1.296250
30
0.0
11
1.082434
21
1.296250
31
0.0
0
LINE
8
LEFT_HID
6
HIDDEN
10
1.082434
20
1.296250
30
0.0
11
1.290493
21
1.296250
31
0.0
0
LINE
8
LEFT_HID
6
HIDDEN
10
1.290493
20
1.296250
30
0.0
11
1.186464
21
1.296250
31
0.0
0
LINE
8
LEFT_HID
6
HIDDEN
10
1.612039
20
1.233750
30
0.0
11
1.508010
21
1.233750
31
0.0
0
LINE
8
LEFT_HID
6
HIDDEN
10
1.508010
20
1.233750
30
0.0
11
1.716069
21
1.233750
31
0.0
0
LINE
8
LEFT_HID
6
HIDDEN
10
1.716069
20
1.233750
30
0.0
11
1.612039
21
1.233750
31
0.0
0
LINE
8
LEFT_HID
6
HIDDEN
10
1.186464
20
1.233750
30
0.0
11
1.082434
21
1.233750
31
0.0
0
LINE
8
LEFT_HID
6
HIDDEN
10
1.082434
20
1.233750
30
0.0
11
1.290493
21
1.233750
31
0.0
0
LINE
8
LEFT_HID
6
HIDDEN
10
1.290493
20
1.233750
30
0.0
11
1.186464
21
1.233750
31
0.0
0
LINE
8
LEFT_HID
6
HIDDEN
10
0.950033
20
1.296250
30
0.0
11
1.848470
21
1.296250
31
0.0
0
LINE
8
LEFT_HID
6
HIDDEN
10
0.950033
20
1.296250
30
0.0
11
0.950033
21
1.233750
31
0.0
0
LINE
8
LEFT_HID
6
HIDDEN
10
1.848470
20
1.296250
30
0.0
11
0.950033
21
1.296250
31
0.0
0
LINE
8
LEFT_HID
6
HIDDEN
10
0.950033
20
1.233750
30
0.0
11
0.950033
21
1.296250
31
0.0
0
LINE
8
LEFT_HID
6
HIDDEN
10
1.508010
20
1.296250
30
0.0
11
1.508010
21
1.233750
31
0.0
0
LINE
8
LEFT_HID
6
HIDDEN
10
1.716069
20
1.296250
30
0.0
11
1.716069
21
1.233750
31
0.0
0
LINE
8
LEFT_HID
6
HIDDEN
10
1.082434
20
1.296250
30
0.0
11
1.082434
21
1.233750
31
0.0
0
LINE
8
LEFT_HID
6
HIDDEN
10
1.290493
20
1.296250
30
0.0
11
1.290493
21
1.233750
31
0.0
0
LINE
8
TOP
10
0.000000
20
1.028125
30
0.0
11
0.000000
21
1.023438
31
0.0
0
LINE
8
TOP
10
0.609375
20
1.028125
30
0.0
11
0.000000
21
1.028125
31
0.0
0
LINE
8
TOP
10
0.609375
20
1.023438
30
0.0
11
0.609375
21
1.028125
31
0.0
0
LINE
8
TOP
10
0.125000
20
0.906250
30
0.0
11
0.484375
21
0.906250
31
0.0
0
LINE
8
TOP
10
0.000000
20
1.023438
30
0.0
11
0.000000
21
0.000000
31
0.0
0
LINE
8
TOP
10
0.125000
20
1.023438
30
0.0
11
0.125000
21
0.000000
31
0.0
0
LINE
8
TOP
10
0.484375
20
1.023438
30
0.0
11
0.484375
21
0.000000
31
0.0
0
LINE
8
TOP
10
0.125000
20
0.000000
30
0.0
11
0.000000
21
0.000000
31
0.0
0
LINE
8
TOP
10
0.125000
20
1.023438
30
0.0
11
0.000000
21
1.023438
31
0.0
0
LINE
8
TOP
10
0.125000
20
0.000000
30
0.0
11
0.484375
21
0.000000
31
0.0
0
LINE
8
TOP
10
0.484375
20
0.898438
30
0.0
11
0.125000
21
0.898438
31
0.0
0
LINE
8
TOP
10
0.406661
20
0.236431
30
0.0
11
0.406144
21
0.246789
31
0.0
0
LINE
8
TOP
10
0.406144
20
0.246789
30
0.0
11
0.404599
21
0.257044
31
0.0
0
LINE
8
TOP
10
0.404599
20
0.257044
30
0.0
11
0.402039
21
0.267094
31
0.0
0
LINE
8
TOP
10
0.402039
20
0.267094
30
0.0
11
0.398492
21
0.276840
31
0.0
0
LINE
8
TOP
10
0.398492
20
0.276840
30
0.0
11
0.393993
21
0.286183
31
0.0
0
LINE
8
TOP
10
0.393993
20
0.286183
30
0.0
11
0.388585
21
0.295033
31
0.0
0
LINE
8
TOP
10
0.388585
20
0.295033
30
0.0
11
0.382323
21
0.303300
31
0.0
0
LINE
8
TOP
10
0.382323
20
0.303300
30
0.0
11
0.375269
21
0.310902
31
0.0
0
LINE
8
TOP
10
0.375269
20
0.310902
30
0.0
11
0.367493
21
0.317765
31
0.0
0
LINE
8
TOP
10
0.367493
20
0.317765
30
0.0
11
0.359072
21
0.323818
31
0.0
0
LINE
8
TOP
10
0.359072
20
0.323818
30
0.0
11
0.350091
21
0.329004
31
0.0
0
LINE
8
TOP
10
0.350091
20
0.329004
30
0.0
11
0.340638
21
0.333269
31
0.0
0
LINE
8
TOP
10
0.340638
20
0.333269
30
0.0
11
0.330807
21
0.336572
31
0.0
0
LINE
8
TOP
10
0.330807
20
0.336572
30
0.0
11
0.320696
21
0.338880
31
0.0
0
LINE
8
TOP
10
0.320696
20
0.338880
30
0.0
11
0.310406
21
0.340170
31
0.0
0
LINE
8
TOP
10
0.310406
20
0.340170
30
0.0
11
0.300038
21
0.340428
31
0.0
0
LINE
8
TOP
10
0.300038
20
0.340428
30
0.0
11
0.289696
21
0.339653
31
0.0
0
LINE
8
TOP
10
0.289696
20
0.339653
30
0.0
11
0.279483
21
0.337852
31
0.0
0
LINE
8
TOP
10
0.279483
20
0.337852
30
0.0
11
0.269500
21
0.335043
31
0.0
0
LINE
8
TOP
10
0.269500
20
0.335043
30
0.0
11
0.259846
21
0.331255
31
0.0
0
LINE
8
TOP
10
0.259846
20
0.331255
30
0.0
11
0.250617
21
0.326523
31
0.0
0
LINE
8
TOP
10
0.250617
20
0.326523
30
0.0
11
0.241905
21
0.320897
31
0.0
0
LINE
8
TOP
10
0.241905
20
0.320897
30
0.0
11
0.233797
21
0.314430
31
0.0
0
LINE
8
TOP
10
0.233797
20
0.314430
30
0.0
11
0.226372
21
0.307189
31
0.0
0
LINE
8
TOP
10
0.226372
20
0.307189
30
0.0
11
0.219706
21
0.299244
31
0.0
0
LINE
8
TOP
10
0.219706
20
0.299244
30
0.0
11
0.213864
21
0.290676
31
0.0
0
LINE
8
TOP
10
0.213864
20
0.290676
30
0.0
11
0.208904
21
0.281568
31
0.0
0
LINE
8
TOP
10
0.208904
20
0.281568
30
0.0
11
0.204876
21
0.272011
31
0.0
0
LINE
8
TOP
10
0.204876
20
0.272011
30
0.0
11
0.201819
21
0.262101
31
0.0
0
LINE
8
TOP
10
0.201819
20
0.262101
30
0.0
11
0.199764
21
0.251936
31
0.0
0
LINE
8
TOP
10
0.199764
20
0.251936
30
0.0
11
0.198731
21
0.241616
31
0.0
0
LINE
8
TOP
10
0.198731
20
0.241616
30
0.0
11
0.198731
21
0.231245
31
0.0
0
LINE
8
TOP
10
0.198731
20
0.231245
30
0.0
11
0.199764
21
0.220926
31
0.0
0
LINE
8
TOP
10
0.199764
20
0.220926
30
0.0
11
0.201819
21
0.210761
31
0.0
0
LINE
8
TOP
10
0.201819
20
0.210761
30
0.0
11
0.204876
21
0.200851
31
0.0
0
LINE
8
TOP
10
0.204876
20
0.200851
30
0.0
11
0.208904
21
0.191294
31
0.0
0
LINE
8
TOP
10
0.208904
20
0.191294
30
0.0
11
0.213864
21
0.182186
31
0.0
0
LINE
8
TOP
10
0.213864
20
0.182186
30
0.0
11
0.219706
21
0.173617
31
0.0
0
LINE
8
TOP
10
0.219706
20
0.173617
30
0.0
11
0.226372
21
0.165673
31
0.0
0
LINE
8
TOP
10
0.226372
20
0.165673
30
0.0
11
0.233797
21
0.158431
31
0.0
0
LINE
8
TOP
10
0.233797
20
0.158431
30
0.0
11
0.241905
21
0.151965
31
0.0
0
LINE
8
TOP
10
0.241905
20
0.151965
30
0.0
11
0.250617
21
0.146339
31
0.0
0
LINE
8
TOP
10
0.250617
20
0.146339
30
0.0
11
0.259846
21
0.141607
31
0.0
0
LINE
8
TOP
10
0.259846
20
0.141607
30
0.0
11
0.269500
21
0.137818
31
0.0
0
LINE
8
TOP
10
0.269500
20
0.137818
30
0.0
11
0.279483
21
0.135010
31
0.0
0
LINE
8
TOP
10
0.279483
20
0.135010
30
0.0
11
0.289696
21
0.133209
31
0.0
0
LINE
8
TOP
10
0.289696
20
0.133209
30
0.0
11
0.300038
21
0.132434
31
0.0
0
LINE
8
TOP
10
0.300038
20
0.132434
30
0.0
11
0.310406
21
0.132692
31
0.0
0
LINE
8
TOP
10
0.310406
20
0.132692
30
0.0
11
0.320696
21
0.133982
31
0.0
0
LINE
8
TOP
10
0.320696
20
0.133982
30
0.0
11
0.330807
21
0.136290
31
0.0
0
LINE
8
TOP
10
0.330807
20
0.136290
30
0.0
11
0.340638
21
0.139592
31
0.0
0
LINE
8
TOP
10
0.340638
20
0.139592
30
0.0
11
0.350091
21
0.143858
31
0.0
0
LINE
8
TOP
10
0.350091
20
0.143858
30
0.0
11
0.359072
21
0.149043
31
0.0
0
LINE
8
TOP
10
0.359072
20
0.149043
30
0.0
11
0.367493
21
0.155097
31
0.0
0
LINE
8
TOP
10
0.367493
20
0.155097
30
0.0
11
0.375269
21
0.161960
31
0.0
0
LINE
8
TOP
10
0.375269
20
0.161960
30
0.0
11
0.382323
21
0.169562
31
0.0
0
LINE
8
TOP
10
0.382323
20
0.169562
30
0.0
11
0.388585
21
0.177829
31
0.0
0
LINE
8
TOP
10
0.388585
20
0.177829
30
0.0
11
0.393993
21
0.186678
31
0.0
0
LINE
8
TOP
10
0.393993
20
0.186678
30
0.0
11
0.398492
21
0.196022
31
0.0
0
LINE
8
TOP
10
0.398492
20
0.196022
30
0.0
11
0.402039
21
0.205768
31
0.0
0
LINE
8
TOP
10
0.402039
20
0.205768
30
0.0
11
0.404599
21
0.215818
31
0.0
0
LINE
8
TOP
10
0.404599
20
0.215818
30
0.0
11
0.406144
21
0.226073
31
0.0
0
LINE
8
TOP
10
0.406144
20
0.226073
30
0.0
11
0.406661
21
0.236431
31
0.0
0
LINE
8
TOP
10
0.406661
20
0.662007
30
0.0
11
0.406144
21
0.672365
31
0.0
0
LINE
8
TOP
10
0.406144
20
0.672365
30
0.0
11
0.404599
21
0.682620
31
0.0
0
LINE
8
TOP
10
0.404599
20
0.682620
30
0.0
11
0.402039
21
0.692670
31
0.0
0
LINE
8
TOP
10
0.402039
20
0.692670
30
0.0
11
0.398492
21
0.702415
31
0.0
0
LINE
8
TOP
10
0.398492
20
0.702415
30
0.0
11
0.393993
21
0.711759
31
0.0
0
LINE
8
TOP
10
0.393993
20
0.711759
30
0.0
11
0.388585
21
0.720609
31
0.0
0
LINE
8
TOP
10
0.388585
20
0.720609
30
0.0
11
0.382323
21
0.728876
31
0.0
0
LINE
8
TOP
10
0.382323
20
0.728876
30
0.0
11
0.375269
21
0.736478
31
0.0
0
LINE
8
TOP
10
0.375269
20
0.736478
30
0.0
11
0.367493
21
0.743340
31
0.0
0
LINE
8
TOP
10
0.367493
20
0.743340
30
0.0
11
0.359072
21
0.749394
31
0.0
0
LINE
8
TOP
10
0.359072
20
0.749394
30
0.0
11
0.350091
21
0.754580
31
0.0
0
LINE
8
TOP
10
0.350091
20
0.754580
30
0.0
11
0.340638
21
0.758845
31
0.0
0
LINE
8
TOP
10
0.340638
20
0.758845
30
0.0
11
0.330807
21
0.762148
31
0.0
0
LINE
8
TOP
10
0.330807
20
0.762148
30
0.0
11
0.320696
21
0.764456
31
0.0
0
LINE
8
TOP
10
0.320696
20
0.764456
30
0.0
11
0.310406
21
0.765745
31
0.0
0
LINE
8
TOP
10
0.310406
20
0.765745
30
0.0
11
0.300038
21
0.766004
31
0.0
0
LINE
8
TOP
10
0.300038
20
0.766004
30
0.0
11
0.289696
21
0.765229
31
0.0
0
LINE
8
TOP
10
0.289696
20
0.765229
30
0.0
11
0.279483
21
0.763428
31
0.0
0
LINE
8
TOP
10
0.279483
20
0.763428
30
0.0
11
0.269500
21
0.760619
31
0.0
0
LINE
8
TOP
10
0.269500
20
0.760619
30
0.0
11
0.259846
21
0.756830
31
0.0
0
LINE
8
TOP
10
0.259846
20
0.756830
30
0.0
11
0.250617
21
0.752099
31
0.0
0
LINE
8
TOP
10
0.250617
20
0.752099
30
0.0
11
0.241905
21
0.746472
31
0.0
0
LINE
8
TOP
10
0.241905
20
0.746472
30
0.0
11
0.233797
21
0.740006
31
0.0
0
LINE
8
TOP
10
0.233797
20
0.740006
30
0.0
11
0.226372
21
0.732765
31
0.0
0
LINE
8
TOP
10
0.226372
20
0.732765
30
0.0
11
0.219706
21
0.724820
31
0.0
0
LINE
8
TOP
10
0.219706
20
0.724820
30
0.0
11
0.213864
21
0.716251
31
0.0
0
LINE
8
TOP
10
0.213864
20
0.716251
30
0.0
11
0.208904
21
0.707143
31
0.0
0
LINE
8
TOP
10
0.208904
20
0.707143
30
0.0
11
0.204876
21
0.697587
31
0.0
0
LINE
8
TOP
10
0.204876
20
0.697587
30
0.0
11
0.201819
21
0.687677
31
0.0
0
LINE
8
TOP
10
0.201819
20
0.687677
30
0.0
11
0.199764
21
0.677511
31
0.0
0
LINE
8
TOP
10
0.199764
20
0.677511
30
0.0
11
0.198731
21
0.667192
31
0.0
0
LINE
8
TOP
10
0.198731
20
0.667192
30
0.0
11
0.198731
21
0.656821
31
0.0
0
LINE
8
TOP
10
0.198731
20
0.656821
30
0.0
11
0.199764
21
0.646502
31
0.0
0
LINE
8
TOP
10
0.199764
20
0.646502
30
0.0
11
0.201819
21
0.636337
31
0.0
0
LINE
8
TOP
10
0.201819
20
0.636337
30
0.0
11
0.204876
21
0.626426
31
0.0
0
LINE
8
TOP
10
0.204876
20
0.626426
30
0.0
11
0.208904
21
0.616870
31
0.0
0
LINE
8
TOP
10
0.208904
20
0.616870
30
0.0
11
0.213864
21
0.607762
31
0.0
0
LINE
8
TOP
10
0.213864
20
0.607762
30
0.0
11
0.219706
21
0.599193
31
0.0
0
LINE
8
TOP
10
0.219706
20
0.599193
30
0.0
11
0.226372
21
0.591248
31
0.0
0
LINE
8
TOP
10
0.226372
20
0.591248
30
0.0
11
0.233797
21
0.584007
31
0.0
0
LINE
8
TOP
10
0.233797
20
0.584007
30
0.0
11
0.241905
21
0.577541
31
0.0
0
LINE
8
TOP
10
0.241905
20
0.577541
30
0.0
11
0.250617
21
0.571914
31
0.0
0
LINE
8
TOP
10
0.250617
20
0.571914
30
0.0
11
0.259846
21
0.567183
31
0.0
0
LINE
8
TOP
10
0.259846
20
0.567183
30
0.0
11
0.269500
21
0.563394
31
0.0
0
LINE
8
TOP
10
0.269500
20
0.563394
30
0.0
11
0.279483
21
0.560585
31
0.0
0
LINE
8
TOP
10
0.279483
20
0.560585
30
0.0
11
0.289696
21
0.558784
31
0.0
0
LINE
8
TOP
10
0.289696
20
0.558784
30
0.0
11
0.300038
21
0.558009
31
0.0
0
LINE
8
TOP
10
0.300038
20
0.558009
30
0.0
11
0.310406
21
0.558268
31
0.0
0
LINE
8
TOP
10
0.310406
20
0.558268
30
0.0
11
0.320696
21
0.559557
31
0.0
0
LINE
8
TOP
10
0.320696
20
0.559557
30
0.0
11
0.330807
21
0.561865
31
0.0
0
LINE
8
TOP
10
0.330807
20
0.561865
30
0.0
11
0.340638
21
0.565168
31
0.0
0
LINE
8
TOP
10
0.340638
20
0.565168
30
0.0
11
0.350091
21
0.569434
31
0.0
0
LINE
8
TOP
10
0.350091
20
0.569434
30
0.0
11
0.359072
21
0.574619
31
0.0
0
LINE
8
TOP
10
0.359072
20
0.574619
30
0.0
11
0.367493
21
0.580673
31
0.0
0
LINE
8
TOP
10
0.367493
20
0.580673
30
0.0
11
0.375269
21
0.587535
31
0.0
0
LINE
8
TOP
10
0.375269
20
0.587535
30
0.0
11
0.382323
21
0.595138
31
0.0
0
LINE
8
TOP
10
0.382323
20
0.595138
30
0.0
11
0.388585
21
0.603405
31
0.0
0
LINE
8
TOP
10
0.388585
20
0.603405
30
0.0
11
0.393993
21
0.612254
31
0.0
0
LINE
8
TOP
10
0.393993
20
0.612254
30
0.0
11
0.398492
21
0.621598
31
0.0
0
LINE
8
TOP
10
0.398492
20
0.621598
30
0.0
11
0.402039
21
0.631343
31
0.0
0
LINE
8
TOP
10
0.402039
20
0.631343
30
0.0
11
0.404599
21
0.641394
31
0.0
0
LINE
8
TOP
10
0.404599
20
0.641394
30
0.0
11
0.406144
21
0.651649
31
0.0
0
LINE
8
TOP
10
0.406144
20
0.651649
30
0.0
11
0.406661
21
0.662007
31
0.0
0
LINE
8
TOP
10
0.484375
20
1.023438
30
0.0
11
0.609375
21
1.023438
31
0.0
0
LINE
8
TOP
10
0.609375
20
1.023438
30
0.0
11
0.609375
21
0.000000
31
0.0
0
LINE
8
TOP
10
0.484375
20
0.000000
30
0.0
11
0.609375
21
0.000000
31
0.0
0
LINE
8
TOP
10
0.609375
20
0.000000
30
0.0
11
0.614720
21
0.000000
31
0.0
0
LINE
8
TOP
10
0.614720
20
0.000000
30
0.0
11
0.614720
21
0.898438
31
0.0
0
LINE
8
TOP
10
0.614720
20
0.898438
30
0.0
11
0.609375
21
0.898438
31
0.0
0
LINE
8
TOP_HID
6
HIDDEN
10
0.000000
20
0.906250
30
0.0
11
0.000000
21
1.023438
31
0.0
0
LINE
8
TOP_HID
6
HIDDEN
10
0.000000
20
1.023438
30
0.0
11
0.000000
21
0.906250
31
0.0
0
LINE
8
TOP_HID
6
HIDDEN
10
0.125000
20
0.898438
30
0.0
11
0.125000
21
0.906250
31
0.0
0
LINE
8
TOP_HID
6
HIDDEN
10
0.000000
20
0.898438
30
0.0
11
0.000000
21
0.906250
31
0.0
0
LINE
8
TOP_HID
6
HIDDEN
10
0.609375
20
0.906250
30
0.0
11
0.609375
21
1.023438
31
0.0
0
LINE
8
TOP_HID
6
HIDDEN
10
0.000000
20
0.898438
30
0.0
11
0.000000
21
0.000000
31
0.0
0
LINE
8
TOP_HID
6
HIDDEN
10
0.000000
20
0.237007
30
0.0
11
0.000000
21
0.129276
31
0.0
0
LINE
8
TOP_HID
6
HIDDEN
10
0.000000
20
0.129276
30
0.0
11
0.000000
21
0.344737
31
0.0
0
LINE
8
TOP_HID
6
HIDDEN
10
0.000000
20
0.344737
30
0.0
11
0.000000
21
0.237007
31
0.0
0
LINE
8
TOP_HID
6
HIDDEN
10
0.000000
20
0.657155
30
0.0
11
0.000000
21
0.549424
31
0.0
0
LINE
8
TOP_HID
6
HIDDEN
10
0.000000
20
0.549424
30
0.0
11
0.000000
21
0.764885
31
0.0
0
LINE
8
TOP_HID
6
HIDDEN
10
0.000000
20
0.764885
30
0.0
11
0.000000
21
0.657155
31
0.0
0
LINE
8
TOP_HID
6
HIDDEN
10
0.125000
20
0.898438
30
0.0
11
0.125000
21
0.000000
31
0.0
0
LINE
8
TOP_HID
6
HIDDEN
10
0.125000
20
1.023438
30
0.0
11
0.125000
21
0.906250
31
0.0
0
LINE
8
TOP_HID
6
HIDDEN
10
0.125000
20
0.237007
30
0.0
11
0.125000
21
0.129276
31
0.0
0
LINE
8
TOP_HID
6
HIDDEN
10
0.125000
20
0.129276
30
0.0
11
0.125000
21
0.344737
31
0.0
0
LINE
8
TOP_HID
6
HIDDEN
10
0.125000
20
0.344737
30
0.0
11
0.125000
21
0.237007
31
0.0
0
LINE
8
TOP_HID
6
HIDDEN
10
0.125000
20
0.657155
30
0.0
11
0.125000
21
0.549424
31
0.0
0
LINE
8
TOP_HID
6
HIDDEN
10
0.125000
20
0.549424
30
0.0
11
0.125000
21
0.764885
31
0.0
0
LINE
8
TOP_HID
6
HIDDEN
10
0.125000
20
0.764885
30
0.0
11
0.125000
21
0.657155
31
0.0
0
LINE
8
TOP_HID
6
HIDDEN
10
0.000000
20
0.000000
30
0.0
11
0.000000
21
0.898438
31
0.0
0
LINE
8
TOP_HID
6
HIDDEN
10
0.484375
20
1.023438
30
0.0
11
0.484375
21
0.906250
31
0.0
0
LINE
8
TOP_HID
6
HIDDEN
10
0.609375
20
0.906250
30
0.0
11
0.609375
21
1.023438
31
0.0
0
LINE
8
TOP_HID
6
HIDDEN
10
0.484375
20
0.898438
30
0.0
11
0.484375
21
0.906250
31
0.0
0
LINE
8
TOP_HID
6
HIDDEN
10
0.609375
20
0.898438
30
0.0
11
0.609375
21
0.906250
31
0.0
0
LINE
8
TOP_HID
6
HIDDEN
10
0.484375
20
0.898438
30
0.0
11
0.484375
21
0.000000
31
0.0
0
LINE
8
TOP_HID
6
HIDDEN
10
0.484375
20
0.237007
30
0.0
11
0.484375
21
0.129276
31
0.0
0
LINE
8
TOP_HID
6
HIDDEN
10
0.484375
20
0.129276
30
0.0
11
0.484375
21
0.344737
31
0.0
0
LINE
8
TOP_HID
6
HIDDEN
10
0.484375
20
0.344737
30
0.0
11
0.484375
21
0.237007
31
0.0
0
LINE
8
TOP_HID
6
HIDDEN
10
0.484375
20
0.657155
30
0.0
11
0.484375
21
0.549424
31
0.0
0
LINE
8
TOP_HID
6
HIDDEN
10
0.484375
20
0.549424
30
0.0
11
0.484375
21
0.764885
31
0.0
0
LINE
8
TOP_HID
6
HIDDEN
10
0.484375
20
0.764885
30
0.0
11
0.484375
21
0.657155
31
0.0
0
LINE
8
TOP_HID
6
HIDDEN
10
0.609375
20
0.898438
30
0.0
11
0.609375
21
0.000000
31
0.0
0
LINE
8
TOP_HID
6
HIDDEN
10
0.609375
20
0.237007
30
0.0
11
0.609375
21
0.129276
31
0.0
0
LINE
8
TOP_HID
6
HIDDEN
10
0.609375
20
0.129276
30
0.0
11
0.609375
21
0.344737
31
0.0
0
LINE
8
TOP_HID
6
HIDDEN
10
0.609375
20
0.344737
30
0.0
11
0.609375
21
0.237007
31
0.0
0
LINE
8
TOP_HID
6
HIDDEN
10
0.609375
20
0.657155
30
0.0
11
0.609375
21
0.549424
31
0.0
0
LINE
8
TOP_HID
6
HIDDEN
10
0.609375
20
0.549424
30
0.0
11
0.609375
21
0.764885
31
0.0
0
LINE
8
TOP_HID
6
HIDDEN
10
0.609375
20
0.764885
30
0.0
11
0.609375
21
0.657155
31
0.0
0
LINE
8
TOP_HID
6
HIDDEN
10
0.000000
20
0.129276
30
0.0
11
0.125000
21
0.129276
31
0.0
0
LINE
8
TOP_HID
6
HIDDEN
10
0.000000
20
0.344737
30
0.0
11
0.125000
21
0.344737
31
0.0
0
LINE
8
TOP_HID
6
HIDDEN
10
0.000000
20
0.549424
30
0.0
11
0.125000
21
0.549424
31
0.0
0
LINE
8
TOP_HID
6
HIDDEN
10
0.000000
20
0.764885
30
0.0
11
0.125000
21
0.764885
31
0.0
0
LINE
8
TOP_HID
6
HIDDEN
10
0.609375
20
0.344737
30
0.0
11
0.484375
21
0.344737
31
0.0
0
LINE
8
TOP_HID
6
HIDDEN
10
0.609375
20
0.129276
30
0.0
11
0.484375
21
0.129276
31
0.0
0
LINE
8
TOP_HID
6
HIDDEN
10
0.609375
20
0.764885
30
0.0
11
0.484375
21
0.764885
31
0.0
0
LINE
8
TOP_HID
6
HIDDEN
10
0.609375
20
0.549424
30
0.0
11
0.484375
21
0.549424
31
0.0
0
ENDSEC
0
EOF
