0
SECTION
2
HEADER
9
$ACADVER
1
AC1009
0
ENDSEC
0
SECTION
2
TABLES
0
TABLE
2
LTYPE
70
3
0
LTYPE
2
CONTINUOUS
70
0
3
Solid line
72
65
73
0
40
0.0
0
LTYPE
2
HIDDEN
70
0
3
__ __ __ __ __
72
65
73
2
40
0.075000
49
0.050025
49
-0.024975
0
LTYPE
2
CENTER
70
0
3
___ _ ___ _ ___
72
65
73
4
40
0.174975
49
0.099975
49
-0.024975
49
0.024975
49
-0.024975
0
ENDTAB
0
TABLE
2
LAYER
70
6
0
LAYER
2
0
70
0
62
7
6
CONTINUOUS
0
LAYER
2
FRONT
70
0
62
7
6
CONTINUOUS
0
LAYER
2
FRONT_HID
70
0
62
7
6
HIDDEN
0
LAYER
2
LEFT
70
0
62
7
6
CONTINUOUS
0
LAYER
2
LEFT_HID
70
0
62
7
6
HIDDEN
0
LAYER
2
TOP
70
0
62
7
6
CONTINUOUS
0
ENDTAB
0
ENDSEC
0
SECTION
2
ENTITIES
0
LINE
8
FRONT
10
1.500000
20
1.026316
30
0.0
11
1.500000
21
1.057566
31
0.0
0
LINE
8
FRONT
10
1.500000
20
1.057566
30
0.0
11
0.505263
21
1.057566
31
0.0
0
LINE
8
FRONT
10
0.505263
20
1.026316
30
0.0
11
0.505263
21
1.057566
31
0.0
0
LINE
8
FRONT
10
1.500000
20
1.026316
30
0.0
11
0.505263
21
1.026316
31
0.0
0
LINE
8
FRONT
10
0.505263
20
1.057566
30
0.0
11
0.315789
21
1.057566
31
0.0
0
LINE
8
FRONT
10
0.505263
20
1.026316
30
0.0
11
0.315789
21
1.026316
31
0.0
0
LINE
8
FRONT
10
0.315789
20
1.026316
30
0.0
11
0.315789
21
1.057566
31
0.0
0
LINE
8
FRONT
10
0.315789
20
1.057566
30
0.0
11
0.000000
21
1.057566
31
0.0
0
LINE
8
FRONT
10
0.000000
20
1.026316
30
0.0
11
0.000000
21
1.057566
31
0.0
0
LINE
8
FRONT
10
0.315789
20
1.026316
30
0.0
11
0.000000
21
1.026316
31
0.0
0
LINE
8
FRONT_HID
6
HIDDEN
10
0.000000
20
1.057566
30
0.0
11
1.500000
21
1.057566
31
0.0
0
LINE
8
FRONT_HID
6
HIDDEN
10
0.000000
20
1.026316
30
0.0
11
1.500000
21
1.026316
31
0.0
0
LINE
8
FRONT_HID
6
HIDDEN
10
0.157895
20
1.026316
30
0.0
11
0.094737
21
1.026316
31
0.0
0
LINE
8
FRONT_HID
6
HIDDEN
10
0.094737
20
1.026316
30
0.0
11
0.157895
21
1.026316
31
0.0
0
LINE
8
FRONT_HID
6
HIDDEN
10
0.157895
20
1.026316
30
0.0
11
0.157895
21
1.057566
31
0.0
0
LINE
8
FRONT_HID
6
HIDDEN
10
0.157895
20
1.057566
30
0.0
11
0.094737
21
1.057566
31
0.0
0
LINE
8
FRONT_HID
6
HIDDEN
10
0.094737
20
1.057566
30
0.0
11
0.157895
21
1.057566
31
0.0
0
LINE
8
FRONT_HID
6
HIDDEN
10
1.121053
20
1.026316
30
0.0
11
1.057895
21
1.026316
31
0.0
0
LINE
8
FRONT_HID
6
HIDDEN
10
1.057895
20
1.026316
30
0.0
11
1.121053
21
1.026316
31
0.0
0
LINE
8
FRONT_HID
6
HIDDEN
10
1.121053
20
1.026316
30
0.0
11
1.121053
21
1.057566
31
0.0
0
LINE
8
FRONT_HID
6
HIDDEN
10
1.121053
20
1.057566
30
0.0
11
1.057895
21
1.057566
31
0.0
0
LINE
8
FRONT_HID
6
HIDDEN
10
1.057895
20
1.057566
30
0.0
11
1.121053
21
1.057566
31
0.0
0
LINE
8
FRONT_HID
6
HIDDEN
10
0.094737
20
1.057566
30
0.0
11
0.094737
21
1.026316
31
0.0
0
LINE
8
FRONT_HID
6
HIDDEN
10
1.057895
20
1.057566
30
0.0
11
1.057895
21
1.026316
31
0.0
0
LINE
8
LEFT
10
2.526316
20
1.026316
30
0.0
11
2.526316
21
1.057566
31
0.0
0
LINE
8
LEFT
10
1.800000
20
1.026316
30
0.0
11
1.800000
21
1.057566
31
0.0
0
LINE
8
LEFT
10
1.800000
20
1.057566
30
0.0
11
2.526316
21
1.057566
31
0.0
0
LINE
8
LEFT
10
1.800000
20
1.026316
30
0.0
11
2.526316
21
1.026316
31
0.0
0
LINE
8
LEFT_HID
6
HIDDEN
10
1.800000
20
1.057566
30
0.0
11
1.989474
21
1.057566
31
0.0
0
LINE
8
LEFT_HID
6
HIDDEN
10
1.989474
20
1.026316
30
0.0
11
1.989474
21
1.057566
31
0.0
0
LINE
8
LEFT_HID
6
HIDDEN
10
1.800000
20
1.026316
30
0.0
11
1.989474
21
1.026316
31
0.0
0
LINE
8
LEFT_HID
6
HIDDEN
10
1.989474
20
1.026316
30
0.0
11
1.989474
21
1.057566
31
0.0
0
LINE
8
LEFT_HID
6
HIDDEN
10
1.989474
20
1.057566
30
0.0
11
1.800000
21
1.057566
31
0.0
0
LINE
8
LEFT_HID
6
HIDDEN
10
1.989474
20
1.026316
30
0.0
11
1.800000
21
1.026316
31
0.0
0
LINE
8
LEFT_HID
6
HIDDEN
10
2.194737
20
1.026316
30
0.0
11
2.163158
21
1.026316
31
0.0
0
LINE
8
LEFT_HID
6
HIDDEN
10
2.163158
20
1.026316
30
0.0
11
2.226316
21
1.026316
31
0.0
0
LINE
8
LEFT_HID
6
HIDDEN
10
2.226316
20
1.026316
30
0.0
11
2.194737
21
1.026316
31
0.0
0
LINE
8
LEFT_HID
6
HIDDEN
10
2.194737
20
1.057566
30
0.0
11
2.163158
21
1.057566
31
0.0
0
LINE
8
LEFT_HID
6
HIDDEN
10
2.163158
20
1.057566
30
0.0
11
2.226316
21
1.057566
31
0.0
0
LINE
8
LEFT_HID
6
HIDDEN
10
2.226316
20
1.057566
30
0.0
11
2.194737
21
1.057566
31
0.0
0
LINE
8
LEFT_HID
6
HIDDEN
10
2.036842
20
1.026316
30
0.0
11
2.005263
21
1.026316
31
0.0
0
LINE
8
LEFT_HID
6
HIDDEN
10
2.005263
20
1.026316
30
0.0
11
2.068421
21
1.026316
31
0.0
0
LINE
8
LEFT_HID
6
HIDDEN
10
2.068421
20
1.026316
30
0.0
11
2.036842
21
1.026316
31
0.0
0
LINE
8
LEFT_HID
6
HIDDEN
10
2.036842
20
1.057566
30
0.0
11
2.005263
21
1.057566
31
0.0
0
LINE
8
LEFT_HID
6
HIDDEN
10
2.005263
20
1.057566
30
0.0
11
2.068421
21
1.057566
31
0.0
0
LINE
8
LEFT_HID
6
HIDDEN
10
2.068421
20
1.057566
30
0.0
11
2.036842
21
1.057566
31
0.0
0
LINE
8
LEFT_HID
6
HIDDEN
10
2.163158
20
1.057566
30
0.0
11
2.163158
21
1.026316
31
0.0
0
LINE
8
LEFT_HID
6
HIDDEN
10
2.226316
20
1.057566
30
0.0
11
2.226316
21
1.026316
31
0.0
0
LINE
8
LEFT_HID
6
HIDDEN
10
2.005263
20
1.057566
30
0.0
11
2.005263
21
1.026316
31
0.0
0
LINE
8
LEFT_HID
6
HIDDEN
10
2.068421
20
1.057566
30
0.0
11
2.068421
21
1.026316
31
0.0
0
LINE
8
TOP
10
0.000000
20
0.000000
30
0.0
11
1.500000
21
0.000000
31
0.0
0
LINE
8
TOP
10
1.500000
20
0.000000
30
0.0
11
1.500000
21
0.726316
31
0.0
0
LINE
8
TOP
10
1.500000
20
0.726316
30
0.0
11
0.505263
21
0.726316
31
0.0
0
LINE
8
TOP
10
0.505263
20
0.726316
30
0.0
11
0.505263
21
0.536842
31
0.0
0
LINE
8
TOP
10
0.505263
20
0.536842
30
0.0
11
0.315789
21
0.536842
31
0.0
0
LINE
8
TOP
10
0.315789
20
0.536842
30
0.0
11
0.315789
21
0.726316
31
0.0
0
LINE
8
TOP
10
0.315789
20
0.726316
30
0.0
11
0.000000
21
0.726316
31
0.0
0
LINE
8
TOP
10
0.000000
20
0.726316
30
0.0
11
0.000000
21
0.000000
31
0.0
0
LINE
8
TOP
10
0.157895
20
0.331579
30
0.0
11
0.157738
21
0.334723
31
0.0
0
LINE
8
TOP
10
0.157738
20
0.334723
30
0.0
11
0.157269
21
0.337836
31
0.0
0
LINE
8
TOP
10
0.157269
20
0.337836
30
0.0
11
0.156492
21
0.340887
31
0.0
0
LINE
8
TOP
10
0.156492
20
0.340887
30
0.0
11
0.155415
21
0.343845
31
0.0
0
LINE
8
TOP
10
0.155415
20
0.343845
30
0.0
11
0.154049
21
0.346682
31
0.0
0
LINE
8
TOP
10
0.154049
20
0.346682
30
0.0
11
0.152408
21
0.349368
31
0.0
0
LINE
8
TOP
10
0.152408
20
0.349368
30
0.0
11
0.150507
21
0.351878
31
0.0
0
LINE
8
TOP
10
0.150507
20
0.351878
30
0.0
11
0.148365
21
0.354185
31
0.0
0
LINE
8
TOP
10
0.148365
20
0.354185
30
0.0
11
0.146005
21
0.356268
31
0.0
0
LINE
8
TOP
10
0.146005
20
0.356268
30
0.0
11
0.143449
21
0.358106
31
0.0
0
LINE
8
TOP
10
0.143449
20
0.358106
30
0.0
11
0.140722
21
0.359680
31
0.0
0
LINE
8
TOP
10
0.140722
20
0.359680
30
0.0
11
0.137853
21
0.360975
31
0.0
0
LINE
8
TOP
10
0.137853
20
0.360975
30
0.0
11
0.134869
21
0.361978
31
0.0
0
LINE
8
TOP
10
0.134869
20
0.361978
30
0.0
11
0.131799
21
0.362678
31
0.0
0
LINE
8
TOP
10
0.131799
20
0.362678
30
0.0
11
0.128676
21
0.363070
31
0.0
0
LINE
8
TOP
10
0.128676
20
0.363070
30
0.0
11
0.125529
21
0.363148
31
0.0
0
LINE
8
TOP
10
0.125529
20
0.363148
30
0.0
11
0.122389
21
0.362913
31
0.0
0
LINE
8
TOP
10
0.122389
20
0.362913
30
0.0
11
0.119289
21
0.362366
31
0.0
0
LINE
8
TOP
10
0.119289
20
0.362366
30
0.0
11
0.116258
21
0.361513
31
0.0
0
LINE
8
TOP
10
0.116258
20
0.361513
30
0.0
11
0.113328
21
0.360363
31
0.0
0
LINE
8
TOP
10
0.113328
20
0.360363
30
0.0
11
0.110526
21
0.358927
31
0.0
0
LINE
8
TOP
10
0.110526
20
0.358927
30
0.0
11
0.107882
21
0.357219
31
0.0
0
LINE
8
TOP
10
0.107882
20
0.357219
30
0.0
11
0.105420
21
0.355256
31
0.0
0
LINE
8
TOP
10
0.105420
20
0.355256
30
0.0
11
0.103167
21
0.353058
31
0.0
0
LINE
8
TOP
10
0.103167
20
0.353058
30
0.0
11
0.101143
21
0.350646
31
0.0
0
LINE
8
TOP
10
0.101143
20
0.350646
30
0.0
11
0.099370
21
0.348045
31
0.0
0
LINE
8
TOP
10
0.099370
20
0.348045
30
0.0
11
0.097864
21
0.345281
31
0.0
0
LINE
8
TOP
10
0.097864
20
0.345281
30
0.0
11
0.096641
21
0.342380
31
0.0
0
LINE
8
TOP
10
0.096641
20
0.342380
30
0.0
11
0.095713
21
0.339371
31
0.0
0
LINE
8
TOP
10
0.095713
20
0.339371
30
0.0
11
0.095090
21
0.336286
31
0.0
0
LINE
8
TOP
10
0.095090
20
0.336286
30
0.0
11
0.094776
21
0.333153
31
0.0
0
LINE
8
TOP
10
0.094776
20
0.333153
30
0.0
11
0.094776
21
0.330005
31
0.0
0
LINE
8
TOP
10
0.094776
20
0.330005
30
0.0
11
0.095090
21
0.326872
31
0.0
0
LINE
8
TOP
10
0.095090
20
0.326872
30
0.0
11
0.095713
21
0.323787
31
0.0
0
LINE
8
TOP
10
0.095713
20
0.323787
30
0.0
11
0.096641
21
0.320778
31
0.0
0
LINE
8
TOP
10
0.096641
20
0.320778
30
0.0
11
0.097864
21
0.317877
31
0.0
0
LINE
8
TOP
10
0.097864
20
0.317877
30
0.0
11
0.099370
21
0.315113
31
0.0
0
LINE
8
TOP
10
0.099370
20
0.315113
30
0.0
11
0.101143
21
0.312511
31
0.0
0
LINE
8
TOP
10
0.101143
20
0.312511
30
0.0
11
0.103167
21
0.310100
31
0.0
0
LINE
8
TOP
10
0.103167
20
0.310100
30
0.0
11
0.105420
21
0.307902
31
0.0
0
LINE
8
TOP
10
0.105420
20
0.307902
30
0.0
11
0.107882
21
0.305939
31
0.0
0
LINE
8
TOP
10
0.107882
20
0.305939
30
0.0
11
0.110526
21
0.304231
31
0.0
0
LINE
8
TOP
10
0.110526
20
0.304231
30
0.0
11
0.113328
21
0.302795
31
0.0
0
LINE
8
TOP
10
0.113328
20
0.302795
30
0.0
11
0.116258
21
0.301644
31
0.0
0
LINE
8
TOP
10
0.116258
20
0.301644
30
0.0
11
0.119289
21
0.300792
31
0.0
0
LINE
8
TOP
10
0.119289
20
0.300792
30
0.0
11
0.122389
21
0.300245
31
0.0
0
LINE
8
TOP
10
0.122389
20
0.300245
30
0.0
11
0.125529
21
0.300010
31
0.0
0
LINE
8
TOP
10
0.125529
20
0.300010
30
0.0
11
0.128676
21
0.300088
31
0.0
0
LINE
8
TOP
10
0.128676
20
0.300088
30
0.0
11
0.131799
21
0.300480
31
0.0
0
LINE
8
TOP
10
0.131799
20
0.300480
30
0.0
11
0.134869
21
0.301180
31
0.0
0
LINE
8
TOP
10
0.134869
20
0.301180
30
0.0
11
0.137853
21
0.302183
31
0.0
0
LINE
8
TOP
10
0.137853
20
0.302183
30
0.0
11
0.140722
21
0.303478
31
0.0
0
LINE
8
TOP
10
0.140722
20
0.303478
30
0.0
11
0.143449
21
0.305052
31
0.0
0
LINE
8
TOP
10
0.143449
20
0.305052
30
0.0
11
0.146005
21
0.306890
31
0.0
0
LINE
8
TOP
10
0.146005
20
0.306890
30
0.0
11
0.148365
21
0.308973
31
0.0
0
LINE
8
TOP
10
0.148365
20
0.308973
30
0.0
11
0.150507
21
0.311280
31
0.0
0
LINE
8
TOP
10
0.150507
20
0.311280
30
0.0
11
0.152408
21
0.313790
31
0.0
0
LINE
8
TOP
10
0.152408
20
0.313790
30
0.0
11
0.154049
21
0.316476
31
0.0
0
LINE
8
TOP
10
0.154049
20
0.316476
30
0.0
11
0.155415
21
0.319313
31
0.0
0
LINE
8
TOP
10
0.155415
20
0.319313
30
0.0
11
0.156492
21
0.322271
31
0.0
0
LINE
8
TOP
10
0.156492
20
0.322271
30
0.0
11
0.157269
21
0.325322
31
0.0
0
LINE
8
TOP
10
0.157269
20
0.325322
30
0.0
11
0.157738
21
0.328435
31
0.0
0
LINE
8
TOP
10
0.157738
20
0.328435
30
0.0
11
0.157895
21
0.331579
31
0.0
0
LINE
8
TOP
10
1.121053
20
0.489474
30
0.0
11
1.120896
21
0.492618
31
0.0
0
LINE
8
TOP
10
1.120896
20
0.492618
30
0.0
11
1.120426
21
0.495731
31
0.0
0
LINE
8
TOP
10
1.120426
20
0.495731
30
0.0
11
1.119650
21
0.498782
31
0.0
0
LINE
8
TOP
10
1.119650
20
0.498782
30
0.0
11
1.118573
21
0.501740
31
0.0
0
LINE
8
TOP
10
1.118573
20
0.501740
30
0.0
11
1.117207
21
0.504576
31
0.0
0
LINE
8
TOP
10
1.117207
20
0.504576
30
0.0
11
1.115565
21
0.507263
31
0.0
0
LINE
8
TOP
10
1.115565
20
0.507263
30
0.0
11
1.113665
21
0.509772
31
0.0
0
LINE
8
TOP
10
1.113665
20
0.509772
30
0.0
11
1.111523
21
0.512080
31
0.0
0
LINE
8
TOP
10
1.111523
20
0.512080
30
0.0
11
1.109163
21
0.514163
31
0.0
0
LINE
8
TOP
10
1.109163
20
0.514163
30
0.0
11
1.106607
21
0.516001
31
0.0
0
LINE
8
TOP
10
1.106607
20
0.516001
30
0.0
11
1.103880
21
0.517575
31
0.0
0
LINE
8
TOP
10
1.103880
20
0.517575
30
0.0
11
1.101011
21
0.518870
31
0.0
0
LINE
8
TOP
10
1.101011
20
0.518870
30
0.0
11
1.098027
21
0.519872
31
0.0
0
LINE
8
TOP
10
1.098027
20
0.519872
30
0.0
11
1.094957
21
0.520573
31
0.0
0
LINE
8
TOP
10
1.094957
20
0.520573
30
0.0
11
1.091834
21
0.520964
31
0.0
0
LINE
8
TOP
10
1.091834
20
0.520964
30
0.0
11
1.088686
21
0.521043
31
0.0
0
LINE
8
TOP
10
1.088686
20
0.521043
30
0.0
11
1.085547
21
0.520808
31
0.0
0
LINE
8
TOP
10
1.085547
20
0.520808
30
0.0
11
1.082447
21
0.520261
31
0.0
0
LINE
8
TOP
10
1.082447
20
0.520261
30
0.0
11
1.079416
21
0.519408
31
0.0
0
LINE
8
TOP
10
1.079416
20
0.519408
30
0.0
11
1.076486
21
0.518258
31
0.0
0
LINE
8
TOP
10
1.076486
20
0.518258
30
0.0
11
1.073684
21
0.516822
31
0.0
0
LINE
8
TOP
10
1.073684
20
0.516822
30
0.0
11
1.071040
21
0.515114
31
0.0
0
LINE
8
TOP
10
1.071040
20
0.515114
30
0.0
11
1.068578
21
0.513151
31
0.0
0
LINE
8
TOP
10
1.068578
20
0.513151
30
0.0
11
1.066325
21
0.510953
31
0.0
0
LINE
8
TOP
10
1.066325
20
0.510953
30
0.0
11
1.064301
21
0.508541
31
0.0
0
LINE
8
TOP
10
1.064301
20
0.508541
30
0.0
11
1.062528
21
0.505940
31
0.0
0
LINE
8
TOP
10
1.062528
20
0.505940
30
0.0
11
1.061022
21
0.503175
31
0.0
0
LINE
8
TOP
10
1.061022
20
0.503175
30
0.0
11
1.059799
21
0.500274
31
0.0
0
LINE
8
TOP
10
1.059799
20
0.500274
30
0.0
11
1.058871
21
0.497266
31
0.0
0
LINE
8
TOP
10
1.058871
20
0.497266
30
0.0
11
1.058247
21
0.494180
31
0.0
0
LINE
8
TOP
10
1.058247
20
0.494180
30
0.0
11
1.057934
21
0.491048
31
0.0
0
LINE
8
TOP
10
1.057934
20
0.491048
30
0.0
11
1.057934
21
0.487900
31
0.0
0
LINE
8
TOP
10
1.057934
20
0.487900
30
0.0
11
1.058247
21
0.484767
31
0.0
0
LINE
8
TOP
10
1.058247
20
0.484767
30
0.0
11
1.058871
21
0.481681
31
0.0
0
LINE
8
TOP
10
1.058871
20
0.481681
30
0.0
11
1.059799
21
0.478673
31
0.0
0
LINE
8
TOP
10
1.059799
20
0.478673
30
0.0
11
1.061022
21
0.475772
31
0.0
0
LINE
8
TOP
10
1.061022
20
0.475772
30
0.0
11
1.062528
21
0.473007
31
0.0
0
LINE
8
TOP
10
1.062528
20
0.473007
30
0.0
11
1.064301
21
0.470406
31
0.0
0
LINE
8
TOP
10
1.064301
20
0.470406
30
0.0
11
1.066325
21
0.467995
31
0.0
0
LINE
8
TOP
10
1.066325
20
0.467995
30
0.0
11
1.068578
21
0.465796
31
0.0
0
LINE
8
TOP
10
1.068578
20
0.465796
30
0.0
11
1.071040
21
0.463834
31
0.0
0
LINE
8
TOP
10
1.071040
20
0.463834
30
0.0
11
1.073684
21
0.462126
31
0.0
0
LINE
8
TOP
10
1.073684
20
0.462126
30
0.0
11
1.076486
21
0.460689
31
0.0
0
LINE
8
TOP
10
1.076486
20
0.460689
30
0.0
11
1.079416
21
0.459539
31
0.0
0
LINE
8
TOP
10
1.079416
20
0.459539
30
0.0
11
1.082447
21
0.458686
31
0.0
0
LINE
8
TOP
10
1.082447
20
0.458686
30
0.0
11
1.085547
21
0.458140
31
0.0
0
LINE
8
TOP
10
1.085547
20
0.458140
30
0.0
11
1.088686
21
0.457905
31
0.0
0
LINE
8
TOP
10
1.088686
20
0.457905
30
0.0
11
1.091834
21
0.457983
31
0.0
0
LINE
8
TOP
10
1.091834
20
0.457983
30
0.0
11
1.094957
21
0.458374
31
0.0
0
LINE
8
TOP
10
1.094957
20
0.458374
30
0.0
11
1.098027
21
0.459075
31
0.0
0
LINE
8
TOP
10
1.098027
20
0.459075
30
0.0
11
1.101011
21
0.460078
31
0.0
0
LINE
8
TOP
10
1.101011
20
0.460078
30
0.0
11
1.103880
21
0.461372
31
0.0
0
LINE
8
TOP
10
1.103880
20
0.461372
30
0.0
11
1.106607
21
0.462947
31
0.0
0
LINE
8
TOP
10
1.106607
20
0.462947
30
0.0
11
1.109163
21
0.464784
31
0.0
0
LINE
8
TOP
10
1.109163
20
0.464784
30
0.0
11
1.111523
21
0.466867
31
0.0
0
LINE
8
TOP
10
1.111523
20
0.466867
30
0.0
11
1.113665
21
0.469175
31
0.0
0
LINE
8
TOP
10
1.113665
20
0.469175
30
0.0
11
1.115565
21
0.471685
31
0.0
0
LINE
8
TOP
10
1.115565
20
0.471685
30
0.0
11
1.117207
21
0.474371
31
0.0
0
LINE
8
TOP
10
1.117207
20
0.474371
30
0.0
11
1.118573
21
0.477207
31
0.0
0
LINE
8
TOP
10
1.118573
20
0.477207
30
0.0
11
1.119650
21
0.480166
31
0.0
0
LINE
8
TOP
10
1.119650
20
0.480166
30
0.0
11
1.120426
21
0.483216
31
0.0
0
LINE
8
TOP
10
1.120426
20
0.483216
30
0.0
11
1.120896
21
0.486329
31
0.0
0
LINE
8
TOP
10
1.120896
20
0.486329
30
0.0
11
1.121053
21
0.489474
31
0.0
0
ENDSEC
0
EOF
