0
SECTION
2
HEADER
9
$ACADVER
1
AC1009
0
ENDSEC
0
SECTION
2
TABLES
0
TABLE
2
LTYPE
70
3
0
LTYPE
2
CONTINUOUS
70
0
3
Solid line
72
65
73
0
40
0.0
0
LTYPE
2
HIDDEN
70
0
3
__ __ __ __ __
72
65
73
2
40
0.075000
49
0.050025
49
-0.024975
0
LTYPE
2
CENTER
70
0
3
___ _ ___ _ ___
72
65
73
4
40
0.174975
49
0.099975
49
-0.024975
49
0.024975
49
-0.024975
0
ENDTAB
0
TABLE
2
LAYER
70
5
0
LAYER
2
0
70
0
62
7
6
CONTINUOUS
0
LAYER
2
FRONT
70
0
62
7
6
CONTINUOUS
0
LAYER
2
LEFT
70
0
62
7
6
CONTINUOUS
0
LAYER
2
TOP
70
0
62
7
6
CONTINUOUS
0
LAYER
2
TOP_HID
70
0
62
7
6
HIDDEN
0
ENDTAB
0
ENDSEC
0
SECTION
2
ENTITIES
0
LINE
8
FRONT
10
0.750000
20
1.143750
30
0.0
11
1.500000
21
1.143750
31
0.0
0
LINE
8
FRONT
10
1.500000
20
1.143750
30
0.0
11
1.500000
21
1.179276
31
0.0
0
LINE
8
FRONT
10
1.500000
20
1.179276
30
0.0
11
1.500000
21
1.188158
31
0.0
0
LINE
8
FRONT
10
0.750000
20
1.188158
30
0.0
11
1.500000
21
1.188158
31
0.0
0
LINE
8
FRONT
10
0.750000
20
1.179276
30
0.0
11
1.500000
21
1.179276
31
0.0
0
LINE
8
FRONT
10
0.750000
20
1.143750
30
0.0
11
0.000000
21
1.143750
31
0.0
0
LINE
8
FRONT
10
0.000000
20
1.143750
30
0.0
11
0.000000
21
1.179276
31
0.0
0
LINE
8
FRONT
10
0.000000
20
1.179276
30
0.0
11
0.000000
21
1.188158
31
0.0
0
LINE
8
FRONT
10
0.750000
20
1.188158
30
0.0
11
0.000000
21
1.188158
31
0.0
0
LINE
8
FRONT
10
0.750000
20
1.179276
30
0.0
11
0.000000
21
1.179276
31
0.0
0
LINE
8
LEFT
10
2.643750
20
1.179276
30
0.0
11
2.608224
21
1.143750
31
0.0
0
LINE
8
LEFT
10
2.643750
20
1.188158
30
0.0
11
2.643750
21
1.179276
31
0.0
0
LINE
8
LEFT
10
2.608224
20
1.143750
30
0.0
11
1.835526
21
1.143750
31
0.0
0
LINE
8
LEFT
10
1.835526
20
1.143750
30
0.0
11
1.800000
21
1.179276
31
0.0
0
LINE
8
LEFT
10
1.800000
20
1.179276
30
0.0
11
1.800000
21
1.188158
31
0.0
0
LINE
8
LEFT
10
1.800000
20
1.188158
30
0.0
11
2.643750
21
1.188158
31
0.0
0
LINE
8
TOP
10
0.750000
20
0.000000
30
0.0
11
1.500000
21
0.000000
31
0.0
0
LINE
8
TOP
10
1.500000
20
0.843750
30
0.0
11
1.500000
21
0.000000
31
0.0
0
LINE
8
TOP
10
0.750000
20
0.843750
30
0.0
11
1.500000
21
0.843750
31
0.0
0
LINE
8
TOP
10
0.750000
20
0.000000
30
0.0
11
0.000000
21
0.000000
31
0.0
0
LINE
8
TOP
10
0.000000
20
0.843750
30
0.0
11
0.000000
21
0.000000
31
0.0
0
LINE
8
TOP
10
0.750000
20
0.843750
30
0.0
11
0.000000
21
0.843750
31
0.0
0
LINE
8
TOP_HID
6
HIDDEN
10
1.500000
20
0.000000
30
0.0
11
1.500000
21
0.035526
31
0.0
0
LINE
8
TOP_HID
6
HIDDEN
10
0.750000
20
0.035526
30
0.0
11
1.500000
21
0.035526
31
0.0
0
LINE
8
TOP_HID
6
HIDDEN
10
1.500000
20
0.035526
30
0.0
11
1.500000
21
0.808224
31
0.0
0
LINE
8
TOP_HID
6
HIDDEN
10
0.750000
20
0.808224
30
0.0
11
1.500000
21
0.808224
31
0.0
0
LINE
8
TOP_HID
6
HIDDEN
10
0.000000
20
0.000000
30
0.0
11
0.000000
21
0.035526
31
0.0
0
LINE
8
TOP_HID
6
HIDDEN
10
0.750000
20
0.035526
30
0.0
11
0.000000
21
0.035526
31
0.0
0
LINE
8
TOP_HID
6
HIDDEN
10
1.500000
20
0.808224
30
0.0
11
1.500000
21
0.843750
31
0.0
0
LINE
8
TOP_HID
6
HIDDEN
10
0.000000
20
0.035526
30
0.0
11
0.000000
21
0.808224
31
0.0
0
LINE
8
TOP_HID
6
HIDDEN
10
0.750000
20
0.808224
30
0.0
11
0.000000
21
0.808224
31
0.0
0
LINE
8
TOP_HID
6
HIDDEN
10
0.000000
20
0.808224
30
0.0
11
0.000000
21
0.843750
31
0.0
0
ENDSEC
0
EOF
