0
SECTION
2
HEADER
9
$ACADVER
1
AC1009
0
ENDSEC
0
SECTION
2
TABLES
0
TABLE
2
LTYPE
70
3
0
LTYPE
2
CONTINUOUS
70
0
3
Solid line
72
65
73
0
40
0.0
0
LTYPE
2
HIDDEN
70
0
3
__ __ __ __ __
72
65
73
2
40
0.048438
49
0.032308
49
-0.016130
0
LTYPE
2
CENTER
70
0
3
___ _ ___ _ ___
72
65
73
4
40
0.113005
49
0.064567
49
-0.016130
49
0.016130
49
-0.016130
0
ENDTAB
0
TABLE
2
LAYER
70
7
0
LAYER
2
0
70
0
62
7
6
CONTINUOUS
0
LAYER
2
FRONT
70
0
62
7
6
CONTINUOUS
0
LAYER
2
FRONT_HID
70
0
62
7
6
HIDDEN
0
LAYER
2
LEFT
70
0
62
7
6
CONTINUOUS
0
LAYER
2
LEFT_HID
70
0
62
7
6
HIDDEN
0
LAYER
2
TOP
70
0
62
7
6
CONTINUOUS
0
LAYER
2
TOP_HID
70
0
62
7
6
HIDDEN
0
ENDTAB
0
ENDSEC
0
SECTION
2
ENTITIES
0
LINE
8
FRONT
10
0.781250
20
1.326563
30
0.0
11
0.781250
21
1.318750
31
0.0
0
LINE
8
FRONT
10
0.101562
20
1.162500
30
0.0
11
0.781250
21
1.162500
31
0.0
0
LINE
8
FRONT
10
0.781250
20
1.327056
30
0.0
11
0.101562
21
1.327056
31
0.0
0
LINE
8
FRONT
10
0.101562
20
1.327056
30
0.0
11
0.101562
21
1.162500
31
0.0
0
LINE
8
FRONT
10
0.781250
20
1.318750
30
0.0
11
0.781250
21
1.162500
31
0.0
0
LINE
8
FRONT
10
0.879687
20
1.318750
30
0.0
11
0.879687
21
1.326563
31
0.0
0
LINE
8
FRONT
10
0.781250
20
1.482813
30
0.0
11
0.781250
21
1.326563
31
0.0
0
LINE
8
FRONT
10
0.781250
20
1.162500
30
0.0
11
0.879687
21
1.162500
31
0.0
0
LINE
8
FRONT
10
0.879687
20
1.162500
30
0.0
11
0.879687
21
1.318750
31
0.0
0
LINE
8
FRONT
10
0.879687
20
1.326563
30
0.0
11
0.879687
21
1.482813
31
0.0
0
LINE
8
FRONT
10
0.879687
20
1.482813
30
0.0
11
0.781250
21
1.482813
31
0.0
0
LINE
8
FRONT
10
0.000000
20
1.162500
30
0.0
11
0.098438
21
1.162500
31
0.0
0
LINE
8
FRONT
10
0.000000
20
1.318750
30
0.0
11
0.000000
21
1.162500
31
0.0
0
LINE
8
FRONT
10
0.098438
20
1.162500
30
0.0
11
0.098438
21
1.318750
31
0.0
0
LINE
8
FRONT
10
0.000000
20
1.326563
30
0.0
11
0.000000
21
1.318750
31
0.0
0
LINE
8
FRONT
10
0.098438
20
1.318750
30
0.0
11
0.098438
21
1.326563
31
0.0
0
LINE
8
FRONT
10
0.000000
20
1.482813
30
0.0
11
0.000000
21
1.326563
31
0.0
0
LINE
8
FRONT
10
0.098438
20
1.326563
30
0.0
11
0.098438
21
1.482813
31
0.0
0
LINE
8
FRONT
10
0.098438
20
1.482813
30
0.0
11
0.000000
21
1.482813
31
0.0
0
LINE
8
FRONT_HID
6
HIDDEN
10
0.781250
20
1.326563
30
0.0
11
0.781250
21
1.327056
31
0.0
0
LINE
8
FRONT_HID
6
HIDDEN
10
0.781250
20
1.482813
30
0.0
11
0.781250
21
1.327056
31
0.0
0
LINE
8
FRONT_HID
6
HIDDEN
10
0.781250
20
1.482813
30
0.0
11
0.781250
21
1.327056
31
0.0
0
LINE
8
LEFT
10
1.721875
20
1.162500
30
0.0
11
1.073438
21
1.162500
31
0.0
0
LINE
8
LEFT
10
1.073438
20
1.318750
30
0.0
11
1.073438
21
1.162500
31
0.0
0
LINE
8
LEFT
10
1.721875
20
1.162500
30
0.0
11
2.042187
21
1.162500
31
0.0
0
LINE
8
LEFT
10
2.042187
20
1.318750
30
0.0
11
2.042187
21
1.162500
31
0.0
0
LINE
8
LEFT
10
1.073438
20
1.326563
30
0.0
11
1.073438
21
1.318750
31
0.0
0
LINE
8
LEFT
10
2.042187
20
1.326563
30
0.0
11
2.042187
21
1.318750
31
0.0
0
LINE
8
LEFT
10
1.721875
20
1.482813
30
0.0
11
1.073438
21
1.482813
31
0.0
0
LINE
8
LEFT
10
1.073438
20
1.482813
30
0.0
11
1.073438
21
1.326563
31
0.0
0
LINE
8
LEFT
10
1.721875
20
1.482813
30
0.0
11
2.042187
21
1.482813
31
0.0
0
LINE
8
LEFT
10
2.042187
20
1.482813
30
0.0
11
2.042187
21
1.326563
31
0.0
0
LINE
8
LEFT_HID
6
HIDDEN
10
1.721875
20
1.318750
30
0.0
11
1.721875
21
1.326563
31
0.0
0
LINE
8
LEFT_HID
6
HIDDEN
10
1.721875
20
1.162500
30
0.0
11
1.721875
21
1.318750
31
0.0
0
LINE
8
LEFT_HID
6
HIDDEN
10
1.721875
20
1.326563
30
0.0
11
1.721875
21
1.327056
31
0.0
0
LINE
8
LEFT_HID
6
HIDDEN
10
1.721875
20
1.327056
30
0.0
11
1.721875
21
1.162500
31
0.0
0
LINE
8
LEFT_HID
6
HIDDEN
10
1.721875
20
1.327056
30
0.0
11
2.042187
21
1.327056
31
0.0
0
LINE
8
LEFT_HID
6
HIDDEN
10
1.721875
20
1.327056
30
0.0
11
2.042187
21
1.327056
31
0.0
0
LINE
8
LEFT_HID
6
HIDDEN
10
2.042187
20
1.327056
30
0.0
11
2.042187
21
1.162500
31
0.0
0
LINE
8
LEFT_HID
6
HIDDEN
10
2.042187
20
1.482813
30
0.0
11
2.042187
21
1.327056
31
0.0
0
LINE
8
LEFT_HID
6
HIDDEN
10
2.042187
20
1.326563
30
0.0
11
2.042187
21
1.327056
31
0.0
0
LINE
8
TOP
10
0.781250
20
0.320313
30
0.0
11
0.101562
21
0.320313
31
0.0
0
LINE
8
TOP
10
0.781250
20
0.320313
30
0.0
11
0.781250
21
0.968750
31
0.0
0
LINE
8
TOP
10
0.781250
20
0.000000
30
0.0
11
0.101562
21
0.000000
31
0.0
0
LINE
8
TOP
10
0.101562
20
0.320313
30
0.0
11
0.101562
21
0.000000
31
0.0
0
LINE
8
TOP
10
0.879687
20
0.968750
30
0.0
11
0.781250
21
0.968750
31
0.0
0
LINE
8
TOP
10
0.781250
20
0.320313
30
0.0
11
0.781250
21
0.000000
31
0.0
0
LINE
8
TOP
10
0.879687
20
0.320313
30
0.0
11
0.879687
21
0.968750
31
0.0
0
LINE
8
TOP
10
0.879687
20
0.000000
30
0.0
11
0.781250
21
0.000000
31
0.0
0
LINE
8
TOP
10
0.879687
20
0.320313
30
0.0
11
0.879687
21
0.000000
31
0.0
0
LINE
8
TOP
10
0.000000
20
0.320313
30
0.0
11
0.000000
21
0.968750
31
0.0
0
LINE
8
TOP
10
0.098438
20
0.320313
30
0.0
11
0.098437
21
0.968750
31
0.0
0
LINE
8
TOP
10
0.098438
20
0.968750
30
0.0
11
0.000000
21
0.968750
31
0.0
0
LINE
8
TOP
10
0.000000
20
0.320313
30
0.0
11
0.000000
21
0.000000
31
0.0
0
LINE
8
TOP
10
0.098438
20
0.320313
30
0.0
11
0.098438
21
0.000000
31
0.0
0
LINE
8
TOP
10
0.098438
20
0.000000
30
0.0
11
0.000000
21
0.000000
31
0.0
0
LINE
8
TOP_HID
6
HIDDEN
10
0.101562
20
0.000000
30
0.0
11
0.781250
21
0.000000
31
0.0
0
ENDSEC
0
EOF
