0
SECTION
2
HEADER
9
$ACADVER
1
AC1009
0
ENDSEC
0
SECTION
2
TABLES
0
TABLE
2
LTYPE
70
3
0
LTYPE
2
CONTINUOUS
70
0
3
Solid line
72
65
73
0
40
0.0
0
LTYPE
2
HIDDEN
70
0
3
__ __ __ __ __
72
65
73
2
40
0.047369
49
0.031595
49
-0.015774
0
LTYPE
2
CENTER
70
0
3
___ _ ___ _ ___
72
65
73
4
40
0.110511
49
0.063142
49
-0.015774
49
0.015774
49
-0.015774
0
ENDTAB
0
TABLE
2
LAYER
70
7
0
LAYER
2
0
70
0
62
7
6
CONTINUOUS
0
LAYER
2
FRONT
70
0
62
7
6
CONTINUOUS
0
LAYER
2
FRONT_HID
70
0
62
7
6
HIDDEN
0
LAYER
2
LEFT
70
0
62
7
6
CONTINUOUS
0
LAYER
2
LEFT_HID
70
0
62
7
6
HIDDEN
0
LAYER
2
TOP
70
0
62
7
6
CONTINUOUS
0
LAYER
2
TOP_HID
70
0
62
7
6
HIDDEN
0
ENDTAB
0
ENDSEC
0
SECTION
2
ENTITIES
0
LINE
8
FRONT
10
0.000000
20
0.463652
30
0.0
11
0.089556
21
0.433800
31
0.0
0
LINE
8
FRONT
10
0.089556
20
0.493504
30
0.0
11
0.000000
21
0.463652
31
0.0
0
LINE
8
FRONT
10
0.089556
20
0.433800
30
0.0
11
0.089556
21
0.423850
31
0.0
0
LINE
8
FRONT
10
0.089556
20
0.423850
30
0.0
11
0.189062
21
0.423850
31
0.0
0
LINE
8
FRONT
10
0.189062
20
0.423850
30
0.0
11
0.179112
21
0.453702
31
0.0
0
LINE
8
FRONT
10
0.179112
20
0.453702
30
0.0
11
0.169161
21
0.453702
31
0.0
0
LINE
8
FRONT
10
0.169161
20
0.453702
30
0.0
11
0.139309
21
0.483554
31
0.0
0
LINE
8
FRONT
10
0.139309
20
0.483554
30
0.0
11
0.716447
21
0.533307
31
0.0
0
LINE
8
FRONT
10
0.716447
20
0.533307
30
0.0
11
0.945313
21
0.593011
31
0.0
0
LINE
8
FRONT
10
0.945313
20
0.593011
30
0.0
11
0.945554
21
0.593265
31
0.0
0
LINE
8
FRONT
10
0.945554
20
0.593265
30
0.0
11
0.945783
21
0.593531
31
0.0
0
LINE
8
FRONT
10
0.945783
20
0.593531
30
0.0
11
0.945998
21
0.593808
31
0.0
0
LINE
8
FRONT
10
0.945998
20
0.593808
30
0.0
11
0.946200
21
0.594095
31
0.0
0
LINE
8
FRONT
10
0.946200
20
0.594095
30
0.0
11
0.946386
21
0.594392
31
0.0
0
LINE
8
FRONT
10
0.946386
20
0.594392
30
0.0
11
0.946558
21
0.594698
31
0.0
0
LINE
8
FRONT
10
0.946558
20
0.594698
30
0.0
11
0.946714
21
0.595013
31
0.0
0
LINE
8
FRONT
10
0.946714
20
0.595013
30
0.0
11
0.946854
21
0.595334
31
0.0
0
LINE
8
FRONT
10
0.946854
20
0.595334
30
0.0
11
0.946979
21
0.595662
31
0.0
0
LINE
8
FRONT
10
0.946979
20
0.595662
30
0.0
11
0.947086
21
0.595996
31
0.0
0
LINE
8
FRONT
10
0.947086
20
0.595996
30
0.0
11
0.947177
21
0.596335
31
0.0
0
LINE
8
FRONT
10
0.947177
20
0.596335
30
0.0
11
0.947251
21
0.596678
31
0.0
0
LINE
8
FRONT
10
0.947251
20
0.596678
30
0.0
11
0.947307
21
0.597024
31
0.0
0
LINE
8
FRONT
10
0.947307
20
0.597024
30
0.0
11
0.947347
21
0.597373
31
0.0
0
LINE
8
FRONT
10
0.947347
20
0.597373
30
0.0
11
0.947368
21
0.597723
31
0.0
0
LINE
8
FRONT
10
0.947368
20
0.597723
30
0.0
11
0.947373
21
0.598074
31
0.0
0
LINE
8
FRONT
10
0.947373
20
0.598074
30
0.0
11
0.947360
21
0.598424
31
0.0
0
LINE
8
FRONT
10
0.947360
20
0.598424
30
0.0
11
0.947329
21
0.598774
31
0.0
0
LINE
8
FRONT
10
0.947329
20
0.598774
30
0.0
11
0.947281
21
0.599122
31
0.0
0
LINE
8
FRONT
10
0.947281
20
0.599122
30
0.0
11
0.947216
21
0.599466
31
0.0
0
LINE
8
FRONT
10
0.947216
20
0.599466
30
0.0
11
0.947134
21
0.599807
31
0.0
0
LINE
8
FRONT
10
0.947134
20
0.599807
30
0.0
11
0.947034
21
0.600144
31
0.0
0
LINE
8
FRONT
10
0.947034
20
0.600144
30
0.0
11
0.946919
21
0.600475
31
0.0
0
LINE
8
FRONT
10
0.946919
20
0.600475
30
0.0
11
0.946786
21
0.600800
31
0.0
0
LINE
8
FRONT
10
0.946786
20
0.600800
30
0.0
11
0.946638
21
0.601118
31
0.0
0
LINE
8
FRONT
10
0.946638
20
0.601118
30
0.0
11
0.946474
21
0.601428
31
0.0
0
LINE
8
FRONT
10
0.946474
20
0.601428
30
0.0
11
0.946295
21
0.601730
31
0.0
0
LINE
8
FRONT
10
0.946295
20
0.601730
30
0.0
11
0.946101
21
0.602022
31
0.0
0
LINE
8
FRONT
10
0.946101
20
0.602022
30
0.0
11
0.945893
21
0.602304
31
0.0
0
LINE
8
FRONT
10
0.945893
20
0.602304
30
0.0
11
0.945670
21
0.602576
31
0.0
0
LINE
8
FRONT
10
0.945670
20
0.602576
30
0.0
11
0.945435
21
0.602836
31
0.0
0
LINE
8
FRONT
10
0.945435
20
0.602836
30
0.0
11
0.945187
21
0.603084
31
0.0
0
LINE
8
FRONT
10
0.945187
20
0.603084
30
0.0
11
0.944927
21
0.603319
31
0.0
0
LINE
8
FRONT
10
0.944927
20
0.603319
30
0.0
11
0.944655
21
0.603542
31
0.0
0
LINE
8
FRONT
10
0.944655
20
0.603542
30
0.0
11
0.944373
21
0.603750
31
0.0
0
LINE
8
FRONT
10
0.944373
20
0.603750
30
0.0
11
0.944081
21
0.603944
31
0.0
0
LINE
8
FRONT
10
0.944081
20
0.603944
30
0.0
11
0.943779
21
0.604123
31
0.0
0
LINE
8
FRONT
10
0.943779
20
0.604123
30
0.0
11
0.943469
21
0.604287
31
0.0
0
LINE
8
FRONT
10
0.943469
20
0.604287
30
0.0
11
0.943151
21
0.604435
31
0.0
0
LINE
8
FRONT
10
0.943151
20
0.604435
30
0.0
11
0.942826
21
0.604568
31
0.0
0
LINE
8
FRONT
10
0.942826
20
0.604568
30
0.0
11
0.942495
21
0.604683
31
0.0
0
LINE
8
FRONT
10
0.942495
20
0.604683
30
0.0
11
0.942158
21
0.604783
31
0.0
0
LINE
8
FRONT
10
0.942158
20
0.604783
30
0.0
11
0.941817
21
0.604865
31
0.0
0
LINE
8
FRONT
10
0.941817
20
0.604865
30
0.0
11
0.941473
21
0.604930
31
0.0
0
LINE
8
FRONT
10
0.941473
20
0.604930
30
0.0
11
0.941125
21
0.604978
31
0.0
0
LINE
8
FRONT
10
0.941125
20
0.604978
30
0.0
11
0.940775
21
0.605009
31
0.0
0
LINE
8
FRONT
10
0.940775
20
0.605009
30
0.0
11
0.940425
21
0.605022
31
0.0
0
LINE
8
FRONT
10
0.940425
20
0.605022
30
0.0
11
0.940074
21
0.605017
31
0.0
0
LINE
8
FRONT
10
0.940074
20
0.605017
30
0.0
11
0.939724
21
0.604996
31
0.0
0
LINE
8
FRONT
10
0.939724
20
0.604996
30
0.0
11
0.939375
21
0.604956
31
0.0
0
LINE
8
FRONT
10
0.939375
20
0.604956
30
0.0
11
0.939029
21
0.604900
31
0.0
0
LINE
8
FRONT
10
0.939029
20
0.604900
30
0.0
11
0.938686
21
0.604826
31
0.0
0
LINE
8
FRONT
10
0.938686
20
0.604826
30
0.0
11
0.938347
21
0.604735
31
0.0
0
LINE
8
FRONT
10
0.938347
20
0.604735
30
0.0
11
0.938013
21
0.604628
31
0.0
0
LINE
8
FRONT
10
0.938013
20
0.604628
30
0.0
11
0.937685
21
0.604503
31
0.0
0
LINE
8
FRONT
10
0.937685
20
0.604503
30
0.0
11
0.937364
21
0.604363
31
0.0
0
LINE
8
FRONT
10
0.937364
20
0.604363
30
0.0
11
0.937049
21
0.604207
31
0.0
0
LINE
8
FRONT
10
0.937049
20
0.604207
30
0.0
11
0.936743
21
0.604035
31
0.0
0
LINE
8
FRONT
10
0.936743
20
0.604035
30
0.0
11
0.936446
21
0.603849
31
0.0
0
LINE
8
FRONT
10
0.936446
20
0.603849
30
0.0
11
0.936159
21
0.603647
31
0.0
0
LINE
8
FRONT
10
0.936159
20
0.603647
30
0.0
11
0.935882
21
0.603432
31
0.0
0
LINE
8
FRONT
10
0.935882
20
0.603432
30
0.0
11
0.935616
21
0.603203
31
0.0
0
LINE
8
FRONT
10
0.935616
20
0.603203
30
0.0
11
0.935362
21
0.602962
31
0.0
0
LINE
8
FRONT
10
0.935362
20
0.602962
30
0.0
11
0.706497
21
0.543258
31
0.0
0
LINE
8
FRONT
10
0.706497
20
0.543258
30
0.0
11
0.139309
21
0.493504
31
0.0
0
LINE
8
FRONT
10
0.139309
20
0.493504
30
0.0
11
0.089556
21
0.493504
31
0.0
0
LINE
8
FRONT
10
0.143776
20
0.483939
30
0.0
11
0.164638
21
0.463077
31
0.0
0
LINE
8
FRONT
10
0.164638
20
0.463077
30
0.0
11
0.660913
21
0.528519
31
0.0
0
LINE
8
FRONT_HID
6
HIDDEN
10
0.139309
20
0.483554
30
0.0
11
0.143776
21
0.483939
31
0.0
0
LINE
8
FRONT_HID
6
HIDDEN
10
0.660913
20
0.528519
30
0.0
11
0.716447
21
0.533307
31
0.0
0
LINE
8
FRONT_HID
6
HIDDEN
10
0.143776
20
0.483939
30
0.0
11
0.660913
21
0.528519
31
0.0
0
LINE
8
FRONT_HID
6
HIDDEN
10
0.660913
20
0.528519
30
0.0
11
0.143776
21
0.483939
31
0.0
0
LINE
8
LEFT
10
1.254035
20
0.463652
30
0.0
11
1.371222
21
0.463652
31
0.0
0
LINE
8
LEFT
10
1.371222
20
0.463652
30
0.0
11
1.371222
21
0.433800
31
0.0
0
LINE
8
LEFT
10
1.254035
20
0.433800
30
0.0
11
1.371222
21
0.433800
31
0.0
0
LINE
8
LEFT
10
1.254035
20
0.493504
30
0.0
11
1.371222
21
0.493504
31
0.0
0
LINE
8
LEFT
10
1.371222
20
0.493504
30
0.0
11
1.371222
21
0.463652
31
0.0
0
LINE
8
LEFT
10
1.371222
20
0.433800
30
0.0
11
1.371222
21
0.423850
31
0.0
0
LINE
8
LEFT
10
1.254035
20
0.423850
30
0.0
11
1.371222
21
0.423850
31
0.0
0
LINE
8
LEFT
10
1.254035
20
0.463652
30
0.0
11
1.136847
21
0.463652
31
0.0
0
LINE
8
LEFT
10
1.136847
20
0.463652
30
0.0
11
1.136847
21
0.433800
31
0.0
0
LINE
8
LEFT
10
1.254035
20
0.433800
30
0.0
11
1.136847
21
0.433800
31
0.0
0
LINE
8
LEFT
10
1.371222
20
0.605022
30
0.0
11
1.371222
21
0.602962
31
0.0
0
LINE
8
LEFT
10
1.371222
20
0.602962
30
0.0
11
1.371222
21
0.543258
31
0.0
0
LINE
8
LEFT
10
1.371222
20
0.543258
30
0.0
11
1.371222
21
0.493504
31
0.0
0
LINE
8
LEFT
10
1.254035
20
0.493504
30
0.0
11
1.136847
21
0.493504
31
0.0
0
LINE
8
LEFT
10
1.136847
20
0.493504
30
0.0
11
1.136847
21
0.463652
31
0.0
0
LINE
8
LEFT
10
1.136847
20
0.433800
30
0.0
11
1.136847
21
0.423850
31
0.0
0
LINE
8
LEFT
10
1.254035
20
0.423850
30
0.0
11
1.136847
21
0.423850
31
0.0
0
LINE
8
LEFT
10
1.136847
20
0.605022
30
0.0
11
1.136847
21
0.602962
31
0.0
0
LINE
8
LEFT
10
1.136847
20
0.602962
30
0.0
11
1.136847
21
0.543258
31
0.0
0
LINE
8
LEFT
10
1.136847
20
0.543258
30
0.0
11
1.136847
21
0.493504
31
0.0
0
LINE
8
LEFT
10
1.254035
20
0.602962
30
0.0
11
1.371222
21
0.602962
31
0.0
0
LINE
8
LEFT
10
1.254035
20
0.543258
30
0.0
11
1.371222
21
0.543258
31
0.0
0
LINE
8
LEFT
10
1.254035
20
0.602962
30
0.0
11
1.136847
21
0.602962
31
0.0
0
LINE
8
LEFT
10
1.254035
20
0.543258
30
0.0
11
1.136847
21
0.543258
31
0.0
0
LINE
8
LEFT
10
1.371222
20
0.605022
30
0.0
11
1.254035
21
0.605022
31
0.0
0
LINE
8
LEFT
10
1.136847
20
0.605022
30
0.0
11
1.254035
21
0.605022
31
0.0
0
LINE
8
LEFT_HID
6
HIDDEN
10
1.371222
20
0.423850
30
0.0
11
1.371222
21
0.453702
31
0.0
0
LINE
8
LEFT_HID
6
HIDDEN
10
1.371222
20
0.453702
30
0.0
11
1.371222
21
0.483554
31
0.0
0
LINE
8
LEFT_HID
6
HIDDEN
10
1.371222
20
0.483554
30
0.0
11
1.371222
21
0.533307
31
0.0
0
LINE
8
LEFT_HID
6
HIDDEN
10
1.371222
20
0.533307
30
0.0
11
1.371222
21
0.593011
31
0.0
0
LINE
8
LEFT_HID
6
HIDDEN
10
1.371222
20
0.593011
30
0.0
11
1.371222
21
0.605022
31
0.0
0
LINE
8
LEFT_HID
6
HIDDEN
10
1.136847
20
0.423850
30
0.0
11
1.136847
21
0.453702
31
0.0
0
LINE
8
LEFT_HID
6
HIDDEN
10
1.136847
20
0.453702
30
0.0
11
1.136847
21
0.483554
31
0.0
0
LINE
8
LEFT_HID
6
HIDDEN
10
1.136847
20
0.483554
30
0.0
11
1.136847
21
0.533307
31
0.0
0
LINE
8
LEFT_HID
6
HIDDEN
10
1.136847
20
0.533307
30
0.0
11
1.136847
21
0.593011
31
0.0
0
LINE
8
LEFT_HID
6
HIDDEN
10
1.136847
20
0.593011
30
0.0
11
1.136847
21
0.605022
31
0.0
0
LINE
8
LEFT_HID
6
HIDDEN
10
1.254035
20
0.453702
30
0.0
11
1.371222
21
0.453702
31
0.0
0
LINE
8
LEFT_HID
6
HIDDEN
10
1.254035
20
0.453702
30
0.0
11
1.371222
21
0.453702
31
0.0
0
LINE
8
LEFT_HID
6
HIDDEN
10
1.254035
20
0.483554
30
0.0
11
1.371222
21
0.483554
31
0.0
0
LINE
8
LEFT_HID
6
HIDDEN
10
1.254035
20
0.533307
30
0.0
11
1.371222
21
0.533307
31
0.0
0
LINE
8
LEFT_HID
6
HIDDEN
10
1.254035
20
0.528519
30
0.0
11
1.316535
21
0.528519
31
0.0
0
LINE
8
LEFT_HID
6
HIDDEN
10
1.316535
20
0.483939
30
0.0
11
1.316535
21
0.528519
31
0.0
0
LINE
8
LEFT_HID
6
HIDDEN
10
1.316535
20
0.483939
30
0.0
11
1.254035
21
0.483939
31
0.0
0
LINE
8
LEFT_HID
6
HIDDEN
10
1.254035
20
0.593011
30
0.0
11
1.371222
21
0.593011
31
0.0
0
LINE
8
LEFT_HID
6
HIDDEN
10
1.254035
20
0.453702
30
0.0
11
1.136847
21
0.453702
31
0.0
0
LINE
8
LEFT_HID
6
HIDDEN
10
1.254035
20
0.453702
30
0.0
11
1.136847
21
0.453702
31
0.0
0
LINE
8
LEFT_HID
6
HIDDEN
10
1.254035
20
0.483554
30
0.0
11
1.136847
21
0.483554
31
0.0
0
LINE
8
LEFT_HID
6
HIDDEN
10
1.254035
20
0.533307
30
0.0
11
1.136847
21
0.533307
31
0.0
0
LINE
8
LEFT_HID
6
HIDDEN
10
1.191535
20
0.528519
30
0.0
11
1.254035
21
0.528519
31
0.0
0
LINE
8
LEFT_HID
6
HIDDEN
10
1.191535
20
0.528519
30
0.0
11
1.191535
21
0.483939
31
0.0
0
LINE
8
LEFT_HID
6
HIDDEN
10
1.254035
20
0.483939
30
0.0
11
1.191535
21
0.483939
31
0.0
0
LINE
8
LEFT_HID
6
HIDDEN
10
1.254035
20
0.593011
30
0.0
11
1.136847
21
0.593011
31
0.0
0
LINE
8
LEFT_HID
6
HIDDEN
10
1.316535
20
0.483939
30
0.0
11
1.316535
21
0.463077
31
0.0
0
LINE
8
LEFT_HID
6
HIDDEN
10
1.254035
20
0.463077
30
0.0
11
1.316535
21
0.463077
31
0.0
0
LINE
8
LEFT_HID
6
HIDDEN
10
1.316535
20
0.463077
30
0.0
11
1.316535
21
0.528519
31
0.0
0
LINE
8
LEFT_HID
6
HIDDEN
10
1.191535
20
0.483939
30
0.0
11
1.191535
21
0.463077
31
0.0
0
LINE
8
LEFT_HID
6
HIDDEN
10
1.254035
20
0.463077
30
0.0
11
1.191535
21
0.463077
31
0.0
0
LINE
8
LEFT_HID
6
HIDDEN
10
1.191535
20
0.463077
30
0.0
11
1.191535
21
0.528519
31
0.0
0
LINE
8
TOP
10
0.000000
20
0.117188
30
0.0
11
0.000000
21
0.000000
31
0.0
0
LINE
8
TOP
10
0.089556
20
0.117188
30
0.0
11
0.089556
21
0.000000
31
0.0
0
LINE
8
TOP
10
0.089556
20
0.000000
30
0.0
11
0.000000
21
0.000000
31
0.0
0
LINE
8
TOP
10
0.000000
20
0.117188
30
0.0
11
0.000000
21
0.234375
31
0.0
0
LINE
8
TOP
10
0.947373
20
0.000000
30
0.0
11
0.935362
21
0.000000
31
0.0
0
LINE
8
TOP
10
0.935362
20
0.000000
30
0.0
11
0.706497
21
0.000000
31
0.0
0
LINE
8
TOP
10
0.706497
20
0.000000
30
0.0
11
0.139309
21
0.000000
31
0.0
0
LINE
8
TOP
10
0.139309
20
0.000000
30
0.0
11
0.089556
21
0.000000
31
0.0
0
LINE
8
TOP
10
0.139309
20
0.117188
30
0.0
11
0.139309
21
0.000000
31
0.0
0
LINE
8
TOP
10
0.089556
20
0.117188
30
0.0
11
0.089556
21
0.234375
31
0.0
0
LINE
8
TOP
10
0.089556
20
0.234375
30
0.0
11
0.000000
21
0.234375
31
0.0
0
LINE
8
TOP
10
0.947373
20
0.234375
30
0.0
11
0.935362
21
0.234375
31
0.0
0
LINE
8
TOP
10
0.935362
20
0.234375
30
0.0
11
0.706497
21
0.234375
31
0.0
0
LINE
8
TOP
10
0.706497
20
0.234375
30
0.0
11
0.139309
21
0.234375
31
0.0
0
LINE
8
TOP
10
0.139309
20
0.234375
30
0.0
11
0.089556
21
0.234375
31
0.0
0
LINE
8
TOP
10
0.935362
20
0.117188
30
0.0
11
0.935362
21
0.000000
31
0.0
0
LINE
8
TOP
10
0.706497
20
0.117188
30
0.0
11
0.706497
21
0.000000
31
0.0
0
LINE
8
TOP
10
0.139309
20
0.117188
30
0.0
11
0.139309
21
0.234375
31
0.0
0
LINE
8
TOP
10
0.935362
20
0.117188
30
0.0
11
0.935362
21
0.234375
31
0.0
0
LINE
8
TOP
10
0.706497
20
0.117188
30
0.0
11
0.706497
21
0.234375
31
0.0
0
LINE
8
TOP
10
0.947373
20
0.000000
30
0.0
11
0.947373
21
0.117188
31
0.0
0
LINE
8
TOP
10
0.947373
20
0.234375
30
0.0
11
0.947373
21
0.117188
31
0.0
0
LINE
8
TOP_HID
6
HIDDEN
10
0.000000
20
0.234375
30
0.0
11
0.089556
21
0.234375
31
0.0
0
LINE
8
TOP_HID
6
HIDDEN
10
0.089556
20
0.000000
30
0.0
11
0.189062
21
0.000000
31
0.0
0
LINE
8
TOP_HID
6
HIDDEN
10
0.189062
20
0.000000
30
0.0
11
0.179112
21
0.000000
31
0.0
0
LINE
8
TOP_HID
6
HIDDEN
10
0.179112
20
0.000000
30
0.0
11
0.169161
21
0.000000
31
0.0
0
LINE
8
TOP_HID
6
HIDDEN
10
0.169161
20
0.000000
30
0.0
11
0.139309
21
0.000000
31
0.0
0
LINE
8
TOP_HID
6
HIDDEN
10
0.139309
20
0.000000
30
0.0
11
0.716447
21
0.000000
31
0.0
0
LINE
8
TOP_HID
6
HIDDEN
10
0.716447
20
0.000000
30
0.0
11
0.945313
21
0.000000
31
0.0
0
LINE
8
TOP_HID
6
HIDDEN
10
0.945313
20
0.000000
30
0.0
11
0.947373
21
0.000000
31
0.0
0
LINE
8
TOP_HID
6
HIDDEN
10
0.189062
20
0.117188
30
0.0
11
0.189062
21
0.000000
31
0.0
0
LINE
8
TOP_HID
6
HIDDEN
10
0.089556
20
0.234375
30
0.0
11
0.189062
21
0.234375
31
0.0
0
LINE
8
TOP_HID
6
HIDDEN
10
0.189062
20
0.234375
30
0.0
11
0.179112
21
0.234375
31
0.0
0
LINE
8
TOP_HID
6
HIDDEN
10
0.179112
20
0.234375
30
0.0
11
0.169161
21
0.234375
31
0.0
0
LINE
8
TOP_HID
6
HIDDEN
10
0.169161
20
0.234375
30
0.0
11
0.139309
21
0.234375
31
0.0
0
LINE
8
TOP_HID
6
HIDDEN
10
0.139309
20
0.234375
30
0.0
11
0.716447
21
0.234375
31
0.0
0
LINE
8
TOP_HID
6
HIDDEN
10
0.716447
20
0.234375
30
0.0
11
0.945313
21
0.234375
31
0.0
0
LINE
8
TOP_HID
6
HIDDEN
10
0.945313
20
0.234375
30
0.0
11
0.947373
21
0.234375
31
0.0
0
LINE
8
TOP_HID
6
HIDDEN
10
0.179112
20
0.117188
30
0.0
11
0.179112
21
0.000000
31
0.0
0
LINE
8
TOP_HID
6
HIDDEN
10
0.169161
20
0.117188
30
0.0
11
0.169161
21
0.000000
31
0.0
0
LINE
8
TOP_HID
6
HIDDEN
10
0.716447
20
0.117188
30
0.0
11
0.716447
21
0.000000
31
0.0
0
LINE
8
TOP_HID
6
HIDDEN
10
0.660913
20
0.117188
30
0.0
11
0.660913
21
0.054688
31
0.0
0
LINE
8
TOP_HID
6
HIDDEN
10
0.143776
20
0.054688
30
0.0
11
0.660913
21
0.054688
31
0.0
0
LINE
8
TOP_HID
6
HIDDEN
10
0.143776
20
0.054688
30
0.0
11
0.143776
21
0.117188
31
0.0
0
LINE
8
TOP_HID
6
HIDDEN
10
0.945312
20
0.117188
30
0.0
11
0.945312
21
0.000000
31
0.0
0
LINE
8
TOP_HID
6
HIDDEN
10
0.189062
20
0.117188
30
0.0
11
0.189062
21
0.234375
31
0.0
0
LINE
8
TOP_HID
6
HIDDEN
10
0.179112
20
0.117188
30
0.0
11
0.179112
21
0.234375
31
0.0
0
LINE
8
TOP_HID
6
HIDDEN
10
0.169161
20
0.117188
30
0.0
11
0.169161
21
0.234375
31
0.0
0
LINE
8
TOP_HID
6
HIDDEN
10
0.716447
20
0.117188
30
0.0
11
0.716447
21
0.234375
31
0.0
0
LINE
8
TOP_HID
6
HIDDEN
10
0.660913
20
0.179688
30
0.0
11
0.660913
21
0.117188
31
0.0
0
LINE
8
TOP_HID
6
HIDDEN
10
0.660913
20
0.179688
30
0.0
11
0.143776
21
0.179688
31
0.0
0
LINE
8
TOP_HID
6
HIDDEN
10
0.143776
20
0.117188
30
0.0
11
0.143776
21
0.179688
31
0.0
0
LINE
8
TOP_HID
6
HIDDEN
10
0.945312
20
0.117188
30
0.0
11
0.945312
21
0.234375
31
0.0
0
LINE
8
TOP_HID
6
HIDDEN
10
0.143776
20
0.054688
30
0.0
11
0.164638
21
0.054688
31
0.0
0
LINE
8
TOP_HID
6
HIDDEN
10
0.164638
20
0.117188
30
0.0
11
0.164638
21
0.054688
31
0.0
0
LINE
8
TOP_HID
6
HIDDEN
10
0.164638
20
0.054688
30
0.0
11
0.660913
21
0.054688
31
0.0
0
LINE
8
TOP_HID
6
HIDDEN
10
0.143776
20
0.179688
30
0.0
11
0.164638
21
0.179688
31
0.0
0
LINE
8
TOP_HID
6
HIDDEN
10
0.164638
20
0.117188
30
0.0
11
0.164638
21
0.179688
31
0.0
0
LINE
8
TOP_HID
6
HIDDEN
10
0.164638
20
0.179688
30
0.0
11
0.660913
21
0.179688
31
0.0
0
ENDSEC
0
EOF
