0
SECTION
2
HEADER
9
$ACADVER
1
AC1009
0
ENDSEC
0
SECTION
2
TABLES
0
TABLE
2
LTYPE
70
3
0
LTYPE
2
CONTINUOUS
70
0
3
Solid line
72
65
73
0
40
0.0
0
LTYPE
2
HIDDEN
70
0
3
__ __ __ __ __
72
65
73
2
40
0.075789
49
0.050552
49
-0.025238
0
LTYPE
2
CENTER
70
0
3
___ _ ___ _ ___
72
65
73
4
40
0.176817
49
0.101027
49
-0.025238
49
0.025238
49
-0.025238
0
ENDTAB
0
TABLE
2
LAYER
70
6
0
LAYER
2
0
70
0
62
7
6
CONTINUOUS
0
LAYER
2
FRONT
70
0
62
7
6
CONTINUOUS
0
LAYER
2
FRONT_HID
70
0
62
7
6
HIDDEN
0
LAYER
2
LEFT
70
0
62
7
6
CONTINUOUS
0
LAYER
2
LEFT_HID
70
0
62
7
6
HIDDEN
0
LAYER
2
TOP
70
0
62
7
6
CONTINUOUS
0
ENDTAB
0
ENDSEC
0
SECTION
2
ENTITIES
0
LINE
8
FRONT
10
1.156826
20
2.271601
30
0.0
11
1.156826
21
2.287226
31
0.0
0
LINE
8
FRONT
10
1.156826
20
2.287226
30
0.0
11
0.351563
21
2.287226
31
0.0
0
LINE
8
FRONT
10
1.515789
20
2.271601
30
0.0
11
0.000000
21
2.271601
31
0.0
0
LINE
8
FRONT
10
1.515789
20
2.052851
30
0.0
11
1.515789
21
2.271601
31
0.0
0
LINE
8
FRONT
10
1.515789
20
2.052851
30
0.0
11
1.515789
21
1.834101
31
0.0
0
LINE
8
FRONT
10
1.515789
20
1.834101
30
0.0
11
0.000000
21
1.834101
31
0.0
0
LINE
8
FRONT
10
1.156826
20
1.818476
30
0.0
11
0.351563
21
1.818476
31
0.0
0
LINE
8
FRONT
10
1.156826
20
1.834101
30
0.0
11
1.156826
21
1.818476
31
0.0
0
LINE
8
FRONT
10
0.351563
20
2.287226
30
0.0
11
0.351563
21
2.271601
31
0.0
0
LINE
8
FRONT
10
0.000000
20
2.271601
30
0.0
11
0.000000
21
2.052851
31
0.0
0
LINE
8
FRONT
10
0.000000
20
1.834101
30
0.0
11
0.000000
21
2.052851
31
0.0
0
LINE
8
FRONT
10
0.351563
20
1.818476
30
0.0
11
0.351563
21
1.834101
31
0.0
0
LINE
8
FRONT_HID
6
HIDDEN
10
1.156826
20
2.271601
30
0.0
11
0.351563
21
2.271601
31
0.0
0
LINE
8
FRONT_HID
6
HIDDEN
10
0.351563
20
2.271601
30
0.0
11
1.156826
21
2.271601
31
0.0
0
LINE
8
FRONT_HID
6
HIDDEN
10
1.022615
20
2.287226
30
0.0
11
0.485773
21
2.287226
31
0.0
0
LINE
8
FRONT_HID
6
HIDDEN
10
0.485773
20
2.287226
30
0.0
11
1.022615
21
2.287226
31
0.0
0
LINE
8
FRONT_HID
6
HIDDEN
10
1.022615
20
2.052851
30
0.0
11
1.022615
21
2.287226
31
0.0
0
LINE
8
FRONT_HID
6
HIDDEN
10
1.022615
20
2.052851
30
0.0
11
1.022615
21
1.818476
31
0.0
0
LINE
8
FRONT_HID
6
HIDDEN
10
1.022615
20
1.818476
30
0.0
11
0.485773
21
1.818476
31
0.0
0
LINE
8
FRONT_HID
6
HIDDEN
10
0.485773
20
1.818476
30
0.0
11
1.022615
21
1.818476
31
0.0
0
LINE
8
FRONT_HID
6
HIDDEN
10
1.156826
20
1.834101
30
0.0
11
0.351563
21
1.834101
31
0.0
0
LINE
8
FRONT_HID
6
HIDDEN
10
0.351563
20
1.834101
30
0.0
11
1.156826
21
1.834101
31
0.0
0
LINE
8
FRONT_HID
6
HIDDEN
10
0.485773
20
2.287226
30
0.0
11
0.485773
21
2.052851
31
0.0
0
LINE
8
FRONT_HID
6
HIDDEN
10
0.485773
20
1.818476
30
0.0
11
0.485773
21
2.052851
31
0.0
0
LINE
8
LEFT
10
2.174211
20
2.287226
30
0.0
11
2.979474
21
2.287226
31
0.0
0
LINE
8
LEFT
10
1.818947
20
2.271601
30
0.0
11
3.334737
21
2.271601
31
0.0
0
LINE
8
LEFT
10
1.818947
20
1.834101
30
0.0
11
3.334737
21
1.834101
31
0.0
0
LINE
8
LEFT
10
2.174211
20
1.818476
30
0.0
11
2.979474
21
1.818476
31
0.0
0
LINE
8
LEFT
10
2.174211
20
2.287226
30
0.0
11
2.174211
21
2.271601
31
0.0
0
LINE
8
LEFT
10
2.979474
20
2.287226
30
0.0
11
2.979474
21
2.271601
31
0.0
0
LINE
8
LEFT
10
1.818947
20
2.271601
30
0.0
11
1.818947
21
2.052851
31
0.0
0
LINE
8
LEFT
10
3.334737
20
2.271601
30
0.0
11
3.334737
21
2.052851
31
0.0
0
LINE
8
LEFT
10
3.334737
20
1.834101
30
0.0
11
3.334737
21
2.052851
31
0.0
0
LINE
8
LEFT
10
1.818947
20
1.834101
30
0.0
11
1.818947
21
2.052851
31
0.0
0
LINE
8
LEFT
10
2.979474
20
1.818476
30
0.0
11
2.979474
21
1.834101
31
0.0
0
LINE
8
LEFT
10
2.174211
20
1.818476
30
0.0
11
2.174211
21
1.834101
31
0.0
0
LINE
8
LEFT_HID
6
HIDDEN
10
2.576842
20
2.287226
30
0.0
11
2.174211
21
2.287226
31
0.0
0
LINE
8
LEFT_HID
6
HIDDEN
10
2.979474
20
2.287226
30
0.0
11
2.576842
21
2.287226
31
0.0
0
LINE
8
LEFT_HID
6
HIDDEN
10
2.576842
20
2.271601
30
0.0
11
2.979474
21
2.271601
31
0.0
0
LINE
8
LEFT_HID
6
HIDDEN
10
2.979474
20
2.271601
30
0.0
11
2.174211
21
2.271601
31
0.0
0
LINE
8
LEFT_HID
6
HIDDEN
10
2.174211
20
2.271601
30
0.0
11
2.576842
21
2.271601
31
0.0
0
LINE
8
LEFT_HID
6
HIDDEN
10
2.576842
20
2.271601
30
0.0
11
1.818947
21
2.271601
31
0.0
0
LINE
8
LEFT_HID
6
HIDDEN
10
3.334737
20
2.271601
30
0.0
11
2.576842
21
2.271601
31
0.0
0
LINE
8
LEFT_HID
6
HIDDEN
10
2.576842
20
2.287226
30
0.0
11
2.308421
21
2.287226
31
0.0
0
LINE
8
LEFT_HID
6
HIDDEN
10
2.308421
20
2.287226
30
0.0
11
2.845263
21
2.287226
31
0.0
0
LINE
8
LEFT_HID
6
HIDDEN
10
2.845263
20
2.287226
30
0.0
11
2.576842
21
2.287226
31
0.0
0
LINE
8
LEFT_HID
6
HIDDEN
10
2.576842
20
1.834101
30
0.0
11
1.818947
21
1.834101
31
0.0
0
LINE
8
LEFT_HID
6
HIDDEN
10
3.334737
20
1.834101
30
0.0
11
2.576842
21
1.834101
31
0.0
0
LINE
8
LEFT_HID
6
HIDDEN
10
2.576842
20
1.818476
30
0.0
11
2.308421
21
1.818476
31
0.0
0
LINE
8
LEFT_HID
6
HIDDEN
10
2.308421
20
1.818476
30
0.0
11
2.845263
21
1.818476
31
0.0
0
LINE
8
LEFT_HID
6
HIDDEN
10
2.845263
20
1.818476
30
0.0
11
2.576842
21
1.818476
31
0.0
0
LINE
8
LEFT_HID
6
HIDDEN
10
2.576842
20
1.834101
30
0.0
11
2.174211
21
1.834101
31
0.0
0
LINE
8
LEFT_HID
6
HIDDEN
10
2.174211
20
1.834101
30
0.0
11
2.979474
21
1.834101
31
0.0
0
LINE
8
LEFT_HID
6
HIDDEN
10
2.979474
20
1.834101
30
0.0
11
2.576842
21
1.834101
31
0.0
0
LINE
8
LEFT_HID
6
HIDDEN
10
2.576842
20
1.818476
30
0.0
11
2.174211
21
1.818476
31
0.0
0
LINE
8
LEFT_HID
6
HIDDEN
10
2.979474
20
1.818476
30
0.0
11
2.576842
21
1.818476
31
0.0
0
LINE
8
LEFT_HID
6
HIDDEN
10
2.308421
20
2.287226
30
0.0
11
2.308421
21
2.052851
31
0.0
0
LINE
8
LEFT_HID
6
HIDDEN
10
2.845263
20
2.287226
30
0.0
11
2.845263
21
2.052851
31
0.0
0
LINE
8
LEFT_HID
6
HIDDEN
10
2.845263
20
1.818476
30
0.0
11
2.845263
21
2.052851
31
0.0
0
LINE
8
LEFT_HID
6
HIDDEN
10
2.308421
20
1.818476
30
0.0
11
2.308421
21
2.052851
31
0.0
0
LINE
8
TOP
10
1.155884
20
0.757659
30
0.0
11
1.153883
21
0.797748
31
0.0
0
LINE
8
TOP
10
1.153883
20
0.797748
30
0.0
11
1.147900
21
0.837439
31
0.0
0
LINE
8
TOP
10
1.147900
20
0.837439
30
0.0
11
1.137996
21
0.876337
31
0.0
0
LINE
8
TOP
10
1.137996
20
0.876337
30
0.0
11
1.124267
21
0.914055
31
0.0
0
LINE
8
TOP
10
1.124267
20
0.914055
30
0.0
11
1.106852
21
0.950219
31
0.0
0
LINE
8
TOP
10
1.106852
20
0.950219
30
0.0
11
1.085922
21
0.984470
31
0.0
0
LINE
8
TOP
10
1.085922
20
0.984470
30
0.0
11
1.061686
21
1.016466
31
0.0
0
LINE
8
TOP
10
1.061686
20
1.016466
30
0.0
11
1.034384
21
1.045890
31
0.0
0
LINE
8
TOP
10
1.034384
20
1.045890
30
0.0
11
1.004289
21
1.072449
31
0.0
0
LINE
8
TOP
10
1.004289
20
1.072449
30
0.0
11
0.971698
21
1.095880
31
0.0
0
LINE
8
TOP
10
0.971698
20
1.095880
30
0.0
11
0.936937
21
1.115950
31
0.0
0
LINE
8
TOP
10
0.936937
20
1.115950
30
0.0
11
0.900350
21
1.132458
31
0.0
0
LINE
8
TOP
10
0.900350
20
1.132458
30
0.0
11
0.862301
21
1.145242
31
0.0
0
LINE
8
TOP
10
0.862301
20
1.145242
30
0.0
11
0.823168
21
1.154174
31
0.0
0
LINE
8
TOP
10
0.823168
20
1.154174
30
0.0
11
0.783341
21
1.159165
31
0.0
0
LINE
8
TOP
10
0.783341
20
1.159165
30
0.0
11
0.743214
21
1.160166
31
0.0
0
LINE
8
TOP
10
0.743214
20
1.160166
30
0.0
11
0.703187
21
1.157166
31
0.0
0
LINE
8
TOP
10
0.703187
20
1.157166
30
0.0
11
0.663658
21
1.150196
31
0.0
0
LINE
8
TOP
10
0.663658
20
1.150196
30
0.0
11
0.625019
21
1.139325
31
0.0
0
LINE
8
TOP
10
0.625019
20
1.139325
30
0.0
11
0.587655
21
1.124660
31
0.0
0
LINE
8
TOP
10
0.587655
20
1.124660
30
0.0
11
0.551936
21
1.106348
31
0.0
0
LINE
8
TOP
10
0.551936
20
1.106348
30
0.0
11
0.518218
21
1.084571
31
0.0
0
LINE
8
TOP
10
0.518218
20
1.084571
30
0.0
11
0.486836
21
1.059545
31
0.0
0
LINE
8
TOP
10
0.486836
20
1.059545
30
0.0
11
0.458102
21
1.031518
31
0.0
0
LINE
8
TOP
10
0.458102
20
1.031518
30
0.0
11
0.432301
21
1.000770
31
0.0
0
LINE
8
TOP
10
0.432301
20
1.000770
30
0.0
11
0.409690
21
0.967605
31
0.0
0
LINE
8
TOP
10
0.409690
20
0.967605
30
0.0
11
0.390493
21
0.932354
31
0.0
0
LINE
8
TOP
10
0.390493
20
0.932354
30
0.0
11
0.374902
21
0.895367
31
0.0
0
LINE
8
TOP
10
0.374902
20
0.895367
30
0.0
11
0.363071
21
0.857011
31
0.0
0
LINE
8
TOP
10
0.363071
20
0.857011
30
0.0
11
0.355117
21
0.817668
31
0.0
0
LINE
8
TOP
10
0.355117
20
0.817668
30
0.0
11
0.351121
21
0.777729
31
0.0
0
LINE
8
TOP
10
0.351121
20
0.777729
30
0.0
11
0.351121
21
0.737590
31
0.0
0
LINE
8
TOP
10
0.351121
20
0.737590
30
0.0
11
0.355117
21
0.697650
31
0.0
0
LINE
8
TOP
10
0.355117
20
0.697650
30
0.0
11
0.363071
21
0.658307
31
0.0
0
LINE
8
TOP
10
0.363071
20
0.658307
30
0.0
11
0.374902
21
0.619951
31
0.0
0
LINE
8
TOP
10
0.374902
20
0.619951
30
0.0
11
0.390493
21
0.582964
31
0.0
0
LINE
8
TOP
10
0.390493
20
0.582964
30
0.0
11
0.409690
21
0.547713
31
0.0
0
LINE
8
TOP
10
0.409690
20
0.547713
30
0.0
11
0.432301
21
0.514548
31
0.0
0
LINE
8
TOP
10
0.432301
20
0.514548
30
0.0
11
0.458102
21
0.483800
31
0.0
0
LINE
8
TOP
10
0.458102
20
0.483800
30
0.0
11
0.486836
21
0.455774
31
0.0
0
LINE
8
TOP
10
0.486836
20
0.455774
30
0.0
11
0.518218
21
0.430747
31
0.0
0
LINE
8
TOP
10
0.518218
20
0.430747
30
0.0
11
0.551936
21
0.408970
31
0.0
0
LINE
8
TOP
10
0.551936
20
0.408970
30
0.0
11
0.587655
21
0.390658
31
0.0
0
LINE
8
TOP
10
0.587655
20
0.390658
30
0.0
11
0.625019
21
0.375994
31
0.0
0
LINE
8
TOP
10
0.625019
20
0.375994
30
0.0
11
0.663658
21
0.365122
31
0.0
0
LINE
8
TOP
10
0.663658
20
0.365122
30
0.0
11
0.703187
21
0.358152
31
0.0
0
LINE
8
TOP
10
0.703187
20
0.358152
30
0.0
11
0.743214
21
0.355153
31
0.0
0
LINE
8
TOP
10
0.743214
20
0.355153
30
0.0
11
0.783341
21
0.356153
31
0.0
0
LINE
8
TOP
10
0.783341
20
0.356153
30
0.0
11
0.823168
21
0.361144
31
0.0
0
LINE
8
TOP
10
0.823168
20
0.361144
30
0.0
11
0.862301
21
0.370076
31
0.0
0
LINE
8
TOP
10
0.862301
20
0.370076
30
0.0
11
0.900350
21
0.382860
31
0.0
0
LINE
8
TOP
10
0.900350
20
0.382860
30
0.0
11
0.936937
21
0.399369
31
0.0
0
LINE
8
TOP
10
0.936937
20
0.399369
30
0.0
11
0.971698
21
0.419438
31
0.0
0
LINE
8
TOP
10
0.971698
20
0.419438
30
0.0
11
1.004289
21
0.442869
31
0.0
0
LINE
8
TOP
10
1.004289
20
0.442869
30
0.0
11
1.034384
21
0.469429
31
0.0
0
LINE
8
TOP
10
1.034384
20
0.469429
30
0.0
11
1.061686
21
0.498853
31
0.0
0
LINE
8
TOP
10
1.061686
20
0.498853
30
0.0
11
1.085922
21
0.530849
31
0.0
0
LINE
8
TOP
10
1.085922
20
0.530849
30
0.0
11
1.106852
21
0.565099
31
0.0
0
LINE
8
TOP
10
1.106852
20
0.565099
30
0.0
11
1.124267
21
0.601263
31
0.0
0
LINE
8
TOP
10
1.124267
20
0.601263
30
0.0
11
1.137996
21
0.638981
31
0.0
0
LINE
8
TOP
10
1.137996
20
0.638981
30
0.0
11
1.147900
21
0.677879
31
0.0
0
LINE
8
TOP
10
1.147900
20
0.677879
30
0.0
11
1.153883
21
0.717570
31
0.0
0
LINE
8
TOP
10
1.153883
20
0.717570
30
0.0
11
1.155884
21
0.757659
31
0.0
0
LINE
8
TOP
10
1.514847
20
0.757659
30
0.0
11
1.511081
21
0.833121
31
0.0
0
LINE
8
TOP
10
1.511081
20
0.833121
30
0.0
11
1.499820
21
0.907833
31
0.0
0
LINE
8
TOP
10
1.499820
20
0.907833
30
0.0
11
1.481176
21
0.981053
31
0.0
0
LINE
8
TOP
10
1.481176
20
0.981053
30
0.0
11
1.455335
21
1.052052
31
0.0
0
LINE
8
TOP
10
1.455335
20
1.052052
30
0.0
11
1.422552
21
1.120125
31
0.0
0
LINE
8
TOP
10
1.422552
20
1.120125
30
0.0
11
1.383155
21
1.184596
31
0.0
0
LINE
8
TOP
10
1.383155
20
1.184596
30
0.0
11
1.337534
21
1.244825
31
0.0
0
LINE
8
TOP
10
1.337534
20
1.244825
30
0.0
11
1.286143
21
1.300211
31
0.0
0
LINE
8
TOP
10
1.286143
20
1.300211
30
0.0
11
1.229492
21
1.350205
31
0.0
0
LINE
8
TOP
10
1.229492
20
1.350205
30
0.0
11
1.168146
21
1.394310
31
0.0
0
LINE
8
TOP
10
1.168146
20
1.394310
30
0.0
11
1.102712
21
1.432088
31
0.0
0
LINE
8
TOP
10
1.102712
20
1.432088
30
0.0
11
1.033843
21
1.463163
31
0.0
0
LINE
8
TOP
10
1.033843
20
1.463163
30
0.0
11
0.962221
21
1.487227
31
0.0
0
LINE
8
TOP
10
0.962221
20
1.487227
30
0.0
11
0.888560
21
1.504040
31
0.0
0
LINE
8
TOP
10
0.888560
20
1.504040
30
0.0
11
0.813590
21
1.513435
31
0.0
0
LINE
8
TOP
10
0.813590
20
1.513435
30
0.0
11
0.738058
21
1.515318
31
0.0
0
LINE
8
TOP
10
0.738058
20
1.515318
30
0.0
11
0.662713
21
1.509672
31
0.0
0
LINE
8
TOP
10
0.662713
20
1.509672
30
0.0
11
0.588305
21
1.496552
31
0.0
0
LINE
8
TOP
10
0.588305
20
1.496552
30
0.0
11
0.515573
21
1.476088
31
0.0
0
LINE
8
TOP
10
0.515573
20
1.476088
30
0.0
11
0.445240
21
1.448485
31
0.0
0
LINE
8
TOP
10
0.445240
20
1.448485
30
0.0
11
0.378005
21
1.414015
31
0.0
0
LINE
8
TOP
10
0.378005
20
1.414015
30
0.0
11
0.314536
21
1.373023
31
0.0
0
LINE
8
TOP
10
0.314536
20
1.373023
30
0.0
11
0.255464
21
1.325914
31
0.0
0
LINE
8
TOP
10
0.255464
20
1.325914
30
0.0
11
0.201376
21
1.273159
31
0.0
0
LINE
8
TOP
10
0.201376
20
1.273159
30
0.0
11
0.152810
21
1.215279
31
0.0
0
LINE
8
TOP
10
0.152810
20
1.215279
30
0.0
11
0.110248
21
1.152852
31
0.0
0
LINE
8
TOP
10
0.110248
20
1.152852
30
0.0
11
0.074113
21
1.086497
31
0.0
0
LINE
8
TOP
10
0.074113
20
1.086497
30
0.0
11
0.044765
21
1.016874
31
0.0
0
LINE
8
TOP
10
0.044765
20
1.016874
30
0.0
11
0.022494
21
0.944675
31
0.0
0
LINE
8
TOP
10
0.022494
20
0.944675
30
0.0
11
0.007523
21
0.870618
31
0.0
0
LINE
8
TOP
10
0.007523
20
0.870618
30
0.0
11
0.000000
21
0.795437
31
0.0
0
LINE
8
TOP
10
0.000000
20
0.795437
30
0.0
11
0.000000
21
0.719881
31
0.0
0
LINE
8
TOP
10
0.000000
20
0.719881
30
0.0
11
0.007523
21
0.644701
31
0.0
0
LINE
8
TOP
10
0.007523
20
0.644701
30
0.0
11
0.022494
21
0.570643
31
0.0
0
LINE
8
TOP
10
0.022494
20
0.570643
30
0.0
11
0.044765
21
0.498444
31
0.0
0
LINE
8
TOP
10
0.044765
20
0.498444
30
0.0
11
0.074113
21
0.428821
31
0.0
0
LINE
8
TOP
10
0.074113
20
0.428821
30
0.0
11
0.110248
21
0.362466
31
0.0
0
LINE
8
TOP
10
0.110248
20
0.362466
30
0.0
11
0.152810
21
0.300039
31
0.0
0
LINE
8
TOP
10
0.152810
20
0.300039
30
0.0
11
0.201376
21
0.242160
31
0.0
0
LINE
8
TOP
10
0.201376
20
0.242160
30
0.0
11
0.255464
21
0.189404
31
0.0
0
LINE
8
TOP
10
0.255464
20
0.189404
30
0.0
11
0.314536
21
0.142296
31
0.0
0
LINE
8
TOP
10
0.314536
20
0.142296
30
0.0
11
0.378005
21
0.101303
31
0.0
0
LINE
8
TOP
10
0.378005
20
0.101303
30
0.0
11
0.445240
21
0.066834
31
0.0
0
LINE
8
TOP
10
0.445240
20
0.066834
30
0.0
11
0.515573
21
0.039230
31
0.0
0
LINE
8
TOP
10
0.515573
20
0.039230
30
0.0
11
0.588305
21
0.018766
31
0.0
0
LINE
8
TOP
10
0.588305
20
0.018766
30
0.0
11
0.662713
21
0.005646
31
0.0
0
LINE
8
TOP
10
0.662713
20
0.005646
30
0.0
11
0.738058
21
0.000000
31
0.0
0
LINE
8
TOP
10
0.738058
20
0.000000
30
0.0
11
0.813590
21
0.001884
31
0.0
0
LINE
8
TOP
10
0.813590
20
0.001884
30
0.0
11
0.888560
21
0.011279
31
0.0
0
LINE
8
TOP
10
0.888560
20
0.011279
30
0.0
11
0.962221
21
0.028091
31
0.0
0
LINE
8
TOP
10
0.962221
20
0.028091
30
0.0
11
1.033843
21
0.052155
31
0.0
0
LINE
8
TOP
10
1.033843
20
0.052155
30
0.0
11
1.102712
21
0.083230
31
0.0
0
LINE
8
TOP
10
1.102712
20
0.083230
30
0.0
11
1.168146
21
0.121008
31
0.0
0
LINE
8
TOP
10
1.168146
20
0.121008
30
0.0
11
1.229492
21
0.165113
31
0.0
0
LINE
8
TOP
10
1.229492
20
0.165113
30
0.0
11
1.286143
21
0.215107
31
0.0
0
LINE
8
TOP
10
1.286143
20
0.215107
30
0.0
11
1.337534
21
0.270494
31
0.0
0
LINE
8
TOP
10
1.337534
20
0.270494
30
0.0
11
1.383155
21
0.330722
31
0.0
0
LINE
8
TOP
10
1.383155
20
0.330722
30
0.0
11
1.422552
21
0.395193
31
0.0
0
LINE
8
TOP
10
1.422552
20
0.395193
30
0.0
11
1.455335
21
0.463266
31
0.0
0
LINE
8
TOP
10
1.455335
20
0.463266
30
0.0
11
1.481176
21
0.534266
31
0.0
0
LINE
8
TOP
10
1.481176
20
0.534266
30
0.0
11
1.499820
21
0.607485
31
0.0
0
LINE
8
TOP
10
1.499820
20
0.607485
30
0.0
11
1.511081
21
0.682197
31
0.0
0
LINE
8
TOP
10
1.511081
20
0.682197
30
0.0
11
1.514847
21
0.757659
31
0.0
0
LINE
8
TOP
10
1.021673
20
0.757659
30
0.0
11
1.020339
21
0.784385
31
0.0
0
LINE
8
TOP
10
1.020339
20
0.784385
30
0.0
11
1.016351
21
0.810846
31
0.0
0
LINE
8
TOP
10
1.016351
20
0.810846
30
0.0
11
1.009748
21
0.836778
31
0.0
0
LINE
8
TOP
10
1.009748
20
0.836778
30
0.0
11
1.000596
21
0.861923
31
0.0
0
LINE
8
TOP
10
1.000596
20
0.861923
30
0.0
11
0.988985
21
0.886033
31
0.0
0
LINE
8
TOP
10
0.988985
20
0.886033
30
0.0
11
0.975032
21
0.908866
31
0.0
0
LINE
8
TOP
10
0.975032
20
0.908866
30
0.0
11
0.958874
21
0.930197
31
0.0
0
LINE
8
TOP
10
0.958874
20
0.930197
30
0.0
11
0.940673
21
0.949813
31
0.0
0
LINE
8
TOP
10
0.940673
20
0.949813
30
0.0
11
0.920610
21
0.967519
31
0.0
0
LINE
8
TOP
10
0.920610
20
0.967519
30
0.0
11
0.898883
21
0.983140
31
0.0
0
LINE
8
TOP
10
0.898883
20
0.983140
30
0.0
11
0.875709
21
0.996519
31
0.0
0
LINE
8
TOP
10
0.875709
20
0.996519
30
0.0
11
0.851317
21
1.007525
31
0.0
0
LINE
8
TOP
10
0.851317
20
1.007525
30
0.0
11
0.825951
21
1.016048
31
0.0
0
LINE
8
TOP
10
0.825951
20
1.016048
30
0.0
11
0.799863
21
1.022002
31
0.0
0
LINE
8
TOP
10
0.799863
20
1.022002
30
0.0
11
0.773311
21
1.025330
31
0.0
0
LINE
8
TOP
10
0.773311
20
1.025330
30
0.0
11
0.746560
21
1.025997
31
0.0
0
LINE
8
TOP
10
0.746560
20
1.025997
30
0.0
11
0.719875
21
1.023997
31
0.0
0
LINE
8
TOP
10
0.719875
20
1.023997
30
0.0
11
0.693523
21
1.019350
31
0.0
0
LINE
8
TOP
10
0.693523
20
1.019350
30
0.0
11
0.667763
21
1.012103
31
0.0
0
LINE
8
TOP
10
0.667763
20
1.012103
30
0.0
11
0.642854
21
1.002327
31
0.0
0
LINE
8
TOP
10
0.642854
20
1.002327
30
0.0
11
0.619041
21
0.990119
31
0.0
0
LINE
8
TOP
10
0.619041
20
0.990119
30
0.0
11
0.596563
21
0.975600
31
0.0
0
LINE
8
TOP
10
0.596563
20
0.975600
30
0.0
11
0.575642
21
0.958916
31
0.0
0
LINE
8
TOP
10
0.575642
20
0.958916
30
0.0
11
0.556485
21
0.940232
31
0.0
0
LINE
8
TOP
10
0.556485
20
0.940232
30
0.0
11
0.539285
21
0.919733
31
0.0
0
LINE
8
TOP
10
0.539285
20
0.919733
30
0.0
11
0.524211
21
0.897623
31
0.0
0
LINE
8
TOP
10
0.524211
20
0.897623
30
0.0
11
0.511413
21
0.874123
31
0.0
0
LINE
8
TOP
10
0.511413
20
0.874123
30
0.0
11
0.501019
21
0.849465
31
0.0
0
LINE
8
TOP
10
0.501019
20
0.849465
30
0.0
11
0.493131
21
0.823894
31
0.0
0
LINE
8
TOP
10
0.493131
20
0.823894
30
0.0
11
0.487829
21
0.797665
31
0.0
0
LINE
8
TOP
10
0.487829
20
0.797665
30
0.0
11
0.485165
21
0.771039
31
0.0
0
LINE
8
TOP
10
0.485165
20
0.771039
30
0.0
11
0.485165
21
0.744279
31
0.0
0
LINE
8
TOP
10
0.485165
20
0.744279
30
0.0
11
0.487829
21
0.717653
31
0.0
0
LINE
8
TOP
10
0.487829
20
0.717653
30
0.0
11
0.493131
21
0.691424
31
0.0
0
LINE
8
TOP
10
0.493131
20
0.691424
30
0.0
11
0.501019
21
0.665854
31
0.0
0
LINE
8
TOP
10
0.501019
20
0.665854
30
0.0
11
0.511413
21
0.641196
31
0.0
0
LINE
8
TOP
10
0.511413
20
0.641196
30
0.0
11
0.524211
21
0.617695
31
0.0
0
LINE
8
TOP
10
0.524211
20
0.617695
30
0.0
11
0.539285
21
0.595585
31
0.0
0
LINE
8
TOP
10
0.539285
20
0.595585
30
0.0
11
0.556485
21
0.575086
31
0.0
0
LINE
8
TOP
10
0.556485
20
0.575086
30
0.0
11
0.575642
21
0.556402
31
0.0
0
LINE
8
TOP
10
0.575642
20
0.556402
30
0.0
11
0.596563
21
0.539718
31
0.0
0
LINE
8
TOP
10
0.596563
20
0.539718
30
0.0
11
0.619041
21
0.525200
31
0.0
0
LINE
8
TOP
10
0.619041
20
0.525200
30
0.0
11
0.642854
21
0.512992
31
0.0
0
LINE
8
TOP
10
0.642854
20
0.512992
30
0.0
11
0.667763
21
0.503216
31
0.0
0
LINE
8
TOP
10
0.667763
20
0.503216
30
0.0
11
0.693523
21
0.495968
31
0.0
0
LINE
8
TOP
10
0.693523
20
0.495968
30
0.0
11
0.719875
21
0.491321
31
0.0
0
LINE
8
TOP
10
0.719875
20
0.491321
30
0.0
11
0.746560
21
0.489322
31
0.0
0
LINE
8
TOP
10
0.746560
20
0.489322
30
0.0
11
0.773311
21
0.489989
31
0.0
0
LINE
8
TOP
10
0.773311
20
0.489989
30
0.0
11
0.799863
21
0.493316
31
0.0
0
LINE
8
TOP
10
0.799863
20
0.493316
30
0.0
11
0.825951
21
0.499271
31
0.0
0
LINE
8
TOP
10
0.825951
20
0.499271
30
0.0
11
0.851317
21
0.507793
31
0.0
0
LINE
8
TOP
10
0.851317
20
0.507793
30
0.0
11
0.875709
21
0.518799
31
0.0
0
LINE
8
TOP
10
0.875709
20
0.518799
30
0.0
11
0.898883
21
0.532179
31
0.0
0
LINE
8
TOP
10
0.898883
20
0.532179
30
0.0
11
0.920610
21
0.547799
31
0.0
0
LINE
8
TOP
10
0.920610
20
0.547799
30
0.0
11
0.940673
21
0.565505
31
0.0
0
LINE
8
TOP
10
0.940673
20
0.565505
30
0.0
11
0.958874
21
0.585121
31
0.0
0
LINE
8
TOP
10
0.958874
20
0.585121
30
0.0
11
0.975032
21
0.606452
31
0.0
0
LINE
8
TOP
10
0.975032
20
0.606452
30
0.0
11
0.988985
21
0.629286
31
0.0
0
LINE
8
TOP
10
0.988985
20
0.629286
30
0.0
11
1.000596
21
0.653395
31
0.0
0
LINE
8
TOP
10
1.000596
20
0.653395
30
0.0
11
1.009748
21
0.678541
31
0.0
0
LINE
8
TOP
10
1.009748
20
0.678541
30
0.0
11
1.016351
21
0.704473
31
0.0
0
LINE
8
TOP
10
1.016351
20
0.704473
30
0.0
11
1.020339
21
0.730933
31
0.0
0
LINE
8
TOP
10
1.020339
20
0.730933
30
0.0
11
1.021673
21
0.757659
31
0.0
0
ENDSEC
0
EOF
