0
SECTION
2
HEADER
9
$ACADVER
1
AC1009
0
ENDSEC
0
SECTION
2
TABLES
0
TABLE
2
LTYPE
70
3
0
LTYPE
2
CONTINUOUS
70
0
3
Solid line
72
65
73
0
40
0.0
0
LTYPE
2
HIDDEN
70
0
3
__ __ __ __ __
72
65
73
2
40
0.018947
49
0.012638
49
-0.006309
0
LTYPE
2
CENTER
70
0
3
___ _ ___ _ ___
72
65
73
4
40
0.044204
49
0.025257
49
-0.006309
49
0.006309
49
-0.006309
0
ENDTAB
0
TABLE
2
LAYER
70
5
0
LAYER
2
0
70
0
62
7
6
CONTINUOUS
0
LAYER
2
FRONT
70
0
62
7
6
CONTINUOUS
0
LAYER
2
LEFT
70
0
62
7
6
CONTINUOUS
0
LAYER
2
LEFT_HID
70
0
62
7
6
HIDDEN
0
LAYER
2
TOP
70
0
62
7
6
CONTINUOUS
0
ENDTAB
0
ENDSEC
0
SECTION
2
ENTITIES
0
LINE
8
FRONT
10
0.378947
20
0.454619
30
0.0
11
0.000000
21
0.454619
31
0.0
0
LINE
8
FRONT
10
0.378947
20
0.454619
30
0.0
11
0.378947
21
0.688994
31
0.0
0
LINE
8
FRONT
10
0.378947
20
0.688994
30
0.0
11
0.000000
21
0.688994
31
0.0
0
LINE
8
FRONT
10
0.000000
20
0.688994
30
0.0
11
0.000000
21
0.454619
31
0.0
0
LINE
8
LEFT
10
0.454737
20
0.454619
30
0.0
11
0.833684
21
0.454619
31
0.0
0
LINE
8
LEFT
10
0.454737
20
0.688994
30
0.0
11
0.833684
21
0.688994
31
0.0
0
LINE
8
LEFT
10
0.454737
20
0.688994
30
0.0
11
0.454737
21
0.454619
31
0.0
0
LINE
8
LEFT
10
0.833684
20
0.688994
30
0.0
11
0.833684
21
0.454619
31
0.0
0
LINE
8
LEFT_HID
6
HIDDEN
10
0.644211
20
0.454619
30
0.0
11
0.454737
21
0.454619
31
0.0
0
LINE
8
LEFT_HID
6
HIDDEN
10
0.833684
20
0.454619
30
0.0
11
0.644211
21
0.454619
31
0.0
0
LINE
8
LEFT_HID
6
HIDDEN
10
0.644211
20
0.688994
30
0.0
11
0.454737
21
0.688994
31
0.0
0
LINE
8
LEFT_HID
6
HIDDEN
10
0.833684
20
0.688994
30
0.0
11
0.644211
21
0.688994
31
0.0
0
LINE
8
TOP
10
0.378712
20
0.189415
30
0.0
11
0.377770
21
0.208280
31
0.0
0
LINE
8
TOP
10
0.377770
20
0.208280
30
0.0
11
0.374955
21
0.226958
31
0.0
0
LINE
8
TOP
10
0.374955
20
0.226958
30
0.0
11
0.370294
21
0.245263
31
0.0
0
LINE
8
TOP
10
0.370294
20
0.245263
30
0.0
11
0.363834
21
0.263013
31
0.0
0
LINE
8
TOP
10
0.363834
20
0.263013
30
0.0
11
0.355638
21
0.280031
31
0.0
0
LINE
8
TOP
10
0.355638
20
0.280031
30
0.0
11
0.345789
21
0.296149
31
0.0
0
LINE
8
TOP
10
0.345789
20
0.296149
30
0.0
11
0.334383
21
0.311206
31
0.0
0
LINE
8
TOP
10
0.334383
20
0.311206
30
0.0
11
0.321536
21
0.325053
31
0.0
0
LINE
8
TOP
10
0.321536
20
0.325053
30
0.0
11
0.307373
21
0.337551
31
0.0
0
LINE
8
TOP
10
0.307373
20
0.337551
30
0.0
11
0.292036
21
0.348578
31
0.0
0
LINE
8
TOP
10
0.292036
20
0.348578
30
0.0
11
0.275678
21
0.358022
31
0.0
0
LINE
8
TOP
10
0.275678
20
0.358022
30
0.0
11
0.258461
21
0.365791
31
0.0
0
LINE
8
TOP
10
0.258461
20
0.365791
30
0.0
11
0.240555
21
0.371807
31
0.0
0
LINE
8
TOP
10
0.240555
20
0.371807
30
0.0
11
0.222140
21
0.376010
31
0.0
0
LINE
8
TOP
10
0.222140
20
0.376010
30
0.0
11
0.203398
21
0.378359
31
0.0
0
LINE
8
TOP
10
0.203398
20
0.378359
30
0.0
11
0.184514
21
0.378830
31
0.0
0
LINE
8
TOP
10
0.184514
20
0.378830
30
0.0
11
0.165678
21
0.377418
31
0.0
0
LINE
8
TOP
10
0.165678
20
0.377418
30
0.0
11
0.147076
21
0.374138
31
0.0
0
LINE
8
TOP
10
0.147076
20
0.374138
30
0.0
11
0.128893
21
0.369022
31
0.0
0
LINE
8
TOP
10
0.128893
20
0.369022
30
0.0
11
0.111310
21
0.362121
31
0.0
0
LINE
8
TOP
10
0.111310
20
0.362121
30
0.0
11
0.094501
21
0.353504
31
0.0
0
LINE
8
TOP
10
0.094501
20
0.353504
30
0.0
11
0.078634
21
0.343256
31
0.0
0
LINE
8
TOP
10
0.078634
20
0.343256
30
0.0
11
0.063866
21
0.331479
31
0.0
0
LINE
8
TOP
10
0.063866
20
0.331479
30
0.0
11
0.050344
21
0.318290
31
0.0
0
LINE
8
TOP
10
0.050344
20
0.318290
30
0.0
11
0.038203
21
0.303820
31
0.0
0
LINE
8
TOP
10
0.038203
20
0.303820
30
0.0
11
0.027562
21
0.288213
31
0.0
0
LINE
8
TOP
10
0.027562
20
0.288213
30
0.0
11
0.018528
21
0.271624
31
0.0
0
LINE
8
TOP
10
0.018528
20
0.271624
30
0.0
11
0.011191
21
0.254219
31
0.0
0
LINE
8
TOP
10
0.011191
20
0.254219
30
0.0
11
0.005624
21
0.236169
31
0.0
0
LINE
8
TOP
10
0.005624
20
0.236169
30
0.0
11
0.001881
21
0.217654
31
0.0
0
LINE
8
TOP
10
0.001881
20
0.217654
30
0.0
11
0.000000
21
0.198859
31
0.0
0
LINE
8
TOP
10
0.000000
20
0.198859
30
0.0
11
0.000000
21
0.179970
31
0.0
0
LINE
8
TOP
10
0.000000
20
0.179970
30
0.0
11
0.001881
21
0.161175
31
0.0
0
LINE
8
TOP
10
0.001881
20
0.161175
30
0.0
11
0.005624
21
0.142661
31
0.0
0
LINE
8
TOP
10
0.005624
20
0.142661
30
0.0
11
0.011191
21
0.124611
31
0.0
0
LINE
8
TOP
10
0.011191
20
0.124611
30
0.0
11
0.018528
21
0.107205
31
0.0
0
LINE
8
TOP
10
0.018528
20
0.107205
30
0.0
11
0.027562
21
0.090617
31
0.0
0
LINE
8
TOP
10
0.027562
20
0.090617
30
0.0
11
0.038203
21
0.075010
31
0.0
0
LINE
8
TOP
10
0.038203
20
0.075010
30
0.0
11
0.050344
21
0.060540
31
0.0
0
LINE
8
TOP
10
0.050344
20
0.060540
30
0.0
11
0.063866
21
0.047351
31
0.0
0
LINE
8
TOP
10
0.063866
20
0.047351
30
0.0
11
0.078634
21
0.035574
31
0.0
0
LINE
8
TOP
10
0.078634
20
0.035574
30
0.0
11
0.094501
21
0.025326
31
0.0
0
LINE
8
TOP
10
0.094501
20
0.025326
30
0.0
11
0.111310
21
0.016708
31
0.0
0
LINE
8
TOP
10
0.111310
20
0.016708
30
0.0
11
0.128893
21
0.009808
31
0.0
0
LINE
8
TOP
10
0.128893
20
0.009808
30
0.0
11
0.147076
21
0.004692
31
0.0
0
LINE
8
TOP
10
0.147076
20
0.004692
30
0.0
11
0.165678
21
0.001412
31
0.0
0
LINE
8
TOP
10
0.165678
20
0.001412
30
0.0
11
0.184514
21
0.000000
31
0.0
0
LINE
8
TOP
10
0.184514
20
0.000000
30
0.0
11
0.203398
21
0.000471
31
0.0
0
LINE
8
TOP
10
0.203398
20
0.000471
30
0.0
11
0.222140
21
0.002820
31
0.0
0
LINE
8
TOP
10
0.222140
20
0.002820
30
0.0
11
0.240555
21
0.007023
31
0.0
0
LINE
8
TOP
10
0.240555
20
0.007023
30
0.0
11
0.258461
21
0.013039
31
0.0
0
LINE
8
TOP
10
0.258461
20
0.013039
30
0.0
11
0.275678
21
0.020808
31
0.0
0
LINE
8
TOP
10
0.275678
20
0.020808
30
0.0
11
0.292036
21
0.030252
31
0.0
0
LINE
8
TOP
10
0.292036
20
0.030252
30
0.0
11
0.307373
21
0.041278
31
0.0
0
LINE
8
TOP
10
0.307373
20
0.041278
30
0.0
11
0.321536
21
0.053777
31
0.0
0
LINE
8
TOP
10
0.321536
20
0.053777
30
0.0
11
0.334383
21
0.067623
31
0.0
0
LINE
8
TOP
10
0.334383
20
0.067623
30
0.0
11
0.345789
21
0.082680
31
0.0
0
LINE
8
TOP
10
0.345789
20
0.082680
30
0.0
11
0.355638
21
0.098798
31
0.0
0
LINE
8
TOP
10
0.355638
20
0.098798
30
0.0
11
0.363834
21
0.115817
31
0.0
0
LINE
8
TOP
10
0.363834
20
0.115817
30
0.0
11
0.370294
21
0.133566
31
0.0
0
LINE
8
TOP
10
0.370294
20
0.133566
30
0.0
11
0.374955
21
0.151871
31
0.0
0
LINE
8
TOP
10
0.374955
20
0.151871
30
0.0
11
0.377770
21
0.170549
31
0.0
0
LINE
8
TOP
10
0.377770
20
0.170549
30
0.0
11
0.378712
21
0.189415
31
0.0
0
ENDSEC
0
EOF
