0
SECTION
2
HEADER
9
$ACADVER
1
AC1009
0
ENDSEC
0
SECTION
2
TABLES
0
TABLE
2
LTYPE
70
3
0
LTYPE
2
CONTINUOUS
70
0
3
Solid line
72
65
73
0
40
0.0
0
LTYPE
2
HIDDEN
70
0
3
__ __ __ __ __
72
65
73
2
40
0.075789
49
0.050552
49
-0.025238
0
LTYPE
2
CENTER
70
0
3
___ _ ___ _ ___
72
65
73
4
40
0.176817
49
0.101027
49
-0.025238
49
0.025238
49
-0.025238
0
ENDTAB
0
TABLE
2
LAYER
70
7
0
LAYER
2
0
70
0
62
7
6
CONTINUOUS
0
LAYER
2
FRONT
70
0
62
7
6
CONTINUOUS
0
LAYER
2
FRONT_HID
70
0
62
7
6
HIDDEN
0
LAYER
2
LEFT
70
0
62
7
6
CONTINUOUS
0
LAYER
2
LEFT_HID
70
0
62
7
6
HIDDEN
0
LAYER
2
TOP
70
0
62
7
6
CONTINUOUS
0
LAYER
2
TOP_HID
70
0
62
7
6
HIDDEN
0
ENDTAB
0
ENDSEC
0
SECTION
2
ENTITIES
0
LINE
8
FRONT
10
1.515789
20
2.323817
30
0.0
11
0.000000
21
2.323817
31
0.0
0
LINE
8
FRONT
10
1.515789
20
2.323817
30
0.0
11
1.515789
21
2.425380
31
0.0
0
LINE
8
FRONT
10
1.515789
20
2.425380
30
0.0
11
0.000000
21
2.425380
31
0.0
0
LINE
8
FRONT
10
0.430520
20
2.323817
30
0.0
11
0.442673
21
1.828780
31
0.0
0
LINE
8
FRONT
10
0.442673
20
1.828780
30
0.0
11
1.100979
21
1.844941
31
0.0
0
LINE
8
FRONT
10
1.089223
20
2.323817
30
0.0
11
1.100979
21
1.844941
31
0.0
0
LINE
8
FRONT
10
0.234375
20
2.323817
30
0.0
11
0.246646
21
1.823968
31
0.0
0
LINE
8
FRONT
10
0.246646
20
1.823968
30
0.0
11
0.442673
21
1.828780
31
0.0
0
LINE
8
FRONT
10
0.010667
20
2.318326
30
0.0
11
0.234375
21
2.323817
31
0.0
0
LINE
8
FRONT
10
0.022937
20
1.818476
30
0.0
11
0.246646
21
1.823968
31
0.0
0
LINE
8
FRONT
10
1.271717
20
2.323817
30
0.0
11
1.283363
21
1.849418
31
0.0
0
LINE
8
FRONT
10
1.100979
20
1.844941
30
0.0
11
1.283363
21
1.849418
31
0.0
0
LINE
8
FRONT
10
0.000000
20
2.425380
30
0.0
11
0.000000
21
2.323817
31
0.0
0
LINE
8
FRONT
10
0.022937
20
1.818476
30
0.0
11
0.010667
21
2.318326
31
0.0
0
LINE
8
FRONT_HID
6
HIDDEN
10
1.231579
20
2.323817
30
0.0
11
0.352730
21
2.323817
31
0.0
0
LINE
8
FRONT_HID
6
HIDDEN
10
1.091680
20
2.323817
30
0.0
11
1.231579
21
2.323817
31
0.0
0
LINE
8
FRONT_HID
6
HIDDEN
10
1.091680
20
2.323817
30
0.0
11
1.271717
21
2.323817
31
0.0
0
LINE
8
FRONT_HID
6
HIDDEN
10
0.234375
20
2.323817
30
0.0
11
1.271717
21
2.323817
31
0.0
0
LINE
8
FRONT_HID
6
HIDDEN
10
0.234375
20
2.323817
30
0.0
11
0.430520
21
2.323817
31
0.0
0
LINE
8
FRONT_HID
6
HIDDEN
10
0.430520
20
2.323817
30
0.0
11
0.352730
21
2.323817
31
0.0
0
LINE
8
FRONT_HID
6
HIDDEN
10
1.231579
20
2.425380
30
0.0
11
0.284211
21
2.425380
31
0.0
0
LINE
8
FRONT_HID
6
HIDDEN
10
0.284211
20
2.425380
30
0.0
11
1.231579
21
2.425380
31
0.0
0
LINE
8
FRONT_HID
6
HIDDEN
10
0.352730
20
2.323817
30
0.0
11
0.351506
21
2.326693
31
0.0
0
LINE
8
FRONT_HID
6
HIDDEN
10
1.091409
20
2.344856
30
0.0
11
0.284211
21
2.325041
31
0.0
0
LINE
8
FRONT_HID
6
HIDDEN
10
0.284211
20
2.325041
30
0.0
11
0.351506
21
2.326693
31
0.0
0
LINE
8
FRONT_HID
6
HIDDEN
10
1.091680
20
2.323817
30
0.0
11
1.091409
21
2.344856
31
0.0
0
LINE
8
FRONT_HID
6
HIDDEN
10
1.231579
20
2.323817
30
0.0
11
1.231579
21
2.425380
31
0.0
0
LINE
8
FRONT_HID
6
HIDDEN
10
0.442673
20
1.828780
30
0.0
11
0.302718
21
1.825344
31
0.0
0
LINE
8
FRONT_HID
6
HIDDEN
10
0.302718
20
1.825344
30
0.0
11
0.442673
21
1.828780
31
0.0
0
LINE
8
FRONT_HID
6
HIDDEN
10
1.088708
20
2.344790
30
0.0
11
1.089223
21
2.323817
31
0.0
0
LINE
8
FRONT_HID
6
HIDDEN
10
0.351506
20
2.326693
30
0.0
11
0.290447
21
2.325194
31
0.0
0
LINE
8
FRONT_HID
6
HIDDEN
10
0.290447
20
2.325194
30
0.0
11
1.088708
21
2.344790
31
0.0
0
LINE
8
FRONT_HID
6
HIDDEN
10
1.283363
20
1.849418
30
0.0
11
0.022937
21
1.818476
31
0.0
0
LINE
8
FRONT_HID
6
HIDDEN
10
1.088708
20
2.344790
30
0.0
11
1.091409
21
2.344856
31
0.0
0
LINE
8
FRONT_HID
6
HIDDEN
10
0.284211
20
2.425380
30
0.0
11
0.284211
21
2.325041
31
0.0
0
LINE
8
FRONT_HID
6
HIDDEN
10
0.302718
20
1.825344
30
0.0
11
0.290447
21
2.325194
31
0.0
0
LINE
8
LEFT
10
1.818947
20
2.323817
30
0.0
11
3.334737
21
2.323817
31
0.0
0
LINE
8
LEFT
10
1.818947
20
2.425380
30
0.0
11
3.334737
21
2.425380
31
0.0
0
LINE
8
LEFT
10
2.029967
20
2.323817
30
0.0
11
2.029967
21
1.823968
31
0.0
0
LINE
8
LEFT
10
3.097872
20
2.323817
30
0.0
11
3.080925
21
2.323407
31
0.0
0
LINE
8
LEFT
10
3.080925
20
2.323407
30
0.0
11
3.063977
21
2.323023
31
0.0
0
LINE
8
LEFT
10
3.063977
20
2.323023
30
0.0
11
3.047029
21
2.322661
31
0.0
0
LINE
8
LEFT
10
3.047029
20
2.322661
30
0.0
11
3.030080
21
2.322320
31
0.0
0
LINE
8
LEFT
10
3.030080
20
2.322320
30
0.0
11
3.013131
21
2.321999
31
0.0
0
LINE
8
LEFT
10
3.013131
20
2.321999
30
0.0
11
2.996182
21
2.321696
31
0.0
0
LINE
8
LEFT
10
2.996182
20
2.321696
30
0.0
11
2.979232
21
2.321410
31
0.0
0
LINE
8
LEFT
10
2.979232
20
2.321410
30
0.0
11
2.962282
21
2.321141
31
0.0
0
LINE
8
LEFT
10
2.962282
20
2.321141
30
0.0
11
2.945332
21
2.320887
31
0.0
0
LINE
8
LEFT
10
2.945332
20
2.320887
30
0.0
11
2.928381
21
2.320649
31
0.0
0
LINE
8
LEFT
10
2.928381
20
2.320649
30
0.0
11
2.911430
21
2.320424
31
0.0
0
LINE
8
LEFT
10
2.911430
20
2.320424
30
0.0
11
2.894480
21
2.320213
31
0.0
0
LINE
8
LEFT
10
2.894480
20
2.320213
30
0.0
11
2.877529
21
2.320014
31
0.0
0
LINE
8
LEFT
10
2.877529
20
2.320014
30
0.0
11
2.860577
21
2.319829
31
0.0
0
LINE
8
LEFT
10
2.860577
20
2.319829
30
0.0
11
2.843626
21
2.319655
31
0.0
0
LINE
8
LEFT
10
2.843626
20
2.319655
30
0.0
11
2.826675
21
2.319494
31
0.0
0
LINE
8
LEFT
10
2.826675
20
2.319494
30
0.0
11
2.809723
21
2.319344
31
0.0
0
LINE
8
LEFT
10
2.809723
20
2.319344
30
0.0
11
2.792772
21
2.319204
31
0.0
0
LINE
8
LEFT
10
2.792772
20
2.319204
30
0.0
11
2.775820
21
2.319076
31
0.0
0
LINE
8
LEFT
10
2.775820
20
2.319076
30
0.0
11
2.758868
21
2.318959
31
0.0
0
LINE
8
LEFT
10
2.758868
20
2.318959
30
0.0
11
2.741916
21
2.318852
31
0.0
0
LINE
8
LEFT
10
2.741916
20
2.318852
30
0.0
11
2.724964
21
2.318755
31
0.0
0
LINE
8
LEFT
10
2.724964
20
2.318755
30
0.0
11
2.708013
21
2.318669
31
0.0
0
LINE
8
LEFT
10
2.708013
20
2.318669
30
0.0
11
2.691061
21
2.318592
31
0.0
0
LINE
8
LEFT
10
2.691061
20
2.318592
30
0.0
11
2.674109
21
2.318525
31
0.0
0
LINE
8
LEFT
10
2.674109
20
2.318525
30
0.0
11
2.657156
21
2.318468
31
0.0
0
LINE
8
LEFT
10
2.657156
20
2.318468
30
0.0
11
2.640204
21
2.318421
31
0.0
0
LINE
8
LEFT
10
2.640204
20
2.318421
30
0.0
11
2.623252
21
2.318383
31
0.0
0
LINE
8
LEFT
10
2.623252
20
2.318383
30
0.0
11
2.606300
21
2.318355
31
0.0
0
LINE
8
LEFT
10
2.606300
20
2.318355
30
0.0
11
2.589348
21
2.318336
31
0.0
0
LINE
8
LEFT
10
2.589348
20
2.318336
30
0.0
11
2.572396
21
2.318327
31
0.0
0
LINE
8
LEFT
10
2.572396
20
2.318327
30
0.0
11
2.555444
21
2.318327
31
0.0
0
LINE
8
LEFT
10
2.555444
20
2.318327
30
0.0
11
2.538491
21
2.318336
31
0.0
0
LINE
8
LEFT
10
2.538491
20
2.318336
30
0.0
11
2.521539
21
2.318355
31
0.0
0
LINE
8
LEFT
10
2.521539
20
2.318355
30
0.0
11
2.504587
21
2.318383
31
0.0
0
LINE
8
LEFT
10
2.504587
20
2.318383
30
0.0
11
2.487635
21
2.318421
31
0.0
0
LINE
8
LEFT
10
2.487635
20
2.318421
30
0.0
11
2.470683
21
2.318468
31
0.0
0
LINE
8
LEFT
10
2.470683
20
2.318468
30
0.0
11
2.453731
21
2.318525
31
0.0
0
LINE
8
LEFT
10
2.453731
20
2.318525
30
0.0
11
2.436779
21
2.318592
31
0.0
0
LINE
8
LEFT
10
2.436779
20
2.318592
30
0.0
11
2.419827
21
2.318669
31
0.0
0
LINE
8
LEFT
10
2.419827
20
2.318669
30
0.0
11
2.402875
21
2.318755
31
0.0
0
LINE
8
LEFT
10
2.402875
20
2.318755
30
0.0
11
2.385923
21
2.318852
31
0.0
0
LINE
8
LEFT
10
2.385923
20
2.318852
30
0.0
11
2.368971
21
2.318959
31
0.0
0
LINE
8
LEFT
10
2.368971
20
2.318959
30
0.0
11
2.352019
21
2.319076
31
0.0
0
LINE
8
LEFT
10
2.352019
20
2.319076
30
0.0
11
2.335068
21
2.319204
31
0.0
0
LINE
8
LEFT
10
2.335068
20
2.319204
30
0.0
11
2.318116
21
2.319344
31
0.0
0
LINE
8
LEFT
10
2.318116
20
2.319344
30
0.0
11
2.301165
21
2.319494
31
0.0
0
LINE
8
LEFT
10
2.301165
20
2.319494
30
0.0
11
2.284213
21
2.319655
31
0.0
0
LINE
8
LEFT
10
2.284213
20
2.319655
30
0.0
11
2.267262
21
2.319829
31
0.0
0
LINE
8
LEFT
10
2.267262
20
2.319829
30
0.0
11
2.250311
21
2.320014
31
0.0
0
LINE
8
LEFT
10
2.250311
20
2.320014
30
0.0
11
2.233360
21
2.320213
31
0.0
0
LINE
8
LEFT
10
2.233360
20
2.320213
30
0.0
11
2.216409
21
2.320424
31
0.0
0
LINE
8
LEFT
10
2.216409
20
2.320424
30
0.0
11
2.199458
21
2.320649
31
0.0
0
LINE
8
LEFT
10
2.199458
20
2.320649
30
0.0
11
2.182508
21
2.320887
31
0.0
0
LINE
8
LEFT
10
2.182508
20
2.320887
30
0.0
11
2.165558
21
2.321141
31
0.0
0
LINE
8
LEFT
10
2.165558
20
2.321141
30
0.0
11
2.148607
21
2.321410
31
0.0
0
LINE
8
LEFT
10
2.148607
20
2.321410
30
0.0
11
2.131658
21
2.321696
31
0.0
0
LINE
8
LEFT
10
2.131658
20
2.321696
30
0.0
11
2.114708
21
2.321999
31
0.0
0
LINE
8
LEFT
10
2.114708
20
2.321999
30
0.0
11
2.097759
21
2.322320
31
0.0
0
LINE
8
LEFT
10
2.097759
20
2.322320
30
0.0
11
2.080810
21
2.322661
31
0.0
0
LINE
8
LEFT
10
2.080810
20
2.322661
30
0.0
11
2.063862
21
2.323023
31
0.0
0
LINE
8
LEFT
10
2.063862
20
2.323023
30
0.0
11
2.046914
21
2.323407
31
0.0
0
LINE
8
LEFT
10
2.046914
20
2.323407
30
0.0
11
2.029967
21
2.323817
31
0.0
0
LINE
8
LEFT
10
3.312841
20
1.836855
30
0.0
11
3.293230
21
1.832677
31
0.0
0
LINE
8
LEFT
10
3.293230
20
1.832677
30
0.0
11
3.272925
21
1.830935
31
0.0
0
LINE
8
LEFT
10
3.272925
20
1.830935
30
0.0
11
3.252587
21
1.829633
31
0.0
0
LINE
8
LEFT
10
3.252587
20
1.829633
30
0.0
11
3.232235
21
1.828561
31
0.0
0
LINE
8
LEFT
10
3.232235
20
1.828561
30
0.0
11
3.211875
21
1.827639
31
0.0
0
LINE
8
LEFT
10
3.211875
20
1.827639
30
0.0
11
3.191512
21
1.826826
31
0.0
0
LINE
8
LEFT
10
3.191512
20
1.826826
30
0.0
11
3.171144
21
1.826097
31
0.0
0
LINE
8
LEFT
10
3.171144
20
1.826097
30
0.0
11
3.150775
21
1.825437
31
0.0
0
LINE
8
LEFT
10
3.150775
20
1.825437
30
0.0
11
3.130404
21
1.824833
31
0.0
0
LINE
8
LEFT
10
3.130404
20
1.824833
30
0.0
11
3.110031
21
1.824278
31
0.0
0
LINE
8
LEFT
10
3.110031
20
1.824278
30
0.0
11
3.089657
21
1.823766
31
0.0
0
LINE
8
LEFT
10
3.089657
20
1.823766
30
0.0
11
3.069283
21
1.823291
31
0.0
0
LINE
8
LEFT
10
3.069283
20
1.823291
30
0.0
11
3.048907
21
1.822850
31
0.0
0
LINE
8
LEFT
10
3.048907
20
1.822850
30
0.0
11
3.028531
21
1.822440
31
0.0
0
LINE
8
LEFT
10
3.028531
20
1.822440
30
0.0
11
3.008155
21
1.822058
31
0.0
0
LINE
8
LEFT
10
3.008155
20
1.822058
30
0.0
11
2.987778
21
1.821703
31
0.0
0
LINE
8
LEFT
10
2.987778
20
1.821703
30
0.0
11
2.967400
21
1.821371
31
0.0
0
LINE
8
LEFT
10
2.967400
20
1.821371
30
0.0
11
2.947022
21
1.821063
31
0.0
0
LINE
8
LEFT
10
2.947022
20
1.821063
30
0.0
11
2.926644
21
1.820775
31
0.0
0
LINE
8
LEFT
10
2.926644
20
1.820775
30
0.0
11
2.906266
21
1.820509
31
0.0
0
LINE
8
LEFT
10
2.906266
20
1.820509
30
0.0
11
2.885887
21
1.820261
31
0.0
0
LINE
8
LEFT
10
2.885887
20
1.820261
30
0.0
11
2.865508
21
1.820032
31
0.0
0
LINE
8
LEFT
10
2.865508
20
1.820032
30
0.0
11
2.845129
21
1.819821
31
0.0
0
LINE
8
LEFT
10
2.845129
20
1.819821
30
0.0
11
2.824750
21
1.819627
31
0.0
0
LINE
8
LEFT
10
2.824750
20
1.819627
30
0.0
11
2.804370
21
1.819449
31
0.0
0
LINE
8
LEFT
10
2.804370
20
1.819449
30
0.0
11
2.783991
21
1.819287
31
0.0
0
LINE
8
LEFT
10
2.783991
20
1.819287
30
0.0
11
2.763611
21
1.819141
31
0.0
0
LINE
8
LEFT
10
2.763611
20
1.819141
30
0.0
11
2.743232
21
1.819011
31
0.0
0
LINE
8
LEFT
10
2.743232
20
1.819011
30
0.0
11
2.722852
21
1.818895
31
0.0
0
LINE
8
LEFT
10
2.722852
20
1.818895
30
0.0
11
2.702472
21
1.818793
31
0.0
0
LINE
8
LEFT
10
2.702472
20
1.818793
30
0.0
11
2.682092
21
1.818706
31
0.0
0
LINE
8
LEFT
10
2.682092
20
1.818706
30
0.0
11
2.661712
21
1.818633
31
0.0
0
LINE
8
LEFT
10
2.661712
20
1.818633
30
0.0
11
2.641332
21
1.818574
31
0.0
0
LINE
8
LEFT
10
2.641332
20
1.818574
30
0.0
11
2.620952
21
1.818529
31
0.0
0
LINE
8
LEFT
10
2.620952
20
1.818529
30
0.0
11
2.600571
21
1.818498
31
0.0
0
LINE
8
LEFT
10
2.600571
20
1.818498
30
0.0
11
2.580191
21
1.818480
31
0.0
0
LINE
8
LEFT
10
2.580191
20
1.818480
30
0.0
11
2.559811
21
1.818476
31
0.0
0
LINE
8
LEFT
10
2.559811
20
1.818476
30
0.0
11
2.539431
21
1.818486
31
0.0
0
LINE
8
LEFT
10
2.539431
20
1.818486
30
0.0
11
2.519051
21
1.818509
31
0.0
0
LINE
8
LEFT
10
2.519051
20
1.818509
30
0.0
11
2.498671
21
1.818546
31
0.0
0
LINE
8
LEFT
10
2.498671
20
1.818546
30
0.0
11
2.478290
21
1.818596
31
0.0
0
LINE
8
LEFT
10
2.478290
20
1.818596
30
0.0
11
2.457910
21
1.818661
31
0.0
0
LINE
8
LEFT
10
2.457910
20
1.818661
30
0.0
11
2.437530
21
1.818740
31
0.0
0
LINE
8
LEFT
10
2.437530
20
1.818740
30
0.0
11
2.417150
21
1.818832
31
0.0
0
LINE
8
LEFT
10
2.417150
20
1.818832
30
0.0
11
2.396770
21
1.818940
31
0.0
0
LINE
8
LEFT
10
2.396770
20
1.818940
30
0.0
11
2.376391
21
1.819061
31
0.0
0
LINE
8
LEFT
10
2.376391
20
1.819061
30
0.0
11
2.356011
21
1.819198
31
0.0
0
LINE
8
LEFT
10
2.356011
20
1.819198
30
0.0
11
2.335631
21
1.819351
31
0.0
0
LINE
8
LEFT
10
2.335631
20
1.819351
30
0.0
11
2.315252
21
1.819519
31
0.0
0
LINE
8
LEFT
10
2.315252
20
1.819519
30
0.0
11
2.294873
21
1.819703
31
0.0
0
LINE
8
LEFT
10
2.294873
20
1.819703
30
0.0
11
2.274493
21
1.819904
31
0.0
0
LINE
8
LEFT
10
2.274493
20
1.819904
30
0.0
11
2.254114
21
1.820122
31
0.0
0
LINE
8
LEFT
10
2.254114
20
1.820122
30
0.0
11
2.233736
21
1.820359
31
0.0
0
LINE
8
LEFT
10
2.233736
20
1.820359
30
0.0
11
2.213357
21
1.820614
31
0.0
0
LINE
8
LEFT
10
2.213357
20
1.820614
30
0.0
11
2.192979
21
1.820889
31
0.0
0
LINE
8
LEFT
10
2.192979
20
1.820889
30
0.0
11
2.172601
21
1.821184
31
0.0
0
LINE
8
LEFT
10
2.172601
20
1.821184
30
0.0
11
2.152223
21
1.821502
31
0.0
0
LINE
8
LEFT
10
2.152223
20
1.821502
30
0.0
11
2.131846
21
1.821843
31
0.0
0
LINE
8
LEFT
10
2.131846
20
1.821843
30
0.0
11
2.111469
21
1.822209
31
0.0
0
LINE
8
LEFT
10
2.111469
20
1.822209
30
0.0
11
2.091092
21
1.822602
31
0.0
0
LINE
8
LEFT
10
2.091092
20
1.822602
30
0.0
11
2.070717
21
1.823024
31
0.0
0
LINE
8
LEFT
10
2.070717
20
1.823024
30
0.0
11
2.050341
21
1.823478
31
0.0
0
LINE
8
LEFT
10
2.050341
20
1.823478
30
0.0
11
2.029967
21
1.823968
31
0.0
0
LINE
8
LEFT
10
1.818947
20
2.425380
30
0.0
11
1.818947
21
2.323817
31
0.0
0
LINE
8
LEFT
10
3.334737
20
2.425380
30
0.0
11
3.334737
21
2.323817
31
0.0
0
LINE
8
LEFT
10
3.312841
20
1.836855
30
0.0
11
3.312841
21
2.323817
31
0.0
0
LINE
8
LEFT_HID
6
HIDDEN
10
2.576842
20
2.323817
30
0.0
11
1.818947
21
2.323817
31
0.0
0
LINE
8
LEFT_HID
6
HIDDEN
10
3.334737
20
2.323817
30
0.0
11
2.576842
21
2.323817
31
0.0
0
LINE
8
LEFT_HID
6
HIDDEN
10
2.576842
20
2.425380
30
0.0
11
1.818947
21
2.425380
31
0.0
0
LINE
8
LEFT_HID
6
HIDDEN
10
3.334737
20
2.425380
30
0.0
11
2.576842
21
2.425380
31
0.0
0
LINE
8
LEFT_HID
6
HIDDEN
10
2.576842
20
2.323817
30
0.0
11
2.103158
21
2.323817
31
0.0
0
LINE
8
LEFT_HID
6
HIDDEN
10
2.103158
20
2.323817
30
0.0
11
2.331448
21
2.323817
31
0.0
0
LINE
8
LEFT_HID
6
HIDDEN
10
2.912944
20
2.323817
30
0.0
11
2.576842
21
2.323817
31
0.0
0
LINE
8
LEFT_HID
6
HIDDEN
10
2.912944
20
2.323817
30
0.0
11
3.110599
21
2.323817
31
0.0
0
LINE
8
LEFT_HID
6
HIDDEN
10
3.097872
20
2.323817
30
0.0
11
3.312841
21
2.323817
31
0.0
0
LINE
8
LEFT_HID
6
HIDDEN
10
3.312841
20
2.323817
30
0.0
11
3.110599
21
2.323817
31
0.0
0
LINE
8
LEFT_HID
6
HIDDEN
10
3.097872
20
2.323817
30
0.0
11
2.029967
21
2.323817
31
0.0
0
LINE
8
LEFT_HID
6
HIDDEN
10
2.029967
20
2.323817
30
0.0
11
2.229985
21
2.323817
31
0.0
0
LINE
8
LEFT_HID
6
HIDDEN
10
2.229985
20
2.323817
30
0.0
11
2.331448
21
2.323817
31
0.0
0
LINE
8
LEFT_HID
6
HIDDEN
10
2.576842
20
2.425380
30
0.0
11
2.103158
21
2.425380
31
0.0
0
LINE
8
LEFT_HID
6
HIDDEN
10
2.103158
20
2.425380
30
0.0
11
3.050526
21
2.425380
31
0.0
0
LINE
8
LEFT_HID
6
HIDDEN
10
3.050526
20
2.425380
30
0.0
11
2.576842
21
2.425380
31
0.0
0
LINE
8
LEFT_HID
6
HIDDEN
10
2.331448
20
2.323817
30
0.0
11
2.333480
21
2.326693
31
0.0
0
LINE
8
LEFT_HID
6
HIDDEN
10
2.913213
20
2.344856
30
0.0
11
2.915401
21
2.344799
31
0.0
0
LINE
8
LEFT_HID
6
HIDDEN
10
2.915401
20
2.344799
30
0.0
11
2.917589
21
2.344742
31
0.0
0
LINE
8
LEFT_HID
6
HIDDEN
10
2.917589
20
2.344742
30
0.0
11
2.919777
21
2.344684
31
0.0
0
LINE
8
LEFT_HID
6
HIDDEN
10
2.919777
20
2.344684
30
0.0
11
2.921965
21
2.344627
31
0.0
0
LINE
8
LEFT_HID
6
HIDDEN
10
2.921965
20
2.344627
30
0.0
11
2.924153
21
2.344570
31
0.0
0
LINE
8
LEFT_HID
6
HIDDEN
10
2.924153
20
2.344570
30
0.0
11
2.926341
21
2.344512
31
0.0
0
LINE
8
LEFT_HID
6
HIDDEN
10
2.926341
20
2.344512
30
0.0
11
2.928529
21
2.344455
31
0.0
0
LINE
8
LEFT_HID
6
HIDDEN
10
2.928529
20
2.344455
30
0.0
11
2.930717
21
2.344398
31
0.0
0
LINE
8
LEFT_HID
6
HIDDEN
10
2.930717
20
2.344398
30
0.0
11
2.932905
21
2.344335
31
0.0
0
LINE
8
LEFT_HID
6
HIDDEN
10
2.932905
20
2.344335
30
0.0
11
2.935093
21
2.344271
31
0.0
0
LINE
8
LEFT_HID
6
HIDDEN
10
2.935093
20
2.344271
30
0.0
11
2.937281
21
2.344207
31
0.0
0
LINE
8
LEFT_HID
6
HIDDEN
10
2.937281
20
2.344207
30
0.0
11
2.939468
21
2.344143
31
0.0
0
LINE
8
LEFT_HID
6
HIDDEN
10
2.939468
20
2.344143
30
0.0
11
2.941656
21
2.344079
31
0.0
0
LINE
8
LEFT_HID
6
HIDDEN
10
2.941656
20
2.344079
30
0.0
11
2.943844
21
2.344015
31
0.0
0
LINE
8
LEFT_HID
6
HIDDEN
10
2.943844
20
2.344015
30
0.0
11
2.946032
21
2.343951
31
0.0
0
LINE
8
LEFT_HID
6
HIDDEN
10
2.946032
20
2.343951
30
0.0
11
2.948220
21
2.343887
31
0.0
0
LINE
8
LEFT_HID
6
HIDDEN
10
2.948220
20
2.343887
30
0.0
11
2.950407
21
2.343815
31
0.0
0
LINE
8
LEFT_HID
6
HIDDEN
10
2.950407
20
2.343815
30
0.0
11
2.952595
21
2.343743
31
0.0
0
LINE
8
LEFT_HID
6
HIDDEN
10
2.952595
20
2.343743
30
0.0
11
2.954783
21
2.343671
31
0.0
0
LINE
8
LEFT_HID
6
HIDDEN
10
2.954783
20
2.343671
30
0.0
11
2.956970
21
2.343599
31
0.0
0
LINE
8
LEFT_HID
6
HIDDEN
10
2.956970
20
2.343599
30
0.0
11
2.959158
21
2.343528
31
0.0
0
LINE
8
LEFT_HID
6
HIDDEN
10
2.959158
20
2.343528
30
0.0
11
2.961345
21
2.343456
31
0.0
0
LINE
8
LEFT_HID
6
HIDDEN
10
2.961345
20
2.343456
30
0.0
11
2.963533
21
2.343384
31
0.0
0
LINE
8
LEFT_HID
6
HIDDEN
10
2.963533
20
2.343384
30
0.0
11
2.965720
21
2.343305
31
0.0
0
LINE
8
LEFT_HID
6
HIDDEN
10
2.965720
20
2.343305
30
0.0
11
2.967908
21
2.343224
31
0.0
0
LINE
8
LEFT_HID
6
HIDDEN
10
2.967908
20
2.343224
30
0.0
11
2.970095
21
2.343143
31
0.0
0
LINE
8
LEFT_HID
6
HIDDEN
10
2.970095
20
2.343143
30
0.0
11
2.972282
21
2.343062
31
0.0
0
LINE
8
LEFT_HID
6
HIDDEN
10
2.972282
20
2.343062
30
0.0
11
2.974470
21
2.342981
31
0.0
0
LINE
8
LEFT_HID
6
HIDDEN
10
2.974470
20
2.342981
30
0.0
11
2.976657
21
2.342901
31
0.0
0
LINE
8
LEFT_HID
6
HIDDEN
10
2.976657
20
2.342901
30
0.0
11
2.978844
21
2.342819
31
0.0
0
LINE
8
LEFT_HID
6
HIDDEN
10
2.978844
20
2.342819
30
0.0
11
2.981031
21
2.342727
31
0.0
0
LINE
8
LEFT_HID
6
HIDDEN
10
2.981031
20
2.342727
30
0.0
11
2.983218
21
2.342636
31
0.0
0
LINE
8
LEFT_HID
6
HIDDEN
10
2.983218
20
2.342636
30
0.0
11
2.985405
21
2.342544
31
0.0
0
LINE
8
LEFT_HID
6
HIDDEN
10
2.985405
20
2.342544
30
0.0
11
2.987592
21
2.342452
31
0.0
0
LINE
8
LEFT_HID
6
HIDDEN
10
2.987592
20
2.342452
30
0.0
11
2.989778
21
2.342361
31
0.0
0
LINE
8
LEFT_HID
6
HIDDEN
10
2.989778
20
2.342361
30
0.0
11
2.991965
21
2.342269
31
0.0
0
LINE
8
LEFT_HID
6
HIDDEN
10
2.991965
20
2.342269
30
0.0
11
2.994152
21
2.342165
31
0.0
0
LINE
8
LEFT_HID
6
HIDDEN
10
2.994152
20
2.342165
30
0.0
11
2.996338
21
2.342061
31
0.0
0
LINE
8
LEFT_HID
6
HIDDEN
10
2.996338
20
2.342061
30
0.0
11
2.998524
21
2.341956
31
0.0
0
LINE
8
LEFT_HID
6
HIDDEN
10
2.998524
20
2.341956
30
0.0
11
3.000710
21
2.341851
31
0.0
0
LINE
8
LEFT_HID
6
HIDDEN
10
3.000710
20
2.341851
30
0.0
11
3.002897
21
2.341747
31
0.0
0
LINE
8
LEFT_HID
6
HIDDEN
10
3.002897
20
2.341747
30
0.0
11
3.005083
21
2.341635
31
0.0
0
LINE
8
LEFT_HID
6
HIDDEN
10
3.005083
20
2.341635
30
0.0
11
3.007268
21
2.341515
31
0.0
0
LINE
8
LEFT_HID
6
HIDDEN
10
3.007268
20
2.341515
30
0.0
11
3.009454
21
2.341394
31
0.0
0
LINE
8
LEFT_HID
6
HIDDEN
10
3.009454
20
2.341394
30
0.0
11
3.011639
21
2.341273
31
0.0
0
LINE
8
LEFT_HID
6
HIDDEN
10
3.011639
20
2.341273
30
0.0
11
3.013824
21
2.341153
31
0.0
0
LINE
8
LEFT_HID
6
HIDDEN
10
3.013824
20
2.341153
30
0.0
11
3.016009
21
2.341021
31
0.0
0
LINE
8
LEFT_HID
6
HIDDEN
10
3.016009
20
2.341021
30
0.0
11
3.018193
21
2.340880
31
0.0
0
LINE
8
LEFT_HID
6
HIDDEN
10
3.018193
20
2.340880
30
0.0
11
3.020378
21
2.340739
31
0.0
0
LINE
8
LEFT_HID
6
HIDDEN
10
3.020378
20
2.340739
30
0.0
11
3.022562
21
2.340597
31
0.0
0
LINE
8
LEFT_HID
6
HIDDEN
10
3.022562
20
2.340597
30
0.0
11
3.024746
21
2.340449
31
0.0
0
LINE
8
LEFT_HID
6
HIDDEN
10
3.024746
20
2.340449
30
0.0
11
3.026928
21
2.340280
31
0.0
0
LINE
8
LEFT_HID
6
HIDDEN
10
3.026928
20
2.340280
30
0.0
11
3.029110
21
2.340111
31
0.0
0
LINE
8
LEFT_HID
6
HIDDEN
10
3.029110
20
2.340111
30
0.0
11
3.031292
21
2.339942
31
0.0
0
LINE
8
LEFT_HID
6
HIDDEN
10
3.031292
20
2.339942
30
0.0
11
3.033473
21
2.339750
31
0.0
0
LINE
8
LEFT_HID
6
HIDDEN
10
3.033473
20
2.339750
30
0.0
11
3.035651
21
2.339542
31
0.0
0
LINE
8
LEFT_HID
6
HIDDEN
10
3.035651
20
2.339542
30
0.0
11
3.037830
21
2.339333
31
0.0
0
LINE
8
LEFT_HID
6
HIDDEN
10
3.037830
20
2.339333
30
0.0
11
3.040005
21
2.339090
31
0.0
0
LINE
8
LEFT_HID
6
HIDDEN
10
3.040005
20
2.339090
30
0.0
11
3.042177
21
2.338821
31
0.0
0
LINE
8
LEFT_HID
6
HIDDEN
10
3.042177
20
2.338821
30
0.0
11
3.044346
21
2.338529
31
0.0
0
LINE
8
LEFT_HID
6
HIDDEN
10
3.044346
20
2.338529
30
0.0
11
3.046502
21
2.338152
31
0.0
0
LINE
8
LEFT_HID
6
HIDDEN
10
3.046502
20
2.338152
30
0.0
11
3.048631
21
2.337656
31
0.0
0
LINE
8
LEFT_HID
6
HIDDEN
10
3.048631
20
2.337656
30
0.0
11
3.050526
21
2.336669
31
0.0
0
LINE
8
LEFT_HID
6
HIDDEN
10
3.050526
20
2.336669
30
0.0
11
3.039446
21
2.334313
31
0.0
0
LINE
8
LEFT_HID
6
HIDDEN
10
3.039446
20
2.334313
30
0.0
11
3.028116
21
2.333151
31
0.0
0
LINE
8
LEFT_HID
6
HIDDEN
10
3.028116
20
2.333151
30
0.0
11
3.016749
21
2.332446
31
0.0
0
LINE
8
LEFT_HID
6
HIDDEN
10
3.016749
20
2.332446
30
0.0
11
3.005381
21
2.331741
31
0.0
0
LINE
8
LEFT_HID
6
HIDDEN
10
3.005381
20
2.331741
30
0.0
11
2.994004
21
2.331212
31
0.0
0
LINE
8
LEFT_HID
6
HIDDEN
10
2.994004
20
2.331212
30
0.0
11
2.982624
21
2.330733
31
0.0
0
LINE
8
LEFT_HID
6
HIDDEN
10
2.982624
20
2.330733
30
0.0
11
2.971244
21
2.330254
31
0.0
0
LINE
8
LEFT_HID
6
HIDDEN
10
2.971244
20
2.330254
30
0.0
11
2.959862
21
2.329857
31
0.0
0
LINE
8
LEFT_HID
6
HIDDEN
10
2.959862
20
2.329857
30
0.0
11
2.948477
21
2.329510
31
0.0
0
LINE
8
LEFT_HID
6
HIDDEN
10
2.948477
20
2.329510
30
0.0
11
2.937093
21
2.329164
31
0.0
0
LINE
8
LEFT_HID
6
HIDDEN
10
2.937093
20
2.329164
30
0.0
11
2.925708
21
2.328817
31
0.0
0
LINE
8
LEFT_HID
6
HIDDEN
10
2.925708
20
2.328817
30
0.0
11
2.914322
21
2.328533
31
0.0
0
LINE
8
LEFT_HID
6
HIDDEN
10
2.914322
20
2.328533
30
0.0
11
2.902935
21
2.328277
31
0.0
0
LINE
8
LEFT_HID
6
HIDDEN
10
2.902935
20
2.328277
30
0.0
11
2.891549
21
2.328021
31
0.0
0
LINE
8
LEFT_HID
6
HIDDEN
10
2.891549
20
2.328021
30
0.0
11
2.880162
21
2.327765
31
0.0
0
LINE
8
LEFT_HID
6
HIDDEN
10
2.880162
20
2.327765
30
0.0
11
2.868775
21
2.327514
31
0.0
0
LINE
8
LEFT_HID
6
HIDDEN
10
2.868775
20
2.327514
30
0.0
11
2.857387
21
2.327326
31
0.0
0
LINE
8
LEFT_HID
6
HIDDEN
10
2.857387
20
2.327326
30
0.0
11
2.845998
21
2.327139
31
0.0
0
LINE
8
LEFT_HID
6
HIDDEN
10
2.845998
20
2.327139
30
0.0
11
2.834610
21
2.326951
31
0.0
0
LINE
8
LEFT_HID
6
HIDDEN
10
2.834610
20
2.326951
30
0.0
11
2.823222
21
2.326763
31
0.0
0
LINE
8
LEFT_HID
6
HIDDEN
10
2.823222
20
2.326763
30
0.0
11
2.811834
21
2.326576
31
0.0
0
LINE
8
LEFT_HID
6
HIDDEN
10
2.811834
20
2.326576
30
0.0
11
2.800445
21
2.326437
31
0.0
0
LINE
8
LEFT_HID
6
HIDDEN
10
2.800445
20
2.326437
30
0.0
11
2.789056
21
2.326305
31
0.0
0
LINE
8
LEFT_HID
6
HIDDEN
10
2.789056
20
2.326305
30
0.0
11
2.777667
21
2.326174
31
0.0
0
LINE
8
LEFT_HID
6
HIDDEN
10
2.777667
20
2.326174
30
0.0
11
2.766278
21
2.326042
31
0.0
0
LINE
8
LEFT_HID
6
HIDDEN
10
2.766278
20
2.326042
30
0.0
11
2.754889
21
2.325910
31
0.0
0
LINE
8
LEFT_HID
6
HIDDEN
10
2.754889
20
2.325910
30
0.0
11
2.743500
21
2.325789
31
0.0
0
LINE
8
LEFT_HID
6
HIDDEN
10
2.743500
20
2.325789
30
0.0
11
2.732111
21
2.325705
31
0.0
0
LINE
8
LEFT_HID
6
HIDDEN
10
2.732111
20
2.325705
30
0.0
11
2.720721
21
2.325622
31
0.0
0
LINE
8
LEFT_HID
6
HIDDEN
10
2.720721
20
2.325622
30
0.0
11
2.709332
21
2.325539
31
0.0
0
LINE
8
LEFT_HID
6
HIDDEN
10
2.709332
20
2.325539
30
0.0
11
2.697942
21
2.325456
31
0.0
0
LINE
8
LEFT_HID
6
HIDDEN
10
2.697942
20
2.325456
30
0.0
11
2.686553
21
2.325372
31
0.0
0
LINE
8
LEFT_HID
6
HIDDEN
10
2.686553
20
2.325372
30
0.0
11
2.675163
21
2.325298
31
0.0
0
LINE
8
LEFT_HID
6
HIDDEN
10
2.675163
20
2.325298
30
0.0
11
2.663774
21
2.325259
31
0.0
0
LINE
8
LEFT_HID
6
HIDDEN
10
2.663774
20
2.325259
30
0.0
11
2.652384
21
2.325220
31
0.0
0
LINE
8
LEFT_HID
6
HIDDEN
10
2.652384
20
2.325220
30
0.0
11
2.640994
21
2.325181
31
0.0
0
LINE
8
LEFT_HID
6
HIDDEN
10
2.640994
20
2.325181
30
0.0
11
2.629605
21
2.325142
31
0.0
0
LINE
8
LEFT_HID
6
HIDDEN
10
2.629605
20
2.325142
30
0.0
11
2.618215
21
2.325103
31
0.0
0
LINE
8
LEFT_HID
6
HIDDEN
10
2.618215
20
2.325103
30
0.0
11
2.606825
21
2.325064
31
0.0
0
LINE
8
LEFT_HID
6
HIDDEN
10
2.606825
20
2.325064
30
0.0
11
2.595436
21
2.325067
31
0.0
0
LINE
8
LEFT_HID
6
HIDDEN
10
2.595436
20
2.325067
30
0.0
11
2.584046
21
2.325071
31
0.0
0
LINE
8
LEFT_HID
6
HIDDEN
10
2.584046
20
2.325071
30
0.0
11
2.572656
21
2.325074
31
0.0
0
LINE
8
LEFT_HID
6
HIDDEN
10
2.572656
20
2.325074
30
0.0
11
2.561267
21
2.325077
31
0.0
0
LINE
8
LEFT_HID
6
HIDDEN
10
2.561267
20
2.325077
30
0.0
11
2.549877
21
2.325081
31
0.0
0
LINE
8
LEFT_HID
6
HIDDEN
10
2.549877
20
2.325081
30
0.0
11
2.538487
21
2.325084
31
0.0
0
LINE
8
LEFT_HID
6
HIDDEN
10
2.538487
20
2.325084
30
0.0
11
2.527097
21
2.325119
31
0.0
0
LINE
8
LEFT_HID
6
HIDDEN
10
2.527097
20
2.325119
30
0.0
11
2.515708
21
2.325165
31
0.0
0
LINE
8
LEFT_HID
6
HIDDEN
10
2.515708
20
2.325165
30
0.0
11
2.504318
21
2.325211
31
0.0
0
LINE
8
LEFT_HID
6
HIDDEN
10
2.504318
20
2.325211
30
0.0
11
2.492929
21
2.325256
31
0.0
0
LINE
8
LEFT_HID
6
HIDDEN
10
2.492929
20
2.325256
30
0.0
11
2.481539
21
2.325302
31
0.0
0
LINE
8
LEFT_HID
6
HIDDEN
10
2.481539
20
2.325302
30
0.0
11
2.470149
21
2.325348
31
0.0
0
LINE
8
LEFT_HID
6
HIDDEN
10
2.470149
20
2.325348
30
0.0
11
2.458760
21
2.325419
31
0.0
0
LINE
8
LEFT_HID
6
HIDDEN
10
2.458760
20
2.325419
30
0.0
11
2.447370
21
2.325510
31
0.0
0
LINE
8
LEFT_HID
6
HIDDEN
10
2.447370
20
2.325510
30
0.0
11
2.435981
21
2.325600
31
0.0
0
LINE
8
LEFT_HID
6
HIDDEN
10
2.435981
20
2.325600
30
0.0
11
2.424592
21
2.325691
31
0.0
0
LINE
8
LEFT_HID
6
HIDDEN
10
2.424592
20
2.325691
30
0.0
11
2.413202
21
2.325782
31
0.0
0
LINE
8
LEFT_HID
6
HIDDEN
10
2.413202
20
2.325782
30
0.0
11
2.401813
21
2.325872
31
0.0
0
LINE
8
LEFT_HID
6
HIDDEN
10
2.401813
20
2.325872
30
0.0
11
2.390424
21
2.325993
31
0.0
0
LINE
8
LEFT_HID
6
HIDDEN
10
2.390424
20
2.325993
30
0.0
11
2.379035
21
2.326133
31
0.0
0
LINE
8
LEFT_HID
6
HIDDEN
10
2.379035
20
2.326133
30
0.0
11
2.367646
21
2.326273
31
0.0
0
LINE
8
LEFT_HID
6
HIDDEN
10
2.367646
20
2.326273
30
0.0
11
2.356257
21
2.326413
31
0.0
0
LINE
8
LEFT_HID
6
HIDDEN
10
2.356257
20
2.326413
30
0.0
11
2.344868
21
2.326553
31
0.0
0
LINE
8
LEFT_HID
6
HIDDEN
10
2.344868
20
2.326553
30
0.0
11
2.333480
21
2.326693
31
0.0
0
LINE
8
LEFT_HID
6
HIDDEN
10
2.912944
20
2.323817
30
0.0
11
2.913213
21
2.344856
31
0.0
0
LINE
8
LEFT_HID
6
HIDDEN
10
2.229985
20
2.323817
30
0.0
11
2.229985
21
1.828780
31
0.0
0
LINE
8
LEFT_HID
6
HIDDEN
10
2.229985
20
1.828780
30
0.0
11
2.242841
21
1.828474
31
0.0
0
LINE
8
LEFT_HID
6
HIDDEN
10
2.242841
20
1.828474
30
0.0
11
2.255699
21
1.828189
31
0.0
0
LINE
8
LEFT_HID
6
HIDDEN
10
2.255699
20
1.828189
30
0.0
11
2.268556
21
1.827925
31
0.0
0
LINE
8
LEFT_HID
6
HIDDEN
10
2.268556
20
1.827925
30
0.0
11
2.281414
21
1.827679
31
0.0
0
LINE
8
LEFT_HID
6
HIDDEN
10
2.281414
20
1.827679
30
0.0
11
2.294272
21
1.827450
31
0.0
0
LINE
8
LEFT_HID
6
HIDDEN
10
2.294272
20
1.827450
30
0.0
11
2.307131
21
1.827236
31
0.0
0
LINE
8
LEFT_HID
6
HIDDEN
10
2.307131
20
1.827236
30
0.0
11
2.319989
21
1.827037
31
0.0
0
LINE
8
LEFT_HID
6
HIDDEN
10
2.319989
20
1.827037
30
0.0
11
2.332848
21
1.826852
31
0.0
0
LINE
8
LEFT_HID
6
HIDDEN
10
2.332848
20
1.826852
30
0.0
11
2.345707
21
1.826680
31
0.0
0
LINE
8
LEFT_HID
6
HIDDEN
10
2.345707
20
1.826680
30
0.0
11
2.358566
21
1.826520
31
0.0
0
LINE
8
LEFT_HID
6
HIDDEN
10
2.358566
20
1.826520
30
0.0
11
2.371426
21
1.826372
31
0.0
0
LINE
8
LEFT_HID
6
HIDDEN
10
2.371426
20
1.826372
30
0.0
11
2.384285
21
1.826235
31
0.0
0
LINE
8
LEFT_HID
6
HIDDEN
10
2.384285
20
1.826235
30
0.0
11
2.397145
21
1.826109
31
0.0
0
LINE
8
LEFT_HID
6
HIDDEN
10
2.397145
20
1.826109
30
0.0
11
2.410005
21
1.825994
31
0.0
0
LINE
8
LEFT_HID
6
HIDDEN
10
2.410005
20
1.825994
30
0.0
11
2.422864
21
1.825889
31
0.0
0
LINE
8
LEFT_HID
6
HIDDEN
10
2.422864
20
1.825889
30
0.0
11
2.435724
21
1.825793
31
0.0
0
LINE
8
LEFT_HID
6
HIDDEN
10
2.435724
20
1.825793
30
0.0
11
2.448584
21
1.825708
31
0.0
0
LINE
8
LEFT_HID
6
HIDDEN
10
2.448584
20
1.825708
30
0.0
11
2.461444
21
1.825631
31
0.0
0
LINE
8
LEFT_HID
6
HIDDEN
10
2.461444
20
1.825631
30
0.0
11
2.474304
21
1.825565
31
0.0
0
LINE
8
LEFT_HID
6
HIDDEN
10
2.474304
20
1.825565
30
0.0
11
2.487164
21
1.825507
31
0.0
0
LINE
8
LEFT_HID
6
HIDDEN
10
2.487164
20
1.825507
30
0.0
11
2.500024
21
1.825458
31
0.0
0
LINE
8
LEFT_HID
6
HIDDEN
10
2.500024
20
1.825458
30
0.0
11
2.512885
21
1.825418
31
0.0
0
LINE
8
LEFT_HID
6
HIDDEN
10
2.512885
20
1.825418
30
0.0
11
2.525745
21
1.825386
31
0.0
0
LINE
8
LEFT_HID
6
HIDDEN
10
2.525745
20
1.825386
30
0.0
11
2.538605
21
1.825364
31
0.0
0
LINE
8
LEFT_HID
6
HIDDEN
10
2.538605
20
1.825364
30
0.0
11
2.551465
21
1.825350
31
0.0
0
LINE
8
LEFT_HID
6
HIDDEN
10
2.551465
20
1.825350
30
0.0
11
2.564325
21
1.825344
31
0.0
0
LINE
8
LEFT_HID
6
HIDDEN
10
2.564325
20
1.825344
30
0.0
11
2.577186
21
1.825347
31
0.0
0
LINE
8
LEFT_HID
6
HIDDEN
10
2.577186
20
1.825347
30
0.0
11
2.590046
21
1.825359
31
0.0
0
LINE
8
LEFT_HID
6
HIDDEN
10
2.590046
20
1.825359
30
0.0
11
2.602906
21
1.825379
31
0.0
0
LINE
8
LEFT_HID
6
HIDDEN
10
2.602906
20
1.825379
30
0.0
11
2.615766
21
1.825408
31
0.0
0
LINE
8
LEFT_HID
6
HIDDEN
10
2.615766
20
1.825408
30
0.0
11
2.628626
21
1.825446
31
0.0
0
LINE
8
LEFT_HID
6
HIDDEN
10
2.628626
20
1.825446
30
0.0
11
2.641486
21
1.825493
31
0.0
0
LINE
8
LEFT_HID
6
HIDDEN
10
2.641486
20
1.825493
30
0.0
11
2.654347
21
1.825548
31
0.0
0
LINE
8
LEFT_HID
6
HIDDEN
10
2.654347
20
1.825548
30
0.0
11
2.667207
21
1.825612
31
0.0
0
LINE
8
LEFT_HID
6
HIDDEN
10
2.667207
20
1.825612
30
0.0
11
2.680067
21
1.825686
31
0.0
0
LINE
8
LEFT_HID
6
HIDDEN
10
2.680067
20
1.825686
30
0.0
11
2.692927
21
1.825769
31
0.0
0
LINE
8
LEFT_HID
6
HIDDEN
10
2.692927
20
1.825769
30
0.0
11
2.705786
21
1.825862
31
0.0
0
LINE
8
LEFT_HID
6
HIDDEN
10
2.705786
20
1.825862
30
0.0
11
2.718646
21
1.825964
31
0.0
0
LINE
8
LEFT_HID
6
HIDDEN
10
2.718646
20
1.825964
30
0.0
11
2.731506
21
1.826077
31
0.0
0
LINE
8
LEFT_HID
6
HIDDEN
10
2.731506
20
1.826077
30
0.0
11
2.744366
21
1.826200
31
0.0
0
LINE
8
LEFT_HID
6
HIDDEN
10
2.744366
20
1.826200
30
0.0
11
2.757225
21
1.826333
31
0.0
0
LINE
8
LEFT_HID
6
HIDDEN
10
2.757225
20
1.826333
30
0.0
11
2.770084
21
1.826478
31
0.0
0
LINE
8
LEFT_HID
6
HIDDEN
10
2.770084
20
1.826478
30
0.0
11
2.782944
21
1.826635
31
0.0
0
LINE
8
LEFT_HID
6
HIDDEN
10
2.782944
20
1.826635
30
0.0
11
2.795803
21
1.826804
31
0.0
0
LINE
8
LEFT_HID
6
HIDDEN
10
2.795803
20
1.826804
30
0.0
11
2.808662
21
1.826985
31
0.0
0
LINE
8
LEFT_HID
6
HIDDEN
10
2.808662
20
1.826985
30
0.0
11
2.821521
21
1.827181
31
0.0
0
LINE
8
LEFT_HID
6
HIDDEN
10
2.821521
20
1.827181
30
0.0
11
2.834379
21
1.827390
31
0.0
0
LINE
8
LEFT_HID
6
HIDDEN
10
2.834379
20
1.827390
30
0.0
11
2.847237
21
1.827615
31
0.0
0
LINE
8
LEFT_HID
6
HIDDEN
10
2.847237
20
1.827615
30
0.0
11
2.860095
21
1.827856
31
0.0
0
LINE
8
LEFT_HID
6
HIDDEN
10
2.860095
20
1.827856
30
0.0
11
2.872953
21
1.828116
31
0.0
0
LINE
8
LEFT_HID
6
HIDDEN
10
2.872953
20
1.828116
30
0.0
11
2.885810
21
1.828394
31
0.0
0
LINE
8
LEFT_HID
6
HIDDEN
10
2.885810
20
1.828394
30
0.0
11
2.898667
21
1.828694
31
0.0
0
LINE
8
LEFT_HID
6
HIDDEN
10
2.898667
20
1.828694
30
0.0
11
2.911523
21
1.829018
31
0.0
0
LINE
8
LEFT_HID
6
HIDDEN
10
2.911523
20
1.829018
30
0.0
11
2.924378
21
1.829369
31
0.0
0
LINE
8
LEFT_HID
6
HIDDEN
10
2.924378
20
1.829369
30
0.0
11
2.937233
21
1.829750
31
0.0
0
LINE
8
LEFT_HID
6
HIDDEN
10
2.937233
20
1.829750
30
0.0
11
2.950086
21
1.830167
31
0.0
0
LINE
8
LEFT_HID
6
HIDDEN
10
2.950086
20
1.830167
30
0.0
11
2.962938
21
1.830628
31
0.0
0
LINE
8
LEFT_HID
6
HIDDEN
10
2.962938
20
1.830628
30
0.0
11
2.975788
21
1.831141
31
0.0
0
LINE
8
LEFT_HID
6
HIDDEN
10
2.975788
20
1.831141
30
0.0
11
2.988635
21
1.831724
31
0.0
0
LINE
8
LEFT_HID
6
HIDDEN
10
2.988635
20
1.831724
30
0.0
11
3.001478
21
1.832401
31
0.0
0
LINE
8
LEFT_HID
6
HIDDEN
10
3.001478
20
1.832401
30
0.0
11
3.014311
21
1.833223
31
0.0
0
LINE
8
LEFT_HID
6
HIDDEN
10
3.014311
20
1.833223
30
0.0
11
3.027124
21
1.834324
31
0.0
0
LINE
8
LEFT_HID
6
HIDDEN
10
3.027124
20
1.834324
30
0.0
11
3.039498
21
1.836963
31
0.0
0
LINE
8
LEFT_HID
6
HIDDEN
10
3.039498
20
1.836963
30
0.0
11
3.037785
21
1.837950
31
0.0
0
LINE
8
LEFT_HID
6
HIDDEN
10
3.037785
20
1.837950
30
0.0
11
3.035778
21
1.838416
31
0.0
0
LINE
8
LEFT_HID
6
HIDDEN
10
3.035778
20
1.838416
30
0.0
11
3.033746
21
1.838768
31
0.0
0
LINE
8
LEFT_HID
6
HIDDEN
10
3.033746
20
1.838768
30
0.0
11
3.031706
21
1.839062
31
0.0
0
LINE
8
LEFT_HID
6
HIDDEN
10
3.031706
20
1.839062
30
0.0
11
3.029660
21
1.839319
31
0.0
0
LINE
8
LEFT_HID
6
HIDDEN
10
3.029660
20
1.839319
30
0.0
11
3.027612
21
1.839550
31
0.0
0
LINE
8
LEFT_HID
6
HIDDEN
10
3.027612
20
1.839550
30
0.0
11
3.025561
21
1.839761
31
0.0
0
LINE
8
LEFT_HID
6
HIDDEN
10
3.025561
20
1.839761
30
0.0
11
3.023509
21
1.839957
31
0.0
0
LINE
8
LEFT_HID
6
HIDDEN
10
3.023509
20
1.839957
30
0.0
11
3.021455
21
1.840140
31
0.0
0
LINE
8
LEFT_HID
6
HIDDEN
10
3.021455
20
1.840140
30
0.0
11
3.019401
21
1.840312
31
0.0
0
LINE
8
LEFT_HID
6
HIDDEN
10
3.019401
20
1.840312
30
0.0
11
3.017346
21
1.840475
31
0.0
0
LINE
8
LEFT_HID
6
HIDDEN
10
3.017346
20
1.840475
30
0.0
11
3.015290
21
1.840630
31
0.0
0
LINE
8
LEFT_HID
6
HIDDEN
10
3.015290
20
1.840630
30
0.0
11
3.013234
21
1.840779
31
0.0
0
LINE
8
LEFT_HID
6
HIDDEN
10
3.013234
20
1.840779
30
0.0
11
3.011177
21
1.840921
31
0.0
0
LINE
8
LEFT_HID
6
HIDDEN
10
3.011177
20
1.840921
30
0.0
11
3.009120
21
1.841057
31
0.0
0
LINE
8
LEFT_HID
6
HIDDEN
10
3.009120
20
1.841057
30
0.0
11
3.007063
21
1.841189
31
0.0
0
LINE
8
LEFT_HID
6
HIDDEN
10
3.007063
20
1.841189
30
0.0
11
3.005005
21
1.841316
31
0.0
0
LINE
8
LEFT_HID
6
HIDDEN
10
3.005005
20
1.841316
30
0.0
11
3.002947
21
1.841439
31
0.0
0
LINE
8
LEFT_HID
6
HIDDEN
10
3.002947
20
1.841439
30
0.0
11
3.000889
21
1.841558
31
0.0
0
LINE
8
LEFT_HID
6
HIDDEN
10
3.000889
20
1.841558
30
0.0
11
2.998831
21
1.841674
31
0.0
0
LINE
8
LEFT_HID
6
HIDDEN
10
2.998831
20
1.841674
30
0.0
11
2.996772
21
1.841786
31
0.0
0
LINE
8
LEFT_HID
6
HIDDEN
10
2.996772
20
1.841786
30
0.0
11
2.994714
21
1.841895
31
0.0
0
LINE
8
LEFT_HID
6
HIDDEN
10
2.994714
20
1.841895
30
0.0
11
2.992655
21
1.842002
31
0.0
0
LINE
8
LEFT_HID
6
HIDDEN
10
2.992655
20
1.842002
30
0.0
11
2.990596
21
1.842105
31
0.0
0
LINE
8
LEFT_HID
6
HIDDEN
10
2.990596
20
1.842105
30
0.0
11
2.988537
21
1.842206
31
0.0
0
LINE
8
LEFT_HID
6
HIDDEN
10
2.988537
20
1.842206
30
0.0
11
2.986478
21
1.842305
31
0.0
0
LINE
8
LEFT_HID
6
HIDDEN
10
2.986478
20
1.842305
30
0.0
11
2.984418
21
1.842402
31
0.0
0
LINE
8
LEFT_HID
6
HIDDEN
10
2.984418
20
1.842402
30
0.0
11
2.982359
21
1.842496
31
0.0
0
LINE
8
LEFT_HID
6
HIDDEN
10
2.982359
20
1.842496
30
0.0
11
2.980299
21
1.842588
31
0.0
0
LINE
8
LEFT_HID
6
HIDDEN
10
2.980299
20
1.842588
30
0.0
11
2.978240
21
1.842679
31
0.0
0
LINE
8
LEFT_HID
6
HIDDEN
10
2.978240
20
1.842679
30
0.0
11
2.976180
21
1.842767
31
0.0
0
LINE
8
LEFT_HID
6
HIDDEN
10
2.976180
20
1.842767
30
0.0
11
2.974120
21
1.842854
31
0.0
0
LINE
8
LEFT_HID
6
HIDDEN
10
2.974120
20
1.842854
30
0.0
11
2.972061
21
1.842939
31
0.0
0
LINE
8
LEFT_HID
6
HIDDEN
10
2.972061
20
1.842939
30
0.0
11
2.970001
21
1.843023
31
0.0
0
LINE
8
LEFT_HID
6
HIDDEN
10
2.970001
20
1.843023
30
0.0
11
2.967941
21
1.843104
31
0.0
0
LINE
8
LEFT_HID
6
HIDDEN
10
2.967941
20
1.843104
30
0.0
11
2.965881
21
1.843185
31
0.0
0
LINE
8
LEFT_HID
6
HIDDEN
10
2.965881
20
1.843185
30
0.0
11
2.963821
21
1.843264
31
0.0
0
LINE
8
LEFT_HID
6
HIDDEN
10
2.963821
20
1.843264
30
0.0
11
2.961761
21
1.843342
31
0.0
0
LINE
8
LEFT_HID
6
HIDDEN
10
2.961761
20
1.843342
30
0.0
11
2.959700
21
1.843418
31
0.0
0
LINE
8
LEFT_HID
6
HIDDEN
10
2.959700
20
1.843418
30
0.0
11
2.957640
21
1.843493
31
0.0
0
LINE
8
LEFT_HID
6
HIDDEN
10
2.957640
20
1.843493
30
0.0
11
2.955580
21
1.843567
31
0.0
0
LINE
8
LEFT_HID
6
HIDDEN
10
2.955580
20
1.843567
30
0.0
11
2.953520
21
1.843639
31
0.0
0
LINE
8
LEFT_HID
6
HIDDEN
10
2.953520
20
1.843639
30
0.0
11
2.951459
21
1.843711
31
0.0
0
LINE
8
LEFT_HID
6
HIDDEN
10
2.951459
20
1.843711
30
0.0
11
2.949399
21
1.843781
31
0.0
0
LINE
8
LEFT_HID
6
HIDDEN
10
2.949399
20
1.843781
30
0.0
11
2.947339
21
1.843850
31
0.0
0
LINE
8
LEFT_HID
6
HIDDEN
10
2.947339
20
1.843850
30
0.0
11
2.945278
21
1.843918
31
0.0
0
LINE
8
LEFT_HID
6
HIDDEN
10
2.945278
20
1.843918
30
0.0
11
2.943218
21
1.843986
31
0.0
0
LINE
8
LEFT_HID
6
HIDDEN
10
2.943218
20
1.843986
30
0.0
11
2.941157
21
1.844052
31
0.0
0
LINE
8
LEFT_HID
6
HIDDEN
10
2.941157
20
1.844052
30
0.0
11
2.939097
21
1.844117
31
0.0
0
LINE
8
LEFT_HID
6
HIDDEN
10
2.939097
20
1.844117
30
0.0
11
2.937036
21
1.844181
31
0.0
0
LINE
8
LEFT_HID
6
HIDDEN
10
2.937036
20
1.844181
30
0.0
11
2.934975
21
1.844244
31
0.0
0
LINE
8
LEFT_HID
6
HIDDEN
10
2.934975
20
1.844244
30
0.0
11
2.932915
21
1.844307
31
0.0
0
LINE
8
LEFT_HID
6
HIDDEN
10
2.932915
20
1.844307
30
0.0
11
2.930854
21
1.844368
31
0.0
0
LINE
8
LEFT_HID
6
HIDDEN
10
2.930854
20
1.844368
30
0.0
11
2.928793
21
1.844429
31
0.0
0
LINE
8
LEFT_HID
6
HIDDEN
10
2.928793
20
1.844429
30
0.0
11
2.926733
21
1.844489
31
0.0
0
LINE
8
LEFT_HID
6
HIDDEN
10
2.926733
20
1.844489
30
0.0
11
2.924672
21
1.844548
31
0.0
0
LINE
8
LEFT_HID
6
HIDDEN
10
2.924672
20
1.844548
30
0.0
11
2.922611
21
1.844606
31
0.0
0
LINE
8
LEFT_HID
6
HIDDEN
10
2.922611
20
1.844606
30
0.0
11
2.920551
21
1.844664
31
0.0
0
LINE
8
LEFT_HID
6
HIDDEN
10
2.920551
20
1.844664
30
0.0
11
2.918490
21
1.844721
31
0.0
0
LINE
8
LEFT_HID
6
HIDDEN
10
2.918490
20
1.844721
30
0.0
11
2.916429
21
1.844777
31
0.0
0
LINE
8
LEFT_HID
6
HIDDEN
10
2.916429
20
1.844777
30
0.0
11
2.914368
21
1.844832
31
0.0
0
LINE
8
LEFT_HID
6
HIDDEN
10
2.914368
20
1.844832
30
0.0
11
2.912307
21
1.844887
31
0.0
0
LINE
8
LEFT_HID
6
HIDDEN
10
2.912307
20
1.844887
30
0.0
11
2.910246
21
1.844940
31
0.0
0
LINE
8
LEFT_HID
6
HIDDEN
10
2.910246
20
2.344790
30
0.0
11
2.910246
21
1.844940
31
0.0
0
LINE
8
LEFT_HID
6
HIDDEN
10
2.333480
20
2.326693
30
0.0
11
2.344696
21
2.326542
31
0.0
0
LINE
8
LEFT_HID
6
HIDDEN
10
2.344696
20
2.326542
30
0.0
11
2.355912
21
2.326401
31
0.0
0
LINE
8
LEFT_HID
6
HIDDEN
10
2.355912
20
2.326401
30
0.0
11
2.367128
21
2.326269
31
0.0
0
LINE
8
LEFT_HID
6
HIDDEN
10
2.367128
20
2.326269
30
0.0
11
2.378345
21
2.326146
31
0.0
0
LINE
8
LEFT_HID
6
HIDDEN
10
2.378345
20
2.326146
30
0.0
11
2.389561
21
2.326031
31
0.0
0
LINE
8
LEFT_HID
6
HIDDEN
10
2.389561
20
2.326031
30
0.0
11
2.400778
21
2.325925
31
0.0
0
LINE
8
LEFT_HID
6
HIDDEN
10
2.400778
20
2.325925
30
0.0
11
2.411995
21
2.325826
31
0.0
0
LINE
8
LEFT_HID
6
HIDDEN
10
2.411995
20
2.325826
30
0.0
11
2.423212
21
2.325735
31
0.0
0
LINE
8
LEFT_HID
6
HIDDEN
10
2.423212
20
2.325735
30
0.0
11
2.434428
21
2.325652
31
0.0
0
LINE
8
LEFT_HID
6
HIDDEN
10
2.434428
20
2.325652
30
0.0
11
2.445645
21
2.325576
31
0.0
0
LINE
8
LEFT_HID
6
HIDDEN
10
2.445645
20
2.325576
30
0.0
11
2.456862
21
2.325507
31
0.0
0
LINE
8
LEFT_HID
6
HIDDEN
10
2.456862
20
2.325507
30
0.0
11
2.468079
21
2.325445
31
0.0
0
LINE
8
LEFT_HID
6
HIDDEN
10
2.468079
20
2.325445
30
0.0
11
2.479296
21
2.325390
31
0.0
0
LINE
8
LEFT_HID
6
HIDDEN
10
2.479296
20
2.325390
30
0.0
11
2.490513
21
2.325343
31
0.0
0
LINE
8
LEFT_HID
6
HIDDEN
10
2.490513
20
2.325343
30
0.0
11
2.501730
21
2.325301
31
0.0
0
LINE
8
LEFT_HID
6
HIDDEN
10
2.501730
20
2.325301
30
0.0
11
2.512947
21
2.325267
31
0.0
0
LINE
8
LEFT_HID
6
HIDDEN
10
2.512947
20
2.325267
30
0.0
11
2.524165
21
2.325239
31
0.0
0
LINE
8
LEFT_HID
6
HIDDEN
10
2.524165
20
2.325239
30
0.0
11
2.535382
21
2.325218
31
0.0
0
LINE
8
LEFT_HID
6
HIDDEN
10
2.535382
20
2.325218
30
0.0
11
2.546599
21
2.325203
31
0.0
0
LINE
8
LEFT_HID
6
HIDDEN
10
2.546599
20
2.325203
30
0.0
11
2.557816
21
2.325195
31
0.0
0
LINE
8
LEFT_HID
6
HIDDEN
10
2.557816
20
2.325195
30
0.0
11
2.569033
21
2.325194
31
0.0
0
LINE
8
LEFT_HID
6
HIDDEN
10
2.569033
20
2.325194
30
0.0
11
2.580250
21
2.325199
31
0.0
0
LINE
8
LEFT_HID
6
HIDDEN
10
2.580250
20
2.325199
30
0.0
11
2.591467
21
2.325210
31
0.0
0
LINE
8
LEFT_HID
6
HIDDEN
10
2.591467
20
2.325210
30
0.0
11
2.602685
21
2.325228
31
0.0
0
LINE
8
LEFT_HID
6
HIDDEN
10
2.602685
20
2.325228
30
0.0
11
2.613902
21
2.325253
31
0.0
0
LINE
8
LEFT_HID
6
HIDDEN
10
2.613902
20
2.325253
30
0.0
11
2.625119
21
2.325284
31
0.0
0
LINE
8
LEFT_HID
6
HIDDEN
10
2.625119
20
2.325284
30
0.0
11
2.636336
21
2.325322
31
0.0
0
LINE
8
LEFT_HID
6
HIDDEN
10
2.636336
20
2.325322
30
0.0
11
2.647553
21
2.325367
31
0.0
0
LINE
8
LEFT_HID
6
HIDDEN
10
2.647553
20
2.325367
30
0.0
11
2.658770
21
2.325418
31
0.0
0
LINE
8
LEFT_HID
6
HIDDEN
10
2.658770
20
2.325418
30
0.0
11
2.669987
21
2.325477
31
0.0
0
LINE
8
LEFT_HID
6
HIDDEN
10
2.669987
20
2.325477
30
0.0
11
2.681204
21
2.325542
31
0.0
0
LINE
8
LEFT_HID
6
HIDDEN
10
2.681204
20
2.325542
30
0.0
11
2.692421
21
2.325615
31
0.0
0
LINE
8
LEFT_HID
6
HIDDEN
10
2.692421
20
2.325615
30
0.0
11
2.703638
21
2.325695
31
0.0
0
LINE
8
LEFT_HID
6
HIDDEN
10
2.703638
20
2.325695
30
0.0
11
2.714854
21
2.325782
31
0.0
0
LINE
8
LEFT_HID
6
HIDDEN
10
2.714854
20
2.325782
30
0.0
11
2.726071
21
2.325877
31
0.0
0
LINE
8
LEFT_HID
6
HIDDEN
10
2.726071
20
2.325877
30
0.0
11
2.737288
21
2.325980
31
0.0
0
LINE
8
LEFT_HID
6
HIDDEN
10
2.737288
20
2.325980
30
0.0
11
2.748505
21
2.326091
31
0.0
0
LINE
8
LEFT_HID
6
HIDDEN
10
2.748505
20
2.326091
30
0.0
11
2.759721
21
2.326210
31
0.0
0
LINE
8
LEFT_HID
6
HIDDEN
10
2.759721
20
2.326210
30
0.0
11
2.770937
21
2.326338
31
0.0
0
LINE
8
LEFT_HID
6
HIDDEN
10
2.770937
20
2.326338
30
0.0
11
2.782154
21
2.326474
31
0.0
0
LINE
8
LEFT_HID
6
HIDDEN
10
2.782154
20
2.326474
30
0.0
11
2.793370
21
2.326620
31
0.0
0
LINE
8
LEFT_HID
6
HIDDEN
10
2.793370
20
2.326620
30
0.0
11
2.804586
21
2.326776
31
0.0
0
LINE
8
LEFT_HID
6
HIDDEN
10
2.804586
20
2.326776
30
0.0
11
2.815802
21
2.326941
31
0.0
0
LINE
8
LEFT_HID
6
HIDDEN
10
2.815802
20
2.326941
30
0.0
11
2.827018
21
2.327118
31
0.0
0
LINE
8
LEFT_HID
6
HIDDEN
10
2.827018
20
2.327118
30
0.0
11
2.838233
21
2.327305
31
0.0
0
LINE
8
LEFT_HID
6
HIDDEN
10
2.838233
20
2.327305
30
0.0
11
2.849449
21
2.327505
31
0.0
0
LINE
8
LEFT_HID
6
HIDDEN
10
2.849449
20
2.327505
30
0.0
11
2.860664
21
2.327717
31
0.0
0
LINE
8
LEFT_HID
6
HIDDEN
10
2.860664
20
2.327717
30
0.0
11
2.871879
21
2.327943
31
0.0
0
LINE
8
LEFT_HID
6
HIDDEN
10
2.871879
20
2.327943
30
0.0
11
2.883093
21
2.328183
31
0.0
0
LINE
8
LEFT_HID
6
HIDDEN
10
2.883093
20
2.328183
30
0.0
11
2.894307
21
2.328439
31
0.0
0
LINE
8
LEFT_HID
6
HIDDEN
10
2.894307
20
2.328439
30
0.0
11
2.905521
21
2.328713
31
0.0
0
LINE
8
LEFT_HID
6
HIDDEN
10
2.905521
20
2.328713
30
0.0
11
2.916735
21
2.329006
31
0.0
0
LINE
8
LEFT_HID
6
HIDDEN
10
2.916735
20
2.329006
30
0.0
11
2.927947
21
2.329321
31
0.0
0
LINE
8
LEFT_HID
6
HIDDEN
10
2.927947
20
2.329321
30
0.0
11
2.939159
21
2.329660
31
0.0
0
LINE
8
LEFT_HID
6
HIDDEN
10
2.939159
20
2.329660
30
0.0
11
2.950371
21
2.330027
31
0.0
0
LINE
8
LEFT_HID
6
HIDDEN
10
2.950371
20
2.330027
30
0.0
11
2.961581
21
2.330426
31
0.0
0
LINE
8
LEFT_HID
6
HIDDEN
10
2.961581
20
2.330426
30
0.0
11
2.972789
21
2.330865
31
0.0
0
LINE
8
LEFT_HID
6
HIDDEN
10
2.972789
20
2.330865
30
0.0
11
2.983996
21
2.331353
31
0.0
0
LINE
8
LEFT_HID
6
HIDDEN
10
2.983996
20
2.331353
30
0.0
11
2.995199
21
2.331905
31
0.0
0
LINE
8
LEFT_HID
6
HIDDEN
10
2.995199
20
2.331905
30
0.0
11
3.006398
21
2.332544
31
0.0
0
LINE
8
LEFT_HID
6
HIDDEN
10
3.006398
20
2.332544
30
0.0
11
3.017588
21
2.333318
31
0.0
0
LINE
8
LEFT_HID
6
HIDDEN
10
3.017588
20
2.333318
30
0.0
11
3.028757
21
2.334351
31
0.0
0
LINE
8
LEFT_HID
6
HIDDEN
10
3.028757
20
2.334351
30
0.0
11
3.039498
21
2.336812
31
0.0
0
LINE
8
LEFT_HID
6
HIDDEN
10
3.039498
20
2.336812
30
0.0
11
3.037785
21
2.337799
31
0.0
0
LINE
8
LEFT_HID
6
HIDDEN
10
3.037785
20
2.337799
30
0.0
11
3.035778
21
2.338266
31
0.0
0
LINE
8
LEFT_HID
6
HIDDEN
10
3.035778
20
2.338266
30
0.0
11
3.033746
21
2.338618
31
0.0
0
LINE
8
LEFT_HID
6
HIDDEN
10
3.033746
20
2.338618
30
0.0
11
3.031706
21
2.338911
31
0.0
0
LINE
8
LEFT_HID
6
HIDDEN
10
3.031706
20
2.338911
30
0.0
11
3.029660
21
2.339168
31
0.0
0
LINE
8
LEFT_HID
6
HIDDEN
10
3.029660
20
2.339168
30
0.0
11
3.027612
21
2.339399
31
0.0
0
LINE
8
LEFT_HID
6
HIDDEN
10
3.027612
20
2.339399
30
0.0
11
3.025561
21
2.339610
31
0.0
0
LINE
8
LEFT_HID
6
HIDDEN
10
3.025561
20
2.339610
30
0.0
11
3.023509
21
2.339806
31
0.0
0
LINE
8
LEFT_HID
6
HIDDEN
10
3.023509
20
2.339806
30
0.0
11
3.021455
21
2.339989
31
0.0
0
LINE
8
LEFT_HID
6
HIDDEN
10
3.021455
20
2.339989
30
0.0
11
3.019401
21
2.340161
31
0.0
0
LINE
8
LEFT_HID
6
HIDDEN
10
3.019401
20
2.340161
30
0.0
11
3.017346
21
2.340324
31
0.0
0
LINE
8
LEFT_HID
6
HIDDEN
10
3.017346
20
2.340324
30
0.0
11
3.015290
21
2.340480
31
0.0
0
LINE
8
LEFT_HID
6
HIDDEN
10
3.015290
20
2.340480
30
0.0
11
3.013234
21
2.340628
31
0.0
0
LINE
8
LEFT_HID
6
HIDDEN
10
3.013234
20
2.340628
30
0.0
11
3.011177
21
2.340770
31
0.0
0
LINE
8
LEFT_HID
6
HIDDEN
10
3.011177
20
2.340770
30
0.0
11
3.009120
21
2.340907
31
0.0
0
LINE
8
LEFT_HID
6
HIDDEN
10
3.009120
20
2.340907
30
0.0
11
3.007063
21
2.341038
31
0.0
0
LINE
8
LEFT_HID
6
HIDDEN
10
3.007063
20
2.341038
30
0.0
11
3.005005
21
2.341166
31
0.0
0
LINE
8
LEFT_HID
6
HIDDEN
10
3.005005
20
2.341166
30
0.0
11
3.002947
21
2.341288
31
0.0
0
LINE
8
LEFT_HID
6
HIDDEN
10
3.002947
20
2.341288
30
0.0
11
3.000889
21
2.341408
31
0.0
0
LINE
8
LEFT_HID
6
HIDDEN
10
3.000889
20
2.341408
30
0.0
11
2.998831
21
2.341523
31
0.0
0
LINE
8
LEFT_HID
6
HIDDEN
10
2.998831
20
2.341523
30
0.0
11
2.996772
21
2.341635
31
0.0
0
LINE
8
LEFT_HID
6
HIDDEN
10
2.996772
20
2.341635
30
0.0
11
2.994714
21
2.341745
31
0.0
0
LINE
8
LEFT_HID
6
HIDDEN
10
2.994714
20
2.341745
30
0.0
11
2.992655
21
2.341851
31
0.0
0
LINE
8
LEFT_HID
6
HIDDEN
10
2.992655
20
2.341851
30
0.0
11
2.990596
21
2.341955
31
0.0
0
LINE
8
LEFT_HID
6
HIDDEN
10
2.990596
20
2.341955
30
0.0
11
2.988537
21
2.342056
31
0.0
0
LINE
8
LEFT_HID
6
HIDDEN
10
2.988537
20
2.342056
30
0.0
11
2.986478
21
2.342154
31
0.0
0
LINE
8
LEFT_HID
6
HIDDEN
10
2.986478
20
2.342154
30
0.0
11
2.984418
21
2.342251
31
0.0
0
LINE
8
LEFT_HID
6
HIDDEN
10
2.984418
20
2.342251
30
0.0
11
2.982359
21
2.342345
31
0.0
0
LINE
8
LEFT_HID
6
HIDDEN
10
2.982359
20
2.342345
30
0.0
11
2.980299
21
2.342438
31
0.0
0
LINE
8
LEFT_HID
6
HIDDEN
10
2.980299
20
2.342438
30
0.0
11
2.978240
21
2.342528
31
0.0
0
LINE
8
LEFT_HID
6
HIDDEN
10
2.978240
20
2.342528
30
0.0
11
2.976180
21
2.342617
31
0.0
0
LINE
8
LEFT_HID
6
HIDDEN
10
2.976180
20
2.342617
30
0.0
11
2.974120
21
2.342703
31
0.0
0
LINE
8
LEFT_HID
6
HIDDEN
10
2.974120
20
2.342703
30
0.0
11
2.972061
21
2.342788
31
0.0
0
LINE
8
LEFT_HID
6
HIDDEN
10
2.972061
20
2.342788
30
0.0
11
2.970001
21
2.342872
31
0.0
0
LINE
8
LEFT_HID
6
HIDDEN
10
2.970001
20
2.342872
30
0.0
11
2.967941
21
2.342954
31
0.0
0
LINE
8
LEFT_HID
6
HIDDEN
10
2.967941
20
2.342954
30
0.0
11
2.965881
21
2.343034
31
0.0
0
LINE
8
LEFT_HID
6
HIDDEN
10
2.965881
20
2.343034
30
0.0
11
2.963821
21
2.343113
31
0.0
0
LINE
8
LEFT_HID
6
HIDDEN
10
2.963821
20
2.343113
30
0.0
11
2.961761
21
2.343191
31
0.0
0
LINE
8
LEFT_HID
6
HIDDEN
10
2.961761
20
2.343191
30
0.0
11
2.959700
21
2.343267
31
0.0
0
LINE
8
LEFT_HID
6
HIDDEN
10
2.959700
20
2.343267
30
0.0
11
2.957640
21
2.343342
31
0.0
0
LINE
8
LEFT_HID
6
HIDDEN
10
2.957640
20
2.343342
30
0.0
11
2.955580
21
2.343416
31
0.0
0
LINE
8
LEFT_HID
6
HIDDEN
10
2.955580
20
2.343416
30
0.0
11
2.953520
21
2.343489
31
0.0
0
LINE
8
LEFT_HID
6
HIDDEN
10
2.953520
20
2.343489
30
0.0
11
2.951459
21
2.343560
31
0.0
0
LINE
8
LEFT_HID
6
HIDDEN
10
2.951459
20
2.343560
30
0.0
11
2.949399
21
2.343630
31
0.0
0
LINE
8
LEFT_HID
6
HIDDEN
10
2.949399
20
2.343630
30
0.0
11
2.947339
21
2.343700
31
0.0
0
LINE
8
LEFT_HID
6
HIDDEN
10
2.947339
20
2.343700
30
0.0
11
2.945278
21
2.343768
31
0.0
0
LINE
8
LEFT_HID
6
HIDDEN
10
2.945278
20
2.343768
30
0.0
11
2.943218
21
2.343835
31
0.0
0
LINE
8
LEFT_HID
6
HIDDEN
10
2.943218
20
2.343835
30
0.0
11
2.941157
21
2.343901
31
0.0
0
LINE
8
LEFT_HID
6
HIDDEN
10
2.941157
20
2.343901
30
0.0
11
2.939097
21
2.343966
31
0.0
0
LINE
8
LEFT_HID
6
HIDDEN
10
2.939097
20
2.343966
30
0.0
11
2.937036
21
2.344031
31
0.0
0
LINE
8
LEFT_HID
6
HIDDEN
10
2.937036
20
2.344031
30
0.0
11
2.934975
21
2.344094
31
0.0
0
LINE
8
LEFT_HID
6
HIDDEN
10
2.934975
20
2.344094
30
0.0
11
2.932915
21
2.344156
31
0.0
0
LINE
8
LEFT_HID
6
HIDDEN
10
2.932915
20
2.344156
30
0.0
11
2.930854
21
2.344218
31
0.0
0
LINE
8
LEFT_HID
6
HIDDEN
10
2.930854
20
2.344218
30
0.0
11
2.928793
21
2.344279
31
0.0
0
LINE
8
LEFT_HID
6
HIDDEN
10
2.928793
20
2.344279
30
0.0
11
2.926733
21
2.344338
31
0.0
0
LINE
8
LEFT_HID
6
HIDDEN
10
2.926733
20
2.344338
30
0.0
11
2.924672
21
2.344397
31
0.0
0
LINE
8
LEFT_HID
6
HIDDEN
10
2.924672
20
2.344397
30
0.0
11
2.922611
21
2.344456
31
0.0
0
LINE
8
LEFT_HID
6
HIDDEN
10
2.922611
20
2.344456
30
0.0
11
2.920551
21
2.344513
31
0.0
0
LINE
8
LEFT_HID
6
HIDDEN
10
2.920551
20
2.344513
30
0.0
11
2.918490
21
2.344570
31
0.0
0
LINE
8
LEFT_HID
6
HIDDEN
10
2.918490
20
2.344570
30
0.0
11
2.916429
21
2.344626
31
0.0
0
LINE
8
LEFT_HID
6
HIDDEN
10
2.916429
20
2.344626
30
0.0
11
2.914368
21
2.344681
31
0.0
0
LINE
8
LEFT_HID
6
HIDDEN
10
2.914368
20
2.344681
30
0.0
11
2.912307
21
2.344736
31
0.0
0
LINE
8
LEFT_HID
6
HIDDEN
10
2.912307
20
2.344736
30
0.0
11
2.910246
21
2.344790
31
0.0
0
LINE
8
LEFT_HID
6
HIDDEN
10
2.029967
20
1.823968
30
0.0
11
2.229985
21
1.828780
31
0.0
0
LINE
8
LEFT_HID
6
HIDDEN
10
3.110599
20
1.849418
30
0.0
11
3.113824
21
1.849333
31
0.0
0
LINE
8
LEFT_HID
6
HIDDEN
10
3.113824
20
1.849333
30
0.0
11
3.117049
21
1.849246
31
0.0
0
LINE
8
LEFT_HID
6
HIDDEN
10
3.117049
20
1.849246
30
0.0
11
3.120274
21
1.849159
31
0.0
0
LINE
8
LEFT_HID
6
HIDDEN
10
3.120274
20
1.849159
30
0.0
11
3.123498
21
1.849071
31
0.0
0
LINE
8
LEFT_HID
6
HIDDEN
10
3.123498
20
1.849071
30
0.0
11
3.126723
21
1.848981
31
0.0
0
LINE
8
LEFT_HID
6
HIDDEN
10
3.126723
20
1.848981
30
0.0
11
3.129948
21
1.848891
31
0.0
0
LINE
8
LEFT_HID
6
HIDDEN
10
3.129948
20
1.848891
30
0.0
11
3.133172
21
1.848799
31
0.0
0
LINE
8
LEFT_HID
6
HIDDEN
10
3.133172
20
1.848799
30
0.0
11
3.136397
21
1.848705
31
0.0
0
LINE
8
LEFT_HID
6
HIDDEN
10
3.136397
20
1.848705
30
0.0
11
3.139621
21
1.848611
31
0.0
0
LINE
8
LEFT_HID
6
HIDDEN
10
3.139621
20
1.848611
30
0.0
11
3.142846
21
1.848515
31
0.0
0
LINE
8
LEFT_HID
6
HIDDEN
10
3.142846
20
1.848515
30
0.0
11
3.146070
21
1.848418
31
0.0
0
LINE
8
LEFT_HID
6
HIDDEN
10
3.146070
20
1.848418
30
0.0
11
3.149295
21
1.848320
31
0.0
0
LINE
8
LEFT_HID
6
HIDDEN
10
3.149295
20
1.848320
30
0.0
11
3.152519
21
1.848220
31
0.0
0
LINE
8
LEFT_HID
6
HIDDEN
10
3.152519
20
1.848220
30
0.0
11
3.155743
21
1.848118
31
0.0
0
LINE
8
LEFT_HID
6
HIDDEN
10
3.155743
20
1.848118
30
0.0
11
3.158968
21
1.848016
31
0.0
0
LINE
8
LEFT_HID
6
HIDDEN
10
3.158968
20
1.848016
30
0.0
11
3.162192
21
1.847911
31
0.0
0
LINE
8
LEFT_HID
6
HIDDEN
10
3.162192
20
1.847911
30
0.0
11
3.165416
21
1.847805
31
0.0
0
LINE
8
LEFT_HID
6
HIDDEN
10
3.165416
20
1.847805
30
0.0
11
3.168640
21
1.847698
31
0.0
0
LINE
8
LEFT_HID
6
HIDDEN
10
3.168640
20
1.847698
30
0.0
11
3.171864
21
1.847589
31
0.0
0
LINE
8
LEFT_HID
6
HIDDEN
10
3.171864
20
1.847589
30
0.0
11
3.175088
21
1.847478
31
0.0
0
LINE
8
LEFT_HID
6
HIDDEN
10
3.175088
20
1.847478
30
0.0
11
3.178312
21
1.847365
31
0.0
0
LINE
8
LEFT_HID
6
HIDDEN
10
3.178312
20
1.847365
30
0.0
11
3.181536
21
1.847251
31
0.0
0
LINE
8
LEFT_HID
6
HIDDEN
10
3.181536
20
1.847251
30
0.0
11
3.184760
21
1.847135
31
0.0
0
LINE
8
LEFT_HID
6
HIDDEN
10
3.184760
20
1.847135
30
0.0
11
3.187984
21
1.847016
31
0.0
0
LINE
8
LEFT_HID
6
HIDDEN
10
3.187984
20
1.847016
30
0.0
11
3.191208
21
1.846896
31
0.0
0
LINE
8
LEFT_HID
6
HIDDEN
10
3.191208
20
1.846896
30
0.0
11
3.194431
21
1.846774
31
0.0
0
LINE
8
LEFT_HID
6
HIDDEN
10
3.194431
20
1.846774
30
0.0
11
3.197655
21
1.846649
31
0.0
0
LINE
8
LEFT_HID
6
HIDDEN
10
3.197655
20
1.846649
30
0.0
11
3.200878
21
1.846523
31
0.0
0
LINE
8
LEFT_HID
6
HIDDEN
10
3.200878
20
1.846523
30
0.0
11
3.204101
21
1.846393
31
0.0
0
LINE
8
LEFT_HID
6
HIDDEN
10
3.204101
20
1.846393
30
0.0
11
3.207325
21
1.846262
31
0.0
0
LINE
8
LEFT_HID
6
HIDDEN
10
3.207325
20
1.846262
30
0.0
11
3.210548
21
1.846128
31
0.0
0
LINE
8
LEFT_HID
6
HIDDEN
10
3.210548
20
1.846128
30
0.0
11
3.213771
21
1.845991
31
0.0
0
LINE
8
LEFT_HID
6
HIDDEN
10
3.213771
20
1.845991
30
0.0
11
3.216994
21
1.845852
31
0.0
0
LINE
8
LEFT_HID
6
HIDDEN
10
3.216994
20
1.845852
30
0.0
11
3.220217
21
1.845709
31
0.0
0
LINE
8
LEFT_HID
6
HIDDEN
10
3.220217
20
1.845709
30
0.0
11
3.223439
21
1.845564
31
0.0
0
LINE
8
LEFT_HID
6
HIDDEN
10
3.223439
20
1.845564
30
0.0
11
3.226662
21
1.845415
31
0.0
0
LINE
8
LEFT_HID
6
HIDDEN
10
3.226662
20
1.845415
30
0.0
11
3.229884
21
1.845263
31
0.0
0
LINE
8
LEFT_HID
6
HIDDEN
10
3.229884
20
1.845263
30
0.0
11
3.233106
21
1.845108
31
0.0
0
LINE
8
LEFT_HID
6
HIDDEN
10
3.233106
20
1.845108
30
0.0
11
3.236328
21
1.844948
31
0.0
0
LINE
8
LEFT_HID
6
HIDDEN
10
3.236328
20
1.844948
30
0.0
11
3.239550
21
1.844785
31
0.0
0
LINE
8
LEFT_HID
6
HIDDEN
10
3.239550
20
1.844785
30
0.0
11
3.242772
21
1.844618
31
0.0
0
LINE
8
LEFT_HID
6
HIDDEN
10
3.242772
20
1.844618
30
0.0
11
3.245993
21
1.844446
31
0.0
0
LINE
8
LEFT_HID
6
HIDDEN
10
3.245993
20
1.844446
30
0.0
11
3.249214
21
1.844269
31
0.0
0
LINE
8
LEFT_HID
6
HIDDEN
10
3.249214
20
1.844269
30
0.0
11
3.252435
21
1.844087
31
0.0
0
LINE
8
LEFT_HID
6
HIDDEN
10
3.252435
20
1.844087
30
0.0
11
3.255655
21
1.843899
31
0.0
0
LINE
8
LEFT_HID
6
HIDDEN
10
3.255655
20
1.843899
30
0.0
11
3.258875
21
1.843706
31
0.0
0
LINE
8
LEFT_HID
6
HIDDEN
10
3.258875
20
1.843706
30
0.0
11
3.262095
21
1.843506
31
0.0
0
LINE
8
LEFT_HID
6
HIDDEN
10
3.262095
20
1.843506
30
0.0
11
3.265314
21
1.843299
31
0.0
0
LINE
8
LEFT_HID
6
HIDDEN
10
3.265314
20
1.843299
30
0.0
11
3.268533
21
1.843083
31
0.0
0
LINE
8
LEFT_HID
6
HIDDEN
10
3.268533
20
1.843083
30
0.0
11
3.271751
21
1.842860
31
0.0
0
LINE
8
LEFT_HID
6
HIDDEN
10
3.271751
20
1.842860
30
0.0
11
3.274969
21
1.842626
31
0.0
0
LINE
8
LEFT_HID
6
HIDDEN
10
3.274969
20
1.842626
30
0.0
11
3.278185
21
1.842382
31
0.0
0
LINE
8
LEFT_HID
6
HIDDEN
10
3.278185
20
1.842382
30
0.0
11
3.281401
21
1.842125
31
0.0
0
LINE
8
LEFT_HID
6
HIDDEN
10
3.281401
20
1.842125
30
0.0
11
3.284616
21
1.841854
31
0.0
0
LINE
8
LEFT_HID
6
HIDDEN
10
3.284616
20
1.841854
30
0.0
11
3.287829
21
1.841566
31
0.0
0
LINE
8
LEFT_HID
6
HIDDEN
10
3.287829
20
1.841566
30
0.0
11
3.291040
21
1.841258
31
0.0
0
LINE
8
LEFT_HID
6
HIDDEN
10
3.291040
20
1.841258
30
0.0
11
3.294249
21
1.840925
31
0.0
0
LINE
8
LEFT_HID
6
HIDDEN
10
3.294249
20
1.840925
30
0.0
11
3.297454
21
1.840562
31
0.0
0
LINE
8
LEFT_HID
6
HIDDEN
10
3.297454
20
1.840562
30
0.0
11
3.300654
21
1.840158
31
0.0
0
LINE
8
LEFT_HID
6
HIDDEN
10
3.300654
20
1.840158
30
0.0
11
3.303847
21
1.839695
31
0.0
0
LINE
8
LEFT_HID
6
HIDDEN
10
3.303847
20
1.839695
30
0.0
11
3.307025
21
1.839142
31
0.0
0
LINE
8
LEFT_HID
6
HIDDEN
10
3.307025
20
1.839142
30
0.0
11
3.310165
21
1.838408
31
0.0
0
LINE
8
LEFT_HID
6
HIDDEN
10
3.310165
20
1.838408
30
0.0
11
3.312841
21
1.836855
31
0.0
0
LINE
8
LEFT_HID
6
HIDDEN
10
3.110599
20
2.323817
30
0.0
11
3.110599
21
1.849418
31
0.0
0
LINE
8
LEFT_HID
6
HIDDEN
10
2.910246
20
2.344790
30
0.0
11
2.913213
21
2.344856
31
0.0
0
LINE
8
LEFT_HID
6
HIDDEN
10
2.910246
20
1.844940
30
0.0
11
3.110599
21
1.849418
31
0.0
0
LINE
8
LEFT_HID
6
HIDDEN
10
2.103158
20
2.425380
30
0.0
11
2.103158
21
2.323817
31
0.0
0
LINE
8
LEFT_HID
6
HIDDEN
10
3.050526
20
2.425380
30
0.0
11
3.050526
21
2.336669
31
0.0
0
LINE
8
LEFT_HID
6
HIDDEN
10
3.039498
20
1.836963
30
0.0
11
3.039498
21
2.336812
31
0.0
0
LINE
8
TOP
10
1.514847
20
0.757659
30
0.0
11
1.511081
21
0.833121
31
0.0
0
LINE
8
TOP
10
1.511081
20
0.833121
30
0.0
11
1.499820
21
0.907833
31
0.0
0
LINE
8
TOP
10
1.499820
20
0.907833
30
0.0
11
1.481176
21
0.981053
31
0.0
0
LINE
8
TOP
10
1.481176
20
0.981053
30
0.0
11
1.455335
21
1.052052
31
0.0
0
LINE
8
TOP
10
1.455335
20
1.052052
30
0.0
11
1.422552
21
1.120125
31
0.0
0
LINE
8
TOP
10
1.422552
20
1.120125
30
0.0
11
1.383155
21
1.184596
31
0.0
0
LINE
8
TOP
10
1.383155
20
1.184596
30
0.0
11
1.337534
21
1.244825
31
0.0
0
LINE
8
TOP
10
1.337534
20
1.244825
30
0.0
11
1.286143
21
1.300211
31
0.0
0
LINE
8
TOP
10
1.286143
20
1.300211
30
0.0
11
1.229492
21
1.350205
31
0.0
0
LINE
8
TOP
10
1.229492
20
1.350205
30
0.0
11
1.168146
21
1.394310
31
0.0
0
LINE
8
TOP
10
1.168146
20
1.394310
30
0.0
11
1.102712
21
1.432088
31
0.0
0
LINE
8
TOP
10
1.102712
20
1.432088
30
0.0
11
1.033843
21
1.463163
31
0.0
0
LINE
8
TOP
10
1.033843
20
1.463163
30
0.0
11
0.962221
21
1.487227
31
0.0
0
LINE
8
TOP
10
0.962221
20
1.487227
30
0.0
11
0.888560
21
1.504040
31
0.0
0
LINE
8
TOP
10
0.888560
20
1.504040
30
0.0
11
0.813590
21
1.513435
31
0.0
0
LINE
8
TOP
10
0.813590
20
1.513435
30
0.0
11
0.738058
21
1.515318
31
0.0
0
LINE
8
TOP
10
0.738058
20
1.515318
30
0.0
11
0.662713
21
1.509672
31
0.0
0
LINE
8
TOP
10
0.662713
20
1.509672
30
0.0
11
0.588305
21
1.496552
31
0.0
0
LINE
8
TOP
10
0.588305
20
1.496552
30
0.0
11
0.515573
21
1.476088
31
0.0
0
LINE
8
TOP
10
0.515573
20
1.476088
30
0.0
11
0.445240
21
1.448485
31
0.0
0
LINE
8
TOP
10
0.445240
20
1.448485
30
0.0
11
0.378005
21
1.414015
31
0.0
0
LINE
8
TOP
10
0.378005
20
1.414015
30
0.0
11
0.314536
21
1.373023
31
0.0
0
LINE
8
TOP
10
0.314536
20
1.373023
30
0.0
11
0.255464
21
1.325914
31
0.0
0
LINE
8
TOP
10
0.255464
20
1.325914
30
0.0
11
0.201376
21
1.273159
31
0.0
0
LINE
8
TOP
10
0.201376
20
1.273159
30
0.0
11
0.152810
21
1.215279
31
0.0
0
LINE
8
TOP
10
0.152810
20
1.215279
30
0.0
11
0.110248
21
1.152852
31
0.0
0
LINE
8
TOP
10
0.110248
20
1.152852
30
0.0
11
0.074113
21
1.086497
31
0.0
0
LINE
8
TOP
10
0.074113
20
1.086497
30
0.0
11
0.044765
21
1.016874
31
0.0
0
LINE
8
TOP
10
0.044765
20
1.016874
30
0.0
11
0.022494
21
0.944675
31
0.0
0
LINE
8
TOP
10
0.022494
20
0.944675
30
0.0
11
0.007523
21
0.870618
31
0.0
0
LINE
8
TOP
10
0.007523
20
0.870618
30
0.0
11
0.000000
21
0.795437
31
0.0
0
LINE
8
TOP
10
0.000000
20
0.795437
30
0.0
11
0.000000
21
0.719881
31
0.0
0
LINE
8
TOP
10
0.000000
20
0.719881
30
0.0
11
0.007523
21
0.644701
31
0.0
0
LINE
8
TOP
10
0.007523
20
0.644701
30
0.0
11
0.022494
21
0.570643
31
0.0
0
LINE
8
TOP
10
0.022494
20
0.570643
30
0.0
11
0.044765
21
0.498444
31
0.0
0
LINE
8
TOP
10
0.044765
20
0.498444
30
0.0
11
0.074113
21
0.428821
31
0.0
0
LINE
8
TOP
10
0.074113
20
0.428821
30
0.0
11
0.110248
21
0.362466
31
0.0
0
LINE
8
TOP
10
0.110248
20
0.362466
30
0.0
11
0.152810
21
0.300039
31
0.0
0
LINE
8
TOP
10
0.152810
20
0.300039
30
0.0
11
0.201376
21
0.242160
31
0.0
0
LINE
8
TOP
10
0.201376
20
0.242160
30
0.0
11
0.255464
21
0.189404
31
0.0
0
LINE
8
TOP
10
0.255464
20
0.189404
30
0.0
11
0.314536
21
0.142296
31
0.0
0
LINE
8
TOP
10
0.314536
20
0.142296
30
0.0
11
0.378005
21
0.101303
31
0.0
0
LINE
8
TOP
10
0.378005
20
0.101303
30
0.0
11
0.445240
21
0.066834
31
0.0
0
LINE
8
TOP
10
0.445240
20
0.066834
30
0.0
11
0.515573
21
0.039230
31
0.0
0
LINE
8
TOP
10
0.515573
20
0.039230
30
0.0
11
0.588305
21
0.018766
31
0.0
0
LINE
8
TOP
10
0.588305
20
0.018766
30
0.0
11
0.662713
21
0.005646
31
0.0
0
LINE
8
TOP
10
0.662713
20
0.005646
30
0.0
11
0.738058
21
0.000000
31
0.0
0
LINE
8
TOP
10
0.738058
20
0.000000
30
0.0
11
0.813590
21
0.001884
31
0.0
0
LINE
8
TOP
10
0.813590
20
0.001884
30
0.0
11
0.888560
21
0.011279
31
0.0
0
LINE
8
TOP
10
0.888560
20
0.011279
30
0.0
11
0.962221
21
0.028091
31
0.0
0
LINE
8
TOP
10
0.962221
20
0.028091
30
0.0
11
1.033843
21
0.052155
31
0.0
0
LINE
8
TOP
10
1.033843
20
0.052155
30
0.0
11
1.102712
21
0.083230
31
0.0
0
LINE
8
TOP
10
1.102712
20
0.083230
30
0.0
11
1.168146
21
0.121008
31
0.0
0
LINE
8
TOP
10
1.168146
20
0.121008
30
0.0
11
1.229492
21
0.165113
31
0.0
0
LINE
8
TOP
10
1.229492
20
0.165113
30
0.0
11
1.286143
21
0.215107
31
0.0
0
LINE
8
TOP
10
1.286143
20
0.215107
30
0.0
11
1.337534
21
0.270494
31
0.0
0
LINE
8
TOP
10
1.337534
20
0.270494
30
0.0
11
1.383155
21
0.330722
31
0.0
0
LINE
8
TOP
10
1.383155
20
0.330722
30
0.0
11
1.422552
21
0.395193
31
0.0
0
LINE
8
TOP
10
1.422552
20
0.395193
30
0.0
11
1.455335
21
0.463266
31
0.0
0
LINE
8
TOP
10
1.455335
20
0.463266
30
0.0
11
1.481176
21
0.534266
31
0.0
0
LINE
8
TOP
10
1.481176
20
0.534266
30
0.0
11
1.499820
21
0.607485
31
0.0
0
LINE
8
TOP
10
1.499820
20
0.607485
30
0.0
11
1.511081
21
0.682197
31
0.0
0
LINE
8
TOP
10
1.511081
20
0.682197
30
0.0
11
1.514847
21
0.757659
31
0.0
0
LINE
8
TOP
10
1.230637
20
0.757659
30
0.0
11
1.228283
21
0.804823
31
0.0
0
LINE
8
TOP
10
1.228283
20
0.804823
30
0.0
11
1.221245
21
0.851518
31
0.0
0
LINE
8
TOP
10
1.221245
20
0.851518
30
0.0
11
1.209592
21
0.897280
31
0.0
0
LINE
8
TOP
10
1.209592
20
0.897280
30
0.0
11
1.193441
21
0.941655
31
0.0
0
LINE
8
TOP
10
1.193441
20
0.941655
30
0.0
11
1.172952
21
0.984201
31
0.0
0
LINE
8
TOP
10
1.172952
20
0.984201
30
0.0
11
1.148329
21
1.024495
31
0.0
0
LINE
8
TOP
10
1.148329
20
1.024495
30
0.0
11
1.119816
21
1.062138
31
0.0
0
LINE
8
TOP
10
1.119816
20
1.062138
30
0.0
11
1.087696
21
1.096754
31
0.0
0
LINE
8
TOP
10
1.087696
20
1.096754
30
0.0
11
1.052290
21
1.128000
31
0.0
0
LINE
8
TOP
10
1.052290
20
1.128000
30
0.0
11
1.013948
21
1.155566
31
0.0
0
LINE
8
TOP
10
1.013948
20
1.155566
30
0.0
11
0.973052
21
1.179177
31
0.0
0
LINE
8
TOP
10
0.973052
20
1.179177
30
0.0
11
0.930009
21
1.198599
31
0.0
0
LINE
8
TOP
10
0.930009
20
1.198599
30
0.0
11
0.885245
21
1.213639
31
0.0
0
LINE
8
TOP
10
0.885245
20
1.213639
30
0.0
11
0.839207
21
1.224147
31
0.0
0
LINE
8
TOP
10
0.839207
20
1.224147
30
0.0
11
0.792351
21
1.230019
31
0.0
0
LINE
8
TOP
10
0.792351
20
1.230019
30
0.0
11
0.745143
21
1.231196
31
0.0
0
LINE
8
TOP
10
0.745143
20
1.231196
30
0.0
11
0.698053
21
1.227667
31
0.0
0
LINE
8
TOP
10
0.698053
20
1.227667
30
0.0
11
0.651548
21
1.219467
31
0.0
0
LINE
8
TOP
10
0.651548
20
1.219467
30
0.0
11
0.606091
21
1.206677
31
0.0
0
LINE
8
TOP
10
0.606091
20
1.206677
30
0.0
11
0.562132
21
1.189425
31
0.0
0
LINE
8
TOP
10
0.562132
20
1.189425
30
0.0
11
0.520111
21
1.167882
31
0.0
0
LINE
8
TOP
10
0.520111
20
1.167882
30
0.0
11
0.480442
21
1.142261
31
0.0
0
LINE
8
TOP
10
0.480442
20
1.142261
30
0.0
11
0.443522
21
1.112819
31
0.0
0
LINE
8
TOP
10
0.443522
20
1.112819
30
0.0
11
0.409718
21
1.079846
31
0.0
0
LINE
8
TOP
10
0.409718
20
1.079846
30
0.0
11
0.379364
21
1.043672
31
0.0
0
LINE
8
TOP
10
0.379364
20
1.043672
30
0.0
11
0.352762
21
1.004655
31
0.0
0
LINE
8
TOP
10
0.352762
20
1.004655
30
0.0
11
0.330178
21
0.963183
31
0.0
0
LINE
8
TOP
10
0.330178
20
0.963183
30
0.0
11
0.311835
21
0.919669
31
0.0
0
LINE
8
TOP
10
0.311835
20
0.919669
30
0.0
11
0.297916
21
0.874544
31
0.0
0
LINE
8
TOP
10
0.297916
20
0.874544
30
0.0
11
0.288559
21
0.828258
31
0.0
0
LINE
8
TOP
10
0.288559
20
0.828258
30
0.0
11
0.283857
21
0.781270
31
0.0
0
LINE
8
TOP
10
0.283857
20
0.781270
30
0.0
11
0.283857
21
0.734048
31
0.0
0
LINE
8
TOP
10
0.283857
20
0.734048
30
0.0
11
0.288559
21
0.687060
31
0.0
0
LINE
8
TOP
10
0.288559
20
0.687060
30
0.0
11
0.297916
21
0.640774
31
0.0
0
LINE
8
TOP
10
0.297916
20
0.640774
30
0.0
11
0.311835
21
0.595650
31
0.0
0
LINE
8
TOP
10
0.311835
20
0.595650
30
0.0
11
0.330178
21
0.552135
31
0.0
0
LINE
8
TOP
10
0.330178
20
0.552135
30
0.0
11
0.352762
21
0.510664
31
0.0
0
LINE
8
TOP
10
0.352762
20
0.510664
30
0.0
11
0.379364
21
0.471647
31
0.0
0
LINE
8
TOP
10
0.379364
20
0.471647
30
0.0
11
0.409718
21
0.435472
31
0.0
0
LINE
8
TOP
10
0.409718
20
0.435472
30
0.0
11
0.443522
21
0.402500
31
0.0
0
LINE
8
TOP
10
0.443522
20
0.402500
30
0.0
11
0.480442
21
0.373057
31
0.0
0
LINE
8
TOP
10
0.480442
20
0.373057
30
0.0
11
0.520111
21
0.347437
31
0.0
0
LINE
8
TOP
10
0.520111
20
0.347437
30
0.0
11
0.562132
21
0.325893
31
0.0
0
LINE
8
TOP
10
0.562132
20
0.325893
30
0.0
11
0.606091
21
0.308641
31
0.0
0
LINE
8
TOP
10
0.606091
20
0.308641
30
0.0
11
0.651548
21
0.295851
31
0.0
0
LINE
8
TOP
10
0.651548
20
0.295851
30
0.0
11
0.698053
21
0.287651
31
0.0
0
LINE
8
TOP
10
0.698053
20
0.287651
30
0.0
11
0.745143
21
0.284122
31
0.0
0
LINE
8
TOP
10
0.745143
20
0.284122
30
0.0
11
0.792351
21
0.285299
31
0.0
0
LINE
8
TOP
10
0.792351
20
0.285299
30
0.0
11
0.839207
21
0.291171
31
0.0
0
LINE
8
TOP
10
0.839207
20
0.291171
30
0.0
11
0.885245
21
0.301679
31
0.0
0
LINE
8
TOP
10
0.885245
20
0.301679
30
0.0
11
0.930009
21
0.316719
31
0.0
0
LINE
8
TOP
10
0.930009
20
0.316719
30
0.0
11
0.973052
21
0.336141
31
0.0
0
LINE
8
TOP
10
0.973052
20
0.336141
30
0.0
11
1.013948
21
0.359752
31
0.0
0
LINE
8
TOP
10
1.013948
20
0.359752
30
0.0
11
1.052290
21
0.387318
31
0.0
0
LINE
8
TOP
10
1.052290
20
0.387318
30
0.0
11
1.087696
21
0.418564
31
0.0
0
LINE
8
TOP
10
1.087696
20
0.418564
30
0.0
11
1.119816
21
0.453181
31
0.0
0
LINE
8
TOP
10
1.119816
20
0.453181
30
0.0
11
1.148329
21
0.490823
31
0.0
0
LINE
8
TOP
10
1.148329
20
0.490823
30
0.0
11
1.172952
21
0.531118
31
0.0
0
LINE
8
TOP
10
1.172952
20
0.531118
30
0.0
11
1.193441
21
0.573664
31
0.0
0
LINE
8
TOP
10
1.193441
20
0.573664
30
0.0
11
1.209592
21
0.618038
31
0.0
0
LINE
8
TOP
10
1.209592
20
0.618038
30
0.0
11
1.221245
21
0.663800
31
0.0
0
LINE
8
TOP
10
1.221245
20
0.663800
30
0.0
11
1.228283
21
0.710495
31
0.0
0
LINE
8
TOP
10
1.228283
20
0.710495
30
0.0
11
1.230637
21
0.757659
31
0.0
0
LINE
8
TOP
10
0.434359
20
1.104516
30
0.0
11
0.441731
21
1.104516
31
0.0
0
LINE
8
TOP
10
0.441731
20
1.104516
30
0.0
11
0.429446
21
1.091863
31
0.0
0
LINE
8
TOP
10
0.429446
20
1.091863
30
0.0
11
0.417642
21
1.078761
31
0.0
0
LINE
8
TOP
10
0.417642
20
1.078761
30
0.0
11
0.406334
21
1.065228
31
0.0
0
LINE
8
TOP
10
0.406334
20
1.065228
30
0.0
11
0.395538
21
1.051284
31
0.0
0
LINE
8
TOP
10
0.395538
20
1.051284
30
0.0
11
0.385268
21
1.036947
31
0.0
0
LINE
8
TOP
10
0.385268
20
1.036947
30
0.0
11
0.375540
21
1.022238
31
0.0
0
LINE
8
TOP
10
0.375540
20
1.022238
30
0.0
11
0.366366
21
1.007176
31
0.0
0
LINE
8
TOP
10
0.366366
20
1.007176
30
0.0
11
0.357760
21
0.991783
31
0.0
0
LINE
8
TOP
10
0.357760
20
0.991783
30
0.0
11
0.349733
21
0.976081
31
0.0
0
LINE
8
TOP
10
0.349733
20
0.976081
30
0.0
11
0.342296
21
0.960090
31
0.0
0
LINE
8
TOP
10
0.342296
20
0.960090
30
0.0
11
0.335460
21
0.943834
31
0.0
0
LINE
8
TOP
10
0.335460
20
0.943834
30
0.0
11
0.329233
21
0.927334
31
0.0
0
LINE
8
TOP
10
0.329233
20
0.927334
30
0.0
11
0.323626
21
0.910614
31
0.0
0
LINE
8
TOP
10
0.323626
20
0.910614
30
0.0
11
0.318645
21
0.893696
31
0.0
0
LINE
8
TOP
10
0.318645
20
0.893696
30
0.0
11
0.314297
21
0.876605
31
0.0
0
LINE
8
TOP
10
0.314297
20
0.876605
30
0.0
11
0.310589
21
0.859364
31
0.0
0
LINE
8
TOP
10
0.310589
20
0.859364
30
0.0
11
0.307526
21
0.841997
31
0.0
0
LINE
8
TOP
10
0.307526
20
0.841997
30
0.0
11
0.305111
21
0.824528
31
0.0
0
LINE
8
TOP
10
0.305111
20
0.824528
30
0.0
11
0.303348
21
0.806981
31
0.0
0
LINE
8
TOP
10
0.303348
20
0.806981
30
0.0
11
0.302240
21
0.789380
31
0.0
0
LINE
8
TOP
10
0.302240
20
0.789380
30
0.0
11
0.301788
21
0.771751
31
0.0
0
LINE
8
TOP
10
0.301788
20
0.771751
30
0.0
11
0.301992
21
0.754116
31
0.0
0
LINE
8
TOP
10
0.301992
20
0.754116
30
0.0
11
0.302853
21
0.736502
31
0.0
0
LINE
8
TOP
10
0.302853
20
0.736502
30
0.0
11
0.304369
21
0.718932
31
0.0
0
LINE
8
TOP
10
0.304369
20
0.718932
30
0.0
11
0.306539
21
0.701431
31
0.0
0
LINE
8
TOP
10
0.306539
20
0.701431
30
0.0
11
0.309358
21
0.684022
31
0.0
0
LINE
8
TOP
10
0.309358
20
0.684022
30
0.0
11
0.312824
21
0.666731
31
0.0
0
LINE
8
TOP
10
0.312824
20
0.666731
30
0.0
11
0.316931
21
0.649580
31
0.0
0
LINE
8
TOP
10
0.316931
20
0.649580
30
0.0
11
0.321674
21
0.632595
31
0.0
0
LINE
8
TOP
10
0.321674
20
0.632595
30
0.0
11
0.327046
21
0.615797
31
0.0
0
LINE
8
TOP
10
0.327046
20
0.615797
30
0.0
11
0.333040
21
0.599212
31
0.0
0
LINE
8
TOP
10
0.333040
20
0.599212
30
0.0
11
0.339648
21
0.582861
31
0.0
0
LINE
8
TOP
10
0.339648
20
0.582861
30
0.0
11
0.346859
21
0.566768
31
0.0
0
LINE
8
TOP
10
0.346859
20
0.566768
30
0.0
11
0.354665
21
0.550954
31
0.0
0
LINE
8
TOP
10
0.354665
20
0.550954
30
0.0
11
0.363055
21
0.535442
31
0.0
0
LINE
8
TOP
10
0.363055
20
0.535442
30
0.0
11
0.372016
21
0.520253
31
0.0
0
LINE
8
TOP
10
0.372016
20
0.520253
30
0.0
11
0.381537
21
0.505408
31
0.0
0
LINE
8
TOP
10
0.381537
20
0.505408
30
0.0
11
0.391604
21
0.490929
31
0.0
0
LINE
8
TOP
10
0.391604
20
0.490929
30
0.0
11
0.402203
21
0.476834
31
0.0
0
LINE
8
TOP
10
0.402203
20
0.476834
30
0.0
11
0.413320
21
0.463144
31
0.0
0
LINE
8
TOP
10
0.413320
20
0.463144
30
0.0
11
0.424939
21
0.449877
31
0.0
0
LINE
8
TOP
10
0.424939
20
0.449877
30
0.0
11
0.437044
21
0.437053
31
0.0
0
LINE
8
TOP
10
0.437044
20
0.437053
30
0.0
11
0.449619
21
0.424688
31
0.0
0
LINE
8
TOP
10
0.449619
20
0.424688
30
0.0
11
0.462645
21
0.412800
31
0.0
0
LINE
8
TOP
10
0.462645
20
0.412800
30
0.0
11
0.476106
21
0.401406
31
0.0
0
LINE
8
TOP
10
0.476106
20
0.401406
30
0.0
11
0.489981
21
0.390521
31
0.0
0
LINE
8
TOP
10
0.489981
20
0.390521
30
0.0
11
0.504252
21
0.380160
31
0.0
0
LINE
8
TOP
10
0.504252
20
0.380160
30
0.0
11
0.518899
21
0.370339
31
0.0
0
LINE
8
TOP
10
0.518899
20
0.370339
30
0.0
11
0.533902
21
0.361070
31
0.0
0
LINE
8
TOP
10
0.533902
20
0.361070
30
0.0
11
0.549240
21
0.352366
31
0.0
0
LINE
8
TOP
10
0.549240
20
0.352366
30
0.0
11
0.564892
21
0.344240
31
0.0
0
LINE
8
TOP
10
0.564892
20
0.344240
30
0.0
11
0.580836
21
0.336703
31
0.0
0
LINE
8
TOP
10
0.580836
20
0.336703
30
0.0
11
0.597049
21
0.329765
31
0.0
0
LINE
8
TOP
10
0.597049
20
0.329765
30
0.0
11
0.613509
21
0.323436
31
0.0
0
LINE
8
TOP
10
0.613509
20
0.323436
30
0.0
11
0.630194
21
0.317725
31
0.0
0
LINE
8
TOP
10
0.630194
20
0.317725
30
0.0
11
0.647081
21
0.312639
31
0.0
0
LINE
8
TOP
10
0.647081
20
0.312639
30
0.0
11
0.664145
21
0.308186
31
0.0
0
LINE
8
TOP
10
0.664145
20
0.308186
30
0.0
11
0.681363
21
0.304373
31
0.0
0
LINE
8
TOP
10
0.681363
20
0.304373
30
0.0
11
0.698711
21
0.301203
31
0.0
0
LINE
8
TOP
10
0.698711
20
0.301203
30
0.0
11
0.716165
21
0.298682
31
0.0
0
LINE
8
TOP
10
0.716165
20
0.298682
30
0.0
11
0.733701
21
0.296814
31
0.0
0
LINE
8
TOP
10
0.733701
20
0.296814
30
0.0
11
0.751295
21
0.295600
31
0.0
0
LINE
8
TOP
10
0.751295
20
0.295600
30
0.0
11
0.768921
21
0.295043
31
0.0
0
LINE
8
TOP
10
1.087766
20
0.424255
30
0.0
11
1.093432
21
0.424255
31
0.0
0
LINE
8
TOP
10
0.350564
20
1.001022
30
0.0
11
0.343099
21
0.987255
31
0.0
0
LINE
8
TOP
10
0.343099
20
0.987255
30
0.0
11
0.336092
21
0.973249
31
0.0
0
LINE
8
TOP
10
0.336092
20
0.973249
30
0.0
11
0.329553
21
0.959019
31
0.0
0
LINE
8
TOP
10
0.329553
20
0.959019
30
0.0
11
0.323487
21
0.944580
31
0.0
0
LINE
8
TOP
10
0.323487
20
0.944580
30
0.0
11
0.317903
21
0.929949
31
0.0
0
LINE
8
TOP
10
0.317903
20
0.929949
30
0.0
11
0.312805
21
0.915141
31
0.0
0
LINE
8
TOP
10
0.312805
20
0.915141
30
0.0
11
0.308200
21
0.900172
31
0.0
0
LINE
8
TOP
10
0.308200
20
0.900172
30
0.0
11
0.304093
21
0.885060
31
0.0
0
LINE
8
TOP
10
0.304093
20
0.885060
30
0.0
11
0.300487
21
0.869819
31
0.0
0
LINE
8
TOP
10
0.300487
20
0.869819
30
0.0
11
0.297387
21
0.854468
31
0.0
0
LINE
8
TOP
10
0.297387
20
0.854468
30
0.0
11
0.294797
21
0.839023
31
0.0
0
LINE
8
TOP
10
0.294797
20
0.839023
30
0.0
11
0.292719
21
0.823501
31
0.0
0
LINE
8
TOP
10
0.292719
20
0.823501
30
0.0
11
0.291155
21
0.807918
31
0.0
0
LINE
8
TOP
10
0.291155
20
0.807918
30
0.0
11
0.290107
21
0.792293
31
0.0
0
LINE
8
TOP
10
0.290107
20
0.792293
30
0.0
11
0.289577
21
0.776641
31
0.0
0
LINE
8
TOP
10
0.289577
20
0.776641
30
0.0
11
0.289564
21
0.760980
31
0.0
0
LINE
8
TOP
10
0.289564
20
0.760980
30
0.0
11
0.290069
21
0.745327
31
0.0
0
LINE
8
TOP
10
0.290069
20
0.745327
30
0.0
11
0.291091
21
0.729700
31
0.0
0
LINE
8
TOP
10
0.291091
20
0.729700
30
0.0
11
0.292630
21
0.714115
31
0.0
0
LINE
8
TOP
10
0.292630
20
0.714115
30
0.0
11
0.294683
21
0.698589
31
0.0
0
LINE
8
TOP
10
0.294683
20
0.698589
30
0.0
11
0.297248
21
0.683140
31
0.0
0
LINE
8
TOP
10
0.297248
20
0.683140
30
0.0
11
0.300323
21
0.667784
31
0.0
0
LINE
8
TOP
10
0.300323
20
0.667784
30
0.0
11
0.303904
21
0.652538
31
0.0
0
LINE
8
TOP
10
0.303904
20
0.652538
30
0.0
11
0.307987
21
0.637419
31
0.0
0
LINE
8
TOP
10
0.307987
20
0.637419
30
0.0
11
0.312568
21
0.622443
31
0.0
0
LINE
8
TOP
10
0.312568
20
0.622443
30
0.0
11
0.317642
21
0.607626
31
0.0
0
LINE
8
TOP
10
0.317642
20
0.607626
30
0.0
11
0.323202
21
0.592986
31
0.0
0
LINE
8
TOP
10
0.323202
20
0.592986
30
0.0
11
0.329244
21
0.578538
31
0.0
0
LINE
8
TOP
10
0.329244
20
0.578538
30
0.0
11
0.335760
21
0.564297
31
0.0
0
LINE
8
TOP
10
0.335760
20
0.564297
30
0.0
11
0.342744
21
0.550279
31
0.0
0
LINE
8
TOP
10
0.342744
20
0.550279
30
0.0
11
0.350188
21
0.536501
31
0.0
0
LINE
8
TOP
10
0.350188
20
0.536501
30
0.0
11
0.358083
21
0.522975
31
0.0
0
LINE
8
TOP
10
0.358083
20
0.522975
30
0.0
11
0.366421
21
0.509719
31
0.0
0
LINE
8
TOP
10
0.366421
20
0.509719
30
0.0
11
0.375193
21
0.496745
31
0.0
0
LINE
8
TOP
10
0.375193
20
0.496745
30
0.0
11
0.384389
21
0.484069
31
0.0
0
LINE
8
TOP
10
0.384389
20
0.484069
30
0.0
11
0.394000
21
0.471704
31
0.0
0
LINE
8
TOP
10
0.394000
20
0.471704
30
0.0
11
0.404014
21
0.459663
31
0.0
0
LINE
8
TOP
10
0.404014
20
0.459663
30
0.0
11
0.414421
21
0.447960
31
0.0
0
LINE
8
TOP
10
0.414421
20
0.447960
30
0.0
11
0.425210
21
0.436608
31
0.0
0
LINE
8
TOP
10
0.425210
20
0.436608
30
0.0
11
0.436368
21
0.425619
31
0.0
0
LINE
8
TOP
10
0.436368
20
0.425619
30
0.0
11
0.447883
21
0.415005
31
0.0
0
LINE
8
TOP
10
0.447883
20
0.415005
30
0.0
11
0.459744
21
0.404778
31
0.0
0
LINE
8
TOP
10
0.459744
20
0.404778
30
0.0
11
0.471936
21
0.394949
31
0.0
0
LINE
8
TOP
10
0.471936
20
0.394949
30
0.0
11
0.484447
21
0.385529
31
0.0
0
LINE
8
TOP
10
0.484447
20
0.385529
30
0.0
11
0.497263
21
0.376528
31
0.0
0
LINE
8
TOP
10
0.497263
20
0.376528
30
0.0
11
0.510369
21
0.367956
31
0.0
0
LINE
8
TOP
10
0.510369
20
0.367956
30
0.0
11
0.523752
21
0.359822
31
0.0
0
LINE
8
TOP
10
0.523752
20
0.359822
30
0.0
11
0.537396
21
0.352135
31
0.0
0
LINE
8
TOP
10
0.537396
20
0.352135
30
0.0
11
0.551288
21
0.344904
31
0.0
0
LINE
8
TOP
10
0.551288
20
0.344904
30
0.0
11
0.565411
21
0.338136
31
0.0
0
LINE
8
TOP
10
0.565411
20
0.338136
30
0.0
11
0.579751
21
0.331840
31
0.0
0
LINE
8
TOP
10
0.579751
20
0.331840
30
0.0
11
0.594290
21
0.326022
31
0.0
0
LINE
8
TOP
10
0.594290
20
0.326022
30
0.0
11
0.609015
21
0.320688
31
0.0
0
LINE
8
TOP
10
0.609015
20
0.320688
30
0.0
11
0.623908
21
0.315844
31
0.0
0
LINE
8
TOP
10
0.623908
20
0.315844
30
0.0
11
0.638953
21
0.311495
31
0.0
0
LINE
8
TOP
10
0.638953
20
0.311495
30
0.0
11
0.654134
21
0.307647
31
0.0
0
LINE
8
TOP
10
0.654134
20
0.307647
30
0.0
11
0.669433
21
0.304304
31
0.0
0
LINE
8
TOP
10
0.669433
20
0.304304
30
0.0
11
0.684835
21
0.301468
31
0.0
0
LINE
8
TOP
10
0.684835
20
0.301468
30
0.0
11
0.700323
21
0.299144
31
0.0
0
LINE
8
TOP
10
0.700323
20
0.299144
30
0.0
11
0.715879
21
0.297334
31
0.0
0
LINE
8
TOP
10
0.715879
20
0.297334
30
0.0
11
0.731486
21
0.296039
31
0.0
0
LINE
8
TOP
10
0.731486
20
0.296039
30
0.0
11
0.747127
21
0.295262
31
0.0
0
LINE
8
TOP
10
0.747127
20
0.295262
30
0.0
11
0.762786
21
0.295003
31
0.0
0
LINE
8
TOP
10
0.762786
20
0.295003
30
0.0
11
0.768472
21
0.295037
31
0.0
0
LINE
8
TOP
10
0.768472
20
0.295037
30
0.0
11
0.774158
21
0.295140
31
0.0
0
LINE
8
TOP
10
0.774158
20
0.295140
30
0.0
11
0.779841
21
0.295310
31
0.0
0
LINE
8
TOP
10
0.779841
20
0.295310
30
0.0
11
0.785522
21
0.295550
31
0.0
0
LINE
8
TOP
10
0.785522
20
0.295550
30
0.0
11
0.791200
21
0.295857
31
0.0
0
LINE
8
TOP
10
0.791200
20
0.295857
30
0.0
11
0.796874
21
0.296232
31
0.0
0
LINE
8
TOP
10
0.796874
20
0.296232
30
0.0
11
0.802543
21
0.296676
31
0.0
0
LINE
8
TOP
10
0.802543
20
0.296676
30
0.0
11
0.808206
21
0.297188
31
0.0
0
LINE
8
TOP
10
0.808206
20
0.297188
30
0.0
11
0.813863
21
0.297768
31
0.0
0
LINE
8
TOP
10
0.813863
20
0.297768
30
0.0
11
0.819512
21
0.298416
31
0.0
0
LINE
8
TOP
10
0.819512
20
0.298416
30
0.0
11
0.825153
21
0.299131
31
0.0
0
LINE
8
TOP
10
0.825153
20
0.299131
30
0.0
11
0.830785
21
0.299915
31
0.0
0
LINE
8
TOP
10
0.830785
20
0.299915
30
0.0
11
0.836407
21
0.300766
31
0.0
0
LINE
8
TOP
10
0.836407
20
0.300766
30
0.0
11
0.842018
21
0.301684
31
0.0
0
LINE
8
TOP
10
0.842018
20
0.301684
30
0.0
11
0.847619
21
0.302670
31
0.0
0
LINE
8
TOP
10
0.847619
20
0.302670
30
0.0
11
0.853206
21
0.303723
31
0.0
0
LINE
8
TOP
10
0.853206
20
0.303723
30
0.0
11
0.858781
21
0.304843
31
0.0
0
LINE
8
TOP
10
0.858781
20
0.304843
30
0.0
11
0.864342
21
0.306031
31
0.0
0
LINE
8
TOP
10
0.864342
20
0.306031
30
0.0
11
0.869888
21
0.307284
31
0.0
0
LINE
8
TOP
10
0.869888
20
0.307284
30
0.0
11
0.875419
21
0.308605
31
0.0
0
LINE
8
TOP
10
0.875419
20
0.308605
30
0.0
11
0.880934
21
0.309992
31
0.0
0
LINE
8
TOP
10
0.880934
20
0.309992
30
0.0
11
0.886431
21
0.311444
31
0.0
0
LINE
8
TOP
10
0.886431
20
0.311444
30
0.0
11
0.891911
21
0.312963
31
0.0
0
LINE
8
TOP
10
0.891911
20
0.312963
30
0.0
11
0.897372
21
0.314548
31
0.0
0
LINE
8
TOP
10
0.897372
20
0.314548
30
0.0
11
0.902813
21
0.316198
31
0.0
0
LINE
8
TOP
10
0.902813
20
0.316198
30
0.0
11
0.908234
21
0.317914
31
0.0
0
LINE
8
TOP
10
0.908234
20
0.317914
30
0.0
11
0.913635
21
0.319694
31
0.0
0
LINE
8
TOP
10
0.913635
20
0.319694
30
0.0
11
0.919013
21
0.321539
31
0.0
0
LINE
8
TOP
10
0.919013
20
0.321539
30
0.0
11
0.924369
21
0.323449
31
0.0
0
LINE
8
TOP
10
0.924369
20
0.323449
30
0.0
11
0.929702
21
0.325423
31
0.0
0
LINE
8
TOP
10
0.929702
20
0.325423
30
0.0
11
0.935010
21
0.327461
31
0.0
0
LINE
8
TOP
10
0.935010
20
0.327461
30
0.0
11
0.940294
21
0.329562
31
0.0
0
LINE
8
TOP
10
0.940294
20
0.329562
30
0.0
11
0.945552
21
0.331727
31
0.0
0
LINE
8
TOP
10
0.945552
20
0.331727
30
0.0
11
0.950783
21
0.333955
31
0.0
0
LINE
8
TOP
10
0.950783
20
0.333955
30
0.0
11
0.955988
21
0.336245
31
0.0
0
LINE
8
TOP
10
0.955988
20
0.336245
30
0.0
11
0.961164
21
0.338598
31
0.0
0
LINE
8
TOP
10
0.961164
20
0.338598
30
0.0
11
0.966312
21
0.341013
31
0.0
0
LINE
8
TOP
10
0.966312
20
0.341013
30
0.0
11
0.971431
21
0.343490
31
0.0
0
LINE
8
TOP
10
0.971431
20
0.343490
30
0.0
11
0.976519
21
0.346028
31
0.0
0
LINE
8
TOP
10
0.976519
20
0.346028
30
0.0
11
0.981577
21
0.348627
31
0.0
0
LINE
8
TOP
10
0.981577
20
0.348627
30
0.0
11
0.986603
21
0.351286
31
0.0
0
LINE
8
TOP
10
0.986603
20
0.351286
30
0.0
11
0.991596
21
0.354006
31
0.0
0
LINE
8
TOP
10
0.991596
20
0.354006
30
0.0
11
0.996557
21
0.356786
31
0.0
0
LINE
8
TOP
10
0.996557
20
0.356786
30
0.0
11
1.001484
21
0.359625
31
0.0
0
LINE
8
TOP
10
1.001484
20
0.359625
30
0.0
11
1.006376
21
0.362523
31
0.0
0
LINE
8
TOP
10
1.006376
20
0.362523
30
0.0
11
1.011233
21
0.365479
31
0.0
0
LINE
8
TOP
10
1.011233
20
0.365479
30
0.0
11
1.016055
21
0.368494
31
0.0
0
LINE
8
TOP
10
1.016055
20
0.368494
30
0.0
11
1.020839
21
0.371566
31
0.0
0
LINE
8
TOP
10
1.020839
20
0.371566
30
0.0
11
1.025587
21
0.374696
31
0.0
0
LINE
8
TOP
10
1.025587
20
0.374696
30
0.0
11
1.030296
21
0.377882
31
0.0
0
LINE
8
TOP
10
1.030296
20
0.377882
30
0.0
11
1.034967
21
0.381125
31
0.0
0
LINE
8
TOP
10
1.034967
20
0.381125
30
0.0
11
1.039599
21
0.384423
31
0.0
0
LINE
8
TOP
10
1.039599
20
0.384423
30
0.0
11
1.044191
21
0.387777
31
0.0
0
LINE
8
TOP
10
1.044191
20
0.387777
30
0.0
11
1.048742
21
0.391186
31
0.0
0
LINE
8
TOP
10
1.048742
20
0.391186
30
0.0
11
1.053251
21
0.394650
31
0.0
0
LINE
8
TOP
10
1.053251
20
0.394650
30
0.0
11
1.057719
21
0.398167
31
0.0
0
LINE
8
TOP
10
1.057719
20
0.398167
30
0.0
11
1.062144
21
0.401738
31
0.0
0
LINE
8
TOP
10
1.062144
20
0.401738
30
0.0
11
1.066526
21
0.405362
31
0.0
0
LINE
8
TOP
10
1.066526
20
0.405362
30
0.0
11
1.070865
21
0.409038
31
0.0
0
LINE
8
TOP
10
1.070865
20
0.409038
30
0.0
11
1.075158
21
0.412766
31
0.0
0
LINE
8
TOP
10
1.075158
20
0.412766
30
0.0
11
1.079407
21
0.416545
31
0.0
0
LINE
8
TOP
10
1.079407
20
0.416545
30
0.0
11
1.083610
21
0.420375
31
0.0
0
LINE
8
TOP
10
1.083610
20
0.420375
30
0.0
11
1.087766
21
0.424255
31
0.0
0
LINE
8
TOP
10
0.438236
20
1.108082
30
0.0
11
0.441731
21
1.104516
31
0.0
0
LINE
8
TOP
10
1.087766
20
0.424255
30
0.0
11
1.090467
21
0.421289
31
0.0
0
LINE
8
TOP_HID
6
HIDDEN
10
1.230637
20
0.757659
30
0.0
11
1.230234
21
0.777180
31
0.0
0
LINE
8
TOP_HID
6
HIDDEN
10
1.230234
20
0.777180
30
0.0
11
1.229028
21
0.796668
31
0.0
0
LINE
8
TOP_HID
6
HIDDEN
10
1.229028
20
0.796668
30
0.0
11
1.227019
21
0.816089
31
0.0
0
LINE
8
TOP_HID
6
HIDDEN
10
1.227019
20
0.816089
30
0.0
11
1.224212
21
0.835412
31
0.0
0
LINE
8
TOP_HID
6
HIDDEN
10
1.224212
20
0.835412
30
0.0
11
1.220611
21
0.854602
31
0.0
0
LINE
8
TOP_HID
6
HIDDEN
10
1.220611
20
0.854602
30
0.0
11
1.216222
21
0.873627
31
0.0
0
LINE
8
TOP_HID
6
HIDDEN
10
1.216222
20
0.873627
30
0.0
11
1.211053
21
0.892455
31
0.0
0
LINE
8
TOP_HID
6
HIDDEN
10
1.211053
20
0.892455
30
0.0
11
1.205112
21
0.911055
31
0.0
0
LINE
8
TOP_HID
6
HIDDEN
10
1.205112
20
0.911055
30
0.0
11
1.198409
21
0.929393
31
0.0
0
LINE
8
TOP_HID
6
HIDDEN
10
1.198409
20
0.929393
30
0.0
11
1.190957
21
0.947440
31
0.0
0
LINE
8
TOP_HID
6
HIDDEN
10
1.190957
20
0.947440
30
0.0
11
1.182767
21
0.965165
31
0.0
0
LINE
8
TOP_HID
6
HIDDEN
10
1.182767
20
0.965165
30
0.0
11
1.173854
21
0.982537
31
0.0
0
LINE
8
TOP_HID
6
HIDDEN
10
1.173854
20
0.982537
30
0.0
11
1.164233
21
0.999526
31
0.0
0
LINE
8
TOP_HID
6
HIDDEN
10
1.164233
20
0.999526
30
0.0
11
1.153919
21
1.016105
31
0.0
0
LINE
8
TOP_HID
6
HIDDEN
10
1.153919
20
1.016105
30
0.0
11
1.142931
21
1.032245
31
0.0
0
LINE
8
TOP_HID
6
HIDDEN
10
1.142931
20
1.032245
30
0.0
11
1.131287
21
1.047918
31
0.0
0
LINE
8
TOP_HID
6
HIDDEN
10
1.131287
20
1.047918
30
0.0
11
1.119007
21
1.063098
31
0.0
0
LINE
8
TOP_HID
6
HIDDEN
10
1.119007
20
1.063098
30
0.0
11
1.106112
21
1.077759
31
0.0
0
LINE
8
TOP_HID
6
HIDDEN
10
1.106112
20
1.077759
30
0.0
11
1.092624
21
1.091877
31
0.0
0
LINE
8
TOP_HID
6
HIDDEN
10
1.092624
20
1.091877
30
0.0
11
1.078566
21
1.105426
31
0.0
0
LINE
8
TOP_HID
6
HIDDEN
10
1.078566
20
1.105426
30
0.0
11
1.063961
21
1.118385
31
0.0
0
LINE
8
TOP_HID
6
HIDDEN
10
1.063961
20
1.118385
30
0.0
11
1.048834
21
1.130730
31
0.0
0
LINE
8
TOP_HID
6
HIDDEN
10
1.048834
20
1.130730
30
0.0
11
1.033211
21
1.142442
31
0.0
0
LINE
8
TOP_HID
6
HIDDEN
10
1.033211
20
1.142442
30
0.0
11
1.017120
21
1.153500
31
0.0
0
LINE
8
TOP_HID
6
HIDDEN
10
1.017120
20
1.153500
30
0.0
11
1.000586
21
1.163885
31
0.0
0
LINE
8
TOP_HID
6
HIDDEN
10
1.000586
20
1.163885
30
0.0
11
0.983638
21
1.173581
31
0.0
0
LINE
8
TOP_HID
6
HIDDEN
10
0.983638
20
1.173581
30
0.0
11
0.966305
21
1.182569
31
0.0
0
LINE
8
TOP_HID
6
HIDDEN
10
0.966305
20
1.182569
30
0.0
11
0.948616
21
1.190836
31
0.0
0
LINE
8
TOP_HID
6
HIDDEN
10
0.948616
20
1.190836
30
0.0
11
0.930602
21
1.198366
31
0.0
0
LINE
8
TOP_HID
6
HIDDEN
10
0.930602
20
1.198366
30
0.0
11
0.912292
21
1.205148
31
0.0
0
LINE
8
TOP_HID
6
HIDDEN
10
0.912292
20
1.205148
30
0.0
11
0.893719
21
1.211170
31
0.0
0
LINE
8
TOP_HID
6
HIDDEN
10
0.893719
20
1.211170
30
0.0
11
0.874913
21
1.216421
31
0.0
0
LINE
8
TOP_HID
6
HIDDEN
10
0.874913
20
1.216421
30
0.0
11
0.855907
21
1.220892
31
0.0
0
LINE
8
TOP_HID
6
HIDDEN
10
0.855907
20
1.220892
30
0.0
11
0.836733
21
1.224577
31
0.0
0
LINE
8
TOP_HID
6
HIDDEN
10
0.836733
20
1.224577
30
0.0
11
0.817423
21
1.227468
31
0.0
0
LINE
8
TOP_HID
6
HIDDEN
10
0.817423
20
1.227468
30
0.0
11
0.798010
21
1.229561
31
0.0
0
LINE
8
TOP_HID
6
HIDDEN
10
0.798010
20
1.229561
30
0.0
11
0.778528
21
1.230852
31
0.0
0
LINE
8
TOP_HID
6
HIDDEN
10
0.778528
20
1.230852
30
0.0
11
0.759009
21
1.231339
31
0.0
0
LINE
8
TOP_HID
6
HIDDEN
10
0.759009
20
1.231339
30
0.0
11
0.739486
21
1.231021
31
0.0
0
LINE
8
TOP_HID
6
HIDDEN
10
0.739486
20
1.231021
30
0.0
11
0.719994
21
1.229899
31
0.0
0
LINE
8
TOP_HID
6
HIDDEN
10
0.719994
20
1.229899
30
0.0
11
0.700564
21
1.227975
31
0.0
0
LINE
8
TOP_HID
6
HIDDEN
10
0.700564
20
1.227975
30
0.0
11
0.681229
21
1.225252
31
0.0
0
LINE
8
TOP_HID
6
HIDDEN
10
0.681229
20
1.225252
30
0.0
11
0.662024
21
1.221734
31
0.0
0
LINE
8
TOP_HID
6
HIDDEN
10
0.662024
20
1.221734
30
0.0
11
0.642980
21
1.217427
31
0.0
0
LINE
8
TOP_HID
6
HIDDEN
10
0.642980
20
1.217427
30
0.0
11
0.624129
21
1.212340
31
0.0
0
LINE
8
TOP_HID
6
HIDDEN
10
0.624129
20
1.212340
30
0.0
11
0.605504
21
1.206480
31
0.0
0
LINE
8
TOP_HID
6
HIDDEN
10
0.605504
20
1.206480
30
0.0
11
0.587136
21
1.199857
31
0.0
0
LINE
8
TOP_HID
6
HIDDEN
10
0.587136
20
1.199857
30
0.0
11
0.569057
21
1.192483
31
0.0
0
LINE
8
TOP_HID
6
HIDDEN
10
0.569057
20
1.192483
30
0.0
11
0.551297
21
1.184371
31
0.0
0
LINE
8
TOP_HID
6
HIDDEN
10
0.551297
20
1.184371
30
0.0
11
0.533887
21
1.175533
31
0.0
0
LINE
8
TOP_HID
6
HIDDEN
10
0.533887
20
1.175533
30
0.0
11
0.516856
21
1.165985
31
0.0
0
LINE
8
TOP_HID
6
HIDDEN
10
0.516856
20
1.165985
30
0.0
11
0.500232
21
1.155744
31
0.0
0
LINE
8
TOP_HID
6
HIDDEN
10
0.500232
20
1.155744
30
0.0
11
0.484045
21
1.144826
31
0.0
0
LINE
8
TOP_HID
6
HIDDEN
10
0.484045
20
1.144826
30
0.0
11
0.468321
21
1.133250
31
0.0
0
LINE
8
TOP_HID
6
HIDDEN
10
0.468321
20
1.133250
30
0.0
11
0.453088
21
1.121036
31
0.0
0
LINE
8
TOP_HID
6
HIDDEN
10
0.453088
20
1.121036
30
0.0
11
0.438371
21
1.108205
31
0.0
0
LINE
8
TOP_HID
6
HIDDEN
10
0.438371
20
1.108205
30
0.0
11
0.424195
21
1.094778
31
0.0
0
LINE
8
TOP_HID
6
HIDDEN
10
0.424195
20
1.094778
30
0.0
11
0.410585
21
1.080779
31
0.0
0
LINE
8
TOP_HID
6
HIDDEN
10
0.410585
20
1.080779
30
0.0
11
0.397563
21
1.066230
31
0.0
0
LINE
8
TOP_HID
6
HIDDEN
10
0.397563
20
1.066230
30
0.0
11
0.385152
21
1.051157
31
0.0
0
LINE
8
TOP_HID
6
HIDDEN
10
0.385152
20
1.051157
30
0.0
11
0.373373
21
1.035586
31
0.0
0
LINE
8
TOP_HID
6
HIDDEN
10
0.373373
20
1.035586
30
0.0
11
0.362245
21
1.019542
31
0.0
0
LINE
8
TOP_HID
6
HIDDEN
10
0.362245
20
1.019542
30
0.0
11
0.351788
21
1.003053
31
0.0
0
LINE
8
TOP_HID
6
HIDDEN
10
1.090738
20
0.421558
30
0.0
11
1.094920
21
0.425764
31
0.0
0
LINE
8
TOP_HID
6
HIDDEN
10
1.094920
20
0.425764
30
0.0
11
1.099049
21
0.430021
31
0.0
0
LINE
8
TOP_HID
6
HIDDEN
10
1.099049
20
0.430021
30
0.0
11
1.103125
21
0.434330
31
0.0
0
LINE
8
TOP_HID
6
HIDDEN
10
1.103125
20
0.434330
30
0.0
11
1.107146
21
0.438690
31
0.0
0
LINE
8
TOP_HID
6
HIDDEN
10
1.107146
20
0.438690
30
0.0
11
1.111113
21
0.443100
31
0.0
0
LINE
8
TOP_HID
6
HIDDEN
10
1.111113
20
0.443100
30
0.0
11
1.115024
21
0.447559
31
0.0
0
LINE
8
TOP_HID
6
HIDDEN
10
1.115024
20
0.447559
30
0.0
11
1.118878
21
0.452067
31
0.0
0
LINE
8
TOP_HID
6
HIDDEN
10
1.118878
20
0.452067
30
0.0
11
1.122676
21
0.456623
31
0.0
0
LINE
8
TOP_HID
6
HIDDEN
10
1.122676
20
0.456623
30
0.0
11
1.126417
21
0.461226
31
0.0
0
LINE
8
TOP_HID
6
HIDDEN
10
1.126417
20
0.461226
30
0.0
11
1.130100
21
0.465875
31
0.0
0
LINE
8
TOP_HID
6
HIDDEN
10
1.130100
20
0.465875
30
0.0
11
1.133724
21
0.470570
31
0.0
0
LINE
8
TOP_HID
6
HIDDEN
10
1.133724
20
0.470570
30
0.0
11
1.137289
21
0.475310
31
0.0
0
LINE
8
TOP_HID
6
HIDDEN
10
1.137289
20
0.475310
30
0.0
11
1.140795
21
0.480095
31
0.0
0
LINE
8
TOP_HID
6
HIDDEN
10
1.140795
20
0.480095
30
0.0
11
1.144240
21
0.484923
31
0.0
0
LINE
8
TOP_HID
6
HIDDEN
10
1.144240
20
0.484923
30
0.0
11
1.147625
21
0.489793
31
0.0
0
LINE
8
TOP_HID
6
HIDDEN
10
1.147625
20
0.489793
30
0.0
11
1.150948
21
0.494706
31
0.0
0
LINE
8
TOP_HID
6
HIDDEN
10
1.150948
20
0.494706
30
0.0
11
1.154210
21
0.499660
31
0.0
0
LINE
8
TOP_HID
6
HIDDEN
10
1.154210
20
0.499660
30
0.0
11
1.157409
21
0.504654
31
0.0
0
LINE
8
TOP_HID
6
HIDDEN
10
1.157409
20
0.504654
30
0.0
11
1.160545
21
0.509688
31
0.0
0
LINE
8
TOP_HID
6
HIDDEN
10
1.160545
20
0.509688
30
0.0
11
1.163619
21
0.514761
31
0.0
0
LINE
8
TOP_HID
6
HIDDEN
10
1.163619
20
0.514761
30
0.0
11
1.166628
21
0.519872
31
0.0
0
LINE
8
TOP_HID
6
HIDDEN
10
1.166628
20
0.519872
30
0.0
11
1.169573
21
0.525020
31
0.0
0
LINE
8
TOP_HID
6
HIDDEN
10
1.169573
20
0.525020
30
0.0
11
1.172454
21
0.530205
31
0.0
0
LINE
8
TOP_HID
6
HIDDEN
10
1.172454
20
0.530205
30
0.0
11
1.175269
21
0.535426
31
0.0
0
LINE
8
TOP_HID
6
HIDDEN
10
1.175269
20
0.535426
30
0.0
11
1.178019
21
0.540681
31
0.0
0
LINE
8
TOP_HID
6
HIDDEN
10
1.178019
20
0.540681
30
0.0
11
1.180703
21
0.545970
31
0.0
0
LINE
8
TOP_HID
6
HIDDEN
10
1.180703
20
0.545970
30
0.0
11
1.183320
21
0.551293
31
0.0
0
LINE
8
TOP_HID
6
HIDDEN
10
1.183320
20
0.551293
30
0.0
11
1.185871
21
0.556647
31
0.0
0
LINE
8
TOP_HID
6
HIDDEN
10
1.185871
20
0.556647
30
0.0
11
1.188354
21
0.562034
31
0.0
0
LINE
8
TOP_HID
6
HIDDEN
10
1.188354
20
0.562034
30
0.0
11
1.190770
21
0.567451
31
0.0
0
LINE
8
TOP_HID
6
HIDDEN
10
1.190770
20
0.567451
30
0.0
11
1.193118
21
0.572897
31
0.0
0
LINE
8
TOP_HID
6
HIDDEN
10
1.193118
20
0.572897
30
0.0
11
1.195397
21
0.578373
31
0.0
0
LINE
8
TOP_HID
6
HIDDEN
10
1.195397
20
0.578373
30
0.0
11
1.197607
21
0.583877
31
0.0
0
LINE
8
TOP_HID
6
HIDDEN
10
1.197607
20
0.583877
30
0.0
11
1.199749
21
0.589408
31
0.0
0
LINE
8
TOP_HID
6
HIDDEN
10
1.199749
20
0.589408
30
0.0
11
1.201821
21
0.594966
31
0.0
0
LINE
8
TOP_HID
6
HIDDEN
10
1.201821
20
0.594966
30
0.0
11
1.203823
21
0.600549
31
0.0
0
LINE
8
TOP_HID
6
HIDDEN
10
1.203823
20
0.600549
30
0.0
11
1.205755
21
0.606157
31
0.0
0
LINE
8
TOP_HID
6
HIDDEN
10
1.205755
20
0.606157
30
0.0
11
1.207617
21
0.611788
31
0.0
0
LINE
8
TOP_HID
6
HIDDEN
10
1.207617
20
0.611788
30
0.0
11
1.209408
21
0.617442
31
0.0
0
LINE
8
TOP_HID
6
HIDDEN
10
1.209408
20
0.617442
30
0.0
11
1.211128
21
0.623118
31
0.0
0
LINE
8
TOP_HID
6
HIDDEN
10
1.211128
20
0.623118
30
0.0
11
1.212777
21
0.628816
31
0.0
0
LINE
8
TOP_HID
6
HIDDEN
10
1.212777
20
0.628816
30
0.0
11
1.214355
21
0.634533
31
0.0
0
LINE
8
TOP_HID
6
HIDDEN
10
1.214355
20
0.634533
30
0.0
11
1.215861
21
0.640270
31
0.0
0
LINE
8
TOP_HID
6
HIDDEN
10
1.215861
20
0.640270
30
0.0
11
1.217295
21
0.646026
31
0.0
0
LINE
8
TOP_HID
6
HIDDEN
10
1.217295
20
0.646026
30
0.0
11
1.218656
21
0.651798
31
0.0
0
LINE
8
TOP_HID
6
HIDDEN
10
1.218656
20
0.651798
30
0.0
11
1.219946
21
0.657588
31
0.0
0
LINE
8
TOP_HID
6
HIDDEN
10
1.219946
20
0.657588
30
0.0
11
1.221162
21
0.663393
31
0.0
0
LINE
8
TOP_HID
6
HIDDEN
10
1.221162
20
0.663393
30
0.0
11
1.222306
21
0.669213
31
0.0
0
LINE
8
TOP_HID
6
HIDDEN
10
1.222306
20
0.669213
30
0.0
11
1.223377
21
0.675046
31
0.0
0
LINE
8
TOP_HID
6
HIDDEN
10
1.223377
20
0.675046
30
0.0
11
1.224375
21
0.680893
31
0.0
0
LINE
8
TOP_HID
6
HIDDEN
10
1.224375
20
0.680893
30
0.0
11
1.225300
21
0.686752
31
0.0
0
LINE
8
TOP_HID
6
HIDDEN
10
1.225300
20
0.686752
30
0.0
11
1.226151
21
0.692622
31
0.0
0
LINE
8
TOP_HID
6
HIDDEN
10
1.226151
20
0.692622
30
0.0
11
1.226928
21
0.698502
31
0.0
0
LINE
8
TOP_HID
6
HIDDEN
10
1.226928
20
0.698502
30
0.0
11
1.227632
21
0.704391
31
0.0
0
LINE
8
TOP_HID
6
HIDDEN
10
1.227632
20
0.704391
30
0.0
11
1.228262
21
0.710289
31
0.0
0
LINE
8
TOP_HID
6
HIDDEN
10
1.228262
20
0.710289
30
0.0
11
1.228818
21
0.716194
31
0.0
0
LINE
8
TOP_HID
6
HIDDEN
10
1.228818
20
0.716194
30
0.0
11
1.229301
21
0.722105
31
0.0
0
LINE
8
TOP_HID
6
HIDDEN
10
1.229301
20
0.722105
30
0.0
11
1.229709
21
0.728022
31
0.0
0
LINE
8
TOP_HID
6
HIDDEN
10
1.229709
20
0.728022
30
0.0
11
1.230043
21
0.733944
31
0.0
0
LINE
8
TOP_HID
6
HIDDEN
10
1.230043
20
0.733944
30
0.0
11
1.230303
21
0.739870
31
0.0
0
LINE
8
TOP_HID
6
HIDDEN
10
1.230303
20
0.739870
30
0.0
11
1.230488
21
0.745798
31
0.0
0
LINE
8
TOP_HID
6
HIDDEN
10
1.230488
20
0.745798
30
0.0
11
1.230600
21
0.751728
31
0.0
0
LINE
8
TOP_HID
6
HIDDEN
10
1.230600
20
0.751728
30
0.0
11
1.230637
21
0.757659
31
0.0
0
LINE
8
TOP_HID
6
HIDDEN
10
1.090738
20
0.421558
30
0.0
11
1.270775
21
0.223902
31
0.0
0
LINE
8
TOP_HID
6
HIDDEN
10
0.233433
20
0.236629
30
0.0
11
0.240061
21
0.230192
31
0.0
0
LINE
8
TOP_HID
6
HIDDEN
10
0.240061
20
0.230192
30
0.0
11
0.246769
21
0.223837
31
0.0
0
LINE
8
TOP_HID
6
HIDDEN
10
0.246769
20
0.223837
30
0.0
11
0.253554
21
0.217565
31
0.0
0
LINE
8
TOP_HID
6
HIDDEN
10
0.253554
20
0.217565
30
0.0
11
0.260416
21
0.211377
31
0.0
0
LINE
8
TOP_HID
6
HIDDEN
10
0.260416
20
0.211377
30
0.0
11
0.267354
21
0.205275
31
0.0
0
LINE
8
TOP_HID
6
HIDDEN
10
0.267354
20
0.205275
30
0.0
11
0.274367
21
0.199258
31
0.0
0
LINE
8
TOP_HID
6
HIDDEN
10
0.274367
20
0.199258
30
0.0
11
0.281453
21
0.193329
31
0.0
0
LINE
8
TOP_HID
6
HIDDEN
10
0.281453
20
0.193329
30
0.0
11
0.288612
21
0.187487
31
0.0
0
LINE
8
TOP_HID
6
HIDDEN
10
0.288612
20
0.187487
30
0.0
11
0.295843
21
0.181734
31
0.0
0
LINE
8
TOP_HID
6
HIDDEN
10
0.295843
20
0.181734
30
0.0
11
0.303144
21
0.176071
31
0.0
0
LINE
8
TOP_HID
6
HIDDEN
10
0.303144
20
0.176071
30
0.0
11
0.310514
21
0.170498
31
0.0
0
LINE
8
TOP_HID
6
HIDDEN
10
0.310514
20
0.170498
30
0.0
11
0.317952
21
0.165016
31
0.0
0
LINE
8
TOP_HID
6
HIDDEN
10
0.317952
20
0.165016
30
0.0
11
0.325458
21
0.159627
31
0.0
0
LINE
8
TOP_HID
6
HIDDEN
10
0.325458
20
0.159627
30
0.0
11
0.333029
21
0.154331
31
0.0
0
LINE
8
TOP_HID
6
HIDDEN
10
0.333029
20
0.154331
30
0.0
11
0.340665
21
0.149128
31
0.0
0
LINE
8
TOP_HID
6
HIDDEN
10
0.340665
20
0.149128
30
0.0
11
0.348364
21
0.144020
31
0.0
0
LINE
8
TOP_HID
6
HIDDEN
10
0.348364
20
0.144020
30
0.0
11
0.356127
21
0.139007
31
0.0
0
LINE
8
TOP_HID
6
HIDDEN
10
0.356127
20
0.139007
30
0.0
11
0.363950
21
0.134091
31
0.0
0
LINE
8
TOP_HID
6
HIDDEN
10
0.363950
20
0.134091
30
0.0
11
0.371833
21
0.129271
31
0.0
0
LINE
8
TOP_HID
6
HIDDEN
10
0.371833
20
0.129271
30
0.0
11
0.379775
21
0.124549
31
0.0
0
LINE
8
TOP_HID
6
HIDDEN
10
0.379775
20
0.124549
30
0.0
11
0.387775
21
0.119925
31
0.0
0
LINE
8
TOP_HID
6
HIDDEN
10
0.387775
20
0.119925
30
0.0
11
0.395831
21
0.115400
31
0.0
0
LINE
8
TOP_HID
6
HIDDEN
10
0.395831
20
0.115400
30
0.0
11
0.403943
21
0.110975
31
0.0
0
LINE
8
TOP_HID
6
HIDDEN
10
0.403943
20
0.110975
30
0.0
11
0.412108
21
0.106651
31
0.0
0
LINE
8
TOP_HID
6
HIDDEN
10
0.412108
20
0.106651
30
0.0
11
0.420326
21
0.102427
31
0.0
0
LINE
8
TOP_HID
6
HIDDEN
10
0.420326
20
0.102427
30
0.0
11
0.428596
21
0.098305
31
0.0
0
LINE
8
TOP_HID
6
HIDDEN
10
0.428596
20
0.098305
30
0.0
11
0.436915
21
0.094285
31
0.0
0
LINE
8
TOP_HID
6
HIDDEN
10
0.436915
20
0.094285
30
0.0
11
0.445284
21
0.090368
31
0.0
0
LINE
8
TOP_HID
6
HIDDEN
10
0.445284
20
0.090368
30
0.0
11
0.453700
21
0.086555
31
0.0
0
LINE
8
TOP_HID
6
HIDDEN
10
0.453700
20
0.086555
30
0.0
11
0.462163
21
0.082846
31
0.0
0
LINE
8
TOP_HID
6
HIDDEN
10
0.462163
20
0.082846
30
0.0
11
0.470671
21
0.079241
31
0.0
0
LINE
8
TOP_HID
6
HIDDEN
10
0.470671
20
0.079241
30
0.0
11
0.479222
21
0.075742
31
0.0
0
LINE
8
TOP_HID
6
HIDDEN
10
0.479222
20
0.075742
30
0.0
11
0.487817
21
0.072348
31
0.0
0
LINE
8
TOP_HID
6
HIDDEN
10
0.487817
20
0.072348
30
0.0
11
0.496452
21
0.069061
31
0.0
0
LINE
8
TOP_HID
6
HIDDEN
10
0.496452
20
0.069061
30
0.0
11
0.505127
21
0.065880
31
0.0
0
LINE
8
TOP_HID
6
HIDDEN
10
0.505127
20
0.065880
30
0.0
11
0.513841
21
0.062807
31
0.0
0
LINE
8
TOP_HID
6
HIDDEN
10
0.513841
20
0.062807
30
0.0
11
0.522592
21
0.059841
31
0.0
0
LINE
8
TOP_HID
6
HIDDEN
10
0.522592
20
0.059841
30
0.0
11
0.531379
21
0.056983
31
0.0
0
LINE
8
TOP_HID
6
HIDDEN
10
0.531379
20
0.056983
30
0.0
11
0.540200
21
0.054234
31
0.0
0
LINE
8
TOP_HID
6
HIDDEN
10
0.540200
20
0.054234
30
0.0
11
0.549055
21
0.051594
31
0.0
0
LINE
8
TOP_HID
6
HIDDEN
10
0.549055
20
0.051594
30
0.0
11
0.557942
21
0.049063
31
0.0
0
LINE
8
TOP_HID
6
HIDDEN
10
0.557942
20
0.049063
30
0.0
11
0.566859
21
0.046642
31
0.0
0
LINE
8
TOP_HID
6
HIDDEN
10
0.566859
20
0.046642
30
0.0
11
0.575805
21
0.044331
31
0.0
0
LINE
8
TOP_HID
6
HIDDEN
10
0.575805
20
0.044331
30
0.0
11
0.584779
21
0.042131
31
0.0
0
LINE
8
TOP_HID
6
HIDDEN
10
0.584779
20
0.042131
30
0.0
11
0.593780
21
0.040041
31
0.0
0
LINE
8
TOP_HID
6
HIDDEN
10
0.593780
20
0.040041
30
0.0
11
0.602805
21
0.038063
31
0.0
0
LINE
8
TOP_HID
6
HIDDEN
10
0.602805
20
0.038063
30
0.0
11
0.611855
21
0.036196
31
0.0
0
LINE
8
TOP_HID
6
HIDDEN
10
0.611855
20
0.036196
30
0.0
11
0.620926
21
0.034441
31
0.0
0
LINE
8
TOP_HID
6
HIDDEN
10
0.620926
20
0.034441
30
0.0
11
0.630019
21
0.032798
31
0.0
0
LINE
8
TOP_HID
6
HIDDEN
10
0.630019
20
0.032798
30
0.0
11
0.639131
21
0.031267
31
0.0
0
LINE
8
TOP_HID
6
HIDDEN
10
0.639131
20
0.031267
30
0.0
11
0.648261
21
0.029848
31
0.0
0
LINE
8
TOP_HID
6
HIDDEN
10
0.648261
20
0.029848
30
0.0
11
0.657409
21
0.028542
31
0.0
0
LINE
8
TOP_HID
6
HIDDEN
10
0.657409
20
0.028542
30
0.0
11
0.666571
21
0.027349
31
0.0
0
LINE
8
TOP_HID
6
HIDDEN
10
0.666571
20
0.027349
30
0.0
11
0.675748
21
0.026270
31
0.0
0
LINE
8
TOP_HID
6
HIDDEN
10
0.675748
20
0.026270
30
0.0
11
0.684937
21
0.025303
31
0.0
0
LINE
8
TOP_HID
6
HIDDEN
10
0.684937
20
0.025303
30
0.0
11
0.694137
21
0.024450
31
0.0
0
LINE
8
TOP_HID
6
HIDDEN
10
0.694137
20
0.024450
30
0.0
11
0.703348
21
0.023710
31
0.0
0
LINE
8
TOP_HID
6
HIDDEN
10
0.703348
20
0.023710
30
0.0
11
0.712566
21
0.023084
31
0.0
0
LINE
8
TOP_HID
6
HIDDEN
10
0.712566
20
0.023084
30
0.0
11
0.721792
21
0.022571
31
0.0
0
LINE
8
TOP_HID
6
HIDDEN
10
0.721792
20
0.022571
30
0.0
11
0.731023
21
0.022173
31
0.0
0
LINE
8
TOP_HID
6
HIDDEN
10
0.731023
20
0.022173
30
0.0
11
0.740259
21
0.021888
31
0.0
0
LINE
8
TOP_HID
6
HIDDEN
10
0.740259
20
0.021888
30
0.0
11
0.749497
21
0.021717
31
0.0
0
LINE
8
TOP_HID
6
HIDDEN
10
0.749497
20
0.021717
30
0.0
11
0.758737
21
0.021660
31
0.0
0
LINE
8
TOP_HID
6
HIDDEN
10
0.758737
20
0.021660
30
0.0
11
0.767685
21
0.021713
31
0.0
0
LINE
8
TOP_HID
6
HIDDEN
10
0.767685
20
0.021713
30
0.0
11
0.776632
21
0.021874
31
0.0
0
LINE
8
TOP_HID
6
HIDDEN
10
0.776632
20
0.021874
30
0.0
11
0.785576
21
0.022141
31
0.0
0
LINE
8
TOP_HID
6
HIDDEN
10
0.785576
20
0.022141
30
0.0
11
0.794516
21
0.022515
31
0.0
0
LINE
8
TOP_HID
6
HIDDEN
10
0.794516
20
0.022515
30
0.0
11
0.803451
21
0.022995
31
0.0
0
LINE
8
TOP_HID
6
HIDDEN
10
0.803451
20
0.022995
30
0.0
11
0.812380
21
0.023582
31
0.0
0
LINE
8
TOP_HID
6
HIDDEN
10
0.812380
20
0.023582
30
0.0
11
0.821301
21
0.024276
31
0.0
0
LINE
8
TOP_HID
6
HIDDEN
10
0.821301
20
0.024276
30
0.0
11
0.830213
21
0.025077
31
0.0
0
LINE
8
TOP_HID
6
HIDDEN
10
0.830213
20
0.025077
30
0.0
11
0.839115
21
0.025983
31
0.0
0
LINE
8
TOP_HID
6
HIDDEN
10
0.839115
20
0.025983
30
0.0
11
0.848006
21
0.026996
31
0.0
0
LINE
8
TOP_HID
6
HIDDEN
10
0.848006
20
0.026996
30
0.0
11
0.856884
21
0.028115
31
0.0
0
LINE
8
TOP_HID
6
HIDDEN
10
0.856884
20
0.028115
30
0.0
11
0.865748
21
0.029340
31
0.0
0
LINE
8
TOP_HID
6
HIDDEN
10
0.865748
20
0.029340
30
0.0
11
0.874596
21
0.030671
31
0.0
0
LINE
8
TOP_HID
6
HIDDEN
10
0.874596
20
0.030671
30
0.0
11
0.883429
21
0.032107
31
0.0
0
LINE
8
TOP_HID
6
HIDDEN
10
0.883429
20
0.032107
30
0.0
11
0.892243
21
0.033648
31
0.0
0
LINE
8
TOP_HID
6
HIDDEN
10
0.892243
20
0.033648
30
0.0
11
0.901038
21
0.035295
31
0.0
0
LINE
8
TOP_HID
6
HIDDEN
10
0.901038
20
0.035295
30
0.0
11
0.909813
21
0.037047
31
0.0
0
LINE
8
TOP_HID
6
HIDDEN
10
0.909813
20
0.037047
30
0.0
11
0.918567
21
0.038903
31
0.0
0
LINE
8
TOP_HID
6
HIDDEN
10
0.918567
20
0.038903
30
0.0
11
0.927297
21
0.040864
31
0.0
0
LINE
8
TOP_HID
6
HIDDEN
10
0.927297
20
0.040864
30
0.0
11
0.936004
21
0.042929
31
0.0
0
LINE
8
TOP_HID
6
HIDDEN
10
0.936004
20
0.042929
30
0.0
11
0.944685
21
0.045097
31
0.0
0
LINE
8
TOP_HID
6
HIDDEN
10
0.944685
20
0.045097
30
0.0
11
0.953340
21
0.047369
31
0.0
0
LINE
8
TOP_HID
6
HIDDEN
10
0.953340
20
0.047369
30
0.0
11
0.961967
21
0.049745
31
0.0
0
LINE
8
TOP_HID
6
HIDDEN
10
0.961967
20
0.049745
30
0.0
11
0.970565
21
0.052223
31
0.0
0
LINE
8
TOP_HID
6
HIDDEN
10
0.970565
20
0.052223
30
0.0
11
0.979133
21
0.054803
31
0.0
0
LINE
8
TOP_HID
6
HIDDEN
10
0.979133
20
0.054803
30
0.0
11
0.987670
21
0.057486
31
0.0
0
LINE
8
TOP_HID
6
HIDDEN
10
0.987670
20
0.057486
30
0.0
11
0.996173
21
0.060271
31
0.0
0
LINE
8
TOP_HID
6
HIDDEN
10
0.996173
20
0.060271
30
0.0
11
1.004643
21
0.063157
31
0.0
0
LINE
8
TOP_HID
6
HIDDEN
10
1.004643
20
0.063157
30
0.0
11
1.013078
21
0.066144
31
0.0
0
LINE
8
TOP_HID
6
HIDDEN
10
1.013078
20
0.066144
30
0.0
11
1.021477
21
0.069231
31
0.0
0
LINE
8
TOP_HID
6
HIDDEN
10
1.021477
20
0.069231
30
0.0
11
1.029838
21
0.072418
31
0.0
0
LINE
8
TOP_HID
6
HIDDEN
10
1.029838
20
0.072418
30
0.0
11
1.038161
21
0.075705
31
0.0
0
LINE
8
TOP_HID
6
HIDDEN
10
1.038161
20
0.075705
30
0.0
11
1.046443
21
0.079092
31
0.0
0
LINE
8
TOP_HID
6
HIDDEN
10
1.046443
20
0.079092
30
0.0
11
1.054685
21
0.082576
31
0.0
0
LINE
8
TOP_HID
6
HIDDEN
10
1.054685
20
0.082576
30
0.0
11
1.062884
21
0.086159
31
0.0
0
LINE
8
TOP_HID
6
HIDDEN
10
1.062884
20
0.086159
30
0.0
11
1.071040
21
0.089840
31
0.0
0
LINE
8
TOP_HID
6
HIDDEN
10
1.071040
20
0.089840
30
0.0
11
1.079152
21
0.093618
31
0.0
0
LINE
8
TOP_HID
6
HIDDEN
10
1.079152
20
0.093618
30
0.0
11
1.087218
21
0.097492
31
0.0
0
LINE
8
TOP_HID
6
HIDDEN
10
1.087218
20
0.097492
30
0.0
11
1.095237
21
0.101463
31
0.0
0
LINE
8
TOP_HID
6
HIDDEN
10
1.095237
20
0.101463
30
0.0
11
1.103208
21
0.105529
31
0.0
0
LINE
8
TOP_HID
6
HIDDEN
10
1.103208
20
0.105529
30
0.0
11
1.111129
21
0.109690
31
0.0
0
LINE
8
TOP_HID
6
HIDDEN
10
1.111129
20
0.109690
30
0.0
11
1.119001
21
0.113945
31
0.0
0
LINE
8
TOP_HID
6
HIDDEN
10
1.119001
20
0.113945
30
0.0
11
1.126821
21
0.118294
31
0.0
0
LINE
8
TOP_HID
6
HIDDEN
10
1.126821
20
0.118294
30
0.0
11
1.134589
21
0.122736
31
0.0
0
LINE
8
TOP_HID
6
HIDDEN
10
1.134589
20
0.122736
30
0.0
11
1.142303
21
0.127270
31
0.0
0
LINE
8
TOP_HID
6
HIDDEN
10
1.142303
20
0.127270
30
0.0
11
1.149962
21
0.131897
31
0.0
0
LINE
8
TOP_HID
6
HIDDEN
10
1.149962
20
0.131897
30
0.0
11
1.157566
21
0.136614
31
0.0
0
LINE
8
TOP_HID
6
HIDDEN
10
1.157566
20
0.136614
30
0.0
11
1.165113
21
0.141422
31
0.0
0
LINE
8
TOP_HID
6
HIDDEN
10
1.165113
20
0.141422
30
0.0
11
1.172601
21
0.146320
31
0.0
0
LINE
8
TOP_HID
6
HIDDEN
10
1.172601
20
0.146320
30
0.0
11
1.180031
21
0.151306
31
0.0
0
LINE
8
TOP_HID
6
HIDDEN
10
1.180031
20
0.151306
30
0.0
11
1.187401
21
0.156382
31
0.0
0
LINE
8
TOP_HID
6
HIDDEN
10
1.187401
20
0.156382
30
0.0
11
1.194709
21
0.161544
31
0.0
0
LINE
8
TOP_HID
6
HIDDEN
10
1.194709
20
0.161544
30
0.0
11
1.201955
21
0.166794
31
0.0
0
LINE
8
TOP_HID
6
HIDDEN
10
1.201955
20
0.166794
30
0.0
11
1.209139
21
0.172130
31
0.0
0
LINE
8
TOP_HID
6
HIDDEN
10
1.209139
20
0.172130
30
0.0
11
1.216257
21
0.177551
31
0.0
0
LINE
8
TOP_HID
6
HIDDEN
10
1.216257
20
0.177551
30
0.0
11
1.223311
21
0.183057
31
0.0
0
LINE
8
TOP_HID
6
HIDDEN
10
1.223311
20
0.183057
30
0.0
11
1.230298
21
0.188647
31
0.0
0
LINE
8
TOP_HID
6
HIDDEN
10
1.230298
20
0.188647
30
0.0
11
1.237218
21
0.194320
31
0.0
0
LINE
8
TOP_HID
6
HIDDEN
10
1.237218
20
0.194320
30
0.0
11
1.244070
21
0.200075
31
0.0
0
LINE
8
TOP_HID
6
HIDDEN
10
1.244070
20
0.200075
30
0.0
11
1.250853
21
0.205912
31
0.0
0
LINE
8
TOP_HID
6
HIDDEN
10
1.250853
20
0.205912
30
0.0
11
1.257565
21
0.211829
31
0.0
0
LINE
8
TOP_HID
6
HIDDEN
10
1.257565
20
0.211829
30
0.0
11
1.264206
21
0.217826
31
0.0
0
LINE
8
TOP_HID
6
HIDDEN
10
1.264206
20
0.217826
30
0.0
11
1.270775
21
0.223902
31
0.0
0
LINE
8
TOP_HID
6
HIDDEN
10
0.233433
20
0.236629
30
0.0
11
0.233433
21
1.304534
31
0.0
0
LINE
8
TOP_HID
6
HIDDEN
10
0.233433
20
1.304534
30
0.0
11
0.429578
21
1.104516
31
0.0
0
LINE
8
TOP_HID
6
HIDDEN
10
0.429578
20
1.104516
30
0.0
11
0.428136
21
1.103080
31
0.0
0
LINE
8
TOP_HID
6
HIDDEN
10
0.428136
20
1.103080
30
0.0
11
0.426700
21
1.101637
31
0.0
0
LINE
8
TOP_HID
6
HIDDEN
10
0.426700
20
1.101637
30
0.0
11
0.425270
21
1.100188
31
0.0
0
LINE
8
TOP_HID
6
HIDDEN
10
0.425270
20
1.100188
30
0.0
11
0.423846
21
1.098733
31
0.0
0
LINE
8
TOP_HID
6
HIDDEN
10
0.423846
20
1.098733
30
0.0
11
0.422429
21
1.097272
31
0.0
0
LINE
8
TOP_HID
6
HIDDEN
10
0.422429
20
1.097272
30
0.0
11
0.421018
21
1.095805
31
0.0
0
LINE
8
TOP_HID
6
HIDDEN
10
0.421018
20
1.095805
30
0.0
11
0.419613
21
1.094332
31
0.0
0
LINE
8
TOP_HID
6
HIDDEN
10
0.419613
20
1.094332
30
0.0
11
0.418215
21
1.092852
31
0.0
0
LINE
8
TOP_HID
6
HIDDEN
10
0.418215
20
1.092852
30
0.0
11
0.416823
21
1.091367
31
0.0
0
LINE
8
TOP_HID
6
HIDDEN
10
0.416823
20
1.091367
30
0.0
11
0.415437
21
1.089876
31
0.0
0
LINE
8
TOP_HID
6
HIDDEN
10
0.415437
20
1.089876
30
0.0
11
0.414058
21
1.088379
31
0.0
0
LINE
8
TOP_HID
6
HIDDEN
10
0.414058
20
1.088379
30
0.0
11
0.412686
21
1.086875
31
0.0
0
LINE
8
TOP_HID
6
HIDDEN
10
0.412686
20
1.086875
30
0.0
11
0.411319
21
1.085366
31
0.0
0
LINE
8
TOP_HID
6
HIDDEN
10
0.411319
20
1.085366
30
0.0
11
0.409960
21
1.083852
31
0.0
0
LINE
8
TOP_HID
6
HIDDEN
10
0.409960
20
1.083852
30
0.0
11
0.408606
21
1.082331
31
0.0
0
LINE
8
TOP_HID
6
HIDDEN
10
0.408606
20
1.082331
30
0.0
11
0.407260
21
1.080804
31
0.0
0
LINE
8
TOP_HID
6
HIDDEN
10
0.407260
20
1.080804
30
0.0
11
0.405920
21
1.079272
31
0.0
0
LINE
8
TOP_HID
6
HIDDEN
10
0.405920
20
1.079272
30
0.0
11
0.404586
21
1.077734
31
0.0
0
LINE
8
TOP_HID
6
HIDDEN
10
0.404586
20
1.077734
30
0.0
11
0.403259
21
1.076190
31
0.0
0
LINE
8
TOP_HID
6
HIDDEN
10
0.403259
20
1.076190
30
0.0
11
0.401939
21
1.074641
31
0.0
0
LINE
8
TOP_HID
6
HIDDEN
10
0.401939
20
1.074641
30
0.0
11
0.400625
21
1.073086
31
0.0
0
LINE
8
TOP_HID
6
HIDDEN
10
0.400625
20
1.073086
30
0.0
11
0.399319
21
1.071525
31
0.0
0
LINE
8
TOP_HID
6
HIDDEN
10
0.399319
20
1.071525
30
0.0
11
0.398019
21
1.069959
31
0.0
0
LINE
8
TOP_HID
6
HIDDEN
10
0.398019
20
1.069959
30
0.0
11
0.396725
21
1.068387
31
0.0
0
LINE
8
TOP_HID
6
HIDDEN
10
0.396725
20
1.068387
30
0.0
11
0.395439
21
1.066809
31
0.0
0
LINE
8
TOP_HID
6
HIDDEN
10
0.395439
20
1.066809
30
0.0
11
0.394159
21
1.065226
31
0.0
0
LINE
8
TOP_HID
6
HIDDEN
10
0.394159
20
1.065226
30
0.0
11
0.392886
21
1.063638
31
0.0
0
LINE
8
TOP_HID
6
HIDDEN
10
0.392886
20
1.063638
30
0.0
11
0.391620
21
1.062044
31
0.0
0
LINE
8
TOP_HID
6
HIDDEN
10
0.391620
20
1.062044
30
0.0
11
0.390360
21
1.060445
31
0.0
0
LINE
8
TOP_HID
6
HIDDEN
10
0.390360
20
1.060445
30
0.0
11
0.389108
21
1.058840
31
0.0
0
LINE
8
TOP_HID
6
HIDDEN
10
0.389108
20
1.058840
30
0.0
11
0.387862
21
1.057230
31
0.0
0
LINE
8
TOP_HID
6
HIDDEN
10
0.387862
20
1.057230
30
0.0
11
0.386624
21
1.055614
31
0.0
0
LINE
8
TOP_HID
6
HIDDEN
10
0.386624
20
1.055614
30
0.0
11
0.385392
21
1.053994
31
0.0
0
LINE
8
TOP_HID
6
HIDDEN
10
0.385392
20
1.053994
30
0.0
11
0.384168
21
1.052368
31
0.0
0
LINE
8
TOP_HID
6
HIDDEN
10
0.384168
20
1.052368
30
0.0
11
0.382950
21
1.050736
31
0.0
0
LINE
8
TOP_HID
6
HIDDEN
10
0.382950
20
1.050736
30
0.0
11
0.381739
21
1.049100
31
0.0
0
LINE
8
TOP_HID
6
HIDDEN
10
0.381739
20
1.049100
30
0.0
11
0.380536
21
1.047458
31
0.0
0
LINE
8
TOP_HID
6
HIDDEN
10
0.380536
20
1.047458
30
0.0
11
0.379339
21
1.045811
31
0.0
0
LINE
8
TOP_HID
6
HIDDEN
10
0.379339
20
1.045811
30
0.0
11
0.378150
21
1.044159
31
0.0
0
LINE
8
TOP_HID
6
HIDDEN
10
0.378150
20
1.044159
30
0.0
11
0.376968
21
1.042502
31
0.0
0
LINE
8
TOP_HID
6
HIDDEN
10
0.376968
20
1.042502
30
0.0
11
0.375793
21
1.040840
31
0.0
0
LINE
8
TOP_HID
6
HIDDEN
10
0.375793
20
1.040840
30
0.0
11
0.374625
21
1.039173
31
0.0
0
LINE
8
TOP_HID
6
HIDDEN
10
0.374625
20
1.039173
30
0.0
11
0.373464
21
1.037501
31
0.0
0
LINE
8
TOP_HID
6
HIDDEN
10
0.373464
20
1.037501
30
0.0
11
0.372310
21
1.035823
31
0.0
0
LINE
8
TOP_HID
6
HIDDEN
10
0.372310
20
1.035823
30
0.0
11
0.371164
21
1.034141
31
0.0
0
LINE
8
TOP_HID
6
HIDDEN
10
0.371164
20
1.034141
30
0.0
11
0.370025
21
1.032454
31
0.0
0
LINE
8
TOP_HID
6
HIDDEN
10
0.370025
20
1.032454
30
0.0
11
0.368893
21
1.030762
31
0.0
0
LINE
8
TOP_HID
6
HIDDEN
10
0.368893
20
1.030762
30
0.0
11
0.367768
21
1.029066
31
0.0
0
LINE
8
TOP_HID
6
HIDDEN
10
0.367768
20
1.029066
30
0.0
11
0.366651
21
1.027364
31
0.0
0
LINE
8
TOP_HID
6
HIDDEN
10
0.366651
20
1.027364
30
0.0
11
0.365541
21
1.025658
31
0.0
0
LINE
8
TOP_HID
6
HIDDEN
10
0.365541
20
1.025658
30
0.0
11
0.364439
21
1.023946
31
0.0
0
LINE
8
TOP_HID
6
HIDDEN
10
0.364439
20
1.023946
30
0.0
11
0.363343
21
1.022231
31
0.0
0
LINE
8
TOP_HID
6
HIDDEN
10
0.363343
20
1.022231
30
0.0
11
0.362256
21
1.020510
31
0.0
0
LINE
8
TOP_HID
6
HIDDEN
10
0.362256
20
1.020510
30
0.0
11
0.361175
21
1.018785
31
0.0
0
LINE
8
TOP_HID
6
HIDDEN
10
0.361175
20
1.018785
30
0.0
11
0.360102
21
1.017055
31
0.0
0
LINE
8
TOP_HID
6
HIDDEN
10
0.360102
20
1.017055
30
0.0
11
0.359037
21
1.015321
31
0.0
0
LINE
8
TOP_HID
6
HIDDEN
10
0.359037
20
1.015321
30
0.0
11
0.357979
21
1.013581
31
0.0
0
LINE
8
TOP_HID
6
HIDDEN
10
0.357979
20
1.013581
30
0.0
11
0.356928
21
1.011838
31
0.0
0
LINE
8
TOP_HID
6
HIDDEN
10
0.356928
20
1.011838
30
0.0
11
0.355885
21
1.010090
31
0.0
0
LINE
8
TOP_HID
6
HIDDEN
10
0.355885
20
1.010090
30
0.0
11
0.354849
21
1.008337
31
0.0
0
LINE
8
TOP_HID
6
HIDDEN
10
0.354849
20
1.008337
30
0.0
11
0.353821
21
1.006580
31
0.0
0
LINE
8
TOP_HID
6
HIDDEN
10
0.353821
20
1.006580
30
0.0
11
0.352801
21
1.004819
31
0.0
0
LINE
8
TOP_HID
6
HIDDEN
10
0.352801
20
1.004819
30
0.0
11
0.351788
21
1.003053
31
0.0
0
LINE
8
TOP_HID
6
HIDDEN
10
0.351788
20
1.003053
30
0.0
11
0.350564
21
1.001022
31
0.0
0
LINE
8
TOP_HID
6
HIDDEN
10
1.090467
20
0.421289
30
0.0
11
1.073563
21
0.407679
31
0.0
0
LINE
8
TOP_HID
6
HIDDEN
10
1.073563
20
0.407679
30
0.0
11
1.056659
21
0.394069
31
0.0
0
LINE
8
TOP_HID
6
HIDDEN
10
1.056659
20
0.394069
30
0.0
11
1.039755
21
0.380459
31
0.0
0
LINE
8
TOP_HID
6
HIDDEN
10
1.039755
20
0.380459
30
0.0
11
1.022851
21
0.366849
31
0.0
0
LINE
8
TOP_HID
6
HIDDEN
10
1.022851
20
0.366849
30
0.0
11
1.004731
21
0.355116
31
0.0
0
LINE
8
TOP_HID
6
HIDDEN
10
1.004731
20
0.355116
30
0.0
11
0.985395
21
0.345262
31
0.0
0
LINE
8
TOP_HID
6
HIDDEN
10
0.985395
20
0.345262
30
0.0
11
0.966060
21
0.335408
31
0.0
0
LINE
8
TOP_HID
6
HIDDEN
10
0.966060
20
0.335408
30
0.0
11
0.946724
21
0.325554
31
0.0
0
LINE
8
TOP_HID
6
HIDDEN
10
0.946724
20
0.325554
30
0.0
11
0.927388
21
0.315699
31
0.0
0
LINE
8
TOP_HID
6
HIDDEN
10
0.927388
20
0.315699
30
0.0
11
0.906443
21
0.310020
31
0.0
0
LINE
8
TOP_HID
6
HIDDEN
10
0.906443
20
0.310020
30
0.0
11
0.885497
21
0.304340
31
0.0
0
LINE
8
TOP_HID
6
HIDDEN
10
0.885497
20
0.304340
30
0.0
11
0.864552
21
0.298660
31
0.0
0
LINE
8
TOP_HID
6
HIDDEN
10
0.864552
20
0.298660
30
0.0
11
0.843606
21
0.292981
31
0.0
0
LINE
8
TOP_HID
6
HIDDEN
10
0.843606
20
0.292981
30
0.0
11
0.822301
21
0.289509
31
0.0
0
LINE
8
TOP_HID
6
HIDDEN
10
0.822301
20
0.289509
30
0.0
11
0.800635
21
0.288246
31
0.0
0
LINE
8
TOP_HID
6
HIDDEN
10
0.800635
20
0.288246
30
0.0
11
0.778970
21
0.286982
31
0.0
0
LINE
8
TOP_HID
6
HIDDEN
10
0.778970
20
0.286982
30
0.0
11
0.757305
21
0.285718
31
0.0
0
LINE
8
TOP_HID
6
HIDDEN
10
0.757305
20
0.285718
30
0.0
11
0.735640
21
0.284455
31
0.0
0
LINE
8
TOP_HID
6
HIDDEN
10
0.735640
20
0.284455
30
0.0
11
0.714176
21
0.287661
31
0.0
0
LINE
8
TOP_HID
6
HIDDEN
10
0.714176
20
0.287661
30
0.0
11
0.692712
21
0.290867
31
0.0
0
LINE
8
TOP_HID
6
HIDDEN
10
0.692712
20
0.290867
30
0.0
11
0.671249
21
0.294073
31
0.0
0
LINE
8
TOP_HID
6
HIDDEN
10
0.671249
20
0.294073
30
0.0
11
0.649785
21
0.297279
31
0.0
0
LINE
8
TOP_HID
6
HIDDEN
10
0.649785
20
0.297279
30
0.0
11
0.628878
21
0.302652
31
0.0
0
LINE
8
TOP_HID
6
HIDDEN
10
0.628878
20
0.302652
30
0.0
11
0.608527
21
0.310191
31
0.0
0
LINE
8
TOP_HID
6
HIDDEN
10
0.608527
20
0.310191
30
0.0
11
0.588177
21
0.317731
31
0.0
0
LINE
8
TOP_HID
6
HIDDEN
10
0.588177
20
0.317731
30
0.0
11
0.567827
21
0.325271
31
0.0
0
LINE
8
TOP_HID
6
HIDDEN
10
0.567827
20
0.325271
30
0.0
11
0.547477
21
0.332810
31
0.0
0
LINE
8
TOP_HID
6
HIDDEN
10
0.547477
20
0.332810
30
0.0
11
0.529105
21
0.344363
31
0.0
0
LINE
8
TOP_HID
6
HIDDEN
10
0.529105
20
0.344363
30
0.0
11
0.510734
21
0.355915
31
0.0
0
LINE
8
TOP_HID
6
HIDDEN
10
0.510734
20
0.355915
30
0.0
11
0.492362
21
0.367468
31
0.0
0
LINE
8
TOP_HID
6
HIDDEN
10
0.492362
20
0.367468
30
0.0
11
0.473991
21
0.379020
31
0.0
0
LINE
8
TOP_HID
6
HIDDEN
10
0.473991
20
0.379020
30
0.0
11
0.456999
21
0.392334
31
0.0
0
LINE
8
TOP_HID
6
HIDDEN
10
0.456999
20
0.392334
30
0.0
11
0.441387
21
0.407408
31
0.0
0
LINE
8
TOP_HID
6
HIDDEN
10
0.441387
20
0.407408
30
0.0
11
0.425775
21
0.422483
31
0.0
0
LINE
8
TOP_HID
6
HIDDEN
10
0.425775
20
0.422483
30
0.0
11
0.410163
21
0.437557
31
0.0
0
LINE
8
TOP_HID
6
HIDDEN
10
0.410163
20
0.437557
30
0.0
11
0.394551
21
0.452632
31
0.0
0
LINE
8
TOP_HID
6
HIDDEN
10
0.394551
20
0.452632
30
0.0
11
0.382362
21
0.470588
31
0.0
0
LINE
8
TOP_HID
6
HIDDEN
10
0.382362
20
0.470588
30
0.0
11
0.370173
21
0.488543
31
0.0
0
LINE
8
TOP_HID
6
HIDDEN
10
0.370173
20
0.488543
30
0.0
11
0.357984
21
0.506499
31
0.0
0
LINE
8
TOP_HID
6
HIDDEN
10
0.357984
20
0.506499
30
0.0
11
0.345795
21
0.524455
31
0.0
0
LINE
8
TOP_HID
6
HIDDEN
10
0.345795
20
0.524455
30
0.0
11
0.335577
21
0.543469
31
0.0
0
LINE
8
TOP_HID
6
HIDDEN
10
0.335577
20
0.543469
30
0.0
11
0.327329
21
0.563543
31
0.0
0
LINE
8
TOP_HID
6
HIDDEN
10
0.327329
20
0.563543
30
0.0
11
0.319082
21
0.583616
31
0.0
0
LINE
8
TOP_HID
6
HIDDEN
10
0.319082
20
0.583616
30
0.0
11
0.310834
21
0.603690
31
0.0
0
LINE
8
TOP_HID
6
HIDDEN
10
0.310834
20
0.603690
30
0.0
11
0.302586
21
0.623764
31
0.0
0
LINE
8
TOP_HID
6
HIDDEN
10
0.302586
20
0.623764
30
0.0
11
0.298630
21
0.645102
31
0.0
0
LINE
8
TOP_HID
6
HIDDEN
10
0.298630
20
0.645102
30
0.0
11
0.294675
21
0.666441
31
0.0
0
LINE
8
TOP_HID
6
HIDDEN
10
0.294675
20
0.666441
30
0.0
11
0.290719
21
0.687779
31
0.0
0
LINE
8
TOP_HID
6
HIDDEN
10
0.290719
20
0.687779
30
0.0
11
0.286763
21
0.709117
31
0.0
0
LINE
8
TOP_HID
6
HIDDEN
10
0.286763
20
0.709117
30
0.0
11
0.285037
21
0.730635
31
0.0
0
LINE
8
TOP_HID
6
HIDDEN
10
0.285037
20
0.730635
30
0.0
11
0.285541
21
0.752331
31
0.0
0
LINE
8
TOP_HID
6
HIDDEN
10
0.285541
20
0.752331
30
0.0
11
0.286045
21
0.774027
31
0.0
0
LINE
8
TOP_HID
6
HIDDEN
10
0.286045
20
0.774027
30
0.0
11
0.286549
21
0.795723
31
0.0
0
LINE
8
TOP_HID
6
HIDDEN
10
0.286549
20
0.795723
30
0.0
11
0.287053
21
0.817419
31
0.0
0
LINE
8
TOP_HID
6
HIDDEN
10
0.287053
20
0.817419
30
0.0
11
0.291996
21
0.838551
31
0.0
0
LINE
8
TOP_HID
6
HIDDEN
10
0.291996
20
0.838551
30
0.0
11
0.296938
21
0.859682
31
0.0
0
LINE
8
TOP_HID
6
HIDDEN
10
0.296938
20
0.859682
30
0.0
11
0.301881
21
0.880814
31
0.0
0
LINE
8
TOP_HID
6
HIDDEN
10
0.301881
20
0.880814
30
0.0
11
0.306823
21
0.901946
31
0.0
0
LINE
8
TOP_HID
6
HIDDEN
10
0.306823
20
0.901946
30
0.0
11
0.313880
21
0.922346
31
0.0
0
LINE
8
TOP_HID
6
HIDDEN
10
0.313880
20
0.922346
30
0.0
11
0.323051
21
0.942015
31
0.0
0
LINE
8
TOP_HID
6
HIDDEN
10
0.323051
20
0.942015
30
0.0
11
0.332222
21
0.961684
31
0.0
0
LINE
8
TOP_HID
6
HIDDEN
10
0.332222
20
0.961684
30
0.0
11
0.341393
21
0.981353
31
0.0
0
LINE
8
TOP_HID
6
HIDDEN
10
0.341393
20
0.981353
30
0.0
11
0.350564
21
1.001022
31
0.0
0
LINE
8
TOP_HID
6
HIDDEN
10
1.090738
20
0.421558
30
0.0
11
1.090467
21
0.421289
31
0.0
0
LINE
8
TOP_HID
6
HIDDEN
10
0.429578
20
1.104516
30
0.0
11
0.434359
21
1.104516
31
0.0
0
LINE
8
TOP_HID
6
HIDDEN
10
0.768921
20
0.295043
30
0.0
11
0.775057
21
0.295003
31
0.0
0
LINE
8
TOP_HID
6
HIDDEN
10
0.775057
20
0.295003
30
0.0
11
0.780743
21
0.295037
31
0.0
0
LINE
8
TOP_HID
6
HIDDEN
10
0.780743
20
0.295037
30
0.0
11
0.786428
21
0.295140
31
0.0
0
LINE
8
TOP_HID
6
HIDDEN
10
0.786428
20
0.295140
30
0.0
11
0.792112
21
0.295310
31
0.0
0
LINE
8
TOP_HID
6
HIDDEN
10
0.792112
20
0.295310
30
0.0
11
0.797793
21
0.295550
31
0.0
0
LINE
8
TOP_HID
6
HIDDEN
10
0.797793
20
0.295550
30
0.0
11
0.803471
21
0.295857
31
0.0
0
LINE
8
TOP_HID
6
HIDDEN
10
0.803471
20
0.295857
30
0.0
11
0.809145
21
0.296232
31
0.0
0
LINE
8
TOP_HID
6
HIDDEN
10
0.809145
20
0.296232
30
0.0
11
0.814814
21
0.296676
31
0.0
0
LINE
8
TOP_HID
6
HIDDEN
10
0.814814
20
0.296676
30
0.0
11
0.820477
21
0.297188
31
0.0
0
LINE
8
TOP_HID
6
HIDDEN
10
0.820477
20
0.297188
30
0.0
11
0.826133
21
0.297768
31
0.0
0
LINE
8
TOP_HID
6
HIDDEN
10
0.826133
20
0.297768
30
0.0
11
0.831782
21
0.298416
31
0.0
0
LINE
8
TOP_HID
6
HIDDEN
10
0.831782
20
0.298416
30
0.0
11
0.837423
21
0.299131
31
0.0
0
LINE
8
TOP_HID
6
HIDDEN
10
0.837423
20
0.299131
30
0.0
11
0.843055
21
0.299915
31
0.0
0
LINE
8
TOP_HID
6
HIDDEN
10
0.843055
20
0.299915
30
0.0
11
0.848678
21
0.300766
31
0.0
0
LINE
8
TOP_HID
6
HIDDEN
10
0.848678
20
0.300766
30
0.0
11
0.854289
21
0.301684
31
0.0
0
LINE
8
TOP_HID
6
HIDDEN
10
0.854289
20
0.301684
30
0.0
11
0.859889
21
0.302670
31
0.0
0
LINE
8
TOP_HID
6
HIDDEN
10
0.859889
20
0.302670
30
0.0
11
0.865477
21
0.303723
31
0.0
0
LINE
8
TOP_HID
6
HIDDEN
10
0.865477
20
0.303723
30
0.0
11
0.871052
21
0.304843
31
0.0
0
LINE
8
TOP_HID
6
HIDDEN
10
0.871052
20
0.304843
30
0.0
11
0.876613
21
0.306031
31
0.0
0
LINE
8
TOP_HID
6
HIDDEN
10
0.876613
20
0.306031
30
0.0
11
0.882159
21
0.307284
31
0.0
0
LINE
8
TOP_HID
6
HIDDEN
10
0.882159
20
0.307284
30
0.0
11
0.887690
21
0.308605
31
0.0
0
LINE
8
TOP_HID
6
HIDDEN
10
0.887690
20
0.308605
30
0.0
11
0.893204
21
0.309992
31
0.0
0
LINE
8
TOP_HID
6
HIDDEN
10
0.893204
20
0.309992
30
0.0
11
0.898702
21
0.311444
31
0.0
0
LINE
8
TOP_HID
6
HIDDEN
10
0.898702
20
0.311444
30
0.0
11
0.904181
21
0.312963
31
0.0
0
LINE
8
TOP_HID
6
HIDDEN
10
0.904181
20
0.312963
30
0.0
11
0.909642
21
0.314548
31
0.0
0
LINE
8
TOP_HID
6
HIDDEN
10
0.909642
20
0.314548
30
0.0
11
0.915084
21
0.316198
31
0.0
0
LINE
8
TOP_HID
6
HIDDEN
10
0.915084
20
0.316198
30
0.0
11
0.920505
21
0.317914
31
0.0
0
LINE
8
TOP_HID
6
HIDDEN
10
0.920505
20
0.317914
30
0.0
11
0.925905
21
0.319694
31
0.0
0
LINE
8
TOP_HID
6
HIDDEN
10
0.925905
20
0.319694
30
0.0
11
0.931284
21
0.321539
31
0.0
0
LINE
8
TOP_HID
6
HIDDEN
10
0.931284
20
0.321539
30
0.0
11
0.936640
21
0.323449
31
0.0
0
LINE
8
TOP_HID
6
HIDDEN
10
0.936640
20
0.323449
30
0.0
11
0.941972
21
0.325423
31
0.0
0
LINE
8
TOP_HID
6
HIDDEN
10
0.941972
20
0.325423
30
0.0
11
0.947281
21
0.327461
31
0.0
0
LINE
8
TOP_HID
6
HIDDEN
10
0.947281
20
0.327461
30
0.0
11
0.952564
21
0.329562
31
0.0
0
LINE
8
TOP_HID
6
HIDDEN
10
0.952564
20
0.329562
30
0.0
11
0.957822
21
0.331727
31
0.0
0
LINE
8
TOP_HID
6
HIDDEN
10
0.957822
20
0.331727
30
0.0
11
0.963054
21
0.333955
31
0.0
0
LINE
8
TOP_HID
6
HIDDEN
10
0.963054
20
0.333955
30
0.0
11
0.968259
21
0.336245
31
0.0
0
LINE
8
TOP_HID
6
HIDDEN
10
0.968259
20
0.336245
30
0.0
11
0.973435
21
0.338598
31
0.0
0
LINE
8
TOP_HID
6
HIDDEN
10
0.973435
20
0.338598
30
0.0
11
0.978583
21
0.341013
31
0.0
0
LINE
8
TOP_HID
6
HIDDEN
10
0.978583
20
0.341013
30
0.0
11
0.983701
21
0.343490
31
0.0
0
LINE
8
TOP_HID
6
HIDDEN
10
0.983701
20
0.343490
30
0.0
11
0.988790
21
0.346028
31
0.0
0
LINE
8
TOP_HID
6
HIDDEN
10
0.988790
20
0.346028
30
0.0
11
0.993847
21
0.348627
31
0.0
0
LINE
8
TOP_HID
6
HIDDEN
10
0.993847
20
0.348627
30
0.0
11
0.998873
21
0.351286
31
0.0
0
LINE
8
TOP_HID
6
HIDDEN
10
0.998873
20
0.351286
30
0.0
11
1.003867
21
0.354006
31
0.0
0
LINE
8
TOP_HID
6
HIDDEN
10
1.003867
20
0.354006
30
0.0
11
1.008828
21
0.356786
31
0.0
0
LINE
8
TOP_HID
6
HIDDEN
10
1.008828
20
0.356786
30
0.0
11
1.013754
21
0.359625
31
0.0
0
LINE
8
TOP_HID
6
HIDDEN
10
1.013754
20
0.359625
30
0.0
11
1.018647
21
0.362523
31
0.0
0
LINE
8
TOP_HID
6
HIDDEN
10
1.018647
20
0.362523
30
0.0
11
1.023504
21
0.365479
31
0.0
0
LINE
8
TOP_HID
6
HIDDEN
10
1.023504
20
0.365479
30
0.0
11
1.028325
21
0.368494
31
0.0
0
LINE
8
TOP_HID
6
HIDDEN
10
1.028325
20
0.368494
30
0.0
11
1.033110
21
0.371566
31
0.0
0
LINE
8
TOP_HID
6
HIDDEN
10
1.033110
20
0.371566
30
0.0
11
1.037857
21
0.374696
31
0.0
0
LINE
8
TOP_HID
6
HIDDEN
10
1.037857
20
0.374696
30
0.0
11
1.042567
21
0.377882
31
0.0
0
LINE
8
TOP_HID
6
HIDDEN
10
1.042567
20
0.377882
30
0.0
11
1.047238
21
0.381125
31
0.0
0
LINE
8
TOP_HID
6
HIDDEN
10
1.047238
20
0.381125
30
0.0
11
1.051869
21
0.384423
31
0.0
0
LINE
8
TOP_HID
6
HIDDEN
10
1.051869
20
0.384423
30
0.0
11
1.056461
21
0.387777
31
0.0
0
LINE
8
TOP_HID
6
HIDDEN
10
1.056461
20
0.387777
30
0.0
11
1.061012
21
0.391186
31
0.0
0
LINE
8
TOP_HID
6
HIDDEN
10
1.061012
20
0.391186
30
0.0
11
1.065522
21
0.394650
31
0.0
0
LINE
8
TOP_HID
6
HIDDEN
10
1.065522
20
0.394650
30
0.0
11
1.069990
21
0.398167
31
0.0
0
LINE
8
TOP_HID
6
HIDDEN
10
1.069990
20
0.398167
30
0.0
11
1.074415
21
0.401738
31
0.0
0
LINE
8
TOP_HID
6
HIDDEN
10
1.074415
20
0.401738
30
0.0
11
1.078797
21
0.405362
31
0.0
0
LINE
8
TOP_HID
6
HIDDEN
10
1.078797
20
0.405362
30
0.0
11
1.083135
21
0.409038
31
0.0
0
LINE
8
TOP_HID
6
HIDDEN
10
1.083135
20
0.409038
30
0.0
11
1.087429
21
0.412766
31
0.0
0
LINE
8
TOP_HID
6
HIDDEN
10
1.087429
20
0.412766
30
0.0
11
1.091677
21
0.416545
31
0.0
0
LINE
8
TOP_HID
6
HIDDEN
10
1.091677
20
0.416545
30
0.0
11
1.095880
21
0.420375
31
0.0
0
LINE
8
TOP_HID
6
HIDDEN
10
1.095880
20
0.420375
30
0.0
11
1.100037
21
0.424255
31
0.0
0
LINE
8
TOP_HID
6
HIDDEN
10
1.093432
20
0.424255
30
0.0
11
1.100037
21
0.424255
31
0.0
0
LINE
8
TOP_HID
6
HIDDEN
10
0.233433
20
1.304534
30
0.0
11
0.245703
21
1.304534
31
0.0
0
LINE
8
TOP_HID
6
HIDDEN
10
0.245703
20
1.304534
30
0.0
11
0.438236
21
1.108082
31
0.0
0
LINE
8
TOP_HID
6
HIDDEN
10
0.233433
20
0.236629
30
0.0
11
0.220150
21
0.250031
31
0.0
0
LINE
8
TOP_HID
6
HIDDEN
10
0.220150
20
0.250031
30
0.0
11
0.207208
21
0.263763
31
0.0
0
LINE
8
TOP_HID
6
HIDDEN
10
0.207208
20
0.263763
30
0.0
11
0.194617
21
0.277816
31
0.0
0
LINE
8
TOP_HID
6
HIDDEN
10
0.194617
20
0.277816
30
0.0
11
0.182384
21
0.292183
31
0.0
0
LINE
8
TOP_HID
6
HIDDEN
10
0.182384
20
0.292183
30
0.0
11
0.170517
21
0.306853
31
0.0
0
LINE
8
TOP_HID
6
HIDDEN
10
0.170517
20
0.306853
30
0.0
11
0.159023
21
0.321818
31
0.0
0
LINE
8
TOP_HID
6
HIDDEN
10
0.159023
20
0.321818
30
0.0
11
0.147909
21
0.337067
31
0.0
0
LINE
8
TOP_HID
6
HIDDEN
10
0.147909
20
0.337067
30
0.0
11
0.137184
21
0.352591
31
0.0
0
LINE
8
TOP_HID
6
HIDDEN
10
0.137184
20
0.352591
30
0.0
11
0.126853
21
0.368381
31
0.0
0
LINE
8
TOP_HID
6
HIDDEN
10
0.126853
20
0.368381
30
0.0
11
0.116923
21
0.384426
31
0.0
0
LINE
8
TOP_HID
6
HIDDEN
10
0.116923
20
0.384426
30
0.0
11
0.107400
21
0.400716
31
0.0
0
LINE
8
TOP_HID
6
HIDDEN
10
0.107400
20
0.400716
30
0.0
11
0.098291
21
0.417241
31
0.0
0
LINE
8
TOP_HID
6
HIDDEN
10
0.098291
20
0.417241
30
0.0
11
0.089601
21
0.433990
31
0.0
0
LINE
8
TOP_HID
6
HIDDEN
10
0.089601
20
0.433990
30
0.0
11
0.081335
21
0.450953
31
0.0
0
LINE
8
TOP_HID
6
HIDDEN
10
0.081335
20
0.450953
30
0.0
11
0.073500
21
0.468118
31
0.0
0
LINE
8
TOP_HID
6
HIDDEN
10
0.073500
20
0.468118
30
0.0
11
0.066099
21
0.485475
31
0.0
0
LINE
8
TOP_HID
6
HIDDEN
10
0.066099
20
0.485475
30
0.0
11
0.059138
21
0.503014
31
0.0
0
LINE
8
TOP_HID
6
HIDDEN
10
0.059138
20
0.503014
30
0.0
11
0.052621
21
0.520722
31
0.0
0
LINE
8
TOP_HID
6
HIDDEN
10
0.052621
20
0.520722
30
0.0
11
0.046552
21
0.538588
31
0.0
0
LINE
8
TOP_HID
6
HIDDEN
10
0.046552
20
0.538588
30
0.0
11
0.040935
21
0.556602
31
0.0
0
LINE
8
TOP_HID
6
HIDDEN
10
0.040935
20
0.556602
30
0.0
11
0.035773
21
0.574751
31
0.0
0
LINE
8
TOP_HID
6
HIDDEN
10
0.035773
20
0.574751
30
0.0
11
0.031070
21
0.593025
31
0.0
0
LINE
8
TOP_HID
6
HIDDEN
10
0.031070
20
0.593025
30
0.0
11
0.026829
21
0.611412
31
0.0
0
LINE
8
TOP_HID
6
HIDDEN
10
0.026829
20
0.611412
30
0.0
11
0.023053
21
0.629899
31
0.0
0
LINE
8
TOP_HID
6
HIDDEN
10
0.023053
20
0.629899
30
0.0
11
0.019743
21
0.648476
31
0.0
0
LINE
8
TOP_HID
6
HIDDEN
10
0.019743
20
0.648476
30
0.0
11
0.016902
21
0.667130
31
0.0
0
LINE
8
TOP_HID
6
HIDDEN
10
0.016902
20
0.667130
30
0.0
11
0.014532
21
0.685850
31
0.0
0
LINE
8
TOP_HID
6
HIDDEN
10
0.014532
20
0.685850
30
0.0
11
0.012634
21
0.704623
31
0.0
0
LINE
8
TOP_HID
6
HIDDEN
10
0.012634
20
0.704623
30
0.0
11
0.011209
21
0.723438
31
0.0
0
LINE
8
TOP_HID
6
HIDDEN
10
0.011209
20
0.723438
30
0.0
11
0.010259
21
0.742284
31
0.0
0
LINE
8
TOP_HID
6
HIDDEN
10
0.010259
20
0.742284
30
0.0
11
0.009784
21
0.761147
31
0.0
0
LINE
8
TOP_HID
6
HIDDEN
10
0.009784
20
0.761147
30
0.0
11
0.009784
21
0.780016
31
0.0
0
LINE
8
TOP_HID
6
HIDDEN
10
0.009784
20
0.780016
30
0.0
11
0.010259
21
0.798879
31
0.0
0
LINE
8
TOP_HID
6
HIDDEN
10
0.010259
20
0.798879
30
0.0
11
0.011209
21
0.817725
31
0.0
0
LINE
8
TOP_HID
6
HIDDEN
10
0.011209
20
0.817725
30
0.0
11
0.012634
21
0.836540
31
0.0
0
LINE
8
TOP_HID
6
HIDDEN
10
0.012634
20
0.836540
30
0.0
11
0.014532
21
0.855314
31
0.0
0
LINE
8
TOP_HID
6
HIDDEN
10
0.014532
20
0.855314
30
0.0
11
0.016902
21
0.874033
31
0.0
0
LINE
8
TOP_HID
6
HIDDEN
10
0.016902
20
0.874033
30
0.0
11
0.019743
21
0.892687
31
0.0
0
LINE
8
TOP_HID
6
HIDDEN
10
0.019743
20
0.892687
30
0.0
11
0.023053
21
0.911264
31
0.0
0
LINE
8
TOP_HID
6
HIDDEN
10
0.023053
20
0.911264
30
0.0
11
0.026829
21
0.929752
31
0.0
0
LINE
8
TOP_HID
6
HIDDEN
10
0.026829
20
0.929752
30
0.0
11
0.031070
21
0.948138
31
0.0
0
LINE
8
TOP_HID
6
HIDDEN
10
0.031070
20
0.948138
30
0.0
11
0.035773
21
0.966412
31
0.0
0
LINE
8
TOP_HID
6
HIDDEN
10
0.035773
20
0.966412
30
0.0
11
0.040935
21
0.984561
31
0.0
0
LINE
8
TOP_HID
6
HIDDEN
10
0.040935
20
0.984561
30
0.0
11
0.046552
21
1.002575
31
0.0
0
LINE
8
TOP_HID
6
HIDDEN
10
0.046552
20
1.002575
30
0.0
11
0.052621
21
1.020442
31
0.0
0
LINE
8
TOP_HID
6
HIDDEN
10
0.052621
20
1.020442
30
0.0
11
0.059138
21
1.038150
31
0.0
0
LINE
8
TOP_HID
6
HIDDEN
10
0.059138
20
1.038150
30
0.0
11
0.066099
21
1.055688
31
0.0
0
LINE
8
TOP_HID
6
HIDDEN
10
0.066099
20
1.055688
30
0.0
11
0.073500
21
1.073045
31
0.0
0
LINE
8
TOP_HID
6
HIDDEN
10
0.073500
20
1.073045
30
0.0
11
0.081335
21
1.090211
31
0.0
0
LINE
8
TOP_HID
6
HIDDEN
10
0.081335
20
1.090211
30
0.0
11
0.089601
21
1.107173
31
0.0
0
LINE
8
TOP_HID
6
HIDDEN
10
0.089601
20
1.107173
30
0.0
11
0.098291
21
1.123922
31
0.0
0
LINE
8
TOP_HID
6
HIDDEN
10
0.098291
20
1.123922
30
0.0
11
0.107400
21
1.140447
31
0.0
0
LINE
8
TOP_HID
6
HIDDEN
10
0.107400
20
1.140447
30
0.0
11
0.116923
21
1.156737
31
0.0
0
LINE
8
TOP_HID
6
HIDDEN
10
0.116923
20
1.156737
30
0.0
11
0.126853
21
1.172782
31
0.0
0
LINE
8
TOP_HID
6
HIDDEN
10
0.126853
20
1.172782
30
0.0
11
0.137184
21
1.188572
31
0.0
0
LINE
8
TOP_HID
6
HIDDEN
10
0.137184
20
1.188572
30
0.0
11
0.147909
21
1.204096
31
0.0
0
LINE
8
TOP_HID
6
HIDDEN
10
0.147909
20
1.204096
30
0.0
11
0.159023
21
1.219346
31
0.0
0
LINE
8
TOP_HID
6
HIDDEN
10
0.159023
20
1.219346
30
0.0
11
0.170517
21
1.234310
31
0.0
0
LINE
8
TOP_HID
6
HIDDEN
10
0.170517
20
1.234310
30
0.0
11
0.182384
21
1.248980
31
0.0
0
LINE
8
TOP_HID
6
HIDDEN
10
0.182384
20
1.248980
30
0.0
11
0.194617
21
1.263347
31
0.0
0
LINE
8
TOP_HID
6
HIDDEN
10
0.194617
20
1.263347
30
0.0
11
0.207208
21
1.277401
31
0.0
0
LINE
8
TOP_HID
6
HIDDEN
10
0.207208
20
1.277401
30
0.0
11
0.220150
21
1.291133
31
0.0
0
LINE
8
TOP_HID
6
HIDDEN
10
0.220150
20
1.291133
30
0.0
11
0.233433
21
1.304534
31
0.0
0
LINE
8
TOP_HID
6
HIDDEN
10
1.282421
20
0.223902
30
0.0
11
1.275857
21
0.217827
31
0.0
0
LINE
8
TOP_HID
6
HIDDEN
10
1.275857
20
0.217827
30
0.0
11
1.269221
21
0.211831
31
0.0
0
LINE
8
TOP_HID
6
HIDDEN
10
1.269221
20
0.211831
30
0.0
11
1.262514
21
0.205915
31
0.0
0
LINE
8
TOP_HID
6
HIDDEN
10
1.262514
20
0.205915
30
0.0
11
1.255736
21
0.200079
31
0.0
0
LINE
8
TOP_HID
6
HIDDEN
10
1.255736
20
0.200079
30
0.0
11
1.248890
21
0.194325
31
0.0
0
LINE
8
TOP_HID
6
HIDDEN
10
1.248890
20
0.194325
30
0.0
11
1.241975
21
0.188653
31
0.0
0
LINE
8
TOP_HID
6
HIDDEN
10
1.241975
20
0.188653
30
0.0
11
1.234993
21
0.183064
31
0.0
0
LINE
8
TOP_HID
6
HIDDEN
10
1.234993
20
0.183064
30
0.0
11
1.227945
21
0.177558
31
0.0
0
LINE
8
TOP_HID
6
HIDDEN
10
1.227945
20
0.177558
30
0.0
11
1.220831
21
0.172137
31
0.0
0
LINE
8
TOP_HID
6
HIDDEN
10
1.220831
20
0.172137
30
0.0
11
1.213653
21
0.166802
31
0.0
0
LINE
8
TOP_HID
6
HIDDEN
10
1.213653
20
0.166802
30
0.0
11
1.206412
21
0.161553
31
0.0
0
LINE
8
TOP_HID
6
HIDDEN
10
1.206412
20
0.161553
30
0.0
11
1.199109
21
0.156390
31
0.0
0
LINE
8
TOP_HID
6
HIDDEN
10
1.199109
20
0.156390
30
0.0
11
1.191744
21
0.151315
31
0.0
0
LINE
8
TOP_HID
6
HIDDEN
10
1.191744
20
0.151315
30
0.0
11
1.184320
21
0.146329
31
0.0
0
LINE
8
TOP_HID
6
HIDDEN
10
1.184320
20
0.146329
30
0.0
11
1.176836
21
0.141431
31
0.0
0
LINE
8
TOP_HID
6
HIDDEN
10
1.176836
20
0.141431
30
0.0
11
1.169295
21
0.136624
31
0.0
0
LINE
8
TOP_HID
6
HIDDEN
10
1.169295
20
0.136624
30
0.0
11
1.161697
21
0.131906
31
0.0
0
LINE
8
TOP_HID
6
HIDDEN
10
1.161697
20
0.131906
30
0.0
11
1.154042
21
0.127280
31
0.0
0
LINE
8
TOP_HID
6
HIDDEN
10
1.154042
20
0.127280
30
0.0
11
1.146333
21
0.122746
31
0.0
0
LINE
8
TOP_HID
6
HIDDEN
10
1.146333
20
0.122746
30
0.0
11
1.138571
21
0.118304
31
0.0
0
LINE
8
TOP_HID
6
HIDDEN
10
1.138571
20
0.118304
30
0.0
11
1.130756
21
0.113955
31
0.0
0
LINE
8
TOP_HID
6
HIDDEN
10
1.130756
20
0.113955
30
0.0
11
1.122889
21
0.109699
31
0.0
0
LINE
8
TOP_HID
6
HIDDEN
10
1.122889
20
0.109699
30
0.0
11
1.114973
21
0.105538
31
0.0
0
LINE
8
TOP_HID
6
HIDDEN
10
1.114973
20
0.105538
30
0.0
11
1.107007
21
0.101472
31
0.0
0
LINE
8
TOP_HID
6
HIDDEN
10
1.107007
20
0.101472
30
0.0
11
1.098993
21
0.097502
31
0.0
0
LINE
8
TOP_HID
6
HIDDEN
10
1.098993
20
0.097502
30
0.0
11
1.090932
21
0.093627
31
0.0
0
LINE
8
TOP_HID
6
HIDDEN
10
1.090932
20
0.093627
30
0.0
11
1.082826
21
0.089849
31
0.0
0
LINE
8
TOP_HID
6
HIDDEN
10
1.082826
20
0.089849
30
0.0
11
1.074675
21
0.086168
31
0.0
0
LINE
8
TOP_HID
6
HIDDEN
10
1.074675
20
0.086168
30
0.0
11
1.066480
21
0.082585
31
0.0
0
LINE
8
TOP_HID
6
HIDDEN
10
1.066480
20
0.082585
30
0.0
11
1.058244
21
0.079100
31
0.0
0
LINE
8
TOP_HID
6
HIDDEN
10
1.058244
20
0.079100
30
0.0
11
1.049966
21
0.075713
31
0.0
0
LINE
8
TOP_HID
6
HIDDEN
10
1.049966
20
0.075713
30
0.0
11
1.041648
21
0.072426
31
0.0
0
LINE
8
TOP_HID
6
HIDDEN
10
1.041648
20
0.072426
30
0.0
11
1.033292
21
0.069238
31
0.0
0
LINE
8
TOP_HID
6
HIDDEN
10
1.033292
20
0.069238
30
0.0
11
1.024898
21
0.066150
31
0.0
0
LINE
8
TOP_HID
6
HIDDEN
10
1.024898
20
0.066150
30
0.0
11
1.016468
21
0.063163
31
0.0
0
LINE
8
TOP_HID
6
HIDDEN
10
1.016468
20
0.063163
30
0.0
11
1.008003
21
0.060277
31
0.0
0
LINE
8
TOP_HID
6
HIDDEN
10
1.008003
20
0.060277
30
0.0
11
0.999504
21
0.057492
31
0.0
0
LINE
8
TOP_HID
6
HIDDEN
10
0.999504
20
0.057492
30
0.0
11
0.990973
21
0.054809
31
0.0
0
LINE
8
TOP_HID
6
HIDDEN
10
0.990973
20
0.054809
30
0.0
11
0.982409
21
0.052228
31
0.0
0
LINE
8
TOP_HID
6
HIDDEN
10
0.982409
20
0.052228
30
0.0
11
0.973816
21
0.049749
31
0.0
0
LINE
8
TOP_HID
6
HIDDEN
10
0.973816
20
0.049749
30
0.0
11
0.965194
21
0.047374
31
0.0
0
LINE
8
TOP_HID
6
HIDDEN
10
0.965194
20
0.047374
30
0.0
11
0.956544
21
0.045101
31
0.0
0
LINE
8
TOP_HID
6
HIDDEN
10
0.956544
20
0.045101
30
0.0
11
0.947867
21
0.042932
31
0.0
0
LINE
8
TOP_HID
6
HIDDEN
10
0.947867
20
0.042932
30
0.0
11
0.939165
21
0.040867
31
0.0
0
LINE
8
TOP_HID
6
HIDDEN
10
0.939165
20
0.040867
30
0.0
11
0.930439
21
0.038906
31
0.0
0
LINE
8
TOP_HID
6
HIDDEN
10
0.930439
20
0.038906
30
0.0
11
0.921690
21
0.037050
31
0.0
0
LINE
8
TOP_HID
6
HIDDEN
10
0.921690
20
0.037050
30
0.0
11
0.912920
21
0.035298
31
0.0
0
LINE
8
TOP_HID
6
HIDDEN
10
0.912920
20
0.035298
30
0.0
11
0.904129
21
0.033651
31
0.0
0
LINE
8
TOP_HID
6
HIDDEN
10
0.904129
20
0.033651
30
0.0
11
0.895320
21
0.032109
31
0.0
0
LINE
8
TOP_HID
6
HIDDEN
10
0.895320
20
0.032109
30
0.0
11
0.886492
21
0.030672
31
0.0
0
LINE
8
TOP_HID
6
HIDDEN
10
0.886492
20
0.030672
30
0.0
11
0.877648
21
0.029341
31
0.0
0
LINE
8
TOP_HID
6
HIDDEN
10
0.877648
20
0.029341
30
0.0
11
0.868789
21
0.028116
31
0.0
0
LINE
8
TOP_HID
6
HIDDEN
10
0.868789
20
0.028116
30
0.0
11
0.859915
21
0.026997
31
0.0
0
LINE
8
TOP_HID
6
HIDDEN
10
0.859915
20
0.026997
30
0.0
11
0.851029
21
0.025984
31
0.0
0
LINE
8
TOP_HID
6
HIDDEN
10
0.851029
20
0.025984
30
0.0
11
0.842132
21
0.025077
31
0.0
0
LINE
8
TOP_HID
6
HIDDEN
10
0.842132
20
0.025077
30
0.0
11
0.833224
21
0.024277
31
0.0
0
LINE
8
TOP_HID
6
HIDDEN
10
0.833224
20
0.024277
30
0.0
11
0.824307
21
0.023583
31
0.0
0
LINE
8
TOP_HID
6
HIDDEN
10
0.824307
20
0.023583
30
0.0
11
0.815383
21
0.022995
31
0.0
0
LINE
8
TOP_HID
6
HIDDEN
10
0.815383
20
0.022995
30
0.0
11
0.806452
21
0.022515
31
0.0
0
LINE
8
TOP_HID
6
HIDDEN
10
0.806452
20
0.022515
30
0.0
11
0.797517
21
0.022141
31
0.0
0
LINE
8
TOP_HID
6
HIDDEN
10
0.797517
20
0.022141
30
0.0
11
0.788577
21
0.021874
31
0.0
0
LINE
8
TOP_HID
6
HIDDEN
10
0.788577
20
0.021874
30
0.0
11
0.779635
21
0.021713
31
0.0
0
LINE
8
TOP_HID
6
HIDDEN
10
0.779635
20
0.021713
30
0.0
11
0.770691
21
0.021660
31
0.0
0
LINE
8
TOP_HID
6
HIDDEN
10
0.770691
20
0.021660
30
0.0
11
0.742593
21
0.022188
31
0.0
0
LINE
8
TOP_HID
6
HIDDEN
10
0.742593
20
0.022188
30
0.0
11
0.714534
21
0.023770
31
0.0
0
LINE
8
TOP_HID
6
HIDDEN
10
0.714534
20
0.023770
30
0.0
11
0.686554
21
0.026404
31
0.0
0
LINE
8
TOP_HID
6
HIDDEN
10
0.686554
20
0.026404
30
0.0
11
0.658693
21
0.030087
31
0.0
0
LINE
8
TOP_HID
6
HIDDEN
10
0.658693
20
0.030087
30
0.0
11
0.630990
21
0.034813
31
0.0
0
LINE
8
TOP_HID
6
HIDDEN
10
0.630990
20
0.034813
30
0.0
11
0.603484
21
0.040576
31
0.0
0
LINE
8
TOP_HID
6
HIDDEN
10
0.603484
20
0.040576
30
0.0
11
0.576213
21
0.047367
31
0.0
0
LINE
8
TOP_HID
6
HIDDEN
10
0.576213
20
0.047367
30
0.0
11
0.549217
21
0.055178
31
0.0
0
LINE
8
TOP_HID
6
HIDDEN
10
0.549217
20
0.055178
30
0.0
11
0.522532
21
0.063996
31
0.0
0
LINE
8
TOP_HID
6
HIDDEN
10
0.522532
20
0.063996
30
0.0
11
0.496198
21
0.073809
31
0.0
0
LINE
8
TOP_HID
6
HIDDEN
10
0.496198
20
0.073809
30
0.0
11
0.470251
21
0.084604
31
0.0
0
LINE
8
TOP_HID
6
HIDDEN
10
0.470251
20
0.084604
30
0.0
11
0.444727
21
0.096366
31
0.0
0
LINE
8
TOP_HID
6
HIDDEN
10
0.444727
20
0.096366
30
0.0
11
0.419662
21
0.109077
31
0.0
0
LINE
8
TOP_HID
6
HIDDEN
10
0.419662
20
0.109077
30
0.0
11
0.395093
21
0.122720
31
0.0
0
LINE
8
TOP_HID
6
HIDDEN
10
0.395093
20
0.122720
30
0.0
11
0.371052
21
0.137276
31
0.0
0
LINE
8
TOP_HID
6
HIDDEN
10
0.371052
20
0.137276
30
0.0
11
0.347575
21
0.152724
31
0.0
0
LINE
8
TOP_HID
6
HIDDEN
10
0.347575
20
0.152724
30
0.0
11
0.324694
21
0.169042
31
0.0
0
LINE
8
TOP_HID
6
HIDDEN
10
0.324694
20
0.169042
30
0.0
11
0.302442
21
0.186207
31
0.0
0
LINE
8
TOP_HID
6
HIDDEN
10
0.302442
20
0.186207
30
0.0
11
0.280850
21
0.204195
31
0.0
0
LINE
8
TOP_HID
6
HIDDEN
10
0.280850
20
0.204195
30
0.0
11
0.259947
21
0.222980
31
0.0
0
LINE
8
TOP_HID
6
HIDDEN
10
0.259947
20
0.222980
30
0.0
11
0.239765
21
0.242537
31
0.0
0
LINE
8
TOP_HID
6
HIDDEN
10
0.239765
20
0.242537
30
0.0
11
0.220330
21
0.262838
31
0.0
0
LINE
8
TOP_HID
6
HIDDEN
10
0.220330
20
0.262838
30
0.0
11
0.201671
21
0.283853
31
0.0
0
LINE
8
TOP_HID
6
HIDDEN
10
0.201671
20
0.283853
30
0.0
11
0.183814
21
0.305554
31
0.0
0
LINE
8
TOP_HID
6
HIDDEN
10
0.183814
20
0.305554
30
0.0
11
0.166783
21
0.327909
31
0.0
0
LINE
8
TOP_HID
6
HIDDEN
10
0.166783
20
0.327909
30
0.0
11
0.150603
21
0.350888
31
0.0
0
LINE
8
TOP_HID
6
HIDDEN
10
0.150603
20
0.350888
30
0.0
11
0.135297
21
0.374457
31
0.0
0
LINE
8
TOP_HID
6
HIDDEN
10
0.135297
20
0.374457
30
0.0
11
0.120886
21
0.398584
31
0.0
0
LINE
8
TOP_HID
6
HIDDEN
10
0.120886
20
0.398584
30
0.0
11
0.107390
21
0.423235
31
0.0
0
LINE
8
TOP_HID
6
HIDDEN
10
0.107390
20
0.423235
30
0.0
11
0.094828
21
0.448375
31
0.0
0
LINE
8
TOP_HID
6
HIDDEN
10
0.094828
20
0.448375
30
0.0
11
0.083218
21
0.473968
31
0.0
0
LINE
8
TOP_HID
6
HIDDEN
10
0.083218
20
0.473968
30
0.0
11
0.072577
21
0.499979
31
0.0
0
LINE
8
TOP_HID
6
HIDDEN
10
0.072577
20
0.499979
30
0.0
11
0.062918
21
0.526370
31
0.0
0
LINE
8
TOP_HID
6
HIDDEN
10
0.062918
20
0.526370
30
0.0
11
0.054257
21
0.553106
31
0.0
0
LINE
8
TOP_HID
6
HIDDEN
10
0.054257
20
0.553106
30
0.0
11
0.046604
21
0.580147
31
0.0
0
LINE
8
TOP_HID
6
HIDDEN
10
0.046604
20
0.580147
30
0.0
11
0.039971
21
0.607457
31
0.0
0
LINE
8
TOP_HID
6
HIDDEN
10
0.039971
20
0.607457
30
0.0
11
0.034367
21
0.634996
31
0.0
0
LINE
8
TOP_HID
6
HIDDEN
10
0.034367
20
0.634996
30
0.0
11
0.029800
21
0.662726
31
0.0
0
LINE
8
TOP_HID
6
HIDDEN
10
0.029800
20
0.662726
30
0.0
11
0.026276
21
0.690607
31
0.0
0
LINE
8
TOP_HID
6
HIDDEN
10
0.026276
20
0.690607
30
0.0
11
0.023801
21
0.718602
31
0.0
0
LINE
8
TOP_HID
6
HIDDEN
10
0.023801
20
0.718602
30
0.0
11
0.022377
21
0.746669
31
0.0
0
LINE
8
TOP_HID
6
HIDDEN
10
0.022377
20
0.746669
30
0.0
11
0.022007
21
0.774770
31
0.0
0
LINE
8
TOP_HID
6
HIDDEN
10
0.022007
20
0.774770
30
0.0
11
0.022691
21
0.802865
31
0.0
0
LINE
8
TOP_HID
6
HIDDEN
10
0.022691
20
0.802865
30
0.0
11
0.024429
21
0.830915
31
0.0
0
LINE
8
TOP_HID
6
HIDDEN
10
0.024429
20
0.830915
30
0.0
11
0.027217
21
0.858880
31
0.0
0
LINE
8
TOP_HID
6
HIDDEN
10
0.027217
20
0.858880
30
0.0
11
0.031052
21
0.886720
31
0.0
0
LINE
8
TOP_HID
6
HIDDEN
10
0.031052
20
0.886720
30
0.0
11
0.035929
21
0.914397
31
0.0
0
LINE
8
TOP_HID
6
HIDDEN
10
0.035929
20
0.914397
30
0.0
11
0.041841
21
0.941872
31
0.0
0
LINE
8
TOP_HID
6
HIDDEN
10
0.041841
20
0.941872
30
0.0
11
0.048779
21
0.969106
31
0.0
0
LINE
8
TOP_HID
6
HIDDEN
10
0.048779
20
0.969106
30
0.0
11
0.056733
21
0.996060
31
0.0
0
LINE
8
TOP_HID
6
HIDDEN
10
0.056733
20
0.996060
30
0.0
11
0.065693
21
1.022697
31
0.0
0
LINE
8
TOP_HID
6
HIDDEN
10
0.065693
20
1.022697
30
0.0
11
0.075646
21
1.048979
31
0.0
0
LINE
8
TOP_HID
6
HIDDEN
10
0.075646
20
1.048979
30
0.0
11
0.086578
21
1.074869
31
0.0
0
LINE
8
TOP_HID
6
HIDDEN
10
0.086578
20
1.074869
30
0.0
11
0.098473
21
1.100331
31
0.0
0
LINE
8
TOP_HID
6
HIDDEN
10
0.098473
20
1.100331
30
0.0
11
0.111316
21
1.125328
31
0.0
0
LINE
8
TOP_HID
6
HIDDEN
10
0.111316
20
1.125328
30
0.0
11
0.125086
21
1.149827
31
0.0
0
LINE
8
TOP_HID
6
HIDDEN
10
0.125086
20
1.149827
30
0.0
11
0.139767
21
1.173791
31
0.0
0
LINE
8
TOP_HID
6
HIDDEN
10
0.139767
20
1.173791
30
0.0
11
0.155336
21
1.197188
31
0.0
0
LINE
8
TOP_HID
6
HIDDEN
10
0.155336
20
1.197188
30
0.0
11
0.171772
21
1.219984
31
0.0
0
LINE
8
TOP_HID
6
HIDDEN
10
0.171772
20
1.219984
30
0.0
11
0.189051
21
1.242148
31
0.0
0
LINE
8
TOP_HID
6
HIDDEN
10
0.189051
20
1.242148
30
0.0
11
0.207150
21
1.263647
31
0.0
0
LINE
8
TOP_HID
6
HIDDEN
10
0.207150
20
1.263647
30
0.0
11
0.226043
21
1.284452
31
0.0
0
LINE
8
TOP_HID
6
HIDDEN
10
0.226043
20
1.284452
30
0.0
11
0.245703
21
1.304534
31
0.0
0
LINE
8
TOP_HID
6
HIDDEN
10
1.270775
20
0.223902
30
0.0
11
1.282421
21
0.223902
31
0.0
0
LINE
8
TOP_HID
6
HIDDEN
10
1.100037
20
0.424255
30
0.0
11
1.282421
21
0.223902
31
0.0
0
LINE
8
TOP_HID
6
HIDDEN
10
0.775057
20
0.295003
30
0.0
11
0.762786
21
0.295003
31
0.0
0
LINE
8
TOP_HID
6
HIDDEN
10
0.770691
20
0.021660
30
0.0
11
0.758737
21
0.021660
31
0.0
0
ENDSEC
0
EOF
