0
SECTION
2
HEADER
9
$ACADVER
1
AC1009
0
ENDSEC
0
SECTION
2
TABLES
0
TABLE
2
LTYPE
70
3
0
LTYPE
2
CONTINUOUS
70
0
3
Solid line
72
65
73
0
40
0.0
0
LTYPE
2
HIDDEN
70
0
3
__ __ __ __ __
72
65
73
2
40
0.073828
49
0.049243
49
-0.024585
0
LTYPE
2
CENTER
70
0
3
___ _ ___ _ ___
72
65
73
4
40
0.172241
49
0.098413
49
-0.024585
49
0.024585
49
-0.024585
0
ENDTAB
0
TABLE
2
LAYER
70
6
0
LAYER
2
0
70
0
62
7
6
CONTINUOUS
0
LAYER
2
FRONT
70
0
62
7
6
CONTINUOUS
0
LAYER
2
FRONT_HID
70
0
62
7
6
HIDDEN
0
LAYER
2
LEFT
70
0
62
7
6
CONTINUOUS
0
LAYER
2
LEFT_HID
70
0
62
7
6
HIDDEN
0
LAYER
2
TOP
70
0
62
7
6
CONTINUOUS
0
ENDTAB
0
ENDSEC
0
SECTION
2
ENTITIES
0
LINE
8
FRONT
10
0.000000
20
1.756332
30
0.0
11
0.000000
21
1.881332
31
0.0
0
LINE
8
FRONT
10
1.476563
20
1.756332
30
0.0
11
1.476563
21
1.881332
31
0.0
0
LINE
8
FRONT
10
1.476563
20
1.881332
30
0.0
11
1.398849
21
1.881332
31
0.0
0
LINE
8
FRONT
10
1.398849
20
1.756332
30
0.0
11
1.398849
21
1.881332
31
0.0
0
LINE
8
FRONT
10
1.476563
20
1.756332
30
0.0
11
1.398849
21
1.756332
31
0.0
0
LINE
8
FRONT
10
1.398849
20
1.881332
30
0.0
11
1.010280
21
1.881332
31
0.0
0
LINE
8
FRONT
10
1.010280
20
1.756332
30
0.0
11
1.010280
21
1.881332
31
0.0
0
LINE
8
FRONT
10
1.398849
20
1.756332
30
0.0
11
1.010280
21
1.756332
31
0.0
0
LINE
8
FRONT
10
1.010280
20
1.881332
30
0.0
11
0.497368
21
1.881332
31
0.0
0
LINE
8
FRONT
10
0.497368
20
1.756332
30
0.0
11
0.497368
21
1.881332
31
0.0
0
LINE
8
FRONT
10
1.010280
20
1.756332
30
0.0
11
0.497368
21
1.756332
31
0.0
0
LINE
8
FRONT
10
0.497368
20
1.881332
30
0.0
11
0.108799
21
1.881332
31
0.0
0
LINE
8
FRONT
10
0.108799
20
1.756332
30
0.0
11
0.108799
21
1.881332
31
0.0
0
LINE
8
FRONT
10
0.497368
20
1.756332
30
0.0
11
0.108799
21
1.756332
31
0.0
0
LINE
8
FRONT
10
0.108799
20
1.881332
30
0.0
11
0.000000
21
1.881332
31
0.0
0
LINE
8
FRONT
10
0.108799
20
1.756332
30
0.0
11
0.000000
21
1.756332
31
0.0
0
LINE
8
FRONT_HID
6
HIDDEN
10
0.000000
20
1.881332
30
0.0
11
0.248684
21
1.881332
31
0.0
0
LINE
8
FRONT_HID
6
HIDDEN
10
0.248684
20
1.756332
30
0.0
11
0.248684
21
1.881332
31
0.0
0
LINE
8
FRONT_HID
6
HIDDEN
10
0.000000
20
1.756332
30
0.0
11
0.248684
21
1.756332
31
0.0
0
LINE
8
FRONT_HID
6
HIDDEN
10
0.248684
20
1.881332
30
0.0
11
0.730510
21
1.881332
31
0.0
0
LINE
8
FRONT_HID
6
HIDDEN
10
0.730510
20
1.756332
30
0.0
11
0.730510
21
1.881332
31
0.0
0
LINE
8
FRONT_HID
6
HIDDEN
10
0.248684
20
1.756332
30
0.0
11
0.730510
21
1.756332
31
0.0
0
LINE
8
FRONT_HID
6
HIDDEN
10
0.730510
20
1.881332
30
0.0
11
1.212336
21
1.881332
31
0.0
0
LINE
8
FRONT_HID
6
HIDDEN
10
1.212336
20
1.756332
30
0.0
11
1.212336
21
1.881332
31
0.0
0
LINE
8
FRONT_HID
6
HIDDEN
10
0.730510
20
1.756332
30
0.0
11
1.212336
21
1.756332
31
0.0
0
LINE
8
FRONT_HID
6
HIDDEN
10
1.212336
20
1.881332
30
0.0
11
1.476563
21
1.881332
31
0.0
0
LINE
8
FRONT_HID
6
HIDDEN
10
1.212336
20
1.756332
30
0.0
11
1.476563
21
1.756332
31
0.0
0
LINE
8
FRONT_HID
6
HIDDEN
10
0.932566
20
1.756332
30
0.0
11
0.559539
21
1.756332
31
0.0
0
LINE
8
FRONT_HID
6
HIDDEN
10
0.559539
20
1.756332
30
0.0
11
0.932566
21
1.756332
31
0.0
0
LINE
8
FRONT_HID
6
HIDDEN
10
0.932566
20
1.756332
30
0.0
11
0.932566
21
1.881332
31
0.0
0
LINE
8
FRONT_HID
6
HIDDEN
10
0.932566
20
1.881332
30
0.0
11
0.559539
21
1.881332
31
0.0
0
LINE
8
FRONT_HID
6
HIDDEN
10
0.559539
20
1.881332
30
0.0
11
0.932566
21
1.881332
31
0.0
0
LINE
8
FRONT_HID
6
HIDDEN
10
0.559539
20
1.881332
30
0.0
11
0.559539
21
1.756332
31
0.0
0
LINE
8
LEFT
10
2.595641
20
1.756332
30
0.0
11
2.595641
21
1.881332
31
0.0
0
LINE
8
LEFT
10
2.595641
20
1.881332
30
0.0
11
3.046382
21
1.881332
31
0.0
0
LINE
8
LEFT
10
3.046382
20
1.756332
30
0.0
11
3.046382
21
1.881332
31
0.0
0
LINE
8
LEFT
10
2.595641
20
1.756332
30
0.0
11
3.046382
21
1.756332
31
0.0
0
LINE
8
LEFT
10
3.046382
20
1.881332
30
0.0
11
3.232895
21
1.881332
31
0.0
0
LINE
8
LEFT
10
3.232895
20
1.756332
30
0.0
11
3.232895
21
1.881332
31
0.0
0
LINE
8
LEFT
10
3.046382
20
1.756332
30
0.0
11
3.232895
21
1.756332
31
0.0
0
LINE
8
LEFT
10
1.771875
20
1.756332
30
0.0
11
1.771875
21
1.881332
31
0.0
0
LINE
8
LEFT
10
1.771875
20
1.881332
30
0.0
11
2.098273
21
1.881332
31
0.0
0
LINE
8
LEFT
10
2.098273
20
1.756332
30
0.0
11
2.098273
21
1.881332
31
0.0
0
LINE
8
LEFT
10
1.771875
20
1.756332
30
0.0
11
2.098273
21
1.756332
31
0.0
0
LINE
8
LEFT
10
2.098273
20
1.881332
30
0.0
11
2.595641
21
1.881332
31
0.0
0
LINE
8
LEFT
10
2.098273
20
1.756332
30
0.0
11
2.595641
21
1.756332
31
0.0
0
LINE
8
LEFT_HID
6
HIDDEN
10
3.232895
20
1.881332
30
0.0
11
3.061924
21
1.881332
31
0.0
0
LINE
8
LEFT_HID
6
HIDDEN
10
3.061924
20
1.756332
30
0.0
11
3.061924
21
1.881332
31
0.0
0
LINE
8
LEFT_HID
6
HIDDEN
10
3.232895
20
1.756332
30
0.0
11
3.061924
21
1.756332
31
0.0
0
LINE
8
LEFT_HID
6
HIDDEN
10
3.061924
20
1.881332
30
0.0
11
2.626727
21
1.881332
31
0.0
0
LINE
8
LEFT_HID
6
HIDDEN
10
2.626727
20
1.756332
30
0.0
11
2.626727
21
1.881332
31
0.0
0
LINE
8
LEFT_HID
6
HIDDEN
10
3.061924
20
1.756332
30
0.0
11
2.626727
21
1.756332
31
0.0
0
LINE
8
LEFT_HID
6
HIDDEN
10
2.626727
20
1.881332
30
0.0
11
2.129359
21
1.881332
31
0.0
0
LINE
8
LEFT_HID
6
HIDDEN
10
2.129359
20
1.756332
30
0.0
11
2.129359
21
1.881332
31
0.0
0
LINE
8
LEFT_HID
6
HIDDEN
10
2.626727
20
1.756332
30
0.0
11
2.129359
21
1.756332
31
0.0
0
LINE
8
LEFT_HID
6
HIDDEN
10
2.129359
20
1.881332
30
0.0
11
1.787418
21
1.881332
31
0.0
0
LINE
8
LEFT_HID
6
HIDDEN
10
1.787418
20
1.756332
30
0.0
11
1.787418
21
1.881332
31
0.0
0
LINE
8
LEFT_HID
6
HIDDEN
10
2.129359
20
1.756332
30
0.0
11
1.787418
21
1.756332
31
0.0
0
LINE
8
LEFT_HID
6
HIDDEN
10
1.787418
20
1.881332
30
0.0
11
1.771875
21
1.881332
31
0.0
0
LINE
8
LEFT_HID
6
HIDDEN
10
1.787418
20
1.756332
30
0.0
11
1.771875
21
1.756332
31
0.0
0
LINE
8
LEFT_HID
6
HIDDEN
10
2.486842
20
1.756332
30
0.0
11
2.300329
21
1.756332
31
0.0
0
LINE
8
LEFT_HID
6
HIDDEN
10
2.300329
20
1.756332
30
0.0
11
2.673355
21
1.756332
31
0.0
0
LINE
8
LEFT_HID
6
HIDDEN
10
2.673355
20
1.756332
30
0.0
11
2.486842
21
1.756332
31
0.0
0
LINE
8
LEFT_HID
6
HIDDEN
10
2.486842
20
1.881332
30
0.0
11
2.300329
21
1.881332
31
0.0
0
LINE
8
LEFT_HID
6
HIDDEN
10
2.300329
20
1.881332
30
0.0
11
2.673355
21
1.881332
31
0.0
0
LINE
8
LEFT_HID
6
HIDDEN
10
2.673355
20
1.881332
30
0.0
11
2.486842
21
1.881332
31
0.0
0
LINE
8
LEFT_HID
6
HIDDEN
10
2.300329
20
1.881332
30
0.0
11
2.300329
21
1.756332
31
0.0
0
LINE
8
LEFT_HID
6
HIDDEN
10
2.673355
20
1.881332
30
0.0
11
2.673355
21
1.756332
31
0.0
0
LINE
8
TOP
10
0.000000
20
0.637253
30
0.0
11
0.248684
21
0.186513
31
0.0
0
LINE
8
TOP
10
0.248684
20
0.186513
30
0.0
11
0.730510
21
0.000000
31
0.0
0
LINE
8
TOP
10
0.730510
20
0.000000
30
0.0
11
1.212336
21
0.170970
31
0.0
0
LINE
8
TOP
10
1.212336
20
0.170970
30
0.0
11
1.476563
21
0.606168
31
0.0
0
LINE
8
TOP
10
1.476563
20
0.606168
30
0.0
11
1.398849
21
1.103536
31
0.0
0
LINE
8
TOP
10
1.398849
20
1.103536
30
0.0
11
1.010280
21
1.445477
31
0.0
0
LINE
8
TOP
10
1.010280
20
1.445477
30
0.0
11
0.497368
21
1.461020
31
0.0
0
LINE
8
TOP
10
0.497368
20
1.461020
30
0.0
11
0.108799
21
1.134622
31
0.0
0
LINE
8
TOP
10
0.108799
20
1.134622
30
0.0
11
0.000000
21
0.637253
31
0.0
0
LINE
8
TOP
10
0.932566
20
0.746053
30
0.0
11
0.931639
21
0.764623
31
0.0
0
LINE
8
TOP
10
0.931639
20
0.764623
30
0.0
11
0.928868
21
0.783009
31
0.0
0
LINE
8
TOP
10
0.928868
20
0.783009
30
0.0
11
0.924280
21
0.801028
31
0.0
0
LINE
8
TOP
10
0.924280
20
0.801028
30
0.0
11
0.917920
21
0.818501
31
0.0
0
LINE
8
TOP
10
0.917920
20
0.818501
30
0.0
11
0.909853
21
0.835253
31
0.0
0
LINE
8
TOP
10
0.909853
20
0.835253
30
0.0
11
0.900157
21
0.851119
31
0.0
0
LINE
8
TOP
10
0.900157
20
0.851119
30
0.0
11
0.888930
21
0.865941
31
0.0
0
LINE
8
TOP
10
0.888930
20
0.865941
30
0.0
11
0.876283
21
0.879571
31
0.0
0
LINE
8
TOP
10
0.876283
20
0.879571
30
0.0
11
0.862342
21
0.891874
31
0.0
0
LINE
8
TOP
10
0.862342
20
0.891874
30
0.0
11
0.847245
21
0.902729
31
0.0
0
LINE
8
TOP
10
0.847245
20
0.902729
30
0.0
11
0.831142
21
0.912025
31
0.0
0
LINE
8
TOP
10
0.831142
20
0.912025
30
0.0
11
0.814194
21
0.919673
31
0.0
0
LINE
8
TOP
10
0.814194
20
0.919673
30
0.0
11
0.796568
21
0.925595
31
0.0
0
LINE
8
TOP
10
0.796568
20
0.925595
30
0.0
11
0.778440
21
0.929732
31
0.0
0
LINE
8
TOP
10
0.778440
20
0.929732
30
0.0
11
0.759991
21
0.932044
31
0.0
0
LINE
8
TOP
10
0.759991
20
0.932044
30
0.0
11
0.741403
21
0.932508
31
0.0
0
LINE
8
TOP
10
0.741403
20
0.932508
30
0.0
11
0.722861
21
0.931118
31
0.0
0
LINE
8
TOP
10
0.722861
20
0.931118
30
0.0
11
0.704550
21
0.927890
31
0.0
0
LINE
8
TOP
10
0.704550
20
0.927890
30
0.0
11
0.686651
21
0.922854
31
0.0
0
LINE
8
TOP
10
0.686651
20
0.922854
30
0.0
11
0.669342
21
0.916060
31
0.0
0
LINE
8
TOP
10
0.669342
20
0.916060
30
0.0
11
0.652796
21
0.907578
31
0.0
0
LINE
8
TOP
10
0.652796
20
0.907578
30
0.0
11
0.637177
21
0.897490
31
0.0
0
LINE
8
TOP
10
0.637177
20
0.897490
30
0.0
11
0.622640
21
0.885897
31
0.0
0
LINE
8
TOP
10
0.622640
20
0.885897
30
0.0
11
0.609329
21
0.872914
31
0.0
0
LINE
8
TOP
10
0.609329
20
0.872914
30
0.0
11
0.597377
21
0.858670
31
0.0
0
LINE
8
TOP
10
0.597377
20
0.858670
30
0.0
11
0.586903
21
0.843307
31
0.0
0
LINE
8
TOP
10
0.586903
20
0.843307
30
0.0
11
0.578010
21
0.826978
31
0.0
0
LINE
8
TOP
10
0.578010
20
0.826978
30
0.0
11
0.570788
21
0.809844
31
0.0
0
LINE
8
TOP
10
0.570788
20
0.809844
30
0.0
11
0.565307
21
0.792076
31
0.0
0
LINE
8
TOP
10
0.565307
20
0.792076
30
0.0
11
0.561623
21
0.773851
31
0.0
0
LINE
8
TOP
10
0.561623
20
0.773851
30
0.0
11
0.559771
21
0.755350
31
0.0
0
LINE
8
TOP
10
0.559771
20
0.755350
30
0.0
11
0.559771
21
0.736756
31
0.0
0
LINE
8
TOP
10
0.559771
20
0.736756
30
0.0
11
0.561623
21
0.718254
31
0.0
0
LINE
8
TOP
10
0.561623
20
0.718254
30
0.0
11
0.565307
21
0.700029
31
0.0
0
LINE
8
TOP
10
0.565307
20
0.700029
30
0.0
11
0.570788
21
0.682261
31
0.0
0
LINE
8
TOP
10
0.570788
20
0.682261
30
0.0
11
0.578010
21
0.665128
31
0.0
0
LINE
8
TOP
10
0.578010
20
0.665128
30
0.0
11
0.586903
21
0.648798
31
0.0
0
LINE
8
TOP
10
0.586903
20
0.648798
30
0.0
11
0.597377
21
0.633435
31
0.0
0
LINE
8
TOP
10
0.597377
20
0.633435
30
0.0
11
0.609329
21
0.619191
31
0.0
0
LINE
8
TOP
10
0.609329
20
0.619191
30
0.0
11
0.622640
21
0.606209
31
0.0
0
LINE
8
TOP
10
0.622640
20
0.606209
30
0.0
11
0.637177
21
0.594616
31
0.0
0
LINE
8
TOP
10
0.637177
20
0.594616
30
0.0
11
0.652796
21
0.584527
31
0.0
0
LINE
8
TOP
10
0.652796
20
0.584527
30
0.0
11
0.669342
21
0.576045
31
0.0
0
LINE
8
TOP
10
0.669342
20
0.576045
30
0.0
11
0.686651
21
0.569252
31
0.0
0
LINE
8
TOP
10
0.686651
20
0.569252
30
0.0
11
0.704550
21
0.564216
31
0.0
0
LINE
8
TOP
10
0.704550
20
0.564216
30
0.0
11
0.722861
21
0.560987
31
0.0
0
LINE
8
TOP
10
0.722861
20
0.560987
30
0.0
11
0.741403
21
0.559597
31
0.0
0
LINE
8
TOP
10
0.741403
20
0.559597
30
0.0
11
0.759991
21
0.560061
31
0.0
0
LINE
8
TOP
10
0.759991
20
0.560061
30
0.0
11
0.778440
21
0.562373
31
0.0
0
LINE
8
TOP
10
0.778440
20
0.562373
30
0.0
11
0.796568
21
0.566511
31
0.0
0
LINE
8
TOP
10
0.796568
20
0.566511
30
0.0
11
0.814194
21
0.572432
31
0.0
0
LINE
8
TOP
10
0.814194
20
0.572432
30
0.0
11
0.831142
21
0.580080
31
0.0
0
LINE
8
TOP
10
0.831142
20
0.580080
30
0.0
11
0.847245
21
0.589377
31
0.0
0
LINE
8
TOP
10
0.847245
20
0.589377
30
0.0
11
0.862342
21
0.600231
31
0.0
0
LINE
8
TOP
10
0.862342
20
0.600231
30
0.0
11
0.876283
21
0.612534
31
0.0
0
LINE
8
TOP
10
0.876283
20
0.612534
30
0.0
11
0.888930
21
0.626164
31
0.0
0
LINE
8
TOP
10
0.888930
20
0.626164
30
0.0
11
0.900157
21
0.640986
31
0.0
0
LINE
8
TOP
10
0.900157
20
0.640986
30
0.0
11
0.909853
21
0.656852
31
0.0
0
LINE
8
TOP
10
0.909853
20
0.656852
30
0.0
11
0.917920
21
0.673604
31
0.0
0
LINE
8
TOP
10
0.917920
20
0.673604
30
0.0
11
0.924280
21
0.691077
31
0.0
0
LINE
8
TOP
10
0.924280
20
0.691077
30
0.0
11
0.928868
21
0.709096
31
0.0
0
LINE
8
TOP
10
0.928868
20
0.709096
30
0.0
11
0.931639
21
0.727482
31
0.0
0
LINE
8
TOP
10
0.931639
20
0.727482
30
0.0
11
0.932566
21
0.746053
31
0.0
0
ENDSEC
0
EOF
