0
SECTION
2
HEADER
9
$ACADVER
1
AC1009
0
ENDSEC
0
SECTION
2
TABLES
0
TABLE
2
LTYPE
70
3
0
LTYPE
2
CONTINUOUS
70
0
3
Solid line
72
65
73
0
40
0.0
0
LTYPE
2
HIDDEN
70
0
3
__ __ __ __ __
72
65
73
2
40
0.074614
49
0.049767
49
-0.024846
0
LTYPE
2
CENTER
70
0
3
___ _ ___ _ ___
72
65
73
4
40
0.174073
49
0.099460
49
-0.024846
49
0.024846
49
-0.024846
0
ENDTAB
0
TABLE
2
LAYER
70
7
0
LAYER
2
0
70
0
62
7
6
CONTINUOUS
0
LAYER
2
FRONT
70
0
62
7
6
CONTINUOUS
0
LAYER
2
FRONT_HID
70
0
62
7
6
HIDDEN
0
LAYER
2
LEFT
70
0
62
7
6
CONTINUOUS
0
LAYER
2
LEFT_HID
70
0
62
7
6
HIDDEN
0
LAYER
2
TOP
70
0
62
7
6
CONTINUOUS
0
LAYER
2
TOP_HID
70
0
62
7
6
HIDDEN
0
ENDTAB
0
ENDSEC
0
SECTION
2
ENTITIES
0
LINE
8
FRONT
10
1.492188
20
1.790723
30
0.0
11
1.115214
21
1.790723
31
0.0
0
LINE
8
FRONT
10
1.115214
20
1.790723
30
0.0
11
0.376974
21
1.790723
31
0.0
0
LINE
8
FRONT
10
0.376974
20
1.790723
30
0.0
11
0.000000
21
1.790723
31
0.0
0
LINE
8
FRONT
10
1.407319
20
1.939160
30
0.0
11
1.407319
21
2.165723
31
0.0
0
LINE
8
FRONT
10
1.407319
20
2.165723
30
0.0
11
1.304688
21
2.165723
31
0.0
0
LINE
8
FRONT
10
0.000000
20
1.790723
30
0.0
11
0.000000
21
1.939160
31
0.0
0
LINE
8
FRONT
10
0.376974
20
1.939160
30
0.0
11
0.000000
21
1.939160
31
0.0
0
LINE
8
FRONT
10
0.376974
20
1.790723
30
0.0
11
0.376974
21
1.939160
31
0.0
0
LINE
8
FRONT
10
1.115214
20
1.790723
30
0.0
11
1.115214
21
1.939160
31
0.0
0
LINE
8
FRONT
10
1.115214
20
1.939160
30
0.0
11
0.376974
21
1.939160
31
0.0
0
LINE
8
FRONT
10
1.492188
20
1.790723
30
0.0
11
1.492188
21
1.939160
31
0.0
0
LINE
8
FRONT
10
1.492188
20
1.939160
30
0.0
11
1.115214
21
1.939160
31
0.0
0
LINE
8
FRONT
10
0.196382
20
1.939160
30
0.0
11
0.196382
21
2.165723
31
0.0
0
LINE
8
FRONT
10
0.196382
20
2.165723
30
0.0
11
0.093750
21
2.165723
31
0.0
0
LINE
8
FRONT
10
1.304688
20
2.165723
30
0.0
11
1.304688
21
1.939160
31
0.0
0
LINE
8
FRONT
10
0.093750
20
2.165723
30
0.0
11
0.093750
21
1.939160
31
0.0
0
LINE
8
FRONT_HID
6
HIDDEN
10
1.397944
20
1.790723
30
0.0
11
1.319848
21
1.790723
31
0.0
0
LINE
8
FRONT_HID
6
HIDDEN
10
1.309647
20
1.790723
30
0.0
11
1.397944
21
1.790723
31
0.0
0
LINE
8
FRONT_HID
6
HIDDEN
10
1.309647
20
1.790723
30
0.0
11
1.407319
21
1.790723
31
0.0
0
LINE
8
FRONT_HID
6
HIDDEN
10
1.407319
20
1.790723
30
0.0
11
1.319848
21
1.790723
31
0.0
0
LINE
8
FRONT_HID
6
HIDDEN
10
1.319848
20
1.790723
30
0.0
11
1.304688
21
1.790723
31
0.0
0
LINE
8
FRONT_HID
6
HIDDEN
10
1.304688
20
1.790723
30
0.0
11
1.309647
21
1.790723
31
0.0
0
LINE
8
FRONT_HID
6
HIDDEN
10
0.196382
20
1.790723
30
0.0
11
0.193123
21
1.790723
31
0.0
0
LINE
8
FRONT_HID
6
HIDDEN
10
0.193123
20
1.790723
30
0.0
11
0.189865
21
1.790723
31
0.0
0
LINE
8
FRONT_HID
6
HIDDEN
10
0.189865
20
1.790723
30
0.0
11
0.186607
21
1.790723
31
0.0
0
LINE
8
FRONT_HID
6
HIDDEN
10
0.186607
20
1.790723
30
0.0
11
0.183349
21
1.790723
31
0.0
0
LINE
8
FRONT_HID
6
HIDDEN
10
0.183349
20
1.790723
30
0.0
11
0.180091
21
1.790723
31
0.0
0
LINE
8
FRONT_HID
6
HIDDEN
10
0.180091
20
1.790723
30
0.0
11
0.176833
21
1.790723
31
0.0
0
LINE
8
FRONT_HID
6
HIDDEN
10
0.176833
20
1.790723
30
0.0
11
0.173575
21
1.790723
31
0.0
0
LINE
8
FRONT_HID
6
HIDDEN
10
0.173575
20
1.790723
30
0.0
11
0.170316
21
1.790723
31
0.0
0
LINE
8
FRONT_HID
6
HIDDEN
10
0.170316
20
1.790723
30
0.0
11
0.167058
21
1.790723
31
0.0
0
LINE
8
FRONT_HID
6
HIDDEN
10
0.167058
20
1.790723
30
0.0
11
0.163800
21
1.790723
31
0.0
0
LINE
8
FRONT_HID
6
HIDDEN
10
0.163800
20
1.790723
30
0.0
11
0.160542
21
1.790723
31
0.0
0
LINE
8
FRONT_HID
6
HIDDEN
10
0.160542
20
1.790723
30
0.0
11
0.157284
21
1.790723
31
0.0
0
LINE
8
FRONT_HID
6
HIDDEN
10
0.157284
20
1.790723
30
0.0
11
0.154026
21
1.790723
31
0.0
0
LINE
8
FRONT_HID
6
HIDDEN
10
0.154026
20
1.790723
30
0.0
11
0.150768
21
1.790723
31
0.0
0
LINE
8
FRONT_HID
6
HIDDEN
10
0.150768
20
1.790723
30
0.0
11
0.147509
21
1.790723
31
0.0
0
LINE
8
FRONT_HID
6
HIDDEN
10
0.147509
20
1.790723
30
0.0
11
0.144251
21
1.790723
31
0.0
0
LINE
8
FRONT_HID
6
HIDDEN
10
0.144251
20
1.790723
30
0.0
11
0.140993
21
1.790723
31
0.0
0
LINE
8
FRONT_HID
6
HIDDEN
10
0.140993
20
1.790723
30
0.0
11
0.137735
21
1.790723
31
0.0
0
LINE
8
FRONT_HID
6
HIDDEN
10
0.137735
20
1.790723
30
0.0
11
0.134477
21
1.790723
31
0.0
0
LINE
8
FRONT_HID
6
HIDDEN
10
0.134477
20
1.790723
30
0.0
11
0.131219
21
1.790723
31
0.0
0
LINE
8
FRONT_HID
6
HIDDEN
10
0.131219
20
1.790723
30
0.0
11
0.127961
21
1.790723
31
0.0
0
LINE
8
FRONT_HID
6
HIDDEN
10
0.127961
20
1.790723
30
0.0
11
0.124702
21
1.790723
31
0.0
0
LINE
8
FRONT_HID
6
HIDDEN
10
0.124702
20
1.790723
30
0.0
11
0.121444
21
1.790723
31
0.0
0
LINE
8
FRONT_HID
6
HIDDEN
10
0.121444
20
1.790723
30
0.0
11
0.118186
21
1.790723
31
0.0
0
LINE
8
FRONT_HID
6
HIDDEN
10
0.118186
20
1.790723
30
0.0
11
0.114928
21
1.790723
31
0.0
0
LINE
8
FRONT_HID
6
HIDDEN
10
0.114928
20
1.790723
30
0.0
11
0.111670
21
1.790723
31
0.0
0
LINE
8
FRONT_HID
6
HIDDEN
10
0.111670
20
1.790723
30
0.0
11
0.108412
21
1.790723
31
0.0
0
LINE
8
FRONT_HID
6
HIDDEN
10
0.108412
20
1.790723
30
0.0
11
0.105154
21
1.790723
31
0.0
0
LINE
8
FRONT_HID
6
HIDDEN
10
0.105154
20
1.790723
30
0.0
11
0.101895
21
1.790723
31
0.0
0
LINE
8
FRONT_HID
6
HIDDEN
10
0.101895
20
1.790723
30
0.0
11
0.098637
21
1.790723
31
0.0
0
LINE
8
FRONT_HID
6
HIDDEN
10
0.098637
20
1.790723
30
0.0
11
0.095379
21
1.790723
31
0.0
0
LINE
8
FRONT_HID
6
HIDDEN
10
0.095379
20
1.790723
30
0.0
11
0.098637
21
1.790723
31
0.0
0
LINE
8
FRONT_HID
6
HIDDEN
10
0.098637
20
1.790723
30
0.0
11
0.101895
21
1.790723
31
0.0
0
LINE
8
FRONT_HID
6
HIDDEN
10
0.101895
20
1.790723
30
0.0
11
0.105154
21
1.790723
31
0.0
0
LINE
8
FRONT_HID
6
HIDDEN
10
0.105154
20
1.790723
30
0.0
11
0.108412
21
1.790723
31
0.0
0
LINE
8
FRONT_HID
6
HIDDEN
10
0.108412
20
1.790723
30
0.0
11
0.111670
21
1.790723
31
0.0
0
LINE
8
FRONT_HID
6
HIDDEN
10
0.111670
20
1.790723
30
0.0
11
0.114928
21
1.790723
31
0.0
0
LINE
8
FRONT_HID
6
HIDDEN
10
0.114928
20
1.790723
30
0.0
11
0.118186
21
1.790723
31
0.0
0
LINE
8
FRONT_HID
6
HIDDEN
10
0.118186
20
1.790723
30
0.0
11
0.121444
21
1.790723
31
0.0
0
LINE
8
FRONT_HID
6
HIDDEN
10
0.121444
20
1.790723
30
0.0
11
0.124702
21
1.790723
31
0.0
0
LINE
8
FRONT_HID
6
HIDDEN
10
0.124702
20
1.790723
30
0.0
11
0.127961
21
1.790723
31
0.0
0
LINE
8
FRONT_HID
6
HIDDEN
10
0.127961
20
1.790723
30
0.0
11
0.131219
21
1.790723
31
0.0
0
LINE
8
FRONT_HID
6
HIDDEN
10
0.131219
20
1.790723
30
0.0
11
0.134477
21
1.790723
31
0.0
0
LINE
8
FRONT_HID
6
HIDDEN
10
0.134477
20
1.790723
30
0.0
11
0.137735
21
1.790723
31
0.0
0
LINE
8
FRONT_HID
6
HIDDEN
10
0.137735
20
1.790723
30
0.0
11
0.140993
21
1.790723
31
0.0
0
LINE
8
FRONT_HID
6
HIDDEN
10
0.140993
20
1.790723
30
0.0
11
0.144251
21
1.790723
31
0.0
0
LINE
8
FRONT_HID
6
HIDDEN
10
0.144251
20
1.790723
30
0.0
11
0.147509
21
1.790723
31
0.0
0
LINE
8
FRONT_HID
6
HIDDEN
10
0.147509
20
1.790723
30
0.0
11
0.150768
21
1.790723
31
0.0
0
LINE
8
FRONT_HID
6
HIDDEN
10
0.150768
20
1.790723
30
0.0
11
0.154026
21
1.790723
31
0.0
0
LINE
8
FRONT_HID
6
HIDDEN
10
0.154026
20
1.790723
30
0.0
11
0.157284
21
1.790723
31
0.0
0
LINE
8
FRONT_HID
6
HIDDEN
10
0.157284
20
1.790723
30
0.0
11
0.160542
21
1.790723
31
0.0
0
LINE
8
FRONT_HID
6
HIDDEN
10
0.160542
20
1.790723
30
0.0
11
0.163800
21
1.790723
31
0.0
0
LINE
8
FRONT_HID
6
HIDDEN
10
0.163800
20
1.790723
30
0.0
11
0.167058
21
1.790723
31
0.0
0
LINE
8
FRONT_HID
6
HIDDEN
10
0.167058
20
1.790723
30
0.0
11
0.170316
21
1.790723
31
0.0
0
LINE
8
FRONT_HID
6
HIDDEN
10
0.170316
20
1.790723
30
0.0
11
0.173575
21
1.790723
31
0.0
0
LINE
8
FRONT_HID
6
HIDDEN
10
0.173575
20
1.790723
30
0.0
11
0.176833
21
1.790723
31
0.0
0
LINE
8
FRONT_HID
6
HIDDEN
10
0.176833
20
1.790723
30
0.0
11
0.180091
21
1.790723
31
0.0
0
LINE
8
FRONT_HID
6
HIDDEN
10
0.180091
20
1.790723
30
0.0
11
0.183349
21
1.790723
31
0.0
0
LINE
8
FRONT_HID
6
HIDDEN
10
0.183349
20
1.790723
30
0.0
11
0.186607
21
1.790723
31
0.0
0
LINE
8
FRONT_HID
6
HIDDEN
10
0.186607
20
1.790723
30
0.0
11
0.189865
21
1.790723
31
0.0
0
LINE
8
FRONT_HID
6
HIDDEN
10
0.189865
20
1.790723
30
0.0
11
0.193123
21
1.790723
31
0.0
0
LINE
8
FRONT_HID
6
HIDDEN
10
0.193123
20
1.790723
30
0.0
11
0.196382
21
1.790723
31
0.0
0
LINE
8
FRONT_HID
6
HIDDEN
10
0.094243
20
1.790723
30
0.0
11
0.188487
21
1.790723
31
0.0
0
LINE
8
FRONT_HID
6
HIDDEN
10
0.188487
20
1.790723
30
0.0
11
0.094243
21
1.790723
31
0.0
0
LINE
8
FRONT_HID
6
HIDDEN
10
0.298438
20
1.790723
30
0.0
11
1.193750
21
1.790723
31
0.0
0
LINE
8
FRONT_HID
6
HIDDEN
10
1.193750
20
1.790723
30
0.0
11
0.298438
21
1.790723
31
0.0
0
LINE
8
FRONT_HID
6
HIDDEN
10
1.319848
20
1.790723
30
0.0
11
1.303701
21
1.790723
31
0.0
0
LINE
8
FRONT_HID
6
HIDDEN
10
1.303701
20
1.790723
30
0.0
11
1.309647
21
1.790723
31
0.0
0
LINE
8
FRONT_HID
6
HIDDEN
10
1.303701
20
1.790723
30
0.0
11
1.397944
21
1.790723
31
0.0
0
LINE
8
FRONT_HID
6
HIDDEN
10
1.397944
20
1.790723
30
0.0
11
1.303701
21
1.790723
31
0.0
0
LINE
8
FRONT_HID
6
HIDDEN
10
1.319848
20
1.939160
30
0.0
11
1.319848
21
1.790723
31
0.0
0
LINE
8
FRONT_HID
6
HIDDEN
10
1.309647
20
1.939160
30
0.0
11
1.309647
21
1.790723
31
0.0
0
LINE
8
FRONT_HID
6
HIDDEN
10
1.407319
20
1.939160
30
0.0
11
1.309647
21
1.939160
31
0.0
0
LINE
8
FRONT_HID
6
HIDDEN
10
1.319848
20
1.939160
30
0.0
11
1.407319
21
1.939160
31
0.0
0
LINE
8
FRONT_HID
6
HIDDEN
10
0.188487
20
1.790723
30
0.0
11
0.185495
21
1.790723
31
0.0
0
LINE
8
FRONT_HID
6
HIDDEN
10
0.185495
20
1.790723
30
0.0
11
0.182503
21
1.790723
31
0.0
0
LINE
8
FRONT_HID
6
HIDDEN
10
0.182503
20
1.790723
30
0.0
11
0.179511
21
1.790723
31
0.0
0
LINE
8
FRONT_HID
6
HIDDEN
10
0.179511
20
1.790723
30
0.0
11
0.176519
21
1.790723
31
0.0
0
LINE
8
FRONT_HID
6
HIDDEN
10
0.176519
20
1.790723
30
0.0
11
0.173528
21
1.790723
31
0.0
0
LINE
8
FRONT_HID
6
HIDDEN
10
0.173528
20
1.790723
30
0.0
11
0.170536
21
1.790723
31
0.0
0
LINE
8
FRONT_HID
6
HIDDEN
10
0.170536
20
1.790723
30
0.0
11
0.167544
21
1.790723
31
0.0
0
LINE
8
FRONT_HID
6
HIDDEN
10
0.167544
20
1.790723
30
0.0
11
0.164552
21
1.790723
31
0.0
0
LINE
8
FRONT_HID
6
HIDDEN
10
0.164552
20
1.790723
30
0.0
11
0.161560
21
1.790723
31
0.0
0
LINE
8
FRONT_HID
6
HIDDEN
10
0.161560
20
1.790723
30
0.0
11
0.158568
21
1.790723
31
0.0
0
LINE
8
FRONT_HID
6
HIDDEN
10
0.158568
20
1.790723
30
0.0
11
0.155576
21
1.790723
31
0.0
0
LINE
8
FRONT_HID
6
HIDDEN
10
0.155576
20
1.790723
30
0.0
11
0.152585
21
1.790723
31
0.0
0
LINE
8
FRONT_HID
6
HIDDEN
10
0.152585
20
1.790723
30
0.0
11
0.149593
21
1.790723
31
0.0
0
LINE
8
FRONT_HID
6
HIDDEN
10
0.149593
20
1.790723
30
0.0
11
0.146601
21
1.790723
31
0.0
0
LINE
8
FRONT_HID
6
HIDDEN
10
0.146601
20
1.790723
30
0.0
11
0.143609
21
1.790723
31
0.0
0
LINE
8
FRONT_HID
6
HIDDEN
10
0.143609
20
1.790723
30
0.0
11
0.140617
21
1.790723
31
0.0
0
LINE
8
FRONT_HID
6
HIDDEN
10
0.140617
20
1.790723
30
0.0
11
0.137625
21
1.790723
31
0.0
0
LINE
8
FRONT_HID
6
HIDDEN
10
0.137625
20
1.790723
30
0.0
11
0.134633
21
1.790723
31
0.0
0
LINE
8
FRONT_HID
6
HIDDEN
10
0.134633
20
1.790723
30
0.0
11
0.131642
21
1.790723
31
0.0
0
LINE
8
FRONT_HID
6
HIDDEN
10
0.131642
20
1.790723
30
0.0
11
0.128650
21
1.790723
31
0.0
0
LINE
8
FRONT_HID
6
HIDDEN
10
0.128650
20
1.790723
30
0.0
11
0.125658
21
1.790723
31
0.0
0
LINE
8
FRONT_HID
6
HIDDEN
10
0.125658
20
1.790723
30
0.0
11
0.122666
21
1.790723
31
0.0
0
LINE
8
FRONT_HID
6
HIDDEN
10
0.122666
20
1.790723
30
0.0
11
0.119674
21
1.790723
31
0.0
0
LINE
8
FRONT_HID
6
HIDDEN
10
0.119674
20
1.790723
30
0.0
11
0.116682
21
1.790723
31
0.0
0
LINE
8
FRONT_HID
6
HIDDEN
10
0.116682
20
1.790723
30
0.0
11
0.113690
21
1.790723
31
0.0
0
LINE
8
FRONT_HID
6
HIDDEN
10
0.113690
20
1.790723
30
0.0
11
0.110699
21
1.790723
31
0.0
0
LINE
8
FRONT_HID
6
HIDDEN
10
0.110699
20
1.790723
30
0.0
11
0.107707
21
1.790723
31
0.0
0
LINE
8
FRONT_HID
6
HIDDEN
10
0.107707
20
1.790723
30
0.0
11
0.104715
21
1.790723
31
0.0
0
LINE
8
FRONT_HID
6
HIDDEN
10
0.104715
20
1.790723
30
0.0
11
0.101723
21
1.790723
31
0.0
0
LINE
8
FRONT_HID
6
HIDDEN
10
0.101723
20
1.790723
30
0.0
11
0.098731
21
1.790723
31
0.0
0
LINE
8
FRONT_HID
6
HIDDEN
10
0.098731
20
1.790723
30
0.0
11
0.095739
21
1.790723
31
0.0
0
LINE
8
FRONT_HID
6
HIDDEN
10
0.095739
20
1.790723
30
0.0
11
0.098731
21
1.790723
31
0.0
0
LINE
8
FRONT_HID
6
HIDDEN
10
0.098731
20
1.790723
30
0.0
11
0.101723
21
1.790723
31
0.0
0
LINE
8
FRONT_HID
6
HIDDEN
10
0.101723
20
1.790723
30
0.0
11
0.104715
21
1.790723
31
0.0
0
LINE
8
FRONT_HID
6
HIDDEN
10
0.104715
20
1.790723
30
0.0
11
0.107707
21
1.790723
31
0.0
0
LINE
8
FRONT_HID
6
HIDDEN
10
0.107707
20
1.790723
30
0.0
11
0.110699
21
1.790723
31
0.0
0
LINE
8
FRONT_HID
6
HIDDEN
10
0.110699
20
1.790723
30
0.0
11
0.113690
21
1.790723
31
0.0
0
LINE
8
FRONT_HID
6
HIDDEN
10
0.113690
20
1.790723
30
0.0
11
0.116682
21
1.790723
31
0.0
0
LINE
8
FRONT_HID
6
HIDDEN
10
0.116682
20
1.790723
30
0.0
11
0.119674
21
1.790723
31
0.0
0
LINE
8
FRONT_HID
6
HIDDEN
10
0.119674
20
1.790723
30
0.0
11
0.122666
21
1.790723
31
0.0
0
LINE
8
FRONT_HID
6
HIDDEN
10
0.122666
20
1.790723
30
0.0
11
0.125658
21
1.790723
31
0.0
0
LINE
8
FRONT_HID
6
HIDDEN
10
0.125658
20
1.790723
30
0.0
11
0.128650
21
1.790723
31
0.0
0
LINE
8
FRONT_HID
6
HIDDEN
10
0.128650
20
1.790723
30
0.0
11
0.131642
21
1.790723
31
0.0
0
LINE
8
FRONT_HID
6
HIDDEN
10
0.131642
20
1.790723
30
0.0
11
0.134633
21
1.790723
31
0.0
0
LINE
8
FRONT_HID
6
HIDDEN
10
0.134633
20
1.790723
30
0.0
11
0.137625
21
1.790723
31
0.0
0
LINE
8
FRONT_HID
6
HIDDEN
10
0.137625
20
1.790723
30
0.0
11
0.140617
21
1.790723
31
0.0
0
LINE
8
FRONT_HID
6
HIDDEN
10
0.140617
20
1.790723
30
0.0
11
0.143609
21
1.790723
31
0.0
0
LINE
8
FRONT_HID
6
HIDDEN
10
0.143609
20
1.790723
30
0.0
11
0.146601
21
1.790723
31
0.0
0
LINE
8
FRONT_HID
6
HIDDEN
10
0.146601
20
1.790723
30
0.0
11
0.149593
21
1.790723
31
0.0
0
LINE
8
FRONT_HID
6
HIDDEN
10
0.149593
20
1.790723
30
0.0
11
0.152585
21
1.790723
31
0.0
0
LINE
8
FRONT_HID
6
HIDDEN
10
0.152585
20
1.790723
30
0.0
11
0.155576
21
1.790723
31
0.0
0
LINE
8
FRONT_HID
6
HIDDEN
10
0.155576
20
1.790723
30
0.0
11
0.158568
21
1.790723
31
0.0
0
LINE
8
FRONT_HID
6
HIDDEN
10
0.158568
20
1.790723
30
0.0
11
0.161560
21
1.790723
31
0.0
0
LINE
8
FRONT_HID
6
HIDDEN
10
0.161560
20
1.790723
30
0.0
11
0.164552
21
1.790723
31
0.0
0
LINE
8
FRONT_HID
6
HIDDEN
10
0.164552
20
1.790723
30
0.0
11
0.167544
21
1.790723
31
0.0
0
LINE
8
FRONT_HID
6
HIDDEN
10
0.167544
20
1.790723
30
0.0
11
0.170536
21
1.790723
31
0.0
0
LINE
8
FRONT_HID
6
HIDDEN
10
0.170536
20
1.790723
30
0.0
11
0.173528
21
1.790723
31
0.0
0
LINE
8
FRONT_HID
6
HIDDEN
10
0.173528
20
1.790723
30
0.0
11
0.176519
21
1.790723
31
0.0
0
LINE
8
FRONT_HID
6
HIDDEN
10
0.176519
20
1.790723
30
0.0
11
0.179511
21
1.790723
31
0.0
0
LINE
8
FRONT_HID
6
HIDDEN
10
0.179511
20
1.790723
30
0.0
11
0.182503
21
1.790723
31
0.0
0
LINE
8
FRONT_HID
6
HIDDEN
10
0.182503
20
1.790723
30
0.0
11
0.185495
21
1.790723
31
0.0
0
LINE
8
FRONT_HID
6
HIDDEN
10
0.185495
20
1.790723
30
0.0
11
0.188487
21
1.790723
31
0.0
0
LINE
8
FRONT_HID
6
HIDDEN
10
0.094243
20
1.790723
30
0.0
11
0.094243
21
1.939160
31
0.0
0
LINE
8
FRONT_HID
6
HIDDEN
10
0.094243
20
1.939160
30
0.0
11
0.188487
21
1.939160
31
0.0
0
LINE
8
FRONT_HID
6
HIDDEN
10
0.188487
20
1.790723
30
0.0
11
0.188487
21
1.939160
31
0.0
0
LINE
8
FRONT_HID
6
HIDDEN
10
0.094243
20
1.790723
30
0.0
11
0.094243
21
1.939160
31
0.0
0
LINE
8
FRONT_HID
6
HIDDEN
10
0.188487
20
1.790723
30
0.0
11
0.188487
21
1.939160
31
0.0
0
LINE
8
FRONT_HID
6
HIDDEN
10
0.188487
20
1.939160
30
0.0
11
0.094243
21
1.939160
31
0.0
0
LINE
8
FRONT_HID
6
HIDDEN
10
0.298438
20
1.790723
30
0.0
11
0.298438
21
1.939160
31
0.0
0
LINE
8
FRONT_HID
6
HIDDEN
10
0.298438
20
1.939160
30
0.0
11
1.193750
21
1.939160
31
0.0
0
LINE
8
FRONT_HID
6
HIDDEN
10
1.193750
20
1.790723
30
0.0
11
1.193750
21
1.939160
31
0.0
0
LINE
8
FRONT_HID
6
HIDDEN
10
0.298438
20
1.790723
30
0.0
11
0.298438
21
1.939160
31
0.0
0
LINE
8
FRONT_HID
6
HIDDEN
10
1.193750
20
1.790723
30
0.0
11
1.193750
21
1.939160
31
0.0
0
LINE
8
FRONT_HID
6
HIDDEN
10
1.193750
20
1.939160
30
0.0
11
0.298438
21
1.939160
31
0.0
0
LINE
8
FRONT_HID
6
HIDDEN
10
1.319848
20
1.939160
30
0.0
11
1.303701
21
1.939160
31
0.0
0
LINE
8
FRONT_HID
6
HIDDEN
10
1.303701
20
1.939160
30
0.0
11
1.309647
21
1.939160
31
0.0
0
LINE
8
FRONT_HID
6
HIDDEN
10
1.303701
20
1.790723
30
0.0
11
1.303701
21
1.939160
31
0.0
0
LINE
8
FRONT_HID
6
HIDDEN
10
1.303701
20
1.939160
30
0.0
11
1.397944
21
1.939160
31
0.0
0
LINE
8
FRONT_HID
6
HIDDEN
10
1.397944
20
1.790723
30
0.0
11
1.397944
21
1.939160
31
0.0
0
LINE
8
FRONT_HID
6
HIDDEN
10
1.303701
20
1.790723
30
0.0
11
1.303701
21
1.939160
31
0.0
0
LINE
8
FRONT_HID
6
HIDDEN
10
1.397944
20
1.790723
30
0.0
11
1.397944
21
1.939160
31
0.0
0
LINE
8
FRONT_HID
6
HIDDEN
10
1.397944
20
1.939160
30
0.0
11
1.303701
21
1.939160
31
0.0
0
LINE
8
FRONT_HID
6
HIDDEN
10
0.196382
20
1.939160
30
0.0
11
0.093750
21
1.939160
31
0.0
0
LINE
8
FRONT_HID
6
HIDDEN
10
0.093750
20
1.939160
30
0.0
11
0.196382
21
1.939160
31
0.0
0
LINE
8
FRONT_HID
6
HIDDEN
10
1.304688
20
1.939160
30
0.0
11
1.304688
21
1.790723
31
0.0
0
LINE
8
FRONT_HID
6
HIDDEN
10
1.303701
20
1.939160
30
0.0
11
1.303701
21
1.790723
31
0.0
0
LINE
8
LEFT
10
2.905939
20
1.790723
30
0.0
11
3.282913
21
1.790723
31
0.0
0
LINE
8
LEFT
10
1.790642
20
1.790723
30
0.0
11
2.151992
21
1.790723
31
0.0
0
LINE
8
LEFT
10
2.151992
20
1.790723
30
0.0
11
2.905939
21
1.790723
31
0.0
0
LINE
8
LEFT
10
3.282913
20
1.790723
30
0.0
11
3.282913
21
1.939160
31
0.0
0
LINE
8
LEFT
10
2.905939
20
1.939160
30
0.0
11
3.282913
21
1.939160
31
0.0
0
LINE
8
LEFT
10
2.151992
20
1.790723
30
0.0
11
2.151992
21
1.939160
31
0.0
0
LINE
8
LEFT
10
2.151992
20
1.939160
30
0.0
11
2.905939
21
1.939160
31
0.0
0
LINE
8
LEFT
10
1.790642
20
1.939160
30
0.0
11
2.151992
21
1.939160
31
0.0
0
LINE
8
LEFT
10
2.682748
20
2.165723
30
0.0
11
2.785380
21
2.165723
31
0.0
0
LINE
8
LEFT
10
2.905939
20
1.790723
30
0.0
11
2.905939
21
1.939160
31
0.0
0
LINE
8
LEFT
10
1.790642
20
1.939160
30
0.0
11
1.790642
21
1.790723
31
0.0
0
LINE
8
LEFT
10
2.682748
20
2.165723
30
0.0
11
2.682748
21
1.939160
31
0.0
0
LINE
8
LEFT
10
2.785380
20
2.165723
30
0.0
11
2.785380
21
1.939160
31
0.0
0
LINE
8
LEFT_HID
6
HIDDEN
10
2.733159
20
1.790723
30
0.0
11
2.697648
21
1.790723
31
0.0
0
LINE
8
LEFT_HID
6
HIDDEN
10
2.756074
20
1.790723
30
0.0
11
2.733159
21
1.790723
31
0.0
0
LINE
8
LEFT_HID
6
HIDDEN
10
2.756074
20
1.790723
30
0.0
11
2.734064
21
1.790723
31
0.0
0
LINE
8
LEFT_HID
6
HIDDEN
10
2.734064
20
1.790723
30
0.0
11
2.697648
21
1.790723
31
0.0
0
LINE
8
LEFT_HID
6
HIDDEN
10
2.697648
20
1.790723
30
0.0
11
2.756074
21
1.790723
31
0.0
0
LINE
8
LEFT_HID
6
HIDDEN
10
1.790642
20
1.790723
30
0.0
11
1.790725
21
1.790723
31
0.0
0
LINE
8
LEFT_HID
6
HIDDEN
10
1.790725
20
1.790723
30
0.0
11
1.790642
21
1.790723
31
0.0
0
LINE
8
LEFT_HID
6
HIDDEN
10
2.734064
20
1.790723
30
0.0
11
2.730888
21
1.790723
31
0.0
0
LINE
8
LEFT_HID
6
HIDDEN
10
2.730888
20
1.790723
30
0.0
11
2.727711
21
1.790723
31
0.0
0
LINE
8
LEFT_HID
6
HIDDEN
10
2.727711
20
1.790723
30
0.0
11
2.724535
21
1.790723
31
0.0
0
LINE
8
LEFT_HID
6
HIDDEN
10
2.724535
20
1.790723
30
0.0
11
2.721358
21
1.790723
31
0.0
0
LINE
8
LEFT_HID
6
HIDDEN
10
2.721358
20
1.790723
30
0.0
11
2.718182
21
1.790723
31
0.0
0
LINE
8
LEFT_HID
6
HIDDEN
10
2.718182
20
1.790723
30
0.0
11
2.715005
21
1.790723
31
0.0
0
LINE
8
LEFT_HID
6
HIDDEN
10
2.715005
20
1.790723
30
0.0
11
2.711829
21
1.790723
31
0.0
0
LINE
8
LEFT_HID
6
HIDDEN
10
2.711829
20
1.790723
30
0.0
11
2.708652
21
1.790723
31
0.0
0
LINE
8
LEFT_HID
6
HIDDEN
10
2.708652
20
1.790723
30
0.0
11
2.705476
21
1.790723
31
0.0
0
LINE
8
LEFT_HID
6
HIDDEN
10
2.705476
20
1.790723
30
0.0
11
2.702299
21
1.790723
31
0.0
0
LINE
8
LEFT_HID
6
HIDDEN
10
2.702299
20
1.790723
30
0.0
11
2.699123
21
1.790723
31
0.0
0
LINE
8
LEFT_HID
6
HIDDEN
10
2.699123
20
1.790723
30
0.0
11
2.695947
21
1.790723
31
0.0
0
LINE
8
LEFT_HID
6
HIDDEN
10
2.695947
20
1.790723
30
0.0
11
2.692770
21
1.790723
31
0.0
0
LINE
8
LEFT_HID
6
HIDDEN
10
2.692770
20
1.790723
30
0.0
11
2.689594
21
1.790723
31
0.0
0
LINE
8
LEFT_HID
6
HIDDEN
10
2.689594
20
1.790723
30
0.0
11
2.686417
21
1.790723
31
0.0
0
LINE
8
LEFT_HID
6
HIDDEN
10
2.686417
20
1.790723
30
0.0
11
2.684829
21
1.790723
31
0.0
0
LINE
8
LEFT_HID
6
HIDDEN
10
2.684829
20
1.790723
30
0.0
11
2.688005
21
1.790723
31
0.0
0
LINE
8
LEFT_HID
6
HIDDEN
10
2.688005
20
1.790723
30
0.0
11
2.691182
21
1.790723
31
0.0
0
LINE
8
LEFT_HID
6
HIDDEN
10
2.691182
20
1.790723
30
0.0
11
2.694358
21
1.790723
31
0.0
0
LINE
8
LEFT_HID
6
HIDDEN
10
2.694358
20
1.790723
30
0.0
11
2.697535
21
1.790723
31
0.0
0
LINE
8
LEFT_HID
6
HIDDEN
10
2.697535
20
1.790723
30
0.0
11
2.700711
21
1.790723
31
0.0
0
LINE
8
LEFT_HID
6
HIDDEN
10
2.700711
20
1.790723
30
0.0
11
2.703888
21
1.790723
31
0.0
0
LINE
8
LEFT_HID
6
HIDDEN
10
2.703888
20
1.790723
30
0.0
11
2.707064
21
1.790723
31
0.0
0
LINE
8
LEFT_HID
6
HIDDEN
10
2.707064
20
1.790723
30
0.0
11
2.710241
21
1.790723
31
0.0
0
LINE
8
LEFT_HID
6
HIDDEN
10
2.710241
20
1.790723
30
0.0
11
2.713417
21
1.790723
31
0.0
0
LINE
8
LEFT_HID
6
HIDDEN
10
2.713417
20
1.790723
30
0.0
11
2.716594
21
1.790723
31
0.0
0
LINE
8
LEFT_HID
6
HIDDEN
10
2.716594
20
1.790723
30
0.0
11
2.719770
21
1.790723
31
0.0
0
LINE
8
LEFT_HID
6
HIDDEN
10
2.719770
20
1.790723
30
0.0
11
2.722946
21
1.790723
31
0.0
0
LINE
8
LEFT_HID
6
HIDDEN
10
2.722946
20
1.790723
30
0.0
11
2.726123
21
1.790723
31
0.0
0
LINE
8
LEFT_HID
6
HIDDEN
10
2.726123
20
1.790723
30
0.0
11
2.729299
21
1.790723
31
0.0
0
LINE
8
LEFT_HID
6
HIDDEN
10
2.729299
20
1.790723
30
0.0
11
2.732476
21
1.790723
31
0.0
0
LINE
8
LEFT_HID
6
HIDDEN
10
2.732476
20
1.790723
30
0.0
11
2.735652
21
1.790723
31
0.0
0
LINE
8
LEFT_HID
6
HIDDEN
10
2.735652
20
1.790723
30
0.0
11
2.738829
21
1.790723
31
0.0
0
LINE
8
LEFT_HID
6
HIDDEN
10
2.738829
20
1.790723
30
0.0
11
2.742005
21
1.790723
31
0.0
0
LINE
8
LEFT_HID
6
HIDDEN
10
2.742005
20
1.790723
30
0.0
11
2.745182
21
1.790723
31
0.0
0
LINE
8
LEFT_HID
6
HIDDEN
10
2.745182
20
1.790723
30
0.0
11
2.748358
21
1.790723
31
0.0
0
LINE
8
LEFT_HID
6
HIDDEN
10
2.748358
20
1.790723
30
0.0
11
2.751535
21
1.790723
31
0.0
0
LINE
8
LEFT_HID
6
HIDDEN
10
2.751535
20
1.790723
30
0.0
11
2.754711
21
1.790723
31
0.0
0
LINE
8
LEFT_HID
6
HIDDEN
10
2.754711
20
1.790723
30
0.0
11
2.757887
21
1.790723
31
0.0
0
LINE
8
LEFT_HID
6
HIDDEN
10
2.757887
20
1.790723
30
0.0
11
2.761064
21
1.790723
31
0.0
0
LINE
8
LEFT_HID
6
HIDDEN
10
2.761064
20
1.790723
30
0.0
11
2.764240
21
1.790723
31
0.0
0
LINE
8
LEFT_HID
6
HIDDEN
10
2.764240
20
1.790723
30
0.0
11
2.767417
21
1.790723
31
0.0
0
LINE
8
LEFT_HID
6
HIDDEN
10
2.767417
20
1.790723
30
0.0
11
2.770593
21
1.790723
31
0.0
0
LINE
8
LEFT_HID
6
HIDDEN
10
2.770593
20
1.790723
30
0.0
11
2.773770
21
1.790723
31
0.0
0
LINE
8
LEFT_HID
6
HIDDEN
10
2.773770
20
1.790723
30
0.0
11
2.776946
21
1.790723
31
0.0
0
LINE
8
LEFT_HID
6
HIDDEN
10
2.776946
20
1.790723
30
0.0
11
2.780123
21
1.790723
31
0.0
0
LINE
8
LEFT_HID
6
HIDDEN
10
2.780123
20
1.790723
30
0.0
11
2.783299
21
1.790723
31
0.0
0
LINE
8
LEFT_HID
6
HIDDEN
10
2.783299
20
1.790723
30
0.0
11
2.781711
21
1.790723
31
0.0
0
LINE
8
LEFT_HID
6
HIDDEN
10
2.781711
20
1.790723
30
0.0
11
2.778534
21
1.790723
31
0.0
0
LINE
8
LEFT_HID
6
HIDDEN
10
2.778534
20
1.790723
30
0.0
11
2.775358
21
1.790723
31
0.0
0
LINE
8
LEFT_HID
6
HIDDEN
10
2.775358
20
1.790723
30
0.0
11
2.772182
21
1.790723
31
0.0
0
LINE
8
LEFT_HID
6
HIDDEN
10
2.772182
20
1.790723
30
0.0
11
2.769005
21
1.790723
31
0.0
0
LINE
8
LEFT_HID
6
HIDDEN
10
2.769005
20
1.790723
30
0.0
11
2.765829
21
1.790723
31
0.0
0
LINE
8
LEFT_HID
6
HIDDEN
10
2.765829
20
1.790723
30
0.0
11
2.762652
21
1.790723
31
0.0
0
LINE
8
LEFT_HID
6
HIDDEN
10
2.762652
20
1.790723
30
0.0
11
2.759476
21
1.790723
31
0.0
0
LINE
8
LEFT_HID
6
HIDDEN
10
2.759476
20
1.790723
30
0.0
11
2.756299
21
1.790723
31
0.0
0
LINE
8
LEFT_HID
6
HIDDEN
10
2.756299
20
1.790723
30
0.0
11
2.753123
21
1.790723
31
0.0
0
LINE
8
LEFT_HID
6
HIDDEN
10
2.753123
20
1.790723
30
0.0
11
2.749946
21
1.790723
31
0.0
0
LINE
8
LEFT_HID
6
HIDDEN
10
2.749946
20
1.790723
30
0.0
11
2.746770
21
1.790723
31
0.0
0
LINE
8
LEFT_HID
6
HIDDEN
10
2.746770
20
1.790723
30
0.0
11
2.743593
21
1.790723
31
0.0
0
LINE
8
LEFT_HID
6
HIDDEN
10
2.743593
20
1.790723
30
0.0
11
2.740417
21
1.790723
31
0.0
0
LINE
8
LEFT_HID
6
HIDDEN
10
2.740417
20
1.790723
30
0.0
11
2.737241
21
1.790723
31
0.0
0
LINE
8
LEFT_HID
6
HIDDEN
10
2.737241
20
1.790723
30
0.0
11
2.734064
21
1.790723
31
0.0
0
LINE
8
LEFT_HID
6
HIDDEN
10
2.466136
20
1.790723
30
0.0
11
2.607502
21
1.790723
31
0.0
0
LINE
8
LEFT_HID
6
HIDDEN
10
2.607502
20
1.790723
30
0.0
11
2.466136
21
1.790723
31
0.0
0
LINE
8
LEFT_HID
6
HIDDEN
10
2.073456
20
1.790723
30
0.0
11
2.984475
21
1.790723
31
0.0
0
LINE
8
LEFT_HID
6
HIDDEN
10
2.984475
20
1.790723
30
0.0
11
2.073456
21
1.790723
31
0.0
0
LINE
8
LEFT_HID
6
HIDDEN
10
2.697648
20
1.790723
30
0.0
11
2.756074
21
1.790723
31
0.0
0
LINE
8
LEFT_HID
6
HIDDEN
10
2.466136
20
1.790723
30
0.0
11
2.607502
21
1.790723
31
0.0
0
LINE
8
LEFT_HID
6
HIDDEN
10
2.607502
20
1.790723
30
0.0
11
2.466136
21
1.790723
31
0.0
0
LINE
8
LEFT_HID
6
HIDDEN
10
2.697648
20
1.939160
30
0.0
11
2.697648
21
1.790723
31
0.0
0
LINE
8
LEFT_HID
6
HIDDEN
10
2.756074
20
1.939160
30
0.0
11
2.756074
21
1.790723
31
0.0
0
LINE
8
LEFT_HID
6
HIDDEN
10
2.734064
20
1.939160
30
0.0
11
2.785380
21
1.939160
31
0.0
0
LINE
8
LEFT_HID
6
HIDDEN
10
2.785380
20
1.939160
30
0.0
11
2.756074
21
1.939160
31
0.0
0
LINE
8
LEFT_HID
6
HIDDEN
10
2.734064
20
2.165723
30
0.0
11
2.682748
21
2.165723
31
0.0
0
LINE
8
LEFT_HID
6
HIDDEN
10
2.785380
20
2.165723
30
0.0
11
2.734064
21
2.165723
31
0.0
0
LINE
8
LEFT_HID
6
HIDDEN
10
2.697648
20
1.939160
30
0.0
11
2.682748
21
1.939160
31
0.0
0
LINE
8
LEFT_HID
6
HIDDEN
10
2.682748
20
1.939160
30
0.0
11
2.734064
21
1.939160
31
0.0
0
LINE
8
LEFT_HID
6
HIDDEN
10
1.790725
20
1.939160
30
0.0
11
1.790642
21
1.939160
31
0.0
0
LINE
8
LEFT_HID
6
HIDDEN
10
1.790725
20
1.790723
30
0.0
11
1.790725
21
1.939160
31
0.0
0
LINE
8
LEFT_HID
6
HIDDEN
10
1.790725
20
1.790723
30
0.0
11
1.790725
21
1.939160
31
0.0
0
LINE
8
LEFT_HID
6
HIDDEN
10
1.790642
20
1.939160
30
0.0
11
1.790725
21
1.939160
31
0.0
0
LINE
8
LEFT_HID
6
HIDDEN
10
2.733159
20
1.790723
30
0.0
11
2.730243
21
1.790723
31
0.0
0
LINE
8
LEFT_HID
6
HIDDEN
10
2.730243
20
1.790723
30
0.0
11
2.727326
21
1.790723
31
0.0
0
LINE
8
LEFT_HID
6
HIDDEN
10
2.727326
20
1.790723
30
0.0
11
2.724409
21
1.790723
31
0.0
0
LINE
8
LEFT_HID
6
HIDDEN
10
2.724409
20
1.790723
30
0.0
11
2.721492
21
1.790723
31
0.0
0
LINE
8
LEFT_HID
6
HIDDEN
10
2.721492
20
1.790723
30
0.0
11
2.718575
21
1.790723
31
0.0
0
LINE
8
LEFT_HID
6
HIDDEN
10
2.718575
20
1.790723
30
0.0
11
2.715658
21
1.790723
31
0.0
0
LINE
8
LEFT_HID
6
HIDDEN
10
2.715658
20
1.790723
30
0.0
11
2.712742
21
1.790723
31
0.0
0
LINE
8
LEFT_HID
6
HIDDEN
10
2.712742
20
1.790723
30
0.0
11
2.709825
21
1.790723
31
0.0
0
LINE
8
LEFT_HID
6
HIDDEN
10
2.709825
20
1.790723
30
0.0
11
2.706908
21
1.790723
31
0.0
0
LINE
8
LEFT_HID
6
HIDDEN
10
2.706908
20
1.790723
30
0.0
11
2.703991
21
1.790723
31
0.0
0
LINE
8
LEFT_HID
6
HIDDEN
10
2.703991
20
1.790723
30
0.0
11
2.701074
21
1.790723
31
0.0
0
LINE
8
LEFT_HID
6
HIDDEN
10
2.701074
20
1.790723
30
0.0
11
2.698157
21
1.790723
31
0.0
0
LINE
8
LEFT_HID
6
HIDDEN
10
2.698157
20
1.790723
30
0.0
11
2.695241
21
1.790723
31
0.0
0
LINE
8
LEFT_HID
6
HIDDEN
10
2.695241
20
1.790723
30
0.0
11
2.692324
21
1.790723
31
0.0
0
LINE
8
LEFT_HID
6
HIDDEN
10
2.692324
20
1.790723
30
0.0
11
2.689407
21
1.790723
31
0.0
0
LINE
8
LEFT_HID
6
HIDDEN
10
2.689407
20
1.790723
30
0.0
11
2.687948
21
1.790723
31
0.0
0
LINE
8
LEFT_HID
6
HIDDEN
10
2.687948
20
1.790723
30
0.0
11
2.690865
21
1.790723
31
0.0
0
LINE
8
LEFT_HID
6
HIDDEN
10
2.690865
20
1.790723
30
0.0
11
2.693782
21
1.790723
31
0.0
0
LINE
8
LEFT_HID
6
HIDDEN
10
2.693782
20
1.790723
30
0.0
11
2.696699
21
1.790723
31
0.0
0
LINE
8
LEFT_HID
6
HIDDEN
10
2.696699
20
1.790723
30
0.0
11
2.699616
21
1.790723
31
0.0
0
LINE
8
LEFT_HID
6
HIDDEN
10
2.699616
20
1.790723
30
0.0
11
2.702533
21
1.790723
31
0.0
0
LINE
8
LEFT_HID
6
HIDDEN
10
2.702533
20
1.790723
30
0.0
11
2.705449
21
1.790723
31
0.0
0
LINE
8
LEFT_HID
6
HIDDEN
10
2.705449
20
1.790723
30
0.0
11
2.708366
21
1.790723
31
0.0
0
LINE
8
LEFT_HID
6
HIDDEN
10
2.708366
20
1.790723
30
0.0
11
2.711283
21
1.790723
31
0.0
0
LINE
8
LEFT_HID
6
HIDDEN
10
2.711283
20
1.790723
30
0.0
11
2.714200
21
1.790723
31
0.0
0
LINE
8
LEFT_HID
6
HIDDEN
10
2.714200
20
1.790723
30
0.0
11
2.717117
21
1.790723
31
0.0
0
LINE
8
LEFT_HID
6
HIDDEN
10
2.717117
20
1.790723
30
0.0
11
2.720034
21
1.790723
31
0.0
0
LINE
8
LEFT_HID
6
HIDDEN
10
2.720034
20
1.790723
30
0.0
11
2.722951
21
1.790723
31
0.0
0
LINE
8
LEFT_HID
6
HIDDEN
10
2.722951
20
1.790723
30
0.0
11
2.725867
21
1.790723
31
0.0
0
LINE
8
LEFT_HID
6
HIDDEN
10
2.725867
20
1.790723
30
0.0
11
2.728784
21
1.790723
31
0.0
0
LINE
8
LEFT_HID
6
HIDDEN
10
2.728784
20
1.790723
30
0.0
11
2.731701
21
1.790723
31
0.0
0
LINE
8
LEFT_HID
6
HIDDEN
10
2.731701
20
1.790723
30
0.0
11
2.734618
21
1.790723
31
0.0
0
LINE
8
LEFT_HID
6
HIDDEN
10
2.734618
20
1.790723
30
0.0
11
2.737535
21
1.790723
31
0.0
0
LINE
8
LEFT_HID
6
HIDDEN
10
2.737535
20
1.790723
30
0.0
11
2.740452
21
1.790723
31
0.0
0
LINE
8
LEFT_HID
6
HIDDEN
10
2.740452
20
1.790723
30
0.0
11
2.743368
21
1.790723
31
0.0
0
LINE
8
LEFT_HID
6
HIDDEN
10
2.743368
20
1.790723
30
0.0
11
2.746285
21
1.790723
31
0.0
0
LINE
8
LEFT_HID
6
HIDDEN
10
2.746285
20
1.790723
30
0.0
11
2.749202
21
1.790723
31
0.0
0
LINE
8
LEFT_HID
6
HIDDEN
10
2.749202
20
1.790723
30
0.0
11
2.752119
21
1.790723
31
0.0
0
LINE
8
LEFT_HID
6
HIDDEN
10
2.752119
20
1.790723
30
0.0
11
2.755036
21
1.790723
31
0.0
0
LINE
8
LEFT_HID
6
HIDDEN
10
2.755036
20
1.790723
30
0.0
11
2.757953
21
1.790723
31
0.0
0
LINE
8
LEFT_HID
6
HIDDEN
10
2.757953
20
1.790723
30
0.0
11
2.760869
21
1.790723
31
0.0
0
LINE
8
LEFT_HID
6
HIDDEN
10
2.760869
20
1.790723
30
0.0
11
2.763786
21
1.790723
31
0.0
0
LINE
8
LEFT_HID
6
HIDDEN
10
2.763786
20
1.790723
30
0.0
11
2.766703
21
1.790723
31
0.0
0
LINE
8
LEFT_HID
6
HIDDEN
10
2.766703
20
1.790723
30
0.0
11
2.769620
21
1.790723
31
0.0
0
LINE
8
LEFT_HID
6
HIDDEN
10
2.769620
20
1.790723
30
0.0
11
2.772537
21
1.790723
31
0.0
0
LINE
8
LEFT_HID
6
HIDDEN
10
2.772537
20
1.790723
30
0.0
11
2.775454
21
1.790723
31
0.0
0
LINE
8
LEFT_HID
6
HIDDEN
10
2.775454
20
1.790723
30
0.0
11
2.778371
21
1.790723
31
0.0
0
LINE
8
LEFT_HID
6
HIDDEN
10
2.778371
20
1.790723
30
0.0
11
2.776912
21
1.790723
31
0.0
0
LINE
8
LEFT_HID
6
HIDDEN
10
2.776912
20
1.790723
30
0.0
11
2.773995
21
1.790723
31
0.0
0
LINE
8
LEFT_HID
6
HIDDEN
10
2.773995
20
1.790723
30
0.0
11
2.771078
21
1.790723
31
0.0
0
LINE
8
LEFT_HID
6
HIDDEN
10
2.771078
20
1.790723
30
0.0
11
2.768162
21
1.790723
31
0.0
0
LINE
8
LEFT_HID
6
HIDDEN
10
2.768162
20
1.790723
30
0.0
11
2.765245
21
1.790723
31
0.0
0
LINE
8
LEFT_HID
6
HIDDEN
10
2.765245
20
1.790723
30
0.0
11
2.762328
21
1.790723
31
0.0
0
LINE
8
LEFT_HID
6
HIDDEN
10
2.762328
20
1.790723
30
0.0
11
2.759411
21
1.790723
31
0.0
0
LINE
8
LEFT_HID
6
HIDDEN
10
2.759411
20
1.790723
30
0.0
11
2.756494
21
1.790723
31
0.0
0
LINE
8
LEFT_HID
6
HIDDEN
10
2.756494
20
1.790723
30
0.0
11
2.753577
21
1.790723
31
0.0
0
LINE
8
LEFT_HID
6
HIDDEN
10
2.753577
20
1.790723
30
0.0
11
2.750661
21
1.790723
31
0.0
0
LINE
8
LEFT_HID
6
HIDDEN
10
2.750661
20
1.790723
30
0.0
11
2.747744
21
1.790723
31
0.0
0
LINE
8
LEFT_HID
6
HIDDEN
10
2.747744
20
1.790723
30
0.0
11
2.744827
21
1.790723
31
0.0
0
LINE
8
LEFT_HID
6
HIDDEN
10
2.744827
20
1.790723
30
0.0
11
2.741910
21
1.790723
31
0.0
0
LINE
8
LEFT_HID
6
HIDDEN
10
2.741910
20
1.790723
30
0.0
11
2.738993
21
1.790723
31
0.0
0
LINE
8
LEFT_HID
6
HIDDEN
10
2.738993
20
1.790723
30
0.0
11
2.736076
21
1.790723
31
0.0
0
LINE
8
LEFT_HID
6
HIDDEN
10
2.736076
20
1.790723
30
0.0
11
2.733159
21
1.790723
31
0.0
0
LINE
8
LEFT_HID
6
HIDDEN
10
2.607502
20
1.790723
30
0.0
11
2.607502
21
1.939160
31
0.0
0
LINE
8
LEFT_HID
6
HIDDEN
10
2.607502
20
1.790723
30
0.0
11
2.607502
21
1.939160
31
0.0
0
LINE
8
LEFT_HID
6
HIDDEN
10
2.466136
20
1.790723
30
0.0
11
2.466136
21
1.939160
31
0.0
0
LINE
8
LEFT_HID
6
HIDDEN
10
2.466136
20
1.939160
30
0.0
11
2.607502
21
1.939160
31
0.0
0
LINE
8
LEFT_HID
6
HIDDEN
10
2.607502
20
1.939160
30
0.0
11
2.466136
21
1.939160
31
0.0
0
LINE
8
LEFT_HID
6
HIDDEN
10
2.466136
20
1.790723
30
0.0
11
2.466136
21
1.939160
31
0.0
0
LINE
8
LEFT_HID
6
HIDDEN
10
2.984475
20
1.790723
30
0.0
11
2.984475
21
1.939160
31
0.0
0
LINE
8
LEFT_HID
6
HIDDEN
10
2.984475
20
1.790723
30
0.0
11
2.984475
21
1.939160
31
0.0
0
LINE
8
LEFT_HID
6
HIDDEN
10
2.073456
20
1.790723
30
0.0
11
2.073456
21
1.939160
31
0.0
0
LINE
8
LEFT_HID
6
HIDDEN
10
2.073456
20
1.939160
30
0.0
11
2.984475
21
1.939160
31
0.0
0
LINE
8
LEFT_HID
6
HIDDEN
10
2.984475
20
1.939160
30
0.0
11
2.073456
21
1.939160
31
0.0
0
LINE
8
LEFT_HID
6
HIDDEN
10
2.073456
20
1.790723
30
0.0
11
2.073456
21
1.939160
31
0.0
0
LINE
8
LEFT_HID
6
HIDDEN
10
2.697648
20
1.939160
30
0.0
11
2.756074
21
1.939160
31
0.0
0
LINE
8
LEFT_HID
6
HIDDEN
10
2.607502
20
1.790723
30
0.0
11
2.607502
21
1.939160
31
0.0
0
LINE
8
LEFT_HID
6
HIDDEN
10
2.607502
20
1.790723
30
0.0
11
2.607502
21
1.939160
31
0.0
0
LINE
8
LEFT_HID
6
HIDDEN
10
2.466136
20
1.790723
30
0.0
11
2.466136
21
1.939160
31
0.0
0
LINE
8
LEFT_HID
6
HIDDEN
10
2.466136
20
1.939160
30
0.0
11
2.607502
21
1.939160
31
0.0
0
LINE
8
LEFT_HID
6
HIDDEN
10
2.607502
20
1.939160
30
0.0
11
2.466136
21
1.939160
31
0.0
0
LINE
8
LEFT_HID
6
HIDDEN
10
2.466136
20
1.790723
30
0.0
11
2.466136
21
1.939160
31
0.0
0
LINE
8
LEFT_HID
6
HIDDEN
10
2.734064
20
1.939160
30
0.0
11
2.785380
21
1.939160
31
0.0
0
LINE
8
LEFT_HID
6
HIDDEN
10
2.785380
20
1.939160
30
0.0
11
2.682748
21
1.939160
31
0.0
0
LINE
8
LEFT_HID
6
HIDDEN
10
2.682748
20
1.939160
30
0.0
11
2.734064
21
1.939160
31
0.0
0
LINE
8
LEFT_HID
6
HIDDEN
10
2.734064
20
2.165723
30
0.0
11
2.682748
21
2.165723
31
0.0
0
LINE
8
LEFT_HID
6
HIDDEN
10
2.785380
20
2.165723
30
0.0
11
2.734064
21
2.165723
31
0.0
0
LINE
8
TOP
10
1.407319
20
0.548849
30
0.0
11
1.407064
21
0.553958
31
0.0
0
LINE
8
TOP
10
1.407064
20
0.553958
30
0.0
11
1.406302
21
0.559017
31
0.0
0
LINE
8
TOP
10
1.406302
20
0.559017
30
0.0
11
1.405039
21
0.563974
31
0.0
0
LINE
8
TOP
10
1.405039
20
0.563974
30
0.0
11
1.403290
21
0.568782
31
0.0
0
LINE
8
TOP
10
1.403290
20
0.568782
30
0.0
11
1.401070
21
0.573391
31
0.0
0
LINE
8
TOP
10
1.401070
20
0.573391
30
0.0
11
1.398402
21
0.577756
31
0.0
0
LINE
8
TOP
10
1.398402
20
0.577756
30
0.0
11
1.395313
21
0.581834
31
0.0
0
LINE
8
TOP
10
1.395313
20
0.581834
30
0.0
11
1.391834
21
0.585584
31
0.0
0
LINE
8
TOP
10
1.391834
20
0.585584
30
0.0
11
1.387998
21
0.588969
31
0.0
0
LINE
8
TOP
10
1.387998
20
0.588969
30
0.0
11
1.383844
21
0.591955
31
0.0
0
LINE
8
TOP
10
1.383844
20
0.591955
30
0.0
11
1.379414
21
0.594513
31
0.0
0
LINE
8
TOP
10
1.379414
20
0.594513
30
0.0
11
1.374751
21
0.596617
31
0.0
0
LINE
8
TOP
10
1.374751
20
0.596617
30
0.0
11
1.369902
21
0.598247
31
0.0
0
LINE
8
TOP
10
1.369902
20
0.598247
30
0.0
11
1.364914
21
0.599385
31
0.0
0
LINE
8
TOP
10
1.364914
20
0.599385
30
0.0
11
1.359838
21
0.600021
31
0.0
0
LINE
8
TOP
10
1.359838
20
0.600021
30
0.0
11
1.354724
21
0.600149
31
0.0
0
LINE
8
TOP
10
1.354724
20
0.600149
30
0.0
11
1.349622
21
0.599766
31
0.0
0
LINE
8
TOP
10
1.349622
20
0.599766
30
0.0
11
1.344584
21
0.598878
31
0.0
0
LINE
8
TOP
10
1.344584
20
0.598878
30
0.0
11
1.339660
21
0.597492
31
0.0
0
LINE
8
TOP
10
1.339660
20
0.597492
30
0.0
11
1.334898
21
0.595623
31
0.0
0
LINE
8
TOP
10
1.334898
20
0.595623
30
0.0
11
1.330345
21
0.593289
31
0.0
0
LINE
8
TOP
10
1.330345
20
0.593289
30
0.0
11
1.326048
21
0.590514
31
0.0
0
LINE
8
TOP
10
1.326048
20
0.590514
30
0.0
11
1.322048
21
0.587324
31
0.0
0
LINE
8
TOP
10
1.322048
20
0.587324
30
0.0
11
1.318386
21
0.583752
31
0.0
0
LINE
8
TOP
10
1.318386
20
0.583752
30
0.0
11
1.315098
21
0.579833
31
0.0
0
LINE
8
TOP
10
1.315098
20
0.579833
30
0.0
11
1.312216
21
0.575607
31
0.0
0
LINE
8
TOP
10
1.312216
20
0.575607
30
0.0
11
1.309769
21
0.571114
31
0.0
0
LINE
8
TOP
10
1.309769
20
0.571114
30
0.0
11
1.307782
21
0.566400
31
0.0
0
LINE
8
TOP
10
1.307782
20
0.566400
30
0.0
11
1.306274
21
0.561511
31
0.0
0
LINE
8
TOP
10
1.306274
20
0.561511
30
0.0
11
1.305261
21
0.556497
31
0.0
0
LINE
8
TOP
10
1.305261
20
0.556497
30
0.0
11
1.304751
21
0.551407
31
0.0
0
LINE
8
TOP
10
1.304751
20
0.551407
30
0.0
11
1.304751
21
0.546291
31
0.0
0
LINE
8
TOP
10
1.304751
20
0.546291
30
0.0
11
1.305261
21
0.541200
31
0.0
0
LINE
8
TOP
10
1.305261
20
0.541200
30
0.0
11
1.306274
21
0.536186
31
0.0
0
LINE
8
TOP
10
1.306274
20
0.536186
30
0.0
11
1.307782
21
0.531298
31
0.0
0
LINE
8
TOP
10
1.307782
20
0.531298
30
0.0
11
1.309769
21
0.526584
31
0.0
0
LINE
8
TOP
10
1.309769
20
0.526584
30
0.0
11
1.312216
21
0.522091
31
0.0
0
LINE
8
TOP
10
1.312216
20
0.522091
30
0.0
11
1.315098
21
0.517864
31
0.0
0
LINE
8
TOP
10
1.315098
20
0.517864
30
0.0
11
1.318386
21
0.513945
31
0.0
0
LINE
8
TOP
10
1.318386
20
0.513945
30
0.0
11
1.322048
21
0.510373
31
0.0
0
LINE
8
TOP
10
1.322048
20
0.510373
30
0.0
11
1.326048
21
0.507183
31
0.0
0
LINE
8
TOP
10
1.326048
20
0.507183
30
0.0
11
1.330345
21
0.504408
31
0.0
0
LINE
8
TOP
10
1.330345
20
0.504408
30
0.0
11
1.334898
21
0.502074
31
0.0
0
LINE
8
TOP
10
1.334898
20
0.502074
30
0.0
11
1.339660
21
0.500205
31
0.0
0
LINE
8
TOP
10
1.339660
20
0.500205
30
0.0
11
1.344584
21
0.498819
31
0.0
0
LINE
8
TOP
10
1.344584
20
0.498819
30
0.0
11
1.349622
21
0.497931
31
0.0
0
LINE
8
TOP
10
1.349622
20
0.497931
30
0.0
11
1.354724
21
0.497549
31
0.0
0
LINE
8
TOP
10
1.354724
20
0.497549
30
0.0
11
1.359838
21
0.497676
31
0.0
0
LINE
8
TOP
10
1.359838
20
0.497676
30
0.0
11
1.364914
21
0.498312
31
0.0
0
LINE
8
TOP
10
1.364914
20
0.498312
30
0.0
11
1.369902
21
0.499451
31
0.0
0
LINE
8
TOP
10
1.369902
20
0.499451
30
0.0
11
1.374751
21
0.501080
31
0.0
0
LINE
8
TOP
10
1.374751
20
0.501080
30
0.0
11
1.379414
21
0.503184
31
0.0
0
LINE
8
TOP
10
1.379414
20
0.503184
30
0.0
11
1.383844
21
0.505742
31
0.0
0
LINE
8
TOP
10
1.383844
20
0.505742
30
0.0
11
1.387998
21
0.508728
31
0.0
0
LINE
8
TOP
10
1.387998
20
0.508728
30
0.0
11
1.391834
21
0.512113
31
0.0
0
LINE
8
TOP
10
1.391834
20
0.512113
30
0.0
11
1.395313
21
0.515864
31
0.0
0
LINE
8
TOP
10
1.395313
20
0.515864
30
0.0
11
1.398402
21
0.519941
31
0.0
0
LINE
8
TOP
10
1.398402
20
0.519941
30
0.0
11
1.401070
21
0.524307
31
0.0
0
LINE
8
TOP
10
1.401070
20
0.524307
30
0.0
11
1.403290
21
0.528916
31
0.0
0
LINE
8
TOP
10
1.403290
20
0.528916
30
0.0
11
1.405039
21
0.533723
31
0.0
0
LINE
8
TOP
10
1.405039
20
0.533723
30
0.0
11
1.406302
21
0.538681
31
0.0
0
LINE
8
TOP
10
1.406302
20
0.538681
30
0.0
11
1.407064
21
0.543739
31
0.0
0
LINE
8
TOP
10
1.407064
20
0.543739
30
0.0
11
1.407319
21
0.548849
31
0.0
0
LINE
8
TOP
10
0.000000
20
0.376974
30
0.0
11
0.000117
21
0.367575
31
0.0
0
LINE
8
TOP
10
0.000117
20
0.367575
30
0.0
11
0.000469
21
0.358183
31
0.0
0
LINE
8
TOP
10
0.000469
20
0.358183
30
0.0
11
0.001054
21
0.348802
31
0.0
0
LINE
8
TOP
10
0.001054
20
0.348802
30
0.0
11
0.001873
21
0.339439
31
0.0
0
LINE
8
TOP
10
0.001873
20
0.339439
30
0.0
11
0.002926
21
0.330099
31
0.0
0
LINE
8
TOP
10
0.002926
20
0.330099
30
0.0
11
0.004210
21
0.320789
31
0.0
0
LINE
8
TOP
10
0.004210
20
0.320789
30
0.0
11
0.005727
21
0.311513
31
0.0
0
LINE
8
TOP
10
0.005727
20
0.311513
30
0.0
11
0.007474
21
0.302278
31
0.0
0
LINE
8
TOP
10
0.007474
20
0.302278
30
0.0
11
0.009452
21
0.293089
31
0.0
0
LINE
8
TOP
10
0.009452
20
0.293089
30
0.0
11
0.011657
21
0.283953
31
0.0
0
LINE
8
TOP
10
0.011657
20
0.283953
30
0.0
11
0.014090
21
0.274874
31
0.0
0
LINE
8
TOP
10
0.014090
20
0.274874
30
0.0
11
0.016748
21
0.265859
31
0.0
0
LINE
8
TOP
10
0.016748
20
0.265859
30
0.0
11
0.019630
21
0.256913
31
0.0
0
LINE
8
TOP
10
0.019630
20
0.256913
30
0.0
11
0.022734
21
0.248041
31
0.0
0
LINE
8
TOP
10
0.022734
20
0.248041
30
0.0
11
0.026059
21
0.239250
31
0.0
0
LINE
8
TOP
10
0.026059
20
0.239250
30
0.0
11
0.029601
21
0.230544
31
0.0
0
LINE
8
TOP
10
0.029601
20
0.230544
30
0.0
11
0.033360
21
0.221929
31
0.0
0
LINE
8
TOP
10
0.033360
20
0.221929
30
0.0
11
0.037332
21
0.213411
31
0.0
0
LINE
8
TOP
10
0.037332
20
0.213411
30
0.0
11
0.041515
21
0.204994
31
0.0
0
LINE
8
TOP
10
0.041515
20
0.204994
30
0.0
11
0.045907
21
0.196685
31
0.0
0
LINE
8
TOP
10
0.045907
20
0.196685
30
0.0
11
0.050505
21
0.188487
31
0.0
0
LINE
8
TOP
10
0.050505
20
0.188487
30
0.0
11
0.055305
21
0.180406
31
0.0
0
LINE
8
TOP
10
0.055305
20
0.180406
30
0.0
11
0.060306
21
0.172448
31
0.0
0
LINE
8
TOP
10
0.060306
20
0.172448
30
0.0
11
0.065503
21
0.164617
31
0.0
0
LINE
8
TOP
10
0.065503
20
0.164617
30
0.0
11
0.070894
21
0.156918
31
0.0
0
LINE
8
TOP
10
0.070894
20
0.156918
30
0.0
11
0.076476
21
0.149355
31
0.0
0
LINE
8
TOP
10
0.076476
20
0.149355
30
0.0
11
0.082244
21
0.141934
31
0.0
0
LINE
8
TOP
10
0.082244
20
0.141934
30
0.0
11
0.088195
21
0.134660
31
0.0
0
LINE
8
TOP
10
0.088195
20
0.134660
30
0.0
11
0.094326
21
0.127536
31
0.0
0
LINE
8
TOP
10
0.094326
20
0.127536
30
0.0
11
0.100632
21
0.120566
31
0.0
0
LINE
8
TOP
10
0.100632
20
0.120566
30
0.0
11
0.107111
21
0.113757
31
0.0
0
LINE
8
TOP
10
0.107111
20
0.113757
30
0.0
11
0.113757
21
0.107111
31
0.0
0
LINE
8
TOP
10
0.113757
20
0.107111
30
0.0
11
0.120566
21
0.100632
31
0.0
0
LINE
8
TOP
10
0.120566
20
0.100632
30
0.0
11
0.127536
21
0.094326
31
0.0
0
LINE
8
TOP
10
0.127536
20
0.094326
30
0.0
11
0.134660
21
0.088195
31
0.0
0
LINE
8
TOP
10
0.134660
20
0.088195
30
0.0
11
0.141934
21
0.082244
31
0.0
0
LINE
8
TOP
10
0.141934
20
0.082244
30
0.0
11
0.149355
21
0.076476
31
0.0
0
LINE
8
TOP
10
0.149355
20
0.076476
30
0.0
11
0.156918
21
0.070894
31
0.0
0
LINE
8
TOP
10
0.156918
20
0.070894
30
0.0
11
0.164617
21
0.065503
31
0.0
0
LINE
8
TOP
10
0.164617
20
0.065503
30
0.0
11
0.172448
21
0.060306
31
0.0
0
LINE
8
TOP
10
0.172448
20
0.060306
30
0.0
11
0.180406
21
0.055305
31
0.0
0
LINE
8
TOP
10
0.180406
20
0.055305
30
0.0
11
0.188487
21
0.050505
31
0.0
0
LINE
8
TOP
10
0.188487
20
0.050505
30
0.0
11
0.196685
21
0.045907
31
0.0
0
LINE
8
TOP
10
0.196685
20
0.045907
30
0.0
11
0.204994
21
0.041515
31
0.0
0
LINE
8
TOP
10
0.204994
20
0.041515
30
0.0
11
0.213411
21
0.037332
31
0.0
0
LINE
8
TOP
10
0.213411
20
0.037332
30
0.0
11
0.221929
21
0.033360
31
0.0
0
LINE
8
TOP
10
0.221929
20
0.033360
30
0.0
11
0.230544
21
0.029601
31
0.0
0
LINE
8
TOP
10
0.230544
20
0.029601
30
0.0
11
0.239250
21
0.026059
31
0.0
0
LINE
8
TOP
10
0.239250
20
0.026059
30
0.0
11
0.248041
21
0.022734
31
0.0
0
LINE
8
TOP
10
0.248041
20
0.022734
30
0.0
11
0.256913
21
0.019630
31
0.0
0
LINE
8
TOP
10
0.256913
20
0.019630
30
0.0
11
0.265859
21
0.016748
31
0.0
0
LINE
8
TOP
10
0.265859
20
0.016748
30
0.0
11
0.274874
21
0.014090
31
0.0
0
LINE
8
TOP
10
0.274874
20
0.014090
30
0.0
11
0.283953
21
0.011657
31
0.0
0
LINE
8
TOP
10
0.283953
20
0.011657
30
0.0
11
0.293089
21
0.009452
31
0.0
0
LINE
8
TOP
10
0.293089
20
0.009452
30
0.0
11
0.302278
21
0.007474
31
0.0
0
LINE
8
TOP
10
0.302278
20
0.007474
30
0.0
11
0.311513
21
0.005727
31
0.0
0
LINE
8
TOP
10
0.311513
20
0.005727
30
0.0
11
0.320789
21
0.004210
31
0.0
0
LINE
8
TOP
10
0.320789
20
0.004210
30
0.0
11
0.330099
21
0.002926
31
0.0
0
LINE
8
TOP
10
0.330099
20
0.002926
30
0.0
11
0.339439
21
0.001873
31
0.0
0
LINE
8
TOP
10
0.339439
20
0.001873
30
0.0
11
0.348802
21
0.001054
31
0.0
0
LINE
8
TOP
10
0.348802
20
0.001054
30
0.0
11
0.358183
21
0.000469
31
0.0
0
LINE
8
TOP
10
0.358183
20
0.000469
30
0.0
11
0.367575
21
0.000117
31
0.0
0
LINE
8
TOP
10
0.367575
20
0.000117
30
0.0
11
0.376974
21
0.000000
31
0.0
0
LINE
8
TOP
10
0.000000
20
1.130921
30
0.0
11
0.000000
21
0.376974
31
0.0
0
LINE
8
TOP
10
0.376974
20
0.000000
30
0.0
11
1.115214
21
0.000000
31
0.0
0
LINE
8
TOP
10
0.376974
20
1.492188
30
0.0
11
0.367769
21
1.492269
31
0.0
0
LINE
8
TOP
10
0.367769
20
1.492269
30
0.0
11
0.358565
21
1.492120
31
0.0
0
LINE
8
TOP
10
0.358565
20
1.492120
30
0.0
11
0.349367
21
1.491742
31
0.0
0
LINE
8
TOP
10
0.349367
20
1.491742
30
0.0
11
0.340182
21
1.491135
31
0.0
0
LINE
8
TOP
10
0.340182
20
1.491135
30
0.0
11
0.331015
21
1.490299
31
0.0
0
LINE
8
TOP
10
0.331015
20
1.490299
30
0.0
11
0.321871
21
1.489235
31
0.0
0
LINE
8
TOP
10
0.321871
20
1.489235
30
0.0
11
0.312757
21
1.487944
31
0.0
0
LINE
8
TOP
10
0.312757
20
1.487944
30
0.0
11
0.303678
21
1.486425
31
0.0
0
LINE
8
TOP
10
0.303678
20
1.486425
30
0.0
11
0.294640
21
1.484680
31
0.0
0
LINE
8
TOP
10
0.294640
20
1.484680
30
0.0
11
0.285648
21
1.482711
31
0.0
0
LINE
8
TOP
10
0.285648
20
1.482711
30
0.0
11
0.276707
21
1.480518
31
0.0
0
LINE
8
TOP
10
0.276707
20
1.480518
30
0.0
11
0.267825
21
1.478103
31
0.0
0
LINE
8
TOP
10
0.267825
20
1.478103
30
0.0
11
0.259005
21
1.475468
31
0.0
0
LINE
8
TOP
10
0.259005
20
1.475468
30
0.0
11
0.250254
21
1.472613
31
0.0
0
LINE
8
TOP
10
0.250254
20
1.472613
30
0.0
11
0.241576
21
1.469541
31
0.0
0
LINE
8
TOP
10
0.241576
20
1.469541
30
0.0
11
0.232978
21
1.466253
31
0.0
0
LINE
8
TOP
10
0.232978
20
1.466253
30
0.0
11
0.224464
21
1.462753
31
0.0
0
LINE
8
TOP
10
0.224464
20
1.462753
30
0.0
11
0.216041
21
1.459041
31
0.0
0
LINE
8
TOP
10
0.216041
20
1.459041
30
0.0
11
0.207712
21
1.455120
31
0.0
0
LINE
8
TOP
10
0.207712
20
1.455120
30
0.0
11
0.199484
21
1.450993
31
0.0
0
LINE
8
TOP
10
0.199484
20
1.450993
30
0.0
11
0.191361
21
1.446662
31
0.0
0
LINE
8
TOP
10
0.191361
20
1.446662
30
0.0
11
0.183349
21
1.442129
31
0.0
0
LINE
8
TOP
10
0.183349
20
1.442129
30
0.0
11
0.175453
21
1.437399
31
0.0
0
LINE
8
TOP
10
0.175453
20
1.437399
30
0.0
11
0.167676
21
1.432473
31
0.0
0
LINE
8
TOP
10
0.167676
20
1.432473
30
0.0
11
0.160025
21
1.427355
31
0.0
0
LINE
8
TOP
10
0.160025
20
1.427355
30
0.0
11
0.152504
21
1.422047
31
0.0
0
LINE
8
TOP
10
0.152504
20
1.422047
30
0.0
11
0.145118
21
1.416554
31
0.0
0
LINE
8
TOP
10
0.145118
20
1.416554
30
0.0
11
0.137870
21
1.410878
31
0.0
0
LINE
8
TOP
10
0.137870
20
1.410878
30
0.0
11
0.130767
21
1.405023
31
0.0
0
LINE
8
TOP
10
0.130767
20
1.405023
30
0.0
11
0.123812
21
1.398993
31
0.0
0
LINE
8
TOP
10
0.123812
20
1.398993
30
0.0
11
0.117009
21
1.392792
31
0.0
0
LINE
8
TOP
10
0.117009
20
1.392792
30
0.0
11
0.110363
21
1.386423
31
0.0
0
LINE
8
TOP
10
0.110363
20
1.386423
30
0.0
11
0.103878
21
1.379890
31
0.0
0
LINE
8
TOP
10
0.103878
20
1.379890
30
0.0
11
0.097557
21
1.373197
31
0.0
0
LINE
8
TOP
10
0.097557
20
1.373197
30
0.0
11
0.091406
21
1.366349
31
0.0
0
LINE
8
TOP
10
0.091406
20
1.366349
30
0.0
11
0.085427
21
1.359350
31
0.0
0
LINE
8
TOP
10
0.085427
20
1.359350
30
0.0
11
0.079625
21
1.352204
31
0.0
0
LINE
8
TOP
10
0.079625
20
1.352204
30
0.0
11
0.074002
21
1.344916
31
0.0
0
LINE
8
TOP
10
0.074002
20
1.344916
30
0.0
11
0.068563
21
1.337489
31
0.0
0
LINE
8
TOP
10
0.068563
20
1.337489
30
0.0
11
0.063311
21
1.329929
31
0.0
0
LINE
8
TOP
10
0.063311
20
1.329929
30
0.0
11
0.058248
21
1.322241
31
0.0
0
LINE
8
TOP
10
0.058248
20
1.322241
30
0.0
11
0.053380
21
1.314429
31
0.0
0
LINE
8
TOP
10
0.053380
20
1.314429
30
0.0
11
0.048707
21
1.306498
31
0.0
0
LINE
8
TOP
10
0.048707
20
1.306498
30
0.0
11
0.044233
21
1.298453
31
0.0
0
LINE
8
TOP
10
0.044233
20
1.298453
30
0.0
11
0.039962
21
1.290298
31
0.0
0
LINE
8
TOP
10
0.039962
20
1.290298
30
0.0
11
0.035895
21
1.282040
31
0.0
0
LINE
8
TOP
10
0.035895
20
1.282040
30
0.0
11
0.032035
21
1.273683
31
0.0
0
LINE
8
TOP
10
0.032035
20
1.273683
30
0.0
11
0.028385
21
1.265233
31
0.0
0
LINE
8
TOP
10
0.028385
20
1.265233
30
0.0
11
0.024947
21
1.256694
31
0.0
0
LINE
8
TOP
10
0.024947
20
1.256694
30
0.0
11
0.021722
21
1.248072
31
0.0
0
LINE
8
TOP
10
0.021722
20
1.248072
30
0.0
11
0.018714
21
1.239372
31
0.0
0
LINE
8
TOP
10
0.018714
20
1.239372
30
0.0
11
0.015923
21
1.230600
31
0.0
0
LINE
8
TOP
10
0.015923
20
1.230600
30
0.0
11
0.013352
21
1.221761
31
0.0
0
LINE
8
TOP
10
0.013352
20
1.221761
30
0.0
11
0.011002
21
1.212861
31
0.0
0
LINE
8
TOP
10
0.011002
20
1.212861
30
0.0
11
0.008875
21
1.203905
31
0.0
0
LINE
8
TOP
10
0.008875
20
1.203905
30
0.0
11
0.006972
21
1.194899
31
0.0
0
LINE
8
TOP
10
0.006972
20
1.194899
30
0.0
11
0.005293
21
1.185848
31
0.0
0
LINE
8
TOP
10
0.005293
20
1.185848
30
0.0
11
0.003841
21
1.176758
31
0.0
0
LINE
8
TOP
10
0.003841
20
1.176758
30
0.0
11
0.002616
21
1.167635
31
0.0
0
LINE
8
TOP
10
0.002616
20
1.167635
30
0.0
11
0.001619
21
1.158483
31
0.0
0
LINE
8
TOP
10
0.001619
20
1.158483
30
0.0
11
0.000850
21
1.149310
31
0.0
0
LINE
8
TOP
10
0.000850
20
1.149310
30
0.0
11
0.000311
21
1.140121
31
0.0
0
LINE
8
TOP
10
0.000311
20
1.140121
30
0.0
11
0.000000
21
1.130921
31
0.0
0
LINE
8
TOP
10
1.115214
20
0.000000
30
0.0
11
1.124612
21
0.000117
31
0.0
0
LINE
8
TOP
10
1.124612
20
0.000117
30
0.0
11
1.134004
21
0.000469
31
0.0
0
LINE
8
TOP
10
1.134004
20
0.000469
30
0.0
11
1.143385
21
0.001054
31
0.0
0
LINE
8
TOP
10
1.143385
20
0.001054
30
0.0
11
1.152748
21
0.001873
31
0.0
0
LINE
8
TOP
10
1.152748
20
0.001873
30
0.0
11
1.162088
21
0.002926
31
0.0
0
LINE
8
TOP
10
1.162088
20
0.002926
30
0.0
11
1.171399
21
0.004210
31
0.0
0
LINE
8
TOP
10
1.171399
20
0.004210
30
0.0
11
1.180675
21
0.005727
31
0.0
0
LINE
8
TOP
10
1.180675
20
0.005727
30
0.0
11
1.189910
21
0.007474
31
0.0
0
LINE
8
TOP
10
1.189910
20
0.007474
30
0.0
11
1.199098
21
0.009452
31
0.0
0
LINE
8
TOP
10
1.199098
20
0.009452
30
0.0
11
1.208235
21
0.011657
31
0.0
0
LINE
8
TOP
10
1.208235
20
0.011657
30
0.0
11
1.217314
21
0.014090
31
0.0
0
LINE
8
TOP
10
1.217314
20
0.014090
30
0.0
11
1.226329
21
0.016748
31
0.0
0
LINE
8
TOP
10
1.226329
20
0.016748
30
0.0
11
1.235275
21
0.019630
31
0.0
0
LINE
8
TOP
10
1.235275
20
0.019630
30
0.0
11
1.244146
21
0.022734
31
0.0
0
LINE
8
TOP
10
1.244146
20
0.022734
30
0.0
11
1.252938
21
0.026059
31
0.0
0
LINE
8
TOP
10
1.252938
20
0.026059
30
0.0
11
1.261644
21
0.029601
31
0.0
0
LINE
8
TOP
10
1.261644
20
0.029601
30
0.0
11
1.270258
21
0.033360
31
0.0
0
LINE
8
TOP
10
1.270258
20
0.033360
30
0.0
11
1.278777
21
0.037332
31
0.0
0
LINE
8
TOP
10
1.278777
20
0.037332
30
0.0
11
1.287193
21
0.041515
31
0.0
0
LINE
8
TOP
10
1.287193
20
0.041515
30
0.0
11
1.295503
21
0.045907
31
0.0
0
LINE
8
TOP
10
1.295503
20
0.045907
30
0.0
11
1.303701
21
0.050505
31
0.0
0
LINE
8
TOP
10
1.303701
20
0.050505
30
0.0
11
1.311781
21
0.055305
31
0.0
0
LINE
8
TOP
10
1.311781
20
0.055305
30
0.0
11
1.319739
21
0.060306
31
0.0
0
LINE
8
TOP
10
1.319739
20
0.060306
30
0.0
11
1.327571
21
0.065503
31
0.0
0
LINE
8
TOP
10
1.327571
20
0.065503
30
0.0
11
1.335270
21
0.070894
31
0.0
0
LINE
8
TOP
10
1.335270
20
0.070894
30
0.0
11
1.342832
21
0.076476
31
0.0
0
LINE
8
TOP
10
1.342832
20
0.076476
30
0.0
11
1.350253
21
0.082244
31
0.0
0
LINE
8
TOP
10
1.350253
20
0.082244
30
0.0
11
1.357528
21
0.088195
31
0.0
0
LINE
8
TOP
10
1.357528
20
0.088195
30
0.0
11
1.364652
21
0.094326
31
0.0
0
LINE
8
TOP
10
1.364652
20
0.094326
30
0.0
11
1.371621
21
0.100632
31
0.0
0
LINE
8
TOP
10
1.371621
20
0.100632
30
0.0
11
1.378431
21
0.107111
31
0.0
0
LINE
8
TOP
10
1.378431
20
0.107111
30
0.0
11
1.385077
21
0.113757
31
0.0
0
LINE
8
TOP
10
1.385077
20
0.113757
30
0.0
11
1.391555
21
0.120566
31
0.0
0
LINE
8
TOP
10
1.391555
20
0.120566
30
0.0
11
1.397862
21
0.127536
31
0.0
0
LINE
8
TOP
10
1.397862
20
0.127536
30
0.0
11
1.403992
21
0.134660
31
0.0
0
LINE
8
TOP
10
1.403992
20
0.134660
30
0.0
11
1.409944
21
0.141934
31
0.0
0
LINE
8
TOP
10
1.409944
20
0.141934
30
0.0
11
1.415712
21
0.149355
31
0.0
0
LINE
8
TOP
10
1.415712
20
0.149355
30
0.0
11
1.421293
21
0.156918
31
0.0
0
LINE
8
TOP
10
1.421293
20
0.156918
30
0.0
11
1.426684
21
0.164617
31
0.0
0
LINE
8
TOP
10
1.426684
20
0.164617
30
0.0
11
1.431881
21
0.172448
31
0.0
0
LINE
8
TOP
10
1.431881
20
0.172448
30
0.0
11
1.436882
21
0.180406
31
0.0
0
LINE
8
TOP
10
1.436882
20
0.180406
30
0.0
11
1.441683
21
0.188487
31
0.0
0
LINE
8
TOP
10
1.441683
20
0.188487
30
0.0
11
1.446280
21
0.196685
31
0.0
0
LINE
8
TOP
10
1.446280
20
0.196685
30
0.0
11
1.450672
21
0.204994
31
0.0
0
LINE
8
TOP
10
1.450672
20
0.204994
30
0.0
11
1.454855
21
0.213411
31
0.0
0
LINE
8
TOP
10
1.454855
20
0.213411
30
0.0
11
1.458828
21
0.221929
31
0.0
0
LINE
8
TOP
10
1.458828
20
0.221929
30
0.0
11
1.462586
21
0.230544
31
0.0
0
LINE
8
TOP
10
1.462586
20
0.230544
30
0.0
11
1.466129
21
0.239250
31
0.0
0
LINE
8
TOP
10
1.466129
20
0.239250
30
0.0
11
1.469453
21
0.248041
31
0.0
0
LINE
8
TOP
10
1.469453
20
0.248041
30
0.0
11
1.472557
21
0.256913
31
0.0
0
LINE
8
TOP
10
1.472557
20
0.256913
30
0.0
11
1.475440
21
0.265859
31
0.0
0
LINE
8
TOP
10
1.475440
20
0.265859
30
0.0
11
1.478098
21
0.274874
31
0.0
0
LINE
8
TOP
10
1.478098
20
0.274874
30
0.0
11
1.480530
21
0.283953
31
0.0
0
LINE
8
TOP
10
1.480530
20
0.283953
30
0.0
11
1.482736
21
0.293089
31
0.0
0
LINE
8
TOP
10
1.482736
20
0.293089
30
0.0
11
1.484713
21
0.302278
31
0.0
0
LINE
8
TOP
10
1.484713
20
0.302278
30
0.0
11
1.486460
21
0.311513
31
0.0
0
LINE
8
TOP
10
1.486460
20
0.311513
30
0.0
11
1.487977
21
0.320789
31
0.0
0
LINE
8
TOP
10
1.487977
20
0.320789
30
0.0
11
1.489262
21
0.330099
31
0.0
0
LINE
8
TOP
10
1.489262
20
0.330099
30
0.0
11
1.490314
21
0.339439
31
0.0
0
LINE
8
TOP
10
1.490314
20
0.339439
30
0.0
11
1.491133
21
0.348802
31
0.0
0
LINE
8
TOP
10
1.491133
20
0.348802
30
0.0
11
1.491719
21
0.358183
31
0.0
0
LINE
8
TOP
10
1.491719
20
0.358183
30
0.0
11
1.492070
21
0.367575
31
0.0
0
LINE
8
TOP
10
1.492070
20
0.367575
30
0.0
11
1.492188
21
0.376974
31
0.0
0
LINE
8
TOP
10
1.115214
20
1.492188
30
0.0
11
0.376974
21
1.492188
31
0.0
0
LINE
8
TOP
10
1.492188
20
0.376974
30
0.0
11
1.492188
21
1.130921
31
0.0
0
LINE
8
TOP
10
1.492188
20
1.130921
30
0.0
11
1.491877
21
1.140121
31
0.0
0
LINE
8
TOP
10
1.491877
20
1.140121
30
0.0
11
1.491337
21
1.149310
31
0.0
0
LINE
8
TOP
10
1.491337
20
1.149310
30
0.0
11
1.490568
21
1.158483
31
0.0
0
LINE
8
TOP
10
1.490568
20
1.158483
30
0.0
11
1.489571
21
1.167635
31
0.0
0
LINE
8
TOP
10
1.489571
20
1.167635
30
0.0
11
1.488346
21
1.176758
31
0.0
0
LINE
8
TOP
10
1.488346
20
1.176758
30
0.0
11
1.486894
21
1.185848
31
0.0
0
LINE
8
TOP
10
1.486894
20
1.185848
30
0.0
11
1.485216
21
1.194899
31
0.0
0
LINE
8
TOP
10
1.485216
20
1.194899
30
0.0
11
1.483313
21
1.203905
31
0.0
0
LINE
8
TOP
10
1.483313
20
1.203905
30
0.0
11
1.481185
21
1.212861
31
0.0
0
LINE
8
TOP
10
1.481185
20
1.212861
30
0.0
11
1.478835
21
1.221761
31
0.0
0
LINE
8
TOP
10
1.478835
20
1.221761
30
0.0
11
1.476264
21
1.230600
31
0.0
0
LINE
8
TOP
10
1.476264
20
1.230600
30
0.0
11
1.473474
21
1.239372
31
0.0
0
LINE
8
TOP
10
1.473474
20
1.239372
30
0.0
11
1.470465
21
1.248072
31
0.0
0
LINE
8
TOP
10
1.470465
20
1.248072
30
0.0
11
1.467241
21
1.256694
31
0.0
0
LINE
8
TOP
10
1.467241
20
1.256694
30
0.0
11
1.463802
21
1.265233
31
0.0
0
LINE
8
TOP
10
1.463802
20
1.265233
30
0.0
11
1.460152
21
1.273683
31
0.0
0
LINE
8
TOP
10
1.460152
20
1.273683
30
0.0
11
1.456292
21
1.282040
31
0.0
0
LINE
8
TOP
10
1.456292
20
1.282040
30
0.0
11
1.452226
21
1.290298
31
0.0
0
LINE
8
TOP
10
1.452226
20
1.290298
30
0.0
11
1.447954
21
1.298453
31
0.0
0
LINE
8
TOP
10
1.447954
20
1.298453
30
0.0
11
1.443481
21
1.306498
31
0.0
0
LINE
8
TOP
10
1.443481
20
1.306498
30
0.0
11
1.438808
21
1.314429
31
0.0
0
LINE
8
TOP
10
1.438808
20
1.314429
30
0.0
11
1.433939
21
1.322241
31
0.0
0
LINE
8
TOP
10
1.433939
20
1.322241
30
0.0
11
1.428877
21
1.329929
31
0.0
0
LINE
8
TOP
10
1.428877
20
1.329929
30
0.0
11
1.423625
21
1.337489
31
0.0
0
LINE
8
TOP
10
1.423625
20
1.337489
30
0.0
11
1.418186
21
1.344916
31
0.0
0
LINE
8
TOP
10
1.418186
20
1.344916
30
0.0
11
1.412563
21
1.352204
31
0.0
0
LINE
8
TOP
10
1.412563
20
1.352204
30
0.0
11
1.406760
21
1.359350
31
0.0
0
LINE
8
TOP
10
1.406760
20
1.359350
30
0.0
11
1.400782
21
1.366349
31
0.0
0
LINE
8
TOP
10
1.400782
20
1.366349
30
0.0
11
1.394630
21
1.373197
31
0.0
0
LINE
8
TOP
10
1.394630
20
1.373197
30
0.0
11
1.388310
21
1.379890
31
0.0
0
LINE
8
TOP
10
1.388310
20
1.379890
30
0.0
11
1.381825
21
1.386423
31
0.0
0
LINE
8
TOP
10
1.381825
20
1.386423
30
0.0
11
1.375179
21
1.392792
31
0.0
0
LINE
8
TOP
10
1.375179
20
1.392792
30
0.0
11
1.368376
21
1.398993
31
0.0
0
LINE
8
TOP
10
1.368376
20
1.398993
30
0.0
11
1.361420
21
1.405023
31
0.0
0
LINE
8
TOP
10
1.361420
20
1.405023
30
0.0
11
1.354317
21
1.410878
31
0.0
0
LINE
8
TOP
10
1.354317
20
1.410878
30
0.0
11
1.347070
21
1.416554
31
0.0
0
LINE
8
TOP
10
1.347070
20
1.416554
30
0.0
11
1.339683
21
1.422047
31
0.0
0
LINE
8
TOP
10
1.339683
20
1.422047
30
0.0
11
1.332162
21
1.427355
31
0.0
0
LINE
8
TOP
10
1.332162
20
1.427355
30
0.0
11
1.324511
21
1.432473
31
0.0
0
LINE
8
TOP
10
1.324511
20
1.432473
30
0.0
11
1.316735
21
1.437399
31
0.0
0
LINE
8
TOP
10
1.316735
20
1.437399
30
0.0
11
1.308838
21
1.442129
31
0.0
0
LINE
8
TOP
10
1.308838
20
1.442129
30
0.0
11
1.300826
21
1.446662
31
0.0
0
LINE
8
TOP
10
1.300826
20
1.446662
30
0.0
11
1.292703
21
1.450993
31
0.0
0
LINE
8
TOP
10
1.292703
20
1.450993
30
0.0
11
1.284475
21
1.455120
31
0.0
0
LINE
8
TOP
10
1.284475
20
1.455120
30
0.0
11
1.276147
21
1.459041
31
0.0
0
LINE
8
TOP
10
1.276147
20
1.459041
30
0.0
11
1.267723
21
1.462753
31
0.0
0
LINE
8
TOP
10
1.267723
20
1.462753
30
0.0
11
1.259210
21
1.466253
31
0.0
0
LINE
8
TOP
10
1.259210
20
1.466253
30
0.0
11
1.250611
21
1.469541
31
0.0
0
LINE
8
TOP
10
1.250611
20
1.469541
30
0.0
11
1.241934
21
1.472613
31
0.0
0
LINE
8
TOP
10
1.241934
20
1.472613
30
0.0
11
1.233183
21
1.475468
31
0.0
0
LINE
8
TOP
10
1.233183
20
1.475468
30
0.0
11
1.224363
21
1.478103
31
0.0
0
LINE
8
TOP
10
1.224363
20
1.478103
30
0.0
11
1.215480
21
1.480518
31
0.0
0
LINE
8
TOP
10
1.215480
20
1.480518
30
0.0
11
1.206540
21
1.482711
31
0.0
0
LINE
8
TOP
10
1.206540
20
1.482711
30
0.0
11
1.197548
21
1.484680
31
0.0
0
LINE
8
TOP
10
1.197548
20
1.484680
30
0.0
11
1.188509
21
1.486425
31
0.0
0
LINE
8
TOP
10
1.188509
20
1.486425
30
0.0
11
1.179430
21
1.487944
31
0.0
0
LINE
8
TOP
10
1.179430
20
1.487944
30
0.0
11
1.170316
21
1.489235
31
0.0
0
LINE
8
TOP
10
1.170316
20
1.489235
30
0.0
11
1.161173
21
1.490299
31
0.0
0
LINE
8
TOP
10
1.161173
20
1.490299
30
0.0
11
1.152005
21
1.491135
31
0.0
0
LINE
8
TOP
10
1.152005
20
1.491135
30
0.0
11
1.142820
21
1.491742
31
0.0
0
LINE
8
TOP
10
1.142820
20
1.491742
30
0.0
11
1.133623
21
1.492120
31
0.0
0
LINE
8
TOP
10
1.133623
20
1.492120
30
0.0
11
1.124419
21
1.492269
31
0.0
0
LINE
8
TOP
10
1.124419
20
1.492269
30
0.0
11
1.115214
21
1.492188
31
0.0
0
LINE
8
TOP
10
0.094243
20
0.675411
30
0.0
11
0.188487
21
0.675411
31
0.0
0
LINE
8
TOP
10
0.094243
20
0.816776
30
0.0
11
0.094243
21
0.675411
31
0.0
0
LINE
8
TOP
10
0.188487
20
0.675411
30
0.0
11
0.188487
21
0.816776
31
0.0
0
LINE
8
TOP
10
0.188487
20
0.816776
30
0.0
11
0.094243
21
0.816776
31
0.0
0
LINE
8
TOP
10
0.298438
20
0.298438
30
0.0
11
1.193750
21
0.298438
31
0.0
0
LINE
8
TOP
10
0.298438
20
1.209457
30
0.0
11
0.298438
21
0.298438
31
0.0
0
LINE
8
TOP
10
1.193750
20
0.298438
30
0.0
11
1.193750
21
1.209457
31
0.0
0
LINE
8
TOP
10
1.193750
20
1.209457
30
0.0
11
0.298438
21
1.209457
31
0.0
0
LINE
8
TOP
10
1.319848
20
0.585265
30
0.0
11
1.319088
21
0.584587
31
0.0
0
LINE
8
TOP
10
1.319088
20
0.584587
30
0.0
11
1.318343
21
0.583894
31
0.0
0
LINE
8
TOP
10
1.318343
20
0.583894
30
0.0
11
1.317613
21
0.583184
31
0.0
0
LINE
8
TOP
10
1.317613
20
0.583184
30
0.0
11
1.316898
21
0.582458
31
0.0
0
LINE
8
TOP
10
1.316898
20
0.582458
30
0.0
11
1.316200
21
0.581718
31
0.0
0
LINE
8
TOP
10
1.316200
20
0.581718
30
0.0
11
1.315517
21
0.580962
31
0.0
0
LINE
8
TOP
10
1.315517
20
0.580962
30
0.0
11
1.314851
21
0.580192
31
0.0
0
LINE
8
TOP
10
1.314851
20
0.580192
30
0.0
11
1.314202
21
0.579408
31
0.0
0
LINE
8
TOP
10
1.314202
20
0.579408
30
0.0
11
1.313570
21
0.578610
31
0.0
0
LINE
8
TOP
10
1.313570
20
0.578610
30
0.0
11
1.312955
21
0.577798
31
0.0
0
LINE
8
TOP
10
1.312955
20
0.577798
30
0.0
11
1.312358
21
0.576973
31
0.0
0
LINE
8
TOP
10
1.312358
20
0.576973
30
0.0
11
1.311778
21
0.576136
31
0.0
0
LINE
8
TOP
10
1.311778
20
0.576136
30
0.0
11
1.311217
21
0.575286
31
0.0
0
LINE
8
TOP
10
1.311217
20
0.575286
30
0.0
11
1.310675
21
0.574424
31
0.0
0
LINE
8
TOP
10
1.310675
20
0.574424
30
0.0
11
1.310151
21
0.573551
31
0.0
0
LINE
8
TOP
10
1.310151
20
0.573551
30
0.0
11
1.309647
21
0.572667
31
0.0
0
LINE
8
TOP
10
1.309647
20
0.572667
30
0.0
11
1.309161
21
0.571771
31
0.0
0
LINE
8
TOP
10
1.309161
20
0.571771
30
0.0
11
1.308695
21
0.570866
31
0.0
0
LINE
8
TOP
10
1.308695
20
0.570866
30
0.0
11
1.308249
21
0.569951
31
0.0
0
LINE
8
TOP
10
1.308249
20
0.569951
30
0.0
11
1.307822
21
0.569026
31
0.0
0
LINE
8
TOP
10
1.307822
20
0.569026
30
0.0
11
1.307416
21
0.568093
31
0.0
0
LINE
8
TOP
10
1.307416
20
0.568093
30
0.0
11
1.307030
21
0.567151
31
0.0
0
LINE
8
TOP
10
1.307030
20
0.567151
30
0.0
11
1.306664
21
0.566200
31
0.0
0
LINE
8
TOP
10
1.306664
20
0.566200
30
0.0
11
1.306319
21
0.565242
31
0.0
0
LINE
8
TOP
10
1.306319
20
0.565242
30
0.0
11
1.305995
21
0.564277
31
0.0
0
LINE
8
TOP
10
1.305995
20
0.564277
30
0.0
11
1.305691
21
0.563305
31
0.0
0
LINE
8
TOP
10
1.305691
20
0.563305
30
0.0
11
1.305409
21
0.562327
31
0.0
0
LINE
8
TOP
10
1.305409
20
0.562327
30
0.0
11
1.305148
21
0.561343
31
0.0
0
LINE
8
TOP
10
1.305148
20
0.561343
30
0.0
11
1.304908
21
0.560353
31
0.0
0
LINE
8
TOP
10
1.304908
20
0.560353
30
0.0
11
1.304690
21
0.559358
31
0.0
0
LINE
8
TOP
10
1.304690
20
0.559358
30
0.0
11
1.304493
21
0.558359
31
0.0
0
LINE
8
TOP
10
1.304493
20
0.558359
30
0.0
11
1.304318
21
0.557356
31
0.0
0
LINE
8
TOP
10
1.304318
20
0.557356
30
0.0
11
1.304165
21
0.556350
31
0.0
0
LINE
8
TOP
10
1.304165
20
0.556350
30
0.0
11
1.304033
21
0.555340
31
0.0
0
LINE
8
TOP
10
1.304033
20
0.555340
30
0.0
11
1.303923
21
0.554328
31
0.0
0
LINE
8
TOP
10
1.303923
20
0.554328
30
0.0
11
1.303835
21
0.553313
31
0.0
0
LINE
8
TOP
10
1.303835
20
0.553313
30
0.0
11
1.303769
21
0.552297
31
0.0
0
LINE
8
TOP
10
1.303769
20
0.552297
30
0.0
11
1.303725
21
0.551280
31
0.0
0
LINE
8
TOP
10
1.303725
20
0.551280
30
0.0
11
1.303703
21
0.550262
31
0.0
0
LINE
8
TOP
10
1.303703
20
0.550262
30
0.0
11
1.303703
21
0.549244
31
0.0
0
LINE
8
TOP
10
1.303703
20
0.549244
30
0.0
11
1.303725
21
0.548226
31
0.0
0
LINE
8
TOP
10
1.303725
20
0.548226
30
0.0
11
1.303769
21
0.547208
31
0.0
0
LINE
8
TOP
10
1.303769
20
0.547208
30
0.0
11
1.303835
21
0.546192
31
0.0
0
LINE
8
TOP
10
1.303835
20
0.546192
30
0.0
11
1.303923
21
0.545178
31
0.0
0
LINE
8
TOP
10
1.303923
20
0.545178
30
0.0
11
1.304033
21
0.544166
31
0.0
0
LINE
8
TOP
10
1.304033
20
0.544166
30
0.0
11
1.304165
21
0.543156
31
0.0
0
LINE
8
TOP
10
1.304165
20
0.543156
30
0.0
11
1.304318
21
0.542149
31
0.0
0
LINE
8
TOP
10
1.304318
20
0.542149
30
0.0
11
1.304493
21
0.541146
31
0.0
0
LINE
8
TOP
10
1.304493
20
0.541146
30
0.0
11
1.304690
21
0.540147
31
0.0
0
LINE
8
TOP
10
1.304690
20
0.540147
30
0.0
11
1.304909
21
0.539153
31
0.0
0
LINE
8
TOP
10
1.304909
20
0.539153
30
0.0
11
1.305148
21
0.538163
31
0.0
0
LINE
8
TOP
10
1.305148
20
0.538163
30
0.0
11
1.305409
21
0.537179
31
0.0
0
LINE
8
TOP
10
1.305409
20
0.537179
30
0.0
11
1.305692
21
0.536201
31
0.0
0
LINE
8
TOP
10
1.305692
20
0.536201
30
0.0
11
1.305995
21
0.535229
31
0.0
0
LINE
8
TOP
10
1.305995
20
0.535229
30
0.0
11
1.306319
21
0.534263
31
0.0
0
LINE
8
TOP
10
1.306319
20
0.534263
30
0.0
11
1.306664
21
0.533305
31
0.0
0
LINE
8
TOP
10
1.306664
20
0.533305
30
0.0
11
1.307030
21
0.532355
31
0.0
0
LINE
8
TOP
10
1.307030
20
0.532355
30
0.0
11
1.307416
21
0.531413
31
0.0
0
LINE
8
TOP
10
1.307416
20
0.531413
30
0.0
11
1.307823
21
0.530479
31
0.0
0
LINE
8
TOP
10
1.307823
20
0.530479
30
0.0
11
1.308249
21
0.529555
31
0.0
0
LINE
8
TOP
10
1.308249
20
0.529555
30
0.0
11
1.308696
21
0.528639
31
0.0
0
LINE
8
TOP
10
1.308696
20
0.528639
30
0.0
11
1.309162
21
0.527734
31
0.0
0
LINE
8
TOP
10
1.309162
20
0.527734
30
0.0
11
1.309647
21
0.526839
31
0.0
0
LINE
8
TOP
10
1.303701
20
0.675411
30
0.0
11
1.397944
21
0.675411
31
0.0
0
LINE
8
TOP
10
1.303701
20
0.816776
30
0.0
11
1.303701
21
0.675411
31
0.0
0
LINE
8
TOP
10
1.397944
20
0.675411
30
0.0
11
1.397944
21
0.816776
31
0.0
0
LINE
8
TOP
10
1.397944
20
0.816776
30
0.0
11
1.303701
21
0.816776
31
0.0
0
LINE
8
TOP
10
0.196382
20
0.548849
30
0.0
11
0.196127
21
0.553958
31
0.0
0
LINE
8
TOP
10
0.196127
20
0.553958
30
0.0
11
0.195364
21
0.559017
31
0.0
0
LINE
8
TOP
10
0.195364
20
0.559017
30
0.0
11
0.194102
21
0.563974
31
0.0
0
LINE
8
TOP
10
0.194102
20
0.563974
30
0.0
11
0.192352
21
0.568782
31
0.0
0
LINE
8
TOP
10
0.192352
20
0.568782
30
0.0
11
0.190132
21
0.573391
31
0.0
0
LINE
8
TOP
10
0.190132
20
0.573391
30
0.0
11
0.187465
21
0.577756
31
0.0
0
LINE
8
TOP
10
0.187465
20
0.577756
30
0.0
11
0.184376
21
0.581834
31
0.0
0
LINE
8
TOP
10
0.184376
20
0.581834
30
0.0
11
0.180896
21
0.585584
31
0.0
0
LINE
8
TOP
10
0.180896
20
0.585584
30
0.0
11
0.177061
21
0.588969
31
0.0
0
LINE
8
TOP
10
0.177061
20
0.588969
30
0.0
11
0.172907
21
0.591955
31
0.0
0
LINE
8
TOP
10
0.172907
20
0.591955
30
0.0
11
0.168477
21
0.594513
31
0.0
0
LINE
8
TOP
10
0.168477
20
0.594513
30
0.0
11
0.163814
21
0.596617
31
0.0
0
LINE
8
TOP
10
0.163814
20
0.596617
30
0.0
11
0.158964
21
0.598247
31
0.0
0
LINE
8
TOP
10
0.158964
20
0.598247
30
0.0
11
0.153977
21
0.599385
31
0.0
0
LINE
8
TOP
10
0.153977
20
0.599385
30
0.0
11
0.148901
21
0.600021
31
0.0
0
LINE
8
TOP
10
0.148901
20
0.600021
30
0.0
11
0.143786
21
0.600149
31
0.0
0
LINE
8
TOP
10
0.143786
20
0.600149
30
0.0
11
0.138685
21
0.599766
31
0.0
0
LINE
8
TOP
10
0.138685
20
0.599766
30
0.0
11
0.133647
21
0.598878
31
0.0
0
LINE
8
TOP
10
0.133647
20
0.598878
30
0.0
11
0.128722
21
0.597492
31
0.0
0
LINE
8
TOP
10
0.128722
20
0.597492
30
0.0
11
0.123960
21
0.595623
31
0.0
0
LINE
8
TOP
10
0.123960
20
0.595623
30
0.0
11
0.119408
21
0.593289
31
0.0
0
LINE
8
TOP
10
0.119408
20
0.593289
30
0.0
11
0.115111
21
0.590514
31
0.0
0
LINE
8
TOP
10
0.115111
20
0.590514
30
0.0
11
0.111111
21
0.587324
31
0.0
0
LINE
8
TOP
10
0.111111
20
0.587324
30
0.0
11
0.107449
21
0.583752
31
0.0
0
LINE
8
TOP
10
0.107449
20
0.583752
30
0.0
11
0.104160
21
0.579833
31
0.0
0
LINE
8
TOP
10
0.104160
20
0.579833
30
0.0
11
0.101278
21
0.575607
31
0.0
0
LINE
8
TOP
10
0.101278
20
0.575607
30
0.0
11
0.098832
21
0.571114
31
0.0
0
LINE
8
TOP
10
0.098832
20
0.571114
30
0.0
11
0.096845
21
0.566400
31
0.0
0
LINE
8
TOP
10
0.096845
20
0.566400
30
0.0
11
0.095337
21
0.561511
31
0.0
0
LINE
8
TOP
10
0.095337
20
0.561511
30
0.0
11
0.094323
21
0.556497
31
0.0
0
LINE
8
TOP
10
0.094323
20
0.556497
30
0.0
11
0.093814
21
0.551407
31
0.0
0
LINE
8
TOP
10
0.093814
20
0.551407
30
0.0
11
0.093814
21
0.546291
31
0.0
0
LINE
8
TOP
10
0.093814
20
0.546291
30
0.0
11
0.094323
21
0.541200
31
0.0
0
LINE
8
TOP
10
0.094323
20
0.541200
30
0.0
11
0.095337
21
0.536186
31
0.0
0
LINE
8
TOP
10
0.095337
20
0.536186
30
0.0
11
0.096845
21
0.531298
31
0.0
0
LINE
8
TOP
10
0.096845
20
0.531298
30
0.0
11
0.098832
21
0.526584
31
0.0
0
LINE
8
TOP
10
0.098832
20
0.526584
30
0.0
11
0.101278
21
0.522091
31
0.0
0
LINE
8
TOP
10
0.101278
20
0.522091
30
0.0
11
0.104160
21
0.517864
31
0.0
0
LINE
8
TOP
10
0.104160
20
0.517864
30
0.0
11
0.107449
21
0.513945
31
0.0
0
LINE
8
TOP
10
0.107449
20
0.513945
30
0.0
11
0.111111
21
0.510373
31
0.0
0
LINE
8
TOP
10
0.111111
20
0.510373
30
0.0
11
0.115111
21
0.507183
31
0.0
0
LINE
8
TOP
10
0.115111
20
0.507183
30
0.0
11
0.119408
21
0.504408
31
0.0
0
LINE
8
TOP
10
0.119408
20
0.504408
30
0.0
11
0.123960
21
0.502074
31
0.0
0
LINE
8
TOP
10
0.123960
20
0.502074
30
0.0
11
0.128722
21
0.500205
31
0.0
0
LINE
8
TOP
10
0.128722
20
0.500205
30
0.0
11
0.133647
21
0.498819
31
0.0
0
LINE
8
TOP
10
0.133647
20
0.498819
30
0.0
11
0.138685
21
0.497931
31
0.0
0
LINE
8
TOP
10
0.138685
20
0.497931
30
0.0
11
0.143786
21
0.497549
31
0.0
0
LINE
8
TOP
10
0.143786
20
0.497549
30
0.0
11
0.148901
21
0.497676
31
0.0
0
LINE
8
TOP
10
0.148901
20
0.497676
30
0.0
11
0.153977
21
0.498312
31
0.0
0
LINE
8
TOP
10
0.153977
20
0.498312
30
0.0
11
0.158964
21
0.499451
31
0.0
0
LINE
8
TOP
10
0.158964
20
0.499451
30
0.0
11
0.163814
21
0.501080
31
0.0
0
LINE
8
TOP
10
0.163814
20
0.501080
30
0.0
11
0.168477
21
0.503184
31
0.0
0
LINE
8
TOP
10
0.168477
20
0.503184
30
0.0
11
0.172907
21
0.505742
31
0.0
0
LINE
8
TOP
10
0.172907
20
0.505742
30
0.0
11
0.177061
21
0.508728
31
0.0
0
LINE
8
TOP
10
0.177061
20
0.508728
30
0.0
11
0.180896
21
0.512113
31
0.0
0
LINE
8
TOP
10
0.180896
20
0.512113
30
0.0
11
0.184376
21
0.515864
31
0.0
0
LINE
8
TOP
10
0.184376
20
0.515864
30
0.0
11
0.187465
21
0.519941
31
0.0
0
LINE
8
TOP
10
0.187465
20
0.519941
30
0.0
11
0.190132
21
0.524307
31
0.0
0
LINE
8
TOP
10
0.190132
20
0.524307
30
0.0
11
0.192352
21
0.528916
31
0.0
0
LINE
8
TOP
10
0.192352
20
0.528916
30
0.0
11
0.194102
21
0.533723
31
0.0
0
LINE
8
TOP
10
0.194102
20
0.533723
30
0.0
11
0.195364
21
0.538681
31
0.0
0
LINE
8
TOP
10
0.195364
20
0.538681
30
0.0
11
0.196127
21
0.543739
31
0.0
0
LINE
8
TOP
10
0.196127
20
0.543739
30
0.0
11
0.196382
21
0.548849
31
0.0
0
LINE
8
TOP_HID
6
HIDDEN
10
1.319848
20
0.585265
30
0.0
11
1.319143
21
0.584551
31
0.0
0
LINE
8
TOP_HID
6
HIDDEN
10
1.319143
20
0.584551
30
0.0
11
1.318452
21
0.583823
31
0.0
0
LINE
8
TOP_HID
6
HIDDEN
10
1.318452
20
0.583823
30
0.0
11
1.317775
21
0.583082
31
0.0
0
LINE
8
TOP_HID
6
HIDDEN
10
1.317775
20
0.583082
30
0.0
11
1.317113
21
0.582328
31
0.0
0
LINE
8
TOP_HID
6
HIDDEN
10
1.317113
20
0.582328
30
0.0
11
1.316465
21
0.581561
31
0.0
0
LINE
8
TOP_HID
6
HIDDEN
10
1.316465
20
0.581561
30
0.0
11
1.315833
21
0.580781
31
0.0
0
LINE
8
TOP_HID
6
HIDDEN
10
1.315833
20
0.580781
30
0.0
11
1.315216
21
0.579989
31
0.0
0
LINE
8
TOP_HID
6
HIDDEN
10
1.315216
20
0.579989
30
0.0
11
1.314615
21
0.579186
31
0.0
0
LINE
8
TOP_HID
6
HIDDEN
10
1.314615
20
0.579186
30
0.0
11
1.314030
21
0.578370
31
0.0
0
LINE
8
TOP_HID
6
HIDDEN
10
1.314030
20
0.578370
30
0.0
11
1.313460
21
0.577544
31
0.0
0
LINE
8
TOP_HID
6
HIDDEN
10
1.313460
20
0.577544
30
0.0
11
1.312907
21
0.576706
31
0.0
0
LINE
8
TOP_HID
6
HIDDEN
10
1.312907
20
0.576706
30
0.0
11
1.312371
21
0.575858
31
0.0
0
LINE
8
TOP_HID
6
HIDDEN
10
1.312371
20
0.575858
30
0.0
11
1.311851
21
0.574999
31
0.0
0
LINE
8
TOP_HID
6
HIDDEN
10
1.311851
20
0.574999
30
0.0
11
1.311348
21
0.574131
31
0.0
0
LINE
8
TOP_HID
6
HIDDEN
10
1.311348
20
0.574131
30
0.0
11
1.310862
21
0.573252
31
0.0
0
LINE
8
TOP_HID
6
HIDDEN
10
1.310862
20
0.573252
30
0.0
11
1.310393
21
0.572365
31
0.0
0
LINE
8
TOP_HID
6
HIDDEN
10
1.310393
20
0.572365
30
0.0
11
1.309942
21
0.571468
31
0.0
0
LINE
8
TOP_HID
6
HIDDEN
10
1.309942
20
0.571468
30
0.0
11
1.309508
21
0.570563
31
0.0
0
LINE
8
TOP_HID
6
HIDDEN
10
1.309508
20
0.570563
30
0.0
11
1.309092
21
0.569649
31
0.0
0
LINE
8
TOP_HID
6
HIDDEN
10
1.309092
20
0.569649
30
0.0
11
1.308694
21
0.568728
31
0.0
0
LINE
8
TOP_HID
6
HIDDEN
10
1.308694
20
0.568728
30
0.0
11
1.308315
21
0.567799
31
0.0
0
LINE
8
TOP_HID
6
HIDDEN
10
1.308315
20
0.567799
30
0.0
11
1.307953
21
0.566863
31
0.0
0
LINE
8
TOP_HID
6
HIDDEN
10
1.307953
20
0.566863
30
0.0
11
1.307610
21
0.565919
31
0.0
0
LINE
8
TOP_HID
6
HIDDEN
10
1.307610
20
0.565919
30
0.0
11
1.307285
21
0.564970
31
0.0
0
LINE
8
TOP_HID
6
HIDDEN
10
1.307285
20
0.564970
30
0.0
11
1.306979
21
0.564014
31
0.0
0
LINE
8
TOP_HID
6
HIDDEN
10
1.306979
20
0.564014
30
0.0
11
1.306692
21
0.563052
31
0.0
0
LINE
8
TOP_HID
6
HIDDEN
10
1.306692
20
0.563052
30
0.0
11
1.306424
21
0.562085
31
0.0
0
LINE
8
TOP_HID
6
HIDDEN
10
1.306424
20
0.562085
30
0.0
11
1.306174
21
0.561112
31
0.0
0
LINE
8
TOP_HID
6
HIDDEN
10
1.306174
20
0.561112
30
0.0
11
1.305944
21
0.560135
31
0.0
0
LINE
8
TOP_HID
6
HIDDEN
10
1.305944
20
0.560135
30
0.0
11
1.305733
21
0.559154
31
0.0
0
LINE
8
TOP_HID
6
HIDDEN
10
1.305733
20
0.559154
30
0.0
11
1.305541
21
0.558169
31
0.0
0
LINE
8
TOP_HID
6
HIDDEN
10
1.305541
20
0.558169
30
0.0
11
1.305368
21
0.557180
31
0.0
0
LINE
8
TOP_HID
6
HIDDEN
10
1.305368
20
0.557180
30
0.0
11
1.305215
21
0.556188
31
0.0
0
LINE
8
TOP_HID
6
HIDDEN
10
1.305215
20
0.556188
30
0.0
11
1.305081
21
0.555194
31
0.0
0
LINE
8
TOP_HID
6
HIDDEN
10
1.305081
20
0.555194
30
0.0
11
1.304967
21
0.554196
31
0.0
0
LINE
8
TOP_HID
6
HIDDEN
10
1.304967
20
0.554196
30
0.0
11
1.304872
21
0.553197
31
0.0
0
LINE
8
TOP_HID
6
HIDDEN
10
1.304872
20
0.553197
30
0.0
11
1.304797
21
0.552196
31
0.0
0
LINE
8
TOP_HID
6
HIDDEN
10
1.304797
20
0.552196
30
0.0
11
1.304741
21
0.551194
31
0.0
0
LINE
8
TOP_HID
6
HIDDEN
10
1.304741
20
0.551194
30
0.0
11
1.304705
21
0.550191
31
0.0
0
LINE
8
TOP_HID
6
HIDDEN
10
1.304705
20
0.550191
30
0.0
11
1.304689
21
0.549187
31
0.0
0
LINE
8
TOP_HID
6
HIDDEN
10
1.304689
20
0.549187
30
0.0
11
1.304692
21
0.548184
31
0.0
0
LINE
8
TOP_HID
6
HIDDEN
10
1.304692
20
0.548184
30
0.0
11
1.304715
21
0.547180
31
0.0
0
LINE
8
TOP_HID
6
HIDDEN
10
1.304715
20
0.547180
30
0.0
11
1.304757
21
0.546177
31
0.0
0
LINE
8
TOP_HID
6
HIDDEN
10
1.304757
20
0.546177
30
0.0
11
1.304819
21
0.545176
31
0.0
0
LINE
8
TOP_HID
6
HIDDEN
10
1.304819
20
0.545176
30
0.0
11
1.304901
21
0.544175
31
0.0
0
LINE
8
TOP_HID
6
HIDDEN
10
1.304901
20
0.544175
30
0.0
11
1.305002
21
0.543177
31
0.0
0
LINE
8
TOP_HID
6
HIDDEN
10
1.305002
20
0.543177
30
0.0
11
1.305123
21
0.542180
31
0.0
0
LINE
8
TOP_HID
6
HIDDEN
10
1.305123
20
0.542180
30
0.0
11
1.305263
21
0.541186
31
0.0
0
LINE
8
TOP_HID
6
HIDDEN
10
1.305263
20
0.541186
30
0.0
11
1.305422
21
0.540195
31
0.0
0
LINE
8
TOP_HID
6
HIDDEN
10
1.305422
20
0.540195
30
0.0
11
1.305601
21
0.539208
31
0.0
0
LINE
8
TOP_HID
6
HIDDEN
10
1.305601
20
0.539208
30
0.0
11
1.305800
21
0.538224
31
0.0
0
LINE
8
TOP_HID
6
HIDDEN
10
1.305800
20
0.538224
30
0.0
11
1.306017
21
0.537244
31
0.0
0
LINE
8
TOP_HID
6
HIDDEN
10
1.306017
20
0.537244
30
0.0
11
1.306253
21
0.536268
31
0.0
0
LINE
8
TOP_HID
6
HIDDEN
10
1.306253
20
0.536268
30
0.0
11
1.306509
21
0.535298
31
0.0
0
LINE
8
TOP_HID
6
HIDDEN
10
1.306509
20
0.535298
30
0.0
11
1.306784
21
0.534332
31
0.0
0
LINE
8
TOP_HID
6
HIDDEN
10
1.306784
20
0.534332
30
0.0
11
1.307077
21
0.533372
31
0.0
0
LINE
8
TOP_HID
6
HIDDEN
10
1.307077
20
0.533372
30
0.0
11
1.307389
21
0.532418
31
0.0
0
LINE
8
TOP_HID
6
HIDDEN
10
1.307389
20
0.532418
30
0.0
11
1.307720
21
0.531471
31
0.0
0
LINE
8
TOP_HID
6
HIDDEN
10
1.307720
20
0.531471
30
0.0
11
1.308069
21
0.530530
31
0.0
0
LINE
8
TOP_HID
6
HIDDEN
10
1.308069
20
0.530530
30
0.0
11
1.308436
21
0.529596
31
0.0
0
LINE
8
TOP_HID
6
HIDDEN
10
1.308436
20
0.529596
30
0.0
11
1.308822
21
0.528669
31
0.0
0
LINE
8
TOP_HID
6
HIDDEN
10
1.308822
20
0.528669
30
0.0
11
1.309226
21
0.527750
31
0.0
0
LINE
8
TOP_HID
6
HIDDEN
10
1.309226
20
0.527750
30
0.0
11
1.309647
21
0.526839
31
0.0
0
LINE
8
TOP_HID
6
HIDDEN
10
1.407319
20
0.548849
30
0.0
11
1.407272
21
0.546651
31
0.0
0
LINE
8
TOP_HID
6
HIDDEN
10
1.407272
20
0.546651
30
0.0
11
1.407131
21
0.544458
31
0.0
0
LINE
8
TOP_HID
6
HIDDEN
10
1.407131
20
0.544458
30
0.0
11
1.406896
21
0.542273
31
0.0
0
LINE
8
TOP_HID
6
HIDDEN
10
1.406896
20
0.542273
30
0.0
11
1.406568
21
0.540100
31
0.0
0
LINE
8
TOP_HID
6
HIDDEN
10
1.406568
20
0.540100
30
0.0
11
1.406147
21
0.537943
31
0.0
0
LINE
8
TOP_HID
6
HIDDEN
10
1.406147
20
0.537943
30
0.0
11
1.405634
21
0.535806
31
0.0
0
LINE
8
TOP_HID
6
HIDDEN
10
1.405634
20
0.535806
30
0.0
11
1.405030
21
0.533693
31
0.0
0
LINE
8
TOP_HID
6
HIDDEN
10
1.405030
20
0.533693
30
0.0
11
1.404336
21
0.531608
31
0.0
0
LINE
8
TOP_HID
6
HIDDEN
10
1.404336
20
0.531608
30
0.0
11
1.403554
21
0.529554
31
0.0
0
LINE
8
TOP_HID
6
HIDDEN
10
1.403554
20
0.529554
30
0.0
11
1.402684
21
0.527536
31
0.0
0
LINE
8
TOP_HID
6
HIDDEN
10
1.402684
20
0.527536
30
0.0
11
1.401728
21
0.525557
31
0.0
0
LINE
8
TOP_HID
6
HIDDEN
10
1.401728
20
0.525557
30
0.0
11
1.400689
21
0.523620
31
0.0
0
LINE
8
TOP_HID
6
HIDDEN
10
1.400689
20
0.523620
30
0.0
11
1.399568
21
0.521730
31
0.0
0
LINE
8
TOP_HID
6
HIDDEN
10
1.399568
20
0.521730
30
0.0
11
1.398367
21
0.519889
31
0.0
0
LINE
8
TOP_HID
6
HIDDEN
10
1.398367
20
0.519889
30
0.0
11
1.397088
21
0.518102
31
0.0
0
LINE
8
TOP_HID
6
HIDDEN
10
1.397088
20
0.518102
30
0.0
11
1.395734
21
0.516371
31
0.0
0
LINE
8
TOP_HID
6
HIDDEN
10
1.395734
20
0.516371
30
0.0
11
1.394307
21
0.514700
31
0.0
0
LINE
8
TOP_HID
6
HIDDEN
10
1.394307
20
0.514700
30
0.0
11
1.392810
21
0.513091
31
0.0
0
LINE
8
TOP_HID
6
HIDDEN
10
1.392810
20
0.513091
30
0.0
11
1.391245
21
0.511548
31
0.0
0
LINE
8
TOP_HID
6
HIDDEN
10
1.391245
20
0.511548
30
0.0
11
1.389615
21
0.510073
31
0.0
0
LINE
8
TOP_HID
6
HIDDEN
10
1.389615
20
0.510073
30
0.0
11
1.387924
21
0.508670
31
0.0
0
LINE
8
TOP_HID
6
HIDDEN
10
1.387924
20
0.508670
30
0.0
11
1.386175
21
0.507340
31
0.0
0
LINE
8
TOP_HID
6
HIDDEN
10
1.386175
20
0.507340
30
0.0
11
1.384370
21
0.506086
31
0.0
0
LINE
8
TOP_HID
6
HIDDEN
10
1.384370
20
0.506086
30
0.0
11
1.382513
21
0.504911
31
0.0
0
LINE
8
TOP_HID
6
HIDDEN
10
1.382513
20
0.504911
30
0.0
11
1.380607
21
0.503816
31
0.0
0
LINE
8
TOP_HID
6
HIDDEN
10
1.380607
20
0.503816
30
0.0
11
1.378656
21
0.502804
31
0.0
0
LINE
8
TOP_HID
6
HIDDEN
10
1.378656
20
0.502804
30
0.0
11
1.376664
21
0.501876
31
0.0
0
LINE
8
TOP_HID
6
HIDDEN
10
1.376664
20
0.501876
30
0.0
11
1.374634
21
0.501034
31
0.0
0
LINE
8
TOP_HID
6
HIDDEN
10
1.374634
20
0.501034
30
0.0
11
1.372569
21
0.500280
31
0.0
0
LINE
8
TOP_HID
6
HIDDEN
10
1.372569
20
0.500280
30
0.0
11
1.370475
21
0.499616
31
0.0
0
LINE
8
TOP_HID
6
HIDDEN
10
1.370475
20
0.499616
30
0.0
11
1.368353
21
0.499041
31
0.0
0
LINE
8
TOP_HID
6
HIDDEN
10
1.368353
20
0.499041
30
0.0
11
1.366209
21
0.498558
31
0.0
0
LINE
8
TOP_HID
6
HIDDEN
10
1.366209
20
0.498558
30
0.0
11
1.364047
21
0.498167
31
0.0
0
LINE
8
TOP_HID
6
HIDDEN
10
1.364047
20
0.498167
30
0.0
11
1.361869
21
0.497869
31
0.0
0
LINE
8
TOP_HID
6
HIDDEN
10
1.361869
20
0.497869
30
0.0
11
1.359681
21
0.497665
31
0.0
0
LINE
8
TOP_HID
6
HIDDEN
10
1.359681
20
0.497665
30
0.0
11
1.357486
21
0.497554
31
0.0
0
LINE
8
TOP_HID
6
HIDDEN
10
1.357486
20
0.497554
30
0.0
11
1.355289
21
0.497538
31
0.0
0
LINE
8
TOP_HID
6
HIDDEN
10
1.355289
20
0.497538
30
0.0
11
1.353092
21
0.497616
31
0.0
0
LINE
8
TOP_HID
6
HIDDEN
10
1.353092
20
0.497616
30
0.0
11
1.350901
21
0.497787
31
0.0
0
LINE
8
TOP_HID
6
HIDDEN
10
1.350901
20
0.497787
30
0.0
11
1.348720
21
0.498052
31
0.0
0
LINE
8
TOP_HID
6
HIDDEN
10
1.348720
20
0.498052
30
0.0
11
1.346551
21
0.498411
31
0.0
0
LINE
8
TOP_HID
6
HIDDEN
10
1.346551
20
0.498411
30
0.0
11
1.344400
21
0.498862
31
0.0
0
LINE
8
TOP_HID
6
HIDDEN
10
1.344400
20
0.498862
30
0.0
11
1.342271
21
0.499404
31
0.0
0
LINE
8
TOP_HID
6
HIDDEN
10
1.342271
20
0.499404
30
0.0
11
1.340166
21
0.500038
31
0.0
0
LINE
8
TOP_HID
6
HIDDEN
10
1.340166
20
0.500038
30
0.0
11
1.338091
21
0.500761
31
0.0
0
LINE
8
TOP_HID
6
HIDDEN
10
1.338091
20
0.500761
30
0.0
11
1.336048
21
0.501572
31
0.0
0
LINE
8
TOP_HID
6
HIDDEN
10
1.336048
20
0.501572
30
0.0
11
1.334042
21
0.502470
31
0.0
0
LINE
8
TOP_HID
6
HIDDEN
10
1.334042
20
0.502470
30
0.0
11
1.332077
21
0.503452
31
0.0
0
LINE
8
TOP_HID
6
HIDDEN
10
1.332077
20
0.503452
30
0.0
11
1.330155
21
0.504518
31
0.0
0
LINE
8
TOP_HID
6
HIDDEN
10
1.330155
20
0.504518
30
0.0
11
1.328280
21
0.505666
31
0.0
0
LINE
8
TOP_HID
6
HIDDEN
10
1.328280
20
0.505666
30
0.0
11
1.326457
21
0.506893
31
0.0
0
LINE
8
TOP_HID
6
HIDDEN
10
1.326457
20
0.506893
30
0.0
11
1.324688
21
0.508196
31
0.0
0
LINE
8
TOP_HID
6
HIDDEN
10
1.324688
20
0.508196
30
0.0
11
1.322976
21
0.509574
31
0.0
0
LINE
8
TOP_HID
6
HIDDEN
10
1.322976
20
0.509574
30
0.0
11
1.321324
21
0.511024
31
0.0
0
LINE
8
TOP_HID
6
HIDDEN
10
1.321324
20
0.511024
30
0.0
11
1.319737
21
0.512544
31
0.0
0
LINE
8
TOP_HID
6
HIDDEN
10
1.319737
20
0.512544
30
0.0
11
1.318215
21
0.514130
31
0.0
0
LINE
8
TOP_HID
6
HIDDEN
10
1.318215
20
0.514130
30
0.0
11
1.316763
21
0.515780
31
0.0
0
LINE
8
TOP_HID
6
HIDDEN
10
1.316763
20
0.515780
30
0.0
11
1.315384
21
0.517490
31
0.0
0
LINE
8
TOP_HID
6
HIDDEN
10
1.315384
20
0.517490
30
0.0
11
1.314078
21
0.519258
31
0.0
0
LINE
8
TOP_HID
6
HIDDEN
10
1.314078
20
0.519258
30
0.0
11
1.312850
21
0.521081
31
0.0
0
LINE
8
TOP_HID
6
HIDDEN
10
1.312850
20
0.521081
30
0.0
11
1.311700
21
0.522954
31
0.0
0
LINE
8
TOP_HID
6
HIDDEN
10
1.311700
20
0.522954
30
0.0
11
1.310632
21
0.524874
31
0.0
0
LINE
8
TOP_HID
6
HIDDEN
10
1.310632
20
0.524874
30
0.0
11
1.309647
21
0.526839
31
0.0
0
LINE
8
TOP_HID
6
HIDDEN
10
1.319848
20
0.585265
30
0.0
11
1.321233
21
0.586589
31
0.0
0
LINE
8
TOP_HID
6
HIDDEN
10
1.321233
20
0.586589
30
0.0
11
1.322667
21
0.587861
31
0.0
0
LINE
8
TOP_HID
6
HIDDEN
10
1.322667
20
0.587861
30
0.0
11
1.324146
21
0.589079
31
0.0
0
LINE
8
TOP_HID
6
HIDDEN
10
1.324146
20
0.589079
30
0.0
11
1.325670
21
0.590240
31
0.0
0
LINE
8
TOP_HID
6
HIDDEN
10
1.325670
20
0.590240
30
0.0
11
1.327237
21
0.591343
31
0.0
0
LINE
8
TOP_HID
6
HIDDEN
10
1.327237
20
0.591343
30
0.0
11
1.328843
21
0.592388
31
0.0
0
LINE
8
TOP_HID
6
HIDDEN
10
1.328843
20
0.592388
30
0.0
11
1.330488
21
0.593371
31
0.0
0
LINE
8
TOP_HID
6
HIDDEN
10
1.330488
20
0.593371
30
0.0
11
1.332168
21
0.594293
31
0.0
0
LINE
8
TOP_HID
6
HIDDEN
10
1.332168
20
0.594293
30
0.0
11
1.333881
21
0.595151
31
0.0
0
LINE
8
TOP_HID
6
HIDDEN
10
1.333881
20
0.595151
30
0.0
11
1.335625
21
0.595945
31
0.0
0
LINE
8
TOP_HID
6
HIDDEN
10
1.335625
20
0.595945
30
0.0
11
1.337398
21
0.596673
31
0.0
0
LINE
8
TOP_HID
6
HIDDEN
10
1.337398
20
0.596673
30
0.0
11
1.339196
21
0.597334
31
0.0
0
LINE
8
TOP_HID
6
HIDDEN
10
1.339196
20
0.597334
30
0.0
11
1.341018
21
0.597928
31
0.0
0
LINE
8
TOP_HID
6
HIDDEN
10
1.341018
20
0.597928
30
0.0
11
1.342861
21
0.598453
31
0.0
0
LINE
8
TOP_HID
6
HIDDEN
10
1.342861
20
0.598453
30
0.0
11
1.344722
21
0.598909
31
0.0
0
LINE
8
TOP_HID
6
HIDDEN
10
1.344722
20
0.598909
30
0.0
11
1.346599
21
0.599295
31
0.0
0
LINE
8
TOP_HID
6
HIDDEN
10
1.346599
20
0.599295
30
0.0
11
1.348489
21
0.599611
31
0.0
0
LINE
8
TOP_HID
6
HIDDEN
10
1.348489
20
0.599611
30
0.0
11
1.350389
21
0.599856
31
0.0
0
LINE
8
TOP_HID
6
HIDDEN
10
1.350389
20
0.599856
30
0.0
11
1.352297
21
0.600030
31
0.0
0
LINE
8
TOP_HID
6
HIDDEN
10
1.352297
20
0.600030
30
0.0
11
1.354211
21
0.600133
31
0.0
0
LINE
8
TOP_HID
6
HIDDEN
10
1.354211
20
0.600133
30
0.0
11
1.356127
21
0.600164
31
0.0
0
LINE
8
TOP_HID
6
HIDDEN
10
1.356127
20
0.600164
30
0.0
11
1.358042
21
0.600124
31
0.0
0
LINE
8
TOP_HID
6
HIDDEN
10
1.358042
20
0.600124
30
0.0
11
1.359955
21
0.600012
31
0.0
0
LINE
8
TOP_HID
6
HIDDEN
10
1.359955
20
0.600012
30
0.0
11
1.361863
21
0.599829
31
0.0
0
LINE
8
TOP_HID
6
HIDDEN
10
1.361863
20
0.599829
30
0.0
11
1.363762
21
0.599575
31
0.0
0
LINE
8
TOP_HID
6
HIDDEN
10
1.363762
20
0.599575
30
0.0
11
1.365650
21
0.599250
31
0.0
0
LINE
8
TOP_HID
6
HIDDEN
10
1.365650
20
0.599250
30
0.0
11
1.367525
21
0.598854
31
0.0
0
LINE
8
TOP_HID
6
HIDDEN
10
1.367525
20
0.598854
30
0.0
11
1.369384
21
0.598389
31
0.0
0
LINE
8
TOP_HID
6
HIDDEN
10
1.369384
20
0.598389
30
0.0
11
1.371224
21
0.597855
31
0.0
0
LINE
8
TOP_HID
6
HIDDEN
10
1.371224
20
0.597855
30
0.0
11
1.373043
21
0.597253
31
0.0
0
LINE
8
TOP_HID
6
HIDDEN
10
1.373043
20
0.597253
30
0.0
11
1.374838
21
0.596583
31
0.0
0
LINE
8
TOP_HID
6
HIDDEN
10
1.374838
20
0.596583
30
0.0
11
1.376607
21
0.595846
31
0.0
0
LINE
8
TOP_HID
6
HIDDEN
10
1.376607
20
0.595846
30
0.0
11
1.378348
21
0.595044
31
0.0
0
LINE
8
TOP_HID
6
HIDDEN
10
1.378348
20
0.595044
30
0.0
11
1.380057
21
0.594178
31
0.0
0
LINE
8
TOP_HID
6
HIDDEN
10
1.380057
20
0.594178
30
0.0
11
1.381732
21
0.593248
31
0.0
0
LINE
8
TOP_HID
6
HIDDEN
10
1.381732
20
0.593248
30
0.0
11
1.383372
21
0.592257
31
0.0
0
LINE
8
TOP_HID
6
HIDDEN
10
1.383372
20
0.592257
30
0.0
11
1.384974
21
0.591205
31
0.0
0
LINE
8
TOP_HID
6
HIDDEN
10
1.384974
20
0.591205
30
0.0
11
1.386535
21
0.590094
31
0.0
0
LINE
8
TOP_HID
6
HIDDEN
10
1.386535
20
0.590094
30
0.0
11
1.388053
21
0.588925
31
0.0
0
LINE
8
TOP_HID
6
HIDDEN
10
1.388053
20
0.588925
30
0.0
11
1.389527
21
0.587701
31
0.0
0
LINE
8
TOP_HID
6
HIDDEN
10
1.389527
20
0.587701
30
0.0
11
1.390954
21
0.586422
31
0.0
0
LINE
8
TOP_HID
6
HIDDEN
10
1.390954
20
0.586422
30
0.0
11
1.392333
21
0.585091
31
0.0
0
LINE
8
TOP_HID
6
HIDDEN
10
1.392333
20
0.585091
30
0.0
11
1.393660
21
0.583709
31
0.0
0
LINE
8
TOP_HID
6
HIDDEN
10
1.393660
20
0.583709
30
0.0
11
1.394936
21
0.582279
31
0.0
0
LINE
8
TOP_HID
6
HIDDEN
10
1.394936
20
0.582279
30
0.0
11
1.396156
21
0.580802
31
0.0
0
LINE
8
TOP_HID
6
HIDDEN
10
1.396156
20
0.580802
30
0.0
11
1.397321
21
0.579281
31
0.0
0
LINE
8
TOP_HID
6
HIDDEN
10
1.397321
20
0.579281
30
0.0
11
1.398429
21
0.577717
31
0.0
0
LINE
8
TOP_HID
6
HIDDEN
10
1.398429
20
0.577717
30
0.0
11
1.399477
21
0.576113
31
0.0
0
LINE
8
TOP_HID
6
HIDDEN
10
1.399477
20
0.576113
30
0.0
11
1.400465
21
0.574471
31
0.0
0
LINE
8
TOP_HID
6
HIDDEN
10
1.400465
20
0.574471
30
0.0
11
1.401390
21
0.572793
31
0.0
0
LINE
8
TOP_HID
6
HIDDEN
10
1.401390
20
0.572793
30
0.0
11
1.402252
21
0.571082
31
0.0
0
LINE
8
TOP_HID
6
HIDDEN
10
1.402252
20
0.571082
30
0.0
11
1.403050
21
0.569340
31
0.0
0
LINE
8
TOP_HID
6
HIDDEN
10
1.403050
20
0.569340
30
0.0
11
1.403783
21
0.567569
31
0.0
0
LINE
8
TOP_HID
6
HIDDEN
10
1.403783
20
0.567569
30
0.0
11
1.404448
21
0.565772
31
0.0
0
LINE
8
TOP_HID
6
HIDDEN
10
1.404448
20
0.565772
30
0.0
11
1.405046
21
0.563952
31
0.0
0
LINE
8
TOP_HID
6
HIDDEN
10
1.405046
20
0.563952
30
0.0
11
1.405576
21
0.562110
31
0.0
0
LINE
8
TOP_HID
6
HIDDEN
10
1.405576
20
0.562110
30
0.0
11
1.406036
21
0.560250
31
0.0
0
LINE
8
TOP_HID
6
HIDDEN
10
1.406036
20
0.560250
30
0.0
11
1.406427
21
0.558374
31
0.0
0
LINE
8
TOP_HID
6
HIDDEN
10
1.406427
20
0.558374
30
0.0
11
1.406748
21
0.556485
31
0.0
0
LINE
8
TOP_HID
6
HIDDEN
10
1.406748
20
0.556485
30
0.0
11
1.406997
21
0.554585
31
0.0
0
LINE
8
TOP_HID
6
HIDDEN
10
1.406997
20
0.554585
30
0.0
11
1.407176
21
0.552678
31
0.0
0
LINE
8
TOP_HID
6
HIDDEN
10
1.407176
20
0.552678
30
0.0
11
1.407283
21
0.550765
31
0.0
0
LINE
8
TOP_HID
6
HIDDEN
10
1.407283
20
0.550765
30
0.0
11
1.407319
21
0.548849
31
0.0
0
ENDSEC
0
EOF
