0
SECTION
2
HEADER
9
$ACADVER
1
AC1009
0
ENDSEC
0
SECTION
2
TABLES
0
TABLE
2
LTYPE
70
3
0
LTYPE
2
CONTINUOUS
70
0
3
Solid line
72
65
73
0
40
0.0
0
LTYPE
2
HIDDEN
70
0
3
__ __ __ __ __
72
65
73
2
40
0.051172
49
0.034132
49
-0.017040
0
LTYPE
2
CENTER
70
0
3
___ _ ___ _ ___
72
65
73
4
40
0.119384
49
0.068212
49
-0.017040
49
0.017040
49
-0.017040
0
ENDTAB
0
TABLE
2
LAYER
70
5
0
LAYER
2
0
70
0
62
7
6
CONTINUOUS
0
LAYER
2
FRONT
70
0
62
7
6
CONTINUOUS
0
LAYER
2
LEFT
70
0
62
7
6
CONTINUOUS
0
LAYER
2
TOP
70
0
62
7
6
CONTINUOUS
0
LAYER
2
TOP_HID
70
0
62
7
6
HIDDEN
0
ENDTAB
0
ENDSEC
0
SECTION
2
ENTITIES
0
LINE
8
FRONT
10
0.000000
20
1.364062
30
0.0
11
0.301645
21
1.364062
31
0.0
0
LINE
8
FRONT
10
0.301645
20
1.364062
30
0.0
11
0.301645
21
0.954688
31
0.0
0
LINE
8
FRONT
10
0.301645
20
0.954688
30
0.0
11
0.517105
21
0.954688
31
0.0
0
LINE
8
FRONT
10
0.517105
20
0.954688
30
0.0
11
0.711020
21
0.954688
31
0.0
0
LINE
8
FRONT
10
0.711020
20
0.954688
30
0.0
11
0.711020
21
1.364062
31
0.0
0
LINE
8
FRONT
10
0.711020
20
1.364062
30
0.0
11
1.023438
21
1.364062
31
0.0
0
LINE
8
FRONT
10
1.023438
20
1.364062
30
0.0
11
1.023438
21
1.773438
31
0.0
0
LINE
8
FRONT
10
1.023438
20
1.773438
30
0.0
11
0.517105
21
1.773438
31
0.0
0
LINE
8
FRONT
10
0.517105
20
1.773438
30
0.0
11
0.000000
21
1.773438
31
0.0
0
LINE
8
FRONT
10
0.000000
20
1.773438
30
0.0
11
0.000000
21
1.364062
31
0.0
0
LINE
8
LEFT
10
1.978125
20
1.364063
30
0.0
11
1.228125
21
1.364062
31
0.0
0
LINE
8
LEFT
10
1.228125
20
1.364062
30
0.0
11
1.228125
21
0.954688
31
0.0
0
LINE
8
LEFT
10
1.978125
20
0.954688
30
0.0
11
1.228125
21
0.954688
31
0.0
0
LINE
8
LEFT
10
1.978125
20
1.364063
30
0.0
11
1.978125
21
0.954688
31
0.0
0
LINE
8
LEFT
10
1.978125
20
1.773438
30
0.0
11
1.228125
21
1.773438
31
0.0
0
LINE
8
LEFT
10
1.228125
20
1.773438
30
0.0
11
1.228125
21
1.364062
31
0.0
0
LINE
8
LEFT
10
1.978125
20
1.773438
30
0.0
11
1.978125
21
1.364063
31
0.0
0
LINE
8
TOP
10
1.023438
20
0.000000
30
0.0
11
1.023438
21
0.750000
31
0.0
0
LINE
8
TOP
10
1.023438
20
0.750000
30
0.0
11
0.517105
21
0.750000
31
0.0
0
LINE
8
TOP
10
1.023438
20
0.000000
30
0.0
11
0.517105
21
0.000000
31
0.0
0
LINE
8
TOP
10
0.517105
20
0.750000
30
0.0
11
0.000000
21
0.750000
31
0.0
0
LINE
8
TOP
10
0.000000
20
0.000000
30
0.0
11
0.000000
21
0.750000
31
0.0
0
LINE
8
TOP
10
0.517105
20
0.000000
30
0.0
11
0.000000
21
0.000000
31
0.0
0
LINE
8
TOP_HID
6
HIDDEN
10
0.000000
20
0.750000
30
0.0
11
0.301645
21
0.750000
31
0.0
0
LINE
8
TOP_HID
6
HIDDEN
10
0.301645
20
0.000000
30
0.0
11
0.301645
21
0.750000
31
0.0
0
LINE
8
TOP_HID
6
HIDDEN
10
0.000000
20
0.000000
30
0.0
11
0.301645
21
0.000000
31
0.0
0
LINE
8
TOP_HID
6
HIDDEN
10
0.301645
20
0.000000
30
0.0
11
0.301645
21
0.750000
31
0.0
0
LINE
8
TOP_HID
6
HIDDEN
10
0.301645
20
0.750000
30
0.0
11
0.517105
21
0.750000
31
0.0
0
LINE
8
TOP_HID
6
HIDDEN
10
0.301645
20
0.000000
30
0.0
11
0.517105
21
0.000000
31
0.0
0
LINE
8
TOP_HID
6
HIDDEN
10
0.517105
20
0.750000
30
0.0
11
0.711020
21
0.750000
31
0.0
0
LINE
8
TOP_HID
6
HIDDEN
10
0.711020
20
0.000000
30
0.0
11
0.711020
21
0.750000
31
0.0
0
LINE
8
TOP_HID
6
HIDDEN
10
0.517105
20
0.000000
30
0.0
11
0.711020
21
0.000000
31
0.0
0
LINE
8
TOP_HID
6
HIDDEN
10
0.711020
20
0.000000
30
0.0
11
0.711020
21
0.750000
31
0.0
0
LINE
8
TOP_HID
6
HIDDEN
10
0.711020
20
0.750000
30
0.0
11
1.023438
21
0.750000
31
0.0
0
LINE
8
TOP_HID
6
HIDDEN
10
0.711020
20
0.000000
30
0.0
11
1.023438
21
0.000000
31
0.0
0
ENDSEC
0
EOF
