0
SECTION
2
HEADER
9
$ACADVER
1
AC1009
0
ENDSEC
0
SECTION
2
TABLES
0
TABLE
2
LTYPE
70
3
0
LTYPE
2
CONTINUOUS
70
0
3
Solid line
72
65
73
0
40
0.0
0
LTYPE
2
HIDDEN
70
0
3
__ __ __ __ __
72
65
73
2
40
0.053684
49
0.035807
49
-0.017877
0
LTYPE
2
CENTER
70
0
3
___ _ ___ _ ___
72
65
73
4
40
0.125245
49
0.071561
49
-0.017877
49
0.017877
49
-0.017877
0
ENDTAB
0
TABLE
2
LAYER
70
5
0
LAYER
2
0
70
0
62
7
6
CONTINUOUS
0
LAYER
2
FRONT
70
0
62
7
6
CONTINUOUS
0
LAYER
2
LEFT
70
0
62
7
6
CONTINUOUS
0
LAYER
2
TOP
70
0
62
7
6
CONTINUOUS
0
LAYER
2
TOP_HID
70
0
62
7
6
HIDDEN
0
ENDTAB
0
ENDSEC
0
SECTION
2
ENTITIES
0
LINE
8
FRONT
10
0.536675
20
0.425674
30
0.0
11
0.590127
21
0.428342
31
0.0
0
LINE
8
FRONT
10
0.590127
20
0.428342
30
0.0
11
0.643048
21
0.436319
31
0.0
0
LINE
8
FRONT
10
0.643048
20
0.436319
30
0.0
11
0.694912
21
0.449525
31
0.0
0
LINE
8
FRONT
10
0.694912
20
0.449525
30
0.0
11
0.745203
21
0.467829
31
0.0
0
LINE
8
FRONT
10
0.745203
20
0.467829
30
0.0
11
0.793422
21
0.491050
31
0.0
0
LINE
8
FRONT
10
0.793422
20
0.491050
30
0.0
11
0.839089
21
0.518957
31
0.0
0
LINE
8
FRONT
10
0.839089
20
0.518957
30
0.0
11
0.881751
21
0.551272
31
0.0
0
LINE
8
FRONT
10
0.881751
20
0.551272
30
0.0
11
0.920983
21
0.587674
31
0.0
0
LINE
8
FRONT
10
0.920983
20
0.587674
30
0.0
11
0.956395
21
0.627801
31
0.0
0
LINE
8
FRONT
10
0.956395
20
0.627801
30
0.0
11
0.987637
21
0.671255
31
0.0
0
LINE
8
FRONT
10
0.987637
20
0.671255
30
0.0
11
1.014396
21
0.717603
31
0.0
0
LINE
8
FRONT
10
1.014396
20
0.717603
30
0.0
11
1.036407
21
0.766386
31
0.0
0
LINE
8
FRONT
10
1.036407
20
0.766386
30
0.0
11
1.053452
21
0.817118
31
0.0
0
LINE
8
FRONT
10
1.053452
20
0.817118
30
0.0
11
1.065362
21
0.869295
31
0.0
0
LINE
8
FRONT
10
1.065362
20
0.869295
30
0.0
11
1.072016
21
0.922398
31
0.0
0
LINE
8
FRONT
10
1.072016
20
0.922398
30
0.0
11
1.073350
21
0.975900
31
0.0
0
LINE
8
FRONT
10
1.073350
20
0.975900
30
0.0
11
1.069351
21
1.029269
31
0.0
0
LINE
8
FRONT
10
1.069351
20
1.029269
30
0.0
11
1.060058
21
1.081975
31
0.0
0
LINE
8
FRONT
10
1.060058
20
1.081975
30
0.0
11
1.045563
21
1.133493
31
0.0
0
LINE
8
FRONT
10
1.045563
20
1.133493
30
0.0
11
1.026010
21
1.183313
31
0.0
0
LINE
8
FRONT
10
1.026010
20
1.183313
30
0.0
11
1.001594
21
1.230937
31
0.0
0
LINE
8
FRONT
10
1.001594
20
1.230937
30
0.0
11
0.972558
21
1.275895
31
0.0
0
LINE
8
FRONT
10
0.972558
20
1.275895
30
0.0
11
0.939189
21
1.317737
31
0.0
0
LINE
8
FRONT
10
0.939189
20
1.317737
30
0.0
11
0.901821
21
1.356050
31
0.0
0
LINE
8
FRONT
10
0.901821
20
1.356050
30
0.0
11
0.860823
21
1.390451
31
0.0
0
LINE
8
FRONT
10
0.860823
20
1.390451
30
0.0
11
0.816604
21
1.420599
31
0.0
0
LINE
8
FRONT
10
0.816604
20
1.420599
30
0.0
11
0.769602
21
1.446194
31
0.0
0
LINE
8
FRONT
10
0.769602
20
1.446194
30
0.0
11
0.720286
21
1.466983
31
0.0
0
LINE
8
FRONT
10
0.720286
20
1.466983
30
0.0
11
0.669145
21
1.482758
31
0.0
0
LINE
8
FRONT
10
0.669145
20
1.482758
30
0.0
11
0.616687
21
1.493362
31
0.0
0
LINE
8
FRONT
10
0.616687
20
1.493362
30
0.0
11
0.563435
21
1.498691
31
0.0
0
LINE
8
FRONT
10
0.563435
20
1.498691
30
0.0
11
0.509916
21
1.498691
31
0.0
0
LINE
8
FRONT
10
0.509916
20
1.498691
30
0.0
11
0.456663
21
1.493362
31
0.0
0
LINE
8
FRONT
10
0.456663
20
1.493362
30
0.0
11
0.404205
21
1.482758
31
0.0
0
LINE
8
FRONT
10
0.404205
20
1.482758
30
0.0
11
0.353064
21
1.466983
31
0.0
0
LINE
8
FRONT
10
0.353064
20
1.466983
30
0.0
11
0.303748
21
1.446194
31
0.0
0
LINE
8
FRONT
10
0.303748
20
1.446194
30
0.0
11
0.256747
21
1.420599
31
0.0
0
LINE
8
FRONT
10
0.256747
20
1.420599
30
0.0
11
0.212528
21
1.390451
31
0.0
0
LINE
8
FRONT
10
0.212528
20
1.390451
30
0.0
11
0.171530
21
1.356050
31
0.0
0
LINE
8
FRONT
10
0.171530
20
1.356050
30
0.0
11
0.134161
21
1.317737
31
0.0
0
LINE
8
FRONT
10
0.134161
20
1.317737
30
0.0
11
0.100793
21
1.275895
31
0.0
0
LINE
8
FRONT
10
0.100793
20
1.275895
30
0.0
11
0.071756
21
1.230937
31
0.0
0
LINE
8
FRONT
10
0.071756
20
1.230937
30
0.0
11
0.047341
21
1.183313
31
0.0
0
LINE
8
FRONT
10
0.047341
20
1.183313
30
0.0
11
0.027788
21
1.133493
31
0.0
0
LINE
8
FRONT
10
0.027788
20
1.133493
30
0.0
11
0.013293
21
1.081975
31
0.0
0
LINE
8
FRONT
10
0.013293
20
1.081975
30
0.0
11
0.003999
21
1.029269
31
0.0
0
LINE
8
FRONT
10
0.003999
20
1.029269
30
0.0
11
0.000000
21
0.975900
31
0.0
0
LINE
8
FRONT
10
0.000000
20
0.975900
30
0.0
11
0.001334
21
0.922398
31
0.0
0
LINE
8
FRONT
10
0.001334
20
0.922398
30
0.0
11
0.007989
21
0.869295
31
0.0
0
LINE
8
FRONT
10
0.007989
20
0.869295
30
0.0
11
0.019898
21
0.817118
31
0.0
0
LINE
8
FRONT
10
0.019898
20
0.817118
30
0.0
11
0.036943
21
0.766386
31
0.0
0
LINE
8
FRONT
10
0.036943
20
0.766386
30
0.0
11
0.058955
21
0.717603
31
0.0
0
LINE
8
FRONT
10
0.058955
20
0.717603
30
0.0
11
0.085714
21
0.671255
31
0.0
0
LINE
8
FRONT
10
0.085714
20
0.671255
30
0.0
11
0.116955
21
0.627801
31
0.0
0
LINE
8
FRONT
10
0.116955
20
0.627801
30
0.0
11
0.152368
21
0.587674
31
0.0
0
LINE
8
FRONT
10
0.152368
20
0.587674
30
0.0
11
0.191600
21
0.551272
31
0.0
0
LINE
8
FRONT
10
0.191600
20
0.551272
30
0.0
11
0.234261
21
0.518957
31
0.0
0
LINE
8
FRONT
10
0.234261
20
0.518957
30
0.0
11
0.279928
21
0.491050
31
0.0
0
LINE
8
FRONT
10
0.279928
20
0.491050
30
0.0
11
0.328147
21
0.467829
31
0.0
0
LINE
8
FRONT
10
0.328147
20
0.467829
30
0.0
11
0.378438
21
0.449525
31
0.0
0
LINE
8
FRONT
10
0.378438
20
0.449525
30
0.0
11
0.430302
21
0.436319
31
0.0
0
LINE
8
FRONT
10
0.430302
20
0.436319
30
0.0
11
0.483223
21
0.428342
31
0.0
0
LINE
8
FRONT
10
0.483223
20
0.428342
30
0.0
11
0.536675
21
0.425674
31
0.0
0
LINE
8
LEFT
10
1.288087
20
1.499359
30
0.0
11
1.288087
21
0.425674
31
0.0
0
LINE
8
LEFT
10
1.288087
20
0.425674
30
0.0
11
1.499025
21
0.425674
31
0.0
0
LINE
8
LEFT
10
1.499025
20
1.499359
30
0.0
11
1.499025
21
0.425674
31
0.0
0
LINE
8
LEFT
10
1.499025
20
1.499359
30
0.0
11
1.288087
21
1.499359
31
0.0
0
LINE
8
TOP
10
1.073684
20
0.210938
30
0.0
11
0.000000
21
0.210938
31
0.0
0
LINE
8
TOP
10
1.073684
20
0.000000
30
0.0
11
0.000000
21
0.000000
31
0.0
0
LINE
8
TOP
10
1.073684
20
0.000000
30
0.0
11
1.073684
21
0.210938
31
0.0
0
LINE
8
TOP
10
0.000000
20
0.000000
30
0.0
11
0.000000
21
0.210938
31
0.0
0
LINE
8
TOP_HID
6
HIDDEN
10
0.536842
20
0.210938
30
0.0
11
1.073684
21
0.210938
31
0.0
0
LINE
8
TOP_HID
6
HIDDEN
10
0.000000
20
0.210938
30
0.0
11
0.536842
21
0.210938
31
0.0
0
LINE
8
TOP_HID
6
HIDDEN
10
0.536842
20
0.000000
30
0.0
11
1.073684
21
0.000000
31
0.0
0
LINE
8
TOP_HID
6
HIDDEN
10
0.000000
20
0.000000
30
0.0
11
0.536842
21
0.000000
31
0.0
0
ENDSEC
0
EOF
