0
SECTION
2
HEADER
9
$ACADVER
1
AC1009
0
ENDSEC
0
SECTION
2
TABLES
0
TABLE
2
LTYPE
70
3
0
LTYPE
2
CONTINUOUS
70
0
3
Solid line
72
65
73
0
40
0.0
0
LTYPE
2
HIDDEN
70
0
3
__ __ __ __ __
72
65
73
2
40
0.050000
49
0.033350
49
-0.016650
0
LTYPE
2
CENTER
70
0
3
___ _ ___ _ ___
72
65
73
4
40
0.116650
49
0.066650
49
-0.016650
49
0.016650
49
-0.016650
0
ENDTAB
0
TABLE
2
LAYER
70
7
0
LAYER
2
0
70
0
62
7
6
CONTINUOUS
0
LAYER
2
FRONT
70
0
62
7
6
CONTINUOUS
0
LAYER
2
FRONT_HID
70
0
62
7
6
HIDDEN
0
LAYER
2
LEFT
70
0
62
7
6
CONTINUOUS
0
LAYER
2
LEFT_HID
70
0
62
7
6
HIDDEN
0
LAYER
2
TOP
70
0
62
7
6
CONTINUOUS
0
LAYER
2
TOP_HID
70
0
62
7
6
HIDDEN
0
ENDTAB
0
ENDSEC
0
SECTION
2
ENTITIES
0
LINE
8
FRONT
10
0.000000
20
0.950000
30
0.0
11
1.000000
21
0.950000
31
0.0
0
LINE
8
FRONT
10
0.000000
20
1.950000
30
0.0
11
0.000000
21
0.950000
31
0.0
0
LINE
8
FRONT
10
1.000000
20
0.950000
30
0.0
11
1.000000
21
1.950000
31
0.0
0
LINE
8
FRONT
10
1.000000
20
1.950000
30
0.0
11
0.000000
21
1.950000
31
0.0
0
LINE
8
FRONT_HID
6
HIDDEN
10
0.503947
20
1.071053
30
0.0
11
0.541678
21
1.072936
31
0.0
0
LINE
8
FRONT_HID
6
HIDDEN
10
0.541678
20
1.072936
30
0.0
11
0.579034
21
1.078566
31
0.0
0
LINE
8
FRONT_HID
6
HIDDEN
10
0.579034
20
1.078566
30
0.0
11
0.615644
21
1.087888
31
0.0
0
LINE
8
FRONT_HID
6
HIDDEN
10
0.615644
20
1.087888
30
0.0
11
0.651144
21
1.100809
31
0.0
0
LINE
8
FRONT_HID
6
HIDDEN
10
0.651144
20
1.100809
30
0.0
11
0.685180
21
1.117200
31
0.0
0
LINE
8
FRONT_HID
6
HIDDEN
10
0.685180
20
1.117200
30
0.0
11
0.717416
21
1.136899
31
0.0
0
LINE
8
FRONT_HID
6
HIDDEN
10
0.717416
20
1.136899
30
0.0
11
0.747530
21
1.159709
31
0.0
0
LINE
8
FRONT_HID
6
HIDDEN
10
0.747530
20
1.159709
30
0.0
11
0.775223
21
1.185405
31
0.0
0
LINE
8
FRONT_HID
6
HIDDEN
10
0.775223
20
1.185405
30
0.0
11
0.800220
21
1.213730
31
0.0
0
LINE
8
FRONT_HID
6
HIDDEN
10
0.800220
20
1.213730
30
0.0
11
0.822273
21
1.244404
31
0.0
0
LINE
8
FRONT_HID
6
HIDDEN
10
0.822273
20
1.244404
30
0.0
11
0.841162
21
1.277120
31
0.0
0
LINE
8
FRONT_HID
6
HIDDEN
10
0.841162
20
1.277120
30
0.0
11
0.856700
21
1.311555
31
0.0
0
LINE
8
FRONT_HID
6
HIDDEN
10
0.856700
20
1.311555
30
0.0
11
0.868731
21
1.347366
31
0.0
0
LINE
8
FRONT_HID
6
HIDDEN
10
0.868731
20
1.347366
30
0.0
11
0.877138
21
1.384196
31
0.0
0
LINE
8
FRONT_HID
6
HIDDEN
10
0.877138
20
1.384196
30
0.0
11
0.881835
21
1.421681
31
0.0
0
LINE
8
FRONT_HID
6
HIDDEN
10
0.881835
20
1.421681
30
0.0
11
0.882777
21
1.459447
31
0.0
0
LINE
8
FRONT_HID
6
HIDDEN
10
0.882777
20
1.459447
30
0.0
11
0.879954
21
1.497120
31
0.0
0
LINE
8
FRONT_HID
6
HIDDEN
10
0.879954
20
1.497120
30
0.0
11
0.873394
21
1.534324
31
0.0
0
LINE
8
FRONT_HID
6
HIDDEN
10
0.873394
20
1.534324
30
0.0
11
0.863162
21
1.570690
31
0.0
0
LINE
8
FRONT_HID
6
HIDDEN
10
0.863162
20
1.570690
30
0.0
11
0.849360
21
1.605856
31
0.0
0
LINE
8
FRONT_HID
6
HIDDEN
10
0.849360
20
1.605856
30
0.0
11
0.832125
21
1.639474
31
0.0
0
LINE
8
FRONT_HID
6
HIDDEN
10
0.832125
20
1.639474
30
0.0
11
0.811629
21
1.671208
31
0.0
0
LINE
8
FRONT_HID
6
HIDDEN
10
0.811629
20
1.671208
30
0.0
11
0.788075
21
1.700744
31
0.0
0
LINE
8
FRONT_HID
6
HIDDEN
10
0.788075
20
1.700744
30
0.0
11
0.761697
21
1.727788
31
0.0
0
LINE
8
FRONT_HID
6
HIDDEN
10
0.761697
20
1.727788
30
0.0
11
0.732757
21
1.752071
31
0.0
0
LINE
8
FRONT_HID
6
HIDDEN
10
0.732757
20
1.752071
30
0.0
11
0.701544
21
1.773352
31
0.0
0
LINE
8
FRONT_HID
6
HIDDEN
10
0.701544
20
1.773352
30
0.0
11
0.668366
21
1.791420
31
0.0
0
LINE
8
FRONT_HID
6
HIDDEN
10
0.668366
20
1.791420
30
0.0
11
0.633555
21
1.806094
31
0.0
0
LINE
8
FRONT_HID
6
HIDDEN
10
0.633555
20
1.806094
30
0.0
11
0.597455
21
1.817229
31
0.0
0
LINE
8
FRONT_HID
6
HIDDEN
10
0.597455
20
1.817229
30
0.0
11
0.560427
21
1.824715
31
0.0
0
LINE
8
FRONT_HID
6
HIDDEN
10
0.560427
20
1.824715
30
0.0
11
0.522836
21
1.828476
31
0.0
0
LINE
8
FRONT_HID
6
HIDDEN
10
0.522836
20
1.828476
30
0.0
11
0.485058
21
1.828476
31
0.0
0
LINE
8
FRONT_HID
6
HIDDEN
10
0.485058
20
1.828476
30
0.0
11
0.447468
21
1.824715
31
0.0
0
LINE
8
FRONT_HID
6
HIDDEN
10
0.447468
20
1.824715
30
0.0
11
0.410439
21
1.817229
31
0.0
0
LINE
8
FRONT_HID
6
HIDDEN
10
0.410439
20
1.817229
30
0.0
11
0.374340
21
1.806094
31
0.0
0
LINE
8
FRONT_HID
6
HIDDEN
10
0.374340
20
1.806094
30
0.0
11
0.339528
21
1.791420
31
0.0
0
LINE
8
FRONT_HID
6
HIDDEN
10
0.339528
20
1.791420
30
0.0
11
0.306351
21
1.773352
31
0.0
0
LINE
8
FRONT_HID
6
HIDDEN
10
0.306351
20
1.773352
30
0.0
11
0.275137
21
1.752071
31
0.0
0
LINE
8
FRONT_HID
6
HIDDEN
10
0.275137
20
1.752071
30
0.0
11
0.246198
21
1.727788
31
0.0
0
LINE
8
FRONT_HID
6
HIDDEN
10
0.246198
20
1.727788
30
0.0
11
0.219820
21
1.700744
31
0.0
0
LINE
8
FRONT_HID
6
HIDDEN
10
0.219820
20
1.700744
30
0.0
11
0.196266
21
1.671208
31
0.0
0
LINE
8
FRONT_HID
6
HIDDEN
10
0.196266
20
1.671208
30
0.0
11
0.175769
21
1.639474
31
0.0
0
LINE
8
FRONT_HID
6
HIDDEN
10
0.175769
20
1.639474
30
0.0
11
0.158535
21
1.605856
31
0.0
0
LINE
8
FRONT_HID
6
HIDDEN
10
0.158535
20
1.605856
30
0.0
11
0.144733
21
1.570690
31
0.0
0
LINE
8
FRONT_HID
6
HIDDEN
10
0.144733
20
1.570690
30
0.0
11
0.134501
21
1.534324
31
0.0
0
LINE
8
FRONT_HID
6
HIDDEN
10
0.134501
20
1.534324
30
0.0
11
0.127941
21
1.497120
31
0.0
0
LINE
8
FRONT_HID
6
HIDDEN
10
0.127941
20
1.497120
30
0.0
11
0.125118
21
1.459447
31
0.0
0
LINE
8
FRONT_HID
6
HIDDEN
10
0.125118
20
1.459447
30
0.0
11
0.126060
21
1.421681
31
0.0
0
LINE
8
FRONT_HID
6
HIDDEN
10
0.126060
20
1.421681
30
0.0
11
0.130757
21
1.384196
31
0.0
0
LINE
8
FRONT_HID
6
HIDDEN
10
0.130757
20
1.384196
30
0.0
11
0.139163
21
1.347366
31
0.0
0
LINE
8
FRONT_HID
6
HIDDEN
10
0.139163
20
1.347366
30
0.0
11
0.151195
21
1.311555
31
0.0
0
LINE
8
FRONT_HID
6
HIDDEN
10
0.151195
20
1.311555
30
0.0
11
0.166733
21
1.277120
31
0.0
0
LINE
8
FRONT_HID
6
HIDDEN
10
0.166733
20
1.277120
30
0.0
11
0.185622
21
1.244404
31
0.0
0
LINE
8
FRONT_HID
6
HIDDEN
10
0.185622
20
1.244404
30
0.0
11
0.207674
21
1.213730
31
0.0
0
LINE
8
FRONT_HID
6
HIDDEN
10
0.207674
20
1.213730
30
0.0
11
0.232672
21
1.185405
31
0.0
0
LINE
8
FRONT_HID
6
HIDDEN
10
0.232672
20
1.185405
30
0.0
11
0.260365
21
1.159709
31
0.0
0
LINE
8
FRONT_HID
6
HIDDEN
10
0.260365
20
1.159709
30
0.0
11
0.290479
21
1.136899
31
0.0
0
LINE
8
FRONT_HID
6
HIDDEN
10
0.290479
20
1.136899
30
0.0
11
0.322714
21
1.117200
31
0.0
0
LINE
8
FRONT_HID
6
HIDDEN
10
0.322714
20
1.117200
30
0.0
11
0.356751
21
1.100809
31
0.0
0
LINE
8
FRONT_HID
6
HIDDEN
10
0.356751
20
1.100809
30
0.0
11
0.392251
21
1.087888
31
0.0
0
LINE
8
FRONT_HID
6
HIDDEN
10
0.392251
20
1.087888
30
0.0
11
0.428860
21
1.078566
31
0.0
0
LINE
8
FRONT_HID
6
HIDDEN
10
0.428860
20
1.078566
30
0.0
11
0.466216
21
1.072936
31
0.0
0
LINE
8
FRONT_HID
6
HIDDEN
10
0.466216
20
1.072936
30
0.0
11
0.503947
21
1.071053
31
0.0
0
LINE
8
FRONT_HID
6
HIDDEN
10
0.503947
20
1.071053
30
0.0
11
0.541678
21
1.072936
31
0.0
0
LINE
8
FRONT_HID
6
HIDDEN
10
0.541678
20
1.072936
30
0.0
11
0.579034
21
1.078566
31
0.0
0
LINE
8
FRONT_HID
6
HIDDEN
10
0.579034
20
1.078566
30
0.0
11
0.615644
21
1.087888
31
0.0
0
LINE
8
FRONT_HID
6
HIDDEN
10
0.615644
20
1.087888
30
0.0
11
0.651144
21
1.100809
31
0.0
0
LINE
8
FRONT_HID
6
HIDDEN
10
0.651144
20
1.100809
30
0.0
11
0.685180
21
1.117200
31
0.0
0
LINE
8
FRONT_HID
6
HIDDEN
10
0.685180
20
1.117200
30
0.0
11
0.717416
21
1.136899
31
0.0
0
LINE
8
FRONT_HID
6
HIDDEN
10
0.717416
20
1.136899
30
0.0
11
0.747530
21
1.159709
31
0.0
0
LINE
8
FRONT_HID
6
HIDDEN
10
0.747530
20
1.159709
30
0.0
11
0.775223
21
1.185405
31
0.0
0
LINE
8
FRONT_HID
6
HIDDEN
10
0.775223
20
1.185405
30
0.0
11
0.800220
21
1.213730
31
0.0
0
LINE
8
FRONT_HID
6
HIDDEN
10
0.800220
20
1.213730
30
0.0
11
0.822273
21
1.244404
31
0.0
0
LINE
8
FRONT_HID
6
HIDDEN
10
0.822273
20
1.244404
30
0.0
11
0.841162
21
1.277120
31
0.0
0
LINE
8
FRONT_HID
6
HIDDEN
10
0.841162
20
1.277120
30
0.0
11
0.856700
21
1.311555
31
0.0
0
LINE
8
FRONT_HID
6
HIDDEN
10
0.856700
20
1.311555
30
0.0
11
0.868731
21
1.347366
31
0.0
0
LINE
8
FRONT_HID
6
HIDDEN
10
0.868731
20
1.347366
30
0.0
11
0.877138
21
1.384196
31
0.0
0
LINE
8
FRONT_HID
6
HIDDEN
10
0.877138
20
1.384196
30
0.0
11
0.881835
21
1.421681
31
0.0
0
LINE
8
FRONT_HID
6
HIDDEN
10
0.881835
20
1.421681
30
0.0
11
0.882777
21
1.459447
31
0.0
0
LINE
8
FRONT_HID
6
HIDDEN
10
0.882777
20
1.459447
30
0.0
11
0.879954
21
1.497120
31
0.0
0
LINE
8
FRONT_HID
6
HIDDEN
10
0.879954
20
1.497120
30
0.0
11
0.873394
21
1.534324
31
0.0
0
LINE
8
FRONT_HID
6
HIDDEN
10
0.873394
20
1.534324
30
0.0
11
0.863162
21
1.570690
31
0.0
0
LINE
8
FRONT_HID
6
HIDDEN
10
0.863162
20
1.570690
30
0.0
11
0.849360
21
1.605856
31
0.0
0
LINE
8
FRONT_HID
6
HIDDEN
10
0.849360
20
1.605856
30
0.0
11
0.832125
21
1.639474
31
0.0
0
LINE
8
FRONT_HID
6
HIDDEN
10
0.832125
20
1.639474
30
0.0
11
0.811629
21
1.671208
31
0.0
0
LINE
8
FRONT_HID
6
HIDDEN
10
0.811629
20
1.671208
30
0.0
11
0.788075
21
1.700744
31
0.0
0
LINE
8
FRONT_HID
6
HIDDEN
10
0.788075
20
1.700744
30
0.0
11
0.761697
21
1.727788
31
0.0
0
LINE
8
FRONT_HID
6
HIDDEN
10
0.761697
20
1.727788
30
0.0
11
0.732757
21
1.752071
31
0.0
0
LINE
8
FRONT_HID
6
HIDDEN
10
0.732757
20
1.752071
30
0.0
11
0.701544
21
1.773352
31
0.0
0
LINE
8
FRONT_HID
6
HIDDEN
10
0.701544
20
1.773352
30
0.0
11
0.668366
21
1.791420
31
0.0
0
LINE
8
FRONT_HID
6
HIDDEN
10
0.668366
20
1.791420
30
0.0
11
0.633555
21
1.806094
31
0.0
0
LINE
8
FRONT_HID
6
HIDDEN
10
0.633555
20
1.806094
30
0.0
11
0.597455
21
1.817229
31
0.0
0
LINE
8
FRONT_HID
6
HIDDEN
10
0.597455
20
1.817229
30
0.0
11
0.560427
21
1.824715
31
0.0
0
LINE
8
FRONT_HID
6
HIDDEN
10
0.560427
20
1.824715
30
0.0
11
0.522836
21
1.828476
31
0.0
0
LINE
8
FRONT_HID
6
HIDDEN
10
0.522836
20
1.828476
30
0.0
11
0.485058
21
1.828476
31
0.0
0
LINE
8
FRONT_HID
6
HIDDEN
10
0.485058
20
1.828476
30
0.0
11
0.447468
21
1.824715
31
0.0
0
LINE
8
FRONT_HID
6
HIDDEN
10
0.447468
20
1.824715
30
0.0
11
0.410439
21
1.817229
31
0.0
0
LINE
8
FRONT_HID
6
HIDDEN
10
0.410439
20
1.817229
30
0.0
11
0.374340
21
1.806094
31
0.0
0
LINE
8
FRONT_HID
6
HIDDEN
10
0.374340
20
1.806094
30
0.0
11
0.339528
21
1.791420
31
0.0
0
LINE
8
FRONT_HID
6
HIDDEN
10
0.339528
20
1.791420
30
0.0
11
0.306351
21
1.773352
31
0.0
0
LINE
8
FRONT_HID
6
HIDDEN
10
0.306351
20
1.773352
30
0.0
11
0.275137
21
1.752071
31
0.0
0
LINE
8
FRONT_HID
6
HIDDEN
10
0.275137
20
1.752071
30
0.0
11
0.246198
21
1.727788
31
0.0
0
LINE
8
FRONT_HID
6
HIDDEN
10
0.246198
20
1.727788
30
0.0
11
0.219820
21
1.700744
31
0.0
0
LINE
8
FRONT_HID
6
HIDDEN
10
0.219820
20
1.700744
30
0.0
11
0.196266
21
1.671208
31
0.0
0
LINE
8
FRONT_HID
6
HIDDEN
10
0.196266
20
1.671208
30
0.0
11
0.175769
21
1.639474
31
0.0
0
LINE
8
FRONT_HID
6
HIDDEN
10
0.175769
20
1.639474
30
0.0
11
0.158535
21
1.605856
31
0.0
0
LINE
8
FRONT_HID
6
HIDDEN
10
0.158535
20
1.605856
30
0.0
11
0.144733
21
1.570690
31
0.0
0
LINE
8
FRONT_HID
6
HIDDEN
10
0.144733
20
1.570690
30
0.0
11
0.134501
21
1.534324
31
0.0
0
LINE
8
FRONT_HID
6
HIDDEN
10
0.134501
20
1.534324
30
0.0
11
0.127941
21
1.497120
31
0.0
0
LINE
8
FRONT_HID
6
HIDDEN
10
0.127941
20
1.497120
30
0.0
11
0.125118
21
1.459447
31
0.0
0
LINE
8
FRONT_HID
6
HIDDEN
10
0.125118
20
1.459447
30
0.0
11
0.126060
21
1.421681
31
0.0
0
LINE
8
FRONT_HID
6
HIDDEN
10
0.126060
20
1.421681
30
0.0
11
0.130757
21
1.384196
31
0.0
0
LINE
8
FRONT_HID
6
HIDDEN
10
0.130757
20
1.384196
30
0.0
11
0.139163
21
1.347366
31
0.0
0
LINE
8
FRONT_HID
6
HIDDEN
10
0.139163
20
1.347366
30
0.0
11
0.151195
21
1.311555
31
0.0
0
LINE
8
FRONT_HID
6
HIDDEN
10
0.151195
20
1.311555
30
0.0
11
0.166733
21
1.277120
31
0.0
0
LINE
8
FRONT_HID
6
HIDDEN
10
0.166733
20
1.277120
30
0.0
11
0.185622
21
1.244404
31
0.0
0
LINE
8
FRONT_HID
6
HIDDEN
10
0.185622
20
1.244404
30
0.0
11
0.207674
21
1.213730
31
0.0
0
LINE
8
FRONT_HID
6
HIDDEN
10
0.207674
20
1.213730
30
0.0
11
0.232672
21
1.185405
31
0.0
0
LINE
8
FRONT_HID
6
HIDDEN
10
0.232672
20
1.185405
30
0.0
11
0.260365
21
1.159709
31
0.0
0
LINE
8
FRONT_HID
6
HIDDEN
10
0.260365
20
1.159709
30
0.0
11
0.290479
21
1.136899
31
0.0
0
LINE
8
FRONT_HID
6
HIDDEN
10
0.290479
20
1.136899
30
0.0
11
0.322714
21
1.117200
31
0.0
0
LINE
8
FRONT_HID
6
HIDDEN
10
0.322714
20
1.117200
30
0.0
11
0.356751
21
1.100809
31
0.0
0
LINE
8
FRONT_HID
6
HIDDEN
10
0.356751
20
1.100809
30
0.0
11
0.392251
21
1.087888
31
0.0
0
LINE
8
FRONT_HID
6
HIDDEN
10
0.392251
20
1.087888
30
0.0
11
0.428860
21
1.078566
31
0.0
0
LINE
8
FRONT_HID
6
HIDDEN
10
0.428860
20
1.078566
30
0.0
11
0.466216
21
1.072936
31
0.0
0
LINE
8
FRONT_HID
6
HIDDEN
10
0.466216
20
1.072936
30
0.0
11
0.503947
21
1.071053
31
0.0
0
LINE
8
LEFT
10
1.200000
20
0.950000
30
0.0
11
1.700000
21
0.950000
31
0.0
0
LINE
8
LEFT
10
1.200000
20
1.950000
30
0.0
11
1.700000
21
1.950000
31
0.0
0
LINE
8
LEFT
10
1.700000
20
1.950000
30
0.0
11
1.700000
21
0.950000
31
0.0
0
LINE
8
LEFT
10
1.200000
20
1.950000
30
0.0
11
1.200000
21
0.950000
31
0.0
0
LINE
8
LEFT
10
1.700000
20
1.071053
30
0.0
11
1.950000
21
1.071053
31
0.0
0
LINE
8
LEFT
10
1.950000
20
1.828947
30
0.0
11
1.950000
21
1.071053
31
0.0
0
LINE
8
LEFT
10
1.950000
20
1.828947
30
0.0
11
1.700000
21
1.828947
31
0.0
0
LINE
8
LEFT_HID
6
HIDDEN
10
1.700000
20
1.071053
30
0.0
11
1.700000
21
1.828947
31
0.0
0
LINE
8
LEFT_HID
6
HIDDEN
10
1.700000
20
1.828947
30
0.0
11
1.700000
21
1.071053
31
0.0
0
LINE
8
TOP
10
0.000000
20
0.750000
30
0.0
11
0.000000
21
0.250000
31
0.0
0
LINE
8
TOP
10
1.000000
20
0.750000
30
0.0
11
1.000000
21
0.250000
31
0.0
0
LINE
8
TOP
10
1.000000
20
0.750000
30
0.0
11
0.000000
21
0.750000
31
0.0
0
LINE
8
TOP
10
1.000000
20
0.250000
30
0.0
11
0.000000
21
0.250000
31
0.0
0
LINE
8
TOP
10
0.882895
20
0.000000
30
0.0
11
0.125000
21
0.000000
31
0.0
0
LINE
8
TOP
10
0.882895
20
0.000000
30
0.0
11
0.882895
21
0.250000
31
0.0
0
LINE
8
TOP
10
0.125000
20
0.000000
30
0.0
11
0.125000
21
0.250000
31
0.0
0
LINE
8
TOP_HID
6
HIDDEN
10
0.503947
20
0.250000
30
0.0
11
0.882895
21
0.250000
31
0.0
0
LINE
8
TOP_HID
6
HIDDEN
10
0.882895
20
0.250000
30
0.0
11
0.125000
21
0.250000
31
0.0
0
LINE
8
TOP_HID
6
HIDDEN
10
0.125000
20
0.250000
30
0.0
11
0.503947
21
0.250000
31
0.0
0
LINE
8
TOP_HID
6
HIDDEN
10
0.503947
20
0.000000
30
0.0
11
0.882895
21
0.000000
31
0.0
0
LINE
8
TOP_HID
6
HIDDEN
10
0.125000
20
0.000000
30
0.0
11
0.503947
21
0.000000
31
0.0
0
ENDSEC
0
EOF
