0
SECTION
2
HEADER
9
$ACADVER
1
AC1009
0
ENDSEC
0
SECTION
2
TABLES
0
TABLE
2
LTYPE
70
3
0
LTYPE
2
CONTINUOUS
70
0
3
Solid line
72
65
73
0
40
0.0
0
LTYPE
2
HIDDEN
70
0
3
__ __ __ __ __
72
65
73
2
40
0.013708
49
0.009143
49
-0.004565
0
LTYPE
2
CENTER
70
0
3
___ _ ___ _ ___
72
65
73
4
40
0.031980
49
0.018273
49
-0.004565
49
0.004565
49
-0.004565
0
ENDTAB
0
TABLE
2
LAYER
70
7
0
LAYER
2
0
70
0
62
7
6
CONTINUOUS
0
LAYER
2
FRONT
70
0
62
7
6
CONTINUOUS
0
LAYER
2
FRONT_HID
70
0
62
7
6
HIDDEN
0
LAYER
2
LEFT
70
0
62
7
6
CONTINUOUS
0
LAYER
2
LEFT_HID
70
0
62
7
6
HIDDEN
0
LAYER
2
TOP
70
0
62
7
6
CONTINUOUS
0
LAYER
2
TOP_HID
70
0
62
7
6
HIDDEN
0
ENDTAB
0
ENDSEC
0
SECTION
2
ENTITIES
0
LINE
8
FRONT
10
0.015625
20
0.311720
30
0.0
11
0.000000
21
0.311720
31
0.0
0
LINE
8
FRONT
10
0.000000
20
0.311720
30
0.0
11
0.000000
21
0.320931
31
0.0
0
LINE
8
FRONT
10
0.015625
20
0.320931
30
0.0
11
0.000000
21
0.320931
31
0.0
0
LINE
8
FRONT
10
0.015625
20
0.280470
30
0.0
11
0.015625
21
0.311720
31
0.0
0
LINE
8
FRONT
10
0.031250
20
0.311720
30
0.0
11
0.031250
21
0.316161
31
0.0
0
LINE
8
FRONT
10
0.031250
20
0.316161
30
0.0
11
0.031250
21
0.320931
31
0.0
0
LINE
8
FRONT
10
0.015625
20
0.320931
30
0.0
11
0.031250
21
0.320931
31
0.0
0
LINE
8
FRONT
10
0.015625
20
0.280470
30
0.0
11
0.031250
21
0.280470
31
0.0
0
LINE
8
FRONT
10
0.031250
20
0.280470
30
0.0
11
0.031250
21
0.311720
31
0.0
0
LINE
8
FRONT
10
0.031250
20
0.343289
30
0.0
11
0.031250
21
0.554627
31
0.0
0
LINE
8
FRONT
10
0.031250
20
0.343289
30
0.0
11
0.015625
21
0.343289
31
0.0
0
LINE
8
FRONT
10
0.015625
20
0.343289
30
0.0
11
0.015625
21
0.554627
31
0.0
0
LINE
8
FRONT
10
0.015625
20
0.342970
30
0.0
11
0.015625
21
0.343289
31
0.0
0
LINE
8
FRONT
10
0.031250
20
0.342970
30
0.0
11
0.031250
21
0.343289
31
0.0
0
LINE
8
FRONT
10
0.015625
20
0.327345
30
0.0
11
0.015625
21
0.342970
31
0.0
0
LINE
8
FRONT
10
0.015625
20
0.327345
30
0.0
11
0.031250
21
0.327345
31
0.0
0
LINE
8
FRONT
10
0.031250
20
0.327345
30
0.0
11
0.031250
21
0.342970
31
0.0
0
LINE
8
FRONT
10
0.031250
20
0.554627
30
0.0
11
0.015625
21
0.554627
31
0.0
0
LINE
8
FRONT_HID
6
HIDDEN
10
0.015625
20
0.288283
30
0.0
11
0.015625
21
0.311720
31
0.0
0
LINE
8
FRONT_HID
6
HIDDEN
10
0.015625
20
0.311720
30
0.0
11
0.015625
21
0.288283
31
0.0
0
LINE
8
FRONT_HID
6
HIDDEN
10
0.015625
20
0.316161
30
0.0
11
0.015625
21
0.311720
31
0.0
0
LINE
8
FRONT_HID
6
HIDDEN
10
0.015625
20
0.311720
30
0.0
11
0.015625
21
0.316161
31
0.0
0
LINE
8
FRONT_HID
6
HIDDEN
10
0.015625
20
0.316161
30
0.0
11
0.015625
21
0.320931
31
0.0
0
LINE
8
FRONT_HID
6
HIDDEN
10
0.015625
20
0.320931
30
0.0
11
0.015625
21
0.316161
31
0.0
0
LINE
8
FRONT_HID
6
HIDDEN
10
0.031250
20
0.288283
30
0.0
11
0.015625
21
0.288283
31
0.0
0
LINE
8
FRONT_HID
6
HIDDEN
10
0.031250
20
0.311720
30
0.0
11
0.031250
21
0.288283
31
0.0
0
LINE
8
FRONT_HID
6
HIDDEN
10
0.031250
20
0.288283
30
0.0
11
0.015625
21
0.288283
31
0.0
0
LINE
8
FRONT_HID
6
HIDDEN
10
0.031250
20
0.288283
30
0.0
11
0.031250
21
0.311720
31
0.0
0
LINE
8
FRONT_HID
6
HIDDEN
10
0.015625
20
0.342970
30
0.0
11
0.031250
21
0.342970
31
0.0
0
LINE
8
FRONT_HID
6
HIDDEN
10
0.031250
20
0.554627
30
0.0
11
0.031250
21
0.342970
31
0.0
0
LINE
8
FRONT_HID
6
HIDDEN
10
0.015625
20
0.554627
30
0.0
11
0.015625
21
0.342970
31
0.0
0
LINE
8
FRONT_HID
6
HIDDEN
10
0.015625
20
0.342970
30
0.0
11
0.015625
21
0.346918
31
0.0
0
LINE
8
FRONT_HID
6
HIDDEN
10
0.015625
20
0.346918
30
0.0
11
0.015625
21
0.342970
31
0.0
0
LINE
8
FRONT_HID
6
HIDDEN
10
0.015625
20
0.343289
30
0.0
11
0.015625
21
0.346918
31
0.0
0
LINE
8
FRONT_HID
6
HIDDEN
10
0.015625
20
0.346918
30
0.0
11
0.015625
21
0.342970
31
0.0
0
LINE
8
FRONT_HID
6
HIDDEN
10
0.015625
20
0.462883
30
0.0
11
0.015625
21
0.360733
31
0.0
0
LINE
8
FRONT_HID
6
HIDDEN
10
0.015625
20
0.360733
30
0.0
11
0.015625
21
0.462883
31
0.0
0
LINE
8
FRONT_HID
6
HIDDEN
10
0.015625
20
0.523480
30
0.0
11
0.015625
21
0.462883
31
0.0
0
LINE
8
FRONT_HID
6
HIDDEN
10
0.015625
20
0.462883
30
0.0
11
0.015625
21
0.523480
31
0.0
0
LINE
8
FRONT_HID
6
HIDDEN
10
0.031250
20
0.342970
30
0.0
11
0.031250
21
0.346918
31
0.0
0
LINE
8
FRONT_HID
6
HIDDEN
10
0.031250
20
0.346918
30
0.0
11
0.031250
21
0.342970
31
0.0
0
LINE
8
FRONT_HID
6
HIDDEN
10
0.031250
20
0.343289
30
0.0
11
0.031250
21
0.346918
31
0.0
0
LINE
8
FRONT_HID
6
HIDDEN
10
0.031250
20
0.346918
30
0.0
11
0.031250
21
0.342970
31
0.0
0
LINE
8
FRONT_HID
6
HIDDEN
10
0.031250
20
0.462883
30
0.0
11
0.031250
21
0.360733
31
0.0
0
LINE
8
FRONT_HID
6
HIDDEN
10
0.031250
20
0.360733
30
0.0
11
0.031250
21
0.462883
31
0.0
0
LINE
8
FRONT_HID
6
HIDDEN
10
0.031250
20
0.523480
30
0.0
11
0.031250
21
0.462883
31
0.0
0
LINE
8
FRONT_HID
6
HIDDEN
10
0.031250
20
0.462883
30
0.0
11
0.031250
21
0.523480
31
0.0
0
LINE
8
FRONT_HID
6
HIDDEN
10
0.015625
20
0.342970
30
0.0
11
0.015625
21
0.342649
31
0.0
0
LINE
8
FRONT_HID
6
HIDDEN
10
0.015625
20
0.342649
30
0.0
11
0.015625
21
0.342328
31
0.0
0
LINE
8
FRONT_HID
6
HIDDEN
10
0.015625
20
0.342328
30
0.0
11
0.015625
21
0.342007
31
0.0
0
LINE
8
FRONT_HID
6
HIDDEN
10
0.015625
20
0.342007
30
0.0
11
0.015625
21
0.341687
31
0.0
0
LINE
8
FRONT_HID
6
HIDDEN
10
0.015625
20
0.341687
30
0.0
11
0.015625
21
0.341366
31
0.0
0
LINE
8
FRONT_HID
6
HIDDEN
10
0.015625
20
0.341366
30
0.0
11
0.015625
21
0.341045
31
0.0
0
LINE
8
FRONT_HID
6
HIDDEN
10
0.015625
20
0.341045
30
0.0
11
0.015625
21
0.340724
31
0.0
0
LINE
8
FRONT_HID
6
HIDDEN
10
0.015625
20
0.340724
30
0.0
11
0.015625
21
0.340403
31
0.0
0
LINE
8
FRONT_HID
6
HIDDEN
10
0.015625
20
0.340403
30
0.0
11
0.015625
21
0.340082
31
0.0
0
LINE
8
FRONT_HID
6
HIDDEN
10
0.015625
20
0.340082
30
0.0
11
0.015625
21
0.339761
31
0.0
0
LINE
8
FRONT_HID
6
HIDDEN
10
0.015625
20
0.339761
30
0.0
11
0.015625
21
0.339440
31
0.0
0
LINE
8
FRONT_HID
6
HIDDEN
10
0.015625
20
0.339440
30
0.0
11
0.015625
21
0.339119
31
0.0
0
LINE
8
FRONT_HID
6
HIDDEN
10
0.015625
20
0.339119
30
0.0
11
0.015625
21
0.338798
31
0.0
0
LINE
8
FRONT_HID
6
HIDDEN
10
0.015625
20
0.338798
30
0.0
11
0.015625
21
0.338478
31
0.0
0
LINE
8
FRONT_HID
6
HIDDEN
10
0.015625
20
0.338478
30
0.0
11
0.015625
21
0.338157
31
0.0
0
LINE
8
FRONT_HID
6
HIDDEN
10
0.015625
20
0.338157
30
0.0
11
0.015625
21
0.337836
31
0.0
0
LINE
8
FRONT_HID
6
HIDDEN
10
0.015625
20
0.337836
30
0.0
11
0.015625
21
0.337515
31
0.0
0
LINE
8
FRONT_HID
6
HIDDEN
10
0.015625
20
0.337515
30
0.0
11
0.015625
21
0.337194
31
0.0
0
LINE
8
FRONT_HID
6
HIDDEN
10
0.015625
20
0.337194
30
0.0
11
0.015625
21
0.336873
31
0.0
0
LINE
8
FRONT_HID
6
HIDDEN
10
0.015625
20
0.336873
30
0.0
11
0.015625
21
0.336552
31
0.0
0
LINE
8
FRONT_HID
6
HIDDEN
10
0.015625
20
0.336552
30
0.0
11
0.015625
21
0.336231
31
0.0
0
LINE
8
FRONT_HID
6
HIDDEN
10
0.015625
20
0.336231
30
0.0
11
0.015625
21
0.335910
31
0.0
0
LINE
8
FRONT_HID
6
HIDDEN
10
0.015625
20
0.335910
30
0.0
11
0.015625
21
0.335589
31
0.0
0
LINE
8
FRONT_HID
6
HIDDEN
10
0.015625
20
0.335589
30
0.0
11
0.015625
21
0.335269
31
0.0
0
LINE
8
FRONT_HID
6
HIDDEN
10
0.015625
20
0.335269
30
0.0
11
0.015625
21
0.334948
31
0.0
0
LINE
8
FRONT_HID
6
HIDDEN
10
0.015625
20
0.334948
30
0.0
11
0.015625
21
0.334627
31
0.0
0
LINE
8
FRONT_HID
6
HIDDEN
10
0.015625
20
0.334627
30
0.0
11
0.015625
21
0.334306
31
0.0
0
LINE
8
FRONT_HID
6
HIDDEN
10
0.015625
20
0.334306
30
0.0
11
0.015625
21
0.333985
31
0.0
0
LINE
8
FRONT_HID
6
HIDDEN
10
0.015625
20
0.333985
30
0.0
11
0.015625
21
0.333664
31
0.0
0
LINE
8
FRONT_HID
6
HIDDEN
10
0.015625
20
0.333664
30
0.0
11
0.015625
21
0.333343
31
0.0
0
LINE
8
FRONT_HID
6
HIDDEN
10
0.015625
20
0.333343
30
0.0
11
0.015625
21
0.333022
31
0.0
0
LINE
8
FRONT_HID
6
HIDDEN
10
0.015625
20
0.333022
30
0.0
11
0.015625
21
0.333343
31
0.0
0
LINE
8
FRONT_HID
6
HIDDEN
10
0.015625
20
0.333343
30
0.0
11
0.015625
21
0.333664
31
0.0
0
LINE
8
FRONT_HID
6
HIDDEN
10
0.015625
20
0.333664
30
0.0
11
0.015625
21
0.333985
31
0.0
0
LINE
8
FRONT_HID
6
HIDDEN
10
0.015625
20
0.333985
30
0.0
11
0.015625
21
0.334306
31
0.0
0
LINE
8
FRONT_HID
6
HIDDEN
10
0.015625
20
0.334306
30
0.0
11
0.015625
21
0.334627
31
0.0
0
LINE
8
FRONT_HID
6
HIDDEN
10
0.015625
20
0.334627
30
0.0
11
0.015625
21
0.334948
31
0.0
0
LINE
8
FRONT_HID
6
HIDDEN
10
0.015625
20
0.334948
30
0.0
11
0.015625
21
0.335269
31
0.0
0
LINE
8
FRONT_HID
6
HIDDEN
10
0.015625
20
0.335269
30
0.0
11
0.015625
21
0.335589
31
0.0
0
LINE
8
FRONT_HID
6
HIDDEN
10
0.015625
20
0.335589
30
0.0
11
0.015625
21
0.335910
31
0.0
0
LINE
8
FRONT_HID
6
HIDDEN
10
0.015625
20
0.335910
30
0.0
11
0.015625
21
0.336231
31
0.0
0
LINE
8
FRONT_HID
6
HIDDEN
10
0.015625
20
0.336231
30
0.0
11
0.015625
21
0.336552
31
0.0
0
LINE
8
FRONT_HID
6
HIDDEN
10
0.015625
20
0.336552
30
0.0
11
0.015625
21
0.336873
31
0.0
0
LINE
8
FRONT_HID
6
HIDDEN
10
0.015625
20
0.336873
30
0.0
11
0.015625
21
0.337194
31
0.0
0
LINE
8
FRONT_HID
6
HIDDEN
10
0.015625
20
0.337194
30
0.0
11
0.015625
21
0.337515
31
0.0
0
LINE
8
FRONT_HID
6
HIDDEN
10
0.015625
20
0.337515
30
0.0
11
0.015625
21
0.337836
31
0.0
0
LINE
8
FRONT_HID
6
HIDDEN
10
0.015625
20
0.337836
30
0.0
11
0.015625
21
0.338157
31
0.0
0
LINE
8
FRONT_HID
6
HIDDEN
10
0.015625
20
0.338157
30
0.0
11
0.015625
21
0.338478
31
0.0
0
LINE
8
FRONT_HID
6
HIDDEN
10
0.015625
20
0.338478
30
0.0
11
0.015625
21
0.338798
31
0.0
0
LINE
8
FRONT_HID
6
HIDDEN
10
0.015625
20
0.338798
30
0.0
11
0.015625
21
0.339119
31
0.0
0
LINE
8
FRONT_HID
6
HIDDEN
10
0.015625
20
0.339119
30
0.0
11
0.015625
21
0.339440
31
0.0
0
LINE
8
FRONT_HID
6
HIDDEN
10
0.015625
20
0.339440
30
0.0
11
0.015625
21
0.339761
31
0.0
0
LINE
8
FRONT_HID
6
HIDDEN
10
0.015625
20
0.339761
30
0.0
11
0.015625
21
0.340082
31
0.0
0
LINE
8
FRONT_HID
6
HIDDEN
10
0.015625
20
0.340082
30
0.0
11
0.015625
21
0.340403
31
0.0
0
LINE
8
FRONT_HID
6
HIDDEN
10
0.015625
20
0.340403
30
0.0
11
0.015625
21
0.340724
31
0.0
0
LINE
8
FRONT_HID
6
HIDDEN
10
0.015625
20
0.340724
30
0.0
11
0.015625
21
0.341045
31
0.0
0
LINE
8
FRONT_HID
6
HIDDEN
10
0.015625
20
0.341045
30
0.0
11
0.015625
21
0.341366
31
0.0
0
LINE
8
FRONT_HID
6
HIDDEN
10
0.015625
20
0.341366
30
0.0
11
0.015625
21
0.341687
31
0.0
0
LINE
8
FRONT_HID
6
HIDDEN
10
0.015625
20
0.341687
30
0.0
11
0.015625
21
0.342007
31
0.0
0
LINE
8
FRONT_HID
6
HIDDEN
10
0.015625
20
0.342007
30
0.0
11
0.015625
21
0.342328
31
0.0
0
LINE
8
FRONT_HID
6
HIDDEN
10
0.015625
20
0.342328
30
0.0
11
0.015625
21
0.342649
31
0.0
0
LINE
8
FRONT_HID
6
HIDDEN
10
0.015625
20
0.342649
30
0.0
11
0.015625
21
0.342970
31
0.0
0
LINE
8
FRONT_HID
6
HIDDEN
10
0.031250
20
0.462883
30
0.0
11
0.015625
21
0.462883
31
0.0
0
LINE
8
FRONT_HID
6
HIDDEN
10
0.031250
20
0.462883
30
0.0
11
0.015625
21
0.462883
31
0.0
0
LINE
8
FRONT_HID
6
HIDDEN
10
0.015625
20
0.520602
30
0.0
11
0.015625
21
0.462883
31
0.0
0
LINE
8
FRONT_HID
6
HIDDEN
10
0.015625
20
0.462883
30
0.0
11
0.015625
21
0.520602
31
0.0
0
LINE
8
FRONT_HID
6
HIDDEN
10
0.015625
20
0.342970
30
0.0
11
0.015625
21
0.335854
31
0.0
0
LINE
8
FRONT_HID
6
HIDDEN
10
0.015625
20
0.335854
30
0.0
11
0.015625
21
0.327345
31
0.0
0
LINE
8
FRONT_HID
6
HIDDEN
10
0.031250
20
0.342970
30
0.0
11
0.031250
21
0.335854
31
0.0
0
LINE
8
FRONT_HID
6
HIDDEN
10
0.031250
20
0.335854
30
0.0
11
0.031250
21
0.327345
31
0.0
0
LINE
8
FRONT_HID
6
HIDDEN
10
0.031250
20
0.342970
30
0.0
11
0.031250
21
0.342649
31
0.0
0
LINE
8
FRONT_HID
6
HIDDEN
10
0.031250
20
0.342649
30
0.0
11
0.031250
21
0.342328
31
0.0
0
LINE
8
FRONT_HID
6
HIDDEN
10
0.031250
20
0.342328
30
0.0
11
0.031250
21
0.342007
31
0.0
0
LINE
8
FRONT_HID
6
HIDDEN
10
0.031250
20
0.342007
30
0.0
11
0.031250
21
0.341687
31
0.0
0
LINE
8
FRONT_HID
6
HIDDEN
10
0.031250
20
0.341687
30
0.0
11
0.031250
21
0.341366
31
0.0
0
LINE
8
FRONT_HID
6
HIDDEN
10
0.031250
20
0.341366
30
0.0
11
0.031250
21
0.341045
31
0.0
0
LINE
8
FRONT_HID
6
HIDDEN
10
0.031250
20
0.341045
30
0.0
11
0.031250
21
0.340724
31
0.0
0
LINE
8
FRONT_HID
6
HIDDEN
10
0.031250
20
0.340724
30
0.0
11
0.031250
21
0.340403
31
0.0
0
LINE
8
FRONT_HID
6
HIDDEN
10
0.031250
20
0.340403
30
0.0
11
0.031250
21
0.340082
31
0.0
0
LINE
8
FRONT_HID
6
HIDDEN
10
0.031250
20
0.340082
30
0.0
11
0.031250
21
0.339761
31
0.0
0
LINE
8
FRONT_HID
6
HIDDEN
10
0.031250
20
0.339761
30
0.0
11
0.031250
21
0.339440
31
0.0
0
LINE
8
FRONT_HID
6
HIDDEN
10
0.031250
20
0.339440
30
0.0
11
0.031250
21
0.339119
31
0.0
0
LINE
8
FRONT_HID
6
HIDDEN
10
0.031250
20
0.339119
30
0.0
11
0.031250
21
0.338798
31
0.0
0
LINE
8
FRONT_HID
6
HIDDEN
10
0.031250
20
0.338798
30
0.0
11
0.031250
21
0.338478
31
0.0
0
LINE
8
FRONT_HID
6
HIDDEN
10
0.031250
20
0.338478
30
0.0
11
0.031250
21
0.338157
31
0.0
0
LINE
8
FRONT_HID
6
HIDDEN
10
0.031250
20
0.338157
30
0.0
11
0.031250
21
0.337836
31
0.0
0
LINE
8
FRONT_HID
6
HIDDEN
10
0.031250
20
0.337836
30
0.0
11
0.031250
21
0.337515
31
0.0
0
LINE
8
FRONT_HID
6
HIDDEN
10
0.031250
20
0.337515
30
0.0
11
0.031250
21
0.337194
31
0.0
0
LINE
8
FRONT_HID
6
HIDDEN
10
0.031250
20
0.337194
30
0.0
11
0.031250
21
0.336873
31
0.0
0
LINE
8
FRONT_HID
6
HIDDEN
10
0.031250
20
0.336873
30
0.0
11
0.031250
21
0.336552
31
0.0
0
LINE
8
FRONT_HID
6
HIDDEN
10
0.031250
20
0.336552
30
0.0
11
0.031250
21
0.336231
31
0.0
0
LINE
8
FRONT_HID
6
HIDDEN
10
0.031250
20
0.336231
30
0.0
11
0.031250
21
0.335910
31
0.0
0
LINE
8
FRONT_HID
6
HIDDEN
10
0.031250
20
0.335910
30
0.0
11
0.031250
21
0.335589
31
0.0
0
LINE
8
FRONT_HID
6
HIDDEN
10
0.031250
20
0.335589
30
0.0
11
0.031250
21
0.335269
31
0.0
0
LINE
8
FRONT_HID
6
HIDDEN
10
0.031250
20
0.335269
30
0.0
11
0.031250
21
0.334948
31
0.0
0
LINE
8
FRONT_HID
6
HIDDEN
10
0.031250
20
0.334948
30
0.0
11
0.031250
21
0.334627
31
0.0
0
LINE
8
FRONT_HID
6
HIDDEN
10
0.031250
20
0.334627
30
0.0
11
0.031250
21
0.334306
31
0.0
0
LINE
8
FRONT_HID
6
HIDDEN
10
0.031250
20
0.334306
30
0.0
11
0.031250
21
0.333985
31
0.0
0
LINE
8
FRONT_HID
6
HIDDEN
10
0.031250
20
0.333985
30
0.0
11
0.031250
21
0.333664
31
0.0
0
LINE
8
FRONT_HID
6
HIDDEN
10
0.031250
20
0.333664
30
0.0
11
0.031250
21
0.333343
31
0.0
0
LINE
8
FRONT_HID
6
HIDDEN
10
0.031250
20
0.333343
30
0.0
11
0.031250
21
0.333022
31
0.0
0
LINE
8
FRONT_HID
6
HIDDEN
10
0.031250
20
0.333022
30
0.0
11
0.031250
21
0.333343
31
0.0
0
LINE
8
FRONT_HID
6
HIDDEN
10
0.031250
20
0.333343
30
0.0
11
0.031250
21
0.333664
31
0.0
0
LINE
8
FRONT_HID
6
HIDDEN
10
0.031250
20
0.333664
30
0.0
11
0.031250
21
0.333985
31
0.0
0
LINE
8
FRONT_HID
6
HIDDEN
10
0.031250
20
0.333985
30
0.0
11
0.031250
21
0.334306
31
0.0
0
LINE
8
FRONT_HID
6
HIDDEN
10
0.031250
20
0.334306
30
0.0
11
0.031250
21
0.334627
31
0.0
0
LINE
8
FRONT_HID
6
HIDDEN
10
0.031250
20
0.334627
30
0.0
11
0.031250
21
0.334948
31
0.0
0
LINE
8
FRONT_HID
6
HIDDEN
10
0.031250
20
0.334948
30
0.0
11
0.031250
21
0.335269
31
0.0
0
LINE
8
FRONT_HID
6
HIDDEN
10
0.031250
20
0.335269
30
0.0
11
0.031250
21
0.335589
31
0.0
0
LINE
8
FRONT_HID
6
HIDDEN
10
0.031250
20
0.335589
30
0.0
11
0.031250
21
0.335910
31
0.0
0
LINE
8
FRONT_HID
6
HIDDEN
10
0.031250
20
0.335910
30
0.0
11
0.031250
21
0.336231
31
0.0
0
LINE
8
FRONT_HID
6
HIDDEN
10
0.031250
20
0.336231
30
0.0
11
0.031250
21
0.336552
31
0.0
0
LINE
8
FRONT_HID
6
HIDDEN
10
0.031250
20
0.336552
30
0.0
11
0.031250
21
0.336873
31
0.0
0
LINE
8
FRONT_HID
6
HIDDEN
10
0.031250
20
0.336873
30
0.0
11
0.031250
21
0.337194
31
0.0
0
LINE
8
FRONT_HID
6
HIDDEN
10
0.031250
20
0.337194
30
0.0
11
0.031250
21
0.337515
31
0.0
0
LINE
8
FRONT_HID
6
HIDDEN
10
0.031250
20
0.337515
30
0.0
11
0.031250
21
0.337836
31
0.0
0
LINE
8
FRONT_HID
6
HIDDEN
10
0.031250
20
0.337836
30
0.0
11
0.031250
21
0.338157
31
0.0
0
LINE
8
FRONT_HID
6
HIDDEN
10
0.031250
20
0.338157
30
0.0
11
0.031250
21
0.338478
31
0.0
0
LINE
8
FRONT_HID
6
HIDDEN
10
0.031250
20
0.338478
30
0.0
11
0.031250
21
0.338798
31
0.0
0
LINE
8
FRONT_HID
6
HIDDEN
10
0.031250
20
0.338798
30
0.0
11
0.031250
21
0.339119
31
0.0
0
LINE
8
FRONT_HID
6
HIDDEN
10
0.031250
20
0.339119
30
0.0
11
0.031250
21
0.339440
31
0.0
0
LINE
8
FRONT_HID
6
HIDDEN
10
0.031250
20
0.339440
30
0.0
11
0.031250
21
0.339761
31
0.0
0
LINE
8
FRONT_HID
6
HIDDEN
10
0.031250
20
0.339761
30
0.0
11
0.031250
21
0.340082
31
0.0
0
LINE
8
FRONT_HID
6
HIDDEN
10
0.031250
20
0.340082
30
0.0
11
0.031250
21
0.340403
31
0.0
0
LINE
8
FRONT_HID
6
HIDDEN
10
0.031250
20
0.340403
30
0.0
11
0.031250
21
0.340724
31
0.0
0
LINE
8
FRONT_HID
6
HIDDEN
10
0.031250
20
0.340724
30
0.0
11
0.031250
21
0.341045
31
0.0
0
LINE
8
FRONT_HID
6
HIDDEN
10
0.031250
20
0.341045
30
0.0
11
0.031250
21
0.341366
31
0.0
0
LINE
8
FRONT_HID
6
HIDDEN
10
0.031250
20
0.341366
30
0.0
11
0.031250
21
0.341687
31
0.0
0
LINE
8
FRONT_HID
6
HIDDEN
10
0.031250
20
0.341687
30
0.0
11
0.031250
21
0.342007
31
0.0
0
LINE
8
FRONT_HID
6
HIDDEN
10
0.031250
20
0.342007
30
0.0
11
0.031250
21
0.342328
31
0.0
0
LINE
8
FRONT_HID
6
HIDDEN
10
0.031250
20
0.342328
30
0.0
11
0.031250
21
0.342649
31
0.0
0
LINE
8
FRONT_HID
6
HIDDEN
10
0.031250
20
0.342649
30
0.0
11
0.031250
21
0.342970
31
0.0
0
LINE
8
FRONT_HID
6
HIDDEN
10
0.031250
20
0.520602
30
0.0
11
0.031250
21
0.462883
31
0.0
0
LINE
8
FRONT_HID
6
HIDDEN
10
0.031250
20
0.462883
30
0.0
11
0.031250
21
0.520602
31
0.0
0
LINE
8
FRONT_HID
6
HIDDEN
10
0.015625
20
0.336227
30
0.0
11
0.015625
21
0.335854
31
0.0
0
LINE
8
FRONT_HID
6
HIDDEN
10
0.015625
20
0.336227
30
0.0
11
0.015625
21
0.329655
31
0.0
0
LINE
8
FRONT_HID
6
HIDDEN
10
0.015625
20
0.329655
30
0.0
11
0.015625
21
0.342970
31
0.0
0
LINE
8
FRONT_HID
6
HIDDEN
10
0.031250
20
0.462883
30
0.0
11
0.031250
21
0.365585
31
0.0
0
LINE
8
FRONT_HID
6
HIDDEN
10
0.031250
20
0.365585
30
0.0
11
0.031250
21
0.462883
31
0.0
0
LINE
8
FRONT_HID
6
HIDDEN
10
0.015625
20
0.462883
30
0.0
11
0.015625
21
0.365585
31
0.0
0
LINE
8
FRONT_HID
6
HIDDEN
10
0.015625
20
0.365585
30
0.0
11
0.015625
21
0.462883
31
0.0
0
LINE
8
FRONT_HID
6
HIDDEN
10
0.031250
20
0.336227
30
0.0
11
0.031250
21
0.335854
31
0.0
0
LINE
8
FRONT_HID
6
HIDDEN
10
0.031250
20
0.336227
30
0.0
11
0.015625
21
0.336227
31
0.0
0
LINE
8
FRONT_HID
6
HIDDEN
10
0.031250
20
0.329655
30
0.0
11
0.031250
21
0.336227
31
0.0
0
LINE
8
FRONT_HID
6
HIDDEN
10
0.031250
20
0.329655
30
0.0
11
0.031250
21
0.342970
31
0.0
0
LINE
8
FRONT_HID
6
HIDDEN
10
0.015625
20
0.329655
30
0.0
11
0.015625
21
0.328499
31
0.0
0
LINE
8
FRONT_HID
6
HIDDEN
10
0.015625
20
0.328499
30
0.0
11
0.015625
21
0.336227
31
0.0
0
LINE
8
FRONT_HID
6
HIDDEN
10
0.015625
20
0.327345
30
0.0
11
0.015625
21
0.336227
31
0.0
0
LINE
8
FRONT_HID
6
HIDDEN
10
0.031250
20
0.336227
30
0.0
11
0.031250
21
0.328499
31
0.0
0
LINE
8
FRONT_HID
6
HIDDEN
10
0.031250
20
0.328499
30
0.0
11
0.031250
21
0.329655
31
0.0
0
LINE
8
FRONT_HID
6
HIDDEN
10
0.031250
20
0.327345
30
0.0
11
0.031250
21
0.336227
31
0.0
0
LINE
8
FRONT_HID
6
HIDDEN
10
0.031250
20
0.336227
30
0.0
11
0.015625
21
0.336227
31
0.0
0
LINE
8
FRONT_HID
6
HIDDEN
10
0.031250
20
0.360733
30
0.0
11
0.015625
21
0.360733
31
0.0
0
LINE
8
FRONT_HID
6
HIDDEN
10
0.031250
20
0.365585
30
0.0
11
0.015625
21
0.365585
31
0.0
0
LINE
8
FRONT_HID
6
HIDDEN
10
0.015625
20
0.328499
30
0.0
11
0.031250
21
0.328499
31
0.0
0
LINE
8
LEFT
10
0.253263
20
0.311720
30
0.0
11
0.143888
21
0.311720
31
0.0
0
LINE
8
LEFT
10
0.253263
20
0.320931
30
0.0
11
0.253263
21
0.311720
31
0.0
0
LINE
8
LEFT
10
0.143888
20
0.311720
30
0.0
11
0.143888
21
0.320931
31
0.0
0
LINE
8
LEFT
10
0.253263
20
0.311720
30
0.0
11
0.253263
21
0.280470
31
0.0
0
LINE
8
LEFT
10
0.253263
20
0.280470
30
0.0
11
0.143888
21
0.280470
31
0.0
0
LINE
8
LEFT
10
0.143888
20
0.280470
30
0.0
11
0.143888
21
0.311720
31
0.0
0
LINE
8
LEFT
10
0.151700
20
0.288283
30
0.0
11
0.151700
21
0.311720
31
0.0
0
LINE
8
LEFT
10
0.237638
20
0.288283
30
0.0
11
0.151700
21
0.288283
31
0.0
0
LINE
8
LEFT
10
0.237638
20
0.311720
30
0.0
11
0.237638
21
0.288283
31
0.0
0
LINE
8
LEFT
10
0.143888
20
0.320931
30
0.0
11
0.253263
21
0.320931
31
0.0
0
LINE
8
LEFT
10
0.143888
20
0.343289
30
0.0
11
0.135847
21
0.348228
31
0.0
0
LINE
8
LEFT
10
0.135847
20
0.348228
30
0.0
11
0.128247
21
0.353822
31
0.0
0
LINE
8
LEFT
10
0.128247
20
0.353822
30
0.0
11
0.121141
21
0.360031
31
0.0
0
LINE
8
LEFT
10
0.121141
20
0.360031
30
0.0
11
0.114579
21
0.366812
31
0.0
0
LINE
8
LEFT
10
0.114579
20
0.366812
30
0.0
11
0.108606
21
0.374118
31
0.0
0
LINE
8
LEFT
10
0.108606
20
0.374118
30
0.0
11
0.103265
21
0.381898
31
0.0
0
LINE
8
LEFT
10
0.103265
20
0.381898
30
0.0
11
0.098593
21
0.390096
31
0.0
0
LINE
8
LEFT
10
0.098593
20
0.390096
30
0.0
11
0.094622
21
0.398657
31
0.0
0
LINE
8
LEFT
10
0.094622
20
0.398657
30
0.0
11
0.091380
21
0.407519
31
0.0
0
LINE
8
LEFT
10
0.091380
20
0.407519
30
0.0
11
0.088891
21
0.416622
31
0.0
0
LINE
8
LEFT
10
0.088891
20
0.416622
30
0.0
11
0.087171
21
0.425900
31
0.0
0
LINE
8
LEFT
10
0.087171
20
0.425900
30
0.0
11
0.086232
21
0.435290
31
0.0
0
LINE
8
LEFT
10
0.086232
20
0.435290
30
0.0
11
0.086081
21
0.444725
31
0.0
0
LINE
8
LEFT
10
0.086081
20
0.444725
30
0.0
11
0.086720
21
0.454140
31
0.0
0
LINE
8
LEFT
10
0.086720
20
0.454140
30
0.0
11
0.088143
21
0.463469
31
0.0
0
LINE
8
LEFT
10
0.088143
20
0.463469
30
0.0
11
0.090340
21
0.472646
31
0.0
0
LINE
8
LEFT
10
0.090340
20
0.472646
30
0.0
11
0.093297
21
0.481607
31
0.0
0
LINE
8
LEFT
10
0.093297
20
0.481607
30
0.0
11
0.096992
21
0.490290
31
0.0
0
LINE
8
LEFT
10
0.096992
20
0.490290
30
0.0
11
0.101400
21
0.498634
31
0.0
0
LINE
8
LEFT
10
0.101400
20
0.498634
30
0.0
11
0.106490
21
0.506580
31
0.0
0
LINE
8
LEFT
10
0.106490
20
0.506580
30
0.0
11
0.112226
21
0.514073
31
0.0
0
LINE
8
LEFT
10
0.112226
20
0.514073
30
0.0
11
0.118569
21
0.521061
31
0.0
0
LINE
8
LEFT
10
0.118569
20
0.521061
30
0.0
11
0.125473
21
0.527494
31
0.0
0
LINE
8
LEFT
10
0.125473
20
0.527494
30
0.0
11
0.132890
21
0.533327
31
0.0
0
LINE
8
LEFT
10
0.132890
20
0.533327
30
0.0
11
0.140769
21
0.538520
31
0.0
0
LINE
8
LEFT
10
0.140769
20
0.538520
30
0.0
11
0.149055
21
0.543037
31
0.0
0
LINE
8
LEFT
10
0.149055
20
0.543037
30
0.0
11
0.157689
21
0.546845
31
0.0
0
LINE
8
LEFT
10
0.157689
20
0.546845
30
0.0
11
0.166611
21
0.549919
31
0.0
0
LINE
8
LEFT
10
0.166611
20
0.549919
30
0.0
11
0.175758
21
0.552236
31
0.0
0
LINE
8
LEFT
10
0.175758
20
0.552236
30
0.0
11
0.185068
21
0.553781
31
0.0
0
LINE
8
LEFT
10
0.185068
20
0.553781
30
0.0
11
0.194474
21
0.554542
31
0.0
0
LINE
8
LEFT
10
0.194474
20
0.554542
30
0.0
11
0.203910
21
0.554514
31
0.0
0
LINE
8
LEFT
10
0.203910
20
0.554514
30
0.0
11
0.213311
21
0.553698
31
0.0
0
LINE
8
LEFT
10
0.213311
20
0.553698
30
0.0
11
0.222611
21
0.552099
31
0.0
0
LINE
8
LEFT
10
0.222611
20
0.552099
30
0.0
11
0.231745
21
0.549729
31
0.0
0
LINE
8
LEFT
10
0.231745
20
0.549729
30
0.0
11
0.240649
21
0.546603
31
0.0
0
LINE
8
LEFT
10
0.240649
20
0.546603
30
0.0
11
0.249261
21
0.542745
31
0.0
0
LINE
8
LEFT
10
0.249261
20
0.542745
30
0.0
11
0.257520
21
0.538180
31
0.0
0
LINE
8
LEFT
10
0.257520
20
0.538180
30
0.0
11
0.265369
21
0.532941
31
0.0
0
LINE
8
LEFT
10
0.265369
20
0.532941
30
0.0
11
0.272752
21
0.527064
31
0.0
0
LINE
8
LEFT
10
0.272752
20
0.527064
30
0.0
11
0.279618
21
0.520591
31
0.0
0
LINE
8
LEFT
10
0.279618
20
0.520591
30
0.0
11
0.285920
21
0.513567
31
0.0
0
LINE
8
LEFT
10
0.285920
20
0.513567
30
0.0
11
0.291612
21
0.506040
31
0.0
0
LINE
8
LEFT
10
0.291612
20
0.506040
30
0.0
11
0.296656
21
0.498065
31
0.0
0
LINE
8
LEFT
10
0.296656
20
0.498065
30
0.0
11
0.301015
21
0.489695
31
0.0
0
LINE
8
LEFT
10
0.301015
20
0.489695
30
0.0
11
0.304660
21
0.480991
31
0.0
0
LINE
8
LEFT
10
0.304660
20
0.480991
30
0.0
11
0.307564
21
0.472012
31
0.0
0
LINE
8
LEFT
10
0.307564
20
0.472012
30
0.0
11
0.309708
21
0.462823
31
0.0
0
LINE
8
LEFT
10
0.309708
20
0.462823
30
0.0
11
0.311076
21
0.453486
31
0.0
0
LINE
8
LEFT
10
0.311076
20
0.453486
30
0.0
11
0.311660
21
0.444067
31
0.0
0
LINE
8
LEFT
10
0.311660
20
0.444067
30
0.0
11
0.311454
21
0.434633
31
0.0
0
LINE
8
LEFT
10
0.311454
20
0.434633
30
0.0
11
0.310461
21
0.425249
31
0.0
0
LINE
8
LEFT
10
0.310461
20
0.425249
30
0.0
11
0.308686
21
0.415981
31
0.0
0
LINE
8
LEFT
10
0.308686
20
0.415981
30
0.0
11
0.306144
21
0.406893
31
0.0
0
LINE
8
LEFT
10
0.306144
20
0.406893
30
0.0
11
0.302851
21
0.398050
31
0.0
0
LINE
8
LEFT
10
0.302851
20
0.398050
30
0.0
11
0.298830
21
0.389512
31
0.0
0
LINE
8
LEFT
10
0.298830
20
0.389512
30
0.0
11
0.294110
21
0.381341
31
0.0
0
LINE
8
LEFT
10
0.294110
20
0.381341
30
0.0
11
0.288724
21
0.373593
31
0.0
0
LINE
8
LEFT
10
0.288724
20
0.373593
30
0.0
11
0.282709
21
0.366322
31
0.0
0
LINE
8
LEFT
10
0.282709
20
0.366322
30
0.0
11
0.276107
21
0.359579
31
0.0
0
LINE
8
LEFT
10
0.276107
20
0.359579
30
0.0
11
0.268965
21
0.353411
31
0.0
0
LINE
8
LEFT
10
0.268965
20
0.353411
30
0.0
11
0.261332
21
0.347862
31
0.0
0
LINE
8
LEFT
10
0.261332
20
0.347862
30
0.0
11
0.253263
21
0.342970
31
0.0
0
LINE
8
LEFT
10
0.274538
20
0.462883
30
0.0
11
0.275711
21
0.458332
31
0.0
0
LINE
8
LEFT
10
0.275711
20
0.458332
30
0.0
11
0.276614
21
0.453719
31
0.0
0
LINE
8
LEFT
10
0.276614
20
0.453719
30
0.0
11
0.277245
21
0.449062
31
0.0
0
LINE
8
LEFT
10
0.277245
20
0.449062
30
0.0
11
0.277601
21
0.444375
31
0.0
0
LINE
8
LEFT
10
0.277601
20
0.444375
30
0.0
11
0.277681
21
0.439676
31
0.0
0
LINE
8
LEFT
10
0.277681
20
0.439676
30
0.0
11
0.277484
21
0.434980
31
0.0
0
LINE
8
LEFT
10
0.277484
20
0.434980
30
0.0
11
0.277012
21
0.430304
31
0.0
0
LINE
8
LEFT
10
0.277012
20
0.430304
30
0.0
11
0.276266
21
0.425663
31
0.0
0
LINE
8
LEFT
10
0.276266
20
0.425663
30
0.0
11
0.275249
21
0.421075
31
0.0
0
LINE
8
LEFT
10
0.275249
20
0.421075
30
0.0
11
0.273963
21
0.416554
31
0.0
0
LINE
8
LEFT
10
0.273963
20
0.416554
30
0.0
11
0.272414
21
0.412116
31
0.0
0
LINE
8
LEFT
10
0.272414
20
0.412116
30
0.0
11
0.270607
21
0.407778
31
0.0
0
LINE
8
LEFT
10
0.270607
20
0.407778
30
0.0
11
0.268548
21
0.403553
31
0.0
0
LINE
8
LEFT
10
0.268548
20
0.403553
30
0.0
11
0.266244
21
0.399456
31
0.0
0
LINE
8
LEFT
10
0.266244
20
0.399456
30
0.0
11
0.263704
21
0.395502
31
0.0
0
LINE
8
LEFT
10
0.263704
20
0.395502
30
0.0
11
0.260935
21
0.391704
31
0.0
0
LINE
8
LEFT
10
0.260935
20
0.391704
30
0.0
11
0.257948
21
0.388075
31
0.0
0
LINE
8
LEFT
10
0.257948
20
0.388075
30
0.0
11
0.254753
21
0.384628
31
0.0
0
LINE
8
LEFT
10
0.254753
20
0.384628
30
0.0
11
0.251361
21
0.381375
31
0.0
0
LINE
8
LEFT
10
0.251361
20
0.381375
30
0.0
11
0.247783
21
0.378326
31
0.0
0
LINE
8
LEFT
10
0.247783
20
0.378326
30
0.0
11
0.244033
21
0.375494
31
0.0
0
LINE
8
LEFT
10
0.244033
20
0.375494
30
0.0
11
0.240123
21
0.372886
31
0.0
0
LINE
8
LEFT
10
0.240123
20
0.372886
30
0.0
11
0.236066
21
0.370513
31
0.0
0
LINE
8
LEFT
10
0.236066
20
0.370513
30
0.0
11
0.231876
21
0.368383
31
0.0
0
LINE
8
LEFT
10
0.231876
20
0.368383
30
0.0
11
0.227569
21
0.366502
31
0.0
0
LINE
8
LEFT
10
0.227569
20
0.366502
30
0.0
11
0.223158
21
0.364878
31
0.0
0
LINE
8
LEFT
10
0.223158
20
0.364878
30
0.0
11
0.218660
21
0.363516
31
0.0
0
LINE
8
LEFT
10
0.218660
20
0.363516
30
0.0
11
0.214089
21
0.362421
31
0.0
0
LINE
8
LEFT
10
0.214089
20
0.362421
30
0.0
11
0.209462
21
0.361596
31
0.0
0
LINE
8
LEFT
10
0.209462
20
0.361596
30
0.0
11
0.204795
21
0.361044
31
0.0
0
LINE
8
LEFT
10
0.204795
20
0.361044
30
0.0
11
0.200103
21
0.360768
31
0.0
0
LINE
8
LEFT
10
0.200103
20
0.360768
30
0.0
11
0.195403
21
0.360768
31
0.0
0
LINE
8
LEFT
10
0.195403
20
0.360768
30
0.0
11
0.190711
21
0.361044
31
0.0
0
LINE
8
LEFT
10
0.190711
20
0.361044
30
0.0
11
0.186043
21
0.361596
31
0.0
0
LINE
8
LEFT
10
0.186043
20
0.361596
30
0.0
11
0.181416
21
0.362421
31
0.0
0
LINE
8
LEFT
10
0.181416
20
0.362421
30
0.0
11
0.176846
21
0.363516
31
0.0
0
LINE
8
LEFT
10
0.176846
20
0.363516
30
0.0
11
0.172347
21
0.364878
31
0.0
0
LINE
8
LEFT
10
0.172347
20
0.364878
30
0.0
11
0.167937
21
0.366502
31
0.0
0
LINE
8
LEFT
10
0.167937
20
0.366502
30
0.0
11
0.163630
21
0.368383
31
0.0
0
LINE
8
LEFT
10
0.163630
20
0.368383
30
0.0
11
0.159440
21
0.370513
31
0.0
0
LINE
8
LEFT
10
0.159440
20
0.370513
30
0.0
11
0.155383
21
0.372886
31
0.0
0
LINE
8
LEFT
10
0.155383
20
0.372886
30
0.0
11
0.151473
21
0.375494
31
0.0
0
LINE
8
LEFT
10
0.151473
20
0.375494
30
0.0
11
0.147722
21
0.378326
31
0.0
0
LINE
8
LEFT
10
0.147722
20
0.378326
30
0.0
11
0.144145
21
0.381375
31
0.0
0
LINE
8
LEFT
10
0.144145
20
0.381375
30
0.0
11
0.140753
21
0.384628
31
0.0
0
LINE
8
LEFT
10
0.140753
20
0.384628
30
0.0
11
0.137557
21
0.388075
31
0.0
0
LINE
8
LEFT
10
0.137557
20
0.388075
30
0.0
11
0.134570
21
0.391704
31
0.0
0
LINE
8
LEFT
10
0.134570
20
0.391704
30
0.0
11
0.131802
21
0.395502
31
0.0
0
LINE
8
LEFT
10
0.131802
20
0.395502
30
0.0
11
0.129261
21
0.399456
31
0.0
0
LINE
8
LEFT
10
0.129261
20
0.399456
30
0.0
11
0.126958
21
0.403553
31
0.0
0
LINE
8
LEFT
10
0.126958
20
0.403553
30
0.0
11
0.124899
21
0.407778
31
0.0
0
LINE
8
LEFT
10
0.124899
20
0.407778
30
0.0
11
0.123092
21
0.412116
31
0.0
0
LINE
8
LEFT
10
0.123092
20
0.412116
30
0.0
11
0.121543
21
0.416554
31
0.0
0
LINE
8
LEFT
10
0.121543
20
0.416554
30
0.0
11
0.120257
21
0.421075
31
0.0
0
LINE
8
LEFT
10
0.120257
20
0.421075
30
0.0
11
0.119239
21
0.425663
31
0.0
0
LINE
8
LEFT
10
0.119239
20
0.425663
30
0.0
11
0.118493
21
0.430304
31
0.0
0
LINE
8
LEFT
10
0.118493
20
0.430304
30
0.0
11
0.118021
21
0.434980
31
0.0
0
LINE
8
LEFT
10
0.118021
20
0.434980
30
0.0
11
0.117825
21
0.439676
31
0.0
0
LINE
8
LEFT
10
0.117825
20
0.439676
30
0.0
11
0.117905
21
0.444375
31
0.0
0
LINE
8
LEFT
10
0.117905
20
0.444375
30
0.0
11
0.118261
21
0.449062
31
0.0
0
LINE
8
LEFT
10
0.118261
20
0.449062
30
0.0
11
0.118891
21
0.453719
31
0.0
0
LINE
8
LEFT
10
0.118891
20
0.453719
30
0.0
11
0.119795
21
0.458332
31
0.0
0
LINE
8
LEFT
10
0.119795
20
0.458332
30
0.0
11
0.120968
21
0.462883
31
0.0
0
LINE
8
LEFT
10
0.253263
20
0.342970
30
0.0
11
0.253263
21
0.327345
31
0.0
0
LINE
8
LEFT
10
0.143888
20
0.342970
30
0.0
11
0.143888
21
0.343289
31
0.0
0
LINE
8
LEFT
10
0.253263
20
0.327345
30
0.0
11
0.237638
21
0.327345
31
0.0
0
LINE
8
LEFT
10
0.237638
20
0.335854
30
0.0
11
0.237638
21
0.327345
31
0.0
0
LINE
8
LEFT
10
0.143888
20
0.327345
30
0.0
11
0.143888
21
0.342970
31
0.0
0
LINE
8
LEFT
10
0.237638
20
0.336227
30
0.0
11
0.237638
21
0.335854
31
0.0
0
LINE
8
LEFT
10
0.237638
20
0.336227
30
0.0
11
0.237236
21
0.336078
31
0.0
0
LINE
8
LEFT
10
0.237236
20
0.336078
30
0.0
11
0.236834
21
0.335931
31
0.0
0
LINE
8
LEFT
10
0.236834
20
0.335931
30
0.0
11
0.236431
21
0.335785
31
0.0
0
LINE
8
LEFT
10
0.236431
20
0.335785
30
0.0
11
0.236027
21
0.335641
31
0.0
0
LINE
8
LEFT
10
0.236027
20
0.335641
30
0.0
11
0.235623
21
0.335498
31
0.0
0
LINE
8
LEFT
10
0.235623
20
0.335498
30
0.0
11
0.235219
21
0.335356
31
0.0
0
LINE
8
LEFT
10
0.235219
20
0.335356
30
0.0
11
0.234814
21
0.335216
31
0.0
0
LINE
8
LEFT
10
0.234814
20
0.335216
30
0.0
11
0.234409
21
0.335077
31
0.0
0
LINE
8
LEFT
10
0.234409
20
0.335077
30
0.0
11
0.234003
21
0.334940
31
0.0
0
LINE
8
LEFT
10
0.234003
20
0.334940
30
0.0
11
0.233597
21
0.334804
31
0.0
0
LINE
8
LEFT
10
0.233597
20
0.334804
30
0.0
11
0.233190
21
0.334670
31
0.0
0
LINE
8
LEFT
10
0.233190
20
0.334670
30
0.0
11
0.232783
21
0.334536
31
0.0
0
LINE
8
LEFT
10
0.232783
20
0.334536
30
0.0
11
0.232375
21
0.334405
31
0.0
0
LINE
8
LEFT
10
0.232375
20
0.334405
30
0.0
11
0.231967
21
0.334274
31
0.0
0
LINE
8
LEFT
10
0.231967
20
0.334274
30
0.0
11
0.231559
21
0.334146
31
0.0
0
LINE
8
LEFT
10
0.231559
20
0.334146
30
0.0
11
0.231150
21
0.334018
31
0.0
0
LINE
8
LEFT
10
0.231150
20
0.334018
30
0.0
11
0.230740
21
0.333892
31
0.0
0
LINE
8
LEFT
10
0.230740
20
0.333892
30
0.0
11
0.230330
21
0.333768
31
0.0
0
LINE
8
LEFT
10
0.230330
20
0.333768
30
0.0
11
0.229920
21
0.333644
31
0.0
0
LINE
8
LEFT
10
0.229920
20
0.333644
30
0.0
11
0.229509
21
0.333523
31
0.0
0
LINE
8
LEFT
10
0.229509
20
0.333523
30
0.0
11
0.229098
21
0.333402
31
0.0
0
LINE
8
LEFT
10
0.229098
20
0.333402
30
0.0
11
0.228686
21
0.333283
31
0.0
0
LINE
8
LEFT
10
0.228686
20
0.333283
30
0.0
11
0.228274
21
0.333166
31
0.0
0
LINE
8
LEFT
10
0.228274
20
0.333166
30
0.0
11
0.227862
21
0.333050
31
0.0
0
LINE
8
LEFT
10
0.227862
20
0.333050
30
0.0
11
0.227449
21
0.332935
31
0.0
0
LINE
8
LEFT
10
0.227449
20
0.332935
30
0.0
11
0.227036
21
0.332822
31
0.0
0
LINE
8
LEFT
10
0.227036
20
0.332822
30
0.0
11
0.226622
21
0.332710
31
0.0
0
LINE
8
LEFT
10
0.226622
20
0.332710
30
0.0
11
0.226208
21
0.332600
31
0.0
0
LINE
8
LEFT
10
0.226208
20
0.332600
30
0.0
11
0.225794
21
0.332491
31
0.0
0
LINE
8
LEFT
10
0.225794
20
0.332491
30
0.0
11
0.225379
21
0.332384
31
0.0
0
LINE
8
LEFT
10
0.225379
20
0.332384
30
0.0
11
0.224964
21
0.332278
31
0.0
0
LINE
8
LEFT
10
0.224964
20
0.332278
30
0.0
11
0.224549
21
0.332173
31
0.0
0
LINE
8
LEFT
10
0.224549
20
0.332173
30
0.0
11
0.224133
21
0.332070
31
0.0
0
LINE
8
LEFT
10
0.224133
20
0.332070
30
0.0
11
0.223717
21
0.331969
31
0.0
0
LINE
8
LEFT
10
0.223717
20
0.331969
30
0.0
11
0.223300
21
0.331869
31
0.0
0
LINE
8
LEFT
10
0.223300
20
0.331869
30
0.0
11
0.222883
21
0.331770
31
0.0
0
LINE
8
LEFT
10
0.222883
20
0.331770
30
0.0
11
0.222466
21
0.331673
31
0.0
0
LINE
8
LEFT
10
0.222466
20
0.331673
30
0.0
11
0.222048
21
0.331577
31
0.0
0
LINE
8
LEFT
10
0.222048
20
0.331577
30
0.0
11
0.221630
21
0.331482
31
0.0
0
LINE
8
LEFT
10
0.221630
20
0.331482
30
0.0
11
0.221212
21
0.331389
31
0.0
0
LINE
8
LEFT
10
0.221212
20
0.331389
30
0.0
11
0.220794
21
0.331298
31
0.0
0
LINE
8
LEFT
10
0.220794
20
0.331298
30
0.0
11
0.220375
21
0.331208
31
0.0
0
LINE
8
LEFT
10
0.220375
20
0.331208
30
0.0
11
0.219956
21
0.331119
31
0.0
0
LINE
8
LEFT
10
0.219956
20
0.331119
30
0.0
11
0.219536
21
0.331032
31
0.0
0
LINE
8
LEFT
10
0.219536
20
0.331032
30
0.0
11
0.219116
21
0.330947
31
0.0
0
LINE
8
LEFT
10
0.219116
20
0.330947
30
0.0
11
0.218696
21
0.330862
31
0.0
0
LINE
8
LEFT
10
0.218696
20
0.330862
30
0.0
11
0.218276
21
0.330780
31
0.0
0
LINE
8
LEFT
10
0.218276
20
0.330780
30
0.0
11
0.217855
21
0.330698
31
0.0
0
LINE
8
LEFT
10
0.217855
20
0.330698
30
0.0
11
0.217435
21
0.330619
31
0.0
0
LINE
8
LEFT
10
0.217435
20
0.330619
30
0.0
11
0.217013
21
0.330540
31
0.0
0
LINE
8
LEFT
10
0.217013
20
0.330540
30
0.0
11
0.216592
21
0.330463
31
0.0
0
LINE
8
LEFT
10
0.216592
20
0.330463
30
0.0
11
0.216170
21
0.330388
31
0.0
0
LINE
8
LEFT
10
0.216170
20
0.330388
30
0.0
11
0.215748
21
0.330314
31
0.0
0
LINE
8
LEFT
10
0.215748
20
0.330314
30
0.0
11
0.215326
21
0.330241
31
0.0
0
LINE
8
LEFT
10
0.215326
20
0.330241
30
0.0
11
0.214903
21
0.330170
31
0.0
0
LINE
8
LEFT
10
0.214903
20
0.330170
30
0.0
11
0.214481
21
0.330101
31
0.0
0
LINE
8
LEFT
10
0.214481
20
0.330101
30
0.0
11
0.214058
21
0.330033
31
0.0
0
LINE
8
LEFT
10
0.214058
20
0.330033
30
0.0
11
0.213634
21
0.329966
31
0.0
0
LINE
8
LEFT
10
0.213634
20
0.329966
30
0.0
11
0.213211
21
0.329901
31
0.0
0
LINE
8
LEFT
10
0.213211
20
0.329901
30
0.0
11
0.212787
21
0.329837
31
0.0
0
LINE
8
LEFT
10
0.212787
20
0.329837
30
0.0
11
0.212364
21
0.329775
31
0.0
0
LINE
8
LEFT
10
0.212364
20
0.329775
30
0.0
11
0.211939
21
0.329714
31
0.0
0
LINE
8
LEFT
10
0.211939
20
0.329714
30
0.0
11
0.211515
21
0.329655
31
0.0
0
LINE
8
LEFT
10
0.274538
20
0.462883
30
0.0
11
0.275463
21
0.458454
31
0.0
0
LINE
8
LEFT
10
0.275463
20
0.458454
30
0.0
11
0.276133
21
0.453980
31
0.0
0
LINE
8
LEFT
10
0.276133
20
0.453980
30
0.0
11
0.276545
21
0.449475
31
0.0
0
LINE
8
LEFT
10
0.276545
20
0.449475
30
0.0
11
0.276699
21
0.444953
31
0.0
0
LINE
8
LEFT
10
0.276699
20
0.444953
30
0.0
11
0.276594
21
0.440430
31
0.0
0
LINE
8
LEFT
10
0.276594
20
0.440430
30
0.0
11
0.276229
21
0.435921
31
0.0
0
LINE
8
LEFT
10
0.276229
20
0.435921
30
0.0
11
0.275607
21
0.431440
31
0.0
0
LINE
8
LEFT
10
0.275607
20
0.431440
30
0.0
11
0.274729
21
0.427002
31
0.0
0
LINE
8
LEFT
10
0.274729
20
0.427002
30
0.0
11
0.273599
21
0.422621
31
0.0
0
LINE
8
LEFT
10
0.273599
20
0.422621
30
0.0
11
0.272219
21
0.418312
31
0.0
0
LINE
8
LEFT
10
0.272219
20
0.418312
30
0.0
11
0.270595
21
0.414090
31
0.0
0
LINE
8
LEFT
10
0.270595
20
0.414090
30
0.0
11
0.268731
21
0.409967
31
0.0
0
LINE
8
LEFT
10
0.268731
20
0.409967
30
0.0
11
0.266635
21
0.405958
31
0.0
0
LINE
8
LEFT
10
0.266635
20
0.405958
30
0.0
11
0.264312
21
0.402076
31
0.0
0
LINE
8
LEFT
10
0.264312
20
0.402076
30
0.0
11
0.261771
21
0.398333
31
0.0
0
LINE
8
LEFT
10
0.261771
20
0.398333
30
0.0
11
0.259019
21
0.394742
31
0.0
0
LINE
8
LEFT
10
0.259019
20
0.394742
30
0.0
11
0.256066
21
0.391314
31
0.0
0
LINE
8
LEFT
10
0.256066
20
0.391314
30
0.0
11
0.252922
21
0.388061
31
0.0
0
LINE
8
LEFT
10
0.252922
20
0.388061
30
0.0
11
0.249597
21
0.384994
31
0.0
0
LINE
8
LEFT
10
0.249597
20
0.384994
30
0.0
11
0.246101
21
0.382122
31
0.0
0
LINE
8
LEFT
10
0.246101
20
0.382122
30
0.0
11
0.242447
21
0.379455
31
0.0
0
LINE
8
LEFT
10
0.242447
20
0.379455
30
0.0
11
0.238645
21
0.377001
31
0.0
0
LINE
8
LEFT
10
0.238645
20
0.377001
30
0.0
11
0.234710
21
0.374770
31
0.0
0
LINE
8
LEFT
10
0.234710
20
0.374770
30
0.0
11
0.230653
21
0.372767
31
0.0
0
LINE
8
LEFT
10
0.230653
20
0.372767
30
0.0
11
0.226488
21
0.371001
31
0.0
0
LINE
8
LEFT
10
0.226488
20
0.371001
30
0.0
11
0.222229
21
0.369475
31
0.0
0
LINE
8
LEFT
10
0.222229
20
0.369475
30
0.0
11
0.217889
21
0.368196
31
0.0
0
LINE
8
LEFT
10
0.217889
20
0.368196
30
0.0
11
0.213484
21
0.367168
31
0.0
0
LINE
8
LEFT
10
0.213484
20
0.367168
30
0.0
11
0.209026
21
0.366394
31
0.0
0
LINE
8
LEFT
10
0.209026
20
0.366394
30
0.0
11
0.204532
21
0.365877
31
0.0
0
LINE
8
LEFT
10
0.204532
20
0.365877
30
0.0
11
0.200015
21
0.365618
31
0.0
0
LINE
8
LEFT
10
0.200015
20
0.365618
30
0.0
11
0.195491
21
0.365618
31
0.0
0
LINE
8
LEFT
10
0.195491
20
0.365618
30
0.0
11
0.190974
21
0.365877
31
0.0
0
LINE
8
LEFT
10
0.190974
20
0.365877
30
0.0
11
0.186480
21
0.366394
31
0.0
0
LINE
8
LEFT
10
0.186480
20
0.366394
30
0.0
11
0.182022
21
0.367168
31
0.0
0
LINE
8
LEFT
10
0.182022
20
0.367168
30
0.0
11
0.177616
21
0.368196
31
0.0
0
LINE
8
LEFT
10
0.177616
20
0.368196
30
0.0
11
0.173277
21
0.369475
31
0.0
0
LINE
8
LEFT
10
0.173277
20
0.369475
30
0.0
11
0.169018
21
0.371001
31
0.0
0
LINE
8
LEFT
10
0.169018
20
0.371001
30
0.0
11
0.164853
21
0.372767
31
0.0
0
LINE
8
LEFT
10
0.164853
20
0.372767
30
0.0
11
0.160796
21
0.374770
31
0.0
0
LINE
8
LEFT
10
0.160796
20
0.374770
30
0.0
11
0.156860
21
0.377001
31
0.0
0
LINE
8
LEFT
10
0.156860
20
0.377001
30
0.0
11
0.153059
21
0.379455
31
0.0
0
LINE
8
LEFT
10
0.153059
20
0.379455
30
0.0
11
0.149405
21
0.382122
31
0.0
0
LINE
8
LEFT
10
0.149405
20
0.382122
30
0.0
11
0.145909
21
0.384994
31
0.0
0
LINE
8
LEFT
10
0.145909
20
0.384994
30
0.0
11
0.142584
21
0.388061
31
0.0
0
LINE
8
LEFT
10
0.142584
20
0.388061
30
0.0
11
0.139439
21
0.391314
31
0.0
0
LINE
8
LEFT
10
0.139439
20
0.391314
30
0.0
11
0.136487
21
0.394742
31
0.0
0
LINE
8
LEFT
10
0.136487
20
0.394742
30
0.0
11
0.133735
21
0.398333
31
0.0
0
LINE
8
LEFT
10
0.133735
20
0.398333
30
0.0
11
0.131194
21
0.402076
31
0.0
0
LINE
8
LEFT
10
0.131194
20
0.402076
30
0.0
11
0.128871
21
0.405958
31
0.0
0
LINE
8
LEFT
10
0.128871
20
0.405958
30
0.0
11
0.126775
21
0.409967
31
0.0
0
LINE
8
LEFT
10
0.126775
20
0.409967
30
0.0
11
0.124911
21
0.414090
31
0.0
0
LINE
8
LEFT
10
0.124911
20
0.414090
30
0.0
11
0.123287
21
0.418312
31
0.0
0
LINE
8
LEFT
10
0.123287
20
0.418312
30
0.0
11
0.121907
21
0.422621
31
0.0
0
LINE
8
LEFT
10
0.121907
20
0.422621
30
0.0
11
0.120777
21
0.427002
31
0.0
0
LINE
8
LEFT
10
0.120777
20
0.427002
30
0.0
11
0.119899
21
0.431440
31
0.0
0
LINE
8
LEFT
10
0.119899
20
0.431440
30
0.0
11
0.119277
21
0.435921
31
0.0
0
LINE
8
LEFT
10
0.119277
20
0.435921
30
0.0
11
0.118912
21
0.440430
31
0.0
0
LINE
8
LEFT
10
0.118912
20
0.440430
30
0.0
11
0.118807
21
0.444953
31
0.0
0
LINE
8
LEFT
10
0.118807
20
0.444953
30
0.0
11
0.118960
21
0.449475
31
0.0
0
LINE
8
LEFT
10
0.118960
20
0.449475
30
0.0
11
0.119373
21
0.453980
31
0.0
0
LINE
8
LEFT
10
0.119373
20
0.453980
30
0.0
11
0.120043
21
0.458454
31
0.0
0
LINE
8
LEFT
10
0.120043
20
0.458454
30
0.0
11
0.120968
21
0.462883
31
0.0
0
LINE
8
LEFT
10
0.211515
20
0.329655
30
0.0
11
0.210559
21
0.329527
31
0.0
0
LINE
8
LEFT
10
0.210559
20
0.329527
30
0.0
11
0.209601
21
0.329406
31
0.0
0
LINE
8
LEFT
10
0.209601
20
0.329406
30
0.0
11
0.208643
21
0.329293
31
0.0
0
LINE
8
LEFT
10
0.208643
20
0.329293
30
0.0
11
0.207684
21
0.329188
31
0.0
0
LINE
8
LEFT
10
0.207684
20
0.329188
30
0.0
11
0.206724
21
0.329090
31
0.0
0
LINE
8
LEFT
10
0.206724
20
0.329090
30
0.0
11
0.205764
21
0.328999
31
0.0
0
LINE
8
LEFT
10
0.205764
20
0.328999
30
0.0
11
0.204802
21
0.328916
31
0.0
0
LINE
8
LEFT
10
0.204802
20
0.328916
30
0.0
11
0.203840
21
0.328841
31
0.0
0
LINE
8
LEFT
10
0.203840
20
0.328841
30
0.0
11
0.202878
21
0.328773
31
0.0
0
LINE
8
LEFT
10
0.202878
20
0.328773
30
0.0
11
0.201915
21
0.328712
31
0.0
0
LINE
8
LEFT
10
0.201915
20
0.328712
30
0.0
11
0.200951
21
0.328659
31
0.0
0
LINE
8
LEFT
10
0.200951
20
0.328659
30
0.0
11
0.199988
21
0.328614
31
0.0
0
LINE
8
LEFT
10
0.199988
20
0.328614
30
0.0
11
0.199023
21
0.328576
31
0.0
0
LINE
8
LEFT
10
0.199023
20
0.328576
30
0.0
11
0.198059
21
0.328546
31
0.0
0
LINE
8
LEFT
10
0.198059
20
0.328546
30
0.0
11
0.197094
21
0.328523
31
0.0
0
LINE
8
LEFT
10
0.197094
20
0.328523
30
0.0
11
0.196130
21
0.328508
31
0.0
0
LINE
8
LEFT
10
0.196130
20
0.328508
30
0.0
11
0.195165
21
0.328500
31
0.0
0
LINE
8
LEFT
10
0.195165
20
0.328500
30
0.0
11
0.194200
21
0.328500
31
0.0
0
LINE
8
LEFT
10
0.194200
20
0.328500
30
0.0
11
0.193235
21
0.328507
31
0.0
0
LINE
8
LEFT
10
0.193235
20
0.328507
30
0.0
11
0.192270
21
0.328522
31
0.0
0
LINE
8
LEFT
10
0.192270
20
0.328522
30
0.0
11
0.191306
21
0.328545
31
0.0
0
LINE
8
LEFT
10
0.191306
20
0.328545
30
0.0
11
0.190341
21
0.328575
31
0.0
0
LINE
8
LEFT
10
0.190341
20
0.328575
30
0.0
11
0.189377
21
0.328613
31
0.0
0
LINE
8
LEFT
10
0.189377
20
0.328613
30
0.0
11
0.188413
21
0.328658
31
0.0
0
LINE
8
LEFT
10
0.188413
20
0.328658
30
0.0
11
0.187450
21
0.328711
31
0.0
0
LINE
8
LEFT
10
0.187450
20
0.328711
30
0.0
11
0.186487
21
0.328771
31
0.0
0
LINE
8
LEFT
10
0.186487
20
0.328771
30
0.0
11
0.185524
21
0.328839
31
0.0
0
LINE
8
LEFT
10
0.185524
20
0.328839
30
0.0
11
0.184562
21
0.328914
31
0.0
0
LINE
8
LEFT
10
0.184562
20
0.328914
30
0.0
11
0.183601
21
0.328997
31
0.0
0
LINE
8
LEFT
10
0.183601
20
0.328997
30
0.0
11
0.182640
21
0.329087
31
0.0
0
LINE
8
LEFT
10
0.182640
20
0.329087
30
0.0
11
0.181680
21
0.329185
31
0.0
0
LINE
8
LEFT
10
0.181680
20
0.329185
30
0.0
11
0.180721
21
0.329290
31
0.0
0
LINE
8
LEFT
10
0.180721
20
0.329290
30
0.0
11
0.179763
21
0.329403
31
0.0
0
LINE
8
LEFT
10
0.179763
20
0.329403
30
0.0
11
0.178806
21
0.329524
31
0.0
0
LINE
8
LEFT
10
0.178806
20
0.329524
30
0.0
11
0.177849
21
0.329651
31
0.0
0
LINE
8
LEFT
10
0.177849
20
0.329651
30
0.0
11
0.176894
21
0.329787
31
0.0
0
LINE
8
LEFT
10
0.176894
20
0.329787
30
0.0
11
0.175940
21
0.329930
31
0.0
0
LINE
8
LEFT
10
0.175940
20
0.329930
30
0.0
11
0.174987
21
0.330080
31
0.0
0
LINE
8
LEFT
10
0.174987
20
0.330080
30
0.0
11
0.174035
21
0.330238
31
0.0
0
LINE
8
LEFT
10
0.174035
20
0.330238
30
0.0
11
0.173084
21
0.330403
31
0.0
0
LINE
8
LEFT
10
0.173084
20
0.330403
30
0.0
11
0.172135
21
0.330575
31
0.0
0
LINE
8
LEFT
10
0.172135
20
0.330575
30
0.0
11
0.171187
21
0.330755
31
0.0
0
LINE
8
LEFT
10
0.171187
20
0.330755
30
0.0
11
0.170240
21
0.330943
31
0.0
0
LINE
8
LEFT
10
0.170240
20
0.330943
30
0.0
11
0.169295
21
0.331138
31
0.0
0
LINE
8
LEFT
10
0.169295
20
0.331138
30
0.0
11
0.168352
21
0.331340
31
0.0
0
LINE
8
LEFT
10
0.168352
20
0.331340
30
0.0
11
0.167410
21
0.331549
31
0.0
0
LINE
8
LEFT
10
0.167410
20
0.331549
30
0.0
11
0.166470
21
0.331766
31
0.0
0
LINE
8
LEFT
10
0.166470
20
0.331766
30
0.0
11
0.165531
21
0.331991
31
0.0
0
LINE
8
LEFT
10
0.165531
20
0.331991
30
0.0
11
0.164595
21
0.332222
31
0.0
0
LINE
8
LEFT
10
0.164595
20
0.332222
30
0.0
11
0.163660
21
0.332461
31
0.0
0
LINE
8
LEFT
10
0.163660
20
0.332461
30
0.0
11
0.162727
21
0.332708
31
0.0
0
LINE
8
LEFT
10
0.162727
20
0.332708
30
0.0
11
0.161796
21
0.332961
31
0.0
0
LINE
8
LEFT
10
0.161796
20
0.332961
30
0.0
11
0.160867
21
0.333222
31
0.0
0
LINE
8
LEFT
10
0.160867
20
0.333222
30
0.0
11
0.159940
21
0.333490
31
0.0
0
LINE
8
LEFT
10
0.159940
20
0.333490
30
0.0
11
0.159015
21
0.333765
31
0.0
0
LINE
8
LEFT
10
0.159015
20
0.333765
30
0.0
11
0.158093
21
0.334048
31
0.0
0
LINE
8
LEFT
10
0.158093
20
0.334048
30
0.0
11
0.157172
21
0.334338
31
0.0
0
LINE
8
LEFT
10
0.157172
20
0.334338
30
0.0
11
0.156254
21
0.334635
31
0.0
0
LINE
8
LEFT
10
0.156254
20
0.334635
30
0.0
11
0.155338
21
0.334939
31
0.0
0
LINE
8
LEFT
10
0.155338
20
0.334939
30
0.0
11
0.154425
21
0.335250
31
0.0
0
LINE
8
LEFT
10
0.154425
20
0.335250
30
0.0
11
0.153514
21
0.335569
31
0.0
0
LINE
8
LEFT
10
0.153514
20
0.335569
30
0.0
11
0.152606
21
0.335894
31
0.0
0
LINE
8
LEFT
10
0.152606
20
0.335894
30
0.0
11
0.151700
21
0.336227
31
0.0
0
LINE
8
LEFT
10
0.151700
20
0.327345
30
0.0
11
0.151700
21
0.336227
31
0.0
0
LINE
8
LEFT
10
0.151700
20
0.327345
30
0.0
11
0.143888
21
0.327345
31
0.0
0
LINE
8
LEFT_HID
6
HIDDEN
10
0.151700
20
0.311720
30
0.0
11
0.143888
21
0.311720
31
0.0
0
LINE
8
LEFT_HID
6
HIDDEN
10
0.237638
20
0.311720
30
0.0
11
0.151700
21
0.311720
31
0.0
0
LINE
8
LEFT_HID
6
HIDDEN
10
0.253263
20
0.311720
30
0.0
11
0.237638
21
0.311720
31
0.0
0
LINE
8
LEFT_HID
6
HIDDEN
10
0.253263
20
0.316161
30
0.0
11
0.253263
21
0.311720
31
0.0
0
LINE
8
LEFT_HID
6
HIDDEN
10
0.253263
20
0.320931
30
0.0
11
0.253263
21
0.316161
31
0.0
0
LINE
8
LEFT_HID
6
HIDDEN
10
0.143888
20
0.316161
30
0.0
11
0.143888
21
0.320931
31
0.0
0
LINE
8
LEFT_HID
6
HIDDEN
10
0.143888
20
0.311720
30
0.0
11
0.143888
21
0.316161
31
0.0
0
LINE
8
LEFT_HID
6
HIDDEN
10
0.237638
20
0.316161
30
0.0
11
0.237638
21
0.311720
31
0.0
0
LINE
8
LEFT_HID
6
HIDDEN
10
0.151700
20
0.311720
30
0.0
11
0.151700
21
0.316161
31
0.0
0
LINE
8
LEFT_HID
6
HIDDEN
10
0.151700
20
0.316161
30
0.0
11
0.151700
21
0.320931
31
0.0
0
LINE
8
LEFT_HID
6
HIDDEN
10
0.151700
20
0.320931
30
0.0
11
0.237638
21
0.320931
31
0.0
0
LINE
8
LEFT_HID
6
HIDDEN
10
0.237638
20
0.320931
30
0.0
11
0.237638
21
0.316161
31
0.0
0
LINE
8
LEFT_HID
6
HIDDEN
10
0.237638
20
0.320931
30
0.0
11
0.253263
21
0.320931
31
0.0
0
LINE
8
LEFT_HID
6
HIDDEN
10
0.143888
20
0.320931
30
0.0
11
0.151700
21
0.320931
31
0.0
0
LINE
8
LEFT_HID
6
HIDDEN
10
0.253263
20
0.320931
30
0.0
11
0.253263
21
0.316161
31
0.0
0
LINE
8
LEFT_HID
6
HIDDEN
10
0.253263
20
0.316161
30
0.0
11
0.253263
21
0.311720
31
0.0
0
LINE
8
LEFT_HID
6
HIDDEN
10
0.143888
20
0.311720
30
0.0
11
0.143888
21
0.316161
31
0.0
0
LINE
8
LEFT_HID
6
HIDDEN
10
0.143888
20
0.316161
30
0.0
11
0.143888
21
0.320931
31
0.0
0
LINE
8
LEFT_HID
6
HIDDEN
10
0.237638
20
0.320931
30
0.0
11
0.237638
21
0.316161
31
0.0
0
LINE
8
LEFT_HID
6
HIDDEN
10
0.237638
20
0.316161
30
0.0
11
0.237638
21
0.311720
31
0.0
0
LINE
8
LEFT_HID
6
HIDDEN
10
0.151700
20
0.316161
30
0.0
11
0.151700
21
0.320931
31
0.0
0
LINE
8
LEFT_HID
6
HIDDEN
10
0.151700
20
0.311720
30
0.0
11
0.151700
21
0.316161
31
0.0
0
LINE
8
LEFT_HID
6
HIDDEN
10
0.143888
20
0.320931
30
0.0
11
0.151700
21
0.320931
31
0.0
0
LINE
8
LEFT_HID
6
HIDDEN
10
0.237638
20
0.320931
30
0.0
11
0.253263
21
0.320931
31
0.0
0
LINE
8
TOP
10
0.015625
20
0.058420
30
0.0
11
0.000000
21
0.058420
31
0.0
0
LINE
8
TOP
10
0.015625
20
0.167795
30
0.0
11
0.000000
21
0.167795
31
0.0
0
LINE
8
TOP
10
0.000000
20
0.167795
30
0.0
11
0.000000
21
0.058420
31
0.0
0
LINE
8
TOP
10
0.031250
20
0.225639
30
0.0
11
0.031250
21
0.000000
31
0.0
0
LINE
8
TOP
10
0.015625
20
0.225639
30
0.0
11
0.015625
21
0.000000
31
0.0
0
LINE
8
TOP
10
0.031250
20
0.225639
30
0.0
11
0.015625
21
0.225639
31
0.0
0
LINE
8
TOP
10
0.031250
20
0.000000
30
0.0
11
0.015625
21
0.000000
31
0.0
0
LINE
8
TOP_HID
6
HIDDEN
10
0.015625
20
0.159982
30
0.0
11
0.015625
21
0.167795
31
0.0
0
LINE
8
TOP_HID
6
HIDDEN
10
0.015625
20
0.074045
30
0.0
11
0.015625
21
0.159982
31
0.0
0
LINE
8
TOP_HID
6
HIDDEN
10
0.015625
20
0.058420
30
0.0
11
0.015625
21
0.074045
31
0.0
0
LINE
8
TOP_HID
6
HIDDEN
10
0.015625
20
0.058420
30
0.0
11
0.015625
21
0.167795
31
0.0
0
LINE
8
TOP_HID
6
HIDDEN
10
0.015625
20
0.074045
30
0.0
11
0.015625
21
0.159982
31
0.0
0
LINE
8
TOP_HID
6
HIDDEN
10
0.015625
20
0.159982
30
0.0
11
0.015625
21
0.074045
31
0.0
0
LINE
8
TOP_HID
6
HIDDEN
10
0.015625
20
0.058420
30
0.0
11
0.031250
21
0.058420
31
0.0
0
LINE
8
TOP_HID
6
HIDDEN
10
0.015625
20
0.058420
30
0.0
11
0.031250
21
0.058420
31
0.0
0
LINE
8
TOP_HID
6
HIDDEN
10
0.015625
20
0.058420
30
0.0
11
0.031250
21
0.058420
31
0.0
0
LINE
8
TOP_HID
6
HIDDEN
10
0.015625
20
0.167795
30
0.0
11
0.031250
21
0.167795
31
0.0
0
LINE
8
TOP_HID
6
HIDDEN
10
0.015625
20
0.167795
30
0.0
11
0.031250
21
0.167795
31
0.0
0
LINE
8
TOP_HID
6
HIDDEN
10
0.015625
20
0.167795
30
0.0
11
0.031250
21
0.167795
31
0.0
0
LINE
8
TOP_HID
6
HIDDEN
10
0.031250
20
0.074045
30
0.0
11
0.015625
21
0.074045
31
0.0
0
LINE
8
TOP_HID
6
HIDDEN
10
0.031250
20
0.074045
30
0.0
11
0.015625
21
0.074045
31
0.0
0
LINE
8
TOP_HID
6
HIDDEN
10
0.031250
20
0.074045
30
0.0
11
0.031250
21
0.159982
31
0.0
0
LINE
8
TOP_HID
6
HIDDEN
10
0.031250
20
0.159982
30
0.0
11
0.015625
21
0.159982
31
0.0
0
LINE
8
TOP_HID
6
HIDDEN
10
0.015625
20
0.159982
30
0.0
11
0.031250
21
0.159982
31
0.0
0
LINE
8
TOP_HID
6
HIDDEN
10
0.015625
20
0.167795
30
0.0
11
0.031250
21
0.167795
31
0.0
0
LINE
8
TOP_HID
6
HIDDEN
10
0.015625
20
0.058420
30
0.0
11
0.031250
21
0.058420
31
0.0
0
LINE
8
TOP_HID
6
HIDDEN
10
0.031250
20
0.058420
30
0.0
11
0.031250
21
0.167795
31
0.0
0
LINE
8
TOP_HID
6
HIDDEN
10
0.031250
20
0.167795
30
0.0
11
0.031250
21
0.159982
31
0.0
0
LINE
8
TOP_HID
6
HIDDEN
10
0.031250
20
0.074045
30
0.0
11
0.031250
21
0.058420
31
0.0
0
LINE
8
TOP_HID
6
HIDDEN
10
0.031250
20
0.074045
30
0.0
11
0.031250
21
0.058420
31
0.0
0
LINE
8
TOP_HID
6
HIDDEN
10
0.031250
20
0.058420
30
0.0
11
0.031250
21
0.074045
31
0.0
0
LINE
8
TOP_HID
6
HIDDEN
10
0.031250
20
0.167795
30
0.0
11
0.031250
21
0.159982
31
0.0
0
LINE
8
TOP_HID
6
HIDDEN
10
0.031250
20
0.159982
30
0.0
11
0.031250
21
0.167795
31
0.0
0
LINE
8
TOP_HID
6
HIDDEN
10
0.015625
20
0.058420
30
0.0
11
0.031250
21
0.058420
31
0.0
0
LINE
8
TOP_HID
6
HIDDEN
10
0.031250
20
0.167795
30
0.0
11
0.031250
21
0.225639
31
0.0
0
LINE
8
TOP_HID
6
HIDDEN
10
0.031250
20
0.000000
30
0.0
11
0.031250
21
0.058420
31
0.0
0
LINE
8
TOP_HID
6
HIDDEN
10
0.031250
20
0.167795
30
0.0
11
0.015625
21
0.167795
31
0.0
0
LINE
8
TOP_HID
6
HIDDEN
10
0.015625
20
0.167795
30
0.0
11
0.015625
21
0.225639
31
0.0
0
LINE
8
TOP_HID
6
HIDDEN
10
0.015625
20
0.000000
30
0.0
11
0.015625
21
0.058420
31
0.0
0
LINE
8
TOP_HID
6
HIDDEN
10
0.015625
20
0.066302
30
0.0
11
0.015625
21
0.058420
31
0.0
0
LINE
8
TOP_HID
6
HIDDEN
10
0.015625
20
0.159912
30
0.0
11
0.015625
21
0.066302
31
0.0
0
LINE
8
TOP_HID
6
HIDDEN
10
0.015625
20
0.167795
30
0.0
11
0.015625
21
0.159912
31
0.0
0
LINE
8
TOP_HID
6
HIDDEN
10
0.015625
20
0.037144
30
0.0
11
0.015625
21
0.033995
31
0.0
0
LINE
8
TOP_HID
6
HIDDEN
10
0.015625
20
0.033995
30
0.0
11
0.015625
21
0.193864
31
0.0
0
LINE
8
TOP_HID
6
HIDDEN
10
0.015625
20
0.193864
30
0.0
11
0.015625
21
0.190715
31
0.0
0
LINE
8
TOP_HID
6
HIDDEN
10
0.015625
20
0.113930
30
0.0
11
0.015625
21
0.037144
31
0.0
0
LINE
8
TOP_HID
6
HIDDEN
10
0.015625
20
0.190715
30
0.0
11
0.015625
21
0.113930
31
0.0
0
LINE
8
TOP_HID
6
HIDDEN
10
0.015625
20
0.058420
30
0.0
11
0.031250
21
0.058420
31
0.0
0
LINE
8
TOP_HID
6
HIDDEN
10
0.031250
20
0.066302
30
0.0
11
0.031250
21
0.058420
31
0.0
0
LINE
8
TOP_HID
6
HIDDEN
10
0.031250
20
0.159912
30
0.0
11
0.031250
21
0.066302
31
0.0
0
LINE
8
TOP_HID
6
HIDDEN
10
0.031250
20
0.167795
30
0.0
11
0.031250
21
0.159912
31
0.0
0
LINE
8
TOP_HID
6
HIDDEN
10
0.031250
20
0.037144
30
0.0
11
0.031250
21
0.033995
31
0.0
0
LINE
8
TOP_HID
6
HIDDEN
10
0.031250
20
0.033995
30
0.0
11
0.031250
21
0.193864
31
0.0
0
LINE
8
TOP_HID
6
HIDDEN
10
0.031250
20
0.193864
30
0.0
11
0.031250
21
0.190715
31
0.0
0
LINE
8
TOP_HID
6
HIDDEN
10
0.031250
20
0.113930
30
0.0
11
0.031250
21
0.037144
31
0.0
0
LINE
8
TOP_HID
6
HIDDEN
10
0.031250
20
0.190715
30
0.0
11
0.031250
21
0.113930
31
0.0
0
LINE
8
TOP_HID
6
HIDDEN
10
0.015625
20
0.167795
30
0.0
11
0.031250
21
0.167795
31
0.0
0
LINE
8
TOP_HID
6
HIDDEN
10
0.015625
20
0.066302
30
0.0
11
0.015625
21
0.058420
31
0.0
0
LINE
8
TOP_HID
6
HIDDEN
10
0.015625
20
0.167219
30
0.0
11
0.015625
21
0.159912
31
0.0
0
LINE
8
TOP_HID
6
HIDDEN
10
0.015625
20
0.167219
30
0.0
11
0.015625
21
0.167795
31
0.0
0
LINE
8
TOP_HID
6
HIDDEN
10
0.015625
20
0.159912
30
0.0
11
0.015625
21
0.066302
31
0.0
0
LINE
8
TOP_HID
6
HIDDEN
10
0.031250
20
0.190715
30
0.0
11
0.015625
21
0.190715
31
0.0
0
LINE
8
TOP_HID
6
HIDDEN
10
0.031250
20
0.037144
30
0.0
11
0.015625
21
0.037144
31
0.0
0
LINE
8
TOP_HID
6
HIDDEN
10
0.015625
20
0.113930
30
0.0
11
0.015625
21
0.037144
31
0.0
0
LINE
8
TOP_HID
6
HIDDEN
10
0.015625
20
0.190715
30
0.0
11
0.015625
21
0.113930
31
0.0
0
LINE
8
TOP_HID
6
HIDDEN
10
0.015625
20
0.058420
30
0.0
11
0.015625
21
0.074045
31
0.0
0
LINE
8
TOP_HID
6
HIDDEN
10
0.015625
20
0.058420
30
0.0
11
0.015625
21
0.074045
31
0.0
0
LINE
8
TOP_HID
6
HIDDEN
10
0.031250
20
0.058420
30
0.0
11
0.031250
21
0.074045
31
0.0
0
LINE
8
TOP_HID
6
HIDDEN
10
0.015625
20
0.074045
30
0.0
11
0.031250
21
0.074045
31
0.0
0
LINE
8
TOP_HID
6
HIDDEN
10
0.031250
20
0.058420
30
0.0
11
0.031250
21
0.074045
31
0.0
0
LINE
8
TOP_HID
6
HIDDEN
10
0.031250
20
0.066302
30
0.0
11
0.031250
21
0.058420
31
0.0
0
LINE
8
TOP_HID
6
HIDDEN
10
0.031250
20
0.167219
30
0.0
11
0.031250
21
0.159912
31
0.0
0
LINE
8
TOP_HID
6
HIDDEN
10
0.031250
20
0.167219
30
0.0
11
0.031250
21
0.167795
31
0.0
0
LINE
8
TOP_HID
6
HIDDEN
10
0.031250
20
0.159912
30
0.0
11
0.031250
21
0.066302
31
0.0
0
LINE
8
TOP_HID
6
HIDDEN
10
0.031250
20
0.113930
30
0.0
11
0.031250
21
0.037144
31
0.0
0
LINE
8
TOP_HID
6
HIDDEN
10
0.031250
20
0.190715
30
0.0
11
0.031250
21
0.113930
31
0.0
0
LINE
8
TOP_HID
6
HIDDEN
10
0.015625
20
0.167795
30
0.0
11
0.015625
21
0.167219
31
0.0
0
LINE
8
TOP_HID
6
HIDDEN
10
0.031250
20
0.167795
30
0.0
11
0.031250
21
0.167219
31
0.0
0
LINE
8
TOP_HID
6
HIDDEN
10
0.015625
20
0.167795
30
0.0
11
0.031250
21
0.167795
31
0.0
0
LINE
8
TOP_HID
6
HIDDEN
10
0.015625
20
0.074045
30
0.0
11
0.015625
21
0.100167
31
0.0
0
LINE
8
TOP_HID
6
HIDDEN
10
0.015625
20
0.100167
30
0.0
11
0.015625
21
0.167795
31
0.0
0
LINE
8
TOP_HID
6
HIDDEN
10
0.031250
20
0.037144
30
0.0
11
0.031250
21
0.034982
31
0.0
0
LINE
8
TOP_HID
6
HIDDEN
10
0.031250
20
0.034982
30
0.0
11
0.031250
21
0.192877
31
0.0
0
LINE
8
TOP_HID
6
HIDDEN
10
0.031250
20
0.192877
30
0.0
11
0.031250
21
0.190715
31
0.0
0
LINE
8
TOP_HID
6
HIDDEN
10
0.015625
20
0.037144
30
0.0
11
0.015625
21
0.034982
31
0.0
0
LINE
8
TOP_HID
6
HIDDEN
10
0.015625
20
0.034982
30
0.0
11
0.015625
21
0.192877
31
0.0
0
LINE
8
TOP_HID
6
HIDDEN
10
0.015625
20
0.192877
30
0.0
11
0.015625
21
0.190715
31
0.0
0
LINE
8
TOP_HID
6
HIDDEN
10
0.031250
20
0.074045
30
0.0
11
0.015625
21
0.074045
31
0.0
0
LINE
8
TOP_HID
6
HIDDEN
10
0.031250
20
0.100167
30
0.0
11
0.031250
21
0.074045
31
0.0
0
LINE
8
TOP_HID
6
HIDDEN
10
0.031250
20
0.100167
30
0.0
11
0.031250
21
0.167795
31
0.0
0
LINE
8
TOP_HID
6
HIDDEN
10
0.015625
20
0.100167
30
0.0
11
0.015625
21
0.159982
31
0.0
0
LINE
8
TOP_HID
6
HIDDEN
10
0.015625
20
0.159982
30
0.0
11
0.015625
21
0.167795
31
0.0
0
LINE
8
TOP_HID
6
HIDDEN
10
0.031250
20
0.159982
30
0.0
11
0.031250
21
0.100167
31
0.0
0
LINE
8
TOP_HID
6
HIDDEN
10
0.031250
20
0.159982
30
0.0
11
0.031250
21
0.167795
31
0.0
0
LINE
8
TOP_HID
6
HIDDEN
10
0.031250
20
0.159982
30
0.0
11
0.015625
21
0.159982
31
0.0
0
LINE
8
TOP_HID
6
HIDDEN
10
0.031250
20
0.159982
30
0.0
11
0.015625
21
0.159982
31
0.0
0
LINE
8
TOP_HID
6
HIDDEN
10
0.031250
20
0.193864
30
0.0
11
0.015625
21
0.193864
31
0.0
0
LINE
8
TOP_HID
6
HIDDEN
10
0.031250
20
0.033995
30
0.0
11
0.015625
21
0.033995
31
0.0
0
LINE
8
TOP_HID
6
HIDDEN
10
0.031250
20
0.192877
30
0.0
11
0.015625
21
0.192877
31
0.0
0
LINE
8
TOP_HID
6
HIDDEN
10
0.031250
20
0.034982
30
0.0
11
0.015625
21
0.034982
31
0.0
0
ENDSEC
0
EOF
