0
SECTION
2
HEADER
9
$ACADVER
1
AC1009
0
ENDSEC
0
SECTION
2
TABLES
0
TABLE
2
LTYPE
70
3
0
LTYPE
2
CONTINUOUS
70
0
3
Solid line
72
65
73
0
40
0.0
0
LTYPE
2
HIDDEN
70
0
3
__ __ __ __ __
72
65
73
2
40
0.071875
49
0.047941
49
-0.023934
0
LTYPE
2
CENTER
70
0
3
___ _ ___ _ ___
72
65
73
4
40
0.167684
49
0.095809
49
-0.023934
49
0.023934
49
-0.023934
0
ENDTAB
0
TABLE
2
LAYER
70
7
0
LAYER
2
0
70
0
62
7
6
CONTINUOUS
0
LAYER
2
FRONT
70
0
62
7
6
CONTINUOUS
0
LAYER
2
FRONT_HID
70
0
62
7
6
HIDDEN
0
LAYER
2
LEFT
70
0
62
7
6
CONTINUOUS
0
LAYER
2
LEFT_HID
70
0
62
7
6
HIDDEN
0
LAYER
2
TOP
70
0
62
7
6
CONTINUOUS
0
LAYER
2
TOP_HID
70
0
62
7
6
HIDDEN
0
ENDTAB
0
ENDSEC
0
SECTION
2
ENTITIES
0
LINE
8
FRONT
10
0.000000
20
1.725000
30
0.0
11
0.000000
21
1.785526
31
0.0
0
LINE
8
FRONT
10
0.000000
20
1.785526
30
0.0
11
0.000000
21
2.330263
31
0.0
0
LINE
8
FRONT
10
0.140625
20
1.725000
30
0.0
11
0.140625
21
1.785526
31
0.0
0
LINE
8
FRONT
10
0.140625
20
1.785526
30
0.0
11
0.140625
21
2.330263
31
0.0
0
LINE
8
FRONT
10
0.000000
20
1.725000
30
0.0
11
0.140625
21
1.725000
31
0.0
0
LINE
8
FRONT
10
0.000000
20
1.785526
30
0.0
11
0.140625
21
1.785526
31
0.0
0
LINE
8
FRONT
10
0.000000
20
2.330263
30
0.0
11
0.140625
21
2.330263
31
0.0
0
LINE
8
FRONT_HID
6
HIDDEN
10
0.094326
20
1.725000
30
0.0
11
0.039063
21
1.725000
31
0.0
0
LINE
8
FRONT_HID
6
HIDDEN
10
0.039063
20
1.725000
30
0.0
11
0.094326
21
1.725000
31
0.0
0
LINE
8
FRONT_HID
6
HIDDEN
10
0.000000
20
1.725000
30
0.0
11
0.000000
21
2.284868
31
0.0
0
LINE
8
FRONT_HID
6
HIDDEN
10
0.000000
20
2.284868
30
0.0
11
0.000000
21
1.725000
31
0.0
0
LINE
8
FRONT_HID
6
HIDDEN
10
0.140625
20
1.725000
30
0.0
11
0.140625
21
2.284868
31
0.0
0
LINE
8
FRONT_HID
6
HIDDEN
10
0.140625
20
2.284868
30
0.0
11
0.140625
21
1.725000
31
0.0
0
LINE
8
FRONT_HID
6
HIDDEN
10
0.000000
20
2.284868
30
0.0
11
0.140625
21
2.284868
31
0.0
0
LINE
8
FRONT_HID
6
HIDDEN
10
0.094326
20
1.785526
30
0.0
11
0.039063
21
1.785526
31
0.0
0
LINE
8
FRONT_HID
6
HIDDEN
10
0.039063
20
1.785526
30
0.0
11
0.094326
21
1.785526
31
0.0
0
LINE
8
FRONT_HID
6
HIDDEN
10
0.094326
20
1.785526
30
0.0
11
0.094326
21
1.725000
31
0.0
0
LINE
8
FRONT_HID
6
HIDDEN
10
0.000000
20
2.284868
30
0.0
11
0.140625
21
2.284868
31
0.0
0
LINE
8
FRONT_HID
6
HIDDEN
10
0.094326
20
1.725000
30
0.0
11
0.039063
21
1.725000
31
0.0
0
LINE
8
FRONT_HID
6
HIDDEN
10
0.039063
20
1.725000
30
0.0
11
0.094326
21
1.725000
31
0.0
0
LINE
8
FRONT_HID
6
HIDDEN
10
0.094326
20
1.785526
30
0.0
11
0.039063
21
1.785526
31
0.0
0
LINE
8
FRONT_HID
6
HIDDEN
10
0.039063
20
1.785526
30
0.0
11
0.094326
21
1.785526
31
0.0
0
LINE
8
FRONT_HID
6
HIDDEN
10
0.094326
20
1.785526
30
0.0
11
0.094326
21
1.725000
31
0.0
0
LINE
8
FRONT_HID
6
HIDDEN
10
0.039063
20
1.725000
30
0.0
11
0.039063
21
1.785526
31
0.0
0
LINE
8
FRONT_HID
6
HIDDEN
10
0.039063
20
1.725000
30
0.0
11
0.039063
21
1.785526
31
0.0
0
LINE
8
LEFT
10
1.865625
20
1.725000
30
0.0
11
1.699178
21
1.725000
31
0.0
0
LINE
8
LEFT
10
1.865625
20
1.785526
30
0.0
11
1.865625
21
1.725000
31
0.0
0
LINE
8
LEFT
10
1.699178
20
1.725000
30
0.0
11
1.699178
21
2.284868
31
0.0
0
LINE
8
LEFT
10
1.699178
20
2.284868
30
0.0
11
0.594572
21
2.284868
31
0.0
0
LINE
8
LEFT
10
0.594572
20
2.284868
30
0.0
11
0.594572
21
1.725000
31
0.0
0
LINE
8
LEFT
10
0.594572
20
1.725000
30
0.0
11
0.428125
21
1.725000
31
0.0
0
LINE
8
LEFT
10
0.428125
20
1.725000
30
0.0
11
0.428125
21
1.785526
31
0.0
0
LINE
8
LEFT
10
0.428125
20
1.785526
30
0.0
11
0.534046
21
1.785526
31
0.0
0
LINE
8
LEFT
10
0.534046
20
1.785526
30
0.0
11
0.534046
21
2.330263
31
0.0
0
LINE
8
LEFT
10
0.534046
20
2.330263
30
0.0
11
1.759704
21
2.330263
31
0.0
0
LINE
8
LEFT
10
1.759704
20
2.330263
30
0.0
11
1.759704
21
1.785526
31
0.0
0
LINE
8
LEFT
10
1.759704
20
1.785526
30
0.0
11
1.865625
21
1.785526
31
0.0
0
LINE
8
LEFT_HID
6
HIDDEN
10
1.810938
20
1.725000
30
0.0
11
1.783306
21
1.725000
31
0.0
0
LINE
8
LEFT_HID
6
HIDDEN
10
1.783306
20
1.725000
30
0.0
11
1.838569
21
1.725000
31
0.0
0
LINE
8
LEFT_HID
6
HIDDEN
10
1.838569
20
1.725000
30
0.0
11
1.810938
21
1.725000
31
0.0
0
LINE
8
LEFT_HID
6
HIDDEN
10
1.810938
20
1.785526
30
0.0
11
1.783306
21
1.785526
31
0.0
0
LINE
8
LEFT_HID
6
HIDDEN
10
1.783306
20
1.785526
30
0.0
11
1.838569
21
1.785526
31
0.0
0
LINE
8
LEFT_HID
6
HIDDEN
10
1.838569
20
1.785526
30
0.0
11
1.810938
21
1.785526
31
0.0
0
LINE
8
LEFT_HID
6
HIDDEN
10
0.482813
20
1.725000
30
0.0
11
0.455181
21
1.725000
31
0.0
0
LINE
8
LEFT_HID
6
HIDDEN
10
0.455181
20
1.725000
30
0.0
11
0.510444
21
1.725000
31
0.0
0
LINE
8
LEFT_HID
6
HIDDEN
10
0.510444
20
1.725000
30
0.0
11
0.482813
21
1.725000
31
0.0
0
LINE
8
LEFT_HID
6
HIDDEN
10
0.482813
20
1.785526
30
0.0
11
0.455181
21
1.785526
31
0.0
0
LINE
8
LEFT_HID
6
HIDDEN
10
0.455181
20
1.785526
30
0.0
11
0.510444
21
1.785526
31
0.0
0
LINE
8
LEFT_HID
6
HIDDEN
10
0.510444
20
1.785526
30
0.0
11
0.482813
21
1.785526
31
0.0
0
LINE
8
LEFT_HID
6
HIDDEN
10
1.838569
20
1.725000
30
0.0
11
1.838569
21
1.785526
31
0.0
0
LINE
8
LEFT_HID
6
HIDDEN
10
1.783306
20
1.725000
30
0.0
11
1.783306
21
1.785526
31
0.0
0
LINE
8
LEFT_HID
6
HIDDEN
10
0.510444
20
1.725000
30
0.0
11
0.510444
21
1.785526
31
0.0
0
LINE
8
LEFT_HID
6
HIDDEN
10
0.455181
20
1.725000
30
0.0
11
0.455181
21
1.785526
31
0.0
0
LINE
8
TOP
10
0.000000
20
0.000000
30
0.0
11
0.140625
21
0.000000
31
0.0
0
LINE
8
TOP
10
0.000000
20
1.437500
30
0.0
11
0.000000
21
1.331579
31
0.0
0
LINE
8
TOP
10
0.000000
20
1.331579
30
0.0
11
0.000000
21
0.105921
31
0.0
0
LINE
8
TOP
10
0.000000
20
0.105921
30
0.0
11
0.000000
21
0.000000
31
0.0
0
LINE
8
TOP
10
0.140625
20
1.437500
30
0.0
11
0.140625
21
1.331579
31
0.0
0
LINE
8
TOP
10
0.140625
20
1.331579
30
0.0
11
0.140625
21
0.105921
31
0.0
0
LINE
8
TOP
10
0.140625
20
0.105921
30
0.0
11
0.140625
21
0.000000
31
0.0
0
LINE
8
TOP
10
0.094326
20
0.054688
30
0.0
11
0.094188
21
0.057439
31
0.0
0
LINE
8
TOP
10
0.094188
20
0.057439
30
0.0
11
0.093778
21
0.060163
31
0.0
0
LINE
8
TOP
10
0.093778
20
0.060163
30
0.0
11
0.093098
21
0.062832
31
0.0
0
LINE
8
TOP
10
0.093098
20
0.062832
30
0.0
11
0.092156
21
0.065421
31
0.0
0
LINE
8
TOP
10
0.092156
20
0.065421
30
0.0
11
0.090961
21
0.067902
31
0.0
0
LINE
8
TOP
10
0.090961
20
0.067902
30
0.0
11
0.089524
21
0.070253
31
0.0
0
LINE
8
TOP
10
0.089524
20
0.070253
30
0.0
11
0.087861
21
0.072449
31
0.0
0
LINE
8
TOP
10
0.087861
20
0.072449
30
0.0
11
0.085987
21
0.074468
31
0.0
0
LINE
8
TOP
10
0.085987
20
0.074468
30
0.0
11
0.083922
21
0.076291
31
0.0
0
LINE
8
TOP
10
0.083922
20
0.076291
30
0.0
11
0.081685
21
0.077899
31
0.0
0
LINE
8
TOP
10
0.081685
20
0.077899
30
0.0
11
0.079300
21
0.079276
31
0.0
0
LINE
8
TOP
10
0.079300
20
0.079276
30
0.0
11
0.076789
21
0.080409
31
0.0
0
LINE
8
TOP
10
0.076789
20
0.080409
30
0.0
11
0.074178
21
0.081286
31
0.0
0
LINE
8
TOP
10
0.074178
20
0.081286
30
0.0
11
0.071492
21
0.081899
31
0.0
0
LINE
8
TOP
10
0.071492
20
0.081899
30
0.0
11
0.068759
21
0.082242
31
0.0
0
LINE
8
TOP
10
0.068759
20
0.082242
30
0.0
11
0.066005
21
0.082310
31
0.0
0
LINE
8
TOP
10
0.066005
20
0.082310
30
0.0
11
0.063258
21
0.082105
31
0.0
0
LINE
8
TOP
10
0.063258
20
0.082105
30
0.0
11
0.060545
21
0.081626
31
0.0
0
LINE
8
TOP
10
0.060545
20
0.081626
30
0.0
11
0.057894
21
0.080880
31
0.0
0
LINE
8
TOP
10
0.057894
20
0.080880
30
0.0
11
0.055330
21
0.079874
31
0.0
0
LINE
8
TOP
10
0.055330
20
0.079874
30
0.0
11
0.052878
21
0.078617
31
0.0
0
LINE
8
TOP
10
0.052878
20
0.078617
30
0.0
11
0.050564
21
0.077123
31
0.0
0
LINE
8
TOP
10
0.050564
20
0.077123
30
0.0
11
0.048411
21
0.075405
31
0.0
0
LINE
8
TOP
10
0.048411
20
0.075405
30
0.0
11
0.046439
21
0.073482
31
0.0
0
LINE
8
TOP
10
0.046439
20
0.073482
30
0.0
11
0.044668
21
0.071372
31
0.0
0
LINE
8
TOP
10
0.044668
20
0.071372
30
0.0
11
0.043116
21
0.069096
31
0.0
0
LINE
8
TOP
10
0.043116
20
0.069096
30
0.0
11
0.041799
21
0.066676
31
0.0
0
LINE
8
TOP
10
0.041799
20
0.066676
30
0.0
11
0.040729
21
0.064138
31
0.0
0
LINE
8
TOP
10
0.040729
20
0.064138
30
0.0
11
0.039917
21
0.061506
31
0.0
0
LINE
8
TOP
10
0.039917
20
0.061506
30
0.0
11
0.039371
21
0.058806
31
0.0
0
LINE
8
TOP
10
0.039371
20
0.058806
30
0.0
11
0.039097
21
0.056065
31
0.0
0
LINE
8
TOP
10
0.039097
20
0.056065
30
0.0
11
0.039097
21
0.053310
31
0.0
0
LINE
8
TOP
10
0.039097
20
0.053310
30
0.0
11
0.039371
21
0.050569
31
0.0
0
LINE
8
TOP
10
0.039371
20
0.050569
30
0.0
11
0.039917
21
0.047869
31
0.0
0
LINE
8
TOP
10
0.039917
20
0.047869
30
0.0
11
0.040729
21
0.045237
31
0.0
0
LINE
8
TOP
10
0.040729
20
0.045237
30
0.0
11
0.041799
21
0.042699
31
0.0
0
LINE
8
TOP
10
0.041799
20
0.042699
30
0.0
11
0.043116
21
0.040279
31
0.0
0
LINE
8
TOP
10
0.043116
20
0.040279
30
0.0
11
0.044668
21
0.038003
31
0.0
0
LINE
8
TOP
10
0.044668
20
0.038003
30
0.0
11
0.046439
21
0.035893
31
0.0
0
LINE
8
TOP
10
0.046439
20
0.035893
30
0.0
11
0.048411
21
0.033970
31
0.0
0
LINE
8
TOP
10
0.048411
20
0.033970
30
0.0
11
0.050564
21
0.032252
31
0.0
0
LINE
8
TOP
10
0.050564
20
0.032252
30
0.0
11
0.052878
21
0.030758
31
0.0
0
LINE
8
TOP
10
0.052878
20
0.030758
30
0.0
11
0.055330
21
0.029501
31
0.0
0
LINE
8
TOP
10
0.055330
20
0.029501
30
0.0
11
0.057894
21
0.028495
31
0.0
0
LINE
8
TOP
10
0.057894
20
0.028495
30
0.0
11
0.060545
21
0.027749
31
0.0
0
LINE
8
TOP
10
0.060545
20
0.027749
30
0.0
11
0.063258
21
0.027270
31
0.0
0
LINE
8
TOP
10
0.063258
20
0.027270
30
0.0
11
0.066005
21
0.027065
31
0.0
0
LINE
8
TOP
10
0.066005
20
0.027065
30
0.0
11
0.068759
21
0.027133
31
0.0
0
LINE
8
TOP
10
0.068759
20
0.027133
30
0.0
11
0.071492
21
0.027476
31
0.0
0
LINE
8
TOP
10
0.071492
20
0.027476
30
0.0
11
0.074178
21
0.028089
31
0.0
0
LINE
8
TOP
10
0.074178
20
0.028089
30
0.0
11
0.076789
21
0.028966
31
0.0
0
LINE
8
TOP
10
0.076789
20
0.028966
30
0.0
11
0.079300
21
0.030099
31
0.0
0
LINE
8
TOP
10
0.079300
20
0.030099
30
0.0
11
0.081685
21
0.031476
31
0.0
0
LINE
8
TOP
10
0.081685
20
0.031476
30
0.0
11
0.083922
21
0.033084
31
0.0
0
LINE
8
TOP
10
0.083922
20
0.033084
30
0.0
11
0.085987
21
0.034907
31
0.0
0
LINE
8
TOP
10
0.085987
20
0.034907
30
0.0
11
0.087861
21
0.036926
31
0.0
0
LINE
8
TOP
10
0.087861
20
0.036926
30
0.0
11
0.089524
21
0.039122
31
0.0
0
LINE
8
TOP
10
0.089524
20
0.039122
30
0.0
11
0.090961
21
0.041473
31
0.0
0
LINE
8
TOP
10
0.090961
20
0.041473
30
0.0
11
0.092156
21
0.043954
31
0.0
0
LINE
8
TOP
10
0.092156
20
0.043954
30
0.0
11
0.093098
21
0.046543
31
0.0
0
LINE
8
TOP
10
0.093098
20
0.046543
30
0.0
11
0.093778
21
0.049212
31
0.0
0
LINE
8
TOP
10
0.093778
20
0.049212
30
0.0
11
0.094188
21
0.051936
31
0.0
0
LINE
8
TOP
10
0.094188
20
0.051936
30
0.0
11
0.094326
21
0.054688
31
0.0
0
LINE
8
TOP
10
0.000000
20
1.437500
30
0.0
11
0.140625
21
1.437500
31
0.0
0
LINE
8
TOP
10
0.094326
20
1.382812
30
0.0
11
0.094188
21
1.385564
31
0.0
0
LINE
8
TOP
10
0.094188
20
1.385564
30
0.0
11
0.093778
21
1.388288
31
0.0
0
LINE
8
TOP
10
0.093778
20
1.388288
30
0.0
11
0.093098
21
1.390957
31
0.0
0
LINE
8
TOP
10
0.093098
20
1.390957
30
0.0
11
0.092156
21
1.393546
31
0.0
0
LINE
8
TOP
10
0.092156
20
1.393546
30
0.0
11
0.090961
21
1.396027
31
0.0
0
LINE
8
TOP
10
0.090961
20
1.396027
30
0.0
11
0.089524
21
1.398378
31
0.0
0
LINE
8
TOP
10
0.089524
20
1.398378
30
0.0
11
0.087861
21
1.400574
31
0.0
0
LINE
8
TOP
10
0.087861
20
1.400574
30
0.0
11
0.085987
21
1.402593
31
0.0
0
LINE
8
TOP
10
0.085987
20
1.402593
30
0.0
11
0.083922
21
1.404416
31
0.0
0
LINE
8
TOP
10
0.083922
20
1.404416
30
0.0
11
0.081685
21
1.406024
31
0.0
0
LINE
8
TOP
10
0.081685
20
1.406024
30
0.0
11
0.079300
21
1.407401
31
0.0
0
LINE
8
TOP
10
0.079300
20
1.407401
30
0.0
11
0.076789
21
1.408534
31
0.0
0
LINE
8
TOP
10
0.076789
20
1.408534
30
0.0
11
0.074178
21
1.409411
31
0.0
0
LINE
8
TOP
10
0.074178
20
1.409411
30
0.0
11
0.071492
21
1.410024
31
0.0
0
LINE
8
TOP
10
0.071492
20
1.410024
30
0.0
11
0.068759
21
1.410367
31
0.0
0
LINE
8
TOP
10
0.068759
20
1.410367
30
0.0
11
0.066005
21
1.410435
31
0.0
0
LINE
8
TOP
10
0.066005
20
1.410435
30
0.0
11
0.063258
21
1.410230
31
0.0
0
LINE
8
TOP
10
0.063258
20
1.410230
30
0.0
11
0.060545
21
1.409751
31
0.0
0
LINE
8
TOP
10
0.060545
20
1.409751
30
0.0
11
0.057894
21
1.409005
31
0.0
0
LINE
8
TOP
10
0.057894
20
1.409005
30
0.0
11
0.055330
21
1.407999
31
0.0
0
LINE
8
TOP
10
0.055330
20
1.407999
30
0.0
11
0.052878
21
1.406742
31
0.0
0
LINE
8
TOP
10
0.052878
20
1.406742
30
0.0
11
0.050564
21
1.405248
31
0.0
0
LINE
8
TOP
10
0.050564
20
1.405248
30
0.0
11
0.048411
21
1.403530
31
0.0
0
LINE
8
TOP
10
0.048411
20
1.403530
30
0.0
11
0.046439
21
1.401607
31
0.0
0
LINE
8
TOP
10
0.046439
20
1.401607
30
0.0
11
0.044668
21
1.399497
31
0.0
0
LINE
8
TOP
10
0.044668
20
1.399497
30
0.0
11
0.043116
21
1.397221
31
0.0
0
LINE
8
TOP
10
0.043116
20
1.397221
30
0.0
11
0.041799
21
1.394801
31
0.0
0
LINE
8
TOP
10
0.041799
20
1.394801
30
0.0
11
0.040729
21
1.392263
31
0.0
0
LINE
8
TOP
10
0.040729
20
1.392263
30
0.0
11
0.039917
21
1.389631
31
0.0
0
LINE
8
TOP
10
0.039917
20
1.389631
30
0.0
11
0.039371
21
1.386931
31
0.0
0
LINE
8
TOP
10
0.039371
20
1.386931
30
0.0
11
0.039097
21
1.384190
31
0.0
0
LINE
8
TOP
10
0.039097
20
1.384190
30
0.0
11
0.039097
21
1.381435
31
0.0
0
LINE
8
TOP
10
0.039097
20
1.381435
30
0.0
11
0.039371
21
1.378694
31
0.0
0
LINE
8
TOP
10
0.039371
20
1.378694
30
0.0
11
0.039917
21
1.375994
31
0.0
0
LINE
8
TOP
10
0.039917
20
1.375994
30
0.0
11
0.040729
21
1.373362
31
0.0
0
LINE
8
TOP
10
0.040729
20
1.373362
30
0.0
11
0.041799
21
1.370824
31
0.0
0
LINE
8
TOP
10
0.041799
20
1.370824
30
0.0
11
0.043116
21
1.368404
31
0.0
0
LINE
8
TOP
10
0.043116
20
1.368404
30
0.0
11
0.044668
21
1.366128
31
0.0
0
LINE
8
TOP
10
0.044668
20
1.366128
30
0.0
11
0.046439
21
1.364018
31
0.0
0
LINE
8
TOP
10
0.046439
20
1.364018
30
0.0
11
0.048411
21
1.362095
31
0.0
0
LINE
8
TOP
10
0.048411
20
1.362095
30
0.0
11
0.050564
21
1.360377
31
0.0
0
LINE
8
TOP
10
0.050564
20
1.360377
30
0.0
11
0.052878
21
1.358883
31
0.0
0
LINE
8
TOP
10
0.052878
20
1.358883
30
0.0
11
0.055330
21
1.357626
31
0.0
0
LINE
8
TOP
10
0.055330
20
1.357626
30
0.0
11
0.057894
21
1.356620
31
0.0
0
LINE
8
TOP
10
0.057894
20
1.356620
30
0.0
11
0.060545
21
1.355874
31
0.0
0
LINE
8
TOP
10
0.060545
20
1.355874
30
0.0
11
0.063258
21
1.355395
31
0.0
0
LINE
8
TOP
10
0.063258
20
1.355395
30
0.0
11
0.066005
21
1.355190
31
0.0
0
LINE
8
TOP
10
0.066005
20
1.355190
30
0.0
11
0.068759
21
1.355258
31
0.0
0
LINE
8
TOP
10
0.068759
20
1.355258
30
0.0
11
0.071492
21
1.355601
31
0.0
0
LINE
8
TOP
10
0.071492
20
1.355601
30
0.0
11
0.074178
21
1.356214
31
0.0
0
LINE
8
TOP
10
0.074178
20
1.356214
30
0.0
11
0.076789
21
1.357091
31
0.0
0
LINE
8
TOP
10
0.076789
20
1.357091
30
0.0
11
0.079300
21
1.358224
31
0.0
0
LINE
8
TOP
10
0.079300
20
1.358224
30
0.0
11
0.081685
21
1.359601
31
0.0
0
LINE
8
TOP
10
0.081685
20
1.359601
30
0.0
11
0.083922
21
1.361209
31
0.0
0
LINE
8
TOP
10
0.083922
20
1.361209
30
0.0
11
0.085987
21
1.363032
31
0.0
0
LINE
8
TOP
10
0.085987
20
1.363032
30
0.0
11
0.087861
21
1.365051
31
0.0
0
LINE
8
TOP
10
0.087861
20
1.365051
30
0.0
11
0.089524
21
1.367247
31
0.0
0
LINE
8
TOP
10
0.089524
20
1.367247
30
0.0
11
0.090961
21
1.369598
31
0.0
0
LINE
8
TOP
10
0.090961
20
1.369598
30
0.0
11
0.092156
21
1.372079
31
0.0
0
LINE
8
TOP
10
0.092156
20
1.372079
30
0.0
11
0.093098
21
1.374668
31
0.0
0
LINE
8
TOP
10
0.093098
20
1.374668
30
0.0
11
0.093778
21
1.377337
31
0.0
0
LINE
8
TOP
10
0.093778
20
1.377337
30
0.0
11
0.094188
21
1.380061
31
0.0
0
LINE
8
TOP
10
0.094188
20
1.380061
30
0.0
11
0.094326
21
1.382812
31
0.0
0
LINE
8
TOP
10
0.000000
20
1.331579
30
0.0
11
0.140625
21
1.331579
31
0.0
0
LINE
8
TOP
10
0.000000
20
0.105921
30
0.0
11
0.140625
21
0.105921
31
0.0
0
LINE
8
TOP_HID
6
HIDDEN
10
0.140625
20
0.000000
30
0.0
11
0.140625
21
0.166447
31
0.0
0
LINE
8
TOP_HID
6
HIDDEN
10
0.000000
20
0.166447
30
0.0
11
0.140625
21
0.166447
31
0.0
0
LINE
8
TOP_HID
6
HIDDEN
10
0.000000
20
0.000000
30
0.0
11
0.000000
21
0.166447
31
0.0
0
LINE
8
TOP_HID
6
HIDDEN
10
0.000000
20
0.166447
30
0.0
11
0.000000
21
1.271053
31
0.0
0
LINE
8
TOP_HID
6
HIDDEN
10
0.000000
20
1.271053
30
0.0
11
0.000000
21
1.437500
31
0.0
0
LINE
8
TOP_HID
6
HIDDEN
10
0.140625
20
0.166447
30
0.0
11
0.140625
21
1.271053
31
0.0
0
LINE
8
TOP_HID
6
HIDDEN
10
0.140625
20
1.271053
30
0.0
11
0.140625
21
1.437500
31
0.0
0
LINE
8
TOP_HID
6
HIDDEN
10
0.000000
20
0.166447
30
0.0
11
0.140625
21
0.166447
31
0.0
0
LINE
8
TOP_HID
6
HIDDEN
10
0.000000
20
1.271053
30
0.0
11
0.140625
21
1.271053
31
0.0
0
LINE
8
TOP_HID
6
HIDDEN
10
0.000000
20
1.271053
30
0.0
11
0.140625
21
1.271053
31
0.0
0
ENDSEC
0
EOF
