0
SECTION
2
HEADER
9
$ACADVER
1
AC1009
0
ENDSEC
0
SECTION
2
TABLES
0
TABLE
2
LTYPE
70
3
0
LTYPE
2
CONTINUOUS
70
0
3
Solid line
72
65
73
0
40
0.0
0
LTYPE
2
HIDDEN
70
0
3
__ __ __ __ __
72
65
73
2
40
0.037500
49
0.025013
49
-0.012488
0
LTYPE
2
CENTER
70
0
3
___ _ ___ _ ___
72
65
73
4
40
0.087488
49
0.049988
49
-0.012488
49
0.012488
49
-0.012488
0
ENDTAB
0
TABLE
2
LAYER
70
6
0
LAYER
2
0
70
0
62
7
6
CONTINUOUS
0
LAYER
2
FRONT
70
0
62
7
6
CONTINUOUS
0
LAYER
2
FRONT_HID
70
0
62
7
6
HIDDEN
0
LAYER
2
LEFT
70
0
62
7
6
CONTINUOUS
0
LAYER
2
LEFT_HID
70
0
62
7
6
HIDDEN
0
LAYER
2
TOP
70
0
62
7
6
CONTINUOUS
0
ENDTAB
0
ENDSEC
0
SECTION
2
ENTITIES
0
LINE
8
FRONT
10
0.750000
20
0.900000
30
0.0
11
0.750000
21
0.923438
31
0.0
0
LINE
8
FRONT
10
0.750000
20
0.923438
30
0.0
11
0.742105
21
0.923438
31
0.0
0
LINE
8
FRONT
10
0.742105
20
0.923438
30
0.0
11
0.007895
21
0.923438
31
0.0
0
LINE
8
FRONT
10
0.007895
20
0.923438
30
0.0
11
0.000000
21
0.923438
31
0.0
0
LINE
8
FRONT
10
0.000000
20
0.900000
30
0.0
11
0.000000
21
0.923438
31
0.0
0
LINE
8
FRONT
10
0.750000
20
0.900000
30
0.0
11
0.742105
21
0.900000
31
0.0
0
LINE
8
FRONT
10
0.742105
20
0.900000
30
0.0
11
0.007895
21
0.900000
31
0.0
0
LINE
8
FRONT
10
0.007895
20
0.900000
30
0.0
11
0.000000
21
0.900000
31
0.0
0
LINE
8
FRONT_HID
6
HIDDEN
10
0.007895
20
0.900000
30
0.0
11
0.015789
21
0.900000
31
0.0
0
LINE
8
FRONT_HID
6
HIDDEN
10
0.015789
20
0.900000
30
0.0
11
0.000000
21
0.900000
31
0.0
0
LINE
8
FRONT_HID
6
HIDDEN
10
0.015789
20
0.900000
30
0.0
11
0.015789
21
0.923438
31
0.0
0
LINE
8
FRONT_HID
6
HIDDEN
10
0.007895
20
0.923438
30
0.0
11
0.015789
21
0.923438
31
0.0
0
LINE
8
FRONT_HID
6
HIDDEN
10
0.015789
20
0.923438
30
0.0
11
0.000000
21
0.923438
31
0.0
0
LINE
8
FRONT_HID
6
HIDDEN
10
0.000000
20
0.900000
30
0.0
11
0.015789
21
0.900000
31
0.0
0
LINE
8
FRONT_HID
6
HIDDEN
10
0.015789
20
0.900000
30
0.0
11
0.007895
21
0.900000
31
0.0
0
LINE
8
FRONT_HID
6
HIDDEN
10
0.015789
20
0.900000
30
0.0
11
0.015789
21
0.923438
31
0.0
0
LINE
8
FRONT_HID
6
HIDDEN
10
0.000000
20
0.923438
30
0.0
11
0.015789
21
0.923438
31
0.0
0
LINE
8
FRONT_HID
6
HIDDEN
10
0.015789
20
0.923438
30
0.0
11
0.007895
21
0.923438
31
0.0
0
LINE
8
FRONT_HID
6
HIDDEN
10
0.750000
20
0.900000
30
0.0
11
0.734211
21
0.900000
31
0.0
0
LINE
8
FRONT_HID
6
HIDDEN
10
0.734211
20
0.900000
30
0.0
11
0.742105
21
0.900000
31
0.0
0
LINE
8
FRONT_HID
6
HIDDEN
10
0.750000
20
0.923438
30
0.0
11
0.734211
21
0.923438
31
0.0
0
LINE
8
FRONT_HID
6
HIDDEN
10
0.734211
20
0.923438
30
0.0
11
0.742105
21
0.923438
31
0.0
0
LINE
8
FRONT_HID
6
HIDDEN
10
0.742105
20
0.900000
30
0.0
11
0.734211
21
0.900000
31
0.0
0
LINE
8
FRONT_HID
6
HIDDEN
10
0.734211
20
0.900000
30
0.0
11
0.750000
21
0.900000
31
0.0
0
LINE
8
FRONT_HID
6
HIDDEN
10
0.742105
20
0.923438
30
0.0
11
0.734211
21
0.923438
31
0.0
0
LINE
8
FRONT_HID
6
HIDDEN
10
0.734211
20
0.923438
30
0.0
11
0.750000
21
0.923438
31
0.0
0
LINE
8
FRONT_HID
6
HIDDEN
10
0.734211
20
0.923438
30
0.0
11
0.734211
21
0.900000
31
0.0
0
LINE
8
FRONT_HID
6
HIDDEN
10
0.734211
20
0.923438
30
0.0
11
0.734211
21
0.900000
31
0.0
0
LINE
8
LEFT
10
1.650000
20
0.900000
30
0.0
11
1.650000
21
0.923438
31
0.0
0
LINE
8
LEFT
10
0.900000
20
0.900000
30
0.0
11
0.900000
21
0.923438
31
0.0
0
LINE
8
LEFT
10
0.900000
20
0.923438
30
0.0
11
0.907895
21
0.923438
31
0.0
0
LINE
8
LEFT
10
0.907895
20
0.923438
30
0.0
11
1.642105
21
0.923438
31
0.0
0
LINE
8
LEFT
10
1.642105
20
0.923438
30
0.0
11
1.650000
21
0.923438
31
0.0
0
LINE
8
LEFT
10
0.900000
20
0.900000
30
0.0
11
0.907895
21
0.900000
31
0.0
0
LINE
8
LEFT
10
0.907895
20
0.900000
30
0.0
11
1.642105
21
0.900000
31
0.0
0
LINE
8
LEFT
10
1.642105
20
0.900000
30
0.0
11
1.650000
21
0.900000
31
0.0
0
LINE
8
LEFT_HID
6
HIDDEN
10
1.642105
20
0.900000
30
0.0
11
1.634211
21
0.900000
31
0.0
0
LINE
8
LEFT_HID
6
HIDDEN
10
1.634211
20
0.900000
30
0.0
11
1.642105
21
0.900000
31
0.0
0
LINE
8
LEFT_HID
6
HIDDEN
10
1.642105
20
0.923438
30
0.0
11
1.634211
21
0.923438
31
0.0
0
LINE
8
LEFT_HID
6
HIDDEN
10
1.634211
20
0.923438
30
0.0
11
1.642105
21
0.923438
31
0.0
0
LINE
8
LEFT_HID
6
HIDDEN
10
0.907895
20
0.900000
30
0.0
11
0.915789
21
0.900000
31
0.0
0
LINE
8
LEFT_HID
6
HIDDEN
10
0.915789
20
0.900000
30
0.0
11
0.907895
21
0.900000
31
0.0
0
LINE
8
LEFT_HID
6
HIDDEN
10
0.907895
20
0.923438
30
0.0
11
0.915789
21
0.923438
31
0.0
0
LINE
8
LEFT_HID
6
HIDDEN
10
0.915789
20
0.923438
30
0.0
11
0.907895
21
0.923438
31
0.0
0
LINE
8
LEFT_HID
6
HIDDEN
10
1.642105
20
0.900000
30
0.0
11
1.634211
21
0.900000
31
0.0
0
LINE
8
LEFT_HID
6
HIDDEN
10
1.634211
20
0.900000
30
0.0
11
1.650000
21
0.900000
31
0.0
0
LINE
8
LEFT_HID
6
HIDDEN
10
1.642105
20
0.923438
30
0.0
11
1.634211
21
0.923438
31
0.0
0
LINE
8
LEFT_HID
6
HIDDEN
10
1.634211
20
0.923438
30
0.0
11
1.650000
21
0.923438
31
0.0
0
LINE
8
LEFT_HID
6
HIDDEN
10
0.900000
20
0.900000
30
0.0
11
0.915789
21
0.900000
31
0.0
0
LINE
8
LEFT_HID
6
HIDDEN
10
0.915789
20
0.900000
30
0.0
11
0.907895
21
0.900000
31
0.0
0
LINE
8
LEFT_HID
6
HIDDEN
10
0.900000
20
0.923438
30
0.0
11
0.915789
21
0.923438
31
0.0
0
LINE
8
LEFT_HID
6
HIDDEN
10
0.915789
20
0.923438
30
0.0
11
0.907895
21
0.923438
31
0.0
0
LINE
8
LEFT_HID
6
HIDDEN
10
1.634211
20
0.923438
30
0.0
11
1.634211
21
0.900000
31
0.0
0
LINE
8
LEFT_HID
6
HIDDEN
10
0.915789
20
0.923438
30
0.0
11
0.915789
21
0.900000
31
0.0
0
LINE
8
LEFT_HID
6
HIDDEN
10
1.634211
20
0.923438
30
0.0
11
1.634211
21
0.900000
31
0.0
0
LINE
8
LEFT_HID
6
HIDDEN
10
0.915789
20
0.923438
30
0.0
11
0.915789
21
0.900000
31
0.0
0
LINE
8
TOP
10
0.000000
20
0.000000
30
0.0
11
0.007895
21
0.000000
31
0.0
0
LINE
8
TOP
10
0.007895
20
0.000000
30
0.0
11
0.742105
21
0.000000
31
0.0
0
LINE
8
TOP
10
0.742105
20
0.000000
30
0.0
11
0.750000
21
0.000000
31
0.0
0
LINE
8
TOP
10
0.750000
20
0.000000
30
0.0
11
0.750000
21
0.007895
31
0.0
0
LINE
8
TOP
10
0.750000
20
0.007895
30
0.0
11
0.750000
21
0.742105
31
0.0
0
LINE
8
TOP
10
0.750000
20
0.742105
30
0.0
11
0.750000
21
0.750000
31
0.0
0
LINE
8
TOP
10
0.750000
20
0.750000
30
0.0
11
0.742105
21
0.750000
31
0.0
0
LINE
8
TOP
10
0.742105
20
0.750000
30
0.0
11
0.007895
21
0.750000
31
0.0
0
LINE
8
TOP
10
0.007895
20
0.750000
30
0.0
11
0.000000
21
0.750000
31
0.0
0
LINE
8
TOP
10
0.000000
20
0.750000
30
0.0
11
0.000000
21
0.742105
31
0.0
0
LINE
8
TOP
10
0.000000
20
0.742105
30
0.0
11
0.000000
21
0.007895
31
0.0
0
LINE
8
TOP
10
0.000000
20
0.007895
30
0.0
11
0.000000
21
0.000000
31
0.0
0
LINE
8
TOP
10
0.007895
20
0.000000
30
0.0
11
0.008092
21
0.000002
31
0.0
0
LINE
8
TOP
10
0.008092
20
0.000002
30
0.0
11
0.008288
21
0.000010
31
0.0
0
LINE
8
TOP
10
0.008288
20
0.000010
30
0.0
11
0.008485
21
0.000022
31
0.0
0
LINE
8
TOP
10
0.008485
20
0.000022
30
0.0
11
0.008681
21
0.000039
31
0.0
0
LINE
8
TOP
10
0.008681
20
0.000039
30
0.0
11
0.008876
21
0.000061
31
0.0
0
LINE
8
TOP
10
0.008876
20
0.000061
30
0.0
11
0.009071
21
0.000088
31
0.0
0
LINE
8
TOP
10
0.009071
20
0.000088
30
0.0
11
0.009266
21
0.000120
31
0.0
0
LINE
8
TOP
10
0.009266
20
0.000120
30
0.0
11
0.009459
21
0.000157
31
0.0
0
LINE
8
TOP
10
0.009459
20
0.000157
30
0.0
11
0.009651
21
0.000198
31
0.0
0
LINE
8
TOP
10
0.009651
20
0.000198
30
0.0
11
0.009843
21
0.000244
31
0.0
0
LINE
8
TOP
10
0.009843
20
0.000244
30
0.0
11
0.010033
21
0.000295
31
0.0
0
LINE
8
TOP
10
0.010033
20
0.000295
30
0.0
11
0.010222
21
0.000351
31
0.0
0
LINE
8
TOP
10
0.010222
20
0.000351
30
0.0
11
0.010409
21
0.000411
31
0.0
0
LINE
8
TOP
10
0.010409
20
0.000411
30
0.0
11
0.010595
21
0.000476
31
0.0
0
LINE
8
TOP
10
0.010595
20
0.000476
30
0.0
11
0.010779
21
0.000546
31
0.0
0
LINE
8
TOP
10
0.010779
20
0.000546
30
0.0
11
0.010961
21
0.000620
31
0.0
0
LINE
8
TOP
10
0.010961
20
0.000620
30
0.0
11
0.011142
21
0.000699
31
0.0
0
LINE
8
TOP
10
0.011142
20
0.000699
30
0.0
11
0.011320
21
0.000782
31
0.0
0
LINE
8
TOP
10
0.011320
20
0.000782
30
0.0
11
0.011496
21
0.000869
31
0.0
0
LINE
8
TOP
10
0.011496
20
0.000869
30
0.0
11
0.011670
21
0.000961
31
0.0
0
LINE
8
TOP
10
0.011670
20
0.000961
30
0.0
11
0.011842
21
0.001058
31
0.0
0
LINE
8
TOP
10
0.011842
20
0.001058
30
0.0
11
0.012011
21
0.001158
31
0.0
0
LINE
8
TOP
10
0.012011
20
0.001158
30
0.0
11
0.012178
21
0.001263
31
0.0
0
LINE
8
TOP
10
0.012178
20
0.001263
30
0.0
11
0.012342
21
0.001372
31
0.0
0
LINE
8
TOP
10
0.012342
20
0.001372
30
0.0
11
0.012503
21
0.001485
31
0.0
0
LINE
8
TOP
10
0.012503
20
0.001485
30
0.0
11
0.012662
21
0.001602
31
0.0
0
LINE
8
TOP
10
0.012662
20
0.001602
30
0.0
11
0.012817
21
0.001722
31
0.0
0
LINE
8
TOP
10
0.012817
20
0.001722
30
0.0
11
0.012969
21
0.001847
31
0.0
0
LINE
8
TOP
10
0.012969
20
0.001847
30
0.0
11
0.013119
21
0.001975
31
0.0
0
LINE
8
TOP
10
0.013119
20
0.001975
30
0.0
11
0.013265
21
0.002107
31
0.0
0
LINE
8
TOP
10
0.013265
20
0.002107
30
0.0
11
0.013407
21
0.002243
31
0.0
0
LINE
8
TOP
10
0.013407
20
0.002243
30
0.0
11
0.013546
21
0.002382
31
0.0
0
LINE
8
TOP
10
0.013546
20
0.002382
30
0.0
11
0.013682
21
0.002525
31
0.0
0
LINE
8
TOP
10
0.013682
20
0.002525
30
0.0
11
0.013814
21
0.002671
31
0.0
0
LINE
8
TOP
10
0.013814
20
0.002671
30
0.0
11
0.013942
21
0.002820
31
0.0
0
LINE
8
TOP
10
0.013942
20
0.002820
30
0.0
11
0.014067
21
0.002972
31
0.0
0
LINE
8
TOP
10
0.014067
20
0.002972
30
0.0
11
0.014188
21
0.003128
31
0.0
0
LINE
8
TOP
10
0.014188
20
0.003128
30
0.0
11
0.014305
21
0.003286
31
0.0
0
LINE
8
TOP
10
0.014305
20
0.003286
30
0.0
11
0.014418
21
0.003447
31
0.0
0
LINE
8
TOP
10
0.014418
20
0.003447
30
0.0
11
0.014527
21
0.003611
31
0.0
0
LINE
8
TOP
10
0.014527
20
0.003611
30
0.0
11
0.014631
21
0.003778
31
0.0
0
LINE
8
TOP
10
0.014631
20
0.003778
30
0.0
11
0.014732
21
0.003947
31
0.0
0
LINE
8
TOP
10
0.014732
20
0.003947
30
0.0
11
0.014828
21
0.004119
31
0.0
0
LINE
8
TOP
10
0.014828
20
0.004119
30
0.0
11
0.014920
21
0.004293
31
0.0
0
LINE
8
TOP
10
0.014920
20
0.004293
30
0.0
11
0.015008
21
0.004469
31
0.0
0
LINE
8
TOP
10
0.015008
20
0.004469
30
0.0
11
0.015091
21
0.004648
31
0.0
0
LINE
8
TOP
10
0.015091
20
0.004648
30
0.0
11
0.015170
21
0.004828
31
0.0
0
LINE
8
TOP
10
0.015170
20
0.004828
30
0.0
11
0.015244
21
0.005010
31
0.0
0
LINE
8
TOP
10
0.015244
20
0.005010
30
0.0
11
0.015313
21
0.005195
31
0.0
0
LINE
8
TOP
10
0.015313
20
0.005195
30
0.0
11
0.015378
21
0.005380
31
0.0
0
LINE
8
TOP
10
0.015378
20
0.005380
30
0.0
11
0.015439
21
0.005568
31
0.0
0
LINE
8
TOP
10
0.015439
20
0.005568
30
0.0
11
0.015494
21
0.005757
31
0.0
0
LINE
8
TOP
10
0.015494
20
0.005757
30
0.0
11
0.015545
21
0.005947
31
0.0
0
LINE
8
TOP
10
0.015545
20
0.005947
30
0.0
11
0.015592
21
0.006138
31
0.0
0
LINE
8
TOP
10
0.015592
20
0.006138
30
0.0
11
0.015633
21
0.006330
31
0.0
0
LINE
8
TOP
10
0.015633
20
0.006330
30
0.0
11
0.015670
21
0.006524
31
0.0
0
LINE
8
TOP
10
0.015670
20
0.006524
30
0.0
11
0.015701
21
0.006718
31
0.0
0
LINE
8
TOP
10
0.015701
20
0.006718
30
0.0
11
0.015728
21
0.006913
31
0.0
0
LINE
8
TOP
10
0.015728
20
0.006913
30
0.0
11
0.015750
21
0.007109
31
0.0
0
LINE
8
TOP
10
0.015750
20
0.007109
30
0.0
11
0.015767
21
0.007305
31
0.0
0
LINE
8
TOP
10
0.015767
20
0.007305
30
0.0
11
0.015780
21
0.007501
31
0.0
0
LINE
8
TOP
10
0.015780
20
0.007501
30
0.0
11
0.015787
21
0.007698
31
0.0
0
LINE
8
TOP
10
0.015787
20
0.007698
30
0.0
11
0.015789
21
0.007895
31
0.0
0
LINE
8
TOP
10
0.000000
20
0.007895
30
0.0
11
0.000002
21
0.007698
31
0.0
0
LINE
8
TOP
10
0.000002
20
0.007698
30
0.0
11
0.000010
21
0.007501
31
0.0
0
LINE
8
TOP
10
0.000010
20
0.007501
30
0.0
11
0.000022
21
0.007305
31
0.0
0
LINE
8
TOP
10
0.000022
20
0.007305
30
0.0
11
0.000039
21
0.007109
31
0.0
0
LINE
8
TOP
10
0.000039
20
0.007109
30
0.0
11
0.000061
21
0.006913
31
0.0
0
LINE
8
TOP
10
0.000061
20
0.006913
30
0.0
11
0.000088
21
0.006718
31
0.0
0
LINE
8
TOP
10
0.000088
20
0.006718
30
0.0
11
0.000120
21
0.006524
31
0.0
0
LINE
8
TOP
10
0.000120
20
0.006524
30
0.0
11
0.000157
21
0.006330
31
0.0
0
LINE
8
TOP
10
0.000157
20
0.006330
30
0.0
11
0.000198
21
0.006138
31
0.0
0
LINE
8
TOP
10
0.000198
20
0.006138
30
0.0
11
0.000244
21
0.005947
31
0.0
0
LINE
8
TOP
10
0.000244
20
0.005947
30
0.0
11
0.000295
21
0.005757
31
0.0
0
LINE
8
TOP
10
0.000295
20
0.005757
30
0.0
11
0.000351
21
0.005568
31
0.0
0
LINE
8
TOP
10
0.000351
20
0.005568
30
0.0
11
0.000411
21
0.005380
31
0.0
0
LINE
8
TOP
10
0.000411
20
0.005380
30
0.0
11
0.000476
21
0.005195
31
0.0
0
LINE
8
TOP
10
0.000476
20
0.005195
30
0.0
11
0.000546
21
0.005010
31
0.0
0
LINE
8
TOP
10
0.000546
20
0.005010
30
0.0
11
0.000620
21
0.004828
31
0.0
0
LINE
8
TOP
10
0.000620
20
0.004828
30
0.0
11
0.000699
21
0.004648
31
0.0
0
LINE
8
TOP
10
0.000699
20
0.004648
30
0.0
11
0.000782
21
0.004469
31
0.0
0
LINE
8
TOP
10
0.000782
20
0.004469
30
0.0
11
0.000869
21
0.004293
31
0.0
0
LINE
8
TOP
10
0.000869
20
0.004293
30
0.0
11
0.000961
21
0.004119
31
0.0
0
LINE
8
TOP
10
0.000961
20
0.004119
30
0.0
11
0.001058
21
0.003947
31
0.0
0
LINE
8
TOP
10
0.001058
20
0.003947
30
0.0
11
0.001158
21
0.003778
31
0.0
0
LINE
8
TOP
10
0.001158
20
0.003778
30
0.0
11
0.001263
21
0.003611
31
0.0
0
LINE
8
TOP
10
0.001263
20
0.003611
30
0.0
11
0.001372
21
0.003447
31
0.0
0
LINE
8
TOP
10
0.001372
20
0.003447
30
0.0
11
0.001485
21
0.003286
31
0.0
0
LINE
8
TOP
10
0.001485
20
0.003286
30
0.0
11
0.001602
21
0.003128
31
0.0
0
LINE
8
TOP
10
0.001602
20
0.003128
30
0.0
11
0.001722
21
0.002972
31
0.0
0
LINE
8
TOP
10
0.001722
20
0.002972
30
0.0
11
0.001847
21
0.002820
31
0.0
0
LINE
8
TOP
10
0.001847
20
0.002820
30
0.0
11
0.001975
21
0.002671
31
0.0
0
LINE
8
TOP
10
0.001975
20
0.002671
30
0.0
11
0.002107
21
0.002525
31
0.0
0
LINE
8
TOP
10
0.002107
20
0.002525
30
0.0
11
0.002243
21
0.002382
31
0.0
0
LINE
8
TOP
10
0.002243
20
0.002382
30
0.0
11
0.002382
21
0.002243
31
0.0
0
LINE
8
TOP
10
0.002382
20
0.002243
30
0.0
11
0.002525
21
0.002107
31
0.0
0
LINE
8
TOP
10
0.002525
20
0.002107
30
0.0
11
0.002671
21
0.001975
31
0.0
0
LINE
8
TOP
10
0.002671
20
0.001975
30
0.0
11
0.002820
21
0.001847
31
0.0
0
LINE
8
TOP
10
0.002820
20
0.001847
30
0.0
11
0.002972
21
0.001722
31
0.0
0
LINE
8
TOP
10
0.002972
20
0.001722
30
0.0
11
0.003128
21
0.001602
31
0.0
0
LINE
8
TOP
10
0.003128
20
0.001602
30
0.0
11
0.003286
21
0.001485
31
0.0
0
LINE
8
TOP
10
0.003286
20
0.001485
30
0.0
11
0.003447
21
0.001372
31
0.0
0
LINE
8
TOP
10
0.003447
20
0.001372
30
0.0
11
0.003611
21
0.001263
31
0.0
0
LINE
8
TOP
10
0.003611
20
0.001263
30
0.0
11
0.003778
21
0.001158
31
0.0
0
LINE
8
TOP
10
0.003778
20
0.001158
30
0.0
11
0.003947
21
0.001058
31
0.0
0
LINE
8
TOP
10
0.003947
20
0.001058
30
0.0
11
0.004119
21
0.000961
31
0.0
0
LINE
8
TOP
10
0.004119
20
0.000961
30
0.0
11
0.004293
21
0.000869
31
0.0
0
LINE
8
TOP
10
0.004293
20
0.000869
30
0.0
11
0.004469
21
0.000782
31
0.0
0
LINE
8
TOP
10
0.004469
20
0.000782
30
0.0
11
0.004648
21
0.000699
31
0.0
0
LINE
8
TOP
10
0.004648
20
0.000699
30
0.0
11
0.004828
21
0.000620
31
0.0
0
LINE
8
TOP
10
0.004828
20
0.000620
30
0.0
11
0.005010
21
0.000546
31
0.0
0
LINE
8
TOP
10
0.005010
20
0.000546
30
0.0
11
0.005195
21
0.000476
31
0.0
0
LINE
8
TOP
10
0.005195
20
0.000476
30
0.0
11
0.005380
21
0.000411
31
0.0
0
LINE
8
TOP
10
0.005380
20
0.000411
30
0.0
11
0.005568
21
0.000351
31
0.0
0
LINE
8
TOP
10
0.005568
20
0.000351
30
0.0
11
0.005757
21
0.000295
31
0.0
0
LINE
8
TOP
10
0.005757
20
0.000295
30
0.0
11
0.005947
21
0.000244
31
0.0
0
LINE
8
TOP
10
0.005947
20
0.000244
30
0.0
11
0.006138
21
0.000198
31
0.0
0
LINE
8
TOP
10
0.006138
20
0.000198
30
0.0
11
0.006330
21
0.000157
31
0.0
0
LINE
8
TOP
10
0.006330
20
0.000157
30
0.0
11
0.006524
21
0.000120
31
0.0
0
LINE
8
TOP
10
0.006524
20
0.000120
30
0.0
11
0.006718
21
0.000088
31
0.0
0
LINE
8
TOP
10
0.006718
20
0.000088
30
0.0
11
0.006913
21
0.000061
31
0.0
0
LINE
8
TOP
10
0.006913
20
0.000061
30
0.0
11
0.007109
21
0.000039
31
0.0
0
LINE
8
TOP
10
0.007109
20
0.000039
30
0.0
11
0.007305
21
0.000022
31
0.0
0
LINE
8
TOP
10
0.007305
20
0.000022
30
0.0
11
0.007501
21
0.000010
31
0.0
0
LINE
8
TOP
10
0.007501
20
0.000010
30
0.0
11
0.007698
21
0.000002
31
0.0
0
LINE
8
TOP
10
0.007698
20
0.000002
30
0.0
11
0.007895
21
0.000000
31
0.0
0
LINE
8
TOP
10
0.015789
20
0.007895
30
0.0
11
0.015780
21
0.008288
31
0.0
0
LINE
8
TOP
10
0.015780
20
0.008288
30
0.0
11
0.015750
21
0.008681
31
0.0
0
LINE
8
TOP
10
0.015750
20
0.008681
30
0.0
11
0.015701
21
0.009071
31
0.0
0
LINE
8
TOP
10
0.015701
20
0.009071
30
0.0
11
0.015633
21
0.009459
31
0.0
0
LINE
8
TOP
10
0.015633
20
0.009459
30
0.0
11
0.015545
21
0.009843
31
0.0
0
LINE
8
TOP
10
0.015545
20
0.009843
30
0.0
11
0.015439
21
0.010222
31
0.0
0
LINE
8
TOP
10
0.015439
20
0.010222
30
0.0
11
0.015313
21
0.010595
31
0.0
0
LINE
8
TOP
10
0.015313
20
0.010595
30
0.0
11
0.015170
21
0.010961
31
0.0
0
LINE
8
TOP
10
0.015170
20
0.010961
30
0.0
11
0.015008
21
0.011320
31
0.0
0
LINE
8
TOP
10
0.015008
20
0.011320
30
0.0
11
0.014828
21
0.011670
31
0.0
0
LINE
8
TOP
10
0.014828
20
0.011670
30
0.0
11
0.014631
21
0.012011
31
0.0
0
LINE
8
TOP
10
0.014631
20
0.012011
30
0.0
11
0.014418
21
0.012342
31
0.0
0
LINE
8
TOP
10
0.014418
20
0.012342
30
0.0
11
0.014188
21
0.012662
31
0.0
0
LINE
8
TOP
10
0.014188
20
0.012662
30
0.0
11
0.013942
21
0.012969
31
0.0
0
LINE
8
TOP
10
0.013942
20
0.012969
30
0.0
11
0.013682
21
0.013265
31
0.0
0
LINE
8
TOP
10
0.013682
20
0.013265
30
0.0
11
0.013407
21
0.013546
31
0.0
0
LINE
8
TOP
10
0.013407
20
0.013546
30
0.0
11
0.013119
21
0.013814
31
0.0
0
LINE
8
TOP
10
0.013119
20
0.013814
30
0.0
11
0.012817
21
0.014067
31
0.0
0
LINE
8
TOP
10
0.012817
20
0.014067
30
0.0
11
0.012503
21
0.014305
31
0.0
0
LINE
8
TOP
10
0.012503
20
0.014305
30
0.0
11
0.012178
21
0.014527
31
0.0
0
LINE
8
TOP
10
0.012178
20
0.014527
30
0.0
11
0.011842
21
0.014732
31
0.0
0
LINE
8
TOP
10
0.011842
20
0.014732
30
0.0
11
0.011496
21
0.014920
31
0.0
0
LINE
8
TOP
10
0.011496
20
0.014920
30
0.0
11
0.011142
21
0.015091
31
0.0
0
LINE
8
TOP
10
0.011142
20
0.015091
30
0.0
11
0.010779
21
0.015244
31
0.0
0
LINE
8
TOP
10
0.010779
20
0.015244
30
0.0
11
0.010409
21
0.015378
31
0.0
0
LINE
8
TOP
10
0.010409
20
0.015378
30
0.0
11
0.010033
21
0.015494
31
0.0
0
LINE
8
TOP
10
0.010033
20
0.015494
30
0.0
11
0.009651
21
0.015592
31
0.0
0
LINE
8
TOP
10
0.009651
20
0.015592
30
0.0
11
0.009266
21
0.015670
31
0.0
0
LINE
8
TOP
10
0.009266
20
0.015670
30
0.0
11
0.008876
21
0.015728
31
0.0
0
LINE
8
TOP
10
0.008876
20
0.015728
30
0.0
11
0.008485
21
0.015767
31
0.0
0
LINE
8
TOP
10
0.008485
20
0.015767
30
0.0
11
0.008092
21
0.015787
31
0.0
0
LINE
8
TOP
10
0.008092
20
0.015787
30
0.0
11
0.007698
21
0.015787
31
0.0
0
LINE
8
TOP
10
0.007698
20
0.015787
30
0.0
11
0.007305
21
0.015767
31
0.0
0
LINE
8
TOP
10
0.007305
20
0.015767
30
0.0
11
0.006913
21
0.015728
31
0.0
0
LINE
8
TOP
10
0.006913
20
0.015728
30
0.0
11
0.006524
21
0.015670
31
0.0
0
LINE
8
TOP
10
0.006524
20
0.015670
30
0.0
11
0.006138
21
0.015592
31
0.0
0
LINE
8
TOP
10
0.006138
20
0.015592
30
0.0
11
0.005757
21
0.015494
31
0.0
0
LINE
8
TOP
10
0.005757
20
0.015494
30
0.0
11
0.005380
21
0.015378
31
0.0
0
LINE
8
TOP
10
0.005380
20
0.015378
30
0.0
11
0.005010
21
0.015244
31
0.0
0
LINE
8
TOP
10
0.005010
20
0.015244
30
0.0
11
0.004648
21
0.015091
31
0.0
0
LINE
8
TOP
10
0.004648
20
0.015091
30
0.0
11
0.004293
21
0.014920
31
0.0
0
LINE
8
TOP
10
0.004293
20
0.014920
30
0.0
11
0.003947
21
0.014732
31
0.0
0
LINE
8
TOP
10
0.003947
20
0.014732
30
0.0
11
0.003611
21
0.014527
31
0.0
0
LINE
8
TOP
10
0.003611
20
0.014527
30
0.0
11
0.003286
21
0.014305
31
0.0
0
LINE
8
TOP
10
0.003286
20
0.014305
30
0.0
11
0.002972
21
0.014067
31
0.0
0
LINE
8
TOP
10
0.002972
20
0.014067
30
0.0
11
0.002671
21
0.013814
31
0.0
0
LINE
8
TOP
10
0.002671
20
0.013814
30
0.0
11
0.002382
21
0.013546
31
0.0
0
LINE
8
TOP
10
0.002382
20
0.013546
30
0.0
11
0.002107
21
0.013265
31
0.0
0
LINE
8
TOP
10
0.002107
20
0.013265
30
0.0
11
0.001847
21
0.012969
31
0.0
0
LINE
8
TOP
10
0.001847
20
0.012969
30
0.0
11
0.001602
21
0.012662
31
0.0
0
LINE
8
TOP
10
0.001602
20
0.012662
30
0.0
11
0.001372
21
0.012342
31
0.0
0
LINE
8
TOP
10
0.001372
20
0.012342
30
0.0
11
0.001158
21
0.012011
31
0.0
0
LINE
8
TOP
10
0.001158
20
0.012011
30
0.0
11
0.000961
21
0.011670
31
0.0
0
LINE
8
TOP
10
0.000961
20
0.011670
30
0.0
11
0.000782
21
0.011320
31
0.0
0
LINE
8
TOP
10
0.000782
20
0.011320
30
0.0
11
0.000620
21
0.010961
31
0.0
0
LINE
8
TOP
10
0.000620
20
0.010961
30
0.0
11
0.000476
21
0.010595
31
0.0
0
LINE
8
TOP
10
0.000476
20
0.010595
30
0.0
11
0.000351
21
0.010222
31
0.0
0
LINE
8
TOP
10
0.000351
20
0.010222
30
0.0
11
0.000244
21
0.009843
31
0.0
0
LINE
8
TOP
10
0.000244
20
0.009843
30
0.0
11
0.000157
21
0.009459
31
0.0
0
LINE
8
TOP
10
0.000157
20
0.009459
30
0.0
11
0.000088
21
0.009071
31
0.0
0
LINE
8
TOP
10
0.000088
20
0.009071
30
0.0
11
0.000039
21
0.008681
31
0.0
0
LINE
8
TOP
10
0.000039
20
0.008681
30
0.0
11
0.000010
21
0.008288
31
0.0
0
LINE
8
TOP
10
0.000010
20
0.008288
30
0.0
11
0.000000
21
0.007895
31
0.0
0
LINE
8
TOP
10
0.000000
20
0.742105
30
0.0
11
0.000010
21
0.741712
31
0.0
0
LINE
8
TOP
10
0.000010
20
0.741712
30
0.0
11
0.000039
21
0.741319
31
0.0
0
LINE
8
TOP
10
0.000039
20
0.741319
30
0.0
11
0.000088
21
0.740929
31
0.0
0
LINE
8
TOP
10
0.000088
20
0.740929
30
0.0
11
0.000157
21
0.740541
31
0.0
0
LINE
8
TOP
10
0.000157
20
0.740541
30
0.0
11
0.000244
21
0.740157
31
0.0
0
LINE
8
TOP
10
0.000244
20
0.740157
30
0.0
11
0.000351
21
0.739778
31
0.0
0
LINE
8
TOP
10
0.000351
20
0.739778
30
0.0
11
0.000476
21
0.739405
31
0.0
0
LINE
8
TOP
10
0.000476
20
0.739405
30
0.0
11
0.000620
21
0.739039
31
0.0
0
LINE
8
TOP
10
0.000620
20
0.739039
30
0.0
11
0.000782
21
0.738680
31
0.0
0
LINE
8
TOP
10
0.000782
20
0.738680
30
0.0
11
0.000961
21
0.738330
31
0.0
0
LINE
8
TOP
10
0.000961
20
0.738330
30
0.0
11
0.001158
21
0.737989
31
0.0
0
LINE
8
TOP
10
0.001158
20
0.737989
30
0.0
11
0.001372
21
0.737658
31
0.0
0
LINE
8
TOP
10
0.001372
20
0.737658
30
0.0
11
0.001602
21
0.737338
31
0.0
0
LINE
8
TOP
10
0.001602
20
0.737338
30
0.0
11
0.001847
21
0.737031
31
0.0
0
LINE
8
TOP
10
0.001847
20
0.737031
30
0.0
11
0.002107
21
0.736735
31
0.0
0
LINE
8
TOP
10
0.002107
20
0.736735
30
0.0
11
0.002382
21
0.736454
31
0.0
0
LINE
8
TOP
10
0.002382
20
0.736454
30
0.0
11
0.002671
21
0.736186
31
0.0
0
LINE
8
TOP
10
0.002671
20
0.736186
30
0.0
11
0.002972
21
0.735933
31
0.0
0
LINE
8
TOP
10
0.002972
20
0.735933
30
0.0
11
0.003286
21
0.735695
31
0.0
0
LINE
8
TOP
10
0.003286
20
0.735695
30
0.0
11
0.003611
21
0.735473
31
0.0
0
LINE
8
TOP
10
0.003611
20
0.735473
30
0.0
11
0.003947
21
0.735268
31
0.0
0
LINE
8
TOP
10
0.003947
20
0.735268
30
0.0
11
0.004293
21
0.735080
31
0.0
0
LINE
8
TOP
10
0.004293
20
0.735080
30
0.0
11
0.004648
21
0.734909
31
0.0
0
LINE
8
TOP
10
0.004648
20
0.734909
30
0.0
11
0.005010
21
0.734756
31
0.0
0
LINE
8
TOP
10
0.005010
20
0.734756
30
0.0
11
0.005380
21
0.734622
31
0.0
0
LINE
8
TOP
10
0.005380
20
0.734622
30
0.0
11
0.005757
21
0.734506
31
0.0
0
LINE
8
TOP
10
0.005757
20
0.734506
30
0.0
11
0.006138
21
0.734408
31
0.0
0
LINE
8
TOP
10
0.006138
20
0.734408
30
0.0
11
0.006524
21
0.734330
31
0.0
0
LINE
8
TOP
10
0.006524
20
0.734330
30
0.0
11
0.006913
21
0.734272
31
0.0
0
LINE
8
TOP
10
0.006913
20
0.734272
30
0.0
11
0.007305
21
0.734233
31
0.0
0
LINE
8
TOP
10
0.007305
20
0.734233
30
0.0
11
0.007698
21
0.734213
31
0.0
0
LINE
8
TOP
10
0.007698
20
0.734213
30
0.0
11
0.008092
21
0.734213
31
0.0
0
LINE
8
TOP
10
0.008092
20
0.734213
30
0.0
11
0.008485
21
0.734233
31
0.0
0
LINE
8
TOP
10
0.008485
20
0.734233
30
0.0
11
0.008876
21
0.734272
31
0.0
0
LINE
8
TOP
10
0.008876
20
0.734272
30
0.0
11
0.009266
21
0.734330
31
0.0
0
LINE
8
TOP
10
0.009266
20
0.734330
30
0.0
11
0.009651
21
0.734408
31
0.0
0
LINE
8
TOP
10
0.009651
20
0.734408
30
0.0
11
0.010033
21
0.734506
31
0.0
0
LINE
8
TOP
10
0.010033
20
0.734506
30
0.0
11
0.010409
21
0.734622
31
0.0
0
LINE
8
TOP
10
0.010409
20
0.734622
30
0.0
11
0.010779
21
0.734756
31
0.0
0
LINE
8
TOP
10
0.010779
20
0.734756
30
0.0
11
0.011142
21
0.734909
31
0.0
0
LINE
8
TOP
10
0.011142
20
0.734909
30
0.0
11
0.011496
21
0.735080
31
0.0
0
LINE
8
TOP
10
0.011496
20
0.735080
30
0.0
11
0.011842
21
0.735268
31
0.0
0
LINE
8
TOP
10
0.011842
20
0.735268
30
0.0
11
0.012178
21
0.735473
31
0.0
0
LINE
8
TOP
10
0.012178
20
0.735473
30
0.0
11
0.012503
21
0.735695
31
0.0
0
LINE
8
TOP
10
0.012503
20
0.735695
30
0.0
11
0.012817
21
0.735933
31
0.0
0
LINE
8
TOP
10
0.012817
20
0.735933
30
0.0
11
0.013119
21
0.736186
31
0.0
0
LINE
8
TOP
10
0.013119
20
0.736186
30
0.0
11
0.013407
21
0.736454
31
0.0
0
LINE
8
TOP
10
0.013407
20
0.736454
30
0.0
11
0.013682
21
0.736735
31
0.0
0
LINE
8
TOP
10
0.013682
20
0.736735
30
0.0
11
0.013942
21
0.737031
31
0.0
0
LINE
8
TOP
10
0.013942
20
0.737031
30
0.0
11
0.014188
21
0.737338
31
0.0
0
LINE
8
TOP
10
0.014188
20
0.737338
30
0.0
11
0.014418
21
0.737658
31
0.0
0
LINE
8
TOP
10
0.014418
20
0.737658
30
0.0
11
0.014631
21
0.737989
31
0.0
0
LINE
8
TOP
10
0.014631
20
0.737989
30
0.0
11
0.014828
21
0.738330
31
0.0
0
LINE
8
TOP
10
0.014828
20
0.738330
30
0.0
11
0.015008
21
0.738680
31
0.0
0
LINE
8
TOP
10
0.015008
20
0.738680
30
0.0
11
0.015170
21
0.739039
31
0.0
0
LINE
8
TOP
10
0.015170
20
0.739039
30
0.0
11
0.015313
21
0.739405
31
0.0
0
LINE
8
TOP
10
0.015313
20
0.739405
30
0.0
11
0.015439
21
0.739778
31
0.0
0
LINE
8
TOP
10
0.015439
20
0.739778
30
0.0
11
0.015545
21
0.740157
31
0.0
0
LINE
8
TOP
10
0.015545
20
0.740157
30
0.0
11
0.015633
21
0.740541
31
0.0
0
LINE
8
TOP
10
0.015633
20
0.740541
30
0.0
11
0.015701
21
0.740929
31
0.0
0
LINE
8
TOP
10
0.015701
20
0.740929
30
0.0
11
0.015750
21
0.741319
31
0.0
0
LINE
8
TOP
10
0.015750
20
0.741319
30
0.0
11
0.015780
21
0.741712
31
0.0
0
LINE
8
TOP
10
0.015780
20
0.741712
30
0.0
11
0.015789
21
0.742105
31
0.0
0
LINE
8
TOP
10
0.007895
20
0.750000
30
0.0
11
0.007698
21
0.749998
31
0.0
0
LINE
8
TOP
10
0.007698
20
0.749998
30
0.0
11
0.007501
21
0.749990
31
0.0
0
LINE
8
TOP
10
0.007501
20
0.749990
30
0.0
11
0.007305
21
0.749978
31
0.0
0
LINE
8
TOP
10
0.007305
20
0.749978
30
0.0
11
0.007109
21
0.749961
31
0.0
0
LINE
8
TOP
10
0.007109
20
0.749961
30
0.0
11
0.006913
21
0.749939
31
0.0
0
LINE
8
TOP
10
0.006913
20
0.749939
30
0.0
11
0.006718
21
0.749912
31
0.0
0
LINE
8
TOP
10
0.006718
20
0.749912
30
0.0
11
0.006524
21
0.749880
31
0.0
0
LINE
8
TOP
10
0.006524
20
0.749880
30
0.0
11
0.006330
21
0.749843
31
0.0
0
LINE
8
TOP
10
0.006330
20
0.749843
30
0.0
11
0.006138
21
0.749802
31
0.0
0
LINE
8
TOP
10
0.006138
20
0.749802
30
0.0
11
0.005947
21
0.749756
31
0.0
0
LINE
8
TOP
10
0.005947
20
0.749756
30
0.0
11
0.005757
21
0.749705
31
0.0
0
LINE
8
TOP
10
0.005757
20
0.749705
30
0.0
11
0.005568
21
0.749649
31
0.0
0
LINE
8
TOP
10
0.005568
20
0.749649
30
0.0
11
0.005380
21
0.749589
31
0.0
0
LINE
8
TOP
10
0.005380
20
0.749589
30
0.0
11
0.005195
21
0.749524
31
0.0
0
LINE
8
TOP
10
0.005195
20
0.749524
30
0.0
11
0.005010
21
0.749454
31
0.0
0
LINE
8
TOP
10
0.005010
20
0.749454
30
0.0
11
0.004828
21
0.749380
31
0.0
0
LINE
8
TOP
10
0.004828
20
0.749380
30
0.0
11
0.004648
21
0.749301
31
0.0
0
LINE
8
TOP
10
0.004648
20
0.749301
30
0.0
11
0.004469
21
0.749218
31
0.0
0
LINE
8
TOP
10
0.004469
20
0.749218
30
0.0
11
0.004293
21
0.749131
31
0.0
0
LINE
8
TOP
10
0.004293
20
0.749131
30
0.0
11
0.004119
21
0.749039
31
0.0
0
LINE
8
TOP
10
0.004119
20
0.749039
30
0.0
11
0.003947
21
0.748942
31
0.0
0
LINE
8
TOP
10
0.003947
20
0.748942
30
0.0
11
0.003778
21
0.748842
31
0.0
0
LINE
8
TOP
10
0.003778
20
0.748842
30
0.0
11
0.003611
21
0.748737
31
0.0
0
LINE
8
TOP
10
0.003611
20
0.748737
30
0.0
11
0.003447
21
0.748628
31
0.0
0
LINE
8
TOP
10
0.003447
20
0.748628
30
0.0
11
0.003286
21
0.748515
31
0.0
0
LINE
8
TOP
10
0.003286
20
0.748515
30
0.0
11
0.003128
21
0.748398
31
0.0
0
LINE
8
TOP
10
0.003128
20
0.748398
30
0.0
11
0.002972
21
0.748278
31
0.0
0
LINE
8
TOP
10
0.002972
20
0.748278
30
0.0
11
0.002820
21
0.748153
31
0.0
0
LINE
8
TOP
10
0.002820
20
0.748153
30
0.0
11
0.002671
21
0.748025
31
0.0
0
LINE
8
TOP
10
0.002671
20
0.748025
30
0.0
11
0.002525
21
0.747893
31
0.0
0
LINE
8
TOP
10
0.002525
20
0.747893
30
0.0
11
0.002382
21
0.747757
31
0.0
0
LINE
8
TOP
10
0.002382
20
0.747757
30
0.0
11
0.002243
21
0.747618
31
0.0
0
LINE
8
TOP
10
0.002243
20
0.747618
30
0.0
11
0.002107
21
0.747475
31
0.0
0
LINE
8
TOP
10
0.002107
20
0.747475
30
0.0
11
0.001975
21
0.747329
31
0.0
0
LINE
8
TOP
10
0.001975
20
0.747329
30
0.0
11
0.001847
21
0.747180
31
0.0
0
LINE
8
TOP
10
0.001847
20
0.747180
30
0.0
11
0.001722
21
0.747028
31
0.0
0
LINE
8
TOP
10
0.001722
20
0.747028
30
0.0
11
0.001602
21
0.746872
31
0.0
0
LINE
8
TOP
10
0.001602
20
0.746872
30
0.0
11
0.001485
21
0.746714
31
0.0
0
LINE
8
TOP
10
0.001485
20
0.746714
30
0.0
11
0.001372
21
0.746553
31
0.0
0
LINE
8
TOP
10
0.001372
20
0.746553
30
0.0
11
0.001263
21
0.746389
31
0.0
0
LINE
8
TOP
10
0.001263
20
0.746389
30
0.0
11
0.001158
21
0.746222
31
0.0
0
LINE
8
TOP
10
0.001158
20
0.746222
30
0.0
11
0.001058
21
0.746053
31
0.0
0
LINE
8
TOP
10
0.001058
20
0.746053
30
0.0
11
0.000961
21
0.745881
31
0.0
0
LINE
8
TOP
10
0.000961
20
0.745881
30
0.0
11
0.000869
21
0.745707
31
0.0
0
LINE
8
TOP
10
0.000869
20
0.745707
30
0.0
11
0.000782
21
0.745531
31
0.0
0
LINE
8
TOP
10
0.000782
20
0.745531
30
0.0
11
0.000699
21
0.745352
31
0.0
0
LINE
8
TOP
10
0.000699
20
0.745352
30
0.0
11
0.000620
21
0.745172
31
0.0
0
LINE
8
TOP
10
0.000620
20
0.745172
30
0.0
11
0.000546
21
0.744990
31
0.0
0
LINE
8
TOP
10
0.000546
20
0.744990
30
0.0
11
0.000476
21
0.744805
31
0.0
0
LINE
8
TOP
10
0.000476
20
0.744805
30
0.0
11
0.000411
21
0.744620
31
0.0
0
LINE
8
TOP
10
0.000411
20
0.744620
30
0.0
11
0.000351
21
0.744432
31
0.0
0
LINE
8
TOP
10
0.000351
20
0.744432
30
0.0
11
0.000295
21
0.744243
31
0.0
0
LINE
8
TOP
10
0.000295
20
0.744243
30
0.0
11
0.000244
21
0.744053
31
0.0
0
LINE
8
TOP
10
0.000244
20
0.744053
30
0.0
11
0.000198
21
0.743862
31
0.0
0
LINE
8
TOP
10
0.000198
20
0.743862
30
0.0
11
0.000157
21
0.743670
31
0.0
0
LINE
8
TOP
10
0.000157
20
0.743670
30
0.0
11
0.000120
21
0.743476
31
0.0
0
LINE
8
TOP
10
0.000120
20
0.743476
30
0.0
11
0.000088
21
0.743282
31
0.0
0
LINE
8
TOP
10
0.000088
20
0.743282
30
0.0
11
0.000061
21
0.743087
31
0.0
0
LINE
8
TOP
10
0.000061
20
0.743087
30
0.0
11
0.000039
21
0.742891
31
0.0
0
LINE
8
TOP
10
0.000039
20
0.742891
30
0.0
11
0.000022
21
0.742695
31
0.0
0
LINE
8
TOP
10
0.000022
20
0.742695
30
0.0
11
0.000010
21
0.742499
31
0.0
0
LINE
8
TOP
10
0.000010
20
0.742499
30
0.0
11
0.000002
21
0.742302
31
0.0
0
LINE
8
TOP
10
0.000002
20
0.742302
30
0.0
11
0.000000
21
0.742105
31
0.0
0
LINE
8
TOP
10
0.015789
20
0.742105
30
0.0
11
0.015787
21
0.742302
31
0.0
0
LINE
8
TOP
10
0.015787
20
0.742302
30
0.0
11
0.015780
21
0.742499
31
0.0
0
LINE
8
TOP
10
0.015780
20
0.742499
30
0.0
11
0.015767
21
0.742695
31
0.0
0
LINE
8
TOP
10
0.015767
20
0.742695
30
0.0
11
0.015750
21
0.742891
31
0.0
0
LINE
8
TOP
10
0.015750
20
0.742891
30
0.0
11
0.015728
21
0.743087
31
0.0
0
LINE
8
TOP
10
0.015728
20
0.743087
30
0.0
11
0.015701
21
0.743282
31
0.0
0
LINE
8
TOP
10
0.015701
20
0.743282
30
0.0
11
0.015670
21
0.743476
31
0.0
0
LINE
8
TOP
10
0.015670
20
0.743476
30
0.0
11
0.015633
21
0.743670
31
0.0
0
LINE
8
TOP
10
0.015633
20
0.743670
30
0.0
11
0.015592
21
0.743862
31
0.0
0
LINE
8
TOP
10
0.015592
20
0.743862
30
0.0
11
0.015545
21
0.744053
31
0.0
0
LINE
8
TOP
10
0.015545
20
0.744053
30
0.0
11
0.015494
21
0.744243
31
0.0
0
LINE
8
TOP
10
0.015494
20
0.744243
30
0.0
11
0.015439
21
0.744432
31
0.0
0
LINE
8
TOP
10
0.015439
20
0.744432
30
0.0
11
0.015378
21
0.744620
31
0.0
0
LINE
8
TOP
10
0.015378
20
0.744620
30
0.0
11
0.015313
21
0.744805
31
0.0
0
LINE
8
TOP
10
0.015313
20
0.744805
30
0.0
11
0.015244
21
0.744990
31
0.0
0
LINE
8
TOP
10
0.015244
20
0.744990
30
0.0
11
0.015170
21
0.745172
31
0.0
0
LINE
8
TOP
10
0.015170
20
0.745172
30
0.0
11
0.015091
21
0.745352
31
0.0
0
LINE
8
TOP
10
0.015091
20
0.745352
30
0.0
11
0.015008
21
0.745531
31
0.0
0
LINE
8
TOP
10
0.015008
20
0.745531
30
0.0
11
0.014920
21
0.745707
31
0.0
0
LINE
8
TOP
10
0.014920
20
0.745707
30
0.0
11
0.014828
21
0.745881
31
0.0
0
LINE
8
TOP
10
0.014828
20
0.745881
30
0.0
11
0.014732
21
0.746053
31
0.0
0
LINE
8
TOP
10
0.014732
20
0.746053
30
0.0
11
0.014631
21
0.746222
31
0.0
0
LINE
8
TOP
10
0.014631
20
0.746222
30
0.0
11
0.014527
21
0.746389
31
0.0
0
LINE
8
TOP
10
0.014527
20
0.746389
30
0.0
11
0.014418
21
0.746553
31
0.0
0
LINE
8
TOP
10
0.014418
20
0.746553
30
0.0
11
0.014305
21
0.746714
31
0.0
0
LINE
8
TOP
10
0.014305
20
0.746714
30
0.0
11
0.014188
21
0.746872
31
0.0
0
LINE
8
TOP
10
0.014188
20
0.746872
30
0.0
11
0.014067
21
0.747028
31
0.0
0
LINE
8
TOP
10
0.014067
20
0.747028
30
0.0
11
0.013942
21
0.747180
31
0.0
0
LINE
8
TOP
10
0.013942
20
0.747180
30
0.0
11
0.013814
21
0.747329
31
0.0
0
LINE
8
TOP
10
0.013814
20
0.747329
30
0.0
11
0.013682
21
0.747475
31
0.0
0
LINE
8
TOP
10
0.013682
20
0.747475
30
0.0
11
0.013546
21
0.747618
31
0.0
0
LINE
8
TOP
10
0.013546
20
0.747618
30
0.0
11
0.013407
21
0.747757
31
0.0
0
LINE
8
TOP
10
0.013407
20
0.747757
30
0.0
11
0.013265
21
0.747893
31
0.0
0
LINE
8
TOP
10
0.013265
20
0.747893
30
0.0
11
0.013119
21
0.748025
31
0.0
0
LINE
8
TOP
10
0.013119
20
0.748025
30
0.0
11
0.012969
21
0.748153
31
0.0
0
LINE
8
TOP
10
0.012969
20
0.748153
30
0.0
11
0.012817
21
0.748278
31
0.0
0
LINE
8
TOP
10
0.012817
20
0.748278
30
0.0
11
0.012662
21
0.748398
31
0.0
0
LINE
8
TOP
10
0.012662
20
0.748398
30
0.0
11
0.012503
21
0.748515
31
0.0
0
LINE
8
TOP
10
0.012503
20
0.748515
30
0.0
11
0.012342
21
0.748628
31
0.0
0
LINE
8
TOP
10
0.012342
20
0.748628
30
0.0
11
0.012178
21
0.748737
31
0.0
0
LINE
8
TOP
10
0.012178
20
0.748737
30
0.0
11
0.012011
21
0.748842
31
0.0
0
LINE
8
TOP
10
0.012011
20
0.748842
30
0.0
11
0.011842
21
0.748942
31
0.0
0
LINE
8
TOP
10
0.011842
20
0.748942
30
0.0
11
0.011670
21
0.749039
31
0.0
0
LINE
8
TOP
10
0.011670
20
0.749039
30
0.0
11
0.011496
21
0.749131
31
0.0
0
LINE
8
TOP
10
0.011496
20
0.749131
30
0.0
11
0.011320
21
0.749218
31
0.0
0
LINE
8
TOP
10
0.011320
20
0.749218
30
0.0
11
0.011142
21
0.749301
31
0.0
0
LINE
8
TOP
10
0.011142
20
0.749301
30
0.0
11
0.010961
21
0.749380
31
0.0
0
LINE
8
TOP
10
0.010961
20
0.749380
30
0.0
11
0.010779
21
0.749454
31
0.0
0
LINE
8
TOP
10
0.010779
20
0.749454
30
0.0
11
0.010595
21
0.749524
31
0.0
0
LINE
8
TOP
10
0.010595
20
0.749524
30
0.0
11
0.010409
21
0.749589
31
0.0
0
LINE
8
TOP
10
0.010409
20
0.749589
30
0.0
11
0.010222
21
0.749649
31
0.0
0
LINE
8
TOP
10
0.010222
20
0.749649
30
0.0
11
0.010033
21
0.749705
31
0.0
0
LINE
8
TOP
10
0.010033
20
0.749705
30
0.0
11
0.009843
21
0.749756
31
0.0
0
LINE
8
TOP
10
0.009843
20
0.749756
30
0.0
11
0.009651
21
0.749802
31
0.0
0
LINE
8
TOP
10
0.009651
20
0.749802
30
0.0
11
0.009459
21
0.749843
31
0.0
0
LINE
8
TOP
10
0.009459
20
0.749843
30
0.0
11
0.009266
21
0.749880
31
0.0
0
LINE
8
TOP
10
0.009266
20
0.749880
30
0.0
11
0.009071
21
0.749912
31
0.0
0
LINE
8
TOP
10
0.009071
20
0.749912
30
0.0
11
0.008876
21
0.749939
31
0.0
0
LINE
8
TOP
10
0.008876
20
0.749939
30
0.0
11
0.008681
21
0.749961
31
0.0
0
LINE
8
TOP
10
0.008681
20
0.749961
30
0.0
11
0.008485
21
0.749978
31
0.0
0
LINE
8
TOP
10
0.008485
20
0.749978
30
0.0
11
0.008288
21
0.749990
31
0.0
0
LINE
8
TOP
10
0.008288
20
0.749990
30
0.0
11
0.008092
21
0.749998
31
0.0
0
LINE
8
TOP
10
0.008092
20
0.749998
30
0.0
11
0.007895
21
0.750000
31
0.0
0
LINE
8
TOP
10
0.742105
20
0.000000
30
0.0
11
0.742302
21
0.000002
31
0.0
0
LINE
8
TOP
10
0.742302
20
0.000002
30
0.0
11
0.742499
21
0.000010
31
0.0
0
LINE
8
TOP
10
0.742499
20
0.000010
30
0.0
11
0.742695
21
0.000022
31
0.0
0
LINE
8
TOP
10
0.742695
20
0.000022
30
0.0
11
0.742891
21
0.000039
31
0.0
0
LINE
8
TOP
10
0.742891
20
0.000039
30
0.0
11
0.743087
21
0.000061
31
0.0
0
LINE
8
TOP
10
0.743087
20
0.000061
30
0.0
11
0.743282
21
0.000088
31
0.0
0
LINE
8
TOP
10
0.743282
20
0.000088
30
0.0
11
0.743476
21
0.000120
31
0.0
0
LINE
8
TOP
10
0.743476
20
0.000120
30
0.0
11
0.743670
21
0.000157
31
0.0
0
LINE
8
TOP
10
0.743670
20
0.000157
30
0.0
11
0.743862
21
0.000198
31
0.0
0
LINE
8
TOP
10
0.743862
20
0.000198
30
0.0
11
0.744053
21
0.000244
31
0.0
0
LINE
8
TOP
10
0.744053
20
0.000244
30
0.0
11
0.744243
21
0.000295
31
0.0
0
LINE
8
TOP
10
0.744243
20
0.000295
30
0.0
11
0.744432
21
0.000351
31
0.0
0
LINE
8
TOP
10
0.744432
20
0.000351
30
0.0
11
0.744620
21
0.000411
31
0.0
0
LINE
8
TOP
10
0.744620
20
0.000411
30
0.0
11
0.744805
21
0.000476
31
0.0
0
LINE
8
TOP
10
0.744805
20
0.000476
30
0.0
11
0.744990
21
0.000546
31
0.0
0
LINE
8
TOP
10
0.744990
20
0.000546
30
0.0
11
0.745172
21
0.000620
31
0.0
0
LINE
8
TOP
10
0.745172
20
0.000620
30
0.0
11
0.745352
21
0.000699
31
0.0
0
LINE
8
TOP
10
0.745352
20
0.000699
30
0.0
11
0.745531
21
0.000782
31
0.0
0
LINE
8
TOP
10
0.745531
20
0.000782
30
0.0
11
0.745707
21
0.000869
31
0.0
0
LINE
8
TOP
10
0.745707
20
0.000869
30
0.0
11
0.745881
21
0.000961
31
0.0
0
LINE
8
TOP
10
0.745881
20
0.000961
30
0.0
11
0.746053
21
0.001058
31
0.0
0
LINE
8
TOP
10
0.746053
20
0.001058
30
0.0
11
0.746222
21
0.001158
31
0.0
0
LINE
8
TOP
10
0.746222
20
0.001158
30
0.0
11
0.746389
21
0.001263
31
0.0
0
LINE
8
TOP
10
0.746389
20
0.001263
30
0.0
11
0.746553
21
0.001372
31
0.0
0
LINE
8
TOP
10
0.746553
20
0.001372
30
0.0
11
0.746714
21
0.001485
31
0.0
0
LINE
8
TOP
10
0.746714
20
0.001485
30
0.0
11
0.746872
21
0.001602
31
0.0
0
LINE
8
TOP
10
0.746872
20
0.001602
30
0.0
11
0.747028
21
0.001722
31
0.0
0
LINE
8
TOP
10
0.747028
20
0.001722
30
0.0
11
0.747180
21
0.001847
31
0.0
0
LINE
8
TOP
10
0.747180
20
0.001847
30
0.0
11
0.747329
21
0.001975
31
0.0
0
LINE
8
TOP
10
0.747329
20
0.001975
30
0.0
11
0.747475
21
0.002107
31
0.0
0
LINE
8
TOP
10
0.747475
20
0.002107
30
0.0
11
0.747618
21
0.002243
31
0.0
0
LINE
8
TOP
10
0.747618
20
0.002243
30
0.0
11
0.747757
21
0.002382
31
0.0
0
LINE
8
TOP
10
0.747757
20
0.002382
30
0.0
11
0.747893
21
0.002525
31
0.0
0
LINE
8
TOP
10
0.747893
20
0.002525
30
0.0
11
0.748025
21
0.002671
31
0.0
0
LINE
8
TOP
10
0.748025
20
0.002671
30
0.0
11
0.748153
21
0.002820
31
0.0
0
LINE
8
TOP
10
0.748153
20
0.002820
30
0.0
11
0.748278
21
0.002972
31
0.0
0
LINE
8
TOP
10
0.748278
20
0.002972
30
0.0
11
0.748398
21
0.003128
31
0.0
0
LINE
8
TOP
10
0.748398
20
0.003128
30
0.0
11
0.748515
21
0.003286
31
0.0
0
LINE
8
TOP
10
0.748515
20
0.003286
30
0.0
11
0.748628
21
0.003447
31
0.0
0
LINE
8
TOP
10
0.748628
20
0.003447
30
0.0
11
0.748737
21
0.003611
31
0.0
0
LINE
8
TOP
10
0.748737
20
0.003611
30
0.0
11
0.748842
21
0.003778
31
0.0
0
LINE
8
TOP
10
0.748842
20
0.003778
30
0.0
11
0.748942
21
0.003947
31
0.0
0
LINE
8
TOP
10
0.748942
20
0.003947
30
0.0
11
0.749039
21
0.004119
31
0.0
0
LINE
8
TOP
10
0.749039
20
0.004119
30
0.0
11
0.749131
21
0.004293
31
0.0
0
LINE
8
TOP
10
0.749131
20
0.004293
30
0.0
11
0.749218
21
0.004469
31
0.0
0
LINE
8
TOP
10
0.749218
20
0.004469
30
0.0
11
0.749301
21
0.004648
31
0.0
0
LINE
8
TOP
10
0.749301
20
0.004648
30
0.0
11
0.749380
21
0.004828
31
0.0
0
LINE
8
TOP
10
0.749380
20
0.004828
30
0.0
11
0.749454
21
0.005010
31
0.0
0
LINE
8
TOP
10
0.749454
20
0.005010
30
0.0
11
0.749524
21
0.005195
31
0.0
0
LINE
8
TOP
10
0.749524
20
0.005195
30
0.0
11
0.749589
21
0.005380
31
0.0
0
LINE
8
TOP
10
0.749589
20
0.005380
30
0.0
11
0.749649
21
0.005568
31
0.0
0
LINE
8
TOP
10
0.749649
20
0.005568
30
0.0
11
0.749705
21
0.005757
31
0.0
0
LINE
8
TOP
10
0.749705
20
0.005757
30
0.0
11
0.749756
21
0.005947
31
0.0
0
LINE
8
TOP
10
0.749756
20
0.005947
30
0.0
11
0.749802
21
0.006138
31
0.0
0
LINE
8
TOP
10
0.749802
20
0.006138
30
0.0
11
0.749843
21
0.006330
31
0.0
0
LINE
8
TOP
10
0.749843
20
0.006330
30
0.0
11
0.749880
21
0.006524
31
0.0
0
LINE
8
TOP
10
0.749880
20
0.006524
30
0.0
11
0.749912
21
0.006718
31
0.0
0
LINE
8
TOP
10
0.749912
20
0.006718
30
0.0
11
0.749939
21
0.006913
31
0.0
0
LINE
8
TOP
10
0.749939
20
0.006913
30
0.0
11
0.749961
21
0.007109
31
0.0
0
LINE
8
TOP
10
0.749961
20
0.007109
30
0.0
11
0.749978
21
0.007305
31
0.0
0
LINE
8
TOP
10
0.749978
20
0.007305
30
0.0
11
0.749990
21
0.007501
31
0.0
0
LINE
8
TOP
10
0.749990
20
0.007501
30
0.0
11
0.749998
21
0.007698
31
0.0
0
LINE
8
TOP
10
0.749998
20
0.007698
30
0.0
11
0.750000
21
0.007895
31
0.0
0
LINE
8
TOP
10
0.750000
20
0.007895
30
0.0
11
0.749978
21
0.008485
31
0.0
0
LINE
8
TOP
10
0.749978
20
0.008485
30
0.0
11
0.749912
21
0.009071
31
0.0
0
LINE
8
TOP
10
0.749912
20
0.009071
30
0.0
11
0.749802
21
0.009651
31
0.0
0
LINE
8
TOP
10
0.749802
20
0.009651
30
0.0
11
0.749649
21
0.010222
31
0.0
0
LINE
8
TOP
10
0.749649
20
0.010222
30
0.0
11
0.749454
21
0.010779
31
0.0
0
LINE
8
TOP
10
0.749454
20
0.010779
30
0.0
11
0.749218
21
0.011320
31
0.0
0
LINE
8
TOP
10
0.749218
20
0.011320
30
0.0
11
0.748942
21
0.011842
31
0.0
0
LINE
8
TOP
10
0.748942
20
0.011842
30
0.0
11
0.748628
21
0.012342
31
0.0
0
LINE
8
TOP
10
0.748628
20
0.012342
30
0.0
11
0.748278
21
0.012817
31
0.0
0
LINE
8
TOP
10
0.748278
20
0.012817
30
0.0
11
0.747893
21
0.013265
31
0.0
0
LINE
8
TOP
10
0.747893
20
0.013265
30
0.0
11
0.747475
21
0.013682
31
0.0
0
LINE
8
TOP
10
0.747475
20
0.013682
30
0.0
11
0.747028
21
0.014067
31
0.0
0
LINE
8
TOP
10
0.747028
20
0.014067
30
0.0
11
0.746553
21
0.014418
31
0.0
0
LINE
8
TOP
10
0.746553
20
0.014418
30
0.0
11
0.746053
21
0.014732
31
0.0
0
LINE
8
TOP
10
0.746053
20
0.014732
30
0.0
11
0.745531
21
0.015008
31
0.0
0
LINE
8
TOP
10
0.745531
20
0.015008
30
0.0
11
0.744990
21
0.015244
31
0.0
0
LINE
8
TOP
10
0.744990
20
0.015244
30
0.0
11
0.744432
21
0.015439
31
0.0
0
LINE
8
TOP
10
0.744432
20
0.015439
30
0.0
11
0.743862
21
0.015592
31
0.0
0
LINE
8
TOP
10
0.743862
20
0.015592
30
0.0
11
0.743282
21
0.015701
31
0.0
0
LINE
8
TOP
10
0.743282
20
0.015701
30
0.0
11
0.742695
21
0.015767
31
0.0
0
LINE
8
TOP
10
0.742695
20
0.015767
30
0.0
11
0.742105
21
0.015789
31
0.0
0
LINE
8
TOP
10
0.742105
20
0.015789
30
0.0
11
0.741515
21
0.015767
31
0.0
0
LINE
8
TOP
10
0.741515
20
0.015767
30
0.0
11
0.740929
21
0.015701
31
0.0
0
LINE
8
TOP
10
0.740929
20
0.015701
30
0.0
11
0.740349
21
0.015592
31
0.0
0
LINE
8
TOP
10
0.740349
20
0.015592
30
0.0
11
0.739778
21
0.015439
31
0.0
0
LINE
8
TOP
10
0.739778
20
0.015439
30
0.0
11
0.739221
21
0.015244
31
0.0
0
LINE
8
TOP
10
0.739221
20
0.015244
30
0.0
11
0.738680
21
0.015008
31
0.0
0
LINE
8
TOP
10
0.738680
20
0.015008
30
0.0
11
0.738158
21
0.014732
31
0.0
0
LINE
8
TOP
10
0.738158
20
0.014732
30
0.0
11
0.737658
21
0.014418
31
0.0
0
LINE
8
TOP
10
0.737658
20
0.014418
30
0.0
11
0.737183
21
0.014067
31
0.0
0
LINE
8
TOP
10
0.737183
20
0.014067
30
0.0
11
0.736735
21
0.013682
31
0.0
0
LINE
8
TOP
10
0.736735
20
0.013682
30
0.0
11
0.736318
21
0.013265
31
0.0
0
LINE
8
TOP
10
0.736318
20
0.013265
30
0.0
11
0.735933
21
0.012817
31
0.0
0
LINE
8
TOP
10
0.735933
20
0.012817
30
0.0
11
0.735582
21
0.012342
31
0.0
0
LINE
8
TOP
10
0.735582
20
0.012342
30
0.0
11
0.735268
21
0.011842
31
0.0
0
LINE
8
TOP
10
0.735268
20
0.011842
30
0.0
11
0.734992
21
0.011320
31
0.0
0
LINE
8
TOP
10
0.734992
20
0.011320
30
0.0
11
0.734756
21
0.010779
31
0.0
0
LINE
8
TOP
10
0.734756
20
0.010779
30
0.0
11
0.734561
21
0.010222
31
0.0
0
LINE
8
TOP
10
0.734561
20
0.010222
30
0.0
11
0.734408
21
0.009651
31
0.0
0
LINE
8
TOP
10
0.734408
20
0.009651
30
0.0
11
0.734299
21
0.009071
31
0.0
0
LINE
8
TOP
10
0.734299
20
0.009071
30
0.0
11
0.734233
21
0.008485
31
0.0
0
LINE
8
TOP
10
0.734233
20
0.008485
30
0.0
11
0.734211
21
0.007895
31
0.0
0
LINE
8
TOP
10
0.734211
20
0.007895
30
0.0
11
0.734233
21
0.007305
31
0.0
0
LINE
8
TOP
10
0.734233
20
0.007305
30
0.0
11
0.734299
21
0.006718
31
0.0
0
LINE
8
TOP
10
0.734299
20
0.006718
30
0.0
11
0.734408
21
0.006138
31
0.0
0
LINE
8
TOP
10
0.734408
20
0.006138
30
0.0
11
0.734561
21
0.005568
31
0.0
0
LINE
8
TOP
10
0.734561
20
0.005568
30
0.0
11
0.734756
21
0.005010
31
0.0
0
LINE
8
TOP
10
0.734756
20
0.005010
30
0.0
11
0.734992
21
0.004469
31
0.0
0
LINE
8
TOP
10
0.734992
20
0.004469
30
0.0
11
0.735268
21
0.003947
31
0.0
0
LINE
8
TOP
10
0.735268
20
0.003947
30
0.0
11
0.735582
21
0.003447
31
0.0
0
LINE
8
TOP
10
0.735582
20
0.003447
30
0.0
11
0.735933
21
0.002972
31
0.0
0
LINE
8
TOP
10
0.735933
20
0.002972
30
0.0
11
0.736318
21
0.002525
31
0.0
0
LINE
8
TOP
10
0.736318
20
0.002525
30
0.0
11
0.736735
21
0.002107
31
0.0
0
LINE
8
TOP
10
0.736735
20
0.002107
30
0.0
11
0.737183
21
0.001722
31
0.0
0
LINE
8
TOP
10
0.737183
20
0.001722
30
0.0
11
0.737658
21
0.001372
31
0.0
0
LINE
8
TOP
10
0.737658
20
0.001372
30
0.0
11
0.738158
21
0.001058
31
0.0
0
LINE
8
TOP
10
0.738158
20
0.001058
30
0.0
11
0.738680
21
0.000782
31
0.0
0
LINE
8
TOP
10
0.738680
20
0.000782
30
0.0
11
0.739221
21
0.000546
31
0.0
0
LINE
8
TOP
10
0.739221
20
0.000546
30
0.0
11
0.739778
21
0.000351
31
0.0
0
LINE
8
TOP
10
0.739778
20
0.000351
30
0.0
11
0.740349
21
0.000198
31
0.0
0
LINE
8
TOP
10
0.740349
20
0.000198
30
0.0
11
0.740929
21
0.000088
31
0.0
0
LINE
8
TOP
10
0.740929
20
0.000088
30
0.0
11
0.741515
21
0.000022
31
0.0
0
LINE
8
TOP
10
0.741515
20
0.000022
30
0.0
11
0.742105
21
0.000000
31
0.0
0
LINE
8
TOP
10
0.742105
20
0.750000
30
0.0
11
0.741515
21
0.749978
31
0.0
0
LINE
8
TOP
10
0.741515
20
0.749978
30
0.0
11
0.740929
21
0.749912
31
0.0
0
LINE
8
TOP
10
0.740929
20
0.749912
30
0.0
11
0.740349
21
0.749802
31
0.0
0
LINE
8
TOP
10
0.740349
20
0.749802
30
0.0
11
0.739778
21
0.749649
31
0.0
0
LINE
8
TOP
10
0.739778
20
0.749649
30
0.0
11
0.739221
21
0.749454
31
0.0
0
LINE
8
TOP
10
0.739221
20
0.749454
30
0.0
11
0.738680
21
0.749218
31
0.0
0
LINE
8
TOP
10
0.738680
20
0.749218
30
0.0
11
0.738158
21
0.748942
31
0.0
0
LINE
8
TOP
10
0.738158
20
0.748942
30
0.0
11
0.737658
21
0.748628
31
0.0
0
LINE
8
TOP
10
0.737658
20
0.748628
30
0.0
11
0.737183
21
0.748278
31
0.0
0
LINE
8
TOP
10
0.737183
20
0.748278
30
0.0
11
0.736735
21
0.747893
31
0.0
0
LINE
8
TOP
10
0.736735
20
0.747893
30
0.0
11
0.736318
21
0.747475
31
0.0
0
LINE
8
TOP
10
0.736318
20
0.747475
30
0.0
11
0.735933
21
0.747028
31
0.0
0
LINE
8
TOP
10
0.735933
20
0.747028
30
0.0
11
0.735582
21
0.746553
31
0.0
0
LINE
8
TOP
10
0.735582
20
0.746553
30
0.0
11
0.735268
21
0.746053
31
0.0
0
LINE
8
TOP
10
0.735268
20
0.746053
30
0.0
11
0.734992
21
0.745531
31
0.0
0
LINE
8
TOP
10
0.734992
20
0.745531
30
0.0
11
0.734756
21
0.744990
31
0.0
0
LINE
8
TOP
10
0.734756
20
0.744990
30
0.0
11
0.734561
21
0.744432
31
0.0
0
LINE
8
TOP
10
0.734561
20
0.744432
30
0.0
11
0.734408
21
0.743862
31
0.0
0
LINE
8
TOP
10
0.734408
20
0.743862
30
0.0
11
0.734299
21
0.743282
31
0.0
0
LINE
8
TOP
10
0.734299
20
0.743282
30
0.0
11
0.734233
21
0.742695
31
0.0
0
LINE
8
TOP
10
0.734233
20
0.742695
30
0.0
11
0.734211
21
0.742105
31
0.0
0
LINE
8
TOP
10
0.734211
20
0.742105
30
0.0
11
0.734233
21
0.741515
31
0.0
0
LINE
8
TOP
10
0.734233
20
0.741515
30
0.0
11
0.734299
21
0.740929
31
0.0
0
LINE
8
TOP
10
0.734299
20
0.740929
30
0.0
11
0.734408
21
0.740349
31
0.0
0
LINE
8
TOP
10
0.734408
20
0.740349
30
0.0
11
0.734561
21
0.739778
31
0.0
0
LINE
8
TOP
10
0.734561
20
0.739778
30
0.0
11
0.734756
21
0.739221
31
0.0
0
LINE
8
TOP
10
0.734756
20
0.739221
30
0.0
11
0.734992
21
0.738680
31
0.0
0
LINE
8
TOP
10
0.734992
20
0.738680
30
0.0
11
0.735268
21
0.738158
31
0.0
0
LINE
8
TOP
10
0.735268
20
0.738158
30
0.0
11
0.735582
21
0.737658
31
0.0
0
LINE
8
TOP
10
0.735582
20
0.737658
30
0.0
11
0.735933
21
0.737183
31
0.0
0
LINE
8
TOP
10
0.735933
20
0.737183
30
0.0
11
0.736318
21
0.736735
31
0.0
0
LINE
8
TOP
10
0.736318
20
0.736735
30
0.0
11
0.736735
21
0.736318
31
0.0
0
LINE
8
TOP
10
0.736735
20
0.736318
30
0.0
11
0.737183
21
0.735933
31
0.0
0
LINE
8
TOP
10
0.737183
20
0.735933
30
0.0
11
0.737658
21
0.735582
31
0.0
0
LINE
8
TOP
10
0.737658
20
0.735582
30
0.0
11
0.738158
21
0.735268
31
0.0
0
LINE
8
TOP
10
0.738158
20
0.735268
30
0.0
11
0.738680
21
0.734992
31
0.0
0
LINE
8
TOP
10
0.738680
20
0.734992
30
0.0
11
0.739221
21
0.734756
31
0.0
0
LINE
8
TOP
10
0.739221
20
0.734756
30
0.0
11
0.739778
21
0.734561
31
0.0
0
LINE
8
TOP
10
0.739778
20
0.734561
30
0.0
11
0.740349
21
0.734408
31
0.0
0
LINE
8
TOP
10
0.740349
20
0.734408
30
0.0
11
0.740929
21
0.734299
31
0.0
0
LINE
8
TOP
10
0.740929
20
0.734299
30
0.0
11
0.741515
21
0.734233
31
0.0
0
LINE
8
TOP
10
0.741515
20
0.734233
30
0.0
11
0.742105
21
0.734211
31
0.0
0
LINE
8
TOP
10
0.742105
20
0.734211
30
0.0
11
0.742695
21
0.734233
31
0.0
0
LINE
8
TOP
10
0.742695
20
0.734233
30
0.0
11
0.743282
21
0.734299
31
0.0
0
LINE
8
TOP
10
0.743282
20
0.734299
30
0.0
11
0.743862
21
0.734408
31
0.0
0
LINE
8
TOP
10
0.743862
20
0.734408
30
0.0
11
0.744432
21
0.734561
31
0.0
0
LINE
8
TOP
10
0.744432
20
0.734561
30
0.0
11
0.744990
21
0.734756
31
0.0
0
LINE
8
TOP
10
0.744990
20
0.734756
30
0.0
11
0.745531
21
0.734992
31
0.0
0
LINE
8
TOP
10
0.745531
20
0.734992
30
0.0
11
0.746053
21
0.735268
31
0.0
0
LINE
8
TOP
10
0.746053
20
0.735268
30
0.0
11
0.746553
21
0.735582
31
0.0
0
LINE
8
TOP
10
0.746553
20
0.735582
30
0.0
11
0.747028
21
0.735933
31
0.0
0
LINE
8
TOP
10
0.747028
20
0.735933
30
0.0
11
0.747475
21
0.736318
31
0.0
0
LINE
8
TOP
10
0.747475
20
0.736318
30
0.0
11
0.747893
21
0.736735
31
0.0
0
LINE
8
TOP
10
0.747893
20
0.736735
30
0.0
11
0.748278
21
0.737183
31
0.0
0
LINE
8
TOP
10
0.748278
20
0.737183
30
0.0
11
0.748628
21
0.737658
31
0.0
0
LINE
8
TOP
10
0.748628
20
0.737658
30
0.0
11
0.748942
21
0.738158
31
0.0
0
LINE
8
TOP
10
0.748942
20
0.738158
30
0.0
11
0.749218
21
0.738680
31
0.0
0
LINE
8
TOP
10
0.749218
20
0.738680
30
0.0
11
0.749454
21
0.739221
31
0.0
0
LINE
8
TOP
10
0.749454
20
0.739221
30
0.0
11
0.749649
21
0.739778
31
0.0
0
LINE
8
TOP
10
0.749649
20
0.739778
30
0.0
11
0.749802
21
0.740349
31
0.0
0
LINE
8
TOP
10
0.749802
20
0.740349
30
0.0
11
0.749912
21
0.740929
31
0.0
0
LINE
8
TOP
10
0.749912
20
0.740929
30
0.0
11
0.749978
21
0.741515
31
0.0
0
LINE
8
TOP
10
0.749978
20
0.741515
30
0.0
11
0.750000
21
0.742105
31
0.0
0
LINE
8
TOP
10
0.750000
20
0.742105
30
0.0
11
0.749998
21
0.742302
31
0.0
0
LINE
8
TOP
10
0.749998
20
0.742302
30
0.0
11
0.749990
21
0.742499
31
0.0
0
LINE
8
TOP
10
0.749990
20
0.742499
30
0.0
11
0.749978
21
0.742695
31
0.0
0
LINE
8
TOP
10
0.749978
20
0.742695
30
0.0
11
0.749961
21
0.742891
31
0.0
0
LINE
8
TOP
10
0.749961
20
0.742891
30
0.0
11
0.749939
21
0.743087
31
0.0
0
LINE
8
TOP
10
0.749939
20
0.743087
30
0.0
11
0.749912
21
0.743282
31
0.0
0
LINE
8
TOP
10
0.749912
20
0.743282
30
0.0
11
0.749880
21
0.743476
31
0.0
0
LINE
8
TOP
10
0.749880
20
0.743476
30
0.0
11
0.749843
21
0.743670
31
0.0
0
LINE
8
TOP
10
0.749843
20
0.743670
30
0.0
11
0.749802
21
0.743862
31
0.0
0
LINE
8
TOP
10
0.749802
20
0.743862
30
0.0
11
0.749756
21
0.744053
31
0.0
0
LINE
8
TOP
10
0.749756
20
0.744053
30
0.0
11
0.749705
21
0.744243
31
0.0
0
LINE
8
TOP
10
0.749705
20
0.744243
30
0.0
11
0.749649
21
0.744432
31
0.0
0
LINE
8
TOP
10
0.749649
20
0.744432
30
0.0
11
0.749589
21
0.744620
31
0.0
0
LINE
8
TOP
10
0.749589
20
0.744620
30
0.0
11
0.749524
21
0.744805
31
0.0
0
LINE
8
TOP
10
0.749524
20
0.744805
30
0.0
11
0.749454
21
0.744990
31
0.0
0
LINE
8
TOP
10
0.749454
20
0.744990
30
0.0
11
0.749380
21
0.745172
31
0.0
0
LINE
8
TOP
10
0.749380
20
0.745172
30
0.0
11
0.749301
21
0.745352
31
0.0
0
LINE
8
TOP
10
0.749301
20
0.745352
30
0.0
11
0.749218
21
0.745531
31
0.0
0
LINE
8
TOP
10
0.749218
20
0.745531
30
0.0
11
0.749131
21
0.745707
31
0.0
0
LINE
8
TOP
10
0.749131
20
0.745707
30
0.0
11
0.749039
21
0.745881
31
0.0
0
LINE
8
TOP
10
0.749039
20
0.745881
30
0.0
11
0.748942
21
0.746053
31
0.0
0
LINE
8
TOP
10
0.748942
20
0.746053
30
0.0
11
0.748842
21
0.746222
31
0.0
0
LINE
8
TOP
10
0.748842
20
0.746222
30
0.0
11
0.748737
21
0.746389
31
0.0
0
LINE
8
TOP
10
0.748737
20
0.746389
30
0.0
11
0.748628
21
0.746553
31
0.0
0
LINE
8
TOP
10
0.748628
20
0.746553
30
0.0
11
0.748515
21
0.746714
31
0.0
0
LINE
8
TOP
10
0.748515
20
0.746714
30
0.0
11
0.748398
21
0.746872
31
0.0
0
LINE
8
TOP
10
0.748398
20
0.746872
30
0.0
11
0.748278
21
0.747028
31
0.0
0
LINE
8
TOP
10
0.748278
20
0.747028
30
0.0
11
0.748153
21
0.747180
31
0.0
0
LINE
8
TOP
10
0.748153
20
0.747180
30
0.0
11
0.748025
21
0.747329
31
0.0
0
LINE
8
TOP
10
0.748025
20
0.747329
30
0.0
11
0.747893
21
0.747475
31
0.0
0
LINE
8
TOP
10
0.747893
20
0.747475
30
0.0
11
0.747757
21
0.747618
31
0.0
0
LINE
8
TOP
10
0.747757
20
0.747618
30
0.0
11
0.747618
21
0.747757
31
0.0
0
LINE
8
TOP
10
0.747618
20
0.747757
30
0.0
11
0.747475
21
0.747893
31
0.0
0
LINE
8
TOP
10
0.747475
20
0.747893
30
0.0
11
0.747329
21
0.748025
31
0.0
0
LINE
8
TOP
10
0.747329
20
0.748025
30
0.0
11
0.747180
21
0.748153
31
0.0
0
LINE
8
TOP
10
0.747180
20
0.748153
30
0.0
11
0.747028
21
0.748278
31
0.0
0
LINE
8
TOP
10
0.747028
20
0.748278
30
0.0
11
0.746872
21
0.748398
31
0.0
0
LINE
8
TOP
10
0.746872
20
0.748398
30
0.0
11
0.746714
21
0.748515
31
0.0
0
LINE
8
TOP
10
0.746714
20
0.748515
30
0.0
11
0.746553
21
0.748628
31
0.0
0
LINE
8
TOP
10
0.746553
20
0.748628
30
0.0
11
0.746389
21
0.748737
31
0.0
0
LINE
8
TOP
10
0.746389
20
0.748737
30
0.0
11
0.746222
21
0.748842
31
0.0
0
LINE
8
TOP
10
0.746222
20
0.748842
30
0.0
11
0.746053
21
0.748942
31
0.0
0
LINE
8
TOP
10
0.746053
20
0.748942
30
0.0
11
0.745881
21
0.749039
31
0.0
0
LINE
8
TOP
10
0.745881
20
0.749039
30
0.0
11
0.745707
21
0.749131
31
0.0
0
LINE
8
TOP
10
0.745707
20
0.749131
30
0.0
11
0.745531
21
0.749218
31
0.0
0
LINE
8
TOP
10
0.745531
20
0.749218
30
0.0
11
0.745352
21
0.749301
31
0.0
0
LINE
8
TOP
10
0.745352
20
0.749301
30
0.0
11
0.745172
21
0.749380
31
0.0
0
LINE
8
TOP
10
0.745172
20
0.749380
30
0.0
11
0.744990
21
0.749454
31
0.0
0
LINE
8
TOP
10
0.744990
20
0.749454
30
0.0
11
0.744805
21
0.749524
31
0.0
0
LINE
8
TOP
10
0.744805
20
0.749524
30
0.0
11
0.744620
21
0.749589
31
0.0
0
LINE
8
TOP
10
0.744620
20
0.749589
30
0.0
11
0.744432
21
0.749649
31
0.0
0
LINE
8
TOP
10
0.744432
20
0.749649
30
0.0
11
0.744243
21
0.749705
31
0.0
0
LINE
8
TOP
10
0.744243
20
0.749705
30
0.0
11
0.744053
21
0.749756
31
0.0
0
LINE
8
TOP
10
0.744053
20
0.749756
30
0.0
11
0.743862
21
0.749802
31
0.0
0
LINE
8
TOP
10
0.743862
20
0.749802
30
0.0
11
0.743670
21
0.749843
31
0.0
0
LINE
8
TOP
10
0.743670
20
0.749843
30
0.0
11
0.743476
21
0.749880
31
0.0
0
LINE
8
TOP
10
0.743476
20
0.749880
30
0.0
11
0.743282
21
0.749912
31
0.0
0
LINE
8
TOP
10
0.743282
20
0.749912
30
0.0
11
0.743087
21
0.749939
31
0.0
0
LINE
8
TOP
10
0.743087
20
0.749939
30
0.0
11
0.742891
21
0.749961
31
0.0
0
LINE
8
TOP
10
0.742891
20
0.749961
30
0.0
11
0.742695
21
0.749978
31
0.0
0
LINE
8
TOP
10
0.742695
20
0.749978
30
0.0
11
0.742499
21
0.749990
31
0.0
0
LINE
8
TOP
10
0.742499
20
0.749990
30
0.0
11
0.742302
21
0.749998
31
0.0
0
LINE
8
TOP
10
0.742302
20
0.749998
30
0.0
11
0.742105
21
0.750000
31
0.0
0
ENDSEC
0
EOF
