0
SECTION
2
HEADER
9
$ACADVER
1
AC1009
0
ENDSEC
0
SECTION
2
TABLES
0
TABLE
2
LTYPE
70
3
0
LTYPE
2
CONTINUOUS
70
0
3
Solid line
72
65
73
0
40
0.0
0
LTYPE
2
HIDDEN
70
0
3
__ __ __ __ __
72
65
73
2
40
0.037500
49
0.025013
49
-0.012488
0
LTYPE
2
CENTER
70
0
3
___ _ ___ _ ___
72
65
73
4
40
0.087488
49
0.049988
49
-0.012488
49
0.012488
49
-0.012488
0
ENDTAB
0
TABLE
2
LAYER
70
6
0
LAYER
2
0
70
0
62
7
6
CONTINUOUS
0
LAYER
2
FRONT
70
0
62
7
6
CONTINUOUS
0
LAYER
2
FRONT_HID
70
0
62
7
6
HIDDEN
0
LAYER
2
LEFT
70
0
62
7
6
CONTINUOUS
0
LAYER
2
LEFT_HID
70
0
62
7
6
HIDDEN
0
LAYER
2
TOP
70
0
62
7
6
CONTINUOUS
0
ENDTAB
0
ENDSEC
0
SECTION
2
ENTITIES
0
LINE
8
FRONT
10
0.168433
20
0.898355
30
0.0
11
0.067352
21
0.898355
31
0.0
0
LINE
8
FRONT
10
0.067352
20
0.898355
30
0.0
11
0.067352
21
1.648355
31
0.0
0
LINE
8
FRONT
10
0.168433
20
1.648355
30
0.0
11
0.067352
21
1.648355
31
0.0
0
LINE
8
FRONT
10
0.067352
20
1.648355
30
0.0
11
0.000000
21
1.648355
31
0.0
0
LINE
8
FRONT
10
0.000000
20
0.898355
30
0.0
11
0.000000
21
1.648355
31
0.0
0
LINE
8
FRONT
10
0.067352
20
0.898355
30
0.0
11
0.000000
21
0.898355
31
0.0
0
LINE
8
FRONT
10
0.168433
20
1.648355
30
0.0
11
0.168433
21
0.898355
31
0.0
0
LINE
8
FRONT_HID
6
HIDDEN
10
0.000000
20
1.648355
30
0.0
11
0.090973
21
1.648355
31
0.0
0
LINE
8
FRONT_HID
6
HIDDEN
10
0.090973
20
1.648355
30
0.0
11
0.000000
21
1.648355
31
0.0
0
LINE
8
FRONT_HID
6
HIDDEN
10
0.000000
20
0.898355
30
0.0
11
0.090973
21
0.898355
31
0.0
0
LINE
8
FRONT_HID
6
HIDDEN
10
0.090973
20
0.898355
30
0.0
11
0.000000
21
0.898355
31
0.0
0
LINE
8
FRONT_HID
6
HIDDEN
10
0.090973
20
1.648355
30
0.0
11
0.090973
21
0.898355
31
0.0
0
LINE
8
LEFT
10
1.029371
20
0.898355
30
0.0
11
1.029371
21
1.648355
31
0.0
0
LINE
8
LEFT
10
1.029371
20
1.648355
30
0.0
11
1.066789
21
1.648355
31
0.0
0
LINE
8
LEFT
10
1.066789
20
0.898355
30
0.0
11
1.066789
21
1.648355
31
0.0
0
LINE
8
LEFT
10
1.029371
20
0.898355
30
0.0
11
1.066789
21
0.898355
31
0.0
0
LINE
8
LEFT
10
0.318433
20
0.898355
30
0.0
11
0.318433
21
1.648355
31
0.0
0
LINE
8
LEFT
10
0.318433
20
1.648355
30
0.0
11
0.355851
21
1.648355
31
0.0
0
LINE
8
LEFT
10
0.355851
20
0.898355
30
0.0
11
0.355851
21
1.648355
31
0.0
0
LINE
8
LEFT
10
0.318433
20
0.898355
30
0.0
11
0.355851
21
0.898355
31
0.0
0
LINE
8
LEFT
10
0.355851
20
1.648355
30
0.0
11
1.029371
21
1.648355
31
0.0
0
LINE
8
LEFT
10
0.355851
20
0.898355
30
0.0
11
1.029371
21
0.898355
31
0.0
0
LINE
8
LEFT_HID
6
HIDDEN
10
1.066789
20
0.898355
30
0.0
11
0.318433
21
0.898355
31
0.0
0
LINE
8
LEFT_HID
6
HIDDEN
10
1.066789
20
1.648355
30
0.0
11
0.318433
21
1.648355
31
0.0
0
LINE
8
TOP
10
0.000000
20
0.037418
30
0.0
11
0.067352
21
0.000000
31
0.0
0
LINE
8
TOP
10
0.067352
20
0.000000
30
0.0
11
0.073530
21
0.010807
31
0.0
0
LINE
8
TOP
10
0.073530
20
0.010807
30
0.0
11
0.079526
21
0.021716
31
0.0
0
LINE
8
TOP
10
0.079526
20
0.021716
30
0.0
11
0.085338
21
0.032724
31
0.0
0
LINE
8
TOP
10
0.085338
20
0.032724
30
0.0
11
0.090965
21
0.043828
31
0.0
0
LINE
8
TOP
10
0.090965
20
0.043828
30
0.0
11
0.096406
21
0.055024
31
0.0
0
LINE
8
TOP
10
0.096406
20
0.055024
30
0.0
11
0.101658
21
0.066310
31
0.0
0
LINE
8
TOP
10
0.101658
20
0.066310
30
0.0
11
0.106720
21
0.077683
31
0.0
0
LINE
8
TOP
10
0.106720
20
0.077683
30
0.0
11
0.111591
21
0.089138
31
0.0
0
LINE
8
TOP
10
0.111591
20
0.089138
30
0.0
11
0.116270
21
0.100674
31
0.0
0
LINE
8
TOP
10
0.116270
20
0.100674
30
0.0
11
0.120754
21
0.112286
31
0.0
0
LINE
8
TOP
10
0.120754
20
0.112286
30
0.0
11
0.125044
21
0.123972
31
0.0
0
LINE
8
TOP
10
0.125044
20
0.123972
30
0.0
11
0.129137
21
0.135728
31
0.0
0
LINE
8
TOP
10
0.129137
20
0.135728
30
0.0
11
0.133032
21
0.147551
31
0.0
0
LINE
8
TOP
10
0.133032
20
0.147551
30
0.0
11
0.136729
21
0.159438
31
0.0
0
LINE
8
TOP
10
0.136729
20
0.159438
30
0.0
11
0.140227
21
0.171385
31
0.0
0
LINE
8
TOP
10
0.140227
20
0.171385
30
0.0
11
0.143523
21
0.183389
31
0.0
0
LINE
8
TOP
10
0.143523
20
0.183389
30
0.0
11
0.146619
21
0.195446
31
0.0
0
LINE
8
TOP
10
0.146619
20
0.195446
30
0.0
11
0.149511
21
0.207553
31
0.0
0
LINE
8
TOP
10
0.149511
20
0.207553
30
0.0
11
0.152201
21
0.219707
31
0.0
0
LINE
8
TOP
10
0.152201
20
0.219707
30
0.0
11
0.154686
21
0.231905
31
0.0
0
LINE
8
TOP
10
0.154686
20
0.231905
30
0.0
11
0.156967
21
0.244143
31
0.0
0
LINE
8
TOP
10
0.156967
20
0.244143
30
0.0
11
0.159043
21
0.256417
31
0.0
0
LINE
8
TOP
10
0.159043
20
0.256417
30
0.0
11
0.160913
21
0.268724
31
0.0
0
LINE
8
TOP
10
0.160913
20
0.268724
30
0.0
11
0.162576
21
0.281060
31
0.0
0
LINE
8
TOP
10
0.162576
20
0.281060
30
0.0
11
0.164032
21
0.293423
31
0.0
0
LINE
8
TOP
10
0.164032
20
0.293423
30
0.0
11
0.165281
21
0.305808
31
0.0
0
LINE
8
TOP
10
0.165281
20
0.305808
30
0.0
11
0.166323
21
0.318213
31
0.0
0
LINE
8
TOP
10
0.166323
20
0.318213
30
0.0
11
0.167156
21
0.330633
31
0.0
0
LINE
8
TOP
10
0.167156
20
0.330633
30
0.0
11
0.167782
21
0.343066
31
0.0
0
LINE
8
TOP
10
0.167782
20
0.343066
30
0.0
11
0.168199
21
0.355507
31
0.0
0
LINE
8
TOP
10
0.168199
20
0.355507
30
0.0
11
0.168407
21
0.367954
31
0.0
0
LINE
8
TOP
10
0.168407
20
0.367954
30
0.0
11
0.168407
21
0.380402
31
0.0
0
LINE
8
TOP
10
0.168407
20
0.380402
30
0.0
11
0.168199
21
0.392848
31
0.0
0
LINE
8
TOP
10
0.168199
20
0.392848
30
0.0
11
0.167782
21
0.405290
31
0.0
0
LINE
8
TOP
10
0.167782
20
0.405290
30
0.0
11
0.167156
21
0.417722
31
0.0
0
LINE
8
TOP
10
0.167156
20
0.417722
30
0.0
11
0.166323
21
0.430142
31
0.0
0
LINE
8
TOP
10
0.166323
20
0.430142
30
0.0
11
0.165281
21
0.442547
31
0.0
0
LINE
8
TOP
10
0.165281
20
0.442547
30
0.0
11
0.164032
21
0.454932
31
0.0
0
LINE
8
TOP
10
0.164032
20
0.454932
30
0.0
11
0.162576
21
0.467295
31
0.0
0
LINE
8
TOP
10
0.162576
20
0.467295
30
0.0
11
0.160913
21
0.479632
31
0.0
0
LINE
8
TOP
10
0.160913
20
0.479632
30
0.0
11
0.159043
21
0.491939
31
0.0
0
LINE
8
TOP
10
0.159043
20
0.491939
30
0.0
11
0.156967
21
0.504213
31
0.0
0
LINE
8
TOP
10
0.156967
20
0.504213
30
0.0
11
0.154686
21
0.516450
31
0.0
0
LINE
8
TOP
10
0.154686
20
0.516450
30
0.0
11
0.152201
21
0.528648
31
0.0
0
LINE
8
TOP
10
0.152201
20
0.528648
30
0.0
11
0.149511
21
0.540802
31
0.0
0
LINE
8
TOP
10
0.149511
20
0.540802
30
0.0
11
0.146619
21
0.552909
31
0.0
0
LINE
8
TOP
10
0.146619
20
0.552909
30
0.0
11
0.143523
21
0.564967
31
0.0
0
LINE
8
TOP
10
0.143523
20
0.564967
30
0.0
11
0.140227
21
0.576971
31
0.0
0
LINE
8
TOP
10
0.140227
20
0.576971
30
0.0
11
0.136729
21
0.588917
31
0.0
0
LINE
8
TOP
10
0.136729
20
0.588917
30
0.0
11
0.133032
21
0.600804
31
0.0
0
LINE
8
TOP
10
0.133032
20
0.600804
30
0.0
11
0.129137
21
0.612627
31
0.0
0
LINE
8
TOP
10
0.129137
20
0.612627
30
0.0
11
0.125044
21
0.624383
31
0.0
0
LINE
8
TOP
10
0.125044
20
0.624383
30
0.0
11
0.120754
21
0.636069
31
0.0
0
LINE
8
TOP
10
0.120754
20
0.636069
30
0.0
11
0.116270
21
0.647681
31
0.0
0
LINE
8
TOP
10
0.116270
20
0.647681
30
0.0
11
0.111591
21
0.659217
31
0.0
0
LINE
8
TOP
10
0.111591
20
0.659217
30
0.0
11
0.106720
21
0.670673
31
0.0
0
LINE
8
TOP
10
0.106720
20
0.670673
30
0.0
11
0.101658
21
0.682045
31
0.0
0
LINE
8
TOP
10
0.101658
20
0.682045
30
0.0
11
0.096406
21
0.693331
31
0.0
0
LINE
8
TOP
10
0.096406
20
0.693331
30
0.0
11
0.090965
21
0.704527
31
0.0
0
LINE
8
TOP
10
0.090965
20
0.704527
30
0.0
11
0.085338
21
0.715631
31
0.0
0
LINE
8
TOP
10
0.085338
20
0.715631
30
0.0
11
0.079526
21
0.726639
31
0.0
0
LINE
8
TOP
10
0.079526
20
0.726639
30
0.0
11
0.073530
21
0.737548
31
0.0
0
LINE
8
TOP
10
0.073530
20
0.737548
30
0.0
11
0.067352
21
0.748355
31
0.0
0
LINE
8
TOP
10
0.067352
20
0.748355
30
0.0
11
0.000000
21
0.710938
31
0.0
0
LINE
8
TOP
10
0.000000
20
0.710937
30
0.0
11
0.005560
21
0.701211
31
0.0
0
LINE
8
TOP
10
0.005560
20
0.701211
30
0.0
11
0.010956
21
0.691393
31
0.0
0
LINE
8
TOP
10
0.010956
20
0.691393
30
0.0
11
0.016188
21
0.681486
31
0.0
0
LINE
8
TOP
10
0.016188
20
0.681486
30
0.0
11
0.021252
21
0.671492
31
0.0
0
LINE
8
TOP
10
0.021252
20
0.671492
30
0.0
11
0.026148
21
0.661416
31
0.0
0
LINE
8
TOP
10
0.026148
20
0.661416
30
0.0
11
0.030875
21
0.651258
31
0.0
0
LINE
8
TOP
10
0.030875
20
0.651258
30
0.0
11
0.035431
21
0.641023
31
0.0
0
LINE
8
TOP
10
0.035431
20
0.641023
30
0.0
11
0.039815
21
0.630713
31
0.0
0
LINE
8
TOP
10
0.039815
20
0.630713
30
0.0
11
0.044026
21
0.620331
31
0.0
0
LINE
8
TOP
10
0.044026
20
0.620331
30
0.0
11
0.048062
21
0.609880
31
0.0
0
LINE
8
TOP
10
0.048062
20
0.609880
30
0.0
11
0.051922
21
0.599362
31
0.0
0
LINE
8
TOP
10
0.051922
20
0.599362
30
0.0
11
0.055606
21
0.588782
31
0.0
0
LINE
8
TOP
10
0.055606
20
0.588782
30
0.0
11
0.059112
21
0.578141
31
0.0
0
LINE
8
TOP
10
0.059112
20
0.578141
30
0.0
11
0.062440
21
0.567443
31
0.0
0
LINE
8
TOP
10
0.062440
20
0.567443
30
0.0
11
0.065587
21
0.556691
31
0.0
0
LINE
8
TOP
10
0.065587
20
0.556691
30
0.0
11
0.068554
21
0.545888
31
0.0
0
LINE
8
TOP
10
0.068554
20
0.545888
30
0.0
11
0.071340
21
0.535036
31
0.0
0
LINE
8
TOP
10
0.071340
20
0.535036
30
0.0
11
0.073943
21
0.524140
31
0.0
0
LINE
8
TOP
10
0.073943
20
0.524140
30
0.0
11
0.076364
21
0.513201
31
0.0
0
LINE
8
TOP
10
0.076364
20
0.513201
30
0.0
11
0.078601
21
0.502223
31
0.0
0
LINE
8
TOP
10
0.078601
20
0.502223
30
0.0
11
0.080654
21
0.491209
31
0.0
0
LINE
8
TOP
10
0.080654
20
0.491209
30
0.0
11
0.082522
21
0.480163
31
0.0
0
LINE
8
TOP
10
0.082522
20
0.480163
30
0.0
11
0.084205
21
0.469086
31
0.0
0
LINE
8
TOP
10
0.084205
20
0.469086
30
0.0
11
0.085702
21
0.457983
31
0.0
0
LINE
8
TOP
10
0.085702
20
0.457983
30
0.0
11
0.087012
21
0.446857
31
0.0
0
LINE
8
TOP
10
0.087012
20
0.446857
30
0.0
11
0.088136
21
0.435710
31
0.0
0
LINE
8
TOP
10
0.088136
20
0.435710
30
0.0
11
0.089074
21
0.424546
31
0.0
0
LINE
8
TOP
10
0.089074
20
0.424546
30
0.0
11
0.089824
21
0.413368
31
0.0
0
LINE
8
TOP
10
0.089824
20
0.413368
30
0.0
11
0.090387
21
0.402178
31
0.0
0
LINE
8
TOP
10
0.090387
20
0.402178
30
0.0
11
0.090762
21
0.390981
31
0.0
0
LINE
8
TOP
10
0.090762
20
0.390981
30
0.0
11
0.090950
21
0.379779
31
0.0
0
LINE
8
TOP
10
0.090950
20
0.379779
30
0.0
11
0.090950
21
0.368576
31
0.0
0
LINE
8
TOP
10
0.090950
20
0.368576
30
0.0
11
0.090762
21
0.357374
31
0.0
0
LINE
8
TOP
10
0.090762
20
0.357374
30
0.0
11
0.090387
21
0.346177
31
0.0
0
LINE
8
TOP
10
0.090387
20
0.346177
30
0.0
11
0.089824
21
0.334988
31
0.0
0
LINE
8
TOP
10
0.089824
20
0.334988
30
0.0
11
0.089074
21
0.323809
31
0.0
0
LINE
8
TOP
10
0.089074
20
0.323809
30
0.0
11
0.088136
21
0.312645
31
0.0
0
LINE
8
TOP
10
0.088136
20
0.312645
30
0.0
11
0.087012
21
0.301498
31
0.0
0
LINE
8
TOP
10
0.087012
20
0.301498
30
0.0
11
0.085702
21
0.290372
31
0.0
0
LINE
8
TOP
10
0.085702
20
0.290372
30
0.0
11
0.084205
21
0.279269
31
0.0
0
LINE
8
TOP
10
0.084205
20
0.279269
30
0.0
11
0.082522
21
0.268193
31
0.0
0
LINE
8
TOP
10
0.082522
20
0.268193
30
0.0
11
0.080654
21
0.257146
31
0.0
0
LINE
8
TOP
10
0.080654
20
0.257146
30
0.0
11
0.078601
21
0.246132
31
0.0
0
LINE
8
TOP
10
0.078601
20
0.246132
30
0.0
11
0.076364
21
0.235155
31
0.0
0
LINE
8
TOP
10
0.076364
20
0.235155
30
0.0
11
0.073943
21
0.224216
31
0.0
0
LINE
8
TOP
10
0.073943
20
0.224216
30
0.0
11
0.071340
21
0.213319
31
0.0
0
LINE
8
TOP
10
0.071340
20
0.213319
30
0.0
11
0.068554
21
0.202467
31
0.0
0
LINE
8
TOP
10
0.068554
20
0.202467
30
0.0
11
0.065587
21
0.191664
31
0.0
0
LINE
8
TOP
10
0.065587
20
0.191664
30
0.0
11
0.062440
21
0.180912
31
0.0
0
LINE
8
TOP
10
0.062440
20
0.180912
30
0.0
11
0.059112
21
0.170214
31
0.0
0
LINE
8
TOP
10
0.059112
20
0.170214
30
0.0
11
0.055606
21
0.159573
31
0.0
0
LINE
8
TOP
10
0.055606
20
0.159573
30
0.0
11
0.051922
21
0.148993
31
0.0
0
LINE
8
TOP
10
0.051922
20
0.148993
30
0.0
11
0.048062
21
0.138475
31
0.0
0
LINE
8
TOP
10
0.048062
20
0.138475
30
0.0
11
0.044026
21
0.128024
31
0.0
0
LINE
8
TOP
10
0.044026
20
0.128024
30
0.0
11
0.039815
21
0.117642
31
0.0
0
LINE
8
TOP
10
0.039815
20
0.117642
30
0.0
11
0.035431
21
0.107332
31
0.0
0
LINE
8
TOP
10
0.035431
20
0.107332
30
0.0
11
0.030875
21
0.097097
31
0.0
0
LINE
8
TOP
10
0.030875
20
0.097097
30
0.0
11
0.026148
21
0.086940
31
0.0
0
LINE
8
TOP
10
0.026148
20
0.086940
30
0.0
11
0.021252
21
0.076863
31
0.0
0
LINE
8
TOP
10
0.021252
20
0.076863
30
0.0
11
0.016188
21
0.066869
31
0.0
0
LINE
8
TOP
10
0.016188
20
0.066869
30
0.0
11
0.010956
21
0.056962
31
0.0
0
LINE
8
TOP
10
0.010956
20
0.056962
30
0.0
11
0.005560
21
0.047144
31
0.0
0
LINE
8
TOP
10
0.005560
20
0.047144
30
0.0
11
0.000000
21
0.037418
31
0.0
0
ENDSEC
0
EOF
