0
SECTION
2
HEADER
9
$ACADVER
1
AC1009
0
ENDSEC
0
SECTION
2
TABLES
0
TABLE
2
LTYPE
70
3
0
LTYPE
2
CONTINUOUS
70
0
3
Solid line
72
65
73
0
40
0.0
0
LTYPE
2
HIDDEN
70
0
3
__ __ __ __ __
72
65
73
2
40
0.037500
49
0.025013
49
-0.012488
0
LTYPE
2
CENTER
70
0
3
___ _ ___ _ ___
72
65
73
4
40
0.087488
49
0.049988
49
-0.012488
49
0.012488
49
-0.012488
0
ENDTAB
0
TABLE
2
LAYER
70
6
0
LAYER
2
0
70
0
62
7
6
CONTINUOUS
0
LAYER
2
FRONT
70
0
62
7
6
CONTINUOUS
0
LAYER
2
LEFT
70
0
62
7
6
CONTINUOUS
0
LAYER
2
LEFT_HID
70
0
62
7
6
HIDDEN
0
LAYER
2
TOP
70
0
62
7
6
CONTINUOUS
0
LAYER
2
TOP_HID
70
0
62
7
6
HIDDEN
0
ENDTAB
0
ENDSEC
0
SECTION
2
ENTITIES
0
LINE
8
FRONT
10
0.074977
20
0.900000
30
0.0
11
0.082444
21
0.900373
31
0.0
0
LINE
8
FRONT
10
0.082444
20
0.900373
30
0.0
11
0.089838
21
0.901487
31
0.0
0
LINE
8
FRONT
10
0.089838
20
0.901487
30
0.0
11
0.097083
21
0.903332
31
0.0
0
LINE
8
FRONT
10
0.097083
20
0.903332
30
0.0
11
0.104109
21
0.905889
31
0.0
0
LINE
8
FRONT
10
0.104109
20
0.905889
30
0.0
11
0.110846
21
0.909133
31
0.0
0
LINE
8
FRONT
10
0.110846
20
0.909133
30
0.0
11
0.117226
21
0.913032
31
0.0
0
LINE
8
FRONT
10
0.117226
20
0.913032
30
0.0
11
0.123186
21
0.917547
31
0.0
0
LINE
8
FRONT
10
0.123186
20
0.917547
30
0.0
11
0.128667
21
0.922632
31
0.0
0
LINE
8
FRONT
10
0.128667
20
0.922632
30
0.0
11
0.133614
21
0.928238
31
0.0
0
LINE
8
FRONT
10
0.133614
20
0.928238
30
0.0
11
0.137979
21
0.934309
31
0.0
0
LINE
8
FRONT
10
0.137979
20
0.934309
30
0.0
11
0.141717
21
0.940784
31
0.0
0
LINE
8
FRONT
10
0.141717
20
0.940784
30
0.0
11
0.144792
21
0.947599
31
0.0
0
LINE
8
FRONT
10
0.144792
20
0.947599
30
0.0
11
0.147174
21
0.954687
31
0.0
0
LINE
8
FRONT
10
0.147174
20
0.954687
30
0.0
11
0.148837
21
0.961976
31
0.0
0
LINE
8
FRONT
10
0.148837
20
0.961976
30
0.0
11
0.149767
21
0.969395
31
0.0
0
LINE
8
FRONT
10
0.149767
20
0.969395
30
0.0
11
0.149953
21
0.976870
31
0.0
0
LINE
8
FRONT
10
0.149953
20
0.976870
30
0.0
11
0.149395
21
0.984326
31
0.0
0
LINE
8
FRONT
10
0.149395
20
0.984326
30
0.0
11
0.148096
21
0.991689
31
0.0
0
LINE
8
FRONT
10
0.148096
20
0.991689
30
0.0
11
0.146071
21
0.998886
31
0.0
0
LINE
8
FRONT
10
0.146071
20
0.998886
30
0.0
11
0.143340
21
1.005847
31
0.0
0
LINE
8
FRONT
10
0.143340
20
1.005847
30
0.0
11
0.139929
21
1.012500
31
0.0
0
LINE
8
FRONT
10
0.139929
20
1.012500
30
0.0
11
0.135872
21
1.018781
31
0.0
0
LINE
8
FRONT
10
0.135872
20
1.018781
30
0.0
11
0.131210
21
1.024626
31
0.0
0
LINE
8
FRONT
10
0.131210
20
1.024626
30
0.0
11
0.125990
21
1.029979
31
0.0
0
LINE
8
FRONT
10
0.125990
20
1.029979
30
0.0
11
0.120262
21
1.034785
31
0.0
0
LINE
8
FRONT
10
0.120262
20
1.034785
30
0.0
11
0.114084
21
1.038997
31
0.0
0
LINE
8
FRONT
10
0.114084
20
1.038997
30
0.0
11
0.107518
21
1.042573
31
0.0
0
LINE
8
FRONT
10
0.107518
20
1.042573
30
0.0
11
0.100628
21
1.045477
31
0.0
0
LINE
8
FRONT
10
0.100628
20
1.045477
30
0.0
11
0.093483
21
1.047681
31
0.0
0
LINE
8
FRONT
10
0.093483
20
1.047681
30
0.0
11
0.086155
21
1.049162
31
0.0
0
LINE
8
FRONT
10
0.086155
20
1.049162
30
0.0
11
0.078715
21
1.049907
31
0.0
0
LINE
8
FRONT
10
0.078715
20
1.049907
30
0.0
11
0.071238
21
1.049907
31
0.0
0
LINE
8
FRONT
10
0.071238
20
1.049907
30
0.0
11
0.063799
21
1.049162
31
0.0
0
LINE
8
FRONT
10
0.063799
20
1.049162
30
0.0
11
0.056470
21
1.047681
31
0.0
0
LINE
8
FRONT
10
0.056470
20
1.047681
30
0.0
11
0.049325
21
1.045477
31
0.0
0
LINE
8
FRONT
10
0.049325
20
1.045477
30
0.0
11
0.042435
21
1.042573
31
0.0
0
LINE
8
FRONT
10
0.042435
20
1.042573
30
0.0
11
0.035869
21
1.038997
31
0.0
0
LINE
8
FRONT
10
0.035869
20
1.038997
30
0.0
11
0.029691
21
1.034785
31
0.0
0
LINE
8
FRONT
10
0.029691
20
1.034785
30
0.0
11
0.023964
21
1.029979
31
0.0
0
LINE
8
FRONT
10
0.023964
20
1.029979
30
0.0
11
0.018743
21
1.024626
31
0.0
0
LINE
8
FRONT
10
0.018743
20
1.024626
30
0.0
11
0.014081
21
1.018781
31
0.0
0
LINE
8
FRONT
10
0.014081
20
1.018781
30
0.0
11
0.010025
21
1.012500
31
0.0
0
LINE
8
FRONT
10
0.010025
20
1.012500
30
0.0
11
0.006614
21
1.005847
31
0.0
0
LINE
8
FRONT
10
0.006614
20
1.005847
30
0.0
11
0.003882
21
0.998886
31
0.0
0
LINE
8
FRONT
10
0.003882
20
0.998886
30
0.0
11
0.001857
21
0.991689
31
0.0
0
LINE
8
FRONT
10
0.001857
20
0.991689
30
0.0
11
0.000559
21
0.984326
31
0.0
0
LINE
8
FRONT
10
0.000559
20
0.984326
30
0.0
11
0.000000
21
0.976870
31
0.0
0
LINE
8
FRONT
10
0.000000
20
0.976870
30
0.0
11
0.000186
21
0.969395
31
0.0
0
LINE
8
FRONT
10
0.000186
20
0.969395
30
0.0
11
0.001116
21
0.961976
31
0.0
0
LINE
8
FRONT
10
0.001116
20
0.961976
30
0.0
11
0.002780
21
0.954687
31
0.0
0
LINE
8
FRONT
10
0.002780
20
0.954687
30
0.0
11
0.005161
21
0.947599
31
0.0
0
LINE
8
FRONT
10
0.005161
20
0.947599
30
0.0
11
0.008236
21
0.940784
31
0.0
0
LINE
8
FRONT
10
0.008236
20
0.940784
30
0.0
11
0.011975
21
0.934309
31
0.0
0
LINE
8
FRONT
10
0.011975
20
0.934309
30
0.0
11
0.016339
21
0.928238
31
0.0
0
LINE
8
FRONT
10
0.016339
20
0.928238
30
0.0
11
0.021287
21
0.922632
31
0.0
0
LINE
8
FRONT
10
0.021287
20
0.922632
30
0.0
11
0.026768
21
0.917547
31
0.0
0
LINE
8
FRONT
10
0.026768
20
0.917547
30
0.0
11
0.032728
21
0.913032
31
0.0
0
LINE
8
FRONT
10
0.032728
20
0.913032
30
0.0
11
0.039108
21
0.909133
31
0.0
0
LINE
8
FRONT
10
0.039108
20
0.909133
30
0.0
11
0.045844
21
0.905889
31
0.0
0
LINE
8
FRONT
10
0.045844
20
0.905889
30
0.0
11
0.052870
21
0.903332
31
0.0
0
LINE
8
FRONT
10
0.052870
20
0.903332
30
0.0
11
0.060116
21
0.901487
31
0.0
0
LINE
8
FRONT
10
0.060116
20
0.901487
30
0.0
11
0.067509
21
0.900373
31
0.0
0
LINE
8
FRONT
10
0.067509
20
0.900373
30
0.0
11
0.074977
21
0.900000
31
0.0
0
LINE
8
FRONT
10
0.074977
20
0.910938
30
0.0
11
0.081355
21
0.911256
31
0.0
0
LINE
8
FRONT
10
0.081355
20
0.911256
30
0.0
11
0.087670
21
0.912208
31
0.0
0
LINE
8
FRONT
10
0.087670
20
0.912208
30
0.0
11
0.093859
21
0.913784
31
0.0
0
LINE
8
FRONT
10
0.093859
20
0.913784
30
0.0
11
0.099861
21
0.915968
31
0.0
0
LINE
8
FRONT
10
0.099861
20
0.915968
30
0.0
11
0.105615
21
0.918739
31
0.0
0
LINE
8
FRONT
10
0.105615
20
0.918739
30
0.0
11
0.111064
21
0.922069
31
0.0
0
LINE
8
FRONT
10
0.111064
20
0.922069
30
0.0
11
0.116155
21
0.925925
31
0.0
0
LINE
8
FRONT
10
0.116155
20
0.925925
30
0.0
11
0.120837
21
0.930269
31
0.0
0
LINE
8
FRONT
10
0.120837
20
0.930269
30
0.0
11
0.125063
21
0.935058
31
0.0
0
LINE
8
FRONT
10
0.125063
20
0.935058
30
0.0
11
0.128791
21
0.940243
31
0.0
0
LINE
8
FRONT
10
0.128791
20
0.940243
30
0.0
11
0.131984
21
0.945774
31
0.0
0
LINE
8
FRONT
10
0.131984
20
0.945774
30
0.0
11
0.134611
21
0.951595
31
0.0
0
LINE
8
FRONT
10
0.134611
20
0.951595
30
0.0
11
0.136645
21
0.957649
31
0.0
0
LINE
8
FRONT
10
0.136645
20
0.957649
30
0.0
11
0.138066
21
0.963876
31
0.0
0
LINE
8
FRONT
10
0.138066
20
0.963876
30
0.0
11
0.138860
21
0.970213
31
0.0
0
LINE
8
FRONT
10
0.138860
20
0.970213
30
0.0
11
0.139019
21
0.976597
31
0.0
0
LINE
8
FRONT
10
0.139019
20
0.976597
30
0.0
11
0.138542
21
0.982966
31
0.0
0
LINE
8
FRONT
10
0.138542
20
0.982966
30
0.0
11
0.137433
21
0.989255
31
0.0
0
LINE
8
FRONT
10
0.137433
20
0.989255
30
0.0
11
0.135703
21
0.995403
31
0.0
0
LINE
8
FRONT
10
0.135703
20
0.995403
30
0.0
11
0.133370
21
1.001348
31
0.0
0
LINE
8
FRONT
10
0.133370
20
1.001348
30
0.0
11
0.130456
21
1.007031
31
0.0
0
LINE
8
FRONT
10
0.130456
20
1.007031
30
0.0
11
0.126991
21
1.012396
31
0.0
0
LINE
8
FRONT
10
0.126991
20
1.012396
30
0.0
11
0.123010
21
1.017389
31
0.0
0
LINE
8
FRONT
10
0.123010
20
1.017389
30
0.0
11
0.118550
21
1.021961
31
0.0
0
LINE
8
FRONT
10
0.118550
20
1.021961
30
0.0
11
0.113658
21
1.026066
31
0.0
0
LINE
8
FRONT
10
0.113658
20
1.026066
30
0.0
11
0.108381
21
1.029664
31
0.0
0
LINE
8
FRONT
10
0.108381
20
1.029664
30
0.0
11
0.102772
21
1.032718
31
0.0
0
LINE
8
FRONT
10
0.102772
20
1.032718
30
0.0
11
0.096887
21
1.035199
31
0.0
0
LINE
8
FRONT
10
0.096887
20
1.035199
30
0.0
11
0.090785
21
1.037082
31
0.0
0
LINE
8
FRONT
10
0.090785
20
1.037082
30
0.0
11
0.084525
21
1.038347
31
0.0
0
LINE
8
FRONT
10
0.084525
20
1.038347
30
0.0
11
0.078170
21
1.038983
31
0.0
0
LINE
8
FRONT
10
0.078170
20
1.038983
30
0.0
11
0.071783
21
1.038983
31
0.0
0
LINE
8
FRONT
10
0.071783
20
1.038983
30
0.0
11
0.065429
21
1.038347
31
0.0
0
LINE
8
FRONT
10
0.065429
20
1.038347
30
0.0
11
0.059169
21
1.037082
31
0.0
0
LINE
8
FRONT
10
0.059169
20
1.037082
30
0.0
11
0.053066
21
1.035199
31
0.0
0
LINE
8
FRONT
10
0.053066
20
1.035199
30
0.0
11
0.047181
21
1.032718
31
0.0
0
LINE
8
FRONT
10
0.047181
20
1.032718
30
0.0
11
0.041572
21
1.029664
31
0.0
0
LINE
8
FRONT
10
0.041572
20
1.029664
30
0.0
11
0.036295
21
1.026066
31
0.0
0
LINE
8
FRONT
10
0.036295
20
1.026066
30
0.0
11
0.031403
21
1.021961
31
0.0
0
LINE
8
FRONT
10
0.031403
20
1.021961
30
0.0
11
0.026944
21
1.017389
31
0.0
0
LINE
8
FRONT
10
0.026944
20
1.017389
30
0.0
11
0.022962
21
1.012396
31
0.0
0
LINE
8
FRONT
10
0.022962
20
1.012396
30
0.0
11
0.019497
21
1.007031
31
0.0
0
LINE
8
FRONT
10
0.019497
20
1.007031
30
0.0
11
0.016583
21
1.001348
31
0.0
0
LINE
8
FRONT
10
0.016583
20
1.001348
30
0.0
11
0.014250
21
0.995403
31
0.0
0
LINE
8
FRONT
10
0.014250
20
0.995403
30
0.0
11
0.012520
21
0.989255
31
0.0
0
LINE
8
FRONT
10
0.012520
20
0.989255
30
0.0
11
0.011411
21
0.982966
31
0.0
0
LINE
8
FRONT
10
0.011411
20
0.982966
30
0.0
11
0.010934
21
0.976597
31
0.0
0
LINE
8
FRONT
10
0.010934
20
0.976597
30
0.0
11
0.011093
21
0.970213
31
0.0
0
LINE
8
FRONT
10
0.011093
20
0.970213
30
0.0
11
0.011887
21
0.963876
31
0.0
0
LINE
8
FRONT
10
0.011887
20
0.963876
30
0.0
11
0.013309
21
0.957649
31
0.0
0
LINE
8
FRONT
10
0.013309
20
0.957649
30
0.0
11
0.015343
21
0.951595
31
0.0
0
LINE
8
FRONT
10
0.015343
20
0.951595
30
0.0
11
0.017969
21
0.945774
31
0.0
0
LINE
8
FRONT
10
0.017969
20
0.945774
30
0.0
11
0.021163
21
0.940243
31
0.0
0
LINE
8
FRONT
10
0.021163
20
0.940243
30
0.0
11
0.024891
21
0.935058
31
0.0
0
LINE
8
FRONT
10
0.024891
20
0.935058
30
0.0
11
0.029116
21
0.930269
31
0.0
0
LINE
8
FRONT
10
0.029116
20
0.930269
30
0.0
11
0.033798
21
0.925925
31
0.0
0
LINE
8
FRONT
10
0.033798
20
0.925925
30
0.0
11
0.038889
21
0.922069
31
0.0
0
LINE
8
FRONT
10
0.038889
20
0.922069
30
0.0
11
0.044339
21
0.918739
31
0.0
0
LINE
8
FRONT
10
0.044339
20
0.918739
30
0.0
11
0.050093
21
0.915968
31
0.0
0
LINE
8
FRONT
10
0.050093
20
0.915968
30
0.0
11
0.056094
21
0.913784
31
0.0
0
LINE
8
FRONT
10
0.056094
20
0.913784
30
0.0
11
0.062283
21
0.912208
31
0.0
0
LINE
8
FRONT
10
0.062283
20
0.912208
30
0.0
11
0.068598
21
0.911256
31
0.0
0
LINE
8
FRONT
10
0.068598
20
0.911256
30
0.0
11
0.074977
21
0.910938
31
0.0
0
LINE
8
LEFT
10
0.299953
20
1.050000
30
0.0
11
0.299953
21
0.900000
31
0.0
0
LINE
8
LEFT
10
0.299953
20
0.900000
30
0.0
11
1.049953
21
0.900000
31
0.0
0
LINE
8
LEFT
10
1.049953
20
1.050000
30
0.0
11
1.049953
21
0.900000
31
0.0
0
LINE
8
LEFT
10
1.049953
20
1.050000
30
0.0
11
0.299953
21
1.050000
31
0.0
0
LINE
8
LEFT_HID
6
HIDDEN
10
0.299953
20
0.910938
30
0.0
11
0.299953
21
1.039062
31
0.0
0
LINE
8
LEFT_HID
6
HIDDEN
10
0.299953
20
1.039062
30
0.0
11
0.299953
21
0.910938
31
0.0
0
LINE
8
LEFT_HID
6
HIDDEN
10
0.299953
20
0.910938
30
0.0
11
1.049953
21
0.910938
31
0.0
0
LINE
8
LEFT_HID
6
HIDDEN
10
1.049953
20
0.910938
30
0.0
11
1.049953
21
1.039062
31
0.0
0
LINE
8
LEFT_HID
6
HIDDEN
10
1.049953
20
1.039062
30
0.0
11
1.049953
21
0.910938
31
0.0
0
LINE
8
LEFT_HID
6
HIDDEN
10
1.049953
20
1.039062
30
0.0
11
0.299953
21
1.039062
31
0.0
0
LINE
8
TOP
10
0.150000
20
0.750000
30
0.0
11
0.000000
21
0.750000
31
0.0
0
LINE
8
TOP
10
0.150000
20
0.000000
30
0.0
11
0.000000
21
0.000000
31
0.0
0
LINE
8
TOP
10
0.150000
20
0.000000
30
0.0
11
0.150000
21
0.750000
31
0.0
0
LINE
8
TOP
10
0.000000
20
0.000000
30
0.0
11
0.000000
21
0.750000
31
0.0
0
LINE
8
TOP_HID
6
HIDDEN
10
0.075000
20
0.750000
30
0.0
11
0.150000
21
0.750000
31
0.0
0
LINE
8
TOP_HID
6
HIDDEN
10
0.000000
20
0.750000
30
0.0
11
0.075000
21
0.750000
31
0.0
0
LINE
8
TOP_HID
6
HIDDEN
10
0.075000
20
0.000000
30
0.0
11
0.150000
21
0.000000
31
0.0
0
LINE
8
TOP_HID
6
HIDDEN
10
0.000000
20
0.000000
30
0.0
11
0.075000
21
0.000000
31
0.0
0
LINE
8
TOP_HID
6
HIDDEN
10
0.075000
20
0.750000
30
0.0
11
0.139062
21
0.750000
31
0.0
0
LINE
8
TOP_HID
6
HIDDEN
10
0.139062
20
0.750000
30
0.0
11
0.010938
21
0.750000
31
0.0
0
LINE
8
TOP_HID
6
HIDDEN
10
0.010938
20
0.750000
30
0.0
11
0.075000
21
0.750000
31
0.0
0
LINE
8
TOP_HID
6
HIDDEN
10
0.075000
20
0.000000
30
0.0
11
0.139062
21
0.000000
31
0.0
0
LINE
8
TOP_HID
6
HIDDEN
10
0.139062
20
0.000000
30
0.0
11
0.010938
21
0.000000
31
0.0
0
LINE
8
TOP_HID
6
HIDDEN
10
0.010938
20
0.000000
30
0.0
11
0.075000
21
0.000000
31
0.0
0
LINE
8
TOP_HID
6
HIDDEN
10
0.139063
20
0.000000
30
0.0
11
0.139062
21
0.750000
31
0.0
0
LINE
8
TOP_HID
6
HIDDEN
10
0.010938
20
0.000000
30
0.0
11
0.010938
21
0.750000
31
0.0
0
ENDSEC
0
EOF
