0
SECTION
2
HEADER
9
$ACADVER
1
AC1009
0
ENDSEC
0
SECTION
2
TABLES
0
TABLE
2
LTYPE
70
3
0
LTYPE
2
CONTINUOUS
70
0
3
Solid line
72
65
73
0
40
0.0
0
LTYPE
2
HIDDEN
70
0
3
__ __ __ __ __
72
65
73
2
40
0.032031
49
0.021365
49
-0.010666
0
LTYPE
2
CENTER
70
0
3
___ _ ___ _ ___
72
65
73
4
40
0.074729
49
0.042698
49
-0.010666
49
0.010666
49
-0.010666
0
ENDTAB
0
TABLE
2
LAYER
70
6
0
LAYER
2
0
70
0
62
7
6
CONTINUOUS
0
LAYER
2
FRONT
70
0
62
7
6
CONTINUOUS
0
LAYER
2
LEFT
70
0
62
7
6
CONTINUOUS
0
LAYER
2
LEFT_HID
70
0
62
7
6
HIDDEN
0
LAYER
2
TOP
70
0
62
7
6
CONTINUOUS
0
LAYER
2
TOP_HID
70
0
62
7
6
HIDDEN
0
ENDTAB
0
ENDSEC
0
SECTION
2
ENTITIES
0
LINE
8
FRONT
10
0.613527
20
0.399342
30
0.0
11
0.616221
21
0.399477
31
0.0
0
LINE
8
FRONT
10
0.616221
20
0.399477
30
0.0
11
0.618888
21
0.399879
31
0.0
0
LINE
8
FRONT
10
0.618888
20
0.399879
30
0.0
11
0.621502
21
0.400544
31
0.0
0
LINE
8
FRONT
10
0.621502
20
0.400544
30
0.0
11
0.624037
21
0.401467
31
0.0
0
LINE
8
FRONT
10
0.624037
20
0.401467
30
0.0
11
0.626467
21
0.402637
31
0.0
0
LINE
8
FRONT
10
0.626467
20
0.402637
30
0.0
11
0.628769
21
0.404043
31
0.0
0
LINE
8
FRONT
10
0.628769
20
0.404043
30
0.0
11
0.630919
21
0.405672
31
0.0
0
LINE
8
FRONT
10
0.630919
20
0.405672
30
0.0
11
0.632896
21
0.407507
31
0.0
0
LINE
8
FRONT
10
0.632896
20
0.407507
30
0.0
11
0.634681
21
0.409529
31
0.0
0
LINE
8
FRONT
10
0.634681
20
0.409529
30
0.0
11
0.636255
21
0.411719
31
0.0
0
LINE
8
FRONT
10
0.636255
20
0.411719
30
0.0
11
0.637604
21
0.414055
31
0.0
0
LINE
8
FRONT
10
0.637604
20
0.414055
30
0.0
11
0.638713
21
0.416513
31
0.0
0
LINE
8
FRONT
10
0.638713
20
0.416513
30
0.0
11
0.639572
21
0.419070
31
0.0
0
LINE
8
FRONT
10
0.639572
20
0.419070
30
0.0
11
0.640172
21
0.421700
31
0.0
0
LINE
8
FRONT
10
0.640172
20
0.421700
30
0.0
11
0.640508
21
0.424376
31
0.0
0
LINE
8
FRONT
10
0.640508
20
0.424376
30
0.0
11
0.640575
21
0.427073
31
0.0
0
LINE
8
FRONT
10
0.640575
20
0.427073
30
0.0
11
0.640373
21
0.429762
31
0.0
0
LINE
8
FRONT
10
0.640373
20
0.429762
30
0.0
11
0.639905
21
0.432419
31
0.0
0
LINE
8
FRONT
10
0.639905
20
0.432419
30
0.0
11
0.639174
21
0.435015
31
0.0
0
LINE
8
FRONT
10
0.639174
20
0.435015
30
0.0
11
0.638189
21
0.437526
31
0.0
0
LINE
8
FRONT
10
0.638189
20
0.437526
30
0.0
11
0.636958
21
0.439926
31
0.0
0
LINE
8
FRONT
10
0.636958
20
0.439926
30
0.0
11
0.635495
21
0.442192
31
0.0
0
LINE
8
FRONT
10
0.635495
20
0.442192
30
0.0
11
0.633813
21
0.444301
31
0.0
0
LINE
8
FRONT
10
0.633813
20
0.444301
30
0.0
11
0.631930
21
0.446231
31
0.0
0
LINE
8
FRONT
10
0.631930
20
0.446231
30
0.0
11
0.629864
21
0.447965
31
0.0
0
LINE
8
FRONT
10
0.629864
20
0.447965
30
0.0
11
0.627635
21
0.449485
31
0.0
0
LINE
8
FRONT
10
0.627635
20
0.449485
30
0.0
11
0.625266
21
0.450775
31
0.0
0
LINE
8
FRONT
10
0.625266
20
0.450775
30
0.0
11
0.622781
21
0.451822
31
0.0
0
LINE
8
FRONT
10
0.622781
20
0.451822
30
0.0
11
0.620204
21
0.452617
31
0.0
0
LINE
8
FRONT
10
0.620204
20
0.452617
30
0.0
11
0.617560
21
0.453152
31
0.0
0
LINE
8
FRONT
10
0.617560
20
0.453152
30
0.0
11
0.614876
21
0.453420
31
0.0
0
LINE
8
FRONT
10
0.614876
20
0.453420
30
0.0
11
0.612179
21
0.453420
31
0.0
0
LINE
8
FRONT
10
0.612179
20
0.453420
30
0.0
11
0.609495
21
0.453152
31
0.0
0
LINE
8
FRONT
10
0.609495
20
0.453152
30
0.0
11
0.606851
21
0.452617
31
0.0
0
LINE
8
FRONT
10
0.606851
20
0.452617
30
0.0
11
0.604274
21
0.451822
31
0.0
0
LINE
8
FRONT
10
0.604274
20
0.451822
30
0.0
11
0.601788
21
0.450775
31
0.0
0
LINE
8
FRONT
10
0.601788
20
0.450775
30
0.0
11
0.599419
21
0.449485
31
0.0
0
LINE
8
FRONT
10
0.599419
20
0.449485
30
0.0
11
0.597191
21
0.447965
31
0.0
0
LINE
8
FRONT
10
0.597191
20
0.447965
30
0.0
11
0.595125
21
0.446231
31
0.0
0
LINE
8
FRONT
10
0.595125
20
0.446231
30
0.0
11
0.593241
21
0.444301
31
0.0
0
LINE
8
FRONT
10
0.593241
20
0.444301
30
0.0
11
0.591560
21
0.442192
31
0.0
0
LINE
8
FRONT
10
0.591560
20
0.442192
30
0.0
11
0.590096
21
0.439926
31
0.0
0
LINE
8
FRONT
10
0.590096
20
0.439926
30
0.0
11
0.588866
21
0.437526
31
0.0
0
LINE
8
FRONT
10
0.588866
20
0.437526
30
0.0
11
0.587880
21
0.435015
31
0.0
0
LINE
8
FRONT
10
0.587880
20
0.435015
30
0.0
11
0.587150
21
0.432419
31
0.0
0
LINE
8
FRONT
10
0.587150
20
0.432419
30
0.0
11
0.586681
21
0.429762
31
0.0
0
LINE
8
FRONT
10
0.586681
20
0.429762
30
0.0
11
0.586480
21
0.427073
31
0.0
0
LINE
8
FRONT
10
0.586480
20
0.427073
30
0.0
11
0.586547
21
0.424376
31
0.0
0
LINE
8
FRONT
10
0.586547
20
0.424376
30
0.0
11
0.586882
21
0.421700
31
0.0
0
LINE
8
FRONT
10
0.586882
20
0.421700
30
0.0
11
0.587483
21
0.419070
31
0.0
0
LINE
8
FRONT
10
0.587483
20
0.419070
30
0.0
11
0.588342
21
0.416513
31
0.0
0
LINE
8
FRONT
10
0.588342
20
0.416513
30
0.0
11
0.589451
21
0.414055
31
0.0
0
LINE
8
FRONT
10
0.589451
20
0.414055
30
0.0
11
0.590800
21
0.411719
31
0.0
0
LINE
8
FRONT
10
0.590800
20
0.411719
30
0.0
11
0.592374
21
0.409529
31
0.0
0
LINE
8
FRONT
10
0.592374
20
0.409529
30
0.0
11
0.594159
21
0.407507
31
0.0
0
LINE
8
FRONT
10
0.594159
20
0.407507
30
0.0
11
0.596136
21
0.405672
31
0.0
0
LINE
8
FRONT
10
0.596136
20
0.405672
30
0.0
11
0.598286
21
0.404043
31
0.0
0
LINE
8
FRONT
10
0.598286
20
0.404043
30
0.0
11
0.600588
21
0.402637
31
0.0
0
LINE
8
FRONT
10
0.600588
20
0.402637
30
0.0
11
0.603018
21
0.401467
31
0.0
0
LINE
8
FRONT
10
0.603018
20
0.401467
30
0.0
11
0.605552
21
0.400544
31
0.0
0
LINE
8
FRONT
10
0.605552
20
0.400544
30
0.0
11
0.608166
21
0.399879
31
0.0
0
LINE
8
FRONT
10
0.608166
20
0.399879
30
0.0
11
0.610833
21
0.399477
31
0.0
0
LINE
8
FRONT
10
0.610833
20
0.399477
30
0.0
11
0.613527
21
0.399342
31
0.0
0
LINE
8
FRONT
10
0.134169
20
0.292187
30
0.0
11
0.147532
21
0.292854
31
0.0
0
LINE
8
FRONT
10
0.147532
20
0.292854
30
0.0
11
0.160762
21
0.294849
31
0.0
0
LINE
8
FRONT
10
0.160762
20
0.294849
30
0.0
11
0.173728
21
0.298150
31
0.0
0
LINE
8
FRONT
10
0.173728
20
0.298150
30
0.0
11
0.186301
21
0.302726
31
0.0
0
LINE
8
FRONT
10
0.186301
20
0.302726
30
0.0
11
0.198356
21
0.308531
31
0.0
0
LINE
8
FRONT
10
0.198356
20
0.308531
30
0.0
11
0.209772
21
0.315508
31
0.0
0
LINE
8
FRONT
10
0.209772
20
0.315508
30
0.0
11
0.220438
21
0.323587
31
0.0
0
LINE
8
FRONT
10
0.220438
20
0.323587
30
0.0
11
0.230246
21
0.332687
31
0.0
0
LINE
8
FRONT
10
0.230246
20
0.332687
30
0.0
11
0.239099
21
0.342719
31
0.0
0
LINE
8
FRONT
10
0.239099
20
0.342719
30
0.0
11
0.246909
21
0.353583
31
0.0
0
LINE
8
FRONT
10
0.246909
20
0.353583
30
0.0
11
0.253599
21
0.365170
31
0.0
0
LINE
8
FRONT
10
0.253599
20
0.365170
30
0.0
11
0.259102
21
0.377365
31
0.0
0
LINE
8
FRONT
10
0.259102
20
0.377365
30
0.0
11
0.263363
21
0.390048
31
0.0
0
LINE
8
FRONT
10
0.263363
20
0.390048
30
0.0
11
0.266340
21
0.403093
31
0.0
0
LINE
8
FRONT
10
0.266340
20
0.403093
30
0.0
11
0.268004
21
0.416368
31
0.0
0
LINE
8
FRONT
10
0.268004
20
0.416368
30
0.0
11
0.268338
21
0.429744
31
0.0
0
LINE
8
FRONT
10
0.268338
20
0.429744
30
0.0
11
0.267338
21
0.443086
31
0.0
0
LINE
8
FRONT
10
0.267338
20
0.443086
30
0.0
11
0.265014
21
0.456263
31
0.0
0
LINE
8
FRONT
10
0.265014
20
0.456263
30
0.0
11
0.261391
21
0.469142
31
0.0
0
LINE
8
FRONT
10
0.261391
20
0.469142
30
0.0
11
0.256502
21
0.481597
31
0.0
0
LINE
8
FRONT
10
0.256502
20
0.481597
30
0.0
11
0.250399
21
0.493503
31
0.0
0
LINE
8
FRONT
10
0.250399
20
0.493503
30
0.0
11
0.243139
21
0.504743
31
0.0
0
LINE
8
FRONT
10
0.243139
20
0.504743
30
0.0
11
0.234797
21
0.515203
31
0.0
0
LINE
8
FRONT
10
0.234797
20
0.515203
30
0.0
11
0.225455
21
0.524781
31
0.0
0
LINE
8
FRONT
10
0.225455
20
0.524781
30
0.0
11
0.215206
21
0.533382
31
0.0
0
LINE
8
FRONT
10
0.215206
20
0.533382
30
0.0
11
0.204151
21
0.540919
31
0.0
0
LINE
8
FRONT
10
0.204151
20
0.540919
30
0.0
11
0.192401
21
0.547318
31
0.0
0
LINE
8
FRONT
10
0.192401
20
0.547318
30
0.0
11
0.180072
21
0.552515
31
0.0
0
LINE
8
FRONT
10
0.180072
20
0.552515
30
0.0
11
0.167286
21
0.556458
31
0.0
0
LINE
8
FRONT
10
0.167286
20
0.556458
30
0.0
11
0.154172
21
0.559110
31
0.0
0
LINE
8
FRONT
10
0.154172
20
0.559110
30
0.0
11
0.140859
21
0.560442
31
0.0
0
LINE
8
FRONT
10
0.140859
20
0.560442
30
0.0
11
0.127479
21
0.560442
31
0.0
0
LINE
8
FRONT
10
0.127479
20
0.560442
30
0.0
11
0.114166
21
0.559110
31
0.0
0
LINE
8
FRONT
10
0.114166
20
0.559110
30
0.0
11
0.101051
21
0.556458
31
0.0
0
LINE
8
FRONT
10
0.101051
20
0.556458
30
0.0
11
0.088266
21
0.552515
31
0.0
0
LINE
8
FRONT
10
0.088266
20
0.552515
30
0.0
11
0.075937
21
0.547318
31
0.0
0
LINE
8
FRONT
10
0.075937
20
0.547318
30
0.0
11
0.064187
21
0.540919
31
0.0
0
LINE
8
FRONT
10
0.064187
20
0.540919
30
0.0
11
0.053132
21
0.533382
31
0.0
0
LINE
8
FRONT
10
0.053132
20
0.533382
30
0.0
11
0.042882
21
0.524781
31
0.0
0
LINE
8
FRONT
10
0.042882
20
0.524781
30
0.0
11
0.033540
21
0.515203
31
0.0
0
LINE
8
FRONT
10
0.033540
20
0.515203
30
0.0
11
0.025198
21
0.504743
31
0.0
0
LINE
8
FRONT
10
0.025198
20
0.504743
30
0.0
11
0.017939
21
0.493503
31
0.0
0
LINE
8
FRONT
10
0.017939
20
0.493503
30
0.0
11
0.011835
21
0.481597
31
0.0
0
LINE
8
FRONT
10
0.011835
20
0.481597
30
0.0
11
0.006947
21
0.469142
31
0.0
0
LINE
8
FRONT
10
0.006947
20
0.469142
30
0.0
11
0.003323
21
0.456263
31
0.0
0
LINE
8
FRONT
10
0.003323
20
0.456263
30
0.0
11
0.001000
21
0.443086
31
0.0
0
LINE
8
FRONT
10
0.001000
20
0.443086
30
0.0
11
0.000000
21
0.429744
31
0.0
0
LINE
8
FRONT
10
0.000000
20
0.429744
30
0.0
11
0.000334
21
0.416368
31
0.0
0
LINE
8
FRONT
10
0.000334
20
0.416368
30
0.0
11
0.001997
21
0.403093
31
0.0
0
LINE
8
FRONT
10
0.001997
20
0.403093
30
0.0
11
0.004975
21
0.390048
31
0.0
0
LINE
8
FRONT
10
0.004975
20
0.390048
30
0.0
11
0.009236
21
0.377365
31
0.0
0
LINE
8
FRONT
10
0.009236
20
0.377365
30
0.0
11
0.014739
21
0.365170
31
0.0
0
LINE
8
FRONT
10
0.014739
20
0.365170
30
0.0
11
0.021428
21
0.353583
31
0.0
0
LINE
8
FRONT
10
0.021428
20
0.353583
30
0.0
11
0.029239
21
0.342719
31
0.0
0
LINE
8
FRONT
10
0.029239
20
0.342719
30
0.0
11
0.038092
21
0.332687
31
0.0
0
LINE
8
FRONT
10
0.038092
20
0.332687
30
0.0
11
0.047900
21
0.323587
31
0.0
0
LINE
8
FRONT
10
0.047900
20
0.323587
30
0.0
11
0.058565
21
0.315508
31
0.0
0
LINE
8
FRONT
10
0.058565
20
0.315508
30
0.0
11
0.069982
21
0.308531
31
0.0
0
LINE
8
FRONT
10
0.069982
20
0.308531
30
0.0
11
0.082037
21
0.302726
31
0.0
0
LINE
8
FRONT
10
0.082037
20
0.302726
30
0.0
11
0.094610
21
0.298150
31
0.0
0
LINE
8
FRONT
10
0.094610
20
0.298150
30
0.0
11
0.107576
21
0.294849
31
0.0
0
LINE
8
FRONT
10
0.107576
20
0.294849
30
0.0
11
0.120806
21
0.292854
31
0.0
0
LINE
8
FRONT
10
0.120806
20
0.292854
30
0.0
11
0.134169
21
0.292187
31
0.0
0
LINE
8
FRONT
10
0.134169
20
0.303372
30
0.0
11
0.146418
21
0.303983
31
0.0
0
LINE
8
FRONT
10
0.146418
20
0.303983
30
0.0
11
0.158546
21
0.305811
31
0.0
0
LINE
8
FRONT
10
0.158546
20
0.305811
30
0.0
11
0.170431
21
0.308837
31
0.0
0
LINE
8
FRONT
10
0.170431
20
0.308837
30
0.0
11
0.181957
21
0.313032
31
0.0
0
LINE
8
FRONT
10
0.181957
20
0.313032
30
0.0
11
0.193007
21
0.318354
31
0.0
0
LINE
8
FRONT
10
0.193007
20
0.318354
30
0.0
11
0.203472
21
0.324749
31
0.0
0
LINE
8
FRONT
10
0.203472
20
0.324749
30
0.0
11
0.213249
21
0.332154
31
0.0
0
LINE
8
FRONT
10
0.213249
20
0.332154
30
0.0
11
0.222239
21
0.340497
31
0.0
0
LINE
8
FRONT
10
0.222239
20
0.340497
30
0.0
11
0.230355
21
0.349692
31
0.0
0
LINE
8
FRONT
10
0.230355
20
0.349692
30
0.0
11
0.237514
21
0.359651
31
0.0
0
LINE
8
FRONT
10
0.237514
20
0.359651
30
0.0
11
0.243646
21
0.370272
31
0.0
0
LINE
8
FRONT
10
0.243646
20
0.370272
30
0.0
11
0.248691
21
0.381451
31
0.0
0
LINE
8
FRONT
10
0.248691
20
0.381451
30
0.0
11
0.252597
21
0.393078
31
0.0
0
LINE
8
FRONT
10
0.252597
20
0.393078
30
0.0
11
0.255326
21
0.405035
31
0.0
0
LINE
8
FRONT
10
0.255326
20
0.405035
30
0.0
11
0.256851
21
0.417204
31
0.0
0
LINE
8
FRONT
10
0.256851
20
0.417204
30
0.0
11
0.257157
21
0.429465
31
0.0
0
LINE
8
FRONT
10
0.257157
20
0.429465
30
0.0
11
0.256240
21
0.441696
31
0.0
0
LINE
8
FRONT
10
0.256240
20
0.441696
30
0.0
11
0.254111
21
0.453774
31
0.0
0
LINE
8
FRONT
10
0.254111
20
0.453774
30
0.0
11
0.250789
21
0.465580
31
0.0
0
LINE
8
FRONT
10
0.250789
20
0.465580
30
0.0
11
0.246308
21
0.476997
31
0.0
0
LINE
8
FRONT
10
0.246308
20
0.476997
30
0.0
11
0.240713
21
0.487911
31
0.0
0
LINE
8
FRONT
10
0.240713
20
0.487911
30
0.0
11
0.234059
21
0.498214
31
0.0
0
LINE
8
FRONT
10
0.234059
20
0.498214
30
0.0
11
0.226412
21
0.507803
31
0.0
0
LINE
8
FRONT
10
0.226412
20
0.507803
30
0.0
11
0.217848
21
0.516583
31
0.0
0
LINE
8
FRONT
10
0.217848
20
0.516583
30
0.0
11
0.208453
21
0.524466
31
0.0
0
LINE
8
FRONT
10
0.208453
20
0.524466
30
0.0
11
0.198319
21
0.531375
31
0.0
0
LINE
8
FRONT
10
0.198319
20
0.531375
30
0.0
11
0.187548
21
0.537241
31
0.0
0
LINE
8
FRONT
10
0.187548
20
0.537241
30
0.0
11
0.176246
21
0.542005
31
0.0
0
LINE
8
FRONT
10
0.176246
20
0.542005
30
0.0
11
0.164526
21
0.545620
31
0.0
0
LINE
8
FRONT
10
0.164526
20
0.545620
30
0.0
11
0.152505
21
0.548050
31
0.0
0
LINE
8
FRONT
10
0.152505
20
0.548050
30
0.0
11
0.140301
21
0.549271
31
0.0
0
LINE
8
FRONT
10
0.140301
20
0.549271
30
0.0
11
0.128036
21
0.549271
31
0.0
0
LINE
8
FRONT
10
0.128036
20
0.549271
30
0.0
11
0.115833
21
0.548050
31
0.0
0
LINE
8
FRONT
10
0.115833
20
0.548050
30
0.0
11
0.103811
21
0.545620
31
0.0
0
LINE
8
FRONT
10
0.103811
20
0.545620
30
0.0
11
0.092091
21
0.542005
31
0.0
0
LINE
8
FRONT
10
0.092091
20
0.542005
30
0.0
11
0.080790
21
0.537241
31
0.0
0
LINE
8
FRONT
10
0.080790
20
0.537241
30
0.0
11
0.070019
21
0.531375
31
0.0
0
LINE
8
FRONT
10
0.070019
20
0.531375
30
0.0
11
0.059885
21
0.524466
31
0.0
0
LINE
8
FRONT
10
0.059885
20
0.524466
30
0.0
11
0.050490
21
0.516583
31
0.0
0
LINE
8
FRONT
10
0.050490
20
0.516583
30
0.0
11
0.041926
21
0.507803
31
0.0
0
LINE
8
FRONT
10
0.041926
20
0.507803
30
0.0
11
0.034279
21
0.498214
31
0.0
0
LINE
8
FRONT
10
0.034279
20
0.498214
30
0.0
11
0.027625
21
0.487911
31
0.0
0
LINE
8
FRONT
10
0.027625
20
0.487911
30
0.0
11
0.022030
21
0.476997
31
0.0
0
LINE
8
FRONT
10
0.022030
20
0.476997
30
0.0
11
0.017549
21
0.465580
31
0.0
0
LINE
8
FRONT
10
0.017549
20
0.465580
30
0.0
11
0.014227
21
0.453774
31
0.0
0
LINE
8
FRONT
10
0.014227
20
0.453774
30
0.0
11
0.012097
21
0.441696
31
0.0
0
LINE
8
FRONT
10
0.012097
20
0.441696
30
0.0
11
0.011181
21
0.429465
31
0.0
0
LINE
8
FRONT
10
0.011181
20
0.429465
30
0.0
11
0.011487
21
0.417204
31
0.0
0
LINE
8
FRONT
10
0.011487
20
0.417204
30
0.0
11
0.013012
21
0.405035
31
0.0
0
LINE
8
FRONT
10
0.013012
20
0.405035
30
0.0
11
0.015741
21
0.393078
31
0.0
0
LINE
8
FRONT
10
0.015741
20
0.393078
30
0.0
11
0.019647
21
0.381451
31
0.0
0
LINE
8
FRONT
10
0.019647
20
0.381451
30
0.0
11
0.024691
21
0.370272
31
0.0
0
LINE
8
FRONT
10
0.024691
20
0.370272
30
0.0
11
0.030824
21
0.359651
31
0.0
0
LINE
8
FRONT
10
0.030824
20
0.359651
30
0.0
11
0.037983
21
0.349692
31
0.0
0
LINE
8
FRONT
10
0.037983
20
0.349692
30
0.0
11
0.046098
21
0.340497
31
0.0
0
LINE
8
FRONT
10
0.046098
20
0.340497
30
0.0
11
0.055089
21
0.332154
31
0.0
0
LINE
8
FRONT
10
0.055089
20
0.332154
30
0.0
11
0.064866
21
0.324749
31
0.0
0
LINE
8
FRONT
10
0.064866
20
0.324749
30
0.0
11
0.075331
21
0.318354
31
0.0
0
LINE
8
FRONT
10
0.075331
20
0.318354
30
0.0
11
0.086381
21
0.313032
31
0.0
0
LINE
8
FRONT
10
0.086381
20
0.313032
30
0.0
11
0.097906
21
0.308837
31
0.0
0
LINE
8
FRONT
10
0.097906
20
0.308837
30
0.0
11
0.109792
21
0.305811
31
0.0
0
LINE
8
FRONT
10
0.109792
20
0.305811
30
0.0
11
0.121919
21
0.303983
31
0.0
0
LINE
8
FRONT
10
0.121919
20
0.303983
30
0.0
11
0.134169
21
0.303372
31
0.0
0
LINE
8
LEFT
10
0.768700
20
0.560609
30
0.0
11
0.768700
21
0.292187
31
0.0
0
LINE
8
LEFT
10
0.768700
20
0.292187
30
0.0
11
0.932762
21
0.292187
31
0.0
0
LINE
8
LEFT
10
0.932762
20
0.560609
30
0.0
11
0.932762
21
0.292187
31
0.0
0
LINE
8
LEFT
10
0.932762
20
0.560609
30
0.0
11
0.768700
21
0.560609
31
0.0
0
LINE
8
LEFT_HID
6
HIDDEN
10
0.768700
20
0.399342
30
0.0
11
0.768700
21
0.453454
31
0.0
0
LINE
8
LEFT_HID
6
HIDDEN
10
0.768700
20
0.453454
30
0.0
11
0.768700
21
0.399342
31
0.0
0
LINE
8
LEFT_HID
6
HIDDEN
10
0.768700
20
0.399342
30
0.0
11
0.932762
21
0.399342
31
0.0
0
LINE
8
LEFT_HID
6
HIDDEN
10
0.932762
20
0.399342
30
0.0
11
0.932762
21
0.453454
31
0.0
0
LINE
8
LEFT_HID
6
HIDDEN
10
0.932762
20
0.453454
30
0.0
11
0.932762
21
0.399342
31
0.0
0
LINE
8
LEFT_HID
6
HIDDEN
10
0.768700
20
0.303372
30
0.0
11
0.768700
21
0.549424
31
0.0
0
LINE
8
LEFT_HID
6
HIDDEN
10
0.768700
20
0.549424
30
0.0
11
0.768700
21
0.303372
31
0.0
0
LINE
8
LEFT_HID
6
HIDDEN
10
0.768700
20
0.303372
30
0.0
11
0.932762
21
0.303372
31
0.0
0
LINE
8
LEFT_HID
6
HIDDEN
10
0.932762
20
0.303372
30
0.0
11
0.932762
21
0.549424
31
0.0
0
LINE
8
LEFT_HID
6
HIDDEN
10
0.932762
20
0.549424
30
0.0
11
0.932762
21
0.303372
31
0.0
0
LINE
8
LEFT_HID
6
HIDDEN
10
0.932762
20
0.453454
30
0.0
11
0.768700
21
0.453454
31
0.0
0
LINE
8
LEFT_HID
6
HIDDEN
10
0.932762
20
0.549424
30
0.0
11
0.768700
21
0.549424
31
0.0
0
LINE
8
TOP
10
0.640625
20
0.164062
30
0.0
11
0.586513
21
0.164062
31
0.0
0
LINE
8
TOP
10
0.640625
20
0.000000
30
0.0
11
0.586513
21
0.000000
31
0.0
0
LINE
8
TOP
10
0.268421
20
0.164063
30
0.0
11
0.000000
21
0.164062
31
0.0
0
LINE
8
TOP
10
0.268421
20
0.000000
30
0.0
11
0.000000
21
0.000000
31
0.0
0
LINE
8
TOP
10
0.640625
20
0.000000
30
0.0
11
0.640625
21
0.164062
31
0.0
0
LINE
8
TOP
10
0.586513
20
0.000000
30
0.0
11
0.586513
21
0.164062
31
0.0
0
LINE
8
TOP
10
0.268421
20
0.000000
30
0.0
11
0.268421
21
0.164063
31
0.0
0
LINE
8
TOP
10
0.000000
20
0.000000
30
0.0
11
0.000000
21
0.164062
31
0.0
0
LINE
8
TOP_HID
6
HIDDEN
10
0.613569
20
0.164062
30
0.0
11
0.640625
21
0.164062
31
0.0
0
LINE
8
TOP_HID
6
HIDDEN
10
0.586513
20
0.164062
30
0.0
11
0.613569
21
0.164062
31
0.0
0
LINE
8
TOP_HID
6
HIDDEN
10
0.613569
20
0.000000
30
0.0
11
0.640625
21
0.000000
31
0.0
0
LINE
8
TOP_HID
6
HIDDEN
10
0.586513
20
0.000000
30
0.0
11
0.613569
21
0.000000
31
0.0
0
LINE
8
TOP_HID
6
HIDDEN
10
0.134211
20
0.164062
30
0.0
11
0.268421
21
0.164063
31
0.0
0
LINE
8
TOP_HID
6
HIDDEN
10
0.000000
20
0.164062
30
0.0
11
0.134211
21
0.164062
31
0.0
0
LINE
8
TOP_HID
6
HIDDEN
10
0.134211
20
0.000000
30
0.0
11
0.268421
21
0.000000
31
0.0
0
LINE
8
TOP_HID
6
HIDDEN
10
0.000000
20
0.000000
30
0.0
11
0.134211
21
0.000000
31
0.0
0
LINE
8
TOP_HID
6
HIDDEN
10
0.134211
20
0.164062
30
0.0
11
0.257237
21
0.164063
31
0.0
0
LINE
8
TOP_HID
6
HIDDEN
10
0.257237
20
0.164063
30
0.0
11
0.011184
21
0.164062
31
0.0
0
LINE
8
TOP_HID
6
HIDDEN
10
0.011184
20
0.164062
30
0.0
11
0.134211
21
0.164062
31
0.0
0
LINE
8
TOP_HID
6
HIDDEN
10
0.134211
20
0.000000
30
0.0
11
0.257237
21
0.000000
31
0.0
0
LINE
8
TOP_HID
6
HIDDEN
10
0.257237
20
0.000000
30
0.0
11
0.011184
21
0.000000
31
0.0
0
LINE
8
TOP_HID
6
HIDDEN
10
0.011184
20
0.000000
30
0.0
11
0.134211
21
0.000000
31
0.0
0
LINE
8
TOP_HID
6
HIDDEN
10
0.257237
20
0.000000
30
0.0
11
0.257237
21
0.164063
31
0.0
0
LINE
8
TOP_HID
6
HIDDEN
10
0.011184
20
0.000000
30
0.0
11
0.011184
21
0.164062
31
0.0
0
ENDSEC
0
EOF
