0
SECTION
2
HEADER
9
$ACADVER
1
AC1009
0
ENDSEC
0
SECTION
2
TABLES
0
TABLE
2
LTYPE
70
3
0
LTYPE
2
CONTINUOUS
70
0
3
Solid line
72
65
73
0
40
0.0
0
LTYPE
2
HIDDEN
70
0
3
__ __ __ __ __
72
65
73
2
40
0.037500
49
0.025013
49
-0.012488
0
LTYPE
2
CENTER
70
0
3
___ _ ___ _ ___
72
65
73
4
40
0.087488
49
0.049988
49
-0.012488
49
0.012488
49
-0.012488
0
ENDTAB
0
TABLE
2
LAYER
70
6
0
LAYER
2
0
70
0
62
7
6
CONTINUOUS
0
LAYER
2
FRONT
70
0
62
7
6
CONTINUOUS
0
LAYER
2
FRONT_HID
70
0
62
7
6
HIDDEN
0
LAYER
2
LEFT
70
0
62
7
6
CONTINUOUS
0
LAYER
2
LEFT_HID
70
0
62
7
6
HIDDEN
0
LAYER
2
TOP
70
0
62
7
6
CONTINUOUS
0
ENDTAB
0
ENDSEC
0
SECTION
2
ENTITIES
0
LINE
8
FRONT
10
0.750000
20
0.900000
30
0.0
11
0.750000
21
0.962500
31
0.0
0
LINE
8
FRONT
10
0.750000
20
0.962500
30
0.0
11
0.378947
21
0.962500
31
0.0
0
LINE
8
FRONT
10
0.378947
20
0.900000
30
0.0
11
0.378947
21
0.962500
31
0.0
0
LINE
8
FRONT
10
0.750000
20
0.900000
30
0.0
11
0.378947
21
0.900000
31
0.0
0
LINE
8
FRONT
10
0.378947
20
0.962500
30
0.0
11
0.000000
21
0.962500
31
0.0
0
LINE
8
FRONT
10
0.000000
20
0.900000
30
0.0
11
0.000000
21
0.962500
31
0.0
0
LINE
8
FRONT
10
0.378947
20
0.900000
30
0.0
11
0.000000
21
0.900000
31
0.0
0
LINE
8
FRONT_HID
6
HIDDEN
10
0.000000
20
0.962500
30
0.0
11
0.750000
21
0.962500
31
0.0
0
LINE
8
FRONT_HID
6
HIDDEN
10
0.000000
20
0.900000
30
0.0
11
0.750000
21
0.900000
31
0.0
0
LINE
8
FRONT_HID
6
HIDDEN
10
0.292105
20
0.900000
30
0.0
11
0.197368
21
0.900000
31
0.0
0
LINE
8
FRONT_HID
6
HIDDEN
10
0.197368
20
0.900000
30
0.0
11
0.292105
21
0.900000
31
0.0
0
LINE
8
FRONT_HID
6
HIDDEN
10
0.292105
20
0.900000
30
0.0
11
0.292105
21
0.962500
31
0.0
0
LINE
8
FRONT_HID
6
HIDDEN
10
0.292105
20
0.962500
30
0.0
11
0.197368
21
0.962500
31
0.0
0
LINE
8
FRONT_HID
6
HIDDEN
10
0.197368
20
0.962500
30
0.0
11
0.292105
21
0.962500
31
0.0
0
LINE
8
FRONT_HID
6
HIDDEN
10
0.197368
20
0.962500
30
0.0
11
0.197368
21
0.900000
31
0.0
0
LINE
8
LEFT
10
1.650000
20
0.900000
30
0.0
11
1.650000
21
0.962500
31
0.0
0
LINE
8
LEFT
10
0.900000
20
0.900000
30
0.0
11
0.900000
21
0.962500
31
0.0
0
LINE
8
LEFT
10
0.900000
20
0.962500
30
0.0
11
1.650000
21
0.962500
31
0.0
0
LINE
8
LEFT
10
0.900000
20
0.900000
30
0.0
11
1.650000
21
0.900000
31
0.0
0
LINE
8
LEFT_HID
6
HIDDEN
10
1.650000
20
0.962500
30
0.0
11
1.271053
21
0.962500
31
0.0
0
LINE
8
LEFT_HID
6
HIDDEN
10
1.271053
20
0.900000
30
0.0
11
1.271053
21
0.962500
31
0.0
0
LINE
8
LEFT_HID
6
HIDDEN
10
1.650000
20
0.900000
30
0.0
11
1.271053
21
0.900000
31
0.0
0
LINE
8
LEFT_HID
6
HIDDEN
10
1.271053
20
0.962500
30
0.0
11
0.900000
21
0.962500
31
0.0
0
LINE
8
LEFT_HID
6
HIDDEN
10
1.271053
20
0.900000
30
0.0
11
0.900000
21
0.900000
31
0.0
0
LINE
8
LEFT_HID
6
HIDDEN
10
1.405263
20
0.900000
30
0.0
11
1.357895
21
0.900000
31
0.0
0
LINE
8
LEFT_HID
6
HIDDEN
10
1.357895
20
0.900000
30
0.0
11
1.452632
21
0.900000
31
0.0
0
LINE
8
LEFT_HID
6
HIDDEN
10
1.452632
20
0.900000
30
0.0
11
1.405263
21
0.900000
31
0.0
0
LINE
8
LEFT_HID
6
HIDDEN
10
1.405263
20
0.962500
30
0.0
11
1.357895
21
0.962500
31
0.0
0
LINE
8
LEFT_HID
6
HIDDEN
10
1.357895
20
0.962500
30
0.0
11
1.452632
21
0.962500
31
0.0
0
LINE
8
LEFT_HID
6
HIDDEN
10
1.452632
20
0.962500
30
0.0
11
1.405263
21
0.962500
31
0.0
0
LINE
8
LEFT_HID
6
HIDDEN
10
1.357895
20
0.962500
30
0.0
11
1.357895
21
0.900000
31
0.0
0
LINE
8
LEFT_HID
6
HIDDEN
10
1.452632
20
0.962500
30
0.0
11
1.452632
21
0.900000
31
0.0
0
LINE
8
TOP
10
0.000000
20
0.000000
30
0.0
11
0.750000
21
0.000000
31
0.0
0
LINE
8
TOP
10
0.750000
20
0.000000
30
0.0
11
0.378947
21
0.378947
31
0.0
0
LINE
8
TOP
10
0.378947
20
0.378947
30
0.0
11
0.000000
21
0.750000
31
0.0
0
LINE
8
TOP
10
0.000000
20
0.750000
30
0.0
11
0.000000
21
0.000000
31
0.0
0
LINE
8
TOP
10
0.292105
20
0.244737
30
0.0
11
0.291870
21
0.249453
31
0.0
0
LINE
8
TOP
10
0.291870
20
0.249453
30
0.0
11
0.291166
21
0.254123
31
0.0
0
LINE
8
TOP
10
0.291166
20
0.254123
30
0.0
11
0.290001
21
0.258699
31
0.0
0
LINE
8
TOP
10
0.290001
20
0.258699
30
0.0
11
0.288386
21
0.263136
31
0.0
0
LINE
8
TOP
10
0.288386
20
0.263136
30
0.0
11
0.286337
21
0.267391
31
0.0
0
LINE
8
TOP
10
0.286337
20
0.267391
30
0.0
11
0.283874
21
0.271420
31
0.0
0
LINE
8
TOP
10
0.283874
20
0.271420
30
0.0
11
0.281023
21
0.275185
31
0.0
0
LINE
8
TOP
10
0.281023
20
0.275185
30
0.0
11
0.277811
21
0.278646
31
0.0
0
LINE
8
TOP
10
0.277811
20
0.278646
30
0.0
11
0.274271
21
0.281771
31
0.0
0
LINE
8
TOP
10
0.274271
20
0.281771
30
0.0
11
0.270436
21
0.284528
31
0.0
0
LINE
8
TOP
10
0.270436
20
0.284528
30
0.0
11
0.266347
21
0.286889
31
0.0
0
LINE
8
TOP
10
0.266347
20
0.286889
30
0.0
11
0.262042
21
0.288831
31
0.0
0
LINE
8
TOP
10
0.262042
20
0.288831
30
0.0
11
0.257566
21
0.290335
31
0.0
0
LINE
8
TOP
10
0.257566
20
0.290335
30
0.0
11
0.252962
21
0.291386
31
0.0
0
LINE
8
TOP
10
0.252962
20
0.291386
30
0.0
11
0.248277
21
0.291973
31
0.0
0
LINE
8
TOP
10
0.248277
20
0.291973
30
0.0
11
0.243556
21
0.292091
31
0.0
0
LINE
8
TOP
10
0.243556
20
0.292091
30
0.0
11
0.238847
21
0.291738
31
0.0
0
LINE
8
TOP
10
0.238847
20
0.291738
30
0.0
11
0.234196
21
0.290918
31
0.0
0
LINE
8
TOP
10
0.234196
20
0.290918
30
0.0
11
0.229651
21
0.289639
31
0.0
0
LINE
8
TOP
10
0.229651
20
0.289639
30
0.0
11
0.225255
21
0.287913
31
0.0
0
LINE
8
TOP
10
0.225255
20
0.287913
30
0.0
11
0.221053
21
0.285759
31
0.0
0
LINE
8
TOP
10
0.221053
20
0.285759
30
0.0
11
0.217086
21
0.283197
31
0.0
0
LINE
8
TOP
10
0.217086
20
0.283197
30
0.0
11
0.213394
21
0.280253
31
0.0
0
LINE
8
TOP
10
0.213394
20
0.280253
30
0.0
11
0.210013
21
0.276956
31
0.0
0
LINE
8
TOP
10
0.210013
20
0.276956
30
0.0
11
0.206978
21
0.273338
31
0.0
0
LINE
8
TOP
10
0.206978
20
0.273338
30
0.0
11
0.204318
21
0.269436
31
0.0
0
LINE
8
TOP
10
0.204318
20
0.269436
30
0.0
11
0.202059
21
0.265289
31
0.0
0
LINE
8
TOP
10
0.202059
20
0.265289
30
0.0
11
0.200225
21
0.260938
31
0.0
0
LINE
8
TOP
10
0.200225
20
0.260938
30
0.0
11
0.198833
21
0.256425
31
0.0
0
LINE
8
TOP
10
0.198833
20
0.256425
30
0.0
11
0.197897
21
0.251797
31
0.0
0
LINE
8
TOP
10
0.197897
20
0.251797
30
0.0
11
0.197427
21
0.247098
31
0.0
0
LINE
8
TOP
10
0.197427
20
0.247098
30
0.0
11
0.197427
21
0.242376
31
0.0
0
LINE
8
TOP
10
0.197427
20
0.242376
30
0.0
11
0.197897
21
0.237677
31
0.0
0
LINE
8
TOP
10
0.197897
20
0.237677
30
0.0
11
0.198833
21
0.233048
31
0.0
0
LINE
8
TOP
10
0.198833
20
0.233048
30
0.0
11
0.200225
21
0.228536
31
0.0
0
LINE
8
TOP
10
0.200225
20
0.228536
30
0.0
11
0.202059
21
0.224184
31
0.0
0
LINE
8
TOP
10
0.202059
20
0.224184
30
0.0
11
0.204318
21
0.220037
31
0.0
0
LINE
8
TOP
10
0.204318
20
0.220037
30
0.0
11
0.206978
21
0.216136
31
0.0
0
LINE
8
TOP
10
0.206978
20
0.216136
30
0.0
11
0.210013
21
0.212518
31
0.0
0
LINE
8
TOP
10
0.210013
20
0.212518
30
0.0
11
0.213394
21
0.209221
31
0.0
0
LINE
8
TOP
10
0.213394
20
0.209221
30
0.0
11
0.217086
21
0.206277
31
0.0
0
LINE
8
TOP
10
0.217086
20
0.206277
30
0.0
11
0.221053
21
0.203715
31
0.0
0
LINE
8
TOP
10
0.221053
20
0.203715
30
0.0
11
0.225255
21
0.201560
31
0.0
0
LINE
8
TOP
10
0.225255
20
0.201560
30
0.0
11
0.229651
21
0.199835
31
0.0
0
LINE
8
TOP
10
0.229651
20
0.199835
30
0.0
11
0.234196
21
0.198556
31
0.0
0
LINE
8
TOP
10
0.234196
20
0.198556
30
0.0
11
0.238847
21
0.197736
31
0.0
0
LINE
8
TOP
10
0.238847
20
0.197736
30
0.0
11
0.243556
21
0.197383
31
0.0
0
LINE
8
TOP
10
0.243556
20
0.197383
30
0.0
11
0.248277
21
0.197501
31
0.0
0
LINE
8
TOP
10
0.248277
20
0.197501
30
0.0
11
0.252962
21
0.198088
31
0.0
0
LINE
8
TOP
10
0.252962
20
0.198088
30
0.0
11
0.257566
21
0.199139
31
0.0
0
LINE
8
TOP
10
0.257566
20
0.199139
30
0.0
11
0.262042
21
0.200643
31
0.0
0
LINE
8
TOP
10
0.262042
20
0.200643
30
0.0
11
0.266347
21
0.202585
31
0.0
0
LINE
8
TOP
10
0.266347
20
0.202585
30
0.0
11
0.270436
21
0.204946
31
0.0
0
LINE
8
TOP
10
0.270436
20
0.204946
30
0.0
11
0.274271
21
0.207703
31
0.0
0
LINE
8
TOP
10
0.274271
20
0.207703
30
0.0
11
0.277811
21
0.210827
31
0.0
0
LINE
8
TOP
10
0.277811
20
0.210827
30
0.0
11
0.281023
21
0.214289
31
0.0
0
LINE
8
TOP
10
0.281023
20
0.214289
30
0.0
11
0.283874
21
0.218053
31
0.0
0
LINE
8
TOP
10
0.283874
20
0.218053
30
0.0
11
0.286337
21
0.222083
31
0.0
0
LINE
8
TOP
10
0.286337
20
0.222083
30
0.0
11
0.288386
21
0.226337
31
0.0
0
LINE
8
TOP
10
0.288386
20
0.226337
30
0.0
11
0.290001
21
0.230775
31
0.0
0
LINE
8
TOP
10
0.290001
20
0.230775
30
0.0
11
0.291166
21
0.235351
31
0.0
0
LINE
8
TOP
10
0.291166
20
0.235351
30
0.0
11
0.291870
21
0.240020
31
0.0
0
LINE
8
TOP
10
0.291870
20
0.240020
30
0.0
11
0.292105
21
0.244737
31
0.0
0
ENDSEC
0
EOF
