0
SECTION
2
HEADER
9
$ACADVER
1
AC1009
0
ENDSEC
0
SECTION
2
TABLES
0
TABLE
2
LTYPE
70
3
0
LTYPE
2
CONTINUOUS
70
0
3
Solid line
72
65
73
0
40
0.0
0
LTYPE
2
HIDDEN
70
0
3
__ __ __ __ __
72
65
73
2
40
0.037500
49
0.025013
49
-0.012488
0
LTYPE
2
CENTER
70
0
3
___ _ ___ _ ___
72
65
73
4
40
0.087488
49
0.049988
49
-0.012488
49
0.012488
49
-0.012488
0
ENDTAB
0
TABLE
2
LAYER
70
7
0
LAYER
2
0
70
0
62
7
6
CONTINUOUS
0
LAYER
2
FRONT
70
0
62
7
6
CONTINUOUS
0
LAYER
2
FRONT_HID
70
0
62
7
6
HIDDEN
0
LAYER
2
LEFT
70
0
62
7
6
CONTINUOUS
0
LAYER
2
LEFT_HID
70
0
62
7
6
HIDDEN
0
LAYER
2
TOP
70
0
62
7
6
CONTINUOUS
0
LAYER
2
TOP_HID
70
0
62
7
6
HIDDEN
0
ENDTAB
0
ENDSEC
0
SECTION
2
ENTITIES
0
LINE
8
FRONT
10
0.252632
20
0.402553
30
0.0
11
0.000000
21
0.402553
31
0.0
0
LINE
8
FRONT
10
0.252632
20
0.402553
30
0.0
11
0.252632
21
1.152553
31
0.0
0
LINE
8
FRONT
10
0.252632
20
1.152553
30
0.0
11
0.000000
21
1.152553
31
0.0
0
LINE
8
FRONT
10
0.000000
20
1.152553
30
0.0
11
0.000000
21
0.402553
31
0.0
0
LINE
8
FRONT_HID
6
HIDDEN
10
0.228701
20
0.402553
30
0.0
11
0.023438
21
0.402553
31
0.0
0
LINE
8
FRONT_HID
6
HIDDEN
10
0.023438
20
0.402553
30
0.0
11
0.228701
21
0.402553
31
0.0
0
LINE
8
FRONT_HID
6
HIDDEN
10
0.228701
20
0.402553
30
0.0
11
0.228701
21
1.113491
31
0.0
0
LINE
8
FRONT_HID
6
HIDDEN
10
0.228701
20
1.113491
30
0.0
11
0.023438
21
1.113491
31
0.0
0
LINE
8
FRONT_HID
6
HIDDEN
10
0.023438
20
1.113491
30
0.0
11
0.228701
21
1.113491
31
0.0
0
LINE
8
FRONT_HID
6
HIDDEN
10
0.023438
20
1.113491
30
0.0
11
0.023438
21
0.402553
31
0.0
0
LINE
8
LEFT
10
0.402632
20
0.402553
30
0.0
11
0.655263
21
0.402553
31
0.0
0
LINE
8
LEFT
10
0.402632
20
1.152553
30
0.0
11
0.655263
21
1.152553
31
0.0
0
LINE
8
LEFT
10
0.402632
20
1.152553
30
0.0
11
0.402632
21
0.402553
31
0.0
0
LINE
8
LEFT
10
0.655263
20
1.152553
30
0.0
11
0.655263
21
0.402553
31
0.0
0
LINE
8
LEFT_HID
6
HIDDEN
10
0.528947
20
0.402553
30
0.0
11
0.402632
21
0.402553
31
0.0
0
LINE
8
LEFT_HID
6
HIDDEN
10
0.655263
20
0.402553
30
0.0
11
0.528947
21
0.402553
31
0.0
0
LINE
8
LEFT_HID
6
HIDDEN
10
0.528947
20
1.152553
30
0.0
11
0.402632
21
1.152553
31
0.0
0
LINE
8
LEFT_HID
6
HIDDEN
10
0.655263
20
1.152553
30
0.0
11
0.528947
21
1.152553
31
0.0
0
LINE
8
LEFT_HID
6
HIDDEN
10
0.528947
20
0.402553
30
0.0
11
0.426316
21
0.402553
31
0.0
0
LINE
8
LEFT_HID
6
HIDDEN
10
0.426316
20
0.402553
30
0.0
11
0.631579
21
0.402553
31
0.0
0
LINE
8
LEFT_HID
6
HIDDEN
10
0.631579
20
0.402553
30
0.0
11
0.528947
21
0.402553
31
0.0
0
LINE
8
LEFT_HID
6
HIDDEN
10
0.528947
20
1.113491
30
0.0
11
0.426316
21
1.113491
31
0.0
0
LINE
8
LEFT_HID
6
HIDDEN
10
0.426316
20
1.113491
30
0.0
11
0.631579
21
1.113491
31
0.0
0
LINE
8
LEFT_HID
6
HIDDEN
10
0.631579
20
1.113491
30
0.0
11
0.528947
21
1.113491
31
0.0
0
LINE
8
LEFT_HID
6
HIDDEN
10
0.426316
20
1.113491
30
0.0
11
0.426316
21
0.402553
31
0.0
0
LINE
8
LEFT_HID
6
HIDDEN
10
0.631579
20
1.113491
30
0.0
11
0.631579
21
0.402553
31
0.0
0
LINE
8
TOP
10
0.252475
20
0.126277
30
0.0
11
0.251847
21
0.138854
31
0.0
0
LINE
8
TOP
10
0.251847
20
0.138854
30
0.0
11
0.249970
21
0.151306
31
0.0
0
LINE
8
TOP
10
0.249970
20
0.151306
30
0.0
11
0.246863
21
0.163509
31
0.0
0
LINE
8
TOP
10
0.246863
20
0.163509
30
0.0
11
0.242556
21
0.175342
31
0.0
0
LINE
8
TOP
10
0.242556
20
0.175342
30
0.0
11
0.237092
21
0.186688
31
0.0
0
LINE
8
TOP
10
0.237092
20
0.186688
30
0.0
11
0.230526
21
0.197433
31
0.0
0
LINE
8
TOP
10
0.230526
20
0.197433
30
0.0
11
0.222922
21
0.207471
31
0.0
0
LINE
8
TOP
10
0.222922
20
0.207471
30
0.0
11
0.214357
21
0.216702
31
0.0
0
LINE
8
TOP
10
0.214357
20
0.216702
30
0.0
11
0.204915
21
0.225034
31
0.0
0
LINE
8
TOP
10
0.204915
20
0.225034
30
0.0
11
0.194691
21
0.232385
31
0.0
0
LINE
8
TOP
10
0.194691
20
0.232385
30
0.0
11
0.183785
21
0.238681
31
0.0
0
LINE
8
TOP
10
0.183785
20
0.238681
30
0.0
11
0.172307
21
0.243861
31
0.0
0
LINE
8
TOP
10
0.172307
20
0.243861
30
0.0
11
0.160370
21
0.247871
31
0.0
0
LINE
8
TOP
10
0.160370
20
0.247871
30
0.0
11
0.148093
21
0.250673
31
0.0
0
LINE
8
TOP
10
0.148093
20
0.250673
30
0.0
11
0.135598
21
0.252239
31
0.0
0
LINE
8
TOP
10
0.135598
20
0.252239
30
0.0
11
0.123010
21
0.252553
31
0.0
0
LINE
8
TOP
10
0.123010
20
0.252553
30
0.0
11
0.110452
21
0.251612
31
0.0
0
LINE
8
TOP
10
0.110452
20
0.251612
30
0.0
11
0.098051
21
0.249425
31
0.0
0
LINE
8
TOP
10
0.098051
20
0.249425
30
0.0
11
0.085929
21
0.246015
31
0.0
0
LINE
8
TOP
10
0.085929
20
0.246015
30
0.0
11
0.074207
21
0.241414
31
0.0
0
LINE
8
TOP
10
0.074207
20
0.241414
30
0.0
11
0.063001
21
0.235669
31
0.0
0
LINE
8
TOP
10
0.063001
20
0.235669
30
0.0
11
0.052423
21
0.228837
31
0.0
0
LINE
8
TOP
10
0.052423
20
0.228837
30
0.0
11
0.042577
21
0.220986
31
0.0
0
LINE
8
TOP
10
0.042577
20
0.220986
30
0.0
11
0.033563
21
0.212193
31
0.0
0
LINE
8
TOP
10
0.033563
20
0.212193
30
0.0
11
0.025468
21
0.202547
31
0.0
0
LINE
8
TOP
10
0.025468
20
0.202547
30
0.0
11
0.018375
21
0.192142
31
0.0
0
LINE
8
TOP
10
0.018375
20
0.192142
30
0.0
11
0.012352
21
0.181083
31
0.0
0
LINE
8
TOP
10
0.012352
20
0.181083
30
0.0
11
0.007461
21
0.169479
31
0.0
0
LINE
8
TOP
10
0.007461
20
0.169479
30
0.0
11
0.003749
21
0.157446
31
0.0
0
LINE
8
TOP
10
0.003749
20
0.157446
30
0.0
11
0.001254
21
0.145103
31
0.0
0
LINE
8
TOP
10
0.001254
20
0.145103
30
0.0
11
0.000000
21
0.132573
31
0.0
0
LINE
8
TOP
10
0.000000
20
0.132573
30
0.0
11
0.000000
21
0.119980
31
0.0
0
LINE
8
TOP
10
0.000000
20
0.119980
30
0.0
11
0.001254
21
0.107450
31
0.0
0
LINE
8
TOP
10
0.001254
20
0.107450
30
0.0
11
0.003749
21
0.095107
31
0.0
0
LINE
8
TOP
10
0.003749
20
0.095107
30
0.0
11
0.007461
21
0.083074
31
0.0
0
LINE
8
TOP
10
0.007461
20
0.083074
30
0.0
11
0.012352
21
0.071470
31
0.0
0
LINE
8
TOP
10
0.012352
20
0.071470
30
0.0
11
0.018375
21
0.060411
31
0.0
0
LINE
8
TOP
10
0.018375
20
0.060411
30
0.0
11
0.025468
21
0.050006
31
0.0
0
LINE
8
TOP
10
0.025468
20
0.050006
30
0.0
11
0.033563
21
0.040360
31
0.0
0
LINE
8
TOP
10
0.033563
20
0.040360
30
0.0
11
0.042577
21
0.031567
31
0.0
0
LINE
8
TOP
10
0.042577
20
0.031567
30
0.0
11
0.052423
21
0.023716
31
0.0
0
LINE
8
TOP
10
0.052423
20
0.023716
30
0.0
11
0.063001
21
0.016884
31
0.0
0
LINE
8
TOP
10
0.063001
20
0.016884
30
0.0
11
0.074207
21
0.011139
31
0.0
0
LINE
8
TOP
10
0.074207
20
0.011139
30
0.0
11
0.085929
21
0.006538
31
0.0
0
LINE
8
TOP
10
0.085929
20
0.006538
30
0.0
11
0.098051
21
0.003128
31
0.0
0
LINE
8
TOP
10
0.098051
20
0.003128
30
0.0
11
0.110452
21
0.000941
31
0.0
0
LINE
8
TOP
10
0.110452
20
0.000941
30
0.0
11
0.123010
21
0.000000
31
0.0
0
LINE
8
TOP
10
0.123010
20
0.000000
30
0.0
11
0.135598
21
0.000314
31
0.0
0
LINE
8
TOP
10
0.135598
20
0.000314
30
0.0
11
0.148093
21
0.001880
31
0.0
0
LINE
8
TOP
10
0.148093
20
0.001880
30
0.0
11
0.160370
21
0.004682
31
0.0
0
LINE
8
TOP
10
0.160370
20
0.004682
30
0.0
11
0.172307
21
0.008692
31
0.0
0
LINE
8
TOP
10
0.172307
20
0.008692
30
0.0
11
0.183785
21
0.013872
31
0.0
0
LINE
8
TOP
10
0.183785
20
0.013872
30
0.0
11
0.194691
21
0.020168
31
0.0
0
LINE
8
TOP
10
0.194691
20
0.020168
30
0.0
11
0.204915
21
0.027519
31
0.0
0
LINE
8
TOP
10
0.204915
20
0.027519
30
0.0
11
0.214357
21
0.035851
31
0.0
0
LINE
8
TOP
10
0.214357
20
0.035851
30
0.0
11
0.222922
21
0.045082
31
0.0
0
LINE
8
TOP
10
0.222922
20
0.045082
30
0.0
11
0.230526
21
0.055120
31
0.0
0
LINE
8
TOP
10
0.230526
20
0.055120
30
0.0
11
0.237092
21
0.065865
31
0.0
0
LINE
8
TOP
10
0.237092
20
0.065865
30
0.0
11
0.242556
21
0.077211
31
0.0
0
LINE
8
TOP
10
0.242556
20
0.077211
30
0.0
11
0.246863
21
0.089044
31
0.0
0
LINE
8
TOP
10
0.246863
20
0.089044
30
0.0
11
0.249970
21
0.101248
31
0.0
0
LINE
8
TOP
10
0.249970
20
0.101248
30
0.0
11
0.251847
21
0.113700
31
0.0
0
LINE
8
TOP
10
0.251847
20
0.113700
30
0.0
11
0.252475
21
0.126277
31
0.0
0
LINE
8
TOP_HID
6
HIDDEN
10
0.228544
20
0.126277
30
0.0
11
0.228034
21
0.136495
31
0.0
0
LINE
8
TOP_HID
6
HIDDEN
10
0.228034
20
0.136495
30
0.0
11
0.226509
21
0.146613
31
0.0
0
LINE
8
TOP_HID
6
HIDDEN
10
0.226509
20
0.146613
30
0.0
11
0.223984
21
0.156528
31
0.0
0
LINE
8
TOP_HID
6
HIDDEN
10
0.223984
20
0.156528
30
0.0
11
0.220485
21
0.166142
31
0.0
0
LINE
8
TOP_HID
6
HIDDEN
10
0.220485
20
0.166142
30
0.0
11
0.216045
21
0.175360
31
0.0
0
LINE
8
TOP_HID
6
HIDDEN
10
0.216045
20
0.175360
30
0.0
11
0.210710
21
0.184091
31
0.0
0
LINE
8
TOP_HID
6
HIDDEN
10
0.210710
20
0.184091
30
0.0
11
0.204532
21
0.192247
31
0.0
0
LINE
8
TOP_HID
6
HIDDEN
10
0.204532
20
0.192247
30
0.0
11
0.197573
21
0.199747
31
0.0
0
LINE
8
TOP_HID
6
HIDDEN
10
0.197573
20
0.199747
30
0.0
11
0.189902
21
0.206517
31
0.0
0
LINE
8
TOP_HID
6
HIDDEN
10
0.189902
20
0.206517
30
0.0
11
0.181594
21
0.212490
31
0.0
0
LINE
8
TOP_HID
6
HIDDEN
10
0.181594
20
0.212490
30
0.0
11
0.172734
21
0.217605
31
0.0
0
LINE
8
TOP_HID
6
HIDDEN
10
0.172734
20
0.217605
30
0.0
11
0.163408
21
0.221814
31
0.0
0
LINE
8
TOP_HID
6
HIDDEN
10
0.163408
20
0.221814
30
0.0
11
0.153709
21
0.225072
31
0.0
0
LINE
8
TOP_HID
6
HIDDEN
10
0.153709
20
0.225072
30
0.0
11
0.143734
21
0.227349
31
0.0
0
LINE
8
TOP_HID
6
HIDDEN
10
0.143734
20
0.227349
30
0.0
11
0.133582
21
0.228621
31
0.0
0
LINE
8
TOP_HID
6
HIDDEN
10
0.133582
20
0.228621
30
0.0
11
0.123353
21
0.228876
31
0.0
0
LINE
8
TOP_HID
6
HIDDEN
10
0.123353
20
0.228876
30
0.0
11
0.113150
21
0.228112
31
0.0
0
LINE
8
TOP_HID
6
HIDDEN
10
0.113150
20
0.228112
30
0.0
11
0.103074
21
0.226335
31
0.0
0
LINE
8
TOP_HID
6
HIDDEN
10
0.103074
20
0.226335
30
0.0
11
0.093225
21
0.223564
31
0.0
0
LINE
8
TOP_HID
6
HIDDEN
10
0.093225
20
0.223564
30
0.0
11
0.083701
21
0.219826
31
0.0
0
LINE
8
TOP_HID
6
HIDDEN
10
0.083701
20
0.219826
30
0.0
11
0.074596
21
0.215158
31
0.0
0
LINE
8
TOP_HID
6
HIDDEN
10
0.074596
20
0.215158
30
0.0
11
0.066002
21
0.209607
31
0.0
0
LINE
8
TOP_HID
6
HIDDEN
10
0.066002
20
0.209607
30
0.0
11
0.058002
21
0.203228
31
0.0
0
LINE
8
TOP_HID
6
HIDDEN
10
0.058002
20
0.203228
30
0.0
11
0.050678
21
0.196084
31
0.0
0
LINE
8
TOP_HID
6
HIDDEN
10
0.050678
20
0.196084
30
0.0
11
0.044101
21
0.188246
31
0.0
0
LINE
8
TOP_HID
6
HIDDEN
10
0.044101
20
0.188246
30
0.0
11
0.038337
21
0.179792
31
0.0
0
LINE
8
TOP_HID
6
HIDDEN
10
0.038337
20
0.179792
30
0.0
11
0.033444
21
0.170807
31
0.0
0
LINE
8
TOP_HID
6
HIDDEN
10
0.033444
20
0.170807
30
0.0
11
0.029470
21
0.161379
31
0.0
0
LINE
8
TOP_HID
6
HIDDEN
10
0.029470
20
0.161379
30
0.0
11
0.026454
21
0.151602
31
0.0
0
LINE
8
TOP_HID
6
HIDDEN
10
0.026454
20
0.151602
30
0.0
11
0.024427
21
0.141573
31
0.0
0
LINE
8
TOP_HID
6
HIDDEN
10
0.024427
20
0.141573
30
0.0
11
0.023408
21
0.131392
31
0.0
0
LINE
8
TOP_HID
6
HIDDEN
10
0.023408
20
0.131392
30
0.0
11
0.023408
21
0.121161
31
0.0
0
LINE
8
TOP_HID
6
HIDDEN
10
0.023408
20
0.121161
30
0.0
11
0.024427
21
0.110980
31
0.0
0
LINE
8
TOP_HID
6
HIDDEN
10
0.024427
20
0.110980
30
0.0
11
0.026454
21
0.100951
31
0.0
0
LINE
8
TOP_HID
6
HIDDEN
10
0.026454
20
0.100951
30
0.0
11
0.029470
21
0.091174
31
0.0
0
LINE
8
TOP_HID
6
HIDDEN
10
0.029470
20
0.091174
30
0.0
11
0.033444
21
0.081746
31
0.0
0
LINE
8
TOP_HID
6
HIDDEN
10
0.033444
20
0.081746
30
0.0
11
0.038337
21
0.072761
31
0.0
0
LINE
8
TOP_HID
6
HIDDEN
10
0.038337
20
0.072761
30
0.0
11
0.044101
21
0.064307
31
0.0
0
LINE
8
TOP_HID
6
HIDDEN
10
0.044101
20
0.064307
30
0.0
11
0.050678
21
0.056469
31
0.0
0
LINE
8
TOP_HID
6
HIDDEN
10
0.050678
20
0.056469
30
0.0
11
0.058002
21
0.049325
31
0.0
0
LINE
8
TOP_HID
6
HIDDEN
10
0.058002
20
0.049325
30
0.0
11
0.066002
21
0.042946
31
0.0
0
LINE
8
TOP_HID
6
HIDDEN
10
0.066002
20
0.042946
30
0.0
11
0.074596
21
0.037395
31
0.0
0
LINE
8
TOP_HID
6
HIDDEN
10
0.074596
20
0.037395
30
0.0
11
0.083701
21
0.032727
31
0.0
0
LINE
8
TOP_HID
6
HIDDEN
10
0.083701
20
0.032727
30
0.0
11
0.093225
21
0.028989
31
0.0
0
LINE
8
TOP_HID
6
HIDDEN
10
0.093225
20
0.028989
30
0.0
11
0.103074
21
0.026218
31
0.0
0
LINE
8
TOP_HID
6
HIDDEN
10
0.103074
20
0.026218
30
0.0
11
0.113150
21
0.024441
31
0.0
0
LINE
8
TOP_HID
6
HIDDEN
10
0.113150
20
0.024441
30
0.0
11
0.123353
21
0.023677
31
0.0
0
LINE
8
TOP_HID
6
HIDDEN
10
0.123353
20
0.023677
30
0.0
11
0.133582
21
0.023932
31
0.0
0
LINE
8
TOP_HID
6
HIDDEN
10
0.133582
20
0.023932
30
0.0
11
0.143734
21
0.025204
31
0.0
0
LINE
8
TOP_HID
6
HIDDEN
10
0.143734
20
0.025204
30
0.0
11
0.153709
21
0.027481
31
0.0
0
LINE
8
TOP_HID
6
HIDDEN
10
0.153709
20
0.027481
30
0.0
11
0.163408
21
0.030739
31
0.0
0
LINE
8
TOP_HID
6
HIDDEN
10
0.163408
20
0.030739
30
0.0
11
0.172734
21
0.034948
31
0.0
0
LINE
8
TOP_HID
6
HIDDEN
10
0.172734
20
0.034948
30
0.0
11
0.181594
21
0.040063
31
0.0
0
LINE
8
TOP_HID
6
HIDDEN
10
0.181594
20
0.040063
30
0.0
11
0.189902
21
0.046036
31
0.0
0
LINE
8
TOP_HID
6
HIDDEN
10
0.189902
20
0.046036
30
0.0
11
0.197573
21
0.052806
31
0.0
0
LINE
8
TOP_HID
6
HIDDEN
10
0.197573
20
0.052806
30
0.0
11
0.204532
21
0.060306
31
0.0
0
LINE
8
TOP_HID
6
HIDDEN
10
0.204532
20
0.060306
30
0.0
11
0.210710
21
0.068462
31
0.0
0
LINE
8
TOP_HID
6
HIDDEN
10
0.210710
20
0.068462
30
0.0
11
0.216045
21
0.077193
31
0.0
0
LINE
8
TOP_HID
6
HIDDEN
10
0.216045
20
0.077193
30
0.0
11
0.220485
21
0.086411
31
0.0
0
LINE
8
TOP_HID
6
HIDDEN
10
0.220485
20
0.086411
30
0.0
11
0.223984
21
0.096025
31
0.0
0
LINE
8
TOP_HID
6
HIDDEN
10
0.223984
20
0.096025
30
0.0
11
0.226509
21
0.105940
31
0.0
0
LINE
8
TOP_HID
6
HIDDEN
10
0.226509
20
0.105940
30
0.0
11
0.228034
21
0.116058
31
0.0
0
LINE
8
TOP_HID
6
HIDDEN
10
0.228034
20
0.116058
30
0.0
11
0.228544
21
0.126277
31
0.0
0
LINE
8
TOP_HID
6
HIDDEN
10
0.228544
20
0.126277
30
0.0
11
0.228034
21
0.136495
31
0.0
0
LINE
8
TOP_HID
6
HIDDEN
10
0.228034
20
0.136495
30
0.0
11
0.226509
21
0.146613
31
0.0
0
LINE
8
TOP_HID
6
HIDDEN
10
0.226509
20
0.146613
30
0.0
11
0.223984
21
0.156528
31
0.0
0
LINE
8
TOP_HID
6
HIDDEN
10
0.223984
20
0.156528
30
0.0
11
0.220485
21
0.166142
31
0.0
0
LINE
8
TOP_HID
6
HIDDEN
10
0.220485
20
0.166142
30
0.0
11
0.216045
21
0.175360
31
0.0
0
LINE
8
TOP_HID
6
HIDDEN
10
0.216045
20
0.175360
30
0.0
11
0.210710
21
0.184091
31
0.0
0
LINE
8
TOP_HID
6
HIDDEN
10
0.210710
20
0.184091
30
0.0
11
0.204532
21
0.192247
31
0.0
0
LINE
8
TOP_HID
6
HIDDEN
10
0.204532
20
0.192247
30
0.0
11
0.197573
21
0.199747
31
0.0
0
LINE
8
TOP_HID
6
HIDDEN
10
0.197573
20
0.199747
30
0.0
11
0.189902
21
0.206517
31
0.0
0
LINE
8
TOP_HID
6
HIDDEN
10
0.189902
20
0.206517
30
0.0
11
0.181594
21
0.212490
31
0.0
0
LINE
8
TOP_HID
6
HIDDEN
10
0.181594
20
0.212490
30
0.0
11
0.172734
21
0.217605
31
0.0
0
LINE
8
TOP_HID
6
HIDDEN
10
0.172734
20
0.217605
30
0.0
11
0.163408
21
0.221814
31
0.0
0
LINE
8
TOP_HID
6
HIDDEN
10
0.163408
20
0.221814
30
0.0
11
0.153709
21
0.225072
31
0.0
0
LINE
8
TOP_HID
6
HIDDEN
10
0.153709
20
0.225072
30
0.0
11
0.143734
21
0.227349
31
0.0
0
LINE
8
TOP_HID
6
HIDDEN
10
0.143734
20
0.227349
30
0.0
11
0.133582
21
0.228621
31
0.0
0
LINE
8
TOP_HID
6
HIDDEN
10
0.133582
20
0.228621
30
0.0
11
0.123353
21
0.228876
31
0.0
0
LINE
8
TOP_HID
6
HIDDEN
10
0.123353
20
0.228876
30
0.0
11
0.113150
21
0.228112
31
0.0
0
LINE
8
TOP_HID
6
HIDDEN
10
0.113150
20
0.228112
30
0.0
11
0.103074
21
0.226335
31
0.0
0
LINE
8
TOP_HID
6
HIDDEN
10
0.103074
20
0.226335
30
0.0
11
0.093225
21
0.223564
31
0.0
0
LINE
8
TOP_HID
6
HIDDEN
10
0.093225
20
0.223564
30
0.0
11
0.083701
21
0.219826
31
0.0
0
LINE
8
TOP_HID
6
HIDDEN
10
0.083701
20
0.219826
30
0.0
11
0.074596
21
0.215158
31
0.0
0
LINE
8
TOP_HID
6
HIDDEN
10
0.074596
20
0.215158
30
0.0
11
0.066002
21
0.209607
31
0.0
0
LINE
8
TOP_HID
6
HIDDEN
10
0.066002
20
0.209607
30
0.0
11
0.058002
21
0.203228
31
0.0
0
LINE
8
TOP_HID
6
HIDDEN
10
0.058002
20
0.203228
30
0.0
11
0.050678
21
0.196084
31
0.0
0
LINE
8
TOP_HID
6
HIDDEN
10
0.050678
20
0.196084
30
0.0
11
0.044101
21
0.188246
31
0.0
0
LINE
8
TOP_HID
6
HIDDEN
10
0.044101
20
0.188246
30
0.0
11
0.038337
21
0.179792
31
0.0
0
LINE
8
TOP_HID
6
HIDDEN
10
0.038337
20
0.179792
30
0.0
11
0.033444
21
0.170807
31
0.0
0
LINE
8
TOP_HID
6
HIDDEN
10
0.033444
20
0.170807
30
0.0
11
0.029470
21
0.161379
31
0.0
0
LINE
8
TOP_HID
6
HIDDEN
10
0.029470
20
0.161379
30
0.0
11
0.026454
21
0.151602
31
0.0
0
LINE
8
TOP_HID
6
HIDDEN
10
0.026454
20
0.151602
30
0.0
11
0.024427
21
0.141573
31
0.0
0
LINE
8
TOP_HID
6
HIDDEN
10
0.024427
20
0.141573
30
0.0
11
0.023408
21
0.131392
31
0.0
0
LINE
8
TOP_HID
6
HIDDEN
10
0.023408
20
0.131392
30
0.0
11
0.023408
21
0.121161
31
0.0
0
LINE
8
TOP_HID
6
HIDDEN
10
0.023408
20
0.121161
30
0.0
11
0.024427
21
0.110980
31
0.0
0
LINE
8
TOP_HID
6
HIDDEN
10
0.024427
20
0.110980
30
0.0
11
0.026454
21
0.100951
31
0.0
0
LINE
8
TOP_HID
6
HIDDEN
10
0.026454
20
0.100951
30
0.0
11
0.029470
21
0.091174
31
0.0
0
LINE
8
TOP_HID
6
HIDDEN
10
0.029470
20
0.091174
30
0.0
11
0.033444
21
0.081746
31
0.0
0
LINE
8
TOP_HID
6
HIDDEN
10
0.033444
20
0.081746
30
0.0
11
0.038337
21
0.072761
31
0.0
0
LINE
8
TOP_HID
6
HIDDEN
10
0.038337
20
0.072761
30
0.0
11
0.044101
21
0.064307
31
0.0
0
LINE
8
TOP_HID
6
HIDDEN
10
0.044101
20
0.064307
30
0.0
11
0.050678
21
0.056469
31
0.0
0
LINE
8
TOP_HID
6
HIDDEN
10
0.050678
20
0.056469
30
0.0
11
0.058002
21
0.049325
31
0.0
0
LINE
8
TOP_HID
6
HIDDEN
10
0.058002
20
0.049325
30
0.0
11
0.066002
21
0.042946
31
0.0
0
LINE
8
TOP_HID
6
HIDDEN
10
0.066002
20
0.042946
30
0.0
11
0.074596
21
0.037395
31
0.0
0
LINE
8
TOP_HID
6
HIDDEN
10
0.074596
20
0.037395
30
0.0
11
0.083701
21
0.032727
31
0.0
0
LINE
8
TOP_HID
6
HIDDEN
10
0.083701
20
0.032727
30
0.0
11
0.093225
21
0.028989
31
0.0
0
LINE
8
TOP_HID
6
HIDDEN
10
0.093225
20
0.028989
30
0.0
11
0.103074
21
0.026218
31
0.0
0
LINE
8
TOP_HID
6
HIDDEN
10
0.103074
20
0.026218
30
0.0
11
0.113150
21
0.024441
31
0.0
0
LINE
8
TOP_HID
6
HIDDEN
10
0.113150
20
0.024441
30
0.0
11
0.123353
21
0.023677
31
0.0
0
LINE
8
TOP_HID
6
HIDDEN
10
0.123353
20
0.023677
30
0.0
11
0.133582
21
0.023932
31
0.0
0
LINE
8
TOP_HID
6
HIDDEN
10
0.133582
20
0.023932
30
0.0
11
0.143734
21
0.025204
31
0.0
0
LINE
8
TOP_HID
6
HIDDEN
10
0.143734
20
0.025204
30
0.0
11
0.153709
21
0.027481
31
0.0
0
LINE
8
TOP_HID
6
HIDDEN
10
0.153709
20
0.027481
30
0.0
11
0.163408
21
0.030739
31
0.0
0
LINE
8
TOP_HID
6
HIDDEN
10
0.163408
20
0.030739
30
0.0
11
0.172734
21
0.034948
31
0.0
0
LINE
8
TOP_HID
6
HIDDEN
10
0.172734
20
0.034948
30
0.0
11
0.181594
21
0.040063
31
0.0
0
LINE
8
TOP_HID
6
HIDDEN
10
0.181594
20
0.040063
30
0.0
11
0.189902
21
0.046036
31
0.0
0
LINE
8
TOP_HID
6
HIDDEN
10
0.189902
20
0.046036
30
0.0
11
0.197573
21
0.052806
31
0.0
0
LINE
8
TOP_HID
6
HIDDEN
10
0.197573
20
0.052806
30
0.0
11
0.204532
21
0.060306
31
0.0
0
LINE
8
TOP_HID
6
HIDDEN
10
0.204532
20
0.060306
30
0.0
11
0.210710
21
0.068462
31
0.0
0
LINE
8
TOP_HID
6
HIDDEN
10
0.210710
20
0.068462
30
0.0
11
0.216045
21
0.077193
31
0.0
0
LINE
8
TOP_HID
6
HIDDEN
10
0.216045
20
0.077193
30
0.0
11
0.220485
21
0.086411
31
0.0
0
LINE
8
TOP_HID
6
HIDDEN
10
0.220485
20
0.086411
30
0.0
11
0.223984
21
0.096025
31
0.0
0
LINE
8
TOP_HID
6
HIDDEN
10
0.223984
20
0.096025
30
0.0
11
0.226509
21
0.105940
31
0.0
0
LINE
8
TOP_HID
6
HIDDEN
10
0.226509
20
0.105940
30
0.0
11
0.228034
21
0.116058
31
0.0
0
LINE
8
TOP_HID
6
HIDDEN
10
0.228034
20
0.116058
30
0.0
11
0.228544
21
0.126277
31
0.0
0
ENDSEC
0
EOF
