0
SECTION
2
HEADER
9
$ACADVER
1
AC1009
0
ENDSEC
0
SECTION
2
TABLES
0
TABLE
2
LTYPE
70
3
0
LTYPE
2
CONTINUOUS
70
0
3
Solid line
72
65
73
0
40
0.0
0
LTYPE
2
HIDDEN
70
0
3
__ __ __ __ __
72
65
73
2
40
0.042632
49
0.028435
49
-0.014196
0
LTYPE
2
CENTER
70
0
3
___ _ ___ _ ___
72
65
73
4
40
0.099459
49
0.056828
49
-0.014196
49
0.014196
49
-0.014196
0
ENDTAB
0
TABLE
2
LAYER
70
6
0
LAYER
2
0
70
0
62
7
6
CONTINUOUS
0
LAYER
2
FRONT
70
0
62
7
6
CONTINUOUS
0
LAYER
2
LEFT
70
0
62
7
6
CONTINUOUS
0
LAYER
2
LEFT_HID
70
0
62
7
6
HIDDEN
0
LAYER
2
TOP
70
0
62
7
6
CONTINUOUS
0
LAYER
2
TOP_HID
70
0
62
7
6
HIDDEN
0
ENDTAB
0
ENDSEC
0
SECTION
2
ENTITIES
0
LINE
8
FRONT
10
0.426183
20
0.920526
30
0.0
11
0.468631
21
0.922645
31
0.0
0
LINE
8
FRONT
10
0.468631
20
0.922645
30
0.0
11
0.510656
21
0.928979
31
0.0
0
LINE
8
FRONT
10
0.510656
20
0.928979
30
0.0
11
0.551842
21
0.939466
31
0.0
0
LINE
8
FRONT
10
0.551842
20
0.939466
30
0.0
11
0.591779
21
0.954002
31
0.0
0
LINE
8
FRONT
10
0.591779
20
0.954002
30
0.0
11
0.630071
21
0.972442
31
0.0
0
LINE
8
FRONT
10
0.630071
20
0.972442
30
0.0
11
0.666336
21
0.994603
31
0.0
0
LINE
8
FRONT
10
0.666336
20
0.994603
30
0.0
11
0.700214
21
1.020265
31
0.0
0
LINE
8
FRONT
10
0.700214
20
1.020265
30
0.0
11
0.731369
21
1.049173
31
0.0
0
LINE
8
FRONT
10
0.731369
20
1.049173
30
0.0
11
0.759490
21
1.081039
31
0.0
0
LINE
8
FRONT
10
0.759490
20
1.081039
30
0.0
11
0.784300
21
1.115546
31
0.0
0
LINE
8
FRONT
10
0.784300
20
1.115546
30
0.0
11
0.805550
21
1.152352
31
0.0
0
LINE
8
FRONT
10
0.805550
20
1.152352
30
0.0
11
0.823029
21
1.191091
31
0.0
0
LINE
8
FRONT
10
0.823029
20
1.191091
30
0.0
11
0.836565
21
1.231379
31
0.0
0
LINE
8
FRONT
10
0.836565
20
1.231379
30
0.0
11
0.846022
21
1.272813
31
0.0
0
LINE
8
FRONT
10
0.846022
20
1.272813
30
0.0
11
0.851307
21
1.314983
31
0.0
0
LINE
8
FRONT
10
0.851307
20
1.314983
30
0.0
11
0.852367
21
1.357470
31
0.0
0
LINE
8
FRONT
10
0.852367
20
1.357470
30
0.0
11
0.849191
21
1.399852
31
0.0
0
LINE
8
FRONT
10
0.849191
20
1.399852
30
0.0
11
0.841810
21
1.441706
31
0.0
0
LINE
8
FRONT
10
0.841810
20
1.441706
30
0.0
11
0.830300
21
1.482618
31
0.0
0
LINE
8
FRONT
10
0.830300
20
1.482618
30
0.0
11
0.814773
21
1.522180
31
0.0
0
LINE
8
FRONT
10
0.814773
20
1.522180
30
0.0
11
0.795384
21
1.560000
31
0.0
0
LINE
8
FRONT
10
0.795384
20
1.560000
30
0.0
11
0.772325
21
1.595701
31
0.0
0
LINE
8
FRONT
10
0.772325
20
1.595701
30
0.0
11
0.745827
21
1.628929
31
0.0
0
LINE
8
FRONT
10
0.745827
20
1.628929
30
0.0
11
0.716152
21
1.659354
31
0.0
0
LINE
8
FRONT
10
0.716152
20
1.659354
30
0.0
11
0.683595
21
1.686672
31
0.0
0
LINE
8
FRONT
10
0.683595
20
1.686672
30
0.0
11
0.648479
21
1.710613
31
0.0
0
LINE
8
FRONT
10
0.648479
20
1.710613
30
0.0
11
0.611155
21
1.730939
31
0.0
0
LINE
8
FRONT
10
0.611155
20
1.730939
30
0.0
11
0.571992
21
1.747448
31
0.0
0
LINE
8
FRONT
10
0.571992
20
1.747448
30
0.0
11
0.531380
21
1.759975
31
0.0
0
LINE
8
FRONT
10
0.531380
20
1.759975
30
0.0
11
0.489722
21
1.768396
31
0.0
0
LINE
8
FRONT
10
0.489722
20
1.768396
30
0.0
11
0.447433
21
1.772628
31
0.0
0
LINE
8
FRONT
10
0.447433
20
1.772628
30
0.0
11
0.404933
21
1.772628
31
0.0
0
LINE
8
FRONT
10
0.404933
20
1.772628
30
0.0
11
0.362644
21
1.768396
31
0.0
0
LINE
8
FRONT
10
0.362644
20
1.768396
30
0.0
11
0.320987
21
1.759975
31
0.0
0
LINE
8
FRONT
10
0.320987
20
1.759975
30
0.0
11
0.280375
21
1.747448
31
0.0
0
LINE
8
FRONT
10
0.280375
20
1.747448
30
0.0
11
0.241212
21
1.730939
31
0.0
0
LINE
8
FRONT
10
0.241212
20
1.730939
30
0.0
11
0.203887
21
1.710613
31
0.0
0
LINE
8
FRONT
10
0.203887
20
1.710613
30
0.0
11
0.168772
21
1.686672
31
0.0
0
LINE
8
FRONT
10
0.168772
20
1.686672
30
0.0
11
0.136215
21
1.659354
31
0.0
0
LINE
8
FRONT
10
0.136215
20
1.659354
30
0.0
11
0.106540
21
1.628929
31
0.0
0
LINE
8
FRONT
10
0.106540
20
1.628929
30
0.0
11
0.080041
21
1.595701
31
0.0
0
LINE
8
FRONT
10
0.080041
20
1.595701
30
0.0
11
0.056983
21
1.560000
31
0.0
0
LINE
8
FRONT
10
0.056983
20
1.560000
30
0.0
11
0.037594
21
1.522180
31
0.0
0
LINE
8
FRONT
10
0.037594
20
1.522180
30
0.0
11
0.022067
21
1.482618
31
0.0
0
LINE
8
FRONT
10
0.022067
20
1.482618
30
0.0
11
0.010556
21
1.441706
31
0.0
0
LINE
8
FRONT
10
0.010556
20
1.441706
30
0.0
11
0.003176
21
1.399852
31
0.0
0
LINE
8
FRONT
10
0.003176
20
1.399852
30
0.0
11
0.000000
21
1.357470
31
0.0
0
LINE
8
FRONT
10
0.000000
20
1.357470
30
0.0
11
0.001060
21
1.314983
31
0.0
0
LINE
8
FRONT
10
0.001060
20
1.314983
30
0.0
11
0.006344
21
1.272813
31
0.0
0
LINE
8
FRONT
10
0.006344
20
1.272813
30
0.0
11
0.015801
21
1.231379
31
0.0
0
LINE
8
FRONT
10
0.015801
20
1.231379
30
0.0
11
0.029337
21
1.191091
31
0.0
0
LINE
8
FRONT
10
0.029337
20
1.191091
30
0.0
11
0.046817
21
1.152352
31
0.0
0
LINE
8
FRONT
10
0.046817
20
1.152352
30
0.0
11
0.068067
21
1.115546
31
0.0
0
LINE
8
FRONT
10
0.068067
20
1.115546
30
0.0
11
0.092876
21
1.081039
31
0.0
0
LINE
8
FRONT
10
0.092876
20
1.081039
30
0.0
11
0.120998
21
1.049173
31
0.0
0
LINE
8
FRONT
10
0.120998
20
1.049173
30
0.0
11
0.152153
21
1.020265
31
0.0
0
LINE
8
FRONT
10
0.152153
20
1.020265
30
0.0
11
0.186031
21
0.994603
31
0.0
0
LINE
8
FRONT
10
0.186031
20
0.994603
30
0.0
11
0.222296
21
0.972442
31
0.0
0
LINE
8
FRONT
10
0.222296
20
0.972442
30
0.0
11
0.260587
21
0.954002
31
0.0
0
LINE
8
FRONT
10
0.260587
20
0.954002
30
0.0
11
0.300524
21
0.939466
31
0.0
0
LINE
8
FRONT
10
0.300524
20
0.939466
30
0.0
11
0.341710
21
0.928979
31
0.0
0
LINE
8
FRONT
10
0.341710
20
0.928979
30
0.0
11
0.383736
21
0.922645
31
0.0
0
LINE
8
FRONT
10
0.383736
20
0.922645
30
0.0
11
0.426183
21
0.920526
31
0.0
0
LINE
8
FRONT
10
0.426183
20
0.964934
30
0.0
11
0.464209
21
0.966832
31
0.0
0
LINE
8
FRONT
10
0.464209
20
0.966832
30
0.0
11
0.501857
21
0.972506
31
0.0
0
LINE
8
FRONT
10
0.501857
20
0.972506
30
0.0
11
0.538753
21
0.981901
31
0.0
0
LINE
8
FRONT
10
0.538753
20
0.981901
30
0.0
11
0.574530
21
0.994923
31
0.0
0
LINE
8
FRONT
10
0.574530
20
0.994923
30
0.0
11
0.608832
21
1.011442
31
0.0
0
LINE
8
FRONT
10
0.608832
20
1.011442
30
0.0
11
0.641320
21
1.031295
31
0.0
0
LINE
8
FRONT
10
0.641320
20
1.031295
30
0.0
11
0.671669
21
1.054284
31
0.0
0
LINE
8
FRONT
10
0.671669
20
1.054284
30
0.0
11
0.699578
21
1.080180
31
0.0
0
LINE
8
FRONT
10
0.699578
20
1.080180
30
0.0
11
0.724771
21
1.108726
31
0.0
0
LINE
8
FRONT
10
0.724771
20
1.108726
30
0.0
11
0.746996
21
1.139639
31
0.0
0
LINE
8
FRONT
10
0.746996
20
1.139639
30
0.0
11
0.766032
21
1.172612
31
0.0
0
LINE
8
FRONT
10
0.766032
20
1.172612
30
0.0
11
0.781691
21
1.207315
31
0.0
0
LINE
8
FRONT
10
0.781691
20
1.207315
30
0.0
11
0.793817
21
1.243406
31
0.0
0
LINE
8
FRONT
10
0.793817
20
1.243406
30
0.0
11
0.802289
21
1.280524
31
0.0
0
LINE
8
FRONT
10
0.802289
20
1.280524
30
0.0
11
0.807023
21
1.318302
31
0.0
0
LINE
8
FRONT
10
0.807023
20
1.318302
30
0.0
11
0.807972
21
1.356363
31
0.0
0
LINE
8
FRONT
10
0.807972
20
1.356363
30
0.0
11
0.805127
21
1.394330
31
0.0
0
LINE
8
FRONT
10
0.805127
20
1.394330
30
0.0
11
0.798516
21
1.431825
31
0.0
0
LINE
8
FRONT
10
0.798516
20
1.431825
30
0.0
11
0.788204
21
1.468475
31
0.0
0
LINE
8
FRONT
10
0.788204
20
1.468475
30
0.0
11
0.774295
21
1.503916
31
0.0
0
LINE
8
FRONT
10
0.774295
20
1.503916
30
0.0
11
0.756925
21
1.537796
31
0.0
0
LINE
8
FRONT
10
0.756925
20
1.537796
30
0.0
11
0.736269
21
1.569778
31
0.0
0
LINE
8
FRONT
10
0.736269
20
1.569778
30
0.0
11
0.712531
21
1.599545
31
0.0
0
LINE
8
FRONT
10
0.712531
20
1.599545
30
0.0
11
0.685947
21
1.626800
31
0.0
0
LINE
8
FRONT
10
0.685947
20
1.626800
30
0.0
11
0.656781
21
1.651273
31
0.0
0
LINE
8
FRONT
10
0.656781
20
1.651273
30
0.0
11
0.625324
21
1.672721
31
0.0
0
LINE
8
FRONT
10
0.625324
20
1.672721
30
0.0
11
0.591887
21
1.690929
31
0.0
0
LINE
8
FRONT
10
0.591887
20
1.690929
30
0.0
11
0.556803
21
1.705718
31
0.0
0
LINE
8
FRONT
10
0.556803
20
1.705718
30
0.0
11
0.520422
21
1.716940
31
0.0
0
LINE
8
FRONT
10
0.520422
20
1.716940
30
0.0
11
0.483104
21
1.724484
31
0.0
0
LINE
8
FRONT
10
0.483104
20
1.724484
30
0.0
11
0.445220
21
1.728275
31
0.0
0
LINE
8
FRONT
10
0.445220
20
1.728275
30
0.0
11
0.407147
21
1.728275
31
0.0
0
LINE
8
FRONT
10
0.407147
20
1.728275
30
0.0
11
0.369263
21
1.724484
31
0.0
0
LINE
8
FRONT
10
0.369263
20
1.724484
30
0.0
11
0.331945
21
1.716940
31
0.0
0
LINE
8
FRONT
10
0.331945
20
1.716940
30
0.0
11
0.295563
21
1.705718
31
0.0
0
LINE
8
FRONT
10
0.295563
20
1.705718
30
0.0
11
0.260480
21
1.690929
31
0.0
0
LINE
8
FRONT
10
0.260480
20
1.690929
30
0.0
11
0.227043
21
1.672721
31
0.0
0
LINE
8
FRONT
10
0.227043
20
1.672721
30
0.0
11
0.195586
21
1.651273
31
0.0
0
LINE
8
FRONT
10
0.195586
20
1.651273
30
0.0
11
0.166420
21
1.626800
31
0.0
0
LINE
8
FRONT
10
0.166420
20
1.626800
30
0.0
11
0.139836
21
1.599545
31
0.0
0
LINE
8
FRONT
10
0.139836
20
1.599545
30
0.0
11
0.116098
21
1.569778
31
0.0
0
LINE
8
FRONT
10
0.116098
20
1.569778
30
0.0
11
0.095441
21
1.537796
31
0.0
0
LINE
8
FRONT
10
0.095441
20
1.537796
30
0.0
11
0.078072
21
1.503916
31
0.0
0
LINE
8
FRONT
10
0.078072
20
1.503916
30
0.0
11
0.064162
21
1.468475
31
0.0
0
LINE
8
FRONT
10
0.064162
20
1.468475
30
0.0
11
0.053851
21
1.431825
31
0.0
0
LINE
8
FRONT
10
0.053851
20
1.431825
30
0.0
11
0.047239
21
1.394330
31
0.0
0
LINE
8
FRONT
10
0.047239
20
1.394330
30
0.0
11
0.044394
21
1.356363
31
0.0
0
LINE
8
FRONT
10
0.044394
20
1.356363
30
0.0
11
0.045343
21
1.318302
31
0.0
0
LINE
8
FRONT
10
0.045343
20
1.318302
30
0.0
11
0.050077
21
1.280524
31
0.0
0
LINE
8
FRONT
10
0.050077
20
1.280524
30
0.0
11
0.058549
21
1.243406
31
0.0
0
LINE
8
FRONT
10
0.058549
20
1.243406
30
0.0
11
0.070675
21
1.207315
31
0.0
0
LINE
8
FRONT
10
0.070675
20
1.207315
30
0.0
11
0.086334
21
1.172612
31
0.0
0
LINE
8
FRONT
10
0.086334
20
1.172612
30
0.0
11
0.105371
21
1.139639
31
0.0
0
LINE
8
FRONT
10
0.105371
20
1.139639
30
0.0
11
0.127596
21
1.108726
31
0.0
0
LINE
8
FRONT
10
0.127596
20
1.108726
30
0.0
11
0.152788
21
1.080180
31
0.0
0
LINE
8
FRONT
10
0.152788
20
1.080180
30
0.0
11
0.180698
21
1.054284
31
0.0
0
LINE
8
FRONT
10
0.180698
20
1.054284
30
0.0
11
0.211047
21
1.031295
31
0.0
0
LINE
8
FRONT
10
0.211047
20
1.031295
30
0.0
11
0.243534
21
1.011442
31
0.0
0
LINE
8
FRONT
10
0.243534
20
1.011442
30
0.0
11
0.277837
21
0.994923
31
0.0
0
LINE
8
FRONT
10
0.277837
20
0.994923
30
0.0
11
0.313614
21
0.981901
31
0.0
0
LINE
8
FRONT
10
0.313614
20
0.981901
30
0.0
11
0.350510
21
0.972506
31
0.0
0
LINE
8
FRONT
10
0.350510
20
0.972506
30
0.0
11
0.388158
21
0.966832
31
0.0
0
LINE
8
FRONT
10
0.388158
20
0.966832
30
0.0
11
0.426183
21
0.964934
31
0.0
0
LINE
8
LEFT
10
1.022893
20
1.773158
30
0.0
11
1.022893
21
0.920526
31
0.0
0
LINE
8
LEFT
10
1.022893
20
0.920526
30
0.0
11
1.772893
21
0.920526
31
0.0
0
LINE
8
LEFT
10
1.772893
20
1.773158
30
0.0
11
1.772893
21
0.920526
31
0.0
0
LINE
8
LEFT
10
1.772893
20
1.773158
30
0.0
11
1.022893
21
1.773158
31
0.0
0
LINE
8
LEFT_HID
6
HIDDEN
10
1.022893
20
0.964934
30
0.0
11
1.022893
21
1.728750
31
0.0
0
LINE
8
LEFT_HID
6
HIDDEN
10
1.022893
20
1.728750
30
0.0
11
1.022893
21
0.964934
31
0.0
0
LINE
8
LEFT_HID
6
HIDDEN
10
1.022893
20
0.964934
30
0.0
11
1.772893
21
0.964934
31
0.0
0
LINE
8
LEFT_HID
6
HIDDEN
10
1.772893
20
0.964934
30
0.0
11
1.772893
21
1.728750
31
0.0
0
LINE
8
LEFT_HID
6
HIDDEN
10
1.772893
20
1.728750
30
0.0
11
1.772893
21
0.964934
31
0.0
0
LINE
8
LEFT_HID
6
HIDDEN
10
1.772893
20
1.728750
30
0.0
11
1.022893
21
1.728750
31
0.0
0
LINE
8
TOP
10
0.852632
20
0.750000
30
0.0
11
0.000000
21
0.750000
31
0.0
0
LINE
8
TOP
10
0.852632
20
0.000000
30
0.0
11
0.000000
21
0.000000
31
0.0
0
LINE
8
TOP
10
0.852632
20
0.000000
30
0.0
11
0.852632
21
0.750000
31
0.0
0
LINE
8
TOP
10
0.000000
20
0.000000
30
0.0
11
0.000000
21
0.750000
31
0.0
0
LINE
8
TOP_HID
6
HIDDEN
10
0.426316
20
0.750000
30
0.0
11
0.852632
21
0.750000
31
0.0
0
LINE
8
TOP_HID
6
HIDDEN
10
0.000000
20
0.750000
30
0.0
11
0.426316
21
0.750000
31
0.0
0
LINE
8
TOP_HID
6
HIDDEN
10
0.426316
20
0.000000
30
0.0
11
0.852632
21
0.000000
31
0.0
0
LINE
8
TOP_HID
6
HIDDEN
10
0.000000
20
0.000000
30
0.0
11
0.426316
21
0.000000
31
0.0
0
LINE
8
TOP_HID
6
HIDDEN
10
0.426316
20
0.750000
30
0.0
11
0.808224
21
0.750000
31
0.0
0
LINE
8
TOP_HID
6
HIDDEN
10
0.808224
20
0.750000
30
0.0
11
0.044408
21
0.750000
31
0.0
0
LINE
8
TOP_HID
6
HIDDEN
10
0.044408
20
0.750000
30
0.0
11
0.426316
21
0.750000
31
0.0
0
LINE
8
TOP_HID
6
HIDDEN
10
0.426316
20
0.000000
30
0.0
11
0.808224
21
0.000000
31
0.0
0
LINE
8
TOP_HID
6
HIDDEN
10
0.808224
20
0.000000
30
0.0
11
0.044408
21
0.000000
31
0.0
0
LINE
8
TOP_HID
6
HIDDEN
10
0.044408
20
0.000000
30
0.0
11
0.426316
21
0.000000
31
0.0
0
LINE
8
TOP_HID
6
HIDDEN
10
0.808224
20
0.000000
30
0.0
11
0.808224
21
0.750000
31
0.0
0
LINE
8
TOP_HID
6
HIDDEN
10
0.044408
20
0.000000
30
0.0
11
0.044408
21
0.750000
31
0.0
0
ENDSEC
0
EOF
