0
SECTION
2
HEADER
9
$ACADVER
1
AC1009
0
ENDSEC
0
SECTION
2
TABLES
0
TABLE
2
LTYPE
70
3
0
LTYPE
2
CONTINUOUS
70
0
3
Solid line
72
65
73
0
40
0.0
0
LTYPE
2
HIDDEN
70
0
3
__ __ __ __ __
72
65
73
2
40
0.068602
49
0.045758
49
-0.022844
0
LTYPE
2
CENTER
70
0
3
___ _ ___ _ ___
72
65
73
4
40
0.160048
49
0.091446
49
-0.022844
49
0.022844
49
-0.022844
0
ENDTAB
0
TABLE
2
LAYER
70
6
0
LAYER
2
0
70
0
62
7
6
CONTINUOUS
0
LAYER
2
FRONT
70
0
62
7
6
CONTINUOUS
0
LAYER
2
LEFT
70
0
62
7
6
CONTINUOUS
0
LAYER
2
LEFT_HID
70
0
62
7
6
HIDDEN
0
LAYER
2
TOP
70
0
62
7
6
CONTINUOUS
0
LAYER
2
TOP_HID
70
0
62
7
6
HIDDEN
0
ENDTAB
0
ENDSEC
0
SECTION
2
ENTITIES
0
LINE
8
FRONT
10
0.000000
20
1.586332
30
0.0
11
0.424342
21
1.147845
31
0.0
0
LINE
8
FRONT
10
0.424342
20
1.147845
30
0.0
11
0.070724
21
0.610345
31
0.0
0
LINE
8
FRONT
10
0.070724
20
0.610345
30
0.0
11
0.707237
21
0.921530
31
0.0
0
LINE
8
FRONT
10
0.707237
20
0.921530
30
0.0
11
1.202303
21
0.610345
31
0.0
0
LINE
8
FRONT
10
1.202303
20
0.610345
30
0.0
11
1.018421
21
1.147845
31
0.0
0
LINE
8
FRONT
10
1.018421
20
1.147845
30
0.0
11
1.343750
21
1.586332
31
0.0
0
LINE
8
FRONT
10
1.343750
20
1.586332
30
0.0
11
0.862829
21
1.473174
31
0.0
0
LINE
8
FRONT
10
0.862829
20
1.473174
30
0.0
11
0.707237
21
1.982385
31
0.0
0
LINE
8
FRONT
10
0.707237
20
1.982385
30
0.0
11
0.523355
21
1.473174
31
0.0
0
LINE
8
FRONT
10
0.523355
20
1.473174
30
0.0
11
0.000000
21
1.586332
31
0.0
0
LINE
8
LEFT
10
1.618158
20
1.586332
30
0.0
11
1.954095
21
1.586332
31
0.0
0
LINE
8
LEFT
10
1.954095
20
1.586332
30
0.0
11
1.954095
21
1.147845
31
0.0
0
LINE
8
LEFT
10
1.618158
20
1.147845
30
0.0
11
1.954095
21
1.147845
31
0.0
0
LINE
8
LEFT
10
1.618158
20
1.586332
30
0.0
11
1.618158
21
1.147845
31
0.0
0
LINE
8
LEFT
10
1.954095
20
1.147845
30
0.0
11
1.954095
21
0.610345
31
0.0
0
LINE
8
LEFT
10
1.618158
20
0.610345
30
0.0
11
1.954095
21
0.610345
31
0.0
0
LINE
8
LEFT
10
1.618158
20
1.147845
30
0.0
11
1.618158
21
0.610345
31
0.0
0
LINE
8
LEFT
10
1.618158
20
1.982385
30
0.0
11
1.954095
21
1.982385
31
0.0
0
LINE
8
LEFT
10
1.954095
20
1.982385
30
0.0
11
1.954095
21
1.586332
31
0.0
0
LINE
8
LEFT
10
1.618158
20
1.982385
30
0.0
11
1.618158
21
1.586332
31
0.0
0
LINE
8
LEFT_HID
6
HIDDEN
10
1.954095
20
0.610345
30
0.0
11
1.954095
21
0.921530
31
0.0
0
LINE
8
LEFT_HID
6
HIDDEN
10
1.618158
20
0.921530
30
0.0
11
1.954095
21
0.921530
31
0.0
0
LINE
8
LEFT_HID
6
HIDDEN
10
1.618158
20
0.610345
30
0.0
11
1.618158
21
0.921530
31
0.0
0
LINE
8
LEFT_HID
6
HIDDEN
10
1.954095
20
0.921530
30
0.0
11
1.954095
21
0.610345
31
0.0
0
LINE
8
LEFT_HID
6
HIDDEN
10
1.618158
20
0.921530
30
0.0
11
1.618158
21
0.610345
31
0.0
0
LINE
8
LEFT_HID
6
HIDDEN
10
1.954095
20
1.147845
30
0.0
11
1.954095
21
1.586332
31
0.0
0
LINE
8
LEFT_HID
6
HIDDEN
10
1.954095
20
1.586332
30
0.0
11
1.954095
21
1.473174
31
0.0
0
LINE
8
LEFT_HID
6
HIDDEN
10
1.618158
20
1.473174
30
0.0
11
1.954095
21
1.473174
31
0.0
0
LINE
8
LEFT_HID
6
HIDDEN
10
1.618158
20
1.586332
30
0.0
11
1.618158
21
1.473174
31
0.0
0
LINE
8
LEFT_HID
6
HIDDEN
10
1.954095
20
1.473174
30
0.0
11
1.954095
21
1.982385
31
0.0
0
LINE
8
LEFT_HID
6
HIDDEN
10
1.618158
20
1.473174
30
0.0
11
1.618158
21
1.982385
31
0.0
0
LINE
8
LEFT_HID
6
HIDDEN
10
1.954095
20
1.586332
30
0.0
11
1.954095
21
1.473174
31
0.0
0
LINE
8
LEFT_HID
6
HIDDEN
10
1.618158
20
1.473174
30
0.0
11
1.954095
21
1.473174
31
0.0
0
LINE
8
LEFT_HID
6
HIDDEN
10
1.618158
20
1.586332
30
0.0
11
1.618158
21
1.473174
31
0.0
0
LINE
8
LEFT_HID
6
HIDDEN
10
1.954095
20
1.473174
30
0.0
11
1.954095
21
1.586332
31
0.0
0
LINE
8
LEFT_HID
6
HIDDEN
10
1.618158
20
1.473174
30
0.0
11
1.618158
21
1.586332
31
0.0
0
LINE
8
TOP
10
0.000000
20
0.335938
30
0.0
11
0.000000
21
0.000000
31
0.0
0
LINE
8
TOP
10
1.343750
20
0.335938
30
0.0
11
1.343750
21
0.000000
31
0.0
0
LINE
8
TOP
10
1.343750
20
0.000000
30
0.0
11
0.862829
21
0.000000
31
0.0
0
LINE
8
TOP
10
0.862829
20
0.335938
30
0.0
11
0.862829
21
0.000000
31
0.0
0
LINE
8
TOP
10
1.343750
20
0.335938
30
0.0
11
0.862829
21
0.335938
31
0.0
0
LINE
8
TOP
10
0.862829
20
0.000000
30
0.0
11
0.707237
21
0.000000
31
0.0
0
LINE
8
TOP
10
0.707237
20
0.335938
30
0.0
11
0.707237
21
0.000000
31
0.0
0
LINE
8
TOP
10
0.862829
20
0.335938
30
0.0
11
0.707237
21
0.335938
31
0.0
0
LINE
8
TOP
10
0.707237
20
0.000000
30
0.0
11
0.523355
21
0.000000
31
0.0
0
LINE
8
TOP
10
0.523355
20
0.335938
30
0.0
11
0.523355
21
0.000000
31
0.0
0
LINE
8
TOP
10
0.707237
20
0.335938
30
0.0
11
0.523355
21
0.335938
31
0.0
0
LINE
8
TOP
10
0.523355
20
0.000000
30
0.0
11
0.000000
21
0.000000
31
0.0
0
LINE
8
TOP
10
0.523355
20
0.335938
30
0.0
11
0.000000
21
0.335938
31
0.0
0
LINE
8
TOP_HID
6
HIDDEN
10
0.000000
20
0.000000
30
0.0
11
0.424342
21
0.000000
31
0.0
0
LINE
8
TOP_HID
6
HIDDEN
10
0.424342
20
0.335938
30
0.0
11
0.424342
21
0.000000
31
0.0
0
LINE
8
TOP_HID
6
HIDDEN
10
0.000000
20
0.335938
30
0.0
11
0.424342
21
0.335938
31
0.0
0
LINE
8
TOP_HID
6
HIDDEN
10
0.424342
20
0.000000
30
0.0
11
0.070724
21
0.000000
31
0.0
0
LINE
8
TOP_HID
6
HIDDEN
10
0.070724
20
0.335938
30
0.0
11
0.070724
21
0.000000
31
0.0
0
LINE
8
TOP_HID
6
HIDDEN
10
0.424342
20
0.335938
30
0.0
11
0.070724
21
0.335938
31
0.0
0
LINE
8
TOP_HID
6
HIDDEN
10
0.070724
20
0.000000
30
0.0
11
0.707237
21
0.000000
31
0.0
0
LINE
8
TOP_HID
6
HIDDEN
10
0.070724
20
0.335938
30
0.0
11
0.707237
21
0.335938
31
0.0
0
LINE
8
TOP_HID
6
HIDDEN
10
0.707237
20
0.000000
30
0.0
11
1.202303
21
0.000000
31
0.0
0
LINE
8
TOP_HID
6
HIDDEN
10
1.202303
20
0.335938
30
0.0
11
1.202303
21
0.000000
31
0.0
0
LINE
8
TOP_HID
6
HIDDEN
10
0.707237
20
0.335938
30
0.0
11
1.202303
21
0.335938
31
0.0
0
LINE
8
TOP_HID
6
HIDDEN
10
1.202303
20
0.000000
30
0.0
11
1.018421
21
0.000000
31
0.0
0
LINE
8
TOP_HID
6
HIDDEN
10
1.018421
20
0.335938
30
0.0
11
1.018421
21
0.000000
31
0.0
0
LINE
8
TOP_HID
6
HIDDEN
10
1.202303
20
0.335938
30
0.0
11
1.018421
21
0.335938
31
0.0
0
LINE
8
TOP_HID
6
HIDDEN
10
1.018421
20
0.000000
30
0.0
11
1.343750
21
0.000000
31
0.0
0
LINE
8
TOP_HID
6
HIDDEN
10
1.018421
20
0.335938
30
0.0
11
1.343750
21
0.335938
31
0.0
0
ENDSEC
0
EOF
