0
SECTION
2
HEADER
9
$ACADVER
1
AC1009
0
ENDSEC
0
SECTION
2
TABLES
0
TABLE
2
LTYPE
70
3
0
LTYPE
2
CONTINUOUS
70
0
3
Solid line
72
65
73
0
40
0.0
0
LTYPE
2
HIDDEN
70
0
3
__ __ __ __ __
72
65
73
2
40
0.065234
49
0.043511
49
-0.021723
0
LTYPE
2
CENTER
70
0
3
___ _ ___ _ ___
72
65
73
4
40
0.152192
49
0.086957
49
-0.021723
49
0.021723
49
-0.021723
0
ENDTAB
0
TABLE
2
LAYER
70
7
0
LAYER
2
0
70
0
62
7
6
CONTINUOUS
0
LAYER
2
FRONT
70
0
62
7
6
CONTINUOUS
0
LAYER
2
FRONT_HID
70
0
62
7
6
HIDDEN
0
LAYER
2
LEFT
70
0
62
7
6
CONTINUOUS
0
LAYER
2
LEFT_HID
70
0
62
7
6
HIDDEN
0
LAYER
2
TOP
70
0
62
7
6
CONTINUOUS
0
LAYER
2
TOP_HID
70
0
62
7
6
HIDDEN
0
ENDTAB
0
ENDSEC
0
SECTION
2
ENTITIES
0
LINE
8
FRONT
10
0.302138
20
0.557813
30
0.0
11
0.302138
21
1.862500
31
0.0
0
LINE
8
FRONT
10
0.302138
20
1.862500
30
0.0
11
0.000000
21
1.862500
31
0.0
0
LINE
8
FRONT
10
0.000000
20
0.557813
30
0.0
11
0.302138
21
0.557813
31
0.0
0
LINE
8
FRONT
10
0.000000
20
1.862500
30
0.0
11
0.000000
21
0.557813
31
0.0
0
LINE
8
FRONT_HID
6
HIDDEN
10
0.302138
20
0.557813
30
0.0
11
0.302138
21
0.862500
31
0.0
0
LINE
8
FRONT_HID
6
HIDDEN
10
0.302138
20
1.862500
30
0.0
11
0.302138
21
0.862500
31
0.0
0
LINE
8
FRONT_HID
6
HIDDEN
10
0.302138
20
1.862500
30
0.0
11
0.046875
21
1.862500
31
0.0
0
LINE
8
FRONT_HID
6
HIDDEN
10
0.046875
20
1.862500
30
0.0
11
0.000000
21
1.862500
31
0.0
0
LINE
8
FRONT_HID
6
HIDDEN
10
0.302138
20
0.862500
30
0.0
11
0.046875
21
0.862500
31
0.0
0
LINE
8
FRONT_HID
6
HIDDEN
10
0.046875
20
1.862500
30
0.0
11
0.046875
21
0.862500
31
0.0
0
LINE
8
FRONT_HID
6
HIDDEN
10
0.046875
20
0.862500
30
0.0
11
0.231579
21
0.862500
31
0.0
0
LINE
8
FRONT_HID
6
HIDDEN
10
0.231579
20
0.862500
30
0.0
11
0.302138
21
0.862500
31
0.0
0
LINE
8
FRONT_HID
6
HIDDEN
10
0.046875
20
1.862500
30
0.0
11
0.046875
21
1.660085
31
0.0
0
LINE
8
FRONT_HID
6
HIDDEN
10
0.046875
20
1.660085
30
0.0
11
0.046875
21
0.862500
31
0.0
0
LINE
8
LEFT
10
0.563076
20
1.862500
30
0.0
11
0.859951
21
1.862500
31
0.0
0
LINE
8
LEFT
10
0.563076
20
0.557813
30
0.0
11
0.859951
21
0.557813
31
0.0
0
LINE
8
LEFT
10
0.563076
20
1.862500
30
0.0
11
0.563076
21
0.557813
31
0.0
0
LINE
8
LEFT
10
0.859951
20
1.862500
30
0.0
11
0.859951
21
0.557813
31
0.0
0
LINE
8
LEFT_HID
6
HIDDEN
10
0.859951
20
0.557813
30
0.0
11
0.859951
21
0.862500
31
0.0
0
LINE
8
LEFT_HID
6
HIDDEN
10
0.859951
20
0.862500
30
0.0
11
0.602138
21
0.862500
31
0.0
0
LINE
8
LEFT_HID
6
HIDDEN
10
0.602138
20
1.862500
30
0.0
11
0.602138
21
0.862500
31
0.0
0
LINE
8
LEFT_HID
6
HIDDEN
10
0.563076
20
1.862500
30
0.0
11
0.602138
21
1.862500
31
0.0
0
LINE
8
LEFT_HID
6
HIDDEN
10
0.563076
20
1.862500
30
0.0
11
0.563076
21
0.557813
31
0.0
0
LINE
8
LEFT_HID
6
HIDDEN
10
0.602138
20
1.862500
30
0.0
11
0.859951
21
1.862500
31
0.0
0
LINE
8
LEFT_HID
6
HIDDEN
10
0.602138
20
1.862500
30
0.0
11
0.602138
21
0.862500
31
0.0
0
LINE
8
LEFT_HID
6
HIDDEN
10
0.602138
20
0.862500
30
0.0
11
0.859951
21
0.862500
31
0.0
0
LINE
8
LEFT_HID
6
HIDDEN
10
0.859951
20
0.862500
30
0.0
11
0.859951
21
0.557813
31
0.0
0
LINE
8
LEFT_HID
6
HIDDEN
10
0.859951
20
1.862500
30
0.0
11
0.859951
21
1.660085
31
0.0
0
LINE
8
LEFT_HID
6
HIDDEN
10
0.859951
20
1.862500
30
0.0
11
0.859951
21
1.660085
31
0.0
0
LINE
8
LEFT_HID
6
HIDDEN
10
0.859951
20
1.660085
30
0.0
11
0.859951
21
0.862500
31
0.0
0
LINE
8
TOP
10
0.302138
20
0.000000
30
0.0
11
0.302138
21
0.257812
31
0.0
0
LINE
8
TOP
10
0.302138
20
0.296875
30
0.0
11
0.302138
21
0.257812
31
0.0
0
LINE
8
TOP
10
0.302138
20
0.296875
30
0.0
11
0.000000
21
0.296875
31
0.0
0
LINE
8
TOP
10
0.302138
20
0.257812
30
0.0
11
0.046875
21
0.257812
31
0.0
0
LINE
8
TOP
10
0.046875
20
0.257812
30
0.0
11
0.046875
21
0.000000
31
0.0
0
LINE
8
TOP
10
0.046875
20
0.000000
30
0.0
11
0.000000
21
0.000000
31
0.0
0
LINE
8
TOP
10
0.000000
20
0.296875
30
0.0
11
0.000000
21
0.000000
31
0.0
0
LINE
8
TOP
10
0.046875
20
0.000000
30
0.0
11
0.231579
21
0.000000
31
0.0
0
LINE
8
TOP
10
0.231579
20
0.000000
30
0.0
11
0.302138
21
0.000000
31
0.0
0
LINE
8
TOP_HID
6
HIDDEN
10
0.302138
20
0.296875
30
0.0
11
0.302138
21
0.000000
31
0.0
0
LINE
8
TOP_HID
6
HIDDEN
10
0.000000
20
0.000000
30
0.0
11
0.302138
21
0.000000
31
0.0
0
ENDSEC
0
EOF
