0
SECTION
2
HEADER
9
$ACADVER
1
AC1009
0
ENDSEC
0
SECTION
2
TABLES
0
TABLE
2
LTYPE
70
3
0
LTYPE
2
CONTINUOUS
70
0
3
Solid line
72
65
73
0
40
0.0
0
LTYPE
2
HIDDEN
70
0
3
__ __ __ __ __
72
65
73
2
40
0.030078
49
0.020062
49
-0.010016
0
LTYPE
2
CENTER
70
0
3
___ _ ___ _ ___
72
65
73
4
40
0.070172
49
0.040094
49
-0.010016
49
0.010016
49
-0.010016
0
ENDTAB
0
TABLE
2
LAYER
70
7
0
LAYER
2
0
70
0
62
7
6
CONTINUOUS
0
LAYER
2
FRONT
70
0
62
7
6
CONTINUOUS
0
LAYER
2
FRONT_HID
70
0
62
7
6
HIDDEN
0
LAYER
2
LEFT
70
0
62
7
6
CONTINUOUS
0
LAYER
2
LEFT_HID
70
0
62
7
6
HIDDEN
0
LAYER
2
TOP
70
0
62
7
6
CONTINUOUS
0
LAYER
2
TOP_HID
70
0
62
7
6
HIDDEN
0
ENDTAB
0
ENDSEC
0
SECTION
2
ENTITIES
0
LINE
8
FRONT
10
0.000000
20
0.385937
30
0.0
11
0.240625
21
0.385937
31
0.0
0
LINE
8
FRONT
10
0.000000
20
0.588569
30
0.0
11
0.000000
21
0.385937
31
0.0
0
LINE
8
FRONT
10
0.240625
20
0.385937
30
0.0
11
0.240625
21
0.588569
31
0.0
0
LINE
8
FRONT
10
0.031661
20
0.588569
30
0.0
11
0.000000
21
0.588569
31
0.0
0
LINE
8
FRONT
10
0.240625
20
0.588569
30
0.0
11
0.208964
21
0.588569
31
0.0
0
LINE
8
FRONT
10
0.208964
20
0.588569
30
0.0
11
0.208964
21
0.784868
31
0.0
0
LINE
8
FRONT
10
0.208964
20
0.784868
30
0.0
11
0.210938
21
0.784868
31
0.0
0
LINE
8
FRONT
10
0.240625
20
0.792188
30
0.0
11
0.240625
21
0.987500
31
0.0
0
LINE
8
FRONT
10
0.240625
20
0.987500
30
0.0
11
0.000000
21
0.987500
31
0.0
0
LINE
8
FRONT
10
0.000000
20
0.987500
30
0.0
11
0.000000
21
0.792188
31
0.0
0
LINE
8
FRONT
10
0.029934
20
0.784868
30
0.0
11
0.031661
21
0.784868
31
0.0
0
LINE
8
FRONT
10
0.031661
20
0.784868
30
0.0
11
0.031661
21
0.588569
31
0.0
0
LINE
8
FRONT
10
0.029934
20
0.589063
30
0.0
11
0.029934
21
0.792188
31
0.0
0
LINE
8
FRONT
10
0.029934
20
0.792188
30
0.0
11
0.000000
21
0.792188
31
0.0
0
LINE
8
FRONT
10
0.240872
20
0.792188
30
0.0
11
0.210938
21
0.792188
31
0.0
0
LINE
8
FRONT
10
0.210938
20
0.792188
30
0.0
11
0.210938
21
0.589063
31
0.0
0
LINE
8
FRONT
10
0.000000
20
0.589063
30
0.0
11
0.029934
21
0.589063
31
0.0
0
LINE
8
FRONT
10
0.000000
20
0.792188
30
0.0
11
0.000000
21
0.589063
31
0.0
0
LINE
8
FRONT
10
0.240872
20
0.589063
30
0.0
11
0.240872
21
0.792188
31
0.0
0
LINE
8
FRONT
10
0.210938
20
0.589063
30
0.0
11
0.240872
21
0.589063
31
0.0
0
LINE
8
FRONT_HID
6
HIDDEN
10
0.210938
20
0.792188
30
0.0
11
0.210938
21
0.784868
31
0.0
0
LINE
8
FRONT_HID
6
HIDDEN
10
0.240625
20
0.792188
30
0.0
11
0.210938
21
0.792188
31
0.0
0
LINE
8
FRONT_HID
6
HIDDEN
10
0.029934
20
0.784868
30
0.0
11
0.029934
21
0.792188
31
0.0
0
LINE
8
FRONT_HID
6
HIDDEN
10
0.208964
20
0.784868
30
0.0
11
0.240625
21
0.784868
31
0.0
0
LINE
8
FRONT_HID
6
HIDDEN
10
0.240625
20
0.784868
30
0.0
11
0.240625
21
0.987500
31
0.0
0
LINE
8
FRONT_HID
6
HIDDEN
10
0.000000
20
0.987500
30
0.0
11
0.000000
21
0.784868
31
0.0
0
LINE
8
FRONT_HID
6
HIDDEN
10
0.000000
20
0.784868
30
0.0
11
0.031661
21
0.784868
31
0.0
0
LINE
8
FRONT_HID
6
HIDDEN
10
0.000000
20
0.784868
30
0.0
11
0.029934
21
0.784868
31
0.0
0
LINE
8
FRONT_HID
6
HIDDEN
10
0.029934
20
0.589063
30
0.0
11
0.029934
21
0.784868
31
0.0
0
LINE
8
FRONT_HID
6
HIDDEN
10
0.000000
20
0.792188
30
0.0
11
0.000000
21
0.784868
31
0.0
0
LINE
8
FRONT_HID
6
HIDDEN
10
0.240625
20
0.784868
30
0.0
11
0.240625
21
0.792188
31
0.0
0
LINE
8
FRONT_HID
6
HIDDEN
10
0.240872
20
0.792188
30
0.0
11
0.240625
21
0.792188
31
0.0
0
LINE
8
FRONT_HID
6
HIDDEN
10
0.210938
20
0.784868
30
0.0
11
0.210938
21
0.589063
31
0.0
0
LINE
8
FRONT_HID
6
HIDDEN
10
0.210938
20
0.784868
30
0.0
11
0.240625
21
0.784868
31
0.0
0
LINE
8
FRONT_HID
6
HIDDEN
10
0.000000
20
0.784868
30
0.0
11
0.000000
21
0.589063
31
0.0
0
LINE
8
LEFT
10
0.564309
20
0.385937
30
0.0
11
0.626809
21
0.385937
31
0.0
0
LINE
8
LEFT
10
0.564309
20
0.588569
30
0.0
11
0.626809
21
0.588569
31
0.0
0
LINE
8
LEFT
10
0.626809
20
0.588569
30
0.0
11
0.626809
21
0.385937
31
0.0
0
LINE
8
LEFT
10
0.564309
20
0.588569
30
0.0
11
0.564309
21
0.385937
31
0.0
0
LINE
8
LEFT
10
0.564309
20
0.987500
30
0.0
11
0.564309
21
0.792188
31
0.0
0
LINE
8
LEFT
10
0.564309
20
0.589063
30
0.0
11
0.564309
21
0.588569
31
0.0
0
LINE
8
LEFT
10
0.626809
20
0.987500
30
0.0
11
0.626809
21
0.784868
31
0.0
0
LINE
8
LEFT
10
0.626809
20
0.784868
30
0.0
11
0.626809
21
0.588569
31
0.0
0
LINE
8
LEFT
10
0.564309
20
0.784868
30
0.0
11
0.626809
21
0.784868
31
0.0
0
LINE
8
LEFT
10
0.564309
20
0.792188
30
0.0
11
0.501809
21
0.792188
31
0.0
0
LINE
8
LEFT
10
0.564309
20
0.987500
30
0.0
11
0.626809
21
0.987500
31
0.0
0
LINE
8
LEFT
10
0.564309
20
0.784868
30
0.0
11
0.564309
21
0.589063
31
0.0
0
LINE
8
LEFT
10
0.564309
20
0.589063
30
0.0
11
0.501809
21
0.589063
31
0.0
0
LINE
8
LEFT
10
0.501809
20
0.792188
30
0.0
11
0.361184
21
0.792188
31
0.0
0
LINE
8
LEFT
10
0.501809
20
0.589063
30
0.0
11
0.361184
21
0.589063
31
0.0
0
LINE
8
LEFT
10
0.361184
20
0.792188
30
0.0
11
0.361184
21
0.589063
31
0.0
0
LINE
8
LEFT_HID
6
HIDDEN
10
0.564309
20
0.588569
30
0.0
11
0.564309
21
0.784868
31
0.0
0
LINE
8
LEFT_HID
6
HIDDEN
10
0.564309
20
0.792188
30
0.0
11
0.564309
21
0.784868
31
0.0
0
LINE
8
LEFT_HID
6
HIDDEN
10
0.564309
20
0.784868
30
0.0
11
0.564309
21
0.792188
31
0.0
0
LINE
8
LEFT_HID
6
HIDDEN
10
0.564309
20
0.784868
30
0.0
11
0.564309
21
0.792188
31
0.0
0
LINE
8
LEFT_HID
6
HIDDEN
10
0.564309
20
0.589063
30
0.0
11
0.564309
21
0.792188
31
0.0
0
LINE
8
TOP
10
0.240625
20
0.062500
30
0.0
11
0.000000
21
0.062500
31
0.0
0
LINE
8
TOP
10
0.240625
20
0.000000
30
0.0
11
0.000000
21
0.000000
31
0.0
0
LINE
8
TOP
10
0.029934
20
0.062500
30
0.0
11
0.029934
21
0.125000
31
0.0
0
LINE
8
TOP
10
0.000000
20
0.062500
30
0.0
11
0.000000
21
0.125000
31
0.0
0
LINE
8
TOP
10
0.000000
20
0.062500
30
0.0
11
0.000000
21
0.000000
31
0.0
0
LINE
8
TOP
10
0.240625
20
0.062500
30
0.0
11
0.240625
21
0.000000
31
0.0
0
LINE
8
TOP
10
0.240872
20
0.062500
30
0.0
11
0.240872
21
0.125000
31
0.0
0
LINE
8
TOP
10
0.210938
20
0.062500
30
0.0
11
0.210938
21
0.125000
31
0.0
0
LINE
8
TOP
10
0.240872
20
0.062500
30
0.0
11
0.240625
21
0.062500
31
0.0
0
LINE
8
TOP
10
0.029934
20
0.125000
30
0.0
11
0.029934
21
0.265625
31
0.0
0
LINE
8
TOP
10
0.029934
20
0.265625
30
0.0
11
0.000000
21
0.265625
31
0.0
0
LINE
8
TOP
10
0.000000
20
0.125000
30
0.0
11
0.000000
21
0.265625
31
0.0
0
LINE
8
TOP
10
0.240872
20
0.125000
30
0.0
11
0.240872
21
0.265625
31
0.0
0
LINE
8
TOP
10
0.240872
20
0.265625
30
0.0
11
0.210938
21
0.265625
31
0.0
0
LINE
8
TOP
10
0.210938
20
0.125000
30
0.0
11
0.210938
21
0.265625
31
0.0
0
LINE
8
TOP_HID
6
HIDDEN
10
0.031661
20
0.062500
30
0.0
11
0.000000
21
0.062500
31
0.0
0
LINE
8
TOP_HID
6
HIDDEN
10
0.240625
20
0.062500
30
0.0
11
0.208964
21
0.062500
31
0.0
0
LINE
8
TOP_HID
6
HIDDEN
10
0.208964
20
0.062500
30
0.0
11
0.210938
21
0.062500
31
0.0
0
LINE
8
TOP_HID
6
HIDDEN
10
0.240625
20
0.062500
30
0.0
11
0.210938
21
0.062500
31
0.0
0
LINE
8
TOP_HID
6
HIDDEN
10
0.029934
20
0.062500
30
0.0
11
0.000000
21
0.062500
31
0.0
0
LINE
8
TOP_HID
6
HIDDEN
10
0.029934
20
0.062500
30
0.0
11
0.031661
21
0.062500
31
0.0
0
LINE
8
TOP_HID
6
HIDDEN
10
0.240625
20
0.000000
30
0.0
11
0.208964
21
0.000000
31
0.0
0
LINE
8
TOP_HID
6
HIDDEN
10
0.208964
20
0.000000
30
0.0
11
0.240625
21
0.000000
31
0.0
0
LINE
8
TOP_HID
6
HIDDEN
10
0.000000
20
0.000000
30
0.0
11
0.031661
21
0.000000
31
0.0
0
LINE
8
TOP_HID
6
HIDDEN
10
0.031661
20
0.000000
30
0.0
11
0.000000
21
0.000000
31
0.0
0
LINE
8
TOP_HID
6
HIDDEN
10
0.031661
20
0.062500
30
0.0
11
0.031661
21
0.000000
31
0.0
0
LINE
8
TOP_HID
6
HIDDEN
10
0.208964
20
0.062500
30
0.0
11
0.208964
21
0.000000
31
0.0
0
LINE
8
TOP_HID
6
HIDDEN
10
0.031661
20
0.062500
30
0.0
11
0.031661
21
0.000000
31
0.0
0
LINE
8
TOP_HID
6
HIDDEN
10
0.000000
20
0.062500
30
0.0
11
0.029934
21
0.062500
31
0.0
0
LINE
8
TOP_HID
6
HIDDEN
10
0.208964
20
0.062500
30
0.0
11
0.208964
21
0.000000
31
0.0
0
LINE
8
TOP_HID
6
HIDDEN
10
0.210938
20
0.062500
30
0.0
11
0.240625
21
0.062500
31
0.0
0
LINE
8
TOP_HID
6
HIDDEN
10
0.000000
20
0.062500
30
0.0
11
0.029934
21
0.062500
31
0.0
0
LINE
8
TOP_HID
6
HIDDEN
10
0.210938
20
0.062500
30
0.0
11
0.240872
21
0.062500
31
0.0
0
ENDSEC
0
EOF
