0
SECTION
2
HEADER
9
$ACADVER
1
AC1009
0
ENDSEC
0
SECTION
2
TABLES
0
TABLE
2
LTYPE
70
3
0
LTYPE
2
CONTINUOUS
70
0
3
Solid line
72
65
73
0
40
0.0
0
LTYPE
2
HIDDEN
70
0
3
__ __ __ __ __
72
65
73
2
40
0.075789
49
0.050552
49
-0.025238
0
LTYPE
2
CENTER
70
0
3
___ _ ___ _ ___
72
65
73
4
40
0.176817
49
0.101027
49
-0.025238
49
0.025238
49
-0.025238
0
ENDTAB
0
TABLE
2
LAYER
70
6
0
LAYER
2
0
70
0
62
7
6
CONTINUOUS
0
LAYER
2
FRONT
70
0
62
7
6
CONTINUOUS
0
LAYER
2
FRONT_HID
70
0
62
7
6
HIDDEN
0
LAYER
2
LEFT
70
0
62
7
6
CONTINUOUS
0
LAYER
2
LEFT_HID
70
0
62
7
6
HIDDEN
0
LAYER
2
TOP
70
0
62
7
6
CONTINUOUS
0
ENDTAB
0
ENDSEC
0
SECTION
2
ENTITIES
0
LINE
8
FRONT
10
1.515789
20
1.818476
30
0.0
11
0.000000
21
1.818476
31
0.0
0
LINE
8
FRONT
10
1.515789
20
1.818476
30
0.0
11
1.515789
21
2.420039
31
0.0
0
LINE
8
FRONT
10
1.515789
20
2.420039
30
0.0
11
0.000000
21
2.420039
31
0.0
0
LINE
8
FRONT
10
0.000000
20
2.420039
30
0.0
11
0.000000
21
1.818476
31
0.0
0
LINE
8
FRONT_HID
6
HIDDEN
10
1.057895
20
1.818476
30
0.0
11
0.457895
21
1.818476
31
0.0
0
LINE
8
FRONT_HID
6
HIDDEN
10
0.457895
20
1.818476
30
0.0
11
1.057895
21
1.818476
31
0.0
0
LINE
8
FRONT_HID
6
HIDDEN
10
1.057895
20
1.818476
30
0.0
11
1.057895
21
2.420039
31
0.0
0
LINE
8
FRONT_HID
6
HIDDEN
10
1.057895
20
2.420039
30
0.0
11
0.457895
21
2.420039
31
0.0
0
LINE
8
FRONT_HID
6
HIDDEN
10
0.457895
20
2.420039
30
0.0
11
1.057895
21
2.420039
31
0.0
0
LINE
8
FRONT_HID
6
HIDDEN
10
0.457895
20
2.420039
30
0.0
11
0.457895
21
1.818476
31
0.0
0
LINE
8
LEFT
10
1.818947
20
1.818476
30
0.0
11
3.334737
21
1.818476
31
0.0
0
LINE
8
LEFT
10
1.818947
20
2.420039
30
0.0
11
3.334737
21
2.420039
31
0.0
0
LINE
8
LEFT
10
1.818947
20
2.420039
30
0.0
11
1.818947
21
1.818476
31
0.0
0
LINE
8
LEFT
10
3.334737
20
2.420039
30
0.0
11
3.334737
21
1.818476
31
0.0
0
LINE
8
LEFT_HID
6
HIDDEN
10
2.576842
20
1.818476
30
0.0
11
1.818947
21
1.818476
31
0.0
0
LINE
8
LEFT_HID
6
HIDDEN
10
3.334737
20
1.818476
30
0.0
11
2.576842
21
1.818476
31
0.0
0
LINE
8
LEFT_HID
6
HIDDEN
10
2.576842
20
2.420039
30
0.0
11
1.818947
21
2.420039
31
0.0
0
LINE
8
LEFT_HID
6
HIDDEN
10
3.334737
20
2.420039
30
0.0
11
2.576842
21
2.420039
31
0.0
0
LINE
8
LEFT_HID
6
HIDDEN
10
2.576842
20
1.818476
30
0.0
11
2.276842
21
1.818476
31
0.0
0
LINE
8
LEFT_HID
6
HIDDEN
10
2.276842
20
1.818476
30
0.0
11
2.876842
21
1.818476
31
0.0
0
LINE
8
LEFT_HID
6
HIDDEN
10
2.876842
20
1.818476
30
0.0
11
2.576842
21
1.818476
31
0.0
0
LINE
8
LEFT_HID
6
HIDDEN
10
2.576842
20
2.420039
30
0.0
11
2.276842
21
2.420039
31
0.0
0
LINE
8
LEFT_HID
6
HIDDEN
10
2.276842
20
2.420039
30
0.0
11
2.876842
21
2.420039
31
0.0
0
LINE
8
LEFT_HID
6
HIDDEN
10
2.876842
20
2.420039
30
0.0
11
2.576842
21
2.420039
31
0.0
0
LINE
8
LEFT_HID
6
HIDDEN
10
2.276842
20
2.420039
30
0.0
11
2.276842
21
1.818476
31
0.0
0
LINE
8
LEFT_HID
6
HIDDEN
10
2.876842
20
2.420039
30
0.0
11
2.876842
21
1.818476
31
0.0
0
LINE
8
TOP
10
1.514847
20
0.757659
30
0.0
11
1.511081
21
0.833121
31
0.0
0
LINE
8
TOP
10
1.511081
20
0.833121
30
0.0
11
1.499820
21
0.907833
31
0.0
0
LINE
8
TOP
10
1.499820
20
0.907833
30
0.0
11
1.481176
21
0.981053
31
0.0
0
LINE
8
TOP
10
1.481176
20
0.981053
30
0.0
11
1.455335
21
1.052052
31
0.0
0
LINE
8
TOP
10
1.455335
20
1.052052
30
0.0
11
1.422552
21
1.120125
31
0.0
0
LINE
8
TOP
10
1.422552
20
1.120125
30
0.0
11
1.383155
21
1.184596
31
0.0
0
LINE
8
TOP
10
1.383155
20
1.184596
30
0.0
11
1.337534
21
1.244825
31
0.0
0
LINE
8
TOP
10
1.337534
20
1.244825
30
0.0
11
1.286143
21
1.300211
31
0.0
0
LINE
8
TOP
10
1.286143
20
1.300211
30
0.0
11
1.229492
21
1.350205
31
0.0
0
LINE
8
TOP
10
1.229492
20
1.350205
30
0.0
11
1.168146
21
1.394310
31
0.0
0
LINE
8
TOP
10
1.168146
20
1.394310
30
0.0
11
1.102712
21
1.432088
31
0.0
0
LINE
8
TOP
10
1.102712
20
1.432088
30
0.0
11
1.033843
21
1.463163
31
0.0
0
LINE
8
TOP
10
1.033843
20
1.463163
30
0.0
11
0.962221
21
1.487227
31
0.0
0
LINE
8
TOP
10
0.962221
20
1.487227
30
0.0
11
0.888560
21
1.504040
31
0.0
0
LINE
8
TOP
10
0.888560
20
1.504040
30
0.0
11
0.813590
21
1.513435
31
0.0
0
LINE
8
TOP
10
0.813590
20
1.513435
30
0.0
11
0.738058
21
1.515318
31
0.0
0
LINE
8
TOP
10
0.738058
20
1.515318
30
0.0
11
0.662713
21
1.509672
31
0.0
0
LINE
8
TOP
10
0.662713
20
1.509672
30
0.0
11
0.588305
21
1.496552
31
0.0
0
LINE
8
TOP
10
0.588305
20
1.496552
30
0.0
11
0.515573
21
1.476088
31
0.0
0
LINE
8
TOP
10
0.515573
20
1.476088
30
0.0
11
0.445240
21
1.448485
31
0.0
0
LINE
8
TOP
10
0.445240
20
1.448485
30
0.0
11
0.378005
21
1.414015
31
0.0
0
LINE
8
TOP
10
0.378005
20
1.414015
30
0.0
11
0.314536
21
1.373023
31
0.0
0
LINE
8
TOP
10
0.314536
20
1.373023
30
0.0
11
0.255464
21
1.325914
31
0.0
0
LINE
8
TOP
10
0.255464
20
1.325914
30
0.0
11
0.201376
21
1.273159
31
0.0
0
LINE
8
TOP
10
0.201376
20
1.273159
30
0.0
11
0.152810
21
1.215279
31
0.0
0
LINE
8
TOP
10
0.152810
20
1.215279
30
0.0
11
0.110248
21
1.152852
31
0.0
0
LINE
8
TOP
10
0.110248
20
1.152852
30
0.0
11
0.074113
21
1.086497
31
0.0
0
LINE
8
TOP
10
0.074113
20
1.086497
30
0.0
11
0.044765
21
1.016874
31
0.0
0
LINE
8
TOP
10
0.044765
20
1.016874
30
0.0
11
0.022494
21
0.944675
31
0.0
0
LINE
8
TOP
10
0.022494
20
0.944675
30
0.0
11
0.007523
21
0.870618
31
0.0
0
LINE
8
TOP
10
0.007523
20
0.870618
30
0.0
11
0.000000
21
0.795437
31
0.0
0
LINE
8
TOP
10
0.000000
20
0.795437
30
0.0
11
0.000000
21
0.719881
31
0.0
0
LINE
8
TOP
10
0.000000
20
0.719881
30
0.0
11
0.007523
21
0.644701
31
0.0
0
LINE
8
TOP
10
0.007523
20
0.644701
30
0.0
11
0.022494
21
0.570643
31
0.0
0
LINE
8
TOP
10
0.022494
20
0.570643
30
0.0
11
0.044765
21
0.498444
31
0.0
0
LINE
8
TOP
10
0.044765
20
0.498444
30
0.0
11
0.074113
21
0.428821
31
0.0
0
LINE
8
TOP
10
0.074113
20
0.428821
30
0.0
11
0.110248
21
0.362466
31
0.0
0
LINE
8
TOP
10
0.110248
20
0.362466
30
0.0
11
0.152810
21
0.300039
31
0.0
0
LINE
8
TOP
10
0.152810
20
0.300039
30
0.0
11
0.201376
21
0.242160
31
0.0
0
LINE
8
TOP
10
0.201376
20
0.242160
30
0.0
11
0.255464
21
0.189404
31
0.0
0
LINE
8
TOP
10
0.255464
20
0.189404
30
0.0
11
0.314536
21
0.142296
31
0.0
0
LINE
8
TOP
10
0.314536
20
0.142296
30
0.0
11
0.378005
21
0.101303
31
0.0
0
LINE
8
TOP
10
0.378005
20
0.101303
30
0.0
11
0.445240
21
0.066834
31
0.0
0
LINE
8
TOP
10
0.445240
20
0.066834
30
0.0
11
0.515573
21
0.039230
31
0.0
0
LINE
8
TOP
10
0.515573
20
0.039230
30
0.0
11
0.588305
21
0.018766
31
0.0
0
LINE
8
TOP
10
0.588305
20
0.018766
30
0.0
11
0.662713
21
0.005646
31
0.0
0
LINE
8
TOP
10
0.662713
20
0.005646
30
0.0
11
0.738058
21
0.000000
31
0.0
0
LINE
8
TOP
10
0.738058
20
0.000000
30
0.0
11
0.813590
21
0.001884
31
0.0
0
LINE
8
TOP
10
0.813590
20
0.001884
30
0.0
11
0.888560
21
0.011279
31
0.0
0
LINE
8
TOP
10
0.888560
20
0.011279
30
0.0
11
0.962221
21
0.028091
31
0.0
0
LINE
8
TOP
10
0.962221
20
0.028091
30
0.0
11
1.033843
21
0.052155
31
0.0
0
LINE
8
TOP
10
1.033843
20
0.052155
30
0.0
11
1.102712
21
0.083230
31
0.0
0
LINE
8
TOP
10
1.102712
20
0.083230
30
0.0
11
1.168146
21
0.121008
31
0.0
0
LINE
8
TOP
10
1.168146
20
0.121008
30
0.0
11
1.229492
21
0.165113
31
0.0
0
LINE
8
TOP
10
1.229492
20
0.165113
30
0.0
11
1.286143
21
0.215107
31
0.0
0
LINE
8
TOP
10
1.286143
20
0.215107
30
0.0
11
1.337534
21
0.270494
31
0.0
0
LINE
8
TOP
10
1.337534
20
0.270494
30
0.0
11
1.383155
21
0.330722
31
0.0
0
LINE
8
TOP
10
1.383155
20
0.330722
30
0.0
11
1.422552
21
0.395193
31
0.0
0
LINE
8
TOP
10
1.422552
20
0.395193
30
0.0
11
1.455335
21
0.463266
31
0.0
0
LINE
8
TOP
10
1.455335
20
0.463266
30
0.0
11
1.481176
21
0.534266
31
0.0
0
LINE
8
TOP
10
1.481176
20
0.534266
30
0.0
11
1.499820
21
0.607485
31
0.0
0
LINE
8
TOP
10
1.499820
20
0.607485
30
0.0
11
1.511081
21
0.682197
31
0.0
0
LINE
8
TOP
10
1.511081
20
0.682197
30
0.0
11
1.514847
21
0.757659
31
0.0
0
LINE
8
TOP
10
1.056953
20
0.757659
30
0.0
11
1.055462
21
0.787530
31
0.0
0
LINE
8
TOP
10
1.055462
20
0.787530
30
0.0
11
1.051004
21
0.817103
31
0.0
0
LINE
8
TOP
10
1.051004
20
0.817103
30
0.0
11
1.043624
21
0.846086
31
0.0
0
LINE
8
TOP
10
1.043624
20
0.846086
30
0.0
11
1.033395
21
0.874190
31
0.0
0
LINE
8
TOP
10
1.033395
20
0.874190
30
0.0
11
1.020419
21
0.901135
31
0.0
0
LINE
8
TOP
10
1.020419
20
0.901135
30
0.0
11
1.004824
21
0.926655
31
0.0
0
LINE
8
TOP
10
1.004824
20
0.926655
30
0.0
11
0.986766
21
0.950495
31
0.0
0
LINE
8
TOP
10
0.986766
20
0.950495
30
0.0
11
0.966424
21
0.972419
31
0.0
0
LINE
8
TOP
10
0.966424
20
0.972419
30
0.0
11
0.944000
21
0.992209
31
0.0
0
LINE
8
TOP
10
0.944000
20
0.992209
30
0.0
11
0.919716
21
1.009667
31
0.0
0
LINE
8
TOP
10
0.919716
20
1.009667
30
0.0
11
0.893816
21
1.024621
31
0.0
0
LINE
8
TOP
10
0.893816
20
1.024621
30
0.0
11
0.866555
21
1.036921
31
0.0
0
LINE
8
TOP
10
0.866555
20
1.036921
30
0.0
11
0.838205
21
1.046446
31
0.0
0
LINE
8
TOP
10
0.838205
20
1.046446
30
0.0
11
0.809047
21
1.053101
31
0.0
0
LINE
8
TOP
10
0.809047
20
1.053101
30
0.0
11
0.779372
21
1.056820
31
0.0
0
LINE
8
TOP
10
0.779372
20
1.056820
30
0.0
11
0.749473
21
1.057566
31
0.0
0
LINE
8
TOP
10
0.749473
20
1.057566
30
0.0
11
0.719650
21
1.055331
31
0.0
0
LINE
8
TOP
10
0.719650
20
1.055331
30
0.0
11
0.690196
21
1.050138
31
0.0
0
LINE
8
TOP
10
0.690196
20
1.050138
30
0.0
11
0.661407
21
1.042037
31
0.0
0
LINE
8
TOP
10
0.661407
20
1.042037
30
0.0
11
0.633566
21
1.031111
31
0.0
0
LINE
8
TOP
10
0.633566
20
1.031111
30
0.0
11
0.606953
21
1.017467
31
0.0
0
LINE
8
TOP
10
0.606953
20
1.017467
30
0.0
11
0.581830
21
1.001241
31
0.0
0
LINE
8
TOP
10
0.581830
20
1.001241
30
0.0
11
0.558447
21
0.982594
31
0.0
0
LINE
8
TOP
10
0.558447
20
0.982594
30
0.0
11
0.537037
21
0.961711
31
0.0
0
LINE
8
TOP
10
0.537037
20
0.961711
30
0.0
11
0.517813
21
0.938800
31
0.0
0
LINE
8
TOP
10
0.517813
20
0.938800
30
0.0
11
0.500965
21
0.914090
31
0.0
0
LINE
8
TOP
10
0.500965
20
0.914090
30
0.0
11
0.486662
21
0.887824
31
0.0
0
LINE
8
TOP
10
0.486662
20
0.887824
30
0.0
11
0.475045
21
0.860265
31
0.0
0
LINE
8
TOP
10
0.475045
20
0.860265
30
0.0
11
0.466229
21
0.831686
31
0.0
0
LINE
8
TOP
10
0.466229
20
0.831686
30
0.0
11
0.460303
21
0.802372
31
0.0
0
LINE
8
TOP
10
0.460303
20
0.802372
30
0.0
11
0.457326
21
0.772613
31
0.0
0
LINE
8
TOP
10
0.457326
20
0.772613
30
0.0
11
0.457326
21
0.742705
31
0.0
0
LINE
8
TOP
10
0.457326
20
0.742705
30
0.0
11
0.460303
21
0.712946
31
0.0
0
LINE
8
TOP
10
0.460303
20
0.712946
30
0.0
11
0.466229
21
0.683632
31
0.0
0
LINE
8
TOP
10
0.466229
20
0.683632
30
0.0
11
0.475045
21
0.655053
31
0.0
0
LINE
8
TOP
10
0.475045
20
0.655053
30
0.0
11
0.486662
21
0.627494
31
0.0
0
LINE
8
TOP
10
0.486662
20
0.627494
30
0.0
11
0.500965
21
0.601229
31
0.0
0
LINE
8
TOP
10
0.500965
20
0.601229
30
0.0
11
0.517813
21
0.576518
31
0.0
0
LINE
8
TOP
10
0.517813
20
0.576518
30
0.0
11
0.537037
21
0.553607
31
0.0
0
LINE
8
TOP
10
0.537037
20
0.553607
30
0.0
11
0.558447
21
0.532725
31
0.0
0
LINE
8
TOP
10
0.558447
20
0.532725
30
0.0
11
0.581830
21
0.514078
31
0.0
0
LINE
8
TOP
10
0.581830
20
0.514078
30
0.0
11
0.606953
21
0.497852
31
0.0
0
LINE
8
TOP
10
0.606953
20
0.497852
30
0.0
11
0.633566
21
0.484207
31
0.0
0
LINE
8
TOP
10
0.633566
20
0.484207
30
0.0
11
0.661407
21
0.473281
31
0.0
0
LINE
8
TOP
10
0.661407
20
0.473281
30
0.0
11
0.690196
21
0.465181
31
0.0
0
LINE
8
TOP
10
0.690196
20
0.465181
30
0.0
11
0.719650
21
0.459987
31
0.0
0
LINE
8
TOP
10
0.719650
20
0.459987
30
0.0
11
0.749473
21
0.457752
31
0.0
0
LINE
8
TOP
10
0.749473
20
0.457752
30
0.0
11
0.779372
21
0.458498
31
0.0
0
LINE
8
TOP
10
0.779372
20
0.458498
30
0.0
11
0.809047
21
0.462217
31
0.0
0
LINE
8
TOP
10
0.809047
20
0.462217
30
0.0
11
0.838205
21
0.468872
31
0.0
0
LINE
8
TOP
10
0.838205
20
0.468872
30
0.0
11
0.866555
21
0.478397
31
0.0
0
LINE
8
TOP
10
0.866555
20
0.478397
30
0.0
11
0.893816
21
0.490698
31
0.0
0
LINE
8
TOP
10
0.893816
20
0.490698
30
0.0
11
0.919716
21
0.505651
31
0.0
0
LINE
8
TOP
10
0.919716
20
0.505651
30
0.0
11
0.944000
21
0.523110
31
0.0
0
LINE
8
TOP
10
0.944000
20
0.523110
30
0.0
11
0.966424
21
0.542899
31
0.0
0
LINE
8
TOP
10
0.966424
20
0.542899
30
0.0
11
0.986766
21
0.564823
31
0.0
0
LINE
8
TOP
10
0.986766
20
0.564823
30
0.0
11
1.004824
21
0.588663
31
0.0
0
LINE
8
TOP
10
1.004824
20
0.588663
30
0.0
11
1.020419
21
0.614183
31
0.0
0
LINE
8
TOP
10
1.020419
20
0.614183
30
0.0
11
1.033395
21
0.641129
31
0.0
0
LINE
8
TOP
10
1.033395
20
0.641129
30
0.0
11
1.043624
21
0.669233
31
0.0
0
LINE
8
TOP
10
1.043624
20
0.669233
30
0.0
11
1.051004
21
0.698215
31
0.0
0
LINE
8
TOP
10
1.051004
20
0.698215
30
0.0
11
1.055462
21
0.727789
31
0.0
0
LINE
8
TOP
10
1.055462
20
0.727789
30
0.0
11
1.056953
21
0.757659
31
0.0
0
ENDSEC
0
EOF
