0
SECTION
2
HEADER
9
$ACADVER
1
AC1009
0
ENDSEC
0
SECTION
2
TABLES
0
TABLE
2
LTYPE
70
3
0
LTYPE
2
CONTINUOUS
70
0
3
Solid line
72
65
73
0
40
0.0
0
LTYPE
2
HIDDEN
70
0
3
__ __ __ __ __
72
65
73
2
40
0.037500
49
0.025013
49
-0.012488
0
LTYPE
2
CENTER
70
0
3
___ _ ___ _ ___
72
65
73
4
40
0.087488
49
0.049988
49
-0.012488
49
0.012488
49
-0.012488
0
ENDTAB
0
TABLE
2
LAYER
70
5
0
LAYER
2
0
70
0
62
7
6
CONTINUOUS
0
LAYER
2
FRONT
70
0
62
7
6
CONTINUOUS
0
LAYER
2
LEFT
70
0
62
7
6
CONTINUOUS
0
LAYER
2
LEFT_HID
70
0
62
7
6
HIDDEN
0
LAYER
2
TOP
70
0
62
7
6
CONTINUOUS
0
ENDTAB
0
ENDSEC
0
SECTION
2
ENTITIES
0
LINE
8
FRONT
10
0.694737
20
0.844521
30
0.0
11
0.000000
21
0.844521
31
0.0
0
LINE
8
FRONT
10
0.694737
20
0.844521
30
0.0
11
0.694737
21
1.594521
31
0.0
0
LINE
8
FRONT
10
0.694737
20
1.594521
30
0.0
11
0.000000
21
1.594521
31
0.0
0
LINE
8
FRONT
10
0.000000
20
1.594521
30
0.0
11
0.000000
21
0.844521
31
0.0
0
LINE
8
LEFT
10
0.844737
20
0.844521
30
0.0
11
1.539474
21
0.844521
31
0.0
0
LINE
8
LEFT
10
0.844737
20
1.594521
30
0.0
11
1.539474
21
1.594521
31
0.0
0
LINE
8
LEFT
10
0.844737
20
1.594521
30
0.0
11
0.844737
21
0.844521
31
0.0
0
LINE
8
LEFT
10
1.539474
20
1.594521
30
0.0
11
1.539474
21
0.844521
31
0.0
0
LINE
8
LEFT_HID
6
HIDDEN
10
1.192105
20
0.844521
30
0.0
11
0.844737
21
0.844521
31
0.0
0
LINE
8
LEFT_HID
6
HIDDEN
10
1.539474
20
0.844521
30
0.0
11
1.192105
21
0.844521
31
0.0
0
LINE
8
LEFT_HID
6
HIDDEN
10
1.192105
20
1.594521
30
0.0
11
0.844737
21
1.594521
31
0.0
0
LINE
8
LEFT_HID
6
HIDDEN
10
1.539474
20
1.594521
30
0.0
11
1.192105
21
1.594521
31
0.0
0
LINE
8
TOP
10
0.694305
20
0.347260
30
0.0
11
0.692579
21
0.381847
31
0.0
0
LINE
8
TOP
10
0.692579
20
0.381847
30
0.0
11
0.687418
21
0.416090
31
0.0
0
LINE
8
TOP
10
0.687418
20
0.416090
30
0.0
11
0.678872
21
0.449649
31
0.0
0
LINE
8
TOP
10
0.678872
20
0.449649
30
0.0
11
0.667028
21
0.482190
31
0.0
0
LINE
8
TOP
10
0.667028
20
0.482190
30
0.0
11
0.652003
21
0.513391
31
0.0
0
LINE
8
TOP
10
0.652003
20
0.513391
30
0.0
11
0.633946
21
0.542940
31
0.0
0
LINE
8
TOP
10
0.633946
20
0.542940
30
0.0
11
0.613036
21
0.570545
31
0.0
0
LINE
8
TOP
10
0.613036
20
0.570545
30
0.0
11
0.589482
21
0.595930
31
0.0
0
LINE
8
TOP
10
0.589482
20
0.595930
30
0.0
11
0.563517
21
0.618844
31
0.0
0
LINE
8
TOP
10
0.563517
20
0.618844
30
0.0
11
0.535400
21
0.639059
31
0.0
0
LINE
8
TOP
10
0.535400
20
0.639059
30
0.0
11
0.505410
21
0.656374
31
0.0
0
LINE
8
TOP
10
0.505410
20
0.656374
30
0.0
11
0.473845
21
0.670617
31
0.0
0
LINE
8
TOP
10
0.473845
20
0.670617
30
0.0
11
0.441018
21
0.681646
31
0.0
0
LINE
8
TOP
10
0.441018
20
0.681646
30
0.0
11
0.407257
21
0.689352
31
0.0
0
LINE
8
TOP
10
0.407257
20
0.689352
30
0.0
11
0.372895
21
0.693658
31
0.0
0
LINE
8
TOP
10
0.372895
20
0.693658
30
0.0
11
0.338276
21
0.694521
31
0.0
0
LINE
8
TOP
10
0.338276
20
0.694521
30
0.0
11
0.303744
21
0.691933
31
0.0
0
LINE
8
TOP
10
0.303744
20
0.691933
30
0.0
11
0.269640
21
0.685920
31
0.0
0
LINE
8
TOP
10
0.269640
20
0.685920
30
0.0
11
0.236304
21
0.676540
31
0.0
0
LINE
8
TOP
10
0.236304
20
0.676540
30
0.0
11
0.204068
21
0.663889
31
0.0
0
LINE
8
TOP
10
0.204068
20
0.663889
30
0.0
11
0.173252
21
0.648090
31
0.0
0
LINE
8
TOP
10
0.173252
20
0.648090
30
0.0
11
0.144162
21
0.629302
31
0.0
0
LINE
8
TOP
10
0.144162
20
0.629302
30
0.0
11
0.117088
21
0.607711
31
0.0
0
LINE
8
TOP
10
0.117088
20
0.607711
30
0.0
11
0.092298
21
0.583531
31
0.0
0
LINE
8
TOP
10
0.092298
20
0.583531
30
0.0
11
0.070038
21
0.557003
31
0.0
0
LINE
8
TOP
10
0.070038
20
0.557003
30
0.0
11
0.050530
21
0.528391
31
0.0
0
LINE
8
TOP
10
0.050530
20
0.528391
30
0.0
11
0.033968
21
0.497978
31
0.0
0
LINE
8
TOP
10
0.033968
20
0.497978
30
0.0
11
0.020517
21
0.466067
31
0.0
0
LINE
8
TOP
10
0.020517
20
0.466067
30
0.0
11
0.010310
21
0.432976
31
0.0
0
LINE
8
TOP
10
0.010310
20
0.432976
30
0.0
11
0.003448
21
0.399033
31
0.0
0
LINE
8
TOP
10
0.003448
20
0.399033
30
0.0
11
0.000000
21
0.364575
31
0.0
0
LINE
8
TOP
10
0.000000
20
0.364575
30
0.0
11
0.000000
21
0.329946
31
0.0
0
LINE
8
TOP
10
0.000000
20
0.329946
30
0.0
11
0.003448
21
0.295488
31
0.0
0
LINE
8
TOP
10
0.003448
20
0.295488
30
0.0
11
0.010310
21
0.261545
31
0.0
0
LINE
8
TOP
10
0.010310
20
0.261545
30
0.0
11
0.020517
21
0.228453
31
0.0
0
LINE
8
TOP
10
0.020517
20
0.228453
30
0.0
11
0.033968
21
0.196543
31
0.0
0
LINE
8
TOP
10
0.033968
20
0.196543
30
0.0
11
0.050530
21
0.166130
31
0.0
0
LINE
8
TOP
10
0.050530
20
0.166130
30
0.0
11
0.070038
21
0.137518
31
0.0
0
LINE
8
TOP
10
0.070038
20
0.137518
30
0.0
11
0.092298
21
0.110990
31
0.0
0
LINE
8
TOP
10
0.092298
20
0.110990
30
0.0
11
0.117088
21
0.086810
31
0.0
0
LINE
8
TOP
10
0.117088
20
0.086810
30
0.0
11
0.144162
21
0.065219
31
0.0
0
LINE
8
TOP
10
0.144162
20
0.065219
30
0.0
11
0.173252
21
0.046431
31
0.0
0
LINE
8
TOP
10
0.173252
20
0.046431
30
0.0
11
0.204068
21
0.030632
31
0.0
0
LINE
8
TOP
10
0.204068
20
0.030632
30
0.0
11
0.236304
21
0.017980
31
0.0
0
LINE
8
TOP
10
0.236304
20
0.017980
30
0.0
11
0.269640
21
0.008601
31
0.0
0
LINE
8
TOP
10
0.269640
20
0.008601
30
0.0
11
0.303744
21
0.002588
31
0.0
0
LINE
8
TOP
10
0.303744
20
0.002588
30
0.0
11
0.338276
21
0.000000
31
0.0
0
LINE
8
TOP
10
0.338276
20
0.000000
30
0.0
11
0.372895
21
0.000863
31
0.0
0
LINE
8
TOP
10
0.372895
20
0.000863
30
0.0
11
0.407257
21
0.005169
31
0.0
0
LINE
8
TOP
10
0.407257
20
0.005169
30
0.0
11
0.441018
21
0.012875
31
0.0
0
LINE
8
TOP
10
0.441018
20
0.012875
30
0.0
11
0.473845
21
0.023904
31
0.0
0
LINE
8
TOP
10
0.473845
20
0.023904
30
0.0
11
0.505410
21
0.038147
31
0.0
0
LINE
8
TOP
10
0.505410
20
0.038147
30
0.0
11
0.535400
21
0.055462
31
0.0
0
LINE
8
TOP
10
0.535400
20
0.055462
30
0.0
11
0.563517
21
0.075677
31
0.0
0
LINE
8
TOP
10
0.563517
20
0.075677
30
0.0
11
0.589482
21
0.098591
31
0.0
0
LINE
8
TOP
10
0.589482
20
0.098591
30
0.0
11
0.613036
21
0.123976
31
0.0
0
LINE
8
TOP
10
0.613036
20
0.123976
30
0.0
11
0.633946
21
0.151581
31
0.0
0
LINE
8
TOP
10
0.633946
20
0.151581
30
0.0
11
0.652003
21
0.181130
31
0.0
0
LINE
8
TOP
10
0.652003
20
0.181130
30
0.0
11
0.667028
21
0.212330
31
0.0
0
LINE
8
TOP
10
0.667028
20
0.212330
30
0.0
11
0.678872
21
0.244872
31
0.0
0
LINE
8
TOP
10
0.678872
20
0.244872
30
0.0
11
0.687418
21
0.278431
31
0.0
0
LINE
8
TOP
10
0.687418
20
0.278431
30
0.0
11
0.692579
21
0.312674
31
0.0
0
LINE
8
TOP
10
0.692579
20
0.312674
30
0.0
11
0.694305
21
0.347260
31
0.0
0
ENDSEC
0
EOF
