0
SECTION
2
HEADER
9
$ACADVER
1
AC1009
0
ENDSEC
0
SECTION
2
TABLES
0
TABLE
2
LTYPE
70
3
0
LTYPE
2
CONTINUOUS
70
0
3
Solid line
72
65
73
0
40
0.0
0
LTYPE
2
HIDDEN
70
0
3
__ __ __ __ __
72
65
73
2
40
0.037500
49
0.025013
49
-0.012488
0
LTYPE
2
CENTER
70
0
3
___ _ ___ _ ___
72
65
73
4
40
0.087488
49
0.049988
49
-0.012488
49
0.012488
49
-0.012488
0
ENDTAB
0
TABLE
2
LAYER
70
7
0
LAYER
2
0
70
0
62
7
6
CONTINUOUS
0
LAYER
2
FRONT
70
0
62
7
6
CONTINUOUS
0
LAYER
2
FRONT_HID
70
0
62
7
6
HIDDEN
0
LAYER
2
LEFT
70
0
62
7
6
CONTINUOUS
0
LAYER
2
LEFT_HID
70
0
62
7
6
HIDDEN
0
LAYER
2
TOP
70
0
62
7
6
CONTINUOUS
0
LAYER
2
TOP_HID
70
0
62
7
6
HIDDEN
0
ENDTAB
0
ENDSEC
0
SECTION
2
ENTITIES
0
LINE
8
FRONT
10
0.678947
20
1.578736
30
0.0
11
0.678947
21
0.852174
31
0.0
0
LINE
8
FRONT
10
0.678947
20
0.852174
30
0.0
11
0.000000
21
0.852174
31
0.0
0
LINE
8
FRONT
10
0.678947
20
1.578736
30
0.0
11
0.000000
21
1.578736
31
0.0
0
LINE
8
FRONT
10
0.527303
20
0.852174
30
0.0
11
0.527303
21
0.828736
31
0.0
0
LINE
8
FRONT
10
0.527303
20
0.828736
30
0.0
11
0.156250
21
0.828736
31
0.0
0
LINE
8
FRONT
10
0.000000
20
0.852174
30
0.0
11
0.000000
21
1.578736
31
0.0
0
LINE
8
FRONT
10
0.156250
20
0.828736
30
0.0
11
0.156250
21
0.852174
31
0.0
0
LINE
8
FRONT_HID
6
HIDDEN
10
0.527303
20
1.578736
30
0.0
11
0.515523
21
1.578736
31
0.0
0
LINE
8
FRONT_HID
6
HIDDEN
10
0.515523
20
1.578736
30
0.0
11
0.503744
21
1.578736
31
0.0
0
LINE
8
FRONT_HID
6
HIDDEN
10
0.503744
20
1.578736
30
0.0
11
0.491964
21
1.578736
31
0.0
0
LINE
8
FRONT_HID
6
HIDDEN
10
0.491964
20
1.578736
30
0.0
11
0.480185
21
1.578736
31
0.0
0
LINE
8
FRONT_HID
6
HIDDEN
10
0.480185
20
1.578736
30
0.0
11
0.468405
21
1.578736
31
0.0
0
LINE
8
FRONT_HID
6
HIDDEN
10
0.468405
20
1.578736
30
0.0
11
0.456626
21
1.578736
31
0.0
0
LINE
8
FRONT_HID
6
HIDDEN
10
0.456626
20
1.578736
30
0.0
11
0.444846
21
1.578736
31
0.0
0
LINE
8
FRONT_HID
6
HIDDEN
10
0.444846
20
1.578736
30
0.0
11
0.433067
21
1.578736
31
0.0
0
LINE
8
FRONT_HID
6
HIDDEN
10
0.433067
20
1.578736
30
0.0
11
0.421288
21
1.578736
31
0.0
0
LINE
8
FRONT_HID
6
HIDDEN
10
0.421288
20
1.578736
30
0.0
11
0.409508
21
1.578736
31
0.0
0
LINE
8
FRONT_HID
6
HIDDEN
10
0.409508
20
1.578736
30
0.0
11
0.397729
21
1.578736
31
0.0
0
LINE
8
FRONT_HID
6
HIDDEN
10
0.397729
20
1.578736
30
0.0
11
0.385949
21
1.578736
31
0.0
0
LINE
8
FRONT_HID
6
HIDDEN
10
0.385949
20
1.578736
30
0.0
11
0.374170
21
1.578736
31
0.0
0
LINE
8
FRONT_HID
6
HIDDEN
10
0.374170
20
1.578736
30
0.0
11
0.362390
21
1.578736
31
0.0
0
LINE
8
FRONT_HID
6
HIDDEN
10
0.362390
20
1.578736
30
0.0
11
0.350611
21
1.578736
31
0.0
0
LINE
8
FRONT_HID
6
HIDDEN
10
0.350611
20
1.578736
30
0.0
11
0.338831
21
1.578736
31
0.0
0
LINE
8
FRONT_HID
6
HIDDEN
10
0.338831
20
1.578736
30
0.0
11
0.327052
21
1.578736
31
0.0
0
LINE
8
FRONT_HID
6
HIDDEN
10
0.327052
20
1.578736
30
0.0
11
0.315273
21
1.578736
31
0.0
0
LINE
8
FRONT_HID
6
HIDDEN
10
0.315273
20
1.578736
30
0.0
11
0.303493
21
1.578736
31
0.0
0
LINE
8
FRONT_HID
6
HIDDEN
10
0.303493
20
1.578736
30
0.0
11
0.291714
21
1.578736
31
0.0
0
LINE
8
FRONT_HID
6
HIDDEN
10
0.291714
20
1.578736
30
0.0
11
0.279934
21
1.578736
31
0.0
0
LINE
8
FRONT_HID
6
HIDDEN
10
0.279934
20
1.578736
30
0.0
11
0.268155
21
1.578736
31
0.0
0
LINE
8
FRONT_HID
6
HIDDEN
10
0.268155
20
1.578736
30
0.0
11
0.256375
21
1.578736
31
0.0
0
LINE
8
FRONT_HID
6
HIDDEN
10
0.256375
20
1.578736
30
0.0
11
0.244596
21
1.578736
31
0.0
0
LINE
8
FRONT_HID
6
HIDDEN
10
0.244596
20
1.578736
30
0.0
11
0.232816
21
1.578736
31
0.0
0
LINE
8
FRONT_HID
6
HIDDEN
10
0.232816
20
1.578736
30
0.0
11
0.221037
21
1.578736
31
0.0
0
LINE
8
FRONT_HID
6
HIDDEN
10
0.221037
20
1.578736
30
0.0
11
0.209258
21
1.578736
31
0.0
0
LINE
8
FRONT_HID
6
HIDDEN
10
0.209258
20
1.578736
30
0.0
11
0.197478
21
1.578736
31
0.0
0
LINE
8
FRONT_HID
6
HIDDEN
10
0.197478
20
1.578736
30
0.0
11
0.185699
21
1.578736
31
0.0
0
LINE
8
FRONT_HID
6
HIDDEN
10
0.185699
20
1.578736
30
0.0
11
0.173919
21
1.578736
31
0.0
0
LINE
8
FRONT_HID
6
HIDDEN
10
0.173919
20
1.578736
30
0.0
11
0.162140
21
1.578736
31
0.0
0
LINE
8
FRONT_HID
6
HIDDEN
10
0.162140
20
1.578736
30
0.0
11
0.173919
21
1.578736
31
0.0
0
LINE
8
FRONT_HID
6
HIDDEN
10
0.173919
20
1.578736
30
0.0
11
0.185699
21
1.578736
31
0.0
0
LINE
8
FRONT_HID
6
HIDDEN
10
0.185699
20
1.578736
30
0.0
11
0.197478
21
1.578736
31
0.0
0
LINE
8
FRONT_HID
6
HIDDEN
10
0.197478
20
1.578736
30
0.0
11
0.209258
21
1.578736
31
0.0
0
LINE
8
FRONT_HID
6
HIDDEN
10
0.209258
20
1.578736
30
0.0
11
0.221037
21
1.578736
31
0.0
0
LINE
8
FRONT_HID
6
HIDDEN
10
0.221037
20
1.578736
30
0.0
11
0.232816
21
1.578736
31
0.0
0
LINE
8
FRONT_HID
6
HIDDEN
10
0.232816
20
1.578736
30
0.0
11
0.244596
21
1.578736
31
0.0
0
LINE
8
FRONT_HID
6
HIDDEN
10
0.244596
20
1.578736
30
0.0
11
0.256375
21
1.578736
31
0.0
0
LINE
8
FRONT_HID
6
HIDDEN
10
0.256375
20
1.578736
30
0.0
11
0.268155
21
1.578736
31
0.0
0
LINE
8
FRONT_HID
6
HIDDEN
10
0.268155
20
1.578736
30
0.0
11
0.279934
21
1.578736
31
0.0
0
LINE
8
FRONT_HID
6
HIDDEN
10
0.279934
20
1.578736
30
0.0
11
0.291714
21
1.578736
31
0.0
0
LINE
8
FRONT_HID
6
HIDDEN
10
0.291714
20
1.578736
30
0.0
11
0.303493
21
1.578736
31
0.0
0
LINE
8
FRONT_HID
6
HIDDEN
10
0.303493
20
1.578736
30
0.0
11
0.315273
21
1.578736
31
0.0
0
LINE
8
FRONT_HID
6
HIDDEN
10
0.315273
20
1.578736
30
0.0
11
0.327052
21
1.578736
31
0.0
0
LINE
8
FRONT_HID
6
HIDDEN
10
0.327052
20
1.578736
30
0.0
11
0.338831
21
1.578736
31
0.0
0
LINE
8
FRONT_HID
6
HIDDEN
10
0.338831
20
1.578736
30
0.0
11
0.350611
21
1.578736
31
0.0
0
LINE
8
FRONT_HID
6
HIDDEN
10
0.350611
20
1.578736
30
0.0
11
0.362390
21
1.578736
31
0.0
0
LINE
8
FRONT_HID
6
HIDDEN
10
0.362390
20
1.578736
30
0.0
11
0.374170
21
1.578736
31
0.0
0
LINE
8
FRONT_HID
6
HIDDEN
10
0.374170
20
1.578736
30
0.0
11
0.385949
21
1.578736
31
0.0
0
LINE
8
FRONT_HID
6
HIDDEN
10
0.385949
20
1.578736
30
0.0
11
0.397729
21
1.578736
31
0.0
0
LINE
8
FRONT_HID
6
HIDDEN
10
0.397729
20
1.578736
30
0.0
11
0.409508
21
1.578736
31
0.0
0
LINE
8
FRONT_HID
6
HIDDEN
10
0.409508
20
1.578736
30
0.0
11
0.421288
21
1.578736
31
0.0
0
LINE
8
FRONT_HID
6
HIDDEN
10
0.421288
20
1.578736
30
0.0
11
0.433067
21
1.578736
31
0.0
0
LINE
8
FRONT_HID
6
HIDDEN
10
0.433067
20
1.578736
30
0.0
11
0.444846
21
1.578736
31
0.0
0
LINE
8
FRONT_HID
6
HIDDEN
10
0.444846
20
1.578736
30
0.0
11
0.456626
21
1.578736
31
0.0
0
LINE
8
FRONT_HID
6
HIDDEN
10
0.456626
20
1.578736
30
0.0
11
0.468405
21
1.578736
31
0.0
0
LINE
8
FRONT_HID
6
HIDDEN
10
0.468405
20
1.578736
30
0.0
11
0.480185
21
1.578736
31
0.0
0
LINE
8
FRONT_HID
6
HIDDEN
10
0.480185
20
1.578736
30
0.0
11
0.491964
21
1.578736
31
0.0
0
LINE
8
FRONT_HID
6
HIDDEN
10
0.491964
20
1.578736
30
0.0
11
0.503744
21
1.578736
31
0.0
0
LINE
8
FRONT_HID
6
HIDDEN
10
0.503744
20
1.578736
30
0.0
11
0.515523
21
1.578736
31
0.0
0
LINE
8
FRONT_HID
6
HIDDEN
10
0.515523
20
1.578736
30
0.0
11
0.527303
21
1.578736
31
0.0
0
LINE
8
FRONT_HID
6
HIDDEN
10
0.527303
20
0.852174
30
0.0
11
0.156250
21
0.852174
31
0.0
0
LINE
8
FRONT_HID
6
HIDDEN
10
0.156250
20
0.852174
30
0.0
11
0.527303
21
0.852174
31
0.0
0
LINE
8
LEFT
10
0.828947
20
0.852174
30
0.0
11
1.507895
21
0.852174
31
0.0
0
LINE
8
LEFT
10
0.828947
20
1.578736
30
0.0
11
1.507895
21
1.578736
31
0.0
0
LINE
8
LEFT
10
0.982895
20
0.828736
30
0.0
11
1.353947
21
0.828736
31
0.0
0
LINE
8
LEFT
10
1.507895
20
0.852174
30
0.0
11
1.507895
21
1.578736
31
0.0
0
LINE
8
LEFT
10
0.828947
20
0.852174
30
0.0
11
0.828947
21
1.578736
31
0.0
0
LINE
8
LEFT
10
1.353947
20
0.828736
30
0.0
11
1.353947
21
0.852174
31
0.0
0
LINE
8
LEFT
10
0.982895
20
0.828736
30
0.0
11
0.982895
21
0.852174
31
0.0
0
LINE
8
LEFT_HID
6
HIDDEN
10
1.168421
20
0.852174
30
0.0
11
0.828947
21
0.852174
31
0.0
0
LINE
8
LEFT_HID
6
HIDDEN
10
1.507895
20
0.852174
30
0.0
11
1.168421
21
0.852174
31
0.0
0
LINE
8
LEFT_HID
6
HIDDEN
10
1.168421
20
1.578736
30
0.0
11
0.828947
21
1.578736
31
0.0
0
LINE
8
LEFT_HID
6
HIDDEN
10
1.507895
20
1.578736
30
0.0
11
1.168421
21
1.578736
31
0.0
0
LINE
8
LEFT_HID
6
HIDDEN
10
1.168421
20
1.578736
30
0.0
11
1.156937
21
1.578736
31
0.0
0
LINE
8
LEFT_HID
6
HIDDEN
10
1.156937
20
1.578736
30
0.0
11
1.145453
21
1.578736
31
0.0
0
LINE
8
LEFT_HID
6
HIDDEN
10
1.145453
20
1.578736
30
0.0
11
1.133969
21
1.578736
31
0.0
0
LINE
8
LEFT_HID
6
HIDDEN
10
1.133969
20
1.578736
30
0.0
11
1.122485
21
1.578736
31
0.0
0
LINE
8
LEFT_HID
6
HIDDEN
10
1.122485
20
1.578736
30
0.0
11
1.111000
21
1.578736
31
0.0
0
LINE
8
LEFT_HID
6
HIDDEN
10
1.111000
20
1.578736
30
0.0
11
1.099516
21
1.578736
31
0.0
0
LINE
8
LEFT_HID
6
HIDDEN
10
1.099516
20
1.578736
30
0.0
11
1.088032
21
1.578736
31
0.0
0
LINE
8
LEFT_HID
6
HIDDEN
10
1.088032
20
1.578736
30
0.0
11
1.076548
21
1.578736
31
0.0
0
LINE
8
LEFT_HID
6
HIDDEN
10
1.076548
20
1.578736
30
0.0
11
1.065064
21
1.578736
31
0.0
0
LINE
8
LEFT_HID
6
HIDDEN
10
1.065064
20
1.578736
30
0.0
11
1.053580
21
1.578736
31
0.0
0
LINE
8
LEFT_HID
6
HIDDEN
10
1.053580
20
1.578736
30
0.0
11
1.042096
21
1.578736
31
0.0
0
LINE
8
LEFT_HID
6
HIDDEN
10
1.042096
20
1.578736
30
0.0
11
1.030612
21
1.578736
31
0.0
0
LINE
8
LEFT_HID
6
HIDDEN
10
1.030612
20
1.578736
30
0.0
11
1.019128
21
1.578736
31
0.0
0
LINE
8
LEFT_HID
6
HIDDEN
10
1.019128
20
1.578736
30
0.0
11
1.007643
21
1.578736
31
0.0
0
LINE
8
LEFT_HID
6
HIDDEN
10
1.007643
20
1.578736
30
0.0
11
0.996159
21
1.578736
31
0.0
0
LINE
8
LEFT_HID
6
HIDDEN
10
0.996159
20
1.578736
30
0.0
11
0.990417
21
1.578736
31
0.0
0
LINE
8
LEFT_HID
6
HIDDEN
10
0.990417
20
1.578736
30
0.0
11
1.001901
21
1.578736
31
0.0
0
LINE
8
LEFT_HID
6
HIDDEN
10
1.001901
20
1.578736
30
0.0
11
1.013386
21
1.578736
31
0.0
0
LINE
8
LEFT_HID
6
HIDDEN
10
1.013386
20
1.578736
30
0.0
11
1.024870
21
1.578736
31
0.0
0
LINE
8
LEFT_HID
6
HIDDEN
10
1.024870
20
1.578736
30
0.0
11
1.036354
21
1.578736
31
0.0
0
LINE
8
LEFT_HID
6
HIDDEN
10
1.036354
20
1.578736
30
0.0
11
1.047838
21
1.578736
31
0.0
0
LINE
8
LEFT_HID
6
HIDDEN
10
1.047838
20
1.578736
30
0.0
11
1.059322
21
1.578736
31
0.0
0
LINE
8
LEFT_HID
6
HIDDEN
10
1.059322
20
1.578736
30
0.0
11
1.070806
21
1.578736
31
0.0
0
LINE
8
LEFT_HID
6
HIDDEN
10
1.070806
20
1.578736
30
0.0
11
1.082290
21
1.578736
31
0.0
0
LINE
8
LEFT_HID
6
HIDDEN
10
1.082290
20
1.578736
30
0.0
11
1.093774
21
1.578736
31
0.0
0
LINE
8
LEFT_HID
6
HIDDEN
10
1.093774
20
1.578736
30
0.0
11
1.105258
21
1.578736
31
0.0
0
LINE
8
LEFT_HID
6
HIDDEN
10
1.105258
20
1.578736
30
0.0
11
1.116743
21
1.578736
31
0.0
0
LINE
8
LEFT_HID
6
HIDDEN
10
1.116743
20
1.578736
30
0.0
11
1.128227
21
1.578736
31
0.0
0
LINE
8
LEFT_HID
6
HIDDEN
10
1.128227
20
1.578736
30
0.0
11
1.139711
21
1.578736
31
0.0
0
LINE
8
LEFT_HID
6
HIDDEN
10
1.139711
20
1.578736
30
0.0
11
1.151195
21
1.578736
31
0.0
0
LINE
8
LEFT_HID
6
HIDDEN
10
1.151195
20
1.578736
30
0.0
11
1.162679
21
1.578736
31
0.0
0
LINE
8
LEFT_HID
6
HIDDEN
10
1.162679
20
1.578736
30
0.0
11
1.174163
21
1.578736
31
0.0
0
LINE
8
LEFT_HID
6
HIDDEN
10
1.174163
20
1.578736
30
0.0
11
1.185647
21
1.578736
31
0.0
0
LINE
8
LEFT_HID
6
HIDDEN
10
1.185647
20
1.578736
30
0.0
11
1.197131
21
1.578736
31
0.0
0
LINE
8
LEFT_HID
6
HIDDEN
10
1.197131
20
1.578736
30
0.0
11
1.208615
21
1.578736
31
0.0
0
LINE
8
LEFT_HID
6
HIDDEN
10
1.208615
20
1.578736
30
0.0
11
1.220100
21
1.578736
31
0.0
0
LINE
8
LEFT_HID
6
HIDDEN
10
1.220100
20
1.578736
30
0.0
11
1.231584
21
1.578736
31
0.0
0
LINE
8
LEFT_HID
6
HIDDEN
10
1.231584
20
1.578736
30
0.0
11
1.243068
21
1.578736
31
0.0
0
LINE
8
LEFT_HID
6
HIDDEN
10
1.243068
20
1.578736
30
0.0
11
1.254552
21
1.578736
31
0.0
0
LINE
8
LEFT_HID
6
HIDDEN
10
1.254552
20
1.578736
30
0.0
11
1.266036
21
1.578736
31
0.0
0
LINE
8
LEFT_HID
6
HIDDEN
10
1.266036
20
1.578736
30
0.0
11
1.277520
21
1.578736
31
0.0
0
LINE
8
LEFT_HID
6
HIDDEN
10
1.277520
20
1.578736
30
0.0
11
1.289004
21
1.578736
31
0.0
0
LINE
8
LEFT_HID
6
HIDDEN
10
1.289004
20
1.578736
30
0.0
11
1.300488
21
1.578736
31
0.0
0
LINE
8
LEFT_HID
6
HIDDEN
10
1.300488
20
1.578736
30
0.0
11
1.311972
21
1.578736
31
0.0
0
LINE
8
LEFT_HID
6
HIDDEN
10
1.311972
20
1.578736
30
0.0
11
1.323457
21
1.578736
31
0.0
0
LINE
8
LEFT_HID
6
HIDDEN
10
1.323457
20
1.578736
30
0.0
11
1.334941
21
1.578736
31
0.0
0
LINE
8
LEFT_HID
6
HIDDEN
10
1.334941
20
1.578736
30
0.0
11
1.346425
21
1.578736
31
0.0
0
LINE
8
LEFT_HID
6
HIDDEN
10
1.346425
20
1.578736
30
0.0
11
1.340683
21
1.578736
31
0.0
0
LINE
8
LEFT_HID
6
HIDDEN
10
1.340683
20
1.578736
30
0.0
11
1.329199
21
1.578736
31
0.0
0
LINE
8
LEFT_HID
6
HIDDEN
10
1.329199
20
1.578736
30
0.0
11
1.317715
21
1.578736
31
0.0
0
LINE
8
LEFT_HID
6
HIDDEN
10
1.317715
20
1.578736
30
0.0
11
1.306230
21
1.578736
31
0.0
0
LINE
8
LEFT_HID
6
HIDDEN
10
1.306230
20
1.578736
30
0.0
11
1.294746
21
1.578736
31
0.0
0
LINE
8
LEFT_HID
6
HIDDEN
10
1.294746
20
1.578736
30
0.0
11
1.283262
21
1.578736
31
0.0
0
LINE
8
LEFT_HID
6
HIDDEN
10
1.283262
20
1.578736
30
0.0
11
1.271778
21
1.578736
31
0.0
0
LINE
8
LEFT_HID
6
HIDDEN
10
1.271778
20
1.578736
30
0.0
11
1.260294
21
1.578736
31
0.0
0
LINE
8
LEFT_HID
6
HIDDEN
10
1.260294
20
1.578736
30
0.0
11
1.248810
21
1.578736
31
0.0
0
LINE
8
LEFT_HID
6
HIDDEN
10
1.248810
20
1.578736
30
0.0
11
1.237326
21
1.578736
31
0.0
0
LINE
8
LEFT_HID
6
HIDDEN
10
1.237326
20
1.578736
30
0.0
11
1.225842
21
1.578736
31
0.0
0
LINE
8
LEFT_HID
6
HIDDEN
10
1.225842
20
1.578736
30
0.0
11
1.214358
21
1.578736
31
0.0
0
LINE
8
LEFT_HID
6
HIDDEN
10
1.214358
20
1.578736
30
0.0
11
1.202873
21
1.578736
31
0.0
0
LINE
8
LEFT_HID
6
HIDDEN
10
1.202873
20
1.578736
30
0.0
11
1.191389
21
1.578736
31
0.0
0
LINE
8
LEFT_HID
6
HIDDEN
10
1.191389
20
1.578736
30
0.0
11
1.179905
21
1.578736
31
0.0
0
LINE
8
LEFT_HID
6
HIDDEN
10
1.179905
20
1.578736
30
0.0
11
1.168421
21
1.578736
31
0.0
0
LINE
8
LEFT_HID
6
HIDDEN
10
1.168421
20
0.852174
30
0.0
11
0.982895
21
0.852174
31
0.0
0
LINE
8
LEFT_HID
6
HIDDEN
10
0.982895
20
0.852174
30
0.0
11
1.353947
21
0.852174
31
0.0
0
LINE
8
LEFT_HID
6
HIDDEN
10
1.353947
20
0.852174
30
0.0
11
1.168421
21
0.852174
31
0.0
0
LINE
8
LEFT_HID
6
HIDDEN
10
1.168421
20
0.828736
30
0.0
11
0.982895
21
0.828736
31
0.0
0
LINE
8
LEFT_HID
6
HIDDEN
10
1.353947
20
0.828736
30
0.0
11
1.168421
21
0.828736
31
0.0
0
LINE
8
TOP
10
0.678525
20
0.339368
30
0.0
11
0.676838
21
0.373169
31
0.0
0
LINE
8
TOP
10
0.676838
20
0.373169
30
0.0
11
0.671794
21
0.406634
31
0.0
0
LINE
8
TOP
10
0.671794
20
0.406634
30
0.0
11
0.663444
21
0.439430
31
0.0
0
LINE
8
TOP
10
0.663444
20
0.439430
30
0.0
11
0.651869
21
0.471232
31
0.0
0
LINE
8
TOP
10
0.651869
20
0.471232
30
0.0
11
0.637185
21
0.501723
31
0.0
0
LINE
8
TOP
10
0.637185
20
0.501723
30
0.0
11
0.619538
21
0.530601
31
0.0
0
LINE
8
TOP
10
0.619538
20
0.530601
30
0.0
11
0.599104
21
0.557578
31
0.0
0
LINE
8
TOP
10
0.599104
20
0.557578
30
0.0
11
0.576085
21
0.582386
31
0.0
0
LINE
8
TOP
10
0.576085
20
0.582386
30
0.0
11
0.550710
21
0.604779
31
0.0
0
LINE
8
TOP
10
0.550710
20
0.604779
30
0.0
11
0.523232
21
0.624535
31
0.0
0
LINE
8
TOP
10
0.523232
20
0.624535
30
0.0
11
0.493923
21
0.641456
31
0.0
0
LINE
8
TOP
10
0.493923
20
0.641456
30
0.0
11
0.463075
21
0.655375
31
0.0
0
LINE
8
TOP
10
0.463075
20
0.655375
30
0.0
11
0.430995
21
0.666154
31
0.0
0
LINE
8
TOP
10
0.430995
20
0.666154
30
0.0
11
0.398001
21
0.673684
31
0.0
0
LINE
8
TOP
10
0.398001
20
0.673684
30
0.0
11
0.364421
21
0.677893
31
0.0
0
LINE
8
TOP
10
0.364421
20
0.677893
30
0.0
11
0.330588
21
0.678736
31
0.0
0
LINE
8
TOP
10
0.330588
20
0.678736
30
0.0
11
0.296840
21
0.676207
31
0.0
0
LINE
8
TOP
10
0.296840
20
0.676207
30
0.0
11
0.263512
21
0.670331
31
0.0
0
LINE
8
TOP
10
0.263512
20
0.670331
30
0.0
11
0.230934
21
0.661165
31
0.0
0
LINE
8
TOP
10
0.230934
20
0.661165
30
0.0
11
0.199431
21
0.648800
31
0.0
0
LINE
8
TOP
10
0.199431
20
0.648800
30
0.0
11
0.169315
21
0.633361
31
0.0
0
LINE
8
TOP
10
0.169315
20
0.633361
30
0.0
11
0.140886
21
0.615000
31
0.0
0
LINE
8
TOP
10
0.140886
20
0.615000
30
0.0
11
0.114427
21
0.593899
31
0.0
0
LINE
8
TOP
10
0.114427
20
0.593899
30
0.0
11
0.090200
21
0.570269
31
0.0
0
LINE
8
TOP
10
0.090200
20
0.570269
30
0.0
11
0.068446
21
0.544344
31
0.0
0
LINE
8
TOP
10
0.068446
20
0.544344
30
0.0
11
0.049382
21
0.516382
31
0.0
0
LINE
8
TOP
10
0.049382
20
0.516382
30
0.0
11
0.033196
21
0.486660
31
0.0
0
LINE
8
TOP
10
0.033196
20
0.486660
30
0.0
11
0.020051
21
0.455475
31
0.0
0
LINE
8
TOP
10
0.020051
20
0.455475
30
0.0
11
0.010075
21
0.423136
31
0.0
0
LINE
8
TOP
10
0.010075
20
0.423136
30
0.0
11
0.003370
21
0.389964
31
0.0
0
LINE
8
TOP
10
0.003370
20
0.389964
30
0.0
11
0.000000
21
0.356290
31
0.0
0
LINE
8
TOP
10
0.000000
20
0.356290
30
0.0
11
0.000000
21
0.322447
31
0.0
0
LINE
8
TOP
10
0.000000
20
0.322447
30
0.0
11
0.003370
21
0.288772
31
0.0
0
LINE
8
TOP
10
0.003370
20
0.288772
30
0.0
11
0.010075
21
0.255601
31
0.0
0
LINE
8
TOP
10
0.010075
20
0.255601
30
0.0
11
0.020051
21
0.223261
31
0.0
0
LINE
8
TOP
10
0.020051
20
0.223261
30
0.0
11
0.033196
21
0.192076
31
0.0
0
LINE
8
TOP
10
0.033196
20
0.192076
30
0.0
11
0.049382
21
0.162355
31
0.0
0
LINE
8
TOP
10
0.049382
20
0.162355
30
0.0
11
0.068446
21
0.134392
31
0.0
0
LINE
8
TOP
10
0.068446
20
0.134392
30
0.0
11
0.090200
21
0.108467
31
0.0
0
LINE
8
TOP
10
0.090200
20
0.108467
30
0.0
11
0.114427
21
0.084837
31
0.0
0
LINE
8
TOP
10
0.114427
20
0.084837
30
0.0
11
0.140886
21
0.063737
31
0.0
0
LINE
8
TOP
10
0.140886
20
0.063737
30
0.0
11
0.169315
21
0.045375
31
0.0
0
LINE
8
TOP
10
0.169315
20
0.045375
30
0.0
11
0.199431
21
0.029936
31
0.0
0
LINE
8
TOP
10
0.199431
20
0.029936
30
0.0
11
0.230934
21
0.017572
31
0.0
0
LINE
8
TOP
10
0.230934
20
0.017572
30
0.0
11
0.263512
21
0.008406
31
0.0
0
LINE
8
TOP
10
0.263512
20
0.008406
30
0.0
11
0.296840
21
0.002529
31
0.0
0
LINE
8
TOP
10
0.296840
20
0.002529
30
0.0
11
0.330588
21
0.000000
31
0.0
0
LINE
8
TOP
10
0.330588
20
0.000000
30
0.0
11
0.364421
21
0.000844
31
0.0
0
LINE
8
TOP
10
0.364421
20
0.000844
30
0.0
11
0.398001
21
0.005052
31
0.0
0
LINE
8
TOP
10
0.398001
20
0.005052
30
0.0
11
0.430995
21
0.012583
31
0.0
0
LINE
8
TOP
10
0.430995
20
0.012583
30
0.0
11
0.463075
21
0.023361
31
0.0
0
LINE
8
TOP
10
0.463075
20
0.023361
30
0.0
11
0.493923
21
0.037280
31
0.0
0
LINE
8
TOP
10
0.493923
20
0.037280
30
0.0
11
0.523232
21
0.054201
31
0.0
0
LINE
8
TOP
10
0.523232
20
0.054201
30
0.0
11
0.550710
21
0.073957
31
0.0
0
LINE
8
TOP
10
0.550710
20
0.073957
30
0.0
11
0.576085
21
0.096350
31
0.0
0
LINE
8
TOP
10
0.576085
20
0.096350
30
0.0
11
0.599104
21
0.121159
31
0.0
0
LINE
8
TOP
10
0.599104
20
0.121159
30
0.0
11
0.619538
21
0.148136
31
0.0
0
LINE
8
TOP
10
0.619538
20
0.148136
30
0.0
11
0.637185
21
0.177014
31
0.0
0
LINE
8
TOP
10
0.637185
20
0.177014
30
0.0
11
0.651869
21
0.207505
31
0.0
0
LINE
8
TOP
10
0.651869
20
0.207505
30
0.0
11
0.663444
21
0.239307
31
0.0
0
LINE
8
TOP
10
0.663444
20
0.239307
30
0.0
11
0.671794
21
0.272103
31
0.0
0
LINE
8
TOP
10
0.671794
20
0.272103
30
0.0
11
0.676838
21
0.305568
31
0.0
0
LINE
8
TOP
10
0.676838
20
0.305568
30
0.0
11
0.678525
21
0.339368
31
0.0
0
LINE
8
TOP_HID
6
HIDDEN
10
0.526881
20
0.339368
30
0.0
11
0.525959
21
0.357841
31
0.0
0
LINE
8
TOP_HID
6
HIDDEN
10
0.525959
20
0.357841
30
0.0
11
0.523202
21
0.376129
31
0.0
0
LINE
8
TOP_HID
6
HIDDEN
10
0.523202
20
0.376129
30
0.0
11
0.518638
21
0.394053
31
0.0
0
LINE
8
TOP_HID
6
HIDDEN
10
0.518638
20
0.394053
30
0.0
11
0.512312
21
0.411433
31
0.0
0
LINE
8
TOP_HID
6
HIDDEN
10
0.512312
20
0.411433
30
0.0
11
0.504288
21
0.428097
31
0.0
0
LINE
8
TOP_HID
6
HIDDEN
10
0.504288
20
0.428097
30
0.0
11
0.494643
21
0.443879
31
0.0
0
LINE
8
TOP_HID
6
HIDDEN
10
0.494643
20
0.443879
30
0.0
11
0.483476
21
0.458622
31
0.0
0
LINE
8
TOP_HID
6
HIDDEN
10
0.483476
20
0.458622
30
0.0
11
0.470896
21
0.472180
31
0.0
0
LINE
8
TOP_HID
6
HIDDEN
10
0.470896
20
0.472180
30
0.0
11
0.457028
21
0.484418
31
0.0
0
LINE
8
TOP_HID
6
HIDDEN
10
0.457028
20
0.484418
30
0.0
11
0.442011
21
0.495215
31
0.0
0
LINE
8
TOP_HID
6
HIDDEN
10
0.442011
20
0.495215
30
0.0
11
0.425993
21
0.504463
31
0.0
0
LINE
8
TOP_HID
6
HIDDEN
10
0.425993
20
0.504463
30
0.0
11
0.409135
21
0.512070
31
0.0
0
LINE
8
TOP_HID
6
HIDDEN
10
0.409135
20
0.512070
30
0.0
11
0.391602
21
0.517960
31
0.0
0
LINE
8
TOP_HID
6
HIDDEN
10
0.391602
20
0.517960
30
0.0
11
0.373571
21
0.522076
31
0.0
0
LINE
8
TOP_HID
6
HIDDEN
10
0.373571
20
0.522076
30
0.0
11
0.355219
21
0.524376
31
0.0
0
LINE
8
TOP_HID
6
HIDDEN
10
0.355219
20
0.524376
30
0.0
11
0.336729
21
0.524837
31
0.0
0
LINE
8
TOP_HID
6
HIDDEN
10
0.336729
20
0.524837
30
0.0
11
0.318285
21
0.523455
31
0.0
0
LINE
8
TOP_HID
6
HIDDEN
10
0.318285
20
0.523455
30
0.0
11
0.300071
21
0.520243
31
0.0
0
LINE
8
TOP_HID
6
HIDDEN
10
0.300071
20
0.520243
30
0.0
11
0.282267
21
0.515234
31
0.0
0
LINE
8
TOP_HID
6
HIDDEN
10
0.282267
20
0.515234
30
0.0
11
0.265050
21
0.508476
31
0.0
0
LINE
8
TOP_HID
6
HIDDEN
10
0.265050
20
0.508476
30
0.0
11
0.248591
21
0.500039
31
0.0
0
LINE
8
TOP_HID
6
HIDDEN
10
0.248591
20
0.500039
30
0.0
11
0.233055
21
0.490004
31
0.0
0
LINE
8
TOP_HID
6
HIDDEN
10
0.233055
20
0.490004
30
0.0
11
0.218594
21
0.478472
31
0.0
0
LINE
8
TOP_HID
6
HIDDEN
10
0.218594
20
0.478472
30
0.0
11
0.205354
21
0.465558
31
0.0
0
LINE
8
TOP_HID
6
HIDDEN
10
0.205354
20
0.465558
30
0.0
11
0.193465
21
0.451390
31
0.0
0
LINE
8
TOP_HID
6
HIDDEN
10
0.193465
20
0.451390
30
0.0
11
0.183046
21
0.436108
31
0.0
0
LINE
8
TOP_HID
6
HIDDEN
10
0.183046
20
0.436108
30
0.0
11
0.174201
21
0.419865
31
0.0
0
LINE
8
TOP_HID
6
HIDDEN
10
0.174201
20
0.419865
30
0.0
11
0.167017
21
0.402822
31
0.0
0
LINE
8
TOP_HID
6
HIDDEN
10
0.167017
20
0.402822
30
0.0
11
0.161565
21
0.385148
31
0.0
0
LINE
8
TOP_HID
6
HIDDEN
10
0.161565
20
0.385148
30
0.0
11
0.157900
21
0.367019
31
0.0
0
LINE
8
TOP_HID
6
HIDDEN
10
0.157900
20
0.367019
30
0.0
11
0.156059
21
0.348616
31
0.0
0
LINE
8
TOP_HID
6
HIDDEN
10
0.156059
20
0.348616
30
0.0
11
0.156059
21
0.330120
31
0.0
0
LINE
8
TOP_HID
6
HIDDEN
10
0.156059
20
0.330120
30
0.0
11
0.157900
21
0.311717
31
0.0
0
LINE
8
TOP_HID
6
HIDDEN
10
0.157900
20
0.311717
30
0.0
11
0.161565
21
0.293588
31
0.0
0
LINE
8
TOP_HID
6
HIDDEN
10
0.161565
20
0.293588
30
0.0
11
0.167017
21
0.275914
31
0.0
0
LINE
8
TOP_HID
6
HIDDEN
10
0.167017
20
0.275914
30
0.0
11
0.174201
21
0.258871
31
0.0
0
LINE
8
TOP_HID
6
HIDDEN
10
0.174201
20
0.258871
30
0.0
11
0.183046
21
0.242628
31
0.0
0
LINE
8
TOP_HID
6
HIDDEN
10
0.183046
20
0.242628
30
0.0
11
0.193465
21
0.227347
31
0.0
0
LINE
8
TOP_HID
6
HIDDEN
10
0.193465
20
0.227347
30
0.0
11
0.205354
21
0.213178
31
0.0
0
LINE
8
TOP_HID
6
HIDDEN
10
0.205354
20
0.213178
30
0.0
11
0.218594
21
0.200264
31
0.0
0
LINE
8
TOP_HID
6
HIDDEN
10
0.218594
20
0.200264
30
0.0
11
0.233055
21
0.188732
31
0.0
0
LINE
8
TOP_HID
6
HIDDEN
10
0.233055
20
0.188732
30
0.0
11
0.248591
21
0.178698
31
0.0
0
LINE
8
TOP_HID
6
HIDDEN
10
0.248591
20
0.178698
30
0.0
11
0.265050
21
0.170260
31
0.0
0
LINE
8
TOP_HID
6
HIDDEN
10
0.265050
20
0.170260
30
0.0
11
0.282267
21
0.163503
31
0.0
0
LINE
8
TOP_HID
6
HIDDEN
10
0.282267
20
0.163503
30
0.0
11
0.300071
21
0.158493
31
0.0
0
LINE
8
TOP_HID
6
HIDDEN
10
0.300071
20
0.158493
30
0.0
11
0.318285
21
0.155282
31
0.0
0
LINE
8
TOP_HID
6
HIDDEN
10
0.318285
20
0.155282
30
0.0
11
0.336729
21
0.153900
31
0.0
0
LINE
8
TOP_HID
6
HIDDEN
10
0.336729
20
0.153900
30
0.0
11
0.355219
21
0.154361
31
0.0
0
LINE
8
TOP_HID
6
HIDDEN
10
0.355219
20
0.154361
30
0.0
11
0.373571
21
0.156660
31
0.0
0
LINE
8
TOP_HID
6
HIDDEN
10
0.373571
20
0.156660
30
0.0
11
0.391602
21
0.160776
31
0.0
0
LINE
8
TOP_HID
6
HIDDEN
10
0.391602
20
0.160776
30
0.0
11
0.409135
21
0.166667
31
0.0
0
LINE
8
TOP_HID
6
HIDDEN
10
0.409135
20
0.166667
30
0.0
11
0.425993
21
0.174274
31
0.0
0
LINE
8
TOP_HID
6
HIDDEN
10
0.425993
20
0.174274
30
0.0
11
0.442011
21
0.183521
31
0.0
0
LINE
8
TOP_HID
6
HIDDEN
10
0.442011
20
0.183521
30
0.0
11
0.457028
21
0.194318
31
0.0
0
LINE
8
TOP_HID
6
HIDDEN
10
0.457028
20
0.194318
30
0.0
11
0.470896
21
0.206556
31
0.0
0
LINE
8
TOP_HID
6
HIDDEN
10
0.470896
20
0.206556
30
0.0
11
0.483476
21
0.220114
31
0.0
0
LINE
8
TOP_HID
6
HIDDEN
10
0.483476
20
0.220114
30
0.0
11
0.494643
21
0.234857
31
0.0
0
LINE
8
TOP_HID
6
HIDDEN
10
0.494643
20
0.234857
30
0.0
11
0.504288
21
0.250639
31
0.0
0
LINE
8
TOP_HID
6
HIDDEN
10
0.504288
20
0.250639
30
0.0
11
0.512312
21
0.267303
31
0.0
0
LINE
8
TOP_HID
6
HIDDEN
10
0.512312
20
0.267303
30
0.0
11
0.518638
21
0.284683
31
0.0
0
LINE
8
TOP_HID
6
HIDDEN
10
0.518638
20
0.284683
30
0.0
11
0.523202
21
0.302607
31
0.0
0
LINE
8
TOP_HID
6
HIDDEN
10
0.523202
20
0.302607
30
0.0
11
0.525959
21
0.320896
31
0.0
0
LINE
8
TOP_HID
6
HIDDEN
10
0.525959
20
0.320896
30
0.0
11
0.526881
21
0.339368
31
0.0
0
LINE
8
TOP_HID
6
HIDDEN
10
0.526881
20
0.339368
30
0.0
11
0.525959
21
0.357841
31
0.0
0
LINE
8
TOP_HID
6
HIDDEN
10
0.525959
20
0.357841
30
0.0
11
0.523202
21
0.376129
31
0.0
0
LINE
8
TOP_HID
6
HIDDEN
10
0.523202
20
0.376129
30
0.0
11
0.518638
21
0.394053
31
0.0
0
LINE
8
TOP_HID
6
HIDDEN
10
0.518638
20
0.394053
30
0.0
11
0.512312
21
0.411433
31
0.0
0
LINE
8
TOP_HID
6
HIDDEN
10
0.512312
20
0.411433
30
0.0
11
0.504288
21
0.428097
31
0.0
0
LINE
8
TOP_HID
6
HIDDEN
10
0.504288
20
0.428097
30
0.0
11
0.494643
21
0.443879
31
0.0
0
LINE
8
TOP_HID
6
HIDDEN
10
0.494643
20
0.443879
30
0.0
11
0.483476
21
0.458622
31
0.0
0
LINE
8
TOP_HID
6
HIDDEN
10
0.483476
20
0.458622
30
0.0
11
0.470896
21
0.472180
31
0.0
0
LINE
8
TOP_HID
6
HIDDEN
10
0.470896
20
0.472180
30
0.0
11
0.457028
21
0.484418
31
0.0
0
LINE
8
TOP_HID
6
HIDDEN
10
0.457028
20
0.484418
30
0.0
11
0.442011
21
0.495215
31
0.0
0
LINE
8
TOP_HID
6
HIDDEN
10
0.442011
20
0.495215
30
0.0
11
0.425993
21
0.504463
31
0.0
0
LINE
8
TOP_HID
6
HIDDEN
10
0.425993
20
0.504463
30
0.0
11
0.409135
21
0.512070
31
0.0
0
LINE
8
TOP_HID
6
HIDDEN
10
0.409135
20
0.512070
30
0.0
11
0.391602
21
0.517960
31
0.0
0
LINE
8
TOP_HID
6
HIDDEN
10
0.391602
20
0.517960
30
0.0
11
0.373571
21
0.522076
31
0.0
0
LINE
8
TOP_HID
6
HIDDEN
10
0.373571
20
0.522076
30
0.0
11
0.355219
21
0.524376
31
0.0
0
LINE
8
TOP_HID
6
HIDDEN
10
0.355219
20
0.524376
30
0.0
11
0.336729
21
0.524837
31
0.0
0
LINE
8
TOP_HID
6
HIDDEN
10
0.336729
20
0.524837
30
0.0
11
0.318285
21
0.523455
31
0.0
0
LINE
8
TOP_HID
6
HIDDEN
10
0.318285
20
0.523455
30
0.0
11
0.300071
21
0.520243
31
0.0
0
LINE
8
TOP_HID
6
HIDDEN
10
0.300071
20
0.520243
30
0.0
11
0.282267
21
0.515234
31
0.0
0
LINE
8
TOP_HID
6
HIDDEN
10
0.282267
20
0.515234
30
0.0
11
0.265050
21
0.508476
31
0.0
0
LINE
8
TOP_HID
6
HIDDEN
10
0.265050
20
0.508476
30
0.0
11
0.248591
21
0.500039
31
0.0
0
LINE
8
TOP_HID
6
HIDDEN
10
0.248591
20
0.500039
30
0.0
11
0.233055
21
0.490004
31
0.0
0
LINE
8
TOP_HID
6
HIDDEN
10
0.233055
20
0.490004
30
0.0
11
0.218594
21
0.478472
31
0.0
0
LINE
8
TOP_HID
6
HIDDEN
10
0.218594
20
0.478472
30
0.0
11
0.205354
21
0.465558
31
0.0
0
LINE
8
TOP_HID
6
HIDDEN
10
0.205354
20
0.465558
30
0.0
11
0.193465
21
0.451390
31
0.0
0
LINE
8
TOP_HID
6
HIDDEN
10
0.193465
20
0.451390
30
0.0
11
0.183046
21
0.436108
31
0.0
0
LINE
8
TOP_HID
6
HIDDEN
10
0.183046
20
0.436108
30
0.0
11
0.174201
21
0.419865
31
0.0
0
LINE
8
TOP_HID
6
HIDDEN
10
0.174201
20
0.419865
30
0.0
11
0.167017
21
0.402822
31
0.0
0
LINE
8
TOP_HID
6
HIDDEN
10
0.167017
20
0.402822
30
0.0
11
0.161565
21
0.385148
31
0.0
0
LINE
8
TOP_HID
6
HIDDEN
10
0.161565
20
0.385148
30
0.0
11
0.157900
21
0.367019
31
0.0
0
LINE
8
TOP_HID
6
HIDDEN
10
0.157900
20
0.367019
30
0.0
11
0.156059
21
0.348616
31
0.0
0
LINE
8
TOP_HID
6
HIDDEN
10
0.156059
20
0.348616
30
0.0
11
0.156059
21
0.330120
31
0.0
0
LINE
8
TOP_HID
6
HIDDEN
10
0.156059
20
0.330120
30
0.0
11
0.157900
21
0.311717
31
0.0
0
LINE
8
TOP_HID
6
HIDDEN
10
0.157900
20
0.311717
30
0.0
11
0.161565
21
0.293588
31
0.0
0
LINE
8
TOP_HID
6
HIDDEN
10
0.161565
20
0.293588
30
0.0
11
0.167017
21
0.275914
31
0.0
0
LINE
8
TOP_HID
6
HIDDEN
10
0.167017
20
0.275914
30
0.0
11
0.174201
21
0.258871
31
0.0
0
LINE
8
TOP_HID
6
HIDDEN
10
0.174201
20
0.258871
30
0.0
11
0.183046
21
0.242628
31
0.0
0
LINE
8
TOP_HID
6
HIDDEN
10
0.183046
20
0.242628
30
0.0
11
0.193465
21
0.227347
31
0.0
0
LINE
8
TOP_HID
6
HIDDEN
10
0.193465
20
0.227347
30
0.0
11
0.205354
21
0.213178
31
0.0
0
LINE
8
TOP_HID
6
HIDDEN
10
0.205354
20
0.213178
30
0.0
11
0.218594
21
0.200264
31
0.0
0
LINE
8
TOP_HID
6
HIDDEN
10
0.218594
20
0.200264
30
0.0
11
0.233055
21
0.188732
31
0.0
0
LINE
8
TOP_HID
6
HIDDEN
10
0.233055
20
0.188732
30
0.0
11
0.248591
21
0.178698
31
0.0
0
LINE
8
TOP_HID
6
HIDDEN
10
0.248591
20
0.178698
30
0.0
11
0.265050
21
0.170260
31
0.0
0
LINE
8
TOP_HID
6
HIDDEN
10
0.265050
20
0.170260
30
0.0
11
0.282267
21
0.163503
31
0.0
0
LINE
8
TOP_HID
6
HIDDEN
10
0.282267
20
0.163503
30
0.0
11
0.300071
21
0.158493
31
0.0
0
LINE
8
TOP_HID
6
HIDDEN
10
0.300071
20
0.158493
30
0.0
11
0.318285
21
0.155282
31
0.0
0
LINE
8
TOP_HID
6
HIDDEN
10
0.318285
20
0.155282
30
0.0
11
0.336729
21
0.153900
31
0.0
0
LINE
8
TOP_HID
6
HIDDEN
10
0.336729
20
0.153900
30
0.0
11
0.355219
21
0.154361
31
0.0
0
LINE
8
TOP_HID
6
HIDDEN
10
0.355219
20
0.154361
30
0.0
11
0.373571
21
0.156660
31
0.0
0
LINE
8
TOP_HID
6
HIDDEN
10
0.373571
20
0.156660
30
0.0
11
0.391602
21
0.160776
31
0.0
0
LINE
8
TOP_HID
6
HIDDEN
10
0.391602
20
0.160776
30
0.0
11
0.409135
21
0.166667
31
0.0
0
LINE
8
TOP_HID
6
HIDDEN
10
0.409135
20
0.166667
30
0.0
11
0.425993
21
0.174274
31
0.0
0
LINE
8
TOP_HID
6
HIDDEN
10
0.425993
20
0.174274
30
0.0
11
0.442011
21
0.183521
31
0.0
0
LINE
8
TOP_HID
6
HIDDEN
10
0.442011
20
0.183521
30
0.0
11
0.457028
21
0.194318
31
0.0
0
LINE
8
TOP_HID
6
HIDDEN
10
0.457028
20
0.194318
30
0.0
11
0.470896
21
0.206556
31
0.0
0
LINE
8
TOP_HID
6
HIDDEN
10
0.470896
20
0.206556
30
0.0
11
0.483476
21
0.220114
31
0.0
0
LINE
8
TOP_HID
6
HIDDEN
10
0.483476
20
0.220114
30
0.0
11
0.494643
21
0.234857
31
0.0
0
LINE
8
TOP_HID
6
HIDDEN
10
0.494643
20
0.234857
30
0.0
11
0.504288
21
0.250639
31
0.0
0
LINE
8
TOP_HID
6
HIDDEN
10
0.504288
20
0.250639
30
0.0
11
0.512312
21
0.267303
31
0.0
0
LINE
8
TOP_HID
6
HIDDEN
10
0.512312
20
0.267303
30
0.0
11
0.518638
21
0.284683
31
0.0
0
LINE
8
TOP_HID
6
HIDDEN
10
0.518638
20
0.284683
30
0.0
11
0.523202
21
0.302607
31
0.0
0
LINE
8
TOP_HID
6
HIDDEN
10
0.523202
20
0.302607
30
0.0
11
0.525959
21
0.320896
31
0.0
0
LINE
8
TOP_HID
6
HIDDEN
10
0.525959
20
0.320896
30
0.0
11
0.526881
21
0.339368
31
0.0
0
ENDSEC
0
EOF
