0
SECTION
2
HEADER
9
$ACADVER
1
AC1009
0
ENDSEC
0
SECTION
2
TABLES
0
TABLE
2
LTYPE
70
3
0
LTYPE
2
CONTINUOUS
70
0
3
Solid line
72
65
73
0
40
0.0
0
LTYPE
2
HIDDEN
70
0
3
__ __ __ __ __
72
65
73
2
40
0.037500
49
0.025013
49
-0.012488
0
LTYPE
2
CENTER
70
0
3
___ _ ___ _ ___
72
65
73
4
40
0.087488
49
0.049988
49
-0.012488
49
0.012488
49
-0.012488
0
ENDTAB
0
TABLE
2
LAYER
70
7
0
LAYER
2
0
70
0
62
7
6
CONTINUOUS
0
LAYER
2
FRONT
70
0
62
7
6
CONTINUOUS
0
LAYER
2
FRONT_HID
70
0
62
7
6
HIDDEN
0
LAYER
2
LEFT
70
0
62
7
6
CONTINUOUS
0
LAYER
2
LEFT_HID
70
0
62
7
6
HIDDEN
0
LAYER
2
TOP
70
0
62
7
6
CONTINUOUS
0
LAYER
2
TOP_HID
70
0
62
7
6
HIDDEN
0
ENDTAB
0
ENDSEC
0
SECTION
2
ENTITIES
0
LINE
8
FRONT
10
0.046875
20
0.251569
30
0.0
11
0.046875
21
0.244733
31
0.0
0
LINE
8
FRONT
10
0.046875
20
0.251569
30
0.0
11
0.046573
21
0.251598
31
0.0
0
LINE
8
FRONT
10
0.046573
20
0.251598
30
0.0
11
0.046271
21
0.251639
31
0.0
0
LINE
8
FRONT
10
0.046271
20
0.251639
30
0.0
11
0.045972
21
0.251692
31
0.0
0
LINE
8
FRONT
10
0.045972
20
0.251692
30
0.0
11
0.045676
21
0.251757
31
0.0
0
LINE
8
FRONT
10
0.045676
20
0.251757
30
0.0
11
0.045381
21
0.251833
31
0.0
0
LINE
8
FRONT
10
0.045381
20
0.251833
30
0.0
11
0.045090
21
0.251919
31
0.0
0
LINE
8
FRONT
10
0.045090
20
0.251919
30
0.0
11
0.044802
21
0.252014
31
0.0
0
LINE
8
FRONT
10
0.044802
20
0.252014
30
0.0
11
0.044516
21
0.252119
31
0.0
0
LINE
8
FRONT
10
0.044516
20
0.252119
30
0.0
11
0.044234
21
0.252231
31
0.0
0
LINE
8
FRONT
10
0.044234
20
0.252231
30
0.0
11
0.043955
21
0.252351
31
0.0
0
LINE
8
FRONT
10
0.043955
20
0.252351
30
0.0
11
0.043679
21
0.252477
31
0.0
0
LINE
8
FRONT
10
0.043679
20
0.252477
30
0.0
11
0.043405
21
0.252610
31
0.0
0
LINE
8
FRONT
10
0.043405
20
0.252610
30
0.0
11
0.043135
21
0.252748
31
0.0
0
LINE
8
FRONT
10
0.043135
20
0.252748
30
0.0
11
0.042867
21
0.252891
31
0.0
0
LINE
8
FRONT
10
0.042867
20
0.252891
30
0.0
11
0.042601
21
0.253039
31
0.0
0
LINE
8
FRONT
10
0.042601
20
0.253039
30
0.0
11
0.042338
21
0.253191
31
0.0
0
LINE
8
FRONT
10
0.042338
20
0.253191
30
0.0
11
0.042077
21
0.253347
31
0.0
0
LINE
8
FRONT
10
0.042077
20
0.253347
30
0.0
11
0.041819
21
0.253506
31
0.0
0
LINE
8
FRONT
10
0.041819
20
0.253506
30
0.0
11
0.041562
21
0.253669
31
0.0
0
LINE
8
FRONT
10
0.041562
20
0.253669
30
0.0
11
0.041308
21
0.253835
31
0.0
0
LINE
8
FRONT
10
0.041308
20
0.253835
30
0.0
11
0.041055
21
0.254003
31
0.0
0
LINE
8
FRONT
10
0.041055
20
0.254003
30
0.0
11
0.040804
21
0.254174
31
0.0
0
LINE
8
FRONT
10
0.040804
20
0.254174
30
0.0
11
0.040554
21
0.254348
31
0.0
0
LINE
8
FRONT
10
0.040554
20
0.254348
30
0.0
11
0.040306
21
0.254523
31
0.0
0
LINE
8
FRONT
10
0.040306
20
0.254523
30
0.0
11
0.040060
21
0.254701
31
0.0
0
LINE
8
FRONT
10
0.040060
20
0.254701
30
0.0
11
0.039814
21
0.254880
31
0.0
0
LINE
8
FRONT
10
0.039814
20
0.254880
30
0.0
11
0.039570
21
0.255061
31
0.0
0
LINE
8
FRONT
10
0.039570
20
0.255061
30
0.0
11
0.039327
21
0.255244
31
0.0
0
LINE
8
FRONT
10
0.039327
20
0.255244
30
0.0
11
0.039086
21
0.255428
31
0.0
0
LINE
8
FRONT
10
0.039086
20
0.255428
30
0.0
11
0.038845
21
0.255613
31
0.0
0
LINE
8
FRONT
10
0.038845
20
0.255613
30
0.0
11
0.038605
21
0.255800
31
0.0
0
LINE
8
FRONT
10
0.038605
20
0.255800
30
0.0
11
0.038367
21
0.255988
31
0.0
0
LINE
8
FRONT
10
0.038367
20
0.255988
30
0.0
11
0.038129
21
0.256177
31
0.0
0
LINE
8
FRONT
10
0.038129
20
0.256177
30
0.0
11
0.037892
21
0.256367
31
0.0
0
LINE
8
FRONT
10
0.037892
20
0.256367
30
0.0
11
0.037656
21
0.256558
31
0.0
0
LINE
8
FRONT
10
0.037656
20
0.256558
30
0.0
11
0.037420
21
0.256750
31
0.0
0
LINE
8
FRONT
10
0.037420
20
0.256750
30
0.0
11
0.037186
21
0.256943
31
0.0
0
LINE
8
FRONT
10
0.037186
20
0.256943
30
0.0
11
0.036952
21
0.257137
31
0.0
0
LINE
8
FRONT
10
0.036952
20
0.257137
30
0.0
11
0.036718
21
0.257331
31
0.0
0
LINE
8
FRONT
10
0.036718
20
0.257331
30
0.0
11
0.036485
21
0.257527
31
0.0
0
LINE
8
FRONT
10
0.036485
20
0.257527
30
0.0
11
0.036253
21
0.257723
31
0.0
0
LINE
8
FRONT
10
0.036253
20
0.257723
30
0.0
11
0.036022
21
0.257919
31
0.0
0
LINE
8
FRONT
10
0.036022
20
0.257919
30
0.0
11
0.035791
21
0.258117
31
0.0
0
LINE
8
FRONT
10
0.035791
20
0.258117
30
0.0
11
0.035560
21
0.258314
31
0.0
0
LINE
8
FRONT
10
0.035560
20
0.258314
30
0.0
11
0.035330
21
0.258513
31
0.0
0
LINE
8
FRONT
10
0.035330
20
0.258513
30
0.0
11
0.035100
21
0.258712
31
0.0
0
LINE
8
FRONT
10
0.035100
20
0.258712
30
0.0
11
0.034871
21
0.258911
31
0.0
0
LINE
8
FRONT
10
0.034871
20
0.258911
30
0.0
11
0.034642
21
0.259111
31
0.0
0
LINE
8
FRONT
10
0.034642
20
0.259111
30
0.0
11
0.034414
21
0.259311
31
0.0
0
LINE
8
FRONT
10
0.034414
20
0.259311
30
0.0
11
0.034186
21
0.259512
31
0.0
0
LINE
8
FRONT
10
0.034186
20
0.259512
30
0.0
11
0.033958
21
0.259713
31
0.0
0
LINE
8
FRONT
10
0.033958
20
0.259713
30
0.0
11
0.033731
21
0.259915
31
0.0
0
LINE
8
FRONT
10
0.033731
20
0.259915
30
0.0
11
0.033504
21
0.260117
31
0.0
0
LINE
8
FRONT
10
0.033504
20
0.260117
30
0.0
11
0.033277
21
0.260319
31
0.0
0
LINE
8
FRONT
10
0.033277
20
0.260319
30
0.0
11
0.033051
21
0.260522
31
0.0
0
LINE
8
FRONT
10
0.033051
20
0.260522
30
0.0
11
0.032825
21
0.260725
31
0.0
0
LINE
8
FRONT
10
0.032825
20
0.260725
30
0.0
11
0.032599
21
0.260928
31
0.0
0
LINE
8
FRONT
10
0.032599
20
0.260928
30
0.0
11
0.032374
21
0.261132
31
0.0
0
LINE
8
FRONT
10
0.032374
20
0.261132
30
0.0
11
0.032148
21
0.261336
31
0.0
0
LINE
8
FRONT
10
0.032148
20
0.261336
30
0.0
11
0.031923
21
0.261540
31
0.0
0
LINE
8
FRONT
10
0.031923
20
0.261540
30
0.0
11
0.031699
21
0.261745
31
0.0
0
LINE
8
FRONT
10
0.031699
20
0.261745
30
0.0
11
0.031474
21
0.261949
31
0.0
0
LINE
8
FRONT
10
0.031474
20
0.261949
30
0.0
11
0.031250
21
0.262154
31
0.0
0
LINE
8
FRONT
10
0.031250
20
0.262154
30
0.0
11
0.030744
21
0.262619
31
0.0
0
LINE
8
FRONT
10
0.030744
20
0.262619
30
0.0
11
0.030238
21
0.263084
31
0.0
0
LINE
8
FRONT
10
0.030238
20
0.263084
30
0.0
11
0.029734
21
0.263551
31
0.0
0
LINE
8
FRONT
10
0.029734
20
0.263551
30
0.0
11
0.029230
21
0.264018
31
0.0
0
LINE
8
FRONT
10
0.029230
20
0.264018
30
0.0
11
0.028728
21
0.264486
31
0.0
0
LINE
8
FRONT
10
0.028728
20
0.264486
30
0.0
11
0.028226
21
0.264955
31
0.0
0
LINE
8
FRONT
10
0.028226
20
0.264955
30
0.0
11
0.027724
21
0.265425
31
0.0
0
LINE
8
FRONT
10
0.027724
20
0.265425
30
0.0
11
0.027224
21
0.265896
31
0.0
0
LINE
8
FRONT
10
0.027224
20
0.265896
30
0.0
11
0.026724
21
0.266367
31
0.0
0
LINE
8
FRONT
10
0.026724
20
0.266367
30
0.0
11
0.026224
21
0.266839
31
0.0
0
LINE
8
FRONT
10
0.026224
20
0.266839
30
0.0
11
0.025725
21
0.267311
31
0.0
0
LINE
8
FRONT
10
0.025725
20
0.267311
30
0.0
11
0.025226
21
0.267784
31
0.0
0
LINE
8
FRONT
10
0.025226
20
0.267784
30
0.0
11
0.024728
21
0.268257
31
0.0
0
LINE
8
FRONT
10
0.024728
20
0.268257
30
0.0
11
0.024231
21
0.268730
31
0.0
0
LINE
8
FRONT
10
0.024231
20
0.268730
30
0.0
11
0.023734
21
0.269205
31
0.0
0
LINE
8
FRONT
10
0.023734
20
0.269205
30
0.0
11
0.023237
21
0.269679
31
0.0
0
LINE
8
FRONT
10
0.023237
20
0.269679
30
0.0
11
0.022740
21
0.270154
31
0.0
0
LINE
8
FRONT
10
0.022740
20
0.270154
30
0.0
11
0.022244
21
0.270629
31
0.0
0
LINE
8
FRONT
10
0.022244
20
0.270629
30
0.0
11
0.021748
21
0.271105
31
0.0
0
LINE
8
FRONT
10
0.021748
20
0.271105
30
0.0
11
0.021252
21
0.271580
31
0.0
0
LINE
8
FRONT
10
0.021252
20
0.271580
30
0.0
11
0.020757
21
0.272057
31
0.0
0
LINE
8
FRONT
10
0.020757
20
0.272057
30
0.0
11
0.020262
21
0.272533
31
0.0
0
LINE
8
FRONT
10
0.020262
20
0.272533
30
0.0
11
0.019767
21
0.273009
31
0.0
0
LINE
8
FRONT
10
0.019767
20
0.273009
30
0.0
11
0.019272
21
0.273486
31
0.0
0
LINE
8
FRONT
10
0.019272
20
0.273486
30
0.0
11
0.018778
21
0.273963
31
0.0
0
LINE
8
FRONT
10
0.018778
20
0.273963
30
0.0
11
0.018284
21
0.274441
31
0.0
0
LINE
8
FRONT
10
0.018284
20
0.274441
30
0.0
11
0.017790
21
0.274918
31
0.0
0
LINE
8
FRONT
10
0.017790
20
0.274918
30
0.0
11
0.017296
21
0.275396
31
0.0
0
LINE
8
FRONT
10
0.017296
20
0.275396
30
0.0
11
0.016802
21
0.275874
31
0.0
0
LINE
8
FRONT
10
0.016802
20
0.275874
30
0.0
11
0.016309
21
0.276352
31
0.0
0
LINE
8
FRONT
10
0.016309
20
0.276352
30
0.0
11
0.015815
21
0.276830
31
0.0
0
LINE
8
FRONT
10
0.015815
20
0.276830
30
0.0
11
0.015322
21
0.277308
31
0.0
0
LINE
8
FRONT
10
0.015322
20
0.277308
30
0.0
11
0.014829
21
0.277786
31
0.0
0
LINE
8
FRONT
10
0.014829
20
0.277786
30
0.0
11
0.014336
21
0.278265
31
0.0
0
LINE
8
FRONT
10
0.014336
20
0.278265
30
0.0
11
0.013843
21
0.278743
31
0.0
0
LINE
8
FRONT
10
0.013843
20
0.278743
30
0.0
11
0.013350
21
0.279222
31
0.0
0
LINE
8
FRONT
10
0.013350
20
0.279222
30
0.0
11
0.012857
21
0.279701
31
0.0
0
LINE
8
FRONT
10
0.012857
20
0.279701
30
0.0
11
0.012365
21
0.280180
31
0.0
0
LINE
8
FRONT
10
0.012365
20
0.280180
30
0.0
11
0.011872
21
0.280659
31
0.0
0
LINE
8
FRONT
10
0.011872
20
0.280659
30
0.0
11
0.011380
21
0.281138
31
0.0
0
LINE
8
FRONT
10
0.011380
20
0.281138
30
0.0
11
0.010887
21
0.281617
31
0.0
0
LINE
8
FRONT
10
0.010887
20
0.281617
30
0.0
11
0.010395
21
0.282096
31
0.0
0
LINE
8
FRONT
10
0.010395
20
0.282096
30
0.0
11
0.009902
21
0.282575
31
0.0
0
LINE
8
FRONT
10
0.009902
20
0.282575
30
0.0
11
0.009410
21
0.283054
31
0.0
0
LINE
8
FRONT
10
0.009410
20
0.283054
30
0.0
11
0.008918
21
0.283534
31
0.0
0
LINE
8
FRONT
10
0.008918
20
0.283534
30
0.0
11
0.008425
21
0.284013
31
0.0
0
LINE
8
FRONT
10
0.008425
20
0.284013
30
0.0
11
0.007933
21
0.284492
31
0.0
0
LINE
8
FRONT
10
0.007933
20
0.284492
30
0.0
11
0.007441
21
0.284971
31
0.0
0
LINE
8
FRONT
10
0.007441
20
0.284971
30
0.0
11
0.006948
21
0.285450
31
0.0
0
LINE
8
FRONT
10
0.006948
20
0.285450
30
0.0
11
0.006456
21
0.285929
31
0.0
0
LINE
8
FRONT
10
0.006456
20
0.285929
30
0.0
11
0.005963
21
0.286408
31
0.0
0
LINE
8
FRONT
10
0.005963
20
0.286408
30
0.0
11
0.005471
21
0.286887
31
0.0
0
LINE
8
FRONT
10
0.005471
20
0.286887
30
0.0
11
0.004978
21
0.287366
31
0.0
0
LINE
8
FRONT
10
0.004978
20
0.287366
30
0.0
11
0.004485
21
0.287844
31
0.0
0
LINE
8
FRONT
10
0.004485
20
0.287844
30
0.0
11
0.003992
21
0.288323
31
0.0
0
LINE
8
FRONT
10
0.003992
20
0.288323
30
0.0
11
0.003498
21
0.288801
31
0.0
0
LINE
8
FRONT
10
0.003498
20
0.288801
30
0.0
11
0.003004
21
0.289278
31
0.0
0
LINE
8
FRONT
10
0.003004
20
0.289278
30
0.0
11
0.002510
21
0.289756
31
0.0
0
LINE
8
FRONT
10
0.002510
20
0.289756
30
0.0
11
0.002015
21
0.290232
31
0.0
0
LINE
8
FRONT
10
0.002015
20
0.290232
30
0.0
11
0.001519
21
0.290707
31
0.0
0
LINE
8
FRONT
10
0.001519
20
0.290707
30
0.0
11
0.001021
21
0.291181
31
0.0
0
LINE
8
FRONT
10
0.001021
20
0.291181
30
0.0
11
0.000521
21
0.291652
31
0.0
0
LINE
8
FRONT
10
0.000521
20
0.291652
30
0.0
11
0.000003
21
0.292101
31
0.0
0
LINE
8
FRONT
10
0.000003
20
0.292101
30
0.0
11
0.000000
21
0.292098
31
0.0
0
LINE
8
FRONT
10
0.000000
20
0.292098
30
0.0
11
0.000470
21
0.291558
31
0.0
0
LINE
8
FRONT
10
0.000470
20
0.291558
30
0.0
11
0.000962
21
0.291035
31
0.0
0
LINE
8
FRONT
10
0.000962
20
0.291035
30
0.0
11
0.001457
21
0.290515
31
0.0
0
LINE
8
FRONT
10
0.001457
20
0.290515
30
0.0
11
0.001954
21
0.289997
31
0.0
0
LINE
8
FRONT
10
0.001954
20
0.289997
30
0.0
11
0.002452
21
0.289480
31
0.0
0
LINE
8
FRONT
10
0.002452
20
0.289480
30
0.0
11
0.002951
21
0.288964
31
0.0
0
LINE
8
FRONT
10
0.002951
20
0.288964
30
0.0
11
0.003450
21
0.288448
31
0.0
0
LINE
8
FRONT
10
0.003450
20
0.288448
30
0.0
11
0.003950
21
0.287933
31
0.0
0
LINE
8
FRONT
10
0.003950
20
0.287933
30
0.0
11
0.004450
21
0.287418
31
0.0
0
LINE
8
FRONT
10
0.004450
20
0.287418
30
0.0
11
0.004950
21
0.286903
31
0.0
0
LINE
8
FRONT
10
0.004950
20
0.286903
30
0.0
11
0.005450
21
0.286388
31
0.0
0
LINE
8
FRONT
10
0.005450
20
0.286388
30
0.0
11
0.005950
21
0.285873
31
0.0
0
LINE
8
FRONT
10
0.005950
20
0.285873
30
0.0
11
0.006451
21
0.285359
31
0.0
0
LINE
8
FRONT
10
0.006451
20
0.285359
30
0.0
11
0.006951
21
0.284844
31
0.0
0
LINE
8
FRONT
10
0.006951
20
0.284844
30
0.0
11
0.007452
21
0.284330
31
0.0
0
LINE
8
FRONT
10
0.007452
20
0.284330
30
0.0
11
0.007952
21
0.283815
31
0.0
0
LINE
8
FRONT
10
0.007952
20
0.283815
30
0.0
11
0.008453
21
0.283301
31
0.0
0
LINE
8
FRONT
10
0.008453
20
0.283301
30
0.0
11
0.008954
21
0.282786
31
0.0
0
LINE
8
FRONT
10
0.008954
20
0.282786
30
0.0
11
0.009454
21
0.282272
31
0.0
0
LINE
8
FRONT
10
0.009454
20
0.282272
30
0.0
11
0.009955
21
0.281758
31
0.0
0
LINE
8
FRONT
10
0.009955
20
0.281758
30
0.0
11
0.010456
21
0.281243
31
0.0
0
LINE
8
FRONT
10
0.010456
20
0.281243
30
0.0
11
0.010956
21
0.280729
31
0.0
0
LINE
8
FRONT
10
0.010956
20
0.280729
30
0.0
11
0.011457
21
0.280214
31
0.0
0
LINE
8
FRONT
10
0.011457
20
0.280214
30
0.0
11
0.011957
21
0.279699
31
0.0
0
LINE
8
FRONT
10
0.011957
20
0.279699
30
0.0
11
0.012457
21
0.279185
31
0.0
0
LINE
8
FRONT
10
0.012457
20
0.279185
30
0.0
11
0.012958
21
0.278670
31
0.0
0
LINE
8
FRONT
10
0.012958
20
0.278670
30
0.0
11
0.013458
21
0.278155
31
0.0
0
LINE
8
FRONT
10
0.013458
20
0.278155
30
0.0
11
0.013958
21
0.277640
31
0.0
0
LINE
8
FRONT
10
0.013958
20
0.277640
30
0.0
11
0.014458
21
0.277125
31
0.0
0
LINE
8
FRONT
10
0.014458
20
0.277125
30
0.0
11
0.014957
21
0.276610
31
0.0
0
LINE
8
FRONT
10
0.014957
20
0.276610
30
0.0
11
0.015457
21
0.276094
31
0.0
0
LINE
8
FRONT
10
0.015457
20
0.276094
30
0.0
11
0.015957
21
0.275579
31
0.0
0
LINE
8
FRONT
10
0.015957
20
0.275579
30
0.0
11
0.016456
21
0.275063
31
0.0
0
LINE
8
FRONT
10
0.016456
20
0.275063
30
0.0
11
0.016955
21
0.274547
31
0.0
0
LINE
8
FRONT
10
0.016955
20
0.274547
30
0.0
11
0.017454
21
0.274031
31
0.0
0
LINE
8
FRONT
10
0.017454
20
0.274031
30
0.0
11
0.017953
21
0.273515
31
0.0
0
LINE
8
FRONT
10
0.017953
20
0.273515
30
0.0
11
0.018451
21
0.272998
31
0.0
0
LINE
8
FRONT
10
0.018451
20
0.272998
30
0.0
11
0.018949
21
0.272482
31
0.0
0
LINE
8
FRONT
10
0.018949
20
0.272482
30
0.0
11
0.019447
21
0.271965
31
0.0
0
LINE
8
FRONT
10
0.019447
20
0.271965
30
0.0
11
0.019945
21
0.271447
31
0.0
0
LINE
8
FRONT
10
0.019945
20
0.271447
30
0.0
11
0.020443
21
0.270930
31
0.0
0
LINE
8
FRONT
10
0.020443
20
0.270930
30
0.0
11
0.020940
21
0.270412
31
0.0
0
LINE
8
FRONT
10
0.020940
20
0.270412
30
0.0
11
0.021437
21
0.269894
31
0.0
0
LINE
8
FRONT
10
0.021437
20
0.269894
30
0.0
11
0.021933
21
0.269376
31
0.0
0
LINE
8
FRONT
10
0.021933
20
0.269376
30
0.0
11
0.022429
21
0.268857
31
0.0
0
LINE
8
FRONT
10
0.022429
20
0.268857
30
0.0
11
0.022925
21
0.268338
31
0.0
0
LINE
8
FRONT
10
0.022925
20
0.268338
30
0.0
11
0.023420
21
0.267818
31
0.0
0
LINE
8
FRONT
10
0.023420
20
0.267818
30
0.0
11
0.023915
21
0.267298
31
0.0
0
LINE
8
FRONT
10
0.023915
20
0.267298
30
0.0
11
0.024409
21
0.266778
31
0.0
0
LINE
8
FRONT
10
0.024409
20
0.266778
30
0.0
11
0.024903
21
0.266257
31
0.0
0
LINE
8
FRONT
10
0.024903
20
0.266257
30
0.0
11
0.025397
21
0.265735
31
0.0
0
LINE
8
FRONT
10
0.025397
20
0.265735
30
0.0
11
0.025889
21
0.265213
31
0.0
0
LINE
8
FRONT
10
0.025889
20
0.265213
30
0.0
11
0.026381
21
0.264690
31
0.0
0
LINE
8
FRONT
10
0.026381
20
0.264690
30
0.0
11
0.026872
21
0.264167
31
0.0
0
LINE
8
FRONT
10
0.026872
20
0.264167
30
0.0
11
0.027363
21
0.263643
31
0.0
0
LINE
8
FRONT
10
0.027363
20
0.263643
30
0.0
11
0.027853
21
0.263118
31
0.0
0
LINE
8
FRONT
10
0.027853
20
0.263118
30
0.0
11
0.028341
21
0.262592
31
0.0
0
LINE
8
FRONT
10
0.028341
20
0.262592
30
0.0
11
0.028829
21
0.262066
31
0.0
0
LINE
8
FRONT
10
0.028829
20
0.262066
30
0.0
11
0.029316
21
0.261538
31
0.0
0
LINE
8
FRONT
10
0.029316
20
0.261538
30
0.0
11
0.029802
21
0.261010
31
0.0
0
LINE
8
FRONT
10
0.029802
20
0.261010
30
0.0
11
0.030286
21
0.260480
31
0.0
0
LINE
8
FRONT
10
0.030286
20
0.260480
30
0.0
11
0.030769
21
0.259949
31
0.0
0
LINE
8
FRONT
10
0.030769
20
0.259949
30
0.0
11
0.031250
21
0.259416
31
0.0
0
LINE
8
FRONT
10
0.040549
20
0.244733
30
0.0
11
0.040543
21
0.245013
31
0.0
0
LINE
8
FRONT
10
0.040543
20
0.245013
30
0.0
11
0.040526
21
0.245294
31
0.0
0
LINE
8
FRONT
10
0.040526
20
0.245294
30
0.0
11
0.040498
21
0.245573
31
0.0
0
LINE
8
FRONT
10
0.040498
20
0.245573
30
0.0
11
0.040459
21
0.245851
31
0.0
0
LINE
8
FRONT
10
0.040459
20
0.245851
30
0.0
11
0.040409
21
0.246128
31
0.0
0
LINE
8
FRONT
10
0.040409
20
0.246128
30
0.0
11
0.040350
21
0.246402
31
0.0
0
LINE
8
FRONT
10
0.040350
20
0.246402
30
0.0
11
0.040281
21
0.246675
31
0.0
0
LINE
8
FRONT
10
0.040281
20
0.246675
30
0.0
11
0.040203
21
0.246945
31
0.0
0
LINE
8
FRONT
10
0.040203
20
0.246945
30
0.0
11
0.040117
21
0.247212
31
0.0
0
LINE
8
FRONT
10
0.040117
20
0.247212
30
0.0
11
0.040023
21
0.247477
31
0.0
0
LINE
8
FRONT
10
0.040023
20
0.247477
30
0.0
11
0.039922
21
0.247739
31
0.0
0
LINE
8
FRONT
10
0.039922
20
0.247739
30
0.0
11
0.039815
21
0.247998
31
0.0
0
LINE
8
FRONT
10
0.039815
20
0.247998
30
0.0
11
0.039702
21
0.248255
31
0.0
0
LINE
8
FRONT
10
0.039702
20
0.248255
30
0.0
11
0.039583
21
0.248510
31
0.0
0
LINE
8
FRONT
10
0.039583
20
0.248510
30
0.0
11
0.039459
21
0.248762
31
0.0
0
LINE
8
FRONT
10
0.039459
20
0.248762
30
0.0
11
0.039330
21
0.249011
31
0.0
0
LINE
8
FRONT
10
0.039330
20
0.249011
30
0.0
11
0.039197
21
0.249259
31
0.0
0
LINE
8
FRONT
10
0.039197
20
0.249259
30
0.0
11
0.039060
21
0.249504
31
0.0
0
LINE
8
FRONT
10
0.039060
20
0.249504
30
0.0
11
0.038919
21
0.249747
31
0.0
0
LINE
8
FRONT
10
0.038919
20
0.249747
30
0.0
11
0.038775
21
0.249989
31
0.0
0
LINE
8
FRONT
10
0.038775
20
0.249989
30
0.0
11
0.038629
21
0.250228
31
0.0
0
LINE
8
FRONT
10
0.038629
20
0.250228
30
0.0
11
0.038479
21
0.250466
31
0.0
0
LINE
8
FRONT
10
0.038479
20
0.250466
30
0.0
11
0.038326
21
0.250702
31
0.0
0
LINE
8
FRONT
10
0.038326
20
0.250702
30
0.0
11
0.038172
21
0.250936
31
0.0
0
LINE
8
FRONT
10
0.038172
20
0.250936
30
0.0
11
0.038015
21
0.251169
31
0.0
0
LINE
8
FRONT
10
0.038015
20
0.251169
30
0.0
11
0.037856
21
0.251400
31
0.0
0
LINE
8
FRONT
10
0.037856
20
0.251400
30
0.0
11
0.037694
21
0.251631
31
0.0
0
LINE
8
FRONT
10
0.037694
20
0.251631
30
0.0
11
0.037532
21
0.251859
31
0.0
0
LINE
8
FRONT
10
0.037532
20
0.251859
30
0.0
11
0.037367
21
0.252087
31
0.0
0
LINE
8
FRONT
10
0.037367
20
0.252087
30
0.0
11
0.037201
21
0.252314
31
0.0
0
LINE
8
FRONT
10
0.037201
20
0.252314
30
0.0
11
0.037034
21
0.252539
31
0.0
0
LINE
8
FRONT
10
0.037034
20
0.252539
30
0.0
11
0.036865
21
0.252764
31
0.0
0
LINE
8
FRONT
10
0.036865
20
0.252764
30
0.0
11
0.036695
21
0.252987
31
0.0
0
LINE
8
FRONT
10
0.036695
20
0.252987
30
0.0
11
0.036524
21
0.253210
31
0.0
0
LINE
8
FRONT
10
0.036524
20
0.253210
30
0.0
11
0.036351
21
0.253432
31
0.0
0
LINE
8
FRONT
10
0.036351
20
0.253432
30
0.0
11
0.036178
21
0.253653
31
0.0
0
LINE
8
FRONT
10
0.036178
20
0.253653
30
0.0
11
0.036003
21
0.253873
31
0.0
0
LINE
8
FRONT
10
0.036003
20
0.253873
30
0.0
11
0.035828
21
0.254092
31
0.0
0
LINE
8
FRONT
10
0.035828
20
0.254092
30
0.0
11
0.035652
21
0.254311
31
0.0
0
LINE
8
FRONT
10
0.035652
20
0.254311
30
0.0
11
0.035475
21
0.254529
31
0.0
0
LINE
8
FRONT
10
0.035475
20
0.254529
30
0.0
11
0.035297
21
0.254747
31
0.0
0
LINE
8
FRONT
10
0.035297
20
0.254747
30
0.0
11
0.035118
21
0.254963
31
0.0
0
LINE
8
FRONT
10
0.035118
20
0.254963
30
0.0
11
0.034939
21
0.255180
31
0.0
0
LINE
8
FRONT
10
0.034939
20
0.255180
30
0.0
11
0.034759
21
0.255395
31
0.0
0
LINE
8
FRONT
10
0.034759
20
0.255395
30
0.0
11
0.034579
21
0.255611
31
0.0
0
LINE
8
FRONT
10
0.034579
20
0.255611
30
0.0
11
0.034397
21
0.255825
31
0.0
0
LINE
8
FRONT
10
0.034397
20
0.255825
30
0.0
11
0.034216
21
0.256039
31
0.0
0
LINE
8
FRONT
10
0.034216
20
0.256039
30
0.0
11
0.034033
21
0.256253
31
0.0
0
LINE
8
FRONT
10
0.034033
20
0.256253
30
0.0
11
0.033851
21
0.256466
31
0.0
0
LINE
8
FRONT
10
0.033851
20
0.256466
30
0.0
11
0.033667
21
0.256679
31
0.0
0
LINE
8
FRONT
10
0.033667
20
0.256679
30
0.0
11
0.033484
21
0.256892
31
0.0
0
LINE
8
FRONT
10
0.033484
20
0.256892
30
0.0
11
0.033300
21
0.257104
31
0.0
0
LINE
8
FRONT
10
0.033300
20
0.257104
30
0.0
11
0.033115
21
0.257316
31
0.0
0
LINE
8
FRONT
10
0.033115
20
0.257316
30
0.0
11
0.032930
21
0.257527
31
0.0
0
LINE
8
FRONT
10
0.032930
20
0.257527
30
0.0
11
0.032745
21
0.257738
31
0.0
0
LINE
8
FRONT
10
0.032745
20
0.257738
30
0.0
11
0.032559
21
0.257949
31
0.0
0
LINE
8
FRONT
10
0.032559
20
0.257949
30
0.0
11
0.032373
21
0.258159
31
0.0
0
LINE
8
FRONT
10
0.032373
20
0.258159
30
0.0
11
0.032187
21
0.258370
31
0.0
0
LINE
8
FRONT
10
0.032187
20
0.258370
30
0.0
11
0.032000
21
0.258579
31
0.0
0
LINE
8
FRONT
10
0.032000
20
0.258579
30
0.0
11
0.031813
21
0.258789
31
0.0
0
LINE
8
FRONT
10
0.031813
20
0.258789
30
0.0
11
0.031626
21
0.258998
31
0.0
0
LINE
8
FRONT
10
0.031626
20
0.258998
30
0.0
11
0.031438
21
0.259207
31
0.0
0
LINE
8
FRONT
10
0.031438
20
0.259207
30
0.0
11
0.031250
21
0.259416
31
0.0
0
LINE
8
FRONT
10
0.094737
20
0.244733
30
0.0
11
0.094737
21
0.994733
31
0.0
0
LINE
8
FRONT
10
0.094737
20
0.994733
30
0.0
11
0.000000
21
0.994733
31
0.0
0
LINE
8
FRONT
10
0.094737
20
0.244733
30
0.0
11
0.046875
21
0.244733
31
0.0
0
LINE
8
FRONT
10
0.040549
20
0.244733
30
0.0
11
0.046875
21
0.244733
31
0.0
0
LINE
8
FRONT
10
0.046875
20
0.251569
30
0.0
11
0.046875
21
0.244733
31
0.0
0
LINE
8
FRONT
10
0.000000
20
0.994733
30
0.0
11
0.000000
21
0.292098
31
0.0
0
LINE
8
FRONT_HID
6
HIDDEN
10
0.040549
20
0.244733
30
0.0
11
0.094737
21
0.244733
31
0.0
0
LINE
8
FRONT_HID
6
HIDDEN
10
0.078947
20
0.244733
30
0.0
11
0.046875
21
0.244733
31
0.0
0
LINE
8
FRONT_HID
6
HIDDEN
10
0.046875
20
0.244733
30
0.0
11
0.078947
21
0.244733
31
0.0
0
LINE
8
FRONT_HID
6
HIDDEN
10
0.046875
20
0.251569
30
0.0
11
0.046875
21
0.280478
31
0.0
0
LINE
8
FRONT_HID
6
HIDDEN
10
0.046875
20
0.280478
30
0.0
11
0.046875
21
0.251569
31
0.0
0
LINE
8
FRONT_HID
6
HIDDEN
10
0.046875
20
0.280478
30
0.0
11
0.046620
21
0.280482
31
0.0
0
LINE
8
FRONT_HID
6
HIDDEN
10
0.046620
20
0.280482
30
0.0
11
0.046364
21
0.280488
31
0.0
0
LINE
8
FRONT_HID
6
HIDDEN
10
0.046364
20
0.280488
30
0.0
11
0.046109
21
0.280496
31
0.0
0
LINE
8
FRONT_HID
6
HIDDEN
10
0.046109
20
0.280496
30
0.0
11
0.045854
21
0.280506
31
0.0
0
LINE
8
FRONT_HID
6
HIDDEN
10
0.045854
20
0.280506
30
0.0
11
0.045599
21
0.280517
31
0.0
0
LINE
8
FRONT_HID
6
HIDDEN
10
0.045599
20
0.280517
30
0.0
11
0.045344
21
0.280531
31
0.0
0
LINE
8
FRONT_HID
6
HIDDEN
10
0.045344
20
0.280531
30
0.0
11
0.045089
21
0.280546
31
0.0
0
LINE
8
FRONT_HID
6
HIDDEN
10
0.045089
20
0.280546
30
0.0
11
0.044834
21
0.280562
31
0.0
0
LINE
8
FRONT_HID
6
HIDDEN
10
0.044834
20
0.280562
30
0.0
11
0.044580
21
0.280581
31
0.0
0
LINE
8
FRONT_HID
6
HIDDEN
10
0.044580
20
0.280581
30
0.0
11
0.044325
21
0.280601
31
0.0
0
LINE
8
FRONT_HID
6
HIDDEN
10
0.044325
20
0.280601
30
0.0
11
0.044071
21
0.280624
31
0.0
0
LINE
8
FRONT_HID
6
HIDDEN
10
0.044071
20
0.280624
30
0.0
11
0.043817
21
0.280647
31
0.0
0
LINE
8
FRONT_HID
6
HIDDEN
10
0.043817
20
0.280647
30
0.0
11
0.043563
21
0.280673
31
0.0
0
LINE
8
FRONT_HID
6
HIDDEN
10
0.043563
20
0.280673
30
0.0
11
0.043309
21
0.280700
31
0.0
0
LINE
8
FRONT_HID
6
HIDDEN
10
0.043309
20
0.280700
30
0.0
11
0.043055
21
0.280729
31
0.0
0
LINE
8
FRONT_HID
6
HIDDEN
10
0.043055
20
0.280729
30
0.0
11
0.042802
21
0.280760
31
0.0
0
LINE
8
FRONT_HID
6
HIDDEN
10
0.042802
20
0.280760
30
0.0
11
0.042548
21
0.280793
31
0.0
0
LINE
8
FRONT_HID
6
HIDDEN
10
0.042548
20
0.280793
30
0.0
11
0.042295
21
0.280827
31
0.0
0
LINE
8
FRONT_HID
6
HIDDEN
10
0.042295
20
0.280827
30
0.0
11
0.042042
21
0.280863
31
0.0
0
LINE
8
FRONT_HID
6
HIDDEN
10
0.042042
20
0.280863
30
0.0
11
0.041790
21
0.280900
31
0.0
0
LINE
8
FRONT_HID
6
HIDDEN
10
0.041790
20
0.280900
30
0.0
11
0.041538
21
0.280939
31
0.0
0
LINE
8
FRONT_HID
6
HIDDEN
10
0.041538
20
0.280939
30
0.0
11
0.041285
21
0.280980
31
0.0
0
LINE
8
FRONT_HID
6
HIDDEN
10
0.041285
20
0.280980
30
0.0
11
0.041034
21
0.281022
31
0.0
0
LINE
8
FRONT_HID
6
HIDDEN
10
0.041034
20
0.281022
30
0.0
11
0.040782
21
0.281067
31
0.0
0
LINE
8
FRONT_HID
6
HIDDEN
10
0.040782
20
0.281067
30
0.0
11
0.040531
21
0.281112
31
0.0
0
LINE
8
FRONT_HID
6
HIDDEN
10
0.040531
20
0.281112
30
0.0
11
0.040280
21
0.281159
31
0.0
0
LINE
8
FRONT_HID
6
HIDDEN
10
0.040280
20
0.281159
30
0.0
11
0.040029
21
0.281208
31
0.0
0
LINE
8
FRONT_HID
6
HIDDEN
10
0.040029
20
0.281208
30
0.0
11
0.039779
21
0.281259
31
0.0
0
LINE
8
FRONT_HID
6
HIDDEN
10
0.039779
20
0.281259
30
0.0
11
0.039529
21
0.281310
31
0.0
0
LINE
8
FRONT_HID
6
HIDDEN
10
0.039529
20
0.281310
30
0.0
11
0.039279
21
0.281364
31
0.0
0
LINE
8
FRONT_HID
6
HIDDEN
10
0.039279
20
0.281364
30
0.0
11
0.039030
21
0.281419
31
0.0
0
LINE
8
FRONT_HID
6
HIDDEN
10
0.039030
20
0.281419
30
0.0
11
0.038781
21
0.281475
31
0.0
0
LINE
8
FRONT_HID
6
HIDDEN
10
0.038781
20
0.281475
30
0.0
11
0.038532
21
0.281533
31
0.0
0
LINE
8
FRONT_HID
6
HIDDEN
10
0.038532
20
0.281533
30
0.0
11
0.038284
21
0.281593
31
0.0
0
LINE
8
FRONT_HID
6
HIDDEN
10
0.038284
20
0.281593
30
0.0
11
0.038036
21
0.281654
31
0.0
0
LINE
8
FRONT_HID
6
HIDDEN
10
0.038036
20
0.281654
30
0.0
11
0.037788
21
0.281716
31
0.0
0
LINE
8
FRONT_HID
6
HIDDEN
10
0.037788
20
0.281716
30
0.0
11
0.037541
21
0.281780
31
0.0
0
LINE
8
FRONT_HID
6
HIDDEN
10
0.037541
20
0.281780
30
0.0
11
0.037294
21
0.281845
31
0.0
0
LINE
8
FRONT_HID
6
HIDDEN
10
0.037294
20
0.281845
30
0.0
11
0.037048
21
0.281911
31
0.0
0
LINE
8
FRONT_HID
6
HIDDEN
10
0.037048
20
0.281911
30
0.0
11
0.036802
21
0.281979
31
0.0
0
LINE
8
FRONT_HID
6
HIDDEN
10
0.036802
20
0.281979
30
0.0
11
0.036556
21
0.282049
31
0.0
0
LINE
8
FRONT_HID
6
HIDDEN
10
0.036556
20
0.282049
30
0.0
11
0.036311
21
0.282119
31
0.0
0
LINE
8
FRONT_HID
6
HIDDEN
10
0.036311
20
0.282119
30
0.0
11
0.036066
21
0.282191
31
0.0
0
LINE
8
FRONT_HID
6
HIDDEN
10
0.036066
20
0.282191
30
0.0
11
0.035821
21
0.282265
31
0.0
0
LINE
8
FRONT_HID
6
HIDDEN
10
0.035821
20
0.282265
30
0.0
11
0.035577
21
0.282339
31
0.0
0
LINE
8
FRONT_HID
6
HIDDEN
10
0.035577
20
0.282339
30
0.0
11
0.035333
21
0.282415
31
0.0
0
LINE
8
FRONT_HID
6
HIDDEN
10
0.035333
20
0.282415
30
0.0
11
0.035090
21
0.282492
31
0.0
0
LINE
8
FRONT_HID
6
HIDDEN
10
0.035090
20
0.282492
30
0.0
11
0.034847
21
0.282570
31
0.0
0
LINE
8
FRONT_HID
6
HIDDEN
10
0.034847
20
0.282570
30
0.0
11
0.034604
21
0.282650
31
0.0
0
LINE
8
FRONT_HID
6
HIDDEN
10
0.034604
20
0.282650
30
0.0
11
0.034362
21
0.282731
31
0.0
0
LINE
8
FRONT_HID
6
HIDDEN
10
0.034362
20
0.282731
30
0.0
11
0.034120
21
0.282813
31
0.0
0
LINE
8
FRONT_HID
6
HIDDEN
10
0.034120
20
0.282813
30
0.0
11
0.033879
21
0.282896
31
0.0
0
LINE
8
FRONT_HID
6
HIDDEN
10
0.033879
20
0.282896
30
0.0
11
0.033638
21
0.282980
31
0.0
0
LINE
8
FRONT_HID
6
HIDDEN
10
0.033638
20
0.282980
30
0.0
11
0.033397
21
0.283066
31
0.0
0
LINE
8
FRONT_HID
6
HIDDEN
10
0.033397
20
0.283066
30
0.0
11
0.033157
21
0.283153
31
0.0
0
LINE
8
FRONT_HID
6
HIDDEN
10
0.033157
20
0.283153
30
0.0
11
0.032917
21
0.283240
31
0.0
0
LINE
8
FRONT_HID
6
HIDDEN
10
0.032917
20
0.283240
30
0.0
11
0.032678
21
0.283329
31
0.0
0
LINE
8
FRONT_HID
6
HIDDEN
10
0.032678
20
0.283329
30
0.0
11
0.032439
21
0.283419
31
0.0
0
LINE
8
FRONT_HID
6
HIDDEN
10
0.032439
20
0.283419
30
0.0
11
0.032200
21
0.283510
31
0.0
0
LINE
8
FRONT_HID
6
HIDDEN
10
0.032200
20
0.283510
30
0.0
11
0.031962
21
0.283602
31
0.0
0
LINE
8
FRONT_HID
6
HIDDEN
10
0.031962
20
0.283602
30
0.0
11
0.031724
21
0.283695
31
0.0
0
LINE
8
FRONT_HID
6
HIDDEN
10
0.031724
20
0.283695
30
0.0
11
0.031487
21
0.283790
31
0.0
0
LINE
8
FRONT_HID
6
HIDDEN
10
0.031487
20
0.283790
30
0.0
11
0.031250
21
0.283885
31
0.0
0
LINE
8
FRONT_HID
6
HIDDEN
10
0.031250
20
0.283885
30
0.0
11
0.030992
21
0.283990
31
0.0
0
LINE
8
FRONT_HID
6
HIDDEN
10
0.030992
20
0.283990
30
0.0
11
0.030735
21
0.284096
31
0.0
0
LINE
8
FRONT_HID
6
HIDDEN
10
0.030735
20
0.284096
30
0.0
11
0.030478
21
0.284203
31
0.0
0
LINE
8
FRONT_HID
6
HIDDEN
10
0.030478
20
0.284203
30
0.0
11
0.030222
21
0.284311
31
0.0
0
LINE
8
FRONT_HID
6
HIDDEN
10
0.030222
20
0.284311
30
0.0
11
0.029966
21
0.284421
31
0.0
0
LINE
8
FRONT_HID
6
HIDDEN
10
0.029966
20
0.284421
30
0.0
11
0.029711
21
0.284531
31
0.0
0
LINE
8
FRONT_HID
6
HIDDEN
10
0.029711
20
0.284531
30
0.0
11
0.029456
21
0.284643
31
0.0
0
LINE
8
FRONT_HID
6
HIDDEN
10
0.029456
20
0.284643
30
0.0
11
0.029202
21
0.284755
31
0.0
0
LINE
8
FRONT_HID
6
HIDDEN
10
0.029202
20
0.284755
30
0.0
11
0.028948
21
0.284869
31
0.0
0
LINE
8
FRONT_HID
6
HIDDEN
10
0.028948
20
0.284869
30
0.0
11
0.028694
21
0.284984
31
0.0
0
LINE
8
FRONT_HID
6
HIDDEN
10
0.028694
20
0.284984
30
0.0
11
0.028441
21
0.285099
31
0.0
0
LINE
8
FRONT_HID
6
HIDDEN
10
0.028441
20
0.285099
30
0.0
11
0.028189
21
0.285216
31
0.0
0
LINE
8
FRONT_HID
6
HIDDEN
10
0.028189
20
0.285216
30
0.0
11
0.027937
21
0.285334
31
0.0
0
LINE
8
FRONT_HID
6
HIDDEN
10
0.027937
20
0.285334
30
0.0
11
0.027685
21
0.285452
31
0.0
0
LINE
8
FRONT_HID
6
HIDDEN
10
0.027685
20
0.285452
30
0.0
11
0.027434
21
0.285572
31
0.0
0
LINE
8
FRONT_HID
6
HIDDEN
10
0.027434
20
0.285572
30
0.0
11
0.027183
21
0.285692
31
0.0
0
LINE
8
FRONT_HID
6
HIDDEN
10
0.027183
20
0.285692
30
0.0
11
0.026933
21
0.285814
31
0.0
0
LINE
8
FRONT_HID
6
HIDDEN
10
0.026933
20
0.285814
30
0.0
11
0.026683
21
0.285936
31
0.0
0
LINE
8
FRONT_HID
6
HIDDEN
10
0.026683
20
0.285936
30
0.0
11
0.026433
21
0.286059
31
0.0
0
LINE
8
FRONT_HID
6
HIDDEN
10
0.026433
20
0.286059
30
0.0
11
0.026184
21
0.286183
31
0.0
0
LINE
8
FRONT_HID
6
HIDDEN
10
0.026184
20
0.286183
30
0.0
11
0.025936
21
0.286308
31
0.0
0
LINE
8
FRONT_HID
6
HIDDEN
10
0.025936
20
0.286308
30
0.0
11
0.025688
21
0.286434
31
0.0
0
LINE
8
FRONT_HID
6
HIDDEN
10
0.025688
20
0.286434
30
0.0
11
0.025440
21
0.286561
31
0.0
0
LINE
8
FRONT_HID
6
HIDDEN
10
0.025440
20
0.286561
30
0.0
11
0.025193
21
0.286688
31
0.0
0
LINE
8
FRONT_HID
6
HIDDEN
10
0.025193
20
0.286688
30
0.0
11
0.024946
21
0.286816
31
0.0
0
LINE
8
FRONT_HID
6
HIDDEN
10
0.024946
20
0.286816
30
0.0
11
0.024699
21
0.286945
31
0.0
0
LINE
8
FRONT_HID
6
HIDDEN
10
0.024699
20
0.286945
30
0.0
11
0.024453
21
0.287075
31
0.0
0
LINE
8
FRONT_HID
6
HIDDEN
10
0.024453
20
0.287075
30
0.0
11
0.024207
21
0.287205
31
0.0
0
LINE
8
FRONT_HID
6
HIDDEN
10
0.024207
20
0.287205
30
0.0
11
0.023962
21
0.287336
31
0.0
0
LINE
8
FRONT_HID
6
HIDDEN
10
0.023962
20
0.287336
30
0.0
11
0.023717
21
0.287468
31
0.0
0
LINE
8
FRONT_HID
6
HIDDEN
10
0.023717
20
0.287468
30
0.0
11
0.023472
21
0.287601
31
0.0
0
LINE
8
FRONT_HID
6
HIDDEN
10
0.023472
20
0.287601
30
0.0
11
0.023228
21
0.287734
31
0.0
0
LINE
8
FRONT_HID
6
HIDDEN
10
0.023228
20
0.287734
30
0.0
11
0.022984
21
0.287868
31
0.0
0
LINE
8
FRONT_HID
6
HIDDEN
10
0.022984
20
0.287868
30
0.0
11
0.022741
21
0.288003
31
0.0
0
LINE
8
FRONT_HID
6
HIDDEN
10
0.022741
20
0.288003
30
0.0
11
0.022498
21
0.288138
31
0.0
0
LINE
8
FRONT_HID
6
HIDDEN
10
0.022498
20
0.288138
30
0.0
11
0.022255
21
0.288274
31
0.0
0
LINE
8
FRONT_HID
6
HIDDEN
10
0.022255
20
0.288274
30
0.0
11
0.022013
21
0.288411
31
0.0
0
LINE
8
FRONT_HID
6
HIDDEN
10
0.022013
20
0.288411
30
0.0
11
0.021771
21
0.288548
31
0.0
0
LINE
8
FRONT_HID
6
HIDDEN
10
0.021771
20
0.288548
30
0.0
11
0.021529
21
0.288686
31
0.0
0
LINE
8
FRONT_HID
6
HIDDEN
10
0.021529
20
0.288686
30
0.0
11
0.021288
21
0.288824
31
0.0
0
LINE
8
FRONT_HID
6
HIDDEN
10
0.021288
20
0.288824
30
0.0
11
0.021047
21
0.288963
31
0.0
0
LINE
8
FRONT_HID
6
HIDDEN
10
0.021047
20
0.288963
30
0.0
11
0.020806
21
0.289103
31
0.0
0
LINE
8
FRONT_HID
6
HIDDEN
10
0.020806
20
0.289103
30
0.0
11
0.020566
21
0.289243
31
0.0
0
LINE
8
FRONT_HID
6
HIDDEN
10
0.020566
20
0.289243
30
0.0
11
0.020326
21
0.289383
31
0.0
0
LINE
8
FRONT_HID
6
HIDDEN
10
0.020326
20
0.289383
30
0.0
11
0.020086
21
0.289525
31
0.0
0
LINE
8
FRONT_HID
6
HIDDEN
10
0.020086
20
0.289525
30
0.0
11
0.019846
21
0.289666
31
0.0
0
LINE
8
FRONT_HID
6
HIDDEN
10
0.019846
20
0.289666
30
0.0
11
0.019607
21
0.289808
31
0.0
0
LINE
8
FRONT_HID
6
HIDDEN
10
0.019607
20
0.289808
30
0.0
11
0.019368
21
0.289951
31
0.0
0
LINE
8
FRONT_HID
6
HIDDEN
10
0.019368
20
0.289951
30
0.0
11
0.019130
21
0.290094
31
0.0
0
LINE
8
FRONT_HID
6
HIDDEN
10
0.019130
20
0.290094
30
0.0
11
0.018891
21
0.290238
31
0.0
0
LINE
8
FRONT_HID
6
HIDDEN
10
0.018891
20
0.290238
30
0.0
11
0.018653
21
0.290381
31
0.0
0
LINE
8
FRONT_HID
6
HIDDEN
10
0.018653
20
0.290381
30
0.0
11
0.018415
21
0.290526
31
0.0
0
LINE
8
FRONT_HID
6
HIDDEN
10
0.018415
20
0.290526
30
0.0
11
0.018178
21
0.290670
31
0.0
0
LINE
8
FRONT_HID
6
HIDDEN
10
0.018178
20
0.290670
30
0.0
11
0.017940
21
0.290815
31
0.0
0
LINE
8
FRONT_HID
6
HIDDEN
10
0.017940
20
0.290815
30
0.0
11
0.017703
21
0.290960
31
0.0
0
LINE
8
FRONT_HID
6
HIDDEN
10
0.017703
20
0.290960
30
0.0
11
0.017466
21
0.291106
31
0.0
0
LINE
8
FRONT_HID
6
HIDDEN
10
0.017466
20
0.291106
30
0.0
11
0.017229
21
0.291251
31
0.0
0
LINE
8
FRONT_HID
6
HIDDEN
10
0.017229
20
0.291251
30
0.0
11
0.016992
21
0.291397
31
0.0
0
LINE
8
FRONT_HID
6
HIDDEN
10
0.016992
20
0.291397
30
0.0
11
0.016754
21
0.291542
31
0.0
0
LINE
8
FRONT_HID
6
HIDDEN
10
0.016754
20
0.291542
30
0.0
11
0.016517
21
0.291687
31
0.0
0
LINE
8
FRONT_HID
6
HIDDEN
10
0.016517
20
0.291687
30
0.0
11
0.016279
21
0.291832
31
0.0
0
LINE
8
FRONT_HID
6
HIDDEN
10
0.016279
20
0.291832
30
0.0
11
0.016040
21
0.291973
31
0.0
0
LINE
8
FRONT_HID
6
HIDDEN
10
0.016040
20
0.291973
30
0.0
11
0.015793
21
0.292101
31
0.0
0
LINE
8
FRONT_HID
6
HIDDEN
10
0.015793
20
0.292101
30
0.0
11
0.000003
21
0.292101
31
0.0
0
LINE
8
FRONT_HID
6
HIDDEN
10
0.015793
20
0.292101
30
0.0
11
0.015789
21
0.292098
31
0.0
0
LINE
8
FRONT_HID
6
HIDDEN
10
0.015789
20
0.292098
30
0.0
11
0.016005
21
0.291916
31
0.0
0
LINE
8
FRONT_HID
6
HIDDEN
10
0.016005
20
0.291916
30
0.0
11
0.016234
21
0.291748
31
0.0
0
LINE
8
FRONT_HID
6
HIDDEN
10
0.016234
20
0.291748
30
0.0
11
0.016465
21
0.291583
31
0.0
0
LINE
8
FRONT_HID
6
HIDDEN
10
0.016465
20
0.291583
30
0.0
11
0.016697
21
0.291419
31
0.0
0
LINE
8
FRONT_HID
6
HIDDEN
10
0.016697
20
0.291419
30
0.0
11
0.016930
21
0.291257
31
0.0
0
LINE
8
FRONT_HID
6
HIDDEN
10
0.016930
20
0.291257
30
0.0
11
0.017163
21
0.291096
31
0.0
0
LINE
8
FRONT_HID
6
HIDDEN
10
0.017163
20
0.291096
30
0.0
11
0.017398
21
0.290936
31
0.0
0
LINE
8
FRONT_HID
6
HIDDEN
10
0.017398
20
0.290936
30
0.0
11
0.017632
21
0.290776
31
0.0
0
LINE
8
FRONT_HID
6
HIDDEN
10
0.017632
20
0.290776
30
0.0
11
0.017868
21
0.290618
31
0.0
0
LINE
8
FRONT_HID
6
HIDDEN
10
0.017868
20
0.290618
30
0.0
11
0.018104
21
0.290460
31
0.0
0
LINE
8
FRONT_HID
6
HIDDEN
10
0.018104
20
0.290460
30
0.0
11
0.018340
21
0.290303
31
0.0
0
LINE
8
FRONT_HID
6
HIDDEN
10
0.018340
20
0.290303
30
0.0
11
0.018577
21
0.290147
31
0.0
0
LINE
8
FRONT_HID
6
HIDDEN
10
0.018577
20
0.290147
30
0.0
11
0.018814
21
0.289991
31
0.0
0
LINE
8
FRONT_HID
6
HIDDEN
10
0.018814
20
0.289991
30
0.0
11
0.019052
21
0.289836
31
0.0
0
LINE
8
FRONT_HID
6
HIDDEN
10
0.019052
20
0.289836
30
0.0
11
0.019290
21
0.289682
31
0.0
0
LINE
8
FRONT_HID
6
HIDDEN
10
0.019290
20
0.289682
30
0.0
11
0.019529
21
0.289528
31
0.0
0
LINE
8
FRONT_HID
6
HIDDEN
10
0.019529
20
0.289528
30
0.0
11
0.019768
21
0.289375
31
0.0
0
LINE
8
FRONT_HID
6
HIDDEN
10
0.019768
20
0.289375
30
0.0
11
0.020007
21
0.289223
31
0.0
0
LINE
8
FRONT_HID
6
HIDDEN
10
0.020007
20
0.289223
30
0.0
11
0.020247
21
0.289071
31
0.0
0
LINE
8
FRONT_HID
6
HIDDEN
10
0.020247
20
0.289071
30
0.0
11
0.020487
21
0.288920
31
0.0
0
LINE
8
FRONT_HID
6
HIDDEN
10
0.020487
20
0.288920
30
0.0
11
0.020728
21
0.288770
31
0.0
0
LINE
8
FRONT_HID
6
HIDDEN
10
0.020728
20
0.288770
30
0.0
11
0.020969
21
0.288620
31
0.0
0
LINE
8
FRONT_HID
6
HIDDEN
10
0.020969
20
0.288620
30
0.0
11
0.021211
21
0.288471
31
0.0
0
LINE
8
FRONT_HID
6
HIDDEN
10
0.021211
20
0.288471
30
0.0
11
0.021453
21
0.288323
31
0.0
0
LINE
8
FRONT_HID
6
HIDDEN
10
0.021453
20
0.288323
30
0.0
11
0.021695
21
0.288175
31
0.0
0
LINE
8
FRONT_HID
6
HIDDEN
10
0.021695
20
0.288175
30
0.0
11
0.021938
21
0.288028
31
0.0
0
LINE
8
FRONT_HID
6
HIDDEN
10
0.021938
20
0.288028
30
0.0
11
0.022181
21
0.287882
31
0.0
0
LINE
8
FRONT_HID
6
HIDDEN
10
0.022181
20
0.287882
30
0.0
11
0.022425
21
0.287737
31
0.0
0
LINE
8
FRONT_HID
6
HIDDEN
10
0.022425
20
0.287737
30
0.0
11
0.022669
21
0.287592
31
0.0
0
LINE
8
FRONT_HID
6
HIDDEN
10
0.022669
20
0.287592
30
0.0
11
0.022914
21
0.287448
31
0.0
0
LINE
8
FRONT_HID
6
HIDDEN
10
0.022914
20
0.287448
30
0.0
11
0.023159
21
0.287305
31
0.0
0
LINE
8
FRONT_HID
6
HIDDEN
10
0.023159
20
0.287305
30
0.0
11
0.023404
21
0.287162
31
0.0
0
LINE
8
FRONT_HID
6
HIDDEN
10
0.023404
20
0.287162
30
0.0
11
0.023650
21
0.287021
31
0.0
0
LINE
8
FRONT_HID
6
HIDDEN
10
0.023650
20
0.287021
30
0.0
11
0.023896
21
0.286880
31
0.0
0
LINE
8
FRONT_HID
6
HIDDEN
10
0.023896
20
0.286880
30
0.0
11
0.024143
21
0.286740
31
0.0
0
LINE
8
FRONT_HID
6
HIDDEN
10
0.024143
20
0.286740
30
0.0
11
0.024390
21
0.286600
31
0.0
0
LINE
8
FRONT_HID
6
HIDDEN
10
0.024390
20
0.286600
30
0.0
11
0.024638
21
0.286462
31
0.0
0
LINE
8
FRONT_HID
6
HIDDEN
10
0.024638
20
0.286462
30
0.0
11
0.024886
21
0.286324
31
0.0
0
LINE
8
FRONT_HID
6
HIDDEN
10
0.024886
20
0.286324
30
0.0
11
0.025135
21
0.286187
31
0.0
0
LINE
8
FRONT_HID
6
HIDDEN
10
0.025135
20
0.286187
30
0.0
11
0.025384
21
0.286051
31
0.0
0
LINE
8
FRONT_HID
6
HIDDEN
10
0.025384
20
0.286051
30
0.0
11
0.025633
21
0.285916
31
0.0
0
LINE
8
FRONT_HID
6
HIDDEN
10
0.025633
20
0.285916
30
0.0
11
0.025884
21
0.285782
31
0.0
0
LINE
8
FRONT_HID
6
HIDDEN
10
0.025884
20
0.285782
30
0.0
11
0.026134
21
0.285649
31
0.0
0
LINE
8
FRONT_HID
6
HIDDEN
10
0.026134
20
0.285649
30
0.0
11
0.026385
21
0.285516
31
0.0
0
LINE
8
FRONT_HID
6
HIDDEN
10
0.026385
20
0.285516
30
0.0
11
0.026637
21
0.285385
31
0.0
0
LINE
8
FRONT_HID
6
HIDDEN
10
0.026637
20
0.285385
30
0.0
11
0.026889
21
0.285254
31
0.0
0
LINE
8
FRONT_HID
6
HIDDEN
10
0.026889
20
0.285254
30
0.0
11
0.027141
21
0.285125
31
0.0
0
LINE
8
FRONT_HID
6
HIDDEN
10
0.027141
20
0.285125
30
0.0
11
0.027394
21
0.284996
31
0.0
0
LINE
8
FRONT_HID
6
HIDDEN
10
0.027394
20
0.284996
30
0.0
11
0.027647
21
0.284868
31
0.0
0
LINE
8
FRONT_HID
6
HIDDEN
10
0.027647
20
0.284868
30
0.0
11
0.027901
21
0.284742
31
0.0
0
LINE
8
FRONT_HID
6
HIDDEN
10
0.027901
20
0.284742
30
0.0
11
0.028156
21
0.284616
31
0.0
0
LINE
8
FRONT_HID
6
HIDDEN
10
0.028156
20
0.284616
30
0.0
11
0.028411
21
0.284491
31
0.0
0
LINE
8
FRONT_HID
6
HIDDEN
10
0.028411
20
0.284491
30
0.0
11
0.028666
21
0.284368
31
0.0
0
LINE
8
FRONT_HID
6
HIDDEN
10
0.028666
20
0.284368
30
0.0
11
0.028922
21
0.284245
31
0.0
0
LINE
8
FRONT_HID
6
HIDDEN
10
0.028922
20
0.284245
30
0.0
11
0.029179
21
0.284124
31
0.0
0
LINE
8
FRONT_HID
6
HIDDEN
10
0.029179
20
0.284124
30
0.0
11
0.029436
21
0.284004
31
0.0
0
LINE
8
FRONT_HID
6
HIDDEN
10
0.029436
20
0.284004
30
0.0
11
0.029693
21
0.283885
31
0.0
0
LINE
8
FRONT_HID
6
HIDDEN
10
0.029693
20
0.283885
30
0.0
11
0.029952
21
0.283767
31
0.0
0
LINE
8
FRONT_HID
6
HIDDEN
10
0.029952
20
0.283767
30
0.0
11
0.030210
21
0.283650
31
0.0
0
LINE
8
FRONT_HID
6
HIDDEN
10
0.030210
20
0.283650
30
0.0
11
0.030469
21
0.283534
31
0.0
0
LINE
8
FRONT_HID
6
HIDDEN
10
0.030469
20
0.283534
30
0.0
11
0.030729
21
0.283420
31
0.0
0
LINE
8
FRONT_HID
6
HIDDEN
10
0.030729
20
0.283420
30
0.0
11
0.030989
21
0.283306
31
0.0
0
LINE
8
FRONT_HID
6
HIDDEN
10
0.030989
20
0.283306
30
0.0
11
0.031250
21
0.283194
31
0.0
0
LINE
8
FRONT_HID
6
HIDDEN
10
0.046875
20
0.279595
30
0.0
11
0.046875
21
0.244733
31
0.0
0
LINE
8
FRONT_HID
6
HIDDEN
10
0.031250
20
0.283194
30
0.0
11
0.031486
21
0.283094
31
0.0
0
LINE
8
FRONT_HID
6
HIDDEN
10
0.031486
20
0.283094
30
0.0
11
0.031722
21
0.282995
31
0.0
0
LINE
8
FRONT_HID
6
HIDDEN
10
0.031722
20
0.282995
30
0.0
11
0.031959
21
0.282897
31
0.0
0
LINE
8
FRONT_HID
6
HIDDEN
10
0.031959
20
0.282897
30
0.0
11
0.032196
21
0.282801
31
0.0
0
LINE
8
FRONT_HID
6
HIDDEN
10
0.032196
20
0.282801
30
0.0
11
0.032434
21
0.282705
31
0.0
0
LINE
8
FRONT_HID
6
HIDDEN
10
0.032434
20
0.282705
30
0.0
11
0.032672
21
0.282610
31
0.0
0
LINE
8
FRONT_HID
6
HIDDEN
10
0.032672
20
0.282610
30
0.0
11
0.032910
21
0.282517
31
0.0
0
LINE
8
FRONT_HID
6
HIDDEN
10
0.032910
20
0.282517
30
0.0
11
0.033149
21
0.282424
31
0.0
0
LINE
8
FRONT_HID
6
HIDDEN
10
0.033149
20
0.282424
30
0.0
11
0.033388
21
0.282333
31
0.0
0
LINE
8
FRONT_HID
6
HIDDEN
10
0.033388
20
0.282333
30
0.0
11
0.033628
21
0.282243
31
0.0
0
LINE
8
FRONT_HID
6
HIDDEN
10
0.033628
20
0.282243
30
0.0
11
0.033868
21
0.282154
31
0.0
0
LINE
8
FRONT_HID
6
HIDDEN
10
0.033868
20
0.282154
30
0.0
11
0.034109
21
0.282067
31
0.0
0
LINE
8
FRONT_HID
6
HIDDEN
10
0.034109
20
0.282067
30
0.0
11
0.034350
21
0.281980
31
0.0
0
LINE
8
FRONT_HID
6
HIDDEN
10
0.034350
20
0.281980
30
0.0
11
0.034592
21
0.281895
31
0.0
0
LINE
8
FRONT_HID
6
HIDDEN
10
0.034592
20
0.281895
30
0.0
11
0.034834
21
0.281811
31
0.0
0
LINE
8
FRONT_HID
6
HIDDEN
10
0.034834
20
0.281811
30
0.0
11
0.035076
21
0.281728
31
0.0
0
LINE
8
FRONT_HID
6
HIDDEN
10
0.035076
20
0.281728
30
0.0
11
0.035319
21
0.281647
31
0.0
0
LINE
8
FRONT_HID
6
HIDDEN
10
0.035319
20
0.281647
30
0.0
11
0.035563
21
0.281567
31
0.0
0
LINE
8
FRONT_HID
6
HIDDEN
10
0.035563
20
0.281567
30
0.0
11
0.035806
21
0.281488
31
0.0
0
LINE
8
FRONT_HID
6
HIDDEN
10
0.035806
20
0.281488
30
0.0
11
0.036050
21
0.281411
31
0.0
0
LINE
8
FRONT_HID
6
HIDDEN
10
0.036050
20
0.281411
30
0.0
11
0.036295
21
0.281335
31
0.0
0
LINE
8
FRONT_HID
6
HIDDEN
10
0.036295
20
0.281335
30
0.0
11
0.036540
21
0.281260
31
0.0
0
LINE
8
FRONT_HID
6
HIDDEN
10
0.036540
20
0.281260
30
0.0
11
0.036786
21
0.281187
31
0.0
0
LINE
8
FRONT_HID
6
HIDDEN
10
0.036786
20
0.281187
30
0.0
11
0.037032
21
0.281115
31
0.0
0
LINE
8
FRONT_HID
6
HIDDEN
10
0.037032
20
0.281115
30
0.0
11
0.037278
21
0.281045
31
0.0
0
LINE
8
FRONT_HID
6
HIDDEN
10
0.037278
20
0.281045
30
0.0
11
0.037525
21
0.280976
31
0.0
0
LINE
8
FRONT_HID
6
HIDDEN
10
0.037525
20
0.280976
30
0.0
11
0.037772
21
0.280909
31
0.0
0
LINE
8
FRONT_HID
6
HIDDEN
10
0.037772
20
0.280909
30
0.0
11
0.038019
21
0.280843
31
0.0
0
LINE
8
FRONT_HID
6
HIDDEN
10
0.038019
20
0.280843
30
0.0
11
0.038267
21
0.280778
31
0.0
0
LINE
8
FRONT_HID
6
HIDDEN
10
0.038267
20
0.280778
30
0.0
11
0.038515
21
0.280715
31
0.0
0
LINE
8
FRONT_HID
6
HIDDEN
10
0.038515
20
0.280715
30
0.0
11
0.038764
21
0.280654
31
0.0
0
LINE
8
FRONT_HID
6
HIDDEN
10
0.038764
20
0.280654
30
0.0
11
0.039013
21
0.280594
31
0.0
0
LINE
8
FRONT_HID
6
HIDDEN
10
0.039013
20
0.280594
30
0.0
11
0.039263
21
0.280536
31
0.0
0
LINE
8
FRONT_HID
6
HIDDEN
10
0.039263
20
0.280536
30
0.0
11
0.039512
21
0.280479
31
0.0
0
LINE
8
FRONT_HID
6
HIDDEN
10
0.039512
20
0.280479
30
0.0
11
0.039763
21
0.280424
31
0.0
0
LINE
8
FRONT_HID
6
HIDDEN
10
0.039763
20
0.280424
30
0.0
11
0.040013
21
0.280371
31
0.0
0
LINE
8
FRONT_HID
6
HIDDEN
10
0.040013
20
0.280371
30
0.0
11
0.040264
21
0.280319
31
0.0
0
LINE
8
FRONT_HID
6
HIDDEN
10
0.040264
20
0.280319
30
0.0
11
0.040515
21
0.280269
31
0.0
0
LINE
8
FRONT_HID
6
HIDDEN
10
0.040515
20
0.280269
30
0.0
11
0.040767
21
0.280221
31
0.0
0
LINE
8
FRONT_HID
6
HIDDEN
10
0.040767
20
0.280221
30
0.0
11
0.041019
21
0.280174
31
0.0
0
LINE
8
FRONT_HID
6
HIDDEN
10
0.041019
20
0.280174
30
0.0
11
0.041271
21
0.280129
31
0.0
0
LINE
8
FRONT_HID
6
HIDDEN
10
0.041271
20
0.280129
30
0.0
11
0.041523
21
0.280086
31
0.0
0
LINE
8
FRONT_HID
6
HIDDEN
10
0.041523
20
0.280086
30
0.0
11
0.041776
21
0.280044
31
0.0
0
LINE
8
FRONT_HID
6
HIDDEN
10
0.041776
20
0.280044
30
0.0
11
0.042029
21
0.280004
31
0.0
0
LINE
8
FRONT_HID
6
HIDDEN
10
0.042029
20
0.280004
30
0.0
11
0.042282
21
0.279966
31
0.0
0
LINE
8
FRONT_HID
6
HIDDEN
10
0.042282
20
0.279966
30
0.0
11
0.042536
21
0.279930
31
0.0
0
LINE
8
FRONT_HID
6
HIDDEN
10
0.042536
20
0.279930
30
0.0
11
0.042790
21
0.279895
31
0.0
0
LINE
8
FRONT_HID
6
HIDDEN
10
0.042790
20
0.279895
30
0.0
11
0.043044
21
0.279863
31
0.0
0
LINE
8
FRONT_HID
6
HIDDEN
10
0.043044
20
0.279863
30
0.0
11
0.043298
21
0.279832
31
0.0
0
LINE
8
FRONT_HID
6
HIDDEN
10
0.043298
20
0.279832
30
0.0
11
0.043553
21
0.279803
31
0.0
0
LINE
8
FRONT_HID
6
HIDDEN
10
0.043553
20
0.279803
30
0.0
11
0.043807
21
0.279776
31
0.0
0
LINE
8
FRONT_HID
6
HIDDEN
10
0.043807
20
0.279776
30
0.0
11
0.044062
21
0.279750
31
0.0
0
LINE
8
FRONT_HID
6
HIDDEN
10
0.044062
20
0.279750
30
0.0
11
0.044317
21
0.279727
31
0.0
0
LINE
8
FRONT_HID
6
HIDDEN
10
0.044317
20
0.279727
30
0.0
11
0.044573
21
0.279705
31
0.0
0
LINE
8
FRONT_HID
6
HIDDEN
10
0.044573
20
0.279705
30
0.0
11
0.044828
21
0.279685
31
0.0
0
LINE
8
FRONT_HID
6
HIDDEN
10
0.044828
20
0.279685
30
0.0
11
0.045084
21
0.279667
31
0.0
0
LINE
8
FRONT_HID
6
HIDDEN
10
0.045084
20
0.279667
30
0.0
11
0.045339
21
0.279651
31
0.0
0
LINE
8
FRONT_HID
6
HIDDEN
10
0.045339
20
0.279651
30
0.0
11
0.045595
21
0.279637
31
0.0
0
LINE
8
FRONT_HID
6
HIDDEN
10
0.045595
20
0.279637
30
0.0
11
0.045851
21
0.279625
31
0.0
0
LINE
8
FRONT_HID
6
HIDDEN
10
0.045851
20
0.279625
30
0.0
11
0.046107
21
0.279615
31
0.0
0
LINE
8
FRONT_HID
6
HIDDEN
10
0.046107
20
0.279615
30
0.0
11
0.046363
21
0.279606
31
0.0
0
LINE
8
FRONT_HID
6
HIDDEN
10
0.046363
20
0.279606
30
0.0
11
0.046619
21
0.279600
31
0.0
0
LINE
8
FRONT_HID
6
HIDDEN
10
0.046619
20
0.279600
30
0.0
11
0.046875
21
0.279595
31
0.0
0
LINE
8
FRONT_HID
6
HIDDEN
10
0.078947
20
0.994733
30
0.0
11
0.015789
21
0.994733
31
0.0
0
LINE
8
FRONT_HID
6
HIDDEN
10
0.015789
20
0.994733
30
0.0
11
0.078947
21
0.994733
31
0.0
0
LINE
8
FRONT_HID
6
HIDDEN
10
0.046875
20
0.279595
30
0.0
11
0.046875
21
0.244733
31
0.0
0
LINE
8
FRONT_HID
6
HIDDEN
10
0.078947
20
0.244733
30
0.0
11
0.078947
21
0.994733
31
0.0
0
LINE
8
FRONT_HID
6
HIDDEN
10
0.015789
20
0.994733
30
0.0
11
0.015789
21
0.292098
31
0.0
0
LINE
8
LEFT
10
0.244739
20
0.251569
30
0.0
11
0.244739
21
0.244733
31
0.0
0
LINE
8
LEFT
10
0.244739
20
0.251569
30
0.0
11
0.244765
21
0.251742
31
0.0
0
LINE
8
LEFT
10
0.244765
20
0.251742
30
0.0
11
0.244791
21
0.251914
31
0.0
0
LINE
8
LEFT
10
0.244791
20
0.251914
30
0.0
11
0.244818
21
0.252086
31
0.0
0
LINE
8
LEFT
10
0.244818
20
0.252086
30
0.0
11
0.244845
21
0.252259
31
0.0
0
LINE
8
LEFT
10
0.244845
20
0.252259
30
0.0
11
0.244873
21
0.252431
31
0.0
0
LINE
8
LEFT
10
0.244873
20
0.252431
30
0.0
11
0.244902
21
0.252602
31
0.0
0
LINE
8
LEFT
10
0.244902
20
0.252602
30
0.0
11
0.244931
21
0.252774
31
0.0
0
LINE
8
LEFT
10
0.244931
20
0.252774
30
0.0
11
0.244961
21
0.252946
31
0.0
0
LINE
8
LEFT
10
0.244961
20
0.252946
30
0.0
11
0.244991
21
0.253118
31
0.0
0
LINE
8
LEFT
10
0.244991
20
0.253118
30
0.0
11
0.245023
21
0.253289
31
0.0
0
LINE
8
LEFT
10
0.245023
20
0.253289
30
0.0
11
0.245054
21
0.253460
31
0.0
0
LINE
8
LEFT
10
0.245054
20
0.253460
30
0.0
11
0.245087
21
0.253632
31
0.0
0
LINE
8
LEFT
10
0.245087
20
0.253632
30
0.0
11
0.245120
21
0.253803
31
0.0
0
LINE
8
LEFT
10
0.245120
20
0.253803
30
0.0
11
0.245154
21
0.253974
31
0.0
0
LINE
8
LEFT
10
0.245154
20
0.253974
30
0.0
11
0.245188
21
0.254145
31
0.0
0
LINE
8
LEFT
10
0.245188
20
0.254145
30
0.0
11
0.245223
21
0.254315
31
0.0
0
LINE
8
LEFT
10
0.245223
20
0.254315
30
0.0
11
0.245258
21
0.254486
31
0.0
0
LINE
8
LEFT
10
0.245258
20
0.254486
30
0.0
11
0.245295
21
0.254656
31
0.0
0
LINE
8
LEFT
10
0.245295
20
0.254656
30
0.0
11
0.245331
21
0.254827
31
0.0
0
LINE
8
LEFT
10
0.245331
20
0.254827
30
0.0
11
0.245369
21
0.254997
31
0.0
0
LINE
8
LEFT
10
0.245369
20
0.254997
30
0.0
11
0.245407
21
0.255167
31
0.0
0
LINE
8
LEFT
10
0.245407
20
0.255167
30
0.0
11
0.245446
21
0.255337
31
0.0
0
LINE
8
LEFT
10
0.245446
20
0.255337
30
0.0
11
0.245485
21
0.255507
31
0.0
0
LINE
8
LEFT
10
0.245485
20
0.255507
30
0.0
11
0.245525
21
0.255676
31
0.0
0
LINE
8
LEFT
10
0.245525
20
0.255676
30
0.0
11
0.245566
21
0.255846
31
0.0
0
LINE
8
LEFT
10
0.245566
20
0.255846
30
0.0
11
0.245607
21
0.256015
31
0.0
0
LINE
8
LEFT
10
0.245607
20
0.256015
30
0.0
11
0.245649
21
0.256184
31
0.0
0
LINE
8
LEFT
10
0.245649
20
0.256184
30
0.0
11
0.245691
21
0.256353
31
0.0
0
LINE
8
LEFT
10
0.245691
20
0.256353
30
0.0
11
0.245734
21
0.256522
31
0.0
0
LINE
8
LEFT
10
0.245734
20
0.256522
30
0.0
11
0.245778
21
0.256691
31
0.0
0
LINE
8
LEFT
10
0.245778
20
0.256691
30
0.0
11
0.245822
21
0.256860
31
0.0
0
LINE
8
LEFT
10
0.245822
20
0.256860
30
0.0
11
0.245867
21
0.257028
31
0.0
0
LINE
8
LEFT
10
0.245867
20
0.257028
30
0.0
11
0.245913
21
0.257196
31
0.0
0
LINE
8
LEFT
10
0.245913
20
0.257196
30
0.0
11
0.245959
21
0.257364
31
0.0
0
LINE
8
LEFT
10
0.245959
20
0.257364
30
0.0
11
0.246005
21
0.257532
31
0.0
0
LINE
8
LEFT
10
0.246005
20
0.257532
30
0.0
11
0.246053
21
0.257700
31
0.0
0
LINE
8
LEFT
10
0.246053
20
0.257700
30
0.0
11
0.246101
21
0.257867
31
0.0
0
LINE
8
LEFT
10
0.246101
20
0.257867
30
0.0
11
0.246150
21
0.258035
31
0.0
0
LINE
8
LEFT
10
0.246150
20
0.258035
30
0.0
11
0.246199
21
0.258202
31
0.0
0
LINE
8
LEFT
10
0.246199
20
0.258202
30
0.0
11
0.246249
21
0.258369
31
0.0
0
LINE
8
LEFT
10
0.246249
20
0.258369
30
0.0
11
0.246299
21
0.258536
31
0.0
0
LINE
8
LEFT
10
0.246299
20
0.258536
30
0.0
11
0.246350
21
0.258702
31
0.0
0
LINE
8
LEFT
10
0.246350
20
0.258702
30
0.0
11
0.246402
21
0.258869
31
0.0
0
LINE
8
LEFT
10
0.246402
20
0.258869
30
0.0
11
0.246454
21
0.259035
31
0.0
0
LINE
8
LEFT
10
0.246454
20
0.259035
30
0.0
11
0.246507
21
0.259201
31
0.0
0
LINE
8
LEFT
10
0.246507
20
0.259201
30
0.0
11
0.246561
21
0.259367
31
0.0
0
LINE
8
LEFT
10
0.246561
20
0.259367
30
0.0
11
0.246615
21
0.259533
31
0.0
0
LINE
8
LEFT
10
0.246615
20
0.259533
30
0.0
11
0.246670
21
0.259698
31
0.0
0
LINE
8
LEFT
10
0.246670
20
0.259698
30
0.0
11
0.246725
21
0.259863
31
0.0
0
LINE
8
LEFT
10
0.246725
20
0.259863
30
0.0
11
0.246781
21
0.260028
31
0.0
0
LINE
8
LEFT
10
0.246781
20
0.260028
30
0.0
11
0.246838
21
0.260193
31
0.0
0
LINE
8
LEFT
10
0.246838
20
0.260193
30
0.0
11
0.246895
21
0.260358
31
0.0
0
LINE
8
LEFT
10
0.246895
20
0.260358
30
0.0
11
0.246952
21
0.260522
31
0.0
0
LINE
8
LEFT
10
0.246952
20
0.260522
30
0.0
11
0.247011
21
0.260686
31
0.0
0
LINE
8
LEFT
10
0.247011
20
0.260686
30
0.0
11
0.247070
21
0.260850
31
0.0
0
LINE
8
LEFT
10
0.247070
20
0.260850
30
0.0
11
0.247129
21
0.261014
31
0.0
0
LINE
8
LEFT
10
0.247129
20
0.261014
30
0.0
11
0.247190
21
0.261178
31
0.0
0
LINE
8
LEFT
10
0.247190
20
0.261178
30
0.0
11
0.247250
21
0.261341
31
0.0
0
LINE
8
LEFT
10
0.247250
20
0.261341
30
0.0
11
0.247312
21
0.261504
31
0.0
0
LINE
8
LEFT
10
0.247312
20
0.261504
30
0.0
11
0.247374
21
0.261667
31
0.0
0
LINE
8
LEFT
10
0.247374
20
0.261667
30
0.0
11
0.247437
21
0.261830
31
0.0
0
LINE
8
LEFT
10
0.247437
20
0.261830
30
0.0
11
0.247500
21
0.261992
31
0.0
0
LINE
8
LEFT
10
0.247500
20
0.261992
30
0.0
11
0.247564
21
0.262154
31
0.0
0
LINE
8
LEFT
10
0.247564
20
0.262154
30
0.0
11
0.247902
21
0.262986
31
0.0
0
LINE
8
LEFT
10
0.247902
20
0.262986
30
0.0
11
0.248255
21
0.263811
31
0.0
0
LINE
8
LEFT
10
0.248255
20
0.263811
30
0.0
11
0.248625
21
0.264630
31
0.0
0
LINE
8
LEFT
10
0.248625
20
0.264630
30
0.0
11
0.249010
21
0.265441
31
0.0
0
LINE
8
LEFT
10
0.249010
20
0.265441
30
0.0
11
0.249410
21
0.266245
31
0.0
0
LINE
8
LEFT
10
0.249410
20
0.266245
30
0.0
11
0.249825
21
0.267041
31
0.0
0
LINE
8
LEFT
10
0.249825
20
0.267041
30
0.0
11
0.250256
21
0.267829
31
0.0
0
LINE
8
LEFT
10
0.250256
20
0.267829
30
0.0
11
0.250701
21
0.268608
31
0.0
0
LINE
8
LEFT
10
0.250701
20
0.268608
30
0.0
11
0.251161
21
0.269379
31
0.0
0
LINE
8
LEFT
10
0.251161
20
0.269379
30
0.0
11
0.251635
21
0.270142
31
0.0
0
LINE
8
LEFT
10
0.251635
20
0.270142
30
0.0
11
0.252124
21
0.270895
31
0.0
0
LINE
8
LEFT
10
0.252124
20
0.270895
30
0.0
11
0.252627
21
0.271639
31
0.0
0
LINE
8
LEFT
10
0.252627
20
0.271639
30
0.0
11
0.253144
21
0.272373
31
0.0
0
LINE
8
LEFT
10
0.253144
20
0.272373
30
0.0
11
0.253675
21
0.273097
31
0.0
0
LINE
8
LEFT
10
0.253675
20
0.273097
30
0.0
11
0.254219
21
0.273811
31
0.0
0
LINE
8
LEFT
10
0.254219
20
0.273811
30
0.0
11
0.254777
21
0.274514
31
0.0
0
LINE
8
LEFT
10
0.254777
20
0.274514
30
0.0
11
0.255348
21
0.275207
31
0.0
0
LINE
8
LEFT
10
0.255348
20
0.275207
30
0.0
11
0.255932
21
0.275889
31
0.0
0
LINE
8
LEFT
10
0.255932
20
0.275889
30
0.0
11
0.256529
21
0.276560
31
0.0
0
LINE
8
LEFT
10
0.256529
20
0.276560
30
0.0
11
0.257139
21
0.277219
31
0.0
0
LINE
8
LEFT
10
0.257139
20
0.277219
30
0.0
11
0.257760
21
0.277866
31
0.0
0
LINE
8
LEFT
10
0.257760
20
0.277866
30
0.0
11
0.258395
21
0.278502
31
0.0
0
LINE
8
LEFT
10
0.258395
20
0.278502
30
0.0
11
0.259041
21
0.279126
31
0.0
0
LINE
8
LEFT
10
0.259041
20
0.279126
30
0.0
11
0.259698
21
0.279737
31
0.0
0
LINE
8
LEFT
10
0.259698
20
0.279737
30
0.0
11
0.260368
21
0.280335
31
0.0
0
LINE
8
LEFT
10
0.260368
20
0.280335
30
0.0
11
0.261048
21
0.280921
31
0.0
0
LINE
8
LEFT
10
0.261048
20
0.280921
30
0.0
11
0.261739
21
0.281494
31
0.0
0
LINE
8
LEFT
10
0.261739
20
0.281494
30
0.0
11
0.262442
21
0.282054
31
0.0
0
LINE
8
LEFT
10
0.262442
20
0.282054
30
0.0
11
0.263154
21
0.282600
31
0.0
0
LINE
8
LEFT
10
0.263154
20
0.282600
30
0.0
11
0.263877
21
0.283132
31
0.0
0
LINE
8
LEFT
10
0.263877
20
0.283132
30
0.0
11
0.264610
21
0.283651
31
0.0
0
LINE
8
LEFT
10
0.264610
20
0.283651
30
0.0
11
0.265352
21
0.284156
31
0.0
0
LINE
8
LEFT
10
0.265352
20
0.284156
30
0.0
11
0.266104
21
0.284647
31
0.0
0
LINE
8
LEFT
10
0.266104
20
0.284647
30
0.0
11
0.266865
21
0.285123
31
0.0
0
LINE
8
LEFT
10
0.266865
20
0.285123
30
0.0
11
0.267635
21
0.285585
31
0.0
0
LINE
8
LEFT
10
0.267635
20
0.285585
30
0.0
11
0.268414
21
0.286032
31
0.0
0
LINE
8
LEFT
10
0.268414
20
0.286032
30
0.0
11
0.269201
21
0.286464
31
0.0
0
LINE
8
LEFT
10
0.269201
20
0.286464
30
0.0
11
0.269996
21
0.286881
31
0.0
0
LINE
8
LEFT
10
0.269996
20
0.286881
30
0.0
11
0.270799
21
0.287284
31
0.0
0
LINE
8
LEFT
10
0.270799
20
0.287284
30
0.0
11
0.271609
21
0.287670
31
0.0
0
LINE
8
LEFT
10
0.271609
20
0.287670
30
0.0
11
0.272426
21
0.288042
31
0.0
0
LINE
8
LEFT
10
0.272426
20
0.288042
30
0.0
11
0.273251
21
0.288398
31
0.0
0
LINE
8
LEFT
10
0.273251
20
0.288398
30
0.0
11
0.274082
21
0.288738
31
0.0
0
LINE
8
LEFT
10
0.274082
20
0.288738
30
0.0
11
0.274919
21
0.289062
31
0.0
0
LINE
8
LEFT
10
0.274919
20
0.289062
30
0.0
11
0.275762
21
0.289371
31
0.0
0
LINE
8
LEFT
10
0.275762
20
0.289371
30
0.0
11
0.276611
21
0.289663
31
0.0
0
LINE
8
LEFT
10
0.276611
20
0.289663
30
0.0
11
0.277465
21
0.289939
31
0.0
0
LINE
8
LEFT
10
0.277465
20
0.289939
30
0.0
11
0.278325
21
0.290199
31
0.0
0
LINE
8
LEFT
10
0.278325
20
0.290199
30
0.0
11
0.279189
21
0.290443
31
0.0
0
LINE
8
LEFT
10
0.279189
20
0.290443
30
0.0
11
0.280057
21
0.290670
31
0.0
0
LINE
8
LEFT
10
0.280057
20
0.290670
30
0.0
11
0.280930
21
0.290881
31
0.0
0
LINE
8
LEFT
10
0.280930
20
0.290881
30
0.0
11
0.281807
21
0.291075
31
0.0
0
LINE
8
LEFT
10
0.281807
20
0.291075
30
0.0
11
0.282687
21
0.291253
31
0.0
0
LINE
8
LEFT
10
0.282687
20
0.291253
30
0.0
11
0.283570
21
0.291413
31
0.0
0
LINE
8
LEFT
10
0.283570
20
0.291413
30
0.0
11
0.284456
21
0.291557
31
0.0
0
LINE
8
LEFT
10
0.284456
20
0.291557
30
0.0
11
0.285345
21
0.291685
31
0.0
0
LINE
8
LEFT
10
0.285345
20
0.291685
30
0.0
11
0.286236
21
0.291795
31
0.0
0
LINE
8
LEFT
10
0.286236
20
0.291795
30
0.0
11
0.287129
21
0.291888
31
0.0
0
LINE
8
LEFT
10
0.287129
20
0.291888
30
0.0
11
0.288024
21
0.291965
31
0.0
0
LINE
8
LEFT
10
0.288024
20
0.291965
30
0.0
11
0.288920
21
0.292024
31
0.0
0
LINE
8
LEFT
10
0.288920
20
0.292024
30
0.0
11
0.289817
21
0.292067
31
0.0
0
LINE
8
LEFT
10
0.289817
20
0.292067
30
0.0
11
0.290714
21
0.292093
31
0.0
0
LINE
8
LEFT
10
0.290714
20
0.292093
30
0.0
11
0.291612
21
0.292101
31
0.0
0
LINE
8
LEFT
10
0.291612
20
0.292101
30
0.0
11
0.292556
21
0.292092
31
0.0
0
LINE
8
LEFT
10
0.292556
20
0.292092
30
0.0
11
0.293499
21
0.292063
31
0.0
0
LINE
8
LEFT
10
0.293499
20
0.292063
30
0.0
11
0.294442
21
0.292016
31
0.0
0
LINE
8
LEFT
10
0.294442
20
0.292016
30
0.0
11
0.295384
21
0.291951
31
0.0
0
LINE
8
LEFT
10
0.295384
20
0.291951
30
0.0
11
0.296324
21
0.291866
31
0.0
0
LINE
8
LEFT
10
0.296324
20
0.291866
30
0.0
11
0.297263
21
0.291763
31
0.0
0
LINE
8
LEFT
10
0.297263
20
0.291763
30
0.0
11
0.298199
21
0.291641
31
0.0
0
LINE
8
LEFT
10
0.298199
20
0.291641
30
0.0
11
0.299132
21
0.291500
31
0.0
0
LINE
8
LEFT
10
0.299132
20
0.291500
30
0.0
11
0.300063
21
0.291341
31
0.0
0
LINE
8
LEFT
10
0.300063
20
0.291341
30
0.0
11
0.300990
21
0.291163
31
0.0
0
LINE
8
LEFT
10
0.300990
20
0.291163
30
0.0
11
0.301914
21
0.290967
31
0.0
0
LINE
8
LEFT
10
0.301914
20
0.290967
30
0.0
11
0.302833
21
0.290753
31
0.0
0
LINE
8
LEFT
10
0.302833
20
0.290753
30
0.0
11
0.303748
21
0.290520
31
0.0
0
LINE
8
LEFT
10
0.303748
20
0.290520
30
0.0
11
0.304658
21
0.290269
31
0.0
0
LINE
8
LEFT
10
0.304658
20
0.290269
30
0.0
11
0.305563
21
0.290000
31
0.0
0
LINE
8
LEFT
10
0.305563
20
0.290000
30
0.0
11
0.306462
21
0.289713
31
0.0
0
LINE
8
LEFT
10
0.306462
20
0.289713
30
0.0
11
0.307356
21
0.289408
31
0.0
0
LINE
8
LEFT
10
0.307356
20
0.289408
30
0.0
11
0.308243
21
0.289085
31
0.0
0
LINE
8
LEFT
10
0.308243
20
0.289085
30
0.0
11
0.309124
21
0.288745
31
0.0
0
LINE
8
LEFT
10
0.309124
20
0.288745
30
0.0
11
0.309997
21
0.288387
31
0.0
0
LINE
8
LEFT
10
0.309997
20
0.288387
30
0.0
11
0.310864
21
0.288012
31
0.0
0
LINE
8
LEFT
10
0.310864
20
0.288012
30
0.0
11
0.311722
21
0.287620
31
0.0
0
LINE
8
LEFT
10
0.311722
20
0.287620
30
0.0
11
0.312573
21
0.287211
31
0.0
0
LINE
8
LEFT
10
0.312573
20
0.287211
30
0.0
11
0.313415
21
0.286785
31
0.0
0
LINE
8
LEFT
10
0.313415
20
0.286785
30
0.0
11
0.314249
21
0.286342
31
0.0
0
LINE
8
LEFT
10
0.314249
20
0.286342
30
0.0
11
0.315074
21
0.285882
31
0.0
0
LINE
8
LEFT
10
0.315074
20
0.285882
30
0.0
11
0.315889
21
0.285407
31
0.0
0
LINE
8
LEFT
10
0.315889
20
0.285407
30
0.0
11
0.316695
21
0.284915
31
0.0
0
LINE
8
LEFT
10
0.316695
20
0.284915
30
0.0
11
0.317491
21
0.284407
31
0.0
0
LINE
8
LEFT
10
0.317491
20
0.284407
30
0.0
11
0.318276
21
0.283883
31
0.0
0
LINE
8
LEFT
10
0.318276
20
0.283883
30
0.0
11
0.319051
21
0.283344
31
0.0
0
LINE
8
LEFT
10
0.319051
20
0.283344
30
0.0
11
0.319815
21
0.282789
31
0.0
0
LINE
8
LEFT
10
0.319815
20
0.282789
30
0.0
11
0.320568
21
0.282220
31
0.0
0
LINE
8
LEFT
10
0.320568
20
0.282220
30
0.0
11
0.321310
21
0.281635
31
0.0
0
LINE
8
LEFT
10
0.321310
20
0.281635
30
0.0
11
0.322039
21
0.281036
31
0.0
0
LINE
8
LEFT
10
0.322039
20
0.281036
30
0.0
11
0.322757
21
0.280423
31
0.0
0
LINE
8
LEFT
10
0.322757
20
0.280423
30
0.0
11
0.323462
21
0.279795
31
0.0
0
LINE
8
LEFT
10
0.323462
20
0.279795
30
0.0
11
0.324154
21
0.279153
31
0.0
0
LINE
8
LEFT
10
0.324154
20
0.279153
30
0.0
11
0.324834
21
0.278498
31
0.0
0
LINE
8
LEFT
10
0.324834
20
0.278498
30
0.0
11
0.325500
21
0.277829
31
0.0
0
LINE
8
LEFT
10
0.325500
20
0.277829
30
0.0
11
0.326153
21
0.277147
31
0.0
0
LINE
8
LEFT
10
0.326153
20
0.277147
30
0.0
11
0.326792
21
0.276452
31
0.0
0
LINE
8
LEFT
10
0.326792
20
0.276452
30
0.0
11
0.327417
21
0.275745
31
0.0
0
LINE
8
LEFT
10
0.327417
20
0.275745
30
0.0
11
0.328028
21
0.275025
31
0.0
0
LINE
8
LEFT
10
0.328028
20
0.275025
30
0.0
11
0.328624
21
0.274293
31
0.0
0
LINE
8
LEFT
10
0.328624
20
0.274293
30
0.0
11
0.329206
21
0.273550
31
0.0
0
LINE
8
LEFT
10
0.329206
20
0.273550
30
0.0
11
0.329773
21
0.272795
31
0.0
0
LINE
8
LEFT
10
0.329773
20
0.272795
30
0.0
11
0.330325
21
0.272029
31
0.0
0
LINE
8
LEFT
10
0.330325
20
0.272029
30
0.0
11
0.330861
21
0.271252
31
0.0
0
LINE
8
LEFT
10
0.330861
20
0.271252
30
0.0
11
0.331382
21
0.270464
31
0.0
0
LINE
8
LEFT
10
0.331382
20
0.270464
30
0.0
11
0.331887
21
0.269667
31
0.0
0
LINE
8
LEFT
10
0.331887
20
0.269667
30
0.0
11
0.332376
21
0.268859
31
0.0
0
LINE
8
LEFT
10
0.332376
20
0.268859
30
0.0
11
0.332848
21
0.268042
31
0.0
0
LINE
8
LEFT
10
0.332848
20
0.268042
30
0.0
11
0.333305
21
0.267215
31
0.0
0
LINE
8
LEFT
10
0.333305
20
0.267215
30
0.0
11
0.333744
21
0.266380
31
0.0
0
LINE
8
LEFT
10
0.333744
20
0.266380
30
0.0
11
0.334168
21
0.265536
31
0.0
0
LINE
8
LEFT
10
0.334168
20
0.265536
30
0.0
11
0.334574
21
0.264684
31
0.0
0
LINE
8
LEFT
10
0.334574
20
0.264684
30
0.0
11
0.334963
21
0.263824
31
0.0
0
LINE
8
LEFT
10
0.334963
20
0.263824
30
0.0
11
0.335335
21
0.262956
31
0.0
0
LINE
8
LEFT
10
0.335335
20
0.262956
30
0.0
11
0.335689
21
0.262081
31
0.0
0
LINE
8
LEFT
10
0.335689
20
0.262081
30
0.0
11
0.336026
21
0.261199
31
0.0
0
LINE
8
LEFT
10
0.336026
20
0.261199
30
0.0
11
0.336345
21
0.260311
31
0.0
0
LINE
8
LEFT
10
0.336345
20
0.260311
30
0.0
11
0.336647
21
0.259416
31
0.0
0
LINE
8
LEFT
10
0.338980
20
0.244733
30
0.0
11
0.338980
21
0.244970
31
0.0
0
LINE
8
LEFT
10
0.338980
20
0.244970
30
0.0
11
0.338978
21
0.245207
31
0.0
0
LINE
8
LEFT
10
0.338978
20
0.245207
30
0.0
11
0.338975
21
0.245444
31
0.0
0
LINE
8
LEFT
10
0.338975
20
0.245444
30
0.0
11
0.338971
21
0.245680
31
0.0
0
LINE
8
LEFT
10
0.338971
20
0.245680
30
0.0
11
0.338965
21
0.245917
31
0.0
0
LINE
8
LEFT
10
0.338965
20
0.245917
30
0.0
11
0.338959
21
0.246154
31
0.0
0
LINE
8
LEFT
10
0.338959
20
0.246154
30
0.0
11
0.338951
21
0.246391
31
0.0
0
LINE
8
LEFT
10
0.338951
20
0.246391
30
0.0
11
0.338942
21
0.246628
31
0.0
0
LINE
8
LEFT
10
0.338942
20
0.246628
30
0.0
11
0.338932
21
0.246865
31
0.0
0
LINE
8
LEFT
10
0.338932
20
0.246865
30
0.0
11
0.338921
21
0.247101
31
0.0
0
LINE
8
LEFT
10
0.338921
20
0.247101
30
0.0
11
0.338909
21
0.247338
31
0.0
0
LINE
8
LEFT
10
0.338909
20
0.247338
30
0.0
11
0.338895
21
0.247575
31
0.0
0
LINE
8
LEFT
10
0.338895
20
0.247575
30
0.0
11
0.338880
21
0.247811
31
0.0
0
LINE
8
LEFT
10
0.338880
20
0.247811
30
0.0
11
0.338864
21
0.248048
31
0.0
0
LINE
8
LEFT
10
0.338864
20
0.248048
30
0.0
11
0.338847
21
0.248284
31
0.0
0
LINE
8
LEFT
10
0.338847
20
0.248284
30
0.0
11
0.338829
21
0.248520
31
0.0
0
LINE
8
LEFT
10
0.338829
20
0.248520
30
0.0
11
0.338809
21
0.248756
31
0.0
0
LINE
8
LEFT
10
0.338809
20
0.248756
30
0.0
11
0.338788
21
0.248992
31
0.0
0
LINE
8
LEFT
10
0.338788
20
0.248992
30
0.0
11
0.338766
21
0.249228
31
0.0
0
LINE
8
LEFT
10
0.338766
20
0.249228
30
0.0
11
0.338743
21
0.249464
31
0.0
0
LINE
8
LEFT
10
0.338743
20
0.249464
30
0.0
11
0.338719
21
0.249700
31
0.0
0
LINE
8
LEFT
10
0.338719
20
0.249700
30
0.0
11
0.338694
21
0.249936
31
0.0
0
LINE
8
LEFT
10
0.338694
20
0.249936
30
0.0
11
0.338667
21
0.250171
31
0.0
0
LINE
8
LEFT
10
0.338667
20
0.250171
30
0.0
11
0.338639
21
0.250406
31
0.0
0
LINE
8
LEFT
10
0.338639
20
0.250406
30
0.0
11
0.338610
21
0.250642
31
0.0
0
LINE
8
LEFT
10
0.338610
20
0.250642
30
0.0
11
0.338580
21
0.250877
31
0.0
0
LINE
8
LEFT
10
0.338580
20
0.250877
30
0.0
11
0.338549
21
0.251112
31
0.0
0
LINE
8
LEFT
10
0.338549
20
0.251112
30
0.0
11
0.338516
21
0.251346
31
0.0
0
LINE
8
LEFT
10
0.338516
20
0.251346
30
0.0
11
0.338483
21
0.251581
31
0.0
0
LINE
8
LEFT
10
0.338483
20
0.251581
30
0.0
11
0.338448
21
0.251815
31
0.0
0
LINE
8
LEFT
10
0.338448
20
0.251815
30
0.0
11
0.338412
21
0.252049
31
0.0
0
LINE
8
LEFT
10
0.338412
20
0.252049
30
0.0
11
0.338375
21
0.252283
31
0.0
0
LINE
8
LEFT
10
0.338375
20
0.252283
30
0.0
11
0.338336
21
0.252517
31
0.0
0
LINE
8
LEFT
10
0.338336
20
0.252517
30
0.0
11
0.338297
21
0.252751
31
0.0
0
LINE
8
LEFT
10
0.338297
20
0.252751
30
0.0
11
0.338256
21
0.252984
31
0.0
0
LINE
8
LEFT
10
0.338256
20
0.252984
30
0.0
11
0.338214
21
0.253218
31
0.0
0
LINE
8
LEFT
10
0.338214
20
0.253218
30
0.0
11
0.338171
21
0.253451
31
0.0
0
LINE
8
LEFT
10
0.338171
20
0.253451
30
0.0
11
0.338127
21
0.253684
31
0.0
0
LINE
8
LEFT
10
0.338127
20
0.253684
30
0.0
11
0.338082
21
0.253916
31
0.0
0
LINE
8
LEFT
10
0.338082
20
0.253916
30
0.0
11
0.338035
21
0.254148
31
0.0
0
LINE
8
LEFT
10
0.338035
20
0.254148
30
0.0
11
0.337987
21
0.254381
31
0.0
0
LINE
8
LEFT
10
0.337987
20
0.254381
30
0.0
11
0.337938
21
0.254613
31
0.0
0
LINE
8
LEFT
10
0.337938
20
0.254613
30
0.0
11
0.337888
21
0.254844
31
0.0
0
LINE
8
LEFT
10
0.337888
20
0.254844
30
0.0
11
0.337837
21
0.255076
31
0.0
0
LINE
8
LEFT
10
0.337837
20
0.255076
30
0.0
11
0.337785
21
0.255307
31
0.0
0
LINE
8
LEFT
10
0.337785
20
0.255307
30
0.0
11
0.337731
21
0.255538
31
0.0
0
LINE
8
LEFT
10
0.337731
20
0.255538
30
0.0
11
0.337677
21
0.255768
31
0.0
0
LINE
8
LEFT
10
0.337677
20
0.255768
30
0.0
11
0.337621
21
0.255998
31
0.0
0
LINE
8
LEFT
10
0.337621
20
0.255998
30
0.0
11
0.337564
21
0.256228
31
0.0
0
LINE
8
LEFT
10
0.337564
20
0.256228
30
0.0
11
0.337506
21
0.256458
31
0.0
0
LINE
8
LEFT
10
0.337506
20
0.256458
30
0.0
11
0.337447
21
0.256688
31
0.0
0
LINE
8
LEFT
10
0.337447
20
0.256688
30
0.0
11
0.337386
21
0.256917
31
0.0
0
LINE
8
LEFT
10
0.337386
20
0.256917
30
0.0
11
0.337325
21
0.257146
31
0.0
0
LINE
8
LEFT
10
0.337325
20
0.257146
30
0.0
11
0.337262
21
0.257374
31
0.0
0
LINE
8
LEFT
10
0.337262
20
0.257374
30
0.0
11
0.337198
21
0.257602
31
0.0
0
LINE
8
LEFT
10
0.337198
20
0.257602
30
0.0
11
0.337133
21
0.257830
31
0.0
0
LINE
8
LEFT
10
0.337133
20
0.257830
30
0.0
11
0.337067
21
0.258058
31
0.0
0
LINE
8
LEFT
10
0.337067
20
0.258058
30
0.0
11
0.337000
21
0.258285
31
0.0
0
LINE
8
LEFT
10
0.337000
20
0.258285
30
0.0
11
0.336932
21
0.258512
31
0.0
0
LINE
8
LEFT
10
0.336932
20
0.258512
30
0.0
11
0.336862
21
0.258739
31
0.0
0
LINE
8
LEFT
10
0.336862
20
0.258739
30
0.0
11
0.336792
21
0.258965
31
0.0
0
LINE
8
LEFT
10
0.336792
20
0.258965
30
0.0
11
0.336720
21
0.259191
31
0.0
0
LINE
8
LEFT
10
0.336720
20
0.259191
30
0.0
11
0.336647
21
0.259416
31
0.0
0
LINE
8
LEFT
10
0.338980
20
0.244733
30
0.0
11
0.339474
21
0.244733
31
0.0
0
LINE
8
LEFT
10
0.244737
20
0.994733
30
0.0
11
0.339474
21
0.994733
31
0.0
0
LINE
8
LEFT
10
0.244739
20
0.244733
30
0.0
11
0.244737
21
0.244733
31
0.0
0
LINE
8
LEFT
10
0.244737
20
0.244733
30
0.0
11
0.244737
21
0.244733
31
0.0
0
LINE
8
LEFT
10
0.260530
20
0.244733
30
0.0
11
0.244739
21
0.244733
31
0.0
0
LINE
8
LEFT
10
0.292105
20
0.244733
30
0.0
11
0.260530
21
0.244733
31
0.0
0
LINE
8
LEFT
10
0.323680
20
0.244733
30
0.0
11
0.292105
21
0.244733
31
0.0
0
LINE
8
LEFT
10
0.338980
20
0.244733
30
0.0
11
0.323680
21
0.244733
31
0.0
0
LINE
8
LEFT
10
0.244739
20
0.251569
30
0.0
11
0.245907
21
0.257174
31
0.0
0
LINE
8
LEFT
10
0.247564
20
0.262154
30
0.0
11
0.247697
21
0.262488
31
0.0
0
LINE
8
LEFT
10
0.247697
20
0.262488
30
0.0
11
0.247833
21
0.262821
31
0.0
0
LINE
8
LEFT
10
0.247833
20
0.262821
30
0.0
11
0.247972
21
0.263153
31
0.0
0
LINE
8
LEFT
10
0.247972
20
0.263153
30
0.0
11
0.248113
21
0.263484
31
0.0
0
LINE
8
LEFT
10
0.248113
20
0.263484
30
0.0
11
0.248257
21
0.263814
31
0.0
0
LINE
8
LEFT
10
0.248257
20
0.263814
30
0.0
11
0.248403
21
0.264143
31
0.0
0
LINE
8
LEFT
10
0.248403
20
0.264143
30
0.0
11
0.248551
21
0.264470
31
0.0
0
LINE
8
LEFT
10
0.248551
20
0.264470
30
0.0
11
0.248703
21
0.264797
31
0.0
0
LINE
8
LEFT
10
0.248703
20
0.264797
30
0.0
11
0.248856
21
0.265122
31
0.0
0
LINE
8
LEFT
10
0.248856
20
0.265122
30
0.0
11
0.249012
21
0.265446
31
0.0
0
LINE
8
LEFT
10
0.249012
20
0.265446
30
0.0
11
0.249171
21
0.265769
31
0.0
0
LINE
8
LEFT
10
0.249171
20
0.265769
30
0.0
11
0.249332
21
0.266091
31
0.0
0
LINE
8
LEFT
10
0.249332
20
0.266091
30
0.0
11
0.249495
21
0.266411
31
0.0
0
LINE
8
LEFT
10
0.249495
20
0.266411
30
0.0
11
0.249661
21
0.266730
31
0.0
0
LINE
8
LEFT
10
0.249661
20
0.266730
30
0.0
11
0.249829
21
0.267048
31
0.0
0
LINE
8
LEFT
10
0.249829
20
0.267048
30
0.0
11
0.250000
21
0.267365
31
0.0
0
LINE
8
LEFT
10
0.250000
20
0.267365
30
0.0
11
0.250173
21
0.267680
31
0.0
0
LINE
8
LEFT
10
0.250173
20
0.267680
30
0.0
11
0.250349
21
0.267994
31
0.0
0
LINE
8
LEFT
10
0.250349
20
0.267994
30
0.0
11
0.250526
21
0.268307
31
0.0
0
LINE
8
LEFT
10
0.250526
20
0.268307
30
0.0
11
0.250707
21
0.268618
31
0.0
0
LINE
8
LEFT
10
0.250707
20
0.268618
30
0.0
11
0.250889
21
0.268928
31
0.0
0
LINE
8
LEFT
10
0.250889
20
0.268928
30
0.0
11
0.251074
21
0.269237
31
0.0
0
LINE
8
LEFT
10
0.251074
20
0.269237
30
0.0
11
0.251261
21
0.269544
31
0.0
0
LINE
8
LEFT
10
0.251261
20
0.269544
30
0.0
11
0.251451
21
0.269850
31
0.0
0
LINE
8
LEFT
10
0.251451
20
0.269850
30
0.0
11
0.251643
21
0.270154
31
0.0
0
LINE
8
LEFT
10
0.251643
20
0.270154
30
0.0
11
0.251837
21
0.270457
31
0.0
0
LINE
8
LEFT
10
0.251837
20
0.270457
30
0.0
11
0.252033
21
0.270758
31
0.0
0
LINE
8
LEFT
10
0.252033
20
0.270758
30
0.0
11
0.252232
21
0.271058
31
0.0
0
LINE
8
LEFT
10
0.252232
20
0.271058
30
0.0
11
0.252433
21
0.271356
31
0.0
0
LINE
8
LEFT
10
0.252433
20
0.271356
30
0.0
11
0.252637
21
0.271653
31
0.0
0
LINE
8
LEFT
10
0.252637
20
0.271653
30
0.0
11
0.252842
21
0.271948
31
0.0
0
LINE
8
LEFT
10
0.252842
20
0.271948
30
0.0
11
0.253050
21
0.272242
31
0.0
0
LINE
8
LEFT
10
0.253050
20
0.272242
30
0.0
11
0.253260
21
0.272534
31
0.0
0
LINE
8
LEFT
10
0.253260
20
0.272534
30
0.0
11
0.253472
21
0.272824
31
0.0
0
LINE
8
LEFT
10
0.253472
20
0.272824
30
0.0
11
0.253687
21
0.273113
31
0.0
0
LINE
8
LEFT
10
0.253687
20
0.273113
30
0.0
11
0.253903
21
0.273400
31
0.0
0
LINE
8
LEFT
10
0.253903
20
0.273400
30
0.0
11
0.254122
21
0.273686
31
0.0
0
LINE
8
LEFT
10
0.254122
20
0.273686
30
0.0
11
0.254343
21
0.273970
31
0.0
0
LINE
8
LEFT
10
0.254343
20
0.273970
30
0.0
11
0.254566
21
0.274252
31
0.0
0
LINE
8
LEFT
10
0.254566
20
0.274252
30
0.0
11
0.254791
21
0.274532
31
0.0
0
LINE
8
LEFT
10
0.254791
20
0.274532
30
0.0
11
0.255019
21
0.274811
31
0.0
0
LINE
8
LEFT
10
0.255019
20
0.274811
30
0.0
11
0.255248
21
0.275088
31
0.0
0
LINE
8
LEFT
10
0.255248
20
0.275088
30
0.0
11
0.255480
21
0.275363
31
0.0
0
LINE
8
LEFT
10
0.255480
20
0.275363
30
0.0
11
0.255713
21
0.275637
31
0.0
0
LINE
8
LEFT
10
0.255713
20
0.275637
30
0.0
11
0.255949
21
0.275909
31
0.0
0
LINE
8
LEFT
10
0.255949
20
0.275909
30
0.0
11
0.256187
21
0.276179
31
0.0
0
LINE
8
LEFT
10
0.256187
20
0.276179
30
0.0
11
0.256427
21
0.276447
31
0.0
0
LINE
8
LEFT
10
0.256427
20
0.276447
30
0.0
11
0.256669
21
0.276713
31
0.0
0
LINE
8
LEFT
10
0.256669
20
0.276713
30
0.0
11
0.256912
21
0.276977
31
0.0
0
LINE
8
LEFT
10
0.256912
20
0.276977
30
0.0
11
0.257158
21
0.277240
31
0.0
0
LINE
8
LEFT
10
0.257158
20
0.277240
30
0.0
11
0.257406
21
0.277501
31
0.0
0
LINE
8
LEFT
10
0.257406
20
0.277501
30
0.0
11
0.257656
21
0.277759
31
0.0
0
LINE
8
LEFT
10
0.257656
20
0.277759
30
0.0
11
0.257908
21
0.278016
31
0.0
0
LINE
8
LEFT
10
0.257908
20
0.278016
30
0.0
11
0.258162
21
0.278271
31
0.0
0
LINE
8
LEFT
10
0.258162
20
0.278271
30
0.0
11
0.258417
21
0.278524
31
0.0
0
LINE
8
LEFT
10
0.258417
20
0.278524
30
0.0
11
0.258675
21
0.278776
31
0.0
0
LINE
8
LEFT
10
0.258675
20
0.278776
30
0.0
11
0.258934
21
0.279025
31
0.0
0
LINE
8
LEFT
10
0.258934
20
0.279025
30
0.0
11
0.259196
21
0.279272
31
0.0
0
LINE
8
LEFT
10
0.259196
20
0.279272
30
0.0
11
0.259459
21
0.279517
31
0.0
0
LINE
8
LEFT
10
0.259459
20
0.279517
30
0.0
11
0.259724
21
0.279760
31
0.0
0
LINE
8
LEFT
10
0.259724
20
0.279760
30
0.0
11
0.259991
21
0.280001
31
0.0
0
LINE
8
LEFT
10
0.259991
20
0.280001
30
0.0
11
0.260260
21
0.280240
31
0.0
0
LINE
8
LEFT
10
0.260260
20
0.280240
30
0.0
11
0.260530
21
0.280478
31
0.0
0
LINE
8
LEFT
10
0.260530
20
0.280478
30
0.0
11
0.260530
21
0.244733
31
0.0
0
LINE
8
LEFT
10
0.260530
20
0.280478
30
0.0
11
0.260720
21
0.280642
31
0.0
0
LINE
8
LEFT
10
0.261459
20
0.281264
30
0.0
11
0.261461
21
0.281266
31
0.0
0
LINE
8
LEFT
10
0.261477
20
0.281279
30
0.0
11
0.264950
21
0.283885
31
0.0
0
LINE
8
LEFT
10
0.268746
20
0.286217
30
0.0
11
0.270352
21
0.287062
31
0.0
0
LINE
8
LEFT
10
0.278331
20
0.290201
30
0.0
11
0.279064
21
0.290409
31
0.0
0
LINE
8
LEFT
10
0.281396
20
0.290986
30
0.0
11
0.281556
21
0.291021
31
0.0
0
LINE
8
LEFT
10
0.281556
20
0.291021
30
0.0
11
0.281716
21
0.291056
31
0.0
0
LINE
8
LEFT
10
0.281716
20
0.291056
30
0.0
11
0.281875
21
0.291090
31
0.0
0
LINE
8
LEFT
10
0.281875
20
0.291090
30
0.0
11
0.282035
21
0.291123
31
0.0
0
LINE
8
LEFT
10
0.282035
20
0.291123
30
0.0
11
0.282196
21
0.291156
31
0.0
0
LINE
8
LEFT
10
0.282196
20
0.291156
30
0.0
11
0.282356
21
0.291188
31
0.0
0
LINE
8
LEFT
10
0.282356
20
0.291188
30
0.0
11
0.282516
21
0.291220
31
0.0
0
LINE
8
LEFT
10
0.282516
20
0.291220
30
0.0
11
0.282677
21
0.291251
31
0.0
0
LINE
8
LEFT
10
0.282677
20
0.291251
30
0.0
11
0.282837
21
0.291281
31
0.0
0
LINE
8
LEFT
10
0.282837
20
0.291281
30
0.0
11
0.282998
21
0.291311
31
0.0
0
LINE
8
LEFT
10
0.282998
20
0.291311
30
0.0
11
0.283159
21
0.291341
31
0.0
0
LINE
8
LEFT
10
0.283159
20
0.291341
30
0.0
11
0.283319
21
0.291370
31
0.0
0
LINE
8
LEFT
10
0.283319
20
0.291370
30
0.0
11
0.283480
21
0.291398
31
0.0
0
LINE
8
LEFT
10
0.283480
20
0.291398
30
0.0
11
0.283641
21
0.291426
31
0.0
0
LINE
8
LEFT
10
0.283641
20
0.291426
30
0.0
11
0.283803
21
0.291453
31
0.0
0
LINE
8
LEFT
10
0.283803
20
0.291453
30
0.0
11
0.283964
21
0.291480
31
0.0
0
LINE
8
LEFT
10
0.283964
20
0.291480
30
0.0
11
0.284125
21
0.291506
31
0.0
0
LINE
8
LEFT
10
0.284125
20
0.291506
30
0.0
11
0.284287
21
0.291531
31
0.0
0
LINE
8
LEFT
10
0.284287
20
0.291531
30
0.0
11
0.284448
21
0.291556
31
0.0
0
LINE
8
LEFT
10
0.284448
20
0.291556
30
0.0
11
0.284610
21
0.291581
31
0.0
0
LINE
8
LEFT
10
0.284610
20
0.291581
30
0.0
11
0.284771
21
0.291605
31
0.0
0
LINE
8
LEFT
10
0.284771
20
0.291605
30
0.0
11
0.284933
21
0.291628
31
0.0
0
LINE
8
LEFT
10
0.284933
20
0.291628
30
0.0
11
0.285095
21
0.291651
31
0.0
0
LINE
8
LEFT
10
0.285095
20
0.291651
30
0.0
11
0.285257
21
0.291673
31
0.0
0
LINE
8
LEFT
10
0.285257
20
0.291673
30
0.0
11
0.285419
21
0.291694
31
0.0
0
LINE
8
LEFT
10
0.285419
20
0.291694
30
0.0
11
0.285581
21
0.291716
31
0.0
0
LINE
8
LEFT
10
0.285581
20
0.291716
30
0.0
11
0.285743
21
0.291736
31
0.0
0
LINE
8
LEFT
10
0.285743
20
0.291736
30
0.0
11
0.285905
21
0.291756
31
0.0
0
LINE
8
LEFT
10
0.285905
20
0.291756
30
0.0
11
0.286068
21
0.291775
31
0.0
0
LINE
8
LEFT
10
0.286068
20
0.291775
30
0.0
11
0.286230
21
0.291794
31
0.0
0
LINE
8
LEFT
10
0.286230
20
0.291794
30
0.0
11
0.286392
21
0.291813
31
0.0
0
LINE
8
LEFT
10
0.286392
20
0.291813
30
0.0
11
0.286555
21
0.291830
31
0.0
0
LINE
8
LEFT
10
0.286555
20
0.291830
30
0.0
11
0.286717
21
0.291848
31
0.0
0
LINE
8
LEFT
10
0.286717
20
0.291848
30
0.0
11
0.286880
21
0.291864
31
0.0
0
LINE
8
LEFT
10
0.286880
20
0.291864
30
0.0
11
0.287043
21
0.291880
31
0.0
0
LINE
8
LEFT
10
0.287043
20
0.291880
30
0.0
11
0.287205
21
0.291896
31
0.0
0
LINE
8
LEFT
10
0.287205
20
0.291896
30
0.0
11
0.287368
21
0.291911
31
0.0
0
LINE
8
LEFT
10
0.287368
20
0.291911
30
0.0
11
0.287531
21
0.291925
31
0.0
0
LINE
8
LEFT
10
0.287531
20
0.291925
30
0.0
11
0.287694
21
0.291939
31
0.0
0
LINE
8
LEFT
10
0.287694
20
0.291939
30
0.0
11
0.287857
21
0.291952
31
0.0
0
LINE
8
LEFT
10
0.287857
20
0.291952
30
0.0
11
0.288020
21
0.291965
31
0.0
0
LINE
8
LEFT
10
0.288020
20
0.291965
30
0.0
11
0.288183
21
0.291977
31
0.0
0
LINE
8
LEFT
10
0.288183
20
0.291977
30
0.0
11
0.288346
21
0.291988
31
0.0
0
LINE
8
LEFT
10
0.288346
20
0.291988
30
0.0
11
0.288509
21
0.291999
31
0.0
0
LINE
8
LEFT
10
0.288509
20
0.291999
30
0.0
11
0.288672
21
0.292010
31
0.0
0
LINE
8
LEFT
10
0.288672
20
0.292010
30
0.0
11
0.288835
21
0.292020
31
0.0
0
LINE
8
LEFT
10
0.288835
20
0.292020
30
0.0
11
0.288998
21
0.292029
31
0.0
0
LINE
8
LEFT
10
0.288998
20
0.292029
30
0.0
11
0.289161
21
0.292038
31
0.0
0
LINE
8
LEFT
10
0.289161
20
0.292038
30
0.0
11
0.289325
21
0.292046
31
0.0
0
LINE
8
LEFT
10
0.289325
20
0.292046
30
0.0
11
0.289488
21
0.292053
31
0.0
0
LINE
8
LEFT
10
0.289488
20
0.292053
30
0.0
11
0.289651
21
0.292060
31
0.0
0
LINE
8
LEFT
10
0.289651
20
0.292060
30
0.0
11
0.289814
21
0.292067
31
0.0
0
LINE
8
LEFT
10
0.289814
20
0.292067
30
0.0
11
0.289978
21
0.292073
31
0.0
0
LINE
8
LEFT
10
0.289978
20
0.292073
30
0.0
11
0.290141
21
0.292078
31
0.0
0
LINE
8
LEFT
10
0.290141
20
0.292078
30
0.0
11
0.290304
21
0.292083
31
0.0
0
LINE
8
LEFT
10
0.290304
20
0.292083
30
0.0
11
0.290468
21
0.292087
31
0.0
0
LINE
8
LEFT
10
0.290468
20
0.292087
30
0.0
11
0.290631
21
0.292091
31
0.0
0
LINE
8
LEFT
10
0.290631
20
0.292091
30
0.0
11
0.290795
21
0.292094
31
0.0
0
LINE
8
LEFT
10
0.290795
20
0.292094
30
0.0
11
0.290958
21
0.292097
31
0.0
0
LINE
8
LEFT
10
0.290958
20
0.292097
30
0.0
11
0.291122
21
0.292099
31
0.0
0
LINE
8
LEFT
10
0.291122
20
0.292099
30
0.0
11
0.291285
21
0.292100
31
0.0
0
LINE
8
LEFT
10
0.291285
20
0.292100
30
0.0
11
0.291448
21
0.292101
31
0.0
0
LINE
8
LEFT
10
0.291448
20
0.292101
30
0.0
11
0.291612
21
0.292101
31
0.0
0
LINE
8
LEFT
10
0.311465
20
0.287740
30
0.0
11
0.313138
21
0.286927
31
0.0
0
LINE
8
LEFT
10
0.337923
20
0.254683
30
0.0
11
0.337957
21
0.254527
31
0.0
0
LINE
8
LEFT
10
0.337957
20
0.254527
30
0.0
11
0.337989
21
0.254371
31
0.0
0
LINE
8
LEFT
10
0.337989
20
0.254371
30
0.0
11
0.338021
21
0.254215
31
0.0
0
LINE
8
LEFT
10
0.338021
20
0.254215
30
0.0
11
0.338053
21
0.254060
31
0.0
0
LINE
8
LEFT
10
0.338053
20
0.254060
30
0.0
11
0.338084
21
0.253903
31
0.0
0
LINE
8
LEFT
10
0.338084
20
0.253903
30
0.0
11
0.338115
21
0.253747
31
0.0
0
LINE
8
LEFT
10
0.338115
20
0.253747
30
0.0
11
0.338145
21
0.253591
31
0.0
0
LINE
8
LEFT
10
0.338145
20
0.253591
30
0.0
11
0.338174
21
0.253435
31
0.0
0
LINE
8
LEFT
10
0.338174
20
0.253435
30
0.0
11
0.338203
21
0.253278
31
0.0
0
LINE
8
LEFT
10
0.338203
20
0.253278
30
0.0
11
0.338231
21
0.253122
31
0.0
0
LINE
8
LEFT
10
0.338231
20
0.253122
30
0.0
11
0.338259
21
0.252965
31
0.0
0
LINE
8
LEFT
10
0.338259
20
0.252965
30
0.0
11
0.338287
21
0.252808
31
0.0
0
LINE
8
LEFT
10
0.338287
20
0.252808
30
0.0
11
0.338314
21
0.252651
31
0.0
0
LINE
8
LEFT
10
0.338314
20
0.252651
30
0.0
11
0.338340
21
0.252494
31
0.0
0
LINE
8
LEFT
10
0.338340
20
0.252494
30
0.0
11
0.338366
21
0.252337
31
0.0
0
LINE
8
LEFT
10
0.338366
20
0.252337
30
0.0
11
0.338391
21
0.252180
31
0.0
0
LINE
8
LEFT
10
0.338391
20
0.252180
30
0.0
11
0.338416
21
0.252023
31
0.0
0
LINE
8
LEFT
10
0.338416
20
0.252023
30
0.0
11
0.338440
21
0.251866
31
0.0
0
LINE
8
LEFT
10
0.338440
20
0.251866
30
0.0
11
0.338464
21
0.251709
31
0.0
0
LINE
8
LEFT
10
0.338464
20
0.251709
30
0.0
11
0.338487
21
0.251551
31
0.0
0
LINE
8
LEFT
10
0.338487
20
0.251551
30
0.0
11
0.338510
21
0.251394
31
0.0
0
LINE
8
LEFT
10
0.338510
20
0.251394
30
0.0
11
0.338532
21
0.251236
31
0.0
0
LINE
8
LEFT
10
0.338532
20
0.251236
30
0.0
11
0.338553
21
0.251078
31
0.0
0
LINE
8
LEFT
10
0.338553
20
0.251078
30
0.0
11
0.338574
21
0.250921
31
0.0
0
LINE
8
LEFT
10
0.338574
20
0.250921
30
0.0
11
0.338595
21
0.250763
31
0.0
0
LINE
8
LEFT
10
0.338595
20
0.250763
30
0.0
11
0.338615
21
0.250605
31
0.0
0
LINE
8
LEFT
10
0.338615
20
0.250605
30
0.0
11
0.338634
21
0.250447
31
0.0
0
LINE
8
LEFT
10
0.338634
20
0.250447
30
0.0
11
0.338653
21
0.250289
31
0.0
0
LINE
8
LEFT
10
0.338653
20
0.250289
30
0.0
11
0.338672
21
0.250131
31
0.0
0
LINE
8
LEFT
10
0.338672
20
0.250131
30
0.0
11
0.338690
21
0.249973
31
0.0
0
LINE
8
LEFT
10
0.338690
20
0.249973
30
0.0
11
0.338707
21
0.249815
31
0.0
0
LINE
8
LEFT
10
0.338707
20
0.249815
30
0.0
11
0.338724
21
0.249657
31
0.0
0
LINE
8
LEFT
10
0.338724
20
0.249657
30
0.0
11
0.338740
21
0.249498
31
0.0
0
LINE
8
LEFT
10
0.338740
20
0.249498
30
0.0
11
0.338756
21
0.249340
31
0.0
0
LINE
8
LEFT
10
0.338756
20
0.249340
30
0.0
11
0.338771
21
0.249181
31
0.0
0
LINE
8
LEFT
10
0.338771
20
0.249181
30
0.0
11
0.338786
21
0.249023
31
0.0
0
LINE
8
LEFT
10
0.338786
20
0.249023
30
0.0
11
0.338800
21
0.248865
31
0.0
0
LINE
8
LEFT
10
0.338800
20
0.248865
30
0.0
11
0.338813
21
0.248706
31
0.0
0
LINE
8
LEFT
10
0.338813
20
0.248706
30
0.0
11
0.338826
21
0.248547
31
0.0
0
LINE
8
LEFT
10
0.338826
20
0.248547
30
0.0
11
0.338839
21
0.248389
31
0.0
0
LINE
8
LEFT
10
0.338839
20
0.248389
30
0.0
11
0.338851
21
0.248230
31
0.0
0
LINE
8
LEFT
10
0.338851
20
0.248230
30
0.0
11
0.338862
21
0.248071
31
0.0
0
LINE
8
LEFT
10
0.338862
20
0.248071
30
0.0
11
0.338873
21
0.247913
31
0.0
0
LINE
8
LEFT
10
0.338873
20
0.247913
30
0.0
11
0.338884
21
0.247754
31
0.0
0
LINE
8
LEFT
10
0.338884
20
0.247754
30
0.0
11
0.338894
21
0.247595
31
0.0
0
LINE
8
LEFT
10
0.338894
20
0.247595
30
0.0
11
0.338903
21
0.247436
31
0.0
0
LINE
8
LEFT
10
0.338903
20
0.247436
30
0.0
11
0.338912
21
0.247277
31
0.0
0
LINE
8
LEFT
10
0.338912
20
0.247277
30
0.0
11
0.338920
21
0.247118
31
0.0
0
LINE
8
LEFT
10
0.338920
20
0.247118
30
0.0
11
0.338928
21
0.246960
31
0.0
0
LINE
8
LEFT
10
0.338928
20
0.246960
30
0.0
11
0.338935
21
0.246801
31
0.0
0
LINE
8
LEFT
10
0.338935
20
0.246801
30
0.0
11
0.338942
21
0.246642
31
0.0
0
LINE
8
LEFT
10
0.338942
20
0.246642
30
0.0
11
0.338948
21
0.246483
31
0.0
0
LINE
8
LEFT
10
0.338948
20
0.246483
30
0.0
11
0.338954
21
0.246324
31
0.0
0
LINE
8
LEFT
10
0.338954
20
0.246324
30
0.0
11
0.338959
21
0.246165
31
0.0
0
LINE
8
LEFT
10
0.338959
20
0.246165
30
0.0
11
0.338963
21
0.246005
31
0.0
0
LINE
8
LEFT
10
0.338963
20
0.246005
30
0.0
11
0.338967
21
0.245846
31
0.0
0
LINE
8
LEFT
10
0.338967
20
0.245846
30
0.0
11
0.338971
21
0.245687
31
0.0
0
LINE
8
LEFT
10
0.338971
20
0.245687
30
0.0
11
0.338974
21
0.245528
31
0.0
0
LINE
8
LEFT
10
0.338974
20
0.245528
30
0.0
11
0.338976
21
0.245369
31
0.0
0
LINE
8
LEFT
10
0.338976
20
0.245369
30
0.0
11
0.338978
21
0.245210
31
0.0
0
LINE
8
LEFT
10
0.338978
20
0.245210
30
0.0
11
0.338979
21
0.245051
31
0.0
0
LINE
8
LEFT
10
0.338979
20
0.245051
30
0.0
11
0.338980
21
0.244892
31
0.0
0
LINE
8
LEFT
10
0.338980
20
0.244892
30
0.0
11
0.338980
21
0.244733
31
0.0
0
LINE
8
LEFT
10
0.321713
20
0.281307
30
0.0
11
0.322111
21
0.280976
31
0.0
0
LINE
8
LEFT
10
0.323529
20
0.279733
30
0.0
11
0.323680
21
0.279595
31
0.0
0
LINE
8
LEFT
10
0.323680
20
0.279595
30
0.0
11
0.323680
21
0.244733
31
0.0
0
LINE
8
LEFT
10
0.244737
20
0.994733
30
0.0
11
0.244737
21
0.244733
31
0.0
0
LINE
8
LEFT
10
0.339474
20
0.994733
30
0.0
11
0.339474
21
0.244733
31
0.0
0
LINE
8
LEFT_HID
6
HIDDEN
10
0.339474
20
0.244733
30
0.0
11
0.292105
21
0.244733
31
0.0
0
LINE
8
LEFT_HID
6
HIDDEN
10
0.292105
20
0.994733
30
0.0
11
0.244737
21
0.994733
31
0.0
0
LINE
8
LEFT_HID
6
HIDDEN
10
0.339474
20
0.994733
30
0.0
11
0.292105
21
0.994733
31
0.0
0
LINE
8
LEFT_HID
6
HIDDEN
10
0.292105
20
0.244733
30
0.0
11
0.244739
21
0.244733
31
0.0
0
LINE
8
LEFT_HID
6
HIDDEN
10
0.260530
20
0.244733
30
0.0
11
0.260526
21
0.244733
31
0.0
0
LINE
8
LEFT_HID
6
HIDDEN
10
0.260526
20
0.244733
30
0.0
11
0.260526
21
0.244733
31
0.0
0
LINE
8
LEFT_HID
6
HIDDEN
10
0.323680
20
0.244733
30
0.0
11
0.323684
21
0.244733
31
0.0
0
LINE
8
LEFT_HID
6
HIDDEN
10
0.323684
20
0.244733
30
0.0
11
0.323684
21
0.244733
31
0.0
0
LINE
8
LEFT_HID
6
HIDDEN
10
0.245907
20
0.257174
30
0.0
11
0.247564
21
0.262154
31
0.0
0
LINE
8
LEFT_HID
6
HIDDEN
10
0.260720
20
0.280642
30
0.0
11
0.261459
21
0.281264
31
0.0
0
LINE
8
LEFT_HID
6
HIDDEN
10
0.261461
20
0.281266
30
0.0
11
0.261477
21
0.281279
31
0.0
0
LINE
8
LEFT_HID
6
HIDDEN
10
0.264950
20
0.283885
30
0.0
11
0.268746
21
0.286217
31
0.0
0
LINE
8
LEFT_HID
6
HIDDEN
10
0.270352
20
0.287062
30
0.0
11
0.270474
21
0.287123
31
0.0
0
LINE
8
LEFT_HID
6
HIDDEN
10
0.270474
20
0.287123
30
0.0
11
0.270596
21
0.287184
31
0.0
0
LINE
8
LEFT_HID
6
HIDDEN
10
0.270596
20
0.287184
30
0.0
11
0.270718
21
0.287244
31
0.0
0
LINE
8
LEFT_HID
6
HIDDEN
10
0.270718
20
0.287244
30
0.0
11
0.270841
21
0.287304
31
0.0
0
LINE
8
LEFT_HID
6
HIDDEN
10
0.270841
20
0.287304
30
0.0
11
0.270963
21
0.287364
31
0.0
0
LINE
8
LEFT_HID
6
HIDDEN
10
0.270963
20
0.287364
30
0.0
11
0.271086
21
0.287423
31
0.0
0
LINE
8
LEFT_HID
6
HIDDEN
10
0.271086
20
0.287423
30
0.0
11
0.271209
21
0.287482
31
0.0
0
LINE
8
LEFT_HID
6
HIDDEN
10
0.271209
20
0.287482
30
0.0
11
0.271332
21
0.287540
31
0.0
0
LINE
8
LEFT_HID
6
HIDDEN
10
0.271332
20
0.287540
30
0.0
11
0.271455
21
0.287598
31
0.0
0
LINE
8
LEFT_HID
6
HIDDEN
10
0.271455
20
0.287598
30
0.0
11
0.271578
21
0.287656
31
0.0
0
LINE
8
LEFT_HID
6
HIDDEN
10
0.271578
20
0.287656
30
0.0
11
0.271702
21
0.287714
31
0.0
0
LINE
8
LEFT_HID
6
HIDDEN
10
0.271702
20
0.287714
30
0.0
11
0.271826
21
0.287771
31
0.0
0
LINE
8
LEFT_HID
6
HIDDEN
10
0.271826
20
0.287771
30
0.0
11
0.271950
21
0.287827
31
0.0
0
LINE
8
LEFT_HID
6
HIDDEN
10
0.271950
20
0.287827
30
0.0
11
0.272074
21
0.287884
31
0.0
0
LINE
8
LEFT_HID
6
HIDDEN
10
0.272074
20
0.287884
30
0.0
11
0.272198
21
0.287940
31
0.0
0
LINE
8
LEFT_HID
6
HIDDEN
10
0.272198
20
0.287940
30
0.0
11
0.272322
21
0.287996
31
0.0
0
LINE
8
LEFT_HID
6
HIDDEN
10
0.272322
20
0.287996
30
0.0
11
0.272447
21
0.288051
31
0.0
0
LINE
8
LEFT_HID
6
HIDDEN
10
0.272447
20
0.288051
30
0.0
11
0.272572
21
0.288106
31
0.0
0
LINE
8
LEFT_HID
6
HIDDEN
10
0.272572
20
0.288106
30
0.0
11
0.272697
21
0.288160
31
0.0
0
LINE
8
LEFT_HID
6
HIDDEN
10
0.272697
20
0.288160
30
0.0
11
0.272822
21
0.288215
31
0.0
0
LINE
8
LEFT_HID
6
HIDDEN
10
0.272822
20
0.288215
30
0.0
11
0.272947
21
0.288269
31
0.0
0
LINE
8
LEFT_HID
6
HIDDEN
10
0.272947
20
0.288269
30
0.0
11
0.273072
21
0.288322
31
0.0
0
LINE
8
LEFT_HID
6
HIDDEN
10
0.273072
20
0.288322
30
0.0
11
0.273198
21
0.288375
31
0.0
0
LINE
8
LEFT_HID
6
HIDDEN
10
0.273198
20
0.288375
30
0.0
11
0.273323
21
0.288428
31
0.0
0
LINE
8
LEFT_HID
6
HIDDEN
10
0.273323
20
0.288428
30
0.0
11
0.273449
21
0.288481
31
0.0
0
LINE
8
LEFT_HID
6
HIDDEN
10
0.273449
20
0.288481
30
0.0
11
0.273575
21
0.288533
31
0.0
0
LINE
8
LEFT_HID
6
HIDDEN
10
0.273575
20
0.288533
30
0.0
11
0.273701
21
0.288584
31
0.0
0
LINE
8
LEFT_HID
6
HIDDEN
10
0.273701
20
0.288584
30
0.0
11
0.273827
21
0.288636
31
0.0
0
LINE
8
LEFT_HID
6
HIDDEN
10
0.273827
20
0.288636
30
0.0
11
0.273954
21
0.288687
31
0.0
0
LINE
8
LEFT_HID
6
HIDDEN
10
0.273954
20
0.288687
30
0.0
11
0.274080
21
0.288737
31
0.0
0
LINE
8
LEFT_HID
6
HIDDEN
10
0.274080
20
0.288737
30
0.0
11
0.274207
21
0.288788
31
0.0
0
LINE
8
LEFT_HID
6
HIDDEN
10
0.274207
20
0.288788
30
0.0
11
0.274334
21
0.288837
31
0.0
0
LINE
8
LEFT_HID
6
HIDDEN
10
0.274334
20
0.288837
30
0.0
11
0.274461
21
0.288887
31
0.0
0
LINE
8
LEFT_HID
6
HIDDEN
10
0.274461
20
0.288887
30
0.0
11
0.274588
21
0.288936
31
0.0
0
LINE
8
LEFT_HID
6
HIDDEN
10
0.274588
20
0.288936
30
0.0
11
0.274715
21
0.288985
31
0.0
0
LINE
8
LEFT_HID
6
HIDDEN
10
0.274715
20
0.288985
30
0.0
11
0.274842
21
0.289033
31
0.0
0
LINE
8
LEFT_HID
6
HIDDEN
10
0.274842
20
0.289033
30
0.0
11
0.274970
21
0.289081
31
0.0
0
LINE
8
LEFT_HID
6
HIDDEN
10
0.274970
20
0.289081
30
0.0
11
0.275098
21
0.289129
31
0.0
0
LINE
8
LEFT_HID
6
HIDDEN
10
0.275098
20
0.289129
30
0.0
11
0.275225
21
0.289176
31
0.0
0
LINE
8
LEFT_HID
6
HIDDEN
10
0.275225
20
0.289176
30
0.0
11
0.275353
21
0.289223
31
0.0
0
LINE
8
LEFT_HID
6
HIDDEN
10
0.275353
20
0.289223
30
0.0
11
0.275481
21
0.289270
31
0.0
0
LINE
8
LEFT_HID
6
HIDDEN
10
0.275481
20
0.289270
30
0.0
11
0.275610
21
0.289316
31
0.0
0
LINE
8
LEFT_HID
6
HIDDEN
10
0.275610
20
0.289316
30
0.0
11
0.275738
21
0.289362
31
0.0
0
LINE
8
LEFT_HID
6
HIDDEN
10
0.275738
20
0.289362
30
0.0
11
0.275866
21
0.289408
31
0.0
0
LINE
8
LEFT_HID
6
HIDDEN
10
0.275866
20
0.289408
30
0.0
11
0.275995
21
0.289453
31
0.0
0
LINE
8
LEFT_HID
6
HIDDEN
10
0.275995
20
0.289453
30
0.0
11
0.276124
21
0.289497
31
0.0
0
LINE
8
LEFT_HID
6
HIDDEN
10
0.276124
20
0.289497
30
0.0
11
0.276253
21
0.289542
31
0.0
0
LINE
8
LEFT_HID
6
HIDDEN
10
0.276253
20
0.289542
30
0.0
11
0.276382
21
0.289586
31
0.0
0
LINE
8
LEFT_HID
6
HIDDEN
10
0.276382
20
0.289586
30
0.0
11
0.276511
21
0.289629
31
0.0
0
LINE
8
LEFT_HID
6
HIDDEN
10
0.276511
20
0.289629
30
0.0
11
0.276640
21
0.289673
31
0.0
0
LINE
8
LEFT_HID
6
HIDDEN
10
0.276640
20
0.289673
30
0.0
11
0.276769
21
0.289716
31
0.0
0
LINE
8
LEFT_HID
6
HIDDEN
10
0.276769
20
0.289716
30
0.0
11
0.276899
21
0.289758
31
0.0
0
LINE
8
LEFT_HID
6
HIDDEN
10
0.276899
20
0.289758
30
0.0
11
0.277028
21
0.289800
31
0.0
0
LINE
8
LEFT_HID
6
HIDDEN
10
0.277028
20
0.289800
30
0.0
11
0.277158
21
0.289842
31
0.0
0
LINE
8
LEFT_HID
6
HIDDEN
10
0.277158
20
0.289842
30
0.0
11
0.277288
21
0.289883
31
0.0
0
LINE
8
LEFT_HID
6
HIDDEN
10
0.277288
20
0.289883
30
0.0
11
0.277418
21
0.289924
31
0.0
0
LINE
8
LEFT_HID
6
HIDDEN
10
0.277418
20
0.289924
30
0.0
11
0.277548
21
0.289965
31
0.0
0
LINE
8
LEFT_HID
6
HIDDEN
10
0.277548
20
0.289965
30
0.0
11
0.277678
21
0.290005
31
0.0
0
LINE
8
LEFT_HID
6
HIDDEN
10
0.277678
20
0.290005
30
0.0
11
0.277808
21
0.290045
31
0.0
0
LINE
8
LEFT_HID
6
HIDDEN
10
0.277808
20
0.290045
30
0.0
11
0.277939
21
0.290085
31
0.0
0
LINE
8
LEFT_HID
6
HIDDEN
10
0.277939
20
0.290085
30
0.0
11
0.278069
21
0.290124
31
0.0
0
LINE
8
LEFT_HID
6
HIDDEN
10
0.278069
20
0.290124
30
0.0
11
0.278200
21
0.290163
31
0.0
0
LINE
8
LEFT_HID
6
HIDDEN
10
0.278200
20
0.290163
30
0.0
11
0.278331
21
0.290201
31
0.0
0
LINE
8
LEFT_HID
6
HIDDEN
10
0.279064
20
0.290409
30
0.0
11
0.281396
21
0.290986
31
0.0
0
LINE
8
LEFT_HID
6
HIDDEN
10
0.291612
20
0.292101
30
0.0
11
0.291937
21
0.292100
31
0.0
0
LINE
8
LEFT_HID
6
HIDDEN
10
0.291937
20
0.292100
30
0.0
11
0.292262
21
0.292097
31
0.0
0
LINE
8
LEFT_HID
6
HIDDEN
10
0.292262
20
0.292097
30
0.0
11
0.292587
21
0.292091
31
0.0
0
LINE
8
LEFT_HID
6
HIDDEN
10
0.292587
20
0.292091
30
0.0
11
0.292912
21
0.292083
31
0.0
0
LINE
8
LEFT_HID
6
HIDDEN
10
0.292912
20
0.292083
30
0.0
11
0.293237
21
0.292073
31
0.0
0
LINE
8
LEFT_HID
6
HIDDEN
10
0.293237
20
0.292073
30
0.0
11
0.293562
21
0.292061
31
0.0
0
LINE
8
LEFT_HID
6
HIDDEN
10
0.293562
20
0.292061
30
0.0
11
0.293887
21
0.292046
31
0.0
0
LINE
8
LEFT_HID
6
HIDDEN
10
0.293887
20
0.292046
30
0.0
11
0.294212
21
0.292030
31
0.0
0
LINE
8
LEFT_HID
6
HIDDEN
10
0.294212
20
0.292030
30
0.0
11
0.294536
21
0.292011
31
0.0
0
LINE
8
LEFT_HID
6
HIDDEN
10
0.294536
20
0.292011
30
0.0
11
0.294861
21
0.291989
31
0.0
0
LINE
8
LEFT_HID
6
HIDDEN
10
0.294861
20
0.291989
30
0.0
11
0.295185
21
0.291966
31
0.0
0
LINE
8
LEFT_HID
6
HIDDEN
10
0.295185
20
0.291966
30
0.0
11
0.295509
21
0.291940
31
0.0
0
LINE
8
LEFT_HID
6
HIDDEN
10
0.295509
20
0.291940
30
0.0
11
0.295833
21
0.291913
31
0.0
0
LINE
8
LEFT_HID
6
HIDDEN
10
0.295833
20
0.291913
30
0.0
11
0.296157
21
0.291882
31
0.0
0
LINE
8
LEFT_HID
6
HIDDEN
10
0.296157
20
0.291882
30
0.0
11
0.296481
21
0.291850
31
0.0
0
LINE
8
LEFT_HID
6
HIDDEN
10
0.296481
20
0.291850
30
0.0
11
0.296804
21
0.291816
31
0.0
0
LINE
8
LEFT_HID
6
HIDDEN
10
0.296804
20
0.291816
30
0.0
11
0.297127
21
0.291779
31
0.0
0
LINE
8
LEFT_HID
6
HIDDEN
10
0.297127
20
0.291779
30
0.0
11
0.297450
21
0.291740
31
0.0
0
LINE
8
LEFT_HID
6
HIDDEN
10
0.297450
20
0.291740
30
0.0
11
0.297773
21
0.291699
31
0.0
0
LINE
8
LEFT_HID
6
HIDDEN
10
0.297773
20
0.291699
30
0.0
11
0.298095
21
0.291655
31
0.0
0
LINE
8
LEFT_HID
6
HIDDEN
10
0.298095
20
0.291655
30
0.0
11
0.298417
21
0.291610
31
0.0
0
LINE
8
LEFT_HID
6
HIDDEN
10
0.298417
20
0.291610
30
0.0
11
0.298738
21
0.291562
31
0.0
0
LINE
8
LEFT_HID
6
HIDDEN
10
0.298738
20
0.291562
30
0.0
11
0.299060
21
0.291512
31
0.0
0
LINE
8
LEFT_HID
6
HIDDEN
10
0.299060
20
0.291512
30
0.0
11
0.299381
21
0.291460
31
0.0
0
LINE
8
LEFT_HID
6
HIDDEN
10
0.299381
20
0.291460
30
0.0
11
0.299701
21
0.291405
31
0.0
0
LINE
8
LEFT_HID
6
HIDDEN
10
0.299701
20
0.291405
30
0.0
11
0.300021
21
0.291349
31
0.0
0
LINE
8
LEFT_HID
6
HIDDEN
10
0.300021
20
0.291349
30
0.0
11
0.300341
21
0.291290
31
0.0
0
LINE
8
LEFT_HID
6
HIDDEN
10
0.300341
20
0.291290
30
0.0
11
0.300661
21
0.291229
31
0.0
0
LINE
8
LEFT_HID
6
HIDDEN
10
0.300661
20
0.291229
30
0.0
11
0.300980
21
0.291166
31
0.0
0
LINE
8
LEFT_HID
6
HIDDEN
10
0.300980
20
0.291166
30
0.0
11
0.301298
21
0.291100
31
0.0
0
LINE
8
LEFT_HID
6
HIDDEN
10
0.301298
20
0.291100
30
0.0
11
0.301616
21
0.291033
31
0.0
0
LINE
8
LEFT_HID
6
HIDDEN
10
0.301616
20
0.291033
30
0.0
11
0.301934
21
0.290963
31
0.0
0
LINE
8
LEFT_HID
6
HIDDEN
10
0.301934
20
0.290963
30
0.0
11
0.302251
21
0.290891
31
0.0
0
LINE
8
LEFT_HID
6
HIDDEN
10
0.302251
20
0.290891
30
0.0
11
0.302567
21
0.290817
31
0.0
0
LINE
8
LEFT_HID
6
HIDDEN
10
0.302567
20
0.290817
30
0.0
11
0.302884
21
0.290740
31
0.0
0
LINE
8
LEFT_HID
6
HIDDEN
10
0.302884
20
0.290740
30
0.0
11
0.303199
21
0.290662
31
0.0
0
LINE
8
LEFT_HID
6
HIDDEN
10
0.303199
20
0.290662
30
0.0
11
0.303514
21
0.290581
31
0.0
0
LINE
8
LEFT_HID
6
HIDDEN
10
0.303514
20
0.290581
30
0.0
11
0.303829
21
0.290499
31
0.0
0
LINE
8
LEFT_HID
6
HIDDEN
10
0.303829
20
0.290499
30
0.0
11
0.304142
21
0.290414
31
0.0
0
LINE
8
LEFT_HID
6
HIDDEN
10
0.304142
20
0.290414
30
0.0
11
0.304456
21
0.290327
31
0.0
0
LINE
8
LEFT_HID
6
HIDDEN
10
0.304456
20
0.290327
30
0.0
11
0.304768
21
0.290237
31
0.0
0
LINE
8
LEFT_HID
6
HIDDEN
10
0.304768
20
0.290237
30
0.0
11
0.305080
21
0.290146
31
0.0
0
LINE
8
LEFT_HID
6
HIDDEN
10
0.305080
20
0.290146
30
0.0
11
0.305392
21
0.290052
31
0.0
0
LINE
8
LEFT_HID
6
HIDDEN
10
0.305392
20
0.290052
30
0.0
11
0.305703
21
0.289957
31
0.0
0
LINE
8
LEFT_HID
6
HIDDEN
10
0.305703
20
0.289957
30
0.0
11
0.306013
21
0.289859
31
0.0
0
LINE
8
LEFT_HID
6
HIDDEN
10
0.306013
20
0.289859
30
0.0
11
0.306322
21
0.289759
31
0.0
0
LINE
8
LEFT_HID
6
HIDDEN
10
0.306322
20
0.289759
30
0.0
11
0.306631
21
0.289657
31
0.0
0
LINE
8
LEFT_HID
6
HIDDEN
10
0.306631
20
0.289657
30
0.0
11
0.306939
21
0.289553
31
0.0
0
LINE
8
LEFT_HID
6
HIDDEN
10
0.306939
20
0.289553
30
0.0
11
0.307246
21
0.289447
31
0.0
0
LINE
8
LEFT_HID
6
HIDDEN
10
0.307246
20
0.289447
30
0.0
11
0.307553
21
0.289338
31
0.0
0
LINE
8
LEFT_HID
6
HIDDEN
10
0.307553
20
0.289338
30
0.0
11
0.307859
21
0.289228
31
0.0
0
LINE
8
LEFT_HID
6
HIDDEN
10
0.307859
20
0.289228
30
0.0
11
0.308164
21
0.289115
31
0.0
0
LINE
8
LEFT_HID
6
HIDDEN
10
0.308164
20
0.289115
30
0.0
11
0.308468
21
0.289000
31
0.0
0
LINE
8
LEFT_HID
6
HIDDEN
10
0.308468
20
0.289000
30
0.0
11
0.308772
21
0.288884
31
0.0
0
LINE
8
LEFT_HID
6
HIDDEN
10
0.308772
20
0.288884
30
0.0
11
0.309074
21
0.288765
31
0.0
0
LINE
8
LEFT_HID
6
HIDDEN
10
0.309074
20
0.288765
30
0.0
11
0.309376
21
0.288644
31
0.0
0
LINE
8
LEFT_HID
6
HIDDEN
10
0.309376
20
0.288644
30
0.0
11
0.309677
21
0.288521
31
0.0
0
LINE
8
LEFT_HID
6
HIDDEN
10
0.309677
20
0.288521
30
0.0
11
0.309977
21
0.288396
31
0.0
0
LINE
8
LEFT_HID
6
HIDDEN
10
0.309977
20
0.288396
30
0.0
11
0.310277
21
0.288269
31
0.0
0
LINE
8
LEFT_HID
6
HIDDEN
10
0.310277
20
0.288269
30
0.0
11
0.310575
21
0.288140
31
0.0
0
LINE
8
LEFT_HID
6
HIDDEN
10
0.310575
20
0.288140
30
0.0
11
0.310872
21
0.288008
31
0.0
0
LINE
8
LEFT_HID
6
HIDDEN
10
0.310872
20
0.288008
30
0.0
11
0.311169
21
0.287875
31
0.0
0
LINE
8
LEFT_HID
6
HIDDEN
10
0.311169
20
0.287875
30
0.0
11
0.311465
21
0.287740
31
0.0
0
LINE
8
LEFT_HID
6
HIDDEN
10
0.313138
20
0.286927
30
0.0
11
0.319261
21
0.283194
31
0.0
0
LINE
8
LEFT_HID
6
HIDDEN
10
0.323680
20
0.279595
30
0.0
11
0.324019
21
0.279280
31
0.0
0
LINE
8
LEFT_HID
6
HIDDEN
10
0.324019
20
0.279280
30
0.0
11
0.324355
21
0.278962
31
0.0
0
LINE
8
LEFT_HID
6
HIDDEN
10
0.324355
20
0.278962
30
0.0
11
0.324688
21
0.278640
31
0.0
0
LINE
8
LEFT_HID
6
HIDDEN
10
0.324688
20
0.278640
30
0.0
11
0.325018
21
0.278315
31
0.0
0
LINE
8
LEFT_HID
6
HIDDEN
10
0.325018
20
0.278315
30
0.0
11
0.325344
21
0.277987
31
0.0
0
LINE
8
LEFT_HID
6
HIDDEN
10
0.325344
20
0.277987
30
0.0
11
0.325668
21
0.277656
31
0.0
0
LINE
8
LEFT_HID
6
HIDDEN
10
0.325668
20
0.277656
30
0.0
11
0.325988
21
0.277322
31
0.0
0
LINE
8
LEFT_HID
6
HIDDEN
10
0.325988
20
0.277322
30
0.0
11
0.326304
21
0.276985
31
0.0
0
LINE
8
LEFT_HID
6
HIDDEN
10
0.326304
20
0.276985
30
0.0
11
0.326618
21
0.276644
31
0.0
0
LINE
8
LEFT_HID
6
HIDDEN
10
0.326618
20
0.276644
30
0.0
11
0.326928
21
0.276301
31
0.0
0
LINE
8
LEFT_HID
6
HIDDEN
10
0.326928
20
0.276301
30
0.0
11
0.327235
21
0.275954
31
0.0
0
LINE
8
LEFT_HID
6
HIDDEN
10
0.327235
20
0.275954
30
0.0
11
0.327538
21
0.275605
31
0.0
0
LINE
8
LEFT_HID
6
HIDDEN
10
0.327538
20
0.275605
30
0.0
11
0.327838
21
0.275252
31
0.0
0
LINE
8
LEFT_HID
6
HIDDEN
10
0.327838
20
0.275252
30
0.0
11
0.328134
21
0.274897
31
0.0
0
LINE
8
LEFT_HID
6
HIDDEN
10
0.328134
20
0.274897
30
0.0
11
0.328427
21
0.274539
31
0.0
0
LINE
8
LEFT_HID
6
HIDDEN
10
0.328427
20
0.274539
30
0.0
11
0.328717
21
0.274178
31
0.0
0
LINE
8
LEFT_HID
6
HIDDEN
10
0.328717
20
0.274178
30
0.0
11
0.329003
21
0.273814
31
0.0
0
LINE
8
LEFT_HID
6
HIDDEN
10
0.329003
20
0.273814
30
0.0
11
0.329285
21
0.273447
31
0.0
0
LINE
8
LEFT_HID
6
HIDDEN
10
0.329285
20
0.273447
30
0.0
11
0.329564
21
0.273078
31
0.0
0
LINE
8
LEFT_HID
6
HIDDEN
10
0.329564
20
0.273078
30
0.0
11
0.329839
21
0.272705
31
0.0
0
LINE
8
LEFT_HID
6
HIDDEN
10
0.329839
20
0.272705
30
0.0
11
0.330110
21
0.272331
31
0.0
0
LINE
8
LEFT_HID
6
HIDDEN
10
0.330110
20
0.272331
30
0.0
11
0.330378
21
0.271953
31
0.0
0
LINE
8
LEFT_HID
6
HIDDEN
10
0.330378
20
0.271953
30
0.0
11
0.330642
21
0.271573
31
0.0
0
LINE
8
LEFT_HID
6
HIDDEN
10
0.330642
20
0.271573
30
0.0
11
0.330902
21
0.271191
31
0.0
0
LINE
8
LEFT_HID
6
HIDDEN
10
0.330902
20
0.271191
30
0.0
11
0.331159
21
0.270806
31
0.0
0
LINE
8
LEFT_HID
6
HIDDEN
10
0.331159
20
0.270806
30
0.0
11
0.331412
21
0.270418
31
0.0
0
LINE
8
LEFT_HID
6
HIDDEN
10
0.331412
20
0.270418
30
0.0
11
0.331661
21
0.270028
31
0.0
0
LINE
8
LEFT_HID
6
HIDDEN
10
0.331661
20
0.270028
30
0.0
11
0.331906
21
0.269635
31
0.0
0
LINE
8
LEFT_HID
6
HIDDEN
10
0.331906
20
0.269635
30
0.0
11
0.332147
21
0.269241
31
0.0
0
LINE
8
LEFT_HID
6
HIDDEN
10
0.332147
20
0.269241
30
0.0
11
0.332385
21
0.268843
31
0.0
0
LINE
8
LEFT_HID
6
HIDDEN
10
0.332385
20
0.268843
30
0.0
11
0.332618
21
0.268444
31
0.0
0
LINE
8
LEFT_HID
6
HIDDEN
10
0.332618
20
0.268444
30
0.0
11
0.332848
21
0.268042
31
0.0
0
LINE
8
LEFT_HID
6
HIDDEN
10
0.332848
20
0.268042
30
0.0
11
0.333074
21
0.267638
31
0.0
0
LINE
8
LEFT_HID
6
HIDDEN
10
0.333074
20
0.267638
30
0.0
11
0.333296
21
0.267232
31
0.0
0
LINE
8
LEFT_HID
6
HIDDEN
10
0.333296
20
0.267232
30
0.0
11
0.333514
21
0.266824
31
0.0
0
LINE
8
LEFT_HID
6
HIDDEN
10
0.333514
20
0.266824
30
0.0
11
0.333727
21
0.266413
31
0.0
0
LINE
8
LEFT_HID
6
HIDDEN
10
0.333727
20
0.266413
30
0.0
11
0.333937
21
0.266001
31
0.0
0
LINE
8
LEFT_HID
6
HIDDEN
10
0.333937
20
0.266001
30
0.0
11
0.334143
21
0.265586
31
0.0
0
LINE
8
LEFT_HID
6
HIDDEN
10
0.334143
20
0.265586
30
0.0
11
0.334345
21
0.265170
31
0.0
0
LINE
8
LEFT_HID
6
HIDDEN
10
0.334345
20
0.265170
30
0.0
11
0.334542
21
0.264751
31
0.0
0
LINE
8
LEFT_HID
6
HIDDEN
10
0.334542
20
0.264751
30
0.0
11
0.334736
21
0.264331
31
0.0
0
LINE
8
LEFT_HID
6
HIDDEN
10
0.334736
20
0.264331
30
0.0
11
0.334925
21
0.263909
31
0.0
0
LINE
8
LEFT_HID
6
HIDDEN
10
0.334925
20
0.263909
30
0.0
11
0.335110
21
0.263485
31
0.0
0
LINE
8
LEFT_HID
6
HIDDEN
10
0.335110
20
0.263485
30
0.0
11
0.335292
21
0.263059
31
0.0
0
LINE
8
LEFT_HID
6
HIDDEN
10
0.335292
20
0.263059
30
0.0
11
0.335468
21
0.262631
31
0.0
0
LINE
8
LEFT_HID
6
HIDDEN
10
0.335468
20
0.262631
30
0.0
11
0.335641
21
0.262202
31
0.0
0
LINE
8
LEFT_HID
6
HIDDEN
10
0.335641
20
0.262202
30
0.0
11
0.335810
21
0.261771
31
0.0
0
LINE
8
LEFT_HID
6
HIDDEN
10
0.335810
20
0.261771
30
0.0
11
0.335974
21
0.261338
31
0.0
0
LINE
8
LEFT_HID
6
HIDDEN
10
0.335974
20
0.261338
30
0.0
11
0.336134
21
0.260904
31
0.0
0
LINE
8
LEFT_HID
6
HIDDEN
10
0.336134
20
0.260904
30
0.0
11
0.336290
21
0.260469
31
0.0
0
LINE
8
LEFT_HID
6
HIDDEN
10
0.336290
20
0.260469
30
0.0
11
0.336442
21
0.260031
31
0.0
0
LINE
8
LEFT_HID
6
HIDDEN
10
0.336442
20
0.260031
30
0.0
11
0.336589
21
0.259593
31
0.0
0
LINE
8
LEFT_HID
6
HIDDEN
10
0.336589
20
0.259593
30
0.0
11
0.336732
21
0.259152
31
0.0
0
LINE
8
LEFT_HID
6
HIDDEN
10
0.336732
20
0.259152
30
0.0
11
0.336871
21
0.258711
31
0.0
0
LINE
8
LEFT_HID
6
HIDDEN
10
0.336871
20
0.258711
30
0.0
11
0.337005
21
0.258268
31
0.0
0
LINE
8
LEFT_HID
6
HIDDEN
10
0.337005
20
0.258268
30
0.0
11
0.337135
21
0.257824
31
0.0
0
LINE
8
LEFT_HID
6
HIDDEN
10
0.337135
20
0.257824
30
0.0
11
0.337261
21
0.257379
31
0.0
0
LINE
8
LEFT_HID
6
HIDDEN
10
0.337261
20
0.257379
30
0.0
11
0.337382
21
0.256932
31
0.0
0
LINE
8
LEFT_HID
6
HIDDEN
10
0.337382
20
0.256932
30
0.0
11
0.337499
21
0.256484
31
0.0
0
LINE
8
LEFT_HID
6
HIDDEN
10
0.337499
20
0.256484
30
0.0
11
0.337612
21
0.256036
31
0.0
0
LINE
8
LEFT_HID
6
HIDDEN
10
0.337612
20
0.256036
30
0.0
11
0.337720
21
0.255586
31
0.0
0
LINE
8
LEFT_HID
6
HIDDEN
10
0.337720
20
0.255586
30
0.0
11
0.337824
21
0.255135
31
0.0
0
LINE
8
LEFT_HID
6
HIDDEN
10
0.337824
20
0.255135
30
0.0
11
0.337923
21
0.254683
31
0.0
0
LINE
8
LEFT_HID
6
HIDDEN
10
0.319261
20
0.283194
30
0.0
11
0.321713
21
0.281307
31
0.0
0
LINE
8
LEFT_HID
6
HIDDEN
10
0.322111
20
0.280976
30
0.0
11
0.323529
21
0.279733
31
0.0
0
LINE
8
LEFT_HID
6
HIDDEN
10
0.292105
20
0.994733
30
0.0
11
0.260526
21
0.994733
31
0.0
0
LINE
8
LEFT_HID
6
HIDDEN
10
0.260526
20
0.994733
30
0.0
11
0.323684
21
0.994733
31
0.0
0
LINE
8
LEFT_HID
6
HIDDEN
10
0.323684
20
0.994733
30
0.0
11
0.292105
21
0.994733
31
0.0
0
LINE
8
LEFT_HID
6
HIDDEN
10
0.260526
20
0.994733
30
0.0
11
0.260526
21
0.244733
31
0.0
0
LINE
8
LEFT_HID
6
HIDDEN
10
0.323684
20
0.994733
30
0.0
11
0.323684
21
0.244733
31
0.0
0
LINE
8
TOP
10
0.040547
20
0.000492
30
0.0
11
0.040396
21
0.000514
31
0.0
0
LINE
8
TOP
10
0.040396
20
0.000514
30
0.0
11
0.040246
21
0.000537
31
0.0
0
LINE
8
TOP
10
0.040246
20
0.000537
30
0.0
11
0.040095
21
0.000560
31
0.0
0
LINE
8
TOP
10
0.040095
20
0.000560
30
0.0
11
0.039944
21
0.000583
31
0.0
0
LINE
8
TOP
10
0.039944
20
0.000583
30
0.0
11
0.039794
21
0.000608
31
0.0
0
LINE
8
TOP
10
0.039794
20
0.000608
30
0.0
11
0.039643
21
0.000632
31
0.0
0
LINE
8
TOP
10
0.039643
20
0.000632
30
0.0
11
0.039493
21
0.000657
31
0.0
0
LINE
8
TOP
10
0.039493
20
0.000657
30
0.0
11
0.039343
21
0.000683
31
0.0
0
LINE
8
TOP
10
0.039343
20
0.000683
30
0.0
11
0.039193
21
0.000709
31
0.0
0
LINE
8
TOP
10
0.039193
20
0.000709
30
0.0
11
0.039042
21
0.000735
31
0.0
0
LINE
8
TOP
10
0.039042
20
0.000735
30
0.0
11
0.038892
21
0.000763
31
0.0
0
LINE
8
TOP
10
0.038892
20
0.000763
30
0.0
11
0.038742
21
0.000790
31
0.0
0
LINE
8
TOP
10
0.038742
20
0.000790
30
0.0
11
0.038593
21
0.000818
31
0.0
0
LINE
8
TOP
10
0.038593
20
0.000818
30
0.0
11
0.038443
21
0.000846
31
0.0
0
LINE
8
TOP
10
0.038443
20
0.000846
30
0.0
11
0.038293
21
0.000875
31
0.0
0
LINE
8
TOP
10
0.038293
20
0.000875
30
0.0
11
0.038144
21
0.000905
31
0.0
0
LINE
8
TOP
10
0.038144
20
0.000905
30
0.0
11
0.037994
21
0.000935
31
0.0
0
LINE
8
TOP
10
0.037994
20
0.000935
30
0.0
11
0.037845
21
0.000965
31
0.0
0
LINE
8
TOP
10
0.037845
20
0.000965
30
0.0
11
0.037695
21
0.000996
31
0.0
0
LINE
8
TOP
10
0.037695
20
0.000996
30
0.0
11
0.037546
21
0.001027
31
0.0
0
LINE
8
TOP
10
0.037546
20
0.001027
30
0.0
11
0.037397
21
0.001059
31
0.0
0
LINE
8
TOP
10
0.037397
20
0.001059
30
0.0
11
0.037248
21
0.001092
31
0.0
0
LINE
8
TOP
10
0.037248
20
0.001092
30
0.0
11
0.037099
21
0.001124
31
0.0
0
LINE
8
TOP
10
0.037099
20
0.001124
30
0.0
11
0.036951
21
0.001158
31
0.0
0
LINE
8
TOP
10
0.036951
20
0.001158
30
0.0
11
0.036802
21
0.001191
31
0.0
0
LINE
8
TOP
10
0.036802
20
0.001191
30
0.0
11
0.036653
21
0.001226
31
0.0
0
LINE
8
TOP
10
0.036653
20
0.001226
30
0.0
11
0.036505
21
0.001260
31
0.0
0
LINE
8
TOP
10
0.036505
20
0.001260
30
0.0
11
0.036357
21
0.001296
31
0.0
0
LINE
8
TOP
10
0.036357
20
0.001296
30
0.0
11
0.036208
21
0.001331
31
0.0
0
LINE
8
TOP
10
0.036208
20
0.001331
30
0.0
11
0.036060
21
0.001367
31
0.0
0
LINE
8
TOP
10
0.036060
20
0.001367
30
0.0
11
0.035912
21
0.001404
31
0.0
0
LINE
8
TOP
10
0.035912
20
0.001404
30
0.0
11
0.035765
21
0.001441
31
0.0
0
LINE
8
TOP
10
0.035765
20
0.001441
30
0.0
11
0.035617
21
0.001479
31
0.0
0
LINE
8
TOP
10
0.035617
20
0.001479
30
0.0
11
0.035469
21
0.001517
31
0.0
0
LINE
8
TOP
10
0.035469
20
0.001517
30
0.0
11
0.035322
21
0.001555
31
0.0
0
LINE
8
TOP
10
0.035322
20
0.001555
30
0.0
11
0.035174
21
0.001594
31
0.0
0
LINE
8
TOP
10
0.035174
20
0.001594
30
0.0
11
0.035027
21
0.001634
31
0.0
0
LINE
8
TOP
10
0.035027
20
0.001634
30
0.0
11
0.034880
21
0.001674
31
0.0
0
LINE
8
TOP
10
0.034880
20
0.001674
30
0.0
11
0.034733
21
0.001714
31
0.0
0
LINE
8
TOP
10
0.034733
20
0.001714
30
0.0
11
0.034586
21
0.001755
31
0.0
0
LINE
8
TOP
10
0.034586
20
0.001755
30
0.0
11
0.034439
21
0.001796
31
0.0
0
LINE
8
TOP
10
0.034439
20
0.001796
30
0.0
11
0.034293
21
0.001838
31
0.0
0
LINE
8
TOP
10
0.034293
20
0.001838
30
0.0
11
0.034146
21
0.001881
31
0.0
0
LINE
8
TOP
10
0.034146
20
0.001881
30
0.0
11
0.034000
21
0.001923
31
0.0
0
LINE
8
TOP
10
0.034000
20
0.001923
30
0.0
11
0.033854
21
0.001967
31
0.0
0
LINE
8
TOP
10
0.033854
20
0.001967
30
0.0
11
0.033708
21
0.002010
31
0.0
0
LINE
8
TOP
10
0.033708
20
0.002010
30
0.0
11
0.033562
21
0.002055
31
0.0
0
LINE
8
TOP
10
0.033562
20
0.002055
30
0.0
11
0.033416
21
0.002099
31
0.0
0
LINE
8
TOP
10
0.033416
20
0.002099
30
0.0
11
0.033271
21
0.002144
31
0.0
0
LINE
8
TOP
10
0.033271
20
0.002144
30
0.0
11
0.033125
21
0.002190
31
0.0
0
LINE
8
TOP
10
0.033125
20
0.002190
30
0.0
11
0.032980
21
0.002236
31
0.0
0
LINE
8
TOP
10
0.032980
20
0.002236
30
0.0
11
0.032835
21
0.002282
31
0.0
0
LINE
8
TOP
10
0.032835
20
0.002282
30
0.0
11
0.032690
21
0.002329
31
0.0
0
LINE
8
TOP
10
0.032690
20
0.002329
30
0.0
11
0.032545
21
0.002377
31
0.0
0
LINE
8
TOP
10
0.032545
20
0.002377
30
0.0
11
0.032400
21
0.002425
31
0.0
0
LINE
8
TOP
10
0.032400
20
0.002425
30
0.0
11
0.032255
21
0.002473
31
0.0
0
LINE
8
TOP
10
0.032255
20
0.002473
30
0.0
11
0.032111
21
0.002522
31
0.0
0
LINE
8
TOP
10
0.032111
20
0.002522
30
0.0
11
0.031967
21
0.002571
31
0.0
0
LINE
8
TOP
10
0.031967
20
0.002571
30
0.0
11
0.031823
21
0.002621
31
0.0
0
LINE
8
TOP
10
0.031823
20
0.002621
30
0.0
11
0.031679
21
0.002672
31
0.0
0
LINE
8
TOP
10
0.031679
20
0.002672
30
0.0
11
0.031535
21
0.002722
31
0.0
0
LINE
8
TOP
10
0.031535
20
0.002722
30
0.0
11
0.031391
21
0.002773
31
0.0
0
LINE
8
TOP
10
0.031391
20
0.002773
30
0.0
11
0.031248
21
0.002825
31
0.0
0
LINE
8
TOP
10
0.094735
20
0.047367
30
0.0
11
0.094499
21
0.052083
31
0.0
0
LINE
8
TOP
10
0.094499
20
0.052083
30
0.0
11
0.093796
21
0.056753
31
0.0
0
LINE
8
TOP
10
0.093796
20
0.056753
30
0.0
11
0.092630
21
0.061329
31
0.0
0
LINE
8
TOP
10
0.092630
20
0.061329
30
0.0
11
0.091015
21
0.065766
31
0.0
0
LINE
8
TOP
10
0.091015
20
0.065766
30
0.0
11
0.088966
21
0.070021
31
0.0
0
LINE
8
TOP
10
0.088966
20
0.070021
30
0.0
11
0.086504
21
0.074050
31
0.0
0
LINE
8
TOP
10
0.086504
20
0.074050
30
0.0
11
0.083653
21
0.077815
31
0.0
0
LINE
8
TOP
10
0.083653
20
0.077815
30
0.0
11
0.080441
21
0.081276
31
0.0
0
LINE
8
TOP
10
0.080441
20
0.081276
30
0.0
11
0.076900
21
0.084401
31
0.0
0
LINE
8
TOP
10
0.076900
20
0.084401
30
0.0
11
0.073066
21
0.087157
31
0.0
0
LINE
8
TOP
10
0.073066
20
0.087157
30
0.0
11
0.068976
21
0.089519
31
0.0
0
LINE
8
TOP
10
0.068976
20
0.089519
30
0.0
11
0.064672
21
0.091461
31
0.0
0
LINE
8
TOP
10
0.064672
20
0.091461
30
0.0
11
0.060196
21
0.092965
31
0.0
0
LINE
8
TOP
10
0.060196
20
0.092965
30
0.0
11
0.055592
21
0.094016
31
0.0
0
LINE
8
TOP
10
0.055592
20
0.094016
30
0.0
11
0.050906
21
0.094603
31
0.0
0
LINE
8
TOP
10
0.050906
20
0.094603
30
0.0
11
0.046186
21
0.094720
31
0.0
0
LINE
8
TOP
10
0.046186
20
0.094720
30
0.0
11
0.041476
21
0.094368
31
0.0
0
LINE
8
TOP
10
0.041476
20
0.094368
30
0.0
11
0.036826
21
0.093548
31
0.0
0
LINE
8
TOP
10
0.036826
20
0.093548
30
0.0
11
0.032280
21
0.092269
31
0.0
0
LINE
8
TOP
10
0.032280
20
0.092269
30
0.0
11
0.027884
21
0.090543
31
0.0
0
LINE
8
TOP
10
0.027884
20
0.090543
30
0.0
11
0.023682
21
0.088389
31
0.0
0
LINE
8
TOP
10
0.023682
20
0.088389
30
0.0
11
0.019715
21
0.085827
31
0.0
0
LINE
8
TOP
10
0.019715
20
0.085827
30
0.0
11
0.016023
21
0.082883
31
0.0
0
LINE
8
TOP
10
0.016023
20
0.082883
30
0.0
11
0.012643
21
0.079585
31
0.0
0
LINE
8
TOP
10
0.012643
20
0.079585
30
0.0
11
0.009608
21
0.075968
31
0.0
0
LINE
8
TOP
10
0.009608
20
0.075968
30
0.0
11
0.006947
21
0.072066
31
0.0
0
LINE
8
TOP
10
0.006947
20
0.072066
30
0.0
11
0.004689
21
0.067919
31
0.0
0
LINE
8
TOP
10
0.004689
20
0.067919
30
0.0
11
0.002855
21
0.063568
31
0.0
0
LINE
8
TOP
10
0.002855
20
0.063568
30
0.0
11
0.001463
21
0.059055
31
0.0
0
LINE
8
TOP
10
0.001463
20
0.059055
30
0.0
11
0.000527
21
0.054427
31
0.0
0
LINE
8
TOP
10
0.000527
20
0.054427
30
0.0
11
0.000057
21
0.049728
31
0.0
0
LINE
8
TOP
10
0.000057
20
0.049728
30
0.0
11
0.000057
21
0.045006
31
0.0
0
LINE
8
TOP
10
0.000057
20
0.045006
30
0.0
11
0.000527
21
0.040307
31
0.0
0
LINE
8
TOP
10
0.000527
20
0.040307
30
0.0
11
0.001463
21
0.035678
31
0.0
0
LINE
8
TOP
10
0.001463
20
0.035678
30
0.0
11
0.002855
21
0.031166
31
0.0
0
LINE
8
TOP
10
0.002855
20
0.031166
30
0.0
11
0.004689
21
0.026814
31
0.0
0
LINE
8
TOP
10
0.004689
20
0.026814
30
0.0
11
0.006947
21
0.022667
31
0.0
0
LINE
8
TOP
10
0.006947
20
0.022667
30
0.0
11
0.009608
21
0.018766
31
0.0
0
LINE
8
TOP
10
0.009608
20
0.018766
30
0.0
11
0.012643
21
0.015148
31
0.0
0
LINE
8
TOP
10
0.012643
20
0.015148
30
0.0
11
0.016023
21
0.011851
31
0.0
0
LINE
8
TOP
10
0.016023
20
0.011851
30
0.0
11
0.019715
21
0.008907
31
0.0
0
LINE
8
TOP
10
0.019715
20
0.008907
30
0.0
11
0.023682
21
0.006345
31
0.0
0
LINE
8
TOP
10
0.023682
20
0.006345
30
0.0
11
0.027884
21
0.004190
31
0.0
0
LINE
8
TOP
10
0.027884
20
0.004190
30
0.0
11
0.032280
21
0.002465
31
0.0
0
LINE
8
TOP
10
0.032280
20
0.002465
30
0.0
11
0.036826
21
0.001186
31
0.0
0
LINE
8
TOP
10
0.036826
20
0.001186
30
0.0
11
0.041476
21
0.000366
31
0.0
0
LINE
8
TOP
10
0.041476
20
0.000366
30
0.0
11
0.046186
21
0.000013
31
0.0
0
LINE
8
TOP
10
0.046186
20
0.000013
30
0.0
11
0.050906
21
0.000131
31
0.0
0
LINE
8
TOP
10
0.050906
20
0.000131
30
0.0
11
0.055592
21
0.000718
31
0.0
0
LINE
8
TOP
10
0.055592
20
0.000718
30
0.0
11
0.060196
21
0.001769
31
0.0
0
LINE
8
TOP
10
0.060196
20
0.001769
30
0.0
11
0.064672
21
0.003273
31
0.0
0
LINE
8
TOP
10
0.064672
20
0.003273
30
0.0
11
0.068976
21
0.005215
31
0.0
0
LINE
8
TOP
10
0.068976
20
0.005215
30
0.0
11
0.073066
21
0.007576
31
0.0
0
LINE
8
TOP
10
0.073066
20
0.007576
30
0.0
11
0.076900
21
0.010333
31
0.0
0
LINE
8
TOP
10
0.076900
20
0.010333
30
0.0
11
0.080441
21
0.013457
31
0.0
0
LINE
8
TOP
10
0.080441
20
0.013457
30
0.0
11
0.083653
21
0.016919
31
0.0
0
LINE
8
TOP
10
0.083653
20
0.016919
30
0.0
11
0.086504
21
0.020683
31
0.0
0
LINE
8
TOP
10
0.086504
20
0.020683
30
0.0
11
0.088966
21
0.024713
31
0.0
0
LINE
8
TOP
10
0.088966
20
0.024713
30
0.0
11
0.091015
21
0.028967
31
0.0
0
LINE
8
TOP
10
0.091015
20
0.028967
30
0.0
11
0.092630
21
0.033405
31
0.0
0
LINE
8
TOP
10
0.092630
20
0.033405
30
0.0
11
0.093796
21
0.037981
31
0.0
0
LINE
8
TOP
10
0.093796
20
0.037981
30
0.0
11
0.094499
21
0.042650
31
0.0
0
LINE
8
TOP
10
0.094499
20
0.042650
30
0.0
11
0.094735
21
0.047367
31
0.0
0
LINE
8
TOP
10
0.078945
20
0.047367
30
0.0
11
0.078788
21
0.050511
31
0.0
0
LINE
8
TOP
10
0.078788
20
0.050511
30
0.0
11
0.078319
21
0.053624
31
0.0
0
LINE
8
TOP
10
0.078319
20
0.053624
30
0.0
11
0.077542
21
0.056675
31
0.0
0
LINE
8
TOP
10
0.077542
20
0.056675
30
0.0
11
0.076466
21
0.059633
31
0.0
0
LINE
8
TOP
10
0.076466
20
0.059633
30
0.0
11
0.075100
21
0.062470
31
0.0
0
LINE
8
TOP
10
0.075100
20
0.062470
30
0.0
11
0.073458
21
0.065156
31
0.0
0
LINE
8
TOP
10
0.073458
20
0.065156
30
0.0
11
0.071557
21
0.067665
31
0.0
0
LINE
8
TOP
10
0.071557
20
0.067665
30
0.0
11
0.069416
21
0.069973
31
0.0
0
LINE
8
TOP
10
0.069416
20
0.069973
30
0.0
11
0.067056
21
0.072056
31
0.0
0
LINE
8
TOP
10
0.067056
20
0.072056
30
0.0
11
0.064499
21
0.073894
31
0.0
0
LINE
8
TOP
10
0.064499
20
0.073894
30
0.0
11
0.061773
21
0.075468
31
0.0
0
LINE
8
TOP
10
0.061773
20
0.075468
30
0.0
11
0.058904
21
0.076763
31
0.0
0
LINE
8
TOP
10
0.058904
20
0.076763
30
0.0
11
0.055919
21
0.077765
31
0.0
0
LINE
8
TOP
10
0.055919
20
0.077765
30
0.0
11
0.052850
21
0.078466
31
0.0
0
LINE
8
TOP
10
0.052850
20
0.078466
30
0.0
11
0.049726
21
0.078857
31
0.0
0
LINE
8
TOP
10
0.049726
20
0.078857
30
0.0
11
0.046579
21
0.078936
31
0.0
0
LINE
8
TOP
10
0.046579
20
0.078936
30
0.0
11
0.043440
21
0.078701
31
0.0
0
LINE
8
TOP
10
0.043440
20
0.078701
30
0.0
11
0.040339
21
0.078154
31
0.0
0
LINE
8
TOP
10
0.040339
20
0.078154
30
0.0
11
0.037309
21
0.077301
31
0.0
0
LINE
8
TOP
10
0.037309
20
0.077301
30
0.0
11
0.034378
21
0.076151
31
0.0
0
LINE
8
TOP
10
0.034378
20
0.076151
30
0.0
11
0.031577
21
0.074715
31
0.0
0
LINE
8
TOP
10
0.031577
20
0.074715
30
0.0
11
0.028932
21
0.073007
31
0.0
0
LINE
8
TOP
10
0.028932
20
0.073007
30
0.0
11
0.026471
21
0.071044
31
0.0
0
LINE
8
TOP
10
0.026471
20
0.071044
30
0.0
11
0.024217
21
0.068846
31
0.0
0
LINE
8
TOP
10
0.024217
20
0.068846
30
0.0
11
0.022194
21
0.066434
31
0.0
0
LINE
8
TOP
10
0.022194
20
0.066434
30
0.0
11
0.020420
21
0.063833
31
0.0
0
LINE
8
TOP
10
0.020420
20
0.063833
30
0.0
11
0.018915
21
0.061068
31
0.0
0
LINE
8
TOP
10
0.018915
20
0.061068
30
0.0
11
0.017692
21
0.058167
31
0.0
0
LINE
8
TOP
10
0.017692
20
0.058167
30
0.0
11
0.016764
21
0.055159
31
0.0
0
LINE
8
TOP
10
0.016764
20
0.055159
30
0.0
11
0.016140
21
0.052073
31
0.0
0
LINE
8
TOP
10
0.016140
20
0.052073
30
0.0
11
0.015827
21
0.048941
31
0.0
0
LINE
8
TOP
10
0.015827
20
0.048941
30
0.0
11
0.015827
21
0.045793
31
0.0
0
LINE
8
TOP
10
0.015827
20
0.045793
30
0.0
11
0.016140
21
0.042660
31
0.0
0
LINE
8
TOP
10
0.016140
20
0.042660
30
0.0
11
0.016764
21
0.039574
31
0.0
0
LINE
8
TOP
10
0.016764
20
0.039574
30
0.0
11
0.017692
21
0.036566
31
0.0
0
LINE
8
TOP
10
0.017692
20
0.036566
30
0.0
11
0.018915
21
0.033665
31
0.0
0
LINE
8
TOP
10
0.018915
20
0.033665
30
0.0
11
0.020420
21
0.030900
31
0.0
0
LINE
8
TOP
10
0.020420
20
0.030900
30
0.0
11
0.022194
21
0.028299
31
0.0
0
LINE
8
TOP
10
0.022194
20
0.028299
30
0.0
11
0.024217
21
0.025888
31
0.0
0
LINE
8
TOP
10
0.024217
20
0.025888
30
0.0
11
0.026471
21
0.023689
31
0.0
0
LINE
8
TOP
10
0.026471
20
0.023689
30
0.0
11
0.028932
21
0.021727
31
0.0
0
LINE
8
TOP
10
0.028932
20
0.021727
30
0.0
11
0.031577
21
0.020019
31
0.0
0
LINE
8
TOP
10
0.031577
20
0.020019
30
0.0
11
0.034378
21
0.018582
31
0.0
0
LINE
8
TOP
10
0.034378
20
0.018582
30
0.0
11
0.037309
21
0.017432
31
0.0
0
LINE
8
TOP
10
0.037309
20
0.017432
30
0.0
11
0.040339
21
0.016580
31
0.0
0
LINE
8
TOP
10
0.040339
20
0.016580
30
0.0
11
0.043440
21
0.016033
31
0.0
0
LINE
8
TOP
10
0.043440
20
0.016033
30
0.0
11
0.046579
21
0.015798
31
0.0
0
LINE
8
TOP
10
0.046579
20
0.015798
30
0.0
11
0.049726
21
0.015876
31
0.0
0
LINE
8
TOP
10
0.049726
20
0.015876
30
0.0
11
0.052850
21
0.016268
31
0.0
0
LINE
8
TOP
10
0.052850
20
0.016268
30
0.0
11
0.055919
21
0.016968
31
0.0
0
LINE
8
TOP
10
0.055919
20
0.016968
30
0.0
11
0.058904
21
0.017971
31
0.0
0
LINE
8
TOP
10
0.058904
20
0.017971
30
0.0
11
0.061773
21
0.019266
31
0.0
0
LINE
8
TOP
10
0.061773
20
0.019266
30
0.0
11
0.064499
21
0.020840
31
0.0
0
LINE
8
TOP
10
0.064499
20
0.020840
30
0.0
11
0.067056
21
0.022677
31
0.0
0
LINE
8
TOP
10
0.067056
20
0.022677
30
0.0
11
0.069416
21
0.024760
31
0.0
0
LINE
8
TOP
10
0.069416
20
0.024760
30
0.0
11
0.071557
21
0.027068
31
0.0
0
LINE
8
TOP
10
0.071557
20
0.027068
30
0.0
11
0.073458
21
0.029578
31
0.0
0
LINE
8
TOP
10
0.073458
20
0.029578
30
0.0
11
0.075100
21
0.032264
31
0.0
0
LINE
8
TOP
10
0.075100
20
0.032264
30
0.0
11
0.076466
21
0.035100
31
0.0
0
LINE
8
TOP
10
0.076466
20
0.035100
30
0.0
11
0.077542
21
0.038059
31
0.0
0
LINE
8
TOP
10
0.077542
20
0.038059
30
0.0
11
0.078319
21
0.041110
31
0.0
0
LINE
8
TOP
10
0.078319
20
0.041110
30
0.0
11
0.078788
21
0.044223
31
0.0
0
LINE
8
TOP
10
0.078788
20
0.044223
30
0.0
11
0.078945
21
0.047367
31
0.0
0
LINE
8
TOP_HID
6
HIDDEN
10
0.046873
20
0.094733
30
0.0
11
0.046620
21
0.094729
31
0.0
0
LINE
8
TOP_HID
6
HIDDEN
10
0.046620
20
0.094729
30
0.0
11
0.046367
21
0.094725
31
0.0
0
LINE
8
TOP_HID
6
HIDDEN
10
0.046367
20
0.094725
30
0.0
11
0.046113
21
0.094719
31
0.0
0
LINE
8
TOP_HID
6
HIDDEN
10
0.046113
20
0.094719
30
0.0
11
0.045860
21
0.094711
31
0.0
0
LINE
8
TOP_HID
6
HIDDEN
10
0.045860
20
0.094711
30
0.0
11
0.045607
21
0.094703
31
0.0
0
LINE
8
TOP_HID
6
HIDDEN
10
0.045607
20
0.094703
30
0.0
11
0.045354
21
0.094692
31
0.0
0
LINE
8
TOP_HID
6
HIDDEN
10
0.045354
20
0.094692
30
0.0
11
0.045101
21
0.094681
31
0.0
0
LINE
8
TOP_HID
6
HIDDEN
10
0.045101
20
0.094681
30
0.0
11
0.044848
21
0.094668
31
0.0
0
LINE
8
TOP_HID
6
HIDDEN
10
0.044848
20
0.094668
30
0.0
11
0.044596
21
0.094654
31
0.0
0
LINE
8
TOP_HID
6
HIDDEN
10
0.044596
20
0.094654
30
0.0
11
0.044343
21
0.094639
31
0.0
0
LINE
8
TOP_HID
6
HIDDEN
10
0.044343
20
0.094639
30
0.0
11
0.044090
21
0.094622
31
0.0
0
LINE
8
TOP_HID
6
HIDDEN
10
0.044090
20
0.094622
30
0.0
11
0.043838
21
0.094604
31
0.0
0
LINE
8
TOP_HID
6
HIDDEN
10
0.043838
20
0.094604
30
0.0
11
0.043585
21
0.094584
31
0.0
0
LINE
8
TOP_HID
6
HIDDEN
10
0.043585
20
0.094584
30
0.0
11
0.043333
21
0.094563
31
0.0
0
LINE
8
TOP_HID
6
HIDDEN
10
0.043333
20
0.094563
30
0.0
11
0.043080
21
0.094541
31
0.0
0
LINE
8
TOP_HID
6
HIDDEN
10
0.043080
20
0.094541
30
0.0
11
0.042828
21
0.094517
31
0.0
0
LINE
8
TOP_HID
6
HIDDEN
10
0.042828
20
0.094517
30
0.0
11
0.042576
21
0.094492
31
0.0
0
LINE
8
TOP_HID
6
HIDDEN
10
0.042576
20
0.094492
30
0.0
11
0.042324
21
0.094466
31
0.0
0
LINE
8
TOP_HID
6
HIDDEN
10
0.042324
20
0.094466
30
0.0
11
0.042073
21
0.094438
31
0.0
0
LINE
8
TOP_HID
6
HIDDEN
10
0.042073
20
0.094438
30
0.0
11
0.041821
21
0.094409
31
0.0
0
LINE
8
TOP_HID
6
HIDDEN
10
0.041821
20
0.094409
30
0.0
11
0.041570
21
0.094379
31
0.0
0
LINE
8
TOP_HID
6
HIDDEN
10
0.041570
20
0.094379
30
0.0
11
0.041319
21
0.094348
31
0.0
0
LINE
8
TOP_HID
6
HIDDEN
10
0.041319
20
0.094348
30
0.0
11
0.041067
21
0.094315
31
0.0
0
LINE
8
TOP_HID
6
HIDDEN
10
0.041067
20
0.094315
30
0.0
11
0.040817
21
0.094280
31
0.0
0
LINE
8
TOP_HID
6
HIDDEN
10
0.040817
20
0.094280
30
0.0
11
0.040566
21
0.094244
31
0.0
0
LINE
8
TOP_HID
6
HIDDEN
10
0.040566
20
0.094244
30
0.0
11
0.040315
21
0.094207
31
0.0
0
LINE
8
TOP_HID
6
HIDDEN
10
0.040315
20
0.094207
30
0.0
11
0.040065
21
0.094169
31
0.0
0
LINE
8
TOP_HID
6
HIDDEN
10
0.040065
20
0.094169
30
0.0
11
0.039815
21
0.094129
31
0.0
0
LINE
8
TOP_HID
6
HIDDEN
10
0.039815
20
0.094129
30
0.0
11
0.039565
21
0.094088
31
0.0
0
LINE
8
TOP_HID
6
HIDDEN
10
0.039565
20
0.094088
30
0.0
11
0.039315
21
0.094046
31
0.0
0
LINE
8
TOP_HID
6
HIDDEN
10
0.039315
20
0.094046
30
0.0
11
0.039066
21
0.094002
31
0.0
0
LINE
8
TOP_HID
6
HIDDEN
10
0.039066
20
0.094002
30
0.0
11
0.038817
21
0.093957
31
0.0
0
LINE
8
TOP_HID
6
HIDDEN
10
0.038817
20
0.093957
30
0.0
11
0.038568
21
0.093911
31
0.0
0
LINE
8
TOP_HID
6
HIDDEN
10
0.038568
20
0.093911
30
0.0
11
0.038319
21
0.093863
31
0.0
0
LINE
8
TOP_HID
6
HIDDEN
10
0.038319
20
0.093863
30
0.0
11
0.038071
21
0.093814
31
0.0
0
LINE
8
TOP_HID
6
HIDDEN
10
0.038071
20
0.093814
30
0.0
11
0.037823
21
0.093764
31
0.0
0
LINE
8
TOP_HID
6
HIDDEN
10
0.037823
20
0.093764
30
0.0
11
0.037575
21
0.093712
31
0.0
0
LINE
8
TOP_HID
6
HIDDEN
10
0.037575
20
0.093712
30
0.0
11
0.037327
21
0.093659
31
0.0
0
LINE
8
TOP_HID
6
HIDDEN
10
0.037327
20
0.093659
30
0.0
11
0.037080
21
0.093605
31
0.0
0
LINE
8
TOP_HID
6
HIDDEN
10
0.037080
20
0.093605
30
0.0
11
0.036833
21
0.093549
31
0.0
0
LINE
8
TOP_HID
6
HIDDEN
10
0.036833
20
0.093549
30
0.0
11
0.036586
21
0.093492
31
0.0
0
LINE
8
TOP_HID
6
HIDDEN
10
0.036586
20
0.093492
30
0.0
11
0.036339
21
0.093434
31
0.0
0
LINE
8
TOP_HID
6
HIDDEN
10
0.036339
20
0.093434
30
0.0
11
0.036093
21
0.093374
31
0.0
0
LINE
8
TOP_HID
6
HIDDEN
10
0.036093
20
0.093374
30
0.0
11
0.035848
21
0.093313
31
0.0
0
LINE
8
TOP_HID
6
HIDDEN
10
0.035848
20
0.093313
30
0.0
11
0.035602
21
0.093251
31
0.0
0
LINE
8
TOP_HID
6
HIDDEN
10
0.035602
20
0.093251
30
0.0
11
0.035357
21
0.093188
31
0.0
0
LINE
8
TOP_HID
6
HIDDEN
10
0.035357
20
0.093188
30
0.0
11
0.035112
21
0.093123
31
0.0
0
LINE
8
TOP_HID
6
HIDDEN
10
0.035112
20
0.093123
30
0.0
11
0.034868
21
0.093056
31
0.0
0
LINE
8
TOP_HID
6
HIDDEN
10
0.034868
20
0.093056
30
0.0
11
0.034624
21
0.092989
31
0.0
0
LINE
8
TOP_HID
6
HIDDEN
10
0.034624
20
0.092989
30
0.0
11
0.034380
21
0.092920
31
0.0
0
LINE
8
TOP_HID
6
HIDDEN
10
0.034380
20
0.092920
30
0.0
11
0.034137
21
0.092850
31
0.0
0
LINE
8
TOP_HID
6
HIDDEN
10
0.034137
20
0.092850
30
0.0
11
0.033894
21
0.092779
31
0.0
0
LINE
8
TOP_HID
6
HIDDEN
10
0.033894
20
0.092779
30
0.0
11
0.033651
21
0.092706
31
0.0
0
LINE
8
TOP_HID
6
HIDDEN
10
0.033651
20
0.092706
30
0.0
11
0.033409
21
0.092632
31
0.0
0
LINE
8
TOP_HID
6
HIDDEN
10
0.033409
20
0.092632
30
0.0
11
0.033167
21
0.092557
31
0.0
0
LINE
8
TOP_HID
6
HIDDEN
10
0.033167
20
0.092557
30
0.0
11
0.032926
21
0.092480
31
0.0
0
LINE
8
TOP_HID
6
HIDDEN
10
0.032926
20
0.092480
30
0.0
11
0.032685
21
0.092403
31
0.0
0
LINE
8
TOP_HID
6
HIDDEN
10
0.032685
20
0.092403
30
0.0
11
0.032444
21
0.092323
31
0.0
0
LINE
8
TOP_HID
6
HIDDEN
10
0.032444
20
0.092323
30
0.0
11
0.032204
21
0.092243
31
0.0
0
LINE
8
TOP_HID
6
HIDDEN
10
0.032204
20
0.092243
30
0.0
11
0.031964
21
0.092161
31
0.0
0
LINE
8
TOP_HID
6
HIDDEN
10
0.031964
20
0.092161
30
0.0
11
0.031725
21
0.092078
31
0.0
0
LINE
8
TOP_HID
6
HIDDEN
10
0.031725
20
0.092078
30
0.0
11
0.031486
21
0.091994
31
0.0
0
LINE
8
TOP_HID
6
HIDDEN
10
0.031486
20
0.091994
30
0.0
11
0.031248
21
0.091908
31
0.0
0
LINE
8
TOP_HID
6
HIDDEN
10
0.031248
20
0.091908
30
0.0
11
0.030393
21
0.091590
31
0.0
0
LINE
8
TOP_HID
6
HIDDEN
10
0.030393
20
0.091590
30
0.0
11
0.029545
21
0.091255
31
0.0
0
LINE
8
TOP_HID
6
HIDDEN
10
0.029545
20
0.091255
30
0.0
11
0.028703
21
0.090904
31
0.0
0
LINE
8
TOP_HID
6
HIDDEN
10
0.028703
20
0.090904
30
0.0
11
0.027868
21
0.090536
31
0.0
0
LINE
8
TOP_HID
6
HIDDEN
10
0.027868
20
0.090536
30
0.0
11
0.027041
21
0.090153
31
0.0
0
LINE
8
TOP_HID
6
HIDDEN
10
0.027041
20
0.090153
30
0.0
11
0.026221
21
0.089753
31
0.0
0
LINE
8
TOP_HID
6
HIDDEN
10
0.026221
20
0.089753
30
0.0
11
0.025408
21
0.089338
31
0.0
0
LINE
8
TOP_HID
6
HIDDEN
10
0.025408
20
0.089338
30
0.0
11
0.024604
21
0.088908
31
0.0
0
LINE
8
TOP_HID
6
HIDDEN
10
0.024604
20
0.088908
30
0.0
11
0.023809
21
0.088462
31
0.0
0
LINE
8
TOP_HID
6
HIDDEN
10
0.023809
20
0.088462
30
0.0
11
0.023022
21
0.088000
31
0.0
0
LINE
8
TOP_HID
6
HIDDEN
10
0.023022
20
0.088000
30
0.0
11
0.022244
21
0.087524
31
0.0
0
LINE
8
TOP_HID
6
HIDDEN
10
0.022244
20
0.087524
30
0.0
11
0.021475
21
0.087033
31
0.0
0
LINE
8
TOP_HID
6
HIDDEN
10
0.021475
20
0.087033
30
0.0
11
0.020716
21
0.086527
31
0.0
0
LINE
8
TOP_HID
6
HIDDEN
10
0.020716
20
0.086527
30
0.0
11
0.019967
21
0.086007
31
0.0
0
LINE
8
TOP_HID
6
HIDDEN
10
0.019967
20
0.086007
30
0.0
11
0.019228
21
0.085472
31
0.0
0
LINE
8
TOP_HID
6
HIDDEN
10
0.019228
20
0.085472
30
0.0
11
0.018500
21
0.084923
31
0.0
0
LINE
8
TOP_HID
6
HIDDEN
10
0.018500
20
0.084923
30
0.0
11
0.017782
21
0.084360
31
0.0
0
LINE
8
TOP_HID
6
HIDDEN
10
0.017782
20
0.084360
30
0.0
11
0.017075
21
0.083784
31
0.0
0
LINE
8
TOP_HID
6
HIDDEN
10
0.017075
20
0.083784
30
0.0
11
0.016379
21
0.083194
31
0.0
0
LINE
8
TOP_HID
6
HIDDEN
10
0.016379
20
0.083194
30
0.0
11
0.015695
21
0.082590
31
0.0
0
LINE
8
TOP_HID
6
HIDDEN
10
0.015695
20
0.082590
30
0.0
11
0.015023
21
0.081974
31
0.0
0
LINE
8
TOP_HID
6
HIDDEN
10
0.015023
20
0.081974
30
0.0
11
0.014362
21
0.081345
31
0.0
0
LINE
8
TOP_HID
6
HIDDEN
10
0.014362
20
0.081345
30
0.0
11
0.013714
21
0.080703
31
0.0
0
LINE
8
TOP_HID
6
HIDDEN
10
0.013714
20
0.080703
30
0.0
11
0.013079
21
0.080049
31
0.0
0
LINE
8
TOP_HID
6
HIDDEN
10
0.013079
20
0.080049
30
0.0
11
0.012456
21
0.079383
31
0.0
0
LINE
8
TOP_HID
6
HIDDEN
10
0.012456
20
0.079383
30
0.0
11
0.011846
21
0.078704
31
0.0
0
LINE
8
TOP_HID
6
HIDDEN
10
0.011846
20
0.078704
30
0.0
11
0.011249
21
0.078015
31
0.0
0
LINE
8
TOP_HID
6
HIDDEN
10
0.011249
20
0.078015
30
0.0
11
0.010665
21
0.077313
31
0.0
0
LINE
8
TOP_HID
6
HIDDEN
10
0.010665
20
0.077313
30
0.0
11
0.010096
21
0.076601
31
0.0
0
LINE
8
TOP_HID
6
HIDDEN
10
0.010096
20
0.076601
30
0.0
11
0.009540
21
0.075878
31
0.0
0
LINE
8
TOP_HID
6
HIDDEN
10
0.009540
20
0.075878
30
0.0
11
0.008998
21
0.075144
31
0.0
0
LINE
8
TOP_HID
6
HIDDEN
10
0.008998
20
0.075144
30
0.0
11
0.008470
21
0.074400
31
0.0
0
LINE
8
TOP_HID
6
HIDDEN
10
0.008470
20
0.074400
30
0.0
11
0.007956
21
0.073646
31
0.0
0
LINE
8
TOP_HID
6
HIDDEN
10
0.007956
20
0.073646
30
0.0
11
0.007458
21
0.072883
31
0.0
0
LINE
8
TOP_HID
6
HIDDEN
10
0.007458
20
0.072883
30
0.0
11
0.006974
21
0.072110
31
0.0
0
LINE
8
TOP_HID
6
HIDDEN
10
0.006974
20
0.072110
30
0.0
11
0.006505
21
0.071327
31
0.0
0
LINE
8
TOP_HID
6
HIDDEN
10
0.006505
20
0.071327
30
0.0
11
0.006051
21
0.070536
31
0.0
0
LINE
8
TOP_HID
6
HIDDEN
10
0.006051
20
0.070536
30
0.0
11
0.005613
21
0.069736
31
0.0
0
LINE
8
TOP_HID
6
HIDDEN
10
0.005613
20
0.069736
30
0.0
11
0.005190
21
0.068928
31
0.0
0
LINE
8
TOP_HID
6
HIDDEN
10
0.005190
20
0.068928
30
0.0
11
0.004782
21
0.068112
31
0.0
0
LINE
8
TOP_HID
6
HIDDEN
10
0.004782
20
0.068112
30
0.0
11
0.004391
21
0.067288
31
0.0
0
LINE
8
TOP_HID
6
HIDDEN
10
0.004391
20
0.067288
30
0.0
11
0.004015
21
0.066457
31
0.0
0
LINE
8
TOP_HID
6
HIDDEN
10
0.004015
20
0.066457
30
0.0
11
0.003656
21
0.065619
31
0.0
0
LINE
8
TOP_HID
6
HIDDEN
10
0.003656
20
0.065619
30
0.0
11
0.003312
21
0.064773
31
0.0
0
LINE
8
TOP_HID
6
HIDDEN
10
0.003312
20
0.064773
30
0.0
11
0.002985
21
0.063922
31
0.0
0
LINE
8
TOP_HID
6
HIDDEN
10
0.002985
20
0.063922
30
0.0
11
0.002675
21
0.063064
31
0.0
0
LINE
8
TOP_HID
6
HIDDEN
10
0.002675
20
0.063064
30
0.0
11
0.002381
21
0.062201
31
0.0
0
LINE
8
TOP_HID
6
HIDDEN
10
0.002381
20
0.062201
30
0.0
11
0.002103
21
0.061332
31
0.0
0
LINE
8
TOP_HID
6
HIDDEN
10
0.002103
20
0.061332
30
0.0
11
0.001843
21
0.060458
31
0.0
0
LINE
8
TOP_HID
6
HIDDEN
10
0.001843
20
0.060458
30
0.0
11
0.001599
21
0.059579
31
0.0
0
LINE
8
TOP_HID
6
HIDDEN
10
0.001599
20
0.059579
30
0.0
11
0.001373
21
0.058695
31
0.0
0
LINE
8
TOP_HID
6
HIDDEN
10
0.001373
20
0.058695
30
0.0
11
0.001163
21
0.057807
31
0.0
0
LINE
8
TOP_HID
6
HIDDEN
10
0.001163
20
0.057807
30
0.0
11
0.000971
21
0.056916
31
0.0
0
LINE
8
TOP_HID
6
HIDDEN
10
0.000971
20
0.056916
30
0.0
11
0.000795
21
0.056021
31
0.0
0
LINE
8
TOP_HID
6
HIDDEN
10
0.000795
20
0.056021
30
0.0
11
0.000637
21
0.055122
31
0.0
0
LINE
8
TOP_HID
6
HIDDEN
10
0.000637
20
0.055122
30
0.0
11
0.000497
21
0.054221
31
0.0
0
LINE
8
TOP_HID
6
HIDDEN
10
0.000497
20
0.054221
30
0.0
11
0.000373
21
0.053317
31
0.0
0
LINE
8
TOP_HID
6
HIDDEN
10
0.000373
20
0.053317
30
0.0
11
0.000267
21
0.052411
31
0.0
0
LINE
8
TOP_HID
6
HIDDEN
10
0.000267
20
0.052411
30
0.0
11
0.000179
21
0.051504
31
0.0
0
LINE
8
TOP_HID
6
HIDDEN
10
0.000179
20
0.051504
30
0.0
11
0.000108
21
0.050594
31
0.0
0
LINE
8
TOP_HID
6
HIDDEN
10
0.000108
20
0.050594
30
0.0
11
0.000055
21
0.049684
31
0.0
0
LINE
8
TOP_HID
6
HIDDEN
10
0.000055
20
0.049684
30
0.0
11
0.000019
21
0.048772
31
0.0
0
LINE
8
TOP_HID
6
HIDDEN
10
0.000019
20
0.048772
30
0.0
11
0.000001
21
0.047860
31
0.0
0
LINE
8
TOP_HID
6
HIDDEN
10
0.000001
20
0.047860
30
0.0
11
0.000000
21
0.046932
31
0.0
0
LINE
8
TOP_HID
6
HIDDEN
10
0.000000
20
0.046932
30
0.0
11
0.000018
21
0.046005
31
0.0
0
LINE
8
TOP_HID
6
HIDDEN
10
0.000018
20
0.046005
30
0.0
11
0.000053
21
0.045078
31
0.0
0
LINE
8
TOP_HID
6
HIDDEN
10
0.000053
20
0.045078
30
0.0
11
0.000107
21
0.044151
31
0.0
0
LINE
8
TOP_HID
6
HIDDEN
10
0.000107
20
0.044151
30
0.0
11
0.000179
21
0.043226
31
0.0
0
LINE
8
TOP_HID
6
HIDDEN
10
0.000179
20
0.043226
30
0.0
11
0.000269
21
0.042303
31
0.0
0
LINE
8
TOP_HID
6
HIDDEN
10
0.000269
20
0.042303
30
0.0
11
0.000378
21
0.041382
31
0.0
0
LINE
8
TOP_HID
6
HIDDEN
10
0.000378
20
0.041382
30
0.0
11
0.000504
21
0.040462
31
0.0
0
LINE
8
TOP_HID
6
HIDDEN
10
0.000504
20
0.040462
30
0.0
11
0.000648
21
0.039546
31
0.0
0
LINE
8
TOP_HID
6
HIDDEN
10
0.000648
20
0.039546
30
0.0
11
0.000810
21
0.038632
31
0.0
0
LINE
8
TOP_HID
6
HIDDEN
10
0.000810
20
0.038632
30
0.0
11
0.000990
21
0.037722
31
0.0
0
LINE
8
TOP_HID
6
HIDDEN
10
0.000990
20
0.037722
30
0.0
11
0.001188
21
0.036816
31
0.0
0
LINE
8
TOP_HID
6
HIDDEN
10
0.001188
20
0.036816
30
0.0
11
0.001404
21
0.035913
31
0.0
0
LINE
8
TOP_HID
6
HIDDEN
10
0.001404
20
0.035913
30
0.0
11
0.001637
21
0.035015
31
0.0
0
LINE
8
TOP_HID
6
HIDDEN
10
0.001637
20
0.035015
30
0.0
11
0.001887
21
0.034122
31
0.0
0
LINE
8
TOP_HID
6
HIDDEN
10
0.001887
20
0.034122
30
0.0
11
0.002156
21
0.033234
31
0.0
0
LINE
8
TOP_HID
6
HIDDEN
10
0.002156
20
0.033234
30
0.0
11
0.002441
21
0.032351
31
0.0
0
LINE
8
TOP_HID
6
HIDDEN
10
0.002441
20
0.032351
30
0.0
11
0.002744
21
0.031474
31
0.0
0
LINE
8
TOP_HID
6
HIDDEN
10
0.002744
20
0.031474
30
0.0
11
0.003064
21
0.030603
31
0.0
0
LINE
8
TOP_HID
6
HIDDEN
10
0.003064
20
0.030603
30
0.0
11
0.003400
21
0.029738
31
0.0
0
LINE
8
TOP_HID
6
HIDDEN
10
0.003400
20
0.029738
30
0.0
11
0.003754
21
0.028881
31
0.0
0
LINE
8
TOP_HID
6
HIDDEN
10
0.003754
20
0.028881
30
0.0
11
0.004125
21
0.028030
31
0.0
0
LINE
8
TOP_HID
6
HIDDEN
10
0.004125
20
0.028030
30
0.0
11
0.004512
21
0.027187
31
0.0
0
LINE
8
TOP_HID
6
HIDDEN
10
0.004512
20
0.027187
30
0.0
11
0.004915
21
0.026351
31
0.0
0
LINE
8
TOP_HID
6
HIDDEN
10
0.004915
20
0.026351
30
0.0
11
0.005335
21
0.025524
31
0.0
0
LINE
8
TOP_HID
6
HIDDEN
10
0.005335
20
0.025524
30
0.0
11
0.005771
21
0.024705
31
0.0
0
LINE
8
TOP_HID
6
HIDDEN
10
0.005771
20
0.024705
30
0.0
11
0.006223
21
0.023894
31
0.0
0
LINE
8
TOP_HID
6
HIDDEN
10
0.006223
20
0.023894
30
0.0
11
0.006690
21
0.023093
31
0.0
0
LINE
8
TOP_HID
6
HIDDEN
10
0.006690
20
0.023093
30
0.0
11
0.007173
21
0.022301
31
0.0
0
LINE
8
TOP_HID
6
HIDDEN
10
0.007173
20
0.022301
30
0.0
11
0.007672
21
0.021519
31
0.0
0
LINE
8
TOP_HID
6
HIDDEN
10
0.007672
20
0.021519
30
0.0
11
0.008186
21
0.020746
31
0.0
0
LINE
8
TOP_HID
6
HIDDEN
10
0.008186
20
0.020746
30
0.0
11
0.008715
21
0.019984
31
0.0
0
LINE
8
TOP_HID
6
HIDDEN
10
0.008715
20
0.019984
30
0.0
11
0.009259
21
0.019232
31
0.0
0
LINE
8
TOP_HID
6
HIDDEN
10
0.009259
20
0.019232
30
0.0
11
0.009817
21
0.018491
31
0.0
0
LINE
8
TOP_HID
6
HIDDEN
10
0.009817
20
0.018491
30
0.0
11
0.010390
21
0.017761
31
0.0
0
LINE
8
TOP_HID
6
HIDDEN
10
0.010390
20
0.017761
30
0.0
11
0.010977
21
0.017043
31
0.0
0
LINE
8
TOP_HID
6
HIDDEN
10
0.010977
20
0.017043
30
0.0
11
0.011578
21
0.016336
31
0.0
0
LINE
8
TOP_HID
6
HIDDEN
10
0.011578
20
0.016336
30
0.0
11
0.012192
21
0.015641
31
0.0
0
LINE
8
TOP_HID
6
HIDDEN
10
0.012192
20
0.015641
30
0.0
11
0.012820
21
0.014958
31
0.0
0
LINE
8
TOP_HID
6
HIDDEN
10
0.012820
20
0.014958
30
0.0
11
0.013462
21
0.014288
31
0.0
0
LINE
8
TOP_HID
6
HIDDEN
10
0.013462
20
0.014288
30
0.0
11
0.014116
21
0.013630
31
0.0
0
LINE
8
TOP_HID
6
HIDDEN
10
0.014116
20
0.013630
30
0.0
11
0.014783
21
0.012985
31
0.0
0
LINE
8
TOP_HID
6
HIDDEN
10
0.014783
20
0.012985
30
0.0
11
0.015463
21
0.012353
31
0.0
0
LINE
8
TOP_HID
6
HIDDEN
10
0.015463
20
0.012353
30
0.0
11
0.016155
21
0.011735
31
0.0
0
LINE
8
TOP_HID
6
HIDDEN
10
0.016155
20
0.011735
30
0.0
11
0.016859
21
0.011131
31
0.0
0
LINE
8
TOP_HID
6
HIDDEN
10
0.016859
20
0.011131
30
0.0
11
0.017574
21
0.010540
31
0.0
0
LINE
8
TOP_HID
6
HIDDEN
10
0.017574
20
0.010540
30
0.0
11
0.018301
21
0.009964
31
0.0
0
LINE
8
TOP_HID
6
HIDDEN
10
0.018301
20
0.009964
30
0.0
11
0.019039
21
0.009402
31
0.0
0
LINE
8
TOP_HID
6
HIDDEN
10
0.019039
20
0.009402
30
0.0
11
0.019788
21
0.008854
31
0.0
0
LINE
8
TOP_HID
6
HIDDEN
10
0.019788
20
0.008854
30
0.0
11
0.020548
21
0.008321
31
0.0
0
LINE
8
TOP_HID
6
HIDDEN
10
0.020548
20
0.008321
30
0.0
11
0.021318
21
0.007804
31
0.0
0
LINE
8
TOP_HID
6
HIDDEN
10
0.021318
20
0.007804
30
0.0
11
0.022098
21
0.007301
31
0.0
0
LINE
8
TOP_HID
6
HIDDEN
10
0.022098
20
0.007301
30
0.0
11
0.022887
21
0.006814
31
0.0
0
LINE
8
TOP_HID
6
HIDDEN
10
0.022887
20
0.006814
30
0.0
11
0.023686
21
0.006342
31
0.0
0
LINE
8
TOP_HID
6
HIDDEN
10
0.023686
20
0.006342
30
0.0
11
0.024494
21
0.005886
31
0.0
0
LINE
8
TOP_HID
6
HIDDEN
10
0.024494
20
0.005886
30
0.0
11
0.025311
21
0.005446
31
0.0
0
LINE
8
TOP_HID
6
HIDDEN
10
0.025311
20
0.005446
30
0.0
11
0.026137
21
0.005022
31
0.0
0
LINE
8
TOP_HID
6
HIDDEN
10
0.026137
20
0.005022
30
0.0
11
0.026970
21
0.004615
31
0.0
0
LINE
8
TOP_HID
6
HIDDEN
10
0.026970
20
0.004615
30
0.0
11
0.027811
21
0.004223
31
0.0
0
LINE
8
TOP_HID
6
HIDDEN
10
0.027811
20
0.004223
30
0.0
11
0.028660
21
0.003849
31
0.0
0
LINE
8
TOP_HID
6
HIDDEN
10
0.028660
20
0.003849
30
0.0
11
0.029516
21
0.003491
31
0.0
0
LINE
8
TOP_HID
6
HIDDEN
10
0.029516
20
0.003491
30
0.0
11
0.030379
21
0.003149
31
0.0
0
LINE
8
TOP_HID
6
HIDDEN
10
0.030379
20
0.003149
30
0.0
11
0.031248
21
0.002825
31
0.0
0
LINE
8
TOP_HID
6
HIDDEN
10
0.040547
20
0.000492
30
0.0
11
0.041826
21
0.000324
31
0.0
0
LINE
8
TOP_HID
6
HIDDEN
10
0.041826
20
0.000324
30
0.0
11
0.043109
21
0.000190
31
0.0
0
LINE
8
TOP_HID
6
HIDDEN
10
0.043109
20
0.000190
30
0.0
11
0.044394
21
0.000092
31
0.0
0
LINE
8
TOP_HID
6
HIDDEN
10
0.044394
20
0.000092
30
0.0
11
0.045682
21
0.000028
31
0.0
0
LINE
8
TOP_HID
6
HIDDEN
10
0.045682
20
0.000028
30
0.0
11
0.046972
21
0.000000
31
0.0
0
LINE
8
TOP_HID
6
HIDDEN
10
0.046972
20
0.000000
30
0.0
11
0.048261
21
0.000007
31
0.0
0
LINE
8
TOP_HID
6
HIDDEN
10
0.048261
20
0.000007
30
0.0
11
0.049550
21
0.000049
31
0.0
0
LINE
8
TOP_HID
6
HIDDEN
10
0.049550
20
0.000049
30
0.0
11
0.050838
21
0.000126
31
0.0
0
LINE
8
TOP_HID
6
HIDDEN
10
0.050838
20
0.000126
30
0.0
11
0.052122
21
0.000238
31
0.0
0
LINE
8
TOP_HID
6
HIDDEN
10
0.052122
20
0.000238
30
0.0
11
0.053404
21
0.000385
31
0.0
0
LINE
8
TOP_HID
6
HIDDEN
10
0.053404
20
0.000385
30
0.0
11
0.054680
21
0.000566
31
0.0
0
LINE
8
TOP_HID
6
HIDDEN
10
0.054680
20
0.000566
30
0.0
11
0.055952
21
0.000783
31
0.0
0
LINE
8
TOP_HID
6
HIDDEN
10
0.055952
20
0.000783
30
0.0
11
0.057217
21
0.001034
31
0.0
0
LINE
8
TOP_HID
6
HIDDEN
10
0.057217
20
0.001034
30
0.0
11
0.058474
21
0.001319
31
0.0
0
LINE
8
TOP_HID
6
HIDDEN
10
0.058474
20
0.001319
30
0.0
11
0.059724
21
0.001639
31
0.0
0
LINE
8
TOP_HID
6
HIDDEN
10
0.059724
20
0.001639
30
0.0
11
0.060964
21
0.001992
31
0.0
0
LINE
8
TOP_HID
6
HIDDEN
10
0.060964
20
0.001992
30
0.0
11
0.062194
21
0.002379
31
0.0
0
LINE
8
TOP_HID
6
HIDDEN
10
0.062194
20
0.002379
30
0.0
11
0.063414
21
0.002799
31
0.0
0
LINE
8
TOP_HID
6
HIDDEN
10
0.063414
20
0.002799
30
0.0
11
0.064621
21
0.003253
31
0.0
0
LINE
8
TOP_HID
6
HIDDEN
10
0.064621
20
0.003253
30
0.0
11
0.065815
21
0.003739
31
0.0
0
LINE
8
TOP_HID
6
HIDDEN
10
0.065815
20
0.003739
30
0.0
11
0.066996
21
0.004257
31
0.0
0
LINE
8
TOP_HID
6
HIDDEN
10
0.066996
20
0.004257
30
0.0
11
0.068162
21
0.004808
31
0.0
0
LINE
8
TOP_HID
6
HIDDEN
10
0.068162
20
0.004808
30
0.0
11
0.069313
21
0.005389
31
0.0
0
LINE
8
TOP_HID
6
HIDDEN
10
0.069313
20
0.005389
30
0.0
11
0.070448
21
0.006002
31
0.0
0
LINE
8
TOP_HID
6
HIDDEN
10
0.070448
20
0.006002
30
0.0
11
0.071565
21
0.006646
31
0.0
0
LINE
8
TOP_HID
6
HIDDEN
10
0.071565
20
0.006646
30
0.0
11
0.072665
21
0.007320
31
0.0
0
LINE
8
TOP_HID
6
HIDDEN
10
0.072665
20
0.007320
30
0.0
11
0.073746
21
0.008024
31
0.0
0
LINE
8
TOP_HID
6
HIDDEN
10
0.073746
20
0.008024
30
0.0
11
0.074807
21
0.008756
31
0.0
0
LINE
8
TOP_HID
6
HIDDEN
10
0.074807
20
0.008756
30
0.0
11
0.075848
21
0.009518
31
0.0
0
LINE
8
TOP_HID
6
HIDDEN
10
0.075848
20
0.009518
30
0.0
11
0.076868
21
0.010307
31
0.0
0
LINE
8
TOP_HID
6
HIDDEN
10
0.076868
20
0.010307
30
0.0
11
0.077866
21
0.011124
31
0.0
0
LINE
8
TOP_HID
6
HIDDEN
10
0.077866
20
0.011124
30
0.0
11
0.078841
21
0.011968
31
0.0
0
LINE
8
TOP_HID
6
HIDDEN
10
0.078841
20
0.011968
30
0.0
11
0.079793
21
0.012837
31
0.0
0
LINE
8
TOP_HID
6
HIDDEN
10
0.079793
20
0.012837
30
0.0
11
0.080721
21
0.013733
31
0.0
0
LINE
8
TOP_HID
6
HIDDEN
10
0.080721
20
0.013733
30
0.0
11
0.081624
21
0.014653
31
0.0
0
LINE
8
TOP_HID
6
HIDDEN
10
0.081624
20
0.014653
30
0.0
11
0.082502
21
0.015598
31
0.0
0
LINE
8
TOP_HID
6
HIDDEN
10
0.082502
20
0.015598
30
0.0
11
0.083354
21
0.016566
31
0.0
0
LINE
8
TOP_HID
6
HIDDEN
10
0.083354
20
0.016566
30
0.0
11
0.084179
21
0.017558
31
0.0
0
LINE
8
TOP_HID
6
HIDDEN
10
0.084179
20
0.017558
30
0.0
11
0.084977
21
0.018571
31
0.0
0
LINE
8
TOP_HID
6
HIDDEN
10
0.084977
20
0.018571
30
0.0
11
0.085747
21
0.019605
31
0.0
0
LINE
8
TOP_HID
6
HIDDEN
10
0.085747
20
0.019605
30
0.0
11
0.086489
21
0.020660
31
0.0
0
LINE
8
TOP_HID
6
HIDDEN
10
0.086489
20
0.020660
30
0.0
11
0.087201
21
0.021735
31
0.0
0
LINE
8
TOP_HID
6
HIDDEN
10
0.087201
20
0.021735
30
0.0
11
0.087884
21
0.022829
31
0.0
0
LINE
8
TOP_HID
6
HIDDEN
10
0.087884
20
0.022829
30
0.0
11
0.088537
21
0.023941
31
0.0
0
LINE
8
TOP_HID
6
HIDDEN
10
0.088537
20
0.023941
30
0.0
11
0.089159
21
0.025071
31
0.0
0
LINE
8
TOP_HID
6
HIDDEN
10
0.089159
20
0.025071
30
0.0
11
0.089751
21
0.026217
31
0.0
0
LINE
8
TOP_HID
6
HIDDEN
10
0.089751
20
0.026217
30
0.0
11
0.090311
21
0.027379
31
0.0
0
LINE
8
TOP_HID
6
HIDDEN
10
0.090311
20
0.027379
30
0.0
11
0.090839
21
0.028555
31
0.0
0
LINE
8
TOP_HID
6
HIDDEN
10
0.090839
20
0.028555
30
0.0
11
0.091335
21
0.029745
31
0.0
0
LINE
8
TOP_HID
6
HIDDEN
10
0.091335
20
0.029745
30
0.0
11
0.091799
21
0.030949
31
0.0
0
LINE
8
TOP_HID
6
HIDDEN
10
0.091799
20
0.030949
30
0.0
11
0.092229
21
0.032165
31
0.0
0
LINE
8
TOP_HID
6
HIDDEN
10
0.092229
20
0.032165
30
0.0
11
0.092626
21
0.033392
31
0.0
0
LINE
8
TOP_HID
6
HIDDEN
10
0.092626
20
0.033392
30
0.0
11
0.092990
21
0.034629
31
0.0
0
LINE
8
TOP_HID
6
HIDDEN
10
0.092990
20
0.034629
30
0.0
11
0.093320
21
0.035876
31
0.0
0
LINE
8
TOP_HID
6
HIDDEN
10
0.093320
20
0.035876
30
0.0
11
0.093616
21
0.037131
31
0.0
0
LINE
8
TOP_HID
6
HIDDEN
10
0.093616
20
0.037131
30
0.0
11
0.093877
21
0.038394
31
0.0
0
LINE
8
TOP_HID
6
HIDDEN
10
0.093877
20
0.038394
30
0.0
11
0.094104
21
0.039663
31
0.0
0
LINE
8
TOP_HID
6
HIDDEN
10
0.094104
20
0.039663
30
0.0
11
0.094297
21
0.040938
31
0.0
0
LINE
8
TOP_HID
6
HIDDEN
10
0.094297
20
0.040938
30
0.0
11
0.094454
21
0.042218
31
0.0
0
LINE
8
TOP_HID
6
HIDDEN
10
0.094454
20
0.042218
30
0.0
11
0.094577
21
0.043502
31
0.0
0
LINE
8
TOP_HID
6
HIDDEN
10
0.094577
20
0.043502
30
0.0
11
0.094665
21
0.044789
31
0.0
0
LINE
8
TOP_HID
6
HIDDEN
10
0.094665
20
0.044789
30
0.0
11
0.094717
21
0.046077
31
0.0
0
LINE
8
TOP_HID
6
HIDDEN
10
0.094717
20
0.046077
30
0.0
11
0.094735
21
0.047367
31
0.0
0
LINE
8
TOP_HID
6
HIDDEN
10
0.094735
20
0.047367
30
0.0
11
0.094720
21
0.048556
31
0.0
0
LINE
8
TOP_HID
6
HIDDEN
10
0.094720
20
0.048556
30
0.0
11
0.094675
21
0.049744
31
0.0
0
LINE
8
TOP_HID
6
HIDDEN
10
0.094675
20
0.049744
30
0.0
11
0.094601
21
0.050930
31
0.0
0
LINE
8
TOP_HID
6
HIDDEN
10
0.094601
20
0.050930
30
0.0
11
0.094496
21
0.052114
31
0.0
0
LINE
8
TOP_HID
6
HIDDEN
10
0.094496
20
0.052114
30
0.0
11
0.094362
21
0.053296
31
0.0
0
LINE
8
TOP_HID
6
HIDDEN
10
0.094362
20
0.053296
30
0.0
11
0.094199
21
0.054473
31
0.0
0
LINE
8
TOP_HID
6
HIDDEN
10
0.094199
20
0.054473
30
0.0
11
0.094006
21
0.055646
31
0.0
0
LINE
8
TOP_HID
6
HIDDEN
10
0.094006
20
0.055646
30
0.0
11
0.093783
21
0.056814
31
0.0
0
LINE
8
TOP_HID
6
HIDDEN
10
0.093783
20
0.056814
30
0.0
11
0.093531
21
0.057976
31
0.0
0
LINE
8
TOP_HID
6
HIDDEN
10
0.093531
20
0.057976
30
0.0
11
0.093251
21
0.059131
31
0.0
0
LINE
8
TOP_HID
6
HIDDEN
10
0.093251
20
0.059131
30
0.0
11
0.092941
21
0.060279
31
0.0
0
LINE
8
TOP_HID
6
HIDDEN
10
0.092941
20
0.060279
30
0.0
11
0.092603
21
0.061419
31
0.0
0
LINE
8
TOP_HID
6
HIDDEN
10
0.092603
20
0.061419
30
0.0
11
0.092236
21
0.062549
31
0.0
0
LINE
8
TOP_HID
6
HIDDEN
10
0.092236
20
0.062549
30
0.0
11
0.091841
21
0.063671
31
0.0
0
LINE
8
TOP_HID
6
HIDDEN
10
0.091841
20
0.063671
30
0.0
11
0.091417
21
0.064782
31
0.0
0
LINE
8
TOP_HID
6
HIDDEN
10
0.091417
20
0.064782
30
0.0
11
0.090966
21
0.065882
31
0.0
0
LINE
8
TOP_HID
6
HIDDEN
10
0.090966
20
0.065882
30
0.0
11
0.090488
21
0.066970
31
0.0
0
LINE
8
TOP_HID
6
HIDDEN
10
0.090488
20
0.066970
30
0.0
11
0.089983
21
0.068046
31
0.0
0
LINE
8
TOP_HID
6
HIDDEN
10
0.089983
20
0.068046
30
0.0
11
0.089450
21
0.069109
31
0.0
0
LINE
8
TOP_HID
6
HIDDEN
10
0.089450
20
0.069109
30
0.0
11
0.088891
21
0.070158
31
0.0
0
LINE
8
TOP_HID
6
HIDDEN
10
0.088891
20
0.070158
30
0.0
11
0.088306
21
0.071193
31
0.0
0
LINE
8
TOP_HID
6
HIDDEN
10
0.088306
20
0.071193
30
0.0
11
0.087695
21
0.072213
31
0.0
0
LINE
8
TOP_HID
6
HIDDEN
10
0.087695
20
0.072213
30
0.0
11
0.087059
21
0.073217
31
0.0
0
LINE
8
TOP_HID
6
HIDDEN
10
0.087059
20
0.073217
30
0.0
11
0.086398
21
0.074205
31
0.0
0
LINE
8
TOP_HID
6
HIDDEN
10
0.086398
20
0.074205
30
0.0
11
0.085712
21
0.075177
31
0.0
0
LINE
8
TOP_HID
6
HIDDEN
10
0.085712
20
0.075177
30
0.0
11
0.085002
21
0.076130
31
0.0
0
LINE
8
TOP_HID
6
HIDDEN
10
0.085002
20
0.076130
30
0.0
11
0.084268
21
0.077066
31
0.0
0
LINE
8
TOP_HID
6
HIDDEN
10
0.084268
20
0.077066
30
0.0
11
0.083511
21
0.077982
31
0.0
0
LINE
8
TOP_HID
6
HIDDEN
10
0.083511
20
0.077982
30
0.0
11
0.082732
21
0.078880
31
0.0
0
LINE
8
TOP_HID
6
HIDDEN
10
0.082732
20
0.078880
30
0.0
11
0.081930
21
0.079757
31
0.0
0
LINE
8
TOP_HID
6
HIDDEN
10
0.081930
20
0.079757
30
0.0
11
0.081106
21
0.080615
31
0.0
0
LINE
8
TOP_HID
6
HIDDEN
10
0.081106
20
0.080615
30
0.0
11
0.080261
21
0.081451
31
0.0
0
LINE
8
TOP_HID
6
HIDDEN
10
0.080261
20
0.081451
30
0.0
11
0.079395
21
0.082266
31
0.0
0
LINE
8
TOP_HID
6
HIDDEN
10
0.079395
20
0.082266
30
0.0
11
0.078509
21
0.083058
31
0.0
0
LINE
8
TOP_HID
6
HIDDEN
10
0.078509
20
0.083058
30
0.0
11
0.077604
21
0.083829
31
0.0
0
LINE
8
TOP_HID
6
HIDDEN
10
0.077604
20
0.083829
30
0.0
11
0.076679
21
0.084576
31
0.0
0
LINE
8
TOP_HID
6
HIDDEN
10
0.076679
20
0.084576
30
0.0
11
0.075736
21
0.085300
31
0.0
0
LINE
8
TOP_HID
6
HIDDEN
10
0.075736
20
0.085300
30
0.0
11
0.074775
21
0.086000
31
0.0
0
LINE
8
TOP_HID
6
HIDDEN
10
0.074775
20
0.086000
30
0.0
11
0.073797
21
0.086676
31
0.0
0
LINE
8
TOP_HID
6
HIDDEN
10
0.073797
20
0.086676
30
0.0
11
0.072802
21
0.087327
31
0.0
0
LINE
8
TOP_HID
6
HIDDEN
10
0.072802
20
0.087327
30
0.0
11
0.071791
21
0.087952
31
0.0
0
LINE
8
TOP_HID
6
HIDDEN
10
0.071791
20
0.087952
30
0.0
11
0.070765
21
0.088553
31
0.0
0
LINE
8
TOP_HID
6
HIDDEN
10
0.070765
20
0.088553
30
0.0
11
0.069724
21
0.089127
31
0.0
0
LINE
8
TOP_HID
6
HIDDEN
10
0.069724
20
0.089127
30
0.0
11
0.068669
21
0.089675
31
0.0
0
LINE
8
TOP_HID
6
HIDDEN
10
0.068669
20
0.089675
30
0.0
11
0.067601
21
0.090196
31
0.0
0
LINE
8
TOP_HID
6
HIDDEN
10
0.067601
20
0.090196
30
0.0
11
0.066519
21
0.090690
31
0.0
0
LINE
8
TOP_HID
6
HIDDEN
10
0.066519
20
0.090690
30
0.0
11
0.065426
21
0.091157
31
0.0
0
LINE
8
TOP_HID
6
HIDDEN
10
0.065426
20
0.091157
30
0.0
11
0.064322
21
0.091597
31
0.0
0
LINE
8
TOP_HID
6
HIDDEN
10
0.064322
20
0.091597
30
0.0
11
0.063206
21
0.092008
31
0.0
0
LINE
8
TOP_HID
6
HIDDEN
10
0.063206
20
0.092008
30
0.0
11
0.062081
21
0.092392
31
0.0
0
LINE
8
TOP_HID
6
HIDDEN
10
0.062081
20
0.092392
30
0.0
11
0.060946
21
0.092747
31
0.0
0
LINE
8
TOP_HID
6
HIDDEN
10
0.060946
20
0.092747
30
0.0
11
0.059803
21
0.093073
31
0.0
0
LINE
8
TOP_HID
6
HIDDEN
10
0.059803
20
0.093073
30
0.0
11
0.058652
21
0.093371
31
0.0
0
LINE
8
TOP_HID
6
HIDDEN
10
0.058652
20
0.093371
30
0.0
11
0.057494
21
0.093640
31
0.0
0
LINE
8
TOP_HID
6
HIDDEN
10
0.057494
20
0.093640
30
0.0
11
0.056330
21
0.093879
31
0.0
0
LINE
8
TOP_HID
6
HIDDEN
10
0.056330
20
0.093879
30
0.0
11
0.055160
21
0.094090
31
0.0
0
LINE
8
TOP_HID
6
HIDDEN
10
0.055160
20
0.094090
30
0.0
11
0.053985
21
0.094271
31
0.0
0
LINE
8
TOP_HID
6
HIDDEN
10
0.053985
20
0.094271
30
0.0
11
0.052805
21
0.094422
31
0.0
0
LINE
8
TOP_HID
6
HIDDEN
10
0.052805
20
0.094422
30
0.0
11
0.051623
21
0.094544
31
0.0
0
LINE
8
TOP_HID
6
HIDDEN
10
0.051623
20
0.094544
30
0.0
11
0.050437
21
0.094636
31
0.0
0
LINE
8
TOP_HID
6
HIDDEN
10
0.050437
20
0.094636
30
0.0
11
0.049250
21
0.094698
31
0.0
0
LINE
8
TOP_HID
6
HIDDEN
10
0.049250
20
0.094698
30
0.0
11
0.048062
21
0.094730
31
0.0
0
LINE
8
TOP_HID
6
HIDDEN
10
0.048062
20
0.094730
30
0.0
11
0.046873
21
0.094733
31
0.0
0
LINE
8
TOP_HID
6
HIDDEN
10
0.046873
20
0.078942
30
0.0
11
0.046873
21
0.094733
31
0.0
0
LINE
8
TOP_HID
6
HIDDEN
10
0.078945
20
0.047367
30
0.0
11
0.078935
21
0.048162
31
0.0
0
LINE
8
TOP_HID
6
HIDDEN
10
0.078935
20
0.048162
30
0.0
11
0.078905
21
0.048957
31
0.0
0
LINE
8
TOP_HID
6
HIDDEN
10
0.078905
20
0.048957
30
0.0
11
0.078855
21
0.049750
31
0.0
0
LINE
8
TOP_HID
6
HIDDEN
10
0.078855
20
0.049750
30
0.0
11
0.078785
21
0.050542
31
0.0
0
LINE
8
TOP_HID
6
HIDDEN
10
0.078785
20
0.050542
30
0.0
11
0.078695
21
0.051332
31
0.0
0
LINE
8
TOP_HID
6
HIDDEN
10
0.078695
20
0.051332
30
0.0
11
0.078586
21
0.052120
31
0.0
0
LINE
8
TOP_HID
6
HIDDEN
10
0.078586
20
0.052120
30
0.0
11
0.078456
21
0.052904
31
0.0
0
LINE
8
TOP_HID
6
HIDDEN
10
0.078456
20
0.052904
30
0.0
11
0.078307
21
0.053685
31
0.0
0
LINE
8
TOP_HID
6
HIDDEN
10
0.078307
20
0.053685
30
0.0
11
0.078138
21
0.054462
31
0.0
0
LINE
8
TOP_HID
6
HIDDEN
10
0.078138
20
0.054462
30
0.0
11
0.077949
21
0.055235
31
0.0
0
LINE
8
TOP_HID
6
HIDDEN
10
0.077949
20
0.055235
30
0.0
11
0.077742
21
0.056003
31
0.0
0
LINE
8
TOP_HID
6
HIDDEN
10
0.077742
20
0.056003
30
0.0
11
0.077515
21
0.056765
31
0.0
0
LINE
8
TOP_HID
6
HIDDEN
10
0.077515
20
0.056765
30
0.0
11
0.077268
21
0.057521
31
0.0
0
LINE
8
TOP_HID
6
HIDDEN
10
0.077268
20
0.057521
30
0.0
11
0.077003
21
0.058270
31
0.0
0
LINE
8
TOP_HID
6
HIDDEN
10
0.077003
20
0.058270
30
0.0
11
0.076719
21
0.059013
31
0.0
0
LINE
8
TOP_HID
6
HIDDEN
10
0.076719
20
0.059013
30
0.0
11
0.076417
21
0.059749
31
0.0
0
LINE
8
TOP_HID
6
HIDDEN
10
0.076417
20
0.059749
30
0.0
11
0.076096
21
0.060476
31
0.0
0
LINE
8
TOP_HID
6
HIDDEN
10
0.076096
20
0.060476
30
0.0
11
0.075757
21
0.061195
31
0.0
0
LINE
8
TOP_HID
6
HIDDEN
10
0.075757
20
0.061195
30
0.0
11
0.075399
21
0.061906
31
0.0
0
LINE
8
TOP_HID
6
HIDDEN
10
0.075399
20
0.061906
30
0.0
11
0.075024
21
0.062607
31
0.0
0
LINE
8
TOP_HID
6
HIDDEN
10
0.075024
20
0.062607
30
0.0
11
0.074632
21
0.063298
31
0.0
0
LINE
8
TOP_HID
6
HIDDEN
10
0.074632
20
0.063298
30
0.0
11
0.074222
21
0.063980
31
0.0
0
LINE
8
TOP_HID
6
HIDDEN
10
0.074222
20
0.063980
30
0.0
11
0.073795
21
0.064651
31
0.0
0
LINE
8
TOP_HID
6
HIDDEN
10
0.073795
20
0.064651
30
0.0
11
0.073352
21
0.065311
31
0.0
0
LINE
8
TOP_HID
6
HIDDEN
10
0.073352
20
0.065311
30
0.0
11
0.072892
21
0.065959
31
0.0
0
LINE
8
TOP_HID
6
HIDDEN
10
0.072892
20
0.065959
30
0.0
11
0.072416
21
0.066596
31
0.0
0
LINE
8
TOP_HID
6
HIDDEN
10
0.072416
20
0.066596
30
0.0
11
0.071923
21
0.067221
31
0.0
0
LINE
8
TOP_HID
6
HIDDEN
10
0.071923
20
0.067221
30
0.0
11
0.071416
21
0.067833
31
0.0
0
LINE
8
TOP_HID
6
HIDDEN
10
0.071416
20
0.067833
30
0.0
11
0.070893
21
0.068432
31
0.0
0
LINE
8
TOP_HID
6
HIDDEN
10
0.070893
20
0.068432
30
0.0
11
0.070355
21
0.069018
31
0.0
0
LINE
8
TOP_HID
6
HIDDEN
10
0.070355
20
0.069018
30
0.0
11
0.069803
21
0.069590
31
0.0
0
LINE
8
TOP_HID
6
HIDDEN
10
0.069803
20
0.069590
30
0.0
11
0.069236
21
0.070147
31
0.0
0
LINE
8
TOP_HID
6
HIDDEN
10
0.069236
20
0.070147
30
0.0
11
0.068655
21
0.070691
31
0.0
0
LINE
8
TOP_HID
6
HIDDEN
10
0.068655
20
0.070691
30
0.0
11
0.068061
21
0.071219
31
0.0
0
LINE
8
TOP_HID
6
HIDDEN
10
0.068061
20
0.071219
30
0.0
11
0.067454
21
0.071733
31
0.0
0
LINE
8
TOP_HID
6
HIDDEN
10
0.067454
20
0.071733
30
0.0
11
0.066834
21
0.072231
31
0.0
0
LINE
8
TOP_HID
6
HIDDEN
10
0.066834
20
0.072231
30
0.0
11
0.066202
21
0.072713
31
0.0
0
LINE
8
TOP_HID
6
HIDDEN
10
0.066202
20
0.072713
30
0.0
11
0.065558
21
0.073180
31
0.0
0
LINE
8
TOP_HID
6
HIDDEN
10
0.065558
20
0.073180
30
0.0
11
0.064902
21
0.073629
31
0.0
0
LINE
8
TOP_HID
6
HIDDEN
10
0.064902
20
0.073629
30
0.0
11
0.064235
21
0.074063
31
0.0
0
LINE
8
TOP_HID
6
HIDDEN
10
0.064235
20
0.074063
30
0.0
11
0.063558
21
0.074479
31
0.0
0
LINE
8
TOP_HID
6
HIDDEN
10
0.063558
20
0.074479
30
0.0
11
0.062870
21
0.074878
31
0.0
0
LINE
8
TOP_HID
6
HIDDEN
10
0.062870
20
0.074878
30
0.0
11
0.062173
21
0.075260
31
0.0
0
LINE
8
TOP_HID
6
HIDDEN
10
0.062173
20
0.075260
30
0.0
11
0.061466
21
0.075624
31
0.0
0
LINE
8
TOP_HID
6
HIDDEN
10
0.061466
20
0.075624
30
0.0
11
0.060750
21
0.075970
31
0.0
0
LINE
8
TOP_HID
6
HIDDEN
10
0.060750
20
0.075970
30
0.0
11
0.060025
21
0.076297
31
0.0
0
LINE
8
TOP_HID
6
HIDDEN
10
0.060025
20
0.076297
30
0.0
11
0.059293
21
0.076607
31
0.0
0
LINE
8
TOP_HID
6
HIDDEN
10
0.059293
20
0.076607
30
0.0
11
0.058553
21
0.076898
31
0.0
0
LINE
8
TOP_HID
6
HIDDEN
10
0.058553
20
0.076898
30
0.0
11
0.057806
21
0.077170
31
0.0
0
LINE
8
TOP_HID
6
HIDDEN
10
0.057806
20
0.077170
30
0.0
11
0.057052
21
0.077424
31
0.0
0
LINE
8
TOP_HID
6
HIDDEN
10
0.057052
20
0.077424
30
0.0
11
0.056292
21
0.077658
31
0.0
0
LINE
8
TOP_HID
6
HIDDEN
10
0.056292
20
0.077658
30
0.0
11
0.055527
21
0.077873
31
0.0
0
LINE
8
TOP_HID
6
HIDDEN
10
0.055527
20
0.077873
30
0.0
11
0.054756
21
0.078069
31
0.0
0
LINE
8
TOP_HID
6
HIDDEN
10
0.054756
20
0.078069
30
0.0
11
0.053980
21
0.078245
31
0.0
0
LINE
8
TOP_HID
6
HIDDEN
10
0.053980
20
0.078245
30
0.0
11
0.053201
21
0.078402
31
0.0
0
LINE
8
TOP_HID
6
HIDDEN
10
0.053201
20
0.078402
30
0.0
11
0.052418
21
0.078539
31
0.0
0
LINE
8
TOP_HID
6
HIDDEN
10
0.052418
20
0.078539
30
0.0
11
0.051631
21
0.078656
31
0.0
0
LINE
8
TOP_HID
6
HIDDEN
10
0.051631
20
0.078656
30
0.0
11
0.050842
21
0.078754
31
0.0
0
LINE
8
TOP_HID
6
HIDDEN
10
0.050842
20
0.078754
30
0.0
11
0.050051
21
0.078831
31
0.0
0
LINE
8
TOP_HID
6
HIDDEN
10
0.050051
20
0.078831
30
0.0
11
0.049257
21
0.078889
31
0.0
0
LINE
8
TOP_HID
6
HIDDEN
10
0.049257
20
0.078889
30
0.0
11
0.048463
21
0.078927
31
0.0
0
LINE
8
TOP_HID
6
HIDDEN
10
0.048463
20
0.078927
30
0.0
11
0.047668
21
0.078944
31
0.0
0
LINE
8
TOP_HID
6
HIDDEN
10
0.047668
20
0.078944
30
0.0
11
0.046873
21
0.078942
31
0.0
0
LINE
8
TOP_HID
6
HIDDEN
10
0.046873
20
0.015792
30
0.0
11
0.047668
21
0.015789
31
0.0
0
LINE
8
TOP_HID
6
HIDDEN
10
0.047668
20
0.015789
30
0.0
11
0.048463
21
0.015807
31
0.0
0
LINE
8
TOP_HID
6
HIDDEN
10
0.048463
20
0.015807
30
0.0
11
0.049257
21
0.015845
31
0.0
0
LINE
8
TOP_HID
6
HIDDEN
10
0.049257
20
0.015845
30
0.0
11
0.050051
21
0.015902
31
0.0
0
LINE
8
TOP_HID
6
HIDDEN
10
0.050051
20
0.015902
30
0.0
11
0.050842
21
0.015980
31
0.0
0
LINE
8
TOP_HID
6
HIDDEN
10
0.050842
20
0.015980
30
0.0
11
0.051631
21
0.016077
31
0.0
0
LINE
8
TOP_HID
6
HIDDEN
10
0.051631
20
0.016077
30
0.0
11
0.052418
21
0.016194
31
0.0
0
LINE
8
TOP_HID
6
HIDDEN
10
0.052418
20
0.016194
30
0.0
11
0.053201
21
0.016331
31
0.0
0
LINE
8
TOP_HID
6
HIDDEN
10
0.053201
20
0.016331
30
0.0
11
0.053980
21
0.016488
31
0.0
0
LINE
8
TOP_HID
6
HIDDEN
10
0.053980
20
0.016488
30
0.0
11
0.054756
21
0.016665
31
0.0
0
LINE
8
TOP_HID
6
HIDDEN
10
0.054756
20
0.016665
30
0.0
11
0.055527
21
0.016860
31
0.0
0
LINE
8
TOP_HID
6
HIDDEN
10
0.055527
20
0.016860
30
0.0
11
0.056292
21
0.017075
31
0.0
0
LINE
8
TOP_HID
6
HIDDEN
10
0.056292
20
0.017075
30
0.0
11
0.057052
21
0.017310
31
0.0
0
LINE
8
TOP_HID
6
HIDDEN
10
0.057052
20
0.017310
30
0.0
11
0.057806
21
0.017563
31
0.0
0
LINE
8
TOP_HID
6
HIDDEN
10
0.057806
20
0.017563
30
0.0
11
0.058553
21
0.017835
31
0.0
0
LINE
8
TOP_HID
6
HIDDEN
10
0.058553
20
0.017835
30
0.0
11
0.059293
21
0.018127
31
0.0
0
LINE
8
TOP_HID
6
HIDDEN
10
0.059293
20
0.018127
30
0.0
11
0.060025
21
0.018436
31
0.0
0
LINE
8
TOP_HID
6
HIDDEN
10
0.060025
20
0.018436
30
0.0
11
0.060750
21
0.018764
31
0.0
0
LINE
8
TOP_HID
6
HIDDEN
10
0.060750
20
0.018764
30
0.0
11
0.061466
21
0.019110
31
0.0
0
LINE
8
TOP_HID
6
HIDDEN
10
0.061466
20
0.019110
30
0.0
11
0.062173
21
0.019474
31
0.0
0
LINE
8
TOP_HID
6
HIDDEN
10
0.062173
20
0.019474
30
0.0
11
0.062870
21
0.019856
31
0.0
0
LINE
8
TOP_HID
6
HIDDEN
10
0.062870
20
0.019856
30
0.0
11
0.063558
21
0.020255
31
0.0
0
LINE
8
TOP_HID
6
HIDDEN
10
0.063558
20
0.020255
30
0.0
11
0.064235
21
0.020671
31
0.0
0
LINE
8
TOP_HID
6
HIDDEN
10
0.064235
20
0.020671
30
0.0
11
0.064902
21
0.021104
31
0.0
0
LINE
8
TOP_HID
6
HIDDEN
10
0.064902
20
0.021104
30
0.0
11
0.065558
21
0.021554
31
0.0
0
LINE
8
TOP_HID
6
HIDDEN
10
0.065558
20
0.021554
30
0.0
11
0.066202
21
0.022020
31
0.0
0
LINE
8
TOP_HID
6
HIDDEN
10
0.066202
20
0.022020
30
0.0
11
0.066834
21
0.022503
31
0.0
0
LINE
8
TOP_HID
6
HIDDEN
10
0.066834
20
0.022503
30
0.0
11
0.067454
21
0.023001
31
0.0
0
LINE
8
TOP_HID
6
HIDDEN
10
0.067454
20
0.023001
30
0.0
11
0.068061
21
0.023514
31
0.0
0
LINE
8
TOP_HID
6
HIDDEN
10
0.068061
20
0.023514
30
0.0
11
0.068655
21
0.024043
31
0.0
0
LINE
8
TOP_HID
6
HIDDEN
10
0.068655
20
0.024043
30
0.0
11
0.069236
21
0.024586
31
0.0
0
LINE
8
TOP_HID
6
HIDDEN
10
0.069236
20
0.024586
30
0.0
11
0.069803
21
0.025144
31
0.0
0
LINE
8
TOP_HID
6
HIDDEN
10
0.069803
20
0.025144
30
0.0
11
0.070355
21
0.025716
31
0.0
0
LINE
8
TOP_HID
6
HIDDEN
10
0.070355
20
0.025716
30
0.0
11
0.070893
21
0.026302
31
0.0
0
LINE
8
TOP_HID
6
HIDDEN
10
0.070893
20
0.026302
30
0.0
11
0.071416
21
0.026901
31
0.0
0
LINE
8
TOP_HID
6
HIDDEN
10
0.071416
20
0.026901
30
0.0
11
0.071923
21
0.027513
31
0.0
0
LINE
8
TOP_HID
6
HIDDEN
10
0.071923
20
0.027513
30
0.0
11
0.072416
21
0.028137
31
0.0
0
LINE
8
TOP_HID
6
HIDDEN
10
0.072416
20
0.028137
30
0.0
11
0.072892
21
0.028774
31
0.0
0
LINE
8
TOP_HID
6
HIDDEN
10
0.072892
20
0.028774
30
0.0
11
0.073352
21
0.029423
31
0.0
0
LINE
8
TOP_HID
6
HIDDEN
10
0.073352
20
0.029423
30
0.0
11
0.073795
21
0.030083
31
0.0
0
LINE
8
TOP_HID
6
HIDDEN
10
0.073795
20
0.030083
30
0.0
11
0.074222
21
0.030754
31
0.0
0
LINE
8
TOP_HID
6
HIDDEN
10
0.074222
20
0.030754
30
0.0
11
0.074632
21
0.031435
31
0.0
0
LINE
8
TOP_HID
6
HIDDEN
10
0.074632
20
0.031435
30
0.0
11
0.075024
21
0.032127
31
0.0
0
LINE
8
TOP_HID
6
HIDDEN
10
0.075024
20
0.032127
30
0.0
11
0.075399
21
0.032828
31
0.0
0
LINE
8
TOP_HID
6
HIDDEN
10
0.075399
20
0.032828
30
0.0
11
0.075757
21
0.033538
31
0.0
0
LINE
8
TOP_HID
6
HIDDEN
10
0.075757
20
0.033538
30
0.0
11
0.076096
21
0.034258
31
0.0
0
LINE
8
TOP_HID
6
HIDDEN
10
0.076096
20
0.034258
30
0.0
11
0.076417
21
0.034985
31
0.0
0
LINE
8
TOP_HID
6
HIDDEN
10
0.076417
20
0.034985
30
0.0
11
0.076719
21
0.035720
31
0.0
0
LINE
8
TOP_HID
6
HIDDEN
10
0.076719
20
0.035720
30
0.0
11
0.077003
21
0.036463
31
0.0
0
LINE
8
TOP_HID
6
HIDDEN
10
0.077003
20
0.036463
30
0.0
11
0.077268
21
0.037213
31
0.0
0
LINE
8
TOP_HID
6
HIDDEN
10
0.077268
20
0.037213
30
0.0
11
0.077515
21
0.037969
31
0.0
0
LINE
8
TOP_HID
6
HIDDEN
10
0.077515
20
0.037969
30
0.0
11
0.077742
21
0.038731
31
0.0
0
LINE
8
TOP_HID
6
HIDDEN
10
0.077742
20
0.038731
30
0.0
11
0.077949
21
0.039499
31
0.0
0
LINE
8
TOP_HID
6
HIDDEN
10
0.077949
20
0.039499
30
0.0
11
0.078138
21
0.040271
31
0.0
0
LINE
8
TOP_HID
6
HIDDEN
10
0.078138
20
0.040271
30
0.0
11
0.078307
21
0.041048
31
0.0
0
LINE
8
TOP_HID
6
HIDDEN
10
0.078307
20
0.041048
30
0.0
11
0.078456
21
0.041829
31
0.0
0
LINE
8
TOP_HID
6
HIDDEN
10
0.078456
20
0.041829
30
0.0
11
0.078586
21
0.042614
31
0.0
0
LINE
8
TOP_HID
6
HIDDEN
10
0.078586
20
0.042614
30
0.0
11
0.078695
21
0.043401
31
0.0
0
LINE
8
TOP_HID
6
HIDDEN
10
0.078695
20
0.043401
30
0.0
11
0.078785
21
0.044191
31
0.0
0
LINE
8
TOP_HID
6
HIDDEN
10
0.078785
20
0.044191
30
0.0
11
0.078855
21
0.044983
31
0.0
0
LINE
8
TOP_HID
6
HIDDEN
10
0.078855
20
0.044983
30
0.0
11
0.078905
21
0.045777
31
0.0
0
LINE
8
TOP_HID
6
HIDDEN
10
0.078905
20
0.045777
30
0.0
11
0.078935
21
0.046572
31
0.0
0
LINE
8
TOP_HID
6
HIDDEN
10
0.078935
20
0.046572
30
0.0
11
0.078945
21
0.047367
31
0.0
0
LINE
8
TOP_HID
6
HIDDEN
10
0.046873
20
0.000492
30
0.0
11
0.046873
21
0.015792
31
0.0
0
LINE
8
TOP_HID
6
HIDDEN
10
0.040547
20
0.000492
30
0.0
11
0.046873
21
0.000492
31
0.0
0
LINE
8
TOP_HID
6
HIDDEN
10
0.046873
20
0.094733
30
0.0
11
0.046873
21
0.078942
31
0.0
0
LINE
8
TOP_HID
6
HIDDEN
10
0.046873
20
0.078942
30
0.0
11
0.046612
21
0.078937
31
0.0
0
LINE
8
TOP_HID
6
HIDDEN
10
0.046612
20
0.078937
30
0.0
11
0.046352
21
0.078929
31
0.0
0
LINE
8
TOP_HID
6
HIDDEN
10
0.046352
20
0.078929
30
0.0
11
0.046091
21
0.078920
31
0.0
0
LINE
8
TOP_HID
6
HIDDEN
10
0.046091
20
0.078920
30
0.0
11
0.045831
21
0.078908
31
0.0
0
LINE
8
TOP_HID
6
HIDDEN
10
0.045831
20
0.078908
30
0.0
11
0.045571
21
0.078895
31
0.0
0
LINE
8
TOP_HID
6
HIDDEN
10
0.045571
20
0.078895
30
0.0
11
0.045310
21
0.078879
31
0.0
0
LINE
8
TOP_HID
6
HIDDEN
10
0.045310
20
0.078879
30
0.0
11
0.045050
21
0.078861
31
0.0
0
LINE
8
TOP_HID
6
HIDDEN
10
0.045050
20
0.078861
30
0.0
11
0.044790
21
0.078840
31
0.0
0
LINE
8
TOP_HID
6
HIDDEN
10
0.044790
20
0.078840
30
0.0
11
0.044531
21
0.078818
31
0.0
0
LINE
8
TOP_HID
6
HIDDEN
10
0.044531
20
0.078818
30
0.0
11
0.044271
21
0.078794
31
0.0
0
LINE
8
TOP_HID
6
HIDDEN
10
0.044271
20
0.078794
30
0.0
11
0.044012
21
0.078767
31
0.0
0
LINE
8
TOP_HID
6
HIDDEN
10
0.044012
20
0.078767
30
0.0
11
0.043753
21
0.078738
31
0.0
0
LINE
8
TOP_HID
6
HIDDEN
10
0.043753
20
0.078738
30
0.0
11
0.043494
21
0.078707
31
0.0
0
LINE
8
TOP_HID
6
HIDDEN
10
0.043494
20
0.078707
30
0.0
11
0.043235
21
0.078674
31
0.0
0
LINE
8
TOP_HID
6
HIDDEN
10
0.043235
20
0.078674
30
0.0
11
0.042977
21
0.078639
31
0.0
0
LINE
8
TOP_HID
6
HIDDEN
10
0.042977
20
0.078639
30
0.0
11
0.042719
21
0.078602
31
0.0
0
LINE
8
TOP_HID
6
HIDDEN
10
0.042719
20
0.078602
30
0.0
11
0.042461
21
0.078562
31
0.0
0
LINE
8
TOP_HID
6
HIDDEN
10
0.042461
20
0.078562
30
0.0
11
0.042204
21
0.078521
31
0.0
0
LINE
8
TOP_HID
6
HIDDEN
10
0.042204
20
0.078521
30
0.0
11
0.041947
21
0.078477
31
0.0
0
LINE
8
TOP_HID
6
HIDDEN
10
0.041947
20
0.078477
30
0.0
11
0.041691
21
0.078431
31
0.0
0
LINE
8
TOP_HID
6
HIDDEN
10
0.041691
20
0.078431
30
0.0
11
0.041434
21
0.078384
31
0.0
0
LINE
8
TOP_HID
6
HIDDEN
10
0.041434
20
0.078384
30
0.0
11
0.041178
21
0.078334
31
0.0
0
LINE
8
TOP_HID
6
HIDDEN
10
0.041178
20
0.078334
30
0.0
11
0.040923
21
0.078281
31
0.0
0
LINE
8
TOP_HID
6
HIDDEN
10
0.040923
20
0.078281
30
0.0
11
0.040668
21
0.078227
31
0.0
0
LINE
8
TOP_HID
6
HIDDEN
10
0.040668
20
0.078227
30
0.0
11
0.040414
21
0.078171
31
0.0
0
LINE
8
TOP_HID
6
HIDDEN
10
0.040414
20
0.078171
30
0.0
11
0.040160
21
0.078112
31
0.0
0
LINE
8
TOP_HID
6
HIDDEN
10
0.040160
20
0.078112
30
0.0
11
0.039906
21
0.078052
31
0.0
0
LINE
8
TOP_HID
6
HIDDEN
10
0.039906
20
0.078052
30
0.0
11
0.039653
21
0.077989
31
0.0
0
LINE
8
TOP_HID
6
HIDDEN
10
0.039653
20
0.077989
30
0.0
11
0.039400
21
0.077924
31
0.0
0
LINE
8
TOP_HID
6
HIDDEN
10
0.039400
20
0.077924
30
0.0
11
0.039148
21
0.077858
31
0.0
0
LINE
8
TOP_HID
6
HIDDEN
10
0.039148
20
0.077858
30
0.0
11
0.038897
21
0.077789
31
0.0
0
LINE
8
TOP_HID
6
HIDDEN
10
0.038897
20
0.077789
30
0.0
11
0.038646
21
0.077718
31
0.0
0
LINE
8
TOP_HID
6
HIDDEN
10
0.038646
20
0.077718
30
0.0
11
0.038396
21
0.077645
31
0.0
0
LINE
8
TOP_HID
6
HIDDEN
10
0.038396
20
0.077645
30
0.0
11
0.038146
21
0.077570
31
0.0
0
LINE
8
TOP_HID
6
HIDDEN
10
0.038146
20
0.077570
30
0.0
11
0.037897
21
0.077493
31
0.0
0
LINE
8
TOP_HID
6
HIDDEN
10
0.037897
20
0.077493
30
0.0
11
0.037649
21
0.077413
31
0.0
0
LINE
8
TOP_HID
6
HIDDEN
10
0.037649
20
0.077413
30
0.0
11
0.037401
21
0.077332
31
0.0
0
LINE
8
TOP_HID
6
HIDDEN
10
0.037401
20
0.077332
30
0.0
11
0.037154
21
0.077249
31
0.0
0
LINE
8
TOP_HID
6
HIDDEN
10
0.037154
20
0.077249
30
0.0
11
0.036908
21
0.077164
31
0.0
0
LINE
8
TOP_HID
6
HIDDEN
10
0.036908
20
0.077164
30
0.0
11
0.036662
21
0.077076
31
0.0
0
LINE
8
TOP_HID
6
HIDDEN
10
0.036662
20
0.077076
30
0.0
11
0.036418
21
0.076987
31
0.0
0
LINE
8
TOP_HID
6
HIDDEN
10
0.036418
20
0.076987
30
0.0
11
0.036173
21
0.076896
31
0.0
0
LINE
8
TOP_HID
6
HIDDEN
10
0.036173
20
0.076896
30
0.0
11
0.035930
21
0.076802
31
0.0
0
LINE
8
TOP_HID
6
HIDDEN
10
0.035930
20
0.076802
30
0.0
11
0.035687
21
0.076707
31
0.0
0
LINE
8
TOP_HID
6
HIDDEN
10
0.035687
20
0.076707
30
0.0
11
0.035446
21
0.076609
31
0.0
0
LINE
8
TOP_HID
6
HIDDEN
10
0.035446
20
0.076609
30
0.0
11
0.035205
21
0.076510
31
0.0
0
LINE
8
TOP_HID
6
HIDDEN
10
0.035205
20
0.076510
30
0.0
11
0.034965
21
0.076409
31
0.0
0
LINE
8
TOP_HID
6
HIDDEN
10
0.034965
20
0.076409
30
0.0
11
0.034725
21
0.076305
31
0.0
0
LINE
8
TOP_HID
6
HIDDEN
10
0.034725
20
0.076305
30
0.0
11
0.034487
21
0.076200
31
0.0
0
LINE
8
TOP_HID
6
HIDDEN
10
0.034487
20
0.076200
30
0.0
11
0.034249
21
0.076093
31
0.0
0
LINE
8
TOP_HID
6
HIDDEN
10
0.034249
20
0.076093
30
0.0
11
0.034013
21
0.075983
31
0.0
0
LINE
8
TOP_HID
6
HIDDEN
10
0.034013
20
0.075983
30
0.0
11
0.033777
21
0.075872
31
0.0
0
LINE
8
TOP_HID
6
HIDDEN
10
0.033777
20
0.075872
30
0.0
11
0.033542
21
0.075759
31
0.0
0
LINE
8
TOP_HID
6
HIDDEN
10
0.033542
20
0.075759
30
0.0
11
0.033308
21
0.075644
31
0.0
0
LINE
8
TOP_HID
6
HIDDEN
10
0.033308
20
0.075644
30
0.0
11
0.033075
21
0.075527
31
0.0
0
LINE
8
TOP_HID
6
HIDDEN
10
0.033075
20
0.075527
30
0.0
11
0.032843
21
0.075408
31
0.0
0
LINE
8
TOP_HID
6
HIDDEN
10
0.032843
20
0.075408
30
0.0
11
0.032612
21
0.075287
31
0.0
0
LINE
8
TOP_HID
6
HIDDEN
10
0.032612
20
0.075287
30
0.0
11
0.032382
21
0.075164
31
0.0
0
LINE
8
TOP_HID
6
HIDDEN
10
0.032382
20
0.075164
30
0.0
11
0.032153
21
0.075040
31
0.0
0
LINE
8
TOP_HID
6
HIDDEN
10
0.032153
20
0.075040
30
0.0
11
0.031925
21
0.074913
31
0.0
0
LINE
8
TOP_HID
6
HIDDEN
10
0.031925
20
0.074913
30
0.0
11
0.031699
21
0.074785
31
0.0
0
LINE
8
TOP_HID
6
HIDDEN
10
0.031699
20
0.074785
30
0.0
11
0.031473
21
0.074654
31
0.0
0
LINE
8
TOP_HID
6
HIDDEN
10
0.031473
20
0.074654
30
0.0
11
0.031248
21
0.074522
31
0.0
0
LINE
8
TOP_HID
6
HIDDEN
10
0.031248
20
0.074522
30
0.0
11
0.030811
21
0.074258
31
0.0
0
LINE
8
TOP_HID
6
HIDDEN
10
0.030811
20
0.074258
30
0.0
11
0.030378
21
0.073987
31
0.0
0
LINE
8
TOP_HID
6
HIDDEN
10
0.030378
20
0.073987
30
0.0
11
0.029949
21
0.073708
31
0.0
0
LINE
8
TOP_HID
6
HIDDEN
10
0.029949
20
0.073708
30
0.0
11
0.029525
21
0.073423
31
0.0
0
LINE
8
TOP_HID
6
HIDDEN
10
0.029525
20
0.073423
30
0.0
11
0.029106
21
0.073131
31
0.0
0
LINE
8
TOP_HID
6
HIDDEN
10
0.029106
20
0.073131
30
0.0
11
0.028691
21
0.072832
31
0.0
0
LINE
8
TOP_HID
6
HIDDEN
10
0.028691
20
0.072832
30
0.0
11
0.028282
21
0.072526
31
0.0
0
LINE
8
TOP_HID
6
HIDDEN
10
0.028282
20
0.072526
30
0.0
11
0.027877
21
0.072214
31
0.0
0
LINE
8
TOP_HID
6
HIDDEN
10
0.027877
20
0.072214
30
0.0
11
0.027478
21
0.071896
31
0.0
0
LINE
8
TOP_HID
6
HIDDEN
10
0.027478
20
0.071896
30
0.0
11
0.027083
21
0.071571
31
0.0
0
LINE
8
TOP_HID
6
HIDDEN
10
0.027083
20
0.071571
30
0.0
11
0.026694
21
0.071239
31
0.0
0
LINE
8
TOP_HID
6
HIDDEN
10
0.026694
20
0.071239
30
0.0
11
0.026311
21
0.070902
31
0.0
0
LINE
8
TOP_HID
6
HIDDEN
10
0.026311
20
0.070902
30
0.0
11
0.025933
21
0.070558
31
0.0
0
LINE
8
TOP_HID
6
HIDDEN
10
0.025933
20
0.070558
30
0.0
11
0.025560
21
0.070208
31
0.0
0
LINE
8
TOP_HID
6
HIDDEN
10
0.025560
20
0.070208
30
0.0
11
0.025193
21
0.069852
31
0.0
0
LINE
8
TOP_HID
6
HIDDEN
10
0.025193
20
0.069852
30
0.0
11
0.024832
21
0.069490
31
0.0
0
LINE
8
TOP_HID
6
HIDDEN
10
0.024832
20
0.069490
30
0.0
11
0.024477
21
0.069123
31
0.0
0
LINE
8
TOP_HID
6
HIDDEN
10
0.024477
20
0.069123
30
0.0
11
0.024128
21
0.068749
31
0.0
0
LINE
8
TOP_HID
6
HIDDEN
10
0.024128
20
0.068749
30
0.0
11
0.023785
21
0.068371
31
0.0
0
LINE
8
TOP_HID
6
HIDDEN
10
0.023785
20
0.068371
30
0.0
11
0.023449
21
0.067986
31
0.0
0
LINE
8
TOP_HID
6
HIDDEN
10
0.023449
20
0.067986
30
0.0
11
0.023118
21
0.067597
31
0.0
0
LINE
8
TOP_HID
6
HIDDEN
10
0.023118
20
0.067597
30
0.0
11
0.022794
21
0.067202
31
0.0
0
LINE
8
TOP_HID
6
HIDDEN
10
0.022794
20
0.067202
30
0.0
11
0.022476
21
0.066801
31
0.0
0
LINE
8
TOP_HID
6
HIDDEN
10
0.022476
20
0.066801
30
0.0
11
0.022165
21
0.066396
31
0.0
0
LINE
8
TOP_HID
6
HIDDEN
10
0.022165
20
0.066396
30
0.0
11
0.021860
21
0.065986
31
0.0
0
LINE
8
TOP_HID
6
HIDDEN
10
0.021860
20
0.065986
30
0.0
11
0.021562
21
0.065571
31
0.0
0
LINE
8
TOP_HID
6
HIDDEN
10
0.021562
20
0.065571
30
0.0
11
0.021271
21
0.065151
31
0.0
0
LINE
8
TOP_HID
6
HIDDEN
10
0.021271
20
0.065151
30
0.0
11
0.020987
21
0.064726
31
0.0
0
LINE
8
TOP_HID
6
HIDDEN
10
0.020987
20
0.064726
30
0.0
11
0.020709
21
0.064297
31
0.0
0
LINE
8
TOP_HID
6
HIDDEN
10
0.020709
20
0.064297
30
0.0
11
0.020439
21
0.063863
31
0.0
0
LINE
8
TOP_HID
6
HIDDEN
10
0.020439
20
0.063863
30
0.0
11
0.020175
21
0.063425
31
0.0
0
LINE
8
TOP_HID
6
HIDDEN
10
0.020175
20
0.063425
30
0.0
11
0.019919
21
0.062983
31
0.0
0
LINE
8
TOP_HID
6
HIDDEN
10
0.019919
20
0.062983
30
0.0
11
0.019670
21
0.062537
31
0.0
0
LINE
8
TOP_HID
6
HIDDEN
10
0.019670
20
0.062537
30
0.0
11
0.019428
21
0.062087
31
0.0
0
LINE
8
TOP_HID
6
HIDDEN
10
0.019428
20
0.062087
30
0.0
11
0.019194
21
0.061633
31
0.0
0
LINE
8
TOP_HID
6
HIDDEN
10
0.019194
20
0.061633
30
0.0
11
0.018966
21
0.061175
31
0.0
0
LINE
8
TOP_HID
6
HIDDEN
10
0.018966
20
0.061175
30
0.0
11
0.018747
21
0.060714
31
0.0
0
LINE
8
TOP_HID
6
HIDDEN
10
0.018747
20
0.060714
30
0.0
11
0.018534
21
0.060249
31
0.0
0
LINE
8
TOP_HID
6
HIDDEN
10
0.018534
20
0.060249
30
0.0
11
0.018330
21
0.059781
31
0.0
0
LINE
8
TOP_HID
6
HIDDEN
10
0.018330
20
0.059781
30
0.0
11
0.018133
21
0.059309
31
0.0
0
LINE
8
TOP_HID
6
HIDDEN
10
0.018133
20
0.059309
30
0.0
11
0.017943
21
0.058835
31
0.0
0
LINE
8
TOP_HID
6
HIDDEN
10
0.017943
20
0.058835
30
0.0
11
0.017762
21
0.058357
31
0.0
0
LINE
8
TOP_HID
6
HIDDEN
10
0.017762
20
0.058357
30
0.0
11
0.017588
21
0.057876
31
0.0
0
LINE
8
TOP_HID
6
HIDDEN
10
0.017588
20
0.057876
30
0.0
11
0.017421
21
0.057393
31
0.0
0
LINE
8
TOP_HID
6
HIDDEN
10
0.017421
20
0.057393
30
0.0
11
0.017263
21
0.056907
31
0.0
0
LINE
8
TOP_HID
6
HIDDEN
10
0.017263
20
0.056907
30
0.0
11
0.017113
21
0.056419
31
0.0
0
LINE
8
TOP_HID
6
HIDDEN
10
0.017113
20
0.056419
30
0.0
11
0.016970
21
0.055928
31
0.0
0
LINE
8
TOP_HID
6
HIDDEN
10
0.016970
20
0.055928
30
0.0
11
0.016836
21
0.055435
31
0.0
0
LINE
8
TOP_HID
6
HIDDEN
10
0.016836
20
0.055435
30
0.0
11
0.016709
21
0.054940
31
0.0
0
LINE
8
TOP_HID
6
HIDDEN
10
0.016709
20
0.054940
30
0.0
11
0.016591
21
0.054443
31
0.0
0
LINE
8
TOP_HID
6
HIDDEN
10
0.016591
20
0.054443
30
0.0
11
0.016480
21
0.053944
31
0.0
0
LINE
8
TOP_HID
6
HIDDEN
10
0.016480
20
0.053944
30
0.0
11
0.016378
21
0.053443
31
0.0
0
LINE
8
TOP_HID
6
HIDDEN
10
0.016378
20
0.053443
30
0.0
11
0.016283
21
0.052941
31
0.0
0
LINE
8
TOP_HID
6
HIDDEN
10
0.016283
20
0.052941
30
0.0
11
0.016197
21
0.052437
31
0.0
0
LINE
8
TOP_HID
6
HIDDEN
10
0.016197
20
0.052437
30
0.0
11
0.016119
21
0.051932
31
0.0
0
LINE
8
TOP_HID
6
HIDDEN
10
0.016119
20
0.051932
30
0.0
11
0.016049
21
0.051426
31
0.0
0
LINE
8
TOP_HID
6
HIDDEN
10
0.016049
20
0.051426
30
0.0
11
0.015988
21
0.050919
31
0.0
0
LINE
8
TOP_HID
6
HIDDEN
10
0.015988
20
0.050919
30
0.0
11
0.015934
21
0.050411
31
0.0
0
LINE
8
TOP_HID
6
HIDDEN
10
0.015934
20
0.050411
30
0.0
11
0.015889
21
0.049902
31
0.0
0
LINE
8
TOP_HID
6
HIDDEN
10
0.015889
20
0.049902
30
0.0
11
0.015852
21
0.049392
31
0.0
0
LINE
8
TOP_HID
6
HIDDEN
10
0.015852
20
0.049392
30
0.0
11
0.015824
21
0.048882
31
0.0
0
LINE
8
TOP_HID
6
HIDDEN
10
0.015824
20
0.048882
30
0.0
11
0.015803
21
0.048371
31
0.0
0
LINE
8
TOP_HID
6
HIDDEN
10
0.015803
20
0.048371
30
0.0
11
0.015791
21
0.047860
31
0.0
0
LINE
8
TOP_HID
6
HIDDEN
10
0.015791
20
0.047860
30
0.0
11
0.015787
21
0.047334
31
0.0
0
LINE
8
TOP_HID
6
HIDDEN
10
0.015787
20
0.047334
30
0.0
11
0.015792
21
0.046807
31
0.0
0
LINE
8
TOP_HID
6
HIDDEN
10
0.015792
20
0.046807
30
0.0
11
0.015806
21
0.046280
31
0.0
0
LINE
8
TOP_HID
6
HIDDEN
10
0.015806
20
0.046280
30
0.0
11
0.015829
21
0.045754
31
0.0
0
LINE
8
TOP_HID
6
HIDDEN
10
0.015829
20
0.045754
30
0.0
11
0.015860
21
0.045228
31
0.0
0
LINE
8
TOP_HID
6
HIDDEN
10
0.015860
20
0.045228
30
0.0
11
0.015900
21
0.044703
31
0.0
0
LINE
8
TOP_HID
6
HIDDEN
10
0.015900
20
0.044703
30
0.0
11
0.015949
21
0.044179
31
0.0
0
LINE
8
TOP_HID
6
HIDDEN
10
0.015949
20
0.044179
30
0.0
11
0.016006
21
0.043655
31
0.0
0
LINE
8
TOP_HID
6
HIDDEN
10
0.016006
20
0.043655
30
0.0
11
0.016073
21
0.043133
31
0.0
0
LINE
8
TOP_HID
6
HIDDEN
10
0.016073
20
0.043133
30
0.0
11
0.016148
21
0.042611
31
0.0
0
LINE
8
TOP_HID
6
HIDDEN
10
0.016148
20
0.042611
30
0.0
11
0.016231
21
0.042091
31
0.0
0
LINE
8
TOP_HID
6
HIDDEN
10
0.016231
20
0.042091
30
0.0
11
0.016324
21
0.041573
31
0.0
0
LINE
8
TOP_HID
6
HIDDEN
10
0.016324
20
0.041573
30
0.0
11
0.016424
21
0.041056
31
0.0
0
LINE
8
TOP_HID
6
HIDDEN
10
0.016424
20
0.041056
30
0.0
11
0.016534
21
0.040541
31
0.0
0
LINE
8
TOP_HID
6
HIDDEN
10
0.016534
20
0.040541
30
0.0
11
0.016652
21
0.040028
31
0.0
0
LINE
8
TOP_HID
6
HIDDEN
10
0.016652
20
0.040028
30
0.0
11
0.016779
21
0.039516
31
0.0
0
LINE
8
TOP_HID
6
HIDDEN
10
0.016779
20
0.039516
30
0.0
11
0.016914
21
0.039007
31
0.0
0
LINE
8
TOP_HID
6
HIDDEN
10
0.016914
20
0.039007
30
0.0
11
0.017058
21
0.038501
31
0.0
0
LINE
8
TOP_HID
6
HIDDEN
10
0.017058
20
0.038501
30
0.0
11
0.017210
21
0.037996
31
0.0
0
LINE
8
TOP_HID
6
HIDDEN
10
0.017210
20
0.037996
30
0.0
11
0.017370
21
0.037495
31
0.0
0
LINE
8
TOP_HID
6
HIDDEN
10
0.017370
20
0.037495
30
0.0
11
0.017539
21
0.036996
31
0.0
0
LINE
8
TOP_HID
6
HIDDEN
10
0.017539
20
0.036996
30
0.0
11
0.017716
21
0.036500
31
0.0
0
LINE
8
TOP_HID
6
HIDDEN
10
0.017716
20
0.036500
30
0.0
11
0.017902
21
0.036007
31
0.0
0
LINE
8
TOP_HID
6
HIDDEN
10
0.017902
20
0.036007
30
0.0
11
0.018095
21
0.035517
31
0.0
0
LINE
8
TOP_HID
6
HIDDEN
10
0.018095
20
0.035517
30
0.0
11
0.018297
21
0.035030
31
0.0
0
LINE
8
TOP_HID
6
HIDDEN
10
0.018297
20
0.035030
30
0.0
11
0.018507
21
0.034547
31
0.0
0
LINE
8
TOP_HID
6
HIDDEN
10
0.018507
20
0.034547
30
0.0
11
0.018724
21
0.034068
31
0.0
0
LINE
8
TOP_HID
6
HIDDEN
10
0.018724
20
0.034068
30
0.0
11
0.018950
21
0.033592
31
0.0
0
LINE
8
TOP_HID
6
HIDDEN
10
0.018950
20
0.033592
30
0.0
11
0.019184
21
0.033120
31
0.0
0
LINE
8
TOP_HID
6
HIDDEN
10
0.019184
20
0.033120
30
0.0
11
0.019425
21
0.032652
31
0.0
0
LINE
8
TOP_HID
6
HIDDEN
10
0.019425
20
0.032652
30
0.0
11
0.019675
21
0.032188
31
0.0
0
LINE
8
TOP_HID
6
HIDDEN
10
0.019675
20
0.032188
30
0.0
11
0.019932
21
0.031728
31
0.0
0
LINE
8
TOP_HID
6
HIDDEN
10
0.019932
20
0.031728
30
0.0
11
0.020196
21
0.031273
31
0.0
0
LINE
8
TOP_HID
6
HIDDEN
10
0.020196
20
0.031273
30
0.0
11
0.020468
21
0.030822
31
0.0
0
LINE
8
TOP_HID
6
HIDDEN
10
0.020468
20
0.030822
30
0.0
11
0.020748
21
0.030376
31
0.0
0
LINE
8
TOP_HID
6
HIDDEN
10
0.020748
20
0.030376
30
0.0
11
0.021035
21
0.029934
31
0.0
0
LINE
8
TOP_HID
6
HIDDEN
10
0.021035
20
0.029934
30
0.0
11
0.021330
21
0.029497
31
0.0
0
LINE
8
TOP_HID
6
HIDDEN
10
0.021330
20
0.029497
30
0.0
11
0.021631
21
0.029066
31
0.0
0
LINE
8
TOP_HID
6
HIDDEN
10
0.021631
20
0.029066
30
0.0
11
0.021940
21
0.028639
31
0.0
0
LINE
8
TOP_HID
6
HIDDEN
10
0.021940
20
0.028639
30
0.0
11
0.022256
21
0.028217
31
0.0
0
LINE
8
TOP_HID
6
HIDDEN
10
0.022256
20
0.028217
30
0.0
11
0.022579
21
0.027801
31
0.0
0
LINE
8
TOP_HID
6
HIDDEN
10
0.022579
20
0.027801
30
0.0
11
0.022909
21
0.027391
31
0.0
0
LINE
8
TOP_HID
6
HIDDEN
10
0.022909
20
0.027391
30
0.0
11
0.023245
21
0.026986
31
0.0
0
LINE
8
TOP_HID
6
HIDDEN
10
0.023245
20
0.026986
30
0.0
11
0.023588
21
0.026586
31
0.0
0
LINE
8
TOP_HID
6
HIDDEN
10
0.023588
20
0.026586
30
0.0
11
0.023938
21
0.026192
31
0.0
0
LINE
8
TOP_HID
6
HIDDEN
10
0.023938
20
0.026192
30
0.0
11
0.024295
21
0.025805
31
0.0
0
LINE
8
TOP_HID
6
HIDDEN
10
0.024295
20
0.025805
30
0.0
11
0.024658
21
0.025423
31
0.0
0
LINE
8
TOP_HID
6
HIDDEN
10
0.024658
20
0.025423
30
0.0
11
0.025027
21
0.025047
31
0.0
0
LINE
8
TOP_HID
6
HIDDEN
10
0.025027
20
0.025047
30
0.0
11
0.025402
21
0.024678
31
0.0
0
LINE
8
TOP_HID
6
HIDDEN
10
0.025402
20
0.024678
30
0.0
11
0.025783
21
0.024314
31
0.0
0
LINE
8
TOP_HID
6
HIDDEN
10
0.025783
20
0.024314
30
0.0
11
0.026171
21
0.023958
31
0.0
0
LINE
8
TOP_HID
6
HIDDEN
10
0.026171
20
0.023958
30
0.0
11
0.026564
21
0.023608
31
0.0
0
LINE
8
TOP_HID
6
HIDDEN
10
0.026564
20
0.023608
30
0.0
11
0.026963
21
0.023264
31
0.0
0
LINE
8
TOP_HID
6
HIDDEN
10
0.026963
20
0.023264
30
0.0
11
0.027368
21
0.022927
31
0.0
0
LINE
8
TOP_HID
6
HIDDEN
10
0.027368
20
0.022927
30
0.0
11
0.027779
21
0.022597
31
0.0
0
LINE
8
TOP_HID
6
HIDDEN
10
0.027779
20
0.022597
30
0.0
11
0.028195
21
0.022274
31
0.0
0
LINE
8
TOP_HID
6
HIDDEN
10
0.028195
20
0.022274
30
0.0
11
0.028616
21
0.021957
31
0.0
0
LINE
8
TOP_HID
6
HIDDEN
10
0.028616
20
0.021957
30
0.0
11
0.029042
21
0.021648
31
0.0
0
LINE
8
TOP_HID
6
HIDDEN
10
0.029042
20
0.021648
30
0.0
11
0.029474
21
0.021346
31
0.0
0
LINE
8
TOP_HID
6
HIDDEN
10
0.029474
20
0.021346
30
0.0
11
0.029910
21
0.021051
31
0.0
0
LINE
8
TOP_HID
6
HIDDEN
10
0.029910
20
0.021051
30
0.0
11
0.030351
21
0.020764
31
0.0
0
LINE
8
TOP_HID
6
HIDDEN
10
0.030351
20
0.020764
30
0.0
11
0.030797
21
0.020484
31
0.0
0
LINE
8
TOP_HID
6
HIDDEN
10
0.030797
20
0.020484
30
0.0
11
0.031248
21
0.020211
31
0.0
0
LINE
8
TOP_HID
6
HIDDEN
10
0.046873
20
0.015792
30
0.0
11
0.046873
21
0.000492
31
0.0
0
LINE
8
TOP_HID
6
HIDDEN
10
0.031248
20
0.020211
30
0.0
11
0.031473
21
0.020079
31
0.0
0
LINE
8
TOP_HID
6
HIDDEN
10
0.031473
20
0.020079
30
0.0
11
0.031699
21
0.019949
31
0.0
0
LINE
8
TOP_HID
6
HIDDEN
10
0.031699
20
0.019949
30
0.0
11
0.031925
21
0.019820
31
0.0
0
LINE
8
TOP_HID
6
HIDDEN
10
0.031925
20
0.019820
30
0.0
11
0.032153
21
0.019694
31
0.0
0
LINE
8
TOP_HID
6
HIDDEN
10
0.032153
20
0.019694
30
0.0
11
0.032382
21
0.019569
31
0.0
0
LINE
8
TOP_HID
6
HIDDEN
10
0.032382
20
0.019569
30
0.0
11
0.032612
21
0.019446
31
0.0
0
LINE
8
TOP_HID
6
HIDDEN
10
0.032612
20
0.019446
30
0.0
11
0.032843
21
0.019326
31
0.0
0
LINE
8
TOP_HID
6
HIDDEN
10
0.032843
20
0.019326
30
0.0
11
0.033075
21
0.019207
31
0.0
0
LINE
8
TOP_HID
6
HIDDEN
10
0.033075
20
0.019207
30
0.0
11
0.033308
21
0.019090
31
0.0
0
LINE
8
TOP_HID
6
HIDDEN
10
0.033308
20
0.019090
30
0.0
11
0.033542
21
0.018975
31
0.0
0
LINE
8
TOP_HID
6
HIDDEN
10
0.033542
20
0.018975
30
0.0
11
0.033777
21
0.018861
31
0.0
0
LINE
8
TOP_HID
6
HIDDEN
10
0.033777
20
0.018861
30
0.0
11
0.034013
21
0.018750
31
0.0
0
LINE
8
TOP_HID
6
HIDDEN
10
0.034013
20
0.018750
30
0.0
11
0.034249
21
0.018641
31
0.0
0
LINE
8
TOP_HID
6
HIDDEN
10
0.034249
20
0.018641
30
0.0
11
0.034487
21
0.018534
31
0.0
0
LINE
8
TOP_HID
6
HIDDEN
10
0.034487
20
0.018534
30
0.0
11
0.034725
21
0.018428
31
0.0
0
LINE
8
TOP_HID
6
HIDDEN
10
0.034725
20
0.018428
30
0.0
11
0.034965
21
0.018325
31
0.0
0
LINE
8
TOP_HID
6
HIDDEN
10
0.034965
20
0.018325
30
0.0
11
0.035205
21
0.018224
31
0.0
0
LINE
8
TOP_HID
6
HIDDEN
10
0.035205
20
0.018224
30
0.0
11
0.035446
21
0.018124
31
0.0
0
LINE
8
TOP_HID
6
HIDDEN
10
0.035446
20
0.018124
30
0.0
11
0.035687
21
0.018027
31
0.0
0
LINE
8
TOP_HID
6
HIDDEN
10
0.035687
20
0.018027
30
0.0
11
0.035930
21
0.017931
31
0.0
0
LINE
8
TOP_HID
6
HIDDEN
10
0.035930
20
0.017931
30
0.0
11
0.036173
21
0.017838
31
0.0
0
LINE
8
TOP_HID
6
HIDDEN
10
0.036173
20
0.017838
30
0.0
11
0.036418
21
0.017747
31
0.0
0
LINE
8
TOP_HID
6
HIDDEN
10
0.036418
20
0.017747
30
0.0
11
0.036662
21
0.017657
31
0.0
0
LINE
8
TOP_HID
6
HIDDEN
10
0.036662
20
0.017657
30
0.0
11
0.036908
21
0.017570
31
0.0
0
LINE
8
TOP_HID
6
HIDDEN
10
0.036908
20
0.017570
30
0.0
11
0.037154
21
0.017485
31
0.0
0
LINE
8
TOP_HID
6
HIDDEN
10
0.037154
20
0.017485
30
0.0
11
0.037401
21
0.017401
31
0.0
0
LINE
8
TOP_HID
6
HIDDEN
10
0.037401
20
0.017401
30
0.0
11
0.037649
21
0.017320
31
0.0
0
LINE
8
TOP_HID
6
HIDDEN
10
0.037649
20
0.017320
30
0.0
11
0.037897
21
0.017241
31
0.0
0
LINE
8
TOP_HID
6
HIDDEN
10
0.037897
20
0.017241
30
0.0
11
0.038146
21
0.017164
31
0.0
0
LINE
8
TOP_HID
6
HIDDEN
10
0.038146
20
0.017164
30
0.0
11
0.038396
21
0.017089
31
0.0
0
LINE
8
TOP_HID
6
HIDDEN
10
0.038396
20
0.017089
30
0.0
11
0.038646
21
0.017016
31
0.0
0
LINE
8
TOP_HID
6
HIDDEN
10
0.038646
20
0.017016
30
0.0
11
0.038897
21
0.016945
31
0.0
0
LINE
8
TOP_HID
6
HIDDEN
10
0.038897
20
0.016945
30
0.0
11
0.039148
21
0.016876
31
0.0
0
LINE
8
TOP_HID
6
HIDDEN
10
0.039148
20
0.016876
30
0.0
11
0.039400
21
0.016809
31
0.0
0
LINE
8
TOP_HID
6
HIDDEN
10
0.039400
20
0.016809
30
0.0
11
0.039653
21
0.016744
31
0.0
0
LINE
8
TOP_HID
6
HIDDEN
10
0.039653
20
0.016744
30
0.0
11
0.039906
21
0.016682
31
0.0
0
LINE
8
TOP_HID
6
HIDDEN
10
0.039906
20
0.016682
30
0.0
11
0.040160
21
0.016621
31
0.0
0
LINE
8
TOP_HID
6
HIDDEN
10
0.040160
20
0.016621
30
0.0
11
0.040414
21
0.016563
31
0.0
0
LINE
8
TOP_HID
6
HIDDEN
10
0.040414
20
0.016563
30
0.0
11
0.040668
21
0.016506
31
0.0
0
LINE
8
TOP_HID
6
HIDDEN
10
0.040668
20
0.016506
30
0.0
11
0.040923
21
0.016452
31
0.0
0
LINE
8
TOP_HID
6
HIDDEN
10
0.040923
20
0.016452
30
0.0
11
0.041178
21
0.016400
31
0.0
0
LINE
8
TOP_HID
6
HIDDEN
10
0.041178
20
0.016400
30
0.0
11
0.041434
21
0.016350
31
0.0
0
LINE
8
TOP_HID
6
HIDDEN
10
0.041434
20
0.016350
30
0.0
11
0.041691
21
0.016302
31
0.0
0
LINE
8
TOP_HID
6
HIDDEN
10
0.041691
20
0.016302
30
0.0
11
0.041947
21
0.016256
31
0.0
0
LINE
8
TOP_HID
6
HIDDEN
10
0.041947
20
0.016256
30
0.0
11
0.042204
21
0.016213
31
0.0
0
LINE
8
TOP_HID
6
HIDDEN
10
0.042204
20
0.016213
30
0.0
11
0.042461
21
0.016171
31
0.0
0
LINE
8
TOP_HID
6
HIDDEN
10
0.042461
20
0.016171
30
0.0
11
0.042719
21
0.016132
31
0.0
0
LINE
8
TOP_HID
6
HIDDEN
10
0.042719
20
0.016132
30
0.0
11
0.042977
21
0.016094
31
0.0
0
LINE
8
TOP_HID
6
HIDDEN
10
0.042977
20
0.016094
30
0.0
11
0.043235
21
0.016059
31
0.0
0
LINE
8
TOP_HID
6
HIDDEN
10
0.043235
20
0.016059
30
0.0
11
0.043494
21
0.016026
31
0.0
0
LINE
8
TOP_HID
6
HIDDEN
10
0.043494
20
0.016026
30
0.0
11
0.043753
21
0.015995
31
0.0
0
LINE
8
TOP_HID
6
HIDDEN
10
0.043753
20
0.015995
30
0.0
11
0.044012
21
0.015967
31
0.0
0
LINE
8
TOP_HID
6
HIDDEN
10
0.044012
20
0.015967
30
0.0
11
0.044271
21
0.015940
31
0.0
0
LINE
8
TOP_HID
6
HIDDEN
10
0.044271
20
0.015940
30
0.0
11
0.044531
21
0.015915
31
0.0
0
LINE
8
TOP_HID
6
HIDDEN
10
0.044531
20
0.015915
30
0.0
11
0.044790
21
0.015893
31
0.0
0
LINE
8
TOP_HID
6
HIDDEN
10
0.044790
20
0.015893
30
0.0
11
0.045050
21
0.015873
31
0.0
0
LINE
8
TOP_HID
6
HIDDEN
10
0.045050
20
0.015873
30
0.0
11
0.045310
21
0.015855
31
0.0
0
LINE
8
TOP_HID
6
HIDDEN
10
0.045310
20
0.015855
30
0.0
11
0.045571
21
0.015839
31
0.0
0
LINE
8
TOP_HID
6
HIDDEN
10
0.045571
20
0.015839
30
0.0
11
0.045831
21
0.015825
31
0.0
0
LINE
8
TOP_HID
6
HIDDEN
10
0.045831
20
0.015825
30
0.0
11
0.046091
21
0.015814
31
0.0
0
LINE
8
TOP_HID
6
HIDDEN
10
0.046091
20
0.015814
30
0.0
11
0.046352
21
0.015804
31
0.0
0
LINE
8
TOP_HID
6
HIDDEN
10
0.046352
20
0.015804
30
0.0
11
0.046612
21
0.015797
31
0.0
0
LINE
8
TOP_HID
6
HIDDEN
10
0.046612
20
0.015797
30
0.0
11
0.046873
21
0.015792
31
0.0
0
ENDSEC
0
EOF
