0
SECTION
2
HEADER
9
$ACADVER
1
AC1009
0
ENDSEC
0
SECTION
2
TABLES
0
TABLE
2
LTYPE
70
3
0
LTYPE
2
CONTINUOUS
70
0
3
Solid line
72
65
73
0
40
0.0
0
LTYPE
2
HIDDEN
70
0
3
__ __ __ __ __
72
65
73
2
40
0.037109
49
0.024752
49
-0.012357
0
LTYPE
2
CENTER
70
0
3
___ _ ___ _ ___
72
65
73
4
40
0.086576
49
0.049467
49
-0.012357
49
0.012357
49
-0.012357
0
ENDTAB
0
TABLE
2
LAYER
70
6
0
LAYER
2
0
70
0
62
7
6
CONTINUOUS
0
LAYER
2
FRONT
70
0
62
7
6
CONTINUOUS
0
LAYER
2
LEFT
70
0
62
7
6
CONTINUOUS
0
LAYER
2
LEFT_HID
70
0
62
7
6
HIDDEN
0
LAYER
2
TOP
70
0
62
7
6
CONTINUOUS
0
LAYER
2
TOP_HID
70
0
62
7
6
HIDDEN
0
ENDTAB
0
ENDSEC
0
SECTION
2
ENTITIES
0
LINE
8
FRONT
10
0.000000
20
0.164063
30
0.0
11
0.023438
21
0.164063
31
0.0
0
LINE
8
FRONT
10
0.023438
20
0.164063
30
0.0
11
0.023438
21
0.734375
31
0.0
0
LINE
8
FRONT
10
0.023438
20
0.734375
30
0.0
11
0.718750
21
0.734375
31
0.0
0
LINE
8
FRONT
10
0.718750
20
0.734375
30
0.0
11
0.718750
21
0.164063
31
0.0
0
LINE
8
FRONT
10
0.718750
20
0.164063
30
0.0
11
0.742188
21
0.164063
31
0.0
0
LINE
8
FRONT
10
0.742188
20
0.164063
30
0.0
11
0.742188
21
0.750000
31
0.0
0
LINE
8
FRONT
10
0.742188
20
0.750000
30
0.0
11
0.000000
21
0.750000
31
0.0
0
LINE
8
FRONT
10
0.000000
20
0.750000
30
0.0
11
0.000000
21
0.164063
31
0.0
0
LINE
8
LEFT
10
0.890625
20
0.164063
30
0.0
11
0.906250
21
0.164063
31
0.0
0
LINE
8
LEFT
10
0.890625
20
0.750000
30
0.0
11
0.906250
21
0.750000
31
0.0
0
LINE
8
LEFT
10
0.906250
20
0.750000
30
0.0
11
0.906250
21
0.164063
31
0.0
0
LINE
8
LEFT
10
0.890625
20
0.750000
30
0.0
11
0.890625
21
0.164063
31
0.0
0
LINE
8
LEFT_HID
6
HIDDEN
10
0.906250
20
0.164063
30
0.0
11
0.906250
21
0.734375
31
0.0
0
LINE
8
LEFT_HID
6
HIDDEN
10
0.890625
20
0.734375
30
0.0
11
0.906250
21
0.734375
31
0.0
0
LINE
8
LEFT_HID
6
HIDDEN
10
0.890625
20
0.164063
30
0.0
11
0.890625
21
0.734375
31
0.0
0
LINE
8
LEFT_HID
6
HIDDEN
10
0.890625
20
0.734375
30
0.0
11
0.906250
21
0.734375
31
0.0
0
LINE
8
LEFT_HID
6
HIDDEN
10
0.906250
20
0.734375
30
0.0
11
0.906250
21
0.164063
31
0.0
0
LINE
8
LEFT_HID
6
HIDDEN
10
0.890625
20
0.734375
30
0.0
11
0.890625
21
0.164063
31
0.0
0
LINE
8
TOP
10
0.742188
20
0.015625
30
0.0
11
0.742188
21
0.000000
31
0.0
0
LINE
8
TOP
10
0.742188
20
0.000000
30
0.0
11
0.000000
21
0.000000
31
0.0
0
LINE
8
TOP
10
0.000000
20
0.015625
30
0.0
11
0.000000
21
0.000000
31
0.0
0
LINE
8
TOP
10
0.742188
20
0.015625
30
0.0
11
0.000000
21
0.015625
31
0.0
0
LINE
8
TOP_HID
6
HIDDEN
10
0.000000
20
0.000000
30
0.0
11
0.023438
21
0.000000
31
0.0
0
LINE
8
TOP_HID
6
HIDDEN
10
0.023438
20
0.015625
30
0.0
11
0.023438
21
0.000000
31
0.0
0
LINE
8
TOP_HID
6
HIDDEN
10
0.000000
20
0.015625
30
0.0
11
0.023438
21
0.015625
31
0.0
0
LINE
8
TOP_HID
6
HIDDEN
10
0.023438
20
0.015625
30
0.0
11
0.023438
21
0.000000
31
0.0
0
LINE
8
TOP_HID
6
HIDDEN
10
0.023438
20
0.000000
30
0.0
11
0.718750
21
0.000000
31
0.0
0
LINE
8
TOP_HID
6
HIDDEN
10
0.718750
20
0.015625
30
0.0
11
0.718750
21
0.000000
31
0.0
0
LINE
8
TOP_HID
6
HIDDEN
10
0.023438
20
0.015625
30
0.0
11
0.718750
21
0.015625
31
0.0
0
LINE
8
TOP_HID
6
HIDDEN
10
0.718750
20
0.015625
30
0.0
11
0.718750
21
0.000000
31
0.0
0
LINE
8
TOP_HID
6
HIDDEN
10
0.718750
20
0.000000
30
0.0
11
0.742188
21
0.000000
31
0.0
0
LINE
8
TOP_HID
6
HIDDEN
10
0.718750
20
0.015625
30
0.0
11
0.742188
21
0.015625
31
0.0
0
ENDSEC
0
EOF
