0
SECTION
2
HEADER
9
$ACADVER
1
AC1009
0
ENDSEC
0
SECTION
2
TABLES
0
TABLE
2
LTYPE
70
3
0
LTYPE
2
CONTINUOUS
70
0
3
Solid line
72
65
73
0
40
0.0
0
LTYPE
2
HIDDEN
70
0
3
__ __ __ __ __
72
65
73
2
40
0.040234
49
0.026836
49
-0.013398
0
LTYPE
2
CENTER
70
0
3
___ _ ___ _ ___
72
65
73
4
40
0.093867
49
0.053632
49
-0.013398
49
0.013398
49
-0.013398
0
ENDTAB
0
TABLE
2
LAYER
70
7
0
LAYER
2
0
70
0
62
7
6
CONTINUOUS
0
LAYER
2
FRONT
70
0
62
7
6
CONTINUOUS
0
LAYER
2
FRONT_HID
70
0
62
7
6
HIDDEN
0
LAYER
2
LEFT
70
0
62
7
6
CONTINUOUS
0
LAYER
2
LEFT_HID
70
0
62
7
6
HIDDEN
0
LAYER
2
TOP
70
0
62
7
6
CONTINUOUS
0
LAYER
2
TOP_HID
70
0
62
7
6
HIDDEN
0
ENDTAB
0
ENDSEC
0
SECTION
2
ENTITIES
0
LINE
8
FRONT
10
0.132813
20
0.793393
30
0.0
11
0.001809
21
0.793393
31
0.0
0
LINE
8
FRONT
10
0.132813
20
1.004331
30
0.0
11
0.132813
21
0.793393
31
0.0
0
LINE
8
FRONT
10
0.001809
20
0.793393
30
0.0
11
0.001809
21
1.004331
31
0.0
0
LINE
8
FRONT
10
0.001809
20
1.004331
30
0.0
11
0.132813
21
1.004331
31
0.0
0
LINE
8
FRONT
10
0.132813
20
0.926206
30
0.0
11
0.408059
21
0.926206
31
0.0
0
LINE
8
FRONT
10
0.132812
20
0.796491
30
0.0
11
0.408059
21
0.803248
31
0.0
0
LINE
8
FRONT
10
0.539062
20
0.806464
30
0.0
11
0.551967
21
0.806781
31
0.0
0
LINE
8
FRONT
10
0.551967
20
0.806781
30
0.0
11
0.553359
21
0.806815
31
0.0
0
LINE
8
FRONT
10
0.008051
20
1.004495
30
0.0
11
0.008055
21
1.004331
31
0.0
0
LINE
8
FRONT
10
0.000000
20
1.332456
30
0.0
11
0.008051
21
1.004495
31
0.0
0
LINE
8
FRONT
10
0.408059
20
0.793393
30
0.0
11
0.408059
21
1.004331
31
0.0
0
LINE
8
FRONT
10
0.540132
20
1.345652
30
0.0
11
0.553359
21
0.806815
31
0.0
0
LINE
8
FRONT
10
0.539062
20
1.332456
30
0.0
11
0.551967
21
0.806781
31
0.0
0
LINE
8
FRONT
10
0.539063
20
1.004495
30
0.0
11
0.008051
21
1.004495
31
0.0
0
LINE
8
FRONT
10
0.539063
20
1.004331
30
0.0
11
0.539063
21
1.004495
31
0.0
0
LINE
8
FRONT
10
0.539063
20
1.004331
30
0.0
11
0.539063
21
0.793393
31
0.0
0
LINE
8
FRONT
10
0.408059
20
1.004331
30
0.0
11
0.539063
21
1.004331
31
0.0
0
LINE
8
FRONT
10
0.539063
20
0.793393
30
0.0
11
0.408059
21
0.793393
31
0.0
0
LINE
8
FRONT
10
0.539063
20
1.332456
30
0.0
11
0.539063
21
1.345625
31
0.0
0
LINE
8
FRONT
10
0.000000
20
1.332456
30
0.0
11
0.539063
21
1.332456
31
0.0
0
LINE
8
FRONT
10
0.000000
20
1.389199
30
0.0
11
0.000000
21
1.332456
31
0.0
0
LINE
8
FRONT
10
0.003785
20
1.389199
30
0.0
11
0.000000
21
1.389199
31
0.0
0
LINE
8
FRONT
10
0.540130
20
1.556653
30
0.0
11
0.545307
21
1.345779
31
0.0
0
LINE
8
FRONT
10
0.000000
20
1.543393
30
0.0
11
0.005177
21
1.332519
31
0.0
0
LINE
8
FRONT
10
0.005177
20
1.332519
30
0.0
11
0.543915
21
1.345744
31
0.0
0
LINE
8
FRONT
10
0.543915
20
1.345744
30
0.0
11
0.545307
21
1.345779
31
0.0
0
LINE
8
FRONT
10
0.000000
20
1.543393
30
0.0
11
0.538738
21
1.556618
31
0.0
0
LINE
8
FRONT
10
0.538738
20
1.556618
30
0.0
11
0.540130
21
1.556653
31
0.0
0
LINE
8
FRONT
10
0.530428
20
1.556414
30
0.0
11
0.530428
21
1.598081
31
0.0
0
LINE
8
FRONT
10
0.538738
20
1.556618
30
0.0
11
0.543915
21
1.345744
31
0.0
0
LINE
8
FRONT
10
0.530428
20
1.598081
30
0.0
11
0.000000
21
1.598081
31
0.0
0
LINE
8
FRONT
10
0.000000
20
1.543393
30
0.0
11
0.000000
21
1.598081
31
0.0
0
LINE
8
FRONT_HID
6
HIDDEN
10
0.132813
20
0.926206
30
0.0
11
0.132813
21
0.796491
31
0.0
0
LINE
8
FRONT_HID
6
HIDDEN
10
0.132813
20
1.004331
30
0.0
11
0.132813
21
0.926206
31
0.0
0
LINE
8
FRONT_HID
6
HIDDEN
10
0.132813
20
0.796491
30
0.0
11
0.132813
21
0.793393
31
0.0
0
LINE
8
FRONT_HID
6
HIDDEN
10
0.001809
20
0.793393
30
0.0
11
0.001809
21
0.926206
31
0.0
0
LINE
8
FRONT_HID
6
HIDDEN
10
0.001809
20
0.926206
30
0.0
11
0.001809
21
1.004331
31
0.0
0
LINE
8
FRONT_HID
6
HIDDEN
10
0.013229
20
0.793555
30
0.0
11
0.132813
21
0.796491
31
0.0
0
LINE
8
FRONT_HID
6
HIDDEN
10
0.009973
20
0.926206
30
0.0
11
0.001809
21
0.926206
31
0.0
0
LINE
8
FRONT_HID
6
HIDDEN
10
0.009973
20
0.926206
30
0.0
11
0.013229
21
0.793555
31
0.0
0
LINE
8
FRONT_HID
6
HIDDEN
10
0.408059
20
0.803248
30
0.0
11
0.408059
21
0.926206
31
0.0
0
LINE
8
FRONT_HID
6
HIDDEN
10
0.553359
20
0.806815
30
0.0
11
0.014621
21
0.793590
31
0.0
0
LINE
8
FRONT_HID
6
HIDDEN
10
0.014621
20
0.793590
30
0.0
11
0.013229
21
0.793555
31
0.0
0
LINE
8
FRONT_HID
6
HIDDEN
10
0.408059
20
0.803248
30
0.0
11
0.539063
21
0.806464
31
0.0
0
LINE
8
FRONT_HID
6
HIDDEN
10
0.132813
20
0.926206
30
0.0
11
0.001809
21
0.926206
31
0.0
0
LINE
8
FRONT_HID
6
HIDDEN
10
0.539063
20
0.926206
30
0.0
11
0.009973
21
0.926206
31
0.0
0
LINE
8
FRONT_HID
6
HIDDEN
10
0.539063
20
0.926206
30
0.0
11
0.408059
21
0.926206
31
0.0
0
LINE
8
FRONT_HID
6
HIDDEN
10
0.001392
20
1.332490
30
0.0
11
0.001342
21
1.332489
31
0.0
0
LINE
8
FRONT_HID
6
HIDDEN
10
0.001392
20
1.332490
30
0.0
11
0.014621
21
0.793590
31
0.0
0
LINE
8
FRONT_HID
6
HIDDEN
10
0.008055
20
1.004331
30
0.0
11
0.009973
21
0.926206
31
0.0
0
LINE
8
FRONT_HID
6
HIDDEN
10
0.001343
20
1.332456
30
0.0
11
0.000000
21
1.332456
31
0.0
0
LINE
8
FRONT_HID
6
HIDDEN
10
0.001343
20
1.332456
30
0.0
11
0.001342
21
1.332489
31
0.0
0
LINE
8
FRONT_HID
6
HIDDEN
10
0.408059
20
0.793393
30
0.0
11
0.408059
21
0.803248
31
0.0
0
LINE
8
FRONT_HID
6
HIDDEN
10
0.408059
20
0.926206
30
0.0
11
0.408059
21
1.004331
31
0.0
0
LINE
8
FRONT_HID
6
HIDDEN
10
0.540130
20
1.345715
30
0.0
11
0.539063
21
1.345689
31
0.0
0
LINE
8
FRONT_HID
6
HIDDEN
10
0.540130
20
1.345715
30
0.0
11
0.540132
21
1.345652
31
0.0
0
LINE
8
FRONT_HID
6
HIDDEN
10
0.084420
20
1.334528
30
0.0
11
0.001392
21
1.332490
31
0.0
0
LINE
8
FRONT_HID
6
HIDDEN
10
0.084420
20
1.334528
30
0.0
11
0.084471
21
1.332456
31
0.0
0
LINE
8
FRONT_HID
6
HIDDEN
10
0.539063
20
1.332456
30
0.0
11
0.084471
21
1.332456
31
0.0
0
LINE
8
FRONT_HID
6
HIDDEN
10
0.539063
20
1.345689
30
0.0
11
0.539063
21
1.332456
31
0.0
0
LINE
8
FRONT_HID
6
HIDDEN
10
0.539063
20
1.332456
30
0.0
11
0.539063
21
1.345689
31
0.0
0
LINE
8
FRONT_HID
6
HIDDEN
10
0.539062
20
1.345689
30
0.0
11
0.540130
21
1.345715
31
0.0
0
LINE
8
FRONT_HID
6
HIDDEN
10
0.539063
20
1.004331
30
0.0
11
0.539063
21
0.926206
31
0.0
0
LINE
8
FRONT_HID
6
HIDDEN
10
0.539063
20
0.926206
30
0.0
11
0.539063
21
0.806464
31
0.0
0
LINE
8
FRONT_HID
6
HIDDEN
10
0.539063
20
0.926206
30
0.0
11
0.539063
21
1.004331
31
0.0
0
LINE
8
FRONT_HID
6
HIDDEN
10
0.539063
20
0.806464
30
0.0
11
0.539063
21
0.793393
31
0.0
0
LINE
8
FRONT_HID
6
HIDDEN
10
0.539063
20
1.004495
30
0.0
11
0.539063
21
0.926206
31
0.0
0
LINE
8
FRONT_HID
6
HIDDEN
10
0.001342
20
1.332489
30
0.0
11
0.084420
21
1.334528
31
0.0
0
LINE
8
FRONT_HID
6
HIDDEN
10
0.000000
20
1.332456
30
0.0
11
0.001343
21
1.332456
31
0.0
0
LINE
8
FRONT_HID
6
HIDDEN
10
0.084471
20
1.332456
30
0.0
11
0.539063
21
1.332456
31
0.0
0
LINE
8
FRONT_HID
6
HIDDEN
10
0.539063
20
1.332456
30
0.0
11
0.539063
21
1.389199
31
0.0
0
LINE
8
FRONT_HID
6
HIDDEN
10
0.539063
20
1.389199
30
0.0
11
0.000000
21
1.389199
31
0.0
0
LINE
8
FRONT_HID
6
HIDDEN
10
0.539063
20
1.345625
30
0.0
11
0.539063
21
1.389199
31
0.0
0
LINE
8
FRONT_HID
6
HIDDEN
10
0.539063
20
1.389199
30
0.0
11
0.406598
21
1.389199
31
0.0
0
LINE
8
FRONT_HID
6
HIDDEN
10
0.004936
20
1.389199
30
0.0
11
0.003785
21
1.389199
31
0.0
0
LINE
8
FRONT_HID
6
HIDDEN
10
0.005178
20
1.389199
30
0.0
11
0.004936
21
1.389199
31
0.0
0
LINE
8
FRONT_HID
6
HIDDEN
10
0.406598
20
1.389199
30
0.0
11
0.005178
21
1.389199
31
0.0
0
LINE
8
FRONT_HID
6
HIDDEN
10
0.407747
20
1.342402
30
0.0
11
0.406598
21
1.389199
31
0.0
0
LINE
8
FRONT_HID
6
HIDDEN
10
0.407747
20
1.342402
30
0.0
11
0.006327
21
1.332547
31
0.0
0
LINE
8
FRONT_HID
6
HIDDEN
10
0.004936
20
1.389199
30
0.0
11
0.006327
21
1.332547
31
0.0
0
LINE
8
FRONT_HID
6
HIDDEN
10
0.540130
20
1.556653
30
0.0
11
0.530428
21
1.556414
31
0.0
0
LINE
8
FRONT_HID
6
HIDDEN
10
0.545307
20
1.345779
30
0.0
11
0.407747
21
1.342402
31
0.0
0
LINE
8
FRONT_HID
6
HIDDEN
10
0.001393
20
1.543393
30
0.0
11
0.005178
21
1.389199
31
0.0
0
LINE
8
FRONT_HID
6
HIDDEN
10
0.530428
20
1.543393
30
0.0
11
0.001393
21
1.543393
31
0.0
0
LINE
8
FRONT_HID
6
HIDDEN
10
0.530428
20
1.556414
30
0.0
11
0.530428
21
1.543393
31
0.0
0
LINE
8
FRONT_HID
6
HIDDEN
10
0.001393
20
1.543393
30
0.0
11
0.000000
21
1.543393
31
0.0
0
LINE
8
FRONT_HID
6
HIDDEN
10
0.006327
20
1.332547
30
0.0
11
0.005177
21
1.332519
31
0.0
0
LINE
8
FRONT_HID
6
HIDDEN
10
0.000000
20
1.543393
30
0.0
11
0.530428
21
1.556414
31
0.0
0
LINE
8
FRONT_HID
6
HIDDEN
10
0.530428
20
1.543393
30
0.0
11
0.530428
21
1.598081
31
0.0
0
LINE
8
FRONT_HID
6
HIDDEN
10
0.000000
20
1.543393
30
0.0
11
0.530428
21
1.543393
31
0.0
0
LINE
8
LEFT
10
1.290026
20
0.793393
30
0.0
11
0.954088
21
0.793393
31
0.0
0
LINE
8
LEFT
10
1.290026
20
0.793393
30
0.0
11
1.290026
21
0.926206
31
0.0
0
LINE
8
LEFT
10
0.954088
20
0.793393
30
0.0
11
0.954088
21
1.004331
31
0.0
0
LINE
8
LEFT
10
1.024401
20
1.004331
30
0.0
11
0.954088
21
1.004331
31
0.0
0
LINE
8
LEFT
10
1.024401
20
0.926206
30
0.0
11
1.024401
21
1.004331
31
0.0
0
LINE
8
LEFT
10
1.290026
20
0.926206
30
0.0
11
1.024401
21
0.926206
31
0.0
0
LINE
8
LEFT
10
1.346752
20
0.793590
30
0.0
11
1.290026
21
0.793555
31
0.0
0
LINE
8
LEFT
10
1.280256
20
0.926206
30
0.0
11
1.024401
21
0.926206
31
0.0
0
LINE
8
LEFT
10
1.346752
20
1.332490
30
0.0
11
1.344713
21
1.332489
31
0.0
0
LINE
8
LEFT
10
1.346752
20
1.332490
30
0.0
11
1.346752
21
0.793590
31
0.0
0
LINE
8
LEFT
10
1.290026
20
1.004331
30
0.0
11
1.290026
21
0.926206
31
0.0
0
LINE
8
LEFT
10
1.290026
20
1.004495
30
0.0
11
1.290026
21
1.004331
31
0.0
0
LINE
8
LEFT
10
1.290026
20
1.332456
30
0.0
11
1.290026
21
1.004495
31
0.0
0
LINE
8
LEFT
10
1.344713
20
1.334528
30
0.0
11
1.346752
21
1.332490
31
0.0
0
LINE
8
LEFT
10
1.276797
20
1.332456
30
0.0
11
1.276797
21
0.926206
31
0.0
0
LINE
8
LEFT
10
1.276994
20
1.004495
30
0.0
11
1.290026
21
1.004495
31
0.0
0
LINE
8
LEFT
10
1.276994
20
1.004331
30
0.0
11
1.276994
21
1.004495
31
0.0
0
LINE
8
LEFT
10
1.276994
20
1.004331
30
0.0
11
1.277041
21
0.926206
31
0.0
0
LINE
8
LEFT
10
1.344713
20
1.389199
30
0.0
11
1.344713
21
1.332456
31
0.0
0
LINE
8
LEFT
10
1.290026
20
1.332456
30
0.0
11
1.344713
21
1.332456
31
0.0
0
LINE
8
LEFT
10
0.774401
20
1.332456
30
0.0
11
1.290026
21
1.332456
31
0.0
0
LINE
8
LEFT
10
0.774401
20
1.389199
30
0.0
11
1.344713
21
1.389199
31
0.0
0
LINE
8
LEFT
10
0.774401
20
1.389199
30
0.0
11
0.774401
21
1.332456
31
0.0
0
LINE
8
LEFT
10
0.784252
20
1.543393
30
0.0
11
0.784252
21
1.389199
31
0.0
0
LINE
8
LEFT
10
0.774401
20
1.332547
30
0.0
11
0.727526
21
1.332519
31
0.0
0
LINE
8
LEFT
10
0.727526
20
1.543393
30
0.0
11
0.727526
21
1.332519
31
0.0
0
LINE
8
LEFT
10
0.727526
20
1.332519
30
0.0
11
0.714297
21
1.345744
31
0.0
0
LINE
8
LEFT
10
0.727526
20
1.543393
30
0.0
11
0.714297
21
1.556618
31
0.0
0
LINE
8
LEFT
10
0.714297
20
1.556618
30
0.0
11
0.727526
21
1.556626
31
0.0
0
LINE
8
LEFT
10
0.727526
20
1.543393
30
0.0
11
1.313463
21
1.543393
31
0.0
0
LINE
8
LEFT
10
0.714297
20
1.556618
30
0.0
11
0.714297
21
1.345744
31
0.0
0
LINE
8
LEFT
10
0.727526
20
1.543393
30
0.0
11
0.727526
21
1.598081
31
0.0
0
LINE
8
LEFT
10
0.727526
20
1.598081
30
0.0
11
1.313463
21
1.598081
31
0.0
0
LINE
8
LEFT
10
1.313463
20
1.543393
30
0.0
11
1.313463
21
1.598081
31
0.0
0
LINE
8
LEFT_HID
6
HIDDEN
10
1.287011
20
0.926206
30
0.0
11
1.287089
21
0.796491
31
0.0
0
LINE
8
LEFT_HID
6
HIDDEN
10
1.024401
20
0.926206
30
0.0
11
1.287011
21
0.926206
31
0.0
0
LINE
8
LEFT_HID
6
HIDDEN
10
1.290026
20
0.796491
30
0.0
11
1.290026
21
0.793393
31
0.0
0
LINE
8
LEFT_HID
6
HIDDEN
10
1.290026
20
0.796491
30
0.0
11
1.287089
21
0.796491
31
0.0
0
LINE
8
LEFT_HID
6
HIDDEN
10
1.290026
20
0.793555
30
0.0
11
1.290026
21
0.796491
31
0.0
0
LINE
8
LEFT_HID
6
HIDDEN
10
1.290026
20
0.926206
30
0.0
11
1.290026
21
0.793555
31
0.0
0
LINE
8
LEFT_HID
6
HIDDEN
10
1.287011
20
0.926206
30
0.0
11
1.280256
21
0.926206
31
0.0
0
LINE
8
LEFT_HID
6
HIDDEN
10
1.287089
20
0.796491
30
0.0
11
1.280331
21
0.803248
31
0.0
0
LINE
8
LEFT_HID
6
HIDDEN
10
1.280331
20
0.803248
30
0.0
11
1.280256
21
0.926206
31
0.0
0
LINE
8
LEFT_HID
6
HIDDEN
10
1.333523
20
0.806815
30
0.0
11
1.346752
21
0.793590
31
0.0
0
LINE
8
LEFT_HID
6
HIDDEN
10
1.280331
20
0.803248
30
0.0
11
1.290026
21
0.803248
31
0.0
0
LINE
8
LEFT_HID
6
HIDDEN
10
1.290026
20
0.803248
30
0.0
11
1.290026
21
0.806464
31
0.0
0
LINE
8
LEFT_HID
6
HIDDEN
10
1.290026
20
0.806464
30
0.0
11
1.277114
21
0.806464
31
0.0
0
LINE
8
LEFT_HID
6
HIDDEN
10
1.277114
20
0.806464
30
0.0
11
1.276797
21
0.806781
31
0.0
0
LINE
8
LEFT_HID
6
HIDDEN
10
1.276797
20
0.806781
30
0.0
11
1.333523
21
0.806815
31
0.0
0
LINE
8
LEFT_HID
6
HIDDEN
10
1.290026
20
0.926206
30
0.0
11
1.277041
21
0.926206
31
0.0
0
LINE
8
LEFT_HID
6
HIDDEN
10
1.277041
20
0.926206
30
0.0
11
1.024401
21
0.926206
31
0.0
0
LINE
8
LEFT_HID
6
HIDDEN
10
1.344713
20
1.332456
30
0.0
11
1.290026
21
1.332456
31
0.0
0
LINE
8
LEFT_HID
6
HIDDEN
10
1.344713
20
1.332456
30
0.0
11
1.344713
21
1.332489
31
0.0
0
LINE
8
LEFT_HID
6
HIDDEN
10
1.290026
20
0.793393
30
0.0
11
1.290026
21
0.803248
31
0.0
0
LINE
8
LEFT_HID
6
HIDDEN
10
1.333523
20
1.345715
30
0.0
11
1.333549
21
1.345689
31
0.0
0
LINE
8
LEFT_HID
6
HIDDEN
10
1.333523
20
1.345715
30
0.0
11
1.333523
21
0.806815
31
0.0
0
LINE
8
LEFT_HID
6
HIDDEN
10
1.344713
20
1.334528
30
0.0
11
1.344713
21
1.332456
31
0.0
0
LINE
8
LEFT_HID
6
HIDDEN
10
1.333557
20
1.332456
30
0.0
11
1.344713
21
1.332456
31
0.0
0
LINE
8
LEFT_HID
6
HIDDEN
10
1.333549
20
1.345689
30
0.0
11
1.333557
21
1.332456
31
0.0
0
LINE
8
LEFT_HID
6
HIDDEN
10
1.276797
20
1.332456
30
0.0
11
1.290026
21
1.345689
31
0.0
0
LINE
8
LEFT_HID
6
HIDDEN
10
1.276797
20
0.926206
30
0.0
11
1.276797
21
0.806781
31
0.0
0
LINE
8
LEFT_HID
6
HIDDEN
10
1.290026
20
1.345689
30
0.0
11
1.333523
21
1.345715
31
0.0
0
LINE
8
LEFT_HID
6
HIDDEN
10
1.290026
20
1.332456
30
0.0
11
1.276797
21
1.332456
31
0.0
0
LINE
8
LEFT_HID
6
HIDDEN
10
1.277041
20
0.926206
30
0.0
11
1.277114
21
0.806464
31
0.0
0
LINE
8
LEFT_HID
6
HIDDEN
10
1.290026
20
0.806464
30
0.0
11
1.290026
21
0.793393
31
0.0
0
LINE
8
LEFT_HID
6
HIDDEN
10
1.290026
20
1.004495
30
0.0
11
1.290026
21
0.926206
31
0.0
0
LINE
8
LEFT_HID
6
HIDDEN
10
1.276994
20
1.004495
30
0.0
11
1.290026
21
1.004495
31
0.0
0
LINE
8
LEFT_HID
6
HIDDEN
10
1.344713
20
1.332489
30
0.0
11
1.344713
21
1.334528
31
0.0
0
LINE
8
LEFT_HID
6
HIDDEN
10
1.290026
20
1.345689
30
0.0
11
1.333549
21
1.345689
31
0.0
0
LINE
8
LEFT_HID
6
HIDDEN
10
0.774401
20
1.332456
30
0.0
11
1.276797
21
1.332456
31
0.0
0
LINE
8
LEFT_HID
6
HIDDEN
10
1.333557
20
1.332456
30
0.0
11
1.344713
21
1.332456
31
0.0
0
LINE
8
LEFT_HID
6
HIDDEN
10
0.784252
20
1.389199
30
0.0
11
0.774401
21
1.389199
31
0.0
0
LINE
8
LEFT_HID
6
HIDDEN
10
0.774401
20
1.389199
30
0.0
11
0.784252
21
1.389199
31
0.0
0
LINE
8
LEFT_HID
6
HIDDEN
10
0.774401
20
1.342402
30
0.0
11
0.774401
21
1.389199
31
0.0
0
LINE
8
LEFT_HID
6
HIDDEN
10
0.774401
20
1.342402
30
0.0
11
0.774401
21
1.332547
31
0.0
0
LINE
8
LEFT_HID
6
HIDDEN
10
0.774401
20
1.389199
30
0.0
11
0.774401
21
1.332547
31
0.0
0
LINE
8
LEFT_HID
6
HIDDEN
10
0.771023
20
1.556653
30
0.0
11
0.771261
21
1.556414
31
0.0
0
LINE
8
LEFT_HID
6
HIDDEN
10
0.771023
20
1.556653
30
0.0
11
0.771023
21
1.345779
31
0.0
0
LINE
8
LEFT_HID
6
HIDDEN
10
0.771023
20
1.345779
30
0.0
11
0.774401
21
1.342402
31
0.0
0
LINE
8
LEFT_HID
6
HIDDEN
10
0.771269
20
1.543393
30
0.0
11
0.784252
21
1.543393
31
0.0
0
LINE
8
LEFT_HID
6
HIDDEN
10
0.771261
20
1.556414
30
0.0
11
0.771269
21
1.543393
31
0.0
0
LINE
8
LEFT_HID
6
HIDDEN
10
0.784252
20
1.543393
30
0.0
11
0.727526
21
1.543393
31
0.0
0
LINE
8
LEFT_HID
6
HIDDEN
10
0.714297
20
1.345744
30
0.0
11
0.771023
21
1.345779
31
0.0
0
LINE
8
LEFT_HID
6
HIDDEN
10
0.727526
20
1.543393
30
0.0
11
0.727526
21
1.556414
31
0.0
0
LINE
8
LEFT_HID
6
HIDDEN
10
0.727526
20
1.556626
30
0.0
11
0.771023
21
1.556653
31
0.0
0
LINE
8
LEFT_HID
6
HIDDEN
10
0.727526
20
1.556414
30
0.0
11
0.771261
21
1.556414
31
0.0
0
LINE
8
LEFT_HID
6
HIDDEN
10
1.313463
20
1.543393
30
0.0
11
0.771269
21
1.543393
31
0.0
0
LINE
8
LEFT_HID
6
HIDDEN
10
0.727526
20
1.556414
30
0.0
11
0.727526
21
1.598081
31
0.0
0
LINE
8
TOP
10
0.553359
20
0.013229
30
0.0
11
0.539062
21
0.012878
31
0.0
0
LINE
8
TOP
10
0.097649
20
0.002039
30
0.0
11
0.014621
21
0.000000
31
0.0
0
LINE
8
TOP
10
0.551967
20
0.069956
30
0.0
11
0.553359
21
0.013229
31
0.0
0
LINE
8
TOP
10
0.001392
20
0.000000
30
0.0
11
0.001342
21
0.002039
31
0.0
0
LINE
8
TOP
10
0.001392
20
0.000000
30
0.0
11
0.014621
21
0.000000
31
0.0
0
LINE
8
TOP
10
0.540130
20
0.013229
30
0.0
11
0.539063
21
0.013203
31
0.0
0
LINE
8
TOP
10
0.540130
20
0.013229
30
0.0
11
0.553359
21
0.013229
31
0.0
0
LINE
8
TOP
10
0.084420
20
0.002039
30
0.0
11
0.001392
21
0.000000
31
0.0
0
LINE
8
TOP
10
0.539062
20
0.069956
30
0.0
11
0.551967
21
0.069956
31
0.0
0
LINE
8
TOP
10
0.539062
20
0.056726
30
0.0
11
0.540130
21
0.013229
31
0.0
0
LINE
8
TOP
10
0.539062
20
0.002039
30
0.0
11
0.000000
21
0.002039
31
0.0
0
LINE
8
TOP
10
0.539062
20
0.572351
30
0.0
11
0.539062
21
0.002039
31
0.0
0
LINE
8
TOP
10
0.000000
20
0.033289
30
0.0
11
0.000000
21
0.002039
31
0.0
0
LINE
8
TOP
10
0.539062
20
0.572351
30
0.0
11
0.530428
21
0.572351
31
0.0
0
LINE
8
TOP
10
0.540130
20
0.575729
30
0.0
11
0.530428
21
0.575491
31
0.0
0
LINE
8
TOP
10
0.540130
20
0.575729
30
0.0
11
0.545307
21
0.575729
31
0.0
0
LINE
8
TOP
10
0.545307
20
0.575729
30
0.0
11
0.530428
21
0.575364
31
0.0
0
LINE
8
TOP
10
0.543915
20
0.632456
30
0.0
11
0.545307
21
0.575729
31
0.0
0
LINE
8
TOP
10
0.000000
20
0.619226
30
0.0
11
0.538738
21
0.632456
31
0.0
0
LINE
8
TOP
10
0.538738
20
0.632456
30
0.0
11
0.540130
21
0.575729
31
0.0
0
LINE
8
TOP
10
0.530428
20
0.033289
30
0.0
11
0.530428
21
0.619226
31
0.0
0
LINE
8
TOP
10
0.538738
20
0.632456
30
0.0
11
0.543915
21
0.632456
31
0.0
0
LINE
8
TOP
10
0.530428
20
0.619226
30
0.0
11
0.000000
21
0.619226
31
0.0
0
LINE
8
TOP
10
0.000000
20
0.033289
30
0.0
11
0.530428
21
0.033289
31
0.0
0
LINE
8
TOP
10
0.000000
20
0.619226
30
0.0
11
0.000000
21
0.033289
31
0.0
0
LINE
8
TOP_HID
6
HIDDEN
10
0.132812
20
0.056726
30
0.0
11
0.132813
21
0.392664
31
0.0
0
LINE
8
TOP_HID
6
HIDDEN
10
0.132812
20
0.392664
30
0.0
11
0.001809
21
0.392664
31
0.0
0
LINE
8
TOP_HID
6
HIDDEN
10
0.001809
20
0.056726
30
0.0
11
0.001809
21
0.392664
31
0.0
0
LINE
8
TOP_HID
6
HIDDEN
10
0.132812
20
0.056726
30
0.0
11
0.001809
21
0.056726
31
0.0
0
LINE
8
TOP_HID
6
HIDDEN
10
0.132812
20
0.059741
30
0.0
11
0.132812
21
0.059663
31
0.0
0
LINE
8
TOP_HID
6
HIDDEN
10
0.132813
20
0.322351
30
0.0
11
0.132812
21
0.059741
31
0.0
0
LINE
8
TOP_HID
6
HIDDEN
10
0.132813
20
0.322351
30
0.0
11
0.132813
21
0.392664
31
0.0
0
LINE
8
TOP_HID
6
HIDDEN
10
0.132812
20
0.056726
30
0.0
11
0.132812
21
0.059663
31
0.0
0
LINE
8
TOP_HID
6
HIDDEN
10
0.001809
20
0.322351
30
0.0
11
0.001809
21
0.392664
31
0.0
0
LINE
8
TOP_HID
6
HIDDEN
10
0.001809
20
0.056726
30
0.0
11
0.001809
21
0.322351
31
0.0
0
LINE
8
TOP_HID
6
HIDDEN
10
0.013229
20
0.056726
30
0.0
11
0.132813
21
0.056726
31
0.0
0
LINE
8
TOP_HID
6
HIDDEN
10
0.009973
20
0.056726
30
0.0
11
0.001809
21
0.056726
31
0.0
0
LINE
8
TOP_HID
6
HIDDEN
10
0.009973
20
0.056726
30
0.0
11
0.013229
21
0.056726
31
0.0
0
LINE
8
TOP_HID
6
HIDDEN
10
0.001809
20
0.392664
30
0.0
11
0.132812
21
0.392664
31
0.0
0
LINE
8
TOP_HID
6
HIDDEN
10
0.132812
20
0.059741
30
0.0
11
0.408059
21
0.066496
31
0.0
0
LINE
8
TOP_HID
6
HIDDEN
10
0.132812
20
0.059663
30
0.0
11
0.408059
21
0.066422
31
0.0
0
LINE
8
TOP_HID
6
HIDDEN
10
0.408059
20
0.066422
30
0.0
11
0.408059
21
0.066496
31
0.0
0
LINE
8
TOP_HID
6
HIDDEN
10
0.539062
20
0.012878
30
0.0
11
0.097649
21
0.002039
31
0.0
0
LINE
8
TOP_HID
6
HIDDEN
10
0.014621
20
0.000000
30
0.0
11
0.013229
21
0.056726
31
0.0
0
LINE
8
TOP_HID
6
HIDDEN
10
0.408059
20
0.066422
30
0.0
11
0.408059
21
0.056726
31
0.0
0
LINE
8
TOP_HID
6
HIDDEN
10
0.408059
20
0.056726
30
0.0
11
0.539063
21
0.056726
31
0.0
0
LINE
8
TOP_HID
6
HIDDEN
10
0.539062
20
0.056726
30
0.0
11
0.539062
21
0.069639
31
0.0
0
LINE
8
TOP_HID
6
HIDDEN
10
0.539062
20
0.069639
30
0.0
11
0.551967
21
0.069956
31
0.0
0
LINE
8
TOP_HID
6
HIDDEN
10
0.001809
20
0.322351
30
0.0
11
0.132812
21
0.322351
31
0.0
0
LINE
8
TOP_HID
6
HIDDEN
10
0.132812
20
0.322351
30
0.0
11
0.001809
21
0.322351
31
0.0
0
LINE
8
TOP_HID
6
HIDDEN
10
0.539062
20
0.056726
30
0.0
11
0.539062
21
0.069711
31
0.0
0
LINE
8
TOP_HID
6
HIDDEN
10
0.539062
20
0.056726
30
0.0
11
0.009973
21
0.056726
31
0.0
0
LINE
8
TOP_HID
6
HIDDEN
10
0.408059
20
0.066496
30
0.0
11
0.408059
21
0.322351
31
0.0
0
LINE
8
TOP_HID
6
HIDDEN
10
0.539062
20
0.322351
30
0.0
11
0.408059
21
0.322351
31
0.0
0
LINE
8
TOP_HID
6
HIDDEN
10
0.539062
20
0.069711
30
0.0
11
0.539062
21
0.322351
31
0.0
0
LINE
8
TOP_HID
6
HIDDEN
10
0.008055
20
0.056726
30
0.0
11
0.009973
21
0.056726
31
0.0
0
LINE
8
TOP_HID
6
HIDDEN
10
0.008051
20
0.056726
30
0.0
11
0.008055
21
0.056726
31
0.0
0
LINE
8
TOP_HID
6
HIDDEN
10
0.000000
20
0.056726
30
0.0
11
0.008051
21
0.056726
31
0.0
0
LINE
8
TOP_HID
6
HIDDEN
10
0.001343
20
0.002039
30
0.0
11
0.000000
21
0.056726
31
0.0
0
LINE
8
TOP_HID
6
HIDDEN
10
0.001343
20
0.002039
30
0.0
11
0.001342
21
0.002039
31
0.0
0
LINE
8
TOP_HID
6
HIDDEN
10
0.408059
20
0.056726
30
0.0
11
0.408059
21
0.392664
31
0.0
0
LINE
8
TOP_HID
6
HIDDEN
10
0.408059
20
0.322351
30
0.0
11
0.408059
21
0.392664
31
0.0
0
LINE
8
TOP_HID
6
HIDDEN
10
0.084420
20
0.002039
30
0.0
11
0.084471
21
0.002039
31
0.0
0
LINE
8
TOP_HID
6
HIDDEN
10
0.539062
20
0.013195
30
0.0
11
0.084471
21
0.002039
31
0.0
0
LINE
8
TOP_HID
6
HIDDEN
10
0.539062
20
0.013203
30
0.0
11
0.539062
21
0.013195
31
0.0
0
LINE
8
TOP_HID
6
HIDDEN
10
0.539062
20
0.069956
30
0.0
11
0.539062
21
0.056726
31
0.0
0
LINE
8
TOP_HID
6
HIDDEN
10
0.000000
20
0.056726
30
0.0
11
0.539062
21
0.069956
31
0.0
0
LINE
8
TOP_HID
6
HIDDEN
10
0.539062
20
0.069758
30
0.0
11
0.008051
21
0.056726
31
0.0
0
LINE
8
TOP_HID
6
HIDDEN
10
0.539062
20
0.069758
30
0.0
11
0.539062
21
0.069711
31
0.0
0
LINE
8
TOP_HID
6
HIDDEN
10
0.539062
20
0.069711
30
0.0
11
0.539062
21
0.069639
31
0.0
0
LINE
8
TOP_HID
6
HIDDEN
10
0.539062
20
0.322351
30
0.0
11
0.539062
21
0.392664
31
0.0
0
LINE
8
TOP_HID
6
HIDDEN
10
0.539062
20
0.056726
30
0.0
11
0.539062
21
0.392664
31
0.0
0
LINE
8
TOP_HID
6
HIDDEN
10
0.539062
20
0.056726
30
0.0
11
0.408059
21
0.056726
31
0.0
0
LINE
8
TOP_HID
6
HIDDEN
10
0.539062
20
0.069758
30
0.0
11
0.539062
21
0.056726
31
0.0
0
LINE
8
TOP_HID
6
HIDDEN
10
0.408059
20
0.322351
30
0.0
11
0.539062
21
0.322351
31
0.0
0
LINE
8
TOP_HID
6
HIDDEN
10
0.539062
20
0.056726
30
0.0
11
0.008051
21
0.056726
31
0.0
0
LINE
8
TOP_HID
6
HIDDEN
10
0.001342
20
0.002039
30
0.0
11
0.084420
21
0.002039
31
0.0
0
LINE
8
TOP_HID
6
HIDDEN
10
0.000000
20
0.002039
30
0.0
11
0.001343
21
0.002039
31
0.0
0
LINE
8
TOP_HID
6
HIDDEN
10
0.084471
20
0.002039
30
0.0
11
0.539062
21
0.002039
31
0.0
0
LINE
8
TOP_HID
6
HIDDEN
10
0.000000
20
0.056726
30
0.0
11
0.000000
21
0.002039
31
0.0
0
LINE
8
TOP_HID
6
HIDDEN
10
0.408059
20
0.392664
30
0.0
11
0.539062
21
0.392664
31
0.0
0
LINE
8
TOP_HID
6
HIDDEN
10
0.539062
20
0.392664
30
0.0
11
0.408059
21
0.392664
31
0.0
0
LINE
8
TOP_HID
6
HIDDEN
10
0.539062
20
0.056726
30
0.0
11
0.539062
21
0.013203
31
0.0
0
LINE
8
TOP_HID
6
HIDDEN
10
0.539062
20
0.572351
30
0.0
11
0.539062
21
0.069956
31
0.0
0
LINE
8
TOP_HID
6
HIDDEN
10
0.539062
20
0.013195
30
0.0
11
0.539062
21
0.002039
31
0.0
0
LINE
8
TOP_HID
6
HIDDEN
10
0.000000
20
0.572351
30
0.0
11
0.539062
21
0.572351
31
0.0
0
LINE
8
TOP_HID
6
HIDDEN
10
0.000000
20
0.572351
30
0.0
11
0.000000
21
0.056726
31
0.0
0
LINE
8
TOP_HID
6
HIDDEN
10
0.000000
20
0.572351
30
0.0
11
0.000000
21
0.033289
31
0.0
0
LINE
8
TOP_HID
6
HIDDEN
10
0.530428
20
0.572351
30
0.0
11
0.406598
21
0.572351
31
0.0
0
LINE
8
TOP_HID
6
HIDDEN
10
0.004936
20
0.572351
30
0.0
11
0.000000
21
0.572351
31
0.0
0
LINE
8
TOP_HID
6
HIDDEN
10
0.005178
20
0.562500
30
0.0
11
0.004936
21
0.572351
31
0.0
0
LINE
8
TOP_HID
6
HIDDEN
10
0.406598
20
0.572351
30
0.0
11
0.005178
21
0.562500
31
0.0
0
LINE
8
TOP_HID
6
HIDDEN
10
0.407747
20
0.572351
30
0.0
11
0.406598
21
0.572351
31
0.0
0
LINE
8
TOP_HID
6
HIDDEN
10
0.407747
20
0.572351
30
0.0
11
0.006327
21
0.572351
31
0.0
0
LINE
8
TOP_HID
6
HIDDEN
10
0.004936
20
0.572351
30
0.0
11
0.006327
21
0.572351
31
0.0
0
LINE
8
TOP_HID
6
HIDDEN
10
0.530428
20
0.575364
30
0.0
11
0.407747
21
0.572351
31
0.0
0
LINE
8
TOP_HID
6
HIDDEN
10
0.001393
20
0.562500
30
0.0
11
0.005178
21
0.562500
31
0.0
0
LINE
8
TOP_HID
6
HIDDEN
10
0.530428
20
0.575483
30
0.0
11
0.001393
21
0.562500
31
0.0
0
LINE
8
TOP_HID
6
HIDDEN
10
0.530428
20
0.575491
30
0.0
11
0.530428
21
0.575483
31
0.0
0
LINE
8
TOP_HID
6
HIDDEN
10
0.001393
20
0.562500
30
0.0
11
0.000000
21
0.619226
31
0.0
0
LINE
8
TOP_HID
6
HIDDEN
10
0.006327
20
0.572351
30
0.0
11
0.005177
21
0.619226
31
0.0
0
LINE
8
TOP_HID
6
HIDDEN
10
0.000000
20
0.619226
30
0.0
11
0.005177
21
0.619226
31
0.0
0
LINE
8
TOP_HID
6
HIDDEN
10
0.005177
20
0.619226
30
0.0
11
0.543915
21
0.632456
31
0.0
0
LINE
8
TOP_HID
6
HIDDEN
10
0.530428
20
0.619226
30
0.0
11
0.530428
21
0.575491
31
0.0
0
LINE
8
TOP_HID
6
HIDDEN
10
0.530428
20
0.033289
30
0.0
11
0.530428
21
0.575483
31
0.0
0
ENDSEC
0
EOF
