0
SECTION
2
HEADER
9
$ACADVER
1
AC1009
0
ENDSEC
0
SECTION
2
TABLES
0
TABLE
2
LTYPE
70
3
0
LTYPE
2
CONTINUOUS
70
0
3
Solid line
72
65
73
0
40
0.0
0
LTYPE
2
HIDDEN
70
0
3
__ __ __ __ __
72
65
73
2
40
0.074219
49
0.049504
49
-0.024715
0
LTYPE
2
CENTER
70
0
3
___ _ ___ _ ___
72
65
73
4
40
0.173152
49
0.098934
49
-0.024715
49
0.024715
49
-0.024715
0
ENDTAB
0
TABLE
2
LAYER
70
6
0
LAYER
2
0
70
0
62
7
6
CONTINUOUS
0
LAYER
2
FRONT
70
0
62
7
6
CONTINUOUS
0
LAYER
2
FRONT_HID
70
0
62
7
6
HIDDEN
0
LAYER
2
LEFT
70
0
62
7
6
CONTINUOUS
0
LAYER
2
LEFT_HID
70
0
62
7
6
HIDDEN
0
LAYER
2
TOP
70
0
62
7
6
CONTINUOUS
0
ENDTAB
0
ENDSEC
0
SECTION
2
ENTITIES
0
LINE
8
FRONT
10
1.484375
20
0.718750
30
0.0
11
1.484375
21
0.820312
31
0.0
0
LINE
8
FRONT
10
1.484375
20
0.718750
30
0.0
11
1.453125
21
0.718750
31
0.0
0
LINE
8
FRONT
10
1.484375
20
0.820312
30
0.0
11
1.453125
21
0.820312
31
0.0
0
LINE
8
FRONT
10
1.453125
20
0.820312
30
0.0
11
0.031250
21
0.820312
31
0.0
0
LINE
8
FRONT
10
1.453125
20
0.718750
30
0.0
11
0.031250
21
0.718750
31
0.0
0
LINE
8
FRONT
10
0.031250
20
0.718750
30
0.0
11
0.000000
21
0.718750
31
0.0
0
LINE
8
FRONT
10
0.000000
20
0.718750
30
0.0
11
0.000000
21
0.820312
31
0.0
0
LINE
8
FRONT
10
0.031250
20
0.820312
30
0.0
11
0.000000
21
0.820312
31
0.0
0
LINE
8
FRONT
10
1.453125
20
0.718750
30
0.0
11
1.453125
21
0.820312
31
0.0
0
LINE
8
FRONT
10
0.031250
20
0.718750
30
0.0
11
0.031250
21
0.820312
31
0.0
0
LINE
8
FRONT_HID
6
HIDDEN
10
0.765625
20
0.718750
30
0.0
11
0.671875
21
0.718750
31
0.0
0
LINE
8
FRONT_HID
6
HIDDEN
10
0.671875
20
0.718750
30
0.0
11
0.765625
21
0.718750
31
0.0
0
LINE
8
FRONT_HID
6
HIDDEN
10
0.765625
20
0.718750
30
0.0
11
0.765625
21
0.820312
31
0.0
0
LINE
8
FRONT_HID
6
HIDDEN
10
0.765625
20
0.820312
30
0.0
11
0.671875
21
0.820312
31
0.0
0
LINE
8
FRONT_HID
6
HIDDEN
10
0.671875
20
0.820312
30
0.0
11
0.765625
21
0.820312
31
0.0
0
LINE
8
FRONT_HID
6
HIDDEN
10
1.015625
20
0.718750
30
0.0
11
0.921875
21
0.718750
31
0.0
0
LINE
8
FRONT_HID
6
HIDDEN
10
0.921875
20
0.718750
30
0.0
11
1.015625
21
0.718750
31
0.0
0
LINE
8
FRONT_HID
6
HIDDEN
10
1.015625
20
0.718750
30
0.0
11
1.015625
21
0.820312
31
0.0
0
LINE
8
FRONT_HID
6
HIDDEN
10
1.015625
20
0.820312
30
0.0
11
0.921875
21
0.820312
31
0.0
0
LINE
8
FRONT_HID
6
HIDDEN
10
0.921875
20
0.820312
30
0.0
11
1.015625
21
0.820312
31
0.0
0
LINE
8
FRONT_HID
6
HIDDEN
10
1.390625
20
0.718750
30
0.0
11
1.296875
21
0.718750
31
0.0
0
LINE
8
FRONT_HID
6
HIDDEN
10
1.296875
20
0.718750
30
0.0
11
1.390625
21
0.718750
31
0.0
0
LINE
8
FRONT_HID
6
HIDDEN
10
1.390625
20
0.718750
30
0.0
11
1.390625
21
0.820312
31
0.0
0
LINE
8
FRONT_HID
6
HIDDEN
10
1.390625
20
0.820312
30
0.0
11
1.296875
21
0.820312
31
0.0
0
LINE
8
FRONT_HID
6
HIDDEN
10
1.296875
20
0.820312
30
0.0
11
1.390625
21
0.820312
31
0.0
0
LINE
8
FRONT_HID
6
HIDDEN
10
0.671875
20
0.820312
30
0.0
11
0.671875
21
0.718750
31
0.0
0
LINE
8
FRONT_HID
6
HIDDEN
10
0.921875
20
0.820312
30
0.0
11
0.921875
21
0.718750
31
0.0
0
LINE
8
FRONT_HID
6
HIDDEN
10
1.296875
20
0.820312
30
0.0
11
1.296875
21
0.718750
31
0.0
0
LINE
8
LEFT
10
2.171875
20
0.718750
30
0.0
11
2.203125
21
0.718750
31
0.0
0
LINE
8
LEFT
10
2.203125
20
0.718750
30
0.0
11
2.203125
21
0.820312
31
0.0
0
LINE
8
LEFT
10
2.171875
20
0.820312
30
0.0
11
2.203125
21
0.820312
31
0.0
0
LINE
8
LEFT
10
1.781250
20
0.718750
30
0.0
11
1.781250
21
0.820312
31
0.0
0
LINE
8
LEFT
10
1.781250
20
0.718750
30
0.0
11
1.812500
21
0.718750
31
0.0
0
LINE
8
LEFT
10
1.781250
20
0.820312
30
0.0
11
1.812500
21
0.820312
31
0.0
0
LINE
8
LEFT
10
1.812500
20
0.820312
30
0.0
11
2.171875
21
0.820312
31
0.0
0
LINE
8
LEFT
10
1.812500
20
0.718750
30
0.0
11
2.171875
21
0.718750
31
0.0
0
LINE
8
LEFT
10
2.171875
20
0.718750
30
0.0
11
2.171875
21
0.820312
31
0.0
0
LINE
8
LEFT
10
1.812500
20
0.718750
30
0.0
11
1.812500
21
0.820312
31
0.0
0
LINE
8
LEFT_HID
6
HIDDEN
10
2.000000
20
0.718750
30
0.0
11
1.953125
21
0.718750
31
0.0
0
LINE
8
LEFT_HID
6
HIDDEN
10
1.953125
20
0.718750
30
0.0
11
2.046875
21
0.718750
31
0.0
0
LINE
8
LEFT_HID
6
HIDDEN
10
2.046875
20
0.718750
30
0.0
11
2.000000
21
0.718750
31
0.0
0
LINE
8
LEFT_HID
6
HIDDEN
10
2.000000
20
0.820312
30
0.0
11
1.953125
21
0.820312
31
0.0
0
LINE
8
LEFT_HID
6
HIDDEN
10
1.953125
20
0.820312
30
0.0
11
2.046875
21
0.820312
31
0.0
0
LINE
8
LEFT_HID
6
HIDDEN
10
2.046875
20
0.820312
30
0.0
11
2.000000
21
0.820312
31
0.0
0
LINE
8
LEFT_HID
6
HIDDEN
10
2.000000
20
0.718750
30
0.0
11
1.953125
21
0.718750
31
0.0
0
LINE
8
LEFT_HID
6
HIDDEN
10
1.953125
20
0.718750
30
0.0
11
2.046875
21
0.718750
31
0.0
0
LINE
8
LEFT_HID
6
HIDDEN
10
2.046875
20
0.718750
30
0.0
11
2.000000
21
0.718750
31
0.0
0
LINE
8
LEFT_HID
6
HIDDEN
10
2.000000
20
0.820312
30
0.0
11
1.953125
21
0.820312
31
0.0
0
LINE
8
LEFT_HID
6
HIDDEN
10
1.953125
20
0.820312
30
0.0
11
2.046875
21
0.820312
31
0.0
0
LINE
8
LEFT_HID
6
HIDDEN
10
2.046875
20
0.820312
30
0.0
11
2.000000
21
0.820312
31
0.0
0
LINE
8
LEFT_HID
6
HIDDEN
10
2.000000
20
0.718750
30
0.0
11
1.953125
21
0.718750
31
0.0
0
LINE
8
LEFT_HID
6
HIDDEN
10
1.953125
20
0.718750
30
0.0
11
2.046875
21
0.718750
31
0.0
0
LINE
8
LEFT_HID
6
HIDDEN
10
2.046875
20
0.718750
30
0.0
11
2.000000
21
0.718750
31
0.0
0
LINE
8
LEFT_HID
6
HIDDEN
10
2.000000
20
0.820312
30
0.0
11
1.953125
21
0.820312
31
0.0
0
LINE
8
LEFT_HID
6
HIDDEN
10
1.953125
20
0.820312
30
0.0
11
2.046875
21
0.820312
31
0.0
0
LINE
8
LEFT_HID
6
HIDDEN
10
2.046875
20
0.820312
30
0.0
11
2.000000
21
0.820312
31
0.0
0
LINE
8
LEFT_HID
6
HIDDEN
10
1.953125
20
0.820312
30
0.0
11
1.953125
21
0.718750
31
0.0
0
LINE
8
LEFT_HID
6
HIDDEN
10
2.046875
20
0.820312
30
0.0
11
2.046875
21
0.718750
31
0.0
0
LINE
8
LEFT_HID
6
HIDDEN
10
1.953125
20
0.820312
30
0.0
11
1.953125
21
0.718750
31
0.0
0
LINE
8
LEFT_HID
6
HIDDEN
10
2.046875
20
0.820312
30
0.0
11
2.046875
21
0.718750
31
0.0
0
LINE
8
LEFT_HID
6
HIDDEN
10
1.953125
20
0.820312
30
0.0
11
1.953125
21
0.718750
31
0.0
0
LINE
8
LEFT_HID
6
HIDDEN
10
2.046875
20
0.820312
30
0.0
11
2.046875
21
0.718750
31
0.0
0
LINE
8
TOP
10
0.000000
20
0.031250
30
0.0
11
0.000010
21
0.030471
31
0.0
0
LINE
8
TOP
10
0.000010
20
0.030471
30
0.0
11
0.000039
21
0.029692
31
0.0
0
LINE
8
TOP
10
0.000039
20
0.029692
30
0.0
11
0.000087
21
0.028915
31
0.0
0
LINE
8
TOP
10
0.000087
20
0.028915
30
0.0
11
0.000155
21
0.028139
31
0.0
0
LINE
8
TOP
10
0.000155
20
0.028139
30
0.0
11
0.000243
21
0.027364
31
0.0
0
LINE
8
TOP
10
0.000243
20
0.027364
30
0.0
11
0.000349
21
0.026592
31
0.0
0
LINE
8
TOP
10
0.000349
20
0.026592
30
0.0
11
0.000475
21
0.025823
31
0.0
0
LINE
8
TOP
10
0.000475
20
0.025823
30
0.0
11
0.000620
21
0.025058
31
0.0
0
LINE
8
TOP
10
0.000620
20
0.025058
30
0.0
11
0.000784
21
0.024296
31
0.0
0
LINE
8
TOP
10
0.000784
20
0.024296
30
0.0
11
0.000966
21
0.023539
31
0.0
0
LINE
8
TOP
10
0.000966
20
0.023539
30
0.0
11
0.001168
21
0.022786
31
0.0
0
LINE
8
TOP
10
0.001168
20
0.022786
30
0.0
11
0.001388
21
0.022039
31
0.0
0
LINE
8
TOP
10
0.001388
20
0.022039
30
0.0
11
0.001627
21
0.021297
31
0.0
0
LINE
8
TOP
10
0.001627
20
0.021297
30
0.0
11
0.001885
21
0.020562
31
0.0
0
LINE
8
TOP
10
0.001885
20
0.020562
30
0.0
11
0.002160
21
0.019833
31
0.0
0
LINE
8
TOP
10
0.002160
20
0.019833
30
0.0
11
0.002454
21
0.019111
31
0.0
0
LINE
8
TOP
10
0.002454
20
0.019111
30
0.0
11
0.002765
21
0.018397
31
0.0
0
LINE
8
TOP
10
0.002765
20
0.018397
30
0.0
11
0.003095
21
0.017691
31
0.0
0
LINE
8
TOP
10
0.003095
20
0.017691
30
0.0
11
0.003442
21
0.016993
31
0.0
0
LINE
8
TOP
10
0.003442
20
0.016993
30
0.0
11
0.003806
21
0.016305
31
0.0
0
LINE
8
TOP
10
0.003806
20
0.016305
30
0.0
11
0.004187
21
0.015625
31
0.0
0
LINE
8
TOP
10
0.004187
20
0.015625
30
0.0
11
0.004585
21
0.014955
31
0.0
0
LINE
8
TOP
10
0.004585
20
0.014955
30
0.0
11
0.004999
21
0.014295
31
0.0
0
LINE
8
TOP
10
0.004999
20
0.014295
30
0.0
11
0.005430
21
0.013646
31
0.0
0
LINE
8
TOP
10
0.005430
20
0.013646
30
0.0
11
0.005877
21
0.013008
31
0.0
0
LINE
8
TOP
10
0.005877
20
0.013008
30
0.0
11
0.006340
21
0.012381
31
0.0
0
LINE
8
TOP
10
0.006340
20
0.012381
30
0.0
11
0.006818
21
0.011766
31
0.0
0
LINE
8
TOP
10
0.006818
20
0.011766
30
0.0
11
0.007311
21
0.011163
31
0.0
0
LINE
8
TOP
10
0.007311
20
0.011163
30
0.0
11
0.007819
21
0.010572
31
0.0
0
LINE
8
TOP
10
0.007819
20
0.010572
30
0.0
11
0.008342
21
0.009995
31
0.0
0
LINE
8
TOP
10
0.008342
20
0.009995
30
0.0
11
0.008879
21
0.009430
31
0.0
0
LINE
8
TOP
10
0.008879
20
0.009430
30
0.0
11
0.009430
21
0.008879
31
0.0
0
LINE
8
TOP
10
0.009430
20
0.008879
30
0.0
11
0.009995
21
0.008342
31
0.0
0
LINE
8
TOP
10
0.009995
20
0.008342
30
0.0
11
0.010572
21
0.007819
31
0.0
0
LINE
8
TOP
10
0.010572
20
0.007819
30
0.0
11
0.011163
21
0.007311
31
0.0
0
LINE
8
TOP
10
0.011163
20
0.007311
30
0.0
11
0.011766
21
0.006818
31
0.0
0
LINE
8
TOP
10
0.011766
20
0.006818
30
0.0
11
0.012381
21
0.006340
31
0.0
0
LINE
8
TOP
10
0.012381
20
0.006340
30
0.0
11
0.013008
21
0.005877
31
0.0
0
LINE
8
TOP
10
0.013008
20
0.005877
30
0.0
11
0.013646
21
0.005430
31
0.0
0
LINE
8
TOP
10
0.013646
20
0.005430
30
0.0
11
0.014295
21
0.004999
31
0.0
0
LINE
8
TOP
10
0.014295
20
0.004999
30
0.0
11
0.014955
21
0.004585
31
0.0
0
LINE
8
TOP
10
0.014955
20
0.004585
30
0.0
11
0.015625
21
0.004187
31
0.0
0
LINE
8
TOP
10
0.015625
20
0.004187
30
0.0
11
0.016305
21
0.003806
31
0.0
0
LINE
8
TOP
10
0.016305
20
0.003806
30
0.0
11
0.016993
21
0.003442
31
0.0
0
LINE
8
TOP
10
0.016993
20
0.003442
30
0.0
11
0.017691
21
0.003095
31
0.0
0
LINE
8
TOP
10
0.017691
20
0.003095
30
0.0
11
0.018397
21
0.002765
31
0.0
0
LINE
8
TOP
10
0.018397
20
0.002765
30
0.0
11
0.019111
21
0.002454
31
0.0
0
LINE
8
TOP
10
0.019111
20
0.002454
30
0.0
11
0.019833
21
0.002160
31
0.0
0
LINE
8
TOP
10
0.019833
20
0.002160
30
0.0
11
0.020562
21
0.001885
31
0.0
0
LINE
8
TOP
10
0.020562
20
0.001885
30
0.0
11
0.021297
21
0.001627
31
0.0
0
LINE
8
TOP
10
0.021297
20
0.001627
30
0.0
11
0.022039
21
0.001388
31
0.0
0
LINE
8
TOP
10
0.022039
20
0.001388
30
0.0
11
0.022786
21
0.001168
31
0.0
0
LINE
8
TOP
10
0.022786
20
0.001168
30
0.0
11
0.023539
21
0.000966
31
0.0
0
LINE
8
TOP
10
0.023539
20
0.000966
30
0.0
11
0.024296
21
0.000784
31
0.0
0
LINE
8
TOP
10
0.024296
20
0.000784
30
0.0
11
0.025058
21
0.000620
31
0.0
0
LINE
8
TOP
10
0.025058
20
0.000620
30
0.0
11
0.025823
21
0.000475
31
0.0
0
LINE
8
TOP
10
0.025823
20
0.000475
30
0.0
11
0.026592
21
0.000349
31
0.0
0
LINE
8
TOP
10
0.026592
20
0.000349
30
0.0
11
0.027364
21
0.000243
31
0.0
0
LINE
8
TOP
10
0.027364
20
0.000243
30
0.0
11
0.028139
21
0.000155
31
0.0
0
LINE
8
TOP
10
0.028139
20
0.000155
30
0.0
11
0.028915
21
0.000087
31
0.0
0
LINE
8
TOP
10
0.028915
20
0.000087
30
0.0
11
0.029692
21
0.000039
31
0.0
0
LINE
8
TOP
10
0.029692
20
0.000039
30
0.0
11
0.030471
21
0.000010
31
0.0
0
LINE
8
TOP
10
0.030471
20
0.000010
30
0.0
11
0.031250
21
0.000000
31
0.0
0
LINE
8
TOP
10
0.031250
20
0.000000
30
0.0
11
1.453125
21
0.000000
31
0.0
0
LINE
8
TOP
10
1.453125
20
0.000000
30
0.0
11
1.453904
21
0.000010
31
0.0
0
LINE
8
TOP
10
1.453904
20
0.000010
30
0.0
11
1.454683
21
0.000039
31
0.0
0
LINE
8
TOP
10
1.454683
20
0.000039
30
0.0
11
1.455460
21
0.000087
31
0.0
0
LINE
8
TOP
10
1.455460
20
0.000087
30
0.0
11
1.456236
21
0.000155
31
0.0
0
LINE
8
TOP
10
1.456236
20
0.000155
30
0.0
11
1.457011
21
0.000243
31
0.0
0
LINE
8
TOP
10
1.457011
20
0.000243
30
0.0
11
1.457783
21
0.000349
31
0.0
0
LINE
8
TOP
10
1.457783
20
0.000349
30
0.0
11
1.458552
21
0.000475
31
0.0
0
LINE
8
TOP
10
1.458552
20
0.000475
30
0.0
11
1.459317
21
0.000620
31
0.0
0
LINE
8
TOP
10
1.459317
20
0.000620
30
0.0
11
1.460079
21
0.000784
31
0.0
0
LINE
8
TOP
10
1.460079
20
0.000784
30
0.0
11
1.460836
21
0.000966
31
0.0
0
LINE
8
TOP
10
1.460836
20
0.000966
30
0.0
11
1.461589
21
0.001168
31
0.0
0
LINE
8
TOP
10
1.461589
20
0.001168
30
0.0
11
1.462336
21
0.001388
31
0.0
0
LINE
8
TOP
10
1.462336
20
0.001388
30
0.0
11
1.463078
21
0.001627
31
0.0
0
LINE
8
TOP
10
1.463078
20
0.001627
30
0.0
11
1.463813
21
0.001885
31
0.0
0
LINE
8
TOP
10
1.463813
20
0.001885
30
0.0
11
1.464542
21
0.002160
31
0.0
0
LINE
8
TOP
10
1.464542
20
0.002160
30
0.0
11
1.465264
21
0.002454
31
0.0
0
LINE
8
TOP
10
1.465264
20
0.002454
30
0.0
11
1.465978
21
0.002765
31
0.0
0
LINE
8
TOP
10
1.465978
20
0.002765
30
0.0
11
1.466684
21
0.003095
31
0.0
0
LINE
8
TOP
10
1.466684
20
0.003095
30
0.0
11
1.467382
21
0.003442
31
0.0
0
LINE
8
TOP
10
1.467382
20
0.003442
30
0.0
11
1.468070
21
0.003806
31
0.0
0
LINE
8
TOP
10
1.468070
20
0.003806
30
0.0
11
1.468750
21
0.004187
31
0.0
0
LINE
8
TOP
10
1.468750
20
0.004187
30
0.0
11
1.469420
21
0.004585
31
0.0
0
LINE
8
TOP
10
1.469420
20
0.004585
30
0.0
11
1.470080
21
0.004999
31
0.0
0
LINE
8
TOP
10
1.470080
20
0.004999
30
0.0
11
1.470729
21
0.005430
31
0.0
0
LINE
8
TOP
10
1.470729
20
0.005430
30
0.0
11
1.471367
21
0.005877
31
0.0
0
LINE
8
TOP
10
1.471367
20
0.005877
30
0.0
11
1.471994
21
0.006340
31
0.0
0
LINE
8
TOP
10
1.471994
20
0.006340
30
0.0
11
1.472609
21
0.006818
31
0.0
0
LINE
8
TOP
10
1.472609
20
0.006818
30
0.0
11
1.473212
21
0.007311
31
0.0
0
LINE
8
TOP
10
1.473212
20
0.007311
30
0.0
11
1.473803
21
0.007819
31
0.0
0
LINE
8
TOP
10
1.473803
20
0.007819
30
0.0
11
1.474380
21
0.008342
31
0.0
0
LINE
8
TOP
10
1.474380
20
0.008342
30
0.0
11
1.474945
21
0.008879
31
0.0
0
LINE
8
TOP
10
1.474945
20
0.008879
30
0.0
11
1.475496
21
0.009430
31
0.0
0
LINE
8
TOP
10
1.475496
20
0.009430
30
0.0
11
1.476033
21
0.009995
31
0.0
0
LINE
8
TOP
10
1.476033
20
0.009995
30
0.0
11
1.476556
21
0.010572
31
0.0
0
LINE
8
TOP
10
1.476556
20
0.010572
30
0.0
11
1.477064
21
0.011163
31
0.0
0
LINE
8
TOP
10
1.477064
20
0.011163
30
0.0
11
1.477557
21
0.011766
31
0.0
0
LINE
8
TOP
10
1.477557
20
0.011766
30
0.0
11
1.478035
21
0.012381
31
0.0
0
LINE
8
TOP
10
1.478035
20
0.012381
30
0.0
11
1.478498
21
0.013008
31
0.0
0
LINE
8
TOP
10
1.478498
20
0.013008
30
0.0
11
1.478945
21
0.013646
31
0.0
0
LINE
8
TOP
10
1.478945
20
0.013646
30
0.0
11
1.479376
21
0.014295
31
0.0
0
LINE
8
TOP
10
1.479376
20
0.014295
30
0.0
11
1.479790
21
0.014955
31
0.0
0
LINE
8
TOP
10
1.479790
20
0.014955
30
0.0
11
1.480188
21
0.015625
31
0.0
0
LINE
8
TOP
10
1.480188
20
0.015625
30
0.0
11
1.480569
21
0.016305
31
0.0
0
LINE
8
TOP
10
1.480569
20
0.016305
30
0.0
11
1.480933
21
0.016993
31
0.0
0
LINE
8
TOP
10
1.480933
20
0.016993
30
0.0
11
1.481280
21
0.017691
31
0.0
0
LINE
8
TOP
10
1.481280
20
0.017691
30
0.0
11
1.481610
21
0.018397
31
0.0
0
LINE
8
TOP
10
1.481610
20
0.018397
30
0.0
11
1.481921
21
0.019111
31
0.0
0
LINE
8
TOP
10
1.481921
20
0.019111
30
0.0
11
1.482215
21
0.019833
31
0.0
0
LINE
8
TOP
10
1.482215
20
0.019833
30
0.0
11
1.482490
21
0.020562
31
0.0
0
LINE
8
TOP
10
1.482490
20
0.020562
30
0.0
11
1.482748
21
0.021297
31
0.0
0
LINE
8
TOP
10
1.482748
20
0.021297
30
0.0
11
1.482987
21
0.022039
31
0.0
0
LINE
8
TOP
10
1.482987
20
0.022039
30
0.0
11
1.483207
21
0.022786
31
0.0
0
LINE
8
TOP
10
1.483207
20
0.022786
30
0.0
11
1.483409
21
0.023539
31
0.0
0
LINE
8
TOP
10
1.483409
20
0.023539
30
0.0
11
1.483591
21
0.024296
31
0.0
0
LINE
8
TOP
10
1.483591
20
0.024296
30
0.0
11
1.483755
21
0.025058
31
0.0
0
LINE
8
TOP
10
1.483755
20
0.025058
30
0.0
11
1.483900
21
0.025823
31
0.0
0
LINE
8
TOP
10
1.483900
20
0.025823
30
0.0
11
1.484026
21
0.026592
31
0.0
0
LINE
8
TOP
10
1.484026
20
0.026592
30
0.0
11
1.484132
21
0.027364
31
0.0
0
LINE
8
TOP
10
1.484132
20
0.027364
30
0.0
11
1.484220
21
0.028139
31
0.0
0
LINE
8
TOP
10
1.484220
20
0.028139
30
0.0
11
1.484288
21
0.028915
31
0.0
0
LINE
8
TOP
10
1.484288
20
0.028915
30
0.0
11
1.484336
21
0.029692
31
0.0
0
LINE
8
TOP
10
1.484336
20
0.029692
30
0.0
11
1.484365
21
0.030471
31
0.0
0
LINE
8
TOP
10
1.484365
20
0.030471
30
0.0
11
1.484375
21
0.031250
31
0.0
0
LINE
8
TOP
10
1.484375
20
0.031250
30
0.0
11
1.484375
21
0.390625
31
0.0
0
LINE
8
TOP
10
1.484375
20
0.390625
30
0.0
11
1.484365
21
0.391404
31
0.0
0
LINE
8
TOP
10
1.484365
20
0.391404
30
0.0
11
1.484336
21
0.392183
31
0.0
0
LINE
8
TOP
10
1.484336
20
0.392183
30
0.0
11
1.484288
21
0.392960
31
0.0
0
LINE
8
TOP
10
1.484288
20
0.392960
30
0.0
11
1.484220
21
0.393736
31
0.0
0
LINE
8
TOP
10
1.484220
20
0.393736
30
0.0
11
1.484132
21
0.394511
31
0.0
0
LINE
8
TOP
10
1.484132
20
0.394511
30
0.0
11
1.484026
21
0.395283
31
0.0
0
LINE
8
TOP
10
1.484026
20
0.395283
30
0.0
11
1.483900
21
0.396052
31
0.0
0
LINE
8
TOP
10
1.483900
20
0.396052
30
0.0
11
1.483755
21
0.396817
31
0.0
0
LINE
8
TOP
10
1.483755
20
0.396817
30
0.0
11
1.483591
21
0.397579
31
0.0
0
LINE
8
TOP
10
1.483591
20
0.397579
30
0.0
11
1.483409
21
0.398336
31
0.0
0
LINE
8
TOP
10
1.483409
20
0.398336
30
0.0
11
1.483207
21
0.399089
31
0.0
0
LINE
8
TOP
10
1.483207
20
0.399089
30
0.0
11
1.482987
21
0.399836
31
0.0
0
LINE
8
TOP
10
1.482987
20
0.399836
30
0.0
11
1.482748
21
0.400578
31
0.0
0
LINE
8
TOP
10
1.482748
20
0.400578
30
0.0
11
1.482490
21
0.401313
31
0.0
0
LINE
8
TOP
10
1.482490
20
0.401313
30
0.0
11
1.482215
21
0.402042
31
0.0
0
LINE
8
TOP
10
1.482215
20
0.402042
30
0.0
11
1.481921
21
0.402764
31
0.0
0
LINE
8
TOP
10
1.481921
20
0.402764
30
0.0
11
1.481610
21
0.403478
31
0.0
0
LINE
8
TOP
10
1.481610
20
0.403478
30
0.0
11
1.481280
21
0.404184
31
0.0
0
LINE
8
TOP
10
1.481280
20
0.404184
30
0.0
11
1.480933
21
0.404882
31
0.0
0
LINE
8
TOP
10
1.480933
20
0.404882
30
0.0
11
1.480569
21
0.405570
31
0.0
0
LINE
8
TOP
10
1.480569
20
0.405570
30
0.0
11
1.480188
21
0.406250
31
0.0
0
LINE
8
TOP
10
1.480188
20
0.406250
30
0.0
11
1.479790
21
0.406920
31
0.0
0
LINE
8
TOP
10
1.479790
20
0.406920
30
0.0
11
1.479376
21
0.407580
31
0.0
0
LINE
8
TOP
10
1.479376
20
0.407580
30
0.0
11
1.478945
21
0.408229
31
0.0
0
LINE
8
TOP
10
1.478945
20
0.408229
30
0.0
11
1.478498
21
0.408867
31
0.0
0
LINE
8
TOP
10
1.478498
20
0.408867
30
0.0
11
1.478035
21
0.409494
31
0.0
0
LINE
8
TOP
10
1.478035
20
0.409494
30
0.0
11
1.477557
21
0.410109
31
0.0
0
LINE
8
TOP
10
1.477557
20
0.410109
30
0.0
11
1.477064
21
0.410712
31
0.0
0
LINE
8
TOP
10
1.477064
20
0.410712
30
0.0
11
1.476556
21
0.411303
31
0.0
0
LINE
8
TOP
10
1.476556
20
0.411303
30
0.0
11
1.476033
21
0.411880
31
0.0
0
LINE
8
TOP
10
1.476033
20
0.411880
30
0.0
11
1.475496
21
0.412445
31
0.0
0
LINE
8
TOP
10
1.475496
20
0.412445
30
0.0
11
1.474945
21
0.412996
31
0.0
0
LINE
8
TOP
10
1.474945
20
0.412996
30
0.0
11
1.474380
21
0.413533
31
0.0
0
LINE
8
TOP
10
1.474380
20
0.413533
30
0.0
11
1.473803
21
0.414056
31
0.0
0
LINE
8
TOP
10
1.473803
20
0.414056
30
0.0
11
1.473212
21
0.414564
31
0.0
0
LINE
8
TOP
10
1.473212
20
0.414564
30
0.0
11
1.472609
21
0.415057
31
0.0
0
LINE
8
TOP
10
1.472609
20
0.415057
30
0.0
11
1.471994
21
0.415535
31
0.0
0
LINE
8
TOP
10
1.471994
20
0.415535
30
0.0
11
1.471367
21
0.415998
31
0.0
0
LINE
8
TOP
10
1.471367
20
0.415998
30
0.0
11
1.470729
21
0.416445
31
0.0
0
LINE
8
TOP
10
1.470729
20
0.416445
30
0.0
11
1.470080
21
0.416876
31
0.0
0
LINE
8
TOP
10
1.470080
20
0.416876
30
0.0
11
1.469420
21
0.417290
31
0.0
0
LINE
8
TOP
10
1.469420
20
0.417290
30
0.0
11
1.468750
21
0.417688
31
0.0
0
LINE
8
TOP
10
1.468750
20
0.417688
30
0.0
11
1.468070
21
0.418069
31
0.0
0
LINE
8
TOP
10
1.468070
20
0.418069
30
0.0
11
1.467382
21
0.418433
31
0.0
0
LINE
8
TOP
10
1.467382
20
0.418433
30
0.0
11
1.466684
21
0.418780
31
0.0
0
LINE
8
TOP
10
1.466684
20
0.418780
30
0.0
11
1.465978
21
0.419110
31
0.0
0
LINE
8
TOP
10
1.465978
20
0.419110
30
0.0
11
1.465264
21
0.419421
31
0.0
0
LINE
8
TOP
10
1.465264
20
0.419421
30
0.0
11
1.464542
21
0.419715
31
0.0
0
LINE
8
TOP
10
1.464542
20
0.419715
30
0.0
11
1.463813
21
0.419990
31
0.0
0
LINE
8
TOP
10
1.463813
20
0.419990
30
0.0
11
1.463078
21
0.420248
31
0.0
0
LINE
8
TOP
10
1.463078
20
0.420248
30
0.0
11
1.462336
21
0.420487
31
0.0
0
LINE
8
TOP
10
1.462336
20
0.420487
30
0.0
11
1.461589
21
0.420707
31
0.0
0
LINE
8
TOP
10
1.461589
20
0.420707
30
0.0
11
1.460836
21
0.420909
31
0.0
0
LINE
8
TOP
10
1.460836
20
0.420909
30
0.0
11
1.460079
21
0.421091
31
0.0
0
LINE
8
TOP
10
1.460079
20
0.421091
30
0.0
11
1.459317
21
0.421255
31
0.0
0
LINE
8
TOP
10
1.459317
20
0.421255
30
0.0
11
1.458552
21
0.421400
31
0.0
0
LINE
8
TOP
10
1.458552
20
0.421400
30
0.0
11
1.457783
21
0.421526
31
0.0
0
LINE
8
TOP
10
1.457783
20
0.421526
30
0.0
11
1.457011
21
0.421632
31
0.0
0
LINE
8
TOP
10
1.457011
20
0.421632
30
0.0
11
1.456236
21
0.421720
31
0.0
0
LINE
8
TOP
10
1.456236
20
0.421720
30
0.0
11
1.455460
21
0.421788
31
0.0
0
LINE
8
TOP
10
1.455460
20
0.421788
30
0.0
11
1.454683
21
0.421836
31
0.0
0
LINE
8
TOP
10
1.454683
20
0.421836
30
0.0
11
1.453904
21
0.421865
31
0.0
0
LINE
8
TOP
10
1.453904
20
0.421865
30
0.0
11
1.453125
21
0.421875
31
0.0
0
LINE
8
TOP
10
1.453125
20
0.421875
30
0.0
11
0.031250
21
0.421875
31
0.0
0
LINE
8
TOP
10
0.031250
20
0.421875
30
0.0
11
0.030471
21
0.421865
31
0.0
0
LINE
8
TOP
10
0.030471
20
0.421865
30
0.0
11
0.029692
21
0.421836
31
0.0
0
LINE
8
TOP
10
0.029692
20
0.421836
30
0.0
11
0.028915
21
0.421788
31
0.0
0
LINE
8
TOP
10
0.028915
20
0.421788
30
0.0
11
0.028139
21
0.421720
31
0.0
0
LINE
8
TOP
10
0.028139
20
0.421720
30
0.0
11
0.027364
21
0.421632
31
0.0
0
LINE
8
TOP
10
0.027364
20
0.421632
30
0.0
11
0.026592
21
0.421526
31
0.0
0
LINE
8
TOP
10
0.026592
20
0.421526
30
0.0
11
0.025823
21
0.421400
31
0.0
0
LINE
8
TOP
10
0.025823
20
0.421400
30
0.0
11
0.025058
21
0.421255
31
0.0
0
LINE
8
TOP
10
0.025058
20
0.421255
30
0.0
11
0.024296
21
0.421091
31
0.0
0
LINE
8
TOP
10
0.024296
20
0.421091
30
0.0
11
0.023539
21
0.420909
31
0.0
0
LINE
8
TOP
10
0.023539
20
0.420909
30
0.0
11
0.022786
21
0.420707
31
0.0
0
LINE
8
TOP
10
0.022786
20
0.420707
30
0.0
11
0.022039
21
0.420487
31
0.0
0
LINE
8
TOP
10
0.022039
20
0.420487
30
0.0
11
0.021297
21
0.420248
31
0.0
0
LINE
8
TOP
10
0.021297
20
0.420248
30
0.0
11
0.020562
21
0.419990
31
0.0
0
LINE
8
TOP
10
0.020562
20
0.419990
30
0.0
11
0.019833
21
0.419715
31
0.0
0
LINE
8
TOP
10
0.019833
20
0.419715
30
0.0
11
0.019111
21
0.419421
31
0.0
0
LINE
8
TOP
10
0.019111
20
0.419421
30
0.0
11
0.018397
21
0.419110
31
0.0
0
LINE
8
TOP
10
0.018397
20
0.419110
30
0.0
11
0.017691
21
0.418780
31
0.0
0
LINE
8
TOP
10
0.017691
20
0.418780
30
0.0
11
0.016993
21
0.418433
31
0.0
0
LINE
8
TOP
10
0.016993
20
0.418433
30
0.0
11
0.016305
21
0.418069
31
0.0
0
LINE
8
TOP
10
0.016305
20
0.418069
30
0.0
11
0.015625
21
0.417688
31
0.0
0
LINE
8
TOP
10
0.015625
20
0.417688
30
0.0
11
0.014955
21
0.417290
31
0.0
0
LINE
8
TOP
10
0.014955
20
0.417290
30
0.0
11
0.014295
21
0.416876
31
0.0
0
LINE
8
TOP
10
0.014295
20
0.416876
30
0.0
11
0.013646
21
0.416445
31
0.0
0
LINE
8
TOP
10
0.013646
20
0.416445
30
0.0
11
0.013008
21
0.415998
31
0.0
0
LINE
8
TOP
10
0.013008
20
0.415998
30
0.0
11
0.012381
21
0.415535
31
0.0
0
LINE
8
TOP
10
0.012381
20
0.415535
30
0.0
11
0.011766
21
0.415057
31
0.0
0
LINE
8
TOP
10
0.011766
20
0.415057
30
0.0
11
0.011163
21
0.414564
31
0.0
0
LINE
8
TOP
10
0.011163
20
0.414564
30
0.0
11
0.010572
21
0.414056
31
0.0
0
LINE
8
TOP
10
0.010572
20
0.414056
30
0.0
11
0.009995
21
0.413533
31
0.0
0
LINE
8
TOP
10
0.009995
20
0.413533
30
0.0
11
0.009430
21
0.412996
31
0.0
0
LINE
8
TOP
10
0.009430
20
0.412996
30
0.0
11
0.008879
21
0.412445
31
0.0
0
LINE
8
TOP
10
0.008879
20
0.412445
30
0.0
11
0.008342
21
0.411880
31
0.0
0
LINE
8
TOP
10
0.008342
20
0.411880
30
0.0
11
0.007819
21
0.411303
31
0.0
0
LINE
8
TOP
10
0.007819
20
0.411303
30
0.0
11
0.007311
21
0.410712
31
0.0
0
LINE
8
TOP
10
0.007311
20
0.410712
30
0.0
11
0.006818
21
0.410109
31
0.0
0
LINE
8
TOP
10
0.006818
20
0.410109
30
0.0
11
0.006340
21
0.409494
31
0.0
0
LINE
8
TOP
10
0.006340
20
0.409494
30
0.0
11
0.005877
21
0.408867
31
0.0
0
LINE
8
TOP
10
0.005877
20
0.408867
30
0.0
11
0.005430
21
0.408229
31
0.0
0
LINE
8
TOP
10
0.005430
20
0.408229
30
0.0
11
0.004999
21
0.407580
31
0.0
0
LINE
8
TOP
10
0.004999
20
0.407580
30
0.0
11
0.004585
21
0.406920
31
0.0
0
LINE
8
TOP
10
0.004585
20
0.406920
30
0.0
11
0.004187
21
0.406250
31
0.0
0
LINE
8
TOP
10
0.004187
20
0.406250
30
0.0
11
0.003806
21
0.405570
31
0.0
0
LINE
8
TOP
10
0.003806
20
0.405570
30
0.0
11
0.003442
21
0.404882
31
0.0
0
LINE
8
TOP
10
0.003442
20
0.404882
30
0.0
11
0.003095
21
0.404184
31
0.0
0
LINE
8
TOP
10
0.003095
20
0.404184
30
0.0
11
0.002765
21
0.403478
31
0.0
0
LINE
8
TOP
10
0.002765
20
0.403478
30
0.0
11
0.002454
21
0.402764
31
0.0
0
LINE
8
TOP
10
0.002454
20
0.402764
30
0.0
11
0.002160
21
0.402042
31
0.0
0
LINE
8
TOP
10
0.002160
20
0.402042
30
0.0
11
0.001885
21
0.401313
31
0.0
0
LINE
8
TOP
10
0.001885
20
0.401313
30
0.0
11
0.001627
21
0.400578
31
0.0
0
LINE
8
TOP
10
0.001627
20
0.400578
30
0.0
11
0.001388
21
0.399836
31
0.0
0
LINE
8
TOP
10
0.001388
20
0.399836
30
0.0
11
0.001168
21
0.399089
31
0.0
0
LINE
8
TOP
10
0.001168
20
0.399089
30
0.0
11
0.000966
21
0.398336
31
0.0
0
LINE
8
TOP
10
0.000966
20
0.398336
30
0.0
11
0.000784
21
0.397579
31
0.0
0
LINE
8
TOP
10
0.000784
20
0.397579
30
0.0
11
0.000620
21
0.396817
31
0.0
0
LINE
8
TOP
10
0.000620
20
0.396817
30
0.0
11
0.000475
21
0.396052
31
0.0
0
LINE
8
TOP
10
0.000475
20
0.396052
30
0.0
11
0.000349
21
0.395283
31
0.0
0
LINE
8
TOP
10
0.000349
20
0.395283
30
0.0
11
0.000243
21
0.394511
31
0.0
0
LINE
8
TOP
10
0.000243
20
0.394511
30
0.0
11
0.000155
21
0.393736
31
0.0
0
LINE
8
TOP
10
0.000155
20
0.393736
30
0.0
11
0.000087
21
0.392960
31
0.0
0
LINE
8
TOP
10
0.000087
20
0.392960
30
0.0
11
0.000039
21
0.392183
31
0.0
0
LINE
8
TOP
10
0.000039
20
0.392183
30
0.0
11
0.000010
21
0.391404
31
0.0
0
LINE
8
TOP
10
0.000010
20
0.391404
30
0.0
11
0.000000
21
0.390625
31
0.0
0
LINE
8
TOP
10
0.000000
20
0.390625
30
0.0
11
0.000000
21
0.031250
31
0.0
0
LINE
8
TOP
10
0.765625
20
0.203125
30
0.0
11
0.765392
21
0.207792
31
0.0
0
LINE
8
TOP
10
0.765392
20
0.207792
30
0.0
11
0.764696
21
0.212413
31
0.0
0
LINE
8
TOP
10
0.764696
20
0.212413
30
0.0
11
0.763542
21
0.216942
31
0.0
0
LINE
8
TOP
10
0.763542
20
0.216942
30
0.0
11
0.761944
21
0.221333
31
0.0
0
LINE
8
TOP
10
0.761944
20
0.221333
30
0.0
11
0.759917
21
0.225543
31
0.0
0
LINE
8
TOP
10
0.759917
20
0.225543
30
0.0
11
0.757480
21
0.229531
31
0.0
0
LINE
8
TOP
10
0.757480
20
0.229531
30
0.0
11
0.754658
21
0.233256
31
0.0
0
LINE
8
TOP
10
0.754658
20
0.233256
30
0.0
11
0.751480
21
0.236681
31
0.0
0
LINE
8
TOP
10
0.751480
20
0.236681
30
0.0
11
0.747976
21
0.239773
31
0.0
0
LINE
8
TOP
10
0.747976
20
0.239773
30
0.0
11
0.744182
21
0.242501
31
0.0
0
LINE
8
TOP
10
0.744182
20
0.242501
30
0.0
11
0.740135
21
0.244838
31
0.0
0
LINE
8
TOP
10
0.740135
20
0.244838
30
0.0
11
0.735875
21
0.246760
31
0.0
0
LINE
8
TOP
10
0.735875
20
0.246760
30
0.0
11
0.731446
21
0.248248
31
0.0
0
LINE
8
TOP
10
0.731446
20
0.248248
30
0.0
11
0.726890
21
0.249288
31
0.0
0
LINE
8
TOP
10
0.726890
20
0.249288
30
0.0
11
0.722253
21
0.249869
31
0.0
0
LINE
8
TOP
10
0.722253
20
0.249869
30
0.0
11
0.717581
21
0.249985
31
0.0
0
LINE
8
TOP
10
0.717581
20
0.249985
30
0.0
11
0.712921
21
0.249636
31
0.0
0
LINE
8
TOP
10
0.712921
20
0.249636
30
0.0
11
0.708319
21
0.248825
31
0.0
0
LINE
8
TOP
10
0.708319
20
0.248825
30
0.0
11
0.703821
21
0.247559
31
0.0
0
LINE
8
TOP
10
0.703821
20
0.247559
30
0.0
11
0.699471
21
0.245852
31
0.0
0
LINE
8
TOP
10
0.699471
20
0.245852
30
0.0
11
0.695312
21
0.243720
31
0.0
0
LINE
8
TOP
10
0.695312
20
0.243720
30
0.0
11
0.691387
21
0.241185
31
0.0
0
LINE
8
TOP
10
0.691387
20
0.241185
30
0.0
11
0.687733
21
0.238271
31
0.0
0
LINE
8
TOP
10
0.687733
20
0.238271
30
0.0
11
0.684388
21
0.235008
31
0.0
0
LINE
8
TOP
10
0.684388
20
0.235008
30
0.0
11
0.681384
21
0.231428
31
0.0
0
LINE
8
TOP
10
0.681384
20
0.231428
30
0.0
11
0.678752
21
0.227567
31
0.0
0
LINE
8
TOP
10
0.678752
20
0.227567
30
0.0
11
0.676517
21
0.223463
31
0.0
0
LINE
8
TOP
10
0.676517
20
0.223463
30
0.0
11
0.674702
21
0.219157
31
0.0
0
LINE
8
TOP
10
0.674702
20
0.219157
30
0.0
11
0.673325
21
0.214692
31
0.0
0
LINE
8
TOP
10
0.673325
20
0.214692
30
0.0
11
0.672399
21
0.210111
31
0.0
0
LINE
8
TOP
10
0.672399
20
0.210111
30
0.0
11
0.671933
21
0.205462
31
0.0
0
LINE
8
TOP
10
0.671933
20
0.205462
30
0.0
11
0.671933
21
0.200788
31
0.0
0
LINE
8
TOP
10
0.671933
20
0.200788
30
0.0
11
0.672399
21
0.196139
31
0.0
0
LINE
8
TOP
10
0.672399
20
0.196139
30
0.0
11
0.673325
21
0.191558
31
0.0
0
LINE
8
TOP
10
0.673325
20
0.191558
30
0.0
11
0.674702
21
0.187093
31
0.0
0
LINE
8
TOP
10
0.674702
20
0.187093
30
0.0
11
0.676517
21
0.182787
31
0.0
0
LINE
8
TOP
10
0.676517
20
0.182787
30
0.0
11
0.678752
21
0.178683
31
0.0
0
LINE
8
TOP
10
0.678752
20
0.178683
30
0.0
11
0.681384
21
0.174822
31
0.0
0
LINE
8
TOP
10
0.681384
20
0.174822
30
0.0
11
0.684388
21
0.171242
31
0.0
0
LINE
8
TOP
10
0.684388
20
0.171242
30
0.0
11
0.687733
21
0.167979
31
0.0
0
LINE
8
TOP
10
0.687733
20
0.167979
30
0.0
11
0.691387
21
0.165065
31
0.0
0
LINE
8
TOP
10
0.691387
20
0.165065
30
0.0
11
0.695312
21
0.162530
31
0.0
0
LINE
8
TOP
10
0.695312
20
0.162530
30
0.0
11
0.699471
21
0.160398
31
0.0
0
LINE
8
TOP
10
0.699471
20
0.160398
30
0.0
11
0.703821
21
0.158691
31
0.0
0
LINE
8
TOP
10
0.703821
20
0.158691
30
0.0
11
0.708319
21
0.157425
31
0.0
0
LINE
8
TOP
10
0.708319
20
0.157425
30
0.0
11
0.712921
21
0.156614
31
0.0
0
LINE
8
TOP
10
0.712921
20
0.156614
30
0.0
11
0.717581
21
0.156265
31
0.0
0
LINE
8
TOP
10
0.717581
20
0.156265
30
0.0
11
0.722253
21
0.156381
31
0.0
0
LINE
8
TOP
10
0.722253
20
0.156381
30
0.0
11
0.726890
21
0.156962
31
0.0
0
LINE
8
TOP
10
0.726890
20
0.156962
30
0.0
11
0.731446
21
0.158002
31
0.0
0
LINE
8
TOP
10
0.731446
20
0.158002
30
0.0
11
0.735875
21
0.159490
31
0.0
0
LINE
8
TOP
10
0.735875
20
0.159490
30
0.0
11
0.740135
21
0.161412
31
0.0
0
LINE
8
TOP
10
0.740135
20
0.161412
30
0.0
11
0.744182
21
0.163749
31
0.0
0
LINE
8
TOP
10
0.744182
20
0.163749
30
0.0
11
0.747976
21
0.166477
31
0.0
0
LINE
8
TOP
10
0.747976
20
0.166477
30
0.0
11
0.751480
21
0.169569
31
0.0
0
LINE
8
TOP
10
0.751480
20
0.169569
30
0.0
11
0.754658
21
0.172994
31
0.0
0
LINE
8
TOP
10
0.754658
20
0.172994
30
0.0
11
0.757480
21
0.176719
31
0.0
0
LINE
8
TOP
10
0.757480
20
0.176719
30
0.0
11
0.759917
21
0.180707
31
0.0
0
LINE
8
TOP
10
0.759917
20
0.180707
30
0.0
11
0.761944
21
0.184917
31
0.0
0
LINE
8
TOP
10
0.761944
20
0.184917
30
0.0
11
0.763542
21
0.189308
31
0.0
0
LINE
8
TOP
10
0.763542
20
0.189308
30
0.0
11
0.764696
21
0.193837
31
0.0
0
LINE
8
TOP
10
0.764696
20
0.193837
30
0.0
11
0.765392
21
0.198458
31
0.0
0
LINE
8
TOP
10
0.765392
20
0.198458
30
0.0
11
0.765625
21
0.203125
31
0.0
0
LINE
8
TOP
10
1.015625
20
0.203125
30
0.0
11
1.015392
21
0.207792
31
0.0
0
LINE
8
TOP
10
1.015392
20
0.207792
30
0.0
11
1.014696
21
0.212413
31
0.0
0
LINE
8
TOP
10
1.014696
20
0.212413
30
0.0
11
1.013542
21
0.216942
31
0.0
0
LINE
8
TOP
10
1.013542
20
0.216942
30
0.0
11
1.011944
21
0.221333
31
0.0
0
LINE
8
TOP
10
1.011944
20
0.221333
30
0.0
11
1.009917
21
0.225543
31
0.0
0
LINE
8
TOP
10
1.009917
20
0.225543
30
0.0
11
1.007480
21
0.229531
31
0.0
0
LINE
8
TOP
10
1.007480
20
0.229531
30
0.0
11
1.004658
21
0.233256
31
0.0
0
LINE
8
TOP
10
1.004658
20
0.233256
30
0.0
11
1.001480
21
0.236681
31
0.0
0
LINE
8
TOP
10
1.001480
20
0.236681
30
0.0
11
0.997976
21
0.239773
31
0.0
0
LINE
8
TOP
10
0.997976
20
0.239773
30
0.0
11
0.994182
21
0.242501
31
0.0
0
LINE
8
TOP
10
0.994182
20
0.242501
30
0.0
11
0.990135
21
0.244838
31
0.0
0
LINE
8
TOP
10
0.990135
20
0.244838
30
0.0
11
0.985875
21
0.246760
31
0.0
0
LINE
8
TOP
10
0.985875
20
0.246760
30
0.0
11
0.981446
21
0.248248
31
0.0
0
LINE
8
TOP
10
0.981446
20
0.248248
30
0.0
11
0.976890
21
0.249288
31
0.0
0
LINE
8
TOP
10
0.976890
20
0.249288
30
0.0
11
0.972253
21
0.249869
31
0.0
0
LINE
8
TOP
10
0.972253
20
0.249869
30
0.0
11
0.967581
21
0.249985
31
0.0
0
LINE
8
TOP
10
0.967581
20
0.249985
30
0.0
11
0.962921
21
0.249636
31
0.0
0
LINE
8
TOP
10
0.962921
20
0.249636
30
0.0
11
0.958319
21
0.248825
31
0.0
0
LINE
8
TOP
10
0.958319
20
0.248825
30
0.0
11
0.953821
21
0.247559
31
0.0
0
LINE
8
TOP
10
0.953821
20
0.247559
30
0.0
11
0.949471
21
0.245852
31
0.0
0
LINE
8
TOP
10
0.949471
20
0.245852
30
0.0
11
0.945312
21
0.243720
31
0.0
0
LINE
8
TOP
10
0.945312
20
0.243720
30
0.0
11
0.941387
21
0.241185
31
0.0
0
LINE
8
TOP
10
0.941387
20
0.241185
30
0.0
11
0.937733
21
0.238271
31
0.0
0
LINE
8
TOP
10
0.937733
20
0.238271
30
0.0
11
0.934388
21
0.235008
31
0.0
0
LINE
8
TOP
10
0.934388
20
0.235008
30
0.0
11
0.931384
21
0.231428
31
0.0
0
LINE
8
TOP
10
0.931384
20
0.231428
30
0.0
11
0.928752
21
0.227567
31
0.0
0
LINE
8
TOP
10
0.928752
20
0.227567
30
0.0
11
0.926517
21
0.223463
31
0.0
0
LINE
8
TOP
10
0.926517
20
0.223463
30
0.0
11
0.924702
21
0.219157
31
0.0
0
LINE
8
TOP
10
0.924702
20
0.219157
30
0.0
11
0.923325
21
0.214692
31
0.0
0
LINE
8
TOP
10
0.923325
20
0.214692
30
0.0
11
0.922399
21
0.210111
31
0.0
0
LINE
8
TOP
10
0.922399
20
0.210111
30
0.0
11
0.921933
21
0.205462
31
0.0
0
LINE
8
TOP
10
0.921933
20
0.205462
30
0.0
11
0.921933
21
0.200788
31
0.0
0
LINE
8
TOP
10
0.921933
20
0.200788
30
0.0
11
0.922399
21
0.196139
31
0.0
0
LINE
8
TOP
10
0.922399
20
0.196139
30
0.0
11
0.923325
21
0.191558
31
0.0
0
LINE
8
TOP
10
0.923325
20
0.191558
30
0.0
11
0.924702
21
0.187093
31
0.0
0
LINE
8
TOP
10
0.924702
20
0.187093
30
0.0
11
0.926517
21
0.182787
31
0.0
0
LINE
8
TOP
10
0.926517
20
0.182787
30
0.0
11
0.928752
21
0.178683
31
0.0
0
LINE
8
TOP
10
0.928752
20
0.178683
30
0.0
11
0.931384
21
0.174822
31
0.0
0
LINE
8
TOP
10
0.931384
20
0.174822
30
0.0
11
0.934388
21
0.171242
31
0.0
0
LINE
8
TOP
10
0.934388
20
0.171242
30
0.0
11
0.937733
21
0.167979
31
0.0
0
LINE
8
TOP
10
0.937733
20
0.167979
30
0.0
11
0.941387
21
0.165065
31
0.0
0
LINE
8
TOP
10
0.941387
20
0.165065
30
0.0
11
0.945312
21
0.162530
31
0.0
0
LINE
8
TOP
10
0.945312
20
0.162530
30
0.0
11
0.949471
21
0.160398
31
0.0
0
LINE
8
TOP
10
0.949471
20
0.160398
30
0.0
11
0.953821
21
0.158691
31
0.0
0
LINE
8
TOP
10
0.953821
20
0.158691
30
0.0
11
0.958319
21
0.157425
31
0.0
0
LINE
8
TOP
10
0.958319
20
0.157425
30
0.0
11
0.962921
21
0.156614
31
0.0
0
LINE
8
TOP
10
0.962921
20
0.156614
30
0.0
11
0.967581
21
0.156265
31
0.0
0
LINE
8
TOP
10
0.967581
20
0.156265
30
0.0
11
0.972253
21
0.156381
31
0.0
0
LINE
8
TOP
10
0.972253
20
0.156381
30
0.0
11
0.976890
21
0.156962
31
0.0
0
LINE
8
TOP
10
0.976890
20
0.156962
30
0.0
11
0.981446
21
0.158002
31
0.0
0
LINE
8
TOP
10
0.981446
20
0.158002
30
0.0
11
0.985875
21
0.159490
31
0.0
0
LINE
8
TOP
10
0.985875
20
0.159490
30
0.0
11
0.990135
21
0.161412
31
0.0
0
LINE
8
TOP
10
0.990135
20
0.161412
30
0.0
11
0.994182
21
0.163749
31
0.0
0
LINE
8
TOP
10
0.994182
20
0.163749
30
0.0
11
0.997976
21
0.166477
31
0.0
0
LINE
8
TOP
10
0.997976
20
0.166477
30
0.0
11
1.001480
21
0.169569
31
0.0
0
LINE
8
TOP
10
1.001480
20
0.169569
30
0.0
11
1.004658
21
0.172994
31
0.0
0
LINE
8
TOP
10
1.004658
20
0.172994
30
0.0
11
1.007480
21
0.176719
31
0.0
0
LINE
8
TOP
10
1.007480
20
0.176719
30
0.0
11
1.009917
21
0.180707
31
0.0
0
LINE
8
TOP
10
1.009917
20
0.180707
30
0.0
11
1.011944
21
0.184917
31
0.0
0
LINE
8
TOP
10
1.011944
20
0.184917
30
0.0
11
1.013542
21
0.189308
31
0.0
0
LINE
8
TOP
10
1.013542
20
0.189308
30
0.0
11
1.014696
21
0.193837
31
0.0
0
LINE
8
TOP
10
1.014696
20
0.193837
30
0.0
11
1.015392
21
0.198458
31
0.0
0
LINE
8
TOP
10
1.015392
20
0.198458
30
0.0
11
1.015625
21
0.203125
31
0.0
0
LINE
8
TOP
10
1.390625
20
0.203125
30
0.0
11
1.390392
21
0.207792
31
0.0
0
LINE
8
TOP
10
1.390392
20
0.207792
30
0.0
11
1.389696
21
0.212413
31
0.0
0
LINE
8
TOP
10
1.389696
20
0.212413
30
0.0
11
1.388542
21
0.216942
31
0.0
0
LINE
8
TOP
10
1.388542
20
0.216942
30
0.0
11
1.386944
21
0.221333
31
0.0
0
LINE
8
TOP
10
1.386944
20
0.221333
30
0.0
11
1.384917
21
0.225543
31
0.0
0
LINE
8
TOP
10
1.384917
20
0.225543
30
0.0
11
1.382480
21
0.229531
31
0.0
0
LINE
8
TOP
10
1.382480
20
0.229531
30
0.0
11
1.379658
21
0.233256
31
0.0
0
LINE
8
TOP
10
1.379658
20
0.233256
30
0.0
11
1.376480
21
0.236681
31
0.0
0
LINE
8
TOP
10
1.376480
20
0.236681
30
0.0
11
1.372976
21
0.239773
31
0.0
0
LINE
8
TOP
10
1.372976
20
0.239773
30
0.0
11
1.369182
21
0.242501
31
0.0
0
LINE
8
TOP
10
1.369182
20
0.242501
30
0.0
11
1.365135
21
0.244838
31
0.0
0
LINE
8
TOP
10
1.365135
20
0.244838
30
0.0
11
1.360875
21
0.246760
31
0.0
0
LINE
8
TOP
10
1.360875
20
0.246760
30
0.0
11
1.356446
21
0.248248
31
0.0
0
LINE
8
TOP
10
1.356446
20
0.248248
30
0.0
11
1.351890
21
0.249288
31
0.0
0
LINE
8
TOP
10
1.351890
20
0.249288
30
0.0
11
1.347253
21
0.249869
31
0.0
0
LINE
8
TOP
10
1.347253
20
0.249869
30
0.0
11
1.342581
21
0.249985
31
0.0
0
LINE
8
TOP
10
1.342581
20
0.249985
30
0.0
11
1.337921
21
0.249636
31
0.0
0
LINE
8
TOP
10
1.337921
20
0.249636
30
0.0
11
1.333319
21
0.248825
31
0.0
0
LINE
8
TOP
10
1.333319
20
0.248825
30
0.0
11
1.328821
21
0.247559
31
0.0
0
LINE
8
TOP
10
1.328821
20
0.247559
30
0.0
11
1.324471
21
0.245852
31
0.0
0
LINE
8
TOP
10
1.324471
20
0.245852
30
0.0
11
1.320312
21
0.243720
31
0.0
0
LINE
8
TOP
10
1.320312
20
0.243720
30
0.0
11
1.316387
21
0.241185
31
0.0
0
LINE
8
TOP
10
1.316387
20
0.241185
30
0.0
11
1.312733
21
0.238271
31
0.0
0
LINE
8
TOP
10
1.312733
20
0.238271
30
0.0
11
1.309388
21
0.235008
31
0.0
0
LINE
8
TOP
10
1.309388
20
0.235008
30
0.0
11
1.306384
21
0.231428
31
0.0
0
LINE
8
TOP
10
1.306384
20
0.231428
30
0.0
11
1.303752
21
0.227567
31
0.0
0
LINE
8
TOP
10
1.303752
20
0.227567
30
0.0
11
1.301517
21
0.223463
31
0.0
0
LINE
8
TOP
10
1.301517
20
0.223463
30
0.0
11
1.299702
21
0.219157
31
0.0
0
LINE
8
TOP
10
1.299702
20
0.219157
30
0.0
11
1.298325
21
0.214692
31
0.0
0
LINE
8
TOP
10
1.298325
20
0.214692
30
0.0
11
1.297399
21
0.210111
31
0.0
0
LINE
8
TOP
10
1.297399
20
0.210111
30
0.0
11
1.296933
21
0.205462
31
0.0
0
LINE
8
TOP
10
1.296933
20
0.205462
30
0.0
11
1.296933
21
0.200788
31
0.0
0
LINE
8
TOP
10
1.296933
20
0.200788
30
0.0
11
1.297399
21
0.196139
31
0.0
0
LINE
8
TOP
10
1.297399
20
0.196139
30
0.0
11
1.298325
21
0.191558
31
0.0
0
LINE
8
TOP
10
1.298325
20
0.191558
30
0.0
11
1.299702
21
0.187093
31
0.0
0
LINE
8
TOP
10
1.299702
20
0.187093
30
0.0
11
1.301517
21
0.182787
31
0.0
0
LINE
8
TOP
10
1.301517
20
0.182787
30
0.0
11
1.303752
21
0.178683
31
0.0
0
LINE
8
TOP
10
1.303752
20
0.178683
30
0.0
11
1.306384
21
0.174822
31
0.0
0
LINE
8
TOP
10
1.306384
20
0.174822
30
0.0
11
1.309388
21
0.171242
31
0.0
0
LINE
8
TOP
10
1.309388
20
0.171242
30
0.0
11
1.312733
21
0.167979
31
0.0
0
LINE
8
TOP
10
1.312733
20
0.167979
30
0.0
11
1.316387
21
0.165065
31
0.0
0
LINE
8
TOP
10
1.316387
20
0.165065
30
0.0
11
1.320312
21
0.162530
31
0.0
0
LINE
8
TOP
10
1.320312
20
0.162530
30
0.0
11
1.324471
21
0.160398
31
0.0
0
LINE
8
TOP
10
1.324471
20
0.160398
30
0.0
11
1.328821
21
0.158691
31
0.0
0
LINE
8
TOP
10
1.328821
20
0.158691
30
0.0
11
1.333319
21
0.157425
31
0.0
0
LINE
8
TOP
10
1.333319
20
0.157425
30
0.0
11
1.337921
21
0.156614
31
0.0
0
LINE
8
TOP
10
1.337921
20
0.156614
30
0.0
11
1.342581
21
0.156265
31
0.0
0
LINE
8
TOP
10
1.342581
20
0.156265
30
0.0
11
1.347253
21
0.156381
31
0.0
0
LINE
8
TOP
10
1.347253
20
0.156381
30
0.0
11
1.351890
21
0.156962
31
0.0
0
LINE
8
TOP
10
1.351890
20
0.156962
30
0.0
11
1.356446
21
0.158002
31
0.0
0
LINE
8
TOP
10
1.356446
20
0.158002
30
0.0
11
1.360875
21
0.159490
31
0.0
0
LINE
8
TOP
10
1.360875
20
0.159490
30
0.0
11
1.365135
21
0.161412
31
0.0
0
LINE
8
TOP
10
1.365135
20
0.161412
30
0.0
11
1.369182
21
0.163749
31
0.0
0
LINE
8
TOP
10
1.369182
20
0.163749
30
0.0
11
1.372976
21
0.166477
31
0.0
0
LINE
8
TOP
10
1.372976
20
0.166477
30
0.0
11
1.376480
21
0.169569
31
0.0
0
LINE
8
TOP
10
1.376480
20
0.169569
30
0.0
11
1.379658
21
0.172994
31
0.0
0
LINE
8
TOP
10
1.379658
20
0.172994
30
0.0
11
1.382480
21
0.176719
31
0.0
0
LINE
8
TOP
10
1.382480
20
0.176719
30
0.0
11
1.384917
21
0.180707
31
0.0
0
LINE
8
TOP
10
1.384917
20
0.180707
30
0.0
11
1.386944
21
0.184917
31
0.0
0
LINE
8
TOP
10
1.386944
20
0.184917
30
0.0
11
1.388542
21
0.189308
31
0.0
0
LINE
8
TOP
10
1.388542
20
0.189308
30
0.0
11
1.389696
21
0.193837
31
0.0
0
LINE
8
TOP
10
1.389696
20
0.193837
30
0.0
11
1.390392
21
0.198458
31
0.0
0
LINE
8
TOP
10
1.390392
20
0.198458
30
0.0
11
1.390625
21
0.203125
31
0.0
0
ENDSEC
0
EOF
