0
SECTION
2
HEADER
9
$ACADVER
1
AC1009
0
ENDSEC
0
SECTION
2
TABLES
0
TABLE
2
LTYPE
70
3
0
LTYPE
2
CONTINUOUS
70
0
3
Solid line
72
65
73
0
40
0.0
0
LTYPE
2
HIDDEN
70
0
3
__ __ __ __ __
72
65
73
2
40
0.060547
49
0.040385
49
-0.020162
0
LTYPE
2
CENTER
70
0
3
___ _ ___ _ ___
72
65
73
4
40
0.141256
49
0.080709
49
-0.020162
49
0.020162
49
-0.020162
0
ENDTAB
0
TABLE
2
LAYER
70
7
0
LAYER
2
0
70
0
62
7
6
CONTINUOUS
0
LAYER
2
FRONT
70
0
62
7
6
CONTINUOUS
0
LAYER
2
FRONT_HID
70
0
62
7
6
HIDDEN
0
LAYER
2
LEFT
70
0
62
7
6
CONTINUOUS
0
LAYER
2
LEFT_HID
70
0
62
7
6
HIDDEN
0
LAYER
2
TOP
70
0
62
7
6
CONTINUOUS
0
LAYER
2
TOP_HID
70
0
62
7
6
HIDDEN
0
ENDTAB
0
ENDSEC
0
SECTION
2
ENTITIES
0
LINE
8
FRONT
10
1.210938
20
2.164062
30
0.0
11
0.000000
21
2.164062
31
0.0
0
LINE
8
FRONT
10
0.000000
20
2.164062
30
0.0
11
0.000000
21
2.117188
31
0.0
0
LINE
8
FRONT
10
1.210938
20
2.164062
30
0.0
11
1.210938
21
2.117188
31
0.0
0
LINE
8
FRONT
10
1.210938
20
2.117188
30
0.0
11
0.000000
21
2.117188
31
0.0
0
LINE
8
FRONT
10
1.167763
20
1.453125
30
0.0
11
0.062500
21
1.453125
31
0.0
0
LINE
8
FRONT
10
1.167763
20
2.117188
30
0.0
11
1.167763
21
1.453125
31
0.0
0
LINE
8
FRONT
10
0.062500
20
1.453125
30
0.0
11
0.062500
21
2.117188
31
0.0
0
LINE
8
FRONT_HID
6
HIDDEN
10
1.167763
20
2.164062
30
0.0
11
1.132675
21
2.164062
31
0.0
0
LINE
8
FRONT_HID
6
HIDDEN
10
1.132675
20
2.164062
30
0.0
11
1.097588
21
2.164062
31
0.0
0
LINE
8
FRONT_HID
6
HIDDEN
10
1.097588
20
2.164062
30
0.0
11
1.062500
21
2.164062
31
0.0
0
LINE
8
FRONT_HID
6
HIDDEN
10
1.062500
20
2.164062
30
0.0
11
1.027412
21
2.164062
31
0.0
0
LINE
8
FRONT_HID
6
HIDDEN
10
1.027412
20
2.164062
30
0.0
11
0.992325
21
2.164062
31
0.0
0
LINE
8
FRONT_HID
6
HIDDEN
10
0.992325
20
2.164062
30
0.0
11
0.957237
21
2.164062
31
0.0
0
LINE
8
FRONT_HID
6
HIDDEN
10
0.957237
20
2.164062
30
0.0
11
0.922149
21
2.164062
31
0.0
0
LINE
8
FRONT_HID
6
HIDDEN
10
0.922149
20
2.164062
30
0.0
11
0.887061
21
2.164062
31
0.0
0
LINE
8
FRONT_HID
6
HIDDEN
10
0.887061
20
2.164062
30
0.0
11
0.851974
21
2.164062
31
0.0
0
LINE
8
FRONT_HID
6
HIDDEN
10
0.851974
20
2.164062
30
0.0
11
0.816886
21
2.164062
31
0.0
0
LINE
8
FRONT_HID
6
HIDDEN
10
0.816886
20
2.164062
30
0.0
11
0.781798
21
2.164062
31
0.0
0
LINE
8
FRONT_HID
6
HIDDEN
10
0.781798
20
2.164062
30
0.0
11
0.746711
21
2.164062
31
0.0
0
LINE
8
FRONT_HID
6
HIDDEN
10
0.746711
20
2.164062
30
0.0
11
0.711623
21
2.164062
31
0.0
0
LINE
8
FRONT_HID
6
HIDDEN
10
0.711623
20
2.164062
30
0.0
11
0.676535
21
2.164062
31
0.0
0
LINE
8
FRONT_HID
6
HIDDEN
10
0.676535
20
2.164062
30
0.0
11
0.641447
21
2.164062
31
0.0
0
LINE
8
FRONT_HID
6
HIDDEN
10
0.641447
20
2.164062
30
0.0
11
0.606360
21
2.164062
31
0.0
0
LINE
8
FRONT_HID
6
HIDDEN
10
0.606360
20
2.164062
30
0.0
11
0.571272
21
2.164062
31
0.0
0
LINE
8
FRONT_HID
6
HIDDEN
10
0.571272
20
2.164062
30
0.0
11
0.536184
21
2.164062
31
0.0
0
LINE
8
FRONT_HID
6
HIDDEN
10
0.536184
20
2.164062
30
0.0
11
0.501096
21
2.164062
31
0.0
0
LINE
8
FRONT_HID
6
HIDDEN
10
0.501096
20
2.164062
30
0.0
11
0.466009
21
2.164062
31
0.0
0
LINE
8
FRONT_HID
6
HIDDEN
10
0.466009
20
2.164062
30
0.0
11
0.430921
21
2.164062
31
0.0
0
LINE
8
FRONT_HID
6
HIDDEN
10
0.430921
20
2.164062
30
0.0
11
0.395833
21
2.164062
31
0.0
0
LINE
8
FRONT_HID
6
HIDDEN
10
0.395833
20
2.164062
30
0.0
11
0.360746
21
2.164062
31
0.0
0
LINE
8
FRONT_HID
6
HIDDEN
10
0.360746
20
2.164062
30
0.0
11
0.325658
21
2.164062
31
0.0
0
LINE
8
FRONT_HID
6
HIDDEN
10
0.325658
20
2.164062
30
0.0
11
0.290570
21
2.164062
31
0.0
0
LINE
8
FRONT_HID
6
HIDDEN
10
0.290570
20
2.164062
30
0.0
11
0.255482
21
2.164062
31
0.0
0
LINE
8
FRONT_HID
6
HIDDEN
10
0.255482
20
2.164062
30
0.0
11
0.220395
21
2.164062
31
0.0
0
LINE
8
FRONT_HID
6
HIDDEN
10
0.220395
20
2.164062
30
0.0
11
0.185307
21
2.164062
31
0.0
0
LINE
8
FRONT_HID
6
HIDDEN
10
0.185307
20
2.164062
30
0.0
11
0.150219
21
2.164062
31
0.0
0
LINE
8
FRONT_HID
6
HIDDEN
10
0.150219
20
2.164062
30
0.0
11
0.115132
21
2.164062
31
0.0
0
LINE
8
FRONT_HID
6
HIDDEN
10
0.115132
20
2.164062
30
0.0
11
0.080044
21
2.164062
31
0.0
0
LINE
8
FRONT_HID
6
HIDDEN
10
0.080044
20
2.164062
30
0.0
11
0.115132
21
2.164062
31
0.0
0
LINE
8
FRONT_HID
6
HIDDEN
10
0.115132
20
2.164062
30
0.0
11
0.150219
21
2.164062
31
0.0
0
LINE
8
FRONT_HID
6
HIDDEN
10
0.150219
20
2.164062
30
0.0
11
0.185307
21
2.164062
31
0.0
0
LINE
8
FRONT_HID
6
HIDDEN
10
0.185307
20
2.164062
30
0.0
11
0.220395
21
2.164062
31
0.0
0
LINE
8
FRONT_HID
6
HIDDEN
10
0.220395
20
2.164062
30
0.0
11
0.255482
21
2.164062
31
0.0
0
LINE
8
FRONT_HID
6
HIDDEN
10
0.255482
20
2.164062
30
0.0
11
0.290570
21
2.164062
31
0.0
0
LINE
8
FRONT_HID
6
HIDDEN
10
0.290570
20
2.164062
30
0.0
11
0.325658
21
2.164062
31
0.0
0
LINE
8
FRONT_HID
6
HIDDEN
10
0.325658
20
2.164062
30
0.0
11
0.360746
21
2.164062
31
0.0
0
LINE
8
FRONT_HID
6
HIDDEN
10
0.360746
20
2.164062
30
0.0
11
0.395833
21
2.164062
31
0.0
0
LINE
8
FRONT_HID
6
HIDDEN
10
0.395833
20
2.164062
30
0.0
11
0.430921
21
2.164062
31
0.0
0
LINE
8
FRONT_HID
6
HIDDEN
10
0.430921
20
2.164062
30
0.0
11
0.466009
21
2.164062
31
0.0
0
LINE
8
FRONT_HID
6
HIDDEN
10
0.466009
20
2.164062
30
0.0
11
0.501096
21
2.164062
31
0.0
0
LINE
8
FRONT_HID
6
HIDDEN
10
0.501096
20
2.164062
30
0.0
11
0.536184
21
2.164062
31
0.0
0
LINE
8
FRONT_HID
6
HIDDEN
10
0.536184
20
2.164062
30
0.0
11
0.571272
21
2.164062
31
0.0
0
LINE
8
FRONT_HID
6
HIDDEN
10
0.571272
20
2.164062
30
0.0
11
0.606360
21
2.164062
31
0.0
0
LINE
8
FRONT_HID
6
HIDDEN
10
0.606360
20
2.164062
30
0.0
11
0.641447
21
2.164062
31
0.0
0
LINE
8
FRONT_HID
6
HIDDEN
10
0.641447
20
2.164062
30
0.0
11
0.676535
21
2.164062
31
0.0
0
LINE
8
FRONT_HID
6
HIDDEN
10
0.676535
20
2.164062
30
0.0
11
0.711623
21
2.164062
31
0.0
0
LINE
8
FRONT_HID
6
HIDDEN
10
0.711623
20
2.164062
30
0.0
11
0.746711
21
2.164062
31
0.0
0
LINE
8
FRONT_HID
6
HIDDEN
10
0.746711
20
2.164062
30
0.0
11
0.781798
21
2.164062
31
0.0
0
LINE
8
FRONT_HID
6
HIDDEN
10
0.781798
20
2.164062
30
0.0
11
0.816886
21
2.164062
31
0.0
0
LINE
8
FRONT_HID
6
HIDDEN
10
0.816886
20
2.164062
30
0.0
11
0.851974
21
2.164062
31
0.0
0
LINE
8
FRONT_HID
6
HIDDEN
10
0.851974
20
2.164062
30
0.0
11
0.887061
21
2.164062
31
0.0
0
LINE
8
FRONT_HID
6
HIDDEN
10
0.887061
20
2.164062
30
0.0
11
0.922149
21
2.164062
31
0.0
0
LINE
8
FRONT_HID
6
HIDDEN
10
0.922149
20
2.164062
30
0.0
11
0.957237
21
2.164062
31
0.0
0
LINE
8
FRONT_HID
6
HIDDEN
10
0.957237
20
2.164062
30
0.0
11
0.992325
21
2.164062
31
0.0
0
LINE
8
FRONT_HID
6
HIDDEN
10
0.992325
20
2.164062
30
0.0
11
1.027412
21
2.164062
31
0.0
0
LINE
8
FRONT_HID
6
HIDDEN
10
1.027412
20
2.164062
30
0.0
11
1.062500
21
2.164062
31
0.0
0
LINE
8
FRONT_HID
6
HIDDEN
10
1.062500
20
2.164062
30
0.0
11
1.097588
21
2.164062
31
0.0
0
LINE
8
FRONT_HID
6
HIDDEN
10
1.097588
20
2.164062
30
0.0
11
1.132675
21
2.164062
31
0.0
0
LINE
8
FRONT_HID
6
HIDDEN
10
1.132675
20
2.164062
30
0.0
11
1.167763
21
2.164062
31
0.0
0
LINE
8
FRONT_HID
6
HIDDEN
10
1.159951
20
2.164062
30
0.0
11
1.125150
21
2.164062
31
0.0
0
LINE
8
FRONT_HID
6
HIDDEN
10
1.125150
20
2.164062
30
0.0
11
1.090350
21
2.164062
31
0.0
0
LINE
8
FRONT_HID
6
HIDDEN
10
1.090350
20
2.164062
30
0.0
11
1.055549
21
2.164062
31
0.0
0
LINE
8
FRONT_HID
6
HIDDEN
10
1.055549
20
2.164062
30
0.0
11
1.020748
21
2.164062
31
0.0
0
LINE
8
FRONT_HID
6
HIDDEN
10
1.020748
20
2.164062
30
0.0
11
0.985948
21
2.164062
31
0.0
0
LINE
8
FRONT_HID
6
HIDDEN
10
0.985948
20
2.164062
30
0.0
11
0.951147
21
2.164062
31
0.0
0
LINE
8
FRONT_HID
6
HIDDEN
10
0.951147
20
2.164062
30
0.0
11
0.916347
21
2.164062
31
0.0
0
LINE
8
FRONT_HID
6
HIDDEN
10
0.916347
20
2.164062
30
0.0
11
0.881546
21
2.164062
31
0.0
0
LINE
8
FRONT_HID
6
HIDDEN
10
0.881546
20
2.164062
30
0.0
11
0.846746
21
2.164062
31
0.0
0
LINE
8
FRONT_HID
6
HIDDEN
10
0.846746
20
2.164062
30
0.0
11
0.811945
21
2.164062
31
0.0
0
LINE
8
FRONT_HID
6
HIDDEN
10
0.811945
20
2.164062
30
0.0
11
0.777145
21
2.164062
31
0.0
0
LINE
8
FRONT_HID
6
HIDDEN
10
0.777145
20
2.164062
30
0.0
11
0.742344
21
2.164062
31
0.0
0
LINE
8
FRONT_HID
6
HIDDEN
10
0.742344
20
2.164062
30
0.0
11
0.707544
21
2.164062
31
0.0
0
LINE
8
FRONT_HID
6
HIDDEN
10
0.707544
20
2.164062
30
0.0
11
0.672743
21
2.164062
31
0.0
0
LINE
8
FRONT_HID
6
HIDDEN
10
0.672743
20
2.164062
30
0.0
11
0.637943
21
2.164062
31
0.0
0
LINE
8
FRONT_HID
6
HIDDEN
10
0.637943
20
2.164062
30
0.0
11
0.603142
21
2.164062
31
0.0
0
LINE
8
FRONT_HID
6
HIDDEN
10
0.603142
20
2.164062
30
0.0
11
0.568341
21
2.164062
31
0.0
0
LINE
8
FRONT_HID
6
HIDDEN
10
0.568341
20
2.164062
30
0.0
11
0.533541
21
2.164062
31
0.0
0
LINE
8
FRONT_HID
6
HIDDEN
10
0.533541
20
2.164062
30
0.0
11
0.498740
21
2.164062
31
0.0
0
LINE
8
FRONT_HID
6
HIDDEN
10
0.498740
20
2.164062
30
0.0
11
0.463940
21
2.164062
31
0.0
0
LINE
8
FRONT_HID
6
HIDDEN
10
0.463940
20
2.164062
30
0.0
11
0.429139
21
2.164062
31
0.0
0
LINE
8
FRONT_HID
6
HIDDEN
10
0.429139
20
2.164062
30
0.0
11
0.394339
21
2.164062
31
0.0
0
LINE
8
FRONT_HID
6
HIDDEN
10
0.394339
20
2.164062
30
0.0
11
0.359538
21
2.164062
31
0.0
0
LINE
8
FRONT_HID
6
HIDDEN
10
0.359538
20
2.164062
30
0.0
11
0.324738
21
2.164062
31
0.0
0
LINE
8
FRONT_HID
6
HIDDEN
10
0.324738
20
2.164062
30
0.0
11
0.289937
21
2.164062
31
0.0
0
LINE
8
FRONT_HID
6
HIDDEN
10
0.289937
20
2.164062
30
0.0
11
0.255137
21
2.164062
31
0.0
0
LINE
8
FRONT_HID
6
HIDDEN
10
0.255137
20
2.164062
30
0.0
11
0.220336
21
2.164062
31
0.0
0
LINE
8
FRONT_HID
6
HIDDEN
10
0.220336
20
2.164062
30
0.0
11
0.185535
21
2.164062
31
0.0
0
LINE
8
FRONT_HID
6
HIDDEN
10
0.185535
20
2.164062
30
0.0
11
0.150735
21
2.164062
31
0.0
0
LINE
8
FRONT_HID
6
HIDDEN
10
0.150735
20
2.164062
30
0.0
11
0.115934
21
2.164062
31
0.0
0
LINE
8
FRONT_HID
6
HIDDEN
10
0.115934
20
2.164062
30
0.0
11
0.081134
21
2.164062
31
0.0
0
LINE
8
FRONT_HID
6
HIDDEN
10
0.081134
20
2.164062
30
0.0
11
0.115934
21
2.164062
31
0.0
0
LINE
8
FRONT_HID
6
HIDDEN
10
0.115934
20
2.164062
30
0.0
11
0.150735
21
2.164062
31
0.0
0
LINE
8
FRONT_HID
6
HIDDEN
10
0.150735
20
2.164062
30
0.0
11
0.185535
21
2.164062
31
0.0
0
LINE
8
FRONT_HID
6
HIDDEN
10
0.185535
20
2.164062
30
0.0
11
0.220336
21
2.164062
31
0.0
0
LINE
8
FRONT_HID
6
HIDDEN
10
0.220336
20
2.164062
30
0.0
11
0.255137
21
2.164062
31
0.0
0
LINE
8
FRONT_HID
6
HIDDEN
10
0.255137
20
2.164062
30
0.0
11
0.289937
21
2.164062
31
0.0
0
LINE
8
FRONT_HID
6
HIDDEN
10
0.289937
20
2.164062
30
0.0
11
0.324738
21
2.164062
31
0.0
0
LINE
8
FRONT_HID
6
HIDDEN
10
0.324738
20
2.164062
30
0.0
11
0.359538
21
2.164062
31
0.0
0
LINE
8
FRONT_HID
6
HIDDEN
10
0.359538
20
2.164062
30
0.0
11
0.394339
21
2.164062
31
0.0
0
LINE
8
FRONT_HID
6
HIDDEN
10
0.394339
20
2.164062
30
0.0
11
0.429139
21
2.164062
31
0.0
0
LINE
8
FRONT_HID
6
HIDDEN
10
0.429139
20
2.164062
30
0.0
11
0.463940
21
2.164062
31
0.0
0
LINE
8
FRONT_HID
6
HIDDEN
10
0.463940
20
2.164062
30
0.0
11
0.498740
21
2.164062
31
0.0
0
LINE
8
FRONT_HID
6
HIDDEN
10
0.498740
20
2.164062
30
0.0
11
0.533541
21
2.164062
31
0.0
0
LINE
8
FRONT_HID
6
HIDDEN
10
0.533541
20
2.164062
30
0.0
11
0.568341
21
2.164062
31
0.0
0
LINE
8
FRONT_HID
6
HIDDEN
10
0.568341
20
2.164062
30
0.0
11
0.603142
21
2.164062
31
0.0
0
LINE
8
FRONT_HID
6
HIDDEN
10
0.603142
20
2.164062
30
0.0
11
0.637943
21
2.164062
31
0.0
0
LINE
8
FRONT_HID
6
HIDDEN
10
0.637943
20
2.164062
30
0.0
11
0.672743
21
2.164062
31
0.0
0
LINE
8
FRONT_HID
6
HIDDEN
10
0.672743
20
2.164062
30
0.0
11
0.707544
21
2.164062
31
0.0
0
LINE
8
FRONT_HID
6
HIDDEN
10
0.707544
20
2.164062
30
0.0
11
0.742344
21
2.164062
31
0.0
0
LINE
8
FRONT_HID
6
HIDDEN
10
0.742344
20
2.164062
30
0.0
11
0.777145
21
2.164062
31
0.0
0
LINE
8
FRONT_HID
6
HIDDEN
10
0.777145
20
2.164062
30
0.0
11
0.811945
21
2.164062
31
0.0
0
LINE
8
FRONT_HID
6
HIDDEN
10
0.811945
20
2.164062
30
0.0
11
0.846746
21
2.164062
31
0.0
0
LINE
8
FRONT_HID
6
HIDDEN
10
0.846746
20
2.164062
30
0.0
11
0.881546
21
2.164062
31
0.0
0
LINE
8
FRONT_HID
6
HIDDEN
10
0.881546
20
2.164062
30
0.0
11
0.916347
21
2.164062
31
0.0
0
LINE
8
FRONT_HID
6
HIDDEN
10
0.916347
20
2.164062
30
0.0
11
0.951147
21
2.164062
31
0.0
0
LINE
8
FRONT_HID
6
HIDDEN
10
0.951147
20
2.164062
30
0.0
11
0.985948
21
2.164062
31
0.0
0
LINE
8
FRONT_HID
6
HIDDEN
10
0.985948
20
2.164062
30
0.0
11
1.020748
21
2.164062
31
0.0
0
LINE
8
FRONT_HID
6
HIDDEN
10
1.020748
20
2.164062
30
0.0
11
1.055549
21
2.164062
31
0.0
0
LINE
8
FRONT_HID
6
HIDDEN
10
1.055549
20
2.164062
30
0.0
11
1.090350
21
2.164062
31
0.0
0
LINE
8
FRONT_HID
6
HIDDEN
10
1.090350
20
2.164062
30
0.0
11
1.125150
21
2.164062
31
0.0
0
LINE
8
FRONT_HID
6
HIDDEN
10
1.125150
20
2.164062
30
0.0
11
1.159951
21
2.164062
31
0.0
0
LINE
8
FRONT_HID
6
HIDDEN
10
1.075658
20
2.164062
30
0.0
11
0.154605
21
2.164062
31
0.0
0
LINE
8
FRONT_HID
6
HIDDEN
10
0.154605
20
2.164062
30
0.0
11
1.075658
21
2.164062
31
0.0
0
LINE
8
FRONT_HID
6
HIDDEN
10
1.075658
20
2.164062
30
0.0
11
1.075658
21
1.453125
31
0.0
0
LINE
8
FRONT_HID
6
HIDDEN
10
1.075658
20
1.453125
30
0.0
11
0.154605
21
1.453125
31
0.0
0
LINE
8
FRONT_HID
6
HIDDEN
10
0.154605
20
1.453125
30
0.0
11
1.075658
21
1.453125
31
0.0
0
LINE
8
FRONT_HID
6
HIDDEN
10
1.167763
20
2.117188
30
0.0
11
0.062500
21
2.117188
31
0.0
0
LINE
8
FRONT_HID
6
HIDDEN
10
0.062500
20
2.117188
30
0.0
11
1.167763
21
2.117188
31
0.0
0
LINE
8
FRONT_HID
6
HIDDEN
10
0.154605
20
1.453125
30
0.0
11
0.154605
21
2.164062
31
0.0
0
LINE
8
LEFT
10
1.453125
20
2.164062
30
0.0
11
2.664062
21
2.164062
31
0.0
0
LINE
8
LEFT
10
2.664062
20
2.164062
30
0.0
11
2.664062
21
2.117188
31
0.0
0
LINE
8
LEFT
10
1.453125
20
2.164062
30
0.0
11
1.453125
21
2.117188
31
0.0
0
LINE
8
LEFT
10
1.453125
20
2.117188
30
0.0
11
2.664062
21
2.117188
31
0.0
0
LINE
8
LEFT
10
1.502056
20
1.453125
30
0.0
11
2.607319
21
1.453125
31
0.0
0
LINE
8
LEFT
10
2.607319
20
1.453125
30
0.0
11
2.607319
21
2.117188
31
0.0
0
LINE
8
LEFT
10
1.502056
20
1.453125
30
0.0
11
1.502056
21
2.117188
31
0.0
0
LINE
8
LEFT_HID
6
HIDDEN
10
2.054688
20
2.164062
30
0.0
11
2.020480
21
2.164062
31
0.0
0
LINE
8
LEFT_HID
6
HIDDEN
10
2.020480
20
2.164062
30
0.0
11
1.986272
21
2.164062
31
0.0
0
LINE
8
LEFT_HID
6
HIDDEN
10
1.986272
20
2.164062
30
0.0
11
1.952064
21
2.164062
31
0.0
0
LINE
8
LEFT_HID
6
HIDDEN
10
1.952064
20
2.164062
30
0.0
11
1.917856
21
2.164062
31
0.0
0
LINE
8
LEFT_HID
6
HIDDEN
10
1.917856
20
2.164062
30
0.0
11
1.883648
21
2.164062
31
0.0
0
LINE
8
LEFT_HID
6
HIDDEN
10
1.883648
20
2.164062
30
0.0
11
1.849440
21
2.164062
31
0.0
0
LINE
8
LEFT_HID
6
HIDDEN
10
1.849440
20
2.164062
30
0.0
11
1.815232
21
2.164062
31
0.0
0
LINE
8
LEFT_HID
6
HIDDEN
10
1.815232
20
2.164062
30
0.0
11
1.781024
21
2.164062
31
0.0
0
LINE
8
LEFT_HID
6
HIDDEN
10
1.781024
20
2.164062
30
0.0
11
1.746816
21
2.164062
31
0.0
0
LINE
8
LEFT_HID
6
HIDDEN
10
1.746816
20
2.164062
30
0.0
11
1.712608
21
2.164062
31
0.0
0
LINE
8
LEFT_HID
6
HIDDEN
10
1.712608
20
2.164062
30
0.0
11
1.678400
21
2.164062
31
0.0
0
LINE
8
LEFT_HID
6
HIDDEN
10
1.678400
20
2.164062
30
0.0
11
1.644192
21
2.164062
31
0.0
0
LINE
8
LEFT_HID
6
HIDDEN
10
1.644192
20
2.164062
30
0.0
11
1.609984
21
2.164062
31
0.0
0
LINE
8
LEFT_HID
6
HIDDEN
10
1.609984
20
2.164062
30
0.0
11
1.575776
21
2.164062
31
0.0
0
LINE
8
LEFT_HID
6
HIDDEN
10
1.575776
20
2.164062
30
0.0
11
1.541568
21
2.164062
31
0.0
0
LINE
8
LEFT_HID
6
HIDDEN
10
1.541568
20
2.164062
30
0.0
11
1.524464
21
2.164062
31
0.0
0
LINE
8
LEFT_HID
6
HIDDEN
10
1.524464
20
2.164062
30
0.0
11
1.558672
21
2.164062
31
0.0
0
LINE
8
LEFT_HID
6
HIDDEN
10
1.558672
20
2.164062
30
0.0
11
1.592880
21
2.164062
31
0.0
0
LINE
8
LEFT_HID
6
HIDDEN
10
1.592880
20
2.164062
30
0.0
11
1.627088
21
2.164062
31
0.0
0
LINE
8
LEFT_HID
6
HIDDEN
10
1.627088
20
2.164062
30
0.0
11
1.661296
21
2.164062
31
0.0
0
LINE
8
LEFT_HID
6
HIDDEN
10
1.661296
20
2.164062
30
0.0
11
1.695504
21
2.164062
31
0.0
0
LINE
8
LEFT_HID
6
HIDDEN
10
1.695504
20
2.164062
30
0.0
11
1.729712
21
2.164062
31
0.0
0
LINE
8
LEFT_HID
6
HIDDEN
10
1.729712
20
2.164062
30
0.0
11
1.763920
21
2.164062
31
0.0
0
LINE
8
LEFT_HID
6
HIDDEN
10
1.763920
20
2.164062
30
0.0
11
1.798128
21
2.164062
31
0.0
0
LINE
8
LEFT_HID
6
HIDDEN
10
1.798128
20
2.164062
30
0.0
11
1.832336
21
2.164062
31
0.0
0
LINE
8
LEFT_HID
6
HIDDEN
10
1.832336
20
2.164062
30
0.0
11
1.866544
21
2.164062
31
0.0
0
LINE
8
LEFT_HID
6
HIDDEN
10
1.866544
20
2.164062
30
0.0
11
1.900752
21
2.164062
31
0.0
0
LINE
8
LEFT_HID
6
HIDDEN
10
1.900752
20
2.164062
30
0.0
11
1.934960
21
2.164062
31
0.0
0
LINE
8
LEFT_HID
6
HIDDEN
10
1.934960
20
2.164062
30
0.0
11
1.969168
21
2.164062
31
0.0
0
LINE
8
LEFT_HID
6
HIDDEN
10
1.969168
20
2.164062
30
0.0
11
2.003376
21
2.164062
31
0.0
0
LINE
8
LEFT_HID
6
HIDDEN
10
2.003376
20
2.164062
30
0.0
11
2.037584
21
2.164062
31
0.0
0
LINE
8
LEFT_HID
6
HIDDEN
10
2.037584
20
2.164062
30
0.0
11
2.071791
21
2.164062
31
0.0
0
LINE
8
LEFT_HID
6
HIDDEN
10
2.071791
20
2.164062
30
0.0
11
2.105999
21
2.164062
31
0.0
0
LINE
8
LEFT_HID
6
HIDDEN
10
2.105999
20
2.164062
30
0.0
11
2.140207
21
2.164062
31
0.0
0
LINE
8
LEFT_HID
6
HIDDEN
10
2.140207
20
2.164062
30
0.0
11
2.174415
21
2.164062
31
0.0
0
LINE
8
LEFT_HID
6
HIDDEN
10
2.174415
20
2.164062
30
0.0
11
2.208623
21
2.164062
31
0.0
0
LINE
8
LEFT_HID
6
HIDDEN
10
2.208623
20
2.164062
30
0.0
11
2.242831
21
2.164062
31
0.0
0
LINE
8
LEFT_HID
6
HIDDEN
10
2.242831
20
2.164062
30
0.0
11
2.277039
21
2.164062
31
0.0
0
LINE
8
LEFT_HID
6
HIDDEN
10
2.277039
20
2.164062
30
0.0
11
2.311247
21
2.164062
31
0.0
0
LINE
8
LEFT_HID
6
HIDDEN
10
2.311247
20
2.164062
30
0.0
11
2.345455
21
2.164062
31
0.0
0
LINE
8
LEFT_HID
6
HIDDEN
10
2.345455
20
2.164062
30
0.0
11
2.379663
21
2.164062
31
0.0
0
LINE
8
LEFT_HID
6
HIDDEN
10
2.379663
20
2.164062
30
0.0
11
2.413871
21
2.164062
31
0.0
0
LINE
8
LEFT_HID
6
HIDDEN
10
2.413871
20
2.164062
30
0.0
11
2.448079
21
2.164062
31
0.0
0
LINE
8
LEFT_HID
6
HIDDEN
10
2.448079
20
2.164062
30
0.0
11
2.482287
21
2.164062
31
0.0
0
LINE
8
LEFT_HID
6
HIDDEN
10
2.482287
20
2.164062
30
0.0
11
2.516495
21
2.164062
31
0.0
0
LINE
8
LEFT_HID
6
HIDDEN
10
2.516495
20
2.164062
30
0.0
11
2.550703
21
2.164062
31
0.0
0
LINE
8
LEFT_HID
6
HIDDEN
10
2.550703
20
2.164062
30
0.0
11
2.584911
21
2.164062
31
0.0
0
LINE
8
LEFT_HID
6
HIDDEN
10
2.584911
20
2.164062
30
0.0
11
2.567807
21
2.164062
31
0.0
0
LINE
8
LEFT_HID
6
HIDDEN
10
2.567807
20
2.164062
30
0.0
11
2.533599
21
2.164062
31
0.0
0
LINE
8
LEFT_HID
6
HIDDEN
10
2.533599
20
2.164062
30
0.0
11
2.499391
21
2.164062
31
0.0
0
LINE
8
LEFT_HID
6
HIDDEN
10
2.499391
20
2.164062
30
0.0
11
2.465183
21
2.164062
31
0.0
0
LINE
8
LEFT_HID
6
HIDDEN
10
2.465183
20
2.164062
30
0.0
11
2.430975
21
2.164062
31
0.0
0
LINE
8
LEFT_HID
6
HIDDEN
10
2.430975
20
2.164062
30
0.0
11
2.396767
21
2.164062
31
0.0
0
LINE
8
LEFT_HID
6
HIDDEN
10
2.396767
20
2.164062
30
0.0
11
2.362559
21
2.164062
31
0.0
0
LINE
8
LEFT_HID
6
HIDDEN
10
2.362559
20
2.164062
30
0.0
11
2.328351
21
2.164062
31
0.0
0
LINE
8
LEFT_HID
6
HIDDEN
10
2.328351
20
2.164062
30
0.0
11
2.294143
21
2.164062
31
0.0
0
LINE
8
LEFT_HID
6
HIDDEN
10
2.294143
20
2.164062
30
0.0
11
2.259935
21
2.164062
31
0.0
0
LINE
8
LEFT_HID
6
HIDDEN
10
2.259935
20
2.164062
30
0.0
11
2.225727
21
2.164062
31
0.0
0
LINE
8
LEFT_HID
6
HIDDEN
10
2.225727
20
2.164062
30
0.0
11
2.191519
21
2.164062
31
0.0
0
LINE
8
LEFT_HID
6
HIDDEN
10
2.191519
20
2.164062
30
0.0
11
2.157311
21
2.164062
31
0.0
0
LINE
8
LEFT_HID
6
HIDDEN
10
2.157311
20
2.164062
30
0.0
11
2.123103
21
2.164062
31
0.0
0
LINE
8
LEFT_HID
6
HIDDEN
10
2.123103
20
2.164062
30
0.0
11
2.088895
21
2.164062
31
0.0
0
LINE
8
LEFT_HID
6
HIDDEN
10
2.088895
20
2.164062
30
0.0
11
2.054688
21
2.164062
31
0.0
0
LINE
8
LEFT_HID
6
HIDDEN
10
2.052220
20
2.164062
30
0.0
11
2.018292
21
2.164062
31
0.0
0
LINE
8
LEFT_HID
6
HIDDEN
10
2.018292
20
2.164062
30
0.0
11
1.984364
21
2.164062
31
0.0
0
LINE
8
LEFT_HID
6
HIDDEN
10
1.984364
20
2.164062
30
0.0
11
1.950436
21
2.164062
31
0.0
0
LINE
8
LEFT_HID
6
HIDDEN
10
1.950436
20
2.164062
30
0.0
11
1.916508
21
2.164062
31
0.0
0
LINE
8
LEFT_HID
6
HIDDEN
10
1.916508
20
2.164062
30
0.0
11
1.882580
21
2.164062
31
0.0
0
LINE
8
LEFT_HID
6
HIDDEN
10
1.882580
20
2.164062
30
0.0
11
1.848652
21
2.164062
31
0.0
0
LINE
8
LEFT_HID
6
HIDDEN
10
1.848652
20
2.164062
30
0.0
11
1.814724
21
2.164062
31
0.0
0
LINE
8
LEFT_HID
6
HIDDEN
10
1.814724
20
2.164062
30
0.0
11
1.780796
21
2.164062
31
0.0
0
LINE
8
LEFT_HID
6
HIDDEN
10
1.780796
20
2.164062
30
0.0
11
1.746868
21
2.164062
31
0.0
0
LINE
8
LEFT_HID
6
HIDDEN
10
1.746868
20
2.164062
30
0.0
11
1.712940
21
2.164062
31
0.0
0
LINE
8
LEFT_HID
6
HIDDEN
10
1.712940
20
2.164062
30
0.0
11
1.679012
21
2.164062
31
0.0
0
LINE
8
LEFT_HID
6
HIDDEN
10
1.679012
20
2.164062
30
0.0
11
1.645084
21
2.164062
31
0.0
0
LINE
8
LEFT_HID
6
HIDDEN
10
1.645084
20
2.164062
30
0.0
11
1.611156
21
2.164062
31
0.0
0
LINE
8
LEFT_HID
6
HIDDEN
10
1.611156
20
2.164062
30
0.0
11
1.577228
21
2.164062
31
0.0
0
LINE
8
LEFT_HID
6
HIDDEN
10
1.577228
20
2.164062
30
0.0
11
1.543300
21
2.164062
31
0.0
0
LINE
8
LEFT_HID
6
HIDDEN
10
1.543300
20
2.164062
30
0.0
11
1.526336
21
2.164062
31
0.0
0
LINE
8
LEFT_HID
6
HIDDEN
10
1.526336
20
2.164062
30
0.0
11
1.560264
21
2.164062
31
0.0
0
LINE
8
LEFT_HID
6
HIDDEN
10
1.560264
20
2.164062
30
0.0
11
1.594192
21
2.164062
31
0.0
0
LINE
8
LEFT_HID
6
HIDDEN
10
1.594192
20
2.164062
30
0.0
11
1.628120
21
2.164062
31
0.0
0
LINE
8
LEFT_HID
6
HIDDEN
10
1.628120
20
2.164062
30
0.0
11
1.662048
21
2.164062
31
0.0
0
LINE
8
LEFT_HID
6
HIDDEN
10
1.662048
20
2.164062
30
0.0
11
1.695976
21
2.164062
31
0.0
0
LINE
8
LEFT_HID
6
HIDDEN
10
1.695976
20
2.164062
30
0.0
11
1.729904
21
2.164062
31
0.0
0
LINE
8
LEFT_HID
6
HIDDEN
10
1.729904
20
2.164062
30
0.0
11
1.763832
21
2.164062
31
0.0
0
LINE
8
LEFT_HID
6
HIDDEN
10
1.763832
20
2.164062
30
0.0
11
1.797760
21
2.164062
31
0.0
0
LINE
8
LEFT_HID
6
HIDDEN
10
1.797760
20
2.164062
30
0.0
11
1.831688
21
2.164062
31
0.0
0
LINE
8
LEFT_HID
6
HIDDEN
10
1.831688
20
2.164062
30
0.0
11
1.865616
21
2.164062
31
0.0
0
LINE
8
LEFT_HID
6
HIDDEN
10
1.865616
20
2.164062
30
0.0
11
1.899544
21
2.164062
31
0.0
0
LINE
8
LEFT_HID
6
HIDDEN
10
1.899544
20
2.164062
30
0.0
11
1.933472
21
2.164062
31
0.0
0
LINE
8
LEFT_HID
6
HIDDEN
10
1.933472
20
2.164062
30
0.0
11
1.967400
21
2.164062
31
0.0
0
LINE
8
LEFT_HID
6
HIDDEN
10
1.967400
20
2.164062
30
0.0
11
2.001328
21
2.164062
31
0.0
0
LINE
8
LEFT_HID
6
HIDDEN
10
2.001328
20
2.164062
30
0.0
11
2.035256
21
2.164062
31
0.0
0
LINE
8
LEFT_HID
6
HIDDEN
10
2.035256
20
2.164062
30
0.0
11
2.069184
21
2.164062
31
0.0
0
LINE
8
LEFT_HID
6
HIDDEN
10
2.069184
20
2.164062
30
0.0
11
2.103112
21
2.164062
31
0.0
0
LINE
8
LEFT_HID
6
HIDDEN
10
2.103112
20
2.164062
30
0.0
11
2.137040
21
2.164062
31
0.0
0
LINE
8
LEFT_HID
6
HIDDEN
10
2.137040
20
2.164062
30
0.0
11
2.170968
21
2.164062
31
0.0
0
LINE
8
LEFT_HID
6
HIDDEN
10
2.170968
20
2.164062
30
0.0
11
2.204896
21
2.164062
31
0.0
0
LINE
8
LEFT_HID
6
HIDDEN
10
2.204896
20
2.164062
30
0.0
11
2.238825
21
2.164062
31
0.0
0
LINE
8
LEFT_HID
6
HIDDEN
10
2.238825
20
2.164062
30
0.0
11
2.272753
21
2.164062
31
0.0
0
LINE
8
LEFT_HID
6
HIDDEN
10
2.272753
20
2.164062
30
0.0
11
2.306681
21
2.164062
31
0.0
0
LINE
8
LEFT_HID
6
HIDDEN
10
2.306681
20
2.164062
30
0.0
11
2.340609
21
2.164062
31
0.0
0
LINE
8
LEFT_HID
6
HIDDEN
10
2.340609
20
2.164062
30
0.0
11
2.374537
21
2.164062
31
0.0
0
LINE
8
LEFT_HID
6
HIDDEN
10
2.374537
20
2.164062
30
0.0
11
2.408465
21
2.164062
31
0.0
0
LINE
8
LEFT_HID
6
HIDDEN
10
2.408465
20
2.164062
30
0.0
11
2.442393
21
2.164062
31
0.0
0
LINE
8
LEFT_HID
6
HIDDEN
10
2.442393
20
2.164062
30
0.0
11
2.476321
21
2.164062
31
0.0
0
LINE
8
LEFT_HID
6
HIDDEN
10
2.476321
20
2.164062
30
0.0
11
2.510249
21
2.164062
31
0.0
0
LINE
8
LEFT_HID
6
HIDDEN
10
2.510249
20
2.164062
30
0.0
11
2.544177
21
2.164062
31
0.0
0
LINE
8
LEFT_HID
6
HIDDEN
10
2.544177
20
2.164062
30
0.0
11
2.578105
21
2.164062
31
0.0
0
LINE
8
LEFT_HID
6
HIDDEN
10
2.578105
20
2.164062
30
0.0
11
2.561141
21
2.164062
31
0.0
0
LINE
8
LEFT_HID
6
HIDDEN
10
2.561141
20
2.164062
30
0.0
11
2.527213
21
2.164062
31
0.0
0
LINE
8
LEFT_HID
6
HIDDEN
10
2.527213
20
2.164062
30
0.0
11
2.493285
21
2.164062
31
0.0
0
LINE
8
LEFT_HID
6
HIDDEN
10
2.493285
20
2.164062
30
0.0
11
2.459357
21
2.164062
31
0.0
0
LINE
8
LEFT_HID
6
HIDDEN
10
2.459357
20
2.164062
30
0.0
11
2.425429
21
2.164062
31
0.0
0
LINE
8
LEFT_HID
6
HIDDEN
10
2.425429
20
2.164062
30
0.0
11
2.391501
21
2.164062
31
0.0
0
LINE
8
LEFT_HID
6
HIDDEN
10
2.391501
20
2.164062
30
0.0
11
2.357573
21
2.164062
31
0.0
0
LINE
8
LEFT_HID
6
HIDDEN
10
2.357573
20
2.164062
30
0.0
11
2.323645
21
2.164062
31
0.0
0
LINE
8
LEFT_HID
6
HIDDEN
10
2.323645
20
2.164062
30
0.0
11
2.289717
21
2.164062
31
0.0
0
LINE
8
LEFT_HID
6
HIDDEN
10
2.289717
20
2.164062
30
0.0
11
2.255789
21
2.164062
31
0.0
0
LINE
8
LEFT_HID
6
HIDDEN
10
2.255789
20
2.164062
30
0.0
11
2.221860
21
2.164062
31
0.0
0
LINE
8
LEFT_HID
6
HIDDEN
10
2.221860
20
2.164062
30
0.0
11
2.187932
21
2.164062
31
0.0
0
LINE
8
LEFT_HID
6
HIDDEN
10
2.187932
20
2.164062
30
0.0
11
2.154004
21
2.164062
31
0.0
0
LINE
8
LEFT_HID
6
HIDDEN
10
2.154004
20
2.164062
30
0.0
11
2.120076
21
2.164062
31
0.0
0
LINE
8
LEFT_HID
6
HIDDEN
10
2.120076
20
2.164062
30
0.0
11
2.086148
21
2.164062
31
0.0
0
LINE
8
LEFT_HID
6
HIDDEN
10
2.086148
20
2.164062
30
0.0
11
2.052220
21
2.164062
31
0.0
0
LINE
8
LEFT_HID
6
HIDDEN
10
2.054688
20
2.164062
30
0.0
11
1.594161
21
2.164062
31
0.0
0
LINE
8
LEFT_HID
6
HIDDEN
10
1.594161
20
2.164062
30
0.0
11
2.515214
21
2.164062
31
0.0
0
LINE
8
LEFT_HID
6
HIDDEN
10
2.515214
20
2.164062
30
0.0
11
2.054688
21
2.164062
31
0.0
0
LINE
8
LEFT_HID
6
HIDDEN
10
2.054688
20
1.453125
30
0.0
11
1.594161
21
1.453125
31
0.0
0
LINE
8
LEFT_HID
6
HIDDEN
10
1.594161
20
1.453125
30
0.0
11
2.515214
21
1.453125
31
0.0
0
LINE
8
LEFT_HID
6
HIDDEN
10
2.515214
20
1.453125
30
0.0
11
2.054688
21
1.453125
31
0.0
0
LINE
8
LEFT_HID
6
HIDDEN
10
2.054688
20
2.117188
30
0.0
11
1.502056
21
2.117188
31
0.0
0
LINE
8
LEFT_HID
6
HIDDEN
10
1.502056
20
2.117188
30
0.0
11
2.607319
21
2.117188
31
0.0
0
LINE
8
LEFT_HID
6
HIDDEN
10
2.607319
20
2.117188
30
0.0
11
2.054688
21
2.117188
31
0.0
0
LINE
8
LEFT_HID
6
HIDDEN
10
2.054688
20
1.453125
30
0.0
11
1.502056
21
1.453125
31
0.0
0
LINE
8
LEFT_HID
6
HIDDEN
10
2.607319
20
1.453125
30
0.0
11
2.054688
21
1.453125
31
0.0
0
LINE
8
LEFT_HID
6
HIDDEN
10
2.515214
20
1.453125
30
0.0
11
2.515214
21
2.164062
31
0.0
0
LINE
8
LEFT_HID
6
HIDDEN
10
1.594161
20
1.453125
30
0.0
11
1.594161
21
2.164062
31
0.0
0
LINE
8
TOP
10
0.000000
20
0.000000
30
0.0
11
1.210938
21
0.000000
31
0.0
0
LINE
8
TOP
10
1.210938
20
0.000000
30
0.0
11
1.210938
21
1.210938
31
0.0
0
LINE
8
TOP
10
1.210938
20
1.210938
30
0.0
11
0.000000
21
1.210938
31
0.0
0
LINE
8
TOP
10
0.000000
20
1.210938
30
0.0
11
0.000000
21
0.000000
31
0.0
0
LINE
8
TOP
10
1.075658
20
0.609375
30
0.0
11
1.073369
21
0.655229
31
0.0
0
LINE
8
TOP
10
1.073369
20
0.655229
30
0.0
11
1.066527
21
0.700627
31
0.0
0
LINE
8
TOP
10
1.066527
20
0.700627
30
0.0
11
1.055198
21
0.745118
31
0.0
0
LINE
8
TOP
10
1.055198
20
0.745118
30
0.0
11
1.039496
21
0.788259
31
0.0
0
LINE
8
TOP
10
1.039496
20
0.788259
30
0.0
11
1.019576
21
0.829624
31
0.0
0
LINE
8
TOP
10
1.019576
20
0.829624
30
0.0
11
0.995636
21
0.868799
31
0.0
0
LINE
8
TOP
10
0.995636
20
0.868799
30
0.0
11
0.967915
21
0.905396
31
0.0
0
LINE
8
TOP
10
0.967915
20
0.905396
30
0.0
11
0.936688
21
0.939051
31
0.0
0
LINE
8
TOP
10
0.936688
20
0.939051
30
0.0
11
0.902265
21
0.969429
31
0.0
0
LINE
8
TOP
10
0.902265
20
0.969429
30
0.0
11
0.864988
21
0.996229
31
0.0
0
LINE
8
TOP
10
0.864988
20
0.996229
30
0.0
11
0.825229
21
1.019184
31
0.0
0
LINE
8
TOP
10
0.825229
20
1.019184
30
0.0
11
0.783381
21
1.038067
31
0.0
0
LINE
8
TOP
10
0.783381
20
1.038067
30
0.0
11
0.739861
21
1.052689
31
0.0
0
LINE
8
TOP
10
0.739861
20
1.052689
30
0.0
11
0.695101
21
1.062905
31
0.0
0
LINE
8
TOP
10
0.695101
20
1.062905
30
0.0
11
0.649547
21
1.068614
31
0.0
0
LINE
8
TOP
10
0.649547
20
1.068614
30
0.0
11
0.603650
21
1.069758
31
0.0
0
LINE
8
TOP
10
0.603650
20
1.069758
30
0.0
11
0.557868
21
1.066327
31
0.0
0
LINE
8
TOP
10
0.557868
20
1.066327
30
0.0
11
0.512655
21
1.058355
31
0.0
0
LINE
8
TOP
10
0.512655
20
1.058355
30
0.0
11
0.468460
21
1.045920
31
0.0
0
LINE
8
TOP
10
0.468460
20
1.045920
30
0.0
11
0.425723
21
1.029147
31
0.0
0
LINE
8
TOP
10
0.425723
20
1.029147
30
0.0
11
0.384868
21
1.008202
31
0.0
0
LINE
8
TOP
10
0.384868
20
1.008202
30
0.0
11
0.346302
21
0.983294
31
0.0
0
LINE
8
TOP
10
0.346302
20
0.983294
30
0.0
11
0.310408
21
0.954669
31
0.0
0
LINE
8
TOP
10
0.310408
20
0.954669
30
0.0
11
0.277542
21
0.922612
31
0.0
0
LINE
8
TOP
10
0.277542
20
0.922612
30
0.0
11
0.248031
21
0.887443
31
0.0
0
LINE
8
TOP
10
0.248031
20
0.887443
30
0.0
11
0.222169
21
0.849510
31
0.0
0
LINE
8
TOP
10
0.222169
20
0.849510
30
0.0
11
0.200212
21
0.809190
31
0.0
0
LINE
8
TOP
10
0.200212
20
0.809190
30
0.0
11
0.182378
21
0.766884
31
0.0
0
LINE
8
TOP
10
0.182378
20
0.766884
30
0.0
11
0.168846
21
0.723013
31
0.0
0
LINE
8
TOP
10
0.168846
20
0.723013
30
0.0
11
0.159749
21
0.678013
31
0.0
0
LINE
8
TOP
10
0.159749
20
0.678013
30
0.0
11
0.155178
21
0.632330
31
0.0
0
LINE
8
TOP
10
0.155178
20
0.632330
30
0.0
11
0.155178
21
0.586420
31
0.0
0
LINE
8
TOP
10
0.155178
20
0.586420
30
0.0
11
0.159749
21
0.540737
31
0.0
0
LINE
8
TOP
10
0.159749
20
0.540737
30
0.0
11
0.168846
21
0.495737
31
0.0
0
LINE
8
TOP
10
0.168846
20
0.495737
30
0.0
11
0.182378
21
0.451866
31
0.0
0
LINE
8
TOP
10
0.182378
20
0.451866
30
0.0
11
0.200212
21
0.409560
31
0.0
0
LINE
8
TOP
10
0.200212
20
0.409560
30
0.0
11
0.222169
21
0.369240
31
0.0
0
LINE
8
TOP
10
0.222169
20
0.369240
30
0.0
11
0.248031
21
0.331307
31
0.0
0
LINE
8
TOP
10
0.248031
20
0.331307
30
0.0
11
0.277542
21
0.296138
31
0.0
0
LINE
8
TOP
10
0.277542
20
0.296138
30
0.0
11
0.310408
21
0.264081
31
0.0
0
LINE
8
TOP
10
0.310408
20
0.264081
30
0.0
11
0.346302
21
0.235456
31
0.0
0
LINE
8
TOP
10
0.346302
20
0.235456
30
0.0
11
0.384868
21
0.210548
31
0.0
0
LINE
8
TOP
10
0.384868
20
0.210548
30
0.0
11
0.425723
21
0.189603
31
0.0
0
LINE
8
TOP
10
0.425723
20
0.189603
30
0.0
11
0.468460
21
0.172830
31
0.0
0
LINE
8
TOP
10
0.468460
20
0.172830
30
0.0
11
0.512655
21
0.160395
31
0.0
0
LINE
8
TOP
10
0.512655
20
0.160395
30
0.0
11
0.557868
21
0.152423
31
0.0
0
LINE
8
TOP
10
0.557868
20
0.152423
30
0.0
11
0.603650
21
0.148992
31
0.0
0
LINE
8
TOP
10
0.603650
20
0.148992
30
0.0
11
0.649547
21
0.150136
31
0.0
0
LINE
8
TOP
10
0.649547
20
0.150136
30
0.0
11
0.695101
21
0.155845
31
0.0
0
LINE
8
TOP
10
0.695101
20
0.155845
30
0.0
11
0.739861
21
0.166061
31
0.0
0
LINE
8
TOP
10
0.739861
20
0.166061
30
0.0
11
0.783381
21
0.180683
31
0.0
0
LINE
8
TOP
10
0.783381
20
0.180683
30
0.0
11
0.825229
21
0.199566
31
0.0
0
LINE
8
TOP
10
0.825229
20
0.199566
30
0.0
11
0.864988
21
0.222521
31
0.0
0
LINE
8
TOP
10
0.864988
20
0.222521
30
0.0
11
0.902265
21
0.249321
31
0.0
0
LINE
8
TOP
10
0.902265
20
0.249321
30
0.0
11
0.936688
21
0.279699
31
0.0
0
LINE
8
TOP
10
0.936688
20
0.279699
30
0.0
11
0.967915
21
0.313354
31
0.0
0
LINE
8
TOP
10
0.967915
20
0.313354
30
0.0
11
0.995636
21
0.349951
31
0.0
0
LINE
8
TOP
10
0.995636
20
0.349951
30
0.0
11
1.019576
21
0.389126
31
0.0
0
LINE
8
TOP
10
1.019576
20
0.389126
30
0.0
11
1.039496
21
0.430491
31
0.0
0
LINE
8
TOP
10
1.039496
20
0.430491
30
0.0
11
1.055198
21
0.473632
31
0.0
0
LINE
8
TOP
10
1.055198
20
0.473632
30
0.0
11
1.066527
21
0.518123
31
0.0
0
LINE
8
TOP
10
1.066527
20
0.518123
30
0.0
11
1.073369
21
0.563521
31
0.0
0
LINE
8
TOP
10
1.073369
20
0.563521
30
0.0
11
1.075658
21
0.609375
31
0.0
0
LINE
8
TOP_HID
6
HIDDEN
10
1.167763
20
0.609375
30
0.0
11
1.165017
21
0.664399
31
0.0
0
LINE
8
TOP_HID
6
HIDDEN
10
1.165017
20
0.664399
30
0.0
11
1.156806
21
0.718877
31
0.0
0
LINE
8
TOP_HID
6
HIDDEN
10
1.156806
20
0.718877
30
0.0
11
1.143211
21
0.772266
31
0.0
0
LINE
8
TOP_HID
6
HIDDEN
10
1.143211
20
0.772266
30
0.0
11
1.124368
21
0.824036
31
0.0
0
LINE
8
TOP_HID
6
HIDDEN
10
1.124368
20
0.824036
30
0.0
11
1.100465
21
0.873673
31
0.0
0
LINE
8
TOP_HID
6
HIDDEN
10
1.100465
20
0.873673
30
0.0
11
1.071737
21
0.920683
31
0.0
0
LINE
8
TOP_HID
6
HIDDEN
10
1.071737
20
0.920683
30
0.0
11
1.038472
21
0.964600
31
0.0
0
LINE
8
TOP_HID
6
HIDDEN
10
1.038472
20
0.964600
30
0.0
11
1.000999
21
1.004986
31
0.0
0
LINE
8
TOP_HID
6
HIDDEN
10
1.000999
20
1.004986
30
0.0
11
0.959692
21
1.041440
31
0.0
0
LINE
8
TOP_HID
6
HIDDEN
10
0.959692
20
1.041440
30
0.0
11
0.914960
21
1.073600
31
0.0
0
LINE
8
TOP_HID
6
HIDDEN
10
0.914960
20
1.073600
30
0.0
11
0.867248
21
1.101146
31
0.0
0
LINE
8
TOP_HID
6
HIDDEN
10
0.867248
20
1.101146
30
0.0
11
0.817031
21
1.123805
31
0.0
0
LINE
8
TOP_HID
6
HIDDEN
10
0.817031
20
1.123805
30
0.0
11
0.764807
21
1.141352
31
0.0
0
LINE
8
TOP_HID
6
HIDDEN
10
0.764807
20
1.141352
30
0.0
11
0.711095
21
1.153611
31
0.0
0
LINE
8
TOP_HID
6
HIDDEN
10
0.711095
20
1.153611
30
0.0
11
0.656430
21
1.160461
31
0.0
0
LINE
8
TOP_HID
6
HIDDEN
10
0.656430
20
1.160461
30
0.0
11
0.601354
21
1.161835
31
0.0
0
LINE
8
TOP_HID
6
HIDDEN
10
0.601354
20
1.161835
30
0.0
11
0.546415
21
1.157718
31
0.0
0
LINE
8
TOP_HID
6
HIDDEN
10
0.546415
20
1.157718
30
0.0
11
0.492159
21
1.148151
31
0.0
0
LINE
8
TOP_HID
6
HIDDEN
10
0.492159
20
1.148151
30
0.0
11
0.439126
21
1.133230
31
0.0
0
LINE
8
TOP_HID
6
HIDDEN
10
0.439126
20
1.133230
30
0.0
11
0.387841
21
1.113102
31
0.0
0
LINE
8
TOP_HID
6
HIDDEN
10
0.387841
20
1.113102
30
0.0
11
0.338816
21
1.087968
31
0.0
0
LINE
8
TOP_HID
6
HIDDEN
10
0.338816
20
1.087968
30
0.0
11
0.292536
21
1.058078
31
0.0
0
LINE
8
TOP_HID
6
HIDDEN
10
0.292536
20
1.058078
30
0.0
11
0.249463
21
1.023728
31
0.0
0
LINE
8
TOP_HID
6
HIDDEN
10
0.249463
20
1.023728
30
0.0
11
0.210024
21
0.985260
31
0.0
0
LINE
8
TOP_HID
6
HIDDEN
10
0.210024
20
0.985260
30
0.0
11
0.174611
21
0.943056
31
0.0
0
LINE
8
TOP_HID
6
HIDDEN
10
0.174611
20
0.943056
30
0.0
11
0.143576
21
0.897537
31
0.0
0
LINE
8
TOP_HID
6
HIDDEN
10
0.143576
20
0.897537
30
0.0
11
0.117228
21
0.849153
31
0.0
0
LINE
8
TOP_HID
6
HIDDEN
10
0.117228
20
0.849153
30
0.0
11
0.095828
21
0.798386
31
0.0
0
LINE
8
TOP_HID
6
HIDDEN
10
0.095828
20
0.798386
30
0.0
11
0.079589
21
0.745741
31
0.0
0
LINE
8
TOP_HID
6
HIDDEN
10
0.079589
20
0.745741
30
0.0
11
0.068672
21
0.691740
31
0.0
0
LINE
8
TOP_HID
6
HIDDEN
10
0.068672
20
0.691740
30
0.0
11
0.063187
21
0.636921
31
0.0
0
LINE
8
TOP_HID
6
HIDDEN
10
0.063187
20
0.636921
30
0.0
11
0.063187
21
0.581829
31
0.0
0
LINE
8
TOP_HID
6
HIDDEN
10
0.063187
20
0.581829
30
0.0
11
0.068672
21
0.527010
31
0.0
0
LINE
8
TOP_HID
6
HIDDEN
10
0.068672
20
0.527010
30
0.0
11
0.079589
21
0.473009
31
0.0
0
LINE
8
TOP_HID
6
HIDDEN
10
0.079589
20
0.473009
30
0.0
11
0.095828
21
0.420364
31
0.0
0
LINE
8
TOP_HID
6
HIDDEN
10
0.095828
20
0.420364
30
0.0
11
0.117228
21
0.369597
31
0.0
0
LINE
8
TOP_HID
6
HIDDEN
10
0.117228
20
0.369597
30
0.0
11
0.143576
21
0.321213
31
0.0
0
LINE
8
TOP_HID
6
HIDDEN
10
0.143576
20
0.321213
30
0.0
11
0.174611
21
0.275694
31
0.0
0
LINE
8
TOP_HID
6
HIDDEN
10
0.174611
20
0.275694
30
0.0
11
0.210024
21
0.233490
31
0.0
0
LINE
8
TOP_HID
6
HIDDEN
10
0.210024
20
0.233490
30
0.0
11
0.249463
21
0.195022
31
0.0
0
LINE
8
TOP_HID
6
HIDDEN
10
0.249463
20
0.195022
30
0.0
11
0.292536
21
0.160672
31
0.0
0
LINE
8
TOP_HID
6
HIDDEN
10
0.292536
20
0.160672
30
0.0
11
0.338816
21
0.130782
31
0.0
0
LINE
8
TOP_HID
6
HIDDEN
10
0.338816
20
0.130782
30
0.0
11
0.387841
21
0.105648
31
0.0
0
LINE
8
TOP_HID
6
HIDDEN
10
0.387841
20
0.105648
30
0.0
11
0.439126
21
0.085520
31
0.0
0
LINE
8
TOP_HID
6
HIDDEN
10
0.439126
20
0.085520
30
0.0
11
0.492159
21
0.070599
31
0.0
0
LINE
8
TOP_HID
6
HIDDEN
10
0.492159
20
0.070599
30
0.0
11
0.546415
21
0.061032
31
0.0
0
LINE
8
TOP_HID
6
HIDDEN
10
0.546415
20
0.061032
30
0.0
11
0.601354
21
0.056915
31
0.0
0
LINE
8
TOP_HID
6
HIDDEN
10
0.601354
20
0.056915
30
0.0
11
0.656430
21
0.058289
31
0.0
0
LINE
8
TOP_HID
6
HIDDEN
10
0.656430
20
0.058289
30
0.0
11
0.711095
21
0.065139
31
0.0
0
LINE
8
TOP_HID
6
HIDDEN
10
0.711095
20
0.065139
30
0.0
11
0.764807
21
0.077398
31
0.0
0
LINE
8
TOP_HID
6
HIDDEN
10
0.764807
20
0.077398
30
0.0
11
0.817031
21
0.094945
31
0.0
0
LINE
8
TOP_HID
6
HIDDEN
10
0.817031
20
0.094945
30
0.0
11
0.867248
21
0.117604
31
0.0
0
LINE
8
TOP_HID
6
HIDDEN
10
0.867248
20
0.117604
30
0.0
11
0.914960
21
0.145150
31
0.0
0
LINE
8
TOP_HID
6
HIDDEN
10
0.914960
20
0.145150
30
0.0
11
0.959692
21
0.177310
31
0.0
0
LINE
8
TOP_HID
6
HIDDEN
10
0.959692
20
0.177310
30
0.0
11
1.000999
21
0.213764
31
0.0
0
LINE
8
TOP_HID
6
HIDDEN
10
1.000999
20
0.213764
30
0.0
11
1.038472
21
0.254150
31
0.0
0
LINE
8
TOP_HID
6
HIDDEN
10
1.038472
20
0.254150
30
0.0
11
1.071737
21
0.298067
31
0.0
0
LINE
8
TOP_HID
6
HIDDEN
10
1.071737
20
0.298067
30
0.0
11
1.100465
21
0.345077
31
0.0
0
LINE
8
TOP_HID
6
HIDDEN
10
1.100465
20
0.345077
30
0.0
11
1.124368
21
0.394714
31
0.0
0
LINE
8
TOP_HID
6
HIDDEN
10
1.124368
20
0.394714
30
0.0
11
1.143211
21
0.446484
31
0.0
0
LINE
8
TOP_HID
6
HIDDEN
10
1.143211
20
0.446484
30
0.0
11
1.156806
21
0.499873
31
0.0
0
LINE
8
TOP_HID
6
HIDDEN
10
1.156806
20
0.499873
30
0.0
11
1.165017
21
0.554351
31
0.0
0
LINE
8
TOP_HID
6
HIDDEN
10
1.165017
20
0.554351
30
0.0
11
1.167763
21
0.609375
31
0.0
0
LINE
8
TOP_HID
6
HIDDEN
10
1.167763
20
0.609375
30
0.0
11
1.165017
21
0.664399
31
0.0
0
LINE
8
TOP_HID
6
HIDDEN
10
1.165017
20
0.664399
30
0.0
11
1.156806
21
0.718877
31
0.0
0
LINE
8
TOP_HID
6
HIDDEN
10
1.156806
20
0.718877
30
0.0
11
1.143211
21
0.772266
31
0.0
0
LINE
8
TOP_HID
6
HIDDEN
10
1.143211
20
0.772266
30
0.0
11
1.124368
21
0.824036
31
0.0
0
LINE
8
TOP_HID
6
HIDDEN
10
1.124368
20
0.824036
30
0.0
11
1.100465
21
0.873673
31
0.0
0
LINE
8
TOP_HID
6
HIDDEN
10
1.100465
20
0.873673
30
0.0
11
1.071737
21
0.920683
31
0.0
0
LINE
8
TOP_HID
6
HIDDEN
10
1.071737
20
0.920683
30
0.0
11
1.038472
21
0.964600
31
0.0
0
LINE
8
TOP_HID
6
HIDDEN
10
1.038472
20
0.964600
30
0.0
11
1.000999
21
1.004986
31
0.0
0
LINE
8
TOP_HID
6
HIDDEN
10
1.000999
20
1.004986
30
0.0
11
0.959692
21
1.041440
31
0.0
0
LINE
8
TOP_HID
6
HIDDEN
10
0.959692
20
1.041440
30
0.0
11
0.914960
21
1.073600
31
0.0
0
LINE
8
TOP_HID
6
HIDDEN
10
0.914960
20
1.073600
30
0.0
11
0.867248
21
1.101146
31
0.0
0
LINE
8
TOP_HID
6
HIDDEN
10
0.867248
20
1.101146
30
0.0
11
0.817031
21
1.123805
31
0.0
0
LINE
8
TOP_HID
6
HIDDEN
10
0.817031
20
1.123805
30
0.0
11
0.764807
21
1.141352
31
0.0
0
LINE
8
TOP_HID
6
HIDDEN
10
0.764807
20
1.141352
30
0.0
11
0.711095
21
1.153611
31
0.0
0
LINE
8
TOP_HID
6
HIDDEN
10
0.711095
20
1.153611
30
0.0
11
0.656430
21
1.160461
31
0.0
0
LINE
8
TOP_HID
6
HIDDEN
10
0.656430
20
1.160461
30
0.0
11
0.601354
21
1.161835
31
0.0
0
LINE
8
TOP_HID
6
HIDDEN
10
0.601354
20
1.161835
30
0.0
11
0.546415
21
1.157718
31
0.0
0
LINE
8
TOP_HID
6
HIDDEN
10
0.546415
20
1.157718
30
0.0
11
0.492159
21
1.148151
31
0.0
0
LINE
8
TOP_HID
6
HIDDEN
10
0.492159
20
1.148151
30
0.0
11
0.439126
21
1.133230
31
0.0
0
LINE
8
TOP_HID
6
HIDDEN
10
0.439126
20
1.133230
30
0.0
11
0.387841
21
1.113102
31
0.0
0
LINE
8
TOP_HID
6
HIDDEN
10
0.387841
20
1.113102
30
0.0
11
0.338816
21
1.087968
31
0.0
0
LINE
8
TOP_HID
6
HIDDEN
10
0.338816
20
1.087968
30
0.0
11
0.292536
21
1.058078
31
0.0
0
LINE
8
TOP_HID
6
HIDDEN
10
0.292536
20
1.058078
30
0.0
11
0.249463
21
1.023728
31
0.0
0
LINE
8
TOP_HID
6
HIDDEN
10
0.249463
20
1.023728
30
0.0
11
0.210024
21
0.985260
31
0.0
0
LINE
8
TOP_HID
6
HIDDEN
10
0.210024
20
0.985260
30
0.0
11
0.174611
21
0.943056
31
0.0
0
LINE
8
TOP_HID
6
HIDDEN
10
0.174611
20
0.943056
30
0.0
11
0.143576
21
0.897537
31
0.0
0
LINE
8
TOP_HID
6
HIDDEN
10
0.143576
20
0.897537
30
0.0
11
0.117228
21
0.849153
31
0.0
0
LINE
8
TOP_HID
6
HIDDEN
10
0.117228
20
0.849153
30
0.0
11
0.095828
21
0.798386
31
0.0
0
LINE
8
TOP_HID
6
HIDDEN
10
0.095828
20
0.798386
30
0.0
11
0.079589
21
0.745741
31
0.0
0
LINE
8
TOP_HID
6
HIDDEN
10
0.079589
20
0.745741
30
0.0
11
0.068672
21
0.691740
31
0.0
0
LINE
8
TOP_HID
6
HIDDEN
10
0.068672
20
0.691740
30
0.0
11
0.063187
21
0.636921
31
0.0
0
LINE
8
TOP_HID
6
HIDDEN
10
0.063187
20
0.636921
30
0.0
11
0.063187
21
0.581829
31
0.0
0
LINE
8
TOP_HID
6
HIDDEN
10
0.063187
20
0.581829
30
0.0
11
0.068672
21
0.527010
31
0.0
0
LINE
8
TOP_HID
6
HIDDEN
10
0.068672
20
0.527010
30
0.0
11
0.079589
21
0.473009
31
0.0
0
LINE
8
TOP_HID
6
HIDDEN
10
0.079589
20
0.473009
30
0.0
11
0.095828
21
0.420364
31
0.0
0
LINE
8
TOP_HID
6
HIDDEN
10
0.095828
20
0.420364
30
0.0
11
0.117228
21
0.369597
31
0.0
0
LINE
8
TOP_HID
6
HIDDEN
10
0.117228
20
0.369597
30
0.0
11
0.143576
21
0.321213
31
0.0
0
LINE
8
TOP_HID
6
HIDDEN
10
0.143576
20
0.321213
30
0.0
11
0.174611
21
0.275694
31
0.0
0
LINE
8
TOP_HID
6
HIDDEN
10
0.174611
20
0.275694
30
0.0
11
0.210024
21
0.233490
31
0.0
0
LINE
8
TOP_HID
6
HIDDEN
10
0.210024
20
0.233490
30
0.0
11
0.249463
21
0.195022
31
0.0
0
LINE
8
TOP_HID
6
HIDDEN
10
0.249463
20
0.195022
30
0.0
11
0.292536
21
0.160672
31
0.0
0
LINE
8
TOP_HID
6
HIDDEN
10
0.292536
20
0.160672
30
0.0
11
0.338816
21
0.130782
31
0.0
0
LINE
8
TOP_HID
6
HIDDEN
10
0.338816
20
0.130782
30
0.0
11
0.387841
21
0.105648
31
0.0
0
LINE
8
TOP_HID
6
HIDDEN
10
0.387841
20
0.105648
30
0.0
11
0.439126
21
0.085520
31
0.0
0
LINE
8
TOP_HID
6
HIDDEN
10
0.439126
20
0.085520
30
0.0
11
0.492159
21
0.070599
31
0.0
0
LINE
8
TOP_HID
6
HIDDEN
10
0.492159
20
0.070599
30
0.0
11
0.546415
21
0.061032
31
0.0
0
LINE
8
TOP_HID
6
HIDDEN
10
0.546415
20
0.061032
30
0.0
11
0.601354
21
0.056915
31
0.0
0
LINE
8
TOP_HID
6
HIDDEN
10
0.601354
20
0.056915
30
0.0
11
0.656430
21
0.058289
31
0.0
0
LINE
8
TOP_HID
6
HIDDEN
10
0.656430
20
0.058289
30
0.0
11
0.711095
21
0.065139
31
0.0
0
LINE
8
TOP_HID
6
HIDDEN
10
0.711095
20
0.065139
30
0.0
11
0.764807
21
0.077398
31
0.0
0
LINE
8
TOP_HID
6
HIDDEN
10
0.764807
20
0.077398
30
0.0
11
0.817031
21
0.094945
31
0.0
0
LINE
8
TOP_HID
6
HIDDEN
10
0.817031
20
0.094945
30
0.0
11
0.867248
21
0.117604
31
0.0
0
LINE
8
TOP_HID
6
HIDDEN
10
0.867248
20
0.117604
30
0.0
11
0.914960
21
0.145150
31
0.0
0
LINE
8
TOP_HID
6
HIDDEN
10
0.914960
20
0.145150
30
0.0
11
0.959692
21
0.177310
31
0.0
0
LINE
8
TOP_HID
6
HIDDEN
10
0.959692
20
0.177310
30
0.0
11
1.000999
21
0.213764
31
0.0
0
LINE
8
TOP_HID
6
HIDDEN
10
1.000999
20
0.213764
30
0.0
11
1.038472
21
0.254150
31
0.0
0
LINE
8
TOP_HID
6
HIDDEN
10
1.038472
20
0.254150
30
0.0
11
1.071737
21
0.298067
31
0.0
0
LINE
8
TOP_HID
6
HIDDEN
10
1.071737
20
0.298067
30
0.0
11
1.100465
21
0.345077
31
0.0
0
LINE
8
TOP_HID
6
HIDDEN
10
1.100465
20
0.345077
30
0.0
11
1.124368
21
0.394714
31
0.0
0
LINE
8
TOP_HID
6
HIDDEN
10
1.124368
20
0.394714
30
0.0
11
1.143211
21
0.446484
31
0.0
0
LINE
8
TOP_HID
6
HIDDEN
10
1.143211
20
0.446484
30
0.0
11
1.156806
21
0.499873
31
0.0
0
LINE
8
TOP_HID
6
HIDDEN
10
1.156806
20
0.499873
30
0.0
11
1.165017
21
0.554351
31
0.0
0
LINE
8
TOP_HID
6
HIDDEN
10
1.165017
20
0.554351
30
0.0
11
1.167763
21
0.609375
31
0.0
0
ENDSEC
0
EOF
