0
SECTION
2
HEADER
9
$ACADVER
1
AC1009
0
ENDSEC
0
SECTION
2
TABLES
0
TABLE
2
LTYPE
70
3
0
LTYPE
2
CONTINUOUS
70
0
3
Solid line
72
65
73
0
40
0.0
0
LTYPE
2
HIDDEN
70
0
3
__ __ __ __ __
72
65
73
2
40
0.075000
49
0.050025
49
-0.024975
0
LTYPE
2
CENTER
70
0
3
___ _ ___ _ ___
72
65
73
4
40
0.174975
49
0.099975
49
-0.024975
49
0.024975
49
-0.024975
0
ENDTAB
0
TABLE
2
LAYER
70
6
0
LAYER
2
0
70
0
62
7
6
CONTINUOUS
0
LAYER
2
FRONT
70
0
62
7
6
CONTINUOUS
0
LAYER
2
FRONT_HID
70
0
62
7
6
HIDDEN
0
LAYER
2
LEFT
70
0
62
7
6
CONTINUOUS
0
LAYER
2
LEFT_HID
70
0
62
7
6
HIDDEN
0
LAYER
2
TOP
70
0
62
7
6
CONTINUOUS
0
ENDTAB
0
ENDSEC
0
SECTION
2
ENTITIES
0
LINE
8
FRONT
10
1.500000
20
0.457895
30
0.0
11
1.500000
21
0.465707
31
0.0
0
LINE
8
FRONT
10
1.500000
20
0.465707
30
0.0
11
0.000000
21
0.465707
31
0.0
0
LINE
8
FRONT
10
0.000000
20
0.457895
30
0.0
11
0.000000
21
0.465707
31
0.0
0
LINE
8
FRONT
10
1.500000
20
0.457895
30
0.0
11
0.000000
21
0.457895
31
0.0
0
LINE
8
FRONT_HID
6
HIDDEN
10
0.789474
20
0.457895
30
0.0
11
0.726316
21
0.457895
31
0.0
0
LINE
8
FRONT_HID
6
HIDDEN
10
0.726316
20
0.457895
30
0.0
11
0.789474
21
0.457895
31
0.0
0
LINE
8
FRONT_HID
6
HIDDEN
10
0.789474
20
0.457895
30
0.0
11
0.789474
21
0.465707
31
0.0
0
LINE
8
FRONT_HID
6
HIDDEN
10
0.789474
20
0.465707
30
0.0
11
0.726316
21
0.465707
31
0.0
0
LINE
8
FRONT_HID
6
HIDDEN
10
0.726316
20
0.465707
30
0.0
11
0.789474
21
0.465707
31
0.0
0
LINE
8
FRONT_HID
6
HIDDEN
10
0.726316
20
0.465707
30
0.0
11
0.726316
21
0.457895
31
0.0
0
LINE
8
LEFT
10
1.957895
20
0.457895
30
0.0
11
1.957895
21
0.465707
31
0.0
0
LINE
8
LEFT
10
1.800000
20
0.457895
30
0.0
11
1.800000
21
0.465707
31
0.0
0
LINE
8
LEFT
10
1.800000
20
0.465707
30
0.0
11
1.878947
21
0.465707
31
0.0
0
LINE
8
LEFT
10
1.800000
20
0.457895
30
0.0
11
1.878947
21
0.457895
31
0.0
0
LINE
8
LEFT
10
1.878947
20
0.465707
30
0.0
11
1.957895
21
0.465707
31
0.0
0
LINE
8
LEFT
10
1.878947
20
0.457895
30
0.0
11
1.957895
21
0.457895
31
0.0
0
LINE
8
LEFT_HID
6
HIDDEN
10
1.957895
20
0.465707
30
0.0
11
1.800000
21
0.465707
31
0.0
0
LINE
8
LEFT_HID
6
HIDDEN
10
1.957895
20
0.457895
30
0.0
11
1.800000
21
0.457895
31
0.0
0
LINE
8
LEFT_HID
6
HIDDEN
10
1.878947
20
0.457895
30
0.0
11
1.847368
21
0.457895
31
0.0
0
LINE
8
LEFT_HID
6
HIDDEN
10
1.847368
20
0.457895
30
0.0
11
1.910526
21
0.457895
31
0.0
0
LINE
8
LEFT_HID
6
HIDDEN
10
1.910526
20
0.457895
30
0.0
11
1.878947
21
0.457895
31
0.0
0
LINE
8
LEFT_HID
6
HIDDEN
10
1.878947
20
0.465707
30
0.0
11
1.847368
21
0.465707
31
0.0
0
LINE
8
LEFT_HID
6
HIDDEN
10
1.847368
20
0.465707
30
0.0
11
1.910526
21
0.465707
31
0.0
0
LINE
8
LEFT_HID
6
HIDDEN
10
1.910526
20
0.465707
30
0.0
11
1.878947
21
0.465707
31
0.0
0
LINE
8
LEFT_HID
6
HIDDEN
10
1.847368
20
0.465707
30
0.0
11
1.847368
21
0.457895
31
0.0
0
LINE
8
LEFT_HID
6
HIDDEN
10
1.910526
20
0.465707
30
0.0
11
1.910526
21
0.457895
31
0.0
0
LINE
8
TOP
10
0.000000
20
0.000000
30
0.0
11
1.500000
21
0.000000
31
0.0
0
LINE
8
TOP
10
1.500000
20
0.000000
30
0.0
11
1.500000
21
0.157895
31
0.0
0
LINE
8
TOP
10
1.500000
20
0.157895
30
0.0
11
0.000000
21
0.157895
31
0.0
0
LINE
8
TOP
10
0.000000
20
0.157895
30
0.0
11
0.000000
21
0.078947
31
0.0
0
LINE
8
TOP
10
0.000000
20
0.078947
30
0.0
11
0.000000
21
0.000000
31
0.0
0
LINE
8
TOP
10
0.789474
20
0.078947
30
0.0
11
0.789317
21
0.082092
31
0.0
0
LINE
8
TOP
10
0.789317
20
0.082092
30
0.0
11
0.788848
21
0.085205
31
0.0
0
LINE
8
TOP
10
0.788848
20
0.085205
30
0.0
11
0.788071
21
0.088255
31
0.0
0
LINE
8
TOP
10
0.788071
20
0.088255
30
0.0
11
0.786994
21
0.091214
31
0.0
0
LINE
8
TOP
10
0.786994
20
0.091214
30
0.0
11
0.785628
21
0.094050
31
0.0
0
LINE
8
TOP
10
0.785628
20
0.094050
30
0.0
11
0.783986
21
0.096736
31
0.0
0
LINE
8
TOP
10
0.783986
20
0.096736
30
0.0
11
0.782086
21
0.099246
31
0.0
0
LINE
8
TOP
10
0.782086
20
0.099246
30
0.0
11
0.779944
21
0.101554
31
0.0
0
LINE
8
TOP
10
0.779944
20
0.101554
30
0.0
11
0.777584
21
0.103637
31
0.0
0
LINE
8
TOP
10
0.777584
20
0.103637
30
0.0
11
0.775028
21
0.105475
31
0.0
0
LINE
8
TOP
10
0.775028
20
0.105475
30
0.0
11
0.772301
21
0.107049
31
0.0
0
LINE
8
TOP
10
0.772301
20
0.107049
30
0.0
11
0.769432
21
0.108343
31
0.0
0
LINE
8
TOP
10
0.769432
20
0.108343
30
0.0
11
0.766448
21
0.109346
31
0.0
0
LINE
8
TOP
10
0.766448
20
0.109346
30
0.0
11
0.763378
21
0.110047
31
0.0
0
LINE
8
TOP
10
0.763378
20
0.110047
30
0.0
11
0.760255
21
0.110438
31
0.0
0
LINE
8
TOP
10
0.760255
20
0.110438
30
0.0
11
0.757107
21
0.110517
31
0.0
0
LINE
8
TOP
10
0.757107
20
0.110517
30
0.0
11
0.753968
21
0.110281
31
0.0
0
LINE
8
TOP
10
0.753968
20
0.110281
30
0.0
11
0.750868
21
0.109735
31
0.0
0
LINE
8
TOP
10
0.750868
20
0.109735
30
0.0
11
0.747837
21
0.108882
31
0.0
0
LINE
8
TOP
10
0.747837
20
0.108882
30
0.0
11
0.744907
21
0.107732
31
0.0
0
LINE
8
TOP
10
0.744907
20
0.107732
30
0.0
11
0.742105
21
0.106296
31
0.0
0
LINE
8
TOP
10
0.742105
20
0.106296
30
0.0
11
0.739461
21
0.104588
31
0.0
0
LINE
8
TOP
10
0.739461
20
0.104588
30
0.0
11
0.736999
21
0.102625
31
0.0
0
LINE
8
TOP
10
0.736999
20
0.102625
30
0.0
11
0.734746
21
0.100427
31
0.0
0
LINE
8
TOP
10
0.734746
20
0.100427
30
0.0
11
0.732722
21
0.098015
31
0.0
0
LINE
8
TOP
10
0.732722
20
0.098015
30
0.0
11
0.730949
21
0.095414
31
0.0
0
LINE
8
TOP
10
0.730949
20
0.095414
30
0.0
11
0.729443
21
0.092649
31
0.0
0
LINE
8
TOP
10
0.729443
20
0.092649
30
0.0
11
0.728220
21
0.089748
31
0.0
0
LINE
8
TOP
10
0.728220
20
0.089748
30
0.0
11
0.727292
21
0.086740
31
0.0
0
LINE
8
TOP
10
0.727292
20
0.086740
30
0.0
11
0.726669
21
0.083654
31
0.0
0
LINE
8
TOP
10
0.726669
20
0.083654
30
0.0
11
0.726355
21
0.080521
31
0.0
0
LINE
8
TOP
10
0.726355
20
0.080521
30
0.0
11
0.726355
21
0.077373
31
0.0
0
LINE
8
TOP
10
0.726355
20
0.077373
30
0.0
11
0.726669
21
0.074241
31
0.0
0
LINE
8
TOP
10
0.726669
20
0.074241
30
0.0
11
0.727292
21
0.071155
31
0.0
0
LINE
8
TOP
10
0.727292
20
0.071155
30
0.0
11
0.728220
21
0.068147
31
0.0
0
LINE
8
TOP
10
0.728220
20
0.068147
30
0.0
11
0.729443
21
0.065246
31
0.0
0
LINE
8
TOP
10
0.729443
20
0.065246
30
0.0
11
0.730949
21
0.062481
31
0.0
0
LINE
8
TOP
10
0.730949
20
0.062481
30
0.0
11
0.732722
21
0.059880
31
0.0
0
LINE
8
TOP
10
0.732722
20
0.059880
30
0.0
11
0.734746
21
0.057468
31
0.0
0
LINE
8
TOP
10
0.734746
20
0.057468
30
0.0
11
0.736999
21
0.055270
31
0.0
0
LINE
8
TOP
10
0.736999
20
0.055270
30
0.0
11
0.739461
21
0.053307
31
0.0
0
LINE
8
TOP
10
0.739461
20
0.053307
30
0.0
11
0.742105
21
0.051599
31
0.0
0
LINE
8
TOP
10
0.742105
20
0.051599
30
0.0
11
0.744907
21
0.050163
31
0.0
0
LINE
8
TOP
10
0.744907
20
0.050163
30
0.0
11
0.747837
21
0.049013
31
0.0
0
LINE
8
TOP
10
0.747837
20
0.049013
30
0.0
11
0.750868
21
0.048160
31
0.0
0
LINE
8
TOP
10
0.750868
20
0.048160
30
0.0
11
0.753968
21
0.047613
31
0.0
0
LINE
8
TOP
10
0.753968
20
0.047613
30
0.0
11
0.757107
21
0.047378
31
0.0
0
LINE
8
TOP
10
0.757107
20
0.047378
30
0.0
11
0.760255
21
0.047457
31
0.0
0
LINE
8
TOP
10
0.760255
20
0.047457
30
0.0
11
0.763378
21
0.047848
31
0.0
0
LINE
8
TOP
10
0.763378
20
0.047848
30
0.0
11
0.766448
21
0.048549
31
0.0
0
LINE
8
TOP
10
0.766448
20
0.048549
30
0.0
11
0.769432
21
0.049551
31
0.0
0
LINE
8
TOP
10
0.769432
20
0.049551
30
0.0
11
0.772301
21
0.050846
31
0.0
0
LINE
8
TOP
10
0.772301
20
0.050846
30
0.0
11
0.775028
21
0.052420
31
0.0
0
LINE
8
TOP
10
0.775028
20
0.052420
30
0.0
11
0.777584
21
0.054258
31
0.0
0
LINE
8
TOP
10
0.777584
20
0.054258
30
0.0
11
0.779944
21
0.056341
31
0.0
0
LINE
8
TOP
10
0.779944
20
0.056341
30
0.0
11
0.782086
21
0.058649
31
0.0
0
LINE
8
TOP
10
0.782086
20
0.058649
30
0.0
11
0.783986
21
0.061158
31
0.0
0
LINE
8
TOP
10
0.783986
20
0.061158
30
0.0
11
0.785628
21
0.063845
31
0.0
0
LINE
8
TOP
10
0.785628
20
0.063845
30
0.0
11
0.786994
21
0.066681
31
0.0
0
LINE
8
TOP
10
0.786994
20
0.066681
30
0.0
11
0.788071
21
0.069639
31
0.0
0
LINE
8
TOP
10
0.788071
20
0.069639
30
0.0
11
0.788848
21
0.072690
31
0.0
0
LINE
8
TOP
10
0.788848
20
0.072690
30
0.0
11
0.789317
21
0.075803
31
0.0
0
LINE
8
TOP
10
0.789317
20
0.075803
30
0.0
11
0.789474
21
0.078947
31
0.0
0
ENDSEC
0
EOF
