0
SECTION
2
HEADER
9
$ACADVER
1
AC1009
0
ENDSEC
0
SECTION
2
TABLES
0
TABLE
2
LTYPE
70
3
0
LTYPE
2
CONTINUOUS
70
0
3
Solid line
72
65
73
0
40
0.0
0
LTYPE
2
HIDDEN
70
0
3
__ __ __ __ __
72
65
73
2
40
0.075000
49
0.050025
49
-0.024975
0
LTYPE
2
CENTER
70
0
3
___ _ ___ _ ___
72
65
73
4
40
0.174975
49
0.099975
49
-0.024975
49
0.024975
49
-0.024975
0
ENDTAB
0
TABLE
2
LAYER
70
7
0
LAYER
2
0
70
0
62
7
6
CONTINUOUS
0
LAYER
2
FRONT
70
0
62
7
6
CONTINUOUS
0
LAYER
2
FRONT_HID
70
0
62
7
6
HIDDEN
0
LAYER
2
LEFT
70
0
62
7
6
CONTINUOUS
0
LAYER
2
LEFT_HID
70
0
62
7
6
HIDDEN
0
LAYER
2
TOP
70
0
62
7
6
CONTINUOUS
0
LAYER
2
TOP_HID
70
0
62
7
6
HIDDEN
0
ENDTAB
0
ENDSEC
0
SECTION
2
ENTITIES
0
LINE
8
FRONT
10
0.000000
20
1.800000
30
0.0
11
0.000000
21
1.932813
31
0.0
0
LINE
8
FRONT
10
1.500000
20
1.800000
30
0.0
11
1.500000
21
1.932813
31
0.0
0
LINE
8
FRONT
10
1.500000
20
1.800000
30
0.0
11
0.000000
21
1.800000
31
0.0
0
LINE
8
FRONT
10
1.500000
20
1.932813
30
0.0
11
0.000000
21
1.932813
31
0.0
0
LINE
8
FRONT_HID
6
HIDDEN
10
0.203125
20
1.800000
30
0.0
11
1.296875
21
1.800000
31
0.0
0
LINE
8
FRONT_HID
6
HIDDEN
10
1.296875
20
1.800000
30
0.0
11
0.203125
21
1.800000
31
0.0
0
LINE
8
FRONT_HID
6
HIDDEN
10
0.268421
20
1.932813
30
0.0
11
1.231579
21
1.932813
31
0.0
0
LINE
8
FRONT_HID
6
HIDDEN
10
1.231579
20
1.932813
30
0.0
11
0.268421
21
1.932813
31
0.0
0
LINE
8
FRONT_HID
6
HIDDEN
10
0.203125
20
1.800000
30
0.0
11
0.203125
21
1.870313
31
0.0
0
LINE
8
FRONT_HID
6
HIDDEN
10
0.203125
20
1.870313
30
0.0
11
1.296875
21
1.870313
31
0.0
0
LINE
8
FRONT_HID
6
HIDDEN
10
1.296875
20
1.800000
30
0.0
11
1.296875
21
1.870313
31
0.0
0
LINE
8
FRONT_HID
6
HIDDEN
10
1.296875
20
1.800000
30
0.0
11
1.296875
21
1.870313
31
0.0
0
LINE
8
FRONT_HID
6
HIDDEN
10
1.296875
20
1.870313
30
0.0
11
0.203125
21
1.870313
31
0.0
0
LINE
8
FRONT_HID
6
HIDDEN
10
0.203125
20
1.800000
30
0.0
11
0.203125
21
1.870313
31
0.0
0
LINE
8
FRONT_HID
6
HIDDEN
10
0.268421
20
1.870313
30
0.0
11
1.231579
21
1.870313
31
0.0
0
LINE
8
FRONT_HID
6
HIDDEN
10
0.268421
20
1.870313
30
0.0
11
0.268421
21
1.932813
31
0.0
0
LINE
8
FRONT_HID
6
HIDDEN
10
1.231579
20
1.870313
30
0.0
11
1.231579
21
1.932813
31
0.0
0
LINE
8
FRONT_HID
6
HIDDEN
10
1.231579
20
1.870313
30
0.0
11
1.231579
21
1.932813
31
0.0
0
LINE
8
FRONT_HID
6
HIDDEN
10
1.231579
20
1.870313
30
0.0
11
0.268421
21
1.870313
31
0.0
0
LINE
8
FRONT_HID
6
HIDDEN
10
0.268421
20
1.870313
30
0.0
11
0.268421
21
1.932813
31
0.0
0
LINE
8
LEFT
10
3.300000
20
1.800000
30
0.0
11
3.300000
21
1.932813
31
0.0
0
LINE
8
LEFT
10
1.800000
20
1.800000
30
0.0
11
1.800000
21
1.932813
31
0.0
0
LINE
8
LEFT
10
1.800000
20
1.932813
30
0.0
11
3.300000
21
1.932813
31
0.0
0
LINE
8
LEFT
10
1.800000
20
1.800000
30
0.0
11
3.300000
21
1.800000
31
0.0
0
LINE
8
LEFT_HID
6
HIDDEN
10
2.138816
20
1.800000
30
0.0
11
2.956250
21
1.800000
31
0.0
0
LINE
8
LEFT_HID
6
HIDDEN
10
2.956250
20
1.800000
30
0.0
11
2.138816
21
1.800000
31
0.0
0
LINE
8
LEFT_HID
6
HIDDEN
10
2.889474
20
1.932813
30
0.0
11
2.210526
21
1.932813
31
0.0
0
LINE
8
LEFT_HID
6
HIDDEN
10
2.210526
20
1.932813
30
0.0
11
2.889474
21
1.932813
31
0.0
0
LINE
8
LEFT_HID
6
HIDDEN
10
2.956250
20
1.800000
30
0.0
11
2.956250
21
1.870313
31
0.0
0
LINE
8
LEFT_HID
6
HIDDEN
10
2.956250
20
1.800000
30
0.0
11
2.956250
21
1.870313
31
0.0
0
LINE
8
LEFT_HID
6
HIDDEN
10
2.956250
20
1.870313
30
0.0
11
2.138816
21
1.870313
31
0.0
0
LINE
8
LEFT_HID
6
HIDDEN
10
2.138816
20
1.800000
30
0.0
11
2.138816
21
1.870313
31
0.0
0
LINE
8
LEFT_HID
6
HIDDEN
10
2.138816
20
1.800000
30
0.0
11
2.138816
21
1.870313
31
0.0
0
LINE
8
LEFT_HID
6
HIDDEN
10
2.138816
20
1.870313
30
0.0
11
2.956250
21
1.870313
31
0.0
0
LINE
8
LEFT_HID
6
HIDDEN
10
2.889474
20
1.870313
30
0.0
11
2.889474
21
1.932813
31
0.0
0
LINE
8
LEFT_HID
6
HIDDEN
10
2.889474
20
1.870313
30
0.0
11
2.889474
21
1.932813
31
0.0
0
LINE
8
LEFT_HID
6
HIDDEN
10
2.889474
20
1.870313
30
0.0
11
2.210526
21
1.870313
31
0.0
0
LINE
8
LEFT_HID
6
HIDDEN
10
2.210526
20
1.870313
30
0.0
11
2.210526
21
1.932813
31
0.0
0
LINE
8
LEFT_HID
6
HIDDEN
10
2.210526
20
1.870313
30
0.0
11
2.210526
21
1.932813
31
0.0
0
LINE
8
LEFT_HID
6
HIDDEN
10
2.210526
20
1.870313
30
0.0
11
2.889474
21
1.870313
31
0.0
0
LINE
8
TOP
10
0.000000
20
0.000000
30
0.0
11
1.500000
21
0.000000
31
0.0
0
LINE
8
TOP
10
0.000000
20
1.500000
30
0.0
11
0.000000
21
0.000000
31
0.0
0
LINE
8
TOP
10
1.500000
20
0.000000
30
0.0
11
1.500000
21
1.500000
31
0.0
0
LINE
8
TOP
10
1.500000
20
1.500000
30
0.0
11
0.000000
21
1.500000
31
0.0
0
LINE
8
TOP
10
0.268421
20
0.410526
30
0.0
11
1.231579
21
0.410526
31
0.0
0
LINE
8
TOP
10
1.231579
20
0.410526
30
0.0
11
1.231579
21
1.089474
31
0.0
0
LINE
8
TOP
10
1.231579
20
1.089474
30
0.0
11
0.268421
21
1.089474
31
0.0
0
LINE
8
TOP
10
0.268421
20
1.089474
30
0.0
11
0.268421
21
0.410526
31
0.0
0
LINE
8
TOP_HID
6
HIDDEN
10
0.203125
20
0.343750
30
0.0
11
1.296875
21
0.343750
31
0.0
0
LINE
8
TOP_HID
6
HIDDEN
10
0.203125
20
1.161184
30
0.0
11
0.203125
21
0.343750
31
0.0
0
LINE
8
TOP_HID
6
HIDDEN
10
1.296875
20
1.161184
30
0.0
11
0.203125
21
1.161184
31
0.0
0
LINE
8
TOP_HID
6
HIDDEN
10
1.296875
20
0.343750
30
0.0
11
1.296875
21
1.161184
31
0.0
0
LINE
8
TOP_HID
6
HIDDEN
10
0.203125
20
0.343750
30
0.0
11
1.296875
21
0.343750
31
0.0
0
LINE
8
TOP_HID
6
HIDDEN
10
1.296875
20
0.343750
30
0.0
11
1.296875
21
1.161184
31
0.0
0
LINE
8
TOP_HID
6
HIDDEN
10
1.296875
20
1.161184
30
0.0
11
0.203125
21
1.161184
31
0.0
0
LINE
8
TOP_HID
6
HIDDEN
10
0.203125
20
1.161184
30
0.0
11
0.203125
21
0.343750
31
0.0
0
ENDSEC
0
EOF
