0
SECTION
2
HEADER
9
$ACADVER
1
AC1009
0
ENDSEC
0
SECTION
2
TABLES
0
TABLE
2
LTYPE
70
3
0
LTYPE
2
CONTINUOUS
70
0
3
Solid line
72
65
73
0
40
0.0
0
LTYPE
2
HIDDEN
70
0
3
__ __ __ __ __
72
65
73
2
40
0.075000
49
0.050025
49
-0.024975
0
LTYPE
2
CENTER
70
0
3
___ _ ___ _ ___
72
65
73
4
40
0.174975
49
0.099975
49
-0.024975
49
0.024975
49
-0.024975
0
ENDTAB
0
TABLE
2
LAYER
70
6
0
LAYER
2
0
70
0
62
7
6
CONTINUOUS
0
LAYER
2
FRONT
70
0
62
7
6
CONTINUOUS
0
LAYER
2
LEFT
70
0
62
7
6
CONTINUOUS
0
LAYER
2
LEFT_HID
70
0
62
7
6
HIDDEN
0
LAYER
2
TOP
70
0
62
7
6
CONTINUOUS
0
LAYER
2
TOP_HID
70
0
62
7
6
HIDDEN
0
ENDTAB
0
ENDSEC
0
SECTION
2
ENTITIES
0
LINE
8
FRONT
10
0.000000
20
0.323438
30
0.0
11
0.757895
21
0.323438
31
0.0
0
LINE
8
FRONT
10
0.757895
20
0.323438
30
0.0
11
0.757895
21
1.823438
31
0.0
0
LINE
8
FRONT
10
0.757895
20
1.823438
30
0.0
11
0.000000
21
1.823438
31
0.0
0
LINE
8
FRONT
10
0.000000
20
1.823438
30
0.0
11
0.000000
21
0.323438
31
0.0
0
LINE
8
FRONT
10
0.378947
20
1.397122
30
0.0
11
0.397813
21
1.398063
31
0.0
0
LINE
8
FRONT
10
0.397813
20
1.398063
30
0.0
11
0.416491
21
1.400879
31
0.0
0
LINE
8
FRONT
10
0.416491
20
1.400879
30
0.0
11
0.434796
21
1.405539
31
0.0
0
LINE
8
FRONT
10
0.434796
20
1.405539
30
0.0
11
0.452546
21
1.412000
31
0.0
0
LINE
8
FRONT
10
0.452546
20
1.412000
30
0.0
11
0.469564
21
1.420196
31
0.0
0
LINE
8
FRONT
10
0.469564
20
1.420196
30
0.0
11
0.485682
21
1.430045
31
0.0
0
LINE
8
FRONT
10
0.485682
20
1.430045
30
0.0
11
0.500739
21
1.441450
31
0.0
0
LINE
8
FRONT
10
0.500739
20
1.441450
30
0.0
11
0.514585
21
1.454298
31
0.0
0
LINE
8
FRONT
10
0.514585
20
1.454298
30
0.0
11
0.527084
21
1.468460
31
0.0
0
LINE
8
FRONT
10
0.527084
20
1.468460
30
0.0
11
0.538110
21
1.483797
31
0.0
0
LINE
8
FRONT
10
0.538110
20
1.483797
30
0.0
11
0.547555
21
1.500155
31
0.0
0
LINE
8
FRONT
10
0.547555
20
1.500155
30
0.0
11
0.555323
21
1.517373
31
0.0
0
LINE
8
FRONT
10
0.555323
20
1.517373
30
0.0
11
0.561339
21
1.535278
31
0.0
0
LINE
8
FRONT
10
0.561339
20
1.535278
30
0.0
11
0.565543
21
1.553694
31
0.0
0
LINE
8
FRONT
10
0.565543
20
1.553694
30
0.0
11
0.567891
21
1.572436
31
0.0
0
LINE
8
FRONT
10
0.567891
20
1.572436
30
0.0
11
0.568362
21
1.591319
31
0.0
0
LINE
8
FRONT
10
0.568362
20
1.591319
30
0.0
11
0.566951
21
1.610155
31
0.0
0
LINE
8
FRONT
10
0.566951
20
1.610155
30
0.0
11
0.563671
21
1.628757
31
0.0
0
LINE
8
FRONT
10
0.563671
20
1.628757
30
0.0
11
0.558555
21
1.646940
31
0.0
0
LINE
8
FRONT
10
0.558555
20
1.646940
30
0.0
11
0.551654
21
1.664523
31
0.0
0
LINE
8
FRONT
10
0.551654
20
1.664523
30
0.0
11
0.543036
21
1.681332
31
0.0
0
LINE
8
FRONT
10
0.543036
20
1.681332
30
0.0
11
0.532788
21
1.697199
31
0.0
0
LINE
8
FRONT
10
0.532788
20
1.697199
30
0.0
11
0.521011
21
1.711967
31
0.0
0
LINE
8
FRONT
10
0.521011
20
1.711967
30
0.0
11
0.507822
21
1.725489
31
0.0
0
LINE
8
FRONT
10
0.507822
20
1.725489
30
0.0
11
0.493352
21
1.737631
31
0.0
0
LINE
8
FRONT
10
0.493352
20
1.737631
30
0.0
11
0.477746
21
1.748272
31
0.0
0
LINE
8
FRONT
10
0.477746
20
1.748272
30
0.0
11
0.461157
21
1.757305
31
0.0
0
LINE
8
FRONT
10
0.461157
20
1.757305
30
0.0
11
0.443751
21
1.764642
31
0.0
0
LINE
8
FRONT
10
0.443751
20
1.764642
30
0.0
11
0.425701
21
1.770210
31
0.0
0
LINE
8
FRONT
10
0.425701
20
1.770210
30
0.0
11
0.407187
21
1.773953
31
0.0
0
LINE
8
FRONT
10
0.407187
20
1.773953
30
0.0
11
0.388392
21
1.775834
31
0.0
0
LINE
8
FRONT
10
0.388392
20
1.775834
30
0.0
11
0.369503
21
1.775834
31
0.0
0
LINE
8
FRONT
10
0.369503
20
1.775834
30
0.0
11
0.350708
21
1.773953
31
0.0
0
LINE
8
FRONT
10
0.350708
20
1.773953
30
0.0
11
0.332193
21
1.770210
31
0.0
0
LINE
8
FRONT
10
0.332193
20
1.770210
30
0.0
11
0.314144
21
1.764642
31
0.0
0
LINE
8
FRONT
10
0.314144
20
1.764642
30
0.0
11
0.296738
21
1.757305
31
0.0
0
LINE
8
FRONT
10
0.296738
20
1.757305
30
0.0
11
0.280149
21
1.748272
31
0.0
0
LINE
8
FRONT
10
0.280149
20
1.748272
30
0.0
11
0.264542
21
1.737631
31
0.0
0
LINE
8
FRONT
10
0.264542
20
1.737631
30
0.0
11
0.250073
21
1.725489
31
0.0
0
LINE
8
FRONT
10
0.250073
20
1.725489
30
0.0
11
0.236884
21
1.711967
31
0.0
0
LINE
8
FRONT
10
0.236884
20
1.711967
30
0.0
11
0.225106
21
1.697199
31
0.0
0
LINE
8
FRONT
10
0.225106
20
1.697199
30
0.0
11
0.214858
21
1.681332
31
0.0
0
LINE
8
FRONT
10
0.214858
20
1.681332
30
0.0
11
0.206241
21
1.664523
31
0.0
0
LINE
8
FRONT
10
0.206241
20
1.664523
30
0.0
11
0.199340
21
1.646940
31
0.0
0
LINE
8
FRONT
10
0.199340
20
1.646940
30
0.0
11
0.194224
21
1.628757
31
0.0
0
LINE
8
FRONT
10
0.194224
20
1.628757
30
0.0
11
0.190944
21
1.610155
31
0.0
0
LINE
8
FRONT
10
0.190944
20
1.610155
30
0.0
11
0.189533
21
1.591319
31
0.0
0
LINE
8
FRONT
10
0.189533
20
1.591319
30
0.0
11
0.190003
21
1.572436
31
0.0
0
LINE
8
FRONT
10
0.190003
20
1.572436
30
0.0
11
0.192352
21
1.553694
31
0.0
0
LINE
8
FRONT
10
0.192352
20
1.553694
30
0.0
11
0.196555
21
1.535278
31
0.0
0
LINE
8
FRONT
10
0.196555
20
1.535278
30
0.0
11
0.202571
21
1.517373
31
0.0
0
LINE
8
FRONT
10
0.202571
20
1.517373
30
0.0
11
0.210340
21
1.500155
31
0.0
0
LINE
8
FRONT
10
0.210340
20
1.500155
30
0.0
11
0.219785
21
1.483797
31
0.0
0
LINE
8
FRONT
10
0.219785
20
1.483797
30
0.0
11
0.230811
21
1.468460
31
0.0
0
LINE
8
FRONT
10
0.230811
20
1.468460
30
0.0
11
0.243309
21
1.454298
31
0.0
0
LINE
8
FRONT
10
0.243309
20
1.454298
30
0.0
11
0.257156
21
1.441450
31
0.0
0
LINE
8
FRONT
10
0.257156
20
1.441450
30
0.0
11
0.272213
21
1.430045
31
0.0
0
LINE
8
FRONT
10
0.272213
20
1.430045
30
0.0
11
0.288331
21
1.420196
31
0.0
0
LINE
8
FRONT
10
0.288331
20
1.420196
30
0.0
11
0.305349
21
1.412000
31
0.0
0
LINE
8
FRONT
10
0.305349
20
1.412000
30
0.0
11
0.323099
21
1.405539
31
0.0
0
LINE
8
FRONT
10
0.323099
20
1.405539
30
0.0
11
0.341404
21
1.400879
31
0.0
0
LINE
8
FRONT
10
0.341404
20
1.400879
30
0.0
11
0.360082
21
1.398063
31
0.0
0
LINE
8
FRONT
10
0.360082
20
1.398063
30
0.0
11
0.378947
21
1.397122
31
0.0
0
LINE
8
FRONT
10
0.378947
20
1.065543
30
0.0
11
0.393096
21
1.066249
31
0.0
0
LINE
8
FRONT
10
0.393096
20
1.066249
30
0.0
11
0.407105
21
1.068360
31
0.0
0
LINE
8
FRONT
10
0.407105
20
1.068360
30
0.0
11
0.420834
21
1.071856
31
0.0
0
LINE
8
FRONT
10
0.420834
20
1.071856
30
0.0
11
0.434146
21
1.076701
31
0.0
0
LINE
8
FRONT
10
0.434146
20
1.076701
30
0.0
11
0.446910
21
1.082848
31
0.0
0
LINE
8
FRONT
10
0.446910
20
1.082848
30
0.0
11
0.458998
21
1.090235
31
0.0
0
LINE
8
FRONT
10
0.458998
20
1.090235
30
0.0
11
0.470291
21
1.098789
31
0.0
0
LINE
8
FRONT
10
0.470291
20
1.098789
30
0.0
11
0.480676
21
1.108425
31
0.0
0
LINE
8
FRONT
10
0.480676
20
1.108425
30
0.0
11
0.490050
21
1.119047
31
0.0
0
LINE
8
FRONT
10
0.490050
20
1.119047
30
0.0
11
0.498319
21
1.130549
31
0.0
0
LINE
8
FRONT
10
0.498319
20
1.130549
30
0.0
11
0.505403
21
1.142818
31
0.0
0
LINE
8
FRONT
10
0.505403
20
1.142818
30
0.0
11
0.511229
21
1.155731
31
0.0
0
LINE
8
FRONT
10
0.511229
20
1.155731
30
0.0
11
0.515741
21
1.169160
31
0.0
0
LINE
8
FRONT
10
0.515741
20
1.169160
30
0.0
11
0.518894
21
1.182972
31
0.0
0
LINE
8
FRONT
10
0.518894
20
1.182972
30
0.0
11
0.520655
21
1.197028
31
0.0
0
LINE
8
FRONT
10
0.520655
20
1.197028
30
0.0
11
0.521008
21
1.211191
31
0.0
0
LINE
8
FRONT
10
0.521008
20
1.211191
30
0.0
11
0.519950
21
1.225318
31
0.0
0
LINE
8
FRONT
10
0.519950
20
1.225318
30
0.0
11
0.517490
21
1.239269
31
0.0
0
LINE
8
FRONT
10
0.517490
20
1.239269
30
0.0
11
0.513653
21
1.252907
31
0.0
0
LINE
8
FRONT
10
0.513653
20
1.252907
30
0.0
11
0.508477
21
1.266094
31
0.0
0
LINE
8
FRONT
10
0.508477
20
1.266094
30
0.0
11
0.502014
21
1.278701
31
0.0
0
LINE
8
FRONT
10
0.502014
20
1.278701
30
0.0
11
0.494328
21
1.290601
31
0.0
0
LINE
8
FRONT
10
0.494328
20
1.290601
30
0.0
11
0.485495
21
1.301677
31
0.0
0
LINE
8
FRONT
10
0.485495
20
1.301677
30
0.0
11
0.475603
21
1.311819
31
0.0
0
LINE
8
FRONT
10
0.475603
20
1.311819
30
0.0
11
0.464751
21
1.320925
31
0.0
0
LINE
8
FRONT
10
0.464751
20
1.320925
30
0.0
11
0.453046
21
1.328905
31
0.0
0
LINE
8
FRONT
10
0.453046
20
1.328905
30
0.0
11
0.440605
21
1.335680
31
0.0
0
LINE
8
FRONT
10
0.440605
20
1.335680
30
0.0
11
0.427550
21
1.341183
31
0.0
0
LINE
8
FRONT
10
0.427550
20
1.341183
30
0.0
11
0.414013
21
1.345359
31
0.0
0
LINE
8
FRONT
10
0.414013
20
1.345359
30
0.0
11
0.400127
21
1.348166
31
0.0
0
LINE
8
FRONT
10
0.400127
20
1.348166
30
0.0
11
0.386031
21
1.349577
31
0.0
0
LINE
8
FRONT
10
0.386031
20
1.349577
30
0.0
11
0.371864
21
1.349577
31
0.0
0
LINE
8
FRONT
10
0.371864
20
1.349577
30
0.0
11
0.357768
21
1.348166
31
0.0
0
LINE
8
FRONT
10
0.357768
20
1.348166
30
0.0
11
0.343882
21
1.345359
31
0.0
0
LINE
8
FRONT
10
0.343882
20
1.345359
30
0.0
11
0.330345
21
1.341183
31
0.0
0
LINE
8
FRONT
10
0.330345
20
1.341183
30
0.0
11
0.317290
21
1.335680
31
0.0
0
LINE
8
FRONT
10
0.317290
20
1.335680
30
0.0
11
0.304849
21
1.328905
31
0.0
0
LINE
8
FRONT
10
0.304849
20
1.328905
30
0.0
11
0.293144
21
1.320925
31
0.0
0
LINE
8
FRONT
10
0.293144
20
1.320925
30
0.0
11
0.282291
21
1.311819
31
0.0
0
LINE
8
FRONT
10
0.282291
20
1.311819
30
0.0
11
0.272400
21
1.301677
31
0.0
0
LINE
8
FRONT
10
0.272400
20
1.301677
30
0.0
11
0.263567
21
1.290601
31
0.0
0
LINE
8
FRONT
10
0.263567
20
1.290601
30
0.0
11
0.255881
21
1.278701
31
0.0
0
LINE
8
FRONT
10
0.255881
20
1.278701
30
0.0
11
0.249418
21
1.266094
31
0.0
0
LINE
8
FRONT
10
0.249418
20
1.266094
30
0.0
11
0.244242
21
1.252907
31
0.0
0
LINE
8
FRONT
10
0.244242
20
1.252907
30
0.0
11
0.240405
21
1.239269
31
0.0
0
LINE
8
FRONT
10
0.240405
20
1.239269
30
0.0
11
0.237945
21
1.225318
31
0.0
0
LINE
8
FRONT
10
0.237945
20
1.225318
30
0.0
11
0.236886
21
1.211191
31
0.0
0
LINE
8
FRONT
10
0.236886
20
1.211191
30
0.0
11
0.237239
21
1.197028
31
0.0
0
LINE
8
FRONT
10
0.237239
20
1.197028
30
0.0
11
0.239001
21
1.182972
31
0.0
0
LINE
8
FRONT
10
0.239001
20
1.182972
30
0.0
11
0.242153
21
1.169160
31
0.0
0
LINE
8
FRONT
10
0.242153
20
1.169160
30
0.0
11
0.246665
21
1.155731
31
0.0
0
LINE
8
FRONT
10
0.246665
20
1.155731
30
0.0
11
0.252492
21
1.142818
31
0.0
0
LINE
8
FRONT
10
0.252492
20
1.142818
30
0.0
11
0.259575
21
1.130549
31
0.0
0
LINE
8
FRONT
10
0.259575
20
1.130549
30
0.0
11
0.267845
21
1.119047
31
0.0
0
LINE
8
FRONT
10
0.267845
20
1.119047
30
0.0
11
0.277219
21
1.108425
31
0.0
0
LINE
8
FRONT
10
0.277219
20
1.108425
30
0.0
11
0.287604
21
1.098789
31
0.0
0
LINE
8
FRONT
10
0.287604
20
1.098789
30
0.0
11
0.298897
21
1.090235
31
0.0
0
LINE
8
FRONT
10
0.298897
20
1.090235
30
0.0
11
0.310985
21
1.082848
31
0.0
0
LINE
8
FRONT
10
0.310985
20
1.082848
30
0.0
11
0.323749
21
1.076701
31
0.0
0
LINE
8
FRONT
10
0.323749
20
1.076701
30
0.0
11
0.337061
21
1.071856
31
0.0
0
LINE
8
FRONT
10
0.337061
20
1.071856
30
0.0
11
0.350790
21
1.068360
31
0.0
0
LINE
8
FRONT
10
0.350790
20
1.068360
30
0.0
11
0.364798
21
1.066249
31
0.0
0
LINE
8
FRONT
10
0.364798
20
1.066249
30
0.0
11
0.378947
21
1.065543
31
0.0
0
LINE
8
LEFT
10
1.057895
20
0.323438
30
0.0
11
1.081332
21
0.323438
31
0.0
0
LINE
8
LEFT
10
1.057895
20
1.823438
30
0.0
11
1.081332
21
1.823438
31
0.0
0
LINE
8
LEFT
10
1.081332
20
1.823438
30
0.0
11
1.081332
21
0.323438
31
0.0
0
LINE
8
LEFT
10
1.057895
20
1.823438
30
0.0
11
1.057895
21
0.323438
31
0.0
0
LINE
8
LEFT_HID
6
HIDDEN
10
1.081332
20
0.323438
30
0.0
11
1.081332
21
1.823438
31
0.0
0
LINE
8
LEFT_HID
6
HIDDEN
10
1.057895
20
1.397122
30
0.0
11
1.057895
21
1.776069
31
0.0
0
LINE
8
LEFT_HID
6
HIDDEN
10
1.057895
20
1.776069
30
0.0
11
1.057895
21
1.397122
31
0.0
0
LINE
8
LEFT_HID
6
HIDDEN
10
1.057895
20
1.397122
30
0.0
11
1.081332
21
1.397122
31
0.0
0
LINE
8
LEFT_HID
6
HIDDEN
10
1.081332
20
1.397122
30
0.0
11
1.081332
21
1.776069
31
0.0
0
LINE
8
LEFT_HID
6
HIDDEN
10
1.081332
20
1.776069
30
0.0
11
1.081332
21
1.397122
31
0.0
0
LINE
8
LEFT_HID
6
HIDDEN
10
1.057895
20
1.065543
30
0.0
11
1.057895
21
1.349753
31
0.0
0
LINE
8
LEFT_HID
6
HIDDEN
10
1.057895
20
1.349753
30
0.0
11
1.057895
21
1.065543
31
0.0
0
LINE
8
LEFT_HID
6
HIDDEN
10
1.057895
20
1.065543
30
0.0
11
1.081332
21
1.065543
31
0.0
0
LINE
8
LEFT_HID
6
HIDDEN
10
1.081332
20
1.065543
30
0.0
11
1.081332
21
1.349753
31
0.0
0
LINE
8
LEFT_HID
6
HIDDEN
10
1.081332
20
1.349753
30
0.0
11
1.081332
21
1.065543
31
0.0
0
LINE
8
LEFT_HID
6
HIDDEN
10
1.081332
20
1.776069
30
0.0
11
1.057895
21
1.776069
31
0.0
0
LINE
8
LEFT_HID
6
HIDDEN
10
1.081332
20
1.349753
30
0.0
11
1.057895
21
1.349753
31
0.0
0
LINE
8
TOP
10
0.757895
20
0.023438
30
0.0
11
0.757895
21
0.000000
31
0.0
0
LINE
8
TOP
10
0.757895
20
0.000000
30
0.0
11
0.000000
21
0.000000
31
0.0
0
LINE
8
TOP
10
0.000000
20
0.023438
30
0.0
11
0.000000
21
0.000000
31
0.0
0
LINE
8
TOP
10
0.757895
20
0.023438
30
0.0
11
0.000000
21
0.023438
31
0.0
0
LINE
8
TOP_HID
6
HIDDEN
10
0.000000
20
0.000000
30
0.0
11
0.757895
21
0.000000
31
0.0
0
LINE
8
TOP_HID
6
HIDDEN
10
0.378947
20
0.023438
30
0.0
11
0.568421
21
0.023438
31
0.0
0
LINE
8
TOP_HID
6
HIDDEN
10
0.568421
20
0.023438
30
0.0
11
0.189474
21
0.023438
31
0.0
0
LINE
8
TOP_HID
6
HIDDEN
10
0.189474
20
0.023438
30
0.0
11
0.378947
21
0.023438
31
0.0
0
LINE
8
TOP_HID
6
HIDDEN
10
0.378947
20
0.000000
30
0.0
11
0.568421
21
0.000000
31
0.0
0
LINE
8
TOP_HID
6
HIDDEN
10
0.568421
20
0.000000
30
0.0
11
0.189474
21
0.000000
31
0.0
0
LINE
8
TOP_HID
6
HIDDEN
10
0.189474
20
0.000000
30
0.0
11
0.378947
21
0.000000
31
0.0
0
LINE
8
TOP_HID
6
HIDDEN
10
0.378947
20
0.023438
30
0.0
11
0.521053
21
0.023438
31
0.0
0
LINE
8
TOP_HID
6
HIDDEN
10
0.521053
20
0.023438
30
0.0
11
0.236842
21
0.023438
31
0.0
0
LINE
8
TOP_HID
6
HIDDEN
10
0.236842
20
0.023438
30
0.0
11
0.378947
21
0.023438
31
0.0
0
LINE
8
TOP_HID
6
HIDDEN
10
0.378947
20
0.000000
30
0.0
11
0.521053
21
0.000000
31
0.0
0
LINE
8
TOP_HID
6
HIDDEN
10
0.521053
20
0.000000
30
0.0
11
0.236842
21
0.000000
31
0.0
0
LINE
8
TOP_HID
6
HIDDEN
10
0.236842
20
0.000000
30
0.0
11
0.378947
21
0.000000
31
0.0
0
LINE
8
TOP_HID
6
HIDDEN
10
0.568421
20
0.000000
30
0.0
11
0.568421
21
0.023438
31
0.0
0
LINE
8
TOP_HID
6
HIDDEN
10
0.189474
20
0.000000
30
0.0
11
0.189474
21
0.023438
31
0.0
0
LINE
8
TOP_HID
6
HIDDEN
10
0.521053
20
0.000000
30
0.0
11
0.521053
21
0.023438
31
0.0
0
LINE
8
TOP_HID
6
HIDDEN
10
0.236842
20
0.000000
30
0.0
11
0.236842
21
0.023438
31
0.0
0
ENDSEC
0
EOF
