0
SECTION
2
HEADER
9
$ACADVER
1
AC1009
0
ENDSEC
0
SECTION
2
TABLES
0
TABLE
2
LTYPE
70
3
0
LTYPE
2
CONTINUOUS
70
0
3
Solid line
72
65
73
0
40
0.0
0
LTYPE
2
HIDDEN
70
0
3
__ __ __ __ __
72
65
73
2
40
0.075000
49
0.050025
49
-0.024975
0
LTYPE
2
CENTER
70
0
3
___ _ ___ _ ___
72
65
73
4
40
0.174975
49
0.099975
49
-0.024975
49
0.024975
49
-0.024975
0
ENDTAB
0
TABLE
2
LAYER
70
6
0
LAYER
2
0
70
0
62
7
6
CONTINUOUS
0
LAYER
2
FRONT
70
0
62
7
6
CONTINUOUS
0
LAYER
2
FRONT_HID
70
0
62
7
6
HIDDEN
0
LAYER
2
LEFT
70
0
62
7
6
CONTINUOUS
0
LAYER
2
LEFT_HID
70
0
62
7
6
HIDDEN
0
LAYER
2
TOP
70
0
62
7
6
CONTINUOUS
0
ENDTAB
0
ENDSEC
0
SECTION
2
ENTITIES
0
LINE
8
FRONT
10
1.500000
20
1.421053
30
0.0
11
1.500000
21
1.608553
31
0.0
0
LINE
8
FRONT
10
1.500000
20
1.608553
30
0.0
11
0.000000
21
1.608553
31
0.0
0
LINE
8
FRONT
10
0.000000
20
1.421053
30
0.0
11
0.000000
21
1.608553
31
0.0
0
LINE
8
FRONT
10
1.500000
20
1.421053
30
0.0
11
0.000000
21
1.421053
31
0.0
0
LINE
8
FRONT_HID
6
HIDDEN
10
1.136842
20
1.421053
30
0.0
11
0.378947
21
1.421053
31
0.0
0
LINE
8
FRONT_HID
6
HIDDEN
10
0.378947
20
1.421053
30
0.0
11
1.136842
21
1.421053
31
0.0
0
LINE
8
FRONT_HID
6
HIDDEN
10
1.136842
20
1.421053
30
0.0
11
1.136842
21
1.608553
31
0.0
0
LINE
8
FRONT_HID
6
HIDDEN
10
1.136842
20
1.608553
30
0.0
11
0.378947
21
1.608553
31
0.0
0
LINE
8
FRONT_HID
6
HIDDEN
10
0.378947
20
1.608553
30
0.0
11
1.136842
21
1.608553
31
0.0
0
LINE
8
FRONT_HID
6
HIDDEN
10
0.378947
20
1.608553
30
0.0
11
0.378947
21
1.421053
31
0.0
0
LINE
8
LEFT
10
2.921053
20
1.421053
30
0.0
11
2.921053
21
1.608553
31
0.0
0
LINE
8
LEFT
10
1.800000
20
1.421053
30
0.0
11
1.800000
21
1.608553
31
0.0
0
LINE
8
LEFT
10
1.800000
20
1.608553
30
0.0
11
2.921053
21
1.608553
31
0.0
0
LINE
8
LEFT
10
1.800000
20
1.421053
30
0.0
11
2.921053
21
1.421053
31
0.0
0
LINE
8
LEFT_HID
6
HIDDEN
10
2.352632
20
1.421053
30
0.0
11
1.973684
21
1.421053
31
0.0
0
LINE
8
LEFT_HID
6
HIDDEN
10
1.973684
20
1.421053
30
0.0
11
2.731579
21
1.421053
31
0.0
0
LINE
8
LEFT_HID
6
HIDDEN
10
2.731579
20
1.421053
30
0.0
11
2.352632
21
1.421053
31
0.0
0
LINE
8
LEFT_HID
6
HIDDEN
10
2.352632
20
1.608553
30
0.0
11
1.973684
21
1.608553
31
0.0
0
LINE
8
LEFT_HID
6
HIDDEN
10
1.973684
20
1.608553
30
0.0
11
2.731579
21
1.608553
31
0.0
0
LINE
8
LEFT_HID
6
HIDDEN
10
2.731579
20
1.608553
30
0.0
11
2.352632
21
1.608553
31
0.0
0
LINE
8
LEFT_HID
6
HIDDEN
10
1.973684
20
1.608553
30
0.0
11
1.973684
21
1.421053
31
0.0
0
LINE
8
LEFT_HID
6
HIDDEN
10
2.731579
20
1.608553
30
0.0
11
2.731579
21
1.421053
31
0.0
0
LINE
8
TOP
10
0.000000
20
0.000000
30
0.0
11
1.500000
21
0.000000
31
0.0
0
LINE
8
TOP
10
1.500000
20
0.000000
30
0.0
11
1.500000
21
1.121053
31
0.0
0
LINE
8
TOP
10
1.500000
20
1.121053
30
0.0
11
0.000000
21
1.121053
31
0.0
0
LINE
8
TOP
10
0.000000
20
1.121053
30
0.0
11
0.000000
21
0.000000
31
0.0
0
LINE
8
TOP
10
1.136842
20
0.568421
30
0.0
11
1.134959
21
0.606152
31
0.0
0
LINE
8
TOP
10
1.134959
20
0.606152
30
0.0
11
1.129329
21
0.643508
31
0.0
0
LINE
8
TOP
10
1.129329
20
0.643508
30
0.0
11
1.120007
21
0.680118
31
0.0
0
LINE
8
TOP
10
1.120007
20
0.680118
30
0.0
11
1.107086
21
0.715617
31
0.0
0
LINE
8
TOP
10
1.107086
20
0.715617
30
0.0
11
1.090694
21
0.749654
31
0.0
0
LINE
8
TOP
10
1.090694
20
0.749654
30
0.0
11
1.070996
21
0.781890
31
0.0
0
LINE
8
TOP
10
1.070996
20
0.781890
30
0.0
11
1.048185
21
0.812004
31
0.0
0
LINE
8
TOP
10
1.048185
20
0.812004
30
0.0
11
1.022490
21
0.839697
31
0.0
0
LINE
8
TOP
10
1.022490
20
0.839697
30
0.0
11
0.994165
21
0.864694
31
0.0
0
LINE
8
TOP
10
0.994165
20
0.864694
30
0.0
11
0.963491
21
0.886747
31
0.0
0
LINE
8
TOP
10
0.963491
20
0.886747
30
0.0
11
0.930775
21
0.905636
31
0.0
0
LINE
8
TOP
10
0.930775
20
0.905636
30
0.0
11
0.896340
21
0.921173
31
0.0
0
LINE
8
TOP
10
0.896340
20
0.921173
30
0.0
11
0.860529
21
0.933205
31
0.0
0
LINE
8
TOP
10
0.860529
20
0.933205
30
0.0
11
0.823698
21
0.941611
31
0.0
0
LINE
8
TOP
10
0.823698
20
0.941611
30
0.0
11
0.786214
21
0.946309
31
0.0
0
LINE
8
TOP
10
0.786214
20
0.946309
30
0.0
11
0.748447
21
0.947251
31
0.0
0
LINE
8
TOP
10
0.748447
20
0.947251
30
0.0
11
0.710775
21
0.944427
31
0.0
0
LINE
8
TOP
10
0.710775
20
0.944427
30
0.0
11
0.673571
21
0.937867
31
0.0
0
LINE
8
TOP
10
0.673571
20
0.937867
30
0.0
11
0.637205
21
0.927636
31
0.0
0
LINE
8
TOP
10
0.637205
20
0.927636
30
0.0
11
0.602039
21
0.913834
31
0.0
0
LINE
8
TOP
10
0.602039
20
0.913834
30
0.0
11
0.568421
21
0.896599
31
0.0
0
LINE
8
TOP
10
0.568421
20
0.896599
30
0.0
11
0.536687
21
0.876103
31
0.0
0
LINE
8
TOP
10
0.536687
20
0.876103
30
0.0
11
0.507151
21
0.852549
31
0.0
0
LINE
8
TOP
10
0.507151
20
0.852549
30
0.0
11
0.480107
21
0.826171
31
0.0
0
LINE
8
TOP
10
0.480107
20
0.826171
30
0.0
11
0.455823
21
0.797231
31
0.0
0
LINE
8
TOP
10
0.455823
20
0.797231
30
0.0
11
0.434542
21
0.766018
31
0.0
0
LINE
8
TOP
10
0.434542
20
0.766018
30
0.0
11
0.416475
21
0.732840
31
0.0
0
LINE
8
TOP
10
0.416475
20
0.732840
30
0.0
11
0.401801
21
0.698029
31
0.0
0
LINE
8
TOP
10
0.401801
20
0.698029
30
0.0
11
0.390665
21
0.661929
31
0.0
0
LINE
8
TOP
10
0.390665
20
0.661929
30
0.0
11
0.383180
21
0.624900
31
0.0
0
LINE
8
TOP
10
0.383180
20
0.624900
30
0.0
11
0.379418
21
0.587310
31
0.0
0
LINE
8
TOP
10
0.379418
20
0.587310
30
0.0
11
0.379418
21
0.549532
31
0.0
0
LINE
8
TOP
10
0.379418
20
0.549532
30
0.0
11
0.383180
21
0.511942
31
0.0
0
LINE
8
TOP
10
0.383180
20
0.511942
30
0.0
11
0.390665
21
0.474913
31
0.0
0
LINE
8
TOP
10
0.390665
20
0.474913
30
0.0
11
0.401801
21
0.438813
31
0.0
0
LINE
8
TOP
10
0.401801
20
0.438813
30
0.0
11
0.416475
21
0.404002
31
0.0
0
LINE
8
TOP
10
0.416475
20
0.404002
30
0.0
11
0.434542
21
0.370825
31
0.0
0
LINE
8
TOP
10
0.434542
20
0.370825
30
0.0
11
0.455823
21
0.339611
31
0.0
0
LINE
8
TOP
10
0.455823
20
0.339611
30
0.0
11
0.480107
21
0.310671
31
0.0
0
LINE
8
TOP
10
0.480107
20
0.310671
30
0.0
11
0.507151
21
0.284293
31
0.0
0
LINE
8
TOP
10
0.507151
20
0.284293
30
0.0
11
0.536687
21
0.260739
31
0.0
0
LINE
8
TOP
10
0.536687
20
0.260739
30
0.0
11
0.568421
21
0.240243
31
0.0
0
LINE
8
TOP
10
0.568421
20
0.240243
30
0.0
11
0.602039
21
0.223008
31
0.0
0
LINE
8
TOP
10
0.602039
20
0.223008
30
0.0
11
0.637205
21
0.209206
31
0.0
0
LINE
8
TOP
10
0.637205
20
0.209206
30
0.0
11
0.673571
21
0.198975
31
0.0
0
LINE
8
TOP
10
0.673571
20
0.198975
30
0.0
11
0.710775
21
0.192415
31
0.0
0
LINE
8
TOP
10
0.710775
20
0.192415
30
0.0
11
0.748447
21
0.189591
31
0.0
0
LINE
8
TOP
10
0.748447
20
0.189591
30
0.0
11
0.786214
21
0.190533
31
0.0
0
LINE
8
TOP
10
0.786214
20
0.190533
30
0.0
11
0.823698
21
0.195231
31
0.0
0
LINE
8
TOP
10
0.823698
20
0.195231
30
0.0
11
0.860529
21
0.203637
31
0.0
0
LINE
8
TOP
10
0.860529
20
0.203637
30
0.0
11
0.896340
21
0.215669
31
0.0
0
LINE
8
TOP
10
0.896340
20
0.215669
30
0.0
11
0.930775
21
0.231206
31
0.0
0
LINE
8
TOP
10
0.930775
20
0.231206
30
0.0
11
0.963491
21
0.250095
31
0.0
0
LINE
8
TOP
10
0.963491
20
0.250095
30
0.0
11
0.994165
21
0.272148
31
0.0
0
LINE
8
TOP
10
0.994165
20
0.272148
30
0.0
11
1.022490
21
0.297145
31
0.0
0
LINE
8
TOP
10
1.022490
20
0.297145
30
0.0
11
1.048185
21
0.324838
31
0.0
0
LINE
8
TOP
10
1.048185
20
0.324838
30
0.0
11
1.070996
21
0.354952
31
0.0
0
LINE
8
TOP
10
1.070996
20
0.354952
30
0.0
11
1.090694
21
0.387188
31
0.0
0
LINE
8
TOP
10
1.090694
20
0.387188
30
0.0
11
1.107086
21
0.421225
31
0.0
0
LINE
8
TOP
10
1.107086
20
0.421225
30
0.0
11
1.120007
21
0.456724
31
0.0
0
LINE
8
TOP
10
1.120007
20
0.456724
30
0.0
11
1.129329
21
0.493334
31
0.0
0
LINE
8
TOP
10
1.129329
20
0.493334
30
0.0
11
1.134959
21
0.530690
31
0.0
0
LINE
8
TOP
10
1.134959
20
0.530690
30
0.0
11
1.136842
21
0.568421
31
0.0
0
ENDSEC
0
EOF
