0
SECTION
2
HEADER
9
$ACADVER
1
AC1009
0
ENDSEC
0
SECTION
2
TABLES
0
TABLE
2
LTYPE
70
3
0
LTYPE
2
CONTINUOUS
70
0
3
Solid line
72
65
73
0
40
0.0
0
LTYPE
2
HIDDEN
70
0
3
__ __ __ __ __
72
65
73
2
40
0.047383
49
0.031604
49
-0.015778
0
LTYPE
2
CENTER
70
0
3
___ _ ___ _ ___
72
65
73
4
40
0.110544
49
0.063161
49
-0.015778
49
0.015778
49
-0.015778
0
ENDTAB
0
TABLE
2
LAYER
70
7
0
LAYER
2
0
70
0
62
7
6
CONTINUOUS
0
LAYER
2
FRONT
70
0
62
7
6
CONTINUOUS
0
LAYER
2
FRONT_HID
70
0
62
7
6
HIDDEN
0
LAYER
2
LEFT
70
0
62
7
6
CONTINUOUS
0
LAYER
2
LEFT_HID
70
0
62
7
6
HIDDEN
0
LAYER
2
TOP
70
0
62
7
6
CONTINUOUS
0
LAYER
2
TOP_HID
70
0
62
7
6
HIDDEN
0
ENDTAB
0
ENDSEC
0
SECTION
2
ENTITIES
0
LINE
8
FRONT
10
0.323460
20
0.774070
30
0.0
11
0.328983
21
0.769228
31
0.0
0
LINE
8
FRONT
10
0.328983
20
0.769228
30
0.0
11
0.334324
21
0.764186
31
0.0
0
LINE
8
FRONT
10
0.334324
20
0.764186
30
0.0
11
0.339475
21
0.758951
31
0.0
0
LINE
8
FRONT
10
0.339475
20
0.758951
30
0.0
11
0.344430
21
0.753530
31
0.0
0
LINE
8
FRONT
10
0.344430
20
0.753530
30
0.0
11
0.349181
21
0.747929
31
0.0
0
LINE
8
FRONT
10
0.349181
20
0.747929
30
0.0
11
0.353724
21
0.742157
31
0.0
0
LINE
8
FRONT
10
0.353724
20
0.742157
30
0.0
11
0.358050
21
0.736222
31
0.0
0
LINE
8
FRONT
10
0.358050
20
0.736222
30
0.0
11
0.362155
21
0.730132
31
0.0
0
LINE
8
FRONT
10
0.362155
20
0.730132
30
0.0
11
0.366032
21
0.723894
31
0.0
0
LINE
8
FRONT
10
0.366032
20
0.723894
30
0.0
11
0.369677
21
0.717518
31
0.0
0
LINE
8
FRONT
10
0.369677
20
0.717518
30
0.0
11
0.373085
21
0.711012
31
0.0
0
LINE
8
FRONT
10
0.373085
20
0.711012
30
0.0
11
0.376251
21
0.704384
31
0.0
0
LINE
8
FRONT
10
0.376251
20
0.704384
30
0.0
11
0.379170
21
0.697645
31
0.0
0
LINE
8
FRONT
10
0.379170
20
0.697645
30
0.0
11
0.381839
21
0.690802
31
0.0
0
LINE
8
FRONT
10
0.381839
20
0.690802
30
0.0
11
0.384254
21
0.683866
31
0.0
0
LINE
8
FRONT
10
0.384254
20
0.683866
30
0.0
11
0.386412
21
0.676846
31
0.0
0
LINE
8
FRONT
10
0.386412
20
0.676846
30
0.0
11
0.388310
21
0.669751
31
0.0
0
LINE
8
FRONT
10
0.388310
20
0.669751
30
0.0
11
0.389945
21
0.662590
31
0.0
0
LINE
8
FRONT
10
0.389945
20
0.662590
30
0.0
11
0.391315
21
0.655375
31
0.0
0
LINE
8
FRONT
10
0.391315
20
0.655375
30
0.0
11
0.392418
21
0.648113
31
0.0
0
LINE
8
FRONT
10
0.392418
20
0.648113
30
0.0
11
0.393253
21
0.640816
31
0.0
0
LINE
8
FRONT
10
0.393253
20
0.640816
30
0.0
11
0.393819
21
0.633494
31
0.0
0
LINE
8
FRONT
10
0.393819
20
0.633494
30
0.0
11
0.394114
21
0.626155
31
0.0
0
LINE
8
FRONT
10
0.394114
20
0.626155
30
0.0
11
0.394139
21
0.618810
31
0.0
0
LINE
8
FRONT
10
0.394139
20
0.618810
30
0.0
11
0.393893
21
0.611470
31
0.0
0
LINE
8
FRONT
10
0.393893
20
0.611470
30
0.0
11
0.393377
21
0.604143
31
0.0
0
LINE
8
FRONT
10
0.393377
20
0.604143
30
0.0
11
0.392591
21
0.596841
31
0.0
0
LINE
8
FRONT
10
0.392591
20
0.596841
30
0.0
11
0.391537
21
0.589572
31
0.0
0
LINE
8
FRONT
10
0.391537
20
0.589572
30
0.0
11
0.390216
21
0.582348
31
0.0
0
LINE
8
FRONT
10
0.390216
20
0.582348
30
0.0
11
0.388629
21
0.575176
31
0.0
0
LINE
8
FRONT
10
0.388629
20
0.575176
30
0.0
11
0.386779
21
0.568068
31
0.0
0
LINE
8
FRONT
10
0.386779
20
0.568068
30
0.0
11
0.384669
21
0.561034
31
0.0
0
LINE
8
FRONT
10
0.384669
20
0.561034
30
0.0
11
0.382301
21
0.554081
31
0.0
0
LINE
8
FRONT
10
0.382301
20
0.554081
30
0.0
11
0.379678
21
0.547221
31
0.0
0
LINE
8
FRONT
10
0.379678
20
0.547221
30
0.0
11
0.376804
21
0.540462
31
0.0
0
LINE
8
FRONT
10
0.376804
20
0.540462
30
0.0
11
0.373683
21
0.533813
31
0.0
0
LINE
8
FRONT
10
0.373683
20
0.533813
30
0.0
11
0.370319
21
0.527284
31
0.0
0
LINE
8
FRONT
10
0.370319
20
0.527284
30
0.0
11
0.366717
21
0.520884
31
0.0
0
LINE
8
FRONT
10
0.366717
20
0.520884
30
0.0
11
0.362882
21
0.514620
31
0.0
0
LINE
8
FRONT
10
0.362882
20
0.514620
30
0.0
11
0.358818
21
0.508502
31
0.0
0
LINE
8
FRONT
10
0.358818
20
0.508502
30
0.0
11
0.354532
21
0.502538
31
0.0
0
LINE
8
FRONT
10
0.354532
20
0.502538
30
0.0
11
0.350029
21
0.496735
31
0.0
0
LINE
8
FRONT
10
0.350029
20
0.496735
30
0.0
11
0.345315
21
0.491103
31
0.0
0
LINE
8
FRONT
10
0.345315
20
0.491103
30
0.0
11
0.340397
21
0.485648
31
0.0
0
LINE
8
FRONT
10
0.340397
20
0.485648
30
0.0
11
0.335281
21
0.480378
31
0.0
0
LINE
8
FRONT
10
0.335281
20
0.480378
30
0.0
11
0.329975
21
0.475301
31
0.0
0
LINE
8
FRONT
10
0.329975
20
0.475301
30
0.0
11
0.324485
21
0.470422
31
0.0
0
LINE
8
FRONT
10
0.324485
20
0.470422
30
0.0
11
0.318819
21
0.465748
31
0.0
0
LINE
8
FRONT
10
0.318819
20
0.465748
30
0.0
11
0.312985
21
0.461287
31
0.0
0
LINE
8
FRONT
10
0.312985
20
0.461287
30
0.0
11
0.306990
21
0.457044
31
0.0
0
LINE
8
FRONT
10
0.306990
20
0.457044
30
0.0
11
0.300843
21
0.453024
31
0.0
0
LINE
8
FRONT
10
0.300843
20
0.453024
30
0.0
11
0.294552
21
0.449234
31
0.0
0
LINE
8
FRONT
10
0.294552
20
0.449234
30
0.0
11
0.288125
21
0.445678
31
0.0
0
LINE
8
FRONT
10
0.288125
20
0.445678
30
0.0
11
0.281572
21
0.442361
31
0.0
0
LINE
8
FRONT
10
0.281572
20
0.442361
30
0.0
11
0.274901
21
0.439288
31
0.0
0
LINE
8
FRONT
10
0.274901
20
0.439288
30
0.0
11
0.268122
21
0.436463
31
0.0
0
LINE
8
FRONT
10
0.268122
20
0.436463
30
0.0
11
0.261243
21
0.433889
31
0.0
0
LINE
8
FRONT
10
0.261243
20
0.433889
30
0.0
11
0.254274
21
0.431571
31
0.0
0
LINE
8
FRONT
10
0.254274
20
0.431571
30
0.0
11
0.247224
21
0.429511
31
0.0
0
LINE
8
FRONT
10
0.247224
20
0.429511
30
0.0
11
0.240103
21
0.427712
31
0.0
0
LINE
8
FRONT
10
0.240103
20
0.427712
30
0.0
11
0.232921
21
0.426177
31
0.0
0
LINE
8
FRONT
10
0.232921
20
0.426177
30
0.0
11
0.225687
21
0.424907
31
0.0
0
LINE
8
FRONT
10
0.225687
20
0.424907
30
0.0
11
0.218411
21
0.423905
31
0.0
0
LINE
8
FRONT
10
0.218411
20
0.423905
30
0.0
11
0.734776
21
0.423905
31
0.0
0
LINE
8
FRONT
10
0.734776
20
0.423905
30
0.0
11
0.731461
21
0.424213
31
0.0
0
LINE
8
FRONT
10
0.731461
20
0.424213
30
0.0
11
0.728153
21
0.424577
31
0.0
0
LINE
8
FRONT
10
0.728153
20
0.424577
30
0.0
11
0.724850
21
0.424995
31
0.0
0
LINE
8
FRONT
10
0.724850
20
0.424995
30
0.0
11
0.721556
21
0.425469
31
0.0
0
LINE
8
FRONT
10
0.721556
20
0.425469
30
0.0
11
0.718269
21
0.425997
31
0.0
0
LINE
8
FRONT
10
0.718269
20
0.425997
30
0.0
11
0.714992
21
0.426580
31
0.0
0
LINE
8
FRONT
10
0.714992
20
0.426580
30
0.0
11
0.711725
21
0.427218
31
0.0
0
LINE
8
FRONT
10
0.711725
20
0.427218
30
0.0
11
0.708469
21
0.427911
31
0.0
0
LINE
8
FRONT
10
0.708469
20
0.427911
30
0.0
11
0.705225
21
0.428657
31
0.0
0
LINE
8
FRONT
10
0.705225
20
0.428657
30
0.0
11
0.701994
21
0.429458
31
0.0
0
LINE
8
FRONT
10
0.701994
20
0.429458
30
0.0
11
0.698777
21
0.430313
31
0.0
0
LINE
8
FRONT
10
0.698777
20
0.430313
30
0.0
11
0.695575
21
0.431221
31
0.0
0
LINE
8
FRONT
10
0.695575
20
0.431221
30
0.0
11
0.692388
21
0.432182
31
0.0
0
LINE
8
FRONT
10
0.692388
20
0.432182
30
0.0
11
0.689218
21
0.433197
31
0.0
0
LINE
8
FRONT
10
0.689218
20
0.433197
30
0.0
11
0.686065
21
0.434264
31
0.0
0
LINE
8
FRONT
10
0.686065
20
0.434264
30
0.0
11
0.682930
21
0.435384
31
0.0
0
LINE
8
FRONT
10
0.682930
20
0.435384
30
0.0
11
0.679815
21
0.436556
31
0.0
0
LINE
8
FRONT
10
0.679815
20
0.436556
30
0.0
11
0.676719
21
0.437780
31
0.0
0
LINE
8
FRONT
10
0.676719
20
0.437780
30
0.0
11
0.673645
21
0.439055
31
0.0
0
LINE
8
FRONT
10
0.673645
20
0.439055
30
0.0
11
0.670592
21
0.440382
31
0.0
0
LINE
8
FRONT
10
0.670592
20
0.440382
30
0.0
11
0.667561
21
0.441759
31
0.0
0
LINE
8
FRONT
10
0.667561
20
0.441759
30
0.0
11
0.664554
21
0.443187
31
0.0
0
LINE
8
FRONT
10
0.664554
20
0.443187
30
0.0
11
0.661572
21
0.444665
31
0.0
0
LINE
8
FRONT
10
0.661572
20
0.444665
30
0.0
11
0.658614
21
0.446192
31
0.0
0
LINE
8
FRONT
10
0.658614
20
0.446192
30
0.0
11
0.655683
21
0.447769
31
0.0
0
LINE
8
FRONT
10
0.655683
20
0.447769
30
0.0
11
0.652778
21
0.449394
31
0.0
0
LINE
8
FRONT
10
0.652778
20
0.449394
30
0.0
11
0.649900
21
0.451067
31
0.0
0
LINE
8
FRONT
10
0.649900
20
0.451067
30
0.0
11
0.647051
21
0.452789
31
0.0
0
LINE
8
FRONT
10
0.647051
20
0.452789
30
0.0
11
0.644231
21
0.454557
31
0.0
0
LINE
8
FRONT
10
0.644231
20
0.454557
30
0.0
11
0.641441
21
0.456373
31
0.0
0
LINE
8
FRONT
10
0.641441
20
0.456373
30
0.0
11
0.638682
21
0.458235
31
0.0
0
LINE
8
FRONT
10
0.638682
20
0.458235
30
0.0
11
0.635954
21
0.460142
31
0.0
0
LINE
8
FRONT
10
0.635954
20
0.460142
30
0.0
11
0.633259
21
0.462095
31
0.0
0
LINE
8
FRONT
10
0.633259
20
0.462095
30
0.0
11
0.630596
21
0.464093
31
0.0
0
LINE
8
FRONT
10
0.630596
20
0.464093
30
0.0
11
0.627967
21
0.466135
31
0.0
0
LINE
8
FRONT
10
0.627967
20
0.466135
30
0.0
11
0.625373
21
0.468220
31
0.0
0
LINE
8
FRONT
10
0.625373
20
0.468220
30
0.0
11
0.622813
21
0.470349
31
0.0
0
LINE
8
FRONT
10
0.622813
20
0.470349
30
0.0
11
0.620290
21
0.472519
31
0.0
0
LINE
8
FRONT
10
0.620290
20
0.472519
30
0.0
11
0.617803
21
0.474732
31
0.0
0
LINE
8
FRONT
10
0.617803
20
0.474732
30
0.0
11
0.615354
21
0.476986
31
0.0
0
LINE
8
FRONT
10
0.615354
20
0.476986
30
0.0
11
0.612942
21
0.479281
31
0.0
0
LINE
8
FRONT
10
0.612942
20
0.479281
30
0.0
11
0.610570
21
0.481615
31
0.0
0
LINE
8
FRONT
10
0.610570
20
0.481615
30
0.0
11
0.608236
21
0.483989
31
0.0
0
LINE
8
FRONT
10
0.608236
20
0.483989
30
0.0
11
0.605942
21
0.486401
31
0.0
0
LINE
8
FRONT
10
0.605942
20
0.486401
30
0.0
11
0.603690
21
0.488851
31
0.0
0
LINE
8
FRONT
10
0.603690
20
0.488851
30
0.0
11
0.601478
21
0.491339
31
0.0
0
LINE
8
FRONT
10
0.601478
20
0.491339
30
0.0
11
0.599308
21
0.493863
31
0.0
0
LINE
8
FRONT
10
0.599308
20
0.493863
30
0.0
11
0.597180
21
0.496423
31
0.0
0
LINE
8
FRONT
10
0.597180
20
0.496423
30
0.0
11
0.595096
21
0.499019
31
0.0
0
LINE
8
FRONT
10
0.595096
20
0.499019
30
0.0
11
0.593055
21
0.501648
31
0.0
0
LINE
8
FRONT
10
0.593055
20
0.501648
30
0.0
11
0.591059
21
0.504312
31
0.0
0
LINE
8
FRONT
10
0.591059
20
0.504312
30
0.0
11
0.589107
21
0.507008
31
0.0
0
LINE
8
FRONT
10
0.589107
20
0.507008
30
0.0
11
0.587200
21
0.509737
31
0.0
0
LINE
8
FRONT
10
0.587200
20
0.509737
30
0.0
11
0.585339
21
0.512497
31
0.0
0
LINE
8
FRONT
10
0.585339
20
0.512497
30
0.0
11
0.583525
21
0.515287
31
0.0
0
LINE
8
FRONT
10
0.583525
20
0.515287
30
0.0
11
0.581757
21
0.518108
31
0.0
0
LINE
8
FRONT
10
0.581757
20
0.518108
30
0.0
11
0.580037
21
0.520958
31
0.0
0
LINE
8
FRONT
10
0.580037
20
0.520958
30
0.0
11
0.578365
21
0.523836
31
0.0
0
LINE
8
FRONT
10
0.578365
20
0.523836
30
0.0
11
0.576741
21
0.526741
31
0.0
0
LINE
8
FRONT
10
0.576741
20
0.526741
30
0.0
11
0.575165
21
0.529673
31
0.0
0
LINE
8
FRONT
10
0.575165
20
0.529673
30
0.0
11
0.573639
21
0.532632
31
0.0
0
LINE
8
FRONT
10
0.573639
20
0.532632
30
0.0
11
0.572163
21
0.535615
31
0.0
0
LINE
8
FRONT
10
0.572163
20
0.535615
30
0.0
11
0.570736
21
0.538622
31
0.0
0
LINE
8
FRONT
10
0.557233
20
0.571438
30
0.0
11
0.479430
21
0.571438
31
0.0
0
LINE
8
FRONT
10
0.479430
20
0.571438
30
0.0
11
0.476749
21
0.571128
31
0.0
0
LINE
8
FRONT
10
0.476749
20
0.571128
30
0.0
11
0.474054
21
0.570959
31
0.0
0
LINE
8
FRONT
10
0.474054
20
0.570959
30
0.0
11
0.471355
21
0.570933
31
0.0
0
LINE
8
FRONT
10
0.471355
20
0.570933
30
0.0
11
0.468657
21
0.571048
31
0.0
0
LINE
8
FRONT
10
0.468657
20
0.571048
30
0.0
11
0.465970
21
0.571305
31
0.0
0
LINE
8
FRONT
10
0.465970
20
0.571305
30
0.0
11
0.463300
21
0.571702
31
0.0
0
LINE
8
FRONT
10
0.463300
20
0.571702
30
0.0
11
0.460654
21
0.572240
31
0.0
0
LINE
8
FRONT
10
0.460654
20
0.572240
30
0.0
11
0.458040
21
0.572916
31
0.0
0
LINE
8
FRONT
10
0.458040
20
0.572916
30
0.0
11
0.455466
21
0.573728
31
0.0
0
LINE
8
FRONT
10
0.455466
20
0.573728
30
0.0
11
0.452938
21
0.574675
31
0.0
0
LINE
8
FRONT
10
0.452938
20
0.574675
30
0.0
11
0.450462
21
0.575753
31
0.0
0
LINE
8
FRONT
10
0.450462
20
0.575753
30
0.0
11
0.448048
21
0.576960
31
0.0
0
LINE
8
FRONT
10
0.448048
20
0.576960
30
0.0
11
0.445699
21
0.578292
31
0.0
0
LINE
8
FRONT
10
0.445699
20
0.578292
30
0.0
11
0.443424
21
0.579746
31
0.0
0
LINE
8
FRONT
10
0.443424
20
0.579746
30
0.0
11
0.441229
21
0.581317
31
0.0
0
LINE
8
FRONT
10
0.441229
20
0.581317
30
0.0
11
0.439119
21
0.583001
31
0.0
0
LINE
8
FRONT
10
0.439119
20
0.583001
30
0.0
11
0.437101
21
0.584794
31
0.0
0
LINE
8
FRONT
10
0.437101
20
0.584794
30
0.0
11
0.435180
21
0.586691
31
0.0
0
LINE
8
FRONT
10
0.435180
20
0.586691
30
0.0
11
0.433361
21
0.588686
31
0.0
0
LINE
8
FRONT
10
0.433361
20
0.588686
30
0.0
11
0.431650
21
0.590774
31
0.0
0
LINE
8
FRONT
10
0.431650
20
0.590774
30
0.0
11
0.430051
21
0.592949
31
0.0
0
LINE
8
FRONT
10
0.430051
20
0.592949
30
0.0
11
0.428568
21
0.595205
31
0.0
0
LINE
8
FRONT
10
0.428568
20
0.595205
30
0.0
11
0.427206
21
0.597536
31
0.0
0
LINE
8
FRONT
10
0.427206
20
0.597536
30
0.0
11
0.425968
21
0.599935
31
0.0
0
LINE
8
FRONT
10
0.425968
20
0.599935
30
0.0
11
0.424858
21
0.602396
31
0.0
0
LINE
8
FRONT
10
0.424858
20
0.602396
30
0.0
11
0.423879
21
0.604912
31
0.0
0
LINE
8
FRONT
10
0.423879
20
0.604912
30
0.0
11
0.423034
21
0.607476
31
0.0
0
LINE
8
FRONT
10
0.423034
20
0.607476
30
0.0
11
0.422325
21
0.610081
31
0.0
0
LINE
8
FRONT
10
0.422325
20
0.610081
30
0.0
11
0.421753
21
0.612720
31
0.0
0
LINE
8
FRONT
10
0.421753
20
0.612720
30
0.0
11
0.421321
21
0.615385
31
0.0
0
LINE
8
FRONT
10
0.421321
20
0.615385
30
0.0
11
0.421030
21
0.618069
31
0.0
0
LINE
8
FRONT
10
0.421030
20
0.618069
30
0.0
11
0.420880
21
0.620764
31
0.0
0
LINE
8
FRONT
10
0.420880
20
0.620764
30
0.0
11
0.420872
21
0.623464
31
0.0
0
LINE
8
FRONT
10
0.420872
20
0.623464
30
0.0
11
0.421006
21
0.626160
31
0.0
0
LINE
8
FRONT
10
0.421006
20
0.626160
30
0.0
11
0.421282
21
0.628846
31
0.0
0
LINE
8
FRONT
10
0.421282
20
0.628846
30
0.0
11
0.421699
21
0.631513
31
0.0
0
LINE
8
FRONT
10
0.421699
20
0.631513
30
0.0
11
0.422255
21
0.634155
31
0.0
0
LINE
8
FRONT
10
0.422255
20
0.634155
30
0.0
11
0.422949
21
0.636764
31
0.0
0
LINE
8
FRONT
10
0.422949
20
0.636764
30
0.0
11
0.423779
21
0.639333
31
0.0
0
LINE
8
FRONT
10
0.423779
20
0.639333
30
0.0
11
0.424744
21
0.641854
31
0.0
0
LINE
8
FRONT
10
0.424744
20
0.641854
30
0.0
11
0.425839
21
0.644322
31
0.0
0
LINE
8
FRONT
10
0.425839
20
0.644322
30
0.0
11
0.427063
21
0.646728
31
0.0
0
LINE
8
FRONT
10
0.427063
20
0.646728
30
0.0
11
0.428411
21
0.649067
31
0.0
0
LINE
8
FRONT
10
0.428411
20
0.649067
30
0.0
11
0.429881
21
0.651331
31
0.0
0
LINE
8
FRONT
10
0.429881
20
0.651331
30
0.0
11
0.431468
21
0.653516
31
0.0
0
LINE
8
FRONT
10
0.431468
20
0.653516
30
0.0
11
0.433167
21
0.655614
31
0.0
0
LINE
8
FRONT
10
0.433167
20
0.655614
30
0.0
11
0.434974
21
0.657619
31
0.0
0
LINE
8
FRONT
10
0.434974
20
0.657619
30
0.0
11
0.436884
21
0.659527
31
0.0
0
LINE
8
FRONT
10
0.436884
20
0.659527
30
0.0
11
0.438892
21
0.661332
31
0.0
0
LINE
8
FRONT
10
0.438892
20
0.661332
30
0.0
11
0.440992
21
0.663028
31
0.0
0
LINE
8
FRONT
10
0.440992
20
0.663028
30
0.0
11
0.443178
21
0.664612
31
0.0
0
LINE
8
FRONT
10
0.443178
20
0.664612
30
0.0
11
0.445444
21
0.666079
31
0.0
0
LINE
8
FRONT
10
0.445444
20
0.666079
30
0.0
11
0.447785
21
0.667425
31
0.0
0
LINE
8
FRONT
10
0.447785
20
0.667425
30
0.0
11
0.450193
21
0.668646
31
0.0
0
LINE
8
FRONT
10
0.450193
20
0.668646
30
0.0
11
0.452661
21
0.669738
31
0.0
0
LINE
8
FRONT
10
0.452661
20
0.669738
30
0.0
11
0.455184
21
0.670700
31
0.0
0
LINE
8
FRONT
10
0.455184
20
0.670700
30
0.0
11
0.457754
21
0.671527
31
0.0
0
LINE
8
FRONT
10
0.457754
20
0.671527
30
0.0
11
0.460364
21
0.672218
31
0.0
0
LINE
8
FRONT
10
0.460364
20
0.672218
30
0.0
11
0.463006
21
0.672771
31
0.0
0
LINE
8
FRONT
10
0.463006
20
0.672771
30
0.0
11
0.465674
21
0.673184
31
0.0
0
LINE
8
FRONT
10
0.465674
20
0.673184
30
0.0
11
0.468360
21
0.673457
31
0.0
0
LINE
8
FRONT
10
0.468360
20
0.673457
30
0.0
11
0.471056
21
0.673587
31
0.0
0
LINE
8
FRONT
10
0.471056
20
0.673587
30
0.0
11
0.473756
21
0.673576
31
0.0
0
LINE
8
FRONT
10
0.473756
20
0.673576
30
0.0
11
0.555330
21
0.673576
31
0.0
0
LINE
8
FRONT
10
0.642785
20
0.789524
30
0.0
11
0.644095
21
0.790370
31
0.0
0
LINE
8
FRONT
10
0.644095
20
0.790370
30
0.0
11
0.645412
21
0.791206
31
0.0
0
LINE
8
FRONT
10
0.645412
20
0.791206
30
0.0
11
0.646735
21
0.792031
31
0.0
0
LINE
8
FRONT
10
0.646735
20
0.792031
30
0.0
11
0.648065
21
0.792846
31
0.0
0
LINE
8
FRONT
10
0.648065
20
0.792846
30
0.0
11
0.649401
21
0.793650
31
0.0
0
LINE
8
FRONT
10
0.649401
20
0.793650
30
0.0
11
0.650743
21
0.794444
31
0.0
0
LINE
8
FRONT
10
0.650743
20
0.794444
30
0.0
11
0.652092
21
0.795228
31
0.0
0
LINE
8
FRONT
10
0.652092
20
0.795228
30
0.0
11
0.653446
21
0.796001
31
0.0
0
LINE
8
FRONT
10
0.653446
20
0.796001
30
0.0
11
0.654807
21
0.796763
31
0.0
0
LINE
8
FRONT
10
0.654807
20
0.796763
30
0.0
11
0.656174
21
0.797514
31
0.0
0
LINE
8
FRONT
10
0.656174
20
0.797514
30
0.0
11
0.657546
21
0.798255
31
0.0
0
LINE
8
FRONT
10
0.657546
20
0.798255
30
0.0
11
0.658924
21
0.798985
31
0.0
0
LINE
8
FRONT
10
0.658924
20
0.798985
30
0.0
11
0.660308
21
0.799705
31
0.0
0
LINE
8
FRONT
10
0.660308
20
0.799705
30
0.0
11
0.661697
21
0.800413
31
0.0
0
LINE
8
FRONT
10
0.661697
20
0.800413
30
0.0
11
0.663092
21
0.801111
31
0.0
0
LINE
8
FRONT
10
0.663092
20
0.801111
30
0.0
11
0.664492
21
0.801797
31
0.0
0
LINE
8
FRONT
10
0.664492
20
0.801797
30
0.0
11
0.665898
21
0.802473
31
0.0
0
LINE
8
FRONT
10
0.665898
20
0.802473
30
0.0
11
0.667309
21
0.803138
31
0.0
0
LINE
8
FRONT
10
0.667309
20
0.803138
30
0.0
11
0.668725
21
0.803791
31
0.0
0
LINE
8
FRONT
10
0.668725
20
0.803791
30
0.0
11
0.670146
21
0.804434
31
0.0
0
LINE
8
FRONT
10
0.670146
20
0.804434
30
0.0
11
0.671572
21
0.805065
31
0.0
0
LINE
8
FRONT
10
0.671572
20
0.805065
30
0.0
11
0.673003
21
0.805685
31
0.0
0
LINE
8
FRONT
10
0.673003
20
0.805685
30
0.0
11
0.674439
21
0.806294
31
0.0
0
LINE
8
FRONT
10
0.674439
20
0.806294
30
0.0
11
0.675879
21
0.806892
31
0.0
0
LINE
8
FRONT
10
0.675879
20
0.806892
30
0.0
11
0.677324
21
0.807479
31
0.0
0
LINE
8
FRONT
10
0.677324
20
0.807479
30
0.0
11
0.678774
21
0.808054
31
0.0
0
LINE
8
FRONT
10
0.678774
20
0.808054
30
0.0
11
0.680228
21
0.808617
31
0.0
0
LINE
8
FRONT
10
0.680228
20
0.808617
30
0.0
11
0.681687
21
0.809170
31
0.0
0
LINE
8
FRONT
10
0.681687
20
0.809170
30
0.0
11
0.683149
21
0.809711
31
0.0
0
LINE
8
FRONT
10
0.683149
20
0.809711
30
0.0
11
0.684616
21
0.810240
31
0.0
0
LINE
8
FRONT
10
0.684616
20
0.810240
30
0.0
11
0.686087
21
0.810758
31
0.0
0
LINE
8
FRONT
10
0.686087
20
0.810758
30
0.0
11
0.687563
21
0.811265
31
0.0
0
LINE
8
FRONT
10
0.687563
20
0.811265
30
0.0
11
0.689041
21
0.811760
31
0.0
0
LINE
8
FRONT
10
0.689041
20
0.811760
30
0.0
11
0.690524
21
0.812243
31
0.0
0
LINE
8
FRONT
10
0.690524
20
0.812243
30
0.0
11
0.692011
21
0.812715
31
0.0
0
LINE
8
FRONT
10
0.692011
20
0.812715
30
0.0
11
0.693501
21
0.813175
31
0.0
0
LINE
8
FRONT
10
0.693501
20
0.813175
30
0.0
11
0.694995
21
0.813623
31
0.0
0
LINE
8
FRONT
10
0.694995
20
0.813623
30
0.0
11
0.696492
21
0.814060
31
0.0
0
LINE
8
FRONT
10
0.696492
20
0.814060
30
0.0
11
0.697993
21
0.814485
31
0.0
0
LINE
8
FRONT
10
0.697993
20
0.814485
30
0.0
11
0.699496
21
0.814898
31
0.0
0
LINE
8
FRONT
10
0.699496
20
0.814898
30
0.0
11
0.701003
21
0.815299
31
0.0
0
LINE
8
FRONT
10
0.701003
20
0.815299
30
0.0
11
0.702514
21
0.815689
31
0.0
0
LINE
8
FRONT
10
0.702514
20
0.815689
30
0.0
11
0.704027
21
0.816067
31
0.0
0
LINE
8
FRONT
10
0.704027
20
0.816067
30
0.0
11
0.705543
21
0.816433
31
0.0
0
LINE
8
FRONT
10
0.705543
20
0.816433
30
0.0
11
0.707062
21
0.816787
31
0.0
0
LINE
8
FRONT
10
0.707062
20
0.816787
30
0.0
11
0.708583
21
0.817129
31
0.0
0
LINE
8
FRONT
10
0.708583
20
0.817129
30
0.0
11
0.710107
21
0.817459
31
0.0
0
LINE
8
FRONT
10
0.710107
20
0.817459
30
0.0
11
0.711634
21
0.817778
31
0.0
0
LINE
8
FRONT
10
0.711634
20
0.817778
30
0.0
11
0.713163
21
0.818084
31
0.0
0
LINE
8
FRONT
10
0.713163
20
0.818084
30
0.0
11
0.714695
21
0.818378
31
0.0
0
LINE
8
FRONT
10
0.714695
20
0.818378
30
0.0
11
0.716229
21
0.818661
31
0.0
0
LINE
8
FRONT
10
0.716229
20
0.818661
30
0.0
11
0.717765
21
0.818931
31
0.0
0
LINE
8
FRONT
10
0.717765
20
0.818931
30
0.0
11
0.719303
21
0.819190
31
0.0
0
LINE
8
FRONT
10
0.719303
20
0.819190
30
0.0
11
0.720843
21
0.819436
31
0.0
0
LINE
8
FRONT
10
0.720843
20
0.819436
30
0.0
11
0.722384
21
0.819670
31
0.0
0
LINE
8
FRONT
10
0.722384
20
0.819670
30
0.0
11
0.723928
21
0.819893
31
0.0
0
LINE
8
FRONT
10
0.723928
20
0.819893
30
0.0
11
0.725473
21
0.820103
31
0.0
0
LINE
8
FRONT
10
0.725473
20
0.820103
30
0.0
11
0.727020
21
0.820301
31
0.0
0
LINE
8
FRONT
10
0.727020
20
0.820301
30
0.0
11
0.728569
21
0.820487
31
0.0
0
LINE
8
FRONT
10
0.728569
20
0.820487
30
0.0
11
0.730119
21
0.820661
31
0.0
0
LINE
8
FRONT
10
0.730119
20
0.820661
30
0.0
11
0.731670
21
0.820822
31
0.0
0
LINE
8
FRONT
10
0.731670
20
0.820822
30
0.0
11
0.733222
21
0.820972
31
0.0
0
LINE
8
FRONT
10
0.733222
20
0.820972
30
0.0
11
0.734776
21
0.821109
31
0.0
0
LINE
8
FRONT
10
0.734776
20
0.821109
30
0.0
11
0.195713
21
0.821109
31
0.0
0
LINE
8
FRONT
10
0.220384
20
0.430484
30
0.0
11
0.227500
21
0.431507
31
0.0
0
LINE
8
FRONT
10
0.227500
20
0.431507
30
0.0
11
0.234572
21
0.432790
31
0.0
0
LINE
8
FRONT
10
0.234572
20
0.432790
30
0.0
11
0.241594
21
0.434331
31
0.0
0
LINE
8
FRONT
10
0.241594
20
0.434331
30
0.0
11
0.248553
21
0.436129
31
0.0
0
LINE
8
FRONT
10
0.248553
20
0.436129
30
0.0
11
0.255443
21
0.438180
31
0.0
0
LINE
8
FRONT
10
0.255443
20
0.438180
30
0.0
11
0.262252
21
0.440483
31
0.0
0
LINE
8
FRONT
10
0.262252
20
0.440483
30
0.0
11
0.268973
21
0.443034
31
0.0
0
LINE
8
FRONT
10
0.268973
20
0.443034
30
0.0
11
0.275595
21
0.445829
31
0.0
0
LINE
8
FRONT
10
0.275595
20
0.445829
30
0.0
11
0.282111
21
0.448865
31
0.0
0
LINE
8
FRONT
10
0.282111
20
0.448865
30
0.0
11
0.288511
21
0.452138
31
0.0
0
LINE
8
FRONT
10
0.288511
20
0.452138
30
0.0
11
0.294786
21
0.455644
31
0.0
0
LINE
8
FRONT
10
0.294786
20
0.455644
30
0.0
11
0.300929
21
0.459377
31
0.0
0
LINE
8
FRONT
10
0.300929
20
0.459377
30
0.0
11
0.306931
21
0.463332
31
0.0
0
LINE
8
FRONT
10
0.306931
20
0.463332
30
0.0
11
0.312784
21
0.467506
31
0.0
0
LINE
8
FRONT
10
0.312784
20
0.467506
30
0.0
11
0.318480
21
0.471890
31
0.0
0
LINE
8
FRONT
10
0.318480
20
0.471890
30
0.0
11
0.324011
21
0.476481
31
0.0
0
LINE
8
FRONT
10
0.324011
20
0.476481
30
0.0
11
0.329371
21
0.481271
31
0.0
0
LINE
8
FRONT
10
0.329371
20
0.481271
30
0.0
11
0.334551
21
0.486255
31
0.0
0
LINE
8
FRONT
10
0.334551
20
0.486255
30
0.0
11
0.339545
21
0.491425
31
0.0
0
LINE
8
FRONT
10
0.339545
20
0.491425
30
0.0
11
0.344347
21
0.496775
31
0.0
0
LINE
8
FRONT
10
0.344347
20
0.496775
30
0.0
11
0.348948
21
0.502297
31
0.0
0
LINE
8
FRONT
10
0.348948
20
0.502297
30
0.0
11
0.353345
21
0.507984
31
0.0
0
LINE
8
FRONT
10
0.353345
20
0.507984
30
0.0
11
0.357530
21
0.513828
31
0.0
0
LINE
8
FRONT
10
0.357530
20
0.513828
30
0.0
11
0.361498
21
0.519822
31
0.0
0
LINE
8
FRONT
10
0.361498
20
0.519822
30
0.0
11
0.365243
21
0.525957
31
0.0
0
LINE
8
FRONT
10
0.365243
20
0.525957
30
0.0
11
0.368762
21
0.532226
31
0.0
0
LINE
8
FRONT
10
0.368762
20
0.532226
30
0.0
11
0.372048
21
0.538619
31
0.0
0
LINE
8
FRONT
10
0.372048
20
0.538619
30
0.0
11
0.375097
21
0.545128
31
0.0
0
LINE
8
FRONT
10
0.375097
20
0.545128
30
0.0
11
0.377906
21
0.551745
31
0.0
0
LINE
8
FRONT
10
0.377906
20
0.551745
30
0.0
11
0.380470
21
0.558461
31
0.0
0
LINE
8
FRONT
10
0.380470
20
0.558461
30
0.0
11
0.382787
21
0.565265
31
0.0
0
LINE
8
FRONT
10
0.382787
20
0.565265
30
0.0
11
0.384852
21
0.572150
31
0.0
0
LINE
8
FRONT
10
0.384852
20
0.572150
30
0.0
11
0.386664
21
0.579107
31
0.0
0
LINE
8
FRONT
10
0.386664
20
0.579107
30
0.0
11
0.388220
21
0.586125
31
0.0
0
LINE
8
FRONT
10
0.388220
20
0.586125
30
0.0
11
0.389517
21
0.593195
31
0.0
0
LINE
8
FRONT
10
0.389517
20
0.593195
30
0.0
11
0.390554
21
0.600308
31
0.0
0
LINE
8
FRONT
10
0.390554
20
0.600308
30
0.0
11
0.391330
21
0.607454
31
0.0
0
LINE
8
FRONT
10
0.391330
20
0.607454
30
0.0
11
0.391843
21
0.614624
31
0.0
0
LINE
8
FRONT
10
0.391843
20
0.614624
30
0.0
11
0.392094
21
0.621808
31
0.0
0
LINE
8
FRONT
10
0.392094
20
0.621808
30
0.0
11
0.392080
21
0.628996
31
0.0
0
LINE
8
FRONT
10
0.392080
20
0.628996
30
0.0
11
0.391804
21
0.636179
31
0.0
0
LINE
8
FRONT
10
0.391804
20
0.636179
30
0.0
11
0.391264
21
0.643347
31
0.0
0
LINE
8
FRONT
10
0.391264
20
0.643347
30
0.0
11
0.390461
21
0.650491
31
0.0
0
LINE
8
FRONT
10
0.390461
20
0.650491
30
0.0
11
0.389398
21
0.657600
31
0.0
0
LINE
8
FRONT
10
0.389398
20
0.657600
30
0.0
11
0.388074
21
0.664665
31
0.0
0
LINE
8
FRONT
10
0.388074
20
0.664665
30
0.0
11
0.386493
21
0.671677
31
0.0
0
LINE
8
FRONT
10
0.386493
20
0.671677
30
0.0
11
0.384655
21
0.678627
31
0.0
0
LINE
8
FRONT
10
0.384655
20
0.678627
30
0.0
11
0.382564
21
0.685504
31
0.0
0
LINE
8
FRONT
10
0.382564
20
0.685504
30
0.0
11
0.380222
21
0.692300
31
0.0
0
LINE
8
FRONT
10
0.380222
20
0.692300
30
0.0
11
0.377633
21
0.699006
31
0.0
0
LINE
8
FRONT
10
0.377633
20
0.699006
30
0.0
11
0.374800
21
0.705612
31
0.0
0
LINE
8
FRONT
10
0.374800
20
0.705612
30
0.0
11
0.371726
21
0.712110
31
0.0
0
LINE
8
FRONT
10
0.371726
20
0.712110
30
0.0
11
0.368417
21
0.718491
31
0.0
0
LINE
8
FRONT
10
0.368417
20
0.718491
30
0.0
11
0.364875
21
0.724747
31
0.0
0
LINE
8
FRONT
10
0.364875
20
0.724747
30
0.0
11
0.361107
21
0.730868
31
0.0
0
LINE
8
FRONT
10
0.361107
20
0.730868
30
0.0
11
0.357117
21
0.736847
31
0.0
0
LINE
8
FRONT
10
0.357117
20
0.736847
30
0.0
11
0.352910
21
0.742676
31
0.0
0
LINE
8
FRONT
10
0.352910
20
0.742676
30
0.0
11
0.348493
21
0.748347
31
0.0
0
LINE
8
FRONT
10
0.348493
20
0.748347
30
0.0
11
0.343870
21
0.753852
31
0.0
0
LINE
8
FRONT
10
0.343870
20
0.753852
30
0.0
11
0.339049
21
0.759184
31
0.0
0
LINE
8
FRONT
10
0.339049
20
0.759184
30
0.0
11
0.334036
21
0.764335
31
0.0
0
LINE
8
FRONT
10
0.334036
20
0.764335
30
0.0
11
0.328837
21
0.769300
31
0.0
0
LINE
8
FRONT
10
0.328837
20
0.769300
30
0.0
11
0.323460
21
0.774070
31
0.0
0
LINE
8
FRONT
10
0.195713
20
0.763543
30
0.0
11
0.202579
21
0.763372
31
0.0
0
LINE
8
FRONT
10
0.202579
20
0.763372
30
0.0
11
0.209429
21
0.762859
31
0.0
0
LINE
8
FRONT
10
0.209429
20
0.762859
30
0.0
11
0.216243
21
0.762005
31
0.0
0
LINE
8
FRONT
10
0.216243
20
0.762005
30
0.0
11
0.223007
21
0.760812
31
0.0
0
LINE
8
FRONT
10
0.223007
20
0.760812
30
0.0
11
0.229703
21
0.759284
31
0.0
0
LINE
8
FRONT
10
0.229703
20
0.759284
30
0.0
11
0.236315
21
0.757424
31
0.0
0
LINE
8
FRONT
10
0.236315
20
0.757424
30
0.0
11
0.242826
21
0.755236
31
0.0
0
LINE
8
FRONT
10
0.242826
20
0.755236
30
0.0
11
0.249219
21
0.752727
31
0.0
0
LINE
8
FRONT
10
0.249219
20
0.752727
30
0.0
11
0.255479
21
0.749902
31
0.0
0
LINE
8
FRONT
10
0.255479
20
0.749902
30
0.0
11
0.261591
21
0.746769
31
0.0
0
LINE
8
FRONT
10
0.261591
20
0.746769
30
0.0
11
0.267539
21
0.743335
31
0.0
0
LINE
8
FRONT
10
0.267539
20
0.743335
30
0.0
11
0.273309
21
0.739608
31
0.0
0
LINE
8
FRONT
10
0.273309
20
0.739608
30
0.0
11
0.278885
21
0.735599
31
0.0
0
LINE
8
FRONT
10
0.278885
20
0.735599
30
0.0
11
0.284255
21
0.731317
31
0.0
0
LINE
8
FRONT
10
0.284255
20
0.731317
30
0.0
11
0.289405
21
0.726772
31
0.0
0
LINE
8
FRONT
10
0.289405
20
0.726772
30
0.0
11
0.294322
21
0.721977
31
0.0
0
LINE
8
FRONT
10
0.294322
20
0.721977
30
0.0
11
0.298993
21
0.716942
31
0.0
0
LINE
8
FRONT
10
0.298993
20
0.716942
30
0.0
11
0.303408
21
0.711680
31
0.0
0
LINE
8
FRONT
10
0.303408
20
0.711680
30
0.0
11
0.307555
21
0.706206
31
0.0
0
LINE
8
FRONT
10
0.307555
20
0.706206
30
0.0
11
0.311424
21
0.700531
31
0.0
0
LINE
8
FRONT
10
0.311424
20
0.700531
30
0.0
11
0.315006
21
0.694670
31
0.0
0
LINE
8
FRONT
10
0.315006
20
0.694670
30
0.0
11
0.318290
21
0.688638
31
0.0
0
LINE
8
FRONT
10
0.318290
20
0.688638
30
0.0
11
0.321270
21
0.682450
31
0.0
0
LINE
8
FRONT
10
0.321270
20
0.682450
30
0.0
11
0.323938
21
0.676121
31
0.0
0
LINE
8
FRONT
10
0.323938
20
0.676121
30
0.0
11
0.326287
21
0.669667
31
0.0
0
LINE
8
FRONT
10
0.326287
20
0.669667
30
0.0
11
0.328312
21
0.663104
31
0.0
0
LINE
8
FRONT
10
0.328312
20
0.663104
30
0.0
11
0.330006
21
0.656448
31
0.0
0
LINE
8
FRONT
10
0.330006
20
0.656448
30
0.0
11
0.331367
21
0.649716
31
0.0
0
LINE
8
FRONT
10
0.331367
20
0.649716
30
0.0
11
0.332391
21
0.642925
31
0.0
0
LINE
8
FRONT
10
0.332391
20
0.642925
30
0.0
11
0.333075
21
0.636091
31
0.0
0
LINE
8
FRONT
10
0.333075
20
0.636091
30
0.0
11
0.333417
21
0.629231
31
0.0
0
LINE
8
FRONT
10
0.333417
20
0.629231
30
0.0
11
0.333417
21
0.622363
31
0.0
0
LINE
8
FRONT
10
0.333417
20
0.622363
30
0.0
11
0.333075
21
0.615503
31
0.0
0
LINE
8
FRONT
10
0.333075
20
0.615503
30
0.0
11
0.332391
21
0.608669
31
0.0
0
LINE
8
FRONT
10
0.332391
20
0.608669
30
0.0
11
0.331367
21
0.601877
31
0.0
0
LINE
8
FRONT
10
0.331367
20
0.601877
30
0.0
11
0.330006
21
0.595145
31
0.0
0
LINE
8
FRONT
10
0.330006
20
0.595145
30
0.0
11
0.328312
21
0.588489
31
0.0
0
LINE
8
FRONT
10
0.328312
20
0.588489
30
0.0
11
0.326287
21
0.581926
31
0.0
0
LINE
8
FRONT
10
0.326287
20
0.581926
30
0.0
11
0.323938
21
0.575472
31
0.0
0
LINE
8
FRONT
10
0.323938
20
0.575472
30
0.0
11
0.321270
21
0.569143
31
0.0
0
LINE
8
FRONT
10
0.321270
20
0.569143
30
0.0
11
0.318290
21
0.562955
31
0.0
0
LINE
8
FRONT
10
0.318290
20
0.562955
30
0.0
11
0.315006
21
0.556923
31
0.0
0
LINE
8
FRONT
10
0.315006
20
0.556923
30
0.0
11
0.311424
21
0.551063
31
0.0
0
LINE
8
FRONT
10
0.311424
20
0.551063
30
0.0
11
0.307555
21
0.545388
31
0.0
0
LINE
8
FRONT
10
0.307555
20
0.545388
30
0.0
11
0.303408
21
0.539913
31
0.0
0
LINE
8
FRONT
10
0.303408
20
0.539913
30
0.0
11
0.298993
21
0.534652
31
0.0
0
LINE
8
FRONT
10
0.298993
20
0.534652
30
0.0
11
0.294322
21
0.529617
31
0.0
0
LINE
8
FRONT
10
0.294322
20
0.529617
30
0.0
11
0.289405
21
0.524821
31
0.0
0
LINE
8
FRONT
10
0.289405
20
0.524821
30
0.0
11
0.284255
21
0.520277
31
0.0
0
LINE
8
FRONT
10
0.284255
20
0.520277
30
0.0
11
0.278885
21
0.515994
31
0.0
0
LINE
8
FRONT
10
0.278885
20
0.515994
30
0.0
11
0.273309
21
0.511985
31
0.0
0
LINE
8
FRONT
10
0.273309
20
0.511985
30
0.0
11
0.267539
21
0.508259
31
0.0
0
LINE
8
FRONT
10
0.267539
20
0.508259
30
0.0
11
0.261591
21
0.504825
31
0.0
0
LINE
8
FRONT
10
0.261591
20
0.504825
30
0.0
11
0.255479
21
0.501691
31
0.0
0
LINE
8
FRONT
10
0.255479
20
0.501691
30
0.0
11
0.249219
21
0.498866
31
0.0
0
LINE
8
FRONT
10
0.249219
20
0.498866
30
0.0
11
0.242826
21
0.496357
31
0.0
0
LINE
8
FRONT
10
0.242826
20
0.496357
30
0.0
11
0.236315
21
0.494170
31
0.0
0
LINE
8
FRONT
10
0.236315
20
0.494170
30
0.0
11
0.229703
21
0.492310
31
0.0
0
LINE
8
FRONT
10
0.229703
20
0.492310
30
0.0
11
0.223007
21
0.490781
31
0.0
0
LINE
8
FRONT
10
0.223007
20
0.490781
30
0.0
11
0.216243
21
0.489589
31
0.0
0
LINE
8
FRONT
10
0.216243
20
0.489589
30
0.0
11
0.209429
21
0.488735
31
0.0
0
LINE
8
FRONT
10
0.209429
20
0.488735
30
0.0
11
0.202579
21
0.488221
31
0.0
0
LINE
8
FRONT
10
0.202579
20
0.488221
30
0.0
11
0.195713
21
0.488050
31
0.0
0
LINE
8
FRONT
10
0.220384
20
0.430484
30
0.0
11
0.210276
21
0.429485
31
0.0
0
LINE
8
FRONT
10
0.210276
20
0.429485
30
0.0
11
0.200128
21
0.429011
31
0.0
0
LINE
8
FRONT
10
0.200128
20
0.429011
30
0.0
11
0.189970
21
0.429063
31
0.0
0
LINE
8
FRONT
10
0.189970
20
0.429063
30
0.0
11
0.179829
21
0.429640
31
0.0
0
LINE
8
FRONT
10
0.179829
20
0.429640
30
0.0
11
0.169731
21
0.430743
31
0.0
0
LINE
8
FRONT
10
0.169731
20
0.430743
30
0.0
11
0.159703
21
0.432367
31
0.0
0
LINE
8
FRONT
10
0.159703
20
0.432367
30
0.0
11
0.149773
21
0.434508
31
0.0
0
LINE
8
FRONT
10
0.149773
20
0.434508
30
0.0
11
0.139967
21
0.437160
31
0.0
0
LINE
8
FRONT
10
0.139967
20
0.437160
30
0.0
11
0.130312
21
0.440317
31
0.0
0
LINE
8
FRONT
10
0.130312
20
0.440317
30
0.0
11
0.120833
21
0.443969
31
0.0
0
LINE
8
FRONT
10
0.120833
20
0.443969
30
0.0
11
0.111556
21
0.448108
31
0.0
0
LINE
8
FRONT
10
0.111556
20
0.448108
30
0.0
11
0.102506
21
0.452721
31
0.0
0
LINE
8
FRONT
10
0.102506
20
0.452721
30
0.0
11
0.093707
21
0.457797
31
0.0
0
LINE
8
FRONT
10
0.093707
20
0.457797
30
0.0
11
0.085183
21
0.463322
31
0.0
0
LINE
8
FRONT
10
0.085183
20
0.463322
30
0.0
11
0.076956
21
0.469281
31
0.0
0
LINE
8
FRONT
10
0.076956
20
0.469281
30
0.0
11
0.069049
21
0.475658
31
0.0
0
LINE
8
FRONT
10
0.069049
20
0.475658
30
0.0
11
0.061483
21
0.482436
31
0.0
0
LINE
8
FRONT
10
0.061483
20
0.482436
30
0.0
11
0.054278
21
0.489597
31
0.0
0
LINE
8
FRONT
10
0.054278
20
0.489597
30
0.0
11
0.047454
21
0.497121
31
0.0
0
LINE
8
FRONT
10
0.047454
20
0.497121
30
0.0
11
0.041028
21
0.504989
31
0.0
0
LINE
8
FRONT
10
0.041028
20
0.504989
30
0.0
11
0.035019
21
0.513179
31
0.0
0
LINE
8
FRONT
10
0.035019
20
0.513179
30
0.0
11
0.029441
21
0.521669
31
0.0
0
LINE
8
FRONT
10
0.029441
20
0.521669
30
0.0
11
0.024311
21
0.530436
31
0.0
0
LINE
8
FRONT
10
0.024311
20
0.530436
30
0.0
11
0.019642
21
0.539458
31
0.0
0
LINE
8
FRONT
10
0.019642
20
0.539458
30
0.0
11
0.015447
21
0.548709
31
0.0
0
LINE
8
FRONT
10
0.015447
20
0.548709
30
0.0
11
0.011736
21
0.558165
31
0.0
0
LINE
8
FRONT
10
0.011736
20
0.558165
30
0.0
11
0.008520
21
0.567801
31
0.0
0
LINE
8
FRONT
10
0.008520
20
0.567801
30
0.0
11
0.005807
21
0.577590
31
0.0
0
LINE
8
FRONT
10
0.005807
20
0.577590
30
0.0
11
0.003605
21
0.587507
31
0.0
0
LINE
8
FRONT
10
0.003605
20
0.587507
30
0.0
11
0.001919
21
0.597524
31
0.0
0
LINE
8
FRONT
10
0.001919
20
0.597524
30
0.0
11
0.000755
21
0.607615
31
0.0
0
LINE
8
FRONT
10
0.000755
20
0.607615
30
0.0
11
0.000114
21
0.617753
31
0.0
0
LINE
8
FRONT
10
0.000114
20
0.617753
30
0.0
11
0.000000
21
0.627911
31
0.0
0
LINE
8
FRONT
10
0.000000
20
0.627911
30
0.0
11
0.000412
21
0.638061
31
0.0
0
LINE
8
FRONT
10
0.000412
20
0.638061
30
0.0
11
0.001349
21
0.648175
31
0.0
0
LINE
8
FRONT
10
0.001349
20
0.648175
30
0.0
11
0.002808
21
0.658228
31
0.0
0
LINE
8
FRONT
10
0.002808
20
0.658228
30
0.0
11
0.004787
21
0.668192
31
0.0
0
LINE
8
FRONT
10
0.004787
20
0.668192
30
0.0
11
0.007278
21
0.678040
31
0.0
0
LINE
8
FRONT
10
0.007278
20
0.678040
30
0.0
11
0.010277
21
0.687745
31
0.0
0
LINE
8
FRONT
10
0.010277
20
0.687745
30
0.0
11
0.013774
21
0.697283
31
0.0
0
LINE
8
FRONT
10
0.013774
20
0.697283
30
0.0
11
0.017760
21
0.706626
31
0.0
0
LINE
8
FRONT
10
0.017760
20
0.706626
30
0.0
11
0.022225
21
0.715750
31
0.0
0
LINE
8
FRONT
10
0.022225
20
0.715750
30
0.0
11
0.027156
21
0.724631
31
0.0
0
LINE
8
FRONT
10
0.027156
20
0.724631
30
0.0
11
0.032541
21
0.733245
31
0.0
0
LINE
8
FRONT
10
0.032541
20
0.733245
30
0.0
11
0.038364
21
0.741568
31
0.0
0
LINE
8
FRONT
10
0.038364
20
0.741568
30
0.0
11
0.044611
21
0.749578
31
0.0
0
LINE
8
FRONT
10
0.044611
20
0.749578
30
0.0
11
0.051264
21
0.757254
31
0.0
0
LINE
8
FRONT
10
0.051264
20
0.757254
30
0.0
11
0.058306
21
0.764575
31
0.0
0
LINE
8
FRONT
10
0.058306
20
0.764575
30
0.0
11
0.065718
21
0.771522
31
0.0
0
LINE
8
FRONT
10
0.065718
20
0.771522
30
0.0
11
0.073479
21
0.778076
31
0.0
0
LINE
8
FRONT
10
0.073479
20
0.778076
30
0.0
11
0.081570
21
0.784218
31
0.0
0
LINE
8
FRONT
10
0.081570
20
0.784218
30
0.0
11
0.089967
21
0.789934
31
0.0
0
LINE
8
FRONT
10
0.089967
20
0.789934
30
0.0
11
0.098650
21
0.795206
31
0.0
0
LINE
8
FRONT
10
0.098650
20
0.795206
30
0.0
11
0.107594
21
0.800023
31
0.0
0
LINE
8
FRONT
10
0.107594
20
0.800023
30
0.0
11
0.116775
21
0.804369
31
0.0
0
LINE
8
FRONT
10
0.116775
20
0.804369
30
0.0
11
0.126169
21
0.808234
31
0.0
0
LINE
8
FRONT
10
0.126169
20
0.808234
30
0.0
11
0.135751
21
0.811607
31
0.0
0
LINE
8
FRONT
10
0.135751
20
0.811607
30
0.0
11
0.145495
21
0.814480
31
0.0
0
LINE
8
FRONT
10
0.145495
20
0.814480
30
0.0
11
0.155374
21
0.816844
31
0.0
0
LINE
8
FRONT
10
0.155374
20
0.816844
30
0.0
11
0.165362
21
0.818693
31
0.0
0
LINE
8
FRONT
10
0.165362
20
0.818693
30
0.0
11
0.175433
21
0.820023
31
0.0
0
LINE
8
FRONT
10
0.175433
20
0.820023
30
0.0
11
0.185559
21
0.820829
31
0.0
0
LINE
8
FRONT
10
0.185559
20
0.820829
30
0.0
11
0.195713
21
0.821109
31
0.0
0
LINE
8
FRONT
10
0.195713
20
0.763543
30
0.0
11
0.188847
21
0.763372
31
0.0
0
LINE
8
FRONT
10
0.188847
20
0.763372
30
0.0
11
0.181998
21
0.762859
31
0.0
0
LINE
8
FRONT
10
0.181998
20
0.762859
30
0.0
11
0.175183
21
0.762005
31
0.0
0
LINE
8
FRONT
10
0.175183
20
0.762005
30
0.0
11
0.168419
21
0.760812
31
0.0
0
LINE
8
FRONT
10
0.168419
20
0.760812
30
0.0
11
0.161723
21
0.759284
31
0.0
0
LINE
8
FRONT
10
0.161723
20
0.759284
30
0.0
11
0.155112
21
0.757424
31
0.0
0
LINE
8
FRONT
10
0.155112
20
0.757424
30
0.0
11
0.148601
21
0.755236
31
0.0
0
LINE
8
FRONT
10
0.148601
20
0.755236
30
0.0
11
0.142208
21
0.752727
31
0.0
0
LINE
8
FRONT
10
0.142208
20
0.752727
30
0.0
11
0.135947
21
0.749902
31
0.0
0
LINE
8
FRONT
10
0.135947
20
0.749902
30
0.0
11
0.129835
21
0.746769
31
0.0
0
LINE
8
FRONT
10
0.129835
20
0.746769
30
0.0
11
0.123887
21
0.743335
31
0.0
0
LINE
8
FRONT
10
0.123887
20
0.743335
30
0.0
11
0.118118
21
0.739608
31
0.0
0
LINE
8
FRONT
10
0.118118
20
0.739608
30
0.0
11
0.112541
21
0.735599
31
0.0
0
LINE
8
FRONT
10
0.112541
20
0.735599
30
0.0
11
0.107171
21
0.731317
31
0.0
0
LINE
8
FRONT
10
0.107171
20
0.731317
30
0.0
11
0.102022
21
0.726772
31
0.0
0
LINE
8
FRONT
10
0.102022
20
0.726772
30
0.0
11
0.097105
21
0.721977
31
0.0
0
LINE
8
FRONT
10
0.097105
20
0.721977
30
0.0
11
0.092433
21
0.716942
31
0.0
0
LINE
8
FRONT
10
0.092433
20
0.716942
30
0.0
11
0.088019
21
0.711680
31
0.0
0
LINE
8
FRONT
10
0.088019
20
0.711680
30
0.0
11
0.083872
21
0.706206
31
0.0
0
LINE
8
FRONT
10
0.083872
20
0.706206
30
0.0
11
0.080003
21
0.700531
31
0.0
0
LINE
8
FRONT
10
0.080003
20
0.700531
30
0.0
11
0.076421
21
0.694670
31
0.0
0
LINE
8
FRONT
10
0.076421
20
0.694670
30
0.0
11
0.073136
21
0.688638
31
0.0
0
LINE
8
FRONT
10
0.073136
20
0.688638
30
0.0
11
0.070156
21
0.682450
31
0.0
0
LINE
8
FRONT
10
0.070156
20
0.682450
30
0.0
11
0.067489
21
0.676121
31
0.0
0
LINE
8
FRONT
10
0.067489
20
0.676121
30
0.0
11
0.065139
21
0.669667
31
0.0
0
LINE
8
FRONT
10
0.065139
20
0.669667
30
0.0
11
0.063115
21
0.663104
31
0.0
0
LINE
8
FRONT
10
0.063115
20
0.663104
30
0.0
11
0.061420
21
0.656448
31
0.0
0
LINE
8
FRONT
10
0.061420
20
0.656448
30
0.0
11
0.060059
21
0.649716
31
0.0
0
LINE
8
FRONT
10
0.060059
20
0.649716
30
0.0
11
0.059036
21
0.642925
31
0.0
0
LINE
8
FRONT
10
0.059036
20
0.642925
30
0.0
11
0.058352
21
0.636091
31
0.0
0
LINE
8
FRONT
10
0.058352
20
0.636091
30
0.0
11
0.058009
21
0.629231
31
0.0
0
LINE
8
FRONT
10
0.058009
20
0.629231
30
0.0
11
0.058009
21
0.622363
31
0.0
0
LINE
8
FRONT
10
0.058009
20
0.622363
30
0.0
11
0.058352
21
0.615503
31
0.0
0
LINE
8
FRONT
10
0.058352
20
0.615503
30
0.0
11
0.059036
21
0.608669
31
0.0
0
LINE
8
FRONT
10
0.059036
20
0.608669
30
0.0
11
0.060059
21
0.601877
31
0.0
0
LINE
8
FRONT
10
0.060059
20
0.601877
30
0.0
11
0.061420
21
0.595145
31
0.0
0
LINE
8
FRONT
10
0.061420
20
0.595145
30
0.0
11
0.063115
21
0.588489
31
0.0
0
LINE
8
FRONT
10
0.063115
20
0.588489
30
0.0
11
0.065139
21
0.581926
31
0.0
0
LINE
8
FRONT
10
0.065139
20
0.581926
30
0.0
11
0.067489
21
0.575472
31
0.0
0
LINE
8
FRONT
10
0.067489
20
0.575472
30
0.0
11
0.070156
21
0.569143
31
0.0
0
LINE
8
FRONT
10
0.070156
20
0.569143
30
0.0
11
0.073136
21
0.562955
31
0.0
0
LINE
8
FRONT
10
0.073136
20
0.562955
30
0.0
11
0.076421
21
0.556923
31
0.0
0
LINE
8
FRONT
10
0.076421
20
0.556923
30
0.0
11
0.080003
21
0.551063
31
0.0
0
LINE
8
FRONT
10
0.080003
20
0.551063
30
0.0
11
0.083872
21
0.545388
31
0.0
0
LINE
8
FRONT
10
0.083872
20
0.545388
30
0.0
11
0.088019
21
0.539913
31
0.0
0
LINE
8
FRONT
10
0.088019
20
0.539913
30
0.0
11
0.092433
21
0.534652
31
0.0
0
LINE
8
FRONT
10
0.092433
20
0.534652
30
0.0
11
0.097105
21
0.529617
31
0.0
0
LINE
8
FRONT
10
0.097105
20
0.529617
30
0.0
11
0.102022
21
0.524821
31
0.0
0
LINE
8
FRONT
10
0.102022
20
0.524821
30
0.0
11
0.107171
21
0.520277
31
0.0
0
LINE
8
FRONT
10
0.107171
20
0.520277
30
0.0
11
0.112541
21
0.515994
31
0.0
0
LINE
8
FRONT
10
0.112541
20
0.515994
30
0.0
11
0.118118
21
0.511985
31
0.0
0
LINE
8
FRONT
10
0.118118
20
0.511985
30
0.0
11
0.123887
21
0.508259
31
0.0
0
LINE
8
FRONT
10
0.123887
20
0.508259
30
0.0
11
0.129835
21
0.504825
31
0.0
0
LINE
8
FRONT
10
0.129835
20
0.504825
30
0.0
11
0.135947
21
0.501691
31
0.0
0
LINE
8
FRONT
10
0.135947
20
0.501691
30
0.0
11
0.142208
21
0.498866
31
0.0
0
LINE
8
FRONT
10
0.142208
20
0.498866
30
0.0
11
0.148601
21
0.496357
31
0.0
0
LINE
8
FRONT
10
0.148601
20
0.496357
30
0.0
11
0.155112
21
0.494170
31
0.0
0
LINE
8
FRONT
10
0.155112
20
0.494170
30
0.0
11
0.161723
21
0.492310
31
0.0
0
LINE
8
FRONT
10
0.161723
20
0.492310
30
0.0
11
0.168419
21
0.490781
31
0.0
0
LINE
8
FRONT
10
0.168419
20
0.490781
30
0.0
11
0.175183
21
0.489589
31
0.0
0
LINE
8
FRONT
10
0.175183
20
0.489589
30
0.0
11
0.181998
21
0.488735
31
0.0
0
LINE
8
FRONT
10
0.181998
20
0.488735
30
0.0
11
0.188847
21
0.488221
31
0.0
0
LINE
8
FRONT
10
0.188847
20
0.488221
30
0.0
11
0.195713
21
0.488050
31
0.0
0
LINE
8
FRONT
10
0.726799
20
0.816751
30
0.0
11
0.725390
21
0.816626
31
0.0
0
LINE
8
FRONT
10
0.725390
20
0.816626
30
0.0
11
0.723983
21
0.816491
31
0.0
0
LINE
8
FRONT
10
0.723983
20
0.816491
30
0.0
11
0.722576
21
0.816346
31
0.0
0
LINE
8
FRONT
10
0.722576
20
0.816346
30
0.0
11
0.721170
21
0.816191
31
0.0
0
LINE
8
FRONT
10
0.721170
20
0.816191
30
0.0
11
0.719766
21
0.816026
31
0.0
0
LINE
8
FRONT
10
0.719766
20
0.816026
30
0.0
11
0.718363
21
0.815850
31
0.0
0
LINE
8
FRONT
10
0.718363
20
0.815850
30
0.0
11
0.716961
21
0.815665
31
0.0
0
LINE
8
FRONT
10
0.716961
20
0.815665
30
0.0
11
0.715560
21
0.815469
31
0.0
0
LINE
8
FRONT
10
0.715560
20
0.815469
30
0.0
11
0.714161
21
0.815262
31
0.0
0
LINE
8
FRONT
10
0.714161
20
0.815262
30
0.0
11
0.712764
21
0.815046
31
0.0
0
LINE
8
FRONT
10
0.712764
20
0.815046
30
0.0
11
0.711368
21
0.814820
31
0.0
0
LINE
8
FRONT
10
0.711368
20
0.814820
30
0.0
11
0.709974
21
0.814583
31
0.0
0
LINE
8
FRONT
10
0.709974
20
0.814583
30
0.0
11
0.708581
21
0.814336
31
0.0
0
LINE
8
FRONT
10
0.708581
20
0.814336
30
0.0
11
0.707190
21
0.814080
31
0.0
0
LINE
8
FRONT
10
0.707190
20
0.814080
30
0.0
11
0.705802
21
0.813813
31
0.0
0
LINE
8
FRONT
10
0.705802
20
0.813813
30
0.0
11
0.704415
21
0.813536
31
0.0
0
LINE
8
FRONT
10
0.704415
20
0.813536
30
0.0
11
0.703030
21
0.813249
31
0.0
0
LINE
8
FRONT
10
0.703030
20
0.813249
30
0.0
11
0.701648
21
0.812952
31
0.0
0
LINE
8
FRONT
10
0.701648
20
0.812952
30
0.0
11
0.700267
21
0.812644
31
0.0
0
LINE
8
FRONT
10
0.700267
20
0.812644
30
0.0
11
0.698889
21
0.812327
31
0.0
0
LINE
8
FRONT
10
0.698889
20
0.812327
30
0.0
11
0.697513
21
0.812000
31
0.0
0
LINE
8
FRONT
10
0.697513
20
0.812000
30
0.0
11
0.696140
21
0.811663
31
0.0
0
LINE
8
FRONT
10
0.696140
20
0.811663
30
0.0
11
0.694769
21
0.811316
31
0.0
0
LINE
8
FRONT
10
0.694769
20
0.811316
30
0.0
11
0.693401
21
0.810959
31
0.0
0
LINE
8
FRONT
10
0.693401
20
0.810959
30
0.0
11
0.692035
21
0.810592
31
0.0
0
LINE
8
FRONT
10
0.692035
20
0.810592
30
0.0
11
0.690672
21
0.810215
31
0.0
0
LINE
8
FRONT
10
0.690672
20
0.810215
30
0.0
11
0.689312
21
0.809828
31
0.0
0
LINE
8
FRONT
10
0.689312
20
0.809828
30
0.0
11
0.687954
21
0.809431
31
0.0
0
LINE
8
FRONT
10
0.687954
20
0.809431
30
0.0
11
0.686600
21
0.809025
31
0.0
0
LINE
8
FRONT
10
0.686600
20
0.809025
30
0.0
11
0.685249
21
0.808608
31
0.0
0
LINE
8
FRONT
10
0.685249
20
0.808608
30
0.0
11
0.683900
21
0.808182
31
0.0
0
LINE
8
FRONT
10
0.683900
20
0.808182
30
0.0
11
0.682555
21
0.807746
31
0.0
0
LINE
8
FRONT
10
0.682555
20
0.807746
30
0.0
11
0.681213
21
0.807301
31
0.0
0
LINE
8
FRONT
10
0.681213
20
0.807301
30
0.0
11
0.679874
21
0.806845
31
0.0
0
LINE
8
FRONT
10
0.679874
20
0.806845
30
0.0
11
0.678539
21
0.806380
31
0.0
0
LINE
8
FRONT
10
0.678539
20
0.806380
30
0.0
11
0.677207
21
0.805905
31
0.0
0
LINE
8
FRONT
10
0.677207
20
0.805905
30
0.0
11
0.675878
21
0.805420
31
0.0
0
LINE
8
FRONT
10
0.675878
20
0.805420
30
0.0
11
0.674553
21
0.804926
31
0.0
0
LINE
8
FRONT
10
0.674553
20
0.804926
30
0.0
11
0.673232
21
0.804423
31
0.0
0
LINE
8
FRONT
10
0.673232
20
0.804423
30
0.0
11
0.671914
21
0.803909
31
0.0
0
LINE
8
FRONT
10
0.671914
20
0.803909
30
0.0
11
0.670600
21
0.803386
31
0.0
0
LINE
8
FRONT
10
0.670600
20
0.803386
30
0.0
11
0.669290
21
0.802854
31
0.0
0
LINE
8
FRONT
10
0.669290
20
0.802854
30
0.0
11
0.667984
21
0.802312
31
0.0
0
LINE
8
FRONT
10
0.667984
20
0.802312
30
0.0
11
0.666682
21
0.801760
31
0.0
0
LINE
8
FRONT
10
0.666682
20
0.801760
30
0.0
11
0.665383
21
0.801199
31
0.0
0
LINE
8
FRONT
10
0.665383
20
0.801199
30
0.0
11
0.664089
21
0.800629
31
0.0
0
LINE
8
FRONT
10
0.664089
20
0.800629
30
0.0
11
0.662800
21
0.800049
31
0.0
0
LINE
8
FRONT
10
0.662800
20
0.800049
30
0.0
11
0.661514
21
0.799460
31
0.0
0
LINE
8
FRONT
10
0.661514
20
0.799460
30
0.0
11
0.660233
21
0.798862
31
0.0
0
LINE
8
FRONT
10
0.660233
20
0.798862
30
0.0
11
0.658956
21
0.798254
31
0.0
0
LINE
8
FRONT
10
0.658956
20
0.798254
30
0.0
11
0.657683
21
0.797637
31
0.0
0
LINE
8
FRONT
10
0.657683
20
0.797637
30
0.0
11
0.656415
21
0.797011
31
0.0
0
LINE
8
FRONT
10
0.656415
20
0.797011
30
0.0
11
0.655152
21
0.796376
31
0.0
0
LINE
8
FRONT
10
0.655152
20
0.796376
30
0.0
11
0.653893
21
0.795731
31
0.0
0
LINE
8
FRONT
10
0.653893
20
0.795731
30
0.0
11
0.652639
21
0.795078
31
0.0
0
LINE
8
FRONT
10
0.652639
20
0.795078
30
0.0
11
0.651390
21
0.794415
31
0.0
0
LINE
8
FRONT
10
0.651390
20
0.794415
30
0.0
11
0.650146
21
0.793743
31
0.0
0
LINE
8
FRONT
10
0.650146
20
0.793743
30
0.0
11
0.648906
21
0.793062
31
0.0
0
LINE
8
FRONT
10
0.648906
20
0.793062
30
0.0
11
0.647672
21
0.792373
31
0.0
0
LINE
8
FRONT
10
0.647672
20
0.792373
30
0.0
11
0.646442
21
0.791674
31
0.0
0
LINE
8
FRONT
10
0.646442
20
0.791674
30
0.0
11
0.645218
21
0.790966
31
0.0
0
LINE
8
FRONT
10
0.645218
20
0.790966
30
0.0
11
0.643999
21
0.790250
31
0.0
0
LINE
8
FRONT
10
0.643999
20
0.790250
30
0.0
11
0.642785
21
0.789524
31
0.0
0
LINE
8
FRONT
10
0.555330
20
0.673576
30
0.0
11
0.555088
21
0.672672
31
0.0
0
LINE
8
FRONT
10
0.555088
20
0.672672
30
0.0
11
0.742588
21
0.672672
31
0.0
0
LINE
8
FRONT
10
0.742588
20
0.672672
30
0.0
11
0.742588
21
0.816751
31
0.0
0
LINE
8
FRONT
10
0.742588
20
0.816751
30
0.0
11
0.726799
21
0.816751
31
0.0
0
LINE
8
FRONT
10
0.555088
20
0.578922
30
0.0
11
0.557233
21
0.571438
31
0.0
0
LINE
8
FRONT
10
0.742588
20
0.578922
30
0.0
11
0.555088
21
0.578922
31
0.0
0
LINE
8
FRONT
10
0.570736
20
0.538622
30
0.0
11
0.572196
21
0.535883
31
0.0
0
LINE
8
FRONT
10
0.572196
20
0.535883
30
0.0
11
0.573699
21
0.533168
31
0.0
0
LINE
8
FRONT
10
0.573699
20
0.533168
30
0.0
11
0.575245
21
0.530477
31
0.0
0
LINE
8
FRONT
10
0.575245
20
0.530477
30
0.0
11
0.576834
21
0.527810
31
0.0
0
LINE
8
FRONT
10
0.576834
20
0.527810
30
0.0
11
0.578465
21
0.525170
31
0.0
0
LINE
8
FRONT
10
0.578465
20
0.525170
30
0.0
11
0.580139
21
0.522556
31
0.0
0
LINE
8
FRONT
10
0.580139
20
0.522556
30
0.0
11
0.581853
21
0.519969
31
0.0
0
LINE
8
FRONT
10
0.581853
20
0.519969
30
0.0
11
0.583609
21
0.517409
31
0.0
0
LINE
8
FRONT
10
0.583609
20
0.517409
30
0.0
11
0.585405
21
0.514878
31
0.0
0
LINE
8
FRONT
10
0.585405
20
0.514878
30
0.0
11
0.587242
21
0.512376
31
0.0
0
LINE
8
FRONT
10
0.587242
20
0.512376
30
0.0
11
0.589118
21
0.509903
31
0.0
0
LINE
8
FRONT
10
0.589118
20
0.509903
30
0.0
11
0.591033
21
0.507461
31
0.0
0
LINE
8
FRONT
10
0.591033
20
0.507461
30
0.0
11
0.592987
21
0.505050
31
0.0
0
LINE
8
FRONT
10
0.592987
20
0.505050
30
0.0
11
0.594979
21
0.502670
31
0.0
0
LINE
8
FRONT
10
0.594979
20
0.502670
30
0.0
11
0.597009
21
0.500322
31
0.0
0
LINE
8
FRONT
10
0.597009
20
0.500322
30
0.0
11
0.599076
21
0.498006
31
0.0
0
LINE
8
FRONT
10
0.599076
20
0.498006
30
0.0
11
0.601180
21
0.495724
31
0.0
0
LINE
8
FRONT
10
0.601180
20
0.495724
30
0.0
11
0.603320
21
0.493476
31
0.0
0
LINE
8
FRONT
10
0.603320
20
0.493476
30
0.0
11
0.605495
21
0.491262
31
0.0
0
LINE
8
FRONT
10
0.605495
20
0.491262
30
0.0
11
0.607706
21
0.489083
31
0.0
0
LINE
8
FRONT
10
0.607706
20
0.489083
30
0.0
11
0.609950
21
0.486940
31
0.0
0
LINE
8
FRONT
10
0.609950
20
0.486940
30
0.0
11
0.612229
21
0.484833
31
0.0
0
LINE
8
FRONT
10
0.612229
20
0.484833
30
0.0
11
0.614541
21
0.482762
31
0.0
0
LINE
8
FRONT
10
0.614541
20
0.482762
30
0.0
11
0.616886
21
0.480729
31
0.0
0
LINE
8
FRONT
10
0.616886
20
0.480729
30
0.0
11
0.619263
21
0.478733
31
0.0
0
LINE
8
FRONT
10
0.619263
20
0.478733
30
0.0
11
0.621672
21
0.476775
31
0.0
0
LINE
8
FRONT
10
0.621672
20
0.476775
30
0.0
11
0.624111
21
0.474856
31
0.0
0
LINE
8
FRONT
10
0.624111
20
0.474856
30
0.0
11
0.626581
21
0.472976
31
0.0
0
LINE
8
FRONT
10
0.626581
20
0.472976
30
0.0
11
0.629080
21
0.471136
31
0.0
0
LINE
8
FRONT
10
0.629080
20
0.471136
30
0.0
11
0.631608
21
0.469336
31
0.0
0
LINE
8
FRONT
10
0.631608
20
0.469336
30
0.0
11
0.634165
21
0.467576
31
0.0
0
LINE
8
FRONT
10
0.634165
20
0.467576
30
0.0
11
0.636750
21
0.465858
31
0.0
0
LINE
8
FRONT
10
0.636750
20
0.465858
30
0.0
11
0.639361
21
0.464180
31
0.0
0
LINE
8
FRONT
10
0.639361
20
0.464180
30
0.0
11
0.641999
21
0.462545
31
0.0
0
LINE
8
FRONT
10
0.641999
20
0.462545
30
0.0
11
0.644663
21
0.460952
31
0.0
0
LINE
8
FRONT
10
0.644663
20
0.460952
30
0.0
11
0.647352
21
0.459402
31
0.0
0
LINE
8
FRONT
10
0.647352
20
0.459402
30
0.0
11
0.650065
21
0.457894
31
0.0
0
LINE
8
FRONT
10
0.650065
20
0.457894
30
0.0
11
0.652802
21
0.456430
31
0.0
0
LINE
8
FRONT
10
0.652802
20
0.456430
30
0.0
11
0.655562
21
0.455010
31
0.0
0
LINE
8
FRONT
10
0.655562
20
0.455010
30
0.0
11
0.658344
21
0.453634
31
0.0
0
LINE
8
FRONT
10
0.658344
20
0.453634
30
0.0
11
0.661147
21
0.452303
31
0.0
0
LINE
8
FRONT
10
0.661147
20
0.452303
30
0.0
11
0.663972
21
0.451017
31
0.0
0
LINE
8
FRONT
10
0.663972
20
0.451017
30
0.0
11
0.666817
21
0.449775
31
0.0
0
LINE
8
FRONT
10
0.666817
20
0.449775
30
0.0
11
0.669681
21
0.448580
31
0.0
0
LINE
8
FRONT
10
0.669681
20
0.448580
30
0.0
11
0.672564
21
0.447430
31
0.0
0
LINE
8
FRONT
10
0.672564
20
0.447430
30
0.0
11
0.675465
21
0.446326
31
0.0
0
LINE
8
FRONT
10
0.675465
20
0.446326
30
0.0
11
0.678383
21
0.445269
31
0.0
0
LINE
8
FRONT
10
0.678383
20
0.445269
30
0.0
11
0.681317
21
0.444258
31
0.0
0
LINE
8
FRONT
10
0.681317
20
0.444258
30
0.0
11
0.684268
21
0.443294
31
0.0
0
LINE
8
FRONT
10
0.684268
20
0.443294
30
0.0
11
0.687233
21
0.442377
31
0.0
0
LINE
8
FRONT
10
0.687233
20
0.442377
30
0.0
11
0.690212
21
0.441508
31
0.0
0
LINE
8
FRONT
10
0.690212
20
0.441508
30
0.0
11
0.693205
21
0.440687
31
0.0
0
LINE
8
FRONT
10
0.693205
20
0.440687
30
0.0
11
0.696211
21
0.439913
31
0.0
0
LINE
8
FRONT
10
0.696211
20
0.439913
30
0.0
11
0.699229
21
0.439187
31
0.0
0
LINE
8
FRONT
10
0.699229
20
0.439187
30
0.0
11
0.702258
21
0.438510
31
0.0
0
LINE
8
FRONT
10
0.702258
20
0.438510
30
0.0
11
0.705297
21
0.437880
31
0.0
0
LINE
8
FRONT
10
0.705297
20
0.437880
30
0.0
11
0.708346
21
0.437300
31
0.0
0
LINE
8
FRONT
10
0.708346
20
0.437300
30
0.0
11
0.711404
21
0.436768
31
0.0
0
LINE
8
FRONT
10
0.711404
20
0.436768
30
0.0
11
0.714470
21
0.436285
31
0.0
0
LINE
8
FRONT
10
0.714470
20
0.436285
30
0.0
11
0.717543
21
0.435851
31
0.0
0
LINE
8
FRONT
10
0.717543
20
0.435851
30
0.0
11
0.720623
21
0.435465
31
0.0
0
LINE
8
FRONT
10
0.720623
20
0.435465
30
0.0
11
0.723708
21
0.435130
31
0.0
0
LINE
8
FRONT
10
0.723708
20
0.435130
30
0.0
11
0.726799
21
0.434843
31
0.0
0
LINE
8
FRONT
10
0.726799
20
0.434843
30
0.0
11
0.742588
21
0.434843
31
0.0
0
LINE
8
FRONT
10
0.742588
20
0.434843
30
0.0
11
0.742588
21
0.578922
31
0.0
0
LINE
8
FRONT
10
0.751223
20
0.821109
30
0.0
11
0.734776
21
0.821109
31
0.0
0
LINE
8
FRONT
10
0.751223
20
0.673083
30
0.0
11
0.751223
21
0.821109
31
0.0
0
LINE
8
FRONT
10
0.734776
20
0.821109
30
0.0
11
0.745067
21
0.821723
31
0.0
0
LINE
8
FRONT
10
0.745067
20
0.821723
30
0.0
11
0.755375
21
0.821796
31
0.0
0
LINE
8
FRONT
10
0.755375
20
0.821796
30
0.0
11
0.765674
21
0.821326
31
0.0
0
LINE
8
FRONT
10
0.765674
20
0.821326
30
0.0
11
0.775933
21
0.820315
31
0.0
0
LINE
8
FRONT
10
0.775933
20
0.820315
30
0.0
11
0.786125
21
0.818767
31
0.0
0
LINE
8
FRONT
10
0.786125
20
0.818767
30
0.0
11
0.796222
21
0.816685
31
0.0
0
LINE
8
FRONT
10
0.796222
20
0.816685
30
0.0
11
0.806195
21
0.814075
31
0.0
0
LINE
8
FRONT
10
0.806195
20
0.814075
30
0.0
11
0.816017
21
0.810944
31
0.0
0
LINE
8
FRONT
10
0.816017
20
0.810944
30
0.0
11
0.825661
21
0.807302
31
0.0
0
LINE
8
FRONT
10
0.825661
20
0.807302
30
0.0
11
0.835100
21
0.803157
31
0.0
0
LINE
8
FRONT
10
0.835100
20
0.803157
30
0.0
11
0.844309
21
0.798522
31
0.0
0
LINE
8
FRONT
10
0.844309
20
0.798522
30
0.0
11
0.853260
21
0.793410
31
0.0
0
LINE
8
FRONT
10
0.853260
20
0.793410
30
0.0
11
0.861931
21
0.787833
31
0.0
0
LINE
8
FRONT
10
0.861931
20
0.787833
30
0.0
11
0.870297
21
0.781809
31
0.0
0
LINE
8
FRONT
10
0.870297
20
0.781809
30
0.0
11
0.878334
21
0.775353
31
0.0
0
LINE
8
FRONT
10
0.878334
20
0.775353
30
0.0
11
0.886021
21
0.768484
31
0.0
0
LINE
8
FRONT
10
0.886021
20
0.768484
30
0.0
11
0.893336
21
0.761220
31
0.0
0
LINE
8
FRONT
10
0.893336
20
0.761220
30
0.0
11
0.900259
21
0.753581
31
0.0
0
LINE
8
FRONT
10
0.900259
20
0.753581
30
0.0
11
0.906771
21
0.745589
31
0.0
0
LINE
8
FRONT
10
0.906771
20
0.745589
30
0.0
11
0.912854
21
0.737266
31
0.0
0
LINE
8
FRONT
10
0.912854
20
0.737266
30
0.0
11
0.918491
21
0.728635
31
0.0
0
LINE
8
FRONT
10
0.918491
20
0.728635
30
0.0
11
0.923666
21
0.719719
31
0.0
0
LINE
8
FRONT
10
0.923666
20
0.719719
30
0.0
11
0.928366
21
0.710544
31
0.0
0
LINE
8
FRONT
10
0.928366
20
0.710544
30
0.0
11
0.932576
21
0.701134
31
0.0
0
LINE
8
FRONT
10
0.932576
20
0.701134
30
0.0
11
0.936287
21
0.691515
31
0.0
0
LINE
8
FRONT
10
0.936287
20
0.691515
30
0.0
11
0.939486
21
0.681715
31
0.0
0
LINE
8
FRONT
10
0.939486
20
0.681715
30
0.0
11
0.942166
21
0.671761
31
0.0
0
LINE
8
FRONT
10
0.942166
20
0.671761
30
0.0
11
0.944319
21
0.661679
31
0.0
0
LINE
8
FRONT
10
0.944319
20
0.661679
30
0.0
11
0.945938
21
0.651498
31
0.0
0
LINE
8
FRONT
10
0.945938
20
0.651498
30
0.0
11
0.947021
21
0.641246
31
0.0
0
LINE
8
FRONT
10
0.947021
20
0.641246
30
0.0
11
0.947563
21
0.630951
31
0.0
0
LINE
8
FRONT
10
0.947563
20
0.630951
30
0.0
11
0.947563
21
0.620642
31
0.0
0
LINE
8
FRONT
10
0.947563
20
0.620642
30
0.0
11
0.947021
21
0.610347
31
0.0
0
LINE
8
FRONT
10
0.947021
20
0.610347
30
0.0
11
0.945938
21
0.600095
31
0.0
0
LINE
8
FRONT
10
0.945938
20
0.600095
30
0.0
11
0.944319
21
0.589914
31
0.0
0
LINE
8
FRONT
10
0.944319
20
0.589914
30
0.0
11
0.942166
21
0.579833
31
0.0
0
LINE
8
FRONT
10
0.942166
20
0.579833
30
0.0
11
0.939486
21
0.569878
31
0.0
0
LINE
8
FRONT
10
0.939486
20
0.569878
30
0.0
11
0.936287
21
0.560078
31
0.0
0
LINE
8
FRONT
10
0.936287
20
0.560078
30
0.0
11
0.932576
21
0.550460
31
0.0
0
LINE
8
FRONT
10
0.932576
20
0.550460
30
0.0
11
0.928366
21
0.541050
31
0.0
0
LINE
8
FRONT
10
0.928366
20
0.541050
30
0.0
11
0.923666
21
0.531874
31
0.0
0
LINE
8
FRONT
10
0.923666
20
0.531874
30
0.0
11
0.918491
21
0.522959
31
0.0
0
LINE
8
FRONT
10
0.918491
20
0.522959
30
0.0
11
0.912854
21
0.514327
31
0.0
0
LINE
8
FRONT
10
0.912854
20
0.514327
30
0.0
11
0.906771
21
0.506004
31
0.0
0
LINE
8
FRONT
10
0.906771
20
0.506004
30
0.0
11
0.900259
21
0.498012
31
0.0
0
LINE
8
FRONT
10
0.900259
20
0.498012
30
0.0
11
0.893336
21
0.490374
31
0.0
0
LINE
8
FRONT
10
0.893336
20
0.490374
30
0.0
11
0.886021
21
0.483110
31
0.0
0
LINE
8
FRONT
10
0.886021
20
0.483110
30
0.0
11
0.878334
21
0.476240
31
0.0
0
LINE
8
FRONT
10
0.878334
20
0.476240
30
0.0
11
0.870297
21
0.469785
31
0.0
0
LINE
8
FRONT
10
0.870297
20
0.469785
30
0.0
11
0.861931
21
0.463760
31
0.0
0
LINE
8
FRONT
10
0.861931
20
0.463760
30
0.0
11
0.853260
21
0.458184
31
0.0
0
LINE
8
FRONT
10
0.853260
20
0.458184
30
0.0
11
0.844309
21
0.453071
31
0.0
0
LINE
8
FRONT
10
0.844309
20
0.453071
30
0.0
11
0.835100
21
0.448436
31
0.0
0
LINE
8
FRONT
10
0.835100
20
0.448436
30
0.0
11
0.825661
21
0.444292
31
0.0
0
LINE
8
FRONT
10
0.825661
20
0.444292
30
0.0
11
0.816017
21
0.440649
31
0.0
0
LINE
8
FRONT
10
0.816017
20
0.440649
30
0.0
11
0.806195
21
0.437518
31
0.0
0
LINE
8
FRONT
10
0.806195
20
0.437518
30
0.0
11
0.796222
21
0.434908
31
0.0
0
LINE
8
FRONT
10
0.796222
20
0.434908
30
0.0
11
0.786125
21
0.432826
31
0.0
0
LINE
8
FRONT
10
0.786125
20
0.432826
30
0.0
11
0.775933
21
0.431278
31
0.0
0
LINE
8
FRONT
10
0.775933
20
0.431278
30
0.0
11
0.765674
21
0.430268
31
0.0
0
LINE
8
FRONT
10
0.765674
20
0.430268
30
0.0
11
0.755375
21
0.429798
31
0.0
0
LINE
8
FRONT
10
0.755375
20
0.429798
30
0.0
11
0.745067
21
0.429870
31
0.0
0
LINE
8
FRONT
10
0.745067
20
0.429870
30
0.0
11
0.734776
21
0.430484
31
0.0
0
LINE
8
FRONT
10
0.734776
20
0.430484
30
0.0
11
0.751223
21
0.430484
31
0.0
0
LINE
8
FRONT
10
0.751223
20
0.430484
30
0.0
11
0.751223
21
0.578511
31
0.0
0
LINE
8
FRONT
10
0.751223
20
0.578511
30
0.0
11
0.753580
21
0.578569
31
0.0
0
LINE
8
FRONT
10
0.753580
20
0.578569
30
0.0
11
0.755931
21
0.578746
31
0.0
0
LINE
8
FRONT
10
0.755931
20
0.578746
30
0.0
11
0.758271
21
0.579039
31
0.0
0
LINE
8
FRONT
10
0.758271
20
0.579039
30
0.0
11
0.760593
21
0.579448
31
0.0
0
LINE
8
FRONT
10
0.760593
20
0.579448
30
0.0
11
0.762891
21
0.579973
31
0.0
0
LINE
8
FRONT
10
0.762891
20
0.579973
30
0.0
11
0.765161
21
0.580611
31
0.0
0
LINE
8
FRONT
10
0.765161
20
0.580611
30
0.0
11
0.767396
21
0.581362
31
0.0
0
LINE
8
FRONT
10
0.767396
20
0.581362
30
0.0
11
0.769591
21
0.582224
31
0.0
0
LINE
8
FRONT
10
0.769591
20
0.582224
30
0.0
11
0.771740
21
0.583193
31
0.0
0
LINE
8
FRONT
10
0.771740
20
0.583193
30
0.0
11
0.773838
21
0.584269
31
0.0
0
LINE
8
FRONT
10
0.773838
20
0.584269
30
0.0
11
0.775880
21
0.585448
31
0.0
0
LINE
8
FRONT
10
0.775880
20
0.585448
30
0.0
11
0.777860
21
0.586727
31
0.0
0
LINE
8
FRONT
10
0.777860
20
0.586727
30
0.0
11
0.779775
21
0.588103
31
0.0
0
LINE
8
FRONT
10
0.779775
20
0.588103
30
0.0
11
0.781618
21
0.589573
31
0.0
0
LINE
8
FRONT
10
0.781618
20
0.589573
30
0.0
11
0.783386
21
0.591134
31
0.0
0
LINE
8
FRONT
10
0.783386
20
0.591134
30
0.0
11
0.785074
21
0.592780
31
0.0
0
LINE
8
FRONT
10
0.785074
20
0.592780
30
0.0
11
0.786678
21
0.594508
31
0.0
0
LINE
8
FRONT
10
0.786678
20
0.594508
30
0.0
11
0.788193
21
0.596314
31
0.0
0
LINE
8
FRONT
10
0.788193
20
0.596314
30
0.0
11
0.789617
21
0.598194
31
0.0
0
LINE
8
FRONT
10
0.789617
20
0.598194
30
0.0
11
0.790945
21
0.600142
31
0.0
0
LINE
8
FRONT
10
0.790945
20
0.600142
30
0.0
11
0.792174
21
0.602154
31
0.0
0
LINE
8
FRONT
10
0.792174
20
0.602154
30
0.0
11
0.793302
21
0.604224
31
0.0
0
LINE
8
FRONT
10
0.793302
20
0.604224
30
0.0
11
0.794325
21
0.606349
31
0.0
0
LINE
8
FRONT
10
0.794325
20
0.606349
30
0.0
11
0.795241
21
0.608521
31
0.0
0
LINE
8
FRONT
10
0.795241
20
0.608521
30
0.0
11
0.796047
21
0.610737
31
0.0
0
LINE
8
FRONT
10
0.796047
20
0.610737
30
0.0
11
0.796742
21
0.612990
31
0.0
0
LINE
8
FRONT
10
0.796742
20
0.612990
30
0.0
11
0.797324
21
0.615275
31
0.0
0
LINE
8
FRONT
10
0.797324
20
0.615275
30
0.0
11
0.797791
21
0.617586
31
0.0
0
LINE
8
FRONT
10
0.797791
20
0.617586
30
0.0
11
0.798142
21
0.619917
31
0.0
0
LINE
8
FRONT
10
0.798142
20
0.619917
30
0.0
11
0.798377
21
0.622263
31
0.0
0
LINE
8
FRONT
10
0.798377
20
0.622263
30
0.0
11
0.798495
21
0.624618
31
0.0
0
LINE
8
FRONT
10
0.798495
20
0.624618
30
0.0
11
0.798495
21
0.626976
31
0.0
0
LINE
8
FRONT
10
0.798495
20
0.626976
30
0.0
11
0.798377
21
0.629330
31
0.0
0
LINE
8
FRONT
10
0.798377
20
0.629330
30
0.0
11
0.798142
21
0.631676
31
0.0
0
LINE
8
FRONT
10
0.798142
20
0.631676
30
0.0
11
0.797791
21
0.634008
31
0.0
0
LINE
8
FRONT
10
0.797791
20
0.634008
30
0.0
11
0.797324
21
0.636319
31
0.0
0
LINE
8
FRONT
10
0.797324
20
0.636319
30
0.0
11
0.796742
21
0.638604
31
0.0
0
LINE
8
FRONT
10
0.796742
20
0.638604
30
0.0
11
0.796047
21
0.640857
31
0.0
0
LINE
8
FRONT
10
0.796047
20
0.640857
30
0.0
11
0.795241
21
0.643072
31
0.0
0
LINE
8
FRONT
10
0.795241
20
0.643072
30
0.0
11
0.794325
21
0.645245
31
0.0
0
LINE
8
FRONT
10
0.794325
20
0.645245
30
0.0
11
0.793302
21
0.647369
31
0.0
0
LINE
8
FRONT
10
0.793302
20
0.647369
30
0.0
11
0.792174
21
0.649440
31
0.0
0
LINE
8
FRONT
10
0.792174
20
0.649440
30
0.0
11
0.790945
21
0.651452
31
0.0
0
LINE
8
FRONT
10
0.790945
20
0.651452
30
0.0
11
0.789617
21
0.653400
31
0.0
0
LINE
8
FRONT
10
0.789617
20
0.653400
30
0.0
11
0.788193
21
0.655279
31
0.0
0
LINE
8
FRONT
10
0.788193
20
0.655279
30
0.0
11
0.786678
21
0.657085
31
0.0
0
LINE
8
FRONT
10
0.786678
20
0.657085
30
0.0
11
0.785074
21
0.658814
31
0.0
0
LINE
8
FRONT
10
0.785074
20
0.658814
30
0.0
11
0.783386
21
0.660460
31
0.0
0
LINE
8
FRONT
10
0.783386
20
0.660460
30
0.0
11
0.781618
21
0.662020
31
0.0
0
LINE
8
FRONT
10
0.781618
20
0.662020
30
0.0
11
0.779775
21
0.663490
31
0.0
0
LINE
8
FRONT
10
0.779775
20
0.663490
30
0.0
11
0.777860
21
0.664866
31
0.0
0
LINE
8
FRONT
10
0.777860
20
0.664866
30
0.0
11
0.775880
21
0.666146
31
0.0
0
LINE
8
FRONT
10
0.775880
20
0.666146
30
0.0
11
0.773838
21
0.667325
31
0.0
0
LINE
8
FRONT
10
0.773838
20
0.667325
30
0.0
11
0.771740
21
0.668400
31
0.0
0
LINE
8
FRONT
10
0.771740
20
0.668400
30
0.0
11
0.769591
21
0.669370
31
0.0
0
LINE
8
FRONT
10
0.769591
20
0.669370
30
0.0
11
0.767396
21
0.670231
31
0.0
0
LINE
8
FRONT
10
0.767396
20
0.670231
30
0.0
11
0.765161
21
0.670982
31
0.0
0
LINE
8
FRONT
10
0.765161
20
0.670982
30
0.0
11
0.762891
21
0.671621
31
0.0
0
LINE
8
FRONT
10
0.762891
20
0.671621
30
0.0
11
0.760593
21
0.672145
31
0.0
0
LINE
8
FRONT
10
0.760593
20
0.672145
30
0.0
11
0.758271
21
0.672555
31
0.0
0
LINE
8
FRONT
10
0.758271
20
0.672555
30
0.0
11
0.755931
21
0.672848
31
0.0
0
LINE
8
FRONT
10
0.755931
20
0.672848
30
0.0
11
0.753580
21
0.673024
31
0.0
0
LINE
8
FRONT
10
0.753580
20
0.673024
30
0.0
11
0.751223
21
0.673083
31
0.0
0
LINE
8
FRONT_HID
6
HIDDEN
10
0.323460
20
0.774070
30
0.0
11
0.321775
21
0.775494
31
0.0
0
LINE
8
FRONT_HID
6
HIDDEN
10
0.321775
20
0.775494
30
0.0
11
0.320073
21
0.776900
31
0.0
0
LINE
8
FRONT_HID
6
HIDDEN
10
0.320073
20
0.776900
30
0.0
11
0.318356
21
0.778286
31
0.0
0
LINE
8
FRONT_HID
6
HIDDEN
10
0.318356
20
0.778286
30
0.0
11
0.316624
21
0.779653
31
0.0
0
LINE
8
FRONT_HID
6
HIDDEN
10
0.316624
20
0.779653
30
0.0
11
0.314876
21
0.781000
31
0.0
0
LINE
8
FRONT_HID
6
HIDDEN
10
0.314876
20
0.781000
30
0.0
11
0.313113
21
0.782328
31
0.0
0
LINE
8
FRONT_HID
6
HIDDEN
10
0.313113
20
0.782328
30
0.0
11
0.311336
21
0.783635
31
0.0
0
LINE
8
FRONT_HID
6
HIDDEN
10
0.311336
20
0.783635
30
0.0
11
0.309543
21
0.784923
31
0.0
0
LINE
8
FRONT_HID
6
HIDDEN
10
0.309543
20
0.784923
30
0.0
11
0.307737
21
0.786190
31
0.0
0
LINE
8
FRONT_HID
6
HIDDEN
10
0.307737
20
0.786190
30
0.0
11
0.305916
21
0.787437
31
0.0
0
LINE
8
FRONT_HID
6
HIDDEN
10
0.305916
20
0.787437
30
0.0
11
0.304081
21
0.788663
31
0.0
0
LINE
8
FRONT_HID
6
HIDDEN
10
0.304081
20
0.788663
30
0.0
11
0.302233
21
0.789869
31
0.0
0
LINE
8
FRONT_HID
6
HIDDEN
10
0.302233
20
0.789869
30
0.0
11
0.300371
21
0.791053
31
0.0
0
LINE
8
FRONT_HID
6
HIDDEN
10
0.300371
20
0.791053
30
0.0
11
0.298496
21
0.792217
31
0.0
0
LINE
8
FRONT_HID
6
HIDDEN
10
0.298496
20
0.792217
30
0.0
11
0.296608
21
0.793359
31
0.0
0
LINE
8
FRONT_HID
6
HIDDEN
10
0.296608
20
0.793359
30
0.0
11
0.294707
21
0.794480
31
0.0
0
LINE
8
FRONT_HID
6
HIDDEN
10
0.294707
20
0.794480
30
0.0
11
0.292794
21
0.795580
31
0.0
0
LINE
8
FRONT_HID
6
HIDDEN
10
0.292794
20
0.795580
30
0.0
11
0.290868
21
0.796658
31
0.0
0
LINE
8
FRONT_HID
6
HIDDEN
10
0.290868
20
0.796658
30
0.0
11
0.288931
21
0.797714
31
0.0
0
LINE
8
FRONT_HID
6
HIDDEN
10
0.288931
20
0.797714
30
0.0
11
0.286982
21
0.798749
31
0.0
0
LINE
8
FRONT_HID
6
HIDDEN
10
0.286982
20
0.798749
30
0.0
11
0.285021
21
0.799761
31
0.0
0
LINE
8
FRONT_HID
6
HIDDEN
10
0.285021
20
0.799761
30
0.0
11
0.283049
21
0.800751
31
0.0
0
LINE
8
FRONT_HID
6
HIDDEN
10
0.283049
20
0.800751
30
0.0
11
0.281066
21
0.801719
31
0.0
0
LINE
8
FRONT_HID
6
HIDDEN
10
0.281066
20
0.801719
30
0.0
11
0.279072
21
0.802665
31
0.0
0
LINE
8
FRONT_HID
6
HIDDEN
10
0.279072
20
0.802665
30
0.0
11
0.277067
21
0.803588
31
0.0
0
LINE
8
FRONT_HID
6
HIDDEN
10
0.277067
20
0.803588
30
0.0
11
0.275053
21
0.804489
31
0.0
0
LINE
8
FRONT_HID
6
HIDDEN
10
0.275053
20
0.804489
30
0.0
11
0.273028
21
0.805366
31
0.0
0
LINE
8
FRONT_HID
6
HIDDEN
10
0.273028
20
0.805366
30
0.0
11
0.270994
21
0.806221
31
0.0
0
LINE
8
FRONT_HID
6
HIDDEN
10
0.270994
20
0.806221
30
0.0
11
0.268950
21
0.807053
31
0.0
0
LINE
8
FRONT_HID
6
HIDDEN
10
0.268950
20
0.807053
30
0.0
11
0.266897
21
0.807862
31
0.0
0
LINE
8
FRONT_HID
6
HIDDEN
10
0.266897
20
0.807862
30
0.0
11
0.264835
21
0.808648
31
0.0
0
LINE
8
FRONT_HID
6
HIDDEN
10
0.264835
20
0.808648
30
0.0
11
0.262764
21
0.809411
31
0.0
0
LINE
8
FRONT_HID
6
HIDDEN
10
0.262764
20
0.809411
30
0.0
11
0.260684
21
0.810150
31
0.0
0
LINE
8
FRONT_HID
6
HIDDEN
10
0.260684
20
0.810150
30
0.0
11
0.258597
21
0.810866
31
0.0
0
LINE
8
FRONT_HID
6
HIDDEN
10
0.258597
20
0.810866
30
0.0
11
0.256502
21
0.811558
31
0.0
0
LINE
8
FRONT_HID
6
HIDDEN
10
0.256502
20
0.811558
30
0.0
11
0.254399
21
0.812226
31
0.0
0
LINE
8
FRONT_HID
6
HIDDEN
10
0.254399
20
0.812226
30
0.0
11
0.252288
21
0.812871
31
0.0
0
LINE
8
FRONT_HID
6
HIDDEN
10
0.252288
20
0.812871
30
0.0
11
0.250171
21
0.813492
31
0.0
0
LINE
8
FRONT_HID
6
HIDDEN
10
0.250171
20
0.813492
30
0.0
11
0.248046
21
0.814089
31
0.0
0
LINE
8
FRONT_HID
6
HIDDEN
10
0.248046
20
0.814089
30
0.0
11
0.245915
21
0.814663
31
0.0
0
LINE
8
FRONT_HID
6
HIDDEN
10
0.245915
20
0.814663
30
0.0
11
0.243778
21
0.815212
31
0.0
0
LINE
8
FRONT_HID
6
HIDDEN
10
0.243778
20
0.815212
30
0.0
11
0.241634
21
0.815737
31
0.0
0
LINE
8
FRONT_HID
6
HIDDEN
10
0.241634
20
0.815737
30
0.0
11
0.239485
21
0.816238
31
0.0
0
LINE
8
FRONT_HID
6
HIDDEN
10
0.239485
20
0.816238
30
0.0
11
0.237331
21
0.816715
31
0.0
0
LINE
8
FRONT_HID
6
HIDDEN
10
0.237331
20
0.816715
30
0.0
11
0.235171
21
0.817167
31
0.0
0
LINE
8
FRONT_HID
6
HIDDEN
10
0.235171
20
0.817167
30
0.0
11
0.233006
21
0.817595
31
0.0
0
LINE
8
FRONT_HID
6
HIDDEN
10
0.233006
20
0.817595
30
0.0
11
0.230836
21
0.817999
31
0.0
0
LINE
8
FRONT_HID
6
HIDDEN
10
0.230836
20
0.817999
30
0.0
11
0.228663
21
0.818378
31
0.0
0
LINE
8
FRONT_HID
6
HIDDEN
10
0.228663
20
0.818378
30
0.0
11
0.226485
21
0.818733
31
0.0
0
LINE
8
FRONT_HID
6
HIDDEN
10
0.226485
20
0.818733
30
0.0
11
0.224303
21
0.819063
31
0.0
0
LINE
8
FRONT_HID
6
HIDDEN
10
0.224303
20
0.819063
30
0.0
11
0.222117
21
0.819369
31
0.0
0
LINE
8
FRONT_HID
6
HIDDEN
10
0.222117
20
0.819369
30
0.0
11
0.219928
21
0.819650
31
0.0
0
LINE
8
FRONT_HID
6
HIDDEN
10
0.219928
20
0.819650
30
0.0
11
0.217737
21
0.819906
31
0.0
0
LINE
8
FRONT_HID
6
HIDDEN
10
0.217737
20
0.819906
30
0.0
11
0.215542
21
0.820138
31
0.0
0
LINE
8
FRONT_HID
6
HIDDEN
10
0.215542
20
0.820138
30
0.0
11
0.213345
21
0.820345
31
0.0
0
LINE
8
FRONT_HID
6
HIDDEN
10
0.213345
20
0.820345
30
0.0
11
0.211146
21
0.820528
31
0.0
0
LINE
8
FRONT_HID
6
HIDDEN
10
0.211146
20
0.820528
30
0.0
11
0.208945
21
0.820685
31
0.0
0
LINE
8
FRONT_HID
6
HIDDEN
10
0.208945
20
0.820685
30
0.0
11
0.206742
21
0.820818
31
0.0
0
LINE
8
FRONT_HID
6
HIDDEN
10
0.206742
20
0.820818
30
0.0
11
0.204538
21
0.820926
31
0.0
0
LINE
8
FRONT_HID
6
HIDDEN
10
0.204538
20
0.820926
30
0.0
11
0.202333
21
0.821009
31
0.0
0
LINE
8
FRONT_HID
6
HIDDEN
10
0.202333
20
0.821009
30
0.0
11
0.200127
21
0.821067
31
0.0
0
LINE
8
FRONT_HID
6
HIDDEN
10
0.200127
20
0.821067
30
0.0
11
0.197920
21
0.821101
31
0.0
0
LINE
8
FRONT_HID
6
HIDDEN
10
0.197920
20
0.821101
30
0.0
11
0.195713
21
0.821109
31
0.0
0
LINE
8
FRONT_HID
6
HIDDEN
10
0.220384
20
0.430484
30
0.0
11
0.229676
21
0.431873
31
0.0
0
LINE
8
FRONT_HID
6
HIDDEN
10
0.229676
20
0.431873
30
0.0
11
0.238890
21
0.433706
31
0.0
0
LINE
8
FRONT_HID
6
HIDDEN
10
0.238890
20
0.433706
30
0.0
11
0.248006
21
0.435977
31
0.0
0
LINE
8
FRONT_HID
6
HIDDEN
10
0.248006
20
0.435977
30
0.0
11
0.257002
21
0.438683
31
0.0
0
LINE
8
FRONT_HID
6
HIDDEN
10
0.257002
20
0.438683
30
0.0
11
0.265859
21
0.441817
31
0.0
0
LINE
8
FRONT_HID
6
HIDDEN
10
0.265859
20
0.441817
30
0.0
11
0.274555
21
0.445371
31
0.0
0
LINE
8
FRONT_HID
6
HIDDEN
10
0.274555
20
0.445371
30
0.0
11
0.283071
21
0.449337
31
0.0
0
LINE
8
FRONT_HID
6
HIDDEN
10
0.283071
20
0.449337
30
0.0
11
0.291387
21
0.453708
31
0.0
0
LINE
8
FRONT_HID
6
HIDDEN
10
0.291387
20
0.453708
30
0.0
11
0.299485
21
0.458471
31
0.0
0
LINE
8
FRONT_HID
6
HIDDEN
10
0.299485
20
0.458471
30
0.0
11
0.307344
21
0.463617
31
0.0
0
LINE
8
FRONT_HID
6
HIDDEN
10
0.307344
20
0.463617
30
0.0
11
0.314949
21
0.469133
31
0.0
0
LINE
8
FRONT_HID
6
HIDDEN
10
0.314949
20
0.469133
30
0.0
11
0.322280
21
0.475007
31
0.0
0
LINE
8
FRONT_HID
6
HIDDEN
10
0.322280
20
0.475007
30
0.0
11
0.329322
21
0.481226
31
0.0
0
LINE
8
FRONT_HID
6
HIDDEN
10
0.329322
20
0.481226
30
0.0
11
0.336058
21
0.487775
31
0.0
0
LINE
8
FRONT_HID
6
HIDDEN
10
0.336058
20
0.487775
30
0.0
11
0.342472
21
0.494639
31
0.0
0
LINE
8
FRONT_HID
6
HIDDEN
10
0.342472
20
0.494639
30
0.0
11
0.348550
21
0.501802
31
0.0
0
LINE
8
FRONT_HID
6
HIDDEN
10
0.348550
20
0.501802
30
0.0
11
0.354278
21
0.509248
31
0.0
0
LINE
8
FRONT_HID
6
HIDDEN
10
0.354278
20
0.509248
30
0.0
11
0.359643
21
0.516961
31
0.0
0
LINE
8
FRONT_HID
6
HIDDEN
10
0.359643
20
0.516961
30
0.0
11
0.364632
21
0.524921
31
0.0
0
LINE
8
FRONT_HID
6
HIDDEN
10
0.364632
20
0.524921
30
0.0
11
0.369234
21
0.533111
31
0.0
0
LINE
8
FRONT_HID
6
HIDDEN
10
0.369234
20
0.533111
30
0.0
11
0.373439
21
0.541512
31
0.0
0
LINE
8
FRONT_HID
6
HIDDEN
10
0.373439
20
0.541512
30
0.0
11
0.377236
21
0.550105
31
0.0
0
LINE
8
FRONT_HID
6
HIDDEN
10
0.377236
20
0.550105
30
0.0
11
0.380618
21
0.558870
31
0.0
0
LINE
8
FRONT_HID
6
HIDDEN
10
0.380618
20
0.558870
30
0.0
11
0.383575
21
0.567787
31
0.0
0
LINE
8
FRONT_HID
6
HIDDEN
10
0.383575
20
0.567787
30
0.0
11
0.386102
21
0.576835
31
0.0
0
LINE
8
FRONT_HID
6
HIDDEN
10
0.386102
20
0.576835
30
0.0
11
0.388193
21
0.585994
31
0.0
0
LINE
8
FRONT_HID
6
HIDDEN
10
0.388193
20
0.585994
30
0.0
11
0.389843
21
0.595242
31
0.0
0
LINE
8
FRONT_HID
6
HIDDEN
10
0.389843
20
0.595242
30
0.0
11
0.391048
21
0.604559
31
0.0
0
LINE
8
FRONT_HID
6
HIDDEN
10
0.391048
20
0.604559
30
0.0
11
0.391805
21
0.613923
31
0.0
0
LINE
8
FRONT_HID
6
HIDDEN
10
0.391805
20
0.613923
30
0.0
11
0.392113
21
0.623313
31
0.0
0
LINE
8
FRONT_HID
6
HIDDEN
10
0.392113
20
0.623313
30
0.0
11
0.391970
21
0.632706
31
0.0
0
LINE
8
FRONT_HID
6
HIDDEN
10
0.391970
20
0.632706
30
0.0
11
0.391378
21
0.642082
31
0.0
0
LINE
8
FRONT_HID
6
HIDDEN
10
0.391378
20
0.642082
30
0.0
11
0.390338
21
0.651419
31
0.0
0
LINE
8
FRONT_HID
6
HIDDEN
10
0.390338
20
0.651419
30
0.0
11
0.388851
21
0.660695
31
0.0
0
LINE
8
FRONT_HID
6
HIDDEN
10
0.388851
20
0.660695
30
0.0
11
0.386922
21
0.669889
31
0.0
0
LINE
8
FRONT_HID
6
HIDDEN
10
0.386922
20
0.669889
30
0.0
11
0.384554
21
0.678981
31
0.0
0
LINE
8
FRONT_HID
6
HIDDEN
10
0.384554
20
0.678981
30
0.0
11
0.381754
21
0.687948
31
0.0
0
LINE
8
FRONT_HID
6
HIDDEN
10
0.381754
20
0.687948
30
0.0
11
0.378527
21
0.696771
31
0.0
0
LINE
8
FRONT_HID
6
HIDDEN
10
0.378527
20
0.696771
30
0.0
11
0.374882
21
0.705430
31
0.0
0
LINE
8
FRONT_HID
6
HIDDEN
10
0.374882
20
0.705430
30
0.0
11
0.370826
21
0.713903
31
0.0
0
LINE
8
FRONT_HID
6
HIDDEN
10
0.370826
20
0.713903
30
0.0
11
0.366369
21
0.722173
31
0.0
0
LINE
8
FRONT_HID
6
HIDDEN
10
0.366369
20
0.722173
30
0.0
11
0.361520
21
0.730220
31
0.0
0
LINE
8
FRONT_HID
6
HIDDEN
10
0.361520
20
0.730220
30
0.0
11
0.356292
21
0.738026
31
0.0
0
LINE
8
FRONT_HID
6
HIDDEN
10
0.356292
20
0.738026
30
0.0
11
0.350696
21
0.745572
31
0.0
0
LINE
8
FRONT_HID
6
HIDDEN
10
0.350696
20
0.745572
30
0.0
11
0.344745
21
0.752841
31
0.0
0
LINE
8
FRONT_HID
6
HIDDEN
10
0.344745
20
0.752841
30
0.0
11
0.338453
21
0.759817
31
0.0
0
LINE
8
FRONT_HID
6
HIDDEN
10
0.338453
20
0.759817
30
0.0
11
0.331833
21
0.766483
31
0.0
0
LINE
8
FRONT_HID
6
HIDDEN
10
0.331833
20
0.766483
30
0.0
11
0.324902
21
0.772825
31
0.0
0
LINE
8
FRONT_HID
6
HIDDEN
10
0.324902
20
0.772825
30
0.0
11
0.317675
21
0.778827
31
0.0
0
LINE
8
FRONT_HID
6
HIDDEN
10
0.317675
20
0.778827
30
0.0
11
0.310169
21
0.784477
31
0.0
0
LINE
8
FRONT_HID
6
HIDDEN
10
0.310169
20
0.784477
30
0.0
11
0.302401
21
0.789760
31
0.0
0
LINE
8
FRONT_HID
6
HIDDEN
10
0.302401
20
0.789760
30
0.0
11
0.294389
21
0.794665
31
0.0
0
LINE
8
FRONT_HID
6
HIDDEN
10
0.294389
20
0.794665
30
0.0
11
0.286151
21
0.799181
31
0.0
0
LINE
8
FRONT_HID
6
HIDDEN
10
0.286151
20
0.799181
30
0.0
11
0.277706
21
0.803297
31
0.0
0
LINE
8
FRONT_HID
6
HIDDEN
10
0.277706
20
0.803297
30
0.0
11
0.269074
21
0.807004
31
0.0
0
LINE
8
FRONT_HID
6
HIDDEN
10
0.269074
20
0.807004
30
0.0
11
0.260274
21
0.810293
31
0.0
0
LINE
8
FRONT_HID
6
HIDDEN
10
0.260274
20
0.810293
30
0.0
11
0.251326
21
0.813156
31
0.0
0
LINE
8
FRONT_HID
6
HIDDEN
10
0.251326
20
0.813156
30
0.0
11
0.242252
21
0.815588
31
0.0
0
LINE
8
FRONT_HID
6
HIDDEN
10
0.242252
20
0.815588
30
0.0
11
0.233072
21
0.817583
31
0.0
0
LINE
8
FRONT_HID
6
HIDDEN
10
0.233072
20
0.817583
30
0.0
11
0.223806
21
0.819135
31
0.0
0
LINE
8
FRONT_HID
6
HIDDEN
10
0.223806
20
0.819135
30
0.0
11
0.214477
21
0.820242
31
0.0
0
LINE
8
FRONT_HID
6
HIDDEN
10
0.214477
20
0.820242
30
0.0
11
0.205106
21
0.820900
31
0.0
0
LINE
8
FRONT_HID
6
HIDDEN
10
0.205106
20
0.820900
30
0.0
11
0.195713
21
0.821109
31
0.0
0
LINE
8
LEFT
10
1.137093
20
0.428968
30
0.0
11
1.137093
21
0.423905
31
0.0
0
LINE
8
LEFT
10
1.137093
20
0.821109
30
0.0
11
1.215218
21
0.821109
31
0.0
0
LINE
8
LEFT
10
1.137093
20
0.423905
30
0.0
11
1.215218
21
0.423905
31
0.0
0
LINE
8
LEFT
10
1.215218
20
0.428968
30
0.0
11
1.215218
21
0.423905
31
0.0
0
LINE
8
LEFT
10
1.137093
20
0.428968
30
0.0
11
1.137093
21
0.821109
31
0.0
0
LINE
8
LEFT
10
1.371468
20
0.821110
30
0.0
11
1.371468
21
0.821110
31
0.0
0
LINE
8
LEFT
10
1.371468
20
0.428968
30
0.0
11
1.371468
21
0.821109
31
0.0
0
LINE
8
LEFT
10
1.215218
20
0.821109
30
0.0
11
1.215218
21
0.821832
31
0.0
0
LINE
8
LEFT
10
1.137093
20
0.821109
30
0.0
11
1.137093
21
0.821832
31
0.0
0
LINE
8
LEFT
10
1.215218
20
0.428968
30
0.0
11
1.137093
21
0.428968
31
0.0
0
LINE
8
LEFT
10
1.371468
20
0.821110
30
0.0
11
1.215218
21
0.821110
31
0.0
0
LINE
8
LEFT
10
1.371468
20
0.428968
30
0.0
11
1.215218
21
0.428968
31
0.0
0
LINE
8
LEFT
10
1.215218
20
0.821832
30
0.0
11
1.137093
21
0.821832
31
0.0
0
LINE
8
LEFT_HID
6
HIDDEN
10
1.137093
20
0.774070
30
0.0
11
1.137093
21
0.821109
31
0.0
0
LINE
8
LEFT_HID
6
HIDDEN
10
1.137093
20
0.774070
30
0.0
11
1.137093
21
0.428968
31
0.0
0
LINE
8
LEFT_HID
6
HIDDEN
10
1.137093
20
0.423905
30
0.0
11
1.137093
21
0.538622
31
0.0
0
LINE
8
LEFT_HID
6
HIDDEN
10
1.137093
20
0.571438
30
0.0
11
1.137093
21
0.538622
31
0.0
0
LINE
8
LEFT_HID
6
HIDDEN
10
1.137093
20
0.571438
30
0.0
11
1.137093
21
0.570926
31
0.0
0
LINE
8
LEFT_HID
6
HIDDEN
10
1.137093
20
0.570926
30
0.0
11
1.137093
21
0.673600
31
0.0
0
LINE
8
LEFT_HID
6
HIDDEN
10
1.137093
20
0.673600
30
0.0
11
1.137093
21
0.673576
31
0.0
0
LINE
8
LEFT_HID
6
HIDDEN
10
1.137093
20
0.789524
30
0.0
11
1.137093
21
0.673576
31
0.0
0
LINE
8
LEFT_HID
6
HIDDEN
10
1.137093
20
0.789524
30
0.0
11
1.137093
21
0.821109
31
0.0
0
LINE
8
LEFT_HID
6
HIDDEN
10
1.137093
20
0.430484
30
0.0
11
1.137093
21
0.774070
31
0.0
0
LINE
8
LEFT_HID
6
HIDDEN
10
1.137093
20
0.821109
30
0.0
11
1.137093
21
0.763543
31
0.0
0
LINE
8
LEFT_HID
6
HIDDEN
10
1.137093
20
0.763543
30
0.0
11
1.137093
21
0.488050
31
0.0
0
LINE
8
LEFT_HID
6
HIDDEN
10
1.137093
20
0.488050
30
0.0
11
1.137093
21
0.430484
31
0.0
0
LINE
8
LEFT_HID
6
HIDDEN
10
1.215218
20
0.789524
30
0.0
11
1.137093
21
0.789524
31
0.0
0
LINE
8
LEFT_HID
6
HIDDEN
10
1.215218
20
0.789524
30
0.0
11
1.215218
21
0.821109
31
0.0
0
LINE
8
LEFT_HID
6
HIDDEN
10
1.137093
20
0.673576
30
0.0
11
1.137093
21
0.789524
31
0.0
0
LINE
8
LEFT_HID
6
HIDDEN
10
1.137093
20
0.673576
30
0.0
11
1.215218
21
0.673576
31
0.0
0
LINE
8
LEFT_HID
6
HIDDEN
10
1.215218
20
0.673576
30
0.0
11
1.137093
21
0.673576
31
0.0
0
LINE
8
LEFT_HID
6
HIDDEN
10
1.137093
20
0.571438
30
0.0
11
1.215218
21
0.571438
31
0.0
0
LINE
8
LEFT_HID
6
HIDDEN
10
1.215218
20
0.571438
30
0.0
11
1.215218
21
0.570926
31
0.0
0
LINE
8
LEFT_HID
6
HIDDEN
10
1.215218
20
0.570926
30
0.0
11
1.215218
21
0.673600
31
0.0
0
LINE
8
LEFT_HID
6
HIDDEN
10
1.215218
20
0.673600
30
0.0
11
1.215218
21
0.673576
31
0.0
0
LINE
8
LEFT_HID
6
HIDDEN
10
1.215218
20
0.571438
30
0.0
11
1.137093
21
0.571438
31
0.0
0
LINE
8
LEFT_HID
6
HIDDEN
10
1.137093
20
0.538622
30
0.0
11
1.137093
21
0.571438
31
0.0
0
LINE
8
LEFT_HID
6
HIDDEN
10
1.215218
20
0.423905
30
0.0
11
1.215218
21
0.538622
31
0.0
0
LINE
8
LEFT_HID
6
HIDDEN
10
1.215218
20
0.538622
30
0.0
11
1.137093
21
0.538622
31
0.0
0
LINE
8
LEFT_HID
6
HIDDEN
10
1.215218
20
0.774070
30
0.0
11
1.137093
21
0.774070
31
0.0
0
LINE
8
LEFT_HID
6
HIDDEN
10
1.215218
20
0.774070
30
0.0
11
1.215218
21
0.428968
31
0.0
0
LINE
8
LEFT_HID
6
HIDDEN
10
1.137093
20
0.430484
30
0.0
11
1.137093
21
0.428968
31
0.0
0
LINE
8
LEFT_HID
6
HIDDEN
10
1.137093
20
0.763543
30
0.0
11
1.137093
21
0.488050
31
0.0
0
LINE
8
LEFT_HID
6
HIDDEN
10
1.137093
20
0.763543
30
0.0
11
1.215218
21
0.763543
31
0.0
0
LINE
8
LEFT_HID
6
HIDDEN
10
1.137093
20
0.488050
30
0.0
11
1.215218
21
0.488050
31
0.0
0
LINE
8
LEFT_HID
6
HIDDEN
10
1.215218
20
0.774070
30
0.0
11
1.215218
21
0.821110
31
0.0
0
LINE
8
LEFT_HID
6
HIDDEN
10
1.215218
20
0.571438
30
0.0
11
1.215218
21
0.538622
31
0.0
0
LINE
8
LEFT_HID
6
HIDDEN
10
1.215218
20
0.789524
30
0.0
11
1.215218
21
0.673576
31
0.0
0
LINE
8
LEFT_HID
6
HIDDEN
10
1.215218
20
0.816751
30
0.0
11
1.215218
21
0.789524
31
0.0
0
LINE
8
LEFT_HID
6
HIDDEN
10
1.137093
20
0.816751
30
0.0
11
1.215218
21
0.816751
31
0.0
0
LINE
8
LEFT_HID
6
HIDDEN
10
1.137093
20
0.816751
30
0.0
11
1.137093
21
0.789524
31
0.0
0
LINE
8
LEFT_HID
6
HIDDEN
10
1.137093
20
0.673576
30
0.0
11
1.137093
21
0.672672
31
0.0
0
LINE
8
LEFT_HID
6
HIDDEN
10
1.137093
20
0.672672
30
0.0
11
1.137093
21
0.816751
31
0.0
0
LINE
8
LEFT_HID
6
HIDDEN
10
1.137093
20
0.672672
30
0.0
11
1.215218
21
0.672672
31
0.0
0
LINE
8
LEFT_HID
6
HIDDEN
10
1.215218
20
0.673576
30
0.0
11
1.215218
21
0.672672
31
0.0
0
LINE
8
LEFT_HID
6
HIDDEN
10
1.215218
20
0.578922
30
0.0
11
1.215218
21
0.571438
31
0.0
0
LINE
8
LEFT_HID
6
HIDDEN
10
1.137093
20
0.578922
30
0.0
11
1.215218
21
0.578922
31
0.0
0
LINE
8
LEFT_HID
6
HIDDEN
10
1.137093
20
0.578922
30
0.0
11
1.137093
21
0.571438
31
0.0
0
LINE
8
LEFT_HID
6
HIDDEN
10
1.137093
20
0.538622
30
0.0
11
1.137093
21
0.434843
31
0.0
0
LINE
8
LEFT_HID
6
HIDDEN
10
1.137093
20
0.434843
30
0.0
11
1.137093
21
0.578922
31
0.0
0
LINE
8
LEFT_HID
6
HIDDEN
10
1.137093
20
0.434843
30
0.0
11
1.215218
21
0.434843
31
0.0
0
LINE
8
LEFT_HID
6
HIDDEN
10
1.215218
20
0.538622
30
0.0
11
1.215218
21
0.434843
31
0.0
0
LINE
8
LEFT_HID
6
HIDDEN
10
1.371468
20
0.430484
30
0.0
11
1.371468
21
0.821109
31
0.0
0
LINE
8
LEFT_HID
6
HIDDEN
10
1.215218
20
0.763543
30
0.0
11
1.371468
21
0.763543
31
0.0
0
LINE
8
LEFT_HID
6
HIDDEN
10
1.371468
20
0.763543
30
0.0
11
1.371468
21
0.488050
31
0.0
0
LINE
8
LEFT_HID
6
HIDDEN
10
1.215218
20
0.488050
30
0.0
11
1.371468
21
0.488050
31
0.0
0
LINE
8
LEFT_HID
6
HIDDEN
10
1.371468
20
0.430484
30
0.0
11
1.371468
21
0.428968
31
0.0
0
LINE
8
LEFT_HID
6
HIDDEN
10
1.215218
20
0.673576
30
0.0
11
1.215218
21
0.789524
31
0.0
0
LINE
8
LEFT_HID
6
HIDDEN
10
1.215218
20
0.538622
30
0.0
11
1.215218
21
0.571438
31
0.0
0
LINE
8
LEFT_HID
6
HIDDEN
10
1.215218
20
0.672672
30
0.0
11
1.215218
21
0.816751
31
0.0
0
LINE
8
LEFT_HID
6
HIDDEN
10
1.137093
20
0.816751
30
0.0
11
1.215218
21
0.816751
31
0.0
0
LINE
8
LEFT_HID
6
HIDDEN
10
1.137093
20
0.672672
30
0.0
11
1.215218
21
0.672672
31
0.0
0
LINE
8
LEFT_HID
6
HIDDEN
10
1.215218
20
0.434843
30
0.0
11
1.215218
21
0.578922
31
0.0
0
LINE
8
LEFT_HID
6
HIDDEN
10
1.137093
20
0.578922
30
0.0
11
1.215218
21
0.578922
31
0.0
0
LINE
8
LEFT_HID
6
HIDDEN
10
1.137093
20
0.434843
30
0.0
11
1.215218
21
0.434843
31
0.0
0
LINE
8
LEFT_HID
6
HIDDEN
10
1.371468
20
0.763543
30
0.0
11
1.371468
21
0.488050
31
0.0
0
LINE
8
LEFT_HID
6
HIDDEN
10
1.371468
20
0.821109
30
0.0
11
1.371468
21
0.763543
31
0.0
0
LINE
8
LEFT_HID
6
HIDDEN
10
1.371468
20
0.488050
30
0.0
11
1.371468
21
0.430484
31
0.0
0
LINE
8
LEFT_HID
6
HIDDEN
10
1.137093
20
0.673083
30
0.0
11
1.215218
21
0.673083
31
0.0
0
LINE
8
LEFT_HID
6
HIDDEN
10
1.215218
20
0.673083
30
0.0
11
1.215218
21
0.821109
31
0.0
0
LINE
8
LEFT_HID
6
HIDDEN
10
1.137093
20
0.673083
30
0.0
11
1.137093
21
0.821109
31
0.0
0
LINE
8
LEFT_HID
6
HIDDEN
10
1.215218
20
0.821832
30
0.0
11
1.215218
21
0.429761
31
0.0
0
LINE
8
LEFT_HID
6
HIDDEN
10
1.215218
20
0.429761
30
0.0
11
1.215218
21
0.430484
31
0.0
0
LINE
8
LEFT_HID
6
HIDDEN
10
1.137093
20
0.430484
30
0.0
11
1.215218
21
0.430484
31
0.0
0
LINE
8
LEFT_HID
6
HIDDEN
10
1.137093
20
0.821832
30
0.0
11
1.137093
21
0.429761
31
0.0
0
LINE
8
LEFT_HID
6
HIDDEN
10
1.137093
20
0.429761
30
0.0
11
1.137093
21
0.430484
31
0.0
0
LINE
8
LEFT_HID
6
HIDDEN
10
1.137093
20
0.430484
30
0.0
11
1.137093
21
0.578511
31
0.0
0
LINE
8
LEFT_HID
6
HIDDEN
10
1.137093
20
0.578511
30
0.0
11
1.137093
21
0.673083
31
0.0
0
LINE
8
LEFT_HID
6
HIDDEN
10
1.215218
20
0.430484
30
0.0
11
1.215218
21
0.578511
31
0.0
0
LINE
8
LEFT_HID
6
HIDDEN
10
1.215218
20
0.578511
30
0.0
11
1.215218
21
0.673083
31
0.0
0
LINE
8
LEFT_HID
6
HIDDEN
10
1.137093
20
0.578511
30
0.0
11
1.215218
21
0.578511
31
0.0
0
LINE
8
LEFT_HID
6
HIDDEN
10
1.137093
20
0.430484
30
0.0
11
1.215218
21
0.430484
31
0.0
0
LINE
8
LEFT_HID
6
HIDDEN
10
1.215218
20
0.673600
30
0.0
11
1.137093
21
0.673600
31
0.0
0
LINE
8
LEFT_HID
6
HIDDEN
10
1.215218
20
0.570926
30
0.0
11
1.137093
21
0.570926
31
0.0
0
LINE
8
LEFT_HID
6
HIDDEN
10
1.215218
20
0.429761
30
0.0
11
1.137093
21
0.429761
31
0.0
0
LINE
8
TOP
10
0.734797
20
0.234375
30
0.0
11
0.195734
21
0.234375
31
0.0
0
LINE
8
TOP
10
0.734797
20
0.234375
30
0.0
11
0.734797
21
0.156250
31
0.0
0
LINE
8
TOP
10
0.734797
20
0.156250
30
0.0
11
0.195734
21
0.156250
31
0.0
0
LINE
8
TOP
10
0.000000
20
0.234375
30
0.0
11
0.195734
21
0.234375
31
0.0
0
LINE
8
TOP
10
0.392141
20
0.000000
30
0.0
11
0.195734
21
0.000000
31
0.0
0
LINE
8
TOP
10
0.000000
20
0.000000
30
0.0
11
0.195734
21
0.000000
31
0.0
0
LINE
8
TOP
10
0.734797
20
0.234375
30
0.0
11
0.734797
21
0.156250
31
0.0
0
LINE
8
TOP
10
0.734797
20
0.156250
30
0.0
11
0.947652
21
0.156250
31
0.0
0
LINE
8
TOP
10
0.734797
20
0.234375
30
0.0
11
0.947652
21
0.234375
31
0.0
0
LINE
8
TOP
10
0.195734
20
0.234375
30
0.0
11
0.195734
21
0.156250
31
0.0
0
LINE
8
TOP
10
0.000000
20
0.156250
30
0.0
11
0.000000
21
0.234375
31
0.0
0
LINE
8
TOP
10
0.392141
20
0.000000
30
0.0
11
0.392141
21
0.156250
31
0.0
0
LINE
8
TOP
10
0.000000
20
0.000000
30
0.0
11
0.000000
21
0.156250
31
0.0
0
LINE
8
TOP
10
0.947652
20
0.156250
30
0.0
11
0.947652
21
0.234375
31
0.0
0
LINE
8
TOP_HID
6
HIDDEN
10
0.323481
20
0.234375
30
0.0
11
0.195734
21
0.234375
31
0.0
0
LINE
8
TOP_HID
6
HIDDEN
10
0.323481
20
0.234375
30
0.0
11
0.394183
21
0.234375
31
0.0
0
LINE
8
TOP_HID
6
HIDDEN
10
0.394183
20
0.234375
30
0.0
11
0.218432
21
0.234375
31
0.0
0
LINE
8
TOP_HID
6
HIDDEN
10
0.218432
20
0.234375
30
0.0
11
0.734797
21
0.234375
31
0.0
0
LINE
8
TOP_HID
6
HIDDEN
10
0.734797
20
0.234375
30
0.0
11
0.570757
21
0.234375
31
0.0
0
LINE
8
TOP_HID
6
HIDDEN
10
0.557254
20
0.234375
30
0.0
11
0.570757
21
0.234375
31
0.0
0
LINE
8
TOP_HID
6
HIDDEN
10
0.557254
20
0.234375
30
0.0
11
0.479452
21
0.234375
31
0.0
0
LINE
8
TOP_HID
6
HIDDEN
10
0.479452
20
0.234375
30
0.0
11
0.420879
21
0.234375
31
0.0
0
LINE
8
TOP_HID
6
HIDDEN
10
0.420879
20
0.234375
30
0.0
11
0.473777
21
0.234375
31
0.0
0
LINE
8
TOP_HID
6
HIDDEN
10
0.473777
20
0.234375
30
0.0
11
0.555351
21
0.234375
31
0.0
0
LINE
8
TOP_HID
6
HIDDEN
10
0.642806
20
0.234375
30
0.0
11
0.555351
21
0.234375
31
0.0
0
LINE
8
TOP_HID
6
HIDDEN
10
0.642806
20
0.234375
30
0.0
11
0.734797
21
0.234375
31
0.0
0
LINE
8
TOP_HID
6
HIDDEN
10
0.195734
20
0.234375
30
0.0
11
0.220405
21
0.234375
31
0.0
0
LINE
8
TOP_HID
6
HIDDEN
10
0.220405
20
0.234375
30
0.0
11
0.392141
21
0.234375
31
0.0
0
LINE
8
TOP_HID
6
HIDDEN
10
0.392141
20
0.234375
30
0.0
11
0.323481
21
0.234375
31
0.0
0
LINE
8
TOP_HID
6
HIDDEN
10
0.195734
20
0.234375
30
0.0
11
0.333481
21
0.234375
31
0.0
0
LINE
8
TOP_HID
6
HIDDEN
10
0.333481
20
0.234375
30
0.0
11
0.195734
21
0.234375
31
0.0
0
LINE
8
TOP_HID
6
HIDDEN
10
0.642806
20
0.156250
30
0.0
11
0.642806
21
0.234375
31
0.0
0
LINE
8
TOP_HID
6
HIDDEN
10
0.642806
20
0.156250
30
0.0
11
0.734797
21
0.156250
31
0.0
0
LINE
8
TOP_HID
6
HIDDEN
10
0.555351
20
0.234375
30
0.0
11
0.558892
21
0.234375
31
0.0
0
LINE
8
TOP_HID
6
HIDDEN
10
0.558892
20
0.234375
30
0.0
11
0.642806
21
0.234375
31
0.0
0
LINE
8
TOP_HID
6
HIDDEN
10
0.473777
20
0.234375
30
0.0
11
0.473777
21
0.156250
31
0.0
0
LINE
8
TOP_HID
6
HIDDEN
10
0.473777
20
0.156250
30
0.0
11
0.555351
21
0.156250
31
0.0
0
LINE
8
TOP_HID
6
HIDDEN
10
0.555351
20
0.156250
30
0.0
11
0.555351
21
0.234375
31
0.0
0
LINE
8
TOP_HID
6
HIDDEN
10
0.479452
20
0.234375
30
0.0
11
0.479452
21
0.156250
31
0.0
0
LINE
8
TOP_HID
6
HIDDEN
10
0.479452
20
0.156250
30
0.0
11
0.420879
21
0.156250
31
0.0
0
LINE
8
TOP_HID
6
HIDDEN
10
0.420879
20
0.156250
30
0.0
11
0.473777
21
0.156250
31
0.0
0
LINE
8
TOP_HID
6
HIDDEN
10
0.557254
20
0.156250
30
0.0
11
0.557254
21
0.234375
31
0.0
0
LINE
8
TOP_HID
6
HIDDEN
10
0.557254
20
0.156250
30
0.0
11
0.479452
21
0.156250
31
0.0
0
LINE
8
TOP_HID
6
HIDDEN
10
0.558892
20
0.234375
30
0.0
11
0.557254
21
0.234375
31
0.0
0
LINE
8
TOP_HID
6
HIDDEN
10
0.570757
20
0.234375
30
0.0
11
0.558892
21
0.234375
31
0.0
0
LINE
8
TOP_HID
6
HIDDEN
10
0.734797
20
0.156250
30
0.0
11
0.570757
21
0.156250
31
0.0
0
LINE
8
TOP_HID
6
HIDDEN
10
0.570757
20
0.156250
30
0.0
11
0.570757
21
0.234375
31
0.0
0
LINE
8
TOP_HID
6
HIDDEN
10
0.218432
20
0.234375
30
0.0
11
0.218432
21
0.156250
31
0.0
0
LINE
8
TOP_HID
6
HIDDEN
10
0.218432
20
0.156250
30
0.0
11
0.734797
21
0.156250
31
0.0
0
LINE
8
TOP_HID
6
HIDDEN
10
0.323481
20
0.156250
30
0.0
11
0.323481
21
0.234375
31
0.0
0
LINE
8
TOP_HID
6
HIDDEN
10
0.323481
20
0.156250
30
0.0
11
0.394183
21
0.156250
31
0.0
0
LINE
8
TOP_HID
6
HIDDEN
10
0.394183
20
0.156250
30
0.0
11
0.218432
21
0.156250
31
0.0
0
LINE
8
TOP_HID
6
HIDDEN
10
0.220405
20
0.234375
30
0.0
11
0.000000
21
0.234375
31
0.0
0
LINE
8
TOP_HID
6
HIDDEN
10
0.195734
20
0.234375
30
0.0
11
0.057988
21
0.234375
31
0.0
0
LINE
8
TOP_HID
6
HIDDEN
10
0.057988
20
0.234375
30
0.0
11
0.195734
21
0.234375
31
0.0
0
LINE
8
TOP_HID
6
HIDDEN
10
0.323481
20
0.156250
30
0.0
11
0.195734
21
0.156250
31
0.0
0
LINE
8
TOP_HID
6
HIDDEN
10
0.557254
20
0.156250
30
0.0
11
0.570757
21
0.156250
31
0.0
0
LINE
8
TOP_HID
6
HIDDEN
10
0.642806
20
0.156250
30
0.0
11
0.555351
21
0.156250
31
0.0
0
LINE
8
TOP_HID
6
HIDDEN
10
0.726820
20
0.156250
30
0.0
11
0.642806
21
0.156250
31
0.0
0
LINE
8
TOP_HID
6
HIDDEN
10
0.726820
20
0.234375
30
0.0
11
0.726820
21
0.156250
31
0.0
0
LINE
8
TOP_HID
6
HIDDEN
10
0.726820
20
0.234375
30
0.0
11
0.642806
21
0.234375
31
0.0
0
LINE
8
TOP_HID
6
HIDDEN
10
0.555351
20
0.234375
30
0.0
11
0.555109
21
0.234375
31
0.0
0
LINE
8
TOP_HID
6
HIDDEN
10
0.555109
20
0.234375
30
0.0
11
0.742609
21
0.234375
31
0.0
0
LINE
8
TOP_HID
6
HIDDEN
10
0.742609
20
0.234375
30
0.0
11
0.726820
21
0.234375
31
0.0
0
LINE
8
TOP_HID
6
HIDDEN
10
0.555109
20
0.234375
30
0.0
11
0.555109
21
0.156250
31
0.0
0
LINE
8
TOP_HID
6
HIDDEN
10
0.555351
20
0.156250
30
0.0
11
0.555109
21
0.156250
31
0.0
0
LINE
8
TOP_HID
6
HIDDEN
10
0.555109
20
0.156250
30
0.0
11
0.557254
21
0.156250
31
0.0
0
LINE
8
TOP_HID
6
HIDDEN
10
0.555109
20
0.234375
30
0.0
11
0.555109
21
0.156250
31
0.0
0
LINE
8
TOP_HID
6
HIDDEN
10
0.555109
20
0.234375
30
0.0
11
0.557254
21
0.234375
31
0.0
0
LINE
8
TOP_HID
6
HIDDEN
10
0.742609
20
0.234375
30
0.0
11
0.555109
21
0.234375
31
0.0
0
LINE
8
TOP_HID
6
HIDDEN
10
0.570757
20
0.234375
30
0.0
11
0.726820
21
0.234375
31
0.0
0
LINE
8
TOP_HID
6
HIDDEN
10
0.726820
20
0.234375
30
0.0
11
0.742609
21
0.234375
31
0.0
0
LINE
8
TOP_HID
6
HIDDEN
10
0.726820
20
0.234375
30
0.0
11
0.726820
21
0.156250
31
0.0
0
LINE
8
TOP_HID
6
HIDDEN
10
0.570757
20
0.156250
30
0.0
11
0.726820
21
0.156250
31
0.0
0
LINE
8
TOP_HID
6
HIDDEN
10
0.220405
20
0.000000
30
0.0
11
0.392141
21
0.000000
31
0.0
0
LINE
8
TOP_HID
6
HIDDEN
10
0.195734
20
0.000000
30
0.0
11
0.333481
21
0.000000
31
0.0
0
LINE
8
TOP_HID
6
HIDDEN
10
0.333481
20
0.000000
30
0.0
11
0.195734
21
0.000000
31
0.0
0
LINE
8
TOP_HID
6
HIDDEN
10
0.220405
20
0.000000
30
0.0
11
0.000000
21
0.000000
31
0.0
0
LINE
8
TOP_HID
6
HIDDEN
10
0.555351
20
0.156250
30
0.0
11
0.558892
21
0.156250
31
0.0
0
LINE
8
TOP_HID
6
HIDDEN
10
0.558892
20
0.156250
30
0.0
11
0.642806
21
0.156250
31
0.0
0
LINE
8
TOP_HID
6
HIDDEN
10
0.558892
20
0.156250
30
0.0
11
0.557254
21
0.156250
31
0.0
0
LINE
8
TOP_HID
6
HIDDEN
10
0.570757
20
0.156250
30
0.0
11
0.558892
21
0.156250
31
0.0
0
LINE
8
TOP_HID
6
HIDDEN
10
0.555109
20
0.156250
30
0.0
11
0.742609
21
0.156250
31
0.0
0
LINE
8
TOP_HID
6
HIDDEN
10
0.742609
20
0.156250
30
0.0
11
0.726820
21
0.156250
31
0.0
0
LINE
8
TOP_HID
6
HIDDEN
10
0.742609
20
0.234375
30
0.0
11
0.742609
21
0.156250
31
0.0
0
LINE
8
TOP_HID
6
HIDDEN
10
0.742609
20
0.234375
30
0.0
11
0.742609
21
0.156250
31
0.0
0
LINE
8
TOP_HID
6
HIDDEN
10
0.742609
20
0.156250
30
0.0
11
0.555109
21
0.156250
31
0.0
0
LINE
8
TOP_HID
6
HIDDEN
10
0.726820
20
0.156250
30
0.0
11
0.742609
21
0.156250
31
0.0
0
LINE
8
TOP_HID
6
HIDDEN
10
0.742609
20
0.234375
30
0.0
11
0.742609
21
0.156250
31
0.0
0
LINE
8
TOP_HID
6
HIDDEN
10
0.742609
20
0.234375
30
0.0
11
0.742609
21
0.156250
31
0.0
0
LINE
8
TOP_HID
6
HIDDEN
10
0.195734
20
0.000000
30
0.0
11
0.057988
21
0.000000
31
0.0
0
LINE
8
TOP_HID
6
HIDDEN
10
0.057988
20
0.000000
30
0.0
11
0.195734
21
0.000000
31
0.0
0
LINE
8
TOP_HID
6
HIDDEN
10
0.195734
20
0.000000
30
0.0
11
0.220405
21
0.000000
31
0.0
0
LINE
8
TOP_HID
6
HIDDEN
10
0.751244
20
0.234375
30
0.0
11
0.751244
21
0.156250
31
0.0
0
LINE
8
TOP_HID
6
HIDDEN
10
0.751244
20
0.156250
30
0.0
11
0.734797
21
0.156250
31
0.0
0
LINE
8
TOP_HID
6
HIDDEN
10
0.751244
20
0.234375
30
0.0
11
0.734797
21
0.234375
31
0.0
0
LINE
8
TOP_HID
6
HIDDEN
10
0.751244
20
0.234375
30
0.0
11
0.751244
21
0.156250
31
0.0
0
LINE
8
TOP_HID
6
HIDDEN
10
0.734797
20
0.234375
30
0.0
11
0.751244
21
0.234375
31
0.0
0
LINE
8
TOP_HID
6
HIDDEN
10
0.751244
20
0.234375
30
0.0
11
0.798530
21
0.234375
31
0.0
0
LINE
8
TOP_HID
6
HIDDEN
10
0.798530
20
0.234375
30
0.0
11
0.751244
21
0.234375
31
0.0
0
LINE
8
TOP_HID
6
HIDDEN
10
0.734797
20
0.156250
30
0.0
11
0.751244
21
0.156250
31
0.0
0
LINE
8
TOP_HID
6
HIDDEN
10
0.751244
20
0.156250
30
0.0
11
0.798530
21
0.156250
31
0.0
0
LINE
8
TOP_HID
6
HIDDEN
10
0.798530
20
0.156250
30
0.0
11
0.751244
21
0.156250
31
0.0
0
LINE
8
TOP_HID
6
HIDDEN
10
0.751244
20
0.234375
30
0.0
11
0.751244
21
0.156250
31
0.0
0
LINE
8
TOP_HID
6
HIDDEN
10
0.751244
20
0.234375
30
0.0
11
0.751244
21
0.156250
31
0.0
0
LINE
8
TOP_HID
6
HIDDEN
10
0.420879
20
0.156250
30
0.0
11
0.420879
21
0.234375
31
0.0
0
LINE
8
TOP_HID
6
HIDDEN
10
0.394183
20
0.156250
30
0.0
11
0.394183
21
0.234375
31
0.0
0
LINE
8
TOP_HID
6
HIDDEN
10
0.392141
20
0.156250
30
0.0
11
0.392141
21
0.234375
31
0.0
0
LINE
8
TOP_HID
6
HIDDEN
10
0.333481
20
0.156250
30
0.0
11
0.333481
21
0.234375
31
0.0
0
LINE
8
TOP_HID
6
HIDDEN
10
0.057988
20
0.156250
30
0.0
11
0.057988
21
0.234375
31
0.0
0
LINE
8
TOP_HID
6
HIDDEN
10
0.333481
20
0.000000
30
0.0
11
0.333481
21
0.156250
31
0.0
0
LINE
8
TOP_HID
6
HIDDEN
10
0.057988
20
0.000000
30
0.0
11
0.057988
21
0.156250
31
0.0
0
LINE
8
TOP_HID
6
HIDDEN
10
0.798530
20
0.156250
30
0.0
11
0.798530
21
0.234375
31
0.0
0
ENDSEC
0
EOF
