0
SECTION
2
HEADER
9
$ACADVER
1
AC1009
0
ENDSEC
0
SECTION
2
TABLES
0
TABLE
2
LTYPE
70
3
0
LTYPE
2
CONTINUOUS
70
0
3
Solid line
72
65
73
0
40
0.0
0
LTYPE
2
HIDDEN
70
0
3
__ __ __ __ __
72
65
73
2
40
0.017393
49
0.011601
49
-0.005792
0
LTYPE
2
CENTER
70
0
3
___ _ ___ _ ___
72
65
73
4
40
0.040578
49
0.023185
49
-0.005792
49
0.005792
49
-0.005792
0
ENDTAB
0
TABLE
2
LAYER
70
6
0
LAYER
2
0
70
0
62
7
6
CONTINUOUS
0
LAYER
2
FRONT
70
0
62
7
6
CONTINUOUS
0
LAYER
2
FRONT_HID
70
0
62
7
6
HIDDEN
0
LAYER
2
LEFT
70
0
62
7
6
CONTINUOUS
0
LAYER
2
LEFT_HID
70
0
62
7
6
HIDDEN
0
LAYER
2
TOP
70
0
62
7
6
CONTINUOUS
0
ENDTAB
0
ENDSEC
0
SECTION
2
ENTITIES
0
LINE
8
FRONT
10
0.347862
20
0.417326
30
0.0
11
0.000000
21
0.417326
31
0.0
0
LINE
8
FRONT
10
0.347862
20
0.417326
30
0.0
11
0.347862
21
0.487639
31
0.0
0
LINE
8
FRONT
10
0.347862
20
0.487639
30
0.0
11
0.000000
21
0.487639
31
0.0
0
LINE
8
FRONT
10
0.247780
20
0.487639
30
0.0
11
0.247780
21
0.557951
31
0.0
0
LINE
8
FRONT
10
0.247780
20
0.557951
30
0.0
11
0.105674
21
0.557951
31
0.0
0
LINE
8
FRONT
10
0.000000
20
0.487639
30
0.0
11
0.000000
21
0.417326
31
0.0
0
LINE
8
FRONT
10
0.105674
20
0.557951
30
0.0
11
0.105674
21
0.487639
31
0.0
0
LINE
8
FRONT_HID
6
HIDDEN
10
0.207977
20
0.417326
30
0.0
11
0.136924
21
0.417326
31
0.0
0
LINE
8
FRONT_HID
6
HIDDEN
10
0.136924
20
0.417326
30
0.0
11
0.207977
21
0.417326
31
0.0
0
LINE
8
FRONT_HID
6
HIDDEN
10
0.247780
20
0.487639
30
0.0
11
0.105674
21
0.487639
31
0.0
0
LINE
8
FRONT_HID
6
HIDDEN
10
0.105674
20
0.487639
30
0.0
11
0.247780
21
0.487639
31
0.0
0
LINE
8
FRONT_HID
6
HIDDEN
10
0.207977
20
0.557951
30
0.0
11
0.207977
21
0.417326
31
0.0
0
LINE
8
FRONT_HID
6
HIDDEN
10
0.207977
20
0.557951
30
0.0
11
0.136924
21
0.557951
31
0.0
0
LINE
8
FRONT_HID
6
HIDDEN
10
0.136924
20
0.557951
30
0.0
11
0.207977
21
0.557951
31
0.0
0
LINE
8
FRONT_HID
6
HIDDEN
10
0.136924
20
0.417326
30
0.0
11
0.136924
21
0.557951
31
0.0
0
LINE
8
LEFT
10
0.417434
20
0.417326
30
0.0
11
0.765296
21
0.417326
31
0.0
0
LINE
8
LEFT
10
0.417434
20
0.487639
30
0.0
11
0.765296
21
0.487639
31
0.0
0
LINE
8
LEFT
10
0.520313
20
0.557951
30
0.0
11
0.662418
21
0.557951
31
0.0
0
LINE
8
LEFT
10
0.417434
20
0.487639
30
0.0
11
0.417434
21
0.417326
31
0.0
0
LINE
8
LEFT
10
0.765296
20
0.487639
30
0.0
11
0.765296
21
0.417326
31
0.0
0
LINE
8
LEFT
10
0.520313
20
0.557951
30
0.0
11
0.520313
21
0.487639
31
0.0
0
LINE
8
LEFT
10
0.662418
20
0.557951
30
0.0
11
0.662418
21
0.487639
31
0.0
0
LINE
8
LEFT_HID
6
HIDDEN
10
0.591365
20
0.417326
30
0.0
11
0.417434
21
0.417326
31
0.0
0
LINE
8
LEFT_HID
6
HIDDEN
10
0.765296
20
0.417326
30
0.0
11
0.591365
21
0.417326
31
0.0
0
LINE
8
LEFT_HID
6
HIDDEN
10
0.591365
20
0.487639
30
0.0
11
0.417434
21
0.487639
31
0.0
0
LINE
8
LEFT_HID
6
HIDDEN
10
0.765296
20
0.487639
30
0.0
11
0.591365
21
0.487639
31
0.0
0
LINE
8
LEFT_HID
6
HIDDEN
10
0.591365
20
0.417326
30
0.0
11
0.555839
21
0.417326
31
0.0
0
LINE
8
LEFT_HID
6
HIDDEN
10
0.555839
20
0.417326
30
0.0
11
0.626891
21
0.417326
31
0.0
0
LINE
8
LEFT_HID
6
HIDDEN
10
0.626891
20
0.417326
30
0.0
11
0.591365
21
0.417326
31
0.0
0
LINE
8
LEFT_HID
6
HIDDEN
10
0.591365
20
0.487639
30
0.0
11
0.520313
21
0.487639
31
0.0
0
LINE
8
LEFT_HID
6
HIDDEN
10
0.520313
20
0.487639
30
0.0
11
0.662418
21
0.487639
31
0.0
0
LINE
8
LEFT_HID
6
HIDDEN
10
0.662418
20
0.487639
30
0.0
11
0.591365
21
0.487639
31
0.0
0
LINE
8
LEFT_HID
6
HIDDEN
10
0.591365
20
0.557951
30
0.0
11
0.555839
21
0.557951
31
0.0
0
LINE
8
LEFT_HID
6
HIDDEN
10
0.555839
20
0.557951
30
0.0
11
0.626891
21
0.557951
31
0.0
0
LINE
8
LEFT_HID
6
HIDDEN
10
0.626891
20
0.557951
30
0.0
11
0.591365
21
0.557951
31
0.0
0
LINE
8
LEFT_HID
6
HIDDEN
10
0.591365
20
0.557951
30
0.0
11
0.520313
21
0.557951
31
0.0
0
LINE
8
LEFT_HID
6
HIDDEN
10
0.662418
20
0.557951
30
0.0
11
0.591365
21
0.557951
31
0.0
0
LINE
8
LEFT_HID
6
HIDDEN
10
0.626891
20
0.417326
30
0.0
11
0.626891
21
0.557951
31
0.0
0
LINE
8
LEFT_HID
6
HIDDEN
10
0.555839
20
0.417326
30
0.0
11
0.555839
21
0.557951
31
0.0
0
LINE
8
TOP
10
0.347646
20
0.173877
30
0.0
11
0.346781
21
0.191195
31
0.0
0
LINE
8
TOP
10
0.346781
20
0.191195
30
0.0
11
0.344197
21
0.208341
31
0.0
0
LINE
8
TOP
10
0.344197
20
0.208341
30
0.0
11
0.339918
21
0.225144
31
0.0
0
LINE
8
TOP
10
0.339918
20
0.225144
30
0.0
11
0.333988
21
0.241438
31
0.0
0
LINE
8
TOP
10
0.333988
20
0.241438
30
0.0
11
0.326465
21
0.257060
31
0.0
0
LINE
8
TOP
10
0.326465
20
0.257060
30
0.0
11
0.317423
21
0.271856
31
0.0
0
LINE
8
TOP
10
0.317423
20
0.271856
30
0.0
11
0.306954
21
0.285678
31
0.0
0
LINE
8
TOP
10
0.306954
20
0.285678
30
0.0
11
0.295160
21
0.298388
31
0.0
0
LINE
8
TOP
10
0.295160
20
0.298388
30
0.0
11
0.282159
21
0.309862
31
0.0
0
LINE
8
TOP
10
0.282159
20
0.309862
30
0.0
11
0.268080
21
0.319983
31
0.0
0
LINE
8
TOP
10
0.268080
20
0.319983
30
0.0
11
0.253064
21
0.328653
31
0.0
0
LINE
8
TOP
10
0.253064
20
0.328653
30
0.0
11
0.237259
21
0.335785
31
0.0
0
LINE
8
TOP
10
0.237259
20
0.335785
30
0.0
11
0.220822
21
0.341307
31
0.0
0
LINE
8
TOP
10
0.220822
20
0.341307
30
0.0
11
0.203917
21
0.345165
31
0.0
0
LINE
8
TOP
10
0.203917
20
0.345165
30
0.0
11
0.186713
21
0.347321
31
0.0
0
LINE
8
TOP
10
0.186713
20
0.347321
30
0.0
11
0.169378
21
0.347754
31
0.0
0
LINE
8
TOP
10
0.169378
20
0.347754
30
0.0
11
0.152087
21
0.346458
31
0.0
0
LINE
8
TOP
10
0.152087
20
0.346458
30
0.0
11
0.135011
21
0.343447
31
0.0
0
LINE
8
TOP
10
0.135011
20
0.343447
30
0.0
11
0.118320
21
0.338751
31
0.0
0
LINE
8
TOP
10
0.118320
20
0.338751
30
0.0
11
0.102179
21
0.332416
31
0.0
0
LINE
8
TOP
10
0.102179
20
0.332416
30
0.0
11
0.086749
21
0.324505
31
0.0
0
LINE
8
TOP
10
0.086749
20
0.324505
30
0.0
11
0.072184
21
0.315098
31
0.0
0
LINE
8
TOP
10
0.072184
20
0.315098
30
0.0
11
0.058627
21
0.304287
31
0.0
0
LINE
8
TOP
10
0.058627
20
0.304287
30
0.0
11
0.046214
21
0.292180
31
0.0
0
LINE
8
TOP
10
0.046214
20
0.292180
30
0.0
11
0.035069
21
0.278897
31
0.0
0
LINE
8
TOP
10
0.035069
20
0.278897
30
0.0
11
0.025301
21
0.264571
31
0.0
0
LINE
8
TOP
10
0.025301
20
0.264571
30
0.0
11
0.017008
21
0.249343
31
0.0
0
LINE
8
TOP
10
0.017008
20
0.249343
30
0.0
11
0.010273
21
0.233365
31
0.0
0
LINE
8
TOP
10
0.010273
20
0.233365
30
0.0
11
0.005162
21
0.216796
31
0.0
0
LINE
8
TOP
10
0.005162
20
0.216796
30
0.0
11
0.001726
21
0.199800
31
0.0
0
LINE
8
TOP
10
0.001726
20
0.199800
30
0.0
11
0.000000
21
0.182547
31
0.0
0
LINE
8
TOP
10
0.000000
20
0.182547
30
0.0
11
0.000000
21
0.165207
31
0.0
0
LINE
8
TOP
10
0.000000
20
0.165207
30
0.0
11
0.001726
21
0.147954
31
0.0
0
LINE
8
TOP
10
0.001726
20
0.147954
30
0.0
11
0.005162
21
0.130958
31
0.0
0
LINE
8
TOP
10
0.005162
20
0.130958
30
0.0
11
0.010273
21
0.114389
31
0.0
0
LINE
8
TOP
10
0.010273
20
0.114389
30
0.0
11
0.017008
21
0.098411
31
0.0
0
LINE
8
TOP
10
0.017008
20
0.098411
30
0.0
11
0.025301
21
0.083183
31
0.0
0
LINE
8
TOP
10
0.025301
20
0.083183
30
0.0
11
0.035069
21
0.068857
31
0.0
0
LINE
8
TOP
10
0.035069
20
0.068857
30
0.0
11
0.046214
21
0.055574
31
0.0
0
LINE
8
TOP
10
0.046214
20
0.055574
30
0.0
11
0.058627
21
0.043467
31
0.0
0
LINE
8
TOP
10
0.058627
20
0.043467
30
0.0
11
0.072184
21
0.032656
31
0.0
0
LINE
8
TOP
10
0.072184
20
0.032656
30
0.0
11
0.086749
21
0.023248
31
0.0
0
LINE
8
TOP
10
0.086749
20
0.023248
30
0.0
11
0.102179
21
0.015338
31
0.0
0
LINE
8
TOP
10
0.102179
20
0.015338
30
0.0
11
0.118320
21
0.009003
31
0.0
0
LINE
8
TOP
10
0.118320
20
0.009003
30
0.0
11
0.135011
21
0.004307
31
0.0
0
LINE
8
TOP
10
0.135011
20
0.004307
30
0.0
11
0.152087
21
0.001296
31
0.0
0
LINE
8
TOP
10
0.152087
20
0.001296
30
0.0
11
0.169378
21
0.000000
31
0.0
0
LINE
8
TOP
10
0.169378
20
0.000000
30
0.0
11
0.186713
21
0.000432
31
0.0
0
LINE
8
TOP
10
0.186713
20
0.000432
30
0.0
11
0.203917
21
0.002588
31
0.0
0
LINE
8
TOP
10
0.203917
20
0.002588
30
0.0
11
0.220822
21
0.006447
31
0.0
0
LINE
8
TOP
10
0.220822
20
0.006447
30
0.0
11
0.237259
21
0.011969
31
0.0
0
LINE
8
TOP
10
0.237259
20
0.011969
30
0.0
11
0.253064
21
0.019101
31
0.0
0
LINE
8
TOP
10
0.253064
20
0.019101
30
0.0
11
0.268080
21
0.027770
31
0.0
0
LINE
8
TOP
10
0.268080
20
0.027770
30
0.0
11
0.282159
21
0.037892
31
0.0
0
LINE
8
TOP
10
0.282159
20
0.037892
30
0.0
11
0.295160
21
0.049365
31
0.0
0
LINE
8
TOP
10
0.295160
20
0.049365
30
0.0
11
0.306954
21
0.062076
31
0.0
0
LINE
8
TOP
10
0.306954
20
0.062076
30
0.0
11
0.317423
21
0.075898
31
0.0
0
LINE
8
TOP
10
0.317423
20
0.075898
30
0.0
11
0.326465
21
0.090694
31
0.0
0
LINE
8
TOP
10
0.326465
20
0.090694
30
0.0
11
0.333988
21
0.106316
31
0.0
0
LINE
8
TOP
10
0.333988
20
0.106316
30
0.0
11
0.339918
21
0.122610
31
0.0
0
LINE
8
TOP
10
0.339918
20
0.122610
30
0.0
11
0.344197
21
0.139413
31
0.0
0
LINE
8
TOP
10
0.344197
20
0.139413
30
0.0
11
0.346781
21
0.156559
31
0.0
0
LINE
8
TOP
10
0.346781
20
0.156559
30
0.0
11
0.347646
21
0.173877
31
0.0
0
LINE
8
TOP
10
0.207761
20
0.173877
30
0.0
11
0.207584
21
0.177414
31
0.0
0
LINE
8
TOP
10
0.207584
20
0.177414
30
0.0
11
0.207056
21
0.180916
31
0.0
0
LINE
8
TOP
10
0.207056
20
0.180916
30
0.0
11
0.206182
21
0.184348
31
0.0
0
LINE
8
TOP
10
0.206182
20
0.184348
30
0.0
11
0.204971
21
0.187677
31
0.0
0
LINE
8
TOP
10
0.204971
20
0.187677
30
0.0
11
0.203434
21
0.190867
31
0.0
0
LINE
8
TOP
10
0.203434
20
0.190867
30
0.0
11
0.201588
21
0.193890
31
0.0
0
LINE
8
TOP
10
0.201588
20
0.193890
30
0.0
11
0.199449
21
0.196713
31
0.0
0
LINE
8
TOP
10
0.199449
20
0.196713
30
0.0
11
0.197040
21
0.199309
31
0.0
0
LINE
8
TOP
10
0.197040
20
0.199309
30
0.0
11
0.194385
21
0.201652
31
0.0
0
LINE
8
TOP
10
0.194385
20
0.201652
30
0.0
11
0.191509
21
0.203720
31
0.0
0
LINE
8
TOP
10
0.191509
20
0.203720
30
0.0
11
0.188442
21
0.205491
31
0.0
0
LINE
8
TOP
10
0.188442
20
0.205491
30
0.0
11
0.185214
21
0.206947
31
0.0
0
LINE
8
TOP
10
0.185214
20
0.206947
30
0.0
11
0.181856
21
0.208075
31
0.0
0
LINE
8
TOP
10
0.181856
20
0.208075
30
0.0
11
0.178404
21
0.208863
31
0.0
0
LINE
8
TOP
10
0.178404
20
0.208863
30
0.0
11
0.174889
21
0.209304
31
0.0
0
LINE
8
TOP
10
0.174889
20
0.209304
30
0.0
11
0.171349
21
0.209392
31
0.0
0
LINE
8
TOP
10
0.171349
20
0.209392
30
0.0
11
0.167817
21
0.209127
31
0.0
0
LINE
8
TOP
10
0.167817
20
0.209127
30
0.0
11
0.164329
21
0.208512
31
0.0
0
LINE
8
TOP
10
0.164329
20
0.208512
30
0.0
11
0.160920
21
0.207553
31
0.0
0
LINE
8
TOP
10
0.160920
20
0.207553
30
0.0
11
0.157623
21
0.206259
31
0.0
0
LINE
8
TOP
10
0.157623
20
0.206259
30
0.0
11
0.154471
21
0.204644
31
0.0
0
LINE
8
TOP
10
0.154471
20
0.204644
30
0.0
11
0.151496
21
0.202722
31
0.0
0
LINE
8
TOP
10
0.151496
20
0.202722
30
0.0
11
0.148727
21
0.200514
31
0.0
0
LINE
8
TOP
10
0.148727
20
0.200514
30
0.0
11
0.146192
21
0.198041
31
0.0
0
LINE
8
TOP
10
0.146192
20
0.198041
30
0.0
11
0.143915
21
0.195328
31
0.0
0
LINE
8
TOP
10
0.143915
20
0.195328
30
0.0
11
0.141920
21
0.192402
31
0.0
0
LINE
8
TOP
10
0.141920
20
0.192402
30
0.0
11
0.140226
21
0.189291
31
0.0
0
LINE
8
TOP
10
0.140226
20
0.189291
30
0.0
11
0.138851
21
0.186028
31
0.0
0
LINE
8
TOP
10
0.138851
20
0.186028
30
0.0
11
0.137807
21
0.182643
31
0.0
0
LINE
8
TOP
10
0.137807
20
0.182643
30
0.0
11
0.137105
21
0.179172
31
0.0
0
LINE
8
TOP
10
0.137105
20
0.179172
30
0.0
11
0.136752
21
0.175648
31
0.0
0
LINE
8
TOP
10
0.136752
20
0.175648
30
0.0
11
0.136752
21
0.172106
31
0.0
0
LINE
8
TOP
10
0.136752
20
0.172106
30
0.0
11
0.137105
21
0.168582
31
0.0
0
LINE
8
TOP
10
0.137105
20
0.168582
30
0.0
11
0.137807
21
0.165110
31
0.0
0
LINE
8
TOP
10
0.137807
20
0.165110
30
0.0
11
0.138851
21
0.161726
31
0.0
0
LINE
8
TOP
10
0.138851
20
0.161726
30
0.0
11
0.140226
21
0.158463
31
0.0
0
LINE
8
TOP
10
0.140226
20
0.158463
30
0.0
11
0.141920
21
0.155352
31
0.0
0
LINE
8
TOP
10
0.141920
20
0.155352
30
0.0
11
0.143915
21
0.152426
31
0.0
0
LINE
8
TOP
10
0.143915
20
0.152426
30
0.0
11
0.146192
21
0.149713
31
0.0
0
LINE
8
TOP
10
0.146192
20
0.149713
30
0.0
11
0.148727
21
0.147240
31
0.0
0
LINE
8
TOP
10
0.148727
20
0.147240
30
0.0
11
0.151496
21
0.145032
31
0.0
0
LINE
8
TOP
10
0.151496
20
0.145032
30
0.0
11
0.154471
21
0.143110
31
0.0
0
LINE
8
TOP
10
0.154471
20
0.143110
30
0.0
11
0.157623
21
0.141494
31
0.0
0
LINE
8
TOP
10
0.157623
20
0.141494
30
0.0
11
0.160920
21
0.140200
31
0.0
0
LINE
8
TOP
10
0.160920
20
0.140200
30
0.0
11
0.164329
21
0.139241
31
0.0
0
LINE
8
TOP
10
0.164329
20
0.139241
30
0.0
11
0.167817
21
0.138626
31
0.0
0
LINE
8
TOP
10
0.167817
20
0.138626
30
0.0
11
0.171349
21
0.138362
31
0.0
0
LINE
8
TOP
10
0.171349
20
0.138362
30
0.0
11
0.174889
21
0.138450
31
0.0
0
LINE
8
TOP
10
0.174889
20
0.138450
30
0.0
11
0.178404
21
0.138890
31
0.0
0
LINE
8
TOP
10
0.178404
20
0.138890
30
0.0
11
0.181856
21
0.139678
31
0.0
0
LINE
8
TOP
10
0.181856
20
0.139678
30
0.0
11
0.185214
21
0.140806
31
0.0
0
LINE
8
TOP
10
0.185214
20
0.140806
30
0.0
11
0.188442
21
0.142263
31
0.0
0
LINE
8
TOP
10
0.188442
20
0.142263
30
0.0
11
0.191509
21
0.144034
31
0.0
0
LINE
8
TOP
10
0.191509
20
0.144034
30
0.0
11
0.194385
21
0.146101
31
0.0
0
LINE
8
TOP
10
0.194385
20
0.146101
30
0.0
11
0.197040
21
0.148445
31
0.0
0
LINE
8
TOP
10
0.197040
20
0.148445
30
0.0
11
0.199449
21
0.151041
31
0.0
0
LINE
8
TOP
10
0.199449
20
0.151041
30
0.0
11
0.201588
21
0.153864
31
0.0
0
LINE
8
TOP
10
0.201588
20
0.153864
30
0.0
11
0.203434
21
0.156886
31
0.0
0
LINE
8
TOP
10
0.203434
20
0.156886
30
0.0
11
0.204971
21
0.160077
31
0.0
0
LINE
8
TOP
10
0.204971
20
0.160077
30
0.0
11
0.206182
21
0.163405
31
0.0
0
LINE
8
TOP
10
0.206182
20
0.163405
30
0.0
11
0.207056
21
0.166837
31
0.0
0
LINE
8
TOP
10
0.207056
20
0.166837
30
0.0
11
0.207584
21
0.170340
31
0.0
0
LINE
8
TOP
10
0.207584
20
0.170340
30
0.0
11
0.207761
21
0.173877
31
0.0
0
LINE
8
TOP
10
0.247563
20
0.173877
30
0.0
11
0.247210
21
0.180951
31
0.0
0
LINE
8
TOP
10
0.247210
20
0.180951
30
0.0
11
0.246155
21
0.187956
31
0.0
0
LINE
8
TOP
10
0.246155
20
0.187956
30
0.0
11
0.244407
21
0.194820
31
0.0
0
LINE
8
TOP
10
0.244407
20
0.194820
30
0.0
11
0.241984
21
0.201476
31
0.0
0
LINE
8
TOP
10
0.241984
20
0.201476
30
0.0
11
0.238911
21
0.207858
31
0.0
0
LINE
8
TOP
10
0.238911
20
0.207858
30
0.0
11
0.235217
21
0.213902
31
0.0
0
LINE
8
TOP
10
0.235217
20
0.213902
30
0.0
11
0.230940
21
0.219549
31
0.0
0
LINE
8
TOP
10
0.230940
20
0.219549
30
0.0
11
0.226122
21
0.224741
31
0.0
0
LINE
8
TOP
10
0.226122
20
0.224741
30
0.0
11
0.220811
21
0.229428
31
0.0
0
LINE
8
TOP
10
0.220811
20
0.229428
30
0.0
11
0.215060
21
0.233563
31
0.0
0
LINE
8
TOP
10
0.215060
20
0.233563
30
0.0
11
0.208926
21
0.237105
31
0.0
0
LINE
8
TOP
10
0.208926
20
0.237105
30
0.0
11
0.202469
21
0.240018
31
0.0
0
LINE
8
TOP
10
0.202469
20
0.240018
30
0.0
11
0.195755
21
0.242274
31
0.0
0
LINE
8
TOP
10
0.195755
20
0.242274
30
0.0
11
0.188849
21
0.243850
31
0.0
0
LINE
8
TOP
10
0.188849
20
0.243850
30
0.0
11
0.181821
21
0.244731
31
0.0
0
LINE
8
TOP
10
0.181821
20
0.244731
30
0.0
11
0.174739
21
0.244907
31
0.0
0
LINE
8
TOP
10
0.174739
20
0.244907
30
0.0
11
0.167676
21
0.244378
31
0.0
0
LINE
8
TOP
10
0.167676
20
0.244378
30
0.0
11
0.160700
21
0.243148
31
0.0
0
LINE
8
TOP
10
0.160700
20
0.243148
30
0.0
11
0.153881
21
0.241230
31
0.0
0
LINE
8
TOP
10
0.153881
20
0.241230
30
0.0
11
0.147288
21
0.238642
31
0.0
0
LINE
8
TOP
10
0.147288
20
0.238642
30
0.0
11
0.140984
21
0.235410
31
0.0
0
LINE
8
TOP
10
0.140984
20
0.235410
30
0.0
11
0.135034
21
0.231567
31
0.0
0
LINE
8
TOP
10
0.135034
20
0.231567
30
0.0
11
0.129496
21
0.227151
31
0.0
0
LINE
8
TOP
10
0.129496
20
0.227151
30
0.0
11
0.124425
21
0.222205
31
0.0
0
LINE
8
TOP
10
0.124425
20
0.222205
30
0.0
11
0.119872
21
0.216779
31
0.0
0
LINE
8
TOP
10
0.119872
20
0.216779
30
0.0
11
0.115882
21
0.210926
31
0.0
0
LINE
8
TOP
10
0.115882
20
0.210926
30
0.0
11
0.112495
21
0.204705
31
0.0
0
LINE
8
TOP
10
0.112495
20
0.204705
30
0.0
11
0.109743
21
0.198178
31
0.0
0
LINE
8
TOP
10
0.109743
20
0.198178
30
0.0
11
0.107655
21
0.191410
31
0.0
0
LINE
8
TOP
10
0.107655
20
0.191410
30
0.0
11
0.106252
21
0.184467
31
0.0
0
LINE
8
TOP
10
0.106252
20
0.184467
30
0.0
11
0.105546
21
0.177419
31
0.0
0
LINE
8
TOP
10
0.105546
20
0.177419
30
0.0
11
0.105546
21
0.170335
31
0.0
0
LINE
8
TOP
10
0.105546
20
0.170335
30
0.0
11
0.106252
21
0.163287
31
0.0
0
LINE
8
TOP
10
0.106252
20
0.163287
30
0.0
11
0.107655
21
0.156344
31
0.0
0
LINE
8
TOP
10
0.107655
20
0.156344
30
0.0
11
0.109743
21
0.149575
31
0.0
0
LINE
8
TOP
10
0.109743
20
0.149575
30
0.0
11
0.112495
21
0.143048
31
0.0
0
LINE
8
TOP
10
0.112495
20
0.143048
30
0.0
11
0.115882
21
0.136828
31
0.0
0
LINE
8
TOP
10
0.115882
20
0.136828
30
0.0
11
0.119872
21
0.130975
31
0.0
0
LINE
8
TOP
10
0.119872
20
0.130975
30
0.0
11
0.124425
21
0.125549
31
0.0
0
LINE
8
TOP
10
0.124425
20
0.125549
30
0.0
11
0.129496
21
0.120603
31
0.0
0
LINE
8
TOP
10
0.129496
20
0.120603
30
0.0
11
0.135034
21
0.116187
31
0.0
0
LINE
8
TOP
10
0.135034
20
0.116187
30
0.0
11
0.140984
21
0.112343
31
0.0
0
LINE
8
TOP
10
0.140984
20
0.112343
30
0.0
11
0.147288
21
0.109112
31
0.0
0
LINE
8
TOP
10
0.147288
20
0.109112
30
0.0
11
0.153881
21
0.106524
31
0.0
0
LINE
8
TOP
10
0.153881
20
0.106524
30
0.0
11
0.160700
21
0.104606
31
0.0
0
LINE
8
TOP
10
0.160700
20
0.104606
30
0.0
11
0.167676
21
0.103376
31
0.0
0
LINE
8
TOP
10
0.167676
20
0.103376
30
0.0
11
0.174739
21
0.102846
31
0.0
0
LINE
8
TOP
10
0.174739
20
0.102846
30
0.0
11
0.181821
21
0.103023
31
0.0
0
LINE
8
TOP
10
0.181821
20
0.103023
30
0.0
11
0.188849
21
0.103904
31
0.0
0
LINE
8
TOP
10
0.188849
20
0.103904
30
0.0
11
0.195755
21
0.105480
31
0.0
0
LINE
8
TOP
10
0.195755
20
0.105480
30
0.0
11
0.202469
21
0.107736
31
0.0
0
LINE
8
TOP
10
0.202469
20
0.107736
30
0.0
11
0.208926
21
0.110649
31
0.0
0
LINE
8
TOP
10
0.208926
20
0.110649
30
0.0
11
0.215060
21
0.114191
31
0.0
0
LINE
8
TOP
10
0.215060
20
0.114191
30
0.0
11
0.220811
21
0.118326
31
0.0
0
LINE
8
TOP
10
0.220811
20
0.118326
30
0.0
11
0.226122
21
0.123013
31
0.0
0
LINE
8
TOP
10
0.226122
20
0.123013
30
0.0
11
0.230940
21
0.128205
31
0.0
0
LINE
8
TOP
10
0.230940
20
0.128205
30
0.0
11
0.235217
21
0.133851
31
0.0
0
LINE
8
TOP
10
0.235217
20
0.133851
30
0.0
11
0.238911
21
0.139896
31
0.0
0
LINE
8
TOP
10
0.238911
20
0.139896
30
0.0
11
0.241984
21
0.146278
31
0.0
0
LINE
8
TOP
10
0.241984
20
0.146278
30
0.0
11
0.244407
21
0.152934
31
0.0
0
LINE
8
TOP
10
0.244407
20
0.152934
30
0.0
11
0.246155
21
0.159798
31
0.0
0
LINE
8
TOP
10
0.246155
20
0.159798
30
0.0
11
0.247210
21
0.166802
31
0.0
0
LINE
8
TOP
10
0.247210
20
0.166802
30
0.0
11
0.247563
21
0.173877
31
0.0
0
ENDSEC
0
EOF
