0
SECTION
2
HEADER
9
$ACADVER
1
AC1009
0
ENDSEC
0
SECTION
2
TABLES
0
TABLE
2
LTYPE
70
3
0
LTYPE
2
CONTINUOUS
70
0
3
Solid line
72
65
73
0
40
0.0
0
LTYPE
2
HIDDEN
70
0
3
__ __ __ __ __
72
65
73
2
40
0.074609
49
0.049764
49
-0.024845
0
LTYPE
2
CENTER
70
0
3
___ _ ___ _ ___
72
65
73
4
40
0.174064
49
0.099454
49
-0.024845
49
0.024845
49
-0.024845
0
ENDTAB
0
TABLE
2
LAYER
70
7
0
LAYER
2
0
70
0
62
7
6
CONTINUOUS
0
LAYER
2
FRONT
70
0
62
7
6
CONTINUOUS
0
LAYER
2
FRONT_HID
70
0
62
7
6
HIDDEN
0
LAYER
2
LEFT
70
0
62
7
6
CONTINUOUS
0
LAYER
2
LEFT_HID
70
0
62
7
6
HIDDEN
0
LAYER
2
TOP
70
0
62
7
6
CONTINUOUS
0
LAYER
2
TOP_HID
70
0
62
7
6
HIDDEN
0
ENDTAB
0
ENDSEC
0
SECTION
2
ENTITIES
0
LINE
8
FRONT
10
0.000000
20
1.790625
30
0.0
11
0.000000
21
1.845312
31
0.0
0
LINE
8
FRONT
10
1.162336
20
1.790625
30
0.0
11
1.162336
21
1.845312
31
0.0
0
LINE
8
FRONT
10
1.162336
20
1.790625
30
0.0
11
0.000000
21
1.790625
31
0.0
0
LINE
8
FRONT
10
1.162336
20
1.845312
30
0.0
11
0.000000
21
1.845312
31
0.0
0
LINE
8
FRONT_HID
6
HIDDEN
10
0.157072
20
1.790625
30
0.0
11
0.125658
21
1.790625
31
0.0
0
LINE
8
FRONT_HID
6
HIDDEN
10
0.125658
20
1.790625
30
0.0
11
0.157072
21
1.790625
31
0.0
0
LINE
8
FRONT_HID
6
HIDDEN
10
1.036678
20
1.790625
30
0.0
11
1.005263
21
1.790625
31
0.0
0
LINE
8
FRONT_HID
6
HIDDEN
10
1.005263
20
1.790625
30
0.0
11
1.036678
21
1.790625
31
0.0
0
LINE
8
FRONT_HID
6
HIDDEN
10
0.901316
20
1.790625
30
0.0
11
0.911020
21
1.790625
31
0.0
0
LINE
8
FRONT_HID
6
HIDDEN
10
0.250000
20
1.790625
30
0.0
11
0.901316
21
1.790625
31
0.0
0
LINE
8
FRONT_HID
6
HIDDEN
10
0.901316
20
1.790625
30
0.0
11
0.250000
21
1.790625
31
0.0
0
LINE
8
FRONT_HID
6
HIDDEN
10
0.911020
20
1.790625
30
0.0
11
0.901316
21
1.790625
31
0.0
0
LINE
8
FRONT_HID
6
HIDDEN
10
0.157072
20
1.790625
30
0.0
11
0.125658
21
1.790625
31
0.0
0
LINE
8
FRONT_HID
6
HIDDEN
10
0.125658
20
1.790625
30
0.0
11
0.157072
21
1.790625
31
0.0
0
LINE
8
FRONT_HID
6
HIDDEN
10
1.036678
20
1.790625
30
0.0
11
1.005263
21
1.790625
31
0.0
0
LINE
8
FRONT_HID
6
HIDDEN
10
1.005263
20
1.790625
30
0.0
11
1.036678
21
1.790625
31
0.0
0
LINE
8
FRONT_HID
6
HIDDEN
10
0.157072
20
1.845312
30
0.0
11
0.125658
21
1.845312
31
0.0
0
LINE
8
FRONT_HID
6
HIDDEN
10
0.125658
20
1.845312
30
0.0
11
0.157072
21
1.845312
31
0.0
0
LINE
8
FRONT_HID
6
HIDDEN
10
1.036678
20
1.845312
30
0.0
11
1.005263
21
1.845312
31
0.0
0
LINE
8
FRONT_HID
6
HIDDEN
10
1.005263
20
1.845312
30
0.0
11
1.036678
21
1.845312
31
0.0
0
LINE
8
FRONT_HID
6
HIDDEN
10
0.901316
20
1.845312
30
0.0
11
0.911020
21
1.845312
31
0.0
0
LINE
8
FRONT_HID
6
HIDDEN
10
0.250000
20
1.845312
30
0.0
11
0.901316
21
1.845312
31
0.0
0
LINE
8
FRONT_HID
6
HIDDEN
10
0.901316
20
1.845312
30
0.0
11
0.250000
21
1.845312
31
0.0
0
LINE
8
FRONT_HID
6
HIDDEN
10
0.911020
20
1.845312
30
0.0
11
0.901316
21
1.845312
31
0.0
0
LINE
8
FRONT_HID
6
HIDDEN
10
0.157072
20
1.845312
30
0.0
11
0.125658
21
1.845312
31
0.0
0
LINE
8
FRONT_HID
6
HIDDEN
10
0.125658
20
1.845312
30
0.0
11
0.157072
21
1.845312
31
0.0
0
LINE
8
FRONT_HID
6
HIDDEN
10
1.036678
20
1.845312
30
0.0
11
1.005263
21
1.845312
31
0.0
0
LINE
8
FRONT_HID
6
HIDDEN
10
1.005263
20
1.845312
30
0.0
11
1.036678
21
1.845312
31
0.0
0
LINE
8
FRONT_HID
6
HIDDEN
10
0.157072
20
1.790625
30
0.0
11
0.157072
21
1.845312
31
0.0
0
LINE
8
FRONT_HID
6
HIDDEN
10
1.036678
20
1.790625
30
0.0
11
1.036678
21
1.845312
31
0.0
0
LINE
8
FRONT_HID
6
HIDDEN
10
0.901316
20
1.790625
30
0.0
11
0.901316
21
1.821875
31
0.0
0
LINE
8
FRONT_HID
6
HIDDEN
10
0.901316
20
1.821875
30
0.0
11
0.901316
21
1.845312
31
0.0
0
LINE
8
FRONT_HID
6
HIDDEN
10
0.911020
20
1.790625
30
0.0
11
0.911020
21
1.845312
31
0.0
0
LINE
8
FRONT_HID
6
HIDDEN
10
0.911020
20
1.790625
30
0.0
11
0.911020
21
1.845312
31
0.0
0
LINE
8
FRONT_HID
6
HIDDEN
10
0.901316
20
1.845312
30
0.0
11
0.901316
21
1.821875
31
0.0
0
LINE
8
FRONT_HID
6
HIDDEN
10
0.901316
20
1.821875
30
0.0
11
0.901316
21
1.790625
31
0.0
0
LINE
8
FRONT_HID
6
HIDDEN
10
0.901316
20
1.790625
30
0.0
11
0.901316
21
1.821875
31
0.0
0
LINE
8
FRONT_HID
6
HIDDEN
10
0.901316
20
1.821875
30
0.0
11
0.250000
21
1.821875
31
0.0
0
LINE
8
FRONT_HID
6
HIDDEN
10
0.250000
20
1.790625
30
0.0
11
0.250000
21
1.821875
31
0.0
0
LINE
8
FRONT_HID
6
HIDDEN
10
0.250000
20
1.790625
30
0.0
11
0.250000
21
1.821875
31
0.0
0
LINE
8
FRONT_HID
6
HIDDEN
10
0.250000
20
1.821875
30
0.0
11
0.901316
21
1.821875
31
0.0
0
LINE
8
FRONT_HID
6
HIDDEN
10
0.901316
20
1.790625
30
0.0
11
0.901316
21
1.821875
31
0.0
0
LINE
8
FRONT_HID
6
HIDDEN
10
0.157072
20
1.790625
30
0.0
11
0.157072
21
1.845312
31
0.0
0
LINE
8
FRONT_HID
6
HIDDEN
10
1.036678
20
1.790625
30
0.0
11
1.036678
21
1.845312
31
0.0
0
LINE
8
FRONT_HID
6
HIDDEN
10
0.251316
20
1.845312
30
0.0
11
0.901316
21
1.845312
31
0.0
0
LINE
8
FRONT_HID
6
HIDDEN
10
0.901316
20
1.845312
30
0.0
11
0.251316
21
1.845312
31
0.0
0
LINE
8
FRONT_HID
6
HIDDEN
10
0.388158
20
1.821875
30
0.0
11
0.309211
21
1.821875
31
0.0
0
LINE
8
FRONT_HID
6
HIDDEN
10
0.309211
20
1.821875
30
0.0
11
0.388158
21
1.821875
31
0.0
0
LINE
8
FRONT_HID
6
HIDDEN
10
0.388158
20
1.821875
30
0.0
11
0.309211
21
1.821875
31
0.0
0
LINE
8
FRONT_HID
6
HIDDEN
10
0.309211
20
1.821875
30
0.0
11
0.388158
21
1.821875
31
0.0
0
LINE
8
FRONT_HID
6
HIDDEN
10
0.605263
20
1.821875
30
0.0
11
0.546053
21
1.821875
31
0.0
0
LINE
8
FRONT_HID
6
HIDDEN
10
0.546053
20
1.821875
30
0.0
11
0.605263
21
1.821875
31
0.0
0
LINE
8
FRONT_HID
6
HIDDEN
10
0.851974
20
1.821875
30
0.0
11
0.773026
21
1.821875
31
0.0
0
LINE
8
FRONT_HID
6
HIDDEN
10
0.773026
20
1.821875
30
0.0
11
0.851974
21
1.821875
31
0.0
0
LINE
8
FRONT_HID
6
HIDDEN
10
0.851974
20
1.821875
30
0.0
11
0.773026
21
1.821875
31
0.0
0
LINE
8
FRONT_HID
6
HIDDEN
10
0.773026
20
1.821875
30
0.0
11
0.851974
21
1.821875
31
0.0
0
LINE
8
FRONT_HID
6
HIDDEN
10
0.388158
20
1.845312
30
0.0
11
0.309211
21
1.845312
31
0.0
0
LINE
8
FRONT_HID
6
HIDDEN
10
0.309211
20
1.845312
30
0.0
11
0.388158
21
1.845312
31
0.0
0
LINE
8
FRONT_HID
6
HIDDEN
10
0.851974
20
1.845312
30
0.0
11
0.773026
21
1.845312
31
0.0
0
LINE
8
FRONT_HID
6
HIDDEN
10
0.773026
20
1.845312
30
0.0
11
0.851974
21
1.845312
31
0.0
0
LINE
8
FRONT_HID
6
HIDDEN
10
0.605263
20
1.845312
30
0.0
11
0.546053
21
1.845312
31
0.0
0
LINE
8
FRONT_HID
6
HIDDEN
10
0.546053
20
1.845312
30
0.0
11
0.605263
21
1.845312
31
0.0
0
LINE
8
FRONT_HID
6
HIDDEN
10
0.388158
20
1.845312
30
0.0
11
0.309211
21
1.845312
31
0.0
0
LINE
8
FRONT_HID
6
HIDDEN
10
0.309211
20
1.845312
30
0.0
11
0.388158
21
1.845312
31
0.0
0
LINE
8
FRONT_HID
6
HIDDEN
10
0.851974
20
1.845312
30
0.0
11
0.773026
21
1.845312
31
0.0
0
LINE
8
FRONT_HID
6
HIDDEN
10
0.773026
20
1.845312
30
0.0
11
0.851974
21
1.845312
31
0.0
0
LINE
8
FRONT_HID
6
HIDDEN
10
0.388158
20
1.821875
30
0.0
11
0.388158
21
1.845312
31
0.0
0
LINE
8
FRONT_HID
6
HIDDEN
10
0.388158
20
1.821875
30
0.0
11
0.388158
21
1.845312
31
0.0
0
LINE
8
FRONT_HID
6
HIDDEN
10
0.605263
20
1.821875
30
0.0
11
0.605263
21
1.845312
31
0.0
0
LINE
8
FRONT_HID
6
HIDDEN
10
0.851974
20
1.821875
30
0.0
11
0.851974
21
1.845312
31
0.0
0
LINE
8
FRONT_HID
6
HIDDEN
10
0.851974
20
1.821875
30
0.0
11
0.851974
21
1.845312
31
0.0
0
LINE
8
FRONT_HID
6
HIDDEN
10
0.125658
20
1.845312
30
0.0
11
0.125658
21
1.790625
31
0.0
0
LINE
8
FRONT_HID
6
HIDDEN
10
1.005263
20
1.845312
30
0.0
11
1.005263
21
1.790625
31
0.0
0
LINE
8
FRONT_HID
6
HIDDEN
10
0.125658
20
1.845312
30
0.0
11
0.125658
21
1.790625
31
0.0
0
LINE
8
FRONT_HID
6
HIDDEN
10
1.005263
20
1.845312
30
0.0
11
1.005263
21
1.790625
31
0.0
0
LINE
8
FRONT_HID
6
HIDDEN
10
0.309211
20
1.845312
30
0.0
11
0.309211
21
1.821875
31
0.0
0
LINE
8
FRONT_HID
6
HIDDEN
10
0.309211
20
1.845312
30
0.0
11
0.309211
21
1.821875
31
0.0
0
LINE
8
FRONT_HID
6
HIDDEN
10
0.546053
20
1.845312
30
0.0
11
0.546053
21
1.821875
31
0.0
0
LINE
8
FRONT_HID
6
HIDDEN
10
0.773026
20
1.845312
30
0.0
11
0.773026
21
1.821875
31
0.0
0
LINE
8
FRONT_HID
6
HIDDEN
10
0.773026
20
1.845312
30
0.0
11
0.773026
21
1.821875
31
0.0
0
LINE
8
LEFT
10
2.952961
20
1.790625
30
0.0
11
2.952961
21
1.845312
31
0.0
0
LINE
8
LEFT
10
1.460773
20
1.790625
30
0.0
11
1.460773
21
1.845312
31
0.0
0
LINE
8
LEFT
10
1.460773
20
1.845312
30
0.0
11
2.952961
21
1.845312
31
0.0
0
LINE
8
LEFT
10
1.460773
20
1.790625
30
0.0
11
2.952961
21
1.790625
31
0.0
0
LINE
8
LEFT_HID
6
HIDDEN
10
2.764474
20
1.790625
30
0.0
11
2.748766
21
1.790625
31
0.0
0
LINE
8
LEFT_HID
6
HIDDEN
10
2.748766
20
1.790625
30
0.0
11
2.780181
21
1.790625
31
0.0
0
LINE
8
LEFT_HID
6
HIDDEN
10
2.780181
20
1.790625
30
0.0
11
2.764474
21
1.790625
31
0.0
0
LINE
8
LEFT_HID
6
HIDDEN
10
2.764474
20
1.790625
30
0.0
11
2.748766
21
1.790625
31
0.0
0
LINE
8
LEFT_HID
6
HIDDEN
10
2.748766
20
1.790625
30
0.0
11
2.780181
21
1.790625
31
0.0
0
LINE
8
LEFT_HID
6
HIDDEN
10
2.780181
20
1.790625
30
0.0
11
2.764474
21
1.790625
31
0.0
0
LINE
8
LEFT_HID
6
HIDDEN
10
2.648273
20
1.790625
30
0.0
11
2.638816
21
1.790625
31
0.0
0
LINE
8
LEFT_HID
6
HIDDEN
10
1.710773
20
1.790625
30
0.0
11
2.648273
21
1.790625
31
0.0
0
LINE
8
LEFT_HID
6
HIDDEN
10
1.712089
20
1.790625
30
0.0
11
1.710773
21
1.790625
31
0.0
0
LINE
8
LEFT_HID
6
HIDDEN
10
2.638816
20
1.790625
30
0.0
11
1.712089
21
1.790625
31
0.0
0
LINE
8
LEFT_HID
6
HIDDEN
10
1.649260
20
1.790625
30
0.0
11
1.633553
21
1.790625
31
0.0
0
LINE
8
LEFT_HID
6
HIDDEN
10
1.633553
20
1.790625
30
0.0
11
1.664967
21
1.790625
31
0.0
0
LINE
8
LEFT_HID
6
HIDDEN
10
1.664967
20
1.790625
30
0.0
11
1.649260
21
1.790625
31
0.0
0
LINE
8
LEFT_HID
6
HIDDEN
10
1.649260
20
1.790625
30
0.0
11
1.633553
21
1.790625
31
0.0
0
LINE
8
LEFT_HID
6
HIDDEN
10
1.633553
20
1.790625
30
0.0
11
1.664967
21
1.790625
31
0.0
0
LINE
8
LEFT_HID
6
HIDDEN
10
1.664967
20
1.790625
30
0.0
11
1.649260
21
1.790625
31
0.0
0
LINE
8
LEFT_HID
6
HIDDEN
10
2.764474
20
1.845312
30
0.0
11
2.748766
21
1.845312
31
0.0
0
LINE
8
LEFT_HID
6
HIDDEN
10
2.748766
20
1.845312
30
0.0
11
2.780181
21
1.845312
31
0.0
0
LINE
8
LEFT_HID
6
HIDDEN
10
2.780181
20
1.845312
30
0.0
11
2.764474
21
1.845312
31
0.0
0
LINE
8
LEFT_HID
6
HIDDEN
10
2.764474
20
1.845312
30
0.0
11
2.748766
21
1.845312
31
0.0
0
LINE
8
LEFT_HID
6
HIDDEN
10
2.748766
20
1.845312
30
0.0
11
2.780181
21
1.845312
31
0.0
0
LINE
8
LEFT_HID
6
HIDDEN
10
2.780181
20
1.845312
30
0.0
11
2.764474
21
1.845312
31
0.0
0
LINE
8
LEFT_HID
6
HIDDEN
10
2.648273
20
1.845312
30
0.0
11
2.638816
21
1.845312
31
0.0
0
LINE
8
LEFT_HID
6
HIDDEN
10
1.710773
20
1.845312
30
0.0
11
2.648273
21
1.845312
31
0.0
0
LINE
8
LEFT_HID
6
HIDDEN
10
1.712089
20
1.845312
30
0.0
11
1.710773
21
1.845312
31
0.0
0
LINE
8
LEFT_HID
6
HIDDEN
10
2.638816
20
1.845312
30
0.0
11
1.712089
21
1.845312
31
0.0
0
LINE
8
LEFT_HID
6
HIDDEN
10
1.649260
20
1.845312
30
0.0
11
1.633553
21
1.845312
31
0.0
0
LINE
8
LEFT_HID
6
HIDDEN
10
1.633553
20
1.845312
30
0.0
11
1.664967
21
1.845312
31
0.0
0
LINE
8
LEFT_HID
6
HIDDEN
10
1.664967
20
1.845312
30
0.0
11
1.649260
21
1.845312
31
0.0
0
LINE
8
LEFT_HID
6
HIDDEN
10
1.649260
20
1.845312
30
0.0
11
1.633553
21
1.845312
31
0.0
0
LINE
8
LEFT_HID
6
HIDDEN
10
1.633553
20
1.845312
30
0.0
11
1.664967
21
1.845312
31
0.0
0
LINE
8
LEFT_HID
6
HIDDEN
10
1.664967
20
1.845312
30
0.0
11
1.649260
21
1.845312
31
0.0
0
LINE
8
LEFT_HID
6
HIDDEN
10
2.638816
20
1.790625
30
0.0
11
2.638816
21
1.821875
31
0.0
0
LINE
8
LEFT_HID
6
HIDDEN
10
2.638816
20
1.821875
30
0.0
11
2.638816
21
1.845312
31
0.0
0
LINE
8
LEFT_HID
6
HIDDEN
10
2.638816
20
1.790625
30
0.0
11
2.638816
21
1.845312
31
0.0
0
LINE
8
LEFT_HID
6
HIDDEN
10
1.712089
20
1.790625
30
0.0
11
1.712089
21
1.845312
31
0.0
0
LINE
8
LEFT_HID
6
HIDDEN
10
1.712089
20
1.845312
30
0.0
11
1.712089
21
1.821875
31
0.0
0
LINE
8
LEFT_HID
6
HIDDEN
10
1.712089
20
1.821875
30
0.0
11
1.712089
21
1.790625
31
0.0
0
LINE
8
LEFT_HID
6
HIDDEN
10
1.712089
20
1.821875
30
0.0
11
1.710773
21
1.821875
31
0.0
0
LINE
8
LEFT_HID
6
HIDDEN
10
1.710773
20
1.790625
30
0.0
11
1.710773
21
1.821875
31
0.0
0
LINE
8
LEFT_HID
6
HIDDEN
10
1.710773
20
1.790625
30
0.0
11
1.710773
21
1.821875
31
0.0
0
LINE
8
LEFT_HID
6
HIDDEN
10
1.710773
20
1.821875
30
0.0
11
2.648273
21
1.821875
31
0.0
0
LINE
8
LEFT_HID
6
HIDDEN
10
2.648273
20
1.790625
30
0.0
11
2.648273
21
1.821875
31
0.0
0
LINE
8
LEFT_HID
6
HIDDEN
10
2.648273
20
1.790625
30
0.0
11
2.648273
21
1.821875
31
0.0
0
LINE
8
LEFT_HID
6
HIDDEN
10
2.648273
20
1.821875
30
0.0
11
2.638816
21
1.821875
31
0.0
0
LINE
8
LEFT_HID
6
HIDDEN
10
1.712089
20
1.845312
30
0.0
11
2.638816
21
1.845312
31
0.0
0
LINE
8
LEFT_HID
6
HIDDEN
10
2.638816
20
1.821875
30
0.0
11
1.712089
21
1.821875
31
0.0
0
LINE
8
LEFT_HID
6
HIDDEN
10
2.638816
20
1.845312
30
0.0
11
1.712089
21
1.845312
31
0.0
0
LINE
8
LEFT_HID
6
HIDDEN
10
2.549589
20
1.821875
30
0.0
11
2.510115
21
1.821875
31
0.0
0
LINE
8
LEFT_HID
6
HIDDEN
10
2.510115
20
1.821875
30
0.0
11
2.589063
21
1.821875
31
0.0
0
LINE
8
LEFT_HID
6
HIDDEN
10
2.589063
20
1.821875
30
0.0
11
2.549589
21
1.821875
31
0.0
0
LINE
8
LEFT_HID
6
HIDDEN
10
1.799589
20
1.821875
30
0.0
11
1.760115
21
1.821875
31
0.0
0
LINE
8
LEFT_HID
6
HIDDEN
10
1.760115
20
1.821875
30
0.0
11
1.839063
21
1.821875
31
0.0
0
LINE
8
LEFT_HID
6
HIDDEN
10
1.839063
20
1.821875
30
0.0
11
1.799589
21
1.821875
31
0.0
0
LINE
8
LEFT_HID
6
HIDDEN
10
2.174589
20
1.821875
30
0.0
11
2.144984
21
1.821875
31
0.0
0
LINE
8
LEFT_HID
6
HIDDEN
10
2.144984
20
1.821875
30
0.0
11
2.204194
21
1.821875
31
0.0
0
LINE
8
LEFT_HID
6
HIDDEN
10
2.204194
20
1.821875
30
0.0
11
2.174589
21
1.821875
31
0.0
0
LINE
8
LEFT_HID
6
HIDDEN
10
2.549589
20
1.821875
30
0.0
11
2.510115
21
1.821875
31
0.0
0
LINE
8
LEFT_HID
6
HIDDEN
10
2.510115
20
1.821875
30
0.0
11
2.589063
21
1.821875
31
0.0
0
LINE
8
LEFT_HID
6
HIDDEN
10
2.589063
20
1.821875
30
0.0
11
2.549589
21
1.821875
31
0.0
0
LINE
8
LEFT_HID
6
HIDDEN
10
1.799589
20
1.821875
30
0.0
11
1.760115
21
1.821875
31
0.0
0
LINE
8
LEFT_HID
6
HIDDEN
10
1.760115
20
1.821875
30
0.0
11
1.839063
21
1.821875
31
0.0
0
LINE
8
LEFT_HID
6
HIDDEN
10
1.839063
20
1.821875
30
0.0
11
1.799589
21
1.821875
31
0.0
0
LINE
8
LEFT_HID
6
HIDDEN
10
2.549589
20
1.845312
30
0.0
11
2.510115
21
1.845312
31
0.0
0
LINE
8
LEFT_HID
6
HIDDEN
10
2.510115
20
1.845312
30
0.0
11
2.589063
21
1.845312
31
0.0
0
LINE
8
LEFT_HID
6
HIDDEN
10
2.589063
20
1.845312
30
0.0
11
2.549589
21
1.845312
31
0.0
0
LINE
8
LEFT_HID
6
HIDDEN
10
2.549589
20
1.845312
30
0.0
11
2.510115
21
1.845312
31
0.0
0
LINE
8
LEFT_HID
6
HIDDEN
10
2.510115
20
1.845312
30
0.0
11
2.589063
21
1.845312
31
0.0
0
LINE
8
LEFT_HID
6
HIDDEN
10
2.589063
20
1.845312
30
0.0
11
2.549589
21
1.845312
31
0.0
0
LINE
8
LEFT_HID
6
HIDDEN
10
2.174589
20
1.845312
30
0.0
11
2.144984
21
1.845312
31
0.0
0
LINE
8
LEFT_HID
6
HIDDEN
10
2.144984
20
1.845312
30
0.0
11
2.204194
21
1.845312
31
0.0
0
LINE
8
LEFT_HID
6
HIDDEN
10
2.204194
20
1.845312
30
0.0
11
2.174589
21
1.845312
31
0.0
0
LINE
8
LEFT_HID
6
HIDDEN
10
1.799589
20
1.845312
30
0.0
11
1.760115
21
1.845312
31
0.0
0
LINE
8
LEFT_HID
6
HIDDEN
10
1.760115
20
1.845312
30
0.0
11
1.839063
21
1.845312
31
0.0
0
LINE
8
LEFT_HID
6
HIDDEN
10
1.839063
20
1.845312
30
0.0
11
1.799589
21
1.845312
31
0.0
0
LINE
8
LEFT_HID
6
HIDDEN
10
1.799589
20
1.845312
30
0.0
11
1.760115
21
1.845312
31
0.0
0
LINE
8
LEFT_HID
6
HIDDEN
10
1.760115
20
1.845312
30
0.0
11
1.839063
21
1.845312
31
0.0
0
LINE
8
LEFT_HID
6
HIDDEN
10
1.839063
20
1.845312
30
0.0
11
1.799589
21
1.845312
31
0.0
0
LINE
8
LEFT_HID
6
HIDDEN
10
2.748766
20
1.845312
30
0.0
11
2.748766
21
1.790625
31
0.0
0
LINE
8
LEFT_HID
6
HIDDEN
10
2.780181
20
1.845312
30
0.0
11
2.780181
21
1.790625
31
0.0
0
LINE
8
LEFT_HID
6
HIDDEN
10
2.748766
20
1.845312
30
0.0
11
2.748766
21
1.790625
31
0.0
0
LINE
8
LEFT_HID
6
HIDDEN
10
2.780181
20
1.845312
30
0.0
11
2.780181
21
1.790625
31
0.0
0
LINE
8
LEFT_HID
6
HIDDEN
10
1.633553
20
1.845312
30
0.0
11
1.633553
21
1.790625
31
0.0
0
LINE
8
LEFT_HID
6
HIDDEN
10
1.664967
20
1.845312
30
0.0
11
1.664967
21
1.790625
31
0.0
0
LINE
8
LEFT_HID
6
HIDDEN
10
1.633553
20
1.845312
30
0.0
11
1.633553
21
1.790625
31
0.0
0
LINE
8
LEFT_HID
6
HIDDEN
10
1.664967
20
1.845312
30
0.0
11
1.664967
21
1.790625
31
0.0
0
LINE
8
LEFT_HID
6
HIDDEN
10
2.510115
20
1.845312
30
0.0
11
2.510115
21
1.821875
31
0.0
0
LINE
8
LEFT_HID
6
HIDDEN
10
2.589063
20
1.845312
30
0.0
11
2.589063
21
1.821875
31
0.0
0
LINE
8
LEFT_HID
6
HIDDEN
10
1.760115
20
1.845312
30
0.0
11
1.760115
21
1.821875
31
0.0
0
LINE
8
LEFT_HID
6
HIDDEN
10
1.839063
20
1.845312
30
0.0
11
1.839063
21
1.821875
31
0.0
0
LINE
8
LEFT_HID
6
HIDDEN
10
2.144984
20
1.845312
30
0.0
11
2.144984
21
1.821875
31
0.0
0
LINE
8
LEFT_HID
6
HIDDEN
10
2.204194
20
1.845312
30
0.0
11
2.204194
21
1.821875
31
0.0
0
LINE
8
LEFT_HID
6
HIDDEN
10
2.510115
20
1.845312
30
0.0
11
2.510115
21
1.821875
31
0.0
0
LINE
8
LEFT_HID
6
HIDDEN
10
2.589063
20
1.845312
30
0.0
11
2.589063
21
1.821875
31
0.0
0
LINE
8
LEFT_HID
6
HIDDEN
10
1.760115
20
1.845312
30
0.0
11
1.760115
21
1.821875
31
0.0
0
LINE
8
LEFT_HID
6
HIDDEN
10
1.839063
20
1.845312
30
0.0
11
1.839063
21
1.821875
31
0.0
0
LINE
8
TOP
10
0.000000
20
0.000000
30
0.0
11
1.162336
21
0.000000
31
0.0
0
LINE
8
TOP
10
0.000000
20
1.492188
30
0.0
11
0.000000
21
0.000000
31
0.0
0
LINE
8
TOP
10
1.162336
20
0.000000
30
0.0
11
1.162336
21
1.492188
31
0.0
0
LINE
8
TOP
10
1.162336
20
1.492188
30
0.0
11
0.000000
21
1.492188
31
0.0
0
LINE
8
TOP
10
0.157072
20
0.188487
30
0.0
11
0.156994
21
0.190051
31
0.0
0
LINE
8
TOP
10
0.156994
20
0.190051
30
0.0
11
0.156761
21
0.191599
31
0.0
0
LINE
8
TOP
10
0.156761
20
0.191599
30
0.0
11
0.156375
21
0.193117
31
0.0
0
LINE
8
TOP
10
0.156375
20
0.193117
30
0.0
11
0.155839
21
0.194588
31
0.0
0
LINE
8
TOP
10
0.155839
20
0.194588
30
0.0
11
0.155160
21
0.195999
31
0.0
0
LINE
8
TOP
10
0.155160
20
0.195999
30
0.0
11
0.154343
21
0.197335
31
0.0
0
LINE
8
TOP
10
0.154343
20
0.197335
30
0.0
11
0.153398
21
0.198583
31
0.0
0
LINE
8
TOP
10
0.153398
20
0.198583
30
0.0
11
0.152333
21
0.199731
31
0.0
0
LINE
8
TOP
10
0.152333
20
0.199731
30
0.0
11
0.151158
21
0.200767
31
0.0
0
LINE
8
TOP
10
0.151158
20
0.200767
30
0.0
11
0.149887
21
0.201681
31
0.0
0
LINE
8
TOP
10
0.149887
20
0.201681
30
0.0
11
0.148531
21
0.202464
31
0.0
0
LINE
8
TOP
10
0.148531
20
0.202464
30
0.0
11
0.147104
21
0.203108
31
0.0
0
LINE
8
TOP
10
0.147104
20
0.203108
30
0.0
11
0.145619
21
0.203607
31
0.0
0
LINE
8
TOP
10
0.145619
20
0.203607
30
0.0
11
0.144093
21
0.203955
31
0.0
0
LINE
8
TOP
10
0.144093
20
0.203955
30
0.0
11
0.142539
21
0.204150
31
0.0
0
LINE
8
TOP
10
0.142539
20
0.204150
30
0.0
11
0.140974
21
0.204189
31
0.0
0
LINE
8
TOP
10
0.140974
20
0.204189
30
0.0
11
0.139412
21
0.204072
31
0.0
0
LINE
8
TOP
10
0.139412
20
0.204072
30
0.0
11
0.137870
21
0.203800
31
0.0
0
LINE
8
TOP
10
0.137870
20
0.203800
30
0.0
11
0.136363
21
0.203376
31
0.0
0
LINE
8
TOP
10
0.136363
20
0.203376
30
0.0
11
0.134905
21
0.202804
31
0.0
0
LINE
8
TOP
10
0.134905
20
0.202804
30
0.0
11
0.133512
21
0.202090
31
0.0
0
LINE
8
TOP
10
0.133512
20
0.202090
30
0.0
11
0.132196
21
0.201240
31
0.0
0
LINE
8
TOP
10
0.132196
20
0.201240
30
0.0
11
0.130972
21
0.200264
31
0.0
0
LINE
8
TOP
10
0.130972
20
0.200264
30
0.0
11
0.129851
21
0.199170
31
0.0
0
LINE
8
TOP
10
0.129851
20
0.199170
30
0.0
11
0.128844
21
0.197971
31
0.0
0
LINE
8
TOP
10
0.128844
20
0.197971
30
0.0
11
0.127962
21
0.196677
31
0.0
0
LINE
8
TOP
10
0.127962
20
0.196677
30
0.0
11
0.127213
21
0.195302
31
0.0
0
LINE
8
TOP
10
0.127213
20
0.195302
30
0.0
11
0.126605
21
0.193859
31
0.0
0
LINE
8
TOP
10
0.126605
20
0.193859
30
0.0
11
0.126144
21
0.192363
31
0.0
0
LINE
8
TOP
10
0.126144
20
0.192363
30
0.0
11
0.125833
21
0.190828
31
0.0
0
LINE
8
TOP
10
0.125833
20
0.190828
30
0.0
11
0.125677
21
0.189270
31
0.0
0
LINE
8
TOP
10
0.125677
20
0.189270
30
0.0
11
0.125677
21
0.187704
31
0.0
0
LINE
8
TOP
10
0.125677
20
0.187704
30
0.0
11
0.125833
21
0.186146
31
0.0
0
LINE
8
TOP
10
0.125833
20
0.186146
30
0.0
11
0.126144
21
0.184611
31
0.0
0
LINE
8
TOP
10
0.126144
20
0.184611
30
0.0
11
0.126605
21
0.183115
31
0.0
0
LINE
8
TOP
10
0.126605
20
0.183115
30
0.0
11
0.127213
21
0.181672
31
0.0
0
LINE
8
TOP
10
0.127213
20
0.181672
30
0.0
11
0.127962
21
0.180297
31
0.0
0
LINE
8
TOP
10
0.127962
20
0.180297
30
0.0
11
0.128844
21
0.179003
31
0.0
0
LINE
8
TOP
10
0.128844
20
0.179003
30
0.0
11
0.129851
21
0.177803
31
0.0
0
LINE
8
TOP
10
0.129851
20
0.177803
30
0.0
11
0.130972
21
0.176710
31
0.0
0
LINE
8
TOP
10
0.130972
20
0.176710
30
0.0
11
0.132196
21
0.175734
31
0.0
0
LINE
8
TOP
10
0.132196
20
0.175734
30
0.0
11
0.133512
21
0.174884
31
0.0
0
LINE
8
TOP
10
0.133512
20
0.174884
30
0.0
11
0.134905
21
0.174170
31
0.0
0
LINE
8
TOP
10
0.134905
20
0.174170
30
0.0
11
0.136363
21
0.173598
31
0.0
0
LINE
8
TOP
10
0.136363
20
0.173598
30
0.0
11
0.137870
21
0.173173
31
0.0
0
LINE
8
TOP
10
0.137870
20
0.173173
30
0.0
11
0.139412
21
0.172902
31
0.0
0
LINE
8
TOP
10
0.139412
20
0.172902
30
0.0
11
0.140974
21
0.172784
31
0.0
0
LINE
8
TOP
10
0.140974
20
0.172784
30
0.0
11
0.142539
21
0.172824
31
0.0
0
LINE
8
TOP
10
0.142539
20
0.172824
30
0.0
11
0.144093
21
0.173018
31
0.0
0
LINE
8
TOP
10
0.144093
20
0.173018
30
0.0
11
0.145619
21
0.173367
31
0.0
0
LINE
8
TOP
10
0.145619
20
0.173367
30
0.0
11
0.147104
21
0.173865
31
0.0
0
LINE
8
TOP
10
0.147104
20
0.173865
30
0.0
11
0.148531
21
0.174509
31
0.0
0
LINE
8
TOP
10
0.148531
20
0.174509
30
0.0
11
0.149887
21
0.175292
31
0.0
0
LINE
8
TOP
10
0.149887
20
0.175292
30
0.0
11
0.151158
21
0.176206
31
0.0
0
LINE
8
TOP
10
0.151158
20
0.176206
30
0.0
11
0.152333
21
0.177243
31
0.0
0
LINE
8
TOP
10
0.152333
20
0.177243
30
0.0
11
0.153398
21
0.178390
31
0.0
0
LINE
8
TOP
10
0.153398
20
0.178390
30
0.0
11
0.154343
21
0.179639
31
0.0
0
LINE
8
TOP
10
0.154343
20
0.179639
30
0.0
11
0.155160
21
0.180975
31
0.0
0
LINE
8
TOP
10
0.155160
20
0.180975
30
0.0
11
0.155839
21
0.182386
31
0.0
0
LINE
8
TOP
10
0.155839
20
0.182386
30
0.0
11
0.156375
21
0.183857
31
0.0
0
LINE
8
TOP
10
0.156375
20
0.183857
30
0.0
11
0.156761
21
0.185375
31
0.0
0
LINE
8
TOP
10
0.156761
20
0.185375
30
0.0
11
0.156994
21
0.186923
31
0.0
0
LINE
8
TOP
10
0.156994
20
0.186923
30
0.0
11
0.157072
21
0.188487
31
0.0
0
LINE
8
TOP
10
1.036678
20
0.188487
30
0.0
11
1.036600
21
0.190051
31
0.0
0
LINE
8
TOP
10
1.036600
20
0.190051
30
0.0
11
1.036366
21
0.191599
31
0.0
0
LINE
8
TOP
10
1.036366
20
0.191599
30
0.0
11
1.035980
21
0.193117
31
0.0
0
LINE
8
TOP
10
1.035980
20
0.193117
30
0.0
11
1.035444
21
0.194588
31
0.0
0
LINE
8
TOP
10
1.035444
20
0.194588
30
0.0
11
1.034765
21
0.195999
31
0.0
0
LINE
8
TOP
10
1.034765
20
0.195999
30
0.0
11
1.033948
21
0.197335
31
0.0
0
LINE
8
TOP
10
1.033948
20
0.197335
30
0.0
11
1.033003
21
0.198583
31
0.0
0
LINE
8
TOP
10
1.033003
20
0.198583
30
0.0
11
1.031938
21
0.199731
31
0.0
0
LINE
8
TOP
10
1.031938
20
0.199731
30
0.0
11
1.030764
21
0.200767
31
0.0
0
LINE
8
TOP
10
1.030764
20
0.200767
30
0.0
11
1.029492
21
0.201681
31
0.0
0
LINE
8
TOP
10
1.029492
20
0.201681
30
0.0
11
1.028136
21
0.202464
31
0.0
0
LINE
8
TOP
10
1.028136
20
0.202464
30
0.0
11
1.026709
21
0.203108
31
0.0
0
LINE
8
TOP
10
1.026709
20
0.203108
30
0.0
11
1.025225
21
0.203607
31
0.0
0
LINE
8
TOP
10
1.025225
20
0.203607
30
0.0
11
1.023698
21
0.203955
31
0.0
0
LINE
8
TOP
10
1.023698
20
0.203955
30
0.0
11
1.022144
21
0.204150
31
0.0
0
LINE
8
TOP
10
1.022144
20
0.204150
30
0.0
11
1.020579
21
0.204189
31
0.0
0
LINE
8
TOP
10
1.020579
20
0.204189
30
0.0
11
1.019017
21
0.204072
31
0.0
0
LINE
8
TOP
10
1.019017
20
0.204072
30
0.0
11
1.017475
21
0.203800
31
0.0
0
LINE
8
TOP
10
1.017475
20
0.203800
30
0.0
11
1.015968
21
0.203376
31
0.0
0
LINE
8
TOP
10
1.015968
20
0.203376
30
0.0
11
1.014510
21
0.202804
31
0.0
0
LINE
8
TOP
10
1.014510
20
0.202804
30
0.0
11
1.013117
21
0.202090
31
0.0
0
LINE
8
TOP
10
1.013117
20
0.202090
30
0.0
11
1.011801
21
0.201240
31
0.0
0
LINE
8
TOP
10
1.011801
20
0.201240
30
0.0
11
1.010577
21
0.200264
31
0.0
0
LINE
8
TOP
10
1.010577
20
0.200264
30
0.0
11
1.009456
21
0.199170
31
0.0
0
LINE
8
TOP
10
1.009456
20
0.199170
30
0.0
11
1.008450
21
0.197971
31
0.0
0
LINE
8
TOP
10
1.008450
20
0.197971
30
0.0
11
1.007568
21
0.196677
31
0.0
0
LINE
8
TOP
10
1.007568
20
0.196677
30
0.0
11
1.006819
21
0.195302
31
0.0
0
LINE
8
TOP
10
1.006819
20
0.195302
30
0.0
11
1.006210
21
0.193859
31
0.0
0
LINE
8
TOP
10
1.006210
20
0.193859
30
0.0
11
1.005749
21
0.192363
31
0.0
0
LINE
8
TOP
10
1.005749
20
0.192363
30
0.0
11
1.005439
21
0.190828
31
0.0
0
LINE
8
TOP
10
1.005439
20
0.190828
30
0.0
11
1.005283
21
0.189270
31
0.0
0
LINE
8
TOP
10
1.005283
20
0.189270
30
0.0
11
1.005283
21
0.187704
31
0.0
0
LINE
8
TOP
10
1.005283
20
0.187704
30
0.0
11
1.005439
21
0.186146
31
0.0
0
LINE
8
TOP
10
1.005439
20
0.186146
30
0.0
11
1.005749
21
0.184611
31
0.0
0
LINE
8
TOP
10
1.005749
20
0.184611
30
0.0
11
1.006210
21
0.183115
31
0.0
0
LINE
8
TOP
10
1.006210
20
0.183115
30
0.0
11
1.006819
21
0.181672
31
0.0
0
LINE
8
TOP
10
1.006819
20
0.181672
30
0.0
11
1.007568
21
0.180297
31
0.0
0
LINE
8
TOP
10
1.007568
20
0.180297
30
0.0
11
1.008450
21
0.179003
31
0.0
0
LINE
8
TOP
10
1.008450
20
0.179003
30
0.0
11
1.009456
21
0.177803
31
0.0
0
LINE
8
TOP
10
1.009456
20
0.177803
30
0.0
11
1.010577
21
0.176710
31
0.0
0
LINE
8
TOP
10
1.010577
20
0.176710
30
0.0
11
1.011801
21
0.175734
31
0.0
0
LINE
8
TOP
10
1.011801
20
0.175734
30
0.0
11
1.013117
21
0.174884
31
0.0
0
LINE
8
TOP
10
1.013117
20
0.174884
30
0.0
11
1.014510
21
0.174170
31
0.0
0
LINE
8
TOP
10
1.014510
20
0.174170
30
0.0
11
1.015968
21
0.173598
31
0.0
0
LINE
8
TOP
10
1.015968
20
0.173598
30
0.0
11
1.017475
21
0.173173
31
0.0
0
LINE
8
TOP
10
1.017475
20
0.173173
30
0.0
11
1.019017
21
0.172902
31
0.0
0
LINE
8
TOP
10
1.019017
20
0.172902
30
0.0
11
1.020579
21
0.172784
31
0.0
0
LINE
8
TOP
10
1.020579
20
0.172784
30
0.0
11
1.022144
21
0.172824
31
0.0
0
LINE
8
TOP
10
1.022144
20
0.172824
30
0.0
11
1.023698
21
0.173018
31
0.0
0
LINE
8
TOP
10
1.023698
20
0.173018
30
0.0
11
1.025225
21
0.173367
31
0.0
0
LINE
8
TOP
10
1.025225
20
0.173367
30
0.0
11
1.026709
21
0.173865
31
0.0
0
LINE
8
TOP
10
1.026709
20
0.173865
30
0.0
11
1.028136
21
0.174509
31
0.0
0
LINE
8
TOP
10
1.028136
20
0.174509
30
0.0
11
1.029492
21
0.175292
31
0.0
0
LINE
8
TOP
10
1.029492
20
0.175292
30
0.0
11
1.030764
21
0.176206
31
0.0
0
LINE
8
TOP
10
1.030764
20
0.176206
30
0.0
11
1.031938
21
0.177243
31
0.0
0
LINE
8
TOP
10
1.031938
20
0.177243
30
0.0
11
1.033003
21
0.178390
31
0.0
0
LINE
8
TOP
10
1.033003
20
0.178390
30
0.0
11
1.033948
21
0.179639
31
0.0
0
LINE
8
TOP
10
1.033948
20
0.179639
30
0.0
11
1.034765
21
0.180975
31
0.0
0
LINE
8
TOP
10
1.034765
20
0.180975
30
0.0
11
1.035444
21
0.182386
31
0.0
0
LINE
8
TOP
10
1.035444
20
0.182386
30
0.0
11
1.035980
21
0.183857
31
0.0
0
LINE
8
TOP
10
1.035980
20
0.183857
30
0.0
11
1.036366
21
0.185375
31
0.0
0
LINE
8
TOP
10
1.036366
20
0.185375
30
0.0
11
1.036600
21
0.186923
31
0.0
0
LINE
8
TOP
10
1.036600
20
0.186923
30
0.0
11
1.036678
21
0.188487
31
0.0
0
LINE
8
TOP
10
0.901316
20
0.314145
30
0.0
11
0.911020
21
0.314145
31
0.0
0
LINE
8
TOP
10
0.911020
20
1.240872
30
0.0
11
0.901316
21
1.240872
31
0.0
0
LINE
8
TOP
10
0.911020
20
0.314145
30
0.0
11
0.911020
21
1.240872
31
0.0
0
LINE
8
TOP
10
0.157072
20
1.303701
30
0.0
11
0.156994
21
1.305265
31
0.0
0
LINE
8
TOP
10
0.156994
20
1.305265
30
0.0
11
0.156761
21
1.306813
31
0.0
0
LINE
8
TOP
10
0.156761
20
1.306813
30
0.0
11
0.156375
21
1.308330
31
0.0
0
LINE
8
TOP
10
0.156375
20
1.308330
30
0.0
11
0.155839
21
1.309802
31
0.0
0
LINE
8
TOP
10
0.155839
20
1.309802
30
0.0
11
0.155160
21
1.311213
31
0.0
0
LINE
8
TOP
10
0.155160
20
1.311213
30
0.0
11
0.154343
21
1.312549
31
0.0
0
LINE
8
TOP
10
0.154343
20
1.312549
30
0.0
11
0.153398
21
1.313797
31
0.0
0
LINE
8
TOP
10
0.153398
20
1.313797
30
0.0
11
0.152333
21
1.314945
31
0.0
0
LINE
8
TOP
10
0.152333
20
1.314945
30
0.0
11
0.151158
21
1.315981
31
0.0
0
LINE
8
TOP
10
0.151158
20
1.315981
30
0.0
11
0.149887
21
1.316895
31
0.0
0
LINE
8
TOP
10
0.149887
20
1.316895
30
0.0
11
0.148531
21
1.317678
31
0.0
0
LINE
8
TOP
10
0.148531
20
1.317678
30
0.0
11
0.147104
21
1.318322
31
0.0
0
LINE
8
TOP
10
0.147104
20
1.318322
30
0.0
11
0.145619
21
1.318821
31
0.0
0
LINE
8
TOP
10
0.145619
20
1.318821
30
0.0
11
0.144093
21
1.319169
31
0.0
0
LINE
8
TOP
10
0.144093
20
1.319169
30
0.0
11
0.142539
21
1.319364
31
0.0
0
LINE
8
TOP
10
0.142539
20
1.319364
30
0.0
11
0.140974
21
1.319403
31
0.0
0
LINE
8
TOP
10
0.140974
20
1.319403
30
0.0
11
0.139412
21
1.319286
31
0.0
0
LINE
8
TOP
10
0.139412
20
1.319286
30
0.0
11
0.137870
21
1.319014
31
0.0
0
LINE
8
TOP
10
0.137870
20
1.319014
30
0.0
11
0.136363
21
1.318590
31
0.0
0
LINE
8
TOP
10
0.136363
20
1.318590
30
0.0
11
0.134905
21
1.318018
31
0.0
0
LINE
8
TOP
10
0.134905
20
1.318018
30
0.0
11
0.133512
21
1.317304
31
0.0
0
LINE
8
TOP
10
0.133512
20
1.317304
30
0.0
11
0.132196
21
1.316454
31
0.0
0
LINE
8
TOP
10
0.132196
20
1.316454
30
0.0
11
0.130972
21
1.315478
31
0.0
0
LINE
8
TOP
10
0.130972
20
1.315478
30
0.0
11
0.129851
21
1.314384
31
0.0
0
LINE
8
TOP
10
0.129851
20
1.314384
30
0.0
11
0.128844
21
1.313185
31
0.0
0
LINE
8
TOP
10
0.128844
20
1.313185
30
0.0
11
0.127962
21
1.311891
31
0.0
0
LINE
8
TOP
10
0.127962
20
1.311891
30
0.0
11
0.127213
21
1.310516
31
0.0
0
LINE
8
TOP
10
0.127213
20
1.310516
30
0.0
11
0.126605
21
1.309073
31
0.0
0
LINE
8
TOP
10
0.126605
20
1.309073
30
0.0
11
0.126144
21
1.307577
31
0.0
0
LINE
8
TOP
10
0.126144
20
1.307577
30
0.0
11
0.125833
21
1.306042
31
0.0
0
LINE
8
TOP
10
0.125833
20
1.306042
30
0.0
11
0.125677
21
1.304484
31
0.0
0
LINE
8
TOP
10
0.125677
20
1.304484
30
0.0
11
0.125677
21
1.302918
31
0.0
0
LINE
8
TOP
10
0.125677
20
1.302918
30
0.0
11
0.125833
21
1.301360
31
0.0
0
LINE
8
TOP
10
0.125833
20
1.301360
30
0.0
11
0.126144
21
1.299825
31
0.0
0
LINE
8
TOP
10
0.126144
20
1.299825
30
0.0
11
0.126605
21
1.298328
31
0.0
0
LINE
8
TOP
10
0.126605
20
1.298328
30
0.0
11
0.127213
21
1.296886
31
0.0
0
LINE
8
TOP
10
0.127213
20
1.296886
30
0.0
11
0.127962
21
1.295510
31
0.0
0
LINE
8
TOP
10
0.127962
20
1.295510
30
0.0
11
0.128844
21
1.294217
31
0.0
0
LINE
8
TOP
10
0.128844
20
1.294217
30
0.0
11
0.129851
21
1.293017
31
0.0
0
LINE
8
TOP
10
0.129851
20
1.293017
30
0.0
11
0.130972
21
1.291924
31
0.0
0
LINE
8
TOP
10
0.130972
20
1.291924
30
0.0
11
0.132196
21
1.290947
31
0.0
0
LINE
8
TOP
10
0.132196
20
1.290947
30
0.0
11
0.133512
21
1.290098
31
0.0
0
LINE
8
TOP
10
0.133512
20
1.290098
30
0.0
11
0.134905
21
1.289383
31
0.0
0
LINE
8
TOP
10
0.134905
20
1.289383
30
0.0
11
0.136363
21
1.288811
31
0.0
0
LINE
8
TOP
10
0.136363
20
1.288811
30
0.0
11
0.137870
21
1.288387
31
0.0
0
LINE
8
TOP
10
0.137870
20
1.288387
30
0.0
11
0.139412
21
1.288115
31
0.0
0
LINE
8
TOP
10
0.139412
20
1.288115
30
0.0
11
0.140974
21
1.287998
31
0.0
0
LINE
8
TOP
10
0.140974
20
1.287998
30
0.0
11
0.142539
21
1.288037
31
0.0
0
LINE
8
TOP
10
0.142539
20
1.288037
30
0.0
11
0.144093
21
1.288232
31
0.0
0
LINE
8
TOP
10
0.144093
20
1.288232
30
0.0
11
0.145619
21
1.288580
31
0.0
0
LINE
8
TOP
10
0.145619
20
1.288580
30
0.0
11
0.147104
21
1.289079
31
0.0
0
LINE
8
TOP
10
0.147104
20
1.289079
30
0.0
11
0.148531
21
1.289723
31
0.0
0
LINE
8
TOP
10
0.148531
20
1.289723
30
0.0
11
0.149887
21
1.290506
31
0.0
0
LINE
8
TOP
10
0.149887
20
1.290506
30
0.0
11
0.151158
21
1.291420
31
0.0
0
LINE
8
TOP
10
0.151158
20
1.291420
30
0.0
11
0.152333
21
1.292456
31
0.0
0
LINE
8
TOP
10
0.152333
20
1.292456
30
0.0
11
0.153398
21
1.293604
31
0.0
0
LINE
8
TOP
10
0.153398
20
1.293604
30
0.0
11
0.154343
21
1.294852
31
0.0
0
LINE
8
TOP
10
0.154343
20
1.294852
30
0.0
11
0.155160
21
1.296189
31
0.0
0
LINE
8
TOP
10
0.155160
20
1.296189
30
0.0
11
0.155839
21
1.297599
31
0.0
0
LINE
8
TOP
10
0.155839
20
1.297599
30
0.0
11
0.156375
21
1.299071
31
0.0
0
LINE
8
TOP
10
0.156375
20
1.299071
30
0.0
11
0.156761
21
1.300588
31
0.0
0
LINE
8
TOP
10
0.156761
20
1.300588
30
0.0
11
0.156994
21
1.302137
31
0.0
0
LINE
8
TOP
10
0.156994
20
1.302137
30
0.0
11
0.157072
21
1.303701
31
0.0
0
LINE
8
TOP
10
1.036678
20
1.303701
30
0.0
11
1.036600
21
1.305265
31
0.0
0
LINE
8
TOP
10
1.036600
20
1.305265
30
0.0
11
1.036366
21
1.306813
31
0.0
0
LINE
8
TOP
10
1.036366
20
1.306813
30
0.0
11
1.035980
21
1.308330
31
0.0
0
LINE
8
TOP
10
1.035980
20
1.308330
30
0.0
11
1.035444
21
1.309802
31
0.0
0
LINE
8
TOP
10
1.035444
20
1.309802
30
0.0
11
1.034765
21
1.311213
31
0.0
0
LINE
8
TOP
10
1.034765
20
1.311213
30
0.0
11
1.033948
21
1.312549
31
0.0
0
LINE
8
TOP
10
1.033948
20
1.312549
30
0.0
11
1.033003
21
1.313797
31
0.0
0
LINE
8
TOP
10
1.033003
20
1.313797
30
0.0
11
1.031938
21
1.314945
31
0.0
0
LINE
8
TOP
10
1.031938
20
1.314945
30
0.0
11
1.030764
21
1.315981
31
0.0
0
LINE
8
TOP
10
1.030764
20
1.315981
30
0.0
11
1.029492
21
1.316895
31
0.0
0
LINE
8
TOP
10
1.029492
20
1.316895
30
0.0
11
1.028136
21
1.317678
31
0.0
0
LINE
8
TOP
10
1.028136
20
1.317678
30
0.0
11
1.026709
21
1.318322
31
0.0
0
LINE
8
TOP
10
1.026709
20
1.318322
30
0.0
11
1.025225
21
1.318821
31
0.0
0
LINE
8
TOP
10
1.025225
20
1.318821
30
0.0
11
1.023698
21
1.319169
31
0.0
0
LINE
8
TOP
10
1.023698
20
1.319169
30
0.0
11
1.022144
21
1.319364
31
0.0
0
LINE
8
TOP
10
1.022144
20
1.319364
30
0.0
11
1.020579
21
1.319403
31
0.0
0
LINE
8
TOP
10
1.020579
20
1.319403
30
0.0
11
1.019017
21
1.319286
31
0.0
0
LINE
8
TOP
10
1.019017
20
1.319286
30
0.0
11
1.017475
21
1.319014
31
0.0
0
LINE
8
TOP
10
1.017475
20
1.319014
30
0.0
11
1.015968
21
1.318590
31
0.0
0
LINE
8
TOP
10
1.015968
20
1.318590
30
0.0
11
1.014510
21
1.318018
31
0.0
0
LINE
8
TOP
10
1.014510
20
1.318018
30
0.0
11
1.013117
21
1.317304
31
0.0
0
LINE
8
TOP
10
1.013117
20
1.317304
30
0.0
11
1.011801
21
1.316454
31
0.0
0
LINE
8
TOP
10
1.011801
20
1.316454
30
0.0
11
1.010577
21
1.315478
31
0.0
0
LINE
8
TOP
10
1.010577
20
1.315478
30
0.0
11
1.009456
21
1.314384
31
0.0
0
LINE
8
TOP
10
1.009456
20
1.314384
30
0.0
11
1.008450
21
1.313185
31
0.0
0
LINE
8
TOP
10
1.008450
20
1.313185
30
0.0
11
1.007568
21
1.311891
31
0.0
0
LINE
8
TOP
10
1.007568
20
1.311891
30
0.0
11
1.006819
21
1.310516
31
0.0
0
LINE
8
TOP
10
1.006819
20
1.310516
30
0.0
11
1.006210
21
1.309073
31
0.0
0
LINE
8
TOP
10
1.006210
20
1.309073
30
0.0
11
1.005749
21
1.307577
31
0.0
0
LINE
8
TOP
10
1.005749
20
1.307577
30
0.0
11
1.005439
21
1.306042
31
0.0
0
LINE
8
TOP
10
1.005439
20
1.306042
30
0.0
11
1.005283
21
1.304484
31
0.0
0
LINE
8
TOP
10
1.005283
20
1.304484
30
0.0
11
1.005283
21
1.302918
31
0.0
0
LINE
8
TOP
10
1.005283
20
1.302918
30
0.0
11
1.005439
21
1.301360
31
0.0
0
LINE
8
TOP
10
1.005439
20
1.301360
30
0.0
11
1.005749
21
1.299825
31
0.0
0
LINE
8
TOP
10
1.005749
20
1.299825
30
0.0
11
1.006210
21
1.298328
31
0.0
0
LINE
8
TOP
10
1.006210
20
1.298328
30
0.0
11
1.006819
21
1.296886
31
0.0
0
LINE
8
TOP
10
1.006819
20
1.296886
30
0.0
11
1.007568
21
1.295510
31
0.0
0
LINE
8
TOP
10
1.007568
20
1.295510
30
0.0
11
1.008450
21
1.294217
31
0.0
0
LINE
8
TOP
10
1.008450
20
1.294217
30
0.0
11
1.009456
21
1.293017
31
0.0
0
LINE
8
TOP
10
1.009456
20
1.293017
30
0.0
11
1.010577
21
1.291924
31
0.0
0
LINE
8
TOP
10
1.010577
20
1.291924
30
0.0
11
1.011801
21
1.290947
31
0.0
0
LINE
8
TOP
10
1.011801
20
1.290947
30
0.0
11
1.013117
21
1.290098
31
0.0
0
LINE
8
TOP
10
1.013117
20
1.290098
30
0.0
11
1.014510
21
1.289383
31
0.0
0
LINE
8
TOP
10
1.014510
20
1.289383
30
0.0
11
1.015968
21
1.288811
31
0.0
0
LINE
8
TOP
10
1.015968
20
1.288811
30
0.0
11
1.017475
21
1.288387
31
0.0
0
LINE
8
TOP
10
1.017475
20
1.288387
30
0.0
11
1.019017
21
1.288115
31
0.0
0
LINE
8
TOP
10
1.019017
20
1.288115
30
0.0
11
1.020579
21
1.287998
31
0.0
0
LINE
8
TOP
10
1.020579
20
1.287998
30
0.0
11
1.022144
21
1.288037
31
0.0
0
LINE
8
TOP
10
1.022144
20
1.288037
30
0.0
11
1.023698
21
1.288232
31
0.0
0
LINE
8
TOP
10
1.023698
20
1.288232
30
0.0
11
1.025225
21
1.288580
31
0.0
0
LINE
8
TOP
10
1.025225
20
1.288580
30
0.0
11
1.026709
21
1.289079
31
0.0
0
LINE
8
TOP
10
1.026709
20
1.289079
30
0.0
11
1.028136
21
1.289723
31
0.0
0
LINE
8
TOP
10
1.028136
20
1.289723
30
0.0
11
1.029492
21
1.290506
31
0.0
0
LINE
8
TOP
10
1.029492
20
1.290506
30
0.0
11
1.030764
21
1.291420
31
0.0
0
LINE
8
TOP
10
1.030764
20
1.291420
30
0.0
11
1.031938
21
1.292456
31
0.0
0
LINE
8
TOP
10
1.031938
20
1.292456
30
0.0
11
1.033003
21
1.293604
31
0.0
0
LINE
8
TOP
10
1.033003
20
1.293604
30
0.0
11
1.033948
21
1.294852
31
0.0
0
LINE
8
TOP
10
1.033948
20
1.294852
30
0.0
11
1.034765
21
1.296189
31
0.0
0
LINE
8
TOP
10
1.034765
20
1.296189
30
0.0
11
1.035444
21
1.297599
31
0.0
0
LINE
8
TOP
10
1.035444
20
1.297599
30
0.0
11
1.035980
21
1.299071
31
0.0
0
LINE
8
TOP
10
1.035980
20
1.299071
30
0.0
11
1.036366
21
1.300588
31
0.0
0
LINE
8
TOP
10
1.036366
20
1.300588
30
0.0
11
1.036600
21
1.302137
31
0.0
0
LINE
8
TOP
10
1.036600
20
1.302137
30
0.0
11
1.036678
21
1.303701
31
0.0
0
LINE
8
TOP
10
0.901316
20
0.314145
30
0.0
11
0.901316
21
1.240872
31
0.0
0
LINE
8
TOP
10
0.388158
20
0.403372
30
0.0
11
0.387962
21
0.407302
31
0.0
0
LINE
8
TOP
10
0.387962
20
0.407302
30
0.0
11
0.387375
21
0.411193
31
0.0
0
LINE
8
TOP
10
0.387375
20
0.411193
30
0.0
11
0.386404
21
0.415007
31
0.0
0
LINE
8
TOP
10
0.386404
20
0.415007
30
0.0
11
0.385058
21
0.418705
31
0.0
0
LINE
8
TOP
10
0.385058
20
0.418705
30
0.0
11
0.383351
21
0.422250
31
0.0
0
LINE
8
TOP
10
0.383351
20
0.422250
30
0.0
11
0.381299
21
0.425608
31
0.0
0
LINE
8
TOP
10
0.381299
20
0.425608
30
0.0
11
0.378923
21
0.428745
31
0.0
0
LINE
8
TOP
10
0.378923
20
0.428745
30
0.0
11
0.376246
21
0.431630
31
0.0
0
LINE
8
TOP
10
0.376246
20
0.431630
30
0.0
11
0.373296
21
0.434233
31
0.0
0
LINE
8
TOP
10
0.373296
20
0.434233
30
0.0
11
0.370101
21
0.436531
31
0.0
0
LINE
8
TOP
10
0.370101
20
0.436531
30
0.0
11
0.366693
21
0.438498
31
0.0
0
LINE
8
TOP
10
0.366693
20
0.438498
30
0.0
11
0.363106
21
0.440117
31
0.0
0
LINE
8
TOP
10
0.363106
20
0.440117
30
0.0
11
0.359375
21
0.441370
31
0.0
0
LINE
8
TOP
10
0.359375
20
0.441370
30
0.0
11
0.355539
21
0.442246
31
0.0
0
LINE
8
TOP
10
0.355539
20
0.442246
30
0.0
11
0.351634
21
0.442735
31
0.0
0
LINE
8
TOP
10
0.351634
20
0.442735
30
0.0
11
0.347700
21
0.442833
31
0.0
0
LINE
8
TOP
10
0.347700
20
0.442833
30
0.0
11
0.343776
21
0.442539
31
0.0
0
LINE
8
TOP
10
0.343776
20
0.442539
30
0.0
11
0.339900
21
0.441856
31
0.0
0
LINE
8
TOP
10
0.339900
20
0.441856
30
0.0
11
0.336112
21
0.440790
31
0.0
0
LINE
8
TOP
10
0.336112
20
0.440790
30
0.0
11
0.332449
21
0.439352
31
0.0
0
LINE
8
TOP
10
0.332449
20
0.439352
30
0.0
11
0.328947
21
0.437557
31
0.0
0
LINE
8
TOP
10
0.328947
20
0.437557
30
0.0
11
0.325642
21
0.435422
31
0.0
0
LINE
8
TOP
10
0.325642
20
0.435422
30
0.0
11
0.322565
21
0.432968
31
0.0
0
LINE
8
TOP
10
0.322565
20
0.432968
30
0.0
11
0.319748
21
0.430221
31
0.0
0
LINE
8
TOP
10
0.319748
20
0.430221
30
0.0
11
0.317218
21
0.427206
31
0.0
0
LINE
8
TOP
10
0.317218
20
0.427206
30
0.0
11
0.315002
21
0.423955
31
0.0
0
LINE
8
TOP
10
0.315002
20
0.423955
30
0.0
11
0.313120
21
0.420499
31
0.0
0
LINE
8
TOP
10
0.313120
20
0.420499
30
0.0
11
0.311591
21
0.416873
31
0.0
0
LINE
8
TOP
10
0.311591
20
0.416873
30
0.0
11
0.310431
21
0.413112
31
0.0
0
LINE
8
TOP
10
0.310431
20
0.413112
30
0.0
11
0.309651
21
0.409255
31
0.0
0
LINE
8
TOP
10
0.309651
20
0.409255
30
0.0
11
0.309260
21
0.405339
31
0.0
0
LINE
8
TOP
10
0.309260
20
0.405339
30
0.0
11
0.309260
21
0.401404
31
0.0
0
LINE
8
TOP
10
0.309260
20
0.401404
30
0.0
11
0.309651
21
0.397488
31
0.0
0
LINE
8
TOP
10
0.309651
20
0.397488
30
0.0
11
0.310431
21
0.393631
31
0.0
0
LINE
8
TOP
10
0.310431
20
0.393631
30
0.0
11
0.311591
21
0.389871
31
0.0
0
LINE
8
TOP
10
0.311591
20
0.389871
30
0.0
11
0.313120
21
0.386245
31
0.0
0
LINE
8
TOP
10
0.313120
20
0.386245
30
0.0
11
0.315002
21
0.382789
31
0.0
0
LINE
8
TOP
10
0.315002
20
0.382789
30
0.0
11
0.317218
21
0.379537
31
0.0
0
LINE
8
TOP
10
0.317218
20
0.379537
30
0.0
11
0.319748
21
0.376523
31
0.0
0
LINE
8
TOP
10
0.319748
20
0.376523
30
0.0
11
0.322565
21
0.373775
31
0.0
0
LINE
8
TOP
10
0.322565
20
0.373775
30
0.0
11
0.325642
21
0.371322
31
0.0
0
LINE
8
TOP
10
0.325642
20
0.371322
30
0.0
11
0.328947
21
0.369186
31
0.0
0
LINE
8
TOP
10
0.328947
20
0.369186
30
0.0
11
0.332449
21
0.367391
31
0.0
0
LINE
8
TOP
10
0.332449
20
0.367391
30
0.0
11
0.336112
21
0.365954
31
0.0
0
LINE
8
TOP
10
0.336112
20
0.365954
30
0.0
11
0.339900
21
0.364888
31
0.0
0
LINE
8
TOP
10
0.339900
20
0.364888
30
0.0
11
0.343776
21
0.364204
31
0.0
0
LINE
8
TOP
10
0.343776
20
0.364204
30
0.0
11
0.347700
21
0.363910
31
0.0
0
LINE
8
TOP
10
0.347700
20
0.363910
30
0.0
11
0.351634
21
0.364008
31
0.0
0
LINE
8
TOP
10
0.351634
20
0.364008
30
0.0
11
0.355539
21
0.364498
31
0.0
0
LINE
8
TOP
10
0.355539
20
0.364498
30
0.0
11
0.359375
21
0.365373
31
0.0
0
LINE
8
TOP
10
0.359375
20
0.365373
30
0.0
11
0.363106
21
0.366627
31
0.0
0
LINE
8
TOP
10
0.363106
20
0.366627
30
0.0
11
0.366693
21
0.368245
31
0.0
0
LINE
8
TOP
10
0.366693
20
0.368245
30
0.0
11
0.370101
21
0.370213
31
0.0
0
LINE
8
TOP
10
0.370101
20
0.370213
30
0.0
11
0.373296
21
0.372510
31
0.0
0
LINE
8
TOP
10
0.373296
20
0.372510
30
0.0
11
0.376246
21
0.375114
31
0.0
0
LINE
8
TOP
10
0.376246
20
0.375114
30
0.0
11
0.378923
21
0.377999
31
0.0
0
LINE
8
TOP
10
0.378923
20
0.377999
30
0.0
11
0.381299
21
0.381135
31
0.0
0
LINE
8
TOP
10
0.381299
20
0.381135
30
0.0
11
0.383351
21
0.384493
31
0.0
0
LINE
8
TOP
10
0.383351
20
0.384493
30
0.0
11
0.385058
21
0.388039
31
0.0
0
LINE
8
TOP
10
0.385058
20
0.388039
30
0.0
11
0.386404
21
0.391737
31
0.0
0
LINE
8
TOP
10
0.386404
20
0.391737
30
0.0
11
0.387375
21
0.395550
31
0.0
0
LINE
8
TOP
10
0.387375
20
0.395550
30
0.0
11
0.387962
21
0.399441
31
0.0
0
LINE
8
TOP
10
0.387962
20
0.399441
30
0.0
11
0.388158
21
0.403372
31
0.0
0
LINE
8
TOP
10
0.851974
20
0.403372
30
0.0
11
0.851778
21
0.407302
31
0.0
0
LINE
8
TOP
10
0.851778
20
0.407302
30
0.0
11
0.851191
21
0.411193
31
0.0
0
LINE
8
TOP
10
0.851191
20
0.411193
30
0.0
11
0.850220
21
0.415007
31
0.0
0
LINE
8
TOP
10
0.850220
20
0.415007
30
0.0
11
0.848874
21
0.418705
31
0.0
0
LINE
8
TOP
10
0.848874
20
0.418705
30
0.0
11
0.847167
21
0.422250
31
0.0
0
LINE
8
TOP
10
0.847167
20
0.422250
30
0.0
11
0.845115
21
0.425608
31
0.0
0
LINE
8
TOP
10
0.845115
20
0.425608
30
0.0
11
0.842739
21
0.428745
31
0.0
0
LINE
8
TOP
10
0.842739
20
0.428745
30
0.0
11
0.840062
21
0.431630
31
0.0
0
LINE
8
TOP
10
0.840062
20
0.431630
30
0.0
11
0.837111
21
0.434233
31
0.0
0
LINE
8
TOP
10
0.837111
20
0.434233
30
0.0
11
0.833916
21
0.436531
31
0.0
0
LINE
8
TOP
10
0.833916
20
0.436531
30
0.0
11
0.830508
21
0.438498
31
0.0
0
LINE
8
TOP
10
0.830508
20
0.438498
30
0.0
11
0.826921
21
0.440117
31
0.0
0
LINE
8
TOP
10
0.826921
20
0.440117
30
0.0
11
0.823191
21
0.441370
31
0.0
0
LINE
8
TOP
10
0.823191
20
0.441370
30
0.0
11
0.819355
21
0.442246
31
0.0
0
LINE
8
TOP
10
0.819355
20
0.442246
30
0.0
11
0.815450
21
0.442735
31
0.0
0
LINE
8
TOP
10
0.815450
20
0.442735
30
0.0
11
0.811516
21
0.442833
31
0.0
0
LINE
8
TOP
10
0.811516
20
0.442833
30
0.0
11
0.807592
21
0.442539
31
0.0
0
LINE
8
TOP
10
0.807592
20
0.442539
30
0.0
11
0.803716
21
0.441856
31
0.0
0
LINE
8
TOP
10
0.803716
20
0.441856
30
0.0
11
0.799928
21
0.440790
31
0.0
0
LINE
8
TOP
10
0.799928
20
0.440790
30
0.0
11
0.796265
21
0.439352
31
0.0
0
LINE
8
TOP
10
0.796265
20
0.439352
30
0.0
11
0.792763
21
0.437557
31
0.0
0
LINE
8
TOP
10
0.792763
20
0.437557
30
0.0
11
0.789457
21
0.435422
31
0.0
0
LINE
8
TOP
10
0.789457
20
0.435422
30
0.0
11
0.786381
21
0.432968
31
0.0
0
LINE
8
TOP
10
0.786381
20
0.432968
30
0.0
11
0.783564
21
0.430221
31
0.0
0
LINE
8
TOP
10
0.783564
20
0.430221
30
0.0
11
0.781034
21
0.427206
31
0.0
0
LINE
8
TOP
10
0.781034
20
0.427206
30
0.0
11
0.778817
21
0.423955
31
0.0
0
LINE
8
TOP
10
0.778817
20
0.423955
30
0.0
11
0.776935
21
0.420499
31
0.0
0
LINE
8
TOP
10
0.776935
20
0.420499
30
0.0
11
0.775407
21
0.416873
31
0.0
0
LINE
8
TOP
10
0.775407
20
0.416873
30
0.0
11
0.774247
21
0.413112
31
0.0
0
LINE
8
TOP
10
0.774247
20
0.413112
30
0.0
11
0.773467
21
0.409255
31
0.0
0
LINE
8
TOP
10
0.773467
20
0.409255
30
0.0
11
0.773075
21
0.405339
31
0.0
0
LINE
8
TOP
10
0.773075
20
0.405339
30
0.0
11
0.773075
21
0.401404
31
0.0
0
LINE
8
TOP
10
0.773075
20
0.401404
30
0.0
11
0.773467
21
0.397488
31
0.0
0
LINE
8
TOP
10
0.773467
20
0.397488
30
0.0
11
0.774247
21
0.393631
31
0.0
0
LINE
8
TOP
10
0.774247
20
0.393631
30
0.0
11
0.775407
21
0.389871
31
0.0
0
LINE
8
TOP
10
0.775407
20
0.389871
30
0.0
11
0.776935
21
0.386245
31
0.0
0
LINE
8
TOP
10
0.776935
20
0.386245
30
0.0
11
0.778817
21
0.382789
31
0.0
0
LINE
8
TOP
10
0.778817
20
0.382789
30
0.0
11
0.781034
21
0.379537
31
0.0
0
LINE
8
TOP
10
0.781034
20
0.379537
30
0.0
11
0.783564
21
0.376523
31
0.0
0
LINE
8
TOP
10
0.783564
20
0.376523
30
0.0
11
0.786381
21
0.373775
31
0.0
0
LINE
8
TOP
10
0.786381
20
0.373775
30
0.0
11
0.789457
21
0.371322
31
0.0
0
LINE
8
TOP
10
0.789457
20
0.371322
30
0.0
11
0.792763
21
0.369186
31
0.0
0
LINE
8
TOP
10
0.792763
20
0.369186
30
0.0
11
0.796265
21
0.367391
31
0.0
0
LINE
8
TOP
10
0.796265
20
0.367391
30
0.0
11
0.799928
21
0.365954
31
0.0
0
LINE
8
TOP
10
0.799928
20
0.365954
30
0.0
11
0.803716
21
0.364888
31
0.0
0
LINE
8
TOP
10
0.803716
20
0.364888
30
0.0
11
0.807592
21
0.364204
31
0.0
0
LINE
8
TOP
10
0.807592
20
0.364204
30
0.0
11
0.811516
21
0.363910
31
0.0
0
LINE
8
TOP
10
0.811516
20
0.363910
30
0.0
11
0.815450
21
0.364008
31
0.0
0
LINE
8
TOP
10
0.815450
20
0.364008
30
0.0
11
0.819355
21
0.364498
31
0.0
0
LINE
8
TOP
10
0.819355
20
0.364498
30
0.0
11
0.823191
21
0.365373
31
0.0
0
LINE
8
TOP
10
0.823191
20
0.365373
30
0.0
11
0.826921
21
0.366627
31
0.0
0
LINE
8
TOP
10
0.826921
20
0.366627
30
0.0
11
0.830508
21
0.368245
31
0.0
0
LINE
8
TOP
10
0.830508
20
0.368245
30
0.0
11
0.833916
21
0.370213
31
0.0
0
LINE
8
TOP
10
0.833916
20
0.370213
30
0.0
11
0.837111
21
0.372510
31
0.0
0
LINE
8
TOP
10
0.837111
20
0.372510
30
0.0
11
0.840062
21
0.375114
31
0.0
0
LINE
8
TOP
10
0.840062
20
0.375114
30
0.0
11
0.842739
21
0.377999
31
0.0
0
LINE
8
TOP
10
0.842739
20
0.377999
30
0.0
11
0.845115
21
0.381135
31
0.0
0
LINE
8
TOP
10
0.845115
20
0.381135
30
0.0
11
0.847167
21
0.384493
31
0.0
0
LINE
8
TOP
10
0.847167
20
0.384493
30
0.0
11
0.848874
21
0.388039
31
0.0
0
LINE
8
TOP
10
0.848874
20
0.388039
30
0.0
11
0.850220
21
0.391737
31
0.0
0
LINE
8
TOP
10
0.850220
20
0.391737
30
0.0
11
0.851191
21
0.395550
31
0.0
0
LINE
8
TOP
10
0.851191
20
0.395550
30
0.0
11
0.851778
21
0.399441
31
0.0
0
LINE
8
TOP
10
0.851778
20
0.399441
30
0.0
11
0.851974
21
0.403372
31
0.0
0
LINE
8
TOP
10
0.605263
20
0.778372
30
0.0
11
0.605116
21
0.781319
31
0.0
0
LINE
8
TOP
10
0.605116
20
0.781319
30
0.0
11
0.604676
21
0.784238
31
0.0
0
LINE
8
TOP
10
0.604676
20
0.784238
30
0.0
11
0.603948
21
0.787098
31
0.0
0
LINE
8
TOP
10
0.603948
20
0.787098
30
0.0
11
0.602938
21
0.789871
31
0.0
0
LINE
8
TOP
10
0.602938
20
0.789871
30
0.0
11
0.601658
21
0.792531
31
0.0
0
LINE
8
TOP
10
0.601658
20
0.792531
30
0.0
11
0.600119
21
0.795049
31
0.0
0
LINE
8
TOP
10
0.600119
20
0.795049
30
0.0
11
0.598337
21
0.797402
31
0.0
0
LINE
8
TOP
10
0.598337
20
0.797402
30
0.0
11
0.596329
21
0.799565
31
0.0
0
LINE
8
TOP
10
0.596329
20
0.799565
30
0.0
11
0.594116
21
0.801518
31
0.0
0
LINE
8
TOP
10
0.594116
20
0.801518
30
0.0
11
0.591720
21
0.803241
31
0.0
0
LINE
8
TOP
10
0.591720
20
0.803241
30
0.0
11
0.589164
21
0.804717
31
0.0
0
LINE
8
TOP
10
0.589164
20
0.804717
30
0.0
11
0.586474
21
0.805930
31
0.0
0
LINE
8
TOP
10
0.586474
20
0.805930
30
0.0
11
0.583676
21
0.806870
31
0.0
0
LINE
8
TOP
10
0.583676
20
0.806870
30
0.0
11
0.580799
21
0.807527
31
0.0
0
LINE
8
TOP
10
0.580799
20
0.807527
30
0.0
11
0.577870
21
0.807894
31
0.0
0
LINE
8
TOP
10
0.577870
20
0.807894
30
0.0
11
0.574920
21
0.807968
31
0.0
0
LINE
8
TOP
10
0.574920
20
0.807968
30
0.0
11
0.571977
21
0.807747
31
0.0
0
LINE
8
TOP
10
0.571977
20
0.807747
30
0.0
11
0.569070
21
0.807235
31
0.0
0
LINE
8
TOP
10
0.569070
20
0.807235
30
0.0
11
0.566229
21
0.806435
31
0.0
0
LINE
8
TOP
10
0.566229
20
0.806435
30
0.0
11
0.563482
21
0.805357
31
0.0
0
LINE
8
TOP
10
0.563482
20
0.805357
30
0.0
11
0.560855
21
0.804011
31
0.0
0
LINE
8
TOP
10
0.560855
20
0.804011
30
0.0
11
0.558376
21
0.802409
31
0.0
0
LINE
8
TOP
10
0.558376
20
0.802409
30
0.0
11
0.556069
21
0.800569
31
0.0
0
LINE
8
TOP
10
0.556069
20
0.800569
30
0.0
11
0.553956
21
0.798508
31
0.0
0
LINE
8
TOP
10
0.553956
20
0.798508
30
0.0
11
0.552059
21
0.796247
31
0.0
0
LINE
8
TOP
10
0.552059
20
0.796247
30
0.0
11
0.550396
21
0.793809
31
0.0
0
LINE
8
TOP
10
0.550396
20
0.793809
30
0.0
11
0.548984
21
0.791217
31
0.0
0
LINE
8
TOP
10
0.548984
20
0.791217
30
0.0
11
0.547838
21
0.788497
31
0.0
0
LINE
8
TOP
10
0.547838
20
0.788497
30
0.0
11
0.546968
21
0.785677
31
0.0
0
LINE
8
TOP
10
0.546968
20
0.785677
30
0.0
11
0.546383
21
0.782784
31
0.0
0
LINE
8
TOP
10
0.546383
20
0.782784
30
0.0
11
0.546089
21
0.779847
31
0.0
0
LINE
8
TOP
10
0.546089
20
0.779847
30
0.0
11
0.546089
21
0.776896
31
0.0
0
LINE
8
TOP
10
0.546089
20
0.776896
30
0.0
11
0.546383
21
0.773959
31
0.0
0
LINE
8
TOP
10
0.546383
20
0.773959
30
0.0
11
0.546968
21
0.771066
31
0.0
0
LINE
8
TOP
10
0.546968
20
0.771066
30
0.0
11
0.547838
21
0.768246
31
0.0
0
LINE
8
TOP
10
0.547838
20
0.768246
30
0.0
11
0.548984
21
0.765526
31
0.0
0
LINE
8
TOP
10
0.548984
20
0.765526
30
0.0
11
0.550396
21
0.762934
31
0.0
0
LINE
8
TOP
10
0.550396
20
0.762934
30
0.0
11
0.552059
21
0.760496
31
0.0
0
LINE
8
TOP
10
0.552059
20
0.760496
30
0.0
11
0.553956
21
0.758235
31
0.0
0
LINE
8
TOP
10
0.553956
20
0.758235
30
0.0
11
0.556069
21
0.756174
31
0.0
0
LINE
8
TOP
10
0.556069
20
0.756174
30
0.0
11
0.558376
21
0.754334
31
0.0
0
LINE
8
TOP
10
0.558376
20
0.754334
30
0.0
11
0.560855
21
0.752733
31
0.0
0
LINE
8
TOP
10
0.560855
20
0.752733
30
0.0
11
0.563482
21
0.751386
31
0.0
0
LINE
8
TOP
10
0.563482
20
0.751386
30
0.0
11
0.566229
21
0.750308
31
0.0
0
LINE
8
TOP
10
0.566229
20
0.750308
30
0.0
11
0.569070
21
0.749509
31
0.0
0
LINE
8
TOP
10
0.569070
20
0.749509
30
0.0
11
0.571977
21
0.748996
31
0.0
0
LINE
8
TOP
10
0.571977
20
0.748996
30
0.0
11
0.574920
21
0.748776
31
0.0
0
LINE
8
TOP
10
0.574920
20
0.748776
30
0.0
11
0.577870
21
0.748849
31
0.0
0
LINE
8
TOP
10
0.577870
20
0.748849
30
0.0
11
0.580799
21
0.749216
31
0.0
0
LINE
8
TOP
10
0.580799
20
0.749216
30
0.0
11
0.583676
21
0.749873
31
0.0
0
LINE
8
TOP
10
0.583676
20
0.749873
30
0.0
11
0.586474
21
0.750813
31
0.0
0
LINE
8
TOP
10
0.586474
20
0.750813
30
0.0
11
0.589164
21
0.752027
31
0.0
0
LINE
8
TOP
10
0.589164
20
0.752027
30
0.0
11
0.591720
21
0.753503
31
0.0
0
LINE
8
TOP
10
0.591720
20
0.753503
30
0.0
11
0.594116
21
0.755225
31
0.0
0
LINE
8
TOP
10
0.594116
20
0.755225
30
0.0
11
0.596329
21
0.757178
31
0.0
0
LINE
8
TOP
10
0.596329
20
0.757178
30
0.0
11
0.598337
21
0.759342
31
0.0
0
LINE
8
TOP
10
0.598337
20
0.759342
30
0.0
11
0.600119
21
0.761694
31
0.0
0
LINE
8
TOP
10
0.600119
20
0.761694
30
0.0
11
0.601658
21
0.764213
31
0.0
0
LINE
8
TOP
10
0.601658
20
0.764213
30
0.0
11
0.602938
21
0.766872
31
0.0
0
LINE
8
TOP
10
0.602938
20
0.766872
30
0.0
11
0.603948
21
0.769645
31
0.0
0
LINE
8
TOP
10
0.603948
20
0.769645
30
0.0
11
0.604676
21
0.772506
31
0.0
0
LINE
8
TOP
10
0.604676
20
0.772506
30
0.0
11
0.605116
21
0.775424
31
0.0
0
LINE
8
TOP
10
0.605116
20
0.775424
30
0.0
11
0.605263
21
0.778372
31
0.0
0
LINE
8
TOP
10
0.388158
20
1.153372
30
0.0
11
0.387962
21
1.157302
31
0.0
0
LINE
8
TOP
10
0.387962
20
1.157302
30
0.0
11
0.387375
21
1.161193
31
0.0
0
LINE
8
TOP
10
0.387375
20
1.161193
30
0.0
11
0.386404
21
1.165007
31
0.0
0
LINE
8
TOP
10
0.386404
20
1.165007
30
0.0
11
0.385058
21
1.168705
31
0.0
0
LINE
8
TOP
10
0.385058
20
1.168705
30
0.0
11
0.383351
21
1.172250
31
0.0
0
LINE
8
TOP
10
0.383351
20
1.172250
30
0.0
11
0.381299
21
1.175608
31
0.0
0
LINE
8
TOP
10
0.381299
20
1.175608
30
0.0
11
0.378923
21
1.178745
31
0.0
0
LINE
8
TOP
10
0.378923
20
1.178745
30
0.0
11
0.376246
21
1.181630
31
0.0
0
LINE
8
TOP
10
0.376246
20
1.181630
30
0.0
11
0.373296
21
1.184233
31
0.0
0
LINE
8
TOP
10
0.373296
20
1.184233
30
0.0
11
0.370101
21
1.186531
31
0.0
0
LINE
8
TOP
10
0.370101
20
1.186531
30
0.0
11
0.366693
21
1.188498
31
0.0
0
LINE
8
TOP
10
0.366693
20
1.188498
30
0.0
11
0.363106
21
1.190117
31
0.0
0
LINE
8
TOP
10
0.363106
20
1.190117
30
0.0
11
0.359375
21
1.191370
31
0.0
0
LINE
8
TOP
10
0.359375
20
1.191370
30
0.0
11
0.355539
21
1.192246
31
0.0
0
LINE
8
TOP
10
0.355539
20
1.192246
30
0.0
11
0.351634
21
1.192735
31
0.0
0
LINE
8
TOP
10
0.351634
20
1.192735
30
0.0
11
0.347700
21
1.192833
31
0.0
0
LINE
8
TOP
10
0.347700
20
1.192833
30
0.0
11
0.343776
21
1.192539
31
0.0
0
LINE
8
TOP
10
0.343776
20
1.192539
30
0.0
11
0.339900
21
1.191856
31
0.0
0
LINE
8
TOP
10
0.339900
20
1.191856
30
0.0
11
0.336112
21
1.190790
31
0.0
0
LINE
8
TOP
10
0.336112
20
1.190790
30
0.0
11
0.332449
21
1.189352
31
0.0
0
LINE
8
TOP
10
0.332449
20
1.189352
30
0.0
11
0.328947
21
1.187557
31
0.0
0
LINE
8
TOP
10
0.328947
20
1.187557
30
0.0
11
0.325642
21
1.185422
31
0.0
0
LINE
8
TOP
10
0.325642
20
1.185422
30
0.0
11
0.322565
21
1.182968
31
0.0
0
LINE
8
TOP
10
0.322565
20
1.182968
30
0.0
11
0.319748
21
1.180221
31
0.0
0
LINE
8
TOP
10
0.319748
20
1.180221
30
0.0
11
0.317218
21
1.177206
31
0.0
0
LINE
8
TOP
10
0.317218
20
1.177206
30
0.0
11
0.315002
21
1.173955
31
0.0
0
LINE
8
TOP
10
0.315002
20
1.173955
30
0.0
11
0.313120
21
1.170499
31
0.0
0
LINE
8
TOP
10
0.313120
20
1.170499
30
0.0
11
0.311591
21
1.166873
31
0.0
0
LINE
8
TOP
10
0.311591
20
1.166873
30
0.0
11
0.310431
21
1.163112
31
0.0
0
LINE
8
TOP
10
0.310431
20
1.163112
30
0.0
11
0.309651
21
1.159255
31
0.0
0
LINE
8
TOP
10
0.309651
20
1.159255
30
0.0
11
0.309260
21
1.155339
31
0.0
0
LINE
8
TOP
10
0.309260
20
1.155339
30
0.0
11
0.309260
21
1.151404
31
0.0
0
LINE
8
TOP
10
0.309260
20
1.151404
30
0.0
11
0.309651
21
1.147488
31
0.0
0
LINE
8
TOP
10
0.309651
20
1.147488
30
0.0
11
0.310431
21
1.143631
31
0.0
0
LINE
8
TOP
10
0.310431
20
1.143631
30
0.0
11
0.311591
21
1.139871
31
0.0
0
LINE
8
TOP
10
0.311591
20
1.139871
30
0.0
11
0.313120
21
1.136245
31
0.0
0
LINE
8
TOP
10
0.313120
20
1.136245
30
0.0
11
0.315002
21
1.132789
31
0.0
0
LINE
8
TOP
10
0.315002
20
1.132789
30
0.0
11
0.317218
21
1.129537
31
0.0
0
LINE
8
TOP
10
0.317218
20
1.129537
30
0.0
11
0.319748
21
1.126523
31
0.0
0
LINE
8
TOP
10
0.319748
20
1.126523
30
0.0
11
0.322565
21
1.123775
31
0.0
0
LINE
8
TOP
10
0.322565
20
1.123775
30
0.0
11
0.325642
21
1.121322
31
0.0
0
LINE
8
TOP
10
0.325642
20
1.121322
30
0.0
11
0.328947
21
1.119186
31
0.0
0
LINE
8
TOP
10
0.328947
20
1.119186
30
0.0
11
0.332449
21
1.117391
31
0.0
0
LINE
8
TOP
10
0.332449
20
1.117391
30
0.0
11
0.336112
21
1.115954
31
0.0
0
LINE
8
TOP
10
0.336112
20
1.115954
30
0.0
11
0.339900
21
1.114888
31
0.0
0
LINE
8
TOP
10
0.339900
20
1.114888
30
0.0
11
0.343776
21
1.114204
31
0.0
0
LINE
8
TOP
10
0.343776
20
1.114204
30
0.0
11
0.347700
21
1.113910
31
0.0
0
LINE
8
TOP
10
0.347700
20
1.113910
30
0.0
11
0.351634
21
1.114008
31
0.0
0
LINE
8
TOP
10
0.351634
20
1.114008
30
0.0
11
0.355539
21
1.114498
31
0.0
0
LINE
8
TOP
10
0.355539
20
1.114498
30
0.0
11
0.359375
21
1.115373
31
0.0
0
LINE
8
TOP
10
0.359375
20
1.115373
30
0.0
11
0.363106
21
1.116627
31
0.0
0
LINE
8
TOP
10
0.363106
20
1.116627
30
0.0
11
0.366693
21
1.118245
31
0.0
0
LINE
8
TOP
10
0.366693
20
1.118245
30
0.0
11
0.370101
21
1.120213
31
0.0
0
LINE
8
TOP
10
0.370101
20
1.120213
30
0.0
11
0.373296
21
1.122510
31
0.0
0
LINE
8
TOP
10
0.373296
20
1.122510
30
0.0
11
0.376246
21
1.125114
31
0.0
0
LINE
8
TOP
10
0.376246
20
1.125114
30
0.0
11
0.378923
21
1.127999
31
0.0
0
LINE
8
TOP
10
0.378923
20
1.127999
30
0.0
11
0.381299
21
1.131135
31
0.0
0
LINE
8
TOP
10
0.381299
20
1.131135
30
0.0
11
0.383351
21
1.134493
31
0.0
0
LINE
8
TOP
10
0.383351
20
1.134493
30
0.0
11
0.385058
21
1.138039
31
0.0
0
LINE
8
TOP
10
0.385058
20
1.138039
30
0.0
11
0.386404
21
1.141737
31
0.0
0
LINE
8
TOP
10
0.386404
20
1.141737
30
0.0
11
0.387375
21
1.145550
31
0.0
0
LINE
8
TOP
10
0.387375
20
1.145550
30
0.0
11
0.387962
21
1.149441
31
0.0
0
LINE
8
TOP
10
0.387962
20
1.149441
30
0.0
11
0.388158
21
1.153372
31
0.0
0
LINE
8
TOP
10
0.851974
20
1.153372
30
0.0
11
0.851778
21
1.157302
31
0.0
0
LINE
8
TOP
10
0.851778
20
1.157302
30
0.0
11
0.851191
21
1.161193
31
0.0
0
LINE
8
TOP
10
0.851191
20
1.161193
30
0.0
11
0.850220
21
1.165007
31
0.0
0
LINE
8
TOP
10
0.850220
20
1.165007
30
0.0
11
0.848874
21
1.168705
31
0.0
0
LINE
8
TOP
10
0.848874
20
1.168705
30
0.0
11
0.847167
21
1.172250
31
0.0
0
LINE
8
TOP
10
0.847167
20
1.172250
30
0.0
11
0.845115
21
1.175608
31
0.0
0
LINE
8
TOP
10
0.845115
20
1.175608
30
0.0
11
0.842739
21
1.178745
31
0.0
0
LINE
8
TOP
10
0.842739
20
1.178745
30
0.0
11
0.840062
21
1.181630
31
0.0
0
LINE
8
TOP
10
0.840062
20
1.181630
30
0.0
11
0.837111
21
1.184233
31
0.0
0
LINE
8
TOP
10
0.837111
20
1.184233
30
0.0
11
0.833916
21
1.186531
31
0.0
0
LINE
8
TOP
10
0.833916
20
1.186531
30
0.0
11
0.830508
21
1.188498
31
0.0
0
LINE
8
TOP
10
0.830508
20
1.188498
30
0.0
11
0.826921
21
1.190117
31
0.0
0
LINE
8
TOP
10
0.826921
20
1.190117
30
0.0
11
0.823191
21
1.191370
31
0.0
0
LINE
8
TOP
10
0.823191
20
1.191370
30
0.0
11
0.819355
21
1.192246
31
0.0
0
LINE
8
TOP
10
0.819355
20
1.192246
30
0.0
11
0.815450
21
1.192735
31
0.0
0
LINE
8
TOP
10
0.815450
20
1.192735
30
0.0
11
0.811516
21
1.192833
31
0.0
0
LINE
8
TOP
10
0.811516
20
1.192833
30
0.0
11
0.807592
21
1.192539
31
0.0
0
LINE
8
TOP
10
0.807592
20
1.192539
30
0.0
11
0.803716
21
1.191856
31
0.0
0
LINE
8
TOP
10
0.803716
20
1.191856
30
0.0
11
0.799928
21
1.190790
31
0.0
0
LINE
8
TOP
10
0.799928
20
1.190790
30
0.0
11
0.796265
21
1.189352
31
0.0
0
LINE
8
TOP
10
0.796265
20
1.189352
30
0.0
11
0.792763
21
1.187557
31
0.0
0
LINE
8
TOP
10
0.792763
20
1.187557
30
0.0
11
0.789457
21
1.185422
31
0.0
0
LINE
8
TOP
10
0.789457
20
1.185422
30
0.0
11
0.786381
21
1.182968
31
0.0
0
LINE
8
TOP
10
0.786381
20
1.182968
30
0.0
11
0.783564
21
1.180221
31
0.0
0
LINE
8
TOP
10
0.783564
20
1.180221
30
0.0
11
0.781034
21
1.177206
31
0.0
0
LINE
8
TOP
10
0.781034
20
1.177206
30
0.0
11
0.778817
21
1.173955
31
0.0
0
LINE
8
TOP
10
0.778817
20
1.173955
30
0.0
11
0.776935
21
1.170499
31
0.0
0
LINE
8
TOP
10
0.776935
20
1.170499
30
0.0
11
0.775407
21
1.166873
31
0.0
0
LINE
8
TOP
10
0.775407
20
1.166873
30
0.0
11
0.774247
21
1.163112
31
0.0
0
LINE
8
TOP
10
0.774247
20
1.163112
30
0.0
11
0.773467
21
1.159255
31
0.0
0
LINE
8
TOP
10
0.773467
20
1.159255
30
0.0
11
0.773075
21
1.155339
31
0.0
0
LINE
8
TOP
10
0.773075
20
1.155339
30
0.0
11
0.773075
21
1.151404
31
0.0
0
LINE
8
TOP
10
0.773075
20
1.151404
30
0.0
11
0.773467
21
1.147488
31
0.0
0
LINE
8
TOP
10
0.773467
20
1.147488
30
0.0
11
0.774247
21
1.143631
31
0.0
0
LINE
8
TOP
10
0.774247
20
1.143631
30
0.0
11
0.775407
21
1.139871
31
0.0
0
LINE
8
TOP
10
0.775407
20
1.139871
30
0.0
11
0.776935
21
1.136245
31
0.0
0
LINE
8
TOP
10
0.776935
20
1.136245
30
0.0
11
0.778817
21
1.132789
31
0.0
0
LINE
8
TOP
10
0.778817
20
1.132789
30
0.0
11
0.781034
21
1.129537
31
0.0
0
LINE
8
TOP
10
0.781034
20
1.129537
30
0.0
11
0.783564
21
1.126523
31
0.0
0
LINE
8
TOP
10
0.783564
20
1.126523
30
0.0
11
0.786381
21
1.123775
31
0.0
0
LINE
8
TOP
10
0.786381
20
1.123775
30
0.0
11
0.789457
21
1.121322
31
0.0
0
LINE
8
TOP
10
0.789457
20
1.121322
30
0.0
11
0.792763
21
1.119186
31
0.0
0
LINE
8
TOP
10
0.792763
20
1.119186
30
0.0
11
0.796265
21
1.117391
31
0.0
0
LINE
8
TOP
10
0.796265
20
1.117391
30
0.0
11
0.799928
21
1.115954
31
0.0
0
LINE
8
TOP
10
0.799928
20
1.115954
30
0.0
11
0.803716
21
1.114888
31
0.0
0
LINE
8
TOP
10
0.803716
20
1.114888
30
0.0
11
0.807592
21
1.114204
31
0.0
0
LINE
8
TOP
10
0.807592
20
1.114204
30
0.0
11
0.811516
21
1.113910
31
0.0
0
LINE
8
TOP
10
0.811516
20
1.113910
30
0.0
11
0.815450
21
1.114008
31
0.0
0
LINE
8
TOP
10
0.815450
20
1.114008
30
0.0
11
0.819355
21
1.114498
31
0.0
0
LINE
8
TOP
10
0.819355
20
1.114498
30
0.0
11
0.823191
21
1.115373
31
0.0
0
LINE
8
TOP
10
0.823191
20
1.115373
30
0.0
11
0.826921
21
1.116627
31
0.0
0
LINE
8
TOP
10
0.826921
20
1.116627
30
0.0
11
0.830508
21
1.118245
31
0.0
0
LINE
8
TOP
10
0.830508
20
1.118245
30
0.0
11
0.833916
21
1.120213
31
0.0
0
LINE
8
TOP
10
0.833916
20
1.120213
30
0.0
11
0.837111
21
1.122510
31
0.0
0
LINE
8
TOP
10
0.837111
20
1.122510
30
0.0
11
0.840062
21
1.125114
31
0.0
0
LINE
8
TOP
10
0.840062
20
1.125114
30
0.0
11
0.842739
21
1.127999
31
0.0
0
LINE
8
TOP
10
0.842739
20
1.127999
30
0.0
11
0.845115
21
1.131135
31
0.0
0
LINE
8
TOP
10
0.845115
20
1.131135
30
0.0
11
0.847167
21
1.134493
31
0.0
0
LINE
8
TOP
10
0.847167
20
1.134493
30
0.0
11
0.848874
21
1.138039
31
0.0
0
LINE
8
TOP
10
0.848874
20
1.138039
30
0.0
11
0.850220
21
1.141737
31
0.0
0
LINE
8
TOP
10
0.850220
20
1.141737
30
0.0
11
0.851191
21
1.145550
31
0.0
0
LINE
8
TOP
10
0.851191
20
1.145550
30
0.0
11
0.851778
21
1.149441
31
0.0
0
LINE
8
TOP
10
0.851778
20
1.149441
30
0.0
11
0.851974
21
1.153372
31
0.0
0
LINE
8
TOP_HID
6
HIDDEN
10
0.901316
20
0.304688
30
0.0
11
0.901316
21
0.314145
31
0.0
0
LINE
8
TOP_HID
6
HIDDEN
10
0.250000
20
0.304688
30
0.0
11
0.901316
21
0.304688
31
0.0
0
LINE
8
TOP_HID
6
HIDDEN
10
0.250000
20
1.242188
30
0.0
11
0.250000
21
0.304688
31
0.0
0
LINE
8
TOP_HID
6
HIDDEN
10
0.901316
20
1.242188
30
0.0
11
0.250000
21
1.242188
31
0.0
0
LINE
8
TOP_HID
6
HIDDEN
10
0.901316
20
1.240872
30
0.0
11
0.901316
21
1.242188
31
0.0
0
LINE
8
TOP_HID
6
HIDDEN
10
0.901316
20
1.240872
30
0.0
11
0.901316
21
1.242188
31
0.0
0
LINE
8
TOP_HID
6
HIDDEN
10
0.901316
20
1.242188
30
0.0
11
0.250000
21
1.242188
31
0.0
0
LINE
8
TOP_HID
6
HIDDEN
10
0.250000
20
1.242188
30
0.0
11
0.250000
21
0.304688
31
0.0
0
LINE
8
TOP_HID
6
HIDDEN
10
0.250000
20
0.304688
30
0.0
11
0.901316
21
0.304688
31
0.0
0
LINE
8
TOP_HID
6
HIDDEN
10
0.901316
20
0.304688
30
0.0
11
0.901316
21
0.314145
31
0.0
0
ENDSEC
0
EOF
