0
SECTION
2
HEADER
9
$ACADVER
1
AC1009
0
ENDSEC
0
SECTION
2
TABLES
0
TABLE
2
LTYPE
70
3
0
LTYPE
2
CONTINUOUS
70
0
3
Solid line
72
65
73
0
40
0.0
0
LTYPE
2
HIDDEN
70
0
3
__ __ __ __ __
72
65
73
2
40
0.050781
49
0.033871
49
-0.016910
0
LTYPE
2
CENTER
70
0
3
___ _ ___ _ ___
72
65
73
4
40
0.118473
49
0.067691
49
-0.016910
49
0.016910
49
-0.016910
0
ENDTAB
0
TABLE
2
LAYER
70
6
0
LAYER
2
0
70
0
62
7
6
CONTINUOUS
0
LAYER
2
FRONT
70
0
62
7
6
CONTINUOUS
0
LAYER
2
LEFT
70
0
62
7
6
CONTINUOUS
0
LAYER
2
LEFT_HID
70
0
62
7
6
HIDDEN
0
LAYER
2
TOP
70
0
62
7
6
CONTINUOUS
0
LAYER
2
TOP_HID
70
0
62
7
6
HIDDEN
0
ENDTAB
0
ENDSEC
0
SECTION
2
ENTITIES
0
LINE
8
FRONT
10
0.000000
20
0.242188
30
0.0
11
0.983553
21
0.242188
31
0.0
0
LINE
8
FRONT
10
0.983553
20
0.242188
30
0.0
11
1.015625
21
0.242188
31
0.0
0
LINE
8
FRONT
10
1.015625
20
0.242188
30
0.0
11
1.015625
21
0.819490
31
0.0
0
LINE
8
FRONT
10
1.015625
20
0.819490
30
0.0
11
0.983553
21
0.819490
31
0.0
0
LINE
8
FRONT
10
0.983553
20
0.819490
30
0.0
11
0.555921
21
0.819490
31
0.0
0
LINE
8
FRONT
10
0.555921
20
0.819490
30
0.0
11
0.481086
21
0.819490
31
0.0
0
LINE
8
FRONT
10
0.481086
20
0.819490
30
0.0
11
0.481086
21
0.530839
31
0.0
0
LINE
8
FRONT
10
0.481086
20
0.530839
30
0.0
11
0.000000
21
0.530839
31
0.0
0
LINE
8
FRONT
10
0.000000
20
0.530839
30
0.0
11
0.000000
21
0.242188
31
0.0
0
LINE
8
FRONT
10
0.748355
20
0.541530
30
0.0
11
0.753678
21
0.541795
31
0.0
0
LINE
8
FRONT
10
0.753678
20
0.541795
30
0.0
11
0.758947
21
0.542589
31
0.0
0
LINE
8
FRONT
10
0.758947
20
0.542589
30
0.0
11
0.764111
21
0.543904
31
0.0
0
LINE
8
FRONT
10
0.764111
20
0.543904
30
0.0
11
0.769119
21
0.545727
31
0.0
0
LINE
8
FRONT
10
0.769119
20
0.545727
30
0.0
11
0.773920
21
0.548039
31
0.0
0
LINE
8
FRONT
10
0.773920
20
0.548039
30
0.0
11
0.778467
21
0.550818
31
0.0
0
LINE
8
FRONT
10
0.778467
20
0.550818
30
0.0
11
0.782715
21
0.554035
31
0.0
0
LINE
8
FRONT
10
0.782715
20
0.554035
30
0.0
11
0.786621
21
0.557660
31
0.0
0
LINE
8
FRONT
10
0.786621
20
0.557660
30
0.0
11
0.790147
21
0.561656
31
0.0
0
LINE
8
FRONT
10
0.790147
20
0.561656
30
0.0
11
0.793258
21
0.565982
31
0.0
0
LINE
8
FRONT
10
0.793258
20
0.565982
30
0.0
11
0.795922
21
0.570597
31
0.0
0
LINE
8
FRONT
10
0.795922
20
0.570597
30
0.0
11
0.798114
21
0.575455
31
0.0
0
LINE
8
FRONT
10
0.798114
20
0.575455
30
0.0
11
0.799811
21
0.580506
31
0.0
0
LINE
8
FRONT
10
0.799811
20
0.580506
30
0.0
11
0.800997
21
0.585701
31
0.0
0
LINE
8
FRONT
10
0.800997
20
0.585701
30
0.0
11
0.801660
21
0.590989
31
0.0
0
LINE
8
FRONT
10
0.801660
20
0.590989
30
0.0
11
0.801793
21
0.596316
31
0.0
0
LINE
8
FRONT
10
0.801793
20
0.596316
30
0.0
11
0.801394
21
0.601630
31
0.0
0
LINE
8
FRONT
10
0.801394
20
0.601630
30
0.0
11
0.800469
21
0.606878
31
0.0
0
LINE
8
FRONT
10
0.800469
20
0.606878
30
0.0
11
0.799026
21
0.612008
31
0.0
0
LINE
8
FRONT
10
0.799026
20
0.612008
30
0.0
11
0.797079
21
0.616968
31
0.0
0
LINE
8
FRONT
10
0.797079
20
0.616968
30
0.0
11
0.794648
21
0.621711
31
0.0
0
LINE
8
FRONT
10
0.794648
20
0.621711
30
0.0
11
0.791757
21
0.626187
31
0.0
0
LINE
8
FRONT
10
0.791757
20
0.626187
30
0.0
11
0.788434
21
0.630353
31
0.0
0
LINE
8
FRONT
10
0.788434
20
0.630353
30
0.0
11
0.784713
21
0.634168
31
0.0
0
LINE
8
FRONT
10
0.784713
20
0.634168
30
0.0
11
0.780631
21
0.637593
31
0.0
0
LINE
8
FRONT
10
0.780631
20
0.637593
30
0.0
11
0.776228
21
0.640595
31
0.0
0
LINE
8
FRONT
10
0.776228
20
0.640595
30
0.0
11
0.771548
21
0.643144
31
0.0
0
LINE
8
FRONT
10
0.771548
20
0.643144
30
0.0
11
0.766638
21
0.645214
31
0.0
0
LINE
8
FRONT
10
0.766638
20
0.645214
30
0.0
11
0.761545
21
0.646785
31
0.0
0
LINE
8
FRONT
10
0.761545
20
0.646785
30
0.0
11
0.756322
21
0.647840
31
0.0
0
LINE
8
FRONT
10
0.756322
20
0.647840
30
0.0
11
0.751020
21
0.648371
31
0.0
0
LINE
8
FRONT
10
0.751020
20
0.648371
30
0.0
11
0.745691
21
0.648371
31
0.0
0
LINE
8
FRONT
10
0.745691
20
0.648371
30
0.0
11
0.740388
21
0.647840
31
0.0
0
LINE
8
FRONT
10
0.740388
20
0.647840
30
0.0
11
0.735165
21
0.646785
31
0.0
0
LINE
8
FRONT
10
0.735165
20
0.646785
30
0.0
11
0.730073
21
0.645214
31
0.0
0
LINE
8
FRONT
10
0.730073
20
0.645214
30
0.0
11
0.725162
21
0.643144
31
0.0
0
LINE
8
FRONT
10
0.725162
20
0.643144
30
0.0
11
0.720482
21
0.640595
31
0.0
0
LINE
8
FRONT
10
0.720482
20
0.640595
30
0.0
11
0.716080
21
0.637593
31
0.0
0
LINE
8
FRONT
10
0.716080
20
0.637593
30
0.0
11
0.711997
21
0.634168
31
0.0
0
LINE
8
FRONT
10
0.711997
20
0.634168
30
0.0
11
0.708276
21
0.630353
31
0.0
0
LINE
8
FRONT
10
0.708276
20
0.630353
30
0.0
11
0.704954
21
0.626187
31
0.0
0
LINE
8
FRONT
10
0.704954
20
0.626187
30
0.0
11
0.702063
21
0.621711
31
0.0
0
LINE
8
FRONT
10
0.702063
20
0.621711
30
0.0
11
0.699632
21
0.616968
31
0.0
0
LINE
8
FRONT
10
0.699632
20
0.616968
30
0.0
11
0.697685
21
0.612008
31
0.0
0
LINE
8
FRONT
10
0.697685
20
0.612008
30
0.0
11
0.696242
21
0.606878
31
0.0
0
LINE
8
FRONT
10
0.696242
20
0.606878
30
0.0
11
0.695316
21
0.601630
31
0.0
0
LINE
8
FRONT
10
0.695316
20
0.601630
30
0.0
11
0.694918
21
0.596316
31
0.0
0
LINE
8
FRONT
10
0.694918
20
0.596316
30
0.0
11
0.695051
21
0.590989
31
0.0
0
LINE
8
FRONT
10
0.695051
20
0.590989
30
0.0
11
0.695713
21
0.585701
31
0.0
0
LINE
8
FRONT
10
0.695713
20
0.585701
30
0.0
11
0.696899
21
0.580506
31
0.0
0
LINE
8
FRONT
10
0.696899
20
0.580506
30
0.0
11
0.698596
21
0.575455
31
0.0
0
LINE
8
FRONT
10
0.698596
20
0.575455
30
0.0
11
0.700788
21
0.570597
31
0.0
0
LINE
8
FRONT
10
0.700788
20
0.570597
30
0.0
11
0.703453
21
0.565982
31
0.0
0
LINE
8
FRONT
10
0.703453
20
0.565982
30
0.0
11
0.706563
21
0.561656
31
0.0
0
LINE
8
FRONT
10
0.706563
20
0.561656
30
0.0
11
0.710089
21
0.557660
31
0.0
0
LINE
8
FRONT
10
0.710089
20
0.557660
30
0.0
11
0.713996
21
0.554035
31
0.0
0
LINE
8
FRONT
10
0.713996
20
0.554035
30
0.0
11
0.718244
21
0.550818
31
0.0
0
LINE
8
FRONT
10
0.718244
20
0.550818
30
0.0
11
0.722791
21
0.548039
31
0.0
0
LINE
8
FRONT
10
0.722791
20
0.548039
30
0.0
11
0.727592
21
0.545727
31
0.0
0
LINE
8
FRONT
10
0.727592
20
0.545727
30
0.0
11
0.732599
21
0.543904
31
0.0
0
LINE
8
FRONT
10
0.732599
20
0.543904
30
0.0
11
0.737764
21
0.542589
31
0.0
0
LINE
8
FRONT
10
0.737764
20
0.542589
30
0.0
11
0.743033
21
0.541795
31
0.0
0
LINE
8
FRONT
10
0.743033
20
0.541795
30
0.0
11
0.748355
21
0.541530
31
0.0
0
LINE
8
LEFT
10
1.218750
20
0.242188
30
0.0
11
1.257812
21
0.242188
31
0.0
0
LINE
8
LEFT
10
1.218750
20
0.819490
30
0.0
11
1.257812
21
0.819490
31
0.0
0
LINE
8
LEFT
10
1.257812
20
0.819490
30
0.0
11
1.257813
21
0.530839
31
0.0
0
LINE
8
LEFT
10
1.218750
20
0.819490
30
0.0
11
1.218750
21
0.530839
31
0.0
0
LINE
8
LEFT
10
1.218750
20
0.530839
30
0.0
11
1.257812
21
0.530839
31
0.0
0
LINE
8
LEFT
10
1.257812
20
0.530839
30
0.0
11
1.257813
21
0.242188
31
0.0
0
LINE
8
LEFT
10
1.218750
20
0.530839
30
0.0
11
1.218750
21
0.242188
31
0.0
0
LINE
8
LEFT_HID
6
HIDDEN
10
1.257812
20
0.242188
30
0.0
11
1.257812
21
0.819490
31
0.0
0
LINE
8
LEFT_HID
6
HIDDEN
10
1.218750
20
0.242188
30
0.0
11
1.218750
21
0.819490
31
0.0
0
LINE
8
LEFT_HID
6
HIDDEN
10
1.218750
20
0.541530
30
0.0
11
1.218750
21
0.648437
31
0.0
0
LINE
8
LEFT_HID
6
HIDDEN
10
1.218750
20
0.648437
30
0.0
11
1.218750
21
0.541530
31
0.0
0
LINE
8
LEFT_HID
6
HIDDEN
10
1.218750
20
0.541530
30
0.0
11
1.257812
21
0.541530
31
0.0
0
LINE
8
LEFT_HID
6
HIDDEN
10
1.257812
20
0.541530
30
0.0
11
1.257812
21
0.648437
31
0.0
0
LINE
8
LEFT_HID
6
HIDDEN
10
1.257812
20
0.648437
30
0.0
11
1.257812
21
0.541530
31
0.0
0
LINE
8
LEFT_HID
6
HIDDEN
10
1.257812
20
0.648437
30
0.0
11
1.218750
21
0.648437
31
0.0
0
LINE
8
TOP
10
1.015625
20
0.039063
30
0.0
11
1.015625
21
0.000000
31
0.0
0
LINE
8
TOP
10
1.015625
20
0.000000
30
0.0
11
0.983553
21
0.000000
31
0.0
0
LINE
8
TOP
10
1.015625
20
0.039063
30
0.0
11
0.983553
21
0.039063
31
0.0
0
LINE
8
TOP
10
0.983553
20
0.000000
30
0.0
11
0.555921
21
0.000000
31
0.0
0
LINE
8
TOP
10
0.983553
20
0.039063
30
0.0
11
0.555921
21
0.039063
31
0.0
0
LINE
8
TOP
10
0.555921
20
0.000000
30
0.0
11
0.481086
21
0.000000
31
0.0
0
LINE
8
TOP
10
0.481086
20
0.039063
30
0.0
11
0.481086
21
0.000000
31
0.0
0
LINE
8
TOP
10
0.555921
20
0.039063
30
0.0
11
0.481086
21
0.039063
31
0.0
0
LINE
8
TOP
10
0.481086
20
0.000000
30
0.0
11
0.000000
21
0.000000
31
0.0
0
LINE
8
TOP
10
0.000000
20
0.039063
30
0.0
11
0.000000
21
0.000000
31
0.0
0
LINE
8
TOP
10
0.481086
20
0.039063
30
0.0
11
0.000000
21
0.039063
31
0.0
0
LINE
8
TOP_HID
6
HIDDEN
10
0.000000
20
0.000000
30
0.0
11
0.983553
21
0.000000
31
0.0
0
LINE
8
TOP_HID
6
HIDDEN
10
0.000000
20
0.039063
30
0.0
11
0.983553
21
0.039063
31
0.0
0
LINE
8
TOP_HID
6
HIDDEN
10
0.748355
20
0.039063
30
0.0
11
0.801809
21
0.039063
31
0.0
0
LINE
8
TOP_HID
6
HIDDEN
10
0.801809
20
0.039063
30
0.0
11
0.694901
21
0.039063
31
0.0
0
LINE
8
TOP_HID
6
HIDDEN
10
0.694901
20
0.039063
30
0.0
11
0.748355
21
0.039063
31
0.0
0
LINE
8
TOP_HID
6
HIDDEN
10
0.748355
20
0.000000
30
0.0
11
0.801809
21
0.000000
31
0.0
0
LINE
8
TOP_HID
6
HIDDEN
10
0.801809
20
0.000000
30
0.0
11
0.694901
21
0.000000
31
0.0
0
LINE
8
TOP_HID
6
HIDDEN
10
0.694901
20
0.000000
30
0.0
11
0.748355
21
0.000000
31
0.0
0
LINE
8
TOP_HID
6
HIDDEN
10
0.801809
20
0.000000
30
0.0
11
0.801809
21
0.039063
31
0.0
0
LINE
8
TOP_HID
6
HIDDEN
10
0.694901
20
0.000000
30
0.0
11
0.694901
21
0.039063
31
0.0
0
ENDSEC
0
EOF
