0
SECTION
2
HEADER
9
$ACADVER
1
AC1009
0
ENDSEC
0
SECTION
2
TABLES
0
TABLE
2
LTYPE
70
3
0
LTYPE
2
CONTINUOUS
70
0
3
Solid line
72
65
73
0
40
0.0
0
LTYPE
2
HIDDEN
70
0
3
__ __ __ __ __
72
65
73
2
40
0.052944
49
0.035314
49
-0.017630
0
LTYPE
2
CENTER
70
0
3
___ _ ___ _ ___
72
65
73
4
40
0.123519
49
0.070574
49
-0.017630
49
0.017630
49
-0.017630
0
ENDTAB
0
TABLE
2
LAYER
70
7
0
LAYER
2
0
70
0
62
7
6
CONTINUOUS
0
LAYER
2
FRONT
70
0
62
7
6
CONTINUOUS
0
LAYER
2
FRONT_HID
70
0
62
7
6
HIDDEN
0
LAYER
2
LEFT
70
0
62
7
6
CONTINUOUS
0
LAYER
2
LEFT_HID
70
0
62
7
6
HIDDEN
0
LAYER
2
TOP
70
0
62
7
6
CONTINUOUS
0
LAYER
2
TOP_HID
70
0
62
7
6
HIDDEN
0
ENDTAB
0
ENDSEC
0
SECTION
2
ENTITIES
0
LINE
8
FRONT
10
0.578125
20
1.270658
30
0.0
11
0.125000
21
1.270658
31
0.0
0
LINE
8
FRONT
10
0.702385
20
1.270658
30
0.0
11
0.596546
21
1.270658
31
0.0
0
LINE
8
FRONT
10
0.596546
20
1.270658
30
0.0
11
0.578125
21
1.270658
31
0.0
0
LINE
8
FRONT
10
0.125000
20
1.270658
30
0.0
11
0.115461
21
1.270658
31
0.0
0
LINE
8
FRONT
10
0.115461
20
1.270658
30
0.0
11
0.000000
21
1.270658
31
0.0
0
LINE
8
FRONT
10
0.125000
20
1.270658
30
0.0
11
0.125000
21
2.098783
31
0.0
0
LINE
8
FRONT
10
0.578125
20
1.270658
30
0.0
11
0.578125
21
2.098783
31
0.0
0
LINE
8
FRONT
10
0.578125
20
2.098783
30
0.0
11
0.125000
21
2.098783
31
0.0
0
LINE
8
FRONT
10
0.000000
20
1.270658
30
0.0
11
0.000000
21
1.895658
31
0.0
0
LINE
8
FRONT
10
0.115461
20
1.895658
30
0.0
11
0.000000
21
1.895658
31
0.0
0
LINE
8
FRONT
10
0.125000
20
1.895658
30
0.0
11
0.115461
21
1.895658
31
0.0
0
LINE
8
FRONT
10
0.596546
20
1.895658
30
0.0
11
0.578125
21
1.895658
31
0.0
0
LINE
8
FRONT
10
0.702385
20
1.270658
30
0.0
11
0.702385
21
1.895658
31
0.0
0
LINE
8
FRONT
10
0.702385
20
1.895658
30
0.0
11
0.596546
21
1.895658
31
0.0
0
LINE
8
FRONT_HID
6
HIDDEN
10
0.039062
20
1.270658
30
0.0
11
0.039062
21
1.309720
31
0.0
0
LINE
8
FRONT_HID
6
HIDDEN
10
0.039062
20
1.309720
30
0.0
11
0.657977
21
1.309720
31
0.0
0
LINE
8
FRONT_HID
6
HIDDEN
10
0.657977
20
1.270658
30
0.0
11
0.657977
21
1.309720
31
0.0
0
LINE
8
FRONT_HID
6
HIDDEN
10
0.039062
20
1.270658
30
0.0
11
0.657977
21
1.270658
31
0.0
0
LINE
8
FRONT_HID
6
HIDDEN
10
0.657977
20
1.270658
30
0.0
11
0.657977
21
1.309720
31
0.0
0
LINE
8
FRONT_HID
6
HIDDEN
10
0.657977
20
1.309720
30
0.0
11
0.039062
21
1.309720
31
0.0
0
LINE
8
FRONT_HID
6
HIDDEN
10
0.039062
20
1.270658
30
0.0
11
0.039062
21
1.309720
31
0.0
0
LINE
8
FRONT_HID
6
HIDDEN
10
0.657977
20
1.270658
30
0.0
11
0.039062
21
1.270658
31
0.0
0
LINE
8
FRONT_HID
6
HIDDEN
10
0.125082
20
1.270658
30
0.0
11
0.125000
21
1.270658
31
0.0
0
LINE
8
FRONT_HID
6
HIDDEN
10
0.578125
20
1.270658
30
0.0
11
0.577303
21
1.270658
31
0.0
0
LINE
8
FRONT_HID
6
HIDDEN
10
0.577303
20
1.270658
30
0.0
11
0.125082
21
1.270658
31
0.0
0
LINE
8
FRONT_HID
6
HIDDEN
10
0.115461
20
1.270658
30
0.0
11
0.596546
21
1.270658
31
0.0
0
LINE
8
FRONT_HID
6
HIDDEN
10
0.038487
20
1.270658
30
0.0
11
0.663898
21
1.270658
31
0.0
0
LINE
8
FRONT_HID
6
HIDDEN
10
0.663898
20
1.270658
30
0.0
11
0.038487
21
1.270658
31
0.0
0
LINE
8
FRONT_HID
6
HIDDEN
10
0.125000
20
1.895658
30
0.0
11
0.125000
21
2.098783
31
0.0
0
LINE
8
FRONT_HID
6
HIDDEN
10
0.125000
20
1.270658
30
0.0
11
0.125000
21
1.895658
31
0.0
0
LINE
8
FRONT_HID
6
HIDDEN
10
0.578125
20
1.895658
30
0.0
11
0.578125
21
2.098783
31
0.0
0
LINE
8
FRONT_HID
6
HIDDEN
10
0.578125
20
1.895658
30
0.0
11
0.578125
21
1.270658
31
0.0
0
LINE
8
FRONT_HID
6
HIDDEN
10
0.115461
20
1.895658
30
0.0
11
0.596546
21
1.895658
31
0.0
0
LINE
8
FRONT_HID
6
HIDDEN
10
0.038487
20
1.270658
30
0.0
11
0.038487
21
1.895658
31
0.0
0
LINE
8
FRONT_HID
6
HIDDEN
10
0.038487
20
1.895658
30
0.0
11
0.663898
21
1.895658
31
0.0
0
LINE
8
FRONT_HID
6
HIDDEN
10
0.663898
20
1.270658
30
0.0
11
0.663898
21
1.895658
31
0.0
0
LINE
8
FRONT_HID
6
HIDDEN
10
0.038487
20
1.270658
30
0.0
11
0.038487
21
1.895658
31
0.0
0
LINE
8
FRONT_HID
6
HIDDEN
10
0.663898
20
1.270658
30
0.0
11
0.663898
21
1.895658
31
0.0
0
LINE
8
FRONT_HID
6
HIDDEN
10
0.663898
20
1.895658
30
0.0
11
0.038487
21
1.895658
31
0.0
0
LINE
8
FRONT_HID
6
HIDDEN
10
0.578125
20
1.895658
30
0.0
11
0.125000
21
1.895658
31
0.0
0
LINE
8
LEFT
10
0.914161
20
1.270658
30
0.0
11
1.058980
21
1.270658
31
0.0
0
LINE
8
LEFT
10
1.857582
20
1.270658
30
0.0
11
1.973043
21
1.270658
31
0.0
0
LINE
8
LEFT
10
1.058980
20
1.270658
30
0.0
11
1.174441
21
1.270658
31
0.0
0
LINE
8
LEFT
10
1.174441
20
1.270658
30
0.0
11
1.857582
21
1.270658
31
0.0
0
LINE
8
LEFT
10
0.914161
20
1.270658
30
0.0
11
0.914161
21
2.098783
31
0.0
0
LINE
8
LEFT
10
0.914161
20
2.098783
30
0.0
11
1.066793
21
2.098783
31
0.0
0
LINE
8
LEFT
10
1.066793
20
1.895658
30
0.0
11
1.066793
21
2.098783
31
0.0
0
LINE
8
LEFT
10
1.857582
20
1.895658
30
0.0
11
1.973043
21
1.895658
31
0.0
0
LINE
8
LEFT
10
1.973043
20
1.270658
30
0.0
11
1.973043
21
1.895658
31
0.0
0
LINE
8
LEFT
10
1.174441
20
1.895658
30
0.0
11
1.857582
21
1.895658
31
0.0
0
LINE
8
LEFT
10
1.058980
20
1.270658
30
0.0
11
1.058980
21
1.895658
31
0.0
0
LINE
8
LEFT
10
1.058980
20
1.895658
30
0.0
11
1.174441
21
1.895658
31
0.0
0
LINE
8
LEFT_HID
6
HIDDEN
10
1.933980
20
1.270658
30
0.0
11
1.933980
21
1.309720
31
0.0
0
LINE
8
LEFT_HID
6
HIDDEN
10
1.933980
20
1.270658
30
0.0
11
1.933980
21
1.309720
31
0.0
0
LINE
8
LEFT_HID
6
HIDDEN
10
1.933980
20
1.309720
30
0.0
11
1.105855
21
1.309720
31
0.0
0
LINE
8
LEFT_HID
6
HIDDEN
10
1.105855
20
1.270658
30
0.0
11
1.105855
21
1.309720
31
0.0
0
LINE
8
LEFT_HID
6
HIDDEN
10
1.933980
20
1.270658
30
0.0
11
1.105855
21
1.270658
31
0.0
0
LINE
8
LEFT_HID
6
HIDDEN
10
1.105855
20
1.270658
30
0.0
11
1.105855
21
1.309720
31
0.0
0
LINE
8
LEFT_HID
6
HIDDEN
10
1.105855
20
1.309720
30
0.0
11
1.933980
21
1.309720
31
0.0
0
LINE
8
LEFT_HID
6
HIDDEN
10
1.105855
20
1.270658
30
0.0
11
1.933980
21
1.270658
31
0.0
0
LINE
8
LEFT_HID
6
HIDDEN
10
1.058980
20
1.270658
30
0.0
11
1.066793
21
1.270658
31
0.0
0
LINE
8
LEFT_HID
6
HIDDEN
10
1.066793
20
1.270658
30
0.0
11
1.058980
21
1.270658
31
0.0
0
LINE
8
LEFT_HID
6
HIDDEN
10
1.097467
20
1.270658
30
0.0
11
1.934556
21
1.270658
31
0.0
0
LINE
8
LEFT_HID
6
HIDDEN
10
1.934556
20
1.270658
30
0.0
11
1.097467
21
1.270658
31
0.0
0
LINE
8
LEFT_HID
6
HIDDEN
10
1.066793
20
1.895658
30
0.0
11
1.058980
21
1.895658
31
0.0
0
LINE
8
LEFT_HID
6
HIDDEN
10
1.058980
20
1.895658
30
0.0
11
1.066793
21
1.895658
31
0.0
0
LINE
8
LEFT_HID
6
HIDDEN
10
1.934556
20
1.270658
30
0.0
11
1.934556
21
1.895658
31
0.0
0
LINE
8
LEFT_HID
6
HIDDEN
10
1.934556
20
1.270658
30
0.0
11
1.934556
21
1.895658
31
0.0
0
LINE
8
LEFT_HID
6
HIDDEN
10
1.097467
20
1.270658
30
0.0
11
1.097467
21
1.895658
31
0.0
0
LINE
8
LEFT_HID
6
HIDDEN
10
1.097467
20
1.895658
30
0.0
11
1.934556
21
1.895658
31
0.0
0
LINE
8
LEFT_HID
6
HIDDEN
10
1.934556
20
1.895658
30
0.0
11
1.097467
21
1.895658
31
0.0
0
LINE
8
LEFT_HID
6
HIDDEN
10
1.097467
20
1.270658
30
0.0
11
1.097467
21
1.895658
31
0.0
0
LINE
8
TOP
10
0.039062
20
0.039062
30
0.0
11
0.657977
21
0.039062
31
0.0
0
LINE
8
TOP
10
0.657977
20
0.039062
30
0.0
11
0.657977
21
0.867188
31
0.0
0
LINE
8
TOP
10
0.657977
20
0.867188
30
0.0
11
0.039062
21
0.867188
31
0.0
0
LINE
8
TOP
10
0.039062
20
0.867188
30
0.0
11
0.039062
21
0.039062
31
0.0
0
LINE
8
TOP
10
0.125000
20
1.058882
30
0.0
11
0.125000
21
0.906250
31
0.0
0
LINE
8
TOP
10
0.578125
20
1.058882
30
0.0
11
0.125000
21
1.058882
31
0.0
0
LINE
8
TOP
10
0.578125
20
0.906250
30
0.0
11
0.578125
21
1.058882
31
0.0
0
LINE
8
TOP
10
0.000000
20
0.115461
30
0.0
11
0.000000
21
0.000000
31
0.0
0
LINE
8
TOP
10
0.000000
20
0.798602
30
0.0
11
0.000000
21
0.115461
31
0.0
0
LINE
8
TOP
10
0.000000
20
0.914062
30
0.0
11
0.000000
21
0.798602
31
0.0
0
LINE
8
TOP
10
0.115461
20
0.914062
30
0.0
11
0.000000
21
0.914062
31
0.0
0
LINE
8
TOP
10
0.125000
20
0.914062
30
0.0
11
0.115461
21
0.914062
31
0.0
0
LINE
8
TOP
10
0.596546
20
0.914062
30
0.0
11
0.578125
21
0.914062
31
0.0
0
LINE
8
TOP
10
0.702385
20
0.914062
30
0.0
11
0.596546
21
0.914062
31
0.0
0
LINE
8
TOP
10
0.702385
20
0.798602
30
0.0
11
0.702385
21
0.914062
31
0.0
0
LINE
8
TOP
10
0.702385
20
0.115461
30
0.0
11
0.702385
21
0.798602
31
0.0
0
LINE
8
TOP
10
0.702385
20
0.000000
30
0.0
11
0.702385
21
0.115461
31
0.0
0
LINE
8
TOP
10
0.596546
20
0.000000
30
0.0
11
0.702385
21
0.000000
31
0.0
0
LINE
8
TOP
10
0.115461
20
0.000000
30
0.0
11
0.596546
21
0.000000
31
0.0
0
LINE
8
TOP
10
0.000000
20
0.000000
30
0.0
11
0.115461
21
0.000000
31
0.0
0
LINE
8
TOP
10
0.038487
20
0.038487
30
0.0
11
0.663898
21
0.038487
31
0.0
0
LINE
8
TOP
10
0.038487
20
0.875576
30
0.0
11
0.038487
21
0.038487
31
0.0
0
LINE
8
TOP
10
0.663898
20
0.038487
30
0.0
11
0.663898
21
0.875576
31
0.0
0
LINE
8
TOP
10
0.663898
20
0.875576
30
0.0
11
0.038487
21
0.875576
31
0.0
0
LINE
8
TOP
10
0.125000
20
0.906250
30
0.0
11
0.578125
21
0.906250
31
0.0
0
LINE
8
TOP_HID
6
HIDDEN
10
0.125000
20
1.058882
30
0.0
11
0.125000
21
0.914062
31
0.0
0
LINE
8
TOP_HID
6
HIDDEN
10
0.578125
20
0.914062
30
0.0
11
0.578125
21
1.058882
31
0.0
0
LINE
8
TOP_HID
6
HIDDEN
10
0.125000
20
0.906250
30
0.0
11
0.125000
21
0.914062
31
0.0
0
LINE
8
TOP_HID
6
HIDDEN
10
0.578125
20
0.914062
30
0.0
11
0.578125
21
0.906250
31
0.0
0
ENDSEC
0
EOF
