0
SECTION
2
HEADER
9
$ACADVER
1
AC1009
0
ENDSEC
0
SECTION
2
TABLES
0
TABLE
2
LTYPE
70
3
0
LTYPE
2
CONTINUOUS
70
0
3
Solid line
72
65
73
0
40
0.0
0
LTYPE
2
HIDDEN
70
0
3
__ __ __ __ __
72
65
73
2
40
0.047763
49
0.031858
49
-0.015905
0
LTYPE
2
CENTER
70
0
3
___ _ ___ _ ___
72
65
73
4
40
0.111431
49
0.063668
49
-0.015905
49
0.015905
49
-0.015905
0
ENDTAB
0
TABLE
2
LAYER
70
6
0
LAYER
2
0
70
0
62
7
6
CONTINUOUS
0
LAYER
2
FRONT
70
0
62
7
6
CONTINUOUS
0
LAYER
2
LEFT
70
0
62
7
6
CONTINUOUS
0
LAYER
2
LEFT_HID
70
0
62
7
6
HIDDEN
0
LAYER
2
TOP
70
0
62
7
6
CONTINUOUS
0
LAYER
2
TOP_HID
70
0
62
7
6
HIDDEN
0
ENDTAB
0
ENDSEC
0
SECTION
2
ENTITIES
0
LINE
8
FRONT
10
0.477483
20
0.941053
30
0.0
11
0.525040
21
0.943426
31
0.0
0
LINE
8
FRONT
10
0.525040
20
0.943426
30
0.0
11
0.572124
21
0.950523
31
0.0
0
LINE
8
FRONT
10
0.572124
20
0.950523
30
0.0
11
0.618268
21
0.962272
31
0.0
0
LINE
8
FRONT
10
0.618268
20
0.962272
30
0.0
11
0.663012
21
0.978558
31
0.0
0
LINE
8
FRONT
10
0.663012
20
0.978558
30
0.0
11
0.705912
21
0.999218
31
0.0
0
LINE
8
FRONT
10
0.705912
20
0.999218
30
0.0
11
0.746543
21
1.024046
31
0.0
0
LINE
8
FRONT
10
0.746543
20
1.024046
30
0.0
11
0.784499
21
1.052797
31
0.0
0
LINE
8
FRONT
10
0.784499
20
1.052797
30
0.0
11
0.819404
21
1.085184
31
0.0
0
LINE
8
FRONT
10
0.819404
20
1.085184
30
0.0
11
0.850911
21
1.120886
31
0.0
0
LINE
8
FRONT
10
0.850911
20
1.120886
30
0.0
11
0.878706
21
1.159547
31
0.0
0
LINE
8
FRONT
10
0.878706
20
1.159547
30
0.0
11
0.902514
21
1.200784
31
0.0
0
LINE
8
FRONT
10
0.902514
20
1.200784
30
0.0
11
0.922098
21
1.244186
31
0.0
0
LINE
8
FRONT
10
0.922098
20
1.244186
30
0.0
11
0.937263
21
1.289322
31
0.0
0
LINE
8
FRONT
10
0.937263
20
1.289322
30
0.0
11
0.947858
21
1.335744
31
0.0
0
LINE
8
FRONT
10
0.947858
20
1.335744
30
0.0
11
0.953779
21
1.382991
31
0.0
0
LINE
8
FRONT
10
0.953779
20
1.382991
30
0.0
11
0.954966
21
1.430592
31
0.0
0
LINE
8
FRONT
10
0.954966
20
1.430592
30
0.0
11
0.951408
21
1.478075
31
0.0
0
LINE
8
FRONT
10
0.951408
20
1.478075
30
0.0
11
0.943139
21
1.524967
31
0.0
0
LINE
8
FRONT
10
0.943139
20
1.524967
30
0.0
11
0.930243
21
1.570803
31
0.0
0
LINE
8
FRONT
10
0.930243
20
1.570803
30
0.0
11
0.912847
21
1.615128
31
0.0
0
LINE
8
FRONT
10
0.912847
20
1.615128
30
0.0
11
0.891124
21
1.657500
31
0.0
0
LINE
8
FRONT
10
0.891124
20
1.657500
30
0.0
11
0.865290
21
1.697499
31
0.0
0
LINE
8
FRONT
10
0.865290
20
1.697499
30
0.0
11
0.835602
21
1.734726
31
0.0
0
LINE
8
FRONT
10
0.835602
20
1.734726
30
0.0
11
0.802355
21
1.768813
31
0.0
0
LINE
8
FRONT
10
0.802355
20
1.768813
30
0.0
11
0.765879
21
1.799420
31
0.0
0
LINE
8
FRONT
10
0.765879
20
1.799420
30
0.0
11
0.726537
21
1.826243
31
0.0
0
LINE
8
FRONT
10
0.726537
20
1.826243
30
0.0
11
0.684720
21
1.849015
31
0.0
0
LINE
8
FRONT
10
0.684720
20
1.849015
30
0.0
11
0.640843
21
1.867511
31
0.0
0
LINE
8
FRONT
10
0.640843
20
1.867511
30
0.0
11
0.595342
21
1.881546
31
0.0
0
LINE
8
FRONT
10
0.595342
20
1.881546
30
0.0
11
0.548670
21
1.890981
31
0.0
0
LINE
8
FRONT
10
0.548670
20
1.890981
30
0.0
11
0.501291
21
1.895722
31
0.0
0
LINE
8
FRONT
10
0.501291
20
1.895722
30
0.0
11
0.453675
21
1.895722
31
0.0
0
LINE
8
FRONT
10
0.453675
20
1.895722
30
0.0
11
0.406296
21
1.890981
31
0.0
0
LINE
8
FRONT
10
0.406296
20
1.890981
30
0.0
11
0.359624
21
1.881546
31
0.0
0
LINE
8
FRONT
10
0.359624
20
1.881546
30
0.0
11
0.314124
21
1.867511
31
0.0
0
LINE
8
FRONT
10
0.314124
20
1.867511
30
0.0
11
0.270247
21
1.849015
31
0.0
0
LINE
8
FRONT
10
0.270247
20
1.849015
30
0.0
11
0.228429
21
1.826243
31
0.0
0
LINE
8
FRONT
10
0.228429
20
1.826243
30
0.0
11
0.189087
21
1.799420
31
0.0
0
LINE
8
FRONT
10
0.189087
20
1.799420
30
0.0
11
0.152611
21
1.768813
31
0.0
0
LINE
8
FRONT
10
0.152611
20
1.768813
30
0.0
11
0.119364
21
1.734726
31
0.0
0
LINE
8
FRONT
10
0.119364
20
1.734726
30
0.0
11
0.089676
21
1.697499
31
0.0
0
LINE
8
FRONT
10
0.089676
20
1.697499
30
0.0
11
0.063842
21
1.657500
31
0.0
0
LINE
8
FRONT
10
0.063842
20
1.657500
30
0.0
11
0.042119
21
1.615128
31
0.0
0
LINE
8
FRONT
10
0.042119
20
1.615128
30
0.0
11
0.024723
21
1.570803
31
0.0
0
LINE
8
FRONT
10
0.024723
20
1.570803
30
0.0
11
0.011827
21
1.524967
31
0.0
0
LINE
8
FRONT
10
0.011827
20
1.524967
30
0.0
11
0.003558
21
1.478075
31
0.0
0
LINE
8
FRONT
10
0.003558
20
1.478075
30
0.0
11
0.000000
21
1.430592
31
0.0
0
LINE
8
FRONT
10
0.000000
20
1.430592
30
0.0
11
0.001187
21
1.382991
31
0.0
0
LINE
8
FRONT
10
0.001187
20
1.382991
30
0.0
11
0.007108
21
1.335744
31
0.0
0
LINE
8
FRONT
10
0.007108
20
1.335744
30
0.0
11
0.017703
21
1.289322
31
0.0
0
LINE
8
FRONT
10
0.017703
20
1.289322
30
0.0
11
0.032868
21
1.244186
31
0.0
0
LINE
8
FRONT
10
0.032868
20
1.244186
30
0.0
11
0.052452
21
1.200784
31
0.0
0
LINE
8
FRONT
10
0.052452
20
1.200784
30
0.0
11
0.076260
21
1.159547
31
0.0
0
LINE
8
FRONT
10
0.076260
20
1.159547
30
0.0
11
0.104056
21
1.120886
31
0.0
0
LINE
8
FRONT
10
0.104056
20
1.120886
30
0.0
11
0.135563
21
1.085184
31
0.0
0
LINE
8
FRONT
10
0.135563
20
1.085184
30
0.0
11
0.170467
21
1.052797
31
0.0
0
LINE
8
FRONT
10
0.170467
20
1.052797
30
0.0
11
0.208424
21
1.024046
31
0.0
0
LINE
8
FRONT
10
0.208424
20
1.024046
30
0.0
11
0.249054
21
0.999218
31
0.0
0
LINE
8
FRONT
10
0.249054
20
0.999218
30
0.0
11
0.291954
21
0.978558
31
0.0
0
LINE
8
FRONT
10
0.291954
20
0.978558
30
0.0
11
0.336699
21
0.962272
31
0.0
0
LINE
8
FRONT
10
0.336699
20
0.962272
30
0.0
11
0.382842
21
0.950523
31
0.0
0
LINE
8
FRONT
10
0.382842
20
0.950523
30
0.0
11
0.429926
21
0.943426
31
0.0
0
LINE
8
FRONT
10
0.429926
20
0.943426
30
0.0
11
0.477483
21
0.941053
31
0.0
0
LINE
8
FRONT
10
0.477483
20
1.080362
30
0.0
11
0.511169
21
1.082043
31
0.0
0
LINE
8
FRONT
10
0.511169
20
1.082043
30
0.0
11
0.544520
21
1.087070
31
0.0
0
LINE
8
FRONT
10
0.544520
20
1.087070
30
0.0
11
0.577205
21
1.095393
31
0.0
0
LINE
8
FRONT
10
0.577205
20
1.095393
30
0.0
11
0.608899
21
1.106928
31
0.0
0
LINE
8
FRONT
10
0.608899
20
1.106928
30
0.0
11
0.639287
21
1.121562
31
0.0
0
LINE
8
FRONT
10
0.639287
20
1.121562
30
0.0
11
0.668067
21
1.139149
31
0.0
0
LINE
8
FRONT
10
0.668067
20
1.139149
30
0.0
11
0.694953
21
1.159514
31
0.0
0
LINE
8
FRONT
10
0.694953
20
1.159514
30
0.0
11
0.719677
21
1.182455
31
0.0
0
LINE
8
FRONT
10
0.719677
20
1.182455
30
0.0
11
0.741994
21
1.207744
31
0.0
0
LINE
8
FRONT
10
0.741994
20
1.207744
30
0.0
11
0.761683
21
1.235129
31
0.0
0
LINE
8
FRONT
10
0.761683
20
1.235129
30
0.0
11
0.778547
21
1.264338
31
0.0
0
LINE
8
FRONT
10
0.778547
20
1.264338
30
0.0
11
0.792419
21
1.295081
31
0.0
0
LINE
8
FRONT
10
0.792419
20
1.295081
30
0.0
11
0.803160
21
1.327053
31
0.0
0
LINE
8
FRONT
10
0.803160
20
1.327053
30
0.0
11
0.810666
21
1.359935
31
0.0
0
LINE
8
FRONT
10
0.810666
20
1.359935
30
0.0
11
0.814859
21
1.393401
31
0.0
0
LINE
8
FRONT
10
0.814859
20
1.393401
30
0.0
11
0.815700
21
1.427119
31
0.0
0
LINE
8
FRONT
10
0.815700
20
1.427119
30
0.0
11
0.813180
21
1.460752
31
0.0
0
LINE
8
FRONT
10
0.813180
20
1.460752
30
0.0
11
0.807323
21
1.493968
31
0.0
0
LINE
8
FRONT
10
0.807323
20
1.493968
30
0.0
11
0.798188
21
1.526435
31
0.0
0
LINE
8
FRONT
10
0.798188
20
1.526435
30
0.0
11
0.785866
21
1.557832
31
0.0
0
LINE
8
FRONT
10
0.785866
20
1.557832
30
0.0
11
0.770479
21
1.587845
31
0.0
0
LINE
8
FRONT
10
0.770479
20
1.587845
30
0.0
11
0.752180
21
1.616178
31
0.0
0
LINE
8
FRONT
10
0.752180
20
1.616178
30
0.0
11
0.731151
21
1.642547
31
0.0
0
LINE
8
FRONT
10
0.731151
20
1.642547
30
0.0
11
0.707601
21
1.666692
31
0.0
0
LINE
8
FRONT
10
0.707601
20
1.666692
30
0.0
11
0.681764
21
1.688372
31
0.0
0
LINE
8
FRONT
10
0.681764
20
1.688372
30
0.0
11
0.653896
21
1.707372
31
0.0
0
LINE
8
FRONT
10
0.653896
20
1.707372
30
0.0
11
0.624276
21
1.723502
31
0.0
0
LINE
8
FRONT
10
0.624276
20
1.723502
30
0.0
11
0.593196
21
1.736603
31
0.0
0
LINE
8
FRONT
10
0.593196
20
1.736603
30
0.0
11
0.560967
21
1.746545
31
0.0
0
LINE
8
FRONT
10
0.560967
20
1.746545
30
0.0
11
0.527907
21
1.753228
31
0.0
0
LINE
8
FRONT
10
0.527907
20
1.753228
30
0.0
11
0.494347
21
1.756586
31
0.0
0
LINE
8
FRONT
10
0.494347
20
1.756586
30
0.0
11
0.460619
21
1.756586
31
0.0
0
LINE
8
FRONT
10
0.460619
20
1.756586
30
0.0
11
0.427059
21
1.753228
31
0.0
0
LINE
8
FRONT
10
0.427059
20
1.753228
30
0.0
11
0.394000
21
1.746545
31
0.0
0
LINE
8
FRONT
10
0.394000
20
1.746545
30
0.0
11
0.361770
21
1.736603
31
0.0
0
LINE
8
FRONT
10
0.361770
20
1.736603
30
0.0
11
0.330691
21
1.723502
31
0.0
0
LINE
8
FRONT
10
0.330691
20
1.723502
30
0.0
11
0.301070
21
1.707372
31
0.0
0
LINE
8
FRONT
10
0.301070
20
1.707372
30
0.0
11
0.273203
21
1.688372
31
0.0
0
LINE
8
FRONT
10
0.273203
20
1.688372
30
0.0
11
0.247365
21
1.666692
31
0.0
0
LINE
8
FRONT
10
0.247365
20
1.666692
30
0.0
11
0.223815
21
1.642547
31
0.0
0
LINE
8
FRONT
10
0.223815
20
1.642547
30
0.0
11
0.202786
21
1.616178
31
0.0
0
LINE
8
FRONT
10
0.202786
20
1.616178
30
0.0
11
0.184487
21
1.587845
31
0.0
0
LINE
8
FRONT
10
0.184487
20
1.587845
30
0.0
11
0.169100
21
1.557832
31
0.0
0
LINE
8
FRONT
10
0.169100
20
1.557832
30
0.0
11
0.156778
21
1.526435
31
0.0
0
LINE
8
FRONT
10
0.156778
20
1.526435
30
0.0
11
0.147643
21
1.493968
31
0.0
0
LINE
8
FRONT
10
0.147643
20
1.493968
30
0.0
11
0.141786
21
1.460752
31
0.0
0
LINE
8
FRONT
10
0.141786
20
1.460752
30
0.0
11
0.139266
21
1.427119
31
0.0
0
LINE
8
FRONT
10
0.139266
20
1.427119
30
0.0
11
0.140107
21
1.393401
31
0.0
0
LINE
8
FRONT
10
0.140107
20
1.393401
30
0.0
11
0.144301
21
1.359935
31
0.0
0
LINE
8
FRONT
10
0.144301
20
1.359935
30
0.0
11
0.151806
21
1.327053
31
0.0
0
LINE
8
FRONT
10
0.151806
20
1.327053
30
0.0
11
0.162548
21
1.295081
31
0.0
0
LINE
8
FRONT
10
0.162548
20
1.295081
30
0.0
11
0.176420
21
1.264338
31
0.0
0
LINE
8
FRONT
10
0.176420
20
1.264338
30
0.0
11
0.193284
21
1.235129
31
0.0
0
LINE
8
FRONT
10
0.193284
20
1.235129
30
0.0
11
0.212972
21
1.207744
31
0.0
0
LINE
8
FRONT
10
0.212972
20
1.207744
30
0.0
11
0.235289
21
1.182455
31
0.0
0
LINE
8
FRONT
10
0.235289
20
1.182455
30
0.0
11
0.260014
21
1.159514
31
0.0
0
LINE
8
FRONT
10
0.260014
20
1.159514
30
0.0
11
0.286899
21
1.139149
31
0.0
0
LINE
8
FRONT
10
0.286899
20
1.139149
30
0.0
11
0.315679
21
1.121562
31
0.0
0
LINE
8
FRONT
10
0.315679
20
1.121562
30
0.0
11
0.346067
21
1.106928
31
0.0
0
LINE
8
FRONT
10
0.346067
20
1.106928
30
0.0
11
0.377761
21
1.095393
31
0.0
0
LINE
8
FRONT
10
0.377761
20
1.095393
30
0.0
11
0.410446
21
1.087070
31
0.0
0
LINE
8
FRONT
10
0.410446
20
1.087070
30
0.0
11
0.443797
21
1.082043
31
0.0
0
LINE
8
FRONT
10
0.443797
20
1.082043
30
0.0
11
0.477483
21
1.080362
31
0.0
0
LINE
8
LEFT
10
1.146019
20
1.896316
30
0.0
11
1.146019
21
0.941053
31
0.0
0
LINE
8
LEFT
10
1.146019
20
0.941053
30
0.0
11
1.896019
21
0.941053
31
0.0
0
LINE
8
LEFT
10
1.896019
20
1.896316
30
0.0
11
1.896019
21
0.941053
31
0.0
0
LINE
8
LEFT
10
1.896019
20
1.896316
30
0.0
11
1.146019
21
1.896316
31
0.0
0
LINE
8
LEFT_HID
6
HIDDEN
10
1.146019
20
1.080362
30
0.0
11
1.146019
21
1.757007
31
0.0
0
LINE
8
LEFT_HID
6
HIDDEN
10
1.146019
20
1.757007
30
0.0
11
1.146019
21
1.080362
31
0.0
0
LINE
8
LEFT_HID
6
HIDDEN
10
1.146019
20
1.080362
30
0.0
11
1.896019
21
1.080362
31
0.0
0
LINE
8
LEFT_HID
6
HIDDEN
10
1.896019
20
1.080362
30
0.0
11
1.896019
21
1.757007
31
0.0
0
LINE
8
LEFT_HID
6
HIDDEN
10
1.896019
20
1.757007
30
0.0
11
1.896019
21
1.080362
31
0.0
0
LINE
8
LEFT_HID
6
HIDDEN
10
1.896019
20
1.757007
30
0.0
11
1.146019
21
1.757007
31
0.0
0
LINE
8
TOP
10
0.955263
20
0.750000
30
0.0
11
0.000000
21
0.750000
31
0.0
0
LINE
8
TOP
10
0.955263
20
0.000000
30
0.0
11
0.000000
21
0.000000
31
0.0
0
LINE
8
TOP
10
0.955263
20
0.000000
30
0.0
11
0.955263
21
0.750000
31
0.0
0
LINE
8
TOP
10
0.000000
20
0.000000
30
0.0
11
0.000000
21
0.750000
31
0.0
0
LINE
8
TOP_HID
6
HIDDEN
10
0.477632
20
0.750000
30
0.0
11
0.955263
21
0.750000
31
0.0
0
LINE
8
TOP_HID
6
HIDDEN
10
0.000000
20
0.750000
30
0.0
11
0.477632
21
0.750000
31
0.0
0
LINE
8
TOP_HID
6
HIDDEN
10
0.477632
20
0.000000
30
0.0
11
0.955263
21
0.000000
31
0.0
0
LINE
8
TOP_HID
6
HIDDEN
10
0.000000
20
0.000000
30
0.0
11
0.477632
21
0.000000
31
0.0
0
LINE
8
TOP_HID
6
HIDDEN
10
0.477632
20
0.750000
30
0.0
11
0.815954
21
0.750000
31
0.0
0
LINE
8
TOP_HID
6
HIDDEN
10
0.815954
20
0.750000
30
0.0
11
0.139309
21
0.750000
31
0.0
0
LINE
8
TOP_HID
6
HIDDEN
10
0.139309
20
0.750000
30
0.0
11
0.477632
21
0.750000
31
0.0
0
LINE
8
TOP_HID
6
HIDDEN
10
0.477632
20
0.000000
30
0.0
11
0.815954
21
0.000000
31
0.0
0
LINE
8
TOP_HID
6
HIDDEN
10
0.815954
20
0.000000
30
0.0
11
0.139309
21
0.000000
31
0.0
0
LINE
8
TOP_HID
6
HIDDEN
10
0.139309
20
0.000000
30
0.0
11
0.477632
21
0.000000
31
0.0
0
LINE
8
TOP_HID
6
HIDDEN
10
0.815954
20
0.000000
30
0.0
11
0.815954
21
0.750000
31
0.0
0
LINE
8
TOP_HID
6
HIDDEN
10
0.139309
20
0.000000
30
0.0
11
0.139309
21
0.750000
31
0.0
0
ENDSEC
0
EOF
