0
SECTION
2
HEADER
9
$ACADVER
1
AC1009
0
ENDSEC
0
SECTION
2
TABLES
0
TABLE
2
LTYPE
70
3
0
LTYPE
2
CONTINUOUS
70
0
3
Solid line
72
65
73
0
40
0.0
0
LTYPE
2
HIDDEN
70
0
3
__ __ __ __ __
72
65
73
2
40
0.020703
49
0.013809
49
-0.006894
0
LTYPE
2
CENTER
70
0
3
___ _ ___ _ ___
72
65
73
4
40
0.048300
49
0.027597
49
-0.006894
49
0.006894
49
-0.006894
0
ENDTAB
0
TABLE
2
LAYER
70
7
0
LAYER
2
0
70
0
62
7
6
CONTINUOUS
0
LAYER
2
FRONT
70
0
62
7
6
CONTINUOUS
0
LAYER
2
FRONT_HID
70
0
62
7
6
HIDDEN
0
LAYER
2
LEFT
70
0
62
7
6
CONTINUOUS
0
LAYER
2
LEFT_HID
70
0
62
7
6
HIDDEN
0
LAYER
2
TOP
70
0
62
7
6
CONTINUOUS
0
LAYER
2
TOP_HID
70
0
62
7
6
HIDDEN
0
ENDTAB
0
ENDSEC
0
SECTION
2
ENTITIES
0
LINE
8
FRONT
10
0.000000
20
0.723438
30
0.0
11
0.109375
21
0.723438
31
0.0
0
LINE
8
FRONT
10
0.000000
20
0.496875
30
0.0
11
0.109375
21
0.496875
31
0.0
0
LINE
8
FRONT
10
0.000000
20
0.496875
30
0.0
11
0.000000
21
0.723438
31
0.0
0
LINE
8
FRONT
10
0.109375
20
0.496875
30
0.0
11
0.109375
21
0.723438
31
0.0
0
LINE
8
FRONT
10
0.054605
20
0.533799
30
0.0
11
0.055391
21
0.533760
31
0.0
0
LINE
8
FRONT
10
0.055391
20
0.533760
30
0.0
11
0.056170
21
0.533643
31
0.0
0
LINE
8
FRONT
10
0.056170
20
0.533643
30
0.0
11
0.056932
21
0.533449
31
0.0
0
LINE
8
FRONT
10
0.056932
20
0.533449
30
0.0
11
0.057672
21
0.533179
31
0.0
0
LINE
8
FRONT
10
0.057672
20
0.533179
30
0.0
11
0.058381
21
0.532838
31
0.0
0
LINE
8
FRONT
10
0.058381
20
0.532838
30
0.0
11
0.059053
21
0.532428
31
0.0
0
LINE
8
FRONT
10
0.059053
20
0.532428
30
0.0
11
0.059680
21
0.531952
31
0.0
0
LINE
8
FRONT
10
0.059680
20
0.531952
30
0.0
11
0.060257
21
0.531417
31
0.0
0
LINE
8
FRONT
10
0.060257
20
0.531417
30
0.0
11
0.060778
21
0.530827
31
0.0
0
LINE
8
FRONT
10
0.060778
20
0.530827
30
0.0
11
0.061237
21
0.530188
31
0.0
0
LINE
8
FRONT
10
0.061237
20
0.530188
30
0.0
11
0.061631
21
0.529506
31
0.0
0
LINE
8
FRONT
10
0.061631
20
0.529506
30
0.0
11
0.061954
21
0.528789
31
0.0
0
LINE
8
FRONT
10
0.061954
20
0.528789
30
0.0
11
0.062205
21
0.528043
31
0.0
0
LINE
8
FRONT
10
0.062205
20
0.528043
30
0.0
11
0.062380
21
0.527276
31
0.0
0
LINE
8
FRONT
10
0.062380
20
0.527276
30
0.0
11
0.062478
21
0.526495
31
0.0
0
LINE
8
FRONT
10
0.062478
20
0.526495
30
0.0
11
0.062498
21
0.525708
31
0.0
0
LINE
8
FRONT
10
0.062498
20
0.525708
30
0.0
11
0.062439
21
0.524923
31
0.0
0
LINE
8
FRONT
10
0.062439
20
0.524923
30
0.0
11
0.062302
21
0.524148
31
0.0
0
LINE
8
FRONT
10
0.062302
20
0.524148
30
0.0
11
0.062089
21
0.523390
31
0.0
0
LINE
8
FRONT
10
0.062089
20
0.523390
30
0.0
11
0.061801
21
0.522658
31
0.0
0
LINE
8
FRONT
10
0.061801
20
0.522658
30
0.0
11
0.061442
21
0.521957
31
0.0
0
LINE
8
FRONT
10
0.061442
20
0.521957
30
0.0
11
0.061015
21
0.521296
31
0.0
0
LINE
8
FRONT
10
0.061015
20
0.521296
30
0.0
11
0.060525
21
0.520681
31
0.0
0
LINE
8
FRONT
10
0.060525
20
0.520681
30
0.0
11
0.059975
21
0.520117
31
0.0
0
LINE
8
FRONT
10
0.059975
20
0.520117
30
0.0
11
0.059372
21
0.519611
31
0.0
0
LINE
8
FRONT
10
0.059372
20
0.519611
30
0.0
11
0.058722
21
0.519168
31
0.0
0
LINE
8
FRONT
10
0.058722
20
0.519168
30
0.0
11
0.058031
21
0.518792
31
0.0
0
LINE
8
FRONT
10
0.058031
20
0.518792
30
0.0
11
0.057305
21
0.518486
31
0.0
0
LINE
8
FRONT
10
0.057305
20
0.518486
30
0.0
11
0.056553
21
0.518254
31
0.0
0
LINE
8
FRONT
10
0.056553
20
0.518254
30
0.0
11
0.055782
21
0.518098
31
0.0
0
LINE
8
FRONT
10
0.055782
20
0.518098
30
0.0
11
0.054999
21
0.518020
31
0.0
0
LINE
8
FRONT
10
0.054999
20
0.518020
30
0.0
11
0.054212
21
0.518020
31
0.0
0
LINE
8
FRONT
10
0.054212
20
0.518020
30
0.0
11
0.053429
21
0.518098
31
0.0
0
LINE
8
FRONT
10
0.053429
20
0.518098
30
0.0
11
0.052657
21
0.518254
31
0.0
0
LINE
8
FRONT
10
0.052657
20
0.518254
30
0.0
11
0.051905
21
0.518486
31
0.0
0
LINE
8
FRONT
10
0.051905
20
0.518486
30
0.0
11
0.051180
21
0.518792
31
0.0
0
LINE
8
FRONT
10
0.051180
20
0.518792
30
0.0
11
0.050489
21
0.519168
31
0.0
0
LINE
8
FRONT
10
0.050489
20
0.519168
30
0.0
11
0.049838
21
0.519611
31
0.0
0
LINE
8
FRONT
10
0.049838
20
0.519611
30
0.0
11
0.049235
21
0.520117
31
0.0
0
LINE
8
FRONT
10
0.049235
20
0.520117
30
0.0
11
0.048686
21
0.520681
31
0.0
0
LINE
8
FRONT
10
0.048686
20
0.520681
30
0.0
11
0.048195
21
0.521296
31
0.0
0
LINE
8
FRONT
10
0.048195
20
0.521296
30
0.0
11
0.047768
21
0.521957
31
0.0
0
LINE
8
FRONT
10
0.047768
20
0.521957
30
0.0
11
0.047409
21
0.522658
31
0.0
0
LINE
8
FRONT
10
0.047409
20
0.522658
30
0.0
11
0.047122
21
0.523390
31
0.0
0
LINE
8
FRONT
10
0.047122
20
0.523390
30
0.0
11
0.046908
21
0.524148
31
0.0
0
LINE
8
FRONT
10
0.046908
20
0.524148
30
0.0
11
0.046772
21
0.524923
31
0.0
0
LINE
8
FRONT
10
0.046772
20
0.524923
30
0.0
11
0.046713
21
0.525708
31
0.0
0
LINE
8
FRONT
10
0.046713
20
0.525708
30
0.0
11
0.046733
21
0.526495
31
0.0
0
LINE
8
FRONT
10
0.046733
20
0.526495
30
0.0
11
0.046830
21
0.527276
31
0.0
0
LINE
8
FRONT
10
0.046830
20
0.527276
30
0.0
11
0.047006
21
0.528043
31
0.0
0
LINE
8
FRONT
10
0.047006
20
0.528043
30
0.0
11
0.047256
21
0.528789
31
0.0
0
LINE
8
FRONT
10
0.047256
20
0.528789
30
0.0
11
0.047580
21
0.529506
31
0.0
0
LINE
8
FRONT
10
0.047580
20
0.529506
30
0.0
11
0.047973
21
0.530188
31
0.0
0
LINE
8
FRONT
10
0.047973
20
0.530188
30
0.0
11
0.048433
21
0.530827
31
0.0
0
LINE
8
FRONT
10
0.048433
20
0.530827
30
0.0
11
0.048954
21
0.531417
31
0.0
0
LINE
8
FRONT
10
0.048954
20
0.531417
30
0.0
11
0.049531
21
0.531952
31
0.0
0
LINE
8
FRONT
10
0.049531
20
0.531952
30
0.0
11
0.050158
21
0.532428
31
0.0
0
LINE
8
FRONT
10
0.050158
20
0.532428
30
0.0
11
0.050830
21
0.532838
31
0.0
0
LINE
8
FRONT
10
0.050830
20
0.532838
30
0.0
11
0.051539
21
0.533179
31
0.0
0
LINE
8
FRONT
10
0.051539
20
0.533179
30
0.0
11
0.052278
21
0.533449
31
0.0
0
LINE
8
FRONT
10
0.052278
20
0.533449
30
0.0
11
0.053041
21
0.533643
31
0.0
0
LINE
8
FRONT
10
0.053041
20
0.533643
30
0.0
11
0.053819
21
0.533760
31
0.0
0
LINE
8
FRONT
10
0.053819
20
0.533760
30
0.0
11
0.054605
21
0.533799
31
0.0
0
LINE
8
FRONT
10
0.054605
20
0.588487
30
0.0
11
0.055391
21
0.588448
31
0.0
0
LINE
8
FRONT
10
0.055391
20
0.588448
30
0.0
11
0.056170
21
0.588330
31
0.0
0
LINE
8
FRONT
10
0.056170
20
0.588330
30
0.0
11
0.056932
21
0.588136
31
0.0
0
LINE
8
FRONT
10
0.056932
20
0.588136
30
0.0
11
0.057672
21
0.587867
31
0.0
0
LINE
8
FRONT
10
0.057672
20
0.587867
30
0.0
11
0.058381
21
0.587525
31
0.0
0
LINE
8
FRONT
10
0.058381
20
0.587525
30
0.0
11
0.059053
21
0.587115
31
0.0
0
LINE
8
FRONT
10
0.059053
20
0.587115
30
0.0
11
0.059680
21
0.586640
31
0.0
0
LINE
8
FRONT
10
0.059680
20
0.586640
30
0.0
11
0.060257
21
0.586105
31
0.0
0
LINE
8
FRONT
10
0.060257
20
0.586105
30
0.0
11
0.060778
21
0.585514
31
0.0
0
LINE
8
FRONT
10
0.060778
20
0.585514
30
0.0
11
0.061237
21
0.584875
31
0.0
0
LINE
8
FRONT
10
0.061237
20
0.584875
30
0.0
11
0.061631
21
0.584194
31
0.0
0
LINE
8
FRONT
10
0.061631
20
0.584194
30
0.0
11
0.061954
21
0.583476
31
0.0
0
LINE
8
FRONT
10
0.061954
20
0.583476
30
0.0
11
0.062205
21
0.582730
31
0.0
0
LINE
8
FRONT
10
0.062205
20
0.582730
30
0.0
11
0.062380
21
0.581963
31
0.0
0
LINE
8
FRONT
10
0.062380
20
0.581963
30
0.0
11
0.062478
21
0.581182
31
0.0
0
LINE
8
FRONT
10
0.062478
20
0.581182
30
0.0
11
0.062498
21
0.580395
31
0.0
0
LINE
8
FRONT
10
0.062498
20
0.580395
30
0.0
11
0.062439
21
0.579610
31
0.0
0
LINE
8
FRONT
10
0.062439
20
0.579610
30
0.0
11
0.062302
21
0.578835
31
0.0
0
LINE
8
FRONT
10
0.062302
20
0.578835
30
0.0
11
0.062089
21
0.578078
31
0.0
0
LINE
8
FRONT
10
0.062089
20
0.578078
30
0.0
11
0.061801
21
0.577345
31
0.0
0
LINE
8
FRONT
10
0.061801
20
0.577345
30
0.0
11
0.061442
21
0.576645
31
0.0
0
LINE
8
FRONT
10
0.061442
20
0.576645
30
0.0
11
0.061015
21
0.575984
31
0.0
0
LINE
8
FRONT
10
0.061015
20
0.575984
30
0.0
11
0.060525
21
0.575368
31
0.0
0
LINE
8
FRONT
10
0.060525
20
0.575368
30
0.0
11
0.059975
21
0.574805
31
0.0
0
LINE
8
FRONT
10
0.059975
20
0.574805
30
0.0
11
0.059372
21
0.574299
31
0.0
0
LINE
8
FRONT
10
0.059372
20
0.574299
30
0.0
11
0.058722
21
0.573856
31
0.0
0
LINE
8
FRONT
10
0.058722
20
0.573856
30
0.0
11
0.058031
21
0.573479
31
0.0
0
LINE
8
FRONT
10
0.058031
20
0.573479
30
0.0
11
0.057305
21
0.573173
31
0.0
0
LINE
8
FRONT
10
0.057305
20
0.573173
30
0.0
11
0.056553
21
0.572941
31
0.0
0
LINE
8
FRONT
10
0.056553
20
0.572941
30
0.0
11
0.055782
21
0.572786
31
0.0
0
LINE
8
FRONT
10
0.055782
20
0.572786
30
0.0
11
0.054999
21
0.572707
31
0.0
0
LINE
8
FRONT
10
0.054999
20
0.572707
30
0.0
11
0.054212
21
0.572707
31
0.0
0
LINE
8
FRONT
10
0.054212
20
0.572707
30
0.0
11
0.053429
21
0.572786
31
0.0
0
LINE
8
FRONT
10
0.053429
20
0.572786
30
0.0
11
0.052657
21
0.572941
31
0.0
0
LINE
8
FRONT
10
0.052657
20
0.572941
30
0.0
11
0.051905
21
0.573173
31
0.0
0
LINE
8
FRONT
10
0.051905
20
0.573173
30
0.0
11
0.051180
21
0.573479
31
0.0
0
LINE
8
FRONT
10
0.051180
20
0.573479
30
0.0
11
0.050489
21
0.573856
31
0.0
0
LINE
8
FRONT
10
0.050489
20
0.573856
30
0.0
11
0.049838
21
0.574299
31
0.0
0
LINE
8
FRONT
10
0.049838
20
0.574299
30
0.0
11
0.049235
21
0.574805
31
0.0
0
LINE
8
FRONT
10
0.049235
20
0.574805
30
0.0
11
0.048686
21
0.575368
31
0.0
0
LINE
8
FRONT
10
0.048686
20
0.575368
30
0.0
11
0.048195
21
0.575984
31
0.0
0
LINE
8
FRONT
10
0.048195
20
0.575984
30
0.0
11
0.047768
21
0.576645
31
0.0
0
LINE
8
FRONT
10
0.047768
20
0.576645
30
0.0
11
0.047409
21
0.577345
31
0.0
0
LINE
8
FRONT
10
0.047409
20
0.577345
30
0.0
11
0.047122
21
0.578078
31
0.0
0
LINE
8
FRONT
10
0.047122
20
0.578078
30
0.0
11
0.046908
21
0.578835
31
0.0
0
LINE
8
FRONT
10
0.046908
20
0.578835
30
0.0
11
0.046772
21
0.579610
31
0.0
0
LINE
8
FRONT
10
0.046772
20
0.579610
30
0.0
11
0.046713
21
0.580395
31
0.0
0
LINE
8
FRONT
10
0.046713
20
0.580395
30
0.0
11
0.046733
21
0.581182
31
0.0
0
LINE
8
FRONT
10
0.046733
20
0.581182
30
0.0
11
0.046830
21
0.581963
31
0.0
0
LINE
8
FRONT
10
0.046830
20
0.581963
30
0.0
11
0.047006
21
0.582730
31
0.0
0
LINE
8
FRONT
10
0.047006
20
0.582730
30
0.0
11
0.047256
21
0.583476
31
0.0
0
LINE
8
FRONT
10
0.047256
20
0.583476
30
0.0
11
0.047580
21
0.584194
31
0.0
0
LINE
8
FRONT
10
0.047580
20
0.584194
30
0.0
11
0.047973
21
0.584875
31
0.0
0
LINE
8
FRONT
10
0.047973
20
0.584875
30
0.0
11
0.048433
21
0.585514
31
0.0
0
LINE
8
FRONT
10
0.048433
20
0.585514
30
0.0
11
0.048954
21
0.586105
31
0.0
0
LINE
8
FRONT
10
0.048954
20
0.586105
30
0.0
11
0.049531
21
0.586640
31
0.0
0
LINE
8
FRONT
10
0.049531
20
0.586640
30
0.0
11
0.050158
21
0.587115
31
0.0
0
LINE
8
FRONT
10
0.050158
20
0.587115
30
0.0
11
0.050830
21
0.587525
31
0.0
0
LINE
8
FRONT
10
0.050830
20
0.587525
30
0.0
11
0.051539
21
0.587867
31
0.0
0
LINE
8
FRONT
10
0.051539
20
0.587867
30
0.0
11
0.052278
21
0.588136
31
0.0
0
LINE
8
FRONT
10
0.052278
20
0.588136
30
0.0
11
0.053041
21
0.588330
31
0.0
0
LINE
8
FRONT
10
0.053041
20
0.588330
30
0.0
11
0.053819
21
0.588448
31
0.0
0
LINE
8
FRONT
10
0.053819
20
0.588448
30
0.0
11
0.054605
21
0.588487
31
0.0
0
LINE
8
FRONT_HID
6
HIDDEN
10
0.000000
20
0.549342
30
0.0
11
0.109375
21
0.549342
31
0.0
0
LINE
8
FRONT_HID
6
HIDDEN
10
0.109375
20
0.549342
30
0.0
11
0.109375
21
0.496875
31
0.0
0
LINE
8
FRONT_HID
6
HIDDEN
10
0.000000
20
0.549342
30
0.0
11
0.000000
21
0.496875
31
0.0
0
LINE
8
FRONT_HID
6
HIDDEN
10
0.109375
20
0.723438
30
0.0
11
0.109375
21
0.549342
31
0.0
0
LINE
8
FRONT_HID
6
HIDDEN
10
0.000000
20
0.723438
30
0.0
11
0.000000
21
0.549342
31
0.0
0
LINE
8
LEFT
10
0.606250
20
0.549342
30
0.0
11
0.568092
21
0.496875
31
0.0
0
LINE
8
LEFT
10
0.379688
20
0.723438
30
0.0
11
0.606250
21
0.549342
31
0.0
0
LINE
8
LEFT
10
0.568092
20
0.496875
30
0.0
11
0.379688
21
0.496875
31
0.0
0
LINE
8
LEFT
10
0.379688
20
0.496875
30
0.0
11
0.379688
21
0.723438
31
0.0
0
LINE
8
LEFT
10
0.379688
20
0.533799
30
0.0
11
0.192188
21
0.533799
31
0.0
0
LINE
8
LEFT
10
0.192188
20
0.518010
30
0.0
11
0.192188
21
0.533799
31
0.0
0
LINE
8
LEFT
10
0.379688
20
0.588487
30
0.0
11
0.192188
21
0.588487
31
0.0
0
LINE
8
LEFT
10
0.192188
20
0.572697
30
0.0
11
0.192188
21
0.588487
31
0.0
0
LINE
8
LEFT
10
0.192188
20
0.518010
30
0.0
11
0.379688
21
0.518010
31
0.0
0
LINE
8
LEFT
10
0.192188
20
0.572697
30
0.0
11
0.379688
21
0.572697
31
0.0
0
LINE
8
LEFT_HID
6
HIDDEN
10
0.379688
20
0.533799
30
0.0
11
0.379688
21
0.518010
31
0.0
0
LINE
8
LEFT_HID
6
HIDDEN
10
0.379688
20
0.518010
30
0.0
11
0.379688
21
0.533799
31
0.0
0
LINE
8
LEFT_HID
6
HIDDEN
10
0.379688
20
0.588487
30
0.0
11
0.379688
21
0.572697
31
0.0
0
LINE
8
LEFT_HID
6
HIDDEN
10
0.379688
20
0.572697
30
0.0
11
0.379688
21
0.588487
31
0.0
0
LINE
8
TOP
10
0.000000
20
0.000000
30
0.0
11
0.109375
21
0.000000
31
0.0
0
LINE
8
TOP
10
0.000000
20
0.226563
30
0.0
11
0.109375
21
0.226563
31
0.0
0
LINE
8
TOP
10
0.109375
20
0.226563
30
0.0
11
0.109375
21
0.000000
31
0.0
0
LINE
8
TOP
10
0.000000
20
0.226563
30
0.0
11
0.000000
21
0.000000
31
0.0
0
LINE
8
TOP
10
0.054605
20
0.414063
30
0.0
11
0.062500
21
0.414063
31
0.0
0
LINE
8
TOP
10
0.046711
20
0.414063
30
0.0
11
0.054605
21
0.414063
31
0.0
0
LINE
8
TOP
10
0.046711
20
0.414063
30
0.0
11
0.046711
21
0.226563
31
0.0
0
LINE
8
TOP
10
0.062500
20
0.414063
30
0.0
11
0.062500
21
0.226563
31
0.0
0
LINE
8
TOP_HID
6
HIDDEN
10
0.109375
20
0.000000
30
0.0
11
0.109375
21
0.038158
31
0.0
0
LINE
8
TOP_HID
6
HIDDEN
10
0.000000
20
0.038158
30
0.0
11
0.109375
21
0.038158
31
0.0
0
LINE
8
TOP_HID
6
HIDDEN
10
0.000000
20
0.000000
30
0.0
11
0.000000
21
0.038158
31
0.0
0
LINE
8
TOP_HID
6
HIDDEN
10
0.109375
20
0.038158
30
0.0
11
0.109375
21
0.226563
31
0.0
0
LINE
8
TOP_HID
6
HIDDEN
10
0.000000
20
0.038158
30
0.0
11
0.000000
21
0.226563
31
0.0
0
LINE
8
TOP_HID
6
HIDDEN
10
0.054605
20
0.226563
30
0.0
11
0.062500
21
0.226563
31
0.0
0
LINE
8
TOP_HID
6
HIDDEN
10
0.062500
20
0.226563
30
0.0
11
0.046711
21
0.226563
31
0.0
0
LINE
8
TOP_HID
6
HIDDEN
10
0.046711
20
0.226563
30
0.0
11
0.054605
21
0.226563
31
0.0
0
LINE
8
TOP_HID
6
HIDDEN
10
0.054605
20
0.226563
30
0.0
11
0.062500
21
0.226563
31
0.0
0
LINE
8
TOP_HID
6
HIDDEN
10
0.062500
20
0.226563
30
0.0
11
0.046711
21
0.226563
31
0.0
0
LINE
8
TOP_HID
6
HIDDEN
10
0.046711
20
0.226563
30
0.0
11
0.054605
21
0.226563
31
0.0
0
LINE
8
TOP_HID
6
HIDDEN
10
0.062500
20
0.414063
30
0.0
11
0.046711
21
0.414063
31
0.0
0
LINE
8
TOP_HID
6
HIDDEN
10
0.062500
20
0.414063
30
0.0
11
0.046711
21
0.414063
31
0.0
0
ENDSEC
0
EOF
