0
SECTION
2
HEADER
9
$ACADVER
1
AC1009
0
ENDSEC
0
SECTION
2
TABLES
0
TABLE
2
LTYPE
70
3
0
LTYPE
2
CONTINUOUS
70
0
3
Solid line
72
65
73
0
40
0.0
0
LTYPE
2
HIDDEN
70
0
3
__ __ __ __ __
72
65
73
2
40
0.043262
49
0.028856
49
-0.014406
0
LTYPE
2
CENTER
70
0
3
___ _ ___ _ ___
72
65
73
4
40
0.100931
49
0.057669
49
-0.014406
49
0.014406
49
-0.014406
0
ENDTAB
0
TABLE
2
LAYER
70
6
0
LAYER
2
0
70
0
62
7
6
CONTINUOUS
0
LAYER
2
FRONT
70
0
62
7
6
CONTINUOUS
0
LAYER
2
LEFT
70
0
62
7
6
CONTINUOUS
0
LAYER
2
LEFT_HID
70
0
62
7
6
HIDDEN
0
LAYER
2
TOP
70
0
62
7
6
CONTINUOUS
0
LAYER
2
TOP_HID
70
0
62
7
6
HIDDEN
0
ENDTAB
0
ENDSEC
0
SECTION
2
ENTITIES
0
LINE
8
FRONT
10
0.000141
20
0.358597
30
0.0
11
0.000000
21
0.352566
31
0.0
0
LINE
8
FRONT
10
0.000000
20
0.352566
30
0.0
11
0.000169
21
0.346535
31
0.0
0
LINE
8
FRONT
10
0.000169
20
0.346535
30
0.0
11
0.000648
21
0.340521
31
0.0
0
LINE
8
FRONT
10
0.000648
20
0.340521
30
0.0
11
0.001436
21
0.334540
31
0.0
0
LINE
8
FRONT
10
0.001436
20
0.334540
30
0.0
11
0.002529
21
0.328607
31
0.0
0
LINE
8
FRONT
10
0.002529
20
0.328607
30
0.0
11
0.003927
21
0.322738
31
0.0
0
LINE
8
FRONT
10
0.003927
20
0.322738
30
0.0
11
0.005624
21
0.316949
31
0.0
0
LINE
8
FRONT
10
0.005624
20
0.316949
30
0.0
11
0.007617
21
0.311254
31
0.0
0
LINE
8
FRONT
10
0.007617
20
0.311254
30
0.0
11
0.009899
21
0.305670
31
0.0
0
LINE
8
FRONT
10
0.009899
20
0.305670
30
0.0
11
0.012466
21
0.300210
31
0.0
0
LINE
8
FRONT
10
0.012466
20
0.300210
30
0.0
11
0.015310
21
0.294889
31
0.0
0
LINE
8
FRONT
10
0.015310
20
0.294889
30
0.0
11
0.018424
21
0.289722
31
0.0
0
LINE
8
FRONT
10
0.018424
20
0.289722
30
0.0
11
0.021799
21
0.284721
31
0.0
0
LINE
8
FRONT
10
0.021799
20
0.284721
30
0.0
11
0.025426
21
0.279901
31
0.0
0
LINE
8
FRONT
10
0.025426
20
0.279901
30
0.0
11
0.029297
21
0.275274
31
0.0
0
LINE
8
FRONT
10
0.029297
20
0.275274
30
0.0
11
0.033401
21
0.270851
31
0.0
0
LINE
8
FRONT
10
0.033401
20
0.270851
30
0.0
11
0.037726
21
0.266645
31
0.0
0
LINE
8
FRONT
10
0.037726
20
0.266645
30
0.0
11
0.042262
21
0.262668
31
0.0
0
LINE
8
FRONT
10
0.042262
20
0.262668
30
0.0
11
0.046996
21
0.258928
31
0.0
0
LINE
8
FRONT
10
0.046996
20
0.258928
30
0.0
11
0.051916
21
0.255437
31
0.0
0
LINE
8
FRONT
10
0.051916
20
0.255437
30
0.0
11
0.057009
21
0.252203
31
0.0
0
LINE
8
FRONT
10
0.057009
20
0.252203
30
0.0
11
0.062262
21
0.249236
31
0.0
0
LINE
8
FRONT
10
0.062262
20
0.249236
30
0.0
11
0.067660
21
0.246542
31
0.0
0
LINE
8
FRONT
10
0.067660
20
0.246542
30
0.0
11
0.073190
21
0.244130
31
0.0
0
LINE
8
FRONT
10
0.073190
20
0.244130
30
0.0
11
0.078836
21
0.242005
31
0.0
0
LINE
8
FRONT
10
0.078836
20
0.242005
30
0.0
11
0.084584
21
0.240173
31
0.0
0
LINE
8
FRONT
10
0.084584
20
0.240173
30
0.0
11
0.090419
21
0.238639
31
0.0
0
LINE
8
FRONT
10
0.090419
20
0.238639
30
0.0
11
0.096325
21
0.237406
31
0.0
0
LINE
8
FRONT
10
0.096325
20
0.237406
30
0.0
11
0.102286
21
0.236479
31
0.0
0
LINE
8
FRONT
10
0.102286
20
0.236479
30
0.0
11
0.108287
21
0.235860
31
0.0
0
LINE
8
FRONT
10
0.108287
20
0.235860
30
0.0
11
0.114312
21
0.235550
31
0.0
0
LINE
8
FRONT
10
0.114312
20
0.235550
30
0.0
11
0.120345
21
0.235550
31
0.0
0
LINE
8
FRONT
10
0.120345
20
0.235550
30
0.0
11
0.126370
21
0.235860
31
0.0
0
LINE
8
FRONT
10
0.126370
20
0.235860
30
0.0
11
0.132371
21
0.236479
31
0.0
0
LINE
8
FRONT
10
0.132371
20
0.236479
30
0.0
11
0.138332
21
0.237406
31
0.0
0
LINE
8
FRONT
10
0.138332
20
0.237406
30
0.0
11
0.144238
21
0.238639
31
0.0
0
LINE
8
FRONT
10
0.144238
20
0.238639
30
0.0
11
0.150073
21
0.240173
31
0.0
0
LINE
8
FRONT
10
0.150073
20
0.240173
30
0.0
11
0.155821
21
0.242005
31
0.0
0
LINE
8
FRONT
10
0.155821
20
0.242005
30
0.0
11
0.161467
21
0.244130
31
0.0
0
LINE
8
FRONT
10
0.161467
20
0.244130
30
0.0
11
0.166997
21
0.246542
31
0.0
0
LINE
8
FRONT
10
0.166997
20
0.246542
30
0.0
11
0.172395
21
0.249236
31
0.0
0
LINE
8
FRONT
10
0.172395
20
0.249236
30
0.0
11
0.177648
21
0.252203
31
0.0
0
LINE
8
FRONT
10
0.177648
20
0.252203
30
0.0
11
0.182741
21
0.255437
31
0.0
0
LINE
8
FRONT
10
0.182741
20
0.255437
30
0.0
11
0.187661
21
0.258928
31
0.0
0
LINE
8
FRONT
10
0.187661
20
0.258928
30
0.0
11
0.192395
21
0.262668
31
0.0
0
LINE
8
FRONT
10
0.192395
20
0.262668
30
0.0
11
0.196931
21
0.266645
31
0.0
0
LINE
8
FRONT
10
0.196931
20
0.266645
30
0.0
11
0.201256
21
0.270851
31
0.0
0
LINE
8
FRONT
10
0.201256
20
0.270851
30
0.0
11
0.205360
21
0.275274
31
0.0
0
LINE
8
FRONT
10
0.205360
20
0.275274
30
0.0
11
0.209231
21
0.279901
31
0.0
0
LINE
8
FRONT
10
0.209231
20
0.279901
30
0.0
11
0.212858
21
0.284721
31
0.0
0
LINE
8
FRONT
10
0.212858
20
0.284721
30
0.0
11
0.216233
21
0.289722
31
0.0
0
LINE
8
FRONT
10
0.216233
20
0.289722
30
0.0
11
0.219347
21
0.294889
31
0.0
0
LINE
8
FRONT
10
0.219347
20
0.294889
30
0.0
11
0.222191
21
0.300210
31
0.0
0
LINE
8
FRONT
10
0.222191
20
0.300210
30
0.0
11
0.224758
21
0.305670
31
0.0
0
LINE
8
FRONT
10
0.224758
20
0.305670
30
0.0
11
0.227040
21
0.311254
31
0.0
0
LINE
8
FRONT
10
0.227040
20
0.311254
30
0.0
11
0.229033
21
0.316949
31
0.0
0
LINE
8
FRONT
10
0.229033
20
0.316949
30
0.0
11
0.230730
21
0.322738
31
0.0
0
LINE
8
FRONT
10
0.230730
20
0.322738
30
0.0
11
0.232128
21
0.328607
31
0.0
0
LINE
8
FRONT
10
0.232128
20
0.328607
30
0.0
11
0.233221
21
0.334540
31
0.0
0
LINE
8
FRONT
10
0.233221
20
0.334540
30
0.0
11
0.234009
21
0.340521
31
0.0
0
LINE
8
FRONT
10
0.234009
20
0.340521
30
0.0
11
0.234488
21
0.346535
31
0.0
0
LINE
8
FRONT
10
0.234488
20
0.346535
30
0.0
11
0.234657
21
0.352566
31
0.0
0
LINE
8
FRONT
10
0.234657
20
0.352566
30
0.0
11
0.234516
21
0.358597
31
0.0
0
LINE
8
FRONT
10
0.031391
20
1.022659
30
0.0
11
0.000141
21
0.358597
31
0.0
0
LINE
8
FRONT
10
0.234516
20
0.358597
30
0.0
11
0.195454
21
1.022659
31
0.0
0
LINE
8
FRONT
10
0.195454
20
1.022659
30
0.0
11
0.195163
21
1.026616
31
0.0
0
LINE
8
FRONT
10
0.195163
20
1.026616
30
0.0
11
0.194682
21
1.030554
31
0.0
0
LINE
8
FRONT
10
0.194682
20
1.030554
30
0.0
11
0.194012
21
1.034464
31
0.0
0
LINE
8
FRONT
10
0.194012
20
1.034464
30
0.0
11
0.193153
21
1.038337
31
0.0
0
LINE
8
FRONT
10
0.193153
20
1.038337
30
0.0
11
0.192108
21
1.042164
31
0.0
0
LINE
8
FRONT
10
0.192108
20
1.042164
30
0.0
11
0.190880
21
1.045936
31
0.0
0
LINE
8
FRONT
10
0.190880
20
1.045936
30
0.0
11
0.189471
21
1.049645
31
0.0
0
LINE
8
FRONT
10
0.189471
20
1.049645
30
0.0
11
0.187885
21
1.053281
31
0.0
0
LINE
8
FRONT
10
0.187885
20
1.053281
30
0.0
11
0.186124
21
1.056836
31
0.0
0
LINE
8
FRONT
10
0.186124
20
1.056836
30
0.0
11
0.184195
21
1.060303
31
0.0
0
LINE
8
FRONT
10
0.184195
20
1.060303
30
0.0
11
0.182100
21
1.063672
31
0.0
0
LINE
8
FRONT
10
0.182100
20
1.063672
30
0.0
11
0.179844
21
1.066935
31
0.0
0
LINE
8
FRONT
10
0.179844
20
1.066935
30
0.0
11
0.177434
21
1.070086
31
0.0
0
LINE
8
FRONT
10
0.177434
20
1.070086
30
0.0
11
0.174875
21
1.073118
31
0.0
0
LINE
8
FRONT
10
0.174875
20
1.073118
30
0.0
11
0.172172
21
1.076021
31
0.0
0
LINE
8
FRONT
10
0.172172
20
1.076021
30
0.0
11
0.169332
21
1.078792
31
0.0
0
LINE
8
FRONT
10
0.169332
20
1.078792
30
0.0
11
0.166361
21
1.081421
31
0.0
0
LINE
8
FRONT
10
0.166361
20
1.081421
30
0.0
11
0.163267
21
1.083904
31
0.0
0
LINE
8
FRONT
10
0.163267
20
1.083904
30
0.0
11
0.160057
21
1.086235
31
0.0
0
LINE
8
FRONT
10
0.160057
20
1.086235
30
0.0
11
0.156738
21
1.088408
31
0.0
0
LINE
8
FRONT
10
0.156738
20
1.088408
30
0.0
11
0.153318
21
1.090419
31
0.0
0
LINE
8
FRONT
10
0.153318
20
1.090419
30
0.0
11
0.149805
21
1.092261
31
0.0
0
LINE
8
FRONT
10
0.149805
20
1.092261
30
0.0
11
0.146207
21
1.093932
31
0.0
0
LINE
8
FRONT
10
0.146207
20
1.093932
30
0.0
11
0.142532
21
1.095428
31
0.0
0
LINE
8
FRONT
10
0.142532
20
1.095428
30
0.0
11
0.138790
21
1.096744
31
0.0
0
LINE
8
FRONT
10
0.138790
20
1.096744
30
0.0
11
0.134988
21
1.097878
31
0.0
0
LINE
8
FRONT
10
0.134988
20
1.097878
30
0.0
11
0.131136
21
1.098827
31
0.0
0
LINE
8
FRONT
10
0.131136
20
1.098827
30
0.0
11
0.127243
21
1.099588
31
0.0
0
LINE
8
FRONT
10
0.127243
20
1.099588
30
0.0
11
0.123317
21
1.100161
31
0.0
0
LINE
8
FRONT
10
0.123317
20
1.100161
30
0.0
11
0.119368
21
1.100544
31
0.0
0
LINE
8
FRONT
10
0.119368
20
1.100544
30
0.0
11
0.115406
21
1.100736
31
0.0
0
LINE
8
FRONT
10
0.115406
20
1.100736
30
0.0
11
0.111439
21
1.100736
31
0.0
0
LINE
8
FRONT
10
0.111439
20
1.100736
30
0.0
11
0.107476
21
1.100544
31
0.0
0
LINE
8
FRONT
10
0.107476
20
1.100544
30
0.0
11
0.103527
21
1.100161
31
0.0
0
LINE
8
FRONT
10
0.103527
20
1.100161
30
0.0
11
0.099602
21
1.099588
31
0.0
0
LINE
8
FRONT
10
0.099602
20
1.099588
30
0.0
11
0.095709
21
1.098827
31
0.0
0
LINE
8
FRONT
10
0.095709
20
1.098827
30
0.0
11
0.091857
21
1.097878
31
0.0
0
LINE
8
FRONT
10
0.091857
20
1.097878
30
0.0
11
0.088055
21
1.096744
31
0.0
0
LINE
8
FRONT
10
0.088055
20
1.096744
30
0.0
11
0.084312
21
1.095428
31
0.0
0
LINE
8
FRONT
10
0.084312
20
1.095428
30
0.0
11
0.080638
21
1.093932
31
0.0
0
LINE
8
FRONT
10
0.080638
20
1.093932
30
0.0
11
0.077040
21
1.092261
31
0.0
0
LINE
8
FRONT
10
0.077040
20
1.092261
30
0.0
11
0.073526
21
1.090419
31
0.0
0
LINE
8
FRONT
10
0.073526
20
1.090419
30
0.0
11
0.070106
21
1.088408
31
0.0
0
LINE
8
FRONT
10
0.070106
20
1.088408
30
0.0
11
0.066787
21
1.086235
31
0.0
0
LINE
8
FRONT
10
0.066787
20
1.086235
30
0.0
11
0.063577
21
1.083904
31
0.0
0
LINE
8
FRONT
10
0.063577
20
1.083904
30
0.0
11
0.060483
21
1.081421
31
0.0
0
LINE
8
FRONT
10
0.060483
20
1.081421
30
0.0
11
0.057513
21
1.078792
31
0.0
0
LINE
8
FRONT
10
0.057513
20
1.078792
30
0.0
11
0.054673
21
1.076021
31
0.0
0
LINE
8
FRONT
10
0.054673
20
1.076021
30
0.0
11
0.051970
21
1.073118
31
0.0
0
LINE
8
FRONT
10
0.051970
20
1.073118
30
0.0
11
0.049410
21
1.070086
31
0.0
0
LINE
8
FRONT
10
0.049410
20
1.070086
30
0.0
11
0.047000
21
1.066935
31
0.0
0
LINE
8
FRONT
10
0.047000
20
1.066935
30
0.0
11
0.044745
21
1.063672
31
0.0
0
LINE
8
FRONT
10
0.044745
20
1.063672
30
0.0
11
0.042650
21
1.060303
31
0.0
0
LINE
8
FRONT
10
0.042650
20
1.060303
30
0.0
11
0.040720
21
1.056836
31
0.0
0
LINE
8
FRONT
10
0.040720
20
1.056836
30
0.0
11
0.038960
21
1.053281
31
0.0
0
LINE
8
FRONT
10
0.038960
20
1.053281
30
0.0
11
0.037374
21
1.049645
31
0.0
0
LINE
8
FRONT
10
0.037374
20
1.049645
30
0.0
11
0.035965
21
1.045936
31
0.0
0
LINE
8
FRONT
10
0.035965
20
1.045936
30
0.0
11
0.034736
21
1.042164
31
0.0
0
LINE
8
FRONT
10
0.034736
20
1.042164
30
0.0
11
0.033692
21
1.038337
31
0.0
0
LINE
8
FRONT
10
0.033692
20
1.038337
30
0.0
11
0.032833
21
1.034464
31
0.0
0
LINE
8
FRONT
10
0.032833
20
1.034464
30
0.0
11
0.032162
21
1.030554
31
0.0
0
LINE
8
FRONT
10
0.032162
20
1.030554
30
0.0
11
0.031681
21
1.026616
31
0.0
0
LINE
8
FRONT
10
0.031681
20
1.026616
30
0.0
11
0.031391
21
1.022659
31
0.0
0
LINE
8
FRONT
10
0.117329
20
0.303909
30
0.0
11
0.121996
21
0.304142
31
0.0
0
LINE
8
FRONT
10
0.121996
20
0.304142
30
0.0
11
0.126617
21
0.304839
31
0.0
0
LINE
8
FRONT
10
0.126617
20
0.304839
30
0.0
11
0.131145
21
0.305992
31
0.0
0
LINE
8
FRONT
10
0.131145
20
0.305992
30
0.0
11
0.135536
21
0.307590
31
0.0
0
LINE
8
FRONT
10
0.135536
20
0.307590
30
0.0
11
0.139747
21
0.309618
31
0.0
0
LINE
8
FRONT
10
0.139747
20
0.309618
30
0.0
11
0.143734
21
0.312054
31
0.0
0
LINE
8
FRONT
10
0.143734
20
0.312054
30
0.0
11
0.147459
21
0.314876
31
0.0
0
LINE
8
FRONT
10
0.147459
20
0.314876
30
0.0
11
0.150885
21
0.318054
31
0.0
0
LINE
8
FRONT
10
0.150885
20
0.318054
30
0.0
11
0.153977
21
0.321558
31
0.0
0
LINE
8
FRONT
10
0.153977
20
0.321558
30
0.0
11
0.156705
21
0.325352
31
0.0
0
LINE
8
FRONT
10
0.156705
20
0.325352
30
0.0
11
0.159041
21
0.329399
31
0.0
0
LINE
8
FRONT
10
0.159041
20
0.329399
30
0.0
11
0.160963
21
0.333659
31
0.0
0
LINE
8
FRONT
10
0.160963
20
0.333659
30
0.0
11
0.162452
21
0.338089
31
0.0
0
LINE
8
FRONT
10
0.162452
20
0.338089
30
0.0
11
0.163491
21
0.342645
31
0.0
0
LINE
8
FRONT
10
0.163491
20
0.342645
30
0.0
11
0.164072
21
0.347281
31
0.0
0
LINE
8
FRONT
10
0.164072
20
0.347281
30
0.0
11
0.164189
21
0.351953
31
0.0
0
LINE
8
FRONT
10
0.164189
20
0.351953
30
0.0
11
0.163840
21
0.356613
31
0.0
0
LINE
8
FRONT
10
0.163840
20
0.356613
30
0.0
11
0.163028
21
0.361215
31
0.0
0
LINE
8
FRONT
10
0.163028
20
0.361215
30
0.0
11
0.161763
21
0.365713
31
0.0
0
LINE
8
FRONT
10
0.161763
20
0.365713
30
0.0
11
0.160055
21
0.370063
31
0.0
0
LINE
8
FRONT
10
0.160055
20
0.370063
30
0.0
11
0.157923
21
0.374222
31
0.0
0
LINE
8
FRONT
10
0.157923
20
0.374222
30
0.0
11
0.155388
21
0.378147
31
0.0
0
LINE
8
FRONT
10
0.155388
20
0.378147
30
0.0
11
0.152475
21
0.381801
31
0.0
0
LINE
8
FRONT
10
0.152475
20
0.381801
30
0.0
11
0.149212
21
0.385146
31
0.0
0
LINE
8
FRONT
10
0.149212
20
0.385146
30
0.0
11
0.145632
21
0.388150
31
0.0
0
LINE
8
FRONT
10
0.145632
20
0.388150
30
0.0
11
0.141771
21
0.390782
31
0.0
0
LINE
8
FRONT
10
0.141771
20
0.390782
30
0.0
11
0.137667
21
0.393017
31
0.0
0
LINE
8
FRONT
10
0.137667
20
0.393017
30
0.0
11
0.133361
21
0.394832
31
0.0
0
LINE
8
FRONT
10
0.133361
20
0.394832
30
0.0
11
0.128895
21
0.396210
31
0.0
0
LINE
8
FRONT
10
0.128895
20
0.396210
30
0.0
11
0.124315
21
0.397136
31
0.0
0
LINE
8
FRONT
10
0.124315
20
0.397136
30
0.0
11
0.119665
21
0.397601
31
0.0
0
LINE
8
FRONT
10
0.119665
20
0.397601
30
0.0
11
0.114992
21
0.397601
31
0.0
0
LINE
8
FRONT
10
0.114992
20
0.397601
30
0.0
11
0.110342
21
0.397136
31
0.0
0
LINE
8
FRONT
10
0.110342
20
0.397136
30
0.0
11
0.105762
21
0.396210
31
0.0
0
LINE
8
FRONT
10
0.105762
20
0.396210
30
0.0
11
0.101296
21
0.394832
31
0.0
0
LINE
8
FRONT
10
0.101296
20
0.394832
30
0.0
11
0.096990
21
0.393017
31
0.0
0
LINE
8
FRONT
10
0.096990
20
0.393017
30
0.0
11
0.092886
21
0.390782
31
0.0
0
LINE
8
FRONT
10
0.092886
20
0.390782
30
0.0
11
0.089025
21
0.388150
31
0.0
0
LINE
8
FRONT
10
0.089025
20
0.388150
30
0.0
11
0.085445
21
0.385146
31
0.0
0
LINE
8
FRONT
10
0.085445
20
0.385146
30
0.0
11
0.082183
21
0.381801
31
0.0
0
LINE
8
FRONT
10
0.082183
20
0.381801
30
0.0
11
0.079269
21
0.378147
31
0.0
0
LINE
8
FRONT
10
0.079269
20
0.378147
30
0.0
11
0.076734
21
0.374222
31
0.0
0
LINE
8
FRONT
10
0.076734
20
0.374222
30
0.0
11
0.074602
21
0.370063
31
0.0
0
LINE
8
FRONT
10
0.074602
20
0.370063
30
0.0
11
0.072894
21
0.365713
31
0.0
0
LINE
8
FRONT
10
0.072894
20
0.365713
30
0.0
11
0.071629
21
0.361215
31
0.0
0
LINE
8
FRONT
10
0.071629
20
0.361215
30
0.0
11
0.070817
21
0.356613
31
0.0
0
LINE
8
FRONT
10
0.070817
20
0.356613
30
0.0
11
0.070468
21
0.351953
31
0.0
0
LINE
8
FRONT
10
0.070468
20
0.351953
30
0.0
11
0.070585
21
0.347281
31
0.0
0
LINE
8
FRONT
10
0.070585
20
0.347281
30
0.0
11
0.071166
21
0.342645
31
0.0
0
LINE
8
FRONT
10
0.071166
20
0.342645
30
0.0
11
0.072205
21
0.338089
31
0.0
0
LINE
8
FRONT
10
0.072205
20
0.338089
30
0.0
11
0.073694
21
0.333659
31
0.0
0
LINE
8
FRONT
10
0.073694
20
0.333659
30
0.0
11
0.075616
21
0.329399
31
0.0
0
LINE
8
FRONT
10
0.075616
20
0.329399
30
0.0
11
0.077952
21
0.325352
31
0.0
0
LINE
8
FRONT
10
0.077952
20
0.325352
30
0.0
11
0.080680
21
0.321558
31
0.0
0
LINE
8
FRONT
10
0.080680
20
0.321558
30
0.0
11
0.083772
21
0.318054
31
0.0
0
LINE
8
FRONT
10
0.083772
20
0.318054
30
0.0
11
0.087198
21
0.314876
31
0.0
0
LINE
8
FRONT
10
0.087198
20
0.314876
30
0.0
11
0.090923
21
0.312054
31
0.0
0
LINE
8
FRONT
10
0.090923
20
0.312054
30
0.0
11
0.094910
21
0.309618
31
0.0
0
LINE
8
FRONT
10
0.094910
20
0.309618
30
0.0
11
0.099121
21
0.307590
31
0.0
0
LINE
8
FRONT
10
0.099121
20
0.307590
30
0.0
11
0.103512
21
0.305992
31
0.0
0
LINE
8
FRONT
10
0.103512
20
0.305992
30
0.0
11
0.108040
21
0.304839
31
0.0
0
LINE
8
FRONT
10
0.108040
20
0.304839
30
0.0
11
0.112661
21
0.304142
31
0.0
0
LINE
8
FRONT
10
0.112661
20
0.304142
30
0.0
11
0.117329
21
0.303909
31
0.0
0
LINE
8
FRONT
10
0.117329
20
0.983597
30
0.0
11
0.120440
21
0.983752
31
0.0
0
LINE
8
FRONT
10
0.120440
20
0.983752
30
0.0
11
0.123521
21
0.984216
31
0.0
0
LINE
8
FRONT
10
0.123521
20
0.984216
30
0.0
11
0.126540
21
0.984985
31
0.0
0
LINE
8
FRONT
10
0.126540
20
0.984985
30
0.0
11
0.129467
21
0.986051
31
0.0
0
LINE
8
FRONT
10
0.129467
20
0.986051
30
0.0
11
0.132274
21
0.987402
31
0.0
0
LINE
8
FRONT
10
0.132274
20
0.987402
30
0.0
11
0.134932
21
0.989027
31
0.0
0
LINE
8
FRONT
10
0.134932
20
0.989027
30
0.0
11
0.137416
21
0.990908
31
0.0
0
LINE
8
FRONT
10
0.137416
20
0.990908
30
0.0
11
0.139699
21
0.993027
31
0.0
0
LINE
8
FRONT
10
0.139699
20
0.993027
30
0.0
11
0.141761
21
0.995363
31
0.0
0
LINE
8
FRONT
10
0.141761
20
0.995363
30
0.0
11
0.143579
21
0.997892
31
0.0
0
LINE
8
FRONT
10
0.143579
20
0.997892
30
0.0
11
0.145137
21
1.000590
31
0.0
0
LINE
8
FRONT
10
0.145137
20
1.000590
30
0.0
11
0.146418
21
1.003430
31
0.0
0
LINE
8
FRONT
10
0.146418
20
1.003430
30
0.0
11
0.147411
21
1.006383
31
0.0
0
LINE
8
FRONT
10
0.147411
20
1.006383
30
0.0
11
0.148104
21
1.009420
31
0.0
0
LINE
8
FRONT
10
0.148104
20
1.009420
30
0.0
11
0.148491
21
1.012512
31
0.0
0
LINE
8
FRONT
10
0.148491
20
1.012512
30
0.0
11
0.148569
21
1.015626
31
0.0
0
LINE
8
FRONT
10
0.148569
20
1.015626
30
0.0
11
0.148336
21
1.018733
31
0.0
0
LINE
8
FRONT
10
0.148336
20
1.018733
30
0.0
11
0.147795
21
1.021801
31
0.0
0
LINE
8
FRONT
10
0.147795
20
1.021801
30
0.0
11
0.146951
21
1.024800
31
0.0
0
LINE
8
FRONT
10
0.146951
20
1.024800
30
0.0
11
0.145813
21
1.027700
31
0.0
0
LINE
8
FRONT
10
0.145813
20
1.027700
30
0.0
11
0.144392
21
1.030472
31
0.0
0
LINE
8
FRONT
10
0.144392
20
1.030472
30
0.0
11
0.142702
21
1.033089
31
0.0
0
LINE
8
FRONT
10
0.142702
20
1.033089
30
0.0
11
0.140759
21
1.035525
31
0.0
0
LINE
8
FRONT
10
0.140759
20
1.035525
30
0.0
11
0.138584
21
1.037755
31
0.0
0
LINE
8
FRONT
10
0.138584
20
1.037755
30
0.0
11
0.136197
21
1.039757
31
0.0
0
LINE
8
FRONT
10
0.136197
20
1.039757
30
0.0
11
0.133623
21
1.041512
31
0.0
0
LINE
8
FRONT
10
0.133623
20
1.041512
30
0.0
11
0.130887
21
1.043002
31
0.0
0
LINE
8
FRONT
10
0.130887
20
1.043002
30
0.0
11
0.128017
21
1.044212
31
0.0
0
LINE
8
FRONT
10
0.128017
20
1.044212
30
0.0
11
0.125040
21
1.045130
31
0.0
0
LINE
8
FRONT
10
0.125040
20
1.045130
30
0.0
11
0.121986
21
1.045748
31
0.0
0
LINE
8
FRONT
10
0.121986
20
1.045748
30
0.0
11
0.118886
21
1.046058
31
0.0
0
LINE
8
FRONT
10
0.118886
20
1.046058
30
0.0
11
0.115771
21
1.046058
31
0.0
0
LINE
8
FRONT
10
0.115771
20
1.046058
30
0.0
11
0.112671
21
1.045748
31
0.0
0
LINE
8
FRONT
10
0.112671
20
1.045748
30
0.0
11
0.109617
21
1.045130
31
0.0
0
LINE
8
FRONT
10
0.109617
20
1.045130
30
0.0
11
0.106640
21
1.044212
31
0.0
0
LINE
8
FRONT
10
0.106640
20
1.044212
30
0.0
11
0.103770
21
1.043002
31
0.0
0
LINE
8
FRONT
10
0.103770
20
1.043002
30
0.0
11
0.101034
21
1.041512
31
0.0
0
LINE
8
FRONT
10
0.101034
20
1.041512
30
0.0
11
0.098460
21
1.039757
31
0.0
0
LINE
8
FRONT
10
0.098460
20
1.039757
30
0.0
11
0.096073
21
1.037755
31
0.0
0
LINE
8
FRONT
10
0.096073
20
1.037755
30
0.0
11
0.093898
21
1.035525
31
0.0
0
LINE
8
FRONT
10
0.093898
20
1.035525
30
0.0
11
0.091955
21
1.033089
31
0.0
0
LINE
8
FRONT
10
0.091955
20
1.033089
30
0.0
11
0.090265
21
1.030472
31
0.0
0
LINE
8
FRONT
10
0.090265
20
1.030472
30
0.0
11
0.088844
21
1.027700
31
0.0
0
LINE
8
FRONT
10
0.088844
20
1.027700
30
0.0
11
0.087706
21
1.024800
31
0.0
0
LINE
8
FRONT
10
0.087706
20
1.024800
30
0.0
11
0.086862
21
1.021801
31
0.0
0
LINE
8
FRONT
10
0.086862
20
1.021801
30
0.0
11
0.086321
21
1.018733
31
0.0
0
LINE
8
FRONT
10
0.086321
20
1.018733
30
0.0
11
0.086088
21
1.015626
31
0.0
0
LINE
8
FRONT
10
0.086088
20
1.015626
30
0.0
11
0.086166
21
1.012512
31
0.0
0
LINE
8
FRONT
10
0.086166
20
1.012512
30
0.0
11
0.086553
21
1.009420
31
0.0
0
LINE
8
FRONT
10
0.086553
20
1.009420
30
0.0
11
0.087246
21
1.006383
31
0.0
0
LINE
8
FRONT
10
0.087246
20
1.006383
30
0.0
11
0.088239
21
1.003430
31
0.0
0
LINE
8
FRONT
10
0.088239
20
1.003430
30
0.0
11
0.089520
21
1.000590
31
0.0
0
LINE
8
FRONT
10
0.089520
20
1.000590
30
0.0
11
0.091078
21
0.997892
31
0.0
0
LINE
8
FRONT
10
0.091078
20
0.997892
30
0.0
11
0.092896
21
0.995363
31
0.0
0
LINE
8
FRONT
10
0.092896
20
0.995363
30
0.0
11
0.094958
21
0.993027
31
0.0
0
LINE
8
FRONT
10
0.094958
20
0.993027
30
0.0
11
0.097241
21
0.990908
31
0.0
0
LINE
8
FRONT
10
0.097241
20
0.990908
30
0.0
11
0.099725
21
0.989027
31
0.0
0
LINE
8
FRONT
10
0.099725
20
0.989027
30
0.0
11
0.102383
21
0.987402
31
0.0
0
LINE
8
FRONT
10
0.102383
20
0.987402
30
0.0
11
0.105190
21
0.986051
31
0.0
0
LINE
8
FRONT
10
0.105190
20
0.986051
30
0.0
11
0.108117
21
0.984985
31
0.0
0
LINE
8
FRONT
10
0.108117
20
0.984985
30
0.0
11
0.111136
21
0.984216
31
0.0
0
LINE
8
FRONT
10
0.111136
20
0.984216
30
0.0
11
0.114217
21
0.983752
31
0.0
0
LINE
8
FRONT
10
0.114217
20
0.983752
30
0.0
11
0.117329
21
0.983597
31
0.0
0
LINE
8
LEFT
10
0.470207
20
0.358636
30
0.0
11
0.470207
21
0.235550
31
0.0
0
LINE
8
LEFT
10
0.470207
20
1.022698
30
0.0
11
0.470207
21
0.358636
31
0.0
0
LINE
8
LEFT
10
0.407707
20
0.358636
30
0.0
11
0.407707
21
0.235550
31
0.0
0
LINE
8
LEFT
10
0.470207
20
1.100798
30
0.0
11
0.470207
21
1.022698
31
0.0
0
LINE
8
LEFT
10
0.407707
20
1.022698
30
0.0
11
0.407707
21
0.358636
31
0.0
0
LINE
8
LEFT
10
0.407707
20
1.100798
30
0.0
11
0.407707
21
1.022698
31
0.0
0
LINE
8
LEFT
10
0.438957
20
0.358636
30
0.0
11
0.470207
21
0.358636
31
0.0
0
LINE
8
LEFT
10
0.438957
20
1.022698
30
0.0
11
0.470207
21
1.022698
31
0.0
0
LINE
8
LEFT
10
0.438957
20
0.358636
30
0.0
11
0.407707
21
0.358636
31
0.0
0
LINE
8
LEFT
10
0.438957
20
1.022698
30
0.0
11
0.407707
21
1.022698
31
0.0
0
LINE
8
LEFT
10
0.470207
20
0.235550
30
0.0
11
0.438957
21
0.235550
31
0.0
0
LINE
8
LEFT
10
0.407707
20
0.235550
30
0.0
11
0.438957
21
0.235550
31
0.0
0
LINE
8
LEFT
10
0.470207
20
1.100798
30
0.0
11
0.438957
21
1.100798
31
0.0
0
LINE
8
LEFT
10
0.407707
20
1.100798
30
0.0
11
0.438957
21
1.100798
31
0.0
0
LINE
8
LEFT_HID
6
HIDDEN
10
0.470207
20
0.303948
30
0.0
11
0.470207
21
0.397698
31
0.0
0
LINE
8
LEFT_HID
6
HIDDEN
10
0.470207
20
0.397698
30
0.0
11
0.470207
21
0.303948
31
0.0
0
LINE
8
LEFT_HID
6
HIDDEN
10
0.470207
20
0.983636
30
0.0
11
0.470207
21
1.046136
31
0.0
0
LINE
8
LEFT_HID
6
HIDDEN
10
0.470207
20
1.046136
30
0.0
11
0.470207
21
0.983636
31
0.0
0
LINE
8
LEFT_HID
6
HIDDEN
10
0.407707
20
0.303948
30
0.0
11
0.407707
21
0.397698
31
0.0
0
LINE
8
LEFT_HID
6
HIDDEN
10
0.407707
20
0.397698
30
0.0
11
0.407707
21
0.303948
31
0.0
0
LINE
8
LEFT_HID
6
HIDDEN
10
0.407707
20
0.983636
30
0.0
11
0.407707
21
1.046136
31
0.0
0
LINE
8
LEFT_HID
6
HIDDEN
10
0.407707
20
1.046136
30
0.0
11
0.407707
21
0.983636
31
0.0
0
LINE
8
LEFT_HID
6
HIDDEN
10
0.438957
20
0.303948
30
0.0
11
0.470207
21
0.303948
31
0.0
0
LINE
8
LEFT_HID
6
HIDDEN
10
0.438957
20
0.983636
30
0.0
11
0.470207
21
0.983636
31
0.0
0
LINE
8
LEFT_HID
6
HIDDEN
10
0.438957
20
0.303948
30
0.0
11
0.407707
21
0.303948
31
0.0
0
LINE
8
LEFT_HID
6
HIDDEN
10
0.438957
20
0.983636
30
0.0
11
0.407707
21
0.983636
31
0.0
0
LINE
8
LEFT_HID
6
HIDDEN
10
0.470207
20
0.397698
30
0.0
11
0.438957
21
0.397698
31
0.0
0
LINE
8
LEFT_HID
6
HIDDEN
10
0.470207
20
1.046136
30
0.0
11
0.438957
21
1.046136
31
0.0
0
LINE
8
LEFT_HID
6
HIDDEN
10
0.407707
20
0.397698
30
0.0
11
0.438957
21
0.397698
31
0.0
0
LINE
8
LEFT_HID
6
HIDDEN
10
0.407707
20
1.046136
30
0.0
11
0.438957
21
1.046136
31
0.0
0
LINE
8
TOP
10
0.000141
20
0.000000
30
0.0
11
0.000000
21
0.000000
31
0.0
0
LINE
8
TOP
10
0.234658
20
0.000000
30
0.0
11
0.234516
21
0.000000
31
0.0
0
LINE
8
TOP
10
0.031391
20
0.000000
30
0.0
11
0.000141
21
0.000000
31
0.0
0
LINE
8
TOP
10
0.234516
20
0.000000
30
0.0
11
0.195454
21
0.000000
31
0.0
0
LINE
8
TOP
10
0.000141
20
0.062500
30
0.0
11
0.000000
21
0.062500
31
0.0
0
LINE
8
TOP
10
0.234658
20
0.062500
30
0.0
11
0.234516
21
0.062500
31
0.0
0
LINE
8
TOP
10
0.195454
20
0.000000
30
0.0
11
0.031391
21
0.000000
31
0.0
0
LINE
8
TOP
10
0.031391
20
0.062500
30
0.0
11
0.000141
21
0.062500
31
0.0
0
LINE
8
TOP
10
0.234516
20
0.062500
30
0.0
11
0.195454
21
0.062500
31
0.0
0
LINE
8
TOP
10
0.195454
20
0.062500
30
0.0
11
0.031391
21
0.062500
31
0.0
0
LINE
8
TOP
10
0.234516
20
0.031250
30
0.0
11
0.234516
21
0.000000
31
0.0
0
LINE
8
TOP
10
0.000141
20
0.031250
30
0.0
11
0.000141
21
0.000000
31
0.0
0
LINE
8
TOP
10
0.031391
20
0.031250
30
0.0
11
0.031391
21
0.000000
31
0.0
0
LINE
8
TOP
10
0.195454
20
0.031250
30
0.0
11
0.195454
21
0.000000
31
0.0
0
LINE
8
TOP
10
0.000141
20
0.031250
30
0.0
11
0.000141
21
0.062500
31
0.0
0
LINE
8
TOP
10
0.234516
20
0.031250
30
0.0
11
0.234516
21
0.062500
31
0.0
0
LINE
8
TOP
10
0.031391
20
0.031250
30
0.0
11
0.031391
21
0.062500
31
0.0
0
LINE
8
TOP
10
0.195454
20
0.031250
30
0.0
11
0.195454
21
0.062500
31
0.0
0
LINE
8
TOP
10
0.234658
20
0.000000
30
0.0
11
0.234658
21
0.031250
31
0.0
0
LINE
8
TOP
10
0.000000
20
0.000000
30
0.0
11
0.000000
21
0.031250
31
0.0
0
LINE
8
TOP
10
0.000000
20
0.062500
30
0.0
11
0.000000
21
0.031250
31
0.0
0
LINE
8
TOP
10
0.234658
20
0.062500
30
0.0
11
0.234658
21
0.031250
31
0.0
0
LINE
8
TOP_HID
6
HIDDEN
10
0.000000
20
0.000000
30
0.0
11
0.234658
21
0.000000
31
0.0
0
LINE
8
TOP_HID
6
HIDDEN
10
0.000000
20
0.062500
30
0.0
11
0.234658
21
0.062500
31
0.0
0
LINE
8
TOP_HID
6
HIDDEN
10
0.117329
20
0.000000
30
0.0
11
0.164204
21
0.000000
31
0.0
0
LINE
8
TOP_HID
6
HIDDEN
10
0.164204
20
0.000000
30
0.0
11
0.070454
21
0.000000
31
0.0
0
LINE
8
TOP_HID
6
HIDDEN
10
0.070454
20
0.000000
30
0.0
11
0.117329
21
0.000000
31
0.0
0
LINE
8
TOP_HID
6
HIDDEN
10
0.117329
20
0.000000
30
0.0
11
0.148579
21
0.000000
31
0.0
0
LINE
8
TOP_HID
6
HIDDEN
10
0.148579
20
0.000000
30
0.0
11
0.086079
21
0.000000
31
0.0
0
LINE
8
TOP_HID
6
HIDDEN
10
0.086079
20
0.000000
30
0.0
11
0.117329
21
0.000000
31
0.0
0
LINE
8
TOP_HID
6
HIDDEN
10
0.117329
20
0.062500
30
0.0
11
0.164204
21
0.062500
31
0.0
0
LINE
8
TOP_HID
6
HIDDEN
10
0.164204
20
0.062500
30
0.0
11
0.070454
21
0.062500
31
0.0
0
LINE
8
TOP_HID
6
HIDDEN
10
0.070454
20
0.062500
30
0.0
11
0.117329
21
0.062500
31
0.0
0
LINE
8
TOP_HID
6
HIDDEN
10
0.117329
20
0.062500
30
0.0
11
0.148579
21
0.062500
31
0.0
0
LINE
8
TOP_HID
6
HIDDEN
10
0.148579
20
0.062500
30
0.0
11
0.086079
21
0.062500
31
0.0
0
LINE
8
TOP_HID
6
HIDDEN
10
0.086079
20
0.062500
30
0.0
11
0.117329
21
0.062500
31
0.0
0
LINE
8
TOP_HID
6
HIDDEN
10
0.164204
20
0.000000
30
0.0
11
0.164204
21
0.031250
31
0.0
0
LINE
8
TOP_HID
6
HIDDEN
10
0.070454
20
0.000000
30
0.0
11
0.070454
21
0.031250
31
0.0
0
LINE
8
TOP_HID
6
HIDDEN
10
0.148579
20
0.000000
30
0.0
11
0.148579
21
0.031250
31
0.0
0
LINE
8
TOP_HID
6
HIDDEN
10
0.086079
20
0.000000
30
0.0
11
0.086079
21
0.031250
31
0.0
0
LINE
8
TOP_HID
6
HIDDEN
10
0.070454
20
0.062500
30
0.0
11
0.070454
21
0.031250
31
0.0
0
LINE
8
TOP_HID
6
HIDDEN
10
0.164204
20
0.062500
30
0.0
11
0.164204
21
0.031250
31
0.0
0
LINE
8
TOP_HID
6
HIDDEN
10
0.086079
20
0.062500
30
0.0
11
0.086079
21
0.031250
31
0.0
0
LINE
8
TOP_HID
6
HIDDEN
10
0.148579
20
0.062500
30
0.0
11
0.148579
21
0.031250
31
0.0
0
ENDSEC
0
EOF
