0
SECTION
2
HEADER
9
$ACADVER
1
AC1009
0
ENDSEC
0
SECTION
2
TABLES
0
TABLE
2
LTYPE
70
3
0
LTYPE
2
CONTINUOUS
70
0
3
Solid line
72
65
73
0
40
0.0
0
LTYPE
2
HIDDEN
70
0
3
__ __ __ __ __
72
65
73
2
40
0.015074
49
0.010054
49
-0.005020
0
LTYPE
2
CENTER
70
0
3
___ _ ___ _ ___
72
65
73
4
40
0.035168
49
0.020094
49
-0.005020
49
0.005020
49
-0.005020
0
ENDTAB
0
TABLE
2
LAYER
70
6
0
LAYER
2
0
70
0
62
7
6
CONTINUOUS
0
LAYER
2
FRONT
70
0
62
7
6
CONTINUOUS
0
LAYER
2
FRONT_HID
70
0
62
7
6
HIDDEN
0
LAYER
2
LEFT
70
0
62
7
6
CONTINUOUS
0
LAYER
2
LEFT_HID
70
0
62
7
6
HIDDEN
0
LAYER
2
TOP
70
0
62
7
6
CONTINUOUS
0
ENDTAB
0
ENDSEC
0
SECTION
2
ENTITIES
0
LINE
8
FRONT
10
0.301480
20
0.361683
30
0.0
11
0.000000
21
0.361683
31
0.0
0
LINE
8
FRONT
10
0.301480
20
0.361683
30
0.0
11
0.301480
21
0.471058
31
0.0
0
LINE
8
FRONT
10
0.301480
20
0.471058
30
0.0
11
0.000000
21
0.471058
31
0.0
0
LINE
8
FRONT
10
0.000000
20
0.471058
30
0.0
11
0.000000
21
0.361683
31
0.0
0
LINE
8
FRONT_HID
6
HIDDEN
10
0.262993
20
0.361683
30
0.0
11
0.038487
21
0.361683
31
0.0
0
LINE
8
FRONT_HID
6
HIDDEN
10
0.038487
20
0.361683
30
0.0
11
0.262993
21
0.361683
31
0.0
0
LINE
8
FRONT_HID
6
HIDDEN
10
0.262993
20
0.361683
30
0.0
11
0.262993
21
0.471058
31
0.0
0
LINE
8
FRONT_HID
6
HIDDEN
10
0.262993
20
0.471058
30
0.0
11
0.038487
21
0.471058
31
0.0
0
LINE
8
FRONT_HID
6
HIDDEN
10
0.038487
20
0.471058
30
0.0
11
0.262993
21
0.471058
31
0.0
0
LINE
8
FRONT_HID
6
HIDDEN
10
0.038487
20
0.471058
30
0.0
11
0.038487
21
0.361683
31
0.0
0
LINE
8
LEFT
10
0.361776
20
0.361683
30
0.0
11
0.663257
21
0.361683
31
0.0
0
LINE
8
LEFT
10
0.361776
20
0.471058
30
0.0
11
0.663257
21
0.471058
31
0.0
0
LINE
8
LEFT
10
0.361776
20
0.471058
30
0.0
11
0.361776
21
0.361683
31
0.0
0
LINE
8
LEFT
10
0.663257
20
0.471058
30
0.0
11
0.663257
21
0.361683
31
0.0
0
LINE
8
LEFT_HID
6
HIDDEN
10
0.512516
20
0.361683
30
0.0
11
0.361776
21
0.361683
31
0.0
0
LINE
8
LEFT_HID
6
HIDDEN
10
0.663257
20
0.361683
30
0.0
11
0.512516
21
0.361683
31
0.0
0
LINE
8
LEFT_HID
6
HIDDEN
10
0.512516
20
0.471058
30
0.0
11
0.361776
21
0.471058
31
0.0
0
LINE
8
LEFT_HID
6
HIDDEN
10
0.663257
20
0.471058
30
0.0
11
0.512516
21
0.471058
31
0.0
0
LINE
8
LEFT_HID
6
HIDDEN
10
0.512516
20
0.361683
30
0.0
11
0.400263
21
0.361683
31
0.0
0
LINE
8
LEFT_HID
6
HIDDEN
10
0.400263
20
0.361683
30
0.0
11
0.624770
21
0.361683
31
0.0
0
LINE
8
LEFT_HID
6
HIDDEN
10
0.624770
20
0.361683
30
0.0
11
0.512516
21
0.361683
31
0.0
0
LINE
8
LEFT_HID
6
HIDDEN
10
0.512516
20
0.471058
30
0.0
11
0.400263
21
0.471058
31
0.0
0
LINE
8
LEFT_HID
6
HIDDEN
10
0.400263
20
0.471058
30
0.0
11
0.624770
21
0.471058
31
0.0
0
LINE
8
LEFT_HID
6
HIDDEN
10
0.624770
20
0.471058
30
0.0
11
0.512516
21
0.471058
31
0.0
0
LINE
8
LEFT_HID
6
HIDDEN
10
0.400263
20
0.471058
30
0.0
11
0.400263
21
0.361683
31
0.0
0
LINE
8
LEFT_HID
6
HIDDEN
10
0.624770
20
0.471058
30
0.0
11
0.624770
21
0.361683
31
0.0
0
LINE
8
TOP
10
0.301293
20
0.150693
30
0.0
11
0.300544
21
0.165702
31
0.0
0
LINE
8
TOP
10
0.300544
20
0.165702
30
0.0
11
0.298304
21
0.180562
31
0.0
0
LINE
8
TOP
10
0.298304
20
0.180562
30
0.0
11
0.294596
21
0.195125
31
0.0
0
LINE
8
TOP
10
0.294596
20
0.195125
30
0.0
11
0.289456
21
0.209246
31
0.0
0
LINE
8
TOP
10
0.289456
20
0.209246
30
0.0
11
0.282936
21
0.222785
31
0.0
0
LINE
8
TOP
10
0.282936
20
0.222785
30
0.0
11
0.275100
21
0.235608
31
0.0
0
LINE
8
TOP
10
0.275100
20
0.235608
30
0.0
11
0.266026
21
0.247587
31
0.0
0
LINE
8
TOP
10
0.266026
20
0.247587
30
0.0
11
0.255805
21
0.258603
31
0.0
0
LINE
8
TOP
10
0.255805
20
0.258603
30
0.0
11
0.244538
21
0.268547
31
0.0
0
LINE
8
TOP
10
0.244538
20
0.268547
30
0.0
11
0.232336
21
0.277319
31
0.0
0
LINE
8
TOP
10
0.232336
20
0.277319
30
0.0
11
0.219322
21
0.284833
31
0.0
0
LINE
8
TOP
10
0.219322
20
0.284833
30
0.0
11
0.205624
21
0.291013
31
0.0
0
LINE
8
TOP
10
0.205624
20
0.291013
30
0.0
11
0.191379
21
0.295799
31
0.0
0
LINE
8
TOP
10
0.191379
20
0.295799
30
0.0
11
0.176728
21
0.299143
31
0.0
0
LINE
8
TOP
10
0.176728
20
0.299143
30
0.0
11
0.161818
21
0.301012
31
0.0
0
LINE
8
TOP
10
0.161818
20
0.301012
30
0.0
11
0.146795
21
0.301387
31
0.0
0
LINE
8
TOP
10
0.146795
20
0.301387
30
0.0
11
0.131809
21
0.300264
31
0.0
0
LINE
8
TOP
10
0.131809
20
0.300264
30
0.0
11
0.117010
21
0.297654
31
0.0
0
LINE
8
TOP
10
0.117010
20
0.297654
30
0.0
11
0.102544
21
0.293584
31
0.0
0
LINE
8
TOP
10
0.102544
20
0.293584
30
0.0
11
0.088555
21
0.288094
31
0.0
0
LINE
8
TOP
10
0.088555
20
0.288094
30
0.0
11
0.075183
21
0.281238
31
0.0
0
LINE
8
TOP
10
0.075183
20
0.281238
30
0.0
11
0.062559
21
0.273085
31
0.0
0
LINE
8
TOP
10
0.062559
20
0.273085
30
0.0
11
0.050810
21
0.263715
31
0.0
0
LINE
8
TOP
10
0.050810
20
0.263715
30
0.0
11
0.040052
21
0.253223
31
0.0
0
LINE
8
TOP
10
0.040052
20
0.253223
30
0.0
11
0.030393
21
0.241711
31
0.0
0
LINE
8
TOP
10
0.030393
20
0.241711
30
0.0
11
0.021928
21
0.229294
31
0.0
0
LINE
8
TOP
10
0.021928
20
0.229294
30
0.0
11
0.014741
21
0.216097
31
0.0
0
LINE
8
TOP
10
0.014741
20
0.216097
30
0.0
11
0.008903
21
0.202249
31
0.0
0
LINE
8
TOP
10
0.008903
20
0.202249
30
0.0
11
0.004474
21
0.187890
31
0.0
0
LINE
8
TOP
10
0.004474
20
0.187890
30
0.0
11
0.001496
21
0.173160
31
0.0
0
LINE
8
TOP
10
0.001496
20
0.173160
30
0.0
11
0.000000
21
0.158207
31
0.0
0
LINE
8
TOP
10
0.000000
20
0.158207
30
0.0
11
0.000000
21
0.143180
31
0.0
0
LINE
8
TOP
10
0.000000
20
0.143180
30
0.0
11
0.001496
21
0.128227
31
0.0
0
LINE
8
TOP
10
0.001496
20
0.128227
30
0.0
11
0.004474
21
0.113497
31
0.0
0
LINE
8
TOP
10
0.004474
20
0.113497
30
0.0
11
0.008903
21
0.099137
31
0.0
0
LINE
8
TOP
10
0.008903
20
0.099137
30
0.0
11
0.014741
21
0.085290
31
0.0
0
LINE
8
TOP
10
0.014741
20
0.085290
30
0.0
11
0.021928
21
0.072092
31
0.0
0
LINE
8
TOP
10
0.021928
20
0.072092
30
0.0
11
0.030393
21
0.059676
31
0.0
0
LINE
8
TOP
10
0.030393
20
0.059676
30
0.0
11
0.040052
21
0.048164
31
0.0
0
LINE
8
TOP
10
0.040052
20
0.048164
30
0.0
11
0.050810
21
0.037671
31
0.0
0
LINE
8
TOP
10
0.050810
20
0.037671
30
0.0
11
0.062559
21
0.028302
31
0.0
0
LINE
8
TOP
10
0.062559
20
0.028302
30
0.0
11
0.075183
21
0.020148
31
0.0
0
LINE
8
TOP
10
0.075183
20
0.020148
30
0.0
11
0.088555
21
0.013293
31
0.0
0
LINE
8
TOP
10
0.088555
20
0.013293
30
0.0
11
0.102544
21
0.007803
31
0.0
0
LINE
8
TOP
10
0.102544
20
0.007803
30
0.0
11
0.117010
21
0.003733
31
0.0
0
LINE
8
TOP
10
0.117010
20
0.003733
30
0.0
11
0.131809
21
0.001123
31
0.0
0
LINE
8
TOP
10
0.131809
20
0.001123
30
0.0
11
0.146795
21
0.000000
31
0.0
0
LINE
8
TOP
10
0.146795
20
0.000000
30
0.0
11
0.161818
21
0.000375
31
0.0
0
LINE
8
TOP
10
0.161818
20
0.000375
30
0.0
11
0.176728
21
0.002243
31
0.0
0
LINE
8
TOP
10
0.176728
20
0.002243
30
0.0
11
0.191379
21
0.005587
31
0.0
0
LINE
8
TOP
10
0.191379
20
0.005587
30
0.0
11
0.205624
21
0.010373
31
0.0
0
LINE
8
TOP
10
0.205624
20
0.010373
30
0.0
11
0.219322
21
0.016554
31
0.0
0
LINE
8
TOP
10
0.219322
20
0.016554
30
0.0
11
0.232336
21
0.024068
31
0.0
0
LINE
8
TOP
10
0.232336
20
0.024068
30
0.0
11
0.244538
21
0.032840
31
0.0
0
LINE
8
TOP
10
0.244538
20
0.032840
30
0.0
11
0.255805
21
0.042783
31
0.0
0
LINE
8
TOP
10
0.255805
20
0.042783
30
0.0
11
0.266026
21
0.053799
31
0.0
0
LINE
8
TOP
10
0.266026
20
0.053799
30
0.0
11
0.275100
21
0.065778
31
0.0
0
LINE
8
TOP
10
0.275100
20
0.065778
30
0.0
11
0.282936
21
0.078601
31
0.0
0
LINE
8
TOP
10
0.282936
20
0.078601
30
0.0
11
0.289456
21
0.092141
31
0.0
0
LINE
8
TOP
10
0.289456
20
0.092141
30
0.0
11
0.294596
21
0.106262
31
0.0
0
LINE
8
TOP
10
0.294596
20
0.106262
30
0.0
11
0.298304
21
0.120825
31
0.0
0
LINE
8
TOP
10
0.298304
20
0.120825
30
0.0
11
0.300544
21
0.135684
31
0.0
0
LINE
8
TOP
10
0.300544
20
0.135684
30
0.0
11
0.301293
21
0.150693
31
0.0
0
LINE
8
TOP
10
0.262806
20
0.150693
30
0.0
11
0.262248
21
0.161870
31
0.0
0
LINE
8
TOP
10
0.262248
20
0.161870
30
0.0
11
0.260580
21
0.172936
31
0.0
0
LINE
8
TOP
10
0.260580
20
0.172936
30
0.0
11
0.257819
21
0.183781
31
0.0
0
LINE
8
TOP
10
0.257819
20
0.183781
30
0.0
11
0.253991
21
0.194296
31
0.0
0
LINE
8
TOP
10
0.253991
20
0.194296
30
0.0
11
0.249136
21
0.204379
31
0.0
0
LINE
8
TOP
10
0.249136
20
0.204379
30
0.0
11
0.243301
21
0.213928
31
0.0
0
LINE
8
TOP
10
0.243301
20
0.213928
30
0.0
11
0.236544
21
0.222848
31
0.0
0
LINE
8
TOP
10
0.236544
20
0.222848
30
0.0
11
0.228932
21
0.231052
31
0.0
0
LINE
8
TOP
10
0.228932
20
0.231052
30
0.0
11
0.220542
21
0.238456
31
0.0
0
LINE
8
TOP
10
0.220542
20
0.238456
30
0.0
11
0.211455
21
0.244989
31
0.0
0
LINE
8
TOP
10
0.211455
20
0.244989
30
0.0
11
0.201764
21
0.250584
31
0.0
0
LINE
8
TOP
10
0.201764
20
0.250584
30
0.0
11
0.191563
21
0.255187
31
0.0
0
LINE
8
TOP
10
0.191563
20
0.255187
30
0.0
11
0.180955
21
0.258751
31
0.0
0
LINE
8
TOP
10
0.180955
20
0.258751
30
0.0
11
0.170045
21
0.261241
31
0.0
0
LINE
8
TOP
10
0.170045
20
0.261241
30
0.0
11
0.158941
21
0.262633
31
0.0
0
LINE
8
TOP
10
0.158941
20
0.262633
30
0.0
11
0.147754
21
0.262912
31
0.0
0
LINE
8
TOP
10
0.147754
20
0.262912
30
0.0
11
0.136595
21
0.262075
31
0.0
0
LINE
8
TOP
10
0.136595
20
0.262075
30
0.0
11
0.125574
21
0.260132
31
0.0
0
LINE
8
TOP
10
0.125574
20
0.260132
30
0.0
11
0.114802
21
0.257101
31
0.0
0
LINE
8
TOP
10
0.114802
20
0.257101
30
0.0
11
0.104384
21
0.253013
31
0.0
0
LINE
8
TOP
10
0.104384
20
0.253013
30
0.0
11
0.094426
21
0.247907
31
0.0
0
LINE
8
TOP
10
0.094426
20
0.247907
30
0.0
11
0.085026
21
0.241836
31
0.0
0
LINE
8
TOP
10
0.085026
20
0.241836
30
0.0
11
0.076276
21
0.234859
31
0.0
0
LINE
8
TOP
10
0.076276
20
0.234859
30
0.0
11
0.068265
21
0.227045
31
0.0
0
LINE
8
TOP
10
0.068265
20
0.227045
30
0.0
11
0.061072
21
0.218472
31
0.0
0
LINE
8
TOP
10
0.061072
20
0.218472
30
0.0
11
0.054768
21
0.209226
31
0.0
0
LINE
8
TOP
10
0.054768
20
0.209226
30
0.0
11
0.049416
21
0.199398
31
0.0
0
LINE
8
TOP
10
0.049416
20
0.199398
30
0.0
11
0.045069
21
0.189086
31
0.0
0
LINE
8
TOP
10
0.045069
20
0.189086
30
0.0
11
0.041771
21
0.178393
31
0.0
0
LINE
8
TOP
10
0.041771
20
0.178393
30
0.0
11
0.039553
21
0.167424
31
0.0
0
LINE
8
TOP
10
0.039553
20
0.167424
30
0.0
11
0.038439
21
0.156289
31
0.0
0
LINE
8
TOP
10
0.038439
20
0.156289
30
0.0
11
0.038439
21
0.145098
31
0.0
0
LINE
8
TOP
10
0.038439
20
0.145098
30
0.0
11
0.039553
21
0.133963
31
0.0
0
LINE
8
TOP
10
0.039553
20
0.133963
30
0.0
11
0.041771
21
0.122994
31
0.0
0
LINE
8
TOP
10
0.041771
20
0.122994
30
0.0
11
0.045069
21
0.112300
31
0.0
0
LINE
8
TOP
10
0.045069
20
0.112300
30
0.0
11
0.049416
21
0.101988
31
0.0
0
LINE
8
TOP
10
0.049416
20
0.101988
30
0.0
11
0.054768
21
0.092160
31
0.0
0
LINE
8
TOP
10
0.054768
20
0.092160
30
0.0
11
0.061072
21
0.082914
31
0.0
0
LINE
8
TOP
10
0.061072
20
0.082914
30
0.0
11
0.068265
21
0.074342
31
0.0
0
LINE
8
TOP
10
0.068265
20
0.074342
30
0.0
11
0.076276
21
0.066528
31
0.0
0
LINE
8
TOP
10
0.076276
20
0.066528
30
0.0
11
0.085026
21
0.059551
31
0.0
0
LINE
8
TOP
10
0.085026
20
0.059551
30
0.0
11
0.094426
21
0.053479
31
0.0
0
LINE
8
TOP
10
0.094426
20
0.053479
30
0.0
11
0.104384
21
0.048374
31
0.0
0
LINE
8
TOP
10
0.104384
20
0.048374
30
0.0
11
0.114802
21
0.044285
31
0.0
0
LINE
8
TOP
10
0.114802
20
0.044285
30
0.0
11
0.125574
21
0.041254
31
0.0
0
LINE
8
TOP
10
0.125574
20
0.041254
30
0.0
11
0.136595
21
0.039311
31
0.0
0
LINE
8
TOP
10
0.136595
20
0.039311
30
0.0
11
0.147754
21
0.038475
31
0.0
0
LINE
8
TOP
10
0.147754
20
0.038475
30
0.0
11
0.158941
21
0.038754
31
0.0
0
LINE
8
TOP
10
0.158941
20
0.038754
30
0.0
11
0.170045
21
0.040145
31
0.0
0
LINE
8
TOP
10
0.170045
20
0.040145
30
0.0
11
0.180955
21
0.042636
31
0.0
0
LINE
8
TOP
10
0.180955
20
0.042636
30
0.0
11
0.191563
21
0.046200
31
0.0
0
LINE
8
TOP
10
0.191563
20
0.046200
30
0.0
11
0.201764
21
0.050802
31
0.0
0
LINE
8
TOP
10
0.201764
20
0.050802
30
0.0
11
0.211455
21
0.056398
31
0.0
0
LINE
8
TOP
10
0.211455
20
0.056398
30
0.0
11
0.220542
21
0.062930
31
0.0
0
LINE
8
TOP
10
0.220542
20
0.062930
30
0.0
11
0.228932
21
0.070335
31
0.0
0
LINE
8
TOP
10
0.228932
20
0.070335
30
0.0
11
0.236544
21
0.078538
31
0.0
0
LINE
8
TOP
10
0.236544
20
0.078538
30
0.0
11
0.243301
21
0.087459
31
0.0
0
LINE
8
TOP
10
0.243301
20
0.087459
30
0.0
11
0.249136
21
0.097008
31
0.0
0
LINE
8
TOP
10
0.249136
20
0.097008
30
0.0
11
0.253991
21
0.107090
31
0.0
0
LINE
8
TOP
10
0.253991
20
0.107090
30
0.0
11
0.257819
21
0.117606
31
0.0
0
LINE
8
TOP
10
0.257819
20
0.117606
30
0.0
11
0.260580
21
0.128451
31
0.0
0
LINE
8
TOP
10
0.260580
20
0.128451
30
0.0
11
0.262248
21
0.139516
31
0.0
0
LINE
8
TOP
10
0.262248
20
0.139516
30
0.0
11
0.262806
21
0.150693
31
0.0
0
ENDSEC
0
EOF
