0
SECTION
2
HEADER
9
$ACADVER
1
AC1009
0
ENDSEC
0
SECTION
2
TABLES
0
TABLE
2
LTYPE
70
3
0
LTYPE
2
CONTINUOUS
70
0
3
Solid line
72
65
73
0
40
0.0
0
LTYPE
2
HIDDEN
70
0
3
__ __ __ __ __
72
65
73
2
40
0.028516
49
0.019020
49
-0.009496
0
LTYPE
2
CENTER
70
0
3
___ _ ___ _ ___
72
65
73
4
40
0.066527
49
0.038011
49
-0.009496
49
0.009496
49
-0.009496
0
ENDTAB
0
TABLE
2
LAYER
70
6
0
LAYER
2
0
70
0
62
7
6
CONTINUOUS
0
LAYER
2
FRONT
70
0
62
7
6
CONTINUOUS
0
LAYER
2
FRONT_HID
70
0
62
7
6
HIDDEN
0
LAYER
2
LEFT
70
0
62
7
6
CONTINUOUS
0
LAYER
2
LEFT_HID
70
0
62
7
6
HIDDEN
0
LAYER
2
TOP
70
0
62
7
6
CONTINUOUS
0
ENDTAB
0
ENDSEC
0
SECTION
2
ENTITIES
0
LINE
8
FRONT
10
0.570312
20
0.588322
30
0.0
11
0.570312
21
0.682072
31
0.0
0
LINE
8
FRONT
10
0.570312
20
0.682072
30
0.0
11
0.474260
21
0.682072
31
0.0
0
LINE
8
FRONT
10
0.474260
20
0.588322
30
0.0
11
0.474260
21
0.682072
31
0.0
0
LINE
8
FRONT
10
0.570312
20
0.588322
30
0.0
11
0.474260
21
0.588322
31
0.0
0
LINE
8
FRONT
10
0.474260
20
0.682072
30
0.0
11
0.096053
21
0.682072
31
0.0
0
LINE
8
FRONT
10
0.474260
20
0.588322
30
0.0
11
0.096053
21
0.588322
31
0.0
0
LINE
8
FRONT
10
0.096053
20
0.588322
30
0.0
11
0.096053
21
0.682072
31
0.0
0
LINE
8
FRONT
10
0.096053
20
0.682072
30
0.0
11
0.000000
21
0.682072
31
0.0
0
LINE
8
FRONT
10
0.000000
20
0.588322
30
0.0
11
0.000000
21
0.682072
31
0.0
0
LINE
8
FRONT
10
0.096053
20
0.588322
30
0.0
11
0.000000
21
0.588322
31
0.0
0
LINE
8
FRONT_HID
6
HIDDEN
10
0.000000
20
0.682072
30
0.0
11
0.570312
21
0.682072
31
0.0
0
LINE
8
FRONT_HID
6
HIDDEN
10
0.000000
20
0.588322
30
0.0
11
0.570312
21
0.588322
31
0.0
0
LINE
8
LEFT
10
1.158635
20
0.588322
30
0.0
11
1.158635
21
0.682072
31
0.0
0
LINE
8
LEFT
10
0.684375
20
0.588322
30
0.0
11
0.684375
21
0.682072
31
0.0
0
LINE
8
LEFT
10
0.684375
20
0.682072
30
0.0
11
1.158635
21
0.682072
31
0.0
0
LINE
8
LEFT
10
0.684375
20
0.588322
30
0.0
11
1.158635
21
0.588322
31
0.0
0
LINE
8
LEFT_HID
6
HIDDEN
10
0.684375
20
0.682072
30
0.0
11
1.062582
21
0.682072
31
0.0
0
LINE
8
LEFT_HID
6
HIDDEN
10
1.062582
20
0.588322
30
0.0
11
1.062582
21
0.682072
31
0.0
0
LINE
8
LEFT_HID
6
HIDDEN
10
0.684375
20
0.588322
30
0.0
11
1.062582
21
0.588322
31
0.0
0
LINE
8
LEFT_HID
6
HIDDEN
10
1.062582
20
0.588322
30
0.0
11
1.062582
21
0.682072
31
0.0
0
LINE
8
LEFT_HID
6
HIDDEN
10
1.062582
20
0.682072
30
0.0
11
0.684375
21
0.682072
31
0.0
0
LINE
8
LEFT_HID
6
HIDDEN
10
1.062582
20
0.588322
30
0.0
11
0.684375
21
0.588322
31
0.0
0
LINE
8
TOP
10
0.000000
20
0.000000
30
0.0
11
0.570312
21
0.000000
31
0.0
0
LINE
8
TOP
10
0.570312
20
0.000000
30
0.0
11
0.570312
21
0.474260
31
0.0
0
LINE
8
TOP
10
0.570312
20
0.474260
30
0.0
11
0.474260
21
0.474260
31
0.0
0
LINE
8
TOP
10
0.474260
20
0.474260
30
0.0
11
0.474260
21
0.096053
31
0.0
0
LINE
8
TOP
10
0.474260
20
0.096053
30
0.0
11
0.096053
21
0.096053
31
0.0
0
LINE
8
TOP
10
0.096053
20
0.096053
30
0.0
11
0.096053
21
0.474260
31
0.0
0
LINE
8
TOP
10
0.096053
20
0.474260
30
0.0
11
0.000000
21
0.474260
31
0.0
0
LINE
8
TOP
10
0.000000
20
0.474260
30
0.0
11
0.000000
21
0.000000
31
0.0
0
ENDSEC
0
EOF
